<svg xmlns="http://www.w3.org/2000/svg" width="98.00770398019121" height="97.0517137710379" style="fill:none; stroke-linecap:round;">
    <rect width="100%" height="100%" fill="#FFFFFF" />
<path stroke="#000000" stroke-width="2" d="M 90,50" />
<path stroke="#000000" stroke-width="2" d="M 24,70 34.7,44.1 35,43.5 35.2,42.8 35.3,42.1 35.4,41.4 35.5,40.8 35.4,40.1 35.3,39.4 35.2,38.7 35,38 34.7,37.4 34.4,36.8 34,36.2 33.6,35.6 33.1,35.1 32.6,34.6 32.1,34.2 31.5,33.8 30.8,33.5 30.2,33.2 29.5,33 28.9,32.9 28.2,32.8 27.5,32.8 26.8,32.8 26.1,32.9 25.4,33 24.7,33.2 24.1,33.5 23.5,33.8 22.9,34.2 22.3,34.6 21.8,35.1 21.3,35.6 20.9,36.2 20.5,36.8 20.2,37.4 19.9,38 19.7,38.7 19.6,39.4 19.5,40.1 19.5,40.8 19.5,41.4 19.6,42.1 19.7,42.8 19.9,43.5 20.2,44.1 20.5,44.8 20.9,45.3 21.3,45.9 21.8,46.4 22.3,46.9 22.9,47.3 23.5,47.7 24.1,48 24.7,48.3 25.4,48.5 26.1,48.6 26.8,48.7 27.5,48.8 28.2,48.7 54,38 54,46 54,47.1 54.1,48.1 54.3,49.1 54.6,50.1 54.9,51.1 55.4,52.1 55.9,53 56.5,53.8 57.2,54.6 57.9,55.4 58.7,56 59.6,56.6 60.5,57.2 61.4,57.6 62.4,58 63.4,58.2 64.5,58.4 65.5,58.5 66.5,58.5 67.6,58.4 68.6,58.2 69.6,58 70.6,57.6 71.6,57.2 72.5,56.6 73.3,56 74.1,55.4 74.9,54.6 75.5,53.8 76.1,53 76.7,52.1 77.1,51.1 77.5,50.1 77.7,49.1 77.9,48.1 78,47.1 78,37.1 78,77.1" />
</svg>