<svg xmlns="http://www.w3.org/2000/svg" width="124.52833717985854" height="50.0" style="fill:none; stroke-linecap:round;">
    <rect width="100%" height="100%" fill="#F3F3F7" />
<path stroke="#663399" stroke-width="2" d="M 90,40" />
<path stroke="#663399" stroke-width="2" d="M 20,10 20,30" />
<path stroke="#663399" stroke-width="2" d="M 26.7,30" />
<path stroke="#663399" stroke-width="2" d="M 26.7,10 26.7,30 26.7,24 26.7,23.1 26.7,22.3 26.9,21.4 27.1,20.6 27.4,19.7 27.8,18.9 28.2,18.2 28.7,17.5 29.3,16.8 29.9,16.2 30.6,15.6 31.3,15.1 32,14.7 32.8,14.3 33.7,14 34.5,13.8 35.4,13.6 36.2,13.6" />
<path stroke="#663399" stroke-width="2" d="M 42.9,30" />
<path stroke="#663399" stroke-width="2" d="M 44.9,30 50.2,17.1 50.4,16.7 50.5,16.4 50.6,16.1 50.6,15.7 50.6,15.4 50.6,15 50.6,14.7 50.5,14.3 50.4,14 50.2,13.7 50.1,13.4 49.9,13.1 49.7,12.8 49.4,12.5 49.2,12.3 48.9,12.1 48.6,11.9 48.3,11.7 48,11.6 47.7,11.5 47.3,11.4 47,11.4 46.6,11.4 46.3,11.4 45.9,11.4 45.6,11.5 45.3,11.6 44.9,11.7 44.6,11.9 44.3,12.1 44,12.3 43.8,12.5 43.6,12.8 43.3,13.1 43.2,13.4 43,13.7 42.9,14 42.8,14.3 42.7,14.7 42.6,15 42.6,15.4 42.6,15.7 42.7,16.1 42.8,16.4 42.9,16.7 43,17.1 43.2,17.4 43.3,17.7 43.6,17.9 43.8,18.2 44,18.4 44.3,18.7 44.6,18.8 44.9,19 45.3,19.1 45.6,19.2 45.9,19.3 46.3,19.4 46.6,19.4 47,19.4 59.9,14" />
<path stroke="#663399" stroke-width="2" d="M 66.6,30" />
<path stroke="#663399" stroke-width="2" d="M 66.6,30 74.2,11.5 81.9,30" />
<path stroke="#663399" stroke-width="2" d="M 88.5,30" />
<path stroke="#663399" stroke-width="2" d="M 88.5,30 88.5,29.3 88.6,28.6 88.7,27.9 88.9,27.2 89.1,26.6 89.4,26 89.8,25.4 90.2,24.8 90.6,24.2 91.1,23.8 91.7,23.3 92.2,22.9 92.8,22.6 93.5,22.3 94.1,22 94.8,21.8 95.5,21.7 96.2,21.7 96.9,21.7 97.6,21.7 98.3,21.8 98.9,22 99.6,22.3 100.2,22.6 100.8,22.9 101.4,23.3 101.9,23.8 102.4,24.2 102.9,24.8 103.3,25.4 103.6,26 103.9,26.6 104.2,27.2 104.3,27.9 104.5,28.6 104.5,29.3" />
</svg>