<svg xmlns="http://www.w3.org/2000/svg" width="100.65371352372485" height="60.0" style="fill:none; stroke-linecap:round;">
    <rect width="100%" height="100%" fill="#FFFFFF" />
<path stroke="#000000" stroke-width="2" d="M 90,50" />
<path stroke="#000000" stroke-width="2" d="M 20,20 20,40" />
<path stroke="#000000" stroke-width="2" d="M 26.7,70" />
<path stroke="#000000" stroke-width="2" d="M 26.7,20 26.7,20.7 26.7,21.4 26.8,22.1 27,22.8 27.3,23.4 27.6,24 27.9,24.6 28.3,25.2 28.8,25.8 29.3,26.2 29.8,26.7 30.4,27.1 31,27.4 31.6,27.7 32.3,28 32.9,28.2 33.6,28.3 34.3,28.3 35,28.3 35.7,28.3 36.4,28.2 37.1,28 37.7,27.7 38.4,27.4 39,27.1 39.5,26.7 40.1,26.2 40.6,25.8 41,25.2 41.4,24.6 41.8,24 42.1,23.4 42.3,22.8 42.5,22.1 42.6,21.4 42.7,20.7" />
<path stroke="#000000" stroke-width="2" d="M 49.3,70" />
<path stroke="#000000" stroke-width="2" d="M 49.3,20 53.1,29.2" />
<path stroke="#000000" stroke-width="2" d="M 53.1,29.2 55.1,31.4 56.4,33.3 57.2,35 57.5,36.4 57.4,37.7 56.9,38.7 56.2,39.5 55.3,40 54.3,40.4 53.1,40.5 52,40.4 51,40 50.1,39.5 49.4,38.7 48.9,37.7 48.8,36.4 49.1,35 49.9,33.3 51.2,31.4 53.1,29.2 57,20" />
<path stroke="#000000" stroke-width="2" d="M 63.6,70" />
<path stroke="#000000" stroke-width="2" d="M 65.6,40 71,27.1 71.1,26.7 71.2,26.4 71.3,26.1 71.4,25.7 71.4,25.4 71.4,25 71.3,24.7 71.2,24.3 71.1,24 71,23.7 70.8,23.4 70.6,23.1 70.4,22.8 70.2,22.5 69.9,22.3 69.7,22.1 69.4,21.9 69.1,21.7 68.7,21.6 68.4,21.5 68.1,21.4 67.7,21.4 67.4,21.4 67,21.4 66.7,21.4 66.3,21.5 66,21.6 65.7,21.7 65.4,21.9 65.1,22.1 64.8,22.3 64.5,22.5 64.3,22.8 64.1,23.1 63.9,23.4 63.7,23.7 63.6,24 63.5,24.3 63.4,24.7 63.4,25 63.4,25.4 63.4,25.7 63.4,26.1 63.5,26.4 63.6,26.7 63.7,27.1 63.9,27.4 64.1,27.7 64.3,27.9 64.5,28.2 64.8,28.4 65.1,28.7 65.4,28.8 65.7,29 66,29.1 66.3,29.2 66.7,29.3 67,29.4 67.4,29.4 67.7,29.4 80.7,24" />
</svg>