<svg xmlns="http://www.w3.org/2000/svg" width="62.06666666666666" height="90.0" style="fill:none; stroke-linecap:round;">
    <rect width="100%" height="100%" fill="#FFFFFF" />
<path stroke="#000000" stroke-width="2" d="M 90,50" />
<path stroke="#000000" stroke-width="2" d="M 20,30" />
<path stroke="#000000" stroke-width="2" d="M 20,30 22.8,30.3 25.4,31.1 27.6,32.4 29.6,34.2 31.2,36.2 32.6,38.6 33.6,41.3 34.4,44.1 34.9,47 35,50 34.9,53 34.4,55.9 33.6,58.7 32.6,61.4 31.2,63.8 29.6,65.8 27.7,67.6 25.4,68.9 22.9,69.7 20,70" />
<path stroke="#000000" stroke-width="2" d="M 41.7,70" />
<path stroke="#000000" stroke-width="2" d="M 41.7,30 42.1,30 42.1,30.4 41.7,30.4 41.7,30" />
</svg>