<svg xmlns="http://www.w3.org/2000/svg" width="108.98700198063513" height="90.0" style="fill:none; stroke-linecap:round;">
    <rect width="100%" height="100%" fill="#F3F3F7" />
<path stroke="#663399" stroke-width="2" d="M 90,50" />
<path stroke="#663399" stroke-width="2" d="M 30,30 20,30 20,70" />
<path stroke="#663399" stroke-width="2" d="M 36.7,70" />
<path stroke="#663399" stroke-width="2" d="M 36.7,50 56.7,50 49,68.5" />
<path stroke="#663399" stroke-width="2" d="M 63.3,70" />
<path stroke="#663399" stroke-width="2" d="M 63.3,20 71,38.5 71.5,38.5 72,38.5 72.5,38.6 73.1,38.7 73.5,38.9 74,39.1 74.5,39.4 74.9,39.7 75.3,40 75.7,40.4 76,40.8 76.3,41.2 76.6,41.7 76.8,42.2 77,42.7 77.1,43.2 77.2,43.7 77.2,44.2 77.2,44.7 77.2,45.3 77.1,45.8 77,46.3 76.8,46.8 76.6,47.2 76.3,47.7 76,48.1 75.7,48.5 75.3,48.9 74.9,49.2 74.5,49.5 74,49.8 73.5,50 73.1,50.2 72.5,50.3 72,50.4 71.5,50.5 71,50.5 70.5,50.4 70,50.3 69.4,50.2 69,50 68.5,49.8 68,49.5 67.6,49.2 67.2,48.9 66.8,48.5 66.5,48.1 66.2,47.7 65.9,47.2 65.7,46.8 65.5,46.3 65.4,45.8 65.3,45.3 65.3,44.7 65.3,44.2 65.3,43.7 65.4,43.2 65.5,42.7 65.7,42.2 65.9,41.7 66.2,41.2 66.5,40.8 66.8,40.4 67.2,40 67.6,39.7 68,39.4 68.5,39.1 69,38.9 69.4,38.7 70,38.6 70.5,38.5 71,38.5 89,38.5 81.3,57" />
</svg>