<svg xmlns="http://www.w3.org/2000/svg" width="129.05505505074223" height="60.0" style="fill:none; stroke-linecap:round;">
    <rect width="100%" height="100%" fill="#FFFFFF" />
<path stroke="#000000" stroke-width="2" d="M 90,50" />
<path stroke="#000000" stroke-width="2" d="M 20,25" />
<path stroke="#000000" stroke-width="2" d="M 20,25 22,24.9 23.6,24.6 24.9,24.1 25.8,23.6 26.3,22.9 26.6,22.2 26.7,21.4 26.5,20.7 26.1,20 25.6,19.4 25,18.9 24.3,18.5 23.6,18.3 22.8,18.4 22.1,18.7 21.4,19.2 20.9,20.1 20.4,21.4 20.1,23 20,25 20,40" />
<path stroke="#000000" stroke-width="2" d="M 33.3,70" />
<path stroke="#000000" stroke-width="2" d="M 43.3,20 35.7,38.5" />
<path stroke="#000000" stroke-width="2" d="M 50,70" />
<path stroke="#000000" stroke-width="2" d="M 50,40 57.6,21.5 65.3,40" />
<path stroke="#000000" stroke-width="2" d="M 72,70" />
<path stroke="#000000" stroke-width="2" d="M 72,20 92,20" />
<path stroke="#000000" stroke-width="2" d="M 98.6,70" />
<path stroke="#000000" stroke-width="2" d="M 98.6,20 99.5,20 100.4,20.1 101.2,20.2 102.1,20.5 102.9,20.8 103.7,21.1 104.4,21.6 105.2,22.1 105.8,22.6 106.4,23.2 107,23.9 107.5,24.6 107.9,25.4 108.3,26.2 108.6,27 108.8,27.8 109,28.7 109.1,29.6 109.1,30.4 109,31.3 108.8,32.2 108.6,33 108.3,33.8 107.9,34.6 107.5,35.4 107,36.1 106.4,36.7 105.8,37.4 105.2,37.9 104.4,38.4 103.7,38.9 102.9,39.2 102.1,39.5 101.2,39.8 100.4,39.9 99.5,40" />
</svg>