<svg xmlns="http://www.w3.org/2000/svg" width="122.39116226656078" height="50.0" style="fill:none; stroke-linecap:round;">
    <rect width="100%" height="100%" fill="#F3F3F7" />
<path stroke="#663399" stroke-width="2" d="M 90,40" />
<path stroke="#663399" stroke-width="2" d="M 20,15 20,15.4 20,15.9 20.1,16.3 20.2,16.7 20.4,17.1 20.6,17.5 20.8,17.9 21,18.3 21.3,18.6 21.6,18.9 22,19.2 22.3,19.4 22.7,19.7 23.1,19.8 23.5,20 23.9,20.1 24.3,20.2 24.8,20.2 25.2,20.2 25.6,20.2 26.1,20.1 26.5,20 26.9,19.8 27.3,19.7 27.7,19.4 28,19.2 28.4,18.9 28.7,18.6 29,18.3 29.2,17.9 29.4,17.5 29.6,17.1 29.8,16.7 29.9,16.3 30,15.9 30,15.4 30,15 30,14.6 29.9,14.1 29.8,13.7 29.6,13.3 29.4,12.9 29.2,12.5 29,12.2 28.7,11.8 28.4,11.5 28,11.3 27.7,11 27.3,10.8 26.9,10.6 26.5,10.4 26.1,10.3 25.6,10.3 25.2,10.2 24.8,10.2 24.3,10.3 23.9,10.3 23.5,10.4 23.1,10.6 22.7,10.8 22.3,11 22,11.3 21.6,11.5 21.3,11.8 21,12.2 20.8,12.5 20.6,12.9 20.4,13.3 20.2,13.7 20.1,14.1 20,14.6 20,15 20,30" />
<path stroke="#663399" stroke-width="2" d="M 36.7,30" />
<path stroke="#663399" stroke-width="2" d="M 46.7,10 39,28.5" />
<path stroke="#663399" stroke-width="2" d="M 53.3,30" />
<path stroke="#663399" stroke-width="2" d="M 53.3,30 61,11.5 68.6,30" />
<path stroke="#663399" stroke-width="2" d="M 75.3,30" />
<path stroke="#663399" stroke-width="2" d="M 75.3,10 85.3,10" />
<path stroke="#663399" stroke-width="2" d="M 92,30" />
<path stroke="#663399" stroke-width="2" d="M 92,10 92.8,10 93.7,10.1 94.6,10.2 95.4,10.5 96.2,10.8 97,11.1 97.8,11.6 98.5,12.1 99.2,12.6 99.8,13.2 100.3,13.9 100.8,14.6 101.3,15.4 101.6,16.2 101.9,17 102.2,17.8 102.3,18.7 102.4,19.6 102.4,20.4 102.3,21.3 102.2,22.2 101.9,23 101.6,23.8 101.3,24.6 100.8,25.4 100.3,26.1 99.8,26.7 99.2,27.4 98.5,27.9 97.8,28.4 97,28.9 96.2,29.2 95.4,29.5 94.6,29.8 93.7,29.9 92.8,30" />
</svg>