<svg xmlns="http://www.w3.org/2000/svg" width="93.98704685705819" height="58.34134087157756" style="fill:none; stroke-linecap:round;">
    <rect width="100%" height="100%" fill="#F3F3F7" />
<path stroke="#663399" stroke-width="2" d="M 90,40" />
<path stroke="#663399" stroke-width="2" d="M 20,10 20,30 20,30.7 20.1,31.4 20.2,32.1 20.4,32.8 20.6,33.4 20.9,34 21.2,34.6 21.6,35.2 22.1,35.8 22.6,36.2 23.1,36.7 23.7,37.1 24.3,37.4 24.9,37.7 25.6,38 26.3,38.2 26.9,38.3 27.6,38.3 28.3,38.3 29,38.3 29.7,38.2 30.4,38 31.1,37.7 31.7,37.4 32.3,37.1 32.9,36.7 33.4,36.2 33.9,35.8 34.3,35.2 34.7,34.6 35.1,34 35.4,33.4 35.6,32.8 35.8,32.1 35.9,31.4 36,30.7" />
<path stroke="#663399" stroke-width="2" d="M 42.7,30" />
<path stroke="#663399" stroke-width="2" d="M 42.7,10 46.5,19.2" />
<path stroke="#663399" stroke-width="2" d="M 46.5,19.2 48.4,21.4 49.7,23.3 50.5,25 50.8,26.4 50.7,27.7 50.3,28.7 49.5,29.5 48.6,30 47.6,30.4 46.5,30.5 45.4,30.4 44.3,30 43.4,29.5 42.7,28.7 42.3,27.7 42.2,26.4 42.5,25 43.2,23.3 44.6,21.4 46.5,19.2 50.3,10" />
<path stroke="#663399" stroke-width="2" d="M 57,30" />
<path stroke="#663399" stroke-width="2" d="M 59,30 64.3,17.1 64.5,16.7 64.6,16.4 64.6,16.1 64.7,15.7 64.7,15.4 64.7,15 64.6,14.7 64.6,14.3 64.5,14 64.3,13.7 64.2,13.4 64,13.1 63.8,12.8 63.5,12.5 63.3,12.3 63,12.1 62.7,11.9 62.4,11.7 62.1,11.6 61.7,11.5 61.4,11.4 61.1,11.4 60.7,11.4 60.4,11.4 60,11.4 59.7,11.5 59.3,11.6 59,11.7 58.7,11.9 58.4,12.1 58.1,12.3 57.9,12.5 57.6,12.8 57.4,13.1 57.2,13.4 57.1,13.7 56.9,14 56.8,14.3 56.8,14.7 56.7,15 56.7,15.4 56.7,15.7 56.8,16.1 56.8,16.4 56.9,16.7 57.1,17.1 57.2,17.4 57.4,17.7 57.6,17.9 57.9,18.2 58.1,18.4 58.4,18.7 58.7,18.8 59,19 59.3,19.1 59.7,19.2 60,19.3 60.4,19.4 60.7,19.4 61.1,19.4 74,14" />
</svg>