<svg xmlns="http://www.w3.org/2000/svg" width="98.98700198063514" height="90.0" style="fill:none; stroke-linecap:round;">
    <rect width="100%" height="100%" fill="#F3F3F7" />
<path stroke="#663399" stroke-width="2" d="M 90,50" />
<path stroke="#663399" stroke-width="2" d="M 30,30 20,30 20,70" />
<path stroke="#663399" stroke-width="2" d="M 36.7,70" />
<path stroke="#663399" stroke-width="2" d="M 36.7,50 46.7,50 39,68.5" />
<path stroke="#663399" stroke-width="2" d="M 53.3,70" />
<path stroke="#663399" stroke-width="2" d="M 53.3,10 61,28.5 61.5,28.5 62,28.5 62.5,28.6 63.1,28.7 63.5,28.9 64,29.1 64.5,29.4 64.9,29.7 65.3,30 65.7,30.4 66,30.8 66.3,31.2 66.6,31.7 66.8,32.2 67,32.7 67.1,33.2 67.2,33.7 67.2,34.2 67.2,34.7 67.2,35.3 67.1,35.8 67,36.3 66.8,36.8 66.6,37.2 66.3,37.7 66,38.1 65.7,38.5 65.3,38.9 64.9,39.2 64.5,39.5 64,39.8 63.5,40 63.1,40.2 62.5,40.3 62,40.4 61.5,40.5 61,40.5 60.5,40.4 60,40.3 59.4,40.2 59,40 58.5,39.8 58,39.5 57.6,39.2 57.2,38.9 56.8,38.5 56.5,38.1 56.2,37.7 55.9,37.2 55.7,36.8 55.5,36.3 55.4,35.8 55.3,35.3 55.3,34.7 55.3,34.2 55.3,33.7 55.4,33.2 55.5,32.7 55.7,32.2 55.9,31.7 56.2,31.2 56.5,30.8 56.8,30.4 57.2,30 57.6,29.7 58,29.4 58.5,29.1 59,28.9 59.4,28.7 60,28.6 60.5,28.5 61,28.5 79,28.5 71.3,47" />
</svg>