<svg xmlns="http://www.w3.org/2000/svg" width="124.94639536545998" height="90.2" style="fill:none; stroke-linecap:round;">
    <rect width="100%" height="100%" fill="#F3F3F7" />
<path stroke="#663399" stroke-width="2" d="M 90,50" />
<path stroke="#663399" stroke-width="2" d="M 40,70 40.2,70 40.2,70.2 40,70.2 40,70" />
<path stroke="#663399" stroke-width="2" d="M 46.9,70" />
<path stroke="#663399" stroke-width="2" d="M 46.9,30 46.9,70 46.9,58 46.9,56.3 47,54.5 47.3,52.8 47.8,51.1 48.4,49.5 49.1,47.9 50,46.4 51,45 52.1,43.6 53.3,42.4 54.7,41.3 56.1,40.3 57.6,39.4 59.2,38.7 60.8,38.1 62.5,37.6 64.2,37.3 66,37.1" />
<path stroke="#663399" stroke-width="2" d="M 72.6,70" />
<path stroke="#663399" stroke-width="2" d="M 72.6,10 72.6,30 78.3,24.3" />
<path stroke="#663399" stroke-width="2" d="M 85,70" />
<path stroke="#663399" stroke-width="2" d="M 85,10 85,30 85,24 85,23.1 85,22.3 85.2,21.4 85.4,20.6 85.7,19.7 86.1,18.9 86.5,18.2 87,17.5 87.6,16.8 88.2,16.2 88.9,15.6 89.6,15.1 90.3,14.7 91.1,14.3 91.9,14 92.8,13.8 93.7,13.6 94.5,13.6 95.4,13.6 96.3,13.6 97.1,13.8 98,14 98.8,14.3 99.6,14.7 100.3,15.1 101,15.6 101.7,16.2 102.3,16.8 102.9,17.5 103.4,18.2 103.8,18.9 104.2,19.7 104.5,20.6 104.7,21.4 104.9,22.3 104.9,23.1 104.9,24 104.9,24.9 104.7,25.7 104.5,26.6 104.2,27.4 103.8,28.2 103.4,28.9 102.9,29.7 102.3,30.3 101.7,30.9 101,31.5 100.3,32 99.6,32.4 98.8,32.8 98,33.1 97.1,33.3 96.3,33.5 95.4,33.6 95.7,33.9 96,34.1 96.4,34.4 96.8,34.6 97.2,34.8 97.6,34.9 98,35.1 98.4,35.1 98.9,35.2 99.3,35.2 99.7,35.1 100.2,35.1 100.6,34.9 101,34.8 101.4,34.6 101.8,34.4 102.1,34.1 102.5,33.9 102.8,33.6 103,33.2 103.3,32.9 103.5,32.5 103.7,32.1 103.8,31.7 104,31.3 104,30.8 104.1,30.4 104.1,30 104,29.5 104,29.1 103.8,28.7 103.7,28.3 103.5,27.9 103.3,27.5 103,27.1 102.8,26.8 102.5,26.5 102.1,26.2 101.8,26 101.4,25.7 101,25.6 100.6,25.4 100.2,25.3 99.7,25.2 99.3,25.2 98.9,25.2 98.4,25.2 98,25.3 97.6,25.4 97.2,25.6 96.8,25.7 96.4,26 96,26.2 95.7,26.5 95.4,26.8 95.1,27.1 94.9,27.5 94.6,27.9 94.5,28.3 94.3,28.7 94.2,29.1 94.1,29.5 94.1,30 94.1,30.4 94.1,30.8 94.2,31.3 94.3,31.7 94.5,32.1 94.6,32.5 94.9,32.9 95.1,33.2 95.4,33.6 95.4,48.6" />
</svg>