<svg xmlns="http://www.w3.org/2000/svg" width="116.4" height="90.2" style="fill:none; stroke-linecap:round;">
    <rect width="100%" height="100%" fill="#FFFFFF" />
<path stroke="#000000" stroke-width="2" d="M 90,50" />
<path stroke="#000000" stroke-width="2" d="M 20,70 20.2,70 20.2,70.2 20,70.2 20,70" />
<path stroke="#000000" stroke-width="2" d="M 26.9,70" />
<path stroke="#000000" stroke-width="2" d="M 42.9,30" />
<path stroke="#000000" stroke-width="2" d="M 42.9,30 42.7,34.1 42.1,37.3 41.1,39.8 40,41.5 38.6,42.7 37.2,43.2 35.7,43.3 34.2,43 32.8,42.3 31.6,41.2 30.6,40 29.9,38.6 29.6,37.2 29.6,35.7 30.2,34.2 31.3,32.9 33.1,31.7 35.6,30.8 38.8,30.2 42.9,30 62.9,30" />
<path stroke="#000000" stroke-width="2" d="M 69.5,70" />
<path stroke="#000000" stroke-width="2" d="M 69.5,50 89.5,50" />
<path stroke="#000000" stroke-width="2" d="M 96.2,70" />
<path stroke="#000000" stroke-width="2" d="M 96.2,30 96.4,30 96.4,30.2 96.2,30.2 96.2,30" />
</svg>