<svg xmlns="http://www.w3.org/2000/svg" width="144.56929434388155" height="50.0" style="fill:none; stroke-linecap:round;">
    <rect width="100%" height="100%" fill="#F3F3F7" />
<path stroke="#663399" stroke-width="2" d="M 90,50" />
<path stroke="#663399" stroke-width="2" d="M 20,15 20.3,15.3 20.6,15.6 21,15.8 21.4,16.1 21.8,16.2 22.2,16.4 22.6,16.5 23,16.6 23.5,16.6 23.9,16.6 24.3,16.6 24.8,16.5 25.2,16.4 25.6,16.2 26,16.1 26.4,15.8 26.7,15.6 27.1,15.3 27.4,15 27.7,14.7 27.9,14.3 28.1,13.9 28.3,13.5 28.5,13.1 28.6,12.7 28.6,12.3 28.7,11.8 28.7,11.4 28.6,11 28.6,10.5 28.5,10.1 28.3,9.7 28.1,9.3 27.9,8.9 27.7,8.6 27.4,8.2 27.1,7.9 26.7,7.7 26.4,7.4 26,7.2 25.6,7 25.2,6.9 24.8,6.7 24.3,6.7 23.9,6.6 23.5,6.6 23,6.7 22.6,6.7 22.2,6.9 21.8,7 21.4,7.2 21,7.4 20.6,7.7 20.3,7.9 20,8.2 19.7,8.6 19.5,8.9 19.3,9.3 19.1,9.7 18.9,10.1 18.8,10.5 18.7,11 18.7,11.4 18.7,11.8 18.7,12.3 18.8,12.7 18.9,13.1 19.1,13.5 19.3,13.9 19.5,14.3 19.7,14.7 20,15 20,30" />
<path stroke="#663399" stroke-width="2" d="M 35.3,70" />
<path stroke="#663399" stroke-width="2" d="M 45.3,10 37.7,28.5" />
<path stroke="#663399" stroke-width="2" d="M 52,70" />
<path stroke="#663399" stroke-width="2" d="M 52,10 52,30 52,24 52,23.1 52.1,22.3 52.2,21.4 52.5,20.6 52.8,19.7 53.1,18.9 53.6,18.2 54.1,17.5 54.6,16.8 55.2,16.2 55.9,15.6 56.6,15.1 57.4,14.7 58.2,14.3 59,14 59.8,13.8 60.7,13.6 61.6,13.6" />
<path stroke="#663399" stroke-width="2" d="M 68.2,70" />
<path stroke="#663399" stroke-width="2" d="M 68.2,10 68.2,30 78.2,30" />
<path stroke="#663399" stroke-width="2" d="M 84.9,70" />
<path stroke="#663399" stroke-width="2" d="M 84.9,30 84.9,29.3 85,28.6 85.1,27.9 85.3,27.2 85.5,26.6 85.8,26 86.1,25.4 86.5,24.8 87,24.2 87.5,23.8 88,23.3 88.6,22.9 89.2,22.6 89.8,22.3 90.5,22 91.2,21.8 91.9,21.7 92.5,21.7 93.2,21.7 93.9,21.7 94.6,21.8 95.3,22 96,22.3 96.6,22.6 97.2,22.9 97.8,23.3 98.3,23.8 98.8,24.2 99.2,24.8 99.6,25.4 100,26 100.3,26.6 100.5,27.2 100.7,27.9 100.8,28.6 100.9,29.3" />
<path stroke="#663399" stroke-width="2" d="M 107.6,70" />
<path stroke="#663399" stroke-width="2" d="M 109.6,30 114.9,17.1 115,16.7 115.2,16.4 115.2,16.1 115.3,15.7 115.3,15.4 115.3,15 115.2,14.7 115.2,14.3 115,14 114.9,13.7 114.8,13.4 114.6,13.1 114.4,12.8 114.1,12.5 113.9,12.3 113.6,12.1 113.3,11.9 113,11.7 112.7,11.6 112.3,11.5 112,11.4 111.6,11.4 111.3,11.4 110.9,11.4 110.6,11.4 110.3,11.5 109.9,11.6 109.6,11.7 109.3,11.9 109,12.1 108.7,12.3 108.5,12.5 108.2,12.8 108,13.1 107.8,13.4 107.7,13.7 107.5,14 107.4,14.3 107.3,14.7 107.3,15 107.3,15.4 107.3,15.7 107.3,16.1 107.4,16.4 107.5,16.7 107.7,17.1 107.8,17.4 108,17.7 108.2,17.9 108.5,18.2 108.7,18.4 109,18.7 109.3,18.8 109.6,19 109.9,19.1 110.3,19.2 110.6,19.3 110.9,19.4 111.3,19.4 111.6,19.4 124.6,14" />
</svg>