<svg xmlns="http://www.w3.org/2000/svg" width="112.92486830337698" height="60.0" style="fill:none; stroke-linecap:round;">
    <rect width="100%" height="100%" fill="#FFFFFF" />
<path stroke="#000000" stroke-width="2" d="M 90,50" />
<path stroke="#000000" stroke-width="2" d="M 20,20 20,40 20,36 20,35.1 20.1,34.3 20.2,33.4 20.5,32.6 20.8,31.7 21.1,30.9 21.6,30.2 22.1,29.5 22.6,28.8 23.2,28.2 23.9,27.6 24.6,27.1" />
<path stroke="#000000" stroke-width="2" d="M 31.3,70" />
<path stroke="#000000" stroke-width="2" d="M 33.3,40 38.6,27.1 38.8,26.7 38.9,26.4 39,26.1 39,25.7 39,25.4 39,25 39,24.7 38.9,24.3 38.8,24 38.6,23.7 38.5,23.4 38.3,23.1 38.1,22.8 37.8,22.5 37.6,22.3 37.3,22.1 37,21.9 36.7,21.7 36.4,21.6 36.1,21.5 35.7,21.4 35.4,21.4 35,21.4 34.7,21.4 34.3,21.4 34,21.5 33.6,21.6 33.3,21.7 33,21.9 32.7,22.1 32.4,22.3 32.2,22.5 32,22.8 31.7,23.1 31.6,23.4 31.4,23.7 31.3,24 31.2,24.3 31.1,24.7 31,25 31,25.4 31,25.7 31.1,26.1 31.2,26.4 31.3,26.7 31.4,27.1 31.6,27.4 31.7,27.7 32,27.9 32.2,28.2 32.4,28.4 32.7,28.7 33,28.8 33.3,29 33.6,29.1 34,29.2 34.3,29.3 34.7,29.4 35,29.4 35.4,29.4 48.3,24" />
<path stroke="#000000" stroke-width="2" d="M 55,70" />
<path stroke="#000000" stroke-width="2" d="M 55,40 62.6,21.5 70.3,40" />
<path stroke="#000000" stroke-width="2" d="M 76.9,70" />
<path stroke="#000000" stroke-width="2" d="M 76.9,28 76.9,27.3 77,26.6 77.1,25.9 77.3,25.2 77.5,24.6 77.8,24 78.2,23.4 78.6,22.8 79,22.2 79.5,21.8 80.1,21.3 80.6,20.9 81.2,20.6 81.9,20.3 82.5,20 83.2,19.8 83.9,19.7 84.6,19.7 85.3,19.7 86,19.7 86.7,19.8 87.3,20 88,20.3 88.6,20.6 89.2,20.9 89.8,21.3 90.3,21.8 90.8,22.2 91.3,22.8 91.7,23.4 92,24 92.3,24.6 92.6,25.2 92.7,25.9 92.9,26.6 92.9,27.3" />
</svg>