<svg xmlns="http://www.w3.org/2000/svg" width="71.86443623134127" height="96.8189315218033" style="fill:none; stroke-linecap:round;">
    <rect width="100%" height="100%" fill="#FFFFFF" />
<path stroke="#000000" stroke-width="2" d="M 90,50" />
<path stroke="#000000" stroke-width="2" d="M 20,70 20.2,70 20.2,70.2 20,70.2 20,70" />
<path stroke="#000000" stroke-width="2" d="M 26.9,70" />
<path stroke="#000000" stroke-width="2" d="M 26.9,30 26.9,70" />
<path stroke="#000000" stroke-width="2" d="M 33.5,70" />
<path stroke="#000000" stroke-width="2" d="M 43.5,50 35.9,68.5 35.9,69.2 35.9,69.9 36.1,70.6 36.2,71.2 36.5,71.9 36.8,72.5 37.1,73.1 37.5,73.7 38,74.2 38.5,74.7 39,75.2 39.6,75.6 40.2,75.9 40.8,76.2 41.5,76.5 42.1,76.6 42.8,76.8 43.5,76.8 44.2,76.8 44.9,76.8 45.6,76.6 46.3,76.5 46.9,76.2 47.6,75.9 48.2,75.6 48.7,75.2 49.3,74.7 49.8,74.2 50.2,73.7 50.6,73.1 51,72.5 51.3,71.9 51.5,71.2 51.7,70.6 51.8,69.9 51.9,69.2" />
</svg>