<svg xmlns="http://www.w3.org/2000/svg" width="114.63620975728612" height="66.68268174315509" style="fill:none; stroke-linecap:round;">
    <rect width="100%" height="100%" fill="#FFFFFF" />
<path stroke="#000000" stroke-width="2" d="M 90,50" />
<path stroke="#000000" stroke-width="2" d="M 20,30 20,31.4 20.1,32.8 20.4,34.2 20.7,35.5 21.2,36.8 21.8,38.1 22.5,39.3 23.3,40.4 24.2,41.5 25.2,42.5 26.2,43.4 27.4,44.2 28.6,44.9 29.9,45.5 31.2,46 32.5,46.3 33.9,46.6 35.3,46.7 36.7,46.7 38.1,46.6 39.4,46.3 40.8,46 42.1,45.5 43.4,44.9 44.6,44.2 45.7,43.4 46.8,42.5 47.8,41.5 48.7,40.4 49.5,39.3 50.2,38.1 50.8,36.8 51.2,35.5 51.6,34.2 51.8,32.8 52,31.4" />
<path stroke="#000000" stroke-width="2" d="M 58.6,70" />
<path stroke="#000000" stroke-width="2" d="M 74.6,30" />
<path stroke="#000000" stroke-width="2" d="M 74.6,30 74.4,34.1 73.8,37.3 72.9,39.8 71.8,41.5 70.4,42.7 69,43.2 67.5,43.3 66,43 64.6,42.3 63.4,41.2 62.4,40 61.7,38.6 61.3,37.2 61.4,35.7 62,34.2 63.1,32.9 64.9,31.7 67.3,30.8 70.6,30.2 74.6,30 94.6,30" />
</svg>