<svg xmlns="http://www.w3.org/2000/svg" width="71.97400396127026" height="110.0" style="fill:none; stroke-linecap:round;">
    <rect width="100%" height="100%" fill="#F3F3F7" />
<path stroke="#663399" stroke-width="2" d="M 90,50" />
<path stroke="#663399" stroke-width="2" d="M 30,30 20,30 20,70 20,90 20,80 20,79.1 20.1,78.3 20.2,77.4 20.5,76.6 20.8,75.7 21.1,74.9 21.6,74.2 22.1,73.5 22.6,72.8 23.2,72.2 23.9,71.6 24.6,71.1 25.4,70.7 26.2,70.3 27,70 27.8,69.8 28.7,69.6 29.6,69.6" />
<path stroke="#663399" stroke-width="2" d="M 36.7,70" />
<path stroke="#663399" stroke-width="2" d="M 36.7,30 44.3,11.5 52,30 44.3,48.5" />
</svg>