<svg xmlns="http://www.w3.org/2000/svg" width="122.64067062793693" height="60.0" style="fill:none; stroke-linecap:round;">
    <rect width="100%" height="100%" fill="#F3F3F7" />
<path stroke="#663399" stroke-width="2" d="M 90,50" />
<path stroke="#663399" stroke-width="2" d="M 28,20 28.5,20 29,20 29.6,20.1 30.1,20.3 30.6,20.5 31,20.7 31.5,20.9 31.9,21.2 32.3,21.6 32.7,21.9 33,22.3 33.3,22.8 33.6,23.2 33.8,23.7 34,24.2 34.1,24.7 34.2,25.2 34.3,25.7 34.3,26.3 34.2,26.8 34.1,27.3 34,27.8 33.8,28.3 33.6,28.8 33.3,29.2 33,29.6 32.7,30 32.3,30.4 31.9,30.8 31.5,31.1 31,31.3 30.6,31.5 30.1,31.7 29.6,31.9 29,31.9 28.5,32 28,32 27.5,31.9 27,31.9 26.5,31.7 26,31.5 25.5,31.3 25,31.1 24.6,30.8 24.2,30.4 23.8,30 23.5,29.6 23.2,29.2 22.9,28.8 22.7,28.3 22.5,27.8 22.4,27.3 22.3,26.8 22.3,26.3 22.3,25.7 22.3,25.2 22.4,24.7 22.5,24.2 22.7,23.7 22.9,23.2 23.2,22.8 23.5,22.3 23.8,21.9 24.2,21.6 24.6,21.2 25,20.9 25.5,20.7 26,20.5 26.5,20.3 27,20.1 27.5,20 28,20 46,20" />
<path stroke="#663399" stroke-width="2" d="M 52.7,70" />
<path stroke="#663399" stroke-width="2" d="M 52.7,40 60.3,21.5 68,40" />
<path stroke="#663399" stroke-width="2" d="M 74.6,70" />
<path stroke="#663399" stroke-width="2" d="M 82.6,20 82.6,35" />
<path stroke="#663399" stroke-width="2" d="M 82.6,35 82.5,37 82.2,38.6 81.8,39.9 81.2,40.8 80.5,41.3 79.8,41.6 79.1,41.7 78.3,41.5 77.6,41.1 77,40.6 76.5,40 76.2,39.3 76,38.6 76,37.8 76.3,37.1 76.9,36.4 77.8,35.9 79,35.4 80.6,35.1 82.6,35 102.6,35" />
</svg>