<svg xmlns="http://www.w3.org/2000/svg" width="136.7470114034404" height="89.98096443163716" style="fill:none; stroke-linecap:round;">
    <rect width="100%" height="100%" fill="#F3F3F7" />
<path stroke="#663399" stroke-width="2" d="M 90,50" />
<path stroke="#663399" stroke-width="2" d="M 36,30 37,30 38.1,30.1 39.1,30.3 40.1,30.5 41.1,30.9 42.1,31.3 43,31.9 43.8,32.5 44.6,33.1 45.4,33.9 46,34.7 46.6,35.5 47.2,36.4 47.6,37.4 48,38.4 48.2,39.4 48.4,40.4 48.5,41.5 48.5,42.5 48.4,43.6 48.2,44.6 48,45.6 47.6,46.6 47.2,47.5 46.6,48.4 46,49.3 45.4,50.1 44.6,50.8 43.8,51.5 43,52.1 42.1,52.6 41.1,53.1 40.1,53.4 39.1,53.7 38.1,53.9 37,54 36,54 35,53.9 33.9,53.7 32.9,53.4 31.9,53.1 31,52.6 30.1,52.1 29.2,51.5 28.4,50.8 27.7,50.1 27,49.3 26.4,48.4 25.9,47.5 25.4,46.6 25.1,45.6 24.8,44.6 24.6,43.6 24.5,42.5 24.5,41.5 24.6,40.4 24.8,39.4 25.1,38.4 25.4,37.4 25.9,36.4 26.4,35.5 27,34.7 27.7,33.9 28.4,33.1 29.2,32.5 30.1,31.9 31,31.3 31.9,30.9 32.9,30.5 33.9,30.3 35,30.1 36,30 72,30" />
<path stroke="#663399" stroke-width="2" d="M 78.7,70" />
<path stroke="#663399" stroke-width="2" d="M 78.7,50 82.5,59.2" />
<path stroke="#663399" stroke-width="2" d="M 82.5,59.2 84.4,61.4 85.7,63.3 86.5,65 86.8,66.4 86.7,67.7 86.3,68.7 85.6,69.5 84.7,70 83.6,70.4 82.5,70.5 81.4,70.4 80.3,70 79.4,69.5 78.7,68.7 78.3,67.7 78.2,66.4 78.5,65 79.3,63.3 80.6,61.4 82.5,59.2 86.3,50 106.3,50 107.2,50 108.1,50.1 108.9,50.2 109.8,50.5 110.6,50.8 111.4,51.1 112.1,51.6 112.8,52.1 113.5,52.6 114.1,53.2 114.7,53.9 115.2,54.6 115.6,55.4 116,56.2 116.3,57 116.5,57.8 116.7,58.7 116.7,59.6 116.7,60.4 116.7,61.3 116.5,62.2 116.3,63 116,63.8 115.6,64.6 115.2,65.4 114.7,66.1 114.1,66.7 113.5,67.4 112.8,67.9 112.1,68.4 111.4,68.9 110.6,69.2 109.8,69.5 108.9,69.8 108.1,69.9 107.2,70" />
</svg>