<svg xmlns="http://www.w3.org/2000/svg" width="100.65371352372485" height="50.0" style="fill:none; stroke-linecap:round;">
    <rect width="100%" height="100%" fill="#F3F3F7" />
<path stroke="#663399" stroke-width="2" d="M 90,40" />
<path stroke="#663399" stroke-width="2" d="M 20,10 20,30" />
<path stroke="#663399" stroke-width="2" d="M 26.7,30" />
<path stroke="#663399" stroke-width="2" d="M 26.7,10 26.7,10.7 26.7,11.4 26.8,12.1 27,12.8 27.3,13.4 27.6,14 27.9,14.6 28.3,15.2 28.8,15.8 29.3,16.2 29.8,16.7 30.4,17.1 31,17.4 31.6,17.7 32.3,18 32.9,18.2 33.6,18.3 34.3,18.3 35,18.3 35.7,18.3 36.4,18.2 37.1,18 37.7,17.7 38.4,17.4 39,17.1 39.5,16.7 40.1,16.2 40.6,15.8 41,15.2 41.4,14.6 41.8,14 42.1,13.4 42.3,12.8 42.5,12.1 42.6,11.4 42.7,10.7" />
<path stroke="#663399" stroke-width="2" d="M 49.3,30" />
<path stroke="#663399" stroke-width="2" d="M 49.3,10 53.1,19.2" />
<path stroke="#663399" stroke-width="2" d="M 53.1,19.2 55.1,21.4 56.4,23.3 57.2,25 57.5,26.4 57.4,27.7 56.9,28.7 56.2,29.5 55.3,30 54.3,30.4 53.1,30.5 52,30.4 51,30 50.1,29.5 49.4,28.7 48.9,27.7 48.8,26.4 49.1,25 49.9,23.3 51.2,21.4 53.1,19.2 57,10" />
<path stroke="#663399" stroke-width="2" d="M 63.6,30" />
<path stroke="#663399" stroke-width="2" d="M 65.6,30 71,17.1 71.1,16.7 71.2,16.4 71.3,16.1 71.4,15.7 71.4,15.4 71.4,15 71.3,14.7 71.2,14.3 71.1,14 71,13.7 70.8,13.4 70.6,13.1 70.4,12.8 70.2,12.5 69.9,12.3 69.7,12.1 69.4,11.9 69.1,11.7 68.7,11.6 68.4,11.5 68.1,11.4 67.7,11.4 67.4,11.4 67,11.4 66.7,11.4 66.3,11.5 66,11.6 65.7,11.7 65.4,11.9 65.1,12.1 64.8,12.3 64.5,12.5 64.3,12.8 64.1,13.1 63.9,13.4 63.7,13.7 63.6,14 63.5,14.3 63.4,14.7 63.4,15 63.4,15.4 63.4,15.7 63.4,16.1 63.5,16.4 63.6,16.7 63.7,17.1 63.9,17.4 64.1,17.7 64.3,17.9 64.5,18.2 64.8,18.4 65.1,18.7 65.4,18.8 65.7,19 66,19.1 66.3,19.2 66.7,19.3 67,19.4 67.4,19.4 67.7,19.4 80.7,14" />
</svg>