<svg xmlns="http://www.w3.org/2000/svg" width="58.68162779195991" height="85.0" style="fill:none; stroke-linecap:round;">
    <rect width="100%" height="100%" fill="#F3F3F7" />
<path stroke="#663399" stroke-width="2" d="M 90,50" />
<path stroke="#663399" stroke-width="2" d="M 20,30 20,50 30,50 30.3,50.3 30.6,50.6 31,50.8 31.4,51.1 31.8,51.2 32.2,51.4 32.6,51.5 33,51.6 33.5,51.6 33.9,51.6 34.3,51.6 34.8,51.5 35.2,51.4 35.6,51.2 36,51.1 36.4,50.8 36.7,50.6 37.1,50.3 37.4,50 37.7,49.7 37.9,49.3 38.1,48.9 38.3,48.5 38.5,48.1 38.6,47.7 38.6,47.3 38.7,46.8 38.7,46.4 38.6,46 38.6,45.5 38.5,45.1 38.3,44.7 38.1,44.3 37.9,43.9 37.7,43.6 37.4,43.2 37.1,42.9 36.7,42.7 36.4,42.4 36,42.2 35.6,42 35.2,41.9 34.8,41.7 34.3,41.7 33.9,41.6 33.5,41.6 33,41.7 32.6,41.7 32.2,41.9 31.8,42 31.4,42.2 31,42.4 30.6,42.7 30.3,42.9 30,43.2 29.7,43.6 29.5,43.9 29.3,44.3 29.1,44.7 28.9,45.1 28.8,45.5 28.7,46 28.7,46.4 28.7,46.8 28.7,47.3 28.8,47.7 28.9,48.1 29.1,48.5 29.3,48.9 29.5,49.3 29.7,49.7 30,50 30,65" />
</svg>