<svg xmlns="http://www.w3.org/2000/svg" width="92.06288580088382" height="89.59797974644667" style="fill:none; stroke-linecap:round;">
    <rect width="100%" height="100%" fill="#F3F3F7" />
<path stroke="#663399" stroke-width="2" d="M 90,50" />
<path stroke="#663399" stroke-width="2" d="M 36,30 16.2,49.8 36,69.6" />
<path stroke="#663399" stroke-width="2" d="M 42.7,70" />
<path stroke="#663399" stroke-width="2" d="M 52.7,20 45,38.5 47.3,32.9 47.6,32.1 48,31.4 48.5,30.6 49,29.9 49.6,29.3 50.3,28.7 51,28.2 51.7,27.7 52.5,27.3 53.3,27 54.1,26.7 55,26.5" />
<path stroke="#663399" stroke-width="2" d="M 61.6,70" />
<path stroke="#663399" stroke-width="2" d="M 61.6,20 62.5,20 63.4,20.1 64.2,20.2 65.1,20.5 65.9,20.8 66.7,21.1 67.4,21.6 68.2,22.1 68.8,22.6 69.4,23.2 70,23.9 70.5,24.6 70.9,25.4 71.3,26.2 71.6,27 71.8,27.8 72,28.7 72.1,29.6 72.1,30.4 72,31.3 71.8,32.2 71.6,33 71.3,33.8 70.9,34.6 70.5,35.4 70,36.1 69.4,36.7 68.8,37.4 68.2,37.9 67.4,38.4 66.7,38.9 65.9,39.2 65.1,39.5 64.2,39.8 63.4,39.9 62.5,40" />
</svg>