<svg xmlns="http://www.w3.org/2000/svg" width="104.63620975728612" height="89.98096443163716" style="fill:none; stroke-linecap:round;">
    <rect width="100%" height="100%" fill="#F3F3F7" />
<path stroke="#663399" stroke-width="2" d="M 90,50" />
<path stroke="#663399" stroke-width="2" d="M 20,30 20,31.4 20.1,32.8 20.4,34.2 20.7,35.5 21.2,36.8 21.8,38.1 22.5,39.3 23.3,40.4 24.2,41.5 25.2,42.5 26.2,43.4 27.4,44.2 28.6,44.9 29.9,45.5 31.2,46 32.5,46.3 33.9,46.6 35.3,46.7 36.7,46.7 38.1,46.6 39.4,46.3 40.8,46 42.1,45.5 43.4,44.9 44.6,44.2 45.7,43.4 46.8,42.5 47.8,41.5 48.7,40.4 49.5,39.3 50.2,38.1 50.8,36.8 51.2,35.5 51.6,34.2 51.8,32.8 52,31.4" />
<path stroke="#663399" stroke-width="2" d="M 58.6,70" />
<path stroke="#663399" stroke-width="2" d="M 66.6,50 67.5,50 68.4,50.1 69.2,50.2 70.1,50.5 70.9,50.8 71.7,51.1 72.4,51.6 73.2,52.1 73.8,52.6 74.4,53.2 75,53.9 75.5,54.6 75.9,55.4 76.3,56.2 76.6,57 76.8,57.8 77,58.7 77.1,59.6 77.1,60.4 77,61.3 76.8,62.2 76.6,63 76.3,63.8 75.9,64.6 75.5,65.4 75,66.1 74.4,66.7 73.8,67.4 73.2,67.9 72.4,68.4 71.7,68.9 70.9,69.2 70.1,69.5 69.2,69.8 68.4,69.9 67.5,70 66.6,70 65.8,69.9 64.9,69.8 64.1,69.5 63.2,69.2 62.5,68.9 61.7,68.4 61,67.9 60.3,67.4 59.7,66.7 59.1,66.1 58.6,65.4 58.2,64.6 57.8,63.8 57.5,63 57.3,62.2 57.2,61.3 57.1,60.4 57.1,59.6 57.2,58.7 57.3,57.8 57.5,57 57.8,56.2 58.2,55.4 58.6,54.6 59.1,53.9 59.7,53.2 60.3,52.6 61,52.1 61.7,51.6 62.5,51.1 63.2,50.8 64.1,50.5 64.9,50.2 65.8,50.1 66.6,50 84.6,50" />
</svg>