<svg xmlns="http://www.w3.org/2000/svg" width="134.22068767943486" height="86.95518130045147" style="fill:none; stroke-linecap:round;">
    <rect width="100%" height="100%" fill="#F3F3F7" />
<path stroke="#663399" stroke-width="2" d="M 90,50" />
<path stroke="#663399" stroke-width="2" d="M 40,30 24.7,67" />
<path stroke="#663399" stroke-width="2" d="M 46.7,70" />
<path stroke="#663399" stroke-width="2" d="M 46.7,50 46.7,50.7 46.7,51.4 46.8,52.1 47,52.8 47.3,53.4 47.6,54 47.9,54.6 48.3,55.2 48.8,55.8 49.3,56.2 49.8,56.7 50.4,57.1 51,57.4 51.6,57.7 52.3,58 52.9,58.2 53.6,58.3 54.3,58.3 55,58.3 55.7,58.3 56.4,58.2 57.1,58 57.7,57.7 58.4,57.4 59,57.1 59.5,56.7 60.1,56.2 60.6,55.8 61,55.2 61.4,54.6 61.8,54 62.1,53.4 62.3,52.8 62.5,52.1 62.6,51.4 62.7,50.7" />
<path stroke="#663399" stroke-width="2" d="M 69.3,70" />
<path stroke="#663399" stroke-width="2" d="M 69.3,20 69.3,40 69.3,34 69.3,33.1 69.4,32.3 69.5,31.4 69.8,30.6 70.1,29.7 70.4,28.9 70.9,28.2 71.4,27.5 71.9,26.8 72.6,26.2 73.2,25.6 73.9,25.1 74.7,24.7 75.5,24.3 76.3,24 77.1,23.8 78,23.6 78.9,23.6" />
<path stroke="#663399" stroke-width="2" d="M 85.5,70" />
<path stroke="#663399" stroke-width="2" d="M 85.5,20 105.5,20 105.8,20.3 106.2,20.6 106.5,20.8 106.9,21.1 107.3,21.2 107.7,21.4 108.1,21.5 108.6,21.6 109,21.6 109.4,21.6 109.9,21.6 110.3,21.5 110.7,21.4 111.1,21.2 111.5,21.1 111.9,20.8 112.3,20.6 112.6,20.3 112.9,20 113.2,19.7 113.4,19.3 113.7,18.9 113.8,18.5 114,18.1 114.1,17.7 114.2,17.3 114.2,16.8 114.2,16.4 114.2,16 114.1,15.5 114,15.1 113.8,14.7 113.7,14.3 113.4,13.9 113.2,13.6 112.9,13.2 112.6,12.9 112.3,12.7 111.9,12.4 111.5,12.2 111.1,12 110.7,11.9 110.3,11.7 109.9,11.7 109.4,11.6 109,11.6 108.6,11.7 108.1,11.7 107.7,11.9 107.3,12 106.9,12.2 106.5,12.4 106.2,12.7 105.8,12.9 105.5,13.2 105.3,13.6 105,13.9 104.8,14.3 104.6,14.7 104.5,15.1 104.3,15.5 104.3,16 104.2,16.4 104.2,16.8 104.3,17.3 104.3,17.7 104.5,18.1 104.6,18.5 104.8,18.9 105,19.3 105.3,19.7 105.5,20 105.5,35" />
</svg>