<svg xmlns="http://www.w3.org/2000/svg" width="113.0933427561386" height="89.98096443163716" style="fill:none; stroke-linecap:round;">
    <rect width="100%" height="100%" fill="#FFFFFF" />
<path stroke="#000000" stroke-width="2" d="M 90,50" />
<path stroke="#000000" stroke-width="2" d="M 36,30" />
<path stroke="#000000" stroke-width="2" d="M 36,30 35.8,34.1 35.2,37.3 34.3,39.8 33.1,41.5 31.8,42.7 30.3,43.2 28.8,43.3 27.4,43 26,42.3 24.8,41.2 23.7,40 23,38.6 22.7,37.2 22.8,35.7 23.3,34.2 24.5,32.9 26.2,31.7 28.7,30.8 31.9,30.2 36,30 56,30" />
<path stroke="#000000" stroke-width="2" d="M 62.7,70" />
<path stroke="#000000" stroke-width="2" d="M 62.7,50 82.7,50 83.5,50 84.4,50.1 85.3,50.2 86.1,50.5 86.9,50.8 87.7,51.1 88.5,51.6 89.2,52.1 89.9,52.6 90.5,53.2 91,53.9 91.5,54.6 92,55.4 92.3,56.2 92.6,57 92.9,57.8 93,58.7 93.1,59.6 93.1,60.4 93,61.3 92.9,62.2 92.6,63 92.3,63.8 92,64.6 91.5,65.4 91,66.1 90.5,66.7 89.9,67.4 89.2,67.9 88.5,68.4 87.7,68.9 86.9,69.2 86.1,69.5 85.3,69.8 84.4,69.9 83.5,70" />
</svg>