<svg xmlns="http://www.w3.org/2000/svg" width="130.6362097572861" height="89.96192886327431" style="fill:none; stroke-linecap:round;">
    <rect width="100%" height="100%" fill="#F3F3F7" />
<path stroke="#663399" stroke-width="2" d="M 90,50" />
<path stroke="#663399" stroke-width="2" d="M 20,30 20,31.4 20.1,32.8 20.4,34.2 20.7,35.5 21.2,36.8 21.8,38.1 22.5,39.3 23.3,40.4 24.2,41.5 25.2,42.5 26.2,43.4 27.4,44.2 28.6,44.9 29.9,45.5 31.2,46 32.5,46.3 33.9,46.6 35.3,46.7 36.7,46.7 38.1,46.6 39.4,46.3 40.8,46 42.1,45.5 43.4,44.9 44.6,44.2 45.7,43.4 46.8,42.5 47.8,41.5 48.7,40.4 49.5,39.3 50.2,38.1 50.8,36.8 51.2,35.5 51.6,34.2 51.8,32.8 52,31.4" />
<path stroke="#663399" stroke-width="2" d="M 58.6,70" />
<path stroke="#663399" stroke-width="2" d="M 74.6,30 76.4,30 78.1,30.2 79.8,30.5 81.5,30.9 83.2,31.5 84.7,32.2 86.3,33.1 87.7,34.1 89,35.2 90.3,36.5 91.4,37.8 92.4,39.2 93.2,40.7 94,42.3 94.6,44 95,45.7 95.3,47.4 95.5,49.1 95.5,50.9 95.3,52.6 95,54.3 94.6,56 94,57.6 93.2,59.2 92.4,60.7 91.4,62.2 90.3,63.5 89,64.7 87.7,65.8 86.3,66.8 84.7,67.7 83.2,68.5 81.5,69.1 79.8,69.5 78.1,69.8 76.4,70 74.6,70 72.9,69.8 71.2,69.5 69.5,69.1 67.9,68.5 66.3,67.7 64.8,66.8 63.3,65.8 62,64.7 60.8,63.5 59.6,62.2 58.6,60.7 57.8,59.2 57,57.6 56.4,56 56,54.3 55.7,52.6 55.5,50.9 55.5,49.1 55.7,47.4 56,45.7 56.4,44 57,42.3 57.8,40.7 58.6,39.2 59.6,37.8 60.8,36.5 62,35.2 63.3,34.1 64.8,33.1 66.3,32.2 67.9,31.5 69.5,30.9 71.2,30.5 72.9,30.2 74.6,30 110.6,30" />
</svg>