<svg xmlns="http://www.w3.org/2000/svg" width="119.09334275613861" height="89.98096443163716" style="fill:none; stroke-linecap:round;">
    <rect width="100%" height="100%" fill="#F3F3F7" />
<path stroke="#663399" stroke-width="2" d="M 90,50" />
<path stroke="#663399" stroke-width="2" d="M 36,30 37.7,30 39.5,30.2 41.2,30.5 42.9,30.9 44.5,31.5 46.1,32.2 47.6,33.1 49,34.1 50.4,35.2 51.6,36.5 52.7,37.8 53.7,39.2 54.6,40.7 55.3,42.3 55.9,44 56.4,45.7 56.7,47.4 56.9,49.1 56.9,50.9 56.7,52.6 56.4,54.3 55.9,56 55.3,57.6 54.6,59.2 53.7,60.7 52.7,62.2 51.6,63.5 50.4,64.7 49,65.8 47.6,66.8 46.1,67.7 44.5,68.5 42.9,69.1 41.2,69.5 39.5,69.8 37.7,70 36,70 34.3,69.8 32.5,69.5 30.9,69.1 29.2,68.5 27.6,67.7 26.1,66.8 24.7,65.8 23.4,64.7 22.1,63.5 21,62.2 20,60.7 19.1,59.2 18.4,57.6 17.8,56 17.3,54.3 17,52.6 16.9,50.9 16.9,49.1 17,47.4 17.3,45.7 17.8,44 18.4,42.3 19.1,40.7 20,39.2 21,37.8 22.1,36.5 23.4,35.2 24.7,34.1 26.1,33.1 27.6,32.2 29.2,31.5 30.9,30.9 32.5,30.5 34.3,30.2 36,30 72,30" />
<path stroke="#663399" stroke-width="2" d="M 78.7,70" />
<path stroke="#663399" stroke-width="2" d="M 78.7,50 88.7,50 89.5,50 90.4,50.1 91.3,50.2 92.1,50.5 92.9,50.8 93.7,51.1 94.5,51.6 95.2,52.1 95.9,52.6 96.5,53.2 97,53.9 97.5,54.6 98,55.4 98.3,56.2 98.6,57 98.9,57.8 99,58.7 99.1,59.6 99.1,60.4 99,61.3 98.9,62.2 98.6,63 98.3,63.8 98,64.6 97.5,65.4 97,66.1 96.5,66.7 95.9,67.4 95.2,67.9 94.5,68.4 93.7,68.9 92.9,69.2 92.1,69.5 91.3,69.8 90.4,69.9 89.5,70" />
</svg>