<svg xmlns="http://www.w3.org/2000/svg" width="99.65378327877688" height="106.95518130045147" style="fill:none; stroke-linecap:round;">
    <rect width="100%" height="100%" fill="#F3F3F7" />
<path stroke="#663399" stroke-width="2" d="M 90,50" />
<path stroke="#663399" stroke-width="2" d="M 40,30 24.7,67 24.7,87 24.7,81 24.7,80.1 24.8,79.2 24.9,78.4 25.1,77.5 25.4,76.7 25.8,75.9 26.2,75.1 26.7,74.4 27.3,73.8 27.9,73.1 28.6,72.6 29.3,72.1 30.1,71.6 30.9,71.3 31.7,71 32.5,70.8 33.4,70.6 34.2,70.5" />
<path stroke="#663399" stroke-width="2" d="M 46.7,70" />
<path stroke="#663399" stroke-width="2" d="M 46.7,10 56.6,19.9 46.7,29.8" />
<path stroke="#663399" stroke-width="2" d="M 63.2,70" />
<path stroke="#663399" stroke-width="2" d="M 63.2,10 63.2,30 63.2,24 63.2,23.1 63.3,22.3 63.5,21.4 63.7,20.6 64,19.7 64.4,18.9 64.8,18.2 65.3,17.5 65.9,16.8 66.5,16.2 67.1,15.6 67.9,15.1 68.6,14.7 69.4,14.3 70.2,14 71.1,13.8 71.9,13.6 72.8,13.6" />
<path stroke="#663399" stroke-width="2" d="M 79.5,70" />
<path stroke="#663399" stroke-width="2" d="M 79.5,30 79.7,30 79.7,30.2 79.5,30.2 79.5,30" />
</svg>