<svg xmlns="http://www.w3.org/2000/svg" width="59.990482215818574" height="85.0" style="fill:none; stroke-linecap:round;">
    <rect width="100%" height="100%" fill="#F3F3F7" />
<path stroke="#663399" stroke-width="2" d="M 90,50" />
<path stroke="#663399" stroke-width="2" d="M 20,30 20,50 30,50 30,50.4 30,50.9 30.1,51.3 30.2,51.7 30.4,52.1 30.6,52.5 30.8,52.9 31,53.3 31.3,53.6 31.6,53.9 32,54.2 32.3,54.4 32.7,54.7 33.1,54.8 33.5,55 33.9,55.1 34.3,55.2 34.8,55.2 35.2,55.2 35.6,55.2 36.1,55.1 36.5,55 36.9,54.8 37.3,54.7 37.7,54.4 38,54.2 38.4,53.9 38.7,53.6 39,53.3 39.2,52.9 39.4,52.5 39.6,52.1 39.8,51.7 39.9,51.3 40,50.9 40,50.4 40,50 40,49.6 39.9,49.1 39.8,48.7 39.6,48.3 39.4,47.9 39.2,47.5 39,47.2 38.7,46.8 38.4,46.5 38,46.3 37.7,46 37.3,45.8 36.9,45.6 36.5,45.4 36.1,45.3 35.6,45.3 35.2,45.2 34.8,45.2 34.3,45.3 33.9,45.3 33.5,45.4 33.1,45.6 32.7,45.8 32.3,46 32,46.3 31.6,46.5 31.3,46.8 31,47.2 30.8,47.5 30.6,47.9 30.4,48.3 30.2,48.7 30.1,49.1 30,49.6 30,50 30,65" />
</svg>