<svg xmlns="http://www.w3.org/2000/svg" width="133.00004487642306" height="61.25" style="fill:none; stroke-linecap:round;">
    <rect width="100%" height="100%" fill="#FFFFFF" />
<path stroke="#000000" stroke-width="2" d="M 90,50" />
<path stroke="#000000" stroke-width="2" d="M 20,20 20,40" />
<path stroke="#000000" stroke-width="2" d="M 26.7,70" />
<path stroke="#000000" stroke-width="2" d="M 26.7,20 26.7,20.7 26.7,21.4 26.8,22.1 27,22.8 27.3,23.4 27.6,24 27.9,24.6 28.3,25.2 28.8,25.8 29.3,26.2 29.8,26.7 30.4,27.1 31,27.4 31.6,27.7 32.3,28 32.9,28.2 33.6,28.3 34.3,28.3 35,28.3 35.7,28.3 36.4,28.2 37.1,28 37.7,27.7 38.4,27.4 39,27.1 39.5,26.7 40.1,26.2 40.6,25.8 41,25.2 41.4,24.6 41.8,24 42.1,23.4 42.3,22.8 42.5,22.1 42.6,21.4 42.7,20.7" />
<path stroke="#000000" stroke-width="2" d="M 49.3,70" />
<path stroke="#000000" stroke-width="2" d="M 49.3,20" />
<path stroke="#000000" stroke-width="2" d="M 49.3,20 49.5,20 49.9,20 50.5,20 51.4,20.1 52.4,20.2 53.6,20.3 55,20.4 56.4,20.6 57.8,20.9 59.3,21.2 60.8,21.7 62.3,22.2 63.7,22.7 65,23.4 66.2,24.2 67.2,25.1 68.1,26.1 68.8,27.3 69.2,28.6 69.3,30" />
<path stroke="#000000" stroke-width="2" d="M 69.3,30 71.2,32.1 72.6,34.1 73.3,35.7 73.6,37.2 73.5,38.4 73.1,39.4 72.4,40.2 71.5,40.8 70.4,41.1 69.3,41.2 68.2,41.1 67.2,40.8 66.2,40.2 65.5,39.4 65.1,38.4 65,37.2 65.3,35.7 66.1,34 67.4,32.1 69.3,30" />
<path stroke="#000000" stroke-width="2" d="M 69.3,30 69.3,29.9 69.3,29.7 69.4,29.4 69.5,29 69.6,28.4 69.9,27.8 70.2,27.2 70.6,26.5 71.1,25.7 71.8,25 72.6,24.3 73.6,23.5 74.8,22.8 76.2,22.2 77.8,21.6 79.6,21 81.6,20.6 83.9,20.3 86.5,20.1 89.3,20" />
<path stroke="#000000" stroke-width="2" d="M 96,70" />
<path stroke="#000000" stroke-width="2" d="M 98,40 103.3,27.1 103.5,26.7 103.6,26.4 103.7,26.1 103.7,25.7 103.7,25.4 103.7,25 103.7,24.7 103.6,24.3 103.5,24 103.3,23.7 103.2,23.4 103,23.1 102.8,22.8 102.5,22.5 102.3,22.3 102,22.1 101.7,21.9 101.4,21.7 101.1,21.6 100.8,21.5 100.4,21.4 100.1,21.4 99.7,21.4 99.4,21.4 99,21.4 98.7,21.5 98.3,21.6 98,21.7 97.7,21.9 97.4,22.1 97.1,22.3 96.9,22.5 96.7,22.8 96.4,23.1 96.3,23.4 96.1,23.7 96,24 95.9,24.3 95.8,24.7 95.7,25 95.7,25.4 95.7,25.7 95.8,26.1 95.9,26.4 96,26.7 96.1,27.1 96.3,27.4 96.4,27.7 96.7,27.9 96.9,28.2 97.1,28.4 97.4,28.7 97.7,28.8 98,29 98.3,29.1 98.7,29.2 99,29.3 99.4,29.4 99.7,29.4 100.1,29.4 113,24" />
</svg>