<svg xmlns="http://www.w3.org/2000/svg" width="104.25953603493396" height="86.95518130045147" style="fill:none; stroke-linecap:round;">
    <rect width="100%" height="100%" fill="#F3F3F7" />
<path stroke="#663399" stroke-width="2" d="M 90,50" />
<path stroke="#663399" stroke-width="2" d="M 40,30 24.7,67 29.3,55.9 30,54.3 30.8,52.7 31.7,51.2 32.8,49.9 33.9,48.6 35.2,47.4 36.6,46.3 38.1,45.4 39.6,44.6 41.2,43.9 42.9,43.4 44.6,43" />
<path stroke="#663399" stroke-width="2" d="M 51.3,70" />
<path stroke="#663399" stroke-width="2" d="M 51.3,10 61.2,19.9 51.3,29.8" />
<path stroke="#663399" stroke-width="2" d="M 67.8,70" />
<path stroke="#663399" stroke-width="2" d="M 67.8,10 67.8,30 67.8,24 67.8,23.1 67.9,22.3 68.1,21.4 68.3,20.6 68.6,19.7 69,18.9 69.4,18.2 69.9,17.5 70.5,16.8 71.1,16.2 71.7,15.6 72.5,15.1 73.2,14.7 74,14.3 74.8,14 75.7,13.8 76.5,13.6 77.4,13.6" />
<path stroke="#663399" stroke-width="2" d="M 84.1,70" />
<path stroke="#663399" stroke-width="2" d="M 84.1,30 84.3,30 84.3,30.2 84.1,30.2 84.1,30" />
</svg>