<svg xmlns="http://www.w3.org/2000/svg" width="125.7447705579838" height="90.2" style="fill:none; stroke-linecap:round;">
    <rect width="100%" height="100%" fill="#F3F3F7" />
<path stroke="#663399" stroke-width="2" d="M 90,50" />
<path stroke="#663399" stroke-width="2" d="M 40,70 40.2,70 40.2,70.2 40,70.2 40,70" />
<path stroke="#663399" stroke-width="2" d="M 46.9,70" />
<path stroke="#663399" stroke-width="2" d="M 46.9,35 46.9,35.4 46.9,35.9 47,36.3 47.1,36.7 47.2,37.1 47.4,37.5 47.6,37.9 47.9,38.3 48.2,38.6 48.5,38.9 48.8,39.2 49.2,39.4 49.6,39.7 49.9,39.8 50.4,40 50.8,40.1 51.2,40.2 51.6,40.2 52.1,40.2 52.5,40.2 52.9,40.1 53.4,40 53.8,39.8 54.2,39.7 54.5,39.4 54.9,39.2 55.2,38.9 55.5,38.6 55.8,38.3 56.1,37.9 56.3,37.5 56.5,37.1 56.6,36.7 56.7,36.3 56.8,35.9 56.9,35.4 56.9,35 56.8,34.6 56.7,34.1 56.6,33.7 56.5,33.3 56.3,32.9 56.1,32.5 55.8,32.2 55.5,31.8 55.2,31.5 54.9,31.3 54.5,31 54.2,30.8 53.8,30.6 53.4,30.4 52.9,30.3 52.5,30.3 52.1,30.2 51.6,30.2 51.2,30.3 50.8,30.3 50.4,30.4 49.9,30.6 49.6,30.8 49.2,31 48.8,31.3 48.5,31.5 48.2,31.8 47.9,32.2 47.6,32.5 47.4,32.9 47.2,33.3 47.1,33.7 47,34.1 46.9,34.6 46.9,35 46.9,50 39.2,68.5" />
<path stroke="#663399" stroke-width="2" d="M 63.5,70" />
<path stroke="#663399" stroke-width="2" d="M 63.5,10 63.5,30 63.5,20 63.5,19.1 63.6,18.3 63.8,17.4 64,16.6 64.3,15.7 64.6,14.9 65.1,14.2 65.6,13.5 66.1,12.8 66.8,12.2 67.4,11.6 68.1,11.1 68.9,10.7 69.7,10.3 70.5,10 71.3,9.8 72.2,9.6 73.1,9.6 73.1,24.6" />
<path stroke="#663399" stroke-width="2" d="M 73.1,24.6 73,26.6 72.7,28.2 72.2,29.5 71.6,30.3 71,30.9 70.2,31.2 69.5,31.2 68.8,31.1 68.1,30.7 67.5,30.2 67,29.6 66.6,28.9 66.4,28.2 66.5,27.4 66.7,26.7 67.3,26 68.2,25.4 69.4,25 71,24.7 73.1,24.6" />
<path stroke="#663399" stroke-width="2" d="M 79.7,70" />
<path stroke="#663399" stroke-width="2" d="M 87.7,30 88.6,30 89.5,30.1 90.3,30.2 91.2,30.5 92,30.8 92.8,31.1 93.6,31.6 94.3,32.1 94.9,32.6 95.6,33.2 96.1,33.9 96.6,34.6 97.1,35.4 97.4,36.2 97.7,37 97.9,37.8 98.1,38.7 98.2,39.6 98.2,40.4 98.1,41.3 97.9,42.2 97.7,43 97.4,43.8 97.1,44.6 96.6,45.4 96.1,46.1 95.6,46.7 94.9,47.4 94.3,47.9 93.6,48.4 92.8,48.9 92,49.2 91.2,49.5 90.3,49.8 89.5,49.9 88.6,50 87.7,50 86.9,49.9 86,49.8 85.2,49.5 84.4,49.2 83.6,48.9 82.8,48.4 82.1,47.9 81.4,47.4 80.8,46.7 80.2,46.1 79.7,45.4 79.3,44.6 78.9,43.8 78.6,43 78.4,42.2 78.3,41.3 78.2,40.4 78.2,39.6 78.3,38.7 78.4,37.8 78.6,37 78.9,36.2 79.3,35.4 79.7,34.6 80.2,33.9 80.8,33.2 81.4,32.6 82.1,32.1 82.8,31.6 83.6,31.1 84.4,30.8 85.2,30.5 86,30.2 86.9,30.1 87.7,30 105.7,30" />
</svg>