<svg xmlns="http://www.w3.org/2000/svg" width="150.16666666666666" height="91.25" style="fill:none; stroke-linecap:round;">
    <rect width="100%" height="100%" fill="#FFFFFF" />
<path stroke="#000000" stroke-width="2" d="M 90,50" />
<path stroke="#000000" stroke-width="2" d="M 36,30" />
<path stroke="#000000" stroke-width="2" d="M 36,30 35.8,34.1 35.2,37.3 34.3,39.8 33.1,41.5 31.8,42.7 30.3,43.2 28.8,43.3 27.4,43 26,42.3 24.8,41.2 23.7,40 23,38.6 22.7,37.2 22.8,35.7 23.3,34.2 24.5,32.9 26.2,31.7 28.7,30.8 31.9,30.2 36,30 56,30" />
<path stroke="#000000" stroke-width="2" d="M 62.7,70" />
<path stroke="#000000" stroke-width="2" d="M 62.7,50" />
<path stroke="#000000" stroke-width="2" d="M 62.7,50 62.8,50 63.2,50 63.9,50 64.7,50.1 65.8,50.2 67,50.3 68.3,50.4 69.7,50.6 71.2,50.9 72.7,51.2 74.2,51.7 75.6,52.2 77,52.7 78.3,53.4 79.5,54.2 80.6,55.1 81.5,56.1 82.1,57.3 82.5,58.6 82.7,60" />
<path stroke="#000000" stroke-width="2" d="M 82.7,60 84.6,62.1 85.9,64.1 86.7,65.7 87,67.2 86.9,68.4 86.4,69.5 85.7,70.2 84.8,70.8 83.8,71.1 82.7,71.2 81.6,71.1 80.5,70.8 79.6,70.2 78.9,69.5 78.4,68.4 78.3,67.2 78.7,65.7 79.4,64 80.7,62.1 82.7,60" />
<path stroke="#000000" stroke-width="2" d="M 82.7,60 82.7,59.9 82.7,59.7 82.7,59.4 82.8,59 83,58.4 83.2,57.8 83.5,57.2 83.9,56.5 84.5,55.7 85.2,55 86,54.3 87,53.5 88.2,52.8 89.5,52.2 91.1,51.6 92.9,51 94.9,50.6 97.2,50.3 99.8,50.1 102.7,50 122.7,50" />
<path stroke="#000000" stroke-width="2" d="M 122.7,50 124.1,50.1 125.4,50.6 126.5,51.2 127.5,52.1 128.3,53.1 129,54.3 129.5,55.6 129.9,57 130.1,58.5 130.2,60 130.1,61.5 129.9,63 129.5,64.4 129,65.7 128.3,66.9 127.5,67.9 126.5,68.8 125.4,69.4 124.1,69.9 122.7,70" />
</svg>