<svg xmlns="http://www.w3.org/2000/svg" width="104.63620975728612" height="66.68268174315509" style="fill:none; stroke-linecap:round;">
    <rect width="100%" height="100%" fill="#F3F3F7" />
<path stroke="#663399" stroke-width="2" d="M 90,50" />
<path stroke="#663399" stroke-width="2" d="M 20,30 20,31.4 20.1,32.8 20.4,34.2 20.7,35.5 21.2,36.8 21.8,38.1 22.5,39.3 23.3,40.4 24.2,41.5 25.2,42.5 26.2,43.4 27.4,44.2 28.6,44.9 29.9,45.5 31.2,46 32.5,46.3 33.9,46.6 35.3,46.7 36.7,46.7 38.1,46.6 39.4,46.3 40.8,46 42.1,45.5 43.4,44.9 44.6,44.2 45.7,43.4 46.8,42.5 47.8,41.5 48.7,40.4 49.5,39.3 50.2,38.1 50.8,36.8 51.2,35.5 51.6,34.2 51.8,32.8 52,31.4" />
<path stroke="#663399" stroke-width="2" d="M 58.6,70" />
<path stroke="#663399" stroke-width="2" d="M 66.6,10 67.5,10 68.4,10.1 69.2,10.2 70.1,10.5 70.9,10.8 71.7,11.1 72.4,11.6 73.2,12.1 73.8,12.6 74.4,13.2 75,13.9 75.5,14.6 75.9,15.4 76.3,16.2 76.6,17 76.8,17.8 77,18.7 77.1,19.6 77.1,20.4 77,21.3 76.8,22.2 76.6,23 76.3,23.8 75.9,24.6 75.5,25.4 75,26.1 74.4,26.7 73.8,27.4 73.2,27.9 72.4,28.4 71.7,28.9 70.9,29.2 70.1,29.5 69.2,29.8 68.4,29.9 67.5,30 66.6,30 65.8,29.9 64.9,29.8 64.1,29.5 63.2,29.2 62.5,28.9 61.7,28.4 61,27.9 60.3,27.4 59.7,26.7 59.1,26.1 58.6,25.4 58.2,24.6 57.8,23.8 57.5,23 57.3,22.2 57.2,21.3 57.1,20.4 57.1,19.6 57.2,18.7 57.3,17.8 57.5,17 57.8,16.2 58.2,15.4 58.6,14.6 59.1,13.9 59.7,13.2 60.3,12.6 61,12.1 61.7,11.6 62.5,11.1 63.2,10.8 64.1,10.5 64.9,10.2 65.8,10.1 66.6,10 84.6,10" />
</svg>