<svg xmlns="http://www.w3.org/2000/svg" width="158.64067062793694" height="60.0" style="fill:none; stroke-linecap:round;">
    <rect width="100%" height="100%" fill="#F3F3F7" />
<path stroke="#663399" stroke-width="2" d="M 90,50" />
<path stroke="#663399" stroke-width="2" d="M 20,20 40,20" />
<path stroke="#663399" stroke-width="2" d="M 46.7,70" />
<path stroke="#663399" stroke-width="2" d="M 46.7,40 54.3,21.5 62,40" />
<path stroke="#663399" stroke-width="2" d="M 68.6,70" />
<path stroke="#663399" stroke-width="2" d="M 78.6,20 71,38.5" />
<path stroke="#663399" stroke-width="2" d="M 85.3,70" />
<path stroke="#663399" stroke-width="2" d="M 85.3,20 85.3,40 95.3,40" />
<path stroke="#663399" stroke-width="2" d="M 102,70" />
<path stroke="#663399" stroke-width="2" d="M 112,20 111.1,20 110.2,20.1 109.4,20.2 108.5,20.5 107.7,20.8 106.9,21.1 106.2,21.6 105.5,22.1 104.8,22.6 104.2,23.2 103.6,23.9 103.1,24.6 102.7,25.4 102.3,26.2 102,27 101.8,27.8 101.6,28.7 101.5,29.6 101.5,30.4 101.6,31.3 101.8,32.2 102,33 102.3,33.8 102.7,34.6 103.1,35.4 103.6,36.1 104.2,36.7 104.8,37.4 105.5,37.9 106.2,38.4 106.9,38.9 107.7,39.2 108.5,39.5 109.4,39.8 110.2,39.9 111.1,40" />
<path stroke="#663399" stroke-width="2" d="M 118.6,70" />
<path stroke="#663399" stroke-width="2" d="M 118.6,20 138.6,20" />
</svg>