<svg xmlns="http://www.w3.org/2000/svg" width="104.63620975728612" height="66.68268174315509" style="fill:none; stroke-linecap:round;">
    <rect width="100%" height="100%" fill="#FFFFFF" />
<path stroke="#000000" stroke-width="2" d="M 90,50" />
<path stroke="#000000" stroke-width="2" d="M 20,30 20,31.4 20.1,32.8 20.4,34.2 20.7,35.5 21.2,36.8 21.8,38.1 22.5,39.3 23.3,40.4 24.2,41.5 25.2,42.5 26.2,43.4 27.4,44.2 28.6,44.9 29.9,45.5 31.2,46 32.5,46.3 33.9,46.6 35.3,46.7 36.7,46.7 38.1,46.6 39.4,46.3 40.8,46 42.1,45.5 43.4,44.9 44.6,44.2 45.7,43.4 46.8,42.5 47.8,41.5 48.7,40.4 49.5,39.3 50.2,38.1 50.8,36.8 51.2,35.5 51.6,34.2 51.8,32.8 52,31.4" />
<path stroke="#000000" stroke-width="2" d="M 58.6,70" />
<path stroke="#000000" stroke-width="2" d="M 66.6,20 67.2,20 67.7,20 68.2,20.1 68.7,20.3 69.2,20.5 69.7,20.7 70.1,20.9 70.6,21.2 71,21.6 71.3,21.9 71.7,22.3 72,22.8 72.2,23.2 72.4,23.7 72.6,24.2 72.8,24.7 72.8,25.2 72.9,25.7 72.9,26.3 72.8,26.8 72.8,27.3 72.6,27.8 72.4,28.3 72.2,28.8 72,29.2 71.7,29.6 71.3,30 71,30.4 70.6,30.8 70.1,31.1 69.7,31.3 69.2,31.5 68.7,31.7 68.2,31.9 67.7,31.9 67.2,32 66.6,32 66.1,31.9 65.6,31.9 65.1,31.7 64.6,31.5 64.1,31.3 63.7,31.1 63.2,30.8 62.8,30.4 62.5,30 62.1,29.6 61.8,29.2 61.6,28.8 61.4,28.3 61.2,27.8 61,27.3 60.9,26.8 60.9,26.3 60.9,25.7 60.9,25.2 61,24.7 61.2,24.2 61.4,23.7 61.6,23.2 61.8,22.8 62.1,22.3 62.5,21.9 62.8,21.6 63.2,21.2 63.7,20.9 64.1,20.7 64.6,20.5 65.1,20.3 65.6,20.1 66.1,20 66.6,20 84.6,20" />
</svg>