<svg xmlns="http://www.w3.org/2000/svg" width="124.52833717985854" height="60.0" style="fill:none; stroke-linecap:round;">
    <rect width="100%" height="100%" fill="#F3F3F7" />
<path stroke="#663399" stroke-width="2" d="M 90,50" />
<path stroke="#663399" stroke-width="2" d="M 20,20 20,40" />
<path stroke="#663399" stroke-width="2" d="M 26.7,70" />
<path stroke="#663399" stroke-width="2" d="M 26.7,20 26.7,40 26.7,34 26.7,33.1 26.7,32.3 26.9,31.4 27.1,30.6 27.4,29.7 27.8,28.9 28.2,28.2 28.7,27.5 29.3,26.8 29.9,26.2 30.6,25.6 31.3,25.1 32,24.7 32.8,24.3 33.7,24 34.5,23.8 35.4,23.6 36.2,23.6" />
<path stroke="#663399" stroke-width="2" d="M 42.9,70" />
<path stroke="#663399" stroke-width="2" d="M 44.9,40 50.2,27.1 50.4,26.7 50.5,26.4 50.6,26.1 50.6,25.7 50.6,25.4 50.6,25 50.6,24.7 50.5,24.3 50.4,24 50.2,23.7 50.1,23.4 49.9,23.1 49.7,22.8 49.4,22.5 49.2,22.3 48.9,22.1 48.6,21.9 48.3,21.7 48,21.6 47.7,21.5 47.3,21.4 47,21.4 46.6,21.4 46.3,21.4 45.9,21.4 45.6,21.5 45.3,21.6 44.9,21.7 44.6,21.9 44.3,22.1 44,22.3 43.8,22.5 43.6,22.8 43.3,23.1 43.2,23.4 43,23.7 42.9,24 42.8,24.3 42.7,24.7 42.6,25 42.6,25.4 42.6,25.7 42.7,26.1 42.8,26.4 42.9,26.7 43,27.1 43.2,27.4 43.3,27.7 43.6,27.9 43.8,28.2 44,28.4 44.3,28.7 44.6,28.8 44.9,29 45.3,29.1 45.6,29.2 45.9,29.3 46.3,29.4 46.6,29.4 47,29.4 59.9,24" />
<path stroke="#663399" stroke-width="2" d="M 66.6,70" />
<path stroke="#663399" stroke-width="2" d="M 66.6,40 74.2,21.5 81.9,40" />
<path stroke="#663399" stroke-width="2" d="M 88.5,70" />
<path stroke="#663399" stroke-width="2" d="M 88.5,40 88.5,39.3 88.6,38.6 88.7,37.9 88.9,37.2 89.1,36.6 89.4,36 89.8,35.4 90.2,34.8 90.6,34.2 91.1,33.8 91.7,33.3 92.2,32.9 92.8,32.6 93.5,32.3 94.1,32 94.8,31.8 95.5,31.7 96.2,31.7 96.9,31.7 97.6,31.7 98.3,31.8 98.9,32 99.6,32.3 100.2,32.6 100.8,32.9 101.4,33.3 101.9,33.8 102.4,34.2 102.9,34.8 103.3,35.4 103.6,36 103.9,36.6 104.2,37.2 104.3,37.9 104.5,38.6 104.5,39.3" />
</svg>