<svg xmlns="http://www.w3.org/2000/svg" width="132.40000000000003" height="73.97715731796461" style="fill:none; stroke-linecap:round;">
    <rect width="100%" height="100%" fill="#FFFFFF" />
<path stroke="#000000" stroke-width="2" d="M 90,50" />
<path stroke="#000000" stroke-width="2" d="M 20,40 20.2,40 20.2,40.2 20,40.2 20,40" />
<path stroke="#000000" stroke-width="2" d="M 26.9,70" />
<path stroke="#000000" stroke-width="2" d="M 42.9,30 43.9,30 45,30.1 46,30.3 47,30.5 48,30.9 48.9,31.3 49.8,31.9 50.7,32.5 51.5,33.1 52.2,33.9 52.9,34.7 53.5,35.5 54,36.4 54.5,37.4 54.8,38.4 55.1,39.4 55.3,40.4 55.4,41.5 55.4,42.5 55.3,43.6 55.1,44.6 54.8,45.6 54.5,46.6 54,47.5 53.5,48.4 52.9,49.3 52.2,50.1 51.5,50.8 50.7,51.5 49.8,52.1 48.9,52.6 48,53.1 47,53.4 46,53.7 45,53.9 43.9,54 42.9,54 41.8,53.9 40.8,53.7 39.8,53.4 38.8,53.1 37.8,52.6 36.9,52.1 36.1,51.5 35.3,50.8 34.5,50.1 33.9,49.3 33.3,48.4 32.7,47.5 32.3,46.6 31.9,45.6 31.7,44.6 31.5,43.6 31.4,42.5 31.4,41.5 31.5,40.4 31.7,39.4 31.9,38.4 32.3,37.4 32.7,36.4 33.3,35.5 33.9,34.7 34.5,33.9 35.3,33.1 36.1,32.5 36.9,31.9 37.8,31.3 38.8,30.9 39.8,30.5 40.8,30.3 41.8,30.1 42.9,30 78.9,30" />
<path stroke="#000000" stroke-width="2" d="M 85.5,70" />
<path stroke="#000000" stroke-width="2" d="M 85.5,50 105.5,50" />
<path stroke="#000000" stroke-width="2" d="M 112.2,70" />
<path stroke="#000000" stroke-width="2" d="M 112.2,30 112.4,30 112.4,30.2 112.2,30.2 112.2,30" />
</svg>