<svg xmlns="http://www.w3.org/2000/svg" width="91.86443623134127" height="96.8189315218033" style="fill:none; stroke-linecap:round;">
    <rect width="100%" height="100%" fill="#FFFFFF" />
<path stroke="#000000" stroke-width="2" d="M 90,50" />
<path stroke="#000000" stroke-width="2" d="M 40,70 40.2,70 40.2,70.2 40,70.2 40,70" />
<path stroke="#000000" stroke-width="2" d="M 46.9,70" />
<path stroke="#000000" stroke-width="2" d="M 46.9,30 46.9,70" />
<path stroke="#000000" stroke-width="2" d="M 53.5,70" />
<path stroke="#000000" stroke-width="2" d="M 63.5,50 55.9,68.5 55.9,69.2 55.9,69.9 56.1,70.6 56.2,71.2 56.5,71.9 56.8,72.5 57.1,73.1 57.5,73.7 58,74.2 58.5,74.7 59,75.2 59.6,75.6 60.2,75.9 60.8,76.2 61.5,76.5 62.1,76.6 62.8,76.8 63.5,76.8 64.2,76.8 64.9,76.8 65.6,76.6 66.3,76.5 66.9,76.2 67.6,75.9 68.2,75.6 68.7,75.2 69.3,74.7 69.8,74.2 70.2,73.7 70.6,73.1 71,72.5 71.3,71.9 71.5,71.2 71.7,70.6 71.8,69.9 71.9,69.2" />
</svg>