<svg xmlns="http://www.w3.org/2000/svg" width="96.1657463870781" height="108.47759065022574" style="fill:none; stroke-linecap:round;">
    <rect width="100%" height="100%" fill="#F3F3F7" />
<path stroke="#663399" stroke-width="2" d="M 90,50" />
<path stroke="#663399" stroke-width="2" d="M 20,30 21.7,30 23.5,30.2 25.2,30.5 26.9,30.9 28.5,31.5 30.1,32.2 31.6,33.1 33,34.1 34.4,35.2 35.6,36.5 36.7,37.8 37.7,39.2 38.6,40.7 39.3,42.3 39.9,44 40.4,45.7 40.7,47.4 40.9,49.1 40.9,50.9 40.7,52.6 40.4,54.3 39.9,56 39.3,57.6 38.6,59.2 37.7,60.7 36.7,62.2 35.6,63.5 34.4,64.7 33,65.8 31.6,66.8 30.1,67.7 28.5,68.5 26.9,69.1 25.2,69.5 23.5,69.8 21.7,70" />
<path stroke="#663399" stroke-width="2" d="M 47.5,70" />
<path stroke="#663399" stroke-width="2" d="M 47.5,35 47.5,35.4 47.6,35.9 47.6,36.3 47.7,36.7 47.9,37.1 48.1,37.5 48.3,37.9 48.5,38.3 48.8,38.6 49.1,38.9 49.5,39.2 49.8,39.4 50.2,39.7 50.6,39.8 51,40 51.4,40.1 51.9,40.2 52.3,40.2 52.7,40.2 53.2,40.2 53.6,40.1 54,40 54.4,39.8 54.8,39.7 55.2,39.4 55.6,39.2 55.9,38.9 56.2,38.6 56.5,38.3 56.7,37.9 57,37.5 57.1,37.1 57.3,36.7 57.4,36.3 57.5,35.9 57.5,35.4 57.5,35 57.5,34.6 57.4,34.1 57.3,33.7 57.1,33.3 57,32.9 56.7,32.5 56.5,32.2 56.2,31.8 55.9,31.5 55.6,31.3 55.2,31 54.8,30.8 54.4,30.6 54,30.4 53.6,30.3 53.2,30.3 52.7,30.2 52.3,30.2 51.9,30.3 51.4,30.3 51,30.4 50.6,30.6 50.2,30.8 49.8,31 49.5,31.3 49.1,31.5 48.8,31.8 48.5,32.2 48.3,32.5 48.1,32.9 47.9,33.3 47.7,33.7 47.6,34.1 47.6,34.6 47.5,35 47.5,50 47.5,54 47.5,54.5 47.6,55 47.7,55.6 47.8,56.1 48,56.6 48.2,57 48.5,57.5 48.8,57.9 49.1,58.3 49.5,58.7 49.9,59 50.3,59.3 50.7,59.6 51.2,59.8 51.7,60 52.2,60.1 52.7,60.2 53.3,60.3 53.8,60.3 54.3,60.2 54.8,60.1 55.3,60 55.8,59.8 56.3,59.6 56.7,59.3 57.2,59 57.6,58.7 57.9,58.3 58.3,57.9 58.6,57.5 58.8,57 59.1,56.6 59.2,56.1 59.4,55.6 59.5,55 59.5,54.5 59.5,49.5 59.5,69.5" />
<path stroke="#663399" stroke-width="2" d="M 66.2,70" />
<path stroke="#663399" stroke-width="2" d="M 66.2,55 66.2,55.4 66.2,55.9 66.3,56.3 66.4,56.7 66.6,57.1 66.7,57.5 67,57.9 67.2,58.3 67.5,58.6 67.8,58.9 68.1,59.2 68.5,59.4 68.9,59.7 69.3,59.8 69.7,60 70.1,60.1 70.5,60.2 71,60.2 71.4,60.2 71.8,60.2 72.3,60.1 72.7,60 73.1,59.8 73.5,59.7 73.9,59.4 74.2,59.2 74.5,58.9 74.9,58.6 75.1,58.3 75.4,57.9 75.6,57.5 75.8,57.1 75.9,56.7 76.1,56.3 76.1,55.9 76.2,55.4 76.2,55 76.1,54.6 76.1,54.1 75.9,53.7 75.8,53.3 75.6,52.9 75.4,52.5 75.1,52.2 74.9,51.8 74.5,51.5 74.2,51.3 73.9,51 73.5,50.8 73.1,50.6 72.7,50.4 72.3,50.3 71.8,50.3 71.4,50.2 71,50.2 70.5,50.3 70.1,50.3 69.7,50.4 69.3,50.6 68.9,50.8 68.5,51 68.1,51.3 67.8,51.5 67.5,51.8 67.2,52.2 67,52.5 66.7,52.9 66.6,53.3 66.4,53.7 66.3,54.1 66.2,54.6 66.2,55 66.2,70 58.5,88.5" />
</svg>