<svg xmlns="http://www.w3.org/2000/svg" width="92.06288580088382" height="89.59797974644667" style="fill:none; stroke-linecap:round;">
    <rect width="100%" height="100%" fill="#F3F3F7" />
<path stroke="#663399" stroke-width="2" d="M 90,50" />
<path stroke="#663399" stroke-width="2" d="M 36,30 16.2,49.8 36,69.6" />
<path stroke="#663399" stroke-width="2" d="M 42.7,70" />
<path stroke="#663399" stroke-width="2" d="M 52.7,10 45,28.5 47.3,22.9 47.6,22.1 48,21.4 48.5,20.6 49,19.9 49.6,19.3 50.3,18.7 51,18.2 51.7,17.7 52.5,17.3 53.3,17 54.1,16.7 55,16.5" />
<path stroke="#663399" stroke-width="2" d="M 61.6,70" />
<path stroke="#663399" stroke-width="2" d="M 61.6,10 62.5,10 63.4,10.1 64.2,10.2 65.1,10.5 65.9,10.8 66.7,11.1 67.4,11.6 68.2,12.1 68.8,12.6 69.4,13.2 70,13.9 70.5,14.6 70.9,15.4 71.3,16.2 71.6,17 71.8,17.8 72,18.7 72.1,19.6 72.1,20.4 72,21.3 71.8,22.2 71.6,23 71.3,23.8 70.9,24.6 70.5,25.4 70,26.1 69.4,26.7 68.8,27.4 68.2,27.9 67.4,28.4 66.7,28.9 65.9,29.2 65.1,29.5 64.2,29.8 63.4,29.9 62.5,30" />
</svg>