<svg xmlns="http://www.w3.org/2000/svg" width="111.68167266838296" height="78.47759065022574" style="fill:none; stroke-linecap:round;">
    <rect width="100%" height="100%" fill="#FFFFFF" />
<path stroke="#000000" stroke-width="2" d="M 90,50" />
<path stroke="#000000" stroke-width="2" d="M 20,25 20.3,25.3 20.6,25.6 21,25.8 21.4,26.1 21.8,26.2 22.2,26.4 22.6,26.5 23,26.6 23.5,26.6 23.9,26.6 24.3,26.6 24.8,26.5 25.2,26.4 25.6,26.2 26,26.1 26.4,25.8 26.7,25.6 27.1,25.3 27.4,25 27.7,24.7 27.9,24.3 28.1,23.9 28.3,23.5 28.5,23.1 28.6,22.7 28.6,22.3 28.7,21.8 28.7,21.4 28.6,21 28.6,20.5 28.5,20.1 28.3,19.7 28.1,19.3 27.9,18.9 27.7,18.6 27.4,18.2 27.1,17.9 26.7,17.7 26.4,17.4 26,17.2 25.6,17 25.2,16.9 24.8,16.7 24.3,16.7 23.9,16.6 23.5,16.6 23,16.7 22.6,16.7 22.2,16.9 21.8,17 21.4,17.2 21,17.4 20.6,17.7 20.3,17.9 20,18.2 19.7,18.6 19.5,18.9 19.3,19.3 19.1,19.7 18.9,20.1 18.8,20.5 18.7,21 18.7,21.4 18.7,21.8 18.7,22.3 18.8,22.7 18.9,23.1 19.1,23.5 19.3,23.9 19.5,24.3 19.7,24.7 20,25 20,40 12.3,58.5 14.6,52.9 15,52.1 15.4,51.4 15.8,50.6 16.4,49.9 17,49.3 17.6,48.7 18.3,48.2 19,47.7 19.8,47.3 20.6,47 21.5,46.7 22.3,46.5" />
<path stroke="#000000" stroke-width="2" d="M 35.3,70" />
<path stroke="#000000" stroke-width="2" d="M 35.3,20 35.3,40 45.3,40" />
<path stroke="#000000" stroke-width="2" d="M 52,70" />
<path stroke="#000000" stroke-width="2" d="M 52,40 52,39.3 52.1,38.6 52.2,37.9 52.4,37.2 52.6,36.6 52.9,36 53.3,35.4 53.7,34.8 54.1,34.2 54.6,33.8 55.1,33.3 55.7,32.9 56.3,32.6 56.9,32.3 57.6,32 58.3,31.8 59,31.7 59.7,31.7 60.4,31.7 61.1,31.7 61.7,31.8 62.4,32 63.1,32.3 63.7,32.6 64.3,32.9 64.9,33.3 65.4,33.8 65.9,34.2 66.4,34.8 66.8,35.4 67.1,36 67.4,36.6 67.6,37.2 67.8,37.9 67.9,38.6 68,39.3" />
<path stroke="#000000" stroke-width="2" d="M 74.7,70" />
<path stroke="#000000" stroke-width="2" d="M 76.7,40 82,27.1 82.2,26.7 82.3,26.4 82.3,26.1 82.4,25.7 82.4,25.4 82.4,25 82.3,24.7 82.3,24.3 82.2,24 82,23.7 81.9,23.4 81.7,23.1 81.5,22.8 81.2,22.5 81,22.3 80.7,22.1 80.4,21.9 80.1,21.7 79.8,21.6 79.4,21.5 79.1,21.4 78.7,21.4 78.4,21.4 78.1,21.4 77.7,21.4 77.4,21.5 77,21.6 76.7,21.7 76.4,21.9 76.1,22.1 75.8,22.3 75.6,22.5 75.3,22.8 75.1,23.1 74.9,23.4 74.8,23.7 74.6,24 74.5,24.3 74.5,24.7 74.4,25 74.4,25.4 74.4,25.7 74.5,26.1 74.5,26.4 74.6,26.7 74.8,27.1 74.9,27.4 75.1,27.7 75.3,27.9 75.6,28.2 75.8,28.4 76.1,28.7 76.4,28.8 76.7,29 77,29.1 77.4,29.2 77.7,29.3 78.1,29.4 78.4,29.4 78.7,29.4 91.7,24" />
</svg>