<svg xmlns="http://www.w3.org/2000/svg" width="126.83516174578881" height="90.0" style="fill:none; stroke-linecap:round;">
    <rect width="100%" height="100%" fill="#F3F3F7" />
<path stroke="#663399" stroke-width="2" d="M 90,50" />
<path stroke="#663399" stroke-width="2" d="M 20,30 21.7,30 23.5,30.2 25.2,30.5 26.9,30.9 28.5,31.5 30.1,32.2 31.6,33.1 33,34.1 34.4,35.2 35.6,36.5 36.7,37.8 37.7,39.2 38.6,40.7 39.3,42.3 39.9,44 40.4,45.7 40.7,47.4 40.9,49.1 40.9,50.9 40.7,52.6 40.4,54.3 39.9,56 39.3,57.6 38.6,59.2 37.7,60.7 36.7,62.2 35.6,63.5 34.4,64.7 33,65.8 31.6,66.8 30.1,67.7 28.5,68.5 26.9,69.1 25.2,69.5 23.5,69.8 21.7,70" />
<path stroke="#663399" stroke-width="2" d="M 47.5,70" />
<path stroke="#663399" stroke-width="2" d="M 47.5,30 57.5,30 57.5,70 57.5,68.3 57.7,66.5 58,64.8 58.4,63.1 59,61.5 59.8,59.9 60.6,58.4 61.6,57 62.8,55.6 64,54.4 65.3,53.3 66.8,52.3 68.3,51.4 69.8,50.7 71.5,50.1" />
<path stroke="#663399" stroke-width="2" d="M 78.2,70" />
<path stroke="#663399" stroke-width="2" d="M 78.2,20 98.2,20 98.5,20.3 98.8,20.6 99.2,20.8 99.5,21.1 99.9,21.2 100.3,21.4 100.8,21.5 101.2,21.6 101.6,21.6 102.1,21.6 102.5,21.6 102.9,21.5 103.3,21.4 103.8,21.2 104.1,21.1 104.5,20.8 104.9,20.6 105.2,20.3 105.5,20 105.8,19.7 106.1,19.3 106.3,18.9 106.5,18.5 106.6,18.1 106.7,17.7 106.8,17.3 106.8,16.8 106.8,16.4 106.8,16 106.7,15.5 106.6,15.1 106.5,14.7 106.3,14.3 106.1,13.9 105.8,13.6 105.5,13.2 105.2,12.9 104.9,12.7 104.5,12.4 104.1,12.2 103.8,12 103.3,11.9 102.9,11.7 102.5,11.7 102.1,11.6 101.6,11.6 101.2,11.7 100.8,11.7 100.3,11.9 99.9,12 99.5,12.2 99.2,12.4 98.8,12.7 98.5,12.9 98.2,13.2 97.9,13.6 97.6,13.9 97.4,14.3 97.2,14.7 97.1,15.1 97,15.5 96.9,16 96.8,16.4 96.8,16.8 96.9,17.3 97,17.7 97.1,18.1 97.2,18.5 97.4,18.9 97.6,19.3 97.9,19.7 98.2,20 98.2,35" />
</svg>