<svg xmlns="http://www.w3.org/2000/svg" width="120.7470114034404" height="90.48879532511287" style="fill:none; stroke-linecap:round;">
    <rect width="100%" height="100%" fill="#FFFFFF" />
<path stroke="#000000" stroke-width="2" d="M 90,50" />
<path stroke="#000000" stroke-width="2" d="M 36,30" />
<path stroke="#000000" stroke-width="2" d="M 36,30 35.8,34.1 35.2,37.3 34.3,39.8 33.1,41.5 31.8,42.7 30.3,43.2 28.8,43.3 27.4,43 26,42.3 24.8,41.2 23.7,40 23,38.6 22.7,37.2 22.8,35.7 23.3,34.2 24.5,32.9 26.2,31.7 28.7,30.8 31.9,30.2 36,30 56,30" />
<path stroke="#000000" stroke-width="2" d="M 62.7,70" />
<path stroke="#000000" stroke-width="2" d="M 62.7,50 66.5,59.2" />
<path stroke="#000000" stroke-width="2" d="M 66.5,59.2 68.4,61.4 69.7,63.3 70.5,65 70.8,66.4 70.7,67.7 70.3,68.7 69.6,69.5 68.7,70 67.6,70.4 66.5,70.5 65.4,70.4 64.3,70 63.4,69.5 62.7,68.7 62.3,67.7 62.2,66.4 62.5,65 63.3,63.3 64.6,61.4 66.5,59.2 70.3,50 90.3,50 91.2,50 92.1,50.1 92.9,50.2 93.8,50.5 94.6,50.8 95.4,51.1 96.1,51.6 96.8,52.1 97.5,52.6 98.1,53.2 98.7,53.9 99.2,54.6 99.6,55.4 100,56.2 100.3,57 100.5,57.8 100.7,58.7 100.7,59.6 100.7,60.4 100.7,61.3 100.5,62.2 100.3,63 100,63.8 99.6,64.6 99.2,65.4 98.7,66.1 98.1,66.7 97.5,67.4 96.8,67.9 96.1,68.4 95.4,68.9 94.6,69.2 93.8,69.5 92.9,69.8 92.1,69.9 91.2,70" />
</svg>