<svg xmlns="http://www.w3.org/2000/svg" width="195.64365229238354" height="60.0" style="fill:none; stroke-linecap:round;">
    <rect width="100%" height="100%" fill="#FFFFFF" />
<path stroke="#000000" stroke-width="2" d="M 90,50" />
<path stroke="#000000" stroke-width="2" d="M 22,40 27.4,27.1 27.5,26.7 27.6,26.4 27.7,26.1 27.7,25.7 27.7,25.4 27.7,25 27.7,24.7 27.6,24.3 27.5,24 27.4,23.7 27.2,23.4 27,23.1 26.8,22.8 26.6,22.5 26.3,22.3 26,22.1 25.7,21.9 25.4,21.7 25.1,21.6 24.8,21.5 24.4,21.4 24.1,21.4 23.7,21.4 23.4,21.4 23,21.4 22.7,21.5 22.4,21.6 22,21.7 21.7,21.9 21.4,22.1 21.2,22.3 20.9,22.5 20.7,22.8 20.5,23.1 20.3,23.4 20.1,23.7 20,24 19.9,24.3 19.8,24.7 19.7,25 19.7,25.4 19.7,25.7 19.8,26.1 19.9,26.4 20,26.7 20.1,27.1 20.3,27.4 20.5,27.7 20.7,27.9 20.9,28.2 21.2,28.4 21.4,28.7 21.7,28.8 22,29 22.4,29.1 22.7,29.2 23,29.3 23.4,29.4 23.7,29.4 24.1,29.4 37,24" />
<path stroke="#000000" stroke-width="2" d="M 43.7,70" />
<path stroke="#000000" stroke-width="2" d="M 43.7,20 63.7,20" />
<path stroke="#000000" stroke-width="2" d="M 70.3,70" />
<path stroke="#000000" stroke-width="2" d="M 70.3,20 78,38.5 85.7,20" />
<path stroke="#000000" stroke-width="2" d="M 92.3,70" />
<path stroke="#000000" stroke-width="2" d="M 92.3,20 92.3,40 102.3,40" />
<path stroke="#000000" stroke-width="2" d="M 109,70" />
<path stroke="#000000" stroke-width="2" d="M 109,25" />
<path stroke="#000000" stroke-width="2" d="M 109,25 111,24.9 112.6,24.6 113.9,24.1 114.7,23.6 115.3,22.9 115.6,22.2 115.6,21.4 115.5,20.7 115.1,20 114.6,19.4 114,18.9 113.3,18.5 112.6,18.3 111.8,18.4 111.1,18.7 110.4,19.2 109.8,20.1 109.4,21.4 109.1,23 109,25 109,40" />
<path stroke="#000000" stroke-width="2" d="M 122.3,70" />
<path stroke="#000000" stroke-width="2" d="M 122.3,20 122.3,40 132.3,40" />
<path stroke="#000000" stroke-width="2" d="M 139,70" />
<path stroke="#000000" stroke-width="2" d="M 149,20 148.1,20 147.2,20.1 146.4,20.2 145.5,20.5 144.7,20.8 143.9,21.1 143.2,21.6 142.5,22.1 141.8,22.6 141.2,23.2 140.6,23.9 140.1,24.6 139.7,25.4 139.3,26.2 139,27 138.8,27.8 138.6,28.7 138.6,29.6 138.6,30.4 138.6,31.3 138.8,32.2 139,33 139.3,33.8 139.7,34.6 140.1,35.4 140.6,36.1 141.2,36.7 141.8,37.4 142.5,37.9 143.2,38.4 143.9,38.9 144.7,39.2 145.5,39.5 146.4,39.8 147.2,39.9 148.1,40" />
<path stroke="#000000" stroke-width="2" d="M 155.6,70" />
<path stroke="#000000" stroke-width="2" d="M 155.6,20 175.6,20" />
</svg>