<svg xmlns="http://www.w3.org/2000/svg" width="130.6362097572861" height="73.97715731796461" style="fill:none; stroke-linecap:round;">
    <rect width="100%" height="100%" fill="#FFFFFF" />
<path stroke="#000000" stroke-width="2" d="M 90,50" />
<path stroke="#000000" stroke-width="2" d="M 20,30 20,31.4 20.1,32.8 20.4,34.2 20.7,35.5 21.2,36.8 21.8,38.1 22.5,39.3 23.3,40.4 24.2,41.5 25.2,42.5 26.2,43.4 27.4,44.2 28.6,44.9 29.9,45.5 31.2,46 32.5,46.3 33.9,46.6 35.3,46.7 36.7,46.7 38.1,46.6 39.4,46.3 40.8,46 42.1,45.5 43.4,44.9 44.6,44.2 45.7,43.4 46.8,42.5 47.8,41.5 48.7,40.4 49.5,39.3 50.2,38.1 50.8,36.8 51.2,35.5 51.6,34.2 51.8,32.8 52,31.4" />
<path stroke="#000000" stroke-width="2" d="M 58.6,70" />
<path stroke="#000000" stroke-width="2" d="M 74.6,30 75.7,30 76.7,30.1 77.8,30.3 78.8,30.5 79.8,30.9 80.7,31.3 81.6,31.9 82.5,32.5 83.3,33.1 84,33.9 84.7,34.7 85.3,35.5 85.8,36.4 86.2,37.4 86.6,38.4 86.9,39.4 87.1,40.4 87.1,41.5 87.1,42.5 87.1,43.6 86.9,44.6 86.6,45.6 86.2,46.6 85.8,47.5 85.3,48.4 84.7,49.3 84,50.1 83.3,50.8 82.5,51.5 81.6,52.1 80.7,52.6 79.8,53.1 78.8,53.4 77.8,53.7 76.7,53.9 75.7,54 74.6,54 73.6,53.9 72.6,53.7 71.6,53.4 70.6,53.1 69.6,52.6 68.7,52.1 67.9,51.5 67.1,50.8 66.3,50.1 65.6,49.3 65,48.4 64.5,47.5 64.1,46.6 63.7,45.6 63.4,44.6 63.3,43.6 63.2,42.5 63.2,41.5 63.3,40.4 63.4,39.4 63.7,38.4 64.1,37.4 64.5,36.4 65,35.5 65.6,34.7 66.3,33.9 67.1,33.1 67.9,32.5 68.7,31.9 69.6,31.3 70.6,30.9 71.6,30.5 72.6,30.3 73.6,30.1 74.6,30 110.6,30" />
</svg>