<svg xmlns="http://www.w3.org/2000/svg" width="104.43591613412514" height="90.2" style="fill:none; stroke-linecap:round;">
    <rect width="100%" height="100%" fill="#FFFFFF" />
<path stroke="#000000" stroke-width="2" d="M 90,50" />
<path stroke="#000000" stroke-width="2" d="M 20,70 20.2,70 20.2,70.2 20,70.2 20,70" />
<path stroke="#000000" stroke-width="2" d="M 26.9,70" />
<path stroke="#000000" stroke-width="2" d="M 26.9,35 27.2,35.3 27.5,35.6 27.9,35.8 28.2,36.1 28.6,36.2 29,36.4 29.5,36.5 29.9,36.6 30.3,36.6 30.8,36.6 31.2,36.6 31.6,36.5 32.1,36.4 32.5,36.2 32.9,36.1 33.2,35.8 33.6,35.6 33.9,35.3 34.2,35 34.5,34.7 34.8,34.3 35,33.9 35.2,33.5 35.3,33.1 35.4,32.7 35.5,32.3 35.5,31.8 35.5,31.4 35.5,31 35.4,30.5 35.3,30.1 35.2,29.7 35,29.3 34.8,28.9 34.5,28.6 34.2,28.2 33.9,27.9 33.6,27.7 33.2,27.4 32.9,27.2 32.5,27 32.1,26.9 31.6,26.7 31.2,26.7 30.8,26.6 30.3,26.6 29.9,26.7 29.5,26.7 29,26.9 28.6,27 28.2,27.2 27.9,27.4 27.5,27.7 27.2,27.9 26.9,28.2 26.6,28.6 26.3,28.9 26.1,29.3 25.9,29.7 25.8,30.1 25.7,30.5 25.6,31 25.6,31.4 25.6,31.8 25.6,32.3 25.7,32.7 25.8,33.1 25.9,33.5 26.1,33.9 26.3,34.3 26.6,34.7 26.9,35 26.9,50 19.2,68.5" />
<path stroke="#000000" stroke-width="2" d="M 42.2,70" />
<path stroke="#000000" stroke-width="2" d="M 42.2,20 42.2,40 42.2,34 42.2,33.1 42.3,32.3 42.4,31.4 42.7,30.6 43,29.7 43.3,28.9 43.8,28.2 44.3,27.5 44.8,26.8 45.4,26.2 46.1,25.6 46.8,25.1 47.6,24.7 48.4,24.3 49.2,24 50,23.8 50.9,23.6 51.8,23.6 51.8,38.6" />
<path stroke="#000000" stroke-width="2" d="M 51.8,38.6 51.7,40.6 51.4,42.2 50.9,43.5 50.3,44.3 49.7,44.9 48.9,45.2 48.2,45.2 47.4,45.1 46.8,44.7 46.1,44.2 45.6,43.6 45.3,42.9 45.1,42.2 45.2,41.4 45.4,40.7 46,40 46.9,39.4 48.1,39 49.7,38.7 51.8,38.6" />
<path stroke="#000000" stroke-width="2" d="M 58.4,70" />
<path stroke="#000000" stroke-width="2" d="M 66.4,30 67,30 67.5,30 68,30.1 68.5,30.3 69,30.5 69.5,30.7 69.9,30.9 70.4,31.2 70.8,31.6 71.1,31.9 71.5,32.3 71.8,32.8 72,33.2 72.2,33.7 72.4,34.2 72.6,34.7 72.6,35.2 72.7,35.7 72.7,36.3 72.6,36.8 72.6,37.3 72.4,37.8 72.2,38.3 72,38.8 71.8,39.2 71.5,39.6 71.1,40 70.8,40.4 70.4,40.8 69.9,41.1 69.5,41.3 69,41.5 68.5,41.7 68,41.9 67.5,41.9 67,42 66.4,42 65.9,41.9 65.4,41.9 64.9,41.7 64.4,41.5 63.9,41.3 63.5,41.1 63,40.8 62.6,40.4 62.3,40 61.9,39.6 61.6,39.2 61.4,38.8 61.2,38.3 61,37.8 60.8,37.3 60.7,36.8 60.7,36.3 60.7,35.7 60.7,35.2 60.8,34.7 61,34.2 61.2,33.7 61.4,33.2 61.6,32.8 61.9,32.3 62.3,31.9 62.6,31.6 63,31.2 63.5,30.9 63.9,30.7 64.4,30.5 64.9,30.3 65.4,30.1 65.9,30 66.4,30 84.4,30" />
</svg>