<svg xmlns="http://www.w3.org/2000/svg" width="92.82963917125952" height="108.47759065022574" style="fill:none; stroke-linecap:round;">
    <rect width="100%" height="100%" fill="#FFFFFF" />
<path stroke="#000000" stroke-width="2" d="M 90,50" />
<path stroke="#000000" stroke-width="2" d="M 20,30 21.7,30 23.5,30.2 25.2,30.5 26.9,30.9 28.5,31.5 30.1,32.2 31.6,33.1 33,34.1 34.4,35.2 35.6,36.5 36.7,37.8 37.7,39.2 38.6,40.7 39.3,42.3 39.9,44 40.4,45.7 40.7,47.4 40.9,49.1 40.9,50.9 40.7,52.6 40.4,54.3 39.9,56 39.3,57.6 38.6,59.2 37.7,60.7 36.7,62.2 35.6,63.5 34.4,64.7 33,65.8 31.6,66.8 30.1,67.7 28.5,68.5 26.9,69.1 25.2,69.5 23.5,69.8 21.7,70" />
<path stroke="#000000" stroke-width="2" d="M 47.5,70" />
<path stroke="#000000" stroke-width="2" d="M 47.5,35" />
<path stroke="#000000" stroke-width="2" d="M 47.5,35 49.6,34.9 51.2,34.6 52.4,34.1 53.3,33.6 53.8,32.9 54.1,32.2 54.2,31.4 54,30.7 53.6,30 53.1,29.4 52.5,28.9 51.8,28.5 51.1,28.3 50.4,28.4 49.6,28.7 49,29.2 48.4,30.1 47.9,31.4 47.6,33 47.5,35 47.5,50 47.5,54 47.5,54.5 47.6,55 47.7,55.6 47.8,56.1 48,56.6 48.2,57 48.5,57.5 48.8,57.9 49.1,58.3 49.5,58.7 49.9,59 50.3,59.3 50.7,59.6 51.2,59.8 51.7,60 52.2,60.1 52.7,60.2 53.3,60.3 53.8,60.3 54.3,60.2 54.8,60.1 55.3,60 55.8,59.8 56.3,59.6 56.7,59.3 57.2,59 57.6,58.7 57.9,58.3 58.3,57.9 58.6,57.5 58.8,57 59.1,56.6 59.2,56.1 59.4,55.6 59.5,55 59.5,54.5 59.5,49.5 59.5,69.5" />
<path stroke="#000000" stroke-width="2" d="M 66.2,70" />
<path stroke="#000000" stroke-width="2" d="M 66.2,55" />
<path stroke="#000000" stroke-width="2" d="M 66.2,55 68.2,54.9 69.8,54.6 71.1,54.1 71.9,53.6 72.5,52.9 72.8,52.2 72.8,51.4 72.7,50.7 72.3,50 71.8,49.4 71.2,48.9 70.5,48.5 69.8,48.3 69,48.4 68.3,48.7 67.6,49.2 67,50.1 66.6,51.4 66.3,53 66.2,55 66.2,70 58.5,88.5" />
</svg>