<svg xmlns="http://www.w3.org/2000/svg" width="126.3333782097564" height="68.34134087157756" style="fill:none; stroke-linecap:round;">
    <rect width="100%" height="100%" fill="#FFFFFF" />
<path stroke="#000000" stroke-width="2" d="M 90,50" />
<path stroke="#000000" stroke-width="2" d="M 20,20 20,40 20,40.7 20.1,41.4 20.2,42.1 20.4,42.8 20.6,43.4 20.9,44 21.2,44.6 21.6,45.2 22.1,45.8 22.6,46.2 23.1,46.7 23.7,47.1 24.3,47.4 24.9,47.7 25.6,48 26.3,48.2 26.9,48.3 27.6,48.3 28.3,48.3 29,48.3 29.7,48.2 30.4,48 31.1,47.7 31.7,47.4 32.3,47.1 32.9,46.7 33.4,46.2 33.9,45.8 34.3,45.2 34.7,44.6 35.1,44 35.4,43.4 35.6,42.8 35.8,42.1 35.9,41.4 36,40.7" />
<path stroke="#000000" stroke-width="2" d="M 42.7,70" />
<path stroke="#000000" stroke-width="2" d="M 42.7,20" />
<path stroke="#000000" stroke-width="2" d="M 42.7,20 42.8,20 43.2,20 43.9,20 44.7,20.1 45.8,20.2 47,20.3 48.3,20.4 49.7,20.6 51.2,20.9 52.7,21.2 54.1,21.7 55.6,22.2 57,22.7 58.3,23.4 59.5,24.2 60.6,25.1 61.4,26.1 62.1,27.3 62.5,28.6 62.7,30" />
<path stroke="#000000" stroke-width="2" d="M 62.7,30 64.6,32.1 65.9,34.1 66.7,35.7 67,37.2 66.9,38.4 66.4,39.4 65.7,40.2 64.8,40.8 63.8,41.1 62.7,41.2 61.5,41.1 60.5,40.8 59.6,40.2 58.9,39.4 58.4,38.4 58.3,37.2 58.6,35.7 59.4,34 60.7,32.1 62.7,30" />
<path stroke="#000000" stroke-width="2" d="M 62.7,30 62.7,29.9 62.7,29.7 62.7,29.4 62.8,29 63,28.4 63.2,27.8 63.5,27.2 63.9,26.5 64.5,25.7 65.2,25 66,24.3 67,23.5 68.1,22.8 69.5,22.2 71.1,21.6 72.9,21 74.9,20.6 77.2,20.3 79.8,20.1 82.7,20" />
<path stroke="#000000" stroke-width="2" d="M 89.3,70" />
<path stroke="#000000" stroke-width="2" d="M 91.3,40 96.7,27.1 96.8,26.7 96.9,26.4 97,26.1 97,25.7 97.1,25.4 97,25 97,24.7 96.9,24.3 96.8,24 96.7,23.7 96.5,23.4 96.3,23.1 96.1,22.8 95.9,22.5 95.6,22.3 95.3,22.1 95.1,21.9 94.7,21.7 94.4,21.6 94.1,21.5 93.7,21.4 93.4,21.4 93.1,21.4 92.7,21.4 92.4,21.4 92,21.5 91.7,21.6 91.4,21.7 91.1,21.9 90.8,22.1 90.5,22.3 90.2,22.5 90,22.8 89.8,23.1 89.6,23.4 89.4,23.7 89.3,24 89.2,24.3 89.1,24.7 89.1,25 89.1,25.4 89.1,25.7 89.1,26.1 89.2,26.4 89.3,26.7 89.4,27.1 89.6,27.4 89.8,27.7 90,27.9 90.2,28.2 90.5,28.4 90.8,28.7 91.1,28.8 91.4,29 91.7,29.1 92,29.2 92.4,29.3 92.7,29.4 93.1,29.4 93.4,29.4 106.3,24" />
</svg>