<svg xmlns="http://www.w3.org/2000/svg" width="100.98700198063513" height="90.0" style="fill:none; stroke-linecap:round;">
    <rect width="100%" height="100%" fill="#FFFFFF" />
<path stroke="#000000" stroke-width="2" d="M 90,50" />
<path stroke="#000000" stroke-width="2" d="M 30,30 20,30 20,70" />
<path stroke="#000000" stroke-width="2" d="M 36.7,70" />
<path stroke="#000000" stroke-width="2" d="M 36.7,50 56.7,50 49,68.5" />
<path stroke="#000000" stroke-width="2" d="M 63.3,70" />
<path stroke="#000000" stroke-width="2" d="M 63.3,20 71,38.5" />
<path stroke="#000000" stroke-width="2" d="M 71,38.5 70.9,40.5 70.6,42.1 70.1,43.4 69.5,44.2 68.9,44.8 68.2,45.1 67.4,45.1 66.7,45 66,44.6 65.4,44.1 64.9,43.5 64.5,42.8 64.3,42.1 64.4,41.3 64.7,40.6 65.2,39.9 66.1,39.3 67.3,38.9 69,38.6 71,38.5 81,38.5 73.3,57" />
</svg>