<svg xmlns="http://www.w3.org/2000/svg" width="80.89721332889329" height="98.00484847426983" style="fill:none; stroke-linecap:round;">
    <rect width="100%" height="100%" fill="#FFFFFF" />
<path stroke="#000000" stroke-width="2" d="M 90,50" />
<path stroke="#000000" stroke-width="2" d="M 20,40 20.2,40 20.2,40.2 20,40.2 20,40" />
<path stroke="#000000" stroke-width="2" d="M 26.9,70" />
<path stroke="#000000" stroke-width="2" d="M 30.9,70 41.6,44.1 41.8,43.5 42.1,42.8 42.2,42.1 42.3,41.4 42.3,40.8 42.3,40.1 42.2,39.4 42.1,38.7 41.8,38 41.6,37.4 41.3,36.8 40.9,36.2 40.5,35.6 40,35.1 39.5,34.6 38.9,34.2 38.3,33.8 37.7,33.5 37.1,33.2 36.4,33 35.7,32.9 35,32.8 34.3,32.8 33.6,32.8 32.9,32.9 32.3,33 31.6,33.2 31,33.5 30.3,33.8 29.7,34.2 29.2,34.6 28.7,35.1 28.2,35.6 27.8,36.2 27.4,36.8 27.1,37.4 26.8,38 26.6,38.7 26.5,39.4 26.4,40.1 26.3,40.8 26.4,41.4 26.5,42.1 26.6,42.8 26.8,43.5 27.1,44.1 27.4,44.8 27.8,45.3 28.2,45.9 28.7,46.4 29.2,46.9 29.7,47.3 30.3,47.7 31,48 31.6,48.3 32.3,48.5 32.9,48.6 33.6,48.7 34.3,48.8 35,48.7 60.9,38 60.9,78 40.9,78" />
</svg>