<svg xmlns="http://www.w3.org/2000/svg" width="124.94639536545998" height="90.2" style="fill:none; stroke-linecap:round;">
    <rect width="100%" height="100%" fill="#FFFFFF" />
<path stroke="#000000" stroke-width="2" d="M 90,50" />
<path stroke="#000000" stroke-width="2" d="M 40,70 40.2,70 40.2,70.2 40,70.2 40,70" />
<path stroke="#000000" stroke-width="2" d="M 46.9,70" />
<path stroke="#000000" stroke-width="2" d="M 46.9,30 46.9,70 46.9,58 46.9,56.3 47,54.5 47.3,52.8 47.8,51.1 48.4,49.5 49.1,47.9 50,46.4 51,45 52.1,43.6 53.3,42.4 54.7,41.3 56.1,40.3 57.6,39.4 59.2,38.7 60.8,38.1 62.5,37.6 64.2,37.3 66,37.1" />
<path stroke="#000000" stroke-width="2" d="M 72.6,70" />
<path stroke="#000000" stroke-width="2" d="M 72.6,20 72.6,40 78.3,34.3" />
<path stroke="#000000" stroke-width="2" d="M 85,70" />
<path stroke="#000000" stroke-width="2" d="M 85,20 85,40 85,34 85,33.1 85,32.3 85.2,31.4 85.4,30.6 85.7,29.7 86.1,28.9 86.5,28.2 87,27.5 87.6,26.8 88.2,26.2 88.9,25.6 89.6,25.1 90.3,24.7 91.1,24.3 91.9,24 92.8,23.8 93.7,23.6 94.5,23.6 95.4,23.6 96.3,23.6 97.1,23.8 98,24 98.8,24.3 99.6,24.7 100.3,25.1 101,25.6 101.7,26.2 102.3,26.8 102.9,27.5 103.4,28.2 103.8,28.9 104.2,29.7 104.5,30.6 104.7,31.4 104.9,32.3 104.9,33.1 104.9,34 104.9,34.9 104.7,35.7 104.5,36.6 104.2,37.4 103.8,38.2 103.4,38.9 102.9,39.7 102.3,40.3 101.7,40.9 101,41.5 100.3,42 99.6,42.4 98.8,42.8 98,43.1 97.1,43.3 96.3,43.5 95.4,43.6 95.7,43.9 96,44.1 96.4,44.4 96.8,44.6 97.2,44.8 97.6,44.9 98,45.1 98.4,45.1 98.9,45.2 99.3,45.2 99.7,45.1 100.2,45.1 100.6,44.9 101,44.8 101.4,44.6 101.8,44.4 102.1,44.1 102.5,43.9 102.8,43.6 103,43.2 103.3,42.9 103.5,42.5 103.7,42.1 103.8,41.7 104,41.3 104,40.8 104.1,40.4 104.1,40 104,39.5 104,39.1 103.8,38.7 103.7,38.3 103.5,37.9 103.3,37.5 103,37.1 102.8,36.8 102.5,36.5 102.1,36.2 101.8,36 101.4,35.7 101,35.6 100.6,35.4 100.2,35.3 99.7,35.2 99.3,35.2 98.9,35.2 98.4,35.2 98,35.3 97.6,35.4 97.2,35.6 96.8,35.7 96.4,36 96,36.2 95.7,36.5 95.4,36.8 95.1,37.1 94.9,37.5 94.6,37.9 94.5,38.3 94.3,38.7 94.2,39.1 94.1,39.5 94.1,40 94.1,40.4 94.1,40.8 94.2,41.3 94.3,41.7 94.5,42.1 94.6,42.5 94.9,42.9 95.1,43.2 95.4,43.6 95.4,58.6" />
</svg>