<svg xmlns="http://www.w3.org/2000/svg" width="112.92486830337698" height="50.0" style="fill:none; stroke-linecap:round;">
    <rect width="100%" height="100%" fill="#F3F3F7" />
<path stroke="#663399" stroke-width="2" d="M 90,50" />
<path stroke="#663399" stroke-width="2" d="M 20,10 20,30 20,26 20,25.1 20.1,24.3 20.2,23.4 20.5,22.6 20.8,21.7 21.1,20.9 21.6,20.2 22.1,19.5 22.6,18.8 23.2,18.2 23.9,17.6 24.6,17.1" />
<path stroke="#663399" stroke-width="2" d="M 31.3,70" />
<path stroke="#663399" stroke-width="2" d="M 33.3,30 38.6,17.1 38.8,16.7 38.9,16.4 39,16.1 39,15.7 39,15.4 39,15 39,14.7 38.9,14.3 38.8,14 38.6,13.7 38.5,13.4 38.3,13.1 38.1,12.8 37.8,12.5 37.6,12.3 37.3,12.1 37,11.9 36.7,11.7 36.4,11.6 36.1,11.5 35.7,11.4 35.4,11.4 35,11.4 34.7,11.4 34.3,11.4 34,11.5 33.6,11.6 33.3,11.7 33,11.9 32.7,12.1 32.4,12.3 32.2,12.5 32,12.8 31.7,13.1 31.6,13.4 31.4,13.7 31.3,14 31.2,14.3 31.1,14.7 31,15 31,15.4 31,15.7 31.1,16.1 31.2,16.4 31.3,16.7 31.4,17.1 31.6,17.4 31.7,17.7 32,17.9 32.2,18.2 32.4,18.4 32.7,18.7 33,18.8 33.3,19 33.6,19.1 34,19.2 34.3,19.3 34.7,19.4 35,19.4 35.4,19.4 48.3,14" />
<path stroke="#663399" stroke-width="2" d="M 55,70" />
<path stroke="#663399" stroke-width="2" d="M 55,30 62.6,11.5 70.3,30" />
<path stroke="#663399" stroke-width="2" d="M 76.9,70" />
<path stroke="#663399" stroke-width="2" d="M 76.9,30 76.9,29.3 77,28.6 77.1,27.9 77.3,27.2 77.5,26.6 77.8,26 78.2,25.4 78.6,24.8 79,24.2 79.5,23.8 80.1,23.3 80.6,22.9 81.2,22.6 81.9,22.3 82.5,22 83.2,21.8 83.9,21.7 84.6,21.7 85.3,21.7 86,21.7 86.7,21.8 87.3,22 88,22.3 88.6,22.6 89.2,22.9 89.8,23.3 90.3,23.8 90.8,24.2 91.3,24.8 91.7,25.4 92,26 92.3,26.6 92.6,27.2 92.7,27.9 92.9,28.6 92.9,29.3" />
</svg>