<svg xmlns="http://www.w3.org/2000/svg" width="133.78421059275172" height="60.0" style="fill:none; stroke-linecap:round;">
    <rect width="100%" height="100%" fill="#F3F3F7" />
<path stroke="#663399" stroke-width="2" d="M 90,50" />
<path stroke="#663399" stroke-width="2" d="M 20,30 60,30" />
<path stroke="#663399" stroke-width="2" d="M 66.7,70" />
<path stroke="#663399" stroke-width="2" d="M 66.7,25 67,25.3 67.3,25.6 67.7,25.8 68,26.1 68.4,26.2 68.8,26.4 69.3,26.5 69.7,26.6 70.1,26.6 70.6,26.6 71,26.6 71.4,26.5 71.9,26.4 72.3,26.2 72.7,26.1 73,25.8 73.4,25.6 73.7,25.3 74,25 74.3,24.7 74.6,24.3 74.8,23.9 75,23.5 75.1,23.1 75.2,22.7 75.3,22.3 75.3,21.8 75.3,21.4 75.3,21 75.2,20.5 75.1,20.1 75,19.7 74.8,19.3 74.6,18.9 74.3,18.6 74,18.2 73.7,17.9 73.4,17.7 73,17.4 72.7,17.2 72.3,17 71.9,16.9 71.4,16.7 71,16.7 70.6,16.6 70.1,16.6 69.7,16.7 69.3,16.7 68.8,16.9 68.4,17 68,17.2 67.7,17.4 67.3,17.7 67,17.9 66.7,18.2 66.4,18.6 66.1,18.9 65.9,19.3 65.7,19.7 65.6,20.1 65.5,20.5 65.4,21 65.4,21.4 65.4,21.8 65.4,22.3 65.5,22.7 65.6,23.1 65.7,23.5 65.9,23.9 66.1,24.3 66.4,24.7 66.7,25 66.7,40" />
<path stroke="#663399" stroke-width="2" d="M 82,70" />
<path stroke="#663399" stroke-width="2" d="M 82,25 82.3,25.3 82.7,25.6 83,25.8 83.4,26.1 83.8,26.2 84.2,26.4 84.6,26.5 85,26.6 85.5,26.6 85.9,26.6 86.4,26.6 86.8,26.5 87.2,26.4 87.6,26.2 88,26.1 88.4,25.8 88.7,25.6 89.1,25.3 89.4,25 89.7,24.7 89.9,24.3 90.1,23.9 90.3,23.5 90.5,23.1 90.6,22.7 90.7,22.3 90.7,21.8 90.7,21.4 90.7,21 90.6,20.5 90.5,20.1 90.3,19.7 90.1,19.3 89.9,18.9 89.7,18.6 89.4,18.2 89.1,17.9 88.7,17.7 88.4,17.4 88,17.2 87.6,17 87.2,16.9 86.8,16.7 86.4,16.7 85.9,16.6 85.5,16.6 85,16.7 84.6,16.7 84.2,16.9 83.8,17 83.4,17.2 83,17.4 82.7,17.7 82.3,17.9 82,18.2 81.7,18.6 81.5,18.9 81.3,19.3 81.1,19.7 80.9,20.1 80.8,20.5 80.7,21 80.7,21.4 80.7,21.8 80.7,22.3 80.8,22.7 80.9,23.1 81.1,23.5 81.3,23.9 81.5,24.3 81.7,24.7 82,25 82,40" />
<path stroke="#663399" stroke-width="2" d="M 97.4,70" />
<path stroke="#663399" stroke-width="2" d="M 97.4,20 97.4,40 97.4,34 97.4,33.1 97.4,32.3 97.6,31.4 97.8,30.6 98.1,29.7 98.5,28.9 98.9,28.2 99.4,27.5 100,26.8 100.6,26.2 101.3,25.6 102,25.1 102.7,24.7 103.5,24.3 104.3,24 105.2,23.8 106,23.6 106.9,23.6" />
<path stroke="#663399" stroke-width="2" d="M 113.6,70" />
<path stroke="#663399" stroke-width="2" d="M 113.6,30 113.8,30 113.8,30.2 113.6,30.2 113.6,30" />
</svg>