<svg xmlns="http://www.w3.org/2000/svg" width="131.0823078427021" height="60.0" style="fill:none; stroke-linecap:round;">
    <rect width="100%" height="100%" fill="#F3F3F7" />
<path stroke="#663399" stroke-width="2" d="M 90,50" />
<path stroke="#663399" stroke-width="2" d="M 20,25 20.3,25.3 20.6,25.6 21,25.8 21.4,26.1 21.8,26.2 22.2,26.4 22.6,26.5 23,26.6 23.5,26.6 23.9,26.6 24.3,26.6 24.8,26.5 25.2,26.4 25.6,26.2 26,26.1 26.4,25.8 26.7,25.6 27.1,25.3 27.4,25 27.7,24.7 27.9,24.3 28.1,23.9 28.3,23.5 28.5,23.1 28.6,22.7 28.6,22.3 28.7,21.8 28.7,21.4 28.6,21 28.6,20.5 28.5,20.1 28.3,19.7 28.1,19.3 27.9,18.9 27.7,18.6 27.4,18.2 27.1,17.9 26.7,17.7 26.4,17.4 26,17.2 25.6,17 25.2,16.9 24.8,16.7 24.3,16.7 23.9,16.6 23.5,16.6 23,16.7 22.6,16.7 22.2,16.9 21.8,17 21.4,17.2 21,17.4 20.6,17.7 20.3,17.9 20,18.2 19.7,18.6 19.5,18.9 19.3,19.3 19.1,19.7 18.9,20.1 18.8,20.5 18.7,21 18.7,21.4 18.7,21.8 18.7,22.3 18.8,22.7 18.9,23.1 19.1,23.5 19.3,23.9 19.5,24.3 19.7,24.7 20,25 20,40" />
<path stroke="#663399" stroke-width="2" d="M 35.3,70" />
<path stroke="#663399" stroke-width="2" d="M 45.3,20 37.7,38.5" />
<path stroke="#663399" stroke-width="2" d="M 52,70" />
<path stroke="#663399" stroke-width="2" d="M 52,40 59.7,21.5 67.3,40" />
<path stroke="#663399" stroke-width="2" d="M 74,70" />
<path stroke="#663399" stroke-width="2" d="M 74,20 94,20" />
<path stroke="#663399" stroke-width="2" d="M 100.7,70" />
<path stroke="#663399" stroke-width="2" d="M 100.7,20 101.5,20 102.4,20.1 103.3,20.2 104.1,20.5 104.9,20.8 105.7,21.1 106.5,21.6 107.2,22.1 107.8,22.6 108.5,23.2 109,23.9 109.5,24.6 110,25.4 110.3,26.2 110.6,27 110.9,27.8 111,28.7 111.1,29.6 111.1,30.4 111,31.3 110.9,32.2 110.6,33 110.3,33.8 110,34.6 109.5,35.4 109,36.1 108.5,36.7 107.8,37.4 107.2,37.9 106.5,38.4 105.7,38.9 104.9,39.2 104.1,39.5 103.3,39.8 102.4,39.9 101.5,40" />
</svg>