<svg xmlns="http://www.w3.org/2000/svg" width="79.95638109830381" height="93.55428834216522" style="fill:none; stroke-linecap:round;">
    <rect width="100%" height="100%" fill="#FFFFFF" />
<path stroke="#000000" stroke-width="2" d="M 90,50" />
<path stroke="#000000" stroke-width="2" d="M 20,40" />
<path stroke="#000000" stroke-width="2" d="M 20,40 24.1,39.8 27.3,39.2 29.8,38.3 31.5,37.1 32.7,35.8 33.2,34.3 33.3,32.8 33,31.4 32.3,30 31.2,28.8 30,27.7 28.6,27 27.2,26.7 25.7,26.8 24.2,27.3 22.9,28.5 21.7,30.2 20.8,32.7 20.2,35.9 20,40 20,70" />
<path stroke="#000000" stroke-width="2" d="M 40,70" />
<path stroke="#000000" stroke-width="2" d="M 40,50 40,70 40,64 40,63.1 40.1,62.3 40.2,61.4 40.4,60.6 40.7,59.7 41.1,58.9 41.5,58.2 42,57.5 42.6,56.8 43.2,56.2 43.9,55.6 44.6,55.1 45.3,54.7 46.1,54.3 47,54 47.8,53.8 48.7,53.6 49.5,53.6 50.4,53.6 51.3,53.6 52.1,53.8 53,54 53.8,54.3 54.6,54.7 55.3,55.1 56.1,55.6 56.7,56.2 57.3,56.8 57.9,57.5 58.4,58.2 58.8,58.9 59.2,59.7 59.5,60.6 59.7,61.4 59.9,62.3 60,63.1 60,64 59.9,64.9 59.7,65.7 59.5,66.6 59.2,67.4 58.8,68.2 58.4,68.9 57.9,69.7 57.3,70.3 56.7,70.9 56.1,71.5 55.3,72 54.6,72.4 53.8,72.8 53,73.1 52.1,73.3 51.3,73.5 50.4,73.6" />
</svg>