<svg xmlns="http://www.w3.org/2000/svg" width="111.68167266838296" height="88.47759065022574" style="fill:none; stroke-linecap:round;">
    <rect width="100%" height="100%" fill="#F3F3F7" />
<path stroke="#663399" stroke-width="2" d="M 90,50" />
<path stroke="#663399" stroke-width="2" d="M 20,15 20.3,15.3 20.6,15.6 21,15.8 21.4,16.1 21.8,16.2 22.2,16.4 22.6,16.5 23,16.6 23.5,16.6 23.9,16.6 24.3,16.6 24.8,16.5 25.2,16.4 25.6,16.2 26,16.1 26.4,15.8 26.7,15.6 27.1,15.3 27.4,15 27.7,14.7 27.9,14.3 28.1,13.9 28.3,13.5 28.5,13.1 28.6,12.7 28.6,12.3 28.7,11.8 28.7,11.4 28.6,11 28.6,10.5 28.5,10.1 28.3,9.7 28.1,9.3 27.9,8.9 27.7,8.6 27.4,8.2 27.1,7.9 26.7,7.7 26.4,7.4 26,7.2 25.6,7 25.2,6.9 24.8,6.7 24.3,6.7 23.9,6.6 23.5,6.6 23,6.7 22.6,6.7 22.2,6.9 21.8,7 21.4,7.2 21,7.4 20.6,7.7 20.3,7.9 20,8.2 19.7,8.6 19.5,8.9 19.3,9.3 19.1,9.7 18.9,10.1 18.8,10.5 18.7,11 18.7,11.4 18.7,11.8 18.7,12.3 18.8,12.7 18.9,13.1 19.1,13.5 19.3,13.9 19.5,14.3 19.7,14.7 20,15 20,30 12.3,48.5 12.3,68.5 12.3,62.5 12.3,61.6 12.4,60.7 12.6,59.9 12.8,59 13.1,58.2 13.5,57.4 13.9,56.7 14.4,56 15,55.3 15.6,54.7 16.2,54.1 17,53.6 17.7,53.2 18.5,52.8 19.3,52.5 20.2,52.3 21,52.1 21.9,52.1" />
<path stroke="#663399" stroke-width="2" d="M 35.3,70" />
<path stroke="#663399" stroke-width="2" d="M 35.3,10 35.3,30 45.3,30" />
<path stroke="#663399" stroke-width="2" d="M 52,70" />
<path stroke="#663399" stroke-width="2" d="M 52,30 52,29.3 52.1,28.6 52.2,27.9 52.4,27.2 52.6,26.6 52.9,26 53.3,25.4 53.7,24.8 54.1,24.2 54.6,23.8 55.1,23.3 55.7,22.9 56.3,22.6 56.9,22.3 57.6,22 58.3,21.8 59,21.7 59.7,21.7 60.4,21.7 61.1,21.7 61.7,21.8 62.4,22 63.1,22.3 63.7,22.6 64.3,22.9 64.9,23.3 65.4,23.8 65.9,24.2 66.4,24.8 66.8,25.4 67.1,26 67.4,26.6 67.6,27.2 67.8,27.9 67.9,28.6 68,29.3" />
<path stroke="#663399" stroke-width="2" d="M 74.7,70" />
<path stroke="#663399" stroke-width="2" d="M 76.7,30 82,17.1 82.2,16.7 82.3,16.4 82.3,16.1 82.4,15.7 82.4,15.4 82.4,15 82.3,14.7 82.3,14.3 82.2,14 82,13.7 81.9,13.4 81.7,13.1 81.5,12.8 81.2,12.5 81,12.3 80.7,12.1 80.4,11.9 80.1,11.7 79.8,11.6 79.4,11.5 79.1,11.4 78.7,11.4 78.4,11.4 78.1,11.4 77.7,11.4 77.4,11.5 77,11.6 76.7,11.7 76.4,11.9 76.1,12.1 75.8,12.3 75.6,12.5 75.3,12.8 75.1,13.1 74.9,13.4 74.8,13.7 74.6,14 74.5,14.3 74.5,14.7 74.4,15 74.4,15.4 74.4,15.7 74.5,16.1 74.5,16.4 74.6,16.7 74.8,17.1 74.9,17.4 75.1,17.7 75.3,17.9 75.6,18.2 75.8,18.4 76.1,18.7 76.4,18.8 76.7,19 77,19.1 77.4,19.2 77.7,19.3 78.1,19.4 78.4,19.4 78.7,19.4 91.7,14" />
</svg>