<svg xmlns="http://www.w3.org/2000/svg" width="104.63620975728612" height="81.9885786589823" style="fill:none; stroke-linecap:round;">
    <rect width="100%" height="100%" fill="#FFFFFF" />
<path stroke="#000000" stroke-width="2" d="M 90,50" />
<path stroke="#000000" stroke-width="2" d="M 20,30 20,31.4 20.1,32.8 20.4,34.2 20.7,35.5 21.2,36.8 21.8,38.1 22.5,39.3 23.3,40.4 24.2,41.5 25.2,42.5 26.2,43.4 27.4,44.2 28.6,44.9 29.9,45.5 31.2,46 32.5,46.3 33.9,46.6 35.3,46.7 36.7,46.7 38.1,46.6 39.4,46.3 40.8,46 42.1,45.5 43.4,44.9 44.6,44.2 45.7,43.4 46.8,42.5 47.8,41.5 48.7,40.4 49.5,39.3 50.2,38.1 50.8,36.8 51.2,35.5 51.6,34.2 51.8,32.8 52,31.4" />
<path stroke="#000000" stroke-width="2" d="M 58.6,70" />
<path stroke="#000000" stroke-width="2" d="M 66.6,50 67.2,50 67.7,50 68.2,50.1 68.7,50.3 69.2,50.5 69.7,50.7 70.1,50.9 70.6,51.2 71,51.6 71.3,51.9 71.7,52.3 72,52.8 72.2,53.2 72.4,53.7 72.6,54.2 72.8,54.7 72.8,55.2 72.9,55.7 72.9,56.3 72.8,56.8 72.8,57.3 72.6,57.8 72.4,58.3 72.2,58.8 72,59.2 71.7,59.6 71.3,60 71,60.4 70.6,60.8 70.1,61.1 69.7,61.3 69.2,61.5 68.7,61.7 68.2,61.9 67.7,61.9 67.2,62 66.6,62 66.1,61.9 65.6,61.9 65.1,61.7 64.6,61.5 64.1,61.3 63.7,61.1 63.2,60.8 62.8,60.4 62.5,60 62.1,59.6 61.8,59.2 61.6,58.8 61.4,58.3 61.2,57.8 61,57.3 60.9,56.8 60.9,56.3 60.9,55.7 60.9,55.2 61,54.7 61.2,54.2 61.4,53.7 61.6,53.2 61.8,52.8 62.1,52.3 62.5,51.9 62.8,51.6 63.2,51.2 63.7,50.9 64.1,50.7 64.6,50.5 65.1,50.3 65.6,50.1 66.1,50 66.6,50 84.6,50" />
</svg>