<svg xmlns="http://www.w3.org/2000/svg" width="130.32261062571692" height="50.0" style="fill:none; stroke-linecap:round;">
    <rect width="100%" height="100%" fill="#F3F3F7" />
<path stroke="#663399" stroke-width="2" d="M 90,50" />
<path stroke="#663399" stroke-width="2" d="M 22,30 27.4,17.1 27.5,16.7 27.6,16.4 27.7,16.1 27.7,15.7 27.7,15.4 27.7,15 27.7,14.7 27.6,14.3 27.5,14 27.4,13.7 27.2,13.4 27,13.1 26.8,12.8 26.6,12.5 26.3,12.3 26,12.1 25.7,11.9 25.4,11.7 25.1,11.6 24.8,11.5 24.4,11.4 24.1,11.4 23.7,11.4 23.4,11.4 23,11.4 22.7,11.5 22.4,11.6 22,11.7 21.7,11.9 21.4,12.1 21.2,12.3 20.9,12.5 20.7,12.8 20.5,13.1 20.3,13.4 20.1,13.7 20,14 19.9,14.3 19.8,14.7 19.7,15 19.7,15.4 19.7,15.7 19.8,16.1 19.9,16.4 20,16.7 20.1,17.1 20.3,17.4 20.5,17.7 20.7,17.9 20.9,18.2 21.2,18.4 21.4,18.7 21.7,18.8 22,19 22.4,19.1 22.7,19.2 23,19.3 23.4,19.4 23.7,19.4 24.1,19.4 37,14" />
<path stroke="#663399" stroke-width="2" d="M 43.7,70" />
<path stroke="#663399" stroke-width="2" d="M 43.7,10 53.7,10 61.3,28.5 69,10" />
<path stroke="#663399" stroke-width="2" d="M 75.7,70" />
<path stroke="#663399" stroke-width="2" d="M 75.7,10 75.7,30 85.7,30" />
<path stroke="#663399" stroke-width="2" d="M 92.3,70" />
<path stroke="#663399" stroke-width="2" d="M 100.3,10 100.3,25" />
<path stroke="#663399" stroke-width="2" d="M 100.3,25 100.2,27 99.9,28.6 99.5,29.9 98.9,30.8 98.2,31.3 97.5,31.6 96.7,31.7 96,31.5 95.3,31.1 94.7,30.6 94.2,30 93.8,29.3 93.7,28.6 93.7,27.8 94,27.1 94.6,26.4 95.4,25.9 96.7,25.4 98.3,25.1 100.3,25 110.3,25" />
</svg>