<svg xmlns="http://www.w3.org/2000/svg" width="109.65441987642305" height="78.47759065022574" style="fill:none; stroke-linecap:round;">
    <rect width="100%" height="100%" fill="#FFFFFF" />
<path stroke="#000000" stroke-width="2" d="M 90,50" />
<path stroke="#000000" stroke-width="2" d="M 20,25" />
<path stroke="#000000" stroke-width="2" d="M 20,25 22,24.9 23.6,24.6 24.9,24.1 25.8,23.6 26.3,22.9 26.6,22.2 26.7,21.4 26.5,20.7 26.1,20 25.6,19.4 25,18.9 24.3,18.5 23.6,18.3 22.8,18.4 22.1,18.7 21.4,19.2 20.9,20.1 20.4,21.4 20.1,23 20,25 20,40 12.3,58.5 14.6,52.9 15,52.1 15.4,51.4 15.8,50.6 16.4,49.9 17,49.3 17.6,48.7 18.3,48.2 19,47.7 19.8,47.3 20.6,47 21.5,46.7 22.3,46.5" />
<path stroke="#000000" stroke-width="2" d="M 33.3,70" />
<path stroke="#000000" stroke-width="2" d="M 33.3,20 33.3,40 43.3,40" />
<path stroke="#000000" stroke-width="2" d="M 50,70" />
<path stroke="#000000" stroke-width="2" d="M 50,40 50,39.3 50,38.6 50.2,37.9 50.4,37.2 50.6,36.6 50.9,36 51.2,35.4 51.6,34.8 52.1,34.2 52.6,33.8 53.1,33.3 53.7,32.9 54.3,32.6 54.9,32.3 55.6,32 56.2,31.8 56.9,31.7 57.6,31.7 58.3,31.7 59,31.7 59.7,31.8 60.4,32 61,32.3 61.7,32.6 62.3,32.9 62.9,33.3 63.4,33.8 63.9,34.2 64.3,34.8 64.7,35.4 65.1,36 65.4,36.6 65.6,37.2 65.8,37.9 65.9,38.6 66,39.3" />
<path stroke="#000000" stroke-width="2" d="M 72.6,70" />
<path stroke="#000000" stroke-width="2" d="M 74.6,40 80,27.1 80.1,26.7 80.2,26.4 80.3,26.1 80.4,25.7 80.4,25.4 80.4,25 80.3,24.7 80.2,24.3 80.1,24 80,23.7 79.8,23.4 79.6,23.1 79.4,22.8 79.2,22.5 78.9,22.3 78.7,22.1 78.4,21.9 78.1,21.7 77.7,21.6 77.4,21.5 77.1,21.4 76.7,21.4 76.4,21.4 76,21.4 75.7,21.4 75.3,21.5 75,21.6 74.7,21.7 74.4,21.9 74.1,22.1 73.8,22.3 73.5,22.5 73.3,22.8 73.1,23.1 72.9,23.4 72.7,23.7 72.6,24 72.5,24.3 72.4,24.7 72.4,25 72.4,25.4 72.4,25.7 72.4,26.1 72.5,26.4 72.6,26.7 72.7,27.1 72.9,27.4 73.1,27.7 73.3,27.9 73.5,28.2 73.8,28.4 74.1,28.7 74.4,28.8 74.7,29 75,29.1 75.3,29.2 75.7,29.3 76,29.4 76.4,29.4 76.7,29.4 89.7,24" />
</svg>