<svg xmlns="http://www.w3.org/2000/svg" width="129.0933427561386" height="89.98096443163716" style="fill:none; stroke-linecap:round;">
    <rect width="100%" height="100%" fill="#F3F3F7" />
<path stroke="#663399" stroke-width="2" d="M 90,50" />
<path stroke="#663399" stroke-width="2" d="M 36,30 37,30 38.1,30.1 39.1,30.3 40.1,30.5 41.1,30.9 42.1,31.3 43,31.9 43.8,32.5 44.6,33.1 45.4,33.9 46,34.7 46.6,35.5 47.2,36.4 47.6,37.4 48,38.4 48.2,39.4 48.4,40.4 48.5,41.5 48.5,42.5 48.4,43.6 48.2,44.6 48,45.6 47.6,46.6 47.2,47.5 46.6,48.4 46,49.3 45.4,50.1 44.6,50.8 43.8,51.5 43,52.1 42.1,52.6 41.1,53.1 40.1,53.4 39.1,53.7 38.1,53.9 37,54 36,54 35,53.9 33.9,53.7 32.9,53.4 31.9,53.1 31,52.6 30.1,52.1 29.2,51.5 28.4,50.8 27.7,50.1 27,49.3 26.4,48.4 25.9,47.5 25.4,46.6 25.1,45.6 24.8,44.6 24.6,43.6 24.5,42.5 24.5,41.5 24.6,40.4 24.8,39.4 25.1,38.4 25.4,37.4 25.9,36.4 26.4,35.5 27,34.7 27.7,33.9 28.4,33.1 29.2,32.5 30.1,31.9 31,31.3 31.9,30.9 32.9,30.5 33.9,30.3 35,30.1 36,30 72,30" />
<path stroke="#663399" stroke-width="2" d="M 78.7,70" />
<path stroke="#663399" stroke-width="2" d="M 78.7,50 98.7,50 99.5,50 100.4,50.1 101.3,50.2 102.1,50.5 102.9,50.8 103.7,51.1 104.5,51.6 105.2,52.1 105.9,52.6 106.5,53.2 107,53.9 107.5,54.6 108,55.4 108.3,56.2 108.6,57 108.9,57.8 109,58.7 109.1,59.6 109.1,60.4 109,61.3 108.9,62.2 108.6,63 108.3,63.8 108,64.6 107.5,65.4 107,66.1 106.5,66.7 105.9,67.4 105.2,67.9 104.5,68.4 103.7,68.9 102.9,69.2 102.1,69.5 101.3,69.8 100.4,69.9 99.5,70" />
</svg>