<svg xmlns="http://www.w3.org/2000/svg" width="129.94963719660763" height="90.0" style="fill:none; stroke-linecap:round;">
    <rect width="100%" height="100%" fill="#FFFFFF" />
<path stroke="#000000" stroke-width="2" d="M 90,50" />
<path stroke="#000000" stroke-width="2" d="M 20,30 21.7,30 23.5,30.2 25.2,30.5 26.9,30.9 28.5,31.5 30.1,32.2 31.6,33.1 33,34.1 34.4,35.2 35.6,36.5 36.7,37.8 37.7,39.2 38.6,40.7 39.3,42.3 39.9,44 40.4,45.7 40.7,47.4 40.9,49.1 40.9,50.9 40.7,52.6 40.4,54.3 39.9,56 39.3,57.6 38.6,59.2 37.7,60.7 36.7,62.2 35.6,63.5 34.4,64.7 33,65.8 31.6,66.8 30.1,67.7 28.5,68.5 26.9,69.1 25.2,69.5 23.5,69.8 21.7,70" />
<path stroke="#000000" stroke-width="2" d="M 47.5,70" />
<path stroke="#000000" stroke-width="2" d="M 47.5,30 57.5,30 57.5,70 57.5,68.3 57.7,66.5 58,64.8 58.4,63.1 59,61.5 59.8,59.9 60.6,58.4 61.6,57 62.8,55.6 64,54.4 65.3,53.3 66.8,52.3 68.3,51.4 69.8,50.7 71.5,50.1 73.2,49.6 74.9,49.3 76.6,49.1" />
<path stroke="#000000" stroke-width="2" d="M 83.3,70" />
<path stroke="#000000" stroke-width="2" d="M 83.3,20 103.3,20" />
<path stroke="#000000" stroke-width="2" d="M 103.3,20 105.3,19.9 106.9,19.6 108.2,19.1 109.1,18.6 109.6,17.9 109.9,17.2 109.9,16.4 109.8,15.7 109.4,15 108.9,14.4 108.3,13.9 107.6,13.5 106.9,13.3 106.1,13.4 105.4,13.7 104.7,14.2 104.2,15.1 103.7,16.4 103.4,18 103.3,20 103.3,35" />
</svg>