<svg xmlns="http://www.w3.org/2000/svg" width="88.08762167549855" height="90.2" style="fill:none; stroke-linecap:round;">
    <rect width="100%" height="100%" fill="#FFFFFF" />
<path stroke="#000000" stroke-width="2" d="M 90,50" />
<path stroke="#000000" stroke-width="2" d="M 20,70 20.2,70 20.2,70.2 20,70.2 20,70" />
<path stroke="#000000" stroke-width="2" d="M 26.9,70" />
<path stroke="#000000" stroke-width="2" d="M 31.9,30" />
<path stroke="#000000" stroke-width="2" d="M 31.9,30 30.4,30.1 29.2,30.6 28,31.2 27.1,32.1 26.2,33.1 25.6,34.3 25,35.6 24.7,37 24.4,38.5 24.4,40 24.4,41.5 24.7,43 25,44.4 25.6,45.7 26.2,46.9 27.1,47.9 28,48.8 29.2,49.4 30.4,49.9 31.9,50 31.9,70 31.9,64 31.9,63.1 31.9,62.3 32.1,61.4 32.3,60.6 32.6,59.7 33,58.9 33.4,58.2 33.9,57.5 34.5,56.8 35.1,56.2 35.8,55.6 36.5,55.1 37.2,54.7 38,54.3 38.9,54 39.7,53.8 40.6,53.6 41.4,53.6" />
<path stroke="#000000" stroke-width="2" d="M 48.1,70" />
<path stroke="#000000" stroke-width="2" d="M 48.1,20 68.1,20 68.1,40 58.1,40" />
</svg>