<svg xmlns="http://www.w3.org/2000/svg" width="166.61608729460363" height="60.0" style="fill:none; stroke-linecap:round;">
    <rect width="100%" height="100%" fill="#FFFFFF" />
<path stroke="#000000" stroke-width="2" d="M 90,50" />
<path stroke="#000000" stroke-width="2" d="M 28,20" />
<path stroke="#000000" stroke-width="2" d="M 28,20 27.9,22 27.6,23.6 27.1,24.9 26.6,25.8 25.9,26.3 25.2,26.6 24.4,26.7 23.7,26.5 23,26.1 22.4,25.6 21.9,25 21.5,24.3 21.3,23.6 21.4,22.8 21.7,22.1 22.2,21.4 23.1,20.9 24.4,20.4 26,20.1 28,20 38,20" />
<path stroke="#000000" stroke-width="2" d="M 44.7,70" />
<path stroke="#000000" stroke-width="2" d="M 44.7,40 52.3,21.5 60,40" />
<path stroke="#000000" stroke-width="2" d="M 66.6,70" />
<path stroke="#000000" stroke-width="2" d="M 66.6,25" />
<path stroke="#000000" stroke-width="2" d="M 66.6,25 68.7,24.9 70.3,24.6 71.5,24.1 72.4,23.6 73,22.9 73.3,22.2 73.3,21.4 73.1,20.7 72.8,20 72.3,19.4 71.7,18.9 71,18.5 70.2,18.3 69.5,18.4 68.8,18.7 68.1,19.2 67.5,20.1 67,21.4 66.7,23 66.6,25 66.6,40" />
<path stroke="#000000" stroke-width="2" d="M 80,70" />
<path stroke="#000000" stroke-width="2" d="M 80,25" />
<path stroke="#000000" stroke-width="2" d="M 80,25 82,24.9 83.6,24.6 84.8,24.1 85.7,23.6 86.3,22.9 86.6,22.2 86.6,21.4 86.4,20.7 86.1,20 85.6,19.4 85,18.9 84.3,18.5 83.5,18.3 82.8,18.4 82.1,18.7 81.4,19.2 80.8,20.1 80.4,21.4 80.1,23 80,25 80,40" />
<path stroke="#000000" stroke-width="2" d="M 93.3,70" />
<path stroke="#000000" stroke-width="2" d="M 93.3,20 93.3,40 103.3,40" />
<path stroke="#000000" stroke-width="2" d="M 109.9,70" />
<path stroke="#000000" stroke-width="2" d="M 119.9,20 119.1,20 118.2,20.1 117.3,20.2 116.5,20.5 115.7,20.8 114.9,21.1 114.1,21.6 113.4,22.1 112.8,22.6 112.1,23.2 111.6,23.9 111.1,24.6 110.6,25.4 110.3,26.2 110,27 109.8,27.8 109.6,28.7 109.5,29.6 109.5,30.4 109.6,31.3 109.8,32.2 110,33 110.3,33.8 110.6,34.6 111.1,35.4 111.6,36.1 112.1,36.7 112.8,37.4 113.4,37.9 114.1,38.4 114.9,38.9 115.7,39.2 116.5,39.5 117.3,39.8 118.2,39.9 119.1,40" />
<path stroke="#000000" stroke-width="2" d="M 126.6,70" />
<path stroke="#000000" stroke-width="2" d="M 126.6,20 146.6,20" />
</svg>