<svg xmlns="http://www.w3.org/2000/svg" width="121.08230784270212" height="50.0" style="fill:none; stroke-linecap:round;">
    <rect width="100%" height="100%" fill="#F3F3F7" />
<path stroke="#663399" stroke-width="2" d="M 90,40" />
<path stroke="#663399" stroke-width="2" d="M 20,15 20.3,15.3 20.6,15.6 21,15.8 21.4,16.1 21.8,16.2 22.2,16.4 22.6,16.5 23,16.6 23.5,16.6 23.9,16.6 24.3,16.6 24.8,16.5 25.2,16.4 25.6,16.2 26,16.1 26.4,15.8 26.7,15.6 27.1,15.3 27.4,15 27.7,14.7 27.9,14.3 28.1,13.9 28.3,13.5 28.5,13.1 28.6,12.7 28.6,12.3 28.7,11.8 28.7,11.4 28.6,11 28.6,10.5 28.5,10.1 28.3,9.7 28.1,9.3 27.9,8.9 27.7,8.6 27.4,8.2 27.1,7.9 26.7,7.7 26.4,7.4 26,7.2 25.6,7 25.2,6.9 24.8,6.7 24.3,6.7 23.9,6.6 23.5,6.6 23,6.7 22.6,6.7 22.2,6.9 21.8,7 21.4,7.2 21,7.4 20.6,7.7 20.3,7.9 20,8.2 19.7,8.6 19.5,8.9 19.3,9.3 19.1,9.7 18.9,10.1 18.8,10.5 18.7,11 18.7,11.4 18.7,11.8 18.7,12.3 18.8,12.7 18.9,13.1 19.1,13.5 19.3,13.9 19.5,14.3 19.7,14.7 20,15 20,30" />
<path stroke="#663399" stroke-width="2" d="M 35.3,30" />
<path stroke="#663399" stroke-width="2" d="M 45.3,10 37.7,28.5" />
<path stroke="#663399" stroke-width="2" d="M 52,30" />
<path stroke="#663399" stroke-width="2" d="M 52,30 59.7,11.5 67.3,30" />
<path stroke="#663399" stroke-width="2" d="M 74,30" />
<path stroke="#663399" stroke-width="2" d="M 74,10 84,10" />
<path stroke="#663399" stroke-width="2" d="M 90.7,30" />
<path stroke="#663399" stroke-width="2" d="M 90.7,10 91.5,10 92.4,10.1 93.3,10.2 94.1,10.5 94.9,10.8 95.7,11.1 96.5,11.6 97.2,12.1 97.8,12.6 98.5,13.2 99,13.9 99.5,14.6 100,15.4 100.3,16.2 100.6,17 100.9,17.8 101,18.7 101.1,19.6 101.1,20.4 101,21.3 100.9,22.2 100.6,23 100.3,23.8 100,24.6 99.5,25.4 99,26.1 98.5,26.7 97.8,27.4 97.2,27.9 96.5,28.4 95.7,28.9 94.9,29.2 94.1,29.5 93.3,29.8 92.4,29.9 91.5,30" />
</svg>