<svg xmlns="http://www.w3.org/2000/svg" width="126.12837896127027" height="60.0" style="fill:none; stroke-linecap:round;">
    <rect width="100%" height="100%" fill="#FFFFFF" />
<path stroke="#000000" stroke-width="2" d="M 90,50" />
<path stroke="#000000" stroke-width="2" d="M 20,25" />
<path stroke="#000000" stroke-width="2" d="M 20,25 22,24.9 23.6,24.6 24.9,24.1 25.8,23.6 26.3,22.9 26.6,22.2 26.7,21.4 26.5,20.7 26.1,20 25.6,19.4 25,18.9 24.3,18.5 23.6,18.3 22.8,18.4 22.1,18.7 21.4,19.2 20.9,20.1 20.4,21.4 20.1,23 20,25 20,40" />
<path stroke="#000000" stroke-width="2" d="M 33.3,70" />
<path stroke="#000000" stroke-width="2" d="M 43.3,20 35.7,38.5" />
<path stroke="#000000" stroke-width="2" d="M 50,70" />
<path stroke="#000000" stroke-width="2" d="M 50,40 57.6,21.5 65.3,40" />
<path stroke="#000000" stroke-width="2" d="M 72,70" />
<path stroke="#000000" stroke-width="2" d="M 72,20 92,20" />
<path stroke="#000000" stroke-width="2" d="M 98.6,70" />
<path stroke="#000000" stroke-width="2" d="M 98.6,20" />
<path stroke="#000000" stroke-width="2" d="M 98.6,20 100.1,20.1 101.3,20.6 102.5,21.2 103.4,22.1 104.3,23.1 104.9,24.3 105.5,25.6 105.8,27 106.1,28.5 106.1,30 106.1,31.5 105.8,33 105.5,34.4 104.9,35.7 104.3,36.9 103.4,37.9 102.5,38.8 101.3,39.4 100.1,39.9 98.6,40" />
</svg>