<svg xmlns="http://www.w3.org/2000/svg" width="89.07811430144834" height="93.30875" style="fill:none; stroke-linecap:round;">
    <rect width="100%" height="100%" fill="#FFFFFF" />
<path stroke="#000000" stroke-width="2" d="M 90,50" />
<path stroke="#000000" stroke-width="2" d="M 36,30 36,60" />
<path stroke="#000000" stroke-width="2" d="M 36,60 35.8,64.1 35.2,67.3 34.3,69.8 33.1,71.5 31.8,72.7 30.3,73.2 28.8,73.3 27.4,73 26,72.3 24.8,71.2 23.7,70 23,68.6 22.7,67.2 22.8,65.7 23.3,64.2 24.5,62.9 26.2,61.7 28.7,60.8 31.9,60.2 36,60" />
<path stroke="#000000" stroke-width="2" d="M 42.7,70" />
<path stroke="#000000" stroke-width="2" d="M 42.7,30 42.7,30.7 42.7,31.4 42.8,32.1 43,32.8 43.3,33.4 43.6,34 43.9,34.6 44.3,35.2 44.8,35.8 45.3,36.2 45.8,36.7 46.4,37.1 47,37.4 47.6,37.7 48.3,38 48.9,38.2 49.6,38.3 50.3,38.3 51,38.3 51.7,38.3 52.4,38.2 53.1,38 53.7,37.7 54.4,37.4 55,37.1 55.5,36.7 56.1,36.2 56.6,35.8 57,35.2 57.4,34.6 57.8,34 58.1,33.4 58.3,32.8 58.5,32.1 58.6,31.4 58.7,30.7 59.5,30.7 60.4,30.8 61.3,30.9 62.1,31.2 62.9,31.4 63.7,31.8 64.5,32.3 65.2,32.8 65.8,33.3 66.5,33.9 67,34.6 67.5,35.3 68,36.1 68.3,36.9 68.6,37.7 68.9,38.5 69,39.4 69.1,40.3 69.1,41.1 69,42 68.9,42.9 68.6,43.7 68.3,44.5 68,45.3 67.5,46.1 67,46.8 66.5,47.4 65.8,48.1 65.2,48.6 64.5,49.1 63.7,49.6 62.9,49.9 62.1,50.2 61.3,50.5 60.4,50.6 59.5,50.7" />
</svg>