<svg xmlns="http://www.w3.org/2000/svg" width="113.78421059275172" height="50.2" style="fill:none; stroke-linecap:round;">
    <rect width="100%" height="100%" fill="#F3F3F7" />
<path stroke="#663399" stroke-width="2" d="M 90,50" />
<path stroke="#663399" stroke-width="2" d="M 20,30 40,30" />
<path stroke="#663399" stroke-width="2" d="M 46.7,70" />
<path stroke="#663399" stroke-width="2" d="M 46.7,15 47,15.3 47.3,15.6 47.7,15.8 48,16.1 48.4,16.2 48.8,16.4 49.3,16.5 49.7,16.6 50.1,16.6 50.6,16.6 51,16.6 51.4,16.5 51.9,16.4 52.3,16.2 52.7,16.1 53,15.8 53.4,15.6 53.7,15.3 54,15 54.3,14.7 54.6,14.3 54.8,13.9 55,13.5 55.1,13.1 55.2,12.7 55.3,12.3 55.3,11.8 55.3,11.4 55.3,11 55.2,10.5 55.1,10.1 55,9.7 54.8,9.3 54.6,8.9 54.3,8.6 54,8.2 53.7,7.9 53.4,7.7 53,7.4 52.7,7.2 52.3,7 51.9,6.9 51.4,6.7 51,6.7 50.6,6.6 50.1,6.6 49.7,6.7 49.3,6.7 48.8,6.9 48.4,7 48,7.2 47.7,7.4 47.3,7.7 47,7.9 46.7,8.2 46.4,8.6 46.1,8.9 45.9,9.3 45.7,9.7 45.6,10.1 45.5,10.5 45.4,11 45.4,11.4 45.4,11.8 45.4,12.3 45.5,12.7 45.6,13.1 45.7,13.5 45.9,13.9 46.1,14.3 46.4,14.7 46.7,15 46.7,30" />
<path stroke="#663399" stroke-width="2" d="M 62,70" />
<path stroke="#663399" stroke-width="2" d="M 62,15 62.3,15.3 62.7,15.6 63,15.8 63.4,16.1 63.8,16.2 64.2,16.4 64.6,16.5 65,16.6 65.5,16.6 65.9,16.6 66.4,16.6 66.8,16.5 67.2,16.4 67.6,16.2 68,16.1 68.4,15.8 68.7,15.6 69.1,15.3 69.4,15 69.7,14.7 69.9,14.3 70.1,13.9 70.3,13.5 70.5,13.1 70.6,12.7 70.7,12.3 70.7,11.8 70.7,11.4 70.7,11 70.6,10.5 70.5,10.1 70.3,9.7 70.1,9.3 69.9,8.9 69.7,8.6 69.4,8.2 69.1,7.9 68.7,7.7 68.4,7.4 68,7.2 67.6,7 67.2,6.9 66.8,6.7 66.4,6.7 65.9,6.6 65.5,6.6 65,6.7 64.6,6.7 64.2,6.9 63.8,7 63.4,7.2 63,7.4 62.7,7.7 62.3,7.9 62,8.2 61.7,8.6 61.5,8.9 61.3,9.3 61.1,9.7 60.9,10.1 60.8,10.5 60.7,11 60.7,11.4 60.7,11.8 60.7,12.3 60.8,12.7 60.9,13.1 61.1,13.5 61.3,13.9 61.5,14.3 61.7,14.7 62,15 62,30" />
<path stroke="#663399" stroke-width="2" d="M 77.4,70" />
<path stroke="#663399" stroke-width="2" d="M 77.4,10 77.4,30 77.4,24 77.4,23.1 77.4,22.3 77.6,21.4 77.8,20.6 78.1,19.7 78.5,18.9 78.9,18.2 79.4,17.5 80,16.8 80.6,16.2 81.3,15.6 82,15.1 82.7,14.7 83.5,14.3 84.3,14 85.2,13.8 86,13.6 86.9,13.6" />
<path stroke="#663399" stroke-width="2" d="M 93.6,70" />
<path stroke="#663399" stroke-width="2" d="M 93.6,30 93.8,30 93.8,30.2 93.6,30.2 93.6,30" />
</svg>