<svg xmlns="http://www.w3.org/2000/svg" width="105.72172171740887" height="78.47759065022574" style="fill:none; stroke-linecap:round;">
    <rect width="100%" height="100%" fill="#FFFFFF" />
<path stroke="#000000" stroke-width="2" d="M 90,50" />
<path stroke="#000000" stroke-width="2" d="M 20,25" />
<path stroke="#000000" stroke-width="2" d="M 20,25 22,24.9 23.6,24.6 24.9,24.1 25.8,23.6 26.3,22.9 26.6,22.2 26.7,21.4 26.5,20.7 26.1,20 25.6,19.4 25,18.9 24.3,18.5 23.6,18.3 22.8,18.4 22.1,18.7 21.4,19.2 20.9,20.1 20.4,21.4 20.1,23 20,25 20,40 12.3,58.5" />
<path stroke="#000000" stroke-width="2" d="M 33.3,70" />
<path stroke="#000000" stroke-width="2" d="M 33.3,40 41,21.5 48.6,40" />
<path stroke="#000000" stroke-width="2" d="M 55.3,70" />
<path stroke="#000000" stroke-width="2" d="M 55.3,20 75.3,20 76.2,20 77,20.1 77.9,20.2 78.7,20.5 79.6,20.8 80.3,21.1 81.1,21.6 81.8,22.1 82.5,22.6 83.1,23.2 83.7,23.9 84.2,24.6 84.6,25.4 85,26.2 85.3,27 85.5,27.8 85.6,28.7 85.7,29.6 85.7,30.4 85.6,31.3 85.5,32.2 85.3,33 85,33.8 84.6,34.6 84.2,35.4 83.7,36.1 83.1,36.7 82.5,37.4 81.8,37.9 81.1,38.4 80.3,38.9 79.6,39.2 78.7,39.5 77.9,39.8 77,39.9 76.2,40" />
</svg>