<svg xmlns="http://www.w3.org/2000/svg" width="94.48021253340731" height="68.34134087157756" style="fill:none; stroke-linecap:round;">
    <rect width="100%" height="100%" fill="#FFFFFF" />
<path stroke="#000000" stroke-width="2" d="M 90,50" />
<path stroke="#000000" stroke-width="2" d="M 20,20 20,40 20,40.7 20.1,41.4 20.2,42.1 20.4,42.8 20.6,43.4 20.9,44 21.2,44.6 21.6,45.2 22.1,45.8 22.6,46.2 23.1,46.7 23.7,47.1 24.3,47.4 24.9,47.7 25.6,48 26.3,48.2 26.9,48.3 27.6,48.3 28.3,48.3 29,48.3 29.7,48.2 30.4,48 31.1,47.7 31.7,47.4 32.3,47.1 32.9,46.7 33.4,46.2 33.9,45.8 34.3,45.2 34.7,44.6 35.1,44 35.4,43.4 35.6,42.8 35.8,42.1 35.9,41.4 36,40.7" />
<path stroke="#000000" stroke-width="2" d="M 42.7,70" />
<path stroke="#000000" stroke-width="2" d="M 42.7,20 46.5,29.2" />
<path stroke="#000000" stroke-width="2" d="M 46.5,29.2 48.4,31.4 49.7,33.3 50.5,35 50.8,36.4 50.7,37.7 50.3,38.7 49.5,39.5 48.6,40 47.6,40.4 46.5,40.5 45.4,40.4 44.3,40 43.4,39.5 42.7,38.7 42.3,37.7 42.2,36.4 42.5,35 43.2,33.3 44.6,31.4 46.5,29.2 50.3,20" />
<path stroke="#000000" stroke-width="2" d="M 57.5,70" />
<path stroke="#000000" stroke-width="2" d="M 59.5,40 64.8,27.1 65,26.7 65.1,26.4 65.1,26.1 65.2,25.7 65.2,25.4 65.2,25 65.1,24.7 65.1,24.3 65,24 64.8,23.7 64.7,23.4 64.5,23.1 64.3,22.8 64,22.5 63.8,22.3 63.5,22.1 63.2,21.9 62.9,21.7 62.6,21.6 62.2,21.5 61.9,21.4 61.5,21.4 61.2,21.4 60.8,21.4 60.5,21.4 60.2,21.5 59.8,21.6 59.5,21.7 59.2,21.9 58.9,22.1 58.6,22.3 58.4,22.5 58.1,22.8 57.9,23.1 57.7,23.4 57.6,23.7 57.4,24 57.3,24.3 57.3,24.7 57.2,25 57.2,25.4 57.2,25.7 57.3,26.1 57.3,26.4 57.4,26.7 57.6,27.1 57.7,27.4 57.9,27.7 58.1,27.9 58.4,28.2 58.6,28.4 58.9,28.7 59.2,28.8 59.5,29 59.8,29.1 60.2,29.2 60.5,29.3 60.8,29.4 61.2,29.4 61.5,29.4 74.5,24" />
</svg>