<svg xmlns="http://www.w3.org/2000/svg" width="84.01088668222363" height="93.55428834216522" style="fill:none; stroke-linecap:round;">
    <rect width="100%" height="100%" fill="#FFFFFF" />
<path stroke="#000000" stroke-width="2" d="M 90,50" />
<path stroke="#000000" stroke-width="2" d="M 20,40 20.6,40.6 21.3,41.2 22,41.7 22.8,42.1 23.5,42.5 24.4,42.8 25.2,43 26.1,43.2 26.9,43.2 27.8,43.2 28.7,43.2 29.5,43 30.4,42.8 31.2,42.5 32,42.1 32.7,41.7 33.5,41.2 34.1,40.6 34.7,40 35.3,39.3 35.8,38.6 36.2,37.9 36.6,37.1 36.9,36.3 37.1,35.4 37.3,34.5 37.4,33.7 37.4,32.8 37.3,31.9 37.1,31.1 36.9,30.2 36.6,29.4 36.2,28.6 35.8,27.9 35.3,27.2 34.7,26.5 34.1,25.9 33.5,25.3 32.7,24.8 32,24.4 31.2,24 30.4,23.7 29.5,23.5 28.7,23.3 27.8,23.3 26.9,23.3 26.1,23.3 25.2,23.5 24.4,23.7 23.5,24 22.8,24.4 22,24.8 21.3,25.3 20.6,25.9 20,26.5 19.4,27.2 18.9,27.9 18.5,28.6 18.1,29.4 17.8,30.2 17.6,31.1 17.5,31.9 17.4,32.8 17.4,33.7 17.5,34.5 17.6,35.4 17.8,36.3 18.1,37.1 18.5,37.9 18.9,38.6 19.4,39.3 20,40 20,70" />
<path stroke="#000000" stroke-width="2" d="M 44,70" />
<path stroke="#000000" stroke-width="2" d="M 44,50 44,70 44,64 44,63.1 44.1,62.3 44.3,61.4 44.5,60.6 44.8,59.7 45.2,58.9 45.6,58.2 46.1,57.5 46.6,56.8 47.3,56.2 47.9,55.6 48.6,55.1 49.4,54.7 50.2,54.3 51,54 51.9,53.8 52.7,53.6 53.6,53.6 54.5,53.6 55.3,53.6 56.2,53.8 57,54 57.8,54.3 58.6,54.7 59.4,55.1 60.1,55.6 60.8,56.2 61.4,56.8 62,57.5 62.5,58.2 62.9,58.9 63.3,59.7 63.6,60.6 63.8,61.4 63.9,62.3 64,63.1 64,64 63.9,64.9 63.8,65.7 63.6,66.6 63.3,67.4 62.9,68.2 62.5,68.9 62,69.7 61.4,70.3 60.8,70.9 60.1,71.5 59.4,72 58.6,72.4 57.8,72.8 57,73.1 56.2,73.3 55.3,73.5 54.5,73.6" />
</svg>