<svg xmlns="http://www.w3.org/2000/svg" width="88.0514382119764" height="90.0" style="fill:none; stroke-linecap:round;">
    <rect width="100%" height="100%" fill="#FFFFFF" />
<path stroke="#000000" stroke-width="2" d="M 90,50" />
<path stroke="#000000" stroke-width="2" d="M 20,40 20.2,40 20.2,40.2 20,40.2 20,40" />
<path stroke="#000000" stroke-width="2" d="M 26.9,70" />
<path stroke="#000000" stroke-width="2" d="M 26.9,30 26.9,70" />
<path stroke="#000000" stroke-width="2" d="M 33.5,70" />
<path stroke="#000000" stroke-width="2" d="M 33.5,50 38.5,50 38.5,70" />
<path stroke="#000000" stroke-width="2" d="M 45.2,70" />
<path stroke="#000000" stroke-width="2" d="M 45.2,20 45.2,20.7 45.3,21.4 45.4,22.1 45.6,22.8 45.8,23.4 46.1,24 46.4,24.6 46.8,25.2 47.3,25.8 47.8,26.2 48.3,26.7 48.9,27.1 49.5,27.4 50.1,27.7 50.8,28 51.5,28.2 52.1,28.3 52.8,28.3 53.5,28.3 54.2,28.3 54.9,28.2 55.6,28 56.3,27.7 56.9,27.4 57.5,27.1 58.1,26.7 58.6,26.2 59.1,25.8 59.5,25.2 59.9,24.6 60.3,24 60.6,23.4 60.8,22.8 61,22.1 61.1,21.4 61.2,20.7" />
<path stroke="#000000" stroke-width="2" d="M 67.9,70" />
<path stroke="#000000" stroke-width="2" d="M 67.9,50 68.1,50 68.1,50.2 67.9,50.2 67.9,50" />
</svg>