<svg xmlns="http://www.w3.org/2000/svg" width="110.16666666666666" height="90.0" style="fill:none; stroke-linecap:round;">
    <rect width="100%" height="100%" fill="#FFFFFF" />
<path stroke="#000000" stroke-width="2" d="M 90,50" />
<path stroke="#000000" stroke-width="2" d="M 36,30" />
<path stroke="#000000" stroke-width="2" d="M 36,30 35.8,34.1 35.2,37.3 34.3,39.8 33.1,41.5 31.8,42.7 30.3,43.2 28.8,43.3 27.4,43 26,42.3 24.8,41.2 23.7,40 23,38.6 22.7,37.2 22.8,35.7 23.3,34.2 24.5,32.9 26.2,31.7 28.7,30.8 31.9,30.2 36,30 56,30" />
<path stroke="#000000" stroke-width="2" d="M 62.7,70" />
<path stroke="#000000" stroke-width="2" d="M 62.7,50 82.7,50" />
<path stroke="#000000" stroke-width="2" d="M 82.7,50 84.1,50.1 85.4,50.6 86.5,51.2 87.5,52.1 88.3,53.1 89,54.3 89.5,55.6 89.9,57 90.1,58.5 90.2,60 90.1,61.5 89.9,63 89.5,64.4 89,65.7 88.3,66.9 87.5,67.9 86.5,68.8 85.4,69.4 84.1,69.9 82.7,70" />
</svg>