<svg xmlns="http://www.w3.org/2000/svg" width="58.65524532564898" height="90.0" style="fill:none; stroke-linecap:round;">
    <rect width="100%" height="100%" fill="#FFFFFF" />
<path stroke="#000000" stroke-width="2" d="M 90,50" />
<path stroke="#000000" stroke-width="2" d="M 20,30 20,70" />
<path stroke="#000000" stroke-width="2" d="M 26.7,70" />
<path stroke="#000000" stroke-width="2" d="M 26.7,20 26.7,24 26.7,24.5 26.7,25 26.8,25.6 26.9,26.1 27.1,26.6 27.3,27 27.6,27.5 27.9,27.9 28.2,28.3 28.6,28.7 29,29 29.4,29.3 29.9,29.6 30.4,29.8 30.9,30 31.4,30.1 31.9,30.2 32.4,30.3 32.9,30.3 33.4,30.2 34,30.1 34.5,30 35,29.8 35.4,29.6 35.9,29.3 36.3,29 36.7,28.7 37.1,28.3 37.4,27.9 37.7,27.5 38,27 38.2,26.6 38.4,26.1 38.5,25.6 38.6,25 38.7,24.5 38.7,19.5 38.7,39.5" />
</svg>