<svg xmlns="http://www.w3.org/2000/svg" width="150.3226106257169" height="60.0" style="fill:none; stroke-linecap:round;">
    <rect width="100%" height="100%" fill="#FFFFFF" />
<path stroke="#000000" stroke-width="2" d="M 90,50" />
<path stroke="#000000" stroke-width="2" d="M 22,40 27.4,27.1 27.5,26.7 27.6,26.4 27.7,26.1 27.7,25.7 27.7,25.4 27.7,25 27.7,24.7 27.6,24.3 27.5,24 27.4,23.7 27.2,23.4 27,23.1 26.8,22.8 26.6,22.5 26.3,22.3 26,22.1 25.7,21.9 25.4,21.7 25.1,21.6 24.8,21.5 24.4,21.4 24.1,21.4 23.7,21.4 23.4,21.4 23,21.4 22.7,21.5 22.4,21.6 22,21.7 21.7,21.9 21.4,22.1 21.2,22.3 20.9,22.5 20.7,22.8 20.5,23.1 20.3,23.4 20.1,23.7 20,24 19.9,24.3 19.8,24.7 19.7,25 19.7,25.4 19.7,25.7 19.8,26.1 19.9,26.4 20,26.7 20.1,27.1 20.3,27.4 20.5,27.7 20.7,27.9 20.9,28.2 21.2,28.4 21.4,28.7 21.7,28.8 22,29 22.4,29.1 22.7,29.2 23,29.3 23.4,29.4 23.7,29.4 24.1,29.4 37,24" />
<path stroke="#000000" stroke-width="2" d="M 43.7,70" />
<path stroke="#000000" stroke-width="2" d="M 43.7,20 63.7,20 71.3,38.5 79,20" />
<path stroke="#000000" stroke-width="2" d="M 85.7,70" />
<path stroke="#000000" stroke-width="2" d="M 85.7,20 85.7,40 95.7,40" />
<path stroke="#000000" stroke-width="2" d="M 102.3,70" />
<path stroke="#000000" stroke-width="2" d="M 110.3,20 110.3,35" />
<path stroke="#000000" stroke-width="2" d="M 110.3,35 110.2,37 109.9,38.6 109.5,39.9 108.9,40.8 108.2,41.3 107.5,41.6 106.7,41.7 106,41.5 105.3,41.1 104.7,40.6 104.2,40 103.8,39.3 103.7,38.6 103.7,37.8 104,37.1 104.6,36.4 105.4,35.9 106.7,35.4 108.3,35.1 110.3,35 130.3,35" />
</svg>