<svg xmlns="http://www.w3.org/2000/svg" width="112.92486830337698" height="60.0" style="fill:none; stroke-linecap:round;">
    <rect width="100%" height="100%" fill="#F3F3F7" />
<path stroke="#663399" stroke-width="2" d="M 90,50" />
<path stroke="#663399" stroke-width="2" d="M 20,20 20,40 20,36 20,35.1 20.1,34.3 20.2,33.4 20.5,32.6 20.8,31.7 21.1,30.9 21.6,30.2 22.1,29.5 22.6,28.8 23.2,28.2 23.9,27.6 24.6,27.1" />
<path stroke="#663399" stroke-width="2" d="M 31.3,70" />
<path stroke="#663399" stroke-width="2" d="M 33.3,40 38.6,27.1 38.8,26.7 38.9,26.4 39,26.1 39,25.7 39,25.4 39,25 39,24.7 38.9,24.3 38.8,24 38.6,23.7 38.5,23.4 38.3,23.1 38.1,22.8 37.8,22.5 37.6,22.3 37.3,22.1 37,21.9 36.7,21.7 36.4,21.6 36.1,21.5 35.7,21.4 35.4,21.4 35,21.4 34.7,21.4 34.3,21.4 34,21.5 33.6,21.6 33.3,21.7 33,21.9 32.7,22.1 32.4,22.3 32.2,22.5 32,22.8 31.7,23.1 31.6,23.4 31.4,23.7 31.3,24 31.2,24.3 31.1,24.7 31,25 31,25.4 31,25.7 31.1,26.1 31.2,26.4 31.3,26.7 31.4,27.1 31.6,27.4 31.7,27.7 32,27.9 32.2,28.2 32.4,28.4 32.7,28.7 33,28.8 33.3,29 33.6,29.1 34,29.2 34.3,29.3 34.7,29.4 35,29.4 35.4,29.4 48.3,24" />
<path stroke="#663399" stroke-width="2" d="M 55,70" />
<path stroke="#663399" stroke-width="2" d="M 55,40 62.6,21.5 70.3,40" />
<path stroke="#663399" stroke-width="2" d="M 76.9,70" />
<path stroke="#663399" stroke-width="2" d="M 76.9,40 76.9,39.3 77,38.6 77.1,37.9 77.3,37.2 77.5,36.6 77.8,36 78.2,35.4 78.6,34.8 79,34.2 79.5,33.8 80.1,33.3 80.6,32.9 81.2,32.6 81.9,32.3 82.5,32 83.2,31.8 83.9,31.7 84.6,31.7 85.3,31.7 86,31.7 86.7,31.8 87.3,32 88,32.3 88.6,32.6 89.2,32.9 89.8,33.3 90.3,33.8 90.8,34.2 91.3,34.8 91.7,35.4 92,36 92.3,36.6 92.6,37.2 92.7,37.9 92.9,38.6 92.9,39.3" />
</svg>