<svg xmlns="http://www.w3.org/2000/svg" width="152.39999999999998" height="73.97715731796461" style="fill:none; stroke-linecap:round;">
    <rect width="100%" height="100%" fill="#F3F3F7" />
<path stroke="#663399" stroke-width="2" d="M 90,50" />
<path stroke="#663399" stroke-width="2" d="M 40,40 40.2,40 40.2,40.2 40,40.2 40,40" />
<path stroke="#663399" stroke-width="2" d="M 46.9,70" />
<path stroke="#663399" stroke-width="2" d="M 62.9,30 63.9,30 65,30.1 66,30.3 67,30.5 68,30.9 68.9,31.3 69.8,31.9 70.7,32.5 71.5,33.1 72.2,33.9 72.9,34.7 73.5,35.5 74,36.4 74.5,37.4 74.8,38.4 75.1,39.4 75.3,40.4 75.4,41.5 75.4,42.5 75.3,43.6 75.1,44.6 74.8,45.6 74.5,46.6 74,47.5 73.5,48.4 72.9,49.3 72.2,50.1 71.5,50.8 70.7,51.5 69.8,52.1 68.9,52.6 68,53.1 67,53.4 66,53.7 65,53.9 63.9,54 62.9,54 61.8,53.9 60.8,53.7 59.8,53.4 58.8,53.1 57.8,52.6 56.9,52.1 56.1,51.5 55.3,50.8 54.5,50.1 53.9,49.3 53.3,48.4 52.7,47.5 52.3,46.6 51.9,45.6 51.7,44.6 51.5,43.6 51.4,42.5 51.4,41.5 51.5,40.4 51.7,39.4 51.9,38.4 52.3,37.4 52.7,36.4 53.3,35.5 53.9,34.7 54.5,33.9 55.3,33.1 56.1,32.5 56.9,31.9 57.8,31.3 58.8,30.9 59.8,30.5 60.8,30.3 61.8,30.1 62.9,30 98.9,30" />
<path stroke="#663399" stroke-width="2" d="M 105.5,70" />
<path stroke="#663399" stroke-width="2" d="M 105.5,50 125.5,50" />
<path stroke="#663399" stroke-width="2" d="M 132.2,70" />
<path stroke="#663399" stroke-width="2" d="M 132.2,30 132.4,30 132.4,30.2 132.2,30.2 132.2,30" />
</svg>