<svg xmlns="http://www.w3.org/2000/svg" width="117.86167051319187" height="70.0" style="fill:none; stroke-linecap:round;">
    <rect width="100%" height="100%" fill="#F3F3F7" />
<path stroke="#663399" stroke-width="2" d="M 90,40" />
<path stroke="#663399" stroke-width="2" d="M 20,10 20,30 20,50 20,44 20,43.1 20.1,42.3 20.2,41.4 20.5,40.6 20.8,39.7 21.1,38.9 21.6,38.2 22.1,37.5 22.6,36.8 23.2,36.2 23.9,35.6 24.6,35.1 25.4,34.7 26.2,34.3 27,34 27.8,33.8 28.7,33.6 29.6,33.6" />
<path stroke="#663399" stroke-width="2" d="M 36.2,30" />
<path stroke="#663399" stroke-width="2" d="M 38.2,30 43.6,17.1 43.7,16.7 43.8,16.4 43.9,16.1 43.9,15.7 44,15.4 43.9,15 43.9,14.7 43.8,14.3 43.7,14 43.6,13.7 43.4,13.4 43.2,13.1 43,12.8 42.8,12.5 42.5,12.3 42.2,12.1 42,11.9 41.6,11.7 41.3,11.6 41,11.5 40.6,11.4 40.3,11.4 40,11.4 39.6,11.4 39.3,11.4 38.9,11.5 38.6,11.6 38.3,11.7 38,11.9 37.7,12.1 37.4,12.3 37.1,12.5 36.9,12.8 36.7,13.1 36.5,13.4 36.3,13.7 36.2,14 36.1,14.3 36,14.7 36,15 36,15.4 36,15.7 36,16.1 36.1,16.4 36.2,16.7 36.3,17.1 36.5,17.4 36.7,17.7 36.9,17.9 37.1,18.2 37.4,18.4 37.7,18.7 38,18.8 38.3,19 38.6,19.1 38.9,19.2 39.3,19.3 39.6,19.4 40,19.4 40.3,19.4 53.2,14" />
<path stroke="#663399" stroke-width="2" d="M 59.9,30" />
<path stroke="#663399" stroke-width="2" d="M 59.9,30 67.6,11.5 75.2,30" />
<path stroke="#663399" stroke-width="2" d="M 81.9,30" />
<path stroke="#663399" stroke-width="2" d="M 81.9,30 81.9,29.3 81.9,28.6 82.1,27.9 82.2,27.2 82.5,26.6 82.8,26 83.1,25.4 83.5,24.8 84,24.2 84.5,23.8 85,23.3 85.6,22.9 86.2,22.6 86.8,22.3 87.5,22 88.1,21.8 88.8,21.7 89.5,21.7 90.2,21.7 90.9,21.7 91.6,21.8 92.3,22 92.9,22.3 93.6,22.6 94.2,22.9 94.7,23.3 95.3,23.8 95.8,24.2 96.2,24.8 96.6,25.4 97,26 97.3,26.6 97.5,27.2 97.7,27.9 97.8,28.6 97.9,29.3" />
</svg>