<svg xmlns="http://www.w3.org/2000/svg" width="96.64067062793693" height="50.0" style="fill:none; stroke-linecap:round;">
    <rect width="100%" height="100%" fill="#F3F3F7" />
<path stroke="#663399" stroke-width="2" d="M 90,40" />
<path stroke="#663399" stroke-width="2" d="M 20,10 30,10" />
<path stroke="#663399" stroke-width="2" d="M 36.7,30" />
<path stroke="#663399" stroke-width="2" d="M 36.7,30 44.3,11.5 52,30" />
<path stroke="#663399" stroke-width="2" d="M 58.6,30" />
<path stroke="#663399" stroke-width="2" d="M 66.6,10 66.6,25" />
<path stroke="#663399" stroke-width="2" d="M 66.6,25 66.5,27 66.2,28.6 65.8,29.9 65.2,30.8 64.5,31.3 63.8,31.6 63.1,31.7 62.3,31.5 61.6,31.1 61,30.6 60.5,30 60.2,29.3 60,28.6 60,27.8 60.3,27.1 60.9,26.4 61.8,25.9 63,25.4 64.6,25.1 66.6,25 76.6,25" />
</svg>