<svg xmlns="http://www.w3.org/2000/svg" width="126.74701140344041" height="89.98096443163716" style="fill:none; stroke-linecap:round;">
    <rect width="100%" height="100%" fill="#F3F3F7" />
<path stroke="#663399" stroke-width="2" d="M 90,50" />
<path stroke="#663399" stroke-width="2" d="M 36,30 37.7,30 39.5,30.2 41.2,30.5 42.9,30.9 44.5,31.5 46.1,32.2 47.6,33.1 49,34.1 50.4,35.2 51.6,36.5 52.7,37.8 53.7,39.2 54.6,40.7 55.3,42.3 55.9,44 56.4,45.7 56.7,47.4 56.9,49.1 56.9,50.9 56.7,52.6 56.4,54.3 55.9,56 55.3,57.6 54.6,59.2 53.7,60.7 52.7,62.2 51.6,63.5 50.4,64.7 49,65.8 47.6,66.8 46.1,67.7 44.5,68.5 42.9,69.1 41.2,69.5 39.5,69.8 37.7,70 36,70 34.3,69.8 32.5,69.5 30.9,69.1 29.2,68.5 27.6,67.7 26.1,66.8 24.7,65.8 23.4,64.7 22.1,63.5 21,62.2 20,60.7 19.1,59.2 18.4,57.6 17.8,56 17.3,54.3 17,52.6 16.9,50.9 16.9,49.1 17,47.4 17.3,45.7 17.8,44 18.4,42.3 19.1,40.7 20,39.2 21,37.8 22.1,36.5 23.4,35.2 24.7,34.1 26.1,33.1 27.6,32.2 29.2,31.5 30.9,30.9 32.5,30.5 34.3,30.2 36,30 72,30" />
<path stroke="#663399" stroke-width="2" d="M 78.7,70" />
<path stroke="#663399" stroke-width="2" d="M 78.7,50 82.5,59.2" />
<path stroke="#663399" stroke-width="2" d="M 82.5,59.2 84.4,61.4 85.7,63.3 86.5,65 86.8,66.4 86.7,67.7 86.3,68.7 85.6,69.5 84.7,70 83.6,70.4 82.5,70.5 81.4,70.4 80.3,70 79.4,69.5 78.7,68.7 78.3,67.7 78.2,66.4 78.5,65 79.3,63.3 80.6,61.4 82.5,59.2 86.3,50 96.3,50 97.2,50 98.1,50.1 98.9,50.2 99.8,50.5 100.6,50.8 101.4,51.1 102.1,51.6 102.8,52.1 103.5,52.6 104.1,53.2 104.7,53.9 105.2,54.6 105.6,55.4 106,56.2 106.3,57 106.5,57.8 106.7,58.7 106.7,59.6 106.7,60.4 106.7,61.3 106.5,62.2 106.3,63 106,63.8 105.6,64.6 105.2,65.4 104.7,66.1 104.1,66.7 103.5,67.4 102.8,67.9 102.1,68.4 101.4,68.9 100.6,69.2 99.8,69.5 98.9,69.8 98.1,69.9 97.2,70" />
</svg>