<svg xmlns="http://www.w3.org/2000/svg" width="124.43591613412511" height="88.47759065022574" style="fill:none; stroke-linecap:round;">
    <rect width="100%" height="100%" fill="#FFFFFF" />
<path stroke="#000000" stroke-width="2" d="M 90,50" />
<path stroke="#000000" stroke-width="2" d="M 40,40 40.2,40 40.2,40.2 40,40.2 40,40" />
<path stroke="#000000" stroke-width="2" d="M 46.9,70" />
<path stroke="#000000" stroke-width="2" d="M 46.9,35 47.2,35.3 47.5,35.6 47.9,35.8 48.2,36.1 48.6,36.2 49,36.4 49.5,36.5 49.9,36.6 50.3,36.6 50.8,36.6 51.2,36.6 51.6,36.5 52.1,36.4 52.5,36.2 52.9,36.1 53.2,35.8 53.6,35.6 53.9,35.3 54.2,35 54.5,34.7 54.8,34.3 55,33.9 55.2,33.5 55.3,33.1 55.4,32.7 55.5,32.3 55.5,31.8 55.5,31.4 55.5,31 55.4,30.5 55.3,30.1 55.2,29.7 55,29.3 54.8,28.9 54.5,28.6 54.2,28.2 53.9,27.9 53.6,27.7 53.2,27.4 52.9,27.2 52.5,27 52.1,26.9 51.6,26.7 51.2,26.7 50.8,26.6 50.3,26.6 49.9,26.7 49.5,26.7 49,26.9 48.6,27 48.2,27.2 47.9,27.4 47.5,27.7 47.2,27.9 46.9,28.2 46.6,28.6 46.3,28.9 46.1,29.3 45.9,29.7 45.8,30.1 45.7,30.5 45.6,31 45.6,31.4 45.6,31.8 45.6,32.3 45.7,32.7 45.8,33.1 45.9,33.5 46.1,33.9 46.3,34.3 46.6,34.7 46.9,35 46.9,50 39.2,68.5" />
<path stroke="#000000" stroke-width="2" d="M 62.2,70" />
<path stroke="#000000" stroke-width="2" d="M 62.2,20 62.2,40 62.2,34 62.2,33.1 62.3,32.3 62.4,31.4 62.7,30.6 63,29.7 63.3,28.9 63.8,28.2 64.3,27.5 64.8,26.8 65.4,26.2 66.1,25.6 66.8,25.1 67.6,24.7 68.4,24.3 69.2,24 70,23.8 70.9,23.6 71.8,23.6 71.8,38.6" />
<path stroke="#000000" stroke-width="2" d="M 71.8,38.6 71.7,40.6 71.4,42.2 70.9,43.5 70.3,44.3 69.7,44.9 68.9,45.2 68.2,45.2 67.4,45.1 66.8,44.7 66.1,44.2 65.6,43.6 65.3,42.9 65.1,42.2 65.2,41.4 65.4,40.7 66,40 66.9,39.4 68.1,39 69.7,38.7 71.8,38.6" />
<path stroke="#000000" stroke-width="2" d="M 78.4,70" />
<path stroke="#000000" stroke-width="2" d="M 86.4,30 87,30 87.5,30 88,30.1 88.5,30.3 89,30.5 89.5,30.7 89.9,30.9 90.4,31.2 90.8,31.6 91.1,31.9 91.5,32.3 91.8,32.8 92,33.2 92.2,33.7 92.4,34.2 92.6,34.7 92.6,35.2 92.7,35.7 92.7,36.3 92.6,36.8 92.6,37.3 92.4,37.8 92.2,38.3 92,38.8 91.8,39.2 91.5,39.6 91.1,40 90.8,40.4 90.4,40.8 89.9,41.1 89.5,41.3 89,41.5 88.5,41.7 88,41.9 87.5,41.9 87,42 86.4,42 85.9,41.9 85.4,41.9 84.9,41.7 84.4,41.5 83.9,41.3 83.5,41.1 83,40.8 82.6,40.4 82.3,40 81.9,39.6 81.6,39.2 81.4,38.8 81.2,38.3 81,37.8 80.8,37.3 80.7,36.8 80.7,36.3 80.7,35.7 80.7,35.2 80.8,34.7 81,34.2 81.2,33.7 81.4,33.2 81.6,32.8 81.9,32.3 82.3,31.9 82.6,31.6 83,31.2 83.5,30.9 83.9,30.7 84.4,30.5 84.9,30.3 85.4,30.1 85.9,30 86.4,30 104.4,30" />
</svg>