<svg xmlns="http://www.w3.org/2000/svg" width="104.94639536545998" height="90.2" style="fill:none; stroke-linecap:round;">
    <rect width="100%" height="100%" fill="#FFFFFF" />
<path stroke="#000000" stroke-width="2" d="M 90,50" />
<path stroke="#000000" stroke-width="2" d="M 20,70 20.2,70 20.2,70.2 20,70.2 20,70" />
<path stroke="#000000" stroke-width="2" d="M 26.9,70" />
<path stroke="#000000" stroke-width="2" d="M 26.9,30 26.9,70 26.9,58 26.9,56.3 27,54.5 27.3,52.8 27.8,51.1 28.4,49.5 29.1,47.9 30,46.4 31,45 32.1,43.6 33.3,42.4 34.7,41.3 36.1,40.3 37.6,39.4 39.2,38.7 40.8,38.1 42.5,37.6 44.2,37.3 46,37.1" />
<path stroke="#000000" stroke-width="2" d="M 52.6,70" />
<path stroke="#000000" stroke-width="2" d="M 52.6,20 52.6,40 58.3,34.3" />
<path stroke="#000000" stroke-width="2" d="M 65,70" />
<path stroke="#000000" stroke-width="2" d="M 65,20 65,40 65,34 65,33.1 65,32.3 65.2,31.4 65.4,30.6 65.7,29.7 66.1,28.9 66.5,28.2 67,27.5 67.6,26.8 68.2,26.2 68.9,25.6 69.6,25.1 70.3,24.7 71.1,24.3 71.9,24 72.8,23.8 73.7,23.6 74.5,23.6 75.4,23.6 76.3,23.6 77.1,23.8 78,24 78.8,24.3 79.6,24.7 80.3,25.1 81,25.6 81.7,26.2 82.3,26.8 82.9,27.5 83.4,28.2 83.8,28.9 84.2,29.7 84.5,30.6 84.7,31.4 84.9,32.3 84.9,33.1 84.9,34 84.9,34.9 84.7,35.7 84.5,36.6 84.2,37.4 83.8,38.2 83.4,38.9 82.9,39.7 82.3,40.3 81.7,40.9 81,41.5 80.3,42 79.6,42.4 78.8,42.8 78,43.1 77.1,43.3 76.3,43.5 75.4,43.6 75.7,43.9 76,44.1 76.4,44.4 76.8,44.6 77.2,44.8 77.6,44.9 78,45.1 78.4,45.1 78.9,45.2 79.3,45.2 79.7,45.1 80.2,45.1 80.6,44.9 81,44.8 81.4,44.6 81.8,44.4 82.1,44.1 82.5,43.9 82.8,43.6 83,43.2 83.3,42.9 83.5,42.5 83.7,42.1 83.8,41.7 84,41.3 84,40.8 84.1,40.4 84.1,40 84,39.5 84,39.1 83.8,38.7 83.7,38.3 83.5,37.9 83.3,37.5 83,37.1 82.8,36.8 82.5,36.5 82.1,36.2 81.8,36 81.4,35.7 81,35.6 80.6,35.4 80.2,35.3 79.7,35.2 79.3,35.2 78.9,35.2 78.4,35.2 78,35.3 77.6,35.4 77.2,35.6 76.8,35.7 76.4,36 76,36.2 75.7,36.5 75.4,36.8 75.1,37.1 74.9,37.5 74.6,37.9 74.5,38.3 74.3,38.7 74.2,39.1 74.1,39.5 74.1,40 74.1,40.4 74.1,40.8 74.2,41.3 74.3,41.7 74.5,42.1 74.6,42.5 74.9,42.9 75.1,43.2 75.4,43.6 75.4,58.6" />
</svg>