<svg xmlns="http://www.w3.org/2000/svg" width="116.16068947354746" height="93.00674756282285" style="fill:none; stroke-linecap:round;">
    <rect width="100%" height="100%" fill="#F3F3F7" />
<path stroke="#663399" stroke-width="2" d="M 90,50" />
<path stroke="#663399" stroke-width="2" d="M 20,70 35.3,33 75.3,33 77.1,33 78.8,33.2 80.5,33.5 82.2,34 83.8,34.5 85.4,35.3 86.9,36.2 88.4,37.2 89.7,38.3 90.9,39.5 92,40.9 93,42.3 93.9,43.8 94.7,45.4 95.3,47 95.7,48.7 96,50.4 96.2,52.2 96.2,53.9 96,55.6 95.7,57.4 95.3,59 94.7,60.7 93.9,62.3 93,63.8 92,65.2 90.9,66.5 89.7,67.8 88.4,68.9 86.9,69.9 85.4,70.8 83.8,71.5 82.2,72.1 80.5,72.6 78.8,72.9 77.1,73" />
</svg>