<svg xmlns="http://www.w3.org/2000/svg" width="58.65524532564898" height="90.0" style="fill:none; stroke-linecap:round;">
    <rect width="100%" height="100%" fill="#F3F3F7" />
<path stroke="#663399" stroke-width="2" d="M 90,50" />
<path stroke="#663399" stroke-width="2" d="M 20,30 20,70" />
<path stroke="#663399" stroke-width="2" d="M 26.7,70" />
<path stroke="#663399" stroke-width="2" d="M 26.7,10 26.7,14 26.7,14.5 26.7,15 26.8,15.6 26.9,16.1 27.1,16.6 27.3,17 27.6,17.5 27.9,17.9 28.2,18.3 28.6,18.7 29,19 29.4,19.3 29.9,19.6 30.4,19.8 30.9,20 31.4,20.1 31.9,20.2 32.4,20.3 32.9,20.3 33.4,20.2 34,20.1 34.5,20 35,19.8 35.4,19.6 35.9,19.3 36.3,19 36.7,18.7 37.1,18.3 37.4,17.9 37.7,17.5 38,17 38.2,16.6 38.4,16.1 38.5,15.6 38.6,15 38.7,14.5 38.7,9.5 38.7,29.5" />
</svg>