<svg xmlns="http://www.w3.org/2000/svg" width="91.66062911766869" height="89.59797974644667" style="fill:none; stroke-linecap:round;">
    <rect width="100%" height="100%" fill="#F3F3F7" />
<path stroke="#663399" stroke-width="2" d="M 90,50" />
<path stroke="#663399" stroke-width="2" d="M 36,30 16.2,49.8 36,69.6" />
<path stroke="#663399" stroke-width="2" d="M 42.7,70" />
<path stroke="#663399" stroke-width="2" d="M 52.7,10 45,28.5 45,48.5 45,42.5 45,41.6 45.1,40.7 45.2,39.9 45.5,39 45.8,38.2 46.1,37.4 46.6,36.7 47.1,36 47.6,35.3 48.2,34.7 48.9,34.1 49.6,33.6 50.4,33.2 51.2,32.8 52,32.5 52.8,32.3 53.7,32.1 54.6,32.1" />
<path stroke="#663399" stroke-width="2" d="M 61.2,70" />
<path stroke="#663399" stroke-width="2" d="M 61.2,10 62.1,10 63,10.1 63.8,10.2 64.7,10.5 65.5,10.8 66.3,11.1 67,11.6 67.8,12.1 68.4,12.6 69,13.2 69.6,13.9 70.1,14.6 70.5,15.4 70.9,16.2 71.2,17 71.4,17.8 71.6,18.7 71.7,19.6 71.7,20.4 71.6,21.3 71.4,22.2 71.2,23 70.9,23.8 70.5,24.6 70.1,25.4 69.6,26.1 69,26.7 68.4,27.4 67.8,27.9 67,28.4 66.3,28.9 65.5,29.2 64.7,29.5 63.8,29.8 63,29.9 62.1,30" />
</svg>