<svg xmlns="http://www.w3.org/2000/svg" width="94.40866334216521" height="90.2" style="fill:none; stroke-linecap:round;">
    <rect width="100%" height="100%" fill="#FFFFFF" />
<path stroke="#000000" stroke-width="2" d="M 90,50" />
<path stroke="#000000" stroke-width="2" d="M 20,70 20.2,70 20.2,70.2 20,70.2 20,70" />
<path stroke="#000000" stroke-width="2" d="M 26.9,70" />
<path stroke="#000000" stroke-width="2" d="M 26.9,35" />
<path stroke="#000000" stroke-width="2" d="M 26.9,35 28.9,34.9 30.5,34.6 31.7,34.1 32.6,33.6 33.2,32.9 33.5,32.2 33.5,31.4 33.3,30.7 33,30 32.5,29.4 31.9,28.9 31.2,28.5 30.4,28.3 29.7,28.4 29,28.7 28.3,29.2 27.7,30.1 27.3,31.4 27,33 26.9,35 26.9,50 19.2,68.5" />
<path stroke="#000000" stroke-width="2" d="M 40.2,70" />
<path stroke="#000000" stroke-width="2" d="M 40.2,20 40.2,40 40.2,34 40.2,33.1 40.3,32.3 40.4,31.4 40.6,30.6 40.9,29.7 41.3,28.9 41.7,28.2 42.2,27.5 42.8,26.8 43.4,26.2 44.1,25.6 44.8,25.1 45.6,24.7 46.4,24.3 47.2,24 48,23.8 48.9,23.6 49.7,23.6 49.7,38.6" />
<path stroke="#000000" stroke-width="2" d="M 49.7,38.6 49.6,40.6 49.3,42.2 48.9,43.5 48.3,44.3 47.6,44.9 46.9,45.2 46.2,45.2 45.4,45.1 44.7,44.7 44.1,44.2 43.6,43.6 43.3,42.9 43.1,42.2 43.1,41.4 43.4,40.7 44,40 44.9,39.4 46.1,39 47.7,38.7 49.7,38.6" />
<path stroke="#000000" stroke-width="2" d="M 56.4,70" />
<path stroke="#000000" stroke-width="2" d="M 64.4,30" />
<path stroke="#000000" stroke-width="2" d="M 64.4,30 64.3,32 64,33.6 63.5,34.9 63,35.8 62.3,36.3 61.6,36.6 60.8,36.7 60.1,36.5 59.4,36.1 58.8,35.6 58.3,35 57.9,34.3 57.8,33.6 57.8,32.8 58.1,32.1 58.6,31.4 59.5,30.9 60.8,30.4 62.4,30.1 64.4,30 74.4,30" />
</svg>