<svg xmlns="http://www.w3.org/2000/svg" width="254.99429368151394" height="93.57332391052807" style="fill:none; stroke-linecap:round;">
    <rect width="100%" height="100%" fill="#FFFFFF" />
<path stroke="#000000" stroke-width="2" d="M 375,75" />
<path stroke="#000000" stroke-width="2" d="M 20,30 35.3,67" />
<path stroke="#000000" stroke-width="2" d="M 42,70" />
<path stroke="#000000" stroke-width="2" d="M 42,30 42.2,30 42.2,30.2 42,30.2 42,30" />
<path stroke="#000000" stroke-width="2" d="M 72.2,70" />
<path stroke="#000000" stroke-width="2" d="M 72.2,40" />
<path stroke="#000000" stroke-width="2" d="M 72.2,40 76.2,39.8 79.5,39.2 81.9,38.3 83.7,37.1 84.8,35.8 85.4,34.3 85.5,32.8 85.1,31.4 84.4,30 83.4,28.8 82.2,27.7 80.8,27 79.3,26.7 77.8,26.8 76.4,27.3 75.1,28.5 73.9,30.2 73,32.7 72.4,35.9 72.2,40 72.2,70" />
<path stroke="#000000" stroke-width="2" d="M 92.1,70" />
<path stroke="#000000" stroke-width="2" d="M 92.1,50 92.1,70 92.1,64 92.1,63.1 92.2,62.3 92.4,61.4 92.6,60.6 92.9,59.7 93.3,58.9 93.7,58.2 94.2,57.5 94.8,56.8 95.4,56.2 96.1,55.6 96.8,55.1 97.5,54.7 98.3,54.3 99.1,54 100,53.8 100.8,53.6 101.7,53.6" />
<path stroke="#000000" stroke-width="2" d="M 101.7,53.6 103.1,53.7 104.4,54.1 105.5,54.8 106.5,55.7 107.3,56.7 108,57.9 108.5,59.2 108.9,60.6 109.1,62.1 109.2,63.6 109.1,65.1 108.9,66.5 108.5,67.9 108,69.3 107.3,70.4 106.5,71.5 105.5,72.4 104.4,73 103.1,73.4 101.7,73.6" />
<path stroke="#000000" stroke-width="2" d="M 139.2,70" />
<path stroke="#000000" stroke-width="2" d="M 139.2,30 139.2,50 149.2,50" />
<path stroke="#000000" stroke-width="2" d="M 149.2,50 151.2,49.9 152.8,49.6 154.1,49.1 155,48.6 155.5,47.9 155.8,47.2 155.9,46.4 155.7,45.7 155.3,45 154.8,44.4 154.2,43.9 153.5,43.5 152.8,43.3 152,43.4 151.3,43.7 150.6,44.2 150.1,45.1 149.6,46.4 149.3,48 149.2,50 149.2,65" />
<path stroke="#000000" stroke-width="2" d="M 185.9,70" />
<path stroke="#000000" stroke-width="2" d="M 201.9,30 182.1,49.8 201.9,69.6" />
<path stroke="#000000" stroke-width="2" d="M 208.5,70" />
<path stroke="#000000" stroke-width="2" d="M 218.5,20 210.9,38.5 213.2,32.9 213.5,32.1 213.9,31.4 214.4,30.6 214.9,29.9 215.5,29.3 216.1,28.7 216.8,28.2 217.6,27.7 218.3,27.3 219.1,27 220,26.7 220.8,26.5" />
<path stroke="#000000" stroke-width="2" d="M 227.5,70" />
<path stroke="#000000" stroke-width="2" d="M 227.5,20" />
<path stroke="#000000" stroke-width="2" d="M 227.5,20 228.9,20.1 230.2,20.6 231.3,21.2 232.3,22.1 233.1,23.1 233.8,24.3 234.3,25.6 234.7,27 234.9,28.5 235,30 234.9,31.5 234.7,33 234.3,34.4 233.8,35.7 233.1,36.9 232.3,37.9 231.3,38.8 230.2,39.4 228.9,39.9 227.5,40" />
<path stroke="#000000" stroke-width="2" d="M 265,70" />
</svg>