<svg xmlns="http://www.w3.org/2000/svg" width="270.73613243397807" height="108.47759065022574" style="fill:none; stroke-linecap:round;">
    <rect width="100%" height="100%" fill="#FFFFFF" />
<path stroke="#000000" stroke-width="2" d="M 375,75" />
<path stroke="#000000" stroke-width="2" d="M 20,30 35.3,67" />
<path stroke="#000000" stroke-width="2" d="M 42,70" />
<path stroke="#000000" stroke-width="2" d="M 42,30 42.2,30 42.2,30.2 42,30.2 42,30" />
<path stroke="#000000" stroke-width="2" d="M 72.2,70" />
<path stroke="#000000" stroke-width="2" d="M 88.2,30 88.2,60" />
<path stroke="#000000" stroke-width="2" d="M 88.2,60 88,64.1 87.4,67.3 86.5,69.8 85.3,71.5 84,72.7 82.5,73.2 81,73.3 79.5,73 78.2,72.3 76.9,71.2 75.9,70 75.2,68.6 74.9,67.2 74.9,65.7 75.5,64.2 76.7,62.9 78.4,61.7 80.9,60.8 84.1,60.2 88.2,60" />
<path stroke="#000000" stroke-width="2" d="M 94.8,70" />
<path stroke="#000000" stroke-width="2" d="M 94.8,30 94.8,30.7 94.9,31.4 95,32.1 95.2,32.8 95.4,33.4 95.7,34 96.1,34.6 96.5,35.2 96.9,35.8 97.4,36.2 98,36.7 98.5,37.1 99.1,37.4 99.8,37.7 100.4,38 101.1,38.2 101.8,38.3 102.5,38.3 103.2,38.3 103.9,38.3 104.6,38.2 105.2,38 105.9,37.7 106.5,37.4 107.1,37.1 107.7,36.7 108.2,36.2 108.7,35.8 109.2,35.2 109.6,34.6 109.9,34 110.2,33.4 110.5,32.8 110.6,32.1 110.8,31.4 110.8,30.7 111.7,30.7 112.6,30.8 113.4,30.9 114.3,31.2 115.1,31.4 115.9,31.8 116.6,32.3 117.3,32.8 118,33.3 118.6,33.9 119.2,34.6 119.7,35.3 120.1,36.1 120.5,36.9 120.8,37.7 121,38.5 121.2,39.4 121.3,40.3 121.3,41.1 121.2,42 121,42.9 120.8,43.7 120.5,44.5 120.1,45.3 119.7,46.1 119.2,46.8 118.6,47.4 118,48.1 117.3,48.6 116.6,49.1 115.9,49.6 115.1,49.9 114.3,50.2 113.4,50.5 112.6,50.6 111.7,50.7" />
<path stroke="#000000" stroke-width="2" d="M 151.3,70" />
<path stroke="#000000" stroke-width="2" d="M 151.3,30 151.3,50 161.3,50" />
<path stroke="#000000" stroke-width="2" d="M 161.3,50 163.3,49.9 164.9,49.6 166.1,49.1 167,48.6 167.6,47.9 167.9,47.2 167.9,46.4 167.7,45.7 167.4,45 166.9,44.4 166.3,43.9 165.6,43.5 164.8,43.3 164.1,43.4 163.4,43.7 162.7,44.2 162.1,45.1 161.7,46.4 161.4,48 161.3,50 161.3,65" />
<path stroke="#000000" stroke-width="2" d="M 197.9,70" />
<path stroke="#000000" stroke-width="2" d="M 197.9,30 199.7,30 201.4,30.2 203.1,30.5 204.8,30.9 206.4,31.5 208,32.2 209.5,33.1 211,34.1 212.3,35.2 213.5,36.5 214.6,37.8 215.6,39.2 216.5,40.7 217.3,42.3 217.9,44 218.3,45.7 218.6,47.4 218.8,49.1 218.8,50.9 218.6,52.6 218.3,54.3 217.9,56 217.3,57.6 216.5,59.2 215.6,60.7 214.6,62.2 213.5,63.5 212.3,64.7 211,65.8 209.5,66.8 208,67.7 206.4,68.5 204.8,69.1 203.1,69.5 201.4,69.8 199.7,70" />
<path stroke="#000000" stroke-width="2" d="M 225.4,70" />
<path stroke="#000000" stroke-width="2" d="M 225.4,35" />
<path stroke="#000000" stroke-width="2" d="M 225.4,35 227.5,34.9 229.1,34.6 230.3,34.1 231.2,33.6 231.8,32.9 232,32.2 232.1,31.4 231.9,30.7 231.6,30 231.1,29.4 230.4,28.9 229.7,28.5 229,28.3 228.3,28.4 227.5,28.7 226.9,29.2 226.3,30.1 225.8,31.4 225.5,33 225.4,35 225.4,50 225.4,54 225.4,54.5 225.5,55 225.6,55.6 225.7,56.1 225.9,56.6 226.1,57 226.4,57.5 226.7,57.9 227,58.3 227.4,58.7 227.8,59 228.2,59.3 228.7,59.6 229.1,59.8 229.6,60 230.1,60.1 230.6,60.2 231.2,60.3 231.7,60.3 232.2,60.2 232.7,60.1 233.2,60 233.7,59.8 234.2,59.6 234.6,59.3 235.1,59 235.5,58.7 235.8,58.3 236.2,57.9 236.5,57.5 236.7,57 237,56.6 237.1,56.1 237.3,55.6 237.4,55 237.4,54.5 237.4,49.5 237.4,69.5" />
<path stroke="#000000" stroke-width="2" d="M 244.1,70" />
<path stroke="#000000" stroke-width="2" d="M 244.1,55" />
<path stroke="#000000" stroke-width="2" d="M 244.1,55 246.1,54.9 247.7,54.6 249,54.1 249.8,53.6 250.4,52.9 250.7,52.2 250.7,51.4 250.6,50.7 250.2,50 249.7,49.4 249.1,48.9 248.4,48.5 247.7,48.3 246.9,48.4 246.2,48.7 245.5,49.2 244.9,50.1 244.5,51.4 244.2,53 244.1,55 244.1,70 236.4,88.5" />
<path stroke="#000000" stroke-width="2" d="M 280.7,70" />
</svg>