<svg xmlns="http://www.w3.org/2000/svg" width="360.19841232960164" height="90.0" style="fill:none; stroke-linecap:round;">
    <rect width="100%" height="100%" fill="#FFFFFF" />
<path stroke="#000000" stroke-width="2" d="M 375,75" />
<path stroke="#000000" stroke-width="2" d="M 20,30 20,70 31.3,58.7" />
<path stroke="#000000" stroke-width="2" d="M 38,70" />
<path stroke="#000000" stroke-width="2" d="M 48,20 40.3,38.5" />
<path stroke="#000000" stroke-width="2" d="M 78,70" />
<path stroke="#000000" stroke-width="2" d="M 78,30 78,50 88,50" />
<path stroke="#000000" stroke-width="2" d="M 88,50 90,49.9 91.6,49.6 92.9,49.1 93.7,48.6 94.3,47.9 94.6,47.2 94.6,46.4 94.5,45.7 94.1,45 93.6,44.4 93,43.9 92.3,43.5 91.6,43.3 90.8,43.4 90.1,43.7 89.4,44.2 88.8,45.1 88.4,46.4 88.1,48 88,50 88,65" />
<path stroke="#000000" stroke-width="2" d="M 124.6,70" />
<path stroke="#000000" stroke-width="2" d="M 124.6,30 124.6,70 124.6,58 124.6,56.3 124.8,54.5 125.1,52.8 125.5,51.1 126.1,49.5 126.9,47.9 127.7,46.4 128.7,45 129.9,43.6 131.1,42.4 132.4,41.3 133.9,40.3 135.4,39.4 137,38.7 138.6,38.1 140.3,37.6 142,37.3 143.7,37.1" />
<path stroke="#000000" stroke-width="2" d="M 150.4,70" />
<path stroke="#000000" stroke-width="2" d="M 170.4,30 155.1,67" />
<path stroke="#000000" stroke-width="2" d="M 200.4,70" />
<path stroke="#000000" stroke-width="2" d="M 200.4,50 208.1,31.5 228.1,31.5" />
<path stroke="#000000" stroke-width="2" d="M 228.1,31.5 229.5,31.7 230.8,32.1 231.9,32.7 232.9,33.6 233.7,34.6 234.4,35.8 234.9,37.2 235.3,38.6 235.5,40 235.6,41.5 235.5,43 235.3,44.5 234.9,45.9 234.4,47.2 233.7,48.4 232.9,49.4 231.9,50.3 230.8,51 229.5,51.4 228.1,51.5" />
<path stroke="#000000" stroke-width="2" d="M 265.6,70" />
<path stroke="#000000" stroke-width="2" d="M 265.6,30 265.6,70 276.9,58.7" />
<path stroke="#000000" stroke-width="2" d="M 283.5,70" />
<path stroke="#000000" stroke-width="2" d="M 293.5,20 285.9,38.5" />
<path stroke="#000000" stroke-width="2" d="M 323.5,70" />
<path stroke="#000000" stroke-width="2" d="M 323.5,30 323.5,50 333.5,50" />
<path stroke="#000000" stroke-width="2" d="M 333.5,50 335.6,49.9 337.2,49.6 338.4,49.1 339.3,48.6 339.9,47.9 340.2,47.2 340.2,46.4 340,45.7 339.7,45 339.2,44.4 338.6,43.9 337.9,43.5 337.1,43.3 336.4,43.4 335.7,43.7 335,44.2 334.4,45.1 333.9,46.4 333.7,48 333.5,50 333.5,65" />
<path stroke="#000000" stroke-width="2" d="M 370.2,70" />
</svg>