<svg xmlns="http://www.w3.org/2000/svg" width="129.7297050088319" height="60.0" style="fill:none; stroke-linecap:round;">
    <rect width="100%" height="100%" fill="#FFFFFF" />
<path stroke="#000000" stroke-width="2" d="M 375,75" />
<path stroke="#000000" stroke-width="2" d="M 20,30 60,30" />
<path stroke="#000000" stroke-width="2" d="M 66.7,70" />
<path stroke="#000000" stroke-width="2" d="M 66.7,25" />
<path stroke="#000000" stroke-width="2" d="M 66.7,25 68.7,24.9 70.3,24.6 71.5,24.1 72.4,23.6 73,22.9 73.3,22.2 73.3,21.4 73.1,20.7 72.8,20 72.3,19.4 71.7,18.9 71,18.5 70.2,18.3 69.5,18.4 68.8,18.7 68.1,19.2 67.5,20.1 67.1,21.4 66.8,23 66.7,25 66.7,40" />
<path stroke="#000000" stroke-width="2" d="M 80,70" />
<path stroke="#000000" stroke-width="2" d="M 80,25" />
<path stroke="#000000" stroke-width="2" d="M 80,25 82,24.9 83.6,24.6 84.9,24.1 85.7,23.6 86.3,22.9 86.6,22.2 86.6,21.4 86.5,20.7 86.1,20 85.6,19.4 85,18.9 84.3,18.5 83.6,18.3 82.8,18.4 82.1,18.7 81.4,19.2 80.8,20.1 80.4,21.4 80.1,23 80,25 80,40" />
<path stroke="#000000" stroke-width="2" d="M 93.3,70" />
<path stroke="#000000" stroke-width="2" d="M 93.3,20 93.3,40 93.3,34 93.3,33.1 93.4,32.3 93.5,31.4 93.8,30.6 94.1,29.7 94.4,28.9 94.9,28.2 95.4,27.5 95.9,26.8 96.5,26.2 97.2,25.6 97.9,25.1 98.7,24.7 99.5,24.3 100.3,24 101.1,23.8 102,23.6 102.9,23.6" />
<path stroke="#000000" stroke-width="2" d="M 109.5,70" />
<path stroke="#000000" stroke-width="2" d="M 109.5,30 109.7,30 109.7,30.2 109.5,30.2 109.5,30" />
<path stroke="#000000" stroke-width="2" d="M 139.7,70" />
</svg>