<svg xmlns="http://www.w3.org/2000/svg" width="371.37733610713565" height="90.0" style="fill:none; stroke-linecap:round;">
    <rect width="100%" height="100%" fill="#FFFFFF" />
<path stroke="#000000" stroke-width="2" d="M 375,75" />
<path stroke="#000000" stroke-width="2" d="M 30,50 30.9,50 31.7,49.9 32.6,49.8 33.4,49.5 34.3,49.2 35.1,48.9 35.8,48.4 36.5,47.9 37.2,47.4 37.8,46.8 38.4,46.1 38.9,45.4 39.3,44.6 39.7,43.8 40,43 40.2,42.2 40.4,41.3 40.4,40.4 40.4,39.6 40.4,38.7 40.2,37.8 40,37 39.7,36.2 39.3,35.4 38.9,34.6 38.4,33.9 37.8,33.3 37.2,32.6 36.5,32.1 35.8,31.6 35.1,31.1 34.3,30.8 33.4,30.5 32.6,30.2 31.7,30.1 30.9,30 30,30 29.1,30.1 28.3,30.2 27.4,30.5 26.6,30.8 25.8,31.1 25.1,31.6 24.3,32.1 23.7,32.6 23.1,33.3 22.5,33.9 22,34.6 21.6,35.4 21.2,36.2 20.9,37 20.7,37.8 20.5,38.7 20.4,39.6 20.4,40.4 20.5,41.3 20.7,42.2 20.9,43 21.2,43.8 21.6,44.6 22,45.4 22.5,46.1 23.1,46.8 23.7,47.4 24.3,47.9 25.1,48.4 25.8,48.9 26.6,49.2 27.4,49.5 28.3,49.8 29.1,49.9 30,50 30,70 30,64 30,63.1 30.1,62.3 30.2,61.4 30.5,60.6 30.8,59.7 31.1,58.9 31.6,58.2 32.1,57.5 32.6,56.8 33.2,56.2 33.9,55.6 34.6,55.1 35.4,54.7 36.2,54.3 37,54 37.8,53.8 38.7,53.6 39.6,53.6" />
<path stroke="#000000" stroke-width="2" d="M 70.4,70" />
<path stroke="#000000" stroke-width="2" d="M 70.4,30 70.4,50 80.4,50" />
<path stroke="#000000" stroke-width="2" d="M 80.4,50 82.5,49.9 84.1,49.6 85.3,49.1 86.2,48.6 86.8,47.9 87,47.2 87.1,46.4 86.9,45.7 86.6,45 86.1,44.4 85.4,43.9 84.7,43.5 84,43.3 83.3,43.4 82.5,43.7 81.9,44.2 81.3,45.1 80.8,46.4 80.5,48 80.4,50 80.4,65" />
<path stroke="#000000" stroke-width="2" d="M 117.1,70" />
<path stroke="#000000" stroke-width="2" d="M 117.1,30 157.1,30" />
<path stroke="#000000" stroke-width="2" d="M 163.7,70" />
<path stroke="#000000" stroke-width="2" d="M 163.7,50 163.9,50 163.9,50.2 163.7,50.2 163.7,50" />
<path stroke="#000000" stroke-width="2" d="M 193.9,70" />
<path stroke="#000000" stroke-width="2" d="M 193.9,30" />
<path stroke="#000000" stroke-width="2" d="M 193.9,30 196.8,30.3 199.3,31.1 201.6,32.4 203.5,34.2 205.2,36.2 206.5,38.6 207.6,41.3 208.3,44.1 208.8,47 208.9,50 208.8,53 208.3,55.9 207.6,58.7 206.5,61.4 205.2,63.8 203.5,65.8 201.6,67.6 199.3,68.9 196.8,69.7 193.9,70" />
<path stroke="#000000" stroke-width="2" d="M 215.6,70" />
<path stroke="#000000" stroke-width="2" d="M 215.6,30 225.6,30 225.6,70 225.6,68.3 225.8,66.5 226.1,64.8 226.5,63.1 227.1,61.5 227.9,59.9 228.7,58.4 229.7,57 230.8,55.6 232.1,54.4 233.4,53.3 234.8,52.3 236.4,51.4 237.9,50.7 239.6,50.1 241.3,49.6 243,49.3 244.7,49.1" />
<path stroke="#000000" stroke-width="2" d="M 251.4,70" />
<path stroke="#000000" stroke-width="2" d="M 251.4,20 271.4,20" />
<path stroke="#000000" stroke-width="2" d="M 271.4,20 273.4,19.9 275,19.6 276.3,19.1 277.1,18.6 277.7,17.9 278,17.2 278,16.4 277.9,15.7 277.5,15 277,14.4 276.4,13.9 275.7,13.5 275,13.3 274.2,13.4 273.5,13.7 272.8,14.2 272.3,15.1 271.8,16.4 271.5,18 271.4,20 271.4,35" />
<path stroke="#000000" stroke-width="2" d="M 308,70" />
<path stroke="#000000" stroke-width="2" d="M 308,30 308,70" />
<path stroke="#000000" stroke-width="2" d="M 314.7,70" />
<path stroke="#000000" stroke-width="2" d="M 324.7,20 317.1,38.5 317.1,58.5 322.7,52.8" />
<path stroke="#000000" stroke-width="2" d="M 331.4,70" />
<path stroke="#000000" stroke-width="2" d="M 331.4,20 351.4,20" />
<path stroke="#000000" stroke-width="2" d="M 381.4,70" />
</svg>