<svg xmlns="http://www.w3.org/2000/svg" width="623.9227156348148" height="90.8" style="fill:none; stroke-linecap:round;">
    <rect width="100%" height="100%" fill="#FFFFFF" />
<path stroke="#000000" stroke-width="2" d="M 375,75" />
<path stroke="#000000" stroke-width="2" d="M 20,30 20,31.4 20.1,32.8 20.4,34.2 20.7,35.5 21.2,36.8 21.8,38.1 22.5,39.3 23.3,40.4 24.2,41.5 25.2,42.5 26.2,43.4 27.4,44.2 28.6,44.9 29.9,45.5 31.2,46 32.5,46.3 33.9,46.6 35.3,46.7 36.7,46.7 38.1,46.6 39.4,46.3 40.8,46 42.1,45.5 43.4,44.9 44.6,44.2 45.7,43.4 46.8,42.5 47.8,41.5 48.7,40.4 49.5,39.3 50.2,38.1 50.8,36.8 51.2,35.5 51.6,34.2 51.8,32.8 52,31.4" />
<path stroke="#000000" stroke-width="2" d="M 58.6,70" />
<path stroke="#000000" stroke-width="2" d="M 68.6,20 61,38.5" />
<path stroke="#000000" stroke-width="2" d="M 98.6,70" />
<path stroke="#000000" stroke-width="2" d="M 98.6,30 113.9,67" />
<path stroke="#000000" stroke-width="2" d="M 120.6,70" />
<path stroke="#000000" stroke-width="2" d="M 120.6,20 120.8,20 120.8,20.2 120.6,20.2 120.6,20" />
<path stroke="#000000" stroke-width="2" d="M 150.8,70" />
<path stroke="#000000" stroke-width="2" d="M 170.8,30 155.5,67" />
<path stroke="#000000" stroke-width="2" d="M 177.5,70" />
<path stroke="#000000" stroke-width="2" d="M 177.5,20 177.5,20.7 177.5,21.4 177.7,22.1 177.8,22.8 178.1,23.4 178.4,24 178.7,24.6 179.1,25.2 179.6,25.8 180.1,26.2 180.6,26.7 181.2,27.1 181.8,27.4 182.4,27.7 183.1,28 183.7,28.2 184.4,28.3 185.1,28.3 185.8,28.3 186.5,28.3 187.2,28.2 187.9,28 188.5,27.7 189.2,27.4 189.8,27.1 190.3,26.7 190.9,26.2 191.4,25.8 191.8,25.2 192.2,24.6 192.6,24 192.9,23.4 193.1,22.8 193.3,22.1 193.4,21.4 193.5,20.7" />
<path stroke="#000000" stroke-width="2" d="M 223.5,70" />
<path stroke="#000000" stroke-width="2" d="M 227.5,30 244.4,47" />
<path stroke="#000000" stroke-width="2" d="M 261.4,30 221.8,69.6" />
<path stroke="#000000" stroke-width="2" d="M 268.1,70" />
<path stroke="#000000" stroke-width="2" d="M 268.1,50 268.3,50 268.3,50.2 268.1,50.2 268.1,50" />
<path stroke="#000000" stroke-width="2" d="M 298.3,70" />
<path stroke="#000000" stroke-width="2" d="M 308.3,30 307.4,30 306.5,30.1 305.7,30.2 304.8,30.5 304,30.8 303.2,31.1 302.5,31.6 301.7,32.1 301.1,32.6 300.5,33.2 299.9,33.9 299.4,34.6 299,35.4 298.6,36.2 298.3,37 298.1,37.8 297.9,38.7 297.8,39.6 297.8,40.4 297.9,41.3 298.1,42.2 298.3,43 298.6,43.8 299,44.6 299.4,45.4 299.9,46.1 300.5,46.7 301.1,47.4 301.7,47.9 302.5,48.4 303.2,48.9 304,49.2 304.8,49.5 305.7,49.8 306.5,49.9 307.4,50 312.4,50 312.4,70" />
<path stroke="#000000" stroke-width="2" d="M 342.4,70" />
<path stroke="#000000" stroke-width="2" d="M 342.4,70 342.6,70 342.6,70.2 342.4,70.2 342.4,70" />
<path stroke="#000000" stroke-width="2" d="M 349.3,70" />
<path stroke="#000000" stroke-width="2" d="M 349.3,30 351,30 352.7,30.2 354.5,30.5 356.2,30.9 357.8,31.5 359.4,32.2 360.9,33.1 362.3,34.1 363.6,35.2 364.9,36.5 366,37.8 367,39.2 367.9,40.7 368.6,42.3 369.2,44 369.7,45.7 370,47.4 370.1,49.1 370.1,50.9 370,52.6 369.7,54.3 369.2,56 368.6,57.6 367.9,59.2 367,60.7 366,62.2 364.9,63.5 363.6,64.7 362.3,65.8 360.9,66.8 359.4,67.7 357.8,68.5 356.2,69.1 354.5,69.5 352.7,69.8 351,70" />
<path stroke="#000000" stroke-width="2" d="M 376.8,70" />
<path stroke="#000000" stroke-width="2" d="M 376.8,25" />
<path stroke="#000000" stroke-width="2" d="M 376.8,25 378.8,24.9 380.4,24.6 381.7,24.1 382.5,23.6 383.1,22.9 383.4,22.2 383.4,21.4 383.3,20.7 382.9,20 382.4,19.4 381.8,18.9 381.1,18.5 380.4,18.3 379.6,18.4 378.9,18.7 378.2,19.2 377.6,20.1 377.2,21.4 376.9,23 376.8,25 376.8,40" />
<path stroke="#000000" stroke-width="2" d="M 413.4,70" />
<path stroke="#000000" stroke-width="2" d="M 423.4,30 422.6,30 421.7,30.1 420.8,30.2 420,30.5 419.2,30.8 418.4,31.1 417.6,31.6 416.9,32.1 416.2,32.6 415.6,33.2 415.1,33.9 414.6,34.6 414.1,35.4 413.8,36.2 413.5,37 413.2,37.8 413.1,38.7 413,39.6 413,40.4 413.1,41.3 413.2,42.2 413.5,43 413.8,43.8 414.1,44.6 414.6,45.4 415.1,46.1 415.6,46.7 416.2,47.4 416.9,47.9 417.6,48.4 418.4,48.9 419.2,49.2 420,49.5 420.8,49.8 421.7,49.9 422.6,50 427.6,50 427.6,70" />
<path stroke="#000000" stroke-width="2" d="M 457.6,70" />
<path stroke="#000000" stroke-width="2" d="M 473.6,30 453.8,49.8 473.6,69.6" />
<path stroke="#000000" stroke-width="2" d="M 480.2,70" />
<path stroke="#000000" stroke-width="2" d="M 480.2,30 480.6,30 480.6,30.4 480.2,30.4 480.2,30" />
<path stroke="#000000" stroke-width="2" d="M 510.6,70" />
<path stroke="#000000" stroke-width="2" d="M 510.6,50 518.3,31.5 519.2,31.5 520,31.6 520.9,31.7 521.7,32 522.5,32.3 523.3,32.6 524.1,33.1 524.8,33.6 525.5,34.1 526.1,34.8 526.7,35.4 527.2,36.1 527.6,36.9 528,37.7 528.3,38.5 528.5,39.3 528.6,40.2 528.7,41.1 528.7,41.9 528.6,42.8 528.5,43.7 528.3,44.5 528,45.3 527.6,46.1 527.2,46.9 526.7,47.6 526.1,48.3 525.5,48.9 524.8,49.4 524.1,49.9 523.3,50.4 522.5,50.8 521.7,51.1 520.9,51.3 520,51.4 519.2,51.5 526.8,70 534.5,51.5" />
<path stroke="#000000" stroke-width="2" d="M 541.1,70" />
<path stroke="#000000" stroke-width="2" d="M 541.1,20 561.1,20 571,29.9 561.1,39.8 561.7,39.2 562.4,38.6 563.1,38.1 563.9,37.7 564.7,37.3 565.5,37 566.3,36.8 567.2,36.6 568.1,36.6 568.9,36.6 569.8,36.6 570.7,36.8 571.5,37 572.3,37.3 573.1,37.7" />
<path stroke="#000000" stroke-width="2" d="M 603.1,70" />
<path stroke="#000000" stroke-width="2" d="M 603.1,30 603.1,62" />
<path stroke="#000000" stroke-width="2" d="M 603.1,70 603.9,70 603.9,70.8 603.1,70.8 603.1,70" />
<path stroke="#000000" stroke-width="2" d="M 633.9,70" />
</svg>