<svg xmlns="http://www.w3.org/2000/svg" width="722.656692390069" height="99.98096443163715" style="fill:none; stroke-linecap:round;">
    <rect width="100%" height="100%" fill="#FFFFFF" />
<path stroke="#000000" stroke-width="2" d="M 375,75" />
<path stroke="#000000" stroke-width="2" d="M 20,30 20,70" />
<path stroke="#000000" stroke-width="2" d="M 26.7,70" />
<path stroke="#000000" stroke-width="2" d="M 36.7,20 29,38.5 29,58.5 34.7,52.8" />
<path stroke="#000000" stroke-width="2" d="M 43.3,70" />
<path stroke="#000000" stroke-width="2" d="M 43.3,20 63.3,20" />
<path stroke="#000000" stroke-width="2" d="M 93.3,70" />
<path stroke="#000000" stroke-width="2" d="M 93.3,70 93.5,70 93.5,70.2 93.3,70.2 93.3,70" />
<path stroke="#000000" stroke-width="2" d="M 100.2,70" />
<path stroke="#000000" stroke-width="2" d="M 120.2,30 104.9,67" />
<path stroke="#000000" stroke-width="2" d="M 126.9,70" />
<path stroke="#000000" stroke-width="2" d="M 126.9,30 134.5,48.5 134.8,48.8 135.2,49.1 135.5,49.3 135.9,49.5 136.3,49.7 136.7,49.9 137.1,50 137.6,50.1 138,50.1 138.4,50.1 138.9,50.1 139.3,50 139.7,49.9 140.1,49.7 140.5,49.5 140.9,49.3 141.3,49.1 141.6,48.8 141.9,48.5 142.2,48.1 142.4,47.8 142.6,47.4 142.8,47 143,46.6 143.1,46.2 143.2,45.8 143.2,45.3 143.2,44.9 143.2,44.4 143.1,44 143,43.6 142.8,43.2 142.6,42.8 142.4,42.4 142.2,42.1 141.9,41.7 141.6,41.4 141.3,41.1 140.9,40.9 140.5,40.7 140.1,40.5 139.7,40.3 139.3,40.2 138.9,40.1 138.4,40.1 138,40.1 137.6,40.1 137.1,40.2 136.7,40.3 136.3,40.5 135.9,40.7 135.5,40.9 135.2,41.1 134.8,41.4 134.5,41.7 134.2,42.1 134,42.4 133.8,42.8 133.6,43.2 133.4,43.6 133.3,44 133.2,44.4 133.2,44.9 133.2,45.3 133.2,45.8 133.3,46.2 133.4,46.6 133.6,47 133.8,47.4 134,47.8 134.2,48.1 134.5,48.5 134.5,63.5" />
<path stroke="#000000" stroke-width="2" d="M 173.2,70" />
<path stroke="#000000" stroke-width="2" d="M 173.2,30 173.2,70 184.5,58.7" />
<path stroke="#000000" stroke-width="2" d="M 191.2,70" />
<path stroke="#000000" stroke-width="2" d="M 191.2,20 211.2,20" />
<path stroke="#000000" stroke-width="2" d="M 241.2,70" />
<path stroke="#000000" stroke-width="2" d="M 241.2,70 241.4,70 241.4,70.2 241.2,70.2 241.2,70" />
<path stroke="#000000" stroke-width="2" d="M 248,70" />
<path stroke="#000000" stroke-width="2" d="M 258,30 257.2,30 256.3,30.1 255.4,30.2 254.6,30.5 253.8,30.8 253,31.1 252.2,31.6 251.5,32.1 250.9,32.6 250.2,33.2 249.7,33.9 249.2,34.6 248.7,35.4 248.4,36.2 248.1,37 247.8,37.8 247.7,38.7 247.6,39.6 247.6,40.4 247.7,41.3 247.8,42.2 248.1,43 248.4,43.8 248.7,44.6 249.2,45.4 249.7,46.1 250.2,46.7 250.9,47.4 251.5,47.9 252.2,48.4 253,48.9 253.8,49.2 254.6,49.5 255.4,49.8 256.3,49.9 257.2,50 257.2,65" />
<path stroke="#000000" stroke-width="2" d="M 257.2,65 257.1,67 256.8,68.6 256.3,69.9 255.7,70.7 255.1,71.3 254.3,71.6 253.6,71.6 252.9,71.5 252.2,71.1 251.6,70.6 251.1,70 250.7,69.3 250.5,68.6 250.6,67.8 250.8,67.1 251.4,66.4 252.3,65.8 253.5,65.4 255.1,65.1 257.2,65 277.2,65 277.5,65.3 277.8,65.6 278.2,65.8 278.6,66 278.9,66.2 279.4,66.4 279.8,66.5 280.2,66.6 280.6,66.6 281.1,66.6 281.5,66.6 281.9,66.5 282.4,66.4 282.8,66.2 283.2,66 283.5,65.8 283.9,65.6 284.2,65.3 284.5,65 284.8,64.6 285.1,64.3 285.3,63.9 285.5,63.5 285.6,63.1 285.7,62.7 285.8,62.3 285.9,61.8 285.9,61.4 285.8,61 285.7,60.5 285.6,60.1 285.5,59.7 285.3,59.3 285.1,58.9 284.8,58.6 284.5,58.2 284.2,57.9 283.9,57.6 283.5,57.4 283.2,57.2 282.8,57 282.4,56.8 281.9,56.7 281.5,56.6 281.1,56.6 280.6,56.6 280.2,56.6 279.8,56.7 279.4,56.8 278.9,57 278.6,57.2 278.2,57.4 277.8,57.6 277.5,57.9 277.2,58.2 276.9,58.6 276.6,58.9 276.4,59.3 276.2,59.7 276.1,60.1 276,60.5 275.9,61 275.9,61.4 275.9,61.8 275.9,62.3 276,62.7 276.1,63.1 276.2,63.5 276.4,63.9 276.6,64.3 276.9,64.6 277.2,65 277.2,80" />
<path stroke="#000000" stroke-width="2" d="M 315.9,70" />
<path stroke="#000000" stroke-width="2" d="M 315.9,30 317.6,30 319.3,30.2 321.1,30.5 322.7,30.9 324.4,31.5 326,32.2 327.5,33.1 328.9,34.1 330.2,35.2 331.5,36.5 332.6,37.8 333.6,39.2 334.5,40.7 335.2,42.3 335.8,44 336.3,45.7 336.6,47.4 336.7,49.1 336.7,50.9 336.6,52.6 336.3,54.3 335.8,56 335.2,57.6 334.5,59.2 333.6,60.7 332.6,62.2 331.5,63.5 330.2,64.7 328.9,65.8 327.5,66.8 326,67.7 324.4,68.5 322.7,69.1 321.1,69.5 319.3,69.8 317.6,70 318.8,68.7 320.2,67.6 321.6,66.6 323.1,65.7 324.7,65 326.3,64.4 328,63.9 329.7,63.6 331.5,63.5 333.2,63.5 335,63.6 336.7,63.9 338.4,64.4 340,65 341.6,65.7" />
<path stroke="#000000" stroke-width="2" d="M 348.3,70" />
<path stroke="#000000" stroke-width="2" d="M 348.3,20 368.3,20 368.3,19.3 368.3,18.6 368.4,17.9 368.6,17.2 368.9,16.6 369.1,16 369.5,15.4 369.9,14.8 370.3,14.2 370.8,13.8 371.4,13.3 371.9,12.9 372.5,12.6 373.2,12.3 373.8,12 374.5,11.8 375.2,11.7 375.9,11.7 376.6,11.7 377.3,11.7 378,11.8 378.6,12 379.3,12.3 379.9,12.6 380.5,12.9 381.1,13.3 381.6,13.8 382.1,14.2 382.6,14.8 383,15.4 383.3,16 383.6,16.6 383.9,17.2 384.1,17.9 384.2,18.6 384.2,19.3" />
<path stroke="#000000" stroke-width="2" d="M 414.2,70" />
<path stroke="#000000" stroke-width="2" d="M 414.2,50 428.4,35.9 420.7,54.3 420.7,55 420.8,55.7 420.9,56.4 421.1,57.1 421.3,57.7 421.6,58.4 422,59 422.4,59.6 422.8,60.1 423.3,60.6 423.8,61 424.4,61.4 425,61.8 425.7,62.1 426.3,62.3 427,62.5 427.7,62.6 428.4,62.7 429.1,62.7 429.8,62.6 430.4,62.5 431.1,62.3 431.8,62.1 432.4,61.8 433,61.4 433.6,61 434.1,60.6 434.6,60.1 435.1,59.6 435.5,59 435.8,58.4 436.1,57.7 436.3,57.1 436.5,56.4 436.6,55.7 436.7,55" />
<path stroke="#000000" stroke-width="2" d="M 443.4,70" />
<path stroke="#000000" stroke-width="2" d="M 443.4,20 463.4,20 455.7,38.5" />
<path stroke="#000000" stroke-width="2" d="M 470,70" />
<path stroke="#000000" stroke-width="2" d="M 470,40 470.7,40.6 471.3,41.2 472,41.7 472.8,42.1 473.6,42.5 474.4,42.8 475.2,43 476.1,43.2 477,43.2 477.9,43.2 478.7,43.2 479.6,43 480.4,42.8 481.2,42.5 482,42.1 482.8,41.7 483.5,41.2 484.2,40.6 484.8,40 485.3,39.3 485.8,38.6 486.3,37.9 486.7,37.1 487,36.3 487.2,35.4 487.3,34.5 487.4,33.7 487.4,32.8 487.3,31.9 487.2,31.1 487,30.2 486.7,29.4 486.3,28.6 485.8,27.9 485.3,27.2 484.8,26.5 484.2,25.9 483.5,25.3 482.8,24.8 482,24.4 481.2,24 480.4,23.7 479.6,23.5 478.7,23.3 477.9,23.3 477,23.3 476.1,23.3 475.2,23.5 474.4,23.7 473.6,24 472.8,24.4 472,24.8 471.3,25.3 470.7,25.9 470,26.5 469.5,27.2 469,27.9 468.5,28.6 468.2,29.4 467.9,30.2 467.7,31.1 467.5,31.9 467.4,32.8 467.4,33.7 467.5,34.5 467.7,35.4 467.9,36.3 468.2,37.1 468.5,37.9 469,38.6 469.5,39.3 470,40 470,70" />
<path stroke="#000000" stroke-width="2" d="M 517.4,70" />
<path stroke="#000000" stroke-width="2" d="M 517.4,50 525.1,31.5 545.1,31.5 545.9,31.5 546.8,31.6 547.7,31.7 548.5,32 549.3,32.3 550.1,32.6 550.9,33.1 551.6,33.6 552.3,34.1 552.9,34.8 553.4,35.4 553.9,36.1 554.4,36.9 554.7,37.7 555,38.5 555.3,39.3 555.4,40.2 555.5,41.1 555.5,41.9 555.4,42.8 555.3,43.7 555,44.5 554.7,45.3 554.4,46.1 553.9,46.9 553.4,47.6 552.9,48.3 552.3,48.9 551.6,49.4 550.9,49.9 550.1,50.4 549.3,50.8 548.5,51.1 547.7,51.3 546.8,51.4 545.9,51.5" />
<path stroke="#000000" stroke-width="2" d="M 585.5,70" />
<path stroke="#000000" stroke-width="2" d="M 585.5,70 585.7,70 585.7,70.2 585.5,70.2 585.5,70" />
<path stroke="#000000" stroke-width="2" d="M 592.4,70" />
<path stroke="#000000" stroke-width="2" d="M 592.4,30 592.4,70 592.4,58 592.4,56.3 592.5,54.5 592.8,52.8 593.3,51.1 593.9,49.5 594.6,47.9 595.5,46.4 596.5,45 597.6,43.6 598.8,42.4 600.2,41.3 601.6,40.3 603.1,39.4 604.7,38.7 606.3,38.1 608,37.6 609.7,37.3 611.5,37.1" />
<path stroke="#000000" stroke-width="2" d="M 618.1,70" />
<path stroke="#000000" stroke-width="2" d="M 618.1,30 658.1,30 618.5,69.6 658.5,69.6" />
<path stroke="#000000" stroke-width="2" d="M 688.5,70" />
<path stroke="#000000" stroke-width="2" d="M 698.5,30 697.7,30 696.8,30.1 695.9,30.2 695.1,30.5 694.3,30.8 693.5,31.1 692.7,31.6 692,32.1 691.3,32.6 690.7,33.2 690.2,33.9 689.7,34.6 689.2,35.4 688.9,36.2 688.6,37 688.3,37.8 688.2,38.7 688.1,39.6 688.1,40.4 688.2,41.3 688.3,42.2 688.6,43 688.9,43.8 689.2,44.6 689.7,45.4 690.2,46.1 690.7,46.7 691.3,47.4 692,47.9 692.7,48.4 693.5,48.9 694.3,49.2 695.1,49.5 695.9,49.8 696.8,49.9 697.7,50 702.7,50 702.7,70" />
<path stroke="#000000" stroke-width="2" d="M 732.7,70" />
</svg>