<svg xmlns="http://www.w3.org/2000/svg" width="702.056692390069" height="99.98096443163715" style="fill:none; stroke-linecap:round;">
    <rect width="100%" height="100%" fill="#FFFFFF" />
<path stroke="#000000" stroke-width="2" d="M 375,75" />
<path stroke="#000000" stroke-width="2" d="M 20,30 20,70" />
<path stroke="#000000" stroke-width="2" d="M 26.7,70" />
<path stroke="#000000" stroke-width="2" d="M 36.7,20 29,38.5 29,58.5 34.7,52.8" />
<path stroke="#000000" stroke-width="2" d="M 43.3,70" />
<path stroke="#000000" stroke-width="2" d="M 43.3,20 63.3,20" />
<path stroke="#000000" stroke-width="2" d="M 93.3,70" />
<path stroke="#000000" stroke-width="2" d="M 113.3,30 98,67" />
<path stroke="#000000" stroke-width="2" d="M 120,70" />
<path stroke="#000000" stroke-width="2" d="M 120,30 127.7,48.5 128,48.8 128.3,49.1 128.7,49.3 129,49.5 129.4,49.7 129.8,49.9 130.3,50 130.7,50.1 131.1,50.1 131.6,50.1 132,50.1 132.4,50 132.8,49.9 133.3,49.7 133.6,49.5 134,49.3 134.4,49.1 134.7,48.8 135,48.5 135.3,48.1 135.6,47.8 135.8,47.4 136,47 136.1,46.6 136.2,46.2 136.3,45.8 136.3,45.3 136.3,44.9 136.3,44.4 136.2,44 136.1,43.6 136,43.2 135.8,42.8 135.6,42.4 135.3,42.1 135,41.7 134.7,41.4 134.4,41.1 134,40.9 133.6,40.7 133.3,40.5 132.8,40.3 132.4,40.2 132,40.1 131.6,40.1 131.1,40.1 130.7,40.1 130.3,40.2 129.8,40.3 129.4,40.5 129,40.7 128.7,40.9 128.3,41.1 128,41.4 127.7,41.7 127.4,42.1 127.1,42.4 126.9,42.8 126.7,43.2 126.6,43.6 126.5,44 126.4,44.4 126.3,44.9 126.3,45.3 126.4,45.8 126.5,46.2 126.6,46.6 126.7,47 126.9,47.4 127.1,47.8 127.4,48.1 127.7,48.5 127.7,63.5" />
<path stroke="#000000" stroke-width="2" d="M 166.3,70" />
<path stroke="#000000" stroke-width="2" d="M 166.3,30 166.3,70 177.6,58.7" />
<path stroke="#000000" stroke-width="2" d="M 184.3,70" />
<path stroke="#000000" stroke-width="2" d="M 184.3,20 204.3,20" />
<path stroke="#000000" stroke-width="2" d="M 234.3,70" />
<path stroke="#000000" stroke-width="2" d="M 244.3,30 243.4,30 242.6,30.1 241.7,30.2 240.9,30.5 240.1,30.8 239.3,31.1 238.5,31.6 237.8,32.1 237.1,32.6 236.5,33.2 235.9,33.9 235.4,34.6 235,35.4 234.6,36.2 234.3,37 234.1,37.8 234,38.7 233.9,39.6 233.9,40.4 234,41.3 234.1,42.2 234.3,43 234.6,43.8 235,44.6 235.4,45.4 235.9,46.1 236.5,46.7 237.1,47.4 237.8,47.9 238.5,48.4 239.3,48.9 240.1,49.2 240.9,49.5 241.7,49.8 242.6,49.9 243.4,50 243.4,65" />
<path stroke="#000000" stroke-width="2" d="M 243.4,65 243.3,67 243,68.6 242.6,69.9 242,70.7 241.3,71.3 240.6,71.6 239.9,71.6 239.1,71.5 238.4,71.1 237.8,70.6 237.3,70 237,69.3 236.8,68.6 236.8,67.8 237.1,67.1 237.7,66.4 238.6,65.8 239.8,65.4 241.4,65.1 243.4,65 263.4,65 263.8,65.3 264.1,65.6 264.4,65.8 264.8,66 265.2,66.2 265.6,66.4 266,66.5 266.5,66.6 266.9,66.6 267.3,66.6 267.8,66.6 268.2,66.5 268.6,66.4 269,66.2 269.4,66 269.8,65.8 270.2,65.6 270.5,65.3 270.8,65 271.1,64.6 271.3,64.3 271.6,63.9 271.7,63.5 271.9,63.1 272,62.7 272.1,62.3 272.1,61.8 272.1,61.4 272.1,61 272,60.5 271.9,60.1 271.7,59.7 271.6,59.3 271.3,58.9 271.1,58.6 270.8,58.2 270.5,57.9 270.2,57.6 269.8,57.4 269.4,57.2 269,57 268.6,56.8 268.2,56.7 267.8,56.6 267.3,56.6 266.9,56.6 266.5,56.6 266,56.7 265.6,56.8 265.2,57 264.8,57.2 264.4,57.4 264.1,57.6 263.8,57.9 263.4,58.2 263.2,58.6 262.9,58.9 262.7,59.3 262.5,59.7 262.4,60.1 262.2,60.5 262.2,61 262.1,61.4 262.1,61.8 262.2,62.3 262.2,62.7 262.4,63.1 262.5,63.5 262.7,63.9 262.9,64.3 263.2,64.6 263.4,65 263.4,80" />
<path stroke="#000000" stroke-width="2" d="M 302.1,70" />
<path stroke="#000000" stroke-width="2" d="M 302.1,30 303.9,30 305.6,30.2 307.3,30.5 309,30.9 310.7,31.5 312.2,32.2 313.7,33.1 315.2,34.1 316.5,35.2 317.7,36.5 318.9,37.8 319.9,39.2 320.7,40.7 321.5,42.3 322.1,44 322.5,45.7 322.8,47.4 323,49.1 323,50.9 322.8,52.6 322.5,54.3 322.1,56 321.5,57.6 320.7,59.2 319.9,60.7 318.9,62.2 317.7,63.5 316.5,64.7 315.2,65.8 313.7,66.8 312.2,67.7 310.7,68.5 309,69.1 307.3,69.5 305.6,69.8 303.9,70 305.1,68.7 306.4,67.6 307.9,66.6 309.4,65.7 311,65 312.6,64.4 314.3,63.9 316,63.6 317.7,63.5 319.5,63.5 321.2,63.6 322.9,63.9 324.6,64.4 326.3,65 327.9,65.7" />
<path stroke="#000000" stroke-width="2" d="M 334.5,70" />
<path stroke="#000000" stroke-width="2" d="M 334.5,20 354.5,20 354.5,19.3 354.6,18.6 354.7,17.9 354.9,17.2 355.1,16.6 355.4,16 355.8,15.4 356.2,14.8 356.6,14.2 357.1,13.8 357.6,13.3 358.2,12.9 358.8,12.6 359.4,12.3 360.1,12 360.8,11.8 361.5,11.7 362.2,11.7 362.9,11.7 363.6,11.7 364.2,11.8 364.9,12 365.6,12.3 366.2,12.6 366.8,12.9 367.4,13.3 367.9,13.8 368.4,14.2 368.9,14.8 369.3,15.4 369.6,16 369.9,16.6 370.1,17.2 370.3,17.9 370.4,18.6 370.5,19.3" />
<path stroke="#000000" stroke-width="2" d="M 400.5,70" />
<path stroke="#000000" stroke-width="2" d="M 400.5,50 414.6,35.9 407,54.3 407,55 407.1,55.7 407.2,56.4 407.4,57.1 407.6,57.7 407.9,58.4 408.2,59 408.6,59.6 409.1,60.1 409.6,60.6 410.1,61 410.7,61.4 411.3,61.8 411.9,62.1 412.6,62.3 413.3,62.5 413.9,62.6 414.6,62.7 415.3,62.7 416,62.6 416.7,62.5 417.4,62.3 418,62.1 418.7,61.8 419.3,61.4 419.9,61 420.4,60.6 420.9,60.1 421.3,59.6 421.7,59 422.1,58.4 422.4,57.7 422.6,57.1 422.8,56.4 422.9,55.7 423,55" />
<path stroke="#000000" stroke-width="2" d="M 429.6,70" />
<path stroke="#000000" stroke-width="2" d="M 429.6,20 449.6,20 442,38.5" />
<path stroke="#000000" stroke-width="2" d="M 456.3,70" />
<path stroke="#000000" stroke-width="2" d="M 456.3,40 456.9,40.6 457.6,41.2 458.3,41.7 459.1,42.1 459.9,42.5 460.7,42.8 461.5,43 462.4,43.2 463.2,43.2 464.1,43.2 465,43.2 465.8,43 466.7,42.8 467.5,42.5 468.3,42.1 469.1,41.7 469.8,41.2 470.4,40.6 471.1,40 471.6,39.3 472.1,38.6 472.6,37.9 472.9,37.1 473.2,36.3 473.4,35.4 473.6,34.5 473.7,33.7 473.7,32.8 473.6,31.9 473.4,31.1 473.2,30.2 472.9,29.4 472.6,28.6 472.1,27.9 471.6,27.2 471.1,26.5 470.4,25.9 469.8,25.3 469.1,24.8 468.3,24.4 467.5,24 466.7,23.7 465.8,23.5 465,23.3 464.1,23.3 463.2,23.3 462.4,23.3 461.5,23.5 460.7,23.7 459.9,24 459.1,24.4 458.3,24.8 457.6,25.3 456.9,25.9 456.3,26.5 455.7,27.2 455.2,27.9 454.8,28.6 454.4,29.4 454.1,30.2 453.9,31.1 453.8,31.9 453.7,32.8 453.7,33.7 453.8,34.5 453.9,35.4 454.1,36.3 454.4,37.1 454.8,37.9 455.2,38.6 455.7,39.3 456.3,40 456.3,70" />
<path stroke="#000000" stroke-width="2" d="M 503.7,70" />
<path stroke="#000000" stroke-width="2" d="M 503.7,50 511.3,31.5 531.3,31.5 532.2,31.5 533.1,31.6 533.9,31.7 534.8,32 535.6,32.3 536.4,32.6 537.1,33.1 537.8,33.6 538.5,34.1 539.1,34.8 539.7,35.4 540.2,36.1 540.6,36.9 541,37.7 541.3,38.5 541.5,39.3 541.7,40.2 541.8,41.1 541.8,41.9 541.7,42.8 541.5,43.7 541.3,44.5 541,45.3 540.6,46.1 540.2,46.9 539.7,47.6 539.1,48.3 538.5,48.9 537.8,49.4 537.1,49.9 536.4,50.4 535.6,50.8 534.8,51.1 533.9,51.3 533.1,51.4 532.2,51.5" />
<path stroke="#000000" stroke-width="2" d="M 571.8,70" />
<path stroke="#000000" stroke-width="2" d="M 571.8,30 571.8,70 571.8,58 571.8,56.3 571.9,54.5 572.2,52.8 572.7,51.1 573.3,49.5 574,47.9 574.9,46.4 575.9,45 577,43.6 578.2,42.4 579.6,41.3 581,40.3 582.5,39.4 584.1,38.7 585.7,38.1 587.4,37.6 589.1,37.3 590.9,37.1" />
<path stroke="#000000" stroke-width="2" d="M 597.5,70" />
<path stroke="#000000" stroke-width="2" d="M 597.5,30 637.5,30 597.9,69.6 637.9,69.6" />
<path stroke="#000000" stroke-width="2" d="M 667.9,70" />
<path stroke="#000000" stroke-width="2" d="M 677.9,30 677.1,30 676.2,30.1 675.3,30.2 674.5,30.5 673.7,30.8 672.9,31.1 672.1,31.6 671.4,32.1 670.7,32.6 670.1,33.2 669.6,33.9 669.1,34.6 668.6,35.4 668.3,36.2 668,37 667.7,37.8 667.6,38.7 667.5,39.6 667.5,40.4 667.6,41.3 667.7,42.2 668,43 668.3,43.8 668.6,44.6 669.1,45.4 669.6,46.1 670.1,46.7 670.7,47.4 671.4,47.9 672.1,48.4 672.9,48.9 673.7,49.2 674.5,49.5 675.3,49.8 676.2,49.9 677.1,50 682.1,50 682.1,70" />
<path stroke="#000000" stroke-width="2" d="M 712.1,70" />
</svg>