<svg xmlns="http://www.w3.org/2000/svg" width="654.4697566251729" height="90.67887462948254" style="fill:none; stroke-linecap:round;">
    <rect width="100%" height="100%" fill="#F3F3F7" />
<path stroke="#663399" stroke-width="2" d="M 375,75" />
<path stroke="#663399" stroke-width="2" d="M 20,30 23.8,39.2" />
<path stroke="#663399" stroke-width="2" d="M 23.8,39.2 25.8,41.4 27.1,43.3 27.8,45 28.1,46.4 28,47.7 27.6,48.7 26.9,49.5 26,50 24.9,50.4 23.8,50.5 22.7,50.4 21.7,50 20.8,49.5 20,48.7 19.6,47.7 19.5,46.4 19.8,45 20.6,43.3 21.9,41.4 23.8,39.2 27.7,30 47.7,30 40,48.5" />
<path stroke="#663399" stroke-width="2" d="M 54.3,70" />
<path stroke="#663399" stroke-width="2" d="M 77.7,70" />
<path stroke="#663399" stroke-width="2" d="M 97.7,70 99.4,70 101.1,69.8 102.9,69.5 104.5,69.1 106.2,68.5 107.8,67.8 109.3,66.9 110.7,65.9 112,64.8 113.3,63.5 114.4,62.2 115.4,60.8 116.3,59.3 117,57.7 117.6,56 118.1,54.3 118.4,52.6 118.5,50.9 118.5,49.1 118.4,47.4 118.1,45.7 117.6,44 117,42.4 116.3,40.8 115.4,39.3 114.4,37.8 113.3,36.5 112,35.3 110.7,34.2 109.3,33.2 107.8,32.3 106.2,31.5 104.5,30.9 102.9,30.5 101.1,30.2 99.4,30 97.7,30 95.9,30.2 94.2,30.5 92.5,30.9 90.9,31.5 89.3,32.3 87.8,33.2 86.4,34.2 85,35.3 83.8,36.5 82.7,37.8 81.7,39.3 80.8,40.8 80,42.4 79.5,44 79,45.7 78.7,47.4 78.5,49.1 78.5,50.9 78.7,52.6 79,54.3 79.5,56 80,57.7 80.8,59.3 81.7,60.8 82.7,62.2 83.8,63.5 85,64.8 86.4,65.9 87.8,66.9 89.3,67.8 90.9,68.5 92.5,69.1 94.2,69.5 95.9,69.8 97.7,70" />
<path stroke="#663399" stroke-width="2" d="M 125.2,70" />
<path stroke="#663399" stroke-width="2" d="M 125.2,40 125.8,40.6 126.5,41.2 127.2,41.7 127.9,42.1 128.7,42.5 129.5,42.8 130.4,43 131.2,43.2 132.1,43.2 133,43.2 133.9,43.2 134.7,43 135.6,42.8 136.4,42.5 137.2,42.1 137.9,41.7 138.6,41.2 139.3,40.6 139.9,40 140.5,39.3 141,38.6 141.4,37.9 141.8,37.1 142.1,36.3 142.3,35.4 142.5,34.5 142.5,33.7 142.5,32.8 142.5,31.9 142.3,31.1 142.1,30.2 141.8,29.4 141.4,28.6 141,27.9 140.5,27.2 139.9,26.5 139.3,25.9 138.6,25.3 137.9,24.8 137.2,24.4 136.4,24 135.6,23.7 134.7,23.5 133.9,23.3 133,23.3 132.1,23.3 131.2,23.3 130.4,23.5 129.5,23.7 128.7,24 127.9,24.4 127.2,24.8 126.5,25.3 125.8,25.9 125.2,26.5 124.6,27.2 124.1,27.9 123.7,28.6 123.3,29.4 123,30.2 122.8,31.1 122.6,31.9 122.6,32.8 122.6,33.7 122.6,34.5 122.8,35.4 123,36.3 123.3,37.1 123.7,37.9 124.1,38.6 124.6,39.3 125.2,40 125.2,70" />
<path stroke="#663399" stroke-width="2" d="M 172.5,70" />
<path stroke="#663399" stroke-width="2" d="M 182.5,30 172.5,30 172.5,70" />
<path stroke="#663399" stroke-width="2" d="M 189.2,70" />
<path stroke="#663399" stroke-width="2" d="M 189.2,50 209.2,50" />
<path stroke="#663399" stroke-width="2" d="M 215.9,70" />
<path stroke="#663399" stroke-width="2" d="M 215.9,20 235.9,20" />
<path stroke="#663399" stroke-width="2" d="M 265.9,70" />
<path stroke="#663399" stroke-width="2" d="M 265.9,30 267.6,30 269.4,30.2 271.1,30.5 272.8,30.9 274.4,31.5 276,32.2 277.5,33.1 278.9,34.1 280.3,35.2 281.5,36.5 282.6,37.8 283.6,39.2 284.5,40.7 285.2,42.3 285.8,44 286.3,45.7 286.6,47.4 286.7,49.1 286.7,50.9 286.6,52.6 286.3,54.3 285.8,56 285.2,57.6 284.5,59.2 283.6,60.7 282.6,62.2 281.5,63.5 280.3,64.7 278.9,65.8 277.5,66.8 276,67.7 274.4,68.5 272.8,69.1 271.1,69.5 269.4,69.8 267.6,70" />
<path stroke="#663399" stroke-width="2" d="M 293.4,70" />
<path stroke="#663399" stroke-width="2" d="M 293.4,25 293.7,25.3 294,25.6 294.4,25.8 294.8,26.1 295.2,26.2 295.6,26.4 296,26.5 296.4,26.6 296.9,26.6 297.3,26.6 297.7,26.6 298.2,26.5 298.6,26.4 299,26.2 299.4,26.1 299.8,25.8 300.1,25.6 300.5,25.3 300.8,25 301,24.7 301.3,24.3 301.5,23.9 301.7,23.5 301.8,23.1 302,22.7 302,22.3 302.1,21.8 302.1,21.4 302,21 302,20.5 301.8,20.1 301.7,19.7 301.5,19.3 301.3,18.9 301,18.6 300.8,18.2 300.5,17.9 300.1,17.7 299.8,17.4 299.4,17.2 299,17 298.6,16.9 298.2,16.7 297.7,16.7 297.3,16.6 296.9,16.6 296.4,16.7 296,16.7 295.6,16.9 295.2,17 294.8,17.2 294.4,17.4 294,17.7 293.7,17.9 293.4,18.2 293.1,18.6 292.9,18.9 292.6,19.3 292.5,19.7 292.3,20.1 292.2,20.5 292.1,21 292.1,21.4 292.1,21.8 292.1,22.3 292.2,22.7 292.3,23.1 292.5,23.5 292.6,23.9 292.9,24.3 293.1,24.7 293.4,25 293.4,40 285.7,58.5" />
<path stroke="#663399" stroke-width="2" d="M 308.7,70" />
<path stroke="#663399" stroke-width="2" d="M 308.7,30 328.7,30 329.6,30 330.5,30.1 331.3,30.2 332.2,30.5 333,30.8 333.8,31.1 334.5,31.6 335.3,32.1 335.9,32.6 336.5,33.2 337.1,33.9 337.6,34.6 338,35.4 338.4,36.2 338.7,37 338.9,37.8 339.1,38.7 339.2,39.6 339.2,40.4 339.1,41.3 338.9,42.2 338.7,43 338.4,43.8 338,44.6 337.6,45.4 337.1,46.1 336.5,46.7 335.9,47.4 335.3,47.9 334.5,48.4 333.8,48.9 333,49.2 332.2,49.5 331.3,49.8 330.5,49.9 329.6,50" />
<path stroke="#663399" stroke-width="2" d="M 369.2,70" />
<path stroke="#663399" stroke-width="2" d="M 389.2,30 373.9,67" />
<path stroke="#663399" stroke-width="2" d="M 395.8,70" />
<path stroke="#663399" stroke-width="2" d="M 419.2,70" />
<path stroke="#663399" stroke-width="2" d="M 419.2,30 419.2,70" />
<path stroke="#663399" stroke-width="2" d="M 425.8,70" />
<path stroke="#663399" stroke-width="2" d="M 425.8,20 425.8,40 425.8,34 425.8,33.1 425.9,32.3 426.1,31.4 426.3,30.6 426.6,29.7 427,28.9 427.4,28.2 427.9,27.5 428.4,26.8 429.1,26.2 429.7,25.6 430.4,25.1 431.2,24.7 432,24.3 432.8,24 433.7,23.8 434.5,23.6 435.4,23.6" />
<path stroke="#663399" stroke-width="2" d="M 465.4,70" />
<path stroke="#663399" stroke-width="2" d="M 485.4,30 485.4,70 465.4,70" />
<path stroke="#663399" stroke-width="2" d="M 492.1,70" />
<path stroke="#663399" stroke-width="2" d="M 492.1,50 492.1,50.7 492.1,51.4 492.2,52.1 492.4,52.8 492.7,53.4 492.9,54 493.3,54.6 493.7,55.2 494.1,55.8 494.6,56.2 495.2,56.7 495.7,57.1 496.4,57.4 497,57.7 497.6,58 498.3,58.2 499,58.3 499.7,58.3 500.4,58.3 501.1,58.3 501.8,58.2 502.5,58 503.1,57.7 503.7,57.4 504.3,57.1 504.9,56.7 505.4,56.2 505.9,55.8 506.4,55.2 506.8,54.6 507.1,54 507.4,53.4 507.7,52.8 507.9,52.1 508,51.4 508,50.7 508.9,50.7 509.8,50.8 510.6,50.9 511.5,51.2 512.3,51.4 513.1,51.8 513.8,52.3 514.6,52.8 515.2,53.3 515.8,53.9 516.4,54.6 516.9,55.3 517.3,56.1 517.7,56.9 518,57.7 518.2,58.5 518.4,59.4 518.5,60.3 518.5,61.1 518.4,62 518.2,62.9 518,63.7 517.7,64.5 517.3,65.3 516.9,66.1 516.4,66.8 515.8,67.4 515.2,68.1 514.6,68.6 513.8,69.1 513.1,69.6 512.3,69.9 511.5,70.2 510.6,70.5 509.8,70.6 508.9,70.7" />
<path stroke="#663399" stroke-width="2" d="M 548.5,70" />
<path stroke="#663399" stroke-width="2" d="M 553.5,30 548.5,30 548.5,50 548.5,70 548.5,64 548.5,63.1 548.5,62.3 548.7,61.4 548.9,60.6 549.2,59.7 549.6,58.9 550,58.2 550.5,57.5 551.1,56.8 551.7,56.2 552.4,55.6 553.1,55.1 553.8,54.7 554.6,54.3 555.4,54 556.3,53.8 557.1,53.6 558,53.6" />
<path stroke="#663399" stroke-width="2" d="M 564.7,70" />
<path stroke="#663399" stroke-width="2" d="M 564.7,50 564.7,70 570.3,64.3 590.3,64.3" />
<path stroke="#663399" stroke-width="2" d="M 620.3,70" />
<path stroke="#663399" stroke-width="2" d="M 630.3,30 629.5,30 628.6,30.1 627.7,30.2 626.9,30.5 626.1,30.8 625.3,31.1 624.5,31.6 623.8,32.1 623.2,32.6 622.5,33.2 622,33.9 621.5,34.6 621,35.4 620.7,36.2 620.4,37 620.1,37.8 620,38.7 619.9,39.6 619.9,40.4 620,41.3 620.1,42.2 620.4,43 620.7,43.8 621,44.6 621.5,45.4 622,46.1 622.5,46.7 623.2,47.4 623.8,47.9 624.5,48.4 625.3,48.9 626.1,49.2 626.9,49.5 627.7,49.8 628.6,49.9 629.5,50 634.5,50 634.5,70" />
<path stroke="#663399" stroke-width="2" d="M 664.5,70" />
</svg>