<svg xmlns="http://www.w3.org/2000/svg" width="790.0326591676212" height="98.34134087157756" style="fill:none; stroke-linecap:round;">
    <rect width="100%" height="100%" fill="#F3F3F7" />
<path stroke="#663399" stroke-width="2" d="M 425,75" />
<path stroke="#663399" stroke-width="2" d="M 20,30 21.7,30 23.5,30.2 25.2,30.5 26.9,30.9 28.5,31.5 30.1,32.2 31.6,33.1 33,34.1 34.4,35.2 35.6,36.5 36.7,37.8 37.7,39.2 38.6,40.7 39.3,42.3 39.9,44 40.4,45.7 40.7,47.4 40.9,49.1 40.9,50.9 40.7,52.6 40.4,54.3 39.9,56 39.3,57.6 38.6,59.2 37.7,60.7 36.7,62.2 35.6,63.5 34.4,64.7 33,65.8 31.6,66.8 30.1,67.7 28.5,68.5 26.9,69.1 25.2,69.5 23.5,69.8 21.7,70" />
<path stroke="#663399" stroke-width="2" d="M 47.5,70" />
<path stroke="#663399" stroke-width="2" d="M 47.5,25 47.8,25.3 48.2,25.6 48.5,25.8 48.9,26.1 49.3,26.2 49.7,26.4 50.1,26.5 50.6,26.6 51,26.6 51.4,26.6 51.9,26.6 52.3,26.5 52.7,26.4 53.1,26.2 53.5,26.1 53.9,25.8 54.3,25.6 54.6,25.3 54.9,25 55.2,24.7 55.4,24.3 55.6,23.9 55.8,23.5 56,23.1 56.1,22.7 56.2,22.3 56.2,21.8 56.2,21.4 56.2,21 56.1,20.5 56,20.1 55.8,19.7 55.6,19.3 55.4,18.9 55.2,18.6 54.9,18.2 54.6,17.9 54.3,17.7 53.9,17.4 53.5,17.2 53.1,17 52.7,16.9 52.3,16.7 51.9,16.7 51.4,16.6 51,16.6 50.6,16.7 50.1,16.7 49.7,16.9 49.3,17 48.9,17.2 48.5,17.4 48.2,17.7 47.8,17.9 47.5,18.2 47.2,18.6 47,18.9 46.8,19.3 46.6,19.7 46.4,20.1 46.3,20.5 46.2,21 46.2,21.4 46.2,21.8 46.2,22.3 46.3,22.7 46.4,23.1 46.6,23.5 46.8,23.9 47,24.3 47.2,24.7 47.5,25 47.5,40 39.9,58.5" />
<path stroke="#663399" stroke-width="2" d="M 62.9,70" />
<path stroke="#663399" stroke-width="2" d="M 62.9,30 82.9,30" />
<path stroke="#663399" stroke-width="2" d="M 89.5,70" />
<path stroke="#663399" stroke-width="2" d="M 89.5,20 90.4,20 91.3,20.1 92.1,20.2 93,20.5 93.8,20.8 94.6,21.1 95.3,21.6 96.1,22.1 96.7,22.6 97.3,23.2 97.9,23.9 98.4,24.6 98.8,25.4 99.2,26.2 99.5,27 99.7,27.8 99.9,28.7 100,29.6 100,30.4 99.9,31.3 99.7,32.2 99.5,33 99.2,33.8 98.8,34.6 98.4,35.4 97.9,36.1 97.3,36.7 96.7,37.4 96.1,37.9 95.3,38.4 94.6,38.9 93.8,39.2 93,39.5 92.1,39.8 91.3,39.9 90.4,40" />
<path stroke="#663399" stroke-width="2" d="M 130,70" />
<path stroke="#663399" stroke-width="2" d="M 150,30 134.7,67" />
<path stroke="#663399" stroke-width="2" d="M 156.6,70" />
<path stroke="#663399" stroke-width="2" d="M 180,70" />
<path stroke="#663399" stroke-width="2" d="M 180,30 180,70" />
<path stroke="#663399" stroke-width="2" d="M 186.6,70" />
<path stroke="#663399" stroke-width="2" d="M 186.6,70" />
<path stroke="#663399" stroke-width="2" d="M 186.6,20 186.6,40 186.6,34 186.6,33.1 186.7,32.3 186.9,31.4 187.1,30.6 187.4,29.7 187.7,28.9 188.2,28.2 188.7,27.5 189.2,26.8 189.9,26.2 190.5,25.6 191.2,25.1 192,24.7 192.8,24.3 193.6,24 194.5,23.8 195.3,23.6 196.2,23.6" />
<path stroke="#663399" stroke-width="2" d="M 226.2,70" />
<path stroke="#663399" stroke-width="2" d="M 246.2,30 246.2,70 226.2,70" />
<path stroke="#663399" stroke-width="2" d="M 252.8,70" />
<path stroke="#663399" stroke-width="2" d="M 252.8,20 252.8,40 258.5,34.3" />
<path stroke="#663399" stroke-width="2" d="M 265.2,70" />
<path stroke="#663399" stroke-width="2" d="M 265.2,20 265.2,20.7 265.2,21.4 265.4,22.1 265.5,22.8 265.8,23.4 266.1,24 266.4,24.6 266.8,25.2 267.3,25.8 267.8,26.2 268.3,26.7 268.9,27.1 269.5,27.4 270.1,27.7 270.8,28 271.4,28.2 272.1,28.3 272.8,28.3 273.5,28.3 274.2,28.3 274.9,28.2 275.6,28 276.2,27.7 276.9,27.4 277.5,27.1 278,26.7 278.6,26.2 279.1,25.8 279.5,25.2 279.9,24.6 280.3,24 280.6,23.4 280.8,22.8 281,22.1 281.1,21.4 281.2,20.7" />
<path stroke="#663399" stroke-width="2" d="M 287.8,70" />
<path stroke="#663399" stroke-width="2" d="M 287.8,20 288.7,20 289.6,20.1 290.4,20.2 291.3,20.5 292.1,20.8 292.9,21.1 293.6,21.6 294.3,22.1 295,22.6 295.6,23.2 296.2,23.9 296.7,24.6 297.1,25.4 297.5,26.2 297.8,27 298,27.8 298.2,28.7 298.3,29.6 298.3,30.4 298.2,31.3 298,32.2 297.8,33 297.5,33.8 297.1,34.6 296.7,35.4 296.2,36.1 295.6,36.7 295,37.4 294.3,37.9 293.6,38.4 292.9,38.9 292.1,39.2 291.3,39.5 290.4,39.8 289.6,39.9 288.7,40" />
<path stroke="#663399" stroke-width="2" d="M 328.3,70" />
<path stroke="#663399" stroke-width="2" d="M 333.3,30 328.3,30 328.3,50 328.3,70 328.3,64 328.3,63.1 328.3,62.3 328.5,61.4 328.7,60.6 329,59.7 329.4,58.9 329.8,58.2 330.3,57.5 330.9,56.8 331.5,56.2 332.2,55.6 332.9,55.1 333.6,54.7 334.4,54.3 335.2,54 336.1,53.8 336.9,53.6 337.8,53.6" />
<path stroke="#663399" stroke-width="2" d="M 344.5,70" />
<path stroke="#663399" stroke-width="2" d="M 344.5,50 344.5,70 350.1,64.3 370.1,64.3" />
<path stroke="#663399" stroke-width="2" d="M 400.1,70" />
<path stroke="#663399" stroke-width="2" d="M 410.1,30 409.3,30 408.4,30.1 407.5,30.2 406.7,30.5 405.9,30.8 405.1,31.1 404.3,31.6 403.6,32.1 402.9,32.6 402.3,33.2 401.8,33.9 401.3,34.6 400.8,35.4 400.5,36.2 400.2,37 399.9,37.8 399.8,38.7 399.7,39.6 399.7,40.4 399.8,41.3 399.9,42.2 400.2,43 400.5,43.8 400.8,44.6 401.3,45.4 401.8,46.1 402.3,46.7 402.9,47.4 403.6,47.9 404.3,48.4 405.1,48.9 405.9,49.2 406.7,49.5 407.5,49.8 408.4,49.9 409.3,50 414.3,50 414.3,70" />
<path stroke="#663399" stroke-width="2" d="M 444.3,70" />
<path stroke="#663399" stroke-width="2" d="M 444.3,50 451.9,31.5 459.6,50 459.6,50.4 459.5,50.9 459.4,51.3 459.3,51.7 459.2,52.1 459,52.5 458.8,52.9 458.5,53.3 458.3,53.6 457.9,53.9 457.6,54.2 457.3,54.4 456.9,54.7 456.5,54.8 456.1,55 455.7,55.1 455.2,55.2 454.8,55.2 454.4,55.2 453.9,55.2 453.5,55.1 453.1,55 452.7,54.8 452.3,54.7 451.9,54.4 451.5,54.2 451.2,53.9 450.9,53.6 450.6,53.3 450.4,52.9 450.1,52.5 449.9,52.1 449.8,51.7 449.7,51.3 449.6,50.9 449.6,50.4 449.6,50 449.6,49.6 449.7,49.1 449.8,48.7 449.9,48.3 450.1,47.9 450.4,47.5 450.6,47.2 450.9,46.8 451.2,46.5 451.5,46.3 451.9,46 452.3,45.8 452.7,45.6 453.1,45.4 453.5,45.3 453.9,45.3 454.4,45.2 454.8,45.2 455.2,45.3 455.7,45.3 456.1,45.4 456.5,45.6 456.9,45.8 457.3,46 457.6,46.3 457.9,46.5 458.3,46.8 458.5,47.2 458.8,47.5 459,47.9 459.2,48.3 459.3,48.7 459.4,49.1 459.5,49.6 459.6,50 459.6,65" />
<path stroke="#663399" stroke-width="2" d="M 466.2,70" />
<path stroke="#663399" stroke-width="2" d="M 466.2,70" />
<path stroke="#663399" stroke-width="2" d="M 466.2,30 466.2,30.7 466.3,31.4 466.4,32.1 466.6,32.8 466.8,33.4 467.1,34 467.5,34.6 467.9,35.2 468.3,35.8 468.8,36.2 469.4,36.7 469.9,37.1 470.5,37.4 471.2,37.7 471.8,38 472.5,38.2 473.2,38.3 473.9,38.3 474.6,38.3 475.3,38.3 476,38.2 476.6,38 477.3,37.7 477.9,37.4 478.5,37.1 479.1,36.7 479.6,36.2 480.1,35.8 480.6,35.2 481,34.6 481.3,34 481.6,33.4 481.9,32.8 482,32.1 482.2,31.4 482.2,30.7" />
<path stroke="#663399" stroke-width="2" d="M 488.9,70" />
<path stroke="#663399" stroke-width="2" d="M 488.9,50 508.9,50" />
<path stroke="#663399" stroke-width="2" d="M 515.5,70" />
<path stroke="#663399" stroke-width="2" d="M 515.5,70" />
<path stroke="#663399" stroke-width="2" d="M 538.9,70" />
<path stroke="#663399" stroke-width="2" d="M 538.9,30 542.7,39.2" />
<path stroke="#663399" stroke-width="2" d="M 542.7,39.2 544.6,41.4 545.9,43.3 546.7,45 547,46.4 546.9,47.7 546.5,48.7 545.8,49.5 544.9,50 543.8,50.4 542.7,50.5 541.6,50.4 540.5,50 539.6,49.5 538.9,48.7 538.5,47.7 538.4,46.4 538.7,45 539.5,43.3 540.8,41.4 542.7,39.2 546.5,30 547.1,30 547.6,30 548.1,30.1 548.6,30.3 549.1,30.5 549.6,30.7 550,30.9 550.4,31.2 550.9,31.6 551.2,31.9 551.6,32.3 551.9,32.8 552.1,33.2 552.3,33.7 552.5,34.2 552.7,34.7 552.7,35.2 552.8,35.7 552.8,36.3 552.7,36.8 552.7,37.3 552.5,37.8 552.3,38.3 552.1,38.8 551.9,39.2 551.6,39.6 551.2,40 550.9,40.4 550.4,40.8 550,41.1 549.6,41.3 549.1,41.5 548.6,41.7 548.1,41.9 547.6,41.9 547.1,42 546.5,42 546,41.9 545.5,41.9 545,41.7 544.5,41.5 544,41.3 543.6,41.1 543.1,40.8 542.7,40.4 542.4,40 542,39.6 541.7,39.2 541.5,38.8 541.3,38.3 541.1,37.8 540.9,37.3 540.8,36.8 540.8,36.3 540.8,35.7 540.8,35.2 540.9,34.7 541.1,34.2 541.3,33.7 541.5,33.2 541.7,32.8 542,32.3 542.4,31.9 542.7,31.6 543.1,31.2 543.6,30.9 544,30.7 544.5,30.5 545,30.3 545.5,30.1 546,30 546.5,30 564.5,30" />
<path stroke="#663399" stroke-width="2" d="M 571.2,70" />
<path stroke="#663399" stroke-width="2" d="M 571.2,50 591.2,50" />
<path stroke="#663399" stroke-width="2" d="M 621.2,70" />
<path stroke="#663399" stroke-width="2" d="M 621.2,50 628.9,31.5 636.5,50" />
<path stroke="#663399" stroke-width="2" d="M 666.5,70" />
<path stroke="#663399" stroke-width="2" d="M 676.5,30 668.9,48.5 668.9,68.5 668.9,62.5 668.9,61.6 668.9,60.7 669.1,59.9 669.3,59 669.6,58.2 670,57.4 670.4,56.7 670.9,56 671.5,55.3 672.1,54.7 672.8,54.1 673.5,53.6 674.2,53.2 675,52.8 675.8,52.5 676.7,52.3 677.5,52.1 678.4,52.1" />
<path stroke="#663399" stroke-width="2" d="M 685.1,70" />
<path stroke="#663399" stroke-width="2" d="M 685.1,70" />
<path stroke="#663399" stroke-width="2" d="M 685.1,50 685.1,70 685.1,70.7 685.1,71.4 685.3,72.1 685.4,72.8 685.7,73.4 686,74 686.3,74.6 686.7,75.2 687.2,75.8 687.7,76.2 688.2,76.7 688.8,77.1 689.4,77.4 690,77.7 690.7,78 691.3,78.2 692,78.3 692.7,78.3 693.4,78.3 694.1,78.3 694.8,78.2 695.5,78 696.1,77.7 696.8,77.4 697.4,77.1 697.9,76.7 698.5,76.2 699,75.8 699.4,75.2 699.8,74.6 700.2,74 700.5,73.4 700.7,72.8 700.9,72.1 701,71.4 701.1,70.7" />
<path stroke="#663399" stroke-width="2" d="M 707.7,70" />
<path stroke="#663399" stroke-width="2" d="M 707.7,20 708.6,20 709.5,20.1 710.3,20.2 711.2,20.5 712,20.8 712.8,21.1 713.5,21.6 714.3,22.1 714.9,22.6 715.5,23.2 716.1,23.9 716.6,24.6 717,25.4 717.4,26.2 717.7,27 717.9,27.8 718.1,28.7 718.2,29.6 718.2,30.4 718.1,31.3 717.9,32.2 717.7,33 717.4,33.8 717,34.6 716.6,35.4 716.1,36.1 715.5,36.7 714.9,37.4 714.3,37.9 713.5,38.4 712.8,38.9 712,39.2 711.2,39.5 710.3,39.8 709.5,39.9 708.6,40" />
<path stroke="#663399" stroke-width="2" d="M 748.2,70" />
<path stroke="#663399" stroke-width="2" d="M 748.2,30 748.2,50 748.2,70 748.2,64 748.2,63.1 748.2,62.3 748.4,61.4 748.6,60.6 748.9,59.7 749.3,58.9 749.7,58.2 750.2,57.5 750.8,56.8 751.4,56.2 752.1,55.6 752.8,55.1 753.5,54.7 754.3,54.3 755.1,54 756,53.8 756.8,53.6 757.7,53.6" />
<path stroke="#663399" stroke-width="2" d="M 764.4,70" />
<path stroke="#663399" stroke-width="2" d="M 764.4,50 764.4,70 770,64.3" />
<path stroke="#663399" stroke-width="2" d="M 800,70" />
</svg>