<svg xmlns="http://www.w3.org/2000/svg" width="637.9397871989037" height="93.04481869954853" style="fill:none; stroke-linecap:round;">
    <rect width="100%" height="100%" fill="#FFFFFF" />
<path stroke="#000000" stroke-width="2" d="M 375,75" />
<path stroke="#000000" stroke-width="2" d="M 20,70 20.2,70 20.2,70.2 20,70.2 20,70" />
<path stroke="#000000" stroke-width="2" d="M 26.9,70" />
<path stroke="#000000" stroke-width="2" d="M 26.9,40 27.5,40.6 28.2,41.2 28.9,41.7 29.6,42.1 30.4,42.5 31.2,42.8 32.1,43 32.9,43.2 33.8,43.2 34.7,43.2 35.5,43.2 36.4,43 37.2,42.8 38.1,42.5 38.9,42.1 39.6,41.7 40.3,41.2 41,40.6 41.6,40 42.2,39.3 42.7,38.6 43.1,37.9 43.5,37.1 43.8,36.3 44,35.4 44.2,34.5 44.2,33.7 44.2,32.8 44.2,31.9 44,31.1 43.8,30.2 43.5,29.4 43.1,28.6 42.7,27.9 42.2,27.2 41.6,26.5 41,25.9 40.3,25.3 39.6,24.8 38.9,24.4 38.1,24 37.2,23.7 36.4,23.5 35.5,23.3 34.7,23.3 33.8,23.3 32.9,23.3 32.1,23.5 31.2,23.7 30.4,24 29.6,24.4 28.9,24.8 28.2,25.3 27.5,25.9 26.9,26.5 26.3,27.2 25.8,27.9 25.4,28.6 25,29.4 24.7,30.2 24.5,31.1 24.3,31.9 24.2,32.8 24.2,33.7 24.3,34.5 24.5,35.4 24.7,36.3 25,37.1 25.4,37.9 25.8,38.6 26.3,39.3 26.9,40 26.9,70" />
<path stroke="#000000" stroke-width="2" d="M 50.9,70" />
<path stroke="#000000" stroke-width="2" d="M 50.9,50 70.9,50 71.2,50.3 71.5,50.6 71.9,50.8 72.3,51.1 72.7,51.2 73.1,51.4 73.5,51.5 73.9,51.6 74.4,51.6 74.8,51.6 75.2,51.6 75.7,51.5 76.1,51.4 76.5,51.2 76.9,51.1 77.3,50.8 77.6,50.6 78,50.3 78.3,50 78.5,49.7 78.8,49.3 79,48.9 79.2,48.5 79.4,48.1 79.5,47.7 79.5,47.3 79.6,46.8 79.6,46.4 79.5,46 79.5,45.5 79.4,45.1 79.2,44.7 79,44.3 78.8,43.9 78.5,43.6 78.3,43.2 78,42.9 77.6,42.7 77.3,42.4 76.9,42.2 76.5,42 76.1,41.9 75.7,41.7 75.2,41.7 74.8,41.6 74.4,41.6 73.9,41.7 73.5,41.7 73.1,41.9 72.7,42 72.3,42.2 71.9,42.4 71.5,42.7 71.2,42.9 70.9,43.2 70.6,43.6 70.4,43.9 70.1,44.3 70,44.7 69.8,45.1 69.7,45.5 69.6,46 69.6,46.4 69.6,46.8 69.6,47.3 69.7,47.7 69.8,48.1 70,48.5 70.1,48.9 70.4,49.3 70.6,49.7 70.9,50 70.9,65" />
<path stroke="#000000" stroke-width="2" d="M 109.6,70" />
<path stroke="#000000" stroke-width="2" d="M 119.6,30 118.7,30 117.8,30.1 117,30.2 116.1,30.5 115.3,30.8 114.5,31.1 113.8,31.6 113.1,32.1 112.4,32.6 111.8,33.2 111.2,33.9 110.7,34.6 110.3,35.4 109.9,36.2 109.6,37 109.4,37.8 109.2,38.7 109.2,39.6 109.2,40.4 109.2,41.3 109.4,42.2 109.6,43 109.9,43.8 110.3,44.6 110.7,45.4 111.2,46.1 111.8,46.7 112.4,47.4 113.1,47.9 113.8,48.4 114.5,48.9 115.3,49.2 116.1,49.5 117,49.8 117.8,49.9 118.7,50 123.7,50 123.7,70" />
<path stroke="#000000" stroke-width="2" d="M 153.7,70" />
<path stroke="#000000" stroke-width="2" d="M 153.7,70 169,33 169,73 169,61 169,59.3 169.2,57.6 169.5,55.8 169.9,54.2 170.5,52.5 171.3,50.9 172.1,49.4 173.1,48 174.2,46.7 175.5,45.4 176.8,44.3 178.2,43.3 179.8,42.4 181.3,41.7 183,41.1" />
<path stroke="#000000" stroke-width="2" d="M 189.6,70" />
<path stroke="#000000" stroke-width="2" d="M 189.6,70 201.1,42.3 201.4,42.5 201.6,42.8 201.9,43 202.2,43.1 202.5,43.3 202.9,43.4 203.2,43.5 203.6,43.5 203.9,43.6 204.3,43.6 204.6,43.5 204.9,43.5 205.3,43.4 205.6,43.3 205.9,43.1 206.2,43 206.5,42.8 206.8,42.5 207,42.3 207.2,42 207.4,41.7 207.6,41.4 207.8,41.1 207.9,40.8 208,40.4 208,40.1 208.1,39.8 208.1,39.4 208,39.1 208,38.7 207.9,38.4 207.8,38.1 207.6,37.7 207.4,37.4 207.2,37.1 207,36.9 206.8,36.6 206.5,36.4 206.2,36.2 205.9,36 205.6,35.9 205.3,35.8 204.9,35.7 204.6,35.6 204.3,35.6 203.9,35.6 203.6,35.6 203.2,35.7 202.9,35.8 202.5,35.9 202.2,36 201.9,36.2 201.6,36.4 201.4,36.6 201.1,36.9 200.9,37.1 200.7,37.4 200.5,37.7 200.4,38.1 200.3,38.4 200.2,38.7 200.1,39.1 200.1,39.4 200.1,39.8 200.1,40.1 200.2,40.4 200.3,40.8 200.4,41.1 200.5,41.4 200.7,41.7 200.9,42 201.1,42.3 201.1,72.3" />
<path stroke="#000000" stroke-width="2" d="M 238.1,70" />
<path stroke="#000000" stroke-width="2" d="M 248.1,50 248.9,50 249.8,49.9 250.7,49.8 251.5,49.5 252.3,49.2 253.1,48.9 253.9,48.4 254.6,47.9 255.3,47.4 255.9,46.8 256.4,46.1 256.9,45.4 257.4,44.6 257.7,43.8 258,43 258.3,42.2 258.4,41.3 258.5,40.4 258.5,39.6 258.4,38.7 258.3,37.8 258,37 257.7,36.2 257.4,35.4 256.9,34.6 256.4,33.9 255.9,33.3 255.3,32.6 254.6,32.1 253.9,31.6 253.1,31.1 252.3,30.8 251.5,30.5 250.7,30.2 249.8,30.1 248.9,30 248.1,30 247.2,30.1 246.3,30.2 245.5,30.5 244.7,30.8 243.9,31.1 243.1,31.6 242.4,32.1 241.8,32.6 241.1,33.3 240.6,33.9 240.1,34.6 239.6,35.4 239.3,36.2 239,37 238.7,37.8 238.6,38.7 238.5,39.6 238.5,40.4 238.6,41.3 238.7,42.2 239,43 239.3,43.8 239.6,44.6 240.1,45.4 240.6,46.1 241.1,46.8 241.8,47.4 242.4,47.9 243.1,48.4 243.9,48.9 244.7,49.2 245.5,49.5 246.3,49.8 247.2,49.9 248.1,50 248.1,70 248.1,64 248.1,63.1 248.1,62.3 248.3,61.4 248.5,60.6 248.8,59.7 249.2,58.9 249.6,58.2 250.1,57.5 250.7,56.8 251.3,56.2 252,55.6 252.7,55.1 253.4,54.7 254.2,54.3 255.1,54 255.9,53.8 256.8,53.6 257.6,53.6" />
<path stroke="#000000" stroke-width="2" d="M 288.5,70" />
<path stroke="#000000" stroke-width="2" d="M 288.5,30 288.5,70 299.8,58.7" />
<path stroke="#000000" stroke-width="2" d="M 306.5,70" />
<path stroke="#000000" stroke-width="2" d="M 306.5,25 306.8,25.3 307.1,25.6 307.5,25.8 307.9,26.1 308.3,26.2 308.7,26.4 309.1,26.5 309.5,26.6 309.9,26.6 310.4,26.6 310.8,26.6 311.2,26.5 311.7,26.4 312.1,26.2 312.5,26.1 312.9,25.8 313.2,25.6 313.5,25.3 313.9,25 314.1,24.7 314.4,24.3 314.6,23.9 314.8,23.5 314.9,23.1 315,22.7 315.1,22.3 315.2,21.8 315.2,21.4 315.1,21 315,20.5 314.9,20.1 314.8,19.7 314.6,19.3 314.4,18.9 314.1,18.6 313.9,18.2 313.5,17.9 313.2,17.7 312.9,17.4 312.5,17.2 312.1,17 311.7,16.9 311.2,16.7 310.8,16.7 310.4,16.6 309.9,16.6 309.5,16.7 309.1,16.7 308.7,16.9 308.3,17 307.9,17.2 307.5,17.4 307.1,17.7 306.8,17.9 306.5,18.2 306.2,18.6 305.9,18.9 305.7,19.3 305.5,19.7 305.4,20.1 305.3,20.5 305.2,21 305.2,21.4 305.2,21.8 305.2,22.3 305.3,22.7 305.4,23.1 305.5,23.5 305.7,23.9 305.9,24.3 306.2,24.7 306.5,25 306.5,40" />
<path stroke="#000000" stroke-width="2" d="M 345.2,70" />
<path stroke="#000000" stroke-width="2" d="M 345.2,50 352.8,31.5 372.8,31.5" />
<path stroke="#000000" stroke-width="2" d="M 402.8,70" />
<path stroke="#000000" stroke-width="2" d="M 402.8,50 410.5,31.5 410.5,51.5 406.5,51.5" />
<path stroke="#000000" stroke-width="2" d="M 440.5,70" />
<path stroke="#000000" stroke-width="2" d="M 440.5,30 444.3,39.2" />
<path stroke="#000000" stroke-width="2" d="M 444.3,39.2 446.2,41.4 447.5,43.3 448.3,45 448.6,46.4 448.5,47.7 448.1,48.7 447.4,49.5 446.5,50 445.4,50.4 444.3,50.5 443.2,50.4 442.1,50 441.2,49.5 440.5,48.7 440.1,47.7 440,46.4 440.3,45 441.1,43.3 442.4,41.4 444.3,39.2 448.1,30 468.1,30 469,30 469.9,30.1 470.7,30.2 471.6,30.5 472.4,30.8 473.2,31.1 473.9,31.6 474.6,32.1 475.3,32.6 475.9,33.2 476.5,33.9 477,34.6 477.4,35.4 477.8,36.2 478.1,37 478.3,37.8 478.5,38.7 478.5,39.6 478.5,40.4 478.5,41.3 478.3,42.2 478.1,43 477.8,43.8 477.4,44.6 477,45.4 476.5,46.1 475.9,46.7 475.3,47.4 474.6,47.9 473.9,48.4 473.2,48.9 472.4,49.2 471.6,49.5 470.7,49.8 469.9,49.9 469,50 469.6,49.4 470.3,48.8 471,48.3 471.7,47.9 472.5,47.5 473.4,47.2 474.2,47 475.1,46.8 475.9,46.7 476.8,46.7 477.7,46.8 478.5,47 479.4,47.2 480.2,47.5 481,47.9" />
<path stroke="#000000" stroke-width="2" d="M 487.7,70" />
<path stroke="#000000" stroke-width="2" d="M 487.7,20 495.3,38.5 496.2,38.5 497,38.6 497.9,38.7 498.7,38.9 499.6,39.2 500.4,39.6 501.1,40 501.8,40.5 502.5,41.1 503.1,41.7 503.7,42.4 504.2,43.1 504.6,43.9 505,44.6 505.3,45.5 505.5,46.3 505.7,47.2 505.7,48 505.7,48.9 505.7,49.8 505.5,50.6 505.3,51.5 505,52.3 504.6,53.1 504.2,53.8 503.7,54.6 503.1,55.2 502.5,55.8 501.8,56.4 501.1,56.9 500.4,57.3 499.6,57.7 498.7,58 497.9,58.2 497,58.4 496.2,58.5" />
<path stroke="#000000" stroke-width="2" d="M 535.7,70" />
<path stroke="#000000" stroke-width="2" d="M 545.7,30 544.9,30 544,30.1 543.1,30.2 542.3,30.5 541.5,30.8 540.7,31.1 539.9,31.6 539.2,32.1 538.5,32.6 537.9,33.2 537.4,33.9 536.9,34.6 536.4,35.4 536.1,36.2 535.8,37 535.5,37.8 535.4,38.7 535.3,39.6 535.3,40.4 535.4,41.3 535.5,42.2 535.8,43 536.1,43.8 536.4,44.6 536.9,45.4 537.4,46.1 537.9,46.7 538.5,47.4 539.2,47.9 539.9,48.4 540.7,48.9 541.5,49.2 542.3,49.5 543.1,49.8 544,49.9 544.9,50 549.9,50 549.9,70" />
<path stroke="#000000" stroke-width="2" d="M 579.9,70" />
<path stroke="#000000" stroke-width="2" d="M 579.9,50 587.5,31.5 607.5,31.5 608.4,31.5 609.3,31.6 610.1,31.7 611,32 611.8,32.3 612.6,32.6 613.3,33.1 614,33.6 614.7,34.1 615.3,34.8 615.9,35.4 616.4,36.1 616.8,36.9 617.2,37.7 617.5,38.5 617.7,39.3 617.9,40.2 617.9,41.1 617.9,41.9 617.9,42.8 617.7,43.7 617.5,44.5 617.2,45.3 616.8,46.1 616.4,46.9 615.9,47.6 615.3,48.3 614.7,48.9 614,49.4 613.3,49.9 612.6,50.4 611.8,50.8 611,51.1 610.1,51.3 609.3,51.4 608.4,51.5" />
<path stroke="#000000" stroke-width="2" d="M 647.9,70" />
</svg>