<svg xmlns="http://www.w3.org/2000/svg" width="616.9969757085643" height="90.8" style="fill:none; stroke-linecap:round;">
    <rect width="100%" height="100%" fill="#FFFFFF" />
<path stroke="#000000" stroke-width="2" d="M 375,75" />
<path stroke="#000000" stroke-width="2" d="M 20,30 20,31.4 20.1,32.8 20.4,34.2 20.7,35.5 21.2,36.8 21.8,38.1 22.5,39.3 23.3,40.4 24.2,41.5 25.2,42.5 26.2,43.4 27.4,44.2 28.6,44.9 29.9,45.5 31.2,46 32.5,46.3 33.9,46.6 35.3,46.7 36.7,46.7 38.1,46.6 39.4,46.3 40.8,46 42.1,45.5 43.4,44.9 44.6,44.2 45.7,43.4 46.8,42.5 47.8,41.5 48.7,40.4 49.5,39.3 50.2,38.1 50.8,36.8 51.2,35.5 51.6,34.2 51.8,32.8 52,31.4" />
<path stroke="#000000" stroke-width="2" d="M 58.6,70" />
<path stroke="#000000" stroke-width="2" d="M 68.6,20 61,38.5" />
<path stroke="#000000" stroke-width="2" d="M 98.6,70" />
<path stroke="#000000" stroke-width="2" d="M 98.6,30 113.9,67" />
<path stroke="#000000" stroke-width="2" d="M 120.6,70" />
<path stroke="#000000" stroke-width="2" d="M 120.6,20 120.8,20 120.8,20.2 120.6,20.2 120.6,20" />
<path stroke="#000000" stroke-width="2" d="M 150.8,70" />
<path stroke="#000000" stroke-width="2" d="M 170.8,30 155.5,67" />
<path stroke="#000000" stroke-width="2" d="M 177.5,70" />
<path stroke="#000000" stroke-width="2" d="M 177.5,20 177.5,20.7 177.5,21.4 177.7,22.1 177.8,22.8 178.1,23.4 178.4,24 178.7,24.6 179.1,25.2 179.6,25.8 180.1,26.2 180.6,26.7 181.2,27.1 181.8,27.4 182.4,27.7 183.1,28 183.7,28.2 184.4,28.3 185.1,28.3 185.8,28.3 186.5,28.3 187.2,28.2 187.9,28 188.5,27.7 189.2,27.4 189.8,27.1 190.3,26.7 190.9,26.2 191.4,25.8 191.8,25.2 192.2,24.6 192.6,24 192.9,23.4 193.1,22.8 193.3,22.1 193.4,21.4 193.5,20.7" />
<path stroke="#000000" stroke-width="2" d="M 223.5,70" />
<path stroke="#000000" stroke-width="2" d="M 227.5,30 244.4,47" />
<path stroke="#000000" stroke-width="2" d="M 261.4,30 221.8,69.6" />
<path stroke="#000000" stroke-width="2" d="M 268.1,70" />
<path stroke="#000000" stroke-width="2" d="M 268.1,50 268.3,50 268.3,50.2 268.1,50.2 268.1,50" />
<path stroke="#000000" stroke-width="2" d="M 298.3,70" />
<path stroke="#000000" stroke-width="2" d="M 308.3,30 307.4,30 306.5,30.1 305.7,30.2 304.8,30.5 304,30.8 303.2,31.1 302.5,31.6 301.7,32.1 301.1,32.6 300.5,33.2 299.9,33.9 299.4,34.6 299,35.4 298.6,36.2 298.3,37 298.1,37.8 297.9,38.7 297.8,39.6 297.8,40.4 297.9,41.3 298.1,42.2 298.3,43 298.6,43.8 299,44.6 299.4,45.4 299.9,46.1 300.5,46.7 301.1,47.4 301.7,47.9 302.5,48.4 303.2,48.9 304,49.2 304.8,49.5 305.7,49.8 306.5,49.9 307.4,50 312.4,50 312.4,70" />
<path stroke="#000000" stroke-width="2" d="M 342.4,70" />
<path stroke="#000000" stroke-width="2" d="M 342.4,70 342.6,70 342.6,70.2 342.4,70.2 342.4,70" />
<path stroke="#000000" stroke-width="2" d="M 349.3,70" />
<path stroke="#000000" stroke-width="2" d="M 349.3,30" />
<path stroke="#000000" stroke-width="2" d="M 349.3,30 352.1,30.3 354.7,31.1 356.9,32.4 358.9,34.2 360.5,36.2 361.9,38.6 362.9,41.3 363.7,44.1 364.1,47 364.3,50 364.1,53 363.7,55.9 362.9,58.7 361.9,61.4 360.5,63.8 358.9,65.8 356.9,67.6 354.7,68.9 352.1,69.7 349.3,70" />
<path stroke="#000000" stroke-width="2" d="M 370.9,70" />
<path stroke="#000000" stroke-width="2" d="M 370.9,25" />
<path stroke="#000000" stroke-width="2" d="M 370.9,25 373,24.9 374.6,24.6 375.8,24.1 376.7,23.6 377.3,22.9 377.5,22.2 377.6,21.4 377.4,20.7 377.1,20 376.6,19.4 375.9,18.9 375.3,18.5 374.5,18.3 373.8,18.4 373,18.7 372.4,19.2 371.8,20.1 371.3,21.4 371,23 370.9,25 370.9,40" />
<path stroke="#000000" stroke-width="2" d="M 407.6,70" />
<path stroke="#000000" stroke-width="2" d="M 417.6,30 416.7,30 415.8,30.1 415,30.2 414.1,30.5 413.3,30.8 412.5,31.1 411.8,31.6 411.1,32.1 410.4,32.6 409.8,33.2 409.2,33.9 408.7,34.6 408.3,35.4 407.9,36.2 407.6,37 407.4,37.8 407.2,38.7 407.2,39.6 407.2,40.4 407.2,41.3 407.4,42.2 407.6,43 407.9,43.8 408.3,44.6 408.7,45.4 409.2,46.1 409.8,46.7 410.4,47.4 411.1,47.9 411.8,48.4 412.5,48.9 413.3,49.2 414.1,49.5 415,49.8 415.8,49.9 416.7,50 421.7,50 421.7,70" />
<path stroke="#000000" stroke-width="2" d="M 451.7,70" />
<path stroke="#000000" stroke-width="2" d="M 467.7,30 447.9,49.8 467.7,69.6" />
<path stroke="#000000" stroke-width="2" d="M 474.4,70" />
<path stroke="#000000" stroke-width="2" d="M 474.4,30 474.6,30 474.6,30.2 474.4,30.2 474.4,30" />
<path stroke="#000000" stroke-width="2" d="M 504.6,70" />
<path stroke="#000000" stroke-width="2" d="M 504.6,50 512.2,31.5" />
<path stroke="#000000" stroke-width="2" d="M 512.2,31.5 513.7,31.7 514.9,32.1 516.1,32.7 517,33.6 517.9,34.6 518.5,35.8 519.1,37.2 519.4,38.6 519.7,40 519.7,41.5 519.7,43 519.4,44.5 519.1,45.9 518.5,47.2 517.9,48.4 517,49.4 516.1,50.3 514.9,51 513.7,51.4 512.2,51.5 519.9,70 527.5,51.5" />
<path stroke="#000000" stroke-width="2" d="M 534.2,70" />
<path stroke="#000000" stroke-width="2" d="M 534.2,20 554.2,20 564.1,29.9 554.2,39.8 554.8,39.2 555.5,38.6 556.2,38.1 557,37.7 557.8,37.3 558.6,37 559.4,36.8 560.3,36.6 561.1,36.6 562,36.6 562.9,36.6 563.7,36.8 564.6,37 565.4,37.3 566.2,37.7" />
<path stroke="#000000" stroke-width="2" d="M 596.2,70" />
<path stroke="#000000" stroke-width="2" d="M 596.2,30 596.2,62" />
<path stroke="#000000" stroke-width="2" d="M 596.2,70 597,70 597,70.8 596.2,70.8 596.2,70" />
<path stroke="#000000" stroke-width="2" d="M 627,70" />
</svg>