<svg xmlns="http://www.w3.org/2000/svg" width="626.6108529912365" height="110.67887462948254" style="fill:none; stroke-linecap:round;">
    <rect width="100%" height="100%" fill="#FFFFFF" />
<path stroke="#000000" stroke-width="2" d="M 375,75" />
<path stroke="#000000" stroke-width="2" d="M 20,70 31.5,42.3" />
<path stroke="#000000" stroke-width="2" d="M 31.5,42.3 27.4,42.1 24.2,41.5 21.7,40.6 20,39.4 18.8,38.1 18.3,36.6 18.2,35.1 18.5,33.6 19.2,32.3 20.2,31 21.5,30 22.8,29.3 24.3,29 25.8,29.1 27.3,29.6 28.6,30.8 29.8,32.5 30.7,35 31.3,38.2 31.5,42.3 31.5,72.3" />
<path stroke="#000000" stroke-width="2" d="M 38.1,70" />
<path stroke="#000000" stroke-width="2" d="M 38.1,30 38.1,30.7 38.2,31.4 38.3,32.1 38.5,32.8 38.7,33.4 39,34 39.4,34.6 39.8,35.2 40.2,35.8 40.7,36.2 41.3,36.7 41.8,37.1 42.4,37.4 43.1,37.7 43.7,38 44.4,38.2 45.1,38.3 45.8,38.3 46.5,38.3 47.2,38.3 47.9,38.2 48.5,38 49.2,37.7 49.8,37.4 50.4,37.1 51,36.7 51.5,36.2 52,35.8 52.5,35.2 52.9,34.6 53.2,34 53.5,33.4 53.8,32.8 53.9,32.1 54.1,31.4 54.1,30.7" />
<path stroke="#000000" stroke-width="2" d="M 60.8,70" />
<path stroke="#000000" stroke-width="2" d="M 60.8,50 80.8,50" />
<path stroke="#000000" stroke-width="2" d="M 87.5,70" />
<path stroke="#000000" stroke-width="2" d="M 87.5,70 102.8,33 118.1,70" />
<path stroke="#000000" stroke-width="2" d="M 148.1,70" />
<path stroke="#000000" stroke-width="2" d="M 148.1,30 151.9,39.2" />
<path stroke="#000000" stroke-width="2" d="M 151.9,39.2 153.8,41.4 155.1,43.3 155.9,45 156.2,46.4 156.1,47.7 155.7,48.7 155,49.5 154.1,50 153,50.4 151.9,50.5 150.8,50.4 149.7,50 148.8,49.5 148.1,48.7 147.7,47.7 147.6,46.4 147.9,45 148.7,43.3 150,41.4 151.9,39.2 155.7,30" />
<path stroke="#000000" stroke-width="2" d="M 155.7,30 155.6,32 155.3,33.6 154.9,34.9 154.3,35.8 153.6,36.3 152.9,36.6 152.2,36.7 151.4,36.5 150.7,36.1 150.1,35.6 149.6,35 149.3,34.3 149.1,33.6 149.1,32.8 149.4,32.1 150,31.4 150.9,30.9 152.1,30.4 153.7,30.1 155.7,30 165.7,30" />
<path stroke="#000000" stroke-width="2" d="M 172.4,70" />
<path stroke="#000000" stroke-width="2" d="M 172.4,50 192.4,50" />
<path stroke="#000000" stroke-width="2" d="M 222.4,70" />
<path stroke="#000000" stroke-width="2" d="M 222.4,40 222.6,40 222.6,40.2 222.4,40.2 222.4,40" />
<path stroke="#000000" stroke-width="2" d="M 229.3,70" />
<path stroke="#000000" stroke-width="2" d="M 249.3,30 234,67 238.6,55.9 239.2,54.3 240,52.7 241,51.2 242,49.9 243.2,48.6 244.5,47.4 245.9,46.3 247.3,45.4 248.9,44.6 250.5,43.9 252.2,43.4 253.9,43" />
<path stroke="#000000" stroke-width="2" d="M 260.5,70" />
<path stroke="#000000" stroke-width="2" d="M 260.5,50 260.5,70 260.5,70.7 260.6,71.4 260.7,72.1 260.9,72.8 261.1,73.4 261.4,74 261.8,74.6 262.2,75.2 262.6,75.8 263.1,76.2 263.7,76.7 264.2,77.1 264.8,77.4 265.5,77.7 266.1,78 266.8,78.2 267.5,78.3 268.2,78.3 268.9,78.3 269.6,78.3 270.3,78.2 270.9,78 271.6,77.7 272.2,77.4 272.8,77.1 273.4,76.7 273.9,76.2 274.4,75.8 274.9,75.2 275.3,74.6 275.6,74 275.9,73.4 276.2,72.8 276.3,72.1 276.5,71.4 276.5,70.7 277.4,70.7 278.3,70.8 279.1,70.9 280,71.2 280.8,71.4 281.6,71.8 282.3,72.3 283,72.8 283.7,73.3 284.3,73.9 284.9,74.6 285.4,75.3 285.8,76.1 286.2,76.9 286.5,77.7 286.7,78.5 286.9,79.4 287,80.3 287,81.1 286.9,82 286.7,82.9 286.5,83.7 286.2,84.5 285.8,85.3 285.4,86.1 284.9,86.8 284.3,87.4 283.7,88.1 283,88.6 282.3,89.1 281.6,89.6 280.8,89.9 280,90.2 279.1,90.5 278.3,90.6 277.4,90.7" />
<path stroke="#000000" stroke-width="2" d="M 317,70" />
<path stroke="#000000" stroke-width="2" d="M 317,30 317,70 317,62 317,60.3 317.1,58.5 317.4,56.8 317.9,55.1 318.5,53.5 319.2,51.9 320.1,50.4 321.1,49 322.2,47.6 323.4,46.4 324.8,45.3 326.2,44.3" />
<path stroke="#000000" stroke-width="2" d="M 332.9,70" />
<path stroke="#000000" stroke-width="2" d="M 332.9,50 332.9,70 338.5,64.3" />
<path stroke="#000000" stroke-width="2" d="M 368.5,70" />
<path stroke="#000000" stroke-width="2" d="M 368.5,70 368.7,70 368.7,70.2 368.5,70.2 368.5,70" />
<path stroke="#000000" stroke-width="2" d="M 398.7,70" />
<path stroke="#000000" stroke-width="2" d="M 398.7,30 398.7,50 408.7,50 401.1,68.5" />
<path stroke="#000000" stroke-width="2" d="M 438.7,70" />
<path stroke="#000000" stroke-width="2" d="M 438.7,30 438.7,50 448.7,50" />
<path stroke="#000000" stroke-width="2" d="M 448.7,50 450.7,49.9 452.4,49.6 453.6,49.1 454.5,48.6 455,47.9 455.3,47.2 455.4,46.4 455.2,45.7 454.8,45 454.3,44.4 453.7,43.9 453,43.5 452.3,43.3 451.5,43.4 450.8,43.7 450.1,44.2 449.6,45.1 449.1,46.4 448.8,48 448.7,50 448.7,65" />
<path stroke="#000000" stroke-width="2" d="M 485.4,70" />
<path stroke="#000000" stroke-width="2" d="M 485.4,30 485.4,70 505.4,70" />
<path stroke="#000000" stroke-width="2" d="M 535.4,70" />
<path stroke="#000000" stroke-width="2" d="M 535.4,70" />
<path stroke="#000000" stroke-width="2" d="M 535.4,70 536.5,70 537.5,70.2 538.3,70.4 539,70.7 539.6,71 540,71.5 540.3,71.9 540.5,72.5 540.6,73.1 540.6,73.8 540.5,74.4 540.3,75.2 539.9,76 539.5,76.8 539,77.6 538.4,78.4 537.8,79.3 537,80.2 536.2,81.1 535.4,82" />
<path stroke="#000000" stroke-width="2" d="M 570.6,70" />
<path stroke="#000000" stroke-width="2" d="M 586.6,30 566.8,49.8 586.6,69.6" />
<path stroke="#000000" stroke-width="2" d="M 593.3,70" />
<path stroke="#000000" stroke-width="2" d="M 593.3,40" />
<path stroke="#000000" stroke-width="2" d="M 593.3,40 597.4,39.8 600.6,39.2 603.1,38.3 604.8,37.1 606,35.8 606.5,34.3 606.6,32.8 606.3,31.4 605.6,30 604.6,28.8 603.3,27.7 601.9,27 600.5,26.7 599,26.8 597.5,27.3 596.2,28.5 595,30.2 594.1,32.7 593.5,35.9 593.3,40 593.3,70" />
<path stroke="#000000" stroke-width="2" d="M 636.6,70" />
</svg>