<svg xmlns="http://www.w3.org/2000/svg" width="634.7133247056412" height="109.79898987322333" style="fill:none; stroke-linecap:round;">
    <rect width="100%" height="100%" fill="#F3F3F7" />
<path stroke="#663399" stroke-width="2" d="M 375,75" />
<path stroke="#663399" stroke-width="2" d="M 25,30 20,30 20,50 10.1,59.9 20,69.8 20,89.8 20,83.8 20,82.9 20.1,82.1 20.2,81.2 20.5,80.4 20.8,79.5 21.1,78.7 21.6,78 22.1,77.3 22.6,76.6 23.2,76 23.9,75.4 24.6,74.9 25.4,74.5 26.2,74.1 27,73.8 27.8,73.6 28.7,73.4 29.6,73.4" />
<path stroke="#663399" stroke-width="2" d="M 36.2,70" />
<path stroke="#663399" stroke-width="2" d="M 36.2,50 56.2,50" />
<path stroke="#663399" stroke-width="2" d="M 62.9,70" />
<path stroke="#663399" stroke-width="2" d="M 67.9,30 62.9,30 62.9,50 62.9,50.7 62.9,51.4 63.1,52.1 63.3,52.8 63.5,53.4 63.8,54 64.1,54.6 64.5,55.2 65,55.8 65.5,56.2 66,56.7 66.6,57.1 67.2,57.4 67.8,57.7 68.5,58 69.1,58.2 69.8,58.3 70.5,58.3 71.2,58.3 71.9,58.3 72.6,58.2 73.3,58 73.9,57.7 74.6,57.4 75.2,57.1 75.8,56.7 76.3,56.2 76.8,55.8 77.2,55.2 77.6,54.6 78,54 78.3,53.4 78.5,52.8 78.7,52.1 78.8,51.4 78.9,50.7" />
<path stroke="#663399" stroke-width="2" d="M 85.5,70" />
<path stroke="#663399" stroke-width="2" d="M 85.5,20 85.5,40 85.5,34 85.5,33.1 85.6,32.3 85.8,31.4 86,30.6 86.3,29.7 86.7,28.9 87.1,28.2 87.6,27.5 88.2,26.8 88.8,26.2 89.4,25.6 90.2,25.1 90.9,24.7 91.7,24.3 92.5,24 93.4,23.8 94.2,23.6 95.1,23.6" />
<path stroke="#663399" stroke-width="2" d="M 125.1,70" />
<path stroke="#663399" stroke-width="2" d="M 125.1,30 125.1,70 136.4,58.7" />
<path stroke="#663399" stroke-width="2" d="M 143.1,70" />
<path stroke="#663399" stroke-width="2" d="M 166.4,70" />
<path stroke="#663399" stroke-width="2" d="M 166.4,50 174.1,31.5 181.7,50 181.7,50.7 181.8,51.4 181.9,52.1 182.1,52.8 182.3,53.4 182.6,54 183,54.6 183.4,55.2 183.8,55.8 184.3,56.2 184.8,56.7 185.4,57.1 186,57.4 186.6,57.7 187.3,58 188,58.2 188.7,58.3 189.4,58.3 190.1,58.3 190.8,58.3 191.4,58.2 192.1,58 192.8,57.7 193.4,57.4 194,57.1 194.6,56.7 195.1,56.2 195.6,55.8 196.1,55.2 196.5,54.6 196.8,54 197.1,53.4 197.3,52.8 197.5,52.1 197.6,51.4 197.7,50.7" />
<path stroke="#663399" stroke-width="2" d="M 204.4,70" />
<path stroke="#663399" stroke-width="2" d="M 204.4,50 224.4,50" />
<path stroke="#663399" stroke-width="2" d="M 231,70" />
<path stroke="#663399" stroke-width="2" d="M 254.4,70" />
<path stroke="#663399" stroke-width="2" d="M 264.4,30 254.4,30 254.4,70" />
<path stroke="#663399" stroke-width="2" d="M 271,70" />
<path stroke="#663399" stroke-width="2" d="M 271,20 291,20" />
<path stroke="#663399" stroke-width="2" d="M 321,70" />
<path stroke="#663399" stroke-width="2" d="M 341,30 325.7,67" />
<path stroke="#663399" stroke-width="2" d="M 347.7,70" />
<path stroke="#663399" stroke-width="2" d="M 347.7,20 347.7,20.7 347.8,21.4 347.9,22.1 348.1,22.8 348.3,23.4 348.6,24 348.9,24.6 349.3,25.2 349.8,25.8 350.3,26.2 350.8,26.7 351.4,27.1 352,27.4 352.6,27.7 353.3,28 354,28.2 354.6,28.3 355.3,28.3 356,28.3 356.7,28.3 357.4,28.2 358.1,28 358.8,27.7 359.4,27.4 360,27.1 360.6,26.7 361.1,26.2 361.6,25.8 362,25.2 362.4,24.6 362.8,24 363.1,23.4 363.3,22.8 363.5,22.1 363.6,21.4 363.7,20.7" />
<path stroke="#663399" stroke-width="2" d="M 393.7,70" />
<path stroke="#663399" stroke-width="2" d="M 413.7,70 415.4,70 417.2,69.8 418.9,69.5 420.6,69.1 422.2,68.5 423.8,67.8 425.3,66.9 426.7,65.9 428.1,64.8 429.3,63.5 430.4,62.2 431.4,60.8 432.3,59.3 433,57.7 433.6,56 434.1,54.3 434.4,52.6 434.5,50.9 434.5,49.1 434.4,47.4 434.1,45.7 433.6,44 433,42.4 432.3,40.8 431.4,39.3 430.4,37.8 429.3,36.5 428.1,35.3 426.7,34.2 425.3,33.2 423.8,32.3 422.2,31.5 420.6,30.9 418.9,30.5 417.2,30.2 415.4,30 413.7,30 411.9,30.2 410.2,30.5 408.5,30.9 406.9,31.5 405.3,32.3 403.8,33.2 402.4,34.2 401,35.3 399.8,36.5 398.7,37.8 397.7,39.3 396.8,40.8 396.1,42.4 395.5,44 395,45.7 394.7,47.4 394.6,49.1 394.6,50.9 394.7,52.6 395,54.3 395.5,56 396.1,57.7 396.8,59.3 397.7,60.8 398.7,62.2 399.8,63.5 401,64.8 402.4,65.9 403.8,66.9 405.3,67.8 406.9,68.5 408.5,69.1 410.2,69.5 411.9,69.8 413.7,70" />
<path stroke="#663399" stroke-width="2" d="M 441.2,70" />
<path stroke="#663399" stroke-width="2" d="M 464.5,70" />
<path stroke="#663399" stroke-width="2" d="M 474.5,30 473.7,30 472.8,30.1 471.9,30.2 471.1,30.5 470.3,30.8 469.5,31.1 468.7,31.6 468,32.1 467.3,32.6 466.7,33.2 466.2,33.9 465.7,34.6 465.2,35.4 464.9,36.2 464.6,37 464.3,37.8 464.2,38.7 464.1,39.6 464.1,40.4 464.2,41.3 464.3,42.2 464.6,43 464.9,43.8 465.2,44.6 465.7,45.4 466.2,46.1 466.7,46.7 467.3,47.4 468,47.9 468.7,48.4 469.5,48.9 470.3,49.2 471.1,49.5 471.9,49.8 472.8,49.9 473.7,50 478.7,50 478.7,70" />
<path stroke="#663399" stroke-width="2" d="M 508.7,70" />
<path stroke="#663399" stroke-width="2" d="M 524.7,30 504.9,49.8 524.7,69.6" />
<path stroke="#663399" stroke-width="2" d="M 531.3,70" />
<path stroke="#663399" stroke-width="2" d="M 531.3,40 531.9,40.6 532.6,41.2 533.3,41.7 534.1,42.1 534.9,42.5 535.7,42.8 536.5,43 537.4,43.2 538.3,43.2 539.1,43.2 540,43.2 540.9,43 541.7,42.8 542.5,42.5 543.3,42.1 544.1,41.7 544.8,41.2 545.5,40.6 546.1,40 546.6,39.3 547.1,38.6 547.6,37.9 547.9,37.1 548.2,36.3 548.5,35.4 548.6,34.5 548.7,33.7 548.7,32.8 548.6,31.9 548.5,31.1 548.2,30.2 547.9,29.4 547.6,28.6 547.1,27.9 546.6,27.2 546.1,26.5 545.5,25.9 544.8,25.3 544.1,24.8 543.3,24.4 542.5,24 541.7,23.7 540.9,23.5 540,23.3 539.1,23.3 538.3,23.3 537.4,23.3 536.5,23.5 535.7,23.7 534.9,24 534.1,24.4 533.3,24.8 532.6,25.3 531.9,25.9 531.3,26.5 530.8,27.2 530.3,27.9 529.8,28.6 529.5,29.4 529.2,30.2 528.9,31.1 528.8,31.9 528.7,32.8 528.7,33.7 528.8,34.5 528.9,35.4 529.2,36.3 529.5,37.1 529.8,37.9 530.3,38.6 530.8,39.3 531.3,40 531.3,70" />
<path stroke="#663399" stroke-width="2" d="M 578.7,70" />
<path stroke="#663399" stroke-width="2" d="M 578.7,40 579.3,40.6 580,41.2 580.7,41.7 581.5,42.1 582.2,42.5 583.1,42.8 583.9,43 584.8,43.2 585.6,43.2 586.5,43.2 587.4,43.2 588.2,43 589.1,42.8 589.9,42.5 590.7,42.1 591.4,41.7 592.2,41.2 592.8,40.6 593.4,40 594,39.3 594.5,38.6 594.9,37.9 595.3,37.1 595.6,36.3 595.8,35.4 596,34.5 596.1,33.7 596.1,32.8 596,31.9 595.8,31.1 595.6,30.2 595.3,29.4 594.9,28.6 594.5,27.9 594,27.2 593.4,26.5 592.8,25.9 592.2,25.3 591.4,24.8 590.7,24.4 589.9,24 589.1,23.7 588.2,23.5 587.4,23.3 586.5,23.3 585.6,23.3 584.8,23.3 583.9,23.5 583.1,23.7 582.2,24 581.5,24.4 580.7,24.8 580,25.3 579.3,25.9 578.7,26.5 578.1,27.2 577.6,27.9 577.2,28.6 576.8,29.4 576.5,30.2 576.3,31.1 576.2,31.9 576.1,32.8 576.1,33.7 576.2,34.5 576.3,35.4 576.5,36.3 576.8,37.1 577.2,37.9 577.6,38.6 578.1,39.3 578.7,40 578.7,70" />
<path stroke="#663399" stroke-width="2" d="M 602.7,70" />
<path stroke="#663399" stroke-width="2" d="M 602.7,20 602.7,24 602.7,24.5 602.8,25 602.9,25.6 603,26.1 603.2,26.6 603.4,27 603.7,27.5 604,27.9 604.3,28.3 604.7,28.7 605.1,29 605.5,29.3 605.9,29.6 606.4,29.8 606.9,30 607.4,30.1 607.9,30.2 608.5,30.3 609,30.3 609.5,30.2 610,30.1 610.5,30 611,29.8 611.5,29.6 611.9,29.3 612.4,29 612.8,28.7 613.1,28.3 613.5,27.9 613.8,27.5 614,27 614.3,26.6 614.4,26.1 614.6,25.6 614.7,25 614.7,24.5 614.7,19.5 614.7,39.5" />
<path stroke="#663399" stroke-width="2" d="M 621.4,70" />
<path stroke="#663399" stroke-width="2" d="M 644.7,70" />
</svg>