<svg xmlns="http://www.w3.org/2000/svg" width="735.459748249293" height="102.0" style="fill:none; stroke-linecap:round;">
    <rect width="100%" height="100%" fill="#FFFFFF" />
<path stroke="#000000" stroke-width="2" d="M 375,75" />
<path stroke="#000000" stroke-width="2" d="M 20,30 23.8,39.2" />
<path stroke="#000000" stroke-width="2" d="M 23.8,39.2 25.8,41.4 27.1,43.3 27.8,45 28.1,46.4 28,47.7 27.6,48.7 26.9,49.5 26,50 24.9,50.4 23.8,50.5 22.7,50.4 21.7,50 20.8,49.5 20,48.7 19.6,47.7 19.5,46.4 19.8,45 20.6,43.3 21.9,41.4 23.8,39.2 27.7,30 47.7,30 40,48.5" />
<path stroke="#000000" stroke-width="2" d="M 54.3,70" />
<path stroke="#000000" stroke-width="2" d="M 54.3,50 54.7,50 54.7,50.4 54.3,50.4 54.3,50" />
<path stroke="#000000" stroke-width="2" d="M 84.7,70" />
<path stroke="#000000" stroke-width="2" d="M 104.7,70 106.5,70 108.2,69.8 109.9,69.5 111.6,69.1 113.2,68.5 114.8,67.8 116.3,66.9 117.8,65.9 119.1,64.8 120.3,63.5 121.5,62.2 122.5,60.8 123.3,59.3 124.1,57.7 124.7,56 125.1,54.3 125.4,52.6 125.6,50.9 125.6,49.1 125.4,47.4 125.1,45.7 124.7,44 124.1,42.4 123.3,40.8 122.5,39.3 121.5,37.8 120.3,36.5 119.1,35.3 117.8,34.2 116.3,33.2 114.8,32.3 113.2,31.5 111.6,30.9 109.9,30.5 108.2,30.2 106.5,30 104.7,30 103,30.2 101.3,30.5 99.6,30.9 97.9,31.5 96.4,32.3 94.8,33.2 93.4,34.2 92.1,35.3 90.8,36.5 89.7,37.8 88.7,39.3 87.9,40.8 87.1,42.4 86.5,44 86.1,45.7 85.8,47.4 85.6,49.1 85.6,50.9 85.8,52.6 86.1,54.3 86.5,56 87.1,57.7 87.9,59.3 88.7,60.8 89.7,62.2 90.8,63.5 92.1,64.8 93.4,65.9 94.8,66.9 96.4,67.8 97.9,68.5 99.6,69.1 101.3,69.5 103,69.8 104.7,70" />
<path stroke="#000000" stroke-width="2" d="M 132.2,70" />
<path stroke="#000000" stroke-width="2" d="M 132.2,40" />
<path stroke="#000000" stroke-width="2" d="M 132.2,40 136.3,39.8 139.5,39.2 142,38.3 143.8,37.1 144.9,35.8 145.5,34.3 145.5,32.8 145.2,31.4 144.5,30 143.5,28.8 142.3,27.7 140.9,27 139.4,26.7 137.9,26.8 136.5,27.3 135.1,28.5 134,30.2 133.1,32.7 132.5,35.9 132.2,40 132.2,70" />
<path stroke="#000000" stroke-width="2" d="M 175.5,70" />
<path stroke="#000000" stroke-width="2" d="M 175.5,42 176.3,42 176.3,42.8 175.5,42.8 175.5,42" />
<path stroke="#000000" stroke-width="2" d="M 175.5,58 176.3,58 176.3,58.8 175.5,58.8 175.5,58" />
<path stroke="#000000" stroke-width="2" d="M 206.3,70" />
<path stroke="#000000" stroke-width="2" d="M 216.3,30 206.3,30 206.3,70" />
<path stroke="#000000" stroke-width="2" d="M 223,70" />
<path stroke="#000000" stroke-width="2" d="M 223,50 243,50" />
<path stroke="#000000" stroke-width="2" d="M 249.7,70" />
<path stroke="#000000" stroke-width="2" d="M 249.7,20 269.7,20" />
<path stroke="#000000" stroke-width="2" d="M 299.7,70" />
<path stroke="#000000" stroke-width="2" d="M 299.7,70" />
<path stroke="#000000" stroke-width="2" d="M 299.7,70 300.8,70 301.8,70.2 302.6,70.4 303.3,70.7 303.9,71 304.3,71.5 304.7,71.9 304.9,72.5 305,73.1 304.9,73.8 304.8,74.4 304.6,75.2 304.3,76 303.8,76.8 303.3,77.6 302.8,78.4 302.1,79.3 301.4,80.2 300.6,81.1 299.7,82" />
<path stroke="#000000" stroke-width="2" d="M 335,70" />
<path stroke="#000000" stroke-width="2" d="M 335,30 336.7,30 338.4,30.2 340.2,30.5 341.8,30.9 343.5,31.5 345.1,32.2 346.6,33.1 348,34.1 349.3,35.2 350.6,36.5 351.7,37.8 352.7,39.2 353.6,40.7 354.3,42.3 354.9,44 355.4,45.7 355.7,47.4 355.8,49.1 355.8,50.9 355.7,52.6 355.4,54.3 354.9,56 354.3,57.6 353.6,59.2 352.7,60.7 351.7,62.2 350.6,63.5 349.3,64.7 348,65.8 346.6,66.8 345.1,67.7 343.5,68.5 341.8,69.1 340.2,69.5 338.4,69.8 336.7,70" />
<path stroke="#000000" stroke-width="2" d="M 362.5,70" />
<path stroke="#000000" stroke-width="2" d="M 362.5,25" />
<path stroke="#000000" stroke-width="2" d="M 362.5,25 364.5,24.9 366.1,24.6 367.4,24.1 368.2,23.6 368.8,22.9 369.1,22.2 369.1,21.4 369,20.7 368.6,20 368.1,19.4 367.5,18.9 366.8,18.5 366.1,18.3 365.3,18.4 364.6,18.7 363.9,19.2 363.3,20.1 362.9,21.4 362.6,23 362.5,25 362.5,40 354.8,58.5" />
<path stroke="#000000" stroke-width="2" d="M 375.8,70" />
<path stroke="#000000" stroke-width="2" d="M 375.8,30 395.8,30 396.7,30 397.5,30.1 398.4,30.2 399.2,30.5 400.1,30.8 400.8,31.1 401.6,31.6 402.3,32.1 403,32.6 403.6,33.2 404.2,33.9 404.7,34.6 405.1,35.4 405.5,36.2 405.8,37 406,37.8 406.1,38.7 406.2,39.6 406.2,40.4 406.1,41.3 406,42.2 405.8,43 405.5,43.8 405.1,44.6 404.7,45.4 404.2,46.1 403.6,46.7 403,47.4 402.3,47.9 401.6,48.4 400.8,48.9 400.1,49.2 399.2,49.5 398.4,49.8 397.5,49.9 396.7,50" />
<path stroke="#000000" stroke-width="2" d="M 436.2,70" />
<path stroke="#000000" stroke-width="2" d="M 456.2,30 440.9,67" />
<path stroke="#000000" stroke-width="2" d="M 462.9,70" />
<path stroke="#000000" stroke-width="2" d="M 462.9,50 463.3,50 463.3,50.4 462.9,50.4 462.9,50" />
<path stroke="#000000" stroke-width="2" d="M 493.3,70" />
<path stroke="#000000" stroke-width="2" d="M 493.3,30 493.3,70" />
<path stroke="#000000" stroke-width="2" d="M 500,70" />
<path stroke="#000000" stroke-width="2" d="M 500,20 500,40 500,34 500,33.1 500,32.3 500.2,31.4 500.4,30.6 500.7,29.7 501.1,28.9 501.5,28.2 502,27.5 502.6,26.8 503.2,26.2 503.9,25.6 504.6,25.1 505.3,24.7 506.1,24.3 506.9,24 507.8,23.8 508.6,23.6 509.5,23.6" />
<path stroke="#000000" stroke-width="2" d="M 539.5,70" />
<path stroke="#000000" stroke-width="2" d="M 539.5,70 539.7,70 539.7,70.2 539.5,70.2 539.5,70" />
<path stroke="#000000" stroke-width="2" d="M 546.4,70" />
<path stroke="#000000" stroke-width="2" d="M 566.4,30 566.4,70 546.4,70" />
<path stroke="#000000" stroke-width="2" d="M 573,70" />
<path stroke="#000000" stroke-width="2" d="M 573,50 573,50.7 573.1,51.4 573.2,52.1 573.4,52.8 573.6,53.4 573.9,54 574.3,54.6 574.7,55.2 575.1,55.8 575.6,56.2 576.2,56.7 576.7,57.1 577.3,57.4 578,57.7 578.6,58 579.3,58.2 580,58.3 580.7,58.3 581.4,58.3 582.1,58.3 582.8,58.2 583.4,58 584.1,57.7 584.7,57.4 585.3,57.1 585.9,56.7 586.4,56.2 586.9,55.8 587.4,55.2 587.8,54.6 588.1,54 588.4,53.4 588.7,52.8 588.8,52.1 589,51.4 589,50.7 589.9,50.7 590.8,50.8 591.6,50.9 592.5,51.2 593.3,51.4 594.1,51.8 594.8,52.3 595.6,52.8 596.2,53.3 596.8,53.9 597.4,54.6 597.9,55.3 598.3,56.1 598.7,56.9 599,57.7 599.2,58.5 599.4,59.4 599.5,60.3 599.5,61.1 599.4,62 599.2,62.9 599,63.7 598.7,64.5 598.3,65.3 597.9,66.1 597.4,66.8 596.8,67.4 596.2,68.1 595.6,68.6 594.8,69.1 594.1,69.6 593.3,69.9 592.5,70.2 591.6,70.5 590.8,70.6 589.9,70.7" />
<path stroke="#000000" stroke-width="2" d="M 629.5,70" />
<path stroke="#000000" stroke-width="2" d="M 634.5,30 629.5,30 629.5,50 629.5,70 629.5,64 629.5,63.1 629.5,62.3 629.7,61.4 629.9,60.6 630.2,59.7 630.6,58.9 631,58.2 631.5,57.5 632.1,56.8 632.7,56.2 633.4,55.6 634.1,55.1 634.8,54.7 635.6,54.3 636.4,54 637.3,53.8 638.1,53.6 639,53.6" />
<path stroke="#000000" stroke-width="2" d="M 645.7,70" />
<path stroke="#000000" stroke-width="2" d="M 645.7,50 645.7,70 651.3,64.3 671.3,64.3" />
<path stroke="#000000" stroke-width="2" d="M 701.3,70" />
<path stroke="#000000" stroke-width="2" d="M 711.3,30 710.5,30 709.6,30.1 708.7,30.2 707.9,30.5 707.1,30.8 706.3,31.1 705.5,31.6 704.8,32.1 704.1,32.6 703.5,33.2 703,33.9 702.5,34.6 702,35.4 701.7,36.2 701.4,37 701.1,37.8 701,38.7 700.9,39.6 700.9,40.4 701,41.3 701.1,42.2 701.4,43 701.7,43.8 702,44.6 702.5,45.4 703,46.1 703.5,46.7 704.1,47.4 704.8,47.9 705.5,48.4 706.3,48.9 707.1,49.2 707.9,49.5 708.7,49.8 709.6,49.9 710.5,50 715.5,50 715.5,70" />
<path stroke="#000000" stroke-width="2" d="M 745.5,70" />
</svg>