<svg xmlns="http://www.w3.org/2000/svg" width="754.3386780131607" height="102.0" style="fill:none; stroke-linecap:round;">
    <rect width="100%" height="100%" fill="#FFFFFF" />
<path stroke="#000000" stroke-width="2" d="M 375,75" />
<path stroke="#000000" stroke-width="2" d="M 20,70 20.2,70 20.2,70.2 20,70.2 20,70" />
<path stroke="#000000" stroke-width="2" d="M 26.9,70" />
<path stroke="#000000" stroke-width="2" d="M 26.9,40" />
<path stroke="#000000" stroke-width="2" d="M 26.9,40 30.9,39.8 34.2,39.2 36.6,38.3 38.4,37.1 39.5,35.8 40.1,34.3 40.2,32.8 39.8,31.4 39.1,30 38.1,28.8 36.9,27.7 35.5,27 34,26.7 32.5,26.8 31.1,27.3 29.7,28.5 28.6,30.2 27.7,32.7 27.1,35.9 26.9,40 26.9,70" />
<path stroke="#000000" stroke-width="2" d="M 46.8,70" />
<path stroke="#000000" stroke-width="2" d="M 46.8,50 66.8,50" />
<path stroke="#000000" stroke-width="2" d="M 66.8,50 68.9,49.9 70.5,49.6 71.7,49.1 72.6,48.6 73.2,47.9 73.5,47.2 73.5,46.4 73.3,45.7 73,45 72.5,44.4 71.9,43.9 71.2,43.5 70.4,43.3 69.7,43.4 69,43.7 68.3,44.2 67.7,45.1 67.2,46.4 66.9,48 66.8,50 66.8,65" />
<path stroke="#000000" stroke-width="2" d="M 103.5,70" />
<path stroke="#000000" stroke-width="2" d="M 108.5,30" />
<path stroke="#000000" stroke-width="2" d="M 108.5,30 107.1,30.1 105.8,30.6 104.7,31.2 103.7,32.1 102.9,33.1 102.2,34.3 101.7,35.6 101.3,37 101.1,38.5 101,40 101.1,41.5 101.3,43 101.7,44.4 102.2,45.7 102.9,46.9 103.7,47.9 104.7,48.8 105.8,49.4 107.1,49.9 108.5,50 113.5,50 113.5,70" />
<path stroke="#000000" stroke-width="2" d="M 143.5,70" />
<path stroke="#000000" stroke-width="2" d="M 143.5,70 158.8,33 158.8,73 158.8,61 158.8,59.3 159,57.6 159.3,55.8 159.7,54.2 160.3,52.5 161,50.9 161.9,49.4 162.9,48 164,46.7 165.3,45.4 166.6,44.3 168,43.3 169.5,42.4 171.1,41.7 172.8,41.1" />
<path stroke="#000000" stroke-width="2" d="M 179.4,70" />
<path stroke="#000000" stroke-width="2" d="M 179.4,70 190.9,42.3" />
<path stroke="#000000" stroke-width="2" d="M 190.9,42.3 195,42.1 198.2,41.5 200.7,40.6 202.4,39.4 203.6,38.1 204.1,36.6 204.2,35.1 203.9,33.6 203.2,32.3 202.2,31 200.9,30 199.6,29.3 198.1,29 196.6,29.1 195.1,29.6 193.8,30.8 192.6,32.5 191.7,35 191.1,38.2 190.9,42.3 190.9,72.3" />
<path stroke="#000000" stroke-width="2" d="M 234.2,70" />
<path stroke="#000000" stroke-width="2" d="M 234.2,70" />
<path stroke="#000000" stroke-width="2" d="M 234.2,70 235.4,70 236.3,70.2 237.2,70.4 237.9,70.7 238.4,71 238.9,71.5 239.2,71.9 239.4,72.5 239.5,73.1 239.5,73.8 239.3,74.4 239.1,75.2 238.8,76 238.4,76.8 237.9,77.6 237.3,78.4 236.6,79.3 235.9,80.2 235.1,81.1 234.2,82" />
<path stroke="#000000" stroke-width="2" d="M 269.5,70" />
<path stroke="#000000" stroke-width="2" d="M 279.5,50 280.4,50 281.2,49.9 282.1,49.8 282.9,49.5 283.8,49.2 284.6,48.9 285.3,48.4 286,47.9 286.7,47.4 287.3,46.8 287.9,46.1 288.4,45.4 288.8,44.6 289.2,43.8 289.5,43 289.7,42.2 289.8,41.3 289.9,40.4 289.9,39.6 289.8,38.7 289.7,37.8 289.5,37 289.2,36.2 288.8,35.4 288.4,34.6 287.9,33.9 287.3,33.3 286.7,32.6 286,32.1 285.3,31.6 284.6,31.1 283.8,30.8 282.9,30.5 282.1,30.2 281.2,30.1 280.4,30 279.5,30 278.6,30.1 277.8,30.2 276.9,30.5 276.1,30.8 275.3,31.1 274.6,31.6 273.8,32.1 273.2,32.6 272.6,33.3 272,33.9 271.5,34.6 271.1,35.4 270.7,36.2 270.4,37 270.2,37.8 270,38.7 269.9,39.6 269.9,40.4 270,41.3 270.2,42.2 270.4,43 270.7,43.8 271.1,44.6 271.5,45.4 272,46.1 272.6,46.8 273.2,47.4 273.8,47.9 274.6,48.4 275.3,48.9 276.1,49.2 276.9,49.5 277.8,49.8 278.6,49.9 279.5,50 279.5,70 279.5,64 279.5,63.1 279.6,62.3 279.7,61.4 280,60.6 280.3,59.7 280.6,58.9 281.1,58.2 281.6,57.5 282.1,56.8 282.7,56.2 283.4,55.6 284.1,55.1 284.9,54.7 285.7,54.3 286.5,54 287.3,53.8 288.2,53.6 289.1,53.6" />
<path stroke="#000000" stroke-width="2" d="M 319.9,70" />
<path stroke="#000000" stroke-width="2" d="M 319.9,30 319.9,70 331.2,58.7" />
<path stroke="#000000" stroke-width="2" d="M 337.9,70" />
<path stroke="#000000" stroke-width="2" d="M 337.9,25" />
<path stroke="#000000" stroke-width="2" d="M 337.9,25 339.9,24.9 341.6,24.6 342.8,24.1 343.7,23.6 344.2,22.9 344.5,22.2 344.6,21.4 344.4,20.7 344,20 343.5,19.4 342.9,18.9 342.2,18.5 341.5,18.3 340.7,18.4 340,18.7 339.3,19.2 338.8,20.1 338.3,21.4 338,23 337.9,25 337.9,40" />
<path stroke="#000000" stroke-width="2" d="M 374.6,70" />
<path stroke="#000000" stroke-width="2" d="M 374.6,70 389.9,33 429.9,33" />
<path stroke="#000000" stroke-width="2" d="M 459.9,70" />
<path stroke="#000000" stroke-width="2" d="M 459.9,70 475.2,33 475.2,73 467.2,73" />
<path stroke="#000000" stroke-width="2" d="M 505.2,70" />
<path stroke="#000000" stroke-width="2" d="M 505.2,30" />
<path stroke="#000000" stroke-width="2" d="M 505.2,30 505.3,30 505.7,30 506.4,30 507.3,30.1 508.3,30.2 509.5,30.3 510.8,30.4 512.2,30.6 513.7,30.9 515.2,31.2 516.7,31.7 518.1,32.2 519.5,32.7 520.9,33.4 522,34.2 523.1,35.1 524,36.1 524.6,37.3 525,38.6 525.2,40" />
<path stroke="#000000" stroke-width="2" d="M 525.2,40 527.1,42.1 528.4,44.1 529.2,45.7 529.5,47.2 529.4,48.4 529,49.4 528.2,50.2 527.3,50.8 526.3,51.1 525.2,51.2 524.1,51.1 523,50.8 522.1,50.2 521.4,49.5 521,48.4 520.9,47.2 521.2,45.7 521.9,44.1 523.3,42.1 525.2,40" />
<path stroke="#000000" stroke-width="2" d="M 525.2,40 525.2,39.9 525.2,39.7 525.2,39.4 525.3,39 525.5,38.4 525.7,37.8 526,37.2 526.5,36.5 527,35.7 527.7,35 528.5,34.3 529.5,33.5 530.7,32.8 532,32.2 533.6,31.6 535.4,31 537.5,30.6 539.8,30.3 542.3,30.1 545.2,30 565.2,30" />
<path stroke="#000000" stroke-width="2" d="M 565.2,30 566.6,30.1 567.9,30.6 569,31.2 570,32.1 570.8,33.1 571.5,34.3 572,35.6 572.4,37 572.6,38.5 572.7,40 572.6,41.5 572.4,43 572,44.4 571.5,45.7 570.8,46.9 570,47.9 569,48.8 567.9,49.4 566.6,49.9 565.2,50 565.8,49.4 566.5,48.8 567.2,48.3 567.9,47.9 568.7,47.5 569.5,47.2 570.4,47 571.2,46.8 572.1,46.8 573,46.8 573.9,46.8 574.7,47 575.6,47.2 576.4,47.5 577.2,47.9" />
<path stroke="#000000" stroke-width="2" d="M 583.8,70" />
<path stroke="#000000" stroke-width="2" d="M 583.8,20 591.5,38.5" />
<path stroke="#000000" stroke-width="2" d="M 591.5,38.5 592.9,38.6 594.2,39 595.3,39.7 596.3,40.6 597.1,41.6 597.8,42.8 598.3,44.1 598.7,45.5 598.9,47 599,48.5 598.9,50 598.7,51.4 598.3,52.8 597.8,54.2 597.1,55.4 596.3,56.4 595.3,57.3 594.2,57.9 592.9,58.3 591.5,58.5" />
<path stroke="#000000" stroke-width="2" d="M 629,70" />
<path stroke="#000000" stroke-width="2" d="M 634,30" />
<path stroke="#000000" stroke-width="2" d="M 634,30 632.6,30.1 631.3,30.6 630.2,31.2 629.2,32.1 628.4,33.1 627.7,34.3 627.2,35.6 626.8,37 626.6,38.5 626.5,40 626.6,41.5 626.8,43 627.2,44.4 627.7,45.7 628.4,46.9 629.2,47.9 630.2,48.8 631.3,49.4 632.6,49.9 634,50 639,50 639,70" />
<path stroke="#000000" stroke-width="2" d="M 669,70" />
<path stroke="#000000" stroke-width="2" d="M 669,70 669.2,70 669.2,70.2 669,70.2 669,70" />
<path stroke="#000000" stroke-width="2" d="M 699.2,70" />
<path stroke="#000000" stroke-width="2" d="M 699.2,50 706.8,31.5 726.8,31.5" />
<path stroke="#000000" stroke-width="2" d="M 726.8,31.5 728.3,31.7 729.5,32.1 730.7,32.7 731.6,33.6 732.5,34.6 733.1,35.8 733.7,37.2 734,38.6 734.3,40 734.3,41.5 734.3,43 734,44.5 733.7,45.9 733.1,47.2 732.5,48.4 731.6,49.4 730.7,50.3 729.5,51 728.3,51.4 726.8,51.5" />
<path stroke="#000000" stroke-width="2" d="M 764.3,70" />
</svg>