<svg xmlns="http://www.w3.org/2000/svg" width="555.3794056782979" height="90.2" style="fill:none; stroke-linecap:round;">
    <rect width="100%" height="100%" fill="#FFFFFF" />
<path stroke="#000000" stroke-width="2" d="M 375,75" />
<path stroke="#000000" stroke-width="2" d="M 20,30 20,31.4 20.1,32.8 20.4,34.2 20.7,35.5 21.2,36.8 21.8,38.1 22.5,39.3 23.3,40.4 24.2,41.5 25.2,42.5 26.2,43.4 27.4,44.2 28.6,44.9 29.9,45.5 31.2,46 32.5,46.3 33.9,46.6 35.3,46.7 36.7,46.7 38.1,46.6 39.4,46.3 40.8,46 42.1,45.5 43.4,44.9 44.6,44.2 45.7,43.4 46.8,42.5 47.8,41.5 48.7,40.4 49.5,39.3 50.2,38.1 50.8,36.8 51.2,35.5 51.6,34.2 51.8,32.8 52,31.4" />
<path stroke="#000000" stroke-width="2" d="M 58.6,70" />
<path stroke="#000000" stroke-width="2" d="M 68.6,20 61,38.5" />
<path stroke="#000000" stroke-width="2" d="M 98.6,70" />
<path stroke="#000000" stroke-width="2" d="M 98.6,30 113.9,67" />
<path stroke="#000000" stroke-width="2" d="M 120.6,70" />
<path stroke="#000000" stroke-width="2" d="M 143.9,70" />
<path stroke="#000000" stroke-width="2" d="M 163.9,30 148.6,67" />
<path stroke="#000000" stroke-width="2" d="M 170.6,70" />
<path stroke="#000000" stroke-width="2" d="M 170.6,20 170.6,20.7 170.7,21.4 170.8,22.1 171,22.8 171.2,23.4 171.5,24 171.9,24.6 172.3,25.2 172.7,25.8 173.2,26.2 173.7,26.7 174.3,27.1 174.9,27.4 175.5,27.7 176.2,28 176.9,28.2 177.6,28.3 178.3,28.3 179,28.3 179.6,28.3 180.3,28.2 181,28 181.7,27.7 182.3,27.4 182.9,27.1 183.5,26.7 184,26.2 184.5,25.8 184.9,25.2 185.3,24.6 185.7,24 186,23.4 186.2,22.8 186.4,22.1 186.5,21.4 186.6,20.7" />
<path stroke="#000000" stroke-width="2" d="M 216.6,70" />
<path stroke="#000000" stroke-width="2" d="M 218.6,30 227.1,38.5" />
<path stroke="#000000" stroke-width="2" d="M 235.6,30 215.8,49.8" />
<path stroke="#000000" stroke-width="2" d="M 265.6,70" />
<path stroke="#000000" stroke-width="2" d="M 275.6,30 274.7,30 273.8,30.1 273,30.2 272.1,30.5 271.3,30.8 270.5,31.1 269.8,31.6 269,32.1 268.4,32.6 267.8,33.2 267.2,33.9 266.7,34.6 266.3,35.4 265.9,36.2 265.6,37 265.4,37.8 265.2,38.7 265.1,39.6 265.1,40.4 265.2,41.3 265.4,42.2 265.6,43 265.9,43.8 266.3,44.6 266.7,45.4 267.2,46.1 267.8,46.7 268.4,47.4 269,47.9 269.8,48.4 270.5,48.9 271.3,49.2 272.1,49.5 273,49.8 273.8,49.9 274.7,50 279.7,50 279.7,70" />
<path stroke="#000000" stroke-width="2" d="M 309.7,70" />
<path stroke="#000000" stroke-width="2" d="M 309.7,70 309.9,70 309.9,70.2 309.7,70.2 309.7,70" />
<path stroke="#000000" stroke-width="2" d="M 316.6,70" />
<path stroke="#000000" stroke-width="2" d="M 316.6,30 318.3,30 320,30.2 321.8,30.5 323.4,30.9 325.1,31.5 326.7,32.2 328.2,33.1 329.6,34.1 330.9,35.2 332.2,36.5 333.3,37.8 334.3,39.2 335.2,40.7 335.9,42.3 336.5,44 337,45.7 337.3,47.4 337.4,49.1 337.4,50.9 337.3,52.6 337,54.3 336.5,56 335.9,57.6 335.2,59.2 334.3,60.7 333.3,62.2 332.2,63.5 330.9,64.7 329.6,65.8 328.2,66.8 326.7,67.7 325.1,68.5 323.4,69.1 321.8,69.5 320,69.8 318.3,70" />
<path stroke="#000000" stroke-width="2" d="M 344.1,70" />
<path stroke="#000000" stroke-width="2" d="M 344.1,25 344.4,25.3 344.7,25.6 345.1,25.8 345.5,26.1 345.9,26.2 346.3,26.4 346.7,26.5 347.1,26.6 347.5,26.6 348,26.6 348.4,26.6 348.8,26.5 349.3,26.4 349.7,26.2 350.1,26.1 350.5,25.8 350.8,25.6 351.1,25.3 351.5,25 351.7,24.7 352,24.3 352.2,23.9 352.4,23.5 352.5,23.1 352.6,22.7 352.7,22.3 352.8,21.8 352.8,21.4 352.7,21 352.6,20.5 352.5,20.1 352.4,19.7 352.2,19.3 352,18.9 351.7,18.6 351.5,18.2 351.1,17.9 350.8,17.7 350.5,17.4 350.1,17.2 349.7,17 349.3,16.9 348.8,16.7 348.4,16.7 348,16.6 347.5,16.6 347.1,16.7 346.7,16.7 346.3,16.9 345.9,17 345.5,17.2 345.1,17.4 344.7,17.7 344.4,17.9 344.1,18.2 343.8,18.6 343.5,18.9 343.3,19.3 343.1,19.7 343,20.1 342.9,20.5 342.8,21 342.8,21.4 342.8,21.8 342.8,22.3 342.9,22.7 343,23.1 343.1,23.5 343.3,23.9 343.5,24.3 343.8,24.7 344.1,25 344.1,40" />
<path stroke="#000000" stroke-width="2" d="M 382.8,70" />
<path stroke="#000000" stroke-width="2" d="M 392.8,30 391.9,30 391,30.1 390.2,30.2 389.3,30.5 388.5,30.8 387.7,31.1 387,31.6 386.2,32.1 385.6,32.6 385,33.2 384.4,33.9 383.9,34.6 383.5,35.4 383.1,36.2 382.8,37 382.6,37.8 382.4,38.7 382.3,39.6 382.3,40.4 382.4,41.3 382.6,42.2 382.8,43 383.1,43.8 383.5,44.6 383.9,45.4 384.4,46.1 385,46.7 385.6,47.4 386.2,47.9 387,48.4 387.7,48.9 388.5,49.2 389.3,49.5 390.2,49.8 391,49.9 391.9,50 396.9,50 396.9,70" />
<path stroke="#000000" stroke-width="2" d="M 426.9,70" />
<path stroke="#000000" stroke-width="2" d="M 442.9,30 423.1,49.8 442.9,69.6" />
<path stroke="#000000" stroke-width="2" d="M 449.6,70" />
<path stroke="#000000" stroke-width="2" d="M 472.9,70" />
<path stroke="#000000" stroke-width="2" d="M 472.9,50 480.5,31.5 481.4,31.5 482.3,31.6 483.1,31.7 484,32 484.8,32.3 485.6,32.6 486.4,33.1 487.1,33.6 487.7,34.1 488.4,34.8 488.9,35.4 489.4,36.1 489.8,36.9 490.2,37.7 490.5,38.5 490.7,39.3 490.9,40.2 491,41.1 491,41.9 490.9,42.8 490.7,43.7 490.5,44.5 490.2,45.3 489.8,46.1 489.4,46.9 488.9,47.6 488.4,48.3 487.7,48.9 487.1,49.4 486.4,49.9 485.6,50.4 484.8,50.8 484,51.1 483.1,51.3 482.3,51.4 481.4,51.5 489.1,70 496.7,51.5" />
<path stroke="#000000" stroke-width="2" d="M 503.4,70" />
<path stroke="#000000" stroke-width="2" d="M 503.4,20 523.4,20 533.3,29.9 523.4,39.8 524,39.2 524.7,38.6 525.4,38.1 526.1,37.7 526.9,37.3 527.8,37 528.6,36.8 529.5,36.6 530.3,36.6 531.2,36.6 532.1,36.6 532.9,36.8 533.8,37 534.6,37.3 535.4,37.7" />
<path stroke="#000000" stroke-width="2" d="M 542,70" />
<path stroke="#000000" stroke-width="2" d="M 565.4,70" />
</svg>