<svg xmlns="http://www.w3.org/2000/svg" width="630.6926113671168" height="110.67887462948254" style="fill:none; stroke-linecap:round;">
    <rect width="100%" height="100%" fill="#FFFFFF" />
<path stroke="#000000" stroke-width="2" d="M 375,75" />
<path stroke="#000000" stroke-width="2" d="M 20,70 31.5,42.3 31.5,42.6 31.5,43 31.4,43.3 31.3,43.7 31.2,44 31,44.3 30.9,44.6 30.7,44.9 30.4,45.2 30.2,45.4 29.9,45.6 29.6,45.8 29.3,46 29,46.2 28.7,46.3 28.4,46.4 28,46.4 27.7,46.5 27.3,46.5 27,46.4 26.6,46.4 26.3,46.3 26,46.2 25.6,46 25.3,45.8 25,45.6 24.8,45.4 24.5,45.2 24.3,44.9 24.1,44.6 23.9,44.3 23.8,44 23.7,43.7 23.6,43.3 23.5,43 23.5,42.6 23.5,42.3 23.5,41.9 23.6,41.6 23.7,41.3 23.8,40.9 23.9,40.6 24.1,40.3 24.3,40 24.5,39.8 24.8,39.5 25,39.3 25.3,39.1 25.6,38.9 26,38.8 26.3,38.6 26.6,38.6 27,38.5 27.3,38.5 27.7,38.5 28,38.5 28.4,38.6 28.7,38.6 29,38.8 29.3,38.9 29.6,39.1 29.9,39.3 30.2,39.5 30.4,39.8 30.7,40 30.9,40.3 31,40.6 31.2,40.9 31.3,41.3 31.4,41.6 31.5,41.9 31.5,42.3 31.5,72.3" />
<path stroke="#000000" stroke-width="2" d="M 38.1,70" />
<path stroke="#000000" stroke-width="2" d="M 38.1,30 38.1,30.7 38.2,31.4 38.3,32.1 38.5,32.8 38.7,33.4 39,34 39.4,34.6 39.8,35.2 40.2,35.8 40.7,36.2 41.3,36.7 41.8,37.1 42.4,37.4 43.1,37.7 43.7,38 44.4,38.2 45.1,38.3 45.8,38.3 46.5,38.3 47.2,38.3 47.9,38.2 48.5,38 49.2,37.7 49.8,37.4 50.4,37.1 51,36.7 51.5,36.2 52,35.8 52.5,35.2 52.9,34.6 53.2,34 53.5,33.4 53.8,32.8 53.9,32.1 54.1,31.4 54.1,30.7" />
<path stroke="#000000" stroke-width="2" d="M 60.8,70" />
<path stroke="#000000" stroke-width="2" d="M 60.8,50 80.8,50" />
<path stroke="#000000" stroke-width="2" d="M 87.5,70" />
<path stroke="#000000" stroke-width="2" d="M 87.5,70 102.8,33 118.1,70" />
<path stroke="#000000" stroke-width="2" d="M 148.1,70" />
<path stroke="#000000" stroke-width="2" d="M 148.1,30 151.9,39.2" />
<path stroke="#000000" stroke-width="2" d="M 151.9,39.2 153.8,41.4 155.1,43.3 155.9,45 156.2,46.4 156.1,47.7 155.7,48.7 155,49.5 154.1,50 153,50.4 151.9,50.5 150.8,50.4 149.7,50 148.8,49.5 148.1,48.7 147.7,47.7 147.6,46.4 147.9,45 148.7,43.3 150,41.4 151.9,39.2 155.7,30 156.3,30 156.8,30 157.3,30.1 157.8,30.3 158.3,30.5 158.8,30.7 159.2,30.9 159.6,31.2 160,31.6 160.4,31.9 160.8,32.3 161.1,32.8 161.3,33.2 161.5,33.7 161.7,34.2 161.9,34.7 161.9,35.2 162,35.7 162,36.3 161.9,36.8 161.9,37.3 161.7,37.8 161.5,38.3 161.3,38.8 161.1,39.2 160.8,39.6 160.4,40 160,40.4 159.6,40.8 159.2,41.1 158.8,41.3 158.3,41.5 157.8,41.7 157.3,41.9 156.8,41.9 156.3,42 155.7,42 155.2,41.9 154.7,41.9 154.2,41.7 153.7,41.5 153.2,41.3 152.8,41.1 152.3,40.8 151.9,40.4 151.6,40 151.2,39.6 150.9,39.2 150.7,38.8 150.5,38.3 150.3,37.8 150.1,37.3 150,36.8 150,36.3 150,35.7 150,35.2 150.1,34.7 150.3,34.2 150.5,33.7 150.7,33.2 150.9,32.8 151.2,32.3 151.6,31.9 151.9,31.6 152.3,31.2 152.8,30.9 153.2,30.7 153.7,30.5 154.2,30.3 154.7,30.1 155.2,30 155.7,30 173.7,30" />
<path stroke="#000000" stroke-width="2" d="M 180.4,70" />
<path stroke="#000000" stroke-width="2" d="M 180.4,50 200.4,50" />
<path stroke="#000000" stroke-width="2" d="M 230.4,70" />
<path stroke="#000000" stroke-width="2" d="M 230.4,40 230.6,40 230.6,40.2 230.4,40.2 230.4,40" />
<path stroke="#000000" stroke-width="2" d="M 237.3,70" />
<path stroke="#000000" stroke-width="2" d="M 257.3,30 242,67 246.6,55.9 247.2,54.3 248,52.7 249,51.2 250,49.9 251.2,48.6 252.5,47.4 253.9,46.3 255.3,45.4 256.9,44.6 258.5,43.9 260.2,43.4 261.9,43" />
<path stroke="#000000" stroke-width="2" d="M 268.5,70" />
<path stroke="#000000" stroke-width="2" d="M 268.5,50 268.5,70 268.5,70.7 268.6,71.4 268.7,72.1 268.9,72.8 269.1,73.4 269.4,74 269.8,74.6 270.2,75.2 270.6,75.8 271.1,76.2 271.7,76.7 272.2,77.1 272.8,77.4 273.5,77.7 274.1,78 274.8,78.2 275.5,78.3 276.2,78.3 276.9,78.3 277.6,78.3 278.3,78.2 278.9,78 279.6,77.7 280.2,77.4 280.8,77.1 281.4,76.7 281.9,76.2 282.4,75.8 282.9,75.2 283.3,74.6 283.6,74 283.9,73.4 284.2,72.8 284.3,72.1 284.5,71.4 284.5,70.7 285.4,70.7 286.3,70.8 287.1,70.9 288,71.2 288.8,71.4 289.6,71.8 290.3,72.3 291,72.8 291.7,73.3 292.3,73.9 292.9,74.6 293.4,75.3 293.8,76.1 294.2,76.9 294.5,77.7 294.7,78.5 294.9,79.4 295,80.3 295,81.1 294.9,82 294.7,82.9 294.5,83.7 294.2,84.5 293.8,85.3 293.4,86.1 292.9,86.8 292.3,87.4 291.7,88.1 291,88.6 290.3,89.1 289.6,89.6 288.8,89.9 288,90.2 287.1,90.5 286.3,90.6 285.4,90.7" />
<path stroke="#000000" stroke-width="2" d="M 325,70" />
<path stroke="#000000" stroke-width="2" d="M 325,30 325,70 325,62 325,60.3 325.1,58.5 325.4,56.8 325.9,55.1 326.5,53.5 327.2,51.9 328.1,50.4 329.1,49 330.2,47.6 331.4,46.4 332.8,45.3 334.2,44.3" />
<path stroke="#000000" stroke-width="2" d="M 340.9,70" />
<path stroke="#000000" stroke-width="2" d="M 340.9,50 340.9,70 346.5,64.3" />
<path stroke="#000000" stroke-width="2" d="M 376.5,70" />
<path stroke="#000000" stroke-width="2" d="M 376.5,70 376.7,70 376.7,70.2 376.5,70.2 376.5,70" />
<path stroke="#000000" stroke-width="2" d="M 406.7,70" />
<path stroke="#000000" stroke-width="2" d="M 406.7,30 406.7,50 416.7,50 409.1,68.5" />
<path stroke="#000000" stroke-width="2" d="M 446.7,70" />
<path stroke="#000000" stroke-width="2" d="M 446.7,30 446.7,50 456.7,50 457,50.3 457.4,50.6 457.7,50.8 458.1,51.1 458.5,51.2 458.9,51.4 459.3,51.5 459.7,51.6 460.2,51.6 460.6,51.6 461,51.6 461.5,51.5 461.9,51.4 462.3,51.2 462.7,51.1 463.1,50.8 463.4,50.6 463.8,50.3 464.1,50 464.4,49.7 464.6,49.3 464.8,48.9 465,48.5 465.2,48.1 465.3,47.7 465.4,47.3 465.4,46.8 465.4,46.4 465.4,46 465.3,45.5 465.2,45.1 465,44.7 464.8,44.3 464.6,43.9 464.4,43.6 464.1,43.2 463.8,42.9 463.4,42.7 463.1,42.4 462.7,42.2 462.3,42 461.9,41.9 461.5,41.7 461,41.7 460.6,41.6 460.2,41.6 459.7,41.7 459.3,41.7 458.9,41.9 458.5,42 458.1,42.2 457.7,42.4 457.4,42.7 457,42.9 456.7,43.2 456.4,43.6 456.2,43.9 456,44.3 455.8,44.7 455.6,45.1 455.5,45.5 455.4,46 455.4,46.4 455.4,46.8 455.4,47.3 455.5,47.7 455.6,48.1 455.8,48.5 456,48.9 456.2,49.3 456.4,49.7 456.7,50 456.7,65" />
<path stroke="#000000" stroke-width="2" d="M 495.4,70" />
<path stroke="#000000" stroke-width="2" d="M 495.4,30 495.4,50 505.4,50" />
<path stroke="#000000" stroke-width="2" d="M 535.4,70" />
<path stroke="#000000" stroke-width="2" d="M 535.4,70" />
<path stroke="#000000" stroke-width="2" d="M 535.4,70 536.5,70 537.5,70.2 538.3,70.4 539,70.7 539.6,71 540.1,71.5 540.4,71.9 540.6,72.5 540.7,73.1 540.6,73.8 540.5,74.4 540.3,75.2 540,76 539.5,76.8 539,77.6 538.5,78.4 537.8,79.3 537.1,80.2 536.3,81.1 535.4,82" />
<path stroke="#000000" stroke-width="2" d="M 570.7,70" />
<path stroke="#000000" stroke-width="2" d="M 586.7,30 566.9,49.8 586.7,69.6" />
<path stroke="#000000" stroke-width="2" d="M 593.3,70" />
<path stroke="#000000" stroke-width="2" d="M 593.3,40 593.9,40.6 594.6,41.2 595.3,41.7 596.1,42.1 596.9,42.5 597.7,42.8 598.5,43 599.4,43.2 600.3,43.2 601.1,43.2 602,43.2 602.9,43 603.7,42.8 604.5,42.5 605.3,42.1 606.1,41.7 606.8,41.2 607.5,40.6 608.1,40 608.6,39.3 609.1,38.6 609.6,37.9 609.9,37.1 610.2,36.3 610.5,35.4 610.6,34.5 610.7,33.7 610.7,32.8 610.6,31.9 610.5,31.1 610.2,30.2 609.9,29.4 609.6,28.6 609.1,27.9 608.6,27.2 608.1,26.5 607.5,25.9 606.8,25.3 606.1,24.8 605.3,24.4 604.5,24 603.7,23.7 602.9,23.5 602,23.3 601.1,23.3 600.3,23.3 599.4,23.3 598.5,23.5 597.7,23.7 596.9,24 596.1,24.4 595.3,24.8 594.6,25.3 593.9,25.9 593.3,26.5 592.8,27.2 592.3,27.9 591.8,28.6 591.5,29.4 591.2,30.2 590.9,31.1 590.8,31.9 590.7,32.8 590.7,33.7 590.8,34.5 590.9,35.4 591.2,36.3 591.5,37.1 591.8,37.9 592.3,38.6 592.8,39.3 593.3,40 593.3,70" />
<path stroke="#000000" stroke-width="2" d="M 640.7,70" />
</svg>