<svg xmlns="http://www.w3.org/2000/svg" width="710.8755627082434" height="99.98096443163715" style="fill:none; stroke-linecap:round;">
    <rect width="100%" height="100%" fill="#F3F3F7" />
<path stroke="#663399" stroke-width="2" d="M 375,75" />
<path stroke="#663399" stroke-width="2" d="M 20,30 20,70" />
<path stroke="#663399" stroke-width="2" d="M 26.7,70" />
<path stroke="#663399" stroke-width="2" d="M 36.7,20 29,38.5 29,58.5 34.7,52.8" />
<path stroke="#663399" stroke-width="2" d="M 43.3,70" />
<path stroke="#663399" stroke-width="2" d="M 43.3,20 63.3,20" />
<path stroke="#663399" stroke-width="2" d="M 93.3,70" />
<path stroke="#663399" stroke-width="2" d="M 113.3,30 98,67" />
<path stroke="#663399" stroke-width="2" d="M 120,70" />
<path stroke="#663399" stroke-width="2" d="M 120,30 127.7,48.5 128,48.8 128.3,49.1 128.7,49.3 129,49.5 129.4,49.7 129.8,49.9 130.3,50 130.7,50.1 131.1,50.1 131.6,50.1 132,50.1 132.4,50 132.8,49.9 133.3,49.7 133.6,49.5 134,49.3 134.4,49.1 134.7,48.8 135,48.5 135.3,48.1 135.6,47.8 135.8,47.4 136,47 136.1,46.6 136.2,46.2 136.3,45.8 136.3,45.3 136.3,44.9 136.3,44.4 136.2,44 136.1,43.6 136,43.2 135.8,42.8 135.6,42.4 135.3,42.1 135,41.7 134.7,41.4 134.4,41.1 134,40.9 133.6,40.7 133.3,40.5 132.8,40.3 132.4,40.2 132,40.1 131.6,40.1 131.1,40.1 130.7,40.1 130.3,40.2 129.8,40.3 129.4,40.5 129,40.7 128.7,40.9 128.3,41.1 128,41.4 127.7,41.7 127.4,42.1 127.1,42.4 126.9,42.8 126.7,43.2 126.6,43.6 126.5,44 126.4,44.4 126.3,44.9 126.3,45.3 126.4,45.8 126.5,46.2 126.6,46.6 126.7,47 126.9,47.4 127.1,47.8 127.4,48.1 127.7,48.5 127.7,63.5" />
<path stroke="#663399" stroke-width="2" d="M 166.3,70" />
<path stroke="#663399" stroke-width="2" d="M 166.3,30 166.3,70 177.6,58.7" />
<path stroke="#663399" stroke-width="2" d="M 184.3,70" />
<path stroke="#663399" stroke-width="2" d="M 184.3,20 204.3,20" />
<path stroke="#663399" stroke-width="2" d="M 234.3,70" />
<path stroke="#663399" stroke-width="2" d="M 244.3,30 243.4,30 242.6,30.1 241.7,30.2 240.9,30.5 240.1,30.8 239.3,31.1 238.5,31.6 237.8,32.1 237.1,32.6 236.5,33.2 235.9,33.9 235.4,34.6 235,35.4 234.6,36.2 234.3,37 234.1,37.8 234,38.7 233.9,39.6 233.9,40.4 234,41.3 234.1,42.2 234.3,43 234.6,43.8 235,44.6 235.4,45.4 235.9,46.1 236.5,46.7 237.1,47.4 237.8,47.9 238.5,48.4 239.3,48.9 240.1,49.2 240.9,49.5 241.7,49.8 242.6,49.9 243.4,50 243.4,65" />
<path stroke="#663399" stroke-width="2" d="M 243.4,65 243.3,67 243,68.6 242.6,69.9 242,70.7 241.3,71.3 240.6,71.6 239.9,71.6 239.1,71.5 238.4,71.1 237.8,70.6 237.3,70 237,69.3 236.8,68.6 236.8,67.8 237.1,67.1 237.7,66.4 238.6,65.8 239.8,65.4 241.4,65.1 243.4,65 263.4,65 263.8,65.3 264.1,65.6 264.4,65.8 264.8,66 265.2,66.2 265.6,66.4 266,66.5 266.5,66.6 266.9,66.6 267.3,66.6 267.8,66.6 268.2,66.5 268.6,66.4 269,66.2 269.4,66 269.8,65.8 270.2,65.6 270.5,65.3 270.8,65 271.1,64.6 271.3,64.3 271.6,63.9 271.7,63.5 271.9,63.1 272,62.7 272.1,62.3 272.1,61.8 272.1,61.4 272.1,61 272,60.5 271.9,60.1 271.7,59.7 271.6,59.3 271.3,58.9 271.1,58.6 270.8,58.2 270.5,57.9 270.2,57.6 269.8,57.4 269.4,57.2 269,57 268.6,56.8 268.2,56.7 267.8,56.6 267.3,56.6 266.9,56.6 266.5,56.6 266,56.7 265.6,56.8 265.2,57 264.8,57.2 264.4,57.4 264.1,57.6 263.8,57.9 263.4,58.2 263.2,58.6 262.9,58.9 262.7,59.3 262.5,59.7 262.4,60.1 262.2,60.5 262.2,61 262.1,61.4 262.1,61.8 262.2,62.3 262.2,62.7 262.4,63.1 262.5,63.5 262.7,63.9 262.9,64.3 263.2,64.6 263.4,65 263.4,80" />
<path stroke="#663399" stroke-width="2" d="M 302.1,70" />
<path stroke="#663399" stroke-width="2" d="M 302.1,30 303.9,30 305.6,30.2 307.3,30.5 309,30.9 310.7,31.5 312.2,32.2 313.7,33.1 315.2,34.1 316.5,35.2 317.7,36.5 318.9,37.8 319.9,39.2 320.7,40.7 321.5,42.3 322.1,44 322.5,45.7 322.8,47.4 323,49.1 323,50.9 322.8,52.6 322.5,54.3 322.1,56 321.5,57.6 320.7,59.2 319.9,60.7 318.9,62.2 317.7,63.5 316.5,64.7 315.2,65.8 313.7,66.8 312.2,67.7 310.7,68.5 309,69.1 307.3,69.5 305.6,69.8 303.9,70 305.1,68.7 306.4,67.6 307.9,66.6 309.4,65.7 311,65 312.6,64.4 314.3,63.9 316,63.6 317.7,63.5 319.5,63.5 321.2,63.6 322.9,63.9 324.6,64.4 326.3,65 327.9,65.7" />
<path stroke="#663399" stroke-width="2" d="M 334.5,70" />
<path stroke="#663399" stroke-width="2" d="M 334.5,20 354.5,20 354.5,19.3 354.6,18.6 354.7,17.9 354.9,17.2 355.1,16.6 355.4,16 355.8,15.4 356.2,14.8 356.6,14.2 357.1,13.8 357.6,13.3 358.2,12.9 358.8,12.6 359.4,12.3 360.1,12 360.8,11.8 361.5,11.7 362.2,11.7 362.9,11.7 363.6,11.7 364.2,11.8 364.9,12 365.6,12.3 366.2,12.6 366.8,12.9 367.4,13.3 367.9,13.8 368.4,14.2 368.9,14.8 369.3,15.4 369.6,16 369.9,16.6 370.1,17.2 370.3,17.9 370.4,18.6 370.5,19.3" />
<path stroke="#663399" stroke-width="2" d="M 400.5,70" />
<path stroke="#663399" stroke-width="2" d="M 400.5,50 408.2,31.5 415.8,50 408.2,68.5 408.2,69.2 408.2,69.9 408.3,70.6 408.5,71.2 408.8,71.9 409.1,72.5 409.4,73.1 409.8,73.7 410.2,74.2 410.7,74.7 411.3,75.2 411.8,75.6 412.5,75.9 413.1,76.2 413.7,76.5 414.4,76.6 415.1,76.8 415.8,76.8 416.5,76.8 417.2,76.8 417.9,76.6 418.6,76.5 419.2,76.2 419.8,75.9 420.4,75.6 421,75.2 421.6,74.7 422,74.2 422.5,73.7 422.9,73.1 423.2,72.5 423.5,71.9 423.8,71.2 424,70.6 424.1,69.9 424.1,69.2" />
<path stroke="#663399" stroke-width="2" d="M 430.8,70" />
<path stroke="#663399" stroke-width="2" d="M 430.8,20 450.8,20 443.2,38.5" />
<path stroke="#663399" stroke-width="2" d="M 457.5,70" />
<path stroke="#663399" stroke-width="2" d="M 457.5,40 458.1,40.6 458.8,41.2 459.5,41.7 460.2,42.1 461,42.5 461.8,42.8 462.7,43 463.5,43.2 464.4,43.2 465.3,43.2 466.2,43.2 467,43 467.9,42.8 468.7,42.5 469.5,42.1 470.2,41.7 470.9,41.2 471.6,40.6 472.2,40 472.8,39.3 473.3,38.6 473.7,37.9 474.1,37.1 474.4,36.3 474.6,35.4 474.8,34.5 474.8,33.7 474.8,32.8 474.8,31.9 474.6,31.1 474.4,30.2 474.1,29.4 473.7,28.6 473.3,27.9 472.8,27.2 472.2,26.5 471.6,25.9 470.9,25.3 470.2,24.8 469.5,24.4 468.7,24 467.9,23.7 467,23.5 466.2,23.3 465.3,23.3 464.4,23.3 463.5,23.3 462.7,23.5 461.8,23.7 461,24 460.2,24.4 459.5,24.8 458.8,25.3 458.1,25.9 457.5,26.5 456.9,27.2 456.4,27.9 456,28.6 455.6,29.4 455.3,30.2 455.1,31.1 454.9,31.9 454.9,32.8 454.9,33.7 454.9,34.5 455.1,35.4 455.3,36.3 455.6,37.1 456,37.9 456.4,38.6 456.9,39.3 457.5,40 457.5,70" />
<path stroke="#663399" stroke-width="2" d="M 504.8,70" />
<path stroke="#663399" stroke-width="2" d="M 504.8,50 512.5,31.5 520.1,50 540.1,50 541,50 541.9,50.1 542.7,50.2 543.6,50.5 544.4,50.8 545.2,51.1 546,51.6 546.7,52.1 547.3,52.6 548,53.2 548.5,53.9 549,54.6 549.5,55.4 549.8,56.2 550.1,57 550.3,57.8 550.5,58.7 550.6,59.6 550.6,60.4 550.5,61.3 550.3,62.2 550.1,63 549.8,63.8 549.5,64.6 549,65.4 548.5,66.1 548,66.7 547.3,67.4 546.7,67.9 546,68.4 545.2,68.9 544.4,69.2 543.6,69.5 542.7,69.8 541.9,69.9 541,70" />
<path stroke="#663399" stroke-width="2" d="M 580.6,70" />
<path stroke="#663399" stroke-width="2" d="M 580.6,30 580.6,70 580.6,58 580.6,56.3 580.7,54.5 581,52.8 581.5,51.1 582.1,49.5 582.8,47.9 583.7,46.4 584.7,45 585.8,43.6 587,42.4 588.4,41.3 589.8,40.3 591.3,39.4 592.9,38.7 594.5,38.1 596.2,37.6 597.9,37.3 599.7,37.1" />
<path stroke="#663399" stroke-width="2" d="M 606.3,70" />
<path stroke="#663399" stroke-width="2" d="M 606.3,30 646.3,30 606.7,69.6 646.7,69.6" />
<path stroke="#663399" stroke-width="2" d="M 676.7,70" />
<path stroke="#663399" stroke-width="2" d="M 686.7,30 685.9,30 685,30.1 684.1,30.2 683.3,30.5 682.5,30.8 681.7,31.1 680.9,31.6 680.2,32.1 679.6,32.6 678.9,33.2 678.4,33.9 677.9,34.6 677.4,35.4 677.1,36.2 676.8,37 676.5,37.8 676.4,38.7 676.3,39.6 676.3,40.4 676.4,41.3 676.5,42.2 676.8,43 677.1,43.8 677.4,44.6 677.9,45.4 678.4,46.1 678.9,46.7 679.6,47.4 680.2,47.9 680.9,48.4 681.7,48.9 682.5,49.2 683.3,49.5 684.1,49.8 685,49.9 685.9,50 690.9,50 690.9,70" />
<path stroke="#663399" stroke-width="2" d="M 720.9,70" />
</svg>