<svg xmlns="http://www.w3.org/2000/svg" width="734.5373399338138" height="102.0" style="fill:none; stroke-linecap:round;">
    <rect width="100%" height="100%" fill="#FFFFFF" />
<path stroke="#000000" stroke-width="2" d="M 375,75" />
<path stroke="#000000" stroke-width="2" d="M 20,70 20.2,70 20.2,70.2 20,70.2 20,70" />
<path stroke="#000000" stroke-width="2" d="M 26.9,70" />
<path stroke="#000000" stroke-width="2" d="M 26.9,40" />
<path stroke="#000000" stroke-width="2" d="M 26.9,40 30.9,39.8 34.2,39.2 36.6,38.3 38.4,37.1 39.5,35.8 40.1,34.3 40.2,32.8 39.8,31.4 39.1,30 38.1,28.8 36.9,27.7 35.5,27 34,26.7 32.5,26.8 31.1,27.3 29.7,28.5 28.6,30.2 27.7,32.7 27.1,35.9 26.9,40 26.9,70" />
<path stroke="#000000" stroke-width="2" d="M 46.8,70" />
<path stroke="#000000" stroke-width="2" d="M 46.8,50 66.8,50" />
<path stroke="#000000" stroke-width="2" d="M 66.8,50 68.9,49.9 70.5,49.6 71.7,49.1 72.6,48.6 73.2,47.9 73.5,47.2 73.5,46.4 73.3,45.7 73,45 72.5,44.4 71.9,43.9 71.2,43.5 70.4,43.3 69.7,43.4 69,43.7 68.3,44.2 67.7,45.1 67.2,46.4 66.9,48 66.8,50 66.8,65" />
<path stroke="#000000" stroke-width="2" d="M 103.5,70" />
<path stroke="#000000" stroke-width="2" d="M 113.5,30 112.6,30 111.8,30.1 110.9,30.2 110.1,30.5 109.2,30.8 108.4,31.1 107.7,31.6 107,32.1 106.3,32.6 105.7,33.2 105.1,33.9 104.6,34.6 104.2,35.4 103.8,36.2 103.5,37 103.3,37.8 103.1,38.7 103.1,39.6 103.1,40.4 103.1,41.3 103.3,42.2 103.5,43 103.8,43.8 104.2,44.6 104.6,45.4 105.1,46.1 105.7,46.7 106.3,47.4 107,47.9 107.7,48.4 108.4,48.9 109.2,49.2 110.1,49.5 110.9,49.8 111.8,49.9 112.6,50 117.6,50 117.6,70" />
<path stroke="#000000" stroke-width="2" d="M 147.6,70" />
<path stroke="#000000" stroke-width="2" d="M 147.6,70 162.9,33 162.9,73 162.9,61 162.9,59.3 163.1,57.6 163.4,55.8 163.8,54.2 164.4,52.5 165.2,50.9 166,49.4 167,48 168.2,46.7 169.4,45.4 170.7,44.3 172.2,43.3 173.7,42.4 175.3,41.7 176.9,41.1" />
<path stroke="#000000" stroke-width="2" d="M 183.6,70" />
<path stroke="#000000" stroke-width="2" d="M 183.6,70 195,42.3" />
<path stroke="#000000" stroke-width="2" d="M 195,42.3 199.1,42.1 202.3,41.5 204.8,40.6 206.6,39.4 207.7,38.1 208.3,36.6 208.4,35.1 208,33.6 207.3,32.3 206.3,31 205.1,30 203.7,29.3 202.2,29 200.7,29.1 199.3,29.6 197.9,30.8 196.8,32.5 195.9,35 195.3,38.2 195,42.3 195,72.3" />
<path stroke="#000000" stroke-width="2" d="M 238.4,70" />
<path stroke="#000000" stroke-width="2" d="M 238.4,70" />
<path stroke="#000000" stroke-width="2" d="M 238.4,70 239.5,70 240.5,70.2 241.3,70.4 242,70.7 242.6,71 243,71.5 243.3,71.9 243.5,72.5 243.6,73.1 243.6,73.8 243.5,74.4 243.3,75.2 242.9,76 242.5,76.8 242,77.6 241.4,78.4 240.8,79.3 240,80.2 239.2,81.1 238.4,82" />
<path stroke="#000000" stroke-width="2" d="M 273.6,70" />
<path stroke="#000000" stroke-width="2" d="M 283.6,50 284.5,50 285.4,49.9 286.2,49.8 287.1,49.5 287.9,49.2 288.7,48.9 289.4,48.4 290.1,47.9 290.8,47.4 291.4,46.8 292,46.1 292.5,45.4 292.9,44.6 293.3,43.8 293.6,43 293.8,42.2 294,41.3 294.1,40.4 294.1,39.6 294,38.7 293.8,37.8 293.6,37 293.3,36.2 292.9,35.4 292.5,34.6 292,33.9 291.4,33.3 290.8,32.6 290.1,32.1 289.4,31.6 288.7,31.1 287.9,30.8 287.1,30.5 286.2,30.2 285.4,30.1 284.5,30 283.6,30 282.8,30.1 281.9,30.2 281.1,30.5 280.2,30.8 279.4,31.1 278.7,31.6 278,32.1 277.3,32.6 276.7,33.3 276.1,33.9 275.6,34.6 275.2,35.4 274.8,36.2 274.5,37 274.3,37.8 274.1,38.7 274.1,39.6 274.1,40.4 274.1,41.3 274.3,42.2 274.5,43 274.8,43.8 275.2,44.6 275.6,45.4 276.1,46.1 276.7,46.8 277.3,47.4 278,47.9 278.7,48.4 279.4,48.9 280.2,49.2 281.1,49.5 281.9,49.8 282.8,49.9 283.6,50 283.6,70 283.6,64 283.6,63.1 283.7,62.3 283.9,61.4 284.1,60.6 284.4,59.7 284.7,58.9 285.2,58.2 285.7,57.5 286.2,56.8 286.9,56.2 287.5,55.6 288.2,55.1 289,54.7 289.8,54.3 290.6,54 291.5,53.8 292.3,53.6 293.2,53.6" />
<path stroke="#000000" stroke-width="2" d="M 324.1,70" />
<path stroke="#000000" stroke-width="2" d="M 324.1,30 324.1,70 335.4,58.7" />
<path stroke="#000000" stroke-width="2" d="M 342,70" />
<path stroke="#000000" stroke-width="2" d="M 342,25" />
<path stroke="#000000" stroke-width="2" d="M 342,25 344.1,24.9 345.7,24.6 346.9,24.1 347.8,23.6 348.4,22.9 348.6,22.2 348.7,21.4 348.5,20.7 348.2,20 347.7,19.4 347,18.9 346.4,18.5 345.6,18.3 344.9,18.4 344.1,18.7 343.5,19.2 342.9,20.1 342.4,21.4 342.1,23 342,25 342,40" />
<path stroke="#000000" stroke-width="2" d="M 378.7,70" />
<path stroke="#000000" stroke-width="2" d="M 378.7,70 394,33 434,33" />
<path stroke="#000000" stroke-width="2" d="M 464,70" />
<path stroke="#000000" stroke-width="2" d="M 464,70 479.3,33 479.3,73 471.3,73" />
<path stroke="#000000" stroke-width="2" d="M 509.3,70" />
<path stroke="#000000" stroke-width="2" d="M 509.3,30 513.1,39.2" />
<path stroke="#000000" stroke-width="2" d="M 513.1,39.2 515.1,41.4 516.4,43.3 517.1,45 517.4,46.4 517.3,47.7 516.9,48.7 516.2,49.5 515.3,50 514.2,50.4 513.1,50.5 512,50.4 511,50 510.1,49.5 509.3,48.7 508.9,47.7 508.8,46.4 509.1,45 509.9,43.3 511.2,41.4 513.1,39.2 517,30 537,30 537.8,30 538.7,30.1 539.6,30.2 540.4,30.5 541.2,30.8 542,31.1 542.8,31.6 543.5,32.1 544.1,32.6 544.8,33.2 545.3,33.9 545.8,34.6 546.3,35.4 546.6,36.2 546.9,37 547.2,37.8 547.3,38.7 547.4,39.6 547.4,40.4 547.3,41.3 547.2,42.2 546.9,43 546.6,43.8 546.3,44.6 545.8,45.4 545.3,46.1 544.8,46.7 544.1,47.4 543.5,47.9 542.8,48.4 542,48.9 541.2,49.2 540.4,49.5 539.6,49.8 538.7,49.9 537.8,50 537.8,49.1 537.9,48.2 538.1,47.4 538.3,46.5 538.6,45.7 538.9,44.9 539.4,44.2 539.9,43.5 540.4,42.8 541.1,42.2 541.7,41.6 542.4,41.1 543.2,40.7 544,40.3 544.8,40 545.7,39.8 546.5,39.6 547.4,39.6" />
<path stroke="#000000" stroke-width="2" d="M 554,70" />
<path stroke="#000000" stroke-width="2" d="M 554,20 561.7,38.5 562.6,38.5 563.4,38.6 564.3,38.7 565.1,38.9 566,39.2 566.8,39.6 567.5,40 568.2,40.5 568.9,41.1 569.5,41.7 570.1,42.4 570.6,43.1 571,43.9 571.4,44.6 571.7,45.5 571.9,46.3 572.1,47.2 572.1,48 572.1,48.9 572.1,49.8 571.9,50.6 571.7,51.5 571.4,52.3 571,53.1 570.6,53.8 570.1,54.6 569.5,55.2 568.9,55.8 568.2,56.4 567.5,56.9 566.8,57.3 566,57.7 565.1,58 564.3,58.2 563.4,58.4 562.6,58.5" />
<path stroke="#000000" stroke-width="2" d="M 602.1,70" />
<path stroke="#000000" stroke-width="2" d="M 612.1,30 611.3,30 610.4,30.1 609.5,30.2 608.7,30.5 607.9,30.8 607.1,31.1 606.3,31.6 605.6,32.1 604.9,32.6 604.3,33.2 603.8,33.9 603.3,34.6 602.8,35.4 602.5,36.2 602.2,37 601.9,37.8 601.8,38.7 601.7,39.6 601.7,40.4 601.8,41.3 601.9,42.2 602.2,43 602.5,43.8 602.8,44.6 603.3,45.4 603.8,46.1 604.3,46.7 604.9,47.4 605.6,47.9 606.3,48.4 607.1,48.9 607.9,49.2 608.7,49.5 609.5,49.8 610.4,49.9 611.3,50 616.3,50 616.3,70" />
<path stroke="#000000" stroke-width="2" d="M 646.3,70" />
<path stroke="#000000" stroke-width="2" d="M 646.3,70 646.5,70 646.5,70.2 646.3,70.2 646.3,70" />
<path stroke="#000000" stroke-width="2" d="M 676.5,70" />
<path stroke="#000000" stroke-width="2" d="M 676.5,50 684.1,31.5 704.1,31.5 705,31.5 705.9,31.6 706.7,31.7 707.6,32 708.4,32.3 709.2,32.6 709.9,33.1 710.6,33.6 711.3,34.1 711.9,34.8 712.5,35.4 713,36.1 713.4,36.9 713.8,37.7 714.1,38.5 714.3,39.3 714.5,40.2 714.5,41.1 714.5,41.9 714.5,42.8 714.3,43.7 714.1,44.5 713.8,45.3 713.4,46.1 713,46.9 712.5,47.6 711.9,48.3 711.3,48.9 710.6,49.4 709.9,49.9 709.2,50.4 708.4,50.8 707.6,51.1 706.7,51.3 705.9,51.4 705,51.5" />
<path stroke="#000000" stroke-width="2" d="M 744.5,70" />
</svg>