<svg xmlns="http://www.w3.org/2000/svg" width="736.9733110921002" height="102.0" style="fill:none; stroke-linecap:round;">
    <rect width="100%" height="100%" fill="#FFFFFF" />
<path stroke="#000000" stroke-width="2" d="M 375,75" />
<path stroke="#000000" stroke-width="2" d="M 20,70 20.2,70 20.2,70.2 20,70.2 20,70" />
<path stroke="#000000" stroke-width="2" d="M 26.9,70" />
<path stroke="#000000" stroke-width="2" d="M 26.9,40" />
<path stroke="#000000" stroke-width="2" d="M 26.9,40 30.9,39.8 34.2,39.2 36.6,38.3 38.4,37.1 39.5,35.8 40.1,34.3 40.2,32.8 39.8,31.4 39.1,30 38.1,28.8 36.9,27.7 35.5,27 34,26.7 32.5,26.8 31.1,27.3 29.7,28.5 28.6,30.2 27.7,32.7 27.1,35.9 26.9,40 26.9,70" />
<path stroke="#000000" stroke-width="2" d="M 46.8,70" />
<path stroke="#000000" stroke-width="2" d="M 46.8,50 66.8,50" />
<path stroke="#000000" stroke-width="2" d="M 66.8,50 68.9,49.9 70.5,49.6 71.7,49.1 72.6,48.6 73.2,47.9 73.5,47.2 73.5,46.4 73.3,45.7 73,45 72.5,44.4 71.9,43.9 71.2,43.5 70.4,43.3 69.7,43.4 69,43.7 68.3,44.2 67.7,45.1 67.2,46.4 66.9,48 66.8,50 66.8,65" />
<path stroke="#000000" stroke-width="2" d="M 103.5,70" />
<path stroke="#000000" stroke-width="2" d="M 113.5,30 112.6,30 111.8,30.1 110.9,30.2 110.1,30.5 109.2,30.8 108.4,31.1 107.7,31.6 107,32.1 106.3,32.6 105.7,33.2 105.1,33.9 104.6,34.6 104.2,35.4 103.8,36.2 103.5,37 103.3,37.8 103.1,38.7 103.1,39.6 103.1,40.4 103.1,41.3 103.3,42.2 103.5,43 103.8,43.8 104.2,44.6 104.6,45.4 105.1,46.1 105.7,46.7 106.3,47.4 107,47.9 107.7,48.4 108.4,48.9 109.2,49.2 110.1,49.5 110.9,49.8 111.8,49.9 112.6,50 117.6,50 117.6,70" />
<path stroke="#000000" stroke-width="2" d="M 147.6,70" />
<path stroke="#000000" stroke-width="2" d="M 147.6,70 162.9,33 162.9,73 162.9,61 162.9,59.3 163.1,57.6 163.4,55.8 163.8,54.2 164.4,52.5 165.2,50.9 166,49.4 167,48 168.2,46.7 169.4,45.4 170.7,44.3 172.2,43.3 173.7,42.4 175.3,41.7 176.9,41.1" />
<path stroke="#000000" stroke-width="2" d="M 183.6,70" />
<path stroke="#000000" stroke-width="2" d="M 183.6,70 195,42.3" />
<path stroke="#000000" stroke-width="2" d="M 195,42.3 199.1,42.1 202.3,41.5 204.8,40.6 206.6,39.4 207.7,38.1 208.3,36.6 208.4,35.1 208,33.6 207.3,32.3 206.3,31 205.1,30 203.7,29.3 202.2,29 200.7,29.1 199.3,29.6 197.9,30.8 196.8,32.5 195.9,35 195.3,38.2 195,42.3 195,72.3" />
<path stroke="#000000" stroke-width="2" d="M 238.4,70" />
<path stroke="#000000" stroke-width="2" d="M 238.4,70" />
<path stroke="#000000" stroke-width="2" d="M 238.4,70 239.5,70 240.5,70.2 241.3,70.4 242,70.7 242.6,71 243,71.5 243.3,71.9 243.5,72.5 243.6,73.1 243.6,73.8 243.5,74.4 243.3,75.2 242.9,76 242.5,76.8 242,77.6 241.4,78.4 240.8,79.3 240,80.2 239.2,81.1 238.4,82" />
<path stroke="#000000" stroke-width="2" d="M 273.6,70" />
<path stroke="#000000" stroke-width="2" d="M 283.6,50 284.5,50 285.4,49.9 286.2,49.8 287.1,49.5 287.9,49.2 288.7,48.9 289.4,48.4 290.1,47.9 290.8,47.4 291.4,46.8 292,46.1 292.5,45.4 292.9,44.6 293.3,43.8 293.6,43 293.8,42.2 294,41.3 294.1,40.4 294.1,39.6 294,38.7 293.8,37.8 293.6,37 293.3,36.2 292.9,35.4 292.5,34.6 292,33.9 291.4,33.3 290.8,32.6 290.1,32.1 289.4,31.6 288.7,31.1 287.9,30.8 287.1,30.5 286.2,30.2 285.4,30.1 284.5,30 283.6,30 282.8,30.1 281.9,30.2 281.1,30.5 280.2,30.8 279.4,31.1 278.7,31.6 278,32.1 277.3,32.6 276.7,33.3 276.1,33.9 275.6,34.6 275.2,35.4 274.8,36.2 274.5,37 274.3,37.8 274.1,38.7 274.1,39.6 274.1,40.4 274.1,41.3 274.3,42.2 274.5,43 274.8,43.8 275.2,44.6 275.6,45.4 276.1,46.1 276.7,46.8 277.3,47.4 278,47.9 278.7,48.4 279.4,48.9 280.2,49.2 281.1,49.5 281.9,49.8 282.8,49.9 283.6,50 283.6,70 283.6,64 283.6,63.1 283.7,62.3 283.9,61.4 284.1,60.6 284.4,59.7 284.7,58.9 285.2,58.2 285.7,57.5 286.2,56.8 286.9,56.2 287.5,55.6 288.2,55.1 289,54.7 289.8,54.3 290.6,54 291.5,53.8 292.3,53.6 293.2,53.6" />
<path stroke="#000000" stroke-width="2" d="M 324.1,70" />
<path stroke="#000000" stroke-width="2" d="M 324.1,30 324.1,70 335.4,58.7" />
<path stroke="#000000" stroke-width="2" d="M 342,70" />
<path stroke="#000000" stroke-width="2" d="M 342,25" />
<path stroke="#000000" stroke-width="2" d="M 342,25 344.1,24.9 345.7,24.6 346.9,24.1 347.8,23.6 348.4,22.9 348.6,22.2 348.7,21.4 348.5,20.7 348.2,20 347.7,19.4 347,18.9 346.4,18.5 345.6,18.3 344.9,18.4 344.1,18.7 343.5,19.2 342.9,20.1 342.4,21.4 342.1,23 342,25 342,40" />
<path stroke="#000000" stroke-width="2" d="M 378.7,70" />
<path stroke="#000000" stroke-width="2" d="M 378.7,70 394,33 434,33" />
<path stroke="#000000" stroke-width="2" d="M 464,70" />
<path stroke="#000000" stroke-width="2" d="M 464,70 479.3,33 479.3,73 471.3,73" />
<path stroke="#000000" stroke-width="2" d="M 509.3,70" />
<path stroke="#000000" stroke-width="2" d="M 509.3,30 513.1,39.2" />
<path stroke="#000000" stroke-width="2" d="M 513.1,39.2 515.1,41.4 516.4,43.3 517.1,45 517.4,46.4 517.3,47.7 516.9,48.7 516.2,49.5 515.3,50 514.2,50.4 513.1,50.5 512,50.4 511,50 510.1,49.5 509.3,48.7 508.9,47.7 508.8,46.4 509.1,45 509.9,43.3 511.2,41.4 513.1,39.2 517,30 537,30 537.8,30 538.7,30.1 539.6,30.2 540.4,30.5 541.2,30.8 542,31.1 542.8,31.6 543.5,32.1 544.1,32.6 544.8,33.2 545.3,33.9 545.8,34.6 546.3,35.4 546.6,36.2 546.9,37 547.2,37.8 547.3,38.7 547.4,39.6 547.4,40.4 547.3,41.3 547.2,42.2 546.9,43 546.6,43.8 546.3,44.6 545.8,45.4 545.3,46.1 544.8,46.7 544.1,47.4 543.5,47.9 542.8,48.4 542,48.9 541.2,49.2 540.4,49.5 539.6,49.8 538.7,49.9 537.8,50 538.4,49.4 539.1,48.8 539.8,48.3 540.6,47.9 541.4,47.5 542.2,47.2 543,47 543.9,46.8 544.8,46.7 545.6,46.7 546.5,46.8 547.4,47 548.2,47.2 549,47.5 549.8,47.9" />
<path stroke="#000000" stroke-width="2" d="M 556.5,70" />
<path stroke="#000000" stroke-width="2" d="M 556.5,20 564.1,38.5 565,38.5 565.9,38.6 566.7,38.7 567.6,38.9 568.4,39.2 569.2,39.6 569.9,40 570.7,40.5 571.3,41.1 571.9,41.7 572.5,42.4 573,43.1 573.4,43.9 573.8,44.6 574.1,45.5 574.3,46.3 574.5,47.2 574.6,48 574.6,48.9 574.5,49.8 574.3,50.6 574.1,51.5 573.8,52.3 573.4,53.1 573,53.8 572.5,54.6 571.9,55.2 571.3,55.8 570.7,56.4 569.9,56.9 569.2,57.3 568.4,57.7 567.6,58 566.7,58.2 565.9,58.4 565,58.5" />
<path stroke="#000000" stroke-width="2" d="M 604.6,70" />
<path stroke="#000000" stroke-width="2" d="M 614.6,30 613.7,30 612.8,30.1 612,30.2 611.1,30.5 610.3,30.8 609.5,31.1 608.8,31.6 608,32.1 607.4,32.6 606.8,33.2 606.2,33.9 605.7,34.6 605.3,35.4 604.9,36.2 604.6,37 604.4,37.8 604.2,38.7 604.1,39.6 604.1,40.4 604.2,41.3 604.4,42.2 604.6,43 604.9,43.8 605.3,44.6 605.7,45.4 606.2,46.1 606.8,46.7 607.4,47.4 608,47.9 608.8,48.4 609.5,48.9 610.3,49.2 611.1,49.5 612,49.8 612.8,49.9 613.7,50 618.7,50 618.7,70" />
<path stroke="#000000" stroke-width="2" d="M 648.7,70" />
<path stroke="#000000" stroke-width="2" d="M 648.7,70 648.9,70 648.9,70.2 648.7,70.2 648.7,70" />
<path stroke="#000000" stroke-width="2" d="M 678.9,70" />
<path stroke="#000000" stroke-width="2" d="M 678.9,50 686.5,31.5 706.5,31.5 707.4,31.5 708.3,31.6 709.1,31.7 710,32 710.8,32.3 711.6,32.6 712.4,33.1 713.1,33.6 713.7,34.1 714.4,34.8 714.9,35.4 715.4,36.1 715.9,36.9 716.2,37.7 716.5,38.5 716.7,39.3 716.9,40.2 717,41.1 717,41.9 716.9,42.8 716.7,43.7 716.5,44.5 716.2,45.3 715.9,46.1 715.4,46.9 714.9,47.6 714.4,48.3 713.7,48.9 713.1,49.4 712.4,49.9 711.6,50.4 710.8,50.8 710,51.1 709.1,51.3 708.3,51.4 707.4,51.5" />
<path stroke="#000000" stroke-width="2" d="M 747,70" />
</svg>