<svg xmlns="http://www.w3.org/2000/svg" width="762.5939025185473" height="102.0" style="fill:none; stroke-linecap:round;">
    <rect width="100%" height="100%" fill="#FFFFFF" />
<path stroke="#000000" stroke-width="2" d="M 375,75" />
<path stroke="#000000" stroke-width="2" d="M 20,70 20.2,70 20.2,70.2 20,70.2 20,70" />
<path stroke="#000000" stroke-width="2" d="M 26.9,70" />
<path stroke="#000000" stroke-width="2" d="M 26.9,40" />
<path stroke="#000000" stroke-width="2" d="M 26.9,40 30.9,39.8 34.2,39.2 36.6,38.3 38.4,37.1 39.5,35.8 40.1,34.3 40.2,32.8 39.8,31.4 39.1,30 38.1,28.8 36.9,27.7 35.5,27 34,26.7 32.5,26.8 31.1,27.3 29.7,28.5 28.6,30.2 27.7,32.7 27.1,35.9 26.9,40 26.9,70" />
<path stroke="#000000" stroke-width="2" d="M 46.8,70" />
<path stroke="#000000" stroke-width="2" d="M 46.8,50 66.8,50" />
<path stroke="#000000" stroke-width="2" d="M 66.8,50 68.9,49.9 70.5,49.6 71.7,49.1 72.6,48.6 73.2,47.9 73.5,47.2 73.5,46.4 73.3,45.7 73,45 72.5,44.4 71.9,43.9 71.2,43.5 70.4,43.3 69.7,43.4 69,43.7 68.3,44.2 67.7,45.1 67.2,46.4 66.9,48 66.8,50 66.8,65" />
<path stroke="#000000" stroke-width="2" d="M 103.5,70" />
<path stroke="#000000" stroke-width="2" d="M 113.5,30 112.6,30 111.8,30.1 110.9,30.2 110.1,30.5 109.2,30.8 108.4,31.1 107.7,31.6 107,32.1 106.3,32.6 105.7,33.2 105.1,33.9 104.6,34.6 104.2,35.4 103.8,36.2 103.5,37 103.3,37.8 103.1,38.7 103.1,39.6 103.1,40.4 103.1,41.3 103.3,42.2 103.5,43 103.8,43.8 104.2,44.6 104.6,45.4 105.1,46.1 105.7,46.7 106.3,47.4 107,47.9 107.7,48.4 108.4,48.9 109.2,49.2 110.1,49.5 110.9,49.8 111.8,49.9 112.6,50 117.6,50 117.6,70" />
<path stroke="#000000" stroke-width="2" d="M 147.6,70" />
<path stroke="#000000" stroke-width="2" d="M 147.6,70 162.9,33 162.9,73 162.9,61 162.9,59.3 163.1,57.6 163.4,55.8 163.8,54.2 164.4,52.5 165.2,50.9 166,49.4 167,48 168.2,46.7 169.4,45.4 170.7,44.3 172.2,43.3 173.7,42.4 175.3,41.7 176.9,41.1" />
<path stroke="#000000" stroke-width="2" d="M 183.6,70" />
<path stroke="#000000" stroke-width="2" d="M 183.6,70 195,42.3" />
<path stroke="#000000" stroke-width="2" d="M 195,42.3 199.1,42.1 202.3,41.5 204.8,40.6 206.6,39.4 207.7,38.1 208.3,36.6 208.4,35.1 208,33.6 207.3,32.3 206.3,31 205.1,30 203.7,29.3 202.2,29 200.7,29.1 199.3,29.6 197.9,30.8 196.8,32.5 195.9,35 195.3,38.2 195,42.3 195,72.3" />
<path stroke="#000000" stroke-width="2" d="M 238.4,70" />
<path stroke="#000000" stroke-width="2" d="M 238.4,70" />
<path stroke="#000000" stroke-width="2" d="M 238.4,70 239.5,70 240.5,70.2 241.3,70.4 242,70.7 242.6,71 243,71.5 243.3,71.9 243.5,72.5 243.6,73.1 243.6,73.8 243.5,74.4 243.3,75.2 242.9,76 242.5,76.8 242,77.6 241.4,78.4 240.8,79.3 240,80.2 239.2,81.1 238.4,82" />
<path stroke="#000000" stroke-width="2" d="M 273.6,70" />
<path stroke="#000000" stroke-width="2" d="M 283.6,50 284.5,50 285.4,49.9 286.2,49.8 287.1,49.5 287.9,49.2 288.7,48.9 289.4,48.4 290.1,47.9 290.8,47.4 291.4,46.8 292,46.1 292.5,45.4 292.9,44.6 293.3,43.8 293.6,43 293.8,42.2 294,41.3 294.1,40.4 294.1,39.6 294,38.7 293.8,37.8 293.6,37 293.3,36.2 292.9,35.4 292.5,34.6 292,33.9 291.4,33.3 290.8,32.6 290.1,32.1 289.4,31.6 288.7,31.1 287.9,30.8 287.1,30.5 286.2,30.2 285.4,30.1 284.5,30 283.6,30 282.8,30.1 281.9,30.2 281.1,30.5 280.2,30.8 279.4,31.1 278.7,31.6 278,32.1 277.3,32.6 276.7,33.3 276.1,33.9 275.6,34.6 275.2,35.4 274.8,36.2 274.5,37 274.3,37.8 274.1,38.7 274.1,39.6 274.1,40.4 274.1,41.3 274.3,42.2 274.5,43 274.8,43.8 275.2,44.6 275.6,45.4 276.1,46.1 276.7,46.8 277.3,47.4 278,47.9 278.7,48.4 279.4,48.9 280.2,49.2 281.1,49.5 281.9,49.8 282.8,49.9 283.6,50 283.6,70 283.6,64 283.6,63.1 283.7,62.3 283.9,61.4 284.1,60.6 284.4,59.7 284.7,58.9 285.2,58.2 285.7,57.5 286.2,56.8 286.9,56.2 287.5,55.6 288.2,55.1 289,54.7 289.8,54.3 290.6,54 291.5,53.8 292.3,53.6 293.2,53.6" />
<path stroke="#000000" stroke-width="2" d="M 324.1,70" />
<path stroke="#000000" stroke-width="2" d="M 324.1,30 324.1,70 335.4,58.7" />
<path stroke="#000000" stroke-width="2" d="M 342,70" />
<path stroke="#000000" stroke-width="2" d="M 342,25" />
<path stroke="#000000" stroke-width="2" d="M 342,25 344.1,24.9 345.7,24.6 346.9,24.1 347.8,23.6 348.4,22.9 348.6,22.2 348.7,21.4 348.5,20.7 348.2,20 347.7,19.4 347,18.9 346.4,18.5 345.6,18.3 344.9,18.4 344.1,18.7 343.5,19.2 342.9,20.1 342.4,21.4 342.1,23 342,25 342,40" />
<path stroke="#000000" stroke-width="2" d="M 378.7,70" />
<path stroke="#000000" stroke-width="2" d="M 378.7,70 394,33 434,33" />
<path stroke="#000000" stroke-width="2" d="M 464,70" />
<path stroke="#000000" stroke-width="2" d="M 464,70 479.3,33 479.3,73 471.3,73" />
<path stroke="#000000" stroke-width="2" d="M 509.3,70" />
<path stroke="#000000" stroke-width="2" d="M 509.3,30" />
<path stroke="#000000" stroke-width="2" d="M 509.3,30 509.4,30 509.9,30 510.5,30 511.4,30.1 512.4,30.2 513.6,30.3 514.9,30.4 516.3,30.6 517.8,30.9 519.3,31.2 520.8,31.7 522.3,32.2 523.7,32.7 525,33.4 526.2,34.2 527.2,35.1 528.1,36.1 528.7,37.3 529.2,38.6 529.3,40" />
<path stroke="#000000" stroke-width="2" d="M 529.3,40 531.2,42.1 532.5,44.1 533.3,45.7 533.6,47.2 533.5,48.4 533.1,49.4 532.4,50.2 531.5,50.8 530.4,51.1 529.3,51.2 528.2,51.1 527.1,50.8 526.2,50.2 525.5,49.5 525.1,48.4 525,47.2 525.3,45.7 526.1,44.1 527.4,42.1 529.3,40" />
<path stroke="#000000" stroke-width="2" d="M 529.3,40 529.3,39.9 529.3,39.7 529.4,39.4 529.5,39 529.6,38.4 529.8,37.8 530.2,37.2 530.6,36.5 531.1,35.7 531.8,35 532.6,34.3 533.6,33.5 534.8,32.8 536.2,32.2 537.7,31.6 539.5,31 541.6,30.6 543.9,30.3 546.4,30.1 549.3,30 569.3,30" />
<path stroke="#000000" stroke-width="2" d="M 569.3,30 570.7,30.1 572,30.6 573.1,31.2 574.1,32.1 574.9,33.1 575.6,34.3 576.1,35.6 576.5,37 576.7,38.5 576.8,40 576.7,41.5 576.5,43 576.1,44.4 575.6,45.7 574.9,46.9 574.1,47.9 573.1,48.8 572,49.4 570.7,49.9 569.3,50 569.9,49.4 570.6,48.8 571.3,48.3 572.1,47.9 572.8,47.5 573.7,47.2 574.5,47 575.4,46.8 576.2,46.8 577.1,46.8 578,46.8 578.8,47 579.7,47.2 580.5,47.5 581.3,47.9" />
<path stroke="#000000" stroke-width="2" d="M 588,70" />
<path stroke="#000000" stroke-width="2" d="M 588,20 595.6,38.5" />
<path stroke="#000000" stroke-width="2" d="M 595.6,38.5 597,38.6 598.3,39 599.4,39.7 600.4,40.6 601.2,41.6 601.9,42.8 602.4,44.1 602.8,45.5 603,47 603.1,48.5 603,50 602.8,51.4 602.4,52.8 601.9,54.2 601.2,55.4 600.4,56.4 599.4,57.3 598.3,57.9 597,58.3 595.6,58.5" />
<path stroke="#000000" stroke-width="2" d="M 633.1,70" />
<path stroke="#000000" stroke-width="2" d="M 643.1,30 642.2,30 641.4,30.1 640.5,30.2 639.7,30.5 638.8,30.8 638.1,31.1 637.3,31.6 636.6,32.1 635.9,32.6 635.3,33.2 634.7,33.9 634.2,34.6 633.8,35.4 633.4,36.2 633.1,37 632.9,37.8 632.8,38.7 632.7,39.6 632.7,40.4 632.8,41.3 632.9,42.2 633.1,43 633.4,43.8 633.8,44.6 634.2,45.4 634.7,46.1 635.3,46.7 635.9,47.4 636.6,47.9 637.3,48.4 638.1,48.9 638.8,49.2 639.7,49.5 640.5,49.8 641.4,49.9 642.2,50 647.2,50 647.2,70" />
<path stroke="#000000" stroke-width="2" d="M 677.2,70" />
<path stroke="#000000" stroke-width="2" d="M 677.2,70 677.4,70 677.4,70.2 677.2,70.2 677.2,70" />
<path stroke="#000000" stroke-width="2" d="M 707.4,70" />
<path stroke="#000000" stroke-width="2" d="M 707.4,50 715.1,31.5 735.1,31.5" />
<path stroke="#000000" stroke-width="2" d="M 735.1,31.5 736.5,31.7 737.8,32.1 738.9,32.7 739.9,33.6 740.7,34.6 741.4,35.8 741.9,37.2 742.3,38.6 742.5,40 742.6,41.5 742.5,43 742.3,44.5 741.9,45.9 741.4,47.2 740.7,48.4 739.9,49.4 738.9,50.3 737.8,51 736.5,51.4 735.1,51.5" />
<path stroke="#000000" stroke-width="2" d="M 772.6,70" />
</svg>