<svg xmlns="http://www.w3.org/2000/svg" width="672.0152797997725" height="110.69791019784537" style="fill:none; stroke-linecap:round;">
    <rect width="100%" height="100%" fill="#FFFFFF" />
<path stroke="#000000" stroke-width="2" d="M 375,75" />
<path stroke="#000000" stroke-width="2" d="M 20,70 31.5,42.3" />
<path stroke="#000000" stroke-width="2" d="M 31.5,42.3 27.4,42.1 24.2,41.5 21.7,40.6 20,39.4 18.8,38.1 18.3,36.6 18.2,35.1 18.5,33.6 19.2,32.3 20.2,31 21.5,30 22.8,29.3 24.3,29 25.8,29.1 27.3,29.6 28.6,30.8 29.8,32.5 30.7,35 31.3,38.2 31.5,42.3 31.5,72.3" />
<path stroke="#000000" stroke-width="2" d="M 38.1,70" />
<path stroke="#000000" stroke-width="2" d="M 38.1,30 38.1,31.4 38.3,32.8 38.5,34.2 38.9,35.5 39.3,36.8 39.9,38.1 40.6,39.3 41.4,40.4 42.3,41.5 43.3,42.5 44.4,43.4 45.5,44.2 46.7,44.9 48,45.5 49.3,46 50.7,46.3 52,46.6 53.4,46.7 54.8,46.7 56.2,46.6 57.6,46.3 58.9,46 60.3,45.5 61.5,44.9 62.7,44.2 63.9,43.4 64.9,42.5 65.9,41.5 66.8,40.4 67.6,39.3 68.3,38.1 68.9,36.8 69.4,35.5 69.8,34.2 70,32.8 70.1,31.4" />
<path stroke="#000000" stroke-width="2" d="M 76.8,70" />
<path stroke="#000000" stroke-width="2" d="M 76.8,50 96.8,50" />
<path stroke="#000000" stroke-width="2" d="M 103.5,70" />
<path stroke="#000000" stroke-width="2" d="M 103.5,70 118.8,33 134.1,70" />
<path stroke="#000000" stroke-width="2" d="M 164.1,70" />
<path stroke="#000000" stroke-width="2" d="M 164.1,30" />
<path stroke="#000000" stroke-width="2" d="M 164.1,30 164.2,30 164.6,30 165.3,30 166.1,30.1 167.2,30.2 168.4,30.3 169.7,30.4 171.1,30.6 172.6,30.9 174.1,31.2 175.6,31.7 177,32.2 178.4,32.7 179.7,33.4 180.9,34.2 182,35.1 182.8,36.1 183.5,37.3 183.9,38.6 184.1,40" />
<path stroke="#000000" stroke-width="2" d="M 184.1,40 186,42.1 187.3,44.1 188.1,45.7 188.4,47.2 188.3,48.4 187.8,49.4 187.1,50.2 186.2,50.8 185.2,51.1 184.1,51.2 183,51.1 181.9,50.8 181,50.2 180.3,49.5 179.8,48.4 179.7,47.2 180,45.7 180.8,44.1 182.1,42.1 184.1,40" />
<path stroke="#000000" stroke-width="2" d="M 184.1,40 184.1,39.9 184.1,39.7 184.1,39.4 184.2,39 184.4,38.4 184.6,37.8 184.9,37.2 185.3,36.5 185.9,35.7 186.6,35 187.4,34.3 188.4,33.5 189.6,32.8 190.9,32.2 192.5,31.6 194.3,31 196.3,30.6 198.6,30.3 201.2,30.1 204.1,30" />
<path stroke="#000000" stroke-width="2" d="M 204.1,30 204,32 203.7,33.6 203.2,34.9 202.6,35.8 202,36.3 201.2,36.6 200.5,36.7 199.7,36.5 199.1,36.1 198.4,35.6 197.9,35 197.6,34.3 197.4,33.6 197.4,32.8 197.7,32.1 198.3,31.4 199.2,30.9 200.4,30.4 202,30.1 204.1,30 214.1,30" />
<path stroke="#000000" stroke-width="2" d="M 220.7,70" />
<path stroke="#000000" stroke-width="2" d="M 220.7,50 240.7,50" />
<path stroke="#000000" stroke-width="2" d="M 270.7,70" />
<path stroke="#000000" stroke-width="2" d="M 270.7,40 270.9,40 270.9,40.2 270.7,40.2 270.7,40" />
<path stroke="#000000" stroke-width="2" d="M 277.6,70" />
<path stroke="#000000" stroke-width="2" d="M 297.6,30 282.3,67 286.9,55.9 287.6,54.3 288.4,52.7 289.3,51.2 290.4,49.9 291.5,48.6 292.8,47.4 294.2,46.3 295.7,45.4 297.2,44.6 298.8,43.9 300.5,43.4 302.2,43" />
<path stroke="#000000" stroke-width="2" d="M 308.9,70" />
<path stroke="#000000" stroke-width="2" d="M 308.9,50 308.9,70 308.9,70.7 308.9,71.4 309.1,72.1 309.2,72.8 309.5,73.4 309.8,74 310.1,74.6 310.5,75.2 311,75.8 311.5,76.2 312,76.7 312.6,77.1 313.2,77.4 313.8,77.7 314.5,78 315.1,78.2 315.8,78.3 316.5,78.3 317.2,78.3 317.9,78.3 318.6,78.2 319.3,78 319.9,77.7 320.6,77.4 321.2,77.1 321.7,76.7 322.3,76.2 322.8,75.8 323.2,75.2 323.6,74.6 324,74 324.3,73.4 324.5,72.8 324.7,72.1 324.8,71.4 324.9,70.7" />
<path stroke="#000000" stroke-width="2" d="M 324.9,70.7 326.3,70.8 327.6,71.3 328.7,71.9 329.7,72.8 330.5,73.8 331.2,75 331.7,76.3 332.1,77.7 332.3,79.2 332.4,80.7 332.3,82.2 332.1,83.7 331.7,85.1 331.2,86.4 330.5,87.6 329.7,88.6 328.7,89.5 327.6,90.1 326.3,90.6 324.9,90.7" />
<path stroke="#000000" stroke-width="2" d="M 362.4,70" />
<path stroke="#000000" stroke-width="2" d="M 362.4,30 362.4,70 362.4,62 362.4,60.3 362.5,58.5 362.8,56.8 363.3,55.1 363.9,53.5 364.6,51.9 365.5,50.4 366.5,49 367.6,47.6 368.8,46.4 370.2,45.3 371.6,44.3" />
<path stroke="#000000" stroke-width="2" d="M 378.3,70" />
<path stroke="#000000" stroke-width="2" d="M 378.3,50 378.3,70 383.9,64.3" />
<path stroke="#000000" stroke-width="2" d="M 413.9,70" />
<path stroke="#000000" stroke-width="2" d="M 413.9,70 414.1,70 414.1,70.2 413.9,70.2 413.9,70" />
<path stroke="#000000" stroke-width="2" d="M 444.1,70" />
<path stroke="#000000" stroke-width="2" d="M 444.1,30 444.1,50 454.1,50 446.5,68.5" />
<path stroke="#000000" stroke-width="2" d="M 484.1,70" />
<path stroke="#000000" stroke-width="2" d="M 484.1,30 484.1,50 494.1,50" />
<path stroke="#000000" stroke-width="2" d="M 494.1,50 496.1,49.9 497.8,49.6 499,49.1 499.9,48.6 500.4,47.9 500.7,47.2 500.8,46.4 500.6,45.7 500.2,45 499.7,44.4 499.1,43.9 498.4,43.5 497.7,43.3 496.9,43.4 496.2,43.7 495.6,44.2 495,45.1 494.5,46.4 494.2,48 494.1,50 494.1,65" />
<path stroke="#000000" stroke-width="2" d="M 530.8,70" />
<path stroke="#000000" stroke-width="2" d="M 530.8,30 530.8,70 550.8,70" />
<path stroke="#000000" stroke-width="2" d="M 580.8,70" />
<path stroke="#000000" stroke-width="2" d="M 580.8,70" />
<path stroke="#000000" stroke-width="2" d="M 580.8,70 581.9,70 582.9,70.2 583.7,70.4 584.4,70.7 585,71 585.4,71.5 585.8,71.9 586,72.5 586,73.1 586,73.8 585.9,74.4 585.7,75.2 585.3,76 584.9,76.8 584.4,77.6 583.8,78.4 583.2,79.3 582.4,80.2 581.6,81.1 580.8,82" />
<path stroke="#000000" stroke-width="2" d="M 616,70" />
<path stroke="#000000" stroke-width="2" d="M 632,30 612.2,49.8 632,69.6" />
<path stroke="#000000" stroke-width="2" d="M 638.7,70" />
<path stroke="#000000" stroke-width="2" d="M 638.7,40" />
<path stroke="#000000" stroke-width="2" d="M 638.7,40 642.8,39.8 646,39.2 648.5,38.3 650.2,37.1 651.4,35.8 651.9,34.3 652,32.8 651.7,31.4 651,30 650,28.8 648.7,27.7 647.3,27 645.9,26.7 644.4,26.8 642.9,27.3 641.6,28.5 640.4,30.2 639.5,32.7 638.9,35.9 638.7,40 638.7,70" />
<path stroke="#000000" stroke-width="2" d="M 682,70" />
</svg>