<svg xmlns="http://www.w3.org/2000/svg" width="677.2828677962607" height="90.00000000000001" style="fill:none; stroke-linecap:round;">
    <rect width="100%" height="100%" fill="#FFFFFF" />
<path stroke="#000000" stroke-width="2" d="M 375,75" />
<path stroke="#000000" stroke-width="2" d="M 25,30 20,30 20,50 20,70 20,64 20,63.1 20.1,62.3 20.2,61.4 20.5,60.6 20.8,59.7 21.1,58.9 21.6,58.2 22.1,57.5 22.6,56.8 23.2,56.2 23.9,55.6 24.6,55.1 25.4,54.7 26.2,54.3 27,54 27.8,53.8 28.7,53.6 29.6,53.6" />
<path stroke="#000000" stroke-width="2" d="M 36.2,70" />
<path stroke="#000000" stroke-width="2" d="M 36.2,50 56.2,50" />
<path stroke="#000000" stroke-width="2" d="M 62.9,70" />
<path stroke="#000000" stroke-width="2" d="M 67.9,30 62.9,30 62.9,50 62.9,50.7 62.9,51.4 63.1,52.1 63.3,52.8 63.5,53.4 63.8,54 64.1,54.6 64.5,55.2 65,55.8 65.5,56.2 66,56.7 66.6,57.1 67.2,57.4 67.8,57.7 68.5,58 69.1,58.2 69.8,58.3 70.5,58.3 71.2,58.3 71.9,58.3 72.6,58.2 73.3,58 73.9,57.7 74.6,57.4 75.2,57.1 75.8,56.7 76.3,56.2 76.8,55.8 77.2,55.2 77.6,54.6 78,54 78.3,53.4 78.5,52.8 78.7,52.1 78.8,51.4 78.9,50.7" />
<path stroke="#000000" stroke-width="2" d="M 85.5,70" />
<path stroke="#000000" stroke-width="2" d="M 85.5,20 85.5,40 85.5,34 85.5,33.1 85.6,32.3 85.8,31.4 86,30.6 86.3,29.7 86.7,28.9 87.1,28.2 87.6,27.5 88.2,26.8 88.8,26.2 89.4,25.6 90.2,25.1 90.9,24.7 91.7,24.3 92.5,24 93.4,23.8 94.2,23.6 95.1,23.6" />
<path stroke="#000000" stroke-width="2" d="M 125.1,70" />
<path stroke="#000000" stroke-width="2" d="M 125.1,30 125.1,70 136.4,58.7" />
<path stroke="#000000" stroke-width="2" d="M 143.1,70" />
<path stroke="#000000" stroke-width="2" d="M 143.1,50 143.3,50 143.3,50.2 143.1,50.2 143.1,50" />
<path stroke="#000000" stroke-width="2" d="M 173.3,70" />
<path stroke="#000000" stroke-width="2" d="M 173.3,50 180.9,31.5 188.6,50 188.6,50.7 188.6,51.4 188.8,52.1 188.9,52.8 189.2,53.4 189.5,54 189.8,54.6 190.2,55.2 190.7,55.8 191.2,56.2 191.7,56.7 192.3,57.1 192.9,57.4 193.5,57.7 194.2,58 194.8,58.2 195.5,58.3 196.2,58.3 196.9,58.3 197.6,58.3 198.3,58.2 199,58 199.6,57.7 200.3,57.4 200.9,57.1 201.4,56.7 202,56.2 202.5,55.8 202.9,55.2 203.3,54.6 203.7,54 204,53.4 204.2,52.8 204.4,52.1 204.5,51.4 204.6,50.7" />
<path stroke="#000000" stroke-width="2" d="M 211.2,70" />
<path stroke="#000000" stroke-width="2" d="M 211.2,50 231.2,50" />
<path stroke="#000000" stroke-width="2" d="M 261.2,70" />
<path stroke="#000000" stroke-width="2" d="M 261.2,70 261.2,68.6 261.4,67.2 261.6,65.8 262,64.5 262.4,63.2 263,61.9 263.7,60.7 264.5,59.6 265.4,58.5 266.4,57.5 267.5,56.6 268.6,55.8 269.8,55.1 271.1,54.5 272.4,54 273.8,53.7 275.1,53.4 276.5,53.3 277.9,53.3 279.3,53.4 280.7,53.7 282,54 283.3,54.5 284.6,55.1 285.8,55.8 287,56.6 288,57.5 289,58.5 289.9,59.6 290.7,60.7 291.4,61.9 292,63.2 292.5,64.5 292.8,65.8 293.1,67.2 293.2,68.6" />
<path stroke="#000000" stroke-width="2" d="M 299.9,70" />
<path stroke="#000000" stroke-width="2" d="M 299.9,20 319.9,20" />
<path stroke="#000000" stroke-width="2" d="M 349.9,70" />
<path stroke="#000000" stroke-width="2" d="M 369.9,30 354.6,67" />
<path stroke="#000000" stroke-width="2" d="M 376.5,70" />
<path stroke="#000000" stroke-width="2" d="M 376.5,20 376.5,20.7 376.6,21.4 376.7,22.1 376.9,22.8 377.1,23.4 377.4,24 377.8,24.6 378.2,25.2 378.6,25.8 379.1,26.2 379.7,26.7 380.2,27.1 380.8,27.4 381.5,27.7 382.1,28 382.8,28.2 383.5,28.3 384.2,28.3 384.9,28.3 385.6,28.3 386.3,28.2 386.9,28 387.6,27.7 388.2,27.4 388.8,27.1 389.4,26.7 389.9,26.2 390.4,25.8 390.9,25.2 391.3,24.6 391.6,24 391.9,23.4 392.2,22.8 392.3,22.1 392.5,21.4 392.5,20.7" />
<path stroke="#000000" stroke-width="2" d="M 422.5,70" />
<path stroke="#000000" stroke-width="2" d="M 442.5,70 444.3,70 446,69.8 447.7,69.5 449.4,69.1 451,68.5 452.6,67.8 454.1,66.9 455.6,65.9 456.9,64.8 458.1,63.5 459.3,62.2 460.3,60.8 461.1,59.3 461.9,57.7 462.5,56 462.9,54.3 463.2,52.6 463.4,50.9 463.4,49.1 463.2,47.4 462.9,45.7 462.5,44 461.9,42.4 461.1,40.8 460.3,39.3 459.3,37.8 458.1,36.5 456.9,35.3 455.6,34.2 454.1,33.2 452.6,32.3 451,31.5 449.4,30.9 447.7,30.5 446,30.2 444.3,30 442.5,30 440.8,30.2 439.1,30.5 437.4,30.9 435.7,31.5 434.2,32.3 432.6,33.2 431.2,34.2 429.9,35.3 428.6,36.5 427.5,37.8 426.5,39.3 425.7,40.8 424.9,42.4 424.3,44 423.9,45.7 423.6,47.4 423.4,49.1 423.4,50.9 423.6,52.6 423.9,54.3 424.3,56 424.9,57.7 425.7,59.3 426.5,60.8 427.5,62.2 428.6,63.5 429.9,64.8 431.2,65.9 432.6,66.9 434.2,67.8 435.7,68.5 437.4,69.1 439.1,69.5 440.8,69.8 442.5,70" />
<path stroke="#000000" stroke-width="2" d="M 470,70" />
<path stroke="#000000" stroke-width="2" d="M 470,20 470.2,20 470.2,20.2 470,20.2 470,20" />
<path stroke="#000000" stroke-width="2" d="M 500.2,70" />
<path stroke="#000000" stroke-width="2" d="M 510.2,30 509.4,30 508.5,30.1 507.6,30.2 506.8,30.5 506,30.8 505.2,31.1 504.4,31.6 503.7,32.1 503,32.6 502.4,33.2 501.9,33.9 501.4,34.6 500.9,35.4 500.6,36.2 500.3,37 500,37.8 499.9,38.7 499.8,39.6 499.8,40.4 499.9,41.3 500,42.2 500.3,43 500.6,43.8 500.9,44.6 501.4,45.4 501.9,46.1 502.4,46.7 503,47.4 503.7,47.9 504.4,48.4 505.2,48.9 506,49.2 506.8,49.5 507.6,49.8 508.5,49.9 509.4,50 514.4,50 514.4,70" />
<path stroke="#000000" stroke-width="2" d="M 544.4,70" />
<path stroke="#000000" stroke-width="2" d="M 560.4,30 540.6,49.8 560.4,69.6" />
<path stroke="#000000" stroke-width="2" d="M 567,70" />
<path stroke="#000000" stroke-width="2" d="M 567,40 567.7,40.6 568.3,41.2 569,41.7 569.8,42.1 570.6,42.5 571.4,42.8 572.2,43 573.1,43.2 574,43.2 574.8,43.2 575.7,43.2 576.6,43 577.4,42.8 578.2,42.5 579,42.1 579.8,41.7 580.5,41.2 581.2,40.6 581.8,40 582.3,39.3 582.8,38.6 583.3,37.9 583.6,37.1 583.9,36.3 584.2,35.4 584.3,34.5 584.4,33.7 584.4,32.8 584.3,31.9 584.2,31.1 583.9,30.2 583.6,29.4 583.3,28.6 582.8,27.9 582.3,27.2 581.8,26.5 581.2,25.9 580.5,25.3 579.8,24.8 579,24.4 578.2,24 577.4,23.7 576.6,23.5 575.7,23.3 574.8,23.3 574,23.3 573.1,23.3 572.2,23.5 571.4,23.7 570.6,24 569.8,24.4 569,24.8 568.3,25.3 567.7,25.9 567,26.5 566.5,27.2 566,27.9 565.5,28.6 565.2,29.4 564.9,30.2 564.6,31.1 564.5,31.9 564.4,32.8 564.4,33.7 564.5,34.5 564.6,35.4 564.9,36.3 565.2,37.1 565.5,37.9 566,38.6 566.5,39.3 567,40 567,70" />
<path stroke="#000000" stroke-width="2" d="M 614.4,70" />
<path stroke="#000000" stroke-width="2" d="M 614.4,40 615,40.6 615.7,41.2 616.4,41.7 617.2,42.1 617.9,42.5 618.8,42.8 619.6,43 620.5,43.2 621.3,43.2 622.2,43.2 623.1,43.2 623.9,43 624.8,42.8 625.6,42.5 626.4,42.1 627.1,41.7 627.9,41.2 628.5,40.6 629.1,40 629.7,39.3 630.2,38.6 630.6,37.9 631,37.1 631.3,36.3 631.5,35.4 631.7,34.5 631.8,33.7 631.8,32.8 631.7,31.9 631.5,31.1 631.3,30.2 631,29.4 630.6,28.6 630.2,27.9 629.7,27.2 629.1,26.5 628.5,25.9 627.9,25.3 627.1,24.8 626.4,24.4 625.6,24 624.8,23.7 623.9,23.5 623.1,23.3 622.2,23.3 621.3,23.3 620.5,23.3 619.6,23.5 618.8,23.7 617.9,24 617.2,24.4 616.4,24.8 615.7,25.3 615,25.9 614.4,26.5 613.8,27.2 613.3,27.9 612.9,28.6 612.5,29.4 612.2,30.2 612,31.1 611.9,31.9 611.8,32.8 611.8,33.7 611.9,34.5 612,35.4 612.2,36.3 612.5,37.1 612.9,37.9 613.3,38.6 613.8,39.3 614.4,40 614.4,70" />
<path stroke="#000000" stroke-width="2" d="M 638.4,70" />
<path stroke="#000000" stroke-width="2" d="M 638.4,20 638.4,24 638.4,24.5 638.5,25 638.6,25.6 638.7,26.1 638.9,26.6 639.1,27 639.4,27.5 639.7,27.9 640,28.3 640.4,28.7 640.8,29 641.2,29.3 641.7,29.6 642.1,29.8 642.6,30 643.1,30.1 643.6,30.2 644.2,30.3 644.7,30.3 645.2,30.2 645.7,30.1 646.2,30 646.7,29.8 647.2,29.6 647.6,29.3 648.1,29 648.5,28.7 648.8,28.3 649.2,27.9 649.5,27.5 649.7,27 650,26.6 650.1,26.1 650.3,25.6 650.4,25 650.4,24.5 650.4,19.5 650.4,39.5" />
<path stroke="#000000" stroke-width="2" d="M 657.1,70" />
<path stroke="#000000" stroke-width="2" d="M 657.1,20 657.3,20 657.3,20.2 657.1,20.2 657.1,20" />
<path stroke="#000000" stroke-width="2" d="M 687.3,70" />
</svg>