<svg xmlns="http://www.w3.org/2000/svg" width="703.411537198904" height="102.0" style="fill:none; stroke-linecap:round;">
    <rect width="100%" height="100%" fill="#FFFFFF" />
<path stroke="#000000" stroke-width="2" d="M 375,75" />
<path stroke="#000000" stroke-width="2" d="M 20,70 20.2,70 20.2,70.2 20,70.2 20,70" />
<path stroke="#000000" stroke-width="2" d="M 26.9,70" />
<path stroke="#000000" stroke-width="2" d="M 26.9,40 27.5,40.6 28.2,41.2 28.9,41.7 29.6,42.1 30.4,42.5 31.2,42.8 32.1,43 32.9,43.2 33.8,43.2 34.7,43.2 35.5,43.2 36.4,43 37.2,42.8 38.1,42.5 38.9,42.1 39.6,41.7 40.3,41.2 41,40.6 41.6,40 42.2,39.3 42.7,38.6 43.1,37.9 43.5,37.1 43.8,36.3 44,35.4 44.2,34.5 44.2,33.7 44.2,32.8 44.2,31.9 44,31.1 43.8,30.2 43.5,29.4 43.1,28.6 42.7,27.9 42.2,27.2 41.6,26.5 41,25.9 40.3,25.3 39.6,24.8 38.9,24.4 38.1,24 37.2,23.7 36.4,23.5 35.5,23.3 34.7,23.3 33.8,23.3 32.9,23.3 32.1,23.5 31.2,23.7 30.4,24 29.6,24.4 28.9,24.8 28.2,25.3 27.5,25.9 26.9,26.5 26.3,27.2 25.8,27.9 25.4,28.6 25,29.4 24.7,30.2 24.5,31.1 24.3,31.9 24.2,32.8 24.2,33.7 24.3,34.5 24.5,35.4 24.7,36.3 25,37.1 25.4,37.9 25.8,38.6 26.3,39.3 26.9,40 26.9,70" />
<path stroke="#000000" stroke-width="2" d="M 50.9,70" />
<path stroke="#000000" stroke-width="2" d="M 50.9,50 70.9,50 71.2,50.3 71.5,50.6 71.9,50.8 72.3,51.1 72.7,51.2 73.1,51.4 73.5,51.5 73.9,51.6 74.4,51.6 74.8,51.6 75.2,51.6 75.7,51.5 76.1,51.4 76.5,51.2 76.9,51.1 77.3,50.8 77.6,50.6 78,50.3 78.3,50 78.5,49.7 78.8,49.3 79,48.9 79.2,48.5 79.4,48.1 79.5,47.7 79.5,47.3 79.6,46.8 79.6,46.4 79.5,46 79.5,45.5 79.4,45.1 79.2,44.7 79,44.3 78.8,43.9 78.5,43.6 78.3,43.2 78,42.9 77.6,42.7 77.3,42.4 76.9,42.2 76.5,42 76.1,41.9 75.7,41.7 75.2,41.7 74.8,41.6 74.4,41.6 73.9,41.7 73.5,41.7 73.1,41.9 72.7,42 72.3,42.2 71.9,42.4 71.5,42.7 71.2,42.9 70.9,43.2 70.6,43.6 70.4,43.9 70.1,44.3 70,44.7 69.8,45.1 69.7,45.5 69.6,46 69.6,46.4 69.6,46.8 69.6,47.3 69.7,47.7 69.8,48.1 70,48.5 70.1,48.9 70.4,49.3 70.6,49.7 70.9,50 70.9,65" />
<path stroke="#000000" stroke-width="2" d="M 109.6,70" />
<path stroke="#000000" stroke-width="2" d="M 119.6,30 118.7,30 117.8,30.1 117,30.2 116.1,30.5 115.3,30.8 114.5,31.1 113.8,31.6 113.1,32.1 112.4,32.6 111.8,33.2 111.2,33.9 110.7,34.6 110.3,35.4 109.9,36.2 109.6,37 109.4,37.8 109.2,38.7 109.2,39.6 109.2,40.4 109.2,41.3 109.4,42.2 109.6,43 109.9,43.8 110.3,44.6 110.7,45.4 111.2,46.1 111.8,46.7 112.4,47.4 113.1,47.9 113.8,48.4 114.5,48.9 115.3,49.2 116.1,49.5 117,49.8 117.8,49.9 118.7,50 123.7,50 123.7,70" />
<path stroke="#000000" stroke-width="2" d="M 153.7,70" />
<path stroke="#000000" stroke-width="2" d="M 153.7,70 169,33 169,73 169,61 169,59.3 169.2,57.6 169.5,55.8 169.9,54.2 170.5,52.5 171.3,50.9 172.1,49.4 173.1,48 174.2,46.7 175.5,45.4 176.8,44.3 178.2,43.3 179.8,42.4 181.3,41.7 183,41.1" />
<path stroke="#000000" stroke-width="2" d="M 189.6,70" />
<path stroke="#000000" stroke-width="2" d="M 189.6,70 201.1,42.3 201.4,42.5 201.6,42.8 201.9,43 202.2,43.1 202.5,43.3 202.9,43.4 203.2,43.5 203.6,43.5 203.9,43.6 204.3,43.6 204.6,43.5 204.9,43.5 205.3,43.4 205.6,43.3 205.9,43.1 206.2,43 206.5,42.8 206.8,42.5 207,42.3 207.2,42 207.4,41.7 207.6,41.4 207.8,41.1 207.9,40.8 208,40.4 208,40.1 208.1,39.8 208.1,39.4 208,39.1 208,38.7 207.9,38.4 207.8,38.1 207.6,37.7 207.4,37.4 207.2,37.1 207,36.9 206.8,36.6 206.5,36.4 206.2,36.2 205.9,36 205.6,35.9 205.3,35.8 204.9,35.7 204.6,35.6 204.3,35.6 203.9,35.6 203.6,35.6 203.2,35.7 202.9,35.8 202.5,35.9 202.2,36 201.9,36.2 201.6,36.4 201.4,36.6 201.1,36.9 200.9,37.1 200.7,37.4 200.5,37.7 200.4,38.1 200.3,38.4 200.2,38.7 200.1,39.1 200.1,39.4 200.1,39.8 200.1,40.1 200.2,40.4 200.3,40.8 200.4,41.1 200.5,41.4 200.7,41.7 200.9,42 201.1,42.3 201.1,72.3" />
<path stroke="#000000" stroke-width="2" d="M 238.1,70" />
<path stroke="#000000" stroke-width="2" d="M 238.1,70" />
<path stroke="#000000" stroke-width="2" d="M 238.1,70 239.2,70 240.2,70.2 241,70.4 241.7,70.7 242.3,71 242.7,71.5 243.1,71.9 243.3,72.5 243.3,73.1 243.3,73.8 243.2,74.4 243,75.2 242.6,76 242.2,76.8 241.7,77.6 241.1,78.4 240.5,79.3 239.7,80.2 238.9,81.1 238.1,82" />
<path stroke="#000000" stroke-width="2" d="M 273.3,70" />
<path stroke="#000000" stroke-width="2" d="M 283.3,50 284.2,50 285.1,49.9 285.9,49.8 286.8,49.5 287.6,49.2 288.4,48.9 289.2,48.4 289.9,47.9 290.5,47.4 291.2,46.8 291.7,46.1 292.2,45.4 292.7,44.6 293,43.8 293.3,43 293.5,42.2 293.7,41.3 293.8,40.4 293.8,39.6 293.7,38.7 293.5,37.8 293.3,37 293,36.2 292.7,35.4 292.2,34.6 291.7,33.9 291.2,33.3 290.5,32.6 289.9,32.1 289.2,31.6 288.4,31.1 287.6,30.8 286.8,30.5 285.9,30.2 285.1,30.1 284.2,30 283.3,30 282.5,30.1 281.6,30.2 280.8,30.5 280,30.8 279.2,31.1 278.4,31.6 277.7,32.1 277,32.6 276.4,33.3 275.8,33.9 275.3,34.6 274.9,35.4 274.5,36.2 274.2,37 274,37.8 273.9,38.7 273.8,39.6 273.8,40.4 273.9,41.3 274,42.2 274.2,43 274.5,43.8 274.9,44.6 275.3,45.4 275.8,46.1 276.4,46.8 277,47.4 277.7,47.9 278.4,48.4 279.2,48.9 280,49.2 280.8,49.5 281.6,49.8 282.5,49.9 283.3,50 283.3,70 283.3,64 283.3,63.1 283.4,62.3 283.6,61.4 283.8,60.6 284.1,59.7 284.5,58.9 284.9,58.2 285.4,57.5 286,56.8 286.6,56.2 287.2,55.6 288,55.1 288.7,54.7 289.5,54.3 290.3,54 291.2,53.8 292,53.6 292.9,53.6" />
<path stroke="#000000" stroke-width="2" d="M 323.8,70" />
<path stroke="#000000" stroke-width="2" d="M 323.8,30 323.8,70 335.1,58.7" />
<path stroke="#000000" stroke-width="2" d="M 341.8,70" />
<path stroke="#000000" stroke-width="2" d="M 341.8,25 342.1,25.3 342.4,25.6 342.8,25.8 343.1,26.1 343.5,26.2 343.9,26.4 344.4,26.5 344.8,26.6 345.2,26.6 345.7,26.6 346.1,26.6 346.5,26.5 346.9,26.4 347.4,26.2 347.7,26.1 348.1,25.8 348.5,25.6 348.8,25.3 349.1,25 349.4,24.7 349.7,24.3 349.9,23.9 350.1,23.5 350.2,23.1 350.3,22.7 350.4,22.3 350.4,21.8 350.4,21.4 350.4,21 350.3,20.5 350.2,20.1 350.1,19.7 349.9,19.3 349.7,18.9 349.4,18.6 349.1,18.2 348.8,17.9 348.5,17.7 348.1,17.4 347.7,17.2 347.4,17 346.9,16.9 346.5,16.7 346.1,16.7 345.7,16.6 345.2,16.6 344.8,16.7 344.4,16.7 343.9,16.9 343.5,17 343.1,17.2 342.8,17.4 342.4,17.7 342.1,17.9 341.8,18.2 341.5,18.6 341.2,18.9 341,19.3 340.8,19.7 340.7,20.1 340.6,20.5 340.5,21 340.4,21.4 340.4,21.8 340.5,22.3 340.6,22.7 340.7,23.1 340.8,23.5 341,23.9 341.2,24.3 341.5,24.7 341.8,25 341.8,40" />
<path stroke="#000000" stroke-width="2" d="M 380.4,70" />
<path stroke="#000000" stroke-width="2" d="M 380.4,50 388.1,31.5 408.1,31.5" />
<path stroke="#000000" stroke-width="2" d="M 438.1,70" />
<path stroke="#000000" stroke-width="2" d="M 438.1,50 445.7,31.5 445.7,51.5 441.7,51.5" />
<path stroke="#000000" stroke-width="2" d="M 475.7,70" />
<path stroke="#000000" stroke-width="2" d="M 475.7,30 479.6,39.2" />
<path stroke="#000000" stroke-width="2" d="M 479.6,39.2 481.5,41.4 482.8,43.3 483.6,45 483.9,46.4 483.8,47.7 483.3,48.7 482.6,49.5 481.7,50 480.7,50.4 479.6,50.5 478.5,50.4 477.4,50 476.5,49.5 475.8,48.7 475.3,47.7 475.2,46.4 475.6,45 476.3,43.3 477.6,41.4 479.6,39.2 483.4,30 503.4,30 504.3,30 505.1,30.1 506,30.2 506.8,30.5 507.7,30.8 508.4,31.1 509.2,31.6 509.9,32.1 510.6,32.6 511.2,33.2 511.8,33.9 512.3,34.6 512.7,35.4 513.1,36.2 513.4,37 513.6,37.8 513.7,38.7 513.8,39.6 513.8,40.4 513.7,41.3 513.6,42.2 513.4,43 513.1,43.8 512.7,44.6 512.3,45.4 511.8,46.1 511.2,46.7 510.6,47.4 509.9,47.9 509.2,48.4 508.4,48.9 507.7,49.2 506.8,49.5 506,49.8 505.1,49.9 504.3,50 504.9,49.4 505.6,48.8 506.3,48.3 507,47.9 507.8,47.5 508.6,47.2 509.5,47 510.3,46.8 511.2,46.7 512.1,46.7 512.9,46.8 513.8,47 514.6,47.2 515.5,47.5 516.3,47.9" />
<path stroke="#000000" stroke-width="2" d="M 522.9,70" />
<path stroke="#000000" stroke-width="2" d="M 522.9,20 530.6,38.5 531.4,38.5 532.3,38.6 533.2,38.7 534,38.9 534.8,39.2 535.6,39.6 536.4,40 537.1,40.5 537.8,41.1 538.4,41.7 538.9,42.4 539.4,43.1 539.9,43.9 540.3,44.6 540.6,45.5 540.8,46.3 540.9,47.2 541,48 541,48.9 540.9,49.8 540.8,50.6 540.6,51.5 540.3,52.3 539.9,53.1 539.4,53.8 538.9,54.6 538.4,55.2 537.8,55.8 537.1,56.4 536.4,56.9 535.6,57.3 534.8,57.7 534,58 533.2,58.2 532.3,58.4 531.4,58.5" />
<path stroke="#000000" stroke-width="2" d="M 571,70" />
<path stroke="#000000" stroke-width="2" d="M 581,30 580.1,30 579.3,30.1 578.4,30.2 577.6,30.5 576.7,30.8 575.9,31.1 575.2,31.6 574.5,32.1 573.8,32.6 573.2,33.2 572.6,33.9 572.1,34.6 571.7,35.4 571.3,36.2 571,37 570.8,37.8 570.7,38.7 570.6,39.6 570.6,40.4 570.7,41.3 570.8,42.2 571,43 571.3,43.8 571.7,44.6 572.1,45.4 572.6,46.1 573.2,46.7 573.8,47.4 574.5,47.9 575.2,48.4 575.9,48.9 576.7,49.2 577.6,49.5 578.4,49.8 579.3,49.9 580.1,50 585.1,50 585.1,70" />
<path stroke="#000000" stroke-width="2" d="M 615.1,70" />
<path stroke="#000000" stroke-width="2" d="M 615.1,70 615.3,70 615.3,70.2 615.1,70.2 615.1,70" />
<path stroke="#000000" stroke-width="2" d="M 645.3,70" />
<path stroke="#000000" stroke-width="2" d="M 645.3,50 653,31.5 673,31.5 673.9,31.5 674.7,31.6 675.6,31.7 676.4,32 677.2,32.3 678,32.6 678.8,33.1 679.5,33.6 680.2,34.1 680.8,34.8 681.4,35.4 681.9,36.1 682.3,36.9 682.7,37.7 683,38.5 683.2,39.3 683.3,40.2 683.4,41.1 683.4,41.9 683.3,42.8 683.2,43.7 683,44.5 682.7,45.3 682.3,46.1 681.9,46.9 681.4,47.6 680.8,48.3 680.2,48.9 679.5,49.4 678.8,49.9 678,50.4 677.2,50.8 676.4,51.1 675.6,51.3 674.7,51.4 673.9,51.5" />
<path stroke="#000000" stroke-width="2" d="M 713.4,70" />
</svg>