<svg xmlns="http://www.w3.org/2000/svg" width="818.299340371989" height="93.3723137837514" style="fill:none; stroke-linecap:round;">
    <rect width="100%" height="100%" fill="#F3F3F7" />
<path stroke="#663399" stroke-width="2" d="M 425,75" />
<path stroke="#663399" stroke-width="2" d="M 20,50 27.7,31.5 35.3,50 55.3,50 56.2,50 57,50.1 57.9,50.2 58.8,50.5 59.6,50.8 60.4,51.1 61.1,51.6 61.8,52.1 62.5,52.6 63.1,53.2 63.7,53.9 64.2,54.6 64.6,55.4 65,56.2 65.3,57 65.5,57.8 65.7,58.7 65.7,59.6 65.7,60.4 65.7,61.3 65.5,62.2 65.3,63 65,63.8 64.6,64.6 64.2,65.4 63.7,66.1 63.1,66.7 62.5,67.4 61.8,67.9 61.1,68.4 60.4,68.9 59.6,69.2 58.8,69.5 57.9,69.8 57,69.9 56.2,70" />
<path stroke="#663399" stroke-width="2" d="M 95.7,70" />
<path stroke="#663399" stroke-width="2" d="M 95.7,30 95.7,70 95.7,58 95.7,56.3 95.9,54.5 96.2,52.8 96.6,51.1 97.2,49.5 98,47.9 98.8,46.4 99.8,45 101,43.6 102.2,42.4 103.5,41.3 105,40.3 106.5,39.4 108.1,38.7 109.7,38.1 111.4,37.6 113.1,37.3 114.8,37.1" />
<path stroke="#663399" stroke-width="2" d="M 121.5,70" />
<path stroke="#663399" stroke-width="2" d="M 121.5,35 121.8,35.3 122.2,35.6 122.5,35.8 122.9,36.1 123.3,36.2 123.7,36.4 124.1,36.5 124.5,36.6 125,36.6 125.4,36.6 125.8,36.6 126.3,36.5 126.7,36.4 127.1,36.2 127.5,36.1 127.9,35.8 128.2,35.6 128.6,35.3 128.9,35 129.2,34.7 129.4,34.3 129.6,33.9 129.8,33.5 130,33.1 130.1,32.7 130.2,32.3 130.2,31.8 130.2,31.4 130.2,31 130.1,30.5 130,30.1 129.8,29.7 129.6,29.3 129.4,28.9 129.2,28.6 128.9,28.2 128.6,27.9 128.2,27.7 127.9,27.4 127.5,27.2 127.1,27 126.7,26.9 126.3,26.7 125.8,26.7 125.4,26.6 125,26.6 124.5,26.7 124.1,26.7 123.7,26.9 123.3,27 122.9,27.2 122.5,27.4 122.2,27.7 121.8,27.9 121.5,28.2 121.2,28.6 121,28.9 120.8,29.3 120.6,29.7 120.4,30.1 120.3,30.5 120.2,31 120.2,31.4 120.2,31.8 120.2,32.3 120.3,32.7 120.4,33.1 120.6,33.5 120.8,33.9 121,34.3 121.2,34.7 121.5,35 121.5,50" />
<path stroke="#663399" stroke-width="2" d="M 136.9,70" />
<path stroke="#663399" stroke-width="2" d="M 160.2,70" />
<path stroke="#663399" stroke-width="2" d="M 170.2,30 169.3,30 168.4,30.1 167.6,30.2 166.7,30.5 165.9,30.8 165.1,31.1 164.4,31.6 163.7,32.1 163,32.6 162.4,33.2 161.8,33.9 161.3,34.6 160.9,35.4 160.5,36.2 160.2,37 160,37.8 159.8,38.7 159.8,39.6 159.8,40.4 159.8,41.3 160,42.2 160.2,43 160.5,43.8 160.9,44.6 161.3,45.4 161.8,46.1 162.4,46.7 163,47.4 163.7,47.9 164.4,48.4 165.1,48.9 165.9,49.2 166.7,49.5 167.6,49.8 168.4,49.9 169.3,50 174.3,50 174.3,70" />
<path stroke="#663399" stroke-width="2" d="M 204.3,70" />
<path stroke="#663399" stroke-width="2" d="M 204.3,40 204.9,40.6 205.6,41.2 206.3,41.7 207.1,42.1 207.9,42.5 208.7,42.8 209.5,43 210.4,43.2 211.3,43.2 212.1,43.2 213,43.2 213.9,43 214.7,42.8 215.5,42.5 216.3,42.1 217.1,41.7 217.8,41.2 218.4,40.6 219.1,40 219.6,39.3 220.1,38.6 220.6,37.9 220.9,37.1 221.2,36.3 221.5,35.4 221.6,34.5 221.7,33.7 221.7,32.8 221.6,31.9 221.5,31.1 221.2,30.2 220.9,29.4 220.6,28.6 220.1,27.9 219.6,27.2 219.1,26.5 218.4,25.9 217.8,25.3 217.1,24.8 216.3,24.4 215.5,24 214.7,23.7 213.9,23.5 213,23.3 212.1,23.3 211.3,23.3 210.4,23.3 209.5,23.5 208.7,23.7 207.9,24 207.1,24.4 206.3,24.8 205.6,25.3 204.9,25.9 204.3,26.5 203.8,27.2 203.3,27.9 202.8,28.6 202.5,29.4 202.2,30.2 201.9,31.1 201.8,31.9 201.7,32.8 201.7,33.7 201.8,34.5 201.9,35.4 202.2,36.3 202.5,37.1 202.8,37.9 203.3,38.6 203.8,39.3 204.3,40 204.3,70" />
<path stroke="#663399" stroke-width="2" d="M 228.3,70" />
<path stroke="#663399" stroke-width="2" d="M 228.3,50 248.3,50 248.7,50.3 249,50.6 249.3,50.8 249.7,51.1 250.1,51.2 250.5,51.4 251,51.5 251.4,51.6 251.8,51.6 252.3,51.6 252.7,51.6 253.1,51.5 253.5,51.4 253.9,51.2 254.3,51.1 254.7,50.8 255.1,50.6 255.4,50.3 255.7,50 256,49.7 256.3,49.3 256.5,48.9 256.7,48.5 256.8,48.1 256.9,47.7 257,47.3 257,46.8 257,46.4 257,46 256.9,45.5 256.8,45.1 256.7,44.7 256.5,44.3 256.3,43.9 256,43.6 255.7,43.2 255.4,42.9 255.1,42.7 254.7,42.4 254.3,42.2 253.9,42 253.5,41.9 253.1,41.7 252.7,41.7 252.3,41.6 251.8,41.6 251.4,41.7 251,41.7 250.5,41.9 250.1,42 249.7,42.2 249.3,42.4 249,42.7 248.7,42.9 248.3,43.2 248.1,43.6 247.8,43.9 247.6,44.3 247.4,44.7 247.3,45.1 247.2,45.5 247.1,46 247,46.4 247,46.8 247.1,47.3 247.2,47.7 247.3,48.1 247.4,48.5 247.6,48.9 247.8,49.3 248.1,49.7 248.3,50 248.3,65" />
<path stroke="#663399" stroke-width="2" d="M 287,70" />
<path stroke="#663399" stroke-width="2" d="M 297,30 296.2,30 295.3,30.1 294.4,30.2 293.6,30.5 292.8,30.8 292,31.1 291.2,31.6 290.5,32.1 289.8,32.6 289.2,33.2 288.7,33.9 288.2,34.6 287.7,35.4 287.4,36.2 287.1,37 286.8,37.8 286.7,38.7 286.6,39.6 286.6,40.4 286.7,41.3 286.8,42.2 287.1,43 287.4,43.8 287.7,44.6 288.2,45.4 288.7,46.1 289.2,46.7 289.8,47.4 290.5,47.9 291.2,48.4 292,48.9 292.8,49.2 293.6,49.5 294.4,49.8 295.3,49.9 296.2,50 301.2,50 301.2,70" />
<path stroke="#663399" stroke-width="2" d="M 331.2,70" />
<path stroke="#663399" stroke-width="2" d="M 331.2,50 338.8,31.5 346.5,50 346.5,70 346.5,64 346.5,63.1 346.5,62.3 346.7,61.4 346.9,60.6 347.2,59.7 347.6,58.9 348,58.2 348.5,57.5 349.1,56.8 349.7,56.2 350.4,55.6 351.1,55.1 351.8,54.7 352.6,54.3 353.4,54 354.3,53.8 355.2,53.6 356,53.6 364.5,62.1" />
<path stroke="#663399" stroke-width="2" d="M 373,53.6 353.2,73.4" />
<path stroke="#663399" stroke-width="2" d="M 379.7,70" />
<path stroke="#663399" stroke-width="2" d="M 379.7,25 380,25.3 380.3,25.6 380.7,25.8 381,26.1 381.4,26.2 381.8,26.4 382.3,26.5 382.7,26.6 383.1,26.6 383.6,26.6 384,26.6 384.4,26.5 384.8,26.4 385.3,26.2 385.7,26.1 386,25.8 386.4,25.6 386.7,25.3 387,25 387.3,24.7 387.6,24.3 387.8,23.9 388,23.5 388.1,23.1 388.2,22.7 388.3,22.3 388.3,21.8 388.3,21.4 388.3,21 388.2,20.5 388.1,20.1 388,19.7 387.8,19.3 387.6,18.9 387.3,18.6 387,18.2 386.7,17.9 386.4,17.7 386,17.4 385.7,17.2 385.3,17 384.8,16.9 384.4,16.7 384,16.7 383.6,16.6 383.1,16.6 382.7,16.7 382.3,16.7 381.8,16.9 381.4,17 381,17.2 380.7,17.4 380.3,17.7 380,17.9 379.7,18.2 379.4,18.6 379.1,18.9 378.9,19.3 378.7,19.7 378.6,20.1 378.5,20.5 378.4,21 378.3,21.4 378.3,21.8 378.4,22.3 378.5,22.7 378.6,23.1 378.7,23.5 378.9,23.9 379.1,24.3 379.4,24.7 379.7,25 379.7,40" />
<path stroke="#663399" stroke-width="2" d="M 418.3,70" />
<path stroke="#663399" stroke-width="2" d="M 438.3,70 440.1,70 441.8,69.8 443.5,69.5 445.2,69.1 446.9,68.5 448.4,67.8 450,66.9 451.4,65.9 452.7,64.8 454,63.5 455.1,62.2 456.1,60.8 457,59.3 457.7,57.7 458.3,56 458.7,54.3 459,52.6 459.2,50.9 459.2,49.1 459,47.4 458.7,45.7 458.3,44 457.7,42.4 457,40.8 456.1,39.3 455.1,37.8 454,36.5 452.7,35.3 451.4,34.2 450,33.2 448.4,32.3 446.9,31.5 445.2,30.9 443.5,30.5 441.8,30.2 440.1,30 438.3,30 436.6,30.2 434.9,30.5 433.2,30.9 431.6,31.5 430,32.3 428.5,33.2 427,34.2 425.7,35.3 424.5,36.5 423.3,37.8 422.3,39.3 421.5,40.8 420.7,42.4 420.1,44 419.7,45.7 419.4,47.4 419.2,49.1 419.2,50.9 419.4,52.6 419.7,54.3 420.1,56 420.7,57.7 421.5,59.3 422.3,60.8 423.3,62.2 424.5,63.5 425.7,64.8 427,65.9 428.5,66.9 430,67.8 431.6,68.5 433.2,69.1 434.9,69.5 436.6,69.8 438.3,70" />
<path stroke="#663399" stroke-width="2" d="M 465.9,70" />
<path stroke="#663399" stroke-width="2" d="M 465.9,20 465.9,40 465.9,34 465.9,33.1 465.9,32.3 466.1,31.4 466.3,30.6 466.6,29.7 467,28.9 467.4,28.2 467.9,27.5 468.5,26.8 469.1,26.2 469.8,25.6 470.5,25.1 471.2,24.7 472,24.3 472.8,24 473.7,23.8 474.5,23.6 475.4,23.6" />
<path stroke="#663399" stroke-width="2" d="M 482.1,70" />
<path stroke="#663399" stroke-width="2" d="M 505.4,70" />
<path stroke="#663399" stroke-width="2" d="M 505.4,30 505.4,70 516.7,58.7" />
<path stroke="#663399" stroke-width="2" d="M 523.4,70" />
<path stroke="#663399" stroke-width="2" d="M 523.4,25 523.7,25.3 524,25.6 524.4,25.8 524.8,26.1 525.2,26.2 525.6,26.4 526,26.5 526.4,26.6 526.9,26.6 527.3,26.6 527.7,26.6 528.2,26.5 528.6,26.4 529,26.2 529.4,26.1 529.8,25.8 530.1,25.6 530.5,25.3 530.8,25 531,24.7 531.3,24.3 531.5,23.9 531.7,23.5 531.8,23.1 532,22.7 532,22.3 532.1,21.8 532.1,21.4 532,21 532,20.5 531.8,20.1 531.7,19.7 531.5,19.3 531.3,18.9 531,18.6 530.8,18.2 530.5,17.9 530.1,17.7 529.8,17.4 529.4,17.2 529,17 528.6,16.9 528.2,16.7 527.7,16.7 527.3,16.6 526.9,16.6 526.4,16.7 526,16.7 525.6,16.9 525.2,17 524.8,17.2 524.4,17.4 524,17.7 523.7,17.9 523.4,18.2 523.1,18.6 522.9,18.9 522.6,19.3 522.5,19.7 522.3,20.1 522.2,20.5 522.1,21 522.1,21.4 522.1,21.8 522.1,22.3 522.2,22.7 522.3,23.1 522.5,23.5 522.6,23.9 522.9,24.3 523.1,24.7 523.4,25 523.4,40" />
<path stroke="#663399" stroke-width="2" d="M 562.1,70" />
<path stroke="#663399" stroke-width="2" d="M 562.1,50 569.7,31.5 577.4,50 597.4,50" />
<path stroke="#663399" stroke-width="2" d="M 627.4,70" />
<path stroke="#663399" stroke-width="2" d="M 627.4,50 635,31.5 642.7,50 642.7,54 642.7,54.5 642.7,55 642.8,55.6 643,56.1 643.1,56.6 643.4,57 643.6,57.5 643.9,57.9 644.3,58.3 644.6,58.7 645,59 645.5,59.3 645.9,59.6 646.4,59.8 646.9,60 647.4,60.1 647.9,60.2 648.4,60.3 648.9,60.3 649.5,60.2 650,60.1 650.5,60 651,59.8 651.5,59.6 651.9,59.3 652.3,59 652.7,58.7 653.1,58.3 653.4,57.9 653.7,57.5 654,57 654.2,56.6 654.4,56.1 654.5,55.6 654.6,55 654.7,54.5 654.7,49.5 654.7,69.5" />
<path stroke="#663399" stroke-width="2" d="M 661.3,70" />
<path stroke="#663399" stroke-width="2" d="M 684.7,70" />
<path stroke="#663399" stroke-width="2" d="M 684.7,30 688.5,39.2" />
<path stroke="#663399" stroke-width="2" d="M 688.5,39.2 690.4,41.4 691.7,43.3 692.5,45 692.8,46.4 692.7,47.7 692.3,48.7 691.6,49.5 690.7,50 689.6,50.4 688.5,50.5 687.4,50.4 686.3,50 685.4,49.5 684.7,48.7 684.3,47.7 684.2,46.4 684.5,45 685.3,43.3 686.6,41.4 688.5,39.2 692.3,30 712.3,30 713.2,30 714.1,30.1 714.9,30.2 715.8,30.5 716.6,30.8 717.4,31.1 718.1,31.6 718.9,32.1 719.5,32.6 720.1,33.2 720.7,33.9 721.2,34.6 721.6,35.4 722,36.2 722.3,37 722.5,37.8 722.7,38.7 722.8,39.6 722.8,40.4 722.7,41.3 722.5,42.2 722.3,43 722,43.8 721.6,44.6 721.2,45.4 720.7,46.1 720.1,46.7 719.5,47.4 718.9,47.9 718.1,48.4 717.4,48.9 716.6,49.2 715.8,49.5 714.9,49.8 714.1,49.9 713.2,50 713.2,70 713.2,64 713.2,63.1 713.3,62.2 713.4,61.4 713.7,60.5 714,59.7 714.3,58.9 714.8,58.2 715.3,57.5 715.8,56.8 716.4,56.2 717.1,55.6 717.8,55.1 718.6,54.7 719.4,54.3 720.2,54 721,53.8 721.9,53.6 722.8,53.6" />
<path stroke="#663399" stroke-width="2" d="M 729.4,70" />
<path stroke="#663399" stroke-width="2" d="M 729.4,70" />
<path stroke="#663399" stroke-width="2" d="M 729.4,20 737.1,38.5" />
<path stroke="#663399" stroke-width="2" d="M 743.7,70" />
<path stroke="#663399" stroke-width="2" d="M 743.7,20 744.6,20 745.5,20.1 746.3,20.2 747.2,20.5 748,20.8 748.8,21.1 749.6,21.6 750.3,22.1 750.9,22.6 751.6,23.2 752.1,23.9 752.6,24.6 753.1,25.4 753.4,26.2 753.7,27 753.9,27.8 754.1,28.7 754.2,29.6 754.2,30.4 754.1,31.3 753.9,32.2 753.7,33 753.4,33.8 753.1,34.6 752.6,35.4 752.1,36.1 751.6,36.7 750.9,37.4 750.3,37.9 749.6,38.4 748.8,38.9 748,39.2 747.2,39.5 746.3,39.8 745.5,39.9 744.6,40" />
<path stroke="#663399" stroke-width="2" d="M 784.2,70" />
<path stroke="#663399" stroke-width="2" d="M 794.2,30 793.3,30 792.4,30.1 791.6,30.2 790.7,30.5 789.9,30.8 789.1,31.1 788.4,31.6 787.6,32.1 787,32.6 786.4,33.2 785.8,33.9 785.3,34.6 784.9,35.4 784.5,36.2 784.2,37 784,37.8 783.8,38.7 783.7,39.6 783.7,40.4 783.8,41.3 784,42.2 784.2,43 784.5,43.8 784.9,44.6 785.3,45.4 785.8,46.1 786.4,46.7 787,47.4 787.6,47.9 788.4,48.4 789.1,48.9 789.9,49.2 790.7,49.5 791.6,49.8 792.4,49.9 793.3,50 798.3,50 798.3,70" />
<path stroke="#663399" stroke-width="2" d="M 828.3,70" />
</svg>