<svg xmlns="http://www.w3.org/2000/svg" width="624.296617743266" height="109.57894417808382" style="fill:none; stroke-linecap:round;">
    <rect width="100%" height="100%" fill="#F3F3F7" />
<path stroke="#663399" stroke-width="2" d="M 375,75" />
<path stroke="#663399" stroke-width="2" d="M 20,30 20,31.4 20.1,32.8 20.4,34.2 20.7,35.5 21.2,36.8 21.8,38.1 22.5,39.3 23.3,40.4 24.2,41.5 25.2,42.5 26.2,43.4 27.4,44.2 28.6,44.9 29.9,45.5 31.2,46 32.5,46.3 33.9,46.6 35.3,46.7 36.7,46.7 38.1,46.6 39.4,46.3 40.8,46 42.1,45.5 43.4,44.9 44.6,44.2 45.7,43.4 46.8,42.5 47.8,41.5 48.7,40.4 49.5,39.3 50.2,38.1 50.8,36.8 51.2,35.5 51.6,34.2 51.8,32.8 52,31.4" />
<path stroke="#663399" stroke-width="2" d="M 58.6,70" />
<path stroke="#663399" stroke-width="2" d="M 68.6,20 61,38.5" />
<path stroke="#663399" stroke-width="2" d="M 98.6,70" />
<path stroke="#663399" stroke-width="2" d="M 98.6,30 113.9,67" />
<path stroke="#663399" stroke-width="2" d="M 120.6,70" />
<path stroke="#663399" stroke-width="2" d="M 143.9,70" />
<path stroke="#663399" stroke-width="2" d="M 163.9,30 148.6,67" />
<path stroke="#663399" stroke-width="2" d="M 170.6,70" />
<path stroke="#663399" stroke-width="2" d="M 170.6,20 170.6,20.7 170.7,21.4 170.8,22.1 171,22.8 171.2,23.4 171.5,24 171.9,24.6 172.3,25.2 172.7,25.8 173.2,26.2 173.7,26.7 174.3,27.1 174.9,27.4 175.5,27.7 176.2,28 176.9,28.2 177.6,28.3 178.3,28.3 179,28.3 179.6,28.3 180.3,28.2 181,28 181.7,27.7 182.3,27.4 182.9,27.1 183.5,26.7 184,26.2 184.5,25.8 184.9,25.2 185.3,24.6 185.7,24 186,23.4 186.2,22.8 186.4,22.1 186.5,21.4 186.6,20.7 186.6,21.4 186.7,22.1 186.8,22.8 187,23.5 187.2,24.1 187.5,24.7 187.8,25.3 188.2,25.9 188.7,26.5 189.2,26.9 189.7,27.4 190.3,27.8 190.9,28.1 191.5,28.4 192.2,28.7 192.9,28.9 193.5,29 194.2,29 194.9,29 195.6,29 196.3,28.9 197,28.7 197.6,28.4 198.3,28.1 198.9,27.8 199.5,27.4 200,26.9 200.5,26.5 200.9,25.9 201.3,25.3 201.7,24.7 202,24.1 202.2,23.5 202.4,22.8 202.5,22.1 202.6,21.4" />
<path stroke="#663399" stroke-width="2" d="M 232.6,70" />
<path stroke="#663399" stroke-width="2" d="M 236.6,30 253.6,47" />
<path stroke="#663399" stroke-width="2" d="M 270.5,30 230.9,69.6 230.1,69.6 229.2,69.7 228.3,69.8 227.5,70.1 226.7,70.3 225.9,70.7 225.1,71.2 224.4,71.7 223.7,72.2 223.1,72.8 222.6,73.5 222.1,74.2 221.6,75 221.2,75.8 220.9,76.6 220.7,77.4 220.6,78.3 220.5,79.2 220.5,80 220.6,80.9 220.7,81.8 220.9,82.6 221.2,83.4 221.6,84.2 222.1,85 222.6,85.7 223.1,86.3 223.7,87 224.4,87.5 225.1,88 225.9,88.5 226.7,88.8 227.5,89.1 228.3,89.4 229.2,89.5 230.1,89.6" />
<path stroke="#663399" stroke-width="2" d="M 277.2,70" />
<path stroke="#663399" stroke-width="2" d="M 300.5,70" />
<path stroke="#663399" stroke-width="2" d="M 310.5,30 309.6,30 308.8,30.1 307.9,30.2 307.1,30.5 306.3,30.8 305.5,31.1 304.7,31.6 304,32.1 303.3,32.6 302.7,33.2 302.2,33.9 301.7,34.6 301.2,35.4 300.8,36.2 300.5,37 300.3,37.8 300.2,38.7 300.1,39.6 300.1,40.4 300.2,41.3 300.3,42.2 300.5,43 300.8,43.8 301.2,44.6 301.7,45.4 302.2,46.1 302.7,46.7 303.3,47.4 304,47.9 304.7,48.4 305.5,48.9 306.3,49.2 307.1,49.5 307.9,49.8 308.8,49.9 309.6,50 314.6,50 314.6,70" />
<path stroke="#663399" stroke-width="2" d="M 344.6,70" />
<path stroke="#663399" stroke-width="2" d="M 344.6,30 346.4,30 348.1,30.2 349.8,30.5 351.5,30.9 353.2,31.5 354.8,32.2 356.3,33.1 357.7,34.1 359,35.2 360.3,36.5 361.4,37.8 362.4,39.2 363.3,40.7 364,42.3 364.6,44 365,45.7 365.3,47.4 365.5,49.1 365.5,50.9 365.3,52.6 365,54.3 364.6,56 364,57.6 363.3,59.2 362.4,60.7 361.4,62.2 360.3,63.5 359,64.7 357.7,65.8 356.3,66.8 354.8,67.7 353.2,68.5 351.5,69.1 349.8,69.5 348.1,69.8 346.4,70" />
<path stroke="#663399" stroke-width="2" d="M 372.2,70" />
<path stroke="#663399" stroke-width="2" d="M 374.2,20 382.7,28.5" />
<path stroke="#663399" stroke-width="2" d="M 391.1,20 371.3,39.8 371.6,40.1 372,40.4 372.3,40.6 372.7,40.9 373.1,41 373.5,41.2 373.9,41.3 374.4,41.4 374.8,41.4 375.2,41.4 375.7,41.4 376.1,41.3 376.5,41.2 376.9,41 377.3,40.9 377.7,40.6 378.1,40.4 378.4,40.1 378.7,39.8 379,39.5 379.2,39.1 379.5,38.7 379.6,38.3 379.8,37.9 379.9,37.5 380,37.1 380,36.6 380,36.2 380,35.8 379.9,35.3 379.8,34.9 379.6,34.5 379.5,34.1 379.2,33.7 379,33.4 378.7,33 378.4,32.7 378.1,32.5 377.7,32.2 377.3,32 376.9,31.8 376.5,31.7 376.1,31.5 375.7,31.5 375.2,31.4 374.8,31.4 374.4,31.5 373.9,31.5 373.5,31.7 373.1,31.8 372.7,32 372.3,32.2 372,32.5 371.6,32.7 371.3,33 371.1,33.4 370.8,33.7 370.6,34.1 370.4,34.5 370.3,34.9 370.1,35.3 370.1,35.8 370,36.2 370,36.6 370.1,37.1 370.1,37.5 370.3,37.9 370.4,38.3 370.6,38.7 370.8,39.1 371.1,39.5 371.3,39.8 371.3,54.8" />
<path stroke="#663399" stroke-width="2" d="M 421.1,70" />
<path stroke="#663399" stroke-width="2" d="M 431.1,30 430.3,30 429.4,30.1 428.5,30.2 427.7,30.5 426.9,30.8 426.1,31.1 425.3,31.6 424.6,32.1 423.9,32.6 423.3,33.2 422.8,33.9 422.3,34.6 421.8,35.4 421.5,36.2 421.2,37 420.9,37.8 420.8,38.7 420.7,39.6 420.7,40.4 420.8,41.3 420.9,42.2 421.2,43 421.5,43.8 421.8,44.6 422.3,45.4 422.8,46.1 423.3,46.7 423.9,47.4 424.6,47.9 425.3,48.4 426.1,48.9 426.9,49.2 427.7,49.5 428.5,49.8 429.4,49.9 430.3,50 435.3,50 435.3,70" />
<path stroke="#663399" stroke-width="2" d="M 465.3,70" />
<path stroke="#663399" stroke-width="2" d="M 481.3,30 461.5,49.8 481.3,69.6" />
<path stroke="#663399" stroke-width="2" d="M 487.9,70" />
<path stroke="#663399" stroke-width="2" d="M 487.9,30 487.9,34 487.9,34.5 488,35 488.1,35.6 488.2,36.1 488.4,36.6 488.6,37 488.9,37.5 489.2,37.9 489.5,38.3 489.9,38.7 490.3,39 490.7,39.3 491.2,39.6 491.6,39.8 492.1,40 492.6,40.1 493.1,40.2 493.7,40.3 494.2,40.3 494.7,40.2 495.2,40.1 495.7,40 496.2,39.8 496.7,39.6 497.2,39.3 497.6,39 498,38.7 498.4,38.3 498.7,37.9 499,37.5 499.2,37 499.5,36.6 499.6,36.1 499.8,35.6 499.9,35 499.9,34.5 499.9,29.5 499.9,49.5 490,59.4 499.9,69.3" />
<path stroke="#663399" stroke-width="2" d="M 529.9,70" />
<path stroke="#663399" stroke-width="2" d="M 529.9,50 537.6,31.5 545.2,50 546.1,50 547,50.1 547.8,50.2 548.7,50.5 549.5,50.8 550.3,51.1 551,51.6 551.8,52.1 552.4,52.6 553,53.2 553.6,53.9 554.1,54.6 554.5,55.4 554.9,56.2 555.2,57 555.4,57.8 555.6,58.7 555.7,59.6 555.7,60.4 555.6,61.3 555.4,62.2 555.2,63 554.9,63.8 554.5,64.6 554.1,65.4 553.6,66.1 553,66.7 552.4,67.4 551.8,67.9 551,68.4 550.3,68.9 549.5,69.2 548.7,69.5 547.8,69.8 547,69.9 546.1,70 553.8,88.5 561.4,70" />
<path stroke="#663399" stroke-width="2" d="M 568.1,70" />
<path stroke="#663399" stroke-width="2" d="M 568.1,20 588.1,20 580.4,38.5" />
<path stroke="#663399" stroke-width="2" d="M 594.7,70" />
<path stroke="#663399" stroke-width="2" d="M 594.7,50 594.7,70 594.7,64 594.7,63.1 594.8,62.3 595,61.4 595.2,60.6 595.5,59.7 595.9,58.9 596.3,58.2 596.8,57.5 597.4,56.8 598,56.2 598.6,55.6 599.4,55.1 600.1,54.7 600.9,54.3 601.7,54 602.6,53.8 603.4,53.6 604.3,53.6" />
<path stroke="#663399" stroke-width="2" d="M 611,70" />
<path stroke="#663399" stroke-width="2" d="M 634.3,70" />
</svg>