<svg xmlns="http://www.w3.org/2000/svg" width="701.6659737974963" height="102.0" style="fill:none; stroke-linecap:round;">
    <rect width="100%" height="100%" fill="#FFFFFF" />
<path stroke="#000000" stroke-width="2" d="M 375,75" />
<path stroke="#000000" stroke-width="2" d="M 20,70 20.2,70 20.2,70.2 20,70.2 20,70" />
<path stroke="#000000" stroke-width="2" d="M 26.9,70" />
<path stroke="#000000" stroke-width="2" d="M 26.9,40" />
<path stroke="#000000" stroke-width="2" d="M 26.9,40 30.9,39.8 34.2,39.2 36.6,38.3 38.4,37.1 39.5,35.8 40.1,34.3 40.2,32.8 39.8,31.4 39.1,30 38.1,28.8 36.9,27.7 35.5,27 34,26.7 32.5,26.8 31.1,27.3 29.7,28.5 28.6,30.2 27.7,32.7 27.1,35.9 26.9,40 26.9,70" />
<path stroke="#000000" stroke-width="2" d="M 46.8,70" />
<path stroke="#000000" stroke-width="2" d="M 46.8,50 66.8,50" />
<path stroke="#000000" stroke-width="2" d="M 66.8,50 68.9,49.9 70.5,49.6 71.7,49.1 72.6,48.6 73.2,47.9 73.5,47.2 73.5,46.4 73.3,45.7 73,45 72.5,44.4 71.9,43.9 71.2,43.5 70.4,43.3 69.7,43.4 69,43.7 68.3,44.2 67.7,45.1 67.2,46.4 66.9,48 66.8,50 66.8,65" />
<path stroke="#000000" stroke-width="2" d="M 103.5,70" />
<path stroke="#000000" stroke-width="2" d="M 113.5,30 112.6,30 111.8,30.1 110.9,30.2 110.1,30.5 109.2,30.8 108.4,31.1 107.7,31.6 107,32.1 106.3,32.6 105.7,33.2 105.1,33.9 104.6,34.6 104.2,35.4 103.8,36.2 103.5,37 103.3,37.8 103.1,38.7 103.1,39.6 103.1,40.4 103.1,41.3 103.3,42.2 103.5,43 103.8,43.8 104.2,44.6 104.6,45.4 105.1,46.1 105.7,46.7 106.3,47.4 107,47.9 107.7,48.4 108.4,48.9 109.2,49.2 110.1,49.5 110.9,49.8 111.8,49.9 112.6,50 117.6,50 117.6,70" />
<path stroke="#000000" stroke-width="2" d="M 147.6,70" />
<path stroke="#000000" stroke-width="2" d="M 147.6,70 162.9,33 162.9,73 162.9,61 162.9,59.3 163.1,57.6 163.4,55.8 163.8,54.2 164.4,52.5 165.2,50.9 166,49.4 167,48 168.2,46.7 169.4,45.4 170.7,44.3 172.2,43.3 173.7,42.4 175.3,41.7 176.9,41.1" />
<path stroke="#000000" stroke-width="2" d="M 183.6,70" />
<path stroke="#000000" stroke-width="2" d="M 183.6,70 195,42.3" />
<path stroke="#000000" stroke-width="2" d="M 195,42.3 199.1,42.1 202.3,41.5 204.8,40.6 206.6,39.4 207.7,38.1 208.3,36.6 208.4,35.1 208,33.6 207.3,32.3 206.3,31 205.1,30 203.7,29.3 202.2,29 200.7,29.1 199.3,29.6 197.9,30.8 196.8,32.5 195.9,35 195.3,38.2 195,42.3 195,72.3" />
<path stroke="#000000" stroke-width="2" d="M 238.4,70" />
<path stroke="#000000" stroke-width="2" d="M 238.4,70" />
<path stroke="#000000" stroke-width="2" d="M 238.4,70 239.5,70 240.5,70.2 241.3,70.4 242,70.7 242.6,71 243,71.5 243.3,71.9 243.5,72.5 243.6,73.1 243.6,73.8 243.5,74.4 243.3,75.2 242.9,76 242.5,76.8 242,77.6 241.4,78.4 240.8,79.3 240,80.2 239.2,81.1 238.4,82" />
<path stroke="#000000" stroke-width="2" d="M 273.6,70" />
<path stroke="#000000" stroke-width="2" d="M 283.6,50 284.5,50 285.4,49.9 286.2,49.8 287.1,49.5 287.9,49.2 288.7,48.9 289.4,48.4 290.1,47.9 290.8,47.4 291.4,46.8 292,46.1 292.5,45.4 292.9,44.6 293.3,43.8 293.6,43 293.8,42.2 294,41.3 294.1,40.4 294.1,39.6 294,38.7 293.8,37.8 293.6,37 293.3,36.2 292.9,35.4 292.5,34.6 292,33.9 291.4,33.3 290.8,32.6 290.1,32.1 289.4,31.6 288.7,31.1 287.9,30.8 287.1,30.5 286.2,30.2 285.4,30.1 284.5,30 283.6,30 282.8,30.1 281.9,30.2 281.1,30.5 280.2,30.8 279.4,31.1 278.7,31.6 278,32.1 277.3,32.6 276.7,33.3 276.1,33.9 275.6,34.6 275.2,35.4 274.8,36.2 274.5,37 274.3,37.8 274.1,38.7 274.1,39.6 274.1,40.4 274.1,41.3 274.3,42.2 274.5,43 274.8,43.8 275.2,44.6 275.6,45.4 276.1,46.1 276.7,46.8 277.3,47.4 278,47.9 278.7,48.4 279.4,48.9 280.2,49.2 281.1,49.5 281.9,49.8 282.8,49.9 283.6,50 283.6,70 283.6,64 283.6,63.1 283.7,62.3 283.9,61.4 284.1,60.6 284.4,59.7 284.7,58.9 285.2,58.2 285.7,57.5 286.2,56.8 286.9,56.2 287.5,55.6 288.2,55.1 289,54.7 289.8,54.3 290.6,54 291.5,53.8 292.3,53.6 293.2,53.6" />
<path stroke="#000000" stroke-width="2" d="M 324.1,70" />
<path stroke="#000000" stroke-width="2" d="M 324.1,30 324.1,70 335.4,58.7" />
<path stroke="#000000" stroke-width="2" d="M 342,70" />
<path stroke="#000000" stroke-width="2" d="M 342,25" />
<path stroke="#000000" stroke-width="2" d="M 342,25 344.1,24.9 345.7,24.6 346.9,24.1 347.8,23.6 348.4,22.9 348.6,22.2 348.7,21.4 348.5,20.7 348.2,20 347.7,19.4 347,18.9 346.4,18.5 345.6,18.3 344.9,18.4 344.1,18.7 343.5,19.2 342.9,20.1 342.4,21.4 342.1,23 342,25 342,40" />
<path stroke="#000000" stroke-width="2" d="M 378.7,70" />
<path stroke="#000000" stroke-width="2" d="M 378.7,50 386.3,31.5 406.3,31.5" />
<path stroke="#000000" stroke-width="2" d="M 436.3,70" />
<path stroke="#000000" stroke-width="2" d="M 436.3,50 444,31.5 444,51.5 440,51.5" />
<path stroke="#000000" stroke-width="2" d="M 474,70" />
<path stroke="#000000" stroke-width="2" d="M 474,30 477.8,39.2" />
<path stroke="#000000" stroke-width="2" d="M 477.8,39.2 479.7,41.4 481.1,43.3 481.8,45 482.1,46.4 482,47.7 481.6,48.7 480.9,49.5 480,50 478.9,50.4 477.8,50.5 476.7,50.4 475.7,50 474.8,49.5 474,48.7 473.6,47.7 473.5,46.4 473.8,45 474.6,43.3 475.9,41.4 477.8,39.2 481.6,30 501.6,30 502.5,30 503.4,30.1 504.2,30.2 505.1,30.5 505.9,30.8 506.7,31.1 507.5,31.6 508.2,32.1 508.8,32.6 509.5,33.2 510,33.9 510.5,34.6 511,35.4 511.3,36.2 511.6,37 511.8,37.8 512,38.7 512.1,39.6 512.1,40.4 512,41.3 511.8,42.2 511.6,43 511.3,43.8 511,44.6 510.5,45.4 510,46.1 509.5,46.7 508.8,47.4 508.2,47.9 507.5,48.4 506.7,48.9 505.9,49.2 505.1,49.5 504.2,49.8 503.4,49.9 502.5,50 503.1,49.4 503.8,48.8 504.5,48.3 505.3,47.9 506.1,47.5 506.9,47.2 507.7,47 508.6,46.8 509.5,46.7 510.3,46.7 511.2,46.8 512.1,47 512.9,47.2 513.7,47.5 514.5,47.9" />
<path stroke="#000000" stroke-width="2" d="M 521.2,70" />
<path stroke="#000000" stroke-width="2" d="M 521.2,20 528.8,38.5 529.7,38.5 530.6,38.6 531.4,38.7 532.3,38.9 533.1,39.2 533.9,39.6 534.6,40 535.4,40.5 536,41.1 536.6,41.7 537.2,42.4 537.7,43.1 538.1,43.9 538.5,44.6 538.8,45.5 539,46.3 539.2,47.2 539.3,48 539.3,48.9 539.2,49.8 539,50.6 538.8,51.5 538.5,52.3 538.1,53.1 537.7,53.8 537.2,54.6 536.6,55.2 536,55.8 535.4,56.4 534.6,56.9 533.9,57.3 533.1,57.7 532.3,58 531.4,58.2 530.6,58.4 529.7,58.5" />
<path stroke="#000000" stroke-width="2" d="M 569.3,70" />
<path stroke="#000000" stroke-width="2" d="M 579.3,30 578.4,30 577.5,30.1 576.7,30.2 575.8,30.5 575,30.8 574.2,31.1 573.4,31.6 572.7,32.1 572.1,32.6 571.4,33.2 570.9,33.9 570.4,34.6 570,35.4 569.6,36.2 569.3,37 569.1,37.8 568.9,38.7 568.8,39.6 568.8,40.4 568.9,41.3 569.1,42.2 569.3,43 569.6,43.8 570,44.6 570.4,45.4 570.9,46.1 571.4,46.7 572.1,47.4 572.7,47.9 573.4,48.4 574.2,48.9 575,49.2 575.8,49.5 576.7,49.8 577.5,49.9 578.4,50 583.4,50 583.4,70" />
<path stroke="#000000" stroke-width="2" d="M 613.4,70" />
<path stroke="#000000" stroke-width="2" d="M 613.4,70 613.6,70 613.6,70.2 613.4,70.2 613.4,70" />
<path stroke="#000000" stroke-width="2" d="M 643.6,70" />
<path stroke="#000000" stroke-width="2" d="M 643.6,50 651.2,31.5 671.2,31.5 672.1,31.5 673,31.6 673.8,31.7 674.7,32 675.5,32.3 676.3,32.6 677,33.1 677.8,33.6 678.4,34.1 679,34.8 679.6,35.4 680.1,36.1 680.5,36.9 680.9,37.7 681.2,38.5 681.4,39.3 681.6,40.2 681.7,41.1 681.7,41.9 681.6,42.8 681.4,43.7 681.2,44.5 680.9,45.3 680.5,46.1 680.1,46.9 679.6,47.6 679,48.3 678.4,48.9 677.8,49.4 677,49.9 676.3,50.4 675.5,50.8 674.7,51.1 673.8,51.3 673,51.4 672.1,51.5" />
<path stroke="#000000" stroke-width="2" d="M 711.7,70" />
</svg>