<svg xmlns="http://www.w3.org/2000/svg" width="642.5956245365462" height="110.67887462948254" style="fill:none; stroke-linecap:round;">
    <rect width="100%" height="100%" fill="#FFFFFF" />
<path stroke="#000000" stroke-width="2" d="M 375,75" />
<path stroke="#000000" stroke-width="2" d="M 20,70 31.5,42.3" />
<path stroke="#000000" stroke-width="2" d="M 31.5,42.3 27.4,42.1 24.2,41.5 21.7,40.6 20,39.4 18.8,38.1 18.3,36.6 18.2,35.1 18.5,33.6 19.2,32.3 20.2,31 21.5,30 22.8,29.3 24.3,29 25.8,29.1 27.3,29.6 28.6,30.8 29.8,32.5 30.7,35 31.3,38.2 31.5,42.3 31.5,72.3" />
<path stroke="#000000" stroke-width="2" d="M 38.1,70" />
<path stroke="#000000" stroke-width="2" d="M 38.1,30 38.1,31.4 38.3,32.8 38.5,34.2 38.9,35.5 39.3,36.8 39.9,38.1 40.6,39.3 41.4,40.4 42.3,41.5 43.3,42.5 44.4,43.4 45.5,44.2 46.7,44.9 48,45.5 49.3,46 50.7,46.3 52,46.6 53.4,46.7 54.8,46.7 56.2,46.6 57.6,46.3 58.9,46 60.3,45.5 61.5,44.9 62.7,44.2 63.9,43.4 64.9,42.5 65.9,41.5 66.8,40.4 67.6,39.3 68.3,38.1 68.9,36.8 69.4,35.5 69.8,34.2 70,32.8 70.1,31.4" />
<path stroke="#000000" stroke-width="2" d="M 76.8,70" />
<path stroke="#000000" stroke-width="2" d="M 76.8,50 96.8,50" />
<path stroke="#000000" stroke-width="2" d="M 103.5,70" />
<path stroke="#000000" stroke-width="2" d="M 103.5,70 118.8,33 134.1,70" />
<path stroke="#000000" stroke-width="2" d="M 164.1,70" />
<path stroke="#000000" stroke-width="2" d="M 164.1,30 167.9,39.2" />
<path stroke="#000000" stroke-width="2" d="M 167.9,39.2 169.8,41.4 171.1,43.3 171.9,45 172.2,46.4 172.1,47.7 171.7,48.7 171,49.5 170.1,50 169,50.4 167.9,50.5 166.8,50.4 165.7,50 164.8,49.5 164.1,48.7 163.7,47.7 163.6,46.4 163.9,45 164.7,43.3 166,41.4 167.9,39.2 171.7,30" />
<path stroke="#000000" stroke-width="2" d="M 171.7,30 171.6,32 171.3,33.6 170.9,34.9 170.3,35.8 169.6,36.3 168.9,36.6 168.1,36.7 167.4,36.5 166.7,36.1 166.1,35.6 165.6,35 165.2,34.3 165.1,33.6 165.1,32.8 165.4,32.1 166,31.4 166.8,30.9 168.1,30.4 169.7,30.1 171.7,30 181.7,30" />
<path stroke="#000000" stroke-width="2" d="M 188.4,70" />
<path stroke="#000000" stroke-width="2" d="M 188.4,50 208.4,50" />
<path stroke="#000000" stroke-width="2" d="M 238.4,70" />
<path stroke="#000000" stroke-width="2" d="M 238.4,40 238.6,40 238.6,40.2 238.4,40.2 238.4,40" />
<path stroke="#000000" stroke-width="2" d="M 245.3,70" />
<path stroke="#000000" stroke-width="2" d="M 265.3,30 249.9,67 254.5,55.9 255.2,54.3 256,52.7 256.9,51.2 258,49.9 259.2,48.6 260.5,47.4 261.9,46.3 263.3,45.4 264.9,44.6 266.5,43.9 268.2,43.4 269.9,43" />
<path stroke="#000000" stroke-width="2" d="M 276.5,70" />
<path stroke="#000000" stroke-width="2" d="M 276.5,50 276.5,70 276.5,70.7 276.6,71.4 276.7,72.1 276.9,72.8 277.1,73.4 277.4,74 277.8,74.6 278.2,75.2 278.6,75.8 279.1,76.2 279.6,76.7 280.2,77.1 280.8,77.4 281.5,77.7 282.1,78 282.8,78.2 283.5,78.3 284.2,78.3 284.9,78.3 285.6,78.3 286.2,78.2 286.9,78 287.6,77.7 288.2,77.4 288.8,77.1 289.4,76.7 289.9,76.2 290.4,75.8 290.9,75.2 291.3,74.6 291.6,74 291.9,73.4 292.1,72.8 292.3,72.1 292.4,71.4 292.5,70.7 293.4,70.7 294.3,70.8 295.1,70.9 296,71.2 296.8,71.4 297.6,71.8 298.3,72.3 299,72.8 299.7,73.3 300.3,73.9 300.9,74.6 301.4,75.3 301.8,76.1 302.2,76.9 302.5,77.7 302.7,78.5 302.9,79.4 302.9,80.3 302.9,81.1 302.9,82 302.7,82.9 302.5,83.7 302.2,84.5 301.8,85.3 301.4,86.1 300.9,86.8 300.3,87.4 299.7,88.1 299,88.6 298.3,89.1 297.6,89.6 296.8,89.9 296,90.2 295.1,90.5 294.3,90.6 293.4,90.7" />
<path stroke="#000000" stroke-width="2" d="M 332.9,70" />
<path stroke="#000000" stroke-width="2" d="M 332.9,30 332.9,70 332.9,62 332.9,60.3 333.1,58.5 333.4,56.8 333.8,55.1 334.4,53.5 335.2,51.9 336,50.4 337,49 338.2,47.6 339.4,46.4 340.7,45.3 342.2,44.3" />
<path stroke="#000000" stroke-width="2" d="M 348.8,70" />
<path stroke="#000000" stroke-width="2" d="M 348.8,50 348.8,70 354.5,64.3" />
<path stroke="#000000" stroke-width="2" d="M 384.5,70" />
<path stroke="#000000" stroke-width="2" d="M 384.5,70 384.7,70 384.7,70.2 384.5,70.2 384.5,70" />
<path stroke="#000000" stroke-width="2" d="M 414.7,70" />
<path stroke="#000000" stroke-width="2" d="M 414.7,30 414.7,50 424.7,50 417,68.5" />
<path stroke="#000000" stroke-width="2" d="M 454.7,70" />
<path stroke="#000000" stroke-width="2" d="M 454.7,30 454.7,50 464.7,50" />
<path stroke="#000000" stroke-width="2" d="M 464.7,50 466.7,49.9 468.3,49.6 469.6,49.1 470.5,48.6 471,47.9 471.3,47.2 471.3,46.4 471.2,45.7 470.8,45 470.3,44.4 469.7,43.9 469,43.5 468.3,43.3 467.5,43.4 466.8,43.7 466.1,44.2 465.6,45.1 465.1,46.4 464.8,48 464.7,50 464.7,65" />
<path stroke="#000000" stroke-width="2" d="M 501.3,70" />
<path stroke="#000000" stroke-width="2" d="M 501.3,30 501.3,70 521.3,70" />
<path stroke="#000000" stroke-width="2" d="M 551.3,70" />
<path stroke="#000000" stroke-width="2" d="M 551.3,70" />
<path stroke="#000000" stroke-width="2" d="M 551.3,70 552.5,70 553.5,70.2 554.3,70.4 555,70.7 555.6,71 556,71.5 556.3,71.9 556.5,72.5 556.6,73.1 556.6,73.8 556.5,74.4 556.2,75.2 555.9,76 555.5,76.8 555,77.6 554.4,78.4 553.8,79.3 553,80.2 552.2,81.1 551.3,82" />
<path stroke="#000000" stroke-width="2" d="M 586.6,70" />
<path stroke="#000000" stroke-width="2" d="M 602.6,30 582.8,49.8 602.6,69.6" />
<path stroke="#000000" stroke-width="2" d="M 609.3,70" />
<path stroke="#000000" stroke-width="2" d="M 609.3,40" />
<path stroke="#000000" stroke-width="2" d="M 609.3,40 613.3,39.8 616.6,39.2 619,38.3 620.8,37.1 621.9,35.8 622.5,34.3 622.6,32.8 622.2,31.4 621.5,30 620.5,28.8 619.3,27.7 617.9,27 616.5,26.7 615,26.8 613.5,27.3 612.2,28.5 611,30.2 610.1,32.7 609.5,35.9 609.3,40 609.3,70" />
<path stroke="#000000" stroke-width="2" d="M 652.6,70" />
</svg>