<svg xmlns="http://www.w3.org/2000/svg" width="608.7417512031777" height="90.8" style="fill:none; stroke-linecap:round;">
    <rect width="100%" height="100%" fill="#FFFFFF" />
<path stroke="#000000" stroke-width="2" d="M 375,75" />
<path stroke="#000000" stroke-width="2" d="M 20,30 20,31.4 20.1,32.8 20.4,34.2 20.7,35.5 21.2,36.8 21.8,38.1 22.5,39.3 23.3,40.4 24.2,41.5 25.2,42.5 26.2,43.4 27.4,44.2 28.6,44.9 29.9,45.5 31.2,46 32.5,46.3 33.9,46.6 35.3,46.7 36.7,46.7 38.1,46.6 39.4,46.3 40.8,46 42.1,45.5 43.4,44.9 44.6,44.2 45.7,43.4 46.8,42.5 47.8,41.5 48.7,40.4 49.5,39.3 50.2,38.1 50.8,36.8 51.2,35.5 51.6,34.2 51.8,32.8 52,31.4" />
<path stroke="#000000" stroke-width="2" d="M 58.6,70" />
<path stroke="#000000" stroke-width="2" d="M 68.6,20 61,38.5" />
<path stroke="#000000" stroke-width="2" d="M 98.6,70" />
<path stroke="#000000" stroke-width="2" d="M 98.6,30 113.9,67" />
<path stroke="#000000" stroke-width="2" d="M 120.6,70" />
<path stroke="#000000" stroke-width="2" d="M 120.6,20 120.8,20 120.8,20.2 120.6,20.2 120.6,20" />
<path stroke="#000000" stroke-width="2" d="M 150.8,70" />
<path stroke="#000000" stroke-width="2" d="M 170.8,30 155.5,67" />
<path stroke="#000000" stroke-width="2" d="M 177.5,70" />
<path stroke="#000000" stroke-width="2" d="M 177.5,20 177.5,20.7 177.5,21.4 177.7,22.1 177.8,22.8 178.1,23.4 178.4,24 178.7,24.6 179.1,25.2 179.6,25.8 180.1,26.2 180.6,26.7 181.2,27.1 181.8,27.4 182.4,27.7 183.1,28 183.7,28.2 184.4,28.3 185.1,28.3 185.8,28.3 186.5,28.3 187.2,28.2 187.9,28 188.5,27.7 189.2,27.4 189.8,27.1 190.3,26.7 190.9,26.2 191.4,25.8 191.8,25.2 192.2,24.6 192.6,24 192.9,23.4 193.1,22.8 193.3,22.1 193.4,21.4 193.5,20.7" />
<path stroke="#000000" stroke-width="2" d="M 223.5,70" />
<path stroke="#000000" stroke-width="2" d="M 227.5,30 244.4,47" />
<path stroke="#000000" stroke-width="2" d="M 261.4,30 221.8,69.6" />
<path stroke="#000000" stroke-width="2" d="M 268.1,70" />
<path stroke="#000000" stroke-width="2" d="M 268.1,50 268.3,50 268.3,50.2 268.1,50.2 268.1,50" />
<path stroke="#000000" stroke-width="2" d="M 298.3,70" />
<path stroke="#000000" stroke-width="2" d="M 303.3,30" />
<path stroke="#000000" stroke-width="2" d="M 303.3,30 301.8,30.1 300.6,30.6 299.4,31.2 298.5,32.1 297.6,33.1 297,34.3 296.4,35.6 296.1,37 295.8,38.5 295.8,40 295.8,41.5 296.1,43 296.4,44.4 297,45.7 297.6,46.9 298.5,47.9 299.4,48.8 300.6,49.4 301.8,49.9 303.3,50 308.3,50 308.3,70" />
<path stroke="#000000" stroke-width="2" d="M 338.3,70" />
<path stroke="#000000" stroke-width="2" d="M 338.3,70 338.5,70 338.5,70.2 338.3,70.2 338.3,70" />
<path stroke="#000000" stroke-width="2" d="M 345.1,70" />
<path stroke="#000000" stroke-width="2" d="M 345.1,30" />
<path stroke="#000000" stroke-width="2" d="M 345.1,30 348,30.3 350.5,31.1 352.8,32.4 354.7,34.2 356.4,36.2 357.7,38.6 358.8,41.3 359.5,44.1 360,47 360.1,50 360,53 359.5,55.9 358.8,58.7 357.7,61.4 356.4,63.8 354.7,65.8 352.8,67.6 350.5,68.9 348,69.7 345.1,70" />
<path stroke="#000000" stroke-width="2" d="M 366.8,70" />
<path stroke="#000000" stroke-width="2" d="M 366.8,25" />
<path stroke="#000000" stroke-width="2" d="M 366.8,25 368.8,24.9 370.4,24.6 371.7,24.1 372.6,23.6 373.1,22.9 373.4,22.2 373.5,21.4 373.3,20.7 372.9,20 372.4,19.4 371.8,18.9 371.1,18.5 370.4,18.3 369.6,18.4 368.9,18.7 368.2,19.2 367.7,20.1 367.2,21.4 366.9,23 366.8,25 366.8,40" />
<path stroke="#000000" stroke-width="2" d="M 403.5,70" />
<path stroke="#000000" stroke-width="2" d="M 408.5,30" />
<path stroke="#000000" stroke-width="2" d="M 408.5,30 407,30.1 405.8,30.6 404.6,31.2 403.7,32.1 402.8,33.1 402.2,34.3 401.6,35.6 401.3,37 401,38.5 401,40 401,41.5 401.3,43 401.6,44.4 402.2,45.7 402.8,46.9 403.7,47.9 404.6,48.8 405.8,49.4 407,49.9 408.5,50 413.5,50 413.5,70" />
<path stroke="#000000" stroke-width="2" d="M 443.5,70" />
<path stroke="#000000" stroke-width="2" d="M 459.5,30 439.7,49.8 459.5,69.6" />
<path stroke="#000000" stroke-width="2" d="M 466.1,70" />
<path stroke="#000000" stroke-width="2" d="M 466.1,30 466.3,30 466.3,30.2 466.1,30.2 466.1,30" />
<path stroke="#000000" stroke-width="2" d="M 496.3,70" />
<path stroke="#000000" stroke-width="2" d="M 496.3,50 504,31.5" />
<path stroke="#000000" stroke-width="2" d="M 504,31.5 505.4,31.7 506.7,32.1 507.8,32.7 508.8,33.6 509.6,34.6 510.3,35.8 510.8,37.2 511.2,38.6 511.4,40 511.5,41.5 511.4,43 511.2,44.5 510.8,45.9 510.3,47.2 509.6,48.4 508.8,49.4 507.8,50.3 506.7,51 505.4,51.4 504,51.5 511.6,70 519.3,51.5" />
<path stroke="#000000" stroke-width="2" d="M 526,70" />
<path stroke="#000000" stroke-width="2" d="M 526,20 546,20 555.9,29.9 546,39.8 546.6,39.2 547.2,38.6 548,38.1 548.7,37.7 549.5,37.3 550.3,37 551.2,36.8 552,36.6 552.9,36.6 553.8,36.6 554.6,36.6 555.5,36.8 556.3,37 557.2,37.3 557.9,37.7" />
<path stroke="#000000" stroke-width="2" d="M 587.9,70" />
<path stroke="#000000" stroke-width="2" d="M 587.9,30 587.9,62" />
<path stroke="#000000" stroke-width="2" d="M 587.9,70 588.7,70 588.7,70.8 587.9,70.8 587.9,70" />
<path stroke="#000000" stroke-width="2" d="M 618.7,70" />
</svg>