<svg xmlns="http://www.w3.org/2000/svg" width="661.3364232918399" height="90.67887462948254" style="fill:none; stroke-linecap:round;">
    <rect width="100%" height="100%" fill="#FFFFFF" />
<path stroke="#000000" stroke-width="2" d="M 375,75" />
<path stroke="#000000" stroke-width="2" d="M 20,30 23.8,39.2" />
<path stroke="#000000" stroke-width="2" d="M 23.8,39.2 25.8,41.4 27.1,43.3 27.8,45 28.1,46.4 28,47.7 27.6,48.7 26.9,49.5 26,50 24.9,50.4 23.8,50.5 22.7,50.4 21.7,50 20.8,49.5 20,48.7 19.6,47.7 19.5,46.4 19.8,45 20.6,43.3 21.9,41.4 23.8,39.2 27.7,30 47.7,30 40,48.5" />
<path stroke="#000000" stroke-width="2" d="M 54.3,70" />
<path stroke="#000000" stroke-width="2" d="M 77.7,70" />
<path stroke="#000000" stroke-width="2" d="M 97.7,70 99.4,70 101.1,69.8 102.9,69.5 104.5,69.1 106.2,68.5 107.8,67.8 109.3,66.9 110.7,65.9 112,64.8 113.3,63.5 114.4,62.2 115.4,60.8 116.3,59.3 117,57.7 117.6,56 118.1,54.3 118.4,52.6 118.5,50.9 118.5,49.1 118.4,47.4 118.1,45.7 117.6,44 117,42.4 116.3,40.8 115.4,39.3 114.4,37.8 113.3,36.5 112,35.3 110.7,34.2 109.3,33.2 107.8,32.3 106.2,31.5 104.5,30.9 102.9,30.5 101.1,30.2 99.4,30 97.7,30 95.9,30.2 94.2,30.5 92.5,30.9 90.9,31.5 89.3,32.3 87.8,33.2 86.4,34.2 85,35.3 83.8,36.5 82.7,37.8 81.7,39.3 80.8,40.8 80,42.4 79.5,44 79,45.7 78.7,47.4 78.5,49.1 78.5,50.9 78.7,52.6 79,54.3 79.5,56 80,57.7 80.8,59.3 81.7,60.8 82.7,62.2 83.8,63.5 85,64.8 86.4,65.9 87.8,66.9 89.3,67.8 90.9,68.5 92.5,69.1 94.2,69.5 95.9,69.8 97.7,70" />
<path stroke="#000000" stroke-width="2" d="M 125.2,70" />
<path stroke="#000000" stroke-width="2" d="M 125.2,40 125.8,40.6 126.5,41.2 127.2,41.7 127.9,42.1 128.7,42.5 129.5,42.8 130.4,43 131.2,43.2 132.1,43.2 133,43.2 133.9,43.2 134.7,43 135.6,42.8 136.4,42.5 137.2,42.1 137.9,41.7 138.6,41.2 139.3,40.6 139.9,40 140.5,39.3 141,38.6 141.4,37.9 141.8,37.1 142.1,36.3 142.3,35.4 142.5,34.5 142.5,33.7 142.5,32.8 142.5,31.9 142.3,31.1 142.1,30.2 141.8,29.4 141.4,28.6 141,27.9 140.5,27.2 139.9,26.5 139.3,25.9 138.6,25.3 137.9,24.8 137.2,24.4 136.4,24 135.6,23.7 134.7,23.5 133.9,23.3 133,23.3 132.1,23.3 131.2,23.3 130.4,23.5 129.5,23.7 128.7,24 127.9,24.4 127.2,24.8 126.5,25.3 125.8,25.9 125.2,26.5 124.6,27.2 124.1,27.9 123.7,28.6 123.3,29.4 123,30.2 122.8,31.1 122.6,31.9 122.6,32.8 122.6,33.7 122.6,34.5 122.8,35.4 123,36.3 123.3,37.1 123.7,37.9 124.1,38.6 124.6,39.3 125.2,40 125.2,70" />
<path stroke="#000000" stroke-width="2" d="M 172.5,70" />
<path stroke="#000000" stroke-width="2" d="M 182.5,30 172.5,30 172.5,70" />
<path stroke="#000000" stroke-width="2" d="M 189.2,70" />
<path stroke="#000000" stroke-width="2" d="M 189.2,50 209.2,50" />
<path stroke="#000000" stroke-width="2" d="M 215.9,70" />
<path stroke="#000000" stroke-width="2" d="M 215.9,20 235.9,20" />
<path stroke="#000000" stroke-width="2" d="M 265.9,70" />
<path stroke="#000000" stroke-width="2" d="M 265.9,30 267.6,30 269.4,30.2 271.1,30.5 272.8,30.9 274.4,31.5 276,32.2 277.5,33.1 278.9,34.1 280.3,35.2 281.5,36.5 282.6,37.8 283.6,39.2 284.5,40.7 285.2,42.3 285.8,44 286.3,45.7 286.6,47.4 286.7,49.1 286.7,50.9 286.6,52.6 286.3,54.3 285.8,56 285.2,57.6 284.5,59.2 283.6,60.7 282.6,62.2 281.5,63.5 280.3,64.7 278.9,65.8 277.5,66.8 276,67.7 274.4,68.5 272.8,69.1 271.1,69.5 269.4,69.8 267.6,70" />
<path stroke="#000000" stroke-width="2" d="M 293.4,70" />
<path stroke="#000000" stroke-width="2" d="M 293.4,25 293.7,25.3 294,25.6 294.4,25.8 294.8,26.1 295.2,26.2 295.6,26.4 296,26.5 296.4,26.6 296.9,26.6 297.3,26.6 297.7,26.6 298.2,26.5 298.6,26.4 299,26.2 299.4,26.1 299.8,25.8 300.1,25.6 300.5,25.3 300.8,25 301,24.7 301.3,24.3 301.5,23.9 301.7,23.5 301.8,23.1 302,22.7 302,22.3 302.1,21.8 302.1,21.4 302,21 302,20.5 301.8,20.1 301.7,19.7 301.5,19.3 301.3,18.9 301,18.6 300.8,18.2 300.5,17.9 300.1,17.7 299.8,17.4 299.4,17.2 299,17 298.6,16.9 298.2,16.7 297.7,16.7 297.3,16.6 296.9,16.6 296.4,16.7 296,16.7 295.6,16.9 295.2,17 294.8,17.2 294.4,17.4 294,17.7 293.7,17.9 293.4,18.2 293.1,18.6 292.9,18.9 292.6,19.3 292.5,19.7 292.3,20.1 292.2,20.5 292.1,21 292.1,21.4 292.1,21.8 292.1,22.3 292.2,22.7 292.3,23.1 292.5,23.5 292.6,23.9 292.9,24.3 293.1,24.7 293.4,25 293.4,40 285.7,58.5" />
<path stroke="#000000" stroke-width="2" d="M 308.7,70" />
<path stroke="#000000" stroke-width="2" d="M 308.7,30 328.7,30 329.6,30 330.5,30.1 331.3,30.2 332.2,30.5 333,30.8 333.8,31.1 334.5,31.6 335.3,32.1 335.9,32.6 336.5,33.2 337.1,33.9 337.6,34.6 338,35.4 338.4,36.2 338.7,37 338.9,37.8 339.1,38.7 339.2,39.6 339.2,40.4 339.1,41.3 338.9,42.2 338.7,43 338.4,43.8 338,44.6 337.6,45.4 337.1,46.1 336.5,46.7 335.9,47.4 335.3,47.9 334.5,48.4 333.8,48.9 333,49.2 332.2,49.5 331.3,49.8 330.5,49.9 329.6,50" />
<path stroke="#000000" stroke-width="2" d="M 369.2,70" />
<path stroke="#000000" stroke-width="2" d="M 389.2,30 373.9,67" />
<path stroke="#000000" stroke-width="2" d="M 395.8,70" />
<path stroke="#000000" stroke-width="2" d="M 419.2,70" />
<path stroke="#000000" stroke-width="2" d="M 419.2,30 419.2,70" />
<path stroke="#000000" stroke-width="2" d="M 425.8,70" />
<path stroke="#000000" stroke-width="2" d="M 425.8,20 425.8,40 425.8,34 425.8,33.1 425.9,32.3 426.1,31.4 426.3,30.6 426.6,29.7 427,28.9 427.4,28.2 427.9,27.5 428.4,26.8 429.1,26.2 429.7,25.6 430.4,25.1 431.2,24.7 432,24.3 432.8,24 433.7,23.8 434.5,23.6 435.4,23.6" />
<path stroke="#000000" stroke-width="2" d="M 465.4,70" />
<path stroke="#000000" stroke-width="2" d="M 465.4,70 465.6,70 465.6,70.2 465.4,70.2 465.4,70" />
<path stroke="#000000" stroke-width="2" d="M 472.3,70" />
<path stroke="#000000" stroke-width="2" d="M 492.3,30 492.3,70 472.3,70" />
<path stroke="#000000" stroke-width="2" d="M 498.9,70" />
<path stroke="#000000" stroke-width="2" d="M 498.9,50 498.9,50.7 499,51.4 499.1,52.1 499.3,52.8 499.5,53.4 499.8,54 500.2,54.6 500.6,55.2 501,55.8 501.5,56.2 502,56.7 502.6,57.1 503.2,57.4 503.9,57.7 504.5,58 505.2,58.2 505.9,58.3 506.6,58.3 507.3,58.3 508,58.3 508.6,58.2 509.3,58 510,57.7 510.6,57.4 511.2,57.1 511.8,56.7 512.3,56.2 512.8,55.8 513.3,55.2 513.7,54.6 514,54 514.3,53.4 514.5,52.8 514.7,52.1 514.8,51.4 514.9,50.7 515.8,50.7 516.6,50.8 517.5,50.9 518.3,51.2 519.2,51.4 520,51.8 520.7,52.3 521.4,52.8 522.1,53.3 522.7,53.9 523.3,54.6 523.8,55.3 524.2,56.1 524.6,56.9 524.9,57.7 525.1,58.5 525.3,59.4 525.3,60.3 525.3,61.1 525.3,62 525.1,62.9 524.9,63.7 524.6,64.5 524.2,65.3 523.8,66.1 523.3,66.8 522.7,67.4 522.1,68.1 521.4,68.6 520.7,69.1 520,69.6 519.2,69.9 518.3,70.2 517.5,70.5 516.6,70.6 515.8,70.7" />
<path stroke="#000000" stroke-width="2" d="M 555.3,70" />
<path stroke="#000000" stroke-width="2" d="M 560.3,30 555.3,30 555.3,50 555.3,70 555.3,64 555.3,63.1 555.4,62.3 555.6,61.4 555.8,60.6 556.1,59.7 556.5,58.9 556.9,58.2 557.4,57.5 557.9,56.8 558.6,56.2 559.2,55.6 559.9,55.1 560.7,54.7 561.5,54.3 562.3,54 563.2,53.8 564,53.6 564.9,53.6" />
<path stroke="#000000" stroke-width="2" d="M 571.6,70" />
<path stroke="#000000" stroke-width="2" d="M 571.6,50 571.6,70 577.2,64.3 597.2,64.3" />
<path stroke="#000000" stroke-width="2" d="M 627.2,70" />
<path stroke="#000000" stroke-width="2" d="M 637.2,30 636.3,30 635.5,30.1 634.6,30.2 633.8,30.5 632.9,30.8 632.2,31.1 631.4,31.6 630.7,32.1 630,32.6 629.4,33.2 628.8,33.9 628.3,34.6 627.9,35.4 627.5,36.2 627.2,37 627,37.8 626.9,38.7 626.8,39.6 626.8,40.4 626.9,41.3 627,42.2 627.2,43 627.5,43.8 627.9,44.6 628.3,45.4 628.8,46.1 629.4,46.7 630,47.4 630.7,47.9 631.4,48.4 632.2,48.9 632.9,49.2 633.8,49.5 634.6,49.8 635.5,49.9 636.3,50 641.3,50 641.3,70" />
<path stroke="#000000" stroke-width="2" d="M 671.3,70" />
</svg>