<svg xmlns="http://www.w3.org/2000/svg" width="767.4060796019917" height="102.0" style="fill:none; stroke-linecap:round;">
    <rect width="100%" height="100%" fill="#FFFFFF" />
<path stroke="#000000" stroke-width="2" d="M 375,75" />
<path stroke="#000000" stroke-width="2" d="M 20,30" />
<path stroke="#000000" stroke-width="2" d="M 20,30 20.1,30 20.6,30 21.2,30 22.1,30.1 23.1,30.2 24.3,30.3 25.6,30.4 27,30.6 28.5,30.9 30,31.2 31.5,31.7 33,32.2 34.4,32.7 35.7,33.4 36.9,34.2 37.9,35.1 38.8,36.1 39.4,37.3 39.9,38.6 40,40" />
<path stroke="#000000" stroke-width="2" d="M 40,40 41.9,42.1 43.2,44.1 44,45.7 44.3,47.2 44.2,48.4 43.8,49.4 43.1,50.2 42.2,50.8 41.1,51.1 40,51.2 38.9,51.1 37.8,50.8 36.9,50.2 36.2,49.5 35.8,48.4 35.7,47.2 36,45.7 36.8,44.1 38.1,42.1 40,40" />
<path stroke="#000000" stroke-width="2" d="M 40,40 40,39.9 40,39.7 40.1,39.4 40.2,39 40.3,38.4 40.5,37.8 40.9,37.2 41.3,36.5 41.8,35.7 42.5,35 43.3,34.3 44.3,33.5 45.5,32.8 46.9,32.2 48.4,31.6 50.2,31 52.3,30.6 54.6,30.3 57.1,30.1 60,30 80,30 72.3,48.5" />
<path stroke="#000000" stroke-width="2" d="M 86.7,70" />
<path stroke="#000000" stroke-width="2" d="M 86.7,50 86.9,50 86.9,50.2 86.7,50.2 86.7,50" />
<path stroke="#000000" stroke-width="2" d="M 116.9,70" />
<path stroke="#000000" stroke-width="2" d="M 136.9,70 138.6,70 140.3,69.8 142.1,69.5 143.8,69.1 145.4,68.5 147,67.8 148.5,66.9 149.9,65.9 151.3,64.8 152.5,63.5 153.6,62.2 154.6,60.8 155.5,59.3 156.2,57.7 156.8,56 157.3,54.3 157.6,52.6 157.7,50.9 157.7,49.1 157.6,47.4 157.3,45.7 156.8,44 156.2,42.4 155.5,40.8 154.6,39.3 153.6,37.8 152.5,36.5 151.3,35.3 149.9,34.2 148.5,33.2 147,32.3 145.4,31.5 143.8,30.9 142.1,30.5 140.3,30.2 138.6,30 136.9,30 135.1,30.2 133.4,30.5 131.7,30.9 130.1,31.5 128.5,32.3 127,33.2 125.6,34.2 124.2,35.3 123,36.5 121.9,37.8 120.9,39.3 120,40.8 119.3,42.4 118.7,44 118.2,45.7 117.9,47.4 117.8,49.1 117.8,50.9 117.9,52.6 118.2,54.3 118.7,56 119.3,57.7 120,59.3 120.9,60.8 121.9,62.2 123,63.5 124.2,64.8 125.6,65.9 127,66.9 128.5,67.8 130.1,68.5 131.7,69.1 133.4,69.5 135.1,69.8 136.9,70" />
<path stroke="#000000" stroke-width="2" d="M 164.4,70" />
<path stroke="#000000" stroke-width="2" d="M 164.4,40" />
<path stroke="#000000" stroke-width="2" d="M 164.4,40 168.4,39.8 171.7,39.2 174.1,38.3 175.9,37.1 177,35.8 177.6,34.3 177.7,32.8 177.3,31.4 176.6,30 175.6,28.8 174.4,27.7 173,27 171.6,26.7 170.1,26.8 168.6,27.3 167.3,28.5 166.1,30.2 165.2,32.7 164.6,35.9 164.4,40 164.4,70" />
<path stroke="#000000" stroke-width="2" d="M 207.7,70" />
<path stroke="#000000" stroke-width="2" d="M 207.7,42 208.5,42 208.5,42.8 207.7,42.8 207.7,42" />
<path stroke="#000000" stroke-width="2" d="M 207.7,58 208.5,58 208.5,58.8 207.7,58.8 207.7,58" />
<path stroke="#000000" stroke-width="2" d="M 238.5,70" />
<path stroke="#000000" stroke-width="2" d="M 248.5,30 238.5,30 238.5,70" />
<path stroke="#000000" stroke-width="2" d="M 255.2,70" />
<path stroke="#000000" stroke-width="2" d="M 255.2,50 275.2,50" />
<path stroke="#000000" stroke-width="2" d="M 281.8,70" />
<path stroke="#000000" stroke-width="2" d="M 281.8,20 301.8,20" />
<path stroke="#000000" stroke-width="2" d="M 331.8,70" />
<path stroke="#000000" stroke-width="2" d="M 331.8,70" />
<path stroke="#000000" stroke-width="2" d="M 331.8,70 333,70 333.9,70.2 334.8,70.4 335.5,70.7 336,71 336.5,71.5 336.8,71.9 337,72.5 337.1,73.1 337.1,73.8 337,74.4 336.7,75.2 336.4,76 336,76.8 335.5,77.6 334.9,78.4 334.2,79.3 333.5,80.2 332.7,81.1 331.8,82" />
<path stroke="#000000" stroke-width="2" d="M 367.1,70" />
<path stroke="#000000" stroke-width="2" d="M 367.1,30 368.8,30 370.6,30.2 372.3,30.5 374,30.9 375.6,31.5 377.2,32.2 378.7,33.1 380.1,34.1 381.5,35.2 382.7,36.5 383.8,37.8 384.8,39.2 385.7,40.7 386.5,42.3 387,44 387.5,45.7 387.8,47.4 388,49.1 388,50.9 387.8,52.6 387.5,54.3 387,56 386.5,57.6 385.7,59.2 384.8,60.7 383.8,62.2 382.7,63.5 381.5,64.7 380.1,65.8 378.7,66.8 377.2,67.7 375.6,68.5 374,69.1 372.3,69.5 370.6,69.8 368.8,70" />
<path stroke="#000000" stroke-width="2" d="M 394.6,70" />
<path stroke="#000000" stroke-width="2" d="M 394.6,25" />
<path stroke="#000000" stroke-width="2" d="M 394.6,25 396.7,24.9 398.3,24.6 399.5,24.1 400.4,23.6 400.9,22.9 401.2,22.2 401.3,21.4 401.1,20.7 400.7,20 400.2,19.4 399.6,18.9 398.9,18.5 398.2,18.3 397.5,18.4 396.7,18.7 396.1,19.2 395.5,20.1 395,21.4 394.7,23 394.6,25 394.6,40 387,58.5" />
<path stroke="#000000" stroke-width="2" d="M 407.9,70" />
<path stroke="#000000" stroke-width="2" d="M 407.9,30 427.9,30 428.8,30 429.7,30.1 430.5,30.2 431.4,30.5 432.2,30.8 433,31.1 433.8,31.6 434.5,32.1 435.1,32.6 435.8,33.2 436.3,33.9 436.8,34.6 437.2,35.4 437.6,36.2 437.9,37 438.1,37.8 438.3,38.7 438.4,39.6 438.4,40.4 438.3,41.3 438.1,42.2 437.9,43 437.6,43.8 437.2,44.6 436.8,45.4 436.3,46.1 435.8,46.7 435.1,47.4 434.5,47.9 433.8,48.4 433,48.9 432.2,49.2 431.4,49.5 430.5,49.8 429.7,49.9 428.8,50" />
<path stroke="#000000" stroke-width="2" d="M 468.4,70" />
<path stroke="#000000" stroke-width="2" d="M 488.4,30 473.1,67" />
<path stroke="#000000" stroke-width="2" d="M 495,70" />
<path stroke="#000000" stroke-width="2" d="M 495,50 495.2,50 495.2,50.2 495,50.2 495,50" />
<path stroke="#000000" stroke-width="2" d="M 525.2,70" />
<path stroke="#000000" stroke-width="2" d="M 525.2,30 525.2,70" />
<path stroke="#000000" stroke-width="2" d="M 531.9,70" />
<path stroke="#000000" stroke-width="2" d="M 531.9,20 531.9,40 531.9,34 531.9,33.1 532,32.3 532.1,31.4 532.4,30.6 532.7,29.7 533,28.9 533.5,28.2 534,27.5 534.5,26.8 535.1,26.2 535.8,25.6 536.5,25.1 537.3,24.7 538.1,24.3 538.9,24 539.7,23.8 540.6,23.6 541.5,23.6" />
<path stroke="#000000" stroke-width="2" d="M 571.5,70" />
<path stroke="#000000" stroke-width="2" d="M 571.5,70 571.7,70 571.7,70.2 571.5,70.2 571.5,70" />
<path stroke="#000000" stroke-width="2" d="M 578.3,70" />
<path stroke="#000000" stroke-width="2" d="M 598.3,30 598.3,70 578.3,70" />
<path stroke="#000000" stroke-width="2" d="M 605,70" />
<path stroke="#000000" stroke-width="2" d="M 605,50 605,50.7 605.1,51.4 605.2,52.1 605.4,52.8 605.6,53.4 605.9,54 606.2,54.6 606.6,55.2 607.1,55.8 607.6,56.2 608.1,56.7 608.7,57.1 609.3,57.4 609.9,57.7 610.6,58 611.3,58.2 611.9,58.3 612.6,58.3 613.3,58.3 614,58.3 614.7,58.2 615.4,58 616,57.7 616.7,57.4 617.3,57.1 617.9,56.7 618.4,56.2 618.9,55.8 619.3,55.2 619.7,54.6 620.1,54 620.4,53.4 620.6,52.8 620.8,52.1 620.9,51.4 621,50.7 621.8,50.7 622.7,50.8 623.6,50.9 624.4,51.2 625.2,51.4 626,51.8 626.8,52.3 627.5,52.8 628.2,53.3 628.8,53.9 629.3,54.6 629.8,55.3 630.3,56.1 630.6,56.9 630.9,57.7 631.2,58.5 631.3,59.4 631.4,60.3 631.4,61.1 631.3,62 631.2,62.9 630.9,63.7 630.6,64.5 630.3,65.3 629.8,66.1 629.3,66.8 628.8,67.4 628.2,68.1 627.5,68.6 626.8,69.1 626,69.6 625.2,69.9 624.4,70.2 623.6,70.5 622.7,70.6 621.8,70.7" />
<path stroke="#000000" stroke-width="2" d="M 661.4,70" />
<path stroke="#000000" stroke-width="2" d="M 666.4,30 661.4,30 661.4,50 661.4,70 661.4,64 661.4,63.1 661.5,62.3 661.6,61.4 661.9,60.6 662.2,59.7 662.5,58.9 663,58.2 663.5,57.5 664,56.8 664.6,56.2 665.3,55.6 666,55.1 666.8,54.7 667.6,54.3 668.4,54 669.2,53.8 670.1,53.6 671,53.6" />
<path stroke="#000000" stroke-width="2" d="M 677.6,70" />
<path stroke="#000000" stroke-width="2" d="M 677.6,50 677.6,70 683.3,64.3 703.3,64.3" />
<path stroke="#000000" stroke-width="2" d="M 733.3,70" />
<path stroke="#000000" stroke-width="2" d="M 743.3,30 742.4,30 741.5,30.1 740.7,30.2 739.8,30.5 739,30.8 738.2,31.1 737.5,31.6 736.8,32.1 736.1,32.6 735.5,33.2 734.9,33.9 734.4,34.6 734,35.4 733.6,36.2 733.3,37 733.1,37.8 732.9,38.7 732.9,39.6 732.9,40.4 732.9,41.3 733.1,42.2 733.3,43 733.6,43.8 734,44.6 734.4,45.4 734.9,46.1 735.5,46.7 736.1,47.4 736.8,47.9 737.5,48.4 738.2,48.9 739,49.2 739.8,49.5 740.7,49.8 741.5,49.9 742.4,50 747.4,50 747.4,70" />
<path stroke="#000000" stroke-width="2" d="M 777.4,70" />
</svg>