<svg xmlns="http://www.w3.org/2000/svg" width="709.8762296381437" height="99.98096443163715" style="fill:none; stroke-linecap:round;">
    <rect width="100%" height="100%" fill="#FFFFFF" />
<path stroke="#000000" stroke-width="2" d="M 375,75" />
<path stroke="#000000" stroke-width="2" d="M 20,30 20,70" />
<path stroke="#000000" stroke-width="2" d="M 26.7,70" />
<path stroke="#000000" stroke-width="2" d="M 36.7,20 29,38.5 29,58.5 34.7,52.8" />
<path stroke="#000000" stroke-width="2" d="M 43.3,70" />
<path stroke="#000000" stroke-width="2" d="M 43.3,20 63.3,20" />
<path stroke="#000000" stroke-width="2" d="M 93.3,70" />
<path stroke="#000000" stroke-width="2" d="M 93.3,70 93.5,70 93.5,70.2 93.3,70.2 93.3,70" />
<path stroke="#000000" stroke-width="2" d="M 100.2,70" />
<path stroke="#000000" stroke-width="2" d="M 120.2,30 104.9,67" />
<path stroke="#000000" stroke-width="2" d="M 126.9,70" />
<path stroke="#000000" stroke-width="2" d="M 126.9,30 134.5,48.5" />
<path stroke="#000000" stroke-width="2" d="M 134.5,48.5 136.6,48.4 138.2,48.1 139.4,47.6 140.3,47 140.8,46.4 141.1,45.6 141.2,44.9 141,44.2 140.6,43.5 140.1,42.9 139.5,42.4 138.8,42 138.1,41.8 137.4,41.9 136.6,42.1 136,42.7 135.4,43.6 134.9,44.8 134.6,46.4 134.5,48.5 134.5,63.5" />
<path stroke="#000000" stroke-width="2" d="M 171.2,70" />
<path stroke="#000000" stroke-width="2" d="M 171.2,30 171.2,70 182.5,58.7" />
<path stroke="#000000" stroke-width="2" d="M 189.2,70" />
<path stroke="#000000" stroke-width="2" d="M 189.2,20 209.2,20" />
<path stroke="#000000" stroke-width="2" d="M 239.2,70" />
<path stroke="#000000" stroke-width="2" d="M 239.2,70 239.4,70 239.4,70.2 239.2,70.2 239.2,70" />
<path stroke="#000000" stroke-width="2" d="M 246,70" />
<path stroke="#000000" stroke-width="2" d="M 256,30 255.1,30 254.3,30.1 253.4,30.2 252.6,30.5 251.8,30.8 251,31.1 250.2,31.6 249.5,32.1 248.8,32.6 248.2,33.2 247.7,33.9 247.2,34.6 246.7,35.4 246.3,36.2 246,37 245.8,37.8 245.7,38.7 245.6,39.6 245.6,40.4 245.7,41.3 245.8,42.2 246,43 246.3,43.8 246.7,44.6 247.2,45.4 247.7,46.1 248.2,46.7 248.8,47.4 249.5,47.9 250.2,48.4 251,48.9 251.8,49.2 252.6,49.5 253.4,49.8 254.3,49.9 255.1,50 255.1,65" />
<path stroke="#000000" stroke-width="2" d="M 255.1,65 255,67 254.7,68.6 254.3,69.9 253.7,70.7 253,71.3 252.3,71.6 251.6,71.6 250.8,71.5 250.1,71.1 249.5,70.6 249,70 248.7,69.3 248.5,68.6 248.5,67.8 248.8,67.1 249.4,66.4 250.3,65.8 251.5,65.4 253.1,65.1 255.1,65 275.1,65" />
<path stroke="#000000" stroke-width="2" d="M 275.1,65 277.2,64.9 278.8,64.6 280,64.1 280.9,63.5 281.5,62.9 281.8,62.1 281.8,61.4 281.6,60.7 281.3,60 280.8,59.4 280.2,58.9 279.5,58.5 278.7,58.3 278,58.4 277.3,58.7 276.6,59.2 276,60.1 275.6,61.3 275.3,63 275.1,65 275.1,80" />
<path stroke="#000000" stroke-width="2" d="M 311.8,70" />
<path stroke="#000000" stroke-width="2" d="M 311.8,30" />
<path stroke="#000000" stroke-width="2" d="M 311.8,30 314.7,30.3 317.2,31.1 319.5,32.4 321.4,34.2 323.1,36.2 324.4,38.6 325.5,41.3 326.2,44.1 326.7,47 326.8,50 326.7,53 326.2,55.9 325.5,58.7 324.4,61.4 323.1,63.8 321.4,65.8 319.5,67.6 317.2,68.9 314.7,69.7 311.8,70 313,68.8 314.4,67.6 315.8,66.6 317.3,65.8 318.9,65 320.5,64.4 322.2,64 323.9,63.7 325.7,63.5 327.4,63.5 329.2,63.7 330.9,64 332.6,64.4 334.2,65 335.8,65.8" />
<path stroke="#000000" stroke-width="2" d="M 342.5,70" />
<path stroke="#000000" stroke-width="2" d="M 342.5,20 362.5,20 362.5,19.3 362.5,18.6 362.6,17.9 362.8,17.2 363.1,16.6 363.3,16 363.7,15.4 364.1,14.8 364.5,14.2 365,13.8 365.6,13.3 366.1,12.9 366.7,12.6 367.4,12.3 368,12 368.7,11.8 369.4,11.7 370.1,11.7 370.8,11.7 371.5,11.7 372.2,11.8 372.8,12 373.5,12.3 374.1,12.6 374.7,12.9 375.3,13.3 375.8,13.8 376.3,14.2 376.8,14.8 377.2,15.4 377.5,16 377.8,16.6 378.1,17.2 378.3,17.9 378.4,18.6 378.4,19.3" />
<path stroke="#000000" stroke-width="2" d="M 408.4,70" />
<path stroke="#000000" stroke-width="2" d="M 408.4,50 422.6,35.9 414.9,54.3 414.9,55 415,55.7 415.1,56.4 415.3,57.1 415.5,57.7 415.8,58.4 416.2,59 416.6,59.6 417,60.1 417.5,60.6 418,61 418.6,61.4 419.2,61.8 419.9,62.1 420.5,62.3 421.2,62.5 421.9,62.6 422.6,62.7 423.3,62.7 424,62.6 424.6,62.5 425.3,62.3 426,62.1 426.6,61.8 427.2,61.4 427.8,61 428.3,60.6 428.8,60.1 429.3,59.6 429.7,59 430,58.4 430.3,57.7 430.5,57.1 430.7,56.4 430.8,55.7 430.9,55" />
<path stroke="#000000" stroke-width="2" d="M 437.6,70" />
<path stroke="#000000" stroke-width="2" d="M 437.6,20 457.6,20 449.9,38.5" />
<path stroke="#000000" stroke-width="2" d="M 464.2,70" />
<path stroke="#000000" stroke-width="2" d="M 464.2,40" />
<path stroke="#000000" stroke-width="2" d="M 464.2,40 468.3,39.8 471.5,39.2 474,38.3 475.8,37.1 476.9,35.8 477.5,34.3 477.6,32.8 477.2,31.4 476.5,30 475.5,28.8 474.3,27.7 472.9,27 471.4,26.7 469.9,26.8 468.5,27.3 467.1,28.5 466,30.2 465.1,32.7 464.5,35.9 464.2,40 464.2,70" />
<path stroke="#000000" stroke-width="2" d="M 507.6,70" />
<path stroke="#000000" stroke-width="2" d="M 507.6,50 515.2,31.5 535.2,31.5" />
<path stroke="#000000" stroke-width="2" d="M 535.2,31.5 536.6,31.7 537.9,32.1 539,32.7 540,33.6 540.8,34.6 541.5,35.8 542,37.2 542.4,38.6 542.6,40 542.7,41.5 542.6,43 542.4,44.5 542,45.9 541.5,47.2 540.8,48.4 540,49.4 539,50.3 537.9,51 536.6,51.4 535.2,51.5" />
<path stroke="#000000" stroke-width="2" d="M 572.7,70" />
<path stroke="#000000" stroke-width="2" d="M 572.7,70 572.9,70 572.9,70.2 572.7,70.2 572.7,70" />
<path stroke="#000000" stroke-width="2" d="M 579.6,70" />
<path stroke="#000000" stroke-width="2" d="M 579.6,30 579.6,70 579.6,58 579.6,56.3 579.7,54.5 580,52.8 580.5,51.1 581.1,49.5 581.8,47.9 582.7,46.4 583.7,45 584.8,43.6 586,42.4 587.4,41.3 588.8,40.3 590.3,39.4 591.9,38.7 593.5,38.1 595.2,37.6 596.9,37.3 598.7,37.1" />
<path stroke="#000000" stroke-width="2" d="M 605.3,70" />
<path stroke="#000000" stroke-width="2" d="M 605.3,30 645.3,30 605.7,69.6 645.7,69.6" />
<path stroke="#000000" stroke-width="2" d="M 675.7,70" />
<path stroke="#000000" stroke-width="2" d="M 685.7,30 684.9,30 684,30.1 683.1,30.2 682.3,30.5 681.5,30.8 680.7,31.1 679.9,31.6 679.2,32.1 678.6,32.6 677.9,33.2 677.4,33.9 676.9,34.6 676.4,35.4 676.1,36.2 675.8,37 675.5,37.8 675.4,38.7 675.3,39.6 675.3,40.4 675.4,41.3 675.5,42.2 675.8,43 676.1,43.8 676.4,44.6 676.9,45.4 677.4,46.1 677.9,46.7 678.6,47.4 679.2,47.9 679.9,48.4 680.7,48.9 681.5,49.2 682.3,49.5 683.1,49.8 684,49.9 684.9,50 689.9,50 689.9,70" />
<path stroke="#000000" stroke-width="2" d="M 719.9,70" />
</svg>