<svg xmlns="http://www.w3.org/2000/svg" width="584.2863675064125" height="93.04481869954853" style="fill:none; stroke-linecap:round;">
    <rect width="100%" height="100%" fill="#FFFFFF" />
<path stroke="#000000" stroke-width="2" d="M 375,75" />
<path stroke="#000000" stroke-width="2" d="M 20,70 20.2,70 20.2,70.2 20,70.2 20,70" />
<path stroke="#000000" stroke-width="2" d="M 26.9,70" />
<path stroke="#000000" stroke-width="2" d="M 26.9,30 26.9,70 26.9,58 26.9,56.3 27,54.5 27.3,52.8 27.8,51.1 28.4,49.5 29.1,47.9 30,46.4 31,45 32.1,43.6 33.3,42.4 34.7,41.3 36.1,40.3 37.6,39.4 39.2,38.7 40.8,38.1 42.5,37.6 44.2,37.3 46,37.1" />
<path stroke="#000000" stroke-width="2" d="M 52.6,70" />
<path stroke="#000000" stroke-width="2" d="M 52.6,20 52.6,40 58.3,34.3" />
<path stroke="#000000" stroke-width="2" d="M 65,70" />
<path stroke="#000000" stroke-width="2" d="M 65,20 65,40 65,34 65,33.1 65,32.3 65.2,31.4 65.4,30.6 65.7,29.7 66.1,28.9 66.5,28.2 67,27.5 67.6,26.8 68.2,26.2 68.9,25.6 69.6,25.1 70.3,24.7 71.1,24.3 71.9,24 72.8,23.8 73.7,23.6 74.5,23.6" />
<path stroke="#000000" stroke-width="2" d="M 74.5,23.6 75.9,23.7 77.2,24.1 78.3,24.8 79.3,25.7 80.1,26.7 80.8,27.9 81.3,29.2 81.7,30.6 81.9,32.1 82,33.6 81.9,35.1 81.7,36.5 81.3,37.9 80.8,39.3 80.1,40.4 79.3,41.5 78.3,42.4 77.2,43 75.9,43.4 74.5,43.6" />
<path stroke="#000000" stroke-width="2" d="M 74.5,43.6 76.6,43.5 78.2,43.2 79.4,42.7 80.3,42.1 80.8,41.5 81.1,40.7 81.2,40 81,39.3 80.6,38.6 80.1,37.9 79.5,37.4 78.8,37.1 78.1,36.9 77.4,37 76.6,37.2 76,37.8 75.4,38.7 74.9,39.9 74.6,41.5 74.5,43.6 74.5,58.6" />
<path stroke="#000000" stroke-width="2" d="M 112,70" />
<path stroke="#000000" stroke-width="2" d="M 122,30 121.1,30 120.3,30.1 119.4,30.2 118.6,30.5 117.8,30.8 117,31.1 116.2,31.6 115.5,32.1 114.8,32.6 114.2,33.2 113.6,33.9 113.1,34.6 112.7,35.4 112.3,36.2 112,37 111.8,37.8 111.7,38.7 111.6,39.6 111.6,40.4 111.7,41.3 111.8,42.2 112,43 112.3,43.8 112.7,44.6 113.1,45.4 113.6,46.1 114.2,46.7 114.8,47.4 115.5,47.9 116.2,48.4 117,48.9 117.8,49.2 118.6,49.5 119.4,49.8 120.3,49.9 121.1,50 126.1,50 126.1,70" />
<path stroke="#000000" stroke-width="2" d="M 156.1,70" />
<path stroke="#000000" stroke-width="2" d="M 176.1,30 160.8,67" />
<path stroke="#000000" stroke-width="2" d="M 182.8,70" />
<path stroke="#000000" stroke-width="2" d="M 182.8,50 182.8,50.7 182.9,51.4 183,52.1 183.2,52.8 183.4,53.4 183.7,54 184.1,54.6 184.5,55.2 184.9,55.8 185.4,56.2 185.9,56.7 186.5,57.1 187.1,57.4 187.7,57.7 188.4,58 189.1,58.2 189.8,58.3 190.5,58.3 191.2,58.3 191.9,58.3 192.5,58.2 193.2,58 193.9,57.7 194.5,57.4 195.1,57.1 195.7,56.7 196.2,56.2 196.7,55.8 197.2,55.2 197.6,54.6 197.9,54 198.2,53.4 198.4,52.8 198.6,52.1 198.7,51.4 198.8,50.7" />
<path stroke="#000000" stroke-width="2" d="M 205.5,70" />
<path stroke="#000000" stroke-width="2" d="M 205.5,20 205.5,40 205.5,34 205.5,33.1 205.5,32.3 205.7,31.4 205.9,30.6 206.2,29.7 206.6,28.9 207,28.2 207.5,27.5 208.1,26.8 208.7,26.2 209.4,25.6 210.1,25.1 210.8,24.7 211.6,24.3 212.4,24 213.3,23.8 214.2,23.6 215,23.6" />
<path stroke="#000000" stroke-width="2" d="M 221.7,70" />
<path stroke="#000000" stroke-width="2" d="M 221.7,20 241.7,20" />
<path stroke="#000000" stroke-width="2" d="M 241.7,20 243.7,19.9 245.3,19.6 246.6,19.1 247.4,18.6 248,17.9 248.3,17.2 248.3,16.4 248.2,15.7 247.8,15 247.3,14.4 246.7,13.9 246,13.5 245.3,13.3 244.5,13.4 243.8,13.7 243.1,14.2 242.5,15.1 242.1,16.4 241.8,18 241.7,20 241.7,35" />
<path stroke="#000000" stroke-width="2" d="M 278.3,70" />
<path stroke="#000000" stroke-width="2" d="M 278.3,70 293.6,33 293.6,73 293.6,61 293.6,59.3 293.8,57.6 294.1,55.8 294.6,54.2 295.2,52.5 295.9,50.9 296.8,49.4 297.8,48 298.9,46.7 300.1,45.4 301.5,44.3 302.9,43.3 304.4,42.4 306,41.7 307.6,41.1" />
<path stroke="#000000" stroke-width="2" d="M 337.6,70" />
<path stroke="#000000" stroke-width="2" d="M 357.6,30 342.3,67 346.9,55.9 347.6,54.3 348.4,52.7 349.3,51.2 350.4,49.9 351.6,48.6 352.8,47.4 354.2,46.3 355.7,45.4 357.2,44.6 358.9,43.9 360.5,43.4 362.2,43" />
<path stroke="#000000" stroke-width="2" d="M 368.9,70" />
<path stroke="#000000" stroke-width="2" d="M 368.9,20 378.8,29.9 368.9,39.8" />
<path stroke="#000000" stroke-width="2" d="M 385.5,70" />
<path stroke="#000000" stroke-width="2" d="M 385.5,20 385.5,40 385.5,34 385.5,33.1 385.5,32.3 385.7,31.4 385.9,30.6 386.2,29.7 386.6,28.9 387,28.2 387.5,27.5 388.1,26.8 388.7,26.2 389.4,25.6 390.1,25.1 390.8,24.7 391.6,24.3 392.4,24 393.3,23.8 394.1,23.6 395,23.6" />
<path stroke="#000000" stroke-width="2" d="M 401.7,70" />
<path stroke="#000000" stroke-width="2" d="M 401.7,30 401.9,30 401.9,30.2 401.7,30.2 401.7,30" />
<path stroke="#000000" stroke-width="2" d="M 431.9,70" />
<path stroke="#000000" stroke-width="2" d="M 431.9,50 439.5,31.5 459.5,31.5" />
<path stroke="#000000" stroke-width="2" d="M 459.5,31.5 461,31.7 462.2,32.1 463.4,32.7 464.3,33.6 465.2,34.6 465.8,35.8 466.4,37.2 466.7,38.6 467,40 467,41.5 467,43 466.7,44.5 466.4,45.9 465.8,47.2 465.2,48.4 464.3,49.4 463.4,50.3 462.2,51 461,51.4 459.5,51.5" />
<path stroke="#000000" stroke-width="2" d="M 497,70" />
<path stroke="#000000" stroke-width="2" d="M 497,30 497,70" />
<path stroke="#000000" stroke-width="2" d="M 503.7,70" />
<path stroke="#000000" stroke-width="2" d="M 513.7,20 506,38.5 508.3,32.9 508.7,32.1 509.1,31.4 509.5,30.6 510.1,29.9 510.7,29.3 511.3,28.7 512,28.2 512.7,27.7 513.5,27.3 514.3,27 515.1,26.7 516,26.5" />
<path stroke="#000000" stroke-width="2" d="M 522.7,70" />
<path stroke="#000000" stroke-width="2" d="M 524.7,20 533.1,28.5" />
<path stroke="#000000" stroke-width="2" d="M 541.6,20 521.8,39.8" />
<path stroke="#000000" stroke-width="2" d="M 548.3,70" />
<path stroke="#000000" stroke-width="2" d="M 548.3,20 548.3,20.7 548.4,21.4 548.5,22.1 548.7,22.8 548.9,23.4 549.2,24 549.5,24.6 549.9,25.2 550.4,25.8 550.9,26.2 551.4,26.7 552,27.1 552.6,27.4 553.2,27.7 553.9,28 554.6,28.2 555.2,28.3 555.9,28.3 556.6,28.3 557.3,28.3 558,28.2 558.7,28 559.4,27.7 560,27.4 560.6,27.1 561.2,26.7 561.7,26.2 562.2,25.8 562.6,25.2 563,24.6 563.4,24 563.7,23.4 563.9,22.8 564.1,22.1 564.2,21.4 564.3,20.7" />
<path stroke="#000000" stroke-width="2" d="M 594.3,70" />
</svg>