<svg xmlns="http://www.w3.org/2000/svg" width="590.1397196853563" height="93.04481869954853" style="fill:none; stroke-linecap:round;">
    <rect width="100%" height="100%" fill="#FFFFFF" />
<path stroke="#000000" stroke-width="2" d="M 375,75" />
<path stroke="#000000" stroke-width="2" d="M 20,70 20.2,70 20.2,70.2 20,70.2 20,70" />
<path stroke="#000000" stroke-width="2" d="M 26.9,70" />
<path stroke="#000000" stroke-width="2" d="M 26.9,30 26.9,70 26.9,58 26.9,56.3 27,54.5 27.3,52.8 27.8,51.1 28.4,49.5 29.1,47.9 30,46.4 31,45 32.1,43.6 33.3,42.4 34.7,41.3 36.1,40.3 37.6,39.4 39.2,38.7 40.8,38.1 42.5,37.6 44.2,37.3 46,37.1" />
<path stroke="#000000" stroke-width="2" d="M 52.6,70" />
<path stroke="#000000" stroke-width="2" d="M 52.6,20 52.6,40 58.3,34.3" />
<path stroke="#000000" stroke-width="2" d="M 65,70" />
<path stroke="#000000" stroke-width="2" d="M 65,20 65,40 65,34 65,33.1 65,32.3 65.2,31.4 65.4,30.6 65.7,29.7 66.1,28.9 66.5,28.2 67,27.5 67.6,26.8 68.2,26.2 68.9,25.6 69.6,25.1 70.3,24.7 71.1,24.3 71.9,24 72.8,23.8 73.7,23.6 74.5,23.6 75.4,23.6 76.3,23.6 77.1,23.8 78,24 78.8,24.3 79.6,24.7 80.3,25.1 81,25.6 81.7,26.2 82.3,26.8 82.9,27.5 83.4,28.2 83.8,28.9 84.2,29.7 84.5,30.6 84.7,31.4 84.9,32.3 84.9,33.1 84.9,34 84.9,34.9 84.7,35.7 84.5,36.6 84.2,37.4 83.8,38.2 83.4,38.9 82.9,39.7 82.3,40.3 81.7,40.9 81,41.5 80.3,42 79.6,42.4 78.8,42.8 78,43.1 77.1,43.3 76.3,43.5 75.4,43.6" />
<path stroke="#000000" stroke-width="2" d="M 75.4,43.6 77.4,43.4 79,43.1 80.3,42.7 81.2,42.1 81.7,41.4 82,40.7 82,40 81.9,39.2 81.5,38.5 81,37.9 80.4,37.4 79.7,37.1 79,36.9 78.2,36.9 77.5,37.2 76.8,37.8 76.3,38.7 75.8,39.9 75.5,41.5 75.4,43.6 75.4,58.6" />
<path stroke="#000000" stroke-width="2" d="M 114.9,70" />
<path stroke="#000000" stroke-width="2" d="M 124.9,30 124.1,30 123.2,30.1 122.3,30.2 121.5,30.5 120.7,30.8 119.9,31.1 119.1,31.6 118.4,32.1 117.8,32.6 117.1,33.2 116.6,33.9 116.1,34.6 115.6,35.4 115.3,36.2 115,37 114.7,37.8 114.6,38.7 114.5,39.6 114.5,40.4 114.6,41.3 114.7,42.2 115,43 115.3,43.8 115.6,44.6 116.1,45.4 116.6,46.1 117.1,46.7 117.8,47.4 118.4,47.9 119.1,48.4 119.9,48.9 120.7,49.2 121.5,49.5 122.3,49.8 123.2,49.9 124.1,50 129.1,50 129.1,70" />
<path stroke="#000000" stroke-width="2" d="M 159.1,70" />
<path stroke="#000000" stroke-width="2" d="M 179.1,30 163.8,67" />
<path stroke="#000000" stroke-width="2" d="M 185.7,70" />
<path stroke="#000000" stroke-width="2" d="M 185.7,50 185.7,50.7 185.8,51.4 185.9,52.1 186.1,52.8 186.3,53.4 186.6,54 187,54.6 187.4,55.2 187.8,55.8 188.3,56.2 188.9,56.7 189.4,57.1 190,57.4 190.7,57.7 191.3,58 192,58.2 192.7,58.3 193.4,58.3 194.1,58.3 194.8,58.3 195.5,58.2 196.1,58 196.8,57.7 197.4,57.4 198,57.1 198.6,56.7 199.1,56.2 199.6,55.8 200.1,55.2 200.5,54.6 200.8,54 201.1,53.4 201.4,52.8 201.5,52.1 201.7,51.4 201.7,50.7" />
<path stroke="#000000" stroke-width="2" d="M 208.4,70" />
<path stroke="#000000" stroke-width="2" d="M 208.4,20 208.4,40 208.4,34 208.4,33.1 208.5,32.3 208.6,31.4 208.8,30.6 209.1,29.7 209.5,28.9 209.9,28.2 210.4,27.5 211,26.8 211.6,26.2 212.3,25.6 213,25.1 213.8,24.7 214.6,24.3 215.4,24 216.2,23.8 217.1,23.6 217.9,23.6" />
<path stroke="#000000" stroke-width="2" d="M 224.6,70" />
<path stroke="#000000" stroke-width="2" d="M 224.6,20 244.6,20" />
<path stroke="#000000" stroke-width="2" d="M 244.6,20 246.6,19.9 248.3,19.6 249.5,19.1 250.4,18.6 250.9,17.9 251.2,17.2 251.3,16.4 251.1,15.7 250.7,15 250.2,14.4 249.6,13.9 248.9,13.5 248.2,13.3 247.4,13.4 246.7,13.7 246.1,14.2 245.5,15.1 245,16.4 244.7,18 244.6,20 244.6,35" />
<path stroke="#000000" stroke-width="2" d="M 281.3,70" />
<path stroke="#000000" stroke-width="2" d="M 281.3,70 296.6,33 296.6,73 296.6,61 296.6,59.3 296.7,57.6 297,55.8 297.5,54.2 298.1,52.5 298.8,50.9 299.7,49.4 300.7,48 301.8,46.7 303,45.4 304.4,44.3 305.8,43.3 307.3,42.4 308.9,41.7 310.5,41.1" />
<path stroke="#000000" stroke-width="2" d="M 340.5,70" />
<path stroke="#000000" stroke-width="2" d="M 360.5,30 345.2,67 349.8,55.9 350.5,54.3 351.3,52.7 352.2,51.2 353.3,49.9 354.5,48.6 355.8,47.4 357.1,46.3 358.6,45.4 360.2,44.6 361.8,43.9 363.4,43.4 365.1,43" />
<path stroke="#000000" stroke-width="2" d="M 371.8,70" />
<path stroke="#000000" stroke-width="2" d="M 371.8,20 381.7,29.9 371.8,39.8" />
<path stroke="#000000" stroke-width="2" d="M 388.4,70" />
<path stroke="#000000" stroke-width="2" d="M 388.4,20 388.4,40 388.4,34 388.4,33.1 388.5,32.3 388.6,31.4 388.8,30.6 389.1,29.7 389.5,28.9 389.9,28.2 390.4,27.5 391,26.8 391.6,26.2 392.3,25.6 393,25.1 393.8,24.7 394.5,24.3 395.4,24 396.2,23.8 397.1,23.6 397.9,23.6" />
<path stroke="#000000" stroke-width="2" d="M 404.6,70" />
<path stroke="#000000" stroke-width="2" d="M 404.6,30 404.8,30 404.8,30.2 404.6,30.2 404.6,30" />
<path stroke="#000000" stroke-width="2" d="M 434.8,70" />
<path stroke="#000000" stroke-width="2" d="M 434.8,50 442.5,31.5 462.5,31.5 463.3,31.5 464.2,31.6 465.1,31.7 465.9,32 466.7,32.3 467.5,32.6 468.3,33.1 469,33.6 469.6,34.1 470.3,34.8 470.8,35.4 471.3,36.1 471.8,36.9 472.1,37.7 472.4,38.5 472.7,39.3 472.8,40.2 472.9,41.1 472.9,41.9 472.8,42.8 472.7,43.7 472.4,44.5 472.1,45.3 471.8,46.1 471.3,46.9 470.8,47.6 470.3,48.3 469.6,48.9 469,49.4 468.3,49.9 467.5,50.4 466.7,50.8 465.9,51.1 465.1,51.3 464.2,51.4 463.3,51.5" />
<path stroke="#000000" stroke-width="2" d="M 502.9,70" />
<path stroke="#000000" stroke-width="2" d="M 502.9,30 502.9,70" />
<path stroke="#000000" stroke-width="2" d="M 509.5,70" />
<path stroke="#000000" stroke-width="2" d="M 519.5,20 511.9,38.5 514.2,32.9 514.5,32.1 514.9,31.4 515.4,30.6 515.9,29.9 516.5,29.3 517.2,28.7 517.9,28.2 518.6,27.7 519.4,27.3 520.2,27 521,26.7 521.9,26.5" />
<path stroke="#000000" stroke-width="2" d="M 528.5,70" />
<path stroke="#000000" stroke-width="2" d="M 530.5,20 539,28.5" />
<path stroke="#000000" stroke-width="2" d="M 547.5,20 527.7,39.8" />
<path stroke="#000000" stroke-width="2" d="M 554.2,70" />
<path stroke="#000000" stroke-width="2" d="M 554.2,20 554.2,20.7 554.2,21.4 554.3,22.1 554.5,22.8 554.8,23.4 555.1,24 555.4,24.6 555.8,25.2 556.2,25.8 556.7,26.2 557.3,26.7 557.8,27.1 558.5,27.4 559.1,27.7 559.7,28 560.4,28.2 561.1,28.3 561.8,28.3 562.5,28.3 563.2,28.3 563.9,28.2 564.6,28 565.2,27.7 565.8,27.4 566.4,27.1 567,26.7 567.6,26.2 568,25.8 568.5,25.2 568.9,24.6 569.2,24 569.5,23.4 569.8,22.8 570,22.1 570.1,21.4 570.1,20.7" />
<path stroke="#000000" stroke-width="2" d="M 600.1,70" />
</svg>