<svg xmlns="http://www.w3.org/2000/svg" width="580.1587552537192" height="93.04481869954853" style="fill:none; stroke-linecap:round;">
    <rect width="100%" height="100%" fill="#FFFFFF" />
<path stroke="#000000" stroke-width="2" d="M 375,75" />
<path stroke="#000000" stroke-width="2" d="M 20,70 20.2,70 20.2,70.2 20,70.2 20,70" />
<path stroke="#000000" stroke-width="2" d="M 26.9,70" />
<path stroke="#000000" stroke-width="2" d="M 26.9,30 26.9,70 26.9,58 26.9,56.3 27,54.5 27.3,52.8 27.8,51.1 28.4,49.5 29.1,47.9 30,46.4 31,45 32.1,43.6 33.3,42.4 34.7,41.3 36.1,40.3 37.6,39.4 39.2,38.7 40.8,38.1 42.5,37.6 44.2,37.3 46,37.1" />
<path stroke="#000000" stroke-width="2" d="M 52.6,70" />
<path stroke="#000000" stroke-width="2" d="M 52.6,20 52.6,40 58.3,34.3" />
<path stroke="#000000" stroke-width="2" d="M 65,70" />
<path stroke="#000000" stroke-width="2" d="M 65,20 65,40 65,34 65,33.1 65,32.3 65.2,31.4 65.4,30.6 65.7,29.7 66.1,28.9 66.5,28.2 67,27.5 67.6,26.8 68.2,26.2 68.9,25.6 69.6,25.1 70.3,24.7 71.1,24.3 71.9,24 72.8,23.8 73.7,23.6 74.5,23.6" />
<path stroke="#000000" stroke-width="2" d="M 74.5,23.6 75.9,23.7 77.2,24.1 78.3,24.8 79.3,25.7 80.1,26.7 80.8,27.9 81.3,29.2 81.7,30.6 81.9,32.1 82,33.6 81.9,35.1 81.7,36.5 81.3,37.9 80.8,39.3 80.1,40.4 79.3,41.5 78.3,42.4 77.2,43 75.9,43.4 74.5,43.6" />
<path stroke="#000000" stroke-width="2" d="M 74.5,43.6 76.6,43.5 78.2,43.2 79.4,42.7 80.3,42.1 80.8,41.5 81.1,40.7 81.2,40 81,39.3 80.6,38.6 80.1,37.9 79.5,37.4 78.8,37.1 78.1,36.9 77.4,37 76.6,37.2 76,37.8 75.4,38.7 74.9,39.9 74.6,41.5 74.5,43.6 74.5,58.6" />
<path stroke="#000000" stroke-width="2" d="M 112,70" />
<path stroke="#000000" stroke-width="2" d="M 117,30" />
<path stroke="#000000" stroke-width="2" d="M 117,30 115.6,30.1 114.3,30.6 113.2,31.2 112.2,32.1 111.4,33.1 110.7,34.3 110.2,35.6 109.8,37 109.6,38.5 109.5,40 109.6,41.5 109.8,43 110.2,44.4 110.7,45.7 111.4,46.9 112.2,47.9 113.2,48.8 114.3,49.4 115.6,49.9 117,50 122,50 122,70" />
<path stroke="#000000" stroke-width="2" d="M 152,70" />
<path stroke="#000000" stroke-width="2" d="M 172,30 156.7,67" />
<path stroke="#000000" stroke-width="2" d="M 178.7,70" />
<path stroke="#000000" stroke-width="2" d="M 178.7,50 178.7,50.7 178.7,51.4 178.9,52.1 179,52.8 179.3,53.4 179.6,54 179.9,54.6 180.3,55.2 180.8,55.8 181.3,56.2 181.8,56.7 182.4,57.1 183,57.4 183.6,57.7 184.3,58 184.9,58.2 185.6,58.3 186.3,58.3 187,58.3 187.7,58.3 188.4,58.2 189.1,58 189.7,57.7 190.4,57.4 191,57.1 191.5,56.7 192.1,56.2 192.6,55.8 193,55.2 193.4,54.6 193.8,54 194.1,53.4 194.3,52.8 194.5,52.1 194.6,51.4 194.7,50.7" />
<path stroke="#000000" stroke-width="2" d="M 201.3,70" />
<path stroke="#000000" stroke-width="2" d="M 201.3,20 201.3,40 201.3,34 201.3,33.1 201.4,32.3 201.6,31.4 201.8,30.6 202.1,29.7 202.5,28.9 202.9,28.2 203.4,27.5 204,26.8 204.6,26.2 205.2,25.6 206,25.1 206.7,24.7 207.5,24.3 208.3,24 209.2,23.8 210,23.6 210.9,23.6" />
<path stroke="#000000" stroke-width="2" d="M 217.6,70" />
<path stroke="#000000" stroke-width="2" d="M 217.6,20 237.6,20" />
<path stroke="#000000" stroke-width="2" d="M 237.6,20 239.6,19.9 241.2,19.6 242.4,19.1 243.3,18.6 243.9,17.9 244.2,17.2 244.2,16.4 244,15.7 243.7,15 243.2,14.4 242.6,13.9 241.9,13.5 241.1,13.3 240.4,13.4 239.7,13.7 239,14.2 238.4,15.1 238,16.4 237.7,18 237.6,20 237.6,35" />
<path stroke="#000000" stroke-width="2" d="M 274.2,70" />
<path stroke="#000000" stroke-width="2" d="M 274.2,70 289.5,33 289.5,73 289.5,61 289.5,59.3 289.7,57.6 290,55.8 290.4,54.2 291,52.5 291.8,50.9 292.6,49.4 293.6,48 294.8,46.7 296,45.4 297.3,44.3 298.8,43.3 300.3,42.4 301.8,41.7 303.5,41.1" />
<path stroke="#000000" stroke-width="2" d="M 333.5,70" />
<path stroke="#000000" stroke-width="2" d="M 353.5,30 338.2,67 342.8,55.9 343.4,54.3 344.2,52.7 345.2,51.2 346.2,49.9 347.4,48.6 348.7,47.4 350.1,46.3 351.6,45.4 353.1,44.6 354.7,43.9 356.4,43.4 358.1,43" />
<path stroke="#000000" stroke-width="2" d="M 364.8,70" />
<path stroke="#000000" stroke-width="2" d="M 364.8,20 374.7,29.9 364.8,39.8" />
<path stroke="#000000" stroke-width="2" d="M 381.3,70" />
<path stroke="#000000" stroke-width="2" d="M 381.3,20 381.3,40 381.3,34 381.3,33.1 381.4,32.3 381.6,31.4 381.8,30.6 382.1,29.7 382.4,28.9 382.9,28.2 383.4,27.5 383.9,26.8 384.6,26.2 385.2,25.6 385.9,25.1 386.7,24.7 387.5,24.3 388.3,24 389.2,23.8 390,23.6 390.9,23.6" />
<path stroke="#000000" stroke-width="2" d="M 397.5,70" />
<path stroke="#000000" stroke-width="2" d="M 397.5,30 397.7,30 397.7,30.2 397.5,30.2 397.5,30" />
<path stroke="#000000" stroke-width="2" d="M 427.7,70" />
<path stroke="#000000" stroke-width="2" d="M 427.7,50 435.4,31.5 455.4,31.5" />
<path stroke="#000000" stroke-width="2" d="M 455.4,31.5 456.8,31.7 458.1,32.1 459.2,32.7 460.2,33.6 461,34.6 461.7,35.8 462.2,37.2 462.6,38.6 462.8,40 462.9,41.5 462.8,43 462.6,44.5 462.2,45.9 461.7,47.2 461,48.4 460.2,49.4 459.2,50.3 458.1,51 456.8,51.4 455.4,51.5" />
<path stroke="#000000" stroke-width="2" d="M 492.9,70" />
<path stroke="#000000" stroke-width="2" d="M 492.9,30 492.9,70" />
<path stroke="#000000" stroke-width="2" d="M 499.6,70" />
<path stroke="#000000" stroke-width="2" d="M 509.6,20 501.9,38.5 504.2,32.9 504.5,32.1 504.9,31.4 505.4,30.6 505.9,29.9 506.5,29.3 507.2,28.7 507.9,28.2 508.6,27.7 509.4,27.3 510.2,27 511,26.7 511.9,26.5" />
<path stroke="#000000" stroke-width="2" d="M 518.5,70" />
<path stroke="#000000" stroke-width="2" d="M 520.5,20 529,28.5" />
<path stroke="#000000" stroke-width="2" d="M 537.5,20 517.7,39.8" />
<path stroke="#000000" stroke-width="2" d="M 544.2,70" />
<path stroke="#000000" stroke-width="2" d="M 544.2,20 544.2,20.7 544.2,21.4 544.4,22.1 544.5,22.8 544.8,23.4 545.1,24 545.4,24.6 545.8,25.2 546.3,25.8 546.8,26.2 547.3,26.7 547.9,27.1 548.5,27.4 549.1,27.7 549.8,28 550.4,28.2 551.1,28.3 551.8,28.3 552.5,28.3 553.2,28.3 553.9,28.2 554.6,28 555.2,27.7 555.9,27.4 556.5,27.1 557,26.7 557.6,26.2 558.1,25.8 558.5,25.2 558.9,24.6 559.3,24 559.6,23.4 559.8,22.8 560,22.1 560.1,21.4 560.2,20.7" />
<path stroke="#000000" stroke-width="2" d="M 590.2,70" />
</svg>