<IPython.core.display.HTML object>
<svg width="500" height="400" style="fill:none; stroke-linecap:round;">
    <rect width="100%" height="100%" fill="#F3F3F7" />


<path stroke="#DDDDDD" stroke-width="2" d="M 250,200" />'

<path stroke="#DDDDDD" stroke-width="2" d="M 0,120 1000,120" />'

<path stroke="#663399" stroke-width="2" d="M 1000,120" />'

<path stroke="#663399" stroke-width="2" d="M 30,120 40.3,91.8 50.5,120" />'

<path stroke="#663399" stroke-width="2" d="M 80.5,120" />'

<path stroke="#663399" stroke-width="2" d="M 80.5,90 80.5,120" />'

<path stroke="#663399" stroke-width="2" d="M 110.5,120" />'

<path stroke="#663399" stroke-width="2" d="M 118,90 110.5,90 110.5,120" />'

<path stroke="#663399" stroke-width="2" d="M 140.5,120" />'

<path stroke="#663399" stroke-width="2" d="M 140.5,90" />'

<path stroke="#663399" stroke-width="2" d="M 140.5,90 143.1,90.2 145.4,90.8 147.4,91.8 149.2,93.1 150.6,94.7 151.9,96.5 152.8,98.5 153.5,100.6 153.9,102.8 154,105 153.9,107.2 153.5,109.4 152.8,111.5 151.9,113.5 150.6,115.3 149.2,116.9 147.4,118.2 145.4,119.2 143.1,119.8 140.5,120" />'

<path stroke="#663399" stroke-width="2" d="M 170.5,120" />'

<path stroke="#663399" stroke-width="2" d="M 170.5,90" />'

<path stroke="#663399" stroke-width="2" d="M 188.5,120 190,115.9 191,112.4 191.4,109.5 191.4,107.2 191.1,105.5 190.5,104.2 189.7,103.3 188.7,102.8 187.7,102.6 186.6,102.8 185.7,103.1 184.8,103.6 184.2,104.2 183.9,104.9 183.9,105.7 184.3,106.4 185.2,107 186.7,107.5 188.7,107.9 191.5,108 203.5,108" />'

<path stroke="#663399" stroke-width="2" d="M 233.5,120" />'

<path stroke="#663399" stroke-width="2" d="M 233.5,90 241,90 241,120" />'

<path stroke="#663399" stroke-width="2" d="M 271,120" />'

<path stroke="#663399" stroke-width="2" d="M 271,90" />'

<path stroke="#663399" stroke-width="2" d="M 271,90 271.1,92.1 271.4,94.1 271.9,95.7 272.6,97.2 273.4,98.4 274.3,99.4 275.2,100.2 276.3,100.8 277.4,101.1 278.5,101.2 279.6,101.1 280.7,100.8 281.8,100.2 282.8,99.4 283.7,98.4 284.5,97.2 285.1,95.7 285.6,94.1 285.9,92.1 286,90 286,120" />'

<path stroke="#663399" stroke-width="2" d="M 316,120" />'

<path stroke="#663399" stroke-width="2" d="M 331,90 322.8,104.3 331,118.6" />'

<path stroke="#663399" stroke-width="2" d="M 361,120" />'

<path stroke="#663399" stroke-width="2" d="M 361,90 361,120 376,120" />'

<path stroke="#663399" stroke-width="2" d="M 406,120" />'

<path stroke="#663399" stroke-width="2" d="M 421,90 421,120 406,120" />'

<path stroke="#663399" stroke-width="2" d="M 436,120" />'

<path stroke="#663399" stroke-width="2" d="M 436,90" />'

<path stroke="#663399" stroke-width="2" d="M 436,120 436.2,115.7 436.9,111.9 437.8,108.5 439.1,105.6 440.7,103.1 442.5,101.1 444.5,99.5 446.6,98.4 448.8,97.7 451,97.5 453.3,97.7 455.5,98.4 457.6,99.5 459.5,101.1 461.3,103.1 462.9,105.6 464.2,108.5 465.2,111.9 465.8,115.7 466,120" />'

<path stroke="#DDDDDD" stroke-width="2" d="M 496,120" />'

<path stroke="#DDDDDD" stroke-width="2" d="M 0,240 1000,240" />'

<path stroke="#663399" stroke-width="2" d="M 1000,240" />'

<path stroke="#663399" stroke-width="2" d="M 30,216" />'

<path stroke="#663399" stroke-width="2" d="M 30,216 30.2,220.3 30.8,224.1 31.8,227.5 33.1,230.4 34.7,232.9 36.5,234.9 38.5,236.5 40.6,237.6 42.8,238.3 45,238.5 47.2,238.3 49.4,237.6 51.5,236.5 53.5,234.9 55.3,232.9 56.9,230.4 58.2,227.5 59.2,224.1 59.8,220.3 60,216" />'

<path stroke="#663399" stroke-width="2" d="M 90,240" />'

<path stroke="#663399" stroke-width="2" d="M 90,210 100.3,238.2" />'

<path stroke="#663399" stroke-width="2" d="M 130.3,240" />'

<path stroke="#663399" stroke-width="2" d="M 130.3,210 145.3,210" />'

<path stroke="#663399" stroke-width="2" d="M 175.3,240" />'

<path stroke="#663399" stroke-width="2" d="M 175.3,210" />'

<path stroke="#663399" stroke-width="2" d="M 193.3,210 190.7,210.2 188.4,210.8 186.4,211.8 184.6,213.1 183.1,214.7 181.9,216.5 181,218.5 180.3,220.6 179.9,222.8 179.8,225 179.9,227.2 180.3,229.4 181,231.5 181.9,233.5 183.1,235.3 184.6,236.9 186.4,238.2 188.4,239.2 190.7,239.8 193.3,240" />'

<path stroke="#663399" stroke-width="2" d="M 223.3,240" />'

<path stroke="#663399" stroke-width="2" d="M 223.3,210" />'

<path stroke="#663399" stroke-width="2" d="M 238.3,210 240.2,210.2 241.5,210.8 242.3,211.7 242.5,212.9 242.4,214.2 241.9,215.7 241.1,217.2 240,218.6 238.8,220 237.5,221.2 236.1,222.3 234.8,223 233.5,223.3 232.4,223.2 231.5,222.7 230.9,221.5 230.6,219.8 230.6,217.3 231.2,214.1 232.3,210 259.3,210" />'

<path stroke="#663399" stroke-width="2" d="M 289.3,240" />'

<path stroke="#663399" stroke-width="2" d="M 289.3,210" />'

<path stroke="#663399" stroke-width="2" d="M 319.3,222 316.7,224.4 314.4,226.1 312.4,227.2 310.6,227.8 309.1,227.9 307.9,227.7 307,227.1 306.3,226.3 305.9,225.3 305.8,224.2 305.9,223.1 306.3,222 307,221 307.9,220.1 309.1,219.5 310.6,219.1 312.4,219.1 314.4,219.6 316.7,220.5 319.3,222 319.3,237" />'

<path stroke="#663399" stroke-width="2" d="M 349.3,240" />'

<path stroke="#663399" stroke-width="2" d="M 349.3,210" />'

<path stroke="#663399" stroke-width="2" d="M 349.3,240 349.3,235.7 349.3,231.9 349.3,228.4 349.4,225.4 349.5,222.7 349.7,220.3 349.9,218.2 350.2,216.5 350.6,215 351.1,213.8 351.8,212.7 352.5,211.9 353.4,211.3 354.4,210.8 355.6,210.5 356.9,210.2 358.5,210.1 360.2,210 362.1,210 364.3,210" />'

<path stroke="#663399" stroke-width="2" d="M 349.3,210 349.3,240" />'

<path stroke="#663399" stroke-width="2" d="M 379.3,240" />'

<path stroke="#663399" stroke-width="2" d="M 379.3,210" />'

<path stroke="#663399" stroke-width="2" d="M 379.3,222 381,224.4 382.5,226.1 383.9,227.2 385,227.8 386,227.9 386.8,227.7 387.5,227.1 387.9,226.3 388.2,225.3 388.3,224.2 388.2,223.1 387.9,222 387.5,221 386.8,220.1 386,219.5 385,219.1 383.9,219.1 382.5,219.6 381,220.5 379.3,222 379.3,237" />'

<path stroke="#663399" stroke-width="2" d="M 409.3,240" />'

<path stroke="#663399" stroke-width="2" d="M 424.3,210 414,238.2" />'

<path stroke="#DDDDDD" stroke-width="2" d="M 444,240" />'

<path stroke="#DDDDDD" stroke-width="2" d="M 0,360 1000,360" />'

<path stroke="#663399" stroke-width="2" d="M 1000,360" />'

<path stroke="#663399" stroke-width="2" d="M 30,330" />'

<path stroke="#663399" stroke-width="2" d="M 39,330 41.8,334.3 43.9,338.1 45.4,341.5 46.3,344.4 46.8,346.9 46.9,348.9 46.7,350.5 46.2,351.6 45.7,352.3 45,352.5 44.3,352.3 43.8,351.6 43.3,350.5 43.1,348.9 43.2,346.9 43.7,344.4 44.6,341.5 46.1,338.1 48.2,334.3 51,330" />'

<path stroke="#663399" stroke-width="2" d="M 81,360" />'

<path stroke="#663399" stroke-width="2" d="M 81,330 91.3,358.2 101.5,330" />'

<path stroke="#663399" stroke-width="2" d="M 131.5,360" />'

<path stroke="#663399" stroke-width="2" d="M 131.5,330 131.5,360 139.2,350.8" />'

<path stroke="#663399" stroke-width="2" d="M 169.2,360" />'

<path stroke="#663399" stroke-width="2" d="M 184.2,330 211.8,357.6" />'

<path stroke="#663399" stroke-width="2" d="M 181.8,357.6 209.4,330" />'

<path stroke="#663399" stroke-width="2" d="M 239.4,360" />'

<path stroke="#663399" stroke-width="2" d="M 239.4,330 249,341.5" />'

<path stroke="#663399" stroke-width="2" d="M 258.7,330 233.6,359.9" />'

<path stroke="#663399" stroke-width="2" d="M 263.6,360" />'

<path stroke="#663399" stroke-width="2" d="M 278.6,330 293.6,330 277.1,358.6 292.1,358.6" />'

<path stroke="#663399" stroke-width="2" d="M 322.1,360" />'

<path stroke="#663399" stroke-width="2" d="M 322.1,330" />'

<path stroke="#663399" stroke-width="2" d="M 337.1,345 335.2,347.1 333.9,349.1 333.1,350.7 332.8,352.2 332.9,353.4 333.3,354.4 334,355.2 334.9,355.8 336,356.1 337.1,356.2 338.2,356.1 339.3,355.8 340.2,355.2 340.9,354.4 341.3,353.4 341.4,352.2 341.1,350.7 340.3,349.1 339,347.1 337.1,345" />'

<path stroke="#663399" stroke-width="2" d="M 367.1,360" />'

<path stroke="#663399" stroke-width="2" d="M 367.1,339" />'

<path stroke="#663399" stroke-width="2" d="M 397.1,351 394.5,353.4 392.2,355.1 390.2,356.2 388.5,356.8 387,356.9 385.8,356.7 384.8,356.1 384.1,355.3 383.7,354.3 383.6,353.2 383.7,352.1 384.1,351 384.8,350 385.8,349.1 387,348.5 388.5,348.1 390.2,348.1 392.2,348.6 394.5,349.5 397.1,351 397.1,336" />'

<path stroke="#663399" stroke-width="2" d="M 427.1,360" />'

<path stroke="#663399" stroke-width="2" d="M 427.1,330 435.4,344.3 427.1,358.6" />'

<path stroke="#DDDDDD" stroke-width="2" d="M 457.1,360" />'

<path stroke="#DDDDDD" stroke-width="2" d="M 0,480 1000,480" />'

<path stroke="#663399" stroke-width="2" d="M 1000,480" />'

</svg>
