<svg width="500" height="400" style="fill:none; stroke-linecap:round;">
    <rect width="100%" height="100%" fill="#F3F3F7" />


<path stroke="#DDDDDD" stroke-width="2" d="M 250,200" />'

<path stroke="#DDDDDD" stroke-width="2" d="M 0,120 1000,120" />'

<path stroke="#663399" stroke-width="2" d="M 1000,120" />'

<path stroke="#663399" stroke-width="2" d="M 30,120 41.5,92.3 53,120" />'

<path stroke="#663399" stroke-width="2" d="M 83,120" />'

<path stroke="#663399" stroke-width="2" d="M 83,90 83,120" />'

<path stroke="#663399" stroke-width="2" d="M 113,120" />'

<path stroke="#663399" stroke-width="2" d="M 120.5,90 113,90 113,120" />'

<path stroke="#663399" stroke-width="2" d="M 143,120" />'

<path stroke="#663399" stroke-width="2" d="M 143,90 149.3,105.2 143,120.5" />'

<path stroke="#663399" stroke-width="2" d="M 173,120" />'

<path stroke="#663399" stroke-width="2" d="M 173,90 174.3,90 175.6,90.1 176.9,90.3 178.1,90.7 179.4,91.1 180.5,91.7 181.7,92.3 182.7,93.1 183.7,93.9 184.7,94.9 185.5,95.9 186.3,96.9 186.9,98.1 187.5,99.2 187.9,100.5 188.3,101.7 188.5,103 188.6,104.3 188.6,105.6 188.5,106.9 188.3,108.2 187.9,109.5 187.5,110.7 186.9,111.9 186.3,113 185.5,114.1 184.7,115.1 183.7,116 182.7,116.9 181.7,117.6 180.5,118.3 179.4,118.8 178.1,119.3 176.9,119.6 175.6,119.9 174.3,120" />'

<path stroke="#663399" stroke-width="2" d="M 204.3,120" />'

<path stroke="#663399" stroke-width="2" d="M 204.3,120 211.2,103.4 211.2,102.8 211.1,102.3 211,101.8 210.9,101.3 210.7,100.8 210.5,100.3 210.2,99.9 209.9,99.5 209.6,99.1 209.2,98.7 208.8,98.3 208.4,98 207.9,97.8 207.5,97.6 207,97.4 206.5,97.3 205.9,97.2 205.4,97.1 204.9,97.1 204.4,97.2 203.9,97.3 203.4,97.4 202.9,97.6 202.4,97.8 201.9,98 201.5,98.3 201.1,98.7 200.7,99.1 200.4,99.5 200.1,99.9 199.8,100.3 199.6,100.8 199.4,101.3 199.3,101.8 199.2,102.3 199.2,102.8 199.2,103.4 199.2,103.9 199.3,104.4 199.4,104.9 199.6,105.4 199.8,105.9 200.1,106.3 200.4,106.8 200.7,107.2 201.1,107.5 201.5,107.9 201.9,108.2 202.4,108.4 202.9,108.7 203.4,108.8 203.9,109 204.4,109.1 204.9,109.1 222.9,109.1" />'

<path stroke="#663399" stroke-width="2" d="M 252.9,120" />'

<path stroke="#663399" stroke-width="2" d="M 252.9,90 260.4,90 260.4,120" />'

<path stroke="#663399" stroke-width="2" d="M 290.4,120" />'

<path stroke="#663399" stroke-width="2" d="M 290.4,90 290.4,90.8 290.5,91.6 290.6,92.3 290.8,93.1 291.1,93.8 291.4,94.5 291.8,95.2 292.3,95.9 292.8,96.5 293.3,97 293.9,97.5 294.6,98 295.2,98.4 295.9,98.7 296.7,99 297.4,99.2 298.2,99.3 299,99.4 299.8,99.4 300.6,99.3 301.3,99.2 302.1,99 302.8,98.7 303.5,98.4 304.2,98 304.9,97.5 305.5,97 306,96.5 306.5,95.9 307,95.2 307.4,94.5 307.7,93.8 308,93.1 308.2,92.3 308.3,91.6 308.4,90.8 308.4,120.8" />'

<path stroke="#663399" stroke-width="2" d="M 338.4,120" />'

<path stroke="#663399" stroke-width="2" d="M 353.4,90 347.1,105.2 353.4,120.5" />'

<path stroke="#663399" stroke-width="2" d="M 383.4,120" />'

<path stroke="#663399" stroke-width="2" d="M 383.4,90 383.4,120 398.4,120" />'

<path stroke="#663399" stroke-width="2" d="M 428.4,120" />'

<path stroke="#663399" stroke-width="2" d="M 443.4,90 443.4,120 428.4,120" />'

<path stroke="#DDDDDD" stroke-width="2" d="M 458.4,120" />'

<path stroke="#DDDDDD" stroke-width="2" d="M 0,240 1000,240" />'

<path stroke="#663399" stroke-width="2" d="M 1000,240" />'

<path stroke="#663399" stroke-width="2" d="M 30,240 30,238.7 30.1,237.4 30.3,236.1 30.7,234.8 31.1,233.6 31.7,232.4 32.3,231.3 33.1,230.2 33.9,229.2 34.9,228.3 35.9,227.4 36.9,226.7 38.1,226 39.2,225.5 40.5,225 41.7,224.7 43,224.5 44.3,224.4 45.6,224.4 46.9,224.5 48.2,224.7 49.5,225 50.7,225.5 51.9,226 53,226.7 54.1,227.4 55.1,228.3 56,229.2 56.9,230.2 57.6,231.3 58.3,232.4 58.8,233.6 59.3,234.8 59.6,236.1 59.9,237.4 60,238.7" />'

<path stroke="#663399" stroke-width="2" d="M 90,240" />'

<path stroke="#663399" stroke-width="2" d="M 90,225 90,226.3 90.1,227.6 90.3,228.9 90.7,230.2 91.1,231.4 91.7,232.6 92.3,233.7 93.1,234.8 93.9,235.8 94.8,236.7 95.8,237.6 96.9,238.3 98,239 99.2,239.5 100.4,240 101.7,240.3 103,240.5 104.3,240.6 105.6,240.6 106.9,240.5 108.2,240.3 109.5,240 110.7,239.5 111.9,239 113,238.3 114.1,237.6 115.1,236.7 116,235.8 116.9,234.8 117.6,233.7 118.3,232.6 118.8,231.4 119.3,230.2 119.6,228.9 119.8,227.6 119.9,226.3" />'

<path stroke="#663399" stroke-width="2" d="M 149.9,240" />'

<path stroke="#663399" stroke-width="2" d="M 149.9,210 161.4,237.7" />'

<path stroke="#663399" stroke-width="2" d="M 191.4,240" />'

<path stroke="#663399" stroke-width="2" d="M 191.4,210 206.4,210" />'

<path stroke="#663399" stroke-width="2" d="M 236.4,240" />'

<path stroke="#663399" stroke-width="2" d="M 251.4,210 250.1,210 248.8,210.1 247.5,210.3 246.3,210.7 245,211.1 243.8,211.7 242.7,212.3 241.6,213.1 240.6,213.9 239.7,214.9 238.9,215.9 238.1,216.9 237.5,218.1 236.9,219.2 236.5,220.5 236.1,221.7 235.9,223 235.8,224.3 235.8,225.6 235.9,226.9 236.1,228.2 236.5,229.5 236.9,230.7 237.5,231.9 238.1,233 238.9,234.1 239.7,235.1 240.6,236 241.6,236.9 242.7,237.6 243.8,238.3 245,238.8 246.3,239.3 247.5,239.6 248.8,239.9 250.1,240" />'

<path stroke="#663399" stroke-width="2" d="M 280.1,240" />'

<path stroke="#663399" stroke-width="2" d="M 280.1,210 280.6,210 281.2,210 281.7,210.1 282.2,210.3 282.7,210.5 283.1,210.7 283.6,210.9 284,211.2 284.4,211.6 284.8,211.9 285.1,212.3 285.4,212.8 285.7,213.2 285.9,213.7 286.1,214.2 286.2,214.7 286.3,215.2 286.4,215.7 286.4,216.3 286.3,216.8 286.2,217.3 286.1,217.8 285.9,218.3 285.7,218.8 285.4,219.2 285.1,219.6 284.8,220 284.4,220.4 284,220.8 283.6,221.1 283.1,221.3 282.7,221.5 282.2,221.7 281.7,221.9 281.2,221.9 280.6,222 280.1,222 279.6,221.9 279.1,221.9 278.6,221.7 278.1,221.5 277.6,221.3 277.2,221.1 276.7,220.8 276.3,220.4 276,220 275.6,219.6 275.3,219.2 275.1,218.8 274.8,218.3 274.7,217.8 274.5,217.3 274.4,216.8 274.4,216.3 274.4,215.7 274.4,215.2 274.5,214.7 274.7,214.2 274.8,213.7 275.1,213.2 275.3,212.8 275.6,212.3 276,211.9 276.3,211.6 276.7,211.2 277.2,210.9 277.6,210.7 278.1,210.5 278.6,210.3 279.1,210.1 279.6,210 280.1,210 307.1,210" />'

<path stroke="#663399" stroke-width="2" d="M 337.1,240" />'

<path stroke="#663399" stroke-width="2" d="M 337.1,210 337.1,210.5 337.1,211 337,211.6 336.8,212.1 336.7,212.6 336.4,213 336.2,213.5 335.9,213.9 335.5,214.3 335.2,214.7 334.8,215 334.3,215.3 333.9,215.6 333.4,215.8 332.9,216 332.4,216.1 331.9,216.2 331.4,216.3 330.9,216.3 330.3,216.2 329.8,216.1 329.3,216 328.8,215.8 328.4,215.6 327.9,215.3 327.5,215 327.1,214.7 326.7,214.3 326.4,213.9 326.1,213.5 325.8,213 325.6,212.6 325.4,212.1 325.3,211.6 325.2,211 325.1,210.5 325.1,210 325.2,209.5 325.3,209 325.4,208.5 325.6,208 325.8,207.5 326.1,207 326.4,206.6 326.7,206.2 327.1,205.8 327.5,205.5 327.9,205.2 328.4,204.9 328.8,204.7 329.3,204.5 329.8,204.4 330.3,204.3 330.9,204.3 331.4,204.3 331.9,204.3 332.4,204.4 332.9,204.5 333.4,204.7 333.9,204.9 334.3,205.2 334.8,205.5 335.2,205.8 335.5,206.2 335.9,206.6 336.2,207 336.4,207.5 336.7,208 336.8,208.5 337,209 337.1,209.5 337.1,210 337.1,225" />'

<path stroke="#663399" stroke-width="2" d="M 367.1,240" />'

<path stroke="#663399" stroke-width="2" d="M 367.1,210 367.1,240 367.1,225 367.1,223.7 367.2,222.4 367.5,221.1 367.8,219.8 368.2,218.6 368.8,217.4 369.4,216.3 370.2,215.2 371,214.2 372,213.3 373,212.4 374,211.7 375.2,211 376.4,210.5 377.6,210 378.9,209.7 380.1,209.5 381.4,209.4" />'

<path stroke="#663399" stroke-width="2" d="M 411.4,240" />'

<path stroke="#663399" stroke-width="2" d="M 411.4,210 411.4,210.5 411.5,211 411.6,211.6 411.7,212.1 411.9,212.6 412.1,213 412.4,213.5 412.7,213.9 413,214.3 413.4,214.7 413.8,215 414.2,215.3 414.7,215.6 415.1,215.8 415.6,216 416.1,216.1 416.7,216.2 417.2,216.3 417.7,216.3 418.2,216.2 418.7,216.1 419.2,216 419.7,215.8 420.2,215.6 420.7,215.3 421.1,215 421.5,214.7 421.9,214.3 422.2,213.9 422.5,213.5 422.8,213 423,212.6 423.2,212.1 423.3,211.6 423.4,211 423.4,210.5 423.4,210 423.4,209.5 423.3,209 423.2,208.5 423,208 422.8,207.5 422.5,207 422.2,206.6 421.9,206.2 421.5,205.8 421.1,205.5 420.7,205.2 420.2,204.9 419.7,204.7 419.2,204.5 418.7,204.4 418.2,204.3 417.7,204.3 417.2,204.3 416.7,204.3 416.1,204.4 415.6,204.5 415.1,204.7 414.7,204.9 414.2,205.2 413.8,205.5 413.4,205.8 413,206.2 412.7,206.6 412.4,207 412.1,207.5 411.9,208 411.7,208.5 411.6,209 411.5,209.5 411.4,210 411.4,225" />'

<path stroke="#DDDDDD" stroke-width="2" d="M 441.4,240" />'

<path stroke="#DDDDDD" stroke-width="2" d="M 0,360 1000,360" />'

<path stroke="#663399" stroke-width="2" d="M 1000,360" />'

<path stroke="#663399" stroke-width="2" d="M 30,339 30,354 30,354.5 30,355 29.9,355.6 29.7,356.1 29.5,356.6 29.3,357 29.1,357.5 28.8,357.9 28.4,358.3 28.1,358.7 27.7,359 27.2,359.3 26.8,359.6 26.3,359.8 25.8,360 25.3,360.1 24.8,360.2 24.3,360.3 23.7,360.3 23.2,360.2 22.7,360.1 22.2,360 21.7,359.8 21.2,359.6 20.8,359.3 20.4,359 20,358.7 19.6,358.3 19.2,357.9 18.9,357.5 18.7,357 18.5,356.6 18.3,356.1 18.1,355.6 18.1,355 18,354.5 18,354 18.1,353.5 18.1,353 18.3,352.5 18.5,352 18.7,351.5 18.9,351 19.2,350.6 19.6,350.2 20,349.8 20.4,349.5 20.8,349.2 21.2,348.9 21.7,348.7 22.2,348.5 22.7,348.4 23.2,348.3 23.7,348.3 24.3,348.3 24.8,348.3 25.3,348.4 25.8,348.5 26.3,348.7 26.8,348.9 27.2,349.2 27.7,349.5 28.1,349.8 28.4,350.2 28.8,350.6 29.1,351 29.3,351.5 29.5,352 29.7,352.5 29.9,353 30,353.5 30,354" />'

<path stroke="#663399" stroke-width="2" d="M 60,360" />'

<path stroke="#663399" stroke-width="2" d="M 75,330 63.5,357.7" />'

<path stroke="#663399" stroke-width="2" d="M 93.5,360" />'

<path stroke="#663399" stroke-width="2" d="M 108.5,342 108.5,343.3 108.4,344.6 108.2,345.9 107.8,347.2 107.4,348.4 106.8,349.6 106.2,350.7 105.4,351.8 104.6,352.8 103.7,353.7 102.7,354.6 101.6,355.3 100.5,356 99.3,356.5 98,357 96.8,357.3 95.5,357.5 94.2,357.6 92.9,357.6 91.6,357.5 90.3,357.3 89,357 87.8,356.5 86.6,356 85.5,355.3 84.4,354.6 83.4,353.7 82.5,352.8 81.6,351.8 80.9,350.7 80.2,349.6 79.7,348.4 79.2,347.2 78.9,345.9 78.7,344.6 78.5,343.3 78.5,342 78.7,340.7 78.9,339.4 79.2,338.1 79.7,336.9 80.2,335.7 80.9,334.6 81.6,333.5 82.5,332.5 83.4,331.6 84.4,330.8 85.5,330 86.6,329.3 87.8,328.8 89,328.3 90.3,328 91.6,327.8 92.9,327.7 94.2,327.7 95.5,327.8 96.8,328 98,328.3 99.3,328.8 100.5,329.3 101.6,330 102.7,330.8 103.7,331.6 104.6,332.5 105.4,333.5 106.2,334.6 106.8,335.7 107.4,336.9 107.8,338.1 108.2,339.4 108.4,340.7 108.5,342" />'

<path stroke="#663399" stroke-width="2" d="M 138.5,360" />'

<path stroke="#663399" stroke-width="2" d="M 138.5,330 144.3,343.9" />'

<path stroke="#663399" stroke-width="2" d="M 144.3,343.9 146.2,346 147.5,347.9 148.3,349.6 148.6,351.1 148.5,352.3 148,353.3 147.3,354.1 146.4,354.7 145.4,355 144.3,355.1 143.1,355 142.1,354.7 141.2,354.1 140.5,353.3 140,352.3 139.9,351.1 140.2,349.6 141,347.9 142.3,346 144.3,343.9 150,330" />'

<path stroke="#663399" stroke-width="2" d="M 180,360" />'

<path stroke="#663399" stroke-width="2" d="M 180,330 191.5,357.7 203,330" />'

<path stroke="#663399" stroke-width="2" d="M 233,360" />'

<path stroke="#663399" stroke-width="2" d="M 233,330 233,360 241.4,351.5" />'

<path stroke="#663399" stroke-width="2" d="M 271.4,360" />'

<path stroke="#663399" stroke-width="2" d="M 286.4,330 256.7,359.7" />'

<path stroke="#663399" stroke-width="2" d="M 256.7,329.7 286.4,359.4" />'

<path stroke="#663399" stroke-width="2" d="M 316.4,360" />'

<path stroke="#663399" stroke-width="2" d="M 316.4,330 329.2,342.7" />'

<path stroke="#663399" stroke-width="2" d="M 324.9,338.5" />'

<path stroke="#663399" stroke-width="2" d="M 335.5,327.9 321.8,361.1" />'

<path stroke="#663399" stroke-width="2" d="M 351.8,360" />'

<path stroke="#663399" stroke-width="2" d="M 351.8,330 366.8,330 354.1,360.5 369.1,360.5" />'

<path stroke="#663399" stroke-width="2" d="M 399.1,360" />'

</svg>
