<svg xmlns="http://www.w3.org/2000/svg" width="91.96954309061945" height="66.0" style="fill:none; stroke-linecap:round;">
    <rect width="100%" height="100%" fill="#FFFFFF" />
<path stroke="#000000" stroke-width="2" d="M 75,75" />
<path stroke="#000000" stroke-width="2" d="M 20,46 20,44.6 20.1,43.2 20.4,41.8 20.7,40.5 21.2,39.2 21.8,37.9 22.5,36.7 23.3,35.6 24.2,34.5 25.2,33.5 26.2,32.6 27.4,31.8 28.6,31.1 29.9,30.5 31.2,30 32.5,29.7 33.9,29.4 35.3,29.3 36.7,29.3 38.1,29.4 39.4,29.7 40.8,30 42.1,30.5 43.4,31.1 44.6,31.8 45.7,32.6 46.8,33.5 47.8,34.5 48.7,35.6 49.5,36.7 50.2,37.9 50.8,39.2 51.2,40.5 51.6,41.8 51.8,43.2 52,44.6" />
<path stroke="#000000" stroke-width="2" d="M 52,36.6" />
<path stroke="#000000" stroke-width="2" d="M 40,36.6 72,36.6" />
</svg>