<svg xmlns="http://www.w3.org/2000/svg" width="71.97715731796458" height="89.04686529676806" style="fill:none; stroke-linecap:round;">
    <rect width="100%" height="100%" fill="#FFFFFF" />
<path stroke="#000000" stroke-width="2" d="M 75,75" />
<path stroke="#000000" stroke-width="2" d="M 20,30 20,38 20,39 20.1,40.1 20.3,41.1 20.5,42.1 20.9,43.1 21.3,44.1 21.9,45 22.5,45.8 23.1,46.6 23.9,47.4 24.7,48 25.5,48.6 26.4,49.2 27.4,49.6 28.4,50 29.4,50.2 30.4,50.4 31.5,50.5 32.5,50.5 33.6,50.4 34.6,50.2 35.6,50 36.6,49.6 37.5,49.2 38.4,48.6 39.3,48 40.1,47.4 40.8,46.6 41.5,45.8 42.1,45 42.6,44.1 43.1,43.1 43.4,42.1 43.7,41.1 43.9,40.1 44,39 44,29 44,69" />
<path stroke="#000000" stroke-width="2" d="M 44,57" />
<path stroke="#000000" stroke-width="2" d="M 36,57 52,57" />
</svg>