<svg xmlns="http://www.w3.org/2000/svg" width="68.68629150101523" height="117.99504150101524" style="fill:none; stroke-linecap:round;">
    <rect width="100%" height="100%" fill="#FFFFFF" />
<path stroke="#000000" stroke-width="2" d="M 75,75" />
<path stroke="#000000" stroke-width="2" d="M 36,46 24.7,34.7 24.7,74.7" />
<path stroke="#000000" stroke-width="2" d="M 24.7,54.7" />
<path stroke="#000000" stroke-width="2" d="M 16.7,54.7 32.7,54.7 32.7,84.7" />
<path stroke="#000000" stroke-width="2" d="M 32.7,84.7 32.5,88.7 31.9,92 31,94.4 29.8,96.2 28.5,97.3 27,97.9 25.5,98 24,97.6 22.7,96.9 21.4,95.9 20.4,94.7 19.7,93.3 19.4,91.9 19.5,90.4 20,88.9 21.2,87.6 22.9,86.4 25.4,85.5 28.6,84.9 32.7,84.7 48.7,84.7" />
</svg>