<svg xmlns="http://www.w3.org/2000/svg" width="67.98477154530973" height="90.0" style="fill:none; stroke-linecap:round;">
    <rect width="100%" height="100%" fill="#FFFFFF" />
<path stroke="#000000" stroke-width="2" d="M 75,75" />
<path stroke="#000000" stroke-width="2" d="M 40,30 40,70 20,70" />
<path stroke="#000000" stroke-width="2" d="M 20,42" />
<path stroke="#000000" stroke-width="2" d="M 32,42 32,42.7 32.1,43.4 32.2,44.1 32.4,44.8 32.6,45.4 32.9,46 33.2,46.6 33.6,47.2 34.1,47.8 34.6,48.2 35.1,48.7 35.7,49.1 36.3,49.4 36.9,49.7 37.6,50 38.3,50.2 38.9,50.3 39.6,50.3 40.3,50.3 41,50.3 41.7,50.2 42.4,50 43.1,49.7 43.7,49.4 44.3,49.1 44.9,48.7 45.4,48.2 45.9,47.8 46.3,47.2 46.7,46.6 47.1,46 47.4,45.4 47.6,44.8 47.8,44.1 47.9,43.4 48,42.7" />
</svg>