<svg xmlns="http://www.w3.org/2000/svg" width="81.19830280838158" height="85.29086581694936" style="fill:none; stroke-linecap:round;">
    <rect width="100%" height="100%" fill="#FFFFFF" />
<path stroke="#000000" stroke-width="2" d="M 75,75" />
<path stroke="#000000" stroke-width="2" d="M 20,30 60,30 48.7,41.3 49.7,41.3 50.8,41.4 51.8,41.6 52.8,41.9 53.8,42.2 54.8,42.7 55.7,43.2 56.5,43.8 57.3,44.5 58.1,45.2 58.7,46 59.3,46.9 59.9,47.8 60.3,48.7 60.7,49.7 60.9,50.7 61.1,51.7 61.2,52.8 61.2,53.8 61.1,54.9 60.9,55.9 60.7,56.9 60.3,57.9 59.9,58.8 59.3,59.7 58.7,60.6 58.1,61.4 57.3,62.1 56.5,62.8 55.7,63.4 54.8,63.9 53.8,64.4 52.8,64.7 51.8,65 50.8,65.2 49.7,65.3" />
</svg>