<svg xmlns="http://www.w3.org/2000/svg" width="60.0" height="89.96192886327431" style="fill:none; stroke-linecap:round;">
    <rect width="100%" height="100%" fill="#FFFFFF" />
<path stroke="#000000" stroke-width="2" d="M 75,75" />
<path stroke="#000000" stroke-width="2" d="M 40,30 38.3,30 36.5,30.2 34.8,30.5 33.1,30.9 31.5,31.5 29.9,32.2 28.4,33.1 27,34.1 25.6,35.2 24.4,36.5 23.3,37.8 22.3,39.2 21.4,40.7 20.7,42.3 20.1,44 19.6,45.7 19.3,47.4 19.1,49.1 19.1,50.9 19.3,52.6 19.6,54.3 20.1,56 20.7,57.6 21.4,59.2 22.3,60.7 23.3,62.2 24.4,63.5 25.6,64.7 27,65.8 28.4,66.8 29.9,67.7 31.5,68.5 33.1,69.1 34.8,69.5 36.5,69.8 38.3,70" />
<path stroke="#000000" stroke-width="2" d="M 38.3,50" />
<path stroke="#000000" stroke-width="2" d="M 10.3,50 30.3,50" />
</svg>