<svg xmlns="http://www.w3.org/2000/svg" width="71.96954309061945" height="106.6826817431551" style="fill:none; stroke-linecap:round;">
    <rect width="100%" height="100%" fill="#FFFFFF" />
<path stroke="#000000" stroke-width="2" d="M 75,75" />
<path stroke="#000000" stroke-width="2" d="M 20,40 20.6,40.6 21.3,41.2 22,41.7 22.8,42.1 23.5,42.5 24.4,42.8 25.2,43 26.1,43.2 26.9,43.2 27.8,43.2 28.7,43.2 29.5,43 30.4,42.8 31.2,42.5 32,42.1 32.7,41.7 33.5,41.2 34.1,40.6 34.7,40 35.3,39.3 35.8,38.6 36.2,37.9 36.6,37.1 36.9,36.3 37.1,35.4 37.3,34.5 37.4,33.7 37.4,32.8 37.3,31.9 37.1,31.1 36.9,30.2 36.6,29.4 36.2,28.6 35.8,27.9 35.3,27.2 34.7,26.5 34.1,25.9 33.5,25.3 32.7,24.8 32,24.4 31.2,24 30.4,23.7 29.5,23.5 28.7,23.3 27.8,23.3 26.9,23.3 26.1,23.3 25.2,23.5 24.4,23.7 23.5,24 22.8,24.4 22,24.8 21.3,25.3 20.6,25.9 20,26.5 19.4,27.2 18.9,27.9 18.5,28.6 18.1,29.4 17.8,30.2 17.6,31.1 17.5,31.9 17.4,32.8 17.4,33.7 17.5,34.5 17.6,35.4 17.8,36.3 18.1,37.1 18.5,37.9 18.9,38.6 19.4,39.3 20,40 20,70 20,71.4 20.1,72.8 20.4,74.2 20.7,75.5 21.2,76.8 21.8,78.1 22.5,79.3 23.3,80.4 24.2,81.5 25.2,82.5 26.2,83.4 27.4,84.2 28.6,84.9 29.9,85.5 31.2,86 32.5,86.3 33.9,86.6 35.3,86.7 36.7,86.7 38.1,86.6 39.4,86.3 40.8,86 42.1,85.5 43.4,84.9 44.6,84.2 45.7,83.4 46.8,82.5 47.8,81.5 48.7,80.4 49.5,79.3 50.2,78.1 50.8,76.8 51.2,75.5 51.6,74.2 51.8,72.8 52,71.4" />
<path stroke="#000000" stroke-width="2" d="M 52,55.4" />
<path stroke="#000000" stroke-width="2" d="M 12,55.4 28,55.4" />
</svg>