<svg xmlns="http://www.w3.org/2000/svg" width="71.96954309061945" height="106.6826817431551" style="fill:none; stroke-linecap:round;">
    <rect width="100%" height="100%" fill="#FFFFFF" />
<path stroke="#000000" stroke-width="2" d="M 75,75" />
<path stroke="#000000" stroke-width="2" d="M 20,40" />
<path stroke="#000000" stroke-width="2" d="M 20,40 24.1,39.8 27.3,39.2 29.8,38.3 31.5,37.1 32.7,35.8 33.2,34.3 33.3,32.8 33,31.4 32.3,30 31.2,28.8 30,27.7 28.6,27 27.2,26.7 25.7,26.8 24.2,27.3 22.9,28.5 21.7,30.2 20.8,32.7 20.2,35.9 20,40 20,70 20,71.4 20.1,72.8 20.4,74.2 20.7,75.5 21.2,76.8 21.8,78.1 22.5,79.3 23.3,80.4 24.2,81.5 25.2,82.5 26.2,83.4 27.4,84.2 28.6,84.9 29.9,85.5 31.2,86 32.5,86.3 33.9,86.6 35.3,86.7 36.7,86.7 38.1,86.6 39.4,86.3 40.8,86 42.1,85.5 43.4,84.9 44.6,84.2 45.7,83.4 46.8,82.5 47.8,81.5 48.7,80.4 49.5,79.3 50.2,78.1 50.8,76.8 51.2,75.5 51.6,74.2 51.8,72.8 52,71.4" />
<path stroke="#000000" stroke-width="2" d="M 52,55.4" />
<path stroke="#000000" stroke-width="2" d="M 12,55.4 28,55.4" />
</svg>