<svg xmlns="http://www.w3.org/2000/svg" width="57.363255583919816" height="90.0" style="fill:none; stroke-linecap:round;">
    <rect width="100%" height="100%" fill="#FFFFFF" />
<path stroke="#000000" stroke-width="2" d="M 75,75" />
<path stroke="#000000" stroke-width="2" d="M 20,40 20.6,40.6 21.3,41.2 22,41.7 22.8,42.1 23.5,42.5 24.4,42.8 25.2,43 26.1,43.2 26.9,43.2 27.8,43.2 28.7,43.2 29.5,43 30.4,42.8 31.2,42.5 32,42.1 32.7,41.7 33.5,41.2 34.1,40.6 34.7,40 35.3,39.3 35.8,38.6 36.2,37.9 36.6,37.1 36.9,36.3 37.1,35.4 37.3,34.5 37.4,33.7 37.4,32.8 37.3,31.9 37.1,31.1 36.9,30.2 36.6,29.4 36.2,28.6 35.8,27.9 35.3,27.2 34.7,26.5 34.1,25.9 33.5,25.3 32.7,24.8 32,24.4 31.2,24 30.4,23.7 29.5,23.5 28.7,23.3 27.8,23.3 26.9,23.3 26.1,23.3 25.2,23.5 24.4,23.7 23.5,24 22.8,24.4 22,24.8 21.3,25.3 20.6,25.9 20,26.5 19.4,27.2 18.9,27.9 18.5,28.6 18.1,29.4 17.8,30.2 17.6,31.1 17.5,31.9 17.4,32.8 17.4,33.7 17.5,34.5 17.6,35.4 17.8,36.3 18.1,37.1 18.5,37.9 18.9,38.6 19.4,39.3 20,40 20,70" />
<path stroke="#000000" stroke-width="2" d="M 20,50" />
<path stroke="#000000" stroke-width="2" d="M 12,50 12,50.7 12.1,51.4 12.2,52.1 12.4,52.8 12.6,53.4 12.9,54 13.2,54.6 13.6,55.2 14.1,55.8 14.6,56.2 15.1,56.7 15.7,57.1 16.3,57.4 16.9,57.7 17.6,58 18.3,58.2 18.9,58.3 19.6,58.3 20.3,58.3 21,58.3 21.7,58.2 22.4,58 23.1,57.7 23.7,57.4 24.3,57.1 24.9,56.7 25.4,56.2 25.9,55.8 26.3,55.2 26.7,54.6 27.1,54 27.4,53.4 27.6,52.8 27.8,52.1 27.9,51.4 28,50.7" />
</svg>