<svg xmlns="http://www.w3.org/2000/svg" width="63.30733729460359" height="90.97759065022574" style="fill:none; stroke-linecap:round;">
    <rect width="100%" height="100%" fill="#FFFFFF" />
<path stroke="#000000" stroke-width="2" d="M 75,75" />
<path stroke="#000000" stroke-width="2" d="M 20,30 27.7,48.5" />
<path stroke="#000000" stroke-width="2" d="M 27.7,48.5 31.5,52.8 34.1,56.6 35.7,60 36.3,62.9 36.1,65.4 35.2,67.4 33.8,69 32,70.1 29.9,70.8 27.7,71 25.4,70.8 23.3,70.1 21.5,69 20.1,67.4 19.2,65.4 19,62.9 19.6,60 21.2,56.6 23.8,52.8 27.7,48.5 35.3,30" />
<path stroke="#000000" stroke-width="2" d="M 35.3,46" />
<path stroke="#000000" stroke-width="2" d="M 15.3,46 43.3,46" />
</svg>