<svg xmlns="http://www.w3.org/2000/svg" width="120.0" height="92.5" style="fill:none; stroke-linecap:round;">
    <rect width="100%" height="100%" fill="#FFFFFF" />
<path stroke="#000000" stroke-width="2" d="M 75,75" />
<path stroke="#000000" stroke-width="2" d="M 20,30" />
<path stroke="#000000" stroke-width="2" d="M 20,30 20.3,30 21.1,30 22.4,30.1 24.2,30.2 26.2,30.3 28.6,30.5 31.3,30.9 34.1,31.3 37,31.8 40,32.5 43,33.3 45.9,34.3 48.7,35.5 51.4,36.9 53.8,38.4 55.8,40.2 57.6,42.3 58.9,44.6 59.7,47.1 60,50" />
<path stroke="#000000" stroke-width="2" d="M 60,50 63.8,54.3 66.5,58.1 68,61.5 68.6,64.4 68.4,66.9 67.6,68.9 66.1,70.5 64.3,71.6 62.2,72.3 60,72.5 57.8,72.3 55.7,71.6 53.9,70.5 52.4,68.9 51.6,66.9 51.4,64.4 52,61.5 53.5,58.1 56.2,54.3 60,50" />
<path stroke="#000000" stroke-width="2" d="M 60,50 60,49.9 60,49.4 60.1,48.8 60.3,47.9 60.6,46.9 61.1,45.7 61.7,44.4 62.6,43 63.6,41.5 65,40 66.7,38.5 68.6,37 71,35.6 73.7,34.3 76.9,33.1 80.5,32.1 84.6,31.2 89.2,30.6 94.3,30.1 100,30" />
<path stroke="#000000" stroke-width="2" d="M 100,46" />
<path stroke="#000000" stroke-width="2" d="M 40,46 80,46" />
</svg>