<svg xmlns="http://www.w3.org/2000/svg" width="583.6964760339329" height="110.0" style="fill:none; stroke-linecap:round;">
    <rect width="100%" height="100%" fill="#FFFFFF" />
<path stroke="#000000" stroke-width="2" d="M 550,75" />
<path stroke="#000000" stroke-width="2" d="M 22,50 27.4,37.1 27.5,36.7 27.6,36.4 27.7,36.1 27.7,35.7 27.7,35.4 27.7,35 27.7,34.7 27.6,34.3 27.5,34 27.4,33.7 27.2,33.4 27,33.1 26.8,32.8 26.6,32.5 26.3,32.3 26,32.1 25.7,31.9 25.4,31.7 25.1,31.6 24.8,31.5 24.4,31.4 24.1,31.4 23.7,31.4 23.4,31.4 23,31.4 22.7,31.5 22.4,31.6 22,31.7 21.7,31.9 21.4,32.1 21.2,32.3 20.9,32.5 20.7,32.8 20.5,33.1 20.3,33.4 20.1,33.7 20,34 19.9,34.3 19.8,34.7 19.7,35 19.7,35.4 19.7,35.7 19.8,36.1 19.9,36.4 20,36.7 20.1,37.1 20.3,37.4 20.5,37.7 20.7,37.9 20.9,38.2 21.2,38.4 21.4,38.7 21.7,38.8 22,39 22.4,39.1 22.7,39.2 23,39.3 23.4,39.4 23.7,39.4 24.1,39.4 37,34 37,33.3 37.1,32.6 37.2,31.9 37.4,31.2 37.6,30.6 37.9,30 38.3,29.4 38.7,28.8 39.1,28.2 39.6,27.8 40.1,27.3 40.7,26.9 41.3,26.6 41.9,26.3 42.6,26 43.3,25.8 44,25.7 44.7,25.7 45.4,25.7 46.1,25.7 46.7,25.8 47.4,26 48.1,26.3 48.7,26.6 49.3,26.9 49.9,27.3 50.4,27.8 50.9,28.2 51.4,28.8 51.8,29.4 52.1,30 52.4,30.6 52.6,31.2 52.8,31.9 52.9,32.6 53,33.3" />
<path stroke="#000000" stroke-width="2" d="M 53,33.3 55,33.2 56.6,32.9 57.9,32.4 58.8,31.9 59.3,31.2 59.6,30.5 59.7,29.7 59.5,29 59.1,28.3 58.6,27.7 58,27.2 57.3,26.8 56.6,26.7 55.8,26.7 55.1,27 54.4,27.5 53.9,28.4 53.4,29.7 53.1,31.3 53,33.3 53,48.3" />
<path stroke="#000000" stroke-width="2" d="M 66.3,70" />
<path stroke="#000000" stroke-width="2" d="M 66.3,20 66.3,40 66.3,34 66.3,33.1 66.4,32.3 66.5,31.4 66.8,30.6 67.1,29.7 67.4,28.9 67.9,28.2 68.4,27.5 68.9,26.8 69.6,26.2 70.2,25.6 70.9,25.1 71.7,24.7 72.5,24.3 73.3,24 74.1,23.8 75,23.6 75.9,23.6" />
<path stroke="#000000" stroke-width="2" d="M 75.9,23.6 77.9,23.5 79.5,23.2 80.8,22.7 81.6,22.1 82.2,21.5 82.5,20.7 82.5,20 82.4,19.3 82,18.6 81.5,17.9 80.9,17.4 80.2,17.1 79.5,16.9 78.7,17 78,17.2 77.3,17.8 76.7,18.7 76.3,19.9 76,21.5 75.9,23.6 75.9,38.6" />
<path stroke="#000000" stroke-width="2" d="M 89.2,70" />
<path stroke="#000000" stroke-width="2" d="M 89.2,20 89.2,40 99.2,40 119.2,40 99.4,59.8 119.4,59.8" />
<path stroke="#000000" stroke-width="2" d="M 149.4,70" />
<path stroke="#000000" stroke-width="2" d="M 149.4,46 149.4,44.6 149.5,43.2 149.8,41.8 150.1,40.5 150.6,39.2 151.2,37.9 151.9,36.7 152.7,35.6 153.6,34.5 154.6,33.5 155.6,32.6 156.8,31.8 158,31.1 159.3,30.5 160.6,30 161.9,29.7 163.3,29.4 164.7,29.3 166.1,29.3 167.5,29.4 168.8,29.7 170.2,30 171.5,30.5 172.8,31.1 174,31.8 175.1,32.6 176.2,33.5 177.2,34.5 178.1,35.6 178.9,36.7 179.6,37.9 180.2,39.2 180.6,40.5 181,41.8 181.2,43.2 181.4,44.6" />
<path stroke="#000000" stroke-width="2" d="M 188,70" />
<path stroke="#000000" stroke-width="2" d="M 196,50 196,65" />
<path stroke="#000000" stroke-width="2" d="M 196,65 195.9,67 195.6,68.6 195.2,69.9 194.6,70.8 193.9,71.3 193.2,71.6 192.5,71.7 191.7,71.5 191,71.1 190.4,70.6 189.9,70 189.6,69.3 189.4,68.6 189.4,67.8 189.7,67.1 190.3,66.4 191.2,65.9 192.4,65.4 194,65.1 196,65" />
<path stroke="#000000" stroke-width="2" d="M 202.7,70" />
<path stroke="#000000" stroke-width="2" d="M 202.7,20 222.7,20" />
<path stroke="#000000" stroke-width="2" d="M 252.7,70" />
<path stroke="#000000" stroke-width="2" d="M 252.7,30 252.7,50 262.7,50 282.7,50" />
<path stroke="#000000" stroke-width="2" d="M 312.7,70" />
<path stroke="#000000" stroke-width="2" d="M 332.7,30 332.7,70 312.7,70" />
<path stroke="#000000" stroke-width="2" d="M 339.4,70" />
<path stroke="#000000" stroke-width="2" d="M 339.4,70 347,51.5 354.7,70 354.7,90 354.7,84 354.7,83.1 354.8,82.3 354.9,81.4 355.1,80.6 355.4,79.7 355.8,78.9 356.2,78.2 356.7,77.5 357.3,76.8 357.9,76.2 358.6,75.6 359.3,75.1 360,74.7 360.8,74.3 361.7,74 362.5,73.8 363.4,73.6 364.2,73.6" />
<path stroke="#000000" stroke-width="2" d="M 394.2,70" />
<path stroke="#000000" stroke-width="2" d="M 394.2,30 394.2,70" />
<path stroke="#000000" stroke-width="2" d="M 400.9,70" />
<path stroke="#000000" stroke-width="2" d="M 400.9,30 420.9,30 401.1,49.8 421.1,49.8 441.1,49.8 435.4,55.5 436,55.5 436.5,55.5 437,55.6 437.5,55.7 438,55.9 438.5,56.1 438.9,56.4 439.4,56.7 439.8,57 440.1,57.4 440.5,57.8 440.8,58.2 441,58.7 441.2,59.2 441.4,59.6 441.6,60.2 441.6,60.7 441.7,61.2 441.7,61.7 441.6,62.2 441.6,62.7 441.4,63.3 441.2,63.7 441,64.2 440.8,64.7 440.5,65.1 440.1,65.5 439.8,65.9 439.4,66.2 438.9,66.5 438.5,66.8 438,67 437.5,67.2 437,67.3 436.5,67.4 436,67.4" />
<path stroke="#000000" stroke-width="2" d="M 471.7,70" />
<path stroke="#000000" stroke-width="2" d="M 471.7,50 479.3,31.5 487,50 492,50 492,70" />
<path stroke="#000000" stroke-width="2" d="M 498.7,70" />
<path stroke="#000000" stroke-width="2" d="M 498.7,20 498.7,40 498.7,34 498.7,33.1 498.7,32.3 498.9,31.4 499.1,30.6 499.4,29.7 499.8,28.9 500.2,28.2 500.7,27.5 501.3,26.8 501.9,26.2 502.6,25.6 503.3,25.1 504,24.7 504.8,24.3 505.7,24 506.5,23.8 507.4,23.6 508.2,23.6 528.2,23.6 508.4,43.4 528.4,43.4" />
<path stroke="#000000" stroke-width="2" d="M 558.4,70" />
<path stroke="#000000" stroke-width="2" d="M 558.4,70" />
<path stroke="#000000" stroke-width="2" d="M 558.4,70 559.6,70 560.5,70.2 561.4,70.4 562.1,70.7 562.6,71 563.1,71.5 563.4,71.9 563.6,72.5 563.7,73.1 563.7,73.8 563.5,74.4 563.3,75.2 563,76 562.6,76.8 562.1,77.6 561.5,78.4 560.8,79.3 560.1,80.2 559.3,81.1 558.4,82" />
<path stroke="#000000" stroke-width="2" d="M 593.7,70" />
</svg>