<svg xmlns="http://www.w3.org/2000/svg" width="580.683841748216" height="122.0" style="fill:none; stroke-linecap:round;">
    <rect width="100%" height="100%" fill="#FFFFFF" />
<path stroke="#000000" stroke-width="2" d="M 550,75" />
<path stroke="#000000" stroke-width="2" d="M 20,30 60,30" />
<path stroke="#000000" stroke-width="2" d="M 66.7,70" />
<path stroke="#000000" stroke-width="2" d="M 66.7,50" />
<path stroke="#000000" stroke-width="2" d="M 66.7,50 66.8,50 67.2,50 67.9,50 68.7,50.1 69.8,50.2 71,50.3 72.3,50.4 73.7,50.6 75.2,50.9 76.7,51.2 78.2,51.7 79.6,52.2 81,52.7 82.3,53.4 83.5,54.2 84.6,55.1 85.5,56.1 86.1,57.3 86.5,58.6 86.7,60" />
<path stroke="#000000" stroke-width="2" d="M 86.7,60 88.6,62.1 89.9,64.1 90.7,65.7 91,67.2 90.9,68.4 90.4,69.5 89.7,70.2 88.8,70.8 87.8,71.1 86.7,71.2 85.6,71.1 84.5,70.8 83.6,70.2 82.9,69.5 82.4,68.4 82.3,67.2 82.7,65.7 83.4,64 84.7,62.1 86.7,60" />
<path stroke="#000000" stroke-width="2" d="M 86.7,60 86.7,59.9 86.7,59.7 86.7,59.4 86.8,59 87,58.4 87.2,57.8 87.5,57.2 87.9,56.5 88.5,55.7 89.2,55 90,54.3 91,53.5 92.2,52.8 93.5,52.2 95.1,51.6 96.9,51 98.9,50.6 101.2,50.3 103.8,50.1 106.7,50" />
<path stroke="#000000" stroke-width="2" d="M 136.7,70" />
<path stroke="#000000" stroke-width="2" d="M 136.7,30 136.7,31.4 136.8,32.8 137,34.2 137.4,35.5 137.9,36.8 138.5,38.1 139.2,39.3 140,40.4 140.9,41.5 141.8,42.5 142.9,43.4 144.1,44.2 145.3,44.9 146.5,45.5 147.8,46 149.2,46.3 150.6,46.6 152,46.7 153.3,46.7 154.7,46.6 156.1,46.3 157.5,46 158.8,45.5 160,44.9 161.2,44.2 162.4,43.4 163.5,42.5 164.4,41.5 165.3,40.4 166.1,39.3 166.8,38.1 167.4,36.8 167.9,35.5 168.3,34.2 168.5,32.8 168.6,31.4" />
<path stroke="#000000" stroke-width="2" d="M 168.6,39.4" />
<path stroke="#000000" stroke-width="2" d="M 156.6,39.4 176.6,39.4" />
<path stroke="#000000" stroke-width="2" d="M 206.6,70" />
<path stroke="#000000" stroke-width="2" d="M 226.6,70 228.4,70 230.1,69.8 231.8,69.5 233.5,69.1 235.2,68.5 236.7,67.8 238.3,66.9 239.7,65.9 241,64.8 242.3,63.5 243.4,62.2 244.4,60.8 245.2,59.3 246,57.7 246.6,56 247,54.3 247.3,52.6 247.5,50.9 247.5,49.1 247.3,47.4 247,45.7 246.6,44 246,42.4 245.2,40.8 244.4,39.3 243.4,37.8 242.3,36.5 241,35.3 239.7,34.2 238.3,33.2 236.7,32.3 235.2,31.5 233.5,30.9 231.8,30.5 230.1,30.2 228.4,30 226.6,30 224.9,30.2 223.2,30.5 221.5,30.9 219.9,31.5 218.3,32.3 216.8,33.2 215.3,34.2 214,35.3 212.8,36.5 211.6,37.8 210.6,39.3 209.8,40.8 209,42.4 208.4,44 208,45.7 207.7,47.4 207.5,49.1 207.5,50.9 207.7,52.6 208,54.3 208.4,56 209,57.7 209.8,59.3 210.6,60.8 211.6,62.2 212.8,63.5 214,64.8 215.3,65.9 216.8,66.9 218.3,67.8 219.9,68.5 221.5,69.1 223.2,69.5 224.9,69.8 226.6,70" />
<path stroke="#000000" stroke-width="2" d="M 254.2,70" />
<path stroke="#000000" stroke-width="2" d="M 254.2,20 274.2,20" />
<path stroke="#000000" stroke-width="2" d="M 304.2,70" />
<path stroke="#000000" stroke-width="2" d="M 304.2,70 304.4,70 304.4,70.2 304.2,70.2 304.2,70" />
<path stroke="#000000" stroke-width="2" d="M 311,70" />
<path stroke="#000000" stroke-width="2" d="M 331,30 315.7,67 320.3,55.9 321,54.3 321.8,52.7 322.7,51.2 323.8,49.9 325,48.6 326.2,47.4 327.6,46.3 329.1,45.4 330.6,44.6 332.3,43.9 333.9,43.4 335.6,43" />
<path stroke="#000000" stroke-width="2" d="M 342.3,70" />
<path stroke="#000000" stroke-width="2" d="M 342.3,30 382.3,30 342.7,69.6 382.7,69.6" />
<path stroke="#000000" stroke-width="2" d="M 412.7,70" />
<path stroke="#000000" stroke-width="2" d="M 412.7,30 432.7,30" />
<path stroke="#000000" stroke-width="2" d="M 432.7,30 434.1,30.1 435.4,30.6 436.5,31.2 437.5,32.1 438.3,33.1 439,34.3 439.5,35.6 439.9,37 440.1,38.5 440.2,40 440.1,41.5 439.9,43 439.5,44.4 439,45.7 438.3,46.9 437.5,47.9 436.5,48.8 435.4,49.4 434.1,49.9 432.7,50" />
<path stroke="#000000" stroke-width="2" d="M 470.2,70" />
<path stroke="#000000" stroke-width="2" d="M 470.2,70 470.4,70 470.4,70.2 470.2,70.2 470.2,70" />
<path stroke="#000000" stroke-width="2" d="M 477.1,70" />
<path stroke="#000000" stroke-width="2" d="M 477.1,35" />
<path stroke="#000000" stroke-width="2" d="M 477.1,35 479.1,34.9 480.7,34.6 481.9,34.1 482.8,33.6 483.4,32.9 483.7,32.2 483.7,31.4 483.5,30.7 483.2,30 482.7,29.4 482.1,28.9 481.4,28.5 480.6,28.3 479.9,28.4 479.2,28.7 478.5,29.2 477.9,30.1 477.5,31.4 477.2,33 477.1,35 477.1,50 469.4,68.5" />
<path stroke="#000000" stroke-width="2" d="M 490.4,70" />
<path stroke="#000000" stroke-width="2" d="M 490.4,50 490.4,70 490.4,64 490.4,63.1 490.5,62.3 490.6,61.4 490.8,60.6 491.1,59.7 491.5,58.9 491.9,58.2 492.4,57.5 493,56.8 493.6,56.2 494.3,55.6 495,55.1 495.8,54.7 496.5,54.3 497.4,54 498.2,53.8 499.1,53.6 499.9,53.6 519.9,53.6 500.1,73.4 520.1,73.4" />
<path stroke="#000000" stroke-width="2" d="M 550.1,70" />
<path stroke="#000000" stroke-width="2" d="M 550.1,62 550.9,62 550.9,62.8 550.1,62.8 550.1,62" />
<path stroke="#000000" stroke-width="2" d="M 550.1,78" />
<path stroke="#000000" stroke-width="2" d="M 550.1,78 552.4,78.1 554.4,78.3 556,78.8 557.4,79.3 558.6,80.1 559.5,80.9 560.1,81.9 560.5,83 560.7,84.2 560.6,85.5 560.4,86.9 559.9,88.4 559.3,89.9 558.5,91.5 557.5,93.2 556.3,94.9 555,96.6 553.5,98.4 551.9,100.2 550.1,102" />
<path stroke="#000000" stroke-width="2" d="M 590.7,70" />
</svg>