<svg xmlns="http://www.w3.org/2000/svg" width="597.1232775673017" height="91.654375" style="fill:none; stroke-linecap:round;">
    <rect width="100%" height="100%" fill="#FFFFFF" />
<path stroke="#000000" stroke-width="2" d="M 550,75" />
<path stroke="#000000" stroke-width="2" d="M 20,30 20,70" />
<path stroke="#000000" stroke-width="2" d="M 26.7,70" />
<path stroke="#000000" stroke-width="2" d="M 26.7,30 26.9,30 26.9,30.2 26.7,30.2 26.7,30" />
<path stroke="#000000" stroke-width="2" d="M 56.9,70" />
<path stroke="#000000" stroke-width="2" d="M 76.9,30 76.9,70 56.9,70" />
<path stroke="#000000" stroke-width="2" d="M 83.5,70" />
<path stroke="#000000" stroke-width="2" d="M 83.5,20 83.5,40 83.5,34 83.5,33.1 83.6,32.3 83.8,31.4 84,30.6 84.3,29.7 84.7,28.9 85.1,28.2 85.6,27.5 86.2,26.8 86.8,26.2 87.4,25.6 88.2,25.1 88.9,24.7 89.7,24.3 90.5,24 91.4,23.8 92.2,23.6 93.1,23.6" />
<path stroke="#000000" stroke-width="2" d="M 93.1,23.6 95.1,23.5 96.7,23.2 98,22.7 98.8,22.1 99.4,21.5 99.7,20.7 99.7,20 99.6,19.3 99.2,18.6 98.7,17.9 98.1,17.4 97.4,17.1 96.7,16.9 95.9,17 95.2,17.2 94.5,17.8 93.9,18.7 93.5,19.9 93.2,21.5 93.1,23.6 93.1,38.6 93.1,39.3 93.1,40 93.3,40.7 93.5,41.3 93.7,42 94,42.6 94.3,43.2 94.7,43.8 95.2,44.3 95.7,44.8 96.2,45.3 96.8,45.7 97.4,46 98,46.3 98.7,46.6 99.3,46.7 100,46.9 100.7,46.9 101.4,46.9 102.1,46.9 102.8,46.7 103.5,46.6 104.1,46.3 104.8,46 105.4,45.7 106,45.3 106.5,44.8 107,44.3 107.4,43.8 107.8,43.2 108.2,42.6 108.5,42 108.7,41.3 108.9,40.7 109,40 109.1,39.3" />
<path stroke="#000000" stroke-width="2" d="M 109.1,31.3" />
<path stroke="#000000" stroke-width="2" d="M 89.1,31.3 97.1,31.3" />
<path stroke="#000000" stroke-width="2" d="M 139.1,70" />
<path stroke="#000000" stroke-width="2" d="M 139.1,70 139.3,70 139.3,70.2 139.1,70.2 139.1,70" />
<path stroke="#000000" stroke-width="2" d="M 169.3,70" />
<path stroke="#000000" stroke-width="2" d="M 169.3,50 176.9,31.5 184.6,50" />
<path stroke="#000000" stroke-width="2" d="M 184.6,50 186.6,49.9 188.2,49.6 189.5,49.1 190.3,48.6 190.9,47.9 191.2,47.2 191.2,46.4 191.1,45.7 190.7,45 190.2,44.4 189.6,43.9 188.9,43.5 188.2,43.3 187.4,43.4 186.7,43.7 186,44.2 185.4,45.1 185,46.4 184.7,48 184.6,50 184.6,65" />
<path stroke="#000000" stroke-width="2" d="M 184.6,65 184.5,67 184.2,68.6 183.7,69.9 183.1,70.8 182.5,71.3 181.7,71.6 181,71.7 180.3,71.5 179.6,71.1 179,70.6 178.5,70 178.1,69.3 177.9,68.6 178,67.8 178.3,67.1 178.8,66.4 179.7,65.9 180.9,65.4 182.5,65.1 184.6,65 194.6,65" />
<path stroke="#000000" stroke-width="2" d="M 201.2,70" />
<path stroke="#000000" stroke-width="2" d="M 209.2,20 209.2,35" />
<path stroke="#000000" stroke-width="2" d="M 209.2,35 209.1,37 208.8,38.6 208.4,39.9 207.8,40.8 207.1,41.3 206.4,41.6 205.7,41.7 204.9,41.5 204.2,41.1 203.6,40.6 203.1,40 202.8,39.3 202.6,38.6 202.6,37.8 202.9,37.1 203.5,36.4 204.4,35.9 205.6,35.4 207.2,35.1 209.2,35 209.2,35.7 209.3,36.4 209.4,37.1 209.6,37.8 209.8,38.4 210.1,39 210.5,39.6 210.9,40.2 211.3,40.8 211.8,41.2 212.4,41.7 212.9,42.1 213.5,42.4 214.2,42.7 214.8,43 215.5,43.2 216.2,43.3 216.9,43.3 217.6,43.3 218.3,43.3 219,43.2 219.6,43 220.3,42.7 220.9,42.4 221.5,42.1 222.1,41.7 222.6,41.2 223.1,40.8 223.6,40.2 224,39.6 224.3,39 224.6,38.4 224.9,37.8 225,37.1 225.2,36.4 225.2,35.7" />
<path stroke="#000000" stroke-width="2" d="M 231.9,70" />
<path stroke="#000000" stroke-width="2" d="M 231.9,30 232.1,30 232.1,30.2 231.9,30.2 231.9,30" />
<path stroke="#000000" stroke-width="2" d="M 262.1,70" />
<path stroke="#000000" stroke-width="2" d="M 262.1,30" />
<path stroke="#000000" stroke-width="2" d="M 262.1,30 264.9,30.3 267.5,31.1 269.7,32.4 271.7,34.2 273.3,36.2 274.7,38.6 275.7,41.3 276.5,44.1 276.9,47 277.1,50 276.9,53 276.5,55.9 275.7,58.7 274.7,61.4 273.3,63.8 271.7,65.8 269.7,67.6 267.5,68.9 264.9,69.7 262.1,70" />
<path stroke="#000000" stroke-width="2" d="M 283.8,70" />
<path stroke="#000000" stroke-width="2" d="M 283.8,50 284,50 284,50.2 283.8,50.2 283.8,50" />
<path stroke="#000000" stroke-width="2" d="M 314,70" />
<path stroke="#000000" stroke-width="2" d="M 314,30 354,30" />
<path stroke="#000000" stroke-width="2" d="M 360.6,70" />
<path stroke="#000000" stroke-width="2" d="M 370.6,50 363,68.5" />
<path stroke="#000000" stroke-width="2" d="M 400.6,70" />
<path stroke="#000000" stroke-width="2" d="M 400.6,30 410.6,30 410.6,70" />
<path stroke="#000000" stroke-width="2" d="M 417.3,70" />
<path stroke="#000000" stroke-width="2" d="M 417.3,20 417.3,40 427.3,40 447.3,40" />
<path stroke="#000000" stroke-width="2" d="M 477.3,70" />
<path stroke="#000000" stroke-width="2" d="M 477.3,50 485,31.5 492.6,50 497.6,50 497.6,70" />
<path stroke="#000000" stroke-width="2" d="M 504.3,70" />
<path stroke="#000000" stroke-width="2" d="M 504.3,40 504.3,39.3 504.3,38.6 504.5,37.9 504.6,37.2 504.9,36.6 505.2,36 505.5,35.4 505.9,34.8 506.4,34.2 506.9,33.8 507.4,33.3 508,32.9 508.6,32.6 509.2,32.3 509.9,32 510.5,31.8 511.2,31.7 511.9,31.7 512.6,31.7 513.3,31.7 514,31.8 514.7,32 515.3,32.3 516,32.6 516.6,32.9 517.1,33.3 517.7,33.8 518.2,34.2 518.6,34.8 519,35.4 519.4,36 519.7,36.6 519.9,37.2 520.1,37.9 520.2,38.6 520.3,39.3 520.3,54.3" />
<path stroke="#000000" stroke-width="2" d="M 520.3,54.3 520.1,56.3 519.9,57.9 519.4,59.2 518.8,60.1 518.1,60.6 517.4,60.9 516.7,61 515.9,60.8 515.2,60.4 514.6,59.9 514.1,59.3 513.8,58.6 513.6,57.9 513.6,57.1 513.9,56.4 514.5,55.7 515.4,55.2 516.6,54.7 518.2,54.4 520.3,54.3" />
<path stroke="#000000" stroke-width="2" d="M 526.9,70" />
<path stroke="#000000" stroke-width="2" d="M 526.9,20 546.9,20" />
<path stroke="#000000" stroke-width="2" d="M 576.9,70" />
<path stroke="#000000" stroke-width="2" d="M 576.9,70 577.1,70 577.1,70.2 576.9,70.2 576.9,70" />
<path stroke="#000000" stroke-width="2" d="M 607.1,70" />
</svg>