<svg xmlns="http://www.w3.org/2000/svg" width="405.13004228926" height="90.2" style="fill:none; stroke-linecap:round;">
    <rect width="100%" height="100%" fill="#FFFFFF" />
<path stroke="#000000" stroke-width="2" d="M 550,75" />
<path stroke="#000000" stroke-width="2" d="M 40,70 41.7,70 43.5,69.8 45.2,69.5 46.9,69.1 48.5,68.5 50.1,67.8 51.6,66.9 53,65.9 54.4,64.8 55.6,63.5 56.7,62.2 57.7,60.8 58.6,59.3 59.3,57.7 59.9,56 60.4,54.3 60.7,52.6 60.9,50.9 60.9,49.1 60.7,47.4 60.4,45.7 59.9,44 59.3,42.4 58.6,40.8 57.7,39.3 56.7,37.8 55.6,36.5 54.4,35.3 53,34.2 51.6,33.2 50.1,32.3 48.5,31.5 46.9,30.9 45.2,30.5 43.5,30.2 41.7,30 40,30 38.3,30.2 36.5,30.5 34.9,30.9 33.2,31.5 31.6,32.3 30.1,33.2 28.7,34.2 27.4,35.3 26.1,36.5 25,37.8 24,39.3 23.1,40.8 22.4,42.4 21.8,44 21.3,45.7 21,47.4 20.9,49.1 20.9,50.9 21,52.6 21.3,54.3 21.8,56 22.4,57.7 23.1,59.3 24,60.8 25,62.2 26.1,63.5 27.4,64.8 28.7,65.9 30.1,66.9 31.6,67.8 33.2,68.5 34.9,69.1 36.5,69.5 38.3,69.8 40,70" />
<path stroke="#000000" stroke-width="2" d="M 67.5,70" />
<path stroke="#000000" stroke-width="2" d="M 67.5,20 67.5,40 77.5,40" />
<path stroke="#000000" stroke-width="2" d="M 107.5,70" />
<path stroke="#000000" stroke-width="2" d="M 127.5,30 112.2,67" />
<path stroke="#000000" stroke-width="2" d="M 134.2,70" />
<path stroke="#000000" stroke-width="2" d="M 134.2,50 134.4,50 134.4,50.2 134.2,50.2 134.2,50" />
<path stroke="#000000" stroke-width="2" d="M 164.4,70" />
<path stroke="#000000" stroke-width="2" d="M 180.4,30 160.6,49.8 180.4,69.6" />
<path stroke="#000000" stroke-width="2" d="M 187.1,70" />
<path stroke="#000000" stroke-width="2" d="M 187.1,20 194.7,38.5 202.4,20" />
<path stroke="#000000" stroke-width="2" d="M 232.4,70" />
<path stroke="#000000" stroke-width="2" d="M 252.4,70 254.1,70 255.8,69.8 257.6,69.5 259.2,69.1 260.9,68.5 262.5,67.8 264,66.9 265.4,65.9 266.7,64.8 268,63.5 269.1,62.2 270.1,60.8 271,59.3 271.7,57.7 272.3,56 272.8,54.3 273.1,52.6 273.2,50.9 273.2,49.1 273.1,47.4 272.8,45.7 272.3,44 271.7,42.4 271,40.8 270.1,39.3 269.1,37.8 268,36.5 266.7,35.3 265.4,34.2 264,33.2 262.5,32.3 260.9,31.5 259.2,30.9 257.6,30.5 255.8,30.2 254.1,30 252.4,30 250.6,30.2 248.9,30.5 247.2,30.9 245.6,31.5 244,32.3 242.5,33.2 241.1,34.2 239.7,35.3 238.5,36.5 237.4,37.8 236.4,39.3 235.5,40.8 234.8,42.4 234.2,44 233.7,45.7 233.4,47.4 233.3,49.1 233.3,50.9 233.4,52.6 233.7,54.3 234.2,56 234.8,57.7 235.5,59.3 236.4,60.8 237.4,62.2 238.5,63.5 239.7,64.8 241.1,65.9 242.5,66.9 244,67.8 245.6,68.5 247.2,69.1 248.9,69.5 250.6,69.8 252.4,70" />
<path stroke="#000000" stroke-width="2" d="M 279.9,70" />
<path stroke="#000000" stroke-width="2" d="M 279.9,40 287.5,21.5 295.2,40" />
<path stroke="#000000" stroke-width="2" d="M 325.2,70" />
<path stroke="#000000" stroke-width="2" d="M 325.2,35" />
<path stroke="#000000" stroke-width="2" d="M 325.2,35 327.2,34.9 328.8,34.6 330.1,34.1 330.9,33.6 331.5,32.9 331.8,32.2 331.8,31.4 331.7,30.7 331.3,30 330.8,29.4 330.2,28.9 329.5,28.5 328.8,28.3 328,28.4 327.3,28.7 326.6,29.2 326,30.1 325.6,31.4 325.3,33 325.2,35 325.2,50 317.5,68.5" />
<path stroke="#000000" stroke-width="2" d="M 338.5,70" />
<path stroke="#000000" stroke-width="2" d="M 338.5,50 338.5,70 338.5,64 338.5,63.1 338.6,62.3 338.7,61.4 339,60.6 339.3,59.7 339.6,58.9 340.1,58.2 340.6,57.5 341.1,56.8 341.7,56.2 342.4,55.6 343.1,55.1 343.9,54.7 344.7,54.3 345.5,54 346.3,53.8 347.2,53.6 348.1,53.6" />
<path stroke="#000000" stroke-width="2" d="M 354.7,70" />
<path stroke="#000000" stroke-width="2" d="M 354.7,30 354.9,30 354.9,30.2 354.7,30.2 354.7,30" />
<path stroke="#000000" stroke-width="2" d="M 384.9,70" />
<path stroke="#000000" stroke-width="2" d="M 384.9,70 385.1,70 385.1,70.2 384.9,70.2 384.9,70" />
<path stroke="#000000" stroke-width="2" d="M 415.1,70" />
</svg>