<svg xmlns="http://www.w3.org/2000/svg" width="569.8476301263886" height="90.2" style="fill:none; stroke-linecap:round;">
    <rect width="100%" height="100%" fill="#FFFFFF" />
<path stroke="#000000" stroke-width="2" d="M 550,75" />
<path stroke="#000000" stroke-width="2" d="M 20,30 20,70" />
<path stroke="#000000" stroke-width="2" d="M 26.7,70" />
<path stroke="#000000" stroke-width="2" d="M 26.7,30 26.9,30 26.9,30.2 26.7,30.2 26.7,30" />
<path stroke="#000000" stroke-width="2" d="M 56.9,70" />
<path stroke="#000000" stroke-width="2" d="M 61.9,30" />
<path stroke="#000000" stroke-width="2" d="M 61.9,30 60.4,30.1 59.2,30.6 58,31.2 57.1,32.1 56.2,33.1 55.6,34.3 55,35.6 54.7,37 54.4,38.5 54.4,40 54.4,41.5 54.7,43 55,44.4 55.6,45.7 56.2,46.9 57.1,47.9 58,48.8 59.2,49.4 60.4,49.9 61.9,50 81.9,50" />
<path stroke="#000000" stroke-width="2" d="M 111.9,70" />
<path stroke="#000000" stroke-width="2" d="M 111.9,30 111.9,38 111.9,39 112,40.1 112.1,41.1 112.4,42.1 112.8,43.1 113.2,44.1 113.7,45 114.3,45.8 115,46.6 115.7,47.4 116.6,48 117.4,48.6 118.3,49.2 119.3,49.6 120.2,50 121.3,50.2 122.3,50.4 123.3,50.5 124.4,50.5 125.4,50.4 126.5,50.2 127.5,50 128.4,49.6 129.4,49.2 130.3,48.6 131.2,48 132,47.4 132.7,46.6 133.4,45.8 134,45 134.5,44.1 134.9,43.1 135.3,42.1 135.6,41.1 135.8,40.1 135.8,39 135.8,29 135.8,69" />
<path stroke="#000000" stroke-width="2" d="M 142.5,70" />
<path stroke="#000000" stroke-width="2" d="M 142.5,50" />
<path stroke="#000000" stroke-width="2" d="M 142.5,50 143.9,50.1 145.2,50.6 146.3,51.2 147.3,52.1 148.1,53.1 148.8,54.3 149.3,55.6 149.7,57 149.9,58.5 150,60 149.9,61.5 149.7,63 149.3,64.4 148.8,65.7 148.1,66.9 147.3,67.9 146.3,68.8 145.2,69.4 143.9,69.9 142.5,70" />
<path stroke="#000000" stroke-width="2" d="M 180,70" />
<path stroke="#000000" stroke-width="2" d="M 200,30 184.7,67" />
<path stroke="#000000" stroke-width="2" d="M 206.7,70" />
<path stroke="#000000" stroke-width="2" d="M 206.7,20 206.7,40 206.7,34 206.7,33.1 206.8,32.3 206.9,31.4 207.1,30.6 207.4,29.7 207.8,28.9 208.2,28.2 208.7,27.5 209.3,26.8 209.9,26.2 210.6,25.6 211.3,25.1 212.1,24.7 212.8,24.3 213.7,24 214.5,23.8 215.4,23.6 216.2,23.6 223.9,42.1 243.9,42.1 224.1,61.8 244.1,61.8" />
<path stroke="#000000" stroke-width="2" d="M 274.1,70" />
<path stroke="#000000" stroke-width="2" d="M 274.1,30 274.1,70 285.4,58.7" />
<path stroke="#000000" stroke-width="2" d="M 292.1,70" />
<path stroke="#000000" stroke-width="2" d="M 312.1,70 313.8,70 315.5,69.8 317.3,69.5 319,69.1 320.6,68.5 322.2,67.8 323.7,66.9 325.1,65.9 326.5,64.8 327.7,63.5 328.8,62.2 329.8,60.8 330.7,59.3 331.4,57.7 332,56 332.5,54.3 332.8,52.6 332.9,50.9 332.9,49.1 332.8,47.4 332.5,45.7 332,44 331.4,42.4 330.7,40.8 329.8,39.3 328.8,37.8 327.7,36.5 326.5,35.3 325.1,34.2 323.7,33.2 322.2,32.3 320.6,31.5 319,30.9 317.3,30.5 315.5,30.2 313.8,30 312.1,30 310.3,30.2 308.6,30.5 306.9,30.9 305.3,31.5 303.7,32.3 302.2,33.2 300.8,34.2 299.4,35.3 298.2,36.5 297.1,37.8 296.1,39.3 295.2,40.8 294.5,42.4 293.9,44 293.4,45.7 293.1,47.4 293,49.1 293,50.9 293.1,52.6 293.4,54.3 293.9,56 294.5,57.7 295.2,59.3 296.1,60.8 297.1,62.2 298.2,63.5 299.4,64.8 300.8,65.9 302.2,66.9 303.7,67.8 305.3,68.5 306.9,69.1 308.6,69.5 310.3,69.8 312.1,70" />
<path stroke="#000000" stroke-width="2" d="M 362.9,70" />
<path stroke="#000000" stroke-width="2" d="M 367.9,30" />
<path stroke="#000000" stroke-width="2" d="M 367.9,30 366.5,30.1 365.2,30.6 364.1,31.2 363.1,32.1 362.3,33.1 361.6,34.3 361.1,35.6 360.7,37 360.5,38.5 360.4,40 360.5,41.5 360.7,43 361.1,44.4 361.6,45.7 362.3,46.9 363.1,47.9 364.1,48.8 365.2,49.4 366.5,49.9 367.9,50 367.9,50.7 368,51.4 368.1,52.1 368.3,52.8 368.5,53.4 368.8,54 369.2,54.6 369.6,55.2 370,55.8 370.5,56.2 371,56.7 371.6,57.1 372.2,57.4 372.9,57.7 373.5,58 374.2,58.2 374.9,58.3 375.6,58.3 376.3,58.3 377,58.3 377.6,58.2 378.3,58 379,57.7 379.6,57.4 380.2,57.1 380.8,56.7 381.3,56.2 381.8,55.8 382.3,55.2 382.7,54.6 383,54 383.3,53.4 383.5,52.8 383.7,52.1 383.8,51.4 383.9,50.7" />
<path stroke="#000000" stroke-width="2" d="M 413.9,70" />
<path stroke="#000000" stroke-width="2" d="M 429.9,30" />
<path stroke="#000000" stroke-width="2" d="M 429.9,30 429.7,34.1 429.1,37.3 428.2,39.8 427,41.5 425.7,42.7 424.2,43.2 422.7,43.3 421.3,43 419.9,42.3 418.7,41.2 417.7,40 416.9,38.6 416.6,37.2 416.7,35.7 417.2,34.2 418.4,32.9 420.2,31.7 422.6,30.8 425.8,30.2 429.9,30 449.9,30" />
<path stroke="#000000" stroke-width="2" d="M 456.6,70" />
<path stroke="#000000" stroke-width="2" d="M 456.6,20 456.6,40 456.6,34 456.6,33.1 456.6,32.3 456.8,31.4 457,30.6 457.3,29.7 457.7,28.9 458.1,28.2 458.6,27.5 459.2,26.8 459.8,26.2 460.5,25.6 461.2,25.1 461.9,24.7 462.7,24.3 463.6,24 464.4,23.8 465.3,23.6 466.1,23.6" />
<path stroke="#000000" stroke-width="2" d="M 466.1,23.6 468.2,23.5 469.8,23.2 471,22.7 471.9,22.1 472.5,21.5 472.7,20.7 472.8,20 472.6,19.3 472.3,18.6 471.8,17.9 471.1,17.4 470.4,17.1 469.7,16.9 469,17 468.2,17.2 467.6,17.8 467,18.7 466.5,19.9 466.2,21.5 466.1,23.6 466.1,38.6" />
<path stroke="#000000" stroke-width="2" d="M 479.4,70" />
<path stroke="#000000" stroke-width="2" d="M 479.4,20 499.4,20 519.4,20 499.6,39.8 519.6,39.8" />
<path stroke="#000000" stroke-width="2" d="M 549.6,70" />
<path stroke="#000000" stroke-width="2" d="M 549.6,70 549.8,70 549.8,70.2 549.6,70.2 549.6,70" />
<path stroke="#000000" stroke-width="2" d="M 579.8,70" />
</svg>