<svg xmlns="http://www.w3.org/2000/svg" width="422.1816571766588" height="90.2" style="fill:none; stroke-linecap:round;">
    <rect width="100%" height="100%" fill="#FFFFFF" />
<path stroke="#000000" stroke-width="2" d="M 550,75" />
<path stroke="#000000" stroke-width="2" d="M 20,30 20,70" />
<path stroke="#000000" stroke-width="2" d="M 26.7,70" />
<path stroke="#000000" stroke-width="2" d="M 26.7,30 26.9,30 26.9,30.2 26.7,30.2 26.7,30" />
<path stroke="#000000" stroke-width="2" d="M 56.9,70" />
<path stroke="#000000" stroke-width="2" d="M 56.9,30 76.7,49.8 56.9,69.6" />
<path stroke="#000000" stroke-width="2" d="M 83.3,70" />
<path stroke="#000000" stroke-width="2" d="M 83.3,30 83.3,50 83.3,44 83.3,43.1 83.4,42.3 83.6,41.4 83.8,40.6 84.1,39.7 84.5,38.9 84.9,38.2 85.4,37.5 86,36.8 86.6,36.2 87.2,35.6 87.9,35.1 88.7,34.7 89.5,34.3 90.3,34 91.2,33.8 92,33.6 92.9,33.6 97.9,33.6 97.9,53.6" />
<path stroke="#000000" stroke-width="2" d="M 97.9,43.6" />
<path stroke="#000000" stroke-width="2" d="M 93.9,43.6 101.9,43.6" />
<path stroke="#000000" stroke-width="2" d="M 131.9,70" />
<path stroke="#000000" stroke-width="2" d="M 131.9,70 132.1,70 132.1,70.2 131.9,70.2 131.9,70" />
<path stroke="#000000" stroke-width="2" d="M 162.1,70" />
<path stroke="#000000" stroke-width="2" d="M 162.1,35" />
<path stroke="#000000" stroke-width="2" d="M 162.1,35 164.1,34.9 165.7,34.6 167,34.1 167.8,33.6 168.4,32.9 168.7,32.2 168.7,31.4 168.6,30.7 168.2,30 167.7,29.4 167.1,28.9 166.4,28.5 165.7,28.3 164.9,28.4 164.2,28.7 163.5,29.2 162.9,30.1 162.5,31.4 162.2,33 162.1,35 162.1,50 154.4,68.5 156.7,62.9 157.1,62.1 157.5,61.4 157.9,60.6 158.5,59.9 159.1,59.3 159.7,58.7 160.4,58.2 161.1,57.7 161.9,57.3 162.7,57 163.5,56.7 164.4,56.5" />
<path stroke="#000000" stroke-width="2" d="M 175.4,70" />
<path stroke="#000000" stroke-width="2" d="M 175.4,20 175.4,40 185.4,40 193.1,58.5 200.7,40" />
<path stroke="#000000" stroke-width="2" d="M 230.7,70" />
<path stroke="#000000" stroke-width="2" d="M 250.7,30 235.4,67" />
<path stroke="#000000" stroke-width="2" d="M 257.4,70" />
<path stroke="#000000" stroke-width="2" d="M 257.4,50 257.6,50 257.6,50.2 257.4,50.2 257.4,50" />
<path stroke="#000000" stroke-width="2" d="M 287.6,70" />
<path stroke="#000000" stroke-width="2" d="M 287.6,30 287.6,70" />
<path stroke="#000000" stroke-width="2" d="M 294.2,70" />
<path stroke="#000000" stroke-width="2" d="M 294.2,30 294.4,30 294.4,30.2 294.2,30.2 294.2,30" />
<path stroke="#000000" stroke-width="2" d="M 324.4,70" />
<path stroke="#000000" stroke-width="2" d="M 340.4,30 320.6,49.8 340.4,69.6" />
<path stroke="#000000" stroke-width="2" d="M 347.1,70" />
<path stroke="#000000" stroke-width="2" d="M 355.1,20" />
<path stroke="#000000" stroke-width="2" d="M 355.1,20 355,22 354.7,23.6 354.3,24.9 353.7,25.8 353,26.3 352.3,26.6 351.5,26.7 350.8,26.5 350.1,26.1 349.5,25.6 349,25 348.6,24.3 348.5,23.6 348.5,22.8 348.8,22.1 349.4,21.4 350.2,20.9 351.5,20.4 353.1,20.1 355.1,20 365.1,20" />
<path stroke="#000000" stroke-width="2" d="M 371.8,70" />
<path stroke="#000000" stroke-width="2" d="M 371.8,30 372,30 372,30.2 371.8,30.2 371.8,30" />
<path stroke="#000000" stroke-width="2" d="M 402,70" />
<path stroke="#000000" stroke-width="2" d="M 402,70 402.2,70 402.2,70.2 402,70.2 402,70" />
<path stroke="#000000" stroke-width="2" d="M 432.2,70" />
</svg>