<svg xmlns="http://www.w3.org/2000/svg" width="449.4677453906429" height="109.79898987322333" style="fill:none; stroke-linecap:round;">
    <rect width="100%" height="100%" fill="#FFFFFF" />
<path stroke="#000000" stroke-width="2" d="M 550,75" />
<path stroke="#000000" stroke-width="2" d="M 20,30 20,50 30,50 50,50" />
<path stroke="#000000" stroke-width="2" d="M 80,70" />
<path stroke="#000000" stroke-width="2" d="M 80,70 80.2,70 80.2,70.2 80,70.2 80,70" />
<path stroke="#000000" stroke-width="2" d="M 86.9,70" />
<path stroke="#000000" stroke-width="2" d="M 86.9,30 126.9,30" />
<path stroke="#000000" stroke-width="2" d="M 133.5,70" />
<path stroke="#000000" stroke-width="2" d="M 133.5,50 133.5,70 143.5,70 163.5,70 143.7,89.8 163.7,89.8" />
<path stroke="#000000" stroke-width="2" d="M 170.4,70" />
<path stroke="#000000" stroke-width="2" d="M 170.4,30 170.6,30 170.6,30.2 170.4,30.2 170.4,30" />
<path stroke="#000000" stroke-width="2" d="M 200.6,70" />
<path stroke="#000000" stroke-width="2" d="M 200.6,50 200.6,49.3 200.7,48.6 200.8,47.9 201,47.2 201.2,46.6 201.5,46 201.8,45.4 202.2,44.8 202.7,44.2 203.2,43.8 203.7,43.3 204.3,42.9 204.9,42.6 205.5,42.3 206.2,42 206.9,41.8 207.5,41.7 208.2,41.7 208.9,41.7 209.6,41.7 210.3,41.8 211,42 211.7,42.3 212.3,42.6 212.9,42.9 213.5,43.3 214,43.8 214.5,44.2 214.9,44.8 215.3,45.4 215.7,46 216,46.6 216.2,47.2 216.4,47.9 216.5,48.6 216.6,49.3" />
<path stroke="#000000" stroke-width="2" d="M 216.6,45.3" />
<path stroke="#000000" stroke-width="2" d="M 210.6,45.3 220.6,45.3 225.6,45.3 225.6,65.3 225.6,85.3 215.6,85.3" />
<path stroke="#000000" stroke-width="2" d="M 232.3,70" />
<path stroke="#000000" stroke-width="2" d="M 240.3,50 240.3,65" />
<path stroke="#000000" stroke-width="2" d="M 240.3,65 240.1,67 239.8,68.6 239.4,69.9 238.8,70.8 238.1,71.3 237.4,71.6 236.7,71.7 235.9,71.5 235.2,71.1 234.6,70.6 234.1,70 233.8,69.3 233.6,68.6 233.6,67.8 233.9,67.1 234.5,66.4 235.4,65.9 236.6,65.4 238.2,65.1 240.3,65 260.3,65" />
<path stroke="#000000" stroke-width="2" d="M 290.3,70" />
<path stroke="#000000" stroke-width="2" d="M 295.3,30" />
<path stroke="#000000" stroke-width="2" d="M 295.3,30 293.8,30.1 292.6,30.6 291.4,31.2 290.5,32.1 289.6,33.1 289,34.3 288.4,35.6 288.1,37 287.8,38.5 287.8,40 287.8,41.5 288.1,43 288.4,44.4 289,45.7 289.6,46.9 290.5,47.9 291.4,48.8 292.6,49.4 293.8,49.9 295.3,50 302.9,68.5 310.6,50" />
<path stroke="#000000" stroke-width="2" d="M 340.6,70" />
<path stroke="#000000" stroke-width="2" d="M 340.6,30 340.6,31.4 340.7,32.8 340.9,34.2 341.3,35.5 341.8,36.8 342.4,38.1 343.1,39.3 343.9,40.4 344.7,41.5 345.7,42.5 346.8,43.4 347.9,44.2 349.2,44.9 350.4,45.5 351.7,46 353.1,46.3 354.5,46.6 355.8,46.7 357.2,46.7 358.6,46.6 360,46.3 361.4,46 362.7,45.5 363.9,44.9 365.1,44.2 366.3,43.4 367.4,42.5 368.3,41.5 369.2,40.4 370,39.3 370.7,38.1 371.3,36.8 371.8,35.5 372.2,34.2 372.4,32.8 372.5,31.4" />
<path stroke="#000000" stroke-width="2" d="M 379.2,70" />
<path stroke="#000000" stroke-width="2" d="M 379.2,20 379.2,40 389.2,40 394.2,40 394.2,60" />
<path stroke="#000000" stroke-width="2" d="M 424.2,70" />
<path stroke="#000000" stroke-width="2" d="M 424.2,70" />
<path stroke="#000000" stroke-width="2" d="M 424.2,70 425.3,70 426.3,70.2 427.1,70.4 427.8,70.7 428.4,71 428.9,71.5 429.2,71.9 429.4,72.5 429.5,73.1 429.4,73.8 429.3,74.4 429.1,75.2 428.8,76 428.4,76.8 427.9,77.6 427.3,78.4 426.6,79.3 425.9,80.2 425.1,81.1 424.2,82" />
<path stroke="#000000" stroke-width="2" d="M 459.5,70" />
</svg>