<svg xmlns="http://www.w3.org/2000/svg" width="410.67012499779133" height="90.2" style="fill:none; stroke-linecap:round;">
    <rect width="100%" height="100%" fill="#FFFFFF" />
<path stroke="#000000" stroke-width="2" d="M 550,75" />
<path stroke="#000000" stroke-width="2" d="M 40,70 41.7,70 43.5,69.8 45.2,69.5 46.9,69.1 48.5,68.5 50.1,67.8 51.6,66.9 53,65.9 54.4,64.8 55.6,63.5 56.7,62.2 57.7,60.8 58.6,59.3 59.3,57.7 59.9,56 60.4,54.3 60.7,52.6 60.9,50.9 60.9,49.1 60.7,47.4 60.4,45.7 59.9,44 59.3,42.4 58.6,40.8 57.7,39.3 56.7,37.8 55.6,36.5 54.4,35.3 53,34.2 51.6,33.2 50.1,32.3 48.5,31.5 46.9,30.9 45.2,30.5 43.5,30.2 41.7,30 40,30 38.3,30.2 36.5,30.5 34.9,30.9 33.2,31.5 31.6,32.3 30.1,33.2 28.7,34.2 27.4,35.3 26.1,36.5 25,37.8 24,39.3 23.1,40.8 22.4,42.4 21.8,44 21.3,45.7 21,47.4 20.9,49.1 20.9,50.9 21,52.6 21.3,54.3 21.8,56 22.4,57.7 23.1,59.3 24,60.8 25,62.2 26.1,63.5 27.4,64.8 28.7,65.9 30.1,66.9 31.6,67.8 33.2,68.5 34.9,69.1 36.5,69.5 38.3,69.8 40,70" />
<path stroke="#000000" stroke-width="2" d="M 67.5,70" />
<path stroke="#000000" stroke-width="2" d="M 67.5,20 67.5,40 77.5,40" />
<path stroke="#000000" stroke-width="2" d="M 107.5,70" />
<path stroke="#000000" stroke-width="2" d="M 107.5,40 107.7,40 107.7,40.2 107.5,40.2 107.5,40" />
<path stroke="#000000" stroke-width="2" d="M 114.4,70" />
<path stroke="#000000" stroke-width="2" d="M 114.4,30 129.7,67 145,30" />
<path stroke="#000000" stroke-width="2" d="M 151.7,70" />
<path stroke="#000000" stroke-width="2" d="M 151.7,40 151.7,39.3 151.7,38.6 151.9,37.9 152,37.2 152.3,36.6 152.6,36 152.9,35.4 153.3,34.8 153.8,34.2 154.3,33.8 154.8,33.3 155.4,32.9 156,32.6 156.6,32.3 157.3,32 157.9,31.8 158.6,31.7 159.3,31.7 160,31.7 160.7,31.7 161.4,31.8 162.1,32 162.7,32.3 163.4,32.6 164,32.9 164.5,33.3 165.1,33.8 165.6,34.2 166,34.8 166.4,35.4 166.8,36 167.1,36.6 167.3,37.2 167.5,37.9 167.6,38.6 167.7,39.3" />
<path stroke="#000000" stroke-width="2" d="M 167.7,39.3 169.7,39.2 171.3,38.9 172.5,38.4 173.4,37.9 174,37.2 174.3,36.5 174.3,35.7 174.1,35 173.8,34.3 173.3,33.7 172.7,33.2 172,32.8 171.2,32.6 170.5,32.7 169.8,33 169.1,33.5 168.5,34.4 168.1,35.7 167.8,37.3 167.7,39.3 167.7,54.3" />
<path stroke="#000000" stroke-width="2" d="M 181,70" />
<path stroke="#000000" stroke-width="2" d="M 181,20 181,40 191,40 191,55" />
<path stroke="#000000" stroke-width="2" d="M 191,55 190.9,57 190.6,58.6 190.1,59.9 189.5,60.8 188.9,61.3 188.1,61.6 187.4,61.7 186.7,61.5 186,61.1 185.3,60.6 184.8,60 184.5,59.3 184.3,58.6 184.4,57.8 184.6,57.1 185.2,56.4 186.1,55.9 187.3,55.4 188.9,55.1 191,55" />
<path stroke="#000000" stroke-width="2" d="M 197.6,70" />
<path stroke="#000000" stroke-width="2" d="M 197.6,25" />
<path stroke="#000000" stroke-width="2" d="M 197.6,25 199.7,24.9 201.3,24.6 202.5,24.1 203.4,23.6 204,22.9 204.3,22.2 204.3,21.4 204.1,20.7 203.8,20 203.3,19.4 202.7,18.9 202,18.5 201.2,18.3 200.5,18.4 199.7,18.7 199.1,19.2 198.5,20.1 198,21.4 197.7,23 197.6,25 197.6,40" />
<path stroke="#000000" stroke-width="2" d="M 234.3,70" />
<path stroke="#000000" stroke-width="2" d="M 254.3,30 239,67" />
<path stroke="#000000" stroke-width="2" d="M 261,70" />
<path stroke="#000000" stroke-width="2" d="M 261,50 261.2,50 261.2,50.2 261,50.2 261,50" />
<path stroke="#000000" stroke-width="2" d="M 291.2,70" />
<path stroke="#000000" stroke-width="2" d="M 291.2,70 291.4,70 291.4,70.2 291.2,70.2 291.2,70" />
<path stroke="#000000" stroke-width="2" d="M 298,70" />
<path stroke="#000000" stroke-width="2" d="M 298,35" />
<path stroke="#000000" stroke-width="2" d="M 298,35 300.1,34.9 301.7,34.6 302.9,34.1 303.8,33.6 304.4,32.9 304.6,32.2 304.7,31.4 304.5,30.7 304.2,30 303.7,29.4 303,28.9 302.3,28.5 301.6,28.3 300.9,28.4 300.1,28.7 299.5,29.2 298.9,30.1 298.4,31.4 298.1,33 298,35 298,50" />
<path stroke="#000000" stroke-width="2" d="M 298,50 297.9,52 297.6,53.6 297.2,54.9 296.6,55.8 295.9,56.3 295.2,56.6 294.4,56.7 293.7,56.5 293,56.1 292.4,55.6 291.9,55 291.5,54.3 291.4,53.6 291.4,52.8 291.7,52.1 292.3,51.4 293.2,50.9 294.4,50.4 296,50.1 298,50 308,50" />
<path stroke="#000000" stroke-width="2" d="M 314.7,70" />
<path stroke="#000000" stroke-width="2" d="M 314.7,30 314.7,70 314.7,58 314.7,56.3 314.8,54.5 315.1,52.8 315.6,51.1 316.2,49.5 316.9,47.9 317.8,46.4 318.8,45 319.9,43.6 321.2,42.4 322.5,41.3 323.9,40.3 325.4,39.4 327,38.7 328.7,38.1 330.3,37.6 332.1,37.3 333.8,37.1" />
<path stroke="#000000" stroke-width="2" d="M 340.5,70" />
<path stroke="#000000" stroke-width="2" d="M 360.5,30 345.2,67" />
<path stroke="#000000" stroke-width="2" d="M 390.5,70" />
<path stroke="#000000" stroke-width="2" d="M 390.5,70 390.7,70 390.7,70.2 390.5,70.2 390.5,70" />
<path stroke="#000000" stroke-width="2" d="M 420.7,70" />
</svg>