<svg xmlns="http://www.w3.org/2000/svg" width="922.9228979463386" height="98.34134087157756" style="fill:none; stroke-linecap:round;">
    <rect width="100%" height="100%" fill="#FFFFFF" />
<path stroke="#000000" stroke-width="2" d="M 550,75" />
<path stroke="#000000" stroke-width="2" d="M 20,30 30,30 30,70" />
<path stroke="#000000" stroke-width="2" d="M 36.7,70" />
<path stroke="#000000" stroke-width="2" d="M 36.7,50 36.7,70 36.7,64 36.7,63.1 36.7,62.3 36.9,61.4 37.1,60.6 37.4,59.7 37.8,58.9 38.2,58.2 38.7,57.5 39.3,56.8 39.9,56.2 40.6,55.6 41.3,55.1 42,54.7 42.8,54.3 43.7,54 44.5,53.8 45.4,53.6 46.2,53.6" />
<path stroke="#000000" stroke-width="2" d="M 76.2,70" />
<path stroke="#000000" stroke-width="2" d="M 81.2,30" />
<path stroke="#000000" stroke-width="2" d="M 81.2,30 79.8,30.1 78.5,30.6 77.4,31.2 76.4,32.1 75.6,33.1 74.9,34.3 74.4,35.6 74,37 73.8,38.5 73.7,40 73.8,41.5 74,43 74.4,44.4 74.9,45.7 75.6,46.9 76.4,47.9 77.4,48.8 78.5,49.4 79.8,49.9 81.2,50 81.2,50.7 81.3,51.4 81.4,52.1 81.6,52.8 81.8,53.4 82.1,54 82.5,54.6 82.9,55.2 83.3,55.8 83.8,56.2 84.3,56.7 84.9,57.1 85.5,57.4 86.2,57.7 86.8,58 87.5,58.2 88.2,58.3 88.9,58.3 89.6,58.3 90.3,58.3 90.9,58.2 91.6,58 92.3,57.7 92.9,57.4 93.5,57.1 94.1,56.7 94.6,56.2 95.1,55.8 95.6,55.2 96,54.6 96.3,54 96.6,53.4 96.8,52.8 97,52.1 97.1,51.4 97.2,50.7 97.2,70.7 102.9,65" />
<path stroke="#000000" stroke-width="2" d="M 109.5,70" />
<path stroke="#000000" stroke-width="2" d="M 109.5,20 109.5,40 119.5,40 139.5,40 119.7,59.8 139.7,59.8" />
<path stroke="#000000" stroke-width="2" d="M 169.7,70" />
<path stroke="#000000" stroke-width="2" d="M 189.7,70 191.5,70 193.2,69.8 194.9,69.5 196.6,69.1 198.3,68.5 199.8,67.8 201.3,66.9 202.8,65.9 204.1,64.8 205.3,63.5 206.5,62.2 207.5,60.8 208.3,59.3 209.1,57.7 209.7,56 210.1,54.3 210.4,52.6 210.6,50.9 210.6,49.1 210.4,47.4 210.1,45.7 209.7,44 209.1,42.4 208.3,40.8 207.5,39.3 206.5,37.8 205.3,36.5 204.1,35.3 202.8,34.2 201.3,33.2 199.8,32.3 198.3,31.5 196.6,30.9 194.9,30.5 193.2,30.2 191.5,30 189.7,30 188,30.2 186.3,30.5 184.6,30.9 182.9,31.5 181.4,32.3 179.9,33.2 178.4,34.2 177.1,35.3 175.9,36.5 174.7,37.8 173.7,39.3 172.9,40.8 172.1,42.4 171.5,44 171.1,45.7 170.8,47.4 170.6,49.1 170.6,50.9 170.8,52.6 171.1,54.3 171.5,56 172.1,57.7 172.9,59.3 173.7,60.8 174.7,62.2 175.9,63.5 177.1,64.8 178.4,65.9 179.9,66.9 181.4,67.8 182.9,68.5 184.6,69.1 186.3,69.5 188,69.8 189.7,70" />
<path stroke="#000000" stroke-width="2" d="M 217.3,70" />
<path stroke="#000000" stroke-width="2" d="M 217.3,40 224.9,21.5 232.6,40" />
<path stroke="#000000" stroke-width="2" d="M 262.6,70" />
<path stroke="#000000" stroke-width="2" d="M 262.6,30 262.6,70 273.9,58.7" />
<path stroke="#000000" stroke-width="2" d="M 280.5,70" />
<path stroke="#000000" stroke-width="2" d="M 280.5,30 280.5,31.4 280.7,32.8 280.9,34.2 281.3,35.5 281.7,36.8 282.3,38.1 283,39.3 283.8,40.4 284.7,41.5 285.7,42.5 286.8,43.4 287.9,44.2 289.1,44.9 290.4,45.5 291.7,46 293.1,46.3 294.4,46.6 295.8,46.7 297.2,46.7 298.6,46.6 300,46.3 301.3,46 302.6,45.5 303.9,44.9 305.1,44.2 306.3,43.4 307.3,42.5 308.3,41.5 309.2,40.4 310,39.3 310.7,38.1 311.3,36.8 311.8,35.5 312.1,34.2 312.4,32.8 312.5,31.4" />
<path stroke="#000000" stroke-width="2" d="M 342.5,70" />
<path stroke="#000000" stroke-width="2" d="M 342.5,30 342.5,70" />
<path stroke="#000000" stroke-width="2" d="M 349.2,70" />
<path stroke="#000000" stroke-width="2" d="M 349.2,30 349.4,30 349.4,30.2 349.2,30.2 349.2,30" />
<path stroke="#000000" stroke-width="2" d="M 379.4,70" />
<path stroke="#000000" stroke-width="2" d="M 379.4,30 379.4,38 379.4,39 379.5,40.1 379.6,41.1 379.9,42.1 380.3,43.1 380.7,44.1 381.2,45 381.8,45.8 382.5,46.6 383.3,47.4 384.1,48 384.9,48.6 385.8,49.2 386.8,49.6 387.8,50 388.8,50.2 389.8,50.4 390.8,50.5 391.9,50.5 392.9,50.4 394,50.2 395,50 396,49.6 396.9,49.2 397.8,48.6 398.7,48 399.5,47.4 400.2,46.6 400.9,45.8 401.5,45 402,44.1 402.4,43.1 402.8,42.1 403.1,41.1 403.3,40.1 403.4,39 403.4,29 403.4,69 403.4,67.3 403.5,65.6 403.8,63.8 404.3,62.2 404.9,60.5 405.6,58.9 406.5,57.4 407.5,56 408.6,54.7 409.8,53.4 411.2,52.3 412.6,51.3 414.1,50.4 415.7,49.7 417.3,49.1 419,48.6 420.7,48.3 422.5,48.2" />
<path stroke="#000000" stroke-width="2" d="M 429.1,70" />
<path stroke="#000000" stroke-width="2" d="M 429.1,20 429.1,40 439.1,40 431.5,58.5" />
<path stroke="#000000" stroke-width="2" d="M 445.8,70" />
<path stroke="#000000" stroke-width="2" d="M 445.8,20 445.8,40 445.8,34 445.8,33.1 445.9,32.3 446,31.4 446.2,30.6 446.5,29.7 446.9,28.9 447.3,28.2 447.9,27.5 448.4,26.8 449,26.2 449.7,25.6 450.4,25.1 451.2,24.7 452,24.3 452.8,24 453.6,23.8 454.5,23.6 455.3,23.6" />
<path stroke="#000000" stroke-width="2" d="M 485.3,70" />
<path stroke="#000000" stroke-width="2" d="M 485.3,30 505.3,30" />
<path stroke="#000000" stroke-width="2" d="M 505.3,30 506.8,30.1 508,30.6 509.2,31.2 510.1,32.1 511,33.1 511.6,34.3 512.2,35.6 512.5,37 512.8,38.5 512.8,40 512.8,41.5 512.5,43 512.2,44.4 511.6,45.7 511,46.9 510.1,47.9 509.2,48.8 508,49.4 506.8,49.9 505.3,50" />
<path stroke="#000000" stroke-width="2" d="M 542.8,70" />
<path stroke="#000000" stroke-width="2" d="M 542.8,30 542.8,31.4 543,32.8 543.2,34.2 543.6,35.5 544.1,36.8 544.6,38.1 545.3,39.3 546.1,40.4 547,41.5 548,42.5 549.1,43.4 550.2,44.2 551.4,44.9 552.7,45.5 554,46 555.4,46.3 556.7,46.6 558.1,46.7 559.5,46.7 560.9,46.6 562.3,46.3 563.6,46 565,45.5 566.2,44.9 567.4,44.2 568.6,43.4 569.6,42.5 570.6,41.5 571.5,40.4 572.3,39.3 573,38.1 573.6,36.8 574.1,35.5 574.5,34.2 574.7,32.8 574.8,31.4" />
<path stroke="#000000" stroke-width="2" d="M 574.8,39.4" />
<path stroke="#000000" stroke-width="2" d="M 562.8,39.4 582.8,39.4" />
<path stroke="#000000" stroke-width="2" d="M 589.5,70" />
<path stroke="#000000" stroke-width="2" d="M 589.5,20 589.7,20 589.7,20.2 589.5,20.2 589.5,20" />
<path stroke="#000000" stroke-width="2" d="M 619.7,70" />
<path stroke="#000000" stroke-width="2" d="M 635.7,30" />
<path stroke="#000000" stroke-width="2" d="M 635.7,30 635.5,34.1 634.9,37.3 634,39.8 632.8,41.5 631.5,42.7 630,43.2 628.5,43.3 627,43 625.7,42.3 624.4,41.2 623.4,40 622.7,38.6 622.4,37.2 622.5,35.7 623,34.2 624.2,32.9 625.9,31.7 628.4,30.8 631.6,30.2 635.7,30 655.7,30" />
<path stroke="#000000" stroke-width="2" d="M 662.4,70" />
<path stroke="#000000" stroke-width="2" d="M 662.4,25" />
<path stroke="#000000" stroke-width="2" d="M 662.4,25 664.4,24.9 666,24.6 667.2,24.1 668.1,23.6 668.7,22.9 669,22.2 669,21.4 668.8,20.7 668.5,20 668,19.4 667.4,18.9 666.7,18.5 665.9,18.3 665.2,18.4 664.5,18.7 663.8,19.2 663.2,20.1 662.8,21.4 662.5,23 662.4,25 662.4,40 682.4,40 702.4,40 682.6,59.8 702.6,59.8" />
<path stroke="#000000" stroke-width="2" d="M 732.6,70" />
<path stroke="#000000" stroke-width="2" d="M 752.6,70 754.3,70 756,69.8 757.8,69.5 759.4,69.1 761.1,68.5 762.7,67.8 764.2,66.9 765.6,65.9 766.9,64.8 768.2,63.5 769.3,62.2 770.3,60.8 771.2,59.3 771.9,57.7 772.5,56 772.9,54.3 773.3,52.6 773.4,50.9 773.4,49.1 773.3,47.4 772.9,45.7 772.5,44 771.9,42.4 771.2,40.8 770.3,39.3 769.3,37.8 768.2,36.5 766.9,35.3 765.6,34.2 764.2,33.2 762.7,32.3 761.1,31.5 759.4,30.9 757.8,30.5 756,30.2 754.3,30 752.6,30 750.8,30.2 749.1,30.5 747.4,30.9 745.8,31.5 744.2,32.3 742.7,33.2 741.2,34.2 739.9,35.3 738.7,36.5 737.6,37.8 736.6,39.3 735.7,40.8 734.9,42.4 734.3,44 733.9,45.7 733.6,47.4 733.4,49.1 733.4,50.9 733.6,52.6 733.9,54.3 734.3,56 734.9,57.7 735.7,59.3 736.6,60.8 737.6,62.2 738.7,63.5 739.9,64.8 741.2,65.9 742.7,66.9 744.2,67.8 745.8,68.5 747.4,69.1 749.1,69.5 750.8,69.8 752.6,70" />
<path stroke="#000000" stroke-width="2" d="M 780.1,70" />
<path stroke="#000000" stroke-width="2" d="M 780.1,20 800.1,20" />
<path stroke="#000000" stroke-width="2" d="M 830.1,70" />
<path stroke="#000000" stroke-width="2" d="M 850.1,30 850.1,70 830.1,70" />
<path stroke="#000000" stroke-width="2" d="M 856.7,70" />
<path stroke="#000000" stroke-width="2" d="M 856.7,55" />
<path stroke="#000000" stroke-width="2" d="M 856.7,55 858.8,54.9 860.4,54.6 861.6,54.1 862.5,53.6 863.1,52.9 863.4,52.2 863.4,51.4 863.2,50.7 862.9,50 862.4,49.4 861.8,48.9 861.1,48.5 860.3,48.3 859.6,48.4 858.8,48.7 858.2,49.2 857.6,50.1 857.1,51.4 856.8,53 856.7,55 856.7,70 856.7,70.7 856.8,71.4 856.9,72.1 857.1,72.8 857.3,73.4 857.6,74 858,74.6 858.4,75.2 858.8,75.8 859.3,76.2 859.9,76.7 860.4,77.1 861,77.4 861.7,77.7 862.3,78 863,78.2 863.7,78.3 864.4,78.3 865.1,78.3 865.8,78.3 866.5,78.2 867.1,78 867.8,77.7 868.4,77.4 869,77.1 869.6,76.7 870.1,76.2 870.6,75.8 871.1,75.2 871.5,74.6 871.8,74 872.1,73.4 872.4,72.8 872.5,72.1 872.7,71.4 872.7,70.7" />
<path stroke="#000000" stroke-width="2" d="M 872.7,62.7" />
<path stroke="#000000" stroke-width="2" d="M 852.7,62.7 860.7,62.7" />
<path stroke="#000000" stroke-width="2" d="M 902.7,70" />
<path stroke="#000000" stroke-width="2" d="M 902.7,70 902.9,70 902.9,70.2 902.7,70.2 902.7,70" />
<path stroke="#000000" stroke-width="2" d="M 932.9,70" />
</svg>