<svg xmlns="http://www.w3.org/2000/svg" width="804.7880577693085" height="93.3723137837514" style="fill:none; stroke-linecap:round;">
    <rect width="100%" height="100%" fill="#FFFFFF" />
<path stroke="#000000" stroke-width="2" d="M 550,75" />
<path stroke="#000000" stroke-width="2" d="M 20,30 60,30" />
<path stroke="#000000" stroke-width="2" d="M 66.7,70" />
<path stroke="#000000" stroke-width="2" d="M 66.7,20 66.7,40 66.7,34 66.7,33.1 66.7,32.3 66.9,31.4 67.1,30.6 67.4,29.7 67.8,28.9 68.2,28.2 68.7,27.5 69.3,26.8 69.9,26.2 70.6,25.6 71.3,25.1 72,24.7 72.8,24.3 73.7,24 74.5,23.8 75.4,23.6 76.2,23.6 86.1,33.5 76.2,43.4" />
<path stroke="#000000" stroke-width="2" d="M 92.8,70" />
<path stroke="#000000" stroke-width="2" d="M 92.8,20 92.8,40 92.8,34 92.8,33.1 92.9,32.3 93,31.4 93.2,30.6 93.5,29.7 93.9,28.9 94.3,28.2 94.8,27.5 95.4,26.8 96,26.2 96.7,25.6 97.4,25.1 98.2,24.7 99,24.3 99.8,24 100.6,23.8 101.5,23.6 102.3,23.6" />
<path stroke="#000000" stroke-width="2" d="M 132.3,70" />
<path stroke="#000000" stroke-width="2" d="M 132.3,35" />
<path stroke="#000000" stroke-width="2" d="M 132.3,35 134.4,34.9 136,34.6 137.2,34.1 138.1,33.6 138.7,32.9 139,32.2 139,31.4 138.8,30.7 138.5,30 138,29.4 137.4,28.9 136.7,28.5 135.9,28.3 135.2,28.4 134.5,28.7 133.8,29.2 133.2,30.1 132.7,31.4 132.4,33 132.3,35 132.3,50 124.7,68.5 127,62.9 127.3,62.1 127.7,61.4 128.2,60.6 128.7,59.9 129.3,59.3 130,58.7 130.6,58.2 131.4,57.7 132.2,57.3 133,57 133.8,56.7 134.6,56.5" />
<path stroke="#000000" stroke-width="2" d="M 145.7,70" />
<path stroke="#000000" stroke-width="2" d="M 145.7,26" />
<path stroke="#000000" stroke-width="2" d="M 145.7,26 147.7,25.9 149.3,25.6 150.5,25.1 151.4,24.6 152,23.9 152.3,23.2 152.3,22.4 152.1,21.7 151.8,21 151.3,20.4 150.7,19.9 150,19.5 149.2,19.3 148.5,19.4 147.8,19.7 147.1,20.2 146.5,21.1 146.1,22.4 145.8,24 145.7,26 145.7,30" />
<path stroke="#000000" stroke-width="2" d="M 145.7,30 146,30.9 146.3,31.7 146.7,32.4 147.1,33.1 147.5,33.8 147.9,34.4 148.4,34.9 148.9,35.4 149.4,35.9 149.9,36.2 150.4,36.6 151,36.9 151.5,37.2 152.1,37.4 152.7,37.6 153.3,37.7 153.9,37.9 154.5,37.9 155.1,38 155.7,38 156.5,38 157.4,38.1 158.3,38.2 159.1,38.5 159.9,38.8 160.7,39.1 161.5,39.6 162.2,40.1 162.9,40.6 163.5,41.2 164,41.9 164.5,42.6 165,43.4 165.3,44.2 165.6,45 165.9,45.8 166,46.7 166.1,47.6 166.1,48.4 166,49.3 165.9,50.2 165.6,51 165.3,51.8 165,52.6 164.5,53.4 164,54.1 163.5,54.7 162.9,55.4 162.2,55.9 161.5,56.4 160.7,56.9 159.9,57.2 159.1,57.5 158.3,57.8 157.4,57.9 156.5,58 155.7,58 154.8,57.9 153.9,57.8 153.1,57.5 152.3,57.2 151.5,56.9 150.7,56.4 150,55.9 149.3,55.4 148.7,54.7 148.2,54.1 147.7,53.4 147.2,52.6 146.9,51.8 146.6,51 146.3,50.2 146.2,49.3 146.1,48.4 146.1,47.6 146.2,46.7 146.3,45.8 146.6,45 146.9,44.2 147.2,43.4 147.7,42.6 148.2,41.9 148.7,41.2 149.3,40.6 150,40.1 150.7,39.6 151.5,39.1 152.3,38.8 153.1,38.5 153.9,38.2 154.8,38.1 155.7,38" />
<path stroke="#000000" stroke-width="2" d="M 196.1,70" />
<path stroke="#000000" stroke-width="2" d="M 196.1,50 203.7,31.5 211.4,50 219.1,68.5 226.7,50" />
<path stroke="#000000" stroke-width="2" d="M 256.7,70" />
<path stroke="#000000" stroke-width="2" d="M 256.7,35" />
<path stroke="#000000" stroke-width="2" d="M 256.7,35 258.7,34.9 260.3,34.6 261.6,34.1 262.5,33.6 263,32.9 263.3,32.2 263.4,31.4 263.2,30.7 262.8,30 262.3,29.4 261.7,28.9 261,28.5 260.3,28.3 259.5,28.4 258.8,28.7 258.1,29.2 257.6,30.1 257.1,31.4 256.8,33 256.7,35 256.7,50" />
<path stroke="#000000" stroke-width="2" d="M 256.7,50 256.6,52 256.3,53.6 255.8,54.9 255.3,55.8 254.6,56.3 253.9,56.6 253.1,56.7 252.4,56.5 251.7,56.1 251.1,55.6 250.6,55 250.2,54.3 250,53.6 250.1,52.8 250.4,52.1 250.9,51.4 251.8,50.9 253.1,50.4 254.7,50.1 256.7,50 266.7,50" />
<path stroke="#000000" stroke-width="2" d="M 273.4,70" />
<path stroke="#000000" stroke-width="2" d="M 273.4,30 273.4,70 273.4,58 273.4,56.3 273.5,54.5 273.8,52.8 274.3,51.1 274.9,49.5 275.6,47.9 276.5,46.4 277.5,45 278.6,43.6 279.8,42.4 281.2,41.3 282.6,40.3 284.1,39.4 285.7,38.7 287.3,38.1 289,37.6 290.7,37.3 292.5,37.1" />
<path stroke="#000000" stroke-width="2" d="M 299.1,70" />
<path stroke="#000000" stroke-width="2" d="M 309.1,20 301.5,38.5" />
<path stroke="#000000" stroke-width="2" d="M 339.1,70" />
<path stroke="#000000" stroke-width="2" d="M 359.1,30 343.8,67" />
<path stroke="#000000" stroke-width="2" d="M 365.8,70" />
<path stroke="#000000" stroke-width="2" d="M 365.8,50 366,50 366,50.2 365.8,50.2 365.8,50" />
<path stroke="#000000" stroke-width="2" d="M 396,70" />
<path stroke="#000000" stroke-width="2" d="M 412,30 412,60" />
<path stroke="#000000" stroke-width="2" d="M 412,60 411.8,64.1 411.2,67.3 410.3,69.8 409.1,71.5 407.8,72.7 406.3,73.2 404.8,73.3 403.4,73 402,72.3 400.8,71.2 399.8,70 399.1,68.6 398.7,67.2 398.8,65.7 399.4,64.2 400.5,62.9 402.3,61.7 404.7,60.8 408,60.2 412,60" />
<path stroke="#000000" stroke-width="2" d="M 418.7,70" />
<path stroke="#000000" stroke-width="2" d="M 418.7,30 418.7,30.7 418.7,31.4 418.9,32.1 419,32.8 419.3,33.4 419.6,34 419.9,34.6 420.3,35.2 420.8,35.8 421.3,36.2 421.8,36.7 422.4,37.1 423,37.4 423.6,37.7 424.3,38 424.9,38.2 425.6,38.3 426.3,38.3 427,38.3 427.7,38.3 428.4,38.2 429.1,38 429.7,37.7 430.4,37.4 431,37.1 431.5,36.7 432.1,36.2 432.6,35.8 433,35.2 433.4,34.6 433.8,34 434.1,33.4 434.3,32.8 434.5,32.1 434.6,31.4 434.7,30.7" />
<path stroke="#000000" stroke-width="2" d="M 434.7,30.7 436.1,30.8 437.4,31.3 438.5,31.9 439.5,32.8 440.3,33.8 441,35 441.5,36.3 441.9,37.7 442.1,39.2 442.2,40.7 442.1,42.2 441.9,43.7 441.5,45.1 441,46.4 440.3,47.6 439.5,48.6 438.5,49.5 437.4,50.1 436.1,50.6 434.7,50.7" />
<path stroke="#000000" stroke-width="2" d="M 472.2,70" />
<path stroke="#000000" stroke-width="2" d="M 492.2,30 492.2,70 472.2,70" />
<path stroke="#000000" stroke-width="2" d="M 498.8,70" />
<path stroke="#000000" stroke-width="2" d="M 498.8,50 499,50 499,50.2 498.8,50.2 498.8,50" />
<path stroke="#000000" stroke-width="2" d="M 529,70" />
<path stroke="#000000" stroke-width="2" d="M 529,30 529,50 539,50 559,50" />
<path stroke="#000000" stroke-width="2" d="M 589,70" />
<path stroke="#000000" stroke-width="2" d="M 589,40" />
<path stroke="#000000" stroke-width="2" d="M 589,40 593.1,39.8 596.3,39.2 598.8,38.3 600.6,37.1 601.7,35.8 602.3,34.3 602.3,32.8 602,31.4 601.3,30 600.3,28.8 599.1,27.7 597.7,27 596.2,26.7 594.7,26.8 593.2,27.3 591.9,28.5 590.8,30.2 589.8,32.7 589.2,35.9 589,40 589,70" />
<path stroke="#000000" stroke-width="2" d="M 609,70" />
<path stroke="#000000" stroke-width="2" d="M 609,20" />
<path stroke="#000000" stroke-width="2" d="M 609,20 610.4,20.1 611.7,20.6 612.8,21.2 613.8,22.1 614.6,23.1 615.3,24.3 615.8,25.6 616.2,27 616.4,28.5 616.5,30 616.4,31.5 616.2,33 615.8,34.4 615.3,35.7 614.6,36.9 613.8,37.9 612.8,38.8 611.7,39.4 610.4,39.9 609,40" />
<path stroke="#000000" stroke-width="2" d="M 623.2,70" />
<path stroke="#000000" stroke-width="2" d="M 623.2,20 643.2,20" />
<path stroke="#000000" stroke-width="2" d="M 673.2,70" />
<path stroke="#000000" stroke-width="2" d="M 673.2,30 688.5,67" />
<path stroke="#000000" stroke-width="2" d="M 695.1,70" />
<path stroke="#000000" stroke-width="2" d="M 695.1,35" />
<path stroke="#000000" stroke-width="2" d="M 695.1,35 697.2,34.9 698.8,34.6 700,34.1 700.9,33.6 701.5,32.9 701.8,32.2 701.8,31.4 701.6,30.7 701.3,30 700.8,29.4 700.2,28.9 699.5,28.5 698.7,28.3 698,28.4 697.3,28.7 696.6,29.2 696,30.1 695.6,31.4 695.3,33 695.1,35 695.1,50 700.1,50 700.1,70" />
<path stroke="#000000" stroke-width="2" d="M 708.5,70" />
<path stroke="#000000" stroke-width="2" d="M 708.5,50 708.5,70 708.5,64 708.5,63.1 708.5,62.3 708.7,61.4 708.9,60.6 709.2,59.7 709.6,58.9 710,58.2 710.5,57.5 711.1,56.8 711.7,56.2 712.4,55.6 713.1,55.1 713.8,54.7 714.6,54.3 715.5,54 716.3,53.8 717.2,53.6 718,53.6 727.9,63.5 718,73.4" />
<path stroke="#000000" stroke-width="2" d="M 734.6,70" />
<path stroke="#000000" stroke-width="2" d="M 734.6,20 754.6,20" />
<path stroke="#000000" stroke-width="2" d="M 784.6,70" />
<path stroke="#000000" stroke-width="2" d="M 784.6,70 784.8,70 784.8,70.2 784.6,70.2 784.6,70" />
<path stroke="#000000" stroke-width="2" d="M 814.8,70" />
</svg>