<svg xmlns="http://www.w3.org/2000/svg" width="453.6384813025958" height="90.2" style="fill:none; stroke-linecap:round;">
    <rect width="100%" height="100%" fill="#FFFFFF" />
<path stroke="#000000" stroke-width="2" d="M 550,75" />
<path stroke="#000000" stroke-width="2" d="M 20,70 20,68.6 20.1,67.2 20.4,65.8 20.7,64.5 21.2,63.2 21.8,61.9 22.5,60.7 23.3,59.6 24.2,58.5 25.2,57.5 26.2,56.6 27.4,55.8 28.6,55.1 29.9,54.5 31.2,54 32.5,53.7 33.9,53.4 35.3,53.3 36.7,53.3 38.1,53.4 39.4,53.7 40.8,54 42.1,54.5 43.4,55.1 44.6,55.8 45.7,56.6 46.8,57.5 47.8,58.5 48.7,59.6 49.5,60.7 50.2,61.9 50.8,63.2 51.2,64.5 51.6,65.8 51.8,67.2 52,68.6" />
<path stroke="#000000" stroke-width="2" d="M 58.6,70" />
<path stroke="#000000" stroke-width="2" d="M 74.6,30" />
<path stroke="#000000" stroke-width="2" d="M 74.6,30 74.4,34.1 73.8,37.3 72.9,39.8 71.8,41.5 70.4,42.7 69,43.2 67.5,43.3 66,43 64.6,42.3 63.4,41.2 62.4,40 61.7,38.6 61.3,37.2 61.4,35.7 62,34.2 63.1,32.9 64.9,31.7 67.3,30.8 70.6,30.2 74.6,30 94.6,30" />
<path stroke="#000000" stroke-width="2" d="M 124.6,70" />
<path stroke="#000000" stroke-width="2" d="M 140.6,30" />
<path stroke="#000000" stroke-width="2" d="M 140.6,30 140.4,34.1 139.8,37.3 138.9,39.8 137.8,41.5 136.4,42.7 135,43.2 133.5,43.3 132,43 130.6,42.3 129.4,41.2 128.4,40 127.7,38.6 127.3,37.2 127.4,35.7 128,34.2 129.1,32.9 130.9,31.7 133.3,30.8 136.6,30.2 140.6,30 160.6,30" />
<path stroke="#000000" stroke-width="2" d="M 167.3,70" />
<path stroke="#000000" stroke-width="2" d="M 167.3,40" />
<path stroke="#000000" stroke-width="2" d="M 167.3,40 171.4,39.8 174.6,39.2 177.1,38.3 178.8,37.1 180,35.8 180.5,34.3 180.6,32.8 180.3,31.4 179.6,30 178.6,28.8 177.3,27.7 175.9,27 174.5,26.7 173,26.8 171.5,27.3 170.2,28.5 169,30.2 168.1,32.7 167.5,35.9 167.3,40 167.3,70" />
<path stroke="#000000" stroke-width="2" d="M 210.6,70" />
<path stroke="#000000" stroke-width="2" d="M 210.6,30 210.6,50 220.6,50 240.6,50" />
<path stroke="#000000" stroke-width="2" d="M 270.6,70" />
<path stroke="#000000" stroke-width="2" d="M 290.6,30 290.6,70 270.6,70" />
<path stroke="#000000" stroke-width="2" d="M 297.3,70" />
<path stroke="#000000" stroke-width="2" d="M 297.3,50 297.5,50 297.5,50.2 297.3,50.2 297.3,50" />
<path stroke="#000000" stroke-width="2" d="M 327.5,70" />
<path stroke="#000000" stroke-width="2" d="M 327.5,40" />
<path stroke="#000000" stroke-width="2" d="M 327.5,40 331.5,39.8 334.8,39.2 337.2,38.3 339,37.1 340.1,35.8 340.7,34.3 340.8,32.8 340.4,31.4 339.7,30 338.7,28.8 337.5,27.7 336.1,27 334.6,26.7 333.1,26.8 331.7,27.3 330.4,28.5 329.2,30.2 328.3,32.7 327.7,35.9 327.5,40 327.5,70" />
<path stroke="#000000" stroke-width="2" d="M 347.5,70" />
<path stroke="#000000" stroke-width="2" d="M 347.5,20" />
<path stroke="#000000" stroke-width="2" d="M 347.5,20 347.6,20 348,20 348.7,20 349.5,20.1 350.6,20.2 351.8,20.3 353.1,20.4 354.5,20.6 356,20.9 357.5,21.2 358.9,21.7 360.4,22.2 361.8,22.7 363.1,23.4 364.3,24.2 365.4,25.1 366.2,26.1 366.9,27.3 367.3,28.6 367.5,30" />
<path stroke="#000000" stroke-width="2" d="M 367.5,30 369.4,32.1 370.7,34.1 371.5,35.7 371.8,37.2 371.7,38.4 371.2,39.4 370.5,40.2 369.6,40.8 368.6,41.1 367.5,41.2 366.3,41.1 365.3,40.8 364.4,40.2 363.7,39.4 363.2,38.4 363.1,37.2 363.4,35.7 364.2,34 365.5,32.1 367.5,30" />
<path stroke="#000000" stroke-width="2" d="M 367.5,30 367.5,29.9 367.5,29.7 367.5,29.4 367.6,29 367.8,28.4 368,27.8 368.3,27.2 368.7,26.5 369.3,25.7 370,25 370.8,24.3 371.8,23.5 372.9,22.8 374.3,22.2 375.9,21.6 377.7,21 379.7,20.6 382,20.3 384.6,20.1 387.5,20 387.5,20.7 387.5,21.4 387.6,22.1 387.8,22.8 388.1,23.4 388.4,24 388.7,24.6 389.1,25.2 389.5,25.8 390,26.2 390.6,26.7 391.1,27.1 391.8,27.4 392.4,27.7 393,28 393.7,28.2 394.4,28.3 395.1,28.3 395.8,28.3 396.5,28.3 397.2,28.2 397.9,28 398.5,27.7 399.1,27.4 399.7,27.1 400.3,26.7 400.9,26.2 401.3,25.8 401.8,25.2 402.2,24.6 402.5,24 402.8,23.4 403.1,22.8 403.3,22.1 403.4,21.4 403.4,20.7" />
<path stroke="#000000" stroke-width="2" d="M 433.4,70" />
<path stroke="#000000" stroke-width="2" d="M 433.4,70 433.6,70 433.6,70.2 433.4,70.2 433.4,70" />
<path stroke="#000000" stroke-width="2" d="M 463.6,70" />
</svg>