<svg xmlns="http://www.w3.org/2000/svg" width="825.1818557097968" height="122.0" style="fill:none; stroke-linecap:round;">
    <rect width="100%" height="100%" fill="#FFFFFF" />
<path stroke="#000000" stroke-width="2" d="M 550,75" />
<path stroke="#000000" stroke-width="2" d="M 20,70 20,68.6 20.1,67.2 20.4,65.8 20.7,64.5 21.2,63.2 21.8,61.9 22.5,60.7 23.3,59.6 24.2,58.5 25.2,57.5 26.2,56.6 27.4,55.8 28.6,55.1 29.9,54.5 31.2,54 32.5,53.7 33.9,53.4 35.3,53.3 36.7,53.3 38.1,53.4 39.4,53.7 40.8,54 42.1,54.5 43.4,55.1 44.6,55.8 45.7,56.6 46.8,57.5 47.8,58.5 48.7,59.6 49.5,60.7 50.2,61.9 50.8,63.2 51.2,64.5 51.6,65.8 51.8,67.2 52,68.6" />
<path stroke="#000000" stroke-width="2" d="M 58.6,70" />
<path stroke="#000000" stroke-width="2" d="M 74.6,30" />
<path stroke="#000000" stroke-width="2" d="M 74.6,30 74.4,34.1 73.8,37.3 72.9,39.8 71.8,41.5 70.4,42.7 69,43.2 67.5,43.3 66,43 64.6,42.3 63.4,41.2 62.4,40 61.7,38.6 61.3,37.2 61.4,35.7 62,34.2 63.1,32.9 64.9,31.7 67.3,30.8 70.6,30.2 74.6,30 94.6,30" />
<path stroke="#000000" stroke-width="2" d="M 124.6,70" />
<path stroke="#000000" stroke-width="2" d="M 124.6,30 124.6,50 134.6,50 154.6,50 147,68.5 149.3,62.9 149.6,62.1 150,61.4 150.5,60.6 151,59.9 151.6,59.3 152.2,58.7 152.9,58.2 153.7,57.7 154.4,57.3 155.3,57 156.1,56.7 156.9,56.5" />
<path stroke="#000000" stroke-width="2" d="M 163.6,70" />
<path stroke="#000000" stroke-width="2" d="M 163.6,35" />
<path stroke="#000000" stroke-width="2" d="M 163.6,35 165.6,34.9 167.3,34.6 168.5,34.1 169.4,33.6 169.9,32.9 170.2,32.2 170.3,31.4 170.1,30.7 169.7,30 169.2,29.4 168.6,28.9 167.9,28.5 167.2,28.3 166.4,28.4 165.7,28.7 165,29.2 164.5,30.1 164,31.4 163.7,33 163.6,35 163.6,50 156,68.5" />
<path stroke="#000000" stroke-width="2" d="M 176.9,70" />
<path stroke="#000000" stroke-width="2" d="M 176.9,30" />
<path stroke="#000000" stroke-width="2" d="M 176.9,30 179.8,30.3 182.3,31.1 184.6,32.4 186.5,34.2 188.2,36.2 189.5,38.6 190.6,41.3 191.3,44.1 191.8,47 191.9,50 191.8,53 191.3,55.9 190.6,58.7 189.5,61.4 188.2,63.8 186.5,65.8 184.6,67.6 182.3,68.9 179.8,69.7 176.9,70" />
<path stroke="#000000" stroke-width="2" d="M 221.9,70" />
<path stroke="#000000" stroke-width="2" d="M 221.9,30 221.9,50 231.9,50 251.9,50" />
<path stroke="#000000" stroke-width="2" d="M 281.9,70" />
<path stroke="#000000" stroke-width="2" d="M 301.9,30 301.9,70 281.9,70" />
<path stroke="#000000" stroke-width="2" d="M 308.6,70" />
<path stroke="#000000" stroke-width="2" d="M 308.6,70 316.2,51.5 323.9,70 323.9,90 323.9,84 323.9,83.1 324,82.3 324.1,81.4 324.4,80.6 324.7,79.7 325,78.9 325.5,78.2 326,77.5 326.5,76.8 327.1,76.2 327.8,75.6 328.5,75.1 329.3,74.7 330.1,74.3 330.9,74 331.7,73.8 332.6,73.6 333.5,73.6" />
<path stroke="#000000" stroke-width="2" d="M 363.5,70" />
<path stroke="#000000" stroke-width="2" d="M 373.5,30" />
<path stroke="#000000" stroke-width="2" d="M 373.5,30 370.6,30.3 368.1,31.1 365.8,32.4 363.9,34.2 362.2,36.2 360.9,38.6 359.8,41.3 359.1,44.1 358.6,47 358.5,50 358.6,53 359.1,55.9 359.8,58.7 360.9,61.4 362.2,63.8 363.9,65.8 365.8,67.6 368.1,68.9 370.6,69.7 373.5,70" />
<path stroke="#000000" stroke-width="2" d="M 373.5,70 373.6,70 374,70 374.7,70 375.5,70.1 376.6,70.2 377.8,70.3 379.1,70.4 380.5,70.6 382,70.9 383.5,71.2 385,71.7 386.4,72.2 387.8,72.7 389.1,73.4 390.3,74.2 391.4,75.1 392.2,76.1 392.9,77.3 393.3,78.6 393.5,80" />
<path stroke="#000000" stroke-width="2" d="M 393.5,80 395.4,82.1 396.7,84.1 397.5,85.7 397.8,87.2 397.7,88.4 397.2,89.5 396.5,90.2 395.6,90.8 394.6,91.1 393.5,91.2 392.3,91.1 391.3,90.8 390.4,90.2 389.7,89.5 389.2,88.4 389.1,87.2 389.4,85.7 390.2,84.1 391.5,82.1 393.5,80" />
<path stroke="#000000" stroke-width="2" d="M 393.5,80 393.5,79.9 393.5,79.7 393.5,79.4 393.6,79 393.8,78.4 394,77.8 394.3,77.2 394.7,76.5 395.3,75.7 396,75 396.8,74.3 397.8,73.5 398.9,72.8 400.3,72.2 401.9,71.6 403.7,71 405.7,70.6 408,70.3 410.6,70.1 413.5,70 433.5,70" />
<path stroke="#000000" stroke-width="2" d="M 463.5,70" />
<path stroke="#000000" stroke-width="2" d="M 463.5,70 463.5,68.6 463.6,67.2 463.8,65.8 464.2,64.5 464.7,63.2 465.2,61.9 465.9,60.7 466.7,59.6 467.6,58.5 468.6,57.5 469.7,56.6 470.8,55.8 472.1,55.1 473.3,54.5 474.6,54 476,53.7 477.4,53.4 478.7,53.3 480.1,53.3 481.5,53.4 482.9,53.7 484.3,54 485.6,54.5 486.8,55.1 488,55.8 489.2,56.6 490.2,57.5 491.2,58.5 492.1,59.6 492.9,60.7 493.6,61.9 494.2,63.2 494.7,64.5 495.1,65.8 495.3,67.2 495.4,68.6" />
<path stroke="#000000" stroke-width="2" d="M 502.1,70" />
<path stroke="#000000" stroke-width="2" d="M 502.1,20 502.1,40 502.1,34 502.1,33.1 502.2,32.3 502.3,31.4 502.5,30.6 502.8,29.7 503.2,28.9 503.6,28.2 504.1,27.5 504.7,26.8 505.3,26.2 506,25.6 506.7,25.1 507.5,24.7 508.3,24.3 509.1,24 509.9,23.8 510.8,23.6 511.6,23.6" />
<path stroke="#000000" stroke-width="2" d="M 518.3,70" />
<path stroke="#000000" stroke-width="2" d="M 518.3,30 518.3,70 518.3,58 518.3,56.3 518.5,54.5 518.8,52.8 519.2,51.1 519.8,49.5 520.6,47.9 521.4,46.4 522.4,45 523.5,43.6 524.8,42.4 526.1,41.3 527.5,40.3 529.1,39.4 530.6,38.7 532.3,38.1 534,37.6 535.7,37.3 537.4,37.1" />
<path stroke="#000000" stroke-width="2" d="M 567.4,70" />
<path stroke="#000000" stroke-width="2" d="M 567.4,70" />
<path stroke="#000000" stroke-width="2" d="M 567.4,70 568.5,70 569.5,70.2 570.4,70.4 571.1,70.7 571.6,71 572.1,71.5 572.4,71.9 572.6,72.5 572.7,73.1 572.7,73.8 572.5,74.4 572.3,75.2 572,76 571.6,76.8 571.1,77.6 570.5,78.4 569.8,79.3 569.1,80.2 568.3,81.1 567.4,82" />
<path stroke="#000000" stroke-width="2" d="M 602.7,70" />
<path stroke="#000000" stroke-width="2" d="M 618.7,30 598.9,49.8 618.7,69.6" />
<path stroke="#000000" stroke-width="2" d="M 625.4,70" />
<path stroke="#000000" stroke-width="2" d="M 625.4,20" />
<path stroke="#000000" stroke-width="2" d="M 625.4,20 625.5,20 625.9,20 626.6,20 627.4,20.1 628.5,20.2 629.7,20.3 631,20.4 632.4,20.6 633.9,20.9 635.4,21.2 636.9,21.7 638.3,22.2 639.7,22.7 641,23.4 642.2,24.2 643.3,25.1 644.1,26.1 644.8,27.3 645.2,28.6 645.4,30" />
<path stroke="#000000" stroke-width="2" d="M 645.4,30 647.3,32.1 648.6,34.1 649.4,35.7 649.7,37.2 649.6,38.4 649.1,39.4 648.4,40.2 647.5,40.8 646.5,41.1 645.4,41.2 644.2,41.1 643.2,40.8 642.3,40.2 641.6,39.4 641.1,38.4 641,37.2 641.3,35.7 642.1,34 643.4,32.1 645.4,30" />
<path stroke="#000000" stroke-width="2" d="M 645.4,30 645.4,29.9 645.4,29.7 645.4,29.4 645.5,29 645.7,28.4 645.9,27.8 646.2,27.2 646.6,26.5 647.2,25.7 647.9,25 648.7,24.3 649.7,23.5 650.9,22.8 652.2,22.2 653.8,21.6 655.6,21 657.6,20.6 659.9,20.3 662.5,20.1 665.4,20 673,38.5 680.7,20" />
<path stroke="#000000" stroke-width="2" d="M 680.7,30" />
<path stroke="#000000" stroke-width="2" d="M 664.7,30 681.7,30" />
<path stroke="#000000" stroke-width="2" d="M 711.7,70" />
<path stroke="#000000" stroke-width="2" d="M 727.7,30 707.9,49.8 727.7,69.6" />
<path stroke="#000000" stroke-width="2" d="M 734.3,70" />
<path stroke="#000000" stroke-width="2" d="M 734.3,20 742,38.5 742,58.5" />
<path stroke="#000000" stroke-width="2" d="M 748.7,70" />
<path stroke="#000000" stroke-width="2" d="M 748.7,20 748.7,20.7 748.7,21.4 748.8,22.1 749,22.8 749.3,23.4 749.5,24 749.9,24.6 750.3,25.2 750.7,25.8 751.2,26.2 751.8,26.7 752.3,27.1 753,27.4 753.6,27.7 754.2,28 754.9,28.2 755.6,28.3 756.3,28.3 757,28.3 757.7,28.3 758.4,28.2 759.1,28 759.7,27.7 760.3,27.4 760.9,27.1 761.5,26.7 762.1,26.2 762.5,25.8 763,25.2 763.4,24.6 763.7,24 764,23.4 764.3,22.8 764.5,22.1 764.6,21.4 764.6,20.7" />
<path stroke="#000000" stroke-width="2" d="M 794.6,70" />
<path stroke="#000000" stroke-width="2" d="M 794.6,62 795.4,62 795.4,62.8 794.6,62.8 794.6,62" />
<path stroke="#000000" stroke-width="2" d="M 794.6,78" />
<path stroke="#000000" stroke-width="2" d="M 794.6,78 796.9,78.1 798.9,78.3 800.5,78.8 801.9,79.3 803.1,80.1 804,80.9 804.6,81.9 805,83 805.2,84.2 805.1,85.5 804.9,86.9 804.4,88.4 803.8,89.9 803,91.5 802,93.2 800.8,94.9 799.5,96.6 798,98.4 796.4,100.2 794.6,102" />
<path stroke="#000000" stroke-width="2" d="M 835.2,70" />
</svg>