<svg xmlns="http://www.w3.org/2000/svg" width="705.5771664652674" height="103.47759065022574" style="fill:none; stroke-linecap:round;">
    <rect width="100%" height="100%" fill="#FFFFFF" />
<path stroke="#000000" stroke-width="2" d="M 550,75" />
<path stroke="#000000" stroke-width="2" d="M 20,30 20,70 31.3,58.7" />
<path stroke="#000000" stroke-width="2" d="M 38,70" />
<path stroke="#000000" stroke-width="2" d="M 58,70 59.7,70 61.5,69.8 63.2,69.5 64.9,69.1 66.5,68.5 68.1,67.8 69.6,66.9 71,65.9 72.4,64.8 73.6,63.5 74.7,62.2 75.7,60.8 76.6,59.3 77.3,57.7 77.9,56 78.4,54.3 78.7,52.6 78.8,50.9 78.8,49.1 78.7,47.4 78.4,45.7 77.9,44 77.3,42.4 76.6,40.8 75.7,39.3 74.7,37.8 73.6,36.5 72.4,35.3 71,34.2 69.6,33.2 68.1,32.3 66.5,31.5 64.9,30.9 63.2,30.5 61.5,30.2 59.7,30 58,30 56.2,30.2 54.5,30.5 52.8,30.9 51.2,31.5 49.6,32.3 48.1,33.2 46.7,34.2 45.3,35.3 44.1,36.5 43,37.8 42,39.3 41.1,40.8 40.4,42.4 39.8,44 39.3,45.7 39,47.4 38.9,49.1 38.9,50.9 39,52.6 39.3,54.3 39.8,56 40.4,57.7 41.1,59.3 42,60.8 43,62.2 44.1,63.5 45.3,64.8 46.7,65.9 48.1,66.9 49.6,67.8 51.2,68.5 52.8,69.1 54.5,69.5 56.2,69.8 58,70" />
<path stroke="#000000" stroke-width="2" d="M 108.8,70" />
<path stroke="#000000" stroke-width="2" d="M 113.8,30" />
<path stroke="#000000" stroke-width="2" d="M 113.8,30 112.4,30.1 111.1,30.6 110,31.2 109,32.1 108.2,33.1 107.5,34.3 107,35.6 106.6,37 106.4,38.5 106.3,40 106.4,41.5 106.6,43 107,44.4 107.5,45.7 108.2,46.9 109,47.9 110,48.8 111.1,49.4 112.4,49.9 113.8,50 113.8,50.7 113.9,51.4 114,52.1 114.2,52.8 114.4,53.4 114.7,54 115.1,54.6 115.5,55.2 115.9,55.8 116.4,56.2 117,56.7 117.5,57.1 118.1,57.4 118.8,57.7 119.4,58 120.1,58.2 120.8,58.3 121.5,58.3 122.2,58.3 122.9,58.3 123.6,58.2 124.2,58 124.9,57.7 125.5,57.4 126.1,57.1 126.7,56.7 127.2,56.2 127.7,55.8 128.2,55.2 128.6,54.6 128.9,54 129.2,53.4 129.5,52.8 129.6,52.1 129.8,51.4 129.8,50.7" />
<path stroke="#000000" stroke-width="2" d="M 159.8,70" />
<path stroke="#000000" stroke-width="2" d="M 159.8,30 159.8,50 169.8,50 162.2,68.5" />
<path stroke="#000000" stroke-width="2" d="M 162.2,68.5 164.2,68.4 165.8,68.1 167,67.6 167.9,67 168.5,66.4 168.8,65.6 168.8,64.9 168.6,64.2 168.3,63.5 167.8,62.9 167.2,62.4 166.5,62 165.7,61.8 165,61.9 164.3,62.1 163.6,62.7 163,63.6 162.6,64.8 162.3,66.4 162.2,68.5 162.2,83.5" />
<path stroke="#000000" stroke-width="2" d="M 199.8,70" />
<path stroke="#000000" stroke-width="2" d="M 215.8,30 215.8,60" />
<path stroke="#000000" stroke-width="2" d="M 215.8,60 215.6,64.1 215,67.3 214.1,69.8 212.9,71.5 211.6,72.7 210.1,73.2 208.7,73.3 207.2,73 205.8,72.3 204.6,71.2 203.6,70 202.9,68.6 202.5,67.2 202.6,65.7 203.2,64.2 204.3,62.9 206.1,61.7 208.5,60.8 211.8,60.2 215.8,60" />
<path stroke="#000000" stroke-width="2" d="M 222.5,70" />
<path stroke="#000000" stroke-width="2" d="M 222.5,20 230.1,38.5" />
<path stroke="#000000" stroke-width="2" d="M 260.1,70" />
<path stroke="#000000" stroke-width="2" d="M 260.1,70" />
<path stroke="#000000" stroke-width="2" d="M 260.1,70 261.3,70 262.2,70.2 263.1,70.4 263.8,70.7 264.4,71 264.8,71.5 265.1,71.9 265.3,72.5 265.4,73.1 265.4,73.8 265.3,74.4 265,75.2 264.7,76 264.3,76.8 263.8,77.6 263.2,78.4 262.5,79.3 261.8,80.2 261,81.1 260.1,82" />
<path stroke="#000000" stroke-width="2" d="M 295.4,70" />
<path stroke="#000000" stroke-width="2" d="M 295.4,30" />
<path stroke="#000000" stroke-width="2" d="M 295.4,30 298.3,30.3 300.8,31.1 303.1,32.4 305,34.2 306.7,36.2 308,38.6 309.1,41.3 309.8,44.1 310.3,47 310.4,50 310.3,53 309.8,55.9 309.1,58.7 308,61.4 306.7,63.8 305,65.8 303.1,67.6 300.8,68.9 298.3,69.7 295.4,70 296.6,68.8 298,67.6 299.4,66.6 300.9,65.8 302.5,65 304.1,64.4 305.8,64 307.5,63.7 309.3,63.5 311,63.5 312.8,63.7 314.5,64 316.2,64.4 317.8,65 319.4,65.8" />
<path stroke="#000000" stroke-width="2" d="M 326.1,70" />
<path stroke="#000000" stroke-width="2" d="M 334.1,20 334.1,35" />
<path stroke="#000000" stroke-width="2" d="M 334.1,35 334,37 333.7,38.6 333.2,39.9 332.6,40.8 331.9,41.3 331.2,41.6 330.5,41.7 329.7,41.5 329,41.1 328.4,40.6 327.9,40 327.6,39.3 327.4,38.6 327.4,37.8 327.7,37.1 328.3,36.4 329.2,35.9 330.4,35.4 332,35.1 334.1,35" />
<path stroke="#000000" stroke-width="2" d="M 340.7,70" />
<path stroke="#000000" stroke-width="2" d="M 340.7,20 340.7,40 340.7,34 340.7,33.1 340.8,32.3 341,31.4 341.2,30.6 341.5,29.7 341.8,28.9 342.3,28.2 342.8,27.5 343.3,26.8 344,26.2 344.6,25.6 345.3,25.1 346.1,24.7 346.9,24.3 347.7,24 348.6,23.8 349.4,23.6 350.3,23.6" />
<path stroke="#000000" stroke-width="2" d="M 356.9,70" />
<path stroke="#000000" stroke-width="2" d="M 356.9,30 357.1,30 357.1,30.2 356.9,30.2 356.9,30" />
<path stroke="#000000" stroke-width="2" d="M 387.1,70" />
<path stroke="#000000" stroke-width="2" d="M 387.1,70" />
<path stroke="#000000" stroke-width="2" d="M 387.1,70 388.3,70 389.3,70.2 390.1,70.4 390.8,70.7 391.4,71 391.8,71.5 392.1,71.9 392.3,72.5 392.4,73.1 392.4,73.8 392.3,74.4 392,75.2 391.7,76 391.3,76.8 390.8,77.6 390.2,78.4 389.6,79.3 388.8,80.2 388,81.1 387.1,82" />
<path stroke="#000000" stroke-width="2" d="M 422.4,70" />
<path stroke="#000000" stroke-width="2" d="M 422.4,30 442.4,30" />
<path stroke="#000000" stroke-width="2" d="M 442.4,30 443.8,30.1 445.1,30.6 446.2,31.2 447.2,32.1 448,33.1 448.7,34.3 449.2,35.6 449.6,37 449.8,38.5 449.9,40 449.8,41.5 449.6,43 449.2,44.4 448.7,45.7 448,46.9 447.2,47.9 446.2,48.8 445.1,49.4 443.8,49.9 442.4,50" />
<path stroke="#000000" stroke-width="2" d="M 479.9,70" />
<path stroke="#000000" stroke-width="2" d="M 479.9,30 479.9,70 479.9,62 479.9,60.3 480.1,58.5 480.4,56.8 480.8,55.1 481.4,53.5 482.2,51.9 483,50.4 484,49 485.2,47.6 486.4,46.4 487.7,45.3 489.2,44.3" />
<path stroke="#000000" stroke-width="2" d="M 495.8,70" />
<path stroke="#000000" stroke-width="2" d="M 495.8,50" />
<path stroke="#000000" stroke-width="2" d="M 495.8,50 496,50 496.4,50 497,50 497.9,50.1 498.9,50.2 500.1,50.3 501.5,50.4 502.9,50.6 504.3,50.9 505.8,51.2 507.3,51.7 508.8,52.2 510.2,52.7 511.5,53.4 512.7,54.2 513.7,55.1 514.6,56.1 515.3,57.3 515.7,58.6 515.8,60" />
<path stroke="#000000" stroke-width="2" d="M 515.8,60 517.7,62.1 519.1,64.1 519.8,65.7 520.1,67.2 520,68.4 519.6,69.5 518.9,70.2 518,70.8 516.9,71.1 515.8,71.2 514.7,71.1 513.7,70.8 512.7,70.2 512,69.5 511.6,68.4 511.5,67.2 511.8,65.7 512.6,64 513.9,62.1 515.8,60" />
<path stroke="#000000" stroke-width="2" d="M 515.8,60 515.8,59.9 515.8,59.7 515.9,59.4 516,59 516.1,58.4 516.4,57.8 516.7,57.2 517.1,56.5 517.6,55.7 518.3,55 519.1,54.3 520.1,53.5 521.3,52.8 522.7,52.2 524.3,51.6 526.1,51 528.1,50.6 530.4,50.3 533,50.1 535.8,50 535.8,49.3 535.9,48.6 536,47.9 536.2,47.2 536.4,46.6 536.7,46 537.1,45.4 537.5,44.8 537.9,44.2 538.4,43.8 538.9,43.3 539.5,42.9 540.1,42.6 540.7,42.3 541.4,42 542.1,41.8 542.8,41.7 543.5,41.7 544.2,41.7 544.9,41.7 545.5,41.8 546.2,42 546.9,42.3 547.5,42.6 548.1,42.9 548.7,43.3 549.2,43.8 549.7,44.2 550.2,44.8 550.6,45.4 550.9,46 551.2,46.6 551.4,47.2 551.6,47.9 551.7,48.6 551.8,49.3" />
<path stroke="#000000" stroke-width="2" d="M 551.8,45.3" />
<path stroke="#000000" stroke-width="2" d="M 545.8,45.3 561.8,45.3" />
<path stroke="#000000" stroke-width="2" d="M 591.8,70" />
<path stroke="#000000" stroke-width="2" d="M 591.8,30" />
<path stroke="#000000" stroke-width="2" d="M 591.8,30 594.7,30.3 597.2,31.1 599.5,32.4 601.4,34.2 603.1,36.2 604.4,38.6 605.5,41.3 606.2,44.1 606.7,47 606.8,50 606.7,53 606.2,55.9 605.5,58.7 604.4,61.4 603.1,63.8 601.4,65.8 599.5,67.6 597.2,68.9 594.7,69.7 591.8,70 593,68.8 594.4,67.6 595.8,66.6 597.3,65.8 598.9,65 600.5,64.4 602.2,64 603.9,63.7 605.7,63.5 607.4,63.5 609.2,63.7 610.9,64 612.6,64.4 614.2,65 615.8,65.8" />
<path stroke="#000000" stroke-width="2" d="M 622.5,70" />
<path stroke="#000000" stroke-width="2" d="M 622.5,30 630.1,48.5 650.1,48.5 630.3,68.3 650.3,68.3" />
<path stroke="#000000" stroke-width="2" d="M 680.3,70" />
<path stroke="#000000" stroke-width="2" d="M 680.3,70" />
<path stroke="#000000" stroke-width="2" d="M 680.3,70 681.4,70 682.4,70.2 683.3,70.4 684,70.7 684.5,71 685,71.5 685.3,71.9 685.5,72.5 685.6,73.1 685.6,73.8 685.4,74.4 685.2,75.2 684.9,76 684.5,76.8 684,77.6 683.4,78.4 682.7,79.3 682,80.2 681.2,81.1 680.3,82" />
<path stroke="#000000" stroke-width="2" d="M 715.6,70" />
</svg>