<svg xmlns="http://www.w3.org/2000/svg" width="549.7624332051919" height="122.0" style="fill:none; stroke-linecap:round;">
    <rect width="100%" height="100%" fill="#FFFFFF" />
<path stroke="#000000" stroke-width="2" d="M 550,75" />
<path stroke="#000000" stroke-width="2" d="M 20,35" />
<path stroke="#000000" stroke-width="2" d="M 20,35 22,34.9 23.6,34.6 24.9,34.1 25.8,33.6 26.3,32.9 26.6,32.2 26.7,31.4 26.5,30.7 26.1,30 25.6,29.4 25,28.9 24.3,28.5 23.6,28.3 22.8,28.4 22.1,28.7 21.4,29.2 20.9,30.1 20.4,31.4 20.1,33 20,35 20,50" />
<path stroke="#000000" stroke-width="2" d="M 20,50 19.9,52 19.6,53.6 19.1,54.9 18.6,55.8 17.9,56.3 17.2,56.6 16.4,56.7 15.7,56.5 15,56.1 14.4,55.6 13.9,55 13.5,54.3 13.3,53.6 13.4,52.8 13.7,52.1 14.2,51.4 15.1,50.9 16.4,50.4 18,50.1 20,50 30,50" />
<path stroke="#000000" stroke-width="2" d="M 36.7,70" />
<path stroke="#000000" stroke-width="2" d="M 36.7,70 36.7,68.6 36.8,67.2 37,65.8 37.4,64.5 37.9,63.2 38.5,61.9 39.2,60.7 40,59.6 40.9,58.5 41.8,57.5 42.9,56.6 44.1,55.8 45.3,55.1 46.5,54.5 47.8,54 49.2,53.7 50.6,53.4 52,53.3 53.3,53.3 54.7,53.4 56.1,53.7 57.5,54 58.8,54.5 60,55.1 61.2,55.8 62.4,56.6 63.5,57.5 64.4,58.5 65.3,59.6 66.1,60.7 66.8,61.9 67.4,63.2 67.9,64.5 68.3,65.8 68.5,67.2 68.6,68.6" />
<path stroke="#000000" stroke-width="2" d="M 98.6,70" />
<path stroke="#000000" stroke-width="2" d="M 118.6,30 118.6,70 98.6,70" />
<path stroke="#000000" stroke-width="2" d="M 125.3,70" />
<path stroke="#000000" stroke-width="2" d="M 125.3,70 133,51.5 140.6,70 140.6,90 140.6,84 140.6,83.1 140.7,82.3 140.8,81.4 141.1,80.6 141.4,79.7 141.7,78.9 142.2,78.2 142.7,77.5 143.2,76.8 143.8,76.2 144.5,75.6 145.2,75.1 146,74.7 146.8,74.3 147.6,74 148.4,73.8 149.3,73.6 150.2,73.6" />
<path stroke="#000000" stroke-width="2" d="M 180.2,70" />
<path stroke="#000000" stroke-width="2" d="M 200.2,30 184.9,67 189.4,55.9 190.1,54.3 190.9,52.7 191.9,51.2 192.9,49.9 194.1,48.6 195.4,47.4 196.8,46.3 198.2,45.4 199.8,44.6 201.4,43.9 203.1,43.4 204.8,43" />
<path stroke="#000000" stroke-width="2" d="M 211.4,70" />
<path stroke="#000000" stroke-width="2" d="M 221.4,70 222.3,70 223.2,69.9 224,69.8 224.9,69.5 225.7,69.2 226.5,68.9 227.2,68.4 228,67.9 228.6,67.4 229.2,66.8 229.8,66.1 230.3,65.4 230.7,64.6 231.1,63.8 231.4,63 231.6,62.2 231.8,61.3 231.9,60.4 231.9,59.6 231.8,58.7 231.6,57.8 231.4,57 231.1,56.2 230.7,55.4 230.3,54.6 229.8,53.9 229.2,53.3 228.6,52.6 228,52.1 227.2,51.6 226.5,51.1 225.7,50.8 224.9,50.5 224,50.2 223.2,50.1 222.3,50 221.4,50 220.6,50.1 219.7,50.2 218.9,50.5 218,50.8 217.3,51.1 216.5,51.6 215.8,52.1 215.1,52.6 214.5,53.3 213.9,53.9 213.4,54.6 213,55.4 212.6,56.2 212.3,57 212.1,57.8 212,58.7 211.9,59.6 211.9,60.4 212,61.3 212.1,62.2 212.3,63 212.6,63.8 213,64.6 213.4,65.4 213.9,66.1 214.5,66.8 215.1,67.4 215.8,67.9 216.5,68.4 217.3,68.9 218,69.2 218.9,69.5 219.7,69.8 220.6,69.9 221.4,70" />
<path stroke="#000000" stroke-width="2" d="M 261.9,70" />
<path stroke="#000000" stroke-width="2" d="M 261.9,50 261.9,49.3 261.9,48.6 262,47.9 262.2,47.2 262.5,46.6 262.8,46 263.1,45.4 263.5,44.8 264,44.2 264.5,43.8 265,43.3 265.6,42.9 266.2,42.6 266.8,42.3 267.5,42 268.1,41.8 268.8,41.7 269.5,41.7 270.2,41.7 270.9,41.7 271.6,41.8 272.3,42 272.9,42.3 273.5,42.6 274.2,42.9 274.7,43.3 275.3,43.8 275.8,44.2 276.2,44.8 276.6,45.4 277,46 277.2,46.6 277.5,47.2 277.7,47.9 277.8,48.6 277.8,49.3 277.8,69.3 283.5,63.6" />
<path stroke="#000000" stroke-width="2" d="M 290.2,70" />
<path stroke="#000000" stroke-width="2" d="M 290.2,20 290.2,40 300.2,40 307.8,21.5 315.5,40 307.8,58.5 307.8,59.2 307.9,59.9 308,60.6 308.2,61.2 308.4,61.9 308.7,62.5 309.1,63.1 309.5,63.7 309.9,64.2 310.4,64.7 310.9,65.2 311.5,65.6 312.1,65.9 312.8,66.2 313.4,66.5 314.1,66.6 314.8,66.8 315.5,66.8 316.2,66.8 316.9,66.8 317.5,66.6 318.2,66.5 318.9,66.2 319.5,65.9 320.1,65.6 320.7,65.2 321.2,64.7 321.7,64.2 322.2,63.7 322.6,63.1 322.9,62.5 323.2,61.9 323.4,61.2 323.6,60.6 323.7,59.9 323.8,59.2" />
<path stroke="#000000" stroke-width="2" d="M 330.5,70" />
<path stroke="#000000" stroke-width="2" d="M 330.5,30 330.7,30 330.7,30.2 330.5,30.2 330.5,30" />
<path stroke="#000000" stroke-width="2" d="M 360.7,70" />
<path stroke="#000000" stroke-width="2" d="M 360.7,30 380.7,30" />
<path stroke="#000000" stroke-width="2" d="M 380.7,30 382.1,30.1 383.4,30.6 384.5,31.2 385.5,32.1 386.3,33.1 387,34.3 387.5,35.6 387.9,37 388.1,38.5 388.2,40 388.1,41.5 387.9,43 387.5,44.4 387,45.7 386.3,46.9 385.5,47.9 384.5,48.8 383.4,49.4 382.1,49.9 380.7,50" />
<path stroke="#000000" stroke-width="2" d="M 418.2,70" />
<path stroke="#000000" stroke-width="2" d="M 418.2,50 418.2,49.3 418.2,48.6 418.4,47.9 418.5,47.2 418.8,46.6 419.1,46 419.4,45.4 419.8,44.8 420.3,44.2 420.8,43.8 421.3,43.3 421.9,42.9 422.5,42.6 423.1,42.3 423.8,42 424.4,41.8 425.1,41.7 425.8,41.7 426.5,41.7 427.2,41.7 427.9,41.8 428.6,42 429.2,42.3 429.9,42.6 430.5,42.9 431,43.3 431.6,43.8 432.1,44.2 432.5,44.8 432.9,45.4 433.3,46 433.6,46.6 433.8,47.2 434,47.9 434.1,48.6 434.2,49.3 434.2,50 434.2,50.7 434.3,51.4 434.5,52.1 434.8,52.7 435.1,53.3 435.4,53.9 435.8,54.5 436.3,55.1 436.7,55.5 437.3,56 437.9,56.4 438.5,56.7 439.1,57 439.7,57.3 440.4,57.5 441.1,57.6 441.8,57.6 442.5,57.6 443.2,57.6 443.9,57.5 444.6,57.3 445.2,57 445.8,56.7 446.5,56.4 447,56 447.6,55.5 448.1,55.1 448.5,54.5 448.9,53.9 449.3,53.3 449.5,52.7 449.8,52.1 450,51.4 450.1,50.7 450.1,50" />
<path stroke="#000000" stroke-width="2" d="M 456.8,70" />
<path stroke="#000000" stroke-width="2" d="M 456.8,30 456.8,50 456.8,44 456.8,43.1 456.9,42.3 457,41.4 457.3,40.6 457.6,39.7 457.9,38.9 458.4,38.2 458.9,37.5 459.4,36.8 460,36.2 460.7,35.6 461.4,35.1 462.2,34.7 463,34.3 463.8,34 464.6,33.8 465.5,33.6 466.4,33.6 466.4,34.3 466.4,35 466.5,35.7 466.7,36.3 467,37 467.3,37.6 467.6,38.2 468,38.8 468.5,39.3 469,39.8 469.5,40.3 470.1,40.7 470.7,41 471.3,41.3 472,41.6 472.6,41.7 473.3,41.9 474,41.9 474.7,41.9 475.4,41.9 476.1,41.7 476.8,41.6 477.4,41.3 478.1,41 478.7,40.7 479.2,40.3 479.8,39.8 480.3,39.3 480.7,38.8 481.1,38.2 481.5,37.6 481.8,37 482,36.3 482.2,35.7 482.3,35 482.4,34.3" />
<path stroke="#000000" stroke-width="2" d="M 489,70" />
<path stroke="#000000" stroke-width="2" d="M 489,30 489.2,30 489.2,30.2 489,30.2 489,30" />
<path stroke="#000000" stroke-width="2" d="M 519.2,70" />
<path stroke="#000000" stroke-width="2" d="M 519.2,62 520,62 520,62.8 519.2,62.8 519.2,62" />
<path stroke="#000000" stroke-width="2" d="M 519.2,78" />
<path stroke="#000000" stroke-width="2" d="M 519.2,78 521.5,78.1 523.4,78.3 525.1,78.8 526.5,79.3 527.7,80.1 528.5,80.9 529.2,81.9 529.6,83 529.8,84.2 529.7,85.5 529.5,86.9 529,88.4 528.4,89.9 527.5,91.5 526.5,93.2 525.4,94.9 524,96.6 522.6,98.4 521,100.2 519.2,102" />
<path stroke="#000000" stroke-width="2" d="M 559.8,70" />
</svg>