<svg xmlns="http://www.w3.org/2000/svg" width="835.3286242426109" height="122.0" style="fill:none; stroke-linecap:round;">
    <rect width="100%" height="100%" fill="#FFFFFF" />
<path stroke="#000000" stroke-width="2" d="M 550,75" />
<path stroke="#000000" stroke-width="2" d="M 20,70 20,68.6 20.1,67.2 20.4,65.8 20.7,64.5 21.2,63.2 21.8,61.9 22.5,60.7 23.3,59.6 24.2,58.5 25.2,57.5 26.2,56.6 27.4,55.8 28.6,55.1 29.9,54.5 31.2,54 32.5,53.7 33.9,53.4 35.3,53.3 36.7,53.3 38.1,53.4 39.4,53.7 40.8,54 42.1,54.5 43.4,55.1 44.6,55.8 45.7,56.6 46.8,57.5 47.8,58.5 48.7,59.6 49.5,60.7 50.2,61.9 50.8,63.2 51.2,64.5 51.6,65.8 51.8,67.2 52,68.6" />
<path stroke="#000000" stroke-width="2" d="M 58.6,70" />
<path stroke="#000000" stroke-width="2" d="M 74.6,30" />
<path stroke="#000000" stroke-width="2" d="M 74.6,30 74.4,34.1 73.8,37.3 72.9,39.8 71.8,41.5 70.4,42.7 69,43.2 67.5,43.3 66,43 64.6,42.3 63.4,41.2 62.4,40 61.7,38.6 61.3,37.2 61.4,35.7 62,34.2 63.1,32.9 64.9,31.7 67.3,30.8 70.6,30.2 74.6,30 94.6,30" />
<path stroke="#000000" stroke-width="2" d="M 124.6,70" />
<path stroke="#000000" stroke-width="2" d="M 124.6,30 124.6,50 134.6,50 154.6,50 147,68.5 149.3,62.9 149.6,62.1 150,61.4 150.5,60.6 151,59.9 151.6,59.3 152.2,58.7 152.9,58.2 153.7,57.7 154.4,57.3 155.3,57 156.1,56.7 156.9,56.5" />
<path stroke="#000000" stroke-width="2" d="M 163.6,70" />
<path stroke="#000000" stroke-width="2" d="M 163.6,25" />
<path stroke="#000000" stroke-width="2" d="M 163.6,25 165.6,24.9 167.3,24.6 168.5,24.1 169.4,23.6 169.9,22.9 170.2,22.2 170.3,21.4 170.1,20.7 169.7,20 169.2,19.4 168.6,18.9 167.9,18.5 167.2,18.3 166.4,18.4 165.7,18.7 165,19.2 164.5,20.1 164,21.4 163.7,23 163.6,25 163.6,40 156,58.5" />
<path stroke="#000000" stroke-width="2" d="M 176.9,70" />
<path stroke="#000000" stroke-width="2" d="M 176.9,30" />
<path stroke="#000000" stroke-width="2" d="M 176.9,30 179.8,30.3 182.3,31.1 184.6,32.4 186.5,34.2 188.2,36.2 189.5,38.6 190.6,41.3 191.3,44.1 191.8,47 191.9,50 191.8,53 191.3,55.9 190.6,58.7 189.5,61.4 188.2,63.8 186.5,65.8 184.6,67.6 182.3,68.9 179.8,69.7 176.9,70" />
<path stroke="#000000" stroke-width="2" d="M 221.9,70" />
<path stroke="#000000" stroke-width="2" d="M 221.9,30 221.9,50 231.9,50 251.9,50" />
<path stroke="#000000" stroke-width="2" d="M 281.9,70" />
<path stroke="#000000" stroke-width="2" d="M 301.9,30 301.9,70 281.9,70" />
<path stroke="#000000" stroke-width="2" d="M 308.6,70" />
<path stroke="#000000" stroke-width="2" d="M 308.6,50 308.6,70 308.6,64 308.6,63.1 308.7,62.3 308.8,61.4 309,60.6 309.3,59.7 309.7,58.9 310.2,58.2 310.7,57.5 311.2,56.8 311.8,56.2 312.5,55.6 313.2,55.1 314,54.7 314.8,54.3 315.6,54 316.4,53.8 317.3,53.6 318.1,53.6" />
<path stroke="#000000" stroke-width="2" d="M 348.1,70" />
<path stroke="#000000" stroke-width="2" d="M 348.1,70 363.5,33 378.8,70" />
<path stroke="#000000" stroke-width="2" d="M 378.8,70 378.9,70 379.3,70 380,70 380.8,70.1 381.9,70.2 383.1,70.3 384.4,70.4 385.8,70.6 387.3,70.9 388.8,71.2 390.3,71.7 391.7,72.2 393.1,72.7 394.4,73.4 395.6,74.2 396.7,75.1 397.5,76.1 398.2,77.3 398.6,78.6 398.8,80" />
<path stroke="#000000" stroke-width="2" d="M 398.8,80 400.7,82.1 402,84.1 402.8,85.7 403.1,87.2 403,88.4 402.5,89.5 401.8,90.2 400.9,90.8 399.9,91.1 398.8,91.2 397.6,91.1 396.6,90.8 395.7,90.2 395,89.5 394.5,88.4 394.4,87.2 394.7,85.7 395.5,84.1 396.8,82.1 398.8,80" />
<path stroke="#000000" stroke-width="2" d="M 398.8,80 398.8,79.9 398.8,79.7 398.8,79.4 398.9,79 399.1,78.4 399.3,77.8 399.6,77.2 400,76.5 400.6,75.7 401.3,75 402.1,74.3 403.1,73.5 404.3,72.8 405.6,72.2 407.2,71.6 409,71 411,70.6 413.3,70.3 415.9,70.1 418.8,70 438.8,70" />
<path stroke="#000000" stroke-width="2" d="M 468.8,70" />
<path stroke="#000000" stroke-width="2" d="M 468.8,70 468.8,68.6 468.9,67.2 469.1,65.8 469.5,64.5 470,63.2 470.6,61.9 471.3,60.7 472.1,59.6 473,58.5 473.9,57.5 475,56.6 476.2,55.8 477.4,55.1 478.6,54.5 479.9,54 481.3,53.7 482.7,53.4 484,53.3 485.4,53.3 486.8,53.4 488.2,53.7 489.6,54 490.9,54.5 492.1,55.1 493.3,55.8 494.5,56.6 495.6,57.5 496.5,58.5 497.4,59.6 498.2,60.7 498.9,61.9 499.5,63.2 500,64.5 500.4,65.8 500.6,67.2 500.7,68.6" />
<path stroke="#000000" stroke-width="2" d="M 507.4,70" />
<path stroke="#000000" stroke-width="2" d="M 507.4,20 507.4,40 507.4,34 507.4,33.1 507.5,32.3 507.6,31.4 507.9,30.6 508.2,29.7 508.5,28.9 509,28.2 509.5,27.5 510,26.8 510.6,26.2 511.3,25.6 512,25.1 512.8,24.7 513.6,24.3 514.4,24 515.2,23.8 516.1,23.6 517,23.6" />
<path stroke="#000000" stroke-width="2" d="M 523.6,70" />
<path stroke="#000000" stroke-width="2" d="M 523.6,70 538.9,33 554.2,70" />
<path stroke="#000000" stroke-width="2" d="M 584.2,70" />
<path stroke="#000000" stroke-width="2" d="M 584.2,70" />
<path stroke="#000000" stroke-width="2" d="M 584.2,70 585.4,70 586.3,70.2 587.2,70.4 587.9,70.7 588.5,71 588.9,71.5 589.2,71.9 589.4,72.5 589.5,73.1 589.5,73.8 589.4,74.4 589.1,75.2 588.8,76 588.4,76.8 587.9,77.6 587.3,78.4 586.6,79.3 585.9,80.2 585.1,81.1 584.2,82" />
<path stroke="#000000" stroke-width="2" d="M 619.5,70" />
<path stroke="#000000" stroke-width="2" d="M 635.5,30 615.7,49.8 635.5,69.6" />
<path stroke="#000000" stroke-width="2" d="M 642.2,70" />
<path stroke="#000000" stroke-width="2" d="M 642.2,20" />
<path stroke="#000000" stroke-width="2" d="M 642.2,20 642.3,20 642.7,20 643.4,20 644.3,20.1 645.3,20.2 646.5,20.3 647.8,20.4 649.2,20.6 650.7,20.9 652.2,21.2 653.7,21.7 655.1,22.2 656.5,22.7 657.9,23.4 659,24.2 660.1,25.1 661,26.1 661.6,27.3 662,28.6 662.2,30" />
<path stroke="#000000" stroke-width="2" d="M 662.2,30 664.1,32.1 665.4,34.1 666.2,35.7 666.5,37.2 666.4,38.4 666,39.4 665.2,40.2 664.3,40.8 663.3,41.1 662.2,41.2 661.1,41.1 660,40.8 659.1,40.2 658.4,39.4 658,38.4 657.9,37.2 658.2,35.7 658.9,34 660.2,32.1 662.2,30" />
<path stroke="#000000" stroke-width="2" d="M 662.2,30 662.2,29.9 662.2,29.7 662.2,29.4 662.3,29 662.5,28.4 662.7,27.8 663,27.2 663.5,26.5 664,25.7 664.7,25 665.5,24.3 666.5,23.5 667.7,22.8 669,22.2 670.6,21.6 672.4,21 674.5,20.6 676.8,20.3 679.3,20.1 682.2,20 689.8,38.5 697.5,20" />
<path stroke="#000000" stroke-width="2" d="M 697.5,30" />
<path stroke="#000000" stroke-width="2" d="M 681.5,30 698.5,30" />
<path stroke="#000000" stroke-width="2" d="M 728.5,70" />
<path stroke="#000000" stroke-width="2" d="M 744.5,30 724.7,49.8 744.5,69.6" />
<path stroke="#000000" stroke-width="2" d="M 751.1,70" />
<path stroke="#000000" stroke-width="2" d="M 751.1,20 758.8,38.5 758.8,58.5 758.8,59.2 758.9,59.9 759,60.6 759.2,61.2 759.4,61.9 759.7,62.5 760,63.1 760.4,63.7 760.9,64.2 761.4,64.7 761.9,65.2 762.5,65.6 763.1,65.9 763.7,66.2 764.4,66.5 765.1,66.6 765.7,66.8 766.4,66.8 767.1,66.8 767.8,66.8 768.5,66.6 769.2,66.5 769.9,66.2 770.5,65.9 771.1,65.6 771.7,65.2 772.2,64.7 772.7,64.2 773.1,63.7 773.5,63.1 773.9,62.5 774.2,61.9 774.4,61.2 774.6,60.6 774.7,59.9 774.8,59.2" />
<path stroke="#000000" stroke-width="2" d="M 804.8,70" />
<path stroke="#000000" stroke-width="2" d="M 804.8,62 805.6,62 805.6,62.8 804.8,62.8 804.8,62" />
<path stroke="#000000" stroke-width="2" d="M 804.8,78" />
<path stroke="#000000" stroke-width="2" d="M 804.8,78 807,78.1 809,78.3 810.7,78.8 812.1,79.3 813.2,80.1 814.1,80.9 814.7,81.9 815.2,83 815.3,84.2 815.3,85.5 815,86.9 814.6,88.4 813.9,89.9 813.1,91.5 812.1,93.2 810.9,94.9 809.6,96.6 808.1,98.4 806.5,100.2 804.8,102" />
<path stroke="#000000" stroke-width="2" d="M 845.3,70" />
</svg>