<svg xmlns="http://www.w3.org/2000/svg" width="558.5385509949413" height="130.0" style="fill:none; stroke-linecap:round;">
    <rect width="100%" height="100%" fill="#FFFFFF" />
<path stroke="#000000" stroke-width="2" d="M 550,75" />
<path stroke="#000000" stroke-width="2" d="M 20,30 35.3,67" />
<path stroke="#000000" stroke-width="2" d="M 42,70" />
<path stroke="#000000" stroke-width="2" d="M 42,20 62,20" />
<path stroke="#000000" stroke-width="2" d="M 68.6,70" />
<path stroke="#000000" stroke-width="2" d="M 68.6,30 68.8,30 68.8,30.2 68.6,30.2 68.6,30" />
<path stroke="#000000" stroke-width="2" d="M 98.8,70" />
<path stroke="#000000" stroke-width="2" d="M 114.8,30" />
<path stroke="#000000" stroke-width="2" d="M 114.8,30 114.6,34.1 114,37.3 113.1,39.8 112,41.5 110.6,42.7 109.2,43.2 107.7,43.3 106.2,43 104.8,42.3 103.6,41.2 102.6,40 101.9,38.6 101.5,37.2 101.6,35.7 102.2,34.2 103.3,32.9 105.1,31.7 107.6,30.8 110.8,30.2 114.8,30 134.8,30" />
<path stroke="#000000" stroke-width="2" d="M 141.5,70" />
<path stroke="#000000" stroke-width="2" d="M 141.5,20 141.5,40 141.5,34 141.5,33.1 141.6,32.3 141.7,31.4 142,30.6 142.3,29.7 142.6,28.9 143.1,28.2 143.6,27.5 144.1,26.8 144.7,26.2 145.4,25.6 146.1,25.1 146.9,24.7 147.7,24.3 148.5,24 149.3,23.8 150.2,23.6 151.1,23.6" />
<path stroke="#000000" stroke-width="2" d="M 151.1,23.6 153.1,23.5 154.7,23.2 155.9,22.7 156.8,22.1 157.4,21.5 157.7,20.7 157.7,20 157.5,19.3 157.2,18.6 156.7,17.9 156.1,17.4 155.4,17.1 154.6,16.9 153.9,17 153.2,17.2 152.5,17.8 151.9,18.7 151.5,19.9 151.2,21.5 151.1,23.6 151.1,38.6" />
<path stroke="#000000" stroke-width="2" d="M 164.4,70" />
<path stroke="#000000" stroke-width="2" d="M 164.4,20 184.4,20 204.4,20 184.6,39.8 204.6,39.8" />
<path stroke="#000000" stroke-width="2" d="M 234.6,70" />
<path stroke="#000000" stroke-width="2" d="M 234.6,35" />
<path stroke="#000000" stroke-width="2" d="M 234.6,35 236.6,34.9 238.2,34.6 239.5,34.1 240.3,33.6 240.9,32.9 241.2,32.2 241.2,31.4 241.1,30.7 240.7,30 240.2,29.4 239.6,28.9 238.9,28.5 238.2,28.3 237.4,28.4 236.7,28.7 236,29.2 235.4,30.1 235,31.4 234.7,33 234.6,35 234.6,50 226.9,68.5 229.2,62.9 229.6,62.1 230,61.4 230.4,60.6 231,59.9 231.6,59.3 232.2,58.7 232.9,58.2 233.6,57.7 234.4,57.3 235.2,57 236,56.7 236.9,56.5" />
<path stroke="#000000" stroke-width="2" d="M 247.9,70" />
<path stroke="#000000" stroke-width="2" d="M 247.9,20 247.9,40 257.9,40 265.6,58.5 273.2,40" />
<path stroke="#000000" stroke-width="2" d="M 303.2,70" />
<path stroke="#000000" stroke-width="2" d="M 303.2,30 313.2,30 313.2,70" />
<path stroke="#000000" stroke-width="2" d="M 319.9,70" />
<path stroke="#000000" stroke-width="2" d="M 319.9,50 319.9,70 319.9,64 319.9,63.1 320,62.3 320.1,61.4 320.3,60.6 320.6,59.7 321,58.9 321.4,58.2 321.9,57.5 322.5,56.8 323.1,56.2 323.8,55.6 324.5,55.1 325.3,54.7 326,54.3 326.9,54 327.7,53.8 328.6,53.6 329.4,53.6" />
<path stroke="#000000" stroke-width="2" d="M 359.4,70" />
<path stroke="#000000" stroke-width="2" d="M 375.4,30 355.6,49.8 375.4,69.6" />
<path stroke="#000000" stroke-width="2" d="M 382.1,70" />
<path stroke="#000000" stroke-width="2" d="M 382.1,30 382.3,30 382.3,30.2 382.1,30.2 382.1,30" />
<path stroke="#000000" stroke-width="2" d="M 412.3,70" />
<path stroke="#000000" stroke-width="2" d="M 412.3,70 427.6,33 442.9,70 442.9,90 452.9,90" />
<path stroke="#000000" stroke-width="2" d="M 452.9,90 454.3,90.1 455.6,90.6 456.7,91.2 457.7,92.1 458.5,93.1 459.2,94.3 459.7,95.6 460.1,97 460.3,98.5 460.4,100 460.3,101.5 460.1,103 459.7,104.4 459.2,105.7 458.5,106.9 457.7,107.9 456.7,108.8 455.6,109.4 454.3,109.9 452.9,110" />
<path stroke="#000000" stroke-width="2" d="M 467.1,70" />
<path stroke="#000000" stroke-width="2" d="M 467.1,30 467.1,30.7 467.1,31.4 467.3,32.1 467.4,32.8 467.7,33.4 468,34 468.3,34.6 468.7,35.2 469.2,35.8 469.7,36.2 470.2,36.7 470.8,37.1 471.4,37.4 472,37.7 472.7,38 473.3,38.2 474,38.3 474.7,38.3 475.4,38.3 476.1,38.3 476.8,38.2 477.5,38 478.1,37.7 478.8,37.4 479.4,37.1 479.9,36.7 480.5,36.2 481,35.8 481.4,35.2 481.8,34.6 482.2,34 482.5,33.4 482.7,32.8 482.9,32.1 483,31.4 483.1,30.7 503.1,30.7 483.3,50.5 503.3,50.5" />
<path stroke="#000000" stroke-width="2" d="M 533.3,70" />
<path stroke="#000000" stroke-width="2" d="M 533.3,70" />
<path stroke="#000000" stroke-width="2" d="M 533.3,70 534.4,70 535.4,70.2 536.2,70.4 536.9,70.7 537.5,71 537.9,71.5 538.2,71.9 538.5,72.5 538.5,73.1 538.5,73.8 538.4,74.4 538.2,75.2 537.8,76 537.4,76.8 536.9,77.6 536.3,78.4 535.7,79.3 534.9,80.2 534.1,81.1 533.3,82" />
<path stroke="#000000" stroke-width="2" d="M 568.5,70" />
</svg>