<svg xmlns="http://www.w3.org/2000/svg" width="475.09274476404426" height="102.0" style="fill:none; stroke-linecap:round;">
    <rect width="100%" height="100%" fill="#FFFFFF" />
<path stroke="#000000" stroke-width="2" d="M 550,75" />
<path stroke="#000000" stroke-width="2" d="M 40,70 41.7,70 43.5,69.8 45.2,69.5 46.9,69.1 48.5,68.5 50.1,67.8 51.6,66.9 53,65.9 54.4,64.8 55.6,63.5 56.7,62.2 57.7,60.8 58.6,59.3 59.3,57.7 59.9,56 60.4,54.3 60.7,52.6 60.9,50.9 60.9,49.1 60.7,47.4 60.4,45.7 59.9,44 59.3,42.4 58.6,40.8 57.7,39.3 56.7,37.8 55.6,36.5 54.4,35.3 53,34.2 51.6,33.2 50.1,32.3 48.5,31.5 46.9,30.9 45.2,30.5 43.5,30.2 41.7,30 40,30 38.3,30.2 36.5,30.5 34.9,30.9 33.2,31.5 31.6,32.3 30.1,33.2 28.7,34.2 27.4,35.3 26.1,36.5 25,37.8 24,39.3 23.1,40.8 22.4,42.4 21.8,44 21.3,45.7 21,47.4 20.9,49.1 20.9,50.9 21,52.6 21.3,54.3 21.8,56 22.4,57.7 23.1,59.3 24,60.8 25,62.2 26.1,63.5 27.4,64.8 28.7,65.9 30.1,66.9 31.6,67.8 33.2,68.5 34.9,69.1 36.5,69.5 38.3,69.8 40,70" />
<path stroke="#000000" stroke-width="2" d="M 67.5,70" />
<path stroke="#000000" stroke-width="2" d="M 67.5,40 75.2,21.5 82.8,40 87.8,40 87.8,60" />
<path stroke="#000000" stroke-width="2" d="M 94.5,70" />
<path stroke="#000000" stroke-width="2" d="M 94.5,50 94.7,50 94.7,50.2 94.5,50.2 94.5,50" />
<path stroke="#000000" stroke-width="2" d="M 124.7,70" />
<path stroke="#000000" stroke-width="2" d="M 124.7,30 124.7,70" />
<path stroke="#000000" stroke-width="2" d="M 131.4,70" />
<path stroke="#000000" stroke-width="2" d="M 131.4,30 131.6,30 131.6,30.2 131.4,30.2 131.4,30" />
<path stroke="#000000" stroke-width="2" d="M 161.6,70" />
<path stroke="#000000" stroke-width="2" d="M 161.6,50 169.2,31.5 176.9,50 169.2,68.5" />
<path stroke="#000000" stroke-width="2" d="M 206.9,70" />
<path stroke="#000000" stroke-width="2" d="M 222.9,30" />
<path stroke="#000000" stroke-width="2" d="M 222.9,30 222.7,34.1 222.1,37.3 221.1,39.8 220,41.5 218.6,42.7 217.2,43.2 215.7,43.3 214.2,43 212.8,42.3 211.6,41.2 210.6,40 209.9,38.6 209.6,37.2 209.6,35.7 210.2,34.2 211.3,32.9 213.1,31.7 215.6,30.8 218.8,30.2 222.9,30 242.9,30" />
<path stroke="#000000" stroke-width="2" d="M 249.5,70" />
<path stroke="#000000" stroke-width="2" d="M 249.5,40" />
<path stroke="#000000" stroke-width="2" d="M 249.5,40 253.6,39.8 256.8,39.2 259.3,38.3 261.1,37.1 262.2,35.8 262.8,34.3 262.8,32.8 262.5,31.4 261.8,30 260.8,28.8 259.6,27.7 258.2,27 256.7,26.7 255.2,26.8 253.8,27.3 252.4,28.5 251.3,30.2 250.3,32.7 249.7,35.9 249.5,40 249.5,70" />
<path stroke="#000000" stroke-width="2" d="M 292.8,70" />
<path stroke="#000000" stroke-width="2" d="M 292.8,30 292.8,70 304.2,58.7" />
<path stroke="#000000" stroke-width="2" d="M 310.8,70" />
<path stroke="#000000" stroke-width="2" d="M 330.8,70 332.6,70 334.3,69.8 336,69.5 337.7,69.1 339.3,68.5 340.9,67.8 342.4,66.9 343.9,65.9 345.2,64.8 346.4,63.5 347.6,62.2 348.6,60.8 349.4,59.3 350.2,57.7 350.8,56 351.2,54.3 351.5,52.6 351.7,50.9 351.7,49.1 351.5,47.4 351.2,45.7 350.8,44 350.2,42.4 349.4,40.8 348.6,39.3 347.6,37.8 346.4,36.5 345.2,35.3 343.9,34.2 342.4,33.2 340.9,32.3 339.3,31.5 337.7,30.9 336,30.5 334.3,30.2 332.6,30 330.8,30 329.1,30.2 327.4,30.5 325.7,30.9 324,31.5 322.5,32.3 321,33.2 319.5,34.2 318.2,35.3 317,36.5 315.8,37.8 314.8,39.3 314,40.8 313.2,42.4 312.6,44 312.2,45.7 311.9,47.4 311.7,49.1 311.7,50.9 311.9,52.6 312.2,54.3 312.6,56 313.2,57.7 314,59.3 314.8,60.8 315.8,62.2 317,63.5 318.2,64.8 319.5,65.9 321,66.9 322.5,67.8 324,68.5 325.7,69.1 327.4,69.5 329.1,69.8 330.8,70" />
<path stroke="#000000" stroke-width="2" d="M 381.7,70" />
<path stroke="#000000" stroke-width="2" d="M 381.7,30 381.7,38 381.7,39 381.8,40.1 382,41.1 382.2,42.1 382.6,43.1 383,44.1 383.5,45 384.1,45.8 384.8,46.6 385.6,47.4 386.4,48 387.2,48.6 388.1,49.2 389.1,49.6 390.1,50 391.1,50.2 392.1,50.4 393.1,50.5 394.2,50.5 395.2,50.4 396.3,50.2 397.3,50 398.3,49.6 399.2,49.2 400.1,48.6 401,48 401.8,47.4 402.5,46.6 403.2,45.8 403.8,45 404.3,44.1 404.8,43.1 405.1,42.1 405.4,41.1 405.6,40.1 405.7,39 405.7,29 405.7,69" />
<path stroke="#000000" stroke-width="2" d="M 412.3,70" />
<path stroke="#000000" stroke-width="2" d="M 412.3,50" />
<path stroke="#000000" stroke-width="2" d="M 412.3,50 413.7,50.1 415,50.6 416.1,51.2 417.1,52.1 417.9,53.1 418.6,54.3 419.1,55.6 419.5,57 419.7,58.5 419.8,60 419.7,61.5 419.5,63 419.1,64.4 418.6,65.7 417.9,66.9 417.1,67.9 416.1,68.8 415,69.4 413.7,69.9 412.3,70" />
<path stroke="#000000" stroke-width="2" d="M 449.8,70" />
<path stroke="#000000" stroke-width="2" d="M 449.8,70" />
<path stroke="#000000" stroke-width="2" d="M 449.8,70 450.9,70 451.9,70.2 452.8,70.4 453.5,70.7 454,71 454.5,71.5 454.8,71.9 455,72.5 455.1,73.1 455.1,73.8 454.9,74.4 454.7,75.2 454.4,76 454,76.8 453.5,77.6 452.9,78.4 452.2,79.3 451.5,80.2 450.7,81.1 449.8,82" />
<path stroke="#000000" stroke-width="2" d="M 485.1,70" />
</svg>