<svg xmlns="http://www.w3.org/2000/svg" width="397.235391653341" height="90.2" style="fill:none; stroke-linecap:round;">
    <rect width="100%" height="100%" fill="#FFFFFF" />
<path stroke="#000000" stroke-width="2" d="M 550,75" />
<path stroke="#000000" stroke-width="2" d="M 40,30 40,70 20,70" />
<path stroke="#000000" stroke-width="2" d="M 46.7,70" />
<path stroke="#000000" stroke-width="2" d="M 46.7,50 46.9,50 46.9,50.2 46.7,50.2 46.7,50" />
<path stroke="#000000" stroke-width="2" d="M 76.9,70" />
<path stroke="#000000" stroke-width="2" d="M 81.9,30" />
<path stroke="#000000" stroke-width="2" d="M 81.9,30 80.4,30.1 79.2,30.6 78,31.2 77.1,32.1 76.2,33.1 75.6,34.3 75,35.6 74.7,37 74.4,38.5 74.4,40 74.4,41.5 74.7,43 75,44.4 75.6,45.7 76.2,46.9 77.1,47.9 78,48.8 79.2,49.4 80.4,49.9 81.9,50 81.9,70 81.9,64 81.9,63.1 81.9,62.3 82.1,61.4 82.3,60.6 82.6,59.7 83,58.9 83.4,58.2 83.9,57.5 84.5,56.8 85.1,56.2 85.8,55.6 86.5,55.1 87.2,54.7 88,54.3 88.9,54 89.7,53.8 90.6,53.6 91.4,53.6" />
<path stroke="#000000" stroke-width="2" d="M 121.4,70" />
<path stroke="#000000" stroke-width="2" d="M 121.4,40 121.6,40 121.6,40.2 121.4,40.2 121.4,40" />
<path stroke="#000000" stroke-width="2" d="M 128.3,70" />
<path stroke="#000000" stroke-width="2" d="M 128.3,30 148.1,49.8 128.3,69.6" />
<path stroke="#000000" stroke-width="2" d="M 154.8,70" />
<path stroke="#000000" stroke-width="2" d="M 154.8,20 154.8,40 164.8,40 164.8,40.7 164.8,41.4 164.9,42.1 165.1,42.8 165.4,43.4 165.6,44 166,44.6 166.4,45.2 166.8,45.8 167.3,46.2 167.9,46.7 168.4,47.1 169.1,47.4 169.7,47.7 170.3,48 171,48.2 171.7,48.3 172.4,48.3 173.1,48.3 173.8,48.3 174.5,48.2 175.2,48 175.8,47.7 176.4,47.4 177,47.1 177.6,46.7 178.2,46.2 178.6,45.8 179.1,45.2 179.5,44.6 179.8,44 180.1,43.4 180.4,42.8 180.6,42.1 180.7,41.4 180.7,40.7" />
<path stroke="#000000" stroke-width="2" d="M 180.7,40.7 182.2,40.8 183.4,41.3 184.6,41.9 185.5,42.8 186.4,43.8 187,45 187.6,46.3 187.9,47.7 188.2,49.2 188.2,50.7 188.2,52.2 187.9,53.7 187.6,55.1 187,56.4 186.4,57.6 185.5,58.6 184.6,59.5 183.4,60.1 182.2,60.6 180.7,60.7" />
<path stroke="#000000" stroke-width="2" d="M 218.2,70" />
<path stroke="#000000" stroke-width="2" d="M 218.2,50 225.9,31.5 233.5,50 241.2,68.5 248.9,50" />
<path stroke="#000000" stroke-width="2" d="M 278.9,70" />
<path stroke="#000000" stroke-width="2" d="M 278.9,70 279.1,70 279.1,70.2 278.9,70.2 278.9,70" />
<path stroke="#000000" stroke-width="2" d="M 285.7,70" />
<path stroke="#000000" stroke-width="2" d="M 305.7,30 305.7,70 285.7,70" />
<path stroke="#000000" stroke-width="2" d="M 312.4,70" />
<path stroke="#000000" stroke-width="2" d="M 312.4,50 332.4,50" />
<path stroke="#000000" stroke-width="2" d="M 339.1,70" />
<path stroke="#000000" stroke-width="2" d="M 339.1,20 346.7,38.5 354.4,20" />
<path stroke="#000000" stroke-width="2" d="M 361,70" />
<path stroke="#000000" stroke-width="2" d="M 361,20 361,40 361,34 361,33.1 361.1,32.3 361.3,31.4 361.5,30.6 361.8,29.7 362.1,28.9 362.6,28.2 363.1,27.5 363.6,26.8 364.3,26.2 364.9,25.6 365.6,25.1 366.4,24.7 367.2,24.3 368,24 368.9,23.8 369.7,23.6 370.6,23.6" />
<path stroke="#000000" stroke-width="2" d="M 370.6,23.6 372.6,23.5 374.2,23.2 375.5,22.7 376.3,22.1 376.9,21.5 377.2,20.7 377.2,20 377.1,19.3 376.7,18.6 376.2,17.9 375.6,17.4 374.9,17.1 374.2,16.9 373.4,17 372.7,17.2 372,17.8 371.4,18.7 371,19.9 370.7,21.5 370.6,23.6 370.6,38.6" />
<path stroke="#000000" stroke-width="2" d="M 407.2,70" />
</svg>