<svg xmlns="http://www.w3.org/2000/svg" width="652.0152005873716" height="98.34134087157756" style="fill:none; stroke-linecap:round;">
    <rect width="100%" height="100%" fill="#FFFFFF" />
<path stroke="#000000" stroke-width="2" d="M 550,75" />
<path stroke="#000000" stroke-width="2" d="M 20,30 20,70" />
<path stroke="#000000" stroke-width="2" d="M 26.7,70" />
<path stroke="#000000" stroke-width="2" d="M 36.7,20 29,38.5" />
<path stroke="#000000" stroke-width="2" d="M 66.7,70" />
<path stroke="#000000" stroke-width="2" d="M 66.7,30" />
<path stroke="#000000" stroke-width="2" d="M 66.7,30 69.5,30.3 72.1,31.1 74.3,32.4 76.3,34.2 77.9,36.2 79.3,38.6 80.3,41.3 81.1,44.1 81.5,47 81.7,50 81.5,53 81.1,55.9 80.3,58.7 79.3,61.4 77.9,63.8 76.3,65.8 74.3,67.6 72.1,68.9 69.5,69.7 66.7,70" />
<path stroke="#000000" stroke-width="2" d="M 88.3,70" />
<path stroke="#000000" stroke-width="2" d="M 88.3,50 88.5,50 88.5,50.2 88.3,50.2 88.3,50" />
<path stroke="#000000" stroke-width="2" d="M 118.5,70" />
<path stroke="#000000" stroke-width="2" d="M 118.5,30 158.5,30" />
<path stroke="#000000" stroke-width="2" d="M 165.2,70" />
<path stroke="#000000" stroke-width="2" d="M 175.2,50 167.5,68.5" />
<path stroke="#000000" stroke-width="2" d="M 205.2,70" />
<path stroke="#000000" stroke-width="2" d="M 205.2,30" />
<path stroke="#000000" stroke-width="2" d="M 205.2,30 206.6,30.1 207.9,30.6 209,31.2 210,32.1 210.8,33.1 211.5,34.3 212,35.6 212.4,37 212.6,38.5 212.7,40 212.6,41.5 212.4,43 212,44.4 211.5,45.7 210.8,46.9 210,47.9 209,48.8 207.9,49.4 206.6,49.9 205.2,50" />
<path stroke="#000000" stroke-width="2" d="M 205.2,40" />
<path stroke="#000000" stroke-width="2" d="M 209.2,40 219.2,40 211.5,58.5 213.8,52.9 214.2,52.1 214.6,51.4 215,50.6 215.6,49.9 216.2,49.3 216.8,48.7 217.5,48.2 218.2,47.7 219,47.3 219.8,47 220.7,46.7 221.5,46.5" />
<path stroke="#000000" stroke-width="2" d="M 228.2,70" />
<path stroke="#000000" stroke-width="2" d="M 228.2,25" />
<path stroke="#000000" stroke-width="2" d="M 228.2,25 230.2,24.9 231.8,24.6 233,24.1 233.9,23.6 234.5,22.9 234.8,22.2 234.8,21.4 234.6,20.7 234.3,20 233.8,19.4 233.2,18.9 232.5,18.5 231.8,18.3 231,18.4 230.3,18.7 229.6,19.2 229,20.1 228.6,21.4 228.3,23 228.2,25 228.2,40" />
<path stroke="#000000" stroke-width="2" d="M 264.8,70" />
<path stroke="#000000" stroke-width="2" d="M 284.8,30 284.8,70 264.8,70" />
<path stroke="#000000" stroke-width="2" d="M 291.5,70" />
<path stroke="#000000" stroke-width="2" d="M 291.5,55" />
<path stroke="#000000" stroke-width="2" d="M 291.5,55 293.5,54.9 295.1,54.6 296.4,54.1 297.3,53.6 297.8,52.9 298.1,52.2 298.1,51.4 298,50.7 297.6,50 297.1,49.4 296.5,48.9 295.8,48.5 295.1,48.3 294.3,48.4 293.6,48.7 292.9,49.2 292.4,50.1 291.9,51.4 291.6,53 291.5,55 291.5,70 291.5,70.7 291.6,71.4 291.7,72.1 291.9,72.8 292.1,73.4 292.4,74 292.7,74.6 293.1,75.2 293.6,75.8 294.1,76.2 294.6,76.7 295.2,77.1 295.8,77.4 296.4,77.7 297.1,78 297.8,78.2 298.4,78.3 299.1,78.3 299.8,78.3 300.5,78.3 301.2,78.2 301.9,78 302.5,77.7 303.2,77.4 303.8,77.1 304.4,76.7 304.9,76.2 305.4,75.8 305.8,75.2 306.2,74.6 306.6,74 306.9,73.4 307.1,72.8 307.3,72.1 307.4,71.4 307.5,70.7" />
<path stroke="#000000" stroke-width="2" d="M 307.5,62.7" />
<path stroke="#000000" stroke-width="2" d="M 287.5,62.7 295.5,62.7" />
<path stroke="#000000" stroke-width="2" d="M 337.5,70" />
<path stroke="#000000" stroke-width="2" d="M 337.5,30 337.5,70 348.8,58.7" />
<path stroke="#000000" stroke-width="2" d="M 355.5,70" />
<path stroke="#000000" stroke-width="2" d="M 375.5,70 377.2,70 378.9,69.8 380.7,69.5 382.3,69.1 384,68.5 385.6,67.8 387.1,66.9 388.5,65.9 389.8,64.8 391.1,63.5 392.2,62.2 393.2,60.8 394.1,59.3 394.8,57.7 395.4,56 395.9,54.3 396.2,52.6 396.3,50.9 396.3,49.1 396.2,47.4 395.9,45.7 395.4,44 394.8,42.4 394.1,40.8 393.2,39.3 392.2,37.8 391.1,36.5 389.8,35.3 388.5,34.2 387.1,33.2 385.6,32.3 384,31.5 382.3,30.9 380.7,30.5 378.9,30.2 377.2,30 375.5,30 373.7,30.2 372,30.5 370.3,30.9 368.7,31.5 367.1,32.3 365.6,33.2 364.2,34.2 362.8,35.3 361.6,36.5 360.5,37.8 359.5,39.3 358.6,40.8 357.9,42.4 357.3,44 356.8,45.7 356.5,47.4 356.3,49.1 356.3,50.9 356.5,52.6 356.8,54.3 357.3,56 357.9,57.7 358.6,59.3 359.5,60.8 360.5,62.2 361.6,63.5 362.8,64.8 364.2,65.9 365.6,66.9 367.1,67.8 368.7,68.5 370.3,69.1 372,69.5 373.7,69.8 375.5,70" />
<path stroke="#000000" stroke-width="2" d="M 426.3,70" />
<path stroke="#000000" stroke-width="2" d="M 426.3,30" />
<path stroke="#000000" stroke-width="2" d="M 426.3,30 429.2,30.3 431.7,31.1 434,32.4 435.9,34.2 437.6,36.2 438.9,38.6 440,41.3 440.7,44.1 441.2,47 441.3,50 441.2,53 440.7,55.9 440,58.7 438.9,61.4 437.6,63.8 435.9,65.8 434,67.6 431.7,68.9 429.2,69.7 426.3,70" />
<path stroke="#000000" stroke-width="2" d="M 448,70" />
<path stroke="#000000" stroke-width="2" d="M 448,40 448,39.3 448,38.6 448.2,37.9 448.3,37.2 448.6,36.6 448.9,36 449.2,35.4 449.6,34.8 450.1,34.2 450.6,33.8 451.1,33.3 451.7,32.9 452.3,32.6 452.9,32.3 453.6,32 454.2,31.8 454.9,31.7 455.6,31.7 456.3,31.7 457,31.7 457.7,31.8 458.4,32 459,32.3 459.7,32.6 460.3,32.9 460.8,33.3 461.4,33.8 461.9,34.2 462.3,34.8 462.7,35.4 463.1,36 463.4,36.6 463.6,37.2 463.8,37.9 463.9,38.6 464,39.3" />
<path stroke="#000000" stroke-width="2" d="M 494,70" />
<path stroke="#000000" stroke-width="2" d="M 494,30 494,50 504,50 511.6,68.5" />
<path stroke="#000000" stroke-width="2" d="M 518.3,70" />
<path stroke="#000000" stroke-width="2" d="M 526.3,20 526.3,35" />
<path stroke="#000000" stroke-width="2" d="M 526.3,35 526.2,37 525.9,38.6 525.4,39.9 524.8,40.8 524.2,41.3 523.4,41.6 522.7,41.7 522,41.5 521.3,41.1 520.7,40.6 520.2,40 519.8,39.3 519.6,38.6 519.7,37.8 520,37.1 520.5,36.4 521.4,35.9 522.6,35.4 524.3,35.1 526.3,35" />
<path stroke="#000000" stroke-width="2" d="M 532.9,70" />
<path stroke="#000000" stroke-width="2" d="M 532.9,30 572.9,30" />
<path stroke="#000000" stroke-width="2" d="M 579.6,70" />
<path stroke="#000000" stroke-width="2" d="M 591.6,36" />
<path stroke="#000000" stroke-width="2" d="M 591.6,36 589.6,35.9 588,35.6 586.7,35.1 585.9,34.6 585.3,33.9 585,33.2 585,32.4 585.1,31.7 585.5,31 586,30.4 586.6,29.9 587.3,29.5 588,29.3 588.8,29.4 589.5,29.7 590.2,30.2 590.8,31.1 591.2,32.4 591.5,34 591.6,36 591.6,40" />
<path stroke="#000000" stroke-width="2" d="M 591.6,40 591.3,40.9 591,41.7 590.6,42.4 590.2,43.1 589.8,43.8 589.3,44.4 588.9,44.9 588.4,45.4 587.9,45.9 587.4,46.2 586.8,46.6 586.3,46.9 585.7,47.2 585.2,47.4 584.6,47.6 584,47.7 583.4,47.9 582.8,47.9 582.2,48 581.6,48 601.6,48 581.8,67.8 601.8,67.8" />
<path stroke="#000000" stroke-width="2" d="M 631.8,70" />
<path stroke="#000000" stroke-width="2" d="M 631.8,70 632,70 632,70.2 631.8,70.2 631.8,70" />
<path stroke="#000000" stroke-width="2" d="M 662,70" />
</svg>