<svg xmlns="http://www.w3.org/2000/svg" width="651.1237772717018" height="90.2" style="fill:none; stroke-linecap:round;">
    <rect width="100%" height="100%" fill="#FFFFFF" />
<path stroke="#000000" stroke-width="2" d="M 550,75" />
<path stroke="#000000" stroke-width="2" d="M 20,30 20,70" />
<path stroke="#000000" stroke-width="2" d="M 26.7,70" />
<path stroke="#000000" stroke-width="2" d="M 36.7,20 29,38.5" />
<path stroke="#000000" stroke-width="2" d="M 66.7,70" />
<path stroke="#000000" stroke-width="2" d="M 66.7,30" />
<path stroke="#000000" stroke-width="2" d="M 66.7,30 69.5,30.3 72.1,31.1 74.3,32.4 76.3,34.2 77.9,36.2 79.3,38.6 80.3,41.3 81.1,44.1 81.5,47 81.7,50 81.5,53 81.1,55.9 80.3,58.7 79.3,61.4 77.9,63.8 76.3,65.8 74.3,67.6 72.1,68.9 69.5,69.7 66.7,70" />
<path stroke="#000000" stroke-width="2" d="M 88.3,70" />
<path stroke="#000000" stroke-width="2" d="M 88.3,50 88.5,50 88.5,50.2 88.3,50.2 88.3,50" />
<path stroke="#000000" stroke-width="2" d="M 118.5,70" />
<path stroke="#000000" stroke-width="2" d="M 118.5,30 158.5,30" />
<path stroke="#000000" stroke-width="2" d="M 165.2,70" />
<path stroke="#000000" stroke-width="2" d="M 175.2,50 167.5,68.5" />
<path stroke="#000000" stroke-width="2" d="M 205.2,70" />
<path stroke="#000000" stroke-width="2" d="M 205.2,30" />
<path stroke="#000000" stroke-width="2" d="M 205.2,30 206.6,30.1 207.9,30.6 209,31.2 210,32.1 210.8,33.1 211.5,34.3 212,35.6 212.4,37 212.6,38.5 212.7,40 212.6,41.5 212.4,43 212,44.4 211.5,45.7 210.8,46.9 210,47.9 209,48.8 207.9,49.4 206.6,49.9 205.2,50" />
<path stroke="#000000" stroke-width="2" d="M 205.2,40" />
<path stroke="#000000" stroke-width="2" d="M 209.2,40 219.2,40 211.5,58.5 213.8,52.9 214.2,52.1 214.6,51.4 215,50.6 215.6,49.9 216.2,49.3 216.8,48.7 217.5,48.2 218.2,47.7 219,47.3 219.8,47 220.7,46.7 221.5,46.5" />
<path stroke="#000000" stroke-width="2" d="M 228.2,70" />
<path stroke="#000000" stroke-width="2" d="M 228.2,25" />
<path stroke="#000000" stroke-width="2" d="M 228.2,25 230.2,24.9 231.8,24.6 233,24.1 233.9,23.6 234.5,22.9 234.8,22.2 234.8,21.4 234.6,20.7 234.3,20 233.8,19.4 233.2,18.9 232.5,18.5 231.8,18.3 231,18.4 230.3,18.7 229.6,19.2 229,20.1 228.6,21.4 228.3,23 228.2,25 228.2,40" />
<path stroke="#000000" stroke-width="2" d="M 264.8,70" />
<path stroke="#000000" stroke-width="2" d="M 284.8,30 284.8,70 264.8,70" />
<path stroke="#000000" stroke-width="2" d="M 291.5,70" />
<path stroke="#000000" stroke-width="2" d="M 291.5,20 291.5,40 291.5,34 291.5,33.1 291.6,32.3 291.7,31.4 291.9,30.6 292.2,29.7 292.6,28.9 293,28.2 293.5,27.5 294.1,26.8 294.7,26.2 295.4,25.6 296.1,25.1 296.9,24.7 297.7,24.3 298.5,24 299.3,23.8 300.2,23.6 301,23.6" />
<path stroke="#000000" stroke-width="2" d="M 301,23.6 303.1,23.5 304.7,23.2 305.9,22.7 306.8,22.1 307.4,21.5 307.7,20.7 307.7,20 307.5,19.3 307.2,18.6 306.7,17.9 306.1,17.4 305.4,17.1 304.6,16.9 303.9,17 303.2,17.2 302.5,17.8 301.9,18.7 301.4,19.9 301.2,21.5 301,23.6 301,38.6 301,39.3 301.1,40 301.2,40.7 301.4,41.3 301.6,42 301.9,42.6 302.3,43.2 302.7,43.8 303.1,44.3 303.6,44.8 304.2,45.3 304.7,45.7 305.3,46 306,46.3 306.6,46.6 307.3,46.7 308,46.9 308.7,46.9 309.4,46.9 310.1,46.9 310.8,46.7 311.4,46.6 312.1,46.3 312.7,46 313.3,45.7 313.9,45.3 314.4,44.8 314.9,44.3 315.4,43.8 315.8,43.2 316.1,42.6 316.4,42 316.7,41.3 316.8,40.7 317,40 317,39.3" />
<path stroke="#000000" stroke-width="2" d="M 317,31.3" />
<path stroke="#000000" stroke-width="2" d="M 297,31.3 305,31.3" />
<path stroke="#000000" stroke-width="2" d="M 347,70" />
<path stroke="#000000" stroke-width="2" d="M 347,30 347,70 358.3,58.7" />
<path stroke="#000000" stroke-width="2" d="M 365,70" />
<path stroke="#000000" stroke-width="2" d="M 385,70 386.8,70 388.5,69.8 390.2,69.5 391.9,69.1 393.5,68.5 395.1,67.8 396.6,66.9 398.1,65.9 399.4,64.8 400.6,63.5 401.7,62.2 402.8,60.8 403.6,59.3 404.4,57.7 405,56 405.4,54.3 405.7,52.6 405.9,50.9 405.9,49.1 405.7,47.4 405.4,45.7 405,44 404.4,42.4 403.6,40.8 402.8,39.3 401.7,37.8 400.6,36.5 399.4,35.3 398.1,34.2 396.6,33.2 395.1,32.3 393.5,31.5 391.9,30.9 390.2,30.5 388.5,30.2 386.8,30 385,30 383.3,30.2 381.6,30.5 379.9,30.9 378.2,31.5 376.6,32.3 375.1,33.2 373.7,34.2 372.4,35.3 371.1,36.5 370,37.8 369,39.3 368.1,40.8 367.4,42.4 366.8,44 366.4,45.7 366.1,47.4 365.9,49.1 365.9,50.9 366.1,52.6 366.4,54.3 366.8,56 367.4,57.7 368.1,59.3 369,60.8 370,62.2 371.1,63.5 372.4,64.8 373.7,65.9 375.1,66.9 376.6,67.8 378.2,68.5 379.9,69.1 381.6,69.5 383.3,69.8 385,70" />
<path stroke="#000000" stroke-width="2" d="M 435.9,70" />
<path stroke="#000000" stroke-width="2" d="M 435.9,30" />
<path stroke="#000000" stroke-width="2" d="M 435.9,30 438.7,30.3 441.3,31.1 443.5,32.4 445.5,34.2 447.1,36.2 448.5,38.6 449.5,41.3 450.3,44.1 450.7,47 450.9,50 450.7,53 450.3,55.9 449.5,58.7 448.5,61.4 447.1,63.8 445.5,65.8 443.5,67.6 441.3,68.9 438.7,69.7 435.9,70" />
<path stroke="#000000" stroke-width="2" d="M 457.5,70" />
<path stroke="#000000" stroke-width="2" d="M 457.5,50 457.5,70 457.5,64 457.5,63.1 457.6,62.3 457.8,61.4 458,60.6 458.3,59.7 458.7,58.9 459.1,58.2 459.6,57.5 460.1,56.8 460.8,56.2 461.4,55.6 462.1,55.1 462.9,54.7 463.7,54.3 464.5,54 465.4,53.8 466.2,53.6 467.1,53.6 467.1,52.9 467.1,52.2 467.3,51.5 467.4,50.8 467.7,50.2 468,49.5 468.3,48.9 468.7,48.4 469.2,47.8 469.7,47.3 470.2,46.9 470.8,46.5 471.4,46.1 472,45.8 472.7,45.6 473.3,45.4 474,45.3 474.7,45.2 475.4,45.2 476.1,45.3 476.8,45.4 477.5,45.6 478.1,45.8 478.8,46.1 479.4,46.5 479.9,46.9 480.5,47.3 481,47.8 481.4,48.4 481.8,48.9 482.2,49.5 482.5,50.2 482.7,50.8 482.9,51.5 483,52.2 483.1,52.9" />
<path stroke="#000000" stroke-width="2" d="M 513.1,70" />
<path stroke="#000000" stroke-width="2" d="M 513.1,30 513.1,50 523.1,50 530.7,68.5" />
<path stroke="#000000" stroke-width="2" d="M 537.4,70" />
<path stroke="#000000" stroke-width="2" d="M 545.4,20 545.4,35" />
<path stroke="#000000" stroke-width="2" d="M 545.4,35 545.3,37 545,38.6 544.5,39.9 543.9,40.8 543.3,41.3 542.6,41.6 541.8,41.7 541.1,41.5 540.4,41.1 539.8,40.6 539.3,40 538.9,39.3 538.7,38.6 538.8,37.8 539.1,37.1 539.6,36.4 540.5,35.9 541.7,35.4 543.4,35.1 545.4,35" />
<path stroke="#000000" stroke-width="2" d="M 552.1,70" />
<path stroke="#000000" stroke-width="2" d="M 552.1,20 572.1,20" />
<path stroke="#000000" stroke-width="2" d="M 578.7,70" />
<path stroke="#000000" stroke-width="2" d="M 590.7,36" />
<path stroke="#000000" stroke-width="2" d="M 590.7,36 588.7,35.9 587.1,35.6 585.8,35.1 585,34.6 584.4,33.9 584.1,33.2 584.1,32.4 584.2,31.7 584.6,31 585.1,30.4 585.7,29.9 586.4,29.5 587.1,29.3 587.9,29.4 588.6,29.7 589.3,30.2 589.9,31.1 590.3,32.4 590.6,34 590.7,36 590.7,40" />
<path stroke="#000000" stroke-width="2" d="M 590.7,40 590.4,40.9 590.1,41.7 589.7,42.4 589.3,43.1 588.9,43.8 588.4,44.4 588,44.9 587.5,45.4 587,45.9 586.5,46.2 585.9,46.6 585.4,46.9 584.8,47.2 584.3,47.4 583.7,47.6 583.1,47.7 582.5,47.9 581.9,47.9 581.3,48 580.7,48 600.7,48 580.9,67.8 600.9,67.8" />
<path stroke="#000000" stroke-width="2" d="M 630.9,70" />
<path stroke="#000000" stroke-width="2" d="M 630.9,70 631.1,70 631.1,70.2 630.9,70.2 630.9,70" />
<path stroke="#000000" stroke-width="2" d="M 661.1,70" />
</svg>