<svg xmlns="http://www.w3.org/2000/svg" width="698.475870495075" height="90.2" style="fill:none; stroke-linecap:round;">
    <rect width="100%" height="100%" fill="#FFFFFF" />
<path stroke="#000000" stroke-width="2" d="M 550,75" />
<path stroke="#000000" stroke-width="2" d="M 20,30 40,30" />
<path stroke="#000000" stroke-width="2" d="M 40,30 41.4,30.1 42.7,30.6 43.8,31.2 44.8,32.1 45.6,33.1 46.3,34.3 46.8,35.6 47.2,37 47.4,38.5 47.5,40 47.4,41.5 47.2,43 46.8,44.4 46.3,45.7 45.6,46.9 44.8,47.9 43.8,48.8 42.7,49.4 41.4,49.9 40,50" />
<path stroke="#000000" stroke-width="2" d="M 77.5,70" />
<path stroke="#000000" stroke-width="2" d="M 77.5,30 77.5,70 77.5,58 77.5,56.3 77.7,54.5 78,52.8 78.4,51.1 79,49.5 79.7,47.9 80.6,46.4 81.6,45 82.7,43.6 84,42.4 85.3,41.3 86.7,40.3 88.2,39.4 89.8,38.7 91.5,38.1 93.2,37.6 94.9,37.3 96.6,37.1" />
<path stroke="#000000" stroke-width="2" d="M 103.3,70" />
<path stroke="#000000" stroke-width="2" d="M 103.3,30 118.6,67" />
<path stroke="#000000" stroke-width="2" d="M 125.2,70" />
<path stroke="#000000" stroke-width="2" d="M 125.2,20 132.9,38.5 132.9,58.5" />
<path stroke="#000000" stroke-width="2" d="M 139.6,70" />
<path stroke="#000000" stroke-width="2" d="M 139.6,20 139.6,40 139.6,34 139.6,33.1 139.6,32.3 139.8,31.4 140,30.6 140.3,29.7 140.7,28.9 141.1,28.2 141.6,27.5 142.2,26.8 142.8,26.2 143.5,25.6 144.2,25.1 144.9,24.7 145.7,24.3 146.6,24 147.4,23.8 148.3,23.6 149.1,23.6" />
<path stroke="#000000" stroke-width="2" d="M 179.1,70" />
<path stroke="#000000" stroke-width="2" d="M 179.1,30 179.1,70 190.4,58.7" />
<path stroke="#000000" stroke-width="2" d="M 197.1,70" />
<path stroke="#000000" stroke-width="2" d="M 207.1,50 199.5,68.5" />
<path stroke="#000000" stroke-width="2" d="M 237.1,70" />
<path stroke="#000000" stroke-width="2" d="M 253.1,30" />
<path stroke="#000000" stroke-width="2" d="M 253.1,30 252.9,34.1 252.3,37.3 251.4,39.8 250.2,41.5 248.9,42.7 247.4,43.2 245.9,43.3 244.5,43 243.1,42.3 241.9,41.2 240.9,40 240.1,38.6 239.8,37.2 239.9,35.7 240.4,34.2 241.6,32.9 243.4,31.7 245.8,30.8 249,30.2 253.1,30 273.1,30" />
<path stroke="#000000" stroke-width="2" d="M 279.8,70" />
<path stroke="#000000" stroke-width="2" d="M 279.8,40" />
<path stroke="#000000" stroke-width="2" d="M 279.8,40 283.8,39.8 287.1,39.2 289.5,38.3 291.3,37.1 292.4,35.8 293,34.3 293.1,32.8 292.7,31.4 292,30 291,28.8 289.8,27.7 288.4,27 286.9,26.7 285.4,26.8 284,27.3 282.7,28.5 281.5,30.2 280.6,32.7 280,35.9 279.8,40 279.8,70" />
<path stroke="#000000" stroke-width="2" d="M 323.1,70" />
<path stroke="#000000" stroke-width="2" d="M 343.1,70 344.8,70 346.6,69.8 348.3,69.5 350,69.1 351.6,68.5 353.2,67.8 354.7,66.9 356.1,65.9 357.5,64.8 358.7,63.5 359.8,62.2 360.8,60.8 361.7,59.3 362.4,57.7 363,56 363.5,54.3 363.8,52.6 363.9,50.9 363.9,49.1 363.8,47.4 363.5,45.7 363,44 362.4,42.4 361.7,40.8 360.8,39.3 359.8,37.8 358.7,36.5 357.5,35.3 356.1,34.2 354.7,33.2 353.2,32.3 351.6,31.5 350,30.9 348.3,30.5 346.6,30.2 344.8,30 343.1,30 341.3,30.2 339.6,30.5 337.9,30.9 336.3,31.5 334.7,32.3 333.2,33.2 331.8,34.2 330.4,35.3 329.2,36.5 328.1,37.8 327.1,39.3 326.2,40.8 325.5,42.4 324.9,44 324.4,45.7 324.1,47.4 324,49.1 324,50.9 324.1,52.6 324.4,54.3 324.9,56 325.5,57.7 326.2,59.3 327.1,60.8 328.1,62.2 329.2,63.5 330.4,64.8 331.8,65.9 333.2,66.9 334.7,67.8 336.3,68.5 337.9,69.1 339.6,69.5 341.3,69.8 343.1,70" />
<path stroke="#000000" stroke-width="2" d="M 370.6,70" />
<path stroke="#000000" stroke-width="2" d="M 370.6,20 370.6,40 370.6,34 370.6,33.1 370.7,32.3 370.8,31.4 371.1,30.6 371.4,29.7 371.7,28.9 372.2,28.2 372.7,27.5 373.2,26.8 373.8,26.2 374.5,25.6 375.2,25.1 376,24.7 376.8,24.3 377.6,24 378.4,23.8 379.3,23.6 380.2,23.6" />
<path stroke="#000000" stroke-width="2" d="M 410.2,70" />
<path stroke="#000000" stroke-width="2" d="M 410.2,30 425.5,67" />
<path stroke="#000000" stroke-width="2" d="M 432.1,70" />
<path stroke="#000000" stroke-width="2" d="M 432.1,20 432.1,40 442.1,40" />
<path stroke="#000000" stroke-width="2" d="M 472.1,70" />
<path stroke="#000000" stroke-width="2" d="M 472.1,30 472.1,70" />
<path stroke="#000000" stroke-width="2" d="M 478.8,70" />
<path stroke="#000000" stroke-width="2" d="M 478.8,30 479,30 479,30.2 478.8,30.2 478.8,30" />
<path stroke="#000000" stroke-width="2" d="M 509,70" />
<path stroke="#000000" stroke-width="2" d="M 509,30 509,50 519,50 539,50" />
<path stroke="#000000" stroke-width="2" d="M 569,70" />
<path stroke="#000000" stroke-width="2" d="M 569,40" />
<path stroke="#000000" stroke-width="2" d="M 569,40 573.1,39.8 576.3,39.2 578.7,38.3 580.5,37.1 581.7,35.8 582.2,34.3 582.3,32.8 582,31.4 581.2,30 580.2,28.8 579,27.7 577.6,27 576.2,26.7 574.7,26.8 573.2,27.3 571.9,28.5 570.7,30.2 569.8,32.7 569.2,35.9 569,40 569,70" />
<path stroke="#000000" stroke-width="2" d="M 589,70" />
<path stroke="#000000" stroke-width="2" d="M 589,20 589,40 599,40 599,40.7 599,41.4 599.2,42.1 599.3,42.8 599.6,43.4 599.9,44 600.2,44.6 600.6,45.2 601.1,45.8 601.6,46.2 602.1,46.7 602.7,47.1 603.3,47.4 603.9,47.7 604.6,48 605.2,48.2 605.9,48.3 606.6,48.3 607.3,48.3 608,48.3 608.7,48.2 609.4,48 610,47.7 610.7,47.4 611.3,47.1 611.8,46.7 612.4,46.2 612.9,45.8 613.3,45.2 613.7,44.6 614.1,44 614.4,43.4 614.6,42.8 614.8,42.1 614.9,41.4 615,40.7" />
<path stroke="#000000" stroke-width="2" d="M 621.6,70" />
<path stroke="#000000" stroke-width="2" d="M 621.6,20 641.6,20" />
<path stroke="#000000" stroke-width="2" d="M 641.6,20 643.7,19.9 645.3,19.6 646.5,19.1 647.4,18.6 647.9,17.9 648.2,17.2 648.3,16.4 648.1,15.7 647.7,15 647.2,14.4 646.6,13.9 645.9,13.5 645.2,13.3 644.5,13.4 643.7,13.7 643.1,14.2 642.5,15.1 642,16.4 641.7,18 641.6,20 641.6,35" />
<path stroke="#000000" stroke-width="2" d="M 678.3,70" />
<path stroke="#000000" stroke-width="2" d="M 678.3,70 678.5,70 678.5,70.2 678.3,70.2 678.3,70" />
<path stroke="#000000" stroke-width="2" d="M 708.5,70" />
</svg>