<svg xmlns="http://www.w3.org/2000/svg" width="676.7247051477916" height="103.47759065022574" style="fill:none; stroke-linecap:round;">
    <rect width="100%" height="100%" fill="#FFFFFF" />
<path stroke="#000000" stroke-width="2" d="M 550,75" />
<path stroke="#000000" stroke-width="2" d="M 20,30 20,70 31.3,58.7" />
<path stroke="#000000" stroke-width="2" d="M 38,70" />
<path stroke="#000000" stroke-width="2" d="M 58,70 59.7,70 61.5,69.8 63.2,69.5 64.9,69.1 66.5,68.5 68.1,67.8 69.6,66.9 71,65.9 72.4,64.8 73.6,63.5 74.7,62.2 75.7,60.8 76.6,59.3 77.3,57.7 77.9,56 78.4,54.3 78.7,52.6 78.8,50.9 78.8,49.1 78.7,47.4 78.4,45.7 77.9,44 77.3,42.4 76.6,40.8 75.7,39.3 74.7,37.8 73.6,36.5 72.4,35.3 71,34.2 69.6,33.2 68.1,32.3 66.5,31.5 64.9,30.9 63.2,30.5 61.5,30.2 59.7,30 58,30 56.2,30.2 54.5,30.5 52.8,30.9 51.2,31.5 49.6,32.3 48.1,33.2 46.7,34.2 45.3,35.3 44.1,36.5 43,37.8 42,39.3 41.1,40.8 40.4,42.4 39.8,44 39.3,45.7 39,47.4 38.9,49.1 38.9,50.9 39,52.6 39.3,54.3 39.8,56 40.4,57.7 41.1,59.3 42,60.8 43,62.2 44.1,63.5 45.3,64.8 46.7,65.9 48.1,66.9 49.6,67.8 51.2,68.5 52.8,69.1 54.5,69.5 56.2,69.8 58,70" />
<path stroke="#000000" stroke-width="2" d="M 108.8,70" />
<path stroke="#000000" stroke-width="2" d="M 113.8,30" />
<path stroke="#000000" stroke-width="2" d="M 113.8,30 112.4,30.1 111.1,30.6 110,31.2 109,32.1 108.2,33.1 107.5,34.3 107,35.6 106.6,37 106.4,38.5 106.3,40 106.4,41.5 106.6,43 107,44.4 107.5,45.7 108.2,46.9 109,47.9 110,48.8 111.1,49.4 112.4,49.9 113.8,50 113.8,50.7 113.9,51.4 114,52.1 114.2,52.8 114.4,53.4 114.7,54 115.1,54.6 115.5,55.2 115.9,55.8 116.4,56.2 117,56.7 117.5,57.1 118.1,57.4 118.8,57.7 119.4,58 120.1,58.2 120.8,58.3 121.5,58.3 122.2,58.3 122.9,58.3 123.6,58.2 124.2,58 124.9,57.7 125.5,57.4 126.1,57.1 126.7,56.7 127.2,56.2 127.7,55.8 128.2,55.2 128.6,54.6 128.9,54 129.2,53.4 129.5,52.8 129.6,52.1 129.8,51.4 129.8,50.7" />
<path stroke="#000000" stroke-width="2" d="M 159.8,70" />
<path stroke="#000000" stroke-width="2" d="M 159.8,30 159.8,50 169.8,50 162.2,68.5" />
<path stroke="#000000" stroke-width="2" d="M 162.2,68.5 164.2,68.4 165.8,68.1 167,67.6 167.9,67 168.5,66.4 168.8,65.6 168.8,64.9 168.6,64.2 168.3,63.5 167.8,62.9 167.2,62.4 166.5,62 165.7,61.8 165,61.9 164.3,62.1 163.6,62.7 163,63.6 162.6,64.8 162.3,66.4 162.2,68.5 162.2,83.5" />
<path stroke="#000000" stroke-width="2" d="M 199.8,70" />
<path stroke="#000000" stroke-width="2" d="M 215.8,30 215.8,60" />
<path stroke="#000000" stroke-width="2" d="M 215.8,60 215.6,64.1 215,67.3 214.1,69.8 212.9,71.5 211.6,72.7 210.1,73.2 208.7,73.3 207.2,73 205.8,72.3 204.6,71.2 203.6,70 202.9,68.6 202.5,67.2 202.6,65.7 203.2,64.2 204.3,62.9 206.1,61.7 208.5,60.8 211.8,60.2 215.8,60" />
<path stroke="#000000" stroke-width="2" d="M 222.5,70" />
<path stroke="#000000" stroke-width="2" d="M 222.5,20 230.1,38.5" />
<path stroke="#000000" stroke-width="2" d="M 260.1,70" />
<path stroke="#000000" stroke-width="2" d="M 260.1,70" />
<path stroke="#000000" stroke-width="2" d="M 260.1,70 261.3,70 262.2,70.2 263.1,70.4 263.8,70.7 264.4,71 264.8,71.5 265.1,71.9 265.3,72.5 265.4,73.1 265.4,73.8 265.3,74.4 265,75.2 264.7,76 264.3,76.8 263.8,77.6 263.2,78.4 262.5,79.3 261.8,80.2 261,81.1 260.1,82" />
<path stroke="#000000" stroke-width="2" d="M 295.4,70" />
<path stroke="#000000" stroke-width="2" d="M 295.4,30" />
<path stroke="#000000" stroke-width="2" d="M 295.4,30 296.8,30.1 298.1,30.6 299.2,31.2 300.2,32.1 301,33.1 301.7,34.3 302.2,35.6 302.6,37 302.8,38.5 302.9,40 302.8,41.5 302.6,43 302.2,44.4 301.7,45.7 301,46.9 300.2,47.9 299.2,48.8 298.1,49.4 296.8,49.9 295.4,50 295.4,70 295.4,64 295.4,63.1 295.5,62.3 295.6,61.4 295.9,60.6 296.2,59.7 296.5,58.9 297,58.2 297.5,57.5 298,56.8 298.6,56.2 299.3,55.6 300,55.1 300.8,54.7 301.6,54.3 302.4,54 303.2,53.8 304.1,53.6 305,53.6" />
<path stroke="#000000" stroke-width="2" d="M 311.6,70" />
<path stroke="#000000" stroke-width="2" d="M 319.6,20 319.6,35" />
<path stroke="#000000" stroke-width="2" d="M 319.6,35 319.5,37 319.2,38.6 318.8,39.9 318.2,40.8 317.5,41.3 316.8,41.6 316,41.7 315.3,41.5 314.6,41.1 314,40.6 313.5,40 313.2,39.3 313,38.6 313,37.8 313.3,37.1 313.9,36.4 314.8,35.9 316,35.4 317.6,35.1 319.6,35" />
<path stroke="#000000" stroke-width="2" d="M 326.3,70" />
<path stroke="#000000" stroke-width="2" d="M 326.3,20 326.3,40 326.3,34 326.3,33.1 326.4,32.3 326.5,31.4 326.8,30.6 327,29.7 327.4,28.9 327.9,28.2 328.4,27.5 328.9,26.8 329.5,26.2 330.2,25.6 330.9,25.1 331.7,24.7 332.5,24.3 333.3,24 334.1,23.8 335,23.6 335.9,23.6" />
<path stroke="#000000" stroke-width="2" d="M 342.5,70" />
<path stroke="#000000" stroke-width="2" d="M 342.5,30 342.7,30 342.7,30.2 342.5,30.2 342.5,30" />
<path stroke="#000000" stroke-width="2" d="M 372.7,70" />
<path stroke="#000000" stroke-width="2" d="M 372.7,70" />
<path stroke="#000000" stroke-width="2" d="M 372.7,70 373.8,70 374.8,70.2 375.7,70.4 376.4,70.7 376.9,71 377.4,71.5 377.7,71.9 377.9,72.5 378,73.1 378,73.8 377.8,74.4 377.6,75.2 377.3,76 376.9,76.8 376.4,77.6 375.8,78.4 375.1,79.3 374.4,80.2 373.6,81.1 372.7,82" />
<path stroke="#000000" stroke-width="2" d="M 408,70" />
<path stroke="#000000" stroke-width="2" d="M 408,30 428,30" />
<path stroke="#000000" stroke-width="2" d="M 428,30 429.4,30.1 430.7,30.6 431.8,31.2 432.8,32.1 433.6,33.1 434.3,34.3 434.8,35.6 435.2,37 435.4,38.5 435.5,40 435.4,41.5 435.2,43 434.8,44.4 434.3,45.7 433.6,46.9 432.8,47.9 431.8,48.8 430.7,49.4 429.4,49.9 428,50" />
<path stroke="#000000" stroke-width="2" d="M 465.5,70" />
<path stroke="#000000" stroke-width="2" d="M 465.5,30 465.5,70 465.5,62 465.5,60.3 465.6,58.5 465.9,56.8 466.4,55.1 467,53.5 467.7,51.9 468.6,50.4 469.6,49 470.7,47.6 472,46.4 473.3,45.3 474.7,44.3" />
<path stroke="#000000" stroke-width="2" d="M 481.4,70" />
<path stroke="#000000" stroke-width="2" d="M 481.4,50" />
<path stroke="#000000" stroke-width="2" d="M 481.4,50 481.5,50 482,50 482.6,50 483.5,50.1 484.5,50.2 485.7,50.3 487,50.4 488.4,50.6 489.9,50.9 491.4,51.2 492.9,51.7 494.4,52.2 495.8,52.7 497.1,53.4 498.3,54.2 499.3,55.1 500.2,56.1 500.8,57.3 501.2,58.6 501.4,60" />
<path stroke="#000000" stroke-width="2" d="M 501.4,60 503.3,62.1 504.6,64.1 505.4,65.7 505.7,67.2 505.6,68.4 505.2,69.5 504.5,70.2 503.6,70.8 502.5,71.1 501.4,71.2 500.3,71.1 499.2,70.8 498.3,70.2 497.6,69.5 497.2,68.4 497.1,67.2 497.4,65.7 498.2,64 499.5,62.1 501.4,60" />
<path stroke="#000000" stroke-width="2" d="M 501.4,60 501.4,59.9 501.4,59.7 501.5,59.4 501.6,59 501.7,58.4 501.9,57.8 502.3,57.2 502.7,56.5 503.2,55.7 503.9,55 504.7,54.3 505.7,53.5 506.9,52.8 508.3,52.2 509.8,51.6 511.6,51 513.7,50.6 516,50.3 518.5,50.1 521.4,50 521.4,49.3 521.5,48.6 521.6,47.9 521.8,47.2 522,46.6 522.3,46 522.6,45.4 523,44.8 523.5,44.2 524,43.8 524.5,43.3 525.1,42.9 525.7,42.6 526.3,42.3 527,42 527.7,41.8 528.3,41.7 529,41.7 529.7,41.7 530.4,41.7 531.1,41.8 531.8,42 532.4,42.3 533.1,42.6 533.7,42.9 534.3,43.3 534.8,43.8 535.3,44.2 535.7,44.8 536.1,45.4 536.5,46 536.8,46.6 537,47.2 537.2,47.9 537.3,48.6 537.4,49.3" />
<path stroke="#000000" stroke-width="2" d="M 537.4,45.3" />
<path stroke="#000000" stroke-width="2" d="M 531.4,45.3 547.4,45.3" />
<path stroke="#000000" stroke-width="2" d="M 577.4,70" />
<path stroke="#000000" stroke-width="2" d="M 577.4,30" />
<path stroke="#000000" stroke-width="2" d="M 577.4,30 578.8,30.1 580.1,30.6 581.2,31.2 582.2,32.1 583,33.1 583.7,34.3 584.2,35.6 584.6,37 584.8,38.5 584.9,40 584.8,41.5 584.6,43 584.2,44.4 583.7,45.7 583,46.9 582.2,47.9 581.2,48.8 580.1,49.4 578.8,49.9 577.4,50 577.4,70 577.4,64 577.4,63.1 577.5,62.3 577.6,61.4 577.8,60.6 578.1,59.7 578.5,58.9 578.9,58.2 579.4,57.5 580,56.8 580.6,56.2 581.3,55.6 582,55.1 582.8,54.7 583.5,54.3 584.4,54 585.2,53.8 586.1,53.6 586.9,53.6" />
<path stroke="#000000" stroke-width="2" d="M 593.6,70" />
<path stroke="#000000" stroke-width="2" d="M 593.6,30 601.3,48.5 621.3,48.5 601.5,68.3 621.5,68.3" />
<path stroke="#000000" stroke-width="2" d="M 651.5,70" />
<path stroke="#000000" stroke-width="2" d="M 651.5,70" />
<path stroke="#000000" stroke-width="2" d="M 651.5,70 652.6,70 653.6,70.2 654.4,70.4 655.1,70.7 655.7,71 656.1,71.5 656.4,71.9 656.6,72.5 656.7,73.1 656.7,73.8 656.6,74.4 656.3,75.2 656,76 655.6,76.8 655.1,77.6 654.5,78.4 653.9,79.3 653.1,80.2 652.3,81.1 651.5,82" />
<path stroke="#000000" stroke-width="2" d="M 686.7,70" />
</svg>