<svg xmlns="http://www.w3.org/2000/svg" width="432.23641165461635" height="90.2" style="fill:none; stroke-linecap:round;">
    <rect width="100%" height="100%" fill="#FFFFFF" />
<path stroke="#000000" stroke-width="2" d="M 550,75" />
<path stroke="#000000" stroke-width="2" d="M 20,30 30,30 30,70" />
<path stroke="#000000" stroke-width="2" d="M 36.7,70" />
<path stroke="#000000" stroke-width="2" d="M 36.7,50 36.9,50 36.9,50.2 36.7,50.2 36.7,50" />
<path stroke="#000000" stroke-width="2" d="M 66.9,70" />
<path stroke="#000000" stroke-width="2" d="M 66.9,70 67.1,70 67.1,70.2 66.9,70.2 66.9,70" />
<path stroke="#000000" stroke-width="2" d="M 73.7,70" />
<path stroke="#000000" stroke-width="2" d="M 73.7,30 73.7,70 85,58.7" />
<path stroke="#000000" stroke-width="2" d="M 91.7,70" />
<path stroke="#000000" stroke-width="2" d="M 91.7,20 91.7,20.7 91.8,21.4 91.9,22.1 92.1,22.8 92.3,23.4 92.6,24 93,24.6 93.4,25.2 93.8,25.8 94.3,26.2 94.8,26.7 95.4,27.1 96,27.4 96.6,27.7 97.3,28 98,28.2 98.7,28.3 99.4,28.3 100.1,28.3 100.8,28.3 101.4,28.2 102.1,28 102.8,27.7 103.4,27.4 104,27.1 104.6,26.7 105.1,26.2 105.6,25.8 106.1,25.2 106.5,24.6 106.8,24 107.1,23.4 107.3,22.8 107.5,22.1 107.6,21.4 107.7,20.7" />
<path stroke="#000000" stroke-width="2" d="M 107.7,20.7 109.1,20.8 110.4,21.3 111.5,21.9 112.5,22.8 113.3,23.8 114,25 114.5,26.3 114.9,27.7 115.1,29.2 115.2,30.7 115.1,32.2 114.9,33.7 114.5,35.1 114,36.4 113.3,37.6 112.5,38.6 111.5,39.5 110.4,40.1 109.1,40.6 107.7,40.7" />
<path stroke="#000000" stroke-width="2" d="M 145.2,70" />
<path stroke="#000000" stroke-width="2" d="M 145.2,30 145.2,50 155.2,50 175.2,50 155.4,69.8 175.4,69.8" />
<path stroke="#000000" stroke-width="2" d="M 205.4,70" />
<path stroke="#000000" stroke-width="2" d="M 205.4,30 215.4,30 215.4,70" />
<path stroke="#000000" stroke-width="2" d="M 222.1,70" />
<path stroke="#000000" stroke-width="2" d="M 222.1,50 222.1,50.7 222.1,51.4 222.2,52.1 222.4,52.8 222.7,53.4 223,54 223.3,54.6 223.7,55.2 224.2,55.8 224.7,56.2 225.2,56.7 225.8,57.1 226.4,57.4 227,57.7 227.7,58 228.3,58.2 229,58.3 229.7,58.3 230.4,58.3 231.1,58.3 231.8,58.2 232.5,58 233.1,57.7 233.8,57.4 234.4,57.1 234.9,56.7 235.5,56.2 236,55.8 236.4,55.2 236.8,54.6 237.2,54 237.4,53.4 237.7,52.8 237.9,52.1 238,51.4 238.1,50.7" />
<path stroke="#000000" stroke-width="2" d="M 268.1,70" />
<path stroke="#000000" stroke-width="2" d="M 273.1,30" />
<path stroke="#000000" stroke-width="2" d="M 273.1,30 271.6,30.1 270.4,30.6 269.2,31.2 268.3,32.1 267.4,33.1 266.8,34.3 266.2,35.6 265.9,37 265.6,38.5 265.6,40 265.6,41.5 265.9,43 266.2,44.4 266.8,45.7 267.4,46.9 268.3,47.9 269.2,48.8 270.4,49.4 271.6,49.9 273.1,50 280.7,68.5 288.4,50" />
<path stroke="#000000" stroke-width="2" d="M 318.4,70" />
<path stroke="#000000" stroke-width="2" d="M 338.4,30 323.1,67 327.6,55.9 328.3,54.3 329.1,52.7 330.1,51.2 331.1,49.9 332.3,48.6 333.6,47.4 335,46.3 336.4,45.4 338,44.6 339.6,43.9 341.3,43.4 343,43" />
<path stroke="#000000" stroke-width="2" d="M 349.6,70" />
<path stroke="#000000" stroke-width="2" d="M 349.6,50 349.6,49.3 349.7,48.6 349.8,47.9 350,47.2 350.2,46.6 350.5,46 350.9,45.4 351.3,44.8 351.7,44.2 352.2,43.8 352.8,43.3 353.3,42.9 353.9,42.6 354.6,42.3 355.2,42 355.9,41.8 356.6,41.7 357.3,41.7 358,41.7 358.7,41.7 359.4,41.8 360,42 360.7,42.3 361.3,42.6 361.9,42.9 362.5,43.3 363,43.8 363.5,44.2 364,44.8 364.4,45.4 364.7,46 365,46.6 365.3,47.2 365.4,47.9 365.6,48.6 365.6,49.3 365.6,69.3 365.6,63.3 365.6,62.4 365.7,61.6 365.8,60.7 366.1,59.9 366.4,59 366.7,58.2 367.2,57.5 367.7,56.8 368.2,56.1 368.9,55.5 369.5,54.9 370.2,54.4 371,54 371.8,53.6 372.6,53.3 373.4,53.1 374.3,53 375.2,52.9" />
<path stroke="#000000" stroke-width="2" d="M 381.8,70" />
<path stroke="#000000" stroke-width="2" d="M 381.8,30 382,30 382,30.2 381.8,30.2 381.8,30" />
<path stroke="#000000" stroke-width="2" d="M 412,70" />
<path stroke="#000000" stroke-width="2" d="M 412,70 412.2,70 412.2,70.2 412,70.2 412,70" />
<path stroke="#000000" stroke-width="2" d="M 442.2,70" />
</svg>