<svg xmlns="http://www.w3.org/2000/svg" width="773.9298733229807" height="90.2" style="fill:none; stroke-linecap:round;">
    <rect width="100%" height="100%" fill="#FFFFFF" />
<path stroke="#000000" stroke-width="2" d="M 550,75" />
<path stroke="#000000" stroke-width="2" d="M 20,30 20,50 30,50 22.3,68.5" />
<path stroke="#000000" stroke-width="2" d="M 60,70" />
<path stroke="#000000" stroke-width="2" d="M 60,30 60,50 70,50 90,50 70.2,69.8 90.2,69.8" />
<path stroke="#000000" stroke-width="2" d="M 120.2,70" />
<path stroke="#000000" stroke-width="2" d="M 120.2,40 120.4,40 120.4,40.2 120.2,40.2 120.2,40" />
<path stroke="#000000" stroke-width="2" d="M 127.1,70" />
<path stroke="#000000" stroke-width="2" d="M 127.1,30 127.1,70 127.1,58 127.1,56.3 127.2,54.5 127.5,52.8 128,51.1 128.6,49.5 129.3,47.9 130.2,46.4 131.2,45 132.3,43.6 133.5,42.4 134.9,41.3 136.3,40.3 137.8,39.4 139.4,38.7 141,38.1 142.7,37.6 144.4,37.3 146.2,37.1" />
<path stroke="#000000" stroke-width="2" d="M 152.8,70" />
<path stroke="#000000" stroke-width="2" d="M 152.8,50 160.5,31.5 168.2,50 168.2,50.7 168.2,51.4 168.3,52.1 168.5,52.8 168.8,53.4 169,54 169.4,54.6 169.8,55.2 170.2,55.8 170.7,56.2 171.3,56.7 171.8,57.1 172.4,57.4 173.1,57.7 173.7,58 174.4,58.2 175.1,58.3 175.8,58.3 176.5,58.3 177.2,58.3 177.9,58.2 178.5,58 179.2,57.7 179.8,57.4 180.4,57.1 181,56.7 181.5,56.2 182,55.8 182.5,55.2 182.9,54.6 183.2,54 183.5,53.4 183.8,52.8 184,52.1 184.1,51.4 184.1,50.7" />
<path stroke="#000000" stroke-width="2" d="M 214.1,70" />
<path stroke="#000000" stroke-width="2" d="M 230.1,30" />
<path stroke="#000000" stroke-width="2" d="M 230.1,30 229.9,34.1 229.3,37.3 228.4,39.8 227.3,41.5 225.9,42.7 224.5,43.2 223,43.3 221.5,43 220.1,42.3 218.9,41.2 217.9,40 217.2,38.6 216.8,37.2 216.9,35.7 217.5,34.2 218.6,32.9 220.4,31.7 222.8,30.8 226.1,30.2 230.1,30 250.1,30" />
<path stroke="#000000" stroke-width="2" d="M 256.8,70" />
<path stroke="#000000" stroke-width="2" d="M 256.8,20 276.8,20 257,39.8 277,39.8" />
<path stroke="#000000" stroke-width="2" d="M 283.7,70" />
<path stroke="#000000" stroke-width="2" d="M 291.7,20 291.7,35" />
<path stroke="#000000" stroke-width="2" d="M 291.7,35 291.6,37 291.3,38.6 290.8,39.9 290.2,40.8 289.6,41.3 288.8,41.6 288.1,41.7 287.3,41.5 286.7,41.1 286,40.6 285.5,40 285.2,39.3 285,38.6 285.1,37.8 285.3,37.1 285.9,36.4 286.8,35.9 288,35.4 289.6,35.1 291.7,35 311.7,35" />
<path stroke="#000000" stroke-width="2" d="M 341.7,70" />
<path stroke="#000000" stroke-width="2" d="M 341.7,30 341.7,50 351.7,50 371.7,50" />
<path stroke="#000000" stroke-width="2" d="M 401.7,70" />
<path stroke="#000000" stroke-width="2" d="M 401.7,70 401.9,70 401.9,70.2 401.7,70.2 401.7,70" />
<path stroke="#000000" stroke-width="2" d="M 408.5,70" />
<path stroke="#000000" stroke-width="2" d="M 408.5,30 428.3,49.8 408.5,69.6" />
<path stroke="#000000" stroke-width="2" d="M 435,70" />
<path stroke="#000000" stroke-width="2" d="M 435,20 435,40 445,40 465,40 465,55" />
<path stroke="#000000" stroke-width="2" d="M 465,55 464.9,57 464.6,58.6 464.1,59.9 463.6,60.8 462.9,61.3 462.2,61.6 461.4,61.7 460.7,61.5 460,61.1 459.4,60.6 458.9,60 458.5,59.3 458.3,58.6 458.4,57.8 458.7,57.1 459.2,56.4 460.1,55.9 461.4,55.4 463,55.1 465,55" />
<path stroke="#000000" stroke-width="2" d="M 471.7,70" />
<path stroke="#000000" stroke-width="2" d="M 495.7,42" />
<path stroke="#000000" stroke-width="2" d="M 495.7,42 491.6,41.8 488.4,41.2 485.9,40.3 484.1,39.1 483,37.8 482.4,36.3 482.4,34.8 482.7,33.4 483.4,32 484.4,30.8 485.6,29.7 487,29 488.5,28.7 490,28.8 491.4,29.3 492.8,30.5 493.9,32.2 494.9,34.7 495.5,37.9 495.7,42 495.7,50" />
<path stroke="#000000" stroke-width="2" d="M 495.7,50 495,51.7 494.4,53.4 493.6,54.9 492.8,56.3 492,57.6 491.1,58.7 490.2,59.8 489.2,60.8 488.2,61.7 487.2,62.5 486.1,63.2 485,63.8 483.9,64.4 482.8,64.8 481.6,65.2 480.4,65.5 479.3,65.7 478.1,65.9 476.9,66 475.7,66" />
<path stroke="#000000" stroke-width="2" d="M 525.7,70" />
<path stroke="#000000" stroke-width="2" d="M 525.7,30 535.7,30 535.7,70" />
<path stroke="#000000" stroke-width="2" d="M 542.3,70" />
<path stroke="#000000" stroke-width="2" d="M 542.3,50 552.2,59.9 542.3,69.8" />
<path stroke="#000000" stroke-width="2" d="M 558.9,70" />
<path stroke="#000000" stroke-width="2" d="M 558.9,50 578.9,50 598.9,50 579.1,69.8 599.1,69.8" />
<path stroke="#000000" stroke-width="2" d="M 629.1,70" />
<path stroke="#000000" stroke-width="2" d="M 634.1,30" />
<path stroke="#000000" stroke-width="2" d="M 634.1,30 632.7,30.1 631.4,30.6 630.3,31.2 629.3,32.1 628.5,33.1 627.8,34.3 627.3,35.6 626.9,37 626.7,38.5 626.6,40 626.7,41.5 626.9,43 627.3,44.4 627.8,45.7 628.5,46.9 629.3,47.9 630.3,48.8 631.4,49.4 632.7,49.9 634.1,50 641.8,68.5 649.4,50" />
<path stroke="#000000" stroke-width="2" d="M 679.4,70" />
<path stroke="#000000" stroke-width="2" d="M 699.4,30 684.1,67" />
<path stroke="#000000" stroke-width="2" d="M 706.1,70" />
<path stroke="#000000" stroke-width="2" d="M 706.1,20 706.1,40 716.1,40 723.7,58.5" />
<path stroke="#000000" stroke-width="2" d="M 753.7,70" />
<path stroke="#000000" stroke-width="2" d="M 753.7,70 753.9,70 753.9,70.2 753.7,70.2 753.7,70" />
<path stroke="#000000" stroke-width="2" d="M 783.9,70" />
</svg>