<svg xmlns="http://www.w3.org/2000/svg" width="307.4756365507295" height="102.0" style="fill:none; stroke-linecap:round;">
    <rect width="100%" height="100%" fill="#FFFFFF" />
<path stroke="#000000" stroke-width="2" d="M 550,75" />
<path stroke="#000000" stroke-width="2" d="M 20,30 40,30" />
<path stroke="#000000" stroke-width="2" d="M 40,30 41.4,30.1 42.7,30.6 43.8,31.2 44.8,32.1 45.6,33.1 46.3,34.3 46.8,35.6 47.2,37 47.4,38.5 47.5,40 47.4,41.5 47.2,43 46.8,44.4 46.3,45.7 45.6,46.9 44.8,47.9 43.8,48.8 42.7,49.4 41.4,49.9 40,50" />
<path stroke="#000000" stroke-width="2" d="M 77.5,70" />
<path stroke="#000000" stroke-width="2" d="M 77.5,30 77.5,31.4 77.6,32.8 77.9,34.2 78.2,35.5 78.7,36.8 79.3,38.1 80,39.3 80.8,40.4 81.7,41.5 82.7,42.5 83.7,43.4 84.9,44.2 86.1,44.9 87.4,45.5 88.7,46 90,46.3 91.4,46.6 92.8,46.7 94.2,46.7 95.6,46.6 96.9,46.3 98.3,46 99.6,45.5 100.9,44.9 102.1,44.2 103.2,43.4 104.3,42.5 105.3,41.5 106.2,40.4 107,39.3 107.7,38.1 108.3,36.8 108.7,35.5 109.1,34.2 109.3,32.8 109.5,31.4" />
<path stroke="#000000" stroke-width="2" d="M 116.1,70" />
<path stroke="#000000" stroke-width="2" d="M 116.1,35" />
<path stroke="#000000" stroke-width="2" d="M 116.1,35 118.2,34.9 119.8,34.6 121,34.1 121.9,33.6 122.5,32.9 122.8,32.2 122.8,31.4 122.6,30.7 122.3,30 121.8,29.4 121.1,28.9 120.5,28.5 119.7,28.3 119,28.4 118.2,28.7 117.6,29.2 117,30.1 116.5,31.4 116.2,33 116.1,35 116.1,50 136.1,50" />
<path stroke="#000000" stroke-width="2" d="M 166.1,70" />
<path stroke="#000000" stroke-width="2" d="M 186.1,30 170.8,67" />
<path stroke="#000000" stroke-width="2" d="M 192.8,70" />
<path stroke="#000000" stroke-width="2" d="M 192.8,50 193,50 193,50.2 192.8,50.2 192.8,50" />
<path stroke="#000000" stroke-width="2" d="M 223,70" />
<path stroke="#000000" stroke-width="2" d="M 228,30" />
<path stroke="#000000" stroke-width="2" d="M 228,30 226.6,30.1 225.3,30.6 224.2,31.2 223.2,32.1 222.4,33.1 221.7,34.3 221.2,35.6 220.8,37 220.6,38.5 220.5,40 220.6,41.5 220.8,43 221.2,44.4 221.7,45.7 222.4,46.9 223.2,47.9 224.2,48.8 225.3,49.4 226.6,49.9 228,50" />
<path stroke="#000000" stroke-width="2" d="M 228,40" />
<path stroke="#000000" stroke-width="2" d="M 212,40 232,40 252,40 232.2,59.8 252.2,59.8" />
<path stroke="#000000" stroke-width="2" d="M 282.2,70" />
<path stroke="#000000" stroke-width="2" d="M 282.2,70" />
<path stroke="#000000" stroke-width="2" d="M 282.2,70 283.3,70 284.3,70.2 285.1,70.4 285.9,70.7 286.4,71 286.9,71.5 287.2,71.9 287.4,72.5 287.5,73.1 287.5,73.8 287.3,74.4 287.1,75.2 286.8,76 286.4,76.8 285.9,77.6 285.3,78.4 284.6,79.3 283.9,80.2 283.1,81.1 282.2,82" />
<path stroke="#000000" stroke-width="2" d="M 317.5,70" />
</svg>