<svg xmlns="http://www.w3.org/2000/svg" width="537.4180117753915" height="90.2" style="fill:none; stroke-linecap:round;">
    <rect width="100%" height="100%" fill="#FFFFFF" />
<path stroke="#000000" stroke-width="2" d="M 550,75" />
<path stroke="#000000" stroke-width="2" d="M 20,30 20,70" />
<path stroke="#000000" stroke-width="2" d="M 26.7,70" />
<path stroke="#000000" stroke-width="2" d="M 26.7,30 26.9,30 26.9,30.2 26.7,30.2 26.7,30" />
<path stroke="#000000" stroke-width="2" d="M 56.9,70" />
<path stroke="#000000" stroke-width="2" d="M 61.9,30" />
<path stroke="#000000" stroke-width="2" d="M 61.9,30 60.4,30.1 59.2,30.6 58,31.2 57.1,32.1 56.2,33.1 55.6,34.3 55,35.6 54.7,37 54.4,38.5 54.4,40 54.4,41.5 54.7,43 55,44.4 55.6,45.7 56.2,46.9 57.1,47.9 58,48.8 59.2,49.4 60.4,49.9 61.9,50 81.9,50" />
<path stroke="#000000" stroke-width="2" d="M 111.9,70" />
<path stroke="#000000" stroke-width="2" d="M 111.9,30 111.9,38 111.9,39 112,40.1 112.1,41.1 112.4,42.1 112.8,43.1 113.2,44.1 113.7,45 114.3,45.8 115,46.6 115.7,47.4 116.6,48 117.4,48.6 118.3,49.2 119.3,49.6 120.2,50 121.3,50.2 122.3,50.4 123.3,50.5 124.4,50.5 125.4,50.4 126.5,50.2 127.5,50 128.4,49.6 129.4,49.2 130.3,48.6 131.2,48 132,47.4 132.7,46.6 133.4,45.8 134,45 134.5,44.1 134.9,43.1 135.3,42.1 135.6,41.1 135.8,40.1 135.8,39 135.8,29 135.8,69" />
<path stroke="#000000" stroke-width="2" d="M 142.5,70" />
<path stroke="#000000" stroke-width="2" d="M 142.5,50" />
<path stroke="#000000" stroke-width="2" d="M 142.5,50 143.9,50.1 145.2,50.6 146.3,51.2 147.3,52.1 148.1,53.1 148.8,54.3 149.3,55.6 149.7,57 149.9,58.5 150,60 149.9,61.5 149.7,63 149.3,64.4 148.8,65.7 148.1,66.9 147.3,67.9 146.3,68.8 145.2,69.4 143.9,69.9 142.5,70" />
<path stroke="#000000" stroke-width="2" d="M 180,70" />
<path stroke="#000000" stroke-width="2" d="M 200,30 184.7,67" />
<path stroke="#000000" stroke-width="2" d="M 206.7,70" />
<path stroke="#000000" stroke-width="2" d="M 206.7,20 214.3,38.5 234.3,38.5 214.5,58.3 234.5,58.3" />
<path stroke="#000000" stroke-width="2" d="M 264.5,70" />
<path stroke="#000000" stroke-width="2" d="M 264.5,30 264.5,70 275.8,58.7" />
<path stroke="#000000" stroke-width="2" d="M 282.5,70" />
<path stroke="#000000" stroke-width="2" d="M 302.5,70 304.3,70 306,69.8 307.7,69.5 309.4,69.1 311,68.5 312.6,67.8 314.1,66.9 315.6,65.9 316.9,64.8 318.1,63.5 319.3,62.2 320.3,60.8 321.1,59.3 321.9,57.7 322.5,56 322.9,54.3 323.2,52.6 323.4,50.9 323.4,49.1 323.2,47.4 322.9,45.7 322.5,44 321.9,42.4 321.1,40.8 320.3,39.3 319.3,37.8 318.1,36.5 316.9,35.3 315.6,34.2 314.1,33.2 312.6,32.3 311,31.5 309.4,30.9 307.7,30.5 306,30.2 304.3,30 302.5,30 300.8,30.2 299.1,30.5 297.4,30.9 295.7,31.5 294.1,32.3 292.6,33.2 291.2,34.2 289.9,35.3 288.6,36.5 287.5,37.8 286.5,39.3 285.6,40.8 284.9,42.4 284.3,44 283.9,45.7 283.6,47.4 283.4,49.1 283.4,50.9 283.6,52.6 283.9,54.3 284.3,56 284.9,57.7 285.6,59.3 286.5,60.8 287.5,62.2 288.6,63.5 289.9,64.8 291.2,65.9 292.6,66.9 294.1,67.8 295.7,68.5 297.4,69.1 299.1,69.5 300.8,69.8 302.5,70" />
<path stroke="#000000" stroke-width="2" d="M 353.4,70" />
<path stroke="#000000" stroke-width="2" d="M 358.4,30" />
<path stroke="#000000" stroke-width="2" d="M 358.4,30 356.9,30.1 355.7,30.6 354.5,31.2 353.6,32.1 352.7,33.1 352.1,34.3 351.5,35.6 351.2,37 350.9,38.5 350.9,40 350.9,41.5 351.2,43 351.5,44.4 352.1,45.7 352.7,46.9 353.6,47.9 354.5,48.8 355.7,49.4 356.9,49.9 358.4,50 358.4,50.7 358.4,51.4 358.5,52.1 358.7,52.8 359,53.4 359.3,54 359.6,54.6 360,55.2 360.5,55.8 361,56.2 361.5,56.7 362.1,57.1 362.7,57.4 363.3,57.7 364,58 364.6,58.2 365.3,58.3 366,58.3 366.7,58.3 367.4,58.3 368.1,58.2 368.8,58 369.4,57.7 370.1,57.4 370.7,57.1 371.2,56.7 371.8,56.2 372.3,55.8 372.7,55.2 373.1,54.6 373.5,54 373.7,53.4 374,52.8 374.2,52.1 374.3,51.4 374.4,50.7" />
<path stroke="#000000" stroke-width="2" d="M 404.4,70" />
<path stroke="#000000" stroke-width="2" d="M 420.4,30" />
<path stroke="#000000" stroke-width="2" d="M 420.4,30 420.1,34.1 419.5,37.3 418.6,39.8 417.5,41.5 416.1,42.7 414.7,43.2 413.2,43.3 411.7,43 410.3,42.3 409.1,41.2 408.1,40 407.4,38.6 407,37.2 407.1,35.7 407.7,34.2 408.8,32.9 410.6,31.7 413.1,30.8 416.3,30.2 420.4,30 440.4,30" />
<path stroke="#000000" stroke-width="2" d="M 447,70" />
<path stroke="#000000" stroke-width="2" d="M 447,25" />
<path stroke="#000000" stroke-width="2" d="M 447,25 449,24.9 450.7,24.6 451.9,24.1 452.8,23.6 453.3,22.9 453.6,22.2 453.7,21.4 453.5,20.7 453.1,20 452.6,19.4 452,18.9 451.3,18.5 450.6,18.3 449.9,18.4 449.1,18.7 448.5,19.2 447.9,20.1 447.4,21.4 447.1,23 447,25 447,40 467,40 487,40 467.2,59.8 487.2,59.8" />
<path stroke="#000000" stroke-width="2" d="M 517.2,70" />
<path stroke="#000000" stroke-width="2" d="M 517.2,70 517.4,70 517.4,70.2 517.2,70.2 517.2,70" />
<path stroke="#000000" stroke-width="2" d="M 547.4,70" />
</svg>