<svg xmlns="http://www.w3.org/2000/svg" width="403.1911573299312" height="90.2" style="fill:none; stroke-linecap:round;">
    <rect width="100%" height="100%" fill="#FFFFFF" />
<path stroke="#000000" stroke-width="2" d="M 550,75" />
<path stroke="#000000" stroke-width="2" d="M 40,30 40,70 20,70" />
<path stroke="#000000" stroke-width="2" d="M 46.7,70" />
<path stroke="#000000" stroke-width="2" d="M 46.7,50 46.9,50 46.9,50.2 46.7,50.2 46.7,50" />
<path stroke="#000000" stroke-width="2" d="M 76.9,70" />
<path stroke="#000000" stroke-width="2" d="M 92.9,30 73.1,49.8 92.9,69.6" />
<path stroke="#000000" stroke-width="2" d="M 99.5,70" />
<path stroke="#000000" stroke-width="2" d="M 99.5,20 107.2,38.5 114.8,20" />
<path stroke="#000000" stroke-width="2" d="M 144.8,70" />
<path stroke="#000000" stroke-width="2" d="M 144.8,40 145,40 145,40.2 144.8,40.2 144.8,40" />
<path stroke="#000000" stroke-width="2" d="M 151.7,70" />
<path stroke="#000000" stroke-width="2" d="M 151.7,30 151.7,70 151.7,58 151.7,56.3 151.9,54.5 152.2,52.8 152.6,51.1 153.2,49.5 153.9,47.9 154.8,46.4 155.8,45 156.9,43.6 158.2,42.4 159.5,41.3 160.9,40.3 162.5,39.4 164,38.7 165.7,38.1 167.4,37.6 169.1,37.3 170.8,37.1" />
<path stroke="#000000" stroke-width="2" d="M 177.5,70" />
<path stroke="#000000" stroke-width="2" d="M 177.5,20 177.5,40 187.5,40 179.8,58.5" />
<path stroke="#000000" stroke-width="2" d="M 217.5,70" />
<path stroke="#000000" stroke-width="2" d="M 237.5,30 222.2,67" />
<path stroke="#000000" stroke-width="2" d="M 244.1,70" />
<path stroke="#000000" stroke-width="2" d="M 244.1,50 244.3,50 244.3,50.2 244.1,50.2 244.1,50" />
<path stroke="#000000" stroke-width="2" d="M 274.3,70" />
<path stroke="#000000" stroke-width="2" d="M 274.3,30 274.3,70" />
<path stroke="#000000" stroke-width="2" d="M 281,70" />
<path stroke="#000000" stroke-width="2" d="M 281,30 281.2,30 281.2,30.2 281,30.2 281,30" />
<path stroke="#000000" stroke-width="2" d="M 311.2,70" />
<path stroke="#000000" stroke-width="2" d="M 327.2,30 307.4,49.8 327.2,69.6" />
<path stroke="#000000" stroke-width="2" d="M 333.9,70" />
<path stroke="#000000" stroke-width="2" d="M 333.9,30 333.9,70 333.9,58 333.9,56.3 334,54.5 334.3,52.8 334.8,51.1 335.4,49.5 336.1,47.9 337,46.4 338,45 339.1,43.6 340.4,42.4 341.7,41.3 343.1,40.3 344.6,39.4 346.2,38.7 347.8,38.1 349.5,37.6 351.3,37.3 353,37.1" />
<path stroke="#000000" stroke-width="2" d="M 383,70" />
<path stroke="#000000" stroke-width="2" d="M 383,70 383.2,70 383.2,70.2 383,70.2 383,70" />
<path stroke="#000000" stroke-width="2" d="M 413.2,70" />
</svg>