<svg xmlns="http://www.w3.org/2000/svg" width="571.7460081424415" height="109.79898987322333" style="fill:none; stroke-linecap:round;">
    <rect width="100%" height="100%" fill="#FFFFFF" />
<path stroke="#000000" stroke-width="2" d="M 550,75" />
<path stroke="#000000" stroke-width="2" d="M 20,30 40,30" />
<path stroke="#000000" stroke-width="2" d="M 40,30 41.4,30.1 42.7,30.6 43.8,31.2 44.8,32.1 45.6,33.1 46.3,34.3 46.8,35.6 47.2,37 47.4,38.5 47.5,40 47.4,41.5 47.2,43 46.8,44.4 46.3,45.7 45.6,46.9 44.8,47.9 43.8,48.8 42.7,49.4 41.4,49.9 40,50" />
<path stroke="#000000" stroke-width="2" d="M 77.5,70" />
<path stroke="#000000" stroke-width="2" d="M 77.5,30 85.2,48.5 92.8,30" />
<path stroke="#000000" stroke-width="2" d="M 92.8,40" />
<path stroke="#000000" stroke-width="2" d="M 76.8,40 93.8,40 93.8,60 99.5,54.3" />
<path stroke="#000000" stroke-width="2" d="M 106.1,70" />
<path stroke="#000000" stroke-width="2" d="M 106.1,20 106.1,40 106.1,34 106.1,33.1 106.2,32.3 106.4,31.4 106.6,30.6 106.9,29.7 107.3,28.9 107.7,28.2 108.2,27.5 108.7,26.8 109.4,26.2 110,25.6 110.7,25.1 111.5,24.7 112.3,24.3 113.1,24 114,23.8 114.8,23.6 115.7,23.6" />
<path stroke="#000000" stroke-width="2" d="M 145.7,70" />
<path stroke="#000000" stroke-width="2" d="M 145.7,30 145.7,31.4 145.8,32.8 146,34.2 146.4,35.5 146.9,36.8 147.5,38.1 148.2,39.3 149,40.4 149.9,41.5 150.9,42.5 151.9,43.4 153.1,44.2 154.3,44.9 155.5,45.5 156.9,46 158.2,46.3 159.6,46.6 161,46.7 162.4,46.7 163.8,46.6 165.1,46.3 166.5,46 167.8,45.5 169.1,44.9 170.3,44.2 171.4,43.4 172.5,42.5 173.5,41.5 174.4,40.4 175.2,39.3 175.9,38.1 176.5,36.8 176.9,35.5 177.3,34.2 177.5,32.8 177.7,31.4" />
<path stroke="#000000" stroke-width="2" d="M 184.3,70" />
<path stroke="#000000" stroke-width="2" d="M 184.3,20 184.3,40 194.3,40 199.3,40 199.3,60" />
<path stroke="#000000" stroke-width="2" d="M 229.3,70" />
<path stroke="#000000" stroke-width="2" d="M 229.3,30 229.3,50 239.3,50 259.3,50 239.5,69.8 259.5,69.8" />
<path stroke="#000000" stroke-width="2" d="M 289.5,70" />
<path stroke="#000000" stroke-width="2" d="M 289.5,30 299.5,30 299.5,70" />
<path stroke="#000000" stroke-width="2" d="M 299.5,50" />
<path stroke="#000000" stroke-width="2" d="M 291.5,50 307.5,50" />
<path stroke="#000000" stroke-width="2" d="M 337.5,70" />
<path stroke="#000000" stroke-width="2" d="M 337.5,50 345.2,31.5 352.8,50 360.5,68.5 368.1,50" />
<path stroke="#000000" stroke-width="2" d="M 398.1,70" />
<path stroke="#000000" stroke-width="2" d="M 414.1,30 394.3,49.8 414.1,69.6" />
<path stroke="#000000" stroke-width="2" d="M 420.8,70" />
<path stroke="#000000" stroke-width="2" d="M 420.8,20 420.8,40 420.8,34 420.8,33.1 420.9,32.3 421,31.4 421.3,30.6 421.6,29.7 421.9,28.9 422.4,28.2 422.9,27.5 423.4,26.8 424,26.2 424.7,25.6 425.4,25.1 426.2,24.7 427,24.3 427.8,24 428.6,23.8 429.5,23.6 430.4,23.6" />
<path stroke="#000000" stroke-width="2" d="M 437,70" />
<path stroke="#000000" stroke-width="2" d="M 437,50" />
<path stroke="#000000" stroke-width="2" d="M 437,50 437.2,50 437.6,50 438.2,50 439.1,50.1 440.1,50.2 441.3,50.3 442.7,50.4 444.1,50.6 445.5,50.9 447,51.2 448.5,51.7 450,52.2 451.4,52.7 452.7,53.4 453.9,54.2 454.9,55.1 455.8,56.1 456.5,57.3 456.9,58.6 457,60" />
<path stroke="#000000" stroke-width="2" d="M 457,60 458.9,62.1 460.3,64.1 461,65.7 461.3,67.2 461.2,68.4 460.8,69.5 460.1,70.2 459.2,70.8 458.1,71.1 457,71.2 455.9,71.1 454.9,70.8 454,70.2 453.2,69.5 452.8,68.4 452.7,67.2 453,65.7 453.8,64 455.1,62.1 457,60" />
<path stroke="#000000" stroke-width="2" d="M 457,60 457,59.9 457,59.7 457.1,59.4 457.2,59 457.3,58.4 457.6,57.8 457.9,57.2 458.3,56.5 458.8,55.7 459.5,55 460.4,54.3 461.3,53.5 462.5,52.8 463.9,52.2 465.5,51.6 467.3,51 469.3,50.6 471.6,50.3 474.2,50.1 477,50 477,70 487,70 507,70 487.2,89.8 507.2,89.8" />
<path stroke="#000000" stroke-width="2" d="M 513.9,70" />
<path stroke="#000000" stroke-width="2" d="M 513.9,20 521.5,38.5" />
<path stroke="#000000" stroke-width="2" d="M 551.5,70" />
<path stroke="#000000" stroke-width="2" d="M 551.5,70 551.7,70 551.7,70.2 551.5,70.2 551.5,70" />
<path stroke="#000000" stroke-width="2" d="M 581.7,70" />
</svg>