<svg xmlns="http://www.w3.org/2000/svg" width="439.91947767440695" height="98.34134087157756" style="fill:none; stroke-linecap:round;">
    <rect width="100%" height="100%" fill="#FFFFFF" />
<path stroke="#000000" stroke-width="2" d="M 550,75" />
<path stroke="#000000" stroke-width="2" d="M 20,30 20,70" />
<path stroke="#000000" stroke-width="2" d="M 26.7,70" />
<path stroke="#000000" stroke-width="2" d="M 26.7,30 26.9,30 26.9,30.2 26.7,30.2 26.7,30" />
<path stroke="#000000" stroke-width="2" d="M 56.9,70" />
<path stroke="#000000" stroke-width="2" d="M 56.9,30 76.7,49.8 56.9,69.6" />
<path stroke="#000000" stroke-width="2" d="M 83.3,70" />
<path stroke="#000000" stroke-width="2" d="M 83.3,50 91,31.5 98.6,50 103.6,50 103.6,70 103.6,70.7 103.7,71.4 103.8,72.1 104,72.8 104.2,73.4 104.5,74 104.9,74.6 105.3,75.2 105.7,75.8 106.2,76.2 106.8,76.7 107.3,77.1 107.9,77.4 108.6,77.7 109.2,78 109.9,78.2 110.6,78.3 111.3,78.3 112,78.3 112.7,78.3 113.4,78.2 114,78 114.7,77.7 115.3,77.4 115.9,77.1 116.5,76.7 117,76.2 117.5,75.8 118,75.2 118.4,74.6 118.7,74 119,73.4 119.3,72.8 119.4,72.1 119.6,71.4 119.6,70.7" />
<path stroke="#000000" stroke-width="2" d="M 149.6,70" />
<path stroke="#000000" stroke-width="2" d="M 149.6,70 149.8,70 149.8,70.2 149.6,70.2 149.6,70" />
<path stroke="#000000" stroke-width="2" d="M 179.8,70" />
<path stroke="#000000" stroke-width="2" d="M 179.8,35" />
<path stroke="#000000" stroke-width="2" d="M 179.8,35 181.9,34.9 183.5,34.6 184.7,34.1 185.6,33.6 186.2,32.9 186.4,32.2 186.5,31.4 186.3,30.7 186,30 185.4,29.4 184.8,28.9 184.1,28.5 183.4,28.3 182.7,28.4 181.9,28.7 181.3,29.2 180.7,30.1 180.2,31.4 179.9,33 179.8,35 179.8,50 172.2,68.5 174.5,62.9 174.8,62.1 175.2,61.4 175.7,60.6 176.2,59.9 176.8,59.3 177.4,58.7 178.1,58.2 178.9,57.7 179.6,57.3 180.4,57 181.3,56.7 182.1,56.5" />
<path stroke="#000000" stroke-width="2" d="M 193.1,70" />
<path stroke="#000000" stroke-width="2" d="M 193.1,20 193.1,40 203.1,40 210.8,58.5 218.5,40" />
<path stroke="#000000" stroke-width="2" d="M 248.5,70" />
<path stroke="#000000" stroke-width="2" d="M 268.5,30 253.1,67" />
<path stroke="#000000" stroke-width="2" d="M 275.1,70" />
<path stroke="#000000" stroke-width="2" d="M 275.1,50 275.3,50 275.3,50.2 275.1,50.2 275.1,50" />
<path stroke="#000000" stroke-width="2" d="M 305.3,70" />
<path stroke="#000000" stroke-width="2" d="M 305.3,30 305.3,70" />
<path stroke="#000000" stroke-width="2" d="M 312,70" />
<path stroke="#000000" stroke-width="2" d="M 312,30 312.2,30 312.2,30.2 312,30.2 312,30" />
<path stroke="#000000" stroke-width="2" d="M 342.2,70" />
<path stroke="#000000" stroke-width="2" d="M 358.2,30 338.4,49.8 358.2,69.6" />
<path stroke="#000000" stroke-width="2" d="M 364.9,70" />
<path stroke="#000000" stroke-width="2" d="M 372.9,20" />
<path stroke="#000000" stroke-width="2" d="M 372.9,20 372.7,22 372.4,23.6 372,24.9 371.4,25.8 370.7,26.3 370,26.6 369.3,26.7 368.5,26.5 367.8,26.1 367.2,25.6 366.7,25 366.4,24.3 366.2,23.6 366.2,22.8 366.5,22.1 367.1,21.4 368,20.9 369.2,20.4 370.8,20.1 372.9,20 382.9,20" />
<path stroke="#000000" stroke-width="2" d="M 389.5,70" />
<path stroke="#000000" stroke-width="2" d="M 389.5,30 389.7,30 389.7,30.2 389.5,30.2 389.5,30" />
<path stroke="#000000" stroke-width="2" d="M 419.7,70" />
<path stroke="#000000" stroke-width="2" d="M 419.7,70 419.9,70 419.9,70.2 419.7,70.2 419.7,70" />
<path stroke="#000000" stroke-width="2" d="M 449.9,70" />
</svg>