<svg xmlns="http://www.w3.org/2000/svg" width="558.554896772829" height="110.0" style="fill:none; stroke-linecap:round;">
    <rect width="100%" height="100%" fill="#FFFFFF" />
<path stroke="#000000" stroke-width="2" d="M 550,75" />
<path stroke="#000000" stroke-width="2" d="M 20,30 40,30" />
<path stroke="#000000" stroke-width="2" d="M 40,30 41.4,30.1 42.7,30.6 43.8,31.2 44.8,32.1 45.6,33.1 46.3,34.3 46.8,35.6 47.2,37 47.4,38.5 47.5,40 47.4,41.5 47.2,43 46.8,44.4 46.3,45.7 45.6,46.9 44.8,47.9 43.8,48.8 42.7,49.4 41.4,49.9 40,50" />
<path stroke="#000000" stroke-width="2" d="M 77.5,70" />
<path stroke="#000000" stroke-width="2" d="M 77.5,30 77.5,70 88.8,58.7" />
<path stroke="#000000" stroke-width="2" d="M 95.5,70" />
<path stroke="#000000" stroke-width="2" d="M 105.5,20 97.8,38.5 105.5,57 113.1,38.5" />
<path stroke="#000000" stroke-width="2" d="M 113.1,48.5" />
<path stroke="#000000" stroke-width="2" d="M 97.1,48.5 114.1,48.5" />
<path stroke="#000000" stroke-width="2" d="M 144.1,70" />
<path stroke="#000000" stroke-width="2" d="M 164.1,30 164.1,70 144.1,70" />
<path stroke="#000000" stroke-width="2" d="M 170.8,70" />
<path stroke="#000000" stroke-width="2" d="M 170.8,70 178.5,51.5 186.1,70 186.1,90 186.1,84 186.1,83.1 186.2,82.3 186.3,81.4 186.6,80.6 186.9,79.7 187.2,78.9 187.7,78.2 188.2,77.5 188.7,76.8 189.3,76.2 190,75.6 190.7,75.1 191.5,74.7 192.3,74.3 193.1,74 193.9,73.8 194.8,73.6 195.7,73.6" />
<path stroke="#000000" stroke-width="2" d="M 225.7,70" />
<path stroke="#000000" stroke-width="2" d="M 225.7,30 225.7,31.4 225.8,32.8 226,34.2 226.4,35.5 226.9,36.8 227.5,38.1 228.2,39.3 229,40.4 229.9,41.5 230.8,42.5 231.9,43.4 233.1,44.2 234.3,44.9 235.5,45.5 236.8,46 238.2,46.3 239.6,46.6 240.9,46.7 242.3,46.7 243.7,46.6 245.1,46.3 246.5,46 247.8,45.5 249,44.9 250.2,44.2 251.4,43.4 252.5,42.5 253.4,41.5 254.3,40.4 255.1,39.3 255.8,38.1 256.4,36.8 256.9,35.5 257.3,34.2 257.5,32.8 257.6,31.4" />
<path stroke="#000000" stroke-width="2" d="M 264.3,70" />
<path stroke="#000000" stroke-width="2" d="M 264.3,20 264.3,40 274.3,40 274.3,60" />
<path stroke="#000000" stroke-width="2" d="M 281,70" />
<path stroke="#000000" stroke-width="2" d="M 281,20 281,40 281,34 281,33.1 281,32.3 281.2,31.4 281.4,30.6 281.7,29.7 282.1,28.9 282.5,28.2 283,27.5 283.6,26.8 284.2,26.2 284.9,25.6 285.6,25.1 286.3,24.7 287.1,24.3 287.9,24 288.8,23.8 289.7,23.6 290.5,23.6 310.5,23.6 290.7,43.4 310.7,43.4" />
<path stroke="#000000" stroke-width="2" d="M 340.7,70" />
<path stroke="#000000" stroke-width="2" d="M 340.7,30 360.7,30" />
<path stroke="#000000" stroke-width="2" d="M 360.7,30 362.1,30.1 363.4,30.6 364.5,31.2 365.5,32.1 366.3,33.1 367,34.3 367.5,35.6 367.9,37 368.1,38.5 368.2,40 368.1,41.5 367.9,43 367.5,44.4 367,45.7 366.3,46.9 365.5,47.9 364.5,48.8 363.4,49.4 362.1,49.9 360.7,50" />
<path stroke="#000000" stroke-width="2" d="M 398.2,70" />
<path stroke="#000000" stroke-width="2" d="M 398.2,50 405.9,31.5 413.5,50" />
<path stroke="#000000" stroke-width="2" d="M 413.5,50 415.6,49.9 417.2,49.6 418.4,49.1 419.3,48.6 419.9,47.9 420.1,47.2 420.2,46.4 420,45.7 419.7,45 419.2,44.4 418.5,43.9 417.8,43.5 417.1,43.3 416.4,43.4 415.6,43.7 415,44.2 414.4,45.1 413.9,46.4 413.6,48 413.5,50 413.5,65" />
<path stroke="#000000" stroke-width="2" d="M 413.5,65 413.4,67 413.1,68.6 412.7,69.9 412.1,70.8 411.4,71.3 410.7,71.6 409.9,71.7 409.2,71.5 408.5,71.1 407.9,70.6 407.4,70 407,69.3 406.9,68.6 406.9,67.8 407.2,67.1 407.8,66.4 408.7,65.9 409.9,65.4 411.5,65.1 413.5,65 423.5,65" />
<path stroke="#000000" stroke-width="2" d="M 430.2,70" />
<path stroke="#000000" stroke-width="2" d="M 430.2,20 430.2,40 430.2,34 430.2,33.1 430.3,32.3 430.4,31.4 430.6,30.6 430.9,29.7 431.3,28.9 431.8,28.2 432.3,27.5 432.8,26.8 433.4,26.2 434.1,25.6 434.8,25.1 435.6,24.7 436.4,24.3 437.2,24 438,23.8 438.9,23.6 439.7,23.6" />
<path stroke="#000000" stroke-width="2" d="M 446.4,70" />
<path stroke="#000000" stroke-width="2" d="M 446.4,20 446.4,40 456.4,40 456.4,55" />
<path stroke="#000000" stroke-width="2" d="M 456.4,55 456.3,57 456,58.6 455.6,59.9 455,60.8 454.3,61.3 453.6,61.6 452.8,61.7 452.1,61.5 451.4,61.1 450.8,60.6 450.3,60 449.9,59.3 449.8,58.6 449.8,57.8 450.1,57.1 450.7,56.4 451.5,55.9 452.8,55.4 454.4,55.1 456.4,55" />
<path stroke="#000000" stroke-width="2" d="M 463.1,70" />
<path stroke="#000000" stroke-width="2" d="M 463.1,20 483.1,20 503.1,20 483.3,39.8 503.3,39.8" />
<path stroke="#000000" stroke-width="2" d="M 533.3,70" />
<path stroke="#000000" stroke-width="2" d="M 533.3,70" />
<path stroke="#000000" stroke-width="2" d="M 533.3,70 534.4,70 535.4,70.2 536.2,70.4 536.9,70.7 537.5,71 537.9,71.5 538.3,71.9 538.5,72.5 538.6,73.1 538.5,73.8 538.4,74.4 538.2,75.2 537.9,76 537.4,76.8 536.9,77.6 536.4,78.4 535.7,79.3 535,80.2 534.2,81.1 533.3,82" />
<path stroke="#000000" stroke-width="2" d="M 568.6,70" />
</svg>