<svg xmlns="http://www.w3.org/2000/svg" width="447.96730806429923" height="102.0" style="fill:none; stroke-linecap:round;">
    <rect width="100%" height="100%" fill="#FFFFFF" />
<path stroke="#000000" stroke-width="2" d="M 550,75" />
<path stroke="#000000" stroke-width="2" d="M 20,30 60,30" />
<path stroke="#000000" stroke-width="2" d="M 66.7,70" />
<path stroke="#000000" stroke-width="2" d="M 66.7,20 66.7,40 76.7,40 77.5,40 78.4,39.9 79.3,39.8 80.1,39.5 80.9,39.2 81.7,38.9 82.5,38.4 83.2,37.9 83.9,37.4 84.5,36.8 85,36.1 85.5,35.4 86,34.6 86.3,33.8 86.6,33 86.9,32.2 87,31.3 87.1,30.4 87.1,29.6 87,28.7 86.9,27.8 86.6,27 86.3,26.2 86,25.4 85.5,24.6 85,23.9 84.5,23.3 83.9,22.6 83.2,22.1 82.5,21.6 81.7,21.1 80.9,20.8 80.1,20.5 79.3,20.2 78.4,20.1 77.5,20 76.7,20 75.8,20.1 74.9,20.2 74.1,20.5 73.3,20.8 72.5,21.1 71.7,21.6 71,22.1 70.3,22.6 69.7,23.3 69.2,23.9 68.7,24.6 68.2,25.4 67.9,26.2 67.6,27 67.3,27.8 67.2,28.7 67.1,29.6 67.1,30.4 67.2,31.3 67.3,32.2 67.6,33 67.9,33.8 68.2,34.6 68.7,35.4 69.2,36.1 69.7,36.8 70.3,37.4 71,37.9 71.7,38.4 72.5,38.9 73.3,39.2 74.1,39.5 74.9,39.8 75.8,39.9 76.7,40" />
<path stroke="#000000" stroke-width="2" d="M 93.8,70" />
<path stroke="#000000" stroke-width="2" d="M 93.8,20 94,20 94,20.2 93.8,20.2 93.8,20" />
<path stroke="#000000" stroke-width="2" d="M 124,70" />
<path stroke="#000000" stroke-width="2" d="M 124,30 124,70" />
<path stroke="#000000" stroke-width="2" d="M 130.6,70" />
<path stroke="#000000" stroke-width="2" d="M 130.6,30 130.8,30 130.8,30.2 130.6,30.2 130.6,30" />
<path stroke="#000000" stroke-width="2" d="M 160.8,70" />
<path stroke="#000000" stroke-width="2" d="M 160.8,40" />
<path stroke="#000000" stroke-width="2" d="M 160.8,40 164.9,39.8 168.1,39.2 170.6,38.3 172.3,37.1 173.5,35.8 174.1,34.3 174.1,32.8 173.8,31.4 173.1,30 172.1,28.8 170.9,27.7 169.5,27 168,26.7 166.5,26.8 165,27.3 163.7,28.5 162.5,30.2 161.6,32.7 161,35.9 160.8,40 160.8,70" />
<path stroke="#000000" stroke-width="2" d="M 180.8,70" />
<path stroke="#000000" stroke-width="2" d="M 180.8,30 220.8,30" />
<path stroke="#000000" stroke-width="2" d="M 227.5,70" />
<path stroke="#000000" stroke-width="2" d="M 227.5,50 227.5,49.3 227.5,48.6 227.7,47.9 227.8,47.2 228.1,46.6 228.4,46 228.7,45.4 229.1,44.8 229.6,44.2 230.1,43.8 230.6,43.3 231.2,42.9 231.8,42.6 232.4,42.3 233.1,42 233.7,41.8 234.4,41.7 235.1,41.7 235.8,41.7 236.5,41.7 237.2,41.8 237.9,42 238.5,42.3 239.2,42.6 239.8,42.9 240.3,43.3 240.9,43.8 241.4,44.2 241.8,44.8 242.2,45.4 242.6,46 242.9,46.6 243.1,47.2 243.3,47.9 243.4,48.6 243.5,49.3 243.5,50 243.5,50.7 243.6,51.4 243.8,52.1 244.1,52.7 244.3,53.3 244.7,53.9 245.1,54.5 245.5,55.1 246,55.5 246.6,56 247.1,56.4 247.8,56.7 248.4,57 249,57.3 249.7,57.5 250.4,57.6 251.1,57.6 251.8,57.6 252.5,57.6 253.2,57.5 253.9,57.3 254.5,57 255.1,56.7 255.7,56.4 256.3,56 256.9,55.5 257.3,55.1 257.8,54.5 258.2,53.9 258.5,53.3 258.8,52.7 259.1,52.1 259.3,51.4 259.4,50.7 259.4,50" />
<path stroke="#000000" stroke-width="2" d="M 289.4,70" />
<path stroke="#000000" stroke-width="2" d="M 289.4,46 300.8,34.7 300.8,74.7" />
<path stroke="#000000" stroke-width="2" d="M 300.8,54.7" />
<path stroke="#000000" stroke-width="2" d="M 292.8,54.7 308.8,54.7" />
<path stroke="#000000" stroke-width="2" d="M 338.8,70" />
<path stroke="#000000" stroke-width="2" d="M 338.8,30 338.8,31.4 338.9,32.8 339.1,34.2 339.5,35.5 340,36.8 340.5,38.1 341.2,39.3 342,40.4 342.9,41.5 343.9,42.5 345,43.4 346.1,44.2 347.3,44.9 348.6,45.5 349.9,46 351.3,46.3 352.6,46.6 354,46.7 355.4,46.7 356.8,46.6 358.2,46.3 359.5,46 360.9,45.5 362.1,44.9 363.3,44.2 364.5,43.4 365.5,42.5 366.5,41.5 367.4,40.4 368.2,39.3 368.9,38.1 369.5,36.8 370,35.5 370.4,34.2 370.6,32.8 370.7,31.4" />
<path stroke="#000000" stroke-width="2" d="M 377.4,70" />
<path stroke="#000000" stroke-width="2" d="M 377.4,20 385,38.5 392.7,20" />
<path stroke="#000000" stroke-width="2" d="M 422.7,70" />
<path stroke="#000000" stroke-width="2" d="M 422.7,70" />
<path stroke="#000000" stroke-width="2" d="M 422.7,70 423.8,70 424.8,70.2 425.6,70.4 426.3,70.7 426.9,71 427.4,71.5 427.7,71.9 427.9,72.5 428,73.1 427.9,73.8 427.8,74.4 427.6,75.2 427.3,76 426.9,76.8 426.4,77.6 425.8,78.4 425.1,79.3 424.4,80.2 423.6,81.1 422.7,82" />
<path stroke="#000000" stroke-width="2" d="M 458,70" />
</svg>