<svg xmlns="http://www.w3.org/2000/svg" width="550.2475021998187" height="102.0" style="fill:none; stroke-linecap:round;">
    <rect width="100%" height="100%" fill="#FFFFFF" />
<path stroke="#000000" stroke-width="2" d="M 550,75" />
<path stroke="#000000" stroke-width="2" d="M 40,30 24.7,67" />
<path stroke="#000000" stroke-width="2" d="M 46.7,70" />
<path stroke="#000000" stroke-width="2" d="M 46.7,20 46.7,40 56.7,40 56.7,39.3 56.7,38.6 56.8,37.9 57,37.2 57.3,36.6 57.6,36 57.9,35.4 58.3,34.8 58.8,34.2 59.3,33.8 59.8,33.3 60.4,32.9 61,32.6 61.6,32.3 62.3,32 62.9,31.8 63.6,31.7 64.3,31.7 65,31.7 65.7,31.7 66.4,31.8 67.1,32 67.7,32.3 68.4,32.6 69,32.9 69.5,33.3 70.1,33.8 70.6,34.2 71,34.8 71.4,35.4 71.8,36 72.1,36.6 72.3,37.2 72.5,37.9 72.6,38.6 72.7,39.3" />
<path stroke="#000000" stroke-width="2" d="M 102.7,70" />
<path stroke="#000000" stroke-width="2" d="M 102.7,70 102.7,68.6 102.8,67.2 103,65.8 103.4,64.5 103.9,63.2 104.4,61.9 105.1,60.7 105.9,59.6 106.8,58.5 107.8,57.5 108.9,56.6 110,55.8 111.2,55.1 112.5,54.5 113.8,54 115.2,53.7 116.5,53.4 117.9,53.3 119.3,53.3 120.7,53.4 122.1,53.7 123.4,54 124.8,54.5 126,55.1 127.2,55.8 128.4,56.6 129.4,57.5 130.4,58.5 131.3,59.6 132.1,60.7 132.8,61.9 133.4,63.2 133.9,64.5 134.3,65.8 134.5,67.2 134.6,68.6" />
<path stroke="#000000" stroke-width="2" d="M 141.3,70" />
<path stroke="#000000" stroke-width="2" d="M 141.3,20 141.3,40 151.3,40 171.3,40" />
<path stroke="#000000" stroke-width="2" d="M 171.3,40 172.7,40.1 174,40.6 175.1,41.2 176.1,42.1 176.9,43.1 177.6,44.3 178.1,45.6 178.5,47 178.7,48.5 178.8,50 178.7,51.5 178.5,53 178.1,54.4 177.6,55.7 176.9,56.9 176.1,57.9 175.1,58.8 174,59.4 172.7,59.9 171.3,60 171.3,60.7 171.3,61.4 171.5,62.1 171.7,62.8 171.9,63.4 172.2,64 172.5,64.6 172.9,65.2 173.4,65.8 173.9,66.2 174.4,66.7 175,67.1 175.6,67.4 176.2,67.7 176.9,68 177.5,68.2 178.2,68.3 178.9,68.3 179.6,68.3 180.3,68.3 181,68.2 181.7,68 182.3,67.7 183,67.4 183.6,67.1 184.2,66.7 184.7,66.2 185.2,65.8 185.6,65.2 186,64.6 186.4,64 186.7,63.4 186.9,62.8 187.1,62.1 187.2,61.4 187.3,60.7" />
<path stroke="#000000" stroke-width="2" d="M 193.9,70" />
<path stroke="#000000" stroke-width="2" d="M 193.9,30 194.1,30 194.1,30.2 193.9,30.2 193.9,30" />
<path stroke="#000000" stroke-width="2" d="M 224.1,70" />
<path stroke="#000000" stroke-width="2" d="M 224.1,70 224.3,70 224.3,70.2 224.1,70.2 224.1,70" />
<path stroke="#000000" stroke-width="2" d="M 231,70" />
<path stroke="#000000" stroke-width="2" d="M 231,70 231,68.6 231.1,67.2 231.4,65.8 231.7,64.5 232.2,63.2 232.8,61.9 233.5,60.7 234.3,59.6 235.2,58.5 236.2,57.5 237.3,56.6 238.4,55.8 239.6,55.1 240.9,54.5 242.2,54 243.5,53.7 244.9,53.4 246.3,53.3 247.7,53.3 249.1,53.4 250.5,53.7 251.8,54 253.1,54.5 254.4,55.1 255.6,55.8 256.7,56.6 257.8,57.5 258.8,58.5 259.7,59.6 260.5,60.7 261.2,61.9 261.8,63.2 262.2,64.5 262.6,65.8 262.9,67.2 263,68.6" />
<path stroke="#000000" stroke-width="2" d="M 269.6,70" />
<path stroke="#000000" stroke-width="2" d="M 269.6,20" />
<path stroke="#000000" stroke-width="2" d="M 269.6,20 269.8,20 270.2,20 270.9,20 271.7,20.1 272.8,20.2 274,20.3 275.3,20.4 276.7,20.6 278.1,20.9 279.6,21.2 281.1,21.7 282.6,22.2 284,22.7 285.3,23.4 286.5,24.2 287.6,25.1 288.4,26.1 289.1,27.3 289.5,28.6 289.6,30" />
<path stroke="#000000" stroke-width="2" d="M 289.6,30 291.6,32.1 292.9,34.1 293.7,35.7 294,37.2 293.9,38.4 293.4,39.4 292.7,40.2 291.8,40.8 290.8,41.1 289.6,41.2 288.5,41.1 287.5,40.8 286.6,40.2 285.9,39.4 285.4,38.4 285.3,37.2 285.6,35.7 286.4,34 287.7,32.1 289.6,30" />
<path stroke="#000000" stroke-width="2" d="M 289.6,30 289.6,29.9 289.7,29.7 289.7,29.4 289.8,29 290,28.4 290.2,27.8 290.5,27.2 290.9,26.5 291.5,25.7 292.1,25 293,24.3 294,23.5 295.1,22.8 296.5,22.2 298.1,21.6 299.9,21 301.9,20.6 304.2,20.3 306.8,20.1 309.6,20 329.6,20" />
<path stroke="#000000" stroke-width="2" d="M 329.6,20 331.7,19.9 333.3,19.6 334.5,19.1 335.4,18.6 336,17.9 336.3,17.2 336.3,16.4 336.1,15.7 335.8,15 335.3,14.4 334.7,13.9 334,13.5 333.2,13.3 332.5,13.4 331.8,13.7 331.1,14.2 330.5,15.1 330,16.4 329.7,18 329.6,20 329.6,35 329.6,35.7 329.7,36.4 329.8,37.1 330,37.8 330.2,38.4 330.5,39 330.9,39.6 331.3,40.2 331.7,40.8 332.2,41.2 332.8,41.7 333.3,42.1 333.9,42.4 334.6,42.7 335.2,43 335.9,43.2 336.6,43.3 337.3,43.3 338,43.3 338.7,43.3 339.4,43.2 340,43 340.7,42.7 341.3,42.4 341.9,42.1 342.5,41.7 343,41.2 343.5,40.8 344,40.2 344.4,39.6 344.7,39 345,38.4 345.3,37.8 345.4,37.1 345.6,36.4 345.6,35.7" />
<path stroke="#000000" stroke-width="2" d="M 375.6,70" />
<path stroke="#000000" stroke-width="2" d="M 380.6,30" />
<path stroke="#000000" stroke-width="2" d="M 380.6,30 379.2,30.1 377.9,30.6 376.8,31.2 375.8,32.1 375,33.1 374.3,34.3 373.8,35.6 373.4,37 373.2,38.5 373.1,40 373.2,41.5 373.4,43 373.8,44.4 374.3,45.7 375,46.9 375.8,47.9 376.8,48.8 377.9,49.4 379.2,49.9 380.6,50 388.3,68.5 395.9,50" />
<path stroke="#000000" stroke-width="2" d="M 425.9,70" />
<path stroke="#000000" stroke-width="2" d="M 425.9,70 426.1,70 426.1,70.2 425.9,70.2 425.9,70" />
<path stroke="#000000" stroke-width="2" d="M 432.8,70" />
<path stroke="#000000" stroke-width="2" d="M 452.8,30 452.8,70 432.8,70" />
<path stroke="#000000" stroke-width="2" d="M 459.5,70" />
<path stroke="#000000" stroke-width="2" d="M 459.5,50 467.1,31.5 474.8,50 494.8,50 475,69.8 495,69.8" />
<path stroke="#000000" stroke-width="2" d="M 525,70" />
<path stroke="#000000" stroke-width="2" d="M 525,70" />
<path stroke="#000000" stroke-width="2" d="M 525,70 526.1,70 527.1,70.2 527.9,70.4 528.6,70.7 529.2,71 529.6,71.5 530,71.9 530.2,72.5 530.2,73.1 530.2,73.8 530.1,74.4 529.9,75.2 529.5,76 529.1,76.8 528.6,77.6 528,78.4 527.4,79.3 526.6,80.2 525.8,81.1 525,82" />
<path stroke="#000000" stroke-width="2" d="M 560.2,70" />
</svg>