<svg xmlns="http://www.w3.org/2000/svg" width="627.2516507372252" height="102.0" style="fill:none; stroke-linecap:round;">
    <rect width="100%" height="100%" fill="#FFFFFF" />
<path stroke="#000000" stroke-width="2" d="M 550,75" />
<path stroke="#000000" stroke-width="2" d="M 20,30 40,30" />
<path stroke="#000000" stroke-width="2" d="M 40,30 41.4,30.1 42.7,30.6 43.8,31.2 44.8,32.1 45.6,33.1 46.3,34.3 46.8,35.6 47.2,37 47.4,38.5 47.5,40 47.4,41.5 47.2,43 46.8,44.4 46.3,45.7 45.6,46.9 44.8,47.9 43.8,48.8 42.7,49.4 41.4,49.9 40,50" />
<path stroke="#000000" stroke-width="2" d="M 77.5,70" />
<path stroke="#000000" stroke-width="2" d="M 77.5,30 77.5,70 88.8,58.7" />
<path stroke="#000000" stroke-width="2" d="M 95.5,70" />
<path stroke="#000000" stroke-width="2" d="M 105.5,40 106.4,40 107.2,39.9 108.1,39.8 108.9,39.5 109.7,39.2 110.5,38.9 111.3,38.4 112,37.9 112.7,37.4 113.3,36.8 113.9,36.1 114.4,35.4 114.8,34.6 115.2,33.8 115.5,33 115.7,32.2 115.8,31.3 115.9,30.4 115.9,29.6 115.8,28.7 115.7,27.8 115.5,27 115.2,26.2 114.8,25.4 114.4,24.6 113.9,23.9 113.3,23.3 112.7,22.6 112,22.1 111.3,21.6 110.5,21.1 109.7,20.8 108.9,20.5 108.1,20.2 107.2,20.1 106.4,20 105.5,20 104.6,20.1 103.8,20.2 102.9,20.5 102.1,20.8 101.3,21.1 100.5,21.6 99.8,22.1 99.2,22.6 98.5,23.3 98,23.9 97.5,24.6 97,25.4 96.7,26.2 96.4,27 96.2,27.8 96,28.7 95.9,29.6 95.9,30.4 96,31.3 96.2,32.2 96.4,33 96.7,33.8 97,34.6 97.5,35.4 98,36.1 98.5,36.8 99.2,37.4 99.8,37.9 100.5,38.4 101.3,38.9 102.1,39.2 102.9,39.5 103.8,39.8 104.6,39.9 105.5,40" />
<path stroke="#000000" stroke-width="2" d="M 122.6,70" />
<path stroke="#000000" stroke-width="2" d="M 122.6,20 122.6,40 122.6,34 122.6,33.1 122.6,32.3 122.8,31.4 123,30.6 123.3,29.7 123.7,28.9 124.1,28.2 124.6,27.5 125.2,26.8 125.8,26.2 126.5,25.6 127.2,25.1 127.9,24.7 128.7,24.3 129.6,24 130.4,23.8 131.3,23.6 132.1,23.6" />
<path stroke="#000000" stroke-width="2" d="M 162.1,70" />
<path stroke="#000000" stroke-width="2" d="M 172.1,30" />
<path stroke="#000000" stroke-width="2" d="M 172.1,30 169.3,30.3 166.7,31.1 164.5,32.4 162.5,34.2 160.9,36.2 159.5,38.6 158.5,41.3 157.7,44.1 157.3,47 157.1,50 157.3,53 157.7,55.9 158.5,58.7 159.5,61.4 160.9,63.8 162.5,65.8 164.5,67.6 166.7,68.9 169.3,69.7 172.1,70" />
<path stroke="#000000" stroke-width="2" d="M 202.1,70" />
<path stroke="#000000" stroke-width="2" d="M 202.1,30 242.1,30" />
<path stroke="#000000" stroke-width="2" d="M 248.8,70" />
<path stroke="#000000" stroke-width="2" d="M 258.8,50 251.1,68.5" />
<path stroke="#000000" stroke-width="2" d="M 288.8,70" />
<path stroke="#000000" stroke-width="2" d="M 288.8,30 288.8,50 298.8,50 291.1,68.5" />
<path stroke="#000000" stroke-width="2" d="M 328.8,70" />
<path stroke="#000000" stroke-width="2" d="M 328.8,30 328.8,50 338.8,50 358.8,50 339,69.8 359,69.8" />
<path stroke="#000000" stroke-width="2" d="M 389,70" />
<path stroke="#000000" stroke-width="2" d="M 389,50 389,49.3 389.1,48.6 389.2,47.9 389.4,47.2 389.6,46.6 389.9,46 390.2,45.4 390.6,44.8 391.1,44.2 391.6,43.8 392.1,43.3 392.7,42.9 393.3,42.6 393.9,42.3 394.6,42 395.3,41.8 395.9,41.7 396.6,41.7 397.3,41.7 398,41.7 398.7,41.8 399.4,42 400,42.3 400.7,42.6 401.3,42.9 401.9,43.3 402.4,43.8 402.9,44.2 403.3,44.8 403.7,45.4 404.1,46 404.4,46.6 404.6,47.2 404.8,47.9 404.9,48.6 405,49.3 405,50 405,50.7 405.2,51.4 405.3,52.1 405.6,52.7 405.9,53.3 406.2,53.9 406.6,54.5 407.1,55.1 407.6,55.5 408.1,56 408.7,56.4 409.3,56.7 409.9,57 410.6,57.3 411.2,57.5 411.9,57.6 412.6,57.6 413.3,57.6 414,57.6 414.7,57.5 415.4,57.3 416,57 416.7,56.7 417.3,56.4 417.8,56 418.4,55.5 418.9,55.1 419.3,54.5 419.7,53.9 420.1,53.3 420.4,52.7 420.6,52.1 420.8,51.4 420.9,50.7 421,50" />
<path stroke="#000000" stroke-width="2" d="M 427.6,70" />
<path stroke="#000000" stroke-width="2" d="M 427.6,70 442.9,33 458.2,70" />
<path stroke="#000000" stroke-width="2" d="M 488.2,70" />
<path stroke="#000000" stroke-width="2" d="M 508.2,30 492.9,67" />
<path stroke="#000000" stroke-width="2" d="M 514.9,70" />
<path stroke="#000000" stroke-width="2" d="M 514.9,50 515.1,50 515.1,50.2 514.9,50.2 514.9,50" />
<path stroke="#000000" stroke-width="2" d="M 545.1,70" />
<path stroke="#000000" stroke-width="2" d="M 565.1,30 565.1,70 545.1,70" />
<path stroke="#000000" stroke-width="2" d="M 571.8,70" />
<path stroke="#000000" stroke-width="2" d="M 571.8,50 572,50 572,50.2 571.8,50.2 571.8,50" />
<path stroke="#000000" stroke-width="2" d="M 602,70" />
<path stroke="#000000" stroke-width="2" d="M 602,70" />
<path stroke="#000000" stroke-width="2" d="M 602,70 603.1,70 604.1,70.2 604.9,70.4 605.6,70.7 606.2,71 606.6,71.5 607,71.9 607.2,72.5 607.3,73.1 607.2,73.8 607.1,74.4 606.9,75.2 606.6,76 606.1,76.8 605.6,77.6 605.1,78.4 604.4,79.3 603.7,80.2 602.8,81.1 602,82" />
<path stroke="#000000" stroke-width="2" d="M 637.3,70" />
</svg>