<svg xmlns="http://www.w3.org/2000/svg" width="562.1566450337268" height="122.0" style="fill:none; stroke-linecap:round;">
    <rect width="100%" height="100%" fill="#FFFFFF" />
<path stroke="#000000" stroke-width="2" d="M 550,75" />
<path stroke="#000000" stroke-width="2" d="M 20,50 27.7,31.5 35.3,50 43,68.5 50.6,50" />
<path stroke="#000000" stroke-width="2" d="M 57.3,70" />
<path stroke="#000000" stroke-width="2" d="M 57.3,50 57.3,70 67.3,70" />
<path stroke="#000000" stroke-width="2" d="M 67.3,70 68.7,70.1 70,70.6 71.1,71.2 72.1,72.1 72.9,73.1 73.6,74.3 74.1,75.6 74.5,77 74.7,78.5 74.8,80 74.7,81.5 74.5,83 74.1,84.4 73.6,85.7 72.9,86.9 72.1,87.9 71.1,88.8 70,89.4 68.7,89.9 67.3,90" />
<path stroke="#000000" stroke-width="2" d="M 104.8,70" />
<path stroke="#000000" stroke-width="2" d="M 104.8,30 104.8,31.4 104.9,32.8 105.1,34.2 105.5,35.5 106,36.8 106.6,38.1 107.3,39.3 108.1,40.4 109,41.5 110,42.5 111,43.4 112.2,44.2 113.4,44.9 114.6,45.5 116,46 117.3,46.3 118.7,46.6 120.1,46.7 121.5,46.7 122.9,46.6 124.2,46.3 125.6,46 126.9,45.5 128.2,44.9 129.4,44.2 130.5,43.4 131.6,42.5 132.6,41.5 133.5,40.4 134.3,39.3 135,38.1 135.5,36.8 136,35.5 136.4,34.2 136.6,32.8 136.8,31.4" />
<path stroke="#000000" stroke-width="2" d="M 143.4,70" />
<path stroke="#000000" stroke-width="2" d="M 143.4,20" />
<path stroke="#000000" stroke-width="2" d="M 143.4,20 143.6,20 144,20 144.6,20 145.5,20.1 146.5,20.2 147.7,20.3 149.1,20.4 150.5,20.6 151.9,20.9 153.4,21.2 154.9,21.7 156.4,22.2 157.8,22.7 159.1,23.4 160.3,24.2 161.3,25.1 162.2,26.1 162.9,27.3 163.3,28.6 163.4,30" />
<path stroke="#000000" stroke-width="2" d="M 163.4,30 165.3,32.1 166.7,34.1 167.4,35.7 167.7,37.2 167.6,38.4 167.2,39.4 166.5,40.2 165.6,40.8 164.5,41.1 163.4,41.2 162.3,41.1 161.3,40.8 160.3,40.2 159.6,39.4 159.2,38.4 159.1,37.2 159.4,35.7 160.2,34 161.5,32.1 163.4,30" />
<path stroke="#000000" stroke-width="2" d="M 163.4,30 163.4,29.9 163.4,29.7 163.5,29.4 163.6,29 163.7,28.4 164,27.8 164.3,27.2 164.7,26.5 165.2,25.7 165.9,25 166.7,24.3 167.7,23.5 168.9,22.8 170.3,22.2 171.9,21.6 173.7,21 175.7,20.6 178,20.3 180.6,20.1 183.4,20" />
<path stroke="#000000" stroke-width="2" d="M 183.4,20 184.8,20.1 186.1,20.6 187.2,21.2 188.2,22.1 189,23.1 189.7,24.3 190.2,25.6 190.6,27 190.8,28.5 190.9,30 190.8,31.5 190.6,33 190.2,34.4 189.7,35.7 189,36.9 188.2,37.9 187.2,38.8 186.1,39.4 184.8,39.9 183.4,40" />
<path stroke="#000000" stroke-width="2" d="M 220.9,70" />
<path stroke="#000000" stroke-width="2" d="M 220.9,30 240.9,30" />
<path stroke="#000000" stroke-width="2" d="M 240.9,30 242.3,30.1 243.6,30.6 244.7,31.2 245.7,32.1 246.5,33.1 247.2,34.3 247.7,35.6 248.1,37 248.3,38.5 248.4,40 248.3,41.5 248.1,43 247.7,44.4 247.2,45.7 246.5,46.9 245.7,47.9 244.7,48.8 243.6,49.4 242.3,49.9 240.9,50" />
<path stroke="#000000" stroke-width="2" d="M 278.4,70" />
<path stroke="#000000" stroke-width="2" d="M 278.4,50 286.1,31.5 293.7,50 293.7,54 293.7,54.5 293.8,55 293.9,55.6 294,56.1 294.2,56.6 294.4,57 294.7,57.5 295,57.9 295.3,58.3 295.7,58.7 296.1,59 296.5,59.3 296.9,59.6 297.4,59.8 297.9,60 298.4,60.1 298.9,60.2 299.5,60.3 300,60.3 300.5,60.2 301,60.1 301.5,60 302,59.8 302.5,59.6 302.9,59.3 303.4,59 303.8,58.7 304.1,58.3 304.5,57.9 304.8,57.5 305,57 305.3,56.6 305.4,56.1 305.6,55.6 305.7,55 305.7,54.5 305.7,49.5 305.7,69.5 305.7,68.7 305.8,67.8 305.9,66.9 306.2,66.1 306.5,65.3 306.8,64.5 307.3,63.7 307.8,63 308.3,62.3 308.9,61.7 309.6,61.2 310.3,60.7 311.1,60.2 311.9,59.8 312.7,59.6 313.5,59.3 314.4,59.2 315.3,59.1" />
<path stroke="#000000" stroke-width="2" d="M 321.9,70" />
<path stroke="#000000" stroke-width="2" d="M 321.9,25" />
<path stroke="#000000" stroke-width="2" d="M 321.9,25 324,24.9 325.6,24.6 326.8,24.1 327.7,23.6 328.3,22.9 328.5,22.2 328.6,21.4 328.4,20.7 328.1,20 327.6,19.4 326.9,18.9 326.3,18.5 325.5,18.3 324.8,18.4 324,18.7 323.4,19.2 322.8,20.1 322.3,21.4 322,23 321.9,25 321.9,40" />
<path stroke="#000000" stroke-width="2" d="M 335.3,70" />
<path stroke="#000000" stroke-width="2" d="M 335.3,30 350.6,67 365.9,30" />
<path stroke="#000000" stroke-width="2" d="M 395.9,70" />
<path stroke="#000000" stroke-width="2" d="M 411.9,30" />
<path stroke="#000000" stroke-width="2" d="M 411.9,30 411.7,34.1 411.1,37.3 410.1,39.8 409,41.5 407.7,42.7 406.2,43.2 404.7,43.3 403.2,43 401.8,42.3 400.6,41.2 399.6,40 398.9,38.6 398.6,37.2 398.6,35.7 399.2,34.2 400.4,32.9 402.1,31.7 404.6,30.8 407.8,30.2 411.9,30 431.9,30" />
<path stroke="#000000" stroke-width="2" d="M 438.5,70" />
<path stroke="#000000" stroke-width="2" d="M 438.5,20 438.5,40 438.5,34 438.5,33.1 438.6,32.3 438.8,31.4 439,30.6 439.3,29.7 439.7,28.9 440.1,28.2 440.6,27.5 441.2,26.8 441.8,26.2 442.4,25.6 443.2,25.1 443.9,24.7 444.7,24.3 445.5,24 446.4,23.8 447.2,23.6 448.1,23.6" />
<path stroke="#000000" stroke-width="2" d="M 448.1,23.6 450.1,23.5 451.7,23.2 453,22.7 453.9,22.1 454.4,21.5 454.7,20.7 454.7,20 454.6,19.3 454.2,18.6 453.7,17.9 453.1,17.4 452.4,17.1 451.7,16.9 450.9,17 450.2,17.2 449.5,17.8 449,18.7 448.5,19.9 448.2,21.5 448.1,23.6 448.1,38.6" />
<path stroke="#000000" stroke-width="2" d="M 461.4,70" />
<path stroke="#000000" stroke-width="2" d="M 461.4,20 481.4,20 501.4,20 481.6,39.8 501.6,39.8" />
<path stroke="#000000" stroke-width="2" d="M 531.6,70" />
<path stroke="#000000" stroke-width="2" d="M 531.6,62 532.4,62 532.4,62.8 531.6,62.8 531.6,62" />
<path stroke="#000000" stroke-width="2" d="M 531.6,78" />
<path stroke="#000000" stroke-width="2" d="M 531.6,78 533.9,78.1 535.8,78.3 537.5,78.8 538.9,79.3 540.1,80.1 540.9,80.9 541.6,81.9 542,83 542.2,84.2 542.1,85.5 541.9,86.9 541.4,88.4 540.8,89.9 539.9,91.5 538.9,93.2 537.8,94.9 536.4,96.6 535,98.4 533.4,100.2 531.6,102" />
<path stroke="#000000" stroke-width="2" d="M 572.2,70" />
</svg>