<svg xmlns="http://www.w3.org/2000/svg" width="779.6705159772773" height="93.30875" style="fill:none; stroke-linecap:round;">
    <rect width="100%" height="100%" fill="#FFFFFF" />
<path stroke="#000000" stroke-width="2" d="M 550,75" />
<path stroke="#000000" stroke-width="2" d="M 20,30 60,30" />
<path stroke="#000000" stroke-width="2" d="M 66.7,70" />
<path stroke="#000000" stroke-width="2" d="M 66.7,20" />
<path stroke="#000000" stroke-width="2" d="M 66.7,20 66.8,20 67.2,20 67.9,20 68.7,20.1 69.8,20.2 71,20.3 72.3,20.4 73.7,20.6 75.2,20.9 76.7,21.2 78.2,21.7 79.6,22.2 81,22.7 82.3,23.4 83.5,24.2 84.6,25.1 85.5,26.1 86.1,27.3 86.5,28.6 86.7,30" />
<path stroke="#000000" stroke-width="2" d="M 86.7,30 88.6,32.1 89.9,34.1 90.7,35.7 91,37.2 90.9,38.4 90.4,39.4 89.7,40.2 88.8,40.8 87.8,41.1 86.7,41.2 85.6,41.1 84.5,40.8 83.6,40.2 82.9,39.4 82.4,38.4 82.3,37.2 82.7,35.7 83.4,34 84.7,32.1 86.7,30" />
<path stroke="#000000" stroke-width="2" d="M 86.7,30 86.7,29.9 86.7,29.7 86.7,29.4 86.8,29 87,28.4 87.2,27.8 87.5,27.2 87.9,26.5 88.5,25.7 89.2,25 90,24.3 91,23.5 92.2,22.8 93.5,22.2 95.1,21.6 96.9,21 98.9,20.6 101.2,20.3 103.8,20.1 106.7,20" />
<path stroke="#000000" stroke-width="2" d="M 136.7,70" />
<path stroke="#000000" stroke-width="2" d="M 136.7,30" />
<path stroke="#000000" stroke-width="2" d="M 136.7,30 139.5,30.3 142.1,31.1 144.3,32.4 146.3,34.2 147.9,36.2 149.3,38.6 150.3,41.3 151.1,44.1 151.5,47 151.7,50 151.5,53 151.1,55.9 150.3,58.7 149.3,61.4 147.9,63.8 146.3,65.8 144.3,67.6 142.1,68.9 139.5,69.7 136.7,70" />
<path stroke="#000000" stroke-width="2" d="M 158.3,70" />
<path stroke="#000000" stroke-width="2" d="M 158.3,20" />
<path stroke="#000000" stroke-width="2" d="M 158.3,20 158.5,20 158.9,20 159.5,20 160.4,20.1 161.5,20.2 162.7,20.3 164,20.4 165.4,20.6 166.8,20.9 168.3,21.2 169.8,21.7 171.3,22.2 172.7,22.7 174,23.4 175.2,24.2 176.3,25.1 177.1,26.1 177.8,27.3 178.2,28.6 178.3,30" />
<path stroke="#000000" stroke-width="2" d="M 178.3,30 180.3,32.1 181.6,34.1 182.3,35.7 182.7,37.2 182.6,38.4 182.1,39.4 181.4,40.2 180.5,40.8 179.4,41.1 178.3,41.2 177.2,41.1 176.2,40.8 175.3,40.2 174.6,39.4 174.1,38.4 174,37.2 174.3,35.7 175.1,34 176.4,32.1 178.3,30" />
<path stroke="#000000" stroke-width="2" d="M 178.3,30 178.3,29.9 178.4,29.7 178.4,29.4 178.5,29 178.6,28.4 178.9,27.8 179.2,27.2 179.6,26.5 180.2,25.7 180.8,25 181.7,24.3 182.7,23.5 183.8,22.8 185.2,22.2 186.8,21.6 188.6,21 190.6,20.6 192.9,20.3 195.5,20.1 198.3,20 190.7,38.5" />
<path stroke="#000000" stroke-width="2" d="M 228.3,70" />
<path stroke="#000000" stroke-width="2" d="M 228.3,70 228.5,70 228.5,70.2 228.3,70.2 228.3,70" />
<path stroke="#000000" stroke-width="2" d="M 235.2,70" />
<path stroke="#000000" stroke-width="2" d="M 255.2,30 255.2,70 235.2,70" />
<path stroke="#000000" stroke-width="2" d="M 261.9,70" />
<path stroke="#000000" stroke-width="2" d="M 261.9,50 281.9,50" />
<path stroke="#000000" stroke-width="2" d="M 288.5,70" />
<path stroke="#000000" stroke-width="2" d="M 288.5,30 303.8,67 319.1,30" />
<path stroke="#000000" stroke-width="2" d="M 325.8,70" />
<path stroke="#000000" stroke-width="2" d="M 325.8,25" />
<path stroke="#000000" stroke-width="2" d="M 325.8,25 327.8,24.9 329.5,24.6 330.7,24.1 331.6,23.6 332.1,22.9 332.4,22.2 332.5,21.4 332.3,20.7 331.9,20 331.4,19.4 330.8,18.9 330.1,18.5 329.4,18.3 328.6,18.4 327.9,18.7 327.3,19.2 326.7,20.1 326.2,21.4 325.9,23 325.8,25 325.8,40" />
<path stroke="#000000" stroke-width="2" d="M 362.5,70" />
<path stroke="#000000" stroke-width="2" d="M 362.5,30 362.5,50 372.5,50 392.5,50 372.7,69.8 392.7,69.8" />
<path stroke="#000000" stroke-width="2" d="M 422.7,70" />
<path stroke="#000000" stroke-width="2" d="M 422.7,50 430.3,31.5 438,50 458,50 463,50 463,70" />
<path stroke="#000000" stroke-width="2" d="M 469.6,70" />
<path stroke="#000000" stroke-width="2" d="M 469.6,20" />
<path stroke="#000000" stroke-width="2" d="M 469.6,20 469.8,20 470.2,20 470.9,20 471.7,20.1 472.8,20.2 474,20.3 475.3,20.4 476.7,20.6 478.1,20.9 479.6,21.2 481.1,21.7 482.6,22.2 484,22.7 485.3,23.4 486.5,24.2 487.6,25.1 488.4,26.1 489.1,27.3 489.5,28.6 489.6,30" />
<path stroke="#000000" stroke-width="2" d="M 489.6,30 491.6,32.1 492.9,34.1 493.7,35.7 494,37.2 493.9,38.4 493.4,39.4 492.7,40.2 491.8,40.8 490.8,41.1 489.6,41.2 488.5,41.1 487.5,40.8 486.6,40.2 485.9,39.4 485.4,38.4 485.3,37.2 485.6,35.7 486.4,34 487.7,32.1 489.6,30" />
<path stroke="#000000" stroke-width="2" d="M 489.6,30 489.6,29.9 489.7,29.7 489.7,29.4 489.8,29 490,28.4 490.2,27.8 490.5,27.2 490.9,26.5 491.5,25.7 492.1,25 493,24.3 494,23.5 495.1,22.8 496.5,22.2 498.1,21.6 499.9,21 501.9,20.6 504.2,20.3 506.8,20.1 509.6,20 509.6,20.7 509.7,21.4 509.8,22.1 510,22.8 510.2,23.4 510.5,24 510.9,24.6 511.3,25.2 511.7,25.8 512.2,26.2 512.8,26.7 513.3,27.1 513.9,27.4 514.6,27.7 515.2,28 515.9,28.2 516.6,28.3 517.3,28.3 518,28.3 518.7,28.3 519.4,28.2 520,28 520.7,27.7 521.3,27.4 521.9,27.1 522.5,26.7 523,26.2 523.5,25.8 524,25.2 524.4,24.6 524.7,24 525,23.4 525.3,22.8 525.4,22.1 525.6,21.4 525.6,20.7" />
<path stroke="#000000" stroke-width="2" d="M 525.6,20.7 527.1,20.8 528.3,21.3 529.5,21.9 530.4,22.8 531.3,23.8 531.9,25 532.5,26.3 532.8,27.7 533.1,29.2 533.1,30.7 533.1,32.2 532.8,33.7 532.5,35.1 531.9,36.4 531.3,37.6 530.4,38.6 529.5,39.5 528.3,40.1 527.1,40.6 525.6,40.7" />
<path stroke="#000000" stroke-width="2" d="M 539.8,70" />
<path stroke="#000000" stroke-width="2" d="M 563.8,42" />
<path stroke="#000000" stroke-width="2" d="M 563.8,42 559.7,41.8 556.5,41.2 554,40.3 552.3,39.1 551.1,37.8 550.6,36.3 550.5,34.8 550.8,33.4 551.5,32 552.5,30.8 553.8,29.7 555.2,29 556.6,28.7 558.1,28.8 559.6,29.3 560.9,30.5 562.1,32.2 563,34.7 563.6,37.9 563.8,42 563.8,50" />
<path stroke="#000000" stroke-width="2" d="M 563.8,50 563.2,51.7 562.5,53.4 561.7,54.9 560.9,56.3 560.1,57.6 559.2,58.7 558.3,59.8 557.3,60.8 556.3,61.7 555.3,62.5 554.2,63.2 553.1,63.8 552,64.4 550.9,64.8 549.7,65.2 548.6,65.5 547.4,65.7 546.2,65.9 545,66 543.8,66" />
<path stroke="#000000" stroke-width="2" d="M 593.8,70" />
<path stroke="#000000" stroke-width="2" d="M 593.8,50 601.4,31.5 609.1,50 629.1,50 609.3,69.8 629.3,69.8" />
<path stroke="#000000" stroke-width="2" d="M 659.3,70" />
<path stroke="#000000" stroke-width="2" d="M 659.3,30 659.3,50 669.3,50 661.7,68.5" />
<path stroke="#000000" stroke-width="2" d="M 699.3,70" />
<path stroke="#000000" stroke-width="2" d="M 715.3,30 715.3,60" />
<path stroke="#000000" stroke-width="2" d="M 715.3,60 715.1,64.1 714.5,67.3 713.6,69.8 712.4,71.5 711.1,72.7 709.6,73.2 708.1,73.3 706.7,73 705.3,72.3 704.1,71.2 703.1,70 702.3,68.6 702,67.2 702.1,65.7 702.6,64.2 703.8,62.9 705.6,61.7 708,60.8 711.2,60.2 715.3,60" />
<path stroke="#000000" stroke-width="2" d="M 722,70" />
<path stroke="#000000" stroke-width="2" d="M 722,50" />
<path stroke="#000000" stroke-width="2" d="M 722,50 723.4,50.1 724.7,50.6 725.8,51.2 726.8,52.1 727.6,53.1 728.3,54.3 728.8,55.6 729.2,57 729.4,58.5 729.5,60 729.4,61.5 729.2,63 728.8,64.4 728.3,65.7 727.6,66.9 726.8,67.9 725.8,68.8 724.7,69.4 723.4,69.9 722,70" />
<path stroke="#000000" stroke-width="2" d="M 759.5,70" />
<path stroke="#000000" stroke-width="2" d="M 759.5,70 759.7,70 759.7,70.2 759.5,70.2 759.5,70" />
<path stroke="#000000" stroke-width="2" d="M 789.7,70" />
</svg>