<svg xmlns="http://www.w3.org/2000/svg" width="419.3285355754071" height="106.95518130045147" style="fill:none; stroke-linecap:round;">
    <rect width="100%" height="100%" fill="#FFFFFF" />
<path stroke="#000000" stroke-width="2" d="M 550,75" />
<path stroke="#000000" stroke-width="2" d="M 20,30 20,70 31.3,58.7" />
<path stroke="#000000" stroke-width="2" d="M 38,70" />
<path stroke="#000000" stroke-width="2" d="M 48,50 40.3,68.5 48,87 55.6,68.5" />
<path stroke="#000000" stroke-width="2" d="M 55.6,78.5" />
<path stroke="#000000" stroke-width="2" d="M 39.6,78.5 56.6,78.5" />
<path stroke="#000000" stroke-width="2" d="M 86.6,70" />
<path stroke="#000000" stroke-width="2" d="M 106.6,30 106.6,70 86.6,70" />
<path stroke="#000000" stroke-width="2" d="M 113.3,70" />
<path stroke="#000000" stroke-width="2" d="M 113.3,50 113.5,50 113.5,50.2 113.3,50.2 113.3,50" />
<path stroke="#000000" stroke-width="2" d="M 143.5,70" />
<path stroke="#000000" stroke-width="2" d="M 143.5,50 143.5,49.3 143.6,48.6 143.7,47.9 143.9,47.2 144.1,46.6 144.4,46 144.7,45.4 145.1,44.8 145.6,44.2 146.1,43.8 146.6,43.3 147.2,42.9 147.8,42.6 148.4,42.3 149.1,42 149.8,41.8 150.4,41.7 151.1,41.7 151.8,41.7 152.5,41.7 153.2,41.8 153.9,42 154.6,42.3 155.2,42.6 155.8,42.9 156.4,43.3 156.9,43.8 157.4,44.2 157.8,44.8 158.2,45.4 158.6,46 158.9,46.6 159.1,47.2 159.3,47.9 159.4,48.6 159.5,49.3" />
<path stroke="#000000" stroke-width="2" d="M 159.5,45.3" />
<path stroke="#000000" stroke-width="2" d="M 153.5,45.3 163.5,45.3" />
<path stroke="#000000" stroke-width="2" d="M 163.5,45.3 165.5,45.2 167.1,44.9 168.4,44.4 169.2,43.9 169.8,43.2 170.1,42.5 170.1,41.7 170,41 169.6,40.3 169.1,39.7 168.5,39.2 167.8,38.8 167.1,38.6 166.3,38.7 165.6,39 164.9,39.5 164.3,40.4 163.9,41.7 163.6,43.3 163.5,45.3 163.5,60.3" />
<path stroke="#000000" stroke-width="2" d="M 176.8,70" />
<path stroke="#000000" stroke-width="2" d="M 176.8,30 192.1,67 207.4,30" />
<path stroke="#000000" stroke-width="2" d="M 237.4,70" />
<path stroke="#000000" stroke-width="2" d="M 253.4,30 233.6,49.8 253.4,69.6" />
<path stroke="#000000" stroke-width="2" d="M 260.1,70" />
<path stroke="#000000" stroke-width="2" d="M 260.1,30 275.4,67" />
<path stroke="#000000" stroke-width="2" d="M 305.4,70" />
<path stroke="#000000" stroke-width="2" d="M 325.4,30 310.1,67" />
<path stroke="#000000" stroke-width="2" d="M 332.1,70" />
<path stroke="#000000" stroke-width="2" d="M 332.1,50 332.3,50 332.3,50.2 332.1,50.2 332.1,50" />
<path stroke="#000000" stroke-width="2" d="M 362.3,70" />
<path stroke="#000000" stroke-width="2" d="M 362.3,30 362.3,70" />
<path stroke="#000000" stroke-width="2" d="M 368.9,70" />
<path stroke="#000000" stroke-width="2" d="M 368.9,30 369.1,30 369.1,30.2 368.9,30.2 368.9,30" />
<path stroke="#000000" stroke-width="2" d="M 399.1,70" />
<path stroke="#000000" stroke-width="2" d="M 399.1,70 399.3,70 399.3,70.2 399.1,70.2 399.1,70" />
<path stroke="#000000" stroke-width="2" d="M 429.3,70" />
</svg>