<svg xmlns="http://www.w3.org/2000/svg" width="689.2769227916035" height="110.0" style="fill:none; stroke-linecap:round;">
    <rect width="100%" height="100%" fill="#FFFFFF" />
<path stroke="#000000" stroke-width="2" d="M 550,75" />
<path stroke="#000000" stroke-width="2" d="M 22,50 27.4,37.1 27.5,36.7 27.6,36.4 27.7,36.1 27.7,35.7 27.7,35.4 27.7,35 27.7,34.7 27.6,34.3 27.5,34 27.4,33.7 27.2,33.4 27,33.1 26.8,32.8 26.6,32.5 26.3,32.3 26,32.1 25.7,31.9 25.4,31.7 25.1,31.6 24.8,31.5 24.4,31.4 24.1,31.4 23.7,31.4 23.4,31.4 23,31.4 22.7,31.5 22.4,31.6 22,31.7 21.7,31.9 21.4,32.1 21.2,32.3 20.9,32.5 20.7,32.8 20.5,33.1 20.3,33.4 20.1,33.7 20,34 19.9,34.3 19.8,34.7 19.7,35 19.7,35.4 19.7,35.7 19.8,36.1 19.9,36.4 20,36.7 20.1,37.1 20.3,37.4 20.5,37.7 20.7,37.9 20.9,38.2 21.2,38.4 21.4,38.7 21.7,38.8 22,39 22.4,39.1 22.7,39.2 23,39.3 23.4,39.4 23.7,39.4 24.1,39.4 37,34 57,34 57,49" />
<path stroke="#000000" stroke-width="2" d="M 57,49 56.9,51 56.6,52.6 56.2,53.9 55.6,54.8 54.9,55.3 54.2,55.6 53.4,55.7 52.7,55.5 52,55.1 51.4,54.6 50.9,54 50.5,53.3 50.4,52.6 50.4,51.8 50.7,51.1 51.3,50.4 52.1,49.9 53.4,49.4 55,49.1 57,49" />
<path stroke="#000000" stroke-width="2" d="M 63.7,70" />
<path stroke="#000000" stroke-width="2" d="M 63.7,50 63.7,70 73.7,70" />
<path stroke="#000000" stroke-width="2" d="M 103.7,70" />
<path stroke="#000000" stroke-width="2" d="M 123.7,30 123.7,70 103.7,70" />
<path stroke="#000000" stroke-width="2" d="M 130.3,70" />
<path stroke="#000000" stroke-width="2" d="M 130.3,70 138,51.5 145.7,70 145.7,90 145.7,84 145.7,83.1 145.7,82.3 145.9,81.4 146.1,80.6 146.4,79.7 146.8,78.9 147.2,78.2 147.7,77.5 148.3,76.8 148.9,76.2 149.6,75.6 150.3,75.1 151,74.7 151.8,74.3 152.6,74 153.5,73.8 154.3,73.6 155.2,73.6" />
<path stroke="#000000" stroke-width="2" d="M 185.2,70" />
<path stroke="#000000" stroke-width="2" d="M 185.2,50 192.9,31.5 200.5,50 210.4,59.9 200.5,69.8" />
<path stroke="#000000" stroke-width="2" d="M 217.1,70" />
<path stroke="#000000" stroke-width="2" d="M 217.1,30 224.7,48.5 232.4,30 240,48.5" />
<path stroke="#000000" stroke-width="2" d="M 240,38.5" />
<path stroke="#000000" stroke-width="2" d="M 229,38.5 243,38.5" />
<path stroke="#000000" stroke-width="2" d="M 243,38.5 245.1,38.4 246.7,38.1 247.9,37.6 248.8,37 249.4,36.4 249.7,35.6 249.7,34.9 249.5,34.2 249.2,33.5 248.7,32.9 248.1,32.4 247.4,32 246.6,31.8 245.9,31.9 245.2,32.1 244.5,32.7 243.9,33.6 243.4,34.8 243.2,36.4 243,38.5 243,53.5" />
<path stroke="#000000" stroke-width="2" d="M 279.7,70" />
<path stroke="#000000" stroke-width="2" d="M 279.7,50 287.4,31.5 295,50 315,50 295.2,69.8 315.2,69.8" />
<path stroke="#000000" stroke-width="2" d="M 345.2,70" />
<path stroke="#000000" stroke-width="2" d="M 345.2,30 345.2,70 356.5,58.7" />
<path stroke="#000000" stroke-width="2" d="M 363.2,70" />
<path stroke="#000000" stroke-width="2" d="M 363.2,20 363.2,20.7 363.2,21.4 363.4,22.1 363.6,22.8 363.8,23.4 364.1,24 364.4,24.6 364.8,25.2 365.3,25.8 365.8,26.2 366.3,26.7 366.9,27.1 367.5,27.4 368.1,27.7 368.8,28 369.4,28.2 370.1,28.3 370.8,28.3 371.5,28.3 372.2,28.3 372.9,28.2 373.6,28 374.2,27.7 374.9,27.4 375.5,27.1 376.1,26.7 376.6,26.2 377.1,25.8 377.5,25.2 377.9,24.6 378.3,24 378.6,23.4 378.8,22.8 379,22.1 379.1,21.4 379.2,20.7" />
<path stroke="#000000" stroke-width="2" d="M 409.2,70" />
<path stroke="#000000" stroke-width="2" d="M 409.2,50 416.8,31.5 424.5,50 444.5,50 424.7,69.8 444.7,69.8" />
<path stroke="#000000" stroke-width="2" d="M 474.7,70" />
<path stroke="#000000" stroke-width="2" d="M 494.7,30 494.7,70 474.7,70" />
<path stroke="#000000" stroke-width="2" d="M 501.3,70" />
<path stroke="#000000" stroke-width="2" d="M 501.3,70 509,51.5 516.7,70 516.7,90 516.7,84 516.7,83.1 516.7,82.3 516.9,81.4 517.1,80.6 517.4,79.7 517.8,78.9 518.2,78.2 518.7,77.5 519.3,76.8 519.9,76.2 520.6,75.6 521.3,75.1 522,74.7 522.8,74.3 523.6,74 524.5,73.8 525.3,73.6 526.2,73.6" />
<path stroke="#000000" stroke-width="2" d="M 556.2,70" />
<path stroke="#000000" stroke-width="2" d="M 568.2,54" />
<path stroke="#000000" stroke-width="2" d="M 568.2,54 568,49.9 567.4,46.7 566.5,44.2 565.3,42.5 564,41.3 562.5,40.8 561,40.7 559.6,41 558.2,41.7 557,42.8 556,44 555.2,45.4 554.9,46.8 555,48.3 555.6,49.8 556.7,51.1 558.5,52.3 560.9,53.2 564.1,53.8 568.2,54 576.2,54" />
<path stroke="#000000" stroke-width="2" d="M 576.2,54 577.9,53.4 579.6,52.7 581.1,51.9 582.5,51.2 583.8,50.3 585,49.4 586,48.5 587,47.5 587.9,46.5 588.7,45.5 589.4,44.4 590,43.3 590.6,42.2 591,41.1 591.4,39.9 591.7,38.8 591.9,37.6 592.1,36.4 592.2,35.2 592.2,34" />
<path stroke="#000000" stroke-width="2" d="M 598.9,70" />
<path stroke="#000000" stroke-width="2" d="M 598.9,20 618.9,20 638.9,20 619.1,39.8 639.1,39.8" />
<path stroke="#000000" stroke-width="2" d="M 669.1,70" />
<path stroke="#000000" stroke-width="2" d="M 669.1,70 669.3,70 669.3,70.2 669.1,70.2 669.1,70" />
<path stroke="#000000" stroke-width="2" d="M 699.3,70" />
</svg>