<svg xmlns="http://www.w3.org/2000/svg" width="425.3285355754071" height="90.2" style="fill:none; stroke-linecap:round;">
    <rect width="100%" height="100%" fill="#FFFFFF" />
<path stroke="#000000" stroke-width="2" d="M 550,75" />
<path stroke="#000000" stroke-width="2" d="M 20,30 20,70 31.3,58.7" />
<path stroke="#000000" stroke-width="2" d="M 38,70" />
<path stroke="#000000" stroke-width="2" d="M 48,20 40.3,38.5 48,57 55.6,38.5" />
<path stroke="#000000" stroke-width="2" d="M 55.6,48.5" />
<path stroke="#000000" stroke-width="2" d="M 39.6,48.5 56.6,48.5" />
<path stroke="#000000" stroke-width="2" d="M 86.6,70" />
<path stroke="#000000" stroke-width="2" d="M 106.6,30 106.6,70 86.6,70" />
<path stroke="#000000" stroke-width="2" d="M 113.3,70" />
<path stroke="#000000" stroke-width="2" d="M 113.3,50 113.5,50 113.5,50.2 113.3,50.2 113.3,50" />
<path stroke="#000000" stroke-width="2" d="M 143.5,70" />
<path stroke="#000000" stroke-width="2" d="M 143.5,38 143.5,37.3 143.6,36.6 143.7,35.9 143.9,35.2 144.1,34.6 144.4,34 144.7,33.4 145.1,32.8 145.6,32.2 146.1,31.8 146.6,31.3 147.2,30.9 147.8,30.6 148.4,30.3 149.1,30 149.8,29.8 150.4,29.7 151.1,29.7 151.8,29.7 152.5,29.7 153.2,29.8 153.9,30 154.6,30.3 155.2,30.6 155.8,30.9 156.4,31.3 156.9,31.8 157.4,32.2 157.8,32.8 158.2,33.4 158.6,34 158.9,34.6 159.1,35.2 159.3,35.9 159.4,36.6 159.5,37.3" />
<path stroke="#000000" stroke-width="2" d="M 159.5,33.3" />
<path stroke="#000000" stroke-width="2" d="M 153.5,33.3 169.5,33.3" />
<path stroke="#000000" stroke-width="2" d="M 169.5,33.3 171.5,33.2 173.1,32.9 174.4,32.4 175.2,31.9 175.8,31.2 176.1,30.5 176.1,29.7 176,29 175.6,28.3 175.1,27.7 174.5,27.2 173.8,26.8 173.1,26.6 172.3,26.7 171.6,27 170.9,27.5 170.3,28.4 169.9,29.7 169.6,31.3 169.5,33.3 169.5,48.3" />
<path stroke="#000000" stroke-width="2" d="M 182.8,70" />
<path stroke="#000000" stroke-width="2" d="M 182.8,30 198.1,67 213.4,30" />
<path stroke="#000000" stroke-width="2" d="M 243.4,70" />
<path stroke="#000000" stroke-width="2" d="M 259.4,30 239.6,49.8 259.4,69.6" />
<path stroke="#000000" stroke-width="2" d="M 266.1,70" />
<path stroke="#000000" stroke-width="2" d="M 266.1,30 281.4,67" />
<path stroke="#000000" stroke-width="2" d="M 311.4,70" />
<path stroke="#000000" stroke-width="2" d="M 331.4,30 316.1,67" />
<path stroke="#000000" stroke-width="2" d="M 338.1,70" />
<path stroke="#000000" stroke-width="2" d="M 338.1,50 338.3,50 338.3,50.2 338.1,50.2 338.1,50" />
<path stroke="#000000" stroke-width="2" d="M 368.3,70" />
<path stroke="#000000" stroke-width="2" d="M 368.3,30 368.3,70" />
<path stroke="#000000" stroke-width="2" d="M 374.9,70" />
<path stroke="#000000" stroke-width="2" d="M 374.9,30 375.1,30 375.1,30.2 374.9,30.2 374.9,30" />
<path stroke="#000000" stroke-width="2" d="M 405.1,70" />
<path stroke="#000000" stroke-width="2" d="M 405.1,70 405.3,70 405.3,70.2 405.1,70.2 405.1,70" />
<path stroke="#000000" stroke-width="2" d="M 435.3,70" />
</svg>