<svg xmlns="http://www.w3.org/2000/svg" width="551.4162699385479" height="130.0" style="fill:none; stroke-linecap:round;">
    <rect width="100%" height="100%" fill="#FFFFFF" />
<path stroke="#000000" stroke-width="2" d="M 550,75" />
<path stroke="#000000" stroke-width="2" d="M 20,30 35.3,67" />
<path stroke="#000000" stroke-width="2" d="M 42,70" />
<path stroke="#000000" stroke-width="2" d="M 42,20 62,20" />
<path stroke="#000000" stroke-width="2" d="M 68.6,70" />
<path stroke="#000000" stroke-width="2" d="M 68.6,30 68.8,30 68.8,30.2 68.6,30.2 68.6,30" />
<path stroke="#000000" stroke-width="2" d="M 98.8,70" />
<path stroke="#000000" stroke-width="2" d="M 114.8,30" />
<path stroke="#000000" stroke-width="2" d="M 114.8,30 114.6,34.1 114,37.3 113.1,39.8 112,41.5 110.6,42.7 109.2,43.2 107.7,43.3 106.2,43 104.8,42.3 103.6,41.2 102.6,40 101.9,38.6 101.5,37.2 101.6,35.7 102.2,34.2 103.3,32.9 105.1,31.7 107.6,30.8 110.8,30.2 114.8,30 134.8,30" />
<path stroke="#000000" stroke-width="2" d="M 141.5,70" />
<path stroke="#000000" stroke-width="2" d="M 141.5,25" />
<path stroke="#000000" stroke-width="2" d="M 141.5,25 143.5,24.9 145.2,24.6 146.4,24.1 147.3,23.6 147.8,22.9 148.1,22.2 148.2,21.4 148,20.7 147.6,20 147.1,19.4 146.5,18.9 145.8,18.5 145.1,18.3 144.3,18.4 143.6,18.7 142.9,19.2 142.4,20.1 141.9,21.4 141.6,23 141.5,25 141.5,40 161.5,40 181.5,40 161.7,59.8 181.7,59.8" />
<path stroke="#000000" stroke-width="2" d="M 211.7,70" />
<path stroke="#000000" stroke-width="2" d="M 211.7,35" />
<path stroke="#000000" stroke-width="2" d="M 211.7,35 213.7,34.9 215.4,34.6 216.6,34.1 217.5,33.6 218,32.9 218.3,32.2 218.4,31.4 218.2,30.7 217.8,30 217.3,29.4 216.7,28.9 216,28.5 215.3,28.3 214.5,28.4 213.8,28.7 213.1,29.2 212.6,30.1 212.1,31.4 211.8,33 211.7,35 211.7,50 204.1,68.5 206.4,62.9 206.7,62.1 207.1,61.4 207.6,60.6 208.1,59.9 208.7,59.3 209.3,58.7 210,58.2 210.7,57.7 211.5,57.3 212.3,57 213.2,56.7 214,56.5" />
<path stroke="#000000" stroke-width="2" d="M 225,70" />
<path stroke="#000000" stroke-width="2" d="M 225,20 225,40 235,40 242.7,58.5 250.3,40" />
<path stroke="#000000" stroke-width="2" d="M 280.3,70" />
<path stroke="#000000" stroke-width="2" d="M 280.3,30 290.3,30 290.3,70" />
<path stroke="#000000" stroke-width="2" d="M 297,70" />
<path stroke="#000000" stroke-width="2" d="M 297,50 297.2,50 297.2,50.2 297,50.2 297,50" />
<path stroke="#000000" stroke-width="2" d="M 327.2,70" />
<path stroke="#000000" stroke-width="2" d="M 343.2,30 323.4,49.8 343.2,69.6" />
<path stroke="#000000" stroke-width="2" d="M 349.9,70" />
<path stroke="#000000" stroke-width="2" d="M 349.9,20 349.9,40 359.9,40" />
<path stroke="#000000" stroke-width="2" d="M 389.9,70" />
<path stroke="#000000" stroke-width="2" d="M 389.9,70 405.2,33 420.5,70 420.5,90 430.5,90" />
<path stroke="#000000" stroke-width="2" d="M 430.5,90 431.9,90.1 433.2,90.6 434.3,91.2 435.3,92.1 436.1,93.1 436.8,94.3 437.3,95.6 437.7,97 437.9,98.5 438,100 437.9,101.5 437.7,103 437.3,104.4 436.8,105.7 436.1,106.9 435.3,107.9 434.3,108.8 433.2,109.4 431.9,109.9 430.5,110" />
<path stroke="#000000" stroke-width="2" d="M 444.7,70" />
<path stroke="#000000" stroke-width="2" d="M 444.7,50 452.3,31.5 460,50 460,50.7 460,51.4 460.1,52.1 460.3,52.8 460.6,53.4 460.9,54 461.2,54.6 461.6,55.2 462.1,55.8 462.5,56.2 463.1,56.7 463.7,57.1 464.3,57.4 464.9,57.7 465.5,58 466.2,58.2 466.9,58.3 467.6,58.3 468.3,58.3 469,58.3 469.7,58.2 470.4,58 471,57.7 471.6,57.4 472.2,57.1 472.8,56.7 473.4,56.2 473.8,55.8 474.3,55.2 474.7,54.6 475,54 475.3,53.4 475.6,52.8 475.8,52.1 475.9,51.4 475.9,50.7 495.9,50.7 476.1,70.5 496.1,70.5" />
<path stroke="#000000" stroke-width="2" d="M 526.1,70" />
<path stroke="#000000" stroke-width="2" d="M 526.1,70" />
<path stroke="#000000" stroke-width="2" d="M 526.1,70 527.3,70 528.3,70.2 529.1,70.4 529.8,70.7 530.4,71 530.8,71.5 531.1,71.9 531.3,72.5 531.4,73.1 531.4,73.8 531.3,74.4 531,75.2 530.7,76 530.3,76.8 529.8,77.6 529.2,78.4 528.6,79.3 527.8,80.2 527,81.1 526.1,82" />
<path stroke="#000000" stroke-width="2" d="M 561.4,70" />
</svg>