<svg xmlns="http://www.w3.org/2000/svg" width="694.8746311053479" height="90.2" style="fill:none; stroke-linecap:round;">
    <rect width="100%" height="100%" fill="#FFFFFF" />
<path stroke="#000000" stroke-width="2" d="M 550,75" />
<path stroke="#000000" stroke-width="2" d="M 20,30 40,30" />
<path stroke="#000000" stroke-width="2" d="M 40,30 41.4,30.1 42.7,30.6 43.8,31.2 44.8,32.1 45.6,33.1 46.3,34.3 46.8,35.6 47.2,37 47.4,38.5 47.5,40 47.4,41.5 47.2,43 46.8,44.4 46.3,45.7 45.6,46.9 44.8,47.9 43.8,48.8 42.7,49.4 41.4,49.9 40,50" />
<path stroke="#000000" stroke-width="2" d="M 77.5,70" />
<path stroke="#000000" stroke-width="2" d="M 77.5,30 77.5,70 77.5,58 77.5,56.3 77.7,54.5 78,52.8 78.4,51.1 79,49.5 79.7,47.9 80.6,46.4 81.6,45 82.7,43.6 84,42.4 85.3,41.3 86.7,40.3 88.2,39.4 89.8,38.7 91.5,38.1 93.2,37.6 94.9,37.3 96.6,37.1" />
<path stroke="#000000" stroke-width="2" d="M 103.3,70" />
<path stroke="#000000" stroke-width="2" d="M 103.3,30 118.6,67" />
<path stroke="#000000" stroke-width="2" d="M 125.2,70" />
<path stroke="#000000" stroke-width="2" d="M 125.2,20 132.9,38.5 132.9,58.5" />
<path stroke="#000000" stroke-width="2" d="M 139.6,70" />
<path stroke="#000000" stroke-width="2" d="M 139.6,20 139.8,20 139.8,20.2 139.6,20.2 139.6,20" />
<path stroke="#000000" stroke-width="2" d="M 169.8,70" />
<path stroke="#000000" stroke-width="2" d="M 169.8,30 169.8,70 181.1,58.7" />
<path stroke="#000000" stroke-width="2" d="M 187.7,70" />
<path stroke="#000000" stroke-width="2" d="M 197.7,50 190.1,68.5" />
<path stroke="#000000" stroke-width="2" d="M 227.7,70" />
<path stroke="#000000" stroke-width="2" d="M 243.7,30" />
<path stroke="#000000" stroke-width="2" d="M 243.7,30 243.5,34.1 242.9,37.3 242,39.8 240.9,41.5 239.5,42.7 238.1,43.2 236.6,43.3 235.1,43 233.7,42.3 232.5,41.2 231.5,40 230.8,38.6 230.4,37.2 230.5,35.7 231.1,34.2 232.2,32.9 234,31.7 236.5,30.8 239.7,30.2 243.7,30 263.7,30" />
<path stroke="#000000" stroke-width="2" d="M 270.4,70" />
<path stroke="#000000" stroke-width="2" d="M 270.4,40" />
<path stroke="#000000" stroke-width="2" d="M 270.4,40 274.5,39.8 277.7,39.2 280.2,38.3 281.9,37.1 283.1,35.8 283.6,34.3 283.7,32.8 283.4,31.4 282.7,30 281.7,28.8 280.4,27.7 279.1,27 277.6,26.7 276.1,26.8 274.6,27.3 273.3,28.5 272.1,30.2 271.2,32.7 270.6,35.9 270.4,40 270.4,70" />
<path stroke="#000000" stroke-width="2" d="M 313.7,70" />
<path stroke="#000000" stroke-width="2" d="M 333.7,70 335.5,70 337.2,69.8 338.9,69.5 340.6,69.1 342.3,68.5 343.8,67.8 345.3,66.9 346.8,65.9 348.1,64.8 349.3,63.5 350.5,62.2 351.5,60.8 352.3,59.3 353.1,57.7 353.7,56 354.1,54.3 354.4,52.6 354.6,50.9 354.6,49.1 354.4,47.4 354.1,45.7 353.7,44 353.1,42.4 352.3,40.8 351.5,39.3 350.5,37.8 349.3,36.5 348.1,35.3 346.8,34.2 345.3,33.2 343.8,32.3 342.3,31.5 340.6,30.9 338.9,30.5 337.2,30.2 335.5,30 333.7,30 332,30.2 330.3,30.5 328.6,30.9 326.9,31.5 325.4,32.3 323.9,33.2 322.4,34.2 321.1,35.3 319.9,36.5 318.7,37.8 317.7,39.3 316.9,40.8 316.1,42.4 315.5,44 315.1,45.7 314.8,47.4 314.6,49.1 314.6,50.9 314.8,52.6 315.1,54.3 315.5,56 316.1,57.7 316.9,59.3 317.7,60.8 318.7,62.2 319.9,63.5 321.1,64.8 322.4,65.9 323.9,66.9 325.4,67.8 326.9,68.5 328.6,69.1 330.3,69.5 332,69.8 333.7,70" />
<path stroke="#000000" stroke-width="2" d="M 361.2,70" />
<path stroke="#000000" stroke-width="2" d="M 361.2,40 368.9,21.5 376.6,40" />
<path stroke="#000000" stroke-width="2" d="M 406.6,70" />
<path stroke="#000000" stroke-width="2" d="M 406.6,30 421.9,67" />
<path stroke="#000000" stroke-width="2" d="M 428.5,70" />
<path stroke="#000000" stroke-width="2" d="M 428.5,20 428.5,40 438.5,40" />
<path stroke="#000000" stroke-width="2" d="M 468.5,70" />
<path stroke="#000000" stroke-width="2" d="M 468.5,30 468.5,70" />
<path stroke="#000000" stroke-width="2" d="M 475.2,70" />
<path stroke="#000000" stroke-width="2" d="M 475.2,30 475.4,30 475.4,30.2 475.2,30.2 475.2,30" />
<path stroke="#000000" stroke-width="2" d="M 505.4,70" />
<path stroke="#000000" stroke-width="2" d="M 505.4,30 505.4,50 515.4,50 535.4,50" />
<path stroke="#000000" stroke-width="2" d="M 565.4,70" />
<path stroke="#000000" stroke-width="2" d="M 565.4,40" />
<path stroke="#000000" stroke-width="2" d="M 565.4,40 569.5,39.8 572.7,39.2 575.1,38.3 576.9,37.1 578,35.8 578.6,34.3 578.7,32.8 578.4,31.4 577.6,30 576.6,28.8 575.4,27.7 574,27 572.6,26.7 571.1,26.8 569.6,27.3 568.3,28.5 567.1,30.2 566.2,32.7 565.6,35.9 565.4,40 565.4,70" />
<path stroke="#000000" stroke-width="2" d="M 585.4,70" />
<path stroke="#000000" stroke-width="2" d="M 585.4,20 585.4,40 595.4,40 595.4,40.7 595.4,41.4 595.6,42.1 595.7,42.8 596,43.4 596.3,44 596.6,44.6 597,45.2 597.5,45.8 598,46.2 598.5,46.7 599.1,47.1 599.7,47.4 600.3,47.7 601,48 601.6,48.2 602.3,48.3 603,48.3 603.7,48.3 604.4,48.3 605.1,48.2 605.8,48 606.4,47.7 607.1,47.4 607.7,47.1 608.2,46.7 608.8,46.2 609.3,45.8 609.7,45.2 610.1,44.6 610.5,44 610.8,43.4 611,42.8 611.2,42.1 611.3,41.4 611.4,40.7" />
<path stroke="#000000" stroke-width="2" d="M 618,70" />
<path stroke="#000000" stroke-width="2" d="M 618,20 638,20" />
<path stroke="#000000" stroke-width="2" d="M 638,20 640.1,19.9 641.7,19.6 642.9,19.1 643.8,18.6 644.3,17.9 644.6,17.2 644.7,16.4 644.5,15.7 644.1,15 643.6,14.4 643,13.9 642.3,13.5 641.6,13.3 640.9,13.4 640.1,13.7 639.5,14.2 638.9,15.1 638.4,16.4 638.1,18 638,20 638,35" />
<path stroke="#000000" stroke-width="2" d="M 674.7,70" />
<path stroke="#000000" stroke-width="2" d="M 674.7,70 674.9,70 674.9,70.2 674.7,70.2 674.7,70" />
<path stroke="#000000" stroke-width="2" d="M 704.9,70" />
</svg>