<svg xmlns="http://www.w3.org/2000/svg" width="459.584607246322" height="102.0" style="fill:none; stroke-linecap:round;">
    <rect width="100%" height="100%" fill="#FFFFFF" />
<path stroke="#000000" stroke-width="2" d="M 550,75" />
<path stroke="#000000" stroke-width="2" d="M 20,30 20,50 30,50 35,50 35,70" />
<path stroke="#000000" stroke-width="2" d="M 65,70" />
<path stroke="#000000" stroke-width="2" d="M 85,30 85,70 65,70" />
<path stroke="#000000" stroke-width="2" d="M 91.7,70" />
<path stroke="#000000" stroke-width="2" d="M 91.7,50 91.9,50 91.9,50.2 91.7,50.2 91.7,50" />
<path stroke="#000000" stroke-width="2" d="M 121.9,70" />
<path stroke="#000000" stroke-width="2" d="M 121.9,50 121.9,49.3 121.9,48.6 122,47.9 122.2,47.2 122.5,46.6 122.8,46 123.1,45.4 123.5,44.8 124,44.2 124.5,43.8 125,43.3 125.6,42.9 126.2,42.6 126.8,42.3 127.5,42 128.1,41.8 128.8,41.7 129.5,41.7 130.2,41.7 130.9,41.7 131.6,41.8 132.3,42 132.9,42.3 133.6,42.6 134.2,42.9 134.7,43.3 135.3,43.8 135.8,44.2 136.2,44.8 136.6,45.4 137,46 137.3,46.6 137.5,47.2 137.7,47.9 137.8,48.6 137.9,49.3" />
<path stroke="#000000" stroke-width="2" d="M 137.9,45.3" />
<path stroke="#000000" stroke-width="2" d="M 131.9,45.3 147.9,45.3" />
<path stroke="#000000" stroke-width="2" d="M 147.9,45.3 147.7,47.3 147.4,48.9 147,50.2 146.4,51.1 145.7,51.6 145,51.9 144.3,52 143.5,51.8 142.8,51.4 142.2,50.9 141.7,50.3 141.4,49.6 141.2,48.9 141.2,48.1 141.5,47.4 142.1,46.7 143,46.2 144.2,45.7 145.8,45.4 147.9,45.3 157.9,45.3" />
<path stroke="#000000" stroke-width="2" d="M 164.5,70" />
<path stroke="#000000" stroke-width="2" d="M 164.5,20 164.5,40 164.5,34 164.5,33.1 164.6,32.3 164.7,31.4 165,30.6 165.3,29.7 165.6,28.9 166.1,28.2 166.6,27.5 167.1,26.8 167.8,26.2 168.4,25.6 169.1,25.1 169.9,24.7 170.7,24.3 171.5,24 172.3,23.8 173.2,23.6 174.1,23.6" />
<path stroke="#000000" stroke-width="2" d="M 204.1,70" />
<path stroke="#000000" stroke-width="2" d="M 224.1,30 224.1,70 204.1,70" />
<path stroke="#000000" stroke-width="2" d="M 230.7,70" />
<path stroke="#000000" stroke-width="2" d="M 230.7,20 230.7,40 230.7,34 230.7,33.1 230.8,32.3 231,31.4 231.2,30.6 231.5,29.7 231.9,28.9 232.3,28.2 232.8,27.5 233.4,26.8 234,26.2 234.6,25.6 235.4,25.1 236.1,24.7 236.9,24.3 237.7,24 238.6,23.8 239.4,23.6 240.3,23.6" />
<path stroke="#000000" stroke-width="2" d="M 240.3,23.6 242.3,23.5 243.9,23.2 245.2,22.7 246.1,22.1 246.6,21.5 246.9,20.7 246.9,20 246.8,19.3 246.4,18.6 245.9,17.9 245.3,17.4 244.6,17.1 243.9,16.9 243.1,17 242.4,17.2 241.7,17.8 241.2,18.7 240.7,19.9 240.4,21.5 240.3,23.6 240.3,38.6 240.3,39.3 240.4,40 240.5,40.7 240.7,41.3 240.9,42 241.2,42.6 241.5,43.2 241.9,43.8 242.4,44.3 242.9,44.8 243.4,45.3 244,45.7 244.6,46 245.2,46.3 245.9,46.6 246.6,46.7 247.2,46.9 247.9,46.9 248.6,46.9 249.3,46.9 250,46.7 250.7,46.6 251.3,46.3 252,46 252.6,45.7 253.2,45.3 253.7,44.8 254.2,44.3 254.6,43.8 255,43.2 255.4,42.6 255.7,42 255.9,41.3 256.1,40.7 256.2,40 256.3,39.3" />
<path stroke="#000000" stroke-width="2" d="M 256.3,31.3" />
<path stroke="#000000" stroke-width="2" d="M 236.3,31.3 244.3,31.3" />
<path stroke="#000000" stroke-width="2" d="M 286.3,70" />
<path stroke="#000000" stroke-width="2" d="M 286.3,30 286.3,70 297.6,58.7" />
<path stroke="#000000" stroke-width="2" d="M 304.3,70" />
<path stroke="#000000" stroke-width="2" d="M 324.3,70 326,70 327.7,69.8 329.5,69.5 331.1,69.1 332.8,68.5 334.4,67.8 335.9,66.9 337.3,65.9 338.6,64.8 339.9,63.5 341,62.2 342,60.8 342.9,59.3 343.6,57.7 344.2,56 344.7,54.3 345,52.6 345.1,50.9 345.1,49.1 345,47.4 344.7,45.7 344.2,44 343.6,42.4 342.9,40.8 342,39.3 341,37.8 339.9,36.5 338.6,35.3 337.3,34.2 335.9,33.2 334.4,32.3 332.8,31.5 331.1,30.9 329.5,30.5 327.7,30.2 326,30 324.3,30 322.5,30.2 320.8,30.5 319.1,30.9 317.5,31.5 315.9,32.3 314.4,33.2 313,34.2 311.6,35.3 310.4,36.5 309.3,37.8 308.3,39.3 307.4,40.8 306.7,42.4 306.1,44 305.6,45.7 305.3,47.4 305.1,49.1 305.1,50.9 305.3,52.6 305.6,54.3 306.1,56 306.7,57.7 307.4,59.3 308.3,60.8 309.3,62.2 310.4,63.5 311.6,64.8 313,65.9 314.4,66.9 315.9,67.8 317.5,68.5 319.1,69.1 320.8,69.5 322.5,69.8 324.3,70" />
<path stroke="#000000" stroke-width="2" d="M 375.1,70" />
<path stroke="#000000" stroke-width="2" d="M 380.1,30" />
<path stroke="#000000" stroke-width="2" d="M 380.1,30 378.7,30.1 377.4,30.6 376.3,31.2 375.3,32.1 374.5,33.1 373.8,34.3 373.3,35.6 372.9,37 372.7,38.5 372.6,40 372.7,41.5 372.9,43 373.3,44.4 373.8,45.7 374.5,46.9 375.3,47.9 376.3,48.8 377.4,49.4 378.7,49.9 380.1,50" />
<path stroke="#000000" stroke-width="2" d="M 380.1,40" />
<path stroke="#000000" stroke-width="2" d="M 364.1,40 384.1,40 404.1,40 384.3,59.8 404.3,59.8" />
<path stroke="#000000" stroke-width="2" d="M 434.3,70" />
<path stroke="#000000" stroke-width="2" d="M 434.3,70" />
<path stroke="#000000" stroke-width="2" d="M 434.3,70 435.4,70 436.4,70.2 437.3,70.4 438,70.7 438.5,71 439,71.5 439.3,71.9 439.5,72.5 439.6,73.1 439.6,73.8 439.4,74.4 439.2,75.2 438.9,76 438.5,76.8 438,77.6 437.4,78.4 436.7,79.3 436,80.2 435.2,81.1 434.3,82" />
<path stroke="#000000" stroke-width="2" d="M 469.6,70" />
</svg>