<svg xmlns="http://www.w3.org/2000/svg" width="652.3527967728627" height="90.2" style="fill:none; stroke-linecap:round;">
    <rect width="100%" height="100%" fill="#FFFFFF" />
<path stroke="#000000" stroke-width="2" d="M 550,75" />
<path stroke="#000000" stroke-width="2" d="M 20,30 35.3,67" />
<path stroke="#000000" stroke-width="2" d="M 42,70" />
<path stroke="#000000" stroke-width="2" d="M 42,20 62,20" />
<path stroke="#000000" stroke-width="2" d="M 68.6,70" />
<path stroke="#000000" stroke-width="2" d="M 68.6,30 68.8,30 68.8,30.2 68.6,30.2 68.6,30" />
<path stroke="#000000" stroke-width="2" d="M 98.8,70" />
<path stroke="#000000" stroke-width="2" d="M 98.8,30 108.8,30 108.8,70" />
<path stroke="#000000" stroke-width="2" d="M 115.5,70" />
<path stroke="#000000" stroke-width="2" d="M 115.5,50 123.2,31.5 130.8,50 150.8,50 131,69.8 151,69.8" />
<path stroke="#000000" stroke-width="2" d="M 181,70" />
<path stroke="#000000" stroke-width="2" d="M 181,40 181.2,40 181.2,40.2 181,40.2 181,40" />
<path stroke="#000000" stroke-width="2" d="M 187.9,70" />
<path stroke="#000000" stroke-width="2" d="M 187.9,30 187.9,70" />
<path stroke="#000000" stroke-width="2" d="M 194.5,70" />
<path stroke="#000000" stroke-width="2" d="M 194.5,50 214.5,50" />
<path stroke="#000000" stroke-width="2" d="M 244.5,70" />
<path stroke="#000000" stroke-width="2" d="M 249.5,30" />
<path stroke="#000000" stroke-width="2" d="M 249.5,30 248.1,30.1 246.8,30.6 245.7,31.2 244.7,32.1 243.9,33.1 243.2,34.3 242.7,35.6 242.3,37 242.1,38.5 242,40 242.1,41.5 242.3,43 242.7,44.4 243.2,45.7 243.9,46.9 244.7,47.9 245.7,48.8 246.8,49.4 248.1,49.9 249.5,50 257.2,68.5 264.9,50" />
<path stroke="#000000" stroke-width="2" d="M 294.9,70" />
<path stroke="#000000" stroke-width="2" d="M 294.9,30 304.9,30 304.9,70" />
<path stroke="#000000" stroke-width="2" d="M 311.5,70" />
<path stroke="#000000" stroke-width="2" d="M 321.5,20 313.9,38.5" />
<path stroke="#000000" stroke-width="2" d="M 328.2,70" />
<path stroke="#000000" stroke-width="2" d="M 328.2,30 328.2,38 328.2,39 328.3,40.1 328.5,41.1 328.7,42.1 329.1,43.1 329.5,44.1 330.1,45 330.7,45.8 331.3,46.6 332.1,47.4 332.9,48 333.7,48.6 334.6,49.2 335.6,49.6 336.6,50 337.6,50.2 338.6,50.4 339.7,50.5 340.7,50.5 341.7,50.4 342.8,50.2 343.8,50 344.8,49.6 345.7,49.2 346.6,48.6 347.5,48 348.3,47.4 349,46.6 349.7,45.8 350.3,45 350.8,44.1 351.3,43.1 351.6,42.1 351.9,41.1 352.1,40.1 352.2,39 352.2,29 352.2,69" />
<path stroke="#000000" stroke-width="2" d="M 382.2,70" />
<path stroke="#000000" stroke-width="2" d="M 382.2,30 402.2,30" />
<path stroke="#000000" stroke-width="2" d="M 402.2,30 403.6,30.1 404.9,30.6 406,31.2 407,32.1 407.8,33.1 408.5,34.3 409,35.6 409.4,37 409.6,38.5 409.7,40 409.6,41.5 409.4,43 409,44.4 408.5,45.7 407.8,46.9 407,47.9 406,48.8 404.9,49.4 403.6,49.9 402.2,50" />
<path stroke="#000000" stroke-width="2" d="M 439.7,70" />
<path stroke="#000000" stroke-width="2" d="M 439.7,30 439.7,31.4 439.8,32.8 440,34.2 440.4,35.5 440.9,36.8 441.5,38.1 442.2,39.3 443,40.4 443.9,41.5 444.8,42.5 445.9,43.4 447.1,44.2 448.3,44.9 449.5,45.5 450.8,46 452.2,46.3 453.6,46.6 455,46.7 456.3,46.7 457.7,46.6 459.1,46.3 460.5,46 461.8,45.5 463,44.9 464.2,44.2 465.4,43.4 466.5,42.5 467.4,41.5 468.3,40.4 469.1,39.3 469.8,38.1 470.4,36.8 470.9,35.5 471.3,34.2 471.5,32.8 471.6,31.4" />
<path stroke="#000000" stroke-width="2" d="M 478.3,70" />
<path stroke="#000000" stroke-width="2" d="M 478.3,20" />
<path stroke="#000000" stroke-width="2" d="M 478.3,20 478.4,20 478.9,20 479.5,20 480.4,20.1 481.4,20.2 482.6,20.3 483.9,20.4 485.3,20.6 486.8,20.9 488.3,21.2 489.8,21.7 491.3,22.2 492.7,22.7 494,23.4 495.2,24.2 496.2,25.1 497.1,26.1 497.7,27.3 498.2,28.6 498.3,30" />
<path stroke="#000000" stroke-width="2" d="M 498.3,30 500.2,32.1 501.5,34.1 502.3,35.7 502.6,37.2 502.5,38.4 502.1,39.4 501.4,40.2 500.5,40.8 499.4,41.1 498.3,41.2 497.2,41.1 496.1,40.8 495.2,40.2 494.5,39.4 494.1,38.4 494,37.2 494.3,35.7 495.1,34 496.4,32.1 498.3,30" />
<path stroke="#000000" stroke-width="2" d="M 498.3,30 498.3,29.9 498.3,29.7 498.4,29.4 498.5,29 498.6,28.4 498.8,27.8 499.2,27.2 499.6,26.5 500.1,25.7 500.8,25 501.6,24.3 502.6,23.5 503.8,22.8 505.2,22.2 506.7,21.6 508.5,21 510.6,20.6 512.9,20.3 515.5,20.1 518.3,20 538.3,20 538.3,20.7 538.4,21.4 538.5,22.1 538.7,22.8 538.9,23.4 539.2,24 539.5,24.6 539.9,25.2 540.4,25.8 540.9,26.2 541.4,26.7 542,27.1 542.6,27.4 543.2,27.7 543.9,28 544.6,28.2 545.3,28.3 545.9,28.3 546.6,28.3 547.3,28.3 548,28.2 548.7,28 549.4,27.7 550,27.4 550.6,27.1 551.2,26.7 551.7,26.2 552.2,25.8 552.6,25.2 553,24.6 553.4,24 553.7,23.4 553.9,22.8 554.1,22.1 554.2,21.4 554.3,20.7" />
<path stroke="#000000" stroke-width="2" d="M 561,70" />
<path stroke="#000000" stroke-width="2" d="M 561,30 601,30 589.6,41.3 590.7,41.3 591.7,41.4 592.8,41.6 593.8,41.9 594.8,42.2 595.7,42.7 596.6,43.2 597.5,43.8 598.3,44.5 599,45.2 599.7,46 600.3,46.9 600.8,47.8 601.3,48.7 601.6,49.7 601.9,50.7 602.1,51.7 602.2,52.8 602.2,53.8 602.1,54.9 601.9,55.9 601.6,56.9 601.3,57.9 600.8,58.8 600.3,59.7 599.7,60.6 599,61.4 598.3,62.1 597.5,62.8 596.6,63.4 595.7,63.9 594.8,64.4 593.8,64.7 592.8,65 591.7,65.2 590.7,65.3" />
<path stroke="#000000" stroke-width="2" d="M 632.2,70" />
<path stroke="#000000" stroke-width="2" d="M 632.2,70 632.4,70 632.4,70.2 632.2,70.2 632.2,70" />
<path stroke="#000000" stroke-width="2" d="M 662.4,70" />
</svg>