<svg xmlns="http://www.w3.org/2000/svg" width="343.42422544404656" height="93.30875" style="fill:none; stroke-linecap:round;">
    <rect width="100%" height="100%" fill="#FFFFFF" />
<path stroke="#000000" stroke-width="2" d="M 550,75" />
<path stroke="#000000" stroke-width="2" d="M 20,30 20,70" />
<path stroke="#000000" stroke-width="2" d="M 26.7,70" />
<path stroke="#000000" stroke-width="2" d="M 26.7,30 26.9,30 26.9,30.2 26.7,30.2 26.7,30" />
<path stroke="#000000" stroke-width="2" d="M 56.9,70" />
<path stroke="#000000" stroke-width="2" d="M 72.9,30 72.9,60" />
<path stroke="#000000" stroke-width="2" d="M 72.9,60 72.7,64.1 72.1,67.3 71.1,69.8 70,71.5 68.6,72.7 67.2,73.2 65.7,73.3 64.2,73 62.8,72.3 61.6,71.2 60.6,70 59.9,68.6 59.6,67.2 59.6,65.7 60.2,64.2 61.3,62.9 63.1,61.7 65.6,60.8 68.8,60.2 72.9,60" />
<path stroke="#000000" stroke-width="2" d="M 79.5,70" />
<path stroke="#000000" stroke-width="2" d="M 79.5,20 99.5,20 91.9,38.5" />
<path stroke="#000000" stroke-width="2" d="M 106.2,70" />
<path stroke="#000000" stroke-width="2" d="M 106.2,20 106.2,20.7 106.3,21.4 106.4,22.1 106.6,22.8 106.8,23.4 107.1,24 107.4,24.6 107.8,25.2 108.3,25.8 108.8,26.2 109.3,26.7 109.9,27.1 110.5,27.4 111.1,27.7 111.8,28 112.5,28.2 113.1,28.3 113.8,28.3 114.5,28.3 115.2,28.3 115.9,28.2 116.6,28 117.3,27.7 117.9,27.4 118.5,27.1 119.1,26.7 119.6,26.2 120.1,25.8 120.5,25.2 120.9,24.6 121.3,24 121.6,23.4 121.8,22.8 122,22.1 122.1,21.4 122.2,20.7" />
<path stroke="#000000" stroke-width="2" d="M 152.2,70" />
<path stroke="#000000" stroke-width="2" d="M 152.2,30 152.2,70 163.5,58.7" />
<path stroke="#000000" stroke-width="2" d="M 170.2,70" />
<path stroke="#000000" stroke-width="2" d="M 190.2,70 191.9,70 193.6,69.8 195.4,69.5 197.1,69.1 198.7,68.5 200.3,67.8 201.8,66.9 203.2,65.9 204.5,64.8 205.8,63.5 206.9,62.2 207.9,60.8 208.8,59.3 209.5,57.7 210.1,56 210.6,54.3 210.9,52.6 211,50.9 211,49.1 210.9,47.4 210.6,45.7 210.1,44 209.5,42.4 208.8,40.8 207.9,39.3 206.9,37.8 205.8,36.5 204.5,35.3 203.2,34.2 201.8,33.2 200.3,32.3 198.7,31.5 197.1,30.9 195.4,30.5 193.6,30.2 191.9,30 190.2,30 188.4,30.2 186.7,30.5 185,30.9 183.4,31.5 181.8,32.3 180.3,33.2 178.9,34.2 177.5,35.3 176.3,36.5 175.2,37.8 174.2,39.3 173.3,40.8 172.6,42.4 172,44 171.5,45.7 171.2,47.4 171.1,49.1 171.1,50.9 171.2,52.6 171.5,54.3 172,56 172.6,57.7 173.3,59.3 174.2,60.8 175.2,62.2 176.3,63.5 177.5,64.8 178.9,65.9 180.3,66.9 181.8,67.8 183.4,68.5 185,69.1 186.7,69.5 188.4,69.8 190.2,70" />
<path stroke="#000000" stroke-width="2" d="M 241,70" />
<path stroke="#000000" stroke-width="2" d="M 261,30 261,70 241,70" />
<path stroke="#000000" stroke-width="2" d="M 267.7,70" />
<path stroke="#000000" stroke-width="2" d="M 267.7,20 267.7,40 267.7,34 267.7,33.1 267.8,32.3 267.9,31.4 268.1,30.6 268.4,29.7 268.8,28.9 269.2,28.2 269.7,27.5 270.3,26.8 270.9,26.2 271.6,25.6 272.3,25.1 273.1,24.7 273.8,24.3 274.7,24 275.5,23.8 276.4,23.6 277.2,23.6" />
<path stroke="#000000" stroke-width="2" d="M 277.2,23.6 279.3,23.5 280.9,23.2 282.1,22.7 283,22.1 283.6,21.5 283.9,20.7 283.9,20 283.7,19.3 283.4,18.6 282.9,17.9 282.3,17.4 281.6,17.1 280.8,16.9 280.1,17 279.3,17.2 278.7,17.8 278.1,18.7 277.6,19.9 277.3,21.5 277.2,23.6 277.2,38.6 277.2,39.3 277.3,40 277.4,40.7 277.6,41.3 277.8,42 278.1,42.6 278.5,43.2 278.9,43.8 279.3,44.3 279.8,44.8 280.4,45.3 280.9,45.7 281.5,46 282.2,46.3 282.8,46.6 283.5,46.7 284.2,46.9 284.9,46.9 285.6,46.9 286.3,46.9 287,46.7 287.6,46.6 288.3,46.3 288.9,46 289.5,45.7 290.1,45.3 290.6,44.8 291.1,44.3 291.6,43.8 292,43.2 292.3,42.6 292.6,42 292.9,41.3 293,40.7 293.2,40 293.2,39.3" />
<path stroke="#000000" stroke-width="2" d="M 293.2,31.3" />
<path stroke="#000000" stroke-width="2" d="M 273.2,31.3 281.2,31.3" />
<path stroke="#000000" stroke-width="2" d="M 323.2,70" />
<path stroke="#000000" stroke-width="2" d="M 323.2,70 323.4,70 323.4,70.2 323.2,70.2 323.2,70" />
<path stroke="#000000" stroke-width="2" d="M 353.4,70" />
</svg>