<svg xmlns="http://www.w3.org/2000/svg" width="469.4523256335505" height="90.2" style="fill:none; stroke-linecap:round;">
    <rect width="100%" height="100%" fill="#FFFFFF" />
<path stroke="#000000" stroke-width="2" d="M 550,75" />
<path stroke="#000000" stroke-width="2" d="M 20,30 30,30 30,70" />
<path stroke="#000000" stroke-width="2" d="M 36.7,70" />
<path stroke="#000000" stroke-width="2" d="M 36.7,50 36.7,70 36.7,64 36.7,63.1 36.7,62.3 36.9,61.4 37.1,60.6 37.4,59.7 37.8,58.9 38.2,58.2 38.7,57.5 39.3,56.8 39.9,56.2 40.6,55.6 41.3,55.1 42,54.7 42.8,54.3 43.7,54 44.5,53.8 45.4,53.6 46.2,53.6" />
<path stroke="#000000" stroke-width="2" d="M 76.2,70" />
<path stroke="#000000" stroke-width="2" d="M 76.2,70 76.4,70 76.4,70.2 76.2,70.2 76.2,70" />
<path stroke="#000000" stroke-width="2" d="M 83.1,70" />
<path stroke="#000000" stroke-width="2" d="M 83.1,30 83.1,70 94.4,58.7" />
<path stroke="#000000" stroke-width="2" d="M 101.1,70" />
<path stroke="#000000" stroke-width="2" d="M 101.1,20 101.1,40 101.1,34 101.1,33.1 101.1,32.3 101.3,31.4 101.5,30.6 101.8,29.7 102.2,28.9 102.6,28.2 103.1,27.5 103.7,26.8 104.3,26.2 105,25.6 105.7,25.1 106.4,24.7 107.2,24.3 108.1,24 108.9,23.8 109.8,23.6 110.6,23.6 110.6,24.3 110.7,25 110.8,25.7 111,26.3 111.2,27 111.5,27.6 111.9,28.2 112.3,28.8 112.7,29.3 113.2,29.8 113.7,30.3 114.3,30.7 114.9,31 115.6,31.3 116.2,31.6 116.9,31.7 117.6,31.9 118.3,31.9 119,31.9 119.7,31.9 120.3,31.7 121,31.6 121.7,31.3 122.3,31 122.9,30.7 123.5,30.3 124,29.8 124.5,29.3 125,28.8 125.4,28.2 125.7,27.6 126,27 126.2,26.3 126.4,25.7 126.5,25 126.6,24.3" />
<path stroke="#000000" stroke-width="2" d="M 126.6,24.3 128,24.4 129.3,24.8 130.4,25.5 131.4,26.4 132.2,27.4 132.9,28.6 133.4,29.9 133.8,31.3 134,32.8 134.1,34.3 134,35.8 133.8,37.2 133.4,38.6 132.9,40 132.2,41.1 131.4,42.2 130.4,43.1 129.3,43.7 128,44.1 126.6,44.3" />
<path stroke="#000000" stroke-width="2" d="M 164.1,70" />
<path stroke="#000000" stroke-width="2" d="M 164.1,30 164.1,50 174.1,50 194.1,50 174.3,69.8 194.3,69.8" />
<path stroke="#000000" stroke-width="2" d="M 224.3,70" />
<path stroke="#000000" stroke-width="2" d="M 224.3,30 234.3,30 234.3,70" />
<path stroke="#000000" stroke-width="2" d="M 234.3,50" />
<path stroke="#000000" stroke-width="2" d="M 226.3,50 242.3,50" />
<path stroke="#000000" stroke-width="2" d="M 272.3,70" />
<path stroke="#000000" stroke-width="2" d="M 272.3,50 280,31.5 287.6,50 295.3,68.5 302.9,50" />
<path stroke="#000000" stroke-width="2" d="M 332.9,70" />
<path stroke="#000000" stroke-width="2" d="M 352.9,30 337.6,67 342.2,55.9 342.9,54.3 343.7,52.7 344.6,51.2 345.7,49.9 346.9,48.6 348.1,47.4 349.5,46.3 351,45.4 352.5,44.6 354.2,43.9 355.8,43.4 357.5,43" />
<path stroke="#000000" stroke-width="2" d="M 364.2,70" />
<path stroke="#000000" stroke-width="2" d="M 364.2,46 364.2,44.6 364.3,43.2 364.6,41.8 364.9,40.5 365.4,39.2 366,37.9 366.7,36.7 367.5,35.6 368.4,34.5 369.4,33.5 370.4,32.6 371.6,31.8 372.8,31.1 374.1,30.5 375.4,30 376.7,29.7 378.1,29.4 379.5,29.3 380.9,29.3 382.3,29.4 383.6,29.7 385,30 386.3,30.5 387.6,31.1 388.8,31.8 389.9,32.6 391,33.5 392,34.5 392.9,35.6 393.7,36.7 394.4,37.9 395,39.2 395.4,40.5 395.8,41.8 396,43.2 396.2,44.6" />
<path stroke="#000000" stroke-width="2" d="M 402.8,70" />
<path stroke="#000000" stroke-width="2" d="M 402.8,20 402.8,40 402.8,34 402.8,33.1 402.9,32.3 403.1,31.4 403.3,30.6 403.6,29.7 404,28.9 404.4,28.2 404.9,27.5 405.4,26.8 406.1,26.2 406.7,25.6 407.4,25.1 408.2,24.7 409,24.3 409.8,24 410.7,23.8 411.5,23.6 412.4,23.6" />
<path stroke="#000000" stroke-width="2" d="M 419.1,70" />
<path stroke="#000000" stroke-width="2" d="M 419.1,30 419.3,30 419.3,30.2 419.1,30.2 419.1,30" />
<path stroke="#000000" stroke-width="2" d="M 449.3,70" />
<path stroke="#000000" stroke-width="2" d="M 449.3,70 449.5,70 449.5,70.2 449.3,70.2 449.3,70" />
<path stroke="#000000" stroke-width="2" d="M 479.5,70" />
</svg>