<svg xmlns="http://www.w3.org/2000/svg" width="621.8380170924951" height="102.0" style="fill:none; stroke-linecap:round;">
    <rect width="100%" height="100%" fill="#FFFFFF" />
<path stroke="#000000" stroke-width="2" d="M 550,75" />
<path stroke="#000000" stroke-width="2" d="M 20,50 27.7,31.5 35.3,50 55.3,50 35.5,69.8 55.5,69.8" />
<path stroke="#000000" stroke-width="2" d="M 85.5,70" />
<path stroke="#000000" stroke-width="2" d="M 85.5,30 95.5,30 95.5,70" />
<path stroke="#000000" stroke-width="2" d="M 102.2,70" />
<path stroke="#000000" stroke-width="2" d="M 102.2,50 102.2,70 102.2,64 102.2,63.1 102.3,62.3 102.4,61.4 102.6,60.6 102.9,59.7 103.3,58.9 103.7,58.2 104.2,57.5 104.8,56.8 105.4,56.2 106.1,55.6 106.8,55.1 107.5,54.7 108.3,54.3 109.2,54 110,53.8 110.9,53.6 111.7,53.6" />
<path stroke="#000000" stroke-width="2" d="M 141.7,70" />
<path stroke="#000000" stroke-width="2" d="M 141.7,50 149.4,31.5 157,50 177,50 157.2,69.8 177.2,69.8" />
<path stroke="#000000" stroke-width="2" d="M 207.2,70" />
<path stroke="#000000" stroke-width="2" d="M 223.2,30" />
<path stroke="#000000" stroke-width="2" d="M 223.2,30 223,34.1 222.4,37.3 221.5,39.8 220.4,41.5 219,42.7 217.6,43.2 216.1,43.3 214.6,43 213.2,42.3 212,41.2 211,40 210.3,38.6 209.9,37.2 210,35.7 210.6,34.2 211.7,32.9 213.5,31.7 215.9,30.8 219.2,30.2 223.2,30 243.2,30" />
<path stroke="#000000" stroke-width="2" d="M 249.9,70" />
<path stroke="#000000" stroke-width="2" d="M 249.9,55" />
<path stroke="#000000" stroke-width="2" d="M 249.9,55 251.9,54.9 253.5,54.6 254.8,54.1 255.7,53.6 256.2,52.9 256.5,52.2 256.6,51.4 256.4,50.7 256,50 255.5,49.4 254.9,48.9 254.2,48.5 253.5,48.3 252.7,48.4 252,48.7 251.3,49.2 250.8,50.1 250.3,51.4 250,53 249.9,55 249.9,70" />
<path stroke="#000000" stroke-width="2" d="M 263.2,70" />
<path stroke="#000000" stroke-width="2" d="M 263.2,20 263.2,40" />
<path stroke="#000000" stroke-width="2" d="M 269.9,70" />
<path stroke="#000000" stroke-width="2" d="M 269.9,20 269.9,20.7 270,21.4 270.1,22.1 270.3,22.8 270.5,23.4 270.8,24 271.1,24.6 271.5,25.2 272,25.8 272.5,26.2 273,26.7 273.6,27.1 274.2,27.4 274.8,27.7 275.5,28 276.2,28.2 276.8,28.3 277.5,28.3 278.2,28.3 278.9,28.3 279.6,28.2 280.3,28 280.9,27.7 281.6,27.4 282.2,27.1 282.8,26.7 283.3,26.2 283.8,25.8 284.2,25.2 284.6,24.6 285,24 285.3,23.4 285.5,22.8 285.7,22.1 285.8,21.4 285.9,20.7" />
<path stroke="#000000" stroke-width="2" d="M 315.9,70" />
<path stroke="#000000" stroke-width="2" d="M 315.9,70" />
<path stroke="#000000" stroke-width="2" d="M 315.9,70 317,70 318,70.2 318.8,70.4 319.5,70.7 320.1,71 320.5,71.5 320.9,71.9 321.1,72.5 321.1,73.1 321.1,73.8 321,74.4 320.8,75.2 320.4,76 320,76.8 319.5,77.6 318.9,78.4 318.3,79.3 317.6,80.2 316.7,81.1 315.9,82" />
<path stroke="#000000" stroke-width="2" d="M 351.1,70" />
<path stroke="#000000" stroke-width="2" d="M 351.1,30 351.1,70 362.5,58.7" />
<path stroke="#000000" stroke-width="2" d="M 369.1,70" />
<path stroke="#000000" stroke-width="2" d="M 389.1,70 390.9,70 392.6,69.8 394.3,69.5 396,69.1 397.7,68.5 399.2,67.8 400.7,66.9 402.2,65.9 403.5,64.8 404.7,63.5 405.9,62.2 406.9,60.8 407.7,59.3 408.5,57.7 409.1,56 409.5,54.3 409.8,52.6 410,50.9 410,49.1 409.8,47.4 409.5,45.7 409.1,44 408.5,42.4 407.7,40.8 406.9,39.3 405.9,37.8 404.7,36.5 403.5,35.3 402.2,34.2 400.7,33.2 399.2,32.3 397.7,31.5 396,30.9 394.3,30.5 392.6,30.2 390.9,30 389.1,30 387.4,30.2 385.7,30.5 384,30.9 382.3,31.5 380.8,32.3 379.3,33.2 377.8,34.2 376.5,35.3 375.3,36.5 374.1,37.8 373.1,39.3 372.3,40.8 371.5,42.4 370.9,44 370.5,45.7 370.2,47.4 370,49.1 370,50.9 370.2,52.6 370.5,54.3 370.9,56 371.5,57.7 372.3,59.3 373.1,60.8 374.1,62.2 375.3,63.5 376.5,64.8 377.8,65.9 379.3,66.9 380.8,67.8 382.3,68.5 384,69.1 385.7,69.5 387.4,69.8 389.1,70" />
<path stroke="#000000" stroke-width="2" d="M 416.6,70" />
<path stroke="#000000" stroke-width="2" d="M 416.6,20" />
<path stroke="#000000" stroke-width="2" d="M 416.6,20 416.8,20 417.2,20 417.9,20 418.7,20.1 419.8,20.2 421,20.3 422.3,20.4 423.7,20.6 425.2,20.9 426.6,21.2 428.1,21.7 429.6,22.2 431,22.7 432.3,23.4 433.5,24.2 434.6,25.1 435.4,26.1 436.1,27.3 436.5,28.6 436.6,30" />
<path stroke="#000000" stroke-width="2" d="M 436.6,30 438.6,32.1 439.9,34.1 440.7,35.7 441,37.2 440.9,38.4 440.4,39.4 439.7,40.2 438.8,40.8 437.8,41.1 436.6,41.2 435.5,41.1 434.5,40.8 433.6,40.2 432.9,39.4 432.4,38.4 432.3,37.2 432.6,35.7 433.4,34 434.7,32.1 436.6,30" />
<path stroke="#000000" stroke-width="2" d="M 436.6,30 436.7,29.9 436.7,29.7 436.7,29.4 436.8,29 437,28.4 437.2,27.8 437.5,27.2 437.9,26.5 438.5,25.7 439.1,25 440,24.3 441,23.5 442.1,22.8 443.5,22.2 445.1,21.6 446.9,21 448.9,20.6 451.2,20.3 453.8,20.1 456.6,20 449,38.5" />
<path stroke="#000000" stroke-width="2" d="M 486.6,70" />
<path stroke="#000000" stroke-width="2" d="M 486.6,40" />
<path stroke="#000000" stroke-width="2" d="M 486.6,40 490.7,39.8 493.9,39.2 496.4,38.3 498.2,37.1 499.3,35.8 499.9,34.3 500,32.8 499.6,31.4 498.9,30 497.9,28.8 496.7,27.7 495.3,27 493.8,26.7 492.3,26.8 490.9,27.3 489.5,28.5 488.4,30.2 487.5,32.7 486.9,35.9 486.6,40 486.6,70" />
<path stroke="#000000" stroke-width="2" d="M 506.6,70" />
<path stroke="#000000" stroke-width="2" d="M 506.6,20 506.6,40 506.6,34 506.6,33.1 506.7,32.3 506.9,31.4 507.1,30.6 507.4,29.7 507.7,28.9 508.2,28.2 508.7,27.5 509.2,26.8 509.9,26.2 510.5,25.6 511.2,25.1 512,24.7 512.8,24.3 513.6,24 514.5,23.8 515.3,23.6 516.2,23.6" />
<path stroke="#000000" stroke-width="2" d="M 522.8,70" />
<path stroke="#000000" stroke-width="2" d="M 522.8,20 542.8,20" />
<path stroke="#000000" stroke-width="2" d="M 542.8,20 544.3,20.1 545.5,20.6 546.7,21.2 547.6,22.1 548.5,23.1 549.1,24.3 549.7,25.6 550,27 550.3,28.5 550.3,30 550.3,31.5 550,33 549.7,34.4 549.1,35.7 548.5,36.9 547.6,37.9 546.7,38.8 545.5,39.4 544.3,39.9 542.8,40" />
<path stroke="#000000" stroke-width="2" d="M 557,70" />
<path stroke="#000000" stroke-width="2" d="M 557,20 557,40 557,34 557,33.1 557.1,32.3 557.2,31.4 557.5,30.6 557.8,29.7 558.1,28.9 558.6,28.2 559.1,27.5 559.6,26.8 560.2,26.2 560.9,25.6 561.6,25.1 562.4,24.7 563.2,24.3 564,24 564.8,23.8 565.7,23.6 566.6,23.6" />
<path stroke="#000000" stroke-width="2" d="M 596.6,70" />
<path stroke="#000000" stroke-width="2" d="M 596.6,70" />
<path stroke="#000000" stroke-width="2" d="M 596.6,70 597.7,70 598.7,70.2 599.5,70.4 600.2,70.7 600.8,71 601.2,71.5 601.5,71.9 601.8,72.5 601.8,73.1 601.8,73.8 601.7,74.4 601.5,75.2 601.1,76 600.7,76.8 600.2,77.6 599.6,78.4 599,79.3 598.2,80.2 597.4,81.1 596.6,82" />
<path stroke="#000000" stroke-width="2" d="M 631.8,70" />
</svg>