<svg xmlns="http://www.w3.org/2000/svg" width="605.8170620836629" height="102.0" style="fill:none; stroke-linecap:round;">
    <rect width="100%" height="100%" fill="#FFFFFF" />
<path stroke="#000000" stroke-width="2" d="M 550,75" />
<path stroke="#000000" stroke-width="2" d="M 20,50 27.7,31.5 35.3,50 55.3,50 35.5,69.8 55.5,69.8" />
<path stroke="#000000" stroke-width="2" d="M 85.5,70" />
<path stroke="#000000" stroke-width="2" d="M 85.5,30 95.5,30 95.5,70" />
<path stroke="#000000" stroke-width="2" d="M 102.2,70" />
<path stroke="#000000" stroke-width="2" d="M 102.2,20 102.2,40 102.2,34 102.2,33.1 102.3,32.3 102.4,31.4 102.6,30.6 102.9,29.7 103.3,28.9 103.7,28.2 104.2,27.5 104.8,26.8 105.4,26.2 106.1,25.6 106.8,25.1 107.5,24.7 108.3,24.3 109.2,24 110,23.8 110.9,23.6 111.7,23.6" />
<path stroke="#000000" stroke-width="2" d="M 141.7,70" />
<path stroke="#000000" stroke-width="2" d="M 141.7,50 149.4,31.5 157,50 177,50 157.2,69.8 177.2,69.8" />
<path stroke="#000000" stroke-width="2" d="M 207.2,70" />
<path stroke="#000000" stroke-width="2" d="M 223.2,30" />
<path stroke="#000000" stroke-width="2" d="M 223.2,30 223,34.1 222.4,37.3 221.5,39.8 220.4,41.5 219,42.7 217.6,43.2 216.1,43.3 214.6,43 213.2,42.3 212,41.2 211,40 210.3,38.6 209.9,37.2 210,35.7 210.6,34.2 211.7,32.9 213.5,31.7 215.9,30.8 219.2,30.2 223.2,30 243.2,30" />
<path stroke="#000000" stroke-width="2" d="M 249.9,70" />
<path stroke="#000000" stroke-width="2" d="M 249.9,55" />
<path stroke="#000000" stroke-width="2" d="M 249.9,55 251.9,54.9 253.5,54.6 254.8,54.1 255.7,53.6 256.2,52.9 256.5,52.2 256.6,51.4 256.4,50.7 256,50 255.5,49.4 254.9,48.9 254.2,48.5 253.5,48.3 252.7,48.4 252,48.7 251.3,49.2 250.8,50.1 250.3,51.4 250,53 249.9,55 249.9,70" />
<path stroke="#000000" stroke-width="2" d="M 263.2,70" />
<path stroke="#000000" stroke-width="2" d="M 263.2,20 263.2,40 263.2,40.7 263.3,41.4 263.4,42.1 263.6,42.8 263.8,43.4 264.1,44 264.5,44.6 264.9,45.2 265.3,45.8 265.8,46.2 266.3,46.7 266.9,47.1 267.5,47.4 268.2,47.7 268.8,48 269.5,48.2 270.2,48.3 270.9,48.3 271.6,48.3 272.3,48.3 272.9,48.2 273.6,48 274.3,47.7 274.9,47.4 275.5,47.1 276.1,46.7 276.6,46.2 277.1,45.8 277.6,45.2 278,44.6 278.3,44 278.6,43.4 278.8,42.8 279,42.1 279.1,41.4 279.2,40.7" />
<path stroke="#000000" stroke-width="2" d="M 309.2,70" />
<path stroke="#000000" stroke-width="2" d="M 309.2,70" />
<path stroke="#000000" stroke-width="2" d="M 309.2,70 310.3,70 311.3,70.2 312.2,70.4 312.9,70.7 313.4,71 313.9,71.5 314.2,71.9 314.4,72.5 314.5,73.1 314.5,73.8 314.3,74.4 314.1,75.2 313.8,76 313.4,76.8 312.9,77.6 312.3,78.4 311.6,79.3 310.9,80.2 310.1,81.1 309.2,82" />
<path stroke="#000000" stroke-width="2" d="M 344.5,70" />
<path stroke="#000000" stroke-width="2" d="M 344.5,30 344.5,70 355.8,58.7" />
<path stroke="#000000" stroke-width="2" d="M 362.5,70" />
<path stroke="#000000" stroke-width="2" d="M 382.5,70 384.2,70 385.9,69.8 387.7,69.5 389.3,69.1 391,68.5 392.6,67.8 394.1,66.9 395.5,65.9 396.8,64.8 398.1,63.5 399.2,62.2 400.2,60.8 401.1,59.3 401.8,57.7 402.4,56 402.9,54.3 403.2,52.6 403.3,50.9 403.3,49.1 403.2,47.4 402.9,45.7 402.4,44 401.8,42.4 401.1,40.8 400.2,39.3 399.2,37.8 398.1,36.5 396.8,35.3 395.5,34.2 394.1,33.2 392.6,32.3 391,31.5 389.3,30.9 387.7,30.5 385.9,30.2 384.2,30 382.5,30 380.7,30.2 379,30.5 377.3,30.9 375.7,31.5 374.1,32.3 372.6,33.2 371.2,34.2 369.8,35.3 368.6,36.5 367.5,37.8 366.5,39.3 365.6,40.8 364.9,42.4 364.3,44 363.8,45.7 363.5,47.4 363.4,49.1 363.4,50.9 363.5,52.6 363.8,54.3 364.3,56 364.9,57.7 365.6,59.3 366.5,60.8 367.5,62.2 368.6,63.5 369.8,64.8 371.2,65.9 372.6,66.9 374.1,67.8 375.7,68.5 377.3,69.1 379,69.5 380.7,69.8 382.5,70" />
<path stroke="#000000" stroke-width="2" d="M 410,70" />
<path stroke="#000000" stroke-width="2" d="M 410,20" />
<path stroke="#000000" stroke-width="2" d="M 410,20 410.1,20 410.5,20 411.2,20 412.1,20.1 413.1,20.2 414.3,20.3 415.6,20.4 417,20.6 418.5,20.9 420,21.2 421.5,21.7 422.9,22.2 424.3,22.7 425.7,23.4 426.9,24.2 427.9,25.1 428.8,26.1 429.4,27.3 429.8,28.6 430,30" />
<path stroke="#000000" stroke-width="2" d="M 430,30 431.9,32.1 433.2,34.1 434,35.7 434.3,37.2 434.2,38.4 433.8,39.4 433.1,40.2 432.1,40.8 431.1,41.1 430,41.2 428.9,41.1 427.8,40.8 426.9,40.2 426.2,39.4 425.8,38.4 425.7,37.2 426,35.7 426.7,34 428.1,32.1 430,30" />
<path stroke="#000000" stroke-width="2" d="M 430,30 430,29.9 430,29.7 430,29.4 430.1,29 430.3,28.4 430.5,27.8 430.8,27.2 431.3,26.5 431.8,25.7 432.5,25 433.3,24.3 434.3,23.5 435.5,22.8 436.8,22.2 438.4,21.6 440.2,21 442.3,20.6 444.6,20.3 447.1,20.1 450,20 442.3,38.5" />
<path stroke="#000000" stroke-width="2" d="M 480,70" />
<path stroke="#000000" stroke-width="2" d="M 480,40" />
<path stroke="#000000" stroke-width="2" d="M 480,40 484,39.8 487.3,39.2 489.7,38.3 491.5,37.1 492.6,35.8 493.2,34.3 493.3,32.8 492.9,31.4 492.2,30 491.2,28.8 490,27.7 488.6,27 487.1,26.7 485.7,26.8 484.2,27.3 482.9,28.5 481.7,30.2 480.8,32.7 480.2,35.9 480,40 480,70" />
<path stroke="#000000" stroke-width="2" d="M 500,70" />
<path stroke="#000000" stroke-width="2" d="M 500,20 500,40 500,34 500,33.1 500,32.3 500.2,31.4 500.4,30.6 500.7,29.7 501.1,28.9 501.5,28.2 502,27.5 502.6,26.8 503.2,26.2 503.9,25.6 504.6,25.1 505.3,24.7 506.1,24.3 506.9,24 507.8,23.8 508.6,23.6 509.5,23.6" />
<path stroke="#000000" stroke-width="2" d="M 516.2,70" />
<path stroke="#000000" stroke-width="2" d="M 516.2,20 536.2,20" />
<path stroke="#000000" stroke-width="2" d="M 536.2,20 537.6,20.1 538.9,20.6 540,21.2 541,22.1 541.8,23.1 542.5,24.3 543,25.6 543.4,27 543.6,28.5 543.7,30 543.6,31.5 543.4,33 543,34.4 542.5,35.7 541.8,36.9 541,37.9 540,38.8 538.9,39.4 537.6,39.9 536.2,40" />
<path stroke="#000000" stroke-width="2" d="M 550.3,70" />
<path stroke="#000000" stroke-width="2" d="M 550.3,20 550.5,20 550.5,20.2 550.3,20.2 550.3,20" />
<path stroke="#000000" stroke-width="2" d="M 580.5,70" />
<path stroke="#000000" stroke-width="2" d="M 580.5,70" />
<path stroke="#000000" stroke-width="2" d="M 580.5,70 581.7,70 582.7,70.2 583.5,70.4 584.2,70.7 584.8,71 585.2,71.5 585.5,71.9 585.7,72.5 585.8,73.1 585.8,73.8 585.7,74.4 585.4,75.2 585.1,76 584.7,76.8 584.2,77.6 583.6,78.4 583,79.3 582.2,80.2 581.4,81.1 580.5,82" />
<path stroke="#000000" stroke-width="2" d="M 615.8,70" />
</svg>