<svg xmlns="http://www.w3.org/2000/svg" width="483.17875482541456" height="95.0" style="fill:none; stroke-linecap:round;">
    <rect width="100%" height="100%" fill="#FFFFFF" />
<path stroke="#000000" stroke-width="2" d="M 550,75" />
<path stroke="#000000" stroke-width="2" d="M 20,30 20,38 20,39 20.1,40.1 20.3,41.1 20.5,42.1 20.9,43.1 21.3,44.1 21.9,45 22.5,45.8 23.1,46.6 23.9,47.4 24.7,48 25.5,48.6 26.4,49.2 27.4,49.6 28.4,50 29.4,50.2 30.4,50.4 31.5,50.5 32.5,50.5 33.6,50.4 34.6,50.2 35.6,50 36.6,49.6 37.5,49.2 38.4,48.6 39.3,48 40.1,47.4 40.8,46.6 41.5,45.8 42.1,45 42.6,44.1 43.1,43.1 43.4,42.1 43.7,41.1 43.9,40.1 44,39 44,29 44,69 44,67.3 44.1,65.6 44.4,63.8 44.9,62.2 45.5,60.5 46.2,58.9 47.1,57.4 48.1,56 49.2,54.7 50.4,53.4 51.8,52.3 53.2,51.3 54.7,50.4 56.3,49.7 57.9,49.1 59.6,48.6 61.3,48.3 63.1,48.2" />
<path stroke="#000000" stroke-width="2" d="M 69.8,70" />
<path stroke="#000000" stroke-width="2" d="M 69.8,20 69.8,40 79.8,40" />
<path stroke="#000000" stroke-width="2" d="M 79.8,40 81.8,39.9 83.4,39.6 84.6,39.1 85.5,38.6 86.1,37.9 86.4,37.2 86.4,36.4 86.2,35.7 85.9,35 85.4,34.4 84.8,33.9 84.1,33.5 83.3,33.3 82.6,33.4 81.9,33.7 81.2,34.2 80.6,35.1 80.2,36.4 79.9,38 79.8,40 79.8,55 84.8,55 84.8,75" />
<path stroke="#000000" stroke-width="2" d="M 84.8,65" />
<path stroke="#000000" stroke-width="2" d="M 80.8,65 88.8,65" />
<path stroke="#000000" stroke-width="2" d="M 95.4,70" />
<path stroke="#000000" stroke-width="2" d="M 95.4,30 95.6,30 95.6,30.2 95.4,30.2 95.4,30" />
<path stroke="#000000" stroke-width="2" d="M 125.6,70" />
<path stroke="#000000" stroke-width="2" d="M 125.6,40" />
<path stroke="#000000" stroke-width="2" d="M 125.6,40 129.7,39.8 132.9,39.2 135.4,38.3 137.1,37.1 138.3,35.8 138.8,34.3 138.9,32.8 138.6,31.4 137.9,30 136.9,28.8 135.6,27.7 134.3,27 132.8,26.7 131.3,26.8 129.8,27.3 128.5,28.5 127.3,30.2 126.4,32.7 125.8,35.9 125.6,40 125.6,70" />
<path stroke="#000000" stroke-width="2" d="M 145.6,70" />
<path stroke="#000000" stroke-width="2" d="M 145.6,20 145.6,40 145.6,34 145.6,33.1 145.7,32.3 145.8,31.4 146,30.6 146.3,29.7 146.7,28.9 147.2,28.2 147.7,27.5 148.2,26.8 148.8,26.2 149.5,25.6 150.2,25.1 151,24.7 151.8,24.3 152.6,24 153.4,23.8 154.3,23.6 155.1,23.6" />
<path stroke="#000000" stroke-width="2" d="M 161.8,70" />
<path stroke="#000000" stroke-width="2" d="M 161.8,20 181.8,20" />
<path stroke="#000000" stroke-width="2" d="M 181.8,20 183.2,20.1 184.5,20.6 185.6,21.2 186.6,22.1 187.4,23.1 188.1,24.3 188.6,25.6 189,27 189.2,28.5 189.3,30 189.2,31.5 189,33 188.6,34.4 188.1,35.7 187.4,36.9 186.6,37.9 185.6,38.8 184.5,39.4 183.2,39.9 181.8,40" />
<path stroke="#000000" stroke-width="2" d="M 196,70" />
<path stroke="#000000" stroke-width="2" d="M 196,20 196,40 196,34 196,33.1 196.1,32.3 196.2,31.4 196.4,30.6 196.7,29.7 197.1,28.9 197.5,28.2 198,27.5 198.6,26.8 199.2,26.2 199.9,25.6 200.6,25.1 201.4,24.7 202.1,24.3 203,24 203.8,23.8 204.7,23.6 205.5,23.6" />
<path stroke="#000000" stroke-width="2" d="M 212.2,70" />
<path stroke="#000000" stroke-width="2" d="M 236.2,42" />
<path stroke="#000000" stroke-width="2" d="M 236.2,42 232.1,41.8 228.9,41.2 226.4,40.3 224.7,39.1 223.5,37.8 223,36.3 222.9,34.8 223.2,33.4 224,32 225,30.8 226.2,29.7 227.6,29 229,28.7 230.5,28.8 232,29.3 233.3,30.5 234.5,32.2 235.4,34.7 236,37.9 236.2,42 236.2,50" />
<path stroke="#000000" stroke-width="2" d="M 236.2,50 235.6,51.7 234.9,53.4 234.1,54.9 233.4,56.3 232.5,57.6 231.6,58.7 230.7,59.8 229.7,60.8 228.7,61.7 227.7,62.5 226.6,63.2 225.5,63.8 224.4,64.4 223.3,64.8 222.1,65.2 221,65.5 219.8,65.7 218.6,65.9 217.4,66 216.2,66" />
<path stroke="#000000" stroke-width="2" d="M 266.2,70" />
<path stroke="#000000" stroke-width="2" d="M 266.2,70 266.4,70 266.4,70.2 266.2,70.2 266.2,70" />
<path stroke="#000000" stroke-width="2" d="M 273.1,70" />
<path stroke="#000000" stroke-width="2" d="M 285.1,36" />
<path stroke="#000000" stroke-width="2" d="M 285.1,36 283,35.9 281.4,35.6 280.2,35.1 279.3,34.6 278.7,33.9 278.5,33.2 278.4,32.4 278.6,31.7 278.9,31 279.4,30.4 280.1,29.9 280.7,29.5 281.5,29.3 282.2,29.4 283,29.7 283.6,30.2 284.2,31.1 284.7,32.4 285,34 285.1,36 285.1,40" />
<path stroke="#000000" stroke-width="2" d="M 285.1,40 284.8,40.9 284.4,41.7 284,42.4 283.6,43.1 283.2,43.8 282.8,44.4 282.3,44.9 281.8,45.4 281.3,45.9 280.8,46.2 280.3,46.6 279.7,46.9 279.2,47.2 278.6,47.4 278,47.6 277.5,47.7 276.9,47.9 276.3,47.9 275.7,48 275.1,48 295.1,48 275.3,67.8 295.3,67.8" />
<path stroke="#000000" stroke-width="2" d="M 325.3,70" />
<path stroke="#000000" stroke-width="2" d="M 325.3,50 332.9,31.5 340.6,50 348.2,68.5 355.9,50" />
<path stroke="#000000" stroke-width="2" d="M 385.9,70" />
<path stroke="#000000" stroke-width="2" d="M 405.9,30 405.9,70 385.9,70" />
<path stroke="#000000" stroke-width="2" d="M 412.6,70" />
<path stroke="#000000" stroke-width="2" d="M 422.6,70 423.4,70 424.3,69.9 425.2,69.8 426,69.5 426.8,69.2 427.6,68.9 428.4,68.4 429.1,67.9 429.7,67.4 430.4,66.8 430.9,66.1 431.4,65.4 431.9,64.6 432.2,63.8 432.5,63 432.8,62.2 432.9,61.3 433,60.4 433,59.6 432.9,58.7 432.8,57.8 432.5,57 432.2,56.2 431.9,55.4 431.4,54.6 430.9,53.9 430.4,53.3 429.7,52.6 429.1,52.1 428.4,51.6 427.6,51.1 426.8,50.8 426,50.5 425.2,50.2 424.3,50.1 423.4,50 422.6,50 421.7,50.1 420.8,50.2 420,50.5 419.2,50.8 418.4,51.1 417.6,51.6 416.9,52.1 416.2,52.6 415.6,53.3 415.1,53.9 414.6,54.6 414.1,55.4 413.7,56.2 413.5,57 413.2,57.8 413.1,58.7 413,59.6 413,60.4 413.1,61.3 413.2,62.2 413.5,63 413.7,63.8 414.1,64.6 414.6,65.4 415.1,66.1 415.6,66.8 416.2,67.4 416.9,67.9 417.6,68.4 418.4,68.9 419.2,69.2 420,69.5 420.8,69.8 421.7,69.9 422.6,70" />
<path stroke="#000000" stroke-width="2" d="M 463,70" />
<path stroke="#000000" stroke-width="2" d="M 463,70 463.2,70 463.2,70.2 463,70.2 463,70" />
<path stroke="#000000" stroke-width="2" d="M 493.2,70" />
</svg>