<svg xmlns="http://www.w3.org/2000/svg" width="425.3285355754071" height="90.2" style="fill:none; stroke-linecap:round;">
    <rect width="100%" height="100%" fill="#FFFFFF" />
<path stroke="#000000" stroke-width="2" d="M 550,75" />
<path stroke="#000000" stroke-width="2" d="M 20,30 20,70 31.3,58.7" />
<path stroke="#000000" stroke-width="2" d="M 38,70" />
<path stroke="#000000" stroke-width="2" d="M 48,20 40.3,38.5 48,57 55.6,38.5" />
<path stroke="#000000" stroke-width="2" d="M 55.6,48.5" />
<path stroke="#000000" stroke-width="2" d="M 39.6,48.5 56.6,48.5" />
<path stroke="#000000" stroke-width="2" d="M 86.6,70" />
<path stroke="#000000" stroke-width="2" d="M 106.6,30 106.6,70 86.6,70" />
<path stroke="#000000" stroke-width="2" d="M 113.3,70" />
<path stroke="#000000" stroke-width="2" d="M 113.3,50 113.5,50 113.5,50.2 113.3,50.2 113.3,50" />
<path stroke="#000000" stroke-width="2" d="M 143.5,70" />
<path stroke="#000000" stroke-width="2" d="M 143.5,50 143.5,49.3 143.6,48.6 143.7,47.9 143.9,47.2 144.1,46.6 144.4,46 144.7,45.4 145.1,44.8 145.6,44.2 146.1,43.8 146.6,43.3 147.2,42.9 147.8,42.6 148.4,42.3 149.1,42 149.8,41.8 150.4,41.7 151.1,41.7 151.8,41.7 152.5,41.7 153.2,41.8 153.9,42 154.6,42.3 155.2,42.6 155.8,42.9 156.4,43.3 156.9,43.8 157.4,44.2 157.8,44.8 158.2,45.4 158.6,46 158.9,46.6 159.1,47.2 159.3,47.9 159.4,48.6 159.5,49.3" />
<path stroke="#000000" stroke-width="2" d="M 159.5,45.3" />
<path stroke="#000000" stroke-width="2" d="M 153.5,45.3 169.5,45.3" />
<path stroke="#000000" stroke-width="2" d="M 169.5,45.3 171.5,45.2 173.1,44.9 174.4,44.4 175.2,43.9 175.8,43.2 176.1,42.5 176.1,41.7 176,41 175.6,40.3 175.1,39.7 174.5,39.2 173.8,38.8 173.1,38.6 172.3,38.7 171.6,39 170.9,39.5 170.3,40.4 169.9,41.7 169.6,43.3 169.5,45.3 169.5,60.3" />
<path stroke="#000000" stroke-width="2" d="M 182.8,70" />
<path stroke="#000000" stroke-width="2" d="M 182.8,30 198.1,67 213.4,30" />
<path stroke="#000000" stroke-width="2" d="M 243.4,70" />
<path stroke="#000000" stroke-width="2" d="M 259.4,30 239.6,49.8 259.4,69.6" />
<path stroke="#000000" stroke-width="2" d="M 266.1,70" />
<path stroke="#000000" stroke-width="2" d="M 266.1,30 281.4,67" />
<path stroke="#000000" stroke-width="2" d="M 311.4,70" />
<path stroke="#000000" stroke-width="2" d="M 331.4,30 316.1,67" />
<path stroke="#000000" stroke-width="2" d="M 338.1,70" />
<path stroke="#000000" stroke-width="2" d="M 338.1,50 338.3,50 338.3,50.2 338.1,50.2 338.1,50" />
<path stroke="#000000" stroke-width="2" d="M 368.3,70" />
<path stroke="#000000" stroke-width="2" d="M 368.3,30 368.3,70" />
<path stroke="#000000" stroke-width="2" d="M 374.9,70" />
<path stroke="#000000" stroke-width="2" d="M 374.9,30 375.1,30 375.1,30.2 374.9,30.2 374.9,30" />
<path stroke="#000000" stroke-width="2" d="M 405.1,70" />
<path stroke="#000000" stroke-width="2" d="M 405.1,70 405.3,70 405.3,70.2 405.1,70.2 405.1,70" />
<path stroke="#000000" stroke-width="2" d="M 435.3,70" />
</svg>