<svg xmlns="http://www.w3.org/2000/svg" width="586.397446354418" height="109.79898987322333" style="fill:none; stroke-linecap:round;">
    <rect width="100%" height="100%" fill="#FFFFFF" />
<path stroke="#000000" stroke-width="2" d="M 550,75" />
<path stroke="#000000" stroke-width="2" d="M 20,30 40,30" />
<path stroke="#000000" stroke-width="2" d="M 40,30 41.4,30.1 42.7,30.6 43.8,31.2 44.8,32.1 45.6,33.1 46.3,34.3 46.8,35.6 47.2,37 47.4,38.5 47.5,40 47.4,41.5 47.2,43 46.8,44.4 46.3,45.7 45.6,46.9 44.8,47.9 43.8,48.8 42.7,49.4 41.4,49.9 40,50" />
<path stroke="#000000" stroke-width="2" d="M 77.5,70" />
<path stroke="#000000" stroke-width="2" d="M 77.5,30 85.2,48.5 92.8,30" />
<path stroke="#000000" stroke-width="2" d="M 92.8,40" />
<path stroke="#000000" stroke-width="2" d="M 76.8,40 93.8,40 93.8,60 99.5,54.3" />
<path stroke="#000000" stroke-width="2" d="M 106.1,70" />
<path stroke="#000000" stroke-width="2" d="M 106.1,20 106.1,40 106.1,34 106.1,33.1 106.2,32.3 106.4,31.4 106.6,30.6 106.9,29.7 107.3,28.9 107.7,28.2 108.2,27.5 108.7,26.8 109.4,26.2 110,25.6 110.7,25.1 111.5,24.7 112.3,24.3 113.1,24 114,23.8 114.8,23.6 115.7,23.6" />
<path stroke="#000000" stroke-width="2" d="M 145.7,70" />
<path stroke="#000000" stroke-width="2" d="M 145.7,30 145.7,31.4 145.8,32.8 146,34.2 146.4,35.5 146.9,36.8 147.5,38.1 148.2,39.3 149,40.4 149.9,41.5 150.9,42.5 151.9,43.4 153.1,44.2 154.3,44.9 155.5,45.5 156.9,46 158.2,46.3 159.6,46.6 161,46.7 162.4,46.7 163.8,46.6 165.1,46.3 166.5,46 167.8,45.5 169.1,44.9 170.3,44.2 171.4,43.4 172.5,42.5 173.5,41.5 174.4,40.4 175.2,39.3 175.9,38.1 176.5,36.8 176.9,35.5 177.3,34.2 177.5,32.8 177.7,31.4" />
<path stroke="#000000" stroke-width="2" d="M 184.3,70" />
<path stroke="#000000" stroke-width="2" d="M 184.3,20 184.3,40 194.3,40 199.3,40 199.3,60" />
<path stroke="#000000" stroke-width="2" d="M 229.3,70" />
<path stroke="#000000" stroke-width="2" d="M 229.3,30 229.3,50 239.3,50 259.3,50 239.5,69.8 259.5,69.8" />
<path stroke="#000000" stroke-width="2" d="M 289.5,70" />
<path stroke="#000000" stroke-width="2" d="M 289.5,30 299.5,30 299.5,70" />
<path stroke="#000000" stroke-width="2" d="M 306.2,70" />
<path stroke="#000000" stroke-width="2" d="M 306.2,50 306.2,50.7 306.2,51.4 306.4,52.1 306.6,52.8 306.8,53.4 307.1,54 307.4,54.6 307.8,55.2 308.3,55.8 308.8,56.2 309.3,56.7 309.9,57.1 310.5,57.4 311.1,57.7 311.8,58 312.4,58.2 313.1,58.3 313.8,58.3 314.5,58.3 315.2,58.3 315.9,58.2 316.6,58 317.2,57.7 317.9,57.4 318.5,57.1 319.1,56.7 319.6,56.2 320.1,55.8 320.5,55.2 320.9,54.6 321.3,54 321.6,53.4 321.8,52.8 322,52.1 322.1,51.4 322.2,50.7" />
<path stroke="#000000" stroke-width="2" d="M 352.2,70" />
<path stroke="#000000" stroke-width="2" d="M 352.2,50 359.8,31.5 367.5,50 375.1,68.5 382.8,50" />
<path stroke="#000000" stroke-width="2" d="M 412.8,70" />
<path stroke="#000000" stroke-width="2" d="M 428.8,30 409,49.8 428.8,69.6" />
<path stroke="#000000" stroke-width="2" d="M 435.5,70" />
<path stroke="#000000" stroke-width="2" d="M 435.5,20 435.5,40 435.5,34 435.5,33.1 435.5,32.3 435.7,31.4 435.9,30.6 436.2,29.7 436.6,28.9 437,28.2 437.5,27.5 438.1,26.8 438.7,26.2 439.4,25.6 440.1,25.1 440.8,24.7 441.6,24.3 442.4,24 443.3,23.8 444.1,23.6 445,23.6" />
<path stroke="#000000" stroke-width="2" d="M 451.7,70" />
<path stroke="#000000" stroke-width="2" d="M 451.7,50" />
<path stroke="#000000" stroke-width="2" d="M 451.7,50 451.8,50 452.2,50 452.9,50 453.8,50.1 454.8,50.2 456,50.3 457.3,50.4 458.7,50.6 460.2,50.9 461.7,51.2 463.2,51.7 464.6,52.2 466,52.7 467.4,53.4 468.6,54.2 469.6,55.1 470.5,56.1 471.1,57.3 471.5,58.6 471.7,60" />
<path stroke="#000000" stroke-width="2" d="M 471.7,60 473.6,62.1 474.9,64.1 475.7,65.7 476,67.2 475.9,68.4 475.5,69.5 474.7,70.2 473.8,70.8 472.8,71.1 471.7,71.2 470.6,71.1 469.5,70.8 468.6,70.2 467.9,69.5 467.5,68.4 467.4,67.2 467.7,65.7 468.4,64 469.8,62.1 471.7,60" />
<path stroke="#000000" stroke-width="2" d="M 471.7,60 471.7,59.9 471.7,59.7 471.7,59.4 471.8,59 472,58.4 472.2,57.8 472.5,57.2 473,56.5 473.5,55.7 474.2,55 475,54.3 476,53.5 477.2,52.8 478.5,52.2 480.1,51.6 481.9,51 484,50.6 486.3,50.3 488.8,50.1 491.7,50 491.7,70 501.7,70 521.7,70 501.9,89.8 521.9,89.8" />
<path stroke="#000000" stroke-width="2" d="M 528.5,70" />
<path stroke="#000000" stroke-width="2" d="M 528.5,20 536.2,38.5" />
<path stroke="#000000" stroke-width="2" d="M 566.2,70" />
<path stroke="#000000" stroke-width="2" d="M 566.2,70 566.4,70 566.4,70.2 566.2,70.2 566.2,70" />
<path stroke="#000000" stroke-width="2" d="M 596.4,70" />
</svg>