<svg xmlns="http://www.w3.org/2000/svg" width="478.6939841537711" height="102.0" style="fill:none; stroke-linecap:round;">
    <rect width="100%" height="100%" fill="#FFFFFF" />
<path stroke="#000000" stroke-width="2" d="M 550,75" />
<path stroke="#000000" stroke-width="2" d="M 40,70 41.7,70 43.5,69.8 45.2,69.5 46.9,69.1 48.5,68.5 50.1,67.8 51.6,66.9 53,65.9 54.4,64.8 55.6,63.5 56.7,62.2 57.7,60.8 58.6,59.3 59.3,57.7 59.9,56 60.4,54.3 60.7,52.6 60.9,50.9 60.9,49.1 60.7,47.4 60.4,45.7 59.9,44 59.3,42.4 58.6,40.8 57.7,39.3 56.7,37.8 55.6,36.5 54.4,35.3 53,34.2 51.6,33.2 50.1,32.3 48.5,31.5 46.9,30.9 45.2,30.5 43.5,30.2 41.7,30 40,30 38.3,30.2 36.5,30.5 34.9,30.9 33.2,31.5 31.6,32.3 30.1,33.2 28.7,34.2 27.4,35.3 26.1,36.5 25,37.8 24,39.3 23.1,40.8 22.4,42.4 21.8,44 21.3,45.7 21,47.4 20.9,49.1 20.9,50.9 21,52.6 21.3,54.3 21.8,56 22.4,57.7 23.1,59.3 24,60.8 25,62.2 26.1,63.5 27.4,64.8 28.7,65.9 30.1,66.9 31.6,67.8 33.2,68.5 34.9,69.1 36.5,69.5 38.3,69.8 40,70" />
<path stroke="#000000" stroke-width="2" d="M 67.5,70" />
<path stroke="#000000" stroke-width="2" d="M 67.5,20 67.5,40 67.5,34 67.5,33.1 67.6,32.3 67.7,31.4 68,30.6 68.3,29.7 68.6,28.9 69.1,28.2 69.6,27.5 70.1,26.8 70.8,26.2 71.4,25.6 72.1,25.1 72.9,24.7 73.7,24.3 74.5,24 75.3,23.8 76.2,23.6 77.1,23.6 82.1,23.6 82.1,43.6" />
<path stroke="#000000" stroke-width="2" d="M 88.7,70" />
<path stroke="#000000" stroke-width="2" d="M 88.7,50 88.7,70 88.7,64 88.7,63.1 88.8,62.3 89,61.4 89.2,60.6 89.5,59.7 89.9,58.9 90.3,58.2 90.8,57.5 91.4,56.8 92,56.2 92.6,55.6 93.4,55.1 94.1,54.7 94.9,54.3 95.7,54 96.6,53.8 97.4,53.6 98.3,53.6" />
<path stroke="#000000" stroke-width="2" d="M 128.3,70" />
<path stroke="#000000" stroke-width="2" d="M 128.3,30 128.3,70" />
<path stroke="#000000" stroke-width="2" d="M 135,70" />
<path stroke="#000000" stroke-width="2" d="M 135,30 135.2,30 135.2,30.2 135,30.2 135,30" />
<path stroke="#000000" stroke-width="2" d="M 165.2,70" />
<path stroke="#000000" stroke-width="2" d="M 165.2,50 172.8,31.5 180.5,50 172.8,68.5" />
<path stroke="#000000" stroke-width="2" d="M 210.5,70" />
<path stroke="#000000" stroke-width="2" d="M 226.5,30" />
<path stroke="#000000" stroke-width="2" d="M 226.5,30 226.3,34.1 225.7,37.3 224.7,39.8 223.6,41.5 222.3,42.7 220.8,43.2 219.3,43.3 217.8,43 216.4,42.3 215.2,41.2 214.2,40 213.5,38.6 213.2,37.2 213.2,35.7 213.8,34.2 214.9,32.9 216.7,31.7 219.2,30.8 222.4,30.2 226.5,30 246.5,30" />
<path stroke="#000000" stroke-width="2" d="M 253.1,70" />
<path stroke="#000000" stroke-width="2" d="M 253.1,40" />
<path stroke="#000000" stroke-width="2" d="M 253.1,40 257.2,39.8 260.4,39.2 262.9,38.3 264.7,37.1 265.8,35.8 266.4,34.3 266.4,32.8 266.1,31.4 265.4,30 264.4,28.8 263.2,27.7 261.8,27 260.3,26.7 258.8,26.8 257.4,27.3 256,28.5 254.9,30.2 253.9,32.7 253.3,35.9 253.1,40 253.1,70" />
<path stroke="#000000" stroke-width="2" d="M 296.4,70" />
<path stroke="#000000" stroke-width="2" d="M 296.4,30 296.4,70 307.8,58.7" />
<path stroke="#000000" stroke-width="2" d="M 314.4,70" />
<path stroke="#000000" stroke-width="2" d="M 334.4,70 336.2,70 337.9,69.8 339.6,69.5 341.3,69.1 343,68.5 344.5,67.8 346,66.9 347.5,65.9 348.8,64.8 350,63.5 351.2,62.2 352.2,60.8 353,59.3 353.8,57.7 354.4,56 354.8,54.3 355.1,52.6 355.3,50.9 355.3,49.1 355.1,47.4 354.8,45.7 354.4,44 353.8,42.4 353,40.8 352.2,39.3 351.2,37.8 350,36.5 348.8,35.3 347.5,34.2 346,33.2 344.5,32.3 343,31.5 341.3,30.9 339.6,30.5 337.9,30.2 336.2,30 334.4,30 332.7,30.2 331,30.5 329.3,30.9 327.6,31.5 326.1,32.3 324.6,33.2 323.1,34.2 321.8,35.3 320.6,36.5 319.4,37.8 318.4,39.3 317.6,40.8 316.8,42.4 316.2,44 315.8,45.7 315.5,47.4 315.3,49.1 315.3,50.9 315.5,52.6 315.8,54.3 316.2,56 316.8,57.7 317.6,59.3 318.4,60.8 319.4,62.2 320.6,63.5 321.8,64.8 323.1,65.9 324.6,66.9 326.1,67.8 327.6,68.5 329.3,69.1 331,69.5 332.7,69.8 334.4,70" />
<path stroke="#000000" stroke-width="2" d="M 385.3,70" />
<path stroke="#000000" stroke-width="2" d="M 385.3,30 385.3,38 385.3,39 385.4,40.1 385.6,41.1 385.8,42.1 386.2,43.1 386.6,44.1 387.1,45 387.7,45.8 388.4,46.6 389.2,47.4 390,48 390.8,48.6 391.7,49.2 392.7,49.6 393.7,50 394.7,50.2 395.7,50.4 396.7,50.5 397.8,50.5 398.8,50.4 399.9,50.2 400.9,50 401.9,49.6 402.8,49.2 403.7,48.6 404.6,48 405.4,47.4 406.1,46.6 406.8,45.8 407.4,45 407.9,44.1 408.4,43.1 408.7,42.1 409,41.1 409.2,40.1 409.3,39 409.3,29 409.3,69" />
<path stroke="#000000" stroke-width="2" d="M 415.9,70" />
<path stroke="#000000" stroke-width="2" d="M 415.9,50" />
<path stroke="#000000" stroke-width="2" d="M 415.9,50 417.3,50.1 418.6,50.6 419.7,51.2 420.7,52.1 421.5,53.1 422.2,54.3 422.7,55.6 423.1,57 423.3,58.5 423.4,60 423.3,61.5 423.1,63 422.7,64.4 422.2,65.7 421.5,66.9 420.7,67.9 419.7,68.8 418.6,69.4 417.3,69.9 415.9,70" />
<path stroke="#000000" stroke-width="2" d="M 453.4,70" />
<path stroke="#000000" stroke-width="2" d="M 453.4,70" />
<path stroke="#000000" stroke-width="2" d="M 453.4,70 454.5,70 455.5,70.2 456.4,70.4 457.1,70.7 457.6,71 458.1,71.5 458.4,71.9 458.6,72.5 458.7,73.1 458.7,73.8 458.5,74.4 458.3,75.2 458,76 457.6,76.8 457.1,77.6 456.5,78.4 455.8,79.3 455.1,80.2 454.3,81.1 453.4,82" />
<path stroke="#000000" stroke-width="2" d="M 488.7,70" />
</svg>