<svg xmlns="http://www.w3.org/2000/svg" width="614.7669760887923" height="102.0" style="fill:none; stroke-linecap:round;">
    <rect width="100%" height="100%" fill="#FFFFFF" />
<path stroke="#000000" stroke-width="2" d="M 550,75" />
<path stroke="#000000" stroke-width="2" d="M 20,30 30,30 30,70" />
<path stroke="#000000" stroke-width="2" d="M 36.7,70" />
<path stroke="#000000" stroke-width="2" d="M 36.7,50 36.7,70 36.7,64 36.7,63.1 36.7,62.3 36.9,61.4 37.1,60.6 37.4,59.7 37.8,58.9 38.2,58.2 38.7,57.5 39.3,56.8 39.9,56.2 40.6,55.6 41.3,55.1 42,54.7 42.8,54.3 43.7,54 44.5,53.8 45.4,53.6 46.2,53.6" />
<path stroke="#000000" stroke-width="2" d="M 76.2,70" />
<path stroke="#000000" stroke-width="2" d="M 76.2,30 76.2,50 86.2,50 106.2,50" />
<path stroke="#000000" stroke-width="2" d="M 136.2,70" />
<path stroke="#000000" stroke-width="2" d="M 136.2,70 136.4,70 136.4,70.2 136.2,70.2 136.2,70" />
<path stroke="#000000" stroke-width="2" d="M 143.1,70" />
<path stroke="#000000" stroke-width="2" d="M 143.1,30 153.1,30 153.1,70" />
<path stroke="#000000" stroke-width="2" d="M 159.8,70" />
<path stroke="#000000" stroke-width="2" d="M 159.8,20 159.8,40 169.8,40" />
<path stroke="#000000" stroke-width="2" d="M 169.8,40 171.8,39.9 173.4,39.6 174.6,39.1 175.5,38.6 176.1,37.9 176.4,37.2 176.4,36.4 176.2,35.7 175.9,35 175.4,34.4 174.8,33.9 174.1,33.5 173.3,33.3 172.6,33.4 171.9,33.7 171.2,34.2 170.6,35.1 170.2,36.4 169.9,38 169.8,40 169.8,55" />
<path stroke="#000000" stroke-width="2" d="M 206.4,70" />
<path stroke="#000000" stroke-width="2" d="M 211.4,30" />
<path stroke="#000000" stroke-width="2" d="M 211.4,30 210,30.1 208.7,30.6 207.6,31.2 206.6,32.1 205.8,33.1 205.1,34.3 204.6,35.6 204.2,37 204,38.5 203.9,40 204,41.5 204.2,43 204.6,44.4 205.1,45.7 205.8,46.9 206.6,47.9 207.6,48.8 208.7,49.4 210,49.9 211.4,50 219.1,68.5 226.7,50" />
<path stroke="#000000" stroke-width="2" d="M 256.7,70" />
<path stroke="#000000" stroke-width="2" d="M 261.7,30" />
<path stroke="#000000" stroke-width="2" d="M 261.7,30 260.3,30.1 259,30.6 257.9,31.2 256.9,32.1 256.1,33.1 255.4,34.3 254.9,35.6 254.5,37 254.3,38.5 254.2,40 254.3,41.5 254.5,43 254.9,44.4 255.4,45.7 256.1,46.9 256.9,47.9 257.9,48.8 259,49.4 260.3,49.9 261.7,50 261.7,50.7 261.8,51.4 261.9,52.1 262.1,52.8 262.3,53.4 262.6,54 263,54.6 263.4,55.2 263.8,55.8 264.3,56.2 264.8,56.7 265.4,57.1 266,57.4 266.6,57.7 267.3,58 268,58.2 268.7,58.3 269.4,58.3 270.1,58.3 270.8,58.3 271.4,58.2 272.1,58 272.8,57.7 273.4,57.4 274,57.1 274.6,56.7 275.1,56.2 275.6,55.8 276.1,55.2 276.5,54.6 276.8,54 277.1,53.4 277.3,52.8 277.5,52.1 277.6,51.4 277.7,50.7" />
<path stroke="#000000" stroke-width="2" d="M 307.7,70" />
<path stroke="#000000" stroke-width="2" d="M 307.7,50 315.4,31.5 323,50 323,70 323,64 323,63.1 323.1,62.3 323.2,61.4 323.5,60.6 323.8,59.7 324.1,58.9 324.6,58.2 325.1,57.5 325.6,56.8 326.2,56.2 326.9,55.6 327.6,55.1 328.4,54.7 329.2,54.3 330,54 330.8,53.8 331.7,53.6 332.6,53.6" />
<path stroke="#000000" stroke-width="2" d="M 339.2,70" />
<path stroke="#000000" stroke-width="2" d="M 339.2,30" />
<path stroke="#000000" stroke-width="2" d="M 339.2,30 342.1,30.3 344.6,31.1 346.9,32.4 348.8,34.2 350.5,36.2 351.8,38.6 352.9,41.3 353.6,44.1 354.1,47 354.2,50 354.1,53 353.6,55.9 352.9,58.7 351.8,61.4 350.5,63.8 348.8,65.8 346.9,67.6 344.6,68.9 342.1,69.7 339.2,70" />
<path stroke="#000000" stroke-width="2" d="M 360.9,70" />
<path stroke="#000000" stroke-width="2" d="M 370.9,20 363.2,38.5" />
<path stroke="#000000" stroke-width="2" d="M 377.6,70" />
<path stroke="#000000" stroke-width="2" d="M 377.6,30 377.8,30 377.8,30.2 377.6,30.2 377.6,30" />
<path stroke="#000000" stroke-width="2" d="M 407.8,70" />
<path stroke="#000000" stroke-width="2" d="M 407.8,30 427.8,30" />
<path stroke="#000000" stroke-width="2" d="M 427.8,30 429.2,30.1 430.5,30.6 431.6,31.2 432.6,32.1 433.4,33.1 434.1,34.3 434.6,35.6 435,37 435.2,38.5 435.3,40 435.2,41.5 435,43 434.6,44.4 434.1,45.7 433.4,46.9 432.6,47.9 431.6,48.8 430.5,49.4 429.2,49.9 427.8,50" />
<path stroke="#000000" stroke-width="2" d="M 465.3,70" />
<path stroke="#000000" stroke-width="2" d="M 465.3,30" />
<path stroke="#000000" stroke-width="2" d="M 465.3,30 468.1,30.3 470.7,31.1 472.9,32.4 474.9,34.2 476.5,36.2 477.9,38.6 478.9,41.3 479.7,44.1 480.1,47 480.3,50 480.1,53 479.7,55.9 478.9,58.7 477.9,61.4 476.5,63.8 474.9,65.8 472.9,67.6 470.7,68.9 468.1,69.7 465.3,70" />
<path stroke="#000000" stroke-width="2" d="M 465.3,50" />
<path stroke="#000000" stroke-width="2" d="M 473.3,50 493.3,50" />
<path stroke="#000000" stroke-width="2" d="M 499.9,70" />
<path stroke="#000000" stroke-width="2" d="M 499.9,30 519.9,30 529.8,39.9 519.9,49.8" />
<path stroke="#000000" stroke-width="2" d="M 536.5,70" />
<path stroke="#000000" stroke-width="2" d="M 536.5,20 556.5,20 548.8,38.5 556.5,57" />
<path stroke="#000000" stroke-width="2" d="M 556.5,47" />
<path stroke="#000000" stroke-width="2" d="M 545.5,47 559.5,47" />
<path stroke="#000000" stroke-width="2" d="M 589.5,70" />
<path stroke="#000000" stroke-width="2" d="M 589.5,70" />
<path stroke="#000000" stroke-width="2" d="M 589.5,70 590.6,70 591.6,70.2 592.4,70.4 593.1,70.7 593.7,71 594.2,71.5 594.5,71.9 594.7,72.5 594.8,73.1 594.7,73.8 594.6,74.4 594.4,75.2 594.1,76 593.7,76.8 593.2,77.6 592.6,78.4 591.9,79.3 591.2,80.2 590.4,81.1 589.5,82" />
<path stroke="#000000" stroke-width="2" d="M 624.8,70" />
</svg>