<svg xmlns="http://www.w3.org/2000/svg" width="441.56330497443037" height="102.0" style="fill:none; stroke-linecap:round;">
    <rect width="100%" height="100%" fill="#FFFFFF" />
<path stroke="#000000" stroke-width="2" d="M 550,75" />
<path stroke="#000000" stroke-width="2" d="M 40,30 40,70 20,70" />
<path stroke="#000000" stroke-width="2" d="M 46.7,70" />
<path stroke="#000000" stroke-width="2" d="M 46.7,50 46.9,50 46.9,50.2 46.7,50.2 46.7,50" />
<path stroke="#000000" stroke-width="2" d="M 76.9,70" />
<path stroke="#000000" stroke-width="2" d="M 76.9,30 92.2,67" />
<path stroke="#000000" stroke-width="2" d="M 98.8,70" />
<path stroke="#000000" stroke-width="2" d="M 98.8,20 98.8,40 108.8,40" />
<path stroke="#000000" stroke-width="2" d="M 138.8,70" />
<path stroke="#000000" stroke-width="2" d="M 138.8,30 138.8,70" />
<path stroke="#000000" stroke-width="2" d="M 145.5,70" />
<path stroke="#000000" stroke-width="2" d="M 145.5,70 145.5,68.6 145.6,67.2 145.9,65.8 146.2,64.5 146.7,63.2 147.3,61.9 148,60.7 148.8,59.6 149.7,58.5 150.7,57.5 151.8,56.6 152.9,55.8 154.1,55.1 155.4,54.5 156.7,54 158,53.7 159.4,53.4 160.8,53.3 162.2,53.3 163.6,53.4 165,53.7 166.3,54 167.6,54.5 168.9,55.1 170.1,55.8 171.2,56.6 172.3,57.5 173.3,58.5 174.2,59.6 175,60.7 175.7,61.9 176.3,63.2 176.8,64.5 177.1,65.8 177.4,67.2 177.5,68.6" />
<path stroke="#000000" stroke-width="2" d="M 177.5,60.6" />
<path stroke="#000000" stroke-width="2" d="M 165.5,60.6 185.5,60.6" />
<path stroke="#000000" stroke-width="2" d="M 215.5,70" />
<path stroke="#000000" stroke-width="2" d="M 215.5,30 230.8,67 246.1,30" />
<path stroke="#000000" stroke-width="2" d="M 252.8,70" />
<path stroke="#000000" stroke-width="2" d="M 252.8,20 252.8,40 262.8,40 282.8,40" />
<path stroke="#000000" stroke-width="2" d="M 312.8,70" />
<path stroke="#000000" stroke-width="2" d="M 322.8,30" />
<path stroke="#000000" stroke-width="2" d="M 322.8,30 319.9,30.3 317.4,31.1 315.1,32.4 313.2,34.2 311.5,36.2 310.2,38.6 309.1,41.3 308.4,44.1 307.9,47 307.8,50 307.9,53 308.4,55.9 309.1,58.7 310.2,61.4 311.5,63.8 313.2,65.8 315.1,67.6 317.4,68.9 319.9,69.7 322.8,70" />
<path stroke="#000000" stroke-width="2" d="M 352.8,70" />
<path stroke="#000000" stroke-width="2" d="M 352.8,30 352.8,70" />
<path stroke="#000000" stroke-width="2" d="M 359.4,70" />
<path stroke="#000000" stroke-width="2" d="M 379.4,30 364.1,67" />
<path stroke="#000000" stroke-width="2" d="M 386.1,70" />
<path stroke="#000000" stroke-width="2" d="M 386.1,20 386.3,20 386.3,20.2 386.1,20.2 386.1,20" />
<path stroke="#000000" stroke-width="2" d="M 416.3,70" />
<path stroke="#000000" stroke-width="2" d="M 416.3,70" />
<path stroke="#000000" stroke-width="2" d="M 416.3,70 417.4,70 418.4,70.2 419.2,70.4 419.9,70.7 420.5,71 421,71.5 421.3,71.9 421.5,72.5 421.6,73.1 421.5,73.8 421.4,74.4 421.2,75.2 420.9,76 420.4,76.8 419.9,77.6 419.4,78.4 418.7,79.3 418,80.2 417.2,81.1 416.3,82" />
<path stroke="#000000" stroke-width="2" d="M 451.6,70" />
</svg>