<svg xmlns="http://www.w3.org/2000/svg" width="360.2645651926117" height="102.0" style="fill:none; stroke-linecap:round;">
    <rect width="100%" height="100%" fill="#FFFFFF" />
<path stroke="#000000" stroke-width="2" d="M 550,75" />
<path stroke="#000000" stroke-width="2" d="M 20,30 20,70" />
<path stroke="#000000" stroke-width="2" d="M 26.7,70" />
<path stroke="#000000" stroke-width="2" d="M 31.7,30" />
<path stroke="#000000" stroke-width="2" d="M 31.7,30 30.2,30.1 29,30.6 27.8,31.2 26.9,32.1 26,33.1 25.4,34.3 24.8,35.6 24.5,37 24.2,38.5 24.2,40 24.2,41.5 24.5,43 24.8,44.4 25.4,45.7 26,46.9 26.9,47.9 27.8,48.8 29,49.4 30.2,49.9 31.7,50 51.7,50" />
<path stroke="#000000" stroke-width="2" d="M 51.7,50 53.1,50.1 54.4,50.6 55.5,51.2 56.5,52.1 57.3,53.1 58,54.3 58.5,55.6 58.9,57 59.1,58.5 59.2,60 59.1,61.5 58.9,63 58.5,64.4 58,65.7 57.3,66.9 56.5,67.9 55.5,68.8 54.4,69.4 53.1,69.9 51.7,70" />
<path stroke="#000000" stroke-width="2" d="M 89.2,70" />
<path stroke="#000000" stroke-width="2" d="M 89.2,40 89.4,40 89.4,40.2 89.2,40.2 89.2,40" />
<path stroke="#000000" stroke-width="2" d="M 96,70" />
<path stroke="#000000" stroke-width="2" d="M 112,30 92.2,49.8 112,69.6" />
<path stroke="#000000" stroke-width="2" d="M 118.7,70" />
<path stroke="#000000" stroke-width="2" d="M 118.7,50" />
<path stroke="#000000" stroke-width="2" d="M 118.7,50 118.8,50 119.3,50 119.9,50 120.8,50.1 121.8,50.2 123,50.3 124.3,50.4 125.7,50.6 127.2,50.9 128.7,51.2 130.2,51.7 131.7,52.2 133.1,52.7 134.4,53.4 135.6,54.2 136.6,55.1 137.5,56.1 138.1,57.3 138.6,58.6 138.7,60" />
<path stroke="#000000" stroke-width="2" d="M 138.7,60 140.6,62.1 141.9,64.1 142.7,65.7 143,67.2 142.9,68.4 142.5,69.5 141.8,70.2 140.9,70.8 139.8,71.1 138.7,71.2 137.6,71.1 136.5,70.8 135.6,70.2 134.9,69.5 134.5,68.4 134.4,67.2 134.7,65.7 135.5,64 136.8,62.1 138.7,60" />
<path stroke="#000000" stroke-width="2" d="M 138.7,60 138.7,59.9 138.7,59.7 138.8,59.4 138.9,59 139,58.4 139.2,57.8 139.6,57.2 140,56.5 140.5,55.7 141.2,55 142,54.3 143,53.5 144.2,52.8 145.6,52.2 147.1,51.6 148.9,51 151,50.6 153.3,50.3 155.8,50.1 158.7,50 158.7,50.7 158.8,51.4 158.9,52.1 159.1,52.8 159.3,53.4 159.6,54 159.9,54.6 160.3,55.2 160.8,55.8 161.3,56.2 161.8,56.7 162.4,57.1 163,57.4 163.6,57.7 164.3,58 165,58.2 165.6,58.3 166.3,58.3 167,58.3 167.7,58.3 168.4,58.2 169.1,58 169.8,57.7 170.4,57.4 171,57.1 171.6,56.7 172.1,56.2 172.6,55.8 173,55.2 173.4,54.6 173.8,54 174.1,53.4 174.3,52.8 174.5,52.1 174.6,51.4 174.7,50.7" />
<path stroke="#000000" stroke-width="2" d="M 174.7,50.7 176.7,50.6 178.3,50.3 179.6,49.8 180.4,49.3 181,48.6 181.3,47.9 181.3,47.1 181.2,46.4 180.8,45.7 180.3,45.1 179.7,44.6 179,44.2 178.3,44 177.5,44.1 176.8,44.4 176.1,44.9 175.5,45.8 175.1,47.1 174.8,48.7 174.7,50.7 174.7,65.7" />
<path stroke="#000000" stroke-width="2" d="M 188,70" />
<path stroke="#000000" stroke-width="2" d="M 188,20 195.7,38.5" />
<path stroke="#000000" stroke-width="2" d="M 225.7,70" />
<path stroke="#000000" stroke-width="2" d="M 225.7,30" />
<path stroke="#000000" stroke-width="2" d="M 225.7,30 228.5,30.3 231.1,31.1 233.3,32.4 235.3,34.2 236.9,36.2 238.3,38.6 239.3,41.3 240.1,44.1 240.5,47 240.7,50 240.5,53 240.1,55.9 239.3,58.7 238.3,61.4 236.9,63.8 235.3,65.8 233.3,67.6 231.1,68.9 228.5,69.7 225.7,70" />
<path stroke="#000000" stroke-width="2" d="M 225.7,50" />
<path stroke="#000000" stroke-width="2" d="M 233.7,50 253.7,50" />
<path stroke="#000000" stroke-width="2" d="M 260.3,70" />
<path stroke="#000000" stroke-width="2" d="M 266.3,32" />
<path stroke="#000000" stroke-width="2" d="M 266.3,32 266.2,30 265.9,28.4 265.5,27.1 264.9,26.2 264.2,25.7 263.5,25.4 262.7,25.3 262,25.5 261.3,25.9 260.7,26.4 260.2,27 259.8,27.7 259.7,28.4 259.7,29.2 260,29.9 260.6,30.6 261.4,31.1 262.7,31.6 264.3,31.9 266.3,32 270.3,32" />
<path stroke="#000000" stroke-width="2" d="M 270.3,32 271.2,31.7 272,31.3 272.8,31 273.5,30.6 274.1,30.2 274.7,29.7 275.2,29.3 275.7,28.8 276.2,28.3 276.6,27.8 276.9,27.2 277.2,26.7 277.5,26.1 277.7,25.5 277.9,25 278.1,24.4 278.2,23.8 278.3,23.2 278.3,22.6 278.3,22" />
<path stroke="#000000" stroke-width="2" d="M 285,70" />
<path stroke="#000000" stroke-width="2" d="M 285,20 305,20" />
<path stroke="#000000" stroke-width="2" d="M 335,70" />
<path stroke="#000000" stroke-width="2" d="M 335,70" />
<path stroke="#000000" stroke-width="2" d="M 335,70 336.1,70 337.1,70.2 337.9,70.4 338.6,70.7 339.2,71 339.7,71.5 340,71.9 340.2,72.5 340.3,73.1 340.2,73.8 340.1,74.4 339.9,75.2 339.6,76 339.2,76.8 338.6,77.6 338.1,78.4 337.4,79.3 336.7,80.2 335.9,81.1 335,82" />
<path stroke="#000000" stroke-width="2" d="M 370.3,70" />
</svg>