<svg xmlns="http://www.w3.org/2000/svg" width="368.3415131403336" height="90.2" style="fill:none; stroke-linecap:round;">
    <rect width="100%" height="100%" fill="#FFFFFF" />
<path stroke="#000000" stroke-width="2" d="M 550,75" />
<path stroke="#000000" stroke-width="2" d="M 20,30 20,50 30,50 22.3,68.5" />
<path stroke="#000000" stroke-width="2" d="M 60,70" />
<path stroke="#000000" stroke-width="2" d="M 60,30 60,50 70,50 90,50 70.2,69.8 90.2,69.8" />
<path stroke="#000000" stroke-width="2" d="M 120.2,70" />
<path stroke="#000000" stroke-width="2" d="M 120.2,35" />
<path stroke="#000000" stroke-width="2" d="M 120.2,35 122.2,34.9 123.8,34.6 125.1,34.1 126,33.6 126.5,32.9 126.8,32.2 126.9,31.4 126.7,30.7 126.3,30 125.8,29.4 125.2,28.9 124.5,28.5 123.8,28.3 123,28.4 122.3,28.7 121.6,29.2 121.1,30.1 120.6,31.4 120.3,33 120.2,35 120.2,50 112.5,68.5" />
<path stroke="#000000" stroke-width="2" d="M 133.5,70" />
<path stroke="#000000" stroke-width="2" d="M 133.5,30 133.5,31.4 133.6,32.8 133.9,34.2 134.2,35.5 134.7,36.8 135.3,38.1 136,39.3 136.8,40.4 137.7,41.5 138.7,42.5 139.8,43.4 140.9,44.2 142.1,44.9 143.4,45.5 144.7,46 146,46.3 147.4,46.6 148.8,46.7 150.2,46.7 151.6,46.6 153,46.3 154.3,46 155.6,45.5 156.9,44.9 158.1,44.2 159.2,43.4 160.3,42.5 161.3,41.5 162.2,40.4 163,39.3 163.7,38.1 164.3,36.8 164.8,35.5 165.1,34.2 165.4,32.8 165.5,31.4" />
<path stroke="#000000" stroke-width="2" d="M 195.5,70" />
<path stroke="#000000" stroke-width="2" d="M 195.5,40 195.7,40 195.7,40.2 195.5,40.2 195.5,40" />
<path stroke="#000000" stroke-width="2" d="M 202.4,70" />
<path stroke="#000000" stroke-width="2" d="M 202.4,30 202.4,50 202.4,70 192.4,70" />
<path stroke="#000000" stroke-width="2" d="M 209,70" />
<path stroke="#000000" stroke-width="2" d="M 219,50 211.4,68.5" />
<path stroke="#000000" stroke-width="2" d="M 225.7,70" />
<path stroke="#000000" stroke-width="2" d="M 225.7,30 230.7,30 230.7,50 230.7,50.7 230.8,51.4 230.9,52.1 231.1,52.8 231.3,53.4 231.6,54 231.9,54.6 232.3,55.2 232.8,55.8 233.3,56.2 233.8,56.7 234.4,57.1 235,57.4 235.6,57.7 236.3,58 237,58.2 237.6,58.3 238.3,58.3 239,58.3 239.7,58.3 240.4,58.2 241.1,58 241.7,57.7 242.4,57.4 243,57.1 243.6,56.7 244.1,56.2 244.6,55.8 245,55.2 245.4,54.6 245.8,54 246.1,53.4 246.3,52.8 246.5,52.1 246.6,51.4 246.7,50.7" />
<path stroke="#000000" stroke-width="2" d="M 276.7,70" />
<path stroke="#000000" stroke-width="2" d="M 276.7,30 276.7,70 288,58.7" />
<path stroke="#000000" stroke-width="2" d="M 294.7,70" />
<path stroke="#000000" stroke-width="2" d="M 294.7,20 294.7,20.7 294.7,21.4 294.8,22.1 295,22.8 295.3,23.4 295.6,24 295.9,24.6 296.3,25.2 296.8,25.8 297.2,26.2 297.8,26.7 298.4,27.1 299,27.4 299.6,27.7 300.2,28 300.9,28.2 301.6,28.3 302.3,28.3 303,28.3 303.7,28.3 304.4,28.2 305.1,28 305.7,27.7 306.3,27.4 306.9,27.1 307.5,26.7 308.1,26.2 308.5,25.8 309,25.2 309.4,24.6 309.7,24 310,23.4 310.3,22.8 310.5,22.1 310.6,21.4 310.6,20.7" />
<path stroke="#000000" stroke-width="2" d="M 310.6,20.7 312.1,20.8 313.3,21.3 314.5,21.9 315.4,22.8 316.3,23.8 316.9,25 317.5,26.3 317.8,27.7 318.1,29.2 318.1,30.7 318.1,32.2 317.8,33.7 317.5,35.1 316.9,36.4 316.3,37.6 315.4,38.6 314.5,39.5 313.3,40.1 312.1,40.6 310.6,40.7" />
<path stroke="#000000" stroke-width="2" d="M 348.1,70" />
<path stroke="#000000" stroke-width="2" d="M 348.1,70 348.3,70 348.3,70.2 348.1,70.2 348.1,70" />
<path stroke="#000000" stroke-width="2" d="M 378.3,70" />
</svg>