<svg xmlns="http://www.w3.org/2000/svg" width="530.8538565208615" height="122.0" style="fill:none; stroke-linecap:round;">
    <rect width="100%" height="100%" fill="#FFFFFF" />
<path stroke="#000000" stroke-width="2" d="M 550,75" />
<path stroke="#000000" stroke-width="2" d="M 20,35" />
<path stroke="#000000" stroke-width="2" d="M 20,35 22,34.9 23.6,34.6 24.9,34.1 25.8,33.6 26.3,32.9 26.6,32.2 26.7,31.4 26.5,30.7 26.1,30 25.6,29.4 25,28.9 24.3,28.5 23.6,28.3 22.8,28.4 22.1,28.7 21.4,29.2 20.9,30.1 20.4,31.4 20.1,33 20,35 20,50" />
<path stroke="#000000" stroke-width="2" d="M 20,50 19.9,52 19.6,53.6 19.1,54.9 18.6,55.8 17.9,56.3 17.2,56.6 16.4,56.7 15.7,56.5 15,56.1 14.4,55.6 13.9,55 13.5,54.3 13.3,53.6 13.4,52.8 13.7,52.1 14.2,51.4 15.1,50.9 16.4,50.4 18,50.1 20,50 30,50" />
<path stroke="#000000" stroke-width="2" d="M 36.7,70" />
<path stroke="#000000" stroke-width="2" d="M 36.7,70 36.7,68.6 36.8,67.2 37,65.8 37.4,64.5 37.9,63.2 38.5,61.9 39.2,60.7 40,59.6 40.9,58.5 41.8,57.5 42.9,56.6 44.1,55.8 45.3,55.1 46.5,54.5 47.8,54 49.2,53.7 50.6,53.4 52,53.3 53.3,53.3 54.7,53.4 56.1,53.7 57.5,54 58.8,54.5 60,55.1 61.2,55.8 62.4,56.6 63.5,57.5 64.4,58.5 65.3,59.6 66.1,60.7 66.8,61.9 67.4,63.2 67.9,64.5 68.3,65.8 68.5,67.2 68.6,68.6" />
<path stroke="#000000" stroke-width="2" d="M 98.6,70" />
<path stroke="#000000" stroke-width="2" d="M 118.6,30 118.6,70 98.6,70" />
<path stroke="#000000" stroke-width="2" d="M 125.3,70" />
<path stroke="#000000" stroke-width="2" d="M 125.3,50 125.5,50 125.5,50.2 125.3,50.2 125.3,50" />
<path stroke="#000000" stroke-width="2" d="M 155.5,70" />
<path stroke="#000000" stroke-width="2" d="M 175.5,30 160.2,67 164.8,55.9 165.5,54.3 166.3,52.7 167.2,51.2 168.3,49.9 169.4,48.6 170.7,47.4 172.1,46.3 173.6,45.4 175.1,44.6 176.7,43.9 178.4,43.4 180.1,43" />
<path stroke="#000000" stroke-width="2" d="M 186.8,70" />
<path stroke="#000000" stroke-width="2" d="M 196.8,70 197.6,70 198.5,69.9 199.4,69.8 200.2,69.5 201,69.2 201.8,68.9 202.6,68.4 203.3,67.9 204,67.4 204.6,66.8 205.1,66.1 205.6,65.4 206.1,64.6 206.5,63.8 206.7,63 207,62.2 207.1,61.3 207.2,60.4 207.2,59.6 207.1,58.7 207,57.8 206.7,57 206.5,56.2 206.1,55.4 205.6,54.6 205.1,53.9 204.6,53.3 204,52.6 203.3,52.1 202.6,51.6 201.8,51.1 201,50.8 200.2,50.5 199.4,50.2 198.5,50.1 197.6,50 196.8,50 195.9,50.1 195,50.2 194.2,50.5 193.4,50.8 192.6,51.1 191.8,51.6 191.1,52.1 190.5,52.6 189.8,53.3 189.3,53.9 188.8,54.6 188.3,55.4 188,56.2 187.7,57 187.4,57.8 187.3,58.7 187.2,59.6 187.2,60.4 187.3,61.3 187.4,62.2 187.7,63 188,63.8 188.3,64.6 188.8,65.4 189.3,66.1 189.8,66.8 190.5,67.4 191.1,67.9 191.8,68.4 192.6,68.9 193.4,69.2 194.2,69.5 195,69.8 195.9,69.9 196.8,70" />
<path stroke="#000000" stroke-width="2" d="M 237.2,70" />
<path stroke="#000000" stroke-width="2" d="M 237.2,50 237.2,49.3 237.3,48.6 237.4,47.9 237.6,47.2 237.8,46.6 238.1,46 238.4,45.4 238.8,44.8 239.3,44.2 239.8,43.8 240.3,43.3 240.9,42.9 241.5,42.6 242.1,42.3 242.8,42 243.5,41.8 244.2,41.7 244.8,41.7 245.5,41.7 246.2,41.7 246.9,41.8 247.6,42 248.3,42.3 248.9,42.6 249.5,42.9 250.1,43.3 250.6,43.8 251.1,44.2 251.5,44.8 251.9,45.4 252.3,46 252.6,46.6 252.8,47.2 253,47.9 253.1,48.6 253.2,49.3 253.2,69.3 258.8,63.6" />
<path stroke="#000000" stroke-width="2" d="M 265.5,70" />
<path stroke="#000000" stroke-width="2" d="M 265.5,20 265.5,40 275.5,40 283.2,21.5 290.8,40 283.2,58.5 283.2,59.2 283.2,59.9 283.3,60.6 283.5,61.2 283.8,61.9 284.1,62.5 284.4,63.1 284.8,63.7 285.3,64.2 285.8,64.7 286.3,65.2 286.9,65.6 287.5,65.9 288.1,66.2 288.8,66.5 289.4,66.6 290.1,66.8 290.8,66.8 291.5,66.8 292.2,66.8 292.9,66.6 293.6,66.5 294.2,66.2 294.9,65.9 295.5,65.6 296,65.2 296.6,64.7 297.1,64.2 297.5,63.7 297.9,63.1 298.3,62.5 298.5,61.9 298.8,61.2 299,60.6 299.1,59.9 299.1,59.2" />
<path stroke="#000000" stroke-width="2" d="M 305.8,70" />
<path stroke="#000000" stroke-width="2" d="M 305.8,30 306,30 306,30.2 305.8,30.2 305.8,30" />
<path stroke="#000000" stroke-width="2" d="M 336,70" />
<path stroke="#000000" stroke-width="2" d="M 336,30 356,30" />
<path stroke="#000000" stroke-width="2" d="M 356,30 357.4,30.1 358.7,30.6 359.8,31.2 360.8,32.1 361.6,33.1 362.3,34.3 362.8,35.6 363.2,37 363.4,38.5 363.5,40 363.4,41.5 363.2,43 362.8,44.4 362.3,45.7 361.6,46.9 360.8,47.9 359.8,48.8 358.7,49.4 357.4,49.9 356,50" />
<path stroke="#000000" stroke-width="2" d="M 393.5,70" />
<path stroke="#000000" stroke-width="2" d="M 393.5,50 393.5,49.3 393.6,48.6 393.7,47.9 393.9,47.2 394.1,46.6 394.4,46 394.8,45.4 395.2,44.8 395.6,44.2 396.1,43.8 396.6,43.3 397.2,42.9 397.8,42.6 398.4,42.3 399.1,42 399.8,41.8 400.5,41.7 401.2,41.7 401.9,41.7 402.6,41.7 403.2,41.8 403.9,42 404.6,42.3 405.2,42.6 405.8,42.9 406.4,43.3 406.9,43.8 407.4,44.2 407.9,44.8 408.3,45.4 408.6,46 408.9,46.6 409.1,47.2 409.3,47.9 409.4,48.6 409.5,49.3 409.5,50 409.6,50.7 409.7,51.4 409.9,52.1 410.1,52.7 410.4,53.3 410.7,53.9 411.1,54.5 411.6,55.1 412.1,55.5 412.6,56 413.2,56.4 413.8,56.7 414.4,57 415.1,57.3 415.8,57.5 416.4,57.6 417.1,57.6 417.8,57.6 418.5,57.6 419.2,57.5 419.9,57.3 420.6,57 421.2,56.7 421.8,56.4 422.4,56 422.9,55.5 423.4,55.1 423.8,54.5 424.2,53.9 424.6,53.3 424.9,52.7 425.1,52.1 425.3,51.4 425.4,50.7 425.5,50" />
<path stroke="#000000" stroke-width="2" d="M 432.2,70" />
<path stroke="#000000" stroke-width="2" d="M 432.2,50 439.8,31.5 447.5,50 447.5,50.7 447.5,51.4 447.6,52.1 447.8,52.8 448.1,53.4 448.4,54 448.7,54.6 449.1,55.2 449.6,55.8 450,56.2 450.6,56.7 451.2,57.1 451.8,57.4 452.4,57.7 453,58 453.7,58.2 454.4,58.3 455.1,58.3 455.8,58.3 456.5,58.3 457.2,58.2 457.9,58 458.5,57.7 459.1,57.4 459.7,57.1 460.3,56.7 460.9,56.2 461.3,55.8 461.8,55.2 462.2,54.6 462.5,54 462.8,53.4 463.1,52.8 463.3,52.1 463.4,51.4 463.4,50.7" />
<path stroke="#000000" stroke-width="2" d="M 470.1,70" />
<path stroke="#000000" stroke-width="2" d="M 470.1,30 470.3,30 470.3,30.2 470.1,30.2 470.1,30" />
<path stroke="#000000" stroke-width="2" d="M 500.3,70" />
<path stroke="#000000" stroke-width="2" d="M 500.3,62 501.1,62 501.1,62.8 500.3,62.8 500.3,62" />
<path stroke="#000000" stroke-width="2" d="M 500.3,78" />
<path stroke="#000000" stroke-width="2" d="M 500.3,78 502.6,78.1 504.5,78.3 506.2,78.8 507.6,79.3 508.7,80.1 509.6,80.9 510.3,81.9 510.7,83 510.9,84.2 510.8,85.5 510.6,86.9 510.1,88.4 509.5,89.9 508.6,91.5 507.6,93.2 506.5,94.9 505.1,96.6 503.7,98.4 502,100.2 500.3,102" />
<path stroke="#000000" stroke-width="2" d="M 540.9,70" />
</svg>