<svg xmlns="http://www.w3.org/2000/svg" width="423.1451425077275" height="122.0" style="fill:none; stroke-linecap:round;">
    <rect width="100%" height="100%" fill="#FFFFFF" />
<path stroke="#000000" stroke-width="2" d="M 550,75" />
<path stroke="#000000" stroke-width="2" d="M 20,30 20,50 30,50 37.7,68.5 45.3,50 65.3,50" />
<path stroke="#000000" stroke-width="2" d="M 95.3,70" />
<path stroke="#000000" stroke-width="2" d="M 115.3,30 100,67" />
<path stroke="#000000" stroke-width="2" d="M 122,70" />
<path stroke="#000000" stroke-width="2" d="M 122,50 122.2,50 122.2,50.2 122,50.2 122,50" />
<path stroke="#000000" stroke-width="2" d="M 152.2,70" />
<path stroke="#000000" stroke-width="2" d="M 152.2,70 152.4,70 152.4,70.2 152.2,70.2 152.2,70" />
<path stroke="#000000" stroke-width="2" d="M 159,70" />
<path stroke="#000000" stroke-width="2" d="M 159,30" />
<path stroke="#000000" stroke-width="2" d="M 159,30 161.9,30.3 164.4,31.1 166.7,32.4 168.6,34.2 170.3,36.2 171.6,38.6 172.7,41.3 173.4,44.1 173.9,47 174,50 173.9,53 173.4,55.9 172.7,58.7 171.6,61.4 170.3,63.8 168.6,65.8 166.7,67.6 164.4,68.9 161.9,69.7 159,70" />
<path stroke="#000000" stroke-width="2" d="M 180.7,70" />
<path stroke="#000000" stroke-width="2" d="M 180.7,20 180.7,20.7 180.8,21.4 180.9,22.1 181.1,22.8 181.3,23.4 181.6,24 182,24.6 182.4,25.2 182.8,25.8 183.3,26.2 183.8,26.7 184.4,27.1 185,27.4 185.6,27.7 186.3,28 187,28.2 187.7,28.3 188.4,28.3 189,28.3 189.7,28.3 190.4,28.2 191.1,28 191.8,27.7 192.4,27.4 193,27.1 193.6,26.7 194.1,26.2 194.6,25.8 195,25.2 195.4,24.6 195.8,24 196.1,23.4 196.3,22.8 196.5,22.1 196.6,21.4 196.7,20.7" />
<path stroke="#000000" stroke-width="2" d="M 226.7,70" />
<path stroke="#000000" stroke-width="2" d="M 226.7,30 246.7,30" />
<path stroke="#000000" stroke-width="2" d="M 246.7,30 248.1,30.1 249.4,30.6 250.5,31.2 251.5,32.1 252.3,33.1 253,34.3 253.5,35.6 253.9,37 254.1,38.5 254.2,40 254.1,41.5 253.9,43 253.5,44.4 253,45.7 252.3,46.9 251.5,47.9 250.5,48.8 249.4,49.4 248.1,49.9 246.7,50" />
<path stroke="#000000" stroke-width="2" d="M 284.2,70" />
<path stroke="#000000" stroke-width="2" d="M 284.2,70 284.4,70 284.4,70.2 284.2,70.2 284.2,70" />
<path stroke="#000000" stroke-width="2" d="M 291.1,70" />
<path stroke="#000000" stroke-width="2" d="M 291.1,30 291.1,50 301.1,50 301.1,54 301.1,54.5 301.1,55 301.2,55.6 301.3,56.1 301.5,56.6 301.7,57 302,57.5 302.3,57.9 302.6,58.3 303,58.7 303.4,59 303.8,59.3 304.3,59.6 304.8,59.8 305.2,60 305.8,60.1 306.3,60.2 306.8,60.3 307.3,60.3 307.8,60.2 308.4,60.1 308.9,60 309.3,59.8 309.8,59.6 310.3,59.3 310.7,59 311.1,58.7 311.5,58.3 311.8,57.9 312.1,57.5 312.4,57 312.6,56.6 312.8,56.1 312.9,55.6 313,55 313,54.5 313,49.5 313,69.5 333,69.5 333,89.5 333,83.5 333,82.7 333.1,81.8 333.3,80.9 333.5,80.1 333.8,79.3 334.2,78.5 334.6,77.7 335.1,77 335.7,76.3 336.3,75.7 337,75.2 337.7,74.7 338.4,74.2 339.2,73.8 340,73.6 340.9,73.3 341.7,73.2 342.6,73.1 362.6,73.1 354.9,91.6" />
<path stroke="#000000" stroke-width="2" d="M 392.6,70" />
<path stroke="#000000" stroke-width="2" d="M 392.6,62 393.4,62 393.4,62.8 392.6,62.8 392.6,62" />
<path stroke="#000000" stroke-width="2" d="M 392.6,78" />
<path stroke="#000000" stroke-width="2" d="M 392.6,78 394.9,78.1 396.8,78.3 398.5,78.8 399.9,79.3 401,80.1 401.9,80.9 402.6,81.9 403,83 403.1,84.2 403.1,85.5 402.8,86.9 402.4,88.4 401.7,89.9 400.9,91.5 399.9,93.2 398.7,94.9 397.4,96.6 395.9,98.4 394.3,100.2 392.6,102" />
<path stroke="#000000" stroke-width="2" d="M 433.1,70" />
</svg>