<svg xmlns="http://www.w3.org/2000/svg" width="478.3001069393646" height="110.0" style="fill:none; stroke-linecap:round;">
    <rect width="100%" height="100%" fill="#FFFFFF" />
<path stroke="#000000" stroke-width="2" d="M 550,75" />
<path stroke="#000000" stroke-width="2" d="M 20,70 20,68.6 20.1,67.2 20.4,65.8 20.7,64.5 21.2,63.2 21.8,61.9 22.5,60.7 23.3,59.6 24.2,58.5 25.2,57.5 26.2,56.6 27.4,55.8 28.6,55.1 29.9,54.5 31.2,54 32.5,53.7 33.9,53.4 35.3,53.3 36.7,53.3 38.1,53.4 39.4,53.7 40.8,54 42.1,54.5 43.4,55.1 44.6,55.8 45.7,56.6 46.8,57.5 47.8,58.5 48.7,59.6 49.5,60.7 50.2,61.9 50.8,63.2 51.2,64.5 51.6,65.8 51.8,67.2 52,68.6" />
<path stroke="#000000" stroke-width="2" d="M 58.6,70" />
<path stroke="#000000" stroke-width="2" d="M 74.6,30" />
<path stroke="#000000" stroke-width="2" d="M 74.6,30 74.4,34.1 73.8,37.3 72.9,39.8 71.8,41.5 70.4,42.7 69,43.2 67.5,43.3 66,43 64.6,42.3 63.4,41.2 62.4,40 61.7,38.6 61.3,37.2 61.4,35.7 62,34.2 63.1,32.9 64.9,31.7 67.3,30.8 70.6,30.2 74.6,30 94.6,30" />
<path stroke="#000000" stroke-width="2" d="M 124.6,70" />
<path stroke="#000000" stroke-width="2" d="M 140.6,30" />
<path stroke="#000000" stroke-width="2" d="M 140.6,30 140.4,34.1 139.8,37.3 138.9,39.8 137.8,41.5 136.4,42.7 135,43.2 133.5,43.3 132,43 130.6,42.3 129.4,41.2 128.4,40 127.7,38.6 127.3,37.2 127.4,35.7 128,34.2 129.1,32.9 130.9,31.7 133.3,30.8 136.6,30.2 140.6,30 160.6,30" />
<path stroke="#000000" stroke-width="2" d="M 167.3,70" />
<path stroke="#000000" stroke-width="2" d="M 167.3,40" />
<path stroke="#000000" stroke-width="2" d="M 167.3,40 171.4,39.8 174.6,39.2 177.1,38.3 178.8,37.1 180,35.8 180.5,34.3 180.6,32.8 180.3,31.4 179.6,30 178.6,28.8 177.3,27.7 175.9,27 174.5,26.7 173,26.8 171.5,27.3 170.2,28.5 169,30.2 168.1,32.7 167.5,35.9 167.3,40 167.3,70" />
<path stroke="#000000" stroke-width="2" d="M 210.6,70" />
<path stroke="#000000" stroke-width="2" d="M 210.6,30 210.6,50 220.6,50 240.6,50" />
<path stroke="#000000" stroke-width="2" d="M 270.6,70" />
<path stroke="#000000" stroke-width="2" d="M 290.6,30 290.6,70 270.6,70" />
<path stroke="#000000" stroke-width="2" d="M 297.3,70" />
<path stroke="#000000" stroke-width="2" d="M 297.3,70 304.9,51.5 312.6,70 312.6,90 312.6,84 312.6,83.1 312.7,82.3 312.8,81.4 313,80.6 313.3,79.7 313.7,78.9 314.1,78.2 314.6,77.5 315.2,76.8 315.8,76.2 316.5,75.6 317.2,75.1 318,74.7 318.7,74.3 319.6,74 320.4,73.8 321.3,73.6 322.1,73.6" />
<path stroke="#000000" stroke-width="2" d="M 352.1,70" />
<path stroke="#000000" stroke-width="2" d="M 352.1,40" />
<path stroke="#000000" stroke-width="2" d="M 352.1,40 356.2,39.8 359.4,39.2 361.9,38.3 363.7,37.1 364.8,35.8 365.4,34.3 365.4,32.8 365.1,31.4 364.4,30 363.4,28.8 362.2,27.7 360.8,27 359.3,26.7 357.8,26.8 356.4,27.3 355,28.5 353.9,30.2 352.9,32.7 352.4,35.9 352.1,40 352.1,70" />
<path stroke="#000000" stroke-width="2" d="M 372.1,70" />
<path stroke="#000000" stroke-width="2" d="M 372.1,50" />
<path stroke="#000000" stroke-width="2" d="M 372.1,50 372.3,50 372.7,50 373.3,50 374.2,50.1 375.2,50.2 376.4,50.3 377.8,50.4 379.2,50.6 380.6,50.9 382.1,51.2 383.6,51.7 385.1,52.2 386.5,52.7 387.8,53.4 389,54.2 390,55.1 390.9,56.1 391.6,57.3 392,58.6 392.1,60" />
<path stroke="#000000" stroke-width="2" d="M 392.1,60 394,62.1 395.4,64.1 396.1,65.7 396.4,67.2 396.3,68.4 395.9,69.5 395.2,70.2 394.3,70.8 393.2,71.1 392.1,71.2 391,71.1 390,70.8 389,70.2 388.3,69.5 387.9,68.4 387.8,67.2 388.1,65.7 388.9,64 390.2,62.1 392.1,60" />
<path stroke="#000000" stroke-width="2" d="M 392.1,60 392.1,59.9 392.1,59.7 392.2,59.4 392.3,59 392.4,58.4 392.7,57.8 393,57.2 393.4,56.5 393.9,55.7 394.6,55 395.4,54.3 396.4,53.5 397.6,52.8 399,52.2 400.6,51.6 402.4,51 404.4,50.6 406.7,50.3 409.3,50.1 412.1,50 412.1,50.7 412.2,51.4 412.3,52.1 412.5,52.8 412.7,53.4 413,54 413.4,54.6 413.8,55.2 414.2,55.8 414.7,56.2 415.2,56.7 415.8,57.1 416.4,57.4 417,57.7 417.7,58 418.4,58.2 419.1,58.3 419.8,58.3 420.5,58.3 421.2,58.3 421.8,58.2 422.5,58 423.2,57.7 423.8,57.4 424.4,57.1 425,56.7 425.5,56.2 426,55.8 426.5,55.2 426.9,54.6 427.2,54 427.5,53.4 427.7,52.8 427.9,52.1 428,51.4 428.1,50.7" />
<path stroke="#000000" stroke-width="2" d="M 458.1,70" />
<path stroke="#000000" stroke-width="2" d="M 458.1,70 458.3,70 458.3,70.2 458.1,70.2 458.1,70" />
<path stroke="#000000" stroke-width="2" d="M 488.3,70" />
</svg>