<svg xmlns="http://www.w3.org/2000/svg" width="365.91102993718897" height="90.2" style="fill:none; stroke-linecap:round;">
    <rect width="100%" height="100%" fill="#FFFFFF" />
<path stroke="#000000" stroke-width="2" d="M 550,75" />
<path stroke="#000000" stroke-width="2" d="M 20,30 20,50 30,50 22.3,68.5" />
<path stroke="#000000" stroke-width="2" d="M 60,70" />
<path stroke="#000000" stroke-width="2" d="M 60,30 60,50 70,50 90,50 70.2,69.8 90.2,69.8" />
<path stroke="#000000" stroke-width="2" d="M 120.2,70" />
<path stroke="#000000" stroke-width="2" d="M 120.2,35" />
<path stroke="#000000" stroke-width="2" d="M 120.2,35 122.2,34.9 123.8,34.6 125.1,34.1 126,33.6 126.5,32.9 126.8,32.2 126.9,31.4 126.7,30.7 126.3,30 125.8,29.4 125.2,28.9 124.5,28.5 123.8,28.3 123,28.4 122.3,28.7 121.6,29.2 121.1,30.1 120.6,31.4 120.3,33 120.2,35 120.2,50 112.5,68.5" />
<path stroke="#000000" stroke-width="2" d="M 133.5,70" />
<path stroke="#000000" stroke-width="2" d="M 133.5,30 133.5,31.4 133.6,32.8 133.9,34.2 134.2,35.5 134.7,36.8 135.3,38.1 136,39.3 136.8,40.4 137.7,41.5 138.7,42.5 139.8,43.4 140.9,44.2 142.1,44.9 143.4,45.5 144.7,46 146,46.3 147.4,46.6 148.8,46.7 150.2,46.7 151.6,46.6 153,46.3 154.3,46 155.6,45.5 156.9,44.9 158.1,44.2 159.2,43.4 160.3,42.5 161.3,41.5 162.2,40.4 163,39.3 163.7,38.1 164.3,36.8 164.8,35.5 165.1,34.2 165.4,32.8 165.5,31.4" />
<path stroke="#000000" stroke-width="2" d="M 195.5,70" />
<path stroke="#000000" stroke-width="2" d="M 195.5,40 195.7,40 195.7,40.2 195.5,40.2 195.5,40" />
<path stroke="#000000" stroke-width="2" d="M 202.4,70" />
<path stroke="#000000" stroke-width="2" d="M 202.4,30 202.4,50 202.4,70 192.4,70" />
<path stroke="#000000" stroke-width="2" d="M 209,70" />
<path stroke="#000000" stroke-width="2" d="M 219,50 211.4,68.5" />
<path stroke="#000000" stroke-width="2" d="M 225.7,70" />
<path stroke="#000000" stroke-width="2" d="M 225.7,20 230.7,20 230.7,40" />
<path stroke="#000000" stroke-width="2" d="M 230.7,30" />
<path stroke="#000000" stroke-width="2" d="M 226.7,30 234.7,30" />
<path stroke="#000000" stroke-width="2" d="M 264.7,70" />
<path stroke="#000000" stroke-width="2" d="M 264.7,30 264.7,70 276,58.7" />
<path stroke="#000000" stroke-width="2" d="M 282.7,70" />
<path stroke="#000000" stroke-width="2" d="M 282.7,20 282.7,40 282.7,34 282.7,33.1 282.7,32.3 282.9,31.4 283.1,30.6 283.4,29.7 283.8,28.9 284.2,28.2 284.7,27.5 285.3,26.8 285.9,26.2 286.6,25.6 287.3,25.1 288,24.7 288.8,24.3 289.7,24 290.5,23.8 291.4,23.6 292.2,23.6 292.2,24.3 292.3,25 292.4,25.7 292.6,26.3 292.8,27 293.1,27.6 293.5,28.2 293.9,28.8 294.3,29.3 294.8,29.8 295.3,30.3 295.9,30.7 296.5,31 297.2,31.3 297.8,31.6 298.5,31.7 299.2,31.9 299.9,31.9 300.6,31.9 301.3,31.9 302,31.7 302.6,31.6 303.3,31.3 303.9,31 304.5,30.7 305.1,30.3 305.6,29.8 306.1,29.3 306.6,28.8 307,28.2 307.3,27.6 307.6,27 307.8,26.3 308,25.7 308.2,25 308.2,24.3" />
<path stroke="#000000" stroke-width="2" d="M 308.2,24.3 309.6,24.4 310.9,24.8 312,25.5 313,26.4 313.8,27.4 314.5,28.6 315,29.9 315.4,31.3 315.6,32.8 315.7,34.3 315.6,35.8 315.4,37.2 315,38.6 314.5,40 313.8,41.1 313,42.2 312,43.1 310.9,43.7 309.6,44.1 308.2,44.3" />
<path stroke="#000000" stroke-width="2" d="M 345.7,70" />
<path stroke="#000000" stroke-width="2" d="M 345.7,70 345.9,70 345.9,70.2 345.7,70.2 345.7,70" />
<path stroke="#000000" stroke-width="2" d="M 375.9,70" />
</svg>