<svg xmlns="http://www.w3.org/2000/svg" width="148.2930640067785" height="91.25" style="fill:none; stroke-linecap:round;">
    <rect width="100%" height="100%" fill="#FFFFFF" />
<path stroke="#000000" stroke-width="2" d="M 75,75" />
<path stroke="#000000" stroke-width="2" d="M 20,38 25.7,32.3 25.7,52.3" />
<path stroke="#000000" stroke-width="2" d="M 25.7,42.3" />
<path stroke="#000000" stroke-width="2" d="M 21.7,42.3 29.7,42.3 29.7,46.3 29.7,46.9 29.7,47.4 29.8,47.9 29.9,48.4 30.1,48.9 30.3,49.4 30.6,49.8 30.9,50.3 31.2,50.7 31.6,51 32,51.4 32.4,51.7 32.9,51.9 33.4,52.1 33.8,52.3 34.4,52.5 34.9,52.6 35.4,52.6 35.9,52.6 36.4,52.6 36.9,52.5 37.5,52.3 37.9,52.1 38.4,51.9 38.9,51.7 39.3,51.4 39.7,51 40.1,50.7 40.4,50.3 40.7,49.8 41,49.4 41.2,48.9 41.4,48.4 41.5,47.9 41.6,47.4 41.6,46.9 41.6,41.9 41.6,61.9 41.6,61 41.7,60.1 41.9,59.3 42.1,58.4 42.4,57.6 42.8,56.8 43.2,56.1 43.7,55.3 44.3,54.7 44.9,54.1 45.5,53.5 46.3,53 47,52.6 47.8,52.2 48.6,51.9 49.5,51.7 50.3,51.5 51.2,51.4" />
<path stroke="#000000" stroke-width="2" d="M 57.9,70" />
<path stroke="#000000" stroke-width="2" d="M 57.9,50" />
<path stroke="#000000" stroke-width="2" d="M 57.9,50 58,50 58.4,50 59.1,50 59.9,50.1 61,50.2 62.2,50.3 63.5,50.4 64.9,50.6 66.4,50.9 67.9,51.2 69.4,51.7 70.8,52.2 72.2,52.7 73.5,53.4 74.7,54.2 75.8,55.1 76.7,56.1 77.3,57.3 77.7,58.6 77.9,60" />
<path stroke="#000000" stroke-width="2" d="M 77.9,60 79.8,62.1 81.1,64.1 81.9,65.7 82.2,67.2 82.1,68.4 81.6,69.5 80.9,70.2 80,70.8 79,71.1 77.9,71.2 76.8,71.1 75.7,70.8 74.8,70.2 74.1,69.5 73.6,68.4 73.5,67.2 73.9,65.7 74.6,64 75.9,62.1 77.9,60" />
<path stroke="#000000" stroke-width="2" d="M 77.9,60 77.9,59.9 77.9,59.7 77.9,59.4 78,59 78.2,58.4 78.4,57.8 78.7,57.2 79.1,56.5 79.7,55.7 80.4,55 81.2,54.3 82.2,53.5 83.4,52.8 84.7,52.2 86.3,51.6 88.1,51 90.1,50.6 92.4,50.3 95,50.1 97.9,50 117.9,50 118.7,50 119.6,50.1 120.5,50.2 121.3,50.5 122.1,50.8 122.9,51.1 123.7,51.6 124.4,52.1 125.1,52.6 125.7,53.2 126.2,53.9 126.7,54.6 127.2,55.4 127.5,56.2 127.8,57 128.1,57.8 128.2,58.7 128.3,59.6 128.3,60.4 128.2,61.3 128.1,62.2 127.8,63 127.5,63.8 127.2,64.6 126.7,65.4 126.2,66.1 125.7,66.7 125.1,67.4 124.4,67.9 123.7,68.4 122.9,68.9 122.1,69.2 121.3,69.5 120.5,69.8 119.6,69.9 118.7,70" />
</svg>