<svg xmlns="http://www.w3.org/2000/svg" width="113.37586853269093" height="90.48879532511287" style="fill:none; stroke-linecap:round;">
    <rect width="100%" height="100%" fill="#FFFFFF" />
<path stroke="#000000" stroke-width="2" d="M 75,75" />
<path stroke="#000000" stroke-width="2" d="M 20,38 25.7,32.3 25.7,52.3" />
<path stroke="#000000" stroke-width="2" d="M 25.7,42.3" />
<path stroke="#000000" stroke-width="2" d="M 21.7,42.3 29.7,42.3 29.7,46.3 29.7,46.9 29.7,47.4 29.8,47.9 29.9,48.4 30.1,48.9 30.3,49.4 30.6,49.8 30.9,50.3 31.2,50.7 31.6,51 32,51.4 32.4,51.7 32.9,51.9 33.4,52.1 33.8,52.3 34.4,52.5 34.9,52.6 35.4,52.6 35.9,52.6 36.4,52.6 36.9,52.5 37.5,52.3 37.9,52.1 38.4,51.9 38.9,51.7 39.3,51.4 39.7,51 40.1,50.7 40.4,50.3 40.7,49.8 41,49.4 41.2,48.9 41.4,48.4 41.5,47.9 41.6,47.4 41.6,46.9 41.6,41.9 41.6,61.9 41.6,61 41.7,60.1 41.9,59.3 42.1,58.4 42.4,57.6 42.8,56.8 43.2,56.1 43.7,55.3 44.3,54.7 44.9,54.1 45.5,53.5 46.3,53 47,52.6 47.8,52.2 48.6,51.9" />
<path stroke="#000000" stroke-width="2" d="M 55.3,70" />
<path stroke="#000000" stroke-width="2" d="M 55.3,50 59.1,59.2" />
<path stroke="#000000" stroke-width="2" d="M 59.1,59.2 61,61.4 62.4,63.3 63.1,65 63.4,66.4 63.3,67.7 62.9,68.7 62.2,69.5 61.3,70 60.2,70.4 59.1,70.5 58,70.4 57,70 56.1,69.5 55.3,68.7 54.9,67.7 54.8,66.4 55.1,65 55.9,63.3 57.2,61.4 59.1,59.2 62.9,50 82.9,50 83.8,50 84.7,50.1 85.5,50.2 86.4,50.5 87.2,50.8 88,51.1 88.8,51.6 89.5,52.1 90.1,52.6 90.8,53.2 91.3,53.9 91.8,54.6 92.3,55.4 92.6,56.2 92.9,57 93.1,57.8 93.3,58.7 93.4,59.6 93.4,60.4 93.3,61.3 93.1,62.2 92.9,63 92.6,63.8 92.3,64.6 91.8,65.4 91.3,66.1 90.8,66.7 90.1,67.4 89.5,67.9 88.8,68.4 88,68.9 87.2,69.2 86.4,69.5 85.5,69.8 84.7,69.9 83.8,70" />
</svg>