<svg xmlns="http://www.w3.org/2000/svg" width="115.94673265408031" height="101.86657839889165" style="fill:none; stroke-linecap:round;">
    <rect width="100%" height="100%" fill="#FFFFFF" />
<path stroke="#000000" stroke-width="2" d="M 75,75" />
<path stroke="#000000" stroke-width="2" d="M 20,38 25.7,32.3 25.7,52.3" />
<path stroke="#000000" stroke-width="2" d="M 25.7,42.3" />
<path stroke="#000000" stroke-width="2" d="M 21.7,42.3 29.7,42.3 29.7,46.3 29.7,46.9 29.7,47.4 29.8,47.9 29.9,48.4 30.1,48.9 30.3,49.4 30.6,49.8 30.9,50.3 31.2,50.7 31.6,51 32,51.4 32.4,51.7 32.9,51.9 33.4,52.1 33.8,52.3 34.4,52.5 34.9,52.6 35.4,52.6 35.9,52.6 36.4,52.6 36.9,52.5 37.5,52.3 37.9,52.1 38.4,51.9 38.9,51.7 39.3,51.4 39.7,51 40.1,50.7 40.4,50.3 40.7,49.8 41,49.4 41.2,48.9 41.4,48.4 41.5,47.9 41.6,47.4 41.6,46.9 41.6,41.9 41.6,61.9 41.6,81.9 41.6,75.9 41.6,75 41.7,74.1 41.9,73.3 42.1,72.4 42.4,71.6 42.8,70.8 43.2,70.1 43.7,69.3 44.3,68.7 44.9,68.1 45.5,67.5 46.3,67 47,66.6 47.8,66.2 48.6,65.9 49.5,65.7 50.3,65.5 51.2,65.4" />
<path stroke="#000000" stroke-width="2" d="M 57.9,70" />
<path stroke="#000000" stroke-width="2" d="M 57.9,50 61.7,59.2" />
<path stroke="#000000" stroke-width="2" d="M 61.7,59.2 63.6,61.4 64.9,63.3 65.7,65 66,66.4 65.9,67.7 65.5,68.7 64.8,69.5 63.9,70 62.8,70.4 61.7,70.5 60.6,70.4 59.5,70 58.6,69.5 57.9,68.7 57.5,67.7 57.4,66.4 57.7,65 58.5,63.3 59.8,61.4 61.7,59.2 65.5,50 85.5,50 86.4,50 87.3,50.1 88.1,50.2 89,50.5 89.8,50.8 90.6,51.1 91.3,51.6 92,52.1 92.7,52.6 93.3,53.2 93.9,53.9 94.4,54.6 94.8,55.4 95.2,56.2 95.5,57 95.7,57.8 95.9,58.7 95.9,59.6 95.9,60.4 95.9,61.3 95.7,62.2 95.5,63 95.2,63.8 94.8,64.6 94.4,65.4 93.9,66.1 93.3,66.7 92.7,67.4 92,67.9 91.3,68.4 90.6,68.9 89.8,69.2 89,69.5 88.1,69.8 87.3,69.9 86.4,70" />
</svg>