<svg xmlns="http://www.w3.org/2000/svg" width="81.47400396127026" height="88.47759065022574" style="fill:none; stroke-linecap:round;">
    <rect width="100%" height="100%" fill="#FFFFFF" />
<path stroke="#000000" stroke-width="2" d="M 75,75" />
<path stroke="#000000" stroke-width="2" d="M 20,50 27.7,31.5 35.3,50" />
<path stroke="#000000" stroke-width="2" d="M 35.3,40" />
<path stroke="#000000" stroke-width="2" d="M 19.3,40 37.3,40" />
<path stroke="#000000" stroke-width="2" d="M 37.3,40 38.7,40.1 40,40.6 41.1,41.2 42.1,42.1 42.9,43.1 43.6,44.3 44.1,45.6 44.5,47 44.7,48.5 44.8,50 44.7,51.5 44.5,53 44.1,54.4 43.6,55.7 42.9,56.9 42.1,57.9 41.1,58.8 40,59.4 38.7,59.9 37.3,60" />
<path stroke="#000000" stroke-width="2" d="M 51.5,70" />
<path stroke="#000000" stroke-width="2" d="M 61.5,50 53.8,68.5" />
</svg>