<svg xmlns="http://www.w3.org/2000/svg" width="134.58421767982665" height="90.0" style="fill:none; stroke-linecap:round;">
    <rect width="100%" height="100%" fill="#FFFFFF" />
<path stroke="#000000" stroke-width="2" d="M 75,75" />
<path stroke="#000000" stroke-width="2" d="M 20,70 35.3,33 50.6,70" />
<path stroke="#000000" stroke-width="2" d="M 43,51.5" />
<path stroke="#000000" stroke-width="2" d="M 19,51.5 55,51.5" />
<path stroke="#000000" stroke-width="2" d="M 61.6,70" />
<path stroke="#000000" stroke-width="2" d="M 61.6,50 69.3,68.5" />
<path stroke="#000000" stroke-width="2" d="M 75.9,70" />
<path stroke="#000000" stroke-width="2" d="M 75.9,50 75.9,70" />
<path stroke="#000000" stroke-width="2" d="M 82.6,70" />
<path stroke="#000000" stroke-width="2" d="M 82.6,30 82.6,31.4 82.7,32.8 83,34.2 83.3,35.5 83.8,36.8 84.4,38.1 85.1,39.3 85.9,40.4 86.8,41.5 87.8,42.5 88.9,43.4 90,44.2 91.2,44.9 92.5,45.5 93.8,46 95.1,46.3 96.5,46.6 97.9,46.7 99.3,46.7 100.7,46.6 102.1,46.3 103.4,46 104.7,45.5 106,44.9 107.2,44.2 108.3,43.4 109.4,42.5 110.4,41.5 111.3,40.4 112.1,39.3 112.8,38.1 113.4,36.8 113.9,35.5 114.2,34.2 114.5,32.8 114.6,31.4" />
</svg>