<svg xmlns="http://www.w3.org/2000/svg" width="76.01076758403948" height="90.0" style="fill:none; stroke-linecap:round;">
    <rect width="100%" height="100%" fill="#FFFFFF" />
<path stroke="#000000" stroke-width="2" d="M 75,75" />
<path stroke="#000000" stroke-width="2" d="M 20,30 20,70" />
<path stroke="#000000" stroke-width="2" d="M 26.7,70" />
<path stroke="#000000" stroke-width="2" d="M 36.7,20 29,38.5 21.4,57 21.4,57.7 21.4,58.3 21.5,59 21.7,59.7 22,60.4 22.3,61 22.6,61.6 23,62.2 23.5,62.7 23.9,63.2 24.5,63.7 25.1,64.1 25.7,64.4 26.3,64.7 26.9,64.9 27.6,65.1 28.3,65.2 29,65.3 29.7,65.3 30.4,65.2 31.1,65.1 31.8,64.9 32.4,64.7 33,64.4 33.7,64.1 34.2,63.7 34.8,63.2 35.2,62.7 35.7,62.2 36.1,61.6 36.4,61 36.7,60.4 37,59.7 37.2,59 37.3,58.3 37.3,57.7" />
<path stroke="#000000" stroke-width="2" d="M 44,70" />
<path stroke="#000000" stroke-width="2" d="M 52,20 52,35" />
<path stroke="#000000" stroke-width="2" d="M 52,35 51.9,37 51.6,38.6 51.2,39.9 50.6,40.8 49.9,41.3 49.2,41.6 48.4,41.7 47.7,41.5 47,41.1 46.4,40.6 45.9,40 45.5,39.3 45.4,38.6 45.4,37.8 45.7,37.1 46.3,36.4 47.1,35.9 48.4,35.4 50,35.1 52,35" />
<path stroke="#000000" stroke-width="2" d="M 52,27" />
<path stroke="#000000" stroke-width="2" d="M 48,27 56,27" />
</svg>