<svg xmlns="http://www.w3.org/2000/svg" width="76.9977695646746" height="90.0" style="fill:none; stroke-linecap:round;">
    <rect width="100%" height="100%" fill="#FFFFFF" />
<path stroke="#000000" stroke-width="2" d="M 75,75" />
<path stroke="#000000" stroke-width="2" d="M 20,30 20,70" />
<path stroke="#000000" stroke-width="2" d="M 26.7,70" />
<path stroke="#000000" stroke-width="2" d="M 36.7,20 29,38.5 29,39.2 29.1,39.9 29.2,40.6 29.4,41.2 29.6,41.9 29.9,42.5 30.3,43.1 30.7,43.7 31.1,44.2 31.6,44.7 32.1,45.2 32.7,45.6 33.3,45.9 33.9,46.2 34.6,46.5 35.3,46.6 36,46.8 36.7,46.8 37.4,46.8 38,46.8 38.7,46.6 39.4,46.5 40.1,46.2 40.7,45.9 41.3,45.6 41.9,45.2 42.4,44.7 42.9,44.2 43.4,43.7 43.8,43.1 44.1,42.5 44.4,41.9 44.6,41.2 44.8,40.6 44.9,39.9 45,39.2 45,54.2" />
<path stroke="#000000" stroke-width="2" d="M 45,54.2 44.9,56.2 44.6,57.8 44.1,59.1 43.6,59.9 42.9,60.5 42.2,60.8 41.4,60.8 40.7,60.7 40,60.3 39.4,59.8 38.9,59.2 38.5,58.5 38.3,57.8 38.4,57 38.7,56.3 39.2,55.6 40.1,55 41.4,54.6 43,54.3 45,54.2" />
<path stroke="#000000" stroke-width="2" d="M 45,46.2" />
<path stroke="#000000" stroke-width="2" d="M 37,46.2 57,46.2" />
</svg>