<svg xmlns="http://www.w3.org/2000/svg" width="59.78666469201483" height="90.0" style="fill:none; stroke-linecap:round;">
    <rect width="100%" height="100%" fill="#FFFFFF" />
<path stroke="#000000" stroke-width="2" d="M 75,75" />
<path stroke="#000000" stroke-width="2" d="M 20,30 20,70" />
<path stroke="#000000" stroke-width="2" d="M 26.7,70" />
<path stroke="#000000" stroke-width="2" d="M 36.7,30 35.8,30 34.9,30.1 34.1,30.2 33.2,30.5 32.4,30.8 31.6,31.1 30.9,31.6 30.1,32.1 29.5,32.6 28.9,33.2 28.3,33.9 27.8,34.6 27.4,35.4 27,36.2 26.7,37 26.5,37.8 26.3,38.7 26.2,39.6 26.2,40.4 26.3,41.3 26.5,42.2 26.7,43 27,43.8 27.4,44.6 27.8,45.4 28.3,46.1 28.9,46.7 29.5,47.4 30.1,47.9 30.9,48.4 31.6,48.9 32.4,49.2 33.2,49.5 34.1,49.8 34.9,49.9 35.8,50 35.8,70 25.8,70" />
<path stroke="#000000" stroke-width="2" d="M 25.8,56" />
<path stroke="#000000" stroke-width="2" d="M 31.8,56 31.8,56.3 31.8,56.7 31.9,57 32,57.4 32.1,57.7 32.2,58 32.4,58.3 32.6,58.6 32.8,58.9 33.1,59.1 33.4,59.3 33.6,59.5 33.9,59.7 34.3,59.9 34.6,60 34.9,60.1 35.3,60.1 35.6,60.2 36,60.2 36.3,60.1 36.7,60.1 37,60 37.3,59.9 37.6,59.7 37.9,59.5 38.2,59.3 38.5,59.1 38.7,58.9 39,58.6 39.2,58.3 39.3,58 39.5,57.7 39.6,57.4 39.7,57 39.8,56.7 39.8,56.3" />
</svg>