<svg xmlns="http://www.w3.org/2000/svg" width="67.63844019261154" height="91.18670552295825" style="fill:none; stroke-linecap:round;">
    <rect width="100%" height="100%" fill="#FFFFFF" />
<path stroke="#000000" stroke-width="2" d="M 75,75" />
<path stroke="#000000" stroke-width="2" d="M 20,30 20,50 20,50.7 20.1,51.4 20.2,52.1 20.4,52.8 20.6,53.4 20.9,54 21.2,54.6 21.6,55.2 22.1,55.8 22.6,56.2 23.1,56.7 23.7,57.1 24.3,57.4 24.9,57.7 25.6,58 26.3,58.2 26.9,58.3 27.6,58.3 28.3,58.3 29,58.3 29.7,58.2 30.4,58 31.1,57.7 31.7,57.4 32.3,57.1 32.9,56.7 33.4,56.2 33.9,55.8 34.3,55.2 34.7,54.6 35.1,54 35.4,53.4 35.6,52.8 35.8,52.1 35.9,51.4 36,50.7 39.8,59.9" />
<path stroke="#000000" stroke-width="2" d="M 39.8,59.9 41.7,62.1 43.1,64 43.8,65.7 44.1,67.1 44,68.4 43.6,69.4 42.9,70.2 42,70.7 40.9,71.1 39.8,71.2 38.7,71.1 37.7,70.7 36.7,70.2 36,69.4 35.6,68.4 35.5,67.1 35.8,65.7 36.6,64 37.9,62.1 39.8,59.9 43.6,50.7" />
<path stroke="#000000" stroke-width="2" d="M 43.6,58.7" />
<path stroke="#000000" stroke-width="2" d="M 33.6,58.7 47.6,58.7" />
</svg>