<svg xmlns="http://www.w3.org/2000/svg" width="76.20572655414159" height="94.30208980215463" style="fill:none; stroke-linecap:round;">
    <rect width="100%" height="100%" fill="#FFFFFF" />
<path stroke="#000000" stroke-width="2" d="M 75,75" />
<path stroke="#000000" stroke-width="2" d="M 25,30 20,30 20,50" />
<path stroke="#000000" stroke-width="2" d="M 20,40" />
<path stroke="#000000" stroke-width="2" d="M 16,40 24,40 24.3,40.3 24.6,40.6 25,40.8 25.4,41.1 25.8,41.2 26.2,41.4 26.6,41.5 27,41.6 27.5,41.6 27.9,41.6 28.3,41.6 28.8,41.5 29.2,41.4 29.6,41.2 30,41.1 30.4,40.8 30.7,40.6 31.1,40.3 31.4,40 31.7,39.7 31.9,39.3 32.1,38.9 32.3,38.5 32.5,38.1 32.6,37.7 32.6,37.3 32.7,36.8 32.7,36.4 32.6,36 32.6,35.5 32.5,35.1 32.3,34.7 32.1,34.3 31.9,33.9 31.7,33.6 31.4,33.2 31.1,32.9 30.7,32.7 30.4,32.4 30,32.2 29.6,32 29.2,31.9 28.8,31.7 28.3,31.7 27.9,31.6 27.5,31.6 27,31.7 26.6,31.7 26.2,31.9 25.8,32 25.4,32.2 25,32.4 24.6,32.7 24.3,32.9 24,33.2 23.7,33.6 23.5,33.9 23.3,34.3 23.1,34.7 22.9,35.1 22.8,35.5 22.7,36 22.7,36.4 22.7,36.8 22.7,37.3 22.8,37.7 22.9,38.1 23.1,38.5 23.3,38.9 23.5,39.3 23.7,39.7 24,40 24,55 24,54.3 24.1,53.6 24.2,52.9 24.4,52.2 24.6,51.6 24.9,51 25.2,50.4 25.6,49.8 26.1,49.2 26.6,48.8 27.1,48.3 27.7,47.9 28.3,47.6 28.9,47.3 29.6,47 30.3,46.8 30.9,46.7 31.6,46.7 32.3,46.7 33,46.7 33.7,46.8 34.4,47 35.1,47.3 35.7,47.6 36.3,47.9 36.9,48.3 37.4,48.8 37.9,49.2 38.3,49.8 38.7,50.4 39.1,51 39.4,51.6 39.6,52.2 39.8,52.9 39.9,53.6 40,54.3 40,74.3 40,68.3 40,67.4 40.1,66.6 40.2,65.7 40.4,64.9 40.7,64 41.1,63.2 41.5,62.5 42,61.8 42.6,61.1 43.2,60.5 43.9,59.9 44.6,59.4 45.4,59 46.1,58.6 47,58.3 47.8,58.1 48.7,58 49.5,57.9" />
<path stroke="#000000" stroke-width="2" d="M 56.2,70" />
<path stroke="#000000" stroke-width="2" d="M 56.2,30 56.2,70" />
</svg>