<svg xmlns="http://www.w3.org/2000/svg" width="66.21496112529324" height="115.0" style="fill:none; stroke-linecap:round;">
    <rect width="100%" height="100%" fill="#FFFFFF" />
<path stroke="#000000" stroke-width="2" d="M 75,75" />
<path stroke="#000000" stroke-width="2" d="M 25,30 20,30 20,50" />
<path stroke="#000000" stroke-width="2" d="M 20,40" />
<path stroke="#000000" stroke-width="2" d="M 16,40 24,40 24.3,40.3 24.6,40.6 25,40.8 25.4,41.1 25.8,41.2 26.2,41.4 26.6,41.5 27,41.6 27.5,41.6 27.9,41.6 28.3,41.6 28.8,41.5 29.2,41.4 29.6,41.2 30,41.1 30.4,40.8 30.7,40.6 31.1,40.3 31.4,40 31.7,39.7 31.9,39.3 32.1,38.9 32.3,38.5 32.5,38.1 32.6,37.7 32.6,37.3 32.7,36.8 32.7,36.4 32.6,36 32.6,35.5 32.5,35.1 32.3,34.7 32.1,34.3 31.9,33.9 31.7,33.6 31.4,33.2 31.1,32.9 30.7,32.7 30.4,32.4 30,32.2 29.6,32 29.2,31.9 28.8,31.7 28.3,31.7 27.9,31.6 27.5,31.6 27,31.7 26.6,31.7 26.2,31.9 25.8,32 25.4,32.2 25,32.4 24.6,32.7 24.3,32.9 24,33.2 23.7,33.6 23.5,33.9 23.3,34.3 23.1,34.7 22.9,35.1 22.8,35.5 22.7,36 22.7,36.4 22.7,36.8 22.7,37.3 22.8,37.7 22.9,38.1 23.1,38.5 23.3,38.9 23.5,39.3 23.7,39.7 24,40 24,55 19,55 19,75 19,95 19,89 19,88.1 19.1,87.3 19.2,86.4 19.5,85.6 19.8,84.7 20.1,83.9 20.6,83.2 21.1,82.5 21.6,81.8 22.2,81.2 22.9,80.6 23.6,80.1 24.4,79.7 25.2,79.3 26,79 26.8,78.8 27.7,78.6 28.6,78.6" />
<path stroke="#000000" stroke-width="2" d="M 39.3,70" />
<path stroke="#000000" stroke-width="2" d="M 39.3,30 39.3,50" />
<path stroke="#000000" stroke-width="2" d="M 46,70" />
<path stroke="#000000" stroke-width="2" d="M 46,20 46.2,20 46.2,20.2 46,20.2 46,20" />
</svg>