<svg xmlns="http://www.w3.org/2000/svg" width="83.51810487864304" height="70.0" style="fill:none; stroke-linecap:round;">
    <rect width="100%" height="100%" fill="#FFFFFF" />
<path stroke="#000000" stroke-width="2" d="M 75,75" />
<path stroke="#000000" stroke-width="2" d="M 25,30 20,30 20,50" />
<path stroke="#000000" stroke-width="2" d="M 20,40" />
<path stroke="#000000" stroke-width="2" d="M 16,40 24,40 24,40.7 24.1,41.4 24.2,42.1 24.4,42.8 24.6,43.4 24.9,44 25.2,44.6 25.6,45.2 26.1,45.8 26.6,46.2 27.1,46.7 27.7,47.1 28.3,47.4 28.9,47.7 29.6,48 30.3,48.2 30.9,48.3 31.6,48.3 32.3,48.3 33,48.3 33.7,48.2 34.4,48 35.1,47.7 35.7,47.4 36.3,47.1 36.9,46.7 37.4,46.2 37.9,45.8 38.3,45.2 38.7,44.6 39.1,44 39.4,43.4 39.6,42.8 39.8,42.1 39.9,41.4 40,40.7" />
<path stroke="#000000" stroke-width="2" d="M 46.7,70" />
<path stroke="#000000" stroke-width="2" d="M 56.7,20 49,38.5" />
<path stroke="#000000" stroke-width="2" d="M 63.3,70" />
<path stroke="#000000" stroke-width="2" d="M 63.3,20 63.5,20 63.5,20.2 63.3,20.2 63.3,20" />
</svg>