<svg xmlns="http://www.w3.org/2000/svg" width="76.20572655414159" height="94.30208980215463" style="fill:none; stroke-linecap:round;">
    <rect width="100%" height="100%" fill="#FFFFFF" />
<path stroke="#000000" stroke-width="2" d="M 75,75" />
<path stroke="#000000" stroke-width="2" d="M 25,30 20,30 20,50" />
<path stroke="#000000" stroke-width="2" d="M 20,40" />
<path stroke="#000000" stroke-width="2" d="M 16,40 24,40" />
<path stroke="#000000" stroke-width="2" d="M 24,40 26,39.9 27.6,39.6 28.9,39.1 29.8,38.6 30.3,37.9 30.6,37.2 30.7,36.4 30.5,35.7 30.1,35 29.6,34.4 29,33.9 28.3,33.5 27.6,33.3 26.8,33.4 26.1,33.7 25.4,34.2 24.9,35.1 24.4,36.4 24.1,38 24,40 24,55 24,54.3 24.1,53.6 24.2,52.9 24.4,52.2 24.6,51.6 24.9,51 25.2,50.4 25.6,49.8 26.1,49.2 26.6,48.8 27.1,48.3 27.7,47.9 28.3,47.6 28.9,47.3 29.6,47 30.3,46.8 30.9,46.7 31.6,46.7 32.3,46.7 33,46.7 33.7,46.8 34.4,47 35.1,47.3 35.7,47.6 36.3,47.9 36.9,48.3 37.4,48.8 37.9,49.2 38.3,49.8 38.7,50.4 39.1,51 39.4,51.6 39.6,52.2 39.8,52.9 39.9,53.6 40,54.3 40,74.3 40,68.3 40,67.4 40.1,66.6 40.2,65.7 40.4,64.9 40.7,64 41.1,63.2 41.5,62.5 42,61.8 42.6,61.1 43.2,60.5 43.9,59.9 44.6,59.4 45.4,59 46.1,58.6 47,58.3 47.8,58.1 48.7,58 49.5,57.9" />
<path stroke="#000000" stroke-width="2" d="M 56.2,70" />
<path stroke="#000000" stroke-width="2" d="M 56.2,30 56.2,70" />
</svg>