<svg xmlns="http://www.w3.org/2000/svg" width="125.90202782814362" height="78.34134087157756" style="fill:none; stroke-linecap:round;">
    <rect width="100%" height="100%" fill="#FFFFFF" />
<path stroke="#000000" stroke-width="2" d="M 75,75" />
<path stroke="#000000" stroke-width="2" d="M 25,30 20,30 20,50 20,50.7 20.1,51.4 20.2,52.1 20.4,52.8 20.6,53.4 20.9,54 21.2,54.6 21.6,55.2 22.1,55.8 22.6,56.2 23.1,56.7 23.7,57.1 24.3,57.4 24.9,57.7 25.6,58 26.3,58.2 26.9,58.3 27.6,58.3 28.3,58.3 29,58.3 29.7,58.2 30.4,58 31.1,57.7 31.7,57.4 32.3,57.1 32.9,56.7 33.4,56.2 33.9,55.8 34.3,55.2 34.7,54.6 35.1,54 35.4,53.4 35.6,52.8 35.8,52.1 35.9,51.4 36,50.7" />
<path stroke="#000000" stroke-width="2" d="M 42.7,70" />
<path stroke="#000000" stroke-width="2" d="M 42.7,20 62.7,20 62.7,20.7 62.7,21.4 62.8,22.1 63,22.8 63.3,23.4 63.5,24 63.9,24.6 64.3,25.2 64.7,25.8 65.2,26.2 65.8,26.7 66.3,27.1 66.9,27.4 67.6,27.7 68.2,28 68.9,28.2 69.6,28.3 70.3,28.3 71,28.3 71.7,28.3 72.4,28.2 73,28 73.7,27.7 74.3,27.4 74.9,27.1 75.5,26.7 76,26.2 76.5,25.8 77,25.2 77.4,24.6 77.7,24 78,23.4 78.3,22.8 78.5,22.1 78.6,21.4 78.6,20.7" />
<path stroke="#000000" stroke-width="2" d="M 85.3,70" />
<path stroke="#000000" stroke-width="2" d="M 85.3,20 105.3,20 99.6,25.7 100.2,25.7 100.7,25.7 101.2,25.8 101.7,25.9 102.2,26.1 102.7,26.3 103.1,26.6 103.6,26.9 104,27.2 104.3,27.6 104.7,28 105,28.4 105.2,28.9 105.5,29.4 105.6,29.8 105.8,30.4 105.9,30.9 105.9,31.4 105.9,31.9 105.9,32.4 105.8,32.9 105.6,33.5 105.5,33.9 105.2,34.4 105,34.9 104.7,35.3 104.3,35.7 104,36.1 103.6,36.4 103.1,36.7 102.7,37 102.2,37.2 101.7,37.4 101.2,37.5 100.7,37.6 100.2,37.6" />
</svg>