<svg xmlns="http://www.w3.org/2000/svg" width="102.85244833875308" height="89.79898987322333" style="fill:none; stroke-linecap:round;">
    <rect width="100%" height="100%" fill="#FFFFFF" />
<path stroke="#000000" stroke-width="2" d="M 75,75" />
<path stroke="#000000" stroke-width="2" d="M 20,38 20,37.3 20.1,36.6 20.2,35.9 20.4,35.2 20.6,34.6 20.9,34 21.2,33.4 21.6,32.8 22.1,32.2 22.6,31.8 23.1,31.3 23.7,30.9 24.3,30.6 24.9,30.3 25.6,30 26.3,29.8 26.9,29.7 27.6,29.7 28.3,29.7 29,29.7 29.7,29.8 30.4,30 31.1,30.3 31.7,30.6 32.3,30.9 32.9,31.3 33.4,31.8 33.9,32.2 34.3,32.8 34.7,33.4 35.1,34 35.4,34.6 35.6,35.2 35.8,35.9 35.9,36.6 36,37.3" />
<path stroke="#000000" stroke-width="2" d="M 36,33.3" />
<path stroke="#000000" stroke-width="2" d="M 30,33.3 46,33.3" />
<path stroke="#000000" stroke-width="2" d="M 46,33.3 45.9,35.3 45.6,36.9 45.1,38.2 44.5,39.1 43.9,39.6 43.1,39.9 42.4,40 41.7,39.8 41,39.4 40.4,38.9 39.9,38.3 39.5,37.6 39.3,36.9 39.4,36.1 39.7,35.4 40.2,34.7 41.1,34.2 42.3,33.7 44,33.4 46,33.3 56,33.3" />
<path stroke="#000000" stroke-width="2" d="M 62.7,70" />
<path stroke="#000000" stroke-width="2" d="M 62.7,50 82.7,50 62.9,69.8 82.9,69.8" />
</svg>