<svg xmlns="http://www.w3.org/2000/svg" width="91.31783754924605" height="107.77968045238036" style="fill:none; stroke-linecap:round;">
    <rect width="100%" height="100%" fill="#FFFFFF" />
<path stroke="#000000" stroke-width="2" d="M 75,75" />
<path stroke="#000000" stroke-width="2" d="M 20,50 20,49.3 20.1,48.6 20.2,47.9 20.4,47.2 20.6,46.6 20.9,46 21.2,45.4 21.6,44.8 22.1,44.2 22.6,43.8 23.1,43.3 23.7,42.9 24.3,42.6 24.9,42.3 25.6,42 26.3,41.8 26.9,41.7 27.6,41.7 28.3,41.7 29,41.7 29.7,41.8 30.4,42 31.1,42.3 31.7,42.6 32.3,42.9 32.9,43.3 33.4,43.8 33.9,44.2 34.3,44.8 34.7,45.4 35.1,46 35.4,46.6 35.6,47.2 35.8,47.9 35.9,48.6 36,49.3" />
<path stroke="#000000" stroke-width="2" d="M 36,45.3" />
<path stroke="#000000" stroke-width="2" d="M 30,45.3 40,45.3 40.3,45.6 40.6,45.9 41,46.1 41.4,46.4 41.8,46.5 42.2,46.7 42.6,46.8 43,46.9 43.5,46.9 43.9,46.9 44.3,46.9 44.8,46.8 45.2,46.7 45.6,46.5 46,46.4 46.4,46.1 46.7,45.9 47,45.6 47.4,45.3 47.6,45 47.9,44.6 48.1,44.2 48.3,43.8 48.4,43.4 48.6,43 48.6,42.6 48.7,42.1 48.7,41.7 48.6,41.3 48.6,40.8 48.4,40.4 48.3,40 48.1,39.6 47.9,39.2 47.6,38.9 47.4,38.5 47,38.2 46.7,38 46.4,37.7 46,37.5 45.6,37.3 45.2,37.2 44.8,37 44.3,37 43.9,36.9 43.5,36.9 43,37 42.6,37 42.2,37.2 41.8,37.3 41.4,37.5 41,37.7 40.6,38 40.3,38.2 40,38.5 39.7,38.9 39.5,39.2 39.2,39.6 39.1,40 38.9,40.4 38.8,40.8 38.7,41.3 38.7,41.7 38.7,42.1 38.7,42.6 38.8,43 38.9,43.4 39.1,43.8 39.2,44.2 39.5,44.6 39.7,45 40,45.3 40,60.3 32.3,78.8 34.6,73.2 35,72.4 35.4,71.7 35.8,70.9 36.4,70.2 37,69.6 37.6,69 38.3,68.5 39,68 39.8,67.6 40.6,67.3 41.4,67 42.3,66.8" />
<path stroke="#000000" stroke-width="2" d="M 55.3,70" />
<path stroke="#000000" stroke-width="2" d="M 55.3,70 55.3,69.3 55.4,68.6 55.5,67.9 55.7,67.2 55.9,66.6 56.2,66 56.6,65.4 57,64.8 57.4,64.2 57.9,63.8 58.5,63.3 59,62.9 59.6,62.6 60.3,62.3 60.9,62 61.6,61.8 62.3,61.7 63,61.7 63.7,61.7 64.4,61.7 65.1,61.8 65.7,62 66.4,62.3 67,62.6 67.6,62.9 68.2,63.3 68.7,63.8 69.2,64.2 69.7,64.8 70.1,65.4 70.4,66 70.7,66.6 71,67.2 71.1,67.9 71.3,68.6 71.3,69.3 63.7,87.8" />
</svg>