<svg xmlns="http://www.w3.org/2000/svg" width="80.33306600393631" height="118.77968045238036" style="fill:none; stroke-linecap:round;">
    <rect width="100%" height="100%" fill="#FFFFFF" />
<path stroke="#000000" stroke-width="2" d="M 75,75" />
<path stroke="#000000" stroke-width="2" d="M 20,50 20,49.3 20.1,48.6 20.2,47.9 20.4,47.2 20.6,46.6 20.9,46 21.2,45.4 21.6,44.8 22.1,44.2 22.6,43.8 23.1,43.3 23.7,42.9 24.3,42.6 24.9,42.3 25.6,42 26.3,41.8 26.9,41.7 27.6,41.7 28.3,41.7 29,41.7 29.7,41.8 30.4,42 31.1,42.3 31.7,42.6 32.3,42.9 32.9,43.3 33.4,43.8 33.9,44.2 34.3,44.8 34.7,45.4 35.1,46 35.4,46.6 35.6,47.2 35.8,47.9 35.9,48.6 36,49.3" />
<path stroke="#000000" stroke-width="2" d="M 36,45.3" />
<path stroke="#000000" stroke-width="2" d="M 30,45.3 40,45.3 40.3,45.6 40.6,45.9 41,46.1 41.4,46.4 41.8,46.5 42.2,46.7 42.6,46.8 43,46.9 43.5,46.9 43.9,46.9 44.3,46.9 44.8,46.8 45.2,46.7 45.6,46.5 46,46.4 46.4,46.1 46.7,45.9 47,45.6 47.4,45.3 47.6,45 47.9,44.6 48.1,44.2 48.3,43.8 48.4,43.4 48.6,43 48.6,42.6 48.7,42.1 48.7,41.7 48.6,41.3 48.6,40.8 48.4,40.4 48.3,40 48.1,39.6 47.9,39.2 47.6,38.9 47.4,38.5 47,38.2 46.7,38 46.4,37.7 46,37.5 45.6,37.3 45.2,37.2 44.8,37 44.3,37 43.9,36.9 43.5,36.9 43,37 42.6,37 42.2,37.2 41.8,37.3 41.4,37.5 41,37.7 40.6,38 40.3,38.2 40,38.5 39.7,38.9 39.5,39.2 39.2,39.6 39.1,40 38.9,40.4 38.8,40.8 38.7,41.3 38.7,41.7 38.7,42.1 38.7,42.6 38.8,43 38.9,43.4 39.1,43.8 39.2,44.2 39.5,44.6 39.7,45 40,45.3 40,60.3 32.3,78.8 32.3,98.8 32.3,92.8 32.3,91.9 32.4,91 32.6,90.2 32.8,89.3 33.1,88.5 33.5,87.7 33.9,87 34.4,86.3 34.9,85.6 35.6,85 36.2,84.4 36.9,83.9 37.7,83.5 38.5,83.1 39.3,82.8 40.2,82.6 41,82.4 41.9,82.4" />
<path stroke="#000000" stroke-width="2" d="M 55.3,70" />
<path stroke="#000000" stroke-width="2" d="M 60.3,50 55.3,50 55.3,70 47.7,88.5" />
</svg>