<svg xmlns="http://www.w3.org/2000/svg" width="95.29058475728615" height="95.77968045238036" style="fill:none; stroke-linecap:round;">
    <rect width="100%" height="100%" fill="#FFFFFF" />
<path stroke="#000000" stroke-width="2" d="M 75,75" />
<path stroke="#000000" stroke-width="2" d="M 20,38 20,37.3 20.1,36.6 20.2,35.9 20.4,35.2 20.6,34.6 20.9,34 21.2,33.4 21.6,32.8 22.1,32.2 22.6,31.8 23.1,31.3 23.7,30.9 24.3,30.6 24.9,30.3 25.6,30 26.3,29.8 26.9,29.7 27.6,29.7 28.3,29.7 29,29.7 29.7,29.8 30.4,30 31.1,30.3 31.7,30.6 32.3,30.9 32.9,31.3 33.4,31.8 33.9,32.2 34.3,32.8 34.7,33.4 35.1,34 35.4,34.6 35.6,35.2 35.8,35.9 35.9,36.6 36,37.3" />
<path stroke="#000000" stroke-width="2" d="M 36,33.3" />
<path stroke="#000000" stroke-width="2" d="M 30,33.3 46,33.3" />
<path stroke="#000000" stroke-width="2" d="M 46,33.3 48,33.2 49.6,32.9 50.9,32.4 51.7,31.9 52.3,31.2 52.6,30.5 52.6,29.7 52.5,29 52.1,28.3 51.6,27.7 51,27.2 50.3,26.8 49.6,26.6 48.8,26.7 48.1,27 47.4,27.5 46.8,28.4 46.4,29.7 46.1,31.3 46,33.3 46,48.3 38.3,66.8 40.6,61.2 41,60.4 41.4,59.7 41.8,58.9 42.4,58.2 43,57.6 43.6,57 44.3,56.5 45,56 45.8,55.6 46.6,55.3 47.4,55 48.3,54.8" />
<path stroke="#000000" stroke-width="2" d="M 59.3,70" />
<path stroke="#000000" stroke-width="2" d="M 59.3,58 59.3,57.3 59.4,56.6 59.5,55.9 59.7,55.2 59.9,54.6 60.2,54 60.6,53.4 61,52.8 61.4,52.2 61.9,51.8 62.4,51.3 63,50.9 63.6,50.6 64.2,50.3 64.9,50 65.6,49.8 66.3,49.7 66.9,49.7 67.6,49.7 68.3,49.7 69,49.8 69.7,50 70.4,50.3 71,50.6 71.6,50.9 72.2,51.3 72.7,51.8 73.2,52.2 73.6,52.8 74,53.4 74.4,54 74.7,54.6 74.9,55.2 75.1,55.9 75.2,56.6 75.3,57.3 67.6,75.8" />
</svg>