<svg xmlns="http://www.w3.org/2000/svg" width="89.29058475728614" height="107.77968045238036" style="fill:none; stroke-linecap:round;">
    <rect width="100%" height="100%" fill="#FFFFFF" />
<path stroke="#000000" stroke-width="2" d="M 75,75" />
<path stroke="#000000" stroke-width="2" d="M 20,50 20,49.3 20.1,48.6 20.2,47.9 20.4,47.2 20.6,46.6 20.9,46 21.2,45.4 21.6,44.8 22.1,44.2 22.6,43.8 23.1,43.3 23.7,42.9 24.3,42.6 24.9,42.3 25.6,42 26.3,41.8 26.9,41.7 27.6,41.7 28.3,41.7 29,41.7 29.7,41.8 30.4,42 31.1,42.3 31.7,42.6 32.3,42.9 32.9,43.3 33.4,43.8 33.9,44.2 34.3,44.8 34.7,45.4 35.1,46 35.4,46.6 35.6,47.2 35.8,47.9 35.9,48.6 36,49.3" />
<path stroke="#000000" stroke-width="2" d="M 36,45.3" />
<path stroke="#000000" stroke-width="2" d="M 30,45.3 40,45.3" />
<path stroke="#000000" stroke-width="2" d="M 40,45.3 42,45.2 43.6,44.9 44.9,44.4 45.7,43.9 46.3,43.2 46.6,42.5 46.6,41.7 46.5,41 46.1,40.3 45.6,39.7 45,39.2 44.3,38.8 43.6,38.6 42.8,38.7 42.1,39 41.4,39.5 40.8,40.4 40.4,41.7 40.1,43.3 40,45.3 40,60.3 32.3,78.8 34.6,73.2 35,72.4 35.4,71.7 35.8,70.9 36.4,70.2 37,69.6 37.6,69 38.3,68.5 39,68 39.8,67.6 40.6,67.3 41.4,67 42.3,66.8" />
<path stroke="#000000" stroke-width="2" d="M 53.3,70" />
<path stroke="#000000" stroke-width="2" d="M 53.3,70 53.3,69.3 53.4,68.6 53.5,67.9 53.7,67.2 53.9,66.6 54.2,66 54.6,65.4 55,64.8 55.4,64.2 55.9,63.8 56.4,63.3 57,62.9 57.6,62.6 58.2,62.3 58.9,62 59.6,61.8 60.3,61.7 60.9,61.7 61.6,61.7 62.3,61.7 63,61.8 63.7,62 64.4,62.3 65,62.6 65.6,62.9 66.2,63.3 66.7,63.8 67.2,64.2 67.6,64.8 68,65.4 68.4,66 68.7,66.6 68.9,67.2 69.1,67.9 69.2,68.6 69.3,69.3 61.6,87.8" />
</svg>