<svg xmlns="http://www.w3.org/2000/svg" width="139.71432405873446" height="90.95646480215463" style="fill:none; stroke-linecap:round;">
    <rect width="100%" height="100%" fill="#FFFFFF" />
<path stroke="#000000" stroke-width="2" d="M 75,75" />
<path stroke="#000000" stroke-width="2" d="M 20,70 20,68.6 20.1,67.2 20.4,65.8 20.7,64.5 21.2,63.2 21.8,61.9 22.5,60.7 23.3,59.6 24.2,58.5 25.2,57.5 26.2,56.6 27.4,55.8 28.6,55.1 29.9,54.5 31.2,54 32.5,53.7 33.9,53.4 35.3,53.3 36.7,53.3 38.1,53.4 39.4,53.7 40.8,54 42.1,54.5 43.4,55.1 44.6,55.8 45.7,56.6 46.8,57.5 47.8,58.5 48.7,59.6 49.5,60.7 50.2,61.9 50.8,63.2 51.2,64.5 51.6,65.8 51.8,67.2 52,68.6" />
<path stroke="#000000" stroke-width="2" d="M 52,60.6" />
<path stroke="#000000" stroke-width="2" d="M 40,60.6 60,60.6" />
<path stroke="#000000" stroke-width="2" d="M 66.6,70" />
<path stroke="#000000" stroke-width="2" d="M 66.6,20 67.5,20 68.4,20.1 69.2,20.2 70.1,20.5 70.9,20.8 71.7,21.1 72.4,21.6 73.2,22.1 73.8,22.6 74.4,23.2 75,23.9 75.5,24.6 75.9,25.4 76.3,26.2 76.6,27 76.8,27.8 77,28.7 77.1,29.6 77.1,30.4 77,31.3 76.8,32.2 76.6,33 76.3,33.8 75.9,34.6 75.5,35.4 75,36.1 74.4,36.7 73.8,37.4 73.2,37.9 72.4,38.4 71.7,38.9 70.9,39.2 70.1,39.5 69.2,39.8 68.4,39.9 67.5,40" />
<path stroke="#000000" stroke-width="2" d="M 83.7,70" />
<path stroke="#000000" stroke-width="2" d="M 83.7,50 83.7,49.3 83.8,48.6 83.9,47.9 84.1,47.2 84.3,46.6 84.6,46 85,45.4 85.4,44.8 85.8,44.2 86.3,43.8 86.9,43.3 87.4,42.9 88,42.6 88.7,42.3 89.3,42 90,41.8 90.7,41.7 91.4,41.7 92.1,41.7 92.8,41.7 93.5,41.8 94.1,42 94.8,42.3 95.4,42.6 96,42.9 96.6,43.3 97.1,43.8 97.6,44.2 98.1,44.8 98.5,45.4 98.8,46 99.1,46.6 99.4,47.2 99.5,47.9 99.7,48.6 99.7,49.3 99.7,64.3" />
<path stroke="#000000" stroke-width="2" d="M 99.7,64.3 99.6,66.3 99.3,67.9 98.9,69.2 98.3,70.1 97.6,70.6 96.9,70.9 96.1,71 95.4,70.8 94.7,70.4 94.1,69.9 93.6,69.3 93.2,68.6 93.1,67.9 93.1,67.1 93.4,66.4 94,65.7 94.8,65.2 96.1,64.7 97.7,64.4 99.7,64.3 119.7,64.3" />
</svg>