<svg xmlns="http://www.w3.org/2000/svg" width="148.78764796926254" height="78.95646480215463" style="fill:none; stroke-linecap:round;">
    <rect width="100%" height="100%" fill="#FFFFFF" />
<path stroke="#000000" stroke-width="2" d="M 75,75" />
<path stroke="#000000" stroke-width="2" d="M 20,46 20,44.6 20.1,43.2 20.4,41.8 20.7,40.5 21.2,39.2 21.8,37.9 22.5,36.7 23.3,35.6 24.2,34.5 25.2,33.5 26.2,32.6 27.4,31.8 28.6,31.1 29.9,30.5 31.2,30 32.5,29.7 33.9,29.4 35.3,29.3 36.7,29.3 38.1,29.4 39.4,29.7 40.8,30 42.1,30.5 43.4,31.1 44.6,31.8 45.7,32.6 46.8,33.5 47.8,34.5 48.7,35.6 49.5,36.7 50.2,37.9 50.8,39.2 51.2,40.5 51.6,41.8 51.8,43.2 52,44.6" />
<path stroke="#000000" stroke-width="2" d="M 52,36.6" />
<path stroke="#000000" stroke-width="2" d="M 40,36.6 72,36.6" />
<path stroke="#000000" stroke-width="2" d="M 78.6,70" />
<path stroke="#000000" stroke-width="2" d="M 78.6,20" />
<path stroke="#000000" stroke-width="2" d="M 78.6,20 80.1,20.1 81.3,20.6 82.5,21.2 83.4,22.1 84.3,23.1 84.9,24.3 85.5,25.6 85.8,27 86.1,28.5 86.1,30 86.1,31.5 85.8,33 85.5,34.4 84.9,35.7 84.3,36.9 83.4,37.9 82.5,38.8 81.3,39.4 80.1,39.9 78.6,40" />
<path stroke="#000000" stroke-width="2" d="M 92.8,70" />
<path stroke="#000000" stroke-width="2" d="M 92.8,38 92.8,37.3 92.9,36.6 93,35.9 93.2,35.2 93.4,34.6 93.7,34 94,33.4 94.4,32.8 94.9,32.2 95.4,31.8 95.9,31.3 96.5,30.9 97.1,30.6 97.7,30.3 98.4,30 99.1,29.8 99.8,29.7 100.4,29.7 101.1,29.7 101.8,29.7 102.5,29.8 103.2,30 103.9,30.3 104.5,30.6 105.1,30.9 105.7,31.3 106.2,31.8 106.7,32.2 107.1,32.8 107.5,33.4 107.9,34 108.2,34.6 108.4,35.2 108.6,35.9 108.7,36.6 108.8,37.3 108.8,52.3" />
<path stroke="#000000" stroke-width="2" d="M 108.8,52.3 108.7,54.3 108.4,55.9 107.9,57.2 107.3,58.1 106.7,58.6 106,58.9 105.2,59 104.5,58.8 103.8,58.4 103.2,57.9 102.7,57.3 102.3,56.6 102.1,55.9 102.2,55.1 102.5,54.4 103,53.7 103.9,53.2 105.1,52.7 106.8,52.4 108.8,52.3 128.8,52.3" />
</svg>