<svg xmlns="http://www.w3.org/2000/svg" width="136.78764796926254" height="90.95646480215463" style="fill:none; stroke-linecap:round;">
    <rect width="100%" height="100%" fill="#FFFFFF" />
<path stroke="#000000" stroke-width="2" d="M 75,75" />
<path stroke="#000000" stroke-width="2" d="M 20,70 20,68.6 20.1,67.2 20.4,65.8 20.7,64.5 21.2,63.2 21.8,61.9 22.5,60.7 23.3,59.6 24.2,58.5 25.2,57.5 26.2,56.6 27.4,55.8 28.6,55.1 29.9,54.5 31.2,54 32.5,53.7 33.9,53.4 35.3,53.3 36.7,53.3 38.1,53.4 39.4,53.7 40.8,54 42.1,54.5 43.4,55.1 44.6,55.8 45.7,56.6 46.8,57.5 47.8,58.5 48.7,59.6 49.5,60.7 50.2,61.9 50.8,63.2 51.2,64.5 51.6,65.8 51.8,67.2 52,68.6" />
<path stroke="#000000" stroke-width="2" d="M 52,60.6" />
<path stroke="#000000" stroke-width="2" d="M 40,60.6 60,60.6" />
<path stroke="#000000" stroke-width="2" d="M 66.6,70" />
<path stroke="#000000" stroke-width="2" d="M 66.6,20" />
<path stroke="#000000" stroke-width="2" d="M 66.6,20 68.1,20.1 69.3,20.6 70.5,21.2 71.4,22.1 72.3,23.1 72.9,24.3 73.5,25.6 73.8,27 74.1,28.5 74.1,30 74.1,31.5 73.8,33 73.5,34.4 72.9,35.7 72.3,36.9 71.4,37.9 70.5,38.8 69.3,39.4 68.1,39.9 66.6,40" />
<path stroke="#000000" stroke-width="2" d="M 80.8,70" />
<path stroke="#000000" stroke-width="2" d="M 80.8,50 80.8,49.3 80.9,48.6 81,47.9 81.2,47.2 81.4,46.6 81.7,46 82,45.4 82.4,44.8 82.9,44.2 83.4,43.8 83.9,43.3 84.5,42.9 85.1,42.6 85.7,42.3 86.4,42 87.1,41.8 87.8,41.7 88.4,41.7 89.1,41.7 89.8,41.7 90.5,41.8 91.2,42 91.9,42.3 92.5,42.6 93.1,42.9 93.7,43.3 94.2,43.8 94.7,44.2 95.1,44.8 95.5,45.4 95.9,46 96.2,46.6 96.4,47.2 96.6,47.9 96.7,48.6 96.8,49.3 96.8,64.3" />
<path stroke="#000000" stroke-width="2" d="M 96.8,64.3 96.7,66.3 96.4,67.9 95.9,69.2 95.3,70.1 94.7,70.6 94,70.9 93.2,71 92.5,70.8 91.8,70.4 91.2,69.9 90.7,69.3 90.3,68.6 90.1,67.9 90.2,67.1 90.5,66.4 91,65.7 91.9,65.2 93.1,64.7 94.8,64.4 96.8,64.3 116.8,64.3" />
</svg>