<svg xmlns="http://www.w3.org/2000/svg" width="98.20572108064005" height="88.47759065022574" style="fill:none; stroke-linecap:round;">
    <rect width="100%" height="100%" fill="#FFFFFF" />
<path stroke="#000000" stroke-width="2" d="M 75,75" />
<path stroke="#000000" stroke-width="2" d="M 20,30 20.9,30 21.7,30.1 22.6,30.2 23.4,30.5 24.3,30.8 25.1,31.1 25.8,31.6 26.5,32.1 27.2,32.6 27.8,33.2 28.4,33.9 28.9,34.6 29.3,35.4 29.7,36.2 30,37 30.2,37.8 30.4,38.7 30.4,39.6 30.4,40.4 30.4,41.3 30.2,42.2 30,43 29.7,43.8 29.3,44.6 28.9,45.4 28.4,46.1 27.8,46.7 27.2,47.4 26.5,47.9 25.8,48.4 25.1,48.9 24.3,49.2 23.4,49.5 22.6,49.8 21.7,49.9 20.9,50" />
<path stroke="#000000" stroke-width="2" d="M 20.9,40" />
<path stroke="#000000" stroke-width="2" d="M 24.9,40 34.9,40 27.2,58.5" />
<path stroke="#000000" stroke-width="2" d="M 41.5,70" />
<path stroke="#000000" stroke-width="2" d="M 61.5,30 46.2,67" />
<path stroke="#000000" stroke-width="2" d="M 68.2,70" />
<path stroke="#000000" stroke-width="2" d="M 78.2,50 70.6,68.5" />
</svg>