<svg xmlns="http://www.w3.org/2000/svg" width="97.33333333333333" height="88.47759065022574" style="fill:none; stroke-linecap:round;">
    <rect width="100%" height="100%" fill="#FFFFFF" />
<path stroke="#000000" stroke-width="2" d="M 75,75" />
<path stroke="#000000" stroke-width="2" d="M 20,30" />
<path stroke="#000000" stroke-width="2" d="M 20,30 21.4,30.1 22.7,30.6 23.8,31.2 24.8,32.1 25.6,33.1 26.3,34.3 26.8,35.6 27.2,37 27.4,38.5 27.5,40 27.4,41.5 27.2,43 26.8,44.4 26.3,45.7 25.6,46.9 24.8,47.9 23.8,48.8 22.7,49.4 21.4,49.9 20,50" />
<path stroke="#000000" stroke-width="2" d="M 20,40" />
<path stroke="#000000" stroke-width="2" d="M 24,40 34,40 26.3,58.5" />
<path stroke="#000000" stroke-width="2" d="M 40.7,70" />
<path stroke="#000000" stroke-width="2" d="M 60.7,30 45.4,67" />
<path stroke="#000000" stroke-width="2" d="M 67.3,70" />
<path stroke="#000000" stroke-width="2" d="M 77.3,50 69.7,68.5" />
</svg>