<svg xmlns="http://www.w3.org/2000/svg" width="97.76000942280527" height="69.98096443163715" style="fill:none; stroke-linecap:round;">
    <rect width="100%" height="100%" fill="#FFFFFF" />
<path stroke="#000000" stroke-width="2" d="M 75,75" />
<path stroke="#000000" stroke-width="2" d="M 20,30 20.9,30 21.7,30.1 22.6,30.2 23.4,30.5 24.3,30.8 25.1,31.1 25.8,31.6 26.5,32.1 27.2,32.6 27.8,33.2 28.4,33.9 28.9,34.6 29.3,35.4 29.7,36.2 30,37 30.2,37.8 30.4,38.7 30.4,39.6 30.4,40.4 30.4,41.3 30.2,42.2 30,43 29.7,43.8 29.3,44.6 28.9,45.4 28.4,46.1 27.8,46.7 27.2,47.4 26.5,47.9 25.8,48.4 25.1,48.9 24.3,49.2 23.4,49.5 22.6,49.8 21.7,49.9 20.9,50" />
<path stroke="#000000" stroke-width="2" d="M 20.9,40" />
<path stroke="#000000" stroke-width="2" d="M 24.9,40 34.9,40" />
<path stroke="#000000" stroke-width="2" d="M 34.9,40 34.8,42 34.5,43.6 34,44.9 33.4,45.7 32.8,46.3 32,46.6 31.3,46.6 30.6,46.5 29.9,46.1 29.2,45.6 28.7,45 28.4,44.3 28.2,43.6 28.3,42.8 28.5,42.1 29.1,41.4 30,40.8 31.2,40.4 32.8,40.1 34.9,40 44.9,40" />
<path stroke="#000000" stroke-width="2" d="M 51.5,70" />
<path stroke="#000000" stroke-width="2" d="M 51.5,20 51.5,40 51.5,34 51.5,33.1 51.6,32.3 51.8,31.4 52,30.6 52.3,29.7 52.7,28.9 53.1,28.2 53.6,27.5 54.2,26.8 54.8,26.2 55.4,25.6 56.2,25.1 56.9,24.7 57.7,24.3 58.5,24 59.4,23.8 60.2,23.6 61.1,23.6" />
<path stroke="#000000" stroke-width="2" d="M 67.8,70" />
<path stroke="#000000" stroke-width="2" d="M 77.8,20 77.8,40 67.8,40" />
</svg>