<svg xmlns="http://www.w3.org/2000/svg" width="105.76000942280527" height="71.96954309061945" style="fill:none; stroke-linecap:round;">
    <rect width="100%" height="100%" fill="#FFFFFF" />
<path stroke="#000000" stroke-width="2" d="M 75,75" />
<path stroke="#000000" stroke-width="2" d="M 20,30 20.9,30 21.7,30.1 22.6,30.2 23.4,30.5 24.3,30.8 25.1,31.1 25.8,31.6 26.5,32.1 27.2,32.6 27.8,33.2 28.4,33.9 28.9,34.6 29.3,35.4 29.7,36.2 30,37 30.2,37.8 30.4,38.7 30.4,39.6 30.4,40.4 30.4,41.3 30.2,42.2 30,43 29.7,43.8 29.3,44.6 28.9,45.4 28.4,46.1 27.8,46.7 27.2,47.4 26.5,47.9 25.8,48.4 25.1,48.9 24.3,49.2 23.4,49.5 22.6,49.8 21.7,49.9 20.9,50" />
<path stroke="#000000" stroke-width="2" d="M 20.9,40" />
<path stroke="#000000" stroke-width="2" d="M 24.9,40 34.9,40 35.4,40 35.9,40 36.4,40.1 36.9,40.3 37.4,40.4 37.9,40.7 38.4,40.9 38.8,41.2 39.2,41.6 39.6,41.9 39.9,42.3 40.2,42.8 40.5,43.2 40.7,43.7 40.9,44.2 41,44.7 41.1,45.2 41.1,45.7 41.1,46.2 41.1,46.8 41,47.3 40.9,47.8 40.7,48.3 40.5,48.7 40.2,49.2 39.9,49.6 39.6,50 39.2,50.4 38.8,50.7 38.4,51 37.9,51.3 37.4,51.5 36.9,51.7 36.4,51.8 35.9,51.9 35.4,52 34.9,52 34.4,51.9 33.8,51.8 33.3,51.7 32.8,51.5 32.4,51.3 31.9,51 31.5,50.7 31.1,50.4 30.7,50 30.4,49.6 30.1,49.2 29.8,48.7 29.6,48.3 29.4,47.8 29.3,47.3 29.2,46.8 29.1,46.2 29.1,45.7 29.2,45.2 29.3,44.7 29.4,44.2 29.6,43.7 29.8,43.2 30.1,42.8 30.4,42.3 30.7,41.9 31.1,41.6 31.5,41.2 31.9,40.9 32.4,40.7 32.8,40.4 33.3,40.3 33.8,40.1 34.4,40 34.9,40 52.9,40" />
<path stroke="#000000" stroke-width="2" d="M 59.5,70" />
<path stroke="#000000" stroke-width="2" d="M 59.5,20 59.5,40 59.5,34 59.5,33.1 59.6,32.3 59.8,31.4 60,30.6 60.3,29.7 60.7,28.9 61.1,28.2 61.6,27.5 62.2,26.8 62.8,26.2 63.4,25.6 64.2,25.1 64.9,24.7 65.7,24.3 66.5,24 67.4,23.8 68.2,23.6 69.1,23.6" />
<path stroke="#000000" stroke-width="2" d="M 75.8,70" />
<path stroke="#000000" stroke-width="2" d="M 85.8,20 85.8,40 75.8,40" />
</svg>