<svg xmlns="http://www.w3.org/2000/svg" width="96.88762167549855" height="70.0" style="fill:none; stroke-linecap:round;">
    <rect width="100%" height="100%" fill="#FFFFFF" />
<path stroke="#000000" stroke-width="2" d="M 75,75" />
<path stroke="#000000" stroke-width="2" d="M 20,30" />
<path stroke="#000000" stroke-width="2" d="M 20,30 21.4,30.1 22.7,30.6 23.8,31.2 24.8,32.1 25.6,33.1 26.3,34.3 26.8,35.6 27.2,37 27.4,38.5 27.5,40 27.4,41.5 27.2,43 26.8,44.4 26.3,45.7 25.6,46.9 24.8,47.9 23.8,48.8 22.7,49.4 21.4,49.9 20,50" />
<path stroke="#000000" stroke-width="2" d="M 20,40" />
<path stroke="#000000" stroke-width="2" d="M 24,40 34,40" />
<path stroke="#000000" stroke-width="2" d="M 34,40 33.9,42 33.6,43.6 33.1,44.9 32.6,45.8 31.9,46.3 31.2,46.6 30.4,46.7 29.7,46.5 29,46.1 28.4,45.6 27.9,45 27.5,44.3 27.3,43.6 27.4,42.8 27.7,42.1 28.2,41.4 29.1,40.9 30.4,40.4 32,40.1 34,40 44,40" />
<path stroke="#000000" stroke-width="2" d="M 50.7,70" />
<path stroke="#000000" stroke-width="2" d="M 50.7,20 50.7,40 50.7,34 50.7,33.1 50.7,32.3 50.9,31.4 51.1,30.6 51.4,29.7 51.8,28.9 52.2,28.2 52.7,27.5 53.3,26.8 53.9,26.2 54.6,25.6 55.3,25.1 56,24.7 56.8,24.3 57.7,24 58.5,23.8 59.4,23.6 60.2,23.6" />
<path stroke="#000000" stroke-width="2" d="M 66.9,70" />
<path stroke="#000000" stroke-width="2" d="M 76.9,20 76.9,40 66.9,40" />
</svg>