<svg xmlns="http://www.w3.org/2000/svg" width="113.51535513655521" height="109.68629150101523" style="fill:none; stroke-linecap:round;">
    <rect width="100%" height="100%" fill="#FFFFFF" />
<path stroke="#000000" stroke-width="2" d="M 75,75" />
<path stroke="#000000" stroke-width="2" d="M 20,30 21.7,30 23.5,30.2 25.2,30.5 26.9,30.9 28.5,31.5 30.1,32.2 31.6,33.1 33,34.1 34.4,35.2 35.6,36.5 36.7,37.8 37.7,39.2 38.6,40.7 39.3,42.3 39.9,44 40.4,45.7 40.7,47.4 40.9,49.1 40.9,50.9 40.7,52.6 40.4,54.3 39.9,56 39.3,57.6 38.6,59.2 37.7,60.7 36.7,62.2 35.6,63.5 34.4,64.7 33,65.8 31.6,66.8 30.1,67.7 28.5,68.5 26.9,69.1 25.2,69.5 23.5,69.8 21.7,70" />
<path stroke="#000000" stroke-width="2" d="M 47.5,70" />
<path stroke="#000000" stroke-width="2" d="M 47.5,50 47.5,70 53.2,64.3 73.2,64.3 73.2,84.3 78.8,78.7" />
<path stroke="#000000" stroke-width="2" d="M 78.8,74.7" />
<path stroke="#000000" stroke-width="2" d="M 62.8,74.7 84.8,74.7 85.1,75 85.5,75.3 85.8,75.5 86.2,75.7 86.6,75.9 87,76.1 87.4,76.2 87.9,76.3 88.3,76.3 88.7,76.3 89.2,76.3 89.6,76.2 90,76.1 90.4,75.9 90.8,75.7 91.2,75.5 91.6,75.3 91.9,75 92.2,74.7 92.5,74.4 92.7,74 93,73.6 93.1,73.2 93.3,72.8 93.4,72.4 93.5,72 93.5,71.5 93.5,71.1 93.5,70.7 93.4,70.2 93.3,69.8 93.1,69.4 93,69 92.7,68.6 92.5,68.3 92.2,67.9 91.9,67.6 91.6,67.3 91.2,67.1 90.8,66.9 90.4,66.7 90,66.5 89.6,66.4 89.2,66.4 88.7,66.3 88.3,66.3 87.9,66.4 87.4,66.4 87,66.5 86.6,66.7 86.2,66.9 85.8,67.1 85.5,67.3 85.1,67.6 84.8,67.9 84.6,68.3 84.3,68.6 84.1,69 83.9,69.4 83.8,69.8 83.6,70.2 83.6,70.7 83.5,71.1 83.5,71.5 83.6,72 83.6,72.4 83.8,72.8 83.9,73.2 84.1,73.6 84.3,74 84.6,74.4 84.8,74.7 84.8,89.7" />
</svg>