<svg xmlns="http://www.w3.org/2000/svg" width="105.63475016565143" height="109.68629150101523" style="fill:none; stroke-linecap:round;">
    <rect width="100%" height="100%" fill="#FFFFFF" />
<path stroke="#000000" stroke-width="2" d="M 75,75" />
<path stroke="#000000" stroke-width="2" d="M 20,30" />
<path stroke="#000000" stroke-width="2" d="M 20,30 22.8,30.3 25.4,31.1 27.6,32.4 29.6,34.2 31.2,36.2 32.6,38.6 33.6,41.3 34.4,44.1 34.9,47 35,50 34.9,53 34.4,55.9 33.6,58.7 32.6,61.4 31.2,63.8 29.6,65.8 27.7,67.6 25.4,68.9 22.9,69.7 20,70" />
<path stroke="#000000" stroke-width="2" d="M 41.7,70" />
<path stroke="#000000" stroke-width="2" d="M 41.7,50 41.7,70 47.3,64.3 67.3,64.3 67.3,84.3 73,78.7" />
<path stroke="#000000" stroke-width="2" d="M 73,74.7" />
<path stroke="#000000" stroke-width="2" d="M 57,74.7 79,74.7" />
<path stroke="#000000" stroke-width="2" d="M 79,74.7 81,74.6 82.6,74.3 83.9,73.8 84.7,73.2 85.3,72.6 85.6,71.9 85.6,71.1 85.5,70.4 85.1,69.7 84.6,69.1 84,68.6 83.3,68.2 82.6,68 81.8,68.1 81.1,68.4 80.4,68.9 79.8,69.8 79.4,71 79.1,72.7 79,74.7 79,89.7" />
</svg>