<svg xmlns="http://www.w3.org/2000/svg" width="111.4881023445953" height="109.68629150101523" style="fill:none; stroke-linecap:round;">
    <rect width="100%" height="100%" fill="#FFFFFF" />
<path stroke="#000000" stroke-width="2" d="M 75,75" />
<path stroke="#000000" stroke-width="2" d="M 20,30 21.7,30 23.5,30.2 25.2,30.5 26.9,30.9 28.5,31.5 30.1,32.2 31.6,33.1 33,34.1 34.4,35.2 35.6,36.5 36.7,37.8 37.7,39.2 38.6,40.7 39.3,42.3 39.9,44 40.4,45.7 40.7,47.4 40.9,49.1 40.9,50.9 40.7,52.6 40.4,54.3 39.9,56 39.3,57.6 38.6,59.2 37.7,60.7 36.7,62.2 35.6,63.5 34.4,64.7 33,65.8 31.6,66.8 30.1,67.7 28.5,68.5 26.9,69.1 25.2,69.5 23.5,69.8 21.7,70" />
<path stroke="#000000" stroke-width="2" d="M 47.5,70" />
<path stroke="#000000" stroke-width="2" d="M 47.5,50 47.5,70 53.2,64.3 73.2,64.3 73.2,84.3 78.8,78.7" />
<path stroke="#000000" stroke-width="2" d="M 78.8,74.7" />
<path stroke="#000000" stroke-width="2" d="M 62.8,74.7 84.8,74.7" />
<path stroke="#000000" stroke-width="2" d="M 84.8,74.7 86.9,74.6 88.5,74.3 89.7,73.8 90.6,73.2 91.2,72.6 91.4,71.9 91.5,71.1 91.3,70.4 91,69.7 90.5,69.1 89.8,68.6 89.2,68.2 88.4,68 87.7,68.1 86.9,68.4 86.3,68.9 85.7,69.8 85.2,71 84.9,72.7 84.8,74.7 84.8,89.7" />
</svg>