<svg xmlns="http://www.w3.org/2000/svg" width="125.48135844289914" height="104.34314575050762" style="fill:none; stroke-linecap:round;">
    <rect width="100%" height="100%" fill="#FFFFFF" />
<path stroke="#000000" stroke-width="2" d="M 75,75" />
<path stroke="#000000" stroke-width="2" d="M 20,30 21.7,30 23.5,30.2 25.2,30.5 26.9,30.9 28.5,31.5 30.1,32.2 31.6,33.1 33,34.1 34.4,35.2 35.6,36.5 36.7,37.8 37.7,39.2 38.6,40.7 39.3,42.3 39.9,44 40.4,45.7 40.7,47.4 40.9,49.1 40.9,50.9 40.7,52.6 40.4,54.3 39.9,56 39.3,57.6 38.6,59.2 37.7,60.7 36.7,62.2 35.6,63.5 34.4,64.7 33,65.8 31.6,66.8 30.1,67.7 28.5,68.5 26.9,69.1 25.2,69.5 23.5,69.8 21.7,70" />
<path stroke="#000000" stroke-width="2" d="M 47.5,70" />
<path stroke="#000000" stroke-width="2" d="M 47.5,50 47.5,70 53.2,64.3 73.2,64.3 73.2,84.3 78.8,78.7" />
<path stroke="#000000" stroke-width="2" d="M 85.5,70" />
<path stroke="#000000" stroke-width="2" d="M 85.5,20 85.5,40 85.5,34 85.5,33.1 85.6,32.3 85.7,31.4 86,30.6 86.3,29.7 86.6,28.9 87.1,28.2 87.6,27.5 88.1,26.8 88.7,26.2 89.4,25.6 90.1,25.1 90.9,24.7 91.7,24.3 92.5,24 93.3,23.8 94.2,23.6 95.1,23.6 95.9,23.6 96.8,23.6 97.7,23.8 98.5,24 99.3,24.3 100.1,24.7 100.9,25.1 101.6,25.6 102.2,26.2 102.9,26.8 103.4,27.5 103.9,28.2 104.4,28.9 104.7,29.7 105,30.6 105.3,31.4 105.4,32.3 105.5,33.1 105.5,34 105.4,34.9 105.3,35.7 105,36.6 104.7,37.4 104.4,38.2 103.9,38.9 103.4,39.7 102.9,40.3 102.2,40.9 101.6,41.5 100.9,42 100.1,42.4 99.3,42.8 98.5,43.1 97.7,43.3 96.8,43.5 95.9,43.6 96.2,43.9 96.6,44.1 96.9,44.4 97.3,44.6 97.7,44.8 98.1,44.9 98.5,45.1 99,45.1 99.4,45.2 99.8,45.2 100.3,45.1 100.7,45.1 101.1,44.9 101.5,44.8 101.9,44.6 102.3,44.4 102.7,44.1 103,43.9 103.3,43.6 103.6,43.2 103.8,42.9 104,42.5 104.2,42.1 104.4,41.7 104.5,41.3 104.6,40.8 104.6,40.4 104.6,40 104.6,39.5 104.5,39.1 104.4,38.7 104.2,38.3 104,37.9 103.8,37.5 103.6,37.1 103.3,36.8 103,36.5 102.7,36.2 102.3,36 101.9,35.7 101.5,35.6 101.1,35.4 100.7,35.3 100.3,35.2 99.8,35.2 99.4,35.2 99,35.2 98.5,35.3 98.1,35.4 97.7,35.6 97.3,35.7 96.9,36 96.6,36.2 96.2,36.5 95.9,36.8 95.6,37.1 95.4,37.5 95.2,37.9 95,38.3 94.8,38.7 94.7,39.1 94.7,39.5 94.6,40 94.6,40.4 94.7,40.8 94.7,41.3 94.8,41.7 95,42.1 95.2,42.5 95.4,42.9 95.6,43.2 95.9,43.6 95.9,58.6" />
</svg>