<svg xmlns="http://www.w3.org/2000/svg" width="80.46734671740886" height="89.98096443163716" style="fill:none; stroke-linecap:round;">
    <rect width="100%" height="100%" fill="#FFFFFF" />
<path stroke="#000000" stroke-width="2" d="M 75,75" />
<path stroke="#000000" stroke-width="2" d="M 20,30 27.7,48.5 35.3,30" />
<path stroke="#000000" stroke-width="2" d="M 35.3,40" />
<path stroke="#000000" stroke-width="2" d="M 19.3,40 36.3,40 36.3,60" />
<path stroke="#000000" stroke-width="2" d="M 43,70" />
<path stroke="#000000" stroke-width="2" d="M 43,50 43.8,50 44.7,50.1 45.6,50.2 46.4,50.5 47.2,50.8 48,51.1 48.8,51.6 49.5,52.1 50.2,52.6 50.8,53.2 51.3,53.9 51.8,54.6 52.3,55.4 52.6,56.2 52.9,57 53.2,57.8 53.3,58.7 53.4,59.6 53.4,60.4 53.3,61.3 53.2,62.2 52.9,63 52.6,63.8 52.3,64.6 51.8,65.4 51.3,66.1 50.8,66.7 50.2,67.4 49.5,67.9 48.8,68.4 48,68.9 47.2,69.2 46.4,69.5 45.6,69.8 44.7,69.9 43.8,70" />
<path stroke="#000000" stroke-width="2" d="M 60.1,70" />
<path stroke="#000000" stroke-width="2" d="M 60.1,30 60.5,30 60.5,30.4 60.1,30.4 60.1,30" />
</svg>