<svg xmlns="http://www.w3.org/2000/svg" width="77.34067062793693" height="90.0" style="fill:none; stroke-linecap:round;">
    <rect width="100%" height="100%" fill="#FFFFFF" />
<path stroke="#000000" stroke-width="2" d="M 75,75" />
<path stroke="#000000" stroke-width="2" d="M 20,30 27.7,48.5 35.3,30" />
<path stroke="#000000" stroke-width="2" d="M 35.3,40" />
<path stroke="#000000" stroke-width="2" d="M 19.3,40 36.3,40 36.3,60" />
<path stroke="#000000" stroke-width="2" d="M 43,70" />
<path stroke="#000000" stroke-width="2" d="M 43,50" />
<path stroke="#000000" stroke-width="2" d="M 43,50 44.4,50.1 45.7,50.6 46.8,51.2 47.8,52.1 48.6,53.1 49.3,54.3 49.8,55.6 50.2,57 50.4,58.5 50.5,60 50.4,61.5 50.2,63 49.8,64.4 49.3,65.7 48.6,66.9 47.8,67.9 46.8,68.8 45.7,69.4 44.4,69.9 43,70" />
<path stroke="#000000" stroke-width="2" d="M 57.1,70" />
<path stroke="#000000" stroke-width="2" d="M 57.1,30 57.3,30 57.3,30.2 57.1,30.2 57.1,30" />
</svg>