<svg xmlns="http://www.w3.org/2000/svg" width="79.86320231511598" height="82.00102329860977" style="fill:none; stroke-linecap:round;">
    <rect width="100%" height="100%" fill="#FFFFFF" />
<path stroke="#000000" stroke-width="2" d="M 75,75" />
<path stroke="#000000" stroke-width="2" d="M 20,30 20,34 20,34.5 20,35 20.1,35.6 20.3,36.1 20.5,36.6 20.7,37 20.9,37.5 21.2,37.9 21.6,38.3 21.9,38.7 22.3,39 22.8,39.3 23.2,39.6 23.7,39.8 24.2,40 24.7,40.1 25.2,40.2 25.7,40.3 26.3,40.3 26.8,40.2 27.3,40.1 27.8,40 28.3,39.8 28.8,39.6 29.2,39.3 29.6,39 30,38.7 30.4,38.3 30.8,37.9 31.1,37.5 31.3,37 31.5,36.6 31.7,36.1 31.9,35.6 31.9,35 32,34.5 32,29.5 32,49.5" />
<path stroke="#000000" stroke-width="2" d="M 32,43.5" />
<path stroke="#000000" stroke-width="2" d="M 28,43.5 36,43.5 43.6,62" />
<path stroke="#000000" stroke-width="2" d="M 50.3,70" />
<path stroke="#000000" stroke-width="2" d="M 50.3,20 50.3,40 50.3,34 50.3,33.1 50.4,32.3 50.5,31.4 50.8,30.6 51.1,29.7 51.4,28.9 51.9,28.2 52.4,27.5 52.9,26.8 53.5,26.2 54.2,25.6 54.9,25.1 55.7,24.7 56.5,24.3 57.3,24 58.1,23.8 59,23.6 59.9,23.6" />
</svg>