<svg xmlns="http://www.w3.org/2000/svg" width="123.2800337419174" height="98.34134087157756" style="fill:none; stroke-linecap:round;">
    <rect width="100%" height="100%" fill="#FFFFFF" />
<path stroke="#000000" stroke-width="2" d="M 75,75" />
<path stroke="#000000" stroke-width="2" d="M 20,30 20,38 20,39 20.1,40.1 20.3,41.1 20.5,42.1 20.9,43.1 21.3,44.1 21.9,45 22.5,45.8 23.1,46.6 23.9,47.4 24.7,48 25.5,48.6 26.4,49.2 27.4,49.6 28.4,50 29.4,50.2 30.4,50.4 31.5,50.5 32.5,50.5 33.6,50.4 34.6,50.2 35.6,50 36.6,49.6 37.5,49.2 38.4,48.6 39.3,48 40.1,47.4 40.8,46.6 41.5,45.8 42.1,45 42.6,44.1 43.1,43.1 43.4,42.1 43.7,41.1 43.9,40.1 44,39 44,29 44,69" />
<path stroke="#000000" stroke-width="2" d="M 50.6,70" />
<path stroke="#000000" stroke-width="2" d="M 50.6,50 50.6,70 60.6,70 60.6,70.7 60.7,71.4 60.8,72.1 61,72.8 61.2,73.4 61.5,74 61.9,74.6 62.3,75.2 62.7,75.8 63.2,76.2 63.8,76.7 64.3,77.1 64.9,77.4 65.6,77.7 66.2,78 66.9,78.2 67.6,78.3 68.3,78.3 69,78.3 69.7,78.3 70.4,78.2 71,78 71.7,77.7 72.3,77.4 72.9,77.1 73.5,76.7 74,76.2 74.5,75.8 75,75.2 75.4,74.6 75.7,74 76,73.4 76.3,72.8 76.4,72.1 76.6,71.4 76.6,70.7" />
<path stroke="#000000" stroke-width="2" d="M 83.3,70" />
<path stroke="#000000" stroke-width="2" d="M 83.3,20 83.3,20.7 83.4,21.4 83.5,22.1 83.7,22.8 83.9,23.4 84.2,24 84.5,24.6 84.9,25.2 85.4,25.8 85.9,26.2 86.4,26.7 87,27.1 87.6,27.4 88.2,27.7 88.9,28 89.6,28.2 90.2,28.3 90.9,28.3 91.6,28.3 92.3,28.3 93,28.2 93.7,28 94.3,27.7 95,27.4 95.6,27.1 96.2,26.7 96.7,26.2 97.2,25.8 97.6,25.2 98,24.6 98.4,24 98.7,23.4 98.9,22.8 99.1,22.1 99.2,21.4 99.3,20.7" />
<path stroke="#000000" stroke-width="2" d="M 99.3,24.7" />
<path stroke="#000000" stroke-width="2" d="M 93.3,24.7 103.3,24.7" />
</svg>