<svg xmlns="http://www.w3.org/2000/svg" width="146.54585181277486" height="98.34134087157756" style="fill:none; stroke-linecap:round;">
    <rect width="100%" height="100%" fill="#FFFFFF" />
<path stroke="#000000" stroke-width="2" d="M 75,75" />
<path stroke="#000000" stroke-width="2" d="M 20,30 20,38 20,39 20.1,40.1 20.3,41.1 20.5,42.1 20.9,43.1 21.3,44.1 21.9,45 22.5,45.8 23.1,46.6 23.9,47.4 24.7,48 25.5,48.6 26.4,49.2 27.4,49.6 28.4,50 29.4,50.2 30.4,50.4 31.5,50.5 32.5,50.5 33.6,50.4 34.6,50.2 35.6,50 36.6,49.6 37.5,49.2 38.4,48.6 39.3,48 40.1,47.4 40.8,46.6 41.5,45.8 42.1,45 42.6,44.1 43.1,43.1 43.4,42.1 43.7,41.1 43.9,40.1 44,39 44,29 44,69" />
<path stroke="#000000" stroke-width="2" d="M 50.6,70" />
<path stroke="#000000" stroke-width="2" d="M 50.6,50 50.6,70 60.6,70 60.6,70.7 60.7,71.4 60.8,72.1 61,72.8 61.2,73.4 61.5,74 61.9,74.6 62.3,75.2 62.7,75.8 63.2,76.2 63.8,76.7 64.3,77.1 64.9,77.4 65.6,77.7 66.2,78 66.9,78.2 67.6,78.3 68.3,78.3 69,78.3 69.7,78.3 70.4,78.2 71,78 71.7,77.7 72.3,77.4 72.9,77.1 73.5,76.7 74,76.2 74.5,75.8 75,75.2 75.4,74.6 75.7,74 76,73.4 76.3,72.8 76.4,72.1 76.6,71.4 76.6,70.7" />
<path stroke="#000000" stroke-width="2" d="M 83.3,70" />
<path stroke="#000000" stroke-width="2" d="M 83.3,20 83.3,20.7 83.4,21.4 83.5,22.1 83.7,22.8 83.9,23.4 84.2,24 84.5,24.6 84.9,25.2 85.4,25.8 85.9,26.2 86.4,26.7 87,27.1 87.6,27.4 88.2,27.7 88.9,28 89.6,28.2 90.2,28.3 90.9,28.3 91.6,28.3 92.3,28.3 93,28.2 93.7,28 94.3,27.7 95,27.4 95.6,27.1 96.2,26.7 96.7,26.2 97.2,25.8 97.6,25.2 98,24.6 98.4,24 98.7,23.4 98.9,22.8 99.1,22.1 99.2,21.4 99.3,20.7" />
<path stroke="#000000" stroke-width="2" d="M 105.9,70" />
<path stroke="#000000" stroke-width="2" d="M 105.9,25 106.3,25.3 106.6,25.6 106.9,25.8 107.3,26.1 107.7,26.2 108.1,26.4 108.6,26.5 109,26.6 109.4,26.6 109.9,26.6 110.3,26.6 110.7,26.5 111.1,26.4 111.5,26.2 111.9,26.1 112.3,25.8 112.7,25.6 113,25.3 113.3,25 113.6,24.7 113.9,24.3 114.1,23.9 114.3,23.5 114.4,23.1 114.5,22.7 114.6,22.3 114.6,21.8 114.6,21.4 114.6,21 114.5,20.5 114.4,20.1 114.3,19.7 114.1,19.3 113.9,18.9 113.6,18.6 113.3,18.2 113,17.9 112.7,17.7 112.3,17.4 111.9,17.2 111.5,17 111.1,16.9 110.7,16.7 110.3,16.7 109.9,16.6 109.4,16.6 109,16.7 108.6,16.7 108.1,16.9 107.7,17 107.3,17.2 106.9,17.4 106.6,17.7 106.3,17.9 105.9,18.2 105.7,18.6 105.4,18.9 105.2,19.3 105,19.7 104.9,20.1 104.8,20.5 104.7,21 104.6,21.4 104.6,21.8 104.7,22.3 104.8,22.7 104.9,23.1 105,23.5 105.2,23.9 105.4,24.3 105.7,24.7 105.9,25 105.9,40 106.3,40.3 106.6,40.6 106.9,40.8 107.3,41.1 107.7,41.2 108.1,41.4 108.6,41.5 109,41.6 109.4,41.6 109.9,41.6 110.3,41.6 110.7,41.5 111.1,41.4 111.5,41.2 111.9,41.1 112.3,40.8 112.7,40.6 113,40.3 113.3,40 113.6,39.7 113.9,39.3 114.1,38.9 114.3,38.5 114.4,38.1 114.5,37.7 114.6,37.3 114.6,36.8 114.6,36.4 114.6,36 114.5,35.5 114.4,35.1 114.3,34.7 114.1,34.3 113.9,33.9 113.6,33.6 113.3,33.2 113,32.9 112.7,32.7 112.3,32.4 111.9,32.2 111.5,32 111.1,31.9 110.7,31.7 110.3,31.7 109.9,31.6 109.4,31.6 109,31.7 108.6,31.7 108.1,31.9 107.7,32 107.3,32.2 106.9,32.4 106.6,32.7 106.3,32.9 105.9,33.2 105.7,33.6 105.4,33.9 105.2,34.3 105,34.7 104.9,35.1 104.8,35.5 104.7,36 104.6,36.4 104.6,36.8 104.7,37.3 104.8,37.7 104.9,38.1 105,38.5 105.2,38.9 105.4,39.3 105.7,39.7 105.9,40 105.9,55 125.9,55 120.3,60.7 120.8,60.7 121.3,60.7 121.9,60.8 122.4,60.9 122.8,61.1 123.3,61.3 123.8,61.6 124.2,61.9 124.6,62.2 125,62.6 125.3,63 125.6,63.4 125.9,63.9 126.1,64.4 126.3,64.8 126.4,65.4 126.5,65.9 126.5,66.4 126.5,66.9 126.5,67.4 126.4,67.9 126.3,68.5 126.1,68.9 125.9,69.4 125.6,69.9 125.3,70.3 125,70.7 124.6,71.1 124.2,71.4 123.8,71.7 123.3,72 122.8,72.2 122.4,72.4 121.9,72.5 121.3,72.6 120.8,72.6" />
</svg>