<svg xmlns="http://www.w3.org/2000/svg" width="134.94289329491153" height="89.52343264838403" style="fill:none; stroke-linecap:round;">
    <rect width="100%" height="100%" fill="#FFFFFF" />
<path stroke="#000000" stroke-width="2" d="M 75,75" />
<path stroke="#000000" stroke-width="2" d="M 20,30 20,50 30,50 30,50.7 30.1,51.4 30.2,52.1 30.4,52.8 30.6,53.4 30.9,54 31.2,54.6 31.6,55.2 32.1,55.8 32.6,56.2 33.1,56.7 33.7,57.1 34.3,57.4 34.9,57.7 35.6,58 36.3,58.2 36.9,58.3 37.6,58.3 38.3,58.3 39,58.3 39.7,58.2 40.4,58 41.1,57.7 41.7,57.4 42.3,57.1 42.9,56.7 43.4,56.2 43.9,55.8 44.3,55.2 44.7,54.6 45.1,54 45.4,53.4 45.6,52.8 45.8,52.1 45.9,51.4 46,50.7 46,51.4 46,52.1 46.2,52.8 46.3,53.5 46.6,54.1 46.9,54.7 47.2,55.3 47.6,55.9 48.1,56.5 48.6,56.9 49.1,57.4 49.7,57.8 50.3,58.1 50.9,58.4 51.6,58.7 52.2,58.9 52.9,59 53.6,59 54.3,59 55,59 55.7,58.9 56.4,58.7 57,58.4 57.7,58.1 58.3,57.8 58.8,57.4 59.4,56.9 59.9,56.5 60.3,55.9 60.7,55.3 61.1,54.7 61.4,54.1 61.6,53.5 61.8,52.8 61.9,52.1 62,51.4" />
<path stroke="#000000" stroke-width="2" d="M 68.6,70" />
<path stroke="#000000" stroke-width="2" d="M 68.6,50 68.6,54 68.6,54.5 68.7,55 68.8,55.6 68.9,56.1 69.1,56.6 69.3,57 69.6,57.5 69.9,57.9 70.2,58.3 70.6,58.7 71,59 71.4,59.3 71.9,59.6 72.3,59.8 72.8,60 73.3,60.1 73.8,60.2 74.4,60.3 74.9,60.3 75.4,60.2 75.9,60.1 76.4,60 76.9,59.8 77.4,59.6 77.9,59.3 78.3,59 78.7,58.7 79.1,58.3 79.4,57.9 79.7,57.5 80,57 80.2,56.6 80.4,56.1 80.5,55.6 80.6,55 80.6,54.5 80.6,49.5 80.6,69.5" />
<path stroke="#000000" stroke-width="2" d="M 87.3,70" />
<path stroke="#000000" stroke-width="2" d="M 92.3,30 87.3,30 87.3,50" />
<path stroke="#000000" stroke-width="2" d="M 99,70" />
<path stroke="#000000" stroke-width="2" d="M 99,20 99,20.7 99,21.4 99.1,22.1 99.3,22.8 99.6,23.4 99.9,24 100.2,24.6 100.6,25.2 101.1,25.8 101.5,26.2 102.1,26.7 102.7,27.1 103.3,27.4 103.9,27.7 104.5,28 105.2,28.2 105.9,28.3 106.6,28.3 107.3,28.3 108,28.3 108.7,28.2 109.4,28 110,27.7 110.6,27.4 111.2,27.1 111.8,26.7 112.4,26.2 112.8,25.8 113.3,25.2 113.7,24.6 114,24 114.3,23.4 114.6,22.8 114.8,22.1 114.9,21.4 114.9,20.7" />
</svg>