<svg xmlns="http://www.w3.org/2000/svg" width="131.5885578387199" height="90.0" style="fill:none; stroke-linecap:round;">
    <rect width="100%" height="100%" fill="#FFFFFF" />
<path stroke="#000000" stroke-width="2" d="M 75,75" />
<path stroke="#000000" stroke-width="2" d="M 20,30 20,50 30,50 50,50 55,50 55,70" />
<path stroke="#000000" stroke-width="2" d="M 61.7,70" />
<path stroke="#000000" stroke-width="2" d="M 66.7,20 61.7,20 61.7,40 54,58.5" />
<path stroke="#000000" stroke-width="2" d="M 73.3,70" />
<path stroke="#000000" stroke-width="2" d="M 93.3,30 91.6,30 89.9,30.2 88.1,30.5 86.4,30.9 84.8,31.5 83.2,32.2 81.7,33.1 80.3,34.1 78.9,35.2 77.7,36.5 76.6,37.8 75.6,39.2 74.7,40.7 74,42.3 73.4,44 72.9,45.7 72.6,47.4 72.5,49.1 72.5,50.9 72.6,52.6 72.9,54.3 73.4,56 74,57.6 74.7,59.2 75.6,60.7 76.6,62.2 77.7,63.5 78.9,64.7 80.3,65.8 81.7,66.8 83.2,67.7 84.8,68.5 86.4,69.1 88.1,69.5 89.9,69.8 91.6,70 111.6,70" />
</svg>