<svg xmlns="http://www.w3.org/2000/svg" width="68.99238577265487" height="70.0" style="fill:none; stroke-linecap:round;">
    <rect width="100%" height="100%" fill="#FFFFFF" />
<path stroke="#000000" stroke-width="2" d="M 75,75" />
<path stroke="#000000" stroke-width="2" d="M 20,30 40,30 45,30 45,50" />
<path stroke="#000000" stroke-width="2" d="M 45,36" />
<path stroke="#000000" stroke-width="2" d="M 41,36 41,36.3 41,36.7 41.1,37 41.2,37.4 41.3,37.7 41.4,38 41.6,38.3 41.8,38.6 42,38.9 42.3,39.1 42.6,39.3 42.8,39.5 43.1,39.7 43.5,39.9 43.8,40 44.1,40.1 44.5,40.1 44.8,40.2 45.2,40.2 45.5,40.1 45.9,40.1 46.2,40 46.5,39.9 46.8,39.7 47.1,39.5 47.4,39.3 47.7,39.1 47.9,38.9 48.2,38.6 48.4,38.3 48.5,38 48.7,37.7 48.8,37.4 48.9,37 49,36.7 49,36.3" />
</svg>