<svg xmlns="http://www.w3.org/2000/svg" width="92.98477154530973" height="78.35228519784538" style="fill:none; stroke-linecap:round;">
    <rect width="100%" height="100%" fill="#FFFFFF" />
<path stroke="#000000" stroke-width="2" d="M 75,75" />
<path stroke="#000000" stroke-width="2" d="M 20,30 40,30 45,30 45,50" />
<path stroke="#000000" stroke-width="2" d="M 45,36" />
<path stroke="#000000" stroke-width="2" d="M 37,36 37,36.7 37.1,37.4 37.2,38.1 37.4,38.8 37.6,39.4 37.9,40 38.2,40.6 38.6,41.2 39.1,41.8 39.6,42.2 40.1,42.7 40.7,43.1 41.3,43.4 41.9,43.7 42.6,44 43.3,44.2 43.9,44.3 44.6,44.3 45.3,44.3 46,44.3 46.7,44.2 47.4,44 48.1,43.7 48.7,43.4 49.3,43.1 49.9,42.7 50.4,42.2 50.9,41.8 51.3,41.2 51.7,40.6 52.1,40 52.4,39.4 52.6,38.8 52.8,38.1 52.9,37.4 53,36.7 53,51.7" />
<path stroke="#000000" stroke-width="2" d="M 53,51.7 52.9,53.7 52.6,55.3 52.1,56.6 51.5,57.5 50.9,58 50.1,58.3 49.4,58.4 48.7,58.2 48,57.8 47.4,57.3 46.9,56.7 46.5,56 46.3,55.3 46.4,54.5 46.7,53.8 47.2,53.1 48.1,52.6 49.3,52.1 51,51.8 53,51.7 73,51.7" />
</svg>