<svg xmlns="http://www.w3.org/2000/svg" width="116.94958460088772" height="76.95518130045147" style="fill:none; stroke-linecap:round;">
    <rect width="100%" height="100%" fill="#FFFFFF" />
<path stroke="#000000" stroke-width="2" d="M 75,75" />
<path stroke="#000000" stroke-width="2" d="M 20,30 27.7,48.5" />
<path stroke="#000000" stroke-width="2" d="M 27.7,38.5" />
<path stroke="#000000" stroke-width="2" d="M 18.7,38.5 28.7,38.5 36.3,57" />
<path stroke="#000000" stroke-width="2" d="M 43,70" />
<path stroke="#000000" stroke-width="2" d="M 43,20 63,20" />
<path stroke="#000000" stroke-width="2" d="M 69.6,70" />
<path stroke="#000000" stroke-width="2" d="M 69.6,20 69.6,24 69.6,24.5 69.7,25 69.8,25.6 69.9,26.1 70.1,26.6 70.3,27 70.6,27.5 70.9,27.9 71.2,28.3 71.6,28.7 72,29 72.4,29.3 72.9,29.6 73.3,29.8 73.8,30 74.3,30.1 74.9,30.2 75.4,30.3 75.9,30.3 76.4,30.2 76.9,30.1 77.4,30 77.9,29.8 78.4,29.6 78.9,29.3 79.3,29 79.7,28.7 80.1,28.3 80.4,27.9 80.7,27.5 81,27 81.2,26.6 81.4,26.1 81.5,25.6 81.6,25 81.6,24.5 81.6,19.5 81.6,39.5" />
<path stroke="#000000" stroke-width="2" d="M 88.3,70" />
<path stroke="#000000" stroke-width="2" d="M 88.3,20 95.9,38.5" />
<path stroke="#000000" stroke-width="2" d="M 95.9,28.5" />
<path stroke="#000000" stroke-width="2" d="M 86.9,28.5 96.9,28.5" />
</svg>