<svg xmlns="http://www.w3.org/2000/svg" width="124.86233198946702" height="78.47759065022574" style="fill:none; stroke-linecap:round;">
    <rect width="100%" height="100%" fill="#FFFFFF" />
<path stroke="#000000" stroke-width="2" d="M 75,75" />
<path stroke="#000000" stroke-width="2" d="M 20,30 27.7,48.5" />
<path stroke="#000000" stroke-width="2" d="M 27.7,38.5" />
<path stroke="#000000" stroke-width="2" d="M 16.7,38.5 30.7,38.5 30.7,58.5 30.7,52.5 30.7,51.6 30.7,50.7 30.9,49.9 31.1,49 31.4,48.2 31.8,47.4 32.2,46.7 32.7,46 33.3,45.3 33.9,44.7 34.6,44.1 35.3,43.6 36,43.2 36.8,42.8 37.6,42.5 38.5,42.3 39.3,42.1 40.2,42.1" />
<path stroke="#000000" stroke-width="2" d="M 46.9,70" />
<path stroke="#000000" stroke-width="2" d="M 52.9,20" />
<path stroke="#000000" stroke-width="2" d="M 52.9,20 52.8,22 52.5,23.6 52,24.9 51.4,25.8 50.8,26.3 50,26.6 49.3,26.7 48.6,26.5 47.9,26.1 47.2,25.6 46.7,25 46.4,24.3 46.2,23.6 46.3,22.8 46.5,22.1 47.1,21.4 48,20.9 49.2,20.4 50.8,20.1 52.9,20 56.9,20" />
<path stroke="#000000" stroke-width="2" d="M 56.9,20 57.7,20.3 58.6,20.7 59.3,21 60,21.4 60.7,21.8 61.2,22.3 61.8,22.7 62.3,23.2 62.7,23.7 63.1,24.2 63.5,24.8 63.8,25.3 64.1,25.9 64.3,26.5 64.5,27 64.6,27.6 64.7,28.2 64.8,28.8 64.9,29.4 64.9,30" />
<path stroke="#000000" stroke-width="2" d="M 71.5,70" />
<path stroke="#000000" stroke-width="2" d="M 71.5,25" />
<path stroke="#000000" stroke-width="2" d="M 71.5,25 73.6,24.9 75.2,24.6 76.4,24.1 77.3,23.6 77.9,22.9 78.2,22.2 78.2,21.4 78,20.7 77.7,20 77.2,19.4 76.6,18.9 75.9,18.5 75.1,18.3 74.4,18.4 73.7,18.7 73,19.2 72.4,20.1 71.9,21.4 71.6,23 71.5,25 71.5,40" />
<path stroke="#000000" stroke-width="2" d="M 84.9,70" />
<path stroke="#000000" stroke-width="2" d="M 84.9,20 104.9,20 97.2,38.5" />
</svg>