<svg xmlns="http://www.w3.org/2000/svg" width="124.86233198946702" height="78.47759065022574" style="fill:none; stroke-linecap:round;">
    <rect width="100%" height="100%" fill="#FFFFFF" />
<path stroke="#000000" stroke-width="2" d="M 75,75" />
<path stroke="#000000" stroke-width="2" d="M 20,30 27.7,48.5" />
<path stroke="#000000" stroke-width="2" d="M 27.7,38.5" />
<path stroke="#000000" stroke-width="2" d="M 16.7,38.5 30.7,38.5 30.7,58.5 30.7,52.5 30.7,51.6 30.7,50.7 30.9,49.9 31.1,49 31.4,48.2 31.8,47.4 32.2,46.7 32.7,46 33.3,45.3 33.9,44.7 34.6,44.1 35.3,43.6 36,43.2 36.8,42.8 37.6,42.5 38.5,42.3 39.3,42.1 40.2,42.1" />
<path stroke="#000000" stroke-width="2" d="M 46.9,70" />
<path stroke="#000000" stroke-width="2" d="M 52.9,20 53.4,20 53.9,20 54.4,20.1 54.9,20.3 55.4,20.5 55.9,20.7 56.4,20.9 56.8,21.2 57.2,21.6 57.6,21.9 57.9,22.3 58.2,22.8 58.5,23.2 58.7,23.7 58.9,24.2 59,24.7 59.1,25.2 59.1,25.7 59.1,26.3 59.1,26.8 59,27.3 58.9,27.8 58.7,28.3 58.5,28.8 58.2,29.2 57.9,29.6 57.6,30 57.2,30.4 56.8,30.8 56.4,31.1 55.9,31.3 55.4,31.5 54.9,31.7 54.4,31.9 53.9,31.9 53.4,32 52.9,32 52.4,31.9 51.8,31.9 51.3,31.7 50.8,31.5 50.4,31.3 49.9,31.1 49.5,30.8 49.1,30.4 48.7,30 48.4,29.6 48.1,29.2 47.8,28.8 47.6,28.3 47.4,27.8 47.3,27.3 47.2,26.8 47.1,26.3 47.1,25.7 47.2,25.2 47.3,24.7 47.4,24.2 47.6,23.7 47.8,23.2 48.1,22.8 48.4,22.3 48.7,21.9 49.1,21.6 49.5,21.2 49.9,20.9 50.4,20.7 50.8,20.5 51.3,20.3 51.8,20.1 52.4,20 52.9,20 56.9,20" />
<path stroke="#000000" stroke-width="2" d="M 56.9,20 57.7,20.3 58.6,20.7 59.3,21 60,21.4 60.7,21.8 61.2,22.3 61.8,22.7 62.3,23.2 62.7,23.7 63.1,24.2 63.5,24.8 63.8,25.3 64.1,25.9 64.3,26.5 64.5,27 64.6,27.6 64.7,28.2 64.8,28.8 64.9,29.4 64.9,30" />
<path stroke="#000000" stroke-width="2" d="M 71.5,70" />
<path stroke="#000000" stroke-width="2" d="M 71.5,25" />
<path stroke="#000000" stroke-width="2" d="M 71.5,25 73.6,24.9 75.2,24.6 76.4,24.1 77.3,23.6 77.9,22.9 78.2,22.2 78.2,21.4 78,20.7 77.7,20 77.2,19.4 76.6,18.9 75.9,18.5 75.1,18.3 74.4,18.4 73.7,18.7 73,19.2 72.4,20.1 71.9,21.4 71.6,23 71.5,25 71.5,40" />
<path stroke="#000000" stroke-width="2" d="M 84.9,70" />
<path stroke="#000000" stroke-width="2" d="M 84.9,20 104.9,20 97.2,38.5" />
</svg>