<svg xmlns="http://www.w3.org/2000/svg" width="142.44387312359214" height="78.47759065022574" style="fill:none; stroke-linecap:round;">
    <rect width="100%" height="100%" fill="#FFFFFF" />
<path stroke="#000000" stroke-width="2" d="M 75,75" />
<path stroke="#000000" stroke-width="2" d="M 20,30 27.7,48.5" />
<path stroke="#000000" stroke-width="2" d="M 27.7,38.5" />
<path stroke="#000000" stroke-width="2" d="M 18.7,38.5 28.7,38.5 28.7,58.5 28.7,52.5 28.7,51.6 28.7,50.7 28.9,49.9 29.1,49 29.4,48.2 29.8,47.4 30.2,46.7 30.7,46 31.3,45.3 31.9,44.7 32.6,44.1 33.3,43.6 34,43.2 34.8,42.8 35.6,42.5 36.5,42.3 37.3,42.1 38.2,42.1" />
<path stroke="#000000" stroke-width="2" d="M 44.9,70" />
<path stroke="#000000" stroke-width="2" d="M 52.9,20 53.4,20 53.9,20 54.4,20.1 54.9,20.3 55.4,20.5 55.9,20.7 56.4,20.9 56.8,21.2 57.2,21.6 57.6,21.9 57.9,22.3 58.2,22.8 58.5,23.2 58.7,23.7 58.9,24.2 59,24.7 59.1,25.2 59.1,25.7 59.1,26.3 59.1,26.8 59,27.3 58.9,27.8 58.7,28.3 58.5,28.8 58.2,29.2 57.9,29.6 57.6,30 57.2,30.4 56.8,30.8 56.4,31.1 55.9,31.3 55.4,31.5 54.9,31.7 54.4,31.9 53.9,31.9 53.4,32 52.9,32 52.4,31.9 51.8,31.9 51.3,31.7 50.8,31.5 50.4,31.3 49.9,31.1 49.5,30.8 49.1,30.4 48.7,30 48.4,29.6 48.1,29.2 47.8,28.8 47.6,28.3 47.4,27.8 47.3,27.3 47.2,26.8 47.1,26.3 47.1,25.7 47.2,25.2 47.3,24.7 47.4,24.2 47.6,23.7 47.8,23.2 48.1,22.8 48.4,22.3 48.7,21.9 49.1,21.6 49.5,21.2 49.9,20.9 50.4,20.7 50.8,20.5 51.3,20.3 51.8,20.1 52.4,20 52.9,20 70.9,20 70.9,40 70.9,34 70.9,33.1 71,32.3 71.1,31.4 71.3,30.6 71.6,29.7 72,28.9 72.4,28.2 72.9,27.5 73.5,26.8 74.1,26.2 74.8,25.6 75.5,25.1 76.2,24.7 77,24.3 77.9,24 78.7,23.8 79.6,23.6 80.4,23.6" />
<path stroke="#000000" stroke-width="2" d="M 87.1,70" />
<path stroke="#000000" stroke-width="2" d="M 87.1,25 87.4,25.3 87.7,25.6 88.1,25.8 88.5,26.1 88.9,26.2 89.3,26.4 89.7,26.5 90.1,26.6 90.6,26.6 91,26.6 91.4,26.6 91.9,26.5 92.3,26.4 92.7,26.2 93.1,26.1 93.5,25.8 93.8,25.6 94.2,25.3 94.5,25 94.7,24.7 95,24.3 95.2,23.9 95.4,23.5 95.6,23.1 95.7,22.7 95.7,22.3 95.8,21.8 95.8,21.4 95.7,21 95.7,20.5 95.6,20.1 95.4,19.7 95.2,19.3 95,18.9 94.7,18.6 94.5,18.2 94.2,17.9 93.8,17.7 93.5,17.4 93.1,17.2 92.7,17 92.3,16.9 91.9,16.7 91.4,16.7 91,16.6 90.6,16.6 90.1,16.7 89.7,16.7 89.3,16.9 88.9,17 88.5,17.2 88.1,17.4 87.7,17.7 87.4,17.9 87.1,18.2 86.8,18.6 86.6,18.9 86.3,19.3 86.2,19.7 86,20.1 85.9,20.5 85.8,21 85.8,21.4 85.8,21.8 85.8,22.3 85.9,22.7 86,23.1 86.2,23.5 86.3,23.9 86.6,24.3 86.8,24.7 87.1,25 87.1,40" />
<path stroke="#000000" stroke-width="2" d="M 102.4,70" />
<path stroke="#000000" stroke-width="2" d="M 102.4,20 122.4,20 114.8,38.5" />
</svg>