<svg xmlns="http://www.w3.org/2000/svg" width="126.88958478142693" height="78.47759065022574" style="fill:none; stroke-linecap:round;">
    <rect width="100%" height="100%" fill="#FFFFFF" />
<path stroke="#000000" stroke-width="2" d="M 75,75" />
<path stroke="#000000" stroke-width="2" d="M 20,30 27.7,48.5" />
<path stroke="#000000" stroke-width="2" d="M 27.7,38.5" />
<path stroke="#000000" stroke-width="2" d="M 16.7,38.5 30.7,38.5 30.7,58.5 30.7,52.5 30.7,51.6 30.7,50.7 30.9,49.9 31.1,49 31.4,48.2 31.8,47.4 32.2,46.7 32.7,46 33.3,45.3 33.9,44.7 34.6,44.1 35.3,43.6 36,43.2 36.8,42.8 37.6,42.5 38.5,42.3 39.3,42.1 40.2,42.1" />
<path stroke="#000000" stroke-width="2" d="M 46.9,70" />
<path stroke="#000000" stroke-width="2" d="M 52.9,20 53.4,20 53.9,20 54.4,20.1 54.9,20.3 55.4,20.5 55.9,20.7 56.4,20.9 56.8,21.2 57.2,21.6 57.6,21.9 57.9,22.3 58.2,22.8 58.5,23.2 58.7,23.7 58.9,24.2 59,24.7 59.1,25.2 59.1,25.7 59.1,26.3 59.1,26.8 59,27.3 58.9,27.8 58.7,28.3 58.5,28.8 58.2,29.2 57.9,29.6 57.6,30 57.2,30.4 56.8,30.8 56.4,31.1 55.9,31.3 55.4,31.5 54.9,31.7 54.4,31.9 53.9,31.9 53.4,32 52.9,32 52.4,31.9 51.8,31.9 51.3,31.7 50.8,31.5 50.4,31.3 49.9,31.1 49.5,30.8 49.1,30.4 48.7,30 48.4,29.6 48.1,29.2 47.8,28.8 47.6,28.3 47.4,27.8 47.3,27.3 47.2,26.8 47.1,26.3 47.1,25.7 47.2,25.2 47.3,24.7 47.4,24.2 47.6,23.7 47.8,23.2 48.1,22.8 48.4,22.3 48.7,21.9 49.1,21.6 49.5,21.2 49.9,20.9 50.4,20.7 50.8,20.5 51.3,20.3 51.8,20.1 52.4,20 52.9,20 56.9,20" />
<path stroke="#000000" stroke-width="2" d="M 56.9,20 57.7,20.3 58.6,20.7 59.3,21 60,21.4 60.7,21.8 61.2,22.3 61.8,22.7 62.3,23.2 62.7,23.7 63.1,24.2 63.5,24.8 63.8,25.3 64.1,25.9 64.3,26.5 64.5,27 64.6,27.6 64.7,28.2 64.8,28.8 64.9,29.4 64.9,30" />
<path stroke="#000000" stroke-width="2" d="M 71.5,70" />
<path stroke="#000000" stroke-width="2" d="M 71.5,25 71.8,25.3 72.2,25.6 72.5,25.8 72.9,26.1 73.3,26.2 73.7,26.4 74.1,26.5 74.6,26.6 75,26.6 75.4,26.6 75.9,26.6 76.3,26.5 76.7,26.4 77.1,26.2 77.5,26.1 77.9,25.8 78.3,25.6 78.6,25.3 78.9,25 79.2,24.7 79.4,24.3 79.7,23.9 79.8,23.5 80,23.1 80.1,22.7 80.2,22.3 80.2,21.8 80.2,21.4 80.2,21 80.1,20.5 80,20.1 79.8,19.7 79.7,19.3 79.4,18.9 79.2,18.6 78.9,18.2 78.6,17.9 78.3,17.7 77.9,17.4 77.5,17.2 77.1,17 76.7,16.9 76.3,16.7 75.9,16.7 75.4,16.6 75,16.6 74.6,16.7 74.1,16.7 73.7,16.9 73.3,17 72.9,17.2 72.5,17.4 72.2,17.7 71.8,17.9 71.5,18.2 71.3,18.6 71,18.9 70.8,19.3 70.6,19.7 70.5,20.1 70.3,20.5 70.3,21 70.2,21.4 70.2,21.8 70.3,22.3 70.3,22.7 70.5,23.1 70.6,23.5 70.8,23.9 71,24.3 71.3,24.7 71.5,25 71.5,40" />
<path stroke="#000000" stroke-width="2" d="M 86.9,70" />
<path stroke="#000000" stroke-width="2" d="M 86.9,20 106.9,20 99.2,38.5" />
</svg>