<svg xmlns="http://www.w3.org/2000/svg" width="101.72554116971239" height="89.59797974644667" style="fill:none; stroke-linecap:round;">
    <rect width="100%" height="100%" fill="#FFFFFF" />
<path stroke="#000000" stroke-width="2" d="M 75,75" />
<path stroke="#000000" stroke-width="2" d="M 25,30" />
<path stroke="#000000" stroke-width="2" d="M 25,30 23.6,30.1 22.3,30.6 21.2,31.2 20.2,32.1 19.4,33.1 18.7,34.3 18.2,35.6 17.8,37 17.6,38.5 17.5,40 17.6,41.5 17.8,43 18.2,44.4 18.7,45.7 19.4,46.9 20.2,47.9 21.2,48.8 22.3,49.4 23.6,49.9 25,50" />
<path stroke="#000000" stroke-width="2" d="M 25,40" />
<path stroke="#000000" stroke-width="2" d="M 9,40 29,40 29,60 34.7,54.3" />
<path stroke="#000000" stroke-width="2" d="M 41.3,70" />
<path stroke="#000000" stroke-width="2" d="M 41.3,30 81.3,30 41.7,69.6 81.7,69.6" />
</svg>