<svg xmlns="http://www.w3.org/2000/svg" width="72.9994276274789" height="79.98096443163715" style="fill:none; stroke-linecap:round;">
    <rect width="100%" height="100%" fill="#FFFFFF" />
<path stroke="#000000" stroke-width="2" d="M 75,75" />
<path stroke="#000000" stroke-width="2" d="M 30,30 29.1,30 28.3,30.1 27.4,30.2 26.6,30.5 25.7,30.8 24.9,31.1 24.2,31.6 23.5,32.1 22.8,32.6 22.2,33.2 21.6,33.9 21.1,34.6 20.7,35.4 20.3,36.2 20,37 19.8,37.8 19.6,38.7 19.6,39.6 19.6,40.4 19.6,41.3 19.8,42.2 20,43 20.3,43.8 20.7,44.6 21.1,45.4 21.6,46.1 22.2,46.7 22.8,47.4 23.5,47.9 24.2,48.4 24.9,48.9 25.7,49.2 26.6,49.5 27.4,49.8 28.3,49.9 29.1,50" />
<path stroke="#000000" stroke-width="2" d="M 29.1,40" />
<path stroke="#000000" stroke-width="2" d="M 15.1,40 25.1,40 25.1,60 30.8,54.3" />
<path stroke="#000000" stroke-width="2" d="M 37.5,70" />
<path stroke="#000000" stroke-width="2" d="M 37.5,35 37.8,35.3 38.1,35.6 38.5,35.8 38.8,36.1 39.2,36.2 39.6,36.4 40.1,36.5 40.5,36.6 40.9,36.6 41.4,36.6 41.8,36.6 42.2,36.5 42.6,36.4 43.1,36.2 43.4,36.1 43.8,35.8 44.2,35.6 44.5,35.3 44.8,35 45.1,34.7 45.4,34.3 45.6,33.9 45.8,33.5 45.9,33.1 46,32.7 46.1,32.3 46.1,31.8 46.1,31.4 46.1,31 46,30.5 45.9,30.1 45.8,29.7 45.6,29.3 45.4,28.9 45.1,28.6 44.8,28.2 44.5,27.9 44.2,27.7 43.8,27.4 43.4,27.2 43.1,27 42.6,26.9 42.2,26.7 41.8,26.7 41.4,26.6 40.9,26.6 40.5,26.7 40.1,26.7 39.6,26.9 39.2,27 38.8,27.2 38.5,27.4 38.1,27.7 37.8,27.9 37.5,28.2 37.2,28.6 36.9,28.9 36.7,29.3 36.5,29.7 36.4,30.1 36.3,30.5 36.2,31 36.1,31.4 36.1,31.8 36.2,32.3 36.3,32.7 36.4,33.1 36.5,33.5 36.7,33.9 36.9,34.3 37.2,34.7 37.5,35 37.5,50" />
<path stroke="#000000" stroke-width="2" d="M 52.8,70" />
<path stroke="#000000" stroke-width="2" d="M 52.8,20 53,20 53,20.2 52.8,20.2 52.8,20" />
</svg>