<svg xmlns="http://www.w3.org/2000/svg" width="120.44571713133635" height="90.0" style="fill:none; stroke-linecap:round;">
    <rect width="100%" height="100%" fill="#FFFFFF" />
<path stroke="#000000" stroke-width="2" d="M 75,75" />
<path stroke="#000000" stroke-width="2" d="M 30,30 29.1,30 28.3,30.1 27.4,30.2 26.6,30.5 25.7,30.8 24.9,31.1 24.2,31.6 23.5,32.1 22.8,32.6 22.2,33.2 21.6,33.9 21.1,34.6 20.7,35.4 20.3,36.2 20,37 19.8,37.8 19.6,38.7 19.6,39.6 19.6,40.4 19.6,41.3 19.8,42.2 20,43 20.3,43.8 20.7,44.6 21.1,45.4 21.6,46.1 22.2,46.7 22.8,47.4 23.5,47.9 24.2,48.4 24.9,48.9 25.7,49.2 26.6,49.5 27.4,49.8 28.3,49.9 29.1,50" />
<path stroke="#000000" stroke-width="2" d="M 29.1,40" />
<path stroke="#000000" stroke-width="2" d="M 13.1,40 33.1,40 33.4,40.3 33.8,40.6 34.1,40.8 34.5,41 34.9,41.2 35.3,41.4 35.7,41.5 36.2,41.6 36.6,41.6 37,41.6 37.5,41.6 37.9,41.5 38.3,41.4 38.7,41.2 39.1,41 39.5,40.8 39.9,40.6 40.2,40.3 40.5,40 40.8,39.6 41,39.3 41.2,38.9 41.4,38.5 41.6,38.1 41.7,37.7 41.8,37.3 41.8,36.8 41.8,36.4 41.8,36 41.7,35.5 41.6,35.1 41.4,34.7 41.2,34.3 41,33.9 40.8,33.6 40.5,33.2 40.2,32.9 39.9,32.6 39.5,32.4 39.1,32.2 38.7,32 38.3,31.8 37.9,31.7 37.5,31.6 37,31.6 36.6,31.6 36.2,31.6 35.7,31.7 35.3,31.8 34.9,32 34.5,32.2 34.1,32.4 33.8,32.6 33.4,32.9 33.1,33.2 32.8,33.6 32.6,33.9 32.4,34.3 32.2,34.7 32,35.1 31.9,35.5 31.9,36 31.8,36.4 31.8,36.8 31.9,37.3 31.9,37.7 32,38.1 32.2,38.5 32.4,38.9 32.6,39.3 32.8,39.6 33.1,40 33.1,55 33.7,55 34.2,55 34.7,55.1 35.2,55.3 35.7,55.4 36.2,55.7 36.6,55.9 37,56.2 37.4,56.6 37.8,56.9 38.1,57.3 38.4,57.8 38.7,58.2 38.9,58.7 39.1,59.2 39.2,59.7 39.3,60.2 39.4,60.7 39.4,61.2 39.3,61.8 39.2,62.3 39.1,62.8 38.9,63.3 38.7,63.7 38.4,64.2 38.1,64.6 37.8,65 37.4,65.4 37,65.7 36.6,66 36.2,66.3 35.7,66.5 35.2,66.7 34.7,66.8 34.2,66.9 33.7,67 33.1,67 32.6,66.9 32.1,66.8 31.6,66.7 31.1,66.5 30.6,66.3 30.2,66 29.7,65.7 29.3,65.4 29,65 28.6,64.6 28.3,64.2 28.1,63.7 27.8,63.3 27.7,62.8 27.5,62.3 27.4,61.8 27.4,61.2 27.4,60.7 27.4,60.2 27.5,59.7 27.7,59.2 27.8,58.7 28.1,58.2 28.3,57.8 28.6,57.3 29,56.9 29.3,56.6 29.7,56.2 30.2,55.9 30.6,55.7 31.1,55.4 31.6,55.3 32.1,55.1 32.6,55 33.1,55 51.1,55" />
<path stroke="#000000" stroke-width="2" d="M 57.8,70" />
<path stroke="#000000" stroke-width="2" d="M 57.8,70 57.8,69.3 57.9,68.6 58,67.9 58.2,67.2 58.4,66.6 58.7,66 59,65.4 59.4,64.8 59.9,64.2 60.4,63.8 60.9,63.3 61.5,62.9 62.1,62.6 62.7,62.3 63.4,62 64.1,61.8 64.7,61.7 65.4,61.7 66.1,61.7 66.8,61.7 67.5,61.8 68.2,62 68.8,62.3 69.5,62.6 70.1,62.9 70.7,63.3 71.2,63.8 71.7,64.2 72.1,64.8 72.5,65.4 72.9,66 73.2,66.6 73.4,67.2 73.6,67.9 73.7,68.6 73.8,69.3" />
<path stroke="#000000" stroke-width="2" d="M 80.4,70" />
<path stroke="#000000" stroke-width="2" d="M 80.4,20 100.4,20" />
</svg>