<svg xmlns="http://www.w3.org/2000/svg" width="112.44571713133632" height="90.0" style="fill:none; stroke-linecap:round;">
    <rect width="100%" height="100%" fill="#FFFFFF" />
<path stroke="#000000" stroke-width="2" d="M 75,75" />
<path stroke="#000000" stroke-width="2" d="M 30,30 29.1,30 28.3,30.1 27.4,30.2 26.6,30.5 25.7,30.8 24.9,31.1 24.2,31.6 23.5,32.1 22.8,32.6 22.2,33.2 21.6,33.9 21.1,34.6 20.7,35.4 20.3,36.2 20,37 19.8,37.8 19.6,38.7 19.6,39.6 19.6,40.4 19.6,41.3 19.8,42.2 20,43 20.3,43.8 20.7,44.6 21.1,45.4 21.6,46.1 22.2,46.7 22.8,47.4 23.5,47.9 24.2,48.4 24.9,48.9 25.7,49.2 26.6,49.5 27.4,49.8 28.3,49.9 29.1,50" />
<path stroke="#000000" stroke-width="2" d="M 29.1,40" />
<path stroke="#000000" stroke-width="2" d="M 13.1,40 33.1,40" />
<path stroke="#000000" stroke-width="2" d="M 33.1,40 35.2,39.9 36.8,39.6 38,39.1 38.9,38.5 39.5,37.9 39.7,37.1 39.8,36.4 39.6,35.7 39.3,35 38.8,34.4 38.1,33.9 37.4,33.5 36.7,33.3 36,33.4 35.2,33.7 34.6,34.2 34,35.1 33.5,36.3 33.2,38 33.1,40 33.1,55" />
<path stroke="#000000" stroke-width="2" d="M 33.1,55 33,57 32.7,58.6 32.3,59.9 31.7,60.7 31,61.3 30.3,61.6 29.5,61.6 28.8,61.5 28.1,61.1 27.5,60.6 27,60 26.6,59.3 26.5,58.6 26.5,57.8 26.8,57.1 27.4,56.4 28.3,55.8 29.5,55.4 31.1,55.1 33.1,55 43.1,55" />
<path stroke="#000000" stroke-width="2" d="M 49.8,70" />
<path stroke="#000000" stroke-width="2" d="M 49.8,70 49.8,69.3 49.9,68.6 50,67.9 50.2,67.2 50.4,66.6 50.7,66 51,65.4 51.4,64.8 51.9,64.2 52.4,63.8 52.9,63.3 53.5,62.9 54.1,62.6 54.7,62.3 55.4,62 56.1,61.8 56.7,61.7 57.4,61.7 58.1,61.7 58.8,61.7 59.5,61.8 60.2,62 60.8,62.3 61.5,62.6 62.1,62.9 62.7,63.3 63.2,63.8 63.7,64.2 64.1,64.8 64.5,65.4 64.9,66 65.2,66.6 65.4,67.2 65.6,67.9 65.7,68.6 65.8,69.3" />
<path stroke="#000000" stroke-width="2" d="M 72.4,70" />
<path stroke="#000000" stroke-width="2" d="M 72.4,20 92.4,20" />
</svg>