<svg xmlns="http://www.w3.org/2000/svg" width="112.44571713133632" height="90.0" style="fill:none; stroke-linecap:round;">
    <rect width="100%" height="100%" fill="#FFFFFF" />
<path stroke="#000000" stroke-width="2" d="M 75,75" />
<path stroke="#000000" stroke-width="2" d="M 30,30 29.1,30 28.3,30.1 27.4,30.2 26.6,30.5 25.7,30.8 24.9,31.1 24.2,31.6 23.5,32.1 22.8,32.6 22.2,33.2 21.6,33.9 21.1,34.6 20.7,35.4 20.3,36.2 20,37 19.8,37.8 19.6,38.7 19.6,39.6 19.6,40.4 19.6,41.3 19.8,42.2 20,43 20.3,43.8 20.7,44.6 21.1,45.4 21.6,46.1 22.2,46.7 22.8,47.4 23.5,47.9 24.2,48.4 24.9,48.9 25.7,49.2 26.6,49.5 27.4,49.8 28.3,49.9 29.1,50" />
<path stroke="#000000" stroke-width="2" d="M 29.1,40" />
<path stroke="#000000" stroke-width="2" d="M 15.1,40 25.1,40 25.4,40.3 25.8,40.6 26.1,40.8 26.5,41 26.9,41.2 27.3,41.4 27.7,41.5 28.2,41.6 28.6,41.6 29,41.6 29.5,41.6 29.9,41.5 30.3,41.4 30.7,41.2 31.1,41 31.5,40.8 31.9,40.6 32.2,40.3 32.5,40 32.8,39.6 33,39.3 33.2,38.9 33.4,38.5 33.6,38.1 33.7,37.7 33.8,37.3 33.8,36.8 33.8,36.4 33.8,36 33.7,35.5 33.6,35.1 33.4,34.7 33.2,34.3 33,33.9 32.8,33.6 32.5,33.2 32.2,32.9 31.9,32.6 31.5,32.4 31.1,32.2 30.7,32 30.3,31.8 29.9,31.7 29.5,31.6 29,31.6 28.6,31.6 28.2,31.6 27.7,31.7 27.3,31.8 26.9,32 26.5,32.2 26.1,32.4 25.8,32.6 25.4,32.9 25.1,33.2 24.8,33.6 24.6,33.9 24.4,34.3 24.2,34.7 24,35.1 23.9,35.5 23.9,36 23.8,36.4 23.8,36.8 23.9,37.3 23.9,37.7 24,38.1 24.2,38.5 24.4,38.9 24.6,39.3 24.8,39.6 25.1,40 25.1,55 25.7,55 26.2,55 26.7,55.1 27.2,55.3 27.7,55.4 28.2,55.7 28.6,55.9 29,56.2 29.4,56.6 29.8,56.9 30.1,57.3 30.4,57.8 30.7,58.2 30.9,58.7 31.1,59.2 31.2,59.7 31.3,60.2 31.4,60.7 31.4,61.2 31.3,61.8 31.2,62.3 31.1,62.8 30.9,63.3 30.7,63.7 30.4,64.2 30.1,64.6 29.8,65 29.4,65.4 29,65.7 28.6,66 28.2,66.3 27.7,66.5 27.2,66.7 26.7,66.8 26.2,66.9 25.7,67 25.1,67 24.6,66.9 24.1,66.8 23.6,66.7 23.1,66.5 22.6,66.3 22.2,66 21.7,65.7 21.3,65.4 21,65 20.6,64.6 20.3,64.2 20.1,63.7 19.8,63.3 19.7,62.8 19.5,62.3 19.4,61.8 19.4,61.2 19.4,60.7 19.4,60.2 19.5,59.7 19.7,59.2 19.8,58.7 20.1,58.2 20.3,57.8 20.6,57.3 21,56.9 21.3,56.6 21.7,56.2 22.2,55.9 22.6,55.7 23.1,55.4 23.6,55.3 24.1,55.1 24.6,55 25.1,55 43.1,55" />
<path stroke="#000000" stroke-width="2" d="M 49.8,70" />
<path stroke="#000000" stroke-width="2" d="M 49.8,70 49.8,69.3 49.9,68.6 50,67.9 50.2,67.2 50.4,66.6 50.7,66 51,65.4 51.4,64.8 51.9,64.2 52.4,63.8 52.9,63.3 53.5,62.9 54.1,62.6 54.7,62.3 55.4,62 56.1,61.8 56.7,61.7 57.4,61.7 58.1,61.7 58.8,61.7 59.5,61.8 60.2,62 60.8,62.3 61.5,62.6 62.1,62.9 62.7,63.3 63.2,63.8 63.7,64.2 64.1,64.8 64.5,65.4 64.9,66 65.2,66.6 65.4,67.2 65.6,67.9 65.7,68.6 65.8,69.3" />
<path stroke="#000000" stroke-width="2" d="M 72.4,70" />
<path stroke="#000000" stroke-width="2" d="M 72.4,20 92.4,20" />
</svg>