<svg xmlns="http://www.w3.org/2000/svg" width="83.16666666666666" height="80.0" style="fill:none; stroke-linecap:round;">
    <rect width="100%" height="100%" fill="#FFFFFF" />
<path stroke="#000000" stroke-width="2" d="M 75,75" />
<path stroke="#000000" stroke-width="2" d="M 25,30" />
<path stroke="#000000" stroke-width="2" d="M 25,30 23.6,30.1 22.3,30.6 21.2,31.2 20.2,32.1 19.4,33.1 18.7,34.3 18.2,35.6 17.8,37 17.6,38.5 17.5,40 17.6,41.5 17.8,43 18.2,44.4 18.7,45.7 19.4,46.9 20.2,47.9 21.2,48.8 22.3,49.4 23.6,49.9 25,50" />
<path stroke="#000000" stroke-width="2" d="M 25,40" />
<path stroke="#000000" stroke-width="2" d="M 9,40 29,40" />
<path stroke="#000000" stroke-width="2" d="M 29,40 30.4,40.1 31.7,40.6 32.8,41.2 33.8,42.1 34.6,43.1 35.3,44.3 35.8,45.6 36.2,47 36.4,48.5 36.5,50 36.4,51.5 36.2,53 35.8,54.4 35.3,55.7 34.6,56.9 33.8,57.9 32.8,58.8 31.7,59.4 30.4,59.9 29,60" />
<path stroke="#000000" stroke-width="2" d="M 43.2,70" />
<path stroke="#000000" stroke-width="2" d="M 43.2,50 63.2,50" />
</svg>