<svg xmlns="http://www.w3.org/2000/svg" width="89.08762167549855" height="79.9619288632743" style="fill:none; stroke-linecap:round;">
    <rect width="100%" height="100%" fill="#FFFFFF" />
<path stroke="#000000" stroke-width="2" d="M 75,75" />
<path stroke="#000000" stroke-width="2" d="M 30,30 29.1,30 28.3,30.1 27.4,30.2 26.6,30.5 25.7,30.8 24.9,31.1 24.2,31.6 23.5,32.1 22.8,32.6 22.2,33.2 21.6,33.9 21.1,34.6 20.7,35.4 20.3,36.2 20,37 19.8,37.8 19.6,38.7 19.6,39.6 19.6,40.4 19.6,41.3 19.8,42.2 20,43 20.3,43.8 20.7,44.6 21.1,45.4 21.6,46.1 22.2,46.7 22.8,47.4 23.5,47.9 24.2,48.4 24.9,48.9 25.7,49.2 26.6,49.5 27.4,49.8 28.3,49.9 29.1,50" />
<path stroke="#000000" stroke-width="2" d="M 29.1,40" />
<path stroke="#000000" stroke-width="2" d="M 15.1,40 25.1,40 26,40 26.9,40.1 27.7,40.2 28.6,40.4 29.4,40.7 30.2,41.1 30.9,41.5 31.7,42 32.3,42.6 32.9,43.2 33.5,43.9 34,44.6 34.4,45.4 34.8,46.1 35.1,47 35.3,47.8 35.5,48.7 35.6,49.5 35.6,50.4 35.5,51.3 35.3,52.1 35.1,53 34.8,53.8 34.4,54.6 34,55.3 33.5,56.1 32.9,56.7 32.3,57.3 31.7,57.9 30.9,58.4 30.2,58.8 29.4,59.2 28.6,59.5 27.7,59.7 26.9,59.9 26,60" />
<path stroke="#000000" stroke-width="2" d="M 42.2,70" />
<path stroke="#000000" stroke-width="2" d="M 42.2,50 62.2,50" />
<path stroke="#000000" stroke-width="2" d="M 68.9,70" />
<path stroke="#000000" stroke-width="2" d="M 68.9,20 69.1,20 69.1,20.2 68.9,20.2 68.9,20" />
</svg>