<svg xmlns="http://www.w3.org/2000/svg" width="90.22095500883188" height="79.9619288632743" style="fill:none; stroke-linecap:round;">
    <rect width="100%" height="100%" fill="#FFFFFF" />
<path stroke="#000000" stroke-width="2" d="M 75,75" />
<path stroke="#000000" stroke-width="2" d="M 30,30 29.1,30 28.3,30.1 27.4,30.2 26.6,30.5 25.7,30.8 24.9,31.1 24.2,31.6 23.5,32.1 22.8,32.6 22.2,33.2 21.6,33.9 21.1,34.6 20.7,35.4 20.3,36.2 20,37 19.8,37.8 19.6,38.7 19.6,39.6 19.6,40.4 19.6,41.3 19.8,42.2 20,43 20.3,43.8 20.7,44.6 21.1,45.4 21.6,46.1 22.2,46.7 22.8,47.4 23.5,47.9 24.2,48.4 24.9,48.9 25.7,49.2 26.6,49.5 27.4,49.8 28.3,49.9 29.1,50" />
<path stroke="#000000" stroke-width="2" d="M 29.1,40" />
<path stroke="#000000" stroke-width="2" d="M 13.1,40 33.1,40 34,40 34.9,40.1 35.7,40.2 36.6,40.4 37.4,40.7 38.2,41.1 38.9,41.5 39.7,42 40.3,42.6 40.9,43.2 41.5,43.9 42,44.6 42.4,45.4 42.8,46.1 43.1,47 43.3,47.8 43.5,48.7 43.6,49.5 43.6,50.4 43.5,51.3 43.3,52.1 43.1,53 42.8,53.8 42.4,54.6 42,55.3 41.5,56.1 40.9,56.7 40.3,57.3 39.7,57.9 38.9,58.4 38.2,58.8 37.4,59.2 36.6,59.5 35.7,59.7 34.9,59.9 34,60" />
<path stroke="#000000" stroke-width="2" d="M 50.2,70" />
<path stroke="#000000" stroke-width="2" d="M 50.2,50 70.2,50" />
</svg>