<svg xmlns="http://www.w3.org/2000/svg" width="107.34829445862658" height="74.34314575050762" style="fill:none; stroke-linecap:round;">
    <rect width="100%" height="100%" fill="#FFFFFF" />
<path stroke="#000000" stroke-width="2" d="M 75,75" />
<path stroke="#000000" stroke-width="2" d="M 36,30 37,30 38.1,30.1 39.1,30.3 40.1,30.5 41.1,30.9 42.1,31.3 43,31.9 43.8,32.5 44.6,33.1 45.4,33.9 46,34.7 46.6,35.5 47.2,36.4 47.6,37.4 48,38.4 48.2,39.4 48.4,40.4 48.5,41.5 48.5,42.5 48.4,43.6 48.2,44.6 48,45.6 47.6,46.6 47.2,47.5 46.6,48.4 46,49.3 45.4,50.1 44.6,50.8 43.8,51.5 43,52.1 42.1,52.6 41.1,53.1 40.1,53.4 39.1,53.7 38.1,53.9 37,54 36,54 35,53.9 33.9,53.7 32.9,53.4 31.9,53.1 31,52.6 30.1,52.1 29.2,51.5 28.4,50.8 27.7,50.1 27,49.3 26.4,48.4 25.9,47.5 25.4,46.6 25.1,45.6 24.8,44.6 24.6,43.6 24.5,42.5 24.5,41.5 24.6,40.4 24.8,39.4 25.1,38.4 25.4,37.4 25.9,36.4 26.4,35.5 27,34.7 27.7,33.9 28.4,33.1 29.2,32.5 30.1,31.9 31,31.3 31.9,30.9 32.9,30.5 33.9,30.3 35,30.1 36,30 72,30" />
<path stroke="#000000" stroke-width="2" d="M 78.7,70" />
<path stroke="#000000" stroke-width="2" d="M 78.7,25 79,25.3 79.3,25.6 79.7,25.8 80,26.1 80.4,26.2 80.8,26.4 81.3,26.5 81.7,26.6 82.1,26.6 82.6,26.6 83,26.6 83.4,26.5 83.9,26.4 84.3,26.2 84.7,26.1 85,25.8 85.4,25.6 85.7,25.3 86,25 86.3,24.7 86.6,24.3 86.8,23.9 87,23.5 87.1,23.1 87.2,22.7 87.3,22.3 87.3,21.8 87.3,21.4 87.3,21 87.2,20.5 87.1,20.1 87,19.7 86.8,19.3 86.6,18.9 86.3,18.6 86,18.2 85.7,17.9 85.4,17.7 85,17.4 84.7,17.2 84.3,17 83.9,16.9 83.4,16.7 83,16.7 82.6,16.6 82.1,16.6 81.7,16.7 81.3,16.7 80.8,16.9 80.4,17 80,17.2 79.7,17.4 79.3,17.7 79,17.9 78.7,18.2 78.4,18.6 78.1,18.9 77.9,19.3 77.7,19.7 77.6,20.1 77.5,20.5 77.4,21 77.4,21.4 77.4,21.8 77.4,22.3 77.5,22.7 77.6,23.1 77.7,23.5 77.9,23.9 78.1,24.3 78.4,24.7 78.7,25 78.7,40 73,34.3 73,54.3" />
<path stroke="#000000" stroke-width="2" d="M 73,44.3" />
<path stroke="#000000" stroke-width="2" d="M 69,44.3 77,44.3" />
</svg>