<svg xmlns="http://www.w3.org/2000/svg" width="188.5885578387199" height="89.96192886327431" style="fill:none; stroke-linecap:round;">
    <rect width="100%" height="100%" fill="#FFFFFF" />
<path stroke="#000000" stroke-width="2" d="M 75,75" />
<path stroke="#000000" stroke-width="2" d="M 36,30 37,30 38.1,30.1 39.1,30.3 40.1,30.5 41.1,30.9 42.1,31.3 43,31.9 43.8,32.5 44.6,33.1 45.4,33.9 46,34.7 46.6,35.5 47.2,36.4 47.6,37.4 48,38.4 48.2,39.4 48.4,40.4 48.5,41.5 48.5,42.5 48.4,43.6 48.2,44.6 48,45.6 47.6,46.6 47.2,47.5 46.6,48.4 46,49.3 45.4,50.1 44.6,50.8 43.8,51.5 43,52.1 42.1,52.6 41.1,53.1 40.1,53.4 39.1,53.7 38.1,53.9 37,54 36,54 35,53.9 33.9,53.7 32.9,53.4 31.9,53.1 31,52.6 30.1,52.1 29.2,51.5 28.4,50.8 27.7,50.1 27,49.3 26.4,48.4 25.9,47.5 25.4,46.6 25.1,45.6 24.8,44.6 24.6,43.6 24.5,42.5 24.5,41.5 24.6,40.4 24.8,39.4 25.1,38.4 25.4,37.4 25.9,36.4 26.4,35.5 27,34.7 27.7,33.9 28.4,33.1 29.2,32.5 30.1,31.9 31,31.3 31.9,30.9 32.9,30.5 33.9,30.3 35,30.1 36,30 72,30" />
<path stroke="#000000" stroke-width="2" d="M 78.7,70" />
<path stroke="#000000" stroke-width="2" d="M 83.7,20 78.7,20 78.7,40" />
<path stroke="#000000" stroke-width="2" d="M 90.3,70" />
<path stroke="#000000" stroke-width="2" d="M 90.3,30 95.3,30 95.3,50" />
<path stroke="#000000" stroke-width="2" d="M 102,70" />
<path stroke="#000000" stroke-width="2" d="M 107,30 102,30 102,50" />
<path stroke="#000000" stroke-width="2" d="M 113.7,70" />
<path stroke="#000000" stroke-width="2" d="M 123.7,20 116,38.5" />
<path stroke="#000000" stroke-width="2" d="M 130.3,70" />
<path stroke="#000000" stroke-width="2" d="M 150.3,30 148.6,30 146.9,30.2 145.1,30.5 143.4,30.9 141.8,31.5 140.2,32.2 138.7,33.1 137.3,34.1 135.9,35.2 134.7,36.5 133.6,37.8 132.6,39.2 131.7,40.7 131,42.3 130.4,44 129.9,45.7 129.6,47.4 129.5,49.1 129.5,50.9 129.6,52.6 129.9,54.3 130.4,56 131,57.6 131.7,59.2 132.6,60.7 133.6,62.2 134.7,63.5 135.9,64.7 137.3,65.8 138.7,66.8 140.2,67.7 141.8,68.5 143.4,69.1 145.1,69.5 146.9,69.8 148.6,70 168.6,70" />
</svg>