<svg xmlns="http://www.w3.org/2000/svg" width="101.3028764239528" height="98.34134087157756" style="fill:none; stroke-linecap:round;">
    <rect width="100%" height="100%" fill="#FFFFFF" />
<path stroke="#000000" stroke-width="2" d="M 75,75" />
<path stroke="#000000" stroke-width="2" d="M 20,35" />
<path stroke="#000000" stroke-width="2" d="M 20,35 22,34.9 23.6,34.6 24.9,34.1 25.8,33.6 26.3,32.9 26.6,32.2 26.7,31.4 26.5,30.7 26.1,30 25.6,29.4 25,28.9 24.3,28.5 23.6,28.3 22.8,28.4 22.1,28.7 21.4,29.2 20.9,30.1 20.4,31.4 20.1,33 20,35 20,50 20,50.7 20.1,51.4 20.2,52.1 20.4,52.8 20.6,53.4 20.9,54 21.2,54.6 21.6,55.2 22.1,55.8 22.6,56.2 23.1,56.7 23.7,57.1 24.3,57.4 24.9,57.7 25.6,58 26.3,58.2 26.9,58.3 27.6,58.3 28.3,58.3 29,58.3 29.7,58.2 30.4,58 31.1,57.7 31.7,57.4 32.3,57.1 32.9,56.7 33.4,56.2 33.9,55.8 34.3,55.2 34.7,54.6 35.1,54 35.4,53.4 35.6,52.8 35.8,52.1 35.9,51.4 36,50.7" />
<path stroke="#000000" stroke-width="2" d="M 36,42.7" />
<path stroke="#000000" stroke-width="2" d="M 16,42.7 24,42.7" />
<path stroke="#000000" stroke-width="2" d="M 24,42.7 23.9,44.7 23.6,46.3 23.1,47.6 22.5,48.5 21.9,49 21.1,49.3 20.4,49.4 19.7,49.2 19,48.8 18.4,48.3 17.9,47.7 17.5,47 17.3,46.3 17.4,45.5 17.7,44.8 18.2,44.1 19.1,43.6 20.3,43.1 22,42.8 24,42.7 34,42.7" />
<path stroke="#000000" stroke-width="2" d="M 42.7,70" />
<path stroke="#000000" stroke-width="2" d="M 42.7,50 42.7,70 42.7,70.7 42.7,71.4 42.8,72.1 43,72.8 43.3,73.4 43.5,74 43.9,74.6 44.3,75.2 44.7,75.8 45.2,76.2 45.8,76.7 46.3,77.1 46.9,77.4 47.6,77.7 48.2,78 48.9,78.2 49.6,78.3 50.3,78.3 51,78.3 51.7,78.3 52.4,78.2 53,78 53.7,77.7 54.3,77.4 54.9,77.1 55.5,76.7 56,76.2 56.5,75.8 57,75.2 57.4,74.6 57.7,74 58,73.4 58.3,72.8 58.5,72.1 58.6,71.4 58.6,70.7" />
<path stroke="#000000" stroke-width="2" d="M 65.3,70" />
<path stroke="#000000" stroke-width="2" d="M 81.3,30 81.3,60" />
<path stroke="#000000" stroke-width="2" d="M 81.3,60 81.1,64.1 80.5,67.3 79.6,69.8 78.4,71.5 77.1,72.7 75.6,73.2 74.1,73.3 72.7,73 71.3,72.3 70.1,71.2 69.1,70 68.3,68.6 68,67.2 68.1,65.7 68.6,64.2 69.8,62.9 71.5,61.7 74,60.8 77.2,60.2 81.3,60" />
</svg>