<svg xmlns="http://www.w3.org/2000/svg" width="99.98450421591271" height="98.34134087157756" style="fill:none; stroke-linecap:round;">
    <rect width="100%" height="100%" fill="#FFFFFF" />
<path stroke="#000000" stroke-width="2" d="M 75,75" />
<path stroke="#000000" stroke-width="2" d="M 20,35 20.3,35.3 20.6,35.6 21,35.8 21.4,36.1 21.8,36.2 22.2,36.4 22.6,36.5 23,36.6 23.5,36.6 23.9,36.6 24.3,36.6 24.8,36.5 25.2,36.4 25.6,36.2 26,36.1 26.4,35.8 26.7,35.6 27.1,35.3 27.4,35 27.7,34.7 27.9,34.3 28.1,33.9 28.3,33.5 28.5,33.1 28.6,32.7 28.6,32.3 28.7,31.8 28.7,31.4 28.6,31 28.6,30.5 28.5,30.1 28.3,29.7 28.1,29.3 27.9,28.9 27.7,28.6 27.4,28.2 27.1,27.9 26.7,27.7 26.4,27.4 26,27.2 25.6,27 25.2,26.9 24.8,26.7 24.3,26.7 23.9,26.6 23.5,26.6 23,26.7 22.6,26.7 22.2,26.9 21.8,27 21.4,27.2 21,27.4 20.6,27.7 20.3,27.9 20,28.2 19.7,28.6 19.5,28.9 19.3,29.3 19.1,29.7 18.9,30.1 18.8,30.5 18.7,31 18.7,31.4 18.7,31.8 18.7,32.3 18.8,32.7 18.9,33.1 19.1,33.5 19.3,33.9 19.5,34.3 19.7,34.7 20,35 20,50 20,50.7 20.1,51.4 20.2,52.1 20.4,52.8 20.6,53.4 20.9,54 21.2,54.6 21.6,55.2 22.1,55.8 22.6,56.2 23.1,56.7 23.7,57.1 24.3,57.4 24.9,57.7 25.6,58 26.3,58.2 26.9,58.3 27.6,58.3 28.3,58.3 29,58.3 29.7,58.2 30.4,58 31.1,57.7 31.7,57.4 32.3,57.1 32.9,56.7 33.4,56.2 33.9,55.8 34.3,55.2 34.7,54.6 35.1,54 35.4,53.4 35.6,52.8 35.8,52.1 35.9,51.4 36,50.7" />
<path stroke="#000000" stroke-width="2" d="M 36,42.7" />
<path stroke="#000000" stroke-width="2" d="M 16,42.7 24,42.7 24.5,42.7 25,42.7 25.5,42.8 26.1,43 26.5,43.1 27,43.4 27.5,43.6 27.9,43.9 28.3,44.3 28.7,44.6 29,45 29.3,45.5 29.6,45.9 29.8,46.4 30,46.9 30.1,47.4 30.2,47.9 30.2,48.4 30.2,49 30.2,49.5 30.1,50 30,50.5 29.8,51 29.6,51.5 29.3,51.9 29,52.3 28.7,52.7 28.3,53.1 27.9,53.5 27.5,53.8 27,54 26.5,54.2 26.1,54.4 25.5,54.5 25,54.6 24.5,54.7 24,54.7 23.5,54.6 22.9,54.5 22.4,54.4 22,54.2 21.5,54 21,53.8 20.6,53.5 20.2,53.1 19.8,52.7 19.5,52.3 19.2,51.9 18.9,51.5 18.7,51 18.5,50.5 18.4,50 18.3,49.5 18.3,49 18.3,48.4 18.3,47.9 18.4,47.4 18.5,46.9 18.7,46.4 18.9,45.9 19.2,45.5 19.5,45 19.8,44.6 20.2,44.3 20.6,43.9 21,43.6 21.5,43.4 22,43.1 22.4,43 22.9,42.8 23.5,42.7 24,42.7 42,42.7" />
<path stroke="#000000" stroke-width="2" d="M 48.7,70" />
<path stroke="#000000" stroke-width="2" d="M 48.7,50 48.7,70 48.7,70.7 48.7,71.4 48.8,72.1 49,72.8 49.3,73.4 49.5,74 49.9,74.6 50.3,75.2 50.7,75.8 51.2,76.2 51.8,76.7 52.3,77.1 52.9,77.4 53.6,77.7 54.2,78 54.9,78.2 55.6,78.3 56.3,78.3 57,78.3 57.7,78.3 58.4,78.2 59,78 59.7,77.7 60.3,77.4 60.9,77.1 61.5,76.7 62,76.2 62.5,75.8 63,75.2 63.4,74.6 63.7,74 64,73.4 64.3,72.8 64.5,72.1 64.6,71.4 64.6,70.7" />
<path stroke="#000000" stroke-width="2" d="M 71.3,70" />
<path stroke="#000000" stroke-width="2" d="M 71.3,35 71.6,35.3 71.9,35.6 72.3,35.8 72.7,36.1 73.1,36.2 73.5,36.4 73.9,36.5 74.3,36.6 74.8,36.6 75.2,36.6 75.6,36.6 76.1,36.5 76.5,36.4 76.9,36.2 77.3,36.1 77.7,35.8 78,35.6 78.4,35.3 78.7,35 79,34.7 79.2,34.3 79.4,33.9 79.6,33.5 79.8,33.1 79.9,32.7 79.9,32.3 80,31.8 80,31.4 79.9,31 79.9,30.5 79.8,30.1 79.6,29.7 79.4,29.3 79.2,28.9 79,28.6 78.7,28.2 78.4,27.9 78,27.7 77.7,27.4 77.3,27.2 76.9,27 76.5,26.9 76.1,26.7 75.6,26.7 75.2,26.6 74.8,26.6 74.3,26.7 73.9,26.7 73.5,26.9 73.1,27 72.7,27.2 72.3,27.4 71.9,27.7 71.6,27.9 71.3,28.2 71,28.6 70.8,28.9 70.6,29.3 70.4,29.7 70.2,30.1 70.1,30.5 70,31 70,31.4 70,31.8 70,32.3 70.1,32.7 70.2,33.1 70.4,33.5 70.6,33.9 70.8,34.3 71,34.7 71.3,35 71.3,50 61.4,59.9 71.3,69.8" />
</svg>