<svg xmlns="http://www.w3.org/2000/svg" width="71.3330660039363" height="106.95518130045147" style="fill:none; stroke-linecap:round;">
    <rect width="100%" height="100%" fill="#FFFFFF" />
<path stroke="#000000" stroke-width="2" d="M 75,75" />
<path stroke="#000000" stroke-width="2" d="M 20,35 20.3,35.3 20.6,35.6 21,35.8 21.4,36.1 21.8,36.2 22.2,36.4 22.6,36.5 23,36.6 23.5,36.6 23.9,36.6 24.3,36.6 24.8,36.5 25.2,36.4 25.6,36.2 26,36.1 26.4,35.8 26.7,35.6 27.1,35.3 27.4,35 27.7,34.7 27.9,34.3 28.1,33.9 28.3,33.5 28.5,33.1 28.6,32.7 28.6,32.3 28.7,31.8 28.7,31.4 28.6,31 28.6,30.5 28.5,30.1 28.3,29.7 28.1,29.3 27.9,28.9 27.7,28.6 27.4,28.2 27.1,27.9 26.7,27.7 26.4,27.4 26,27.2 25.6,27 25.2,26.9 24.8,26.7 24.3,26.7 23.9,26.6 23.5,26.6 23,26.7 22.6,26.7 22.2,26.9 21.8,27 21.4,27.2 21,27.4 20.6,27.7 20.3,27.9 20,28.2 19.7,28.6 19.5,28.9 19.3,29.3 19.1,29.7 18.9,30.1 18.8,30.5 18.7,31 18.7,31.4 18.7,31.8 18.7,32.3 18.8,32.7 18.9,33.1 19.1,33.5 19.3,33.9 19.5,34.3 19.7,34.7 20,35 20,50 27.7,68.5" />
<path stroke="#000000" stroke-width="2" d="M 27.7,48.5" />
<path stroke="#000000" stroke-width="2" d="M 15.7,48.5 23.7,48.5 16,67 16,87 16,81 16,80.1 16.1,79.2 16.2,78.4 16.5,77.5 16.8,76.7 17.1,75.9 17.6,75.1 18.1,74.4 18.6,73.8 19.2,73.1 19.9,72.6 20.6,72.1 21.4,71.6 22.2,71.3 23,71 23.8,70.8 24.7,70.6 25.6,70.5" />
<path stroke="#000000" stroke-width="2" d="M 35.3,70" />
<path stroke="#000000" stroke-width="2" d="M 40.3,50 35.3,50 35.3,70 35.3,69.3 35.4,68.6 35.5,67.9 35.7,67.2 35.9,66.6 36.2,66 36.6,65.4 37,64.8 37.4,64.2 37.9,63.8 38.5,63.3 39,62.9 39.6,62.6 40.3,62.3 40.9,62 41.6,61.8 42.3,61.7 43,61.7 43.7,61.7 44.4,61.7 45.1,61.8 45.7,62 46.4,62.3 47,62.6 47.6,62.9 48.2,63.3 48.7,63.8 49.2,64.2 49.7,64.8 50.1,65.4 50.4,66 50.7,66.6 51,67.2 51.2,67.9 51.3,68.6 51.3,69.3" />
</svg>