<svg xmlns="http://www.w3.org/2000/svg" width="82.60798323735672" height="90.0" style="fill:none; stroke-linecap:round;">
    <rect width="100%" height="100%" fill="#FFFFFF" />
<path stroke="#000000" stroke-width="2" d="M 75,75" />
<path stroke="#000000" stroke-width="2" d="M 20,35" />
<path stroke="#000000" stroke-width="2" d="M 20,35 22,34.9 23.6,34.6 24.9,34.1 25.8,33.6 26.3,32.9 26.6,32.2 26.7,31.4 26.5,30.7 26.1,30 25.6,29.4 25,28.9 24.3,28.5 23.6,28.3 22.8,28.4 22.1,28.7 21.4,29.2 20.9,30.1 20.4,31.4 20.1,33 20,35 20,50 27.7,68.5" />
<path stroke="#000000" stroke-width="2" d="M 27.7,48.5" />
<path stroke="#000000" stroke-width="2" d="M 11.7,48.5 37.7,48.5 30,67 32.3,61.4 32.6,60.6 33,59.8 33.5,59.1 34,58.4 34.6,57.8 35.3,57.2 36,56.6 36.7,56.2 37.5,55.8 38.3,55.4 39.1,55.2 40,55" />
<path stroke="#000000" stroke-width="2" d="M 46.6,70" />
<path stroke="#000000" stroke-width="2" d="M 46.6,70 46.6,69.3 46.7,68.6 46.8,67.9 47,67.2 47.2,66.6 47.5,66 47.9,65.4 48.3,64.8 48.7,64.2 49.2,63.8 49.7,63.3 50.3,62.9 50.9,62.6 51.6,62.3 52.2,62 52.9,61.8 53.6,61.7 54.3,61.7 55,61.7 55.7,61.7 56.3,61.8 57,62 57.7,62.3 58.3,62.6 58.9,62.9 59.5,63.3 60,63.8 60.5,64.2 61,64.8 61.4,65.4 61.7,66 62,66.6 62.2,67.2 62.4,67.9 62.5,68.6 62.6,69.3" />
</svg>