<svg xmlns="http://www.w3.org/2000/svg" width="82.60798323735672" height="88.47759065022574" style="fill:none; stroke-linecap:round;">
    <rect width="100%" height="100%" fill="#FFFFFF" />
<path stroke="#000000" stroke-width="2" d="M 75,75" />
<path stroke="#000000" stroke-width="2" d="M 20,35" />
<path stroke="#000000" stroke-width="2" d="M 20,35 22,34.9 23.6,34.6 24.9,34.1 25.8,33.6 26.3,32.9 26.6,32.2 26.7,31.4 26.5,30.7 26.1,30 25.6,29.4 25,28.9 24.3,28.5 23.6,28.3 22.8,28.4 22.1,28.7 21.4,29.2 20.9,30.1 20.4,31.4 20.1,33 20,35 20,50 27.7,68.5" />
<path stroke="#000000" stroke-width="2" d="M 27.7,48.5" />
<path stroke="#000000" stroke-width="2" d="M 11.7,48.5 37.7,48.5 30,67 32.3,61.4 32.6,60.6 33,59.8 33.5,59.1 34,58.4 34.6,57.8 35.3,57.2 36,56.6 36.7,56.2 37.5,55.8 38.3,55.4 39.1,55.2 40,55" />
<path stroke="#000000" stroke-width="2" d="M 46.6,70" />
<path stroke="#000000" stroke-width="2" d="M 46.6,58 46.6,57.3 46.7,56.6 46.8,55.9 47,55.2 47.2,54.6 47.5,54 47.9,53.4 48.3,52.8 48.7,52.2 49.2,51.8 49.7,51.3 50.3,50.9 50.9,50.6 51.6,50.3 52.2,50 52.9,49.8 53.6,49.7 54.3,49.7 55,49.7 55.7,49.7 56.3,49.8 57,50 57.7,50.3 58.3,50.6 58.9,50.9 59.5,51.3 60,51.8 60.5,52.2 61,52.8 61.4,53.4 61.7,54 62,54.6 62.2,55.2 62.4,55.9 62.5,56.6 62.6,57.3" />
</svg>