<svg xmlns="http://www.w3.org/2000/svg" width="72.6514382119764" height="108.27658052344906" style="fill:none; stroke-linecap:round;">
    <rect width="100%" height="100%" fill="#FFFFFF" />
<path stroke="#000000" stroke-width="2" d="M 75,75" />
<path stroke="#000000" stroke-width="2" d="M 20,35 20.3,35.3 20.6,35.6 21,35.8 21.4,36.1 21.8,36.2 22.2,36.4 22.6,36.5 23,36.6 23.5,36.6 23.9,36.6 24.3,36.6 24.8,36.5 25.2,36.4 25.6,36.2 26,36.1 26.4,35.8 26.7,35.6 27.1,35.3 27.4,35 27.7,34.7 27.9,34.3 28.1,33.9 28.3,33.5 28.5,33.1 28.6,32.7 28.6,32.3 28.7,31.8 28.7,31.4 28.6,31 28.6,30.5 28.5,30.1 28.3,29.7 28.1,29.3 27.9,28.9 27.7,28.6 27.4,28.2 27.1,27.9 26.7,27.7 26.4,27.4 26,27.2 25.6,27 25.2,26.9 24.8,26.7 24.3,26.7 23.9,26.6 23.5,26.6 23,26.7 22.6,26.7 22.2,26.9 21.8,27 21.4,27.2 21,27.4 20.6,27.7 20.3,27.9 20,28.2 19.7,28.6 19.5,28.9 19.3,29.3 19.1,29.7 18.9,30.1 18.8,30.5 18.7,31 18.7,31.4 18.7,31.8 18.7,32.3 18.8,32.7 18.9,33.1 19.1,33.5 19.3,33.9 19.5,34.3 19.7,34.7 20,35 20,50 20,50.7 20.1,51.4 20.2,52.1 20.4,52.8 20.6,53.4 20.9,54 21.2,54.6 21.6,55.2 22.1,55.8 22.6,56.2 23.1,56.7 23.7,57.1 24.3,57.4 24.9,57.7 25.6,58 26.3,58.2 26.9,58.3 27.6,58.3 28.3,58.3 29,58.3 29.7,58.2 30.4,58 31.1,57.7 31.7,57.4 32.3,57.1 32.9,56.7 33.4,56.2 33.9,55.8 34.3,55.2 34.7,54.6 35.1,54 35.4,53.4 35.6,52.8 35.8,52.1 35.9,51.4 36,50.7" />
<path stroke="#000000" stroke-width="2" d="M 42.7,70" />
<path stroke="#000000" stroke-width="2" d="M 52.7,50 45,68.5 35.1,78.4 45,88.3" />
<path stroke="#000000" stroke-width="2" d="M 45,78.3" />
<path stroke="#000000" stroke-width="2" d="M 31,78.3 41,78.3" />
</svg>