<svg xmlns="http://www.w3.org/2000/svg" width="72.6514382119764" height="108.27658052344906" style="fill:none; stroke-linecap:round;">
    <rect width="100%" height="100%" fill="#FFFFFF" />
<path stroke="#000000" stroke-width="2" d="M 75,75" />
<path stroke="#000000" stroke-width="2" d="M 20,35" />
<path stroke="#000000" stroke-width="2" d="M 20,35 22,34.9 23.6,34.6 24.9,34.1 25.8,33.6 26.3,32.9 26.6,32.2 26.7,31.4 26.5,30.7 26.1,30 25.6,29.4 25,28.9 24.3,28.5 23.6,28.3 22.8,28.4 22.1,28.7 21.4,29.2 20.9,30.1 20.4,31.4 20.1,33 20,35 20,50 20,50.7 20.1,51.4 20.2,52.1 20.4,52.8 20.6,53.4 20.9,54 21.2,54.6 21.6,55.2 22.1,55.8 22.6,56.2 23.1,56.7 23.7,57.1 24.3,57.4 24.9,57.7 25.6,58 26.3,58.2 26.9,58.3 27.6,58.3 28.3,58.3 29,58.3 29.7,58.2 30.4,58 31.1,57.7 31.7,57.4 32.3,57.1 32.9,56.7 33.4,56.2 33.9,55.8 34.3,55.2 34.7,54.6 35.1,54 35.4,53.4 35.6,52.8 35.8,52.1 35.9,51.4 36,50.7" />
<path stroke="#000000" stroke-width="2" d="M 42.7,70" />
<path stroke="#000000" stroke-width="2" d="M 52.7,50 45,68.5 35.1,78.4 45,88.3" />
<path stroke="#000000" stroke-width="2" d="M 45,78.3" />
<path stroke="#000000" stroke-width="2" d="M 31,78.3 41,78.3" />
</svg>