<svg xmlns="http://www.w3.org/2000/svg" width="108.98477154530974" height="81.9885786589823" style="fill:none; stroke-linecap:round;">
    <rect width="100%" height="100%" fill="#FFFFFF" />
<path stroke="#000000" stroke-width="2" d="M 75,75" />
<path stroke="#000000" stroke-width="2" d="M 20,35 20.3,35.3 20.6,35.6 21,35.8 21.4,36.1 21.8,36.2 22.2,36.4 22.6,36.5 23,36.6 23.5,36.6 23.9,36.6 24.3,36.6 24.8,36.5 25.2,36.4 25.6,36.2 26,36.1 26.4,35.8 26.7,35.6 27.1,35.3 27.4,35 27.7,34.7 27.9,34.3 28.1,33.9 28.3,33.5 28.5,33.1 28.6,32.7 28.6,32.3 28.7,31.8 28.7,31.4 28.6,31 28.6,30.5 28.5,30.1 28.3,29.7 28.1,29.3 27.9,28.9 27.7,28.6 27.4,28.2 27.1,27.9 26.7,27.7 26.4,27.4 26,27.2 25.6,27 25.2,26.9 24.8,26.7 24.3,26.7 23.9,26.6 23.5,26.6 23,26.7 22.6,26.7 22.2,26.9 21.8,27 21.4,27.2 21,27.4 20.6,27.7 20.3,27.9 20,28.2 19.7,28.6 19.5,28.9 19.3,29.3 19.1,29.7 18.9,30.1 18.8,30.5 18.7,31 18.7,31.4 18.7,31.8 18.7,32.3 18.8,32.7 18.9,33.1 19.1,33.5 19.3,33.9 19.5,34.3 19.7,34.7 20,35 20,50 20.5,50 21,50 21.6,50.1 22.1,50.3 22.6,50.5 23,50.7 23.5,50.9 23.9,51.2 24.3,51.6 24.7,51.9 25,52.3 25.3,52.8 25.6,53.2 25.8,53.7 26,54.2 26.1,54.7 26.2,55.2 26.3,55.7 26.3,56.3 26.2,56.8 26.1,57.3 26,57.8 25.8,58.3 25.6,58.8 25.3,59.2 25,59.6 24.7,60 24.3,60.4 23.9,60.8 23.5,61.1 23,61.3 22.6,61.5 22.1,61.7 21.6,61.9 21,61.9 20.5,62 20,62 19.5,61.9 19,61.9 18.5,61.7 18,61.5 17.5,61.3 17,61.1 16.6,60.8 16.2,60.4 15.8,60 15.5,59.6 15.2,59.2 14.9,58.8 14.7,58.3 14.5,57.8 14.4,57.3 14.3,56.8 14.3,56.3 14.3,55.7 14.3,55.2 14.4,54.7 14.5,54.2 14.7,53.7 14.9,53.2 15.2,52.8 15.5,52.3 15.8,51.9 16.2,51.6 16.6,51.2 17,50.9 17.5,50.7 18,50.5 18.5,50.3 19,50.1 19.5,50 20,50 38,50" />
<path stroke="#000000" stroke-width="2" d="M 44.7,70" />
<path stroke="#000000" stroke-width="2" d="M 54.7,30 47,48.5" />
<path stroke="#000000" stroke-width="2" d="M 61.3,70" />
<path stroke="#000000" stroke-width="2" d="M 61.3,20 66.3,20 66.3,40" />
<path stroke="#000000" stroke-width="2" d="M 73,70" />
<path stroke="#000000" stroke-width="2" d="M 73,50 73,50.7 73.1,51.4 73.2,52.1 73.4,52.8 73.6,53.4 73.9,54 74.2,54.6 74.6,55.2 75.1,55.8 75.6,56.2 76.1,56.7 76.7,57.1 77.3,57.4 77.9,57.7 78.6,58 79.3,58.2 79.9,58.3 80.6,58.3 81.3,58.3 82,58.3 82.7,58.2 83.4,58 84.1,57.7 84.7,57.4 85.3,57.1 85.9,56.7 86.4,56.2 86.9,55.8 87.3,55.2 87.7,54.6 88.1,54 88.4,53.4 88.6,52.8 88.8,52.1 88.9,51.4 89,50.7" />
</svg>