<svg xmlns="http://www.w3.org/2000/svg" width="68.01299801936487" height="88.47759065022574" style="fill:none; stroke-linecap:round;">
    <rect width="100%" height="100%" fill="#FFFFFF" />
<path stroke="#000000" stroke-width="2" d="M 75,75" />
<path stroke="#000000" stroke-width="2" d="M 20,35" />
<path stroke="#000000" stroke-width="2" d="M 20,35 22,34.9 23.6,34.6 24.9,34.1 25.8,33.6 26.3,32.9 26.6,32.2 26.7,31.4 26.5,30.7 26.1,30 25.6,29.4 25,28.9 24.3,28.5 23.6,28.3 22.8,28.4 22.1,28.7 21.4,29.2 20.9,30.1 20.4,31.4 20.1,33 20,35 20,50" />
<path stroke="#000000" stroke-width="2" d="M 20,50 19.9,52 19.6,53.6 19.1,54.9 18.6,55.8 17.9,56.3 17.2,56.6 16.4,56.7 15.7,56.5 15,56.1 14.4,55.6 13.9,55 13.5,54.3 13.3,53.6 13.4,52.8 13.7,52.1 14.2,51.4 15.1,50.9 16.4,50.4 18,50.1 20,50 30,50" />
<path stroke="#000000" stroke-width="2" d="M 36.7,70" />
<path stroke="#000000" stroke-width="2" d="M 46.7,30 39,48.5 44,48.5 44,68.5" />
<path stroke="#000000" stroke-width="2" d="M 44,58.5" />
<path stroke="#000000" stroke-width="2" d="M 40,58.5 48,58.5" />
</svg>