<svg xmlns="http://www.w3.org/2000/svg" width="71.3330660039363" height="82.0" style="fill:none; stroke-linecap:round;">
    <rect width="100%" height="100%" fill="#FFFFFF" />
<path stroke="#000000" stroke-width="2" d="M 75,75" />
<path stroke="#000000" stroke-width="2" d="M 20,35 20.3,35.3 20.6,35.6 21,35.8 21.4,36.1 21.8,36.2 22.2,36.4 22.6,36.5 23,36.6 23.5,36.6 23.9,36.6 24.3,36.6 24.8,36.5 25.2,36.4 25.6,36.2 26,36.1 26.4,35.8 26.7,35.6 27.1,35.3 27.4,35 27.7,34.7 27.9,34.3 28.1,33.9 28.3,33.5 28.5,33.1 28.6,32.7 28.6,32.3 28.7,31.8 28.7,31.4 28.6,31 28.6,30.5 28.5,30.1 28.3,29.7 28.1,29.3 27.9,28.9 27.7,28.6 27.4,28.2 27.1,27.9 26.7,27.7 26.4,27.4 26,27.2 25.6,27 25.2,26.9 24.8,26.7 24.3,26.7 23.9,26.6 23.5,26.6 23,26.7 22.6,26.7 22.2,26.9 21.8,27 21.4,27.2 21,27.4 20.6,27.7 20.3,27.9 20,28.2 19.7,28.6 19.5,28.9 19.3,29.3 19.1,29.7 18.9,30.1 18.8,30.5 18.7,31 18.7,31.4 18.7,31.8 18.7,32.3 18.8,32.7 18.9,33.1 19.1,33.5 19.3,33.9 19.5,34.3 19.7,34.7 20,35 20,50" />
<path stroke="#000000" stroke-width="2" d="M 20,42" />
<path stroke="#000000" stroke-width="2" d="M 16,42 24,42 24,62 14,62" />
<path stroke="#000000" stroke-width="2" d="M 35.3,70" />
<path stroke="#000000" stroke-width="2" d="M 35.3,40 35.3,39.3 35.4,38.6 35.5,37.9 35.7,37.2 35.9,36.6 36.2,36 36.6,35.4 37,34.8 37.4,34.2 37.9,33.8 38.5,33.3 39,32.9 39.6,32.6 40.3,32.3 40.9,32 41.6,31.8 42.3,31.7 43,31.7 43.7,31.7 44.4,31.7 45.1,31.8 45.7,32 46.4,32.3 47,32.6 47.6,32.9 48.2,33.3 48.7,33.8 49.2,34.2 49.7,34.8 50.1,35.4 50.4,36 50.7,36.6 51,37.2 51.2,37.9 51.3,38.6 51.3,39.3 43.7,57.8" />
</svg>