<svg xmlns="http://www.w3.org/2000/svg" width="56.52352091615905" height="82.0" style="fill:none; stroke-linecap:round;">
    <rect width="100%" height="100%" fill="#FFFFFF" />
<path stroke="#000000" stroke-width="2" d="M 75,75" />
<path stroke="#000000" stroke-width="2" d="M 20,35" />
<path stroke="#000000" stroke-width="2" d="M 20,35 22,34.9 23.6,34.6 24.9,34.1 25.8,33.6 26.3,32.9 26.6,32.2 26.7,31.4 26.5,30.7 26.1,30 25.6,29.4 25,28.9 24.3,28.5 23.6,28.3 22.8,28.4 22.1,28.7 21.4,29.2 20.9,30.1 20.4,31.4 20.1,33 20,35 20,50" />
<path stroke="#000000" stroke-width="2" d="M 20,42" />
<path stroke="#000000" stroke-width="2" d="M 16,42 24,42 24,62 29.7,56.3" />
<path stroke="#000000" stroke-width="2" d="M 36.3,70" />
<path stroke="#000000" stroke-width="2" d="M 36.3,20 36.5,20 36.5,20.2 36.3,20.2 36.3,20" />
</svg>