<svg xmlns="http://www.w3.org/2000/svg" width="96.00734689794811" height="90.0" style="fill:none; stroke-linecap:round;">
    <rect width="100%" height="100%" fill="#FFFFFF" />
<path stroke="#000000" stroke-width="2" d="M 75,75" />
<path stroke="#000000" stroke-width="2" d="M 20,35 20.3,35.3 20.6,35.6 21,35.8 21.4,36.1 21.8,36.2 22.2,36.4 22.6,36.5 23,36.6 23.5,36.6 23.9,36.6 24.3,36.6 24.8,36.5 25.2,36.4 25.6,36.2 26,36.1 26.4,35.8 26.7,35.6 27.1,35.3 27.4,35 27.7,34.7 27.9,34.3 28.1,33.9 28.3,33.5 28.5,33.1 28.6,32.7 28.6,32.3 28.7,31.8 28.7,31.4 28.6,31 28.6,30.5 28.5,30.1 28.3,29.7 28.1,29.3 27.9,28.9 27.7,28.6 27.4,28.2 27.1,27.9 26.7,27.7 26.4,27.4 26,27.2 25.6,27 25.2,26.9 24.8,26.7 24.3,26.7 23.9,26.6 23.5,26.6 23,26.7 22.6,26.7 22.2,26.9 21.8,27 21.4,27.2 21,27.4 20.6,27.7 20.3,27.9 20,28.2 19.7,28.6 19.5,28.9 19.3,29.3 19.1,29.7 18.9,30.1 18.8,30.5 18.7,31 18.7,31.4 18.7,31.8 18.7,32.3 18.8,32.7 18.9,33.1 19.1,33.5 19.3,33.9 19.5,34.3 19.7,34.7 20,35 20,50" />
<path stroke="#000000" stroke-width="2" d="M 20,40" />
<path stroke="#000000" stroke-width="2" d="M 16,40 16,40.3 16,40.7 16.1,41 16.2,41.4 16.3,41.7 16.4,42 16.6,42.3 16.8,42.6 17,42.9 17.3,43.1 17.6,43.3 17.8,43.5 18.1,43.7 18.5,43.9 18.8,44 19.1,44.1 19.5,44.1 19.8,44.2 20.2,44.2 20.5,44.1 20.9,44.1 21.2,44 21.5,43.9 21.8,43.7 22.1,43.5 22.4,43.3 22.7,43.1 22.9,42.9 23.2,42.6 23.4,42.3 23.5,42 23.7,41.7 23.8,41.4 23.9,41 24,40.7 24,40.3 24.3,40.7 24.6,40.9 25,41.2 25.4,41.4 25.8,41.6 26.2,41.7 26.6,41.9 27,41.9 27.5,42 27.9,42 28.3,41.9 28.8,41.9 29.2,41.7 29.6,41.6 30,41.4 30.4,41.2 30.7,40.9 31.1,40.7 31.4,40.3 31.6,40 31.9,39.7 32.1,39.3 32.3,38.9 32.4,38.5 32.6,38.1 32.6,37.6 32.7,37.2 32.7,36.8 32.6,36.3 32.6,35.9 32.4,35.5 32.3,35.1 32.1,34.7 31.9,34.3 31.6,33.9 31.4,33.6 31.1,33.3 30.7,33 30.4,32.8 30,32.5 29.6,32.4 29.2,32.2 28.8,32.1 28.3,32 27.9,32 27.5,32 27,32 26.6,32.1 26.2,32.2 25.8,32.4 25.4,32.5 25,32.8 24.6,33 24.3,33.3 24,33.6 23.7,33.9 23.5,34.3 23.2,34.7 23.1,35.1 22.9,35.5 22.8,35.9 22.7,36.3 22.7,36.8 22.7,37.2 22.7,37.6 22.8,38.1 22.9,38.5 23.1,38.9 23.2,39.3 23.5,39.7 23.7,40 24,40.3 24,55.3" />
<path stroke="#000000" stroke-width="2" d="M 39.3,70" />
<path stroke="#000000" stroke-width="2" d="M 39.3,50 59.3,50" />
<path stroke="#000000" stroke-width="2" d="M 66,70" />
<path stroke="#000000" stroke-width="2" d="M 76,30 66,30 66,70" />
</svg>