<svg xmlns="http://www.w3.org/2000/svg" width="115.94963719660764" height="75.34895509892269" style="fill:none; stroke-linecap:round;">
    <rect width="100%" height="100%" fill="#FFFFFF" />
<path stroke="#000000" stroke-width="2" d="M 75,75" />
<path stroke="#000000" stroke-width="2" d="M 20,35" />
<path stroke="#000000" stroke-width="2" d="M 20,35 22,34.9 23.6,34.6 24.9,34.1 25.8,33.6 26.3,32.9 26.6,32.2 26.7,31.4 26.5,30.7 26.1,30 25.6,29.4 25,28.9 24.3,28.5 23.6,28.3 22.8,28.4 22.1,28.7 21.4,29.2 20.9,30.1 20.4,31.4 20.1,33 20,35 20,50" />
<path stroke="#000000" stroke-width="2" d="M 20,40" />
<path stroke="#000000" stroke-width="2" d="M 16,40 16,40.3 16,40.7 16.1,41 16.2,41.4 16.3,41.7 16.4,42 16.6,42.3 16.8,42.6 17,42.9 17.3,43.1 17.6,43.3 17.8,43.5 18.1,43.7 18.5,43.9 18.8,44 19.1,44.1 19.5,44.1 19.8,44.2 20.2,44.2 20.5,44.1 20.9,44.1 21.2,44 21.5,43.9 21.8,43.7 22.1,43.5 22.4,43.3 22.7,43.1 22.9,42.9 23.2,42.6 23.4,42.3 23.5,42 23.7,41.7 23.8,41.4 23.9,41 24,40.7 24,40.3" />
<path stroke="#000000" stroke-width="2" d="M 24,40.3 26,40.2 27.6,39.9 28.9,39.5 29.8,38.9 30.3,38.2 30.6,37.5 30.6,36.8 30.5,36 30.1,35.3 29.6,34.7 29,34.2 28.3,33.9 27.6,33.7 26.8,33.7 26.1,34 25.4,34.6 24.9,35.5 24.4,36.7 24.1,38.3 24,40.3 24,55.3" />
<path stroke="#000000" stroke-width="2" d="M 37.3,70" />
<path stroke="#000000" stroke-width="2" d="M 37.3,50 57.3,50" />
<path stroke="#000000" stroke-width="2" d="M 64,70" />
<path stroke="#000000" stroke-width="2" d="M 64,46 64,44.6 64.1,43.2 64.3,41.8 64.7,40.5 65.2,39.2 65.8,37.9 66.5,36.7 67.3,35.6 68.2,34.5 69.2,33.5 70.2,32.6 71.4,31.8 72.6,31.1 73.8,30.5 75.2,30 76.5,29.7 77.9,29.4 79.3,29.3 80.7,29.3 82.1,29.4 83.4,29.7 84.8,30 86.1,30.5 87.4,31.1 88.6,31.8 89.7,32.6 90.8,33.5 91.8,34.5 92.7,35.6 93.5,36.7 94.2,37.9 94.7,39.2 95.2,40.5 95.6,41.8 95.8,43.2 95.9,44.6" />
</svg>