<svg xmlns="http://www.w3.org/2000/svg" width="71.56728636153008" height="78.47759065022574" style="fill:none; stroke-linecap:round;">
    <rect width="100%" height="100%" fill="#FFFFFF" />
<path stroke="#000000" stroke-width="2" d="M 75,75" />
<path stroke="#000000" stroke-width="2" d="M 30,30 22.3,48.5" />
<path stroke="#000000" stroke-width="2" d="M 22.3,38.5 30.3,38.5 35.3,38.5 35.3,58.5" />
<path stroke="#000000" stroke-width="2" d="M 42,70" />
<path stroke="#000000" stroke-width="2" d="M 42,20 42,40 42,34 42,33.1 42.1,32.3 42.2,31.4 42.5,30.6 42.8,29.7 43.1,28.9 43.6,28.2 44.1,27.5 44.6,26.8 45.2,26.2 45.9,25.6 46.6,25.1 47.4,24.7 48.2,24.3 49,24 49.8,23.8 50.7,23.6 51.6,23.6" />
</svg>