<svg xmlns="http://www.w3.org/2000/svg" width="70.70891397295077" height="77.52343264838403" style="fill:none; stroke-linecap:round;">
    <rect width="100%" height="100%" fill="#FFFFFF" />
<path stroke="#000000" stroke-width="2" d="M 75,75" />
<path stroke="#000000" stroke-width="2" d="M 20,30 23.8,39.2" />
<path stroke="#000000" stroke-width="2" d="M 23.8,39.2 25.8,41.4 27.1,43.3 27.8,45 28.1,46.4 28,47.7 27.6,48.7 26.9,49.5 26,50 24.9,50.4 23.8,50.5 22.7,50.4 21.7,50 20.8,49.5 20,48.7 19.6,47.7 19.5,46.4 19.8,45 20.6,43.3 21.9,41.4 23.8,39.2 27.7,30" />
<path stroke="#000000" stroke-width="2" d="M 27.7,38" />
<path stroke="#000000" stroke-width="2" d="M 17.7,38 31.7,38 31.7,42 31.7,42.5 31.7,43 31.8,43.6 31.9,44.1 32.1,44.6 32.3,45 32.6,45.5 32.9,45.9 33.2,46.3 33.6,46.7 34,47 34.4,47.3 34.9,47.6 35.4,47.8 35.8,48 36.3,48.1 36.9,48.2 37.4,48.3 37.9,48.3 38.4,48.2 38.9,48.1 39.5,48 39.9,47.8 40.4,47.6 40.9,47.3 41.3,47 41.7,46.7 42.1,46.3 42.4,45.9 42.7,45.5 43,45 43.2,44.6 43.4,44.1 43.5,43.6 43.6,43 43.6,42.5 43.6,37.5 43.6,57.5" />
<path stroke="#000000" stroke-width="2" d="M 50.3,70" />
<path stroke="#000000" stroke-width="2" d="M 50.3,50 50.7,50 50.7,50.4 50.3,50.4 50.3,50" />
</svg>