<svg xmlns="http://www.w3.org/2000/svg" width="146.96840906588935" height="118.34134087157756" style="fill:none; stroke-linecap:round;">
    <rect width="100%" height="100%" fill="#FFFFFF" />
<path stroke="#000000" stroke-width="2" d="M 75,75" />
<path stroke="#000000" stroke-width="2" d="M 20,30 35.3,67 50.6,30" />
<path stroke="#000000" stroke-width="2" d="M 57.3,70" />
<path stroke="#000000" stroke-width="2" d="M 57.3,20 57.3,40 57.3,34 57.3,33.1 57.4,32.3 57.5,31.4 57.7,30.6 58,29.7 58.4,28.9 58.8,28.2 59.3,27.5 59.9,26.8 60.5,26.2 61.2,25.6 61.9,25.1 62.7,24.7 63.4,24.3 64.3,24 65.1,23.8 66,23.6 66.8,23.6" />
<path stroke="#000000" stroke-width="2" d="M 73.5,70" />
<path stroke="#000000" stroke-width="2" d="M 73.5,70 88.8,33 104.1,70 104.1,90 104.1,90.7 104.2,91.4 104.3,92.1 104.5,92.8 104.7,93.4 105,94 105.4,94.6 105.8,95.2 106.2,95.8 106.7,96.2 107.2,96.7 107.8,97.1 108.4,97.4 109,97.7 109.7,98 110.4,98.2 111.1,98.3 111.8,98.3 112.5,98.3 113.2,98.3 113.8,98.2 114.5,98 115.2,97.7 115.8,97.4 116.4,97.1 117,96.7 117.5,96.2 118,95.8 118.5,95.2 118.9,94.6 119.2,94 119.5,93.4 119.7,92.8 119.9,92.1 120,91.4 120.1,90.7" />
<path stroke="#000000" stroke-width="2" d="M 126.8,70" />
<path stroke="#000000" stroke-width="2" d="M 126.8,20 127,20 127,20.2 126.8,20.2 126.8,20" />
</svg>