<svg xmlns="http://www.w3.org/2000/svg" width="95.2661128011836" height="86.95518130045147" style="fill:none; stroke-linecap:round;">
    <rect width="100%" height="100%" fill="#FFFFFF" />
<path stroke="#000000" stroke-width="2" d="M 75,75" />
<path stroke="#000000" stroke-width="2" d="M 20,30 35.3,67 50.6,30" />
<path stroke="#000000" stroke-width="2" d="M 50.6,50" />
<path stroke="#000000" stroke-width="2" d="M 18.6,50 52.6,50" />
<path stroke="#000000" stroke-width="2" d="M 59.3,70" />
<path stroke="#000000" stroke-width="2" d="M 59.3,20 59.3,40 59.3,40.7 59.3,41.4 59.5,42.1 59.6,42.8 59.9,43.4 60.2,44 60.5,44.6 60.9,45.2 61.4,45.8 61.9,46.2 62.4,46.7 63,47.1 63.6,47.4 64.2,47.7 64.9,48 65.5,48.2 66.2,48.3 66.9,48.3 67.6,48.3 68.3,48.3 69,48.2 69.7,48 70.3,47.7 71,47.4 71.6,47.1 72.1,46.7 72.7,46.2 73.2,45.8 73.6,45.2 74,44.6 74.4,44 74.7,43.4 74.9,42.8 75.1,42.1 75.2,41.4 75.3,40.7" />
</svg>