<svg xmlns="http://www.w3.org/2000/svg" width="82.46258262025256" height="90.0" style="fill:none; stroke-linecap:round;">
    <rect width="100%" height="100%" fill="#FFFFFF" />
<path stroke="#000000" stroke-width="2" d="M 75,75" />
<path stroke="#000000" stroke-width="2" d="M 20,30 27.7,48.5 35.3,30" />
<path stroke="#000000" stroke-width="2" d="M 35.3,40" />
<path stroke="#000000" stroke-width="2" d="M 19.3,40 36.3,40 36.3,44 36.3,44.5 36.4,45 36.4,45.6 36.6,46.1 36.8,46.6 37,47 37.2,47.5 37.5,47.9 37.9,48.3 38.2,48.7 38.6,49 39.1,49.3 39.5,49.6 40,49.8 40.5,50 41,50.1 41.5,50.2 42,50.3 42.6,50.3 43.1,50.2 43.6,50.1 44.1,50 44.6,49.8 45.1,49.6 45.5,49.3 46,49 46.4,48.7 46.7,48.3 47.1,47.9 47.4,47.5 47.6,47 47.8,46.6 48,46.1 48.2,45.6 48.3,45 48.3,44.5 48.3,39.5 48.3,59.5" />
<path stroke="#000000" stroke-width="2" d="M 55,70" />
<path stroke="#000000" stroke-width="2" d="M 55,50" />
<path stroke="#000000" stroke-width="2" d="M 55,50 56.4,50.1 57.7,50.6 58.8,51.2 59.8,52.1 60.6,53.1 61.3,54.3 61.8,55.6 62.2,57 62.4,58.5 62.5,60 62.4,61.5 62.2,63 61.8,64.4 61.3,65.7 60.6,66.9 59.8,67.9 58.8,68.8 57.7,69.4 56.4,69.9 55,70" />
</svg>