<svg xmlns="http://www.w3.org/2000/svg" width="85.38925870972452" height="89.98096443163716" style="fill:none; stroke-linecap:round;">
    <rect width="100%" height="100%" fill="#FFFFFF" />
<path stroke="#000000" stroke-width="2" d="M 75,75" />
<path stroke="#000000" stroke-width="2" d="M 20,30 27.7,48.5 35.3,30" />
<path stroke="#000000" stroke-width="2" d="M 35.3,40" />
<path stroke="#000000" stroke-width="2" d="M 19.3,40 36.3,40 36.3,44 36.3,44.5 36.4,45 36.4,45.6 36.6,46.1 36.8,46.6 37,47 37.2,47.5 37.5,47.9 37.9,48.3 38.2,48.7 38.6,49 39.1,49.3 39.5,49.6 40,49.8 40.5,50 41,50.1 41.5,50.2 42,50.3 42.6,50.3 43.1,50.2 43.6,50.1 44.1,50 44.6,49.8 45.1,49.6 45.5,49.3 46,49 46.4,48.7 46.7,48.3 47.1,47.9 47.4,47.5 47.6,47 47.8,46.6 48,46.1 48.2,45.6 48.3,45 48.3,44.5 48.3,39.5 48.3,59.5" />
<path stroke="#000000" stroke-width="2" d="M 55,70" />
<path stroke="#000000" stroke-width="2" d="M 55,50 55.8,50 56.7,50.1 57.6,50.2 58.4,50.5 59.2,50.8 60,51.1 60.8,51.6 61.5,52.1 62.2,52.6 62.8,53.2 63.3,53.9 63.8,54.6 64.3,55.4 64.6,56.2 64.9,57 65.2,57.8 65.3,58.7 65.4,59.6 65.4,60.4 65.3,61.3 65.2,62.2 64.9,63 64.6,63.8 64.3,64.6 63.8,65.4 63.3,66.1 62.8,66.7 62.2,67.4 61.5,67.9 60.8,68.4 60,68.9 59.2,69.2 58.4,69.5 57.6,69.8 56.7,69.9 55.8,70" />
</svg>