<svg xmlns="http://www.w3.org/2000/svg" width="58.65524532564898" height="90.0" style="fill:none; stroke-linecap:round;">
    <rect width="100%" height="100%" fill="#FFFFFF" />
<path stroke="#000000" stroke-width="2" d="M 175,75" />
<path stroke="#000000" stroke-width="2" d="M 20,30 20,70" />
<path stroke="#000000" stroke-width="2" d="M 26.7,70" />
<path stroke="#000000" stroke-width="2" d="M 26.7,26 26.7,26.5 26.7,27 26.8,27.6 26.9,28.1 27.1,28.6 27.3,29 27.6,29.5 27.9,29.9 28.2,30.3 28.6,30.7 29,31 29.4,31.3 29.9,31.6 30.4,31.8 30.9,32 31.4,32.1 31.9,32.2 32.4,32.3 32.9,32.3 33.4,32.2 34,32.1 34.5,32 35,31.8 35.4,31.6 35.9,31.3 36.3,31 36.7,30.7 37.1,30.3 37.4,29.9 37.7,29.5 38,29 38.2,28.6 38.4,28.1 38.5,27.6 38.6,27 38.7,26.5 38.7,26 38.6,25.5 38.5,25 38.4,24.5 38.2,24 38,23.5 37.7,23 37.4,22.6 37.1,22.2 36.7,21.8 36.3,21.5 35.9,21.2 35.4,20.9 35,20.7 34.5,20.5 34,20.4 33.4,20.3 32.9,20.3 32.4,20.3 31.9,20.3 31.4,20.4 30.9,20.5 30.4,20.7 29.9,20.9 29.4,21.2 29,21.5 28.6,21.8 28.2,22.2 27.9,22.6 27.6,23 27.3,23.5 27.1,24 26.9,24.5 26.8,25 26.7,25.5 26.7,26 26.7,30" />
<path stroke="#000000" stroke-width="2" d="M 26.7,30 27,30.9 27.3,31.7 27.7,32.4 28.1,33.1 28.5,33.8 29,34.4 29.4,34.9 29.9,35.4 30.4,35.9 30.9,36.2 31.4,36.6 32,36.9 32.6,37.2 33.1,37.4 33.7,37.6 34.3,37.7 34.9,37.9 35.5,37.9 36.1,38 36.7,38" />
</svg>