<svg xmlns="http://www.w3.org/2000/svg" width="324.0882307860116" height="90.2" style="fill:none; stroke-linecap:round;">
    <rect width="100%" height="100%" fill="#FFFFFF" />
<path stroke="#000000" stroke-width="2" d="M 550,75" />
<path stroke="#000000" stroke-width="2" d="M 20,70 20.2,70 20.2,70.2 20,70.2 20,70" />
<path stroke="#000000" stroke-width="2" d="M 26.9,70" />
<path stroke="#000000" stroke-width="2" d="M 26.9,30 42.2,67" />
<path stroke="#000000" stroke-width="2" d="M 48.8,70" />
<path stroke="#000000" stroke-width="2" d="M 48.8,50 48.8,70 48.8,64 48.8,63.1 48.9,62.3 49.1,61.4 49.3,60.6 49.6,59.7 50,58.9 50.4,58.2 50.9,57.5 51.5,56.8 52.1,56.2 52.7,55.6 53.5,55.1 54.2,54.7 55,54.3 55.8,54 56.7,53.8 57.5,53.6 58.4,53.6" />
<path stroke="#000000" stroke-width="2" d="M 88.4,70" />
<path stroke="#000000" stroke-width="2" d="M 88.4,30" />
<path stroke="#000000" stroke-width="2" d="M 88.4,30 91.2,30.3 93.8,31.1 96,32.4 98,34.2 99.6,36.2 101,38.6 102,41.3 102.8,44.1 103.2,47 103.4,50 103.2,53 102.8,55.9 102,58.7 101,61.4 99.6,63.8 98,65.8 96,67.6 93.8,68.9 91.2,69.7 88.4,70" />
<path stroke="#000000" stroke-width="2" d="M 110.1,70" />
<path stroke="#000000" stroke-width="2" d="M 110.1,20 110.1,40 110.1,34 110.1,33.1 110.1,32.3 110.3,31.4 110.5,30.6 110.8,29.7 111.2,28.9 111.6,28.2 112.1,27.5 112.7,26.8 113.3,26.2 114,25.6 114.7,25.1 115.4,24.7 116.2,24.3 117,24 117.9,23.8 118.7,23.6 119.6,23.6 119.6,22.9 119.7,22.2 119.8,21.5 120,20.8 120.2,20.2 120.5,19.5 120.9,18.9 121.3,18.4 121.7,17.8 122.2,17.3 122.7,16.9 123.3,16.5 123.9,16.1 124.5,15.8 125.2,15.6 125.9,15.4 126.6,15.3 127.3,15.2 128,15.2 128.7,15.3 129.3,15.4 130,15.6 130.7,15.8 131.3,16.1 131.9,16.5 132.5,16.9 133,17.3 133.5,17.8 134,18.4 134.4,18.9 134.7,19.5 135,20.2 135.2,20.8 135.4,21.5 135.5,22.2 135.6,22.9 155.6,22.9 149.9,28.5 150.5,28.5 151,28.6 151.5,28.7 152,28.8 152.5,29 153,29.2 153.4,29.5 153.9,29.8 154.3,30.1 154.6,30.5 155,30.9 155.3,31.3 155.5,31.8 155.7,32.2 155.9,32.7 156.1,33.2 156.2,33.7 156.2,34.3 156.2,34.8 156.2,35.3 156.1,35.8 155.9,36.3 155.7,36.8 155.5,37.3 155.3,37.8 155,38.2 154.6,38.6 154.3,39 153.9,39.3 153.4,39.6 153,39.8 152.5,40.1 152,40.2 151.5,40.4 151,40.5 150.5,40.5" />
<path stroke="#000000" stroke-width="2" d="M 186.2,70" />
<path stroke="#000000" stroke-width="2" d="M 186.2,30 186.2,50 196.2,50" />
<path stroke="#000000" stroke-width="2" d="M 196.2,50 198.2,49.9 199.8,49.6 201.1,49.1 202,48.6 202.5,47.9 202.8,47.2 202.9,46.4 202.7,45.7 202.3,45 201.8,44.4 201.2,43.9 200.5,43.5 199.8,43.3 199,43.4 198.3,43.7 197.6,44.2 197.1,45.1 196.6,46.4 196.3,48 196.2,50 196.2,65" />
<path stroke="#000000" stroke-width="2" d="M 232.9,70" />
<path stroke="#000000" stroke-width="2" d="M 232.9,30 232.9,70 232.9,58 232.9,56.3 233,54.5 233.3,52.8 233.8,51.1 234.4,49.5 235.1,47.9 236,46.4 237,45 238.1,43.6 239.3,42.4 240.7,41.3 242.1,40.3 243.6,39.4 245.2,38.7 246.8,38.1 248.5,37.6 250.2,37.3 252,37.1" />
<path stroke="#000000" stroke-width="2" d="M 258.6,70" />
<path stroke="#000000" stroke-width="2" d="M 258.6,20 266.3,38.5 273.9,20" />
<path stroke="#000000" stroke-width="2" d="M 280.6,70" />
<path stroke="#000000" stroke-width="2" d="M 280.6,20 280.6,20.7 280.7,21.4 280.8,22.1 281,22.8 281.2,23.4 281.5,24 281.8,24.6 282.2,25.2 282.7,25.8 283.2,26.2 283.7,26.7 284.3,27.1 284.9,27.4 285.5,27.7 286.2,28 286.9,28.2 287.6,28.3 288.2,28.3 288.9,28.3 289.6,28.3 290.3,28.2 291,28 291.7,27.7 292.3,27.4 292.9,27.1 293.5,26.7 294,26.2 294.5,25.8 294.9,25.2 295.3,24.6 295.7,24 296,23.4 296.2,22.8 296.4,22.1 296.5,21.4 296.6,20.7" />
<path stroke="#000000" stroke-width="2" d="M 296.6,20.7 298,20.8 299.3,21.3 300.4,21.9 301.4,22.8 302.2,23.8 302.9,25 303.4,26.3 303.8,27.7 304,29.2 304.1,30.7 304,32.2 303.8,33.7 303.4,35.1 302.9,36.4 302.2,37.6 301.4,38.6 300.4,39.5 299.3,40.1 298,40.6 296.6,40.7" />
<path stroke="#000000" stroke-width="2" d="M 334.1,70" />
</svg>