<svg xmlns="http://www.w3.org/2000/svg" width="325.8868743955561" height="90.2" style="fill:none; stroke-linecap:round;">
    <rect width="100%" height="100%" fill="#FFFFFF" />
<path stroke="#000000" stroke-width="2" d="M 550,75" />
<path stroke="#000000" stroke-width="2" d="M 20,70 20.2,70 20.2,70.2 20,70.2 20,70" />
<path stroke="#000000" stroke-width="2" d="M 26.9,70" />
<path stroke="#000000" stroke-width="2" d="M 26.9,30 26.9,70" />
<path stroke="#000000" stroke-width="2" d="M 33.5,70" />
<path stroke="#000000" stroke-width="2" d="M 33.5,30 33.5,38 33.5,39 33.6,40.1 33.8,41.1 34.1,42.1 34.4,43.1 34.9,44.1 35.4,45 36,45.8 36.7,46.6 37.4,47.4 38.2,48 39.1,48.6 40,49.2 40.9,49.6 41.9,50 42.9,50.2 44,50.4 45,50.5 46,50.5 47.1,50.4 48.1,50.2 49.1,50 50.1,49.6 51.1,49.2 52,48.6 52.8,48 53.6,47.4 54.4,46.6 55,45.8 55.6,45 56.2,44.1 56.6,43.1 57,42.1 57.2,41.1 57.4,40.1 57.5,39 57.5,29 57.5,69 57.5,67.3 57.7,65.6 58,63.8 58.4,62.2 59,60.5 59.8,58.9 60.6,57.4 61.6,56 62.7,54.7 64,53.4 65.3,52.3 66.7,51.3 68.3,50.4 69.8,49.7 71.5,49.1 73.2,48.6 74.9,48.3 76.6,48.2" />
<path stroke="#000000" stroke-width="2" d="M 106.6,70" />
<path stroke="#000000" stroke-width="2" d="M 110.6,30 127.6,47" />
<path stroke="#000000" stroke-width="2" d="M 144.6,30 105,69.6" />
<path stroke="#000000" stroke-width="2" d="M 151.2,70" />
<path stroke="#000000" stroke-width="2" d="M 151.2,50 151.4,50 151.4,50.2 151.2,50.2 151.2,50" />
<path stroke="#000000" stroke-width="2" d="M 181.4,70" />
<path stroke="#000000" stroke-width="2" d="M 181.4,30 181.4,70" />
<path stroke="#000000" stroke-width="2" d="M 188.1,70" />
<path stroke="#000000" stroke-width="2" d="M 188.1,30 188.1,30.7 188.2,31.4 188.3,32.1 188.5,32.8 188.7,33.4 189,34 189.3,34.6 189.7,35.2 190.2,35.8 190.7,36.2 191.2,36.7 191.8,37.1 192.4,37.4 193,37.7 193.7,38 194.4,38.2 195,38.3 195.7,38.3 196.4,38.3 197.1,38.3 197.8,38.2 198.5,38 199.1,37.7 199.8,37.4 200.4,37.1 201,36.7 201.5,36.2 202,35.8 202.4,35.2 202.8,34.6 203.2,34 203.5,33.4 203.7,32.8 203.9,32.1 204,31.4 204.1,30.7" />
<path stroke="#000000" stroke-width="2" d="M 204.1,30.7 205.5,30.8 206.8,31.3 207.9,31.9 208.9,32.8 209.7,33.8 210.4,35 210.9,36.3 211.3,37.7 211.5,39.2 211.6,40.7 211.5,42.2 211.3,43.7 210.9,45.1 210.4,46.4 209.7,47.6 208.9,48.6 207.9,49.5 206.8,50.1 205.5,50.6 204.1,50.7" />
<path stroke="#000000" stroke-width="2" d="M 241.6,70" />
<path stroke="#000000" stroke-width="2" d="M 241.6,70 241.8,70 241.8,70.2 241.6,70.2 241.6,70" />
<path stroke="#000000" stroke-width="2" d="M 248.4,70" />
<path stroke="#000000" stroke-width="2" d="M 248.4,30 248.4,70" />
<path stroke="#000000" stroke-width="2" d="M 255.1,70" />
<path stroke="#000000" stroke-width="2" d="M 255.1,50 275.1,50 280.1,50 280.1,70" />
<path stroke="#000000" stroke-width="2" d="M 286.8,70" />
<path stroke="#000000" stroke-width="2" d="M 286.8,30 286.8,70 286.8,58 286.8,56.3 286.9,54.5 287.2,52.8 287.7,51.1 288.3,49.5 289,47.9 289.9,46.4 290.9,45 292,43.6 293.2,42.4 294.6,41.3 296,40.3 297.5,39.4 299.1,38.7 300.7,38.1 302.4,37.6 304.1,37.3 305.9,37.1" />
<path stroke="#000000" stroke-width="2" d="M 335.9,70" />
</svg>