<svg xmlns="http://www.w3.org/2000/svg" width="402.71190923154074" height="91.25" style="fill:none; stroke-linecap:round;">
    <rect width="100%" height="100%" fill="#FFFFFF" />
<path stroke="#000000" stroke-width="2" d="M 550,75" />
<path stroke="#000000" stroke-width="2" d="M 20,30 27.7,48.5 35.3,30" />
<path stroke="#000000" stroke-width="2" d="M 35.3,40" />
<path stroke="#000000" stroke-width="2" d="M 19.3,40 36.3,40 36.3,39.3 36.4,38.6 36.5,37.9 36.7,37.2 36.9,36.6 37.2,36 37.6,35.4 38,34.8 38.4,34.2 38.9,33.8 39.4,33.3 40,32.9 40.6,32.6 41.2,32.3 41.9,32 42.6,31.8 43.3,31.7 44,31.7 44.6,31.7 45.3,31.7 46,31.8 46.7,32 47.4,32.3 48,32.6 48.6,32.9 49.2,33.3 49.7,33.8 50.2,34.2 50.6,34.8 51,35.4 51.4,36 51.7,36.6 51.9,37.2 52.1,37.9 52.2,38.6 52.3,39.3" />
<path stroke="#000000" stroke-width="2" d="M 59,70" />
<path stroke="#000000" stroke-width="2" d="M 59,50 59,70 59,64 59,63.1 59,62.3 59.2,61.4 59.4,60.6 59.7,59.7 60.1,58.9 60.5,58.2 61,57.5 61.6,56.8 62.2,56.2 62.9,55.6 63.6,55.1 64.3,54.7 65.1,54.3 65.9,54 66.8,53.8 67.6,53.6 68.5,53.6" />
<path stroke="#000000" stroke-width="2" d="M 68.5,53.6 68.4,55.6 68.1,57.2 67.7,58.5 67.1,59.3 66.4,59.9 65.7,60.2 64.9,60.2 64.2,60.1 63.5,59.7 62.9,59.2 62.4,58.6 62,57.9 61.9,57.2 61.9,56.4 62.2,55.7 62.8,55 63.6,54.4 64.9,54 66.5,53.7 68.5,53.6 78.5,53.6" />
<path stroke="#000000" stroke-width="2" d="M 78.5,53.6 80.5,53.5 82.2,53.2 83.4,52.7 84.3,52.1 84.8,51.5 85.1,50.7 85.2,50 85,49.3 84.6,48.6 84.1,47.9 83.5,47.4 82.8,47.1 82.1,46.9 81.3,47 80.6,47.2 80,47.8 79.4,48.7 78.9,49.9 78.6,51.5 78.5,53.6 78.5,68.6" />
<path stroke="#000000" stroke-width="2" d="M 115.2,70" />
<path stroke="#000000" stroke-width="2" d="M 120.2,30" />
<path stroke="#000000" stroke-width="2" d="M 120.2,30 118.7,30.1 117.5,30.6 116.3,31.2 115.4,32.1 114.5,33.1 113.9,34.3 113.3,35.6 113,37 112.7,38.5 112.7,40 112.7,41.5 113,43 113.3,44.4 113.9,45.7 114.5,46.9 115.4,47.9 116.3,48.8 117.5,49.4 118.7,49.9 120.2,50 140.2,50" />
<path stroke="#000000" stroke-width="2" d="M 170.2,70" />
<path stroke="#000000" stroke-width="2" d="M 170.2,30 185.5,67" />
<path stroke="#000000" stroke-width="2" d="M 192.1,70" />
<path stroke="#000000" stroke-width="2" d="M 192.1,50" />
<path stroke="#000000" stroke-width="2" d="M 192.1,50 192.3,50 192.7,50 193.4,50 194.2,50.1 195.3,50.2 196.5,50.3 197.8,50.4 199.2,50.6 200.6,50.9 202.1,51.2 203.6,51.7 205.1,52.2 206.5,52.7 207.8,53.4 209,54.2 210.1,55.1 210.9,56.1 211.6,57.3 212,58.6 212.1,60" />
<path stroke="#000000" stroke-width="2" d="M 212.1,60 214.1,62.1 215.4,64.1 216.2,65.7 216.5,67.2 216.4,68.4 215.9,69.5 215.2,70.2 214.3,70.8 213.3,71.1 212.1,71.2 211,71.1 210,70.8 209.1,70.2 208.4,69.5 207.9,68.4 207.8,67.2 208.1,65.7 208.9,64 210.2,62.1 212.1,60" />
<path stroke="#000000" stroke-width="2" d="M 212.1,60 212.1,59.9 212.2,59.7 212.2,59.4 212.3,59 212.5,58.4 212.7,57.8 213,57.2 213.4,56.5 214,55.7 214.6,55 215.5,54.3 216.5,53.5 217.6,52.8 219,52.2 220.6,51.6 222.4,51 224.4,50.6 226.7,50.3 229.3,50.1 232.1,50 252.1,50 244.5,68.5" />
<path stroke="#000000" stroke-width="2" d="M 282.1,70" />
<path stroke="#000000" stroke-width="2" d="M 282.1,30 297.4,67 312.8,30" />
<path stroke="#000000" stroke-width="2" d="M 312.8,50" />
<path stroke="#000000" stroke-width="2" d="M 280.8,50 314.8,50" />
<path stroke="#000000" stroke-width="2" d="M 321.4,70" />
<path stroke="#000000" stroke-width="2" d="M 321.4,25" />
<path stroke="#000000" stroke-width="2" d="M 321.4,25 323.5,24.9 325.1,24.6 326.3,24.1 327.2,23.6 327.8,22.9 328,22.2 328.1,21.4 327.9,20.7 327.5,20 327,19.4 326.4,18.9 325.7,18.5 325,18.3 324.3,18.4 323.5,18.7 322.9,19.2 322.3,20.1 321.8,21.4 321.5,23 321.4,25 321.4,40 313.8,58.5" />
<path stroke="#000000" stroke-width="2" d="M 358.1,70" />
<path stroke="#000000" stroke-width="2" d="M 358.1,30 358.1,70 369.4,58.7" />
<path stroke="#000000" stroke-width="2" d="M 376.1,70" />
<path stroke="#000000" stroke-width="2" d="M 376.1,25" />
<path stroke="#000000" stroke-width="2" d="M 376.1,25 378.1,24.9 379.7,24.6 380.9,24.1 381.8,23.6 382.4,22.9 382.7,22.2 382.7,21.4 382.5,20.7 382.2,20 381.7,19.4 381.1,18.9 380.4,18.5 379.6,18.3 378.9,18.4 378.2,18.7 377.5,19.2 376.9,20.1 376.5,21.4 376.2,23 376.1,25 376.1,40" />
<path stroke="#000000" stroke-width="2" d="M 412.7,70" />
</svg>