<svg xmlns="http://www.w3.org/2000/svg" width="417.7539790493593" height="88.47759065022574" style="fill:none; stroke-linecap:round;">
    <rect width="100%" height="100%" fill="#FFFFFF" />
<path stroke="#000000" stroke-width="2" d="M 550,75" />
<path stroke="#000000" stroke-width="2" d="M 30,30 29.1,30 28.3,30.1 27.4,30.2 26.6,30.5 25.7,30.8 24.9,31.1 24.2,31.6 23.5,32.1 22.8,32.6 22.2,33.2 21.6,33.9 21.1,34.6 20.7,35.4 20.3,36.2 20,37 19.8,37.8 19.6,38.7 19.6,39.6 19.6,40.4 19.6,41.3 19.8,42.2 20,43 20.3,43.8 20.7,44.6 21.1,45.4 21.6,46.1 22.2,46.7 22.8,47.4 23.5,47.9 24.2,48.4 24.9,48.9 25.7,49.2 26.6,49.5 27.4,49.8 28.3,49.9 29.1,50 49.1,50" />
<path stroke="#000000" stroke-width="2" d="M 49.1,50 51.2,49.9 52.8,49.6 54,49.1 54.9,48.5 55.5,47.9 55.7,47.1 55.8,46.4 55.6,45.7 55.3,45 54.8,44.4 54.1,43.9 53.4,43.5 52.7,43.3 52,43.4 51.2,43.7 50.6,44.2 50,45.1 49.5,46.3 49.2,48 49.1,50 49.1,65" />
<path stroke="#000000" stroke-width="2" d="M 85.8,70" />
<path stroke="#000000" stroke-width="2" d="M 85.8,40 86,40 86,40.2 85.8,40.2 85.8,40" />
<path stroke="#000000" stroke-width="2" d="M 92.6,70" />
<path stroke="#000000" stroke-width="2" d="M 112.6,30 92.8,49.8" />
<path stroke="#000000" stroke-width="2" d="M 92.8,29.8 112.6,49.6 105,68.1 107.3,62.5 107.6,61.7 108,61 108.5,60.2 109,59.5 109.6,58.9 110.3,58.3 111,57.8 111.7,57.3 112.5,56.9 113.3,56.6 114.1,56.3 115,56.1" />
<path stroke="#000000" stroke-width="2" d="M 121.6,70" />
<path stroke="#000000" stroke-width="2" d="M 121.6,20 129.3,38.5 129.3,39.2 129.3,39.9 129.5,40.6 129.6,41.2 129.9,41.9 130.2,42.5 130.5,43.1 130.9,43.7 131.4,44.2 131.9,44.7 132.4,45.2 133,45.6 133.6,45.9 134.2,46.2 134.9,46.5 135.5,46.6 136.2,46.8 136.9,46.8 137.6,46.8 138.3,46.8 139,46.6 139.7,46.5 140.3,46.2 141,45.9 141.6,45.6 142.1,45.2 142.7,44.7 143.2,44.2 143.6,43.7 144,43.1 144.4,42.5 144.7,41.9 144.9,41.2 145.1,40.6 145.2,39.9 145.3,39.2" />
<path stroke="#000000" stroke-width="2" d="M 151.9,70" />
<path stroke="#000000" stroke-width="2" d="M 151.9,30 152.1,30 152.1,30.2 151.9,30.2 151.9,30" />
<path stroke="#000000" stroke-width="2" d="M 182.1,70" />
<path stroke="#000000" stroke-width="2" d="M 182.1,30 197.4,67" />
<path stroke="#000000" stroke-width="2" d="M 204.1,70" />
<path stroke="#000000" stroke-width="2" d="M 214.1,50 206.4,68.5" />
<path stroke="#000000" stroke-width="2" d="M 220.8,70" />
<path stroke="#000000" stroke-width="2" d="M 220.8,30 236.1,67 251.4,30" />
<path stroke="#000000" stroke-width="2" d="M 258,70" />
<path stroke="#000000" stroke-width="2" d="M 268,20 260.4,38.5" />
<path stroke="#000000" stroke-width="2" d="M 274.7,70" />
<path stroke="#000000" stroke-width="2" d="M 274.7,20" />
<path stroke="#000000" stroke-width="2" d="M 274.7,20 276.1,20.1 277.4,20.6 278.5,21.2 279.5,22.1 280.3,23.1 281,24.3 281.5,25.6 281.9,27 282.1,28.5 282.2,30 282.1,31.5 281.9,33 281.5,34.4 281,35.7 280.3,36.9 279.5,37.9 278.5,38.8 277.4,39.4 276.1,39.9 274.7,40" />
<path stroke="#000000" stroke-width="2" d="M 312.2,70" />
<path stroke="#000000" stroke-width="2" d="M 328.2,30" />
<path stroke="#000000" stroke-width="2" d="M 328.2,30 328,34.1 327.4,37.3 326.5,39.8 325.3,41.5 324,42.7 322.5,43.2 321,43.3 319.6,43 318.2,42.3 317,41.2 316,40 315.3,38.6 314.9,37.2 315,35.7 315.6,34.2 316.7,32.9 318.5,31.7 320.9,30.8 324.2,30.2 328.2,30 348.2,30" />
<path stroke="#000000" stroke-width="2" d="M 354.9,70" />
<path stroke="#000000" stroke-width="2" d="M 354.9,20 354.9,40 354.9,34 354.9,33.1 355,32.3 355.1,31.4 355.3,30.6 355.6,29.7 356,28.9 356.4,28.2 356.9,27.5 357.5,26.8 358.1,26.2 358.8,25.6 359.5,25.1 360.3,24.7 361,24.3 361.9,24 362.7,23.8 363.6,23.6 364.4,23.6" />
<path stroke="#000000" stroke-width="2" d="M 364.4,23.6 366.5,23.5 368.1,23.2 369.3,22.7 370.2,22.1 370.8,21.5 371,20.7 371.1,20 370.9,19.3 370.6,18.6 370.1,17.9 369.4,17.4 368.8,17.1 368,16.9 367.3,17 366.5,17.2 365.9,17.8 365.3,18.7 364.8,19.9 364.5,21.5 364.4,23.6 364.4,38.6" />
<path stroke="#000000" stroke-width="2" d="M 377.8,70" />
<path stroke="#000000" stroke-width="2" d="M 377.8,50 397.8,50" />
<path stroke="#000000" stroke-width="2" d="M 427.8,70" />
</svg>