<svg xmlns="http://www.w3.org/2000/svg" width="420.68065513883124" height="88.47759065022574" style="fill:none; stroke-linecap:round;">
    <rect width="100%" height="100%" fill="#FFFFFF" />
<path stroke="#000000" stroke-width="2" d="M 550,75" />
<path stroke="#000000" stroke-width="2" d="M 30,30 29.1,30 28.3,30.1 27.4,30.2 26.6,30.5 25.7,30.8 24.9,31.1 24.2,31.6 23.5,32.1 22.8,32.6 22.2,33.2 21.6,33.9 21.1,34.6 20.7,35.4 20.3,36.2 20,37 19.8,37.8 19.6,38.7 19.6,39.6 19.6,40.4 19.6,41.3 19.8,42.2 20,43 20.3,43.8 20.7,44.6 21.1,45.4 21.6,46.1 22.2,46.7 22.8,47.4 23.5,47.9 24.2,48.4 24.9,48.9 25.7,49.2 26.6,49.5 27.4,49.8 28.3,49.9 29.1,50 49.1,50" />
<path stroke="#000000" stroke-width="2" d="M 49.1,50 51.2,49.9 52.8,49.6 54,49.1 54.9,48.5 55.5,47.9 55.7,47.1 55.8,46.4 55.6,45.7 55.3,45 54.8,44.4 54.1,43.9 53.4,43.5 52.7,43.3 52,43.4 51.2,43.7 50.6,44.2 50,45.1 49.5,46.3 49.2,48 49.1,50 49.1,65" />
<path stroke="#000000" stroke-width="2" d="M 85.8,70" />
<path stroke="#000000" stroke-width="2" d="M 85.8,40 86,40 86,40.2 85.8,40.2 85.8,40" />
<path stroke="#000000" stroke-width="2" d="M 92.6,70" />
<path stroke="#000000" stroke-width="2" d="M 112.6,30 92.8,49.8" />
<path stroke="#000000" stroke-width="2" d="M 92.8,29.8 112.6,49.6 105,68.1 107.3,62.5 107.6,61.7 108,61 108.5,60.2 109,59.5 109.6,58.9 110.3,58.3 111,57.8 111.7,57.3 112.5,56.9 113.3,56.6 114.1,56.3 115,56.1" />
<path stroke="#000000" stroke-width="2" d="M 121.6,70" />
<path stroke="#000000" stroke-width="2" d="M 121.6,20 129.3,38.5 129.3,39.2 129.3,39.9 129.5,40.6 129.6,41.2 129.9,41.9 130.2,42.5 130.5,43.1 130.9,43.7 131.4,44.2 131.9,44.7 132.4,45.2 133,45.6 133.6,45.9 134.2,46.2 134.9,46.5 135.5,46.6 136.2,46.8 136.9,46.8 137.6,46.8 138.3,46.8 139,46.6 139.7,46.5 140.3,46.2 141,45.9 141.6,45.6 142.1,45.2 142.7,44.7 143.2,44.2 143.6,43.7 144,43.1 144.4,42.5 144.7,41.9 144.9,41.2 145.1,40.6 145.2,39.9 145.3,39.2" />
<path stroke="#000000" stroke-width="2" d="M 151.9,70" />
<path stroke="#000000" stroke-width="2" d="M 151.9,30 152.1,30 152.1,30.2 151.9,30.2 151.9,30" />
<path stroke="#000000" stroke-width="2" d="M 182.1,70" />
<path stroke="#000000" stroke-width="2" d="M 182.1,30 197.4,67" />
<path stroke="#000000" stroke-width="2" d="M 204.1,70" />
<path stroke="#000000" stroke-width="2" d="M 214.1,50 206.4,68.5" />
<path stroke="#000000" stroke-width="2" d="M 220.8,70" />
<path stroke="#000000" stroke-width="2" d="M 220.8,30 236.1,67 251.4,30" />
<path stroke="#000000" stroke-width="2" d="M 258,70" />
<path stroke="#000000" stroke-width="2" d="M 268,20 260.4,38.5" />
<path stroke="#000000" stroke-width="2" d="M 274.7,70" />
<path stroke="#000000" stroke-width="2" d="M 274.7,20 275.6,20 276.5,20.1 277.3,20.2 278.2,20.5 279,20.8 279.8,21.1 280.5,21.6 281.2,22.1 281.9,22.6 282.5,23.2 283.1,23.9 283.6,24.6 284,25.4 284.4,26.2 284.7,27 284.9,27.8 285.1,28.7 285.1,29.6 285.1,30.4 285.1,31.3 284.9,32.2 284.7,33 284.4,33.8 284,34.6 283.6,35.4 283.1,36.1 282.5,36.7 281.9,37.4 281.2,37.9 280.5,38.4 279.8,38.9 279,39.2 278.2,39.5 277.3,39.8 276.5,39.9 275.6,40" />
<path stroke="#000000" stroke-width="2" d="M 315.1,70" />
<path stroke="#000000" stroke-width="2" d="M 331.1,30" />
<path stroke="#000000" stroke-width="2" d="M 331.1,30 330.9,34.1 330.3,37.3 329.4,39.8 328.3,41.5 326.9,42.7 325.5,43.2 324,43.3 322.5,43 321.1,42.3 319.9,41.2 318.9,40 318.2,38.6 317.8,37.2 317.9,35.7 318.5,34.2 319.6,32.9 321.4,31.7 323.8,30.8 327.1,30.2 331.1,30 351.1,30" />
<path stroke="#000000" stroke-width="2" d="M 357.8,70" />
<path stroke="#000000" stroke-width="2" d="M 357.8,20 357.8,40 357.8,34 357.8,33.1 357.9,32.3 358,31.4 358.3,30.6 358.6,29.7 358.9,28.9 359.4,28.2 359.9,27.5 360.4,26.8 361,26.2 361.7,25.6 362.4,25.1 363.2,24.7 364,24.3 364.8,24 365.6,23.8 366.5,23.6 367.4,23.6" />
<path stroke="#000000" stroke-width="2" d="M 367.4,23.6 369.4,23.5 371,23.2 372.2,22.7 373.1,22.1 373.7,21.5 374,20.7 374,20 373.8,19.3 373.5,18.6 373,17.9 372.4,17.4 371.7,17.1 370.9,16.9 370.2,17 369.5,17.2 368.8,17.8 368.2,18.7 367.8,19.9 367.5,21.5 367.4,23.6 367.4,38.6" />
<path stroke="#000000" stroke-width="2" d="M 380.7,70" />
<path stroke="#000000" stroke-width="2" d="M 380.7,50 400.7,50" />
<path stroke="#000000" stroke-width="2" d="M 430.7,70" />
</svg>