<svg xmlns="http://www.w3.org/2000/svg" width="405.5733178442276" height="88.47759065022574" style="fill:none; stroke-linecap:round;">
    <rect width="100%" height="100%" fill="#FFFFFF" />
<path stroke="#000000" stroke-width="2" d="M 550,75" />
<path stroke="#000000" stroke-width="2" d="M 30,30 29.1,30 28.3,30.1 27.4,30.2 26.6,30.5 25.7,30.8 24.9,31.1 24.2,31.6 23.5,32.1 22.8,32.6 22.2,33.2 21.6,33.9 21.1,34.6 20.7,35.4 20.3,36.2 20,37 19.8,37.8 19.6,38.7 19.6,39.6 19.6,40.4 19.6,41.3 19.8,42.2 20,43 20.3,43.8 20.7,44.6 21.1,45.4 21.6,46.1 22.2,46.7 22.8,47.4 23.5,47.9 24.2,48.4 24.9,48.9 25.7,49.2 26.6,49.5 27.4,49.8 28.3,49.9 29.1,50 49.1,50" />
<path stroke="#000000" stroke-width="2" d="M 49.1,50 51.2,49.9 52.8,49.6 54,49.1 54.9,48.5 55.5,47.9 55.7,47.1 55.8,46.4 55.6,45.7 55.3,45 54.8,44.4 54.1,43.9 53.4,43.5 52.7,43.3 52,43.4 51.2,43.7 50.6,44.2 50,45.1 49.5,46.3 49.2,48 49.1,50 49.1,65" />
<path stroke="#000000" stroke-width="2" d="M 85.8,70" />
<path stroke="#000000" stroke-width="2" d="M 85.8,40 86,40 86,40.2 85.8,40.2 85.8,40" />
<path stroke="#000000" stroke-width="2" d="M 92.6,70" />
<path stroke="#000000" stroke-width="2" d="M 112.6,30 92.8,49.8" />
<path stroke="#000000" stroke-width="2" d="M 92.8,29.8 112.6,49.6 105,68.1 107.3,62.5 107.6,61.7 108,61 108.5,60.2 109,59.5 109.6,58.9 110.3,58.3 111,57.8 111.7,57.3 112.5,56.9 113.3,56.6 114.1,56.3 115,56.1" />
<path stroke="#000000" stroke-width="2" d="M 121.6,70" />
<path stroke="#000000" stroke-width="2" d="M 121.6,20 129.3,38.5 129.3,39.2 129.3,39.9 129.5,40.6 129.6,41.2 129.9,41.9 130.2,42.5 130.5,43.1 130.9,43.7 131.4,44.2 131.9,44.7 132.4,45.2 133,45.6 133.6,45.9 134.2,46.2 134.9,46.5 135.5,46.6 136.2,46.8 136.9,46.8 137.6,46.8 138.3,46.8 139,46.6 139.7,46.5 140.3,46.2 141,45.9 141.6,45.6 142.1,45.2 142.7,44.7 143.2,44.2 143.6,43.7 144,43.1 144.4,42.5 144.7,41.9 144.9,41.2 145.1,40.6 145.2,39.9 145.3,39.2" />
<path stroke="#000000" stroke-width="2" d="M 151.9,70" />
<path stroke="#000000" stroke-width="2" d="M 151.9,30 152.3,30 152.3,30.4 151.9,30.4 151.9,30" />
<path stroke="#000000" stroke-width="2" d="M 182.3,70" />
<path stroke="#000000" stroke-width="2" d="M 182.3,30 197.6,67" />
<path stroke="#000000" stroke-width="2" d="M 204.3,70" />
<path stroke="#000000" stroke-width="2" d="M 214.3,50 206.6,68.5" />
<path stroke="#000000" stroke-width="2" d="M 221,70" />
<path stroke="#000000" stroke-width="2" d="M 221,30 228.6,48.5 236.3,30" />
<path stroke="#000000" stroke-width="2" d="M 242.9,70" />
<path stroke="#000000" stroke-width="2" d="M 252.9,20 245.3,38.5" />
<path stroke="#000000" stroke-width="2" d="M 259.6,70" />
<path stroke="#000000" stroke-width="2" d="M 259.6,20 260.5,20 261.3,20.1 262.2,20.2 263,20.5 263.9,20.8 264.7,21.1 265.4,21.6 266.1,22.1 266.8,22.6 267.4,23.2 268,23.9 268.5,24.6 268.9,25.4 269.3,26.2 269.6,27 269.8,27.8 270,28.7 270,29.6 270,30.4 270,31.3 269.8,32.2 269.6,33 269.3,33.8 268.9,34.6 268.5,35.4 268,36.1 267.4,36.7 266.8,37.4 266.1,37.9 265.4,38.4 264.7,38.9 263.9,39.2 263,39.5 262.2,39.8 261.3,39.9 260.5,40" />
<path stroke="#000000" stroke-width="2" d="M 300,70" />
<path stroke="#000000" stroke-width="2" d="M 316,30" />
<path stroke="#000000" stroke-width="2" d="M 316,30 315.8,34.1 315.2,37.3 314.3,39.8 313.2,41.5 311.8,42.7 310.4,43.2 308.9,43.3 307.4,43 306,42.3 304.8,41.2 303.8,40 303.1,38.6 302.7,37.2 302.8,35.7 303.4,34.2 304.5,32.9 306.3,31.7 308.7,30.8 312,30.2 316,30 336,30" />
<path stroke="#000000" stroke-width="2" d="M 342.7,70" />
<path stroke="#000000" stroke-width="2" d="M 342.7,20 342.7,40 342.7,34 342.7,33.1 342.8,32.3 342.9,31.4 343.2,30.6 343.4,29.7 343.8,28.9 344.3,28.2 344.8,27.5 345.3,26.8 345.9,26.2 346.6,25.6 347.3,25.1 348.1,24.7 348.9,24.3 349.7,24 350.5,23.8 351.4,23.6 352.3,23.6" />
<path stroke="#000000" stroke-width="2" d="M 352.3,23.6 354.3,23.5 355.9,23.2 357.1,22.7 358,22.1 358.6,21.5 358.9,20.7 358.9,20 358.7,19.3 358.4,18.6 357.9,17.9 357.3,17.4 356.6,17.1 355.8,16.9 355.1,17 354.4,17.2 353.7,17.8 353.1,18.7 352.7,19.9 352.4,21.5 352.3,23.6 352.3,38.6" />
<path stroke="#000000" stroke-width="2" d="M 365.6,70" />
<path stroke="#000000" stroke-width="2" d="M 365.6,50 385.6,50" />
<path stroke="#000000" stroke-width="2" d="M 415.6,70" />
</svg>