<svg xmlns="http://www.w3.org/2000/svg" width="406.83952148423407" height="91.25" style="fill:none; stroke-linecap:round;">
    <rect width="100%" height="100%" fill="#FFFFFF" />
<path stroke="#000000" stroke-width="2" d="M 550,75" />
<path stroke="#000000" stroke-width="2" d="M 20,30 27.7,48.5 35.3,30" />
<path stroke="#000000" stroke-width="2" d="M 35.3,40" />
<path stroke="#000000" stroke-width="2" d="M 19.3,40 36.3,40 36.3,39.3 36.4,38.6 36.5,37.9 36.7,37.2 36.9,36.6 37.2,36 37.6,35.4 38,34.8 38.4,34.2 38.9,33.8 39.4,33.3 40,32.9 40.6,32.6 41.2,32.3 41.9,32 42.6,31.8 43.3,31.7 44,31.7 44.6,31.7 45.3,31.7 46,31.8 46.7,32 47.4,32.3 48,32.6 48.6,32.9 49.2,33.3 49.7,33.8 50.2,34.2 50.6,34.8 51,35.4 51.4,36 51.7,36.6 51.9,37.2 52.1,37.9 52.2,38.6 52.3,39.3" />
<path stroke="#000000" stroke-width="2" d="M 59,70" />
<path stroke="#000000" stroke-width="2" d="M 59,50 59,70 59,64 59,63.1 59,62.3 59.2,61.4 59.4,60.6 59.7,59.7 60.1,58.9 60.5,58.2 61,57.5 61.6,56.8 62.2,56.2 62.9,55.6 63.6,55.1 64.3,54.7 65.1,54.3 65.9,54 66.8,53.8 67.6,53.6 68.5,53.6" />
<path stroke="#000000" stroke-width="2" d="M 68.5,53.6 68.4,55.6 68.1,57.2 67.7,58.5 67.1,59.3 66.4,59.9 65.7,60.2 64.9,60.2 64.2,60.1 63.5,59.7 62.9,59.2 62.4,58.6 62,57.9 61.9,57.2 61.9,56.4 62.2,55.7 62.8,55 63.6,54.4 64.9,54 66.5,53.7 68.5,53.6 78.5,53.6" />
<path stroke="#000000" stroke-width="2" d="M 78.5,53.6 80.5,53.5 82.2,53.2 83.4,52.7 84.3,52.1 84.8,51.5 85.1,50.7 85.2,50 85,49.3 84.6,48.6 84.1,47.9 83.5,47.4 82.8,47.1 82.1,46.9 81.3,47 80.6,47.2 80,47.8 79.4,48.7 78.9,49.9 78.6,51.5 78.5,53.6 78.5,68.6" />
<path stroke="#000000" stroke-width="2" d="M 115.2,70" />
<path stroke="#000000" stroke-width="2" d="M 125.2,30 124.3,30 123.4,30.1 122.6,30.2 121.7,30.5 120.9,30.8 120.1,31.1 119.4,31.6 118.6,32.1 118,32.6 117.4,33.2 116.8,33.9 116.3,34.6 115.9,35.4 115.5,36.2 115.2,37 115,37.8 114.8,38.7 114.7,39.6 114.7,40.4 114.8,41.3 115,42.2 115.2,43 115.5,43.8 115.9,44.6 116.3,45.4 116.8,46.1 117.4,46.7 118,47.4 118.6,47.9 119.4,48.4 120.1,48.9 120.9,49.2 121.7,49.5 122.6,49.8 123.4,49.9 124.3,50 144.3,50" />
<path stroke="#000000" stroke-width="2" d="M 174.3,70" />
<path stroke="#000000" stroke-width="2" d="M 174.3,30 189.6,67" />
<path stroke="#000000" stroke-width="2" d="M 196.3,70" />
<path stroke="#000000" stroke-width="2" d="M 196.3,50" />
<path stroke="#000000" stroke-width="2" d="M 196.3,50 196.4,50 196.8,50 197.5,50 198.3,50.1 199.4,50.2 200.6,50.3 201.9,50.4 203.3,50.6 204.8,50.9 206.3,51.2 207.8,51.7 209.2,52.2 210.6,52.7 211.9,53.4 213.1,54.2 214.2,55.1 215.1,56.1 215.7,57.3 216.1,58.6 216.3,60" />
<path stroke="#000000" stroke-width="2" d="M 216.3,60 218.2,62.1 219.5,64.1 220.3,65.7 220.6,67.2 220.5,68.4 220,69.5 219.3,70.2 218.4,70.8 217.4,71.1 216.3,71.2 215.2,71.1 214.1,70.8 213.2,70.2 212.5,69.5 212.1,68.4 211.9,67.2 212.3,65.7 213,64 214.3,62.1 216.3,60" />
<path stroke="#000000" stroke-width="2" d="M 216.3,60 216.3,59.9 216.3,59.7 216.3,59.4 216.4,59 216.6,58.4 216.8,57.8 217.1,57.2 217.5,56.5 218.1,55.7 218.8,55 219.6,54.3 220.6,53.5 221.8,52.8 223.1,52.2 224.7,51.6 226.5,51 228.6,50.6 230.8,50.3 233.4,50.1 236.3,50 256.3,50 248.6,68.5" />
<path stroke="#000000" stroke-width="2" d="M 286.3,70" />
<path stroke="#000000" stroke-width="2" d="M 286.3,30 301.6,67 316.9,30" />
<path stroke="#000000" stroke-width="2" d="M 316.9,50" />
<path stroke="#000000" stroke-width="2" d="M 284.9,50 318.9,50" />
<path stroke="#000000" stroke-width="2" d="M 325.6,70" />
<path stroke="#000000" stroke-width="2" d="M 325.6,25" />
<path stroke="#000000" stroke-width="2" d="M 325.6,25 327.6,24.9 329.2,24.6 330.4,24.1 331.3,23.6 331.9,22.9 332.2,22.2 332.2,21.4 332,20.7 331.7,20 331.2,19.4 330.6,18.9 329.9,18.5 329.1,18.3 328.4,18.4 327.7,18.7 327,19.2 326.4,20.1 326,21.4 325.7,23 325.6,25 325.6,40 317.9,58.5" />
<path stroke="#000000" stroke-width="2" d="M 362.2,70" />
<path stroke="#000000" stroke-width="2" d="M 362.2,30 362.2,70 373.5,58.7" />
<path stroke="#000000" stroke-width="2" d="M 380.2,70" />
<path stroke="#000000" stroke-width="2" d="M 380.2,25" />
<path stroke="#000000" stroke-width="2" d="M 380.2,25 382.2,24.9 383.8,24.6 385.1,24.1 385.9,23.6 386.5,22.9 386.8,22.2 386.8,21.4 386.7,20.7 386.3,20 385.8,19.4 385.2,18.9 384.5,18.5 383.8,18.3 383,18.4 382.3,18.7 381.6,19.2 381,20.1 380.6,21.4 380.3,23 380.2,25 380.2,40" />
<path stroke="#000000" stroke-width="2" d="M 416.8,70" />
</svg>