<svg xmlns="http://www.w3.org/2000/svg" width="413.62636679666605" height="88.47759065022574" style="fill:none; stroke-linecap:round;">
    <rect width="100%" height="100%" fill="#FFFFFF" />
<path stroke="#000000" stroke-width="2" d="M 550,75" />
<path stroke="#000000" stroke-width="2" d="M 25,30" />
<path stroke="#000000" stroke-width="2" d="M 25,30 23.6,30.1 22.3,30.6 21.2,31.2 20.2,32.1 19.4,33.1 18.7,34.3 18.2,35.6 17.8,37 17.6,38.5 17.5,40 17.6,41.5 17.8,43 18.2,44.4 18.7,45.7 19.4,46.9 20.2,47.9 21.2,48.8 22.3,49.4 23.6,49.9 25,50 45,50" />
<path stroke="#000000" stroke-width="2" d="M 45,50 47,49.9 48.6,49.6 49.9,49.1 50.8,48.6 51.3,47.9 51.6,47.2 51.7,46.4 51.5,45.7 51.1,45 50.6,44.4 50,43.9 49.3,43.5 48.6,43.3 47.8,43.4 47.1,43.7 46.4,44.2 45.9,45.1 45.4,46.4 45.1,48 45,50 45,65" />
<path stroke="#000000" stroke-width="2" d="M 81.7,70" />
<path stroke="#000000" stroke-width="2" d="M 81.7,40 81.9,40 81.9,40.2 81.7,40.2 81.7,40" />
<path stroke="#000000" stroke-width="2" d="M 88.5,70" />
<path stroke="#000000" stroke-width="2" d="M 108.5,30 88.7,49.8" />
<path stroke="#000000" stroke-width="2" d="M 88.7,29.8 108.5,49.6 100.9,68.1 103.2,62.5 103.5,61.7 103.9,61 104.4,60.2 104.9,59.5 105.5,58.9 106.1,58.3 106.8,57.8 107.6,57.3 108.3,56.9 109.1,56.6 110,56.3 110.8,56.1" />
<path stroke="#000000" stroke-width="2" d="M 117.5,70" />
<path stroke="#000000" stroke-width="2" d="M 117.5,20 125.1,38.5 125.1,39.2 125.2,39.9 125.3,40.6 125.5,41.2 125.7,41.9 126,42.5 126.4,43.1 126.8,43.7 127.2,44.2 127.7,44.7 128.3,45.2 128.8,45.6 129.4,45.9 130.1,46.2 130.7,46.5 131.4,46.6 132.1,46.8 132.8,46.8 133.5,46.8 134.2,46.8 134.9,46.6 135.5,46.5 136.2,46.2 136.8,45.9 137.4,45.6 138,45.2 138.5,44.7 139,44.2 139.5,43.7 139.9,43.1 140.2,42.5 140.5,41.9 140.8,41.2 140.9,40.6 141.1,39.9 141.1,39.2" />
<path stroke="#000000" stroke-width="2" d="M 147.8,70" />
<path stroke="#000000" stroke-width="2" d="M 147.8,30 148,30 148,30.2 147.8,30.2 147.8,30" />
<path stroke="#000000" stroke-width="2" d="M 178,70" />
<path stroke="#000000" stroke-width="2" d="M 178,30 193.3,67" />
<path stroke="#000000" stroke-width="2" d="M 200,70" />
<path stroke="#000000" stroke-width="2" d="M 210,50 202.3,68.5" />
<path stroke="#000000" stroke-width="2" d="M 216.6,70" />
<path stroke="#000000" stroke-width="2" d="M 216.6,30 231.9,67 247.3,30" />
<path stroke="#000000" stroke-width="2" d="M 253.9,70" />
<path stroke="#000000" stroke-width="2" d="M 263.9,20 256.3,38.5" />
<path stroke="#000000" stroke-width="2" d="M 270.6,70" />
<path stroke="#000000" stroke-width="2" d="M 270.6,20" />
<path stroke="#000000" stroke-width="2" d="M 270.6,20 272,20.1 273.3,20.6 274.4,21.2 275.4,22.1 276.2,23.1 276.9,24.3 277.4,25.6 277.8,27 278,28.5 278.1,30 278,31.5 277.8,33 277.4,34.4 276.9,35.7 276.2,36.9 275.4,37.9 274.4,38.8 273.3,39.4 272,39.9 270.6,40" />
<path stroke="#000000" stroke-width="2" d="M 308.1,70" />
<path stroke="#000000" stroke-width="2" d="M 324.1,30" />
<path stroke="#000000" stroke-width="2" d="M 324.1,30 323.9,34.1 323.3,37.3 322.4,39.8 321.2,41.5 319.9,42.7 318.4,43.2 316.9,43.3 315.4,43 314.1,42.3 312.8,41.2 311.8,40 311.1,38.6 310.8,37.2 310.9,35.7 311.4,34.2 312.6,32.9 314.3,31.7 316.8,30.8 320,30.2 324.1,30 344.1,30" />
<path stroke="#000000" stroke-width="2" d="M 350.8,70" />
<path stroke="#000000" stroke-width="2" d="M 350.8,20 350.8,40 350.8,34 350.8,33.1 350.8,32.3 351,31.4 351.2,30.6 351.5,29.7 351.9,28.9 352.3,28.2 352.8,27.5 353.4,26.8 354,26.2 354.7,25.6 355.4,25.1 356.1,24.7 356.9,24.3 357.7,24 358.6,23.8 359.4,23.6 360.3,23.6" />
<path stroke="#000000" stroke-width="2" d="M 360.3,23.6 362.3,23.5 364,23.2 365.2,22.7 366.1,22.1 366.6,21.5 366.9,20.7 367,20 366.8,19.3 366.4,18.6 365.9,17.9 365.3,17.4 364.6,17.1 363.9,16.9 363.1,17 362.4,17.2 361.7,17.8 361.2,18.7 360.7,19.9 360.4,21.5 360.3,23.6 360.3,38.6" />
<path stroke="#000000" stroke-width="2" d="M 373.6,70" />
<path stroke="#000000" stroke-width="2" d="M 373.6,50 393.6,50" />
<path stroke="#000000" stroke-width="2" d="M 423.6,70" />
</svg>