<svg xmlns="http://www.w3.org/2000/svg" width="79.64001687095869" height="88.0" style="fill:none; stroke-linecap:round;">
    <rect width="100%" height="100%" fill="#FFFFFF" />
<path stroke="#000000" stroke-width="2" d="M 175,75" />
<path stroke="#000000" stroke-width="2" d="M 20,30 25,30 25,50 25,50.7 25.1,51.4 25.2,52.1 25.4,52.8 25.6,53.4 25.9,54 26.2,54.6 26.6,55.2 27.1,55.8 27.6,56.2 28.1,56.7 28.7,57.1 29.3,57.4 29.9,57.7 30.6,58 31.3,58.2 31.9,58.3 32.6,58.3 33.3,58.3 34,58.3 34.7,58.2 35.4,58 36.1,57.7 36.7,57.4 37.3,57.1 37.9,56.7 38.4,56.2 38.9,55.8 39.3,55.2 39.7,54.6 40.1,54 40.4,53.4 40.6,52.8 40.8,52.1 40.9,51.4 41,50.7" />
<path stroke="#000000" stroke-width="2" d="M 47.7,70" />
<path stroke="#000000" stroke-width="2" d="M 47.7,56 47.7,56.5 47.7,57 47.8,57.6 47.9,58.1 48.1,58.6 48.3,59 48.6,59.5 48.9,59.9 49.2,60.3 49.6,60.7 50,61 50.4,61.3 50.9,61.6 51.3,61.8 51.8,62 52.3,62.1 52.9,62.2 53.4,62.3 53.9,62.3 54.4,62.2 54.9,62.1 55.4,62 55.9,61.8 56.4,61.6 56.9,61.3 57.3,61 57.7,60.7 58.1,60.3 58.4,59.9 58.7,59.5 59,59 59.2,58.6 59.4,58.1 59.5,57.6 59.6,57 59.6,56.5 59.6,56 59.6,55.5 59.5,55 59.4,54.5 59.2,54 59,53.5 58.7,53 58.4,52.6 58.1,52.2 57.7,51.8 57.3,51.5 56.9,51.2 56.4,50.9 55.9,50.7 55.4,50.5 54.9,50.4 54.4,50.3 53.9,50.3 53.4,50.3 52.9,50.3 52.3,50.4 51.8,50.5 51.3,50.7 50.9,50.9 50.4,51.2 50,51.5 49.6,51.8 49.2,52.2 48.9,52.6 48.6,53 48.3,53.5 48.1,54 47.9,54.5 47.8,55 47.7,55.5 47.7,56 47.7,60" />
<path stroke="#000000" stroke-width="2" d="M 47.7,60 48,60.9 48.3,61.7 48.7,62.4 49.1,63.1 49.5,63.8 49.9,64.4 50.4,64.9 50.9,65.4 51.4,65.9 51.9,66.2 52.4,66.6 53,66.9 53.5,67.2 54.1,67.4 54.7,67.6 55.3,67.7 55.9,67.9 56.5,67.9 57.1,68 57.7,68" />
</svg>