<svg xmlns="http://www.w3.org/2000/svg" width="77.65143821197638" height="88.0" style="fill:none; stroke-linecap:round;">
    <rect width="100%" height="100%" fill="#FFFFFF" />
<path stroke="#000000" stroke-width="2" d="M 175,75" />
<path stroke="#000000" stroke-width="2" d="M 20,30 25,30 25,50 25,50.7 25.1,51.4 25.2,52.1 25.4,52.8 25.6,53.4 25.9,54 26.2,54.6 26.6,55.2 27.1,55.8 27.6,56.2 28.1,56.7 28.7,57.1 29.3,57.4 29.9,57.7 30.6,58 31.3,58.2 31.9,58.3 32.6,58.3 33.3,58.3 34,58.3 34.7,58.2 35.4,58 36.1,57.7 36.7,57.4 37.3,57.1 37.9,56.7 38.4,56.2 38.9,55.8 39.3,55.2 39.7,54.6 40.1,54 40.4,53.4 40.6,52.8 40.8,52.1 40.9,51.4 41,50.7" />
<path stroke="#000000" stroke-width="2" d="M 47.7,70" />
<path stroke="#000000" stroke-width="2" d="M 47.7,56" />
<path stroke="#000000" stroke-width="2" d="M 47.7,56 49.7,55.9 51.3,55.6 52.5,55.1 53.4,54.6 54,53.9 54.3,53.2 54.3,52.4 54.1,51.7 53.8,51 53.3,50.4 52.7,49.9 52,49.5 51.2,49.3 50.5,49.4 49.8,49.7 49.1,50.2 48.5,51.1 48.1,52.4 47.8,54 47.7,56 47.7,60" />
<path stroke="#000000" stroke-width="2" d="M 47.7,60 48,60.9 48.3,61.7 48.7,62.4 49.1,63.1 49.5,63.8 49.9,64.4 50.4,64.9 50.9,65.4 51.4,65.9 51.9,66.2 52.4,66.6 53,66.9 53.5,67.2 54.1,67.4 54.7,67.6 55.3,67.7 55.9,67.9 56.5,67.9 57.1,68 57.7,68" />
</svg>