<svg xmlns="http://www.w3.org/2000/svg" width="82.64382398463125" height="89.04686529676806" style="fill:none; stroke-linecap:round;">
    <rect width="100%" height="100%" fill="#FFFFFF" />
<path stroke="#000000" stroke-width="2" d="M 175,75" />
<path stroke="#000000" stroke-width="2" d="M 20,30 20,38 20,39 20.1,40.1 20.3,41.1 20.5,42.1 20.9,43.1 21.3,44.1 21.9,45 22.5,45.8 23.1,46.6 23.9,47.4 24.7,48 25.5,48.6 26.4,49.2 27.4,49.6 28.4,50 29.4,50.2 30.4,50.4 31.5,50.5 32.5,50.5 33.6,50.4 34.6,50.2 35.6,50 36.6,49.6 37.5,49.2 38.4,48.6 39.3,48 40.1,47.4 40.8,46.6 41.5,45.8 42.1,45 42.6,44.1 43.1,43.1 43.4,42.1 43.7,41.1 43.9,40.1 44,39 44,29 44,69" />
<path stroke="#000000" stroke-width="2" d="M 50.6,70" />
<path stroke="#000000" stroke-width="2" d="M 62.6,56" />
<path stroke="#000000" stroke-width="2" d="M 62.6,56 60.6,55.9 59,55.6 57.8,55.1 56.9,54.6 56.3,53.9 56,53.2 56,52.4 56.2,51.7 56.5,51 57,50.4 57.6,49.9 58.3,49.5 59.1,49.3 59.8,49.4 60.5,49.7 61.2,50.2 61.8,51.1 62.2,52.4 62.5,54 62.6,56 62.6,60" />
<path stroke="#000000" stroke-width="2" d="M 62.6,60 62.3,60.9 62,61.7 61.6,62.4 61.2,63.1 60.8,63.8 60.4,64.4 59.9,64.9 59.4,65.4 58.9,65.9 58.4,66.2 57.9,66.6 57.3,66.9 56.8,67.2 56.2,67.4 55.6,67.6 55,67.7 54.4,67.9 53.8,67.9 53.2,68 52.6,68" />
</svg>