<svg xmlns="http://www.w3.org/2000/svg" width="90.64382398463125" height="89.04686529676806" style="fill:none; stroke-linecap:round;">
    <rect width="100%" height="100%" fill="#FFFFFF" />
<path stroke="#000000" stroke-width="2" d="M 175,75" />
<path stroke="#000000" stroke-width="2" d="M 20,30 20,38 20,39 20.1,40.1 20.3,41.1 20.5,42.1 20.9,43.1 21.3,44.1 21.9,45 22.5,45.8 23.1,46.6 23.9,47.4 24.7,48 25.5,48.6 26.4,49.2 27.4,49.6 28.4,50 29.4,50.2 30.4,50.4 31.5,50.5 32.5,50.5 33.6,50.4 34.6,50.2 35.6,50 36.6,49.6 37.5,49.2 38.4,48.6 39.3,48 40.1,47.4 40.8,46.6 41.5,45.8 42.1,45 42.6,44.1 43.1,43.1 43.4,42.1 43.7,41.1 43.9,40.1 44,39 44,29 44,69" />
<path stroke="#000000" stroke-width="2" d="M 50.6,70" />
<path stroke="#000000" stroke-width="2" d="M 70.6,56 70.6,56.5 70.6,57 70.5,57.6 70.4,58.1 70.2,58.6 70,59 69.7,59.5 69.4,59.9 69.1,60.3 68.7,60.7 68.3,61 67.9,61.3 67.4,61.6 66.9,61.8 66.5,62 65.9,62.1 65.4,62.2 64.9,62.3 64.4,62.3 63.9,62.2 63.4,62.1 62.8,62 62.4,61.8 61.9,61.6 61.4,61.3 61,61 60.6,60.7 60.2,60.3 59.9,59.9 59.6,59.5 59.3,59 59.1,58.6 58.9,58.1 58.8,57.6 58.7,57 58.7,56.5 58.7,56 58.7,55.5 58.8,55 58.9,54.5 59.1,54 59.3,53.5 59.6,53 59.9,52.6 60.2,52.2 60.6,51.8 61,51.5 61.4,51.2 61.9,50.9 62.4,50.7 62.8,50.5 63.4,50.4 63.9,50.3 64.4,50.3 64.9,50.3 65.4,50.3 65.9,50.4 66.5,50.5 66.9,50.7 67.4,50.9 67.9,51.2 68.3,51.5 68.7,51.8 69.1,52.2 69.4,52.6 69.7,53 70,53.5 70.2,54 70.4,54.5 70.5,55 70.6,55.5 70.6,56 70.6,60" />
<path stroke="#000000" stroke-width="2" d="M 70.6,60 70.3,60.9 70,61.7 69.6,62.4 69.2,63.1 68.8,63.8 68.4,64.4 67.9,64.9 67.4,65.4 66.9,65.9 66.4,66.2 65.9,66.6 65.3,66.9 64.8,67.2 64.2,67.4 63.6,67.6 63,67.7 62.4,67.9 61.8,67.9 61.2,68 60.6,68" />
</svg>