<svg xmlns="http://www.w3.org/2000/svg" width="307.7406706279369" height="90.2" style="fill:none; stroke-linecap:round;">
    <rect width="100%" height="100%" fill="#FFFFFF" />
<path stroke="#000000" stroke-width="2" d="M 550,75" />
<path stroke="#000000" stroke-width="2" d="M 36,30 16.2,49.8 36,69.6" />
<path stroke="#000000" stroke-width="2" d="M 42.7,70" />
<path stroke="#000000" stroke-width="2" d="M 42.7,50 50.3,68.5" />
<path stroke="#000000" stroke-width="2" d="M 57,70" />
<path stroke="#000000" stroke-width="2" d="M 57,50 57.2,50 57.2,50.2 57,50.2 57,50" />
<path stroke="#000000" stroke-width="2" d="M 87.2,70" />
<path stroke="#000000" stroke-width="2" d="M 87.2,30 107.2,30 99.5,48.5" />
<path stroke="#000000" stroke-width="2" d="M 113.9,70" />
<path stroke="#000000" stroke-width="2" d="M 113.9,20 133.9,20" />
<path stroke="#000000" stroke-width="2" d="M 133.9,20 135.3,20.1 136.6,20.6 137.7,21.2 138.7,22.1 139.5,23.1 140.2,24.3 140.7,25.6 141.1,27 141.3,28.5 141.4,30 141.3,31.5 141.1,33 140.7,34.4 140.2,35.7 139.5,36.9 138.7,37.9 137.7,38.8 136.6,39.4 135.3,39.9 133.9,40" />
<path stroke="#000000" stroke-width="2" d="M 133.9,40 135.3,40.1 136.6,40.6 137.7,41.2 138.7,42.1 139.5,43.1 140.2,44.3 140.7,45.6 141.1,47 141.3,48.5 141.4,50 141.3,51.5 141.1,53 140.7,54.4 140.2,55.7 139.5,56.9 138.7,57.9 137.7,58.8 136.6,59.4 135.3,59.9 133.9,60" />
<path stroke="#000000" stroke-width="2" d="M 171.4,70" />
<path stroke="#000000" stroke-width="2" d="M 171.4,70 171.6,70 171.6,70.2 171.4,70.2 171.4,70" />
<path stroke="#000000" stroke-width="2" d="M 201.6,70" />
<path stroke="#000000" stroke-width="2" d="M 201.6,30" />
<path stroke="#000000" stroke-width="2" d="M 201.6,30 204.4,30.3 207,31.1 209.2,32.4 211.2,34.2 212.8,36.2 214.2,38.6 215.2,41.3 216,44.1 216.4,47 216.6,50 216.4,53 216,55.9 215.2,58.7 214.2,61.4 212.8,63.8 211.2,65.8 209.2,67.6 207,68.9 204.4,69.7 201.6,70" />
<path stroke="#000000" stroke-width="2" d="M 223.2,70" />
<path stroke="#000000" stroke-width="2" d="M 223.2,20 230.9,38.5" />
<path stroke="#000000" stroke-width="2" d="M 237.5,70" />
<path stroke="#000000" stroke-width="2" d="M 257.5,30 242.2,67" />
<path stroke="#000000" stroke-width="2" d="M 287.5,70" />
<path stroke="#000000" stroke-width="2" d="M 287.5,70 287.7,70 287.7,70.2 287.5,70.2 287.5,70" />
<path stroke="#000000" stroke-width="2" d="M 317.7,70" />
</svg>