<svg xmlns="http://www.w3.org/2000/svg" width="353.8461906469909" height="108.47759065022574" style="fill:none; stroke-linecap:round;">
    <rect width="100%" height="100%" fill="#FFFFFF" />
<path stroke="#000000" stroke-width="2" d="M 550,75" />
<path stroke="#000000" stroke-width="2" d="M 20,30 20,50 30,50 22.3,68.5" />
<path stroke="#000000" stroke-width="2" d="M 22.3,68.5 24.4,68.4 26,68.1 27.2,67.6 28.1,67 28.7,66.4 29,65.6 29,64.9 28.8,64.2 28.5,63.5 28,62.9 27.4,62.4 26.7,62 25.9,61.8 25.2,61.9 24.5,62.1 23.8,62.7 23.2,63.6 22.8,64.8 22.5,66.4 22.3,68.5 22.3,83.5" />
<path stroke="#000000" stroke-width="2" d="M 60,70" />
<path stroke="#000000" stroke-width="2" d="M 60,40" />
<path stroke="#000000" stroke-width="2" d="M 60,40 64.1,39.8 67.3,39.2 69.8,38.3 71.5,37.1 72.7,35.8 73.2,34.3 73.3,32.8 73,31.4 72.3,30 71.2,28.8 70,27.7 68.6,27 67.2,26.7 65.7,26.8 64.2,27.3 62.9,28.5 61.7,30.2 60.8,32.7 60.2,35.9 60,40 60,70" />
<path stroke="#000000" stroke-width="2" d="M 80,70" />
<path stroke="#000000" stroke-width="2" d="M 80,50 80.2,50 80.2,50.2 80,50.2 80,50" />
<path stroke="#000000" stroke-width="2" d="M 110.2,70" />
<path stroke="#000000" stroke-width="2" d="M 110.2,30 120.2,30 120.2,70 120.2,68.3 120.3,66.5 120.6,64.8 121.1,63.1 121.7,61.5 122.4,59.9 123.3,58.4 124.3,57 125.4,55.6 126.6,54.4 128,53.3 129.4,52.3 130.9,51.4 132.5,50.7 134.1,50.1" />
<path stroke="#000000" stroke-width="2" d="M 140.8,70" />
<path stroke="#000000" stroke-width="2" d="M 140.8,55" />
<path stroke="#000000" stroke-width="2" d="M 140.8,55 142.8,54.9 144.5,54.6 145.7,54.1 146.6,53.6 147.1,52.9 147.4,52.2 147.5,51.4 147.3,50.7 146.9,50 146.4,49.4 145.8,48.9 145.1,48.5 144.4,48.3 143.6,48.4 142.9,48.7 142.2,49.2 141.7,50.1 141.2,51.4 140.9,53 140.8,55 140.8,70 133.2,88.5 135.5,82.9 135.8,82.1 136.2,81.4 136.7,80.6 137.2,79.9 137.8,79.3 138.4,78.7 139.1,78.2 139.8,77.7 140.6,77.3 141.4,77 142.3,76.7 143.1,76.5" />
<path stroke="#000000" stroke-width="2" d="M 154.1,70" />
<path stroke="#000000" stroke-width="2" d="M 164.1,20 156.5,38.5 156.5,39 156.4,39.5 156.3,40 156.2,40.5 156,41 155.8,41.5 155.5,42 155.2,42.4 154.9,42.8 154.5,43.2 154.1,43.5 153.7,43.8 153.3,44.1 152.8,44.3 152.3,44.5 151.8,44.6 151.3,44.7 150.7,44.7 150.2,44.7 149.7,44.7 149.2,44.6 148.7,44.5 148.2,44.3 147.7,44.1 147.3,43.8 146.8,43.5 146.4,43.2 146.1,42.8 145.7,42.4 145.4,42 145.2,41.5 144.9,41 144.8,40.5 144.6,40 144.5,39.5 144.5,39 144.5,38.5 144.5,38 144.6,37.4 144.8,36.9 144.9,36.4 145.2,36 145.4,35.5 145.7,35.1 146.1,34.7 146.4,34.3 146.8,34 147.3,33.7 147.7,33.4 148.2,33.2 148.7,33 149.2,32.9 149.7,32.8 150.2,32.7 150.7,32.7 151.3,32.8 151.8,32.9 152.3,33 152.8,33.2 153.3,33.4 153.7,33.7 154.1,34 154.5,34.3 154.9,34.7 155.2,35.1 155.5,35.5 155.8,36 156,36.4 156.2,36.9 156.3,37.4 156.4,38 156.5,38.5 156.5,42.5" />
<path stroke="#000000" stroke-width="2" d="M 156.5,42.5 156.2,43.3 155.8,44.2 155.4,44.9 155.1,45.6 154.6,46.3 154.2,46.9 153.7,47.4 153.2,47.9 152.7,48.3 152.2,48.7 151.7,49.1 151.1,49.4 150.6,49.7 150,49.9 149.4,50.1 148.9,50.2 148.3,50.3 147.7,50.4 147.1,50.5 146.5,50.5" />
<path stroke="#000000" stroke-width="2" d="M 194.1,70" />
<path stroke="#000000" stroke-width="2" d="M 194.1,30 194.1,70" />
<path stroke="#000000" stroke-width="2" d="M 200.8,70" />
<path stroke="#000000" stroke-width="2" d="M 240.8,42 240.8,43 240.7,44.1 240.5,45.1 240.3,46.1 239.9,47.1 239.5,48.1 238.9,49 238.3,49.8 237.7,50.6 236.9,51.4 236.1,52 235.3,52.6 234.3,53.2 233.4,53.6 232.4,54 231.4,54.2 230.4,54.4 229.3,54.5 228.3,54.5 227.2,54.4 226.2,54.2 225.2,54 224.2,53.6 223.3,53.2 222.4,52.6 221.5,52 220.7,51.4 220,50.6 219.3,49.8 218.7,49 218.2,48.1 217.7,47.1 217.4,46.1 217.1,45.1 216.9,44.1 216.8,43 216.8,42 216.9,41 217.1,39.9 217.4,38.9 217.7,37.9 218.2,37 218.7,36.1 219.3,35.2 220,34.4 220.7,33.7 221.5,33 222.4,32.4 223.3,31.9 224.2,31.4 225.2,31.1 226.2,30.8 227.2,30.6 228.3,30.5 229.3,30.5 230.4,30.6 231.4,30.8 232.4,31.1 233.4,31.4 234.3,31.9 235.3,32.4 236.1,33 236.9,33.7 237.7,34.4 238.3,35.2 238.9,36.1 239.5,37 239.9,37.9 240.3,38.9 240.5,39.9 240.7,41 240.8,42 240.8,50" />
<path stroke="#000000" stroke-width="2" d="M 240.8,50 240.2,51.7 239.5,53.4 238.7,54.9 237.9,56.3 237.1,57.6 236.2,58.7 235.3,59.8 234.3,60.8 233.3,61.7 232.3,62.5 231.2,63.2 230.1,63.8 229,64.4 227.9,64.8 226.7,65.2 225.6,65.5 224.4,65.7 223.2,65.9 222,66 220.8,66" />
<path stroke="#000000" stroke-width="2" d="M 270.8,70" />
<path stroke="#000000" stroke-width="2" d="M 270.8,40 271,40 271,40.2 270.8,40.2 270.8,40" />
<path stroke="#000000" stroke-width="2" d="M 277.7,70" />
<path stroke="#000000" stroke-width="2" d="M 277.7,30 277.7,38 277.7,39 277.8,40.1 277.9,41.1 278.2,42.1 278.6,43.1 279,44.1 279.5,45 280.1,45.8 280.8,46.6 281.5,47.4 282.3,48 283.2,48.6 284.1,49.2 285.1,49.6 286,50 287.1,50.2 288.1,50.4 289.1,50.5 290.2,50.5 291.2,50.4 292.2,50.2 293.3,50 294.2,49.6 295.2,49.2 296.1,48.6 297,48 297.8,47.4 298.5,46.6 299.2,45.8 299.8,45 300.3,44.1 300.7,43.1 301.1,42.1 301.4,41.1 301.5,40.1 301.6,39 301.6,29 301.6,69" />
<path stroke="#000000" stroke-width="2" d="M 308.3,70" />
<path stroke="#000000" stroke-width="2" d="M 308.3,30 308.3,50 308.3,44 308.3,43.1 308.4,42.3 308.5,41.4 308.8,40.6 309.1,39.7 309.4,38.9 309.9,38.2 310.4,37.5 310.9,36.8 311.5,36.2 312.2,35.6 312.9,35.1 313.7,34.7 314.5,34.3 315.3,34 316.1,33.8 317,33.6 317.9,33.6 317.9,34.3 317.9,35 318,35.7 318.2,36.3 318.5,37 318.8,37.6 319.1,38.2 319.5,38.8 320,39.3 320.4,39.8 321,40.3 321.6,40.7 322.2,41 322.8,41.3 323.4,41.6 324.1,41.7 324.8,41.9 325.5,41.9 326.2,41.9 326.9,41.9 327.6,41.7 328.3,41.6 328.9,41.3 329.5,41 330.2,40.7 330.7,40.3 331.3,39.8 331.8,39.3 332.2,38.8 332.6,38.2 332.9,37.6 333.2,37 333.5,36.3 333.7,35.7 333.8,35 333.8,34.3" />
<path stroke="#000000" stroke-width="2" d="M 363.8,70" />
</svg>