<svg xmlns="http://www.w3.org/2000/svg" width="497.13901214014925" height="90.00000000000001" style="fill:none; stroke-linecap:round;">
    <rect width="100%" height="100%" fill="#FFFFFF" />
<path stroke="#000000" stroke-width="2" d="M 550,75" />
<path stroke="#000000" stroke-width="2" d="M 20,30 60,30" />
<path stroke="#000000" stroke-width="2" d="M 66.7,70" />
<path stroke="#000000" stroke-width="2" d="M 66.7,50 67.1,50 67.1,50.4 66.7,50.4 66.7,50" />
<path stroke="#000000" stroke-width="2" d="M 97.1,70" />
<path stroke="#000000" stroke-width="2" d="M 97.1,30 137.1,30" />
<path stroke="#000000" stroke-width="2" d="M 143.7,70" />
<path stroke="#000000" stroke-width="2" d="M 143.7,50 144.1,50 144.1,50.4 143.7,50.4 143.7,50" />
<path stroke="#000000" stroke-width="2" d="M 174.1,70" />
<path stroke="#000000" stroke-width="2" d="M 174.1,30 174.1,50 184.1,50 191.8,68.5" />
<path stroke="#000000" stroke-width="2" d="M 221.8,70" />
<path stroke="#000000" stroke-width="2" d="M 221.8,30 221.8,70" />
<path stroke="#000000" stroke-width="2" d="M 228.5,70" />
<path stroke="#000000" stroke-width="2" d="M 252.5,42 252.5,43 252.4,44.1 252.2,45.1 251.9,46.1 251.6,47.1 251.1,48.1 250.6,49 250,49.8 249.3,50.6 248.6,51.4 247.8,52 246.9,52.6 246,53.2 245.1,53.6 244.1,54 243.1,54.2 242,54.4 241,54.5 239.9,54.5 238.9,54.4 237.9,54.2 236.9,54 235.9,53.6 234.9,53.2 234,52.6 233.2,52 232.4,51.4 231.6,50.6 230.9,49.8 230.3,49 229.8,48.1 229.4,47.1 229,46.1 228.7,45.1 228.6,44.1 228.5,43 228.5,42 228.6,41 228.7,39.9 229,38.9 229.4,37.9 229.8,37 230.3,36.1 230.9,35.2 231.6,34.4 232.4,33.7 233.2,33 234,32.4 234.9,31.9 235.9,31.4 236.9,31.1 237.9,30.8 238.9,30.6 239.9,30.5 241,30.5 242,30.6 243.1,30.8 244.1,31.1 245.1,31.4 246,31.9 246.9,32.4 247.8,33 248.6,33.7 249.3,34.4 250,35.2 250.6,36.1 251.1,37 251.6,37.9 251.9,38.9 252.2,39.9 252.4,41 252.5,42 252.5,50" />
<path stroke="#000000" stroke-width="2" d="M 252.5,50 251.8,51.7 251.1,53.4 250.4,54.9 249.6,56.3 248.8,57.6 247.9,58.7 247,59.8 246,60.8 245,61.7 244,62.5 242.9,63.2 241.8,63.8 240.7,64.4 239.5,64.8 238.4,65.2 237.2,65.5 236,65.7 234.8,65.9 233.7,66 232.5,66" />
<path stroke="#000000" stroke-width="2" d="M 282.5,70" />
<path stroke="#000000" stroke-width="2" d="M 282.5,30 282.5,38 282.5,39 282.5,40.1 282.7,41.1 283,42.1 283.4,43.1 283.8,44.1 284.3,45 284.9,45.8 285.6,46.6 286.3,47.4 287.1,48 288,48.6 288.9,49.2 289.9,49.6 290.8,50 291.8,50.2 292.9,50.4 293.9,50.5 295,50.5 296,50.4 297,50.2 298.1,50 299,49.6 300,49.2 300.9,48.6 301.7,48 302.5,47.4 303.3,46.6 304,45.8 304.6,45 305.1,44.1 305.5,43.1 305.9,42.1 306.2,41.1 306.3,40.1 306.4,39 306.4,29 306.4,69" />
<path stroke="#000000" stroke-width="2" d="M 313.1,70" />
<path stroke="#000000" stroke-width="2" d="M 313.1,20 313.5,20 313.5,20.4 313.1,20.4 313.1,20" />
<path stroke="#000000" stroke-width="2" d="M 343.5,70" />
<path stroke="#000000" stroke-width="2" d="M 343.5,30 343.5,70 354.8,58.7" />
<path stroke="#000000" stroke-width="2" d="M 361.5,70" />
<path stroke="#000000" stroke-width="2" d="M 381.5,70 383.2,70 385,69.8 386.7,69.5 388.4,69.1 390,68.5 391.6,67.8 393.1,66.9 394.5,65.9 395.9,64.8 397.1,63.5 398.2,62.2 399.2,60.8 400.1,59.3 400.8,57.7 401.4,56 401.9,54.3 402.2,52.6 402.3,50.9 402.3,49.1 402.2,47.4 401.9,45.7 401.4,44 400.8,42.4 400.1,40.8 399.2,39.3 398.2,37.8 397.1,36.5 395.9,35.3 394.5,34.2 393.1,33.2 391.6,32.3 390,31.5 388.4,30.9 386.7,30.5 385,30.2 383.2,30 381.5,30 379.7,30.2 378,30.5 376.3,30.9 374.7,31.5 373.1,32.3 371.6,33.2 370.2,34.2 368.8,35.3 367.6,36.5 366.5,37.8 365.5,39.3 364.6,40.8 363.9,42.4 363.3,44 362.8,45.7 362.5,47.4 362.4,49.1 362.4,50.9 362.5,52.6 362.8,54.3 363.3,56 363.9,57.7 364.6,59.3 365.5,60.8 366.5,62.2 367.6,63.5 368.8,64.8 370.2,65.9 371.6,66.9 373.1,67.8 374.7,68.5 376.3,69.1 378,69.5 379.7,69.8 381.5,70" />
<path stroke="#000000" stroke-width="2" d="M 432.3,70" />
<path stroke="#000000" stroke-width="2" d="M 436.3,30 453.3,47" />
<path stroke="#000000" stroke-width="2" d="M 470.3,30 430.7,69.6" />
<path stroke="#000000" stroke-width="2" d="M 476.9,70" />
<path stroke="#000000" stroke-width="2" d="M 476.9,50 477.1,50 477.1,50.2 476.9,50.2 476.9,50" />
<path stroke="#000000" stroke-width="2" d="M 507.1,70" />
</svg>