<svg xmlns="http://www.w3.org/2000/svg" width="542.7726692940976" height="102.0" style="fill:none; stroke-linecap:round;">
    <rect width="100%" height="100%" fill="#FFFFFF" />
<path stroke="#000000" stroke-width="2" d="M 550,75" />
<path stroke="#000000" stroke-width="2" d="M 30,30 20,30 20,70" />
<path stroke="#000000" stroke-width="2" d="M 36.7,70" />
<path stroke="#000000" stroke-width="2" d="M 46.7,50 39,68.5" />
<path stroke="#000000" stroke-width="2" d="M 76.7,70" />
<path stroke="#000000" stroke-width="2" d="M 76.7,30 96.7,30 97.5,30 98.4,30.1 99.3,30.2 100.1,30.5 100.9,30.8 101.7,31.1 102.5,31.6 103.2,32.1 103.9,32.6 104.5,33.2 105,33.9 105.5,34.6 106,35.4 106.3,36.2 106.6,37 106.9,37.8 107,38.7 107.1,39.6 107.1,40.4 107,41.3 106.9,42.2 106.6,43 106.3,43.8 106,44.6 105.5,45.4 105,46.1 104.5,46.7 103.9,47.4 103.2,47.9 102.5,48.4 101.7,48.9 100.9,49.2 100.1,49.5 99.3,49.8 98.4,49.9 97.5,50" />
<path stroke="#000000" stroke-width="2" d="M 137.1,70" />
<path stroke="#000000" stroke-width="2" d="M 157.1,70 158.8,70 160.6,69.8 162.3,69.5 164,69.1 165.6,68.5 167.2,67.8 168.7,66.9 170.1,65.9 171.5,64.8 172.7,63.5 173.8,62.2 174.8,60.8 175.7,59.3 176.4,57.7 177,56 177.5,54.3 177.8,52.6 177.9,50.9 177.9,49.1 177.8,47.4 177.5,45.7 177,44 176.4,42.4 175.7,40.8 174.8,39.3 173.8,37.8 172.7,36.5 171.5,35.3 170.1,34.2 168.7,33.2 167.2,32.3 165.6,31.5 164,30.9 162.3,30.5 160.6,30.2 158.8,30 157.1,30 155.4,30.2 153.6,30.5 152,30.9 150.3,31.5 148.7,32.3 147.2,33.2 145.8,34.2 144.5,35.3 143.2,36.5 142.1,37.8 141.1,39.3 140.2,40.8 139.5,42.4 138.9,44 138.4,45.7 138.1,47.4 138,49.1 138,50.9 138.1,52.6 138.4,54.3 138.9,56 139.5,57.7 140.2,59.3 141.1,60.8 142.1,62.2 143.2,63.5 144.5,64.8 145.8,65.9 147.2,66.9 148.7,67.8 150.3,68.5 152,69.1 153.6,69.5 155.4,69.8 157.1,70" />
<path stroke="#000000" stroke-width="2" d="M 184.6,70" />
<path stroke="#000000" stroke-width="2" d="M 184.6,30 184.8,30 184.8,30.2 184.6,30.2 184.6,30" />
<path stroke="#000000" stroke-width="2" d="M 214.8,70" />
<path stroke="#000000" stroke-width="2" d="M 214.8,30 214.8,38 214.8,39 214.9,40.1 215.1,41.1 215.4,42.1 215.7,43.1 216.2,44.1 216.7,45 217.3,45.8 218,46.6 218.7,47.4 219.5,48 220.4,48.6 221.3,49.2 222.2,49.6 223.2,50 224.2,50.2 225.2,50.4 226.3,50.5 227.3,50.5 228.4,50.4 229.4,50.2 230.4,50 231.4,49.6 232.3,49.2 233.2,48.6 234.1,48 234.9,47.4 235.6,46.6 236.3,45.8 236.9,45 237.4,44.1 237.9,43.1 238.2,42.1 238.5,41.1 238.7,40.1 238.8,39 238.8,29 238.8,69" />
<path stroke="#000000" stroke-width="2" d="M 245.5,70" />
<path stroke="#000000" stroke-width="2" d="M 245.5,50 245.7,50 245.7,50.2 245.5,50.2 245.5,50" />
<path stroke="#000000" stroke-width="2" d="M 275.7,70" />
<path stroke="#000000" stroke-width="2" d="M 275.7,70" />
<path stroke="#000000" stroke-width="2" d="M 275.7,70 276.8,70 277.8,70.2 278.6,70.4 279.3,70.7 279.9,71 280.3,71.5 280.6,71.9 280.8,72.5 280.9,73.1 280.9,73.8 280.8,74.4 280.6,75.2 280.2,76 279.8,76.8 279.3,77.6 278.7,78.4 278.1,79.3 277.3,80.2 276.5,81.1 275.7,82" />
<path stroke="#000000" stroke-width="2" d="M 310.9,70" />
<path stroke="#000000" stroke-width="2" d="M 310.9,50 318.6,31.5 326.2,50 326.2,70 331.9,64.3" />
<path stroke="#000000" stroke-width="2" d="M 361.9,70" />
<path stroke="#000000" stroke-width="2" d="M 361.9,42" />
<path stroke="#000000" stroke-width="2" d="M 361.9,42 366,41.8 369.2,41.2 371.6,40.3 373.4,39.1 374.5,37.8 375.1,36.3 375.2,34.8 374.9,33.4 374.1,32 373.1,30.8 371.9,29.7 370.5,29 369.1,28.7 367.6,28.8 366.1,29.3 364.8,30.5 363.6,32.2 362.7,34.7 362.1,37.9 361.9,42 361.9,50" />
<path stroke="#000000" stroke-width="2" d="M 361.9,50 362.5,51.7 363.2,53.4 363.9,54.9 364.7,56.3 365.6,57.6 366.5,58.7 367.4,59.8 368.4,60.8 369.4,61.7 370.4,62.5 371.5,63.2 372.5,63.8 373.7,64.4 374.8,64.8 376,65.2 377.1,65.5 378.3,65.7 379.5,65.9 380.7,66 381.9,66" />
<path stroke="#000000" stroke-width="2" d="M 411.9,70" />
<path stroke="#000000" stroke-width="2" d="M 415.9,30 432.9,47" />
<path stroke="#000000" stroke-width="2" d="M 449.8,30 410.2,69.6" />
<path stroke="#000000" stroke-width="2" d="M 456.5,70" />
<path stroke="#000000" stroke-width="2" d="M 456.5,50 456.7,50 456.7,50.2 456.5,50.2 456.5,50" />
<path stroke="#000000" stroke-width="2" d="M 486.7,70" />
<path stroke="#000000" stroke-width="2" d="M 486.7,30 486.7,62" />
<path stroke="#000000" stroke-width="2" d="M 486.7,70 487.5,70 487.5,70.8 486.7,70.8 486.7,70" />
<path stroke="#000000" stroke-width="2" d="M 517.5,70" />
<path stroke="#000000" stroke-width="2" d="M 517.5,70" />
<path stroke="#000000" stroke-width="2" d="M 517.5,70 518.6,70 519.6,70.2 520.4,70.4 521.1,70.7 521.7,71 522.2,71.5 522.5,71.9 522.7,72.5 522.8,73.1 522.8,73.8 522.6,74.4 522.4,75.2 522.1,76 521.7,76.8 521.2,77.6 520.6,78.4 519.9,79.3 519.2,80.2 518.4,81.1 517.5,82" />
<path stroke="#000000" stroke-width="2" d="M 552.8,70" />
</svg>