<svg xmlns="http://www.w3.org/2000/svg" width="459.65483245404437" height="90.00000000000001" style="fill:none; stroke-linecap:round;">
    <rect width="100%" height="100%" fill="#FFFFFF" />
<path stroke="#000000" stroke-width="2" d="M 550,75" />
<path stroke="#000000" stroke-width="2" d="M 20,30 40,30" />
<path stroke="#000000" stroke-width="2" d="M 40,30 41.4,30.1 42.7,30.6 43.8,31.2 44.8,32.1 45.6,33.1 46.3,34.3 46.8,35.6 47.2,37 47.4,38.5 47.5,40 47.4,41.5 47.2,43 46.8,44.4 46.3,45.7 45.6,46.9 44.8,47.9 43.8,48.8 42.7,49.4 41.4,49.9 40,50" />
<path stroke="#000000" stroke-width="2" d="M 77.5,70" />
<path stroke="#000000" stroke-width="2" d="M 97.5,30 82.2,67 86.8,55.9 87.5,54.3 88.3,52.7 89.2,51.2 90.3,49.9 91.4,48.6 92.7,47.4 94.1,46.3 95.6,45.4 97.1,44.6 98.7,43.9 100.4,43.4 102.1,43" />
<path stroke="#000000" stroke-width="2" d="M 108.8,70" />
<path stroke="#000000" stroke-width="2" d="M 132.8,42" />
<path stroke="#000000" stroke-width="2" d="M 132.8,42 128.7,41.8 125.5,41.2 123,40.3 121.3,39.1 120.1,37.8 119.5,36.3 119.5,34.8 119.8,33.4 120.5,32 121.5,30.8 122.7,29.7 124.1,29 125.6,28.7 127.1,28.8 128.6,29.3 129.9,30.5 131.1,32.2 132,34.7 132.6,37.9 132.8,42 132.8,50" />
<path stroke="#000000" stroke-width="2" d="M 132.8,50 132.1,51.7 131.5,53.4 130.7,54.9 129.9,56.3 129.1,57.6 128.2,58.7 127.3,59.8 126.3,60.8 125.3,61.7 124.3,62.5 123.2,63.2 122.1,63.8 121,64.4 119.9,64.8 118.7,65.2 117.5,65.5 116.4,65.7 115.2,65.9 114,66 112.8,66" />
<path stroke="#000000" stroke-width="2" d="M 162.8,70" />
<path stroke="#000000" stroke-width="2" d="M 182.8,30 167.5,67" />
<path stroke="#000000" stroke-width="2" d="M 189.4,70" />
<path stroke="#000000" stroke-width="2" d="M 189.4,50 189.6,50 189.6,50.2 189.4,50.2 189.4,50" />
<path stroke="#000000" stroke-width="2" d="M 219.6,70" />
<path stroke="#000000" stroke-width="2" d="M 219.6,30 224.6,30 224.6,50 224.6,50.7 224.7,51.4 224.8,52.1 225,52.8 225.2,53.4 225.5,54 225.9,54.6 226.3,55.2 226.7,55.8 227.2,56.2 227.8,56.7 228.3,57.1 228.9,57.4 229.6,57.7 230.2,58 230.9,58.2 231.6,58.3 232.3,58.3 233,58.3 233.7,58.3 234.4,58.2 235,58 235.7,57.7 236.3,57.4 236.9,57.1 237.5,56.7 238,56.2 238.5,55.8 239,55.2 239.4,54.6 239.7,54 240,53.4 240.3,52.8 240.4,52.1 240.6,51.4 240.6,50.7" />
<path stroke="#000000" stroke-width="2" d="M 247.3,70" />
<path stroke="#000000" stroke-width="2" d="M 247.3,30 247.3,50 247.3,44 247.3,43.1 247.4,42.3 247.5,41.4 247.7,40.6 248,39.7 248.4,38.9 248.8,38.2 249.3,37.5 249.9,36.8 250.5,36.2 251.2,35.6 251.9,35.1 252.7,34.7 253.5,34.3 254.3,34 255.1,33.8 256,33.6 256.8,33.6 249.2,52.1" />
<path stroke="#000000" stroke-width="2" d="M 286.8,70" />
<path stroke="#000000" stroke-width="2" d="M 286.8,30 286.8,70 298.2,58.7" />
<path stroke="#000000" stroke-width="2" d="M 304.8,70" />
<path stroke="#000000" stroke-width="2" d="M 324.8,70 326.6,70 328.3,69.8 330,69.5 331.7,69.1 333.4,68.5 334.9,67.8 336.4,66.9 337.9,65.9 339.2,64.8 340.4,63.5 341.6,62.2 342.6,60.8 343.4,59.3 344.2,57.7 344.8,56 345.2,54.3 345.5,52.6 345.7,50.9 345.7,49.1 345.5,47.4 345.2,45.7 344.8,44 344.2,42.4 343.4,40.8 342.6,39.3 341.6,37.8 340.4,36.5 339.2,35.3 337.9,34.2 336.4,33.2 334.9,32.3 333.4,31.5 331.7,30.9 330,30.5 328.3,30.2 326.6,30 324.8,30 323.1,30.2 321.4,30.5 319.7,30.9 318,31.5 316.5,32.3 315,33.2 313.5,34.2 312.2,35.3 311,36.5 309.8,37.8 308.8,39.3 308,40.8 307.2,42.4 306.6,44 306.2,45.7 305.9,47.4 305.7,49.1 305.7,50.9 305.9,52.6 306.2,54.3 306.6,56 307.2,57.7 308,59.3 308.8,60.8 309.8,62.2 311,63.5 312.2,64.8 313.5,65.9 315,66.9 316.5,67.8 318,68.5 319.7,69.1 321.4,69.5 323.1,69.8 324.8,70" />
<path stroke="#000000" stroke-width="2" d="M 375.7,70" />
<path stroke="#000000" stroke-width="2" d="M 385.7,30 384.8,30 383.9,30.1 383.1,30.2 382.2,30.5 381.4,30.8 380.6,31.1 379.9,31.6 379.2,32.1 378.5,32.6 377.9,33.2 377.3,33.9 376.8,34.6 376.4,35.4 376,36.2 375.7,37 375.5,37.8 375.3,38.7 375.3,39.6 375.3,40.4 375.3,41.3 375.5,42.2 375.7,43 376,43.8 376.4,44.6 376.8,45.4 377.3,46.1 377.9,46.7 378.5,47.4 379.2,47.9 379.9,48.4 380.6,48.9 381.4,49.2 382.2,49.5 383.1,49.8 383.9,49.9 384.8,50" />
<path stroke="#000000" stroke-width="2" d="M 384.8,40" />
<path stroke="#000000" stroke-width="2" d="M 368.8,40 388.8,40 388.8,44 388.8,44.5 388.9,45 388.9,45.5 389.1,46 389.3,46.5 389.5,47 389.7,47.5 390,47.9 390.4,48.3 390.7,48.7 391.1,49 391.6,49.3 392,49.6 392.5,49.8 393,50 393.5,50.1 394,50.2 394.5,50.2 395.1,50.2 395.6,50.2 396.1,50.1 396.6,50 397.1,49.8 397.6,49.6 398,49.3 398.5,49 398.9,48.7 399.2,48.3 399.6,47.9 399.9,47.5 400.1,47 400.3,46.5 400.5,46 400.7,45.5 400.7,45 400.8,44.5 400.8,39.5 400.8,59.5" />
<path stroke="#000000" stroke-width="2" d="M 407.5,70" />
<path stroke="#000000" stroke-width="2" d="M 407.5,30 407.5,50 407.5,44 407.5,43.1 407.5,42.3 407.7,41.4 407.9,40.6 408.2,39.7 408.6,38.9 409,38.2 409.5,37.5 410.1,36.8 410.7,36.2 411.4,35.6 412.1,35.1 412.8,34.7 413.6,34.3 414.4,34 415.3,33.8 416.1,33.6 417,33.6 417,34.3 417.1,35 417.2,35.7 417.4,36.3 417.6,37 417.9,37.6 418.3,38.2 418.7,38.8 419.1,39.3 419.6,39.8 420.1,40.3 420.7,40.7 421.3,41 421.9,41.3 422.6,41.6 423.3,41.7 424,41.9 424.7,41.9 425.4,41.9 426.1,41.9 426.7,41.7 427.4,41.6 428.1,41.3 428.7,41 429.3,40.7 429.9,40.3 430.4,39.8 430.9,39.3 431.4,38.8 431.8,38.2 432.1,37.6 432.4,37 432.6,36.3 432.8,35.7 432.9,35 433,34.3" />
<path stroke="#000000" stroke-width="2" d="M 433,34.3 435,34.2 436.6,33.9 437.9,33.4 438.8,32.8 439.3,32.2 439.6,31.4 439.7,30.7 439.5,30 439.1,29.3 438.6,28.6 438,28.1 437.3,27.8 436.6,27.6 435.8,27.7 435.1,27.9 434.4,28.5 433.9,29.4 433.4,30.6 433.1,32.2 433,34.3 433,49.3" />
<path stroke="#000000" stroke-width="2" d="M 469.7,70" />
</svg>