<svg xmlns="http://www.w3.org/2000/svg" width="317.59308664365943" height="90.2" style="fill:none; stroke-linecap:round;">
    <rect width="100%" height="100%" fill="#FFFFFF" />
<path stroke="#000000" stroke-width="2" d="M 550,75" />
<path stroke="#000000" stroke-width="2" d="M 36,30 16.2,49.8 36,69.6" />
<path stroke="#000000" stroke-width="2" d="M 42.7,70" />
<path stroke="#000000" stroke-width="2" d="M 42.7,50 50.3,68.5" />
<path stroke="#000000" stroke-width="2" d="M 57,70" />
<path stroke="#000000" stroke-width="2" d="M 57,50 57.4,50 57.4,50.4 57,50.4 57,50" />
<path stroke="#000000" stroke-width="2" d="M 87.4,70" />
<path stroke="#000000" stroke-width="2" d="M 87.4,30 107.4,30 99.7,48.5" />
<path stroke="#000000" stroke-width="2" d="M 114.1,70" />
<path stroke="#000000" stroke-width="2" d="M 114.1,20 134.1,20 134.9,20 135.8,20.1 136.7,20.2 137.5,20.5 138.3,20.8 139.1,21.1 139.9,21.6 140.6,22.1 141.2,22.6 141.9,23.2 142.4,23.9 142.9,24.6 143.4,25.4 143.7,26.2 144,27 144.3,27.8 144.4,28.7 144.5,29.6 144.5,30.4 144.4,31.3 144.3,32.2 144,33 143.7,33.8 143.4,34.6 142.9,35.4 142.4,36.1 141.9,36.7 141.2,37.4 140.6,37.9 139.9,38.4 139.1,38.9 138.3,39.2 137.5,39.5 136.7,39.8 135.8,39.9 134.9,40 135.8,40 136.7,40.1 137.5,40.2 138.4,40.4 139.2,40.7 140,41.1 140.7,41.5 141.4,42 142.1,42.6 142.7,43.2 143.3,43.9 143.8,44.6 144.2,45.4 144.6,46.1 144.9,47 145.1,47.8 145.3,48.7 145.4,49.5 145.4,50.4 145.3,51.3 145.1,52.1 144.9,53 144.6,53.8 144.2,54.6 143.8,55.3 143.3,56.1 142.7,56.7 142.1,57.3 141.4,57.9 140.7,58.4 140,58.8 139.2,59.2 138.4,59.5 137.5,59.7 136.7,59.9 135.8,60" />
<path stroke="#000000" stroke-width="2" d="M 175.4,70" />
<path stroke="#000000" stroke-width="2" d="M 175.4,70 175.6,70 175.6,70.2 175.4,70.2 175.4,70" />
<path stroke="#000000" stroke-width="2" d="M 205.6,70" />
<path stroke="#000000" stroke-width="2" d="M 205.6,30 207.3,30 209,30.2 210.8,30.5 212.4,30.9 214.1,31.5 215.7,32.2 217.2,33.1 218.6,34.1 219.9,35.2 221.2,36.5 222.3,37.8 223.3,39.2 224.2,40.7 224.9,42.3 225.5,44 226,45.7 226.3,47.4 226.4,49.1 226.4,50.9 226.3,52.6 226,54.3 225.5,56 224.9,57.6 224.2,59.2 223.3,60.7 222.3,62.2 221.2,63.5 219.9,64.7 218.6,65.8 217.2,66.8 215.7,67.7 214.1,68.5 212.4,69.1 210.8,69.5 209,69.8 207.3,70" />
<path stroke="#000000" stroke-width="2" d="M 233.1,70" />
<path stroke="#000000" stroke-width="2" d="M 233.1,20 240.7,38.5" />
<path stroke="#000000" stroke-width="2" d="M 247.4,70" />
<path stroke="#000000" stroke-width="2" d="M 267.4,30 252.1,67" />
<path stroke="#000000" stroke-width="2" d="M 297.4,70" />
<path stroke="#000000" stroke-width="2" d="M 297.4,70 297.6,70 297.6,70.2 297.4,70.2 297.4,70" />
<path stroke="#000000" stroke-width="2" d="M 327.6,70" />
</svg>