<svg xmlns="http://www.w3.org/2000/svg" width="539.8459932046255" height="102.0" style="fill:none; stroke-linecap:round;">
    <rect width="100%" height="100%" fill="#FFFFFF" />
<path stroke="#000000" stroke-width="2" d="M 550,75" />
<path stroke="#000000" stroke-width="2" d="M 30,30 20,30 20,70" />
<path stroke="#000000" stroke-width="2" d="M 36.7,70" />
<path stroke="#000000" stroke-width="2" d="M 46.7,50 39,68.5" />
<path stroke="#000000" stroke-width="2" d="M 76.7,70" />
<path stroke="#000000" stroke-width="2" d="M 76.7,30 96.7,30" />
<path stroke="#000000" stroke-width="2" d="M 96.7,30 98.1,30.1 99.4,30.6 100.5,31.2 101.5,32.1 102.3,33.1 103,34.3 103.5,35.6 103.9,37 104.1,38.5 104.2,40 104.1,41.5 103.9,43 103.5,44.4 103,45.7 102.3,46.9 101.5,47.9 100.5,48.8 99.4,49.4 98.1,49.9 96.7,50" />
<path stroke="#000000" stroke-width="2" d="M 134.2,70" />
<path stroke="#000000" stroke-width="2" d="M 154.2,70 155.9,70 157.6,69.8 159.4,69.5 161.1,69.1 162.7,68.5 164.3,67.8 165.8,66.9 167.2,65.9 168.6,64.8 169.8,63.5 170.9,62.2 171.9,60.8 172.8,59.3 173.5,57.7 174.1,56 174.6,54.3 174.9,52.6 175,50.9 175,49.1 174.9,47.4 174.6,45.7 174.1,44 173.5,42.4 172.8,40.8 171.9,39.3 170.9,37.8 169.8,36.5 168.6,35.3 167.2,34.2 165.8,33.2 164.3,32.3 162.7,31.5 161.1,30.9 159.4,30.5 157.6,30.2 155.9,30 154.2,30 152.4,30.2 150.7,30.5 149,30.9 147.4,31.5 145.8,32.3 144.3,33.2 142.9,34.2 141.5,35.3 140.3,36.5 139.2,37.8 138.2,39.3 137.3,40.8 136.6,42.4 136,44 135.5,45.7 135.2,47.4 135.1,49.1 135.1,50.9 135.2,52.6 135.5,54.3 136,56 136.6,57.7 137.3,59.3 138.2,60.8 139.2,62.2 140.3,63.5 141.5,64.8 142.9,65.9 144.3,66.9 145.8,67.8 147.4,68.5 149,69.1 150.7,69.5 152.4,69.8 154.2,70" />
<path stroke="#000000" stroke-width="2" d="M 181.7,70" />
<path stroke="#000000" stroke-width="2" d="M 181.7,30 181.9,30 181.9,30.2 181.7,30.2 181.7,30" />
<path stroke="#000000" stroke-width="2" d="M 211.9,70" />
<path stroke="#000000" stroke-width="2" d="M 211.9,30 211.9,38 211.9,39 212,40.1 212.2,41.1 212.4,42.1 212.8,43.1 213.2,44.1 213.8,45 214.4,45.8 215,46.6 215.8,47.4 216.6,48 217.4,48.6 218.3,49.2 219.3,49.6 220.3,50 221.3,50.2 222.3,50.4 223.4,50.5 224.4,50.5 225.4,50.4 226.5,50.2 227.5,50 228.5,49.6 229.4,49.2 230.3,48.6 231.2,48 232,47.4 232.7,46.6 233.4,45.8 234,45 234.5,44.1 235,43.1 235.3,42.1 235.6,41.1 235.8,40.1 235.9,39 235.9,29 235.9,69" />
<path stroke="#000000" stroke-width="2" d="M 242.5,70" />
<path stroke="#000000" stroke-width="2" d="M 242.5,50 242.7,50 242.7,50.2 242.5,50.2 242.5,50" />
<path stroke="#000000" stroke-width="2" d="M 272.7,70" />
<path stroke="#000000" stroke-width="2" d="M 272.7,70" />
<path stroke="#000000" stroke-width="2" d="M 272.7,70 273.9,70 274.8,70.2 275.7,70.4 276.4,70.7 276.9,71 277.4,71.5 277.7,71.9 277.9,72.5 278,73.1 278,73.8 277.9,74.4 277.6,75.2 277.3,76 276.9,76.8 276.4,77.6 275.8,78.4 275.1,79.3 274.4,80.2 273.6,81.1 272.7,82" />
<path stroke="#000000" stroke-width="2" d="M 308,70" />
<path stroke="#000000" stroke-width="2" d="M 308,50 315.7,31.5 323.3,50 323.3,70 329,64.3" />
<path stroke="#000000" stroke-width="2" d="M 359,70" />
<path stroke="#000000" stroke-width="2" d="M 359,42" />
<path stroke="#000000" stroke-width="2" d="M 359,42 363,41.8 366.3,41.2 368.7,40.3 370.5,39.1 371.6,37.8 372.2,36.3 372.3,34.8 371.9,33.4 371.2,32 370.2,30.8 369,29.7 367.6,29 366.1,28.7 364.6,28.8 363.2,29.3 361.8,30.5 360.7,32.2 359.8,34.7 359.2,37.9 359,42 359,50" />
<path stroke="#000000" stroke-width="2" d="M 359,50 359.6,51.7 360.3,53.4 361,54.9 361.8,56.3 362.7,57.6 363.5,58.7 364.5,59.8 365.4,60.8 366.4,61.7 367.5,62.5 368.5,63.2 369.6,63.8 370.7,64.4 371.9,64.8 373,65.2 374.2,65.5 375.4,65.7 376.6,65.9 377.8,66 379,66" />
<path stroke="#000000" stroke-width="2" d="M 409,70" />
<path stroke="#000000" stroke-width="2" d="M 413,30 429.9,47" />
<path stroke="#000000" stroke-width="2" d="M 446.9,30 407.3,69.6" />
<path stroke="#000000" stroke-width="2" d="M 453.6,70" />
<path stroke="#000000" stroke-width="2" d="M 453.6,50 453.8,50 453.8,50.2 453.6,50.2 453.6,50" />
<path stroke="#000000" stroke-width="2" d="M 483.8,70" />
<path stroke="#000000" stroke-width="2" d="M 483.8,30 483.8,62" />
<path stroke="#000000" stroke-width="2" d="M 483.8,70 484.6,70 484.6,70.8 483.8,70.8 483.8,70" />
<path stroke="#000000" stroke-width="2" d="M 514.6,70" />
<path stroke="#000000" stroke-width="2" d="M 514.6,70" />
<path stroke="#000000" stroke-width="2" d="M 514.6,70 515.7,70 516.7,70.2 517.5,70.4 518.2,70.7 518.8,71 519.2,71.5 519.6,71.9 519.8,72.5 519.8,73.1 519.8,73.8 519.7,74.4 519.5,75.2 519.1,76 518.7,76.8 518.2,77.6 517.6,78.4 517,79.3 516.2,80.2 515.4,81.1 514.6,82" />
<path stroke="#000000" stroke-width="2" d="M 549.8,70" />
</svg>