<svg xmlns="http://www.w3.org/2000/svg" width="478.58150854351624" height="90.00000000000001" style="fill:none; stroke-linecap:round;">
    <rect width="100%" height="100%" fill="#FFFFFF" />
<path stroke="#000000" stroke-width="2" d="M 550,75" />
<path stroke="#000000" stroke-width="2" d="M 20,30 40,30 40.9,30 41.7,30.1 42.6,30.2 43.4,30.5 44.3,30.8 45.1,31.1 45.8,31.6 46.5,32.1 47.2,32.6 47.8,33.2 48.4,33.9 48.9,34.6 49.3,35.4 49.7,36.2 50,37 50.2,37.8 50.4,38.7 50.4,39.6 50.4,40.4 50.4,41.3 50.2,42.2 50,43 49.7,43.8 49.3,44.6 48.9,45.4 48.4,46.1 47.8,46.7 47.2,47.4 46.5,47.9 45.8,48.4 45.1,48.9 44.3,49.2 43.4,49.5 42.6,49.8 41.7,49.9 40.9,50" />
<path stroke="#000000" stroke-width="2" d="M 80.4,70" />
<path stroke="#000000" stroke-width="2" d="M 100.4,30 85.1,67 89.7,55.9 90.4,54.3 91.2,52.7 92.1,51.2 93.2,49.9 94.4,48.6 95.6,47.4 97,46.3 98.5,45.4 100.1,44.6 101.7,43.9 103.3,43.4 105,43" />
<path stroke="#000000" stroke-width="2" d="M 111.7,70" />
<path stroke="#000000" stroke-width="2" d="M 151.7,42 151.7,43 151.6,44.1 151.4,45.1 151.2,46.1 150.8,47.1 150.4,48.1 149.8,49 149.2,49.8 148.6,50.6 147.8,51.4 147,52 146.2,52.6 145.3,53.2 144.3,53.6 143.3,54 142.3,54.2 141.3,54.4 140.2,54.5 139.2,54.5 138.1,54.4 137.1,54.2 136.1,54 135.1,53.6 134.2,53.2 133.3,52.6 132.4,52 131.6,51.4 130.9,50.6 130.2,49.8 129.6,49 129.1,48.1 128.6,47.1 128.3,46.1 128,45.1 127.8,44.1 127.7,43 127.7,42 127.8,41 128,39.9 128.3,38.9 128.6,37.9 129.1,37 129.6,36.1 130.2,35.2 130.9,34.4 131.6,33.7 132.4,33 133.3,32.4 134.2,31.9 135.1,31.4 136.1,31.1 137.1,30.8 138.1,30.6 139.2,30.5 140.2,30.5 141.3,30.6 142.3,30.8 143.3,31.1 144.3,31.4 145.3,31.9 146.2,32.4 147,33 147.8,33.7 148.6,34.4 149.2,35.2 149.8,36.1 150.4,37 150.8,37.9 151.2,38.9 151.4,39.9 151.6,41 151.7,42 151.7,50" />
<path stroke="#000000" stroke-width="2" d="M 151.7,50 151.1,51.7 150.4,53.4 149.6,54.9 148.9,56.3 148,57.6 147.1,58.7 146.2,59.8 145.2,60.8 144.2,61.7 143.2,62.5 142.1,63.2 141,63.8 139.9,64.4 138.8,64.8 137.6,65.2 136.5,65.5 135.3,65.7 134.1,65.9 132.9,66 131.7,66" />
<path stroke="#000000" stroke-width="2" d="M 181.7,70" />
<path stroke="#000000" stroke-width="2" d="M 201.7,30 186.4,67" />
<path stroke="#000000" stroke-width="2" d="M 208.4,70" />
<path stroke="#000000" stroke-width="2" d="M 208.4,50 208.6,50 208.6,50.2 208.4,50.2 208.4,50" />
<path stroke="#000000" stroke-width="2" d="M 238.6,70" />
<path stroke="#000000" stroke-width="2" d="M 238.6,30 243.6,30 243.6,50 243.6,50.7 243.6,51.4 243.7,52.1 243.9,52.8 244.2,53.4 244.5,54 244.8,54.6 245.2,55.2 245.7,55.8 246.2,56.2 246.7,56.7 247.3,57.1 247.9,57.4 248.5,57.7 249.2,58 249.8,58.2 250.5,58.3 251.2,58.3 251.9,58.3 252.6,58.3 253.3,58.2 254,58 254.6,57.7 255.3,57.4 255.9,57.1 256.4,56.7 257,56.2 257.5,55.8 257.9,55.2 258.3,54.6 258.7,54 258.9,53.4 259.2,52.8 259.4,52.1 259.5,51.4 259.6,50.7" />
<path stroke="#000000" stroke-width="2" d="M 266.2,70" />
<path stroke="#000000" stroke-width="2" d="M 266.2,30 266.2,50 266.2,44 266.2,43.1 266.3,42.3 266.4,41.4 266.7,40.6 267,39.7 267.3,38.9 267.8,38.2 268.3,37.5 268.8,36.8 269.5,36.2 270.1,35.6 270.8,35.1 271.6,34.7 272.4,34.3 273.2,34 274,33.8 274.9,33.6 275.8,33.6 268.1,52.1" />
<path stroke="#000000" stroke-width="2" d="M 305.8,70" />
<path stroke="#000000" stroke-width="2" d="M 305.8,30 305.8,70 317.1,58.7" />
<path stroke="#000000" stroke-width="2" d="M 323.8,70" />
<path stroke="#000000" stroke-width="2" d="M 343.8,70 345.5,70 347.2,69.8 349,69.5 350.6,69.1 352.3,68.5 353.9,67.8 355.4,66.9 356.8,65.9 358.1,64.8 359.4,63.5 360.5,62.2 361.5,60.8 362.4,59.3 363.1,57.7 363.7,56 364.2,54.3 364.5,52.6 364.6,50.9 364.6,49.1 364.5,47.4 364.2,45.7 363.7,44 363.1,42.4 362.4,40.8 361.5,39.3 360.5,37.8 359.4,36.5 358.1,35.3 356.8,34.2 355.4,33.2 353.9,32.3 352.3,31.5 350.6,30.9 349,30.5 347.2,30.2 345.5,30 343.8,30 342,30.2 340.3,30.5 338.6,30.9 337,31.5 335.4,32.3 333.9,33.2 332.4,34.2 331.1,35.3 329.9,36.5 328.8,37.8 327.8,39.3 326.9,40.8 326.1,42.4 325.5,44 325.1,45.7 324.8,47.4 324.6,49.1 324.6,50.9 324.8,52.6 325.1,54.3 325.5,56 326.1,57.7 326.9,59.3 327.8,60.8 328.8,62.2 329.9,63.5 331.1,64.8 332.4,65.9 333.9,66.9 335.4,67.8 337,68.5 338.6,69.1 340.3,69.5 342,69.8 343.8,70" />
<path stroke="#000000" stroke-width="2" d="M 394.6,70" />
<path stroke="#000000" stroke-width="2" d="M 404.6,30 403.7,30 402.9,30.1 402,30.2 401.2,30.5 400.3,30.8 399.6,31.1 398.8,31.6 398.1,32.1 397.4,32.6 396.8,33.2 396.2,33.9 395.7,34.6 395.3,35.4 394.9,36.2 394.6,37 394.4,37.8 394.3,38.7 394.2,39.6 394.2,40.4 394.3,41.3 394.4,42.2 394.6,43 394.9,43.8 395.3,44.6 395.7,45.4 396.2,46.1 396.8,46.7 397.4,47.4 398.1,47.9 398.8,48.4 399.6,48.9 400.3,49.2 401.2,49.5 402,49.8 402.9,49.9 403.7,50" />
<path stroke="#000000" stroke-width="2" d="M 403.7,40" />
<path stroke="#000000" stroke-width="2" d="M 387.7,40 407.7,40 407.7,44 407.7,44.5 407.8,45 407.9,45.5 408,46 408.2,46.5 408.4,47 408.7,47.5 409,47.9 409.3,48.3 409.7,48.7 410.1,49 410.5,49.3 411,49.6 411.4,49.8 411.9,50 412.4,50.1 412.9,50.2 413.5,50.2 414,50.2 414.5,50.2 415,50.1 415.5,50 416,49.8 416.5,49.6 417,49.3 417.4,49 417.8,48.7 418.2,48.3 418.5,47.9 418.8,47.5 419,47 419.3,46.5 419.4,46 419.6,45.5 419.7,45 419.7,44.5 419.7,39.5 419.7,59.5" />
<path stroke="#000000" stroke-width="2" d="M 426.4,70" />
<path stroke="#000000" stroke-width="2" d="M 426.4,30 426.4,50 426.4,44 426.4,43.1 426.5,42.3 426.6,41.4 426.8,40.6 427.1,39.7 427.5,38.9 427.9,38.2 428.4,37.5 429,36.8 429.6,36.2 430.3,35.6 431,35.1 431.8,34.7 432.6,34.3 433.4,34 434.2,33.8 435.1,33.6 435.9,33.6 435.9,34.3 436,35 436.1,35.7 436.3,36.3 436.5,37 436.8,37.6 437.2,38.2 437.6,38.8 438,39.3 438.5,39.8 439.1,40.3 439.6,40.7 440.2,41 440.9,41.3 441.5,41.6 442.2,41.7 442.9,41.9 443.6,41.9 444.3,41.9 445,41.9 445.7,41.7 446.3,41.6 447,41.3 447.6,41 448.2,40.7 448.8,40.3 449.3,39.8 449.8,39.3 450.3,38.8 450.7,38.2 451,37.6 451.3,37 451.6,36.3 451.7,35.7 451.9,35 451.9,34.3" />
<path stroke="#000000" stroke-width="2" d="M 451.9,34.3 454,34.2 455.6,33.9 456.8,33.4 457.7,32.8 458.3,32.2 458.5,31.4 458.6,30.7 458.4,30 458.1,29.3 457.6,28.6 456.9,28.1 456.2,27.8 455.5,27.6 454.8,27.7 454,27.9 453.4,28.5 452.8,29.4 452.3,30.6 452,32.2 451.9,34.3 451.9,49.3" />
<path stroke="#000000" stroke-width="2" d="M 488.6,70" />
</svg>