<svg xmlns="http://www.w3.org/2000/svg" width="462.78150854351634" height="90.00000000000001" style="fill:none; stroke-linecap:round;">
    <rect width="100%" height="100%" fill="#FFFFFF" />
<path stroke="#000000" stroke-width="2" d="M 550,75" />
<path stroke="#000000" stroke-width="2" d="M 20,30 40,30 40.9,30 41.7,30.1 42.6,30.2 43.4,30.5 44.3,30.8 45.1,31.1 45.8,31.6 46.5,32.1 47.2,32.6 47.8,33.2 48.4,33.9 48.9,34.6 49.3,35.4 49.7,36.2 50,37 50.2,37.8 50.4,38.7 50.4,39.6 50.4,40.4 50.4,41.3 50.2,42.2 50,43 49.7,43.8 49.3,44.6 48.9,45.4 48.4,46.1 47.8,46.7 47.2,47.4 46.5,47.9 45.8,48.4 45.1,48.9 44.3,49.2 43.4,49.5 42.6,49.8 41.7,49.9 40.9,50" />
<path stroke="#000000" stroke-width="2" d="M 80.4,70" />
<path stroke="#000000" stroke-width="2" d="M 100.4,30 85.1,67 89.7,55.9 90.4,54.3 91.2,52.7 92.1,51.2 93.2,49.9 94.4,48.6 95.6,47.4 97,46.3 98.5,45.4 100.1,44.6 101.7,43.9 103.3,43.4 105,43" />
<path stroke="#000000" stroke-width="2" d="M 111.7,70" />
<path stroke="#000000" stroke-width="2" d="M 135.7,42 135.7,43 135.6,44.1 135.4,45.1 135.2,46.1 134.8,47.1 134.4,48.1 133.8,49 133.2,49.8 132.6,50.6 131.8,51.4 131,52 130.2,52.6 129.3,53.2 128.3,53.6 127.3,54 126.3,54.2 125.3,54.4 124.2,54.5 123.2,54.5 122.1,54.4 121.1,54.2 120.1,54 119.1,53.6 118.2,53.2 117.3,52.6 116.4,52 115.6,51.4 114.9,50.6 114.2,49.8 113.6,49 113.1,48.1 112.6,47.1 112.3,46.1 112,45.1 111.8,44.1 111.7,43 111.7,42 111.8,41 112,39.9 112.3,38.9 112.6,37.9 113.1,37 113.6,36.1 114.2,35.2 114.9,34.4 115.6,33.7 116.4,33 117.3,32.4 118.2,31.9 119.1,31.4 120.1,31.1 121.1,30.8 122.1,30.6 123.2,30.5 124.2,30.5 125.3,30.6 126.3,30.8 127.3,31.1 128.3,31.4 129.3,31.9 130.2,32.4 131,33 131.8,33.7 132.6,34.4 133.2,35.2 133.8,36.1 134.4,37 134.8,37.9 135.2,38.9 135.4,39.9 135.6,41 135.7,42 135.7,50" />
<path stroke="#000000" stroke-width="2" d="M 135.7,50 135.1,51.7 134.4,53.4 133.6,54.9 132.9,56.3 132,57.6 131.1,58.7 130.2,59.8 129.2,60.8 128.2,61.7 127.2,62.5 126.1,63.2 125,63.8 123.9,64.4 122.8,64.8 121.6,65.2 120.5,65.5 119.3,65.7 118.1,65.9 116.9,66 115.7,66" />
<path stroke="#000000" stroke-width="2" d="M 165.7,70" />
<path stroke="#000000" stroke-width="2" d="M 185.7,30 170.4,67" />
<path stroke="#000000" stroke-width="2" d="M 192.4,70" />
<path stroke="#000000" stroke-width="2" d="M 192.4,50 192.8,50 192.8,50.4 192.4,50.4 192.4,50" />
<path stroke="#000000" stroke-width="2" d="M 222.8,70" />
<path stroke="#000000" stroke-width="2" d="M 222.8,30 227.8,30 227.8,50 227.8,50.7 227.8,51.4 227.9,52.1 228.1,52.8 228.4,53.4 228.7,54 229,54.6 229.4,55.2 229.9,55.8 230.4,56.2 230.9,56.7 231.5,57.1 232.1,57.4 232.7,57.7 233.4,58 234,58.2 234.7,58.3 235.4,58.3 236.1,58.3 236.8,58.3 237.5,58.2 238.2,58 238.8,57.7 239.5,57.4 240.1,57.1 240.6,56.7 241.2,56.2 241.7,55.8 242.1,55.2 242.5,54.6 242.9,54 243.1,53.4 243.4,52.8 243.6,52.1 243.7,51.4 243.8,50.7" />
<path stroke="#000000" stroke-width="2" d="M 250.4,70" />
<path stroke="#000000" stroke-width="2" d="M 250.4,30 250.4,50 250.4,44 250.4,43.1 250.5,42.3 250.6,41.4 250.9,40.6 251.2,39.7 251.5,38.9 252,38.2 252.5,37.5 253,36.8 253.7,36.2 254.3,35.6 255,35.1 255.8,34.7 256.6,34.3 257.4,34 258.2,33.8 259.1,33.6 260,33.6 252.3,52.1" />
<path stroke="#000000" stroke-width="2" d="M 290,70" />
<path stroke="#000000" stroke-width="2" d="M 290,30 290,70 301.3,58.7" />
<path stroke="#000000" stroke-width="2" d="M 308,70" />
<path stroke="#000000" stroke-width="2" d="M 328,70 329.7,70 331.4,69.8 333.2,69.5 334.8,69.1 336.5,68.5 338.1,67.8 339.6,66.9 341,65.9 342.3,64.8 343.6,63.5 344.7,62.2 345.7,60.8 346.6,59.3 347.3,57.7 347.9,56 348.4,54.3 348.7,52.6 348.8,50.9 348.8,49.1 348.7,47.4 348.4,45.7 347.9,44 347.3,42.4 346.6,40.8 345.7,39.3 344.7,37.8 343.6,36.5 342.3,35.3 341,34.2 339.6,33.2 338.1,32.3 336.5,31.5 334.8,30.9 333.2,30.5 331.4,30.2 329.7,30 328,30 326.2,30.2 324.5,30.5 322.8,30.9 321.2,31.5 319.6,32.3 318.1,33.2 316.6,34.2 315.3,35.3 314.1,36.5 313,37.8 312,39.3 311.1,40.8 310.3,42.4 309.7,44 309.3,45.7 309,47.4 308.8,49.1 308.8,50.9 309,52.6 309.3,54.3 309.7,56 310.3,57.7 311.1,59.3 312,60.8 313,62.2 314.1,63.5 315.3,64.8 316.6,65.9 318.1,66.9 319.6,67.8 321.2,68.5 322.8,69.1 324.5,69.5 326.2,69.8 328,70" />
<path stroke="#000000" stroke-width="2" d="M 378.8,70" />
<path stroke="#000000" stroke-width="2" d="M 388.8,30 387.9,30 387.1,30.1 386.2,30.2 385.4,30.5 384.5,30.8 383.8,31.1 383,31.6 382.3,32.1 381.6,32.6 381,33.2 380.4,33.9 379.9,34.6 379.5,35.4 379.1,36.2 378.8,37 378.6,37.8 378.5,38.7 378.4,39.6 378.4,40.4 378.5,41.3 378.6,42.2 378.8,43 379.1,43.8 379.5,44.6 379.9,45.4 380.4,46.1 381,46.7 381.6,47.4 382.3,47.9 383,48.4 383.8,48.9 384.5,49.2 385.4,49.5 386.2,49.8 387.1,49.9 387.9,50" />
<path stroke="#000000" stroke-width="2" d="M 387.9,40" />
<path stroke="#000000" stroke-width="2" d="M 371.9,40 391.9,40 391.9,44 391.9,44.5 392,45 392.1,45.5 392.2,46 392.4,46.5 392.6,47 392.9,47.5 393.2,47.9 393.5,48.3 393.9,48.7 394.3,49 394.7,49.3 395.2,49.6 395.6,49.8 396.1,50 396.6,50.1 397.1,50.2 397.7,50.2 398.2,50.2 398.7,50.2 399.2,50.1 399.7,50 400.2,49.8 400.7,49.6 401.2,49.3 401.6,49 402,48.7 402.4,48.3 402.7,47.9 403,47.5 403.2,47 403.5,46.5 403.6,46 403.8,45.5 403.9,45 403.9,44.5 403.9,39.5 403.9,59.5" />
<path stroke="#000000" stroke-width="2" d="M 410.6,70" />
<path stroke="#000000" stroke-width="2" d="M 410.6,30 410.6,50 410.6,44 410.6,43.1 410.7,42.3 410.8,41.4 411,40.6 411.3,39.7 411.7,38.9 412.1,38.2 412.6,37.5 413.2,36.8 413.8,36.2 414.5,35.6 415.2,35.1 416,34.7 416.8,34.3 417.6,34 418.4,33.8 419.3,33.6 420.1,33.6 420.1,34.3 420.2,35 420.3,35.7 420.5,36.3 420.7,37 421,37.6 421.4,38.2 421.8,38.8 422.2,39.3 422.7,39.8 423.3,40.3 423.8,40.7 424.4,41 425.1,41.3 425.7,41.6 426.4,41.7 427.1,41.9 427.8,41.9 428.5,41.9 429.2,41.9 429.9,41.7 430.5,41.6 431.2,41.3 431.8,41 432.4,40.7 433,40.3 433.5,39.8 434,39.3 434.5,38.8 434.9,38.2 435.2,37.6 435.5,37 435.8,36.3 435.9,35.7 436.1,35 436.1,34.3" />
<path stroke="#000000" stroke-width="2" d="M 436.1,34.3 438.2,34.2 439.8,33.9 441,33.4 441.9,32.8 442.5,32.2 442.7,31.4 442.8,30.7 442.6,30 442.3,29.3 441.8,28.6 441.1,28.1 440.4,27.8 439.7,27.6 439,27.7 438.2,27.9 437.6,28.5 437,29.4 436.5,30.6 436.2,32.2 436.1,34.3 436.1,49.3" />
<path stroke="#000000" stroke-width="2" d="M 472.8,70" />
</svg>