<svg xmlns="http://www.w3.org/2000/svg" width="534.9612479530799" height="102.0" style="fill:none; stroke-linecap:round;">
    <rect width="100%" height="100%" fill="#FFFFFF" />
<path stroke="#000000" stroke-width="2" d="M 550,75" />
<path stroke="#000000" stroke-width="2" d="M 30,30 20,30 20,70" />
<path stroke="#000000" stroke-width="2" d="M 36.7,70" />
<path stroke="#000000" stroke-width="2" d="M 46.7,50 39,68.5" />
<path stroke="#000000" stroke-width="2" d="M 76.7,70" />
<path stroke="#000000" stroke-width="2" d="M 76.7,30 96.7,30 97.5,30 98.4,30.1 99.3,30.2 100.1,30.5 100.9,30.8 101.7,31.1 102.5,31.6 103.2,32.1 103.9,32.6 104.5,33.2 105,33.9 105.5,34.6 106,35.4 106.3,36.2 106.6,37 106.9,37.8 107,38.7 107.1,39.6 107.1,40.4 107,41.3 106.9,42.2 106.6,43 106.3,43.8 106,44.6 105.5,45.4 105,46.1 104.5,46.7 103.9,47.4 103.2,47.9 102.5,48.4 101.7,48.9 100.9,49.2 100.1,49.5 99.3,49.8 98.4,49.9 97.5,50" />
<path stroke="#000000" stroke-width="2" d="M 137.1,70" />
<path stroke="#000000" stroke-width="2" d="M 157.1,70 158.8,70 160.6,69.8 162.3,69.5 164,69.1 165.6,68.5 167.2,67.8 168.7,66.9 170.1,65.9 171.5,64.8 172.7,63.5 173.8,62.2 174.8,60.8 175.7,59.3 176.4,57.7 177,56 177.5,54.3 177.8,52.6 177.9,50.9 177.9,49.1 177.8,47.4 177.5,45.7 177,44 176.4,42.4 175.7,40.8 174.8,39.3 173.8,37.8 172.7,36.5 171.5,35.3 170.1,34.2 168.7,33.2 167.2,32.3 165.6,31.5 164,30.9 162.3,30.5 160.6,30.2 158.8,30 157.1,30 155.4,30.2 153.6,30.5 152,30.9 150.3,31.5 148.7,32.3 147.2,33.2 145.8,34.2 144.5,35.3 143.2,36.5 142.1,37.8 141.1,39.3 140.2,40.8 139.5,42.4 138.9,44 138.4,45.7 138.1,47.4 138,49.1 138,50.9 138.1,52.6 138.4,54.3 138.9,56 139.5,57.7 140.2,59.3 141.1,60.8 142.1,62.2 143.2,63.5 144.5,64.8 145.8,65.9 147.2,66.9 148.7,67.8 150.3,68.5 152,69.1 153.6,69.5 155.4,69.8 157.1,70" />
<path stroke="#000000" stroke-width="2" d="M 184.6,70" />
<path stroke="#000000" stroke-width="2" d="M 184.6,30 185,30 185,30.4 184.6,30.4 184.6,30" />
<path stroke="#000000" stroke-width="2" d="M 215,70" />
<path stroke="#000000" stroke-width="2" d="M 215,30 215,38 215,39 215.1,40.1 215.3,41.1 215.6,42.1 215.9,43.1 216.4,44.1 216.9,45 217.5,45.8 218.2,46.6 218.9,47.4 219.7,48 220.6,48.6 221.5,49.2 222.4,49.6 223.4,50 224.4,50.2 225.4,50.4 226.5,50.5 227.5,50.5 228.6,50.4 229.6,50.2 230.6,50 231.6,49.6 232.5,49.2 233.4,48.6 234.3,48 235.1,47.4 235.8,46.6 236.5,45.8 237.1,45 237.6,44.1 238.1,43.1 238.4,42.1 238.7,41.1 238.9,40.1 239,39 239,29 239,69" />
<path stroke="#000000" stroke-width="2" d="M 245.7,70" />
<path stroke="#000000" stroke-width="2" d="M 245.7,50 245.9,50 245.9,50.2 245.7,50.2 245.7,50" />
<path stroke="#000000" stroke-width="2" d="M 275.9,70" />
<path stroke="#000000" stroke-width="2" d="M 275.9,70" />
<path stroke="#000000" stroke-width="2" d="M 275.9,70 277,70 278,70.2 278.8,70.4 279.5,70.7 280.1,71 280.5,71.5 280.8,71.9 281,72.5 281.1,73.1 281.1,73.8 281,74.4 280.8,75.2 280.4,76 280,76.8 279.5,77.6 278.9,78.4 278.3,79.3 277.5,80.2 276.7,81.1 275.9,82" />
<path stroke="#000000" stroke-width="2" d="M 311.1,70" />
<path stroke="#000000" stroke-width="2" d="M 311.1,50 318.8,31.5 326.4,50 326.4,70 332.1,64.3" />
<path stroke="#000000" stroke-width="2" d="M 362.1,70" />
<path stroke="#000000" stroke-width="2" d="M 362.1,36 362.1,36.5 362.1,37 362.2,37.6 362.4,38.1 362.5,38.6 362.8,39 363,39.5 363.3,39.9 363.7,40.3 364,40.7 364.4,41 364.9,41.3 365.3,41.6 365.8,41.8 366.3,42 366.8,42.1 367.3,42.2 367.8,42.3 368.3,42.3 368.9,42.2 369.4,42.1 369.9,42 370.4,41.8 370.9,41.6 371.3,41.3 371.7,41 372.1,40.7 372.5,40.3 372.8,39.9 373.1,39.5 373.4,39 373.6,38.6 373.8,38.1 373.9,37.6 374,37 374.1,36.5 374.1,36 374,35.5 373.9,35 373.8,34.5 373.6,34 373.4,33.5 373.1,33 372.8,32.6 372.5,32.2 372.1,31.8 371.7,31.5 371.3,31.2 370.9,30.9 370.4,30.7 369.9,30.5 369.4,30.4 368.9,30.3 368.3,30.3 367.8,30.3 367.3,30.3 366.8,30.4 366.3,30.5 365.8,30.7 365.3,30.9 364.9,31.2 364.4,31.5 364,31.8 363.7,32.2 363.3,32.6 363,33 362.8,33.5 362.5,34 362.4,34.5 362.2,35 362.1,35.5 362.1,36 362.1,40" />
<path stroke="#000000" stroke-width="2" d="M 362.1,40 362.4,40.9 362.8,41.7 363.1,42.4 363.5,43.1 363.9,43.8 364.4,44.4 364.8,44.9 365.3,45.4 365.8,45.9 366.3,46.2 366.9,46.6 367.4,46.9 368,47.2 368.5,47.4 369.1,47.6 369.7,47.7 370.3,47.9 370.9,47.9 371.5,48 372.1,48" />
<path stroke="#000000" stroke-width="2" d="M 404.1,70" />
<path stroke="#000000" stroke-width="2" d="M 408.1,30 425.1,47" />
<path stroke="#000000" stroke-width="2" d="M 442,30 402.4,69.6" />
<path stroke="#000000" stroke-width="2" d="M 448.7,70" />
<path stroke="#000000" stroke-width="2" d="M 448.7,50 448.9,50 448.9,50.2 448.7,50.2 448.7,50" />
<path stroke="#000000" stroke-width="2" d="M 478.9,70" />
<path stroke="#000000" stroke-width="2" d="M 478.9,30 478.9,62" />
<path stroke="#000000" stroke-width="2" d="M 478.9,70 479.7,70 479.7,70.8 478.9,70.8 478.9,70" />
<path stroke="#000000" stroke-width="2" d="M 509.7,70" />
<path stroke="#000000" stroke-width="2" d="M 509.7,70" />
<path stroke="#000000" stroke-width="2" d="M 509.7,70 510.8,70 511.8,70.2 512.6,70.4 513.3,70.7 513.9,71 514.4,71.5 514.7,71.9 514.9,72.5 515,73.1 514.9,73.8 514.8,74.4 514.6,75.2 514.3,76 513.8,76.8 513.3,77.6 512.8,78.4 512.1,79.3 511.4,80.2 510.6,81.1 509.7,82" />
<path stroke="#000000" stroke-width="2" d="M 545,70" />
</svg>