<svg xmlns="http://www.w3.org/2000/svg" width="541.5092186584991" height="102.0" style="fill:none; stroke-linecap:round;">
    <rect width="100%" height="100%" fill="#FFFFFF" />
<path stroke="#000000" stroke-width="2" d="M 550,75" />
<path stroke="#000000" stroke-width="2" d="M 30,30 20,30 20,70" />
<path stroke="#000000" stroke-width="2" d="M 36.7,70" />
<path stroke="#000000" stroke-width="2" d="M 46.7,50 39,68.5" />
<path stroke="#000000" stroke-width="2" d="M 76.7,70" />
<path stroke="#000000" stroke-width="2" d="M 76.7,30 96.7,30" />
<path stroke="#000000" stroke-width="2" d="M 96.7,30 98.1,30.1 99.4,30.6 100.5,31.2 101.5,32.1 102.3,33.1 103,34.3 103.5,35.6 103.9,37 104.1,38.5 104.2,40 104.1,41.5 103.9,43 103.5,44.4 103,45.7 102.3,46.9 101.5,47.9 100.5,48.8 99.4,49.4 98.1,49.9 96.7,50" />
<path stroke="#000000" stroke-width="2" d="M 134.2,70" />
<path stroke="#000000" stroke-width="2" d="M 154.2,70 155.9,70 157.6,69.8 159.4,69.5 161.1,69.1 162.7,68.5 164.3,67.8 165.8,66.9 167.2,65.9 168.6,64.8 169.8,63.5 170.9,62.2 171.9,60.8 172.8,59.3 173.5,57.7 174.1,56 174.6,54.3 174.9,52.6 175,50.9 175,49.1 174.9,47.4 174.6,45.7 174.1,44 173.5,42.4 172.8,40.8 171.9,39.3 170.9,37.8 169.8,36.5 168.6,35.3 167.2,34.2 165.8,33.2 164.3,32.3 162.7,31.5 161.1,30.9 159.4,30.5 157.6,30.2 155.9,30 154.2,30 152.4,30.2 150.7,30.5 149,30.9 147.4,31.5 145.8,32.3 144.3,33.2 142.9,34.2 141.5,35.3 140.3,36.5 139.2,37.8 138.2,39.3 137.3,40.8 136.6,42.4 136,44 135.5,45.7 135.2,47.4 135.1,49.1 135.1,50.9 135.2,52.6 135.5,54.3 136,56 136.6,57.7 137.3,59.3 138.2,60.8 139.2,62.2 140.3,63.5 141.5,64.8 142.9,65.9 144.3,66.9 145.8,67.8 147.4,68.5 149,69.1 150.7,69.5 152.4,69.8 154.2,70" />
<path stroke="#000000" stroke-width="2" d="M 181.7,70" />
<path stroke="#000000" stroke-width="2" d="M 181.7,30 181.9,30 181.9,30.2 181.7,30.2 181.7,30" />
<path stroke="#000000" stroke-width="2" d="M 211.9,70" />
<path stroke="#000000" stroke-width="2" d="M 211.9,30 211.9,38 211.9,39 212,40.1 212.2,41.1 212.4,42.1 212.8,43.1 213.2,44.1 213.8,45 214.4,45.8 215,46.6 215.8,47.4 216.6,48 217.4,48.6 218.3,49.2 219.3,49.6 220.3,50 221.3,50.2 222.3,50.4 223.4,50.5 224.4,50.5 225.4,50.4 226.5,50.2 227.5,50 228.5,49.6 229.4,49.2 230.3,48.6 231.2,48 232,47.4 232.7,46.6 233.4,45.8 234,45 234.5,44.1 235,43.1 235.3,42.1 235.6,41.1 235.8,40.1 235.9,39 235.9,29 235.9,69" />
<path stroke="#000000" stroke-width="2" d="M 242.5,70" />
<path stroke="#000000" stroke-width="2" d="M 242.5,50 242.7,50 242.7,50.2 242.5,50.2 242.5,50" />
<path stroke="#000000" stroke-width="2" d="M 272.7,70" />
<path stroke="#000000" stroke-width="2" d="M 272.7,70" />
<path stroke="#000000" stroke-width="2" d="M 272.7,70 273.9,70 274.8,70.2 275.7,70.4 276.4,70.7 276.9,71 277.4,71.5 277.7,71.9 277.9,72.5 278,73.1 278,73.8 277.9,74.4 277.6,75.2 277.3,76 276.9,76.8 276.4,77.6 275.8,78.4 275.1,79.3 274.4,80.2 273.6,81.1 272.7,82" />
<path stroke="#000000" stroke-width="2" d="M 308,70" />
<path stroke="#000000" stroke-width="2" d="M 308,46 319.3,34.7 319.3,74.7 330.6,63.4" />
<path stroke="#000000" stroke-width="2" d="M 360.6,70" />
<path stroke="#000000" stroke-width="2" d="M 360.6,42" />
<path stroke="#000000" stroke-width="2" d="M 360.6,42 364.7,41.8 367.9,41.2 370.4,40.3 372.1,39.1 373.3,37.8 373.9,36.3 373.9,34.8 373.6,33.4 372.9,32 371.9,30.8 370.7,29.7 369.3,29 367.8,28.7 366.3,28.8 364.8,29.3 363.5,30.5 362.4,32.2 361.4,34.7 360.8,37.9 360.6,42 360.6,50" />
<path stroke="#000000" stroke-width="2" d="M 360.6,50 361.3,51.7 361.9,53.4 362.7,54.9 363.5,56.3 364.3,57.6 365.2,58.7 366.1,59.8 367.1,60.8 368.1,61.7 369.1,62.5 370.2,63.2 371.3,63.8 372.4,64.4 373.5,64.8 374.7,65.2 375.9,65.5 377,65.7 378.2,65.9 379.4,66 380.6,66" />
<path stroke="#000000" stroke-width="2" d="M 410.6,70" />
<path stroke="#000000" stroke-width="2" d="M 414.6,30 431.6,47" />
<path stroke="#000000" stroke-width="2" d="M 448.6,30 409,69.6" />
<path stroke="#000000" stroke-width="2" d="M 455.2,70" />
<path stroke="#000000" stroke-width="2" d="M 455.2,50 455.4,50 455.4,50.2 455.2,50.2 455.2,50" />
<path stroke="#000000" stroke-width="2" d="M 485.4,70" />
<path stroke="#000000" stroke-width="2" d="M 485.4,30 485.4,62" />
<path stroke="#000000" stroke-width="2" d="M 485.4,70 486.2,70 486.2,70.8 485.4,70.8 485.4,70" />
<path stroke="#000000" stroke-width="2" d="M 516.2,70" />
<path stroke="#000000" stroke-width="2" d="M 516.2,70" />
<path stroke="#000000" stroke-width="2" d="M 516.2,70 517.4,70 518.3,70.2 519.2,70.4 519.9,70.7 520.5,71 520.9,71.5 521.2,71.9 521.4,72.5 521.5,73.1 521.5,73.8 521.4,74.4 521.1,75.2 520.8,76 520.4,76.8 519.9,77.6 519.3,78.4 518.6,79.3 517.9,80.2 517.1,81.1 516.2,82" />
<path stroke="#000000" stroke-width="2" d="M 551.5,70" />
</svg>