<svg xmlns="http://www.w3.org/2000/svg" width="94.48601526863659" height="90.0" style="fill:none; stroke-linecap:round;">
    <rect width="100%" height="100%" fill="#FFFFFF" />
<path stroke="#000000" stroke-width="2" d="M 175,75" />
<path stroke="#000000" stroke-width="2" d="M 20,30 35.3,67" />
<path stroke="#000000" stroke-width="2" d="M 42,70" />
<path stroke="#000000" stroke-width="2" d="M 62,30 63,30 64.1,30.1 65.1,30.3 66.1,30.5 67.1,30.9 68,31.3 68.9,31.9 69.8,32.5 70.6,33.1 71.3,33.9 72,34.7 72.6,35.5 73.1,36.4 73.6,37.4 73.9,38.4 74.2,39.4 74.4,40.4 74.5,41.5 74.5,42.5 74.4,43.6 74.2,44.6 73.9,45.6 73.6,46.6 73.1,47.5 72.6,48.4 72,49.3 71.3,50.1 70.6,50.8 69.8,51.5 68.9,52.1 68,52.6 67.1,53.1 66.1,53.4 65.1,53.7 64.1,53.9 63,54 62,54 60.9,53.9 59.9,53.7 58.9,53.4 57.9,53.1 57,52.6 56,52.1 55.2,51.5 54.4,50.8 53.7,50.1 53,49.3 52.4,48.4 51.9,47.5 51.4,46.6 51.1,45.6 50.8,44.6 50.6,43.6 50.5,42.5 50.5,41.5 50.6,40.4 50.8,39.4 51.1,38.4 51.4,37.4 51.9,36.4 52.4,35.5 53,34.7 53.7,33.9 54.4,33.1 55.2,32.5 56,31.9 57,31.3 57.9,30.9 58.9,30.5 59.9,30.3 60.9,30.1 62,30 62,70" />
</svg>