<svg xmlns="http://www.w3.org/2000/svg" width="57.99999999999999" height="62.00000000000001" style="fill:none; stroke-linecap:round;">
    <rect width="100%" height="100%" fill="#FFFFFF" />
<path stroke="#000000" stroke-width="2" d="M 175,75" />
<path stroke="#000000" stroke-width="2" d="M 26,42 26.5,42 27,42 27.6,41.9 28.1,41.7 28.6,41.5 29,41.3 29.5,41.1 29.9,40.8 30.3,40.4 30.7,40.1 31,39.7 31.3,39.2 31.6,38.8 31.8,38.3 32,37.8 32.1,37.3 32.2,36.8 32.3,36.3 32.3,35.7 32.2,35.2 32.1,34.7 32,34.2 31.8,33.7 31.6,33.2 31.3,32.8 31,32.4 30.7,32 30.3,31.6 29.9,31.2 29.5,30.9 29,30.7 28.6,30.5 28.1,30.3 27.6,30.1 27,30.1 26.5,30 26,30 25.5,30.1 25,30.1 24.5,30.3 24,30.5 23.5,30.7 23,30.9 22.6,31.2 22.2,31.6 21.8,32 21.5,32.4 21.2,32.8 20.9,33.2 20.7,33.7 20.5,34.2 20.4,34.7 20.3,35.2 20.3,35.7 20.3,36.3 20.3,36.8 20.4,37.3 20.5,37.8 20.7,38.3 20.9,38.8 21.2,39.2 21.5,39.7 21.8,40.1 22.2,40.4 22.6,40.8 23,41.1 23.5,41.3 24,41.5 24.5,41.7 25,41.9 25.5,42 26,42 30,42" />
<path stroke="#000000" stroke-width="2" d="M 30,42 30.9,41.7 31.7,41.3 32.4,41 33.1,40.6 33.8,40.2 34.4,39.7 34.9,39.3 35.4,38.8 35.9,38.3 36.2,37.8 36.6,37.2 36.9,36.7 37.2,36.1 37.4,35.5 37.6,35 37.7,34.4 37.9,33.8 37.9,33.2 38,32.6 38,32" />
</svg>