<svg xmlns="http://www.w3.org/2000/svg" width="129.9845042159127" height="90.0" style="fill:none; stroke-linecap:round;">
    <rect width="100%" height="100%" fill="#FFFFFF" />
<path stroke="#000000" stroke-width="2" d="M 175,75" />
<path stroke="#000000" stroke-width="2" d="M 32,54 33,54 34.1,53.9 35.1,53.7 36.1,53.5 37.1,53.1 38.1,52.7 39,52.1 39.8,51.5 40.6,50.9 41.4,50.1 42,49.3 42.6,48.5 43.2,47.6 43.6,46.6 44,45.6 44.2,44.6 44.4,43.6 44.5,42.5 44.5,41.5 44.4,40.4 44.2,39.4 44,38.4 43.6,37.4 43.2,36.5 42.6,35.6 42,34.7 41.4,33.9 40.6,33.2 39.8,32.5 39,31.9 38.1,31.4 37.1,30.9 36.1,30.6 35.1,30.3 34.1,30.1 33,30 32,30 31,30.1 29.9,30.3 28.9,30.6 27.9,30.9 27,31.4 26.1,31.9 25.2,32.5 24.4,33.2 23.7,33.9 23,34.7 22.4,35.6 21.9,36.5 21.4,37.4 21.1,38.4 20.8,39.4 20.6,40.4 20.5,41.5 20.5,42.5 20.6,43.6 20.8,44.6 21.1,45.6 21.4,46.6 21.9,47.6 22.4,48.5 23,49.3 23.7,50.1 24.4,50.9 25.2,51.5 26.1,52.1 27,52.7 27.9,53.1 28.9,53.5 29.9,53.7 31,53.9 32,54 40,54" />
<path stroke="#000000" stroke-width="2" d="M 40,54 41.7,53.4 43.4,52.7 44.9,51.9 46.3,51.2 47.6,50.3 48.7,49.4 49.8,48.5 50.8,47.5 51.7,46.5 52.5,45.5 53.2,44.4 53.8,43.3 54.4,42.2 54.8,41.1 55.2,39.9 55.5,38.8 55.7,37.6 55.9,36.4 56,35.2 56,34" />
<path stroke="#000000" stroke-width="2" d="M 62.7,70" />
<path stroke="#000000" stroke-width="2" d="M 62.7,25 63,25.3 63.3,25.6 63.7,25.8 64,26.1 64.4,26.2 64.8,26.4 65.3,26.5 65.7,26.6 66.1,26.6 66.6,26.6 67,26.6 67.4,26.5 67.9,26.4 68.3,26.2 68.7,26.1 69,25.8 69.4,25.6 69.7,25.3 70,25 70.3,24.7 70.6,24.3 70.8,23.9 71,23.5 71.1,23.1 71.2,22.7 71.3,22.3 71.3,21.8 71.3,21.4 71.3,21 71.2,20.5 71.1,20.1 71,19.7 70.8,19.3 70.6,18.9 70.3,18.6 70,18.2 69.7,17.9 69.4,17.7 69,17.4 68.7,17.2 68.3,17 67.9,16.9 67.4,16.7 67,16.7 66.6,16.6 66.1,16.6 65.7,16.7 65.3,16.7 64.8,16.9 64.4,17 64,17.2 63.7,17.4 63.3,17.7 63,17.9 62.7,18.2 62.4,18.6 62.1,18.9 61.9,19.3 61.7,19.7 61.6,20.1 61.5,20.5 61.4,21 61.4,21.4 61.4,21.8 61.4,22.3 61.5,22.7 61.6,23.1 61.7,23.5 61.9,23.9 62.1,24.3 62.4,24.7 62.7,25 62.7,40 55,58.5" />
<path stroke="#000000" stroke-width="2" d="M 78,70" />
<path stroke="#000000" stroke-width="2" d="M 78,70 78,68.6 78.1,67.2 78.4,65.8 78.7,64.5 79.2,63.2 79.8,61.9 80.5,60.7 81.3,59.6 82.2,58.5 83.2,57.5 84.3,56.6 85.4,55.8 86.6,55.1 87.9,54.5 89.2,54 90.5,53.7 91.9,53.4 93.3,53.3 94.7,53.3 96.1,53.4 97.5,53.7 98.8,54 100.1,54.5 101.4,55.1 102.6,55.8 103.7,56.6 104.8,57.5 105.8,58.5 106.7,59.6 107.5,60.7 108.2,61.9 108.8,63.2 109.3,64.5 109.6,65.8 109.9,67.2 110,68.6" />
</svg>