<svg xmlns="http://www.w3.org/2000/svg" width="127.95725142395278" height="90.0" style="fill:none; stroke-linecap:round;">
    <rect width="100%" height="100%" fill="#FFFFFF" />
<path stroke="#000000" stroke-width="2" d="M 175,75" />
<path stroke="#000000" stroke-width="2" d="M 32,54 33,54 34.1,53.9 35.1,53.7 36.1,53.5 37.1,53.1 38.1,52.7 39,52.1 39.8,51.5 40.6,50.9 41.4,50.1 42,49.3 42.6,48.5 43.2,47.6 43.6,46.6 44,45.6 44.2,44.6 44.4,43.6 44.5,42.5 44.5,41.5 44.4,40.4 44.2,39.4 44,38.4 43.6,37.4 43.2,36.5 42.6,35.6 42,34.7 41.4,33.9 40.6,33.2 39.8,32.5 39,31.9 38.1,31.4 37.1,30.9 36.1,30.6 35.1,30.3 34.1,30.1 33,30 32,30 31,30.1 29.9,30.3 28.9,30.6 27.9,30.9 27,31.4 26.1,31.9 25.2,32.5 24.4,33.2 23.7,33.9 23,34.7 22.4,35.6 21.9,36.5 21.4,37.4 21.1,38.4 20.8,39.4 20.6,40.4 20.5,41.5 20.5,42.5 20.6,43.6 20.8,44.6 21.1,45.6 21.4,46.6 21.9,47.6 22.4,48.5 23,49.3 23.7,50.1 24.4,50.9 25.2,51.5 26.1,52.1 27,52.7 27.9,53.1 28.9,53.5 29.9,53.7 31,53.9 32,54 40,54" />
<path stroke="#000000" stroke-width="2" d="M 40,54 41.7,53.4 43.4,52.7 44.9,51.9 46.3,51.2 47.6,50.3 48.7,49.4 49.8,48.5 50.8,47.5 51.7,46.5 52.5,45.5 53.2,44.4 53.8,43.3 54.4,42.2 54.8,41.1 55.2,39.9 55.5,38.8 55.7,37.6 55.9,36.4 56,35.2 56,34" />
<path stroke="#000000" stroke-width="2" d="M 62.7,70" />
<path stroke="#000000" stroke-width="2" d="M 62.7,25" />
<path stroke="#000000" stroke-width="2" d="M 62.7,25 64.7,24.9 66.3,24.6 67.5,24.1 68.4,23.6 69,22.9 69.3,22.2 69.3,21.4 69.1,20.7 68.8,20 68.3,19.4 67.7,18.9 67,18.5 66.2,18.3 65.5,18.4 64.8,18.7 64.1,19.2 63.5,20.1 63.1,21.4 62.8,23 62.7,25 62.7,40 55,58.5" />
<path stroke="#000000" stroke-width="2" d="M 76,70" />
<path stroke="#000000" stroke-width="2" d="M 76,70 76,68.6 76.1,67.2 76.4,65.8 76.7,64.5 77.2,63.2 77.8,61.9 78.5,60.7 79.3,59.6 80.2,58.5 81.2,57.5 82.2,56.6 83.4,55.8 84.6,55.1 85.8,54.5 87.2,54 88.5,53.7 89.9,53.4 91.3,53.3 92.7,53.3 94.1,53.4 95.4,53.7 96.8,54 98.1,54.5 99.4,55.1 100.6,55.8 101.7,56.6 102.8,57.5 103.8,58.5 104.7,59.6 105.5,60.7 106.2,61.9 106.8,63.2 107.2,64.5 107.6,65.8 107.8,67.2 108,68.6" />
</svg>