<svg xmlns="http://www.w3.org/2000/svg" width="58.0" height="61.988578658982306" style="fill:none; stroke-linecap:round;">
    <rect width="100%" height="100%" fill="#FFFFFF" />
<path stroke="#000000" stroke-width="2" d="M 175,75" />
<path stroke="#000000" stroke-width="2" d="M 26,30 26.5,30 27,30 27.6,30.1 28.1,30.3 28.6,30.5 29,30.7 29.5,30.9 29.9,31.2 30.3,31.6 30.7,31.9 31,32.3 31.3,32.8 31.6,33.2 31.8,33.7 32,34.2 32.1,34.7 32.2,35.2 32.3,35.7 32.3,36.3 32.2,36.8 32.1,37.3 32,37.8 31.8,38.3 31.6,38.8 31.3,39.2 31,39.6 30.7,40 30.3,40.4 29.9,40.8 29.5,41.1 29,41.3 28.6,41.5 28.1,41.7 27.6,41.9 27,41.9 26.5,42 26,42 25.5,41.9 25,41.9 24.5,41.7 24,41.5 23.5,41.3 23,41.1 22.6,40.8 22.2,40.4 21.8,40 21.5,39.6 21.2,39.2 20.9,38.8 20.7,38.3 20.5,37.8 20.4,37.3 20.3,36.8 20.3,36.3 20.3,35.7 20.3,35.2 20.4,34.7 20.5,34.2 20.7,33.7 20.9,33.2 21.2,32.8 21.5,32.3 21.8,31.9 22.2,31.6 22.6,31.2 23,30.9 23.5,30.7 24,30.5 24.5,30.3 25,30.1 25.5,30 26,30 30,30" />
<path stroke="#000000" stroke-width="2" d="M 30,30 30.9,30.3 31.7,30.7 32.4,31 33.1,31.4 33.8,31.8 34.4,32.3 34.9,32.7 35.4,33.2 35.9,33.7 36.2,34.2 36.6,34.8 36.9,35.3 37.2,35.9 37.4,36.5 37.6,37 37.7,37.6 37.9,38.2 37.9,38.8 38,39.4 38,40" />
</svg>