<svg xmlns="http://www.w3.org/2000/svg" width="104.84067062793693" height="70.2" style="fill:none; stroke-linecap:round;">
    <rect width="100%" height="100%" fill="#FFFFFF" />
<path stroke="#000000" stroke-width="2" d="M 175,75" />
<path stroke="#000000" stroke-width="2" d="M 32,30" />
<path stroke="#000000" stroke-width="2" d="M 32,30 31.8,34.1 31.2,37.3 30.3,39.8 29.1,41.5 27.8,42.7 26.3,43.2 24.8,43.3 23.4,43 22,42.3 20.8,41.2 19.7,40 19,38.6 18.7,37.2 18.8,35.7 19.3,34.2 20.5,32.9 22.2,31.7 24.7,30.8 27.9,30.2 32,30 40,30" />
<path stroke="#000000" stroke-width="2" d="M 40,30 41.7,30.6 43.4,31.3 44.9,32.1 46.3,32.8 47.6,33.7 48.7,34.6 49.8,35.5 50.8,36.5 51.7,37.5 52.5,38.5 53.2,39.6 53.8,40.7 54.4,41.8 54.8,42.9 55.2,44.1 55.5,45.2 55.7,46.4 55.9,47.6 56,48.8 56,50" />
<path stroke="#000000" stroke-width="2" d="M 62.7,70" />
<path stroke="#000000" stroke-width="2" d="M 62.7,20 70.3,38.5 78,20" />
<path stroke="#000000" stroke-width="2" d="M 84.6,70" />
<path stroke="#000000" stroke-width="2" d="M 84.6,50 84.8,50 84.8,50.2 84.6,50.2 84.6,50" />
</svg>