<svg xmlns="http://www.w3.org/2000/svg" width="129.9480079225405" height="86.95518130045147" style="fill:none; stroke-linecap:round;">
    <rect width="100%" height="100%" fill="#FFFFFF" />
<path stroke="#000000" stroke-width="2" d="M 175,75" />
<path stroke="#000000" stroke-width="2" d="M 32,30 33,30 34.1,30.1 35.1,30.3 36.1,30.5 37.1,30.9 38.1,31.3 39,31.9 39.8,32.5 40.6,33.1 41.4,33.9 42,34.7 42.6,35.5 43.2,36.4 43.6,37.4 44,38.4 44.2,39.4 44.4,40.4 44.5,41.5 44.5,42.5 44.4,43.6 44.2,44.6 44,45.6 43.6,46.6 43.2,47.5 42.6,48.4 42,49.3 41.4,50.1 40.6,50.8 39.8,51.5 39,52.1 38.1,52.6 37.1,53.1 36.1,53.4 35.1,53.7 34.1,53.9 33,54 32,54 31,53.9 29.9,53.7 28.9,53.4 27.9,53.1 27,52.6 26.1,52.1 25.2,51.5 24.4,50.8 23.7,50.1 23,49.3 22.4,48.4 21.9,47.5 21.4,46.6 21.1,45.6 20.8,44.6 20.6,43.6 20.5,42.5 20.5,41.5 20.6,40.4 20.8,39.4 21.1,38.4 21.4,37.4 21.9,36.4 22.4,35.5 23,34.7 23.7,33.9 24.4,33.1 25.2,32.5 26.1,31.9 27,31.3 27.9,30.9 28.9,30.5 29.9,30.3 31,30.1 32,30 40,30" />
<path stroke="#000000" stroke-width="2" d="M 40,30 41.7,30.6 43.4,31.3 44.9,32.1 46.3,32.8 47.6,33.7 48.7,34.6 49.8,35.5 50.8,36.5 51.7,37.5 52.5,38.5 53.2,39.6 53.8,40.7 54.4,41.8 54.8,42.9 55.2,44.1 55.5,45.2 55.7,46.4 55.9,47.6 56,48.8 56,50" />
<path stroke="#000000" stroke-width="2" d="M 62.7,70" />
<path stroke="#000000" stroke-width="2" d="M 62.7,30 78,67 93.3,30" />
<path stroke="#000000" stroke-width="2" d="M 99.9,70" />
<path stroke="#000000" stroke-width="2" d="M 109.9,20 102.3,38.5" />
</svg>