<svg xmlns="http://www.w3.org/2000/svg" width="67.62908531396846" height="100.47759065022574" style="fill:none; stroke-linecap:round;">
    <rect width="100%" height="100%" fill="#FFFFFF" />
<path stroke="#000000" stroke-width="2" d="M 175,75" />
<path stroke="#000000" stroke-width="2" d="M 20,40" />
<path stroke="#000000" stroke-width="2" d="M 20,40 24.1,39.8 27.3,39.2 29.8,38.3 31.5,37.1 32.7,35.8 33.2,34.3 33.3,32.8 33,31.4 32.3,30 31.2,28.8 30,27.7 28.6,27 27.2,26.7 25.7,26.8 24.2,27.3 22.9,28.5 21.7,30.2 20.8,32.7 20.2,35.9 20,40 20,70" />
<path stroke="#000000" stroke-width="2" d="M 40,70" />
<path stroke="#000000" stroke-width="2" d="M 40,50 47.6,68.5" />
<path stroke="#000000" stroke-width="2" d="M 47.6,68.5 45.6,68.4 44,68.1 42.8,67.6 41.9,67 41.3,66.4 41,65.6 41,64.9 41.1,64.2 41.5,63.5 42,62.9 42.6,62.4 43.3,62 44,61.8 44.8,61.9 45.5,62.1 46.2,62.7 46.8,63.6 47.2,64.8 47.5,66.4 47.6,68.5 47.6,72.5" />
<path stroke="#000000" stroke-width="2" d="M 47.6,72.5 47.3,73.3 47,74.2 46.6,74.9 46.2,75.6 45.8,76.3 45.3,76.9 44.9,77.4 44.4,77.9 43.9,78.3 43.4,78.7 42.8,79.1 42.3,79.4 41.7,79.7 41.2,79.9 40.6,80.1 40,80.2 39.4,80.3 38.8,80.4 38.2,80.5 37.6,80.5" />
</svg>