<svg xmlns="http://www.w3.org/2000/svg" width="71.68359089788828" height="100.47759065022575" style="fill:none; stroke-linecap:round;">
    <rect width="100%" height="100%" fill="#FFFFFF" />
<path stroke="#000000" stroke-width="2" d="M 175,75" />
<path stroke="#000000" stroke-width="2" d="M 20,40 20.6,40.6 21.3,41.2 22,41.7 22.8,42.1 23.5,42.5 24.4,42.8 25.2,43 26.1,43.2 26.9,43.2 27.8,43.2 28.7,43.2 29.5,43 30.4,42.8 31.2,42.5 32,42.1 32.7,41.7 33.5,41.2 34.1,40.6 34.7,40 35.3,39.3 35.8,38.6 36.2,37.9 36.6,37.1 36.9,36.3 37.1,35.4 37.3,34.5 37.4,33.7 37.4,32.8 37.3,31.9 37.1,31.1 36.9,30.2 36.6,29.4 36.2,28.6 35.8,27.9 35.3,27.2 34.7,26.5 34.1,25.9 33.5,25.3 32.7,24.8 32,24.4 31.2,24 30.4,23.7 29.5,23.5 28.7,23.3 27.8,23.3 26.9,23.3 26.1,23.3 25.2,23.5 24.4,23.7 23.5,24 22.8,24.4 22,24.8 21.3,25.3 20.6,25.9 20,26.5 19.4,27.2 18.9,27.9 18.5,28.6 18.1,29.4 17.8,30.2 17.6,31.1 17.5,31.9 17.4,32.8 17.4,33.7 17.5,34.5 17.6,35.4 17.8,36.3 18.1,37.1 18.5,37.9 18.9,38.6 19.4,39.3 20,40 20,70" />
<path stroke="#000000" stroke-width="2" d="M 44,70" />
<path stroke="#000000" stroke-width="2" d="M 44,50 51.7,68.5 51.7,69 51.6,69.5 51.5,70 51.4,70.5 51.2,71 51,71.5 50.7,72 50.4,72.4 50.1,72.8 49.7,73.2 49.3,73.5 48.9,73.8 48.5,74.1 48,74.3 47.5,74.5 47,74.6 46.5,74.7 46,74.7 45.4,74.7 44.9,74.7 44.4,74.6 43.9,74.5 43.4,74.3 42.9,74.1 42.5,73.8 42,73.5 41.6,73.2 41.3,72.8 40.9,72.4 40.6,72 40.4,71.5 40.1,71 40,70.5 39.8,70 39.7,69.5 39.7,69 39.7,68.5 39.7,68 39.8,67.4 40,66.9 40.1,66.4 40.4,66 40.6,65.5 40.9,65.1 41.3,64.7 41.6,64.3 42,64 42.5,63.7 42.9,63.4 43.4,63.2 43.9,63 44.4,62.9 44.9,62.8 45.4,62.7 46,62.7 46.5,62.8 47,62.9 47.5,63 48,63.2 48.5,63.4 48.9,63.7 49.3,64 49.7,64.3 50.1,64.7 50.4,65.1 50.7,65.5 51,66 51.2,66.4 51.4,66.9 51.5,67.4 51.6,68 51.7,68.5 51.7,72.5" />
<path stroke="#000000" stroke-width="2" d="M 51.7,72.5 51.4,73.3 51,74.2 50.7,74.9 50.3,75.6 49.8,76.3 49.4,76.9 48.9,77.4 48.5,77.9 48,78.3 47.4,78.7 46.9,79.1 46.4,79.4 45.8,79.7 45.2,79.9 44.7,80.1 44.1,80.2 43.5,80.3 42.9,80.4 42.3,80.5 41.7,80.5" />
</svg>