<svg xmlns="http://www.w3.org/2000/svg" width="947.4308853492302" height="109.15646527970827" style="fill:none; stroke-linecap:round;">
    <rect width="100%" height="100%" fill="#FFFFFF" />
<path stroke="#000000" stroke-width="2" d="M 550,75" />
<path stroke="#000000" stroke-width="2" d="M 30,50 30.9,50 31.7,49.9 32.6,49.8 33.4,49.5 34.3,49.2 35.1,48.9 35.8,48.4 36.5,47.9 37.2,47.4 37.8,46.8 38.4,46.1 38.9,45.4 39.3,44.6 39.7,43.8 40,43 40.2,42.2 40.4,41.3 40.4,40.4 40.4,39.6 40.4,38.7 40.2,37.8 40,37 39.7,36.2 39.3,35.4 38.9,34.6 38.4,33.9 37.8,33.3 37.2,32.6 36.5,32.1 35.8,31.6 35.1,31.1 34.3,30.8 33.4,30.5 32.6,30.2 31.7,30.1 30.9,30 30,30 29.1,30.1 28.3,30.2 27.4,30.5 26.6,30.8 25.8,31.1 25.1,31.6 24.3,32.1 23.7,32.6 23.1,33.3 22.5,33.9 22,34.6 21.6,35.4 21.2,36.2 20.9,37 20.7,37.8 20.5,38.7 20.4,39.6 20.4,40.4 20.5,41.3 20.7,42.2 20.9,43 21.2,43.8 21.6,44.6 22,45.4 22.5,46.1 23.1,46.8 23.7,47.4 24.3,47.9 25.1,48.4 25.8,48.9 26.6,49.2 27.4,49.5 28.3,49.8 29.1,49.9 30,50 30,70 30,64 30,63.1 30.1,62.3 30.2,61.4 30.5,60.6 30.8,59.7 31.1,58.9 31.6,58.2 32.1,57.5 32.6,56.8 33.2,56.2 33.9,55.6 34.6,55.1 35.4,54.7 36.2,54.3 37,54 37.8,53.8 38.7,53.6 39.6,53.6" />
<path stroke="#000000" stroke-width="2" d="M 47.1,70" />
<path stroke="#000000" stroke-width="2" d="M 47.1,50 47.3,50 47.3,50.2 47.1,50.2 47.1,50" />
<path stroke="#000000" stroke-width="2" d="M 77.3,70" />
<path stroke="#000000" stroke-width="2" d="M 77.3,30 81.1,39.2" />
<path stroke="#000000" stroke-width="2" d="M 81.1,39.2 83,41.4 84.4,43.3 85.1,45 85.4,46.4 85.3,47.7 84.9,48.7 84.2,49.5 83.3,50 82.2,50.4 81.1,50.5 80,50.4 79,50 78,49.5 77.3,48.7 76.9,47.7 76.8,46.4 77.1,45 77.9,43.3 79.2,41.4 81.1,39.2 84.9,30" />
<path stroke="#000000" stroke-width="2" d="M 84.9,30 84.8,32 84.5,33.6 84.1,34.9 83.5,35.8 82.8,36.3 82.1,36.6 81.4,36.7 80.6,36.5 79.9,36.1 79.3,35.6 78.8,35 78.5,34.3 78.3,33.6 78.3,32.8 78.6,32.1 79.2,31.4 80.1,30.9 81.3,30.4 82.9,30.1 84.9,30 94.9,30" />
<path stroke="#000000" stroke-width="2" d="M 124.9,70" />
<path stroke="#000000" stroke-width="2" d="M 124.9,50 132.6,31.5 140.3,50 140.3,50.7 140.3,51.4 140.4,52.1 140.6,52.8 140.9,53.4 141.2,54 141.5,54.6 141.9,55.2 142.3,55.8 142.8,56.2 143.4,56.7 143.9,57.1 144.6,57.4 145.2,57.7 145.8,58 146.5,58.2 147.2,58.3 147.9,58.3 148.6,58.3 149.3,58.3 150,58.2 150.7,58 151.3,57.7 151.9,57.4 152.5,57.1 153.1,56.7 153.7,56.2 154.1,55.8 154.6,55.2 155,54.6 155.3,54 155.6,53.4 155.9,52.8 156.1,52.1 156.2,51.4 156.2,50.7" />
<path stroke="#000000" stroke-width="2" d="M 186.2,70" />
<path stroke="#000000" stroke-width="2" d="M 196.2,30 195.4,30 194.5,30.1 193.6,30.2 192.8,30.5 192,30.8 191.2,31.1 190.4,31.6 189.7,32.1 189,32.6 188.4,33.2 187.9,33.9 187.4,34.6 186.9,35.4 186.6,36.2 186.3,37 186,37.8 185.9,38.7 185.8,39.6 185.8,40.4 185.9,41.3 186,42.2 186.3,43 186.6,43.8 186.9,44.6 187.4,45.4 187.9,46.1 188.4,46.7 189,47.4 189.7,47.9 190.4,48.4 191.2,48.9 192,49.2 192.8,49.5 193.6,49.8 194.5,49.9 195.4,50" />
<path stroke="#000000" stroke-width="2" d="M 195.4,40" />
<path stroke="#000000" stroke-width="2" d="M 179.4,40 199.4,40" />
<path stroke="#000000" stroke-width="2" d="M 229.4,70" />
<path stroke="#000000" stroke-width="2" d="M 245.4,30 225.6,49.8 245.4,69.6" />
<path stroke="#000000" stroke-width="2" d="M 252,70" />
<path stroke="#000000" stroke-width="2" d="M 252,30 267.3,67" />
<path stroke="#000000" stroke-width="2" d="M 297.3,70" />
<path stroke="#000000" stroke-width="2" d="M 297.3,70 297.5,70 297.5,70.2 297.3,70.2 297.3,70" />
<path stroke="#000000" stroke-width="2" d="M 327.5,70" />
<path stroke="#000000" stroke-width="2" d="M 343.5,30 323.7,49.8 343.5,69.6" />
<path stroke="#000000" stroke-width="2" d="M 350.2,70" />
<path stroke="#000000" stroke-width="2" d="M 350.2,20 350.4,20 350.4,20.2 350.2,20.2 350.2,20" />
<path stroke="#000000" stroke-width="2" d="M 380.4,70" />
<path stroke="#000000" stroke-width="2" d="M 380.4,30 380.4,70 391.7,58.7" />
<path stroke="#000000" stroke-width="2" d="M 398.4,70" />
<path stroke="#000000" stroke-width="2" d="M 398.4,20 418.4,20 398.6,39.8 418.6,39.8" />
<path stroke="#000000" stroke-width="2" d="M 448.6,70" />
<path stroke="#000000" stroke-width="2" d="M 448.6,30 488.6,30" />
<path stroke="#000000" stroke-width="2" d="M 495.3,70" />
<path stroke="#000000" stroke-width="2" d="M 505.3,50 497.6,68.5" />
<path stroke="#000000" stroke-width="2" d="M 535.3,70" />
<path stroke="#000000" stroke-width="2" d="M 547.3,54 548.3,54 549.3,53.9 550.4,53.7 551.4,53.5 552.4,53.1 553.3,52.7 554.2,52.1 555.1,51.5 555.9,50.9 556.6,50.1 557.3,49.3 557.9,48.5 558.4,47.6 558.9,46.6 559.2,45.6 559.5,44.6 559.7,43.6 559.8,42.5 559.8,41.5 559.7,40.4 559.5,39.4 559.2,38.4 558.9,37.4 558.4,36.5 557.9,35.6 557.3,34.7 556.6,33.9 555.9,33.2 555.1,32.5 554.2,31.9 553.3,31.4 552.4,30.9 551.4,30.6 550.4,30.3 549.3,30.1 548.3,30 547.3,30 546.2,30.1 545.2,30.3 544.2,30.6 543.2,30.9 542.2,31.4 541.3,31.9 540.5,32.5 539.7,33.2 538.9,33.9 538.3,34.7 537.7,35.6 537.1,36.5 536.7,37.4 536.3,38.4 536.1,39.4 535.9,40.4 535.8,41.5 535.8,42.5 535.9,43.6 536.1,44.6 536.3,45.6 536.7,46.6 537.1,47.6 537.7,48.5 538.3,49.3 538.9,50.1 539.7,50.9 540.5,51.5 541.3,52.1 542.2,52.7 543.2,53.1 544.2,53.5 545.2,53.7 546.2,53.9 547.3,54 555.3,54" />
<path stroke="#000000" stroke-width="2" d="M 555.3,54 557,53.4 558.6,52.7 560.1,51.9 561.5,51.2 562.8,50.3 564,49.4 565.1,48.5 566.1,47.5 567,46.5 567.8,45.5 568.5,44.4 569.1,43.3 569.6,42.2 570.1,41.1 570.4,39.9 570.7,38.8 571,37.6 571.1,36.4 571.2,35.2 571.3,34" />
<path stroke="#000000" stroke-width="2" d="M 577.9,70" />
<path stroke="#000000" stroke-width="2" d="M 577.9,20 597.9,20 578.1,39.8 598.1,39.8 599,39.8 599.9,39.9 600.7,40 601.6,40.3 602.4,40.6 603.2,40.9 603.9,41.4 604.6,41.9 605.3,42.4 605.9,43 606.5,43.7 607,44.4 607.4,45.2 607.8,46 608.1,46.8 608.3,47.6 608.5,48.5 608.5,49.4 608.5,50.2 608.5,51.1 608.3,52 608.1,52.8 607.8,53.6 607.4,54.4 607,55.2 606.5,55.9 605.9,56.5 605.3,57.2 604.6,57.7 603.9,58.2 603.2,58.7 602.4,59 601.6,59.3 600.7,59.6 599.9,59.7 599,59.8" />
<path stroke="#000000" stroke-width="2" d="M 638.5,70" />
<path stroke="#000000" stroke-width="2" d="M 638.5,70 638.7,70 638.7,70.2 638.5,70.2 638.5,70" />
<path stroke="#000000" stroke-width="2" d="M 668.7,70" />
<path stroke="#000000" stroke-width="2" d="M 668.7,30 668.7,50 678.7,50" />
<path stroke="#000000" stroke-width="2" d="M 708.7,70" />
<path stroke="#000000" stroke-width="2" d="M 718.7,30 708.7,30 708.7,70" />
<path stroke="#000000" stroke-width="2" d="M 725.4,70" />
<path stroke="#000000" stroke-width="2" d="M 725.4,50 725.4,50.7 725.5,51.4 725.6,52.1 725.8,52.8 726,53.4 726.3,54 726.7,54.6 727.1,55.2 727.5,55.8 728,56.2 728.5,56.7 729.1,57.1 729.7,57.4 730.3,57.7 731,58 731.7,58.2 732.4,58.3 733.1,58.3 733.8,58.3 734.5,58.3 735.1,58.2 735.8,58 736.5,57.7 737.1,57.4 737.7,57.1 738.3,56.7 738.8,56.2 739.3,55.8 739.8,55.2 740.2,54.6 740.5,54 740.8,53.4 741,52.8 741.2,52.1 741.3,51.4 741.4,50.7 742.3,50.7 743.1,50.8 744,50.9 744.8,51.2 745.7,51.4 746.5,51.8 747.2,52.3 747.9,52.8 748.6,53.3 749.2,53.9 749.8,54.6 750.3,55.3 750.7,56.1 751.1,56.9 751.4,57.7 751.6,58.5 751.8,59.4 751.8,60.3 751.8,61.1 751.8,62 751.6,62.9 751.4,63.7 751.1,64.5 750.7,65.3 750.3,66.1 749.8,66.8 749.2,67.4 748.6,68.1 747.9,68.6 747.2,69.1 746.5,69.6 745.7,69.9 744.8,70.2 744,70.5 743.1,70.6 742.3,70.7 762.3,70.7 754.6,89.2" />
<path stroke="#000000" stroke-width="2" d="M 792.3,70" />
<path stroke="#000000" stroke-width="2" d="M 792.3,35" />
<path stroke="#000000" stroke-width="2" d="M 792.3,35 794.3,34.9 795.9,34.6 797.2,34.1 798,33.6 798.6,32.9 798.9,32.2 798.9,31.4 798.8,30.7 798.4,30 797.9,29.4 797.3,28.9 796.6,28.5 795.9,28.3 795.1,28.4 794.4,28.7 793.7,29.2 793.1,30.1 792.7,31.4 792.4,33 792.3,35 792.3,50 784.6,68.5" />
<path stroke="#000000" stroke-width="2" d="M 805.6,70" />
<path stroke="#000000" stroke-width="2" d="M 813.6,50" />
<path stroke="#000000" stroke-width="2" d="M 813.6,50 813.5,52 813.2,53.6 812.7,54.9 812.2,55.8 811.5,56.3 810.8,56.6 810,56.7 809.3,56.5 808.6,56.1 808,55.6 807.5,55 807.1,54.3 806.9,53.6 807,52.8 807.3,52.1 807.8,51.4 808.7,50.9 809.9,50.4 811.6,50.1 813.6,50 823.6,50" />
<path stroke="#000000" stroke-width="2" d="M 853.6,70" />
<path stroke="#000000" stroke-width="2" d="M 853.6,30 853.6,31.4 853.7,32.8 854,34.2 854.3,35.5 854.8,36.8 855.4,38.1 856.1,39.3 856.9,40.4 857.8,41.5 858.8,42.5 859.8,43.4 861,44.2 862.2,44.9 863.5,45.5 864.8,46 866.1,46.3 867.5,46.6 868.9,46.7 870.3,46.7 871.7,46.6 873,46.3 874.4,46 875.7,45.5 877,44.9 878.2,44.2 879.3,43.4 880.4,42.5 881.4,41.5 882.3,40.4 883.1,39.3 883.8,38.1 884.4,36.8 884.8,35.5 885.2,34.2 885.4,32.8 885.6,31.4" />
<path stroke="#000000" stroke-width="2" d="M 892.2,70" />
<path stroke="#000000" stroke-width="2" d="M 892.2,20 897.2,20 897.2,40 897.2,40.5 897.2,41 897.1,41.6 897,42.1 896.8,42.6 896.6,43 896.3,43.5 896,43.9 895.7,44.3 895.3,44.7 894.9,45 894.5,45.3 894,45.6 893.5,45.8 893,46 892.5,46.1 892,46.2 891.5,46.3 891,46.3 890.5,46.2 889.9,46.1 889.4,46 888.9,45.8 888.5,45.6 888,45.3 887.6,45 887.2,44.7 886.8,44.3 886.5,43.9 886.2,43.5 885.9,43 885.7,42.6 885.5,42.1 885.4,41.6 885.3,41 885.2,40.5 885.2,40 885.3,39.5 885.4,39 885.5,38.5 885.7,38 885.9,37.5 886.2,37 886.5,36.6 886.8,36.2 887.2,35.8 887.6,35.5 888,35.2 888.5,34.9 888.9,34.7 889.4,34.5 889.9,34.4 890.5,34.3 891,34.3 891.5,34.3 892,34.3 892.5,34.4 893,34.5 893.5,34.7 894,34.9 894.5,35.2 894.9,35.5 895.3,35.8 895.7,36.2 896,36.6 896.3,37 896.6,37.5 896.8,38 897,38.5 897.1,39 897.2,39.5 897.2,40 897.2,44" />
<path stroke="#000000" stroke-width="2" d="M 897.2,44 896.9,44.9 896.6,45.7 896.2,46.4 895.8,47.1 895.4,47.8 894.9,48.4 894.5,48.9 894,49.4 893.5,49.9 893,50.2 892.4,50.6 891.9,50.9 891.3,51.2 890.8,51.4 890.2,51.6 889.6,51.7 889,51.9 888.4,51.9 887.8,52 887.2,52" />
<path stroke="#000000" stroke-width="2" d="M 927.2,70" />
<path stroke="#000000" stroke-width="2" d="M 927.2,70 927.4,70 927.4,70.2 927.2,70.2 927.2,70" />
<path stroke="#000000" stroke-width="2" d="M 957.4,70" />
</svg>