<svg xmlns="http://www.w3.org/2000/svg" width="963.100269990727" height="90.2" style="fill:none; stroke-linecap:round;">
    <rect width="100%" height="100%" fill="#FFFFFF" />
<path stroke="#000000" stroke-width="2" d="M 550,75" />
<path stroke="#000000" stroke-width="2" d="M 30,30 29.1,30 28.3,30.1 27.4,30.2 26.6,30.5 25.7,30.8 24.9,31.1 24.2,31.6 23.5,32.1 22.8,32.6 22.2,33.2 21.6,33.9 21.1,34.6 20.7,35.4 20.3,36.2 20,37 19.8,37.8 19.6,38.7 19.6,39.6 19.6,40.4 19.6,41.3 19.8,42.2 20,43 20.3,43.8 20.7,44.6 21.1,45.4 21.6,46.1 22.2,46.7 22.8,47.4 23.5,47.9 24.2,48.4 24.9,48.9 25.7,49.2 26.6,49.5 27.4,49.8 28.3,49.9 29.1,50 49.1,50" />
<path stroke="#000000" stroke-width="2" d="M 79.1,70" />
<path stroke="#000000" stroke-width="2" d="M 79.1,70 79.3,70 79.3,70.2 79.1,70.2 79.1,70" />
<path stroke="#000000" stroke-width="2" d="M 86,70" />
<path stroke="#000000" stroke-width="2" d="M 86,35" />
<path stroke="#000000" stroke-width="2" d="M 86,35 88,34.9 89.6,34.6 90.9,34.1 91.8,33.6 92.3,32.9 92.6,32.2 92.6,31.4 92.5,30.7 92.1,30 91.6,29.4 91,28.9 90.3,28.5 89.6,28.3 88.8,28.4 88.1,28.7 87.4,29.2 86.9,30.1 86.4,31.4 86.1,33 86,35 86,50" />
<path stroke="#000000" stroke-width="2" d="M 86,42" />
<path stroke="#000000" stroke-width="2" d="M 82,42 90,42 90,62 95.7,56.3" />
<path stroke="#000000" stroke-width="2" d="M 102.3,70" />
<path stroke="#000000" stroke-width="2" d="M 104.3,20 112.8,28.5" />
<path stroke="#000000" stroke-width="2" d="M 121.3,20 101.5,39.8" />
<path stroke="#000000" stroke-width="2" d="M 151.3,70" />
<path stroke="#000000" stroke-width="2" d="M 171.3,30 156,67" />
<path stroke="#000000" stroke-width="2" d="M 178,70" />
<path stroke="#000000" stroke-width="2" d="M 178,50 178.8,50 179.7,50.1 180.6,50.2 181.4,50.5 182.2,50.8 183,51.1 183.8,51.6 184.5,52.1 185.1,52.6 185.8,53.2 186.3,53.9 186.8,54.6 187.3,55.4 187.6,56.2 187.9,57 188.2,57.8 188.3,58.7 188.4,59.6 188.4,60.4 188.3,61.3 188.2,62.2 187.9,63 187.6,63.8 187.3,64.6 186.8,65.4 186.3,66.1 185.8,66.7 185.1,67.4 184.5,67.9 183.8,68.4 183,68.9 182.2,69.2 181.4,69.5 180.6,69.8 179.7,69.9 178.8,70" />
<path stroke="#000000" stroke-width="2" d="M 195,70" />
<path stroke="#000000" stroke-width="2" d="M 197,20 205.5,28.5" />
<path stroke="#000000" stroke-width="2" d="M 214,20 194.2,39.8" />
<path stroke="#000000" stroke-width="2" d="M 244,70" />
<path stroke="#000000" stroke-width="2" d="M 244,40 244.2,40 244.2,40.2 244,40.2 244,40" />
<path stroke="#000000" stroke-width="2" d="M 250.9,70" />
<path stroke="#000000" stroke-width="2" d="M 250.9,30 266.2,67" />
<path stroke="#000000" stroke-width="2" d="M 272.9,70" />
<path stroke="#000000" stroke-width="2" d="M 272.9,20 292.9,20" />
<path stroke="#000000" stroke-width="2" d="M 322.9,70" />
<path stroke="#000000" stroke-width="2" d="M 322.9,70 322.9,68.6 323,67.2 323.2,65.8 323.6,64.5 324.1,63.2 324.7,61.9 325.4,60.7 326.2,59.6 327,58.5 328,57.5 329.1,56.6 330.2,55.8 331.5,55.1 332.7,54.5 334,54 335.4,53.7 336.8,53.4 338.1,53.3 339.5,53.3 340.9,53.4 342.3,53.7 343.7,54 345,54.5 346.2,55.1 347.4,55.8 348.6,56.6 349.7,57.5 350.6,58.5 351.5,59.6 352.3,60.7 353,61.9 353.6,63.2 354.1,64.5 354.5,65.8 354.7,67.2 354.8,68.6" />
<path stroke="#000000" stroke-width="2" d="M 361.5,70" />
<path stroke="#000000" stroke-width="2" d="M 361.5,20 369.1,38.5" />
<path stroke="#000000" stroke-width="2" d="M 399.1,70" />
<path stroke="#000000" stroke-width="2" d="M 399.1,30" />
<path stroke="#000000" stroke-width="2" d="M 399.1,30 399.3,30 399.7,30 400.4,30 401.2,30.1 402.3,30.2 403.5,30.3 404.8,30.4 406.2,30.6 407.7,30.9 409.1,31.2 410.6,31.7 412.1,32.2 413.5,32.7 414.8,33.4 416,34.2 417.1,35.1 417.9,36.1 418.6,37.3 419,38.6 419.1,40" />
<path stroke="#000000" stroke-width="2" d="M 419.1,40 421.1,42.1 422.4,44.1 423.2,45.7 423.5,47.2 423.4,48.4 422.9,49.4 422.2,50.2 421.3,50.8 420.3,51.1 419.1,51.2 418,51.1 417,50.8 416.1,50.2 415.4,49.5 414.9,48.4 414.8,47.2 415.1,45.7 415.9,44.1 417.2,42.1 419.1,40" />
<path stroke="#000000" stroke-width="2" d="M 419.1,40 419.2,39.9 419.2,39.7 419.2,39.4 419.3,39 419.5,38.4 419.7,37.8 420,37.2 420.4,36.5 421,35.7 421.6,35 422.5,34.3 423.5,33.5 424.6,32.8 426,32.2 427.6,31.6 429.4,31 431.4,30.6 433.7,30.3 436.3,30.1 439.1,30" />
<path stroke="#000000" stroke-width="2" d="M 439.1,30 439,32 438.7,33.6 438.3,34.9 437.7,35.8 437,36.3 436.3,36.6 435.6,36.7 434.8,36.5 434.1,36.1 433.5,35.6 433,35 432.7,34.3 432.5,33.6 432.5,32.8 432.8,32.1 433.4,31.4 434.3,30.9 435.5,30.4 437.1,30.1 439.1,30 449.1,30" />
<path stroke="#000000" stroke-width="2" d="M 479.1,70" />
<path stroke="#000000" stroke-width="2" d="M 499.1,30 483.8,67" />
<path stroke="#000000" stroke-width="2" d="M 505.8,70" />
<path stroke="#000000" stroke-width="2" d="M 505.8,50 506,50 506,50.2 505.8,50.2 505.8,50" />
<path stroke="#000000" stroke-width="2" d="M 536,70" />
<path stroke="#000000" stroke-width="2" d="M 536,30 551.3,67" />
<path stroke="#000000" stroke-width="2" d="M 558,70" />
<path stroke="#000000" stroke-width="2" d="M 558,20 558.2,20 558.2,20.2 558,20.2 558,20" />
<path stroke="#000000" stroke-width="2" d="M 588.2,70" />
<path stroke="#000000" stroke-width="2" d="M 608.2,30 592.9,67" />
<path stroke="#000000" stroke-width="2" d="M 614.9,70" />
<path stroke="#000000" stroke-width="2" d="M 614.9,50 615.1,50 615.1,50.2 614.9,50.2 614.9,50" />
<path stroke="#000000" stroke-width="2" d="M 645.1,70" />
<path stroke="#000000" stroke-width="2" d="M 645.1,35" />
<path stroke="#000000" stroke-width="2" d="M 645.1,35 647.1,34.9 648.7,34.6 649.9,34.1 650.8,33.6 651.4,32.9 651.7,32.2 651.7,31.4 651.5,30.7 651.2,30 650.7,29.4 650.1,28.9 649.4,28.5 648.6,28.3 647.9,28.4 647.2,28.7 646.5,29.2 645.9,30.1 645.5,31.4 645.2,33 645.1,35 645.1,50 637.4,68.5" />
<path stroke="#000000" stroke-width="2" d="M 658.4,70" />
<path stroke="#000000" stroke-width="2" d="M 658.4,20 658.4,40 658.4,34 658.4,33.1 658.5,32.3 658.6,31.4 658.8,30.6 659.1,29.7 659.5,28.9 659.9,28.2 660.4,27.5 661,26.8 661.6,26.2 662.3,25.6 663,25.1 663.8,24.7 664.5,24.3 665.4,24 666.2,23.8 667.1,23.6 667.9,23.6 660.3,42.1" />
<path stroke="#000000" stroke-width="2" d="M 697.9,70" />
<path stroke="#000000" stroke-width="2" d="M 697.9,40 698.1,40 698.1,40.2 697.9,40.2 697.9,40" />
<path stroke="#000000" stroke-width="2" d="M 704.8,70" />
<path stroke="#000000" stroke-width="2" d="M 704.8,50 704.8,49.3 704.9,48.6 705,47.9 705.2,47.2 705.4,46.6 705.7,46 706,45.4 706.4,44.8 706.9,44.2 707.4,43.8 707.9,43.3 708.5,42.9 709.1,42.6 709.7,42.3 710.4,42 711.1,41.8 711.7,41.7 712.4,41.7 713.1,41.7 713.8,41.7 714.5,41.8 715.2,42 715.9,42.3 716.5,42.6 717.1,42.9 717.7,43.3 718.2,43.8 718.7,44.2 719.1,44.8 719.5,45.4 719.9,46 720.2,46.6 720.4,47.2 720.6,47.9 720.7,48.6 720.8,49.3" />
<path stroke="#000000" stroke-width="2" d="M 720.8,45.3" />
<path stroke="#000000" stroke-width="2" d="M 714.8,45.3 724.8,45.3 732.4,63.8 740.1,45.3" />
<path stroke="#000000" stroke-width="2" d="M 746.8,70" />
<path stroke="#000000" stroke-width="2" d="M 746.8,20 746.8,40 746.8,34 746.8,33.1 746.8,32.3 747,31.4 747.2,30.6 747.5,29.7 747.9,28.9 748.3,28.2 748.8,27.5 749.4,26.8 750,26.2 750.7,25.6 751.4,25.1 752.1,24.7 752.9,24.3 753.7,24 754.6,23.8 755.4,23.6 756.3,23.6" />
<path stroke="#000000" stroke-width="2" d="M 756.3,23.6 758.3,23.5 760,23.2 761.2,22.7 762.1,22.1 762.6,21.5 762.9,20.7 763,20 762.8,19.3 762.4,18.6 761.9,17.9 761.3,17.4 760.6,17.1 759.9,16.9 759.1,17 758.4,17.2 757.8,17.8 757.2,18.7 756.7,19.9 756.4,21.5 756.3,23.6 756.3,38.6" />
<path stroke="#000000" stroke-width="2" d="M 769.6,70" />
<path stroke="#000000" stroke-width="2" d="M 777.6,20 777.6,35" />
<path stroke="#000000" stroke-width="2" d="M 777.6,35 777.5,37 777.2,38.6 776.8,39.9 776.2,40.8 775.5,41.3 774.8,41.6 774,41.7 773.3,41.5 772.6,41.1 772,40.6 771.5,40 771.2,39.3 771,38.6 771,37.8 771.3,37.1 771.9,36.4 772.8,35.9 774,35.4 775.6,35.1 777.6,35 797.6,35" />
<path stroke="#000000" stroke-width="2" d="M 827.6,70" />
<path stroke="#000000" stroke-width="2" d="M 827.6,70 827.8,70 827.8,70.2 827.6,70.2 827.6,70" />
<path stroke="#000000" stroke-width="2" d="M 857.8,70" />
<path stroke="#000000" stroke-width="2" d="M 873.8,30 854,49.8 873.8,69.6" />
<path stroke="#000000" stroke-width="2" d="M 880.5,70" />
<path stroke="#000000" stroke-width="2" d="M 880.5,20 880.7,20 880.7,20.2 880.5,20.2 880.5,20" />
<path stroke="#000000" stroke-width="2" d="M 910.7,70" />
<path stroke="#000000" stroke-width="2" d="M 910.7,30 926,67" />
<path stroke="#000000" stroke-width="2" d="M 932.7,70" />
<path stroke="#000000" stroke-width="2" d="M 932.7,20 933.5,20 934.4,20.1 935.3,20.2 936.1,20.5 936.9,20.8 937.7,21.1 938.5,21.6 939.2,22.1 939.9,22.6 940.5,23.2 941,23.9 941.5,24.6 942,25.4 942.3,26.2 942.6,27 942.9,27.8 943,28.7 943.1,29.6 943.1,30.4 943,31.3 942.9,32.2 942.6,33 942.3,33.8 942,34.6 941.5,35.4 941,36.1 940.5,36.7 939.9,37.4 939.2,37.9 938.5,38.4 937.7,38.9 936.9,39.2 936.1,39.5 935.3,39.8 934.4,39.9 933.5,40" />
<path stroke="#000000" stroke-width="2" d="M 973.1,70" />
</svg>