<svg xmlns="http://www.w3.org/2000/svg" width="1006.8353121577658" height="109.17550084807111" style="fill:none; stroke-linecap:round;">
    <rect width="100%" height="100%" fill="#FFFFFF" />
<path stroke="#000000" stroke-width="2" d="M 550,75" />
<path stroke="#000000" stroke-width="2" d="M 30,50 30.9,50 31.7,49.9 32.6,49.8 33.4,49.5 34.3,49.2 35.1,48.9 35.8,48.4 36.5,47.9 37.2,47.4 37.8,46.8 38.4,46.1 38.9,45.4 39.3,44.6 39.7,43.8 40,43 40.2,42.2 40.4,41.3 40.4,40.4 40.4,39.6 40.4,38.7 40.2,37.8 40,37 39.7,36.2 39.3,35.4 38.9,34.6 38.4,33.9 37.8,33.3 37.2,32.6 36.5,32.1 35.8,31.6 35.1,31.1 34.3,30.8 33.4,30.5 32.6,30.2 31.7,30.1 30.9,30 30,30 29.1,30.1 28.3,30.2 27.4,30.5 26.6,30.8 25.8,31.1 25.1,31.6 24.3,32.1 23.7,32.6 23.1,33.3 22.5,33.9 22,34.6 21.6,35.4 21.2,36.2 20.9,37 20.7,37.8 20.5,38.7 20.4,39.6 20.4,40.4 20.5,41.3 20.7,42.2 20.9,43 21.2,43.8 21.6,44.6 22,45.4 22.5,46.1 23.1,46.8 23.7,47.4 24.3,47.9 25.1,48.4 25.8,48.9 26.6,49.2 27.4,49.5 28.3,49.8 29.1,49.9 30,50 30,70 30,64 30,63.1 30.1,62.3 30.2,61.4 30.5,60.6 30.8,59.7 31.1,58.9 31.6,58.2 32.1,57.5 32.6,56.8 33.2,56.2 33.9,55.6 34.6,55.1 35.4,54.7 36.2,54.3 37,54 37.8,53.8 38.7,53.6 39.6,53.6" />
<path stroke="#000000" stroke-width="2" d="M 47.1,70" />
<path stroke="#000000" stroke-width="2" d="M 47.1,50 47.3,50 47.3,50.2 47.1,50.2 47.1,50" />
<path stroke="#000000" stroke-width="2" d="M 77.3,70" />
<path stroke="#000000" stroke-width="2" d="M 77.3,30" />
<path stroke="#000000" stroke-width="2" d="M 77.3,30 77.4,30 77.9,30 78.5,30 79.4,30.1 80.4,30.2 81.6,30.3 82.9,30.4 84.3,30.6 85.8,30.9 87.3,31.2 88.8,31.7 90.3,32.2 91.7,32.7 93,33.4 94.2,34.2 95.2,35.1 96.1,36.1 96.7,37.3 97.1,38.6 97.3,40" />
<path stroke="#000000" stroke-width="2" d="M 97.3,40 99.2,42.1 100.5,44.1 101.3,45.7 101.6,47.2 101.5,48.4 101.1,49.4 100.4,50.2 99.5,50.8 98.4,51.1 97.3,51.2 96.2,51.1 95.1,50.8 94.2,50.2 93.5,49.5 93.1,48.4 93,47.2 93.3,45.7 94.1,44.1 95.4,42.1 97.3,40" />
<path stroke="#000000" stroke-width="2" d="M 97.3,40 97.3,39.9 97.3,39.7 97.4,39.4 97.5,39 97.6,38.4 97.8,37.8 98.2,37.2 98.6,36.5 99.1,35.7 99.8,35 100.6,34.3 101.6,33.5 102.8,32.8 104.2,32.2 105.7,31.6 107.5,31 109.6,30.6 111.9,30.3 114.4,30.1 117.3,30" />
<path stroke="#000000" stroke-width="2" d="M 117.3,30 117.2,32 116.9,33.6 116.4,34.9 115.9,35.8 115.2,36.3 114.5,36.6 113.7,36.7 113,36.5 112.3,36.1 111.7,35.6 111.2,35 110.8,34.3 110.6,33.6 110.7,32.8 111,32.1 111.5,31.4 112.4,30.9 113.6,30.4 115.3,30.1 117.3,30 127.3,30" />
<path stroke="#000000" stroke-width="2" d="M 157.3,70" />
<path stroke="#000000" stroke-width="2" d="M 157.3,70 172.6,33 172.6,34.4 172.7,35.8 173,37.2 173.3,38.6 173.8,39.9 174.4,41.1 175.1,42.3 175.9,43.5 176.8,44.6 177.8,45.5 178.8,46.4 180,47.2 181.2,47.9 182.5,48.5 183.8,49 185.1,49.4 186.5,49.6 187.9,49.7 189.3,49.7 190.7,49.6 192,49.4 193.4,49 194.7,48.5 196,47.9 197.2,47.2 198.3,46.4 199.4,45.5 200.4,44.6 201.3,43.5 202.1,42.3 202.8,41.1 203.4,39.9 203.8,38.6 204.2,37.2 204.4,35.8 204.6,34.4" />
<path stroke="#000000" stroke-width="2" d="M 234.6,70" />
<path stroke="#000000" stroke-width="2" d="M 244.6,30" />
<path stroke="#000000" stroke-width="2" d="M 244.6,30 241.7,30.3 239.2,31.1 236.9,32.4 235,34.2 233.3,36.2 232,38.6 230.9,41.3 230.2,44.1 229.7,47 229.6,50 229.7,53 230.2,55.9 230.9,58.7 232,61.4 233.3,63.8 235,65.8 236.9,67.6 239.2,68.9 241.7,69.7 244.6,70" />
<path stroke="#000000" stroke-width="2" d="M 244.6,50" />
<path stroke="#000000" stroke-width="2" d="M 212.6,50 252.6,50" />
<path stroke="#000000" stroke-width="2" d="M 282.6,70" />
<path stroke="#000000" stroke-width="2" d="M 298.6,30 278.8,49.8 298.6,69.6" />
<path stroke="#000000" stroke-width="2" d="M 305.2,70" />
<path stroke="#000000" stroke-width="2" d="M 305.2,30 320.5,67" />
<path stroke="#000000" stroke-width="2" d="M 350.5,70" />
<path stroke="#000000" stroke-width="2" d="M 350.5,70 350.7,70 350.7,70.2 350.5,70.2 350.5,70" />
<path stroke="#000000" stroke-width="2" d="M 380.7,70" />
<path stroke="#000000" stroke-width="2" d="M 396.7,30 376.9,49.8 396.7,69.6" />
<path stroke="#000000" stroke-width="2" d="M 403.4,70" />
<path stroke="#000000" stroke-width="2" d="M 403.4,20 403.6,20 403.6,20.2 403.4,20.2 403.4,20" />
<path stroke="#000000" stroke-width="2" d="M 433.6,70" />
<path stroke="#000000" stroke-width="2" d="M 433.6,30 433.6,70 444.9,58.7" />
<path stroke="#000000" stroke-width="2" d="M 451.6,70" />
<path stroke="#000000" stroke-width="2" d="M 451.6,20 471.6,20 451.8,39.8 471.8,39.8" />
<path stroke="#000000" stroke-width="2" d="M 501.8,70" />
<path stroke="#000000" stroke-width="2" d="M 501.8,30 541.8,30" />
<path stroke="#000000" stroke-width="2" d="M 548.5,70" />
<path stroke="#000000" stroke-width="2" d="M 558.5,50 550.8,68.5" />
<path stroke="#000000" stroke-width="2" d="M 588.5,70" />
<path stroke="#000000" stroke-width="2" d="M 600.5,54" />
<path stroke="#000000" stroke-width="2" d="M 600.5,54 600.2,49.9 599.6,46.7 598.7,44.2 597.6,42.5 596.2,41.3 594.8,40.8 593.3,40.7 591.8,41 590.4,41.7 589.2,42.8 588.2,44 587.5,45.4 587.2,46.8 587.2,48.3 587.8,49.8 588.9,51.1 590.7,52.3 593.2,53.2 596.4,53.8 600.5,54 608.5,54" />
<path stroke="#000000" stroke-width="2" d="M 608.5,54 610.2,53.4 611.8,52.7 613.3,51.9 614.7,51.2 616,50.3 617.2,49.4 618.3,48.5 619.3,47.5 620.2,46.5 621,45.5 621.7,44.4 622.3,43.3 622.8,42.2 623.3,41.1 623.6,39.9 623.9,38.8 624.2,37.6 624.3,36.4 624.4,35.2 624.5,34" />
<path stroke="#000000" stroke-width="2" d="M 631.1,70" />
<path stroke="#000000" stroke-width="2" d="M 631.1,20 651.1,20 631.3,39.8 651.3,39.8" />
<path stroke="#000000" stroke-width="2" d="M 651.3,39.8 652.8,39.9 654,40.4 655.2,41 656.1,41.9 657,42.9 657.6,44.1 658.2,45.4 658.5,46.8 658.8,48.3 658.8,49.8 658.8,51.3 658.5,52.8 658.2,54.2 657.6,55.5 657,56.7 656.1,57.7 655.2,58.6 654,59.2 652.8,59.7 651.3,59.8" />
<path stroke="#000000" stroke-width="2" d="M 688.8,70" />
<path stroke="#000000" stroke-width="2" d="M 688.8,70 689,70 689,70.2 688.8,70.2 688.8,70" />
<path stroke="#000000" stroke-width="2" d="M 719,70" />
<path stroke="#000000" stroke-width="2" d="M 719,30 719,70 739,70" />
<path stroke="#000000" stroke-width="2" d="M 769,70" />
<path stroke="#000000" stroke-width="2" d="M 779,30 769,30 769,70" />
<path stroke="#000000" stroke-width="2" d="M 785.7,70" />
<path stroke="#000000" stroke-width="2" d="M 785.7,50 785.7,50.7 785.8,51.4 785.9,52.1 786.1,52.8 786.3,53.4 786.6,54 786.9,54.6 787.3,55.2 787.8,55.8 788.3,56.2 788.8,56.7 789.4,57.1 790,57.4 790.6,57.7 791.3,58 792,58.2 792.6,58.3 793.3,58.3 794,58.3 794.7,58.3 795.4,58.2 796.1,58 796.7,57.7 797.4,57.4 798,57.1 798.6,56.7 799.1,56.2 799.6,55.8 800,55.2 800.4,54.6 800.8,54 801.1,53.4 801.3,52.8 801.5,52.1 801.6,51.4 801.7,50.7" />
<path stroke="#000000" stroke-width="2" d="M 801.7,50.7 803.1,50.8 804.4,51.3 805.5,51.9 806.5,52.8 807.3,53.8 808,55 808.5,56.3 808.9,57.7 809.1,59.2 809.2,60.7 809.1,62.2 808.9,63.7 808.5,65.1 808,66.4 807.3,67.6 806.5,68.6 805.5,69.5 804.4,70.1 803.1,70.6 801.7,70.7 821.7,70.7 814,89.2" />
<path stroke="#000000" stroke-width="2" d="M 851.7,70" />
<path stroke="#000000" stroke-width="2" d="M 851.7,35" />
<path stroke="#000000" stroke-width="2" d="M 851.7,35 853.7,34.9 855.3,34.6 856.6,34.1 857.4,33.6 858,32.9 858.3,32.2 858.3,31.4 858.2,30.7 857.8,30 857.3,29.4 856.7,28.9 856,28.5 855.3,28.3 854.5,28.4 853.8,28.7 853.1,29.2 852.5,30.1 852.1,31.4 851.8,33 851.7,35 851.7,50 844,68.5" />
<path stroke="#000000" stroke-width="2" d="M 865,70" />
<path stroke="#000000" stroke-width="2" d="M 873,50" />
<path stroke="#000000" stroke-width="2" d="M 873,50 872.9,52 872.6,53.6 872.1,54.9 871.6,55.8 870.9,56.3 870.2,56.6 869.4,56.7 868.7,56.5 868,56.1 867.4,55.6 866.9,55 866.5,54.3 866.3,53.6 866.4,52.8 866.7,52.1 867.2,51.4 868.1,50.9 869.4,50.4 871,50.1 873,50 883,50" />
<path stroke="#000000" stroke-width="2" d="M 913,70" />
<path stroke="#000000" stroke-width="2" d="M 913,30 913,31.4 913.1,32.8 913.4,34.2 913.7,35.5 914.2,36.8 914.8,38.1 915.5,39.3 916.3,40.4 917.2,41.5 918.2,42.5 919.2,43.4 920.4,44.2 921.6,44.9 922.9,45.5 924.2,46 925.5,46.3 926.9,46.6 928.3,46.7 929.7,46.7 931.1,46.6 932.4,46.3 933.8,46 935.1,45.5 936.4,44.9 937.6,44.2 938.7,43.4 939.8,42.5 940.8,41.5 941.7,40.4 942.5,39.3 943.2,38.1 943.8,36.8 944.2,35.5 944.6,34.2 944.8,32.8 945,31.4" />
<path stroke="#000000" stroke-width="2" d="M 951.6,70" />
<path stroke="#000000" stroke-width="2" d="M 951.6,20 956.6,20 956.6,40" />
<path stroke="#000000" stroke-width="2" d="M 956.6,40 954.6,39.9 953,39.6 951.8,39.1 950.9,38.6 950.3,37.9 950,37.2 950,36.4 950.2,35.7 950.5,35 951,34.4 951.6,33.9 952.3,33.5 953.1,33.3 953.8,33.4 954.5,33.7 955.2,34.2 955.8,35.1 956.2,36.4 956.5,38 956.6,40 956.6,44" />
<path stroke="#000000" stroke-width="2" d="M 956.6,44 956.3,44.9 956,45.7 955.6,46.4 955.2,47.1 954.8,47.8 954.3,48.4 953.9,48.9 953.4,49.4 952.9,49.9 952.4,50.2 951.9,50.6 951.3,50.9 950.7,51.2 950.2,51.4 949.6,51.6 949,51.7 948.4,51.9 947.8,51.9 947.2,52 946.6,52" />
<path stroke="#000000" stroke-width="2" d="M 986.6,70" />
<path stroke="#000000" stroke-width="2" d="M 986.6,70 986.8,70 986.8,70.2 986.6,70.2 986.6,70" />
<path stroke="#000000" stroke-width="2" d="M 1016.8,70" />
</svg>