<svg xmlns="http://www.w3.org/2000/svg" width="970.5584976019232" height="109.15646527970827" style="fill:none; stroke-linecap:round;">
    <rect width="100%" height="100%" fill="#FFFFFF" />
<path stroke="#000000" stroke-width="2" d="M 550,75" />
<path stroke="#000000" stroke-width="2" d="M 30,50 30.9,50 31.7,49.9 32.6,49.8 33.4,49.5 34.3,49.2 35.1,48.9 35.8,48.4 36.5,47.9 37.2,47.4 37.8,46.8 38.4,46.1 38.9,45.4 39.3,44.6 39.7,43.8 40,43 40.2,42.2 40.4,41.3 40.4,40.4 40.4,39.6 40.4,38.7 40.2,37.8 40,37 39.7,36.2 39.3,35.4 38.9,34.6 38.4,33.9 37.8,33.3 37.2,32.6 36.5,32.1 35.8,31.6 35.1,31.1 34.3,30.8 33.4,30.5 32.6,30.2 31.7,30.1 30.9,30 30,30 29.1,30.1 28.3,30.2 27.4,30.5 26.6,30.8 25.8,31.1 25.1,31.6 24.3,32.1 23.7,32.6 23.1,33.3 22.5,33.9 22,34.6 21.6,35.4 21.2,36.2 20.9,37 20.7,37.8 20.5,38.7 20.4,39.6 20.4,40.4 20.5,41.3 20.7,42.2 20.9,43 21.2,43.8 21.6,44.6 22,45.4 22.5,46.1 23.1,46.8 23.7,47.4 24.3,47.9 25.1,48.4 25.8,48.9 26.6,49.2 27.4,49.5 28.3,49.8 29.1,49.9 30,50 30,70 30,64 30,63.1 30.1,62.3 30.2,61.4 30.5,60.6 30.8,59.7 31.1,58.9 31.6,58.2 32.1,57.5 32.6,56.8 33.2,56.2 33.9,55.6 34.6,55.1 35.4,54.7 36.2,54.3 37,54 37.8,53.8 38.7,53.6 39.6,53.6" />
<path stroke="#000000" stroke-width="2" d="M 47.1,70" />
<path stroke="#000000" stroke-width="2" d="M 47.1,50 47.3,50 47.3,50.2 47.1,50.2 47.1,50" />
<path stroke="#000000" stroke-width="2" d="M 77.3,70" />
<path stroke="#000000" stroke-width="2" d="M 77.3,30 81.1,39.2" />
<path stroke="#000000" stroke-width="2" d="M 81.1,39.2 83,41.4 84.4,43.3 85.1,45 85.4,46.4 85.3,47.7 84.9,48.7 84.2,49.5 83.3,50 82.2,50.4 81.1,50.5 80,50.4 79,50 78,49.5 77.3,48.7 76.9,47.7 76.8,46.4 77.1,45 77.9,43.3 79.2,41.4 81.1,39.2 84.9,30" />
<path stroke="#000000" stroke-width="2" d="M 84.9,30 84.8,32 84.5,33.6 84.1,34.9 83.5,35.8 82.8,36.3 82.1,36.6 81.4,36.7 80.6,36.5 79.9,36.1 79.3,35.6 78.8,35 78.5,34.3 78.3,33.6 78.3,32.8 78.6,32.1 79.2,31.4 80.1,30.9 81.3,30.4 82.9,30.1 84.9,30 94.9,30" />
<path stroke="#000000" stroke-width="2" d="M 124.9,70" />
<path stroke="#000000" stroke-width="2" d="M 124.9,50 132.6,31.5 140.3,50 140.3,50.7 140.3,51.4 140.4,52.1 140.6,52.8 140.9,53.4 141.2,54 141.5,54.6 141.9,55.2 142.3,55.8 142.8,56.2 143.4,56.7 143.9,57.1 144.6,57.4 145.2,57.7 145.8,58 146.5,58.2 147.2,58.3 147.9,58.3 148.6,58.3 149.3,58.3 150,58.2 150.7,58 151.3,57.7 151.9,57.4 152.5,57.1 153.1,56.7 153.7,56.2 154.1,55.8 154.6,55.2 155,54.6 155.3,54 155.6,53.4 155.9,52.8 156.1,52.1 156.2,51.4 156.2,50.7" />
<path stroke="#000000" stroke-width="2" d="M 186.2,70" />
<path stroke="#000000" stroke-width="2" d="M 206.2,30 204.5,30 202.8,30.2 201,30.5 199.4,30.9 197.7,31.5 196.1,32.2 194.6,33.1 193.2,34.1 191.9,35.2 190.6,36.5 189.5,37.8 188.5,39.2 187.6,40.7 186.9,42.3 186.3,44 185.8,45.7 185.5,47.4 185.4,49.1 185.4,50.9 185.5,52.6 185.8,54.3 186.3,56 186.9,57.6 187.6,59.2 188.5,60.7 189.5,62.2 190.6,63.5 191.9,64.7 193.2,65.8 194.6,66.8 196.1,67.7 197.7,68.5 199.4,69.1 201,69.5 202.8,69.8 204.5,70" />
<path stroke="#000000" stroke-width="2" d="M 204.5,50" />
<path stroke="#000000" stroke-width="2" d="M 172.5,50 212.5,50" />
<path stroke="#000000" stroke-width="2" d="M 242.5,70" />
<path stroke="#000000" stroke-width="2" d="M 258.5,30 238.7,49.8 258.5,69.6" />
<path stroke="#000000" stroke-width="2" d="M 265.2,70" />
<path stroke="#000000" stroke-width="2" d="M 265.2,30 280.5,67" />
<path stroke="#000000" stroke-width="2" d="M 310.5,70" />
<path stroke="#000000" stroke-width="2" d="M 310.5,70 310.7,70 310.7,70.2 310.5,70.2 310.5,70" />
<path stroke="#000000" stroke-width="2" d="M 340.7,70" />
<path stroke="#000000" stroke-width="2" d="M 356.7,30 336.9,49.8 356.7,69.6" />
<path stroke="#000000" stroke-width="2" d="M 363.3,70" />
<path stroke="#000000" stroke-width="2" d="M 363.3,20 363.5,20 363.5,20.2 363.3,20.2 363.3,20" />
<path stroke="#000000" stroke-width="2" d="M 393.5,70" />
<path stroke="#000000" stroke-width="2" d="M 393.5,30 393.5,70 404.8,58.7" />
<path stroke="#000000" stroke-width="2" d="M 411.5,70" />
<path stroke="#000000" stroke-width="2" d="M 411.5,20 431.5,20 411.7,39.8 431.7,39.8" />
<path stroke="#000000" stroke-width="2" d="M 461.7,70" />
<path stroke="#000000" stroke-width="2" d="M 461.7,30 501.7,30" />
<path stroke="#000000" stroke-width="2" d="M 508.4,70" />
<path stroke="#000000" stroke-width="2" d="M 518.4,50 510.7,68.5" />
<path stroke="#000000" stroke-width="2" d="M 548.4,70" />
<path stroke="#000000" stroke-width="2" d="M 560.4,54" />
<path stroke="#000000" stroke-width="2" d="M 560.4,54 560.2,49.9 559.6,46.7 558.7,44.2 557.5,42.5 556.2,41.3 554.7,40.8 553.2,40.7 551.7,41 550.4,41.7 549.1,42.8 548.1,44 547.4,45.4 547.1,46.8 547.2,48.3 547.7,49.8 548.9,51.1 550.6,52.3 553.1,53.2 556.3,53.8 560.4,54 568.4,54" />
<path stroke="#000000" stroke-width="2" d="M 568.4,54 570.1,53.4 571.7,52.7 573.3,51.9 574.7,51.2 575.9,50.3 577.1,49.4 578.2,48.5 579.2,47.5 580.1,46.5 580.9,45.5 581.6,44.4 582.2,43.3 582.7,42.2 583.2,41.1 583.6,39.9 583.9,38.8 584.1,37.6 584.3,36.4 584.4,35.2 584.4,34" />
<path stroke="#000000" stroke-width="2" d="M 591,70" />
<path stroke="#000000" stroke-width="2" d="M 591,20 611,20 591.3,39.8 611.3,39.8 612.1,39.8 613,39.9 613.9,40 614.7,40.3 615.5,40.6 616.3,40.9 617.1,41.4 617.8,41.9 618.4,42.4 619.1,43 619.6,43.7 620.1,44.4 620.6,45.2 620.9,46 621.2,46.8 621.4,47.6 621.6,48.5 621.7,49.4 621.7,50.2 621.6,51.1 621.4,52 621.2,52.8 620.9,53.6 620.6,54.4 620.1,55.2 619.6,55.9 619.1,56.5 618.4,57.2 617.8,57.7 617.1,58.2 616.3,58.7 615.5,59 614.7,59.3 613.9,59.6 613,59.7 612.1,59.8" />
<path stroke="#000000" stroke-width="2" d="M 651.7,70" />
<path stroke="#000000" stroke-width="2" d="M 651.7,70 651.9,70 651.9,70.2 651.7,70.2 651.7,70" />
<path stroke="#000000" stroke-width="2" d="M 681.9,70" />
<path stroke="#000000" stroke-width="2" d="M 681.9,30 681.9,70 701.9,70" />
<path stroke="#000000" stroke-width="2" d="M 731.9,70" />
<path stroke="#000000" stroke-width="2" d="M 741.9,30 731.9,30 731.9,70" />
<path stroke="#000000" stroke-width="2" d="M 748.5,70" />
<path stroke="#000000" stroke-width="2" d="M 748.5,50 748.5,50.7 748.6,51.4 748.7,52.1 748.9,52.8 749.1,53.4 749.4,54 749.8,54.6 750.2,55.2 750.6,55.8 751.1,56.2 751.7,56.7 752.2,57.1 752.8,57.4 753.5,57.7 754.1,58 754.8,58.2 755.5,58.3 756.2,58.3 756.9,58.3 757.6,58.3 758.3,58.2 758.9,58 759.6,57.7 760.2,57.4 760.8,57.1 761.4,56.7 761.9,56.2 762.4,55.8 762.9,55.2 763.3,54.6 763.6,54 763.9,53.4 764.2,52.8 764.3,52.1 764.5,51.4 764.5,50.7 765.4,50.7 766.3,50.8 767.1,50.9 768,51.2 768.8,51.4 769.6,51.8 770.3,52.3 771.1,52.8 771.7,53.3 772.3,53.9 772.9,54.6 773.4,55.3 773.8,56.1 774.2,56.9 774.5,57.7 774.7,58.5 774.9,59.4 775,60.3 775,61.1 774.9,62 774.7,62.9 774.5,63.7 774.2,64.5 773.8,65.3 773.4,66.1 772.9,66.8 772.3,67.4 771.7,68.1 771.1,68.6 770.3,69.1 769.6,69.6 768.8,69.9 768,70.2 767.1,70.5 766.3,70.6 765.4,70.7 785.4,70.7 777.7,89.2" />
<path stroke="#000000" stroke-width="2" d="M 815.4,70" />
<path stroke="#000000" stroke-width="2" d="M 815.4,35" />
<path stroke="#000000" stroke-width="2" d="M 815.4,35 817.4,34.9 819,34.6 820.3,34.1 821.2,33.6 821.7,32.9 822,32.2 822.1,31.4 821.9,30.7 821.5,30 821,29.4 820.4,28.9 819.7,28.5 819,28.3 818.2,28.4 817.5,28.7 816.8,29.2 816.3,30.1 815.8,31.4 815.5,33 815.4,35 815.4,50 807.7,68.5" />
<path stroke="#000000" stroke-width="2" d="M 828.7,70" />
<path stroke="#000000" stroke-width="2" d="M 836.7,50" />
<path stroke="#000000" stroke-width="2" d="M 836.7,50 836.6,52 836.3,53.6 835.9,54.9 835.3,55.8 834.6,56.3 833.9,56.6 833.1,56.7 832.4,56.5 831.7,56.1 831.1,55.6 830.6,55 830.2,54.3 830.1,53.6 830.1,52.8 830.4,52.1 831,51.4 831.8,50.9 833.1,50.4 834.7,50.1 836.7,50 846.7,50" />
<path stroke="#000000" stroke-width="2" d="M 876.7,70" />
<path stroke="#000000" stroke-width="2" d="M 876.7,30 876.7,31.4 876.8,32.8 877.1,34.2 877.4,35.5 877.9,36.8 878.5,38.1 879.2,39.3 880,40.4 880.9,41.5 881.9,42.5 883,43.4 884.1,44.2 885.3,44.9 886.6,45.5 887.9,46 889.2,46.3 890.6,46.6 892,46.7 893.4,46.7 894.8,46.6 896.2,46.3 897.5,46 898.8,45.5 900.1,44.9 901.3,44.2 902.4,43.4 903.5,42.5 904.5,41.5 905.4,40.4 906.2,39.3 906.9,38.1 907.5,36.8 908,35.5 908.3,34.2 908.6,32.8 908.7,31.4" />
<path stroke="#000000" stroke-width="2" d="M 915.4,70" />
<path stroke="#000000" stroke-width="2" d="M 915.4,20 920.4,20 920.4,40" />
<path stroke="#000000" stroke-width="2" d="M 920.4,40 918.3,39.9 916.7,39.6 915.5,39.1 914.6,38.6 914,37.9 913.7,37.2 913.7,36.4 913.9,35.7 914.2,35 914.7,34.4 915.3,33.9 916,33.5 916.8,33.3 917.5,33.4 918.2,33.7 918.9,34.2 919.5,35.1 920,36.4 920.3,38 920.4,40 920.4,44" />
<path stroke="#000000" stroke-width="2" d="M 920.4,44 920,44.9 919.7,45.7 919.3,46.4 918.9,47.1 918.5,47.8 918.1,48.4 917.6,48.9 917.1,49.4 916.6,49.9 916.1,50.2 915.6,50.6 915,50.9 914.5,51.2 913.9,51.4 913.3,51.6 912.7,51.7 912.2,51.9 911.6,51.9 911,52 910.4,52" />
<path stroke="#000000" stroke-width="2" d="M 950.4,70" />
<path stroke="#000000" stroke-width="2" d="M 950.4,70 950.6,70 950.6,70.2 950.4,70.2 950.4,70" />
<path stroke="#000000" stroke-width="2" d="M 980.6,70" />
</svg>