<svg xmlns="http://www.w3.org/2000/svg" width="889.2207265663084" height="102.0" style="fill:none; stroke-linecap:round;">
    <rect width="100%" height="100%" fill="#FFFFFF" />
<path stroke="#000000" stroke-width="2" d="M 550,75" />
<path stroke="#000000" stroke-width="2" d="M 20,35" />
<path stroke="#000000" stroke-width="2" d="M 20,35 22,34.9 23.6,34.6 24.9,34.1 25.8,33.6 26.3,32.9 26.6,32.2 26.7,31.4 26.5,30.7 26.1,30 25.6,29.4 25,28.9 24.3,28.5 23.6,28.3 22.8,28.4 22.1,28.7 21.4,29.2 20.9,30.1 20.4,31.4 20.1,33 20,35 20,50 27.7,68.5" />
<path stroke="#000000" stroke-width="2" d="M 34.3,70" />
<path stroke="#000000" stroke-width="2" d="M 34.3,20 34.3,20.7 34.4,21.4 34.5,22.1 34.7,22.8 34.9,23.4 35.2,24 35.6,24.6 36,25.2 36.4,25.8 36.9,26.2 37.4,26.7 38,27.1 38.6,27.4 39.3,27.7 39.9,28 40.6,28.2 41.3,28.3 42,28.3 42.7,28.3 43.4,28.3 44,28.2 44.7,28 45.4,27.7 46,27.4 46.6,27.1 47.2,26.7 47.7,26.2 48.2,25.8 48.7,25.2 49.1,24.6 49.4,24 49.7,23.4 49.9,22.8 50.1,22.1 50.2,21.4 50.3,20.7" />
<path stroke="#000000" stroke-width="2" d="M 80.3,70" />
<path stroke="#000000" stroke-width="2" d="M 100.3,30 85,67" />
<path stroke="#000000" stroke-width="2" d="M 107,70" />
<path stroke="#000000" stroke-width="2" d="M 107,20 107,20.7 107,21.4 107.2,22.1 107.3,22.8 107.6,23.4 107.9,24 108.2,24.6 108.6,25.2 109.1,25.8 109.6,26.2 110.1,26.7 110.7,27.1 111.3,27.4 111.9,27.7 112.6,28 113.2,28.2 113.9,28.3 114.6,28.3 115.3,28.3 116,28.3 116.7,28.2 117.4,28 118,27.7 118.7,27.4 119.3,27.1 119.8,26.7 120.4,26.2 120.9,25.8 121.3,25.2 121.7,24.6 122.1,24 122.4,23.4 122.6,22.8 122.8,22.1 122.9,21.4 123,20.7 123,20 123,19.3 123.1,18.6 123.3,17.9 123.6,17.3 123.9,16.7 124.2,16.1 124.6,15.5 125.1,14.9 125.5,14.5 126.1,14 126.7,13.6 127.3,13.3 127.9,13 128.5,12.7 129.2,12.5 129.9,12.4 130.6,12.4 131.3,12.4 132,12.4 132.7,12.5 133.4,12.7 134,13 134.6,13.3 135.2,13.6 135.8,14 136.4,14.5 136.8,14.9 137.3,15.5 137.7,16.1 138,16.7 138.3,17.3 138.6,17.9 138.8,18.6 138.9,19.3 138.9,20" />
<path stroke="#000000" stroke-width="2" d="M 168.9,70" />
<path stroke="#000000" stroke-width="2" d="M 168.9,70" />
<path stroke="#000000" stroke-width="2" d="M 168.9,70 170.1,70 171,70.2 171.9,70.4 172.6,70.7 173.2,71 173.6,71.5 173.9,71.9 174.1,72.5 174.2,73.1 174.2,73.8 174.1,74.4 173.8,75.2 173.5,76 173.1,76.8 172.6,77.6 172,78.4 171.4,79.3 170.6,80.2 169.8,81.1 168.9,82" />
<path stroke="#000000" stroke-width="2" d="M 204.2,70" />
<path stroke="#000000" stroke-width="2" d="M 220.2,30 200.4,49.8 220.2,69.6" />
<path stroke="#000000" stroke-width="2" d="M 226.9,70" />
<path stroke="#000000" stroke-width="2" d="M 226.9,20 227.1,20 227.1,20.2 226.9,20.2 226.9,20" />
<path stroke="#000000" stroke-width="2" d="M 257.1,70" />
<path stroke="#000000" stroke-width="2" d="M 257.1,30 257.1,70 268.4,58.7" />
<path stroke="#000000" stroke-width="2" d="M 275.1,70" />
<path stroke="#000000" stroke-width="2" d="M 275.1,25" />
<path stroke="#000000" stroke-width="2" d="M 275.1,25 277.1,24.9 278.7,24.6 279.9,24.1 280.8,23.6 281.4,22.9 281.7,22.2 281.7,21.4 281.5,20.7 281.2,20 280.7,19.4 280.1,18.9 279.4,18.5 278.6,18.3 277.9,18.4 277.2,18.7 276.5,19.2 275.9,20.1 275.5,21.4 275.2,23 275.1,25 275.1,40" />
<path stroke="#000000" stroke-width="2" d="M 311.7,70" />
<path stroke="#000000" stroke-width="2" d="M 311.7,40 311.9,40 311.9,40.2 311.7,40.2 311.7,40" />
<path stroke="#000000" stroke-width="2" d="M 318.6,70" />
<path stroke="#000000" stroke-width="2" d="M 318.6,30 318.6,31.4 318.7,32.8 318.9,34.2 319.3,35.5 319.8,36.8 320.4,38.1 321.1,39.3 321.9,40.4 322.8,41.5 323.8,42.5 324.8,43.4 326,44.2 327.2,44.9 328.4,45.5 329.8,46 331.1,46.3 332.5,46.6 333.9,46.7 335.3,46.7 336.7,46.6 338,46.3 339.4,46 340.7,45.5 342,44.9 343.2,44.2 344.3,43.4 345.4,42.5 346.4,41.5 347.3,40.4 348.1,39.3 348.8,38.1 349.3,36.8 349.8,35.5 350.2,34.2 350.4,32.8 350.6,31.4" />
<path stroke="#000000" stroke-width="2" d="M 357.2,70" />
<path stroke="#000000" stroke-width="2" d="M 357.2,50 377.2,50 377.2,50.7 377.3,51.4 377.4,52.1 377.6,52.8 377.8,53.4 378.1,54 378.5,54.6 378.9,55.2 379.3,55.8 379.8,56.2 380.3,56.7 380.9,57.1 381.5,57.4 382.1,57.7 382.8,58 383.5,58.2 384.2,58.3 384.9,58.3 385.6,58.3 386.3,58.3 386.9,58.2 387.6,58 388.3,57.7 388.9,57.4 389.5,57.1 390.1,56.7 390.6,56.2 391.1,55.8 391.6,55.2 392,54.6 392.3,54 392.6,53.4 392.8,52.8 393,52.1 393.1,51.4 393.2,50.7" />
<path stroke="#000000" stroke-width="2" d="M 399.9,70" />
<path stroke="#000000" stroke-width="2" d="M 399.9,30 400.3,30 400.3,30.4 399.9,30.4 399.9,30" />
<path stroke="#000000" stroke-width="2" d="M 430.3,70" />
<path stroke="#000000" stroke-width="2" d="M 430.3,30 445.6,67" />
<path stroke="#000000" stroke-width="2" d="M 452.2,70" />
<path stroke="#000000" stroke-width="2" d="M 452.2,20 472.2,20" />
<path stroke="#000000" stroke-width="2" d="M 502.2,70" />
<path stroke="#000000" stroke-width="2" d="M 522.2,30 506.9,67" />
<path stroke="#000000" stroke-width="2" d="M 528.9,70" />
<path stroke="#000000" stroke-width="2" d="M 528.9,20 528.9,20.7 529,21.4 529.1,22.1 529.3,22.8 529.5,23.4 529.8,24 530.2,24.6 530.6,25.2 531,25.8 531.5,26.2 532,26.7 532.6,27.1 533.2,27.4 533.8,27.7 534.5,28 535.2,28.2 535.9,28.3 536.6,28.3 537.3,28.3 537.9,28.3 538.6,28.2 539.3,28 540,27.7 540.6,27.4 541.2,27.1 541.8,26.7 542.3,26.2 542.8,25.8 543.2,25.2 543.6,24.6 544,24 544.3,23.4 544.5,22.8 544.7,22.1 544.8,21.4 544.9,20.7 544.9,20 545,19.3 545.1,18.6 545.3,17.9 545.5,17.3 545.8,16.7 546.1,16.1 546.5,15.5 547,14.9 547.5,14.5 548,14 548.6,13.6 549.2,13.3 549.8,13 550.5,12.7 551.2,12.5 551.8,12.4 552.5,12.4 553.2,12.4 553.9,12.4 554.6,12.5 555.3,12.7 555.9,13 556.6,13.3 557.2,13.6 557.8,14 558.3,14.5 558.8,14.9 559.2,15.5 559.6,16.1 560,16.7 560.3,17.3 560.5,17.9 560.7,18.6 560.8,19.3 560.9,20 560.9,20.5 560.8,21 560.7,21.6 560.6,22.1 560.4,22.6 560.2,23 559.9,23.5 559.6,23.9 559.3,24.3 558.9,24.7 558.5,25 558.1,25.3 557.7,25.6 557.2,25.8 556.7,26 556.2,26.1 555.7,26.2 555.1,26.3 554.6,26.3 554.1,26.2 553.6,26.1 553.1,26 552.6,25.8 552.1,25.6 551.7,25.3 551.2,25 550.8,24.7 550.5,24.3 550.1,23.9 549.8,23.5 549.6,23 549.3,22.6 549.2,22.1 549,21.6 548.9,21 548.9,20.5 548.9,20 548.9,19.5 549,19 549.2,18.5 549.3,18 549.6,17.5 549.8,17 550.1,16.6 550.5,16.2 550.8,15.8 551.2,15.5 551.7,15.2 552.1,14.9 552.6,14.7 553.1,14.5 553.6,14.4 554.1,14.3 554.6,14.3 555.1,14.3 555.7,14.3 556.2,14.4 556.7,14.5 557.2,14.7 557.7,14.9 558.1,15.2 558.5,15.5 558.9,15.8 559.3,16.2 559.6,16.6 559.9,17 560.2,17.5 560.4,18 560.6,18.5 560.7,19 560.8,19.5 560.9,20 560.9,24" />
<path stroke="#000000" stroke-width="2" d="M 560.9,24 560.6,24.9 560.2,25.7 559.9,26.4 559.5,27.1 559,27.8 558.6,28.4 558.1,28.9 557.6,29.4 557.1,29.9 556.6,30.2 556.1,30.6 555.6,30.9 555,31.2 554.4,31.4 553.8,31.6 553.3,31.7 552.7,31.9 552.1,31.9 551.5,32 550.9,32" />
<path stroke="#000000" stroke-width="2" d="M 590.9,70" />
<path stroke="#000000" stroke-width="2" d="M 590.9,46 602.2,34.7 602.2,74.7" />
<path stroke="#000000" stroke-width="2" d="M 602.2,54.7" />
<path stroke="#000000" stroke-width="2" d="M 594.2,54.7 610.2,54.7" />
<path stroke="#000000" stroke-width="2" d="M 640.2,70" />
<path stroke="#000000" stroke-width="2" d="M 640.2,70 640.4,70 640.4,70.2 640.2,70.2 640.2,70" />
<path stroke="#000000" stroke-width="2" d="M 647.1,70" />
<path stroke="#000000" stroke-width="2" d="M 647.1,30 647.1,70 658.4,58.7" />
<path stroke="#000000" stroke-width="2" d="M 665,70" />
<path stroke="#000000" stroke-width="2" d="M 675,40 675.9,40 676.8,39.9 677.6,39.8 678.5,39.5 679.3,39.2 680.1,38.9 680.8,38.4 681.6,37.9 682.2,37.4 682.8,36.8 683.4,36.1 683.9,35.4 684.3,34.6 684.7,33.8 685,33 685.2,32.2 685.4,31.3 685.5,30.4 685.5,29.6 685.4,28.7 685.2,27.8 685,27 684.7,26.2 684.3,25.4 683.9,24.6 683.4,23.9 682.8,23.3 682.2,22.6 681.6,22.1 680.8,21.6 680.1,21.1 679.3,20.8 678.5,20.5 677.6,20.2 676.8,20.1 675.9,20 675,20 674.2,20.1 673.3,20.2 672.5,20.5 671.6,20.8 670.9,21.1 670.1,21.6 669.4,22.1 668.7,22.6 668.1,23.3 667.5,23.9 667,24.6 666.6,25.4 666.2,26.2 665.9,27 665.7,27.8 665.6,28.7 665.5,29.6 665.5,30.4 665.6,31.3 665.7,32.2 665.9,33 666.2,33.8 666.6,34.6 667,35.4 667.5,36.1 668.1,36.8 668.7,37.4 669.4,37.9 670.1,38.4 670.9,38.9 671.6,39.2 672.5,39.5 673.3,39.8 674.2,39.9 675,40 675,60 675,54 675,53.1 675.1,52.3 675.3,51.4 675.5,50.6 675.8,49.7 676.2,48.9 676.6,48.2 677.1,47.5 677.7,46.8 678.3,46.2 678.9,45.6 679.7,45.1 680.4,44.7 681.2,44.3 682,44 682.9,43.8 683.7,43.6 684.6,43.6" />
<path stroke="#000000" stroke-width="2" d="M 715.5,70" />
<path stroke="#000000" stroke-width="2" d="M 715.5,30 735.5,30 736.3,30 737.2,30.1 738.1,30.2 738.9,30.5 739.7,30.8 740.5,31.1 741.3,31.6 742,32.1 742.7,32.6 743.3,33.2 743.8,33.9 744.3,34.6 744.8,35.4 745.1,36.2 745.4,37 745.7,37.8 745.8,38.7 745.9,39.6 745.9,40.4 745.8,41.3 745.7,42.2 745.4,43 745.1,43.8 744.8,44.6 744.3,45.4 743.8,46.1 743.3,46.7 742.7,47.4 742,47.9 741.3,48.4 740.5,48.9 739.7,49.2 738.9,49.5 738.1,49.8 737.2,49.9 736.3,50" />
<path stroke="#000000" stroke-width="2" d="M 775.9,70" />
<path stroke="#000000" stroke-width="2" d="M 785.9,30 785,30 784.2,30.1 783.3,30.2 782.4,30.5 781.6,30.8 780.8,31.1 780.1,31.6 779.4,32.1 778.7,32.6 778.1,33.2 777.5,33.9 777,34.6 776.6,35.4 776.2,36.2 775.9,37 775.7,37.8 775.5,38.7 775.5,39.6 775.5,40.4 775.5,41.3 775.7,42.2 775.9,43 776.2,43.8 776.6,44.6 777,45.4 777.5,46.1 778.1,46.7 778.7,47.4 779.4,47.9 780.1,48.4 780.8,48.9 781.6,49.2 782.4,49.5 783.3,49.8 784.2,49.9 785,50" />
<path stroke="#000000" stroke-width="2" d="M 785,40" />
<path stroke="#000000" stroke-width="2" d="M 769,40 789,40 789,40.5 789,41 788.9,41.5 788.7,42 788.6,42.5 788.3,43 788.1,43.5 787.8,43.9 787.5,44.3 787.1,44.7 786.7,45 786.3,45.3 785.8,45.6 785.3,45.8 784.8,46 784.3,46.1 783.8,46.2 783.3,46.2 782.8,46.2 782.2,46.2 781.7,46.1 781.2,46 780.7,45.8 780.3,45.6 779.8,45.3 779.4,45 779,44.7 778.6,44.3 778.3,43.9 778,43.5 777.7,43 777.5,42.5 777.3,42 777.2,41.5 777.1,41 777,40.5 777,40 777.1,39.5 777.2,38.9 777.3,38.4 777.5,37.9 777.7,37.5 778,37 778.3,36.6 778.6,36.2 779,35.8 779.4,35.5 779.8,35.2 780.3,34.9 780.7,34.7 781.2,34.5 781.7,34.4 782.2,34.3 782.8,34.2 783.3,34.2 783.8,34.3 784.3,34.4 784.8,34.5 785.3,34.7 785.8,34.9 786.3,35.2 786.7,35.5 787.1,35.8 787.5,36.2 787.8,36.6 788.1,37 788.3,37.5 788.6,37.9 788.7,38.4 788.9,38.9 789,39.5 789,40 789,44" />
<path stroke="#000000" stroke-width="2" d="M 789,44 788.7,44.9 788.4,45.7 788,46.4 787.6,47.1 787.2,47.8 786.7,48.4 786.3,48.9 785.8,49.4 785.3,49.8 784.8,50.2 784.2,50.6 783.7,50.9 783.1,51.2 782.6,51.4 782,51.6 781.4,51.7 780.8,51.8 780.2,51.9 779.6,52 779,52" />
<path stroke="#000000" stroke-width="2" d="M 779,52 781.1,51.9 782.7,51.6 783.9,51.1 784.8,50.5 785.3,49.9 785.6,49.1 785.7,48.4 785.5,47.7 785.1,47 784.6,46.4 784,45.9 783.3,45.5 782.6,45.3 781.9,45.4 781.1,45.7 780.5,46.2 779.9,47.1 779.4,48.3 779.1,50 779,52 779,67" />
<path stroke="#000000" stroke-width="2" d="M 819,70" />
<path stroke="#000000" stroke-width="2" d="M 819,70 819.2,70 819.2,70.2 819,70.2 819,70" />
<path stroke="#000000" stroke-width="2" d="M 849.2,70" />
<path stroke="#000000" stroke-width="2" d="M 849.2,30 849.2,70 869.2,70" />
<path stroke="#000000" stroke-width="2" d="M 899.2,70" />
</svg>