<svg xmlns="http://www.w3.org/2000/svg" width="912.9473897938533" height="108.47759065022574" style="fill:none; stroke-linecap:round;">
    <rect width="100%" height="100%" fill="#FFFFFF" />
<path stroke="#000000" stroke-width="2" d="M 550,75" />
<path stroke="#000000" stroke-width="2" d="M 20,30 25,30 25,50 25,70 25,64 25,63.1 25.1,62.3 25.2,61.4 25.5,60.6 25.8,59.7 26.1,58.9 26.6,58.2 27.1,57.5 27.6,56.8 28.2,56.2 28.9,55.6 29.6,55.1 30.4,54.7 31.2,54.3 32,54 32.8,53.8 33.7,53.6 34.6,53.6" />
<path stroke="#000000" stroke-width="2" d="M 41.2,70" />
<path stroke="#000000" stroke-width="2" d="M 41.2,50 48.9,68.5" />
<path stroke="#000000" stroke-width="2" d="M 78.9,70" />
<path stroke="#000000" stroke-width="2" d="M 94.9,30 75.1,49.8 94.9,69.6" />
<path stroke="#000000" stroke-width="2" d="M 101.5,70" />
<path stroke="#000000" stroke-width="2" d="M 101.5,40" />
<path stroke="#000000" stroke-width="2" d="M 101.5,40 105.6,39.8 108.8,39.2 111.3,38.3 113.1,37.1 114.2,35.8 114.8,34.3 114.9,32.8 114.5,31.4 113.8,30 112.8,28.8 111.6,27.7 110.2,27 108.7,26.7 107.2,26.8 105.8,27.3 104.4,28.5 103.3,30.2 102.4,32.7 101.8,35.9 101.5,40 101.5,70" />
<path stroke="#000000" stroke-width="2" d="M 144.9,70" />
<path stroke="#000000" stroke-width="2" d="M 144.9,30 144.9,70" />
<path stroke="#000000" stroke-width="2" d="M 151.5,70" />
<path stroke="#000000" stroke-width="2" d="M 151.5,20 171.5,20" />
<path stroke="#000000" stroke-width="2" d="M 178.2,70" />
<path stroke="#000000" stroke-width="2" d="M 178.2,20 178.2,20.7 178.2,21.4 178.4,22.1 178.5,22.8 178.8,23.4 179.1,24 179.4,24.6 179.8,25.2 180.3,25.8 180.8,26.2 181.3,26.7 181.9,27.1 182.5,27.4 183.1,27.7 183.8,28 184.4,28.2 185.1,28.3 185.8,28.3 186.5,28.3 187.2,28.3 187.9,28.2 188.6,28 189.2,27.7 189.9,27.4 190.5,27.1 191,26.7 191.6,26.2 192.1,25.8 192.5,25.2 192.9,24.6 193.3,24 193.6,23.4 193.8,22.8 194,22.1 194.1,21.4 194.2,20.7" />
<path stroke="#000000" stroke-width="2" d="M 200.8,70" />
<path stroke="#000000" stroke-width="2" d="M 220.8,30 205.5,67" />
<path stroke="#000000" stroke-width="2" d="M 227.5,70" />
<path stroke="#000000" stroke-width="2" d="M 227.5,30 227.7,30 227.7,30.2 227.5,30.2 227.5,30" />
<path stroke="#000000" stroke-width="2" d="M 257.7,70" />
<path stroke="#000000" stroke-width="2" d="M 257.7,70 257.9,70 257.9,70.2 257.7,70.2 257.7,70" />
<path stroke="#000000" stroke-width="2" d="M 287.9,70" />
<path stroke="#000000" stroke-width="2" d="M 287.9,30 287.9,70 307.9,70" />
<path stroke="#000000" stroke-width="2" d="M 337.9,70" />
<path stroke="#000000" stroke-width="2" d="M 337.9,50 345.6,31.5 353.2,50 353.2,50.7 353.3,51.4 353.4,52.1 353.6,52.8 353.8,53.4 354.1,54 354.5,54.6 354.9,55.2 355.3,55.8 355.8,56.2 356.3,56.7 356.9,57.1 357.5,57.4 358.1,57.7 358.8,58 359.5,58.2 360.2,58.3 360.9,58.3 361.6,58.3 362.2,58.3 362.9,58.2 363.6,58 364.3,57.7 364.9,57.4 365.5,57.1 366.1,56.7 366.6,56.2 367.1,55.8 367.5,55.2 367.9,54.6 368.3,54 368.6,53.4 368.8,52.8 369,52.1 369.1,51.4 369.2,50.7 376.8,69.2" />
<path stroke="#000000" stroke-width="2" d="M 383.5,70" />
<path stroke="#000000" stroke-width="2" d="M 383.5,55" />
<path stroke="#000000" stroke-width="2" d="M 383.5,55 385.5,54.9 387.2,54.6 388.4,54.1 389.3,53.6 389.8,52.9 390.1,52.2 390.2,51.4 390,50.7 389.6,50 389.1,49.4 388.5,48.9 387.8,48.5 387.1,48.3 386.3,48.4 385.6,48.7 385,49.2 384.4,50.1 383.9,51.4 383.6,53 383.5,55 383.5,70 375.9,88.5" />
<path stroke="#000000" stroke-width="2" d="M 420.2,70" />
<path stroke="#000000" stroke-width="2" d="M 420.2,30 421.9,30 423.7,30.2 425.4,30.5 427.1,30.9 428.7,31.5 430.3,32.2 431.8,33.1 433.2,34.1 434.6,35.2 435.8,36.5 436.9,37.8 437.9,39.2 438.8,40.7 439.5,42.3 440.1,44 440.6,45.7 440.9,47.4 441,49.1 441,50.9 440.9,52.6 440.6,54.3 440.1,56 439.5,57.6 438.8,59.2 437.9,60.7 436.9,62.2 435.8,63.5 434.6,64.7 433.2,65.8 431.8,66.8 430.3,67.7 428.7,68.5 427.1,69.1 425.4,69.5 423.7,69.8 421.9,70" />
<path stroke="#000000" stroke-width="2" d="M 447.7,70" />
<path stroke="#000000" stroke-width="2" d="M 447.7,30 448.6,30 449.4,30.1 450.3,30.2 451.1,30.5 452,30.8 452.7,31.1 453.5,31.6 454.2,32.1 454.9,32.6 455.5,33.2 456.1,33.9 456.6,34.6 457,35.4 457.4,36.2 457.7,37 457.9,37.8 458,38.7 458.1,39.6 458.1,40.4 458,41.3 457.9,42.2 457.7,43 457.4,43.8 457,44.6 456.6,45.4 456.1,46.1 455.5,46.7 454.9,47.4 454.2,47.9 453.5,48.4 452.7,48.9 452,49.2 451.1,49.5 450.3,49.8 449.4,49.9 448.6,50 468.6,50 460.9,68.5" />
<path stroke="#000000" stroke-width="2" d="M 498.6,70" />
<path stroke="#000000" stroke-width="2" d="M 498.6,30 538.6,30" />
<path stroke="#000000" stroke-width="2" d="M 545.2,70" />
<path stroke="#000000" stroke-width="2" d="M 555.2,50 547.6,68.5" />
<path stroke="#000000" stroke-width="2" d="M 561.9,70" />
<path stroke="#000000" stroke-width="2" d="M 571.9,30 561.9,30 561.9,70" />
<path stroke="#000000" stroke-width="2" d="M 578.6,70" />
<path stroke="#000000" stroke-width="2" d="M 578.6,20 578.8,20 578.8,20.2 578.6,20.2 578.6,20" />
<path stroke="#000000" stroke-width="2" d="M 608.8,70" />
<path stroke="#000000" stroke-width="2" d="M 608.8,30 608.8,50 618.8,50 611.1,68.5" />
<path stroke="#000000" stroke-width="2" d="M 648.8,70" />
<path stroke="#000000" stroke-width="2" d="M 664.8,30 645,49.8 664.8,69.6" />
<path stroke="#000000" stroke-width="2" d="M 671.4,70" />
<path stroke="#000000" stroke-width="2" d="M 671.4,20 672.3,20 673.2,20.1 674,20.2 674.9,20.5 675.7,20.8 676.5,21.1 677.2,21.6 678,22.1 678.6,22.6 679.2,23.2 679.8,23.9 680.3,24.6 680.7,25.4 681.1,26.2 681.4,27 681.6,27.8 681.8,28.7 681.9,29.6 681.9,30.4 681.8,31.3 681.6,32.2 681.4,33 681.1,33.8 680.7,34.6 680.3,35.4 679.8,36.1 679.2,36.7 678.6,37.4 678,37.9 677.2,38.4 676.5,38.9 675.7,39.2 674.9,39.5 674,39.8 673.2,39.9 672.3,40" />
<path stroke="#000000" stroke-width="2" d="M 711.9,70" />
<path stroke="#000000" stroke-width="2" d="M 727.9,30 708.1,49.8 727.9,69.6" />
<path stroke="#000000" stroke-width="2" d="M 734.5,70" />
<path stroke="#000000" stroke-width="2" d="M 742.5,20" />
<path stroke="#000000" stroke-width="2" d="M 742.5,20 742.4,22 742.1,23.6 741.7,24.9 741.1,25.8 740.4,26.3 739.7,26.6 738.9,26.7 738.2,26.5 737.5,26.1 736.9,25.6 736.4,25 736,24.3 735.9,23.6 735.9,22.8 736.2,22.1 736.8,21.4 737.6,20.9 738.9,20.4 740.5,20.1 742.5,20 752.5,20" />
<path stroke="#000000" stroke-width="2" d="M 759.2,70" />
<path stroke="#000000" stroke-width="2" d="M 759.2,20 779.2,20" />
<path stroke="#000000" stroke-width="2" d="M 785.9,70" />
<path stroke="#000000" stroke-width="2" d="M 785.9,20 786.7,20 787.6,20.1 788.5,20.2 789.3,20.5 790.1,20.8 790.9,21.1 791.7,21.6 792.4,22.1 793,22.6 793.7,23.2 794.2,23.9 794.7,24.6 795.2,25.4 795.5,26.2 795.8,27 796.1,27.8 796.2,28.7 796.3,29.6 796.3,30.4 796.2,31.3 796.1,32.2 795.8,33 795.5,33.8 795.2,34.6 794.7,35.4 794.2,36.1 793.7,36.7 793,37.4 792.4,37.9 791.7,38.4 790.9,38.9 790.1,39.2 789.3,39.5 788.5,39.8 787.6,39.9 786.7,40" />
<path stroke="#000000" stroke-width="2" d="M 826.3,70" />
<path stroke="#000000" stroke-width="2" d="M 826.3,30 826.3,70" />
<path stroke="#000000" stroke-width="2" d="M 832.9,70" />
<path stroke="#000000" stroke-width="2" d="M 842.9,50 835.3,68.5" />
<path stroke="#000000" stroke-width="2" d="M 872.9,70" />
<path stroke="#000000" stroke-width="2" d="M 872.9,30 872.9,70 892.9,70" />
<path stroke="#000000" stroke-width="2" d="M 922.9,70" />
</svg>