<svg xmlns="http://www.w3.org/2000/svg" width="881.966438224143" height="102.0" style="fill:none; stroke-linecap:round;">
    <rect width="100%" height="100%" fill="#FFFFFF" />
<path stroke="#000000" stroke-width="2" d="M 550,75" />
<path stroke="#000000" stroke-width="2" d="M 20,35" />
<path stroke="#000000" stroke-width="2" d="M 20,35 22,34.9 23.6,34.6 24.9,34.1 25.8,33.6 26.3,32.9 26.6,32.2 26.7,31.4 26.5,30.7 26.1,30 25.6,29.4 25,28.9 24.3,28.5 23.6,28.3 22.8,28.4 22.1,28.7 21.4,29.2 20.9,30.1 20.4,31.4 20.1,33 20,35 20,50 27.7,68.5" />
<path stroke="#000000" stroke-width="2" d="M 34.3,70" />
<path stroke="#000000" stroke-width="2" d="M 34.3,20 34.3,20.7 34.4,21.4 34.5,22.1 34.7,22.8 34.9,23.4 35.2,24 35.6,24.6 36,25.2 36.4,25.8 36.9,26.2 37.4,26.7 38,27.1 38.6,27.4 39.3,27.7 39.9,28 40.6,28.2 41.3,28.3 42,28.3 42.7,28.3 43.4,28.3 44,28.2 44.7,28 45.4,27.7 46,27.4 46.6,27.1 47.2,26.7 47.7,26.2 48.2,25.8 48.7,25.2 49.1,24.6 49.4,24 49.7,23.4 49.9,22.8 50.1,22.1 50.2,21.4 50.3,20.7" />
<path stroke="#000000" stroke-width="2" d="M 80.3,70" />
<path stroke="#000000" stroke-width="2" d="M 100.3,30 85,67" />
<path stroke="#000000" stroke-width="2" d="M 107,70" />
<path stroke="#000000" stroke-width="2" d="M 107,20 107,20.7 107,21.4 107.2,22.1 107.3,22.8 107.6,23.4 107.9,24 108.2,24.6 108.6,25.2 109.1,25.8 109.6,26.2 110.1,26.7 110.7,27.1 111.3,27.4 111.9,27.7 112.6,28 113.2,28.2 113.9,28.3 114.6,28.3 115.3,28.3 116,28.3 116.7,28.2 117.4,28 118,27.7 118.7,27.4 119.3,27.1 119.8,26.7 120.4,26.2 120.9,25.8 121.3,25.2 121.7,24.6 122.1,24 122.4,23.4 122.6,22.8 122.8,22.1 122.9,21.4 123,20.7 123,20 123,19.3 123.1,18.6 123.3,17.9 123.6,17.3 123.9,16.7 124.2,16.1 124.6,15.5 125.1,14.9 125.5,14.5 126.1,14 126.7,13.6 127.3,13.3 127.9,13 128.5,12.7 129.2,12.5 129.9,12.4 130.6,12.4 131.3,12.4 132,12.4 132.7,12.5 133.4,12.7 134,13 134.6,13.3 135.2,13.6 135.8,14 136.4,14.5 136.8,14.9 137.3,15.5 137.7,16.1 138,16.7 138.3,17.3 138.6,17.9 138.8,18.6 138.9,19.3 138.9,20" />
<path stroke="#000000" stroke-width="2" d="M 168.9,70" />
<path stroke="#000000" stroke-width="2" d="M 168.9,70" />
<path stroke="#000000" stroke-width="2" d="M 168.9,70 170.1,70 171,70.2 171.9,70.4 172.6,70.7 173.2,71 173.6,71.5 173.9,71.9 174.1,72.5 174.2,73.1 174.2,73.8 174.1,74.4 173.8,75.2 173.5,76 173.1,76.8 172.6,77.6 172,78.4 171.4,79.3 170.6,80.2 169.8,81.1 168.9,82" />
<path stroke="#000000" stroke-width="2" d="M 204.2,70" />
<path stroke="#000000" stroke-width="2" d="M 220.2,30 200.4,49.8 220.2,69.6" />
<path stroke="#000000" stroke-width="2" d="M 226.9,70" />
<path stroke="#000000" stroke-width="2" d="M 226.9,20 227.1,20 227.1,20.2 226.9,20.2 226.9,20" />
<path stroke="#000000" stroke-width="2" d="M 257.1,70" />
<path stroke="#000000" stroke-width="2" d="M 257.1,30 257.1,70 268.4,58.7" />
<path stroke="#000000" stroke-width="2" d="M 275.1,70" />
<path stroke="#000000" stroke-width="2" d="M 275.1,25" />
<path stroke="#000000" stroke-width="2" d="M 275.1,25 277.1,24.9 278.7,24.6 279.9,24.1 280.8,23.6 281.4,22.9 281.7,22.2 281.7,21.4 281.5,20.7 281.2,20 280.7,19.4 280.1,18.9 279.4,18.5 278.6,18.3 277.9,18.4 277.2,18.7 276.5,19.2 275.9,20.1 275.5,21.4 275.2,23 275.1,25 275.1,40" />
<path stroke="#000000" stroke-width="2" d="M 311.7,70" />
<path stroke="#000000" stroke-width="2" d="M 311.7,40 311.9,40 311.9,40.2 311.7,40.2 311.7,40" />
<path stroke="#000000" stroke-width="2" d="M 318.6,70" />
<path stroke="#000000" stroke-width="2" d="M 318.6,30 318.6,31.4 318.7,32.8 318.9,34.2 319.3,35.5 319.8,36.8 320.4,38.1 321.1,39.3 321.9,40.4 322.8,41.5 323.8,42.5 324.8,43.4 326,44.2 327.2,44.9 328.4,45.5 329.8,46 331.1,46.3 332.5,46.6 333.9,46.7 335.3,46.7 336.7,46.6 338,46.3 339.4,46 340.7,45.5 342,44.9 343.2,44.2 344.3,43.4 345.4,42.5 346.4,41.5 347.3,40.4 348.1,39.3 348.8,38.1 349.3,36.8 349.8,35.5 350.2,34.2 350.4,32.8 350.6,31.4" />
<path stroke="#000000" stroke-width="2" d="M 357.2,70" />
<path stroke="#000000" stroke-width="2" d="M 357.2,50 377.2,50 377.2,50.7 377.3,51.4 377.4,52.1 377.6,52.8 377.8,53.4 378.1,54 378.5,54.6 378.9,55.2 379.3,55.8 379.8,56.2 380.3,56.7 380.9,57.1 381.5,57.4 382.1,57.7 382.8,58 383.5,58.2 384.2,58.3 384.9,58.3 385.6,58.3 386.3,58.3 386.9,58.2 387.6,58 388.3,57.7 388.9,57.4 389.5,57.1 390.1,56.7 390.6,56.2 391.1,55.8 391.6,55.2 392,54.6 392.3,54 392.6,53.4 392.8,52.8 393,52.1 393.1,51.4 393.2,50.7" />
<path stroke="#000000" stroke-width="2" d="M 399.9,70" />
<path stroke="#000000" stroke-width="2" d="M 399.9,30 400.1,30 400.1,30.2 399.9,30.2 399.9,30" />
<path stroke="#000000" stroke-width="2" d="M 430.1,70" />
<path stroke="#000000" stroke-width="2" d="M 430.1,30 445.4,67" />
<path stroke="#000000" stroke-width="2" d="M 452,70" />
<path stroke="#000000" stroke-width="2" d="M 452,20 472,20" />
<path stroke="#000000" stroke-width="2" d="M 502,70" />
<path stroke="#000000" stroke-width="2" d="M 522,30 506.7,67" />
<path stroke="#000000" stroke-width="2" d="M 528.7,70" />
<path stroke="#000000" stroke-width="2" d="M 528.7,20 528.7,20.7 528.8,21.4 528.9,22.1 529.1,22.8 529.3,23.4 529.6,24 530,24.6 530.4,25.2 530.8,25.8 531.3,26.2 531.8,26.7 532.4,27.1 533,27.4 533.6,27.7 534.3,28 535,28.2 535.7,28.3 536.4,28.3 537.1,28.3 537.7,28.3 538.4,28.2 539.1,28 539.8,27.7 540.4,27.4 541,27.1 541.6,26.7 542.1,26.2 542.6,25.8 543,25.2 543.4,24.6 543.8,24 544.1,23.4 544.3,22.8 544.5,22.1 544.6,21.4 544.7,20.7 544.7,20 544.8,19.3 544.9,18.6 545.1,17.9 545.3,17.3 545.6,16.7 545.9,16.1 546.3,15.5 546.8,14.9 547.3,14.5 547.8,14 548.4,13.6 549,13.3 549.6,13 550.3,12.7 551,12.5 551.6,12.4 552.3,12.4 553,12.4 553.7,12.4 554.4,12.5 555.1,12.7 555.7,13 556.4,13.3 557,13.6 557.6,14 558.1,14.5 558.6,14.9 559,15.5 559.4,16.1 559.8,16.7 560.1,17.3 560.3,17.9 560.5,18.6 560.6,19.3 560.7,20" />
<path stroke="#000000" stroke-width="2" d="M 560.7,20 558.6,19.9 557,19.6 555.8,19.1 554.9,18.6 554.4,17.9 554.1,17.2 554,16.4 554.2,15.7 554.6,15 555.1,14.4 555.7,13.9 556.4,13.5 557.1,13.3 557.8,13.4 558.6,13.7 559.2,14.2 559.8,15.1 560.3,16.4 560.6,18 560.7,20 560.7,24" />
<path stroke="#000000" stroke-width="2" d="M 560.7,24 560.4,24.9 560,25.7 559.7,26.4 559.3,27.1 558.8,27.8 558.4,28.4 557.9,28.9 557.4,29.4 556.9,29.9 556.4,30.2 555.9,30.6 555.4,30.9 554.8,31.2 554.2,31.4 553.6,31.6 553.1,31.7 552.5,31.9 551.9,31.9 551.3,32 550.7,32" />
<path stroke="#000000" stroke-width="2" d="M 590.7,70" />
<path stroke="#000000" stroke-width="2" d="M 590.7,46 602,34.7 602,74.7" />
<path stroke="#000000" stroke-width="2" d="M 602,54.7" />
<path stroke="#000000" stroke-width="2" d="M 594,54.7 610,54.7" />
<path stroke="#000000" stroke-width="2" d="M 640,70" />
<path stroke="#000000" stroke-width="2" d="M 640,70 640.2,70 640.2,70.2 640,70.2 640,70" />
<path stroke="#000000" stroke-width="2" d="M 646.9,70" />
<path stroke="#000000" stroke-width="2" d="M 646.9,30 646.9,70 658.2,58.7" />
<path stroke="#000000" stroke-width="2" d="M 664.8,70" />
<path stroke="#000000" stroke-width="2" d="M 674.8,40 675.7,40 676.6,39.9 677.4,39.8 678.3,39.5 679.1,39.2 679.9,38.9 680.6,38.4 681.4,37.9 682,37.4 682.6,36.8 683.2,36.1 683.7,35.4 684.1,34.6 684.5,33.8 684.8,33 685,32.2 685.2,31.3 685.3,30.4 685.3,29.6 685.2,28.7 685,27.8 684.8,27 684.5,26.2 684.1,25.4 683.7,24.6 683.2,23.9 682.6,23.3 682,22.6 681.4,22.1 680.6,21.6 679.9,21.1 679.1,20.8 678.3,20.5 677.4,20.2 676.6,20.1 675.7,20 674.8,20 674,20.1 673.1,20.2 672.3,20.5 671.4,20.8 670.7,21.1 669.9,21.6 669.2,22.1 668.5,22.6 667.9,23.3 667.3,23.9 666.8,24.6 666.4,25.4 666,26.2 665.7,27 665.5,27.8 665.4,28.7 665.3,29.6 665.3,30.4 665.4,31.3 665.5,32.2 665.7,33 666,33.8 666.4,34.6 666.8,35.4 667.3,36.1 667.9,36.8 668.5,37.4 669.2,37.9 669.9,38.4 670.7,38.9 671.4,39.2 672.3,39.5 673.1,39.8 674,39.9 674.8,40 674.8,60 674.8,54 674.8,53.1 674.9,52.3 675.1,51.4 675.3,50.6 675.6,49.7 676,48.9 676.4,48.2 676.9,47.5 677.5,46.8 678.1,46.2 678.7,45.6 679.5,45.1 680.2,44.7 681,44.3 681.8,44 682.7,43.8 683.5,43.6 684.4,43.6" />
<path stroke="#000000" stroke-width="2" d="M 715.3,70" />
<path stroke="#000000" stroke-width="2" d="M 715.3,30 735.3,30" />
<path stroke="#000000" stroke-width="2" d="M 735.3,30 736.7,30.1 738,30.6 739.1,31.2 740.1,32.1 740.9,33.1 741.6,34.3 742.1,35.6 742.5,37 742.7,38.5 742.8,40 742.7,41.5 742.5,43 742.1,44.4 741.6,45.7 740.9,46.9 740.1,47.9 739.1,48.8 738,49.4 736.7,49.9 735.3,50" />
<path stroke="#000000" stroke-width="2" d="M 772.8,70" />
<path stroke="#000000" stroke-width="2" d="M 777.8,30" />
<path stroke="#000000" stroke-width="2" d="M 777.8,30 776.3,30.1 775.1,30.6 773.9,31.2 773,32.1 772.1,33.1 771.5,34.3 770.9,35.6 770.6,37 770.3,38.5 770.3,40 770.3,41.5 770.6,43 770.9,44.4 771.5,45.7 772.1,46.9 773,47.9 773.9,48.8 775.1,49.4 776.3,49.9 777.8,50" />
<path stroke="#000000" stroke-width="2" d="M 777.8,40" />
<path stroke="#000000" stroke-width="2" d="M 761.8,40 781.8,40" />
<path stroke="#000000" stroke-width="2" d="M 781.8,40 779.7,39.9 778.1,39.6 776.9,39.1 776,38.6 775.4,37.9 775.2,37.2 775.1,36.4 775.3,35.7 775.6,35 776.1,34.4 776.8,33.9 777.4,33.5 778.2,33.3 778.9,33.4 779.7,33.7 780.3,34.2 780.9,35.1 781.4,36.4 781.7,38 781.8,40 781.8,44" />
<path stroke="#000000" stroke-width="2" d="M 781.8,44 781.5,44.9 781.1,45.7 780.7,46.4 780.3,47.1 779.9,47.8 779.5,48.4 779,48.9 778.5,49.4 778,49.9 777.5,50.2 777,50.6 776.4,50.9 775.9,51.2 775.3,51.4 774.7,51.6 774.2,51.7 773.6,51.9 773,51.9 772.4,52 771.8,52" />
<path stroke="#000000" stroke-width="2" d="M 771.8,52 773.8,51.9 775.4,51.6 776.6,51.1 777.5,50.6 778.1,49.9 778.4,49.2 778.4,48.4 778.2,47.7 777.9,47 777.4,46.4 776.8,45.9 776.1,45.5 775.3,45.3 774.6,45.4 773.9,45.7 773.2,46.2 772.6,47.1 772.2,48.4 771.9,50 771.8,52 771.8,67" />
<path stroke="#000000" stroke-width="2" d="M 811.8,70" />
<path stroke="#000000" stroke-width="2" d="M 811.8,70 812,70 812,70.2 811.8,70.2 811.8,70" />
<path stroke="#000000" stroke-width="2" d="M 842,70" />
<path stroke="#000000" stroke-width="2" d="M 842,30 842,70 862,70" />
<path stroke="#000000" stroke-width="2" d="M 892,70" />
</svg>