<svg xmlns="http://www.w3.org/2000/svg" width="990.850540612456" height="109.17550084807111" style="fill:none; stroke-linecap:round;">
    <rect width="100%" height="100%" fill="#FFFFFF" />
<path stroke="#000000" stroke-width="2" d="M 550,75" />
<path stroke="#000000" stroke-width="2" d="M 30,50 30.9,50 31.7,49.9 32.6,49.8 33.4,49.5 34.3,49.2 35.1,48.9 35.8,48.4 36.5,47.9 37.2,47.4 37.8,46.8 38.4,46.1 38.9,45.4 39.3,44.6 39.7,43.8 40,43 40.2,42.2 40.4,41.3 40.4,40.4 40.4,39.6 40.4,38.7 40.2,37.8 40,37 39.7,36.2 39.3,35.4 38.9,34.6 38.4,33.9 37.8,33.3 37.2,32.6 36.5,32.1 35.8,31.6 35.1,31.1 34.3,30.8 33.4,30.5 32.6,30.2 31.7,30.1 30.9,30 30,30 29.1,30.1 28.3,30.2 27.4,30.5 26.6,30.8 25.8,31.1 25.1,31.6 24.3,32.1 23.7,32.6 23.1,33.3 22.5,33.9 22,34.6 21.6,35.4 21.2,36.2 20.9,37 20.7,37.8 20.5,38.7 20.4,39.6 20.4,40.4 20.5,41.3 20.7,42.2 20.9,43 21.2,43.8 21.6,44.6 22,45.4 22.5,46.1 23.1,46.8 23.7,47.4 24.3,47.9 25.1,48.4 25.8,48.9 26.6,49.2 27.4,49.5 28.3,49.8 29.1,49.9 30,50 30,70 30,64 30,63.1 30.1,62.3 30.2,61.4 30.5,60.6 30.8,59.7 31.1,58.9 31.6,58.2 32.1,57.5 32.6,56.8 33.2,56.2 33.9,55.6 34.6,55.1 35.4,54.7 36.2,54.3 37,54 37.8,53.8 38.7,53.6 39.6,53.6" />
<path stroke="#000000" stroke-width="2" d="M 47.1,70" />
<path stroke="#000000" stroke-width="2" d="M 47.1,50 47.3,50 47.3,50.2 47.1,50.2 47.1,50" />
<path stroke="#000000" stroke-width="2" d="M 77.3,70" />
<path stroke="#000000" stroke-width="2" d="M 77.3,30" />
<path stroke="#000000" stroke-width="2" d="M 77.3,30 77.4,30 77.9,30 78.5,30 79.4,30.1 80.4,30.2 81.6,30.3 82.9,30.4 84.3,30.6 85.8,30.9 87.3,31.2 88.8,31.7 90.3,32.2 91.7,32.7 93,33.4 94.2,34.2 95.2,35.1 96.1,36.1 96.7,37.3 97.1,38.6 97.3,40" />
<path stroke="#000000" stroke-width="2" d="M 97.3,40 99.2,42.1 100.5,44.1 101.3,45.7 101.6,47.2 101.5,48.4 101.1,49.4 100.4,50.2 99.5,50.8 98.4,51.1 97.3,51.2 96.2,51.1 95.1,50.8 94.2,50.2 93.5,49.5 93.1,48.4 93,47.2 93.3,45.7 94.1,44.1 95.4,42.1 97.3,40" />
<path stroke="#000000" stroke-width="2" d="M 97.3,40 97.3,39.9 97.3,39.7 97.4,39.4 97.5,39 97.6,38.4 97.8,37.8 98.2,37.2 98.6,36.5 99.1,35.7 99.8,35 100.6,34.3 101.6,33.5 102.8,32.8 104.2,32.2 105.7,31.6 107.5,31 109.6,30.6 111.9,30.3 114.4,30.1 117.3,30" />
<path stroke="#000000" stroke-width="2" d="M 117.3,30 117.2,32 116.9,33.6 116.4,34.9 115.9,35.8 115.2,36.3 114.5,36.6 113.7,36.7 113,36.5 112.3,36.1 111.7,35.6 111.2,35 110.8,34.3 110.6,33.6 110.7,32.8 111,32.1 111.5,31.4 112.4,30.9 113.6,30.4 115.3,30.1 117.3,30 127.3,30" />
<path stroke="#000000" stroke-width="2" d="M 157.3,70" />
<path stroke="#000000" stroke-width="2" d="M 157.3,50 164.9,31.5 172.6,50 172.6,50.7 172.7,51.4 172.8,52.1 173,52.8 173.2,53.4 173.5,54 173.8,54.6 174.2,55.2 174.7,55.8 175.2,56.2 175.7,56.7 176.3,57.1 176.9,57.4 177.5,57.7 178.2,58 178.9,58.2 179.5,58.3 180.2,58.3 180.9,58.3 181.6,58.3 182.3,58.2 183,58 183.7,57.7 184.3,57.4 184.9,57.1 185.5,56.7 186,56.2 186.5,55.8 186.9,55.2 187.3,54.6 187.7,54 188,53.4 188.2,52.8 188.4,52.1 188.5,51.4 188.6,50.7" />
<path stroke="#000000" stroke-width="2" d="M 218.6,70" />
<path stroke="#000000" stroke-width="2" d="M 228.6,30" />
<path stroke="#000000" stroke-width="2" d="M 228.6,30 225.7,30.3 223.2,31.1 220.9,32.4 219,34.2 217.3,36.2 216,38.6 214.9,41.3 214.2,44.1 213.7,47 213.6,50 213.7,53 214.2,55.9 214.9,58.7 216,61.4 217.3,63.8 219,65.8 220.9,67.6 223.2,68.9 225.7,69.7 228.6,70" />
<path stroke="#000000" stroke-width="2" d="M 228.6,50" />
<path stroke="#000000" stroke-width="2" d="M 196.6,50 236.6,50" />
<path stroke="#000000" stroke-width="2" d="M 266.6,70" />
<path stroke="#000000" stroke-width="2" d="M 282.6,30 262.8,49.8 282.6,69.6" />
<path stroke="#000000" stroke-width="2" d="M 289.3,70" />
<path stroke="#000000" stroke-width="2" d="M 289.3,30 304.6,67" />
<path stroke="#000000" stroke-width="2" d="M 334.6,70" />
<path stroke="#000000" stroke-width="2" d="M 334.6,70 334.8,70 334.8,70.2 334.6,70.2 334.6,70" />
<path stroke="#000000" stroke-width="2" d="M 364.8,70" />
<path stroke="#000000" stroke-width="2" d="M 380.8,30 361,49.8 380.8,69.6" />
<path stroke="#000000" stroke-width="2" d="M 387.4,70" />
<path stroke="#000000" stroke-width="2" d="M 387.4,20 387.6,20 387.6,20.2 387.4,20.2 387.4,20" />
<path stroke="#000000" stroke-width="2" d="M 417.6,70" />
<path stroke="#000000" stroke-width="2" d="M 417.6,30 417.6,70 428.9,58.7" />
<path stroke="#000000" stroke-width="2" d="M 435.6,70" />
<path stroke="#000000" stroke-width="2" d="M 435.6,20 455.6,20 435.8,39.8 455.8,39.8" />
<path stroke="#000000" stroke-width="2" d="M 485.8,70" />
<path stroke="#000000" stroke-width="2" d="M 485.8,30 525.8,30" />
<path stroke="#000000" stroke-width="2" d="M 532.5,70" />
<path stroke="#000000" stroke-width="2" d="M 542.5,50 534.8,68.5" />
<path stroke="#000000" stroke-width="2" d="M 572.5,70" />
<path stroke="#000000" stroke-width="2" d="M 584.5,54" />
<path stroke="#000000" stroke-width="2" d="M 584.5,54 584.3,49.9 583.7,46.7 582.8,44.2 581.6,42.5 580.3,41.3 578.8,40.8 577.3,40.7 575.8,41 574.5,41.7 573.2,42.8 572.2,44 571.5,45.4 571.2,46.8 571.2,48.3 571.8,49.8 573,51.1 574.7,52.3 577.2,53.2 580.4,53.8 584.5,54 592.5,54" />
<path stroke="#000000" stroke-width="2" d="M 592.5,54 594.2,53.4 595.8,52.7 597.3,51.9 598.7,51.2 600,50.3 601.2,49.4 602.3,48.5 603.3,47.5 604.2,46.5 605,45.5 605.7,44.4 606.3,43.3 606.8,42.2 607.3,41.1 607.7,39.9 608,38.8 608.2,37.6 608.4,36.4 608.4,35.2 608.5,34" />
<path stroke="#000000" stroke-width="2" d="M 615.1,70" />
<path stroke="#000000" stroke-width="2" d="M 615.1,20 635.1,20 615.3,39.8 635.3,39.8" />
<path stroke="#000000" stroke-width="2" d="M 635.3,39.8 636.8,39.9 638,40.4 639.2,41 640.1,41.9 641,42.9 641.6,44.1 642.2,45.4 642.5,46.8 642.8,48.3 642.8,49.8 642.8,51.3 642.5,52.8 642.2,54.2 641.6,55.5 641,56.7 640.1,57.7 639.2,58.6 638,59.2 636.8,59.7 635.3,59.8" />
<path stroke="#000000" stroke-width="2" d="M 672.8,70" />
<path stroke="#000000" stroke-width="2" d="M 672.8,70 673,70 673,70.2 672.8,70.2 672.8,70" />
<path stroke="#000000" stroke-width="2" d="M 703,70" />
<path stroke="#000000" stroke-width="2" d="M 703,30 703,70 723,70" />
<path stroke="#000000" stroke-width="2" d="M 753,70" />
<path stroke="#000000" stroke-width="2" d="M 763,30 753,30 753,70" />
<path stroke="#000000" stroke-width="2" d="M 769.7,70" />
<path stroke="#000000" stroke-width="2" d="M 769.7,50 769.7,50.7 769.8,51.4 769.9,52.1 770.1,52.8 770.3,53.4 770.6,54 771,54.6 771.4,55.2 771.8,55.8 772.3,56.2 772.8,56.7 773.4,57.1 774,57.4 774.6,57.7 775.3,58 776,58.2 776.7,58.3 777.4,58.3 778,58.3 778.7,58.3 779.4,58.2 780.1,58 780.8,57.7 781.4,57.4 782,57.1 782.6,56.7 783.1,56.2 783.6,55.8 784,55.2 784.4,54.6 784.8,54 785.1,53.4 785.3,52.8 785.5,52.1 785.6,51.4 785.7,50.7" />
<path stroke="#000000" stroke-width="2" d="M 785.7,50.7 787.1,50.8 788.4,51.3 789.5,51.9 790.5,52.8 791.3,53.8 792,55 792.5,56.3 792.9,57.7 793.1,59.2 793.2,60.7 793.1,62.2 792.9,63.7 792.5,65.1 792,66.4 791.3,67.6 790.5,68.6 789.5,69.5 788.4,70.1 787.1,70.6 785.7,70.7 805.7,70.7 798,89.2" />
<path stroke="#000000" stroke-width="2" d="M 835.7,70" />
<path stroke="#000000" stroke-width="2" d="M 835.7,35" />
<path stroke="#000000" stroke-width="2" d="M 835.7,35 837.7,34.9 839.3,34.6 840.6,34.1 841.5,33.6 842,32.9 842.3,32.2 842.3,31.4 842.2,30.7 841.8,30 841.3,29.4 840.7,28.9 840,28.5 839.3,28.3 838.5,28.4 837.8,28.7 837.1,29.2 836.6,30.1 836.1,31.4 835.8,33 835.7,35 835.7,50 828,68.5" />
<path stroke="#000000" stroke-width="2" d="M 849,70" />
<path stroke="#000000" stroke-width="2" d="M 857,50" />
<path stroke="#000000" stroke-width="2" d="M 857,50 856.9,52 856.6,53.6 856.2,54.9 855.6,55.8 854.9,56.3 854.2,56.6 853.4,56.7 852.7,56.5 852,56.1 851.4,55.6 850.9,55 850.5,54.3 850.4,53.6 850.4,52.8 850.7,52.1 851.3,51.4 852.1,50.9 853.4,50.4 855,50.1 857,50 867,50" />
<path stroke="#000000" stroke-width="2" d="M 897,70" />
<path stroke="#000000" stroke-width="2" d="M 897,30 897,31.4 897.1,32.8 897.4,34.2 897.7,35.5 898.2,36.8 898.8,38.1 899.5,39.3 900.3,40.4 901.2,41.5 902.2,42.5 903.3,43.4 904.4,44.2 905.6,44.9 906.9,45.5 908.2,46 909.5,46.3 910.9,46.6 912.3,46.7 913.7,46.7 915.1,46.6 916.5,46.3 917.8,46 919.1,45.5 920.4,44.9 921.6,44.2 922.7,43.4 923.8,42.5 924.8,41.5 925.7,40.4 926.5,39.3 927.2,38.1 927.8,36.8 928.3,35.5 928.6,34.2 928.9,32.8 929,31.4" />
<path stroke="#000000" stroke-width="2" d="M 935.7,70" />
<path stroke="#000000" stroke-width="2" d="M 935.7,20 940.7,20 940.7,40" />
<path stroke="#000000" stroke-width="2" d="M 940.7,40 938.6,39.9 937,39.6 935.8,39.1 934.9,38.6 934.3,37.9 934,37.2 934,36.4 934.2,35.7 934.5,35 935,34.4 935.6,33.9 936.3,33.5 937.1,33.3 937.8,33.4 938.5,33.7 939.2,34.2 939.8,35.1 940.2,36.4 940.5,38 940.7,40 940.7,44" />
<path stroke="#000000" stroke-width="2" d="M 940.7,44 940.3,44.9 940,45.7 939.6,46.4 939.2,47.1 938.8,47.8 938.4,48.4 937.9,48.9 937.4,49.4 936.9,49.9 936.4,50.2 935.9,50.6 935.3,50.9 934.8,51.2 934.2,51.4 933.6,51.6 933,51.7 932.4,51.9 931.8,51.9 931.3,52 930.7,52" />
<path stroke="#000000" stroke-width="2" d="M 970.7,70" />
<path stroke="#000000" stroke-width="2" d="M 970.7,70 970.9,70 970.9,70.2 970.7,70.2 970.7,70" />
<path stroke="#000000" stroke-width="2" d="M 1000.9,70" />
</svg>