<svg xmlns="http://www.w3.org/2000/svg" width="887.3148850457032" height="92.0509145607538" style="fill:none; stroke-linecap:round;">
    <rect width="100%" height="100%" fill="#FFFFFF" />
<path stroke="#000000" stroke-width="2" d="M 550,75" />
<path stroke="#000000" stroke-width="2" d="M 40,30 24.7,67 29.3,55.9 30,54.3 30.8,52.7 31.7,51.2 32.8,49.9 33.9,48.6 35.2,47.4 36.6,46.3 38.1,45.4 39.6,44.6 41.2,43.9 42.9,43.4 44.6,43" />
<path stroke="#000000" stroke-width="2" d="M 51.3,70" />
<path stroke="#000000" stroke-width="2" d="M 51.3,30" />
<path stroke="#000000" stroke-width="2" d="M 51.3,30 54.1,30.3 56.7,31.1 58.9,32.4 60.9,34.2 62.5,36.2 63.9,38.6 64.9,41.3 65.7,44.1 66.1,47 66.3,50 66.1,53 65.7,55.9 64.9,58.7 63.9,61.4 62.5,63.8 60.9,65.8 58.9,67.6 56.7,68.9 54.1,69.7 51.3,70" />
<path stroke="#000000" stroke-width="2" d="M 96.3,70" />
<path stroke="#000000" stroke-width="2" d="M 116.3,30 101,67" />
<path stroke="#000000" stroke-width="2" d="M 122.9,70" />
<path stroke="#000000" stroke-width="2" d="M 122.9,50 123.1,50 123.1,50.2 122.9,50.2 122.9,50" />
<path stroke="#000000" stroke-width="2" d="M 153.1,70" />
<path stroke="#000000" stroke-width="2" d="M 153.1,30 153.1,70" />
<path stroke="#000000" stroke-width="2" d="M 159.8,70" />
<path stroke="#000000" stroke-width="2" d="M 159.8,20 160,20 160,20.2 159.8,20.2 159.8,20" />
<path stroke="#000000" stroke-width="2" d="M 190,70" />
<path stroke="#000000" stroke-width="2" d="M 202,54" />
<path stroke="#000000" stroke-width="2" d="M 202,54 201.8,49.9 201.2,46.7 200.3,44.2 199.1,42.5 197.8,41.3 196.3,40.8 194.8,40.7 193.4,41 192,41.7 190.8,42.8 189.8,44 189,45.4 188.7,46.8 188.8,48.3 189.3,49.8 190.5,51.1 192.3,52.3 194.7,53.2 197.9,53.8 202,54 210,54" />
<path stroke="#000000" stroke-width="2" d="M 210,54 211.7,53.4 213.4,52.7 214.9,51.9 216.3,51.2 217.6,50.3 218.8,49.4 219.8,48.5 220.8,47.5 221.7,46.5 222.5,45.5 223.2,44.4 223.8,43.3 224.4,42.2 224.8,41.1 225.2,39.9 225.5,38.8 225.7,37.6 225.9,36.4 226,35.2 226,34" />
<path stroke="#000000" stroke-width="2" d="M 232.7,70" />
<path stroke="#000000" stroke-width="2" d="M 232.7,25" />
<path stroke="#000000" stroke-width="2" d="M 232.7,25 234.7,24.9 236.3,24.6 237.5,24.1 238.4,23.6 239,22.9 239.3,22.2 239.3,21.4 239.2,20.7 238.8,20 238.3,19.4 237.7,18.9 237,18.5 236.3,18.3 235.5,18.4 234.8,18.7 234.1,19.2 233.5,20.1 233.1,21.4 232.8,23 232.7,25 232.7,40" />
<path stroke="#000000" stroke-width="2" d="M 246,70" />
<path stroke="#000000" stroke-width="2" d="M 246,20 266,20 258.3,38.5" />
<path stroke="#000000" stroke-width="2" d="M 296,70" />
<path stroke="#000000" stroke-width="2" d="M 296,30 316,30" />
<path stroke="#000000" stroke-width="2" d="M 316,30 317.4,30.1 318.7,30.6 319.8,31.2 320.8,32.1 321.6,33.1 322.3,34.3 322.8,35.6 323.2,37 323.4,38.5 323.5,40 323.4,41.5 323.2,43 322.8,44.4 322.3,45.7 321.6,46.9 320.8,47.9 319.8,48.8 318.7,49.4 317.4,49.9 316,50" />
<path stroke="#000000" stroke-width="2" d="M 353.5,70" />
<path stroke="#000000" stroke-width="2" d="M 353.5,70 368.8,33 368.8,31.6 368.9,30.3 369.2,28.9 369.5,27.5 370,26.2 370.6,25 371.3,23.8 372.1,22.6 373,21.5 374,20.6 375,19.7 376.2,18.9 377.4,18.2 378.7,17.6 380,17.1 381.3,16.7 382.7,16.5 384.1,16.4 385.5,16.4 386.9,16.5 388.2,16.7 389.6,17.1 390.9,17.6 392.2,18.2 393.4,18.9 394.5,19.7 395.6,20.6 396.6,21.5 397.5,22.6 398.3,23.8 399,25 399.6,26.2 400,27.5 400.4,28.9 400.6,30.3 400.8,31.6" />
<path stroke="#000000" stroke-width="2" d="M 407.4,70" />
<path stroke="#000000" stroke-width="2" d="M 407.4,50 415.1,68.5" />
<path stroke="#000000" stroke-width="2" d="M 421.8,70" />
<path stroke="#000000" stroke-width="2" d="M 421.8,50" />
<path stroke="#000000" stroke-width="2" d="M 421.8,50 423.2,50.1 424.5,50.6 425.6,51.2 426.6,52.1 427.4,53.1 428.1,54.3 428.6,55.6 429,57 429.2,58.5 429.3,60 429.2,61.5 429,63 428.6,64.4 428.1,65.7 427.4,66.9 426.6,67.9 425.6,68.8 424.5,69.4 423.2,69.9 421.8,70" />
<path stroke="#000000" stroke-width="2" d="M 435.9,70" />
<path stroke="#000000" stroke-width="2" d="M 445.9,20 438.3,38.5" />
<path stroke="#000000" stroke-width="2" d="M 475.9,70" />
<path stroke="#000000" stroke-width="2" d="M 491.9,30 472.1,49.8 491.9,69.6" />
<path stroke="#000000" stroke-width="2" d="M 498.6,70" />
<path stroke="#000000" stroke-width="2" d="M 498.6,30 513.9,67" />
<path stroke="#000000" stroke-width="2" d="M 543.9,70" />
<path stroke="#000000" stroke-width="2" d="M 543.9,30 543.9,70" />
<path stroke="#000000" stroke-width="2" d="M 550.6,70" />
<path stroke="#000000" stroke-width="2" d="M 560.6,50 552.9,68.5" />
<path stroke="#000000" stroke-width="2" d="M 590.6,70" />
<path stroke="#000000" stroke-width="2" d="M 590.6,30 605.9,67" />
<path stroke="#000000" stroke-width="2" d="M 612.5,70" />
<path stroke="#000000" stroke-width="2" d="M 612.5,30 612.7,30 612.7,30.2 612.5,30.2 612.5,30" />
<path stroke="#000000" stroke-width="2" d="M 642.7,70" />
<path stroke="#000000" stroke-width="2" d="M 658.7,30 638.9,49.8 658.7,69.6" />
<path stroke="#000000" stroke-width="2" d="M 665.4,70" />
<path stroke="#000000" stroke-width="2" d="M 665.4,20" />
<path stroke="#000000" stroke-width="2" d="M 665.4,20 666.8,20.1 668.1,20.6 669.2,21.2 670.2,22.1 671,23.1 671.7,24.3 672.2,25.6 672.6,27 672.8,28.5 672.9,30 672.8,31.5 672.6,33 672.2,34.4 671.7,35.7 671,36.9 670.2,37.9 669.2,38.8 668.1,39.4 666.8,39.9 665.4,40" />
<path stroke="#000000" stroke-width="2" d="M 702.9,70" />
<path stroke="#000000" stroke-width="2" d="M 702.9,30 702.9,70" />
<path stroke="#000000" stroke-width="2" d="M 709.6,70" />
<path stroke="#000000" stroke-width="2" d="M 709.6,20 709.6,24 709.6,24.5 709.6,25 709.7,25.6 709.8,26.1 710,26.6 710.2,27 710.5,27.5 710.8,27.9 711.1,28.3 711.5,28.7 711.9,29 712.3,29.3 712.8,29.6 713.3,29.8 713.8,30 714.3,30.1 714.8,30.2 715.3,30.3 715.8,30.3 716.3,30.2 716.9,30.1 717.4,30 717.9,29.8 718.3,29.6 718.8,29.3 719.2,29 719.6,28.7 720,28.3 720.3,27.9 720.6,27.5 720.9,27 721.1,26.6 721.3,26.1 721.4,25.6 721.5,25 721.6,24.5 721.6,19.5 721.6,39.5" />
<path stroke="#000000" stroke-width="2" d="M 728.2,70" />
<path stroke="#000000" stroke-width="2" d="M 728.2,20 748.2,20" />
<path stroke="#000000" stroke-width="2" d="M 778.2,70" />
<path stroke="#000000" stroke-width="2" d="M 798.2,30 782.9,67" />
<path stroke="#000000" stroke-width="2" d="M 804.9,70" />
<path stroke="#000000" stroke-width="2" d="M 804.9,50 805.1,50 805.1,50.2 804.9,50.2 804.9,50" />
<path stroke="#000000" stroke-width="2" d="M 835.1,70" />
<path stroke="#000000" stroke-width="2" d="M 851.1,30 831.3,49.8 851.1,69.6" />
<path stroke="#000000" stroke-width="2" d="M 857.8,70" />
<path stroke="#000000" stroke-width="2" d="M 857.8,50 857.8,70 857.8,64 857.8,63.1 857.8,62.3 858,61.4 858.2,60.6 858.5,59.7 858.9,58.9 859.3,58.2 859.8,57.5 860.4,56.8 861,56.2 861.7,55.6 862.4,55.1 863.1,54.7 863.9,54.3 864.7,54 865.6,53.8 866.4,53.6 867.3,53.6 859.7,72.1" />
<path stroke="#000000" stroke-width="2" d="M 897.3,70" />
</svg>