<svg xmlns="http://www.w3.org/2000/svg" width="878.1473897938533" height="108.47759065022574" style="fill:none; stroke-linecap:round;">
    <rect width="100%" height="100%" fill="#FFFFFF" />
<path stroke="#000000" stroke-width="2" d="M 550,75" />
<path stroke="#000000" stroke-width="2" d="M 20,30 25,30 25,50 25,70 25,64 25,63.1 25.1,62.3 25.2,61.4 25.5,60.6 25.8,59.7 26.1,58.9 26.6,58.2 27.1,57.5 27.6,56.8 28.2,56.2 28.9,55.6 29.6,55.1 30.4,54.7 31.2,54.3 32,54 32.8,53.8 33.7,53.6 34.6,53.6" />
<path stroke="#000000" stroke-width="2" d="M 41.2,70" />
<path stroke="#000000" stroke-width="2" d="M 41.2,50 48.9,68.5" />
<path stroke="#000000" stroke-width="2" d="M 78.9,70" />
<path stroke="#000000" stroke-width="2" d="M 94.9,30 75.1,49.8 94.9,69.6" />
<path stroke="#000000" stroke-width="2" d="M 101.5,70" />
<path stroke="#000000" stroke-width="2" d="M 101.5,40" />
<path stroke="#000000" stroke-width="2" d="M 101.5,40 105.6,39.8 108.8,39.2 111.3,38.3 113.1,37.1 114.2,35.8 114.8,34.3 114.9,32.8 114.5,31.4 113.8,30 112.8,28.8 111.6,27.7 110.2,27 108.7,26.7 107.2,26.8 105.8,27.3 104.4,28.5 103.3,30.2 102.4,32.7 101.8,35.9 101.5,40 101.5,70" />
<path stroke="#000000" stroke-width="2" d="M 144.9,70" />
<path stroke="#000000" stroke-width="2" d="M 144.9,30 144.9,70" />
<path stroke="#000000" stroke-width="2" d="M 151.5,70" />
<path stroke="#000000" stroke-width="2" d="M 151.5,20 171.5,20" />
<path stroke="#000000" stroke-width="2" d="M 178.2,70" />
<path stroke="#000000" stroke-width="2" d="M 178.2,20 178.2,20.7 178.2,21.4 178.4,22.1 178.5,22.8 178.8,23.4 179.1,24 179.4,24.6 179.8,25.2 180.3,25.8 180.8,26.2 181.3,26.7 181.9,27.1 182.5,27.4 183.1,27.7 183.8,28 184.4,28.2 185.1,28.3 185.8,28.3 186.5,28.3 187.2,28.3 187.9,28.2 188.6,28 189.2,27.7 189.9,27.4 190.5,27.1 191,26.7 191.6,26.2 192.1,25.8 192.5,25.2 192.9,24.6 193.3,24 193.6,23.4 193.8,22.8 194,22.1 194.1,21.4 194.2,20.7" />
<path stroke="#000000" stroke-width="2" d="M 200.8,70" />
<path stroke="#000000" stroke-width="2" d="M 210.8,30 203.2,48.5" />
<path stroke="#000000" stroke-width="2" d="M 217.5,70" />
<path stroke="#000000" stroke-width="2" d="M 217.5,30 217.9,30 217.9,30.4 217.5,30.4 217.5,30" />
<path stroke="#000000" stroke-width="2" d="M 247.9,70" />
<path stroke="#000000" stroke-width="2" d="M 247.9,70 248.1,70 248.1,70.2 247.9,70.2 247.9,70" />
<path stroke="#000000" stroke-width="2" d="M 278.1,70" />
<path stroke="#000000" stroke-width="2" d="M 278.1,30 278.1,50 288.1,50" />
<path stroke="#000000" stroke-width="2" d="M 318.1,70" />
<path stroke="#000000" stroke-width="2" d="M 318.1,50 325.8,31.5 333.4,50 333.4,50.7 333.5,51.4 333.6,52.1 333.8,52.8 334,53.4 334.3,54 334.7,54.6 335.1,55.2 335.5,55.8 336,56.2 336.5,56.7 337.1,57.1 337.7,57.4 338.3,57.7 339,58 339.7,58.2 340.4,58.3 341.1,58.3 341.8,58.3 342.4,58.3 343.1,58.2 343.8,58 344.5,57.7 345.1,57.4 345.7,57.1 346.3,56.7 346.8,56.2 347.3,55.8 347.7,55.2 348.1,54.6 348.5,54 348.8,53.4 349,52.8 349.2,52.1 349.3,51.4 349.4,50.7 357,69.2" />
<path stroke="#000000" stroke-width="2" d="M 363.7,70" />
<path stroke="#000000" stroke-width="2" d="M 363.7,55" />
<path stroke="#000000" stroke-width="2" d="M 363.7,55 365.7,54.9 367.4,54.6 368.6,54.1 369.5,53.6 370,52.9 370.3,52.2 370.4,51.4 370.2,50.7 369.8,50 369.3,49.4 368.7,48.9 368,48.5 367.3,48.3 366.5,48.4 365.8,48.7 365.2,49.2 364.6,50.1 364.1,51.4 363.8,53 363.7,55 363.7,70 356.1,88.5" />
<path stroke="#000000" stroke-width="2" d="M 400.4,70" />
<path stroke="#000000" stroke-width="2" d="M 400.4,30 402.1,30 403.9,30.2 405.6,30.5 407.3,30.9 408.9,31.5 410.5,32.2 412,33.1 413.4,34.1 414.8,35.2 416,36.5 417.1,37.8 418.1,39.2 419,40.7 419.7,42.3 420.3,44 420.8,45.7 421.1,47.4 421.2,49.1 421.2,50.9 421.1,52.6 420.8,54.3 420.3,56 419.7,57.6 419,59.2 418.1,60.7 417.1,62.2 416,63.5 414.8,64.7 413.4,65.8 412,66.8 410.5,67.7 408.9,68.5 407.3,69.1 405.6,69.5 403.9,69.8 402.1,70" />
<path stroke="#000000" stroke-width="2" d="M 427.9,70" />
<path stroke="#000000" stroke-width="2" d="M 427.9,30 428.8,30 429.6,30.1 430.5,30.2 431.3,30.5 432.2,30.8 432.9,31.1 433.7,31.6 434.4,32.1 435.1,32.6 435.7,33.2 436.3,33.9 436.8,34.6 437.2,35.4 437.6,36.2 437.9,37 438.1,37.8 438.2,38.7 438.3,39.6 438.3,40.4 438.2,41.3 438.1,42.2 437.9,43 437.6,43.8 437.2,44.6 436.8,45.4 436.3,46.1 435.7,46.7 435.1,47.4 434.4,47.9 433.7,48.4 432.9,48.9 432.2,49.2 431.3,49.5 430.5,49.8 429.6,49.9 428.8,50 448.8,50 441.1,68.5" />
<path stroke="#000000" stroke-width="2" d="M 478.8,70" />
<path stroke="#000000" stroke-width="2" d="M 478.8,30 518.8,30" />
<path stroke="#000000" stroke-width="2" d="M 525.4,70" />
<path stroke="#000000" stroke-width="2" d="M 535.4,50 527.8,68.5" />
<path stroke="#000000" stroke-width="2" d="M 542.1,70" />
<path stroke="#000000" stroke-width="2" d="M 547.1,30 542.1,30 542.1,50" />
<path stroke="#000000" stroke-width="2" d="M 553.8,70" />
<path stroke="#000000" stroke-width="2" d="M 553.8,20 554,20 554,20.2 553.8,20.2 553.8,20" />
<path stroke="#000000" stroke-width="2" d="M 584,70" />
<path stroke="#000000" stroke-width="2" d="M 584,30 584,50 594,50 586.3,68.5" />
<path stroke="#000000" stroke-width="2" d="M 624,70" />
<path stroke="#000000" stroke-width="2" d="M 640,30 620.2,49.8 640,69.6" />
<path stroke="#000000" stroke-width="2" d="M 646.6,70" />
<path stroke="#000000" stroke-width="2" d="M 646.6,20 647.5,20 648.4,20.1 649.2,20.2 650.1,20.5 650.9,20.8 651.7,21.1 652.4,21.6 653.2,22.1 653.8,22.6 654.4,23.2 655,23.9 655.5,24.6 655.9,25.4 656.3,26.2 656.6,27 656.8,27.8 657,28.7 657.1,29.6 657.1,30.4 657,31.3 656.8,32.2 656.6,33 656.3,33.8 655.9,34.6 655.5,35.4 655,36.1 654.4,36.7 653.8,37.4 653.2,37.9 652.4,38.4 651.7,38.9 650.9,39.2 650.1,39.5 649.2,39.8 648.4,39.9 647.5,40" />
<path stroke="#000000" stroke-width="2" d="M 687.1,70" />
<path stroke="#000000" stroke-width="2" d="M 703.1,30 683.3,49.8 703.1,69.6" />
<path stroke="#000000" stroke-width="2" d="M 709.7,70" />
<path stroke="#000000" stroke-width="2" d="M 717.7,20" />
<path stroke="#000000" stroke-width="2" d="M 717.7,20 717.6,22 717.3,23.6 716.9,24.9 716.3,25.8 715.6,26.3 714.9,26.6 714.1,26.7 713.4,26.5 712.7,26.1 712.1,25.6 711.6,25 711.2,24.3 711.1,23.6 711.1,22.8 711.4,22.1 712,21.4 712.8,20.9 714.1,20.4 715.7,20.1 717.7,20 727.7,20" />
<path stroke="#000000" stroke-width="2" d="M 734.4,70" />
<path stroke="#000000" stroke-width="2" d="M 734.4,20 754.4,20" />
<path stroke="#000000" stroke-width="2" d="M 761.1,70" />
<path stroke="#000000" stroke-width="2" d="M 761.1,20 761.9,20 762.8,20.1 763.7,20.2 764.5,20.5 765.3,20.8 766.1,21.1 766.9,21.6 767.6,22.1 768.2,22.6 768.9,23.2 769.4,23.9 769.9,24.6 770.4,25.4 770.7,26.2 771,27 771.3,27.8 771.4,28.7 771.5,29.6 771.5,30.4 771.4,31.3 771.3,32.2 771,33 770.7,33.8 770.4,34.6 769.9,35.4 769.4,36.1 768.9,36.7 768.2,37.4 767.6,37.9 766.9,38.4 766.1,38.9 765.3,39.2 764.5,39.5 763.7,39.8 762.8,39.9 761.9,40" />
<path stroke="#000000" stroke-width="2" d="M 801.5,70" />
<path stroke="#000000" stroke-width="2" d="M 801.5,30 801.5,70" />
<path stroke="#000000" stroke-width="2" d="M 808.1,70" />
<path stroke="#000000" stroke-width="2" d="M 818.1,50 810.5,68.5" />
<path stroke="#000000" stroke-width="2" d="M 848.1,70" />
<path stroke="#000000" stroke-width="2" d="M 848.1,30 848.1,50 858.1,50" />
<path stroke="#000000" stroke-width="2" d="M 888.1,70" />
</svg>