<svg xmlns="http://www.w3.org/2000/svg" width="898.1473897938533" height="108.47759065022574" style="fill:none; stroke-linecap:round;">
    <rect width="100%" height="100%" fill="#FFFFFF" />
<path stroke="#000000" stroke-width="2" d="M 550,75" />
<path stroke="#000000" stroke-width="2" d="M 20,30 25,30 25,50 25,70 25,64 25,63.1 25.1,62.3 25.2,61.4 25.5,60.6 25.8,59.7 26.1,58.9 26.6,58.2 27.1,57.5 27.6,56.8 28.2,56.2 28.9,55.6 29.6,55.1 30.4,54.7 31.2,54.3 32,54 32.8,53.8 33.7,53.6 34.6,53.6" />
<path stroke="#000000" stroke-width="2" d="M 41.2,70" />
<path stroke="#000000" stroke-width="2" d="M 41.2,50 48.9,68.5" />
<path stroke="#000000" stroke-width="2" d="M 78.9,70" />
<path stroke="#000000" stroke-width="2" d="M 94.9,30 75.1,49.8 94.9,69.6" />
<path stroke="#000000" stroke-width="2" d="M 101.5,70" />
<path stroke="#000000" stroke-width="2" d="M 101.5,40" />
<path stroke="#000000" stroke-width="2" d="M 101.5,40 105.6,39.8 108.8,39.2 111.3,38.3 113.1,37.1 114.2,35.8 114.8,34.3 114.9,32.8 114.5,31.4 113.8,30 112.8,28.8 111.6,27.7 110.2,27 108.7,26.7 107.2,26.8 105.8,27.3 104.4,28.5 103.3,30.2 102.4,32.7 101.8,35.9 101.5,40 101.5,70" />
<path stroke="#000000" stroke-width="2" d="M 144.9,70" />
<path stroke="#000000" stroke-width="2" d="M 144.9,30 144.9,70" />
<path stroke="#000000" stroke-width="2" d="M 151.5,70" />
<path stroke="#000000" stroke-width="2" d="M 151.5,20 171.5,20" />
<path stroke="#000000" stroke-width="2" d="M 178.2,70" />
<path stroke="#000000" stroke-width="2" d="M 178.2,20 178.2,20.7 178.2,21.4 178.4,22.1 178.5,22.8 178.8,23.4 179.1,24 179.4,24.6 179.8,25.2 180.3,25.8 180.8,26.2 181.3,26.7 181.9,27.1 182.5,27.4 183.1,27.7 183.8,28 184.4,28.2 185.1,28.3 185.8,28.3 186.5,28.3 187.2,28.3 187.9,28.2 188.6,28 189.2,27.7 189.9,27.4 190.5,27.1 191,26.7 191.6,26.2 192.1,25.8 192.5,25.2 192.9,24.6 193.3,24 193.6,23.4 193.8,22.8 194,22.1 194.1,21.4 194.2,20.7" />
<path stroke="#000000" stroke-width="2" d="M 200.8,70" />
<path stroke="#000000" stroke-width="2" d="M 210.8,30 203.2,48.5" />
<path stroke="#000000" stroke-width="2" d="M 217.5,70" />
<path stroke="#000000" stroke-width="2" d="M 217.5,30 217.9,30 217.9,30.4 217.5,30.4 217.5,30" />
<path stroke="#000000" stroke-width="2" d="M 247.9,70" />
<path stroke="#000000" stroke-width="2" d="M 247.9,70 248.1,70 248.1,70.2 247.9,70.2 247.9,70" />
<path stroke="#000000" stroke-width="2" d="M 278.1,70" />
<path stroke="#000000" stroke-width="2" d="M 278.1,30 278.1,70 298.1,70" />
<path stroke="#000000" stroke-width="2" d="M 328.1,70" />
<path stroke="#000000" stroke-width="2" d="M 328.1,50 335.8,31.5 343.4,50 343.4,50.7 343.5,51.4 343.6,52.1 343.8,52.8 344,53.4 344.3,54 344.7,54.6 345.1,55.2 345.5,55.8 346,56.2 346.5,56.7 347.1,57.1 347.7,57.4 348.3,57.7 349,58 349.7,58.2 350.4,58.3 351.1,58.3 351.8,58.3 352.4,58.3 353.1,58.2 353.8,58 354.5,57.7 355.1,57.4 355.7,57.1 356.3,56.7 356.8,56.2 357.3,55.8 357.7,55.2 358.1,54.6 358.5,54 358.8,53.4 359,52.8 359.2,52.1 359.3,51.4 359.4,50.7 367,69.2" />
<path stroke="#000000" stroke-width="2" d="M 373.7,70" />
<path stroke="#000000" stroke-width="2" d="M 373.7,55" />
<path stroke="#000000" stroke-width="2" d="M 373.7,55 375.7,54.9 377.4,54.6 378.6,54.1 379.5,53.6 380,52.9 380.3,52.2 380.4,51.4 380.2,50.7 379.8,50 379.3,49.4 378.7,48.9 378,48.5 377.3,48.3 376.5,48.4 375.8,48.7 375.2,49.2 374.6,50.1 374.1,51.4 373.8,53 373.7,55 373.7,70 366.1,88.5" />
<path stroke="#000000" stroke-width="2" d="M 410.4,70" />
<path stroke="#000000" stroke-width="2" d="M 410.4,30 412.1,30 413.9,30.2 415.6,30.5 417.3,30.9 418.9,31.5 420.5,32.2 422,33.1 423.4,34.1 424.8,35.2 426,36.5 427.1,37.8 428.1,39.2 429,40.7 429.7,42.3 430.3,44 430.8,45.7 431.1,47.4 431.2,49.1 431.2,50.9 431.1,52.6 430.8,54.3 430.3,56 429.7,57.6 429,59.2 428.1,60.7 427.1,62.2 426,63.5 424.8,64.7 423.4,65.8 422,66.8 420.5,67.7 418.9,68.5 417.3,69.1 415.6,69.5 413.9,69.8 412.1,70" />
<path stroke="#000000" stroke-width="2" d="M 437.9,70" />
<path stroke="#000000" stroke-width="2" d="M 437.9,30 438.8,30 439.6,30.1 440.5,30.2 441.3,30.5 442.2,30.8 442.9,31.1 443.7,31.6 444.4,32.1 445.1,32.6 445.7,33.2 446.3,33.9 446.8,34.6 447.2,35.4 447.6,36.2 447.9,37 448.1,37.8 448.2,38.7 448.3,39.6 448.3,40.4 448.2,41.3 448.1,42.2 447.9,43 447.6,43.8 447.2,44.6 446.8,45.4 446.3,46.1 445.7,46.7 445.1,47.4 444.4,47.9 443.7,48.4 442.9,48.9 442.2,49.2 441.3,49.5 440.5,49.8 439.6,49.9 438.8,50 458.8,50 451.1,68.5" />
<path stroke="#000000" stroke-width="2" d="M 488.8,70" />
<path stroke="#000000" stroke-width="2" d="M 488.8,30 528.8,30" />
<path stroke="#000000" stroke-width="2" d="M 535.4,70" />
<path stroke="#000000" stroke-width="2" d="M 545.4,50 537.8,68.5" />
<path stroke="#000000" stroke-width="2" d="M 552.1,70" />
<path stroke="#000000" stroke-width="2" d="M 557.1,30 552.1,30 552.1,50" />
<path stroke="#000000" stroke-width="2" d="M 563.8,70" />
<path stroke="#000000" stroke-width="2" d="M 563.8,20 564,20 564,20.2 563.8,20.2 563.8,20" />
<path stroke="#000000" stroke-width="2" d="M 594,70" />
<path stroke="#000000" stroke-width="2" d="M 594,30 594,50 604,50 596.3,68.5" />
<path stroke="#000000" stroke-width="2" d="M 634,70" />
<path stroke="#000000" stroke-width="2" d="M 650,30 630.2,49.8 650,69.6" />
<path stroke="#000000" stroke-width="2" d="M 656.6,70" />
<path stroke="#000000" stroke-width="2" d="M 656.6,20 657.5,20 658.4,20.1 659.2,20.2 660.1,20.5 660.9,20.8 661.7,21.1 662.4,21.6 663.2,22.1 663.8,22.6 664.4,23.2 665,23.9 665.5,24.6 665.9,25.4 666.3,26.2 666.6,27 666.8,27.8 667,28.7 667.1,29.6 667.1,30.4 667,31.3 666.8,32.2 666.6,33 666.3,33.8 665.9,34.6 665.5,35.4 665,36.1 664.4,36.7 663.8,37.4 663.2,37.9 662.4,38.4 661.7,38.9 660.9,39.2 660.1,39.5 659.2,39.8 658.4,39.9 657.5,40" />
<path stroke="#000000" stroke-width="2" d="M 697.1,70" />
<path stroke="#000000" stroke-width="2" d="M 713.1,30 693.3,49.8 713.1,69.6" />
<path stroke="#000000" stroke-width="2" d="M 719.7,70" />
<path stroke="#000000" stroke-width="2" d="M 727.7,20" />
<path stroke="#000000" stroke-width="2" d="M 727.7,20 727.6,22 727.3,23.6 726.9,24.9 726.3,25.8 725.6,26.3 724.9,26.6 724.1,26.7 723.4,26.5 722.7,26.1 722.1,25.6 721.6,25 721.2,24.3 721.1,23.6 721.1,22.8 721.4,22.1 722,21.4 722.8,20.9 724.1,20.4 725.7,20.1 727.7,20 737.7,20" />
<path stroke="#000000" stroke-width="2" d="M 744.4,70" />
<path stroke="#000000" stroke-width="2" d="M 744.4,20 764.4,20" />
<path stroke="#000000" stroke-width="2" d="M 771.1,70" />
<path stroke="#000000" stroke-width="2" d="M 771.1,20 771.9,20 772.8,20.1 773.7,20.2 774.5,20.5 775.3,20.8 776.1,21.1 776.9,21.6 777.6,22.1 778.2,22.6 778.9,23.2 779.4,23.9 779.9,24.6 780.4,25.4 780.7,26.2 781,27 781.3,27.8 781.4,28.7 781.5,29.6 781.5,30.4 781.4,31.3 781.3,32.2 781,33 780.7,33.8 780.4,34.6 779.9,35.4 779.4,36.1 778.9,36.7 778.2,37.4 777.6,37.9 776.9,38.4 776.1,38.9 775.3,39.2 774.5,39.5 773.7,39.8 772.8,39.9 771.9,40" />
<path stroke="#000000" stroke-width="2" d="M 811.5,70" />
<path stroke="#000000" stroke-width="2" d="M 811.5,30 811.5,70" />
<path stroke="#000000" stroke-width="2" d="M 818.1,70" />
<path stroke="#000000" stroke-width="2" d="M 828.1,50 820.5,68.5" />
<path stroke="#000000" stroke-width="2" d="M 858.1,70" />
<path stroke="#000000" stroke-width="2" d="M 858.1,30 858.1,70 878.1,70" />
<path stroke="#000000" stroke-width="2" d="M 908.1,70" />
</svg>