<svg xmlns="http://www.w3.org/2000/svg" width="889.4207265663085" height="102.0" style="fill:none; stroke-linecap:round;">
    <rect width="100%" height="100%" fill="#FFFFFF" />
<path stroke="#000000" stroke-width="2" d="M 550,75" />
<path stroke="#000000" stroke-width="2" d="M 20,35" />
<path stroke="#000000" stroke-width="2" d="M 20,35 22,34.9 23.6,34.6 24.9,34.1 25.8,33.6 26.3,32.9 26.6,32.2 26.7,31.4 26.5,30.7 26.1,30 25.6,29.4 25,28.9 24.3,28.5 23.6,28.3 22.8,28.4 22.1,28.7 21.4,29.2 20.9,30.1 20.4,31.4 20.1,33 20,35 20,50 27.7,68.5" />
<path stroke="#000000" stroke-width="2" d="M 34.3,70" />
<path stroke="#000000" stroke-width="2" d="M 34.3,20 34.3,20.7 34.4,21.4 34.5,22.1 34.7,22.8 34.9,23.4 35.2,24 35.6,24.6 36,25.2 36.4,25.8 36.9,26.2 37.4,26.7 38,27.1 38.6,27.4 39.3,27.7 39.9,28 40.6,28.2 41.3,28.3 42,28.3 42.7,28.3 43.4,28.3 44,28.2 44.7,28 45.4,27.7 46,27.4 46.6,27.1 47.2,26.7 47.7,26.2 48.2,25.8 48.7,25.2 49.1,24.6 49.4,24 49.7,23.4 49.9,22.8 50.1,22.1 50.2,21.4 50.3,20.7" />
<path stroke="#000000" stroke-width="2" d="M 80.3,70" />
<path stroke="#000000" stroke-width="2" d="M 100.3,30 85,67" />
<path stroke="#000000" stroke-width="2" d="M 107,70" />
<path stroke="#000000" stroke-width="2" d="M 107,20 107,20.7 107,21.4 107.2,22.1 107.3,22.8 107.6,23.4 107.9,24 108.2,24.6 108.6,25.2 109.1,25.8 109.6,26.2 110.1,26.7 110.7,27.1 111.3,27.4 111.9,27.7 112.6,28 113.2,28.2 113.9,28.3 114.6,28.3 115.3,28.3 116,28.3 116.7,28.2 117.4,28 118,27.7 118.7,27.4 119.3,27.1 119.8,26.7 120.4,26.2 120.9,25.8 121.3,25.2 121.7,24.6 122.1,24 122.4,23.4 122.6,22.8 122.8,22.1 122.9,21.4 123,20.7 123,20 123,19.3 123.1,18.6 123.3,17.9 123.6,17.3 123.9,16.7 124.2,16.1 124.6,15.5 125.1,14.9 125.5,14.5 126.1,14 126.7,13.6 127.3,13.3 127.9,13 128.5,12.7 129.2,12.5 129.9,12.4 130.6,12.4 131.3,12.4 132,12.4 132.7,12.5 133.4,12.7 134,13 134.6,13.3 135.2,13.6 135.8,14 136.4,14.5 136.8,14.9 137.3,15.5 137.7,16.1 138,16.7 138.3,17.3 138.6,17.9 138.8,18.6 138.9,19.3 138.9,20" />
<path stroke="#000000" stroke-width="2" d="M 168.9,70" />
<path stroke="#000000" stroke-width="2" d="M 168.9,70" />
<path stroke="#000000" stroke-width="2" d="M 168.9,70 170.1,70 171,70.2 171.9,70.4 172.6,70.7 173.2,71 173.6,71.5 173.9,71.9 174.1,72.5 174.2,73.1 174.2,73.8 174.1,74.4 173.8,75.2 173.5,76 173.1,76.8 172.6,77.6 172,78.4 171.4,79.3 170.6,80.2 169.8,81.1 168.9,82" />
<path stroke="#000000" stroke-width="2" d="M 204.2,70" />
<path stroke="#000000" stroke-width="2" d="M 220.2,30 200.4,49.8 220.2,69.6" />
<path stroke="#000000" stroke-width="2" d="M 226.9,70" />
<path stroke="#000000" stroke-width="2" d="M 226.9,20 227.3,20 227.3,20.4 226.9,20.4 226.9,20" />
<path stroke="#000000" stroke-width="2" d="M 257.3,70" />
<path stroke="#000000" stroke-width="2" d="M 257.3,30 257.3,70 268.6,58.7" />
<path stroke="#000000" stroke-width="2" d="M 275.3,70" />
<path stroke="#000000" stroke-width="2" d="M 275.3,25" />
<path stroke="#000000" stroke-width="2" d="M 275.3,25 277.3,24.9 278.9,24.6 280.1,24.1 281,23.6 281.6,22.9 281.9,22.2 281.9,21.4 281.7,20.7 281.4,20 280.9,19.4 280.3,18.9 279.6,18.5 278.8,18.3 278.1,18.4 277.4,18.7 276.7,19.2 276.1,20.1 275.7,21.4 275.4,23 275.3,25 275.3,40" />
<path stroke="#000000" stroke-width="2" d="M 311.9,70" />
<path stroke="#000000" stroke-width="2" d="M 311.9,40 312.1,40 312.1,40.2 311.9,40.2 311.9,40" />
<path stroke="#000000" stroke-width="2" d="M 318.8,70" />
<path stroke="#000000" stroke-width="2" d="M 318.8,30 318.8,31.4 318.9,32.8 319.1,34.2 319.5,35.5 320,36.8 320.6,38.1 321.3,39.3 322.1,40.4 323,41.5 324,42.5 325,43.4 326.2,44.2 327.4,44.9 328.6,45.5 330,46 331.3,46.3 332.7,46.6 334.1,46.7 335.5,46.7 336.9,46.6 338.2,46.3 339.6,46 340.9,45.5 342.2,44.9 343.4,44.2 344.5,43.4 345.6,42.5 346.6,41.5 347.5,40.4 348.3,39.3 349,38.1 349.5,36.8 350,35.5 350.4,34.2 350.6,32.8 350.8,31.4" />
<path stroke="#000000" stroke-width="2" d="M 357.4,70" />
<path stroke="#000000" stroke-width="2" d="M 357.4,50 377.4,50 377.4,50.7 377.5,51.4 377.6,52.1 377.8,52.8 378,53.4 378.3,54 378.7,54.6 379.1,55.2 379.5,55.8 380,56.2 380.5,56.7 381.1,57.1 381.7,57.4 382.3,57.7 383,58 383.7,58.2 384.4,58.3 385.1,58.3 385.8,58.3 386.5,58.3 387.1,58.2 387.8,58 388.5,57.7 389.1,57.4 389.7,57.1 390.3,56.7 390.8,56.2 391.3,55.8 391.8,55.2 392.2,54.6 392.5,54 392.8,53.4 393,52.8 393.2,52.1 393.3,51.4 393.4,50.7" />
<path stroke="#000000" stroke-width="2" d="M 400.1,70" />
<path stroke="#000000" stroke-width="2" d="M 400.1,30 400.5,30 400.5,30.4 400.1,30.4 400.1,30" />
<path stroke="#000000" stroke-width="2" d="M 430.5,70" />
<path stroke="#000000" stroke-width="2" d="M 430.5,30 445.8,67" />
<path stroke="#000000" stroke-width="2" d="M 452.4,70" />
<path stroke="#000000" stroke-width="2" d="M 452.4,20 472.4,20" />
<path stroke="#000000" stroke-width="2" d="M 502.4,70" />
<path stroke="#000000" stroke-width="2" d="M 522.4,30 507.1,67" />
<path stroke="#000000" stroke-width="2" d="M 529.1,70" />
<path stroke="#000000" stroke-width="2" d="M 529.1,20 529.1,20.7 529.2,21.4 529.3,22.1 529.5,22.8 529.7,23.4 530,24 530.4,24.6 530.8,25.2 531.2,25.8 531.7,26.2 532.2,26.7 532.8,27.1 533.4,27.4 534,27.7 534.7,28 535.4,28.2 536.1,28.3 536.8,28.3 537.5,28.3 538.1,28.3 538.8,28.2 539.5,28 540.2,27.7 540.8,27.4 541.4,27.1 542,26.7 542.5,26.2 543,25.8 543.4,25.2 543.8,24.6 544.2,24 544.5,23.4 544.7,22.8 544.9,22.1 545,21.4 545.1,20.7 545.1,20 545.2,19.3 545.3,18.6 545.5,17.9 545.7,17.3 546,16.7 546.3,16.1 546.7,15.5 547.2,14.9 547.7,14.5 548.2,14 548.8,13.6 549.4,13.3 550,13 550.7,12.7 551.4,12.5 552,12.4 552.7,12.4 553.4,12.4 554.1,12.4 554.8,12.5 555.5,12.7 556.1,13 556.8,13.3 557.4,13.6 558,14 558.5,14.5 559,14.9 559.4,15.5 559.8,16.1 560.2,16.7 560.5,17.3 560.7,17.9 560.9,18.6 561,19.3 561.1,20 561.1,20.5 561,21 560.9,21.6 560.8,22.1 560.6,22.6 560.4,23 560.1,23.5 559.8,23.9 559.5,24.3 559.1,24.7 558.7,25 558.3,25.3 557.9,25.6 557.4,25.8 556.9,26 556.4,26.1 555.9,26.2 555.3,26.3 554.8,26.3 554.3,26.2 553.8,26.1 553.3,26 552.8,25.8 552.3,25.6 551.9,25.3 551.4,25 551,24.7 550.7,24.3 550.3,23.9 550,23.5 549.8,23 549.5,22.6 549.4,22.1 549.2,21.6 549.1,21 549.1,20.5 549.1,20 549.1,19.5 549.2,19 549.4,18.5 549.5,18 549.8,17.5 550,17 550.3,16.6 550.7,16.2 551,15.8 551.4,15.5 551.9,15.2 552.3,14.9 552.8,14.7 553.3,14.5 553.8,14.4 554.3,14.3 554.8,14.3 555.3,14.3 555.9,14.3 556.4,14.4 556.9,14.5 557.4,14.7 557.9,14.9 558.3,15.2 558.7,15.5 559.1,15.8 559.5,16.2 559.8,16.6 560.1,17 560.4,17.5 560.6,18 560.8,18.5 560.9,19 561,19.5 561.1,20 561.1,24" />
<path stroke="#000000" stroke-width="2" d="M 561.1,24 560.8,24.9 560.4,25.7 560.1,26.4 559.7,27.1 559.2,27.8 558.8,28.4 558.3,28.9 557.8,29.4 557.3,29.9 556.8,30.2 556.3,30.6 555.8,30.9 555.2,31.2 554.6,31.4 554,31.6 553.5,31.7 552.9,31.9 552.3,31.9 551.7,32 551.1,32" />
<path stroke="#000000" stroke-width="2" d="M 591.1,70" />
<path stroke="#000000" stroke-width="2" d="M 591.1,46 602.4,34.7 602.4,74.7" />
<path stroke="#000000" stroke-width="2" d="M 602.4,54.7" />
<path stroke="#000000" stroke-width="2" d="M 594.4,54.7 610.4,54.7" />
<path stroke="#000000" stroke-width="2" d="M 640.4,70" />
<path stroke="#000000" stroke-width="2" d="M 640.4,70 640.6,70 640.6,70.2 640.4,70.2 640.4,70" />
<path stroke="#000000" stroke-width="2" d="M 647.3,70" />
<path stroke="#000000" stroke-width="2" d="M 647.3,30 647.3,70 658.6,58.7" />
<path stroke="#000000" stroke-width="2" d="M 665.2,70" />
<path stroke="#000000" stroke-width="2" d="M 675.2,40 676.1,40 677,39.9 677.8,39.8 678.7,39.5 679.5,39.2 680.3,38.9 681,38.4 681.8,37.9 682.4,37.4 683,36.8 683.6,36.1 684.1,35.4 684.5,34.6 684.9,33.8 685.2,33 685.4,32.2 685.6,31.3 685.7,30.4 685.7,29.6 685.6,28.7 685.4,27.8 685.2,27 684.9,26.2 684.5,25.4 684.1,24.6 683.6,23.9 683,23.3 682.4,22.6 681.8,22.1 681,21.6 680.3,21.1 679.5,20.8 678.7,20.5 677.8,20.2 677,20.1 676.1,20 675.2,20 674.4,20.1 673.5,20.2 672.7,20.5 671.8,20.8 671.1,21.1 670.3,21.6 669.6,22.1 668.9,22.6 668.3,23.3 667.7,23.9 667.2,24.6 666.8,25.4 666.4,26.2 666.1,27 665.9,27.8 665.8,28.7 665.7,29.6 665.7,30.4 665.8,31.3 665.9,32.2 666.1,33 666.4,33.8 666.8,34.6 667.2,35.4 667.7,36.1 668.3,36.8 668.9,37.4 669.6,37.9 670.3,38.4 671.1,38.9 671.8,39.2 672.7,39.5 673.5,39.8 674.4,39.9 675.2,40 675.2,60 675.2,54 675.2,53.1 675.3,52.3 675.5,51.4 675.7,50.6 676,49.7 676.4,48.9 676.8,48.2 677.3,47.5 677.9,46.8 678.5,46.2 679.1,45.6 679.9,45.1 680.6,44.7 681.4,44.3 682.2,44 683.1,43.8 683.9,43.6 684.8,43.6" />
<path stroke="#000000" stroke-width="2" d="M 715.7,70" />
<path stroke="#000000" stroke-width="2" d="M 715.7,30 735.7,30 736.5,30 737.4,30.1 738.3,30.2 739.1,30.5 739.9,30.8 740.7,31.1 741.5,31.6 742.2,32.1 742.9,32.6 743.5,33.2 744,33.9 744.5,34.6 745,35.4 745.3,36.2 745.6,37 745.9,37.8 746,38.7 746.1,39.6 746.1,40.4 746,41.3 745.9,42.2 745.6,43 745.3,43.8 745,44.6 744.5,45.4 744,46.1 743.5,46.7 742.9,47.4 742.2,47.9 741.5,48.4 740.7,48.9 739.9,49.2 739.1,49.5 738.3,49.8 737.4,49.9 736.5,50" />
<path stroke="#000000" stroke-width="2" d="M 776.1,70" />
<path stroke="#000000" stroke-width="2" d="M 786.1,30 785.2,30 784.4,30.1 783.5,30.2 782.6,30.5 781.8,30.8 781,31.1 780.3,31.6 779.6,32.1 778.9,32.6 778.3,33.2 777.7,33.9 777.2,34.6 776.8,35.4 776.4,36.2 776.1,37 775.9,37.8 775.7,38.7 775.7,39.6 775.7,40.4 775.7,41.3 775.9,42.2 776.1,43 776.4,43.8 776.8,44.6 777.2,45.4 777.7,46.1 778.3,46.7 778.9,47.4 779.6,47.9 780.3,48.4 781,48.9 781.8,49.2 782.6,49.5 783.5,49.8 784.4,49.9 785.2,50" />
<path stroke="#000000" stroke-width="2" d="M 785.2,40" />
<path stroke="#000000" stroke-width="2" d="M 769.2,40 789.2,40 789.2,40.5 789.2,41 789.1,41.5 788.9,42 788.8,42.5 788.5,43 788.3,43.5 788,43.9 787.7,44.3 787.3,44.7 786.9,45 786.5,45.3 786,45.6 785.5,45.8 785,46 784.5,46.1 784,46.2 783.5,46.2 783,46.2 782.4,46.2 781.9,46.1 781.4,46 780.9,45.8 780.5,45.6 780,45.3 779.6,45 779.2,44.7 778.8,44.3 778.5,43.9 778.2,43.5 777.9,43 777.7,42.5 777.5,42 777.4,41.5 777.3,41 777.2,40.5 777.2,40 777.3,39.5 777.4,38.9 777.5,38.4 777.7,37.9 777.9,37.5 778.2,37 778.5,36.6 778.8,36.2 779.2,35.8 779.6,35.5 780,35.2 780.5,34.9 780.9,34.7 781.4,34.5 781.9,34.4 782.4,34.3 783,34.2 783.5,34.2 784,34.3 784.5,34.4 785,34.5 785.5,34.7 786,34.9 786.5,35.2 786.9,35.5 787.3,35.8 787.7,36.2 788,36.6 788.3,37 788.5,37.5 788.8,37.9 788.9,38.4 789.1,38.9 789.2,39.5 789.2,40 789.2,44" />
<path stroke="#000000" stroke-width="2" d="M 789.2,44 788.9,44.9 788.6,45.7 788.2,46.4 787.8,47.1 787.4,47.8 786.9,48.4 786.5,48.9 786,49.4 785.5,49.8 785,50.2 784.4,50.6 783.9,50.9 783.3,51.2 782.8,51.4 782.2,51.6 781.6,51.7 781,51.8 780.4,51.9 779.8,52 779.2,52" />
<path stroke="#000000" stroke-width="2" d="M 779.2,52 781.3,51.9 782.9,51.6 784.1,51.1 785,50.5 785.5,49.9 785.8,49.1 785.9,48.4 785.7,47.7 785.3,47 784.8,46.4 784.2,45.9 783.5,45.5 782.8,45.3 782.1,45.4 781.3,45.7 780.7,46.2 780.1,47.1 779.6,48.3 779.3,50 779.2,52 779.2,67" />
<path stroke="#000000" stroke-width="2" d="M 819.2,70" />
<path stroke="#000000" stroke-width="2" d="M 819.2,70 819.4,70 819.4,70.2 819.2,70.2 819.2,70" />
<path stroke="#000000" stroke-width="2" d="M 849.4,70" />
<path stroke="#000000" stroke-width="2" d="M 849.4,30 849.4,70 869.4,70" />
<path stroke="#000000" stroke-width="2" d="M 899.4,70" />
</svg>