<svg xmlns="http://www.w3.org/2000/svg" width="886.7634939477532" height="92.0509145607538" style="fill:none; stroke-linecap:round;">
    <rect width="100%" height="100%" fill="#FFFFFF" />
<path stroke="#000000" stroke-width="2" d="M 550,75" />
<path stroke="#000000" stroke-width="2" d="M 40,30 24.7,67 29.3,55.9 30,54.3 30.8,52.7 31.7,51.2 32.8,49.9 33.9,48.6 35.2,47.4 36.6,46.3 38.1,45.4 39.6,44.6 41.2,43.9 42.9,43.4 44.6,43" />
<path stroke="#000000" stroke-width="2" d="M 51.3,70" />
<path stroke="#000000" stroke-width="2" d="M 51.3,30 53,30 54.8,30.2 56.5,30.5 58.2,30.9 59.8,31.5 61.4,32.2 62.9,33.1 64.3,34.1 65.7,35.2 66.9,36.5 68,37.8 69,39.2 69.9,40.7 70.6,42.3 71.2,44 71.7,45.7 72,47.4 72.1,49.1 72.1,50.9 72,52.6 71.7,54.3 71.2,56 70.6,57.6 69.9,59.2 69,60.7 68,62.2 66.9,63.5 65.7,64.7 64.3,65.8 62.9,66.8 61.4,67.7 59.8,68.5 58.2,69.1 56.5,69.5 54.8,69.8 53,70" />
<path stroke="#000000" stroke-width="2" d="M 102.1,70" />
<path stroke="#000000" stroke-width="2" d="M 122.1,30 106.8,67" />
<path stroke="#000000" stroke-width="2" d="M 128.8,70" />
<path stroke="#000000" stroke-width="2" d="M 128.8,50 129.2,50 129.2,50.4 128.8,50.4 128.8,50" />
<path stroke="#000000" stroke-width="2" d="M 159.2,70" />
<path stroke="#000000" stroke-width="2" d="M 159.2,30 159.2,70" />
<path stroke="#000000" stroke-width="2" d="M 165.9,70" />
<path stroke="#000000" stroke-width="2" d="M 165.9,20 166.3,20 166.3,20.4 165.9,20.4 165.9,20" />
<path stroke="#000000" stroke-width="2" d="M 196.3,70" />
<path stroke="#000000" stroke-width="2" d="M 208.3,54 209.3,54 210.3,53.9 211.4,53.7 212.4,53.5 213.4,53.1 214.3,52.7 215.2,52.1 216.1,51.5 216.9,50.9 217.6,50.1 218.3,49.3 218.9,48.5 219.4,47.6 219.9,46.6 220.2,45.6 220.5,44.6 220.7,43.6 220.8,42.5 220.8,41.5 220.7,40.4 220.5,39.4 220.2,38.4 219.9,37.4 219.4,36.5 218.9,35.6 218.3,34.7 217.6,33.9 216.9,33.2 216.1,32.5 215.2,31.9 214.3,31.4 213.4,30.9 212.4,30.6 211.4,30.3 210.3,30.1 209.3,30 208.3,30 207.2,30.1 206.2,30.3 205.2,30.6 204.2,30.9 203.2,31.4 202.3,31.9 201.5,32.5 200.7,33.2 199.9,33.9 199.3,34.7 198.7,35.6 198.1,36.5 197.7,37.4 197.3,38.4 197.1,39.4 196.9,40.4 196.8,41.5 196.8,42.5 196.9,43.6 197.1,44.6 197.3,45.6 197.7,46.6 198.1,47.6 198.7,48.5 199.3,49.3 199.9,50.1 200.7,50.9 201.5,51.5 202.3,52.1 203.2,52.7 204.2,53.1 205.2,53.5 206.2,53.7 207.2,53.9 208.3,54 216.3,54" />
<path stroke="#000000" stroke-width="2" d="M 216.3,54 218,53.4 219.6,52.7 221.1,51.9 222.5,51.2 223.8,50.3 225,49.4 226.1,48.5 227.1,47.5 228,46.5 228.8,45.5 229.5,44.4 230.1,43.3 230.6,42.2 231.1,41.1 231.4,39.9 231.7,38.8 232,37.6 232.1,36.4 232.2,35.2 232.3,34" />
<path stroke="#000000" stroke-width="2" d="M 238.9,70" />
<path stroke="#000000" stroke-width="2" d="M 238.9,25" />
<path stroke="#000000" stroke-width="2" d="M 238.9,25 241,24.9 242.6,24.6 243.8,24.1 244.7,23.6 245.3,22.9 245.5,22.2 245.6,21.4 245.4,20.7 245.1,20 244.6,19.4 243.9,18.9 243.2,18.5 242.5,18.3 241.8,18.4 241,18.7 240.4,19.2 239.8,20.1 239.3,21.4 239,23 238.9,25 238.9,40" />
<path stroke="#000000" stroke-width="2" d="M 252.2,70" />
<path stroke="#000000" stroke-width="2" d="M 252.2,20 272.2,20 264.6,38.5" />
<path stroke="#000000" stroke-width="2" d="M 302.2,70" />
<path stroke="#000000" stroke-width="2" d="M 302.2,30 322.2,30 323.1,30 324,30.1 324.8,30.2 325.7,30.5 326.5,30.8 327.3,31.1 328.1,31.6 328.8,32.1 329.4,32.6 330.1,33.2 330.6,33.9 331.1,34.6 331.6,35.4 331.9,36.2 332.2,37 332.4,37.8 332.6,38.7 332.7,39.6 332.7,40.4 332.6,41.3 332.4,42.2 332.2,43 331.9,43.8 331.6,44.6 331.1,45.4 330.6,46.1 330.1,46.7 329.4,47.4 328.8,47.9 328.1,48.4 327.3,48.9 326.5,49.2 325.7,49.5 324.8,49.8 324,49.9 323.1,50" />
<path stroke="#000000" stroke-width="2" d="M 362.7,70" />
<path stroke="#000000" stroke-width="2" d="M 362.7,50 370.3,31.5 378,50 378,49.3 378,48.6 378.2,47.9 378.3,47.2 378.6,46.6 378.9,46 379.2,45.4 379.6,44.8 380.1,44.2 380.6,43.8 381.1,43.3 381.7,42.9 382.3,42.6 382.9,42.3 383.6,42 384.2,41.8 384.9,41.7 385.6,41.7 386.3,41.7 387,41.7 387.7,41.8 388.4,42 389,42.3 389.7,42.6 390.3,42.9 390.8,43.3 391.4,43.8 391.9,44.2 392.3,44.8 392.7,45.4 393.1,46 393.4,46.6 393.6,47.2 393.8,47.9 393.9,48.6 394,49.3" />
<path stroke="#000000" stroke-width="2" d="M 400.6,70" />
<path stroke="#000000" stroke-width="2" d="M 400.6,50 408.3,68.5" />
<path stroke="#000000" stroke-width="2" d="M 415,70" />
<path stroke="#000000" stroke-width="2" d="M 415,50 415.8,50 416.7,50.1 417.6,50.2 418.4,50.5 419.2,50.8 420,51.1 420.8,51.6 421.5,52.1 422.1,52.6 422.8,53.2 423.3,53.9 423.8,54.6 424.3,55.4 424.6,56.2 424.9,57 425.2,57.8 425.3,58.7 425.4,59.6 425.4,60.4 425.3,61.3 425.2,62.2 424.9,63 424.6,63.8 424.3,64.6 423.8,65.4 423.3,66.1 422.8,66.7 422.1,67.4 421.5,67.9 420.8,68.4 420,68.9 419.2,69.2 418.4,69.5 417.6,69.8 416.7,69.9 415.8,70" />
<path stroke="#000000" stroke-width="2" d="M 432,70" />
<path stroke="#000000" stroke-width="2" d="M 442,20 434.4,38.5" />
<path stroke="#000000" stroke-width="2" d="M 472,70" />
<path stroke="#000000" stroke-width="2" d="M 488,30 468.2,49.8 488,69.6" />
<path stroke="#000000" stroke-width="2" d="M 494.7,70" />
<path stroke="#000000" stroke-width="2" d="M 494.7,30 510,67" />
<path stroke="#000000" stroke-width="2" d="M 540,70" />
<path stroke="#000000" stroke-width="2" d="M 540,30 540,70" />
<path stroke="#000000" stroke-width="2" d="M 546.7,70" />
<path stroke="#000000" stroke-width="2" d="M 556.7,50 549,68.5" />
<path stroke="#000000" stroke-width="2" d="M 586.7,70" />
<path stroke="#000000" stroke-width="2" d="M 586.7,30 602,67" />
<path stroke="#000000" stroke-width="2" d="M 608.7,70" />
<path stroke="#000000" stroke-width="2" d="M 608.7,30 609.1,30 609.1,30.4 608.7,30.4 608.7,30" />
<path stroke="#000000" stroke-width="2" d="M 639.1,70" />
<path stroke="#000000" stroke-width="2" d="M 655.1,30 635.3,49.8 655.1,69.6" />
<path stroke="#000000" stroke-width="2" d="M 661.7,70" />
<path stroke="#000000" stroke-width="2" d="M 661.7,20 662.6,20 663.5,20.1 664.3,20.2 665.2,20.5 666,20.8 666.8,21.1 667.5,21.6 668.3,22.1 668.9,22.6 669.5,23.2 670.1,23.9 670.6,24.6 671,25.4 671.4,26.2 671.7,27 671.9,27.8 672.1,28.7 672.2,29.6 672.2,30.4 672.1,31.3 671.9,32.2 671.7,33 671.4,33.8 671,34.6 670.6,35.4 670.1,36.1 669.5,36.7 668.9,37.4 668.3,37.9 667.5,38.4 666.8,38.9 666,39.2 665.2,39.5 664.3,39.8 663.5,39.9 662.6,40" />
<path stroke="#000000" stroke-width="2" d="M 702.2,70" />
<path stroke="#000000" stroke-width="2" d="M 702.2,30 702.2,70" />
<path stroke="#000000" stroke-width="2" d="M 708.8,70" />
<path stroke="#000000" stroke-width="2" d="M 708.8,20 708.8,24 708.8,24.5 708.9,25 709,25.6 709.1,26.1 709.3,26.6 709.5,27 709.8,27.5 710.1,27.9 710.4,28.3 710.8,28.7 711.2,29 711.6,29.3 712,29.6 712.5,29.8 713,30 713.5,30.1 714,30.2 714.6,30.3 715.1,30.3 715.6,30.2 716.1,30.1 716.6,30 717.1,29.8 717.6,29.6 718,29.3 718.5,29 718.9,28.7 719.2,28.3 719.6,27.9 719.9,27.5 720.1,27 720.4,26.6 720.5,26.1 720.7,25.6 720.8,25 720.8,24.5 720.8,19.5 720.8,39.5" />
<path stroke="#000000" stroke-width="2" d="M 727.5,70" />
<path stroke="#000000" stroke-width="2" d="M 727.5,20 747.5,20" />
<path stroke="#000000" stroke-width="2" d="M 777.5,70" />
<path stroke="#000000" stroke-width="2" d="M 797.5,30 782.2,67" />
<path stroke="#000000" stroke-width="2" d="M 804.1,70" />
<path stroke="#000000" stroke-width="2" d="M 804.1,50 804.5,50 804.5,50.4 804.1,50.4 804.1,50" />
<path stroke="#000000" stroke-width="2" d="M 834.5,70" />
<path stroke="#000000" stroke-width="2" d="M 850.5,30 830.7,49.8 850.5,69.6" />
<path stroke="#000000" stroke-width="2" d="M 857.2,70" />
<path stroke="#000000" stroke-width="2" d="M 857.2,50 857.2,70 857.2,64 857.2,63.1 857.3,62.3 857.4,61.4 857.7,60.6 858,59.7 858.3,58.9 858.8,58.2 859.3,57.5 859.8,56.8 860.4,56.2 861.1,55.6 861.8,55.1 862.6,54.7 863.4,54.3 864.2,54 865,53.8 865.9,53.6 866.8,53.6 859.1,72.1" />
<path stroke="#000000" stroke-width="2" d="M 896.8,70" />
</svg>