<svg xmlns="http://www.w3.org/2000/svg" width="869.5638723168161" height="102.0" style="fill:none; stroke-linecap:round;">
    <rect width="100%" height="100%" fill="#FFFFFF" />
<path stroke="#000000" stroke-width="2" d="M 550,75" />
<path stroke="#000000" stroke-width="2" d="M 20,35" />
<path stroke="#000000" stroke-width="2" d="M 20,35 22,34.9 23.6,34.6 24.9,34.1 25.8,33.6 26.3,32.9 26.6,32.2 26.7,31.4 26.5,30.7 26.1,30 25.6,29.4 25,28.9 24.3,28.5 23.6,28.3 22.8,28.4 22.1,28.7 21.4,29.2 20.9,30.1 20.4,31.4 20.1,33 20,35 20,50 27.7,68.5" />
<path stroke="#000000" stroke-width="2" d="M 34.3,70" />
<path stroke="#000000" stroke-width="2" d="M 34.3,20 34.3,20.7 34.4,21.4 34.5,22.1 34.7,22.8 34.9,23.4 35.2,24 35.6,24.6 36,25.2 36.4,25.8 36.9,26.2 37.4,26.7 38,27.1 38.6,27.4 39.3,27.7 39.9,28 40.6,28.2 41.3,28.3 42,28.3 42.7,28.3 43.4,28.3 44,28.2 44.7,28 45.4,27.7 46,27.4 46.6,27.1 47.2,26.7 47.7,26.2 48.2,25.8 48.7,25.2 49.1,24.6 49.4,24 49.7,23.4 49.9,22.8 50.1,22.1 50.2,21.4 50.3,20.7" />
<path stroke="#000000" stroke-width="2" d="M 80.3,70" />
<path stroke="#000000" stroke-width="2" d="M 100.3,30 85,67" />
<path stroke="#000000" stroke-width="2" d="M 107,70" />
<path stroke="#000000" stroke-width="2" d="M 107,20 107,20.7 107,21.4 107.2,22.1 107.3,22.8 107.6,23.4 107.9,24 108.2,24.6 108.6,25.2 109.1,25.8 109.6,26.2 110.1,26.7 110.7,27.1 111.3,27.4 111.9,27.7 112.6,28 113.2,28.2 113.9,28.3 114.6,28.3 115.3,28.3 116,28.3 116.7,28.2 117.4,28 118,27.7 118.7,27.4 119.3,27.1 119.8,26.7 120.4,26.2 120.9,25.8 121.3,25.2 121.7,24.6 122.1,24 122.4,23.4 122.6,22.8 122.8,22.1 122.9,21.4 123,20.7 123,20 123,19.3 123.1,18.6 123.3,17.9 123.6,17.3 123.9,16.7 124.2,16.1 124.6,15.5 125.1,14.9 125.5,14.5 126.1,14 126.7,13.6 127.3,13.3 127.9,13 128.5,12.7 129.2,12.5 129.9,12.4 130.6,12.4 131.3,12.4 132,12.4 132.7,12.5 133.4,12.7 134,13 134.6,13.3 135.2,13.6 135.8,14 136.4,14.5 136.8,14.9 137.3,15.5 137.7,16.1 138,16.7 138.3,17.3 138.6,17.9 138.8,18.6 138.9,19.3 138.9,20" />
<path stroke="#000000" stroke-width="2" d="M 168.9,70" />
<path stroke="#000000" stroke-width="2" d="M 168.9,70" />
<path stroke="#000000" stroke-width="2" d="M 168.9,70 170.1,70 171,70.2 171.9,70.4 172.6,70.7 173.2,71 173.6,71.5 173.9,71.9 174.1,72.5 174.2,73.1 174.2,73.8 174.1,74.4 173.8,75.2 173.5,76 173.1,76.8 172.6,77.6 172,78.4 171.4,79.3 170.6,80.2 169.8,81.1 168.9,82" />
<path stroke="#000000" stroke-width="2" d="M 204.2,70" />
<path stroke="#000000" stroke-width="2" d="M 220.2,30 200.4,49.8 220.2,69.6" />
<path stroke="#000000" stroke-width="2" d="M 226.9,70" />
<path stroke="#000000" stroke-width="2" d="M 226.9,20 227.1,20 227.1,20.2 226.9,20.2 226.9,20" />
<path stroke="#000000" stroke-width="2" d="M 257.1,70" />
<path stroke="#000000" stroke-width="2" d="M 257.1,30 257.1,70 268.4,58.7" />
<path stroke="#000000" stroke-width="2" d="M 275.1,70" />
<path stroke="#000000" stroke-width="2" d="M 275.1,25" />
<path stroke="#000000" stroke-width="2" d="M 275.1,25 277.1,24.9 278.7,24.6 279.9,24.1 280.8,23.6 281.4,22.9 281.7,22.2 281.7,21.4 281.5,20.7 281.2,20 280.7,19.4 280.1,18.9 279.4,18.5 278.6,18.3 277.9,18.4 277.2,18.7 276.5,19.2 275.9,20.1 275.5,21.4 275.2,23 275.1,25 275.1,40" />
<path stroke="#000000" stroke-width="2" d="M 311.7,70" />
<path stroke="#000000" stroke-width="2" d="M 311.7,40 311.9,40 311.9,40.2 311.7,40.2 311.7,40" />
<path stroke="#000000" stroke-width="2" d="M 318.6,70" />
<path stroke="#000000" stroke-width="2" d="M 318.6,30 318.6,31.4 318.7,32.8 318.9,34.2 319.3,35.5 319.8,36.8 320.4,38.1 321.1,39.3 321.9,40.4 322.8,41.5 323.8,42.5 324.8,43.4 326,44.2 327.2,44.9 328.4,45.5 329.8,46 331.1,46.3 332.5,46.6 333.9,46.7 335.3,46.7 336.7,46.6 338,46.3 339.4,46 340.7,45.5 342,44.9 343.2,44.2 344.3,43.4 345.4,42.5 346.4,41.5 347.3,40.4 348.1,39.3 348.8,38.1 349.3,36.8 349.8,35.5 350.2,34.2 350.4,32.8 350.6,31.4" />
<path stroke="#000000" stroke-width="2" d="M 357.2,70" />
<path stroke="#000000" stroke-width="2" d="M 357.2,50 377.2,50 377.2,50.7 377.3,51.4 377.4,52.1 377.6,52.8 377.8,53.4 378.1,54 378.5,54.6 378.9,55.2 379.3,55.8 379.8,56.2 380.3,56.7 380.9,57.1 381.5,57.4 382.1,57.7 382.8,58 383.5,58.2 384.2,58.3 384.9,58.3 385.6,58.3 386.3,58.3 386.9,58.2 387.6,58 388.3,57.7 388.9,57.4 389.5,57.1 390.1,56.7 390.6,56.2 391.1,55.8 391.6,55.2 392,54.6 392.3,54 392.6,53.4 392.8,52.8 393,52.1 393.1,51.4 393.2,50.7" />
<path stroke="#000000" stroke-width="2" d="M 399.9,70" />
<path stroke="#000000" stroke-width="2" d="M 399.9,30 400.3,30 400.3,30.4 399.9,30.4 399.9,30" />
<path stroke="#000000" stroke-width="2" d="M 430.3,70" />
<path stroke="#000000" stroke-width="2" d="M 430.3,30 445.6,67" />
<path stroke="#000000" stroke-width="2" d="M 452.2,70" />
<path stroke="#000000" stroke-width="2" d="M 452.2,20 472.2,20" />
<path stroke="#000000" stroke-width="2" d="M 502.2,70" />
<path stroke="#000000" stroke-width="2" d="M 522.2,30 506.9,67" />
<path stroke="#000000" stroke-width="2" d="M 528.9,70" />
<path stroke="#000000" stroke-width="2" d="M 528.9,20 528.9,20.7 529,21.4 529.1,22.1 529.3,22.8 529.5,23.4 529.8,24 530.2,24.6 530.6,25.2 531,25.8 531.5,26.2 532,26.7 532.6,27.1 533.2,27.4 533.8,27.7 534.5,28 535.2,28.2 535.9,28.3 536.6,28.3 537.3,28.3 537.9,28.3 538.6,28.2 539.3,28 540,27.7 540.6,27.4 541.2,27.1 541.8,26.7 542.3,26.2 542.8,25.8 543.2,25.2 543.6,24.6 544,24 544.3,23.4 544.5,22.8 544.7,22.1 544.8,21.4 544.9,20.7 544.9,20 545,19.3 545.1,18.6 545.3,17.9 545.5,17.3 545.8,16.7 546.1,16.1 546.5,15.5 547,14.9 547.5,14.5 548,14 548.6,13.6 549.2,13.3 549.8,13 550.5,12.7 551.2,12.5 551.8,12.4 552.5,12.4 553.2,12.4 553.9,12.4 554.6,12.5 555.3,12.7 555.9,13 556.6,13.3 557.2,13.6 557.8,14 558.3,14.5 558.8,14.9 559.2,15.5 559.6,16.1 560,16.7 560.3,17.3 560.5,17.9 560.7,18.6 560.8,19.3 560.9,20 560.9,20.5 560.8,21 560.7,21.6 560.6,22.1 560.4,22.6 560.2,23 559.9,23.5 559.6,23.9 559.3,24.3 558.9,24.7 558.5,25 558.1,25.3 557.7,25.6 557.2,25.8 556.7,26 556.2,26.1 555.7,26.2 555.1,26.3 554.6,26.3 554.1,26.2 553.6,26.1 553.1,26 552.6,25.8 552.1,25.6 551.7,25.3 551.2,25 550.8,24.7 550.5,24.3 550.1,23.9 549.8,23.5 549.6,23 549.3,22.6 549.2,22.1 549,21.6 548.9,21 548.9,20.5 548.9,20 548.9,19.5 549,19 549.2,18.5 549.3,18 549.6,17.5 549.8,17 550.1,16.6 550.5,16.2 550.8,15.8 551.2,15.5 551.7,15.2 552.1,14.9 552.6,14.7 553.1,14.5 553.6,14.4 554.1,14.3 554.6,14.3 555.1,14.3 555.7,14.3 556.2,14.4 556.7,14.5 557.2,14.7 557.7,14.9 558.1,15.2 558.5,15.5 558.9,15.8 559.3,16.2 559.6,16.6 559.9,17 560.2,17.5 560.4,18 560.6,18.5 560.7,19 560.8,19.5 560.9,20 560.9,24" />
<path stroke="#000000" stroke-width="2" d="M 560.9,24 560.6,24.9 560.2,25.7 559.9,26.4 559.5,27.1 559,27.8 558.6,28.4 558.1,28.9 557.6,29.4 557.1,29.9 556.6,30.2 556.1,30.6 555.6,30.9 555,31.2 554.4,31.4 553.8,31.6 553.3,31.7 552.7,31.9 552.1,31.9 551.5,32 550.9,32" />
<path stroke="#000000" stroke-width="2" d="M 590.9,70" />
<path stroke="#000000" stroke-width="2" d="M 590.9,38 596.5,32.3 596.5,52.3" />
<path stroke="#000000" stroke-width="2" d="M 596.5,42.3" />
<path stroke="#000000" stroke-width="2" d="M 592.5,42.3 600.5,42.3" />
<path stroke="#000000" stroke-width="2" d="M 630.5,70" />
<path stroke="#000000" stroke-width="2" d="M 630.5,70 630.7,70 630.7,70.2 630.5,70.2 630.5,70" />
<path stroke="#000000" stroke-width="2" d="M 637.4,70" />
<path stroke="#000000" stroke-width="2" d="M 637.4,30 637.4,70 648.7,58.7" />
<path stroke="#000000" stroke-width="2" d="M 655.4,70" />
<path stroke="#000000" stroke-width="2" d="M 665.4,40 666.3,40 667.1,39.9 668,39.8 668.8,39.5 669.6,39.2 670.4,38.9 671.2,38.4 671.9,37.9 672.6,37.4 673.2,36.8 673.8,36.1 674.3,35.4 674.7,34.6 675.1,33.8 675.4,33 675.6,32.2 675.7,31.3 675.8,30.4 675.8,29.6 675.7,28.7 675.6,27.8 675.4,27 675.1,26.2 674.7,25.4 674.3,24.6 673.8,23.9 673.2,23.3 672.6,22.6 671.9,22.1 671.2,21.6 670.4,21.1 669.6,20.8 668.8,20.5 668,20.2 667.1,20.1 666.3,20 665.4,20 664.5,20.1 663.7,20.2 662.8,20.5 662,20.8 661.2,21.1 660.4,21.6 659.7,22.1 659.1,22.6 658.4,23.3 657.9,23.9 657.4,24.6 656.9,25.4 656.6,26.2 656.3,27 656.1,27.8 655.9,28.7 655.8,29.6 655.8,30.4 655.9,31.3 656.1,32.2 656.3,33 656.6,33.8 656.9,34.6 657.4,35.4 657.9,36.1 658.4,36.8 659.1,37.4 659.7,37.9 660.4,38.4 661.2,38.9 662,39.2 662.8,39.5 663.7,39.8 664.5,39.9 665.4,40 665.4,60 665.4,54 665.4,53.1 665.5,52.3 665.6,51.4 665.8,50.6 666.1,49.7 666.5,48.9 666.9,48.2 667.4,47.5 668,46.8 668.6,46.2 669.3,45.6 670,45.1 670.8,44.7 671.5,44.3 672.4,44 673.2,43.8 674.1,43.6 674.9,43.6" />
<path stroke="#000000" stroke-width="2" d="M 705.8,70" />
<path stroke="#000000" stroke-width="2" d="M 705.8,30 725.8,30 726.7,30 727.6,30.1 728.4,30.2 729.3,30.5 730.1,30.8 730.9,31.1 731.6,31.6 732.3,32.1 733,32.6 733.6,33.2 734.2,33.9 734.7,34.6 735.1,35.4 735.5,36.2 735.8,37 736,37.8 736.2,38.7 736.2,39.6 736.2,40.4 736.2,41.3 736,42.2 735.8,43 735.5,43.8 735.1,44.6 734.7,45.4 734.2,46.1 733.6,46.7 733,47.4 732.3,47.9 731.6,48.4 730.9,48.9 730.1,49.2 729.3,49.5 728.4,49.8 727.6,49.9 726.7,50" />
<path stroke="#000000" stroke-width="2" d="M 766.2,70" />
<path stroke="#000000" stroke-width="2" d="M 776.2,30 775.4,30 774.5,30.1 773.6,30.2 772.8,30.5 772,30.8 771.2,31.1 770.4,31.6 769.7,32.1 769,32.6 768.4,33.2 767.9,33.9 767.4,34.6 766.9,35.4 766.6,36.2 766.3,37 766,37.8 765.9,38.7 765.8,39.6 765.8,40.4 765.9,41.3 766,42.2 766.3,43 766.6,43.8 766.9,44.6 767.4,45.4 767.9,46.1 768.4,46.7 769,47.4 769.7,47.9 770.4,48.4 771.2,48.9 772,49.2 772.8,49.5 773.6,49.8 774.5,49.9 775.4,50" />
<path stroke="#000000" stroke-width="2" d="M 775.4,40" />
<path stroke="#000000" stroke-width="2" d="M 759.4,40 779.4,40 779.4,40.5 779.3,41 779.2,41.5 779.1,42 778.9,42.5 778.7,43 778.4,43.5 778.1,43.9 777.8,44.3 777.4,44.7 777,45 776.6,45.3 776.1,45.6 775.7,45.8 775.2,46 774.7,46.1 774.2,46.2 773.6,46.2 773.1,46.2 772.6,46.2 772.1,46.1 771.6,46 771.1,45.8 770.6,45.6 770.1,45.3 769.7,45 769.3,44.7 768.9,44.3 768.6,43.9 768.3,43.5 768,43 767.8,42.5 767.6,42 767.5,41.5 767.4,41 767.4,40.5 767.4,40 767.4,39.5 767.5,38.9 767.6,38.4 767.8,37.9 768,37.5 768.3,37 768.6,36.6 768.9,36.2 769.3,35.8 769.7,35.5 770.1,35.2 770.6,34.9 771.1,34.7 771.6,34.5 772.1,34.4 772.6,34.3 773.1,34.2 773.6,34.2 774.2,34.3 774.7,34.4 775.2,34.5 775.7,34.7 776.1,34.9 776.6,35.2 777,35.5 777.4,35.8 777.8,36.2 778.1,36.6 778.4,37 778.7,37.5 778.9,37.9 779.1,38.4 779.2,38.9 779.3,39.5 779.4,40 779.4,44" />
<path stroke="#000000" stroke-width="2" d="M 779.4,44 779,44.9 778.7,45.7 778.3,46.4 777.9,47.1 777.5,47.8 777.1,48.4 776.6,48.9 776.1,49.4 775.6,49.8 775.1,50.2 774.6,50.6 774,50.9 773.5,51.2 772.9,51.4 772.3,51.6 771.7,51.7 771.2,51.8 770.6,51.9 770,52 769.4,52" />
<path stroke="#000000" stroke-width="2" d="M 769.4,52 771.4,51.9 773,51.6 774.2,51.1 775.1,50.5 775.7,49.9 776,49.1 776,48.4 775.8,47.7 775.5,47 775,46.4 774.4,45.9 773.7,45.5 772.9,45.3 772.2,45.4 771.5,45.7 770.8,46.2 770.2,47.1 769.8,48.3 769.5,50 769.4,52 769.4,67" />
<path stroke="#000000" stroke-width="2" d="M 809.4,70" />
<path stroke="#000000" stroke-width="2" d="M 809.4,70 809.6,70 809.6,70.2 809.4,70.2 809.4,70" />
<path stroke="#000000" stroke-width="2" d="M 839.6,70" />
<path stroke="#000000" stroke-width="2" d="M 839.6,30 839.6,50 849.6,50" />
<path stroke="#000000" stroke-width="2" d="M 879.6,70" />
</svg>