<svg xmlns="http://www.w3.org/2000/svg" width="930.7539386380289" height="90.2" style="fill:none; stroke-linecap:round;">
    <rect width="100%" height="100%" fill="#FFFFFF" />
<path stroke="#000000" stroke-width="2" d="M 550,75" />
<path stroke="#000000" stroke-width="2" d="M 30,30 29.1,30 28.3,30.1 27.4,30.2 26.6,30.5 25.7,30.8 24.9,31.1 24.2,31.6 23.5,32.1 22.8,32.6 22.2,33.2 21.6,33.9 21.1,34.6 20.7,35.4 20.3,36.2 20,37 19.8,37.8 19.6,38.7 19.6,39.6 19.6,40.4 19.6,41.3 19.8,42.2 20,43 20.3,43.8 20.7,44.6 21.1,45.4 21.6,46.1 22.2,46.7 22.8,47.4 23.5,47.9 24.2,48.4 24.9,48.9 25.7,49.2 26.6,49.5 27.4,49.8 28.3,49.9 29.1,50 49.1,50" />
<path stroke="#000000" stroke-width="2" d="M 79.1,70" />
<path stroke="#000000" stroke-width="2" d="M 79.1,70 79.3,70 79.3,70.2 79.1,70.2 79.1,70" />
<path stroke="#000000" stroke-width="2" d="M 86,70" />
<path stroke="#000000" stroke-width="2" d="M 86,35" />
<path stroke="#000000" stroke-width="2" d="M 86,35 88,34.9 89.6,34.6 90.9,34.1 91.8,33.6 92.3,32.9 92.6,32.2 92.6,31.4 92.5,30.7 92.1,30 91.6,29.4 91,28.9 90.3,28.5 89.6,28.3 88.8,28.4 88.1,28.7 87.4,29.2 86.9,30.1 86.4,31.4 86.1,33 86,35 86,50" />
<path stroke="#000000" stroke-width="2" d="M 86,42" />
<path stroke="#000000" stroke-width="2" d="M 82,42 90,42 90,62 95.7,56.3" />
<path stroke="#000000" stroke-width="2" d="M 102.3,70" />
<path stroke="#000000" stroke-width="2" d="M 104.3,20 112.8,28.5" />
<path stroke="#000000" stroke-width="2" d="M 121.3,20 101.5,39.8" />
<path stroke="#000000" stroke-width="2" d="M 151.3,70" />
<path stroke="#000000" stroke-width="2" d="M 171.3,30 156,67" />
<path stroke="#000000" stroke-width="2" d="M 178,70" />
<path stroke="#000000" stroke-width="2" d="M 178,50 178.8,50 179.7,50.1 180.6,50.2 181.4,50.5 182.2,50.8 183,51.1 183.8,51.6 184.5,52.1 185.1,52.6 185.8,53.2 186.3,53.9 186.8,54.6 187.3,55.4 187.6,56.2 187.9,57 188.2,57.8 188.3,58.7 188.4,59.6 188.4,60.4 188.3,61.3 188.2,62.2 187.9,63 187.6,63.8 187.3,64.6 186.8,65.4 186.3,66.1 185.8,66.7 185.1,67.4 184.5,67.9 183.8,68.4 183,68.9 182.2,69.2 181.4,69.5 180.6,69.8 179.7,69.9 178.8,70" />
<path stroke="#000000" stroke-width="2" d="M 195,70" />
<path stroke="#000000" stroke-width="2" d="M 197,20 205.5,28.5" />
<path stroke="#000000" stroke-width="2" d="M 214,20 194.2,39.8" />
<path stroke="#000000" stroke-width="2" d="M 244,70" />
<path stroke="#000000" stroke-width="2" d="M 244,40 244.2,40 244.2,40.2 244,40.2 244,40" />
<path stroke="#000000" stroke-width="2" d="M 250.9,70" />
<path stroke="#000000" stroke-width="2" d="M 250.9,30 266.2,67" />
<path stroke="#000000" stroke-width="2" d="M 272.9,70" />
<path stroke="#000000" stroke-width="2" d="M 272.9,20 292.9,20" />
<path stroke="#000000" stroke-width="2" d="M 322.9,70" />
<path stroke="#000000" stroke-width="2" d="M 322.9,70 322.9,68.6 323,67.2 323.2,65.8 323.6,64.5 324.1,63.2 324.7,61.9 325.4,60.7 326.2,59.6 327,58.5 328,57.5 329.1,56.6 330.2,55.8 331.5,55.1 332.7,54.5 334,54 335.4,53.7 336.8,53.4 338.1,53.3 339.5,53.3 340.9,53.4 342.3,53.7 343.7,54 345,54.5 346.2,55.1 347.4,55.8 348.6,56.6 349.7,57.5 350.6,58.5 351.5,59.6 352.3,60.7 353,61.9 353.6,63.2 354.1,64.5 354.5,65.8 354.7,67.2 354.8,68.6" />
<path stroke="#000000" stroke-width="2" d="M 361.5,70" />
<path stroke="#000000" stroke-width="2" d="M 361.5,20 369.1,38.5" />
<path stroke="#000000" stroke-width="2" d="M 399.1,70" />
<path stroke="#000000" stroke-width="2" d="M 399.1,30 403,39.2" />
<path stroke="#000000" stroke-width="2" d="M 403,39.2 404.9,41.4 406.2,43.3 407,45 407.3,46.4 407.2,47.7 406.8,48.7 406,49.5 405.1,50 404.1,50.4 403,50.5 401.9,50.4 400.8,50 399.9,49.5 399.2,48.7 398.8,47.7 398.7,46.4 399,45 399.7,43.3 401.1,41.4 403,39.2 406.8,30" />
<path stroke="#000000" stroke-width="2" d="M 406.8,30 406.7,32 406.4,33.6 405.9,34.9 405.4,35.8 404.7,36.3 404,36.6 403.2,36.7 402.5,36.5 401.8,36.1 401.2,35.6 400.7,35 400.3,34.3 400.1,33.6 400.2,32.8 400.5,32.1 401,31.4 401.9,30.9 403.2,30.4 404.8,30.1 406.8,30 416.8,30" />
<path stroke="#000000" stroke-width="2" d="M 446.8,70" />
<path stroke="#000000" stroke-width="2" d="M 466.8,30 451.5,67" />
<path stroke="#000000" stroke-width="2" d="M 473.5,70" />
<path stroke="#000000" stroke-width="2" d="M 473.5,50 473.7,50 473.7,50.2 473.5,50.2 473.5,50" />
<path stroke="#000000" stroke-width="2" d="M 503.7,70" />
<path stroke="#000000" stroke-width="2" d="M 503.7,30 519,67" />
<path stroke="#000000" stroke-width="2" d="M 525.6,70" />
<path stroke="#000000" stroke-width="2" d="M 525.6,20 525.8,20 525.8,20.2 525.6,20.2 525.6,20" />
<path stroke="#000000" stroke-width="2" d="M 555.8,70" />
<path stroke="#000000" stroke-width="2" d="M 575.8,30 560.5,67" />
<path stroke="#000000" stroke-width="2" d="M 582.5,70" />
<path stroke="#000000" stroke-width="2" d="M 582.5,50 582.7,50 582.7,50.2 582.5,50.2 582.5,50" />
<path stroke="#000000" stroke-width="2" d="M 612.7,70" />
<path stroke="#000000" stroke-width="2" d="M 612.7,35" />
<path stroke="#000000" stroke-width="2" d="M 612.7,35 614.7,34.9 616.4,34.6 617.6,34.1 618.5,33.6 619,32.9 619.3,32.2 619.4,31.4 619.2,30.7 618.8,30 618.3,29.4 617.7,28.9 617,28.5 616.3,28.3 615.5,28.4 614.8,28.7 614.2,29.2 613.6,30.1 613.1,31.4 612.8,33 612.7,35 612.7,50 605.1,68.5" />
<path stroke="#000000" stroke-width="2" d="M 626,70" />
<path stroke="#000000" stroke-width="2" d="M 626,20 626,40 626,34 626,33.1 626.1,32.3 626.3,31.4 626.5,30.6 626.8,29.7 627.2,28.9 627.6,28.2 628.1,27.5 628.6,26.8 629.3,26.2 629.9,25.6 630.6,25.1 631.4,24.7 632.2,24.3 633,24 633.9,23.8 634.7,23.6 635.6,23.6 627.9,42.1" />
<path stroke="#000000" stroke-width="2" d="M 665.6,70" />
<path stroke="#000000" stroke-width="2" d="M 665.6,40 665.8,40 665.8,40.2 665.6,40.2 665.6,40" />
<path stroke="#000000" stroke-width="2" d="M 672.5,70" />
<path stroke="#000000" stroke-width="2" d="M 672.5,50 672.5,49.3 672.5,48.6 672.6,47.9 672.8,47.2 673.1,46.6 673.3,46 673.7,45.4 674.1,44.8 674.5,44.2 675,43.8 675.6,43.3 676.1,42.9 676.8,42.6 677.4,42.3 678,42 678.7,41.8 679.4,41.7 680.1,41.7 680.8,41.7 681.5,41.7 682.2,41.8 682.9,42 683.5,42.3 684.1,42.6 684.7,42.9 685.3,43.3 685.8,43.8 686.3,44.2 686.8,44.8 687.2,45.4 687.5,46 687.8,46.6 688.1,47.2 688.3,47.9 688.4,48.6 688.4,49.3" />
<path stroke="#000000" stroke-width="2" d="M 688.4,45.3" />
<path stroke="#000000" stroke-width="2" d="M 682.4,45.3 692.4,45.3 700.1,63.8 707.7,45.3" />
<path stroke="#000000" stroke-width="2" d="M 714.4,70" />
<path stroke="#000000" stroke-width="2" d="M 714.4,20 714.4,40 714.4,34 714.4,33.1 714.5,32.3 714.6,31.4 714.9,30.6 715.2,29.7 715.5,28.9 716,28.2 716.5,27.5 717,26.8 717.6,26.2 718.3,25.6 719,25.1 719.8,24.7 720.6,24.3 721.4,24 722.2,23.8 723.1,23.6 724,23.6" />
<path stroke="#000000" stroke-width="2" d="M 724,23.6 726,23.5 727.6,23.2 728.8,22.7 729.7,22.1 730.3,21.5 730.6,20.7 730.6,20 730.4,19.3 730.1,18.6 729.6,17.9 729,17.4 728.3,17.1 727.5,16.9 726.8,17 726.1,17.2 725.4,17.8 724.8,18.7 724.4,19.9 724.1,21.5 724,23.6 724,38.6" />
<path stroke="#000000" stroke-width="2" d="M 737.3,70" />
<path stroke="#000000" stroke-width="2" d="M 745.3,20 745.3,35" />
<path stroke="#000000" stroke-width="2" d="M 745.3,35 745.2,37 744.9,38.6 744.4,39.9 743.8,40.8 743.2,41.3 742.5,41.6 741.7,41.7 741,41.5 740.3,41.1 739.7,40.6 739.2,40 738.8,39.3 738.6,38.6 738.7,37.8 739,37.1 739.5,36.4 740.4,35.9 741.6,35.4 743.3,35.1 745.3,35 765.3,35" />
<path stroke="#000000" stroke-width="2" d="M 795.3,70" />
<path stroke="#000000" stroke-width="2" d="M 795.3,70 795.5,70 795.5,70.2 795.3,70.2 795.3,70" />
<path stroke="#000000" stroke-width="2" d="M 825.5,70" />
<path stroke="#000000" stroke-width="2" d="M 841.5,30 821.7,49.8 841.5,69.6" />
<path stroke="#000000" stroke-width="2" d="M 848.2,70" />
<path stroke="#000000" stroke-width="2" d="M 848.2,20 848.4,20 848.4,20.2 848.2,20.2 848.2,20" />
<path stroke="#000000" stroke-width="2" d="M 878.4,70" />
<path stroke="#000000" stroke-width="2" d="M 878.4,30 893.7,67" />
<path stroke="#000000" stroke-width="2" d="M 900.3,70" />
<path stroke="#000000" stroke-width="2" d="M 900.3,20 901.2,20 902.1,20.1 902.9,20.2 903.8,20.5 904.6,20.8 905.4,21.1 906.1,21.6 906.9,22.1 907.5,22.6 908.1,23.2 908.7,23.9 909.2,24.6 909.6,25.4 910,26.2 910.3,27 910.5,27.8 910.7,28.7 910.8,29.6 910.8,30.4 910.7,31.3 910.5,32.2 910.3,33 910,33.8 909.6,34.6 909.2,35.4 908.7,36.1 908.1,36.7 907.5,37.4 906.9,37.9 906.1,38.4 905.4,38.9 904.6,39.2 903.8,39.5 902.9,39.8 902.1,39.9 901.2,40" />
<path stroke="#000000" stroke-width="2" d="M 940.8,70" />
</svg>