<svg xmlns="http://www.w3.org/2000/svg" width="953.1193055590895" height="90.2" style="fill:none; stroke-linecap:round;">
    <rect width="100%" height="100%" fill="#FFFFFF" />
<path stroke="#000000" stroke-width="2" d="M 550,75" />
<path stroke="#000000" stroke-width="2" d="M 25,30" />
<path stroke="#000000" stroke-width="2" d="M 25,30 23.6,30.1 22.3,30.6 21.2,31.2 20.2,32.1 19.4,33.1 18.7,34.3 18.2,35.6 17.8,37 17.6,38.5 17.5,40 17.6,41.5 17.8,43 18.2,44.4 18.7,45.7 19.4,46.9 20.2,47.9 21.2,48.8 22.3,49.4 23.6,49.9 25,50 45,50" />
<path stroke="#000000" stroke-width="2" d="M 75,70" />
<path stroke="#000000" stroke-width="2" d="M 75,70 75.2,70 75.2,70.2 75,70.2 75,70" />
<path stroke="#000000" stroke-width="2" d="M 81.9,70" />
<path stroke="#000000" stroke-width="2" d="M 81.9,35" />
<path stroke="#000000" stroke-width="2" d="M 81.9,35 83.9,34.9 85.5,34.6 86.7,34.1 87.6,33.6 88.2,32.9 88.5,32.2 88.5,31.4 88.3,30.7 88,30 87.5,29.4 86.9,28.9 86.2,28.5 85.4,28.3 84.7,28.4 84,28.7 83.3,29.2 82.7,30.1 82.3,31.4 82,33 81.9,35 81.9,50" />
<path stroke="#000000" stroke-width="2" d="M 81.9,42" />
<path stroke="#000000" stroke-width="2" d="M 77.9,42 85.9,42 85.9,62 91.5,56.3" />
<path stroke="#000000" stroke-width="2" d="M 98.2,70" />
<path stroke="#000000" stroke-width="2" d="M 100.2,20 108.7,28.5" />
<path stroke="#000000" stroke-width="2" d="M 117.2,20 97.4,39.8" />
<path stroke="#000000" stroke-width="2" d="M 147.2,70" />
<path stroke="#000000" stroke-width="2" d="M 167.2,30 151.9,67" />
<path stroke="#000000" stroke-width="2" d="M 173.8,70" />
<path stroke="#000000" stroke-width="2" d="M 173.8,50" />
<path stroke="#000000" stroke-width="2" d="M 173.8,50 175.3,50.1 176.5,50.6 177.7,51.2 178.6,52.1 179.5,53.1 180.1,54.3 180.7,55.6 181,57 181.3,58.5 181.3,60 181.3,61.5 181,63 180.7,64.4 180.1,65.7 179.5,66.9 178.6,67.9 177.7,68.8 176.5,69.4 175.3,69.9 173.8,70" />
<path stroke="#000000" stroke-width="2" d="M 188,70" />
<path stroke="#000000" stroke-width="2" d="M 190,20 198.5,28.5" />
<path stroke="#000000" stroke-width="2" d="M 207,20 187.2,39.8" />
<path stroke="#000000" stroke-width="2" d="M 237,70" />
<path stroke="#000000" stroke-width="2" d="M 237,40 237.2,40 237.2,40.2 237,40.2 237,40" />
<path stroke="#000000" stroke-width="2" d="M 243.8,70" />
<path stroke="#000000" stroke-width="2" d="M 243.8,30 259.1,67" />
<path stroke="#000000" stroke-width="2" d="M 265.8,70" />
<path stroke="#000000" stroke-width="2" d="M 265.8,20 285.8,20" />
<path stroke="#000000" stroke-width="2" d="M 315.8,70" />
<path stroke="#000000" stroke-width="2" d="M 315.8,70 315.8,68.6 315.9,67.2 316.2,65.8 316.5,64.5 317,63.2 317.6,61.9 318.3,60.7 319.1,59.6 320,58.5 321,57.5 322,56.6 323.2,55.8 324.4,55.1 325.7,54.5 327,54 328.3,53.7 329.7,53.4 331.1,53.3 332.5,53.3 333.9,53.4 335.3,53.7 336.6,54 337.9,54.5 339.2,55.1 340.4,55.8 341.5,56.6 342.6,57.5 343.6,58.5 344.5,59.6 345.3,60.7 346,61.9 346.6,63.2 347,64.5 347.4,65.8 347.7,67.2 347.8,68.6" />
<path stroke="#000000" stroke-width="2" d="M 354.4,70" />
<path stroke="#000000" stroke-width="2" d="M 354.4,20 362.1,38.5" />
<path stroke="#000000" stroke-width="2" d="M 392.1,70" />
<path stroke="#000000" stroke-width="2" d="M 392.1,30" />
<path stroke="#000000" stroke-width="2" d="M 392.1,30 392.2,30 392.7,30 393.3,30 394.2,30.1 395.2,30.2 396.4,30.3 397.7,30.4 399.1,30.6 400.6,30.9 402.1,31.2 403.6,31.7 405.1,32.2 406.5,32.7 407.8,33.4 409,34.2 410,35.1 410.9,36.1 411.5,37.3 412,38.6 412.1,40" />
<path stroke="#000000" stroke-width="2" d="M 412.1,40 414,42.1 415.3,44.1 416.1,45.7 416.4,47.2 416.3,48.4 415.9,49.4 415.2,50.2 414.3,50.8 413.2,51.1 412.1,51.2 411,51.1 409.9,50.8 409,50.2 408.3,49.5 407.9,48.4 407.8,47.2 408.1,45.7 408.9,44.1 410.2,42.1 412.1,40" />
<path stroke="#000000" stroke-width="2" d="M 412.1,40 412.1,39.9 412.1,39.7 412.2,39.4 412.3,39 412.4,38.4 412.6,37.8 413,37.2 413.4,36.5 413.9,35.7 414.6,35 415.4,34.3 416.4,33.5 417.6,32.8 419,32.2 420.5,31.6 422.3,31 424.4,30.6 426.7,30.3 429.2,30.1 432.1,30" />
<path stroke="#000000" stroke-width="2" d="M 432.1,30 432,32 431.7,33.6 431.2,34.9 430.7,35.8 430,36.3 429.3,36.6 428.5,36.7 427.8,36.5 427.1,36.1 426.5,35.6 426,35 425.6,34.3 425.4,33.6 425.5,32.8 425.8,32.1 426.3,31.4 427.2,30.9 428.5,30.4 430.1,30.1 432.1,30 442.1,30" />
<path stroke="#000000" stroke-width="2" d="M 472.1,70" />
<path stroke="#000000" stroke-width="2" d="M 492.1,30 476.8,67" />
<path stroke="#000000" stroke-width="2" d="M 498.8,70" />
<path stroke="#000000" stroke-width="2" d="M 498.8,50 499,50 499,50.2 498.8,50.2 498.8,50" />
<path stroke="#000000" stroke-width="2" d="M 529,70" />
<path stroke="#000000" stroke-width="2" d="M 529,30 544.3,67" />
<path stroke="#000000" stroke-width="2" d="M 550.9,70" />
<path stroke="#000000" stroke-width="2" d="M 550.9,20 551.1,20 551.1,20.2 550.9,20.2 550.9,20" />
<path stroke="#000000" stroke-width="2" d="M 581.1,70" />
<path stroke="#000000" stroke-width="2" d="M 601.1,30 585.8,67" />
<path stroke="#000000" stroke-width="2" d="M 607.8,70" />
<path stroke="#000000" stroke-width="2" d="M 607.8,50 608,50 608,50.2 607.8,50.2 607.8,50" />
<path stroke="#000000" stroke-width="2" d="M 638,70" />
<path stroke="#000000" stroke-width="2" d="M 638,35" />
<path stroke="#000000" stroke-width="2" d="M 638,35 640,34.9 641.6,34.6 642.9,34.1 643.8,33.6 644.3,32.9 644.6,32.2 644.7,31.4 644.5,30.7 644.1,30 643.6,29.4 643,28.9 642.3,28.5 641.6,28.3 640.8,28.4 640.1,28.7 639.4,29.2 638.9,30.1 638.4,31.4 638.1,33 638,35 638,50 630.3,68.5" />
<path stroke="#000000" stroke-width="2" d="M 651.3,70" />
<path stroke="#000000" stroke-width="2" d="M 651.3,20 651.3,40 651.3,34 651.3,33.1 651.4,32.3 651.6,31.4 651.8,30.6 652.1,29.7 652.4,28.9 652.9,28.2 653.4,27.5 653.9,26.8 654.6,26.2 655.2,25.6 655.9,25.1 656.7,24.7 657.5,24.3 658.3,24 659.1,23.8 660,23.6 660.9,23.6 653.2,42.1" />
<path stroke="#000000" stroke-width="2" d="M 690.9,70" />
<path stroke="#000000" stroke-width="2" d="M 690.9,40 691.1,40 691.1,40.2 690.9,40.2 690.9,40" />
<path stroke="#000000" stroke-width="2" d="M 697.7,70" />
<path stroke="#000000" stroke-width="2" d="M 697.7,50 697.7,49.3 697.8,48.6 697.9,47.9 698.1,47.2 698.3,46.6 698.6,46 699,45.4 699.4,44.8 699.8,44.2 700.3,43.8 700.9,43.3 701.4,42.9 702,42.6 702.7,42.3 703.3,42 704,41.8 704.7,41.7 705.4,41.7 706.1,41.7 706.8,41.7 707.5,41.8 708.1,42 708.8,42.3 709.4,42.6 710,42.9 710.6,43.3 711.1,43.8 711.6,44.2 712.1,44.8 712.5,45.4 712.8,46 713.1,46.6 713.4,47.2 713.5,47.9 713.7,48.6 713.7,49.3" />
<path stroke="#000000" stroke-width="2" d="M 713.7,45.3" />
<path stroke="#000000" stroke-width="2" d="M 707.7,45.3 717.7,45.3 725.4,63.8 733,45.3" />
<path stroke="#000000" stroke-width="2" d="M 739.7,70" />
<path stroke="#000000" stroke-width="2" d="M 739.7,20 739.7,40 739.7,34 739.7,33.1 739.8,32.3 739.9,31.4 740.2,30.6 740.5,29.7 740.8,28.9 741.3,28.2 741.8,27.5 742.3,26.8 742.9,26.2 743.6,25.6 744.3,25.1 745.1,24.7 745.9,24.3 746.7,24 747.5,23.8 748.4,23.6 749.3,23.6" />
<path stroke="#000000" stroke-width="2" d="M 749.3,23.6 751.3,23.5 752.9,23.2 754.1,22.7 755,22.1 755.6,21.5 755.9,20.7 755.9,20 755.7,19.3 755.4,18.6 754.9,17.9 754.3,17.4 753.6,17.1 752.8,16.9 752.1,17 751.4,17.2 750.7,17.8 750.1,18.7 749.7,19.9 749.4,21.5 749.3,23.6 749.3,38.6" />
<path stroke="#000000" stroke-width="2" d="M 762.6,70" />
<path stroke="#000000" stroke-width="2" d="M 770.6,20 770.6,35" />
<path stroke="#000000" stroke-width="2" d="M 770.6,35 770.5,37 770.2,38.6 769.7,39.9 769.1,40.8 768.5,41.3 767.7,41.6 767,41.7 766.3,41.5 765.6,41.1 765,40.6 764.5,40 764.1,39.3 763.9,38.6 764,37.8 764.3,37.1 764.8,36.4 765.7,35.9 766.9,35.4 768.5,35.1 770.6,35 790.6,35" />
<path stroke="#000000" stroke-width="2" d="M 820.6,70" />
<path stroke="#000000" stroke-width="2" d="M 820.6,70 820.8,70 820.8,70.2 820.6,70.2 820.6,70" />
<path stroke="#000000" stroke-width="2" d="M 850.8,70" />
<path stroke="#000000" stroke-width="2" d="M 866.8,30 847,49.8 866.8,69.6" />
<path stroke="#000000" stroke-width="2" d="M 873.4,70" />
<path stroke="#000000" stroke-width="2" d="M 873.4,20 873.6,20 873.6,20.2 873.4,20.2 873.4,20" />
<path stroke="#000000" stroke-width="2" d="M 903.6,70" />
<path stroke="#000000" stroke-width="2" d="M 903.6,30 919,67" />
<path stroke="#000000" stroke-width="2" d="M 925.6,70" />
<path stroke="#000000" stroke-width="2" d="M 925.6,20" />
<path stroke="#000000" stroke-width="2" d="M 925.6,20 927,20.1 928.3,20.6 929.4,21.2 930.4,22.1 931.2,23.1 931.9,24.3 932.4,25.6 932.8,27 933,28.5 933.1,30 933,31.5 932.8,33 932.4,34.4 931.9,35.7 931.2,36.9 930.4,37.9 929.4,38.8 928.3,39.4 927,39.9 925.6,40" />
<path stroke="#000000" stroke-width="2" d="M 963.1,70" />
</svg>