<svg xmlns="http://www.w3.org/2000/svg" width="957.2469178117831" height="90.2" style="fill:none; stroke-linecap:round;">
    <rect width="100%" height="100%" fill="#FFFFFF" />
<path stroke="#000000" stroke-width="2" d="M 550,75" />
<path stroke="#000000" stroke-width="2" d="M 30,30 29.1,30 28.3,30.1 27.4,30.2 26.6,30.5 25.7,30.8 24.9,31.1 24.2,31.6 23.5,32.1 22.8,32.6 22.2,33.2 21.6,33.9 21.1,34.6 20.7,35.4 20.3,36.2 20,37 19.8,37.8 19.6,38.7 19.6,39.6 19.6,40.4 19.6,41.3 19.8,42.2 20,43 20.3,43.8 20.7,44.6 21.1,45.4 21.6,46.1 22.2,46.7 22.8,47.4 23.5,47.9 24.2,48.4 24.9,48.9 25.7,49.2 26.6,49.5 27.4,49.8 28.3,49.9 29.1,50 49.1,50" />
<path stroke="#000000" stroke-width="2" d="M 79.1,70" />
<path stroke="#000000" stroke-width="2" d="M 79.1,70 79.3,70 79.3,70.2 79.1,70.2 79.1,70" />
<path stroke="#000000" stroke-width="2" d="M 86,70" />
<path stroke="#000000" stroke-width="2" d="M 86,35" />
<path stroke="#000000" stroke-width="2" d="M 86,35 88,34.9 89.6,34.6 90.9,34.1 91.8,33.6 92.3,32.9 92.6,32.2 92.6,31.4 92.5,30.7 92.1,30 91.6,29.4 91,28.9 90.3,28.5 89.6,28.3 88.8,28.4 88.1,28.7 87.4,29.2 86.9,30.1 86.4,31.4 86.1,33 86,35 86,50" />
<path stroke="#000000" stroke-width="2" d="M 86,42" />
<path stroke="#000000" stroke-width="2" d="M 82,42 90,42 90,62 95.7,56.3" />
<path stroke="#000000" stroke-width="2" d="M 102.3,70" />
<path stroke="#000000" stroke-width="2" d="M 104.3,20 112.8,28.5" />
<path stroke="#000000" stroke-width="2" d="M 121.3,20 101.5,39.8" />
<path stroke="#000000" stroke-width="2" d="M 151.3,70" />
<path stroke="#000000" stroke-width="2" d="M 171.3,30 156,67" />
<path stroke="#000000" stroke-width="2" d="M 178,70" />
<path stroke="#000000" stroke-width="2" d="M 178,50" />
<path stroke="#000000" stroke-width="2" d="M 178,50 179.4,50.1 180.7,50.6 181.8,51.2 182.8,52.1 183.6,53.1 184.3,54.3 184.8,55.6 185.2,57 185.4,58.5 185.5,60 185.4,61.5 185.2,63 184.8,64.4 184.3,65.7 183.6,66.9 182.8,67.9 181.8,68.8 180.7,69.4 179.4,69.9 178,70" />
<path stroke="#000000" stroke-width="2" d="M 192.1,70" />
<path stroke="#000000" stroke-width="2" d="M 194.1,20 202.6,28.5" />
<path stroke="#000000" stroke-width="2" d="M 211.1,20 191.3,39.8" />
<path stroke="#000000" stroke-width="2" d="M 241.1,70" />
<path stroke="#000000" stroke-width="2" d="M 241.1,40 241.3,40 241.3,40.2 241.1,40.2 241.1,40" />
<path stroke="#000000" stroke-width="2" d="M 248,70" />
<path stroke="#000000" stroke-width="2" d="M 248,30 263.3,67" />
<path stroke="#000000" stroke-width="2" d="M 269.9,70" />
<path stroke="#000000" stroke-width="2" d="M 269.9,20 289.9,20" />
<path stroke="#000000" stroke-width="2" d="M 319.9,70" />
<path stroke="#000000" stroke-width="2" d="M 319.9,70 319.9,68.6 320.1,67.2 320.3,65.8 320.7,64.5 321.1,63.2 321.7,61.9 322.4,60.7 323.2,59.6 324.1,58.5 325.1,57.5 326.2,56.6 327.3,55.8 328.5,55.1 329.8,54.5 331.1,54 332.5,53.7 333.8,53.4 335.2,53.3 336.6,53.3 338,53.4 339.4,53.7 340.7,54 342,54.5 343.3,55.1 344.5,55.8 345.7,56.6 346.7,57.5 347.7,58.5 348.6,59.6 349.4,60.7 350.1,61.9 350.7,63.2 351.2,64.5 351.5,65.8 351.8,67.2 351.9,68.6" />
<path stroke="#000000" stroke-width="2" d="M 358.6,70" />
<path stroke="#000000" stroke-width="2" d="M 358.6,20 366.2,38.5" />
<path stroke="#000000" stroke-width="2" d="M 396.2,70" />
<path stroke="#000000" stroke-width="2" d="M 396.2,30" />
<path stroke="#000000" stroke-width="2" d="M 396.2,30 396.4,30 396.8,30 397.4,30 398.3,30.1 399.3,30.2 400.5,30.3 401.9,30.4 403.3,30.6 404.7,30.9 406.2,31.2 407.7,31.7 409.2,32.2 410.6,32.7 411.9,33.4 413.1,34.2 414.1,35.1 415,36.1 415.7,37.3 416.1,38.6 416.2,40" />
<path stroke="#000000" stroke-width="2" d="M 416.2,40 418.1,42.1 419.5,44.1 420.2,45.7 420.5,47.2 420.4,48.4 420,49.4 419.3,50.2 418.4,50.8 417.3,51.1 416.2,51.2 415.1,51.1 414.1,50.8 413.2,50.2 412.4,49.5 412,48.4 411.9,47.2 412.2,45.7 413,44.1 414.3,42.1 416.2,40" />
<path stroke="#000000" stroke-width="2" d="M 416.2,40 416.2,39.9 416.2,39.7 416.3,39.4 416.4,39 416.5,38.4 416.8,37.8 417.1,37.2 417.5,36.5 418,35.7 418.7,35 419.6,34.3 420.5,33.5 421.7,32.8 423.1,32.2 424.7,31.6 426.5,31 428.5,30.6 430.8,30.3 433.4,30.1 436.2,30" />
<path stroke="#000000" stroke-width="2" d="M 436.2,30 436.1,32 435.8,33.6 435.4,34.9 434.8,35.8 434.1,36.3 433.4,36.6 432.6,36.7 431.9,36.5 431.2,36.1 430.6,35.6 430.1,35 429.7,34.3 429.6,33.6 429.6,32.8 429.9,32.1 430.5,31.4 431.3,30.9 432.6,30.4 434.2,30.1 436.2,30 446.2,30" />
<path stroke="#000000" stroke-width="2" d="M 476.2,70" />
<path stroke="#000000" stroke-width="2" d="M 496.2,30 480.9,67" />
<path stroke="#000000" stroke-width="2" d="M 502.9,70" />
<path stroke="#000000" stroke-width="2" d="M 502.9,50 503.1,50 503.1,50.2 502.9,50.2 502.9,50" />
<path stroke="#000000" stroke-width="2" d="M 533.1,70" />
<path stroke="#000000" stroke-width="2" d="M 533.1,30 548.4,67" />
<path stroke="#000000" stroke-width="2" d="M 555.1,70" />
<path stroke="#000000" stroke-width="2" d="M 555.1,20 555.3,20 555.3,20.2 555.1,20.2 555.1,20" />
<path stroke="#000000" stroke-width="2" d="M 585.3,70" />
<path stroke="#000000" stroke-width="2" d="M 605.3,30 590,67" />
<path stroke="#000000" stroke-width="2" d="M 611.9,70" />
<path stroke="#000000" stroke-width="2" d="M 611.9,50 612.1,50 612.1,50.2 611.9,50.2 611.9,50" />
<path stroke="#000000" stroke-width="2" d="M 642.1,70" />
<path stroke="#000000" stroke-width="2" d="M 642.1,35" />
<path stroke="#000000" stroke-width="2" d="M 642.1,35 644.2,34.9 645.8,34.6 647,34.1 647.9,33.6 648.5,32.9 648.7,32.2 648.8,31.4 648.6,30.7 648.3,30 647.8,29.4 647.1,28.9 646.5,28.5 645.7,28.3 645,28.4 644.2,28.7 643.6,29.2 643,30.1 642.5,31.4 642.2,33 642.1,35 642.1,50 634.5,68.5" />
<path stroke="#000000" stroke-width="2" d="M 655.5,70" />
<path stroke="#000000" stroke-width="2" d="M 655.5,20 655.5,40 655.5,34 655.5,33.1 655.5,32.3 655.7,31.4 655.9,30.6 656.2,29.7 656.6,28.9 657,28.2 657.5,27.5 658.1,26.8 658.7,26.2 659.4,25.6 660.1,25.1 660.8,24.7 661.6,24.3 662.4,24 663.3,23.8 664.1,23.6 665,23.6 657.4,42.1" />
<path stroke="#000000" stroke-width="2" d="M 695,70" />
<path stroke="#000000" stroke-width="2" d="M 695,40 695.2,40 695.2,40.2 695,40.2 695,40" />
<path stroke="#000000" stroke-width="2" d="M 701.9,70" />
<path stroke="#000000" stroke-width="2" d="M 701.9,50 701.9,49.3 701.9,48.6 702.1,47.9 702.2,47.2 702.5,46.6 702.8,46 703.1,45.4 703.5,44.8 704,44.2 704.5,43.8 705,43.3 705.6,42.9 706.2,42.6 706.8,42.3 707.5,42 708.1,41.8 708.8,41.7 709.5,41.7 710.2,41.7 710.9,41.7 711.6,41.8 712.3,42 712.9,42.3 713.6,42.6 714.2,42.9 714.7,43.3 715.3,43.8 715.8,44.2 716.2,44.8 716.6,45.4 717,46 717.3,46.6 717.5,47.2 717.7,47.9 717.8,48.6 717.9,49.3" />
<path stroke="#000000" stroke-width="2" d="M 717.9,45.3" />
<path stroke="#000000" stroke-width="2" d="M 711.9,45.3 721.9,45.3 729.5,63.8 737.2,45.3" />
<path stroke="#000000" stroke-width="2" d="M 743.8,70" />
<path stroke="#000000" stroke-width="2" d="M 743.8,20 743.8,40 743.8,34 743.8,33.1 743.9,32.3 744.1,31.4 744.3,30.6 744.6,29.7 745,28.9 745.4,28.2 745.9,27.5 746.4,26.8 747.1,26.2 747.7,25.6 748.4,25.1 749.2,24.7 750,24.3 750.8,24 751.7,23.8 752.5,23.6 753.4,23.6" />
<path stroke="#000000" stroke-width="2" d="M 753.4,23.6 755.4,23.5 757,23.2 758.3,22.7 759.1,22.1 759.7,21.5 760,20.7 760,20 759.9,19.3 759.5,18.6 759,17.9 758.4,17.4 757.7,17.1 757,16.9 756.2,17 755.5,17.2 754.8,17.8 754.2,18.7 753.8,19.9 753.5,21.5 753.4,23.6 753.4,38.6" />
<path stroke="#000000" stroke-width="2" d="M 766.7,70" />
<path stroke="#000000" stroke-width="2" d="M 774.7,20 774.7,35" />
<path stroke="#000000" stroke-width="2" d="M 774.7,35 774.6,37 774.3,38.6 773.8,39.9 773.3,40.8 772.6,41.3 771.9,41.6 771.1,41.7 770.4,41.5 769.7,41.1 769.1,40.6 768.6,40 768.2,39.3 768.1,38.6 768.1,37.8 768.4,37.1 768.9,36.4 769.8,35.9 771.1,35.4 772.7,35.1 774.7,35 794.7,35" />
<path stroke="#000000" stroke-width="2" d="M 824.7,70" />
<path stroke="#000000" stroke-width="2" d="M 824.7,70 824.9,70 824.9,70.2 824.7,70.2 824.7,70" />
<path stroke="#000000" stroke-width="2" d="M 854.9,70" />
<path stroke="#000000" stroke-width="2" d="M 870.9,30 851.1,49.8 870.9,69.6" />
<path stroke="#000000" stroke-width="2" d="M 877.6,70" />
<path stroke="#000000" stroke-width="2" d="M 877.6,20 877.8,20 877.8,20.2 877.6,20.2 877.6,20" />
<path stroke="#000000" stroke-width="2" d="M 907.8,70" />
<path stroke="#000000" stroke-width="2" d="M 907.8,30 923.1,67" />
<path stroke="#000000" stroke-width="2" d="M 929.7,70" />
<path stroke="#000000" stroke-width="2" d="M 929.7,20" />
<path stroke="#000000" stroke-width="2" d="M 929.7,20 931.2,20.1 932.4,20.6 933.6,21.2 934.5,22.1 935.4,23.1 936,24.3 936.6,25.6 936.9,27 937.2,28.5 937.2,30 937.2,31.5 936.9,33 936.6,34.4 936,35.7 935.4,36.9 934.5,37.9 933.6,38.8 932.4,39.4 931.2,39.9 929.7,40" />
<path stroke="#000000" stroke-width="2" d="M 967.2,70" />
</svg>