<svg xmlns="http://www.w3.org/2000/svg" width="959.1193055590895" height="90.2" style="fill:none; stroke-linecap:round;">
    <rect width="100%" height="100%" fill="#FFFFFF" />
<path stroke="#000000" stroke-width="2" d="M 550,75" />
<path stroke="#000000" stroke-width="2" d="M 25,30" />
<path stroke="#000000" stroke-width="2" d="M 25,30 23.6,30.1 22.3,30.6 21.2,31.2 20.2,32.1 19.4,33.1 18.7,34.3 18.2,35.6 17.8,37 17.6,38.5 17.5,40 17.6,41.5 17.8,43 18.2,44.4 18.7,45.7 19.4,46.9 20.2,47.9 21.2,48.8 22.3,49.4 23.6,49.9 25,50 45,50" />
<path stroke="#000000" stroke-width="2" d="M 75,70" />
<path stroke="#000000" stroke-width="2" d="M 75,70 75.2,70 75.2,70.2 75,70.2 75,70" />
<path stroke="#000000" stroke-width="2" d="M 81.9,70" />
<path stroke="#000000" stroke-width="2" d="M 81.9,35" />
<path stroke="#000000" stroke-width="2" d="M 81.9,35 83.9,34.9 85.5,34.6 86.7,34.1 87.6,33.6 88.2,32.9 88.5,32.2 88.5,31.4 88.3,30.7 88,30 87.5,29.4 86.9,28.9 86.2,28.5 85.4,28.3 84.7,28.4 84,28.7 83.3,29.2 82.7,30.1 82.3,31.4 82,33 81.9,35 81.9,50" />
<path stroke="#000000" stroke-width="2" d="M 81.9,42" />
<path stroke="#000000" stroke-width="2" d="M 77.9,42 85.9,42 85.9,62 91.5,56.3" />
<path stroke="#000000" stroke-width="2" d="M 98.2,70" />
<path stroke="#000000" stroke-width="2" d="M 100.2,20 108.7,28.5" />
<path stroke="#000000" stroke-width="2" d="M 117.2,20 97.4,39.8" />
<path stroke="#000000" stroke-width="2" d="M 147.2,70" />
<path stroke="#000000" stroke-width="2" d="M 167.2,30 151.9,67" />
<path stroke="#000000" stroke-width="2" d="M 173.8,70" />
<path stroke="#000000" stroke-width="2" d="M 173.8,50" />
<path stroke="#000000" stroke-width="2" d="M 173.8,50 175.3,50.1 176.5,50.6 177.7,51.2 178.6,52.1 179.5,53.1 180.1,54.3 180.7,55.6 181,57 181.3,58.5 181.3,60 181.3,61.5 181,63 180.7,64.4 180.1,65.7 179.5,66.9 178.6,67.9 177.7,68.8 176.5,69.4 175.3,69.9 173.8,70" />
<path stroke="#000000" stroke-width="2" d="M 188,70" />
<path stroke="#000000" stroke-width="2" d="M 190,20 198.5,28.5" />
<path stroke="#000000" stroke-width="2" d="M 207,20 187.2,39.8" />
<path stroke="#000000" stroke-width="2" d="M 237,70" />
<path stroke="#000000" stroke-width="2" d="M 237,40 237.2,40 237.2,40.2 237,40.2 237,40" />
<path stroke="#000000" stroke-width="2" d="M 243.8,70" />
<path stroke="#000000" stroke-width="2" d="M 243.8,30 259.1,67" />
<path stroke="#000000" stroke-width="2" d="M 265.8,70" />
<path stroke="#000000" stroke-width="2" d="M 265.8,20 285.8,20" />
<path stroke="#000000" stroke-width="2" d="M 315.8,70" />
<path stroke="#000000" stroke-width="2" d="M 315.8,46 315.8,44.6 315.9,43.2 316.2,41.8 316.5,40.5 317,39.2 317.6,37.9 318.3,36.7 319.1,35.6 320,34.5 321,33.5 322,32.6 323.2,31.8 324.4,31.1 325.7,30.5 327,30 328.3,29.7 329.7,29.4 331.1,29.3 332.5,29.3 333.9,29.4 335.3,29.7 336.6,30 337.9,30.5 339.2,31.1 340.4,31.8 341.5,32.6 342.6,33.5 343.6,34.5 344.5,35.6 345.3,36.7 346,37.9 346.6,39.2 347,40.5 347.4,41.8 347.7,43.2 347.8,44.6" />
<path stroke="#000000" stroke-width="2" d="M 354.4,70" />
<path stroke="#000000" stroke-width="2" d="M 354.4,20 362.1,38.5" />
<path stroke="#000000" stroke-width="2" d="M 392.1,70" />
<path stroke="#000000" stroke-width="2" d="M 392.1,30" />
<path stroke="#000000" stroke-width="2" d="M 392.1,30 392.2,30 392.7,30 393.3,30 394.2,30.1 395.2,30.2 396.4,30.3 397.7,30.4 399.1,30.6 400.6,30.9 402.1,31.2 403.6,31.7 405.1,32.2 406.5,32.7 407.8,33.4 409,34.2 410,35.1 410.9,36.1 411.5,37.3 412,38.6 412.1,40" />
<path stroke="#000000" stroke-width="2" d="M 412.1,40 414,42.1 415.3,44.1 416.1,45.7 416.4,47.2 416.3,48.4 415.9,49.4 415.2,50.2 414.3,50.8 413.2,51.1 412.1,51.2 411,51.1 409.9,50.8 409,50.2 408.3,49.5 407.9,48.4 407.8,47.2 408.1,45.7 408.9,44.1 410.2,42.1 412.1,40" />
<path stroke="#000000" stroke-width="2" d="M 412.1,40 412.1,39.9 412.1,39.7 412.2,39.4 412.3,39 412.4,38.4 412.6,37.8 413,37.2 413.4,36.5 413.9,35.7 414.6,35 415.4,34.3 416.4,33.5 417.6,32.8 419,32.2 420.5,31.6 422.3,31 424.4,30.6 426.7,30.3 429.2,30.1 432.1,30" />
<path stroke="#000000" stroke-width="2" d="M 432.1,30 432,32 431.7,33.6 431.2,34.9 430.7,35.8 430,36.3 429.3,36.6 428.5,36.7 427.8,36.5 427.1,36.1 426.5,35.6 426,35 425.6,34.3 425.4,33.6 425.5,32.8 425.8,32.1 426.3,31.4 427.2,30.9 428.5,30.4 430.1,30.1 432.1,30 442.1,30" />
<path stroke="#000000" stroke-width="2" d="M 472.1,70" />
<path stroke="#000000" stroke-width="2" d="M 492.1,30 476.8,67" />
<path stroke="#000000" stroke-width="2" d="M 498.8,70" />
<path stroke="#000000" stroke-width="2" d="M 498.8,50 499,50 499,50.2 498.8,50.2 498.8,50" />
<path stroke="#000000" stroke-width="2" d="M 529,70" />
<path stroke="#000000" stroke-width="2" d="M 529,30 544.3,67" />
<path stroke="#000000" stroke-width="2" d="M 550.9,70" />
<path stroke="#000000" stroke-width="2" d="M 550.9,20 551.1,20 551.1,20.2 550.9,20.2 550.9,20" />
<path stroke="#000000" stroke-width="2" d="M 581.1,70" />
<path stroke="#000000" stroke-width="2" d="M 601.1,30 585.8,67" />
<path stroke="#000000" stroke-width="2" d="M 607.8,70" />
<path stroke="#000000" stroke-width="2" d="M 607.8,50 608,50 608,50.2 607.8,50.2 607.8,50" />
<path stroke="#000000" stroke-width="2" d="M 638,70" />
<path stroke="#000000" stroke-width="2" d="M 638,35" />
<path stroke="#000000" stroke-width="2" d="M 638,35 640,34.9 641.6,34.6 642.9,34.1 643.8,33.6 644.3,32.9 644.6,32.2 644.7,31.4 644.5,30.7 644.1,30 643.6,29.4 643,28.9 642.3,28.5 641.6,28.3 640.8,28.4 640.1,28.7 639.4,29.2 638.9,30.1 638.4,31.4 638.1,33 638,35 638,50 630.3,68.5" />
<path stroke="#000000" stroke-width="2" d="M 651.3,70" />
<path stroke="#000000" stroke-width="2" d="M 651.3,20 651.3,40 651.3,34 651.3,33.1 651.4,32.3 651.6,31.4 651.8,30.6 652.1,29.7 652.4,28.9 652.9,28.2 653.4,27.5 653.9,26.8 654.6,26.2 655.2,25.6 655.9,25.1 656.7,24.7 657.5,24.3 658.3,24 659.1,23.8 660,23.6 660.9,23.6 653.2,42.1" />
<path stroke="#000000" stroke-width="2" d="M 690.9,70" />
<path stroke="#000000" stroke-width="2" d="M 690.9,40 691.1,40 691.1,40.2 690.9,40.2 690.9,40" />
<path stroke="#000000" stroke-width="2" d="M 697.7,70" />
<path stroke="#000000" stroke-width="2" d="M 697.7,38 697.7,37.3 697.8,36.6 697.9,35.9 698.1,35.2 698.3,34.6 698.6,34 699,33.4 699.4,32.8 699.8,32.2 700.3,31.8 700.9,31.3 701.4,30.9 702,30.6 702.7,30.3 703.3,30 704,29.8 704.7,29.7 705.4,29.7 706.1,29.7 706.8,29.7 707.5,29.8 708.1,30 708.8,30.3 709.4,30.6 710,30.9 710.6,31.3 711.1,31.8 711.6,32.2 712.1,32.8 712.5,33.4 712.8,34 713.1,34.6 713.4,35.2 713.5,35.9 713.7,36.6 713.7,37.3" />
<path stroke="#000000" stroke-width="2" d="M 713.7,33.3" />
<path stroke="#000000" stroke-width="2" d="M 707.7,33.3 723.7,33.3 731.4,51.8 739,33.3" />
<path stroke="#000000" stroke-width="2" d="M 745.7,70" />
<path stroke="#000000" stroke-width="2" d="M 745.7,20 745.7,40 745.7,34 745.7,33.1 745.8,32.3 745.9,31.4 746.2,30.6 746.5,29.7 746.8,28.9 747.3,28.2 747.8,27.5 748.3,26.8 748.9,26.2 749.6,25.6 750.3,25.1 751.1,24.7 751.9,24.3 752.7,24 753.5,23.8 754.4,23.6 755.3,23.6" />
<path stroke="#000000" stroke-width="2" d="M 755.3,23.6 757.3,23.5 758.9,23.2 760.1,22.7 761,22.1 761.6,21.5 761.9,20.7 761.9,20 761.7,19.3 761.4,18.6 760.9,17.9 760.3,17.4 759.6,17.1 758.8,16.9 758.1,17 757.4,17.2 756.7,17.8 756.1,18.7 755.7,19.9 755.4,21.5 755.3,23.6 755.3,38.6" />
<path stroke="#000000" stroke-width="2" d="M 768.6,70" />
<path stroke="#000000" stroke-width="2" d="M 776.6,20 776.6,35" />
<path stroke="#000000" stroke-width="2" d="M 776.6,35 776.5,37 776.2,38.6 775.7,39.9 775.1,40.8 774.5,41.3 773.7,41.6 773,41.7 772.3,41.5 771.6,41.1 771,40.6 770.5,40 770.1,39.3 769.9,38.6 770,37.8 770.3,37.1 770.8,36.4 771.7,35.9 772.9,35.4 774.5,35.1 776.6,35 796.6,35" />
<path stroke="#000000" stroke-width="2" d="M 826.6,70" />
<path stroke="#000000" stroke-width="2" d="M 826.6,70 826.8,70 826.8,70.2 826.6,70.2 826.6,70" />
<path stroke="#000000" stroke-width="2" d="M 856.8,70" />
<path stroke="#000000" stroke-width="2" d="M 872.8,30 853,49.8 872.8,69.6" />
<path stroke="#000000" stroke-width="2" d="M 879.4,70" />
<path stroke="#000000" stroke-width="2" d="M 879.4,20 879.6,20 879.6,20.2 879.4,20.2 879.4,20" />
<path stroke="#000000" stroke-width="2" d="M 909.6,70" />
<path stroke="#000000" stroke-width="2" d="M 909.6,30 925,67" />
<path stroke="#000000" stroke-width="2" d="M 931.6,70" />
<path stroke="#000000" stroke-width="2" d="M 931.6,20" />
<path stroke="#000000" stroke-width="2" d="M 931.6,20 933,20.1 934.3,20.6 935.4,21.2 936.4,22.1 937.2,23.1 937.9,24.3 938.4,25.6 938.8,27 939,28.5 939.1,30 939,31.5 938.8,33 938.4,34.4 937.9,35.7 937.2,36.9 936.4,37.9 935.4,38.8 934.3,39.4 933,39.9 931.6,40" />
<path stroke="#000000" stroke-width="2" d="M 969.1,70" />
</svg>