<svg xmlns="http://www.w3.org/2000/svg" width="913.1473897938531" height="108.47759065022574" style="fill:none; stroke-linecap:round;">
    <rect width="100%" height="100%" fill="#FFFFFF" />
<path stroke="#000000" stroke-width="2" d="M 550,75" />
<path stroke="#000000" stroke-width="2" d="M 20,30 25,30 25,50 25,70 25,64 25,63.1 25.1,62.3 25.2,61.4 25.5,60.6 25.8,59.7 26.1,58.9 26.6,58.2 27.1,57.5 27.6,56.8 28.2,56.2 28.9,55.6 29.6,55.1 30.4,54.7 31.2,54.3 32,54 32.8,53.8 33.7,53.6 34.6,53.6" />
<path stroke="#000000" stroke-width="2" d="M 41.2,70" />
<path stroke="#000000" stroke-width="2" d="M 41.2,50 48.9,68.5" />
<path stroke="#000000" stroke-width="2" d="M 78.9,70" />
<path stroke="#000000" stroke-width="2" d="M 94.9,30 75.1,49.8 94.9,69.6" />
<path stroke="#000000" stroke-width="2" d="M 101.5,70" />
<path stroke="#000000" stroke-width="2" d="M 101.5,40" />
<path stroke="#000000" stroke-width="2" d="M 101.5,40 105.6,39.8 108.8,39.2 111.3,38.3 113.1,37.1 114.2,35.8 114.8,34.3 114.9,32.8 114.5,31.4 113.8,30 112.8,28.8 111.6,27.7 110.2,27 108.7,26.7 107.2,26.8 105.8,27.3 104.4,28.5 103.3,30.2 102.4,32.7 101.8,35.9 101.5,40 101.5,70" />
<path stroke="#000000" stroke-width="2" d="M 144.9,70" />
<path stroke="#000000" stroke-width="2" d="M 144.9,30 144.9,70" />
<path stroke="#000000" stroke-width="2" d="M 151.5,70" />
<path stroke="#000000" stroke-width="2" d="M 151.5,20 171.5,20" />
<path stroke="#000000" stroke-width="2" d="M 178.2,70" />
<path stroke="#000000" stroke-width="2" d="M 178.2,20 178.2,20.7 178.2,21.4 178.4,22.1 178.5,22.8 178.8,23.4 179.1,24 179.4,24.6 179.8,25.2 180.3,25.8 180.8,26.2 181.3,26.7 181.9,27.1 182.5,27.4 183.1,27.7 183.8,28 184.4,28.2 185.1,28.3 185.8,28.3 186.5,28.3 187.2,28.3 187.9,28.2 188.6,28 189.2,27.7 189.9,27.4 190.5,27.1 191,26.7 191.6,26.2 192.1,25.8 192.5,25.2 192.9,24.6 193.3,24 193.6,23.4 193.8,22.8 194,22.1 194.1,21.4 194.2,20.7" />
<path stroke="#000000" stroke-width="2" d="M 200.8,70" />
<path stroke="#000000" stroke-width="2" d="M 220.8,30 205.5,67" />
<path stroke="#000000" stroke-width="2" d="M 227.5,70" />
<path stroke="#000000" stroke-width="2" d="M 227.5,30 227.9,30 227.9,30.4 227.5,30.4 227.5,30" />
<path stroke="#000000" stroke-width="2" d="M 257.9,70" />
<path stroke="#000000" stroke-width="2" d="M 257.9,70 258.1,70 258.1,70.2 257.9,70.2 257.9,70" />
<path stroke="#000000" stroke-width="2" d="M 288.1,70" />
<path stroke="#000000" stroke-width="2" d="M 288.1,30 288.1,70 308.1,70" />
<path stroke="#000000" stroke-width="2" d="M 338.1,70" />
<path stroke="#000000" stroke-width="2" d="M 338.1,50 345.8,31.5 353.4,50 353.4,50.7 353.5,51.4 353.6,52.1 353.8,52.8 354,53.4 354.3,54 354.7,54.6 355.1,55.2 355.5,55.8 356,56.2 356.5,56.7 357.1,57.1 357.7,57.4 358.3,57.7 359,58 359.7,58.2 360.4,58.3 361.1,58.3 361.8,58.3 362.4,58.3 363.1,58.2 363.8,58 364.5,57.7 365.1,57.4 365.7,57.1 366.3,56.7 366.8,56.2 367.3,55.8 367.7,55.2 368.1,54.6 368.5,54 368.8,53.4 369,52.8 369.2,52.1 369.3,51.4 369.4,50.7 377,69.2" />
<path stroke="#000000" stroke-width="2" d="M 383.7,70" />
<path stroke="#000000" stroke-width="2" d="M 383.7,55" />
<path stroke="#000000" stroke-width="2" d="M 383.7,55 385.7,54.9 387.4,54.6 388.6,54.1 389.5,53.6 390,52.9 390.3,52.2 390.4,51.4 390.2,50.7 389.8,50 389.3,49.4 388.7,48.9 388,48.5 387.3,48.3 386.5,48.4 385.8,48.7 385.2,49.2 384.6,50.1 384.1,51.4 383.8,53 383.7,55 383.7,70 376.1,88.5" />
<path stroke="#000000" stroke-width="2" d="M 420.4,70" />
<path stroke="#000000" stroke-width="2" d="M 420.4,30 422.1,30 423.9,30.2 425.6,30.5 427.3,30.9 428.9,31.5 430.5,32.2 432,33.1 433.4,34.1 434.8,35.2 436,36.5 437.1,37.8 438.1,39.2 439,40.7 439.7,42.3 440.3,44 440.8,45.7 441.1,47.4 441.2,49.1 441.2,50.9 441.1,52.6 440.8,54.3 440.3,56 439.7,57.6 439,59.2 438.1,60.7 437.1,62.2 436,63.5 434.8,64.7 433.4,65.8 432,66.8 430.5,67.7 428.9,68.5 427.3,69.1 425.6,69.5 423.9,69.8 422.1,70" />
<path stroke="#000000" stroke-width="2" d="M 447.9,70" />
<path stroke="#000000" stroke-width="2" d="M 447.9,30 448.8,30 449.6,30.1 450.5,30.2 451.3,30.5 452.2,30.8 452.9,31.1 453.7,31.6 454.4,32.1 455.1,32.6 455.7,33.2 456.3,33.9 456.8,34.6 457.2,35.4 457.6,36.2 457.9,37 458.1,37.8 458.2,38.7 458.3,39.6 458.3,40.4 458.2,41.3 458.1,42.2 457.9,43 457.6,43.8 457.2,44.6 456.8,45.4 456.3,46.1 455.7,46.7 455.1,47.4 454.4,47.9 453.7,48.4 452.9,48.9 452.2,49.2 451.3,49.5 450.5,49.8 449.6,49.9 448.8,50 468.8,50 461.1,68.5" />
<path stroke="#000000" stroke-width="2" d="M 498.8,70" />
<path stroke="#000000" stroke-width="2" d="M 498.8,30 538.8,30" />
<path stroke="#000000" stroke-width="2" d="M 545.4,70" />
<path stroke="#000000" stroke-width="2" d="M 555.4,50 547.8,68.5" />
<path stroke="#000000" stroke-width="2" d="M 562.1,70" />
<path stroke="#000000" stroke-width="2" d="M 572.1,30 562.1,30 562.1,70" />
<path stroke="#000000" stroke-width="2" d="M 578.8,70" />
<path stroke="#000000" stroke-width="2" d="M 578.8,20 579,20 579,20.2 578.8,20.2 578.8,20" />
<path stroke="#000000" stroke-width="2" d="M 609,70" />
<path stroke="#000000" stroke-width="2" d="M 609,30 609,50 619,50 611.3,68.5" />
<path stroke="#000000" stroke-width="2" d="M 649,70" />
<path stroke="#000000" stroke-width="2" d="M 665,30 645.2,49.8 665,69.6" />
<path stroke="#000000" stroke-width="2" d="M 671.6,70" />
<path stroke="#000000" stroke-width="2" d="M 671.6,20 672.5,20 673.4,20.1 674.2,20.2 675.1,20.5 675.9,20.8 676.7,21.1 677.4,21.6 678.2,22.1 678.8,22.6 679.4,23.2 680,23.9 680.5,24.6 680.9,25.4 681.3,26.2 681.6,27 681.8,27.8 682,28.7 682.1,29.6 682.1,30.4 682,31.3 681.8,32.2 681.6,33 681.3,33.8 680.9,34.6 680.5,35.4 680,36.1 679.4,36.7 678.8,37.4 678.2,37.9 677.4,38.4 676.7,38.9 675.9,39.2 675.1,39.5 674.2,39.8 673.4,39.9 672.5,40" />
<path stroke="#000000" stroke-width="2" d="M 712.1,70" />
<path stroke="#000000" stroke-width="2" d="M 728.1,30 708.3,49.8 728.1,69.6" />
<path stroke="#000000" stroke-width="2" d="M 734.7,70" />
<path stroke="#000000" stroke-width="2" d="M 742.7,20" />
<path stroke="#000000" stroke-width="2" d="M 742.7,20 742.6,22 742.3,23.6 741.9,24.9 741.3,25.8 740.6,26.3 739.9,26.6 739.1,26.7 738.4,26.5 737.7,26.1 737.1,25.6 736.6,25 736.2,24.3 736.1,23.6 736.1,22.8 736.4,22.1 737,21.4 737.8,20.9 739.1,20.4 740.7,20.1 742.7,20 752.7,20" />
<path stroke="#000000" stroke-width="2" d="M 759.4,70" />
<path stroke="#000000" stroke-width="2" d="M 759.4,20 779.4,20" />
<path stroke="#000000" stroke-width="2" d="M 786.1,70" />
<path stroke="#000000" stroke-width="2" d="M 786.1,20 786.9,20 787.8,20.1 788.7,20.2 789.5,20.5 790.3,20.8 791.1,21.1 791.9,21.6 792.6,22.1 793.2,22.6 793.9,23.2 794.4,23.9 794.9,24.6 795.4,25.4 795.7,26.2 796,27 796.3,27.8 796.4,28.7 796.5,29.6 796.5,30.4 796.4,31.3 796.3,32.2 796,33 795.7,33.8 795.4,34.6 794.9,35.4 794.4,36.1 793.9,36.7 793.2,37.4 792.6,37.9 791.9,38.4 791.1,38.9 790.3,39.2 789.5,39.5 788.7,39.8 787.8,39.9 786.9,40" />
<path stroke="#000000" stroke-width="2" d="M 826.5,70" />
<path stroke="#000000" stroke-width="2" d="M 826.5,30 826.5,70" />
<path stroke="#000000" stroke-width="2" d="M 833.1,70" />
<path stroke="#000000" stroke-width="2" d="M 843.1,50 835.5,68.5" />
<path stroke="#000000" stroke-width="2" d="M 873.1,70" />
<path stroke="#000000" stroke-width="2" d="M 873.1,30 873.1,70 893.1,70" />
<path stroke="#000000" stroke-width="2" d="M 923.1,70" />
</svg>