<svg xmlns="http://www.w3.org/2000/svg" width="871.3301135003935" height="92.0509145607538" style="fill:none; stroke-linecap:round;">
    <rect width="100%" height="100%" fill="#FFFFFF" />
<path stroke="#000000" stroke-width="2" d="M 550,75" />
<path stroke="#000000" stroke-width="2" d="M 40,30 24.7,67 29.3,55.9 30,54.3 30.8,52.7 31.7,51.2 32.8,49.9 33.9,48.6 35.2,47.4 36.6,46.3 38.1,45.4 39.6,44.6 41.2,43.9 42.9,43.4 44.6,43" />
<path stroke="#000000" stroke-width="2" d="M 51.3,70" />
<path stroke="#000000" stroke-width="2" d="M 51.3,30" />
<path stroke="#000000" stroke-width="2" d="M 51.3,30 54.1,30.3 56.7,31.1 58.9,32.4 60.9,34.2 62.5,36.2 63.9,38.6 64.9,41.3 65.7,44.1 66.1,47 66.3,50 66.1,53 65.7,55.9 64.9,58.7 63.9,61.4 62.5,63.8 60.9,65.8 58.9,67.6 56.7,68.9 54.1,69.7 51.3,70" />
<path stroke="#000000" stroke-width="2" d="M 96.3,70" />
<path stroke="#000000" stroke-width="2" d="M 116.3,30 101,67" />
<path stroke="#000000" stroke-width="2" d="M 122.9,70" />
<path stroke="#000000" stroke-width="2" d="M 122.9,50 123.1,50 123.1,50.2 122.9,50.2 122.9,50" />
<path stroke="#000000" stroke-width="2" d="M 153.1,70" />
<path stroke="#000000" stroke-width="2" d="M 153.1,30 153.1,70" />
<path stroke="#000000" stroke-width="2" d="M 159.8,70" />
<path stroke="#000000" stroke-width="2" d="M 159.8,20 160,20 160,20.2 159.8,20.2 159.8,20" />
<path stroke="#000000" stroke-width="2" d="M 190,70" />
<path stroke="#000000" stroke-width="2" d="M 202,54" />
<path stroke="#000000" stroke-width="2" d="M 202,54 201.8,49.9 201.2,46.7 200.3,44.2 199.1,42.5 197.8,41.3 196.3,40.8 194.8,40.7 193.4,41 192,41.7 190.8,42.8 189.8,44 189,45.4 188.7,46.8 188.8,48.3 189.3,49.8 190.5,51.1 192.3,52.3 194.7,53.2 197.9,53.8 202,54 210,54" />
<path stroke="#000000" stroke-width="2" d="M 210,54 211.7,53.4 213.4,52.7 214.9,51.9 216.3,51.2 217.6,50.3 218.8,49.4 219.8,48.5 220.8,47.5 221.7,46.5 222.5,45.5 223.2,44.4 223.8,43.3 224.4,42.2 224.8,41.1 225.2,39.9 225.5,38.8 225.7,37.6 225.9,36.4 226,35.2 226,34" />
<path stroke="#000000" stroke-width="2" d="M 232.7,70" />
<path stroke="#000000" stroke-width="2" d="M 232.7,25" />
<path stroke="#000000" stroke-width="2" d="M 232.7,25 234.7,24.9 236.3,24.6 237.5,24.1 238.4,23.6 239,22.9 239.3,22.2 239.3,21.4 239.2,20.7 238.8,20 238.3,19.4 237.7,18.9 237,18.5 236.3,18.3 235.5,18.4 234.8,18.7 234.1,19.2 233.5,20.1 233.1,21.4 232.8,23 232.7,25 232.7,40" />
<path stroke="#000000" stroke-width="2" d="M 246,70" />
<path stroke="#000000" stroke-width="2" d="M 246,20 266,20 258.3,38.5" />
<path stroke="#000000" stroke-width="2" d="M 296,70" />
<path stroke="#000000" stroke-width="2" d="M 296,30 316,30" />
<path stroke="#000000" stroke-width="2" d="M 316,30 317.4,30.1 318.7,30.6 319.8,31.2 320.8,32.1 321.6,33.1 322.3,34.3 322.8,35.6 323.2,37 323.4,38.5 323.5,40 323.4,41.5 323.2,43 322.8,44.4 322.3,45.7 321.6,46.9 320.8,47.9 319.8,48.8 318.7,49.4 317.4,49.9 316,50" />
<path stroke="#000000" stroke-width="2" d="M 353.5,70" />
<path stroke="#000000" stroke-width="2" d="M 353.5,50 361.1,31.5 368.8,50 368.8,49.3 368.9,48.6 369,47.9 369.2,47.2 369.4,46.6 369.7,46 370,45.4 370.4,44.8 370.9,44.2 371.4,43.8 371.9,43.3 372.5,42.9 373.1,42.6 373.7,42.3 374.4,42 375.1,41.8 375.7,41.7 376.4,41.7 377.1,41.7 377.8,41.7 378.5,41.8 379.2,42 379.9,42.3 380.5,42.6 381.1,42.9 381.7,43.3 382.2,43.8 382.7,44.2 383.1,44.8 383.5,45.4 383.9,46 384.2,46.6 384.4,47.2 384.6,47.9 384.7,48.6 384.8,49.3" />
<path stroke="#000000" stroke-width="2" d="M 391.5,70" />
<path stroke="#000000" stroke-width="2" d="M 391.5,50 399.1,68.5" />
<path stroke="#000000" stroke-width="2" d="M 405.8,70" />
<path stroke="#000000" stroke-width="2" d="M 405.8,50" />
<path stroke="#000000" stroke-width="2" d="M 405.8,50 407.2,50.1 408.5,50.6 409.6,51.2 410.6,52.1 411.4,53.1 412.1,54.3 412.6,55.6 413,57 413.2,58.5 413.3,60 413.2,61.5 413,63 412.6,64.4 412.1,65.7 411.4,66.9 410.6,67.9 409.6,68.8 408.5,69.4 407.2,69.9 405.8,70" />
<path stroke="#000000" stroke-width="2" d="M 419.9,70" />
<path stroke="#000000" stroke-width="2" d="M 429.9,20 422.3,38.5" />
<path stroke="#000000" stroke-width="2" d="M 459.9,70" />
<path stroke="#000000" stroke-width="2" d="M 475.9,30 456.1,49.8 475.9,69.6" />
<path stroke="#000000" stroke-width="2" d="M 482.6,70" />
<path stroke="#000000" stroke-width="2" d="M 482.6,30 497.9,67" />
<path stroke="#000000" stroke-width="2" d="M 527.9,70" />
<path stroke="#000000" stroke-width="2" d="M 527.9,30 527.9,70" />
<path stroke="#000000" stroke-width="2" d="M 534.6,70" />
<path stroke="#000000" stroke-width="2" d="M 544.6,50 536.9,68.5" />
<path stroke="#000000" stroke-width="2" d="M 574.6,70" />
<path stroke="#000000" stroke-width="2" d="M 574.6,30 589.9,67" />
<path stroke="#000000" stroke-width="2" d="M 596.6,70" />
<path stroke="#000000" stroke-width="2" d="M 596.6,30 596.8,30 596.8,30.2 596.6,30.2 596.6,30" />
<path stroke="#000000" stroke-width="2" d="M 626.8,70" />
<path stroke="#000000" stroke-width="2" d="M 642.8,30 623,49.8 642.8,69.6" />
<path stroke="#000000" stroke-width="2" d="M 649.4,70" />
<path stroke="#000000" stroke-width="2" d="M 649.4,20" />
<path stroke="#000000" stroke-width="2" d="M 649.4,20 650.8,20.1 652.1,20.6 653.2,21.2 654.2,22.1 655,23.1 655.7,24.3 656.2,25.6 656.6,27 656.8,28.5 656.9,30 656.8,31.5 656.6,33 656.2,34.4 655.7,35.7 655,36.9 654.2,37.9 653.2,38.8 652.1,39.4 650.8,39.9 649.4,40" />
<path stroke="#000000" stroke-width="2" d="M 686.9,70" />
<path stroke="#000000" stroke-width="2" d="M 686.9,30 686.9,70" />
<path stroke="#000000" stroke-width="2" d="M 693.6,70" />
<path stroke="#000000" stroke-width="2" d="M 693.6,20 693.6,24 693.6,24.5 693.6,25 693.7,25.6 693.9,26.1 694,26.6 694.3,27 694.5,27.5 694.8,27.9 695.2,28.3 695.5,28.7 695.9,29 696.4,29.3 696.8,29.6 697.3,29.8 697.8,30 698.3,30.1 698.8,30.2 699.3,30.3 699.8,30.3 700.4,30.2 700.9,30.1 701.4,30 701.9,29.8 702.4,29.6 702.8,29.3 703.2,29 703.6,28.7 704,28.3 704.3,27.9 704.6,27.5 704.9,27 705.1,26.6 705.3,26.1 705.4,25.6 705.5,25 705.6,24.5 705.6,19.5 705.6,39.5" />
<path stroke="#000000" stroke-width="2" d="M 712.2,70" />
<path stroke="#000000" stroke-width="2" d="M 712.2,20 732.2,20" />
<path stroke="#000000" stroke-width="2" d="M 762.2,70" />
<path stroke="#000000" stroke-width="2" d="M 782.2,30 766.9,67" />
<path stroke="#000000" stroke-width="2" d="M 788.9,70" />
<path stroke="#000000" stroke-width="2" d="M 788.9,50 789.1,50 789.1,50.2 788.9,50.2 788.9,50" />
<path stroke="#000000" stroke-width="2" d="M 819.1,70" />
<path stroke="#000000" stroke-width="2" d="M 835.1,30 815.3,49.8 835.1,69.6" />
<path stroke="#000000" stroke-width="2" d="M 841.8,70" />
<path stroke="#000000" stroke-width="2" d="M 841.8,50 841.8,70 841.8,64 841.8,63.1 841.9,62.3 842,61.4 842.2,60.6 842.5,59.7 842.9,58.9 843.3,58.2 843.8,57.5 844.4,56.8 845,56.2 845.7,55.6 846.4,55.1 847.1,54.7 847.9,54.3 848.8,54 849.6,53.8 850.5,53.6 851.3,53.6 843.7,72.1" />
<path stroke="#000000" stroke-width="2" d="M 881.3,70" />
</svg>