<svg xmlns="http://www.w3.org/2000/svg" width="1002.9048289546214" height="109.15646527970827" style="fill:none; stroke-linecap:round;">
    <rect width="100%" height="100%" fill="#FFFFFF" />
<path stroke="#000000" stroke-width="2" d="M 550,75" />
<path stroke="#000000" stroke-width="2" d="M 30,50 30.9,50 31.7,49.9 32.6,49.8 33.4,49.5 34.3,49.2 35.1,48.9 35.8,48.4 36.5,47.9 37.2,47.4 37.8,46.8 38.4,46.1 38.9,45.4 39.3,44.6 39.7,43.8 40,43 40.2,42.2 40.4,41.3 40.4,40.4 40.4,39.6 40.4,38.7 40.2,37.8 40,37 39.7,36.2 39.3,35.4 38.9,34.6 38.4,33.9 37.8,33.3 37.2,32.6 36.5,32.1 35.8,31.6 35.1,31.1 34.3,30.8 33.4,30.5 32.6,30.2 31.7,30.1 30.9,30 30,30 29.1,30.1 28.3,30.2 27.4,30.5 26.6,30.8 25.8,31.1 25.1,31.6 24.3,32.1 23.7,32.6 23.1,33.3 22.5,33.9 22,34.6 21.6,35.4 21.2,36.2 20.9,37 20.7,37.8 20.5,38.7 20.4,39.6 20.4,40.4 20.5,41.3 20.7,42.2 20.9,43 21.2,43.8 21.6,44.6 22,45.4 22.5,46.1 23.1,46.8 23.7,47.4 24.3,47.9 25.1,48.4 25.8,48.9 26.6,49.2 27.4,49.5 28.3,49.8 29.1,49.9 30,50 30,70 30,64 30,63.1 30.1,62.3 30.2,61.4 30.5,60.6 30.8,59.7 31.1,58.9 31.6,58.2 32.1,57.5 32.6,56.8 33.2,56.2 33.9,55.6 34.6,55.1 35.4,54.7 36.2,54.3 37,54 37.8,53.8 38.7,53.6 39.6,53.6" />
<path stroke="#000000" stroke-width="2" d="M 47.1,70" />
<path stroke="#000000" stroke-width="2" d="M 47.1,50 47.3,50 47.3,50.2 47.1,50.2 47.1,50" />
<path stroke="#000000" stroke-width="2" d="M 77.3,70" />
<path stroke="#000000" stroke-width="2" d="M 77.3,30" />
<path stroke="#000000" stroke-width="2" d="M 77.3,30 77.4,30 77.9,30 78.5,30 79.4,30.1 80.4,30.2 81.6,30.3 82.9,30.4 84.3,30.6 85.8,30.9 87.3,31.2 88.8,31.7 90.3,32.2 91.7,32.7 93,33.4 94.2,34.2 95.2,35.1 96.1,36.1 96.7,37.3 97.1,38.6 97.3,40" />
<path stroke="#000000" stroke-width="2" d="M 97.3,40 99.2,42.1 100.5,44.1 101.3,45.7 101.6,47.2 101.5,48.4 101.1,49.4 100.4,50.2 99.5,50.8 98.4,51.1 97.3,51.2 96.2,51.1 95.1,50.8 94.2,50.2 93.5,49.5 93.1,48.4 93,47.2 93.3,45.7 94.1,44.1 95.4,42.1 97.3,40" />
<path stroke="#000000" stroke-width="2" d="M 97.3,40 97.3,39.9 97.3,39.7 97.4,39.4 97.5,39 97.6,38.4 97.8,37.8 98.2,37.2 98.6,36.5 99.1,35.7 99.8,35 100.6,34.3 101.6,33.5 102.8,32.8 104.2,32.2 105.7,31.6 107.5,31 109.6,30.6 111.9,30.3 114.4,30.1 117.3,30" />
<path stroke="#000000" stroke-width="2" d="M 117.3,30 117.2,32 116.9,33.6 116.4,34.9 115.9,35.8 115.2,36.3 114.5,36.6 113.7,36.7 113,36.5 112.3,36.1 111.7,35.6 111.2,35 110.8,34.3 110.6,33.6 110.7,32.8 111,32.1 111.5,31.4 112.4,30.9 113.6,30.4 115.3,30.1 117.3,30 127.3,30" />
<path stroke="#000000" stroke-width="2" d="M 157.3,70" />
<path stroke="#000000" stroke-width="2" d="M 157.3,50 164.9,31.5 172.6,50 172.6,50.7 172.7,51.4 172.8,52.1 173,52.8 173.2,53.4 173.5,54 173.8,54.6 174.2,55.2 174.7,55.8 175.2,56.2 175.7,56.7 176.3,57.1 176.9,57.4 177.5,57.7 178.2,58 178.9,58.2 179.5,58.3 180.2,58.3 180.9,58.3 181.6,58.3 182.3,58.2 183,58 183.7,57.7 184.3,57.4 184.9,57.1 185.5,56.7 186,56.2 186.5,55.8 186.9,55.2 187.3,54.6 187.7,54 188,53.4 188.2,52.8 188.4,52.1 188.5,51.4 188.6,50.7" />
<path stroke="#000000" stroke-width="2" d="M 218.6,70" />
<path stroke="#000000" stroke-width="2" d="M 238.6,30 236.8,30 235.1,30.2 233.4,30.5 231.7,30.9 230.1,31.5 228.5,32.2 227,33.1 225.5,34.1 224.2,35.2 223,36.5 221.8,37.8 220.8,39.2 220,40.7 219.2,42.3 218.6,44 218.2,45.7 217.9,47.4 217.7,49.1 217.7,50.9 217.9,52.6 218.2,54.3 218.6,56 219.2,57.6 220,59.2 220.8,60.7 221.8,62.2 223,63.5 224.2,64.7 225.5,65.8 227,66.8 228.5,67.7 230.1,68.5 231.7,69.1 233.4,69.5 235.1,69.8 236.8,70" />
<path stroke="#000000" stroke-width="2" d="M 236.8,50" />
<path stroke="#000000" stroke-width="2" d="M 204.8,50 244.8,50" />
<path stroke="#000000" stroke-width="2" d="M 274.8,70" />
<path stroke="#000000" stroke-width="2" d="M 290.8,30 271,49.8 290.8,69.6" />
<path stroke="#000000" stroke-width="2" d="M 297.5,70" />
<path stroke="#000000" stroke-width="2" d="M 297.5,30 312.8,67" />
<path stroke="#000000" stroke-width="2" d="M 342.8,70" />
<path stroke="#000000" stroke-width="2" d="M 342.8,70 343,70 343,70.2 342.8,70.2 342.8,70" />
<path stroke="#000000" stroke-width="2" d="M 373,70" />
<path stroke="#000000" stroke-width="2" d="M 389,30 369.2,49.8 389,69.6" />
<path stroke="#000000" stroke-width="2" d="M 395.7,70" />
<path stroke="#000000" stroke-width="2" d="M 395.7,20 395.9,20 395.9,20.2 395.7,20.2 395.7,20" />
<path stroke="#000000" stroke-width="2" d="M 425.9,70" />
<path stroke="#000000" stroke-width="2" d="M 425.9,30 425.9,70 437.2,58.7" />
<path stroke="#000000" stroke-width="2" d="M 443.9,70" />
<path stroke="#000000" stroke-width="2" d="M 443.9,20 463.9,20 444.1,39.8 464.1,39.8" />
<path stroke="#000000" stroke-width="2" d="M 494.1,70" />
<path stroke="#000000" stroke-width="2" d="M 494.1,30 534.1,30" />
<path stroke="#000000" stroke-width="2" d="M 540.7,70" />
<path stroke="#000000" stroke-width="2" d="M 550.7,50 543.1,68.5" />
<path stroke="#000000" stroke-width="2" d="M 580.7,70" />
<path stroke="#000000" stroke-width="2" d="M 592.7,54" />
<path stroke="#000000" stroke-width="2" d="M 592.7,54 592.5,49.9 591.9,46.7 591,44.2 589.8,42.5 588.5,41.3 587.1,40.8 585.6,40.7 584.1,41 582.7,41.7 581.5,42.8 580.5,44 579.8,45.4 579.4,46.8 579.5,48.3 580.1,49.8 581.2,51.1 583,52.3 585.4,53.2 588.7,53.8 592.7,54 600.7,54" />
<path stroke="#000000" stroke-width="2" d="M 600.7,54 602.5,53.4 604.1,52.7 605.6,51.9 607,51.2 608.3,50.3 609.5,49.4 610.6,48.5 611.5,47.5 612.4,46.5 613.2,45.5 613.9,44.4 614.6,43.3 615.1,42.2 615.5,41.1 615.9,39.9 616.2,38.8 616.4,37.6 616.6,36.4 616.7,35.2 616.7,34" />
<path stroke="#000000" stroke-width="2" d="M 623.4,70" />
<path stroke="#000000" stroke-width="2" d="M 623.4,20 643.4,20 623.6,39.8 643.6,39.8 644.5,39.8 645.3,39.9 646.2,40 647,40.3 647.9,40.6 648.7,40.9 649.4,41.4 650.1,41.9 650.8,42.4 651.4,43 652,43.7 652.5,44.4 652.9,45.2 653.3,46 653.6,46.8 653.8,47.6 653.9,48.5 654,49.4 654,50.2 653.9,51.1 653.8,52 653.6,52.8 653.3,53.6 652.9,54.4 652.5,55.2 652,55.9 651.4,56.5 650.8,57.2 650.1,57.7 649.4,58.2 648.7,58.7 647.9,59 647,59.3 646.2,59.6 645.3,59.7 644.5,59.8" />
<path stroke="#000000" stroke-width="2" d="M 684,70" />
<path stroke="#000000" stroke-width="2" d="M 684,70 684.2,70 684.2,70.2 684,70.2 684,70" />
<path stroke="#000000" stroke-width="2" d="M 714.2,70" />
<path stroke="#000000" stroke-width="2" d="M 714.2,30 714.2,70 734.2,70" />
<path stroke="#000000" stroke-width="2" d="M 764.2,70" />
<path stroke="#000000" stroke-width="2" d="M 774.2,30 764.2,30 764.2,70" />
<path stroke="#000000" stroke-width="2" d="M 780.9,70" />
<path stroke="#000000" stroke-width="2" d="M 780.9,50 780.9,50.7 781,51.4 781.1,52.1 781.3,52.8 781.5,53.4 781.8,54 782.1,54.6 782.5,55.2 783,55.8 783.5,56.2 784,56.7 784.6,57.1 785.2,57.4 785.8,57.7 786.5,58 787.2,58.2 787.8,58.3 788.5,58.3 789.2,58.3 789.9,58.3 790.6,58.2 791.3,58 791.9,57.7 792.6,57.4 793.2,57.1 793.8,56.7 794.3,56.2 794.8,55.8 795.2,55.2 795.6,54.6 796,54 796.3,53.4 796.5,52.8 796.7,52.1 796.8,51.4 796.9,50.7 797.7,50.7 798.6,50.8 799.5,50.9 800.3,51.2 801.1,51.4 801.9,51.8 802.7,52.3 803.4,52.8 804.1,53.3 804.7,53.9 805.2,54.6 805.7,55.3 806.2,56.1 806.6,56.9 806.8,57.7 807.1,58.5 807.2,59.4 807.3,60.3 807.3,61.1 807.2,62 807.1,62.9 806.8,63.7 806.6,64.5 806.2,65.3 805.7,66.1 805.2,66.8 804.7,67.4 804.1,68.1 803.4,68.6 802.7,69.1 801.9,69.6 801.1,69.9 800.3,70.2 799.5,70.5 798.6,70.6 797.7,70.7 817.7,70.7 810.1,89.2" />
<path stroke="#000000" stroke-width="2" d="M 847.7,70" />
<path stroke="#000000" stroke-width="2" d="M 847.7,35" />
<path stroke="#000000" stroke-width="2" d="M 847.7,35 849.8,34.9 851.4,34.6 852.6,34.1 853.5,33.6 854.1,32.9 854.4,32.2 854.4,31.4 854.2,30.7 853.9,30 853.4,29.4 852.8,28.9 852.1,28.5 851.3,28.3 850.6,28.4 849.9,28.7 849.2,29.2 848.6,30.1 848.2,31.4 847.9,33 847.7,35 847.7,50 840.1,68.5" />
<path stroke="#000000" stroke-width="2" d="M 861.1,70" />
<path stroke="#000000" stroke-width="2" d="M 869.1,50" />
<path stroke="#000000" stroke-width="2" d="M 869.1,50 869,52 868.7,53.6 868.2,54.9 867.6,55.8 867,56.3 866.2,56.6 865.5,56.7 864.7,56.5 864.1,56.1 863.4,55.6 862.9,55 862.6,54.3 862.4,53.6 862.5,52.8 862.7,52.1 863.3,51.4 864.2,50.9 865.4,50.4 867,50.1 869.1,50 879.1,50" />
<path stroke="#000000" stroke-width="2" d="M 909.1,70" />
<path stroke="#000000" stroke-width="2" d="M 909.1,30 909.1,31.4 909.2,32.8 909.4,34.2 909.8,35.5 910.3,36.8 910.9,38.1 911.6,39.3 912.4,40.4 913.3,41.5 914.2,42.5 915.3,43.4 916.5,44.2 917.7,44.9 918.9,45.5 920.2,46 921.6,46.3 923,46.6 924.4,46.7 925.8,46.7 927.1,46.6 928.5,46.3 929.9,46 931.2,45.5 932.4,44.9 933.7,44.2 934.8,43.4 935.9,42.5 936.8,41.5 937.7,40.4 938.5,39.3 939.2,38.1 939.8,36.8 940.3,35.5 940.7,34.2 940.9,32.8 941,31.4" />
<path stroke="#000000" stroke-width="2" d="M 947.7,70" />
<path stroke="#000000" stroke-width="2" d="M 947.7,20 952.7,20 952.7,40" />
<path stroke="#000000" stroke-width="2" d="M 952.7,40 950.7,39.9 949.1,39.6 947.8,39.1 946.9,38.6 946.4,37.9 946.1,37.2 946.1,36.4 946.2,35.7 946.6,35 947.1,34.4 947.7,33.9 948.4,33.5 949.1,33.3 949.9,33.4 950.6,33.7 951.3,34.2 951.8,35.1 952.3,36.4 952.6,38 952.7,40 952.7,44" />
<path stroke="#000000" stroke-width="2" d="M 952.7,44 952.4,44.9 952,45.7 951.7,46.4 951.3,47.1 950.9,47.8 950.4,48.4 950,48.9 949.5,49.4 949,49.9 948.5,50.2 947.9,50.6 947.4,50.9 946.8,51.2 946.3,51.4 945.7,51.6 945.1,51.7 944.5,51.9 943.9,51.9 943.3,52 942.7,52" />
<path stroke="#000000" stroke-width="2" d="M 982.7,70" />
<path stroke="#000000" stroke-width="2" d="M 982.7,70 982.9,70 982.9,70.2 982.7,70.2 982.7,70" />
<path stroke="#000000" stroke-width="2" d="M 1012.9,70" />
</svg>