<svg xmlns="http://www.w3.org/2000/svg" width="970.9584976019236" height="109.15646527970827" style="fill:none; stroke-linecap:round;">
    <rect width="100%" height="100%" fill="#FFFFFF" />
<path stroke="#000000" stroke-width="2" d="M 550,75" />
<path stroke="#000000" stroke-width="2" d="M 30,50 30.9,50 31.7,49.9 32.6,49.8 33.4,49.5 34.3,49.2 35.1,48.9 35.8,48.4 36.5,47.9 37.2,47.4 37.8,46.8 38.4,46.1 38.9,45.4 39.3,44.6 39.7,43.8 40,43 40.2,42.2 40.4,41.3 40.4,40.4 40.4,39.6 40.4,38.7 40.2,37.8 40,37 39.7,36.2 39.3,35.4 38.9,34.6 38.4,33.9 37.8,33.3 37.2,32.6 36.5,32.1 35.8,31.6 35.1,31.1 34.3,30.8 33.4,30.5 32.6,30.2 31.7,30.1 30.9,30 30,30 29.1,30.1 28.3,30.2 27.4,30.5 26.6,30.8 25.8,31.1 25.1,31.6 24.3,32.1 23.7,32.6 23.1,33.3 22.5,33.9 22,34.6 21.6,35.4 21.2,36.2 20.9,37 20.7,37.8 20.5,38.7 20.4,39.6 20.4,40.4 20.5,41.3 20.7,42.2 20.9,43 21.2,43.8 21.6,44.6 22,45.4 22.5,46.1 23.1,46.8 23.7,47.4 24.3,47.9 25.1,48.4 25.8,48.9 26.6,49.2 27.4,49.5 28.3,49.8 29.1,49.9 30,50 30,70 30,64 30,63.1 30.1,62.3 30.2,61.4 30.5,60.6 30.8,59.7 31.1,58.9 31.6,58.2 32.1,57.5 32.6,56.8 33.2,56.2 33.9,55.6 34.6,55.1 35.4,54.7 36.2,54.3 37,54 37.8,53.8 38.7,53.6 39.6,53.6" />
<path stroke="#000000" stroke-width="2" d="M 47.1,70" />
<path stroke="#000000" stroke-width="2" d="M 47.1,50 47.5,50 47.5,50.4 47.1,50.4 47.1,50" />
<path stroke="#000000" stroke-width="2" d="M 77.5,70" />
<path stroke="#000000" stroke-width="2" d="M 77.5,30 81.3,39.2" />
<path stroke="#000000" stroke-width="2" d="M 81.3,39.2 83.2,41.4 84.6,43.3 85.3,45 85.6,46.4 85.5,47.7 85.1,48.7 84.4,49.5 83.5,50 82.4,50.4 81.3,50.5 80.2,50.4 79.2,50 78.2,49.5 77.5,48.7 77.1,47.7 77,46.4 77.3,45 78.1,43.3 79.4,41.4 81.3,39.2 85.1,30" />
<path stroke="#000000" stroke-width="2" d="M 85.1,30 85,32 84.7,33.6 84.3,34.9 83.7,35.8 83,36.3 82.3,36.6 81.6,36.7 80.8,36.5 80.1,36.1 79.5,35.6 79,35 78.7,34.3 78.5,33.6 78.5,32.8 78.8,32.1 79.4,31.4 80.3,30.9 81.5,30.4 83.1,30.1 85.1,30 95.1,30" />
<path stroke="#000000" stroke-width="2" d="M 125.1,70" />
<path stroke="#000000" stroke-width="2" d="M 125.1,50 132.8,31.5 140.5,50 140.5,50.7 140.5,51.4 140.6,52.1 140.8,52.8 141.1,53.4 141.4,54 141.7,54.6 142.1,55.2 142.5,55.8 143,56.2 143.6,56.7 144.1,57.1 144.8,57.4 145.4,57.7 146,58 146.7,58.2 147.4,58.3 148.1,58.3 148.8,58.3 149.5,58.3 150.2,58.2 150.9,58 151.5,57.7 152.1,57.4 152.7,57.1 153.3,56.7 153.9,56.2 154.3,55.8 154.8,55.2 155.2,54.6 155.5,54 155.8,53.4 156.1,52.8 156.3,52.1 156.4,51.4 156.4,50.7" />
<path stroke="#000000" stroke-width="2" d="M 186.4,70" />
<path stroke="#000000" stroke-width="2" d="M 206.4,30 204.7,30 203,30.2 201.2,30.5 199.6,30.9 197.9,31.5 196.3,32.2 194.8,33.1 193.4,34.1 192.1,35.2 190.8,36.5 189.7,37.8 188.7,39.2 187.8,40.7 187.1,42.3 186.5,44 186,45.7 185.7,47.4 185.6,49.1 185.6,50.9 185.7,52.6 186,54.3 186.5,56 187.1,57.6 187.8,59.2 188.7,60.7 189.7,62.2 190.8,63.5 192.1,64.7 193.4,65.8 194.8,66.8 196.3,67.7 197.9,68.5 199.6,69.1 201.2,69.5 203,69.8 204.7,70" />
<path stroke="#000000" stroke-width="2" d="M 204.7,50" />
<path stroke="#000000" stroke-width="2" d="M 172.7,50 212.7,50" />
<path stroke="#000000" stroke-width="2" d="M 242.7,70" />
<path stroke="#000000" stroke-width="2" d="M 258.7,30 238.9,49.8 258.7,69.6" />
<path stroke="#000000" stroke-width="2" d="M 265.4,70" />
<path stroke="#000000" stroke-width="2" d="M 265.4,30 280.7,67" />
<path stroke="#000000" stroke-width="2" d="M 310.7,70" />
<path stroke="#000000" stroke-width="2" d="M 310.7,70 310.9,70 310.9,70.2 310.7,70.2 310.7,70" />
<path stroke="#000000" stroke-width="2" d="M 340.9,70" />
<path stroke="#000000" stroke-width="2" d="M 356.9,30 337.1,49.8 356.9,69.6" />
<path stroke="#000000" stroke-width="2" d="M 363.5,70" />
<path stroke="#000000" stroke-width="2" d="M 363.5,20 363.9,20 363.9,20.4 363.5,20.4 363.5,20" />
<path stroke="#000000" stroke-width="2" d="M 393.9,70" />
<path stroke="#000000" stroke-width="2" d="M 393.9,30 393.9,70 405.2,58.7" />
<path stroke="#000000" stroke-width="2" d="M 411.9,70" />
<path stroke="#000000" stroke-width="2" d="M 411.9,20 431.9,20 412.1,39.8 432.1,39.8" />
<path stroke="#000000" stroke-width="2" d="M 462.1,70" />
<path stroke="#000000" stroke-width="2" d="M 462.1,30 502.1,30" />
<path stroke="#000000" stroke-width="2" d="M 508.8,70" />
<path stroke="#000000" stroke-width="2" d="M 518.8,50 511.1,68.5" />
<path stroke="#000000" stroke-width="2" d="M 548.8,70" />
<path stroke="#000000" stroke-width="2" d="M 560.8,54 561.8,54 562.9,53.9 563.9,53.7 564.9,53.5 565.9,53.1 566.8,52.7 567.8,52.1 568.6,51.5 569.4,50.9 570.2,50.1 570.8,49.3 571.4,48.5 572,47.6 572.4,46.6 572.8,45.6 573,44.6 573.2,43.6 573.3,42.5 573.3,41.5 573.2,40.4 573,39.4 572.8,38.4 572.4,37.4 572,36.5 571.4,35.6 570.8,34.7 570.2,33.9 569.4,33.2 568.6,32.5 567.8,31.9 566.8,31.4 565.9,30.9 564.9,30.6 563.9,30.3 562.9,30.1 561.8,30 560.8,30 559.7,30.1 558.7,30.3 557.7,30.6 556.7,30.9 555.8,31.4 554.9,31.9 554,32.5 553.2,33.2 552.5,33.9 551.8,34.7 551.2,35.6 550.7,36.5 550.2,37.4 549.9,38.4 549.6,39.4 549.4,40.4 549.3,41.5 549.3,42.5 549.4,43.6 549.6,44.6 549.9,45.6 550.2,46.6 550.7,47.6 551.2,48.5 551.8,49.3 552.5,50.1 553.2,50.9 554,51.5 554.9,52.1 555.8,52.7 556.7,53.1 557.7,53.5 558.7,53.7 559.7,53.9 560.8,54 568.8,54" />
<path stroke="#000000" stroke-width="2" d="M 568.8,54 570.5,53.4 572.1,52.7 573.7,51.9 575.1,51.2 576.3,50.3 577.5,49.4 578.6,48.5 579.6,47.5 580.5,46.5 581.3,45.5 582,44.4 582.6,43.3 583.1,42.2 583.6,41.1 584,39.9 584.3,38.8 584.5,37.6 584.7,36.4 584.8,35.2 584.8,34" />
<path stroke="#000000" stroke-width="2" d="M 591.4,70" />
<path stroke="#000000" stroke-width="2" d="M 591.4,20 611.4,20 591.7,39.8 611.7,39.8 612.5,39.8 613.4,39.9 614.3,40 615.1,40.3 615.9,40.6 616.7,40.9 617.5,41.4 618.2,41.9 618.8,42.4 619.5,43 620,43.7 620.5,44.4 621,45.2 621.3,46 621.6,46.8 621.8,47.6 622,48.5 622.1,49.4 622.1,50.2 622,51.1 621.8,52 621.6,52.8 621.3,53.6 621,54.4 620.5,55.2 620,55.9 619.5,56.5 618.8,57.2 618.2,57.7 617.5,58.2 616.7,58.7 615.9,59 615.1,59.3 614.3,59.6 613.4,59.7 612.5,59.8" />
<path stroke="#000000" stroke-width="2" d="M 652.1,70" />
<path stroke="#000000" stroke-width="2" d="M 652.1,70 652.3,70 652.3,70.2 652.1,70.2 652.1,70" />
<path stroke="#000000" stroke-width="2" d="M 682.3,70" />
<path stroke="#000000" stroke-width="2" d="M 682.3,30 682.3,70 702.3,70" />
<path stroke="#000000" stroke-width="2" d="M 732.3,70" />
<path stroke="#000000" stroke-width="2" d="M 742.3,30 732.3,30 732.3,70" />
<path stroke="#000000" stroke-width="2" d="M 748.9,70" />
<path stroke="#000000" stroke-width="2" d="M 748.9,50 748.9,50.7 749,51.4 749.1,52.1 749.3,52.8 749.5,53.4 749.8,54 750.2,54.6 750.6,55.2 751,55.8 751.5,56.2 752.1,56.7 752.6,57.1 753.2,57.4 753.9,57.7 754.5,58 755.2,58.2 755.9,58.3 756.6,58.3 757.3,58.3 758,58.3 758.7,58.2 759.3,58 760,57.7 760.6,57.4 761.2,57.1 761.8,56.7 762.3,56.2 762.8,55.8 763.3,55.2 763.7,54.6 764,54 764.3,53.4 764.6,52.8 764.7,52.1 764.9,51.4 764.9,50.7 765.8,50.7 766.7,50.8 767.5,50.9 768.4,51.2 769.2,51.4 770,51.8 770.7,52.3 771.5,52.8 772.1,53.3 772.7,53.9 773.3,54.6 773.8,55.3 774.2,56.1 774.6,56.9 774.9,57.7 775.1,58.5 775.3,59.4 775.4,60.3 775.4,61.1 775.3,62 775.1,62.9 774.9,63.7 774.6,64.5 774.2,65.3 773.8,66.1 773.3,66.8 772.7,67.4 772.1,68.1 771.5,68.6 770.7,69.1 770,69.6 769.2,69.9 768.4,70.2 767.5,70.5 766.7,70.6 765.8,70.7 785.8,70.7 778.1,89.2" />
<path stroke="#000000" stroke-width="2" d="M 815.8,70" />
<path stroke="#000000" stroke-width="2" d="M 815.8,35" />
<path stroke="#000000" stroke-width="2" d="M 815.8,35 817.8,34.9 819.4,34.6 820.7,34.1 821.6,33.6 822.1,32.9 822.4,32.2 822.5,31.4 822.3,30.7 821.9,30 821.4,29.4 820.8,28.9 820.1,28.5 819.4,28.3 818.6,28.4 817.9,28.7 817.2,29.2 816.7,30.1 816.2,31.4 815.9,33 815.8,35 815.8,50 808.1,68.5" />
<path stroke="#000000" stroke-width="2" d="M 829.1,70" />
<path stroke="#000000" stroke-width="2" d="M 837.1,50" />
<path stroke="#000000" stroke-width="2" d="M 837.1,50 837,52 836.7,53.6 836.3,54.9 835.7,55.8 835,56.3 834.3,56.6 833.5,56.7 832.8,56.5 832.1,56.1 831.5,55.6 831,55 830.6,54.3 830.5,53.6 830.5,52.8 830.8,52.1 831.4,51.4 832.2,50.9 833.5,50.4 835.1,50.1 837.1,50 847.1,50" />
<path stroke="#000000" stroke-width="2" d="M 877.1,70" />
<path stroke="#000000" stroke-width="2" d="M 877.1,30 877.1,31.4 877.2,32.8 877.5,34.2 877.8,35.5 878.3,36.8 878.9,38.1 879.6,39.3 880.4,40.4 881.3,41.5 882.3,42.5 883.4,43.4 884.5,44.2 885.7,44.9 887,45.5 888.3,46 889.6,46.3 891,46.6 892.4,46.7 893.8,46.7 895.2,46.6 896.6,46.3 897.9,46 899.2,45.5 900.5,44.9 901.7,44.2 902.8,43.4 903.9,42.5 904.9,41.5 905.8,40.4 906.6,39.3 907.3,38.1 907.9,36.8 908.4,35.5 908.7,34.2 909,32.8 909.1,31.4" />
<path stroke="#000000" stroke-width="2" d="M 915.8,70" />
<path stroke="#000000" stroke-width="2" d="M 915.8,20 920.8,20 920.8,40 920.8,40.5 920.7,41 920.6,41.6 920.5,42.1 920.3,42.6 920.1,43 919.8,43.5 919.5,43.9 919.2,44.3 918.8,44.7 918.4,45 918,45.3 917.5,45.6 917.1,45.8 916.6,46 916.1,46.1 915.5,46.2 915,46.3 914.5,46.3 914,46.2 913.5,46.1 913,46 912.5,45.8 912,45.6 911.5,45.3 911.1,45 910.7,44.7 910.3,44.3 910,43.9 909.7,43.5 909.4,43 909.2,42.6 909,42.1 908.9,41.6 908.8,41 908.8,40.5 908.8,40 908.8,39.5 908.9,39 909,38.5 909.2,38 909.4,37.5 909.7,37 910,36.6 910.3,36.2 910.7,35.8 911.1,35.5 911.5,35.2 912,34.9 912.5,34.7 913,34.5 913.5,34.4 914,34.3 914.5,34.3 915,34.3 915.5,34.3 916.1,34.4 916.6,34.5 917.1,34.7 917.5,34.9 918,35.2 918.4,35.5 918.8,35.8 919.2,36.2 919.5,36.6 919.8,37 920.1,37.5 920.3,38 920.5,38.5 920.6,39 920.7,39.5 920.8,40 920.8,44" />
<path stroke="#000000" stroke-width="2" d="M 920.8,44 920.4,44.9 920.1,45.7 919.7,46.4 919.3,47.1 918.9,47.8 918.5,48.4 918,48.9 917.5,49.4 917,49.9 916.5,50.2 916,50.6 915.4,50.9 914.9,51.2 914.3,51.4 913.7,51.6 913.1,51.7 912.6,51.9 912,51.9 911.4,52 910.8,52" />
<path stroke="#000000" stroke-width="2" d="M 950.8,70" />
<path stroke="#000000" stroke-width="2" d="M 950.8,70 951,70 951,70.2 950.8,70.2 950.8,70" />
<path stroke="#000000" stroke-width="2" d="M 981,70" />
</svg>