<svg xmlns="http://www.w3.org/2000/svg" width="82.21619386565956" height="97.30208980215463" style="fill:none; stroke-linecap:round;">
    <rect width="100%" height="100%" fill="#FFFFFF" />
<path stroke="#000000" stroke-width="2" d="M 175,75" />
<path stroke="#000000" stroke-width="2" d="M 20,40" />
<path stroke="#000000" stroke-width="2" d="M 20,40 24.1,39.8 27.3,39.2 29.8,38.3 31.5,37.1 32.7,35.8 33.2,34.3 33.3,32.8 33,31.4 32.3,30 31.2,28.8 30,27.7 28.6,27 27.2,26.7 25.7,26.8 24.2,27.3 22.9,28.5 21.7,30.2 20.8,32.7 20.2,35.9 20,40 20,70" />
<path stroke="#000000" stroke-width="2" d="M 40,70" />
<path stroke="#000000" stroke-width="2" d="M 40,58 40,57.3 40,56.6 40.2,55.9 40.3,55.2 40.6,54.6 40.9,54 41.2,53.4 41.6,52.8 42.1,52.2 42.6,51.8 43.1,51.3 43.7,50.9 44.3,50.6 44.9,50.3 45.6,50 46.2,49.8 46.9,49.7 47.6,49.7 48.3,49.7 49,49.7 49.7,49.8 50.4,50 51,50.3 51.7,50.6 52.3,50.9 52.8,51.3 53.4,51.8 53.9,52.2 54.3,52.8 54.7,53.4 55.1,54 55.4,54.6 55.6,55.2 55.8,55.9 55.9,56.6 56,57.3 56.5,57.3 57,57.3 57.5,57.4 58,57.6 58.5,57.8 59,58 59.4,58.2 59.9,58.5 60.3,58.9 60.6,59.2 61,59.6 61.3,60.1 61.5,60.5 61.8,61 61.9,61.5 62.1,62 62.2,62.5 62.2,63 62.2,63.6 62.2,64.1 62.1,64.6 61.9,65.1 61.8,65.6 61.5,66.1 61.3,66.5 61,66.9 60.6,67.3 60.3,67.7 59.9,68.1 59.4,68.4 59,68.6 58.5,68.8 58,69 57.5,69.2 57,69.2 56.5,69.3 56,69.3 55.4,69.2 54.9,69.2 54.4,69 53.9,68.8 53.5,68.6 53,68.4 52.6,68.1 52.2,67.7 51.8,67.3 51.5,66.9 51.2,66.5 50.9,66.1 50.7,65.6 50.5,65.1 50.4,64.6 50.3,64.1 50.2,63.6 50.2,63 50.3,62.5 50.4,62 50.5,61.5 50.7,61 50.9,60.5 51.2,60.1 51.5,59.6 51.8,59.2 52.2,58.9 52.6,58.5 53,58.2 53.5,58 53.9,57.8 54.4,57.6 54.9,57.4 55.4,57.3 56,57.3 56,77.3" />
</svg>