<svg xmlns="http://www.w3.org/2000/svg" width="82.21619386565956" height="109.30208980215463" style="fill:none; stroke-linecap:round;">
    <rect width="100%" height="100%" fill="#FFFFFF" />
<path stroke="#000000" stroke-width="2" d="M 175,75" />
<path stroke="#000000" stroke-width="2" d="M 20,40" />
<path stroke="#000000" stroke-width="2" d="M 20,40 24.1,39.8 27.3,39.2 29.8,38.3 31.5,37.1 32.7,35.8 33.2,34.3 33.3,32.8 33,31.4 32.3,30 31.2,28.8 30,27.7 28.6,27 27.2,26.7 25.7,26.8 24.2,27.3 22.9,28.5 21.7,30.2 20.8,32.7 20.2,35.9 20,40 20,70" />
<path stroke="#000000" stroke-width="2" d="M 40,70" />
<path stroke="#000000" stroke-width="2" d="M 40,70 40,69.3 40,68.6 40.2,67.9 40.3,67.2 40.6,66.6 40.9,66 41.2,65.4 41.6,64.8 42.1,64.2 42.6,63.8 43.1,63.3 43.7,62.9 44.3,62.6 44.9,62.3 45.6,62 46.2,61.8 46.9,61.7 47.6,61.7 48.3,61.7 49,61.7 49.7,61.8 50.4,62 51,62.3 51.7,62.6 52.3,62.9 52.8,63.3 53.4,63.8 53.9,64.2 54.3,64.8 54.7,65.4 55.1,66 55.4,66.6 55.6,67.2 55.8,67.9 55.9,68.6 56,69.3 56.5,69.3 57,69.3 57.5,69.4 58,69.6 58.5,69.8 59,70 59.4,70.2 59.9,70.5 60.3,70.9 60.6,71.2 61,71.6 61.3,72.1 61.5,72.5 61.8,73 61.9,73.5 62.1,74 62.2,74.5 62.2,75 62.2,75.6 62.2,76.1 62.1,76.6 61.9,77.1 61.8,77.6 61.5,78.1 61.3,78.5 61,78.9 60.6,79.3 60.3,79.7 59.9,80.1 59.4,80.4 59,80.6 58.5,80.8 58,81 57.5,81.2 57,81.2 56.5,81.3 56,81.3 55.4,81.2 54.9,81.2 54.4,81 53.9,80.8 53.5,80.6 53,80.4 52.6,80.1 52.2,79.7 51.8,79.3 51.5,78.9 51.2,78.5 50.9,78.1 50.7,77.6 50.5,77.1 50.4,76.6 50.3,76.1 50.2,75.6 50.2,75 50.3,74.5 50.4,74 50.5,73.5 50.7,73 50.9,72.5 51.2,72.1 51.5,71.6 51.8,71.2 52.2,70.9 52.6,70.5 53,70.2 53.5,70 53.9,69.8 54.4,69.6 54.9,69.4 55.4,69.3 56,69.3 56,89.3" />
</svg>