<svg xmlns="http://www.w3.org/2000/svg" width="86.27069944957937" height="109.30208980215463" style="fill:none; stroke-linecap:round;">
    <rect width="100%" height="100%" fill="#FFFFFF" />
<path stroke="#000000" stroke-width="2" d="M 175,75" />
<path stroke="#000000" stroke-width="2" d="M 20,40 20.6,40.6 21.3,41.2 22,41.7 22.8,42.1 23.5,42.5 24.4,42.8 25.2,43 26.1,43.2 26.9,43.2 27.8,43.2 28.7,43.2 29.5,43 30.4,42.8 31.2,42.5 32,42.1 32.7,41.7 33.5,41.2 34.1,40.6 34.7,40 35.3,39.3 35.8,38.6 36.2,37.9 36.6,37.1 36.9,36.3 37.1,35.4 37.3,34.5 37.4,33.7 37.4,32.8 37.3,31.9 37.1,31.1 36.9,30.2 36.6,29.4 36.2,28.6 35.8,27.9 35.3,27.2 34.7,26.5 34.1,25.9 33.5,25.3 32.7,24.8 32,24.4 31.2,24 30.4,23.7 29.5,23.5 28.7,23.3 27.8,23.3 26.9,23.3 26.1,23.3 25.2,23.5 24.4,23.7 23.5,24 22.8,24.4 22,24.8 21.3,25.3 20.6,25.9 20,26.5 19.4,27.2 18.9,27.9 18.5,28.6 18.1,29.4 17.8,30.2 17.6,31.1 17.5,31.9 17.4,32.8 17.4,33.7 17.5,34.5 17.6,35.4 17.8,36.3 18.1,37.1 18.5,37.9 18.9,38.6 19.4,39.3 20,40 20,70" />
<path stroke="#000000" stroke-width="2" d="M 44,70" />
<path stroke="#000000" stroke-width="2" d="M 44,70 44,69.3 44.1,68.6 44.2,67.9 44.4,67.2 44.6,66.6 44.9,66 45.3,65.4 45.7,64.8 46.1,64.2 46.6,63.8 47.2,63.3 47.7,62.9 48.3,62.6 49,62.3 49.6,62 50.3,61.8 51,61.7 51.7,61.7 52.4,61.7 53.1,61.7 53.8,61.8 54.4,62 55.1,62.3 55.7,62.6 56.3,62.9 56.9,63.3 57.4,63.8 57.9,64.2 58.4,64.8 58.8,65.4 59.1,66 59.4,66.6 59.7,67.2 59.8,67.9 60,68.6 60,69.3 60.5,69.3 61.1,69.3 61.6,69.4 62.1,69.6 62.6,69.8 63,70 63.5,70.2 63.9,70.5 64.3,70.9 64.7,71.2 65,71.6 65.3,72.1 65.6,72.5 65.8,73 66,73.5 66.1,74 66.2,74.5 66.3,75 66.3,75.6 66.2,76.1 66.1,76.6 66,77.1 65.8,77.6 65.6,78.1 65.3,78.5 65,78.9 64.7,79.3 64.3,79.7 63.9,80.1 63.5,80.4 63,80.6 62.6,80.8 62.1,81 61.6,81.2 61.1,81.2 60.5,81.3 60,81.3 59.5,81.2 59,81.2 58.5,81 58,80.8 57.5,80.6 57.1,80.4 56.6,80.1 56.2,79.7 55.9,79.3 55.5,78.9 55.2,78.5 55,78.1 54.7,77.6 54.6,77.1 54.4,76.6 54.3,76.1 54.3,75.6 54.3,75 54.3,74.5 54.4,74 54.6,73.5 54.7,73 55,72.5 55.2,72.1 55.5,71.6 55.9,71.2 56.2,70.9 56.6,70.5 57.1,70.2 57.5,70 58,69.8 58.5,69.6 59,69.4 59.5,69.3 60,69.3 60,89.3" />
</svg>