<svg xmlns="http://www.w3.org/2000/svg" width="146.66666666666666" height="92.5" style="fill:none; stroke-linecap:round;">
    <rect width="100%" height="100%" fill="#FFFFFF" />
<path stroke="#000000" stroke-width="2" d="M 175,75" />
<path stroke="#000000" stroke-width="2" d="M 20,42" />
<path stroke="#000000" stroke-width="2" d="M 20,42 24.1,41.8 27.3,41.2 29.8,40.3 31.5,39.1 32.7,37.8 33.2,36.3 33.3,34.8 33,33.4 32.3,32 31.2,30.8 30,29.7 28.6,29 27.2,28.7 25.7,28.8 24.2,29.3 22.9,30.5 21.7,32.2 20.8,34.7 20.2,37.9 20,42 20,50" />
<path stroke="#000000" stroke-width="2" d="M 20,50 20.6,51.7 21.3,53.4 22.1,54.9 22.8,56.3 23.7,57.6 24.6,58.7 25.5,59.8 26.5,60.8 27.5,61.7 28.5,62.5 29.6,63.2 30.7,63.8 31.8,64.4 32.9,64.8 34.1,65.2 35.2,65.5 36.4,65.7 37.6,65.9 38.8,66 40,66" />
<path stroke="#000000" stroke-width="2" d="M 46.7,70" />
<path stroke="#000000" stroke-width="2" d="M 46.7,30" />
<path stroke="#000000" stroke-width="2" d="M 46.7,30 47,30 47.8,30 49.1,30.1 50.8,30.2 52.9,30.3 55.3,30.5 57.9,30.9 60.7,31.3 63.7,31.8 66.7,32.5 69.7,33.3 72.6,34.3 75.4,35.5 78,36.9 80.4,38.4 82.5,40.2 84.2,42.3 85.5,44.6 86.4,47.1 86.7,50" />
<path stroke="#000000" stroke-width="2" d="M 86.7,50 90.5,54.3 93.1,58.1 94.7,61.5 95.3,64.4 95.1,66.9 94.2,68.9 92.8,70.5 91,71.6 88.9,72.3 86.7,72.5 84.4,72.3 82.3,71.6 80.5,70.5 79.1,68.9 78.2,66.9 78,64.4 78.6,61.5 80.2,58.1 82.8,54.3 86.7,50" />
<path stroke="#000000" stroke-width="2" d="M 86.7,50 86.7,49.9 86.7,49.4 86.8,48.8 87,47.9 87.3,46.9 87.7,45.7 88.4,44.4 89.2,43 90.3,41.5 91.7,40 93.3,38.5 95.3,37 97.7,35.6 100.4,34.3 103.5,33.1 107.1,32.1 111.2,31.2 115.8,30.6 121,30.1 126.7,30" />
</svg>