<svg xmlns="http://www.w3.org/2000/svg" width="52.0" height="68.0" style="fill:none; stroke-linecap:round;">
    <rect width="100%" height="100%" fill="#FFFFFF" />
<path stroke="#000000" stroke-width="2" d="M 175,75" />
<path stroke="#000000" stroke-width="2" d="M 32,36 32,36.5 32,37 31.9,37.6 31.7,38.1 31.5,38.6 31.3,39 31.1,39.5 30.8,39.9 30.4,40.3 30.1,40.7 29.7,41 29.2,41.3 28.8,41.6 28.3,41.8 27.8,42 27.3,42.1 26.8,42.2 26.3,42.3 25.7,42.3 25.2,42.2 24.7,42.1 24.2,42 23.7,41.8 23.2,41.6 22.8,41.3 22.4,41 22,40.7 21.6,40.3 21.2,39.9 20.9,39.5 20.7,39 20.5,38.6 20.3,38.1 20.1,37.6 20.1,37 20,36.5 20,36 20.1,35.5 20.1,35 20.3,34.5 20.5,34 20.7,33.5 20.9,33 21.2,32.6 21.6,32.2 22,31.8 22.4,31.5 22.8,31.2 23.2,30.9 23.7,30.7 24.2,30.5 24.7,30.4 25.2,30.3 25.7,30.3 26.3,30.3 26.8,30.3 27.3,30.4 27.8,30.5 28.3,30.7 28.8,30.9 29.2,31.2 29.7,31.5 30.1,31.8 30.4,32.2 30.8,32.6 31.1,33 31.3,33.5 31.5,34 31.7,34.5 31.9,35 32,35.5 32,36 32,40" />
<path stroke="#000000" stroke-width="2" d="M 32,40 31.7,40.9 31.3,41.7 31,42.4 30.6,43.1 30.2,43.8 29.7,44.4 29.3,44.9 28.8,45.4 28.3,45.9 27.8,46.2 27.2,46.6 26.7,46.9 26.1,47.2 25.5,47.4 25,47.6 24.4,47.7 23.8,47.9 23.2,47.9 22.6,48 22,48" />
</svg>