<svg xmlns="http://www.w3.org/2000/svg" width="64.0" height="86.0" style="fill:none; stroke-linecap:round;">
    <rect width="100%" height="100%" fill="#FFFFFF" />
<path stroke="#000000" stroke-width="2" d="M 175,75" />
<path stroke="#000000" stroke-width="2" d="M 44,42 44,43 43.9,44.1 43.7,45.1 43.5,46.1 43.1,47.1 42.7,48.1 42.1,49 41.5,49.8 40.9,50.6 40.1,51.4 39.3,52 38.5,52.6 37.6,53.2 36.6,53.6 35.6,54 34.6,54.2 33.6,54.4 32.5,54.5 31.5,54.5 30.4,54.4 29.4,54.2 28.4,54 27.4,53.6 26.5,53.2 25.6,52.6 24.7,52 23.9,51.4 23.2,50.6 22.5,49.8 21.9,49 21.4,48.1 20.9,47.1 20.6,46.1 20.3,45.1 20.1,44.1 20,43 20,42 20.1,41 20.3,39.9 20.6,38.9 20.9,37.9 21.4,37 21.9,36.1 22.5,35.2 23.2,34.4 23.9,33.7 24.7,33 25.6,32.4 26.5,31.9 27.4,31.4 28.4,31.1 29.4,30.8 30.4,30.6 31.5,30.5 32.5,30.5 33.6,30.6 34.6,30.8 35.6,31.1 36.6,31.4 37.6,31.9 38.5,32.4 39.3,33 40.1,33.7 40.9,34.4 41.5,35.2 42.1,36.1 42.7,37 43.1,37.9 43.5,38.9 43.7,39.9 43.9,41 44,42 44,50" />
<path stroke="#000000" stroke-width="2" d="M 44,50 43.4,51.7 42.7,53.4 41.9,54.9 41.2,56.3 40.3,57.6 39.4,58.7 38.5,59.8 37.5,60.8 36.5,61.7 35.5,62.5 34.4,63.2 33.3,63.8 32.2,64.4 31.1,64.8 29.9,65.2 28.8,65.5 27.6,65.7 26.4,65.9 25.2,66 24,66" />
</svg>