<svg xmlns="http://www.w3.org/2000/svg" width="64.0" height="86.0" style="fill:none; stroke-linecap:round;">
    <rect width="100%" height="100%" fill="#FFFFFF" />
<path stroke="#000000" stroke-width="2" d="M 175,75" />
<path stroke="#000000" stroke-width="2" d="M 44,42" />
<path stroke="#000000" stroke-width="2" d="M 44,42 39.9,41.8 36.7,41.2 34.2,40.3 32.5,39.1 31.3,37.8 30.8,36.3 30.7,34.8 31,33.4 31.7,32 32.8,30.8 34,29.7 35.4,29 36.8,28.7 38.3,28.8 39.8,29.3 41.1,30.5 42.3,32.2 43.2,34.7 43.8,37.9 44,42 44,50" />
<path stroke="#000000" stroke-width="2" d="M 44,50 43.4,51.7 42.7,53.4 41.9,54.9 41.2,56.3 40.3,57.6 39.4,58.7 38.5,59.8 37.5,60.8 36.5,61.7 35.5,62.5 34.4,63.2 33.3,63.8 32.2,64.4 31.1,64.8 29.9,65.2 28.8,65.5 27.6,65.7 26.4,65.9 25.2,66 24,66" />
</svg>