<svg xmlns="http://www.w3.org/2000/svg" width="76.66666666666667" height="88.47759065022574" style="fill:none; stroke-linecap:round;">
    <rect width="100%" height="100%" fill="#FFFFFF" />
<path stroke="#000000" stroke-width="2" d="M 175,75" />
<path stroke="#000000" stroke-width="2" d="M 30,30 22.3,48.5 22.3,68.5 28,62.8" />
<path stroke="#000000" stroke-width="2" d="M 36.7,70" />
<path stroke="#000000" stroke-width="2" d="M 56.7,26 56.7,26.5 56.6,27 56.5,27.6 56.4,28.1 56.2,28.6 56,29 55.7,29.5 55.4,29.9 55.1,30.3 54.7,30.7 54.3,31 53.9,31.3 53.4,31.6 53,31.8 52.5,32 52,32.1 51.5,32.2 50.9,32.3 50.4,32.3 49.9,32.2 49.4,32.1 48.9,32 48.4,31.8 47.9,31.6 47.4,31.3 47,31 46.6,30.7 46.2,30.3 45.9,29.9 45.6,29.5 45.4,29 45.1,28.6 45,28.1 44.8,27.6 44.7,27 44.7,26.5 44.7,26 44.7,25.5 44.8,25 45,24.5 45.1,24 45.4,23.5 45.6,23 45.9,22.6 46.2,22.2 46.6,21.8 47,21.5 47.4,21.2 47.9,20.9 48.4,20.7 48.9,20.5 49.4,20.4 49.9,20.3 50.4,20.3 50.9,20.3 51.5,20.3 52,20.4 52.5,20.5 53,20.7 53.4,20.9 53.9,21.2 54.3,21.5 54.7,21.8 55.1,22.2 55.4,22.6 55.7,23 56,23.5 56.2,24 56.4,24.5 56.5,25 56.6,25.5 56.7,26 56.7,30" />
<path stroke="#000000" stroke-width="2" d="M 56.7,30 56.4,30.9 56,31.7 55.6,32.4 55.2,33.1 54.8,33.8 54.4,34.4 53.9,34.9 53.4,35.4 52.9,35.9 52.4,36.2 51.9,36.6 51.3,36.9 50.8,37.2 50.2,37.4 49.6,37.6 49.1,37.7 48.5,37.9 47.9,37.9 47.3,38 46.7,38" />
</svg>