<svg xmlns="http://www.w3.org/2000/svg" width="40.42667608947194" height="49.98096443163716" style="fill:none; stroke-linecap:round;">
    <rect width="100%" height="100%" fill="#FFFFFF" />
<path stroke="#000000" stroke-width="2" d="M 20,50" />
<path stroke="#000000" stroke-width="2" d="M 10,10 10.9,10 11.7,10.1 12.6,10.2 13.4,10.5 14.3,10.8 15.1,11.1 15.8,11.6 16.5,12.1 17.2,12.6 17.8,13.2 18.4,13.9 18.9,14.6 19.3,15.4 19.7,16.2 20,17 20.2,17.8 20.4,18.7 20.4,19.6 20.4,20.4 20.4,21.3 20.2,22.2 20,23 19.7,23.8 19.3,24.6 18.9,25.4 18.4,26.1 17.8,26.7 17.2,27.4 16.5,27.9 15.8,28.4 15.1,28.9 14.3,29.2 13.4,29.5 12.6,29.8 11.7,29.9 10.9,30" />
</svg>