<svg xmlns="http://www.w3.org/2000/svg" width="47.0152733311133" height="50.0" style="fill:none; stroke-linecap:round;">
    <rect width="100%" height="100%" fill="#F3F3F7" />
<path stroke="#663399" stroke-width="2" d="M 20,50" />
<path stroke="#663399" stroke-width="2" d="M 12,30 17.4,17.1 17.5,16.7 17.6,16.4 17.7,16.1 17.7,15.7 17.7,15.4 17.7,15 17.7,14.7 17.6,14.3 17.5,14 17.4,13.7 17.2,13.4 17,13.1 16.8,12.8 16.6,12.5 16.3,12.3 16,12.1 15.7,11.9 15.4,11.7 15.1,11.6 14.8,11.5 14.4,11.4 14.1,11.4 13.7,11.4 13.4,11.4 13,11.4 12.7,11.5 12.4,11.6 12,11.7 11.7,11.9 11.4,12.1 11.2,12.3 10.9,12.5 10.7,12.8 10.5,13.1 10.3,13.4 10.1,13.7 10,14 9.9,14.3 9.8,14.7 9.7,15 9.7,15.4 9.7,15.7 9.8,16.1 9.9,16.4 10,16.7 10.1,17.1 10.3,17.4 10.5,17.7 10.7,17.9 10.9,18.2 11.2,18.4 11.4,18.7 11.7,18.8 12,19 12.4,19.1 12.7,19.2 13,19.3 13.4,19.4 13.7,19.4 14.1,19.4 27,14" />
</svg>