<svg xmlns="http://www.w3.org/2000/svg" width="30" height="40" style="fill:none; stroke-linecap:round;">
    <rect width="100%" height="100%" fill="#F3F3F7" />
<path stroke="#663399" stroke-width="2" d="M 15,20" />
<path stroke="#663399" stroke-width="2" d="M 10,30 14.6,18.9 14.6,18.6 14.6,18.2 14.5,17.9 14.4,17.5 14.3,17.2 14.1,16.9 14,16.6 13.8,16.3 13.5,16 13.3,15.8 13,15.6 12.7,15.4 12.4,15.2 12.1,15 11.8,14.9 11.5,14.8 11.1,14.8 10.8,14.7 10.4,14.7 10.1,14.8 9.7,14.8 9.4,14.9 9.1,15 8.7,15.2 8.4,15.4 8.2,15.6 7.9,15.8 7.6,16 7.4,16.3 7.2,16.6 7,16.9 6.9,17.2 6.8,17.5 6.7,17.9 6.6,18.2 6.6,18.6 6.6,18.9 6.6,19.3 6.7,19.6 6.8,19.9 6.9,20.3 7,20.6 7.2,20.9 7.4,21.2 7.6,21.4 7.9,21.7 8.2,21.9 8.4,22.1 8.7,22.3 9.1,22.4 9.4,22.6 9.7,22.6 10.1,22.7 10.4,22.7 22.4,22.7" />
</svg>