<svg xmlns="http://www.w3.org/2000/svg" width="40" height="40" style="fill:none; stroke-linecap:round;">
    <rect width="100%" height="100%" fill="#F3F3F7" />
<path stroke="#663399" stroke-width="2" d="M 20,20" />
<path stroke="#663399" stroke-width="2" d="M 10,30 10,18 10,17.3 10.1,16.6 10.2,15.9 10.4,15.2 10.6,14.6 10.9,14 11.2,13.4 11.6,12.8 12.1,12.2 12.6,11.8 13.1,11.3 13.7,10.9 14.3,10.6 14.9,10.3 15.6,10 16.3,9.8 16.9,9.7 17.6,9.7 18.3,9.7 19,9.7 19.7,9.8 20.4,10 21.1,10.3 21.7,10.6 22.3,10.9 22.9,11.3 23.4,11.8 23.9,12.2 24.3,12.8 24.7,13.4 25.1,14 25.4,14.6 25.6,15.2 25.8,15.9 25.9,16.6 26,17.3 26,29.3" />
</svg>