<svg xmlns="http://www.w3.org/2000/svg" width="40" height="40" style="fill:none; stroke-linecap:round;">
    <rect width="100%" height="100%" fill="#F3F3F7" />
<path stroke="#663399" stroke-width="2" d="M 20,20" />
<path stroke="#663399" stroke-width="2" d="M 10,30 10,29.3 10.1,28.6 10.2,27.9 10.4,27.2 10.6,26.6 10.9,26 11.2,25.4 11.6,24.8 12.1,24.2 12.6,23.8 13.1,23.3 13.7,22.9 14.3,22.6 14.9,22.3 15.6,22 16.3,21.8 16.9,21.7 17.6,21.7 18.3,21.7 19,21.7 19.7,21.8 20.4,22 21.1,22.3 21.7,22.6 22.3,22.9 22.9,23.3 23.4,23.8 23.9,24.2 24.3,24.8 24.7,25.4 25.1,26 25.4,26.6 25.6,27.2 25.8,27.9 25.9,28.6 26,29.3" />
</svg>