<svg xmlns="http://www.w3.org/2000/svg" width="30" height="40" style="fill:none; stroke-linecap:round;">
    <rect width="100%" height="100%" fill="#F3F3F7" />
<path stroke="#663399" stroke-width="2" d="M 15,20" />
<path stroke="#663399" stroke-width="2" d="M 10,30 10,29.1 10.1,28.3 10.2,27.4 10.5,26.6 10.8,25.7 11.1,24.9 11.6,24.2 12.1,23.5 12.6,22.8 13.2,22.2 13.9,21.6 14.6,21.1 15.4,20.7 16.2,20.3 17,20 17.8,19.8 18.7,19.6 19.6,19.6 20.4,19.6 21.3,19.6 22.2,19.8 23,20 23.8,20.3 24.6,20.7 25.4,21.1 26.1,21.6 26.7,22.2 27.4,22.8 27.9,23.5 28.4,24.2 28.9,24.9 29.2,25.7 29.5,26.6 29.8,27.4 29.9,28.3 30,29.1" />
</svg>