<svg xmlns="http://www.w3.org/2000/svg" width="40" height="40" style="fill:none; stroke-linecap:round;">
    <rect width="100%" height="100%" fill="#F3F3F7" />
<path stroke="#663399" stroke-width="2" d="M 20,20" />
<path stroke="#663399" stroke-width="2" d="M 10,10 10,22 10,22.7 10.1,23.4 10.2,24.1 10.4,24.8 10.6,25.4 10.9,26 11.2,26.6 11.6,27.2 12.1,27.8 12.6,28.2 13.1,28.7 13.7,29.1 14.3,29.4 14.9,29.7 15.6,30 16.3,30.2 16.9,30.3 17.6,30.3 18.3,30.3 19,30.3 19.7,30.2 20.4,30 21.1,29.7 21.7,29.4 22.3,29.1 22.9,28.7 23.4,28.2 23.9,27.8 24.3,27.2 24.7,26.6 25.1,26 25.4,25.4 25.6,24.8 25.8,24.1 25.9,23.4 26,22.7 26,10.7" />
</svg>