<svg xmlns="http://www.w3.org/2000/svg" width="30" height="40" style="fill:none; stroke-linecap:round;">
    <rect width="100%" height="100%" fill="#F3F3F7" />
<path stroke="#663399" stroke-width="2" d="M 15,20" />
<path stroke="#663399" stroke-width="2" d="M 10,20 10,20.7 10.1,21.4 10.2,22.1 10.4,22.8 10.6,23.4 10.9,24 11.2,24.6 11.6,25.2 12.1,25.8 12.6,26.2 13.1,26.7 13.7,27.1 14.3,27.4 14.9,27.7 15.6,28 16.3,28.2 16.9,28.3 17.6,28.3 18.3,28.3 19,28.3 19.7,28.2 20.4,28 21.1,27.7 21.7,27.4 22.3,27.1 22.9,26.7 23.4,26.2 23.9,25.8 24.3,25.2 24.7,24.6 25.1,24 25.4,23.4 25.6,22.8 25.8,22.1 25.9,21.4 26,20.7" />
</svg>