<svg xmlns="http://www.w3.org/2000/svg" width="45.98477154530973" height="38.34134087157754" style="fill:none; stroke-linecap:round;">
    <rect width="100%" height="100%" fill="#F3F3F7" />
<path stroke="#663399" stroke-width="2" d="M 20,50" />
<path stroke="#663399" stroke-width="2" d="M 10,10 10,10.7 10.1,11.4 10.2,12.1 10.4,12.8 10.6,13.4 10.9,14 11.2,14.6 11.6,15.2 12.1,15.8 12.6,16.2 13.1,16.7 13.7,17.1 14.3,17.4 14.9,17.7 15.6,18 16.3,18.2 16.9,18.3 17.6,18.3 18.3,18.3 19,18.3 19.7,18.2 20.4,18 21.1,17.7 21.7,17.4 22.3,17.1 22.9,16.7 23.4,16.2 23.9,15.8 24.3,15.2 24.7,14.6 25.1,14 25.4,13.4 25.6,12.8 25.8,12.1 25.9,11.4 26,10.7" />
</svg>