<svg xmlns="http://www.w3.org/2000/svg" width="40" height="40" style="fill:none; stroke-linecap:round;">
    <rect width="100%" height="100%" fill="#F3F3F7" />
<path stroke="#663399" stroke-width="2" d="M 20,20" />
<path stroke="#663399" stroke-width="2" d="M 18,10 18.9,10 19.7,10.1 20.6,10.2 21.4,10.5 22.3,10.8 23.1,11.1 23.8,11.6 24.5,12.1 25.2,12.6 25.8,13.2 26.4,13.9 26.9,14.6 27.3,15.4 27.7,16.2 28,17 28.2,17.8 28.4,18.7 28.4,19.6 28.4,20.4 28.4,21.3 28.2,22.2 28,23 27.7,23.8 27.3,24.6 26.9,25.4 26.4,26.1 25.8,26.7 25.2,27.4 24.5,27.9 23.8,28.4 23.1,28.9 22.3,29.2 21.4,29.5 20.6,29.8 19.7,29.9 18.9,30 18,30 17.1,29.9 16.3,29.8 15.4,29.5 14.6,29.2 13.8,28.9 13.1,28.4 12.3,27.9 11.7,27.4 11.1,26.7 10.5,26.1 10,25.4 9.6,24.6 9.2,23.8 8.9,23 8.7,22.2 8.5,21.3 8.4,20.4 8.4,19.6 8.5,18.7 8.7,17.8 8.9,17 9.2,16.2 9.6,15.4 10,14.6 10.5,13.9 11.1,13.2 11.7,12.6 12.3,12.1 13.1,11.6 13.8,11.1 14.6,10.8 15.4,10.5 16.3,10.2 17.1,10.1 18,10 36,10" />
</svg>