<svg xmlns="http://www.w3.org/2000/svg" width="30" height="40" style="fill:none; stroke-linecap:round;">
    <rect width="100%" height="100%" fill="#F3F3F7" />
<path stroke="#663399" stroke-width="2" d="M 15,20" />
<path stroke="#663399" stroke-width="2" d="M 10,10 10.3,10 10.7,10 11,10.1 11.4,10.2 11.7,10.3 12,10.4 12.3,10.6 12.6,10.8 12.9,11 13.1,11.3 13.3,11.6 13.5,11.8 13.7,12.1 13.9,12.5 14,12.8 14.1,13.1 14.1,13.5 14.2,13.8 14.2,14.2 14.1,14.5 14.1,14.9 14,15.2 13.9,15.5 13.7,15.8 13.5,16.1 13.3,16.4 13.1,16.7 12.9,16.9 12.6,17.2 12.3,17.4 12,17.5 11.7,17.7 11.4,17.8 11,17.9 10.7,18 10.3,18 10,18 9.7,18 9.3,17.9 9,17.8 8.6,17.7 8.3,17.5 8,17.4 7.7,17.2 7.5,16.9 7.2,16.7 7,16.4 6.8,16.1 6.6,15.8 6.5,15.5 6.4,15.2 6.3,14.9 6.2,14.5 6.2,14.2 6.2,13.8 6.2,13.5 6.3,13.1 6.4,12.8 6.5,12.5 6.6,12.1 6.8,11.8 7,11.6 7.2,11.3 7.5,11 7.7,10.8 8,10.6 8.3,10.4 8.6,10.3 9,10.2 9.3,10.1 9.7,10 10,10 28,10" />
</svg>