<svg xmlns="http://www.w3.org/2000/svg" width="56.0" height="41.9885786589823" style="fill:none; stroke-linecap:round;">
    <rect width="100%" height="100%" fill="#F3F3F7" />
<path stroke="#663399" stroke-width="2" d="M 20,50" />
<path stroke="#663399" stroke-width="2" d="M 18,10 18.5,10 19,10 19.6,10.1 20.1,10.3 20.6,10.5 21,10.7 21.5,10.9 21.9,11.2 22.3,11.6 22.7,11.9 23,12.3 23.3,12.8 23.6,13.2 23.8,13.7 24,14.2 24.1,14.7 24.2,15.2 24.3,15.7 24.3,16.3 24.2,16.8 24.1,17.3 24,17.8 23.8,18.3 23.6,18.8 23.3,19.2 23,19.6 22.7,20 22.3,20.4 21.9,20.8 21.5,21.1 21,21.3 20.6,21.5 20.1,21.7 19.6,21.9 19,21.9 18.5,22 18,22 17.5,21.9 17,21.9 16.5,21.7 16,21.5 15.5,21.3 15,21.1 14.6,20.8 14.2,20.4 13.8,20 13.5,19.6 13.2,19.2 12.9,18.8 12.7,18.3 12.5,17.8 12.4,17.3 12.3,16.8 12.3,16.3 12.3,15.7 12.3,15.2 12.4,14.7 12.5,14.2 12.7,13.7 12.9,13.2 13.2,12.8 13.5,12.3 13.8,11.9 14.2,11.6 14.6,11.2 15,10.9 15.5,10.7 16,10.5 16.5,10.3 17,10.1 17.5,10 18,10 36,10" />
</svg>