<svg xmlns="http://www.w3.org/2000/svg" width="40" height="40" style="fill:none; stroke-linecap:round;">
    <rect width="100%" height="100%" fill="#F3F3F7" />
<path stroke="#663399" stroke-width="2" d="M 20,20" />
<path stroke="#663399" stroke-width="2" d="M 18,15 18,15.4 18,15.9 17.9,16.3 17.8,16.7 17.6,17.1 17.4,17.5 17.2,17.9 17,18.3 16.7,18.6 16.4,18.9 16,19.2 15.7,19.4 15.3,19.7 14.9,19.8 14.5,20 14.1,20.1 13.7,20.2 13.2,20.2 12.8,20.2 12.4,20.2 11.9,20.1 11.5,20 11.1,19.8 10.7,19.7 10.3,19.4 10,19.2 9.6,18.9 9.3,18.6 9,18.3 8.8,17.9 8.6,17.5 8.4,17.1 8.2,16.7 8.1,16.3 8,15.9 8,15.4 8,15 8,14.6 8.1,14.1 8.2,13.7 8.4,13.3 8.6,12.9 8.8,12.5 9,12.2 9.3,11.8 9.6,11.5 10,11.3 10.3,11 10.7,10.8 11.1,10.6 11.5,10.4 11.9,10.3 12.4,10.3 12.8,10.2 13.2,10.2 13.7,10.3 14.1,10.3 14.5,10.4 14.9,10.6 15.3,10.8 15.7,11 16,11.3 16.4,11.5 16.7,11.8 17,12.2 17.2,12.5 17.4,12.9 17.6,13.3 17.8,13.7 17.9,14.1 18,14.6 18,15 18,30" />
</svg>