<svg xmlns="http://www.w3.org/2000/svg" width="38.68162779195991" height="50.0" style="fill:none; stroke-linecap:round;">
    <rect width="100%" height="100%" fill="#FFFFFF" />
<path stroke="#000000" stroke-width="2" d="M 20,50" />
<path stroke="#000000" stroke-width="2" d="M 10,15 10.3,15.3 10.6,15.6 11,15.8 11.4,16.1 11.8,16.2 12.2,16.4 12.6,16.5 13,16.6 13.5,16.6 13.9,16.6 14.3,16.6 14.8,16.5 15.2,16.4 15.6,16.2 16,16.1 16.4,15.8 16.7,15.6 17.1,15.3 17.4,15 17.7,14.7 17.9,14.3 18.1,13.9 18.3,13.5 18.5,13.1 18.6,12.7 18.6,12.3 18.7,11.8 18.7,11.4 18.6,11 18.6,10.5 18.5,10.1 18.3,9.7 18.1,9.3 17.9,8.9 17.7,8.6 17.4,8.2 17.1,7.9 16.7,7.7 16.4,7.4 16,7.2 15.6,7 15.2,6.9 14.8,6.7 14.3,6.7 13.9,6.6 13.5,6.6 13,6.7 12.6,6.7 12.2,6.9 11.8,7 11.4,7.2 11,7.4 10.6,7.7 10.3,7.9 10,8.2 9.7,8.6 9.5,8.9 9.3,9.3 9.1,9.7 8.9,10.1 8.8,10.5 8.7,11 8.7,11.4 8.7,11.8 8.7,12.3 8.8,12.7 8.9,13.1 9.1,13.5 9.3,13.9 9.5,14.3 9.7,14.7 10,15 10,30" />
</svg>