<svg xmlns="http://www.w3.org/2000/svg" width="40" height="40" style="fill:none; stroke-linecap:round;">
    <rect width="100%" height="100%" fill="#F3F3F7" />
<path stroke="#663399" stroke-width="2" d="M 20,20" />
<path stroke="#663399" stroke-width="2" d="M 18,10 18,25 18,25.4 18,25.9 17.9,26.3 17.8,26.7 17.6,27.1 17.4,27.5 17.2,27.9 17,28.3 16.7,28.6 16.4,28.9 16,29.2 15.7,29.4 15.3,29.7 14.9,29.8 14.5,30 14.1,30.1 13.7,30.2 13.2,30.2 12.8,30.2 12.4,30.2 11.9,30.1 11.5,30 11.1,29.8 10.7,29.7 10.3,29.4 10,29.2 9.6,28.9 9.3,28.6 9,28.3 8.8,27.9 8.6,27.5 8.4,27.1 8.2,26.7 8.1,26.3 8,25.9 8,25.4 8,25 8,24.6 8.1,24.1 8.2,23.7 8.4,23.3 8.6,22.9 8.8,22.5 9,22.2 9.3,21.8 9.6,21.5 10,21.3 10.3,21 10.7,20.8 11.1,20.6 11.5,20.4 11.9,20.3 12.4,20.3 12.8,20.2 13.2,20.2 13.7,20.3 14.1,20.3 14.5,20.4 14.9,20.6 15.3,20.8 15.7,21 16,21.3 16.4,21.5 16.7,21.8 17,22.2 17.2,22.5 17.4,22.9 17.6,23.3 17.8,23.7 17.9,24.1 18,24.6 18,25" />
</svg>