<svg xmlns="http://www.w3.org/2000/svg" width="30" height="40" style="fill:none; stroke-linecap:round;">
    <rect width="100%" height="100%" fill="#F3F3F7" />
<path stroke="#663399" stroke-width="2" d="M 15,20" />
<path stroke="#663399" stroke-width="2" d="M 10,16 10,26 10,26.3 10,26.7 9.9,27 9.8,27.4 9.7,27.7 9.6,28 9.4,28.3 9.2,28.6 9,28.9 8.7,29.1 8.4,29.3 8.2,29.5 7.9,29.7 7.5,29.9 7.2,30 6.9,30.1 6.5,30.1 6.2,30.2 5.8,30.2 5.5,30.1 5.1,30.1 4.8,30 4.5,29.9 4.2,29.7 3.9,29.5 3.6,29.3 3.3,29.1 3.1,28.9 2.8,28.6 2.6,28.3 2.5,28 2.3,27.7 2.2,27.4 2.1,27 2,26.7 2,26.3 2,26 2,25.7 2.1,25.3 2.2,25 2.3,24.6 2.5,24.3 2.6,24 2.8,23.7 3.1,23.5 3.3,23.2 3.6,23 3.9,22.8 4.2,22.6 4.5,22.5 4.8,22.4 5.1,22.3 5.5,22.2 5.8,22.2 6.2,22.2 6.5,22.2 6.9,22.3 7.2,22.4 7.5,22.5 7.9,22.6 8.2,22.8 8.4,23 8.7,23.2 9,23.5 9.2,23.7 9.4,24 9.6,24.3 9.7,24.6 9.8,25 9.9,25.3 10,25.7 10,26" />
</svg>