<svg xmlns="http://www.w3.org/2000/svg" width="49.980964431637155" height="50.42667608947194" style="fill:none; stroke-linecap:round;">
    <rect width="100%" height="100%" fill="#FFFFFF" />
<path stroke="#000000" stroke-width="2" d="M 20,50" />
<path stroke="#000000" stroke-width="2" d="M 10,20 10,20.9 10.1,21.7 10.2,22.6 10.5,23.4 10.8,24.3 11.1,25.1 11.6,25.8 12.1,26.5 12.6,27.2 13.2,27.8 13.9,28.4 14.6,28.9 15.4,29.3 16.2,29.7 17,30 17.8,30.2 18.7,30.4 19.6,30.4 20.4,30.4 21.3,30.4 22.2,30.2 23,30 23.8,29.7 24.6,29.3 25.4,28.9 26.1,28.4 26.7,27.8 27.4,27.2 27.9,26.5 28.4,25.8 28.9,25.1 29.2,24.3 29.5,23.4 29.8,22.6 29.9,21.7 30,20.9 30,20 29.9,19.1 29.8,18.3 29.5,17.4 29.2,16.6 28.9,15.8 28.4,15.1 27.9,14.3 27.4,13.7 26.7,13.1 26.1,12.5 25.4,12 24.6,11.6 23.8,11.2 23,10.9 22.2,10.7 21.3,10.5 20.4,10.4 19.6,10.4 18.7,10.5 17.8,10.7 17,10.9 16.2,11.2 15.4,11.6 14.6,12 13.9,12.5 13.2,13.1 12.6,13.7 12.1,14.3 11.6,15.1 11.1,15.8 10.8,16.6 10.5,17.4 10.2,18.3 10.1,19.1 10,20" />
</svg>