<svg xmlns="http://www.w3.org/2000/svg" width="50.42667608947194" height="49.98096443163716" style="fill:none; stroke-linecap:round;">
    <rect width="100%" height="100%" fill="#FFFFFF" />
<path stroke="#000000" stroke-width="2" d="M 20,50" />
<path stroke="#000000" stroke-width="2" d="M 20,10 20.9,10 21.7,10.1 22.6,10.2 23.4,10.5 24.3,10.8 25.1,11.1 25.8,11.6 26.5,12.1 27.2,12.6 27.8,13.2 28.4,13.9 28.9,14.6 29.3,15.4 29.7,16.2 30,17 30.2,17.8 30.4,18.7 30.4,19.6 30.4,20.4 30.4,21.3 30.2,22.2 30,23 29.7,23.8 29.3,24.6 28.9,25.4 28.4,26.1 27.8,26.7 27.2,27.4 26.5,27.9 25.8,28.4 25.1,28.9 24.3,29.2 23.4,29.5 22.6,29.8 21.7,29.9 20.9,30 20,30 19.1,29.9 18.3,29.8 17.4,29.5 16.6,29.2 15.8,28.9 15.1,28.4 14.3,27.9 13.7,27.4 13.1,26.7 12.5,26.1 12,25.4 11.6,24.6 11.2,23.8 10.9,23 10.7,22.2 10.5,21.3 10.4,20.4 10.4,19.6 10.5,18.7 10.7,17.8 10.9,17 11.2,16.2 11.6,15.4 12,14.6 12.5,13.9 13.1,13.2 13.7,12.6 14.3,12.1 15.1,11.6 15.8,11.1 16.6,10.8 17.4,10.5 18.3,10.2 19.1,10.1 20,10" />
</svg>