<svg xmlns="http://www.w3.org/2000/svg" width="30" height="40" style="fill:none; stroke-linecap:round;">
    <rect width="100%" height="100%" fill="#F3F3F7" />
<path stroke="#663399" stroke-width="2" d="M 15,20" />
<path stroke="#663399" stroke-width="2" d="M 20,18 20,18.9 19.9,19.7 19.8,20.6 19.5,21.4 19.2,22.3 18.9,23.1 18.4,23.8 17.9,24.5 17.4,25.2 16.8,25.8 16.1,26.4 15.4,26.9 14.6,27.3 13.8,27.7 13,28 12.2,28.2 11.3,28.4 10.4,28.4 9.6,28.4 8.7,28.4 7.8,28.2 7,28 6.2,27.7 5.4,27.3 4.6,26.9 3.9,26.4 3.3,25.8 2.6,25.2 2.1,24.5 1.6,23.8 1.1,23.1 0.8,22.3 0.5,21.4 0.2,20.6 0.1,19.7 0,18.9 0,18 0.1,17.1 0.2,16.3 0.5,15.4 0.8,14.6 1.1,13.8 1.6,13.1 2.1,12.3 2.6,11.7 3.3,11.1 3.9,10.5 4.6,10 5.4,9.6 6.2,9.2 7,8.9 7.8,8.7 8.7,8.5 9.6,8.4 10.4,8.4 11.3,8.5 12.2,8.7 13,8.9 13.8,9.2 14.6,9.6 15.4,10 16.1,10.5 16.8,11.1 17.4,11.7 17.9,12.3 18.4,13.1 18.9,13.8 19.2,14.6 19.5,15.4 19.8,16.3 19.9,17.1 20,18" />
</svg>