<svg xmlns="http://www.w3.org/2000/svg" width="50.42667608947193" height="50.0" style="fill:none; stroke-linecap:round;">
    <rect width="100%" height="100%" fill="#F3F3F7" />
<path stroke="#663399" stroke-width="2" d="M 20,50" />
<path stroke="#663399" stroke-width="2" d="M 20,30 20.9,30 21.7,29.9 22.6,29.8 23.4,29.5 24.3,29.2 25.1,28.9 25.8,28.4 26.5,27.9 27.2,27.4 27.8,26.8 28.4,26.1 28.9,25.4 29.3,24.6 29.7,23.8 30,23 30.2,22.2 30.4,21.3 30.4,20.4 30.4,19.6 30.4,18.7 30.2,17.8 30,17 29.7,16.2 29.3,15.4 28.9,14.6 28.4,13.9 27.8,13.3 27.2,12.6 26.5,12.1 25.8,11.6 25.1,11.1 24.3,10.8 23.4,10.5 22.6,10.2 21.7,10.1 20.9,10 20,10 19.1,10.1 18.3,10.2 17.4,10.5 16.6,10.8 15.8,11.1 15.1,11.6 14.3,12.1 13.7,12.6 13.1,13.3 12.5,13.9 12,14.6 11.6,15.4 11.2,16.2 10.9,17 10.7,17.8 10.5,18.7 10.4,19.6 10.4,20.4 10.5,21.3 10.7,22.2 10.9,23 11.2,23.8 11.6,24.6 12,25.4 12.5,26.1 13.1,26.8 13.7,27.4 14.3,27.9 15.1,28.4 15.8,28.9 16.6,29.2 17.4,29.5 18.3,29.8 19.1,29.9 20,30" />
</svg>