<svg xmlns="http://www.w3.org/2000/svg" width="40" height="40" style="fill:none; stroke-linecap:round;">
    <rect width="100%" height="100%" fill="#F3F3F7" />
<path stroke="#663399" stroke-width="2" d="M 20,20" />
<path stroke="#663399" stroke-width="2" d="M 30,20 30,20.9 29.9,21.7 29.8,22.6 29.5,23.4 29.2,24.3 28.9,25.1 28.4,25.8 27.9,26.5 27.4,27.2 26.8,27.8 26.1,28.4 25.4,28.9 24.6,29.3 23.8,29.7 23,30 22.2,30.2 21.3,30.4 20.4,30.4 19.6,30.4 18.7,30.4 17.8,30.2 17,30 16.2,29.7 15.4,29.3 14.6,28.9 13.9,28.4 13.3,27.8 12.6,27.2 12.1,26.5 11.6,25.8 11.1,25.1 10.8,24.3 10.5,23.4 10.2,22.6 10.1,21.7 10,20.9 10,20 10.1,19.1 10.2,18.3 10.5,17.4 10.8,16.6 11.1,15.8 11.6,15.1 12.1,14.3 12.6,13.7 13.3,13.1 13.9,12.5 14.6,12 15.4,11.6 16.2,11.2 17,10.9 17.8,10.7 18.7,10.5 19.6,10.4 20.4,10.4 21.3,10.5 22.2,10.7 23,10.9 23.8,11.2 24.6,11.6 25.4,12 26.1,12.5 26.8,13.1 27.4,13.7 27.9,14.3 28.4,15.1 28.9,15.8 29.2,16.6 29.5,17.4 29.8,18.3 29.9,19.1 30,20" />
</svg>