<svg xmlns="http://www.w3.org/2000/svg" width="30" height="40" style="fill:none; stroke-linecap:round;">
    <rect width="100%" height="100%" fill="#F3F3F7" />
<path stroke="#663399" stroke-width="2" d="M 15,20" />
<path stroke="#663399" stroke-width="2" d="M 20,18 20,18.5 20,19 19.9,19.6 19.7,20.1 19.5,20.6 19.3,21 19.1,21.5 18.8,21.9 18.4,22.3 18.1,22.7 17.7,23 17.2,23.3 16.8,23.6 16.3,23.8 15.8,24 15.3,24.1 14.8,24.2 14.3,24.3 13.7,24.3 13.2,24.2 12.7,24.1 12.2,24 11.7,23.8 11.2,23.6 10.8,23.3 10.4,23 10,22.7 9.6,22.3 9.2,21.9 8.9,21.5 8.7,21 8.5,20.6 8.3,20.1 8.1,19.6 8.1,19 8,18.5 8,18 8.1,17.5 8.1,17 8.3,16.5 8.5,16 8.7,15.5 8.9,15 9.2,14.6 9.6,14.2 10,13.8 10.4,13.5 10.8,13.2 11.2,12.9 11.7,12.7 12.2,12.5 12.7,12.4 13.2,12.3 13.7,12.3 14.3,12.3 14.8,12.3 15.3,12.4 15.8,12.5 16.3,12.7 16.8,12.9 17.2,13.2 17.7,13.5 18.1,13.8 18.4,14.2 18.8,14.6 19.1,15 19.3,15.5 19.5,16 19.7,16.5 19.9,17 20,17.5 20,18" />
</svg>