<svg xmlns="http://www.w3.org/2000/svg" width="940.7147720355866" height="90.2" style="fill:none; stroke-linecap:round;">
    <rect width="100%" height="100%" fill="#FFFFFF" />
<path stroke="#000000" stroke-width="2" d="M 550,75" />
<path stroke="#000000" stroke-width="2" d="M 40,30 24.7,67 29.3,55.9 30,54.3 30.8,52.7 31.7,51.2 32.8,49.9 33.9,48.6 35.2,47.4 36.6,46.3 38.1,45.4 39.6,44.6 41.2,43.9 42.9,43.4 44.6,43" />
<path stroke="#000000" stroke-width="2" d="M 51.3,70" />
<path stroke="#000000" stroke-width="2" d="M 51.3,20 58.9,38.5" />
<path stroke="#000000" stroke-width="2" d="M 65.6,70" />
<path stroke="#000000" stroke-width="2" d="M 65.6,20 65.6,40 65.6,34 65.6,33.1 65.7,32.3 65.8,31.4 66,30.6 66.3,29.7 66.7,28.9 67.1,28.2 67.6,27.5 68.2,26.8 68.8,26.2 69.5,25.6 70.2,25.1 71,24.7 71.8,24.3 72.6,24 73.4,23.8 74.3,23.6 75.1,23.6" />
<path stroke="#000000" stroke-width="2" d="M 105.1,70" />
<path stroke="#000000" stroke-width="2" d="M 121.1,30 101.3,49.8 121.1,69.6" />
<path stroke="#000000" stroke-width="2" d="M 127.8,70" />
<path stroke="#000000" stroke-width="2" d="M 127.8,20" />
<path stroke="#000000" stroke-width="2" d="M 127.8,20 129.2,20.1 130.5,20.6 131.6,21.2 132.6,22.1 133.4,23.1 134.1,24.3 134.6,25.6 135,27 135.2,28.5 135.3,30 135.2,31.5 135,33 134.6,34.4 134.1,35.7 133.4,36.9 132.6,37.9 131.6,38.8 130.5,39.4 129.2,39.9 127.8,40" />
<path stroke="#000000" stroke-width="2" d="M 165.3,70" />
<path stroke="#000000" stroke-width="2" d="M 165.3,30 165.3,38 165.3,39 165.4,40.1 165.6,41.1 165.9,42.1 166.2,43.1 166.7,44.1 167.2,45 167.8,45.8 168.5,46.6 169.2,47.4 170,48 170.9,48.6 171.8,49.2 172.7,49.6 173.7,50 174.7,50.2 175.7,50.4 176.8,50.5 177.8,50.5 178.9,50.4 179.9,50.2 180.9,50 181.9,49.6 182.8,49.2 183.7,48.6 184.6,48 185.4,47.4 186.1,46.6 186.8,45.8 187.4,45 187.9,44.1 188.4,43.1 188.7,42.1 189,41.1 189.2,40.1 189.3,39 189.3,29 189.3,69" />
<path stroke="#000000" stroke-width="2" d="M 196,70" />
<path stroke="#000000" stroke-width="2" d="M 196,50 216,50" />
<path stroke="#000000" stroke-width="2" d="M 246,70" />
<path stroke="#000000" stroke-width="2" d="M 256,50 256.8,50 257.7,49.9 258.6,49.8 259.4,49.5 260.2,49.2 261,48.9 261.8,48.4 262.5,47.9 263.1,47.4 263.8,46.8 264.3,46.1 264.8,45.4 265.3,44.6 265.6,43.8 265.9,43 266.2,42.2 266.3,41.3 266.4,40.4 266.4,39.6 266.3,38.7 266.2,37.8 265.9,37 265.6,36.2 265.3,35.4 264.8,34.6 264.3,33.9 263.8,33.3 263.1,32.6 262.5,32.1 261.8,31.6 261,31.1 260.2,30.8 259.4,30.5 258.6,30.2 257.7,30.1 256.8,30 256,30 255.1,30.1 254.2,30.2 253.4,30.5 252.6,30.8 251.8,31.1 251,31.6 250.3,32.1 249.6,32.6 249,33.3 248.5,33.9 248,34.6 247.5,35.4 247.2,36.2 246.9,37 246.6,37.8 246.5,38.7 246.4,39.6 246.4,40.4 246.5,41.3 246.6,42.2 246.9,43 247.2,43.8 247.5,44.6 248,45.4 248.5,46.1 249,46.8 249.6,47.4 250.3,47.9 251,48.4 251.8,48.9 252.6,49.2 253.4,49.5 254.2,49.8 255.1,49.9 256,50 256,70 256,64 256,63.1 256,62.3 256.2,61.4 256.4,60.6 256.7,59.7 257.1,58.9 257.5,58.2 258,57.5 258.6,56.8 259.2,56.2 259.9,55.6 260.6,55.1 261.3,54.7 262.1,54.3 262.9,54 263.8,53.8 264.6,53.6 265.5,53.6" />
<path stroke="#000000" stroke-width="2" d="M 273.1,70" />
<path stroke="#000000" stroke-width="2" d="M 273.1,50 273.3,50 273.3,50.2 273.1,50.2 273.1,50" />
<path stroke="#000000" stroke-width="2" d="M 303.3,70" />
<path stroke="#000000" stroke-width="2" d="M 319.3,30 299.5,49.8 319.3,69.6" />
<path stroke="#000000" stroke-width="2" d="M 325.9,70" />
<path stroke="#000000" stroke-width="2" d="M 325.9,30 365.9,30 326.3,69.6 366.3,69.6" />
<path stroke="#000000" stroke-width="2" d="M 396.3,70" />
<path stroke="#000000" stroke-width="2" d="M 396.3,30 396.3,70" />
<path stroke="#000000" stroke-width="2" d="M 403,70" />
<path stroke="#000000" stroke-width="2" d="M 403,20" />
<path stroke="#000000" stroke-width="2" d="M 403,20 403.1,20 403.5,20 404.2,20 405.1,20.1 406.1,20.2 407.3,20.3 408.6,20.4 410,20.6 411.5,20.9 413,21.2 414.5,21.7 415.9,22.2 417.4,22.7 418.7,23.4 419.9,24.2 420.9,25.1 421.8,26.1 422.4,27.3 422.8,28.6 423,30" />
<path stroke="#000000" stroke-width="2" d="M 423,30 424.9,32.1 426.2,34.1 427,35.7 427.3,37.2 427.2,38.4 426.8,39.4 426.1,40.2 425.1,40.8 424.1,41.1 423,41.2 421.9,41.1 420.8,40.8 419.9,40.2 419.2,39.4 418.8,38.4 418.7,37.2 419,35.7 419.7,34 421.1,32.1 423,30" />
<path stroke="#000000" stroke-width="2" d="M 423,30 423,29.9 423,29.7 423.1,29.4 423.1,29 423.3,28.4 423.5,27.8 423.8,27.2 424.3,26.5 424.8,25.7 425.5,25 426.3,24.3 427.3,23.5 428.5,22.8 429.8,22.2 431.4,21.6 433.2,21 435.3,20.6 437.6,20.3 440.1,20.1 443,20 450.6,1.5 458.3,20 458.3,20.7 458.4,21.4 458.5,22.1 458.7,22.8 458.9,23.4 459.2,24 459.5,24.6 459.9,25.2 460.4,25.8 460.9,26.2 461.4,26.7 462,27.1 462.6,27.4 463.2,27.7 463.9,28 464.6,28.2 465.2,28.3 465.9,28.3 466.6,28.3 467.3,28.3 468,28.2 468.7,28 469.3,27.7 470,27.4 470.6,27.1 471.2,26.7 471.7,26.2 472.2,25.8 472.6,25.2 473,24.6 473.4,24 473.7,23.4 473.9,22.8 474.1,22.1 474.2,21.4 474.3,20.7 494.3,20.7 474.5,40.5 494.5,40.5" />
<path stroke="#000000" stroke-width="2" d="M 524.5,70" />
<path stroke="#000000" stroke-width="2" d="M 524.5,70 524.7,70 524.7,70.2 524.5,70.2 524.5,70" />
<path stroke="#000000" stroke-width="2" d="M 554.7,70" />
<path stroke="#000000" stroke-width="2" d="M 574.7,30 559.4,67" />
<path stroke="#000000" stroke-width="2" d="M 581.3,70" />
<path stroke="#000000" stroke-width="2" d="M 581.3,50 581.5,50 581.5,50.2 581.3,50.2 581.3,50" />
<path stroke="#000000" stroke-width="2" d="M 611.5,70" />
<path stroke="#000000" stroke-width="2" d="M 611.5,30 626.9,67" />
<path stroke="#000000" stroke-width="2" d="M 633.5,70" />
<path stroke="#000000" stroke-width="2" d="M 633.5,20 633.5,40 633.5,34 633.5,33.1 633.6,32.3 633.7,31.4 634,30.6 634.3,29.7 634.6,28.9 635.1,28.2 635.6,27.5 636.1,26.8 636.8,26.2 637.4,25.6 638.1,25.1 638.9,24.7 639.7,24.3 640.5,24 641.3,23.8 642.2,23.6 643.1,23.6 643.1,22.9 643.1,22.2 643.3,21.5 643.4,20.8 643.7,20.2 644,19.5 644.3,18.9 644.7,18.4 645.2,17.8 645.7,17.3 646.2,16.9 646.8,16.5 647.4,16.1 648,15.8 648.7,15.6 649.3,15.4 650,15.3 650.7,15.2 651.4,15.2 652.1,15.3 652.8,15.4 653.5,15.6 654.1,15.8 654.8,16.1 655.4,16.5 655.9,16.9 656.5,17.3 657,17.8 657.4,18.4 657.8,18.9 658.2,19.5 658.5,20.2 658.7,20.8 658.9,21.5 659,22.2 659.1,22.9" />
<path stroke="#000000" stroke-width="2" d="M 689.1,70" />
<path stroke="#000000" stroke-width="2" d="M 689.1,70 689.3,70 689.3,70.2 689.1,70.2 689.1,70" />
<path stroke="#000000" stroke-width="2" d="M 695.9,70" />
<path stroke="#000000" stroke-width="2" d="M 711.9,30" />
<path stroke="#000000" stroke-width="2" d="M 711.9,30 711.7,34.1 711.1,37.3 710.2,39.8 709,41.5 707.7,42.7 706.3,43.2 704.8,43.3 703.3,43 701.9,42.3 700.7,41.2 699.7,40 699,38.6 698.6,37.2 698.7,35.7 699.3,34.2 700.4,32.9 702.2,31.7 704.6,30.8 707.9,30.2 711.9,30 731.9,30" />
<path stroke="#000000" stroke-width="2" d="M 738.6,70" />
<path stroke="#000000" stroke-width="2" d="M 738.6,20 738.6,40 748.6,40" />
<path stroke="#000000" stroke-width="2" d="M 748.6,40 748.5,42 748.2,43.6 747.7,44.9 747.2,45.8 746.5,46.3 745.8,46.6 745,46.7 744.3,46.5 743.6,46.1 743,45.6 742.5,45 742.1,44.3 741.9,43.6 742,42.8 742.3,42.1 742.8,41.4 743.7,40.9 744.9,40.4 746.6,40.1 748.6,40 758.6,40" />
<path stroke="#000000" stroke-width="2" d="M 765.3,70" />
<path stroke="#000000" stroke-width="2" d="M 765.3,20 765.3,40 765.3,34 765.3,33.1 765.3,32.3 765.5,31.4 765.7,30.6 766,29.7 766.4,28.9 766.8,28.2 767.3,27.5 767.9,26.8 768.5,26.2 769.2,25.6 769.9,25.1 770.6,24.7 771.4,24.3 772.2,24 773.1,23.8 773.9,23.6 774.8,23.6" />
<path stroke="#000000" stroke-width="2" d="M 804.8,70" />
<path stroke="#000000" stroke-width="2" d="M 804.8,30 804.8,70 816.1,58.7" />
<path stroke="#000000" stroke-width="2" d="M 822.8,70" />
<path stroke="#000000" stroke-width="2" d="M 822.8,20 842.8,20 823,39.8 843,39.8" />
<path stroke="#000000" stroke-width="2" d="M 873,70" />
<path stroke="#000000" stroke-width="2" d="M 893,70 894.7,70 896.5,69.8 898.2,69.5 899.9,69.1 901.5,68.5 903.1,67.8 904.6,66.9 906,65.9 907.4,64.8 908.6,63.5 909.7,62.2 910.7,60.8 911.6,59.3 912.3,57.7 912.9,56 913.4,54.3 913.7,52.6 913.8,50.9 913.8,49.1 913.7,47.4 913.4,45.7 912.9,44 912.3,42.4 911.6,40.8 910.7,39.3 909.7,37.8 908.6,36.5 907.4,35.3 906,34.2 904.6,33.2 903.1,32.3 901.5,31.5 899.9,30.9 898.2,30.5 896.5,30.2 894.7,30 893,30 891.3,30.2 889.5,30.5 887.9,30.9 886.2,31.5 884.6,32.3 883.1,33.2 881.7,34.2 880.4,35.3 879.1,36.5 878,37.8 877,39.3 876.1,40.8 875.4,42.4 874.8,44 874.3,45.7 874,47.4 873.9,49.1 873.9,50.9 874,52.6 874.3,54.3 874.8,56 875.4,57.7 876.1,59.3 877,60.8 878,62.2 879.1,63.5 880.4,64.8 881.7,65.9 883.1,66.9 884.6,67.8 886.2,68.5 887.9,69.1 889.5,69.5 891.3,69.8 893,70" />
<path stroke="#000000" stroke-width="2" d="M 920.5,70" />
<path stroke="#000000" stroke-width="2" d="M 920.5,20 920.7,20 920.7,20.2 920.5,20.2 920.5,20" />
<path stroke="#000000" stroke-width="2" d="M 950.7,70" />
</svg>