<svg xmlns="http://www.w3.org/2000/svg" width="792.3479855827896" height="107.05091456075381" style="fill:none; stroke-linecap:round;">
    <rect width="100%" height="100%" fill="#FFFFFF" />
<path stroke="#000000" stroke-width="2" d="M 550,75" />
<path stroke="#000000" stroke-width="2" d="M 30,30 22.3,48.5 22.3,68.5 28,62.8" />
<path stroke="#000000" stroke-width="2" d="M 36.7,70" />
<path stroke="#000000" stroke-width="2" d="M 36.7,20 56.7,20 49,38.5" />
<path stroke="#000000" stroke-width="2" d="M 63.3,70" />
<path stroke="#000000" stroke-width="2" d="M 63.3,30 63.5,30 63.5,30.2 63.3,30.2 63.3,30" />
<path stroke="#000000" stroke-width="2" d="M 93.5,70" />
<path stroke="#000000" stroke-width="2" d="M 93.5,30 103.5,30 103.5,70" />
<path stroke="#000000" stroke-width="2" d="M 110.2,70" />
<path stroke="#000000" stroke-width="2" d="M 110.2,20 110.2,40 120.2,40 127.9,58.5 135.5,40" />
<path stroke="#000000" stroke-width="2" d="M 165.5,70" />
<path stroke="#000000" stroke-width="2" d="M 185.5,30 185.5,70 165.5,70" />
<path stroke="#000000" stroke-width="2" d="M 192.2,70" />
<path stroke="#000000" stroke-width="2" d="M 192.2,30 192.2,50 192.2,44 192.2,43.1 192.3,42.3 192.4,41.4 192.6,40.6 192.9,39.7 193.3,38.9 193.7,38.2 194.2,37.5 194.8,36.8 195.4,36.2 196.1,35.6 196.8,35.1 197.5,34.7 198.3,34.3 199.2,34 200,33.8 200.9,33.6 201.7,33.6 221.7,33.6 201.9,53.4 221.9,53.4" />
<path stroke="#000000" stroke-width="2" d="M 251.9,70" />
<path stroke="#000000" stroke-width="2" d="M 251.9,30 251.9,50 261.9,50 281.9,50" />
<path stroke="#000000" stroke-width="2" d="M 311.9,70" />
<path stroke="#000000" stroke-width="2" d="M 311.9,40 312.1,40 312.1,40.2 311.9,40.2 311.9,40" />
<path stroke="#000000" stroke-width="2" d="M 318.8,70" />
<path stroke="#000000" stroke-width="2" d="M 318.8,30 328.8,30 328.8,70" />
<path stroke="#000000" stroke-width="2" d="M 335.5,70" />
<path stroke="#000000" stroke-width="2" d="M 335.5,50 335.5,70 335.5,64 335.5,63.1 335.5,62.3 335.7,61.4 335.9,60.6 336.2,59.7 336.6,58.9 337,58.2 337.5,57.5 338.1,56.8 338.7,56.2 339.4,55.6 340.1,55.1 340.8,54.7 341.6,54.3 342.4,54 343.3,53.8 344.1,53.6 345,53.6" />
<path stroke="#000000" stroke-width="2" d="M 345,53.6 347,53.5 348.7,53.2 349.9,52.7 350.8,52.1 351.3,51.5 351.6,50.7 351.7,50 351.5,49.3 351.1,48.6 350.6,47.9 350,47.4 349.3,47.1 348.6,46.9 347.9,47 347.1,47.2 346.5,47.8 345.9,48.7 345.4,49.9 345.1,51.5 345,53.6 345,68.6 337.4,87.1" />
<path stroke="#000000" stroke-width="2" d="M 381.7,70" />
<path stroke="#000000" stroke-width="2" d="M 381.7,30 381.7,31.4 381.8,32.8 382,34.2 382.4,35.5 382.9,36.8 383.5,38.1 384.2,39.3 385,40.4 385.9,41.5 386.8,42.5 387.9,43.4 389.1,44.2 390.3,44.9 391.5,45.5 392.8,46 394.2,46.3 395.6,46.6 397,46.7 398.4,46.7 399.7,46.6 401.1,46.3 402.5,46 403.8,45.5 405,44.9 406.3,44.2 407.4,43.4 408.5,42.5 409.5,41.5 410.3,40.4 411.2,39.3 411.8,38.1 412.4,36.8 412.9,35.5 413.3,34.2 413.5,32.8 413.6,31.4" />
<path stroke="#000000" stroke-width="2" d="M 420.3,70" />
<path stroke="#000000" stroke-width="2" d="M 420.3,20 420.3,40 430.3,40 430.3,60" />
<path stroke="#000000" stroke-width="2" d="M 437,70" />
<path stroke="#000000" stroke-width="2" d="M 437,20" />
<path stroke="#000000" stroke-width="2" d="M 437,20 437.1,20 437.5,20 438.2,20 439.1,20.1 440.1,20.2 441.3,20.3 442.6,20.4 444,20.6 445.5,20.9 447,21.2 448.5,21.7 449.9,22.2 451.3,22.7 452.7,23.4 453.8,24.2 454.9,25.1 455.8,26.1 456.4,27.3 456.8,28.6 457,30" />
<path stroke="#000000" stroke-width="2" d="M 457,30 458.9,32.1 460.2,34.1 461,35.7 461.3,37.2 461.2,38.4 460.8,39.4 460,40.2 459.1,40.8 458.1,41.1 457,41.2 455.9,41.1 454.8,40.8 453.9,40.2 453.2,39.4 452.8,38.4 452.7,37.2 453,35.7 453.7,34 455.1,32.1 457,30" />
<path stroke="#000000" stroke-width="2" d="M 457,30 457,29.9 457,29.7 457,29.4 457.1,29 457.3,28.4 457.5,27.8 457.8,27.2 458.3,26.5 458.8,25.7 459.5,25 460.3,24.3 461.3,23.5 462.5,22.8 463.8,22.2 465.4,21.6 467.2,21 469.3,20.6 471.6,20.3 474.1,20.1 477,20 477,40 477,34 477,33.1 477.1,32.3 477.2,31.4 477.4,30.6 477.7,29.7 478.1,28.9 478.5,28.2 479,27.5 479.6,26.8 480.2,26.2 480.9,25.6 481.6,25.1 482.3,24.7 483.1,24.3 484,24 484.8,23.8 485.7,23.6 486.5,23.6" />
<path stroke="#000000" stroke-width="2" d="M 516.5,70" />
<path stroke="#000000" stroke-width="2" d="M 516.5,38 516.5,37.3 516.6,36.6 516.7,35.9 516.9,35.2 517.1,34.6 517.4,34 517.8,33.4 518.2,32.8 518.6,32.2 519.1,31.8 519.7,31.3 520.2,30.9 520.8,30.6 521.5,30.3 522.1,30 522.8,29.8 523.5,29.7 524.2,29.7 524.9,29.7 525.6,29.7 526.3,29.8 526.9,30 527.6,30.3 528.2,30.6 528.8,30.9 529.4,31.3 529.9,31.8 530.4,32.2 530.9,32.8 531.3,33.4 531.6,34 531.9,34.6 532.2,35.2 532.3,35.9 532.5,36.6 532.5,37.3" />
<path stroke="#000000" stroke-width="2" d="M 532.5,33.3" />
<path stroke="#000000" stroke-width="2" d="M 526.5,33.3 542.5,33.3" />
<path stroke="#000000" stroke-width="2" d="M 542.5,33.3 542.4,35.3 542.1,36.9 541.7,38.2 541.1,39.1 540.4,39.6 539.7,39.9 538.9,40 538.2,39.8 537.5,39.4 536.9,38.9 536.4,38.3 536,37.6 535.9,36.9 535.9,36.1 536.2,35.4 536.8,34.7 537.6,34.2 538.9,33.7 540.5,33.4 542.5,33.3 552.5,33.3" />
<path stroke="#000000" stroke-width="2" d="M 582.5,70" />
<path stroke="#000000" stroke-width="2" d="M 582.5,70 582.7,70 582.7,70.2 582.5,70.2 582.5,70" />
<path stroke="#000000" stroke-width="2" d="M 612.7,70" />
<path stroke="#000000" stroke-width="2" d="M 612.7,30 612.7,70 624,58.7" />
<path stroke="#000000" stroke-width="2" d="M 630.7,70" />
<path stroke="#000000" stroke-width="2" d="M 630.7,30 650.7,30" />
<path stroke="#000000" stroke-width="2" d="M 650.7,30 652.7,29.9 654.3,29.6 655.6,29.1 656.5,28.6 657,27.9 657.3,27.2 657.3,26.4 657.2,25.7 656.8,25 656.3,24.4 655.7,23.9 655,23.5 654.3,23.3 653.5,23.4 652.8,23.7 652.1,24.2 651.6,25.1 651.1,26.4 650.8,28 650.7,30 650.7,45 643,63.5" />
<path stroke="#000000" stroke-width="2" d="M 664,70" />
<path stroke="#000000" stroke-width="2" d="M 664,20 684,20" />
<path stroke="#000000" stroke-width="2" d="M 714,70" />
<path stroke="#000000" stroke-width="2" d="M 714,30 724,30 724,70" />
<path stroke="#000000" stroke-width="2" d="M 730.7,70" />
<path stroke="#000000" stroke-width="2" d="M 750.7,30 735.4,67" />
<path stroke="#000000" stroke-width="2" d="M 757.3,70" />
<path stroke="#000000" stroke-width="2" d="M 757.3,30" />
<path stroke="#000000" stroke-width="2" d="M 757.3,30 760.2,30.3 762.7,31.1 765,32.4 766.9,34.2 768.6,36.2 769.9,38.6 771,41.3 771.7,44.1 772.2,47 772.3,50 772.2,53 771.7,55.9 771,58.7 769.9,61.4 768.6,63.8 766.9,65.8 765,67.6 762.7,68.9 760.2,69.7 757.3,70" />
<path stroke="#000000" stroke-width="2" d="M 802.3,70" />
</svg>