<svg xmlns="http://www.w3.org/2000/svg" width="924.395125719713" height="109.79898987322333" style="fill:none; stroke-linecap:round;">
    <rect width="100%" height="100%" fill="#FFFFFF" />
<path stroke="#000000" stroke-width="2" d="M 550,75" />
<path stroke="#000000" stroke-width="2" d="M 20,30 60,30" />
<path stroke="#000000" stroke-width="2" d="M 66.7,70" />
<path stroke="#000000" stroke-width="2" d="M 76.7,50 69,68.5" />
<path stroke="#000000" stroke-width="2" d="M 106.7,70" />
<path stroke="#000000" stroke-width="2" d="M 126.7,30 126.7,70 106.7,70" />
<path stroke="#000000" stroke-width="2" d="M 133.3,70" />
<path stroke="#000000" stroke-width="2" d="M 133.3,50 153.3,50 133.5,69.8 153.5,69.8" />
<path stroke="#000000" stroke-width="2" d="M 153.5,69.8 155,69.9 156.2,70.4 157.4,71 158.3,71.9 159.2,72.9 159.8,74.1 160.4,75.4 160.7,76.8 161,78.3 161,79.8 161,81.3 160.7,82.8 160.4,84.2 159.8,85.5 159.2,86.7 158.3,87.7 157.4,88.6 156.2,89.2 155,89.7 153.5,89.8" />
<path stroke="#000000" stroke-width="2" d="M 191,70" />
<path stroke="#000000" stroke-width="2" d="M 211,30 195.7,67" />
<path stroke="#000000" stroke-width="2" d="M 217.7,70" />
<path stroke="#000000" stroke-width="2" d="M 217.7,50 217.9,50 217.9,50.2 217.7,50.2 217.7,50" />
<path stroke="#000000" stroke-width="2" d="M 247.9,70" />
<path stroke="#000000" stroke-width="2" d="M 247.9,30 247.9,70 247.9,58 247.9,56.3 248.1,54.5 248.4,52.8 248.8,51.1 249.4,49.5 250.1,47.9 251,46.4 252,45 253.1,43.6 254.4,42.4 255.7,41.3 257.1,40.3 258.6,39.4 260.2,38.7 261.9,38.1 263.6,37.6 265.3,37.3 267,37.1" />
<path stroke="#000000" stroke-width="2" d="M 273.7,70" />
<path stroke="#000000" stroke-width="2" d="M 273.7,20 273.7,40 283.7,40 276,58.5" />
<path stroke="#000000" stroke-width="2" d="M 290.3,70" />
<path stroke="#000000" stroke-width="2" d="M 314.3,42" />
<path stroke="#000000" stroke-width="2" d="M 314.3,42 310.3,41.8 307.1,41.2 304.6,40.3 302.8,39.1 301.7,37.8 301.1,36.3 301,34.8 301.4,33.4 302.1,32 303.1,30.8 304.3,29.7 305.7,29 307.2,28.7 308.7,28.8 310.1,29.3 311.5,30.5 312.6,32.2 313.5,34.7 314.1,37.9 314.3,42 314.3,50" />
<path stroke="#000000" stroke-width="2" d="M 314.3,50 313.7,51.7 313,53.4 312.3,54.9 311.5,56.3 310.7,57.6 309.8,58.7 308.8,59.8 307.9,60.8 306.9,61.7 305.8,62.5 304.8,63.2 303.7,63.8 302.6,64.4 301.4,64.8 300.3,65.2 299.1,65.5 297.9,65.7 296.7,65.9 295.5,66 294.3,66" />
<path stroke="#000000" stroke-width="2" d="M 344.3,70" />
<path stroke="#000000" stroke-width="2" d="M 344.3,30 344.3,70" />
<path stroke="#000000" stroke-width="2" d="M 351,70" />
<path stroke="#000000" stroke-width="2" d="M 351,30 351.2,30 351.2,30.2 351,30.2 351,30" />
<path stroke="#000000" stroke-width="2" d="M 381.2,70" />
<path stroke="#000000" stroke-width="2" d="M 397.2,30 377.4,49.8 397.2,69.6" />
<path stroke="#000000" stroke-width="2" d="M 403.9,70" />
<path stroke="#000000" stroke-width="2" d="M 403.9,20 423.9,20" />
<path stroke="#000000" stroke-width="2" d="M 423.9,20 425.3,20.1 426.6,20.6 427.7,21.2 428.7,22.1 429.5,23.1 430.2,24.3 430.7,25.6 431.1,27 431.3,28.5 431.4,30 431.3,31.5 431.1,33 430.7,34.4 430.2,35.7 429.5,36.9 428.7,37.9 427.7,38.8 426.6,39.4 425.3,39.9 423.9,40" />
<path stroke="#000000" stroke-width="2" d="M 461.4,70" />
<path stroke="#000000" stroke-width="2" d="M 461.4,70 461.6,70 461.6,70.2 461.4,70.2 461.4,70" />
<path stroke="#000000" stroke-width="2" d="M 491.6,70" />
<path stroke="#000000" stroke-width="2" d="M 491.6,50 499.2,31.5 506.9,50" />
<path stroke="#000000" stroke-width="2" d="M 506.9,50 506.8,52 506.5,53.6 506,54.9 505.4,55.8 504.8,56.3 504,56.6 503.3,56.7 502.6,56.5 501.9,56.1 501.3,55.6 500.8,55 500.4,54.3 500.2,53.6 500.3,52.8 500.6,52.1 501.1,51.4 502,50.9 503.2,50.4 504.9,50.1 506.9,50 516.9,50" />
<path stroke="#000000" stroke-width="2" d="M 523.6,70" />
<path stroke="#000000" stroke-width="2" d="M 523.6,50 523.6,70 523.6,64 523.6,63.1 523.6,62.3 523.8,61.4 524,60.6 524.3,59.7 524.7,58.9 525.1,58.2 525.6,57.5 526.2,56.8 526.8,56.2 527.5,55.6 528.2,55.1 528.9,54.7 529.7,54.3 530.5,54 531.4,53.8 532.2,53.6 533.1,53.6 525.5,72.1" />
<path stroke="#000000" stroke-width="2" d="M 563.1,70" />
<path stroke="#000000" stroke-width="2" d="M 563.1,30 573.1,30 573.1,70 573.1,68.3 573.3,66.5 573.6,64.8 574,63.1 574.6,61.5 575.3,59.9 576.2,58.4 577.2,57 578.3,55.6 579.6,54.4 580.9,53.3 582.3,52.3 583.9,51.4 585.4,50.7 587.1,50.1 588.8,49.6 590.5,49.3 592.2,49.1" />
<path stroke="#000000" stroke-width="2" d="M 598.9,70" />
<path stroke="#000000" stroke-width="2" d="M 598.9,20 606.5,38.5" />
<path stroke="#000000" stroke-width="2" d="M 636.5,70" />
<path stroke="#000000" stroke-width="2" d="M 636.5,30 651.8,67 667.1,30" />
<path stroke="#000000" stroke-width="2" d="M 673.8,70" />
<path stroke="#000000" stroke-width="2" d="M 673.8,20 673.8,40 673.8,34 673.8,33.1 673.9,32.3 674,31.4 674.3,30.6 674.6,29.7 674.9,28.9 675.4,28.2 675.9,27.5 676.4,26.8 677,26.2 677.7,25.6 678.4,25.1 679.2,24.7 680,24.3 680.8,24 681.6,23.8 682.5,23.6 683.4,23.6" />
<path stroke="#000000" stroke-width="2" d="M 690,70" />
<path stroke="#000000" stroke-width="2" d="M 690,30 690.2,30 690.2,30.2 690,30.2 690,30" />
<path stroke="#000000" stroke-width="2" d="M 720.2,70" />
<path stroke="#000000" stroke-width="2" d="M 736.2,30 736.2,60" />
<path stroke="#000000" stroke-width="2" d="M 736.2,60 736,64.1 735.4,67.3 734.5,69.8 733.4,71.5 732,72.7 730.6,73.2 729.1,73.3 727.6,73 726.2,72.3 725,71.2 724,70 723.3,68.6 722.9,67.2 723,65.7 723.6,64.2 724.7,62.9 726.5,61.7 728.9,60.8 732.2,60.2 736.2,60" />
<path stroke="#000000" stroke-width="2" d="M 742.9,70" />
<path stroke="#000000" stroke-width="2" d="M 742.9,50 742.9,70 742.9,64 742.9,63.1 743,62.3 743.1,61.4 743.4,60.6 743.7,59.7 744,58.9 744.5,58.2 745,57.5 745.5,56.8 746.1,56.2 746.8,55.6 747.5,55.1 748.3,54.7 749.1,54.3 749.9,54 750.7,53.8 751.6,53.6 752.5,53.6 744.8,72.1" />
<path stroke="#000000" stroke-width="2" d="M 782.5,70" />
<path stroke="#000000" stroke-width="2" d="M 782.5,30 822.5,30" />
<path stroke="#000000" stroke-width="2" d="M 829.1,70" />
<path stroke="#000000" stroke-width="2" d="M 829.1,50" />
<path stroke="#000000" stroke-width="2" d="M 829.1,50 829.3,50 829.7,50 830.3,50 831.2,50.1 832.2,50.2 833.4,50.3 834.8,50.4 836.2,50.6 837.6,50.9 839.1,51.2 840.6,51.7 842.1,52.2 843.5,52.7 844.8,53.4 846,54.2 847,55.1 847.9,56.1 848.6,57.3 849,58.6 849.1,60" />
<path stroke="#000000" stroke-width="2" d="M 849.1,60 851,62.1 852.4,64.1 853.1,65.7 853.4,67.2 853.3,68.4 852.9,69.5 852.2,70.2 851.3,70.8 850.2,71.1 849.1,71.2 848,71.1 847,70.8 846.1,70.2 845.3,69.5 844.9,68.4 844.8,67.2 845.1,65.7 845.9,64 847.2,62.1 849.1,60" />
<path stroke="#000000" stroke-width="2" d="M 849.1,60 849.1,59.9 849.1,59.7 849.2,59.4 849.3,59 849.4,58.4 849.7,57.8 850,57.2 850.4,56.5 850.9,55.7 851.6,55 852.5,54.3 853.4,53.5 854.6,52.8 856,52.2 857.6,51.6 859.4,51 861.4,50.6 863.7,50.3 866.3,50.1 869.1,50 861.5,68.5" />
<path stroke="#000000" stroke-width="2" d="M 861.5,68.5 863.5,68.4 865.1,68.1 866.3,67.6 867.2,67 867.8,66.4 868.1,65.6 868.1,64.9 867.9,64.2 867.6,63.5 867.1,62.9 866.5,62.4 865.8,62 865.1,61.8 864.3,61.9 863.6,62.1 862.9,62.7 862.3,63.6 861.9,64.8 861.6,66.4 861.5,68.5 861.5,83.5" />
<path stroke="#000000" stroke-width="2" d="M 899.1,70" />
<path stroke="#000000" stroke-width="2" d="M 899.1,70" />
<path stroke="#000000" stroke-width="2" d="M 899.1,70 900.2,70 901.2,70.2 902.1,70.4 902.8,70.7 903.3,71 903.8,71.5 904.1,71.9 904.3,72.5 904.4,73.1 904.4,73.8 904.2,74.4 904,75.2 903.7,76 903.3,76.8 902.8,77.6 902.2,78.4 901.5,79.3 900.8,80.2 900,81.1 899.1,82" />
<path stroke="#000000" stroke-width="2" d="M 934.4,70" />
</svg>