<svg xmlns="http://www.w3.org/2000/svg" width="747.6688402899421" height="109.79898987322333" style="fill:none; stroke-linecap:round;">
    <rect width="100%" height="100%" fill="#FFFFFF" />
<path stroke="#000000" stroke-width="2" d="M 550,75" />
<path stroke="#000000" stroke-width="2" d="M 20,70 20.2,70 20.2,70.2 20,70.2 20,70" />
<path stroke="#000000" stroke-width="2" d="M 26.9,70" />
<path stroke="#000000" stroke-width="2" d="M 42.9,30" />
<path stroke="#000000" stroke-width="2" d="M 42.9,30 42.7,34.1 42.1,37.3 41.1,39.8 40,41.5 38.6,42.7 37.2,43.2 35.7,43.3 34.2,43 32.8,42.3 31.6,41.2 30.6,40 29.9,38.6 29.6,37.2 29.6,35.7 30.2,34.2 31.3,32.9 33.1,31.7 35.6,30.8 38.8,30.2 42.9,30 62.9,30" />
<path stroke="#000000" stroke-width="2" d="M 69.5,70" />
<path stroke="#000000" stroke-width="2" d="M 69.5,20 89.5,20" />
<path stroke="#000000" stroke-width="2" d="M 119.5,70" />
<path stroke="#000000" stroke-width="2" d="M 119.5,30 119.5,70 130.8,58.7" />
<path stroke="#000000" stroke-width="2" d="M 137.5,70" />
<path stroke="#000000" stroke-width="2" d="M 137.5,20 157.5,20 137.7,39.8 157.7,39.8" />
<path stroke="#000000" stroke-width="2" d="M 187.7,70" />
<path stroke="#000000" stroke-width="2" d="M 187.7,40 187.9,40 187.9,40.2 187.7,40.2 187.7,40" />
<path stroke="#000000" stroke-width="2" d="M 194.6,70" />
<path stroke="#000000" stroke-width="2" d="M 194.6,50 202.2,31.5 209.9,50 209.9,70 209.9,64 209.9,63.1 210,62.3 210.1,61.4 210.3,60.6 210.6,59.7 211,58.9 211.4,58.2 211.9,57.5 212.5,56.8 213.1,56.2 213.8,55.6 214.5,55.1 215.3,54.7 216.1,54.3 216.9,54 217.7,53.8 218.6,53.6 219.4,53.6 219.4,52.9 219.5,52.2 219.6,51.5 219.8,50.8 220,50.2 220.3,49.5 220.7,48.9 221.1,48.4 221.5,47.8 222,47.3 222.6,46.9 223.1,46.5 223.7,46.1 224.4,45.8 225,45.6 225.7,45.4 226.4,45.3 227.1,45.2 227.8,45.2 228.5,45.3 229.2,45.4 229.8,45.6 230.5,45.8 231.1,46.1 231.7,46.5 232.3,46.9 232.8,47.3 233.3,47.8 233.8,48.4 234.2,48.9 234.5,49.5 234.8,50.2 235.1,50.8 235.2,51.5 235.4,52.2 235.4,52.9" />
<path stroke="#000000" stroke-width="2" d="M 242.1,70" />
<path stroke="#000000" stroke-width="2" d="M 242.1,20 242.1,40 252.1,40 252.1,60 262.1,60 262.1,59.3 262.2,58.6 262.3,57.9 262.5,57.2 262.7,56.6 263,56 263.3,55.4 263.7,54.8 264.2,54.2 264.7,53.8 265.2,53.3 265.8,52.9 266.4,52.6 267,52.3 267.7,52 268.4,51.8 269,51.7 269.7,51.7 270.4,51.7 271.1,51.7 271.8,51.8 272.5,52 273.1,52.3 273.8,52.6 274.4,52.9 275,53.3 275.5,53.8 276,54.2 276.4,54.8 276.8,55.4 277.2,56 277.5,56.6 277.7,57.2 277.9,57.9 278,58.6 278.1,59.3" />
<path stroke="#000000" stroke-width="2" d="M 308.1,70" />
<path stroke="#000000" stroke-width="2" d="M 308.1,30 308.1,50 318.1,50 338.1,50" />
<path stroke="#000000" stroke-width="2" d="M 338.1,50 340.1,49.9 341.7,49.6 343,49.1 343.8,48.6 344.4,47.9 344.7,47.2 344.7,46.4 344.6,45.7 344.2,45 343.7,44.4 343.1,43.9 342.4,43.5 341.7,43.3 340.9,43.4 340.2,43.7 339.5,44.2 338.9,45.1 338.5,46.4 338.2,48 338.1,50 338.1,65 330.4,83.5 332.7,77.9 333.1,77.1 333.5,76.4 333.9,75.6 334.5,74.9 335,74.3 335.7,73.7 336.4,73.2 337.1,72.7 337.9,72.3 338.7,72 339.5,71.7 340.4,71.5" />
<path stroke="#000000" stroke-width="2" d="M 351.4,70" />
<path stroke="#000000" stroke-width="2" d="M 351.4,20 359.1,38.5" />
<path stroke="#000000" stroke-width="2" d="M 359.1,28.5" />
<path stroke="#000000" stroke-width="2" d="M 348.1,28.5 362.1,28.5" />
<path stroke="#000000" stroke-width="2" d="M 392.1,70" />
<path stroke="#000000" stroke-width="2" d="M 392.1,70" />
<path stroke="#000000" stroke-width="2" d="M 392.1,70 393.2,70 394.2,70.2 395,70.4 395.7,70.7 396.3,71 396.7,71.5 397,71.9 397.2,72.5 397.3,73.1 397.3,73.8 397.2,74.4 396.9,75.2 396.6,76 396.2,76.8 395.7,77.6 395.1,78.4 394.5,79.3 393.7,80.2 392.9,81.1 392.1,82" />
<path stroke="#000000" stroke-width="2" d="M 427.3,70" />
<path stroke="#000000" stroke-width="2" d="M 427.3,40" />
<path stroke="#000000" stroke-width="2" d="M 427.3,40 431.4,39.8 434.6,39.2 437.1,38.3 438.8,37.1 440,35.8 440.6,34.3 440.6,32.8 440.3,31.4 439.6,30 438.6,28.8 437.3,27.7 436,27 434.5,26.7 433,26.8 431.5,27.3 430.2,28.5 429,30.2 428.1,32.7 427.5,35.9 427.3,40 427.3,70" />
<path stroke="#000000" stroke-width="2" d="M 447.3,70" />
<path stroke="#000000" stroke-width="2" d="M 447.3,20 447.3,20.7 447.4,21.4 447.5,22.1 447.7,22.8 447.9,23.4 448.2,24 448.5,24.6 448.9,25.2 449.4,25.8 449.9,26.2 450.4,26.7 451,27.1 451.6,27.4 452.2,27.7 452.9,28 453.6,28.2 454.2,28.3 454.9,28.3 455.6,28.3 456.3,28.3 457,28.2 457.7,28 458.4,27.7 459,27.4 459.6,27.1 460.2,26.7 460.7,26.2 461.2,25.8 461.6,25.2 462,24.6 462.4,24 462.7,23.4 462.9,22.8 463.1,22.1 463.2,21.4 463.3,20.7" />
<path stroke="#000000" stroke-width="2" d="M 463.3,20.7 464.7,20.8 466,21.3 467.1,21.9 468.1,22.8 468.9,23.8 469.6,25 470.1,26.3 470.5,27.7 470.7,29.2 470.8,30.7 470.7,32.2 470.5,33.7 470.1,35.1 469.6,36.4 468.9,37.6 468.1,38.6 467.1,39.5 466,40.1 464.7,40.6 463.3,40.7" />
<path stroke="#000000" stroke-width="2" d="M 477.5,70" />
<path stroke="#000000" stroke-width="2" d="M 477.5,20 485.1,38.5" />
<path stroke="#000000" stroke-width="2" d="M 515.1,70" />
<path stroke="#000000" stroke-width="2" d="M 535.1,30 535.1,70 515.1,70" />
<path stroke="#000000" stroke-width="2" d="M 541.8,70" />
<path stroke="#000000" stroke-width="2" d="M 541.8,50 561.8,50 542,69.8 562,69.8" />
<path stroke="#000000" stroke-width="2" d="M 562,69.8 563.4,69.9 564.7,70.4 565.8,71 566.8,71.9 567.6,72.9 568.3,74.1 568.8,75.4 569.2,76.8 569.4,78.3 569.5,79.8 569.4,81.3 569.2,82.8 568.8,84.2 568.3,85.5 567.6,86.7 566.8,87.7 565.8,88.6 564.7,89.2 563.4,89.7 562,89.8" />
<path stroke="#000000" stroke-width="2" d="M 599.5,70" />
<path stroke="#000000" stroke-width="2" d="M 599.5,30 599.5,50 609.5,50 617.1,68.5 624.8,50" />
<path stroke="#000000" stroke-width="2" d="M 631.4,70" />
<path stroke="#000000" stroke-width="2" d="M 631.4,30 671.4,30" />
<path stroke="#000000" stroke-width="2" d="M 701.4,70" />
<path stroke="#000000" stroke-width="2" d="M 701.4,30 711.4,30 711.4,70" />
<path stroke="#000000" stroke-width="2" d="M 718.1,70" />
<path stroke="#000000" stroke-width="2" d="M 718.1,50 718.1,70 718.1,64 718.1,63.1 718.2,62.3 718.3,61.4 718.6,60.6 718.9,59.7 719.2,58.9 719.7,58.2 720.2,57.5 720.7,56.8 721.3,56.2 722,55.6 722.7,55.1 723.5,54.7 724.3,54.3 725.1,54 725.9,53.8 726.8,53.6 727.7,53.6" />
<path stroke="#000000" stroke-width="2" d="M 757.7,70" />
</svg>