<svg xmlns="http://www.w3.org/2000/svg" width="797.4919075647633" height="103.47759065022574" style="fill:none; stroke-linecap:round;">
    <rect width="100%" height="100%" fill="#FFFFFF" />
<path stroke="#000000" stroke-width="2" d="M 550,75" />
<path stroke="#000000" stroke-width="2" d="M 20,30 20,50 30,50 50,50" />
<path stroke="#000000" stroke-width="2" d="M 50,50 52,49.9 53.6,49.6 54.9,49.1 55.8,48.6 56.3,47.9 56.6,47.2 56.7,46.4 56.5,45.7 56.1,45 55.6,44.4 55,43.9 54.3,43.5 53.6,43.3 52.8,43.4 52.1,43.7 51.4,44.2 50.9,45.1 50.4,46.4 50.1,48 50,50 50,65 42.3,83.5" />
<path stroke="#000000" stroke-width="2" d="M 63.3,70" />
<path stroke="#000000" stroke-width="2" d="M 63.3,20" />
<path stroke="#000000" stroke-width="2" d="M 63.3,20 64.7,20.1 66,20.6 67.1,21.2 68.1,22.1 68.9,23.1 69.6,24.3 70.1,25.6 70.5,27 70.7,28.5 70.8,30 70.7,31.5 70.5,33 70.1,34.4 69.6,35.7 68.9,36.9 68.1,37.9 67.1,38.8 66,39.4 64.7,39.9 63.3,40" />
<path stroke="#000000" stroke-width="2" d="M 100.8,70" />
<path stroke="#000000" stroke-width="2" d="M 100.8,50 108.5,31.5 116.1,50 123.8,68.5 131.4,50" />
<path stroke="#000000" stroke-width="2" d="M 161.4,70" />
<path stroke="#000000" stroke-width="2" d="M 161.4,30 161.4,70" />
<path stroke="#000000" stroke-width="2" d="M 168.1,70" />
<path stroke="#000000" stroke-width="2" d="M 168.1,30 168.1,50 178.1,50" />
<path stroke="#000000" stroke-width="2" d="M 178.1,50 176.1,49.9 174.5,49.6 173.2,49.1 172.3,48.6 171.8,47.9 171.5,47.2 171.4,46.4 171.6,45.7 172,45 172.5,44.4 173.1,43.9 173.8,43.5 174.5,43.3 175.3,43.4 176,43.7 176.7,44.2 177.2,45.1 177.7,46.4 178,48 178.1,50 178.1,54" />
<path stroke="#000000" stroke-width="2" d="M 178.1,54 177.8,54.9 177.4,55.7 177.1,56.4 176.7,57.1 176.3,57.8 175.8,58.4 175.4,58.9 174.9,59.4 174.4,59.9 173.9,60.2 173.3,60.6 172.8,60.9 172.2,61.2 171.6,61.4 171.1,61.6 170.5,61.7 169.9,61.9 169.3,61.9 168.7,62 168.1,62" />
<path stroke="#000000" stroke-width="2" d="M 208.1,70" />
<path stroke="#000000" stroke-width="2" d="M 208.1,35" />
<path stroke="#000000" stroke-width="2" d="M 208.1,35 210.1,34.9 211.7,34.6 213,34.1 213.9,33.6 214.4,32.9 214.7,32.2 214.8,31.4 214.6,30.7 214.2,30 213.7,29.4 213.1,28.9 212.4,28.5 211.7,28.3 210.9,28.4 210.2,28.7 209.5,29.2 209,30.1 208.5,31.4 208.2,33 208.1,35 208.1,50 208.1,49.3 208.2,48.6 208.3,47.9 208.5,47.2 208.7,46.6 209,46 209.3,45.4 209.7,44.8 210.2,44.2 210.7,43.8 211.2,43.3 211.8,42.9 212.4,42.6 213,42.3 213.7,42 214.4,41.8 215.1,41.7 215.7,41.7 216.4,41.7 217.1,41.7 217.8,41.8 218.5,42 219.2,42.3 219.8,42.6 220.4,42.9 221,43.3 221.5,43.8 222,44.2 222.4,44.8 222.8,45.4 223.2,46 223.5,46.6 223.7,47.2 223.9,47.9 224,48.6 224.1,49.3 224.1,69.3 224.1,63.3 224.1,62.4 224.2,61.6 224.3,60.7 224.5,59.9 224.8,59 225.2,58.2 225.6,57.5 226.1,56.8 226.7,56.1 227.3,55.5 228,54.9 228.7,54.4 229.5,54 230.3,53.6 231.1,53.3 231.9,53.1 232.8,53 233.6,52.9" />
<path stroke="#000000" stroke-width="2" d="M 240.3,70" />
<path stroke="#000000" stroke-width="2" d="M 240.3,20 250.2,29.9 240.3,39.8 232.7,58.3" />
<path stroke="#000000" stroke-width="2" d="M 280.2,70" />
<path stroke="#000000" stroke-width="2" d="M 280.2,30 280.2,70 291.5,58.7" />
<path stroke="#000000" stroke-width="2" d="M 298.2,70" />
<path stroke="#000000" stroke-width="2" d="M 318.2,70 319.9,70 321.7,69.8 323.4,69.5 325.1,69.1 326.7,68.5 328.3,67.8 329.8,66.9 331.2,65.9 332.6,64.8 333.8,63.5 334.9,62.2 335.9,60.8 336.8,59.3 337.5,57.7 338.1,56 338.6,54.3 338.9,52.6 339,50.9 339,49.1 338.9,47.4 338.6,45.7 338.1,44 337.5,42.4 336.8,40.8 335.9,39.3 334.9,37.8 333.8,36.5 332.6,35.3 331.2,34.2 329.8,33.2 328.3,32.3 326.7,31.5 325.1,30.9 323.4,30.5 321.7,30.2 319.9,30 318.2,30 316.4,30.2 314.7,30.5 313,30.9 311.4,31.5 309.8,32.3 308.3,33.2 306.9,34.2 305.5,35.3 304.3,36.5 303.2,37.8 302.2,39.3 301.3,40.8 300.6,42.4 300,44 299.5,45.7 299.2,47.4 299.1,49.1 299.1,50.9 299.2,52.6 299.5,54.3 300,56 300.6,57.7 301.3,59.3 302.2,60.8 303.2,62.2 304.3,63.5 305.5,64.8 306.9,65.9 308.3,66.9 309.8,67.8 311.4,68.5 313,69.1 314.7,69.5 316.4,69.8 318.2,70" />
<path stroke="#000000" stroke-width="2" d="M 369,70" />
<path stroke="#000000" stroke-width="2" d="M 369,40 369.2,40 369.2,40.2 369,40.2 369,40" />
<path stroke="#000000" stroke-width="2" d="M 375.9,70" />
<path stroke="#000000" stroke-width="2" d="M 375.9,30 375.9,50 385.9,50" />
<path stroke="#000000" stroke-width="2" d="M 385.9,50 387.9,49.9 389.6,49.6 390.8,49.1 391.7,48.6 392.2,47.9 392.5,47.2 392.6,46.4 392.4,45.7 392,45 391.5,44.4 390.9,43.9 390.2,43.5 389.5,43.3 388.7,43.4 388,43.7 387.3,44.2 386.8,45.1 386.3,46.4 386,48 385.9,50 385.9,54" />
<path stroke="#000000" stroke-width="2" d="M 385.9,54 386.2,54.9 386.6,55.7 386.9,56.4 387.3,57.1 387.8,57.8 388.2,58.4 388.7,58.9 389.1,59.4 389.6,59.9 390.2,60.2 390.7,60.6 391.2,60.9 391.8,61.2 392.4,61.4 392.9,61.6 393.5,61.7 394.1,61.9 394.7,61.9 395.3,62 395.9,62" />
<path stroke="#000000" stroke-width="2" d="M 425.9,70" />
<path stroke="#000000" stroke-width="2" d="M 441.9,30" />
<path stroke="#000000" stroke-width="2" d="M 441.9,30 441.7,34.1 441.1,37.3 440.2,39.8 439,41.5 437.7,42.7 436.2,43.2 434.7,43.3 433.3,43 431.9,42.3 430.7,41.2 429.7,40 428.9,38.6 428.6,37.2 428.7,35.7 429.3,34.2 430.4,32.9 432.2,31.7 434.6,30.8 437.8,30.2 441.9,30 461.9,30" />
<path stroke="#000000" stroke-width="2" d="M 468.6,70" />
<path stroke="#000000" stroke-width="2" d="M 468.6,20 488.6,20" />
<path stroke="#000000" stroke-width="2" d="M 488.6,20 490.6,19.9 492.2,19.6 493.5,19.1 494.3,18.6 494.9,17.9 495.2,17.2 495.2,16.4 495.1,15.7 494.7,15 494.2,14.4 493.6,13.9 492.9,13.5 492.2,13.3 491.4,13.4 490.7,13.7 490,14.2 489.4,15.1 489,16.4 488.7,18 488.6,20 488.6,35" />
<path stroke="#000000" stroke-width="2" d="M 501.9,70" />
<path stroke="#000000" stroke-width="2" d="M 501.9,20 501.9,20.7 502,21.4 502.1,22.1 502.3,22.8 502.5,23.4 502.8,24 503.1,24.6 503.5,25.2 504,25.8 504.5,26.2 505,26.7 505.6,27.1 506.2,27.4 506.8,27.7 507.5,28 508.2,28.2 508.8,28.3 509.5,28.3 510.2,28.3 510.9,28.3 511.6,28.2 512.3,28 512.9,27.7 513.6,27.4 514.2,27.1 514.8,26.7 515.3,26.2 515.8,25.8 516.2,25.2 516.6,24.6 517,24 517.3,23.4 517.5,22.8 517.7,22.1 517.8,21.4 517.9,20.7" />
<path stroke="#000000" stroke-width="2" d="M 547.9,70" />
<path stroke="#000000" stroke-width="2" d="M 547.9,70 548.1,70 548.1,70.2 547.9,70.2 547.9,70" />
<path stroke="#000000" stroke-width="2" d="M 578.1,70" />
<path stroke="#000000" stroke-width="2" d="M 578.1,50 585.7,31.5 585.7,30.8 585.8,30.1 585.9,29.4 586.1,28.8 586.3,28.1 586.6,27.5 587,26.9 587.4,26.3 587.8,25.8 588.3,25.3 588.9,24.8 589.4,24.4 590,24.1 590.7,23.8 591.3,23.5 592,23.4 592.7,23.2 593.4,23.2 594.1,23.2 594.8,23.2 595.5,23.4 596.1,23.5 596.8,23.8 597.4,24.1 598,24.4 598.6,24.8 599.1,25.3 599.6,25.8 600.1,26.3 600.5,26.9 600.8,27.5 601.1,28.1 601.4,28.8 601.5,29.4 601.7,30.1 601.7,30.8 611.6,40.7 601.7,50.6" />
<path stroke="#000000" stroke-width="2" d="M 618.3,70" />
<path stroke="#000000" stroke-width="2" d="M 618.3,70 625.9,51.5 633.6,70 633.6,70.7 633.7,71.4 633.8,72.1 634,72.8 634.2,73.4 634.5,74 634.8,74.6 635.2,75.2 635.7,75.8 636.2,76.2 636.7,76.7 637.3,77.1 637.9,77.4 638.5,77.7 639.2,78 639.9,78.2 640.5,78.3 641.2,78.3 641.9,78.3 642.6,78.3 643.3,78.2 644,78 644.6,77.7 645.3,77.4 645.9,77.1 646.5,76.7 647,76.2 647.5,75.8 647.9,75.2 648.3,74.6 648.7,74 649,73.4 649.2,72.8 649.4,72.1 649.5,71.4 649.6,70.7" />
<path stroke="#000000" stroke-width="2" d="M 656.2,70" />
<path stroke="#000000" stroke-width="2" d="M 656.2,30 656.4,30 656.4,30.2 656.2,30.2 656.2,30" />
<path stroke="#000000" stroke-width="2" d="M 686.4,70" />
<path stroke="#000000" stroke-width="2" d="M 702.4,30 682.6,49.8 702.4,69.6" />
<path stroke="#000000" stroke-width="2" d="M 709.1,70" />
<path stroke="#000000" stroke-width="2" d="M 709.1,30 709.3,30 709.3,30.2 709.1,30.2 709.1,30" />
<path stroke="#000000" stroke-width="2" d="M 739.3,70" />
<path stroke="#000000" stroke-width="2" d="M 739.3,30 739.3,70 750.6,58.7" />
<path stroke="#000000" stroke-width="2" d="M 757.3,70" />
<path stroke="#000000" stroke-width="2" d="M 757.3,20 777.3,20 757.5,39.8 777.5,39.8" />
<path stroke="#000000" stroke-width="2" d="M 807.5,70" />
</svg>