<svg xmlns="http://www.w3.org/2000/svg" width="769.6474021702876" height="102.0" style="fill:none; stroke-linecap:round;">
    <rect width="100%" height="100%" fill="#FFFFFF" />
<path stroke="#000000" stroke-width="2" d="M 550,75" />
<path stroke="#000000" stroke-width="2" d="M 20,40" />
<path stroke="#000000" stroke-width="2" d="M 20,40 24.1,39.8 27.3,39.2 29.8,38.3 31.5,37.1 32.7,35.8 33.2,34.3 33.3,32.8 33,31.4 32.3,30 31.2,28.8 30,27.7 28.6,27 27.2,26.7 25.7,26.8 24.2,27.3 22.9,28.5 21.7,30.2 20.8,32.7 20.2,35.9 20,40 20,70" />
<path stroke="#000000" stroke-width="2" d="M 40,70" />
<path stroke="#000000" stroke-width="2" d="M 40,20 40,40 40,34 40,33.1 40.1,32.3 40.2,31.4 40.4,30.6 40.7,29.7 41.1,28.9 41.5,28.2 42,27.5 42.6,26.8 43.2,26.2 43.9,25.6 44.6,25.1 45.3,24.7 46.1,24.3 47,24 47.8,23.8 48.7,23.6 49.5,23.6 41.9,42.1" />
<path stroke="#000000" stroke-width="2" d="M 56.2,70" />
<path stroke="#000000" stroke-width="2" d="M 56.2,20 76.2,20" />
<path stroke="#000000" stroke-width="2" d="M 106.2,70" />
<path stroke="#000000" stroke-width="2" d="M 126.2,70 127.9,70 129.7,69.8 131.4,69.5 133.1,69.1 134.7,68.5 136.3,67.8 137.8,66.9 139.2,65.9 140.6,64.8 141.8,63.5 142.9,62.2 143.9,60.8 144.8,59.3 145.5,57.7 146.1,56 146.6,54.3 146.9,52.6 147,50.9 147,49.1 146.9,47.4 146.6,45.7 146.1,44 145.5,42.4 144.8,40.8 143.9,39.3 142.9,37.8 141.8,36.5 140.6,35.3 139.2,34.2 137.8,33.2 136.3,32.3 134.7,31.5 133.1,30.9 131.4,30.5 129.7,30.2 127.9,30 126.2,30 124.5,30.2 122.7,30.5 121.1,30.9 119.4,31.5 117.8,32.3 116.3,33.2 114.9,34.2 113.6,35.3 112.3,36.5 111.2,37.8 110.2,39.3 109.3,40.8 108.6,42.4 108,44 107.5,45.7 107.2,47.4 107.1,49.1 107.1,50.9 107.2,52.6 107.5,54.3 108,56 108.6,57.7 109.3,59.3 110.2,60.8 111.2,62.2 112.3,63.5 113.6,64.8 114.9,65.9 116.3,66.9 117.8,67.8 119.4,68.5 121.1,69.1 122.7,69.5 124.5,69.8 126.2,70" />
<path stroke="#000000" stroke-width="2" d="M 153.7,70" />
<path stroke="#000000" stroke-width="2" d="M 163.7,20 156.1,38.5" />
<path stroke="#000000" stroke-width="2" d="M 193.7,70" />
<path stroke="#000000" stroke-width="2" d="M 193.7,30 193.7,50 203.7,50 196.1,68.5" />
<path stroke="#000000" stroke-width="2" d="M 233.7,70" />
<path stroke="#000000" stroke-width="2" d="M 233.7,30 233.7,70 245,58.7" />
<path stroke="#000000" stroke-width="2" d="M 251.7,70" />
<path stroke="#000000" stroke-width="2" d="M 251.7,50" />
<path stroke="#000000" stroke-width="2" d="M 251.7,50 253.1,50.1 254.4,50.6 255.5,51.2 256.5,52.1 257.3,53.1 258,54.3 258.5,55.6 258.9,57 259.1,58.5 259.2,60 259.1,61.5 258.9,63 258.5,64.4 258,65.7 257.3,66.9 256.5,67.9 255.5,68.8 254.4,69.4 253.1,69.9 251.7,70" />
<path stroke="#000000" stroke-width="2" d="M 289.2,70" />
<path stroke="#000000" stroke-width="2" d="M 289.2,30 289.2,70" />
<path stroke="#000000" stroke-width="2" d="M 295.9,70" />
<path stroke="#000000" stroke-width="2" d="M 295.9,30 296.1,30 296.1,30.2 295.9,30.2 295.9,30" />
<path stroke="#000000" stroke-width="2" d="M 326.1,70" />
<path stroke="#000000" stroke-width="2" d="M 342.1,30" />
<path stroke="#000000" stroke-width="2" d="M 342.1,30 341.8,34.1 341.3,37.3 340.3,39.8 339.2,41.5 337.8,42.7 336.4,43.2 334.9,43.3 333.4,43 332,42.3 330.8,41.2 329.8,40 329.1,38.6 328.8,37.2 328.8,35.7 329.4,34.2 330.5,32.9 332.3,31.7 334.8,30.8 338,30.2 342.1,30 362.1,30" />
<path stroke="#000000" stroke-width="2" d="M 368.7,70" />
<path stroke="#000000" stroke-width="2" d="M 368.7,20 388.7,20" />
<path stroke="#000000" stroke-width="2" d="M 395.4,70" />
<path stroke="#000000" stroke-width="2" d="M 403.4,30 403.4,45" />
<path stroke="#000000" stroke-width="2" d="M 403.4,45 403.3,47 403,48.6 402.5,49.9 402,50.8 401.3,51.3 400.6,51.6 399.8,51.7 399.1,51.5 398.4,51.1 397.8,50.6 397.3,50 396.9,49.3 396.7,48.6 396.8,47.8 397.1,47.1 397.6,46.4 398.5,45.9 399.8,45.4 401.4,45.1 403.4,45 395.7,63.5" />
<path stroke="#000000" stroke-width="2" d="M 433.4,70" />
<path stroke="#000000" stroke-width="2" d="M 433.4,30 433.4,70" />
<path stroke="#000000" stroke-width="2" d="M 440.1,70" />
<path stroke="#000000" stroke-width="2" d="M 440.1,30 440.3,30 440.3,30.2 440.1,30.2 440.1,30" />
<path stroke="#000000" stroke-width="2" d="M 470.3,70" />
<path stroke="#000000" stroke-width="2" d="M 470.3,30" />
<path stroke="#000000" stroke-width="2" d="M 470.3,30 473.1,30.3 475.7,31.1 477.9,32.4 479.9,34.2 481.5,36.2 482.9,38.6 483.9,41.3 484.7,44.1 485.1,47 485.3,50 485.1,53 484.7,55.9 483.9,58.7 482.9,61.4 481.5,63.8 479.9,65.8 477.9,67.6 475.7,68.9 473.1,69.7 470.3,70" />
<path stroke="#000000" stroke-width="2" d="M 491.9,70" />
<path stroke="#000000" stroke-width="2" d="M 501.9,40 502.8,40 503.7,39.9 504.5,39.8 505.4,39.5 506.2,39.2 507,38.9 507.7,38.4 508.5,37.9 509.1,37.4 509.7,36.8 510.3,36.1 510.8,35.4 511.2,34.6 511.6,33.8 511.9,33 512.1,32.2 512.3,31.3 512.4,30.4 512.4,29.6 512.3,28.7 512.1,27.8 511.9,27 511.6,26.2 511.2,25.4 510.8,24.6 510.3,23.9 509.7,23.3 509.1,22.6 508.5,22.1 507.7,21.6 507,21.1 506.2,20.8 505.4,20.5 504.5,20.2 503.7,20.1 502.8,20 501.9,20 501.1,20.1 500.2,20.2 499.4,20.5 498.5,20.8 497.7,21.1 497,21.6 496.3,22.1 495.6,22.6 495,23.3 494.4,23.9 493.9,24.6 493.5,25.4 493.1,26.2 492.8,27 492.6,27.8 492.5,28.7 492.4,29.6 492.4,30.4 492.5,31.3 492.6,32.2 492.8,33 493.1,33.8 493.5,34.6 493.9,35.4 494.4,36.1 495,36.8 495.6,37.4 496.3,37.9 497,38.4 497.7,38.9 498.5,39.2 499.4,39.5 500.2,39.8 501.1,39.9 501.9,40" />
<path stroke="#000000" stroke-width="2" d="M 542.4,70" />
<path stroke="#000000" stroke-width="2" d="M 542.4,70" />
<path stroke="#000000" stroke-width="2" d="M 542.4,70 543.5,70 544.5,70.2 545.3,70.4 546,70.7 546.6,71 547,71.5 547.3,71.9 547.5,72.5 547.6,73.1 547.6,73.8 547.5,74.4 547.3,75.2 546.9,76 546.5,76.8 546,77.6 545.4,78.4 544.8,79.3 544,80.2 543.2,81.1 542.4,82" />
<path stroke="#000000" stroke-width="2" d="M 577.6,70" />
<path stroke="#000000" stroke-width="2" d="M 582.6,30" />
<path stroke="#000000" stroke-width="2" d="M 582.6,30 581.2,30.1 579.9,30.6 578.8,31.2 577.8,32.1 577,33.1 576.3,34.3 575.8,35.6 575.4,37 575.2,38.5 575.1,40 575.2,41.5 575.4,43 575.8,44.4 576.3,45.7 577,46.9 577.8,47.9 578.8,48.8 579.9,49.4 581.2,49.9 582.6,50 582.6,70 582.6,64 582.6,63.1 582.7,62.3 582.9,61.4 583.1,60.6 583.4,59.7 583.7,58.9 584.2,58.2 584.7,57.5 585.2,56.8 585.9,56.2 586.5,55.6 587.2,55.1 588,54.7 588.8,54.3 589.6,54 590.5,53.8 591.3,53.6 592.2,53.6" />
<path stroke="#000000" stroke-width="2" d="M 622.2,70" />
<path stroke="#000000" stroke-width="2" d="M 622.2,50 629.8,31.5 637.5,50 629.8,68.5" />
<path stroke="#000000" stroke-width="2" d="M 667.5,70" />
<path stroke="#000000" stroke-width="2" d="M 667.5,30 667.5,31.4 667.6,32.8 667.9,34.2 668.2,35.5 668.7,36.8 669.3,38.1 670,39.3 670.8,40.4 671.7,41.5 672.7,42.5 673.7,43.4 674.9,44.2 676.1,44.9 677.4,45.5 678.7,46 680,46.3 681.4,46.6 682.8,46.7 684.2,46.7 685.6,46.6 686.9,46.3 688.3,46 689.6,45.5 690.9,44.9 692.1,44.2 693.2,43.4 694.3,42.5 695.3,41.5 696.2,40.4 697,39.3 697.7,38.1 698.3,36.8 698.7,35.5 699.1,34.2 699.3,32.8 699.5,31.4" />
<path stroke="#000000" stroke-width="2" d="M 706.1,70" />
<path stroke="#000000" stroke-width="2" d="M 706.1,35" />
<path stroke="#000000" stroke-width="2" d="M 706.1,35 708.2,34.9 709.8,34.6 711,34.1 711.9,33.6 712.5,32.9 712.7,32.2 712.8,31.4 712.6,30.7 712.3,30 711.8,29.4 711.1,28.9 710.4,28.5 709.7,28.3 709,28.4 708.2,28.7 707.6,29.2 707,30.1 706.5,31.4 706.2,33 706.1,35 706.1,50 698.5,68.5" />
<path stroke="#000000" stroke-width="2" d="M 742.8,70" />
<path stroke="#000000" stroke-width="2" d="M 742.8,30 742.8,70" />
<path stroke="#000000" stroke-width="2" d="M 749.4,70" />
<path stroke="#000000" stroke-width="2" d="M 749.4,30 749.6,30 749.6,30.2 749.4,30.2 749.4,30" />
<path stroke="#000000" stroke-width="2" d="M 779.6,70" />
</svg>