<svg xmlns="http://www.w3.org/2000/svg" width="810.5429333022252" height="102.0" style="fill:none; stroke-linecap:round;">
    <rect width="100%" height="100%" fill="#FFFFFF" />
<path stroke="#000000" stroke-width="2" d="M 550,75" />
<path stroke="#000000" stroke-width="2" d="M 20,30 20,31.4 20.1,32.8 20.4,34.2 20.7,35.5 21.2,36.8 21.8,38.1 22.5,39.3 23.3,40.4 24.2,41.5 25.2,42.5 26.2,43.4 27.4,44.2 28.6,44.9 29.9,45.5 31.2,46 32.5,46.3 33.9,46.6 35.3,46.7 36.7,46.7 38.1,46.6 39.4,46.3 40.8,46 42.1,45.5 43.4,44.9 44.6,44.2 45.7,43.4 46.8,42.5 47.8,41.5 48.7,40.4 49.5,39.3 50.2,38.1 50.8,36.8 51.2,35.5 51.6,34.2 51.8,32.8 52,31.4" />
<path stroke="#000000" stroke-width="2" d="M 58.6,70" />
<path stroke="#000000" stroke-width="2" d="M 70.6,56" />
<path stroke="#000000" stroke-width="2" d="M 70.6,56 68.6,55.9 67,55.6 65.8,55.1 64.9,54.6 64.3,53.9 64,53.2 64,52.4 64.2,51.7 64.5,51 65,50.4 65.6,49.9 66.3,49.5 67.1,49.3 67.8,49.4 68.5,49.7 69.2,50.2 69.8,51.1 70.2,52.4 70.5,54 70.6,56 70.6,60" />
<path stroke="#000000" stroke-width="2" d="M 70.6,60 70.3,60.9 70,61.7 69.6,62.4 69.2,63.1 68.8,63.8 68.4,64.4 67.9,64.9 67.4,65.4 66.9,65.9 66.4,66.2 65.9,66.6 65.3,66.9 64.8,67.2 64.2,67.4 63.6,67.6 63,67.7 62.4,67.9 61.8,67.9 61.2,68 60.6,68" />
<path stroke="#000000" stroke-width="2" d="M 77.3,70" />
<path stroke="#000000" stroke-width="2" d="M 77.3,20 77.3,40 77.3,34 77.3,33.1 77.4,32.3 77.5,31.4 77.8,30.6 78.1,29.7 78.4,28.9 78.9,28.2 79.4,27.5 79.9,26.8 80.5,26.2 81.2,25.6 81.9,25.1 82.7,24.7 83.5,24.3 84.3,24 85.1,23.8 86,23.6 86.9,23.6" />
<path stroke="#000000" stroke-width="2" d="M 116.9,70" />
<path stroke="#000000" stroke-width="2" d="M 118.9,50 124.2,37.1 124.3,36.7 124.5,36.4 124.5,36.1 124.6,35.7 124.6,35.4 124.6,35 124.5,34.7 124.5,34.3 124.3,34 124.2,33.7 124.1,33.4 123.9,33.1 123.7,32.8 123.4,32.5 123.2,32.3 122.9,32.1 122.6,31.9 122.3,31.7 122,31.6 121.6,31.5 121.3,31.4 120.9,31.4 120.6,31.4 120.2,31.4 119.9,31.4 119.6,31.5 119.2,31.6 118.9,31.7 118.6,31.9 118.3,32.1 118,32.3 117.8,32.5 117.5,32.8 117.3,33.1 117.1,33.4 117,33.7 116.8,34 116.7,34.3 116.7,34.7 116.6,35 116.6,35.4 116.6,35.7 116.7,36.1 116.7,36.4 116.8,36.7 117,37.1 117.1,37.4 117.3,37.7 117.5,37.9 117.8,38.2 118,38.4 118.3,38.7 118.6,38.8 118.9,39 119.2,39.1 119.6,39.2 119.9,39.3 120.2,39.4 120.6,39.4 120.9,39.4 133.9,34 153.9,34" />
<path stroke="#000000" stroke-width="2" d="M 160.5,70" />
<path stroke="#000000" stroke-width="2" d="M 160.5,30 160.7,30 160.7,30.2 160.5,30.2 160.5,30" />
<path stroke="#000000" stroke-width="2" d="M 190.7,70" />
<path stroke="#000000" stroke-width="2" d="M 190.7,30 190.7,31.4 190.9,32.8 191.1,34.2 191.5,35.5 191.9,36.8 192.5,38.1 193.2,39.3 194,40.4 194.9,41.5 195.9,42.5 197,43.4 198.1,44.2 199.3,44.9 200.6,45.5 201.9,46 203.3,46.3 204.6,46.6 206,46.7 207.4,46.7 208.8,46.6 210.2,46.3 211.5,46 212.8,45.5 214.1,44.9 215.3,44.2 216.5,43.4 217.5,42.5 218.5,41.5 219.4,40.4 220.2,39.3 220.9,38.1 221.5,36.8 222,35.5 222.3,34.2 222.6,32.8 222.7,31.4" />
<path stroke="#000000" stroke-width="2" d="M 229.4,70" />
<path stroke="#000000" stroke-width="2" d="M 229.4,50 249.4,50 229.6,69.8 249.6,69.8" />
<path stroke="#000000" stroke-width="2" d="M 279.6,70" />
<path stroke="#000000" stroke-width="2" d="M 279.6,30" />
<path stroke="#000000" stroke-width="2" d="M 279.6,30 281,31.6 282.3,33.3 283.4,35.1 284.4,37 285.2,39.1 285.9,41.2 286.4,43.3 286.8,45.5 287,47.8 287.1,50 287,52.2 286.8,54.5 286.4,56.7 285.9,58.8 285.2,60.9 284.4,63 283.4,64.9 282.3,66.7 281,68.4 279.6,70" />
<path stroke="#000000" stroke-width="2" d="M 317.1,70" />
<path stroke="#000000" stroke-width="2" d="M 317.1,70" />
<path stroke="#000000" stroke-width="2" d="M 317.1,70 318.2,70 319.2,70.2 320,70.4 320.7,70.7 321.3,71 321.7,71.5 322.1,71.9 322.3,72.5 322.3,73.1 322.3,73.8 322.2,74.4 322,75.2 321.6,76 321.2,76.8 320.7,77.6 320.1,78.4 319.5,79.3 318.8,80.2 317.9,81.1 317.1,82" />
<path stroke="#000000" stroke-width="2" d="M 352.3,70" />
<path stroke="#000000" stroke-width="2" d="M 352.3,30 352.3,70" />
<path stroke="#000000" stroke-width="2" d="M 359,70" />
<path stroke="#000000" stroke-width="2" d="M 369,20 361.4,38.5" />
<path stroke="#000000" stroke-width="2" d="M 399,70" />
<path stroke="#000000" stroke-width="2" d="M 399,30 399,50 409,50 414,50 414,70" />
<path stroke="#000000" stroke-width="2" d="M 444,70" />
<path stroke="#000000" stroke-width="2" d="M 444,30" />
<path stroke="#000000" stroke-width="2" d="M 444,30 446.9,30.3 449.4,31.1 451.7,32.4 453.6,34.2 455.3,36.2 456.6,38.6 457.7,41.3 458.4,44.1 458.9,47 459,50 458.9,53 458.4,55.9 457.7,58.7 456.6,61.4 455.3,63.8 453.6,65.8 451.7,67.6 449.4,68.9 446.9,69.7 444,70" />
<path stroke="#000000" stroke-width="2" d="M 465.7,70" />
<path stroke="#000000" stroke-width="2" d="M 485.7,30 470.4,67" />
<path stroke="#000000" stroke-width="2" d="M 492.3,70" />
<path stroke="#000000" stroke-width="2" d="M 492.3,40 492.3,39.3 492.4,38.6 492.5,37.9 492.7,37.2 492.9,36.6 493.2,36 493.6,35.4 494,34.8 494.4,34.2 494.9,33.8 495.5,33.3 496,32.9 496.6,32.6 497.3,32.3 497.9,32 498.6,31.8 499.3,31.7 500,31.7 500.7,31.7 501.4,31.7 502.1,31.8 502.7,32 503.4,32.3 504,32.6 504.6,32.9 505.2,33.3 505.7,33.8 506.2,34.2 506.7,34.8 507.1,35.4 507.4,36 507.7,36.6 508,37.2 508.2,37.9 508.3,38.6 508.3,39.3 500.7,57.8" />
<path stroke="#000000" stroke-width="2" d="M 515,70" />
<path stroke="#000000" stroke-width="2" d="M 515,30" />
<path stroke="#000000" stroke-width="2" d="M 515,30 517.8,30.3 520.4,31.1 522.6,32.4 524.6,34.2 526.2,36.2 527.6,38.6 528.6,41.3 529.4,44.1 529.8,47 530,50 529.8,53 529.4,55.9 528.6,58.7 527.6,61.4 526.2,63.8 524.6,65.8 522.6,67.6 520.4,68.9 517.8,69.7 515,70" />
<path stroke="#000000" stroke-width="2" d="M 560,70" />
<path stroke="#000000" stroke-width="2" d="M 560,30 560,50 570,50 562.3,68.5" />
<path stroke="#000000" stroke-width="2" d="M 600,70" />
<path stroke="#000000" stroke-width="2" d="M 600,30 600,70 611.3,58.7" />
<path stroke="#000000" stroke-width="2" d="M 618,70" />
<path stroke="#000000" stroke-width="2" d="M 618,20 638,20 618.2,39.8 638.2,39.8" />
<path stroke="#000000" stroke-width="2" d="M 668.2,70" />
<path stroke="#000000" stroke-width="2" d="M 668.2,30 668.2,70 668.2,58 668.2,56.3 668.3,54.5 668.6,52.8 669.1,51.1 669.7,49.5 670.4,47.9 671.3,46.4 672.3,45 673.4,43.6 674.7,42.4 676,41.3 677.4,40.3 678.9,39.4 680.5,38.7 682.1,38.1 683.8,37.6 685.6,37.3 687.3,37.1" />
<path stroke="#000000" stroke-width="2" d="M 694,70" />
<path stroke="#000000" stroke-width="2" d="M 694,30 734,30 694.4,69.6 734.4,69.6" />
<path stroke="#000000" stroke-width="2" d="M 741,70" />
<path stroke="#000000" stroke-width="2" d="M 741,20 761,20" />
<path stroke="#000000" stroke-width="2" d="M 767.7,70" />
<path stroke="#000000" stroke-width="2" d="M 767.7,20 767.7,40 767.7,40.7 767.8,41.4 767.9,42.1 768.1,42.8 768.3,43.4 768.6,44 768.9,44.6 769.3,45.2 769.8,45.8 770.3,46.2 770.8,46.7 771.4,47.1 772,47.4 772.6,47.7 773.3,48 774,48.2 774.6,48.3 775.3,48.3 776,48.3 776.7,48.3 777.4,48.2 778.1,48 778.7,47.7 779.4,47.4 780,47.1 780.6,46.7 781.1,46.2 781.6,45.8 782,45.2 782.4,44.6 782.8,44 783.1,43.4 783.3,42.8 783.5,42.1 783.6,41.4 783.7,40.7" />
<path stroke="#000000" stroke-width="2" d="M 790.3,70" />
<path stroke="#000000" stroke-width="2" d="M 790.3,30 790.5,30 790.5,30.2 790.3,30.2 790.3,30" />
<path stroke="#000000" stroke-width="2" d="M 820.5,70" />
</svg>