<svg xmlns="http://www.w3.org/2000/svg" width="900.4868924118309" height="111.25" style="fill:none; stroke-linecap:round;">
    <rect width="100%" height="100%" fill="#FFFFFF" />
<path stroke="#000000" stroke-width="2" d="M 550,75" />
<path stroke="#000000" stroke-width="2" d="M 20,70 20.2,70 20.2,70.2 20,70.2 20,70" />
<path stroke="#000000" stroke-width="2" d="M 26.9,70" />
<path stroke="#000000" stroke-width="2" d="M 50.9,42" />
<path stroke="#000000" stroke-width="2" d="M 50.9,42 46.8,41.8 43.6,41.2 41.1,40.3 39.3,39.1 38.2,37.8 37.6,36.3 37.6,34.8 37.9,33.4 38.6,32 39.6,30.8 40.8,29.7 42.2,29 43.7,28.7 45.2,28.8 46.6,29.3 48,30.5 49.1,32.2 50.1,34.7 50.7,37.9 50.9,42 50.9,50" />
<path stroke="#000000" stroke-width="2" d="M 50.9,50 50.2,51.7 49.6,53.4 48.8,54.9 48,56.3 47.2,57.6 46.3,58.7 45.4,59.8 44.4,60.8 43.4,61.7 42.4,62.5 41.3,63.2 40.2,63.8 39.1,64.4 38,64.8 36.8,65.2 35.6,65.5 34.5,65.7 33.3,65.9 32.1,66 30.9,66" />
<path stroke="#000000" stroke-width="2" d="M 80.9,70" />
<path stroke="#000000" stroke-width="2" d="M 100.9,70 102.6,70 104.3,69.8 106.1,69.5 107.8,69.1 109.4,68.5 111,67.8 112.5,66.9 113.9,65.9 115.3,64.8 116.5,63.5 117.6,62.2 118.6,60.8 119.5,59.3 120.2,57.7 120.8,56 121.3,54.3 121.6,52.6 121.7,50.9 121.7,49.1 121.6,47.4 121.3,45.7 120.8,44 120.2,42.4 119.5,40.8 118.6,39.3 117.6,37.8 116.5,36.5 115.3,35.3 113.9,34.2 112.5,33.2 111,32.3 109.4,31.5 107.8,30.9 106.1,30.5 104.3,30.2 102.6,30 100.9,30 99.1,30.2 97.4,30.5 95.7,30.9 94.1,31.5 92.5,32.3 91,33.2 89.6,34.2 88.2,35.3 87,36.5 85.9,37.8 84.9,39.3 84,40.8 83.3,42.4 82.7,44 82.2,45.7 81.9,47.4 81.8,49.1 81.8,50.9 81.9,52.6 82.2,54.3 82.7,56 83.3,57.7 84,59.3 84.9,60.8 85.9,62.2 87,63.5 88.2,64.8 89.6,65.9 91,66.9 92.5,67.8 94.1,68.5 95.7,69.1 97.4,69.5 99.1,69.8 100.9,70" />
<path stroke="#000000" stroke-width="2" d="M 128.4,70" />
<path stroke="#000000" stroke-width="2" d="M 138.4,20 130.7,38.5" />
<path stroke="#000000" stroke-width="2" d="M 168.4,70" />
<path stroke="#000000" stroke-width="2" d="M 184.4,30 164.6,49.8 184.4,69.6" />
<path stroke="#000000" stroke-width="2" d="M 191.1,70" />
<path stroke="#000000" stroke-width="2" d="M 191.1,30 191.3,30 191.3,30.2 191.1,30.2 191.1,30" />
<path stroke="#000000" stroke-width="2" d="M 221.3,70" />
<path stroke="#000000" stroke-width="2" d="M 221.3,30 221.3,70 232.6,58.7" />
<path stroke="#000000" stroke-width="2" d="M 239.2,70" />
<path stroke="#000000" stroke-width="2" d="M 239.2,20 259.2,20 239.4,39.8 259.4,39.8" />
<path stroke="#000000" stroke-width="2" d="M 289.4,70" />
<path stroke="#000000" stroke-width="2" d="M 289.4,46 300.7,34.7 300.7,74.7" />
<path stroke="#000000" stroke-width="2" d="M 300.7,54.7" />
<path stroke="#000000" stroke-width="2" d="M 292.7,54.7 308.7,54.7" />
<path stroke="#000000" stroke-width="2" d="M 338.7,70" />
<path stroke="#000000" stroke-width="2" d="M 358.7,30 343.4,67" />
<path stroke="#000000" stroke-width="2" d="M 365.4,70" />
<path stroke="#000000" stroke-width="2" d="M 365.4,50 365.6,50 365.6,50.2 365.4,50.2 365.4,50" />
<path stroke="#000000" stroke-width="2" d="M 395.6,70" />
<path stroke="#000000" stroke-width="2" d="M 395.6,30" />
<path stroke="#000000" stroke-width="2" d="M 395.6,30 398.5,30.3 401,31.1 403.3,32.4 405.2,34.2 406.9,36.2 408.2,38.6 409.3,41.3 410,44.1 410.5,47 410.6,50 410.5,53 410,55.9 409.3,58.7 408.2,61.4 406.9,63.8 405.2,65.8 403.3,67.6 401,68.9 398.5,69.7 395.6,70" />
<path stroke="#000000" stroke-width="2" d="M 417.3,70" />
<path stroke="#000000" stroke-width="2" d="M 417.3,50 417.5,50 417.5,50.2 417.3,50.2 417.3,50" />
<path stroke="#000000" stroke-width="2" d="M 447.5,70" />
<path stroke="#000000" stroke-width="2" d="M 447.5,30 447.5,70 458.8,58.7" />
<path stroke="#000000" stroke-width="2" d="M 465.5,70" />
<path stroke="#000000" stroke-width="2" d="M 465.5,20 485.5,20 465.7,39.8 485.7,39.8" />
<path stroke="#000000" stroke-width="2" d="M 515.7,70" />
<path stroke="#000000" stroke-width="2" d="M 535.7,30 520.4,67" />
<path stroke="#000000" stroke-width="2" d="M 542.3,70" />
<path stroke="#000000" stroke-width="2" d="M 542.3,50 542.5,50 542.5,50.2 542.3,50.2 542.3,50" />
<path stroke="#000000" stroke-width="2" d="M 572.5,70" />
<path stroke="#000000" stroke-width="2" d="M 582.5,30" />
<path stroke="#000000" stroke-width="2" d="M 582.5,30 579.7,30.3 577.1,31.1 574.9,32.4 572.9,34.2 571.3,36.2 569.9,38.6 568.9,41.3 568.1,44.1 567.7,47 567.5,50 567.7,53 568.1,55.9 568.9,58.7 569.9,61.4 571.3,63.8 572.9,65.8 574.9,67.6 577.1,68.9 579.7,69.7 582.5,70" />
<path stroke="#000000" stroke-width="2" d="M 582.5,70 582.7,70 583.1,70 583.7,70 584.6,70.1 585.7,70.2 586.8,70.3 588.2,70.4 589.6,70.6 591,70.9 592.5,71.2 594,71.7 595.5,72.2 596.9,72.7 598.2,73.4 599.4,74.2 600.4,75.1 601.3,76.1 602,77.3 602.4,78.6 602.5,80" />
<path stroke="#000000" stroke-width="2" d="M 602.5,80 604.5,82.1 605.8,84.1 606.5,85.7 606.8,87.2 606.7,88.4 606.3,89.5 605.6,90.2 604.7,90.8 603.6,91.1 602.5,91.2 601.4,91.1 600.4,90.8 599.5,90.2 598.7,89.5 598.3,88.4 598.2,87.2 598.5,85.7 599.3,84.1 600.6,82.1 602.5,80" />
<path stroke="#000000" stroke-width="2" d="M 602.5,80 602.5,79.9 602.5,79.7 602.6,79.4 602.7,79 602.8,78.4 603.1,77.8 603.4,77.2 603.8,76.5 604.4,75.7 605,75 605.9,74.3 606.8,73.5 608,72.8 609.4,72.2 611,71.6 612.8,71 614.8,70.6 617.1,70.3 619.7,70.1 622.5,70" />
<path stroke="#000000" stroke-width="2" d="M 622.5,70 622.4,72 622.1,73.6 621.7,74.9 621.1,75.8 620.4,76.3 619.7,76.6 618.9,76.7 618.2,76.5 617.5,76.1 616.9,75.6 616.4,75 616,74.3 615.9,73.6 615.9,72.8 616.2,72.1 616.8,71.4 617.7,70.9 618.9,70.4 620.5,70.1 622.5,70 632.5,70" />
<path stroke="#000000" stroke-width="2" d="M 639.2,70" />
<path stroke="#000000" stroke-width="2" d="M 639.2,20 659.2,20" />
<path stroke="#000000" stroke-width="2" d="M 689.2,70" />
<path stroke="#000000" stroke-width="2" d="M 689.2,40 689.4,40 689.4,40.2 689.2,40.2 689.2,40" />
<path stroke="#000000" stroke-width="2" d="M 696.1,70" />
<path stroke="#000000" stroke-width="2" d="M 696.1,30" />
<path stroke="#000000" stroke-width="2" d="M 696.1,30 698.9,30.3 701.5,31.1 703.7,32.4 705.7,34.2 707.3,36.2 708.7,38.6 709.7,41.3 710.5,44.1 710.9,47 711.1,50 710.9,53 710.5,55.9 709.7,58.7 708.7,61.4 707.3,63.8 705.7,65.8 703.7,67.6 701.5,68.9 698.9,69.7 696.1,70" />
<path stroke="#000000" stroke-width="2" d="M 717.7,70" />
<path stroke="#000000" stroke-width="2" d="M 717.7,20 717.7,40 727.7,40 735.4,21.5 743,40 743,60 743,54 743,53.1 743.1,52.3 743.3,51.4 743.5,50.6 743.8,49.7 744.2,48.9 744.6,48.2 745.1,47.5 745.7,46.8 746.3,46.2 746.9,45.6 747.7,45.1 748.4,44.7 749.2,44.3 750,44 750.9,43.8 751.7,43.6 752.6,43.6" />
<path stroke="#000000" stroke-width="2" d="M 759.3,70" />
<path stroke="#000000" stroke-width="2" d="M 759.3,30 759.5,30 759.5,30.2 759.3,30.2 759.3,30" />
<path stroke="#000000" stroke-width="2" d="M 789.5,70" />
<path stroke="#000000" stroke-width="2" d="M 789.5,70 789.7,70 789.7,70.2 789.5,70.2 789.5,70" />
<path stroke="#000000" stroke-width="2" d="M 819.7,70" />
<path stroke="#000000" stroke-width="2" d="M 839.7,70 841.4,70 843.1,69.8 844.9,69.5 846.5,69.1 848.2,68.5 849.8,67.8 851.3,66.9 852.7,65.9 854,64.8 855.3,63.5 856.4,62.2 857.4,60.8 858.3,59.3 859,57.7 859.6,56 860.1,54.3 860.4,52.6 860.5,50.9 860.5,49.1 860.4,47.4 860.1,45.7 859.6,44 859,42.4 858.3,40.8 857.4,39.3 856.4,37.8 855.3,36.5 854,35.3 852.7,34.2 851.3,33.2 849.8,32.3 848.2,31.5 846.5,30.9 844.9,30.5 843.1,30.2 841.4,30 839.7,30 837.9,30.2 836.2,30.5 834.5,30.9 832.9,31.5 831.3,32.3 829.8,33.2 828.4,34.2 827,35.3 825.8,36.5 824.7,37.8 823.7,39.3 822.8,40.8 822.1,42.4 821.5,44 821,45.7 820.7,47.4 820.5,49.1 820.5,50.9 820.7,52.6 821,54.3 821.5,56 822.1,57.7 822.8,59.3 823.7,60.8 824.7,62.2 825.8,63.5 827,64.8 828.4,65.9 829.8,66.9 831.3,67.8 832.9,68.5 834.5,69.1 836.2,69.5 837.9,69.8 839.7,70" />
<path stroke="#000000" stroke-width="2" d="M 867.2,70" />
<path stroke="#000000" stroke-width="2" d="M 867.2,40" />
<path stroke="#000000" stroke-width="2" d="M 867.2,40 871.2,39.8 874.5,39.2 876.9,38.3 878.7,37.1 879.8,35.8 880.4,34.3 880.5,32.8 880.1,31.4 879.4,30 878.4,28.8 877.2,27.7 875.8,27 874.3,26.7 872.8,26.8 871.4,27.3 870.1,28.5 868.9,30.2 868,32.7 867.4,35.9 867.2,40 867.2,70" />
<path stroke="#000000" stroke-width="2" d="M 910.5,70" />
</svg>