<svg xmlns="http://www.w3.org/2000/svg" width="911.390933624971" height="102.0" style="fill:none; stroke-linecap:round;">
    <rect width="100%" height="100%" fill="#FFFFFF" />
<path stroke="#000000" stroke-width="2" d="M 550,75" />
<path stroke="#000000" stroke-width="2" d="M 20,40" />
<path stroke="#000000" stroke-width="2" d="M 20,40 24.1,39.8 27.3,39.2 29.8,38.3 31.5,37.1 32.7,35.8 33.2,34.3 33.3,32.8 33,31.4 32.3,30 31.2,28.8 30,27.7 28.6,27 27.2,26.7 25.7,26.8 24.2,27.3 22.9,28.5 21.7,30.2 20.8,32.7 20.2,35.9 20,40 20,70" />
<path stroke="#000000" stroke-width="2" d="M 40,70" />
<path stroke="#000000" stroke-width="2" d="M 40,30 40,34 40,34.5 40,35 40.1,35.6 40.2,36.1 40.4,36.6 40.6,37 40.9,37.5 41.2,37.9 41.5,38.3 41.9,38.7 42.3,39 42.7,39.3 43.2,39.6 43.7,39.8 44.2,40 44.7,40.1 45.2,40.2 45.7,40.3 46.2,40.3 46.8,40.2 47.3,40.1 47.8,40 48.3,39.8 48.7,39.6 49.2,39.3 49.6,39 50,38.7 50.4,38.3 50.7,37.9 51,37.5 51.3,37 51.5,36.6 51.7,36.1 51.8,35.6 51.9,35 52,34.5 52,29.5 52,49.5 72,49.5" />
<path stroke="#000000" stroke-width="2" d="M 78.6,70" />
<path stroke="#000000" stroke-width="2" d="M 78.6,20 88.5,29.9 78.6,39.8" />
<path stroke="#000000" stroke-width="2" d="M 95.2,70" />
<path stroke="#000000" stroke-width="2" d="M 95.2,20 95.2,40 95.2,34 95.2,33.1 95.3,32.3 95.4,31.4 95.7,30.6 95.9,29.7 96.3,28.9 96.8,28.2 97.3,27.5 97.8,26.8 98.4,26.2 99.1,25.6 99.8,25.1 100.6,24.7 101.4,24.3 102.2,24 103,23.8 103.9,23.6 104.8,23.6 124.8,23.6 105,43.4 125,43.4" />
<path stroke="#000000" stroke-width="2" d="M 155,70" />
<path stroke="#000000" stroke-width="2" d="M 155,70" />
<path stroke="#000000" stroke-width="2" d="M 155,70 156.1,70 157.1,70.2 157.9,70.4 158.6,70.7 159.2,71 159.6,71.5 159.9,71.9 160.1,72.5 160.2,73.1 160.2,73.8 160.1,74.4 159.8,75.2 159.5,76 159.1,76.8 158.6,77.6 158,78.4 157.4,79.3 156.6,80.2 155.8,81.1 155,82" />
<path stroke="#000000" stroke-width="2" d="M 190.2,70" />
<path stroke="#000000" stroke-width="2" d="M 190.2,30 210.2,30" />
<path stroke="#000000" stroke-width="2" d="M 210.2,30 211.6,30.1 212.9,30.6 214,31.2 215,32.1 215.8,33.1 216.5,34.3 217,35.6 217.4,37 217.6,38.5 217.7,40 217.6,41.5 217.4,43 217,44.4 216.5,45.7 215.8,46.9 215,47.9 214,48.8 212.9,49.4 211.6,49.9 210.2,50" />
<path stroke="#000000" stroke-width="2" d="M 247.7,70" />
<path stroke="#000000" stroke-width="2" d="M 263.7,30 243.9,49.8 263.7,69.6" />
<path stroke="#000000" stroke-width="2" d="M 270.4,70" />
<path stroke="#000000" stroke-width="2" d="M 270.4,30 270.6,30 270.6,30.2 270.4,30.2 270.4,30" />
<path stroke="#000000" stroke-width="2" d="M 300.6,70" />
<path stroke="#000000" stroke-width="2" d="M 316.6,30 296.8,49.8 316.6,69.6" />
<path stroke="#000000" stroke-width="2" d="M 323.3,70" />
<path stroke="#000000" stroke-width="2" d="M 323.3,20" />
<path stroke="#000000" stroke-width="2" d="M 323.3,20 324.7,20.1 326,20.6 327.1,21.2 328.1,22.1 328.9,23.1 329.6,24.3 330.1,25.6 330.5,27 330.7,28.5 330.8,30 330.7,31.5 330.5,33 330.1,34.4 329.6,35.7 328.9,36.9 328.1,37.9 327.1,38.8 326,39.4 324.7,39.9 323.3,40" />
<path stroke="#000000" stroke-width="2" d="M 360.8,70" />
<path stroke="#000000" stroke-width="2" d="M 372.8,30" />
<path stroke="#000000" stroke-width="2" d="M 372.8,30 372.5,34.1 371.9,37.3 371,39.8 369.9,41.5 368.5,42.7 367.1,43.2 365.6,43.3 364.1,43 362.7,42.3 361.5,41.2 360.5,40 359.8,38.6 359.4,37.2 359.5,35.7 360.1,34.2 361.2,32.9 363,31.7 365.5,30.8 368.7,30.2 372.8,30 380.8,30" />
<path stroke="#000000" stroke-width="2" d="M 380.8,30 382.5,30.6 384.1,31.3 385.6,32.1 387,32.8 388.3,33.7 389.5,34.6 390.6,35.5 391.6,36.5 392.5,37.5 393.3,38.5 394,39.6 394.6,40.7 395.1,41.8 395.6,42.9 395.9,44.1 396.2,45.2 396.5,46.4 396.6,47.6 396.7,48.8 396.8,50" />
<path stroke="#000000" stroke-width="2" d="M 403.4,70" />
<path stroke="#000000" stroke-width="2" d="M 403.4,50" />
<path stroke="#000000" stroke-width="2" d="M 403.4,50 403.6,50 404,50 404.6,50 405.5,50.1 406.5,50.2 407.7,50.3 409.1,50.4 410.5,50.6 411.9,50.9 413.4,51.2 414.9,51.7 416.4,52.2 417.8,52.7 419.1,53.4 420.3,54.2 421.3,55.1 422.2,56.1 422.9,57.3 423.3,58.6 423.4,60" />
<path stroke="#000000" stroke-width="2" d="M 423.4,60 425.3,62.1 426.7,64.1 427.4,65.7 427.7,67.2 427.6,68.4 427.2,69.5 426.5,70.2 425.6,70.8 424.5,71.1 423.4,71.2 422.3,71.1 421.3,70.8 420.4,70.2 419.6,69.5 419.2,68.4 419.1,67.2 419.4,65.7 420.2,64 421.5,62.1 423.4,60" />
<path stroke="#000000" stroke-width="2" d="M 423.4,60 423.4,59.9 423.4,59.7 423.5,59.4 423.6,59 423.7,58.4 424,57.8 424.3,57.2 424.7,56.5 425.2,55.7 425.9,55 426.8,54.3 427.7,53.5 428.9,52.8 430.3,52.2 431.9,51.6 433.7,51 435.7,50.6 438,50.3 440.6,50.1 443.4,50 443.4,49.3 443.5,48.6 443.6,47.9 443.8,47.2 444,46.6 444.3,46 444.7,45.4 445.1,44.8 445.5,44.2 446,43.8 446.5,43.3 447.1,42.9 447.7,42.6 448.4,42.3 449,42 449.7,41.8 450.4,41.7 451.1,41.7 451.8,41.7 452.5,41.7 453.1,41.8 453.8,42 454.5,42.3 455.1,42.6 455.7,42.9 456.3,43.3 456.8,43.8 457.3,44.2 457.8,44.8 458.2,45.4 458.5,46 458.8,46.6 459,47.2 459.2,47.9 459.3,48.6 459.4,49.3 459.4,69.3 449.4,69.3" />
<path stroke="#000000" stroke-width="2" d="M 466.1,70" />
<path stroke="#000000" stroke-width="2" d="M 466.1,50 466.1,70 466.1,64 466.1,63.1 466.2,62.3 466.3,61.4 466.5,60.6 466.8,59.7 467.2,58.9 467.6,58.2 468.1,57.5 468.7,56.8 469.3,56.2 470,55.6 470.7,55.1 471.4,54.7 472.2,54.3 473.1,54 473.9,53.8 474.8,53.6 475.6,53.6" />
<path stroke="#000000" stroke-width="2" d="M 475.6,53.6 477.1,53.7 478.3,54.1 479.5,54.8 480.4,55.7 481.3,56.7 481.9,57.9 482.5,59.2 482.8,60.6 483.1,62.1 483.1,63.6 483.1,65.1 482.8,66.5 482.5,67.9 481.9,69.3 481.3,70.4 480.4,71.5 479.5,72.4 478.3,73 477.1,73.4 475.6,73.6" />
<path stroke="#000000" stroke-width="2" d="M 513.1,70" />
<path stroke="#000000" stroke-width="2" d="M 513.1,30 513.1,70 524.4,58.7" />
<path stroke="#000000" stroke-width="2" d="M 531.1,70" />
<path stroke="#000000" stroke-width="2" d="M 531.1,20 551.1,20" />
<path stroke="#000000" stroke-width="2" d="M 581.1,70" />
<path stroke="#000000" stroke-width="2" d="M 581.1,70" />
<path stroke="#000000" stroke-width="2" d="M 581.1,70 582.2,70 583.2,70.2 584.1,70.4 584.8,70.7 585.3,71 585.8,71.5 586.1,71.9 586.3,72.5 586.4,73.1 586.4,73.8 586.2,74.4 586,75.2 585.7,76 585.3,76.8 584.8,77.6 584.2,78.4 583.5,79.3 582.8,80.2 582,81.1 581.1,82" />
<path stroke="#000000" stroke-width="2" d="M 616.4,70" />
<path stroke="#000000" stroke-width="2" d="M 616.4,30 626.4,30 626.4,70" />
<path stroke="#000000" stroke-width="2" d="M 633,70" />
<path stroke="#000000" stroke-width="2" d="M 633,20 633,40 633,34 633,33.1 633.1,32.3 633.3,31.4 633.5,30.6 633.8,29.7 634.2,28.9 634.6,28.2 635.1,27.5 635.7,26.8 636.3,26.2 637,25.6 637.7,25.1 638.4,24.7 639.2,24.3 640,24 640.9,23.8 641.7,23.6 642.6,23.6 634.9,42.1" />
<path stroke="#000000" stroke-width="2" d="M 649.3,70" />
<path stroke="#000000" stroke-width="2" d="M 649.3,30 656.9,48.5 664.6,30 664.6,30.7 664.6,31.4 664.8,32.1 664.9,32.8 665.2,33.4 665.5,34 665.8,34.6 666.2,35.2 666.7,35.8 667.2,36.2 667.7,36.7 668.3,37.1 668.9,37.4 669.5,37.7 670.2,38 670.8,38.2 671.5,38.3 672.2,38.3 672.9,38.3 673.6,38.3 674.3,38.2 675,38 675.6,37.7 676.3,37.4 676.9,37.1 677.4,36.7 678,36.2 678.5,35.8 678.9,35.2 679.3,34.6 679.7,34 680,33.4 680.2,32.8 680.4,32.1 680.5,31.4 680.6,30.7" />
<path stroke="#000000" stroke-width="2" d="M 687.2,70" />
<path stroke="#000000" stroke-width="2" d="M 687.2,30 687.4,30 687.4,30.2 687.2,30.2 687.2,30" />
<path stroke="#000000" stroke-width="2" d="M 717.4,70" />
<path stroke="#000000" stroke-width="2" d="M 717.4,30 737.4,30" />
<path stroke="#000000" stroke-width="2" d="M 737.4,30 738.9,30.1 740.1,30.6 741.3,31.2 742.2,32.1 743.1,33.1 743.7,34.3 744.3,35.6 744.6,37 744.9,38.5 744.9,40 744.9,41.5 744.6,43 744.3,44.4 743.7,45.7 743.1,46.9 742.2,47.9 741.3,48.8 740.1,49.4 738.9,49.9 737.4,50" />
<path stroke="#000000" stroke-width="2" d="M 774.9,70" />
<path stroke="#000000" stroke-width="2" d="M 774.9,30 774.9,70 786.2,58.7" />
<path stroke="#000000" stroke-width="2" d="M 792.9,70" />
<path stroke="#000000" stroke-width="2" d="M 812.9,70 814.7,70 816.4,69.8 818.1,69.5 819.8,69.1 821.4,68.5 823,67.8 824.5,66.9 826,65.9 827.3,64.8 828.5,63.5 829.6,62.2 830.6,60.8 831.5,59.3 832.3,57.7 832.9,56 833.3,54.3 833.6,52.6 833.8,50.9 833.8,49.1 833.6,47.4 833.3,45.7 832.9,44 832.3,42.4 831.5,40.8 830.6,39.3 829.6,37.8 828.5,36.5 827.3,35.3 826,34.2 824.5,33.2 823,32.3 821.4,31.5 819.8,30.9 818.1,30.5 816.4,30.2 814.7,30 812.9,30 811.2,30.2 809.5,30.5 807.8,30.9 806.1,31.5 804.5,32.3 803,33.2 801.6,34.2 800.3,35.3 799,36.5 797.9,37.8 796.9,39.3 796,40.8 795.3,42.4 794.7,44 794.3,45.7 794,47.4 793.8,49.1 793.8,50.9 794,52.6 794.3,54.3 794.7,56 795.3,57.7 796,59.3 796.9,60.8 797.9,62.2 799,63.5 800.3,64.8 801.6,65.9 803,66.9 804.5,67.8 806.1,68.5 807.8,69.1 809.5,69.5 811.2,69.8 812.9,70" />
<path stroke="#000000" stroke-width="2" d="M 863.8,70" />
<path stroke="#000000" stroke-width="2" d="M 863.8,40" />
<path stroke="#000000" stroke-width="2" d="M 863.8,40 867.8,39.8 871.1,39.2 873.5,38.3 875.3,37.1 876.4,35.8 877,34.3 877.1,32.8 876.7,31.4 876,30 875,28.8 873.8,27.7 872.4,27 870.9,26.7 869.4,26.8 868,27.3 866.6,28.5 865.5,30.2 864.6,32.7 864,35.9 863.8,40 863.8,70" />
<path stroke="#000000" stroke-width="2" d="M 883.7,70" />
<path stroke="#000000" stroke-width="2" d="M 883.7,20 891.4,38.5" />
<path stroke="#000000" stroke-width="2" d="M 921.4,70" />
</svg>