<svg xmlns="http://www.w3.org/2000/svg" width="807.4042227530438" height="90.2" style="fill:none; stroke-linecap:round;">
    <rect width="100%" height="100%" fill="#FFFFFF" />
<path stroke="#000000" stroke-width="2" d="M 550,75" />
<path stroke="#000000" stroke-width="2" d="M 20,40 20.2,40 20.2,40.2 20,40.2 20,40" />
<path stroke="#000000" stroke-width="2" d="M 26.9,70" />
<path stroke="#000000" stroke-width="2" d="M 26.9,30 66.9,30" />
<path stroke="#000000" stroke-width="2" d="M 73.5,70" />
<path stroke="#000000" stroke-width="2" d="M 73.5,30 73.5,70" />
<path stroke="#000000" stroke-width="2" d="M 103.5,70" />
<path stroke="#000000" stroke-width="2" d="M 103.5,30 103.5,50 113.5,50 133.5,50 125.9,68.5" />
<path stroke="#000000" stroke-width="2" d="M 140.2,70" />
<path stroke="#000000" stroke-width="2" d="M 140.2,50 140.4,50 140.4,50.2 140.2,50.2 140.2,50" />
<path stroke="#000000" stroke-width="2" d="M 170.4,70" />
<path stroke="#000000" stroke-width="2" d="M 170.4,70 170.6,70 170.6,70.2 170.4,70.2 170.4,70" />
<path stroke="#000000" stroke-width="2" d="M 177.3,70" />
<path stroke="#000000" stroke-width="2" d="M 193.3,30" />
<path stroke="#000000" stroke-width="2" d="M 193.3,30 193.1,34.1 192.5,37.3 191.5,39.8 190.4,41.5 189,42.7 187.6,43.2 186.1,43.3 184.6,43 183.2,42.3 182,41.2 181,40 180.3,38.6 180,37.2 180,35.7 180.6,34.2 181.7,32.9 183.5,31.7 186,30.8 189.2,30.2 193.3,30 213.3,30" />
<path stroke="#000000" stroke-width="2" d="M 219.9,70" />
<path stroke="#000000" stroke-width="2" d="M 219.9,20 239.9,20 230,29.9 239.9,39.8" />
<path stroke="#000000" stroke-width="2" d="M 246.6,70" />
<path stroke="#000000" stroke-width="2" d="M 246.6,20" />
<path stroke="#000000" stroke-width="2" d="M 246.6,20 246.7,20 247.2,20 247.8,20 248.7,20.1 249.7,20.2 250.9,20.3 252.2,20.4 253.6,20.6 255.1,20.9 256.6,21.2 258.1,21.7 259.6,22.2 261,22.7 262.3,23.4 263.5,24.2 264.5,25.1 265.4,26.1 266,27.3 266.5,28.6 266.6,30" />
<path stroke="#000000" stroke-width="2" d="M 266.6,30 268.5,32.1 269.8,34.1 270.6,35.7 270.9,37.2 270.8,38.4 270.4,39.4 269.7,40.2 268.8,40.8 267.7,41.1 266.6,41.2 265.5,41.1 264.4,40.8 263.5,40.2 262.8,39.4 262.4,38.4 262.3,37.2 262.6,35.7 263.4,34 264.7,32.1 266.6,30" />
<path stroke="#000000" stroke-width="2" d="M 266.6,30 266.6,29.9 266.6,29.7 266.7,29.4 266.8,29 266.9,28.4 267.1,27.8 267.5,27.2 267.9,26.5 268.4,25.7 269.1,25 269.9,24.3 270.9,23.5 272.1,22.8 273.5,22.2 275,21.6 276.8,21 278.9,20.6 281.2,20.3 283.7,20.1 286.6,20 286.6,20.7 286.7,21.4 286.8,22.1 287,22.8 287.2,23.4 287.5,24 287.8,24.6 288.2,25.2 288.7,25.8 289.2,26.2 289.7,26.7 290.3,27.1 290.9,27.4 291.5,27.7 292.2,28 292.9,28.2 293.5,28.3 294.2,28.3 294.9,28.3 295.6,28.3 296.3,28.2 297,28 297.7,27.7 298.3,27.4 298.9,27.1 299.5,26.7 300,26.2 300.5,25.8 300.9,25.2 301.3,24.6 301.7,24 302,23.4 302.2,22.8 302.4,22.1 302.5,21.4 302.6,20.7" />
<path stroke="#000000" stroke-width="2" d="M 302.6,20.7 304,20.8 305.3,21.3 306.4,21.9 307.4,22.8 308.2,23.8 308.9,25 309.4,26.3 309.8,27.7 310,29.2 310.1,30.7 310,32.2 309.8,33.7 309.4,35.1 308.9,36.4 308.2,37.6 307.4,38.6 306.4,39.5 305.3,40.1 304,40.6 302.6,40.7" />
<path stroke="#000000" stroke-width="2" d="M 316.8,70" />
<path stroke="#000000" stroke-width="2" d="M 316.8,20 316.8,40 316.8,34 316.8,33.1 316.8,32.3 317,31.4 317.2,30.6 317.5,29.7 317.9,28.9 318.3,28.2 318.8,27.5 319.4,26.8 320,26.2 320.7,25.6 321.4,25.1 322.1,24.7 322.9,24.3 323.7,24 324.6,23.8 325.4,23.6 326.3,23.6" />
<path stroke="#000000" stroke-width="2" d="M 356.3,70" />
<path stroke="#000000" stroke-width="2" d="M 356.3,30 376.3,30" />
<path stroke="#000000" stroke-width="2" d="M 376.3,30 377.7,30.1 379,30.6 380.1,31.2 381.1,32.1 381.9,33.1 382.6,34.3 383.1,35.6 383.5,37 383.7,38.5 383.8,40 383.7,41.5 383.5,43 383.1,44.4 382.6,45.7 381.9,46.9 381.1,47.9 380.1,48.8 379,49.4 377.7,49.9 376.3,50" />
<path stroke="#000000" stroke-width="2" d="M 413.8,70" />
<path stroke="#000000" stroke-width="2" d="M 413.8,40" />
<path stroke="#000000" stroke-width="2" d="M 413.8,40 417.9,39.8 421.1,39.2 423.6,38.3 425.3,37.1 426.5,35.8 427,34.3 427.1,32.8 426.8,31.4 426.1,30 425.1,28.8 423.8,27.7 422.4,27 421,26.7 419.5,26.8 418,27.3 416.7,28.5 415.5,30.2 414.6,32.7 414,35.9 413.8,40 413.8,70" />
<path stroke="#000000" stroke-width="2" d="M 433.8,70" />
<path stroke="#000000" stroke-width="2" d="M 433.8,40 433.8,39.3 433.8,38.6 434,37.9 434.1,37.2 434.4,36.6 434.7,36 435,35.4 435.4,34.8 435.9,34.2 436.4,33.8 436.9,33.3 437.5,32.9 438.1,32.6 438.7,32.3 439.4,32 440,31.8 440.7,31.7 441.4,31.7 442.1,31.7 442.8,31.7 443.5,31.8 444.2,32 444.8,32.3 445.5,32.6 446.1,32.9 446.6,33.3 447.2,33.8 447.7,34.2 448.1,34.8 448.5,35.4 448.9,36 449.2,36.6 449.4,37.2 449.6,37.9 449.7,38.6 449.8,39.3 442.1,57.8" />
<path stroke="#000000" stroke-width="2" d="M 479.8,70" />
<path stroke="#000000" stroke-width="2" d="M 479.8,30 479.8,50 489.8,50 482.1,68.5" />
<path stroke="#000000" stroke-width="2" d="M 519.8,70" />
<path stroke="#000000" stroke-width="2" d="M 539.8,30 524.5,67" />
<path stroke="#000000" stroke-width="2" d="M 546.4,70" />
<path stroke="#000000" stroke-width="2" d="M 546.4,50 546.6,50 546.6,50.2 546.4,50.2 546.4,50" />
<path stroke="#000000" stroke-width="2" d="M 576.6,70" />
<path stroke="#000000" stroke-width="2" d="M 576.6,30 576.6,38 576.6,39 576.7,40.1 576.9,41.1 577.2,42.1 577.5,43.1 578,44.1 578.5,45 579.1,45.8 579.8,46.6 580.5,47.4 581.3,48 582.2,48.6 583.1,49.2 584,49.6 585,50 586,50.2 587.1,50.4 588.1,50.5 589.1,50.5 590.2,50.4 591.2,50.2 592.2,50 593.2,49.6 594.2,49.2 595.1,48.6 595.9,48 596.7,47.4 597.5,46.6 598.1,45.8 598.7,45 599.3,44.1 599.7,43.1 600.1,42.1 600.3,41.1 600.5,40.1 600.6,39 600.6,29 600.6,69" />
<path stroke="#000000" stroke-width="2" d="M 607.3,70" />
<path stroke="#000000" stroke-width="2" d="M 617.3,20 609.6,38.5" />
<path stroke="#000000" stroke-width="2" d="M 647.3,70" />
<path stroke="#000000" stroke-width="2" d="M 647.3,70 647.5,70 647.5,70.2 647.3,70.2 647.3,70" />
<path stroke="#000000" stroke-width="2" d="M 654.1,70" />
<path stroke="#000000" stroke-width="2" d="M 654.1,30 654.1,38 654.1,39 654.2,40.1 654.4,41.1 654.7,42.1 655,43.1 655.5,44.1 656,45 656.6,45.8 657.3,46.6 658,47.4 658.8,48 659.7,48.6 660.6,49.2 661.5,49.6 662.5,50 663.5,50.2 664.6,50.4 665.6,50.5 666.7,50.5 667.7,50.4 668.7,50.2 669.7,50 670.7,49.6 671.7,49.2 672.6,48.6 673.4,48 674.2,47.4 675,46.6 675.7,45.8 676.3,45 676.8,44.1 677.2,43.1 677.6,42.1 677.8,41.1 678,40.1 678.1,39 678.1,29 678.1,69 678.1,67.3 678.3,65.6 678.6,63.8 679,62.2 679.6,60.5 680.4,58.9 681.2,57.4 682.2,56 683.4,54.7 684.6,53.4 685.9,52.3 687.4,51.3 688.9,50.4 690.4,49.7 692.1,49.1 693.8,48.6 695.5,48.3 697.2,48.2" />
<path stroke="#000000" stroke-width="2" d="M 703.9,70" />
<path stroke="#000000" stroke-width="2" d="M 703.9,40" />
<path stroke="#000000" stroke-width="2" d="M 703.9,40 708,39.8 711.2,39.2 713.6,38.3 715.4,37.1 716.6,35.8 717.1,34.3 717.2,32.8 716.9,31.4 716.1,30 715.1,28.8 713.9,27.7 712.5,27 711.1,26.7 709.6,26.8 708.1,27.3 706.8,28.5 705.6,30.2 704.7,32.7 704.1,35.9 703.9,40 703.9,70" />
<path stroke="#000000" stroke-width="2" d="M 747.2,70" />
<path stroke="#000000" stroke-width="2" d="M 752.2,30" />
<path stroke="#000000" stroke-width="2" d="M 752.2,30 750.8,30.1 749.5,30.6 748.4,31.2 747.4,32.1 746.6,33.1 745.9,34.3 745.4,35.6 745,37 744.8,38.5 744.7,40 744.8,41.5 745,43 745.4,44.4 745.9,45.7 746.6,46.9 747.4,47.9 748.4,48.8 749.5,49.4 750.8,49.9 752.2,50 757.2,50 757.2,70" />
<path stroke="#000000" stroke-width="2" d="M 787.2,70" />
<path stroke="#000000" stroke-width="2" d="M 787.2,70 787.4,70 787.4,70.2 787.2,70.2 787.2,70" />
<path stroke="#000000" stroke-width="2" d="M 817.4,70" />
</svg>