<svg xmlns="http://www.w3.org/2000/svg" width="774.7584769494538" height="93.30875" style="fill:none; stroke-linecap:round;">
    <rect width="100%" height="100%" fill="#FFFFFF" />
<path stroke="#000000" stroke-width="2" d="M 550,75" />
<path stroke="#000000" stroke-width="2" d="M 36,30" />
<path stroke="#000000" stroke-width="2" d="M 36,30 35.8,34.1 35.2,37.3 34.3,39.8 33.1,41.5 31.8,42.7 30.3,43.2 28.8,43.3 27.4,43 26,42.3 24.8,41.2 23.7,40 23,38.6 22.7,37.2 22.8,35.7 23.3,34.2 24.5,32.9 26.2,31.7 28.7,30.8 31.9,30.2 36,30 56,30" />
<path stroke="#000000" stroke-width="2" d="M 62.7,70" />
<path stroke="#000000" stroke-width="2" d="M 62.7,20 82.7,20" />
<path stroke="#000000" stroke-width="2" d="M 112.7,70" />
<path stroke="#000000" stroke-width="2" d="M 112.7,30 112.7,50 122.7,50 142.7,50 135,68.5" />
<path stroke="#000000" stroke-width="2" d="M 149.3,70" />
<path stroke="#000000" stroke-width="2" d="M 149.3,50 149.5,50 149.5,50.2 149.3,50.2 149.3,50" />
<path stroke="#000000" stroke-width="2" d="M 179.5,70" />
<path stroke="#000000" stroke-width="2" d="M 179.5,70 179.7,70 179.7,70.2 179.5,70.2 179.5,70" />
<path stroke="#000000" stroke-width="2" d="M 186.4,70" />
<path stroke="#000000" stroke-width="2" d="M 186.4,30 186.4,50 196.4,50" />
<path stroke="#000000" stroke-width="2" d="M 196.4,50 198.4,49.9 200,49.6 201.3,49.1 202.2,48.6 202.7,47.9 203,47.2 203.1,46.4 202.9,45.7 202.5,45 202,44.4 201.4,43.9 200.7,43.5 200,43.3 199.2,43.4 198.5,43.7 197.8,44.2 197.3,45.1 196.8,46.4 196.5,48 196.4,50 196.4,54" />
<path stroke="#000000" stroke-width="2" d="M 196.4,54 196.7,54.9 197.1,55.7 197.4,56.4 197.8,57.1 198.2,57.8 198.7,58.4 199.1,58.9 199.6,59.4 200.1,59.9 200.6,60.2 201.2,60.6 201.7,60.9 202.3,61.2 202.9,61.4 203.4,61.6 204,61.7 204.6,61.9 205.2,61.9 205.8,62 206.4,62" />
<path stroke="#000000" stroke-width="2" d="M 236.4,70" />
<path stroke="#000000" stroke-width="2" d="M 236.4,30 256.4,30" />
<path stroke="#000000" stroke-width="2" d="M 256.4,30 257.8,30.1 259.1,30.6 260.2,31.2 261.2,32.1 262,33.1 262.7,34.3 263.2,35.6 263.6,37 263.8,38.5 263.9,40 263.8,41.5 263.6,43 263.2,44.4 262.7,45.7 262,46.9 261.2,47.9 260.2,48.8 259.1,49.4 257.8,49.9 256.4,50" />
<path stroke="#000000" stroke-width="2" d="M 293.9,70" />
<path stroke="#000000" stroke-width="2" d="M 313.9,70 315.6,70 317.4,69.8 319.1,69.5 320.8,69.1 322.4,68.5 324,67.8 325.5,66.9 326.9,65.9 328.3,64.8 329.5,63.5 330.6,62.2 331.6,60.8 332.5,59.3 333.2,57.7 333.8,56 334.3,54.3 334.6,52.6 334.8,50.9 334.8,49.1 334.6,47.4 334.3,45.7 333.8,44 333.2,42.4 332.5,40.8 331.6,39.3 330.6,37.8 329.5,36.5 328.3,35.3 326.9,34.2 325.5,33.2 324,32.3 322.4,31.5 320.8,30.9 319.1,30.5 317.4,30.2 315.6,30 313.9,30 312.2,30.2 310.4,30.5 308.8,30.9 307.1,31.5 305.5,32.3 304,33.2 302.6,34.2 301.3,35.3 300,36.5 298.9,37.8 297.9,39.3 297,40.8 296.3,42.4 295.7,44 295.2,45.7 294.9,47.4 294.8,49.1 294.8,50.9 294.9,52.6 295.2,54.3 295.7,56 296.3,57.7 297,59.3 297.9,60.8 298.9,62.2 300,63.5 301.3,64.8 302.6,65.9 304,66.9 305.5,67.8 307.1,68.5 308.8,69.1 310.4,69.5 312.2,69.8 313.9,70" />
<path stroke="#000000" stroke-width="2" d="M 341.4,70" />
<path stroke="#000000" stroke-width="2" d="M 341.4,20 361.4,20" />
<path stroke="#000000" stroke-width="2" d="M 391.4,70" />
<path stroke="#000000" stroke-width="2" d="M 391.4,30 401.4,30 401.4,70" />
<path stroke="#000000" stroke-width="2" d="M 408.1,70" />
<path stroke="#000000" stroke-width="2" d="M 408.1,50 408.1,50.7 408.1,51.4 408.3,52.1 408.4,52.8 408.7,53.4 409,54 409.3,54.6 409.7,55.2 410.2,55.8 410.7,56.2 411.2,56.7 411.8,57.1 412.4,57.4 413,57.7 413.7,58 414.3,58.2 415,58.3 415.7,58.3 416.4,58.3 417.1,58.3 417.8,58.2 418.5,58 419.1,57.7 419.8,57.4 420.4,57.1 420.9,56.7 421.5,56.2 422,55.8 422.4,55.2 422.8,54.6 423.2,54 423.5,53.4 423.7,52.8 423.9,52.1 424,51.4 424.1,50.7 416.4,69.2" />
<path stroke="#000000" stroke-width="2" d="M 430.7,70" />
<path stroke="#000000" stroke-width="2" d="M 430.7,20 430.7,40 430.7,34 430.7,33.1 430.8,32.3 431,31.4 431.2,30.6 431.5,29.7 431.9,28.9 432.3,28.2 432.8,27.5 433.4,26.8 434,26.2 434.6,25.6 435.4,25.1 436.1,24.7 436.9,24.3 437.7,24 438.6,23.8 439.4,23.6 440.3,23.6" />
<path stroke="#000000" stroke-width="2" d="M 440.3,23.6 441.7,23.7 443,24.1 444.1,24.8 445.1,25.7 445.9,26.7 446.6,27.9 447.1,29.2 447.5,30.6 447.7,32.1 447.8,33.6 447.7,35.1 447.5,36.5 447.1,37.9 446.6,39.3 445.9,40.4 445.1,41.5 444.1,42.4 443,43 441.7,43.4 440.3,43.6" />
<path stroke="#000000" stroke-width="2" d="M 477.8,70" />
<path stroke="#000000" stroke-width="2" d="M 477.8,30 487.8,30 487.8,70" />
<path stroke="#000000" stroke-width="2" d="M 494.5,70" />
<path stroke="#000000" stroke-width="2" d="M 494.5,50 494.5,70 494.5,64 494.5,63.1 494.5,62.3 494.7,61.4 494.9,60.6 495.2,59.7 495.6,58.9 496,58.2 496.5,57.5 497.1,56.8 497.7,56.2 498.4,55.6 499.1,55.1 499.8,54.7 500.6,54.3 501.4,54 502.3,53.8 503.1,53.6 504,53.6" />
<path stroke="#000000" stroke-width="2" d="M 534,70" />
<path stroke="#000000" stroke-width="2" d="M 550,30 550,60" />
<path stroke="#000000" stroke-width="2" d="M 550,60 549.8,64.1 549.2,67.3 548.3,69.8 547.1,71.5 545.8,72.7 544.3,73.2 542.8,73.3 541.4,73 540,72.3 538.8,71.2 537.8,70 537.1,68.6 536.7,67.2 536.8,65.7 537.4,64.2 538.5,62.9 540.3,61.7 542.7,60.8 546,60.2 550,60" />
<path stroke="#000000" stroke-width="2" d="M 556.7,70" />
<path stroke="#000000" stroke-width="2" d="M 556.7,25" />
<path stroke="#000000" stroke-width="2" d="M 556.7,25 558.7,24.9 560.3,24.6 561.6,24.1 562.4,23.6 563,22.9 563.3,22.2 563.3,21.4 563.2,20.7 562.8,20 562.3,19.4 561.7,18.9 561,18.5 560.3,18.3 559.5,18.4 558.8,18.7 558.1,19.2 557.5,20.1 557.1,21.4 556.8,23 556.7,25 556.7,40 549,58.5" />
<path stroke="#000000" stroke-width="2" d="M 593.3,70" />
<path stroke="#000000" stroke-width="2" d="M 593.3,40 593.5,40 593.5,40.2 593.3,40.2 593.3,40" />
<path stroke="#000000" stroke-width="2" d="M 600.2,70" />
<path stroke="#000000" stroke-width="2" d="M 600.2,40" />
<path stroke="#000000" stroke-width="2" d="M 600.2,40 604.3,39.8 607.5,39.2 610,38.3 611.7,37.1 612.9,35.8 613.4,34.3 613.5,32.8 613.2,31.4 612.5,30 611.5,28.8 610.2,27.7 608.8,27 607.4,26.7 605.9,26.8 604.4,27.3 603.1,28.5 601.9,30.2 601,32.7 600.4,35.9 600.2,40 600.2,70" />
<path stroke="#000000" stroke-width="2" d="M 620.2,70" />
<path stroke="#000000" stroke-width="2" d="M 620.2,28 620.2,27.3 620.2,26.6 620.4,25.9 620.5,25.2 620.8,24.6 621.1,24 621.4,23.4 621.8,22.8 622.3,22.2 622.8,21.8 623.3,21.3 623.9,20.9 624.5,20.6 625.1,20.3 625.8,20 626.4,19.8 627.1,19.7 627.8,19.7 628.5,19.7 629.2,19.7 629.9,19.8 630.6,20 631.2,20.3 631.9,20.6 632.5,20.9 633,21.3 633.6,21.8 634.1,22.2 634.5,22.8 634.9,23.4 635.3,24 635.6,24.6 635.8,25.2 636,25.9 636.1,26.6 636.2,27.3" />
<path stroke="#000000" stroke-width="2" d="M 636.2,23.3" />
<path stroke="#000000" stroke-width="2" d="M 630.2,23.3 646.2,23.3" />
<path stroke="#000000" stroke-width="2" d="M 646.2,23.3 647.6,23.4 648.9,23.9 650,24.5 651,25.4 651.8,26.4 652.5,27.6 653,28.9 653.4,30.3 653.6,31.8 653.7,33.3 653.6,34.8 653.4,36.3 653,37.7 652.5,39 651.8,40.2 651,41.2 650,42.1 648.9,42.7 647.6,43.2 646.2,43.3" />
<path stroke="#000000" stroke-width="2" d="M 683.7,70" />
<path stroke="#000000" stroke-width="2" d="M 683.7,70 683.9,70 683.9,70.2 683.7,70.2 683.7,70" />
<path stroke="#000000" stroke-width="2" d="M 713.9,70" />
<path stroke="#000000" stroke-width="2" d="M 717.9,70 728.6,44.1 728.8,43.5 729.1,42.8 729.2,42.1 729.3,41.4 729.3,40.8 729.3,40.1 729.2,39.4 729.1,38.7 728.8,38 728.6,37.4 728.3,36.8 727.9,36.2 727.5,35.6 727,35.1 726.5,34.6 725.9,34.2 725.3,33.8 724.7,33.5 724.1,33.2 723.4,33 722.7,32.9 722,32.8 721.3,32.8 720.6,32.8 719.9,32.9 719.3,33 718.6,33.2 717.9,33.5 717.3,33.8 716.7,34.2 716.2,34.6 715.7,35.1 715.2,35.6 714.8,36.2 714.4,36.8 714.1,37.4 713.8,38 713.6,38.7 713.4,39.4 713.4,40.1 713.3,40.8 713.4,41.4 713.4,42.1 713.6,42.8 713.8,43.5 714.1,44.1 714.4,44.8 714.8,45.3 715.2,45.9 715.7,46.4 716.2,46.9 716.7,47.3 717.3,47.7 717.9,48 718.6,48.3 719.3,48.5 719.9,48.6 720.6,48.7 721.3,48.8 722,48.7 747.9,38" />
<path stroke="#000000" stroke-width="2" d="M 754.6,70" />
<path stroke="#000000" stroke-width="2" d="M 754.6,30 754.8,30 754.8,30.2 754.6,30.2 754.6,30" />
<path stroke="#000000" stroke-width="2" d="M 784.8,70" />
</svg>