<svg xmlns="http://www.w3.org/2000/svg" width="432.5708827693622" height="102.0" style="fill:none; stroke-linecap:round;">
    <rect width="100%" height="100%" fill="#FFFFFF" />
<path stroke="#000000" stroke-width="2" d="M 550,75" />
<path stroke="#000000" stroke-width="2" d="M 20,30 30,30 30,70" />
<path stroke="#000000" stroke-width="2" d="M 36.7,70" />
<path stroke="#000000" stroke-width="2" d="M 36.7,50 36.7,70 36.7,64 36.7,63.1 36.7,62.3 36.9,61.4 37.1,60.6 37.4,59.7 37.8,58.9 38.2,58.2 38.7,57.5 39.3,56.8 39.9,56.2 40.6,55.6 41.3,55.1 42,54.7 42.8,54.3 43.7,54 44.5,53.8 45.4,53.6 46.2,53.6 47.1,53.6 48,53.5 48.8,53.3 49.7,53.1 50.5,52.8 51.3,52.5 52,52 52.7,51.5 53.4,51 54,50.3 54.6,49.7 55.1,49 55.5,48.2 55.9,47.4 56.2,46.6 56.4,45.7 56.6,44.9 56.6,44 56.6,43.1 56.6,42.3 56.4,41.4 56.2,40.6 55.9,39.8 55.5,39 55.1,38.2 54.6,37.5 54,36.8 53.4,36.2 52.7,35.6 52,35.1 51.3,34.7 50.5,34.3 49.7,34 48.8,33.8 48,33.7 47.1,33.6 46.2,33.6 45.4,33.7 44.5,33.8 43.7,34 42.8,34.3 42,34.7 41.3,35.1 40.6,35.6 39.9,36.2 39.3,36.8 38.7,37.5 38.2,38.2 37.8,39 37.4,39.8 37.1,40.6 36.9,41.4 36.7,42.3 36.7,43.1 36.7,44 36.7,44.9 36.9,45.7 37.1,46.6 37.4,47.4 37.8,48.2 38.2,49 38.7,49.7 39.3,50.3 39.9,51 40.6,51.5 41.3,52 42,52.5 42.8,52.8 43.7,53.1 44.5,53.3 45.4,53.5 46.2,53.6" />
<path stroke="#000000" stroke-width="2" d="M 86.6,70" />
<path stroke="#000000" stroke-width="2" d="M 86.6,70" />
<path stroke="#000000" stroke-width="2" d="M 86.6,70 87.8,70 88.8,70.2 89.6,70.4 90.3,70.7 90.9,71 91.3,71.5 91.6,71.9 91.8,72.5 91.9,73.1 91.9,73.8 91.8,74.4 91.5,75.2 91.2,76 90.8,76.8 90.3,77.6 89.7,78.4 89.1,79.3 88.3,80.2 87.5,81.1 86.6,82" />
<path stroke="#000000" stroke-width="2" d="M 121.9,70" />
<path stroke="#000000" stroke-width="2" d="M 121.9,30 161.9,30" />
<path stroke="#000000" stroke-width="2" d="M 168.6,70" />
<path stroke="#000000" stroke-width="2" d="M 168.6,20 168.6,40 178.6,40 198.6,40 190.9,58.5" />
<path stroke="#000000" stroke-width="2" d="M 205.3,70" />
<path stroke="#000000" stroke-width="2" d="M 205.3,30 245.3,30" />
<path stroke="#000000" stroke-width="2" d="M 275.3,70" />
<path stroke="#000000" stroke-width="2" d="M 279.3,70 290,44.1 290.2,43.5 290.4,42.8 290.6,42.1 290.7,41.4 290.7,40.8 290.7,40.1 290.6,39.4 290.4,38.7 290.2,38 290,37.4 289.6,36.8 289.3,36.2 288.8,35.6 288.4,35.1 287.9,34.6 287.3,34.2 286.7,33.8 286.1,33.5 285.5,33.2 284.8,33 284.1,32.9 283.4,32.8 282.7,32.8 282,32.8 281.3,32.9 280.6,33 280,33.2 279.3,33.5 278.7,33.8 278.1,34.2 277.6,34.6 277.1,35.1 276.6,35.6 276.2,36.2 275.8,36.8 275.5,37.4 275.2,38 275,38.7 274.8,39.4 274.7,40.1 274.7,40.8 274.7,41.4 274.8,42.1 275,42.8 275.2,43.5 275.5,44.1 275.8,44.8 276.2,45.3 276.6,45.9 277.1,46.4 277.6,46.9 278.1,47.3 278.7,47.7 279.3,48 280,48.3 280.6,48.5 281.3,48.6 282,48.7 282.7,48.8 283.4,48.7 309.3,38 309.3,58 319.3,58 311.6,76.5" />
<path stroke="#000000" stroke-width="2" d="M 325.9,70" />
<path stroke="#000000" stroke-width="2" d="M 325.9,30 326.1,30 326.1,30.2 325.9,30.2 325.9,30" />
<path stroke="#000000" stroke-width="2" d="M 356.1,70" />
<path stroke="#000000" stroke-width="2" d="M 356.1,30 366.1,30 366.1,70" />
<path stroke="#000000" stroke-width="2" d="M 372.8,70" />
<path stroke="#000000" stroke-width="2" d="M 372.8,50 372.8,70 372.8,64 372.8,63.1 372.9,62.3 373,61.4 373.3,60.6 373.6,59.7 373.9,58.9 374.4,58.2 374.9,57.5 375.4,56.8 376.1,56.2 376.7,55.6 377.4,55.1 378.2,54.7 379,54.3 379.8,54 380.6,53.8 381.5,53.6 382.4,53.6" />
<path stroke="#000000" stroke-width="2" d="M 412.4,70" />
<path stroke="#000000" stroke-width="2" d="M 412.4,70 412.6,70 412.6,70.2 412.4,70.2 412.4,70" />
<path stroke="#000000" stroke-width="2" d="M 442.6,70" />
</svg>