<svg xmlns="http://www.w3.org/2000/svg" width="844.9739876344016" height="90.00000000000001" style="fill:none; stroke-linecap:round;">
    <rect width="100%" height="100%" fill="#FFFFFF" />
<path stroke="#000000" stroke-width="2" d="M 550,75" />
<path stroke="#000000" stroke-width="2" d="M 20,38 20,37.3 20.1,36.6 20.2,35.9 20.4,35.2 20.6,34.6 20.9,34 21.2,33.4 21.6,32.8 22.1,32.2 22.6,31.8 23.1,31.3 23.7,30.9 24.3,30.6 24.9,30.3 25.6,30 26.3,29.8 26.9,29.7 27.6,29.7 28.3,29.7 29,29.7 29.7,29.8 30.4,30 31.1,30.3 31.7,30.6 32.3,30.9 32.9,31.3 33.4,31.8 33.9,32.2 34.3,32.8 34.7,33.4 35.1,34 35.4,34.6 35.6,35.2 35.8,35.9 35.9,36.6 36,37.3 36,57.3 36,51.3 36,50.4 36.1,49.6 36.2,48.7 36.4,47.9 36.7,47 37.1,46.2 37.5,45.5 38,44.8 38.6,44.1 39.2,43.5 39.9,42.9 40.6,42.4 41.4,42 42.1,41.6 43,41.3 43.8,41.1 44.7,41 45.5,40.9" />
<path stroke="#000000" stroke-width="2" d="M 52.2,70" />
<path stroke="#000000" stroke-width="2" d="M 52.2,30 67.5,67" />
<path stroke="#000000" stroke-width="2" d="M 74.2,70" />
<path stroke="#000000" stroke-width="2" d="M 74.2,30 74.4,30 74.4,30.2 74.2,30.2 74.2,30" />
<path stroke="#000000" stroke-width="2" d="M 104.4,70" />
<path stroke="#000000" stroke-width="2" d="M 120.4,30" />
<path stroke="#000000" stroke-width="2" d="M 120.4,30 120.2,34.1 119.6,37.3 118.7,39.8 117.5,41.5 116.2,42.7 114.7,43.2 113.2,43.3 111.7,43 110.4,42.3 109.1,41.2 108.1,40 107.4,38.6 107.1,37.2 107.1,35.7 107.7,34.2 108.9,32.9 110.6,31.7 113.1,30.8 116.3,30.2 120.4,30 140.4,30" />
<path stroke="#000000" stroke-width="2" d="M 147,70" />
<path stroke="#000000" stroke-width="2" d="M 147,20 147,40 157,40" />
<path stroke="#000000" stroke-width="2" d="M 157,40 156.9,42 156.6,43.6 156.2,44.9 155.6,45.8 154.9,46.3 154.2,46.6 153.5,46.7 152.7,46.5 152,46.1 151.4,45.6 150.9,45 150.6,44.3 150.4,43.6 150.4,42.8 150.7,42.1 151.3,41.4 152.2,40.9 153.4,40.4 155,40.1 157,40 167,40" />
<path stroke="#000000" stroke-width="2" d="M 173.7,70" />
<path stroke="#000000" stroke-width="2" d="M 173.7,20 173.7,40 173.7,34 173.7,33.1 173.8,32.3 173.9,31.4 174.2,30.6 174.5,29.7 174.8,28.9 175.3,28.2 175.8,27.5 176.3,26.8 176.9,26.2 177.6,25.6 178.3,25.1 179.1,24.7 179.9,24.3 180.7,24 181.5,23.8 182.4,23.6 183.3,23.6" />
<path stroke="#000000" stroke-width="2" d="M 213.3,70" />
<path stroke="#000000" stroke-width="2" d="M 213.3,30" />
<path stroke="#000000" stroke-width="2" d="M 213.3,30 216.1,30.3 218.7,31.1 220.9,32.4 222.9,34.2 224.5,36.2 225.9,38.6 226.9,41.3 227.7,44.1 228.1,47 228.3,50 228.1,53 227.7,55.9 226.9,58.7 225.9,61.4 224.5,63.8 222.9,65.8 220.9,67.6 218.7,68.9 216.1,69.7 213.3,70" />
<path stroke="#000000" stroke-width="2" d="M 234.9,70" />
<path stroke="#000000" stroke-width="2" d="M 234.9,30 274.9,30 235.3,69.6 275.3,69.6" />
<path stroke="#000000" stroke-width="2" d="M 282,70" />
<path stroke="#000000" stroke-width="2" d="M 282,20 282,40 282,34 282,33.1 282.1,32.3 282.2,31.4 282.5,30.6 282.8,29.7 283.1,28.9 283.6,28.2 284.1,27.5 284.6,26.8 285.2,26.2 285.9,25.6 286.6,25.1 287.4,24.7 288.2,24.3 289,24 289.8,23.8 290.7,23.6 291.6,23.6 299.2,42.1 306.9,23.6" />
<path stroke="#000000" stroke-width="2" d="M 306.9,23.6 308.3,23.7 309.6,24.1 310.7,24.8 311.7,25.7 312.5,26.7 313.2,27.9 313.7,29.2 314.1,30.6 314.3,32.1 314.4,33.6 314.3,35.1 314.1,36.5 313.7,37.9 313.2,39.3 312.5,40.4 311.7,41.5 310.7,42.4 309.6,43 308.3,43.4 306.9,43.6" />
<path stroke="#000000" stroke-width="2" d="M 344.4,70" />
<path stroke="#000000" stroke-width="2" d="M 364.4,30 349.1,67" />
<path stroke="#000000" stroke-width="2" d="M 371,70" />
<path stroke="#000000" stroke-width="2" d="M 371,50 371.2,50 371.2,50.2 371,50.2 371,50" />
<path stroke="#000000" stroke-width="2" d="M 401.2,70" />
<path stroke="#000000" stroke-width="2" d="M 401.2,30 401.2,70" />
<path stroke="#000000" stroke-width="2" d="M 407.9,70" />
<path stroke="#000000" stroke-width="2" d="M 407.9,30 408.1,30 408.1,30.2 407.9,30.2 407.9,30" />
<path stroke="#000000" stroke-width="2" d="M 438.1,70" />
<path stroke="#000000" stroke-width="2" d="M 438.1,30 438.1,70 438.1,58 438.1,56.3 438.2,54.5 438.6,52.8 439,51.1 439.6,49.5 440.3,47.9 441.2,46.4 442.2,45 443.3,43.6 444.6,42.4 445.9,41.3 447.3,40.3 448.8,39.4 450.4,38.7 452.1,38.1 453.7,37.6 455.5,37.3 457.2,37.1" />
<path stroke="#000000" stroke-width="2" d="M 463.9,70" />
<path stroke="#000000" stroke-width="2" d="M 483.9,30 468.6,67" />
<path stroke="#000000" stroke-width="2" d="M 490.5,70" />
<path stroke="#000000" stroke-width="2" d="M 490.5,20 510.5,20" />
<path stroke="#000000" stroke-width="2" d="M 540.5,70" />
<path stroke="#000000" stroke-width="2" d="M 545.5,30" />
<path stroke="#000000" stroke-width="2" d="M 545.5,30 544.1,30.1 542.8,30.6 541.7,31.2 540.7,32.1 539.9,33.1 539.2,34.3 538.7,35.6 538.3,37 538.1,38.5 538,40 538.1,41.5 538.3,43 538.7,44.4 539.2,45.7 539.9,46.9 540.7,47.9 541.7,48.8 542.8,49.4 544.1,49.9 545.5,50 565.5,50" />
<path stroke="#000000" stroke-width="2" d="M 595.5,70" />
<path stroke="#000000" stroke-width="2" d="M 595.5,30 595.5,70 606.9,58.7" />
<path stroke="#000000" stroke-width="2" d="M 613.5,70" />
<path stroke="#000000" stroke-width="2" d="M 633.5,70 635.3,70 637,69.8 638.7,69.5 640.4,69.1 642,68.5 643.6,67.8 645.1,66.9 646.6,65.9 647.9,64.8 649.1,63.5 650.3,62.2 651.3,60.8 652.1,59.3 652.9,57.7 653.5,56 653.9,54.3 654.2,52.6 654.4,50.9 654.4,49.1 654.2,47.4 653.9,45.7 653.5,44 652.9,42.4 652.1,40.8 651.3,39.3 650.3,37.8 649.1,36.5 647.9,35.3 646.6,34.2 645.1,33.2 643.6,32.3 642,31.5 640.4,30.9 638.7,30.5 637,30.2 635.3,30 633.5,30 631.8,30.2 630.1,30.5 628.4,30.9 626.7,31.5 625.2,32.3 623.6,33.2 622.2,34.2 620.9,35.3 619.6,36.5 618.5,37.8 617.5,39.3 616.7,40.8 615.9,42.4 615.3,44 614.9,45.7 614.6,47.4 614.4,49.1 614.4,50.9 614.6,52.6 614.9,54.3 615.3,56 615.9,57.7 616.7,59.3 617.5,60.8 618.5,62.2 619.6,63.5 620.9,64.8 622.2,65.9 623.6,66.9 625.2,67.8 626.7,68.5 628.4,69.1 630.1,69.5 631.8,69.8 633.5,70" />
<path stroke="#000000" stroke-width="2" d="M 684.4,70" />
<path stroke="#000000" stroke-width="2" d="M 684.4,40 684.6,40 684.6,40.2 684.4,40.2 684.4,40" />
<path stroke="#000000" stroke-width="2" d="M 691.2,70" />
<path stroke="#000000" stroke-width="2" d="M 691.2,30 691.2,70 691.2,58 691.2,56.3 691.4,54.5 691.7,52.8 692.1,51.1 692.7,49.5 693.5,47.9 694.4,46.4 695.4,45 696.5,43.6 697.7,42.4 699,41.3 700.5,40.3 702,39.4 703.6,38.7 705.2,38.1 706.9,37.6 708.6,37.3 710.3,37.1" />
<path stroke="#000000" stroke-width="2" d="M 717,70" />
<path stroke="#000000" stroke-width="2" d="M 717,50 724.7,31.5 732.3,50 732.3,50.7 732.4,51.4 732.5,52.1 732.7,52.8 732.9,53.4 733.2,54 733.6,54.6 734,55.2 734.4,55.8 734.9,56.2 735.4,56.7 736,57.1 736.6,57.4 737.3,57.7 737.9,58 738.6,58.2 739.3,58.3 740,58.3 740.7,58.3 741.4,58.3 742,58.2 742.7,58 743.4,57.7 744,57.4 744.6,57.1 745.2,56.7 745.7,56.2 746.2,55.8 746.7,55.2 747.1,54.6 747.4,54 747.7,53.4 747.9,52.8 748.1,52.1 748.2,51.4 748.3,50.7" />
<path stroke="#000000" stroke-width="2" d="M 778.3,70" />
<path stroke="#000000" stroke-width="2" d="M 778.3,30 818.3,30" />
<path stroke="#000000" stroke-width="2" d="M 825,70" />
<path stroke="#000000" stroke-width="2" d="M 825,30 825,70" />
<path stroke="#000000" stroke-width="2" d="M 855,70" />
</svg>