<svg xmlns="http://www.w3.org/2000/svg" width="796.8406543010683" height="90.00000000000001" style="fill:none; stroke-linecap:round;">
    <rect width="100%" height="100%" fill="#FFFFFF" />
<path stroke="#000000" stroke-width="2" d="M 550,75" />
<path stroke="#000000" stroke-width="2" d="M 20,50 20,49.3 20.1,48.6 20.2,47.9 20.4,47.2 20.6,46.6 20.9,46 21.2,45.4 21.6,44.8 22.1,44.2 22.6,43.8 23.1,43.3 23.7,42.9 24.3,42.6 24.9,42.3 25.6,42 26.3,41.8 26.9,41.7 27.6,41.7 28.3,41.7 29,41.7 29.7,41.8 30.4,42 31.1,42.3 31.7,42.6 32.3,42.9 32.9,43.3 33.4,43.8 33.9,44.2 34.3,44.8 34.7,45.4 35.1,46 35.4,46.6 35.6,47.2 35.8,47.9 35.9,48.6 36,49.3 36,69.3 36,63.3 36,62.4 36.1,61.6 36.2,60.7 36.4,59.9 36.7,59 37.1,58.2 37.5,57.5 38,56.8 38.6,56.1 39.2,55.5 39.9,54.9 40.6,54.4 41.4,54 42.1,53.6 43,53.3 43.8,53.1 44.7,53 45.5,52.9" />
<path stroke="#000000" stroke-width="2" d="M 52.2,70" />
<path stroke="#000000" stroke-width="2" d="M 52.2,30 67.5,67" />
<path stroke="#000000" stroke-width="2" d="M 74.2,70" />
<path stroke="#000000" stroke-width="2" d="M 74.2,30 74.4,30 74.4,30.2 74.2,30.2 74.2,30" />
<path stroke="#000000" stroke-width="2" d="M 104.4,70" />
<path stroke="#000000" stroke-width="2" d="M 120.4,30" />
<path stroke="#000000" stroke-width="2" d="M 120.4,30 120.2,34.1 119.6,37.3 118.7,39.8 117.5,41.5 116.2,42.7 114.7,43.2 113.2,43.3 111.7,43 110.4,42.3 109.1,41.2 108.1,40 107.4,38.6 107.1,37.2 107.1,35.7 107.7,34.2 108.9,32.9 110.6,31.7 113.1,30.8 116.3,30.2 120.4,30 140.4,30" />
<path stroke="#000000" stroke-width="2" d="M 147,70" />
<path stroke="#000000" stroke-width="2" d="M 147,20 147,40 157,40" />
<path stroke="#000000" stroke-width="2" d="M 157,40 156.9,42 156.6,43.6 156.2,44.9 155.6,45.8 154.9,46.3 154.2,46.6 153.5,46.7 152.7,46.5 152,46.1 151.4,45.6 150.9,45 150.6,44.3 150.4,43.6 150.4,42.8 150.7,42.1 151.3,41.4 152.2,40.9 153.4,40.4 155,40.1 157,40 167,40" />
<path stroke="#000000" stroke-width="2" d="M 173.7,70" />
<path stroke="#000000" stroke-width="2" d="M 173.7,20 173.7,40 173.7,34 173.7,33.1 173.8,32.3 173.9,31.4 174.2,30.6 174.5,29.7 174.8,28.9 175.3,28.2 175.8,27.5 176.3,26.8 176.9,26.2 177.6,25.6 178.3,25.1 179.1,24.7 179.9,24.3 180.7,24 181.5,23.8 182.4,23.6 183.3,23.6" />
<path stroke="#000000" stroke-width="2" d="M 213.3,70" />
<path stroke="#000000" stroke-width="2" d="M 213.3,30" />
<path stroke="#000000" stroke-width="2" d="M 213.3,30 216.1,30.3 218.7,31.1 220.9,32.4 222.9,34.2 224.5,36.2 225.9,38.6 226.9,41.3 227.7,44.1 228.1,47 228.3,50 228.1,53 227.7,55.9 226.9,58.7 225.9,61.4 224.5,63.8 222.9,65.8 220.9,67.6 218.7,68.9 216.1,69.7 213.3,70" />
<path stroke="#000000" stroke-width="2" d="M 234.9,70" />
<path stroke="#000000" stroke-width="2" d="M 234.9,30 274.9,30 235.3,69.6 275.3,69.6" />
<path stroke="#000000" stroke-width="2" d="M 282,70" />
<path stroke="#000000" stroke-width="2" d="M 282,20 282,40 282,34 282,33.1 282.1,32.3 282.2,31.4 282.5,30.6 282.8,29.7 283.1,28.9 283.6,28.2 284.1,27.5 284.6,26.8 285.2,26.2 285.9,25.6 286.6,25.1 287.4,24.7 288.2,24.3 289,24 289.8,23.8 290.7,23.6 291.6,23.6 299.2,42.1 306.9,23.6" />
<path stroke="#000000" stroke-width="2" d="M 306.9,23.6 308.3,23.7 309.6,24.1 310.7,24.8 311.7,25.7 312.5,26.7 313.2,27.9 313.7,29.2 314.1,30.6 314.3,32.1 314.4,33.6 314.3,35.1 314.1,36.5 313.7,37.9 313.2,39.3 312.5,40.4 311.7,41.5 310.7,42.4 309.6,43 308.3,43.4 306.9,43.6" />
<path stroke="#000000" stroke-width="2" d="M 344.4,70" />
<path stroke="#000000" stroke-width="2" d="M 364.4,30 349.1,67" />
<path stroke="#000000" stroke-width="2" d="M 371,70" />
<path stroke="#000000" stroke-width="2" d="M 371,50 371.2,50 371.2,50.2 371,50.2 371,50" />
<path stroke="#000000" stroke-width="2" d="M 401.2,70" />
<path stroke="#000000" stroke-width="2" d="M 401.2,30 401.2,70" />
<path stroke="#000000" stroke-width="2" d="M 407.9,70" />
<path stroke="#000000" stroke-width="2" d="M 407.9,30 408.1,30 408.1,30.2 407.9,30.2 407.9,30" />
<path stroke="#000000" stroke-width="2" d="M 438.1,70" />
<path stroke="#000000" stroke-width="2" d="M 438.1,30 438.1,70 438.1,58 438.1,56.3 438.2,54.5 438.6,52.8 439,51.1 439.6,49.5 440.3,47.9 441.2,46.4 442.2,45 443.3,43.6 444.6,42.4 445.9,41.3 447.3,40.3 448.8,39.4 450.4,38.7 452.1,38.1 453.7,37.6 455.5,37.3 457.2,37.1" />
<path stroke="#000000" stroke-width="2" d="M 463.9,70" />
<path stroke="#000000" stroke-width="2" d="M 483.9,30 468.6,67" />
<path stroke="#000000" stroke-width="2" d="M 490.5,70" />
<path stroke="#000000" stroke-width="2" d="M 490.5,20 510.5,20" />
<path stroke="#000000" stroke-width="2" d="M 540.5,70" />
<path stroke="#000000" stroke-width="2" d="M 540.5,40 540.7,40 540.7,40.2 540.5,40.2 540.5,40" />
<path stroke="#000000" stroke-width="2" d="M 547.4,70" />
<path stroke="#000000" stroke-width="2" d="M 547.4,30 547.4,70 558.7,58.7" />
<path stroke="#000000" stroke-width="2" d="M 565.4,70" />
<path stroke="#000000" stroke-width="2" d="M 585.4,70 587.1,70 588.9,69.8 590.6,69.5 592.3,69.1 593.9,68.5 595.5,67.8 597,66.9 598.4,65.9 599.8,64.8 601,63.5 602.1,62.2 603.1,60.8 604,59.3 604.7,57.7 605.3,56 605.8,54.3 606.1,52.6 606.2,50.9 606.2,49.1 606.1,47.4 605.8,45.7 605.3,44 604.7,42.4 604,40.8 603.1,39.3 602.1,37.8 601,36.5 599.8,35.3 598.4,34.2 597,33.2 595.5,32.3 593.9,31.5 592.3,30.9 590.6,30.5 588.9,30.2 587.1,30 585.4,30 583.6,30.2 581.9,30.5 580.2,30.9 578.6,31.5 577,32.3 575.5,33.2 574.1,34.2 572.7,35.3 571.5,36.5 570.4,37.8 569.4,39.3 568.5,40.8 567.8,42.4 567.2,44 566.7,45.7 566.4,47.4 566.3,49.1 566.3,50.9 566.4,52.6 566.7,54.3 567.2,56 567.8,57.7 568.5,59.3 569.4,60.8 570.4,62.2 571.5,63.5 572.7,64.8 574.1,65.9 575.5,66.9 577,67.8 578.6,68.5 580.2,69.1 581.9,69.5 583.6,69.8 585.4,70" />
<path stroke="#000000" stroke-width="2" d="M 636.2,70" />
<path stroke="#000000" stroke-width="2" d="M 636.2,40 636.4,40 636.4,40.2 636.2,40.2 636.2,40" />
<path stroke="#000000" stroke-width="2" d="M 643.1,70" />
<path stroke="#000000" stroke-width="2" d="M 643.1,30 643.1,70 643.1,58 643.1,56.3 643.3,54.5 643.6,52.8 644,51.1 644.6,49.5 645.3,47.9 646.2,46.4 647.2,45 648.3,43.6 649.6,42.4 650.9,41.3 652.3,40.3 653.9,39.4 655.4,38.7 657.1,38.1 658.8,37.6 660.5,37.3 662.2,37.1" />
<path stroke="#000000" stroke-width="2" d="M 668.9,70" />
<path stroke="#000000" stroke-width="2" d="M 668.9,50 676.5,31.5 684.2,50 684.2,50.7 684.3,51.4 684.4,52.1 684.6,52.8 684.8,53.4 685.1,54 685.4,54.6 685.8,55.2 686.3,55.8 686.8,56.2 687.3,56.7 687.9,57.1 688.5,57.4 689.1,57.7 689.8,58 690.5,58.2 691.1,58.3 691.8,58.3 692.5,58.3 693.2,58.3 693.9,58.2 694.6,58 695.2,57.7 695.9,57.4 696.5,57.1 697.1,56.7 697.6,56.2 698.1,55.8 698.5,55.2 698.9,54.6 699.3,54 699.6,53.4 699.8,52.8 700,52.1 700.1,51.4 700.2,50.7" />
<path stroke="#000000" stroke-width="2" d="M 730.2,70" />
<path stroke="#000000" stroke-width="2" d="M 730.2,30 770.2,30" />
<path stroke="#000000" stroke-width="2" d="M 776.8,70" />
<path stroke="#000000" stroke-width="2" d="M 776.8,30 776.8,70" />
<path stroke="#000000" stroke-width="2" d="M 806.8,70" />
</svg>