<svg xmlns="http://www.w3.org/2000/svg" width="928.7530824173025" height="95.13196565022574" style="fill:none; stroke-linecap:round;">
    <rect width="100%" height="100%" fill="#FFFFFF" />
<path stroke="#000000" stroke-width="2" d="M 550,75" />
<path stroke="#000000" stroke-width="2" d="M 20,30 20,70 31.3,58.7" />
<path stroke="#000000" stroke-width="2" d="M 38,70" />
<path stroke="#000000" stroke-width="2" d="M 38,20 58,20 38.2,39.8 58.2,39.8" />
<path stroke="#000000" stroke-width="2" d="M 88.2,70" />
<path stroke="#000000" stroke-width="2" d="M 88.2,50 95.8,31.5 103.5,50 111.1,68.5 118.8,50" />
<path stroke="#000000" stroke-width="2" d="M 148.8,70" />
<path stroke="#000000" stroke-width="2" d="M 148.8,46 148.8,44.6 148.9,43.2 149.2,41.8 149.5,40.5 150,39.2 150.6,37.9 151.3,36.7 152.1,35.6 153,34.5 154,33.5 155,32.6 156.2,31.8 157.4,31.1 158.7,30.5 160,30 161.3,29.7 162.7,29.4 164.1,29.3 165.5,29.3 166.9,29.4 168.2,29.7 169.6,30 170.9,30.5 172.2,31.1 173.4,31.8 174.5,32.6 175.6,33.5 176.6,34.5 177.5,35.6 178.3,36.7 179,37.9 179.6,39.2 180,40.5 180.4,41.8 180.6,43.2 180.8,44.6" />
<path stroke="#000000" stroke-width="2" d="M 187.4,70" />
<path stroke="#000000" stroke-width="2" d="M 187.4,50 187.4,70 187.4,64 187.4,63.1 187.5,62.3 187.7,61.4 187.9,60.6 188.2,59.7 188.6,58.9 189,58.2 189.5,57.5 190,56.8 190.7,56.2 191.3,55.6 192,55.1 192.8,54.7 193.6,54.3 194.4,54 195.3,53.8 196.1,53.6 197,53.6" />
<path stroke="#000000" stroke-width="2" d="M 197,53.6 199,53.5 200.6,53.2 201.9,52.7 202.7,52.1 203.3,51.5 203.6,50.7 203.6,50 203.5,49.3 203.1,48.6 202.6,47.9 202,47.4 201.3,47.1 200.6,46.9 199.8,47 199.1,47.2 198.4,47.8 197.8,48.7 197.4,49.9 197.1,51.5 197,53.6 197,68.6" />
<path stroke="#000000" stroke-width="2" d="M 233.6,70" />
<path stroke="#000000" stroke-width="2" d="M 233.6,30 233.6,50 243.6,50 251.3,68.5" />
<path stroke="#000000" stroke-width="2" d="M 251.3,68.5 251.2,70.5 250.9,72.1 250.4,73.4 249.9,74.2 249.2,74.8 248.5,75.1 247.7,75.1 247,75 246.3,74.6 245.7,74.1 245.2,73.5 244.8,72.8 244.6,72.1 244.7,71.3 245,70.6 245.5,69.9 246.4,69.3 247.6,68.9 249.3,68.6 251.3,68.5 261.3,68.5" />
<path stroke="#000000" stroke-width="2" d="M 268,70" />
<path stroke="#000000" stroke-width="2" d="M 268,55" />
<path stroke="#000000" stroke-width="2" d="M 268,55 270,54.9 271.6,54.6 272.8,54.1 273.7,53.6 274.3,52.9 274.6,52.2 274.6,51.4 274.4,50.7 274.1,50 273.6,49.4 273,48.9 272.3,48.5 271.5,48.3 270.8,48.4 270.1,48.7 269.4,49.2 268.8,50.1 268.4,51.4 268.1,53 268,55 268,70" />
<path stroke="#000000" stroke-width="2" d="M 281.3,70" />
<path stroke="#000000" stroke-width="2" d="M 281.3,20 281.3,40" />
<path stroke="#000000" stroke-width="2" d="M 287.9,70" />
<path stroke="#000000" stroke-width="2" d="M 287.9,20 287.9,20.7 288,21.4 288.1,22.1 288.3,22.8 288.6,23.4 288.8,24 289.2,24.6 289.6,25.2 290,25.8 290.5,26.2 291.1,26.7 291.6,27.1 292.2,27.4 292.9,27.7 293.5,28 294.2,28.2 294.9,28.3 295.6,28.3 296.3,28.3 297,28.3 297.7,28.2 298.3,28 299,27.7 299.6,27.4 300.2,27.1 300.8,26.7 301.3,26.2 301.8,25.8 302.3,25.2 302.7,24.6 303,24 303.3,23.4 303.6,22.8 303.8,22.1 303.9,21.4 303.9,20.7" />
<path stroke="#000000" stroke-width="2" d="M 333.9,70" />
<path stroke="#000000" stroke-width="2" d="M 333.9,30 343.9,30 343.9,70" />
<path stroke="#000000" stroke-width="2" d="M 350.6,70" />
<path stroke="#000000" stroke-width="2" d="M 350.6,50 350.6,70 350.6,64 350.6,63.1 350.7,62.3 350.8,61.4 351.1,60.6 351.4,59.7 351.7,58.9 352.2,58.2 352.7,57.5 353.2,56.8 353.8,56.2 354.5,55.6 355.2,55.1 356,54.7 356.8,54.3 357.6,54 358.4,53.8 359.3,53.6 360.2,53.6" />
<path stroke="#000000" stroke-width="2" d="M 390.2,70" />
<path stroke="#000000" stroke-width="2" d="M 406.2,30 386.4,49.8 406.2,69.6" />
<path stroke="#000000" stroke-width="2" d="M 412.8,70" />
<path stroke="#000000" stroke-width="2" d="M 412.8,30 452.8,30 413.2,69.6 453.2,69.6" />
<path stroke="#000000" stroke-width="2" d="M 483.2,70" />
<path stroke="#000000" stroke-width="2" d="M 495.2,30" />
<path stroke="#000000" stroke-width="2" d="M 495.2,30 495,34.1 494.4,37.3 493.5,39.8 492.3,41.5 491,42.7 489.6,43.2 488.1,43.3 486.6,43 485.2,42.3 484,41.2 483,40 482.3,38.6 481.9,37.2 482,35.7 482.6,34.2 483.7,32.9 485.5,31.7 487.9,30.8 491.2,30.2 495.2,30 503.2,30" />
<path stroke="#000000" stroke-width="2" d="M 503.2,30 505,30.6 506.6,31.3 508.1,32.1 509.5,32.8 510.8,33.7 512,34.6 513.1,35.5 514,36.5 514.9,37.5 515.7,38.5 516.4,39.6 517,40.7 517.6,41.8 518,42.9 518.4,44.1 518.7,45.2 518.9,46.4 519.1,47.6 519.2,48.8 519.2,50" />
<path stroke="#000000" stroke-width="2" d="M 525.9,70" />
<path stroke="#000000" stroke-width="2" d="M 525.9,20 545.9,20 526.1,39.8 546.1,39.8" />
<path stroke="#000000" stroke-width="2" d="M 552.8,70" />
<path stroke="#000000" stroke-width="2" d="M 552.8,20 572.8,20 565.1,38.5" />
<path stroke="#000000" stroke-width="2" d="M 602.8,70" />
<path stroke="#000000" stroke-width="2" d="M 618.8,30" />
<path stroke="#000000" stroke-width="2" d="M 618.8,30 618.5,34.1 617.9,37.3 617,39.8 615.9,41.5 614.5,42.7 613.1,43.2 611.6,43.3 610.1,43 608.7,42.3 607.5,41.2 606.5,40 605.8,38.6 605.4,37.2 605.5,35.7 606.1,34.2 607.2,32.9 609,31.7 611.5,30.8 614.7,30.2 618.8,30 638.8,30" />
<path stroke="#000000" stroke-width="2" d="M 645.4,70" />
<path stroke="#000000" stroke-width="2" d="M 645.4,20 645.4,40 645.4,34 645.4,33.1 645.5,32.3 645.7,31.4 645.9,30.6 646.2,29.7 646.5,28.9 647,28.2 647.5,27.5 648,26.8 648.7,26.2 649.3,25.6 650,25.1 650.8,24.7 651.6,24.3 652.4,24 653.3,23.8 654.1,23.6 655,23.6" />
<path stroke="#000000" stroke-width="2" d="M 655,23.6 654.9,25.6 654.6,27.2 654.1,28.5 653.5,29.3 652.9,29.9 652.1,30.2 651.4,30.2 650.7,30.1 650,29.7 649.4,29.2 648.9,28.6 648.5,27.9 648.3,27.2 648.4,26.4 648.7,25.7 649.2,25 650.1,24.4 651.3,24 652.9,23.7 655,23.6 665,23.6" />
<path stroke="#000000" stroke-width="2" d="M 671.6,70" />
<path stroke="#000000" stroke-width="2" d="M 671.6,25" />
<path stroke="#000000" stroke-width="2" d="M 671.6,25 673.7,24.9 675.3,24.6 676.5,24.1 677.4,23.6 678,22.9 678.3,22.2 678.3,21.4 678.1,20.7 677.8,20 677.3,19.4 676.7,18.9 676,18.5 675.2,18.3 674.5,18.4 673.8,18.7 673.1,19.2 672.5,20.1 672.1,21.4 671.8,23 671.6,25 671.6,40" />
<path stroke="#000000" stroke-width="2" d="M 708.3,70" />
<path stroke="#000000" stroke-width="2" d="M 708.3,70 708.5,70 708.5,70.2 708.3,70.2 708.3,70" />
<path stroke="#000000" stroke-width="2" d="M 738.5,70" />
<path stroke="#000000" stroke-width="2" d="M 754.5,30 734.7,49.8 754.5,69.6" />
<path stroke="#000000" stroke-width="2" d="M 761.2,70" />
<path stroke="#000000" stroke-width="2" d="M 761.2,30 761.4,30 761.4,30.2 761.2,30.2 761.2,30" />
<path stroke="#000000" stroke-width="2" d="M 791.4,70" />
<path stroke="#000000" stroke-width="2" d="M 791.4,30" />
<path stroke="#000000" stroke-width="2" d="M 791.4,30 794.2,30.3 796.8,31.1 799,32.4 801,34.2 802.6,36.2 804,38.6 805,41.3 805.8,44.1 806.2,47 806.4,50 806.2,53 805.8,55.9 805,58.7 804,61.4 802.6,63.8 801,65.8 799,67.6 796.8,68.9 794.2,69.7 791.4,70" />
<path stroke="#000000" stroke-width="2" d="M 813,70" />
<path stroke="#000000" stroke-width="2" d="M 821,30" />
<path stroke="#000000" stroke-width="2" d="M 821,30 820.9,32 820.6,33.6 820.2,34.9 819.6,35.8 818.9,36.3 818.2,36.6 817.4,36.7 816.7,36.5 816,36.1 815.4,35.6 814.9,35 814.6,34.3 814.4,33.6 814.4,32.8 814.7,32.1 815.3,31.4 816.2,30.9 817.4,30.4 819,30.1 821,30 831,30 823.4,48.5" />
<path stroke="#000000" stroke-width="2" d="M 861,70" />
<path stroke="#000000" stroke-width="2" d="M 881,70 882.8,70 884.5,69.8 886.2,69.5 887.9,69.1 889.6,68.5 891.1,67.8 892.7,66.9 894.1,65.9 895.4,64.8 896.7,63.5 897.8,62.2 898.8,60.8 899.6,59.3 900.4,57.7 901,56 901.4,54.3 901.7,52.6 901.9,50.9 901.9,49.1 901.7,47.4 901.4,45.7 901,44 900.4,42.4 899.6,40.8 898.8,39.3 897.8,37.8 896.7,36.5 895.4,35.3 894.1,34.2 892.7,33.2 891.1,32.3 889.6,31.5 887.9,30.9 886.2,30.5 884.5,30.2 882.8,30 881,30 879.3,30.2 877.6,30.5 875.9,30.9 874.3,31.5 872.7,32.3 871.2,33.2 869.7,34.2 868.4,35.3 867.2,36.5 866,37.8 865,39.3 864.2,40.8 863.4,42.4 862.8,44 862.4,45.7 862.1,47.4 861.9,49.1 861.9,50.9 862.1,52.6 862.4,54.3 862.8,56 863.4,57.7 864.2,59.3 865,60.8 866,62.2 867.2,63.5 868.4,64.8 869.7,65.9 871.2,66.9 872.7,67.8 874.3,68.5 875.9,69.1 877.6,69.5 879.3,69.8 881,70" />
<path stroke="#000000" stroke-width="2" d="M 908.6,70" />
<path stroke="#000000" stroke-width="2" d="M 908.6,20 908.8,20 908.8,20.2 908.6,20.2 908.6,20" />
<path stroke="#000000" stroke-width="2" d="M 938.8,70" />
</svg>