<svg xmlns="http://www.w3.org/2000/svg" width="683.2632730260641" height="102.0" style="fill:none; stroke-linecap:round;">
    <rect width="100%" height="100%" fill="#FFFFFF" />
<path stroke="#000000" stroke-width="2" d="M 550,75" />
<path stroke="#000000" stroke-width="2" d="M 20,30" />
<path stroke="#000000" stroke-width="2" d="M 20,30 22.8,30.3 25.4,31.1 27.6,32.4 29.6,34.2 31.2,36.2 32.6,38.6 33.6,41.3 34.4,44.1 34.9,47 35,50 34.9,53 34.4,55.9 33.6,58.7 32.6,61.4 31.2,63.8 29.6,65.8 27.7,67.6 25.4,68.9 22.9,69.7 20,70" />
<path stroke="#000000" stroke-width="2" d="M 41.7,70" />
<path stroke="#000000" stroke-width="2" d="M 41.7,30 51.7,30 51.7,70" />
<path stroke="#000000" stroke-width="2" d="M 58.3,70" />
<path stroke="#000000" stroke-width="2" d="M 58.3,40 58.3,39.3 58.4,38.6 58.5,37.9 58.7,37.2 58.9,36.6 59.2,36 59.6,35.4 60,34.8 60.4,34.2 60.9,33.8 61.5,33.3 62,32.9 62.6,32.6 63.3,32.3 63.9,32 64.6,31.8 65.3,31.7 66,31.7 66.7,31.7 67.4,31.7 68.1,31.8 68.7,32 69.4,32.3 70,32.6 70.6,32.9 71.2,33.3 71.7,33.8 72.2,34.2 72.7,34.8 73.1,35.4 73.4,36 73.7,36.6 74,37.2 74.1,37.9 74.3,38.6 74.3,39.3" />
<path stroke="#000000" stroke-width="2" d="M 81,70" />
<path stroke="#000000" stroke-width="2" d="M 81,20 81,20.7 81,21.4 81.2,22.1 81.3,22.8 81.6,23.4 81.9,24 82.2,24.6 82.6,25.2 83.1,25.8 83.6,26.2 84.1,26.7 84.7,27.1 85.3,27.4 85.9,27.7 86.6,28 87.2,28.2 87.9,28.3 88.6,28.3 89.3,28.3 90,28.3 90.7,28.2 91.4,28 92,27.7 92.7,27.4 93.3,27.1 93.8,26.7 94.4,26.2 94.9,25.8 95.3,25.2 95.7,24.6 96.1,24 96.4,23.4 96.6,22.8 96.8,22.1 96.9,21.4 97,20.7 89.3,39.2" />
<path stroke="#000000" stroke-width="2" d="M 103.6,70" />
<path stroke="#000000" stroke-width="2" d="M 103.6,30 103.8,30 103.8,30.2 103.6,30.2 103.6,30" />
<path stroke="#000000" stroke-width="2" d="M 133.8,70" />
<path stroke="#000000" stroke-width="2" d="M 133.8,70" />
<path stroke="#000000" stroke-width="2" d="M 133.8,70 135,70 135.9,70.2 136.8,70.4 137.5,70.7 138.1,71 138.5,71.5 138.8,71.9 139,72.5 139.1,73.1 139.1,73.8 139,74.4 138.7,75.2 138.4,76 138,76.8 137.5,77.6 136.9,78.4 136.2,79.3 135.5,80.2 134.7,81.1 133.8,82" />
<path stroke="#000000" stroke-width="2" d="M 169.1,70" />
<path stroke="#000000" stroke-width="2" d="M 169.1,40" />
<path stroke="#000000" stroke-width="2" d="M 169.1,40 173.2,39.8 176.4,39.2 178.9,38.3 180.6,37.1 181.8,35.8 182.3,34.3 182.4,32.8 182.1,31.4 181.4,30 180.4,28.8 179.1,27.7 177.7,27 176.3,26.7 174.8,26.8 173.3,27.3 172,28.5 170.8,30.2 169.9,32.7 169.3,35.9 169.1,40 169.1,70" />
<path stroke="#000000" stroke-width="2" d="M 189.1,70" />
<path stroke="#000000" stroke-width="2" d="M 189.1,30 196.7,48.5" />
<path stroke="#000000" stroke-width="2" d="M 196.7,48.5 196.6,46.4 196.3,44.8 195.9,43.6 195.3,42.7 194.6,42.1 193.9,41.9 193.2,41.8 192.4,42 191.7,42.4 191.1,42.9 190.6,43.5 190.3,44.2 190.1,44.9 190.1,45.6 190.4,46.4 191,47 191.9,47.6 193.1,48.1 194.7,48.4 196.7,48.5 200.7,48.5" />
<path stroke="#000000" stroke-width="2" d="M 200.7,48.5 201.6,48.2 202.4,47.8 203.2,47.4 203.9,47.1 204.5,46.6 205.1,46.2 205.7,45.7 206.1,45.2 206.6,44.7 207,44.2 207.3,43.7 207.6,43.1 207.9,42.6 208.1,42 208.3,41.4 208.5,40.9 208.6,40.3 208.7,39.7 208.7,39.1 208.7,38.5" />
<path stroke="#000000" stroke-width="2" d="M 215.4,70" />
<path stroke="#000000" stroke-width="2" d="M 215.4,30 215.6,30 215.6,30.2 215.4,30.2 215.4,30" />
<path stroke="#000000" stroke-width="2" d="M 245.6,70" />
<path stroke="#000000" stroke-width="2" d="M 245.6,30 245.6,70" />
<path stroke="#000000" stroke-width="2" d="M 252.3,70" />
<path stroke="#000000" stroke-width="2" d="M 252.3,70 252.3,68.6 252.4,67.2 252.6,65.8 253,64.5 253.5,63.2 254.1,61.9 254.8,60.7 255.6,59.6 256.5,58.5 257.4,57.5 258.5,56.6 259.7,55.8 260.9,55.1 262.1,54.5 263.4,54 264.8,53.7 266.2,53.4 267.6,53.3 269,53.3 270.3,53.4 271.7,53.7 273.1,54 274.4,54.5 275.6,55.1 276.9,55.8 278,56.6 279.1,57.5 280.1,58.5 280.9,59.6 281.7,60.7 282.4,61.9 283,63.2 283.5,64.5 283.9,65.8 284.1,67.2 284.2,68.6" />
<path stroke="#000000" stroke-width="2" d="M 290.9,70" />
<path stroke="#000000" stroke-width="2" d="M 290.9,50 310.9,50 291.1,69.8 311.1,69.8" />
<path stroke="#000000" stroke-width="2" d="M 341.1,70" />
<path stroke="#000000" stroke-width="2" d="M 341.1,50 348.8,31.5 356.4,50 364.1,68.5 371.7,50" />
<path stroke="#000000" stroke-width="2" d="M 401.7,70" />
<path stroke="#000000" stroke-width="2" d="M 401.7,40 401.9,40 401.9,40.2 401.7,40.2 401.7,40" />
<path stroke="#000000" stroke-width="2" d="M 408.6,70" />
<path stroke="#000000" stroke-width="2" d="M 408.6,30 418.6,30 418.6,70" />
<path stroke="#000000" stroke-width="2" d="M 425.3,70" />
<path stroke="#000000" stroke-width="2" d="M 425.3,30 425.3,31.4 425.4,32.8 425.6,34.2 426,35.5 426.5,36.8 427,38.1 427.7,39.3 428.5,40.4 429.4,41.5 430.4,42.5 431.5,43.4 432.6,44.2 433.9,44.9 435.1,45.5 436.4,46 437.8,46.3 439.2,46.6 440.5,46.7 441.9,46.7 443.3,46.6 444.7,46.3 446.1,46 447.4,45.5 448.6,44.9 449.8,44.2 451,43.4 452,42.5 453,41.5 453.9,40.4 454.7,39.3 455.4,38.1 456,36.8 456.5,35.5 456.9,34.2 457.1,32.8 457.2,31.4" />
<path stroke="#000000" stroke-width="2" d="M 463.9,70" />
<path stroke="#000000" stroke-width="2" d="M 487.9,42" />
<path stroke="#000000" stroke-width="2" d="M 487.9,42 483.8,41.8 480.6,41.2 478.1,40.3 476.4,39.1 475.2,37.8 474.7,36.3 474.6,34.8 474.9,33.4 475.6,32 476.6,30.8 477.9,29.7 479.3,29 480.7,28.7 482.2,28.8 483.7,29.3 485,30.5 486.2,32.2 487.1,34.7 487.7,37.9 487.9,42 487.9,50" />
<path stroke="#000000" stroke-width="2" d="M 487.9,50 487.3,51.7 486.6,53.4 485.8,54.9 485,56.3 484.2,57.6 483.3,58.7 482.4,59.8 481.4,60.8 480.4,61.7 479.4,62.5 478.3,63.2 477.2,63.8 476.1,64.4 475,64.8 473.8,65.2 472.7,65.5 471.5,65.7 470.3,65.9 469.1,66 467.9,66" />
<path stroke="#000000" stroke-width="2" d="M 517.9,70" />
<path stroke="#000000" stroke-width="2" d="M 537.9,70 539.6,70 541.4,69.8 543.1,69.5 544.8,69.1 546.4,68.5 548,67.8 549.5,66.9 550.9,65.9 552.3,64.8 553.5,63.5 554.6,62.2 555.6,60.8 556.5,59.3 557.2,57.7 557.8,56 558.3,54.3 558.6,52.6 558.7,50.9 558.7,49.1 558.6,47.4 558.3,45.7 557.8,44 557.2,42.4 556.5,40.8 555.6,39.3 554.6,37.8 553.5,36.5 552.3,35.3 550.9,34.2 549.5,33.2 548,32.3 546.4,31.5 544.8,30.9 543.1,30.5 541.4,30.2 539.6,30 537.9,30 536.2,30.2 534.4,30.5 532.8,30.9 531.1,31.5 529.5,32.3 528,33.2 526.6,34.2 525.3,35.3 524,36.5 522.9,37.8 521.9,39.3 521,40.8 520.3,42.4 519.7,44 519.2,45.7 518.9,47.4 518.8,49.1 518.8,50.9 518.9,52.6 519.2,54.3 519.7,56 520.3,57.7 521,59.3 521.9,60.8 522.9,62.2 524,63.5 525.3,64.8 526.6,65.9 528,66.9 529.5,67.8 531.1,68.5 532.8,69.1 534.4,69.5 536.2,69.8 537.9,70" />
<path stroke="#000000" stroke-width="2" d="M 565.4,70" />
<path stroke="#000000" stroke-width="2" d="M 575.4,20 567.8,38.5" />
<path stroke="#000000" stroke-width="2" d="M 605.4,70" />
<path stroke="#000000" stroke-width="2" d="M 605.4,70 605.6,70 605.6,70.2 605.4,70.2 605.4,70" />
<path stroke="#000000" stroke-width="2" d="M 612.3,70" />
<path stroke="#000000" stroke-width="2" d="M 612.3,30 612.3,50 612.3,70 602.3,70" />
<path stroke="#000000" stroke-width="2" d="M 618.9,70" />
<path stroke="#000000" stroke-width="2" d="M 628.9,50 621.3,68.5" />
<path stroke="#000000" stroke-width="2" d="M 635.6,70" />
<path stroke="#000000" stroke-width="2" d="M 635.6,20 640.6,20 640.6,40" />
<path stroke="#000000" stroke-width="2" d="M 647.3,70" />
<path stroke="#000000" stroke-width="2" d="M 647.3,20 647.3,20.7 647.3,21.4 647.5,22.1 647.6,22.8 647.9,23.4 648.2,24 648.5,24.6 648.9,25.2 649.4,25.8 649.9,26.2 650.4,26.7 651,27.1 651.6,27.4 652.2,27.7 652.9,28 653.5,28.2 654.2,28.3 654.9,28.3 655.6,28.3 656.3,28.3 657,28.2 657.7,28 658.3,27.7 659,27.4 659.6,27.1 660.1,26.7 660.7,26.2 661.2,25.8 661.6,25.2 662,24.6 662.4,24 662.7,23.4 662.9,22.8 663.1,22.1 663.2,21.4 663.3,20.7" />
<path stroke="#000000" stroke-width="2" d="M 693.3,70" />
</svg>