<svg xmlns="http://www.w3.org/2000/svg" width="737.3615029953385" height="109.79898987322333" style="fill:none; stroke-linecap:round;">
    <rect width="100%" height="100%" fill="#FFFFFF" />
<path stroke="#000000" stroke-width="2" d="M 550,75" />
<path stroke="#000000" stroke-width="2" d="M 20,70 20.2,70 20.2,70.2 20,70.2 20,70" />
<path stroke="#000000" stroke-width="2" d="M 26.9,70" />
<path stroke="#000000" stroke-width="2" d="M 42.9,30" />
<path stroke="#000000" stroke-width="2" d="M 42.9,30 42.7,34.1 42.1,37.3 41.1,39.8 40,41.5 38.6,42.7 37.2,43.2 35.7,43.3 34.2,43 32.8,42.3 31.6,41.2 30.6,40 29.9,38.6 29.6,37.2 29.6,35.7 30.2,34.2 31.3,32.9 33.1,31.7 35.6,30.8 38.8,30.2 42.9,30 62.9,30" />
<path stroke="#000000" stroke-width="2" d="M 69.5,70" />
<path stroke="#000000" stroke-width="2" d="M 69.5,20 89.5,20" />
<path stroke="#000000" stroke-width="2" d="M 119.5,70" />
<path stroke="#000000" stroke-width="2" d="M 119.5,30 119.5,70 130.8,58.7" />
<path stroke="#000000" stroke-width="2" d="M 137.5,70" />
<path stroke="#000000" stroke-width="2" d="M 137.5,20 157.5,20 137.7,39.8 157.7,39.8" />
<path stroke="#000000" stroke-width="2" d="M 187.7,70" />
<path stroke="#000000" stroke-width="2" d="M 187.7,40 187.9,40 187.9,40.2 187.7,40.2 187.7,40" />
<path stroke="#000000" stroke-width="2" d="M 194.6,70" />
<path stroke="#000000" stroke-width="2" d="M 199.6,30" />
<path stroke="#000000" stroke-width="2" d="M 199.6,30 198.2,30.1 196.9,30.6 195.8,31.2 194.8,32.1 194,33.1 193.3,34.3 192.8,35.6 192.4,37 192.2,38.5 192.1,40 192.2,41.5 192.4,43 192.8,44.4 193.3,45.7 194,46.9 194.8,47.9 195.8,48.8 196.9,49.4 198.2,49.9 199.6,50 199.6,70 199.6,64 199.6,63.1 199.7,62.3 199.8,61.4 200,60.6 200.3,59.7 200.7,58.9 201.1,58.2 201.6,57.5 202.2,56.8 202.8,56.2 203.5,55.6 204.2,55.1 205,54.7 205.7,54.3 206.6,54 207.4,53.8 208.3,53.6 209.1,53.6 209.1,52.9 209.2,52.2 209.3,51.5 209.5,50.8 209.7,50.2 210,49.5 210.4,48.9 210.8,48.4 211.2,47.8 211.7,47.3 212.3,46.9 212.8,46.5 213.4,46.1 214.1,45.8 214.7,45.6 215.4,45.4 216.1,45.3 216.8,45.2 217.5,45.2 218.2,45.3 218.9,45.4 219.5,45.6 220.2,45.8 220.8,46.1 221.4,46.5 222,46.9 222.5,47.3 223,47.8 223.5,48.4 223.9,48.9 224.2,49.5 224.5,50.2 224.8,50.8 224.9,51.5 225.1,52.2 225.1,52.9" />
<path stroke="#000000" stroke-width="2" d="M 231.8,70" />
<path stroke="#000000" stroke-width="2" d="M 231.8,20 231.8,40 241.8,40 241.8,60 251.8,60 251.8,59.3 251.8,58.6 252,57.9 252.1,57.2 252.4,56.6 252.7,56 253,55.4 253.4,54.8 253.9,54.2 254.4,53.8 254.9,53.3 255.5,52.9 256.1,52.6 256.7,52.3 257.4,52 258,51.8 258.7,51.7 259.4,51.7 260.1,51.7 260.8,51.7 261.5,51.8 262.2,52 262.8,52.3 263.5,52.6 264.1,52.9 264.6,53.3 265.2,53.8 265.7,54.2 266.1,54.8 266.5,55.4 266.9,56 267.2,56.6 267.4,57.2 267.6,57.9 267.7,58.6 267.8,59.3" />
<path stroke="#000000" stroke-width="2" d="M 297.8,70" />
<path stroke="#000000" stroke-width="2" d="M 297.8,30 297.8,50 307.8,50 327.8,50" />
<path stroke="#000000" stroke-width="2" d="M 327.8,50 329.8,49.9 331.4,49.6 332.6,49.1 333.5,48.6 334.1,47.9 334.4,47.2 334.4,46.4 334.3,45.7 333.9,45 333.4,44.4 332.8,43.9 332.1,43.5 331.4,43.3 330.6,43.4 329.9,43.7 329.2,44.2 328.6,45.1 328.2,46.4 327.9,48 327.8,50 327.8,65 320.1,83.5 322.4,77.9 322.7,77.1 323.2,76.4 323.6,75.6 324.2,74.9 324.7,74.3 325.4,73.7 326.1,73.2 326.8,72.7 327.6,72.3 328.4,72 329.2,71.7 330.1,71.5" />
<path stroke="#000000" stroke-width="2" d="M 341.1,70" />
<path stroke="#000000" stroke-width="2" d="M 341.1,20 348.7,38.5" />
<path stroke="#000000" stroke-width="2" d="M 348.7,28.5" />
<path stroke="#000000" stroke-width="2" d="M 337.7,28.5 351.7,28.5" />
<path stroke="#000000" stroke-width="2" d="M 381.7,70" />
<path stroke="#000000" stroke-width="2" d="M 381.7,70" />
<path stroke="#000000" stroke-width="2" d="M 381.7,70 382.9,70 383.9,70.2 384.7,70.4 385.4,70.7 386,71 386.4,71.5 386.7,71.9 386.9,72.5 387,73.1 387,73.8 386.9,74.4 386.6,75.2 386.3,76 385.9,76.8 385.4,77.6 384.8,78.4 384.2,79.3 383.4,80.2 382.6,81.1 381.7,82" />
<path stroke="#000000" stroke-width="2" d="M 417,70" />
<path stroke="#000000" stroke-width="2" d="M 417,40" />
<path stroke="#000000" stroke-width="2" d="M 417,40 421.1,39.8 424.3,39.2 426.8,38.3 428.5,37.1 429.7,35.8 430.2,34.3 430.3,32.8 430,31.4 429.3,30 428.3,28.8 427,27.7 425.7,27 424.2,26.7 422.7,26.8 421.2,27.3 419.9,28.5 418.7,30.2 417.8,32.7 417.2,35.9 417,40 417,70" />
<path stroke="#000000" stroke-width="2" d="M 437,70" />
<path stroke="#000000" stroke-width="2" d="M 437,20 437,20.7 437.1,21.4 437.2,22.1 437.4,22.8 437.6,23.4 437.9,24 438.2,24.6 438.6,25.2 439.1,25.8 439.6,26.2 440.1,26.7 440.7,27.1 441.3,27.4 441.9,27.7 442.6,28 443.3,28.2 443.9,28.3 444.6,28.3 445.3,28.3 446,28.3 446.7,28.2 447.4,28 448,27.7 448.7,27.4 449.3,27.1 449.9,26.7 450.4,26.2 450.9,25.8 451.3,25.2 451.7,24.6 452.1,24 452.4,23.4 452.6,22.8 452.8,22.1 452.9,21.4 453,20.7" />
<path stroke="#000000" stroke-width="2" d="M 453,20.7 454.4,20.8 455.7,21.3 456.8,21.9 457.8,22.8 458.6,23.8 459.3,25 459.8,26.3 460.2,27.7 460.4,29.2 460.5,30.7 460.4,32.2 460.2,33.7 459.8,35.1 459.3,36.4 458.6,37.6 457.8,38.6 456.8,39.5 455.7,40.1 454.4,40.6 453,40.7" />
<path stroke="#000000" stroke-width="2" d="M 467.1,70" />
<path stroke="#000000" stroke-width="2" d="M 467.1,20 474.8,38.5" />
<path stroke="#000000" stroke-width="2" d="M 504.8,70" />
<path stroke="#000000" stroke-width="2" d="M 524.8,30 524.8,70 504.8,70" />
<path stroke="#000000" stroke-width="2" d="M 531.5,70" />
<path stroke="#000000" stroke-width="2" d="M 531.5,50 551.5,50 531.7,69.8 551.7,69.8" />
<path stroke="#000000" stroke-width="2" d="M 551.7,69.8 553.1,69.9 554.4,70.4 555.5,71 556.5,71.9 557.3,72.9 558,74.1 558.5,75.4 558.9,76.8 559.1,78.3 559.2,79.8 559.1,81.3 558.9,82.8 558.5,84.2 558,85.5 557.3,86.7 556.5,87.7 555.5,88.6 554.4,89.2 553.1,89.7 551.7,89.8" />
<path stroke="#000000" stroke-width="2" d="M 589.2,70" />
<path stroke="#000000" stroke-width="2" d="M 589.2,30 589.2,50 599.2,50 606.8,68.5 614.5,50" />
<path stroke="#000000" stroke-width="2" d="M 621.1,70" />
<path stroke="#000000" stroke-width="2" d="M 621.1,30 661.1,30" />
<path stroke="#000000" stroke-width="2" d="M 691.1,70" />
<path stroke="#000000" stroke-width="2" d="M 691.1,30 701.1,30 701.1,70" />
<path stroke="#000000" stroke-width="2" d="M 707.8,70" />
<path stroke="#000000" stroke-width="2" d="M 707.8,50 707.8,70 707.8,64 707.8,63.1 707.9,62.3 708,61.4 708.3,60.6 708.6,59.7 708.9,58.9 709.4,58.2 709.9,57.5 710.4,56.8 711,56.2 711.7,55.6 712.4,55.1 713.2,54.7 714,54.3 714.8,54 715.6,53.8 716.5,53.6 717.4,53.6" />
<path stroke="#000000" stroke-width="2" d="M 747.4,70" />
</svg>