<svg width="350" height="80" style="fill:none; stroke-linecap:round;" xmlns="http://www.w3.org/2000/svg">
    <rect width="100%" height="100%" fill="#F3F3F7" />


<path stroke="#DDDDDD" stroke-width="2" d="M 175,40" />'

<path stroke="#DDDDDD" stroke-width="2" d="M 0,120 1000,120" />'

<path stroke="#663399" stroke-width="2" d="M 1000,120" />'

<path stroke="#663399" stroke-width="2" d="M 45,30 43.7,30 42.4,30.1 41.1,30.3 39.8,30.7 38.6,31.1 37.4,31.7 36.3,32.3 35.2,33.1 34.2,33.9 33.3,34.9 32.4,35.9 31.7,36.9 31,38.1 30.5,39.2 30,40.5 29.7,41.7 29.5,43 29.4,44.3 29.4,45.6 29.5,46.9 29.7,48.2 30,49.5 30.5,50.7 31,51.9 31.7,53 32.4,54.1 33.3,55.1 34.2,56 35.2,56.9 36.3,57.6 37.4,58.3 38.6,58.8 39.8,59.3 41.1,59.6 42.4,59.9 43.7,60" />'

<path stroke="#663399" stroke-width="2" d="M 73.7,120" />'

<path stroke="#663399" stroke-width="2" d="M 73.7,30 74.2,30 74.7,30 75.3,30.1 75.8,30.3 76.2,30.5 76.7,30.7 77.2,30.9 77.6,31.2 78,31.6 78.4,31.9 78.7,32.3 79,32.8 79.3,33.2 79.5,33.7 79.7,34.2 79.8,34.7 79.9,35.2 79.9,35.7 79.9,36.3 79.9,36.8 79.8,37.3 79.7,37.8 79.5,38.3 79.3,38.8 79,39.2 78.7,39.6 78.4,40 78,40.4 77.6,40.8 77.2,41.1 76.7,41.3 76.2,41.5 75.8,41.7 75.3,41.9 74.7,41.9 74.2,42 73.7,42 73.2,41.9 72.7,41.9 72.1,41.7 71.7,41.5 71.2,41.3 70.7,41.1 70.3,40.8 69.9,40.4 69.5,40 69.2,39.6 68.9,39.2 68.6,38.8 68.4,38.3 68.2,37.8 68.1,37.3 68,36.8 68,36.3 68,35.7 68,35.2 68.1,34.7 68.2,34.2 68.4,33.7 68.6,33.2 68.9,32.8 69.2,32.3 69.5,31.9 69.9,31.6 70.3,31.2 70.7,30.9 71.2,30.7 71.7,30.5 72.1,30.3 72.7,30.1 73.2,30 73.7,30 100.7,30" />'

<path stroke="#663399" stroke-width="2" d="M 130.7,120" />'

<path stroke="#663399" stroke-width="2" d="M 130.7,30 130.7,30.5 130.6,31 130.6,31.6 130.4,32.1 130.2,32.6 130,33 129.8,33.5 129.5,33.9 129.1,34.3 128.8,34.7 128.3,35 127.9,35.3 127.5,35.6 127,35.8 126.5,36 126,36.1 125.5,36.2 125,36.3 124.4,36.3 123.9,36.2 123.4,36.1 122.9,36 122.4,35.8 121.9,35.6 121.5,35.3 121,35 120.6,34.7 120.3,34.3 119.9,33.9 119.6,33.5 119.4,33 119.2,32.6 119,32.1 118.8,31.6 118.7,31 118.7,30.5 118.7,30 118.7,29.5 118.8,29 119,28.5 119.2,28 119.4,27.5 119.6,27 119.9,26.6 120.3,26.2 120.6,25.8 121,25.5 121.5,25.2 121.9,24.9 122.4,24.7 122.9,24.5 123.4,24.4 123.9,24.3 124.4,24.3 125,24.3 125.5,24.3 126,24.4 126.5,24.5 127,24.7 127.5,24.9 127.9,25.2 128.3,25.5 128.8,25.8 129.1,26.2 129.5,26.6 129.8,27 130,27.5 130.2,28 130.4,28.5 130.6,29 130.6,29.5 130.7,30 130.7,45" />'

<path stroke="#663399" stroke-width="2" d="M 160.7,120" />'

<path stroke="#663399" stroke-width="2" d="M 160.7,30 160.7,60 160.7,45 160.7,43.7 160.8,42.4 161,41.1 161.4,39.8 161.8,38.6 162.4,37.4 163,36.3 163.8,35.2 164.6,34.2 165.5,33.3 166.5,32.4 167.6,31.7 168.8,31 169.9,30.5 171.2,30 172.4,29.7 173.7,29.5 175,29.4" />'

<path stroke="#663399" stroke-width="2" d="M 205,120" />'

<path stroke="#663399" stroke-width="2" d="M 205,30 205,30.5 205.1,31 205.2,31.6 205.3,32.1 205.5,32.6 205.7,33 206,33.5 206.3,33.9 206.6,34.3 207,34.7 207.4,35 207.8,35.3 208.2,35.6 208.7,35.8 209.2,36 209.7,36.1 210.2,36.2 210.8,36.3 211.3,36.3 211.8,36.2 212.3,36.1 212.8,36 213.3,35.8 213.8,35.6 214.2,35.3 214.7,35 215.1,34.7 215.4,34.3 215.8,33.9 216.1,33.5 216.3,33 216.6,32.6 216.7,32.1 216.9,31.6 217,31 217,30.5 217,30 217,29.5 216.9,29 216.7,28.5 216.6,28 216.3,27.5 216.1,27 215.8,26.6 215.4,26.2 215.1,25.8 214.7,25.5 214.2,25.2 213.8,24.9 213.3,24.7 212.8,24.5 212.3,24.4 211.8,24.3 211.3,24.3 210.8,24.3 210.2,24.3 209.7,24.4 209.2,24.5 208.7,24.7 208.2,24.9 207.8,25.2 207.4,25.5 207,25.8 206.6,26.2 206.3,26.6 206,27 205.7,27.5 205.5,28 205.3,28.5 205.2,29 205.1,29.5 205,30 205,45" />'

<path stroke="#663399" stroke-width="2" d="M 235,120" />'

<path stroke="#663399" stroke-width="2" d="M 250,30 238.5,57.7" />'

<path stroke="#663399" stroke-width="2" d="M 268.5,120" />'

<path stroke="#663399" stroke-width="2" d="M 268.5,30 274.3,43.9" />'

<path stroke="#663399" stroke-width="2" d="M 274.3,43.9 276.2,46 277.5,47.9 278.3,49.6 278.6,51.1 278.5,52.3 278.1,53.3 277.4,54.1 276.4,54.7 275.4,55 274.3,55.1 273.2,55 272.1,54.7 271.2,54.1 270.5,53.3 270.1,52.3 270,51.1 270.3,49.6 271,47.9 272.4,46 274.3,43.9 280,30" />'

<path stroke="#663399" stroke-width="2" d="M 310,120" />'

<g transform="rotate(202.5,310.0,120) translate(310.0, 120)">
    <circle stroke="#63A375" stroke-width="2" fill="transparent" r="5.5" cx="0" cy="0"/>
    <polygon points="0,12 2,9 -2,9" style="fill:#63A375;stroke:#63A375;stroke-width:2"/>
</g>

</svg>
