<svg width="350" height="80" style="fill:none; stroke-linecap:round;" xmlns="http://www.w3.org/2000/svg">
    <rect width="100%" height="100%" fill="#F3F3F7" />


<path stroke="#DDDDDD" stroke-width="2" d="M 175,40" />'

<path stroke="#DDDDDD" stroke-width="2" d="M 0,120 1000,120" />'

<path stroke="#663399" stroke-width="2" d="M 1000,120" />'

<path stroke="#663399" stroke-width="2" d="M 30,30 41.5,57.7 53,30" />'

<path stroke="#663399" stroke-width="2" d="M 83,120" />'

<path stroke="#663399" stroke-width="2" d="M 83,30 83,60 91.4,51.5" />'

<path stroke="#663399" stroke-width="2" d="M 121.4,120" />'

<path stroke="#663399" stroke-width="2" d="M 136.4,30 106.7,59.7" />'

<path stroke="#663399" stroke-width="2" d="M 106.7,29.7 136.4,59.4" />'

<path stroke="#663399" stroke-width="2" d="M 166.4,120" />'

<path stroke="#663399" stroke-width="2" d="M 166.4,30 179.2,42.7" />'

<path stroke="#663399" stroke-width="2" d="M 174.9,38.5" />'

<path stroke="#663399" stroke-width="2" d="M 185.5,27.9 171.8,61.1" />'

<path stroke="#663399" stroke-width="2" d="M 201.8,120" />'

<path stroke="#663399" stroke-width="2" d="M 201.8,30 216.8,30 204.1,60.5 219.1,60.5" />'

<path stroke="#663399" stroke-width="2" d="M 249.1,120" />'

<g transform="rotate(-90.0,249.1,120) translate(249.1, 120)">
    <circle stroke="#63A375" stroke-width="2" fill="transparent" r="5.5" cx="0" cy="0"/>
    <polygon points="0,12 2,9 -2,9" style="fill:#63A375;stroke:#63A375;stroke-width:2"/>
</g>

</svg>
