<svg xmlns="http://www.w3.org/2000/svg" width="684.831891284255" height="61.25" style="fill:none; stroke-linecap:round;">
    <rect width="100%" height="100%" fill="#FFFFFF" />
<path stroke="#000000" stroke-width="2" d="M 300,50" />
<path stroke="#000000" stroke-width="2" d="M 30,40 30.9,40 31.7,39.9 32.6,39.8 33.4,39.5 34.3,39.2 35.1,38.9 35.8,38.4 36.5,37.9 37.2,37.4 37.8,36.8 38.4,36.1 38.9,35.4 39.3,34.6 39.7,33.8 40,33 40.2,32.2 40.4,31.3 40.4,30.4 40.4,29.6 40.4,28.7 40.2,27.8 40,27 39.7,26.2 39.3,25.4 38.9,24.6 38.4,23.9 37.8,23.3 37.2,22.6 36.5,22.1 35.8,21.6 35.1,21.1 34.3,20.8 33.4,20.5 32.6,20.2 31.7,20.1 30.9,20 30,20 29.1,20.1 28.3,20.2 27.4,20.5 26.6,20.8 25.8,21.1 25.1,21.6 24.3,22.1 23.7,22.6 23.1,23.3 22.5,23.9 22,24.6 21.6,25.4 21.2,26.2 20.9,27 20.7,27.8 20.5,28.7 20.4,29.6 20.4,30.4 20.5,31.3 20.7,32.2 20.9,33 21.2,33.8 21.6,34.6 22,35.4 22.5,36.1 23.1,36.8 23.7,37.4 24.3,37.9 25.1,38.4 25.8,38.9 26.6,39.2 27.4,39.5 28.3,39.8 29.1,39.9 30,40" />
<path stroke="#000000" stroke-width="2" d="M 47.1,70" />
<path stroke="#000000" stroke-width="2" d="M 49.1,40 54.5,27.1 54.6,26.7 54.7,26.4 54.8,26.1 54.8,25.7 54.8,25.4 54.8,25 54.8,24.7 54.7,24.3 54.6,24 54.5,23.7 54.3,23.4 54.1,23.1 53.9,22.8 53.7,22.5 53.4,22.3 53.1,22.1 52.8,21.9 52.5,21.7 52.2,21.6 51.9,21.5 51.5,21.4 51.2,21.4 50.8,21.4 50.5,21.4 50.1,21.4 49.8,21.5 49.5,21.6 49.1,21.7 48.8,21.9 48.5,22.1 48.3,22.3 48,22.5 47.8,22.8 47.5,23.1 47.4,23.4 47.2,23.7 47.1,24 47,24.3 46.9,24.7 46.8,25 46.8,25.4 46.8,25.7 46.9,26.1 47,26.4 47.1,26.7 47.2,27.1 47.4,27.4 47.5,27.7 47.8,27.9 48,28.2 48.3,28.4 48.5,28.7 48.8,28.8 49.1,29 49.5,29.1 49.8,29.2 50.1,29.3 50.5,29.4 50.8,29.4 51.2,29.4 64.1,24" />
<path stroke="#000000" stroke-width="2" d="M 70.8,70" />
<path stroke="#000000" stroke-width="2" d="M 94.1,70" />
<path stroke="#000000" stroke-width="2" d="M 102.1,25" />
<path stroke="#000000" stroke-width="2" d="M 102.1,25 100.1,24.9 98.5,24.6 97.2,24.1 96.3,23.6 95.8,22.9 95.5,22.2 95.5,21.4 95.6,20.7 96,20 96.5,19.4 97.1,18.9 97.8,18.5 98.5,18.3 99.3,18.4 100,18.7 100.7,19.2 101.2,20.1 101.7,21.4 102,23 102.1,25 102.1,40" />
<path stroke="#000000" stroke-width="2" d="M 108.8,70" />
<path stroke="#000000" stroke-width="2" d="M 108.8,20" />
<path stroke="#000000" stroke-width="2" d="M 108.8,20 108.9,20 109.3,20 110,20 110.9,20.1 111.9,20.2 113.1,20.3 114.4,20.4 115.8,20.6 117.3,20.9 118.8,21.2 120.3,21.7 121.7,22.2 123.1,22.7 124.5,23.4 125.7,24.2 126.7,25.1 127.6,26.1 128.2,27.3 128.6,28.6 128.8,30" />
<path stroke="#000000" stroke-width="2" d="M 128.8,30 130.7,32.1 132,34.1 132.8,35.7 133.1,37.2 133,38.4 132.6,39.4 131.8,40.2 130.9,40.8 129.9,41.1 128.8,41.2 127.7,41.1 126.6,40.8 125.7,40.2 125,39.4 124.6,38.4 124.5,37.2 124.8,35.7 125.5,34 126.9,32.1 128.8,30" />
<path stroke="#000000" stroke-width="2" d="M 128.8,30 128.8,29.9 128.8,29.7 128.8,29.4 128.9,29 129.1,28.4 129.3,27.8 129.6,27.2 130.1,26.5 130.6,25.7 131.3,25 132.1,24.3 133.1,23.5 134.3,22.8 135.6,22.2 137.2,21.6 139,21 141.1,20.6 143.4,20.3 145.9,20.1 148.8,20" />
<path stroke="#000000" stroke-width="2" d="M 155.4,70" />
<path stroke="#000000" stroke-width="2" d="M 155.4,20 155.4,40 165.4,40" />
<path stroke="#000000" stroke-width="2" d="M 172.1,70" />
<path stroke="#000000" stroke-width="2" d="M 177.1,20 172.1,20 172.1,40" />
<path stroke="#000000" stroke-width="2" d="M 183.8,70" />
<path stroke="#000000" stroke-width="2" d="M 183.8,28 183.8,27.3 183.8,26.6 184,25.9 184.1,25.2 184.4,24.6 184.7,24 185,23.4 185.4,22.8 185.9,22.2 186.4,21.8 186.9,21.3 187.5,20.9 188.1,20.6 188.7,20.3 189.4,20 190,19.8 190.7,19.7 191.4,19.7 192.1,19.7 192.8,19.7 193.5,19.8 194.2,20 194.8,20.3 195.5,20.6 196.1,20.9 196.6,21.3 197.2,21.8 197.7,22.2 198.1,22.8 198.5,23.4 198.9,24 199.2,24.6 199.4,25.2 199.6,25.9 199.7,26.6 199.8,27.3" />
<path stroke="#000000" stroke-width="2" d="M 206.4,70" />
<path stroke="#000000" stroke-width="2" d="M 229.8,70" />
<path stroke="#000000" stroke-width="2" d="M 234.8,20 229.8,20 229.8,40" />
<path stroke="#000000" stroke-width="2" d="M 241.4,70" />
<path stroke="#000000" stroke-width="2" d="M 241.4,20" />
<path stroke="#000000" stroke-width="2" d="M 241.4,20 241.6,20 242,20 242.6,20 243.5,20.1 244.6,20.2 245.7,20.3 247.1,20.4 248.5,20.6 249.9,20.9 251.4,21.2 252.9,21.7 254.4,22.2 255.8,22.7 257.1,23.4 258.3,24.2 259.3,25.1 260.2,26.1 260.9,27.3 261.3,28.6 261.4,30" />
<path stroke="#000000" stroke-width="2" d="M 261.4,30 263.4,32.1 264.7,34.1 265.4,35.7 265.7,37.2 265.6,38.4 265.2,39.4 264.5,40.2 263.6,40.8 262.5,41.1 261.4,41.2 260.3,41.1 259.3,40.8 258.4,40.2 257.6,39.4 257.2,38.4 257.1,37.2 257.4,35.7 258.2,34 259.5,32.1 261.4,30" />
<path stroke="#000000" stroke-width="2" d="M 261.4,30 261.4,29.9 261.4,29.7 261.5,29.4 261.6,29 261.7,28.4 262,27.8 262.3,27.2 262.7,26.5 263.2,25.7 263.9,25 264.8,24.3 265.7,23.5 266.9,22.8 268.3,22.2 269.9,21.6 271.7,21 273.7,20.6 276,20.3 278.6,20.1 281.4,20" />
<path stroke="#000000" stroke-width="2" d="M 288.1,70" />
<path stroke="#000000" stroke-width="2" d="M 298.1,20 290.4,38.5" />
<path stroke="#000000" stroke-width="2" d="M 304.8,70" />
<path stroke="#000000" stroke-width="2" d="M 306.8,40 312.1,27.1 312.3,26.7 312.4,26.4 312.4,26.1 312.5,25.7 312.5,25.4 312.5,25 312.4,24.7 312.4,24.3 312.3,24 312.1,23.7 312,23.4 311.8,23.1 311.6,22.8 311.3,22.5 311.1,22.3 310.8,22.1 310.5,21.9 310.2,21.7 309.9,21.6 309.5,21.5 309.2,21.4 308.8,21.4 308.5,21.4 308.1,21.4 307.8,21.4 307.5,21.5 307.1,21.6 306.8,21.7 306.5,21.9 306.2,22.1 305.9,22.3 305.7,22.5 305.4,22.8 305.2,23.1 305,23.4 304.9,23.7 304.7,24 304.6,24.3 304.6,24.7 304.5,25 304.5,25.4 304.5,25.7 304.6,26.1 304.6,26.4 304.7,26.7 304.9,27.1 305,27.4 305.2,27.7 305.4,27.9 305.7,28.2 305.9,28.4 306.2,28.7 306.5,28.8 306.8,29 307.1,29.1 307.5,29.2 307.8,29.3 308.1,29.4 308.5,29.4 308.8,29.4 321.8,24" />
<path stroke="#000000" stroke-width="2" d="M 328.4,70" />
<path stroke="#000000" stroke-width="2" d="M 351.8,70" />
<path stroke="#000000" stroke-width="2" d="M 351.8,20" />
<path stroke="#000000" stroke-width="2" d="M 351.8,20 351.9,20 352.3,20 353,20 353.9,20.1 354.9,20.2 356.1,20.3 357.4,20.4 358.8,20.6 360.3,20.9 361.8,21.2 363.3,21.7 364.7,22.2 366.1,22.7 367.5,23.4 368.7,24.2 369.7,25.1 370.6,26.1 371.2,27.3 371.6,28.6 371.8,30" />
<path stroke="#000000" stroke-width="2" d="M 371.8,30 373.7,32.1 375,34.1 375.8,35.7 376.1,37.2 376,38.4 375.6,39.4 374.8,40.2 373.9,40.8 372.9,41.1 371.8,41.2 370.7,41.1 369.6,40.8 368.7,40.2 368,39.4 367.6,38.4 367.5,37.2 367.8,35.7 368.5,34 369.9,32.1 371.8,30" />
<path stroke="#000000" stroke-width="2" d="M 371.8,30 371.8,29.9 371.8,29.7 371.8,29.4 371.9,29 372.1,28.4 372.3,27.8 372.6,27.2 373.1,26.5 373.6,25.7 374.3,25 375.1,24.3 376.1,23.5 377.3,22.8 378.6,22.2 380.2,21.6 382,21 384.1,20.6 386.4,20.3 388.9,20.1 391.8,20" />
<path stroke="#000000" stroke-width="2" d="M 398.4,70" />
<path stroke="#000000" stroke-width="2" d="M 398.4,20 418.4,20" />
<path stroke="#000000" stroke-width="2" d="M 425.1,70" />
<path stroke="#000000" stroke-width="2" d="M 425.1,20 425.1,40 435.1,40" />
<path stroke="#000000" stroke-width="2" d="M 441.8,70" />
<path stroke="#000000" stroke-width="2" d="M 446.8,20 441.8,20 441.8,40" />
<path stroke="#000000" stroke-width="2" d="M 453.4,70" />
<path stroke="#000000" stroke-width="2" d="M 458.4,20" />
<path stroke="#000000" stroke-width="2" d="M 458.4,20 457,20.1 455.7,20.6 454.6,21.2 453.6,22.1 452.8,23.1 452.1,24.3 451.6,25.6 451.2,27 451,28.5 450.9,30 451,31.5 451.2,33 451.6,34.4 452.1,35.7 452.8,36.9 453.6,37.9 454.6,38.8 455.7,39.4 457,39.9 458.4,40" />
<path stroke="#000000" stroke-width="2" d="M 465.1,70" />
<path stroke="#000000" stroke-width="2" d="M 465.1,20 465.1,40 465.1,34 465.1,33.1 465.2,32.3 465.3,31.4 465.6,30.6 465.9,29.7 466.2,28.9 466.7,28.2 467.2,27.5 467.7,26.8 468.3,26.2 469,25.6 469.7,25.1 470.5,24.7 471.3,24.3 472.1,24 472.9,23.8 473.8,23.6 474.7,23.6" />
<path stroke="#000000" stroke-width="2" d="M 481.3,70" />
<path stroke="#000000" stroke-width="2" d="M 481.3,20 501.3,20" />
<path stroke="#000000" stroke-width="2" d="M 508,70" />
<path stroke="#000000" stroke-width="2" d="M 531.3,70" />
<path stroke="#000000" stroke-width="2" d="M 541.3,20 541.3,40 531.3,40" />
<path stroke="#000000" stroke-width="2" d="M 548,70" />
<path stroke="#000000" stroke-width="2" d="M 548,20" />
<path stroke="#000000" stroke-width="2" d="M 548,20 548.1,20 548.6,20 549.2,20 550.1,20.1 551.1,20.2 552.3,20.3 553.6,20.4 555,20.6 556.5,20.9 558,21.2 559.5,21.7 561,22.2 562.4,22.7 563.7,23.4 564.9,24.2 565.9,25.1 566.8,26.1 567.4,27.3 567.9,28.6 568,30" />
<path stroke="#000000" stroke-width="2" d="M 568,30 569.9,32.1 571.2,34.1 572,35.7 572.3,37.2 572.2,38.4 571.8,39.4 571.1,40.2 570.2,40.8 569.1,41.1 568,41.2 566.9,41.1 565.8,40.8 564.9,40.2 564.2,39.4 563.8,38.4 563.7,37.2 564,35.7 564.8,34 566.1,32.1 568,30" />
<path stroke="#000000" stroke-width="2" d="M 568,30 568,29.9 568,29.7 568.1,29.4 568.2,29 568.3,28.4 568.5,27.8 568.9,27.2 569.3,26.5 569.8,25.7 570.5,25 571.3,24.3 572.3,23.5 573.5,22.8 574.9,22.2 576.4,21.6 578.2,21 580.3,20.6 582.6,20.3 585.1,20.1 588,20" />
<path stroke="#000000" stroke-width="2" d="M 594.7,70" />
<path stroke="#000000" stroke-width="2" d="M 594.7,20 602.3,38.5" />
<path stroke="#000000" stroke-width="2" d="M 609,70" />
<path stroke="#000000" stroke-width="2" d="M 617,20" />
<path stroke="#000000" stroke-width="2" d="M 617,20 616.9,22 616.6,23.6 616.1,24.9 615.5,25.8 614.9,26.3 614.1,26.6 613.4,26.7 612.7,26.5 612,26.1 611.4,25.6 610.9,25 610.5,24.3 610.3,23.6 610.4,22.8 610.7,22.1 611.2,21.4 612.1,20.9 613.3,20.4 615,20.1 617,20 627,20" />
<path stroke="#000000" stroke-width="2" d="M 633.6,70" />
<path stroke="#000000" stroke-width="2" d="M 635.6,40 641,27.1 641.1,26.7 641.2,26.4 641.3,26.1 641.4,25.7 641.4,25.4 641.4,25 641.3,24.7 641.2,24.3 641.1,24 641,23.7 640.8,23.4 640.7,23.1 640.4,22.8 640.2,22.5 640,22.3 639.7,22.1 639.4,21.9 639.1,21.7 638.8,21.6 638.4,21.5 638.1,21.4 637.7,21.4 637.4,21.4 637,21.4 636.7,21.4 636.3,21.5 636,21.6 635.7,21.7 635.4,21.9 635.1,22.1 634.8,22.3 634.6,22.5 634.3,22.8 634.1,23.1 633.9,23.4 633.8,23.7 633.6,24 633.5,24.3 633.4,24.7 633.4,25 633.4,25.4 633.4,25.7 633.4,26.1 633.5,26.4 633.6,26.7 633.8,27.1 633.9,27.4 634.1,27.7 634.3,27.9 634.6,28.2 634.8,28.4 635.1,28.7 635.4,28.8 635.7,29 636,29.1 636.3,29.2 636.7,29.3 637,29.4 637.4,29.4 637.7,29.4 650.7,24" />
<path stroke="#000000" stroke-width="2" d="M 657.3,70" />
<path stroke="#000000" stroke-width="2" d="M 657.3,20" />
<path stroke="#000000" stroke-width="2" d="M 657.3,20 658.8,20.1 660,20.6 661.2,21.2 662.1,22.1 663,23.1 663.6,24.3 664.2,25.6 664.5,27 664.8,28.5 664.8,30 664.8,31.5 664.5,33 664.2,34.4 663.6,35.7 663,36.9 662.1,37.9 661.2,38.8 660,39.4 658.8,39.9 657.3,40" />
<path stroke="#000000" stroke-width="2" d="M 671.5,70" />
</svg>