<svg xmlns="http://www.w3.org/2000/svg" width="398.1881730937976" height="60.0" style="fill:none; stroke-linecap:round;">
    <rect width="100%" height="100%" fill="#FFFFFF" />
<path stroke="#000000" stroke-width="2" d="M 300,50" />
<path stroke="#000000" stroke-width="2" d="M 28,20" />
<path stroke="#000000" stroke-width="2" d="M 28,20 27.9,22 27.6,23.6 27.1,24.9 26.6,25.8 25.9,26.3 25.2,26.6 24.4,26.7 23.7,26.5 23,26.1 22.4,25.6 21.9,25 21.5,24.3 21.3,23.6 21.4,22.8 21.7,22.1 22.2,21.4 23.1,20.9 24.4,20.4 26,20.1 28,20 38,20" />
<path stroke="#000000" stroke-width="2" d="M 44.7,70" />
<path stroke="#000000" stroke-width="2" d="M 44.7,20 44.7,40 54.7,40" />
<path stroke="#000000" stroke-width="2" d="M 61.3,70" />
<path stroke="#000000" stroke-width="2" d="M 63.3,40 68.7,27.1 68.8,26.7 68.9,26.4 69,26.1 69.1,25.7 69.1,25.4 69.1,25 69,24.7 68.9,24.3 68.8,24 68.7,23.7 68.5,23.4 68.3,23.1 68.1,22.8 67.9,22.5 67.6,22.3 67.4,22.1 67.1,21.9 66.8,21.7 66.4,21.6 66.1,21.5 65.8,21.4 65.4,21.4 65.1,21.4 64.7,21.4 64.4,21.4 64,21.5 63.7,21.6 63.4,21.7 63.1,21.9 62.8,22.1 62.5,22.3 62.2,22.5 62,22.8 61.8,23.1 61.6,23.4 61.4,23.7 61.3,24 61.2,24.3 61.1,24.7 61.1,25 61.1,25.4 61.1,25.7 61.1,26.1 61.2,26.4 61.3,26.7 61.4,27.1 61.6,27.4 61.8,27.7 62,27.9 62.2,28.2 62.5,28.4 62.8,28.7 63.1,28.8 63.4,29 63.7,29.1 64,29.2 64.4,29.3 64.7,29.4 65.1,29.4 65.4,29.4 78.3,24" />
<path stroke="#000000" stroke-width="2" d="M 85,70" />
<path stroke="#000000" stroke-width="2" d="M 108.3,70" />
<path stroke="#000000" stroke-width="2" d="M 108.3,20 108.3,40 114,34.3" />
<path stroke="#000000" stroke-width="2" d="M 120.7,70" />
<path stroke="#000000" stroke-width="2" d="M 125.7,20" />
<path stroke="#000000" stroke-width="2" d="M 125.7,20 124.2,20.1 123,20.6 121.8,21.2 120.9,22.1 120,23.1 119.4,24.3 118.8,25.6 118.5,27 118.2,28.5 118.2,30 118.2,31.5 118.5,33 118.8,34.4 119.4,35.7 120,36.9 120.9,37.9 121.8,38.8 123,39.4 124.2,39.9 125.7,40" />
<path stroke="#000000" stroke-width="2" d="M 132.3,70" />
<path stroke="#000000" stroke-width="2" d="M 132.3,20 152.3,20" />
<path stroke="#000000" stroke-width="2" d="M 159,70" />
<path stroke="#000000" stroke-width="2" d="M 182.3,70" />
<path stroke="#000000" stroke-width="2" d="M 182.3,20 187.3,20 187.3,40" />
<path stroke="#000000" stroke-width="2" d="M 194,70" />
<path stroke="#000000" stroke-width="2" d="M 194,20 194,40 204,40" />
<path stroke="#000000" stroke-width="2" d="M 210.7,70" />
<path stroke="#000000" stroke-width="2" d="M 210.7,20 210.7,40 210.7,34 210.7,33.1 210.7,32.3 210.9,31.4 211.1,30.6 211.4,29.7 211.8,28.9 212.2,28.2 212.7,27.5 213.3,26.8 213.9,26.2 214.6,25.6 215.3,25.1 216,24.7 216.8,24.3 217.7,24 218.5,23.8 219.4,23.6 220.2,23.6" />
<path stroke="#000000" stroke-width="2" d="M 226.9,70" />
<path stroke="#000000" stroke-width="2" d="M 226.9,25" />
<path stroke="#000000" stroke-width="2" d="M 226.9,25 228.9,24.9 230.5,24.6 231.8,24.1 232.7,23.6 233.2,22.9 233.5,22.2 233.5,21.4 233.4,20.7 233,20 232.5,19.4 231.9,18.9 231.2,18.5 230.5,18.3 229.7,18.4 229,18.7 228.3,19.2 227.8,20.1 227.3,21.4 227,23 226.9,25 226.9,40" />
<path stroke="#000000" stroke-width="2" d="M 240.2,70" />
<path stroke="#000000" stroke-width="2" d="M 250.2,20 242.6,38.5" />
<path stroke="#000000" stroke-width="2" d="M 256.9,70" />
<path stroke="#000000" stroke-width="2" d="M 280.2,70" />
<path stroke="#000000" stroke-width="2" d="M 288.2,20" />
<path stroke="#000000" stroke-width="2" d="M 288.2,20 288.1,22 287.8,23.6 287.4,24.9 286.8,25.8 286.1,26.3 285.4,26.6 284.6,26.7 283.9,26.5 283.2,26.1 282.6,25.6 282.1,25 281.7,24.3 281.6,23.6 281.6,22.8 281.9,22.1 282.5,21.4 283.3,20.9 284.6,20.4 286.2,20.1 288.2,20 298.2,20" />
<path stroke="#000000" stroke-width="2" d="M 304.9,70" />
<path stroke="#000000" stroke-width="2" d="M 304.9,20 304.9,20.7 304.9,21.4 305.1,22.1 305.2,22.8 305.5,23.4 305.8,24 306.1,24.6 306.5,25.2 307,25.8 307.5,26.2 308,26.7 308.6,27.1 309.2,27.4 309.8,27.7 310.5,28 311.1,28.2 311.8,28.3 312.5,28.3 313.2,28.3 313.9,28.3 314.6,28.2 315.3,28 315.9,27.7 316.6,27.4 317.2,27.1 317.7,26.7 318.3,26.2 318.8,25.8 319.2,25.2 319.6,24.6 320,24 320.3,23.4 320.5,22.8 320.7,22.1 320.8,21.4 320.9,20.7" />
<path stroke="#000000" stroke-width="2" d="M 327.5,70" />
<path stroke="#000000" stroke-width="2" d="M 327.5,40 335.2,21.5 342.8,40" />
<path stroke="#000000" stroke-width="2" d="M 349.5,70" />
<path stroke="#000000" stroke-width="2" d="M 354.5,20 349.5,20 349.5,40" />
<path stroke="#000000" stroke-width="2" d="M 361.2,70" />
<path stroke="#000000" stroke-width="2" d="M 363.2,40 368.5,27.1 368.7,26.7 368.8,26.4 368.8,26.1 368.9,25.7 368.9,25.4 368.9,25 368.8,24.7 368.8,24.3 368.7,24 368.5,23.7 368.4,23.4 368.2,23.1 368,22.8 367.7,22.5 367.5,22.3 367.2,22.1 366.9,21.9 366.6,21.7 366.3,21.6 365.9,21.5 365.6,21.4 365.3,21.4 364.9,21.4 364.6,21.4 364.2,21.4 363.9,21.5 363.5,21.6 363.2,21.7 362.9,21.9 362.6,22.1 362.3,22.3 362.1,22.5 361.8,22.8 361.6,23.1 361.4,23.4 361.3,23.7 361.1,24 361,24.3 361,24.7 360.9,25 360.9,25.4 360.9,25.7 361,26.1 361,26.4 361.1,26.7 361.3,27.1 361.4,27.4 361.6,27.7 361.8,27.9 362.1,28.2 362.3,28.4 362.6,28.7 362.9,28.8 363.2,29 363.5,29.1 363.9,29.2 364.2,29.3 364.6,29.4 364.9,29.4 365.3,29.4 378.2,24" />
<path stroke="#000000" stroke-width="2" d="M 384.9,70" />
</svg>