<svg xmlns="http://www.w3.org/2000/svg" width="565.3459046683312" height="60.48879532511287" style="fill:none; stroke-linecap:round;">
    <rect width="100%" height="100%" fill="#FFFFFF" />
<path stroke="#000000" stroke-width="2" d="M 300,50" />
<path stroke="#000000" stroke-width="2" d="M 30,40 30.9,40 31.7,39.9 32.6,39.8 33.4,39.5 34.3,39.2 35.1,38.9 35.8,38.4 36.5,37.9 37.2,37.4 37.8,36.8 38.4,36.1 38.9,35.4 39.3,34.6 39.7,33.8 40,33 40.2,32.2 40.4,31.3 40.4,30.4 40.4,29.6 40.4,28.7 40.2,27.8 40,27 39.7,26.2 39.3,25.4 38.9,24.6 38.4,23.9 37.8,23.3 37.2,22.6 36.5,22.1 35.8,21.6 35.1,21.1 34.3,20.8 33.4,20.5 32.6,20.2 31.7,20.1 30.9,20 30,20 29.1,20.1 28.3,20.2 27.4,20.5 26.6,20.8 25.8,21.1 25.1,21.6 24.3,22.1 23.7,22.6 23.1,23.3 22.5,23.9 22,24.6 21.6,25.4 21.2,26.2 20.9,27 20.7,27.8 20.5,28.7 20.4,29.6 20.4,30.4 20.5,31.3 20.7,32.2 20.9,33 21.2,33.8 21.6,34.6 22,35.4 22.5,36.1 23.1,36.8 23.7,37.4 24.3,37.9 25.1,38.4 25.8,38.9 26.6,39.2 27.4,39.5 28.3,39.8 29.1,39.9 30,40" />
<path stroke="#000000" stroke-width="2" d="M 47.1,70" />
<path stroke="#000000" stroke-width="2" d="M 49.1,40 54.5,27.1 54.6,26.7 54.7,26.4 54.8,26.1 54.8,25.7 54.8,25.4 54.8,25 54.8,24.7 54.7,24.3 54.6,24 54.5,23.7 54.3,23.4 54.1,23.1 53.9,22.8 53.7,22.5 53.4,22.3 53.1,22.1 52.8,21.9 52.5,21.7 52.2,21.6 51.9,21.5 51.5,21.4 51.2,21.4 50.8,21.4 50.5,21.4 50.1,21.4 49.8,21.5 49.5,21.6 49.1,21.7 48.8,21.9 48.5,22.1 48.3,22.3 48,22.5 47.8,22.8 47.5,23.1 47.4,23.4 47.2,23.7 47.1,24 47,24.3 46.9,24.7 46.8,25 46.8,25.4 46.8,25.7 46.9,26.1 47,26.4 47.1,26.7 47.2,27.1 47.4,27.4 47.5,27.7 47.8,27.9 48,28.2 48.3,28.4 48.5,28.7 48.8,28.8 49.1,29 49.5,29.1 49.8,29.2 50.1,29.3 50.5,29.4 50.8,29.4 51.2,29.4 64.1,24" />
<path stroke="#000000" stroke-width="2" d="M 70.8,70" />
<path stroke="#000000" stroke-width="2" d="M 94.1,70" />
<path stroke="#000000" stroke-width="2" d="M 102.1,25" />
<path stroke="#000000" stroke-width="2" d="M 102.1,25 100.1,24.9 98.5,24.6 97.2,24.1 96.3,23.6 95.8,22.9 95.5,22.2 95.5,21.4 95.6,20.7 96,20 96.5,19.4 97.1,18.9 97.8,18.5 98.5,18.3 99.3,18.4 100,18.7 100.7,19.2 101.2,20.1 101.7,21.4 102,23 102.1,25 102.1,40" />
<path stroke="#000000" stroke-width="2" d="M 108.8,70" />
<path stroke="#000000" stroke-width="2" d="M 108.8,20 112.6,29.2" />
<path stroke="#000000" stroke-width="2" d="M 112.6,29.2 114.5,31.4 115.8,33.3 116.6,35 116.9,36.4 116.8,37.7 116.4,38.7 115.7,39.5 114.8,40 113.7,40.4 112.6,40.5 111.5,40.4 110.4,40 109.5,39.5 108.8,38.7 108.4,37.7 108.3,36.4 108.6,35 109.4,33.3 110.7,31.4 112.6,29.2 116.4,20" />
<path stroke="#000000" stroke-width="2" d="M 123.6,70" />
<path stroke="#000000" stroke-width="2" d="M 123.6,20 123.6,40 133.6,40" />
<path stroke="#000000" stroke-width="2" d="M 140.3,70" />
<path stroke="#000000" stroke-width="2" d="M 145.3,20 140.3,20 140.3,40" />
<path stroke="#000000" stroke-width="2" d="M 151.9,70" />
<path stroke="#000000" stroke-width="2" d="M 151.9,40 151.9,39.3 152,38.6 152.1,37.9 152.3,37.2 152.5,36.6 152.8,36 153.2,35.4 153.6,34.8 154,34.2 154.5,33.8 155,33.3 155.6,32.9 156.2,32.6 156.9,32.3 157.5,32 158.2,31.8 158.9,31.7 159.6,31.7 160.3,31.7 161,31.7 161.6,31.8 162.3,32 163,32.3 163.6,32.6 164.2,32.9 164.8,33.3 165.3,33.8 165.8,34.2 166.3,34.8 166.7,35.4 167,36 167.3,36.6 167.5,37.2 167.7,37.9 167.8,38.6 167.9,39.3" />
<path stroke="#000000" stroke-width="2" d="M 174.6,70" />
<path stroke="#000000" stroke-width="2" d="M 197.9,70" />
<path stroke="#000000" stroke-width="2" d="M 202.9,20 197.9,20 197.9,40" />
<path stroke="#000000" stroke-width="2" d="M 209.6,70" />
<path stroke="#000000" stroke-width="2" d="M 209.6,20 213.4,29.2" />
<path stroke="#000000" stroke-width="2" d="M 213.4,29.2 215.3,31.4 216.6,33.3 217.4,35 217.7,36.4 217.6,37.7 217.2,38.7 216.5,39.5 215.6,40 214.5,40.4 213.4,40.5 212.3,40.4 211.2,40 210.3,39.5 209.6,38.7 209.2,37.7 209.1,36.4 209.4,35 210.2,33.3 211.5,31.4 213.4,29.2 217.2,20" />
<path stroke="#000000" stroke-width="2" d="M 224.4,70" />
<path stroke="#000000" stroke-width="2" d="M 234.4,20 226.7,38.5" />
<path stroke="#000000" stroke-width="2" d="M 241.1,70" />
<path stroke="#000000" stroke-width="2" d="M 243.1,40 248.4,27.1 248.5,26.7 248.6,26.4 248.7,26.1 248.8,25.7 248.8,25.4 248.8,25 248.7,24.7 248.6,24.3 248.5,24 248.4,23.7 248.3,23.4 248.1,23.1 247.9,22.8 247.6,22.5 247.4,22.3 247.1,22.1 246.8,21.9 246.5,21.7 246.2,21.6 245.8,21.5 245.5,21.4 245.1,21.4 244.8,21.4 244.4,21.4 244.1,21.4 243.8,21.5 243.4,21.6 243.1,21.7 242.8,21.9 242.5,22.1 242.2,22.3 242,22.5 241.7,22.8 241.5,23.1 241.3,23.4 241.2,23.7 241,24 240.9,24.3 240.8,24.7 240.8,25 240.8,25.4 240.8,25.7 240.8,26.1 240.9,26.4 241,26.7 241.2,27.1 241.3,27.4 241.5,27.7 241.7,27.9 242,28.2 242.2,28.4 242.5,28.7 242.8,28.8 243.1,29 243.4,29.1 243.8,29.2 244.1,29.3 244.4,29.4 244.8,29.4 245.1,29.4 258.1,24" />
<path stroke="#000000" stroke-width="2" d="M 264.7,70" />
<path stroke="#000000" stroke-width="2" d="M 288.1,70" />
<path stroke="#000000" stroke-width="2" d="M 288.1,20 291.9,29.2" />
<path stroke="#000000" stroke-width="2" d="M 291.9,29.2 293.8,31.4 295.1,33.3 295.9,35 296.2,36.4 296.1,37.7 295.7,38.7 295,39.5 294.1,40 293,40.4 291.9,40.5 290.8,40.4 289.7,40 288.8,39.5 288.1,38.7 287.7,37.7 287.6,36.4 287.9,35 288.7,33.3 290,31.4 291.9,29.2 295.7,20" />
<path stroke="#000000" stroke-width="2" d="M 302.9,70" />
<path stroke="#000000" stroke-width="2" d="M 302.9,20 322.9,20" />
<path stroke="#000000" stroke-width="2" d="M 329.5,70" />
<path stroke="#000000" stroke-width="2" d="M 329.5,20 329.5,40 339.5,40" />
<path stroke="#000000" stroke-width="2" d="M 346.2,70" />
<path stroke="#000000" stroke-width="2" d="M 351.2,20 346.2,20 346.2,40" />
<path stroke="#000000" stroke-width="2" d="M 357.9,70" />
<path stroke="#000000" stroke-width="2" d="M 367.9,20 367,20 366.1,20.1 365.3,20.2 364.4,20.5 363.6,20.8 362.8,21.1 362.1,21.6 361.4,22.1 360.7,22.6 360.1,23.2 359.5,23.9 359,24.6 358.6,25.4 358.2,26.2 357.9,27 357.7,27.8 357.5,28.7 357.5,29.6 357.5,30.4 357.5,31.3 357.7,32.2 357.9,33 358.2,33.8 358.6,34.6 359,35.4 359.5,36.1 360.1,36.7 360.7,37.4 361.4,37.9 362.1,38.4 362.8,38.9 363.6,39.2 364.4,39.5 365.3,39.8 366.1,39.9 367,40" />
<path stroke="#000000" stroke-width="2" d="M 374.5,70" />
<path stroke="#000000" stroke-width="2" d="M 374.5,20 374.5,40 374.5,34 374.5,33.1 374.6,32.3 374.8,31.4 375,30.6 375.3,29.7 375.7,28.9 376.1,28.2 376.6,27.5 377.2,26.8 377.8,26.2 378.5,25.6 379.2,25.1 379.9,24.7 380.7,24.3 381.5,24 382.4,23.8 383.2,23.6 384.1,23.6" />
<path stroke="#000000" stroke-width="2" d="M 390.8,70" />
<path stroke="#000000" stroke-width="2" d="M 390.8,20 410.8,20" />
<path stroke="#000000" stroke-width="2" d="M 417.4,70" />
<path stroke="#000000" stroke-width="2" d="M 440.8,70" />
<path stroke="#000000" stroke-width="2" d="M 450.8,20 450.8,40 440.8,40" />
<path stroke="#000000" stroke-width="2" d="M 457.4,70" />
<path stroke="#000000" stroke-width="2" d="M 457.4,20 461.3,29.2" />
<path stroke="#000000" stroke-width="2" d="M 461.3,29.2 463.2,31.4 464.5,33.3 465.3,35 465.6,36.4 465.5,37.7 465,38.7 464.3,39.5 463.4,40 462.4,40.4 461.3,40.5 460.1,40.4 459.1,40 458.2,39.5 457.5,38.7 457,37.7 456.9,36.4 457.2,35 458,33.3 459.3,31.4 461.3,29.2 465.1,20" />
<path stroke="#000000" stroke-width="2" d="M 472.3,70" />
<path stroke="#000000" stroke-width="2" d="M 472.3,20 479.9,38.5" />
<path stroke="#000000" stroke-width="2" d="M 486.6,70" />
<path stroke="#000000" stroke-width="2" d="M 494.6,20" />
<path stroke="#000000" stroke-width="2" d="M 494.6,20 494.5,22 494.2,23.6 493.7,24.9 493.1,25.8 492.5,26.3 491.7,26.6 491,26.7 490.3,26.5 489.6,26.1 488.9,25.6 488.4,25 488.1,24.3 487.9,23.6 488,22.8 488.2,22.1 488.8,21.4 489.7,20.9 490.9,20.4 492.5,20.1 494.6,20 504.6,20" />
<path stroke="#000000" stroke-width="2" d="M 511.2,70" />
<path stroke="#000000" stroke-width="2" d="M 513.2,40 518.6,27.1 518.7,26.7 518.8,26.4 518.9,26.1 519,25.7 519,25.4 519,25 518.9,24.7 518.8,24.3 518.7,24 518.6,23.7 518.4,23.4 518.2,23.1 518,22.8 517.8,22.5 517.5,22.3 517.3,22.1 517,21.9 516.7,21.7 516.3,21.6 516,21.5 515.7,21.4 515.3,21.4 515,21.4 514.6,21.4 514.3,21.4 513.9,21.5 513.6,21.6 513.3,21.7 513,21.9 512.7,22.1 512.4,22.3 512.1,22.5 511.9,22.8 511.7,23.1 511.5,23.4 511.3,23.7 511.2,24 511.1,24.3 511,24.7 511,25 511,25.4 511,25.7 511,26.1 511.1,26.4 511.2,26.7 511.3,27.1 511.5,27.4 511.7,27.7 511.9,27.9 512.1,28.2 512.4,28.4 512.7,28.7 513,28.8 513.3,29 513.6,29.1 513.9,29.2 514.3,29.3 514.6,29.4 515,29.4 515.3,29.4 528.3,24" />
<path stroke="#000000" stroke-width="2" d="M 534.9,70" />
<path stroke="#000000" stroke-width="2" d="M 534.9,20 535.8,20 536.7,20.1 537.5,20.2 538.4,20.5 539.2,20.8 540,21.1 540.7,21.6 541.4,22.1 542.1,22.6 542.7,23.2 543.3,23.9 543.8,24.6 544.2,25.4 544.6,26.2 544.9,27 545.1,27.8 545.3,28.7 545.3,29.6 545.3,30.4 545.3,31.3 545.1,32.2 544.9,33 544.6,33.8 544.2,34.6 543.8,35.4 543.3,36.1 542.7,36.7 542.1,37.4 541.4,37.9 540.7,38.4 540,38.9 539.2,39.2 538.4,39.5 537.5,39.8 536.7,39.9 535.8,40" />
<path stroke="#000000" stroke-width="2" d="M 552,70" />
</svg>