<svg xmlns="http://www.w3.org/2000/svg" width="472.96262651992595" height="60.0" style="fill:none; stroke-linecap:round;">
    <rect width="100%" height="100%" fill="#FFFFFF" />
<path stroke="#000000" stroke-width="2" d="M 300,50" />
<path stroke="#000000" stroke-width="2" d="M 30,20 29.1,20 28.3,20.1 27.4,20.2 26.6,20.5 25.7,20.8 24.9,21.1 24.2,21.6 23.5,22.1 22.8,22.6 22.2,23.2 21.6,23.9 21.1,24.6 20.7,25.4 20.3,26.2 20,27 19.8,27.8 19.6,28.7 19.6,29.6 19.6,30.4 19.6,31.3 19.8,32.2 20,33 20.3,33.8 20.7,34.6 21.1,35.4 21.6,36.1 22.2,36.7 22.8,37.4 23.5,37.9 24.2,38.4 24.9,38.9 25.7,39.2 26.6,39.5 27.4,39.8 28.3,39.9 29.1,40" />
<path stroke="#000000" stroke-width="2" d="M 36.7,70" />
<path stroke="#000000" stroke-width="2" d="M 36.7,20 44.3,38.5 52,20" />
<path stroke="#000000" stroke-width="2" d="M 58.6,70" />
<path stroke="#000000" stroke-width="2" d="M 60.6,40 66,27.1 66.1,26.7 66.2,26.4 66.3,26.1 66.4,25.7 66.4,25.4 66.4,25 66.3,24.7 66.2,24.3 66.1,24 66,23.7 65.8,23.4 65.6,23.1 65.4,22.8 65.2,22.5 64.9,22.3 64.7,22.1 64.4,21.9 64.1,21.7 63.7,21.6 63.4,21.5 63.1,21.4 62.7,21.4 62.4,21.4 62,21.4 61.7,21.4 61.3,21.5 61,21.6 60.7,21.7 60.4,21.9 60.1,22.1 59.8,22.3 59.5,22.5 59.3,22.8 59.1,23.1 58.9,23.4 58.7,23.7 58.6,24 58.5,24.3 58.4,24.7 58.4,25 58.4,25.4 58.4,25.7 58.4,26.1 58.5,26.4 58.6,26.7 58.7,27.1 58.9,27.4 59.1,27.7 59.3,27.9 59.5,28.2 59.8,28.4 60.1,28.7 60.4,28.8 60.7,29 61,29.1 61.3,29.2 61.7,29.3 62,29.4 62.4,29.4 62.7,29.4 75.7,24" />
<path stroke="#000000" stroke-width="2" d="M 82.3,70" />
<path stroke="#000000" stroke-width="2" d="M 82.3,20 82.3,40 82.3,34 82.3,33.1 82.4,32.3 82.6,31.4 82.8,30.6 83.1,29.7 83.4,28.9 83.9,28.2 84.4,27.5 84.9,26.8 85.6,26.2 86.2,25.6 86.9,25.1 87.7,24.7 88.5,24.3 89.3,24 90.1,23.8 91,23.6 91.9,23.6" />
<path stroke="#000000" stroke-width="2" d="M 98.5,70" />
<path stroke="#000000" stroke-width="2" d="M 121.9,70" />
<path stroke="#000000" stroke-width="2" d="M 131.9,40 132.7,40 133.6,39.9 134.5,39.8 135.3,39.5 136.1,39.2 136.9,38.9 137.7,38.4 138.4,37.9 139.1,37.4 139.7,36.8 140.2,36.1 140.7,35.4 141.2,34.6 141.6,33.8 141.9,33 142.1,32.2 142.2,31.3 142.3,30.4 142.3,29.6 142.2,28.7 142.1,27.8 141.9,27 141.6,26.2 141.2,25.4 140.7,24.6 140.2,23.9 139.7,23.3 139.1,22.6 138.4,22.1 137.7,21.6 136.9,21.1 136.1,20.8 135.3,20.5 134.5,20.2 133.6,20.1 132.7,20 131.9,20 131,20.1 130.1,20.2 129.3,20.5 128.5,20.8 127.7,21.1 126.9,21.6 126.2,22.1 125.6,22.6 124.9,23.3 124.4,23.9 123.9,24.6 123.4,25.4 123.1,26.2 122.8,27 122.6,27.8 122.4,28.7 122.3,29.6 122.3,30.4 122.4,31.3 122.6,32.2 122.8,33 123.1,33.8 123.4,34.6 123.9,35.4 124.4,36.1 124.9,36.8 125.6,37.4 126.2,37.9 126.9,38.4 127.7,38.9 128.5,39.2 129.3,39.5 130.1,39.8 131,39.9 131.9,40" />
<path stroke="#000000" stroke-width="2" d="M 149,70" />
<path stroke="#000000" stroke-width="2" d="M 151,40 156.3,27.1 156.5,26.7 156.6,26.4 156.6,26.1 156.7,25.7 156.7,25.4 156.7,25 156.6,24.7 156.6,24.3 156.5,24 156.3,23.7 156.2,23.4 156,23.1 155.8,22.8 155.5,22.5 155.3,22.3 155,22.1 154.7,21.9 154.4,21.7 154.1,21.6 153.7,21.5 153.4,21.4 153.1,21.4 152.7,21.4 152.4,21.4 152,21.4 151.7,21.5 151.3,21.6 151,21.7 150.7,21.9 150.4,22.1 150.1,22.3 149.9,22.5 149.6,22.8 149.4,23.1 149.2,23.4 149.1,23.7 148.9,24 148.8,24.3 148.8,24.7 148.7,25 148.7,25.4 148.7,25.7 148.8,26.1 148.8,26.4 148.9,26.7 149.1,27.1 149.2,27.4 149.4,27.7 149.6,27.9 149.9,28.2 150.1,28.4 150.4,28.7 150.7,28.8 151,29 151.3,29.1 151.7,29.2 152,29.3 152.4,29.4 152.7,29.4 153.1,29.4 166,24" />
<path stroke="#000000" stroke-width="2" d="M 172.7,70" />
<path stroke="#000000" stroke-width="2" d="M 196,70" />
<path stroke="#000000" stroke-width="2" d="M 196,20 196,20.7 196,21.4 196.2,22.1 196.3,22.8 196.6,23.4 196.9,24 197.2,24.6 197.6,25.2 198.1,25.8 198.6,26.2 199.1,26.7 199.7,27.1 200.3,27.4 200.9,27.7 201.6,28 202.2,28.2 202.9,28.3 203.6,28.3 204.3,28.3 205,28.3 205.7,28.2 206.4,28 207,27.7 207.7,27.4 208.3,27.1 208.8,26.7 209.4,26.2 209.9,25.8 210.3,25.2 210.7,24.6 211.1,24 211.4,23.4 211.6,22.8 211.8,22.1 211.9,21.4 212,20.7" />
<path stroke="#000000" stroke-width="2" d="M 218.6,70" />
<path stroke="#000000" stroke-width="2" d="M 218.6,40 226.3,21.5 233.9,40" />
<path stroke="#000000" stroke-width="2" d="M 240.6,70" />
<path stroke="#000000" stroke-width="2" d="M 240.6,20 260.6,20 240.8,39.8 260.8,39.8" />
<path stroke="#000000" stroke-width="2" d="M 267.5,70" />
<path stroke="#000000" stroke-width="2" d="M 269.5,20 278,28.5" />
<path stroke="#000000" stroke-width="2" d="M 286.4,20 266.7,39.8" />
<path stroke="#000000" stroke-width="2" d="M 293.1,70" />
<path stroke="#000000" stroke-width="2" d="M 316.4,70" />
<path stroke="#000000" stroke-width="2" d="M 316.4,20 316.4,24 316.4,24.5 316.5,25 316.6,25.6 316.7,26.1 316.9,26.6 317.1,27 317.4,27.5 317.7,27.9 318,28.3 318.4,28.7 318.8,29 319.2,29.3 319.7,29.6 320.1,29.8 320.6,30 321.1,30.1 321.7,30.2 322.2,30.3 322.7,30.3 323.2,30.2 323.7,30.1 324.2,30 324.7,29.8 325.2,29.6 325.7,29.3 326.1,29 326.5,28.7 326.9,28.3 327.2,27.9 327.5,27.5 327.8,27 328,26.6 328.2,26.1 328.3,25.6 328.4,25 328.4,24.5 328.4,19.5 328.4,39.5" />
<path stroke="#000000" stroke-width="2" d="M 335.1,70" />
<path stroke="#000000" stroke-width="2" d="M 335.1,20 335.1,40 335.1,34 335.1,33.1 335.2,32.3 335.3,31.4 335.6,30.6 335.9,29.7 336.2,28.9 336.7,28.2 337.2,27.5 337.7,26.8 338.3,26.2 339,25.6 339.7,25.1 340.5,24.7 341.3,24.3 342.1,24 342.9,23.8 343.8,23.6 344.7,23.6" />
<path stroke="#000000" stroke-width="2" d="M 351.3,70" />
<path stroke="#000000" stroke-width="2" d="M 353.3,20 361.8,28.5" />
<path stroke="#000000" stroke-width="2" d="M 370.3,20 350.5,39.8" />
<path stroke="#000000" stroke-width="2" d="M 377,70" />
<path stroke="#000000" stroke-width="2" d="M 385,20" />
<path stroke="#000000" stroke-width="2" d="M 385,20 384.9,22 384.6,23.6 384.1,24.9 383.5,25.8 382.9,26.3 382.1,26.6 381.4,26.7 380.6,26.5 380,26.1 379.3,25.6 378.8,25 378.5,24.3 378.3,23.6 378.3,22.8 378.6,22.1 379.2,21.4 380.1,20.9 381.3,20.4 382.9,20.1 385,20 395,20" />
<path stroke="#000000" stroke-width="2" d="M 401.6,70" />
<path stroke="#000000" stroke-width="2" d="M 409.6,20 399.7,29.9 409.6,39.8" />
<path stroke="#000000" stroke-width="2" d="M 416.3,70" />
<path stroke="#000000" stroke-width="2" d="M 426.3,20 425.4,20 424.6,20.1 423.7,20.2 422.9,20.5 422,20.8 421.2,21.1 420.5,21.6 419.8,22.1 419.1,22.6 418.5,23.2 417.9,23.9 417.4,24.6 417,25.4 416.6,26.2 416.3,27 416.1,27.8 415.9,28.7 415.9,29.6 415.9,30.4 415.9,31.3 416.1,32.2 416.3,33 416.6,33.8 417,34.6 417.4,35.4 417.9,36.1 418.5,36.7 419.1,37.4 419.8,37.9 420.5,38.4 421.2,38.9 422,39.2 422.9,39.5 423.7,39.8 424.6,39.9 425.4,40" />
<path stroke="#000000" stroke-width="2" d="M 433,70" />
<path stroke="#000000" stroke-width="2" d="M 433,20 453,20" />
<path stroke="#000000" stroke-width="2" d="M 459.6,70" />
</svg>