<svg xmlns="http://www.w3.org/2000/svg" width="682.5978179153894" height="60.48879532511287" style="fill:none; stroke-linecap:round;">
    <rect width="100%" height="100%" fill="#FFFFFF" />
<path stroke="#000000" stroke-width="2" d="M 300,50" />
<path stroke="#000000" stroke-width="2" d="M 30,40 30.9,40 31.7,39.9 32.6,39.8 33.4,39.5 34.3,39.2 35.1,38.9 35.8,38.4 36.5,37.9 37.2,37.4 37.8,36.8 38.4,36.1 38.9,35.4 39.3,34.6 39.7,33.8 40,33 40.2,32.2 40.4,31.3 40.4,30.4 40.4,29.6 40.4,28.7 40.2,27.8 40,27 39.7,26.2 39.3,25.4 38.9,24.6 38.4,23.9 37.8,23.3 37.2,22.6 36.5,22.1 35.8,21.6 35.1,21.1 34.3,20.8 33.4,20.5 32.6,20.2 31.7,20.1 30.9,20 30,20 29.1,20.1 28.3,20.2 27.4,20.5 26.6,20.8 25.8,21.1 25.1,21.6 24.3,22.1 23.7,22.6 23.1,23.3 22.5,23.9 22,24.6 21.6,25.4 21.2,26.2 20.9,27 20.7,27.8 20.5,28.7 20.4,29.6 20.4,30.4 20.5,31.3 20.7,32.2 20.9,33 21.2,33.8 21.6,34.6 22,35.4 22.5,36.1 23.1,36.8 23.7,37.4 24.3,37.9 25.1,38.4 25.8,38.9 26.6,39.2 27.4,39.5 28.3,39.8 29.1,39.9 30,40" />
<path stroke="#000000" stroke-width="2" d="M 47.1,70" />
<path stroke="#000000" stroke-width="2" d="M 49.1,40 54.5,27.1 54.6,26.7 54.7,26.4 54.8,26.1 54.8,25.7 54.8,25.4 54.8,25 54.8,24.7 54.7,24.3 54.6,24 54.5,23.7 54.3,23.4 54.1,23.1 53.9,22.8 53.7,22.5 53.4,22.3 53.1,22.1 52.8,21.9 52.5,21.7 52.2,21.6 51.9,21.5 51.5,21.4 51.2,21.4 50.8,21.4 50.5,21.4 50.1,21.4 49.8,21.5 49.5,21.6 49.1,21.7 48.8,21.9 48.5,22.1 48.3,22.3 48,22.5 47.8,22.8 47.5,23.1 47.4,23.4 47.2,23.7 47.1,24 47,24.3 46.9,24.7 46.8,25 46.8,25.4 46.8,25.7 46.9,26.1 47,26.4 47.1,26.7 47.2,27.1 47.4,27.4 47.5,27.7 47.8,27.9 48,28.2 48.3,28.4 48.5,28.7 48.8,28.8 49.1,29 49.5,29.1 49.8,29.2 50.1,29.3 50.5,29.4 50.8,29.4 51.2,29.4 64.1,24" />
<path stroke="#000000" stroke-width="2" d="M 70.8,70" />
<path stroke="#000000" stroke-width="2" d="M 94.1,70" />
<path stroke="#000000" stroke-width="2" d="M 94.1,20 104,29.9 94.1,39.8" />
<path stroke="#000000" stroke-width="2" d="M 110.7,70" />
<path stroke="#000000" stroke-width="2" d="M 112.7,40 118,27.1 118.2,26.7 118.3,26.4 118.3,26.1 118.4,25.7 118.4,25.4 118.4,25 118.3,24.7 118.3,24.3 118.2,24 118,23.7 117.9,23.4 117.7,23.1 117.5,22.8 117.2,22.5 117,22.3 116.7,22.1 116.4,21.9 116.1,21.7 115.8,21.6 115.4,21.5 115.1,21.4 114.8,21.4 114.4,21.4 114.1,21.4 113.7,21.4 113.4,21.5 113,21.6 112.7,21.7 112.4,21.9 112.1,22.1 111.8,22.3 111.6,22.5 111.3,22.8 111.1,23.1 110.9,23.4 110.8,23.7 110.6,24 110.5,24.3 110.5,24.7 110.4,25 110.4,25.4 110.4,25.7 110.5,26.1 110.5,26.4 110.6,26.7 110.8,27.1 110.9,27.4 111.1,27.7 111.3,27.9 111.6,28.2 111.8,28.4 112.1,28.7 112.4,28.8 112.7,29 113,29.1 113.4,29.2 113.7,29.3 114.1,29.4 114.4,29.4 114.8,29.4 127.7,24" />
<path stroke="#000000" stroke-width="2" d="M 134.4,70" />
<path stroke="#000000" stroke-width="2" d="M 136.4,40 141.7,27.1 141.8,26.7 142,26.4 142,26.1 142.1,25.7 142.1,25.4 142.1,25 142,24.7 142,24.3 141.8,24 141.7,23.7 141.6,23.4 141.4,23.1 141.2,22.8 140.9,22.5 140.7,22.3 140.4,22.1 140.1,21.9 139.8,21.7 139.5,21.6 139.1,21.5 138.8,21.4 138.4,21.4 138.1,21.4 137.7,21.4 137.4,21.4 137.1,21.5 136.7,21.6 136.4,21.7 136.1,21.9 135.8,22.1 135.5,22.3 135.3,22.5 135,22.8 134.8,23.1 134.6,23.4 134.5,23.7 134.3,24 134.2,24.3 134.1,24.7 134.1,25 134.1,25.4 134.1,25.7 134.1,26.1 134.2,26.4 134.3,26.7 134.5,27.1 134.6,27.4 134.8,27.7 135,27.9 135.3,28.2 135.5,28.4 135.8,28.7 136.1,28.8 136.4,29 136.7,29.1 137.1,29.2 137.4,29.3 137.7,29.4 138.1,29.4 138.4,29.4 151.4,24" />
<path stroke="#000000" stroke-width="2" d="M 158,70" />
<path stroke="#000000" stroke-width="2" d="M 158,20 158,40 158,34 158,33.1 158.1,32.3 158.3,31.4 158.5,30.6 158.8,29.7 159.2,28.9 159.6,28.2 160.1,27.5 160.7,26.8 161.3,26.2 161.9,25.6 162.7,25.1 163.4,24.7 164.2,24.3 165,24 165.9,23.8 166.7,23.6 167.6,23.6" />
<path stroke="#000000" stroke-width="2" d="M 174.3,70" />
<path stroke="#000000" stroke-width="2" d="M 176.3,20 184.7,28.5" />
<path stroke="#000000" stroke-width="2" d="M 193.2,20 173.4,39.8" />
<path stroke="#000000" stroke-width="2" d="M 199.9,70" />
<path stroke="#000000" stroke-width="2" d="M 223.2,70" />
<path stroke="#000000" stroke-width="2" d="M 223.2,40 230.9,21.5 238.5,40" />
<path stroke="#000000" stroke-width="2" d="M 245.2,70" />
<path stroke="#000000" stroke-width="2" d="M 245.2,20 265.2,20" />
<path stroke="#000000" stroke-width="2" d="M 271.9,70" />
<path stroke="#000000" stroke-width="2" d="M 271.9,20 272.7,20 273.6,20.1 274.5,20.2 275.3,20.5 276.1,20.8 276.9,21.1 277.7,21.6 278.4,22.1 279.1,22.6 279.7,23.2 280.2,23.9 280.7,24.6 281.2,25.4 281.5,26.2 281.8,27 282.1,27.8 282.2,28.7 282.3,29.6 282.3,30.4 282.2,31.3 282.1,32.2 281.8,33 281.5,33.8 281.2,34.6 280.7,35.4 280.2,36.1 279.7,36.7 279.1,37.4 278.4,37.9 277.7,38.4 276.9,38.9 276.1,39.2 275.3,39.5 274.5,39.8 273.6,39.9 272.7,40" />
<path stroke="#000000" stroke-width="2" d="M 289,70" />
<path stroke="#000000" stroke-width="2" d="M 312.3,70" />
<path stroke="#000000" stroke-width="2" d="M 312.3,20 313.2,20 314,20.1 314.9,20.2 315.7,20.5 316.6,20.8 317.4,21.1 318.1,21.6 318.8,22.1 319.5,22.6 320.1,23.2 320.7,23.9 321.2,24.6 321.6,25.4 322,26.2 322.3,27 322.5,27.8 322.6,28.7 322.7,29.6 322.7,30.4 322.6,31.3 322.5,32.2 322.3,33 322,33.8 321.6,34.6 321.2,35.4 320.7,36.1 320.1,36.7 319.5,37.4 318.8,37.9 318.1,38.4 317.4,38.9 316.6,39.2 315.7,39.5 314.9,39.8 314,39.9 313.2,40" />
<path stroke="#000000" stroke-width="2" d="M 329.4,70" />
<path stroke="#000000" stroke-width="2" d="M 329.4,20 333.2,29.2" />
<path stroke="#000000" stroke-width="2" d="M 333.2,29.2 335.1,31.4 336.5,33.3 337.2,35 337.5,36.4 337.4,37.7 337,38.7 336.3,39.5 335.4,40 334.3,40.4 333.2,40.5 332.1,40.4 331.1,40 330.1,39.5 329.4,38.7 329,37.7 328.9,36.4 329.2,35 330,33.3 331.3,31.4 333.2,29.2 337,20" />
<path stroke="#000000" stroke-width="2" d="M 344.2,70" />
<path stroke="#000000" stroke-width="2" d="M 354.2,20 346.6,38.5" />
<path stroke="#000000" stroke-width="2" d="M 360.9,70" />
<path stroke="#000000" stroke-width="2" d="M 360.9,20 360.9,40 370.9,40" />
<path stroke="#000000" stroke-width="2" d="M 377.5,70" />
<path stroke="#000000" stroke-width="2" d="M 377.5,20 382.5,20 382.5,40" />
<path stroke="#000000" stroke-width="2" d="M 389.2,70" />
<path stroke="#000000" stroke-width="2" d="M 389.2,20 393,29.2" />
<path stroke="#000000" stroke-width="2" d="M 393,29.2 395,31.4 396.3,33.3 397,35 397.4,36.4 397.2,37.7 396.8,38.7 396.1,39.5 395.2,40 394.1,40.4 393,40.5 391.9,40.4 390.9,40 390,39.5 389.3,38.7 388.8,37.7 388.7,36.4 389,35 389.8,33.3 391.1,31.4 393,29.2 396.9,20" />
<path stroke="#000000" stroke-width="2" d="M 404,70" />
<path stroke="#000000" stroke-width="2" d="M 404,20 404,20.7 404.1,21.4 404.2,22.1 404.4,22.8 404.6,23.4 404.9,24 405.3,24.6 405.7,25.2 406.1,25.8 406.6,26.2 407.1,26.7 407.7,27.1 408.3,27.4 408.9,27.7 409.6,28 410.3,28.2 411,28.3 411.7,28.3 412.4,28.3 413.1,28.3 413.7,28.2 414.4,28 415.1,27.7 415.7,27.4 416.3,27.1 416.9,26.7 417.4,26.2 417.9,25.8 418.4,25.2 418.8,24.6 419.1,24 419.4,23.4 419.6,22.8 419.8,22.1 419.9,21.4 420,20.7" />
<path stroke="#000000" stroke-width="2" d="M 426.7,70" />
<path stroke="#000000" stroke-width="2" d="M 450,70" />
<path stroke="#000000" stroke-width="2" d="M 452,40 457.4,27.1 457.5,26.7 457.6,26.4 457.7,26.1 457.7,25.7 457.7,25.4 457.7,25 457.7,24.7 457.6,24.3 457.5,24 457.4,23.7 457.2,23.4 457,23.1 456.8,22.8 456.6,22.5 456.3,22.3 456,22.1 455.7,21.9 455.4,21.7 455.1,21.6 454.8,21.5 454.4,21.4 454.1,21.4 453.7,21.4 453.4,21.4 453,21.4 452.7,21.5 452.4,21.6 452,21.7 451.7,21.9 451.4,22.1 451.2,22.3 450.9,22.5 450.7,22.8 450.5,23.1 450.3,23.4 450.1,23.7 450,24 449.9,24.3 449.8,24.7 449.8,25 449.7,25.4 449.8,25.7 449.8,26.1 449.9,26.4 450,26.7 450.1,27.1 450.3,27.4 450.5,27.7 450.7,27.9 450.9,28.2 451.2,28.4 451.4,28.7 451.7,28.8 452,29 452.4,29.1 452.7,29.2 453,29.3 453.4,29.4 453.7,29.4 454.1,29.4 467,24" />
<path stroke="#000000" stroke-width="2" d="M 473.7,70" />
<path stroke="#000000" stroke-width="2" d="M 473.7,40 481.3,21.5 489,40" />
<path stroke="#000000" stroke-width="2" d="M 495.7,70" />
<path stroke="#000000" stroke-width="2" d="M 495.7,20 495.7,40 495.7,34 495.7,33.1 495.7,32.3 495.9,31.4 496.1,30.6 496.4,29.7 496.8,28.9 497.2,28.2 497.7,27.5 498.3,26.8 498.9,26.2 499.6,25.6 500.3,25.1 501,24.7 501.8,24.3 502.6,24 503.5,23.8 504.3,23.6 505.2,23.6" />
<path stroke="#000000" stroke-width="2" d="M 511.9,70" />
<path stroke="#000000" stroke-width="2" d="M 521.9,40 522.8,40 523.6,39.9 524.5,39.8 525.3,39.5 526.1,39.2 526.9,38.9 527.7,38.4 528.4,37.9 529.1,37.4 529.7,36.8 530.2,36.1 530.7,35.4 531.2,34.6 531.6,33.8 531.9,33 532.1,32.2 532.2,31.3 532.3,30.4 532.3,29.6 532.2,28.7 532.1,27.8 531.9,27 531.6,26.2 531.2,25.4 530.7,24.6 530.2,23.9 529.7,23.3 529.1,22.6 528.4,22.1 527.7,21.6 526.9,21.1 526.1,20.8 525.3,20.5 524.5,20.2 523.6,20.1 522.8,20 521.9,20 521,20.1 520.2,20.2 519.3,20.5 518.5,20.8 517.7,21.1 516.9,21.6 516.2,22.1 515.6,22.6 514.9,23.3 514.4,23.9 513.9,24.6 513.4,25.4 513.1,26.2 512.8,27 512.6,27.8 512.4,28.7 512.3,29.6 512.3,30.4 512.4,31.3 512.6,32.2 512.8,33 513.1,33.8 513.4,34.6 513.9,35.4 514.4,36.1 514.9,36.8 515.6,37.4 516.2,37.9 516.9,38.4 517.7,38.9 518.5,39.2 519.3,39.5 520.2,39.8 521,39.9 521.9,40" />
<path stroke="#000000" stroke-width="2" d="M 539,70" />
<path stroke="#000000" stroke-width="2" d="M 562.3,70" />
<path stroke="#000000" stroke-width="2" d="M 570.3,20" />
<path stroke="#000000" stroke-width="2" d="M 570.3,20 570.2,22 569.9,23.6 569.4,24.9 568.9,25.8 568.2,26.3 567.5,26.6 566.7,26.7 566,26.5 565.3,26.1 564.7,25.6 564.2,25 563.8,24.3 563.7,23.6 563.7,22.8 564,22.1 564.5,21.4 565.4,20.9 566.7,20.4 568.3,20.1 570.3,20 580.3,20" />
<path stroke="#000000" stroke-width="2" d="M 587,70" />
<path stroke="#000000" stroke-width="2" d="M 597,20 596.1,20 595.2,20.1 594.4,20.2 593.5,20.5 592.7,20.8 591.9,21.1 591.2,21.6 590.4,22.1 589.8,22.6 589.2,23.2 588.6,23.9 588.1,24.6 587.7,25.4 587.3,26.2 587,27 586.8,27.8 586.6,28.7 586.5,29.6 586.5,30.4 586.6,31.3 586.8,32.2 587,33 587.3,33.8 587.7,34.6 588.1,35.4 588.6,36.1 589.2,36.7 589.8,37.4 590.4,37.9 591.2,38.4 591.9,38.9 592.7,39.2 593.5,39.5 594.4,39.8 595.2,39.9 596.1,40" />
<path stroke="#000000" stroke-width="2" d="M 603.6,70" />
<path stroke="#000000" stroke-width="2" d="M 603.6,20 623.6,20" />
<path stroke="#000000" stroke-width="2" d="M 630.3,70" />
<path stroke="#000000" stroke-width="2" d="M 632.3,20 640.8,28.5" />
<path stroke="#000000" stroke-width="2" d="M 649.3,20 629.5,39.8" />
<path stroke="#000000" stroke-width="2" d="M 655.9,70" />
<path stroke="#000000" stroke-width="2" d="M 655.9,25" />
<path stroke="#000000" stroke-width="2" d="M 655.9,25 658,24.9 659.6,24.6 660.8,24.1 661.7,23.6 662.3,22.9 662.6,22.2 662.6,21.4 662.4,20.7 662.1,20 661.6,19.4 661,18.9 660.3,18.5 659.5,18.3 658.8,18.4 658.1,18.7 657.4,19.2 656.8,20.1 656.3,21.4 656.1,23 655.9,25 655.9,40" />
<path stroke="#000000" stroke-width="2" d="M 669.3,70" />
</svg>