<svg xmlns="http://www.w3.org/2000/svg" width="600" height="40" style="fill:none; stroke-linecap:round;">
    <rect width="100%" height="100%" fill="#F3F3F7" />
<path stroke="#663399" stroke-width="2" d="M 300,20" />
<path stroke="#663399" stroke-width="2" d="M 30,20 30,20.9 29.9,21.7 29.8,22.6 29.5,23.4 29.2,24.3 28.9,25.1 28.4,25.8 27.9,26.5 27.4,27.2 26.8,27.8 26.1,28.4 25.4,28.9 24.6,29.3 23.8,29.7 23,30 22.2,30.2 21.3,30.4 20.4,30.4 19.6,30.4 18.7,30.4 17.8,30.2 17,30 16.2,29.7 15.4,29.3 14.6,28.9 13.9,28.4 13.3,27.8 12.6,27.2 12.1,26.5 11.6,25.8 11.1,25.1 10.8,24.3 10.5,23.4 10.2,22.6 10.1,21.7 10,20.9 10,20 10.1,19.1 10.2,18.3 10.5,17.4 10.8,16.6 11.1,15.8 11.6,15.1 12.1,14.3 12.6,13.7 13.3,13.1 13.9,12.5 14.6,12 15.4,11.6 16.2,11.2 17,10.9 17.8,10.7 18.7,10.5 19.6,10.4 20.4,10.4 21.3,10.5 22.2,10.7 23,10.9 23.8,11.2 24.6,11.6 25.4,12 26.1,12.5 26.8,13.1 27.4,13.7 27.9,14.3 28.4,15.1 28.9,15.8 29.2,16.6 29.5,17.4 29.8,18.3 29.9,19.1 30,20" />
<path stroke="#663399" stroke-width="2" d="M 36.7,30" />
<path stroke="#663399" stroke-width="2" d="M 38.7,30 44,17.1 44.2,16.7 44.3,16.4 44.3,16.1 44.4,15.7 44.4,15.4 44.4,15 44.3,14.7 44.3,14.3 44.2,14 44,13.7 43.9,13.4 43.7,13.1 43.5,12.8 43.2,12.5 43,12.3 42.7,12.1 42.4,11.9 42.1,11.7 41.8,11.6 41.4,11.5 41.1,11.4 40.7,11.4 40.4,11.4 40.1,11.4 39.7,11.4 39.4,11.5 39,11.6 38.7,11.7 38.4,11.9 38.1,12.1 37.8,12.3 37.6,12.5 37.3,12.8 37.1,13.1 36.9,13.4 36.8,13.7 36.6,14 36.5,14.3 36.5,14.7 36.4,15 36.4,15.4 36.4,15.7 36.5,16.1 36.5,16.4 36.6,16.7 36.8,17.1 36.9,17.4 37.1,17.7 37.3,17.9 37.6,18.2 37.8,18.4 38.1,18.7 38.4,18.8 38.7,19 39,19.1 39.4,19.2 39.7,19.3 40.1,19.4 40.4,19.4 40.7,19.4 53.7,14" />
<path stroke="#663399" stroke-width="2" d="M 60.3,30" />
<path stroke="#663399" stroke-width="2" d="M 70.3,30" />
<path stroke="#663399" stroke-width="2" d="M 78.3,15 78.3,15.4 78.3,15.9 78.2,16.3 78.1,16.7 78,17.1 77.8,17.5 77.6,17.9 77.3,18.3 77,18.6 76.7,18.9 76.4,19.2 76,19.4 75.7,19.7 75.3,19.8 74.9,20 74.4,20.1 74,20.2 73.6,20.2 73.1,20.2 72.7,20.2 72.3,20.1 71.8,20 71.4,19.8 71,19.7 70.7,19.4 70.3,19.2 70,18.9 69.7,18.6 69.4,18.3 69.1,17.9 68.9,17.5 68.7,17.1 68.6,16.7 68.5,16.3 68.4,15.9 68.4,15.4 68.4,15 68.4,14.6 68.5,14.1 68.6,13.7 68.7,13.3 68.9,12.9 69.1,12.5 69.4,12.2 69.7,11.8 70,11.5 70.3,11.3 70.7,11 71,10.8 71.4,10.6 71.8,10.4 72.3,10.3 72.7,10.3 73.1,10.2 73.6,10.2 74,10.3 74.4,10.3 74.9,10.4 75.3,10.6 75.7,10.8 76,11 76.4,11.3 76.7,11.5 77,11.8 77.3,12.2 77.6,12.5 77.8,12.9 78,13.3 78.1,13.7 78.2,14.1 78.3,14.6 78.3,15 78.3,30" />
<path stroke="#663399" stroke-width="2" d="M 85,30" />
<path stroke="#663399" stroke-width="2" d="M 85,10 88.8,19.2" />
<path stroke="#663399" stroke-width="2" d="M 88.8,19.2 90.8,21.4 92.1,23.3 92.9,25 93.2,26.4 93.1,27.7 92.6,28.7 91.9,29.5 91,30 90,30.4 88.8,30.5 87.7,30.4 86.7,30 85.8,29.5 85.1,28.7 84.6,27.7 84.5,26.4 84.8,25 85.6,23.3 86.9,21.4 88.8,19.2 92.7,10" />
<path stroke="#663399" stroke-width="2" d="M 99.3,30" />
<path stroke="#663399" stroke-width="2" d="M 99.3,10 99.3,30 109.3,30" />
<path stroke="#663399" stroke-width="2" d="M 116,30" />
<path stroke="#663399" stroke-width="2" d="M 121,10 116,10 116,30" />
<path stroke="#663399" stroke-width="2" d="M 127.7,30" />
<path stroke="#663399" stroke-width="2" d="M 127.7,30 127.7,18 127.7,17.3 127.7,16.6 127.9,15.9 128,15.2 128.3,14.6 128.6,14 128.9,13.4 129.3,12.8 129.8,12.2 130.3,11.8 130.8,11.3 131.4,10.9 132,10.6 132.6,10.3 133.3,10 133.9,9.8 134.6,9.7 135.3,9.7 136,9.7 136.7,9.7 137.4,9.8 138.1,10 138.7,10.3 139.4,10.6 140,10.9 140.5,11.3 141.1,11.8 141.6,12.2 142,12.8 142.4,13.4 142.8,14 143.1,14.6 143.3,15.2 143.5,15.9 143.6,16.6 143.7,17.3 143.7,29.3" />
<path stroke="#663399" stroke-width="2" d="M 150.3,30" />
<path stroke="#663399" stroke-width="2" d="M 160.3,30" />
<path stroke="#663399" stroke-width="2" d="M 165.3,10 160.3,10 160.3,30" />
<path stroke="#663399" stroke-width="2" d="M 172,30" />
<path stroke="#663399" stroke-width="2" d="M 172,10 175.8,19.2" />
<path stroke="#663399" stroke-width="2" d="M 175.8,19.2 177.7,21.4 179.1,23.3 179.8,25 180.1,26.4 180,27.7 179.6,28.7 178.9,29.5 178,30 176.9,30.4 175.8,30.5 174.7,30.4 173.7,30 172.7,29.5 172,28.7 171.6,27.7 171.5,26.4 171.8,25 172.6,23.3 173.9,21.4 175.8,19.2 179.6,10" />
<path stroke="#663399" stroke-width="2" d="M 186.3,30" />
<path stroke="#663399" stroke-width="2" d="M 196.3,10 188.7,28.5" />
<path stroke="#663399" stroke-width="2" d="M 203,30" />
<path stroke="#663399" stroke-width="2" d="M 205,30 210.3,17.1 210.5,16.7 210.6,16.4 210.6,16.1 210.7,15.7 210.7,15.4 210.7,15 210.6,14.7 210.6,14.3 210.5,14 210.3,13.7 210.2,13.4 210,13.1 209.8,12.8 209.5,12.5 209.3,12.3 209,12.1 208.7,11.9 208.4,11.7 208.1,11.6 207.7,11.5 207.4,11.4 207.1,11.4 206.7,11.4 206.4,11.4 206,11.4 205.7,11.5 205.3,11.6 205,11.7 204.7,11.9 204.4,12.1 204.1,12.3 203.9,12.5 203.6,12.8 203.4,13.1 203.2,13.4 203.1,13.7 202.9,14 202.8,14.3 202.8,14.7 202.7,15 202.7,15.4 202.7,15.7 202.8,16.1 202.8,16.4 202.9,16.7 203.1,17.1 203.2,17.4 203.4,17.7 203.6,17.9 203.9,18.2 204.1,18.4 204.4,18.7 204.7,18.8 205,19 205.3,19.1 205.7,19.2 206,19.3 206.4,19.4 206.7,19.4 207.1,19.4 220,14" />
<path stroke="#663399" stroke-width="2" d="M 226.7,30" />
<path stroke="#663399" stroke-width="2" d="M 236.7,30" />
<path stroke="#663399" stroke-width="2" d="M 236.7,10 240.5,19.2" />
<path stroke="#663399" stroke-width="2" d="M 240.5,19.2 242.4,21.4 243.7,23.3 244.5,25 244.8,26.4 244.7,27.7 244.3,28.7 243.6,29.5 242.6,30 241.6,30.4 240.5,30.5 239.4,30.4 238.3,30 237.4,29.5 236.7,28.7 236.3,27.7 236.2,26.4 236.5,25 237.2,23.3 238.6,21.4 240.5,19.2 244.3,10" />
<path stroke="#663399" stroke-width="2" d="M 251,30" />
<path stroke="#663399" stroke-width="2" d="M 251,10 261,10" />
<path stroke="#663399" stroke-width="2" d="M 267.6,30" />
<path stroke="#663399" stroke-width="2" d="M 267.6,10 267.6,30 277.6,30" />
<path stroke="#663399" stroke-width="2" d="M 284.3,30" />
<path stroke="#663399" stroke-width="2" d="M 289.3,10 284.3,10 284.3,30" />
<path stroke="#663399" stroke-width="2" d="M 296,30" />
<path stroke="#663399" stroke-width="2" d="M 306,10 305.1,10 304.2,10.1 303.4,10.2 302.5,10.5 301.7,10.8 300.9,11.1 300.2,11.6 299.5,12.1 298.8,12.6 298.2,13.2 297.6,13.9 297.1,14.6 296.7,15.4 296.3,16.2 296,17 295.8,17.8 295.6,18.7 295.5,19.6 295.5,20.4 295.6,21.3 295.8,22.2 296,23 296.3,23.8 296.7,24.6 297.1,25.4 297.6,26.1 298.2,26.7 298.8,27.4 299.5,27.9 300.2,28.4 300.9,28.9 301.7,29.2 302.5,29.5 303.4,29.8 304.2,29.9 305.1,30" />
<path stroke="#663399" stroke-width="2" d="M 312.6,30" />
<path stroke="#663399" stroke-width="2" d="M 312.6,10 312.6,30 312.6,20 312.6,19.1 312.7,18.3 312.9,17.4 313.1,16.6 313.4,15.7 313.8,14.9 314.2,14.2 314.7,13.5 315.3,12.8 315.9,12.2 316.5,11.6 317.3,11.1 318,10.7 318.8,10.3 319.6,10 320.5,9.8 321.3,9.6 322.2,9.6" />
<path stroke="#663399" stroke-width="2" d="M 328.9,30" />
<path stroke="#663399" stroke-width="2" d="M 328.9,10 338.9,10" />
<path stroke="#663399" stroke-width="2" d="M 345.5,30" />
<path stroke="#663399" stroke-width="2" d="M 355.5,30" />
<path stroke="#663399" stroke-width="2" d="M 365.5,10 365.5,30 355.5,30" />
<path stroke="#663399" stroke-width="2" d="M 372.2,30" />
<path stroke="#663399" stroke-width="2" d="M 372.2,10 376,19.2" />
<path stroke="#663399" stroke-width="2" d="M 376,19.2 377.9,21.4 379.3,23.3 380,25 380.3,26.4 380.2,27.7 379.8,28.7 379.1,29.5 378.2,30 377.1,30.4 376,30.5 374.9,30.4 373.9,30 373,29.5 372.2,28.7 371.8,27.7 371.7,26.4 372,25 372.8,23.3 374.1,21.4 376,19.2 379.9,10" />
<path stroke="#663399" stroke-width="2" d="M 386.5,30" />
<path stroke="#663399" stroke-width="2" d="M 386.5,10 394.2,28.5" />
<path stroke="#663399" stroke-width="2" d="M 400.8,30" />
<path stroke="#663399" stroke-width="2" d="M 408.8,10 409.7,10 410.6,10.1 411.4,10.2 412.3,10.5 413.1,10.8 413.9,11.1 414.6,11.6 415.4,12.1 416,12.6 416.6,13.2 417.2,13.9 417.7,14.6 418.1,15.4 418.5,16.2 418.8,17 419,17.8 419.2,18.7 419.3,19.6 419.3,20.4 419.2,21.3 419,22.2 418.8,23 418.5,23.8 418.1,24.6 417.7,25.4 417.2,26.1 416.6,26.7 416,27.4 415.4,27.9 414.6,28.4 413.9,28.9 413.1,29.2 412.3,29.5 411.4,29.8 410.6,29.9 409.7,30 408.8,30 408,29.9 407.1,29.8 406.3,29.5 405.4,29.2 404.7,28.9 403.9,28.4 403.2,27.9 402.5,27.4 401.9,26.7 401.3,26.1 400.8,25.4 400.4,24.6 400,23.8 399.7,23 399.5,22.2 399.4,21.3 399.3,20.4 399.3,19.6 399.4,18.7 399.5,17.8 399.7,17 400,16.2 400.4,15.4 400.8,14.6 401.3,13.9 401.9,13.2 402.5,12.6 403.2,12.1 403.9,11.6 404.7,11.1 405.4,10.8 406.3,10.5 407.1,10.2 408,10.1 408.8,10 426.8,10" />
<path stroke="#663399" stroke-width="2" d="M 433.5,30" />
<path stroke="#663399" stroke-width="2" d="M 435.5,30 440.9,17.1 441,16.7 441.1,16.4 441.2,16.1 441.2,15.7 441.2,15.4 441.2,15 441.2,14.7 441.1,14.3 441,14 440.9,13.7 440.7,13.4 440.5,13.1 440.3,12.8 440.1,12.5 439.8,12.3 439.5,12.1 439.2,11.9 438.9,11.7 438.6,11.6 438.3,11.5 437.9,11.4 437.6,11.4 437.2,11.4 436.9,11.4 436.5,11.4 436.2,11.5 435.9,11.6 435.5,11.7 435.2,11.9 434.9,12.1 434.7,12.3 434.4,12.5 434.2,12.8 434,13.1 433.8,13.4 433.6,13.7 433.5,14 433.4,14.3 433.3,14.7 433.3,15 433.2,15.4 433.3,15.7 433.3,16.1 433.4,16.4 433.5,16.7 433.6,17.1 433.8,17.4 434,17.7 434.2,17.9 434.4,18.2 434.7,18.4 434.9,18.7 435.2,18.8 435.5,19 435.9,19.1 436.2,19.2 436.5,19.3 436.9,19.4 437.2,19.4 437.6,19.4 450.5,14" />
<path stroke="#663399" stroke-width="2" d="M 457.2,30" />
<path stroke="#663399" stroke-width="2" d="M 457.2,10 458.1,10 458.9,10.1 459.8,10.2 460.6,10.5 461.4,10.8 462.2,11.1 463,11.6 463.7,12.1 464.4,12.6 465,13.2 465.6,13.9 466.1,14.6 466.5,15.4 466.9,16.2 467.2,17 467.4,17.8 467.5,18.7 467.6,19.6 467.6,20.4 467.5,21.3 467.4,22.2 467.2,23 466.9,23.8 466.5,24.6 466.1,25.4 465.6,26.1 465,26.7 464.4,27.4 463.7,27.9 463,28.4 462.2,28.9 461.4,29.2 460.6,29.5 459.8,29.8 458.9,29.9 458.1,30" />
<path stroke="#663399" stroke-width="2" d="M 474.3,30" />
</svg>