<svg xmlns="http://www.w3.org/2000/svg" width="651.8746275734749" height="60.0" style="fill:none; stroke-linecap:round;">
    <rect width="100%" height="100%" fill="#FFFFFF" />
<path stroke="#000000" stroke-width="2" d="M 300,50" />
<path stroke="#000000" stroke-width="2" d="M 20,40 27.7,21.5 35.3,40" />
<path stroke="#000000" stroke-width="2" d="M 42,70" />
<path stroke="#000000" stroke-width="2" d="M 42,20 62,20" />
<path stroke="#000000" stroke-width="2" d="M 68.6,70" />
<path stroke="#000000" stroke-width="2" d="M 68.6,20 69.5,20 70.4,20.1 71.2,20.2 72.1,20.5 72.9,20.8 73.7,21.1 74.4,21.6 75.2,22.1 75.8,22.6 76.4,23.2 77,23.9 77.5,24.6 77.9,25.4 78.3,26.2 78.6,27 78.8,27.8 79,28.7 79.1,29.6 79.1,30.4 79,31.3 78.8,32.2 78.6,33 78.3,33.8 77.9,34.6 77.5,35.4 77,36.1 76.4,36.7 75.8,37.4 75.2,37.9 74.4,38.4 73.7,38.9 72.9,39.2 72.1,39.5 71.2,39.8 70.4,39.9 69.5,40" />
<path stroke="#000000" stroke-width="2" d="M 85.7,70" />
<path stroke="#000000" stroke-width="2" d="M 109.1,70" />
<path stroke="#000000" stroke-width="2" d="M 117.1,20 117.1,35" />
<path stroke="#000000" stroke-width="2" d="M 117.1,35 117,37 116.7,38.6 116.2,39.9 115.6,40.8 115,41.3 114.2,41.6 113.5,41.7 112.7,41.5 112.1,41.1 111.4,40.6 110.9,40 110.6,39.3 110.4,38.6 110.5,37.8 110.7,37.1 111.3,36.4 112.2,35.9 113.4,35.4 115,35.1 117.1,35" />
<path stroke="#000000" stroke-width="2" d="M 123.7,70" />
<path stroke="#000000" stroke-width="2" d="M 123.7,40 131.4,21.5 139,40" />
<path stroke="#000000" stroke-width="2" d="M 145.7,70" />
<path stroke="#000000" stroke-width="2" d="M 155.7,20 148.1,38.5" />
<path stroke="#000000" stroke-width="2" d="M 162.4,70" />
<path stroke="#000000" stroke-width="2" d="M 185.7,70" />
<path stroke="#000000" stroke-width="2" d="M 195.7,20 194.8,20 194,20.1 193.1,20.2 192.3,20.5 191.4,20.8 190.7,21.1 189.9,21.6 189.2,22.1 188.5,22.6 187.9,23.2 187.3,23.9 186.8,24.6 186.4,25.4 186,26.2 185.7,27 185.5,27.8 185.4,28.7 185.3,29.6 185.3,30.4 185.4,31.3 185.5,32.2 185.7,33 186,33.8 186.4,34.6 186.8,35.4 187.3,36.1 187.9,36.7 188.5,37.4 189.2,37.9 189.9,38.4 190.7,38.9 191.4,39.2 192.3,39.5 193.1,39.8 194,39.9 194.8,40" />
<path stroke="#000000" stroke-width="2" d="M 202.4,70" />
<path stroke="#000000" stroke-width="2" d="M 202.4,20 222.4,20" />
<path stroke="#000000" stroke-width="2" d="M 229,70" />
<path stroke="#000000" stroke-width="2" d="M 252.4,70" />
<path stroke="#000000" stroke-width="2" d="M 262.4,40 263.2,40 264.1,39.9 265,39.8 265.8,39.5 266.6,39.2 267.4,38.9 268.2,38.4 268.9,37.9 269.6,37.4 270.2,36.8 270.7,36.1 271.2,35.4 271.7,34.6 272,33.8 272.3,33 272.6,32.2 272.7,31.3 272.8,30.4 272.8,29.6 272.7,28.7 272.6,27.8 272.3,27 272,26.2 271.7,25.4 271.2,24.6 270.7,23.9 270.2,23.3 269.6,22.6 268.9,22.1 268.2,21.6 267.4,21.1 266.6,20.8 265.8,20.5 265,20.2 264.1,20.1 263.2,20 262.4,20 261.5,20.1 260.6,20.2 259.8,20.5 259,20.8 258.2,21.1 257.4,21.6 256.7,22.1 256.1,22.6 255.4,23.3 254.9,23.9 254.4,24.6 253.9,25.4 253.6,26.2 253.3,27 253,27.8 252.9,28.7 252.8,29.6 252.8,30.4 252.9,31.3 253,32.2 253.3,33 253.6,33.8 253.9,34.6 254.4,35.4 254.9,36.1 255.4,36.8 256.1,37.4 256.7,37.9 257.4,38.4 258.2,38.9 259,39.2 259.8,39.5 260.6,39.8 261.5,39.9 262.4,40" />
<path stroke="#000000" stroke-width="2" d="M 279.5,70" />
<path stroke="#000000" stroke-width="2" d="M 281.5,40 286.8,27.1 287,26.7 287.1,26.4 287.1,26.1 287.2,25.7 287.2,25.4 287.2,25 287.1,24.7 287.1,24.3 287,24 286.8,23.7 286.7,23.4 286.5,23.1 286.3,22.8 286,22.5 285.8,22.3 285.5,22.1 285.2,21.9 284.9,21.7 284.6,21.6 284.2,21.5 283.9,21.4 283.5,21.4 283.2,21.4 282.9,21.4 282.5,21.4 282.2,21.5 281.8,21.6 281.5,21.7 281.2,21.9 280.9,22.1 280.6,22.3 280.4,22.5 280.1,22.8 279.9,23.1 279.7,23.4 279.6,23.7 279.4,24 279.3,24.3 279.3,24.7 279.2,25 279.2,25.4 279.2,25.7 279.3,26.1 279.3,26.4 279.4,26.7 279.6,27.1 279.7,27.4 279.9,27.7 280.1,27.9 280.4,28.2 280.6,28.4 280.9,28.7 281.2,28.8 281.5,29 281.8,29.1 282.2,29.2 282.5,29.3 282.9,29.4 283.2,29.4 283.5,29.4 296.5,24" />
<path stroke="#000000" stroke-width="2" d="M 303.1,70" />
<path stroke="#000000" stroke-width="2" d="M 326.5,70" />
<path stroke="#000000" stroke-width="2" d="M 326.5,20 326.5,20.7 326.5,21.4 326.7,22.1 326.8,22.8 327.1,23.4 327.4,24 327.7,24.6 328.1,25.2 328.6,25.8 329.1,26.2 329.6,26.7 330.2,27.1 330.8,27.4 331.4,27.7 332.1,28 332.7,28.2 333.4,28.3 334.1,28.3 334.8,28.3 335.5,28.3 336.2,28.2 336.9,28 337.5,27.7 338.2,27.4 338.8,27.1 339.3,26.7 339.9,26.2 340.4,25.8 340.8,25.2 341.2,24.6 341.6,24 341.9,23.4 342.1,22.8 342.3,22.1 342.4,21.4 342.5,20.7" />
<path stroke="#000000" stroke-width="2" d="M 349.1,70" />
<path stroke="#000000" stroke-width="2" d="M 349.1,40 356.8,21.5 364.4,40" />
<path stroke="#000000" stroke-width="2" d="M 371.1,70" />
<path stroke="#000000" stroke-width="2" d="M 371.1,20 391.1,20" />
<path stroke="#000000" stroke-width="2" d="M 397.8,70" />
<path stroke="#000000" stroke-width="2" d="M 397.8,20 398.6,20 399.5,20.1 400.4,20.2 401.2,20.5 402,20.8 402.8,21.1 403.6,21.6 404.3,22.1 405,22.6 405.6,23.2 406.1,23.9 406.6,24.6 407.1,25.4 407.5,26.2 407.7,27 408,27.8 408.1,28.7 408.2,29.6 408.2,30.4 408.1,31.3 408,32.2 407.7,33 407.5,33.8 407.1,34.6 406.6,35.4 406.1,36.1 405.6,36.7 405,37.4 404.3,37.9 403.6,38.4 402.8,38.9 402,39.2 401.2,39.5 400.4,39.8 399.5,39.9 398.6,40" />
<path stroke="#000000" stroke-width="2" d="M 414.9,70" />
<path stroke="#000000" stroke-width="2" d="M 438.2,70" />
<path stroke="#000000" stroke-width="2" d="M 438.2,20 438.2,40" />
<path stroke="#000000" stroke-width="2" d="M 444.9,70" />
<path stroke="#000000" stroke-width="2" d="M 454.9,20 454,20 453.1,20.1 452.3,20.2 451.4,20.5 450.6,20.8 449.8,21.1 449.1,21.6 448.3,22.1 447.7,22.6 447.1,23.2 446.5,23.9 446,24.6 445.6,25.4 445.2,26.2 444.9,27 444.7,27.8 444.5,28.7 444.4,29.6 444.4,30.4 444.5,31.3 444.7,32.2 444.9,33 445.2,33.8 445.6,34.6 446,35.4 446.5,36.1 447.1,36.7 447.7,37.4 448.3,37.9 449.1,38.4 449.8,38.9 450.6,39.2 451.4,39.5 452.3,39.8 453.1,39.9 454,40" />
<path stroke="#000000" stroke-width="2" d="M 461.5,70" />
<path stroke="#000000" stroke-width="2" d="M 461.5,20 465.4,29.2" />
<path stroke="#000000" stroke-width="2" d="M 465.4,29.2 467.3,31.4 468.6,33.3 469.4,35 469.7,36.4 469.6,37.7 469.1,38.7 468.4,39.5 467.5,40 466.5,40.4 465.4,40.5 464.2,40.4 463.2,40 462.3,39.5 461.6,38.7 461.1,37.7 461,36.4 461.3,35 462.1,33.3 463.4,31.4 465.4,29.2 469.2,20" />
<path stroke="#000000" stroke-width="2" d="M 475.9,70" />
<path stroke="#000000" stroke-width="2" d="M 475.9,20 495.9,20" />
<path stroke="#000000" stroke-width="2" d="M 502.5,70" />
<path stroke="#000000" stroke-width="2" d="M 502.5,20 503.4,20 504.3,20.1 505.1,20.2 506,20.5 506.8,20.8 507.6,21.1 508.3,21.6 509,22.1 509.7,22.6 510.3,23.2 510.9,23.9 511.4,24.6 511.8,25.4 512.2,26.2 512.5,27 512.7,27.8 512.9,28.7 512.9,29.6 512.9,30.4 512.9,31.3 512.7,32.2 512.5,33 512.2,33.8 511.8,34.6 511.4,35.4 510.9,36.1 510.3,36.7 509.7,37.4 509,37.9 508.3,38.4 507.6,38.9 506.8,39.2 506,39.5 505.1,39.8 504.3,39.9 503.4,40" />
<path stroke="#000000" stroke-width="2" d="M 519.6,70" />
<path stroke="#000000" stroke-width="2" d="M 542.9,70" />
<path stroke="#000000" stroke-width="2" d="M 550.9,20 541,29.9 550.9,39.8" />
<path stroke="#000000" stroke-width="2" d="M 557.6,70" />
<path stroke="#000000" stroke-width="2" d="M 559.6,20 568.1,28.5" />
<path stroke="#000000" stroke-width="2" d="M 576.6,20 556.8,39.8" />
<path stroke="#000000" stroke-width="2" d="M 583.3,70" />
<path stroke="#000000" stroke-width="2" d="M 583.3,20 584.1,20 585,20.1 585.9,20.2 586.7,20.5 587.5,20.8 588.3,21.1 589.1,21.6 589.8,22.1 590.4,22.6 591.1,23.2 591.6,23.9 592.1,24.6 592.6,25.4 592.9,26.2 593.2,27 593.5,27.8 593.6,28.7 593.7,29.6 593.7,30.4 593.6,31.3 593.5,32.2 593.2,33 592.9,33.8 592.6,34.6 592.1,35.4 591.6,36.1 591.1,36.7 590.4,37.4 589.8,37.9 589.1,38.4 588.3,38.9 587.5,39.2 586.7,39.5 585.9,39.8 585,39.9 584.1,40" />
<path stroke="#000000" stroke-width="2" d="M 600.3,70" />
<path stroke="#000000" stroke-width="2" d="M 600.3,20 600.3,40 600.3,34 600.3,33.1 600.4,32.3 600.6,31.4 600.8,30.6 601.1,29.7 601.5,28.9 601.9,28.2 602.4,27.5 603,26.8 603.6,26.2 604.2,25.6 605,25.1 605.7,24.7 606.5,24.3 607.3,24 608.2,23.8 609,23.6 609.9,23.6" />
<path stroke="#000000" stroke-width="2" d="M 616.6,70" />
<path stroke="#000000" stroke-width="2" d="M 616.6,40 624.2,21.5 631.9,40" />
<path stroke="#000000" stroke-width="2" d="M 638.5,70" />
</svg>