<svg xmlns="http://www.w3.org/2000/svg" width="600" height="40" style="fill:none; stroke-linecap:round;">
    <rect width="100%" height="100%" fill="#F3F3F7" />
<path stroke="#663399" stroke-width="2" d="M 300,20" />
<path stroke="#663399" stroke-width="2" d="M 20,10 19.1,10 18.3,10.1 17.4,10.2 16.6,10.5 15.7,10.8 14.9,11.1 14.2,11.6 13.5,12.1 12.8,12.6 12.2,13.2 11.6,13.9 11.1,14.6 10.7,15.4 10.3,16.2 10,17 9.8,17.8 9.6,18.7 9.6,19.6 9.6,20.4 9.6,21.3 9.8,22.2 10,23 10.3,23.8 10.7,24.6 11.1,25.4 11.6,26.1 12.2,26.7 12.8,27.4 13.5,27.9 14.2,28.4 14.9,28.9 15.7,29.2 16.6,29.5 17.4,29.8 18.3,29.9 19.1,30" />
<path stroke="#663399" stroke-width="2" d="M 26.7,30" />
<path stroke="#663399" stroke-width="2" d="M 26.7,10 34.3,28.5 42,10" />
<path stroke="#663399" stroke-width="2" d="M 48.6,30" />
<path stroke="#663399" stroke-width="2" d="M 50.6,30 56,17.1 56.1,16.7 56.2,16.4 56.3,16.1 56.4,15.7 56.4,15.4 56.4,15 56.3,14.7 56.2,14.3 56.1,14 56,13.7 55.8,13.4 55.6,13.1 55.4,12.8 55.2,12.5 54.9,12.3 54.7,12.1 54.4,11.9 54.1,11.7 53.7,11.6 53.4,11.5 53.1,11.4 52.7,11.4 52.4,11.4 52,11.4 51.7,11.4 51.3,11.5 51,11.6 50.7,11.7 50.4,11.9 50.1,12.1 49.8,12.3 49.5,12.5 49.3,12.8 49.1,13.1 48.9,13.4 48.7,13.7 48.6,14 48.5,14.3 48.4,14.7 48.4,15 48.4,15.4 48.4,15.7 48.4,16.1 48.5,16.4 48.6,16.7 48.7,17.1 48.9,17.4 49.1,17.7 49.3,17.9 49.5,18.2 49.8,18.4 50.1,18.7 50.4,18.8 50.7,19 51,19.1 51.3,19.2 51.7,19.3 52,19.4 52.4,19.4 52.7,19.4 65.7,14" />
<path stroke="#663399" stroke-width="2" d="M 72.3,30" />
<path stroke="#663399" stroke-width="2" d="M 72.3,10 72.3,30 72.3,24 72.3,23.1 72.4,22.3 72.6,21.4 72.8,20.6 73.1,19.7 73.4,18.9 73.9,18.2 74.4,17.5 74.9,16.8 75.6,16.2 76.2,15.6 76.9,15.1 77.7,14.7 78.5,14.3 79.3,14 80.1,13.8 81,13.6 81.9,13.6" />
<path stroke="#663399" stroke-width="2" d="M 88.5,30" />
<path stroke="#663399" stroke-width="2" d="M 98.5,30" />
<path stroke="#663399" stroke-width="2" d="M 108.5,30 109.4,30 110.3,29.9 111.1,29.8 112,29.5 112.8,29.2 113.6,28.9 114.4,28.4 115.1,27.9 115.7,27.4 116.4,26.8 116.9,26.1 117.4,25.4 117.8,24.6 118.2,23.8 118.5,23 118.7,22.2 118.9,21.3 119,20.4 119,19.6 118.9,18.7 118.7,17.8 118.5,17 118.2,16.2 117.8,15.4 117.4,14.6 116.9,13.9 116.4,13.3 115.7,12.6 115.1,12.1 114.4,11.6 113.6,11.1 112.8,10.8 112,10.5 111.1,10.2 110.3,10.1 109.4,10 108.5,10 107.7,10.1 106.8,10.2 106,10.5 105.2,10.8 104.4,11.1 103.6,11.6 102.9,12.1 102.2,12.6 101.6,13.3 101,13.9 100.5,14.6 100.1,15.4 99.7,16.2 99.4,17 99.2,17.8 99.1,18.7 99,19.6 99,20.4 99.1,21.3 99.2,22.2 99.4,23 99.7,23.8 100.1,24.6 100.5,25.4 101,26.1 101.6,26.8 102.2,27.4 102.9,27.9 103.6,28.4 104.4,28.9 105.2,29.2 106,29.5 106.8,29.8 107.7,29.9 108.5,30" />
<path stroke="#663399" stroke-width="2" d="M 125.6,30" />
<path stroke="#663399" stroke-width="2" d="M 127.6,30 133,17.1 133.1,16.7 133.2,16.4 133.3,16.1 133.4,15.7 133.4,15.4 133.4,15 133.3,14.7 133.2,14.3 133.1,14 133,13.7 132.8,13.4 132.6,13.1 132.4,12.8 132.2,12.5 131.9,12.3 131.7,12.1 131.4,11.9 131.1,11.7 130.7,11.6 130.4,11.5 130.1,11.4 129.7,11.4 129.4,11.4 129,11.4 128.7,11.4 128.3,11.5 128,11.6 127.7,11.7 127.4,11.9 127.1,12.1 126.8,12.3 126.5,12.5 126.3,12.8 126.1,13.1 125.9,13.4 125.7,13.7 125.6,14 125.5,14.3 125.4,14.7 125.4,15 125.4,15.4 125.4,15.7 125.4,16.1 125.5,16.4 125.6,16.7 125.7,17.1 125.9,17.4 126.1,17.7 126.3,17.9 126.5,18.2 126.8,18.4 127.1,18.7 127.4,18.8 127.7,19 128,19.1 128.3,19.2 128.7,19.3 129,19.4 129.4,19.4 129.7,19.4 142.7,14" />
<path stroke="#663399" stroke-width="2" d="M 149.3,30" />
<path stroke="#663399" stroke-width="2" d="M 159.3,30" />
<path stroke="#663399" stroke-width="2" d="M 159.3,10 159.3,10.7 159.4,11.4 159.5,12.1 159.7,12.8 159.9,13.4 160.2,14 160.6,14.6 161,15.2 161.4,15.8 161.9,16.2 162.4,16.7 163,17.1 163.6,17.4 164.2,17.7 164.9,18 165.6,18.2 166.3,18.3 167,18.3 167.7,18.3 168.4,18.3 169,18.2 169.7,18 170.4,17.7 171,17.4 171.6,17.1 172.2,16.7 172.7,16.2 173.2,15.8 173.7,15.2 174.1,14.6 174.4,14 174.7,13.4 174.9,12.8 175.1,12.1 175.2,11.4 175.3,10.7" />
<path stroke="#663399" stroke-width="2" d="M 182,30" />
<path stroke="#663399" stroke-width="2" d="M 182,30 189.6,11.5 197.3,30" />
<path stroke="#663399" stroke-width="2" d="M 203.9,30" />
<path stroke="#663399" stroke-width="2" d="M 203.9,10 223.9,10 204.1,29.8 224.1,29.8" />
<path stroke="#663399" stroke-width="2" d="M 230.8,30" />
<path stroke="#663399" stroke-width="2" d="M 232.8,10 241.3,18.5" />
<path stroke="#663399" stroke-width="2" d="M 249.8,10 230,29.8" />
<path stroke="#663399" stroke-width="2" d="M 256.4,30" />
<path stroke="#663399" stroke-width="2" d="M 266.4,30" />
<path stroke="#663399" stroke-width="2" d="M 266.4,10 266.4,14 266.4,14.5 266.5,15 266.6,15.6 266.7,16.1 266.9,16.6 267.1,17 267.4,17.5 267.7,17.9 268,18.3 268.4,18.7 268.8,19 269.2,19.3 269.7,19.6 270.1,19.8 270.6,20 271.1,20.1 271.7,20.2 272.2,20.3 272.7,20.3 273.2,20.2 273.7,20.1 274.2,20 274.7,19.8 275.2,19.6 275.7,19.3 276.1,19 276.5,18.7 276.9,18.3 277.2,17.9 277.5,17.5 277.8,17 278,16.6 278.2,16.1 278.3,15.6 278.4,15 278.4,14.5 278.4,9.5 278.4,29.5" />
<path stroke="#663399" stroke-width="2" d="M 285.1,30" />
<path stroke="#663399" stroke-width="2" d="M 285.1,10 285.1,30 285.1,24 285.1,23.1 285.2,22.3 285.3,21.4 285.6,20.6 285.9,19.7 286.2,18.9 286.7,18.2 287.2,17.5 287.7,16.8 288.3,16.2 289,15.6 289.7,15.1 290.5,14.7 291.3,14.3 292.1,14 292.9,13.8 293.8,13.6 294.7,13.6" />
<path stroke="#663399" stroke-width="2" d="M 301.3,30" />
<path stroke="#663399" stroke-width="2" d="M 303.3,10 311.8,18.5" />
<path stroke="#663399" stroke-width="2" d="M 320.3,10 300.5,29.8" />
<path stroke="#663399" stroke-width="2" d="M 327,30" />
<path stroke="#663399" stroke-width="2" d="M 335,10 335.5,10 336,10 336.5,10.1 337,10.3 337.5,10.5 338,10.7 338.4,10.9 338.9,11.2 339.3,11.6 339.6,11.9 340,12.3 340.3,12.8 340.5,13.2 340.8,13.7 340.9,14.2 341.1,14.7 341.2,15.2 341.2,15.7 341.2,16.3 341.2,16.8 341.1,17.3 340.9,17.8 340.8,18.3 340.5,18.8 340.3,19.2 340,19.6 339.6,20 339.3,20.4 338.9,20.8 338.4,21.1 338,21.3 337.5,21.5 337,21.7 336.5,21.9 336,21.9 335.5,22 335,22 334.4,21.9 333.9,21.9 333.4,21.7 332.9,21.5 332.5,21.3 332,21.1 331.6,20.8 331.2,20.4 330.8,20 330.5,19.6 330.2,19.2 329.9,18.8 329.7,18.3 329.5,17.8 329.4,17.3 329.3,16.8 329.2,16.3 329.2,15.7 329.3,15.2 329.4,14.7 329.5,14.2 329.7,13.7 329.9,13.2 330.2,12.8 330.5,12.3 330.8,11.9 331.2,11.6 331.6,11.2 332,10.9 332.5,10.7 332.9,10.5 333.4,10.3 333.9,10.1 334.4,10 335,10 353,10" />
<path stroke="#663399" stroke-width="2" d="M 359.6,30" />
<path stroke="#663399" stroke-width="2" d="M 367.6,10 357.7,19.9 367.6,29.8" />
<path stroke="#663399" stroke-width="2" d="M 374.3,30" />
<path stroke="#663399" stroke-width="2" d="M 384.3,10 383.4,10 382.6,10.1 381.7,10.2 380.9,10.5 380,10.8 379.2,11.1 378.5,11.6 377.8,12.1 377.1,12.6 376.5,13.2 375.9,13.9 375.4,14.6 375,15.4 374.6,16.2 374.3,17 374.1,17.8 373.9,18.7 373.9,19.6 373.9,20.4 373.9,21.3 374.1,22.2 374.3,23 374.6,23.8 375,24.6 375.4,25.4 375.9,26.1 376.5,26.7 377.1,27.4 377.8,27.9 378.5,28.4 379.2,28.9 380,29.2 380.9,29.5 381.7,29.8 382.6,29.9 383.4,30" />
<path stroke="#663399" stroke-width="2" d="M 391,30" />
<path stroke="#663399" stroke-width="2" d="M 391,10 401,10" />
<path stroke="#663399" stroke-width="2" d="M 407.6,30" />
</svg>