<svg xmlns="http://www.w3.org/2000/svg" width="421.21542588575755" height="60.0" style="fill:none; stroke-linecap:round;">
    <rect width="100%" height="100%" fill="#F3F3F7" />
<path stroke="#663399" stroke-width="2" d="M 300,50" />
<path stroke="#663399" stroke-width="2" d="M 28,20 28.5,20 29,20 29.6,20.1 30.1,20.3 30.6,20.5 31,20.7 31.5,20.9 31.9,21.2 32.3,21.6 32.7,21.9 33,22.3 33.3,22.8 33.6,23.2 33.8,23.7 34,24.2 34.1,24.7 34.2,25.2 34.3,25.7 34.3,26.3 34.2,26.8 34.1,27.3 34,27.8 33.8,28.3 33.6,28.8 33.3,29.2 33,29.6 32.7,30 32.3,30.4 31.9,30.8 31.5,31.1 31,31.3 30.6,31.5 30.1,31.7 29.6,31.9 29,31.9 28.5,32 28,32 27.5,31.9 27,31.9 26.5,31.7 26,31.5 25.5,31.3 25,31.1 24.6,30.8 24.2,30.4 23.8,30 23.5,29.6 23.2,29.2 22.9,28.8 22.7,28.3 22.5,27.8 22.4,27.3 22.3,26.8 22.3,26.3 22.3,25.7 22.3,25.2 22.4,24.7 22.5,24.2 22.7,23.7 22.9,23.2 23.2,22.8 23.5,22.3 23.8,21.9 24.2,21.6 24.6,21.2 25,20.9 25.5,20.7 26,20.5 26.5,20.3 27,20.1 27.5,20 28,20 46,20" />
<path stroke="#663399" stroke-width="2" d="M 52.7,70" />
<path stroke="#663399" stroke-width="2" d="M 52.7,20 52.7,40 62.7,40" />
<path stroke="#663399" stroke-width="2" d="M 69.3,70" />
<path stroke="#663399" stroke-width="2" d="M 71.3,40 76.7,27.1 76.8,26.7 76.9,26.4 77,26.1 77.1,25.7 77.1,25.4 77.1,25 77,24.7 76.9,24.3 76.8,24 76.7,23.7 76.5,23.4 76.3,23.1 76.1,22.8 75.9,22.5 75.6,22.3 75.4,22.1 75.1,21.9 74.8,21.7 74.4,21.6 74.1,21.5 73.8,21.4 73.4,21.4 73.1,21.4 72.7,21.4 72.4,21.4 72,21.5 71.7,21.6 71.4,21.7 71.1,21.9 70.8,22.1 70.5,22.3 70.2,22.5 70,22.8 69.8,23.1 69.6,23.4 69.4,23.7 69.3,24 69.2,24.3 69.1,24.7 69.1,25 69.1,25.4 69.1,25.7 69.1,26.1 69.2,26.4 69.3,26.7 69.4,27.1 69.6,27.4 69.8,27.7 70,27.9 70.2,28.2 70.5,28.4 70.8,28.7 71.1,28.8 71.4,29 71.7,29.1 72,29.2 72.4,29.3 72.7,29.4 73.1,29.4 73.4,29.4 86.3,24" />
<path stroke="#663399" stroke-width="2" d="M 93,70" />
<path stroke="#663399" stroke-width="2" d="M 116.3,70" />
<path stroke="#663399" stroke-width="2" d="M 116.3,20 116.3,40 122,34.3" />
<path stroke="#663399" stroke-width="2" d="M 128.7,70" />
<path stroke="#663399" stroke-width="2" d="M 138.7,20 137.8,20 136.9,20.1 136.1,20.2 135.2,20.5 134.4,20.8 133.6,21.1 132.9,21.6 132.1,22.1 131.5,22.6 130.9,23.2 130.3,23.9 129.8,24.6 129.4,25.4 129,26.2 128.7,27 128.5,27.8 128.3,28.7 128.2,29.6 128.2,30.4 128.3,31.3 128.5,32.2 128.7,33 129,33.8 129.4,34.6 129.8,35.4 130.3,36.1 130.9,36.7 131.5,37.4 132.1,37.9 132.9,38.4 133.6,38.9 134.4,39.2 135.2,39.5 136.1,39.8 136.9,39.9 137.8,40" />
<path stroke="#663399" stroke-width="2" d="M 145.3,70" />
<path stroke="#663399" stroke-width="2" d="M 145.3,20 165.3,20" />
<path stroke="#663399" stroke-width="2" d="M 172,70" />
<path stroke="#663399" stroke-width="2" d="M 195.3,70" />
<path stroke="#663399" stroke-width="2" d="M 195.3,20 200.3,20 200.3,40" />
<path stroke="#663399" stroke-width="2" d="M 207,70" />
<path stroke="#663399" stroke-width="2" d="M 207,20 207,40 217,40" />
<path stroke="#663399" stroke-width="2" d="M 223.7,70" />
<path stroke="#663399" stroke-width="2" d="M 223.7,20 223.7,40 223.7,34 223.7,33.1 223.7,32.3 223.9,31.4 224.1,30.6 224.4,29.7 224.8,28.9 225.2,28.2 225.7,27.5 226.3,26.8 226.9,26.2 227.6,25.6 228.3,25.1 229,24.7 229.8,24.3 230.7,24 231.5,23.8 232.4,23.6 233.2,23.6" />
<path stroke="#663399" stroke-width="2" d="M 239.9,70" />
<path stroke="#663399" stroke-width="2" d="M 239.9,25 240.2,25.3 240.5,25.6 240.9,25.8 241.3,26.1 241.7,26.2 242.1,26.4 242.5,26.5 242.9,26.6 243.4,26.6 243.8,26.6 244.2,26.6 244.7,26.5 245.1,26.4 245.5,26.2 245.9,26.1 246.3,25.8 246.6,25.6 247,25.3 247.3,25 247.5,24.7 247.8,24.3 248,23.9 248.2,23.5 248.3,23.1 248.5,22.7 248.5,22.3 248.6,21.8 248.6,21.4 248.5,21 248.5,20.5 248.3,20.1 248.2,19.7 248,19.3 247.8,18.9 247.5,18.6 247.3,18.2 247,17.9 246.6,17.7 246.3,17.4 245.9,17.2 245.5,17 245.1,16.9 244.7,16.7 244.2,16.7 243.8,16.6 243.4,16.6 242.9,16.7 242.5,16.7 242.1,16.9 241.7,17 241.3,17.2 240.9,17.4 240.5,17.7 240.2,17.9 239.9,18.2 239.6,18.6 239.4,18.9 239.1,19.3 239,19.7 238.8,20.1 238.7,20.5 238.6,21 238.6,21.4 238.6,21.8 238.6,22.3 238.7,22.7 238.8,23.1 239,23.5 239.1,23.9 239.4,24.3 239.6,24.7 239.9,25 239.9,40" />
<path stroke="#663399" stroke-width="2" d="M 255.2,70" />
<path stroke="#663399" stroke-width="2" d="M 265.2,20 257.6,38.5" />
<path stroke="#663399" stroke-width="2" d="M 271.9,70" />
<path stroke="#663399" stroke-width="2" d="M 295.2,70" />
<path stroke="#663399" stroke-width="2" d="M 303.2,20 303.8,20 304.3,20 304.8,20.1 305.3,20.3 305.8,20.5 306.3,20.7 306.7,20.9 307.2,21.2 307.6,21.6 307.9,21.9 308.3,22.3 308.6,22.8 308.8,23.2 309,23.7 309.2,24.2 309.4,24.7 309.5,25.2 309.5,25.7 309.5,26.3 309.5,26.8 309.4,27.3 309.2,27.8 309,28.3 308.8,28.8 308.6,29.2 308.3,29.6 307.9,30 307.6,30.4 307.2,30.8 306.7,31.1 306.3,31.3 305.8,31.5 305.3,31.7 304.8,31.9 304.3,31.9 303.8,32 303.2,32 302.7,31.9 302.2,31.9 301.7,31.7 301.2,31.5 300.7,31.3 300.3,31.1 299.9,30.8 299.4,30.4 299.1,30 298.7,29.6 298.4,29.2 298.2,28.8 298,28.3 297.8,27.8 297.6,27.3 297.6,26.8 297.5,26.3 297.5,25.7 297.6,25.2 297.6,24.7 297.8,24.2 298,23.7 298.2,23.2 298.4,22.8 298.7,22.3 299.1,21.9 299.4,21.6 299.9,21.2 300.3,20.9 300.7,20.7 301.2,20.5 301.7,20.3 302.2,20.1 302.7,20 303.2,20 321.2,20" />
<path stroke="#663399" stroke-width="2" d="M 327.9,70" />
<path stroke="#663399" stroke-width="2" d="M 327.9,20 327.9,20.7 328,21.4 328.1,22.1 328.3,22.8 328.5,23.4 328.8,24 329.2,24.6 329.6,25.2 330,25.8 330.5,26.2 331,26.7 331.6,27.1 332.2,27.4 332.8,27.7 333.5,28 334.2,28.2 334.9,28.3 335.6,28.3 336.2,28.3 336.9,28.3 337.6,28.2 338.3,28 339,27.7 339.6,27.4 340.2,27.1 340.8,26.7 341.3,26.2 341.8,25.8 342.2,25.2 342.6,24.6 343,24 343.3,23.4 343.5,22.8 343.7,22.1 343.8,21.4 343.9,20.7" />
<path stroke="#663399" stroke-width="2" d="M 350.6,70" />
<path stroke="#663399" stroke-width="2" d="M 350.6,40 358.2,21.5 365.9,40" />
<path stroke="#663399" stroke-width="2" d="M 372.5,70" />
<path stroke="#663399" stroke-width="2" d="M 377.5,20 372.5,20 372.5,40" />
<path stroke="#663399" stroke-width="2" d="M 384.2,70" />
<path stroke="#663399" stroke-width="2" d="M 386.2,40 391.6,27.1 391.7,26.7 391.8,26.4 391.9,26.1 391.9,25.7 391.9,25.4 391.9,25 391.9,24.7 391.8,24.3 391.7,24 391.6,23.7 391.4,23.4 391.2,23.1 391,22.8 390.8,22.5 390.5,22.3 390.2,22.1 389.9,21.9 389.6,21.7 389.3,21.6 389,21.5 388.6,21.4 388.3,21.4 387.9,21.4 387.6,21.4 387.2,21.4 386.9,21.5 386.6,21.6 386.2,21.7 385.9,21.9 385.6,22.1 385.4,22.3 385.1,22.5 384.9,22.8 384.7,23.1 384.5,23.4 384.3,23.7 384.2,24 384.1,24.3 384,24.7 383.9,25 383.9,25.4 383.9,25.7 384,26.1 384.1,26.4 384.2,26.7 384.3,27.1 384.5,27.4 384.7,27.7 384.9,27.9 385.1,28.2 385.4,28.4 385.6,28.7 385.9,28.8 386.2,29 386.6,29.1 386.9,29.2 387.2,29.3 387.6,29.4 387.9,29.4 388.3,29.4 401.2,24" />
<path stroke="#663399" stroke-width="2" d="M 407.9,70" />
</svg>