<svg xmlns="http://www.w3.org/2000/svg" width="531.8746275734745" height="50.0" style="fill:none; stroke-linecap:round;">
    <rect width="100%" height="100%" fill="#F3F3F7" />
<path stroke="#663399" stroke-width="2" d="M 300,50" />
<path stroke="#663399" stroke-width="2" d="M 20,30 27.7,11.5 35.3,30" />
<path stroke="#663399" stroke-width="2" d="M 42,70" />
<path stroke="#663399" stroke-width="2" d="M 42,10 52,10" />
<path stroke="#663399" stroke-width="2" d="M 58.6,70" />
<path stroke="#663399" stroke-width="2" d="M 58.6,10 59.5,10 60.4,10.1 61.2,10.2 62.1,10.5 62.9,10.8 63.7,11.1 64.4,11.6 65.2,12.1 65.8,12.6 66.4,13.2 67,13.9 67.5,14.6 67.9,15.4 68.3,16.2 68.6,17 68.8,17.8 69,18.7 69.1,19.6 69.1,20.4 69,21.3 68.8,22.2 68.6,23 68.3,23.8 67.9,24.6 67.5,25.4 67,26.1 66.4,26.7 65.8,27.4 65.2,27.9 64.4,28.4 63.7,28.9 62.9,29.2 62.1,29.5 61.2,29.8 60.4,29.9 59.5,30" />
<path stroke="#663399" stroke-width="2" d="M 75.7,70" />
<path stroke="#663399" stroke-width="2" d="M 85.7,70" />
<path stroke="#663399" stroke-width="2" d="M 93.7,10 93.7,25" />
<path stroke="#663399" stroke-width="2" d="M 93.7,25 93.6,27 93.3,28.6 92.9,29.9 92.3,30.8 91.6,31.3 90.9,31.6 90.2,31.7 89.4,31.5 88.7,31.1 88.1,30.6 87.6,30 87.3,29.3 87.1,28.6 87.1,27.8 87.4,27.1 88,26.4 88.9,25.9 90.1,25.4 91.7,25.1 93.7,25" />
<path stroke="#663399" stroke-width="2" d="M 100.4,70" />
<path stroke="#663399" stroke-width="2" d="M 100.4,30 108.1,11.5 115.7,30" />
<path stroke="#663399" stroke-width="2" d="M 122.4,70" />
<path stroke="#663399" stroke-width="2" d="M 132.4,10 124.7,28.5" />
<path stroke="#663399" stroke-width="2" d="M 139,70" />
<path stroke="#663399" stroke-width="2" d="M 149,70" />
<path stroke="#663399" stroke-width="2" d="M 159,10 158.2,10 157.3,10.1 156.4,10.2 155.6,10.5 154.8,10.8 154,11.1 153.2,11.6 152.5,12.1 151.8,12.6 151.2,13.2 150.7,13.9 150.2,14.6 149.7,15.4 149.4,16.2 149.1,17 148.8,17.8 148.7,18.7 148.6,19.6 148.6,20.4 148.7,21.3 148.8,22.2 149.1,23 149.4,23.8 149.7,24.6 150.2,25.4 150.7,26.1 151.2,26.7 151.8,27.4 152.5,27.9 153.2,28.4 154,28.9 154.8,29.2 155.6,29.5 156.4,29.8 157.3,29.9 158.2,30" />
<path stroke="#663399" stroke-width="2" d="M 165.7,70" />
<path stroke="#663399" stroke-width="2" d="M 165.7,10 175.7,10" />
<path stroke="#663399" stroke-width="2" d="M 182.4,70" />
<path stroke="#663399" stroke-width="2" d="M 192.4,70" />
<path stroke="#663399" stroke-width="2" d="M 202.4,30 203.2,30 204.1,29.9 205,29.8 205.8,29.5 206.6,29.2 207.4,28.9 208.2,28.4 208.9,27.9 209.6,27.4 210.2,26.8 210.7,26.1 211.2,25.4 211.7,24.6 212,23.8 212.3,23 212.6,22.2 212.7,21.3 212.8,20.4 212.8,19.6 212.7,18.7 212.6,17.8 212.3,17 212,16.2 211.7,15.4 211.2,14.6 210.7,13.9 210.2,13.3 209.6,12.6 208.9,12.1 208.2,11.6 207.4,11.1 206.6,10.8 205.8,10.5 205,10.2 204.1,10.1 203.2,10 202.4,10 201.5,10.1 200.6,10.2 199.8,10.5 199,10.8 198.2,11.1 197.4,11.6 196.7,12.1 196.1,12.6 195.4,13.3 194.9,13.9 194.4,14.6 193.9,15.4 193.6,16.2 193.3,17 193,17.8 192.9,18.7 192.8,19.6 192.8,20.4 192.9,21.3 193,22.2 193.3,23 193.6,23.8 193.9,24.6 194.4,25.4 194.9,26.1 195.4,26.8 196.1,27.4 196.7,27.9 197.4,28.4 198.2,28.9 199,29.2 199.8,29.5 200.6,29.8 201.5,29.9 202.4,30" />
<path stroke="#663399" stroke-width="2" d="M 219.5,70" />
<path stroke="#663399" stroke-width="2" d="M 221.5,30 226.8,17.1 227,16.7 227.1,16.4 227.1,16.1 227.2,15.7 227.2,15.4 227.2,15 227.1,14.7 227.1,14.3 227,14 226.8,13.7 226.7,13.4 226.5,13.1 226.3,12.8 226,12.5 225.8,12.3 225.5,12.1 225.2,11.9 224.9,11.7 224.6,11.6 224.2,11.5 223.9,11.4 223.5,11.4 223.2,11.4 222.9,11.4 222.5,11.4 222.2,11.5 221.8,11.6 221.5,11.7 221.2,11.9 220.9,12.1 220.6,12.3 220.4,12.5 220.1,12.8 219.9,13.1 219.7,13.4 219.6,13.7 219.4,14 219.3,14.3 219.3,14.7 219.2,15 219.2,15.4 219.2,15.7 219.3,16.1 219.3,16.4 219.4,16.7 219.6,17.1 219.7,17.4 219.9,17.7 220.1,17.9 220.4,18.2 220.6,18.4 220.9,18.7 221.2,18.8 221.5,19 221.8,19.1 222.2,19.2 222.5,19.3 222.9,19.4 223.2,19.4 223.5,19.4 236.5,14" />
<path stroke="#663399" stroke-width="2" d="M 243.1,70" />
<path stroke="#663399" stroke-width="2" d="M 253.1,70" />
<path stroke="#663399" stroke-width="2" d="M 253.1,10 253.1,10.7 253.2,11.4 253.3,12.1 253.5,12.8 253.8,13.4 254,14 254.4,14.6 254.8,15.2 255.2,15.8 255.7,16.2 256.3,16.7 256.8,17.1 257.4,17.4 258.1,17.7 258.7,18 259.4,18.2 260.1,18.3 260.8,18.3 261.5,18.3 262.2,18.3 262.9,18.2 263.5,18 264.2,17.7 264.8,17.4 265.4,17.1 266,16.7 266.5,16.2 267,15.8 267.5,15.2 267.9,14.6 268.2,14 268.5,13.4 268.8,12.8 269,12.1 269.1,11.4 269.1,10.7" />
<path stroke="#663399" stroke-width="2" d="M 275.8,70" />
<path stroke="#663399" stroke-width="2" d="M 275.8,30 283.5,11.5 291.1,30" />
<path stroke="#663399" stroke-width="2" d="M 297.8,70" />
<path stroke="#663399" stroke-width="2" d="M 297.8,10 307.8,10" />
<path stroke="#663399" stroke-width="2" d="M 314.4,70" />
<path stroke="#663399" stroke-width="2" d="M 314.4,10 315.3,10 316.2,10.1 317,10.2 317.9,10.5 318.7,10.8 319.5,11.1 320.3,11.6 321,12.1 321.6,12.6 322.3,13.2 322.8,13.9 323.3,14.6 323.7,15.4 324.1,16.2 324.4,17 324.6,17.8 324.8,18.7 324.9,19.6 324.9,20.4 324.8,21.3 324.6,22.2 324.4,23 324.1,23.8 323.7,24.6 323.3,25.4 322.8,26.1 322.3,26.7 321.6,27.4 321,27.9 320.3,28.4 319.5,28.9 318.7,29.2 317.9,29.5 317,29.8 316.2,29.9 315.3,30" />
<path stroke="#663399" stroke-width="2" d="M 331.5,70" />
<path stroke="#663399" stroke-width="2" d="M 341.5,70" />
<path stroke="#663399" stroke-width="2" d="M 341.5,10 341.5,30" />
<path stroke="#663399" stroke-width="2" d="M 348.2,70" />
<path stroke="#663399" stroke-width="2" d="M 358.2,10 357.3,10 356.5,10.1 355.6,10.2 354.8,10.5 353.9,10.8 353.1,11.1 352.4,11.6 351.7,12.1 351,12.6 350.4,13.2 349.8,13.9 349.3,14.6 348.9,15.4 348.5,16.2 348.2,17 348,17.8 347.9,18.7 347.8,19.6 347.8,20.4 347.9,21.3 348,22.2 348.2,23 348.5,23.8 348.9,24.6 349.3,25.4 349.8,26.1 350.4,26.7 351,27.4 351.7,27.9 352.4,28.4 353.1,28.9 353.9,29.2 354.8,29.5 355.6,29.8 356.5,29.9 357.3,30" />
<path stroke="#663399" stroke-width="2" d="M 364.9,70" />
<path stroke="#663399" stroke-width="2" d="M 364.9,10 368.7,19.2" />
<path stroke="#663399" stroke-width="2" d="M 368.7,19.2 370.6,21.4 371.9,23.3 372.7,25 373,26.4 372.9,27.7 372.5,28.7 371.8,29.5 370.9,30 369.8,30.4 368.7,30.5 367.6,30.4 366.5,30 365.6,29.5 364.9,28.7 364.5,27.7 364.4,26.4 364.7,25 365.5,23.3 366.8,21.4 368.7,19.2 372.5,10" />
<path stroke="#663399" stroke-width="2" d="M 379.2,70" />
<path stroke="#663399" stroke-width="2" d="M 379.2,10 389.2,10" />
<path stroke="#663399" stroke-width="2" d="M 395.9,70" />
<path stroke="#663399" stroke-width="2" d="M 395.9,10 396.7,10 397.6,10.1 398.5,10.2 399.3,10.5 400.1,10.8 400.9,11.1 401.7,11.6 402.4,12.1 403,12.6 403.7,13.2 404.2,13.9 404.7,14.6 405.2,15.4 405.5,16.2 405.8,17 406.1,17.8 406.2,18.7 406.3,19.6 406.3,20.4 406.2,21.3 406.1,22.2 405.8,23 405.5,23.8 405.2,24.6 404.7,25.4 404.2,26.1 403.7,26.7 403,27.4 402.4,27.9 401.7,28.4 400.9,28.9 400.1,29.2 399.3,29.5 398.5,29.8 397.6,29.9 396.7,30" />
<path stroke="#663399" stroke-width="2" d="M 412.9,70" />
<path stroke="#663399" stroke-width="2" d="M 422.9,70" />
<path stroke="#663399" stroke-width="2" d="M 430.9,10 421,19.9 430.9,29.8" />
<path stroke="#663399" stroke-width="2" d="M 437.6,70" />
<path stroke="#663399" stroke-width="2" d="M 439.6,10 448.1,18.5" />
<path stroke="#663399" stroke-width="2" d="M 456.6,10 436.8,29.8" />
<path stroke="#663399" stroke-width="2" d="M 463.3,70" />
<path stroke="#663399" stroke-width="2" d="M 463.3,10 464.1,10 465,10.1 465.9,10.2 466.7,10.5 467.5,10.8 468.3,11.1 469.1,11.6 469.8,12.1 470.4,12.6 471.1,13.2 471.6,13.9 472.1,14.6 472.6,15.4 472.9,16.2 473.2,17 473.5,17.8 473.6,18.7 473.7,19.6 473.7,20.4 473.6,21.3 473.5,22.2 473.2,23 472.9,23.8 472.6,24.6 472.1,25.4 471.6,26.1 471.1,26.7 470.4,27.4 469.8,27.9 469.1,28.4 468.3,28.9 467.5,29.2 466.7,29.5 465.9,29.8 465,29.9 464.1,30" />
<path stroke="#663399" stroke-width="2" d="M 480.3,70" />
<path stroke="#663399" stroke-width="2" d="M 480.3,10 480.3,30 480.3,24 480.3,23.1 480.4,22.3 480.6,21.4 480.8,20.6 481.1,19.7 481.5,18.9 481.9,18.2 482.4,17.5 483,16.8 483.6,16.2 484.2,15.6 485,15.1 485.7,14.7 486.5,14.3 487.3,14 488.2,13.8 489,13.6 489.9,13.6" />
<path stroke="#663399" stroke-width="2" d="M 496.6,70" />
<path stroke="#663399" stroke-width="2" d="M 496.6,30 504.2,11.5 511.9,30" />
<path stroke="#663399" stroke-width="2" d="M 518.5,70" />
</svg>