<svg xmlns="http://www.w3.org/2000/svg" width="695.8787299318456" height="60.0" style="fill:none; stroke-linecap:round;">
    <rect width="100%" height="100%" fill="#F3F3F7" />
<path stroke="#663399" stroke-width="2" d="M 300,50" />
<path stroke="#663399" stroke-width="2" d="M 30,40 30.9,40 31.7,39.9 32.6,39.8 33.4,39.5 34.3,39.2 35.1,38.9 35.8,38.4 36.5,37.9 37.2,37.4 37.8,36.8 38.4,36.1 38.9,35.4 39.3,34.6 39.7,33.8 40,33 40.2,32.2 40.4,31.3 40.4,30.4 40.4,29.6 40.4,28.7 40.2,27.8 40,27 39.7,26.2 39.3,25.4 38.9,24.6 38.4,23.9 37.8,23.3 37.2,22.6 36.5,22.1 35.8,21.6 35.1,21.1 34.3,20.8 33.4,20.5 32.6,20.2 31.7,20.1 30.9,20 30,20 29.1,20.1 28.3,20.2 27.4,20.5 26.6,20.8 25.8,21.1 25.1,21.6 24.3,22.1 23.7,22.6 23.1,23.3 22.5,23.9 22,24.6 21.6,25.4 21.2,26.2 20.9,27 20.7,27.8 20.5,28.7 20.4,29.6 20.4,30.4 20.5,31.3 20.7,32.2 20.9,33 21.2,33.8 21.6,34.6 22,35.4 22.5,36.1 23.1,36.8 23.7,37.4 24.3,37.9 25.1,38.4 25.8,38.9 26.6,39.2 27.4,39.5 28.3,39.8 29.1,39.9 30,40" />
<path stroke="#663399" stroke-width="2" d="M 47.1,70" />
<path stroke="#663399" stroke-width="2" d="M 49.1,40 54.5,27.1 54.6,26.7 54.7,26.4 54.8,26.1 54.8,25.7 54.8,25.4 54.8,25 54.8,24.7 54.7,24.3 54.6,24 54.5,23.7 54.3,23.4 54.1,23.1 53.9,22.8 53.7,22.5 53.4,22.3 53.1,22.1 52.8,21.9 52.5,21.7 52.2,21.6 51.9,21.5 51.5,21.4 51.2,21.4 50.8,21.4 50.5,21.4 50.1,21.4 49.8,21.5 49.5,21.6 49.1,21.7 48.8,21.9 48.5,22.1 48.3,22.3 48,22.5 47.8,22.8 47.5,23.1 47.4,23.4 47.2,23.7 47.1,24 47,24.3 46.9,24.7 46.8,25 46.8,25.4 46.8,25.7 46.9,26.1 47,26.4 47.1,26.7 47.2,27.1 47.4,27.4 47.5,27.7 47.8,27.9 48,28.2 48.3,28.4 48.5,28.7 48.8,28.8 49.1,29 49.5,29.1 49.8,29.2 50.1,29.3 50.5,29.4 50.8,29.4 51.2,29.4 64.1,24" />
<path stroke="#663399" stroke-width="2" d="M 70.8,70" />
<path stroke="#663399" stroke-width="2" d="M 94.1,70" />
<path stroke="#663399" stroke-width="2" d="M 94.1,20 104,29.9 94.1,39.8" />
<path stroke="#663399" stroke-width="2" d="M 110.7,70" />
<path stroke="#663399" stroke-width="2" d="M 112.7,40 118,27.1 118.2,26.7 118.3,26.4 118.3,26.1 118.4,25.7 118.4,25.4 118.4,25 118.3,24.7 118.3,24.3 118.2,24 118,23.7 117.9,23.4 117.7,23.1 117.5,22.8 117.2,22.5 117,22.3 116.7,22.1 116.4,21.9 116.1,21.7 115.8,21.6 115.4,21.5 115.1,21.4 114.8,21.4 114.4,21.4 114.1,21.4 113.7,21.4 113.4,21.5 113,21.6 112.7,21.7 112.4,21.9 112.1,22.1 111.8,22.3 111.6,22.5 111.3,22.8 111.1,23.1 110.9,23.4 110.8,23.7 110.6,24 110.5,24.3 110.5,24.7 110.4,25 110.4,25.4 110.4,25.7 110.5,26.1 110.5,26.4 110.6,26.7 110.8,27.1 110.9,27.4 111.1,27.7 111.3,27.9 111.6,28.2 111.8,28.4 112.1,28.7 112.4,28.8 112.7,29 113,29.1 113.4,29.2 113.7,29.3 114.1,29.4 114.4,29.4 114.8,29.4 127.7,24" />
<path stroke="#663399" stroke-width="2" d="M 134.4,70" />
<path stroke="#663399" stroke-width="2" d="M 136.4,40 141.7,27.1 141.8,26.7 142,26.4 142,26.1 142.1,25.7 142.1,25.4 142.1,25 142,24.7 142,24.3 141.8,24 141.7,23.7 141.6,23.4 141.4,23.1 141.2,22.8 140.9,22.5 140.7,22.3 140.4,22.1 140.1,21.9 139.8,21.7 139.5,21.6 139.1,21.5 138.8,21.4 138.4,21.4 138.1,21.4 137.7,21.4 137.4,21.4 137.1,21.5 136.7,21.6 136.4,21.7 136.1,21.9 135.8,22.1 135.5,22.3 135.3,22.5 135,22.8 134.8,23.1 134.6,23.4 134.5,23.7 134.3,24 134.2,24.3 134.1,24.7 134.1,25 134.1,25.4 134.1,25.7 134.1,26.1 134.2,26.4 134.3,26.7 134.5,27.1 134.6,27.4 134.8,27.7 135,27.9 135.3,28.2 135.5,28.4 135.8,28.7 136.1,28.8 136.4,29 136.7,29.1 137.1,29.2 137.4,29.3 137.7,29.4 138.1,29.4 138.4,29.4 151.4,24" />
<path stroke="#663399" stroke-width="2" d="M 158,70" />
<path stroke="#663399" stroke-width="2" d="M 158,20 158,40 158,34 158,33.1 158.1,32.3 158.3,31.4 158.5,30.6 158.8,29.7 159.2,28.9 159.6,28.2 160.1,27.5 160.7,26.8 161.3,26.2 161.9,25.6 162.7,25.1 163.4,24.7 164.2,24.3 165,24 165.9,23.8 166.7,23.6 167.6,23.6" />
<path stroke="#663399" stroke-width="2" d="M 174.3,70" />
<path stroke="#663399" stroke-width="2" d="M 176.3,20 184.7,28.5" />
<path stroke="#663399" stroke-width="2" d="M 193.2,20 173.4,39.8" />
<path stroke="#663399" stroke-width="2" d="M 199.9,70" />
<path stroke="#663399" stroke-width="2" d="M 223.2,70" />
<path stroke="#663399" stroke-width="2" d="M 223.2,40 230.9,21.5 238.5,40" />
<path stroke="#663399" stroke-width="2" d="M 245.2,70" />
<path stroke="#663399" stroke-width="2" d="M 245.2,20 265.2,20" />
<path stroke="#663399" stroke-width="2" d="M 271.9,70" />
<path stroke="#663399" stroke-width="2" d="M 271.9,20 272.7,20 273.6,20.1 274.5,20.2 275.3,20.5 276.1,20.8 276.9,21.1 277.7,21.6 278.4,22.1 279.1,22.6 279.7,23.2 280.2,23.9 280.7,24.6 281.2,25.4 281.5,26.2 281.8,27 282.1,27.8 282.2,28.7 282.3,29.6 282.3,30.4 282.2,31.3 282.1,32.2 281.8,33 281.5,33.8 281.2,34.6 280.7,35.4 280.2,36.1 279.7,36.7 279.1,37.4 278.4,37.9 277.7,38.4 276.9,38.9 276.1,39.2 275.3,39.5 274.5,39.8 273.6,39.9 272.7,40" />
<path stroke="#663399" stroke-width="2" d="M 289,70" />
<path stroke="#663399" stroke-width="2" d="M 312.3,70" />
<path stroke="#663399" stroke-width="2" d="M 312.3,20 313.2,20 314,20.1 314.9,20.2 315.7,20.5 316.6,20.8 317.4,21.1 318.1,21.6 318.8,22.1 319.5,22.6 320.1,23.2 320.7,23.9 321.2,24.6 321.6,25.4 322,26.2 322.3,27 322.5,27.8 322.6,28.7 322.7,29.6 322.7,30.4 322.6,31.3 322.5,32.2 322.3,33 322,33.8 321.6,34.6 321.2,35.4 320.7,36.1 320.1,36.7 319.5,37.4 318.8,37.9 318.1,38.4 317.4,38.9 316.6,39.2 315.7,39.5 314.9,39.8 314,39.9 313.2,40" />
<path stroke="#663399" stroke-width="2" d="M 329.4,70" />
<path stroke="#663399" stroke-width="2" d="M 329.4,20 333.2,29.2" />
<path stroke="#663399" stroke-width="2" d="M 333.2,29.2 335.1,31.4 336.5,33.3 337.2,35 337.5,36.4 337.4,37.7 337,38.7 336.3,39.5 335.4,40 334.3,40.4 333.2,40.5 332.1,40.4 331.1,40 330.1,39.5 329.4,38.7 329,37.7 328.9,36.4 329.2,35 330,33.3 331.3,31.4 333.2,29.2 337,20" />
<path stroke="#663399" stroke-width="2" d="M 343.7,70" />
<path stroke="#663399" stroke-width="2" d="M 353.7,20 346.1,38.5" />
<path stroke="#663399" stroke-width="2" d="M 360.4,70" />
<path stroke="#663399" stroke-width="2" d="M 360.4,20 360.4,40 370.4,40" />
<path stroke="#663399" stroke-width="2" d="M 377,70" />
<path stroke="#663399" stroke-width="2" d="M 377,20 382,20 382,40" />
<path stroke="#663399" stroke-width="2" d="M 388.7,70" />
<path stroke="#663399" stroke-width="2" d="M 388.7,20 392.5,29.2" />
<path stroke="#663399" stroke-width="2" d="M 392.5,29.2 394.5,31.4 395.8,33.3 396.6,35 396.9,36.4 396.8,37.7 396.3,38.7 395.6,39.5 394.7,40 393.7,40.4 392.5,40.5 391.4,40.4 390.4,40 389.5,39.5 388.8,38.7 388.3,37.7 388.2,36.4 388.5,35 389.3,33.3 390.6,31.4 392.5,29.2 396.4,20" />
<path stroke="#663399" stroke-width="2" d="M 403,70" />
<path stroke="#663399" stroke-width="2" d="M 403,20 403,20.7 403.1,21.4 403.2,22.1 403.4,22.8 403.6,23.4 403.9,24 404.3,24.6 404.7,25.2 405.1,25.8 405.6,26.2 406.2,26.7 406.7,27.1 407.3,27.4 408,27.7 408.6,28 409.3,28.2 410,28.3 410.7,28.3 411.4,28.3 412.1,28.3 412.8,28.2 413.4,28 414.1,27.7 414.7,27.4 415.3,27.1 415.9,26.7 416.4,26.2 416.9,25.8 417.4,25.2 417.8,24.6 418.1,24 418.4,23.4 418.7,22.8 418.8,22.1 419,21.4 419,20.7" />
<path stroke="#663399" stroke-width="2" d="M 425.7,70" />
<path stroke="#663399" stroke-width="2" d="M 449,70" />
<path stroke="#663399" stroke-width="2" d="M 451,40 456.4,27.1 456.5,26.7 456.6,26.4 456.7,26.1 456.7,25.7 456.7,25.4 456.7,25 456.7,24.7 456.6,24.3 456.5,24 456.4,23.7 456.2,23.4 456,23.1 455.8,22.8 455.6,22.5 455.3,22.3 455,22.1 454.7,21.9 454.4,21.7 454.1,21.6 453.8,21.5 453.4,21.4 453.1,21.4 452.7,21.4 452.4,21.4 452.1,21.4 451.7,21.5 451.4,21.6 451.1,21.7 450.7,21.9 450.5,22.1 450.2,22.3 449.9,22.5 449.7,22.8 449.5,23.1 449.3,23.4 449.1,23.7 449,24 448.9,24.3 448.8,24.7 448.8,25 448.7,25.4 448.8,25.7 448.8,26.1 448.9,26.4 449,26.7 449.1,27.1 449.3,27.4 449.5,27.7 449.7,27.9 449.9,28.2 450.2,28.4 450.5,28.7 450.7,28.8 451.1,29 451.4,29.1 451.7,29.2 452.1,29.3 452.4,29.4 452.7,29.4 453.1,29.4 466,24" />
<path stroke="#663399" stroke-width="2" d="M 472.7,70" />
<path stroke="#663399" stroke-width="2" d="M 472.7,40 480.4,21.5 488,40" />
<path stroke="#663399" stroke-width="2" d="M 494.7,70" />
<path stroke="#663399" stroke-width="2" d="M 494.7,20 494.7,40 494.7,34 494.7,33.1 494.7,32.3 494.9,31.4 495.1,30.6 495.4,29.7 495.8,28.9 496.2,28.2 496.7,27.5 497.3,26.8 497.9,26.2 498.6,25.6 499.3,25.1 500,24.7 500.8,24.3 501.7,24 502.5,23.8 503.4,23.6 504.2,23.6" />
<path stroke="#663399" stroke-width="2" d="M 510.9,70" />
<path stroke="#663399" stroke-width="2" d="M 520.9,20 513.2,38.5" />
<path stroke="#663399" stroke-width="2" d="M 527.6,70" />
<path stroke="#663399" stroke-width="2" d="M 535.6,20 525.7,29.9 535.6,39.8" />
<path stroke="#663399" stroke-width="2" d="M 542.2,70" />
<path stroke="#663399" stroke-width="2" d="M 565.6,70" />
<path stroke="#663399" stroke-width="2" d="M 573.6,20 574.1,20 574.6,20 575.1,20.1 575.6,20.3 576.1,20.5 576.6,20.7 577,20.9 577.5,21.2 577.9,21.6 578.2,21.9 578.6,22.3 578.9,22.8 579.1,23.2 579.4,23.7 579.5,24.2 579.7,24.7 579.8,25.2 579.8,25.7 579.8,26.3 579.8,26.8 579.7,27.3 579.5,27.8 579.4,28.3 579.1,28.8 578.9,29.2 578.6,29.6 578.2,30 577.9,30.4 577.5,30.8 577,31.1 576.6,31.3 576.1,31.5 575.6,31.7 575.1,31.9 574.6,31.9 574.1,32 573.6,32 573,31.9 572.5,31.9 572,31.7 571.5,31.5 571.1,31.3 570.6,31.1 570.2,30.8 569.8,30.4 569.4,30 569.1,29.6 568.8,29.2 568.5,28.8 568.3,28.3 568.1,27.8 568,27.3 567.9,26.8 567.8,26.3 567.8,25.7 567.9,25.2 568,24.7 568.1,24.2 568.3,23.7 568.5,23.2 568.8,22.8 569.1,22.3 569.4,21.9 569.8,21.6 570.2,21.2 570.6,20.9 571.1,20.7 571.5,20.5 572,20.3 572.5,20.1 573,20 573.6,20 591.6,20" />
<path stroke="#663399" stroke-width="2" d="M 598.2,70" />
<path stroke="#663399" stroke-width="2" d="M 608.2,20 607.4,20 606.5,20.1 605.6,20.2 604.8,20.5 604,20.8 603.2,21.1 602.4,21.6 601.7,22.1 601,22.6 600.4,23.2 599.9,23.9 599.4,24.6 598.9,25.4 598.6,26.2 598.3,27 598,27.8 597.9,28.7 597.8,29.6 597.8,30.4 597.9,31.3 598,32.2 598.3,33 598.6,33.8 598.9,34.6 599.4,35.4 599.9,36.1 600.4,36.7 601,37.4 601.7,37.9 602.4,38.4 603.2,38.9 604,39.2 604.8,39.5 605.6,39.8 606.5,39.9 607.4,40" />
<path stroke="#663399" stroke-width="2" d="M 614.9,70" />
<path stroke="#663399" stroke-width="2" d="M 614.9,20 634.9,20" />
<path stroke="#663399" stroke-width="2" d="M 641.6,70" />
<path stroke="#663399" stroke-width="2" d="M 643.6,20 652,28.5" />
<path stroke="#663399" stroke-width="2" d="M 660.5,20 640.7,39.8" />
<path stroke="#663399" stroke-width="2" d="M 667.2,70" />
<path stroke="#663399" stroke-width="2" d="M 667.2,25 667.5,25.3 667.8,25.6 668.2,25.8 668.6,26.1 669,26.2 669.4,26.4 669.8,26.5 670.2,26.6 670.7,26.6 671.1,26.6 671.5,26.6 672,26.5 672.4,26.4 672.8,26.2 673.2,26.1 673.6,25.8 673.9,25.6 674.3,25.3 674.6,25 674.9,24.7 675.1,24.3 675.3,23.9 675.5,23.5 675.7,23.1 675.8,22.7 675.8,22.3 675.9,21.8 675.9,21.4 675.8,21 675.8,20.5 675.7,20.1 675.5,19.7 675.3,19.3 675.1,18.9 674.9,18.6 674.6,18.2 674.3,17.9 673.9,17.7 673.6,17.4 673.2,17.2 672.8,17 672.4,16.9 672,16.7 671.5,16.7 671.1,16.6 670.7,16.6 670.2,16.7 669.8,16.7 669.4,16.9 669,17 668.6,17.2 668.2,17.4 667.8,17.7 667.5,17.9 667.2,18.2 666.9,18.6 666.7,18.9 666.4,19.3 666.3,19.7 666.1,20.1 666,20.5 665.9,21 665.9,21.4 665.9,21.8 665.9,22.3 666,22.7 666.1,23.1 666.3,23.5 666.4,23.9 666.7,24.3 666.9,24.7 667.2,25 667.2,40" />
<path stroke="#663399" stroke-width="2" d="M 682.5,70" />
</svg>