<svg xmlns="http://www.w3.org/2000/svg" width="600" height="40" style="fill:none; stroke-linecap:round;">
    <rect width="100%" height="100%" fill="#F3F3F7" />
<path stroke="#663399" stroke-width="2" d="M 300,20" />
<path stroke="#663399" stroke-width="2" d="M 20,10 19.1,10 18.3,10.1 17.4,10.2 16.6,10.5 15.7,10.8 14.9,11.1 14.2,11.6 13.5,12.1 12.8,12.6 12.2,13.2 11.6,13.9 11.1,14.6 10.7,15.4 10.3,16.2 10,17 9.8,17.8 9.6,18.7 9.6,19.6 9.6,20.4 9.6,21.3 9.8,22.2 10,23 10.3,23.8 10.7,24.6 11.1,25.4 11.6,26.1 12.2,26.7 12.8,27.4 13.5,27.9 14.2,28.4 14.9,28.9 15.7,29.2 16.6,29.5 17.4,29.8 18.3,29.9 19.1,30" />
<path stroke="#663399" stroke-width="2" d="M 26.7,30" />
<path stroke="#663399" stroke-width="2" d="M 26.7,10 34.3,28.5 42,10" />
<path stroke="#663399" stroke-width="2" d="M 48.6,30" />
<path stroke="#663399" stroke-width="2" d="M 50.6,30 56,17.1 56.1,16.7 56.2,16.4 56.3,16.1 56.4,15.7 56.4,15.4 56.4,15 56.3,14.7 56.2,14.3 56.1,14 56,13.7 55.8,13.4 55.6,13.1 55.4,12.8 55.2,12.5 54.9,12.3 54.7,12.1 54.4,11.9 54.1,11.7 53.7,11.6 53.4,11.5 53.1,11.4 52.7,11.4 52.4,11.4 52,11.4 51.7,11.4 51.3,11.5 51,11.6 50.7,11.7 50.4,11.9 50.1,12.1 49.8,12.3 49.5,12.5 49.3,12.8 49.1,13.1 48.9,13.4 48.7,13.7 48.6,14 48.5,14.3 48.4,14.7 48.4,15 48.4,15.4 48.4,15.7 48.4,16.1 48.5,16.4 48.6,16.7 48.7,17.1 48.9,17.4 49.1,17.7 49.3,17.9 49.5,18.2 49.8,18.4 50.1,18.7 50.4,18.8 50.7,19 51,19.1 51.3,19.2 51.7,19.3 52,19.4 52.4,19.4 52.7,19.4 65.7,14" />
<path stroke="#663399" stroke-width="2" d="M 72.3,30" />
<path stroke="#663399" stroke-width="2" d="M 72.3,10 72.3,30 72.3,24 72.3,23.1 72.4,22.3 72.6,21.4 72.8,20.6 73.1,19.7 73.4,18.9 73.9,18.2 74.4,17.5 74.9,16.8 75.6,16.2 76.2,15.6 76.9,15.1 77.7,14.7 78.5,14.3 79.3,14 80.1,13.8 81,13.6 81.9,13.6" />
<path stroke="#663399" stroke-width="2" d="M 88.5,30" />
<path stroke="#663399" stroke-width="2" d="M 98.5,30" />
<path stroke="#663399" stroke-width="2" d="M 118.5,20 119.4,20 120.3,19.9 121.1,19.8 122,19.5 122.8,19.2 123.6,18.9 124.4,18.4 125.1,17.9 125.7,17.4 126.4,16.8 126.9,16.1 127.4,15.4 127.8,14.6 128.2,13.8 128.5,13 128.7,12.2 128.9,11.3 129,10.4 129,9.6 128.9,8.7 128.7,7.8 128.5,7 128.2,6.2 127.8,5.4 127.4,4.6 126.9,3.9 126.4,3.3 125.7,2.6 125.1,2.1 124.4,1.6 123.6,1.1 122.8,0.8 122,0.5 121.1,0.2 120.3,0.1 119.4,0 118.5,0 117.7,0.1 116.8,0.2 116,0.5 115.2,0.8 114.4,1.1 113.6,1.6 112.9,2.1 112.2,2.6 111.6,3.3 111,3.9 110.5,4.6 110.1,5.4 109.7,6.2 109.4,7 109.2,7.8 109.1,8.7 109,9.6 109,10.4 109.1,11.3 109.2,12.2 109.4,13 109.7,13.8 110.1,14.6 110.5,15.4 111,16.1 111.6,16.8 112.2,17.4 112.9,17.9 113.6,18.4 114.4,18.9 115.2,19.2 116,19.5 116.8,19.8 117.7,19.9 118.5,20" />
<path stroke="#663399" stroke-width="2" d="M 135.6,30" />
<path stroke="#663399" stroke-width="2" d="M 137.6,30 143,17.1 143.1,16.7 143.2,16.4 143.3,16.1 143.4,15.7 143.4,15.4 143.4,15 143.3,14.7 143.2,14.3 143.1,14 143,13.7 142.8,13.4 142.6,13.1 142.4,12.8 142.2,12.5 141.9,12.3 141.7,12.1 141.4,11.9 141.1,11.7 140.7,11.6 140.4,11.5 140.1,11.4 139.7,11.4 139.4,11.4 139,11.4 138.7,11.4 138.3,11.5 138,11.6 137.7,11.7 137.4,11.9 137.1,12.1 136.8,12.3 136.5,12.5 136.3,12.8 136.1,13.1 135.9,13.4 135.7,13.7 135.6,14 135.5,14.3 135.4,14.7 135.4,15 135.4,15.4 135.4,15.7 135.4,16.1 135.5,16.4 135.6,16.7 135.7,17.1 135.9,17.4 136.1,17.7 136.3,17.9 136.5,18.2 136.8,18.4 137.1,18.7 137.4,18.8 137.7,19 138,19.1 138.3,19.2 138.7,19.3 139,19.4 139.4,19.4 139.7,19.4 152.7,14" />
<path stroke="#663399" stroke-width="2" d="M 159.3,30" />
<path stroke="#663399" stroke-width="2" d="M 169.3,30" />
<path stroke="#663399" stroke-width="2" d="M 169.3,10 169.3,10.7 169.4,11.4 169.5,12.1 169.7,12.8 169.9,13.4 170.2,14 170.6,14.6 171,15.2 171.4,15.8 171.9,16.2 172.4,16.7 173,17.1 173.6,17.4 174.2,17.7 174.9,18 175.6,18.2 176.3,18.3 177,18.3 177.7,18.3 178.4,18.3 179,18.2 179.7,18 180.4,17.7 181,17.4 181.6,17.1 182.2,16.7 182.7,16.2 183.2,15.8 183.7,15.2 184.1,14.6 184.4,14 184.7,13.4 184.9,12.8 185.1,12.1 185.2,11.4 185.3,10.7" />
<path stroke="#663399" stroke-width="2" d="M 192,30" />
<path stroke="#663399" stroke-width="2" d="M 192,30 199.6,11.5 207.3,30" />
<path stroke="#663399" stroke-width="2" d="M 213.9,30" />
<path stroke="#663399" stroke-width="2" d="M 213.9,10 233.9,10 214.1,29.8 234.1,29.8" />
<path stroke="#663399" stroke-width="2" d="M 240.8,30" />
<path stroke="#663399" stroke-width="2" d="M 242.8,10 251.3,18.5" />
<path stroke="#663399" stroke-width="2" d="M 259.8,10 240,29.8" />
<path stroke="#663399" stroke-width="2" d="M 266.4,30" />
<path stroke="#663399" stroke-width="2" d="M 276.4,30" />
<path stroke="#663399" stroke-width="2" d="M 276.4,10 276.4,14 276.4,14.5 276.5,15 276.6,15.6 276.7,16.1 276.9,16.6 277.1,17 277.4,17.5 277.7,17.9 278,18.3 278.4,18.7 278.8,19 279.2,19.3 279.7,19.6 280.1,19.8 280.6,20 281.1,20.1 281.7,20.2 282.2,20.3 282.7,20.3 283.2,20.2 283.7,20.1 284.2,20 284.7,19.8 285.2,19.6 285.7,19.3 286.1,19 286.5,18.7 286.9,18.3 287.2,17.9 287.5,17.5 287.8,17 288,16.6 288.2,16.1 288.3,15.6 288.4,15 288.4,14.5 288.4,9.5 288.4,29.5" />
<path stroke="#663399" stroke-width="2" d="M 295.1,30" />
<path stroke="#663399" stroke-width="2" d="M 295.1,10 295.1,30 295.1,24 295.1,23.1 295.2,22.3 295.3,21.4 295.6,20.6 295.9,19.7 296.2,18.9 296.7,18.2 297.2,17.5 297.7,16.8 298.3,16.2 299,15.6 299.7,15.1 300.5,14.7 301.3,14.3 302.1,14 302.9,13.8 303.8,13.6 304.7,13.6" />
<path stroke="#663399" stroke-width="2" d="M 311.3,30" />
<path stroke="#663399" stroke-width="2" d="M 313.3,10 321.8,18.5" />
<path stroke="#663399" stroke-width="2" d="M 330.3,10 310.5,29.8" />
<path stroke="#663399" stroke-width="2" d="M 337,30" />
<path stroke="#663399" stroke-width="2" d="M 345,10 345.5,10 346,10 346.5,10.1 347,10.3 347.5,10.5 348,10.7 348.4,10.9 348.9,11.2 349.3,11.6 349.6,11.9 350,12.3 350.3,12.8 350.5,13.2 350.8,13.7 350.9,14.2 351.1,14.7 351.2,15.2 351.2,15.7 351.2,16.3 351.2,16.8 351.1,17.3 350.9,17.8 350.8,18.3 350.5,18.8 350.3,19.2 350,19.6 349.6,20 349.3,20.4 348.9,20.8 348.4,21.1 348,21.3 347.5,21.5 347,21.7 346.5,21.9 346,21.9 345.5,22 345,22 344.4,21.9 343.9,21.9 343.4,21.7 342.9,21.5 342.5,21.3 342,21.1 341.6,20.8 341.2,20.4 340.8,20 340.5,19.6 340.2,19.2 339.9,18.8 339.7,18.3 339.5,17.8 339.4,17.3 339.3,16.8 339.2,16.3 339.2,15.7 339.3,15.2 339.4,14.7 339.5,14.2 339.7,13.7 339.9,13.2 340.2,12.8 340.5,12.3 340.8,11.9 341.2,11.6 341.6,11.2 342,10.9 342.5,10.7 342.9,10.5 343.4,10.3 343.9,10.1 344.4,10 345,10 363,10" />
<path stroke="#663399" stroke-width="2" d="M 369.6,30" />
<path stroke="#663399" stroke-width="2" d="M 377.6,10 367.7,19.9 377.6,29.8" />
<path stroke="#663399" stroke-width="2" d="M 384.3,30" />
<path stroke="#663399" stroke-width="2" d="M 394.3,10 393.4,10 392.6,10.1 391.7,10.2 390.9,10.5 390,10.8 389.2,11.1 388.5,11.6 387.8,12.1 387.1,12.6 386.5,13.2 385.9,13.9 385.4,14.6 385,15.4 384.6,16.2 384.3,17 384.1,17.8 383.9,18.7 383.9,19.6 383.9,20.4 383.9,21.3 384.1,22.2 384.3,23 384.6,23.8 385,24.6 385.4,25.4 385.9,26.1 386.5,26.7 387.1,27.4 387.8,27.9 388.5,28.4 389.2,28.9 390,29.2 390.9,29.5 391.7,29.8 392.6,29.9 393.4,30" />
<path stroke="#663399" stroke-width="2" d="M 401,30" />
<path stroke="#663399" stroke-width="2" d="M 401,10 411,10" />
<path stroke="#663399" stroke-width="2" d="M 417.6,30" />
</svg>