<svg xmlns="http://www.w3.org/2000/svg" width="600" height="40" style="fill:none; stroke-linecap:round;">
    <rect width="100%" height="100%" fill="#F3F3F7" />
<path stroke="#663399" stroke-width="2" d="M 300,20" />
<path stroke="#663399" stroke-width="2" d="M 10,30 17.7,11.5 25.3,30" />
<path stroke="#663399" stroke-width="2" d="M 32,30" />
<path stroke="#663399" stroke-width="2" d="M 32,10 42,10" />
<path stroke="#663399" stroke-width="2" d="M 48.6,30" />
<path stroke="#663399" stroke-width="2" d="M 48.6,10 49.5,10 50.4,10.1 51.2,10.2 52.1,10.5 52.9,10.8 53.7,11.1 54.4,11.6 55.2,12.1 55.8,12.6 56.4,13.2 57,13.9 57.5,14.6 57.9,15.4 58.3,16.2 58.6,17 58.8,17.8 59,18.7 59.1,19.6 59.1,20.4 59,21.3 58.8,22.2 58.6,23 58.3,23.8 57.9,24.6 57.5,25.4 57,26.1 56.4,26.7 55.8,27.4 55.2,27.9 54.4,28.4 53.7,28.9 52.9,29.2 52.1,29.5 51.2,29.8 50.4,29.9 49.5,30" />
<path stroke="#663399" stroke-width="2" d="M 65.7,30" />
<path stroke="#663399" stroke-width="2" d="M 75.7,30" />
<path stroke="#663399" stroke-width="2" d="M 83.7,10 83.7,25" />
<path stroke="#663399" stroke-width="2" d="M 83.7,25 83.6,27 83.3,28.6 82.9,29.9 82.3,30.8 81.6,31.3 80.9,31.6 80.2,31.7 79.4,31.5 78.7,31.1 78.1,30.6 77.6,30 77.3,29.3 77.1,28.6 77.1,27.8 77.4,27.1 78,26.4 78.9,25.9 80.1,25.4 81.7,25.1 83.7,25" />
<path stroke="#663399" stroke-width="2" d="M 90.4,30" />
<path stroke="#663399" stroke-width="2" d="M 90.4,30 98.1,11.5 105.7,30" />
<path stroke="#663399" stroke-width="2" d="M 112.4,30" />
<path stroke="#663399" stroke-width="2" d="M 122.4,10 114.7,28.5" />
<path stroke="#663399" stroke-width="2" d="M 129,30" />
<path stroke="#663399" stroke-width="2" d="M 139,30" />
<path stroke="#663399" stroke-width="2" d="M 149,10 148.2,10 147.3,10.1 146.4,10.2 145.6,10.5 144.8,10.8 144,11.1 143.2,11.6 142.5,12.1 141.8,12.6 141.2,13.2 140.7,13.9 140.2,14.6 139.7,15.4 139.4,16.2 139.1,17 138.8,17.8 138.7,18.7 138.6,19.6 138.6,20.4 138.7,21.3 138.8,22.2 139.1,23 139.4,23.8 139.7,24.6 140.2,25.4 140.7,26.1 141.2,26.7 141.8,27.4 142.5,27.9 143.2,28.4 144,28.9 144.8,29.2 145.6,29.5 146.4,29.8 147.3,29.9 148.2,30" />
<path stroke="#663399" stroke-width="2" d="M 155.7,30" />
<path stroke="#663399" stroke-width="2" d="M 155.7,10 165.7,10" />
<path stroke="#663399" stroke-width="2" d="M 172.4,30" />
<path stroke="#663399" stroke-width="2" d="M 182.4,30" />
<path stroke="#663399" stroke-width="2" d="M 202.4,20 202.4,20.9 202.3,21.7 202.1,22.6 201.9,23.4 201.6,24.3 201.3,25.1 200.8,25.8 200.3,26.5 199.8,27.2 199.1,27.8 198.5,28.4 197.8,28.9 197,29.3 196.2,29.7 195.4,30 194.5,30.2 193.7,30.4 192.8,30.4 191.9,30.4 191.1,30.4 190.2,30.2 189.4,30 188.6,29.7 187.8,29.3 187,28.9 186.3,28.4 185.6,27.8 185,27.2 184.5,26.5 184,25.8 183.5,25.1 183.1,24.3 182.8,23.4 182.6,22.6 182.5,21.7 182.4,20.9 182.4,20 182.5,19.1 182.6,18.3 182.8,17.4 183.1,16.6 183.5,15.8 184,15.1 184.5,14.3 185,13.7 185.6,13.1 186.3,12.5 187,12 187.8,11.6 188.6,11.2 189.4,10.9 190.2,10.7 191.1,10.5 191.9,10.4 192.8,10.4 193.7,10.5 194.5,10.7 195.4,10.9 196.2,11.2 197,11.6 197.8,12 198.5,12.5 199.1,13.1 199.8,13.7 200.3,14.3 200.8,15.1 201.3,15.8 201.6,16.6 201.9,17.4 202.1,18.3 202.3,19.1 202.4,20" />
<path stroke="#663399" stroke-width="2" d="M 209,30" />
<path stroke="#663399" stroke-width="2" d="M 211,30 216.4,17.1 216.5,16.7 216.6,16.4 216.7,16.1 216.8,15.7 216.8,15.4 216.8,15 216.7,14.7 216.6,14.3 216.5,14 216.4,13.7 216.2,13.4 216.1,13.1 215.8,12.8 215.6,12.5 215.3,12.3 215.1,12.1 214.8,11.9 214.5,11.7 214.1,11.6 213.8,11.5 213.5,11.4 213.1,11.4 212.8,11.4 212.4,11.4 212.1,11.4 211.7,11.5 211.4,11.6 211.1,11.7 210.8,11.9 210.5,12.1 210.2,12.3 209.9,12.5 209.7,12.8 209.5,13.1 209.3,13.4 209.1,13.7 209,14 208.9,14.3 208.8,14.7 208.8,15 208.8,15.4 208.8,15.7 208.8,16.1 208.9,16.4 209,16.7 209.1,17.1 209.3,17.4 209.5,17.7 209.7,17.9 209.9,18.2 210.2,18.4 210.5,18.7 210.8,18.8 211.1,19 211.4,19.1 211.7,19.2 212.1,19.3 212.4,19.4 212.8,19.4 213.1,19.4 226.1,14" />
<path stroke="#663399" stroke-width="2" d="M 232.7,30" />
<path stroke="#663399" stroke-width="2" d="M 242.7,30" />
<path stroke="#663399" stroke-width="2" d="M 242.7,10 242.7,10.7 242.8,11.4 242.9,12.1 243.1,12.8 243.3,13.4 243.6,14 244,14.6 244.4,15.2 244.8,15.8 245.3,16.2 245.8,16.7 246.4,17.1 247,17.4 247.7,17.7 248.3,18 249,18.2 249.7,18.3 250.4,18.3 251.1,18.3 251.8,18.3 252.4,18.2 253.1,18 253.8,17.7 254.4,17.4 255,17.1 255.6,16.7 256.1,16.2 256.6,15.8 257.1,15.2 257.5,14.6 257.8,14 258.1,13.4 258.3,12.8 258.5,12.1 258.6,11.4 258.7,10.7" />
<path stroke="#663399" stroke-width="2" d="M 265.4,30" />
<path stroke="#663399" stroke-width="2" d="M 265.4,30 273,11.5 280.7,30" />
<path stroke="#663399" stroke-width="2" d="M 287.3,30" />
<path stroke="#663399" stroke-width="2" d="M 287.3,10 297.3,10" />
<path stroke="#663399" stroke-width="2" d="M 304,30" />
<path stroke="#663399" stroke-width="2" d="M 304,10 304.9,10 305.8,10.1 306.6,10.2 307.5,10.5 308.3,10.8 309.1,11.1 309.8,11.6 310.5,12.1 311.2,12.6 311.8,13.2 312.4,13.9 312.9,14.6 313.3,15.4 313.7,16.2 314,17 314.2,17.8 314.4,18.7 314.4,19.6 314.4,20.4 314.4,21.3 314.2,22.2 314,23 313.7,23.8 313.3,24.6 312.9,25.4 312.4,26.1 311.8,26.7 311.2,27.4 310.5,27.9 309.8,28.4 309.1,28.9 308.3,29.2 307.5,29.5 306.6,29.8 305.8,29.9 304.9,30" />
<path stroke="#663399" stroke-width="2" d="M 321.1,30" />
<path stroke="#663399" stroke-width="2" d="M 331.1,30" />
<path stroke="#663399" stroke-width="2" d="M 331.1,10 331.1,30" />
<path stroke="#663399" stroke-width="2" d="M 337.8,30" />
<path stroke="#663399" stroke-width="2" d="M 347.8,10 346.9,10 346,10.1 345.2,10.2 344.3,10.5 343.5,10.8 342.7,11.1 342,11.6 341.3,12.1 340.6,12.6 340,13.2 339.4,13.9 338.9,14.6 338.5,15.4 338.1,16.2 337.8,17 337.6,17.8 337.4,18.7 337.3,19.6 337.3,20.4 337.4,21.3 337.6,22.2 337.8,23 338.1,23.8 338.5,24.6 338.9,25.4 339.4,26.1 340,26.7 340.6,27.4 341.3,27.9 342,28.4 342.7,28.9 343.5,29.2 344.3,29.5 345.2,29.8 346,29.9 346.9,30" />
<path stroke="#663399" stroke-width="2" d="M 354.4,30" />
<path stroke="#663399" stroke-width="2" d="M 354.4,10 358.3,19.2" />
<path stroke="#663399" stroke-width="2" d="M 358.3,19.2 360.2,21.4 361.5,23.3 362.3,25 362.6,26.4 362.5,27.7 362,28.7 361.3,29.5 360.4,30 359.4,30.4 358.3,30.5 357.2,30.4 356.1,30 355.2,29.5 354.5,28.7 354.1,27.7 353.9,26.4 354.3,25 355,23.3 356.3,21.4 358.3,19.2 362.1,10" />
<path stroke="#663399" stroke-width="2" d="M 368.8,30" />
<path stroke="#663399" stroke-width="2" d="M 368.8,10 378.8,10" />
<path stroke="#663399" stroke-width="2" d="M 385.4,30" />
<path stroke="#663399" stroke-width="2" d="M 385.4,10 386.3,10 387.2,10.1 388,10.2 388.9,10.5 389.7,10.8 390.5,11.1 391.2,11.6 392,12.1 392.6,12.6 393.2,13.2 393.8,13.9 394.3,14.6 394.7,15.4 395.1,16.2 395.4,17 395.6,17.8 395.8,18.7 395.9,19.6 395.9,20.4 395.8,21.3 395.6,22.2 395.4,23 395.1,23.8 394.7,24.6 394.3,25.4 393.8,26.1 393.2,26.7 392.6,27.4 392,27.9 391.2,28.4 390.5,28.9 389.7,29.2 388.9,29.5 388,29.8 387.2,29.9 386.3,30" />
<path stroke="#663399" stroke-width="2" d="M 402.5,30" />
<path stroke="#663399" stroke-width="2" d="M 412.5,30" />
<path stroke="#663399" stroke-width="2" d="M 420.5,10 410.6,19.9 420.5,29.8" />
<path stroke="#663399" stroke-width="2" d="M 427.2,30" />
<path stroke="#663399" stroke-width="2" d="M 429.2,10 437.7,18.5" />
<path stroke="#663399" stroke-width="2" d="M 446.2,10 426.4,29.8" />
<path stroke="#663399" stroke-width="2" d="M 452.8,30" />
<path stroke="#663399" stroke-width="2" d="M 452.8,10 453.7,10 454.6,10.1 455.4,10.2 456.3,10.5 457.1,10.8 457.9,11.1 458.6,11.6 459.4,12.1 460,12.6 460.6,13.2 461.2,13.9 461.7,14.6 462.1,15.4 462.5,16.2 462.8,17 463,17.8 463.2,18.7 463.3,19.6 463.3,20.4 463.2,21.3 463,22.2 462.8,23 462.5,23.8 462.1,24.6 461.7,25.4 461.2,26.1 460.6,26.7 460,27.4 459.4,27.9 458.6,28.4 457.9,28.9 457.1,29.2 456.3,29.5 455.4,29.8 454.6,29.9 453.7,30" />
<path stroke="#663399" stroke-width="2" d="M 469.9,30" />
<path stroke="#663399" stroke-width="2" d="M 469.9,10 469.9,30 469.9,20 469.9,19.1 470,18.3 470.1,17.4 470.4,16.6 470.7,15.7 471,14.9 471.5,14.2 472,13.5 472.5,12.8 473.2,12.2 473.8,11.6 474.5,11.1 475.3,10.7 476.1,10.3 476.9,10 477.7,9.8 478.6,9.6 479.5,9.6" />
<path stroke="#663399" stroke-width="2" d="M 486.1,30" />
<path stroke="#663399" stroke-width="2" d="M 486.1,30 493.8,11.5 501.4,30" />
<path stroke="#663399" stroke-width="2" d="M 508.1,30" />
</svg>