<svg xmlns="http://www.w3.org/2000/svg" width="600" height="40" style="fill:none; stroke-linecap:round;">
    <rect width="100%" height="100%" fill="#F3F3F7" />
<path stroke="#663399" stroke-width="2" d="M 300,20" />
<path stroke="#663399" stroke-width="2" d="M 18,10 18.5,10 19,10 19.6,10.1 20.1,10.3 20.6,10.5 21,10.7 21.5,10.9 21.9,11.2 22.3,11.6 22.7,11.9 23,12.3 23.3,12.8 23.6,13.2 23.8,13.7 24,14.2 24.1,14.7 24.2,15.2 24.3,15.7 24.3,16.3 24.2,16.8 24.1,17.3 24,17.8 23.8,18.3 23.6,18.8 23.3,19.2 23,19.6 22.7,20 22.3,20.4 21.9,20.8 21.5,21.1 21,21.3 20.6,21.5 20.1,21.7 19.6,21.9 19,21.9 18.5,22 18,22 17.5,21.9 17,21.9 16.5,21.7 16,21.5 15.5,21.3 15,21.1 14.6,20.8 14.2,20.4 13.8,20 13.5,19.6 13.2,19.2 12.9,18.8 12.7,18.3 12.5,17.8 12.4,17.3 12.3,16.8 12.3,16.3 12.3,15.7 12.3,15.2 12.4,14.7 12.5,14.2 12.7,13.7 12.9,13.2 13.2,12.8 13.5,12.3 13.8,11.9 14.2,11.6 14.6,11.2 15,10.9 15.5,10.7 16,10.5 16.5,10.3 17,10.1 17.5,10 18,10 36,10" />
<path stroke="#663399" stroke-width="2" d="M 42.7,30" />
<path stroke="#663399" stroke-width="2" d="M 42.7,10 42.7,30 52.7,30" />
<path stroke="#663399" stroke-width="2" d="M 59.3,30" />
<path stroke="#663399" stroke-width="2" d="M 61.3,30 66.7,17.1 66.8,16.7 66.9,16.4 67,16.1 67.1,15.7 67.1,15.4 67.1,15 67,14.7 66.9,14.3 66.8,14 66.7,13.7 66.5,13.4 66.3,13.1 66.1,12.8 65.9,12.5 65.6,12.3 65.4,12.1 65.1,11.9 64.8,11.7 64.4,11.6 64.1,11.5 63.8,11.4 63.4,11.4 63.1,11.4 62.7,11.4 62.4,11.4 62,11.5 61.7,11.6 61.4,11.7 61.1,11.9 60.8,12.1 60.5,12.3 60.2,12.5 60,12.8 59.8,13.1 59.6,13.4 59.4,13.7 59.3,14 59.2,14.3 59.1,14.7 59.1,15 59.1,15.4 59.1,15.7 59.1,16.1 59.2,16.4 59.3,16.7 59.4,17.1 59.6,17.4 59.8,17.7 60,17.9 60.2,18.2 60.5,18.4 60.8,18.7 61.1,18.8 61.4,19 61.7,19.1 62,19.2 62.4,19.3 62.7,19.4 63.1,19.4 63.4,19.4 76.3,14" />
<path stroke="#663399" stroke-width="2" d="M 83,30" />
<path stroke="#663399" stroke-width="2" d="M 93,30" />
<path stroke="#663399" stroke-width="2" d="M 93,10 93,30 98.7,24.3" />
<path stroke="#663399" stroke-width="2" d="M 105.3,30" />
<path stroke="#663399" stroke-width="2" d="M 115.3,10 114.5,10 113.6,10.1 112.7,10.2 111.9,10.5 111.1,10.8 110.3,11.1 109.5,11.6 108.8,12.1 108.1,12.6 107.5,13.2 107,13.9 106.5,14.6 106,15.4 105.7,16.2 105.4,17 105.1,17.8 105,18.7 104.9,19.6 104.9,20.4 105,21.3 105.1,22.2 105.4,23 105.7,23.8 106,24.6 106.5,25.4 107,26.1 107.5,26.7 108.1,27.4 108.8,27.9 109.5,28.4 110.3,28.9 111.1,29.2 111.9,29.5 112.7,29.8 113.6,29.9 114.5,30" />
<path stroke="#663399" stroke-width="2" d="M 122,30" />
<path stroke="#663399" stroke-width="2" d="M 122,10 132,10" />
<path stroke="#663399" stroke-width="2" d="M 138.7,30" />
<path stroke="#663399" stroke-width="2" d="M 148.7,30" />
<path stroke="#663399" stroke-width="2" d="M 148.7,10 153.7,10 153.7,30" />
<path stroke="#663399" stroke-width="2" d="M 160.3,30" />
<path stroke="#663399" stroke-width="2" d="M 160.3,10 160.3,30 170.3,30" />
<path stroke="#663399" stroke-width="2" d="M 177,30" />
<path stroke="#663399" stroke-width="2" d="M 177,10 177,30 177,24 177,23.1 177.1,22.3 177.2,21.4 177.5,20.6 177.8,19.7 178.1,18.9 178.6,18.2 179.1,17.5 179.6,16.8 180.2,16.2 180.9,15.6 181.6,15.1 182.4,14.7 183.2,14.3 184,14 184.8,13.8 185.7,13.6 186.6,13.6" />
<path stroke="#663399" stroke-width="2" d="M 193.2,30" />
<path stroke="#663399" stroke-width="2" d="M 193.2,15 193.5,15.3 193.9,15.6 194.2,15.8 194.6,16.1 195,16.2 195.4,16.4 195.8,16.5 196.3,16.6 196.7,16.6 197.1,16.6 197.6,16.6 198,16.5 198.4,16.4 198.8,16.2 199.2,16.1 199.6,15.8 200,15.6 200.3,15.3 200.6,15 200.9,14.7 201.1,14.3 201.3,13.9 201.5,13.5 201.7,13.1 201.8,12.7 201.9,12.3 201.9,11.8 201.9,11.4 201.9,11 201.8,10.5 201.7,10.1 201.5,9.7 201.3,9.3 201.1,8.9 200.9,8.6 200.6,8.2 200.3,7.9 200,7.7 199.6,7.4 199.2,7.2 198.8,7 198.4,6.9 198,6.7 197.6,6.7 197.1,6.6 196.7,6.6 196.3,6.7 195.8,6.7 195.4,6.9 195,7 194.6,7.2 194.2,7.4 193.9,7.7 193.5,7.9 193.2,8.2 192.9,8.6 192.7,8.9 192.5,9.3 192.3,9.7 192.1,10.1 192,10.5 192,11 191.9,11.4 191.9,11.8 192,12.3 192,12.7 192.1,13.1 192.3,13.5 192.5,13.9 192.7,14.3 192.9,14.7 193.2,15 193.2,30" />
<path stroke="#663399" stroke-width="2" d="M 208.6,30" />
<path stroke="#663399" stroke-width="2" d="M 218.6,10 210.9,28.5" />
<path stroke="#663399" stroke-width="2" d="M 225.2,30" />
<path stroke="#663399" stroke-width="2" d="M 235.2,30" />
<path stroke="#663399" stroke-width="2" d="M 243.2,10 243.8,10 244.3,10 244.8,10.1 245.3,10.3 245.8,10.5 246.3,10.7 246.7,10.9 247.2,11.2 247.6,11.6 247.9,11.9 248.3,12.3 248.6,12.8 248.8,13.2 249,13.7 249.2,14.2 249.4,14.7 249.5,15.2 249.5,15.7 249.5,16.3 249.5,16.8 249.4,17.3 249.2,17.8 249,18.3 248.8,18.8 248.6,19.2 248.3,19.6 247.9,20 247.6,20.4 247.2,20.8 246.7,21.1 246.3,21.3 245.8,21.5 245.3,21.7 244.8,21.9 244.3,21.9 243.8,22 243.2,22 242.7,21.9 242.2,21.9 241.7,21.7 241.2,21.5 240.7,21.3 240.3,21.1 239.9,20.8 239.4,20.4 239.1,20 238.7,19.6 238.4,19.2 238.2,18.8 238,18.3 237.8,17.8 237.6,17.3 237.6,16.8 237.5,16.3 237.5,15.7 237.6,15.2 237.6,14.7 237.8,14.2 238,13.7 238.2,13.2 238.4,12.8 238.7,12.3 239.1,11.9 239.4,11.6 239.9,11.2 240.3,10.9 240.7,10.7 241.2,10.5 241.7,10.3 242.2,10.1 242.7,10 243.2,10 261.2,10" />
<path stroke="#663399" stroke-width="2" d="M 267.9,30" />
<path stroke="#663399" stroke-width="2" d="M 267.9,10 267.9,10.7 268,11.4 268.1,12.1 268.3,12.8 268.5,13.4 268.8,14 269.2,14.6 269.6,15.2 270,15.8 270.5,16.2 271,16.7 271.6,17.1 272.2,17.4 272.8,17.7 273.5,18 274.2,18.2 274.9,18.3 275.6,18.3 276.2,18.3 276.9,18.3 277.6,18.2 278.3,18 279,17.7 279.6,17.4 280.2,17.1 280.8,16.7 281.3,16.2 281.8,15.8 282.2,15.2 282.6,14.6 283,14 283.3,13.4 283.5,12.8 283.7,12.1 283.8,11.4 283.9,10.7" />
<path stroke="#663399" stroke-width="2" d="M 290.6,30" />
<path stroke="#663399" stroke-width="2" d="M 290.6,30 298.2,11.5 305.9,30" />
<path stroke="#663399" stroke-width="2" d="M 312.5,30" />
<path stroke="#663399" stroke-width="2" d="M 317.5,10 312.5,10 312.5,30" />
<path stroke="#663399" stroke-width="2" d="M 324.2,30" />
<path stroke="#663399" stroke-width="2" d="M 326.2,30 331.6,17.1 331.7,16.7 331.8,16.4 331.9,16.1 331.9,15.7 331.9,15.4 331.9,15 331.9,14.7 331.8,14.3 331.7,14 331.6,13.7 331.4,13.4 331.2,13.1 331,12.8 330.8,12.5 330.5,12.3 330.2,12.1 329.9,11.9 329.6,11.7 329.3,11.6 329,11.5 328.6,11.4 328.3,11.4 327.9,11.4 327.6,11.4 327.2,11.4 326.9,11.5 326.6,11.6 326.2,11.7 325.9,11.9 325.6,12.1 325.4,12.3 325.1,12.5 324.9,12.8 324.7,13.1 324.5,13.4 324.3,13.7 324.2,14 324.1,14.3 324,14.7 323.9,15 323.9,15.4 323.9,15.7 324,16.1 324.1,16.4 324.2,16.7 324.3,17.1 324.5,17.4 324.7,17.7 324.9,17.9 325.1,18.2 325.4,18.4 325.6,18.7 325.9,18.8 326.2,19 326.6,19.1 326.9,19.2 327.2,19.3 327.6,19.4 327.9,19.4 328.3,19.4 341.2,14" />
<path stroke="#663399" stroke-width="2" d="M 347.9,30" />
</svg>