<svg xmlns="http://www.w3.org/2000/svg" width="555.9520941934687" height="60.48879532511287" style="fill:none; stroke-linecap:round;">
    <rect width="100%" height="100%" fill="#FFFFFF" />
<path stroke="#000000" stroke-width="2" d="M 300,50" />
<path stroke="#000000" stroke-width="2" d="M 30,40 30.9,40 31.7,39.9 32.6,39.8 33.4,39.5 34.3,39.2 35.1,38.9 35.8,38.4 36.5,37.9 37.2,37.4 37.8,36.8 38.4,36.1 38.9,35.4 39.3,34.6 39.7,33.8 40,33 40.2,32.2 40.4,31.3 40.4,30.4 40.4,29.6 40.4,28.7 40.2,27.8 40,27 39.7,26.2 39.3,25.4 38.9,24.6 38.4,23.9 37.8,23.3 37.2,22.6 36.5,22.1 35.8,21.6 35.1,21.1 34.3,20.8 33.4,20.5 32.6,20.2 31.7,20.1 30.9,20 30,20 29.1,20.1 28.3,20.2 27.4,20.5 26.6,20.8 25.8,21.1 25.1,21.6 24.3,22.1 23.7,22.6 23.1,23.3 22.5,23.9 22,24.6 21.6,25.4 21.2,26.2 20.9,27 20.7,27.8 20.5,28.7 20.4,29.6 20.4,30.4 20.5,31.3 20.7,32.2 20.9,33 21.2,33.8 21.6,34.6 22,35.4 22.5,36.1 23.1,36.8 23.7,37.4 24.3,37.9 25.1,38.4 25.8,38.9 26.6,39.2 27.4,39.5 28.3,39.8 29.1,39.9 30,40" />
<path stroke="#000000" stroke-width="2" d="M 47.1,70" />
<path stroke="#000000" stroke-width="2" d="M 49.1,40 54.5,27.1 54.6,26.7 54.7,26.4 54.8,26.1 54.8,25.7 54.8,25.4 54.8,25 54.8,24.7 54.7,24.3 54.6,24 54.5,23.7 54.3,23.4 54.1,23.1 53.9,22.8 53.7,22.5 53.4,22.3 53.1,22.1 52.8,21.9 52.5,21.7 52.2,21.6 51.9,21.5 51.5,21.4 51.2,21.4 50.8,21.4 50.5,21.4 50.1,21.4 49.8,21.5 49.5,21.6 49.1,21.7 48.8,21.9 48.5,22.1 48.3,22.3 48,22.5 47.8,22.8 47.5,23.1 47.4,23.4 47.2,23.7 47.1,24 47,24.3 46.9,24.7 46.8,25 46.8,25.4 46.8,25.7 46.9,26.1 47,26.4 47.1,26.7 47.2,27.1 47.4,27.4 47.5,27.7 47.8,27.9 48,28.2 48.3,28.4 48.5,28.7 48.8,28.8 49.1,29 49.5,29.1 49.8,29.2 50.1,29.3 50.5,29.4 50.8,29.4 51.2,29.4 64.1,24" />
<path stroke="#000000" stroke-width="2" d="M 70.8,70" />
<path stroke="#000000" stroke-width="2" d="M 94.1,70" />
<path stroke="#000000" stroke-width="2" d="M 94.1,20 101.8,38.5 109.4,20" />
<path stroke="#000000" stroke-width="2" d="M 116.1,70" />
<path stroke="#000000" stroke-width="2" d="M 118.1,40 123.4,27.1 123.6,26.7 123.7,26.4 123.8,26.1 123.8,25.7 123.8,25.4 123.8,25 123.8,24.7 123.7,24.3 123.6,24 123.4,23.7 123.3,23.4 123.1,23.1 122.9,22.8 122.6,22.5 122.4,22.3 122.1,22.1 121.8,21.9 121.5,21.7 121.2,21.6 120.9,21.5 120.5,21.4 120.2,21.4 119.8,21.4 119.5,21.4 119.1,21.4 118.8,21.5 118.4,21.6 118.1,21.7 117.8,21.9 117.5,22.1 117.2,22.3 117,22.5 116.8,22.8 116.5,23.1 116.4,23.4 116.2,23.7 116.1,24 116,24.3 115.9,24.7 115.8,25 115.8,25.4 115.8,25.7 115.9,26.1 116,26.4 116.1,26.7 116.2,27.1 116.4,27.4 116.5,27.7 116.8,27.9 117,28.2 117.2,28.4 117.5,28.7 117.8,28.8 118.1,29 118.4,29.1 118.8,29.2 119.1,29.3 119.5,29.4 119.8,29.4 120.2,29.4 133.1,24" />
<path stroke="#000000" stroke-width="2" d="M 139.8,70" />
<path stroke="#000000" stroke-width="2" d="M 159.8,20 140,39.8" />
<path stroke="#000000" stroke-width="2" d="M 140,19.8 159.8,39.6" />
<path stroke="#000000" stroke-width="2" d="M 166.4,70" />
<path stroke="#000000" stroke-width="2" d="M 168.4,40 173.8,27.1 173.9,26.7 174,26.4 174.1,26.1 174.1,25.7 174.2,25.4 174.1,25 174.1,24.7 174,24.3 173.9,24 173.8,23.7 173.6,23.4 173.4,23.1 173.2,22.8 173,22.5 172.7,22.3 172.5,22.1 172.2,21.9 171.9,21.7 171.5,21.6 171.2,21.5 170.9,21.4 170.5,21.4 170.2,21.4 169.8,21.4 169.5,21.4 169.1,21.5 168.8,21.6 168.5,21.7 168.2,21.9 167.9,22.1 167.6,22.3 167.3,22.5 167.1,22.8 166.9,23.1 166.7,23.4 166.5,23.7 166.4,24 166.3,24.3 166.2,24.7 166.2,25 166.2,25.4 166.2,25.7 166.2,26.1 166.3,26.4 166.4,26.7 166.5,27.1 166.7,27.4 166.9,27.7 167.1,27.9 167.3,28.2 167.6,28.4 167.9,28.7 168.2,28.8 168.5,29 168.8,29.1 169.1,29.2 169.5,29.3 169.8,29.4 170.2,29.4 170.5,29.4 183.4,24" />
<path stroke="#000000" stroke-width="2" d="M 190.1,70" />
<path stroke="#000000" stroke-width="2" d="M 190.1,20 191,20 191.9,20.1 192.7,20.2 193.6,20.5 194.4,20.8 195.2,21.1 195.9,21.6 196.6,22.1 197.3,22.6 197.9,23.2 198.5,23.9 199,24.6 199.4,25.4 199.8,26.2 200.1,27 200.3,27.8 200.5,28.7 200.5,29.6 200.5,30.4 200.5,31.3 200.3,32.2 200.1,33 199.8,33.8 199.4,34.6 199,35.4 198.5,36.1 197.9,36.7 197.3,37.4 196.6,37.9 195.9,38.4 195.2,38.9 194.4,39.2 193.6,39.5 192.7,39.8 191.9,39.9 191,40" />
<path stroke="#000000" stroke-width="2" d="M 207.2,70" />
<path stroke="#000000" stroke-width="2" d="M 230.5,70" />
<path stroke="#000000" stroke-width="2" d="M 238.5,20" />
<path stroke="#000000" stroke-width="2" d="M 238.5,20 238.4,22 238.1,23.6 237.7,24.9 237.1,25.8 236.4,26.3 235.7,26.6 235,26.7 234.2,26.5 233.5,26.1 232.9,25.6 232.4,25 232.1,24.3 231.9,23.6 231.9,22.8 232.2,22.1 232.8,21.4 233.7,20.9 234.9,20.4 236.5,20.1 238.5,20 248.5,20" />
<path stroke="#000000" stroke-width="2" d="M 255.2,70" />
<path stroke="#000000" stroke-width="2" d="M 257.2,40 262.6,27.1 262.7,26.7 262.8,26.4 262.9,26.1 262.9,25.7 262.9,25.4 262.9,25 262.9,24.7 262.8,24.3 262.7,24 262.6,23.7 262.4,23.4 262.2,23.1 262,22.8 261.8,22.5 261.5,22.3 261.2,22.1 260.9,21.9 260.6,21.7 260.3,21.6 260,21.5 259.6,21.4 259.3,21.4 258.9,21.4 258.6,21.4 258.2,21.4 257.9,21.5 257.6,21.6 257.2,21.7 256.9,21.9 256.6,22.1 256.4,22.3 256.1,22.5 255.9,22.8 255.7,23.1 255.5,23.4 255.3,23.7 255.2,24 255.1,24.3 255,24.7 255,25 254.9,25.4 255,25.7 255,26.1 255.1,26.4 255.2,26.7 255.3,27.1 255.5,27.4 255.7,27.7 255.9,27.9 256.1,28.2 256.4,28.4 256.6,28.7 256.9,28.8 257.2,29 257.6,29.1 257.9,29.2 258.2,29.3 258.6,29.4 258.9,29.4 259.3,29.4 272.2,24" />
<path stroke="#000000" stroke-width="2" d="M 278.9,70" />
<path stroke="#000000" stroke-width="2" d="M 278.9,20 278.9,24 278.9,24.5 278.9,25 279,25.6 279.2,26.1 279.3,26.6 279.6,27 279.8,27.5 280.1,27.9 280.5,28.3 280.8,28.7 281.2,29 281.7,29.3 282.1,29.6 282.6,29.8 283.1,30 283.6,30.1 284.1,30.2 284.6,30.3 285.1,30.3 285.7,30.2 286.2,30.1 286.7,30 287.2,29.8 287.7,29.6 288.1,29.3 288.5,29 288.9,28.7 289.3,28.3 289.6,27.9 289.9,27.5 290.2,27 290.4,26.6 290.6,26.1 290.7,25.6 290.8,25 290.9,24.5 290.9,19.5 290.9,39.5" />
<path stroke="#000000" stroke-width="2" d="M 297.5,70" />
<path stroke="#000000" stroke-width="2" d="M 297.5,40 305.2,21.5 312.9,40" />
<path stroke="#000000" stroke-width="2" d="M 319.5,70" />
<path stroke="#000000" stroke-width="2" d="M 319.5,25" />
<path stroke="#000000" stroke-width="2" d="M 319.5,25 321.5,24.9 323.2,24.6 324.4,24.1 325.3,23.6 325.8,22.9 326.1,22.2 326.2,21.4 326,20.7 325.6,20 325.1,19.4 324.5,18.9 323.8,18.5 323.1,18.3 322.4,18.4 321.6,18.7 321,19.2 320.4,20.1 319.9,21.4 319.6,23 319.5,25 319.5,40" />
<path stroke="#000000" stroke-width="2" d="M 332.8,70" />
<path stroke="#000000" stroke-width="2" d="M 332.8,20 336.7,29.2" />
<path stroke="#000000" stroke-width="2" d="M 336.7,29.2 338.6,31.4 339.9,33.3 340.7,35 341,36.4 340.9,37.7 340.4,38.7 339.7,39.5 338.8,40 337.8,40.4 336.7,40.5 335.6,40.4 334.5,40 333.6,39.5 332.9,38.7 332.4,37.7 332.3,36.4 332.6,35 333.4,33.3 334.7,31.4 336.7,29.2 340.5,20" />
<path stroke="#000000" stroke-width="2" d="M 347.7,70" />
<path stroke="#000000" stroke-width="2" d="M 347.7,25" />
<path stroke="#000000" stroke-width="2" d="M 347.7,25 349.7,24.9 351.3,24.6 352.5,24.1 353.4,23.6 354,22.9 354.3,22.2 354.3,21.4 354.1,20.7 353.8,20 353.3,19.4 352.7,18.9 352,18.5 351.2,18.3 350.5,18.4 349.8,18.7 349.1,19.2 348.5,20.1 348.1,21.4 347.8,23 347.7,25 347.7,40" />
<path stroke="#000000" stroke-width="2" d="M 361,70" />
<path stroke="#000000" stroke-width="2" d="M 384.3,70" />
<path stroke="#000000" stroke-width="2" d="M 384.3,20 389.3,20 389.3,40" />
<path stroke="#000000" stroke-width="2" d="M 396,70" />
<path stroke="#000000" stroke-width="2" d="M 396,20 396,20.7 396,21.4 396.2,22.1 396.3,22.8 396.6,23.4 396.9,24 397.2,24.6 397.6,25.2 398.1,25.8 398.6,26.2 399.1,26.7 399.7,27.1 400.3,27.4 400.9,27.7 401.6,28 402.2,28.2 402.9,28.3 403.6,28.3 404.3,28.3 405,28.3 405.7,28.2 406.4,28 407,27.7 407.7,27.4 408.3,27.1 408.8,26.7 409.4,26.2 409.9,25.8 410.3,25.2 410.7,24.6 411.1,24 411.4,23.4 411.6,22.8 411.8,22.1 411.9,21.4 412,20.7" />
<path stroke="#000000" stroke-width="2" d="M 418.6,70" />
<path stroke="#000000" stroke-width="2" d="M 420.6,40 426,27.1 426.1,26.7 426.2,26.4 426.3,26.1 426.3,25.7 426.4,25.4 426.3,25 426.3,24.7 426.2,24.3 426.1,24 426,23.7 425.8,23.4 425.6,23.1 425.4,22.8 425.2,22.5 424.9,22.3 424.7,22.1 424.4,21.9 424,21.7 423.7,21.6 423.4,21.5 423.1,21.4 422.7,21.4 422.4,21.4 422,21.4 421.7,21.4 421.3,21.5 421,21.6 420.7,21.7 420.4,21.9 420.1,22.1 419.8,22.3 419.5,22.5 419.3,22.8 419.1,23.1 418.9,23.4 418.7,23.7 418.6,24 418.5,24.3 418.4,24.7 418.4,25 418.4,25.4 418.4,25.7 418.4,26.1 418.5,26.4 418.6,26.7 418.7,27.1 418.9,27.4 419.1,27.7 419.3,27.9 419.5,28.2 419.8,28.4 420.1,28.7 420.4,28.8 420.7,29 421,29.1 421.3,29.2 421.7,29.3 422,29.4 422.4,29.4 422.7,29.4 435.6,24" />
<path stroke="#000000" stroke-width="2" d="M 442.3,70" />
<path stroke="#000000" stroke-width="2" d="M 442.3,20 442.3,40 448,34.3" />
<path stroke="#000000" stroke-width="2" d="M 454.6,70" />
<path stroke="#000000" stroke-width="2" d="M 478,70" />
<path stroke="#000000" stroke-width="2" d="M 486,20 476.1,29.9 486,39.8" />
<path stroke="#000000" stroke-width="2" d="M 492.6,70" />
<path stroke="#000000" stroke-width="2" d="M 492.6,20 492.6,40 502.6,40" />
<path stroke="#000000" stroke-width="2" d="M 509.3,70" />
<path stroke="#000000" stroke-width="2" d="M 509.3,20 509.3,24 509.3,24.5 509.3,25 509.4,25.6 509.6,26.1 509.7,26.6 510,27 510.2,27.5 510.5,27.9 510.9,28.3 511.2,28.7 511.6,29 512.1,29.3 512.5,29.6 513,29.8 513.5,30 514,30.1 514.5,30.2 515,30.3 515.6,30.3 516.1,30.2 516.6,30.1 517.1,30 517.6,29.8 518.1,29.6 518.5,29.3 518.9,29 519.3,28.7 519.7,28.3 520.1,27.9 520.4,27.5 520.6,27 520.8,26.6 521,26.1 521.1,25.6 521.2,25 521.3,24.5 521.3,19.5 521.3,39.5" />
<path stroke="#000000" stroke-width="2" d="M 528,70" />
<path stroke="#000000" stroke-width="2" d="M 536,20 526.1,29.9 536,39.8" />
<path stroke="#000000" stroke-width="2" d="M 542.6,70" />
</svg>