<svg xmlns="http://www.w3.org/2000/svg" width="662.5142545682851" height="61.654375" style="fill:none; stroke-linecap:round;">
    <rect width="100%" height="100%" fill="#FFFFFF" />
<path stroke="#000000" stroke-width="2" d="M 300,50" />
<path stroke="#000000" stroke-width="2" d="M 20,40 27.7,21.5 35.3,40" />
<path stroke="#000000" stroke-width="2" d="M 42,70" />
<path stroke="#000000" stroke-width="2" d="M 42,20 62,20" />
<path stroke="#000000" stroke-width="2" d="M 68.6,70" />
<path stroke="#000000" stroke-width="2" d="M 68.6,20" />
<path stroke="#000000" stroke-width="2" d="M 68.6,20 70.1,20.1 71.3,20.6 72.5,21.2 73.4,22.1 74.3,23.1 74.9,24.3 75.5,25.6 75.8,27 76.1,28.5 76.1,30 76.1,31.5 75.8,33 75.5,34.4 74.9,35.7 74.3,36.9 73.4,37.9 72.5,38.8 71.3,39.4 70.1,39.9 68.6,40" />
<path stroke="#000000" stroke-width="2" d="M 82.8,70" />
<path stroke="#000000" stroke-width="2" d="M 106.1,70" />
<path stroke="#000000" stroke-width="2" d="M 114.1,20 114.1,35" />
<path stroke="#000000" stroke-width="2" d="M 114.1,35 114,37 113.7,38.6 113.3,39.9 112.7,40.8 112,41.3 111.3,41.6 110.6,41.7 109.8,41.5 109.1,41.1 108.5,40.6 108,40 107.7,39.3 107.5,38.6 107.5,37.8 107.8,37.1 108.4,36.4 109.3,35.9 110.5,35.4 112.1,35.1 114.1,35" />
<path stroke="#000000" stroke-width="2" d="M 120.8,70" />
<path stroke="#000000" stroke-width="2" d="M 120.8,40 128.5,21.5 136.1,40" />
<path stroke="#000000" stroke-width="2" d="M 142.8,70" />
<path stroke="#000000" stroke-width="2" d="M 152.8,20 145.1,38.5" />
<path stroke="#000000" stroke-width="2" d="M 159.4,70" />
<path stroke="#000000" stroke-width="2" d="M 182.8,70" />
<path stroke="#000000" stroke-width="2" d="M 187.8,20" />
<path stroke="#000000" stroke-width="2" d="M 187.8,20 186.4,20.1 185.1,20.6 184,21.2 183,22.1 182.2,23.1 181.5,24.3 181,25.6 180.6,27 180.4,28.5 180.3,30 180.4,31.5 180.6,33 181,34.4 181.5,35.7 182.2,36.9 183,37.9 184,38.8 185.1,39.4 186.4,39.9 187.8,40" />
<path stroke="#000000" stroke-width="2" d="M 194.4,70" />
<path stroke="#000000" stroke-width="2" d="M 194.4,20 214.4,20" />
<path stroke="#000000" stroke-width="2" d="M 221.1,70" />
<path stroke="#000000" stroke-width="2" d="M 244.4,70" />
<path stroke="#000000" stroke-width="2" d="M 254.4,40 255.3,40 256.2,39.9 257,39.8 257.9,39.5 258.7,39.2 259.5,38.9 260.3,38.4 261,37.9 261.6,37.4 262.3,36.8 262.8,36.1 263.3,35.4 263.8,34.6 264.1,33.8 264.4,33 264.6,32.2 264.8,31.3 264.9,30.4 264.9,29.6 264.8,28.7 264.6,27.8 264.4,27 264.1,26.2 263.8,25.4 263.3,24.6 262.8,23.9 262.3,23.3 261.6,22.6 261,22.1 260.3,21.6 259.5,21.1 258.7,20.8 257.9,20.5 257,20.2 256.2,20.1 255.3,20 254.4,20 253.6,20.1 252.7,20.2 251.9,20.5 251.1,20.8 250.3,21.1 249.5,21.6 248.8,22.1 248.1,22.6 247.5,23.3 247,23.9 246.5,24.6 246,25.4 245.6,26.2 245.3,27 245.1,27.8 245,28.7 244.9,29.6 244.9,30.4 245,31.3 245.1,32.2 245.3,33 245.6,33.8 246,34.6 246.5,35.4 247,36.1 247.5,36.8 248.1,37.4 248.8,37.9 249.5,38.4 250.3,38.9 251.1,39.2 251.9,39.5 252.7,39.8 253.6,39.9 254.4,40" />
<path stroke="#000000" stroke-width="2" d="M 271.5,70" />
<path stroke="#000000" stroke-width="2" d="M 273.5,40 278.9,27.1 279,26.7 279.1,26.4 279.2,26.1 279.3,25.7 279.3,25.4 279.3,25 279.2,24.7 279.1,24.3 279,24 278.9,23.7 278.7,23.4 278.6,23.1 278.3,22.8 278.1,22.5 277.8,22.3 277.6,22.1 277.3,21.9 277,21.7 276.6,21.6 276.3,21.5 276,21.4 275.6,21.4 275.3,21.4 274.9,21.4 274.6,21.4 274.2,21.5 273.9,21.6 273.6,21.7 273.3,21.9 273,22.1 272.7,22.3 272.4,22.5 272.2,22.8 272,23.1 271.8,23.4 271.6,23.7 271.5,24 271.4,24.3 271.3,24.7 271.3,25 271.3,25.4 271.3,25.7 271.3,26.1 271.4,26.4 271.5,26.7 271.6,27.1 271.8,27.4 272,27.7 272.2,27.9 272.4,28.2 272.7,28.4 273,28.7 273.3,28.8 273.6,29 273.9,29.1 274.2,29.2 274.6,29.3 274.9,29.4 275.3,29.4 275.6,29.4 288.6,24" />
<path stroke="#000000" stroke-width="2" d="M 295.2,70" />
<path stroke="#000000" stroke-width="2" d="M 318.6,70" />
<path stroke="#000000" stroke-width="2" d="M 318.6,20 318.6,20.7 318.6,21.4 318.7,22.1 318.9,22.8 319.2,23.4 319.5,24 319.8,24.6 320.2,25.2 320.7,25.8 321.1,26.2 321.7,26.7 322.3,27.1 322.9,27.4 323.5,27.7 324.1,28 324.8,28.2 325.5,28.3 326.2,28.3 326.9,28.3 327.6,28.3 328.3,28.2 329,28 329.6,27.7 330.2,27.4 330.8,27.1 331.4,26.7 332,26.2 332.4,25.8 332.9,25.2 333.3,24.6 333.6,24 333.9,23.4 334.2,22.8 334.4,22.1 334.5,21.4 334.5,20.7" />
<path stroke="#000000" stroke-width="2" d="M 341.2,70" />
<path stroke="#000000" stroke-width="2" d="M 341.2,40 348.9,21.5 356.5,40" />
<path stroke="#000000" stroke-width="2" d="M 363.2,70" />
<path stroke="#000000" stroke-width="2" d="M 363.2,20 383.2,20" />
<path stroke="#000000" stroke-width="2" d="M 389.8,70" />
<path stroke="#000000" stroke-width="2" d="M 389.8,20" />
<path stroke="#000000" stroke-width="2" d="M 389.8,20 391.3,20.1 392.5,20.6 393.7,21.2 394.6,22.1 395.5,23.1 396.1,24.3 396.7,25.6 397,27 397.3,28.5 397.3,30 397.3,31.5 397,33 396.7,34.4 396.1,35.7 395.5,36.9 394.6,37.9 393.7,38.8 392.5,39.4 391.3,39.9 389.8,40" />
<path stroke="#000000" stroke-width="2" d="M 404,70" />
<path stroke="#000000" stroke-width="2" d="M 427.3,70" />
<path stroke="#000000" stroke-width="2" d="M 427.3,20 427.3,40" />
<path stroke="#000000" stroke-width="2" d="M 434,70" />
<path stroke="#000000" stroke-width="2" d="M 439,20" />
<path stroke="#000000" stroke-width="2" d="M 439,20 437.6,20.1 436.3,20.6 435.2,21.2 434.2,22.1 433.4,23.1 432.7,24.3 432.2,25.6 431.8,27 431.6,28.5 431.5,30 431.6,31.5 431.8,33 432.2,34.4 432.7,35.7 433.4,36.9 434.2,37.9 435.2,38.8 436.3,39.4 437.6,39.9 439,40" />
<path stroke="#000000" stroke-width="2" d="M 445.7,70" />
<path stroke="#000000" stroke-width="2" d="M 445.7,20" />
<path stroke="#000000" stroke-width="2" d="M 445.7,20 445.8,20 446.2,20 446.9,20 447.8,20.1 448.8,20.2 450,20.3 451.3,20.4 452.7,20.6 454.2,20.9 455.7,21.2 457.2,21.7 458.6,22.2 460,22.7 461.4,23.4 462.6,24.2 463.6,25.1 464.5,26.1 465.1,27.3 465.5,28.6 465.7,30" />
<path stroke="#000000" stroke-width="2" d="M 465.7,30 467.6,32.1 468.9,34.1 469.7,35.7 470,37.2 469.9,38.4 469.5,39.4 468.8,40.2 467.8,40.8 466.8,41.1 465.7,41.2 464.6,41.1 463.5,40.8 462.6,40.2 461.9,39.4 461.5,38.4 461.4,37.2 461.7,35.7 462.4,34 463.8,32.1 465.7,30" />
<path stroke="#000000" stroke-width="2" d="M 465.7,30 465.7,29.9 465.7,29.7 465.7,29.4 465.8,29 466,28.4 466.2,27.8 466.5,27.2 467,26.5 467.5,25.7 468.2,25 469,24.3 470,23.5 471.2,22.8 472.5,22.2 474.1,21.6 475.9,21 478,20.6 480.3,20.3 482.8,20.1 485.7,20" />
<path stroke="#000000" stroke-width="2" d="M 492.3,70" />
<path stroke="#000000" stroke-width="2" d="M 492.3,20 512.3,20" />
<path stroke="#000000" stroke-width="2" d="M 519,70" />
<path stroke="#000000" stroke-width="2" d="M 519,20" />
<path stroke="#000000" stroke-width="2" d="M 519,20 520.4,20.1 521.7,20.6 522.8,21.2 523.8,22.1 524.6,23.1 525.3,24.3 525.8,25.6 526.2,27 526.4,28.5 526.5,30 526.4,31.5 526.2,33 525.8,34.4 525.3,35.7 524.6,36.9 523.8,37.9 522.8,38.8 521.7,39.4 520.4,39.9 519,40" />
<path stroke="#000000" stroke-width="2" d="M 533.2,70" />
<path stroke="#000000" stroke-width="2" d="M 556.5,70" />
<path stroke="#000000" stroke-width="2" d="M 564.5,20 554.6,29.9 564.5,39.8" />
<path stroke="#000000" stroke-width="2" d="M 571.2,70" />
<path stroke="#000000" stroke-width="2" d="M 573.2,20 581.7,28.5" />
<path stroke="#000000" stroke-width="2" d="M 590.2,20 570.4,39.8" />
<path stroke="#000000" stroke-width="2" d="M 596.8,70" />
<path stroke="#000000" stroke-width="2" d="M 596.8,20" />
<path stroke="#000000" stroke-width="2" d="M 596.8,20 598.2,20.1 599.5,20.6 600.6,21.2 601.6,22.1 602.4,23.1 603.1,24.3 603.6,25.6 604,27 604.2,28.5 604.3,30 604.2,31.5 604,33 603.6,34.4 603.1,35.7 602.4,36.9 601.6,37.9 600.6,38.8 599.5,39.4 598.2,39.9 596.8,40" />
<path stroke="#000000" stroke-width="2" d="M 611,70" />
<path stroke="#000000" stroke-width="2" d="M 611,20 611,40 611,34 611,33.1 611.1,32.3 611.2,31.4 611.4,30.6 611.7,29.7 612.1,28.9 612.5,28.2 613,27.5 613.6,26.8 614.2,26.2 614.9,25.6 615.6,25.1 616.4,24.7 617.1,24.3 618,24 618.8,23.8 619.7,23.6 620.5,23.6" />
<path stroke="#000000" stroke-width="2" d="M 627.2,70" />
<path stroke="#000000" stroke-width="2" d="M 627.2,40 634.9,21.5 642.5,40" />
<path stroke="#000000" stroke-width="2" d="M 649.2,70" />
</svg>