<svg xmlns="http://www.w3.org/2000/svg" width="609.2120632651789" height="50.0" style="fill:none; stroke-linecap:round;">
    <rect width="100%" height="100%" fill="#F3F3F7" />
<path stroke="#663399" stroke-width="2" d="M 300,50" />
<path stroke="#663399" stroke-width="2" d="M 30,30 30.9,30 31.7,29.9 32.6,29.8 33.4,29.5 34.3,29.2 35.1,28.9 35.8,28.4 36.5,27.9 37.2,27.4 37.8,26.8 38.4,26.1 38.9,25.4 39.3,24.6 39.7,23.8 40,23 40.2,22.2 40.4,21.3 40.4,20.4 40.4,19.6 40.4,18.7 40.2,17.8 40,17 39.7,16.2 39.3,15.4 38.9,14.6 38.4,13.9 37.8,13.3 37.2,12.6 36.5,12.1 35.8,11.6 35.1,11.1 34.3,10.8 33.4,10.5 32.6,10.2 31.7,10.1 30.9,10 30,10 29.1,10.1 28.3,10.2 27.4,10.5 26.6,10.8 25.8,11.1 25.1,11.6 24.3,12.1 23.7,12.6 23.1,13.3 22.5,13.9 22,14.6 21.6,15.4 21.2,16.2 20.9,17 20.7,17.8 20.5,18.7 20.4,19.6 20.4,20.4 20.5,21.3 20.7,22.2 20.9,23 21.2,23.8 21.6,24.6 22,25.4 22.5,26.1 23.1,26.8 23.7,27.4 24.3,27.9 25.1,28.4 25.8,28.9 26.6,29.2 27.4,29.5 28.3,29.8 29.1,29.9 30,30" />
<path stroke="#663399" stroke-width="2" d="M 47.1,70" />
<path stroke="#663399" stroke-width="2" d="M 49.1,30 54.5,17.1 54.6,16.7 54.7,16.4 54.8,16.1 54.8,15.7 54.8,15.4 54.8,15 54.8,14.7 54.7,14.3 54.6,14 54.5,13.7 54.3,13.4 54.1,13.1 53.9,12.8 53.7,12.5 53.4,12.3 53.1,12.1 52.8,11.9 52.5,11.7 52.2,11.6 51.9,11.5 51.5,11.4 51.2,11.4 50.8,11.4 50.5,11.4 50.1,11.4 49.8,11.5 49.5,11.6 49.1,11.7 48.8,11.9 48.5,12.1 48.3,12.3 48,12.5 47.8,12.8 47.5,13.1 47.4,13.4 47.2,13.7 47.1,14 47,14.3 46.9,14.7 46.8,15 46.8,15.4 46.8,15.7 46.9,16.1 47,16.4 47.1,16.7 47.2,17.1 47.4,17.4 47.5,17.7 47.8,17.9 48,18.2 48.3,18.4 48.5,18.7 48.8,18.8 49.1,19 49.5,19.1 49.8,19.2 50.1,19.3 50.5,19.4 50.8,19.4 51.2,19.4 64.1,14" />
<path stroke="#663399" stroke-width="2" d="M 70.8,70" />
<path stroke="#663399" stroke-width="2" d="M 80.8,70" />
<path stroke="#663399" stroke-width="2" d="M 80.8,10 90.7,19.9 80.8,29.8" />
<path stroke="#663399" stroke-width="2" d="M 97.3,70" />
<path stroke="#663399" stroke-width="2" d="M 99.3,30 104.7,17.1 104.8,16.7 104.9,16.4 105,16.1 105.1,15.7 105.1,15.4 105.1,15 105,14.7 104.9,14.3 104.8,14 104.7,13.7 104.5,13.4 104.4,13.1 104.1,12.8 103.9,12.5 103.6,12.3 103.4,12.1 103.1,11.9 102.8,11.7 102.4,11.6 102.1,11.5 101.8,11.4 101.4,11.4 101.1,11.4 100.7,11.4 100.4,11.4 100,11.5 99.7,11.6 99.4,11.7 99.1,11.9 98.8,12.1 98.5,12.3 98.2,12.5 98,12.8 97.8,13.1 97.6,13.4 97.4,13.7 97.3,14 97.2,14.3 97.1,14.7 97.1,15 97.1,15.4 97.1,15.7 97.1,16.1 97.2,16.4 97.3,16.7 97.4,17.1 97.6,17.4 97.8,17.7 98,17.9 98.2,18.2 98.5,18.4 98.8,18.7 99.1,18.8 99.4,19 99.7,19.1 100,19.2 100.4,19.3 100.7,19.4 101.1,19.4 101.4,19.4 114.4,14" />
<path stroke="#663399" stroke-width="2" d="M 121,70" />
<path stroke="#663399" stroke-width="2" d="M 123,30 128.4,17.1 128.5,16.7 128.6,16.4 128.7,16.1 128.7,15.7 128.8,15.4 128.7,15 128.7,14.7 128.6,14.3 128.5,14 128.4,13.7 128.2,13.4 128,13.1 127.8,12.8 127.6,12.5 127.3,12.3 127.1,12.1 126.8,11.9 126.4,11.7 126.1,11.6 125.8,11.5 125.5,11.4 125.1,11.4 124.8,11.4 124.4,11.4 124.1,11.4 123.7,11.5 123.4,11.6 123.1,11.7 122.8,11.9 122.5,12.1 122.2,12.3 121.9,12.5 121.7,12.8 121.5,13.1 121.3,13.4 121.1,13.7 121,14 120.9,14.3 120.8,14.7 120.8,15 120.8,15.4 120.8,15.7 120.8,16.1 120.9,16.4 121,16.7 121.1,17.1 121.3,17.4 121.5,17.7 121.7,17.9 121.9,18.2 122.2,18.4 122.5,18.7 122.8,18.8 123.1,19 123.4,19.1 123.7,19.2 124.1,19.3 124.4,19.4 124.8,19.4 125.1,19.4 138,14" />
<path stroke="#663399" stroke-width="2" d="M 144.7,70" />
<path stroke="#663399" stroke-width="2" d="M 144.7,10 144.7,30 144.7,24 144.7,23.1 144.8,22.3 144.9,21.4 145.2,20.6 145.5,19.7 145.8,18.9 146.3,18.2 146.8,17.5 147.3,16.8 147.9,16.2 148.6,15.6 149.3,15.1 150.1,14.7 150.9,14.3 151.7,14 152.5,13.8 153.4,13.6 154.3,13.6" />
<path stroke="#663399" stroke-width="2" d="M 160.9,70" />
<path stroke="#663399" stroke-width="2" d="M 162.9,10 171.4,18.5" />
<path stroke="#663399" stroke-width="2" d="M 179.9,10 160.1,29.8" />
<path stroke="#663399" stroke-width="2" d="M 186.6,70" />
<path stroke="#663399" stroke-width="2" d="M 196.6,70" />
<path stroke="#663399" stroke-width="2" d="M 196.6,30 204.2,11.5 211.9,30" />
<path stroke="#663399" stroke-width="2" d="M 218.5,70" />
<path stroke="#663399" stroke-width="2" d="M 218.5,10 228.5,10" />
<path stroke="#663399" stroke-width="2" d="M 235.2,70" />
<path stroke="#663399" stroke-width="2" d="M 235.2,10 236.1,10 236.9,10.1 237.8,10.2 238.6,10.5 239.5,10.8 240.3,11.1 241,11.6 241.7,12.1 242.4,12.6 243,13.2 243.6,13.9 244.1,14.6 244.5,15.4 244.9,16.2 245.2,17 245.4,17.8 245.6,18.7 245.6,19.6 245.6,20.4 245.6,21.3 245.4,22.2 245.2,23 244.9,23.8 244.5,24.6 244.1,25.4 243.6,26.1 243,26.7 242.4,27.4 241.7,27.9 241,28.4 240.3,28.9 239.5,29.2 238.6,29.5 237.8,29.8 236.9,29.9 236.1,30" />
<path stroke="#663399" stroke-width="2" d="M 252.3,70" />
<path stroke="#663399" stroke-width="2" d="M 262.3,70" />
<path stroke="#663399" stroke-width="2" d="M 262.3,10 263.2,10 264,10.1 264.9,10.2 265.7,10.5 266.6,10.8 267.4,11.1 268.1,11.6 268.8,12.1 269.5,12.6 270.1,13.2 270.7,13.9 271.2,14.6 271.6,15.4 272,16.2 272.3,17 272.5,17.8 272.6,18.7 272.7,19.6 272.7,20.4 272.6,21.3 272.5,22.2 272.3,23 272,23.8 271.6,24.6 271.2,25.4 270.7,26.1 270.1,26.7 269.5,27.4 268.8,27.9 268.1,28.4 267.4,28.9 266.6,29.2 265.7,29.5 264.9,29.8 264,29.9 263.2,30" />
<path stroke="#663399" stroke-width="2" d="M 279.4,70" />
<path stroke="#663399" stroke-width="2" d="M 279.4,10 283.2,19.2" />
<path stroke="#663399" stroke-width="2" d="M 283.2,19.2 285.1,21.4 286.5,23.3 287.2,25 287.5,26.4 287.4,27.7 287,28.7 286.3,29.5 285.4,30 284.3,30.4 283.2,30.5 282.1,30.4 281.1,30 280.1,29.5 279.4,28.7 279,27.7 278.9,26.4 279.2,25 280,23.3 281.3,21.4 283.2,19.2 287,10" />
<path stroke="#663399" stroke-width="2" d="M 293.7,70" />
<path stroke="#663399" stroke-width="2" d="M 303.7,10 296.1,28.5" />
<path stroke="#663399" stroke-width="2" d="M 310.4,70" />
<path stroke="#663399" stroke-width="2" d="M 310.4,10 310.4,30 320.4,30" />
<path stroke="#663399" stroke-width="2" d="M 327,70" />
<path stroke="#663399" stroke-width="2" d="M 327,10 332,10 332,30" />
<path stroke="#663399" stroke-width="2" d="M 338.7,70" />
<path stroke="#663399" stroke-width="2" d="M 338.7,10 342.5,19.2" />
<path stroke="#663399" stroke-width="2" d="M 342.5,19.2 344.5,21.4 345.8,23.3 346.6,25 346.9,26.4 346.8,27.7 346.3,28.7 345.6,29.5 344.7,30 343.7,30.4 342.5,30.5 341.4,30.4 340.4,30 339.5,29.5 338.8,28.7 338.3,27.7 338.2,26.4 338.5,25 339.3,23.3 340.6,21.4 342.5,19.2 346.4,10" />
<path stroke="#663399" stroke-width="2" d="M 353,70" />
<path stroke="#663399" stroke-width="2" d="M 353,10 353,10.7 353.1,11.4 353.2,12.1 353.4,12.8 353.6,13.4 353.9,14 354.3,14.6 354.7,15.2 355.1,15.8 355.6,16.2 356.2,16.7 356.7,17.1 357.3,17.4 358,17.7 358.6,18 359.3,18.2 360,18.3 360.7,18.3 361.4,18.3 362.1,18.3 362.8,18.2 363.4,18 364.1,17.7 364.7,17.4 365.3,17.1 365.9,16.7 366.4,16.2 366.9,15.8 367.4,15.2 367.8,14.6 368.1,14 368.4,13.4 368.7,12.8 368.8,12.1 369,11.4 369,10.7" />
<path stroke="#663399" stroke-width="2" d="M 375.7,70" />
<path stroke="#663399" stroke-width="2" d="M 385.7,70" />
<path stroke="#663399" stroke-width="2" d="M 387.7,30 393,17.1 393.2,16.7 393.3,16.4 393.4,16.1 393.4,15.7 393.4,15.4 393.4,15 393.4,14.7 393.3,14.3 393.2,14 393,13.7 392.9,13.4 392.7,13.1 392.5,12.8 392.2,12.5 392,12.3 391.7,12.1 391.4,11.9 391.1,11.7 390.8,11.6 390.5,11.5 390.1,11.4 389.8,11.4 389.4,11.4 389.1,11.4 388.7,11.4 388.4,11.5 388,11.6 387.7,11.7 387.4,11.9 387.1,12.1 386.8,12.3 386.6,12.5 386.4,12.8 386.1,13.1 386,13.4 385.8,13.7 385.7,14 385.6,14.3 385.5,14.7 385.4,15 385.4,15.4 385.4,15.7 385.5,16.1 385.6,16.4 385.7,16.7 385.8,17.1 386,17.4 386.1,17.7 386.4,17.9 386.6,18.2 386.8,18.4 387.1,18.7 387.4,18.8 387.7,19 388,19.1 388.4,19.2 388.7,19.3 389.1,19.4 389.4,19.4 389.8,19.4 402.7,14" />
<path stroke="#663399" stroke-width="2" d="M 409.4,70" />
<path stroke="#663399" stroke-width="2" d="M 409.4,30 417,11.5 424.7,30" />
<path stroke="#663399" stroke-width="2" d="M 431.3,70" />
<path stroke="#663399" stroke-width="2" d="M 431.3,10 431.3,30 431.3,24 431.3,23.1 431.4,22.3 431.6,21.4 431.8,20.6 432.1,19.7 432.5,18.9 432.9,18.2 433.4,17.5 434,16.8 434.6,16.2 435.2,15.6 436,15.1 436.7,14.7 437.5,14.3 438.3,14 439.2,13.8 440,13.6 440.9,13.6" />
<path stroke="#663399" stroke-width="2" d="M 447.6,70" />
<path stroke="#663399" stroke-width="2" d="M 457.6,10 449.9,28.5" />
<path stroke="#663399" stroke-width="2" d="M 464.2,70" />
<path stroke="#663399" stroke-width="2" d="M 472.2,10 462.3,19.9 472.2,29.8" />
<path stroke="#663399" stroke-width="2" d="M 478.9,70" />
<path stroke="#663399" stroke-width="2" d="M 488.9,70" />
<path stroke="#663399" stroke-width="2" d="M 496.9,10 497.4,10 497.9,10 498.5,10.1 499,10.3 499.5,10.5 499.9,10.7 500.4,10.9 500.8,11.2 501.2,11.6 501.6,11.9 501.9,12.3 502.2,12.8 502.5,13.2 502.7,13.7 502.9,14.2 503,14.7 503.1,15.2 503.1,15.7 503.1,16.3 503.1,16.8 503,17.3 502.9,17.8 502.7,18.3 502.5,18.8 502.2,19.2 501.9,19.6 501.6,20 501.2,20.4 500.8,20.8 500.4,21.1 499.9,21.3 499.5,21.5 499,21.7 498.5,21.9 497.9,21.9 497.4,22 496.9,22 496.4,21.9 495.9,21.9 495.4,21.7 494.9,21.5 494.4,21.3 493.9,21.1 493.5,20.8 493.1,20.4 492.7,20 492.4,19.6 492.1,19.2 491.8,18.8 491.6,18.3 491.4,17.8 491.3,17.3 491.2,16.8 491.2,16.3 491.2,15.7 491.2,15.2 491.3,14.7 491.4,14.2 491.6,13.7 491.8,13.2 492.1,12.8 492.4,12.3 492.7,11.9 493.1,11.6 493.5,11.2 493.9,10.9 494.4,10.7 494.9,10.5 495.4,10.3 495.9,10.1 496.4,10 496.9,10 514.9,10" />
<path stroke="#663399" stroke-width="2" d="M 521.6,70" />
<path stroke="#663399" stroke-width="2" d="M 531.6,10 530.7,10 529.8,10.1 529,10.2 528.1,10.5 527.3,10.8 526.5,11.1 525.8,11.6 525,12.1 524.4,12.6 523.8,13.2 523.2,13.9 522.7,14.6 522.3,15.4 521.9,16.2 521.6,17 521.4,17.8 521.2,18.7 521.1,19.6 521.1,20.4 521.2,21.3 521.4,22.2 521.6,23 521.9,23.8 522.3,24.6 522.7,25.4 523.2,26.1 523.8,26.7 524.4,27.4 525,27.9 525.8,28.4 526.5,28.9 527.3,29.2 528.1,29.5 529,29.8 529.8,29.9 530.7,30" />
<path stroke="#663399" stroke-width="2" d="M 538.2,70" />
<path stroke="#663399" stroke-width="2" d="M 538.2,10 548.2,10" />
<path stroke="#663399" stroke-width="2" d="M 554.9,70" />
<path stroke="#663399" stroke-width="2" d="M 556.9,10 565.4,18.5" />
<path stroke="#663399" stroke-width="2" d="M 573.9,10 554.1,29.8" />
<path stroke="#663399" stroke-width="2" d="M 580.5,70" />
<path stroke="#663399" stroke-width="2" d="M 580.5,15 580.8,15.3 581.2,15.6 581.5,15.8 581.9,16.1 582.3,16.2 582.7,16.4 583.1,16.5 583.6,16.6 584,16.6 584.4,16.6 584.9,16.6 585.3,16.5 585.7,16.4 586.1,16.2 586.5,16.1 586.9,15.8 587.3,15.6 587.6,15.3 587.9,15 588.2,14.7 588.4,14.3 588.7,13.9 588.8,13.5 589,13.1 589.1,12.7 589.2,12.3 589.2,11.8 589.2,11.4 589.2,11 589.1,10.5 589,10.1 588.8,9.7 588.7,9.3 588.4,8.9 588.2,8.6 587.9,8.2 587.6,7.9 587.3,7.7 586.9,7.4 586.5,7.2 586.1,7 585.7,6.9 585.3,6.7 584.9,6.7 584.4,6.6 584,6.6 583.6,6.7 583.1,6.7 582.7,6.9 582.3,7 581.9,7.2 581.5,7.4 581.2,7.7 580.8,7.9 580.5,8.2 580.3,8.6 580,8.9 579.8,9.3 579.6,9.7 579.4,10.1 579.3,10.5 579.3,11 579.2,11.4 579.2,11.8 579.3,12.3 579.3,12.7 579.4,13.1 579.6,13.5 579.8,13.9 580,14.3 580.3,14.7 580.5,15 580.5,30" />
<path stroke="#663399" stroke-width="2" d="M 595.9,70" />
</svg>