<svg xmlns="http://www.w3.org/2000/svg" width="567.5134341010397" height="60.0" style="fill:none; stroke-linecap:round;">
    <rect width="100%" height="100%" fill="#F3F3F7" />
<path stroke="#663399" stroke-width="2" d="M 300,50" />
<path stroke="#663399" stroke-width="2" d="M 30,40 30.9,40 31.7,39.9 32.6,39.8 33.4,39.5 34.3,39.2 35.1,38.9 35.8,38.4 36.5,37.9 37.2,37.4 37.8,36.8 38.4,36.1 38.9,35.4 39.3,34.6 39.7,33.8 40,33 40.2,32.2 40.4,31.3 40.4,30.4 40.4,29.6 40.4,28.7 40.2,27.8 40,27 39.7,26.2 39.3,25.4 38.9,24.6 38.4,23.9 37.8,23.3 37.2,22.6 36.5,22.1 35.8,21.6 35.1,21.1 34.3,20.8 33.4,20.5 32.6,20.2 31.7,20.1 30.9,20 30,20 29.1,20.1 28.3,20.2 27.4,20.5 26.6,20.8 25.8,21.1 25.1,21.6 24.3,22.1 23.7,22.6 23.1,23.3 22.5,23.9 22,24.6 21.6,25.4 21.2,26.2 20.9,27 20.7,27.8 20.5,28.7 20.4,29.6 20.4,30.4 20.5,31.3 20.7,32.2 20.9,33 21.2,33.8 21.6,34.6 22,35.4 22.5,36.1 23.1,36.8 23.7,37.4 24.3,37.9 25.1,38.4 25.8,38.9 26.6,39.2 27.4,39.5 28.3,39.8 29.1,39.9 30,40" />
<path stroke="#663399" stroke-width="2" d="M 47.1,70" />
<path stroke="#663399" stroke-width="2" d="M 49.1,40 54.5,27.1 54.6,26.7 54.7,26.4 54.8,26.1 54.8,25.7 54.8,25.4 54.8,25 54.8,24.7 54.7,24.3 54.6,24 54.5,23.7 54.3,23.4 54.1,23.1 53.9,22.8 53.7,22.5 53.4,22.3 53.1,22.1 52.8,21.9 52.5,21.7 52.2,21.6 51.9,21.5 51.5,21.4 51.2,21.4 50.8,21.4 50.5,21.4 50.1,21.4 49.8,21.5 49.5,21.6 49.1,21.7 48.8,21.9 48.5,22.1 48.3,22.3 48,22.5 47.8,22.8 47.5,23.1 47.4,23.4 47.2,23.7 47.1,24 47,24.3 46.9,24.7 46.8,25 46.8,25.4 46.8,25.7 46.9,26.1 47,26.4 47.1,26.7 47.2,27.1 47.4,27.4 47.5,27.7 47.8,27.9 48,28.2 48.3,28.4 48.5,28.7 48.8,28.8 49.1,29 49.5,29.1 49.8,29.2 50.1,29.3 50.5,29.4 50.8,29.4 51.2,29.4 64.1,24" />
<path stroke="#663399" stroke-width="2" d="M 70.8,70" />
<path stroke="#663399" stroke-width="2" d="M 94.1,70" />
<path stroke="#663399" stroke-width="2" d="M 94.1,20 101.8,38.5 109.4,20" />
<path stroke="#663399" stroke-width="2" d="M 116.1,70" />
<path stroke="#663399" stroke-width="2" d="M 118.1,40 123.4,27.1 123.6,26.7 123.7,26.4 123.8,26.1 123.8,25.7 123.8,25.4 123.8,25 123.8,24.7 123.7,24.3 123.6,24 123.4,23.7 123.3,23.4 123.1,23.1 122.9,22.8 122.6,22.5 122.4,22.3 122.1,22.1 121.8,21.9 121.5,21.7 121.2,21.6 120.9,21.5 120.5,21.4 120.2,21.4 119.8,21.4 119.5,21.4 119.1,21.4 118.8,21.5 118.4,21.6 118.1,21.7 117.8,21.9 117.5,22.1 117.2,22.3 117,22.5 116.8,22.8 116.5,23.1 116.4,23.4 116.2,23.7 116.1,24 116,24.3 115.9,24.7 115.8,25 115.8,25.4 115.8,25.7 115.9,26.1 116,26.4 116.1,26.7 116.2,27.1 116.4,27.4 116.5,27.7 116.8,27.9 117,28.2 117.2,28.4 117.5,28.7 117.8,28.8 118.1,29 118.4,29.1 118.8,29.2 119.1,29.3 119.5,29.4 119.8,29.4 120.2,29.4 133.1,24" />
<path stroke="#663399" stroke-width="2" d="M 139.8,70" />
<path stroke="#663399" stroke-width="2" d="M 159.8,20 140,39.8" />
<path stroke="#663399" stroke-width="2" d="M 140,19.8 159.8,39.6" />
<path stroke="#663399" stroke-width="2" d="M 166.4,70" />
<path stroke="#663399" stroke-width="2" d="M 168.4,40 173.8,27.1 173.9,26.7 174,26.4 174.1,26.1 174.1,25.7 174.2,25.4 174.1,25 174.1,24.7 174,24.3 173.9,24 173.8,23.7 173.6,23.4 173.4,23.1 173.2,22.8 173,22.5 172.7,22.3 172.5,22.1 172.2,21.9 171.9,21.7 171.5,21.6 171.2,21.5 170.9,21.4 170.5,21.4 170.2,21.4 169.8,21.4 169.5,21.4 169.1,21.5 168.8,21.6 168.5,21.7 168.2,21.9 167.9,22.1 167.6,22.3 167.3,22.5 167.1,22.8 166.9,23.1 166.7,23.4 166.5,23.7 166.4,24 166.3,24.3 166.2,24.7 166.2,25 166.2,25.4 166.2,25.7 166.2,26.1 166.3,26.4 166.4,26.7 166.5,27.1 166.7,27.4 166.9,27.7 167.1,27.9 167.3,28.2 167.6,28.4 167.9,28.7 168.2,28.8 168.5,29 168.8,29.1 169.1,29.2 169.5,29.3 169.8,29.4 170.2,29.4 170.5,29.4 183.4,24" />
<path stroke="#663399" stroke-width="2" d="M 190.1,70" />
<path stroke="#663399" stroke-width="2" d="M 190.1,20 191,20 191.9,20.1 192.7,20.2 193.6,20.5 194.4,20.8 195.2,21.1 195.9,21.6 196.6,22.1 197.3,22.6 197.9,23.2 198.5,23.9 199,24.6 199.4,25.4 199.8,26.2 200.1,27 200.3,27.8 200.5,28.7 200.5,29.6 200.5,30.4 200.5,31.3 200.3,32.2 200.1,33 199.8,33.8 199.4,34.6 199,35.4 198.5,36.1 197.9,36.7 197.3,37.4 196.6,37.9 195.9,38.4 195.2,38.9 194.4,39.2 193.6,39.5 192.7,39.8 191.9,39.9 191,40" />
<path stroke="#663399" stroke-width="2" d="M 207.2,70" />
<path stroke="#663399" stroke-width="2" d="M 230.5,70" />
<path stroke="#663399" stroke-width="2" d="M 238.5,20 239.1,20 239.6,20 240.1,20.1 240.6,20.3 241.1,20.5 241.6,20.7 242,20.9 242.5,21.2 242.9,21.6 243.2,21.9 243.6,22.3 243.9,22.8 244.1,23.2 244.3,23.7 244.5,24.2 244.7,24.7 244.8,25.2 244.8,25.7 244.8,26.3 244.8,26.8 244.7,27.3 244.5,27.8 244.3,28.3 244.1,28.8 243.9,29.2 243.6,29.6 243.2,30 242.9,30.4 242.5,30.8 242,31.1 241.6,31.3 241.1,31.5 240.6,31.7 240.1,31.9 239.6,31.9 239.1,32 238.5,32 238,31.9 237.5,31.9 237,31.7 236.5,31.5 236,31.3 235.6,31.1 235.1,30.8 234.7,30.4 234.4,30 234,29.6 233.7,29.2 233.5,28.8 233.3,28.3 233.1,27.8 232.9,27.3 232.9,26.8 232.8,26.3 232.8,25.7 232.9,25.2 232.9,24.7 233.1,24.2 233.3,23.7 233.5,23.2 233.7,22.8 234,22.3 234.4,21.9 234.7,21.6 235.1,21.2 235.6,20.9 236,20.7 236.5,20.5 237,20.3 237.5,20.1 238,20 238.5,20 256.5,20" />
<path stroke="#663399" stroke-width="2" d="M 263.2,70" />
<path stroke="#663399" stroke-width="2" d="M 265.2,40 270.6,27.1 270.7,26.7 270.8,26.4 270.9,26.1 270.9,25.7 270.9,25.4 270.9,25 270.9,24.7 270.8,24.3 270.7,24 270.6,23.7 270.4,23.4 270.2,23.1 270,22.8 269.8,22.5 269.5,22.3 269.2,22.1 268.9,21.9 268.6,21.7 268.3,21.6 268,21.5 267.6,21.4 267.3,21.4 266.9,21.4 266.6,21.4 266.2,21.4 265.9,21.5 265.6,21.6 265.2,21.7 264.9,21.9 264.6,22.1 264.4,22.3 264.1,22.5 263.9,22.8 263.7,23.1 263.5,23.4 263.3,23.7 263.2,24 263.1,24.3 263,24.7 263,25 262.9,25.4 263,25.7 263,26.1 263.1,26.4 263.2,26.7 263.3,27.1 263.5,27.4 263.7,27.7 263.9,27.9 264.1,28.2 264.4,28.4 264.6,28.7 264.9,28.8 265.2,29 265.6,29.1 265.9,29.2 266.2,29.3 266.6,29.4 266.9,29.4 267.3,29.4 280.2,24" />
<path stroke="#663399" stroke-width="2" d="M 286.9,70" />
<path stroke="#663399" stroke-width="2" d="M 286.9,20 286.9,24 286.9,24.5 286.9,25 287,25.6 287.2,26.1 287.3,26.6 287.6,27 287.8,27.5 288.1,27.9 288.5,28.3 288.8,28.7 289.2,29 289.7,29.3 290.1,29.6 290.6,29.8 291.1,30 291.6,30.1 292.1,30.2 292.6,30.3 293.1,30.3 293.7,30.2 294.2,30.1 294.7,30 295.2,29.8 295.7,29.6 296.1,29.3 296.5,29 296.9,28.7 297.3,28.3 297.6,27.9 297.9,27.5 298.2,27 298.4,26.6 298.6,26.1 298.7,25.6 298.8,25 298.9,24.5 298.9,19.5 298.9,39.5" />
<path stroke="#663399" stroke-width="2" d="M 305.5,70" />
<path stroke="#663399" stroke-width="2" d="M 305.5,40 313.2,21.5 320.9,40" />
<path stroke="#663399" stroke-width="2" d="M 327.5,70" />
<path stroke="#663399" stroke-width="2" d="M 327.5,25 327.8,25.3 328.2,25.6 328.5,25.8 328.9,26.1 329.3,26.2 329.7,26.4 330.1,26.5 330.6,26.6 331,26.6 331.4,26.6 331.9,26.6 332.3,26.5 332.7,26.4 333.1,26.2 333.5,26.1 333.9,25.8 334.2,25.6 334.6,25.3 334.9,25 335.2,24.7 335.4,24.3 335.6,23.9 335.8,23.5 336,23.1 336.1,22.7 336.2,22.3 336.2,21.8 336.2,21.4 336.2,21 336.1,20.5 336,20.1 335.8,19.7 335.6,19.3 335.4,18.9 335.2,18.6 334.9,18.2 334.6,17.9 334.2,17.7 333.9,17.4 333.5,17.2 333.1,17 332.7,16.9 332.3,16.7 331.9,16.7 331.4,16.6 331,16.6 330.6,16.7 330.1,16.7 329.7,16.9 329.3,17 328.9,17.2 328.5,17.4 328.2,17.7 327.8,17.9 327.5,18.2 327.2,18.6 327,18.9 326.8,19.3 326.6,19.7 326.4,20.1 326.3,20.5 326.2,21 326.2,21.4 326.2,21.8 326.2,22.3 326.3,22.7 326.4,23.1 326.6,23.5 326.8,23.9 327,24.3 327.2,24.7 327.5,25 327.5,40" />
<path stroke="#663399" stroke-width="2" d="M 342.9,70" />
<path stroke="#663399" stroke-width="2" d="M 342.9,20 346.7,29.2" />
<path stroke="#663399" stroke-width="2" d="M 346.7,29.2 348.6,31.4 349.9,33.3 350.7,35 351,36.4 350.9,37.7 350.5,38.7 349.8,39.5 348.9,40 347.8,40.4 346.7,40.5 345.6,40.4 344.5,40 343.6,39.5 342.9,38.7 342.5,37.7 342.4,36.4 342.7,35 343.5,33.3 344.8,31.4 346.7,29.2 350.5,20" />
<path stroke="#663399" stroke-width="2" d="M 357.2,70" />
<path stroke="#663399" stroke-width="2" d="M 357.2,25 357.5,25.3 357.8,25.6 358.2,25.8 358.6,26.1 359,26.2 359.4,26.4 359.8,26.5 360.2,26.6 360.7,26.6 361.1,26.6 361.5,26.6 362,26.5 362.4,26.4 362.8,26.2 363.2,26.1 363.6,25.8 363.9,25.6 364.3,25.3 364.6,25 364.8,24.7 365.1,24.3 365.3,23.9 365.5,23.5 365.6,23.1 365.8,22.7 365.8,22.3 365.9,21.8 365.9,21.4 365.8,21 365.8,20.5 365.6,20.1 365.5,19.7 365.3,19.3 365.1,18.9 364.8,18.6 364.6,18.2 364.3,17.9 363.9,17.7 363.6,17.4 363.2,17.2 362.8,17 362.4,16.9 362,16.7 361.5,16.7 361.1,16.6 360.7,16.6 360.2,16.7 359.8,16.7 359.4,16.9 359,17 358.6,17.2 358.2,17.4 357.8,17.7 357.5,17.9 357.2,18.2 356.9,18.6 356.7,18.9 356.4,19.3 356.3,19.7 356.1,20.1 356,20.5 355.9,21 355.9,21.4 355.9,21.8 355.9,22.3 356,22.7 356.1,23.1 356.3,23.5 356.4,23.9 356.7,24.3 356.9,24.7 357.2,25 357.2,40" />
<path stroke="#663399" stroke-width="2" d="M 372.5,70" />
<path stroke="#663399" stroke-width="2" d="M 395.9,70" />
<path stroke="#663399" stroke-width="2" d="M 395.9,20 400.9,20 400.9,40" />
<path stroke="#663399" stroke-width="2" d="M 407.5,70" />
<path stroke="#663399" stroke-width="2" d="M 407.5,20 407.5,20.7 407.6,21.4 407.7,22.1 407.9,22.8 408.1,23.4 408.4,24 408.8,24.6 409.2,25.2 409.6,25.8 410.1,26.2 410.7,26.7 411.2,27.1 411.8,27.4 412.5,27.7 413.1,28 413.8,28.2 414.5,28.3 415.2,28.3 415.9,28.3 416.6,28.3 417.3,28.2 417.9,28 418.6,27.7 419.2,27.4 419.8,27.1 420.4,26.7 420.9,26.2 421.4,25.8 421.9,25.2 422.3,24.6 422.6,24 422.9,23.4 423.2,22.8 423.3,22.1 423.5,21.4 423.5,20.7" />
<path stroke="#663399" stroke-width="2" d="M 430.2,70" />
<path stroke="#663399" stroke-width="2" d="M 432.2,40 437.5,27.1 437.7,26.7 437.8,26.4 437.9,26.1 437.9,25.7 437.9,25.4 437.9,25 437.9,24.7 437.8,24.3 437.7,24 437.5,23.7 437.4,23.4 437.2,23.1 437,22.8 436.7,22.5 436.5,22.3 436.2,22.1 435.9,21.9 435.6,21.7 435.3,21.6 435,21.5 434.6,21.4 434.3,21.4 433.9,21.4 433.6,21.4 433.2,21.4 432.9,21.5 432.6,21.6 432.2,21.7 431.9,21.9 431.6,22.1 431.3,22.3 431.1,22.5 430.9,22.8 430.6,23.1 430.5,23.4 430.3,23.7 430.2,24 430.1,24.3 430,24.7 429.9,25 429.9,25.4 429.9,25.7 430,26.1 430.1,26.4 430.2,26.7 430.3,27.1 430.5,27.4 430.6,27.7 430.9,27.9 431.1,28.2 431.3,28.4 431.6,28.7 431.9,28.8 432.2,29 432.6,29.1 432.9,29.2 433.2,29.3 433.6,29.4 433.9,29.4 434.3,29.4 447.2,24" />
<path stroke="#663399" stroke-width="2" d="M 453.9,70" />
<path stroke="#663399" stroke-width="2" d="M 453.9,20 453.9,40 459.5,34.3" />
<path stroke="#663399" stroke-width="2" d="M 466.2,70" />
<path stroke="#663399" stroke-width="2" d="M 489.5,70" />
<path stroke="#663399" stroke-width="2" d="M 497.5,20 487.6,29.9 497.5,39.8" />
<path stroke="#663399" stroke-width="2" d="M 504.2,70" />
<path stroke="#663399" stroke-width="2" d="M 504.2,20 504.2,40 514.2,40" />
<path stroke="#663399" stroke-width="2" d="M 520.9,70" />
<path stroke="#663399" stroke-width="2" d="M 520.9,20 520.9,24 520.9,24.5 520.9,25 521,25.6 521.1,26.1 521.3,26.6 521.5,27 521.8,27.5 522.1,27.9 522.4,28.3 522.8,28.7 523.2,29 523.6,29.3 524.1,29.6 524.6,29.8 525,30 525.6,30.1 526.1,30.2 526.6,30.3 527.1,30.3 527.6,30.2 528.2,30.1 528.7,30 529.1,29.8 529.6,29.6 530.1,29.3 530.5,29 530.9,28.7 531.3,28.3 531.6,27.9 531.9,27.5 532.2,27 532.4,26.6 532.6,26.1 532.7,25.6 532.8,25 532.8,24.5 532.8,19.5 532.8,39.5" />
<path stroke="#663399" stroke-width="2" d="M 539.5,70" />
<path stroke="#663399" stroke-width="2" d="M 547.5,20 537.6,29.9 547.5,39.8" />
<path stroke="#663399" stroke-width="2" d="M 554.2,70" />
</svg>