<svg xmlns="http://www.w3.org/2000/svg" width="600" height="40" style="fill:none; stroke-linecap:round;">
    <rect width="100%" height="100%" fill="#F3F3F7" />
<path stroke="#663399" stroke-width="2" d="M 300,20" />
<path stroke="#663399" stroke-width="2" d="M 18,10 18.9,10 19.7,10.1 20.6,10.2 21.4,10.5 22.3,10.8 23.1,11.1 23.8,11.6 24.5,12.1 25.2,12.6 25.8,13.2 26.4,13.9 26.9,14.6 27.3,15.4 27.7,16.2 28,17 28.2,17.8 28.4,18.7 28.4,19.6 28.4,20.4 28.4,21.3 28.2,22.2 28,23 27.7,23.8 27.3,24.6 26.9,25.4 26.4,26.1 25.8,26.7 25.2,27.4 24.5,27.9 23.8,28.4 23.1,28.9 22.3,29.2 21.4,29.5 20.6,29.8 19.7,29.9 18.9,30 18,30 17.1,29.9 16.3,29.8 15.4,29.5 14.6,29.2 13.8,28.9 13.1,28.4 12.3,27.9 11.7,27.4 11.1,26.7 10.5,26.1 10,25.4 9.6,24.6 9.2,23.8 8.9,23 8.7,22.2 8.5,21.3 8.4,20.4 8.4,19.6 8.5,18.7 8.7,17.8 8.9,17 9.2,16.2 9.6,15.4 10,14.6 10.5,13.9 11.1,13.2 11.7,12.6 12.3,12.1 13.1,11.6 13.8,11.1 14.6,10.8 15.4,10.5 16.3,10.2 17.1,10.1 18,10 36,10" />
<path stroke="#663399" stroke-width="2" d="M 42.7,30" />
<path stroke="#663399" stroke-width="2" d="M 42.7,10 42.7,30 52.7,30" />
<path stroke="#663399" stroke-width="2" d="M 59.3,30" />
<path stroke="#663399" stroke-width="2" d="M 61.3,30 66.7,17.1 66.8,16.7 66.9,16.4 67,16.1 67.1,15.7 67.1,15.4 67.1,15 67,14.7 66.9,14.3 66.8,14 66.7,13.7 66.5,13.4 66.3,13.1 66.1,12.8 65.9,12.5 65.6,12.3 65.4,12.1 65.1,11.9 64.8,11.7 64.4,11.6 64.1,11.5 63.8,11.4 63.4,11.4 63.1,11.4 62.7,11.4 62.4,11.4 62,11.5 61.7,11.6 61.4,11.7 61.1,11.9 60.8,12.1 60.5,12.3 60.2,12.5 60,12.8 59.8,13.1 59.6,13.4 59.4,13.7 59.3,14 59.2,14.3 59.1,14.7 59.1,15 59.1,15.4 59.1,15.7 59.1,16.1 59.2,16.4 59.3,16.7 59.4,17.1 59.6,17.4 59.8,17.7 60,17.9 60.2,18.2 60.5,18.4 60.8,18.7 61.1,18.8 61.4,19 61.7,19.1 62,19.2 62.4,19.3 62.7,19.4 63.1,19.4 63.4,19.4 76.3,14" />
<path stroke="#663399" stroke-width="2" d="M 83,30" />
<path stroke="#663399" stroke-width="2" d="M 93,30" />
<path stroke="#663399" stroke-width="2" d="M 93,10 93,30 98.7,24.3" />
<path stroke="#663399" stroke-width="2" d="M 105.3,30" />
<path stroke="#663399" stroke-width="2" d="M 115.3,10 114.5,10 113.6,10.1 112.7,10.2 111.9,10.5 111.1,10.8 110.3,11.1 109.5,11.6 108.8,12.1 108.1,12.6 107.5,13.2 107,13.9 106.5,14.6 106,15.4 105.7,16.2 105.4,17 105.1,17.8 105,18.7 104.9,19.6 104.9,20.4 105,21.3 105.1,22.2 105.4,23 105.7,23.8 106,24.6 106.5,25.4 107,26.1 107.5,26.7 108.1,27.4 108.8,27.9 109.5,28.4 110.3,28.9 111.1,29.2 111.9,29.5 112.7,29.8 113.6,29.9 114.5,30" />
<path stroke="#663399" stroke-width="2" d="M 122,30" />
<path stroke="#663399" stroke-width="2" d="M 122,10 132,10" />
<path stroke="#663399" stroke-width="2" d="M 138.7,30" />
<path stroke="#663399" stroke-width="2" d="M 148.7,30" />
<path stroke="#663399" stroke-width="2" d="M 148.7,10 153.7,10 153.7,30" />
<path stroke="#663399" stroke-width="2" d="M 160.3,30" />
<path stroke="#663399" stroke-width="2" d="M 160.3,10 160.3,30 170.3,30" />
<path stroke="#663399" stroke-width="2" d="M 177,30" />
<path stroke="#663399" stroke-width="2" d="M 177,10 177,30 177,20 177,19.1 177.1,18.3 177.2,17.4 177.5,16.6 177.8,15.7 178.1,14.9 178.6,14.2 179.1,13.5 179.6,12.8 180.2,12.2 180.9,11.6 181.6,11.1 182.4,10.7 183.2,10.3 184,10 184.8,9.8 185.7,9.6 186.6,9.6" />
<path stroke="#663399" stroke-width="2" d="M 193.2,30" />
<path stroke="#663399" stroke-width="2" d="M 193.2,15 193.2,15.4 193.3,15.9 193.3,16.3 193.5,16.7 193.6,17.1 193.8,17.5 194,17.9 194.3,18.3 194.5,18.6 194.8,18.9 195.2,19.2 195.5,19.4 195.9,19.7 196.3,19.8 196.7,20 197.1,20.1 197.6,20.2 198,20.2 198.4,20.2 198.9,20.2 199.3,20.1 199.7,20 200.1,19.8 200.5,19.7 200.9,19.4 201.3,19.2 201.6,18.9 201.9,18.6 202.2,18.3 202.4,17.9 202.7,17.5 202.8,17.1 203,16.7 203.1,16.3 203.2,15.9 203.2,15.4 203.2,15 203.2,14.6 203.1,14.1 203,13.7 202.8,13.3 202.7,12.9 202.4,12.5 202.2,12.2 201.9,11.8 201.6,11.5 201.3,11.3 200.9,11 200.5,10.8 200.1,10.6 199.7,10.4 199.3,10.3 198.9,10.3 198.4,10.2 198,10.2 197.6,10.3 197.1,10.3 196.7,10.4 196.3,10.6 195.9,10.8 195.5,11 195.2,11.3 194.8,11.5 194.5,11.8 194.3,12.2 194,12.5 193.8,12.9 193.6,13.3 193.5,13.7 193.3,14.1 193.3,14.6 193.2,15 193.2,30" />
<path stroke="#663399" stroke-width="2" d="M 209.9,30" />
<path stroke="#663399" stroke-width="2" d="M 219.9,10 212.2,28.5" />
<path stroke="#663399" stroke-width="2" d="M 226.6,30" />
<path stroke="#663399" stroke-width="2" d="M 236.6,30" />
<path stroke="#663399" stroke-width="2" d="M 244.6,10 245.4,10 246.3,10.1 247.2,10.2 248,10.5 248.8,10.8 249.6,11.1 250.4,11.6 251.1,12.1 251.7,12.6 252.4,13.2 252.9,13.9 253.4,14.6 253.9,15.4 254.2,16.2 254.5,17 254.7,17.8 254.9,18.7 255,19.6 255,20.4 254.9,21.3 254.7,22.2 254.5,23 254.2,23.8 253.9,24.6 253.4,25.4 252.9,26.1 252.4,26.7 251.7,27.4 251.1,27.9 250.4,28.4 249.6,28.9 248.8,29.2 248,29.5 247.2,29.8 246.3,29.9 245.4,30 244.6,30 243.7,29.9 242.8,29.8 242,29.5 241.2,29.2 240.4,28.9 239.6,28.4 238.9,27.9 238.2,27.4 237.6,26.7 237.1,26.1 236.6,25.4 236.1,24.6 235.7,23.8 235.4,23 235.2,22.2 235.1,21.3 235,20.4 235,19.6 235.1,18.7 235.2,17.8 235.4,17 235.7,16.2 236.1,15.4 236.6,14.6 237.1,13.9 237.6,13.2 238.2,12.6 238.9,12.1 239.6,11.6 240.4,11.1 241.2,10.8 242,10.5 242.8,10.2 243.7,10.1 244.6,10 262.6,10" />
<path stroke="#663399" stroke-width="2" d="M 269.2,30" />
<path stroke="#663399" stroke-width="2" d="M 269.2,10 269.2,10.7 269.3,11.4 269.4,12.1 269.6,12.8 269.8,13.4 270.1,14 270.5,14.6 270.9,15.2 271.3,15.8 271.8,16.2 272.3,16.7 272.9,17.1 273.5,17.4 274.1,17.7 274.8,18 275.5,18.2 276.2,18.3 276.9,18.3 277.6,18.3 278.3,18.3 278.9,18.2 279.6,18 280.3,17.7 280.9,17.4 281.5,17.1 282.1,16.7 282.6,16.2 283.1,15.8 283.6,15.2 284,14.6 284.3,14 284.6,13.4 284.8,12.8 285,12.1 285.1,11.4 285.2,10.7" />
<path stroke="#663399" stroke-width="2" d="M 291.9,30" />
<path stroke="#663399" stroke-width="2" d="M 291.9,30 299.5,11.5 307.2,30" />
<path stroke="#663399" stroke-width="2" d="M 313.8,30" />
<path stroke="#663399" stroke-width="2" d="M 318.8,10 313.8,10 313.8,30" />
<path stroke="#663399" stroke-width="2" d="M 325.5,30" />
<path stroke="#663399" stroke-width="2" d="M 327.5,30 332.9,17.1 333,16.7 333.1,16.4 333.2,16.1 333.2,15.7 333.2,15.4 333.2,15 333.2,14.7 333.1,14.3 333,14 332.9,13.7 332.7,13.4 332.5,13.1 332.3,12.8 332.1,12.5 331.8,12.3 331.5,12.1 331.2,11.9 330.9,11.7 330.6,11.6 330.3,11.5 329.9,11.4 329.6,11.4 329.2,11.4 328.9,11.4 328.5,11.4 328.2,11.5 327.9,11.6 327.6,11.7 327.2,11.9 326.9,12.1 326.7,12.3 326.4,12.5 326.2,12.8 326,13.1 325.8,13.4 325.6,13.7 325.5,14 325.4,14.3 325.3,14.7 325.3,15 325.2,15.4 325.3,15.7 325.3,16.1 325.4,16.4 325.5,16.7 325.6,17.1 325.8,17.4 326,17.7 326.2,17.9 326.4,18.2 326.7,18.4 326.9,18.7 327.2,18.8 327.6,19 327.9,19.1 328.2,19.2 328.5,19.3 328.9,19.4 329.2,19.4 329.6,19.4 342.5,14" />
<path stroke="#663399" stroke-width="2" d="M 349.2,30" />
</svg>