<svg xmlns="http://www.w3.org/2000/svg" width="672.5142545682851" height="61.654375" style="fill:none; stroke-linecap:round;">
    <rect width="100%" height="100%" fill="#FFFFFF" />
<path stroke="#000000" stroke-width="2" d="M 300,50" />
<path stroke="#000000" stroke-width="2" d="M 20,40 27.7,21.5 35.3,40" />
<path stroke="#000000" stroke-width="2" d="M 42,70" />
<path stroke="#000000" stroke-width="2" d="M 42,20 62,20" />
<path stroke="#000000" stroke-width="2" d="M 68.6,70" />
<path stroke="#000000" stroke-width="2" d="M 68.6,20" />
<path stroke="#000000" stroke-width="2" d="M 68.6,20 70.1,20.1 71.3,20.6 72.5,21.2 73.4,22.1 74.3,23.1 74.9,24.3 75.5,25.6 75.8,27 76.1,28.5 76.1,30 76.1,31.5 75.8,33 75.5,34.4 74.9,35.7 74.3,36.9 73.4,37.9 72.5,38.8 71.3,39.4 70.1,39.9 68.6,40" />
<path stroke="#000000" stroke-width="2" d="M 82.8,70" />
<path stroke="#000000" stroke-width="2" d="M 106.1,70" />
<path stroke="#000000" stroke-width="2" d="M 114.1,20 114.1,35" />
<path stroke="#000000" stroke-width="2" d="M 114.1,35 114,37 113.7,38.6 113.3,39.9 112.7,40.8 112,41.3 111.3,41.6 110.6,41.7 109.8,41.5 109.1,41.1 108.5,40.6 108,40 107.7,39.3 107.5,38.6 107.5,37.8 107.8,37.1 108.4,36.4 109.3,35.9 110.5,35.4 112.1,35.1 114.1,35" />
<path stroke="#000000" stroke-width="2" d="M 120.8,70" />
<path stroke="#000000" stroke-width="2" d="M 120.8,40 128.5,21.5 136.1,40" />
<path stroke="#000000" stroke-width="2" d="M 142.8,70" />
<path stroke="#000000" stroke-width="2" d="M 152.8,20 145.1,38.5" />
<path stroke="#000000" stroke-width="2" d="M 159.4,70" />
<path stroke="#000000" stroke-width="2" d="M 182.8,70" />
<path stroke="#000000" stroke-width="2" d="M 192.8,20 191.9,20 191,20.1 190.2,20.2 189.3,20.5 188.5,20.8 187.7,21.1 187,21.6 186.3,22.1 185.6,22.6 185,23.2 184.4,23.9 183.9,24.6 183.5,25.4 183.1,26.2 182.8,27 182.6,27.8 182.4,28.7 182.4,29.6 182.4,30.4 182.4,31.3 182.6,32.2 182.8,33 183.1,33.8 183.5,34.6 183.9,35.4 184.4,36.1 185,36.7 185.6,37.4 186.3,37.9 187,38.4 187.7,38.9 188.5,39.2 189.3,39.5 190.2,39.8 191,39.9 191.9,40" />
<path stroke="#000000" stroke-width="2" d="M 199.4,70" />
<path stroke="#000000" stroke-width="2" d="M 199.4,20 219.4,20" />
<path stroke="#000000" stroke-width="2" d="M 226.1,70" />
<path stroke="#000000" stroke-width="2" d="M 249.4,70" />
<path stroke="#000000" stroke-width="2" d="M 259.4,40 260.3,40 261.2,39.9 262,39.8 262.9,39.5 263.7,39.2 264.5,38.9 265.3,38.4 266,37.9 266.6,37.4 267.3,36.8 267.8,36.1 268.3,35.4 268.8,34.6 269.1,33.8 269.4,33 269.6,32.2 269.8,31.3 269.9,30.4 269.9,29.6 269.8,28.7 269.6,27.8 269.4,27 269.1,26.2 268.8,25.4 268.3,24.6 267.8,23.9 267.3,23.3 266.6,22.6 266,22.1 265.3,21.6 264.5,21.1 263.7,20.8 262.9,20.5 262,20.2 261.2,20.1 260.3,20 259.4,20 258.6,20.1 257.7,20.2 256.9,20.5 256.1,20.8 255.3,21.1 254.5,21.6 253.8,22.1 253.1,22.6 252.5,23.3 252,23.9 251.5,24.6 251,25.4 250.6,26.2 250.3,27 250.1,27.8 250,28.7 249.9,29.6 249.9,30.4 250,31.3 250.1,32.2 250.3,33 250.6,33.8 251,34.6 251.5,35.4 252,36.1 252.5,36.8 253.1,37.4 253.8,37.9 254.5,38.4 255.3,38.9 256.1,39.2 256.9,39.5 257.7,39.8 258.6,39.9 259.4,40" />
<path stroke="#000000" stroke-width="2" d="M 276.5,70" />
<path stroke="#000000" stroke-width="2" d="M 278.5,40 283.9,27.1 284,26.7 284.1,26.4 284.2,26.1 284.3,25.7 284.3,25.4 284.3,25 284.2,24.7 284.1,24.3 284,24 283.9,23.7 283.7,23.4 283.6,23.1 283.3,22.8 283.1,22.5 282.8,22.3 282.6,22.1 282.3,21.9 282,21.7 281.6,21.6 281.3,21.5 281,21.4 280.6,21.4 280.3,21.4 279.9,21.4 279.6,21.4 279.2,21.5 278.9,21.6 278.6,21.7 278.3,21.9 278,22.1 277.7,22.3 277.4,22.5 277.2,22.8 277,23.1 276.8,23.4 276.6,23.7 276.5,24 276.4,24.3 276.3,24.7 276.3,25 276.3,25.4 276.3,25.7 276.3,26.1 276.4,26.4 276.5,26.7 276.6,27.1 276.8,27.4 277,27.7 277.2,27.9 277.4,28.2 277.7,28.4 278,28.7 278.3,28.8 278.6,29 278.9,29.1 279.2,29.2 279.6,29.3 279.9,29.4 280.3,29.4 280.6,29.4 293.6,24" />
<path stroke="#000000" stroke-width="2" d="M 300.2,70" />
<path stroke="#000000" stroke-width="2" d="M 323.6,70" />
<path stroke="#000000" stroke-width="2" d="M 323.6,20 323.6,20.7 323.6,21.4 323.7,22.1 323.9,22.8 324.2,23.4 324.5,24 324.8,24.6 325.2,25.2 325.7,25.8 326.1,26.2 326.7,26.7 327.3,27.1 327.9,27.4 328.5,27.7 329.1,28 329.8,28.2 330.5,28.3 331.2,28.3 331.9,28.3 332.6,28.3 333.3,28.2 334,28 334.6,27.7 335.2,27.4 335.8,27.1 336.4,26.7 337,26.2 337.4,25.8 337.9,25.2 338.3,24.6 338.6,24 338.9,23.4 339.2,22.8 339.4,22.1 339.5,21.4 339.5,20.7" />
<path stroke="#000000" stroke-width="2" d="M 346.2,70" />
<path stroke="#000000" stroke-width="2" d="M 346.2,40 353.9,21.5 361.5,40" />
<path stroke="#000000" stroke-width="2" d="M 368.2,70" />
<path stroke="#000000" stroke-width="2" d="M 368.2,20 388.2,20" />
<path stroke="#000000" stroke-width="2" d="M 394.8,70" />
<path stroke="#000000" stroke-width="2" d="M 394.8,20" />
<path stroke="#000000" stroke-width="2" d="M 394.8,20 396.3,20.1 397.5,20.6 398.7,21.2 399.6,22.1 400.5,23.1 401.1,24.3 401.7,25.6 402,27 402.3,28.5 402.3,30 402.3,31.5 402,33 401.7,34.4 401.1,35.7 400.5,36.9 399.6,37.9 398.7,38.8 397.5,39.4 396.3,39.9 394.8,40" />
<path stroke="#000000" stroke-width="2" d="M 409,70" />
<path stroke="#000000" stroke-width="2" d="M 432.3,70" />
<path stroke="#000000" stroke-width="2" d="M 432.3,20 432.3,40" />
<path stroke="#000000" stroke-width="2" d="M 439,70" />
<path stroke="#000000" stroke-width="2" d="M 449,20 448.1,20 447.3,20.1 446.4,20.2 445.6,20.5 444.8,20.8 444,21.1 443.2,21.6 442.5,22.1 441.8,22.6 441.2,23.2 440.6,23.9 440.1,24.6 439.7,25.4 439.3,26.2 439,27 438.8,27.8 438.7,28.7 438.6,29.6 438.6,30.4 438.7,31.3 438.8,32.2 439,33 439.3,33.8 439.7,34.6 440.1,35.4 440.6,36.1 441.2,36.7 441.8,37.4 442.5,37.9 443.2,38.4 444,38.9 444.8,39.2 445.6,39.5 446.4,39.8 447.3,39.9 448.1,40" />
<path stroke="#000000" stroke-width="2" d="M 455.7,70" />
<path stroke="#000000" stroke-width="2" d="M 455.7,20" />
<path stroke="#000000" stroke-width="2" d="M 455.7,20 455.8,20 456.2,20 456.9,20 457.8,20.1 458.8,20.2 460,20.3 461.3,20.4 462.7,20.6 464.2,20.9 465.7,21.2 467.2,21.7 468.6,22.2 470,22.7 471.4,23.4 472.6,24.2 473.6,25.1 474.5,26.1 475.1,27.3 475.5,28.6 475.7,30" />
<path stroke="#000000" stroke-width="2" d="M 475.7,30 477.6,32.1 478.9,34.1 479.7,35.7 480,37.2 479.9,38.4 479.5,39.4 478.8,40.2 477.8,40.8 476.8,41.1 475.7,41.2 474.6,41.1 473.5,40.8 472.6,40.2 471.9,39.4 471.5,38.4 471.4,37.2 471.7,35.7 472.4,34 473.8,32.1 475.7,30" />
<path stroke="#000000" stroke-width="2" d="M 475.7,30 475.7,29.9 475.7,29.7 475.7,29.4 475.8,29 476,28.4 476.2,27.8 476.5,27.2 477,26.5 477.5,25.7 478.2,25 479,24.3 480,23.5 481.2,22.8 482.5,22.2 484.1,21.6 485.9,21 488,20.6 490.3,20.3 492.8,20.1 495.7,20" />
<path stroke="#000000" stroke-width="2" d="M 502.3,70" />
<path stroke="#000000" stroke-width="2" d="M 502.3,20 522.3,20" />
<path stroke="#000000" stroke-width="2" d="M 529,70" />
<path stroke="#000000" stroke-width="2" d="M 529,20" />
<path stroke="#000000" stroke-width="2" d="M 529,20 530.4,20.1 531.7,20.6 532.8,21.2 533.8,22.1 534.6,23.1 535.3,24.3 535.8,25.6 536.2,27 536.4,28.5 536.5,30 536.4,31.5 536.2,33 535.8,34.4 535.3,35.7 534.6,36.9 533.8,37.9 532.8,38.8 531.7,39.4 530.4,39.9 529,40" />
<path stroke="#000000" stroke-width="2" d="M 543.2,70" />
<path stroke="#000000" stroke-width="2" d="M 566.5,70" />
<path stroke="#000000" stroke-width="2" d="M 574.5,20 564.6,29.9 574.5,39.8" />
<path stroke="#000000" stroke-width="2" d="M 581.2,70" />
<path stroke="#000000" stroke-width="2" d="M 583.2,20 591.7,28.5" />
<path stroke="#000000" stroke-width="2" d="M 600.2,20 580.4,39.8" />
<path stroke="#000000" stroke-width="2" d="M 606.8,70" />
<path stroke="#000000" stroke-width="2" d="M 606.8,20" />
<path stroke="#000000" stroke-width="2" d="M 606.8,20 608.2,20.1 609.5,20.6 610.6,21.2 611.6,22.1 612.4,23.1 613.1,24.3 613.6,25.6 614,27 614.2,28.5 614.3,30 614.2,31.5 614,33 613.6,34.4 613.1,35.7 612.4,36.9 611.6,37.9 610.6,38.8 609.5,39.4 608.2,39.9 606.8,40" />
<path stroke="#000000" stroke-width="2" d="M 621,70" />
<path stroke="#000000" stroke-width="2" d="M 621,20 621,40 621,34 621,33.1 621.1,32.3 621.2,31.4 621.4,30.6 621.7,29.7 622.1,28.9 622.5,28.2 623,27.5 623.6,26.8 624.2,26.2 624.9,25.6 625.6,25.1 626.4,24.7 627.1,24.3 628,24 628.8,23.8 629.7,23.6 630.5,23.6" />
<path stroke="#000000" stroke-width="2" d="M 637.2,70" />
<path stroke="#000000" stroke-width="2" d="M 637.2,40 644.9,21.5 652.5,40" />
<path stroke="#000000" stroke-width="2" d="M 659.2,70" />
</svg>