<svg xmlns="http://www.w3.org/2000/svg" width="371.21542588575744" height="50.0" style="fill:none; stroke-linecap:round;">
    <rect width="100%" height="100%" fill="#F3F3F7" />
<path stroke="#663399" stroke-width="2" d="M 300,50" />
<path stroke="#663399" stroke-width="2" d="M 28,10 28.5,10 29,10 29.6,10.1 30.1,10.3 30.6,10.5 31,10.7 31.5,10.9 31.9,11.2 32.3,11.6 32.7,11.9 33,12.3 33.3,12.8 33.6,13.2 33.8,13.7 34,14.2 34.1,14.7 34.2,15.2 34.3,15.7 34.3,16.3 34.2,16.8 34.1,17.3 34,17.8 33.8,18.3 33.6,18.8 33.3,19.2 33,19.6 32.7,20 32.3,20.4 31.9,20.8 31.5,21.1 31,21.3 30.6,21.5 30.1,21.7 29.6,21.9 29,21.9 28.5,22 28,22 27.5,21.9 27,21.9 26.5,21.7 26,21.5 25.5,21.3 25,21.1 24.6,20.8 24.2,20.4 23.8,20 23.5,19.6 23.2,19.2 22.9,18.8 22.7,18.3 22.5,17.8 22.4,17.3 22.3,16.8 22.3,16.3 22.3,15.7 22.3,15.2 22.4,14.7 22.5,14.2 22.7,13.7 22.9,13.2 23.2,12.8 23.5,12.3 23.8,11.9 24.2,11.6 24.6,11.2 25,10.9 25.5,10.7 26,10.5 26.5,10.3 27,10.1 27.5,10 28,10 46,10" />
<path stroke="#663399" stroke-width="2" d="M 52.7,70" />
<path stroke="#663399" stroke-width="2" d="M 52.7,10 52.7,30 62.7,30" />
<path stroke="#663399" stroke-width="2" d="M 69.3,70" />
<path stroke="#663399" stroke-width="2" d="M 71.3,30 76.7,17.1 76.8,16.7 76.9,16.4 77,16.1 77.1,15.7 77.1,15.4 77.1,15 77,14.7 76.9,14.3 76.8,14 76.7,13.7 76.5,13.4 76.3,13.1 76.1,12.8 75.9,12.5 75.6,12.3 75.4,12.1 75.1,11.9 74.8,11.7 74.4,11.6 74.1,11.5 73.8,11.4 73.4,11.4 73.1,11.4 72.7,11.4 72.4,11.4 72,11.5 71.7,11.6 71.4,11.7 71.1,11.9 70.8,12.1 70.5,12.3 70.2,12.5 70,12.8 69.8,13.1 69.6,13.4 69.4,13.7 69.3,14 69.2,14.3 69.1,14.7 69.1,15 69.1,15.4 69.1,15.7 69.1,16.1 69.2,16.4 69.3,16.7 69.4,17.1 69.6,17.4 69.8,17.7 70,17.9 70.2,18.2 70.5,18.4 70.8,18.7 71.1,18.8 71.4,19 71.7,19.1 72,19.2 72.4,19.3 72.7,19.4 73.1,19.4 73.4,19.4 86.3,14" />
<path stroke="#663399" stroke-width="2" d="M 93,70" />
<path stroke="#663399" stroke-width="2" d="M 103,70" />
<path stroke="#663399" stroke-width="2" d="M 103,10 103,30 108.7,24.3" />
<path stroke="#663399" stroke-width="2" d="M 115.3,70" />
<path stroke="#663399" stroke-width="2" d="M 125.3,10 124.5,10 123.6,10.1 122.7,10.2 121.9,10.5 121.1,10.8 120.3,11.1 119.5,11.6 118.8,12.1 118.1,12.6 117.5,13.2 117,13.9 116.5,14.6 116,15.4 115.7,16.2 115.4,17 115.1,17.8 115,18.7 114.9,19.6 114.9,20.4 115,21.3 115.1,22.2 115.4,23 115.7,23.8 116,24.6 116.5,25.4 117,26.1 117.5,26.7 118.1,27.4 118.8,27.9 119.5,28.4 120.3,28.9 121.1,29.2 121.9,29.5 122.7,29.8 123.6,29.9 124.5,30" />
<path stroke="#663399" stroke-width="2" d="M 132,70" />
<path stroke="#663399" stroke-width="2" d="M 132,10 142,10" />
<path stroke="#663399" stroke-width="2" d="M 148.7,70" />
<path stroke="#663399" stroke-width="2" d="M 158.7,70" />
<path stroke="#663399" stroke-width="2" d="M 158.7,10 163.7,10 163.7,30" />
<path stroke="#663399" stroke-width="2" d="M 170.3,70" />
<path stroke="#663399" stroke-width="2" d="M 170.3,10 170.3,30 180.3,30" />
<path stroke="#663399" stroke-width="2" d="M 187,70" />
<path stroke="#663399" stroke-width="2" d="M 187,10 187,30 187,24 187,23.1 187.1,22.3 187.2,21.4 187.5,20.6 187.8,19.7 188.1,18.9 188.6,18.2 189.1,17.5 189.6,16.8 190.2,16.2 190.9,15.6 191.6,15.1 192.4,14.7 193.2,14.3 194,14 194.8,13.8 195.7,13.6 196.6,13.6" />
<path stroke="#663399" stroke-width="2" d="M 203.2,70" />
<path stroke="#663399" stroke-width="2" d="M 203.2,15 203.5,15.3 203.9,15.6 204.2,15.8 204.6,16.1 205,16.2 205.4,16.4 205.8,16.5 206.3,16.6 206.7,16.6 207.1,16.6 207.6,16.6 208,16.5 208.4,16.4 208.8,16.2 209.2,16.1 209.6,15.8 210,15.6 210.3,15.3 210.6,15 210.9,14.7 211.1,14.3 211.3,13.9 211.5,13.5 211.7,13.1 211.8,12.7 211.9,12.3 211.9,11.8 211.9,11.4 211.9,11 211.8,10.5 211.7,10.1 211.5,9.7 211.3,9.3 211.1,8.9 210.9,8.6 210.6,8.2 210.3,7.9 210,7.7 209.6,7.4 209.2,7.2 208.8,7 208.4,6.9 208,6.7 207.6,6.7 207.1,6.6 206.7,6.6 206.3,6.7 205.8,6.7 205.4,6.9 205,7 204.6,7.2 204.2,7.4 203.9,7.7 203.5,7.9 203.2,8.2 202.9,8.6 202.7,8.9 202.5,9.3 202.3,9.7 202.1,10.1 202,10.5 202,11 201.9,11.4 201.9,11.8 202,12.3 202,12.7 202.1,13.1 202.3,13.5 202.5,13.9 202.7,14.3 202.9,14.7 203.2,15 203.2,30" />
<path stroke="#663399" stroke-width="2" d="M 218.6,70" />
<path stroke="#663399" stroke-width="2" d="M 228.6,10 220.9,28.5" />
<path stroke="#663399" stroke-width="2" d="M 235.2,70" />
<path stroke="#663399" stroke-width="2" d="M 245.2,70" />
<path stroke="#663399" stroke-width="2" d="M 253.2,10 253.8,10 254.3,10 254.8,10.1 255.3,10.3 255.8,10.5 256.3,10.7 256.7,10.9 257.2,11.2 257.6,11.6 257.9,11.9 258.3,12.3 258.6,12.8 258.8,13.2 259,13.7 259.2,14.2 259.4,14.7 259.5,15.2 259.5,15.7 259.5,16.3 259.5,16.8 259.4,17.3 259.2,17.8 259,18.3 258.8,18.8 258.6,19.2 258.3,19.6 257.9,20 257.6,20.4 257.2,20.8 256.7,21.1 256.3,21.3 255.8,21.5 255.3,21.7 254.8,21.9 254.3,21.9 253.8,22 253.2,22 252.7,21.9 252.2,21.9 251.7,21.7 251.2,21.5 250.7,21.3 250.3,21.1 249.9,20.8 249.4,20.4 249.1,20 248.7,19.6 248.4,19.2 248.2,18.8 248,18.3 247.8,17.8 247.6,17.3 247.6,16.8 247.5,16.3 247.5,15.7 247.6,15.2 247.6,14.7 247.8,14.2 248,13.7 248.2,13.2 248.4,12.8 248.7,12.3 249.1,11.9 249.4,11.6 249.9,11.2 250.3,10.9 250.7,10.7 251.2,10.5 251.7,10.3 252.2,10.1 252.7,10 253.2,10 271.2,10" />
<path stroke="#663399" stroke-width="2" d="M 277.9,70" />
<path stroke="#663399" stroke-width="2" d="M 277.9,10 277.9,10.7 278,11.4 278.1,12.1 278.3,12.8 278.5,13.4 278.8,14 279.2,14.6 279.6,15.2 280,15.8 280.5,16.2 281,16.7 281.6,17.1 282.2,17.4 282.8,17.7 283.5,18 284.2,18.2 284.9,18.3 285.6,18.3 286.2,18.3 286.9,18.3 287.6,18.2 288.3,18 289,17.7 289.6,17.4 290.2,17.1 290.8,16.7 291.3,16.2 291.8,15.8 292.2,15.2 292.6,14.6 293,14 293.3,13.4 293.5,12.8 293.7,12.1 293.8,11.4 293.9,10.7" />
<path stroke="#663399" stroke-width="2" d="M 300.6,70" />
<path stroke="#663399" stroke-width="2" d="M 300.6,30 308.2,11.5 315.9,30" />
<path stroke="#663399" stroke-width="2" d="M 322.5,70" />
<path stroke="#663399" stroke-width="2" d="M 327.5,10 322.5,10 322.5,30" />
<path stroke="#663399" stroke-width="2" d="M 334.2,70" />
<path stroke="#663399" stroke-width="2" d="M 336.2,30 341.6,17.1 341.7,16.7 341.8,16.4 341.9,16.1 341.9,15.7 341.9,15.4 341.9,15 341.9,14.7 341.8,14.3 341.7,14 341.6,13.7 341.4,13.4 341.2,13.1 341,12.8 340.8,12.5 340.5,12.3 340.2,12.1 339.9,11.9 339.6,11.7 339.3,11.6 339,11.5 338.6,11.4 338.3,11.4 337.9,11.4 337.6,11.4 337.2,11.4 336.9,11.5 336.6,11.6 336.2,11.7 335.9,11.9 335.6,12.1 335.4,12.3 335.1,12.5 334.9,12.8 334.7,13.1 334.5,13.4 334.3,13.7 334.2,14 334.1,14.3 334,14.7 333.9,15 333.9,15.4 333.9,15.7 334,16.1 334.1,16.4 334.2,16.7 334.3,17.1 334.5,17.4 334.7,17.7 334.9,17.9 335.1,18.2 335.4,18.4 335.6,18.7 335.9,18.8 336.2,19 336.6,19.1 336.9,19.2 337.2,19.3 337.6,19.4 337.9,19.4 338.3,19.4 351.2,14" />
<path stroke="#663399" stroke-width="2" d="M 357.9,70" />
</svg>