<svg xmlns="http://www.w3.org/2000/svg" width="600" height="40" style="fill:none; stroke-linecap:round;">
    <rect width="100%" height="100%" fill="#F3F3F7" />
<path stroke="#663399" stroke-width="2" d="M 300,20" />
<path stroke="#663399" stroke-width="2" d="M 20,10 19.1,10 18.3,10.1 17.4,10.2 16.6,10.5 15.7,10.8 14.9,11.1 14.2,11.6 13.5,12.1 12.8,12.6 12.2,13.2 11.6,13.9 11.1,14.6 10.7,15.4 10.3,16.2 10,17 9.8,17.8 9.6,18.7 9.6,19.6 9.6,20.4 9.6,21.3 9.8,22.2 10,23 10.3,23.8 10.7,24.6 11.1,25.4 11.6,26.1 12.2,26.7 12.8,27.4 13.5,27.9 14.2,28.4 14.9,28.9 15.7,29.2 16.6,29.5 17.4,29.8 18.3,29.9 19.1,30" />
<path stroke="#663399" stroke-width="2" d="M 26.7,30" />
<path stroke="#663399" stroke-width="2" d="M 26.7,10 34.3,28.5 42,10" />
<path stroke="#663399" stroke-width="2" d="M 48.6,30" />
<path stroke="#663399" stroke-width="2" d="M 50.6,30 56,17.1 56.1,16.7 56.2,16.4 56.3,16.1 56.4,15.7 56.4,15.4 56.4,15 56.3,14.7 56.2,14.3 56.1,14 56,13.7 55.8,13.4 55.6,13.1 55.4,12.8 55.2,12.5 54.9,12.3 54.7,12.1 54.4,11.9 54.1,11.7 53.7,11.6 53.4,11.5 53.1,11.4 52.7,11.4 52.4,11.4 52,11.4 51.7,11.4 51.3,11.5 51,11.6 50.7,11.7 50.4,11.9 50.1,12.1 49.8,12.3 49.5,12.5 49.3,12.8 49.1,13.1 48.9,13.4 48.7,13.7 48.6,14 48.5,14.3 48.4,14.7 48.4,15 48.4,15.4 48.4,15.7 48.4,16.1 48.5,16.4 48.6,16.7 48.7,17.1 48.9,17.4 49.1,17.7 49.3,17.9 49.5,18.2 49.8,18.4 50.1,18.7 50.4,18.8 50.7,19 51,19.1 51.3,19.2 51.7,19.3 52,19.4 52.4,19.4 52.7,19.4 65.7,14" />
<path stroke="#663399" stroke-width="2" d="M 72.3,30" />
<path stroke="#663399" stroke-width="2" d="M 72.3,10 72.3,30 72.3,20 72.3,19.1 72.4,18.3 72.6,17.4 72.8,16.6 73.1,15.7 73.4,14.9 73.9,14.2 74.4,13.5 74.9,12.8 75.6,12.2 76.2,11.6 76.9,11.1 77.7,10.7 78.5,10.3 79.3,10 80.1,9.8 81,9.6 81.9,9.6" />
<path stroke="#663399" stroke-width="2" d="M 88.5,30" />
<path stroke="#663399" stroke-width="2" d="M 98.5,30" />
<path stroke="#663399" stroke-width="2" d="M 118.5,20 118.5,20.9 118.5,21.7 118.3,22.6 118.1,23.4 117.8,24.3 117.4,25.1 117,25.8 116.5,26.5 115.9,27.2 115.3,27.8 114.6,28.4 113.9,28.9 113.2,29.3 112.4,29.7 111.6,30 110.7,30.2 109.9,30.4 109,30.4 108.1,30.4 107.2,30.4 106.4,30.2 105.5,30 104.7,29.7 103.9,29.3 103.2,28.9 102.5,28.4 101.8,27.8 101.2,27.2 100.6,26.5 100.1,25.8 99.7,25.1 99.3,24.3 99,23.4 98.8,22.6 98.6,21.7 98.6,20.9 98.6,20 98.6,19.1 98.8,18.3 99,17.4 99.3,16.6 99.7,15.8 100.1,15.1 100.6,14.3 101.2,13.7 101.8,13.1 102.5,12.5 103.2,12 103.9,11.6 104.7,11.2 105.5,10.9 106.4,10.7 107.2,10.5 108.1,10.4 109,10.4 109.9,10.5 110.7,10.7 111.6,10.9 112.4,11.2 113.2,11.6 113.9,12 114.6,12.5 115.3,13.1 115.9,13.7 116.5,14.3 117,15.1 117.4,15.8 117.8,16.6 118.1,17.4 118.3,18.3 118.5,19.1 118.5,20" />
<path stroke="#663399" stroke-width="2" d="M 125.2,30" />
<path stroke="#663399" stroke-width="2" d="M 127.2,30 132.6,17.1 132.7,16.7 132.8,16.4 132.9,16.1 132.9,15.7 132.9,15.4 132.9,15 132.9,14.7 132.8,14.3 132.7,14 132.6,13.7 132.4,13.4 132.2,13.1 132,12.8 131.8,12.5 131.5,12.3 131.2,12.1 130.9,11.9 130.6,11.7 130.3,11.6 130,11.5 129.6,11.4 129.3,11.4 128.9,11.4 128.6,11.4 128.2,11.4 127.9,11.5 127.6,11.6 127.3,11.7 126.9,11.9 126.6,12.1 126.4,12.3 126.1,12.5 125.9,12.8 125.7,13.1 125.5,13.4 125.3,13.7 125.2,14 125.1,14.3 125,14.7 125,15 124.9,15.4 125,15.7 125,16.1 125.1,16.4 125.2,16.7 125.3,17.1 125.5,17.4 125.7,17.7 125.9,17.9 126.1,18.2 126.4,18.4 126.6,18.7 126.9,18.8 127.3,19 127.6,19.1 127.9,19.2 128.2,19.3 128.6,19.4 128.9,19.4 129.3,19.4 142.2,14" />
<path stroke="#663399" stroke-width="2" d="M 148.9,30" />
<path stroke="#663399" stroke-width="2" d="M 158.9,30" />
<path stroke="#663399" stroke-width="2" d="M 158.9,10 158.9,10.7 159,11.4 159.1,12.1 159.3,12.8 159.5,13.4 159.8,14 160.1,14.6 160.5,15.2 161,15.8 161.5,16.2 162,16.7 162.6,17.1 163.2,17.4 163.8,17.7 164.5,18 165.2,18.2 165.8,18.3 166.5,18.3 167.2,18.3 167.9,18.3 168.6,18.2 169.3,18 169.9,17.7 170.6,17.4 171.2,17.1 171.8,16.7 172.3,16.2 172.8,15.8 173.2,15.2 173.6,14.6 174,14 174.3,13.4 174.5,12.8 174.7,12.1 174.8,11.4 174.9,10.7" />
<path stroke="#663399" stroke-width="2" d="M 181.5,30" />
<path stroke="#663399" stroke-width="2" d="M 181.5,30 189.2,11.5 196.9,30" />
<path stroke="#663399" stroke-width="2" d="M 203.5,30" />
<path stroke="#663399" stroke-width="2" d="M 203.5,10 223.5,10 203.7,29.8 223.7,29.8" />
<path stroke="#663399" stroke-width="2" d="M 230.4,30" />
<path stroke="#663399" stroke-width="2" d="M 232.4,10 240.9,18.5" />
<path stroke="#663399" stroke-width="2" d="M 249.4,10 229.6,29.8" />
<path stroke="#663399" stroke-width="2" d="M 256,30" />
<path stroke="#663399" stroke-width="2" d="M 266,30" />
<path stroke="#663399" stroke-width="2" d="M 266,10 266,14 266,14.5 266.1,15 266.2,15.6 266.3,16.1 266.5,16.6 266.7,17 267,17.5 267.3,17.9 267.6,18.3 268,18.7 268.4,19 268.8,19.3 269.2,19.6 269.7,19.8 270.2,20 270.7,20.1 271.2,20.2 271.8,20.3 272.3,20.3 272.8,20.2 273.3,20.1 273.8,20 274.3,19.8 274.8,19.6 275.2,19.3 275.7,19 276.1,18.7 276.4,18.3 276.8,17.9 277.1,17.5 277.3,17 277.6,16.6 277.7,16.1 277.9,15.6 278,15 278,14.5 278,9.5 278,29.5" />
<path stroke="#663399" stroke-width="2" d="M 284.7,30" />
<path stroke="#663399" stroke-width="2" d="M 284.7,10 284.7,30 284.7,20 284.7,19.1 284.8,18.3 284.9,17.4 285.1,16.6 285.4,15.7 285.8,14.9 286.2,14.2 286.7,13.5 287.3,12.8 287.9,12.2 288.6,11.6 289.3,11.1 290.1,10.7 290.8,10.3 291.7,10 292.5,9.8 293.4,9.6 294.2,9.6" />
<path stroke="#663399" stroke-width="2" d="M 300.9,30" />
<path stroke="#663399" stroke-width="2" d="M 302.9,10 311.4,18.5" />
<path stroke="#663399" stroke-width="2" d="M 319.9,10 300.1,29.8" />
<path stroke="#663399" stroke-width="2" d="M 326.5,30" />
<path stroke="#663399" stroke-width="2" d="M 334.5,10 335.4,10 336.3,10.1 337.1,10.2 338,10.5 338.8,10.8 339.6,11.1 340.3,11.6 341.1,12.1 341.7,12.6 342.3,13.2 342.9,13.9 343.4,14.6 343.8,15.4 344.2,16.2 344.5,17 344.7,17.8 344.9,18.7 345,19.6 345,20.4 344.9,21.3 344.7,22.2 344.5,23 344.2,23.8 343.8,24.6 343.4,25.4 342.9,26.1 342.3,26.7 341.7,27.4 341.1,27.9 340.3,28.4 339.6,28.9 338.8,29.2 338,29.5 337.1,29.8 336.3,29.9 335.4,30 334.5,30 333.7,29.9 332.8,29.8 332,29.5 331.1,29.2 330.4,28.9 329.6,28.4 328.9,27.9 328.2,27.4 327.6,26.7 327,26.1 326.5,25.4 326.1,24.6 325.7,23.8 325.4,23 325.2,22.2 325.1,21.3 325,20.4 325,19.6 325.1,18.7 325.2,17.8 325.4,17 325.7,16.2 326.1,15.4 326.5,14.6 327,13.9 327.6,13.2 328.2,12.6 328.9,12.1 329.6,11.6 330.4,11.1 331.1,10.8 332,10.5 332.8,10.2 333.7,10.1 334.5,10 352.5,10" />
<path stroke="#663399" stroke-width="2" d="M 359.2,30" />
<path stroke="#663399" stroke-width="2" d="M 367.2,10 357.3,19.9 367.2,29.8" />
<path stroke="#663399" stroke-width="2" d="M 373.9,30" />
<path stroke="#663399" stroke-width="2" d="M 383.9,10 383,10 382.1,10.1 381.3,10.2 380.4,10.5 379.6,10.8 378.8,11.1 378.1,11.6 377.3,12.1 376.7,12.6 376.1,13.2 375.5,13.9 375,14.6 374.6,15.4 374.2,16.2 373.9,17 373.7,17.8 373.5,18.7 373.4,19.6 373.4,20.4 373.5,21.3 373.7,22.2 373.9,23 374.2,23.8 374.6,24.6 375,25.4 375.5,26.1 376.1,26.7 376.7,27.4 377.3,27.9 378.1,28.4 378.8,28.9 379.6,29.2 380.4,29.5 381.3,29.8 382.1,29.9 383,30" />
<path stroke="#663399" stroke-width="2" d="M 390.5,30" />
<path stroke="#663399" stroke-width="2" d="M 390.5,10 400.5,10" />
<path stroke="#663399" stroke-width="2" d="M 407.2,30" />
</svg>