<svg xmlns="http://www.w3.org/2000/svg" width="403.1881730937976" height="60.0" style="fill:none; stroke-linecap:round;">
    <rect width="100%" height="100%" fill="#FFFFFF" />
<path stroke="#000000" stroke-width="2" d="M 300,50" />
<path stroke="#000000" stroke-width="2" d="M 28,20" />
<path stroke="#000000" stroke-width="2" d="M 28,20 27.9,22 27.6,23.6 27.1,24.9 26.6,25.8 25.9,26.3 25.2,26.6 24.4,26.7 23.7,26.5 23,26.1 22.4,25.6 21.9,25 21.5,24.3 21.3,23.6 21.4,22.8 21.7,22.1 22.2,21.4 23.1,20.9 24.4,20.4 26,20.1 28,20 38,20" />
<path stroke="#000000" stroke-width="2" d="M 44.7,70" />
<path stroke="#000000" stroke-width="2" d="M 44.7,20 44.7,40 54.7,40" />
<path stroke="#000000" stroke-width="2" d="M 61.3,70" />
<path stroke="#000000" stroke-width="2" d="M 63.3,40 68.7,27.1 68.8,26.7 68.9,26.4 69,26.1 69.1,25.7 69.1,25.4 69.1,25 69,24.7 68.9,24.3 68.8,24 68.7,23.7 68.5,23.4 68.3,23.1 68.1,22.8 67.9,22.5 67.6,22.3 67.4,22.1 67.1,21.9 66.8,21.7 66.4,21.6 66.1,21.5 65.8,21.4 65.4,21.4 65.1,21.4 64.7,21.4 64.4,21.4 64,21.5 63.7,21.6 63.4,21.7 63.1,21.9 62.8,22.1 62.5,22.3 62.2,22.5 62,22.8 61.8,23.1 61.6,23.4 61.4,23.7 61.3,24 61.2,24.3 61.1,24.7 61.1,25 61.1,25.4 61.1,25.7 61.1,26.1 61.2,26.4 61.3,26.7 61.4,27.1 61.6,27.4 61.8,27.7 62,27.9 62.2,28.2 62.5,28.4 62.8,28.7 63.1,28.8 63.4,29 63.7,29.1 64,29.2 64.4,29.3 64.7,29.4 65.1,29.4 65.4,29.4 78.3,24" />
<path stroke="#000000" stroke-width="2" d="M 85,70" />
<path stroke="#000000" stroke-width="2" d="M 108.3,70" />
<path stroke="#000000" stroke-width="2" d="M 108.3,20 108.3,40 114,34.3" />
<path stroke="#000000" stroke-width="2" d="M 120.7,70" />
<path stroke="#000000" stroke-width="2" d="M 130.7,20 129.8,20 128.9,20.1 128.1,20.2 127.2,20.5 126.4,20.8 125.6,21.1 124.9,21.6 124.1,22.1 123.5,22.6 122.9,23.2 122.3,23.9 121.8,24.6 121.4,25.4 121,26.2 120.7,27 120.5,27.8 120.3,28.7 120.2,29.6 120.2,30.4 120.3,31.3 120.5,32.2 120.7,33 121,33.8 121.4,34.6 121.8,35.4 122.3,36.1 122.9,36.7 123.5,37.4 124.1,37.9 124.9,38.4 125.6,38.9 126.4,39.2 127.2,39.5 128.1,39.8 128.9,39.9 129.8,40" />
<path stroke="#000000" stroke-width="2" d="M 137.3,70" />
<path stroke="#000000" stroke-width="2" d="M 137.3,20 157.3,20" />
<path stroke="#000000" stroke-width="2" d="M 164,70" />
<path stroke="#000000" stroke-width="2" d="M 187.3,70" />
<path stroke="#000000" stroke-width="2" d="M 187.3,20 192.3,20 192.3,40" />
<path stroke="#000000" stroke-width="2" d="M 199,70" />
<path stroke="#000000" stroke-width="2" d="M 199,20 199,40 209,40" />
<path stroke="#000000" stroke-width="2" d="M 215.7,70" />
<path stroke="#000000" stroke-width="2" d="M 215.7,20 215.7,40 215.7,34 215.7,33.1 215.7,32.3 215.9,31.4 216.1,30.6 216.4,29.7 216.8,28.9 217.2,28.2 217.7,27.5 218.3,26.8 218.9,26.2 219.6,25.6 220.3,25.1 221,24.7 221.8,24.3 222.7,24 223.5,23.8 224.4,23.6 225.2,23.6" />
<path stroke="#000000" stroke-width="2" d="M 231.9,70" />
<path stroke="#000000" stroke-width="2" d="M 231.9,25" />
<path stroke="#000000" stroke-width="2" d="M 231.9,25 233.9,24.9 235.5,24.6 236.8,24.1 237.7,23.6 238.2,22.9 238.5,22.2 238.5,21.4 238.4,20.7 238,20 237.5,19.4 236.9,18.9 236.2,18.5 235.5,18.3 234.7,18.4 234,18.7 233.3,19.2 232.8,20.1 232.3,21.4 232,23 231.9,25 231.9,40" />
<path stroke="#000000" stroke-width="2" d="M 245.2,70" />
<path stroke="#000000" stroke-width="2" d="M 255.2,20 247.6,38.5" />
<path stroke="#000000" stroke-width="2" d="M 261.9,70" />
<path stroke="#000000" stroke-width="2" d="M 285.2,70" />
<path stroke="#000000" stroke-width="2" d="M 293.2,20" />
<path stroke="#000000" stroke-width="2" d="M 293.2,20 293.1,22 292.8,23.6 292.4,24.9 291.8,25.8 291.1,26.3 290.4,26.6 289.6,26.7 288.9,26.5 288.2,26.1 287.6,25.6 287.1,25 286.7,24.3 286.6,23.6 286.6,22.8 286.9,22.1 287.5,21.4 288.3,20.9 289.6,20.4 291.2,20.1 293.2,20 303.2,20" />
<path stroke="#000000" stroke-width="2" d="M 309.9,70" />
<path stroke="#000000" stroke-width="2" d="M 309.9,20 309.9,20.7 309.9,21.4 310.1,22.1 310.2,22.8 310.5,23.4 310.8,24 311.1,24.6 311.5,25.2 312,25.8 312.5,26.2 313,26.7 313.6,27.1 314.2,27.4 314.8,27.7 315.5,28 316.1,28.2 316.8,28.3 317.5,28.3 318.2,28.3 318.9,28.3 319.6,28.2 320.3,28 320.9,27.7 321.6,27.4 322.2,27.1 322.7,26.7 323.3,26.2 323.8,25.8 324.2,25.2 324.6,24.6 325,24 325.3,23.4 325.5,22.8 325.7,22.1 325.8,21.4 325.9,20.7" />
<path stroke="#000000" stroke-width="2" d="M 332.5,70" />
<path stroke="#000000" stroke-width="2" d="M 332.5,40 340.2,21.5 347.8,40" />
<path stroke="#000000" stroke-width="2" d="M 354.5,70" />
<path stroke="#000000" stroke-width="2" d="M 359.5,20 354.5,20 354.5,40" />
<path stroke="#000000" stroke-width="2" d="M 366.2,70" />
<path stroke="#000000" stroke-width="2" d="M 368.2,40 373.5,27.1 373.7,26.7 373.8,26.4 373.8,26.1 373.9,25.7 373.9,25.4 373.9,25 373.8,24.7 373.8,24.3 373.7,24 373.5,23.7 373.4,23.4 373.2,23.1 373,22.8 372.7,22.5 372.5,22.3 372.2,22.1 371.9,21.9 371.6,21.7 371.3,21.6 370.9,21.5 370.6,21.4 370.3,21.4 369.9,21.4 369.6,21.4 369.2,21.4 368.9,21.5 368.5,21.6 368.2,21.7 367.9,21.9 367.6,22.1 367.3,22.3 367.1,22.5 366.8,22.8 366.6,23.1 366.4,23.4 366.3,23.7 366.1,24 366,24.3 366,24.7 365.9,25 365.9,25.4 365.9,25.7 366,26.1 366,26.4 366.1,26.7 366.3,27.1 366.4,27.4 366.6,27.7 366.8,27.9 367.1,28.2 367.3,28.4 367.6,28.7 367.9,28.8 368.2,29 368.5,29.1 368.9,29.2 369.2,29.3 369.6,29.4 369.9,29.4 370.3,29.4 383.2,24" />
<path stroke="#000000" stroke-width="2" d="M 389.9,70" />
</svg>