<svg xmlns="http://www.w3.org/2000/svg" width="498.03990862960114" height="50.0" style="fill:none; stroke-linecap:round;">
    <rect width="100%" height="100%" fill="#F3F3F7" />
<path stroke="#663399" stroke-width="2" d="M 300,50" />
<path stroke="#663399" stroke-width="2" d="M 30,30 30.9,30 31.7,29.9 32.6,29.8 33.4,29.5 34.3,29.2 35.1,28.9 35.8,28.4 36.5,27.9 37.2,27.4 37.8,26.8 38.4,26.1 38.9,25.4 39.3,24.6 39.7,23.8 40,23 40.2,22.2 40.4,21.3 40.4,20.4 40.4,19.6 40.4,18.7 40.2,17.8 40,17 39.7,16.2 39.3,15.4 38.9,14.6 38.4,13.9 37.8,13.3 37.2,12.6 36.5,12.1 35.8,11.6 35.1,11.1 34.3,10.8 33.4,10.5 32.6,10.2 31.7,10.1 30.9,10 30,10 29.1,10.1 28.3,10.2 27.4,10.5 26.6,10.8 25.8,11.1 25.1,11.6 24.3,12.1 23.7,12.6 23.1,13.3 22.5,13.9 22,14.6 21.6,15.4 21.2,16.2 20.9,17 20.7,17.8 20.5,18.7 20.4,19.6 20.4,20.4 20.5,21.3 20.7,22.2 20.9,23 21.2,23.8 21.6,24.6 22,25.4 22.5,26.1 23.1,26.8 23.7,27.4 24.3,27.9 25.1,28.4 25.8,28.9 26.6,29.2 27.4,29.5 28.3,29.8 29.1,29.9 30,30" />
<path stroke="#663399" stroke-width="2" d="M 47.1,70" />
<path stroke="#663399" stroke-width="2" d="M 49.1,30 54.5,17.1 54.6,16.7 54.7,16.4 54.8,16.1 54.8,15.7 54.8,15.4 54.8,15 54.8,14.7 54.7,14.3 54.6,14 54.5,13.7 54.3,13.4 54.1,13.1 53.9,12.8 53.7,12.5 53.4,12.3 53.1,12.1 52.8,11.9 52.5,11.7 52.2,11.6 51.9,11.5 51.5,11.4 51.2,11.4 50.8,11.4 50.5,11.4 50.1,11.4 49.8,11.5 49.5,11.6 49.1,11.7 48.8,11.9 48.5,12.1 48.3,12.3 48,12.5 47.8,12.8 47.5,13.1 47.4,13.4 47.2,13.7 47.1,14 47,14.3 46.9,14.7 46.8,15 46.8,15.4 46.8,15.7 46.9,16.1 47,16.4 47.1,16.7 47.2,17.1 47.4,17.4 47.5,17.7 47.8,17.9 48,18.2 48.3,18.4 48.5,18.7 48.8,18.8 49.1,19 49.5,19.1 49.8,19.2 50.1,19.3 50.5,19.4 50.8,19.4 51.2,19.4 64.1,14" />
<path stroke="#663399" stroke-width="2" d="M 70.8,70" />
<path stroke="#663399" stroke-width="2" d="M 80.8,70" />
<path stroke="#663399" stroke-width="2" d="M 88.8,15 88.8,15.4 88.7,15.9 88.7,16.3 88.5,16.7 88.4,17.1 88.2,17.5 88,17.9 87.7,18.3 87.5,18.6 87.2,18.9 86.8,19.2 86.5,19.4 86.1,19.7 85.7,19.8 85.3,20 84.9,20.1 84.4,20.2 84,20.2 83.6,20.2 83.1,20.2 82.7,20.1 82.3,20 81.9,19.8 81.5,19.7 81.1,19.4 80.7,19.2 80.4,18.9 80.1,18.6 79.8,18.3 79.6,17.9 79.3,17.5 79.2,17.1 79,16.7 78.9,16.3 78.8,15.9 78.8,15.4 78.8,15 78.8,14.6 78.9,14.1 79,13.7 79.2,13.3 79.3,12.9 79.6,12.5 79.8,12.2 80.1,11.8 80.4,11.5 80.7,11.3 81.1,11 81.5,10.8 81.9,10.6 82.3,10.4 82.7,10.3 83.1,10.3 83.6,10.2 84,10.2 84.4,10.3 84.9,10.3 85.3,10.4 85.7,10.6 86.1,10.8 86.5,11 86.8,11.3 87.2,11.5 87.5,11.8 87.7,12.2 88,12.5 88.2,12.9 88.4,13.3 88.5,13.7 88.7,14.1 88.7,14.6 88.8,15 88.8,30" />
<path stroke="#663399" stroke-width="2" d="M 95.4,70" />
<path stroke="#663399" stroke-width="2" d="M 95.4,10 99.3,19.2" />
<path stroke="#663399" stroke-width="2" d="M 99.3,19.2 101.2,21.4 102.5,23.3 103.3,25 103.6,26.4 103.5,27.7 103,28.7 102.3,29.5 101.4,30 100.4,30.4 99.3,30.5 98.2,30.4 97.1,30 96.2,29.5 95.5,28.7 95.1,27.7 94.9,26.4 95.3,25 96,23.3 97.3,21.4 99.3,19.2 103.1,10" />
<path stroke="#663399" stroke-width="2" d="M 109.8,70" />
<path stroke="#663399" stroke-width="2" d="M 109.8,10 109.8,30 119.8,30" />
<path stroke="#663399" stroke-width="2" d="M 126.4,70" />
<path stroke="#663399" stroke-width="2" d="M 131.4,10 126.4,10 126.4,30" />
<path stroke="#663399" stroke-width="2" d="M 138.1,70" />
<path stroke="#663399" stroke-width="2" d="M 138.1,30 138.1,29.3 138.2,28.6 138.3,27.9 138.5,27.2 138.7,26.6 139,26 139.3,25.4 139.7,24.8 140.2,24.2 140.7,23.8 141.2,23.3 141.8,22.9 142.4,22.6 143,22.3 143.7,22 144.4,21.8 145,21.7 145.7,21.7 146.4,21.7 147.1,21.7 147.8,21.8 148.5,22 149.1,22.3 149.8,22.6 150.4,22.9 151,23.3 151.5,23.8 152,24.2 152.4,24.8 152.8,25.4 153.2,26 153.5,26.6 153.7,27.2 153.9,27.9 154,28.6 154.1,29.3" />
<path stroke="#663399" stroke-width="2" d="M 160.7,70" />
<path stroke="#663399" stroke-width="2" d="M 170.7,70" />
<path stroke="#663399" stroke-width="2" d="M 175.7,10 170.7,10 170.7,30" />
<path stroke="#663399" stroke-width="2" d="M 182.4,70" />
<path stroke="#663399" stroke-width="2" d="M 182.4,10 186.2,19.2" />
<path stroke="#663399" stroke-width="2" d="M 186.2,19.2 188.2,21.4 189.5,23.3 190.3,25 190.6,26.4 190.5,27.7 190,28.7 189.3,29.5 188.4,30 187.4,30.4 186.2,30.5 185.1,30.4 184.1,30 183.2,29.5 182.5,28.7 182,27.7 181.9,26.4 182.2,25 183,23.3 184.3,21.4 186.2,19.2 190.1,10" />
<path stroke="#663399" stroke-width="2" d="M 196.7,70" />
<path stroke="#663399" stroke-width="2" d="M 206.7,10 199.1,28.5" />
<path stroke="#663399" stroke-width="2" d="M 213.4,70" />
<path stroke="#663399" stroke-width="2" d="M 215.4,30 220.8,17.1 220.9,16.7 221,16.4 221.1,16.1 221.1,15.7 221.1,15.4 221.1,15 221.1,14.7 221,14.3 220.9,14 220.8,13.7 220.6,13.4 220.4,13.1 220.2,12.8 220,12.5 219.7,12.3 219.4,12.1 219.1,11.9 218.8,11.7 218.5,11.6 218.2,11.5 217.8,11.4 217.5,11.4 217.1,11.4 216.8,11.4 216.4,11.4 216.1,11.5 215.8,11.6 215.4,11.7 215.1,11.9 214.8,12.1 214.6,12.3 214.3,12.5 214.1,12.8 213.9,13.1 213.7,13.4 213.5,13.7 213.4,14 213.3,14.3 213.2,14.7 213.1,15 213.1,15.4 213.1,15.7 213.2,16.1 213.3,16.4 213.4,16.7 213.5,17.1 213.7,17.4 213.9,17.7 214.1,17.9 214.3,18.2 214.6,18.4 214.8,18.7 215.1,18.8 215.4,19 215.8,19.1 216.1,19.2 216.4,19.3 216.8,19.4 217.1,19.4 217.5,19.4 230.4,14" />
<path stroke="#663399" stroke-width="2" d="M 237.1,70" />
<path stroke="#663399" stroke-width="2" d="M 247.1,70" />
<path stroke="#663399" stroke-width="2" d="M 247.1,10 250.9,19.2" />
<path stroke="#663399" stroke-width="2" d="M 250.9,19.2 252.8,21.4 254.1,23.3 254.9,25 255.2,26.4 255.1,27.7 254.7,28.7 254,29.5 253.1,30 252,30.4 250.9,30.5 249.8,30.4 248.7,30 247.8,29.5 247.1,28.7 246.7,27.7 246.6,26.4 246.9,25 247.7,23.3 249,21.4 250.9,19.2 254.7,10" />
<path stroke="#663399" stroke-width="2" d="M 261.4,70" />
<path stroke="#663399" stroke-width="2" d="M 261.4,10 271.4,10" />
<path stroke="#663399" stroke-width="2" d="M 278.1,70" />
<path stroke="#663399" stroke-width="2" d="M 278.1,10 278.1,30 288.1,30" />
<path stroke="#663399" stroke-width="2" d="M 294.7,70" />
<path stroke="#663399" stroke-width="2" d="M 299.7,10 294.7,10 294.7,30" />
<path stroke="#663399" stroke-width="2" d="M 306.4,70" />
<path stroke="#663399" stroke-width="2" d="M 316.4,10 315.5,10 314.7,10.1 313.8,10.2 313,10.5 312.1,10.8 311.3,11.1 310.6,11.6 309.9,12.1 309.2,12.6 308.6,13.2 308,13.9 307.5,14.6 307.1,15.4 306.7,16.2 306.4,17 306.2,17.8 306.1,18.7 306,19.6 306,20.4 306.1,21.3 306.2,22.2 306.4,23 306.7,23.8 307.1,24.6 307.5,25.4 308,26.1 308.6,26.7 309.2,27.4 309.9,27.9 310.6,28.4 311.3,28.9 312.1,29.2 313,29.5 313.8,29.8 314.7,29.9 315.5,30" />
<path stroke="#663399" stroke-width="2" d="M 323.1,70" />
<path stroke="#663399" stroke-width="2" d="M 323.1,10 323.1,30 323.1,24 323.1,23.1 323.1,22.3 323.3,21.4 323.5,20.6 323.8,19.7 324.2,18.9 324.6,18.2 325.1,17.5 325.7,16.8 326.3,16.2 327,15.6 327.7,15.1 328.4,14.7 329.2,14.3 330.1,14 330.9,13.8 331.8,13.6 332.6,13.6" />
<path stroke="#663399" stroke-width="2" d="M 339.3,70" />
<path stroke="#663399" stroke-width="2" d="M 339.3,10 349.3,10" />
<path stroke="#663399" stroke-width="2" d="M 356,70" />
<path stroke="#663399" stroke-width="2" d="M 366,70" />
<path stroke="#663399" stroke-width="2" d="M 376,10 376,30 366,30" />
<path stroke="#663399" stroke-width="2" d="M 382.6,70" />
<path stroke="#663399" stroke-width="2" d="M 382.6,10 386.5,19.2" />
<path stroke="#663399" stroke-width="2" d="M 386.5,19.2 388.4,21.4 389.7,23.3 390.5,25 390.8,26.4 390.7,27.7 390.2,28.7 389.5,29.5 388.6,30 387.6,30.4 386.5,30.5 385.3,30.4 384.3,30 383.4,29.5 382.7,28.7 382.2,27.7 382.1,26.4 382.4,25 383.2,23.3 384.5,21.4 386.5,19.2 390.3,10" />
<path stroke="#663399" stroke-width="2" d="M 396.9,70" />
<path stroke="#663399" stroke-width="2" d="M 396.9,10 404.6,28.5" />
<path stroke="#663399" stroke-width="2" d="M 411.3,70" />
<path stroke="#663399" stroke-width="2" d="M 419.3,10 419.8,10 420.3,10 420.8,10.1 421.3,10.3 421.8,10.5 422.3,10.7 422.8,10.9 423.2,11.2 423.6,11.6 424,11.9 424.3,12.3 424.6,12.8 424.8,13.2 425.1,13.7 425.2,14.2 425.4,14.7 425.5,15.2 425.5,15.7 425.5,16.3 425.5,16.8 425.4,17.3 425.2,17.8 425.1,18.3 424.8,18.8 424.6,19.2 424.3,19.6 424,20 423.6,20.4 423.2,20.8 422.8,21.1 422.3,21.3 421.8,21.5 421.3,21.7 420.8,21.9 420.3,21.9 419.8,22 419.3,22 418.7,21.9 418.2,21.9 417.7,21.7 417.2,21.5 416.8,21.3 416.3,21.1 415.9,20.8 415.5,20.4 415.1,20 414.8,19.6 414.5,19.2 414.2,18.8 414,18.3 413.8,17.8 413.7,17.3 413.6,16.8 413.5,16.3 413.5,15.7 413.6,15.2 413.7,14.7 413.8,14.2 414,13.7 414.2,13.2 414.5,12.8 414.8,12.3 415.1,11.9 415.5,11.6 415.9,11.2 416.3,10.9 416.8,10.7 417.2,10.5 417.7,10.3 418.2,10.1 418.7,10 419.3,10 437.3,10" />
<path stroke="#663399" stroke-width="2" d="M 443.9,70" />
<path stroke="#663399" stroke-width="2" d="M 445.9,30 451.3,17.1 451.4,16.7 451.5,16.4 451.6,16.1 451.6,15.7 451.7,15.4 451.6,15 451.6,14.7 451.5,14.3 451.4,14 451.3,13.7 451.1,13.4 450.9,13.1 450.7,12.8 450.5,12.5 450.2,12.3 450,12.1 449.7,11.9 449.4,11.7 449,11.6 448.7,11.5 448.4,11.4 448,11.4 447.7,11.4 447.3,11.4 447,11.4 446.6,11.5 446.3,11.6 446,11.7 445.7,11.9 445.4,12.1 445.1,12.3 444.8,12.5 444.6,12.8 444.4,13.1 444.2,13.4 444,13.7 443.9,14 443.8,14.3 443.7,14.7 443.7,15 443.7,15.4 443.7,15.7 443.7,16.1 443.8,16.4 443.9,16.7 444,17.1 444.2,17.4 444.4,17.7 444.6,17.9 444.8,18.2 445.1,18.4 445.4,18.7 445.7,18.8 446,19 446.3,19.1 446.6,19.2 447,19.3 447.3,19.4 447.7,19.4 448,19.4 460.9,14" />
<path stroke="#663399" stroke-width="2" d="M 467.6,70" />
<path stroke="#663399" stroke-width="2" d="M 467.6,10 468.5,10 469.4,10.1 470.2,10.2 471.1,10.5 471.9,10.8 472.7,11.1 473.4,11.6 474.1,12.1 474.8,12.6 475.4,13.2 476,13.9 476.5,14.6 476.9,15.4 477.3,16.2 477.6,17 477.8,17.8 478,18.7 478,19.6 478,20.4 478,21.3 477.8,22.2 477.6,23 477.3,23.8 476.9,24.6 476.5,25.4 476,26.1 475.4,26.7 474.8,27.4 474.1,27.9 473.4,28.4 472.7,28.9 471.9,29.2 471.1,29.5 470.2,29.8 469.4,29.9 468.5,30" />
<path stroke="#663399" stroke-width="2" d="M 484.7,70" />
</svg>