<svg xmlns="http://www.w3.org/2000/svg" width="600" height="40" style="fill:none; stroke-linecap:round;">
    <rect width="100%" height="100%" fill="#F3F3F7" />
<path stroke="#663399" stroke-width="2" d="M 300,20" />
<path stroke="#663399" stroke-width="2" d="M 10,30 17.7,11.5 25.3,30" />
<path stroke="#663399" stroke-width="2" d="M 32,30" />
<path stroke="#663399" stroke-width="2" d="M 32,10 42,10" />
<path stroke="#663399" stroke-width="2" d="M 48.6,30" />
<path stroke="#663399" stroke-width="2" d="M 48.6,10 49.5,10 50.4,10.1 51.2,10.2 52.1,10.5 52.9,10.8 53.7,11.1 54.4,11.6 55.2,12.1 55.8,12.6 56.4,13.2 57,13.9 57.5,14.6 57.9,15.4 58.3,16.2 58.6,17 58.8,17.8 59,18.7 59.1,19.6 59.1,20.4 59,21.3 58.8,22.2 58.6,23 58.3,23.8 57.9,24.6 57.5,25.4 57,26.1 56.4,26.7 55.8,27.4 55.2,27.9 54.4,28.4 53.7,28.9 52.9,29.2 52.1,29.5 51.2,29.8 50.4,29.9 49.5,30" />
<path stroke="#663399" stroke-width="2" d="M 65.7,30" />
<path stroke="#663399" stroke-width="2" d="M 75.7,30" />
<path stroke="#663399" stroke-width="2" d="M 83.7,10 83.7,25" />
<path stroke="#663399" stroke-width="2" d="M 83.7,25 83.6,27 83.3,28.6 82.9,29.9 82.3,30.8 81.6,31.3 80.9,31.6 80.2,31.7 79.4,31.5 78.7,31.1 78.1,30.6 77.6,30 77.3,29.3 77.1,28.6 77.1,27.8 77.4,27.1 78,26.4 78.9,25.9 80.1,25.4 81.7,25.1 83.7,25" />
<path stroke="#663399" stroke-width="2" d="M 90.4,30" />
<path stroke="#663399" stroke-width="2" d="M 90.4,30 98.1,11.5 105.7,30" />
<path stroke="#663399" stroke-width="2" d="M 112.4,30" />
<path stroke="#663399" stroke-width="2" d="M 122.4,10 114.7,28.5" />
<path stroke="#663399" stroke-width="2" d="M 129,30" />
<path stroke="#663399" stroke-width="2" d="M 139,30" />
<path stroke="#663399" stroke-width="2" d="M 149,10 148.2,10 147.3,10.1 146.4,10.2 145.6,10.5 144.8,10.8 144,11.1 143.2,11.6 142.5,12.1 141.8,12.6 141.2,13.2 140.7,13.9 140.2,14.6 139.7,15.4 139.4,16.2 139.1,17 138.8,17.8 138.7,18.7 138.6,19.6 138.6,20.4 138.7,21.3 138.8,22.2 139.1,23 139.4,23.8 139.7,24.6 140.2,25.4 140.7,26.1 141.2,26.7 141.8,27.4 142.5,27.9 143.2,28.4 144,28.9 144.8,29.2 145.6,29.5 146.4,29.8 147.3,29.9 148.2,30" />
<path stroke="#663399" stroke-width="2" d="M 155.7,30" />
<path stroke="#663399" stroke-width="2" d="M 155.7,10 165.7,10" />
<path stroke="#663399" stroke-width="2" d="M 172.4,30" />
<path stroke="#663399" stroke-width="2" d="M 182.4,30" />
<path stroke="#663399" stroke-width="2" d="M 192.4,30 193.2,30 194.1,29.9 195,29.8 195.8,29.5 196.6,29.2 197.4,28.9 198.2,28.4 198.9,27.9 199.6,27.4 200.2,26.8 200.7,26.1 201.2,25.4 201.7,24.6 202,23.8 202.3,23 202.6,22.2 202.7,21.3 202.8,20.4 202.8,19.6 202.7,18.7 202.6,17.8 202.3,17 202,16.2 201.7,15.4 201.2,14.6 200.7,13.9 200.2,13.3 199.6,12.6 198.9,12.1 198.2,11.6 197.4,11.1 196.6,10.8 195.8,10.5 195,10.2 194.1,10.1 193.2,10 192.4,10 191.5,10.1 190.6,10.2 189.8,10.5 189,10.8 188.2,11.1 187.4,11.6 186.7,12.1 186.1,12.6 185.4,13.3 184.9,13.9 184.4,14.6 183.9,15.4 183.6,16.2 183.3,17 183,17.8 182.9,18.7 182.8,19.6 182.8,20.4 182.9,21.3 183,22.2 183.3,23 183.6,23.8 183.9,24.6 184.4,25.4 184.9,26.1 185.4,26.8 186.1,27.4 186.7,27.9 187.4,28.4 188.2,28.9 189,29.2 189.8,29.5 190.6,29.8 191.5,29.9 192.4,30" />
<path stroke="#663399" stroke-width="2" d="M 209.5,30" />
<path stroke="#663399" stroke-width="2" d="M 211.5,30 216.8,17.1 217,16.7 217.1,16.4 217.1,16.1 217.2,15.7 217.2,15.4 217.2,15 217.1,14.7 217.1,14.3 217,14 216.8,13.7 216.7,13.4 216.5,13.1 216.3,12.8 216,12.5 215.8,12.3 215.5,12.1 215.2,11.9 214.9,11.7 214.6,11.6 214.2,11.5 213.9,11.4 213.5,11.4 213.2,11.4 212.9,11.4 212.5,11.4 212.2,11.5 211.8,11.6 211.5,11.7 211.2,11.9 210.9,12.1 210.6,12.3 210.4,12.5 210.1,12.8 209.9,13.1 209.7,13.4 209.6,13.7 209.4,14 209.3,14.3 209.3,14.7 209.2,15 209.2,15.4 209.2,15.7 209.3,16.1 209.3,16.4 209.4,16.7 209.6,17.1 209.7,17.4 209.9,17.7 210.1,17.9 210.4,18.2 210.6,18.4 210.9,18.7 211.2,18.8 211.5,19 211.8,19.1 212.2,19.2 212.5,19.3 212.9,19.4 213.2,19.4 213.5,19.4 226.5,14" />
<path stroke="#663399" stroke-width="2" d="M 233.1,30" />
<path stroke="#663399" stroke-width="2" d="M 243.1,30" />
<path stroke="#663399" stroke-width="2" d="M 243.1,10 243.1,10.7 243.2,11.4 243.3,12.1 243.5,12.8 243.8,13.4 244,14 244.4,14.6 244.8,15.2 245.2,15.8 245.7,16.2 246.3,16.7 246.8,17.1 247.4,17.4 248.1,17.7 248.7,18 249.4,18.2 250.1,18.3 250.8,18.3 251.5,18.3 252.2,18.3 252.9,18.2 253.5,18 254.2,17.7 254.8,17.4 255.4,17.1 256,16.7 256.5,16.2 257,15.8 257.5,15.2 257.9,14.6 258.2,14 258.5,13.4 258.8,12.8 259,12.1 259.1,11.4 259.1,10.7" />
<path stroke="#663399" stroke-width="2" d="M 265.8,30" />
<path stroke="#663399" stroke-width="2" d="M 265.8,30 273.5,11.5 281.1,30" />
<path stroke="#663399" stroke-width="2" d="M 287.8,30" />
<path stroke="#663399" stroke-width="2" d="M 287.8,10 297.8,10" />
<path stroke="#663399" stroke-width="2" d="M 304.4,30" />
<path stroke="#663399" stroke-width="2" d="M 304.4,10 305.3,10 306.2,10.1 307,10.2 307.9,10.5 308.7,10.8 309.5,11.1 310.3,11.6 311,12.1 311.6,12.6 312.3,13.2 312.8,13.9 313.3,14.6 313.7,15.4 314.1,16.2 314.4,17 314.6,17.8 314.8,18.7 314.9,19.6 314.9,20.4 314.8,21.3 314.6,22.2 314.4,23 314.1,23.8 313.7,24.6 313.3,25.4 312.8,26.1 312.3,26.7 311.6,27.4 311,27.9 310.3,28.4 309.5,28.9 308.7,29.2 307.9,29.5 307,29.8 306.2,29.9 305.3,30" />
<path stroke="#663399" stroke-width="2" d="M 321.5,30" />
<path stroke="#663399" stroke-width="2" d="M 331.5,30" />
<path stroke="#663399" stroke-width="2" d="M 331.5,10 331.5,30" />
<path stroke="#663399" stroke-width="2" d="M 338.2,30" />
<path stroke="#663399" stroke-width="2" d="M 348.2,10 347.3,10 346.5,10.1 345.6,10.2 344.8,10.5 343.9,10.8 343.1,11.1 342.4,11.6 341.7,12.1 341,12.6 340.4,13.2 339.8,13.9 339.3,14.6 338.9,15.4 338.5,16.2 338.2,17 338,17.8 337.9,18.7 337.8,19.6 337.8,20.4 337.9,21.3 338,22.2 338.2,23 338.5,23.8 338.9,24.6 339.3,25.4 339.8,26.1 340.4,26.7 341,27.4 341.7,27.9 342.4,28.4 343.1,28.9 343.9,29.2 344.8,29.5 345.6,29.8 346.5,29.9 347.3,30" />
<path stroke="#663399" stroke-width="2" d="M 354.9,30" />
<path stroke="#663399" stroke-width="2" d="M 354.9,10 358.7,19.2" />
<path stroke="#663399" stroke-width="2" d="M 358.7,19.2 360.6,21.4 361.9,23.3 362.7,25 363,26.4 362.9,27.7 362.5,28.7 361.8,29.5 360.9,30 359.8,30.4 358.7,30.5 357.6,30.4 356.5,30 355.6,29.5 354.9,28.7 354.5,27.7 354.4,26.4 354.7,25 355.5,23.3 356.8,21.4 358.7,19.2 362.5,10" />
<path stroke="#663399" stroke-width="2" d="M 369.2,30" />
<path stroke="#663399" stroke-width="2" d="M 369.2,10 379.2,10" />
<path stroke="#663399" stroke-width="2" d="M 385.9,30" />
<path stroke="#663399" stroke-width="2" d="M 385.9,10 386.7,10 387.6,10.1 388.5,10.2 389.3,10.5 390.1,10.8 390.9,11.1 391.7,11.6 392.4,12.1 393,12.6 393.7,13.2 394.2,13.9 394.7,14.6 395.2,15.4 395.5,16.2 395.8,17 396.1,17.8 396.2,18.7 396.3,19.6 396.3,20.4 396.2,21.3 396.1,22.2 395.8,23 395.5,23.8 395.2,24.6 394.7,25.4 394.2,26.1 393.7,26.7 393,27.4 392.4,27.9 391.7,28.4 390.9,28.9 390.1,29.2 389.3,29.5 388.5,29.8 387.6,29.9 386.7,30" />
<path stroke="#663399" stroke-width="2" d="M 402.9,30" />
<path stroke="#663399" stroke-width="2" d="M 412.9,30" />
<path stroke="#663399" stroke-width="2" d="M 420.9,10 411,19.9 420.9,29.8" />
<path stroke="#663399" stroke-width="2" d="M 427.6,30" />
<path stroke="#663399" stroke-width="2" d="M 429.6,10 438.1,18.5" />
<path stroke="#663399" stroke-width="2" d="M 446.6,10 426.8,29.8" />
<path stroke="#663399" stroke-width="2" d="M 453.3,30" />
<path stroke="#663399" stroke-width="2" d="M 453.3,10 454.1,10 455,10.1 455.9,10.2 456.7,10.5 457.5,10.8 458.3,11.1 459.1,11.6 459.8,12.1 460.4,12.6 461.1,13.2 461.6,13.9 462.1,14.6 462.6,15.4 462.9,16.2 463.2,17 463.5,17.8 463.6,18.7 463.7,19.6 463.7,20.4 463.6,21.3 463.5,22.2 463.2,23 462.9,23.8 462.6,24.6 462.1,25.4 461.6,26.1 461.1,26.7 460.4,27.4 459.8,27.9 459.1,28.4 458.3,28.9 457.5,29.2 456.7,29.5 455.9,29.8 455,29.9 454.1,30" />
<path stroke="#663399" stroke-width="2" d="M 470.3,30" />
<path stroke="#663399" stroke-width="2" d="M 470.3,10 470.3,30 470.3,24 470.3,23.1 470.4,22.3 470.6,21.4 470.8,20.6 471.1,19.7 471.5,18.9 471.9,18.2 472.4,17.5 473,16.8 473.6,16.2 474.2,15.6 475,15.1 475.7,14.7 476.5,14.3 477.3,14 478.2,13.8 479,13.6 479.9,13.6" />
<path stroke="#663399" stroke-width="2" d="M 486.6,30" />
<path stroke="#663399" stroke-width="2" d="M 486.6,30 494.2,11.5 501.9,30" />
<path stroke="#663399" stroke-width="2" d="M 508.5,30" />
</svg>