<svg xmlns="http://www.w3.org/2000/svg" width="500" height="40" style="fill:none; stroke-linecap:round;">
    <rect width="100%" height="100%" fill="#F3F3F7" />
<path stroke="#663399" stroke-width="2" d="M 250,20" />
<path stroke="#663399" stroke-width="2" d="M 40,20 40,20.9 39.9,21.7 39.8,22.6 39.5,23.4 39.2,24.3 38.9,25.1 38.4,25.8 37.9,26.5 37.4,27.2 36.8,27.8 36.1,28.4 35.4,28.9 34.6,29.3 33.8,29.7 33,30 32.2,30.2 31.3,30.4 30.4,30.4 29.6,30.4 28.7,30.4 27.8,30.2 27,30 26.2,29.7 25.4,29.3 24.6,28.9 23.9,28.4 23.3,27.8 22.6,27.2 22.1,26.5 21.6,25.8 21.1,25.1 20.8,24.3 20.5,23.4 20.2,22.6 20.1,21.7 20,20.9 20,20 20.1,19.1 20.2,18.3 20.5,17.4 20.8,16.6 21.1,15.8 21.6,15.1 22.1,14.3 22.6,13.7 23.3,13.1 23.9,12.5 24.6,12 25.4,11.6 26.2,11.2 27,10.9 27.8,10.7 28.7,10.5 29.6,10.4 30.4,10.4 31.3,10.5 32.2,10.7 33,10.9 33.8,11.2 34.6,11.6 35.4,12 36.1,12.5 36.8,13.1 37.4,13.7 37.9,14.3 38.4,15.1 38.9,15.8 39.2,16.6 39.5,17.4 39.8,18.3 39.9,19.1 40,20" />
<path stroke="#663399" stroke-width="2" d="M 46.7,30" />
<path stroke="#663399" stroke-width="2" d="M 48.7,30 54,17.1 54.2,16.7 54.3,16.4 54.3,16.1 54.4,15.7 54.4,15.4 54.4,15 54.3,14.7 54.3,14.3 54.2,14 54,13.7 53.9,13.4 53.7,13.1 53.5,12.8 53.2,12.5 53,12.3 52.7,12.1 52.4,11.9 52.1,11.7 51.8,11.6 51.4,11.5 51.1,11.4 50.7,11.4 50.4,11.4 50.1,11.4 49.7,11.4 49.4,11.5 49,11.6 48.7,11.7 48.4,11.9 48.1,12.1 47.8,12.3 47.6,12.5 47.3,12.8 47.1,13.1 46.9,13.4 46.8,13.7 46.6,14 46.5,14.3 46.5,14.7 46.4,15 46.4,15.4 46.4,15.7 46.5,16.1 46.5,16.4 46.6,16.7 46.8,17.1 46.9,17.4 47.1,17.7 47.3,17.9 47.6,18.2 47.8,18.4 48.1,18.7 48.4,18.8 48.7,19 49,19.1 49.4,19.2 49.7,19.3 50.1,19.4 50.4,19.4 50.7,19.4 63.7,14" />
<path stroke="#663399" stroke-width="2" d="M 70.3,30" />
<path stroke="#663399" stroke-width="2" d="M 80.3,30" />
<path stroke="#663399" stroke-width="2" d="M 88.3,15 88.3,15.4 88.3,15.9 88.2,16.3 88.1,16.7 88,17.1 87.8,17.5 87.6,17.9 87.3,18.3 87,18.6 86.7,18.9 86.4,19.2 86,19.4 85.7,19.7 85.3,19.8 84.9,20 84.4,20.1 84,20.2 83.6,20.2 83.1,20.2 82.7,20.2 82.3,20.1 81.8,20 81.4,19.8 81,19.7 80.7,19.4 80.3,19.2 80,18.9 79.7,18.6 79.4,18.3 79.1,17.9 78.9,17.5 78.7,17.1 78.6,16.7 78.5,16.3 78.4,15.9 78.4,15.4 78.4,15 78.4,14.6 78.5,14.1 78.6,13.7 78.7,13.3 78.9,12.9 79.1,12.5 79.4,12.2 79.7,11.8 80,11.5 80.3,11.3 80.7,11 81,10.8 81.4,10.6 81.8,10.4 82.3,10.3 82.7,10.3 83.1,10.2 83.6,10.2 84,10.3 84.4,10.3 84.9,10.4 85.3,10.6 85.7,10.8 86,11 86.4,11.3 86.7,11.5 87,11.8 87.3,12.2 87.6,12.5 87.8,12.9 88,13.3 88.1,13.7 88.2,14.1 88.3,14.6 88.3,15 88.3,30" />
<path stroke="#663399" stroke-width="2" d="M 95,30" />
<path stroke="#663399" stroke-width="2" d="M 95,10 98.8,19.2" />
<path stroke="#663399" stroke-width="2" d="M 98.8,19.2 100.8,21.4 102.1,23.3 102.9,25 103.2,26.4 103.1,27.7 102.6,28.7 101.9,29.5 101,30 100,30.4 98.8,30.5 97.7,30.4 96.7,30 95.8,29.5 95.1,28.7 94.6,27.7 94.5,26.4 94.8,25 95.6,23.3 96.9,21.4 98.8,19.2 102.7,10" />
<path stroke="#663399" stroke-width="2" d="M 109.3,30" />
<path stroke="#663399" stroke-width="2" d="M 109.3,10 109.3,30 119.3,30" />
<path stroke="#663399" stroke-width="2" d="M 126,30" />
<path stroke="#663399" stroke-width="2" d="M 131,10 126,10 126,30" />
<path stroke="#663399" stroke-width="2" d="M 137.7,30" />
<path stroke="#663399" stroke-width="2" d="M 137.7,30 137.7,18 137.7,17.3 137.7,16.6 137.9,15.9 138,15.2 138.3,14.6 138.6,14 138.9,13.4 139.3,12.8 139.8,12.2 140.3,11.8 140.8,11.3 141.4,10.9 142,10.6 142.6,10.3 143.3,10 143.9,9.8 144.6,9.7 145.3,9.7 146,9.7 146.7,9.7 147.4,9.8 148.1,10 148.7,10.3 149.4,10.6 150,10.9 150.5,11.3 151.1,11.8 151.6,12.2 152,12.8 152.4,13.4 152.8,14 153.1,14.6 153.3,15.2 153.5,15.9 153.6,16.6 153.7,17.3 153.7,29.3" />
<path stroke="#663399" stroke-width="2" d="M 160.3,30" />
<path stroke="#663399" stroke-width="2" d="M 170.3,30" />
<path stroke="#663399" stroke-width="2" d="M 175.3,10 170.3,10 170.3,30" />
<path stroke="#663399" stroke-width="2" d="M 182,30" />
<path stroke="#663399" stroke-width="2" d="M 182,10 185.8,19.2" />
<path stroke="#663399" stroke-width="2" d="M 185.8,19.2 187.7,21.4 189.1,23.3 189.8,25 190.1,26.4 190,27.7 189.6,28.7 188.9,29.5 188,30 186.9,30.4 185.8,30.5 184.7,30.4 183.7,30 182.7,29.5 182,28.7 181.6,27.7 181.5,26.4 181.8,25 182.6,23.3 183.9,21.4 185.8,19.2 189.6,10" />
<path stroke="#663399" stroke-width="2" d="M 196.3,30" />
<path stroke="#663399" stroke-width="2" d="M 206.3,10 198.7,28.5" />
<path stroke="#663399" stroke-width="2" d="M 213,30" />
<path stroke="#663399" stroke-width="2" d="M 215,30 220.3,17.1 220.5,16.7 220.6,16.4 220.6,16.1 220.7,15.7 220.7,15.4 220.7,15 220.6,14.7 220.6,14.3 220.5,14 220.3,13.7 220.2,13.4 220,13.1 219.8,12.8 219.5,12.5 219.3,12.3 219,12.1 218.7,11.9 218.4,11.7 218.1,11.6 217.7,11.5 217.4,11.4 217.1,11.4 216.7,11.4 216.4,11.4 216,11.4 215.7,11.5 215.3,11.6 215,11.7 214.7,11.9 214.4,12.1 214.1,12.3 213.9,12.5 213.6,12.8 213.4,13.1 213.2,13.4 213.1,13.7 212.9,14 212.8,14.3 212.8,14.7 212.7,15 212.7,15.4 212.7,15.7 212.8,16.1 212.8,16.4 212.9,16.7 213.1,17.1 213.2,17.4 213.4,17.7 213.6,17.9 213.9,18.2 214.1,18.4 214.4,18.7 214.7,18.8 215,19 215.3,19.1 215.7,19.2 216,19.3 216.4,19.4 216.7,19.4 217.1,19.4 230,14" />
<path stroke="#663399" stroke-width="2" d="M 236.7,30" />
<path stroke="#663399" stroke-width="2" d="M 246.7,30" />
<path stroke="#663399" stroke-width="2" d="M 246.7,10 250.5,19.2" />
<path stroke="#663399" stroke-width="2" d="M 250.5,19.2 252.4,21.4 253.7,23.3 254.5,25 254.8,26.4 254.7,27.7 254.3,28.7 253.6,29.5 252.6,30 251.6,30.4 250.5,30.5 249.4,30.4 248.3,30 247.4,29.5 246.7,28.7 246.3,27.7 246.2,26.4 246.5,25 247.2,23.3 248.6,21.4 250.5,19.2 254.3,10" />
<path stroke="#663399" stroke-width="2" d="M 261,30" />
<path stroke="#663399" stroke-width="2" d="M 261,10 271,10" />
<path stroke="#663399" stroke-width="2" d="M 277.6,30" />
<path stroke="#663399" stroke-width="2" d="M 277.6,10 277.6,30 287.6,30" />
<path stroke="#663399" stroke-width="2" d="M 294.3,30" />
<path stroke="#663399" stroke-width="2" d="M 299.3,10 294.3,10 294.3,30" />
<path stroke="#663399" stroke-width="2" d="M 306,30" />
<path stroke="#663399" stroke-width="2" d="M 316,10 315.1,10 314.2,10.1 313.4,10.2 312.5,10.5 311.7,10.8 310.9,11.1 310.2,11.6 309.5,12.1 308.8,12.6 308.2,13.2 307.6,13.9 307.1,14.6 306.7,15.4 306.3,16.2 306,17 305.8,17.8 305.6,18.7 305.5,19.6 305.5,20.4 305.6,21.3 305.8,22.2 306,23 306.3,23.8 306.7,24.6 307.1,25.4 307.6,26.1 308.2,26.7 308.8,27.4 309.5,27.9 310.2,28.4 310.9,28.9 311.7,29.2 312.5,29.5 313.4,29.8 314.2,29.9 315.1,30" />
<path stroke="#663399" stroke-width="2" d="M 322.6,30" />
<path stroke="#663399" stroke-width="2" d="M 322.6,10 322.6,30 322.6,20 322.6,19.1 322.7,18.3 322.9,17.4 323.1,16.6 323.4,15.7 323.8,14.9 324.2,14.2 324.7,13.5 325.3,12.8 325.9,12.2 326.5,11.6 327.3,11.1 328,10.7 328.8,10.3 329.6,10 330.5,9.8 331.3,9.6 332.2,9.6" />
<path stroke="#663399" stroke-width="2" d="M 338.9,30" />
<path stroke="#663399" stroke-width="2" d="M 338.9,10 348.9,10" />
<path stroke="#663399" stroke-width="2" d="M 355.5,30" />
<path stroke="#663399" stroke-width="2" d="M 365.5,30" />
<path stroke="#663399" stroke-width="2" d="M 375.5,10 375.5,30 365.5,30" />
<path stroke="#663399" stroke-width="2" d="M 382.2,30" />
<path stroke="#663399" stroke-width="2" d="M 382.2,10 386,19.2" />
<path stroke="#663399" stroke-width="2" d="M 386,19.2 387.9,21.4 389.3,23.3 390,25 390.3,26.4 390.2,27.7 389.8,28.7 389.1,29.5 388.2,30 387.1,30.4 386,30.5 384.9,30.4 383.9,30 383,29.5 382.2,28.7 381.8,27.7 381.7,26.4 382,25 382.8,23.3 384.1,21.4 386,19.2 389.9,10" />
<path stroke="#663399" stroke-width="2" d="M 396.5,30" />
<path stroke="#663399" stroke-width="2" d="M 396.5,10 404.2,28.5" />
<path stroke="#663399" stroke-width="2" d="M 410.8,30" />
<path stroke="#663399" stroke-width="2" d="M 418.8,10 419.7,10 420.6,10.1 421.4,10.2 422.3,10.5 423.1,10.8 423.9,11.1 424.6,11.6 425.4,12.1 426,12.6 426.6,13.2 427.2,13.9 427.7,14.6 428.1,15.4 428.5,16.2 428.8,17 429,17.8 429.2,18.7 429.3,19.6 429.3,20.4 429.2,21.3 429,22.2 428.8,23 428.5,23.8 428.1,24.6 427.7,25.4 427.2,26.1 426.6,26.7 426,27.4 425.4,27.9 424.6,28.4 423.9,28.9 423.1,29.2 422.3,29.5 421.4,29.8 420.6,29.9 419.7,30 418.8,30 418,29.9 417.1,29.8 416.3,29.5 415.4,29.2 414.7,28.9 413.9,28.4 413.2,27.9 412.5,27.4 411.9,26.7 411.3,26.1 410.8,25.4 410.4,24.6 410,23.8 409.7,23 409.5,22.2 409.4,21.3 409.3,20.4 409.3,19.6 409.4,18.7 409.5,17.8 409.7,17 410,16.2 410.4,15.4 410.8,14.6 411.3,13.9 411.9,13.2 412.5,12.6 413.2,12.1 413.9,11.6 414.7,11.1 415.4,10.8 416.3,10.5 417.1,10.2 418,10.1 418.8,10 436.8,10" />
<path stroke="#663399" stroke-width="2" d="M 443.5,30" />
<path stroke="#663399" stroke-width="2" d="M 445.5,30 450.9,17.1 451,16.7 451.1,16.4 451.2,16.1 451.2,15.7 451.2,15.4 451.2,15 451.2,14.7 451.1,14.3 451,14 450.9,13.7 450.7,13.4 450.5,13.1 450.3,12.8 450.1,12.5 449.8,12.3 449.5,12.1 449.2,11.9 448.9,11.7 448.6,11.6 448.3,11.5 447.9,11.4 447.6,11.4 447.2,11.4 446.9,11.4 446.5,11.4 446.2,11.5 445.9,11.6 445.5,11.7 445.2,11.9 444.9,12.1 444.7,12.3 444.4,12.5 444.2,12.8 444,13.1 443.8,13.4 443.6,13.7 443.5,14 443.4,14.3 443.3,14.7 443.3,15 443.2,15.4 443.3,15.7 443.3,16.1 443.4,16.4 443.5,16.7 443.6,17.1 443.8,17.4 444,17.7 444.2,17.9 444.4,18.2 444.7,18.4 444.9,18.7 445.2,18.8 445.5,19 445.9,19.1 446.2,19.2 446.5,19.3 446.9,19.4 447.2,19.4 447.6,19.4 460.5,14" />
<path stroke="#663399" stroke-width="2" d="M 467.2,30" />
<path stroke="#663399" stroke-width="2" d="M 467.2,10 468.1,10 468.9,10.1 469.8,10.2 470.6,10.5 471.4,10.8 472.2,11.1 473,11.6 473.7,12.1 474.4,12.6 475,13.2 475.6,13.9 476.1,14.6 476.5,15.4 476.9,16.2 477.2,17 477.4,17.8 477.5,18.7 477.6,19.6 477.6,20.4 477.5,21.3 477.4,22.2 477.2,23 476.9,23.8 476.5,24.6 476.1,25.4 475.6,26.1 475,26.7 474.4,27.4 473.7,27.9 473,28.4 472.2,28.9 471.4,29.2 470.6,29.5 469.8,29.8 468.9,29.9 468.1,30" />
<path stroke="#663399" stroke-width="2" d="M 484.3,30" />
<path stroke="#663399" stroke-width="2" d="M 494.3,30" />
</svg>