<svg xmlns="http://www.w3.org/2000/svg" width="584.8785837803455" height="61.25" style="fill:none; stroke-linecap:round;">
    <rect width="100%" height="100%" fill="#FFFFFF" />
<path stroke="#000000" stroke-width="2" d="M 300,50" />
<path stroke="#000000" stroke-width="2" d="M 30,40 30.9,40 31.7,39.9 32.6,39.8 33.4,39.5 34.3,39.2 35.1,38.9 35.8,38.4 36.5,37.9 37.2,37.4 37.8,36.8 38.4,36.1 38.9,35.4 39.3,34.6 39.7,33.8 40,33 40.2,32.2 40.4,31.3 40.4,30.4 40.4,29.6 40.4,28.7 40.2,27.8 40,27 39.7,26.2 39.3,25.4 38.9,24.6 38.4,23.9 37.8,23.3 37.2,22.6 36.5,22.1 35.8,21.6 35.1,21.1 34.3,20.8 33.4,20.5 32.6,20.2 31.7,20.1 30.9,20 30,20 29.1,20.1 28.3,20.2 27.4,20.5 26.6,20.8 25.8,21.1 25.1,21.6 24.3,22.1 23.7,22.6 23.1,23.3 22.5,23.9 22,24.6 21.6,25.4 21.2,26.2 20.9,27 20.7,27.8 20.5,28.7 20.4,29.6 20.4,30.4 20.5,31.3 20.7,32.2 20.9,33 21.2,33.8 21.6,34.6 22,35.4 22.5,36.1 23.1,36.8 23.7,37.4 24.3,37.9 25.1,38.4 25.8,38.9 26.6,39.2 27.4,39.5 28.3,39.8 29.1,39.9 30,40" />
<path stroke="#000000" stroke-width="2" d="M 47.1,70" />
<path stroke="#000000" stroke-width="2" d="M 49.1,40 54.5,27.1 54.6,26.7 54.7,26.4 54.8,26.1 54.8,25.7 54.8,25.4 54.8,25 54.8,24.7 54.7,24.3 54.6,24 54.5,23.7 54.3,23.4 54.1,23.1 53.9,22.8 53.7,22.5 53.4,22.3 53.1,22.1 52.8,21.9 52.5,21.7 52.2,21.6 51.9,21.5 51.5,21.4 51.2,21.4 50.8,21.4 50.5,21.4 50.1,21.4 49.8,21.5 49.5,21.6 49.1,21.7 48.8,21.9 48.5,22.1 48.3,22.3 48,22.5 47.8,22.8 47.5,23.1 47.4,23.4 47.2,23.7 47.1,24 47,24.3 46.9,24.7 46.8,25 46.8,25.4 46.8,25.7 46.9,26.1 47,26.4 47.1,26.7 47.2,27.1 47.4,27.4 47.5,27.7 47.8,27.9 48,28.2 48.3,28.4 48.5,28.7 48.8,28.8 49.1,29 49.5,29.1 49.8,29.2 50.1,29.3 50.5,29.4 50.8,29.4 51.2,29.4 64.1,24" />
<path stroke="#000000" stroke-width="2" d="M 70.8,70" />
<path stroke="#000000" stroke-width="2" d="M 94.1,70" />
<path stroke="#000000" stroke-width="2" d="M 94.1,20 101.8,38.5 109.4,20" />
<path stroke="#000000" stroke-width="2" d="M 116.1,70" />
<path stroke="#000000" stroke-width="2" d="M 118.1,40 123.4,27.1 123.6,26.7 123.7,26.4 123.8,26.1 123.8,25.7 123.8,25.4 123.8,25 123.8,24.7 123.7,24.3 123.6,24 123.4,23.7 123.3,23.4 123.1,23.1 122.9,22.8 122.6,22.5 122.4,22.3 122.1,22.1 121.8,21.9 121.5,21.7 121.2,21.6 120.9,21.5 120.5,21.4 120.2,21.4 119.8,21.4 119.5,21.4 119.1,21.4 118.8,21.5 118.4,21.6 118.1,21.7 117.8,21.9 117.5,22.1 117.2,22.3 117,22.5 116.8,22.8 116.5,23.1 116.4,23.4 116.2,23.7 116.1,24 116,24.3 115.9,24.7 115.8,25 115.8,25.4 115.8,25.7 115.9,26.1 116,26.4 116.1,26.7 116.2,27.1 116.4,27.4 116.5,27.7 116.8,27.9 117,28.2 117.2,28.4 117.5,28.7 117.8,28.8 118.1,29 118.4,29.1 118.8,29.2 119.1,29.3 119.5,29.4 119.8,29.4 120.2,29.4 133.1,24" />
<path stroke="#000000" stroke-width="2" d="M 139.8,70" />
<path stroke="#000000" stroke-width="2" d="M 159.8,20 140,39.8" />
<path stroke="#000000" stroke-width="2" d="M 140,19.8 159.8,39.6" />
<path stroke="#000000" stroke-width="2" d="M 166.4,70" />
<path stroke="#000000" stroke-width="2" d="M 168.4,40 173.8,27.1 173.9,26.7 174,26.4 174.1,26.1 174.1,25.7 174.2,25.4 174.1,25 174.1,24.7 174,24.3 173.9,24 173.8,23.7 173.6,23.4 173.4,23.1 173.2,22.8 173,22.5 172.7,22.3 172.5,22.1 172.2,21.9 171.9,21.7 171.5,21.6 171.2,21.5 170.9,21.4 170.5,21.4 170.2,21.4 169.8,21.4 169.5,21.4 169.1,21.5 168.8,21.6 168.5,21.7 168.2,21.9 167.9,22.1 167.6,22.3 167.3,22.5 167.1,22.8 166.9,23.1 166.7,23.4 166.5,23.7 166.4,24 166.3,24.3 166.2,24.7 166.2,25 166.2,25.4 166.2,25.7 166.2,26.1 166.3,26.4 166.4,26.7 166.5,27.1 166.7,27.4 166.9,27.7 167.1,27.9 167.3,28.2 167.6,28.4 167.9,28.7 168.2,28.8 168.5,29 168.8,29.1 169.1,29.2 169.5,29.3 169.8,29.4 170.2,29.4 170.5,29.4 183.4,24" />
<path stroke="#000000" stroke-width="2" d="M 190.1,70" />
<path stroke="#000000" stroke-width="2" d="M 190.1,20" />
<path stroke="#000000" stroke-width="2" d="M 190.1,20 191.5,20.1 192.8,20.6 193.9,21.2 194.9,22.1 195.7,23.1 196.4,24.3 196.9,25.6 197.3,27 197.5,28.5 197.6,30 197.5,31.5 197.3,33 196.9,34.4 196.4,35.7 195.7,36.9 194.9,37.9 193.9,38.8 192.8,39.4 191.5,39.9 190.1,40" />
<path stroke="#000000" stroke-width="2" d="M 204.3,70" />
<path stroke="#000000" stroke-width="2" d="M 227.6,70" />
<path stroke="#000000" stroke-width="2" d="M 235.6,20" />
<path stroke="#000000" stroke-width="2" d="M 235.6,20 235.5,22 235.2,23.6 234.8,24.9 234.2,25.8 233.5,26.3 232.8,26.6 232,26.7 231.3,26.5 230.6,26.1 230,25.6 229.5,25 229.1,24.3 229,23.6 229,22.8 229.3,22.1 229.9,21.4 230.7,20.9 232,20.4 233.6,20.1 235.6,20 245.6,20" />
<path stroke="#000000" stroke-width="2" d="M 252.3,70" />
<path stroke="#000000" stroke-width="2" d="M 254.3,40 259.6,27.1 259.8,26.7 259.9,26.4 260,26.1 260,25.7 260,25.4 260,25 260,24.7 259.9,24.3 259.8,24 259.6,23.7 259.5,23.4 259.3,23.1 259.1,22.8 258.8,22.5 258.6,22.3 258.3,22.1 258,21.9 257.7,21.7 257.4,21.6 257,21.5 256.7,21.4 256.4,21.4 256,21.4 255.7,21.4 255.3,21.4 255,21.5 254.6,21.6 254.3,21.7 254,21.9 253.7,22.1 253.4,22.3 253.2,22.5 252.9,22.8 252.7,23.1 252.5,23.4 252.4,23.7 252.3,24 252.1,24.3 252.1,24.7 252,25 252,25.4 252,25.7 252.1,26.1 252.1,26.4 252.3,26.7 252.4,27.1 252.5,27.4 252.7,27.7 252.9,27.9 253.2,28.2 253.4,28.4 253.7,28.7 254,28.8 254.3,29 254.6,29.1 255,29.2 255.3,29.3 255.7,29.4 256,29.4 256.4,29.4 269.3,24" />
<path stroke="#000000" stroke-width="2" d="M 276,70" />
<path stroke="#000000" stroke-width="2" d="M 276,20 276,24 276,24.5 276,25 276.1,25.6 276.2,26.1 276.4,26.6 276.6,27 276.9,27.5 277.2,27.9 277.5,28.3 277.9,28.7 278.3,29 278.7,29.3 279.2,29.6 279.7,29.8 280.2,30 280.7,30.1 281.2,30.2 281.7,30.3 282.2,30.3 282.7,30.2 283.3,30.1 283.8,30 284.3,29.8 284.7,29.6 285.2,29.3 285.6,29 286,28.7 286.4,28.3 286.7,27.9 287,27.5 287.3,27 287.5,26.6 287.7,26.1 287.8,25.6 287.9,25 288,24.5 288,19.5 288,39.5" />
<path stroke="#000000" stroke-width="2" d="M 294.6,70" />
<path stroke="#000000" stroke-width="2" d="M 294.6,40 302.3,21.5 309.9,40" />
<path stroke="#000000" stroke-width="2" d="M 316.6,70" />
<path stroke="#000000" stroke-width="2" d="M 316.6,25" />
<path stroke="#000000" stroke-width="2" d="M 316.6,25 318.6,24.9 320.2,24.6 321.5,24.1 322.4,23.6 322.9,22.9 323.2,22.2 323.2,21.4 323.1,20.7 322.7,20 322.2,19.4 321.6,18.9 320.9,18.5 320.2,18.3 319.4,18.4 318.7,18.7 318,19.2 317.5,20.1 317,21.4 316.7,23 316.6,25 316.6,40" />
<path stroke="#000000" stroke-width="2" d="M 329.9,70" />
<path stroke="#000000" stroke-width="2" d="M 329.9,20" />
<path stroke="#000000" stroke-width="2" d="M 329.9,20 330.1,20 330.5,20 331.1,20 332,20.1 333,20.2 334.2,20.3 335.5,20.4 337,20.6 338.4,20.9 339.9,21.2 341.4,21.7 342.9,22.2 344.3,22.7 345.6,23.4 346.8,24.2 347.8,25.1 348.7,26.1 349.4,27.3 349.8,28.6 349.9,30" />
<path stroke="#000000" stroke-width="2" d="M 349.9,30 351.8,32.1 353.2,34.1 353.9,35.7 354.2,37.2 354.1,38.4 353.7,39.4 353,40.2 352.1,40.8 351,41.1 349.9,41.2 348.8,41.1 347.8,40.8 346.8,40.2 346.1,39.4 345.7,38.4 345.6,37.2 345.9,35.7 346.7,34 348,32.1 349.9,30" />
<path stroke="#000000" stroke-width="2" d="M 349.9,30 349.9,29.9 349.9,29.7 350,29.4 350.1,29 350.2,28.4 350.5,27.8 350.8,27.2 351.2,26.5 351.7,25.7 352.4,25 353.2,24.3 354.2,23.5 355.4,22.8 356.8,22.2 358.3,21.6 360.2,21 362.2,20.6 364.5,20.3 367.1,20.1 369.9,20" />
<path stroke="#000000" stroke-width="2" d="M 376.6,70" />
<path stroke="#000000" stroke-width="2" d="M 376.6,25" />
<path stroke="#000000" stroke-width="2" d="M 376.6,25 378.6,24.9 380.2,24.6 381.5,24.1 382.3,23.6 382.9,22.9 383.2,22.2 383.2,21.4 383.1,20.7 382.7,20 382.2,19.4 381.6,18.9 380.9,18.5 380.2,18.3 379.4,18.4 378.7,18.7 378,19.2 377.4,20.1 377,21.4 376.7,23 376.6,25 376.6,40" />
<path stroke="#000000" stroke-width="2" d="M 389.9,70" />
<path stroke="#000000" stroke-width="2" d="M 413.2,70" />
<path stroke="#000000" stroke-width="2" d="M 413.2,20 418.2,20 418.2,40" />
<path stroke="#000000" stroke-width="2" d="M 424.9,70" />
<path stroke="#000000" stroke-width="2" d="M 424.9,20 424.9,20.7 425,21.4 425.1,22.1 425.3,22.8 425.5,23.4 425.8,24 426.1,24.6 426.5,25.2 427,25.8 427.5,26.2 428,26.7 428.6,27.1 429.2,27.4 429.8,27.7 430.5,28 431.2,28.2 431.8,28.3 432.5,28.3 433.2,28.3 433.9,28.3 434.6,28.2 435.3,28 436,27.7 436.6,27.4 437.2,27.1 437.8,26.7 438.3,26.2 438.8,25.8 439.2,25.2 439.6,24.6 440,24 440.3,23.4 440.5,22.8 440.7,22.1 440.8,21.4 440.9,20.7" />
<path stroke="#000000" stroke-width="2" d="M 447.6,70" />
<path stroke="#000000" stroke-width="2" d="M 449.6,40 454.9,27.1 455,26.7 455.1,26.4 455.2,26.1 455.3,25.7 455.3,25.4 455.3,25 455.2,24.7 455.1,24.3 455,24 454.9,23.7 454.7,23.4 454.6,23.1 454.3,22.8 454.1,22.5 453.9,22.3 453.6,22.1 453.3,21.9 453,21.7 452.7,21.6 452.3,21.5 452,21.4 451.6,21.4 451.3,21.4 450.9,21.4 450.6,21.4 450.2,21.5 449.9,21.6 449.6,21.7 449.3,21.9 449,22.1 448.7,22.3 448.5,22.5 448.2,22.8 448,23.1 447.8,23.4 447.7,23.7 447.5,24 447.4,24.3 447.3,24.7 447.3,25 447.3,25.4 447.3,25.7 447.3,26.1 447.4,26.4 447.5,26.7 447.7,27.1 447.8,27.4 448,27.7 448.2,27.9 448.5,28.2 448.7,28.4 449,28.7 449.3,28.8 449.6,29 449.9,29.1 450.2,29.2 450.6,29.3 450.9,29.4 451.3,29.4 451.6,29.4 464.6,24" />
<path stroke="#000000" stroke-width="2" d="M 471.2,70" />
<path stroke="#000000" stroke-width="2" d="M 471.2,20 471.2,40 476.9,34.3" />
<path stroke="#000000" stroke-width="2" d="M 483.6,70" />
<path stroke="#000000" stroke-width="2" d="M 506.9,70" />
<path stroke="#000000" stroke-width="2" d="M 514.9,20 505,29.9 514.9,39.8" />
<path stroke="#000000" stroke-width="2" d="M 521.6,70" />
<path stroke="#000000" stroke-width="2" d="M 521.6,20 521.6,40 531.6,40" />
<path stroke="#000000" stroke-width="2" d="M 538.2,70" />
<path stroke="#000000" stroke-width="2" d="M 538.2,20 538.2,24 538.2,24.5 538.3,25 538.4,25.6 538.5,26.1 538.7,26.6 538.9,27 539.2,27.5 539.5,27.9 539.8,28.3 540.2,28.7 540.6,29 541,29.3 541.4,29.6 541.9,29.8 542.4,30 542.9,30.1 543.4,30.2 544,30.3 544.5,30.3 545,30.2 545.5,30.1 546,30 546.5,29.8 547,29.6 547.4,29.3 547.9,29 548.3,28.7 548.6,28.3 549,27.9 549.3,27.5 549.5,27 549.8,26.6 549.9,26.1 550.1,25.6 550.2,25 550.2,24.5 550.2,19.5 550.2,39.5" />
<path stroke="#000000" stroke-width="2" d="M 556.9,70" />
<path stroke="#000000" stroke-width="2" d="M 564.9,20 555,29.9 564.9,39.8" />
<path stroke="#000000" stroke-width="2" d="M 571.5,70" />
</svg>