<svg xmlns="http://www.w3.org/2000/svg" width="740.4507970891439" height="61.25" style="fill:none; stroke-linecap:round;">
    <rect width="100%" height="100%" fill="#FFFFFF" />
<path stroke="#000000" stroke-width="2" d="M 300,50" />
<path stroke="#000000" stroke-width="2" d="M 30,40 30.9,40 31.7,39.9 32.6,39.8 33.4,39.5 34.3,39.2 35.1,38.9 35.8,38.4 36.5,37.9 37.2,37.4 37.8,36.8 38.4,36.1 38.9,35.4 39.3,34.6 39.7,33.8 40,33 40.2,32.2 40.4,31.3 40.4,30.4 40.4,29.6 40.4,28.7 40.2,27.8 40,27 39.7,26.2 39.3,25.4 38.9,24.6 38.4,23.9 37.8,23.3 37.2,22.6 36.5,22.1 35.8,21.6 35.1,21.1 34.3,20.8 33.4,20.5 32.6,20.2 31.7,20.1 30.9,20 30,20 29.1,20.1 28.3,20.2 27.4,20.5 26.6,20.8 25.8,21.1 25.1,21.6 24.3,22.1 23.7,22.6 23.1,23.3 22.5,23.9 22,24.6 21.6,25.4 21.2,26.2 20.9,27 20.7,27.8 20.5,28.7 20.4,29.6 20.4,30.4 20.5,31.3 20.7,32.2 20.9,33 21.2,33.8 21.6,34.6 22,35.4 22.5,36.1 23.1,36.8 23.7,37.4 24.3,37.9 25.1,38.4 25.8,38.9 26.6,39.2 27.4,39.5 28.3,39.8 29.1,39.9 30,40" />
<path stroke="#000000" stroke-width="2" d="M 47.1,70" />
<path stroke="#000000" stroke-width="2" d="M 49.1,40 54.5,27.1 54.6,26.7 54.7,26.4 54.8,26.1 54.8,25.7 54.8,25.4 54.8,25 54.8,24.7 54.7,24.3 54.6,24 54.5,23.7 54.3,23.4 54.1,23.1 53.9,22.8 53.7,22.5 53.4,22.3 53.1,22.1 52.8,21.9 52.5,21.7 52.2,21.6 51.9,21.5 51.5,21.4 51.2,21.4 50.8,21.4 50.5,21.4 50.1,21.4 49.8,21.5 49.5,21.6 49.1,21.7 48.8,21.9 48.5,22.1 48.3,22.3 48,22.5 47.8,22.8 47.5,23.1 47.4,23.4 47.2,23.7 47.1,24 47,24.3 46.9,24.7 46.8,25 46.8,25.4 46.8,25.7 46.9,26.1 47,26.4 47.1,26.7 47.2,27.1 47.4,27.4 47.5,27.7 47.8,27.9 48,28.2 48.3,28.4 48.5,28.7 48.8,28.8 49.1,29 49.5,29.1 49.8,29.2 50.1,29.3 50.5,29.4 50.8,29.4 51.2,29.4 64.1,24" />
<path stroke="#000000" stroke-width="2" d="M 70.8,70" />
<path stroke="#000000" stroke-width="2" d="M 94.1,70" />
<path stroke="#000000" stroke-width="2" d="M 94.1,20 104,29.9 94.1,39.8" />
<path stroke="#000000" stroke-width="2" d="M 110.7,70" />
<path stroke="#000000" stroke-width="2" d="M 112.7,40 118,27.1 118.2,26.7 118.3,26.4 118.3,26.1 118.4,25.7 118.4,25.4 118.4,25 118.3,24.7 118.3,24.3 118.2,24 118,23.7 117.9,23.4 117.7,23.1 117.5,22.8 117.2,22.5 117,22.3 116.7,22.1 116.4,21.9 116.1,21.7 115.8,21.6 115.4,21.5 115.1,21.4 114.8,21.4 114.4,21.4 114.1,21.4 113.7,21.4 113.4,21.5 113,21.6 112.7,21.7 112.4,21.9 112.1,22.1 111.8,22.3 111.6,22.5 111.3,22.8 111.1,23.1 110.9,23.4 110.8,23.7 110.6,24 110.5,24.3 110.5,24.7 110.4,25 110.4,25.4 110.4,25.7 110.5,26.1 110.5,26.4 110.6,26.7 110.8,27.1 110.9,27.4 111.1,27.7 111.3,27.9 111.6,28.2 111.8,28.4 112.1,28.7 112.4,28.8 112.7,29 113,29.1 113.4,29.2 113.7,29.3 114.1,29.4 114.4,29.4 114.8,29.4 127.7,24" />
<path stroke="#000000" stroke-width="2" d="M 134.4,70" />
<path stroke="#000000" stroke-width="2" d="M 136.4,40 141.7,27.1 141.8,26.7 142,26.4 142,26.1 142.1,25.7 142.1,25.4 142.1,25 142,24.7 142,24.3 141.8,24 141.7,23.7 141.6,23.4 141.4,23.1 141.2,22.8 140.9,22.5 140.7,22.3 140.4,22.1 140.1,21.9 139.8,21.7 139.5,21.6 139.1,21.5 138.8,21.4 138.4,21.4 138.1,21.4 137.7,21.4 137.4,21.4 137.1,21.5 136.7,21.6 136.4,21.7 136.1,21.9 135.8,22.1 135.5,22.3 135.3,22.5 135,22.8 134.8,23.1 134.6,23.4 134.5,23.7 134.3,24 134.2,24.3 134.1,24.7 134.1,25 134.1,25.4 134.1,25.7 134.1,26.1 134.2,26.4 134.3,26.7 134.5,27.1 134.6,27.4 134.8,27.7 135,27.9 135.3,28.2 135.5,28.4 135.8,28.7 136.1,28.8 136.4,29 136.7,29.1 137.1,29.2 137.4,29.3 137.7,29.4 138.1,29.4 138.4,29.4 151.4,24" />
<path stroke="#000000" stroke-width="2" d="M 158,70" />
<path stroke="#000000" stroke-width="2" d="M 158,20 158,40 158,34 158,33.1 158.1,32.3 158.3,31.4 158.5,30.6 158.8,29.7 159.2,28.9 159.6,28.2 160.1,27.5 160.7,26.8 161.3,26.2 161.9,25.6 162.7,25.1 163.4,24.7 164.2,24.3 165,24 165.9,23.8 166.7,23.6 167.6,23.6" />
<path stroke="#000000" stroke-width="2" d="M 174.3,70" />
<path stroke="#000000" stroke-width="2" d="M 176.3,20 184.7,28.5" />
<path stroke="#000000" stroke-width="2" d="M 193.2,20 173.4,39.8" />
<path stroke="#000000" stroke-width="2" d="M 199.9,70" />
<path stroke="#000000" stroke-width="2" d="M 223.2,70" />
<path stroke="#000000" stroke-width="2" d="M 223.2,40 230.9,21.5 238.5,40" />
<path stroke="#000000" stroke-width="2" d="M 245.2,70" />
<path stroke="#000000" stroke-width="2" d="M 245.2,20 265.2,20" />
<path stroke="#000000" stroke-width="2" d="M 271.9,70" />
<path stroke="#000000" stroke-width="2" d="M 271.9,20" />
<path stroke="#000000" stroke-width="2" d="M 271.9,20 273.3,20.1 274.6,20.6 275.7,21.2 276.7,22.1 277.5,23.1 278.2,24.3 278.7,25.6 279.1,27 279.3,28.5 279.4,30 279.3,31.5 279.1,33 278.7,34.4 278.2,35.7 277.5,36.9 276.7,37.9 275.7,38.8 274.6,39.4 273.3,39.9 271.9,40" />
<path stroke="#000000" stroke-width="2" d="M 286,70" />
<path stroke="#000000" stroke-width="2" d="M 309.4,70" />
<path stroke="#000000" stroke-width="2" d="M 309.4,20" />
<path stroke="#000000" stroke-width="2" d="M 309.4,20 310.8,20.1 312.1,20.6 313.2,21.2 314.2,22.1 315,23.1 315.7,24.3 316.2,25.6 316.6,27 316.8,28.5 316.9,30 316.8,31.5 316.6,33 316.2,34.4 315.7,35.7 315,36.9 314.2,37.9 313.2,38.8 312.1,39.4 310.8,39.9 309.4,40" />
<path stroke="#000000" stroke-width="2" d="M 323.5,70" />
<path stroke="#000000" stroke-width="2" d="M 323.5,20" />
<path stroke="#000000" stroke-width="2" d="M 323.5,20 323.7,20 324.1,20 324.8,20 325.6,20.1 326.7,20.2 327.9,20.3 329.2,20.4 330.6,20.6 332,20.9 333.5,21.2 335,21.7 336.5,22.2 337.9,22.7 339.2,23.4 340.4,24.2 341.5,25.1 342.3,26.1 343,27.3 343.4,28.6 343.5,30" />
<path stroke="#000000" stroke-width="2" d="M 343.5,30 345.5,32.1 346.8,34.1 347.6,35.7 347.9,37.2 347.8,38.4 347.3,39.4 346.6,40.2 345.7,40.8 344.7,41.1 343.5,41.2 342.4,41.1 341.4,40.8 340.5,40.2 339.8,39.4 339.3,38.4 339.2,37.2 339.5,35.7 340.3,34 341.6,32.1 343.5,30" />
<path stroke="#000000" stroke-width="2" d="M 343.5,30 343.5,29.9 343.6,29.7 343.6,29.4 343.7,29 343.9,28.4 344.1,27.8 344.4,27.2 344.8,26.5 345.4,25.7 346,25 346.9,24.3 347.9,23.5 349,22.8 350.4,22.2 352,21.6 353.8,21 355.8,20.6 358.1,20.3 360.7,20.1 363.5,20" />
<path stroke="#000000" stroke-width="2" d="M 370.2,70" />
<path stroke="#000000" stroke-width="2" d="M 380.2,20 372.6,38.5" />
<path stroke="#000000" stroke-width="2" d="M 386.9,70" />
<path stroke="#000000" stroke-width="2" d="M 386.9,20 386.9,40 396.9,40" />
<path stroke="#000000" stroke-width="2" d="M 403.5,70" />
<path stroke="#000000" stroke-width="2" d="M 403.5,20 408.5,20 408.5,40" />
<path stroke="#000000" stroke-width="2" d="M 415.2,70" />
<path stroke="#000000" stroke-width="2" d="M 415.2,20" />
<path stroke="#000000" stroke-width="2" d="M 415.2,20 415.3,20 415.8,20 416.4,20 417.3,20.1 418.3,20.2 419.5,20.3 420.8,20.4 422.2,20.6 423.7,20.9 425.2,21.2 426.7,21.7 428.2,22.2 429.6,22.7 430.9,23.4 432.1,24.2 433.1,25.1 434,26.1 434.6,27.3 435.1,28.6 435.2,30" />
<path stroke="#000000" stroke-width="2" d="M 435.2,30 437.1,32.1 438.4,34.1 439.2,35.7 439.5,37.2 439.4,38.4 439,39.4 438.3,40.2 437.4,40.8 436.3,41.1 435.2,41.2 434.1,41.1 433,40.8 432.1,40.2 431.4,39.4 431,38.4 430.9,37.2 431.2,35.7 432,34 433.3,32.1 435.2,30" />
<path stroke="#000000" stroke-width="2" d="M 435.2,30 435.2,29.9 435.2,29.7 435.3,29.4 435.4,29 435.5,28.4 435.7,27.8 436.1,27.2 436.5,26.5 437,25.7 437.7,25 438.5,24.3 439.5,23.5 440.7,22.8 442.1,22.2 443.6,21.6 445.4,21 447.5,20.6 449.8,20.3 452.4,20.1 455.2,20" />
<path stroke="#000000" stroke-width="2" d="M 461.9,70" />
<path stroke="#000000" stroke-width="2" d="M 461.9,20 461.9,20.7 461.9,21.4 462.1,22.1 462.2,22.8 462.5,23.4 462.8,24 463.1,24.6 463.5,25.2 464,25.8 464.5,26.2 465,26.7 465.6,27.1 466.2,27.4 466.8,27.7 467.5,28 468.1,28.2 468.8,28.3 469.5,28.3 470.2,28.3 470.9,28.3 471.6,28.2 472.3,28 472.9,27.7 473.6,27.4 474.2,27.1 474.7,26.7 475.3,26.2 475.8,25.8 476.2,25.2 476.6,24.6 477,24 477.3,23.4 477.5,22.8 477.7,22.1 477.8,21.4 477.9,20.7" />
<path stroke="#000000" stroke-width="2" d="M 484.5,70" />
<path stroke="#000000" stroke-width="2" d="M 507.9,70" />
<path stroke="#000000" stroke-width="2" d="M 509.9,40 515.2,27.1 515.3,26.7 515.5,26.4 515.5,26.1 515.6,25.7 515.6,25.4 515.6,25 515.5,24.7 515.5,24.3 515.3,24 515.2,23.7 515.1,23.4 514.9,23.1 514.7,22.8 514.4,22.5 514.2,22.3 513.9,22.1 513.6,21.9 513.3,21.7 513,21.6 512.6,21.5 512.3,21.4 511.9,21.4 511.6,21.4 511.2,21.4 510.9,21.4 510.6,21.5 510.2,21.6 509.9,21.7 509.6,21.9 509.3,22.1 509,22.3 508.8,22.5 508.5,22.8 508.3,23.1 508.1,23.4 508,23.7 507.8,24 507.7,24.3 507.6,24.7 507.6,25 507.6,25.4 507.6,25.7 507.6,26.1 507.7,26.4 507.8,26.7 508,27.1 508.1,27.4 508.3,27.7 508.5,27.9 508.8,28.2 509,28.4 509.3,28.7 509.6,28.8 509.9,29 510.2,29.1 510.6,29.2 510.9,29.3 511.2,29.4 511.6,29.4 511.9,29.4 524.9,24" />
<path stroke="#000000" stroke-width="2" d="M 531.5,70" />
<path stroke="#000000" stroke-width="2" d="M 531.5,40 539.2,21.5 546.8,40" />
<path stroke="#000000" stroke-width="2" d="M 553.5,70" />
<path stroke="#000000" stroke-width="2" d="M 553.5,20 553.5,40 553.5,34 553.5,33.1 553.6,32.3 553.7,31.4 554,30.6 554.3,29.7 554.6,28.9 555.1,28.2 555.6,27.5 556.1,26.8 556.7,26.2 557.4,25.6 558.1,25.1 558.9,24.7 559.7,24.3 560.5,24 561.3,23.8 562.2,23.6 563.1,23.6" />
<path stroke="#000000" stroke-width="2" d="M 569.7,70" />
<path stroke="#000000" stroke-width="2" d="M 579.7,40 580.6,40 581.5,39.9 582.3,39.8 583.2,39.5 584,39.2 584.8,38.9 585.5,38.4 586.3,37.9 586.9,37.4 587.5,36.8 588.1,36.1 588.6,35.4 589,34.6 589.4,33.8 589.7,33 589.9,32.2 590.1,31.3 590.2,30.4 590.2,29.6 590.1,28.7 589.9,27.8 589.7,27 589.4,26.2 589,25.4 588.6,24.6 588.1,23.9 587.5,23.3 586.9,22.6 586.3,22.1 585.5,21.6 584.8,21.1 584,20.8 583.2,20.5 582.3,20.2 581.5,20.1 580.6,20 579.7,20 578.9,20.1 578,20.2 577.2,20.5 576.3,20.8 575.6,21.1 574.8,21.6 574.1,22.1 573.4,22.6 572.8,23.3 572.2,23.9 571.7,24.6 571.3,25.4 570.9,26.2 570.6,27 570.4,27.8 570.3,28.7 570.2,29.6 570.2,30.4 570.3,31.3 570.4,32.2 570.6,33 570.9,33.8 571.3,34.6 571.7,35.4 572.2,36.1 572.8,36.8 573.4,37.4 574.1,37.9 574.8,38.4 575.6,38.9 576.3,39.2 577.2,39.5 578,39.8 578.9,39.9 579.7,40" />
<path stroke="#000000" stroke-width="2" d="M 596.8,70" />
<path stroke="#000000" stroke-width="2" d="M 620.2,70" />
<path stroke="#000000" stroke-width="2" d="M 628.2,20" />
<path stroke="#000000" stroke-width="2" d="M 628.2,20 628.1,22 627.8,23.6 627.3,24.9 626.7,25.8 626,26.3 625.3,26.6 624.6,26.7 623.8,26.5 623.1,26.1 622.5,25.6 622,25 621.7,24.3 621.5,23.6 621.5,22.8 621.8,22.1 622.4,21.4 623.3,20.9 624.5,20.4 626.1,20.1 628.2,20 638.2,20" />
<path stroke="#000000" stroke-width="2" d="M 644.8,70" />
<path stroke="#000000" stroke-width="2" d="M 654.8,20 654,20 653.1,20.1 652.2,20.2 651.4,20.5 650.6,20.8 649.8,21.1 649,21.6 648.3,22.1 647.6,22.6 647,23.2 646.5,23.9 646,24.6 645.5,25.4 645.2,26.2 644.9,27 644.6,27.8 644.5,28.7 644.4,29.6 644.4,30.4 644.5,31.3 644.6,32.2 644.9,33 645.2,33.8 645.5,34.6 646,35.4 646.5,36.1 647,36.7 647.6,37.4 648.3,37.9 649,38.4 649.8,38.9 650.6,39.2 651.4,39.5 652.2,39.8 653.1,39.9 654,40" />
<path stroke="#000000" stroke-width="2" d="M 661.5,70" />
<path stroke="#000000" stroke-width="2" d="M 661.5,20 681.5,20" />
<path stroke="#000000" stroke-width="2" d="M 688.2,70" />
<path stroke="#000000" stroke-width="2" d="M 690.2,20 698.6,28.5" />
<path stroke="#000000" stroke-width="2" d="M 707.1,20 687.3,39.8" />
<path stroke="#000000" stroke-width="2" d="M 713.8,70" />
<path stroke="#000000" stroke-width="2" d="M 713.8,25" />
<path stroke="#000000" stroke-width="2" d="M 713.8,25 715.8,24.9 717.4,24.6 718.7,24.1 719.6,23.6 720.1,22.9 720.4,22.2 720.5,21.4 720.3,20.7 719.9,20 719.4,19.4 718.8,18.9 718.1,18.5 717.4,18.3 716.6,18.4 715.9,18.7 715.2,19.2 714.7,20.1 714.2,21.4 713.9,23 713.8,25 713.8,40" />
<path stroke="#000000" stroke-width="2" d="M 727.1,70" />
</svg>