<svg xmlns="http://www.w3.org/2000/svg" width="600" height="40" style="fill:none; stroke-linecap:round;">
    <rect width="100%" height="100%" fill="#F3F3F7" />
<path stroke="#663399" stroke-width="2" d="M 300,20" />
<path stroke="#663399" stroke-width="2" d="M 20,30 20.9,30 21.7,29.9 22.6,29.8 23.4,29.5 24.3,29.2 25.1,28.9 25.8,28.4 26.5,27.9 27.2,27.4 27.8,26.8 28.4,26.1 28.9,25.4 29.3,24.6 29.7,23.8 30,23 30.2,22.2 30.4,21.3 30.4,20.4 30.4,19.6 30.4,18.7 30.2,17.8 30,17 29.7,16.2 29.3,15.4 28.9,14.6 28.4,13.9 27.8,13.3 27.2,12.6 26.5,12.1 25.8,11.6 25.1,11.1 24.3,10.8 23.4,10.5 22.6,10.2 21.7,10.1 20.9,10 20,10 19.1,10.1 18.3,10.2 17.4,10.5 16.6,10.8 15.8,11.1 15.1,11.6 14.3,12.1 13.7,12.6 13.1,13.3 12.5,13.9 12,14.6 11.6,15.4 11.2,16.2 10.9,17 10.7,17.8 10.5,18.7 10.4,19.6 10.4,20.4 10.5,21.3 10.7,22.2 10.9,23 11.2,23.8 11.6,24.6 12,25.4 12.5,26.1 13.1,26.8 13.7,27.4 14.3,27.9 15.1,28.4 15.8,28.9 16.6,29.2 17.4,29.5 18.3,29.8 19.1,29.9 20,30" />
<path stroke="#663399" stroke-width="2" d="M 37.1,30" />
<path stroke="#663399" stroke-width="2" d="M 39.1,30 44.5,17.1 44.6,16.7 44.7,16.4 44.8,16.1 44.8,15.7 44.8,15.4 44.8,15 44.8,14.7 44.7,14.3 44.6,14 44.5,13.7 44.3,13.4 44.1,13.1 43.9,12.8 43.7,12.5 43.4,12.3 43.1,12.1 42.8,11.9 42.5,11.7 42.2,11.6 41.9,11.5 41.5,11.4 41.2,11.4 40.8,11.4 40.5,11.4 40.1,11.4 39.8,11.5 39.5,11.6 39.1,11.7 38.8,11.9 38.5,12.1 38.3,12.3 38,12.5 37.8,12.8 37.5,13.1 37.4,13.4 37.2,13.7 37.1,14 37,14.3 36.9,14.7 36.8,15 36.8,15.4 36.8,15.7 36.9,16.1 37,16.4 37.1,16.7 37.2,17.1 37.4,17.4 37.5,17.7 37.8,17.9 38,18.2 38.3,18.4 38.5,18.7 38.8,18.8 39.1,19 39.5,19.1 39.8,19.2 40.1,19.3 40.5,19.4 40.8,19.4 41.2,19.4 54.1,14" />
<path stroke="#663399" stroke-width="2" d="M 60.8,30" />
<path stroke="#663399" stroke-width="2" d="M 70.8,30" />
<path stroke="#663399" stroke-width="2" d="M 70.8,10 80.7,19.9 70.8,29.8" />
<path stroke="#663399" stroke-width="2" d="M 87.3,30" />
<path stroke="#663399" stroke-width="2" d="M 89.3,30 94.7,17.1 94.8,16.7 94.9,16.4 95,16.1 95.1,15.7 95.1,15.4 95.1,15 95,14.7 94.9,14.3 94.8,14 94.7,13.7 94.5,13.4 94.4,13.1 94.1,12.8 93.9,12.5 93.6,12.3 93.4,12.1 93.1,11.9 92.8,11.7 92.4,11.6 92.1,11.5 91.8,11.4 91.4,11.4 91.1,11.4 90.7,11.4 90.4,11.4 90,11.5 89.7,11.6 89.4,11.7 89.1,11.9 88.8,12.1 88.5,12.3 88.2,12.5 88,12.8 87.8,13.1 87.6,13.4 87.4,13.7 87.3,14 87.2,14.3 87.1,14.7 87.1,15 87.1,15.4 87.1,15.7 87.1,16.1 87.2,16.4 87.3,16.7 87.4,17.1 87.6,17.4 87.8,17.7 88,17.9 88.2,18.2 88.5,18.4 88.8,18.7 89.1,18.8 89.4,19 89.7,19.1 90,19.2 90.4,19.3 90.7,19.4 91.1,19.4 91.4,19.4 104.4,14" />
<path stroke="#663399" stroke-width="2" d="M 111,30" />
<path stroke="#663399" stroke-width="2" d="M 113,30 118.4,17.1 118.5,16.7 118.6,16.4 118.7,16.1 118.7,15.7 118.8,15.4 118.7,15 118.7,14.7 118.6,14.3 118.5,14 118.4,13.7 118.2,13.4 118,13.1 117.8,12.8 117.6,12.5 117.3,12.3 117.1,12.1 116.8,11.9 116.4,11.7 116.1,11.6 115.8,11.5 115.5,11.4 115.1,11.4 114.8,11.4 114.4,11.4 114.1,11.4 113.7,11.5 113.4,11.6 113.1,11.7 112.8,11.9 112.5,12.1 112.2,12.3 111.9,12.5 111.7,12.8 111.5,13.1 111.3,13.4 111.1,13.7 111,14 110.9,14.3 110.8,14.7 110.8,15 110.8,15.4 110.8,15.7 110.8,16.1 110.9,16.4 111,16.7 111.1,17.1 111.3,17.4 111.5,17.7 111.7,17.9 111.9,18.2 112.2,18.4 112.5,18.7 112.8,18.8 113.1,19 113.4,19.1 113.7,19.2 114.1,19.3 114.4,19.4 114.8,19.4 115.1,19.4 128,14" />
<path stroke="#663399" stroke-width="2" d="M 134.7,30" />
<path stroke="#663399" stroke-width="2" d="M 134.7,10 134.7,30 134.7,24 134.7,23.1 134.8,22.3 134.9,21.4 135.2,20.6 135.5,19.7 135.8,18.9 136.3,18.2 136.8,17.5 137.3,16.8 137.9,16.2 138.6,15.6 139.3,15.1 140.1,14.7 140.9,14.3 141.7,14 142.5,13.8 143.4,13.6 144.3,13.6" />
<path stroke="#663399" stroke-width="2" d="M 150.9,30" />
<path stroke="#663399" stroke-width="2" d="M 152.9,10 161.4,18.5" />
<path stroke="#663399" stroke-width="2" d="M 169.9,10 150.1,29.8" />
<path stroke="#663399" stroke-width="2" d="M 176.6,30" />
<path stroke="#663399" stroke-width="2" d="M 186.6,30" />
<path stroke="#663399" stroke-width="2" d="M 186.6,30 194.2,11.5 201.9,30" />
<path stroke="#663399" stroke-width="2" d="M 208.5,30" />
<path stroke="#663399" stroke-width="2" d="M 208.5,10 218.5,10" />
<path stroke="#663399" stroke-width="2" d="M 225.2,30" />
<path stroke="#663399" stroke-width="2" d="M 225.2,10 226.1,10 226.9,10.1 227.8,10.2 228.6,10.5 229.5,10.8 230.3,11.1 231,11.6 231.7,12.1 232.4,12.6 233,13.2 233.6,13.9 234.1,14.6 234.5,15.4 234.9,16.2 235.2,17 235.4,17.8 235.6,18.7 235.6,19.6 235.6,20.4 235.6,21.3 235.4,22.2 235.2,23 234.9,23.8 234.5,24.6 234.1,25.4 233.6,26.1 233,26.7 232.4,27.4 231.7,27.9 231,28.4 230.3,28.9 229.5,29.2 228.6,29.5 227.8,29.8 226.9,29.9 226.1,30" />
<path stroke="#663399" stroke-width="2" d="M 242.3,30" />
<path stroke="#663399" stroke-width="2" d="M 252.3,30" />
<path stroke="#663399" stroke-width="2" d="M 252.3,10 253.2,10 254,10.1 254.9,10.2 255.7,10.5 256.6,10.8 257.4,11.1 258.1,11.6 258.8,12.1 259.5,12.6 260.1,13.2 260.7,13.9 261.2,14.6 261.6,15.4 262,16.2 262.3,17 262.5,17.8 262.6,18.7 262.7,19.6 262.7,20.4 262.6,21.3 262.5,22.2 262.3,23 262,23.8 261.6,24.6 261.2,25.4 260.7,26.1 260.1,26.7 259.5,27.4 258.8,27.9 258.1,28.4 257.4,28.9 256.6,29.2 255.7,29.5 254.9,29.8 254,29.9 253.2,30" />
<path stroke="#663399" stroke-width="2" d="M 269.4,30" />
<path stroke="#663399" stroke-width="2" d="M 269.4,10 273.2,19.2" />
<path stroke="#663399" stroke-width="2" d="M 273.2,19.2 275.1,21.4 276.5,23.3 277.2,25 277.5,26.4 277.4,27.7 277,28.7 276.3,29.5 275.4,30 274.3,30.4 273.2,30.5 272.1,30.4 271.1,30 270.1,29.5 269.4,28.7 269,27.7 268.9,26.4 269.2,25 270,23.3 271.3,21.4 273.2,19.2 277,10" />
<path stroke="#663399" stroke-width="2" d="M 283.7,30" />
<path stroke="#663399" stroke-width="2" d="M 293.7,10 286.1,28.5" />
<path stroke="#663399" stroke-width="2" d="M 300.4,30" />
<path stroke="#663399" stroke-width="2" d="M 300.4,10 300.4,30 310.4,30" />
<path stroke="#663399" stroke-width="2" d="M 317,30" />
<path stroke="#663399" stroke-width="2" d="M 317,10 322,10 322,30" />
<path stroke="#663399" stroke-width="2" d="M 328.7,30" />
<path stroke="#663399" stroke-width="2" d="M 328.7,10 332.5,19.2" />
<path stroke="#663399" stroke-width="2" d="M 332.5,19.2 334.5,21.4 335.8,23.3 336.6,25 336.9,26.4 336.8,27.7 336.3,28.7 335.6,29.5 334.7,30 333.7,30.4 332.5,30.5 331.4,30.4 330.4,30 329.5,29.5 328.8,28.7 328.3,27.7 328.2,26.4 328.5,25 329.3,23.3 330.6,21.4 332.5,19.2 336.4,10" />
<path stroke="#663399" stroke-width="2" d="M 343,30" />
<path stroke="#663399" stroke-width="2" d="M 343,10 343,10.7 343.1,11.4 343.2,12.1 343.4,12.8 343.6,13.4 343.9,14 344.3,14.6 344.7,15.2 345.1,15.8 345.6,16.2 346.2,16.7 346.7,17.1 347.3,17.4 348,17.7 348.6,18 349.3,18.2 350,18.3 350.7,18.3 351.4,18.3 352.1,18.3 352.8,18.2 353.4,18 354.1,17.7 354.7,17.4 355.3,17.1 355.9,16.7 356.4,16.2 356.9,15.8 357.4,15.2 357.8,14.6 358.1,14 358.4,13.4 358.7,12.8 358.8,12.1 359,11.4 359,10.7" />
<path stroke="#663399" stroke-width="2" d="M 365.7,30" />
<path stroke="#663399" stroke-width="2" d="M 375.7,30" />
<path stroke="#663399" stroke-width="2" d="M 377.7,30 383,17.1 383.2,16.7 383.3,16.4 383.4,16.1 383.4,15.7 383.4,15.4 383.4,15 383.4,14.7 383.3,14.3 383.2,14 383,13.7 382.9,13.4 382.7,13.1 382.5,12.8 382.2,12.5 382,12.3 381.7,12.1 381.4,11.9 381.1,11.7 380.8,11.6 380.5,11.5 380.1,11.4 379.8,11.4 379.4,11.4 379.1,11.4 378.7,11.4 378.4,11.5 378,11.6 377.7,11.7 377.4,11.9 377.1,12.1 376.8,12.3 376.6,12.5 376.4,12.8 376.1,13.1 376,13.4 375.8,13.7 375.7,14 375.6,14.3 375.5,14.7 375.4,15 375.4,15.4 375.4,15.7 375.5,16.1 375.6,16.4 375.7,16.7 375.8,17.1 376,17.4 376.1,17.7 376.4,17.9 376.6,18.2 376.8,18.4 377.1,18.7 377.4,18.8 377.7,19 378,19.1 378.4,19.2 378.7,19.3 379.1,19.4 379.4,19.4 379.8,19.4 392.7,14" />
<path stroke="#663399" stroke-width="2" d="M 399.4,30" />
<path stroke="#663399" stroke-width="2" d="M 399.4,30 407,11.5 414.7,30" />
<path stroke="#663399" stroke-width="2" d="M 421.3,30" />
<path stroke="#663399" stroke-width="2" d="M 421.3,10 421.3,30 421.3,24 421.3,23.1 421.4,22.3 421.6,21.4 421.8,20.6 422.1,19.7 422.5,18.9 422.9,18.2 423.4,17.5 424,16.8 424.6,16.2 425.2,15.6 426,15.1 426.7,14.7 427.5,14.3 428.3,14 429.2,13.8 430,13.6 430.9,13.6" />
<path stroke="#663399" stroke-width="2" d="M 437.6,30" />
<path stroke="#663399" stroke-width="2" d="M 447.6,10 439.9,28.5" />
<path stroke="#663399" stroke-width="2" d="M 454.2,30" />
<path stroke="#663399" stroke-width="2" d="M 462.2,10 452.3,19.9 462.2,29.8" />
<path stroke="#663399" stroke-width="2" d="M 468.9,30" />
<path stroke="#663399" stroke-width="2" d="M 478.9,30" />
<path stroke="#663399" stroke-width="2" d="M 486.9,10 487.4,10 487.9,10 488.5,10.1 489,10.3 489.5,10.5 489.9,10.7 490.4,10.9 490.8,11.2 491.2,11.6 491.6,11.9 491.9,12.3 492.2,12.8 492.5,13.2 492.7,13.7 492.9,14.2 493,14.7 493.1,15.2 493.1,15.7 493.1,16.3 493.1,16.8 493,17.3 492.9,17.8 492.7,18.3 492.5,18.8 492.2,19.2 491.9,19.6 491.6,20 491.2,20.4 490.8,20.8 490.4,21.1 489.9,21.3 489.5,21.5 489,21.7 488.5,21.9 487.9,21.9 487.4,22 486.9,22 486.4,21.9 485.9,21.9 485.4,21.7 484.9,21.5 484.4,21.3 483.9,21.1 483.5,20.8 483.1,20.4 482.7,20 482.4,19.6 482.1,19.2 481.8,18.8 481.6,18.3 481.4,17.8 481.3,17.3 481.2,16.8 481.2,16.3 481.2,15.7 481.2,15.2 481.3,14.7 481.4,14.2 481.6,13.7 481.8,13.2 482.1,12.8 482.4,12.3 482.7,11.9 483.1,11.6 483.5,11.2 483.9,10.9 484.4,10.7 484.9,10.5 485.4,10.3 485.9,10.1 486.4,10 486.9,10 504.9,10" />
<path stroke="#663399" stroke-width="2" d="M 511.6,30" />
<path stroke="#663399" stroke-width="2" d="M 521.6,10 520.7,10 519.8,10.1 519,10.2 518.1,10.5 517.3,10.8 516.5,11.1 515.8,11.6 515,12.1 514.4,12.6 513.8,13.2 513.2,13.9 512.7,14.6 512.3,15.4 511.9,16.2 511.6,17 511.4,17.8 511.2,18.7 511.1,19.6 511.1,20.4 511.2,21.3 511.4,22.2 511.6,23 511.9,23.8 512.3,24.6 512.7,25.4 513.2,26.1 513.8,26.7 514.4,27.4 515,27.9 515.8,28.4 516.5,28.9 517.3,29.2 518.1,29.5 519,29.8 519.8,29.9 520.7,30" />
<path stroke="#663399" stroke-width="2" d="M 528.2,30" />
<path stroke="#663399" stroke-width="2" d="M 528.2,10 538.2,10" />
<path stroke="#663399" stroke-width="2" d="M 544.9,30" />
<path stroke="#663399" stroke-width="2" d="M 546.9,10 555.4,18.5" />
<path stroke="#663399" stroke-width="2" d="M 563.9,10 544.1,29.8" />
<path stroke="#663399" stroke-width="2" d="M 570.5,30" />
<path stroke="#663399" stroke-width="2" d="M 570.5,15 570.8,15.3 571.2,15.6 571.5,15.8 571.9,16.1 572.3,16.2 572.7,16.4 573.1,16.5 573.6,16.6 574,16.6 574.4,16.6 574.9,16.6 575.3,16.5 575.7,16.4 576.1,16.2 576.5,16.1 576.9,15.8 577.3,15.6 577.6,15.3 577.9,15 578.2,14.7 578.4,14.3 578.7,13.9 578.8,13.5 579,13.1 579.1,12.7 579.2,12.3 579.2,11.8 579.2,11.4 579.2,11 579.1,10.5 579,10.1 578.8,9.7 578.7,9.3 578.4,8.9 578.2,8.6 577.9,8.2 577.6,7.9 577.3,7.7 576.9,7.4 576.5,7.2 576.1,7 575.7,6.9 575.3,6.7 574.9,6.7 574.4,6.6 574,6.6 573.6,6.7 573.1,6.7 572.7,6.9 572.3,7 571.9,7.2 571.5,7.4 571.2,7.7 570.8,7.9 570.5,8.2 570.3,8.6 570,8.9 569.8,9.3 569.6,9.7 569.4,10.1 569.3,10.5 569.3,11 569.2,11.4 569.2,11.8 569.3,12.3 569.3,12.7 569.4,13.1 569.6,13.5 569.8,13.9 570,14.3 570.3,14.7 570.5,15 570.5,30" />
<path stroke="#663399" stroke-width="2" d="M 585.9,30" />
</svg>