<svg xmlns="http://www.w3.org/2000/svg" width="462.9626265199259" height="60.0" style="fill:none; stroke-linecap:round;">
    <rect width="100%" height="100%" fill="#FFFFFF" />
<path stroke="#000000" stroke-width="2" d="M 300,50" />
<path stroke="#000000" stroke-width="2" d="M 25,20" />
<path stroke="#000000" stroke-width="2" d="M 25,20 23.6,20.1 22.3,20.6 21.2,21.2 20.2,22.1 19.4,23.1 18.7,24.3 18.2,25.6 17.8,27 17.6,28.5 17.5,30 17.6,31.5 17.8,33 18.2,34.4 18.7,35.7 19.4,36.9 20.2,37.9 21.2,38.8 22.3,39.4 23.6,39.9 25,40" />
<path stroke="#000000" stroke-width="2" d="M 31.7,70" />
<path stroke="#000000" stroke-width="2" d="M 31.7,20 39.3,38.5 47,20" />
<path stroke="#000000" stroke-width="2" d="M 53.6,70" />
<path stroke="#000000" stroke-width="2" d="M 55.6,40 61,27.1 61.1,26.7 61.2,26.4 61.3,26.1 61.4,25.7 61.4,25.4 61.4,25 61.3,24.7 61.2,24.3 61.1,24 61,23.7 60.8,23.4 60.6,23.1 60.4,22.8 60.2,22.5 59.9,22.3 59.7,22.1 59.4,21.9 59.1,21.7 58.7,21.6 58.4,21.5 58.1,21.4 57.7,21.4 57.4,21.4 57,21.4 56.7,21.4 56.3,21.5 56,21.6 55.7,21.7 55.4,21.9 55.1,22.1 54.8,22.3 54.5,22.5 54.3,22.8 54.1,23.1 53.9,23.4 53.7,23.7 53.6,24 53.5,24.3 53.4,24.7 53.4,25 53.4,25.4 53.4,25.7 53.4,26.1 53.5,26.4 53.6,26.7 53.7,27.1 53.9,27.4 54.1,27.7 54.3,27.9 54.5,28.2 54.8,28.4 55.1,28.7 55.4,28.8 55.7,29 56,29.1 56.3,29.2 56.7,29.3 57,29.4 57.4,29.4 57.7,29.4 70.7,24" />
<path stroke="#000000" stroke-width="2" d="M 77.3,70" />
<path stroke="#000000" stroke-width="2" d="M 77.3,20 77.3,40 77.3,34 77.3,33.1 77.4,32.3 77.6,31.4 77.8,30.6 78.1,29.7 78.4,28.9 78.9,28.2 79.4,27.5 79.9,26.8 80.6,26.2 81.2,25.6 81.9,25.1 82.7,24.7 83.5,24.3 84.3,24 85.1,23.8 86,23.6 86.9,23.6" />
<path stroke="#000000" stroke-width="2" d="M 93.5,70" />
<path stroke="#000000" stroke-width="2" d="M 116.9,70" />
<path stroke="#000000" stroke-width="2" d="M 126.9,40 127.7,40 128.6,39.9 129.5,39.8 130.3,39.5 131.1,39.2 131.9,38.9 132.7,38.4 133.4,37.9 134.1,37.4 134.7,36.8 135.2,36.1 135.7,35.4 136.2,34.6 136.6,33.8 136.9,33 137.1,32.2 137.2,31.3 137.3,30.4 137.3,29.6 137.2,28.7 137.1,27.8 136.9,27 136.6,26.2 136.2,25.4 135.7,24.6 135.2,23.9 134.7,23.3 134.1,22.6 133.4,22.1 132.7,21.6 131.9,21.1 131.1,20.8 130.3,20.5 129.5,20.2 128.6,20.1 127.7,20 126.9,20 126,20.1 125.1,20.2 124.3,20.5 123.5,20.8 122.7,21.1 121.9,21.6 121.2,22.1 120.6,22.6 119.9,23.3 119.4,23.9 118.9,24.6 118.4,25.4 118.1,26.2 117.8,27 117.6,27.8 117.4,28.7 117.3,29.6 117.3,30.4 117.4,31.3 117.6,32.2 117.8,33 118.1,33.8 118.4,34.6 118.9,35.4 119.4,36.1 119.9,36.8 120.6,37.4 121.2,37.9 121.9,38.4 122.7,38.9 123.5,39.2 124.3,39.5 125.1,39.8 126,39.9 126.9,40" />
<path stroke="#000000" stroke-width="2" d="M 144,70" />
<path stroke="#000000" stroke-width="2" d="M 146,40 151.3,27.1 151.5,26.7 151.6,26.4 151.6,26.1 151.7,25.7 151.7,25.4 151.7,25 151.6,24.7 151.6,24.3 151.5,24 151.3,23.7 151.2,23.4 151,23.1 150.8,22.8 150.5,22.5 150.3,22.3 150,22.1 149.7,21.9 149.4,21.7 149.1,21.6 148.7,21.5 148.4,21.4 148.1,21.4 147.7,21.4 147.4,21.4 147,21.4 146.7,21.5 146.3,21.6 146,21.7 145.7,21.9 145.4,22.1 145.1,22.3 144.9,22.5 144.6,22.8 144.4,23.1 144.2,23.4 144.1,23.7 143.9,24 143.8,24.3 143.8,24.7 143.7,25 143.7,25.4 143.7,25.7 143.8,26.1 143.8,26.4 143.9,26.7 144.1,27.1 144.2,27.4 144.4,27.7 144.6,27.9 144.9,28.2 145.1,28.4 145.4,28.7 145.7,28.8 146,29 146.3,29.1 146.7,29.2 147,29.3 147.4,29.4 147.7,29.4 148.1,29.4 161,24" />
<path stroke="#000000" stroke-width="2" d="M 167.7,70" />
<path stroke="#000000" stroke-width="2" d="M 191,70" />
<path stroke="#000000" stroke-width="2" d="M 191,20 191,20.7 191,21.4 191.2,22.1 191.3,22.8 191.6,23.4 191.9,24 192.2,24.6 192.6,25.2 193.1,25.8 193.6,26.2 194.1,26.7 194.7,27.1 195.3,27.4 195.9,27.7 196.6,28 197.2,28.2 197.9,28.3 198.6,28.3 199.3,28.3 200,28.3 200.7,28.2 201.4,28 202,27.7 202.7,27.4 203.3,27.1 203.8,26.7 204.4,26.2 204.9,25.8 205.3,25.2 205.7,24.6 206.1,24 206.4,23.4 206.6,22.8 206.8,22.1 206.9,21.4 207,20.7" />
<path stroke="#000000" stroke-width="2" d="M 213.6,70" />
<path stroke="#000000" stroke-width="2" d="M 213.6,40 221.3,21.5 228.9,40" />
<path stroke="#000000" stroke-width="2" d="M 235.6,70" />
<path stroke="#000000" stroke-width="2" d="M 235.6,20 255.6,20 235.8,39.8 255.8,39.8" />
<path stroke="#000000" stroke-width="2" d="M 262.5,70" />
<path stroke="#000000" stroke-width="2" d="M 264.5,20 273,28.5" />
<path stroke="#000000" stroke-width="2" d="M 281.4,20 261.7,39.8" />
<path stroke="#000000" stroke-width="2" d="M 288.1,70" />
<path stroke="#000000" stroke-width="2" d="M 311.4,70" />
<path stroke="#000000" stroke-width="2" d="M 311.4,20 311.4,24 311.4,24.5 311.5,25 311.6,25.6 311.7,26.1 311.9,26.6 312.1,27 312.4,27.5 312.7,27.9 313,28.3 313.4,28.7 313.8,29 314.2,29.3 314.7,29.6 315.1,29.8 315.6,30 316.1,30.1 316.7,30.2 317.2,30.3 317.7,30.3 318.2,30.2 318.7,30.1 319.2,30 319.7,29.8 320.2,29.6 320.7,29.3 321.1,29 321.5,28.7 321.9,28.3 322.2,27.9 322.5,27.5 322.8,27 323,26.6 323.2,26.1 323.3,25.6 323.4,25 323.4,24.5 323.4,19.5 323.4,39.5" />
<path stroke="#000000" stroke-width="2" d="M 330.1,70" />
<path stroke="#000000" stroke-width="2" d="M 330.1,20 330.1,40 330.1,34 330.1,33.1 330.2,32.3 330.3,31.4 330.6,30.6 330.9,29.7 331.2,28.9 331.7,28.2 332.2,27.5 332.7,26.8 333.3,26.2 334,25.6 334.7,25.1 335.5,24.7 336.3,24.3 337.1,24 337.9,23.8 338.8,23.6 339.7,23.6" />
<path stroke="#000000" stroke-width="2" d="M 346.3,70" />
<path stroke="#000000" stroke-width="2" d="M 348.3,20 356.8,28.5" />
<path stroke="#000000" stroke-width="2" d="M 365.3,20 345.5,39.8" />
<path stroke="#000000" stroke-width="2" d="M 372,70" />
<path stroke="#000000" stroke-width="2" d="M 380,20" />
<path stroke="#000000" stroke-width="2" d="M 380,20 379.9,22 379.6,23.6 379.1,24.9 378.5,25.8 377.9,26.3 377.1,26.6 376.4,26.7 375.6,26.5 375,26.1 374.3,25.6 373.8,25 373.5,24.3 373.3,23.6 373.3,22.8 373.6,22.1 374.2,21.4 375.1,20.9 376.3,20.4 377.9,20.1 380,20 390,20" />
<path stroke="#000000" stroke-width="2" d="M 396.6,70" />
<path stroke="#000000" stroke-width="2" d="M 404.6,20 394.7,29.9 404.6,39.8" />
<path stroke="#000000" stroke-width="2" d="M 411.3,70" />
<path stroke="#000000" stroke-width="2" d="M 416.3,20" />
<path stroke="#000000" stroke-width="2" d="M 416.3,20 414.9,20.1 413.6,20.6 412.5,21.2 411.5,22.1 410.7,23.1 410,24.3 409.5,25.6 409.1,27 408.9,28.5 408.8,30 408.9,31.5 409.1,33 409.5,34.4 410,35.7 410.7,36.9 411.5,37.9 412.5,38.8 413.6,39.4 414.9,39.9 416.3,40" />
<path stroke="#000000" stroke-width="2" d="M 423,70" />
<path stroke="#000000" stroke-width="2" d="M 423,20 443,20" />
<path stroke="#000000" stroke-width="2" d="M 449.6,70" />
</svg>