<svg xmlns="http://www.w3.org/2000/svg" width="175.2876534427641" height="93.57332391052807" style="fill:none; stroke-linecap:round;">
    <rect width="100%" height="100%" fill="#FFFFFF" />
<path stroke="#000000" stroke-width="2" d="M 550,75" />
<path stroke="#000000" stroke-width="2" d="M 36,30 36,60" />
<path stroke="#000000" stroke-width="2" d="M 36,60 35.8,64.1 35.2,67.3 34.3,69.8 33.1,71.5 31.8,72.7 30.3,73.2 28.8,73.3 27.4,73 26,72.3 24.8,71.2 23.7,70 23,68.6 22.7,67.2 22.8,65.7 23.3,64.2 24.5,62.9 26.2,61.7 28.7,60.8 31.9,60.2 36,60" />
<path stroke="#000000" stroke-width="2" d="M 42.7,70" />
<path stroke="#000000" stroke-width="2" d="M 42.7,50 42.7,54 42.7,54.5 42.7,55 42.8,55.6 42.9,56.1 43.1,56.6 43.3,57 43.6,57.5 43.9,57.9 44.2,58.3 44.6,58.7 45,59 45.4,59.3 45.9,59.6 46.4,59.8 46.9,60 47.4,60.1 47.9,60.2 48.4,60.3 48.9,60.3 49.4,60.2 50,60.1 50.5,60 51,59.8 51.4,59.6 51.9,59.3 52.3,59 52.7,58.7 53.1,58.3 53.4,57.9 53.7,57.5 54,57 54.2,56.6 54.4,56.1 54.5,55.6 54.6,55 54.7,54.5 54.7,49.5 54.7,69.5" />
<path stroke="#000000" stroke-width="2" d="M 61.3,70" />
<path stroke="#000000" stroke-width="2" d="M 61.3,20 61.3,40 61.3,34 61.3,33.1 61.4,32.3 61.5,31.4 61.8,30.6 62.1,29.7 62.4,28.9 62.9,28.2 63.4,27.5 63.9,26.8 64.6,26.2 65.2,25.6 65.9,25.1 66.7,24.7 67.5,24.3 68.3,24 69.1,23.8 70,23.6 70.9,23.6 70.9,22.9 70.9,22.2 71.1,21.5 71.2,20.8 71.5,20.2 71.8,19.5 72.1,18.9 72.5,18.4 73,17.8 73.5,17.3 74,16.9 74.6,16.5 75.2,16.1 75.8,15.8 76.5,15.6 77.1,15.4 77.8,15.3 78.5,15.2 79.2,15.2 79.9,15.3 80.6,15.4 81.3,15.6 81.9,15.8 82.6,16.1 83.2,16.5 83.7,16.9 84.3,17.3 84.8,17.8 85.2,18.4 85.6,18.9 86,19.5 86.3,20.2 86.5,20.8 86.7,21.5 86.8,22.2 86.9,22.9" />
<path stroke="#000000" stroke-width="2" d="M 93.5,70" />
<path stroke="#000000" stroke-width="2" d="M 93.5,50 93.5,70 93.5,69.3 93.6,68.6 93.7,67.9 93.9,67.2 94.1,66.6 94.4,66 94.8,65.4 95.2,64.8 95.6,64.2 96.1,63.8 96.6,63.3 97.2,62.9 97.8,62.6 98.5,62.3 99.1,62 99.8,61.8 100.5,61.7 101.2,61.7 101.9,61.7 102.6,61.7 103.3,61.8 103.9,62 104.6,62.3 105.2,62.6 105.8,62.9 106.4,63.3 106.9,63.8 107.4,64.2 107.9,64.8 108.3,65.4 108.6,66 108.9,66.6 109.1,67.2 109.3,67.9 109.5,68.6 109.5,69.3" />
<path stroke="#000000" stroke-width="2" d="M 116.2,70" />
<path stroke="#000000" stroke-width="2" d="M 116.2,50 116.2,70 116.2,64 116.2,63.1 116.3,62.3 116.4,61.4 116.6,60.6 116.9,59.7 117.3,58.9 117.7,58.2 118.2,57.5 118.8,56.8 119.4,56.2 120.1,55.6 120.8,55.1 121.6,54.7 122.3,54.3 123.2,54 124,53.8 124.9,53.6 125.7,53.6 145.7,53.6 145.7,73.6 145.7,67.6 145.7,66.7 145.8,65.8 146,65 146.2,64.1 146.5,63.3 146.9,62.5 147.3,61.8 147.8,61 148.4,60.4 149,59.8 149.6,59.2 150.4,58.7 151.1,58.3 151.9,57.9 152.7,57.6 153.6,57.4 154.4,57.2 155.3,57.1" />
<path stroke="#000000" stroke-width="2" d="M 185.3,70" />
</svg>