<svg xmlns="http://www.w3.org/2000/svg" width="146.83812372425362" height="90.00000000000001" style="fill:none; stroke-linecap:round;">
    <rect width="100%" height="100%" fill="#FFFFFF" />
<path stroke="#000000" stroke-width="2" d="M 550,75" />
<path stroke="#000000" stroke-width="2" d="M 40,70 41.7,70 43.5,69.8 45.2,69.5 46.9,69.1 48.5,68.5 50.1,67.8 51.6,66.9 53,65.9 54.4,64.8 55.6,63.5 56.7,62.2 57.7,60.8 58.6,59.3 59.3,57.7 59.9,56 60.4,54.3 60.7,52.6 60.9,50.9 60.9,49.1 60.7,47.4 60.4,45.7 59.9,44 59.3,42.4 58.6,40.8 57.7,39.3 56.7,37.8 55.6,36.5 54.4,35.3 53,34.2 51.6,33.2 50.1,32.3 48.5,31.5 46.9,30.9 45.2,30.5 43.5,30.2 41.7,30 40,30 38.3,30.2 36.5,30.5 34.9,30.9 33.2,31.5 31.6,32.3 30.1,33.2 28.7,34.2 27.4,35.3 26.1,36.5 25,37.8 24,39.3 23.1,40.8 22.4,42.4 21.8,44 21.3,45.7 21,47.4 20.9,49.1 20.9,50.9 21,52.6 21.3,54.3 21.8,56 22.4,57.7 23.1,59.3 24,60.8 25,62.2 26.1,63.5 27.4,64.8 28.7,65.9 30.1,66.9 31.6,67.8 33.2,68.5 34.9,69.1 36.5,69.5 38.3,69.8 40,70" />
<path stroke="#000000" stroke-width="2" d="M 67.5,70" />
<path stroke="#000000" stroke-width="2" d="M 67.5,28 67.5,27.3 67.6,26.6 67.7,25.9 67.9,25.2 68.1,24.6 68.4,24 68.8,23.4 69.2,22.8 69.6,22.2 70.1,21.8 70.6,21.3 71.2,20.9 71.8,20.6 72.5,20.3 73.1,20 73.8,19.8 74.5,19.7 75.2,19.7 75.9,19.7 76.6,19.7 77.2,19.8 77.9,20 78.6,20.3 79.2,20.6 79.8,20.9 80.4,21.3 80.9,21.8 81.4,22.2 81.9,22.8 82.3,23.4 82.6,24 82.9,24.6 83.1,25.2 83.3,25.9 83.4,26.6 83.5,27.3" />
<path stroke="#000000" stroke-width="2" d="M 90.2,70" />
<path stroke="#000000" stroke-width="2" d="M 90.2,20 110.2,20" />
<path stroke="#000000" stroke-width="2" d="M 116.8,70" />
<path stroke="#000000" stroke-width="2" d="M 126.8,50 119.2,68.5" />
<path stroke="#000000" stroke-width="2" d="M 156.8,70" />
</svg>