<svg xmlns="http://www.w3.org/2000/svg" width="95.28102110840457" height="96.8189315218033" style="fill:none; stroke-linecap:round;">
    <rect width="100%" height="100%" fill="#FFFFFF" />
<path stroke="#000000" stroke-width="2" d="M 550,75" />
<path stroke="#000000" stroke-width="2" d="M 20,30 20,70 31.3,58.7" />
<path stroke="#000000" stroke-width="2" d="M 38,70" />
<path stroke="#000000" stroke-width="2" d="M 48,20 40.3,38.5 42.6,32.9 43,32.1 43.4,31.4 43.8,30.6 44.4,29.9 44.9,29.3 45.6,28.7 46.3,28.2 47,27.7 47.8,27.3 48.6,27 49.4,26.7 50.3,26.5 50.3,46.5" />
<path stroke="#000000" stroke-width="2" d="M 56.9,70" />
<path stroke="#000000" stroke-width="2" d="M 66.9,50 59.3,68.5 59.3,69.2 59.4,69.9 59.5,70.6 59.7,71.2 59.9,71.9 60.2,72.5 60.5,73.1 60.9,73.7 61.4,74.2 61.9,74.7 62.4,75.2 63,75.6 63.6,75.9 64.2,76.2 64.9,76.5 65.6,76.6 66.2,76.8 66.9,76.8 67.6,76.8 68.3,76.8 69,76.6 69.7,76.5 70.4,76.2 71,75.9 71.6,75.6 72.2,75.2 72.7,74.7 73.2,74.2 73.6,73.7 74,73.1 74.4,72.5 74.7,71.9 74.9,71.2 75.1,70.6 75.2,69.9 75.3,69.2" />
<path stroke="#000000" stroke-width="2" d="M 105.3,70" />
</svg>