<svg xmlns="http://www.w3.org/2000/svg" width="102.18857865898231" height="89.52343264838403" style="fill:none; stroke-linecap:round;">
    <rect width="100%" height="100%" fill="#FFFFFF" />
<path stroke="#000000" stroke-width="2" d="M 550,75" />
<path stroke="#000000" stroke-width="2" d="M 40,30 24.7,67" />
<path stroke="#000000" stroke-width="2" d="M 46.7,70" />
<path stroke="#000000" stroke-width="2" d="M 46.7,50 46.7,54 46.7,54.5 46.7,55 46.8,55.6 46.9,56.1 47.1,56.6 47.3,57 47.6,57.5 47.9,57.9 48.2,58.3 48.6,58.7 49,59 49.4,59.3 49.9,59.6 50.4,59.8 50.9,60 51.4,60.1 51.9,60.2 52.4,60.3 52.9,60.3 53.4,60.2 54,60.1 54.5,60 55,59.8 55.4,59.6 55.9,59.3 56.3,59 56.7,58.7 57.1,58.3 57.4,57.9 57.7,57.5 58,57 58.2,56.6 58.4,56.1 58.5,55.6 58.6,55 58.7,54.5 58.7,49.5 58.7,69.5" />
<path stroke="#000000" stroke-width="2" d="M 65.3,70" />
<path stroke="#000000" stroke-width="2" d="M 75.3,50 67.7,68.5" />
<path stroke="#000000" stroke-width="2" d="M 82,70" />
<path stroke="#000000" stroke-width="2" d="M 82,50 82.2,50 82.2,50.2 82,50.2 82,50" />
<path stroke="#000000" stroke-width="2" d="M 112.2,70" />
</svg>