<svg xmlns="http://www.w3.org/2000/svg" width="81.98770833333333" height="90.0" style="fill:none; stroke-linecap:round;">
    <rect width="100%" height="100%" fill="#FFFFFF" />
<path stroke="#000000" stroke-width="2" d="M 550,75" />
<path stroke="#000000" stroke-width="2" d="M 20,35" />
<path stroke="#000000" stroke-width="2" d="M 20,35 22,34.9 23.6,34.6 24.9,34.1 25.8,33.6 26.3,32.9 26.6,32.2 26.7,31.4 26.5,30.7 26.1,30 25.6,29.4 25,28.9 24.3,28.5 23.6,28.3 22.8,28.4 22.1,28.7 21.4,29.2 20.9,30.1 20.4,31.4 20.1,33 20,35 20,50 20,70 25.7,64.3" />
<path stroke="#000000" stroke-width="2" d="M 33.3,70" />
<path stroke="#000000" stroke-width="2" d="M 45.3,36 45.3,36.5 45.3,37 45.2,37.6 45,38.1 44.9,38.6 44.6,39 44.4,39.5 44.1,39.9 43.8,40.3 43.4,40.7 43,41 42.6,41.3 42.1,41.6 41.6,41.8 41.1,42 40.6,42.1 40.1,42.2 39.6,42.3 39.1,42.3 38.5,42.2 38,42.1 37.5,42 37,41.8 36.6,41.6 36.1,41.3 35.7,41 35.3,40.7 34.9,40.3 34.6,39.9 34.3,39.5 34,39 33.8,38.6 33.6,38.1 33.5,37.6 33.4,37 33.3,36.5 33.3,36 33.4,35.5 33.5,35 33.6,34.5 33.8,34 34,33.5 34.3,33 34.6,32.6 34.9,32.2 35.3,31.8 35.7,31.5 36.1,31.2 36.6,30.9 37,30.7 37.5,30.5 38,30.4 38.5,30.3 39.1,30.3 39.6,30.3 40.1,30.3 40.6,30.4 41.1,30.5 41.6,30.7 42.1,30.9 42.6,31.2 43,31.5 43.4,31.8 43.8,32.2 44.1,32.6 44.4,33 44.6,33.5 44.9,34 45,34.5 45.2,35 45.3,35.5 45.3,36 45.3,40" />
<path stroke="#000000" stroke-width="2" d="M 45.3,40 45,40.9 44.7,41.7 44.3,42.4 43.9,43.1 43.5,43.8 43,44.4 42.6,44.9 42.1,45.4 41.6,45.9 41.1,46.2 40.5,46.6 40,46.9 39.4,47.2 38.9,47.4 38.3,47.6 37.7,47.7 37.1,47.9 36.5,47.9 35.9,48 35.3,48" />
<path stroke="#000000" stroke-width="2" d="M 35.3,48 37.4,47.9 39,47.6 40.2,47.1 41.1,46.6 41.6,45.9 41.9,45.2 42,44.4 41.8,43.7 41.4,43 40.9,42.4 40.3,41.9 39.6,41.5 38.9,41.3 38.2,41.4 37.4,41.7 36.8,42.2 36.2,43.1 35.7,44.4 35.4,46 35.3,48 35.3,63" />
<path stroke="#000000" stroke-width="2" d="M 52,70" />
<path stroke="#000000" stroke-width="2" d="M 62,20 54.3,38.5" />
<path stroke="#000000" stroke-width="2" d="M 92,70" />
</svg>