<svg xmlns="http://www.w3.org/2000/svg" width="97.98096990513872" height="121.10107967537795" style="fill:none; stroke-linecap:round;">
    <rect width="100%" height="100%" fill="#FFFFFF" />
<path stroke="#000000" stroke-width="2" d="M 550,75" />
<path stroke="#000000" stroke-width="2" d="M 20,30 20,70 20,58 20,56.3 20.2,54.5 20.5,52.8 20.9,51.1 21.5,49.5 22.2,47.9 23.1,46.4 24.1,45 25.2,43.6 26.5,42.4 27.8,41.3 29.2,40.3 30.7,39.4 32.3,38.7 34,38.1 35.7,37.6 37.4,37.3 39.1,37.1" />
<path stroke="#000000" stroke-width="2" d="M 45.8,70" />
<path stroke="#000000" stroke-width="2" d="M 45.8,70 45.8,69.3 45.8,68.6 46,67.9 46.1,67.2 46.4,66.6 46.7,66 47,65.4 47.4,64.8 47.9,64.2 48.4,63.8 48.9,63.3 49.5,62.9 50.1,62.6 50.7,62.3 51.4,62 52,61.8 52.7,61.7 53.4,61.7 54.1,61.7 54.8,61.7 55.5,61.8 56.2,62 56.8,62.3 57.5,62.6 58.1,62.9 58.6,63.3 59.2,63.8 59.7,64.2 60.1,64.8 60.5,65.4 60.9,66 61.2,66.6 61.4,67.2 61.6,67.9 61.7,68.6 61.8,69.3 61.8,69.8 61.7,70.3 61.6,70.9 61.5,71.4 61.3,71.9 61.1,72.3 60.8,72.8 60.5,73.2 60.2,73.6 59.8,74 59.4,74.3 59,74.6 58.5,74.9 58.1,75.1 57.6,75.3 57.1,75.4 56.5,75.5 56,75.6 55.5,75.6 55,75.5 54.5,75.4 54,75.3 53.5,75.1 53,74.9 52.5,74.6 52.1,74.3 51.7,74 51.3,73.6 51,73.2 50.7,72.8 50.4,72.3 50.2,71.9 50,71.4 49.9,70.9 49.8,70.3 49.8,69.8 49.8,69.3 49.8,68.8 49.9,68.3 50,67.8 50.2,67.3 50.4,66.8 50.7,66.3 51,65.9 51.3,65.5 51.7,65.1 52.1,64.8 52.5,64.5 53,64.2 53.5,64 54,63.8 54.5,63.7 55,63.6 55.5,63.6 56,63.6 56.5,63.6 57.1,63.7 57.6,63.8 58.1,64 58.5,64.2 59,64.5 59.4,64.8 59.8,65.1 60.2,65.5 60.5,65.9 60.8,66.3 61.1,66.8 61.3,67.3 61.5,67.8 61.6,68.3 61.7,68.8 61.8,69.3 61.8,73.3" />
<path stroke="#000000" stroke-width="2" d="M 61.8,73.3 61.4,74.2 61.1,75 60.7,75.7 60.3,76.4 59.9,77.1 59.5,77.7 59,78.2 58.5,78.7 58,79.2 57.5,79.6 57,79.9 56.4,80.2 55.9,80.5 55.3,80.7 54.7,80.9 54.1,81 53.6,81.2 53,81.2 52.4,81.3 51.8,81.3 61.7,91.2 51.8,101.1" />
<path stroke="#000000" stroke-width="2" d="M 68.4,70" />
<path stroke="#000000" stroke-width="2" d="M 68.4,20 68.4,40 68.4,34 68.4,33.1 68.5,32.3 68.7,31.4 68.9,30.6 69.2,29.7 69.5,28.9 70,28.2 70.5,27.5 71,26.8 71.7,26.2 72.3,25.6 73,25.1 73.8,24.7 74.6,24.3 75.4,24 76.3,23.8 77.1,23.6 78,23.6" />
<path stroke="#000000" stroke-width="2" d="M 108,70" />
</svg>