<svg xmlns="http://www.w3.org/2000/svg" width="102.40866334216523" height="95.22769891052808" style="fill:none; stroke-linecap:round;">
    <rect width="100%" height="100%" fill="#FFFFFF" />
<path stroke="#000000" stroke-width="2" d="M 550,75" />
<path stroke="#000000" stroke-width="2" d="M 36,30 16.2,49.8 36,69.6" />
<path stroke="#000000" stroke-width="2" d="M 42.7,70" />
<path stroke="#000000" stroke-width="2" d="M 42.7,50 42.7,70 42.7,64 42.7,63.1 42.7,62.3 42.9,61.4 43.1,60.6 43.4,59.7 43.8,58.9 44.2,58.2 44.7,57.5 45.3,56.8 45.9,56.2 46.6,55.6 47.3,55.1 48,54.7 48.8,54.3 49.7,54 50.5,53.8 51.4,53.6 52.2,53.6" />
<path stroke="#000000" stroke-width="2" d="M 52.2,53.6 54.3,53.5 55.9,53.2 57.1,52.7 58,52.1 58.5,51.5 58.8,50.7 58.9,50 58.7,49.3 58.3,48.6 57.8,47.9 57.2,47.4 56.5,47.1 55.8,46.9 55.1,47 54.3,47.2 53.7,47.8 53.1,48.7 52.6,49.9 52.3,51.5 52.2,53.6 52.2,68.6" />
<path stroke="#000000" stroke-width="2" d="M 52.2,68.6 52.1,70.6 51.8,72.2 51.4,73.5 50.8,74.3 50.1,74.9 49.4,75.2 48.6,75.2 47.9,75.1 47.2,74.7 46.6,74.2 46.1,73.6 45.7,72.9 45.6,72.2 45.6,71.4 45.9,70.7 46.5,70 47.3,69.4 48.6,69 50.2,68.7 52.2,68.6 62.2,68.6" />
<path stroke="#000000" stroke-width="2" d="M 68.9,70" />
<path stroke="#000000" stroke-width="2" d="M 68.9,55" />
<path stroke="#000000" stroke-width="2" d="M 68.9,55 70.9,54.9 72.5,54.6 73.8,54.1 74.6,53.6 75.2,52.9 75.5,52.2 75.5,51.4 75.4,50.7 75,50 74.5,49.4 73.9,48.9 73.2,48.5 72.5,48.3 71.7,48.4 71,48.7 70.3,49.2 69.7,50.1 69.3,51.4 69,53 68.9,55 68.9,70" />
<path stroke="#000000" stroke-width="2" d="M 82.2,70" />
<path stroke="#000000" stroke-width="2" d="M 82.2,30 82.4,30 82.4,30.2 82.2,30.2 82.2,30" />
<path stroke="#000000" stroke-width="2" d="M 112.4,70" />
</svg>