<svg xmlns="http://www.w3.org/2000/svg" width="111.27981717324667" height="90.0" style="fill:none; stroke-linecap:round;">
    <rect width="100%" height="100%" fill="#FFFFFF" />
<path stroke="#000000" stroke-width="2" d="M 550,75" />
<path stroke="#000000" stroke-width="2" d="M 20,30 20,70" />
<path stroke="#000000" stroke-width="2" d="M 26.7,70" />
<path stroke="#000000" stroke-width="2" d="M 26.7,50 34.3,31.5 34.3,32.2 34.4,32.9 34.5,33.6 34.7,34.3 34.9,34.9 35.2,35.6 35.6,36.2 36,36.7 36.4,37.3 36.9,37.8 37.4,38.2 38,38.6 38.6,39 39.3,39.3 39.9,39.5 40.6,39.7 41.3,39.8 42,39.9 42.7,39.9 43.4,39.8 44,39.7 44.7,39.5 45.4,39.3 46,39 46.6,38.6 47.2,38.2 47.7,37.8 48.2,37.3 48.7,36.7 49.1,36.2 49.4,35.6 49.7,34.9 49.9,34.3 50.1,33.6 50.2,32.9 50.3,32.2 58,50.7" />
<path stroke="#000000" stroke-width="2" d="M 64.6,70" />
<path stroke="#000000" stroke-width="2" d="M 64.6,20 84.6,20" />
<path stroke="#000000" stroke-width="2" d="M 84.6,20 86.7,19.9 88.3,19.6 89.5,19.1 90.4,18.6 91,17.9 91.2,17.2 91.3,16.4 91.1,15.7 90.8,15 90.3,14.4 89.6,13.9 88.9,13.5 88.2,13.3 87.5,13.4 86.7,13.7 86.1,14.2 85.5,15.1 85,16.4 84.7,18 84.6,20 84.6,35" />
<path stroke="#000000" stroke-width="2" d="M 121.3,70" />
</svg>