<svg xmlns="http://www.w3.org/2000/svg" width="125.53525277380237" height="89.59797974644667" style="fill:none; stroke-linecap:round;">
    <rect width="100%" height="100%" fill="#FFFFFF" />
<path stroke="#000000" stroke-width="2" d="M 550,75" />
<path stroke="#000000" stroke-width="2" d="M 36,30 16.2,49.8 36,69.6" />
<path stroke="#000000" stroke-width="2" d="M 42.7,70" />
<path stroke="#000000" stroke-width="2" d="M 42.7,20 42.7,40 42.7,34 42.7,33.1 42.7,32.3 42.9,31.4 43.1,30.6 43.4,29.7 43.8,28.9 44.2,28.2 44.7,27.5 45.3,26.8 45.9,26.2 46.6,25.6 47.3,25.1 48,24.7 48.8,24.3 49.7,24 50.5,23.8 51.4,23.6 52.2,23.6" />
<path stroke="#000000" stroke-width="2" d="M 58.9,70" />
<path stroke="#000000" stroke-width="2" d="M 58.9,20 78.9,20" />
<path stroke="#000000" stroke-width="2" d="M 78.9,20 80.3,20.1 81.6,20.6 82.7,21.2 83.7,22.1 84.5,23.1 85.2,24.3 85.7,25.6 86.1,27 86.3,28.5 86.4,30 86.3,31.5 86.1,33 85.7,34.4 85.2,35.7 84.5,36.9 83.7,37.9 82.7,38.8 81.6,39.4 80.3,39.9 78.9,40 79.8,40 80.6,40.1 81.5,40.2 82.3,40.5 83.2,40.8 83.9,41.1 84.7,41.6 85.4,42.1 86.1,42.6 86.7,43.2 87.3,43.9 87.8,44.6 88.2,45.4 88.6,46.2 88.9,47 89.1,47.8 89.2,48.7 89.3,49.6 89.3,50.4 89.2,51.3 89.1,52.2 88.9,53 88.6,53.8 88.2,54.6 87.8,55.4 87.3,56.1 86.7,56.7 86.1,57.4 85.4,57.9 84.7,58.4 83.9,58.9 83.2,59.2 82.3,59.5 81.5,59.8 80.6,59.9 79.8,60 78.9,60 78,59.9 77.2,59.8 76.3,59.5 75.5,59.2 74.7,58.9 74,58.4 73.2,57.9 72.6,57.4 72,56.7 71.4,56.1 70.9,55.4 70.5,54.6 70.1,53.8 69.8,53 69.6,52.2 69.4,51.3 69.3,50.4 69.3,49.6 69.4,48.7 69.6,47.8 69.8,47 70.1,46.2 70.5,45.4 70.9,44.6 71.4,43.9 72,43.2 72.6,42.6 73.2,42.1 74,41.6 74.7,41.1 75.5,40.8 76.3,40.5 77.2,40.2 78,40.1 78.9,40" />
<path stroke="#000000" stroke-width="2" d="M 96,70" />
<path stroke="#000000" stroke-width="2" d="M 96,20 96,40 96,34 96,33.1 96.1,32.3 96.2,31.4 96.4,30.6 96.7,29.7 97.1,28.9 97.5,28.2 98,27.5 98.6,26.8 99.2,26.2 99.9,25.6 100.6,25.1 101.4,24.7 102.1,24.3 103,24 103.8,23.8 104.7,23.6 105.5,23.6" />
<path stroke="#000000" stroke-width="2" d="M 135.5,70" />
</svg>