<svg xmlns="http://www.w3.org/2000/svg" width="118.35481469745275" height="91.1418070123307" style="fill:none; stroke-linecap:round;">
    <rect width="100%" height="100%" fill="#FFFFFF" />
<path stroke="#000000" stroke-width="2" d="M 550,75" />
<path stroke="#000000" stroke-width="2" d="M 20,50 25.7,36.1" />
<path stroke="#000000" stroke-width="2" d="M 25.7,36.1 27.8,36 29.4,35.7 30.6,35.3 31.5,34.7 32.1,34 32.4,33.3 32.4,32.6 32.2,31.8 31.9,31.1 31.4,30.5 30.8,30 30.1,29.7 29.3,29.5 28.6,29.5 27.8,29.8 27.2,30.4 26.6,31.3 26.1,32.5 25.8,34.1 25.7,36.1 25.7,51.1 30.7,51.1 30.7,71.1" />
<path stroke="#000000" stroke-width="2" d="M 39.1,70" />
<path stroke="#000000" stroke-width="2" d="M 39.1,25" />
<path stroke="#000000" stroke-width="2" d="M 39.1,25 41.1,24.9 42.7,24.6 43.9,24.1 44.8,23.6 45.4,22.9 45.7,22.2 45.7,21.4 45.5,20.7 45.2,20 44.7,19.4 44.1,18.9 43.4,18.5 42.6,18.3 41.9,18.4 41.2,18.7 40.5,19.2 39.9,20.1 39.5,21.4 39.2,23 39.1,25 39.1,40 31.4,58.5" />
<path stroke="#000000" stroke-width="2" d="M 52.4,70" />
<path stroke="#000000" stroke-width="2" d="M 52.4,25" />
<path stroke="#000000" stroke-width="2" d="M 52.4,25 54.4,24.9 56,24.6 57.3,24.1 58.1,23.6 58.7,22.9 59,22.2 59,21.4 58.9,20.7 58.5,20 58,19.4 57.4,18.9 56.7,18.5 56,18.3 55.2,18.4 54.5,18.7 53.8,19.2 53.2,20.1 52.8,21.4 52.5,23 52.4,25 52.4,40" />
<path stroke="#000000" stroke-width="2" d="M 52.4,40 52.3,42 52,43.6 51.5,44.9 50.9,45.8 50.3,46.3 49.5,46.6 48.8,46.7 48.1,46.5 47.4,46.1 46.8,45.6 46.3,45 45.9,44.3 45.7,43.6 45.8,42.8 46.1,42.1 46.6,41.4 47.5,40.9 48.7,40.4 50.4,40.1 52.4,40 62.4,40" />
<path stroke="#000000" stroke-width="2" d="M 69,70" />
<path stroke="#000000" stroke-width="2" d="M 69,55" />
<path stroke="#000000" stroke-width="2" d="M 69,55 71.1,54.9 72.7,54.6 73.9,54.1 74.8,53.6 75.4,52.9 75.7,52.2 75.7,51.4 75.5,50.7 75.2,50 74.7,49.4 74.1,48.9 73.4,48.5 72.6,48.3 71.9,48.4 71.2,48.7 70.5,49.2 69.9,50.1 69.5,51.4 69.2,53 69,55 69,70" />
<path stroke="#000000" stroke-width="2" d="M 82.4,70" />
<path stroke="#000000" stroke-width="2" d="M 82.4,30 82.4,50 82.4,50.7 82.4,51.4 82.6,52.1 82.7,52.8 83,53.4 83.3,54 83.6,54.6 84,55.2 84.5,55.8 85,56.2 85.5,56.7 86.1,57.1 86.7,57.4 87.3,57.7 88,58 88.6,58.2 89.3,58.3 90,58.3 90.7,58.3 91.4,58.3 92.1,58.2 92.8,58 93.4,57.7 94.1,57.4 94.7,57.1 95.2,56.7 95.8,56.2 96.3,55.8 96.7,55.2 97.1,54.6 97.5,54 97.8,53.4 98,52.8 98.2,52.1 98.3,51.4 98.4,50.7" />
<path stroke="#000000" stroke-width="2" d="M 128.4,70" />
</svg>