<svg xmlns="http://www.w3.org/2000/svg" width="156.95591808627105" height="90.0" style="fill:none; stroke-linecap:round;">
    <rect width="100%" height="100%" fill="#FFFFFF" />
<path stroke="#000000" stroke-width="2" d="M 550,75" />
<path stroke="#000000" stroke-width="2" d="M 20,30 60,30" />
<path stroke="#000000" stroke-width="2" d="M 66.7,70" />
<path stroke="#000000" stroke-width="2" d="M 66.7,50 66.7,70 72.3,64.3" />
<path stroke="#000000" stroke-width="2" d="M 79,70" />
<path stroke="#000000" stroke-width="2" d="M 79,20 99,20 99.9,20 100.7,20.1 101.6,20.2 102.4,20.5 103.3,20.8 104,21.1 104.8,21.6 105.5,22.1 106.2,22.6 106.8,23.2 107.4,23.9 107.9,24.6 108.3,25.4 108.7,26.2 109,27 109.2,27.8 109.3,28.7 109.4,29.6 109.4,30.4 109.3,31.3 109.2,32.2 109,33 108.7,33.8 108.3,34.6 107.9,35.4 107.4,36.1 106.8,36.7 106.2,37.4 105.5,37.9 104.8,38.4 104,38.9 103.3,39.2 102.4,39.5 101.6,39.8 100.7,39.9 99.9,40 100.7,40 101.6,40.1 102.5,40.2 103.3,40.4 104.1,40.7 104.9,41.1 105.7,41.5 106.4,42 107.1,42.6 107.7,43.2 108.2,43.9 108.7,44.6 109.2,45.4 109.5,46.1 109.8,47 110.1,47.8 110.2,48.7 110.3,49.5 110.3,50.4 110.2,51.3 110.1,52.1 109.8,53 109.5,53.8 109.2,54.6 108.7,55.3 108.2,56.1 107.7,56.7 107.1,57.3 106.4,57.9 105.7,58.4 104.9,58.8 104.1,59.2 103.3,59.5 102.5,59.7 101.6,59.9 100.7,60 99.9,60 99,59.9 98.1,59.7 97.3,59.5 96.5,59.2 95.7,58.8 94.9,58.4 94.2,57.9 93.5,57.3 92.9,56.7 92.4,56.1 91.9,55.3 91.4,54.6 91.1,53.8 90.8,53 90.5,52.1 90.4,51.3 90.3,50.4 90.3,49.5 90.4,48.7 90.5,47.8 90.8,47 91.1,46.1 91.4,45.4 91.9,44.6 92.4,43.9 92.9,43.2 93.5,42.6 94.2,42 94.9,41.5 95.7,41.1 96.5,40.7 97.3,40.4 98.1,40.2 99,40.1 99.9,40" />
<path stroke="#000000" stroke-width="2" d="M 117,70" />
<path stroke="#000000" stroke-width="2" d="M 117,20 137,20" />
<path stroke="#000000" stroke-width="2" d="M 167,70" />
</svg>