<svg xmlns="http://www.w3.org/2000/svg" width="105.95344431028023" height="124.79898987322332" style="fill:none; stroke-linecap:round;">
    <rect width="100%" height="100%" fill="#FFFFFF" />
<path stroke="#000000" stroke-width="2" d="M 550,75" />
<path stroke="#000000" stroke-width="2" d="M 25,30 20,30 20,50 20,50.7 20.1,51.4 20.2,52.1 20.4,52.8 20.6,53.4 20.9,54 21.2,54.6 21.6,55.2 22.1,55.8 22.6,56.2 23.1,56.7 23.7,57.1 24.3,57.4 24.9,57.7 25.6,58 26.3,58.2 26.9,58.3 27.6,58.3 28.3,58.3 29,58.3 29.7,58.2 30.4,58 31.1,57.7 31.7,57.4 32.3,57.1 32.9,56.7 33.4,56.2 33.9,55.8 34.3,55.2 34.7,54.6 35.1,54 35.4,53.4 35.6,52.8 35.8,52.1 35.9,51.4 36,50.7" />
<path stroke="#000000" stroke-width="2" d="M 42.7,70" />
<path stroke="#000000" stroke-width="2" d="M 52.7,70 53.5,70 54.4,69.9 55.3,69.8 56.1,69.5 56.9,69.2 57.7,68.9 58.5,68.4 59.2,67.9 59.8,67.4 60.5,66.8 61,66.1 61.5,65.4 62,64.6 62.3,63.8 62.6,63 62.9,62.2 63,61.3 63.1,60.4 63.1,59.6 63,58.7 62.9,57.8 62.6,57 62.3,56.2 62,55.4 61.5,54.6 61,53.9 60.5,53.3 59.8,52.6 59.2,52.1 58.5,51.6 57.7,51.1 56.9,50.8 56.1,50.5 55.3,50.2 54.4,50.1 53.5,50 52.7,50 51.8,50.1 50.9,50.2 50.1,50.5 49.3,50.8 48.5,51.1 47.7,51.6 47,52.1 46.3,52.6 45.7,53.3 45.2,53.9 44.7,54.6 44.2,55.4 43.8,56.2 43.6,57 43.3,57.8 43.2,58.7 43.1,59.6 43.1,60.4 43.2,61.3 43.3,62.2 43.6,63 43.8,63.8 44.2,64.6 44.7,65.4 45.2,66.1 45.7,66.8 46.3,67.4 47,67.9 47.7,68.4 48.5,68.9 49.3,69.2 50.1,69.5 50.9,69.8 51.8,69.9 52.7,70" />
<path stroke="#000000" stroke-width="2" d="M 52.7,70 54.7,69.9 56.3,69.6 57.5,69.1 58.4,68.6 59,67.9 59.3,67.2 59.3,66.4 59.1,65.7 58.8,65 58.3,64.4 57.7,63.9 57,63.5 56.2,63.3 55.5,63.4 54.8,63.7 54.1,64.2 53.5,65.1 53.1,66.4 52.8,68 52.7,70 52.7,85 42.8,94.9 52.7,104.8" />
<path stroke="#000000" stroke-width="2" d="M 69.7,70" />
<path stroke="#000000" stroke-width="2" d="M 69.7,50 69.7,70 69.7,64 69.7,63.1 69.8,62.3 70,61.4 70.2,60.6 70.5,59.7 70.9,58.9 71.3,58.2 71.8,57.5 72.4,56.8 73,56.2 73.6,55.6 74.4,55.1 75.1,54.7 75.9,54.3 76.7,54 77.6,53.8 78.4,53.6 79.3,53.6" />
<path stroke="#000000" stroke-width="2" d="M 79.3,53.6 81.3,53.5 82.9,53.2 84.2,52.7 85.1,52.1 85.6,51.5 85.9,50.7 86,50 85.8,49.3 85.4,48.6 84.9,47.9 84.3,47.4 83.6,47.1 82.9,46.9 82.1,47 81.4,47.2 80.7,47.8 80.2,48.7 79.7,49.9 79.4,51.5 79.3,53.6 79.3,68.6" />
<path stroke="#000000" stroke-width="2" d="M 116,70" />
</svg>