<svg xmlns="http://www.w3.org/2000/svg" width="134.3080436473018" height="90.0" style="fill:none; stroke-linecap:round;">
    <rect width="100%" height="100%" fill="#FFFFFF" />
<path stroke="#000000" stroke-width="2" d="M 550,75" />
<path stroke="#000000" stroke-width="2" d="M 20,30 40,30 47.7,48.5" />
<path stroke="#000000" stroke-width="2" d="M 54.3,70" />
<path stroke="#000000" stroke-width="2" d="M 54.3,30" />
<path stroke="#000000" stroke-width="2" d="M 54.3,30 57.2,30.3 59.7,31.1 62,32.4 63.9,34.2 65.6,36.2 66.9,38.6 68,41.3 68.7,44.1 69.2,47 69.3,50 69.2,53 68.7,55.9 68,58.7 66.9,61.4 65.6,63.8 63.9,65.8 62,67.6 59.7,68.9 57.2,69.7 54.3,70" />
<path stroke="#000000" stroke-width="2" d="M 76,70" />
<path stroke="#000000" stroke-width="2" d="M 76,20 81,20 81,40" />
<path stroke="#000000" stroke-width="2" d="M 87.7,70" />
<path stroke="#000000" stroke-width="2" d="M 87.7,20 107.7,20" />
<path stroke="#000000" stroke-width="2" d="M 107.7,20 109.7,19.9 111.3,19.6 112.5,19.1 113.4,18.6 114,17.9 114.3,17.2 114.3,16.4 114.1,15.7 113.8,15 113.3,14.4 112.7,13.9 112,13.5 111.2,13.3 110.5,13.4 109.8,13.7 109.1,14.2 108.5,15.1 108.1,16.4 107.8,18 107.7,20 107.7,35" />
<path stroke="#000000" stroke-width="2" d="M 144.3,70" />
</svg>