<svg xmlns="http://www.w3.org/2000/svg" width="177.01402083222897" height="90.2" style="fill:none; stroke-linecap:round;">
    <rect width="100%" height="100%" fill="#FFFFFF" />
<path stroke="#000000" stroke-width="2" d="M 550,75" />
<path stroke="#000000" stroke-width="2" d="M 40,30 24.7,67" />
<path stroke="#000000" stroke-width="2" d="M 46.7,70" />
<path stroke="#000000" stroke-width="2" d="M 46.7,50 46.7,54 46.7,54.5 46.7,55 46.8,55.6 46.9,56.1 47.1,56.6 47.3,57 47.6,57.5 47.9,57.9 48.2,58.3 48.6,58.7 49,59 49.4,59.3 49.9,59.6 50.4,59.8 50.9,60 51.4,60.1 51.9,60.2 52.4,60.3 52.9,60.3 53.4,60.2 54,60.1 54.5,60 55,59.8 55.4,59.6 55.9,59.3 56.3,59 56.7,58.7 57.1,58.3 57.4,57.9 57.7,57.5 58,57 58.2,56.6 58.4,56.1 58.5,55.6 58.6,55 58.7,54.5 58.7,49.5 58.7,69.5" />
<path stroke="#000000" stroke-width="2" d="M 65.3,70" />
<path stroke="#000000" stroke-width="2" d="M 75.3,50 67.7,68.5" />
<path stroke="#000000" stroke-width="2" d="M 82,70" />
<path stroke="#000000" stroke-width="2" d="M 82,50 82.2,50 82.2,50.2 82,50.2 82,50" />
<path stroke="#000000" stroke-width="2" d="M 112.2,70" />
<path stroke="#000000" stroke-width="2" d="M 112.2,70 112.4,70 112.4,70.2 112.2,70.2 112.2,70" />
<path stroke="#000000" stroke-width="2" d="M 119.1,70" />
<path stroke="#000000" stroke-width="2" d="M 119.1,30 134.4,67" />
<path stroke="#000000" stroke-width="2" d="M 141,70" />
<path stroke="#000000" stroke-width="2" d="M 141,20 141,20.7 141.1,21.4 141.2,22.1 141.4,22.8 141.6,23.4 141.9,24 142.3,24.6 142.7,25.2 143.1,25.8 143.6,26.2 144.2,26.7 144.7,27.1 145.3,27.4 146,27.7 146.6,28 147.3,28.2 148,28.3 148.7,28.3 149.4,28.3 150.1,28.3 150.8,28.2 151.4,28 152.1,27.7 152.7,27.4 153.3,27.1 153.9,26.7 154.4,26.2 154.9,25.8 155.4,25.2 155.8,24.6 156.1,24 156.4,23.4 156.7,22.8 156.8,22.1 157,21.4 157,20.7" />
<path stroke="#000000" stroke-width="2" d="M 187,70" />
</svg>