<svg xmlns="http://www.w3.org/2000/svg" width="81.98770833333333" height="90.0" style="fill:none; stroke-linecap:round;">
    <rect width="100%" height="100%" fill="#FFFFFF" />
<path stroke="#000000" stroke-width="2" d="M 550,75" />
<path stroke="#000000" stroke-width="2" d="M 20,35" />
<path stroke="#000000" stroke-width="2" d="M 20,35 22,34.9 23.6,34.6 24.9,34.1 25.8,33.6 26.3,32.9 26.6,32.2 26.7,31.4 26.5,30.7 26.1,30 25.6,29.4 25,28.9 24.3,28.5 23.6,28.3 22.8,28.4 22.1,28.7 21.4,29.2 20.9,30.1 20.4,31.4 20.1,33 20,35 20,50 20,70 25.7,64.3" />
<path stroke="#000000" stroke-width="2" d="M 33.3,70" />
<path stroke="#000000" stroke-width="2" d="M 45.3,36" />
<path stroke="#000000" stroke-width="2" d="M 45.3,36 43.3,35.9 41.7,35.6 40.4,35.1 39.6,34.6 39,33.9 38.7,33.2 38.7,32.4 38.8,31.7 39.2,31 39.7,30.4 40.3,29.9 41,29.5 41.7,29.3 42.5,29.4 43.2,29.7 43.9,30.2 44.5,31.1 44.9,32.4 45.2,34 45.3,36 45.3,40" />
<path stroke="#000000" stroke-width="2" d="M 45.3,40 45,40.9 44.7,41.7 44.3,42.4 43.9,43.1 43.5,43.8 43,44.4 42.6,44.9 42.1,45.4 41.6,45.9 41.1,46.2 40.5,46.6 40,46.9 39.4,47.2 38.9,47.4 38.3,47.6 37.7,47.7 37.1,47.9 36.5,47.9 35.9,48 35.3,48" />
<path stroke="#000000" stroke-width="2" d="M 35.3,48 37.4,47.9 39,47.6 40.2,47.1 41.1,46.6 41.6,45.9 41.9,45.2 42,44.4 41.8,43.7 41.4,43 40.9,42.4 40.3,41.9 39.6,41.5 38.9,41.3 38.2,41.4 37.4,41.7 36.8,42.2 36.2,43.1 35.7,44.4 35.4,46 35.3,48 35.3,63" />
<path stroke="#000000" stroke-width="2" d="M 52,70" />
<path stroke="#000000" stroke-width="2" d="M 62,20 54.3,38.5" />
<path stroke="#000000" stroke-width="2" d="M 92,70" />
</svg>