<svg xmlns="http://www.w3.org/2000/svg" width="95.53905988747495" height="90.0" style="fill:none; stroke-linecap:round;">
    <rect width="100%" height="100%" fill="#FFFFFF" />
<path stroke="#000000" stroke-width="2" d="M 550,75" />
<path stroke="#000000" stroke-width="2" d="M 20,30 20,70" />
<path stroke="#000000" stroke-width="2" d="M 26.7,70" />
<path stroke="#000000" stroke-width="2" d="M 26.7,20 26.7,40 26.7,34 26.7,33.1 26.7,32.3 26.9,31.4 27.1,30.6 27.4,29.7 27.8,28.9 28.2,28.2 28.7,27.5 29.3,26.8 29.9,26.2 30.6,25.6 31.3,25.1 32,24.7 32.8,24.3 33.7,24 34.5,23.8 35.4,23.6 36.2,23.6" />
<path stroke="#000000" stroke-width="2" d="M 42.9,70" />
<path stroke="#000000" stroke-width="2" d="M 52.9,30 45.2,48.5 45.2,68.5" />
<path stroke="#000000" stroke-width="2" d="M 59.6,70" />
<path stroke="#000000" stroke-width="2" d="M 59.6,40 59.6,39.3 59.6,38.6 59.7,37.9 59.9,37.2 60.2,36.6 60.5,36 60.8,35.4 61.2,34.8 61.6,34.2 62.1,33.8 62.7,33.3 63.2,32.9 63.9,32.6 64.5,32.3 65.1,32 65.8,31.8 66.5,31.7 67.2,31.7 67.9,31.7 68.6,31.7 69.3,31.8 70,32 70.6,32.3 71.2,32.6 71.8,32.9 72.4,33.3 73,33.8 73.4,34.2 73.9,34.8 74.3,35.4 74.6,36 74.9,36.6 75.2,37.2 75.4,37.9 75.5,38.6 75.5,39.3" />
<path stroke="#000000" stroke-width="2" d="M 105.5,70" />
</svg>