<svg xmlns="http://www.w3.org/2000/svg" width="92.34140495427545" height="108.27658052344906" style="fill:none; stroke-linecap:round;">
    <rect width="100%" height="100%" fill="#FFFFFF" />
<path stroke="#000000" stroke-width="2" d="M 550,75" />
<path stroke="#000000" stroke-width="2" d="M 30,30 20,30 20,70 20,68.3 20.2,66.5 20.5,64.8 20.9,63.1 21.5,61.5 22.2,59.9 23.1,58.4 24.1,57 25.2,55.6 26.5,54.4 27.8,53.3 29.2,52.3 30.7,51.4 32.3,50.7 34,50.1 35.7,49.6 37.4,49.3 39.1,49.1" />
<path stroke="#000000" stroke-width="2" d="M 45.8,70" />
<path stroke="#000000" stroke-width="2" d="M 45.8,50 55.7,59.9 45.8,69.8 38.1,88.3" />
<path stroke="#000000" stroke-width="2" d="M 62.3,70" />
<path stroke="#000000" stroke-width="2" d="M 72.3,30 64.7,48.5" />
<path stroke="#000000" stroke-width="2" d="M 64.7,48.5 66.7,48.4 68.3,48.1 69.6,47.6 70.4,47 71,46.4 71.3,45.6 71.3,44.9 71.2,44.2 70.8,43.5 70.3,42.9 69.7,42.4 69,42 68.3,41.8 67.5,41.9 66.8,42.1 66.1,42.7 65.5,43.6 65.1,44.8 64.8,46.4 64.7,48.5 64.7,63.5" />
<path stroke="#000000" stroke-width="2" d="M 102.3,70" />
</svg>