<svg xmlns="http://www.w3.org/2000/svg" width="129.06734671740887" height="91.654375" style="fill:none; stroke-linecap:round;">
    <rect width="100%" height="100%" fill="#FFFFFF" />
<path stroke="#000000" stroke-width="2" d="M 550,75" />
<path stroke="#000000" stroke-width="2" d="M 20,30 35.3,67" />
<path stroke="#000000" stroke-width="2" d="M 42,70" />
<path stroke="#000000" stroke-width="2" d="M 42,50" />
<path stroke="#000000" stroke-width="2" d="M 42,50 42.1,50 42.5,50 43.2,50 44.1,50.1 45.1,50.2 46.3,50.3 47.6,50.4 49,50.6 50.5,50.9 52,51.2 53.5,51.7 54.9,52.2 56.3,52.7 57.7,53.4 58.8,54.2 59.9,55.1 60.8,56.1 61.4,57.3 61.8,58.6 62,60" />
<path stroke="#000000" stroke-width="2" d="M 62,60 63.9,62.1 65.2,64.1 66,65.7 66.3,67.2 66.2,68.4 65.8,69.5 65,70.2 64.1,70.8 63.1,71.1 62,71.2 60.9,71.1 59.8,70.8 58.9,70.2 58.2,69.5 57.8,68.4 57.7,67.2 58,65.7 58.7,64 60.1,62.1 62,60" />
<path stroke="#000000" stroke-width="2" d="M 62,60 62,59.9 62,59.7 62,59.4 62.1,59 62.3,58.4 62.5,57.8 62.8,57.2 63.3,56.5 63.8,55.7 64.5,55 65.3,54.3 66.3,53.5 67.5,52.8 68.8,52.2 70.4,51.6 72.2,51 74.3,50.6 76.6,50.3 79.1,50.1 82,50" />
<path stroke="#000000" stroke-width="2" d="M 82,50 84,49.9 85.6,49.6 86.9,49.1 87.7,48.6 88.3,47.9 88.6,47.2 88.6,46.4 88.5,45.7 88.1,45 87.6,44.4 87,43.9 86.3,43.5 85.6,43.3 84.8,43.4 84.1,43.7 83.4,44.2 82.8,45.1 82.4,46.4 82.1,48 82,50 82,65" />
<path stroke="#000000" stroke-width="2" d="M 82,65 81.9,67 81.6,68.6 81.1,69.9 80.5,70.8 79.9,71.3 79.1,71.6 78.4,71.7 77.7,71.5 77,71.1 76.3,70.6 75.8,70 75.5,69.3 75.3,68.6 75.4,67.8 75.6,67.1 76.2,66.4 77.1,65.9 78.3,65.4 79.9,65.1 82,65 92,65" />
<path stroke="#000000" stroke-width="2" d="M 98.6,70" />
<path stroke="#000000" stroke-width="2" d="M 98.6,20 99.5,20 100.4,20.1 101.2,20.2 102.1,20.5 102.9,20.8 103.7,21.1 104.4,21.6 105.2,22.1 105.8,22.6 106.4,23.2 107,23.9 107.5,24.6 107.9,25.4 108.3,26.2 108.6,27 108.8,27.8 109,28.7 109.1,29.6 109.1,30.4 109,31.3 108.8,32.2 108.6,33 108.3,33.8 107.9,34.6 107.5,35.4 107,36.1 106.4,36.7 105.8,37.4 105.2,37.9 104.4,38.4 103.7,38.9 102.9,39.2 102.1,39.5 101.2,39.8 100.4,39.9 99.5,40" />
<path stroke="#000000" stroke-width="2" d="M 139.1,70" />
</svg>