<svg xmlns="http://www.w3.org/2000/svg" width="374.19620323858464" height="105.0" style="fill:none; stroke-linecap:round;">
    <rect width="100%" height="100%" fill="#FFFFFF" />
<path stroke="#000000" stroke-width="2" d="M 550,75" />
<path stroke="#000000" stroke-width="2" d="M 20,30 20,70 31.3,58.7" />
<path stroke="#000000" stroke-width="2" d="M 38,70" />
<path stroke="#000000" stroke-width="2" d="M 38,40 45.6,21.5 45.6,41.5 45.6,35.5 45.6,34.7 45.7,33.8 45.9,32.9 46.1,32.1 46.4,31.3 46.8,30.5 47.2,29.7 47.7,29 48.3,28.3 48.9,27.7 49.5,27.2 50.3,26.7 51,26.2 51.8,25.8 52.6,25.5" />
<path stroke="#000000" stroke-width="2" d="M 82.6,70" />
<path stroke="#000000" stroke-width="2" d="M 82.6,70 82.8,70 82.8,70.2 82.6,70.2 82.6,70" />
<path stroke="#000000" stroke-width="2" d="M 89.5,70" />
<path stroke="#000000" stroke-width="2" d="M 101.5,30" />
<path stroke="#000000" stroke-width="2" d="M 101.5,30 101.3,34.1 100.7,37.3 99.8,39.8 98.6,41.5 97.3,42.7 95.8,43.2 94.3,43.3 92.8,43 91.5,42.3 90.2,41.2 89.2,40 88.5,38.6 88.2,37.2 88.3,35.7 88.8,34.2 90,32.9 91.7,31.7 94.2,30.8 97.4,30.2 101.5,30 109.5,30" />
<path stroke="#000000" stroke-width="2" d="M 109.5,30 111.2,30.6 112.8,31.3 114.4,32.1 115.8,32.8 117,33.7 118.2,34.6 119.3,35.5 120.3,36.5 121.2,37.5 122,38.5 122.7,39.6 123.3,40.7 123.8,41.8 124.3,42.9 124.7,44.1 125,45.2 125.2,46.4 125.4,47.6 125.5,48.8 125.5,50" />
<path stroke="#000000" stroke-width="2" d="M 132.2,70" />
<path stroke="#000000" stroke-width="2" d="M 132.2,40" />
<path stroke="#000000" stroke-width="2" d="M 132.2,40 136.2,39.8 139.4,39.2 141.9,38.3 143.7,37.1 144.8,35.8 145.4,34.3 145.5,32.8 145.1,31.4 144.4,30 143.4,28.8 142.2,27.7 140.8,27 139.3,26.7 137.8,26.8 136.4,27.3 135,28.5 133.9,30.2 133,32.7 132.4,35.9 132.2,40 132.2,70" />
<path stroke="#000000" stroke-width="2" d="M 152.1,70" />
<path stroke="#000000" stroke-width="2" d="M 162.1,20 154.5,38.5" />
<path stroke="#000000" stroke-width="2" d="M 154.5,38.5 156.5,38.4 158.1,38.1 159.3,37.6 160.2,37 160.8,36.4 161.1,35.6 161.1,34.9 161,34.2 160.6,33.5 160.1,32.9 159.5,32.4 158.8,32 158.1,31.8 157.3,31.9 156.6,32.1 155.9,32.7 155.3,33.6 154.9,34.8 154.6,36.4 154.5,38.5 154.5,53.5" />
<path stroke="#000000" stroke-width="2" d="M 168.8,70" />
<path stroke="#000000" stroke-width="2" d="M 168.8,50 173.8,50 173.8,70" />
<path stroke="#000000" stroke-width="2" d="M 203.8,70" />
<path stroke="#000000" stroke-width="2" d="M 203.8,70 204,70 204,70.2 203.8,70.2 203.8,70" />
<path stroke="#000000" stroke-width="2" d="M 210.7,70" />
<path stroke="#000000" stroke-width="2" d="M 230.7,30 215.4,67" />
<path stroke="#000000" stroke-width="2" d="M 237.3,70" />
<path stroke="#000000" stroke-width="2" d="M 237.3,20 245,38.5" />
<path stroke="#000000" stroke-width="2" d="M 245,38.5 244.9,36.4 244.6,34.8 244.1,33.6 243.5,32.7 242.9,32.1 242.1,31.9 241.4,31.8 240.7,32 240,32.4 239.4,32.9 238.9,33.5 238.5,34.2 238.3,34.9 238.4,35.6 238.7,36.4 239.2,37 240.1,37.6 241.3,38.1 242.9,38.4 245,38.5 249,38.5" />
<path stroke="#000000" stroke-width="2" d="M 249,38.5 249.9,38.2 250.7,37.8 251.4,37.4 252.1,37.1 252.8,36.6 253.4,36.2 253.9,35.7 254.4,35.2 254.8,34.7 255.2,34.2 255.6,33.7 255.9,33.1 256.2,32.6 256.4,32 256.6,31.4 256.7,30.9 256.8,30.3 256.9,29.7 257,29.1 257,28.5" />
<path stroke="#000000" stroke-width="2" d="M 257,28.5 259,28.4 260.6,28.1 261.9,27.6 262.7,27 263.3,26.4 263.6,25.6 263.6,24.9 263.5,24.2 263.1,23.5 262.6,22.9 262,22.4 261.3,22 260.6,21.8 259.8,21.9 259.1,22.1 258.4,22.7 257.8,23.6 257.4,24.8 257.1,26.4 257,28.5 257,43.5" />
<path stroke="#000000" stroke-width="2" d="M 270.3,70" />
<path stroke="#000000" stroke-width="2" d="M 270.3,50 275.3,50 275.3,70" />
<path stroke="#000000" stroke-width="2" d="M 275.3,70 277.3,69.9 278.9,69.6 280.2,69.1 281.1,68.6 281.6,67.9 281.9,67.2 282,66.4 281.8,65.7 281.4,65 280.9,64.4 280.3,63.9 279.6,63.5 278.9,63.3 278.1,63.4 277.4,63.7 276.7,64.2 276.2,65.1 275.7,66.4 275.4,68 275.3,70 275.3,85" />
<path stroke="#000000" stroke-width="2" d="M 288.6,70" />
<path stroke="#000000" stroke-width="2" d="M 288.6,30 288.6,70 288.6,58 288.6,56.3 288.8,54.5 289.1,52.8 289.5,51.1 290.1,49.5 290.9,47.9 291.7,46.4 292.7,45 293.9,43.6 295.1,42.4 296.4,41.3 297.9,40.3 299.4,39.4 300.9,38.7 302.6,38.1 304.3,37.6 306,37.3 307.7,37.1" />
<path stroke="#000000" stroke-width="2" d="M 314.4,70" />
<path stroke="#000000" stroke-width="2" d="M 314.4,30 334.4,30 354.2,49.8" />
<path stroke="#000000" stroke-width="2" d="M 354.2,29.8 334.4,49.6" />
<path stroke="#000000" stroke-width="2" d="M 384.2,70" />
</svg>