<svg xmlns="http://www.w3.org/2000/svg" width="87.65143821197638" height="77.77968045238036" style="fill:none; stroke-linecap:round;">
    <rect width="100%" height="100%" fill="#FFFFFF" />
<path stroke="#000000" stroke-width="2" d="M 550,75" />
<path stroke="#000000" stroke-width="2" d="M 20,30 40,30 45,30 45,50" />
<path stroke="#000000" stroke-width="2" d="M 51.7,70" />
<path stroke="#000000" stroke-width="2" d="M 51.7,40 51.7,39.3 51.7,38.6 51.8,37.9 52,37.2 52.3,36.6 52.6,36 52.9,35.4 53.3,34.8 53.8,34.2 54.3,33.8 54.8,33.3 55.4,32.9 56,32.6 56.6,32.3 57.3,32 57.9,31.8 58.6,31.7 59.3,31.7 60,31.7 60.7,31.7 61.4,31.8 62.1,32 62.7,32.3 63.4,32.6 64,32.9 64.5,33.3 65.1,33.8 65.6,34.2 66,34.8 66.4,35.4 66.8,36 67.1,36.6 67.3,37.2 67.5,37.9 67.6,38.6 67.7,39.3 60,57.8" />
<path stroke="#000000" stroke-width="2" d="M 97.7,70" />
</svg>