<svg xmlns="http://www.w3.org/2000/svg" width="201.96495874635752" height="90.2" style="fill:none; stroke-linecap:round;">
    <rect width="100%" height="100%" fill="#FFFFFF" />
<path stroke="#000000" stroke-width="2" d="M 550,75" />
<path stroke="#000000" stroke-width="2" d="M 20,30 20,50 30,50 20.1,59.9 30,69.8" />
<path stroke="#000000" stroke-width="2" d="M 36.7,70" />
<path stroke="#000000" stroke-width="2" d="M 36.7,20 50.8,34.1 65,20 57.3,38.5" />
<path stroke="#000000" stroke-width="2" d="M 71.6,70" />
<path stroke="#000000" stroke-width="2" d="M 71.6,50 71.6,54 71.6,54.5 71.7,55 71.8,55.6 71.9,56.1 72.1,56.6 72.3,57 72.6,57.5 72.9,57.9 73.2,58.3 73.6,58.7 74,59 74.4,59.3 74.8,59.6 75.3,59.8 75.8,60 76.3,60.1 76.8,60.2 77.4,60.3 77.9,60.3 78.4,60.2 78.9,60.1 79.4,60 79.9,59.8 80.4,59.6 80.8,59.3 81.3,59 81.7,58.7 82,58.3 82.4,57.9 82.7,57.5 82.9,57 83.2,56.6 83.3,56.1 83.5,55.6 83.6,55 83.6,54.5 83.6,49.5 83.6,69.5" />
<path stroke="#000000" stroke-width="2" d="M 90.3,70" />
<path stroke="#000000" stroke-width="2" d="M 100.3,50 92.6,68.5" />
<path stroke="#000000" stroke-width="2" d="M 106.9,70" />
<path stroke="#000000" stroke-width="2" d="M 106.9,50 107.1,50 107.1,50.2 106.9,50.2 106.9,50" />
<path stroke="#000000" stroke-width="2" d="M 137.1,70" />
<path stroke="#000000" stroke-width="2" d="M 137.1,70 137.3,70 137.3,70.2 137.1,70.2 137.1,70" />
<path stroke="#000000" stroke-width="2" d="M 144,70" />
<path stroke="#000000" stroke-width="2" d="M 144,30 159.3,67" />
<path stroke="#000000" stroke-width="2" d="M 166,70" />
<path stroke="#000000" stroke-width="2" d="M 166,20 166,20.7 166,21.4 166.2,22.1 166.3,22.8 166.6,23.4 166.9,24 167.2,24.6 167.6,25.2 168.1,25.8 168.6,26.2 169.1,26.7 169.7,27.1 170.3,27.4 170.9,27.7 171.6,28 172.2,28.2 172.9,28.3 173.6,28.3 174.3,28.3 175,28.3 175.7,28.2 176.4,28 177,27.7 177.7,27.4 178.3,27.1 178.8,26.7 179.4,26.2 179.9,25.8 180.3,25.2 180.7,24.6 181.1,24 181.4,23.4 181.6,22.8 181.8,22.1 181.9,21.4 182,20.7" />
<path stroke="#000000" stroke-width="2" d="M 212,70" />
</svg>