<svg xmlns="http://www.w3.org/2000/svg" width="97.98096990513872" height="109.10107967537795" style="fill:none; stroke-linecap:round;">
    <rect width="100%" height="100%" fill="#FFFFFF" />
<path stroke="#000000" stroke-width="2" d="M 550,75" />
<path stroke="#000000" stroke-width="2" d="M 20,30 20,70 20,58 20,56.3 20.2,54.5 20.5,52.8 20.9,51.1 21.5,49.5 22.2,47.9 23.1,46.4 24.1,45 25.2,43.6 26.5,42.4 27.8,41.3 29.2,40.3 30.7,39.4 32.3,38.7 34,38.1 35.7,37.6 37.4,37.3 39.1,37.1" />
<path stroke="#000000" stroke-width="2" d="M 45.8,70" />
<path stroke="#000000" stroke-width="2" d="M 45.8,58 45.8,57.3 45.8,56.6 46,55.9 46.1,55.2 46.4,54.6 46.7,54 47,53.4 47.4,52.8 47.9,52.2 48.4,51.8 48.9,51.3 49.5,50.9 50.1,50.6 50.7,50.3 51.4,50 52,49.8 52.7,49.7 53.4,49.7 54.1,49.7 54.8,49.7 55.5,49.8 56.2,50 56.8,50.3 57.5,50.6 58.1,50.9 58.6,51.3 59.2,51.8 59.7,52.2 60.1,52.8 60.5,53.4 60.9,54 61.2,54.6 61.4,55.2 61.6,55.9 61.7,56.6 61.8,57.3" />
<path stroke="#000000" stroke-width="2" d="M 61.8,57.3 59.7,57.2 58.1,56.9 56.9,56.4 56,55.9 55.4,55.2 55.1,54.5 55.1,53.7 55.3,53 55.6,52.3 56.1,51.7 56.7,51.2 57.4,50.8 58.2,50.6 58.9,50.7 59.7,51 60.3,51.5 60.9,52.4 61.4,53.7 61.7,55.3 61.8,57.3 61.8,61.3" />
<path stroke="#000000" stroke-width="2" d="M 61.8,61.3 61.4,62.2 61.1,63 60.7,63.7 60.3,64.4 59.9,65.1 59.5,65.7 59,66.2 58.5,66.7 58,67.2 57.5,67.6 57,67.9 56.4,68.2 55.9,68.5 55.3,68.7 54.7,68.9 54.1,69 53.6,69.2 53,69.2 52.4,69.3 51.8,69.3 61.7,79.2 51.8,89.1" />
<path stroke="#000000" stroke-width="2" d="M 68.4,70" />
<path stroke="#000000" stroke-width="2" d="M 68.4,20 68.4,40 68.4,34 68.4,33.1 68.5,32.3 68.7,31.4 68.9,30.6 69.2,29.7 69.5,28.9 70,28.2 70.5,27.5 71,26.8 71.7,26.2 72.3,25.6 73,25.1 73.8,24.7 74.6,24.3 75.4,24 76.3,23.8 77.1,23.6 78,23.6" />
<path stroke="#000000" stroke-width="2" d="M 108,70" />
</svg>