<svg xmlns="http://www.w3.org/2000/svg" width="154.28677764361353" height="90.0" style="fill:none; stroke-linecap:round;">
    <rect width="100%" height="100%" fill="#FFFFFF" />
<path stroke="#000000" stroke-width="2" d="M 550,75" />
<path stroke="#000000" stroke-width="2" d="M 20,30 25,30 25,50 25,50.7 25.1,51.4 25.2,52.1 25.4,52.8 25.6,53.4 25.9,54 26.2,54.6 26.6,55.2 27.1,55.8 27.6,56.2 28.1,56.7 28.7,57.1 29.3,57.4 29.9,57.7 30.6,58 31.3,58.2 31.9,58.3 32.6,58.3 33.3,58.3 34,58.3 34.7,58.2 35.4,58 36.1,57.7 36.7,57.4 37.3,57.1 37.9,56.7 38.4,56.2 38.9,55.8 39.3,55.2 39.7,54.6 40.1,54 40.4,53.4 40.6,52.8 40.8,52.1 40.9,51.4 41,50.7" />
<path stroke="#000000" stroke-width="2" d="M 47.7,70" />
<path stroke="#000000" stroke-width="2" d="M 47.7,50 48.5,50 49.4,50.1 50.3,50.2 51.1,50.5 51.9,50.8 52.7,51.1 53.5,51.6 54.2,52.1 54.8,52.6 55.5,53.2 56,53.9 56.5,54.6 57,55.4 57.3,56.2 57.6,57 57.9,57.8 58,58.7 58.1,59.6 58.1,60.4 58,61.3 57.9,62.2 57.6,63 57.3,63.8 57,64.6 56.5,65.4 56,66.1 55.5,66.7 54.8,67.4 54.2,67.9 53.5,68.4 52.7,68.9 51.9,69.2 51.1,69.5 50.3,69.8 49.4,69.9 48.5,70" />
<path stroke="#000000" stroke-width="2" d="M 64.7,70" />
<path stroke="#000000" stroke-width="2" d="M 64.7,30 84.7,30 84.7,45" />
<path stroke="#000000" stroke-width="2" d="M 84.7,45 84.6,47 84.3,48.6 83.9,49.9 83.3,50.8 82.6,51.3 81.9,51.6 81.2,51.7 80.4,51.5 79.7,51.1 79.1,50.6 78.6,50 78.3,49.3 78.1,48.6 78.1,47.8 78.4,47.1 79,46.4 79.9,45.9 81.1,45.4 82.7,45.1 84.7,45" />
<path stroke="#000000" stroke-width="2" d="M 91.4,70" />
<path stroke="#000000" stroke-width="2" d="M 91.4,50 91.4,70 91.4,64 91.4,63.1 91.5,62.3 91.6,61.4 91.9,60.6 92.2,59.7 92.5,58.9 93,58.2 93.5,57.5 94,56.8 94.6,56.2 95.3,55.6 96,55.1 96.8,54.7 97.6,54.3 98.4,54 99.2,53.8 100.1,53.6 101,53.6" />
<path stroke="#000000" stroke-width="2" d="M 107.6,70" />
<path stroke="#000000" stroke-width="2" d="M 107.6,20 127.6,20" />
<path stroke="#000000" stroke-width="2" d="M 127.6,20 129.7,19.9 131.3,19.6 132.5,19.1 133.4,18.6 134,17.9 134.2,17.2 134.3,16.4 134.1,15.7 133.8,15 133.3,14.4 132.6,13.9 132,13.5 131.2,13.3 130.5,13.4 129.7,13.7 129.1,14.2 128.5,15.1 128,16.4 127.7,18 127.6,20 127.6,35" />
<path stroke="#000000" stroke-width="2" d="M 164.3,70" />
</svg>