<svg xmlns="http://www.w3.org/2000/svg" width="140.1613958262457" height="89.96192886327431" style="fill:none; stroke-linecap:round;">
    <rect width="100%" height="100%" fill="#FFFFFF" />
<path stroke="#000000" stroke-width="2" d="M 550,75" />
<path stroke="#000000" stroke-width="2" d="M 20,30 40,30 47.7,48.5" />
<path stroke="#000000" stroke-width="2" d="M 54.3,70" />
<path stroke="#000000" stroke-width="2" d="M 54.3,30 56.1,30 57.8,30.2 59.5,30.5 61.2,30.9 62.8,31.5 64.4,32.2 65.9,33.1 67.4,34.1 68.7,35.2 69.9,36.5 71.1,37.8 72.1,39.2 72.9,40.7 73.7,42.3 74.3,44 74.7,45.7 75,47.4 75.2,49.1 75.2,50.9 75,52.6 74.7,54.3 74.3,56 73.7,57.6 72.9,59.2 72.1,60.7 71.1,62.2 69.9,63.5 68.7,64.7 67.4,65.8 65.9,66.8 64.4,67.7 62.8,68.5 61.2,69.1 59.5,69.5 57.8,69.8 56.1,70" />
<path stroke="#000000" stroke-width="2" d="M 81.8,70" />
<path stroke="#000000" stroke-width="2" d="M 81.8,20 86.8,20 86.8,40" />
<path stroke="#000000" stroke-width="2" d="M 93.5,70" />
<path stroke="#000000" stroke-width="2" d="M 93.5,20 113.5,20" />
<path stroke="#000000" stroke-width="2" d="M 113.5,20 115.5,19.9 117.2,19.6 118.4,19.1 119.3,18.6 119.8,17.9 120.1,17.2 120.2,16.4 120,15.7 119.6,15 119.1,14.4 118.5,13.9 117.8,13.5 117.1,13.3 116.3,13.4 115.6,13.7 114.9,14.2 114.4,15.1 113.9,16.4 113.6,18 113.5,20 113.5,35" />
<path stroke="#000000" stroke-width="2" d="M 150.2,70" />
</svg>