<svg xmlns="http://www.w3.org/2000/svg" width="151.3601015541416" height="90.0" style="fill:none; stroke-linecap:round;">
    <rect width="100%" height="100%" fill="#FFFFFF" />
<path stroke="#000000" stroke-width="2" d="M 550,75" />
<path stroke="#000000" stroke-width="2" d="M 20,30 25,30 25,50 25,50.7 25.1,51.4 25.2,52.1 25.4,52.8 25.6,53.4 25.9,54 26.2,54.6 26.6,55.2 27.1,55.8 27.6,56.2 28.1,56.7 28.7,57.1 29.3,57.4 29.9,57.7 30.6,58 31.3,58.2 31.9,58.3 32.6,58.3 33.3,58.3 34,58.3 34.7,58.2 35.4,58 36.1,57.7 36.7,57.4 37.3,57.1 37.9,56.7 38.4,56.2 38.9,55.8 39.3,55.2 39.7,54.6 40.1,54 40.4,53.4 40.6,52.8 40.8,52.1 40.9,51.4 41,50.7" />
<path stroke="#000000" stroke-width="2" d="M 47.7,70" />
<path stroke="#000000" stroke-width="2" d="M 47.7,50" />
<path stroke="#000000" stroke-width="2" d="M 47.7,50 49.1,50.1 50.4,50.6 51.5,51.2 52.5,52.1 53.3,53.1 54,54.3 54.5,55.6 54.9,57 55.1,58.5 55.2,60 55.1,61.5 54.9,63 54.5,64.4 54,65.7 53.3,66.9 52.5,67.9 51.5,68.8 50.4,69.4 49.1,69.9 47.7,70" />
<path stroke="#000000" stroke-width="2" d="M 61.8,70" />
<path stroke="#000000" stroke-width="2" d="M 61.8,30 81.8,30 81.8,45" />
<path stroke="#000000" stroke-width="2" d="M 81.8,45 81.7,47 81.4,48.6 81,49.9 80.4,50.8 79.7,51.3 79,51.6 78.2,51.7 77.5,51.5 76.8,51.1 76.2,50.6 75.7,50 75.3,49.3 75.2,48.6 75.2,47.8 75.5,47.1 76.1,46.4 76.9,45.9 78.2,45.4 79.8,45.1 81.8,45" />
<path stroke="#000000" stroke-width="2" d="M 88.5,70" />
<path stroke="#000000" stroke-width="2" d="M 88.5,50 88.5,70 88.5,64 88.5,63.1 88.6,62.3 88.7,61.4 88.9,60.6 89.2,59.7 89.6,58.9 90,58.2 90.5,57.5 91.1,56.8 91.7,56.2 92.4,55.6 93.1,55.1 93.9,54.7 94.6,54.3 95.5,54 96.3,53.8 97.2,53.6 98,53.6" />
<path stroke="#000000" stroke-width="2" d="M 104.7,70" />
<path stroke="#000000" stroke-width="2" d="M 104.7,20 124.7,20" />
<path stroke="#000000" stroke-width="2" d="M 124.7,20 126.7,19.9 128.4,19.6 129.6,19.1 130.5,18.6 131,17.9 131.3,17.2 131.4,16.4 131.2,15.7 130.8,15 130.3,14.4 129.7,13.9 129,13.5 128.3,13.3 127.5,13.4 126.8,13.7 126.1,14.2 125.6,15.1 125.1,16.4 124.8,18 124.7,20 124.7,35" />
<path stroke="#000000" stroke-width="2" d="M 161.4,70" />
</svg>