<svg xmlns="http://www.w3.org/2000/svg" width="83.62614852594486" height="90.0" style="fill:none; stroke-linecap:round;">
    <rect width="100%" height="100%" fill="#FFFFFF" />
<path stroke="#000000" stroke-width="2" d="M 550,75" />
<path stroke="#000000" stroke-width="2" d="M 20,35" />
<path stroke="#000000" stroke-width="2" d="M 20,35 22,34.9 23.6,34.6 24.9,34.1 25.8,33.6 26.3,32.9 26.6,32.2 26.7,31.4 26.5,30.7 26.1,30 25.6,29.4 25,28.9 24.3,28.5 23.6,28.3 22.8,28.4 22.1,28.7 21.4,29.2 20.9,30.1 20.4,31.4 20.1,33 20,35 20,50 20,70 25.7,64.3" />
<path stroke="#000000" stroke-width="2" d="M 33.3,70" />
<path stroke="#000000" stroke-width="2" d="M 33.3,30 41,48.5 41,49 40.9,49.5 40.8,50 40.7,50.5 40.5,51 40.3,51.5 40,52 39.7,52.4 39.4,52.8 39,53.2 38.6,53.5 38.2,53.8 37.8,54.1 37.3,54.3 36.8,54.5 36.3,54.6 35.8,54.7 35.2,54.7 34.7,54.7 34.2,54.7 33.7,54.6 33.2,54.5 32.7,54.3 32.2,54.1 31.8,53.8 31.3,53.5 30.9,53.2 30.6,52.8 30.2,52.4 29.9,52 29.7,51.5 29.4,51 29.3,50.5 29.1,50 29,49.5 29,49 29,48.5 29,48 29.1,47.4 29.3,46.9 29.4,46.4 29.7,46 29.9,45.5 30.2,45.1 30.6,44.7 30.9,44.3 31.3,44 31.8,43.7 32.2,43.4 32.7,43.2 33.2,43 33.7,42.9 34.2,42.8 34.7,42.7 35.2,42.7 35.8,42.8 36.3,42.9 36.8,43 37.3,43.2 37.8,43.4 38.2,43.7 38.6,44 39,44.3 39.4,44.7 39.7,45.1 40,45.5 40.3,46 40.5,46.4 40.7,46.9 40.8,47.4 40.9,48 41,48.5 41,52.5" />
<path stroke="#000000" stroke-width="2" d="M 41,52.5 40.7,53.3 40.3,54.2 39.9,54.9 39.6,55.6 39.1,56.3 38.7,56.9 38.2,57.4 37.7,57.9 37.2,58.3 36.7,58.7 36.2,59.1 35.6,59.4 35.1,59.7 34.5,59.9 33.9,60.1 33.4,60.2 32.8,60.3 32.2,60.4 31.6,60.5 31,60.5" />
<path stroke="#000000" stroke-width="2" d="M 31,60.5 30.9,62.5 30.6,64.1 30.1,65.4 29.5,66.2 28.9,66.8 28.1,67.1 27.4,67.1 26.7,67 26,66.6 25.3,66.1 24.8,65.5 24.5,64.8 24.3,64.1 24.4,63.3 24.6,62.6 25.2,61.9 26.1,61.3 27.3,60.9 28.9,60.6 31,60.5 41,60.5" />
<path stroke="#000000" stroke-width="2" d="M 47.6,70" />
<path stroke="#000000" stroke-width="2" d="M 47.6,50 47.6,50.7 47.7,51.4 47.8,52.1 48,52.8 48.2,53.4 48.5,54 48.9,54.6 49.3,55.2 49.7,55.8 50.2,56.2 50.8,56.7 51.3,57.1 51.9,57.4 52.6,57.7 53.2,58 53.9,58.2 54.6,58.3 55.3,58.3 56,58.3 56.7,58.3 57.4,58.2 58,58 58.7,57.7 59.3,57.4 59.9,57.1 60.5,56.7 61,56.2 61.5,55.8 62,55.2 62.4,54.6 62.7,54 63,53.4 63.3,52.8 63.4,52.1 63.6,51.4 63.6,50.7" />
<path stroke="#000000" stroke-width="2" d="M 93.6,70" />
</svg>