<svg xmlns="http://www.w3.org/2000/svg" width="1101.8263907408716" height="102.0" style="fill:none; stroke-linecap:round;">
    <rect width="100%" height="100%" fill="#FFFFFF" />
<path stroke="#000000" stroke-width="2" d="M 550,75" />
<path stroke="#000000" stroke-width="2" d="M 36,30 16.2,49.8 36,69.6" />
<path stroke="#000000" stroke-width="2" d="M 42.7,70" />
<path stroke="#000000" stroke-width="2" d="M 42.7,20 42.7,40 42.7,34 42.7,33.1 42.7,32.3 42.9,31.4 43.1,30.6 43.4,29.7 43.8,28.9 44.2,28.2 44.7,27.5 45.3,26.8 45.9,26.2 46.6,25.6 47.3,25.1 48,24.7 48.8,24.3 49.7,24 50.5,23.8 51.4,23.6 52.2,23.6" />
<path stroke="#000000" stroke-width="2" d="M 82.2,70" />
<path stroke="#000000" stroke-width="2" d="M 84.2,50 89.6,37.1 89.7,36.7 89.8,36.4 89.9,36.1 89.9,35.7 90,35.4 89.9,35 89.9,34.7 89.8,34.3 89.7,34 89.6,33.7 89.4,33.4 89.2,33.1 89,32.8 88.8,32.5 88.5,32.3 88.2,32.1 88,31.9 87.6,31.7 87.3,31.6 87,31.5 86.6,31.4 86.3,31.4 86,31.4 85.6,31.4 85.3,31.4 84.9,31.5 84.6,31.6 84.3,31.7 84,31.9 83.7,32.1 83.4,32.3 83.1,32.5 82.9,32.8 82.7,33.1 82.5,33.4 82.3,33.7 82.2,34 82.1,34.3 82,34.7 82,35 82,35.4 82,35.7 82,36.1 82.1,36.4 82.2,36.7 82.3,37.1 82.5,37.4 82.7,37.7 82.9,37.9 83.1,38.2 83.4,38.4 83.7,38.7 84,38.8 84.3,39 84.6,39.1 84.9,39.2 85.3,39.3 85.6,39.4 86,39.4 86.3,39.4 99.2,34 99.2,34.7 99.3,35.4 99.4,36.1 99.6,36.8 99.8,37.4 100.1,38 100.5,38.6 100.9,39.2 101.3,39.8 101.8,40.2 102.4,40.7 102.9,41.1 103.5,41.4 104.2,41.7 104.8,42 105.5,42.2 106.2,42.3 106.9,42.3 107.6,42.3 108.3,42.3 109,42.2 109.6,42 110.3,41.7 110.9,41.4 111.5,41.1 112.1,40.7 112.6,40.2 113.1,39.8 113.6,39.2 114,38.6 114.3,38 114.6,37.4 114.9,36.8 115,36.1 115.2,35.4 115.2,34.7" />
<path stroke="#000000" stroke-width="2" d="M 115.2,34.7 116.6,34.8 117.9,35.3 119,35.9 120,36.8 120.8,37.8 121.5,39 122,40.3 122.4,41.7 122.6,43.2 122.7,44.7 122.6,46.2 122.4,47.7 122,49.1 121.5,50.4 120.8,51.6 120,52.6 119,53.5 117.9,54.1 116.6,54.6 115.2,54.7 115.8,54.1 116.5,53.5 117.2,53 118,52.6 118.8,52.2 119.6,51.9 120.4,51.7 121.3,51.5 122.2,51.5 123,51.5 123.9,51.5 124.8,51.7 125.6,51.9 126.4,52.2 127.2,52.6" />
<path stroke="#000000" stroke-width="2" d="M 157.2,70" />
<path stroke="#000000" stroke-width="2" d="M 167.2,30 167.7,30 168.3,30 168.8,30.1 169.3,30.3 169.8,30.5 170.2,30.7 170.7,30.9 171.1,31.2 171.5,31.6 171.9,31.9 172.2,32.3 172.5,32.8 172.8,33.2 173,33.7 173.2,34.2 173.3,34.7 173.4,35.2 173.5,35.7 173.5,36.3 173.4,36.8 173.3,37.3 173.2,37.8 173,38.3 172.8,38.8 172.5,39.2 172.2,39.6 171.9,40 171.5,40.4 171.1,40.8 170.7,41.1 170.2,41.3 169.8,41.5 169.3,41.7 168.8,41.9 168.3,41.9 167.7,42 167.2,42 166.7,41.9 166.2,41.9 165.7,41.7 165.2,41.5 164.7,41.3 164.2,41.1 163.8,40.8 163.4,40.4 163,40 162.7,39.6 162.4,39.2 162.2,38.8 161.9,38.3 161.8,37.8 161.6,37.3 161.5,36.8 161.5,36.3 161.5,35.7 161.5,35.2 161.6,34.7 161.8,34.2 161.9,33.7 162.2,33.2 162.4,32.8 162.7,32.3 163,31.9 163.4,31.6 163.8,31.2 164.2,30.9 164.7,30.7 165.2,30.5 165.7,30.3 166.2,30.1 166.7,30 167.2,30 167.2,50 159.6,68.5 161.9,62.9 162.2,62.1 162.6,61.4 163.1,60.6 163.6,59.9 164.2,59.3 164.8,58.7 165.5,58.2 166.3,57.7 167,57.3 167.8,57 168.7,56.7 169.5,56.5" />
<path stroke="#000000" stroke-width="2" d="M 203.5,70" />
<path stroke="#000000" stroke-width="2" d="M 203.5,30 203.5,70 203.5,62 203.5,60.3 203.6,58.5 203.9,56.8 204.4,55.1 205,53.5 205.7,51.9 206.6,50.4 207.6,49 208.7,47.6 209.9,46.4 211.3,45.3 212.7,44.3" />
<path stroke="#000000" stroke-width="2" d="M 219.4,70" />
<path stroke="#000000" stroke-width="2" d="M 229.4,50 221.7,68.5" />
<path stroke="#000000" stroke-width="2" d="M 259.4,70" />
<path stroke="#000000" stroke-width="2" d="M 259.4,30 269.4,30 269.4,70" />
<path stroke="#000000" stroke-width="2" d="M 276,70" />
<path stroke="#000000" stroke-width="2" d="M 276,50 276,70 276,64 276,63.1 276.1,62.3 276.3,61.4 276.5,60.6 276.8,59.7 277.2,58.9 277.6,58.2 278.1,57.5 278.7,56.8 279.3,56.2 279.9,55.6 280.7,55.1 281.4,54.7 282.2,54.3 283,54 283.9,53.8 284.7,53.6 285.6,53.6 285.6,54.4 285.7,55.3 285.8,56.2 286,57 286.3,57.8 286.7,58.6 287.1,59.4 287.6,60.1 288.2,60.8 288.8,61.4 289.5,61.9 290.2,62.4 291,62.9 291.8,63.2 292.6,63.5 293.4,63.8 294.3,63.9 295.1,64 296,64 296.9,63.9 297.7,63.8 298.6,63.5 299.4,63.2 300.2,62.9 301,62.4 301.7,61.9 302.3,61.4 303,60.8 303.5,60.1 304,59.4 304.5,58.6 304.8,57.8 305.1,57 305.3,56.2 305.5,55.3 305.6,54.4 305.6,53.6 305.5,52.7 305.3,51.8 305.1,51 304.8,50.2 304.5,49.4 304,48.6 303.5,47.9 303,47.3 302.3,46.6 301.7,46.1 301,45.6 300.2,45.1 299.4,44.8 298.6,44.5 297.7,44.2 296.9,44.1 296,44 295.1,44 294.3,44.1 293.4,44.2 292.6,44.5 291.8,44.8 291,45.1 290.2,45.6 289.5,46.1 288.8,46.6 288.2,47.3 287.6,47.9 287.1,48.6 286.7,49.4 286.3,50.2 286,51 285.8,51.8 285.7,52.7 285.6,53.6" />
<path stroke="#000000" stroke-width="2" d="M 335.6,70" />
<path stroke="#000000" stroke-width="2" d="M 335.6,70" />
<path stroke="#000000" stroke-width="2" d="M 335.6,70 336.7,70 337.7,70.2 338.5,70.4 339.2,70.7 339.8,71 340.2,71.5 340.6,71.9 340.8,72.5 340.8,73.1 340.8,73.8 340.7,74.4 340.5,75.2 340.1,76 339.7,76.8 339.2,77.6 338.6,78.4 338,79.3 337.2,80.2 336.4,81.1 335.6,82" />
<path stroke="#000000" stroke-width="2" d="M 370.8,70" />
<path stroke="#000000" stroke-width="2" d="M 370.8,30 370.8,70" />
<path stroke="#000000" stroke-width="2" d="M 377.5,70" />
<path stroke="#000000" stroke-width="2" d="M 387.5,50 379.9,68.5" />
<path stroke="#000000" stroke-width="2" d="M 417.5,70" />
<path stroke="#000000" stroke-width="2" d="M 433.5,30 433.5,60" />
<path stroke="#000000" stroke-width="2" d="M 433.5,60 433.3,64.1 432.7,67.3 431.8,69.8 430.6,71.5 429.3,72.7 427.8,73.2 426.3,73.3 424.9,73 423.5,72.3 422.3,71.2 421.3,70 420.5,68.6 420.2,67.2 420.3,65.7 420.9,64.2 422,62.9 423.8,61.7 426.2,60.8 429.4,60.2 433.5,60" />
<path stroke="#000000" stroke-width="2" d="M 440.2,70" />
<path stroke="#000000" stroke-width="2" d="M 440.2,50 460.2,50 480.2,50" />
<path stroke="#000000" stroke-width="2" d="M 480.2,50 481.6,50.1 482.9,50.6 484,51.2 485,52.1 485.8,53.1 486.5,54.3 487,55.6 487.4,57 487.6,58.5 487.7,60 487.6,61.5 487.4,63 487,64.4 486.5,65.7 485.8,66.9 485,67.9 484,68.8 482.9,69.4 481.6,69.9 480.2,70" />
<path stroke="#000000" stroke-width="2" d="M 517.7,70" />
<path stroke="#000000" stroke-width="2" d="M 517.7,70" />
<path stroke="#000000" stroke-width="2" d="M 517.7,70 518.8,70 519.8,70.2 520.6,70.4 521.3,70.7 521.9,71 522.3,71.5 522.7,71.9 522.9,72.5 522.9,73.1 522.9,73.8 522.8,74.4 522.6,75.2 522.2,76 521.8,76.8 521.3,77.6 520.7,78.4 520.1,79.3 519.3,80.2 518.5,81.1 517.7,82" />
<path stroke="#000000" stroke-width="2" d="M 552.9,70" />
<path stroke="#000000" stroke-width="2" d="M 552.9,30 572.9,30" />
<path stroke="#000000" stroke-width="2" d="M 572.9,30 574.4,30.1 575.6,30.6 576.8,31.2 577.7,32.1 578.6,33.1 579.2,34.3 579.8,35.6 580.1,37 580.4,38.5 580.4,40 580.4,41.5 580.1,43 579.8,44.4 579.2,45.7 578.6,46.9 577.7,47.9 576.8,48.8 575.6,49.4 574.4,49.9 572.9,50" />
<path stroke="#000000" stroke-width="2" d="M 610.4,70" />
<path stroke="#000000" stroke-width="2" d="M 610.4,35" />
<path stroke="#000000" stroke-width="2" d="M 610.4,35 612.5,34.9 614.1,34.6 615.3,34.1 616.2,33.6 616.8,32.9 617.1,32.2 617.1,31.4 616.9,30.7 616.6,30 616.1,29.4 615.5,28.9 614.8,28.5 614,28.3 613.3,28.4 612.6,28.7 611.9,29.2 611.3,30.1 610.9,31.4 610.6,33 610.4,35 610.4,50 610.4,50.7 610.5,51.4 610.6,52.1 610.8,52.8 611,53.4 611.3,54 611.7,54.6 612.1,55.2 612.5,55.8 613,56.2 613.6,56.7 614.1,57.1 614.7,57.4 615.4,57.7 616,58 616.7,58.2 617.4,58.3 618.1,58.3 618.8,58.3 619.5,58.3 620.2,58.2 620.8,58 621.5,57.7 622.1,57.4 622.7,57.1 623.3,56.7 623.8,56.2 624.3,55.8 624.8,55.2 625.2,54.6 625.5,54 625.8,53.4 626.1,52.8 626.3,52.1 626.4,51.4 626.4,50.7" />
<path stroke="#000000" stroke-width="2" d="M 633.1,70" />
<path stroke="#000000" stroke-width="2" d="M 641.1,20" />
<path stroke="#000000" stroke-width="2" d="M 641.1,20 641,22 640.7,23.6 640.2,24.9 639.7,25.8 639,26.3 638.3,26.6 637.5,26.7 636.8,26.5 636.1,26.1 635.5,25.6 635,25 634.6,24.3 634.4,23.6 634.5,22.8 634.8,22.1 635.3,21.4 636.2,20.9 637.5,20.4 639.1,20.1 641.1,20 651.1,20 643.4,38.5" />
<path stroke="#000000" stroke-width="2" d="M 681.1,70" />
<path stroke="#000000" stroke-width="2" d="M 691.1,50 692,50 692.8,49.9 693.7,49.8 694.5,49.5 695.4,49.2 696.2,48.9 696.9,48.4 697.6,47.9 698.3,47.4 698.9,46.8 699.5,46.1 700,45.4 700.4,44.6 700.8,43.8 701.1,43 701.3,42.2 701.4,41.3 701.5,40.4 701.5,39.6 701.4,38.7 701.3,37.8 701.1,37 700.8,36.2 700.4,35.4 700,34.6 699.5,33.9 698.9,33.3 698.3,32.6 697.6,32.1 696.9,31.6 696.2,31.1 695.4,30.8 694.5,30.5 693.7,30.2 692.8,30.1 692,30 691.1,30 690.2,30.1 689.4,30.2 688.5,30.5 687.7,30.8 686.9,31.1 686.2,31.6 685.4,32.1 684.8,32.6 684.2,33.3 683.6,33.9 683.1,34.6 682.7,35.4 682.3,36.2 682,37 681.8,37.8 681.6,38.7 681.5,39.6 681.5,40.4 681.6,41.3 681.8,42.2 682,43 682.3,43.8 682.7,44.6 683.1,45.4 683.6,46.1 684.2,46.8 684.8,47.4 685.4,47.9 686.2,48.4 686.9,48.9 687.7,49.2 688.5,49.5 689.4,49.8 690.2,49.9 691.1,50 691.1,70 691.1,64 691.1,63.1 691.2,62.3 691.3,61.4 691.6,60.6 691.9,59.7 692.2,58.9 692.7,58.2 693.2,57.5 693.7,56.8 694.3,56.2 695,55.6 695.7,55.1 696.5,54.7 697.3,54.3 698.1,54 698.9,53.8 699.8,53.6 700.7,53.6" />
<path stroke="#000000" stroke-width="2" d="M 708.2,70" />
<path stroke="#000000" stroke-width="2" d="M 708.2,50 708.4,50 708.4,50.2 708.2,50.2 708.2,50" />
<path stroke="#000000" stroke-width="2" d="M 738.4,70" />
<path stroke="#000000" stroke-width="2" d="M 754.4,30 734.6,49.8 754.4,69.6" />
<path stroke="#000000" stroke-width="2" d="M 761.1,70" />
<path stroke="#000000" stroke-width="2" d="M 761.1,20 761.1,40 761.1,34 761.1,33.1 761.1,32.3 761.3,31.4 761.5,30.6 761.8,29.7 762.2,28.9 762.6,28.2 763.1,27.5 763.7,26.8 764.3,26.2 765,25.6 765.7,25.1 766.4,24.7 767.2,24.3 768,24 768.9,23.8 769.7,23.6 770.6,23.6" />
<path stroke="#000000" stroke-width="2" d="M 800.6,70" />
<path stroke="#000000" stroke-width="2" d="M 800.6,30 800.6,70" />
<path stroke="#000000" stroke-width="2" d="M 807.3,70" />
<path stroke="#000000" stroke-width="2" d="M 817.3,50 809.6,68.5" />
<path stroke="#000000" stroke-width="2" d="M 823.9,70" />
<path stroke="#000000" stroke-width="2" d="M 823.9,30 833.9,30 833.9,70" />
<path stroke="#000000" stroke-width="2" d="M 833.9,50" />
<path stroke="#000000" stroke-width="2" d="M 825.9,50 841.9,50" />
<path stroke="#000000" stroke-width="2" d="M 871.9,70" />
<path stroke="#000000" stroke-width="2" d="M 871.9,30 911.9,30" />
<path stroke="#000000" stroke-width="2" d="M 918.6,70" />
<path stroke="#000000" stroke-width="2" d="M 938.6,30 923.3,67" />
<path stroke="#000000" stroke-width="2" d="M 968.6,70" />
<path stroke="#000000" stroke-width="2" d="M 968.6,70 968.8,70 968.8,70.2 968.6,70.2 968.6,70" />
<path stroke="#000000" stroke-width="2" d="M 998.8,70" />
<path stroke="#000000" stroke-width="2" d="M 1003.8,30" />
<path stroke="#000000" stroke-width="2" d="M 1003.8,30 1002.4,30.1 1001.1,30.6 1000,31.2 999,32.1 998.2,33.1 997.5,34.3 997,35.6 996.6,37 996.4,38.5 996.3,40 996.4,41.5 996.6,43 997,44.4 997.5,45.7 998.2,46.9 999,47.9 1000,48.8 1001.1,49.4 1002.4,49.9 1003.8,50 1023.8,50" />
<path stroke="#000000" stroke-width="2" d="M 1053.8,70" />
<path stroke="#000000" stroke-width="2" d="M 1053.8,30 1063.8,30 1063.8,70" />
<path stroke="#000000" stroke-width="2" d="M 1070.5,70" />
<path stroke="#000000" stroke-width="2" d="M 1080.5,20 1072.8,38.5 1077.8,38.5 1077.8,58.5" />
<path stroke="#000000" stroke-width="2" d="M 1077.8,48.5" />
<path stroke="#000000" stroke-width="2" d="M 1073.8,48.5 1081.8,48.5" />
<path stroke="#000000" stroke-width="2" d="M 1111.8,70" />
</svg>