<svg xmlns="http://www.w3.org/2000/svg" width="1280.3408781498865" height="102.0" style="fill:none; stroke-linecap:round;">
    <rect width="100%" height="100%" fill="#FFFFFF" />
<path stroke="#000000" stroke-width="2" d="M 550,75" />
<path stroke="#000000" stroke-width="2" d="M 22,50 27.4,37.1 27.5,36.7 27.6,36.4 27.7,36.1 27.7,35.7 27.7,35.4 27.7,35 27.7,34.7 27.6,34.3 27.5,34 27.4,33.7 27.2,33.4 27,33.1 26.8,32.8 26.6,32.5 26.3,32.3 26,32.1 25.7,31.9 25.4,31.7 25.1,31.6 24.8,31.5 24.4,31.4 24.1,31.4 23.7,31.4 23.4,31.4 23,31.4 22.7,31.5 22.4,31.6 22,31.7 21.7,31.9 21.4,32.1 21.2,32.3 20.9,32.5 20.7,32.8 20.5,33.1 20.3,33.4 20.1,33.7 20,34 19.9,34.3 19.8,34.7 19.7,35 19.7,35.4 19.7,35.7 19.8,36.1 19.9,36.4 20,36.7 20.1,37.1 20.3,37.4 20.5,37.7 20.7,37.9 20.9,38.2 21.2,38.4 21.4,38.7 21.7,38.8 22,39 22.4,39.1 22.7,39.2 23,39.3 23.4,39.4 23.7,39.4 24.1,39.4 37,34 37,34.7 37.1,35.4 37.2,36.1 37.4,36.8 37.6,37.4 37.9,38 38.3,38.6 38.7,39.2 39.1,39.8 39.6,40.2 40.1,40.7 40.7,41.1 41.3,41.4 41.9,41.7 42.6,42 43.3,42.2 44,42.3 44.7,42.3 45.4,42.3 46.1,42.3 46.7,42.2 47.4,42 48.1,41.7 48.7,41.4 49.3,41.1 49.9,40.7 50.4,40.2 50.9,39.8 51.4,39.2 51.8,38.6 52.1,38 52.4,37.4 52.6,36.8 52.8,36.1 52.9,35.4 53,34.7" />
<path stroke="#000000" stroke-width="2" d="M 53,34.7 55,34.6 56.6,34.3 57.9,33.8 58.8,33.3 59.3,32.6 59.6,31.9 59.7,31.1 59.5,30.4 59.1,29.7 58.6,29.1 58,28.6 57.3,28.2 56.6,28 55.8,28.1 55.1,28.4 54.4,28.9 53.9,29.8 53.4,31.1 53.1,32.7 53,34.7 53,49.7" />
<path stroke="#000000" stroke-width="2" d="M 66.3,70" />
<path stroke="#000000" stroke-width="2" d="M 66.3,20 66.5,20 66.5,20.2 66.3,20.2 66.3,20" />
<path stroke="#000000" stroke-width="2" d="M 96.5,70" />
<path stroke="#000000" stroke-width="2" d="M 112.5,30 92.7,49.8 112.5,69.6" />
<path stroke="#000000" stroke-width="2" d="M 119.2,70" />
<path stroke="#000000" stroke-width="2" d="M 119.2,20 120.1,20 120.9,20.1 121.8,20.2 122.6,20.5 123.5,20.8 124.2,21.1 125,21.6 125.7,22.1 126.4,22.6 127,23.2 127.6,23.9 128.1,24.6 128.5,25.4 128.9,26.2 129.2,27 129.4,27.8 129.5,28.7 129.6,29.6 129.6,30.4 129.5,31.3 129.4,32.2 129.2,33 128.9,33.8 128.5,34.6 128.1,35.4 127.6,36.1 127,36.7 126.4,37.4 125.7,37.9 125,38.4 124.2,38.9 123.5,39.2 122.6,39.5 121.8,39.8 120.9,39.9 120.1,40" />
<path stroke="#000000" stroke-width="2" d="M 159.6,70" />
<path stroke="#000000" stroke-width="2" d="M 163.6,30 180.6,47" />
<path stroke="#000000" stroke-width="2" d="M 197.6,30 158,69.6 163.3,56.7 163.4,56.3 163.6,56 163.6,55.7 163.7,55.3 163.7,55 163.7,54.6 163.6,54.3 163.6,53.9 163.4,53.6 163.3,53.3 163.2,53 163,52.7 162.8,52.4 162.5,52.1 162.3,51.9 162,51.7 161.7,51.5 161.4,51.3 161.1,51.2 160.7,51.1 160.4,51 160,51 159.7,51 159.3,51 159,51 158.7,51.1 158.3,51.2 158,51.3 157.7,51.5 157.4,51.7 157.1,51.9 156.9,52.1 156.6,52.4 156.4,52.7 156.2,53 156.1,53.3 155.9,53.6 155.8,53.9 155.8,54.3 155.7,54.6 155.7,55 155.7,55.3 155.8,55.7 155.8,56 155.9,56.3 156.1,56.7 156.2,57 156.4,57.3 156.6,57.5 156.9,57.8 157.1,58 157.4,58.2 157.7,58.4 158,58.6 158.3,58.7 158.7,58.8 159,58.9 159.3,59 159.7,59 160,59 173,53.6 165.3,72.1" />
<path stroke="#000000" stroke-width="2" d="M 227.6,70" />
<path stroke="#000000" stroke-width="2" d="M 227.6,30 227.6,70" />
<path stroke="#000000" stroke-width="2" d="M 234.2,70" />
<path stroke="#000000" stroke-width="2" d="M 236.2,40 241.6,27.1 241.7,26.7 241.8,26.4 241.9,26.1 241.9,25.7 242,25.4 241.9,25 241.9,24.7 241.8,24.3 241.7,24 241.6,23.7 241.4,23.4 241.2,23.1 241,22.8 240.8,22.5 240.5,22.3 240.2,22.1 240,21.9 239.6,21.7 239.3,21.6 239,21.5 238.6,21.4 238.3,21.4 238,21.4 237.6,21.4 237.3,21.4 236.9,21.5 236.6,21.6 236.3,21.7 236,21.9 235.7,22.1 235.4,22.3 235.1,22.5 234.9,22.8 234.7,23.1 234.5,23.4 234.3,23.7 234.2,24 234.1,24.3 234,24.7 234,25 234,25.4 234,25.7 234,26.1 234.1,26.4 234.2,26.7 234.3,27.1 234.5,27.4 234.7,27.7 234.9,27.9 235.1,28.2 235.4,28.4 235.7,28.7 236,28.8 236.3,29 236.6,29.1 236.9,29.2 237.3,29.3 237.6,29.4 238,29.4 238.3,29.4 251.2,24 271.2,24" />
<path stroke="#000000" stroke-width="2" d="M 301.2,70" />
<path stroke="#000000" stroke-width="2" d="M 301.2,50 308.9,31.5 316.5,50 316.5,70 316.5,70.7 316.6,71.4 316.7,72.1 316.9,72.8 317.1,73.4 317.4,74 317.8,74.6 318.2,75.2 318.6,75.8 319.1,76.2 319.7,76.7 320.2,77.1 320.8,77.4 321.5,77.7 322.1,78 322.8,78.2 323.5,78.3 324.2,78.3 324.9,78.3 325.6,78.3 326.3,78.2 326.9,78 327.6,77.7 328.2,77.4 328.8,77.1 329.4,76.7 329.9,76.2 330.4,75.8 330.9,75.2 331.3,74.6 331.6,74 331.9,73.4 332.2,72.8 332.3,72.1 332.5,71.4 332.5,70.7" />
<path stroke="#000000" stroke-width="2" d="M 339.2,70" />
<path stroke="#000000" stroke-width="2" d="M 339.2,20 339.4,20 339.4,20.2 339.2,20.2 339.2,20" />
<path stroke="#000000" stroke-width="2" d="M 369.4,70" />
<path stroke="#000000" stroke-width="2" d="M 389.4,30 374.1,67" />
<path stroke="#000000" stroke-width="2" d="M 396.1,70" />
<path stroke="#000000" stroke-width="2" d="M 396.1,50 396.3,50 396.3,50.2 396.1,50.2 396.1,50" />
<path stroke="#000000" stroke-width="2" d="M 426.3,70" />
<path stroke="#000000" stroke-width="2" d="M 426.3,30 428,30 429.7,30.2 431.5,30.5 433.1,30.9 434.8,31.5 436.4,32.2 437.9,33.1 439.3,34.1 440.6,35.2 441.9,36.5 443,37.8 444,39.2 444.9,40.7 445.6,42.3 446.2,44 446.7,45.7 447,47.4 447.1,49.1 447.1,50.9 447,52.6 446.7,54.3 446.2,56 445.6,57.6 444.9,59.2 444,60.7 443,62.2 441.9,63.5 440.6,64.7 439.3,65.8 437.9,66.8 436.4,67.7 434.8,68.5 433.1,69.1 431.5,69.5 429.7,69.8 428,70" />
<path stroke="#000000" stroke-width="2" d="M 453.8,70" />
<path stroke="#000000" stroke-width="2" d="M 453.8,35" />
<path stroke="#000000" stroke-width="2" d="M 453.8,35 455.8,34.9 457.4,34.6 458.7,34.1 459.5,33.6 460.1,32.9 460.4,32.2 460.4,31.4 460.3,30.7 459.9,30 459.4,29.4 458.8,28.9 458.1,28.5 457.4,28.3 456.6,28.4 455.9,28.7 455.2,29.2 454.6,30.1 454.2,31.4 453.9,33 453.8,35 453.8,50 448.8,50 448.8,70" />
<path stroke="#000000" stroke-width="2" d="M 467.1,70" />
<path stroke="#000000" stroke-width="2" d="M 467.1,20 467.1,40 467.1,34 467.1,33.1 467.2,32.3 467.3,31.4 467.6,30.6 467.9,29.7 468.2,28.9 468.7,28.2 469.2,27.5 469.7,26.8 470.3,26.2 471,25.6 471.7,25.1 472.5,24.7 473.3,24.3 474.1,24 474.9,23.8 475.8,23.6 476.7,23.6 496.7,23.6" />
<path stroke="#000000" stroke-width="2" d="M 526.7,70" />
<path stroke="#000000" stroke-width="2" d="M 526.7,70" />
<path stroke="#000000" stroke-width="2" d="M 526.7,70 527.8,70 528.8,70.2 529.6,70.4 530.3,70.7 530.9,71 531.3,71.5 531.6,71.9 531.8,72.5 531.9,73.1 531.9,73.8 531.8,74.4 531.6,75.2 531.2,76 530.8,76.8 530.3,77.6 529.7,78.4 529.1,79.3 528.3,80.2 527.5,81.1 526.7,82" />
<path stroke="#000000" stroke-width="2" d="M 561.9,70" />
<path stroke="#000000" stroke-width="2" d="M 561.9,30 581.9,30 582.8,30 583.7,30.1 584.5,30.2 585.4,30.5 586.2,30.8 587,31.1 587.7,31.6 588.5,32.1 589.1,32.6 589.7,33.2 590.3,33.9 590.8,34.6 591.2,35.4 591.6,36.2 591.9,37 592.1,37.8 592.3,38.7 592.4,39.6 592.4,40.4 592.3,41.3 592.1,42.2 591.9,43 591.6,43.8 591.2,44.6 590.8,45.4 590.3,46.1 589.7,46.7 589.1,47.4 588.5,47.9 587.7,48.4 587,48.9 586.2,49.2 585.4,49.5 584.5,49.8 583.7,49.9 582.8,50" />
<path stroke="#000000" stroke-width="2" d="M 622.4,70" />
<path stroke="#000000" stroke-width="2" d="M 622.4,30 622.4,50 628,44.3 618.1,54.2 628,64.1" />
<path stroke="#000000" stroke-width="2" d="M 634.7,70" />
<path stroke="#000000" stroke-width="2" d="M 634.7,50 634.9,50 634.9,50.2 634.7,50.2 634.7,50" />
<path stroke="#000000" stroke-width="2" d="M 664.9,70" />
<path stroke="#000000" stroke-width="2" d="M 664.9,50 672.5,31.5 680.2,50" />
<path stroke="#000000" stroke-width="2" d="M 680.2,50 682.2,49.9 683.8,49.6 685.1,49.1 685.9,48.6 686.5,47.9 686.8,47.2 686.8,46.4 686.7,45.7 686.3,45 685.8,44.4 685.2,43.9 684.5,43.5 683.8,43.3 683,43.4 682.3,43.7 681.6,44.2 681,45.1 680.6,46.4 680.3,48 680.2,50 680.2,65" />
<path stroke="#000000" stroke-width="2" d="M 716.8,70" />
<path stroke="#000000" stroke-width="2" d="M 720.8,30 737.8,47" />
<path stroke="#000000" stroke-width="2" d="M 754.8,30 715.2,69.6 720.5,56.7 720.7,56.3 720.8,56 720.9,55.7 720.9,55.3 720.9,55 720.9,54.6 720.9,54.3 720.8,53.9 720.7,53.6 720.5,53.3 720.4,53 720.2,52.7 720,52.4 719.7,52.1 719.5,51.9 719.2,51.7 718.9,51.5 718.6,51.3 718.3,51.2 718,51.1 717.6,51 717.3,51 716.9,51 716.6,51 716.2,51 715.9,51.1 715.5,51.2 715.2,51.3 714.9,51.5 714.6,51.7 714.3,51.9 714.1,52.1 713.9,52.4 713.6,52.7 713.5,53 713.3,53.3 713.2,53.6 713.1,53.9 713,54.3 712.9,54.6 712.9,55 712.9,55.3 713,55.7 713.1,56 713.2,56.3 713.3,56.7 713.5,57 713.6,57.3 713.9,57.5 714.1,57.8 714.3,58 714.6,58.2 714.9,58.4 715.2,58.6 715.5,58.7 715.9,58.8 716.2,58.9 716.6,59 716.9,59 717.3,59 730.2,53.6 722.5,72.1" />
<path stroke="#000000" stroke-width="2" d="M 784.8,70" />
<path stroke="#000000" stroke-width="2" d="M 784.8,30 784.8,70 796.1,58.7" />
<path stroke="#000000" stroke-width="2" d="M 802.8,70" />
<path stroke="#000000" stroke-width="2" d="M 802.8,25" />
<path stroke="#000000" stroke-width="2" d="M 802.8,25 804.8,24.9 806.4,24.6 807.6,24.1 808.5,23.6 809.1,22.9 809.4,22.2 809.4,21.4 809.2,20.7 808.9,20 808.4,19.4 807.8,18.9 807.1,18.5 806.3,18.3 805.6,18.4 804.9,18.7 804.2,19.2 803.6,20.1 803.2,21.4 802.9,23 802.8,25 802.8,40" />
<path stroke="#000000" stroke-width="2" d="M 839.4,70" />
<path stroke="#000000" stroke-width="2" d="M 839.4,30 843.2,39.2" />
<path stroke="#000000" stroke-width="2" d="M 843.2,39.2 845.2,41.4 846.5,43.3 847.3,45 847.6,46.4 847.5,47.7 847,48.7 846.3,49.5 845.4,50 844.4,50.4 843.2,50.5 842.1,50.4 841.1,50 840.2,49.5 839.5,48.7 839,47.7 838.9,46.4 839.2,45 840,43.3 841.3,41.4 843.2,39.2 847.1,30 867.1,30" />
<path stroke="#000000" stroke-width="2" d="M 873.7,70" />
<path stroke="#000000" stroke-width="2" d="M 873.7,20 873.7,40 873.7,40.7 873.8,41.4 873.9,42.1 874.1,42.8 874.3,43.4 874.6,44 875,44.6 875.4,45.2 875.8,45.8 876.3,46.2 876.9,46.7 877.4,47.1 878,47.4 878.7,47.7 879.3,48 880,48.2 880.7,48.3 881.4,48.3 882.1,48.3 882.8,48.3 883.5,48.2 884.1,48 884.8,47.7 885.4,47.4 886,47.1 886.6,46.7 887.1,46.2 887.6,45.8 888.1,45.2 888.5,44.6 888.8,44 889.1,43.4 889.4,42.8 889.5,42.1 889.7,41.4 889.7,40.7" />
<path stroke="#000000" stroke-width="2" d="M 896.4,70" />
<path stroke="#000000" stroke-width="2" d="M 896.4,20 896.6,20 896.6,20.2 896.4,20.2 896.4,20" />
<path stroke="#000000" stroke-width="2" d="M 926.6,70" />
<path stroke="#000000" stroke-width="2" d="M 946.6,30 931.3,67" />
<path stroke="#000000" stroke-width="2" d="M 953.3,70" />
<path stroke="#000000" stroke-width="2" d="M 953.3,50 953.5,50 953.5,50.2 953.3,50.2 953.3,50" />
<path stroke="#000000" stroke-width="2" d="M 983.5,70" />
<path stroke="#000000" stroke-width="2" d="M 983.5,30 983.5,70 983.5,58 983.5,56.3 983.6,54.5 983.9,52.8 984.4,51.1 985,49.5 985.7,47.9 986.6,46.4 987.6,45 988.7,43.6 989.9,42.4 991.3,41.3 992.7,40.3 994.2,39.4 995.8,38.7 997.4,38.1 999.1,37.6 1000.8,37.3 1002.6,37.1" />
<path stroke="#000000" stroke-width="2" d="M 1009.2,70" />
<path stroke="#000000" stroke-width="2" d="M 1019.2,20 1011.6,38.5" />
<path stroke="#000000" stroke-width="2" d="M 1025.9,70" />
<path stroke="#000000" stroke-width="2" d="M 1025.9,50 1025.9,70 1025.9,64 1025.9,63.1 1026,62.3 1026.1,61.4 1026.4,60.6 1026.6,59.7 1027,58.9 1027.5,58.2 1028,57.5 1028.5,56.8 1029.1,56.2 1029.8,55.6 1030.5,55.1 1031.3,54.7 1032.1,54.3 1032.9,54 1033.7,53.8 1034.6,53.6 1035.5,53.6 1055.5,53.6" />
<path stroke="#000000" stroke-width="2" d="M 1085.5,70" />
<path stroke="#000000" stroke-width="2" d="M 1101.5,30 1081.7,49.8 1101.5,69.6" />
<path stroke="#000000" stroke-width="2" d="M 1108.1,70" />
<path stroke="#000000" stroke-width="2" d="M 1108.1,50 1115.8,68.5" />
<path stroke="#000000" stroke-width="2" d="M 1122.4,70" />
<path stroke="#000000" stroke-width="2" d="M 1122.4,20 1122.6,20 1122.6,20.2 1122.4,20.2 1122.4,20" />
<path stroke="#000000" stroke-width="2" d="M 1152.6,70" />
<path stroke="#000000" stroke-width="2" d="M 1152.6,70 1152.8,70 1152.8,70.2 1152.6,70.2 1152.6,70" />
<path stroke="#000000" stroke-width="2" d="M 1182.8,70" />
<path stroke="#000000" stroke-width="2" d="M 1198.8,30 1179,49.8 1198.8,69.6" />
<path stroke="#000000" stroke-width="2" d="M 1205.5,70" />
<path stroke="#000000" stroke-width="2" d="M 1205.5,20 1205.7,20 1205.7,20.2 1205.5,20.2 1205.5,20" />
<path stroke="#000000" stroke-width="2" d="M 1235.7,70" />
<path stroke="#000000" stroke-width="2" d="M 1235.7,30 1235.7,70 1247,58.7" />
<path stroke="#000000" stroke-width="2" d="M 1253.7,70" />
<path stroke="#000000" stroke-width="2" d="M 1253.7,25" />
<path stroke="#000000" stroke-width="2" d="M 1253.7,25 1255.7,24.9 1257.3,24.6 1258.6,24.1 1259.4,23.6 1260,22.9 1260.3,22.2 1260.3,21.4 1260.2,20.7 1259.8,20 1259.3,19.4 1258.7,18.9 1258,18.5 1257.3,18.3 1256.5,18.4 1255.8,18.7 1255.1,19.2 1254.5,20.1 1254.1,21.4 1253.8,23 1253.7,25 1253.7,40" />
<path stroke="#000000" stroke-width="2" d="M 1290.3,70" />
</svg>