<svg xmlns="http://www.w3.org/2000/svg" width="1322.849620175942" height="109.28305423379179" style="fill:none; stroke-linecap:round;">
    <rect width="100%" height="100%" fill="#FFFFFF" />
<path stroke="#000000" stroke-width="2" d="M 550,75" />
<path stroke="#000000" stroke-width="2" d="M 40,30 24.7,67" />
<path stroke="#000000" stroke-width="2" d="M 46.7,70" />
<path stroke="#000000" stroke-width="2" d="M 46.7,50 46.7,70" />
<path stroke="#000000" stroke-width="2" d="M 53.3,70" />
<path stroke="#000000" stroke-width="2" d="M 53.3,20 53.5,20 53.5,20.2 53.3,20.2 53.3,20" />
<path stroke="#000000" stroke-width="2" d="M 83.5,70" />
<path stroke="#000000" stroke-width="2" d="M 83.5,40 83.7,40 83.7,40.2 83.5,40.2 83.5,40" />
<path stroke="#000000" stroke-width="2" d="M 90.4,70" />
<path stroke="#000000" stroke-width="2" d="M 90.4,30 92.1,30 93.9,30.2 95.6,30.5 97.3,30.9 98.9,31.5 100.5,32.2 102,33.1 103.4,34.1 104.8,35.2 106,36.5 107.1,37.8 108.1,39.2 109,40.7 109.7,42.3 110.3,44 110.8,45.7 111.1,47.4 111.3,49.1 111.3,50.9 111.1,52.6 110.8,54.3 110.3,56 109.7,57.6 109,59.2 108.1,60.7 107.1,62.2 106,63.5 104.8,64.7 103.4,65.8 102,66.8 100.5,67.7 98.9,68.5 97.3,69.1 95.6,69.5 93.9,69.8 92.1,70 92.1,68.2 92.3,66.5 92.6,64.8 93.1,63.1 93.6,61.4 94.4,59.9 95.3,58.3 96.3,56.9 97.4,55.6 98.6,54.3 100,53.2 101.4,52.2 102.9,51.3 104.5,50.6 106.1,50 107.8,49.6 109.5,49.3 111.3,49.1" />
<path stroke="#000000" stroke-width="2" d="M 117.9,70" />
<path stroke="#000000" stroke-width="2" d="M 117.9,20 125.6,38.5" />
<path stroke="#000000" stroke-width="2" d="M 155.6,70" />
<path stroke="#000000" stroke-width="2" d="M 165.6,30 164.7,30 163.8,30.1 163,30.2 162.1,30.5 161.3,30.8 160.5,31.1 159.8,31.6 159,32.1 158.4,32.6 157.8,33.2 157.2,33.9 156.7,34.6 156.3,35.4 155.9,36.2 155.6,37 155.4,37.8 155.2,38.7 155.1,39.6 155.1,40.4 155.2,41.3 155.4,42.2 155.6,43 155.9,43.8 156.3,44.6 156.7,45.4 157.2,46.1 157.8,46.7 158.4,47.4 159,47.9 159.8,48.4 160.5,48.9 161.3,49.2 162.1,49.5 163,49.8 163.8,49.9 164.7,50 164.7,70 164.7,64 164.7,63.1 164.8,62.2 164.9,61.4 165.2,60.5 165.5,59.7 165.8,58.9 166.3,58.2 166.8,57.5 167.3,56.8 167.9,56.2 168.6,55.6 169.3,55.1 170.1,54.7 170.9,54.3 171.7,54 172.5,53.8 173.4,53.6 174.3,53.6" />
<path stroke="#000000" stroke-width="2" d="M 204.3,70" />
<path stroke="#000000" stroke-width="2" d="M 204.3,40" />
<path stroke="#000000" stroke-width="2" d="M 204.3,40 208.3,39.8 211.5,39.2 214,38.3 215.8,37.1 216.9,35.8 217.5,34.3 217.6,32.8 217.2,31.4 216.5,30 215.5,28.8 214.3,27.7 212.9,27 211.4,26.7 209.9,26.8 208.5,27.3 207.1,28.5 206,30.2 205.1,32.7 204.5,35.9 204.3,40 204.3,70" />
<path stroke="#000000" stroke-width="2" d="M 224.2,70" />
<path stroke="#000000" stroke-width="2" d="M 224.2,50 231.9,68.5" />
<path stroke="#000000" stroke-width="2" d="M 261.9,70" />
<path stroke="#000000" stroke-width="2" d="M 261.9,30 271.9,30 271.9,70" />
<path stroke="#000000" stroke-width="2" d="M 278.6,70" />
<path stroke="#000000" stroke-width="2" d="M 278.6,70 278.6,69.3 278.6,68.6 278.7,67.9 278.9,67.2 279.2,66.6 279.4,66 279.8,65.4 280.2,64.8 280.6,64.2 281.1,63.8 281.7,63.3 282.2,62.9 282.8,62.6 283.5,62.3 284.1,62 284.8,61.8 285.5,61.7 286.2,61.7 286.9,61.7 287.6,61.7 288.3,61.8 288.9,62 289.6,62.3 290.2,62.6 290.8,62.9 291.4,63.3 291.9,63.8 292.4,64.2 292.9,64.8 293.3,65.4 293.6,66 293.9,66.6 294.2,67.2 294.4,67.9 294.5,68.6 294.5,69.3 295.4,69.3 296.3,69.4 297.1,69.5 298,69.8 298.8,70.1 299.6,70.4 300.3,70.9 301.1,71.4 301.7,71.9 302.3,72.5 302.9,73.2 303.4,73.9 303.8,74.7 304.2,75.5 304.5,76.3 304.7,77.1 304.9,78 305,78.9 305,79.7 304.9,80.6 304.7,81.5 304.5,82.3 304.2,83.1 303.8,83.9 303.4,84.7 302.9,85.4 302.3,86 301.7,86.7 301.1,87.2 300.3,87.7 299.6,88.2 298.8,88.5 298,88.8 297.1,89.1 296.3,89.2 295.4,89.3" />
<path stroke="#000000" stroke-width="2" d="M 335,70" />
<path stroke="#000000" stroke-width="2" d="M 335,30" />
<path stroke="#000000" stroke-width="2" d="M 335,30 335.1,30 335.5,30 336.2,30 337,30.1 338.1,30.2 339.3,30.3 340.6,30.4 342,30.6 343.5,30.9 345,31.2 346.5,31.7 347.9,32.2 349.3,32.7 350.6,33.4 351.8,34.2 352.9,35.1 353.7,36.1 354.4,37.3 354.8,38.6 355,40" />
<path stroke="#000000" stroke-width="2" d="M 355,40 356.9,42.1 358.2,44.1 359,45.7 359.3,47.2 359.2,48.4 358.7,49.4 358,50.2 357.1,50.8 356.1,51.1 355,51.2 353.8,51.1 352.8,50.8 351.9,50.2 351.2,49.5 350.7,48.4 350.6,47.2 350.9,45.7 351.7,44.1 353,42.1 355,40" />
<path stroke="#000000" stroke-width="2" d="M 355,40 355,39.9 355,39.7 355,39.4 355.1,39 355.3,38.4 355.5,37.8 355.8,37.2 356.2,36.5 356.8,35.7 357.5,35 358.3,34.3 359.3,33.5 360.5,32.8 361.8,32.2 363.4,31.6 365.2,31 367.2,30.6 369.5,30.3 372.1,30.1 375,30" />
<path stroke="#000000" stroke-width="2" d="M 375,30 374.9,32 374.6,33.6 374.1,34.9 373.5,35.8 372.9,36.3 372.1,36.6 371.4,36.7 370.6,36.5 370,36.1 369.3,35.6 368.8,35 368.5,34.3 368.3,33.6 368.3,32.8 368.6,32.1 369.2,31.4 370.1,30.9 371.3,30.4 372.9,30.1 375,30 385,30" />
<path stroke="#000000" stroke-width="2" d="M 415,70" />
<path stroke="#000000" stroke-width="2" d="M 431,30 411.2,49.8 431,69.6" />
<path stroke="#000000" stroke-width="2" d="M 437.6,70" />
<path stroke="#000000" stroke-width="2" d="M 437.6,20 437.6,20.7 437.7,21.4 437.8,22.1 438,22.8 438.2,23.4 438.5,24 438.9,24.6 439.3,25.2 439.7,25.8 440.2,26.2 440.8,26.7 441.3,27.1 441.9,27.4 442.6,27.7 443.2,28 443.9,28.2 444.6,28.3 445.3,28.3 446,28.3 446.7,28.3 447.4,28.2 448,28 448.7,27.7 449.3,27.4 449.9,27.1 450.5,26.7 451,26.2 451.5,25.8 452,25.2 452.4,24.6 452.7,24 453,23.4 453.3,22.8 453.4,22.1 453.6,21.4 453.6,20.7" />
<path stroke="#000000" stroke-width="2" d="M 460.3,70" />
<path stroke="#000000" stroke-width="2" d="M 460.3,55" />
<path stroke="#000000" stroke-width="2" d="M 460.3,55 462.3,54.9 463.9,54.6 465.2,54.1 466,53.6 466.6,52.9 466.9,52.2 466.9,51.4 466.8,50.7 466.4,50 465.9,49.4 465.3,48.9 464.6,48.5 463.9,48.3 463.1,48.4 462.4,48.7 461.7,49.2 461.1,50.1 460.7,51.4 460.4,53 460.3,55 460.3,70" />
<path stroke="#000000" stroke-width="2" d="M 473.6,70" />
<path stroke="#000000" stroke-width="2" d="M 473.6,30 513.6,30" />
<path stroke="#000000" stroke-width="2" d="M 520.3,70" />
<path stroke="#000000" stroke-width="2" d="M 528.3,20 528.3,35" />
<path stroke="#000000" stroke-width="2" d="M 528.3,35 528.2,37 527.9,38.6 527.4,39.9 526.8,40.8 526.2,41.3 525.4,41.6 524.7,41.7 523.9,41.5 523.3,41.1 522.6,40.6 522.1,40 521.8,39.3 521.6,38.6 521.7,37.8 521.9,37.1 522.5,36.4 523.4,35.9 524.6,35.4 526.2,35.1 528.3,35 548.3,35" />
<path stroke="#000000" stroke-width="2" d="M 578.3,70" />
<path stroke="#000000" stroke-width="2" d="M 578.3,70 578.5,70 578.5,70.2 578.3,70.2 578.3,70" />
<path stroke="#000000" stroke-width="2" d="M 608.5,70" />
<path stroke="#000000" stroke-width="2" d="M 608.5,30 608.5,50 618.5,50 610.8,68.5" />
<path stroke="#000000" stroke-width="2" d="M 610.8,68.5 612.8,68.4 614.5,68.1 615.7,67.6 616.6,67 617.1,66.4 617.4,65.6 617.5,64.9 617.3,64.2 616.9,63.5 616.4,62.9 615.8,62.4 615.1,62 614.4,61.8 613.6,61.9 612.9,62.1 612.3,62.7 611.7,63.6 611.2,64.8 610.9,66.4 610.8,68.5 610.8,83.5" />
<path stroke="#000000" stroke-width="2" d="M 648.5,70" />
<path stroke="#000000" stroke-width="2" d="M 648.5,30 648.5,70 659.8,58.7" />
<path stroke="#000000" stroke-width="2" d="M 666.4,70" />
<path stroke="#000000" stroke-width="2" d="M 676.4,20 668.8,38.5" />
<path stroke="#000000" stroke-width="2" d="M 706.4,70" />
<path stroke="#000000" stroke-width="2" d="M 706.4,30 706.4,31.4 706.6,32.8 706.8,34.2 707.2,35.5 707.7,36.8 708.2,38.1 708.9,39.3 709.7,40.4 710.6,41.5 711.6,42.5 712.7,43.4 713.8,44.2 715,44.9 716.3,45.5 717.6,46 719,46.3 720.3,46.6 721.7,46.7 723.1,46.7 724.5,46.6 725.9,46.3 727.2,46 728.6,45.5 729.8,44.9 731,44.2 732.2,43.4 733.2,42.5 734.2,41.5 735.1,40.4 735.9,39.3 736.6,38.1 737.2,36.8 737.7,35.5 738.1,34.2 738.3,32.8 738.4,31.4" />
<path stroke="#000000" stroke-width="2" d="M 745.1,70" />
<path stroke="#000000" stroke-width="2" d="M 745.1,20 746,20 746.8,20.1 747.7,20.2 748.5,20.5 749.3,20.8 750.1,21.1 750.9,21.6 751.6,22.1 752.3,22.6 752.9,23.2 753.5,23.9 754,24.6 754.4,25.4 754.8,26.2 755.1,27 755.3,27.8 755.4,28.7 755.5,29.6 755.5,30.4 755.4,31.3 755.3,32.2 755.1,33 754.8,33.8 754.4,34.6 754,35.4 753.5,36.1 752.9,36.7 752.3,37.4 751.6,37.9 750.9,38.4 750.1,38.9 749.3,39.2 748.5,39.5 747.7,39.8 746.8,39.9 746,40" />
<path stroke="#000000" stroke-width="2" d="M 746,40 748,39.9 749.6,39.6 750.8,39.1 751.7,38.5 752.3,37.9 752.6,37.1 752.6,36.4 752.4,35.7 752.1,35 751.6,34.4 751,33.9 750.3,33.5 749.5,33.3 748.8,33.4 748.1,33.7 747.4,34.2 746.8,35.1 746.4,36.3 746.1,38 746,40 746,55" />
<path stroke="#000000" stroke-width="2" d="M 785.5,70" />
<path stroke="#000000" stroke-width="2" d="M 785.5,30 800.8,67" />
<path stroke="#000000" stroke-width="2" d="M 807.5,70" />
<path stroke="#000000" stroke-width="2" d="M 817.5,20 809.8,38.5" />
<path stroke="#000000" stroke-width="2" d="M 824.2,70" />
<path stroke="#000000" stroke-width="2" d="M 824.2,50 824.2,70" />
<path stroke="#000000" stroke-width="2" d="M 830.8,70" />
<path stroke="#000000" stroke-width="2" d="M 830.8,20 830.8,20.7 830.9,21.4 831,22.1 831.2,22.8 831.4,23.4 831.7,24 832.1,24.6 832.5,25.2 832.9,25.8 833.4,26.2 833.9,26.7 834.5,27.1 835.1,27.4 835.8,27.7 836.4,28 837.1,28.2 837.8,28.3 838.5,28.3 839.2,28.3 839.9,28.3 840.5,28.2 841.2,28 841.9,27.7 842.5,27.4 843.1,27.1 843.7,26.7 844.2,26.2 844.7,25.8 845.2,25.2 845.6,24.6 845.9,24 846.2,23.4 846.4,22.8 846.6,22.1 846.7,21.4 846.8,20.7" />
<path stroke="#000000" stroke-width="2" d="M 853.5,70" />
<path stroke="#000000" stroke-width="2" d="M 853.5,30 868.8,67 884.1,30" />
<path stroke="#000000" stroke-width="2" d="M 914.1,70" />
<path stroke="#000000" stroke-width="2" d="M 914.1,70 914.3,70 914.3,70.2 914.1,70.2 914.1,70" />
<path stroke="#000000" stroke-width="2" d="M 921,70" />
<path stroke="#000000" stroke-width="2" d="M 937,30 917.2,49.8 937,69.6" />
<path stroke="#000000" stroke-width="2" d="M 943.6,70" />
<path stroke="#000000" stroke-width="2" d="M 943.6,50 943.6,50.7 943.7,51.4 943.8,52.1 944,52.8 944.2,53.4 944.5,54 944.9,54.6 945.3,55.2 945.7,55.8 946.2,56.2 946.7,56.7 947.3,57.1 947.9,57.4 948.5,57.7 949.2,58 949.9,58.2 950.6,58.3 951.3,58.3 952,58.3 952.7,58.3 953.3,58.2 954,58 954.7,57.7 955.3,57.4 955.9,57.1 956.5,56.7 957,56.2 957.5,55.8 958,55.2 958.4,54.6 958.7,54 959,53.4 959.2,52.8 959.4,52.1 959.5,51.4 959.6,50.7" />
<path stroke="#000000" stroke-width="2" d="M 989.6,70" />
<path stroke="#000000" stroke-width="2" d="M 1013.6,42" />
<path stroke="#000000" stroke-width="2" d="M 1013.6,42 1009.5,41.8 1006.3,41.2 1003.8,40.3 1002.1,39.1 1000.9,37.8 1000.4,36.3 1000.3,34.8 1000.6,33.4 1001.4,32 1002.4,30.8 1003.6,29.7 1005,29 1006.4,28.7 1007.9,28.8 1009.4,29.3 1010.7,30.5 1011.9,32.2 1012.8,34.7 1013.4,37.9 1013.6,42 1013.6,50" />
<path stroke="#000000" stroke-width="2" d="M 1013.6,50 1013,51.7 1012.3,53.4 1011.5,54.9 1010.8,56.3 1009.9,57.6 1009,58.7 1008.1,59.8 1007.1,60.8 1006.1,61.7 1005.1,62.5 1004,63.2 1002.9,63.8 1001.8,64.4 1000.7,64.8 999.5,65.2 998.4,65.5 997.2,65.7 996,65.9 994.8,66 993.6,66" />
<path stroke="#000000" stroke-width="2" d="M 1043.6,70" />
<path stroke="#000000" stroke-width="2" d="M 1043.6,30 1043.6,70 1054.9,58.7" />
<path stroke="#000000" stroke-width="2" d="M 1061.6,70" />
<path stroke="#000000" stroke-width="2" d="M 1061.6,25" />
<path stroke="#000000" stroke-width="2" d="M 1061.6,25 1063.6,24.9 1065.2,24.6 1066.5,24.1 1067.3,23.6 1067.9,22.9 1068.2,22.2 1068.2,21.4 1068.1,20.7 1067.7,20 1067.2,19.4 1066.6,18.9 1065.9,18.5 1065.2,18.3 1064.4,18.4 1063.7,18.7 1063,19.2 1062.4,20.1 1062,21.4 1061.7,23 1061.6,25 1061.6,40" />
<path stroke="#000000" stroke-width="2" d="M 1098.2,70" />
<path stroke="#000000" stroke-width="2" d="M 1098.2,30 1138.2,30" />
<path stroke="#000000" stroke-width="2" d="M 1168.2,70" />
<path stroke="#000000" stroke-width="2" d="M 1168.2,30 1178.2,30 1178.2,70" />
<path stroke="#000000" stroke-width="2" d="M 1184.9,70" />
<path stroke="#000000" stroke-width="2" d="M 1184.9,40 1184.9,39.3 1185,38.6 1185.1,37.9 1185.3,37.2 1185.5,36.6 1185.8,36 1186.2,35.4 1186.6,34.8 1187,34.2 1187.5,33.8 1188,33.3 1188.6,32.9 1189.2,32.6 1189.8,32.3 1190.5,32 1191.2,31.8 1191.9,31.7 1192.5,31.7 1193.2,31.7 1193.9,31.7 1194.6,31.8 1195.3,32 1196,32.3 1196.6,32.6 1197.2,32.9 1197.8,33.3 1198.3,33.8 1198.8,34.2 1199.2,34.8 1199.6,35.4 1200,36 1200.3,36.6 1200.5,37.2 1200.7,37.9 1200.8,38.6 1200.9,39.3 1193.2,57.8" />
<path stroke="#000000" stroke-width="2" d="M 1230.9,70" />
<path stroke="#000000" stroke-width="2" d="M 1230.9,30 1230.9,70 1230.9,58 1230.9,56.3 1231,54.5 1231.3,52.8 1231.8,51.1 1232.4,49.5 1233.1,47.9 1234,46.4 1235,45 1236.1,43.6 1237.4,42.4 1238.7,41.3 1240.1,40.3 1241.6,39.4 1243.2,38.7 1244.9,38.1 1246.5,37.6 1248.3,37.3 1250,37.1" />
<path stroke="#000000" stroke-width="2" d="M 1256.7,70" />
<path stroke="#000000" stroke-width="2" d="M 1256.7,20 1256.7,20.7 1256.7,21.4 1256.8,22.1 1257,22.8 1257.3,23.4 1257.6,24 1257.9,24.6 1258.3,25.2 1258.8,25.8 1259.3,26.2 1259.8,26.7 1260.4,27.1 1261,27.4 1261.6,27.7 1262.3,28 1262.9,28.2 1263.6,28.3 1264.3,28.3 1265,28.3 1265.7,28.3 1266.4,28.2 1267.1,28 1267.7,27.7 1268.4,27.4 1269,27.1 1269.5,26.7 1270.1,26.2 1270.6,25.8 1271,25.2 1271.4,24.6 1271.8,24 1272,23.4 1272.3,22.8 1272.5,22.1 1272.6,21.4 1272.6,20.7" />
<path stroke="#000000" stroke-width="2" d="M 1302.6,70" />
<path stroke="#000000" stroke-width="2" d="M 1302.6,70 1302.8,70 1302.8,70.2 1302.6,70.2 1302.6,70" />
<path stroke="#000000" stroke-width="2" d="M 1332.8,70" />
</svg>