<svg xmlns="http://www.w3.org/2000/svg" width="1165.9539406282897" height="93.30875" style="fill:none; stroke-linecap:round;">
    <rect width="100%" height="100%" fill="#FFFFFF" />
<path stroke="#000000" stroke-width="2" d="M 550,75" />
<path stroke="#000000" stroke-width="2" d="M 20,70 20.2,70 20.2,70.2 20,70.2 20,70" />
<path stroke="#000000" stroke-width="2" d="M 26.9,70" />
<path stroke="#000000" stroke-width="2" d="M 26.9,70 26.9,68.6 27,67.2 27.2,65.8 27.6,64.5 28.1,63.2 28.7,61.9 29.4,60.7 30.2,59.6 31.1,58.5 32,57.5 33.1,56.6 34.3,55.8 35.5,55.1 36.7,54.5 38,54 39.4,53.7 40.8,53.4 42.2,53.3 43.5,53.3 44.9,53.4 46.3,53.7 47.7,54 49,54.5 50.2,55.1 51.4,55.8 52.6,56.6 53.7,57.5 54.6,58.5 55.5,59.6 56.3,60.7 57,61.9 57.6,63.2 58.1,64.5 58.5,65.8 58.7,67.2 58.8,68.6" />
<path stroke="#000000" stroke-width="2" d="M 65.5,70" />
<path stroke="#000000" stroke-width="2" d="M 73.5,50" />
<path stroke="#000000" stroke-width="2" d="M 73.5,50 73.4,52 73.1,53.6 72.6,54.9 72.1,55.8 71.4,56.3 70.7,56.6 69.9,56.7 69.2,56.5 68.5,56.1 67.9,55.6 67.4,55 67,54.3 66.8,53.6 66.9,52.8 67.2,52.1 67.7,51.4 68.6,50.9 69.9,50.4 71.5,50.1 73.5,50 83.5,50" />
<path stroke="#000000" stroke-width="2" d="M 90.2,70" />
<path stroke="#000000" stroke-width="2" d="M 90.2,30 90.4,30 90.4,30.2 90.2,30.2 90.2,30" />
<path stroke="#000000" stroke-width="2" d="M 120.4,70" />
<path stroke="#000000" stroke-width="2" d="M 130.4,30 129.5,30 128.6,30.1 127.8,30.2 126.9,30.5 126.1,30.8 125.3,31.1 124.6,31.6 123.8,32.1 123.2,32.6 122.6,33.2 122,33.9 121.5,34.6 121.1,35.4 120.7,36.2 120.4,37 120.2,37.8 120,38.7 119.9,39.6 119.9,40.4 120,41.3 120.2,42.2 120.4,43 120.7,43.8 121.1,44.6 121.5,45.4 122,46.1 122.6,46.7 123.2,47.4 123.8,47.9 124.6,48.4 125.3,48.9 126.1,49.2 126.9,49.5 127.8,49.8 128.6,49.9 129.5,50 134.5,50 134.5,70" />
<path stroke="#000000" stroke-width="2" d="M 164.5,70" />
<path stroke="#000000" stroke-width="2" d="M 176.5,30" />
<path stroke="#000000" stroke-width="2" d="M 176.5,30 176.3,34.1 175.7,37.3 174.8,39.8 173.6,41.5 172.3,42.7 170.8,43.2 169.3,43.3 167.9,43 166.5,42.3 165.2,41.2 164.2,40 163.5,38.6 163.2,37.2 163.3,35.7 163.8,34.2 165,32.9 166.7,31.7 169.2,30.8 172.4,30.2 176.5,30 184.5,30" />
<path stroke="#000000" stroke-width="2" d="M 184.5,30 186.2,30.6 187.9,31.3 189.4,32.1 190.8,32.8 192.1,33.7 193.2,34.6 194.3,35.5 195.3,36.5 196.2,37.5 197,38.5 197.7,39.6 198.3,40.7 198.9,41.8 199.3,42.9 199.7,44.1 200,45.2 200.2,46.4 200.4,47.6 200.5,48.8 200.5,50" />
<path stroke="#000000" stroke-width="2" d="M 207.2,70" />
<path stroke="#000000" stroke-width="2" d="M 207.2,30 227.2,30 227.7,30 228.2,30 228.7,30.1 229.2,30.3 229.7,30.5 230.2,30.7 230.6,30.9 231.1,31.2 231.5,31.6 231.8,31.9 232.2,32.3 232.5,32.8 232.7,33.2 233,33.7 233.1,34.2 233.3,34.7 233.4,35.2 233.4,35.7 233.4,36.3 233.4,36.8 233.3,37.3 233.1,37.8 233,38.3 232.7,38.8 232.5,39.2 232.2,39.6 231.8,40 231.5,40.4 231.1,40.8 230.6,41.1 230.2,41.3 229.7,41.5 229.2,41.7 228.7,41.9 228.2,41.9 227.7,42 227.2,42 226.6,41.9 226.1,41.9 225.6,41.7 225.1,41.5 224.7,41.3 224.2,41.1 223.8,40.8 223.4,40.4 223,40 222.7,39.6 222.4,39.2 222.1,38.8 221.9,38.3 221.7,37.8 221.6,37.3 221.5,36.8 221.4,36.3 221.4,35.7 221.5,35.2 221.6,34.7 221.7,34.2 221.9,33.7 222.1,33.2 222.4,32.8 222.7,32.3 223,31.9 223.4,31.6 223.8,31.2 224.2,30.9 224.7,30.7 225.1,30.5 225.6,30.3 226.1,30.1 226.6,30 227.2,30 227.2,50" />
<path stroke="#000000" stroke-width="2" d="M 263.4,70" />
<path stroke="#000000" stroke-width="2" d="M 263.4,40" />
<path stroke="#000000" stroke-width="2" d="M 263.4,40 267.5,39.8 270.7,39.2 273.2,38.3 274.9,37.1 276.1,35.8 276.6,34.3 276.7,32.8 276.4,31.4 275.7,30 274.7,28.8 273.4,27.7 272.1,27 270.6,26.7 269.1,26.8 267.6,27.3 266.3,28.5 265.1,30.2 264.2,32.7 263.6,35.9 263.4,40 263.4,70" />
<path stroke="#000000" stroke-width="2" d="M 283.4,70" />
<path stroke="#000000" stroke-width="2" d="M 283.4,20 283.4,20.7 283.5,21.4 283.6,22.1 283.8,22.8 284,23.4 284.3,24 284.6,24.6 285,25.2 285.5,25.8 286,26.2 286.5,26.7 287.1,27.1 287.7,27.4 288.3,27.7 289,28 289.7,28.2 290.3,28.3 291,28.3 291.7,28.3 292.4,28.3 293.1,28.2 293.8,28 294.4,27.7 295.1,27.4 295.7,27.1 296.3,26.7 296.8,26.2 297.3,25.8 297.7,25.2 298.1,24.6 298.5,24 298.8,23.4 299,22.8 299.2,22.1 299.3,21.4 299.4,20.7" />
<path stroke="#000000" stroke-width="2" d="M 306,70" />
<path stroke="#000000" stroke-width="2" d="M 306,25" />
<path stroke="#000000" stroke-width="2" d="M 306,25 308.1,24.9 309.7,24.6 310.9,24.1 311.8,23.6 312.4,22.9 312.7,22.2 312.7,21.4 312.5,20.7 312.2,20 311.7,19.4 311.1,18.9 310.4,18.5 309.6,18.3 308.9,18.4 308.2,18.7 307.5,19.2 306.9,20.1 306.5,21.4 306.2,23 306,25 306,40 298.4,58.5" />
<path stroke="#000000" stroke-width="2" d="M 319.4,70" />
<path stroke="#000000" stroke-width="2" d="M 319.4,70 334.7,33 350,70" />
<path stroke="#000000" stroke-width="2" d="M 380,70" />
<path stroke="#000000" stroke-width="2" d="M 380,30 420,30" />
<path stroke="#000000" stroke-width="2" d="M 426.6,70" />
<path stroke="#000000" stroke-width="2" d="M 426.6,50 426.8,50 426.8,50.2 426.6,50.2 426.6,50" />
<path stroke="#000000" stroke-width="2" d="M 456.8,70" />
<path stroke="#000000" stroke-width="2" d="M 456.8,30 456.8,70 468.2,58.7" />
<path stroke="#000000" stroke-width="2" d="M 474.8,70" />
<path stroke="#000000" stroke-width="2" d="M 484.8,20 477.2,38.5" />
<path stroke="#000000" stroke-width="2" d="M 514.8,70" />
<path stroke="#000000" stroke-width="2" d="M 530.8,30 530.8,60" />
<path stroke="#000000" stroke-width="2" d="M 530.8,60 530.6,64.1 530,67.3 529.1,69.8 527.9,71.5 526.6,72.7 525.2,73.2 523.7,73.3 522.2,73 520.8,72.3 519.6,71.2 518.6,70 517.9,68.6 517.5,67.2 517.6,65.7 518.2,64.2 519.3,62.9 521.1,61.7 523.5,60.8 526.8,60.2 530.8,60" />
<path stroke="#000000" stroke-width="2" d="M 537.5,70" />
<path stroke="#000000" stroke-width="2" d="M 545.5,20 535.6,29.9 545.5,39.8" />
<path stroke="#000000" stroke-width="2" d="M 552.2,70" />
<path stroke="#000000" stroke-width="2" d="M 552.2,20" />
<path stroke="#000000" stroke-width="2" d="M 552.2,20 553.6,20.1 554.9,20.6 556,21.2 557,22.1 557.8,23.1 558.5,24.3 559,25.6 559.4,27 559.6,28.5 559.7,30 559.6,31.5 559.4,33 559,34.4 558.5,35.7 557.8,36.9 557,37.9 556,38.8 554.9,39.4 553.6,39.9 552.2,40" />
<path stroke="#000000" stroke-width="2" d="M 589.7,70" />
<path stroke="#000000" stroke-width="2" d="M 609.7,30 594.4,67" />
<path stroke="#000000" stroke-width="2" d="M 616.3,70" />
<path stroke="#000000" stroke-width="2" d="M 616.3,50" />
<path stroke="#000000" stroke-width="2" d="M 616.3,50 617.8,50.1 619,50.6 620.2,51.2 621.1,52.1 622,53.1 622.6,54.3 623.2,55.6 623.5,57 623.8,58.5 623.8,60 623.8,61.5 623.5,63 623.2,64.4 622.6,65.7 622,66.9 621.1,67.9 620.2,68.8 619,69.4 617.8,69.9 616.3,70" />
<path stroke="#000000" stroke-width="2" d="M 630.5,70" />
<path stroke="#000000" stroke-width="2" d="M 630.5,50 630.7,50 630.7,50.2 630.5,50.2 630.5,50" />
<path stroke="#000000" stroke-width="2" d="M 660.7,70" />
<path stroke="#000000" stroke-width="2" d="M 676.7,30 676.7,60" />
<path stroke="#000000" stroke-width="2" d="M 676.7,60 676.5,64.1 675.9,67.3 675,69.8 673.8,71.5 672.5,72.7 671,73.2 669.5,73.3 668.1,73 666.7,72.3 665.4,71.2 664.4,70 663.7,68.6 663.4,67.2 663.5,65.7 664,64.2 665.2,62.9 666.9,61.7 669.4,60.8 672.6,60.2 676.7,60" />
<path stroke="#000000" stroke-width="2" d="M 683.4,70" />
<path stroke="#000000" stroke-width="2" d="M 691.4,20 681.5,29.9 691.4,39.8" />
<path stroke="#000000" stroke-width="2" d="M 698,70" />
<path stroke="#000000" stroke-width="2" d="M 698,20" />
<path stroke="#000000" stroke-width="2" d="M 698,20 699.5,20.1 700.7,20.6 701.9,21.2 702.8,22.1 703.7,23.1 704.3,24.3 704.9,25.6 705.2,27 705.5,28.5 705.5,30 705.5,31.5 705.2,33 704.9,34.4 704.3,35.7 703.7,36.9 702.8,37.9 701.9,38.8 700.7,39.4 699.5,39.9 698,40" />
<path stroke="#000000" stroke-width="2" d="M 735.5,70" />
<path stroke="#000000" stroke-width="2" d="M 755.5,30 740.2,67" />
<path stroke="#000000" stroke-width="2" d="M 762.2,70" />
<path stroke="#000000" stroke-width="2" d="M 762.2,55" />
<path stroke="#000000" stroke-width="2" d="M 762.2,55 764.2,54.9 765.8,54.6 767.1,54.1 768,53.6 768.5,52.9 768.8,52.2 768.9,51.4 768.7,50.7 768.3,50 767.8,49.4 767.2,48.9 766.5,48.5 765.8,48.3 765,48.4 764.3,48.7 763.6,49.2 763.1,50.1 762.6,51.4 762.3,53 762.2,55 762.2,70" />
<path stroke="#000000" stroke-width="2" d="M 775.5,70" />
<path stroke="#000000" stroke-width="2" d="M 785.5,20 777.9,38.5" />
<path stroke="#000000" stroke-width="2" d="M 792.2,70" />
<path stroke="#000000" stroke-width="2" d="M 792.2,35" />
<path stroke="#000000" stroke-width="2" d="M 792.2,35 794.2,34.9 795.8,34.6 797.1,34.1 797.9,33.6 798.5,32.9 798.8,32.2 798.8,31.4 798.7,30.7 798.3,30 797.8,29.4 797.2,28.9 796.5,28.5 795.8,28.3 795,28.4 794.3,28.7 793.6,29.2 793,30.1 792.6,31.4 792.3,33 792.2,35 792.2,50 797.2,50 797.2,70" />
<path stroke="#000000" stroke-width="2" d="M 805.5,70" />
<path stroke="#000000" stroke-width="2" d="M 805.5,30 805.7,30 805.7,30.2 805.5,30.2 805.5,30" />
<path stroke="#000000" stroke-width="2" d="M 835.7,70" />
<path stroke="#000000" stroke-width="2" d="M 845.7,50 846.6,50 847.4,49.9 848.3,49.8 849.1,49.5 850,49.2 850.8,48.9 851.5,48.4 852.2,47.9 852.9,47.4 853.5,46.8 854.1,46.1 854.6,45.4 855,44.6 855.4,43.8 855.7,43 855.9,42.2 856.1,41.3 856.1,40.4 856.1,39.6 856.1,38.7 855.9,37.8 855.7,37 855.4,36.2 855,35.4 854.6,34.6 854.1,33.9 853.5,33.3 852.9,32.6 852.2,32.1 851.5,31.6 850.8,31.1 850,30.8 849.1,30.5 848.3,30.2 847.4,30.1 846.6,30 845.7,30 844.8,30.1 844,30.2 843.1,30.5 842.3,30.8 841.5,31.1 840.8,31.6 840.1,32.1 839.4,32.6 838.8,33.3 838.2,33.9 837.7,34.6 837.3,35.4 836.9,36.2 836.6,37 836.4,37.8 836.2,38.7 836.2,39.6 836.2,40.4 836.2,41.3 836.4,42.2 836.6,43 836.9,43.8 837.3,44.6 837.7,45.4 838.2,46.1 838.8,46.8 839.4,47.4 840.1,47.9 840.8,48.4 841.5,48.9 842.3,49.2 843.1,49.5 844,49.8 844.8,49.9 845.7,50 845.7,70 845.7,64 845.7,63.1 845.8,62.3 845.9,61.4 846.2,60.6 846.5,59.7 846.8,58.9 847.3,58.2 847.8,57.5 848.3,56.8 848.9,56.2 849.6,55.6 850.3,55.1 851.1,54.7 851.9,54.3 852.7,54 853.5,53.8 854.4,53.6 855.3,53.6" />
<path stroke="#000000" stroke-width="2" d="M 886.1,70" />
<path stroke="#000000" stroke-width="2" d="M 886.1,30 901.4,67 916.7,30" />
<path stroke="#000000" stroke-width="2" d="M 923.4,70" />
<path stroke="#000000" stroke-width="2" d="M 923.4,20 923.4,20.7 923.5,21.4 923.6,22.1 923.8,22.8 924,23.4 924.3,24 924.7,24.6 925.1,25.2 925.5,25.8 926,26.2 926.5,26.7 927.1,27.1 927.7,27.4 928.3,27.7 929,28 929.7,28.2 930.4,28.3 931.1,28.3 931.8,28.3 932.4,28.3 933.1,28.2 933.8,28 934.5,27.7 935.1,27.4 935.7,27.1 936.3,26.7 936.8,26.2 937.3,25.8 937.8,25.2 938.2,24.6 938.5,24 938.8,23.4 939,22.8 939.2,22.1 939.3,21.4 939.4,20.7" />
<path stroke="#000000" stroke-width="2" d="M 946.1,70" />
<path stroke="#000000" stroke-width="2" d="M 946.1,55" />
<path stroke="#000000" stroke-width="2" d="M 946.1,55 948.1,54.9 949.7,54.6 950.9,54.1 951.8,53.6 952.4,52.9 952.7,52.2 952.7,51.4 952.5,50.7 952.2,50 951.7,49.4 951.1,48.9 950.4,48.5 949.6,48.3 948.9,48.4 948.2,48.7 947.5,49.2 946.9,50.1 946.5,51.4 946.2,53 946.1,55 946.1,70" />
<path stroke="#000000" stroke-width="2" d="M 982.7,70" />
<path stroke="#000000" stroke-width="2" d="M 992.7,50 993.6,50 994.5,49.9 995.3,49.8 996.2,49.5 997,49.2 997.8,48.9 998.5,48.4 999.2,47.9 999.9,47.4 1000.5,46.8 1001.1,46.1 1001.6,45.4 1002,44.6 1002.4,43.8 1002.7,43 1002.9,42.2 1003.1,41.3 1003.1,40.4 1003.1,39.6 1003.1,38.7 1002.9,37.8 1002.7,37 1002.4,36.2 1002,35.4 1001.6,34.6 1001.1,33.9 1000.5,33.3 999.9,32.6 999.2,32.1 998.5,31.6 997.8,31.1 997,30.8 996.2,30.5 995.3,30.2 994.5,30.1 993.6,30 992.7,30 991.8,30.1 991,30.2 990.1,30.5 989.3,30.8 988.5,31.1 987.8,31.6 987.1,32.1 986.4,32.6 985.8,33.3 985.2,33.9 984.7,34.6 984.3,35.4 983.9,36.2 983.6,37 983.4,37.8 983.2,38.7 983.2,39.6 983.2,40.4 983.2,41.3 983.4,42.2 983.6,43 983.9,43.8 984.3,44.6 984.7,45.4 985.2,46.1 985.8,46.8 986.4,47.4 987.1,47.9 987.8,48.4 988.5,48.9 989.3,49.2 990.1,49.5 991,49.8 991.8,49.9 992.7,50 992.7,70 992.7,64 992.7,63.1 992.8,62.3 992.9,61.4 993.2,60.6 993.5,59.7 993.8,58.9 994.3,58.2 994.8,57.5 995.3,56.8 996,56.2 996.6,55.6 997.3,55.1 998.1,54.7 998.9,54.3 999.7,54 1000.5,53.8 1001.4,53.6 1002.3,53.6" />
<path stroke="#000000" stroke-width="2" d="M 1009.8,70" />
<path stroke="#000000" stroke-width="2" d="M 1009.8,50 1010,50 1010,50.2 1009.8,50.2 1009.8,50" />
<path stroke="#000000" stroke-width="2" d="M 1040,70" />
<path stroke="#000000" stroke-width="2" d="M 1040,30 1050,30 1050,70 1050,68.3 1050.2,66.5 1050.5,64.8 1050.9,63.1 1051.5,61.5 1052.3,59.9 1053.1,58.4 1054.1,57 1055.2,55.6 1056.5,54.4 1057.8,53.3 1059.2,52.3 1060.8,51.4 1062.3,50.7 1064,50.1 1065.7,49.6 1067.4,49.3 1069.1,49.1" />
<path stroke="#000000" stroke-width="2" d="M 1075.8,70" />
<path stroke="#000000" stroke-width="2" d="M 1075.8,30 1095.8,30" />
<path stroke="#000000" stroke-width="2" d="M 1095.8,30 1097.2,30.1 1098.5,30.6 1099.6,31.2 1100.6,32.1 1101.4,33.1 1102.1,34.3 1102.6,35.6 1103,37 1103.2,38.5 1103.3,40 1103.2,41.5 1103,43 1102.6,44.4 1102.1,45.7 1101.4,46.9 1100.6,47.9 1099.6,48.8 1098.5,49.4 1097.2,49.9 1095.8,50 1095.8,65" />
<path stroke="#000000" stroke-width="2" d="M 1095.8,65 1095.7,67 1095.4,68.6 1094.9,69.9 1094.3,70.8 1093.7,71.3 1093,71.6 1092.2,71.7 1091.5,71.5 1090.8,71.1 1090.2,70.6 1089.7,70 1089.3,69.3 1089.1,68.6 1089.2,67.8 1089.5,67.1 1090,66.4 1090.9,65.9 1092.1,65.4 1093.8,65.1 1095.8,65" />
<path stroke="#000000" stroke-width="2" d="M 1110,70" />
<path stroke="#000000" stroke-width="2" d="M 1126,30" />
<path stroke="#000000" stroke-width="2" d="M 1126,30 1125.7,34.1 1125.1,37.3 1124.2,39.8 1123.1,41.5 1121.7,42.7 1120.3,43.2 1118.8,43.3 1117.3,43 1115.9,42.3 1114.7,41.2 1113.7,40 1113,38.6 1112.6,37.2 1112.7,35.7 1113.3,34.2 1114.4,32.9 1116.2,31.7 1118.7,30.8 1121.9,30.2 1126,30 1146,30" />
<path stroke="#000000" stroke-width="2" d="M 1176,70" />
</svg>