<svg xmlns="http://www.w3.org/2000/svg" width="388.1129431304304" height="122.0" style="fill:none; stroke-linecap:round;">
    <rect width="100%" height="100%" fill="#FFFFFF" />
<path stroke="#000000" stroke-width="2" d="M 550,75" />
<path stroke="#000000" stroke-width="2" d="M 36,30 16.2,49.8 36,69.6" />
<path stroke="#000000" stroke-width="2" d="M 42.7,70" />
<path stroke="#000000" stroke-width="2" d="M 42.7,20 42.7,40 48.3,34.3" />
<path stroke="#000000" stroke-width="2" d="M 55,70" />
<path stroke="#000000" stroke-width="2" d="M 55,50 55,50.7 55.1,51.4 55.2,52.1 55.4,52.8 55.6,53.4 55.9,54 56.2,54.6 56.6,55.2 57.1,55.8 57.6,56.2 58.1,56.7 58.7,57.1 59.3,57.4 59.9,57.7 60.6,58 61.3,58.2 61.9,58.3 62.6,58.3 63.3,58.3 64,58.3 64.7,58.2 65.4,58 66,57.7 66.7,57.4 67.3,57.1 67.9,56.7 68.4,56.2 68.9,55.8 69.3,55.2 69.7,54.6 70.1,54 70.4,53.4 70.6,52.8 70.8,52.1 70.9,51.4 71,50.7 91,50.7" />
<path stroke="#000000" stroke-width="2" d="M 97.6,70" />
<path stroke="#000000" stroke-width="2" d="M 107.6,50 100,68.5" />
<path stroke="#000000" stroke-width="2" d="M 137.6,70" />
<path stroke="#000000" stroke-width="2" d="M 137.6,30 137.6,70 137.6,58 137.6,56.3 137.8,54.5 138.1,52.8 138.5,51.1 139.1,49.5 139.9,47.9 140.8,46.4 141.8,45 142.9,43.6 144.1,42.4 145.4,41.3 146.9,40.3 148.4,39.4 150,38.7 151.6,38.1 153.3,37.6 155,37.3 156.8,37.1" />
<path stroke="#000000" stroke-width="2" d="M 163.4,70" />
<path stroke="#000000" stroke-width="2" d="M 163.4,25" />
<path stroke="#000000" stroke-width="2" d="M 163.4,25 165.4,24.9 167.1,24.6 168.3,24.1 169.2,23.6 169.7,22.9 170,22.2 170.1,21.4 169.9,20.7 169.5,20 169,19.4 168.4,18.9 167.7,18.5 167,18.3 166.3,18.4 165.5,18.7 164.9,19.2 164.3,20.1 163.8,21.4 163.5,23 163.4,25 163.4,40" />
<path stroke="#000000" stroke-width="2" d="M 176.7,70" />
<path stroke="#000000" stroke-width="2" d="M 176.7,50 196.7,50" />
<path stroke="#000000" stroke-width="2" d="M 226.7,70" />
<path stroke="#000000" stroke-width="2" d="M 226.7,30 226.7,50 236.7,50" />
<path stroke="#000000" stroke-width="2" d="M 236.7,50 238.8,49.9 240.4,49.6 241.6,49.1 242.5,48.6 243.1,47.9 243.4,47.2 243.4,46.4 243.2,45.7 242.9,45 242.4,44.4 241.7,43.9 241.1,43.5 240.3,43.3 239.6,43.4 238.8,43.7 238.2,44.2 237.6,45.1 237.1,46.4 236.8,48 236.7,50 236.7,65" />
<path stroke="#000000" stroke-width="2" d="M 273.4,70" />
<path stroke="#000000" stroke-width="2" d="M 273.4,40 273.6,40 273.6,40.2 273.4,40.2 273.4,40" />
<path stroke="#000000" stroke-width="2" d="M 280.3,70" />
<path stroke="#000000" stroke-width="2" d="M 280.3,30 280.3,70" />
<path stroke="#000000" stroke-width="2" d="M 286.9,70" />
<path stroke="#000000" stroke-width="2" d="M 286.9,30 286.9,38 286.9,39 287,40.1 287.2,41.1 287.5,42.1 287.8,43.1 288.3,44.1 288.8,45 289.4,45.8 290.1,46.6 290.8,47.4 291.6,48 292.5,48.6 293.4,49.2 294.3,49.6 295.3,50 296.3,50.2 297.3,50.4 298.4,50.5 299.4,50.5 300.5,50.4 301.5,50.2 302.5,50 303.5,49.6 304.5,49.2 305.4,48.6 306.2,48 307,47.4 307.8,46.6 308.4,45.8 309,45 309.6,44.1 310,43.1 310.4,42.1 310.6,41.1 310.8,40.1 310.9,39 310.9,29 310.9,69" />
<path stroke="#000000" stroke-width="2" d="M 317.6,70" />
<path stroke="#000000" stroke-width="2" d="M 327.6,50 319.9,68.5" />
<path stroke="#000000" stroke-width="2" d="M 357.6,70" />
<path stroke="#000000" stroke-width="2" d="M 357.6,62 358.4,62 358.4,62.8 357.6,62.8 357.6,62" />
<path stroke="#000000" stroke-width="2" d="M 357.6,78" />
<path stroke="#000000" stroke-width="2" d="M 357.6,78 359.8,78.1 361.8,78.3 363.5,78.8 364.9,79.3 366,80.1 366.9,80.9 367.5,81.9 367.9,83 368.1,84.2 368.1,85.5 367.8,86.9 367.4,88.4 366.7,89.9 365.9,91.5 364.9,93.2 363.7,94.9 362.4,96.6 360.9,98.4 359.3,100.2 357.6,102" />
<path stroke="#000000" stroke-width="2" d="M 398.1,70" />
</svg>