<svg xmlns="http://www.w3.org/2000/svg" width="593.6334736332234" height="93.04481869954853" style="fill:none; stroke-linecap:round;">
    <rect width="100%" height="100%" fill="#FFFFFF" />
<path stroke="#000000" stroke-width="2" d="M 550,75" />
<path stroke="#000000" stroke-width="2" d="M 36,30" />
<path stroke="#000000" stroke-width="2" d="M 36,30 35.8,34.1 35.2,37.3 34.3,39.8 33.1,41.5 31.8,42.7 30.3,43.2 28.8,43.3 27.4,43 26,42.3 24.8,41.2 23.7,40 23,38.6 22.7,37.2 22.8,35.7 23.3,34.2 24.5,32.9 26.2,31.7 28.7,30.8 31.9,30.2 36,30 56,30" />
<path stroke="#000000" stroke-width="2" d="M 62.7,70" />
<path stroke="#000000" stroke-width="2" d="M 62.7,55" />
<path stroke="#000000" stroke-width="2" d="M 62.7,55 64.7,54.9 66.3,54.6 67.5,54.1 68.4,53.6 69,52.9 69.3,52.2 69.3,51.4 69.1,50.7 68.8,50 68.3,49.4 67.7,48.9 67,48.5 66.2,48.3 65.5,48.4 64.8,48.7 64.1,49.2 63.5,50.1 63.1,51.4 62.8,53 62.7,55 62.7,70" />
<path stroke="#000000" stroke-width="2" d="M 76,70" />
<path stroke="#000000" stroke-width="2" d="M 84,30 84,45" />
<path stroke="#000000" stroke-width="2" d="M 84,45 83.9,47 83.6,48.6 83.1,49.9 82.5,50.8 81.9,51.3 81.2,51.6 80.4,51.7 79.7,51.5 79,51.1 78.4,50.6 77.9,50 77.5,49.3 77.3,48.6 77.4,47.8 77.7,47.1 78.2,46.4 79.1,45.9 80.3,45.4 82,45.1 84,45 104,45" />
<path stroke="#000000" stroke-width="2" d="M 134,70" />
<path stroke="#000000" stroke-width="2" d="M 134,70 149.3,33 149.3,73 149.3,61 149.3,59.3 149.4,57.6 149.8,55.8 150.2,54.2 150.8,52.5 151.5,50.9 152.4,49.4 153.4,48 154.5,46.7 155.8,45.4 157.1,44.3 158.5,43.3 160,42.4 161.6,41.7 163.3,41.1" />
<path stroke="#000000" stroke-width="2" d="M 193.3,70" />
<path stroke="#000000" stroke-width="2" d="M 205.3,30 206.3,30 207.4,30.1 208.4,30.3 209.4,30.5 210.4,30.9 211.3,31.3 212.2,31.9 213.1,32.5 213.9,33.1 214.6,33.9 215.3,34.7 215.9,35.5 216.4,36.4 216.9,37.4 217.2,38.4 217.5,39.4 217.7,40.4 217.8,41.5 217.8,42.5 217.7,43.6 217.5,44.6 217.2,45.6 216.9,46.6 216.4,47.5 215.9,48.4 215.3,49.3 214.6,50.1 213.9,50.8 213.1,51.5 212.2,52.1 211.3,52.6 210.4,53.1 209.4,53.4 208.4,53.7 207.4,53.9 206.3,54 205.3,54 204.2,53.9 203.2,53.7 202.2,53.4 201.2,53.1 200.2,52.6 199.3,52.1 198.5,51.5 197.7,50.8 196.9,50.1 196.3,49.3 195.7,48.4 195.1,47.5 194.7,46.6 194.3,45.6 194.1,44.6 193.9,43.6 193.8,42.5 193.8,41.5 193.9,40.4 194.1,39.4 194.3,38.4 194.7,37.4 195.1,36.4 195.7,35.5 196.3,34.7 196.9,33.9 197.7,33.1 198.5,32.5 199.3,31.9 200.2,31.3 201.2,30.9 202.2,30.5 203.2,30.3 204.2,30.1 205.3,30 213.3,30" />
<path stroke="#000000" stroke-width="2" d="M 213.3,30 215,30.6 216.6,31.3 218.1,32.1 219.5,32.8 220.8,33.7 222,34.6 223.1,35.5 224.1,36.5 225,37.5 225.8,38.5 226.5,39.6 227.1,40.7 227.6,41.8 228.1,42.9 228.4,44.1 228.7,45.2 229,46.4 229.1,47.6 229.2,48.8 229.3,50" />
<path stroke="#000000" stroke-width="2" d="M 235.9,70" />
<path stroke="#000000" stroke-width="2" d="M 245.9,20 238.3,38.5" />
<path stroke="#000000" stroke-width="2" d="M 252.6,70" />
<path stroke="#000000" stroke-width="2" d="M 252.6,30 252.8,30 252.8,30.2 252.6,30.2 252.6,30" />
<path stroke="#000000" stroke-width="2" d="M 282.8,70" />
<path stroke="#000000" stroke-width="2" d="M 282.8,30 286.6,39.2" />
<path stroke="#000000" stroke-width="2" d="M 286.6,39.2 288.5,41.4 289.9,43.3 290.6,45 290.9,46.4 290.8,47.7 290.4,48.7 289.7,49.5 288.8,50 287.7,50.4 286.6,50.5 285.5,50.4 284.5,50 283.6,49.5 282.8,48.7 282.4,47.7 282.3,46.4 282.6,45 283.4,43.3 284.7,41.4 286.6,39.2 290.4,30 290.4,34 290.4,34.5 290.5,35 290.6,35.6 290.7,36.1 290.9,36.6 291.1,37 291.4,37.5 291.7,37.9 292,38.3 292.4,38.7 292.8,39 293.2,39.3 293.7,39.6 294.1,39.8 294.6,40 295.1,40.1 295.7,40.2 296.2,40.3 296.7,40.3 297.2,40.2 297.7,40.1 298.2,40 298.7,39.8 299.2,39.6 299.7,39.3 300.1,39 300.5,38.7 300.9,38.3 301.2,37.9 301.5,37.5 301.8,37 302,36.6 302.2,36.1 302.3,35.6 302.4,35 302.4,34.5 302.4,29.5 302.4,49.5 302.4,50.2 302.5,50.9 302.6,51.6 302.8,52.3 303,52.9 303.3,53.6 303.7,54.2 304.1,54.7 304.5,55.3 305,55.8 305.6,56.2 306.1,56.6 306.7,57 307.4,57.3 308,57.5 308.7,57.7 309.4,57.8 310.1,57.9 310.8,57.9 311.5,57.8 312.2,57.7 312.8,57.5 313.5,57.3 314.1,57 314.7,56.6 315.3,56.2 315.8,55.8 316.3,55.3 316.8,54.7 317.2,54.2 317.5,53.6 317.8,52.9 318.1,52.3 318.2,51.6 318.4,50.9 318.4,50.2" />
<path stroke="#000000" stroke-width="2" d="M 325.1,70" />
<path stroke="#000000" stroke-width="2" d="M 325.1,30 325.3,30 325.3,30.2 325.1,30.2 325.1,30" />
<path stroke="#000000" stroke-width="2" d="M 355.3,70" />
<path stroke="#000000" stroke-width="2" d="M 355.3,30 395.3,30" />
<path stroke="#000000" stroke-width="2" d="M 402,70" />
<path stroke="#000000" stroke-width="2" d="M 402,50 409.6,68.5" />
<path stroke="#000000" stroke-width="2" d="M 416.3,70" />
<path stroke="#000000" stroke-width="2" d="M 426.3,20 418.6,38.5 420.9,32.9 421.3,32.1 421.7,31.4 422.1,30.6 422.7,29.9 423.2,29.3 423.9,28.7 424.6,28.2 425.3,27.7 426.1,27.3 426.9,27 427.7,26.7 428.6,26.5" />
<path stroke="#000000" stroke-width="2" d="M 458.6,70" />
<path stroke="#000000" stroke-width="2" d="M 458.6,30 458.6,70 469.9,58.7" />
<path stroke="#000000" stroke-width="2" d="M 476.6,70" />
<path stroke="#000000" stroke-width="2" d="M 486.6,20 478.9,38.5" />
<path stroke="#000000" stroke-width="2" d="M 516.6,70" />
<path stroke="#000000" stroke-width="2" d="M 536.6,70 538.3,70 540,69.8 541.8,69.5 543.4,69.1 545.1,68.5 546.7,67.8 548.2,66.9 549.6,65.9 550.9,64.8 552.2,63.5 553.3,62.2 554.3,60.8 555.2,59.3 555.9,57.7 556.5,56 557,54.3 557.3,52.6 557.4,50.9 557.4,49.1 557.3,47.4 557,45.7 556.5,44 555.9,42.4 555.2,40.8 554.3,39.3 553.3,37.8 552.2,36.5 550.9,35.3 549.6,34.2 548.2,33.2 546.7,32.3 545.1,31.5 543.4,30.9 541.8,30.5 540,30.2 538.3,30 536.6,30 534.8,30.2 533.1,30.5 531.4,30.9 529.8,31.5 528.2,32.3 526.7,33.2 525.3,34.2 523.9,35.3 522.7,36.5 521.6,37.8 520.6,39.3 519.7,40.8 519,42.4 518.4,44 517.9,45.7 517.6,47.4 517.5,49.1 517.5,50.9 517.6,52.6 517.9,54.3 518.4,56 519,57.7 519.7,59.3 520.6,60.8 521.6,62.2 522.7,63.5 523.9,64.8 525.3,65.9 526.7,66.9 528.2,67.8 529.8,68.5 531.4,69.1 533.1,69.5 534.8,69.8 536.6,70" />
<path stroke="#000000" stroke-width="2" d="M 564.1,70" />
<path stroke="#000000" stroke-width="2" d="M 564.1,20 564.1,40 564.1,34 564.1,33.1 564.2,32.3 564.3,31.4 564.5,30.6 564.8,29.7 565.2,28.9 565.6,28.2 566.1,27.5 566.7,26.8 567.3,26.2 568,25.6 568.7,25.1 569.5,24.7 570.2,24.3 571.1,24 571.9,23.8 572.8,23.6 573.6,23.6" />
<path stroke="#000000" stroke-width="2" d="M 603.6,70" />
</svg>