<svg xmlns="http://www.w3.org/2000/svg" width="1571.6137994702474" height="102.0" style="fill:none; stroke-linecap:round;">
    <rect width="100%" height="100%" fill="#FFFFFF" />
<path stroke="#000000" stroke-width="2" d="M 550,75" />
<path stroke="#000000" stroke-width="2" d="M 40,30 24.7,67" />
<path stroke="#000000" stroke-width="2" d="M 46.7,70" />
<path stroke="#000000" stroke-width="2" d="M 56.7,70 57.5,70 58.4,69.9 59.3,69.8 60.1,69.5 60.9,69.2 61.7,68.9 62.5,68.4 63.2,67.9 63.9,67.4 64.5,66.8 65,66.1 65.5,65.4 66,64.6 66.3,63.8 66.6,63 66.9,62.2 67,61.3 67.1,60.4 67.1,59.6 67,58.7 66.9,57.8 66.6,57 66.3,56.2 66,55.4 65.5,54.6 65,53.9 64.5,53.3 63.9,52.6 63.2,52.1 62.5,51.6 61.7,51.1 60.9,50.8 60.1,50.5 59.3,50.2 58.4,50.1 57.5,50 56.7,50 55.8,50.1 54.9,50.2 54.1,50.5 53.3,50.8 52.5,51.1 51.7,51.6 51,52.1 50.3,52.6 49.7,53.3 49.2,53.9 48.7,54.6 48.2,55.4 47.9,56.2 47.6,57 47.3,57.8 47.2,58.7 47.1,59.6 47.1,60.4 47.2,61.3 47.3,62.2 47.6,63 47.9,63.8 48.2,64.6 48.7,65.4 49.2,66.1 49.7,66.8 50.3,67.4 51,67.9 51.7,68.4 52.5,68.9 53.3,69.2 54.1,69.5 54.9,69.8 55.8,69.9 56.7,70" />
<path stroke="#000000" stroke-width="2" d="M 73.8,70" />
<path stroke="#000000" stroke-width="2" d="M 73.8,40" />
<path stroke="#000000" stroke-width="2" d="M 73.8,40 77.8,39.8 81.1,39.2 83.5,38.3 85.3,37.1 86.4,35.8 87,34.3 87.1,32.8 86.7,31.4 86,30 85,28.8 83.8,27.7 82.4,27 80.9,26.7 79.4,26.8 78,27.3 76.6,28.5 75.5,30.2 74.6,32.7 74,35.9 73.8,40 73.8,70" />
<path stroke="#000000" stroke-width="2" d="M 117.1,70" />
<path stroke="#000000" stroke-width="2" d="M 117.1,30 118.8,30 120.6,30.2 122.3,30.5 124,30.9 125.6,31.5 127.2,32.2 128.7,33.1 130.1,34.1 131.5,35.2 132.7,36.5 133.8,37.8 134.8,39.2 135.7,40.7 136.4,42.3 137,44 137.5,45.7 137.8,47.4 137.9,49.1 137.9,50.9 137.8,52.6 137.5,54.3 137,56 136.4,57.6 135.7,59.2 134.8,60.7 133.8,62.2 132.7,63.5 131.5,64.7 130.1,65.8 128.7,66.8 127.2,67.7 125.6,68.5 124,69.1 122.3,69.5 120.6,69.8 118.8,70" />
<path stroke="#000000" stroke-width="2" d="M 144.6,70" />
<path stroke="#000000" stroke-width="2" d="M 146.6,20 155.1,28.5" />
<path stroke="#000000" stroke-width="2" d="M 163.6,20 143.8,39.8" />
<path stroke="#000000" stroke-width="2" d="M 193.6,70" />
<path stroke="#000000" stroke-width="2" d="M 193.6,30 193.6,70 213.6,70" />
<path stroke="#000000" stroke-width="2" d="M 243.6,70" />
<path stroke="#000000" stroke-width="2" d="M 259.6,30 239.8,49.8 259.6,69.6" />
<path stroke="#000000" stroke-width="2" d="M 266.2,70" />
<path stroke="#000000" stroke-width="2" d="M 266.2,20 273.9,38.5 281.5,20 301.5,20 293.9,38.5" />
<path stroke="#000000" stroke-width="2" d="M 331.5,70" />
<path stroke="#000000" stroke-width="2" d="M 331.5,35" />
<path stroke="#000000" stroke-width="2" d="M 331.5,35 333.6,34.9 335.2,34.6 336.4,34.1 337.3,33.6 337.9,32.9 338.1,32.2 338.2,31.4 338,30.7 337.7,30 337.2,29.4 336.5,28.9 335.9,28.5 335.1,28.3 334.4,28.4 333.6,28.7 333,29.2 332.4,30.1 331.9,31.4 331.6,33 331.5,35 331.5,50" />
<path stroke="#000000" stroke-width="2" d="M 331.5,50 331.4,52 331.1,53.6 330.7,54.9 330.1,55.8 329.4,56.3 328.7,56.6 328,56.7 327.2,56.5 326.5,56.1 325.9,55.6 325.4,55 325.1,54.3 324.9,53.6 324.9,52.8 325.2,52.1 325.8,51.4 326.7,50.9 327.9,50.4 329.5,50.1 331.5,50 341.5,50" />
<path stroke="#000000" stroke-width="2" d="M 348.2,70" />
<path stroke="#000000" stroke-width="2" d="M 348.2,70 348.2,69.3 348.3,68.6 348.4,67.9 348.6,67.2 348.8,66.6 349.1,66 349.4,65.4 349.8,64.8 350.3,64.2 350.8,63.8 351.3,63.3 351.9,62.9 352.5,62.6 353.1,62.3 353.8,62 354.5,61.8 355.1,61.7 355.8,61.7 356.5,61.7 357.2,61.7 357.9,61.8 358.6,62 359.3,62.3 359.9,62.6 360.5,62.9 361.1,63.3 361.6,63.8 362.1,64.2 362.5,64.8 362.9,65.4 363.3,66 363.6,66.6 363.8,67.2 364,67.9 364.1,68.6 364.2,69.3 384.2,69.3" />
<path stroke="#000000" stroke-width="2" d="M 414.2,70" />
<path stroke="#000000" stroke-width="2" d="M 434.2,30 418.9,67" />
<path stroke="#000000" stroke-width="2" d="M 440.9,70" />
<path stroke="#000000" stroke-width="2" d="M 440.9,70 448.5,51.5 468.5,51.5" />
<path stroke="#000000" stroke-width="2" d="M 475.2,70" />
<path stroke="#000000" stroke-width="2" d="M 485.2,30 484.3,30 483.4,30.1 482.6,30.2 481.7,30.5 480.9,30.8 480.1,31.1 479.4,31.6 478.6,32.1 478,32.6 477.4,33.2 476.8,33.9 476.3,34.6 475.9,35.4 475.5,36.2 475.2,37 475,37.8 474.8,38.7 474.7,39.6 474.7,40.4 474.8,41.3 475,42.2 475.2,43 475.5,43.8 475.9,44.6 476.3,45.4 476.8,46.1 477.4,46.7 478,47.4 478.6,47.9 479.4,48.4 480.1,48.9 480.9,49.2 481.7,49.5 482.6,49.8 483.4,49.9 484.3,50 504.3,50" />
<path stroke="#000000" stroke-width="2" d="M 534.3,70" />
<path stroke="#000000" stroke-width="2" d="M 534.3,70 549.6,33 549.6,73" />
<path stroke="#000000" stroke-width="2" d="M 556.3,70" />
<path stroke="#000000" stroke-width="2" d="M 556.3,50" />
<path stroke="#000000" stroke-width="2" d="M 556.3,50 556.4,50 556.8,50 557.5,50 558.4,50.1 559.4,50.2 560.6,50.3 561.9,50.4 563.3,50.6 564.8,50.9 566.3,51.2 567.8,51.7 569.2,52.2 570.6,52.7 572,53.4 573.1,54.2 574.2,55.1 575.1,56.1 575.7,57.3 576.1,58.6 576.3,60" />
<path stroke="#000000" stroke-width="2" d="M 576.3,60 578.2,62.1 579.5,64.1 580.3,65.7 580.6,67.2 580.5,68.4 580.1,69.5 579.3,70.2 578.4,70.8 577.4,71.1 576.3,71.2 575.2,71.1 574.1,70.8 573.2,70.2 572.5,69.5 572.1,68.4 572,67.2 572.3,65.7 573,64 574.3,62.1 576.3,60" />
<path stroke="#000000" stroke-width="2" d="M 576.3,60 576.3,59.9 576.3,59.7 576.3,59.4 576.4,59 576.6,58.4 576.8,57.8 577.1,57.2 577.6,56.5 578.1,55.7 578.8,55 579.6,54.3 580.6,53.5 581.8,52.8 583.1,52.2 584.7,51.6 586.5,51 588.6,50.6 590.9,50.3 593.4,50.1 596.3,50 588.6,68.5" />
<path stroke="#000000" stroke-width="2" d="M 626.3,70" />
<path stroke="#000000" stroke-width="2" d="M 626.3,30 626.3,50 636.3,50 628.6,68.5" />
<path stroke="#000000" stroke-width="2" d="M 666.3,70" />
<path stroke="#000000" stroke-width="2" d="M 666.3,70 666.5,70 666.5,70.2 666.3,70.2 666.3,70" />
<path stroke="#000000" stroke-width="2" d="M 696.5,70" />
<path stroke="#000000" stroke-width="2" d="M 716.5,70 718.2,70 720,69.8 721.7,69.5 723.4,69.1 725,68.5 726.6,67.8 728.1,66.9 729.5,65.9 730.9,64.8 732.1,63.5 733.2,62.2 734.2,60.8 735.1,59.3 735.8,57.7 736.4,56 736.9,54.3 737.2,52.6 737.3,50.9 737.3,49.1 737.2,47.4 736.9,45.7 736.4,44 735.8,42.4 735.1,40.8 734.2,39.3 733.2,37.8 732.1,36.5 730.9,35.3 729.5,34.2 728.1,33.2 726.6,32.3 725,31.5 723.4,30.9 721.7,30.5 720,30.2 718.2,30 716.5,30 714.7,30.2 713,30.5 711.3,30.9 709.7,31.5 708.1,32.3 706.6,33.2 705.2,34.2 703.8,35.3 702.6,36.5 701.5,37.8 700.5,39.3 699.6,40.8 698.9,42.4 698.3,44 697.8,45.7 697.5,47.4 697.4,49.1 697.4,50.9 697.5,52.6 697.8,54.3 698.3,56 698.9,57.7 699.6,59.3 700.5,60.8 701.5,62.2 702.6,63.5 703.8,64.8 705.2,65.9 706.6,66.9 708.1,67.8 709.7,68.5 711.3,69.1 713,69.5 714.7,69.8 716.5,70" />
<path stroke="#000000" stroke-width="2" d="M 744,70" />
<path stroke="#000000" stroke-width="2" d="M 746,20 754.5,28.5" />
<path stroke="#000000" stroke-width="2" d="M 763,20 743.2,39.8" />
<path stroke="#000000" stroke-width="2" d="M 793,70" />
<path stroke="#000000" stroke-width="2" d="M 793,70 793,68.6 793.1,67.2 793.3,65.8 793.7,64.5 794.2,63.2 794.8,61.9 795.5,60.7 796.3,59.6 797.2,58.5 798.1,57.5 799.2,56.6 800.4,55.8 801.6,55.1 802.8,54.5 804.1,54 805.5,53.7 806.9,53.4 808.3,53.3 809.6,53.3 811,53.4 812.4,53.7 813.8,54 815.1,54.5 816.3,55.1 817.5,55.8 818.7,56.6 819.8,57.5 820.7,58.5 821.6,59.6 822.4,60.7 823.1,61.9 823.7,63.2 824.2,64.5 824.6,65.8 824.8,67.2 824.9,68.6" />
<path stroke="#000000" stroke-width="2" d="M 831.6,70" />
<path stroke="#000000" stroke-width="2" d="M 831.6,50" />
<path stroke="#000000" stroke-width="2" d="M 831.6,50 831.7,50 832.2,50 832.8,50 833.7,50.1 834.7,50.2 835.9,50.3 837.2,50.4 838.6,50.6 840.1,50.9 841.6,51.2 843.1,51.7 844.6,52.2 846,52.7 847.3,53.4 848.5,54.2 849.5,55.1 850.4,56.1 851,57.3 851.5,58.6 851.6,60" />
<path stroke="#000000" stroke-width="2" d="M 851.6,60 853.5,62.1 854.8,64.1 855.6,65.7 855.9,67.2 855.8,68.4 855.4,69.5 854.7,70.2 853.8,70.8 852.7,71.1 851.6,71.2 850.5,71.1 849.4,70.8 848.5,70.2 847.8,69.5 847.4,68.4 847.3,67.2 847.6,65.7 848.4,64 849.7,62.1 851.6,60" />
<path stroke="#000000" stroke-width="2" d="M 851.6,60 851.6,59.9 851.6,59.7 851.7,59.4 851.8,59 851.9,58.4 852.1,57.8 852.5,57.2 852.9,56.5 853.4,55.7 854.1,55 854.9,54.3 855.9,53.5 857.1,52.8 858.5,52.2 860,51.6 861.8,51 863.9,50.6 866.2,50.3 868.7,50.1 871.6,50 871.6,50.7 871.7,51.4 871.8,52.1 872,52.8 872.2,53.4 872.5,54 872.8,54.6 873.2,55.2 873.7,55.8 874.2,56.2 874.7,56.7 875.3,57.1 875.9,57.4 876.5,57.7 877.2,58 877.9,58.2 878.5,58.3 879.2,58.3 879.9,58.3 880.6,58.3 881.3,58.2 882,58 882.7,57.7 883.3,57.4 883.9,57.1 884.5,56.7 885,56.2 885.5,55.8 885.9,55.2 886.3,54.6 886.7,54 887,53.4 887.2,52.8 887.4,52.1 887.5,51.4 887.6,50.7 888.5,50.7 889.3,50.8 890.2,50.9 891,51.2 891.8,51.4 892.6,51.8 893.4,52.3 894.1,52.8 894.8,53.3 895.4,53.9 896,54.6 896.5,55.3 896.9,56.1 897.3,56.9 897.6,57.7 897.8,58.5 897.9,59.4 898,60.3 898,61.1 897.9,62 897.8,62.9 897.6,63.7 897.3,64.5 896.9,65.3 896.5,66.1 896,66.8 895.4,67.4 894.8,68.1 894.1,68.6 893.4,69.1 892.6,69.6 891.8,69.9 891,70.2 890.2,70.5 889.3,70.6 888.5,70.7" />
<path stroke="#000000" stroke-width="2" d="M 928,70" />
<path stroke="#000000" stroke-width="2" d="M 928,30" />
<path stroke="#000000" stroke-width="2" d="M 928,30 928.2,30 928.6,30 929.2,30 930.1,30.1 931.1,30.2 932.3,30.3 933.6,30.4 935.1,30.6 936.5,30.9 938,31.2 939.5,31.7 941,32.2 942.4,32.7 943.7,33.4 944.9,34.2 945.9,35.1 946.8,36.1 947.5,37.3 947.9,38.6 948,40" />
<path stroke="#000000" stroke-width="2" d="M 948,40 949.9,42.1 951.3,44.1 952,45.7 952.3,47.2 952.2,48.4 951.8,49.4 951.1,50.2 950.2,50.8 949.1,51.1 948,51.2 946.9,51.1 945.9,50.8 944.9,50.2 944.2,49.5 943.8,48.4 943.7,47.2 944,45.7 944.8,44.1 946.1,42.1 948,40" />
<path stroke="#000000" stroke-width="2" d="M 948,40 948,39.9 948,39.7 948.1,39.4 948.2,39 948.3,38.4 948.6,37.8 948.9,37.2 949.3,36.5 949.8,35.7 950.5,35 951.3,34.3 952.3,33.5 953.5,32.8 954.9,32.2 956.4,31.6 958.3,31 960.3,30.6 962.6,30.3 965.2,30.1 968,30" />
<path stroke="#000000" stroke-width="2" d="M 968,38" />
<path stroke="#000000" stroke-width="2" d="M 938,38 958,38" />
<path stroke="#000000" stroke-width="2" d="M 958,38 960,37.9 961.7,37.6 962.9,37.1 963.8,36.6 964.3,35.9 964.6,35.2 964.7,34.4 964.5,33.7 964.1,33 963.6,32.4 963,31.9 962.3,31.5 961.6,31.3 960.8,31.4 960.1,31.7 959.5,32.2 958.9,33.1 958.4,34.4 958.1,36 958,38 958,53 950.4,71.5" />
<path stroke="#000000" stroke-width="2" d="M 974.7,70" />
<path stroke="#000000" stroke-width="2" d="M 974.7,20 994.7,20 995.6,20 996.4,20.1 997.3,20.2 998.1,20.5 998.9,20.8 999.7,21.1 1000.5,21.6 1001.2,22.1 1001.9,22.6 1002.5,23.2 1003,23.9 1003.5,24.6 1004,25.4 1004.4,26.2 1004.7,27 1004.9,27.8 1005,28.7 1005.1,29.6 1005.1,30.4 1005,31.3 1004.9,32.2 1004.7,33 1004.4,33.8 1004,34.6 1003.5,35.4 1003,36.1 1002.5,36.7 1001.9,37.4 1001.2,37.9 1000.5,38.4 999.7,38.9 998.9,39.2 998.1,39.5 997.3,39.8 996.4,39.9 995.6,40" />
<path stroke="#000000" stroke-width="2" d="M 1035.1,70" />
<path stroke="#000000" stroke-width="2" d="M 1035.1,30 1050.4,67" />
<path stroke="#000000" stroke-width="2" d="M 1057.1,70" />
<path stroke="#000000" stroke-width="2" d="M 1067.1,20 1059.4,38.5" />
<path stroke="#000000" stroke-width="2" d="M 1059.4,38.5 1057.4,38.4 1055.8,38.1 1054.5,37.6 1053.7,37 1053.1,36.4 1052.8,35.6 1052.8,34.9 1052.9,34.2 1053.3,33.5 1053.8,32.9 1054.4,32.4 1055.1,32 1055.8,31.8 1056.6,31.9 1057.3,32.1 1058,32.7 1058.6,33.6 1059,34.8 1059.3,36.4 1059.4,38.5 1059.4,42.5" />
<path stroke="#000000" stroke-width="2" d="M 1059.4,42.5 1059.1,43.3 1058.8,44.2 1058.4,44.9 1058,45.6 1057.6,46.3 1057.1,46.9 1056.7,47.4 1056.2,47.9 1055.7,48.3 1055.2,48.7 1054.6,49.1 1054.1,49.4 1053.5,49.7 1053,49.9 1052.4,50.1 1051.8,50.2 1051.2,50.3 1050.6,50.4 1050,50.5 1049.4,50.5" />
<path stroke="#000000" stroke-width="2" d="M 1097.1,70" />
<path stroke="#000000" stroke-width="2" d="M 1097.1,40 1097.3,40 1097.3,40.2 1097.1,40.2 1097.1,40" />
<path stroke="#000000" stroke-width="2" d="M 1103.9,70" />
<path stroke="#000000" stroke-width="2" d="M 1103.9,30 1105.7,30 1107.4,30.2 1109.1,30.5 1110.8,30.9 1112.5,31.5 1114.1,32.2 1115.6,33.1 1117,34.1 1118.3,35.2 1119.6,36.5 1120.7,37.8 1121.7,39.2 1122.6,40.7 1123.3,42.3 1123.9,44 1124.3,45.7 1124.6,47.4 1124.8,49.1 1124.8,50.9 1124.6,52.6 1124.3,54.3 1123.9,56 1123.3,57.6 1122.6,59.2 1121.7,60.7 1120.7,62.2 1119.6,63.5 1118.3,64.7 1117,65.8 1115.6,66.8 1114.1,67.7 1112.5,68.5 1110.8,69.1 1109.1,69.5 1107.4,69.8 1105.7,70" />
<path stroke="#000000" stroke-width="2" d="M 1131.5,70" />
<path stroke="#000000" stroke-width="2" d="M 1131.5,20 1132.3,20 1133.2,20.1 1134.1,20.2 1134.9,20.5 1135.7,20.8 1136.5,21.1 1137.3,21.6 1138,22.1 1138.7,22.6 1139.3,23.2 1139.8,23.9 1140.3,24.6 1140.8,25.4 1141.1,26.2 1141.4,27 1141.7,27.8 1141.8,28.7 1141.9,29.6 1141.9,30.4 1141.8,31.3 1141.7,32.2 1141.4,33 1141.1,33.8 1140.8,34.6 1140.3,35.4 1139.8,36.1 1139.3,36.7 1138.7,37.4 1138,37.9 1137.3,38.4 1136.5,38.9 1135.7,39.2 1134.9,39.5 1134.1,39.8 1133.2,39.9 1132.3,40" />
<path stroke="#000000" stroke-width="2" d="M 1171.9,70" />
<path stroke="#000000" stroke-width="2" d="M 1171.9,30 1171.9,70 1171.9,58 1171.9,56.3 1172,54.5 1172.3,52.8 1172.8,51.1 1173.4,49.5 1174.1,47.9 1175,46.4 1176,45 1177.1,43.6 1178.4,42.4 1179.7,41.3 1181.1,40.3 1182.6,39.4 1184.2,38.7 1185.9,38.1 1187.5,37.6 1189.3,37.3 1191,37.1" />
<path stroke="#000000" stroke-width="2" d="M 1197.7,70" />
<path stroke="#000000" stroke-width="2" d="M 1197.7,20 1197.7,20.7 1197.7,21.4 1197.8,22.1 1198,22.8 1198.3,23.4 1198.6,24 1198.9,24.6 1199.3,25.2 1199.8,25.8 1200.3,26.2 1200.8,26.7 1201.4,27.1 1202,27.4 1202.6,27.7 1203.3,28 1203.9,28.2 1204.6,28.3 1205.3,28.3 1206,28.3 1206.7,28.3 1207.4,28.2 1208.1,28 1208.7,27.7 1209.4,27.4 1210,27.1 1210.5,26.7 1211.1,26.2 1211.6,25.8 1212,25.2 1212.4,24.6 1212.8,24 1213.1,23.4 1213.3,22.8 1213.5,22.1 1213.6,21.4 1213.7,20.7" />
<path stroke="#000000" stroke-width="2" d="M 1220.3,70" />
<path stroke="#000000" stroke-width="2" d="M 1230.3,20 1222.7,38.5" />
<path stroke="#000000" stroke-width="2" d="M 1237,70" />
<path stroke="#000000" stroke-width="2" d="M 1237,30 1252.3,67 1267.6,30" />
<path stroke="#000000" stroke-width="2" d="M 1297.6,70" />
<path stroke="#000000" stroke-width="2" d="M 1307.6,30 1306.7,30 1305.9,30.1 1305,30.2 1304.2,30.5 1303.3,30.8 1302.5,31.1 1301.8,31.6 1301.1,32.1 1300.4,32.6 1299.8,33.2 1299.2,33.9 1298.7,34.6 1298.3,35.4 1297.9,36.2 1297.6,37 1297.4,37.8 1297.2,38.7 1297.2,39.6 1297.2,40.4 1297.2,41.3 1297.4,42.2 1297.6,43 1297.9,43.8 1298.3,44.6 1298.7,45.4 1299.2,46.1 1299.8,46.7 1300.4,47.4 1301.1,47.9 1301.8,48.4 1302.5,48.9 1303.3,49.2 1304.2,49.5 1305,49.8 1305.9,49.9 1306.7,50 1306.7,70 1306.7,64 1306.7,63.1 1306.8,62.2 1307,61.4 1307.2,60.5 1307.5,59.7 1307.8,58.9 1308.3,58.2 1308.8,57.5 1309.3,56.8 1310,56.2 1310.6,55.6 1311.3,55.1 1312.1,54.7 1312.9,54.3 1313.7,54 1314.6,53.8 1315.4,53.6 1316.3,53.6" />
<path stroke="#000000" stroke-width="2" d="M 1346.3,70" />
<path stroke="#000000" stroke-width="2" d="M 1348.3,50 1353.6,37.1 1353.8,36.7 1353.9,36.4 1354,36.1 1354,35.7 1354,35.4 1354,35 1354,34.7 1353.9,34.3 1353.8,34 1353.6,33.7 1353.5,33.4 1353.3,33.1 1353.1,32.8 1352.8,32.5 1352.6,32.3 1352.3,32.1 1352,31.9 1351.7,31.7 1351.4,31.6 1351,31.5 1350.7,31.4 1350.4,31.4 1350,31.4 1349.7,31.4 1349.3,31.4 1349,31.5 1348.6,31.6 1348.3,31.7 1348,31.9 1347.7,32.1 1347.4,32.3 1347.2,32.5 1347,32.8 1346.7,33.1 1346.6,33.4 1346.4,33.7 1346.3,34 1346.2,34.3 1346.1,34.7 1346,35 1346,35.4 1346,35.7 1346.1,36.1 1346.2,36.4 1346.3,36.7 1346.4,37.1 1346.6,37.4 1346.7,37.7 1347,37.9 1347.2,38.2 1347.4,38.4 1347.7,38.7 1348,38.8 1348.3,39 1348.6,39.1 1349,39.2 1349.3,39.3 1349.7,39.4 1350,39.4 1350.4,39.4 1363.3,34 1371,52.5 1378.6,34 1398.6,34" />
<path stroke="#000000" stroke-width="2" d="M 1428.6,70" />
<path stroke="#000000" stroke-width="2" d="M 1428.6,30 1428.6,38 1428.6,39 1428.7,40.1 1428.9,41.1 1429.1,42.1 1429.5,43.1 1429.9,44.1 1430.5,45 1431.1,45.8 1431.7,46.6 1432.5,47.4 1433.3,48 1434.1,48.6 1435.1,49.2 1436,49.6 1437,50 1438,50.2 1439,50.4 1440.1,50.5 1441.1,50.5 1442.2,50.4 1443.2,50.2 1444.2,50 1445.2,49.6 1446.1,49.2 1447,48.6 1447.9,48 1448.7,47.4 1449.4,46.6 1450.1,45.8 1450.7,45 1451.2,44.1 1451.7,43.1 1452,42.1 1452.3,41.1 1452.5,40.1 1452.6,39 1452.6,29 1452.6,69" />
<path stroke="#000000" stroke-width="2" d="M 1459.2,70" />
<path stroke="#000000" stroke-width="2" d="M 1459.2,50 1460.1,50 1461,50.1 1461.8,50.2 1462.7,50.5 1463.5,50.8 1464.3,51.1 1465.1,51.6 1465.8,52.1 1466.4,52.6 1467.1,53.2 1467.6,53.9 1468.1,54.6 1468.6,55.4 1468.9,56.2 1469.2,57 1469.4,57.8 1469.6,58.7 1469.7,59.6 1469.7,60.4 1469.6,61.3 1469.4,62.2 1469.2,63 1468.9,63.8 1468.6,64.6 1468.1,65.4 1467.6,66.1 1467.1,66.7 1466.4,67.4 1465.8,67.9 1465.1,68.4 1464.3,68.9 1463.5,69.2 1462.7,69.5 1461.8,69.8 1461,69.9 1460.1,70" />
<path stroke="#000000" stroke-width="2" d="M 1499.7,70" />
<path stroke="#000000" stroke-width="2" d="M 1499.7,70" />
<path stroke="#000000" stroke-width="2" d="M 1499.7,70 1500.8,70 1501.8,70.2 1502.6,70.4 1503.3,70.7 1503.9,71 1504.3,71.5 1504.7,71.9 1504.9,72.5 1504.9,73.1 1504.9,73.8 1504.8,74.4 1504.6,75.2 1504.2,76 1503.8,76.8 1503.3,77.6 1502.7,78.4 1502.1,79.3 1501.3,80.2 1500.5,81.1 1499.7,82" />
<path stroke="#000000" stroke-width="2" d="M 1534.9,70" />
<path stroke="#000000" stroke-width="2" d="M 1534.9,30 1534.9,70" />
<path stroke="#000000" stroke-width="2" d="M 1541.6,70" />
<path stroke="#000000" stroke-width="2" d="M 1551.6,50 1544,68.5" />
<path stroke="#000000" stroke-width="2" d="M 1581.6,70" />
</svg>