<svg xmlns="http://www.w3.org/2000/svg" width="1609.4964048795841" height="92.2836140246614" style="fill:none; stroke-linecap:round;">
    <rect width="100%" height="100%" fill="#FFFFFF" />
<path stroke="#000000" stroke-width="2" d="M 550,75" />
<path stroke="#000000" stroke-width="2" d="M 20,30 20,50 30,50 37.7,68.5 45.3,50" />
<path stroke="#000000" stroke-width="2" d="M 75.3,70" />
<path stroke="#000000" stroke-width="2" d="M 75.3,30 95.3,30 103,48.5 110.6,30" />
<path stroke="#000000" stroke-width="2" d="M 110.6,40" />
<path stroke="#000000" stroke-width="2" d="M 94.6,40 111.6,40" />
<path stroke="#000000" stroke-width="2" d="M 141.6,70" />
<path stroke="#000000" stroke-width="2" d="M 141.6,30 141.6,70" />
<path stroke="#000000" stroke-width="2" d="M 148.3,70" />
<path stroke="#000000" stroke-width="2" d="M 148.3,20 168.3,20" />
<path stroke="#000000" stroke-width="2" d="M 198.3,70" />
<path stroke="#000000" stroke-width="2" d="M 198.3,40 198.5,40 198.5,40.2 198.3,40.2 198.3,40" />
<path stroke="#000000" stroke-width="2" d="M 205.1,70" />
<path stroke="#000000" stroke-width="2" d="M 205.1,30 205.1,70 205.1,58 205.1,56.3 205.3,54.5 205.6,52.8 206.1,51.1 206.7,49.5 207.4,47.9 208.3,46.4 209.3,45 210.4,43.6 211.6,42.4 213,41.3 214.4,40.3 215.9,39.4 217.5,38.7 219.1,38.1 220.8,37.6 222.5,37.3 224.3,37.1" />
<path stroke="#000000" stroke-width="2" d="M 230.9,70" />
<path stroke="#000000" stroke-width="2" d="M 230.9,20 230.9,20.7 231,21.4 231.1,22.1 231.3,22.8 231.5,23.4 231.8,24 232.2,24.6 232.6,25.2 233,25.8 233.5,26.2 234,26.7 234.6,27.1 235.2,27.4 235.9,27.7 236.5,28 237.2,28.2 237.9,28.3 238.6,28.3 239.3,28.3 240,28.3 240.6,28.2 241.3,28 242,27.7 242.6,27.4 243.2,27.1 243.8,26.7 244.3,26.2 244.8,25.8 245.3,25.2 245.7,24.6 246,24 246.3,23.4 246.5,22.8 246.7,22.1 246.8,21.4 246.9,20.7" />
<path stroke="#000000" stroke-width="2" d="M 253.6,70" />
<path stroke="#000000" stroke-width="2" d="M 273.6,30 273.6,70 253.6,70" />
<path stroke="#000000" stroke-width="2" d="M 280.2,70" />
<path stroke="#000000" stroke-width="2" d="M 280.2,30" />
<path stroke="#000000" stroke-width="2" d="M 280.2,30 280.4,30 280.8,30 281.5,30 282.3,30.1 283.4,30.2 284.6,30.3 285.9,30.4 287.3,30.6 288.7,30.9 290.2,31.2 291.7,31.7 293.2,32.2 294.6,32.7 295.9,33.4 297.1,34.2 298.2,35.1 299,36.1 299.7,37.3 300.1,38.6 300.2,40" />
<path stroke="#000000" stroke-width="2" d="M 300.2,40 302.2,42.1 303.5,44.1 304.3,45.7 304.6,47.2 304.5,48.4 304,49.4 303.3,50.2 302.4,50.8 301.4,51.1 300.2,51.2 299.1,51.1 298.1,50.8 297.2,50.2 296.5,49.5 296,48.4 295.9,47.2 296.2,45.7 297,44.1 298.3,42.1 300.2,40" />
<path stroke="#000000" stroke-width="2" d="M 300.2,40 300.2,39.9 300.3,39.7 300.3,39.4 300.4,39 300.6,38.4 300.8,37.8 301.1,37.2 301.5,36.5 302.1,35.7 302.7,35 303.6,34.3 304.6,33.5 305.7,32.8 307.1,32.2 308.7,31.6 310.5,31 312.5,30.6 314.8,30.3 317.4,30.1 320.2,30" />
<path stroke="#000000" stroke-width="2" d="M 320.2,30 322.3,29.9 323.9,29.6 325.1,29.1 326,28.6 326.6,27.9 326.9,27.2 326.9,26.4 326.7,25.7 326.4,25 325.9,24.4 325.3,23.9 324.6,23.5 323.8,23.3 323.1,23.4 322.4,23.7 321.7,24.2 321.1,25.1 320.6,26.4 320.3,28 320.2,30 320.2,45" />
<path stroke="#000000" stroke-width="2" d="M 356.9,70" />
<path stroke="#000000" stroke-width="2" d="M 366.9,30 366,30 365.2,30.1 364.3,30.2 363.5,30.5 362.6,30.8 361.8,31.1 361.1,31.6 360.4,32.1 359.7,32.6 359.1,33.2 358.5,33.9 358,34.6 357.6,35.4 357.2,36.2 356.9,37 356.7,37.8 356.5,38.7 356.5,39.6 356.5,40.4 356.5,41.3 356.7,42.2 356.9,43 357.2,43.8 357.6,44.6 358,45.4 358.5,46.1 359.1,46.7 359.7,47.4 360.4,47.9 361.1,48.4 361.8,48.9 362.6,49.2 363.5,49.5 364.3,49.8 365.2,49.9 366,50 366,70 366,64 366,63.1 366.1,62.2 366.3,61.4 366.5,60.5 366.8,59.7 367.1,58.9 367.6,58.2 368.1,57.5 368.6,56.8 369.3,56.2 369.9,55.6 370.6,55.1 371.4,54.7 372.2,54.3 373,54 373.8,53.8 374.7,53.6 375.6,53.6" />
<path stroke="#000000" stroke-width="2" d="M 405.6,70" />
<path stroke="#000000" stroke-width="2" d="M 405.6,35" />
<path stroke="#000000" stroke-width="2" d="M 405.6,35 407.6,34.9 409.2,34.6 410.5,34.1 411.3,33.6 411.9,32.9 412.2,32.2 412.2,31.4 412.1,30.7 411.7,30 411.2,29.4 410.6,28.9 409.9,28.5 409.2,28.3 408.4,28.4 407.7,28.7 407,29.2 406.4,30.1 406,31.4 405.7,33 405.6,35 405.6,50" />
<path stroke="#000000" stroke-width="2" d="M 405.6,50 405.5,52 405.2,53.6 404.7,54.9 404.1,55.8 403.5,56.3 402.7,56.6 402,56.7 401.3,56.5 400.6,56.1 400,55.6 399.5,55 399.1,54.3 398.9,53.6 399,52.8 399.2,52.1 399.8,51.4 400.7,50.9 401.9,50.4 403.5,50.1 405.6,50 415.6,50" />
<path stroke="#000000" stroke-width="2" d="M 422.2,70" />
<path stroke="#000000" stroke-width="2" d="M 422.2,30 422.2,70 422.2,58 422.2,56.3 422.4,54.5 422.7,52.8 423.2,51.1 423.7,49.5 424.5,47.9 425.4,46.4 426.4,45 427.5,43.6 428.7,42.4 430.1,41.3 431.5,40.3 433,39.4 434.6,38.7 436.2,38.1 437.9,37.6 439.6,37.3 441.4,37.1" />
<path stroke="#000000" stroke-width="2" d="M 448,70" />
<path stroke="#000000" stroke-width="2" d="M 448,30 467.8,49.8 448,69.6" />
<path stroke="#000000" stroke-width="2" d="M 474.5,70" />
<path stroke="#000000" stroke-width="2" d="M 474.5,70 482.1,51.5 482.1,52.2 482.2,52.9 482.3,53.6 482.5,54.3 482.7,54.9 483,55.6 483.4,56.2 483.8,56.7 484.2,57.3 484.7,57.8 485.3,58.2 485.8,58.6 486.4,59 487.1,59.3 487.7,59.5 488.4,59.7 489.1,59.8 489.8,59.9 490.5,59.9 491.2,59.8 491.9,59.7 492.5,59.5 493.2,59.3 493.8,59 494.4,58.6 495,58.2 495.5,57.8 496,57.3 496.5,56.7 496.9,56.2 497.2,55.6 497.5,54.9 497.8,54.3 497.9,53.6 498.1,52.9 498.1,52.2" />
<path stroke="#000000" stroke-width="2" d="M 528.1,70" />
<path stroke="#000000" stroke-width="2" d="M 544.1,30" />
<path stroke="#000000" stroke-width="2" d="M 544.1,30 543.9,34.1 543.3,37.3 542.4,39.8 541.2,41.5 539.9,42.7 538.5,43.2 537,43.3 535.5,43 534.1,42.3 532.9,41.2 531.9,40 531.2,38.6 530.8,37.2 530.9,35.7 531.5,34.2 532.6,32.9 534.4,31.7 536.8,30.8 540.1,30.2 544.1,30 564.1,30" />
<path stroke="#000000" stroke-width="2" d="M 570.8,70" />
<path stroke="#000000" stroke-width="2" d="M 570.8,20 570.8,40 570.8,34 570.8,33.1 570.9,32.3 571,31.4 571.2,30.6 571.5,29.7 571.9,28.9 572.3,28.2 572.8,27.5 573.4,26.8 574,26.2 574.7,25.6 575.4,25.1 576.2,24.7 577,24.3 577.8,24 578.6,23.8 579.5,23.6 580.3,23.6" />
<path stroke="#000000" stroke-width="2" d="M 580.3,23.6 582.4,23.5 584,23.2 585.2,22.7 586.1,22.1 586.7,21.5 587,20.7 587,20 586.8,19.3 586.5,18.6 586,17.9 585.4,17.4 584.7,17.1 583.9,16.9 583.2,17 582.5,17.2 581.8,17.8 581.2,18.7 580.7,19.9 580.5,21.5 580.3,23.6 580.3,38.6" />
<path stroke="#000000" stroke-width="2" d="M 593.7,70" />
<path stroke="#000000" stroke-width="2" d="M 593.7,50 613.7,50" />
<path stroke="#000000" stroke-width="2" d="M 643.7,70" />
<path stroke="#000000" stroke-width="2" d="M 643.7,70 643.9,70 643.9,70.2 643.7,70.2 643.7,70" />
<path stroke="#000000" stroke-width="2" d="M 673.9,70" />
<path stroke="#000000" stroke-width="2" d="M 673.9,70 685.3,42.3" />
<path stroke="#000000" stroke-width="2" d="M 685.3,42.3 689.4,42.1 692.6,41.5 695.1,40.6 696.9,39.4 698,38.1 698.6,36.6 698.7,35.1 698.3,33.6 697.6,32.3 696.6,31 695.4,30 694,29.3 692.5,29 691,29.1 689.6,29.6 688.2,30.8 687.1,32.5 686.2,35 685.6,38.2 685.3,42.3 685.3,72.3" />
<path stroke="#000000" stroke-width="2" d="M 728.7,70" />
<path stroke="#000000" stroke-width="2" d="M 728.7,40" />
<path stroke="#000000" stroke-width="2" d="M 728.7,40 732.7,39.8 735.9,39.2 738.4,38.3 740.2,37.1 741.3,35.8 741.9,34.3 742,32.8 741.6,31.4 740.9,30 739.9,28.8 738.7,27.7 737.3,27 735.8,26.7 734.3,26.8 732.9,27.3 731.5,28.5 730.4,30.2 729.5,32.7 728.9,35.9 728.7,40 728.7,70" />
<path stroke="#000000" stroke-width="2" d="M 748.6,70" />
<path stroke="#000000" stroke-width="2" d="M 748.6,50 758.5,59.9 748.6,69.8" />
<path stroke="#000000" stroke-width="2" d="M 788.5,70" />
<path stroke="#000000" stroke-width="2" d="M 788.5,30 788.5,70 808.5,70" />
<path stroke="#000000" stroke-width="2" d="M 838.5,70" />
<path stroke="#000000" stroke-width="2" d="M 838.5,30 858.3,49.8 838.5,69.6" />
<path stroke="#000000" stroke-width="2" d="M 865,70" />
<path stroke="#000000" stroke-width="2" d="M 865,20 865,20.7 865.1,21.4 865.2,22.1 865.4,22.8 865.6,23.4 865.9,24 866.2,24.6 866.6,25.2 867.1,25.8 867.6,26.2 868.1,26.7 868.7,27.1 869.3,27.4 869.9,27.7 870.6,28 871.3,28.2 871.9,28.3 872.6,28.3 873.3,28.3 874,28.3 874.7,28.2 875.4,28 876,27.7 876.7,27.4 877.3,27.1 877.9,26.7 878.4,26.2 878.9,25.8 879.3,25.2 879.7,24.6 880.1,24 880.4,23.4 880.6,22.8 880.8,22.1 880.9,21.4 881,20.7 881,20 881,19.3 881.2,18.6 881.3,17.9 881.6,17.3 881.9,16.7 882.2,16.1 882.6,15.5 883.1,14.9 883.6,14.5 884.1,14 884.7,13.6 885.3,13.3 885.9,13 886.6,12.7 887.2,12.5 887.9,12.4 888.6,12.4 889.3,12.4 890,12.4 890.7,12.5 891.4,12.7 892,13 892.7,13.3 893.3,13.6 893.8,14 894.4,14.5 894.9,14.9 895.3,15.5 895.7,16.1 896.1,16.7 896.4,17.3 896.6,17.9 896.8,18.6 896.9,19.3 897,20" />
<path stroke="#000000" stroke-width="2" d="M 897,20 898.4,20.1 899.7,20.6 900.8,21.2 901.8,22.1 902.6,23.1 903.3,24.3 903.8,25.6 904.2,27 904.4,28.5 904.5,30 904.4,31.5 904.2,33 903.8,34.4 903.3,35.7 902.6,36.9 901.8,37.9 900.8,38.8 899.7,39.4 898.4,39.9 897,40" />
<path stroke="#000000" stroke-width="2" d="M 934.5,70" />
<path stroke="#000000" stroke-width="2" d="M 934.5,70 934.7,70 934.7,70.2 934.5,70.2 934.5,70" />
<path stroke="#000000" stroke-width="2" d="M 941.3,70" />
<path stroke="#000000" stroke-width="2" d="M 957.3,30 937.5,49.8 957.3,69.6" />
<path stroke="#000000" stroke-width="2" d="M 964,70" />
<path stroke="#000000" stroke-width="2" d="M 964,50 964,50.7 964.1,51.4 964.2,52.1 964.4,52.8 964.6,53.4 964.9,54 965.2,54.6 965.6,55.2 966.1,55.8 966.6,56.2 967.1,56.7 967.7,57.1 968.3,57.4 968.9,57.7 969.6,58 970.3,58.2 970.9,58.3 971.6,58.3 972.3,58.3 973,58.3 973.7,58.2 974.4,58 975.1,57.7 975.7,57.4 976.3,57.1 976.9,56.7 977.4,56.2 977.9,55.8 978.3,55.2 978.7,54.6 979.1,54 979.4,53.4 979.6,52.8 979.8,52.1 979.9,51.4 980,50.7" />
<path stroke="#000000" stroke-width="2" d="M 1010,70" />
<path stroke="#000000" stroke-width="2" d="M 1034,42" />
<path stroke="#000000" stroke-width="2" d="M 1034,42 1029.9,41.8 1026.7,41.2 1024.2,40.3 1022.5,39.1 1021.3,37.8 1020.8,36.3 1020.7,34.8 1021,33.4 1021.7,32 1022.7,30.8 1024,29.7 1025.3,29 1026.8,28.7 1028.3,28.8 1029.8,29.3 1031.1,30.5 1032.3,32.2 1033.2,34.7 1033.8,37.9 1034,42 1034,50" />
<path stroke="#000000" stroke-width="2" d="M 1034,50 1033.4,51.7 1032.7,53.4 1031.9,54.9 1031.1,56.3 1030.3,57.6 1029.4,58.7 1028.5,59.8 1027.5,60.8 1026.5,61.7 1025.5,62.5 1024.4,63.2 1023.3,63.8 1022.2,64.4 1021.1,64.8 1019.9,65.2 1018.8,65.5 1017.6,65.7 1016.4,65.9 1015.2,66 1014,66" />
<path stroke="#000000" stroke-width="2" d="M 1064,70" />
<path stroke="#000000" stroke-width="2" d="M 1064,30" />
<path stroke="#000000" stroke-width="2" d="M 1064,30 1064.1,30 1064.5,30 1065.2,30 1066.1,30.1 1067.1,30.2 1068.3,30.3 1069.6,30.4 1071,30.6 1072.5,30.9 1074,31.2 1075.5,31.7 1076.9,32.2 1078.3,32.7 1079.7,33.4 1080.9,34.2 1081.9,35.1 1082.8,36.1 1083.4,37.3 1083.8,38.6 1084,40" />
<path stroke="#000000" stroke-width="2" d="M 1084,40 1085.9,42.1 1087.2,44.1 1088,45.7 1088.3,47.2 1088.2,48.4 1087.8,49.4 1087.1,50.2 1086.1,50.8 1085.1,51.1 1084,51.2 1082.9,51.1 1081.8,50.8 1080.9,50.2 1080.2,49.5 1079.8,48.4 1079.7,47.2 1080,45.7 1080.7,44.1 1082.1,42.1 1084,40" />
<path stroke="#000000" stroke-width="2" d="M 1084,40 1084,39.9 1084,39.7 1084.1,39.4 1084.1,39 1084.3,38.4 1084.5,37.8 1084.8,37.2 1085.3,36.5 1085.8,35.7 1086.5,35 1087.3,34.3 1088.3,33.5 1089.5,32.8 1090.8,32.2 1092.4,31.6 1094.2,31 1096.3,30.6 1098.6,30.3 1101.1,30.1 1104,30" />
<path stroke="#000000" stroke-width="2" d="M 1104,30 1103.9,32 1103.6,33.6 1103.1,34.9 1102.5,35.8 1101.9,36.3 1101.1,36.6 1100.4,36.7 1099.7,36.5 1099,36.1 1098.4,35.6 1097.9,35 1097.5,34.3 1097.3,33.6 1097.4,32.8 1097.7,32.1 1098.2,31.4 1099.1,30.9 1100.3,30.4 1102,30.1 1104,30 1114,30" />
<path stroke="#000000" stroke-width="2" d="M 1144,70" />
<path stroke="#000000" stroke-width="2" d="M 1164,30 1148.7,67" />
<path stroke="#000000" stroke-width="2" d="M 1170.6,70" />
<path stroke="#000000" stroke-width="2" d="M 1170.6,50 1178.3,68.5 1186,50" />
<path stroke="#000000" stroke-width="2" d="M 1186,60" />
<path stroke="#000000" stroke-width="2" d="M 1170,60 1187,60" />
<path stroke="#000000" stroke-width="2" d="M 1217,70" />
<path stroke="#000000" stroke-width="2" d="M 1237,30 1217.2,49.8" />
<path stroke="#000000" stroke-width="2" d="M 1217.2,29.8 1237,49.6" />
<path stroke="#000000" stroke-width="2" d="M 1237,49.6 1236.9,47.6 1236.6,46 1236.1,44.7 1235.5,43.8 1234.8,43.3 1234.1,43 1233.4,42.9 1232.6,43.1 1231.9,43.5 1231.3,44 1230.8,44.6 1230.5,45.3 1230.3,46 1230.3,46.8 1230.6,47.5 1231.2,48.2 1232.1,48.7 1233.3,49.2 1234.9,49.5 1237,49.6 1241,49.6" />
<path stroke="#000000" stroke-width="2" d="M 1241,49.6 1241.8,49.3 1242.6,48.9 1243.4,48.6 1244.1,48.2 1244.7,47.8 1245.3,47.3 1245.9,46.8 1246.4,46.4 1246.8,45.9 1247.2,45.3 1247.6,44.8 1247.9,44.3 1248.1,43.7 1248.4,43.1 1248.6,42.6 1248.7,42 1248.8,41.4 1248.9,40.8 1248.9,40.2 1249,39.6" />
<path stroke="#000000" stroke-width="2" d="M 1255.6,70" />
<path stroke="#000000" stroke-width="2" d="M 1255.6,20 1275.6,20" />
<path stroke="#000000" stroke-width="2" d="M 1282.3,70" />
<path stroke="#000000" stroke-width="2" d="M 1290.3,20 1290.3,35" />
<path stroke="#000000" stroke-width="2" d="M 1290.3,35 1290.2,37 1289.9,38.6 1289.4,39.9 1288.9,40.8 1288.2,41.3 1287.5,41.6 1286.7,41.7 1286,41.5 1285.3,41.1 1284.7,40.6 1284.2,40 1283.8,39.3 1283.6,38.6 1283.7,37.8 1284,37.1 1284.5,36.4 1285.4,35.9 1286.6,35.4 1288.3,35.1 1290.3,35 1310.3,35" />
<path stroke="#000000" stroke-width="2" d="M 1340.3,70" />
<path stroke="#000000" stroke-width="2" d="M 1360.3,30 1345,67" />
<path stroke="#000000" stroke-width="2" d="M 1367,70" />
<path stroke="#000000" stroke-width="2" d="M 1367,50 1367.2,50 1367.2,50.2 1367,50.2 1367,50" />
<path stroke="#000000" stroke-width="2" d="M 1397.2,70" />
<path stroke="#000000" stroke-width="2" d="M 1397.2,30 1437.2,30" />
<path stroke="#000000" stroke-width="2" d="M 1467.2,70" />
<path stroke="#000000" stroke-width="2" d="M 1467.2,30" />
<path stroke="#000000" stroke-width="2" d="M 1467.2,30 1470,30.3 1472.6,31.1 1474.8,32.4 1476.8,34.2 1478.4,36.2 1479.8,38.6 1480.8,41.3 1481.6,44.1 1482,47 1482.2,50 1482,53 1481.6,55.9 1480.8,58.7 1479.8,61.4 1478.4,63.8 1476.8,65.8 1474.8,67.6 1472.6,68.9 1470,69.7 1467.2,70" />
<path stroke="#000000" stroke-width="2" d="M 1512.2,70" />
<path stroke="#000000" stroke-width="2" d="M 1516.2,70 1526.9,44.1 1527.1,43.5 1527.3,42.8 1527.5,42.1 1527.6,41.4 1527.6,40.8 1527.6,40.1 1527.5,39.4 1527.3,38.7 1527.1,38 1526.9,37.4 1526.5,36.8 1526.2,36.2 1525.8,35.6 1525.3,35.1 1524.8,34.6 1524.2,34.2 1523.6,33.8 1523,33.5 1522.4,33.2 1521.7,33 1521,32.9 1520.3,32.8 1519.6,32.8 1518.9,32.8 1518.2,32.9 1517.6,33 1516.9,33.2 1516.2,33.5 1515.6,33.8 1515,34.2 1514.5,34.6 1514,35.1 1513.5,35.6 1513.1,36.2 1512.7,36.8 1512.4,37.4 1512.1,38 1511.9,38.7 1511.7,39.4 1511.7,40.1 1511.6,40.8 1511.7,41.4 1511.7,42.1 1511.9,42.8 1512.1,43.5 1512.4,44.1 1512.7,44.8 1513.1,45.3 1513.5,45.9 1514,46.4 1514.5,46.9 1515,47.3 1515.6,47.7 1516.2,48 1516.9,48.3 1517.6,48.5 1518.2,48.6 1518.9,48.7 1519.6,48.8 1520.3,48.7 1546.2,38" />
<path stroke="#000000" stroke-width="2" d="M 1576.2,70" />
<path stroke="#000000" stroke-width="2" d="M 1576.2,40" />
<path stroke="#000000" stroke-width="2" d="M 1576.2,40 1580.2,39.8 1583.5,39.2 1585.9,38.3 1587.7,37.1 1588.8,35.8 1589.4,34.3 1589.5,32.8 1589.1,31.4 1588.4,30 1587.4,28.7 1586.2,27.7 1584.8,27 1583.4,26.7 1581.9,26.8 1580.4,27.3 1579.1,28.5 1577.9,30.2 1577,32.7 1576.4,35.9 1576.2,40 1576.2,70" />
<path stroke="#000000" stroke-width="2" d="M 1619.5,70" />
</svg>