<svg xmlns="http://www.w3.org/2000/svg" width="1343.9546492500651" height="108.47759065022574" style="fill:none; stroke-linecap:round;">
    <rect width="100%" height="100%" fill="#FFFFFF" />
<path stroke="#000000" stroke-width="2" d="M 550,75" />
<path stroke="#000000" stroke-width="2" d="M 20,70 20.2,70 20.2,70.2 20,70.2 20,70" />
<path stroke="#000000" stroke-width="2" d="M 26.9,70" />
<path stroke="#000000" stroke-width="2" d="M 26.9,40" />
<path stroke="#000000" stroke-width="2" d="M 26.9,40 30.9,39.8 34.2,39.2 36.6,38.3 38.4,37.1 39.5,35.8 40.1,34.3 40.2,32.8 39.8,31.4 39.1,30 38.1,28.8 36.9,27.7 35.5,27 34,26.7 32.5,26.8 31.1,27.3 29.7,28.5 28.6,30.2 27.7,32.7 27.1,35.9 26.9,40 26.9,70" />
<path stroke="#000000" stroke-width="2" d="M 46.8,70" />
<path stroke="#000000" stroke-width="2" d="M 46.8,40 46.8,39.3 46.9,38.6 47,37.9 47.2,37.2 47.4,36.6 47.7,36 48.1,35.4 48.5,34.8 48.9,34.2 49.4,33.8 50,33.3 50.5,32.9 51.1,32.6 51.8,32.3 52.4,32 53.1,31.8 53.8,31.7 54.5,31.7 55.2,31.7 55.9,31.7 56.6,31.8 57.2,32 57.9,32.3 58.5,32.6 59.1,32.9 59.7,33.3 60.2,33.8 60.7,34.2 61.2,34.8 61.6,35.4 61.9,36 62.2,36.6 62.5,37.2 62.6,37.9 62.8,38.6 62.8,39.3" />
<path stroke="#000000" stroke-width="2" d="M 62.8,35.3" />
<path stroke="#000000" stroke-width="2" d="M 56.8,35.3 66.8,35.3" />
<path stroke="#000000" stroke-width="2" d="M 66.8,35.3 68.3,35.4 69.5,35.9 70.7,36.5 71.6,37.4 72.5,38.4 73.1,39.6 73.7,40.9 74,42.3 74.3,43.8 74.3,45.3 74.3,46.8 74,48.3 73.7,49.7 73.1,51 72.5,52.2 71.6,53.2 70.7,54.1 69.5,54.7 68.3,55.2 66.8,55.3" />
<path stroke="#000000" stroke-width="2" d="M 104.3,70" />
<path stroke="#000000" stroke-width="2" d="M 104.3,30 104.3,31.4 104.4,32.8 104.7,34.2 105.1,35.5 105.5,36.8 106.1,38.1 106.8,39.3 107.6,40.4 108.5,41.5 109.5,42.5 110.6,43.4 111.7,44.2 112.9,44.9 114.2,45.5 115.5,46 116.8,46.3 118.2,46.6 119.6,46.7 121,46.7 122.4,46.6 123.8,46.3 125.1,46 126.4,45.5 127.7,44.9 128.9,44.2 130.1,43.4 131.1,42.5 132.1,41.5 133,40.4 133.8,39.3 134.5,38.1 135.1,36.8 135.6,35.5 135.9,34.2 136.2,32.8 136.3,31.4" />
<path stroke="#000000" stroke-width="2" d="M 143,70" />
<path stroke="#000000" stroke-width="2" d="M 143,70 143,69.3 143,68.6 143.1,67.9 143.3,67.2 143.6,66.6 143.9,66 144.2,65.4 144.6,64.8 145.1,64.2 145.6,63.8 146.1,63.3 146.7,62.9 147.3,62.6 147.9,62.3 148.5,62 149.2,61.8 149.9,61.7 150.6,61.7 151.3,61.7 152,61.7 152.7,61.8 153.4,62 154,62.3 154.6,62.6 155.3,62.9 155.8,63.3 156.4,63.8 156.9,64.2 157.3,64.8 157.7,65.4 158.1,66 158.3,66.6 158.6,67.2 158.8,67.9 158.9,68.6 158.9,69.3" />
<path stroke="#000000" stroke-width="2" d="M 165.6,70" />
<path stroke="#000000" stroke-width="2" d="M 173.6,20 173.6,35" />
<path stroke="#000000" stroke-width="2" d="M 173.6,35 173.5,37 173.2,38.6 172.8,39.9 172.2,40.8 171.5,41.3 170.8,41.6 170,41.7 169.3,41.5 168.6,41.1 168,40.6 167.5,40 167.1,39.3 167,38.6 167,37.8 167.3,37.1 167.9,36.4 168.7,35.9 170,35.4 171.6,35.1 173.6,35 193.6,35" />
<path stroke="#000000" stroke-width="2" d="M 223.6,70" />
<path stroke="#000000" stroke-width="2" d="M 223.6,30 223.6,70 234.9,58.7" />
<path stroke="#000000" stroke-width="2" d="M 241.6,70" />
<path stroke="#000000" stroke-width="2" d="M 241.6,25" />
<path stroke="#000000" stroke-width="2" d="M 241.6,25 243.6,24.9 245.2,24.6 246.5,24.1 247.4,23.6 247.9,22.9 248.2,22.2 248.2,21.4 248.1,20.7 247.7,20 247.2,19.4 246.6,18.9 245.9,18.5 245.2,18.3 244.4,18.4 243.7,18.7 243,19.2 242.5,20.1 242,21.4 241.7,23 241.6,25 241.6,40" />
<path stroke="#000000" stroke-width="2" d="M 278.2,70" />
<path stroke="#000000" stroke-width="2" d="M 294.2,30" />
<path stroke="#000000" stroke-width="2" d="M 294.2,30 294,34.1 293.4,37.3 292.5,39.8 291.4,41.5 290,42.7 288.6,43.2 287.1,43.3 285.6,43 284.2,42.3 283,41.2 282,40 281.3,38.6 280.9,37.2 281,35.7 281.6,34.2 282.7,32.9 284.5,31.7 287,30.8 290.2,30.2 294.2,30 314.2,30" />
<path stroke="#000000" stroke-width="2" d="M 320.9,70" />
<path stroke="#000000" stroke-width="2" d="M 320.9,55" />
<path stroke="#000000" stroke-width="2" d="M 320.9,55 322.9,54.9 324.6,54.6 325.8,54.1 326.7,53.6 327.2,52.9 327.5,52.2 327.6,51.4 327.4,50.7 327,50 326.5,49.4 325.9,48.9 325.2,48.5 324.5,48.3 323.8,48.4 323,48.7 322.4,49.2 321.8,50.1 321.3,51.4 321,53 320.9,55 320.9,70" />
<path stroke="#000000" stroke-width="2" d="M 334.2,70" />
<path stroke="#000000" stroke-width="2" d="M 334.2,30 334.2,50 334.2,50.7 334.3,51.4 334.4,52.1 334.6,52.8 334.8,53.4 335.1,54 335.5,54.6 335.9,55.2 336.3,55.8 336.8,56.2 337.4,56.7 337.9,57.1 338.5,57.4 339.2,57.7 339.8,58 340.5,58.2 341.2,58.3 341.9,58.3 342.6,58.3 343.3,58.3 344,58.2 344.6,58 345.3,57.7 345.9,57.4 346.5,57.1 347.1,56.7 347.6,56.2 348.1,55.8 348.6,55.2 349,54.6 349.3,54 349.6,53.4 349.9,52.8 350,52.1 350.2,51.4 350.2,50.7" />
<path stroke="#000000" stroke-width="2" d="M 356.9,70" />
<path stroke="#000000" stroke-width="2" d="M 356.9,30 357.1,30 357.1,30.2 356.9,30.2 356.9,30" />
<path stroke="#000000" stroke-width="2" d="M 387.1,70" />
<path stroke="#000000" stroke-width="2" d="M 387.1,70 387.3,70 387.3,70.2 387.1,70.2 387.1,70" />
<path stroke="#000000" stroke-width="2" d="M 394,70" />
<path stroke="#000000" stroke-width="2" d="M 394,30 409.3,67" />
<path stroke="#000000" stroke-width="2" d="M 415.9,70" />
<path stroke="#000000" stroke-width="2" d="M 415.9,55" />
<path stroke="#000000" stroke-width="2" d="M 415.9,55 418,54.9 419.6,54.6 420.8,54.1 421.7,53.6 422.3,52.9 422.5,52.2 422.6,51.4 422.4,50.7 422.1,50 421.6,49.4 420.9,48.9 420.2,48.5 419.5,48.3 418.8,48.4 418,48.7 417.4,49.2 416.8,50.1 416.3,51.4 416,53 415.9,55 415.9,70 408.3,88.5" />
<path stroke="#000000" stroke-width="2" d="M 452.6,70" />
<path stroke="#000000" stroke-width="2" d="M 472.6,30 472.6,70 452.6,70" />
<path stroke="#000000" stroke-width="2" d="M 479.3,70" />
<path stroke="#000000" stroke-width="2" d="M 479.3,20 499.3,20" />
<path stroke="#000000" stroke-width="2" d="M 505.9,70" />
<path stroke="#000000" stroke-width="2" d="M 505.9,20 505.9,40 505.9,34 505.9,33.1 506,32.3 506.1,31.4 506.4,30.6 506.7,29.7 507,28.9 507.5,28.2 508,27.5 508.5,26.8 509.2,26.2 509.8,25.6 510.5,25.1 511.3,24.7 512.1,24.3 512.9,24 513.7,23.8 514.6,23.6 515.5,23.6" />
<path stroke="#000000" stroke-width="2" d="M 522.1,70" />
<path stroke="#000000" stroke-width="2" d="M 522.1,70 522.1,68.6 522.3,67.2 522.5,65.8 522.9,64.5 523.3,63.2 523.9,61.9 524.6,60.7 525.4,59.6 526.3,58.5 527.3,57.5 528.4,56.6 529.5,55.8 530.7,55.1 532,54.5 533.3,54 534.7,53.7 536,53.4 537.4,53.3 538.8,53.3 540.2,53.4 541.6,53.7 542.9,54 544.2,54.5 545.5,55.1 546.7,55.8 547.9,56.6 548.9,57.5 549.9,58.5 550.8,59.6 551.6,60.7 552.3,61.9 552.9,63.2 553.4,64.5 553.7,65.8 554,67.2 554.1,68.6" />
<path stroke="#000000" stroke-width="2" d="M 584.1,70" />
<path stroke="#000000" stroke-width="2" d="M 594.1,30 593.2,30 592.4,30.1 591.5,30.2 590.7,30.5 589.8,30.8 589.1,31.1 588.3,31.6 587.6,32.1 586.9,32.6 586.3,33.2 585.7,33.9 585.2,34.6 584.8,35.4 584.4,36.2 584.1,37 583.9,37.8 583.8,38.7 583.7,39.6 583.7,40.4 583.8,41.3 583.9,42.2 584.1,43 584.4,43.8 584.8,44.6 585.2,45.4 585.7,46.1 586.3,46.7 586.9,47.4 587.6,47.9 588.3,48.4 589.1,48.9 589.8,49.2 590.7,49.5 591.5,49.8 592.4,49.9 593.2,50 613.2,50" />
<path stroke="#000000" stroke-width="2" d="M 643.2,70" />
<path stroke="#000000" stroke-width="2" d="M 643.2,70 643.4,70 643.4,70.2 643.2,70.2 643.2,70" />
<path stroke="#000000" stroke-width="2" d="M 673.4,70" />
<path stroke="#000000" stroke-width="2" d="M 673.4,30 673.4,50 683.4,50 683.4,70 689.1,64.3" />
<path stroke="#000000" stroke-width="2" d="M 695.8,70" />
<path stroke="#000000" stroke-width="2" d="M 695.8,25" />
<path stroke="#000000" stroke-width="2" d="M 695.8,25 697.8,24.9 699.4,24.6 700.6,24.1 701.5,23.6 702.1,22.9 702.4,22.2 702.4,21.4 702.2,20.7 701.9,20 701.4,19.4 700.8,18.9 700.1,18.5 699.3,18.3 698.6,18.4 697.9,18.7 697.2,19.2 696.6,20.1 696.2,21.4 695.9,23 695.8,25 695.8,40" />
<path stroke="#000000" stroke-width="2" d="M 732.4,70" />
<path stroke="#000000" stroke-width="2" d="M 732.4,30 772.4,30" />
<path stroke="#000000" stroke-width="2" d="M 802.4,70" />
<path stroke="#000000" stroke-width="2" d="M 802.4,70 802.6,70 802.6,70.2 802.4,70.2 802.4,70" />
<path stroke="#000000" stroke-width="2" d="M 809.3,70" />
<path stroke="#000000" stroke-width="2" d="M 825.3,30 805.5,49.8 825.3,69.6" />
<path stroke="#000000" stroke-width="2" d="M 831.9,70" />
<path stroke="#000000" stroke-width="2" d="M 831.9,55" />
<path stroke="#000000" stroke-width="2" d="M 831.9,55 834,54.9 835.6,54.6 836.8,54.1 837.7,53.6 838.3,52.9 838.6,52.2 838.6,51.4 838.4,50.7 838.1,50 837.6,49.4 837,48.9 836.3,48.5 835.5,48.3 834.8,48.4 834.1,48.7 833.4,49.2 832.8,50.1 832.4,51.4 832.1,53 831.9,55 831.9,70" />
<path stroke="#000000" stroke-width="2" d="M 831.9,70 831.8,72 831.5,73.6 831.1,74.9 830.5,75.8 829.8,76.3 829.1,76.6 828.4,76.7 827.6,76.5 826.9,76.1 826.3,75.6 825.8,75 825.5,74.3 825.3,73.6 825.3,72.8 825.6,72.1 826.2,71.4 827.1,70.9 828.3,70.4 829.9,70.1 831.9,70 841.9,70" />
<path stroke="#000000" stroke-width="2" d="M 848.6,70" />
<path stroke="#000000" stroke-width="2" d="M 868.6,30 853.3,67" />
<path stroke="#000000" stroke-width="2" d="M 875.3,70" />
<path stroke="#000000" stroke-width="2" d="M 875.3,20 875.3,20.7 875.3,21.4 875.5,22.1 875.6,22.8 875.9,23.4 876.2,24 876.5,24.6 876.9,25.2 877.4,25.8 877.9,26.2 878.4,26.7 879,27.1 879.6,27.4 880.2,27.7 880.9,28 881.5,28.2 882.2,28.3 882.9,28.3 883.6,28.3 884.3,28.3 885,28.2 885.7,28 886.3,27.7 887,27.4 887.6,27.1 888.1,26.7 888.7,26.2 889.2,25.8 889.6,25.2 890,24.6 890.4,24 890.7,23.4 890.9,22.8 891.1,22.1 891.2,21.4 891.3,20.7" />
<path stroke="#000000" stroke-width="2" d="M 921.3,70" />
<path stroke="#000000" stroke-width="2" d="M 921.3,30 921.3,70 921.3,58 921.3,56.3 921.4,54.5 921.7,52.8 922.2,51.1 922.8,49.5 923.5,47.9 924.4,46.4 925.4,45 926.5,43.6 927.7,42.4 929.1,41.3 930.5,40.3 932,39.4 933.6,38.7 935.2,38.1 936.9,37.6 938.6,37.3 940.4,37.1" />
<path stroke="#000000" stroke-width="2" d="M 947,70" />
<path stroke="#000000" stroke-width="2" d="M 947,50 954.7,68.5" />
<path stroke="#000000" stroke-width="2" d="M 984.7,70" />
<path stroke="#000000" stroke-width="2" d="M 984.7,70 984.9,70 984.9,70.2 984.7,70.2 984.7,70" />
<path stroke="#000000" stroke-width="2" d="M 1014.9,70" />
<path stroke="#000000" stroke-width="2" d="M 1014.9,50 1022.5,31.5 1022.5,32.2 1022.6,32.9 1022.7,33.6 1022.9,34.3 1023.1,34.9 1023.4,35.6 1023.8,36.2 1024.2,36.7 1024.6,37.3 1025.1,37.8 1025.7,38.2 1026.2,38.6 1026.8,39 1027.5,39.3 1028.1,39.5 1028.8,39.7 1029.5,39.8 1030.2,39.9 1030.9,39.9 1031.6,39.8 1032.3,39.7 1032.9,39.5 1033.6,39.3 1034.2,39 1034.8,38.6 1035.4,38.2 1035.9,37.8 1036.4,37.3 1036.9,36.7 1037.3,36.2 1037.6,35.6 1037.9,34.9 1038.2,34.3 1038.3,33.6 1038.5,32.9 1038.5,32.2 1039.4,32.2 1040.3,32.1 1041.1,32 1042,31.8 1042.8,31.5 1043.6,31.1 1044.3,30.7 1045.1,30.2 1045.7,29.6 1046.3,29 1046.9,28.3 1047.4,27.6 1047.8,26.8 1048.2,26.1 1048.5,25.2 1048.7,24.4 1048.9,23.5 1049,22.7 1049,21.8 1048.9,20.9 1048.7,20.1 1048.5,19.2 1048.2,18.4 1047.8,17.6 1047.4,16.9 1046.9,16.1 1046.3,15.5 1045.7,14.9 1045.1,14.3 1044.3,13.8 1043.6,13.4 1042.8,13 1042,12.7 1041.1,12.5 1040.3,12.3 1039.4,12.2 1038.5,12.2 1037.7,12.3 1036.8,12.5 1036,12.7 1035.1,13 1034.4,13.4 1033.6,13.8 1032.9,14.3 1032.2,14.9 1031.6,15.5 1031,16.1 1030.5,16.9 1030.1,17.6 1029.7,18.4 1029.4,19.2 1029.2,20.1 1029.1,20.9 1029,21.8 1029,22.7 1029.1,23.5 1029.2,24.4 1029.4,25.2 1029.7,26.1 1030.1,26.8 1030.5,27.6 1031,28.3 1031.6,29 1032.2,29.6 1032.9,30.2 1033.6,30.7 1034.4,31.1 1035.1,31.5 1036,31.8 1036.8,32 1037.7,32.1 1038.5,32.2" />
<path stroke="#000000" stroke-width="2" d="M 1055.6,70" />
<path stroke="#000000" stroke-width="2" d="M 1055.6,50 1055.8,50 1055.8,50.2 1055.6,50.2 1055.6,50" />
<path stroke="#000000" stroke-width="2" d="M 1085.8,70" />
<path stroke="#000000" stroke-width="2" d="M 1085.8,30 1085.8,50 1095.8,50 1085.9,59.9 1095.8,69.8" />
<path stroke="#000000" stroke-width="2" d="M 1102.5,70" />
<path stroke="#000000" stroke-width="2" d="M 1102.5,20" />
<path stroke="#000000" stroke-width="2" d="M 1102.5,20 1103.9,20.1 1105.2,20.6 1106.3,21.2 1107.3,22.1 1108.1,23.1 1108.8,24.3 1109.3,25.6 1109.7,27 1109.9,28.5 1110,30 1109.9,31.5 1109.7,33 1109.3,34.4 1108.8,35.7 1108.1,36.9 1107.3,37.9 1106.3,38.8 1105.2,39.4 1103.9,39.9 1102.5,40" />
<path stroke="#000000" stroke-width="2" d="M 1140,70" />
<path stroke="#000000" stroke-width="2" d="M 1140,30 1180,30" />
<path stroke="#000000" stroke-width="2" d="M 1186.7,70" />
<path stroke="#000000" stroke-width="2" d="M 1186.7,50 1191.7,50 1191.7,70" />
<path stroke="#000000" stroke-width="2" d="M 1198.3,70" />
<path stroke="#000000" stroke-width="2" d="M 1198.3,40" />
<path stroke="#000000" stroke-width="2" d="M 1198.3,40 1202.4,39.8 1205.6,39.2 1208.1,38.3 1209.8,37.1 1211,35.8 1211.6,34.3 1211.6,32.8 1211.3,31.4 1210.6,30 1209.6,28.8 1208.3,27.7 1207,27 1205.5,26.7 1204,26.8 1202.5,27.3 1201.2,28.5 1200,30.2 1199.1,32.7 1198.5,35.9 1198.3,40 1198.3,70" />
<path stroke="#000000" stroke-width="2" d="M 1218.3,70" />
<path stroke="#000000" stroke-width="2" d="M 1218.3,70 1218.3,68.6 1218.4,67.2 1218.7,65.8 1219,64.5 1219.5,63.2 1220.1,61.9 1220.8,60.7 1221.6,59.6 1222.5,58.5 1223.5,57.5 1224.5,56.6 1225.7,55.8 1226.9,55.1 1228.2,54.5 1229.5,54 1230.8,53.7 1232.2,53.4 1233.6,53.3 1235,53.3 1236.4,53.4 1237.7,53.7 1239.1,54 1240.4,54.5 1241.7,55.1 1242.9,55.8 1244,56.6 1245.1,57.5 1246.1,58.5 1247,59.6 1247.8,60.7 1248.5,61.9 1249.1,63.2 1249.5,64.5 1249.9,65.8 1250.1,67.2 1250.3,68.6" />
<path stroke="#000000" stroke-width="2" d="M 1256.9,70" />
<path stroke="#000000" stroke-width="2" d="M 1256.9,20 1256.9,20.7 1257,21.4 1257.1,22.1 1257.3,22.8 1257.5,23.4 1257.8,24 1258.2,24.6 1258.6,25.2 1259,25.8 1259.5,26.2 1260.1,26.7 1260.6,27.1 1261.2,27.4 1261.9,27.7 1262.5,28 1263.2,28.2 1263.9,28.3 1264.6,28.3 1265.3,28.3 1266,28.3 1266.7,28.2 1267.3,28 1268,27.7 1268.6,27.4 1269.2,27.1 1269.8,26.7 1270.3,26.2 1270.8,25.8 1271.3,25.2 1271.7,24.6 1272,24 1272.3,23.4 1272.6,22.8 1272.7,22.1 1272.9,21.4 1272.9,20.7" />
<path stroke="#000000" stroke-width="2" d="M 1302.9,70" />
<path stroke="#000000" stroke-width="2" d="M 1302.9,30 1302.9,70" />
<path stroke="#000000" stroke-width="2" d="M 1309.6,70" />
<path stroke="#000000" stroke-width="2" d="M 1309.6,50" />
<path stroke="#000000" stroke-width="2" d="M 1309.6,50 1311,50.1 1312.3,50.6 1313.4,51.2 1314.4,52.1 1315.2,53.1 1315.9,54.3 1316.4,55.6 1316.8,57 1317,58.5 1317.1,60 1317,61.5 1316.8,63 1316.4,64.4 1315.9,65.7 1315.2,66.9 1314.4,67.9 1313.4,68.8 1312.3,69.4 1311,69.9 1309.6,70" />
<path stroke="#000000" stroke-width="2" d="M 1323.8,70" />
<path stroke="#000000" stroke-width="2" d="M 1323.8,30 1324,30 1324,30.2 1323.8,30.2 1323.8,30" />
<path stroke="#000000" stroke-width="2" d="M 1354,70" />
</svg>