<svg xmlns="http://www.w3.org/2000/svg" width="507.85098910470913" height="90.48879532511287" style="fill:none; stroke-linecap:round;">
    <rect width="100%" height="100%" fill="#FFFFFF" />
<path stroke="#000000" stroke-width="2" d="M 550,75" />
<path stroke="#000000" stroke-width="2" d="M 20,30 20,70 20,58 20,56.3 20.2,54.5 20.5,52.8 20.9,51.1 21.5,49.5 22.2,47.9 23.1,46.4 24.1,45 25.2,43.6 26.5,42.4 27.8,41.3 29.2,40.3 30.7,39.4 32.3,38.7 34,38.1 35.7,37.6 37.4,37.3 39.1,37.1" />
<path stroke="#000000" stroke-width="2" d="M 45.8,70" />
<path stroke="#000000" stroke-width="2" d="M 45.8,30 55.7,39.9 45.8,49.8 45.8,69.8 45.8,63.8 45.8,62.9 45.9,62.1 46,61.2 46.2,60.4 46.5,59.5 46.9,58.7 47.3,58 47.8,57.3 48.4,56.6 49,56 49.7,55.4 50.4,54.9 51.1,54.5 51.9,54.1 52.8,53.8 53.6,53.6 54.5,53.4 55.3,53.4" />
<path stroke="#000000" stroke-width="2" d="M 85.7,70" />
<path stroke="#000000" stroke-width="2" d="M 95.7,30 94.8,30 93.9,30.1 93.1,30.2 92.2,30.5 91.4,30.8 90.6,31.1 89.9,31.6 89.2,32.1 88.5,32.6 87.9,33.2 87.3,33.9 86.8,34.6 86.4,35.4 86,36.2 85.7,37 85.5,37.8 85.3,38.7 85.2,39.6 85.2,40.4 85.3,41.3 85.5,42.2 85.7,43 86,43.8 86.4,44.6 86.8,45.4 87.3,46.1 87.9,46.7 88.5,47.4 89.2,47.9 89.9,48.4 90.6,48.9 91.4,49.2 92.2,49.5 93.1,49.8 93.9,49.9 94.8,50 94.8,70 94.8,64 94.8,63.1 94.9,62.2 95,61.4 95.3,60.5 95.6,59.7 95.9,58.9 96.4,58.2 96.9,57.5 97.4,56.8 98,56.2 98.7,55.6 99.4,55.1 100.2,54.7 101,54.3 101.8,54 102.6,53.8 103.5,53.6 104.4,53.6" />
<path stroke="#000000" stroke-width="2" d="M 134.4,70" />
<path stroke="#000000" stroke-width="2" d="M 150.4,30" />
<path stroke="#000000" stroke-width="2" d="M 150.4,30 150.1,34.1 149.5,37.3 148.6,39.8 147.5,41.5 146.1,42.7 144.7,43.2 143.2,43.3 141.7,43 140.3,42.3 139.1,41.2 138.1,40 137.4,38.6 137,37.2 137.1,35.7 137.7,34.2 138.8,32.9 140.6,31.7 143.1,30.8 146.3,30.2 150.4,30 170.4,30" />
<path stroke="#000000" stroke-width="2" d="M 177,70" />
<path stroke="#000000" stroke-width="2" d="M 177,50 177,70 177,64 177,63.1 177.1,62.3 177.3,61.4 177.5,60.6 177.8,59.7 178.1,58.9 178.6,58.2 179.1,57.5 179.6,56.8 180.3,56.2 180.9,55.6 181.6,55.1 182.4,54.7 183.2,54.3 184,54 184.8,53.8 185.7,53.6 186.6,53.6" />
<path stroke="#000000" stroke-width="2" d="M 193.2,70" />
<path stroke="#000000" stroke-width="2" d="M 193.2,20 193.2,40 193.2,34 193.2,33.1 193.3,32.3 193.5,31.4 193.7,30.6 194,29.7 194.4,28.9 194.8,28.2 195.3,27.5 195.9,26.8 196.5,26.2 197.1,25.6 197.9,25.1 198.6,24.7 199.4,24.3 200.2,24 201.1,23.8 201.9,23.6 202.8,23.6" />
<path stroke="#000000" stroke-width="2" d="M 232.8,70" />
<path stroke="#000000" stroke-width="2" d="M 242.8,30 241.9,30 241.1,30.1 240.2,30.2 239.4,30.5 238.5,30.8 237.7,31.1 237,31.6 236.3,32.1 235.6,32.6 235,33.2 234.4,33.9 233.9,34.6 233.5,35.4 233.1,36.2 232.8,37 232.6,37.8 232.4,38.7 232.4,39.6 232.4,40.4 232.4,41.3 232.6,42.2 232.8,43 233.1,43.8 233.5,44.6 233.9,45.4 234.4,46.1 235,46.7 235.6,47.4 236.3,47.9 237,48.4 237.7,48.9 238.5,49.2 239.4,49.5 240.2,49.8 241.1,49.9 241.9,50 261.9,50" />
<path stroke="#000000" stroke-width="2" d="M 291.9,70" />
<path stroke="#000000" stroke-width="2" d="M 291.9,70 307.2,33 307.2,31.6 307.4,30.3 307.6,28.9 308,27.5 308.4,26.2 309,25 309.7,23.8 310.5,22.6 311.4,21.5 312.4,20.6 313.5,19.7 314.6,18.9 315.8,18.2 317.1,17.6 318.4,17.1 319.8,16.7 321.1,16.5 322.5,16.4 323.9,16.4 325.3,16.5 326.7,16.7 328,17.1 329.3,17.6 330.6,18.2 331.8,18.9 333,19.7 334,20.6 335,21.5 335.9,22.6 336.7,23.8 337.4,25 338,26.2 338.5,27.5 338.8,28.9 339.1,30.3 339.2,31.6" />
<path stroke="#000000" stroke-width="2" d="M 345.9,70" />
<path stroke="#000000" stroke-width="2" d="M 345.9,50 349.7,59.2" />
<path stroke="#000000" stroke-width="2" d="M 349.7,59.2 351.6,61.4 352.9,63.3 353.7,65 354,66.4 353.9,67.7 353.5,68.7 352.8,69.5 351.9,70 350.8,70.4 349.7,70.5 348.6,70.4 347.5,70 346.6,69.5 345.9,68.7 345.5,67.7 345.4,66.4 345.7,65 346.5,63.3 347.8,61.4 349.7,59.2 353.5,50 373.5,50 365.9,68.5" />
<path stroke="#000000" stroke-width="2" d="M 403.5,70" />
<path stroke="#000000" stroke-width="2" d="M 413.5,30 412.7,30 411.8,30.1 410.9,30.2 410.1,30.5 409.3,30.8 408.5,31.1 407.7,31.6 407,32.1 406.3,32.6 405.7,33.2 405.2,33.9 404.7,34.6 404.2,35.4 403.8,36.2 403.6,37 403.3,37.8 403.2,38.7 403.1,39.6 403.1,40.4 403.2,41.3 403.3,42.2 403.6,43 403.8,43.8 404.2,44.6 404.7,45.4 405.2,46.1 405.7,46.7 406.3,47.4 407,47.9 407.7,48.4 408.5,48.9 409.3,49.2 410.1,49.5 410.9,49.8 411.8,49.9 412.7,50 417.7,50 417.7,70" />
<path stroke="#000000" stroke-width="2" d="M 447.7,70" />
<path stroke="#000000" stroke-width="2" d="M 447.7,30 447.7,50 457.7,50 450,68.5" />
<path stroke="#000000" stroke-width="2" d="M 487.7,70" />
<path stroke="#000000" stroke-width="2" d="M 487.7,70 487.9,70 487.9,70.2 487.7,70.2 487.7,70" />
<path stroke="#000000" stroke-width="2" d="M 517.9,70" />
</svg>