<svg xmlns="http://www.w3.org/2000/svg" width="685.3097135033205" height="94.68629150101523" style="fill:none; stroke-linecap:round;">
    <rect width="100%" height="100%" fill="#FFFFFF" />
<path stroke="#000000" stroke-width="2" d="M 550,75" />
<path stroke="#000000" stroke-width="2" d="M 20,70 20.2,70 20.2,70.2 20,70.2 20,70" />
<path stroke="#000000" stroke-width="2" d="M 26.9,70" />
<path stroke="#000000" stroke-width="2" d="M 42.9,30" />
<path stroke="#000000" stroke-width="2" d="M 42.9,30 42.7,34.1 42.1,37.3 41.1,39.8 40,41.5 38.6,42.7 37.2,43.2 35.7,43.3 34.2,43 32.8,42.3 31.6,41.2 30.6,40 29.9,38.6 29.6,37.2 29.6,35.7 30.2,34.2 31.3,32.9 33.1,31.7 35.6,30.8 38.8,30.2 42.9,30 62.9,30" />
<path stroke="#000000" stroke-width="2" d="M 69.5,70" />
<path stroke="#000000" stroke-width="2" d="M 69.5,20 69.5,40 69.5,34 69.5,33.1 69.6,32.3 69.8,31.4 70,30.6 70.3,29.7 70.7,28.9 71.1,28.2 71.6,27.5 72.2,26.8 72.8,26.2 73.4,25.6 74.2,25.1 74.9,24.7 75.7,24.3 76.5,24 77.4,23.8 78.2,23.6 79.1,23.6" />
<path stroke="#000000" stroke-width="2" d="M 85.8,70" />
<path stroke="#000000" stroke-width="2" d="M 85.8,20 93.4,38.5" />
<path stroke="#000000" stroke-width="2" d="M 100.1,70" />
<path stroke="#000000" stroke-width="2" d="M 100.1,20" />
<path stroke="#000000" stroke-width="2" d="M 100.1,20 101.5,20.1 102.8,20.6 103.9,21.2 104.9,22.1 105.7,23.1 106.4,24.3 106.9,25.6 107.3,27 107.5,28.5 107.6,30 107.5,31.5 107.3,33 106.9,34.4 106.4,35.7 105.7,36.9 104.9,37.9 103.9,38.8 102.8,39.4 101.5,39.9 100.1,40" />
<path stroke="#000000" stroke-width="2" d="M 114.2,70" />
<path stroke="#000000" stroke-width="2" d="M 114.2,50 114.2,49.3 114.3,48.6 114.4,47.9 114.6,47.2 114.8,46.6 115.1,46 115.5,45.4 115.9,44.8 116.3,44.2 116.8,43.8 117.4,43.3 117.9,42.9 118.5,42.6 119.2,42.3 119.8,42 120.5,41.8 121.2,41.7 121.9,41.7 122.6,41.7 123.3,41.7 124,41.8 124.6,42 125.3,42.3 125.9,42.6 126.5,42.9 127.1,43.3 127.6,43.8 128.1,44.2 128.6,44.8 129,45.4 129.3,46 129.6,46.6 129.9,47.2 130,47.9 130.2,48.6 130.2,49.3" />
<path stroke="#000000" stroke-width="2" d="M 130.2,49.3 132.3,49.2 133.9,48.9 135.1,48.4 136,47.9 136.6,47.2 136.8,46.5 136.9,45.7 136.7,45 136.4,44.3 135.9,43.7 135.2,43.2 134.5,42.8 133.8,42.6 133.1,42.7 132.3,43 131.7,43.5 131.1,44.4 130.6,45.7 130.3,47.3 130.2,49.3 130.2,64.3" />
<path stroke="#000000" stroke-width="2" d="M 166.9,70" />
<path stroke="#000000" stroke-width="2" d="M 166.9,70 182.2,33 182.2,73 182.2,61 182.2,59.3 182.3,57.6 182.6,55.8 183.1,54.2 183.7,52.5 184.4,50.9 185.3,49.4 186.3,48 187.4,46.7 188.7,45.4 190,44.3 191.4,43.3 192.9,42.4 194.5,41.7 196.2,41.1" />
<path stroke="#000000" stroke-width="2" d="M 202.8,70" />
<path stroke="#000000" stroke-width="2" d="M 202.8,30 210.5,48.5 218.1,30" />
<path stroke="#000000" stroke-width="2" d="M 218.1,30 219.6,30.1 220.8,30.6 222,31.2 222.9,32.1 223.8,33.1 224.4,34.3 225,35.6 225.3,37 225.6,38.5 225.6,40 225.6,41.5 225.3,43 225,44.4 224.4,45.7 223.8,46.9 222.9,47.9 222,48.8 220.8,49.4 219.6,49.9 218.1,50" />
<path stroke="#000000" stroke-width="2" d="M 255.6,70" />
<path stroke="#000000" stroke-width="2" d="M 255.6,30 275.6,30" />
<path stroke="#000000" stroke-width="2" d="M 275.6,30 277.1,30.1 278.3,30.6 279.5,31.2 280.4,32.1 281.3,33.1 281.9,34.3 282.5,35.6 282.8,37 283.1,38.5 283.1,40 283.1,41.5 282.8,43 282.5,44.4 281.9,45.7 281.3,46.9 280.4,47.9 279.5,48.8 278.3,49.4 277.1,49.9 275.6,50" />
<path stroke="#000000" stroke-width="2" d="M 313.1,70" />
<path stroke="#000000" stroke-width="2" d="M 313.1,30" />
<path stroke="#000000" stroke-width="2" d="M 313.1,30 316,30.3 318.5,31.1 320.8,32.4 322.7,34.2 324.4,36.2 325.7,38.6 326.8,41.3 327.5,44.1 328,47 328.1,50 328,53 327.5,55.9 326.8,58.7 325.7,61.4 324.4,63.8 322.7,65.8 320.8,67.6 318.5,68.9 316,69.7 313.1,70" />
<path stroke="#000000" stroke-width="2" d="M 334.8,70" />
<path stroke="#000000" stroke-width="2" d="M 334.8,30" />
<path stroke="#000000" stroke-width="2" d="M 334.8,30 337.6,30.3 340.2,31.1 342.4,32.4 344.4,34.2 346,36.2 347.4,38.6 348.4,41.3 349.2,44.1 349.6,47 349.8,50 349.6,53 349.2,55.9 348.4,58.7 347.4,61.4 346,63.8 344.4,65.8 342.4,67.6 340.2,68.9 337.6,69.7 334.8,70" />
<path stroke="#000000" stroke-width="2" d="M 379.8,70" />
<path stroke="#000000" stroke-width="2" d="M 379.8,46 391.1,34.7 391.1,74.7" />
<path stroke="#000000" stroke-width="2" d="M 391.1,54.7" />
<path stroke="#000000" stroke-width="2" d="M 383.1,54.7 399.1,54.7" />
<path stroke="#000000" stroke-width="2" d="M 429.1,70" />
<path stroke="#000000" stroke-width="2" d="M 429.1,30 439.1,30 439.1,70" />
<path stroke="#000000" stroke-width="2" d="M 445.8,70" />
<path stroke="#000000" stroke-width="2" d="M 445.8,50 445.8,70 445.8,64 445.8,63.1 445.9,62.3 446,61.4 446.2,60.6 446.5,59.7 446.9,58.9 447.3,58.2 447.8,57.5 448.4,56.8 449,56.2 449.7,55.6 450.4,55.1 451.1,54.7 451.9,54.3 452.8,54 453.6,53.8 454.5,53.6 455.3,53.6 447.7,72.1" />
<path stroke="#000000" stroke-width="2" d="M 462,70" />
<path stroke="#000000" stroke-width="2" d="M 462,30 462.2,30 462.2,30.2 462,30.2 462,30" />
<path stroke="#000000" stroke-width="2" d="M 492.2,70" />
<path stroke="#000000" stroke-width="2" d="M 492.2,30 507.5,67" />
<path stroke="#000000" stroke-width="2" d="M 514.2,70" />
<path stroke="#000000" stroke-width="2" d="M 514.2,30 554.2,30" />
<path stroke="#000000" stroke-width="2" d="M 584.2,70" />
<path stroke="#000000" stroke-width="2" d="M 584.2,30 584.2,31.4 584.3,32.8 584.5,34.2 584.9,35.5 585.4,36.8 586,38.1 586.7,39.3 587.5,40.4 588.4,41.5 589.3,42.5 590.4,43.4 591.6,44.2 592.8,44.9 594,45.5 595.3,46 596.7,46.3 598.1,46.6 599.5,46.7 600.9,46.7 602.2,46.6 603.6,46.3 605,46 606.3,45.5 607.5,44.9 608.8,44.2 609.9,43.4 611,42.5 612,41.5 612.8,40.4 613.6,39.3 614.3,38.1 614.9,36.8 615.4,35.5 615.8,34.2 616,32.8 616.1,31.4" />
<path stroke="#000000" stroke-width="2" d="M 622.8,70" />
<path stroke="#000000" stroke-width="2" d="M 632.8,20 625.2,38.5 627.4,32.9 627.8,32.1 628.2,31.4 628.7,30.6 629.2,29.9 629.8,29.3 630.4,28.7 631.1,28.2 631.8,27.7 632.6,27.3 633.4,27 634.3,26.7 635.1,26.5" />
<path stroke="#000000" stroke-width="2" d="M 665.1,70" />
<path stroke="#000000" stroke-width="2" d="M 665.1,70 665.3,70 665.3,70.2 665.1,70.2 665.1,70" />
<path stroke="#000000" stroke-width="2" d="M 695.3,70" />
</svg>