<svg xmlns="http://www.w3.org/2000/svg" width="580.4650102702215" height="108.47759065022574" style="fill:none; stroke-linecap:round;">
    <rect width="100%" height="100%" fill="#FFFFFF" />
<path stroke="#000000" stroke-width="2" d="M 550,75" />
<path stroke="#000000" stroke-width="2" d="M 20,30 40,30 40.9,30 41.7,30.1 42.6,30.2 43.4,30.5 44.3,30.8 45.1,31.1 45.8,31.6 46.5,32.1 47.2,32.6 47.8,33.2 48.4,33.9 48.9,34.6 49.3,35.4 49.7,36.2 50,37 50.2,37.8 50.4,38.7 50.4,39.6 50.4,40.4 50.4,41.3 50.2,42.2 50,43 49.7,43.8 49.3,44.6 48.9,45.4 48.4,46.1 47.8,46.7 47.2,47.4 46.5,47.9 45.8,48.4 45.1,48.9 44.3,49.2 43.4,49.5 42.6,49.8 41.7,49.9 40.9,50" />
<path stroke="#000000" stroke-width="2" d="M 80.4,70" />
<path stroke="#000000" stroke-width="2" d="M 80.4,40 80.6,40 80.6,40.2 80.4,40.2 80.4,40" />
<path stroke="#000000" stroke-width="2" d="M 87.3,70" />
<path stroke="#000000" stroke-width="2" d="M 87.3,30 127.3,30" />
<path stroke="#000000" stroke-width="2" d="M 134,70" />
<path stroke="#000000" stroke-width="2" d="M 144,20 136.3,38.5 136.3,39.2 136.4,39.9 136.5,40.6 136.7,41.2 136.9,41.9 137.2,42.5 137.6,43.1 138,43.7 138.4,44.2 138.9,44.7 139.4,45.2 140,45.6 140.6,45.9 141.2,46.2 141.9,46.5 142.6,46.6 143.3,46.8 143.9,46.8 144.6,46.8 145.3,46.8 146,46.6 146.7,46.5 147.4,46.2 148,45.9 148.6,45.6 149.2,45.2 149.7,44.7 150.2,44.2 150.6,43.7 151,43.1 151.4,42.5 151.7,41.9 151.9,41.2 152.1,40.6 152.2,39.9 152.3,39.2" />
<path stroke="#000000" stroke-width="2" d="M 159,70" />
<path stroke="#000000" stroke-width="2" d="M 159,30 159.2,30 159.2,30.2 159,30.2 159,30" />
<path stroke="#000000" stroke-width="2" d="M 189.2,70" />
<path stroke="#000000" stroke-width="2" d="M 209.2,30 193.9,67 198.4,55.9 199.1,54.3 199.9,52.7 200.9,51.2 201.9,49.9 203.1,48.6 204.4,47.4 205.8,46.3 207.2,45.4 208.8,44.6 210.4,43.9 212.1,43.4 213.8,43" />
<path stroke="#000000" stroke-width="2" d="M 220.4,70" />
<path stroke="#000000" stroke-width="2" d="M 220.4,30 235.7,67" />
<path stroke="#000000" stroke-width="2" d="M 242.4,70" />
<path stroke="#000000" stroke-width="2" d="M 242.4,20 243.3,20 244.1,20.1 245,20.2 245.8,20.5 246.7,20.8 247.5,21.1 248.2,21.6 248.9,22.1 249.6,22.6 250.2,23.2 250.8,23.9 251.3,24.6 251.7,25.4 252.1,26.2 252.4,27 252.6,27.8 252.8,28.7 252.8,29.6 252.8,30.4 252.8,31.3 252.6,32.2 252.4,33 252.1,33.8 251.7,34.6 251.3,35.4 250.8,36.1 250.2,36.7 249.6,37.4 248.9,37.9 248.2,38.4 247.5,38.9 246.7,39.2 245.8,39.5 245,39.8 244.1,39.9 243.3,40" />
<path stroke="#000000" stroke-width="2" d="M 282.8,70" />
<path stroke="#000000" stroke-width="2" d="M 282.8,30 282.8,70 282.8,58 282.8,56.3 283,54.5 283.3,52.8 283.7,51.1 284.3,49.5 285.1,47.9 285.9,46.4 286.9,45 288.1,43.6 289.3,42.4 290.6,41.3 292.1,40.3 293.6,39.4 295.2,38.7 296.8,38.1 298.5,37.6 300.2,37.3 301.9,37.1" />
<path stroke="#000000" stroke-width="2" d="M 308.6,70" />
<path stroke="#000000" stroke-width="2" d="M 308.6,20 309.5,20 310.3,20.1 311.2,20.2 312,20.5 312.9,20.8 313.7,21.1 314.4,21.6 315.1,22.1 315.8,22.6 316.4,23.2 317,23.9 317.5,24.6 317.9,25.4 318.3,26.2 318.6,27 318.8,27.8 319,28.7 319,29.6 319,30.4 319,31.3 318.8,32.2 318.6,33 318.3,33.8 317.9,34.6 317.5,35.4 317,36.1 316.4,36.7 315.8,37.4 315.1,37.9 314.4,38.4 313.7,38.9 312.9,39.2 312,39.5 311.2,39.8 310.3,39.9 309.5,40" />
<path stroke="#000000" stroke-width="2" d="M 349,70" />
<path stroke="#000000" stroke-width="2" d="M 349,30 364.3,67" />
<path stroke="#000000" stroke-width="2" d="M 371,70" />
<path stroke="#000000" stroke-width="2" d="M 371,55" />
<path stroke="#000000" stroke-width="2" d="M 371,55 373,54.9 374.7,54.6 375.9,54.1 376.8,53.6 377.3,52.9 377.6,52.2 377.7,51.4 377.5,50.7 377.1,50 376.6,49.4 376,48.9 375.3,48.5 374.6,48.3 373.8,48.4 373.1,48.7 372.4,49.2 371.9,50.1 371.4,51.4 371.1,53 371,55 371,70 363.4,88.5" />
<path stroke="#000000" stroke-width="2" d="M 384.3,70" />
<path stroke="#000000" stroke-width="2" d="M 392.3,20 392.3,35" />
<path stroke="#000000" stroke-width="2" d="M 392.3,35 392.2,37 391.9,38.6 391.5,39.9 390.9,40.8 390.2,41.3 389.5,41.6 388.7,41.7 388,41.5 387.3,41.1 386.7,40.6 386.2,40 385.8,39.3 385.7,38.6 385.7,37.8 386,37.1 386.6,36.4 387.5,35.9 388.7,35.4 390.3,35.1 392.3,35" />
<path stroke="#000000" stroke-width="2" d="M 422.3,70" />
<path stroke="#000000" stroke-width="2" d="M 422.3,30 442.3,30 443.2,30 444.1,30.1 444.9,30.2 445.8,30.5 446.6,30.8 447.4,31.1 448.1,31.6 448.9,32.1 449.5,32.6 450.1,33.2 450.7,33.9 451.2,34.6 451.6,35.4 452,36.2 452.3,37 452.5,37.8 452.7,38.7 452.8,39.6 452.8,40.4 452.7,41.3 452.5,42.2 452.3,43 452,43.8 451.6,44.6 451.2,45.4 450.7,46.1 450.1,46.7 449.5,47.4 448.9,47.9 448.1,48.4 447.4,48.9 446.6,49.2 445.8,49.5 444.9,49.8 444.1,49.9 443.2,50" />
<path stroke="#000000" stroke-width="2" d="M 482.8,70" />
<path stroke="#000000" stroke-width="2" d="M 482.8,30 482.8,38 482.8,39 482.8,40.1 483,41.1 483.3,42.1 483.7,43.1 484.1,44.1 484.6,45 485.2,45.8 485.9,46.6 486.6,47.4 487.4,48 488.3,48.6 489.2,49.2 490.2,49.6 491.1,50 492.1,50.2 493.2,50.4 494.2,50.5 495.3,50.5 496.3,50.4 497.3,50.2 498.4,50 499.3,49.6 500.3,49.2 501.2,48.6 502,48 502.9,47.4 503.6,46.6 504.3,45.8 504.9,45 505.4,44.1 505.8,43.1 506.2,42.1 506.5,41.1 506.6,40.1 506.7,39 506.7,29 506.7,69" />
<path stroke="#000000" stroke-width="2" d="M 513.4,70" />
<path stroke="#000000" stroke-width="2" d="M 523.4,50 515.7,68.5" />
<path stroke="#000000" stroke-width="2" d="M 530.1,70" />
<path stroke="#000000" stroke-width="2" d="M 530.1,20 530.3,20 530.3,20.2 530.1,20.2 530.1,20" />
<path stroke="#000000" stroke-width="2" d="M 560.3,70" />
<path stroke="#000000" stroke-width="2" d="M 560.3,70 560.5,70 560.5,70.2 560.3,70.2 560.3,70" />
<path stroke="#000000" stroke-width="2" d="M 590.5,70" />
</svg>