<svg xmlns="http://www.w3.org/2000/svg" width="1198.758951585887" height="137.82073640073335" style="fill:none; stroke-linecap:round;">
    <rect width="100%" height="100%" fill="#FFFFFF" />
<path stroke="#000000" stroke-width="2" d="M 550,75" />
<path stroke="#000000" stroke-width="2" d="M 20,70 20.2,70 20.2,70.2 20,70.2 20,70" />
<path stroke="#000000" stroke-width="2" d="M 26.9,70" />
<path stroke="#000000" stroke-width="2" d="M 36.9,30 36,30 35.1,30.1 34.3,30.2 33.4,30.5 32.6,30.8 31.8,31.1 31.1,31.6 30.3,32.1 29.7,32.6 29.1,33.2 28.5,33.9 28,34.6 27.6,35.4 27.2,36.2 26.9,37 26.7,37.8 26.5,38.7 26.4,39.6 26.4,40.4 26.5,41.3 26.7,42.2 26.9,43 27.2,43.8 27.6,44.6 28,45.4 28.5,46.1 29.1,46.7 29.7,47.4 30.3,47.9 31.1,48.4 31.8,48.9 32.6,49.2 33.4,49.5 34.3,49.8 35.1,49.9 36,50" />
<path stroke="#000000" stroke-width="2" d="M 36,40" />
<path stroke="#000000" stroke-width="2" d="M 20,40 40,40 45,40 45,60" />
<path stroke="#000000" stroke-width="2" d="M 51.7,70" />
<path stroke="#000000" stroke-width="2" d="M 51.7,30 51.7,38 51.7,39 51.8,40.1 51.9,41.1 52.2,42.1 52.6,43.1 53,44.1 53.5,45 54.1,45.8 54.8,46.6 55.5,47.4 56.3,48 57.2,48.6 58.1,49.2 59.1,49.6 60,50 61.1,50.2 62.1,50.4 63.1,50.5 64.2,50.5 65.2,50.4 66.2,50.2 67.3,50 68.2,49.6 69.2,49.2 70.1,48.6 71,48 71.8,47.4 72.5,46.6 73.2,45.8 73.8,45 74.3,44.1 74.7,43.1 75.1,42.1 75.4,41.1 75.5,40.1 75.6,39 75.6,29 75.6,69" />
<path stroke="#000000" stroke-width="2" d="M 82.3,70" />
<path stroke="#000000" stroke-width="2" d="M 82.3,50 82.3,70 82.3,64 82.3,63.1 82.4,62.3 82.5,61.4 82.8,60.6 83.1,59.7 83.4,58.9 83.9,58.2 84.4,57.5 84.9,56.8 85.5,56.2 86.2,55.6 86.9,55.1 87.7,54.7 88.5,54.3 89.3,54 90.1,53.8 91,53.6 91.9,53.6" />
<path stroke="#000000" stroke-width="2" d="M 98.5,70" />
<path stroke="#000000" stroke-width="2" d="M 98.5,20 98.7,20 98.7,20.2 98.5,20.2 98.5,20" />
<path stroke="#000000" stroke-width="2" d="M 128.7,70" />
<path stroke="#000000" stroke-width="2" d="M 128.7,30 128.7,70 140,58.7" />
<path stroke="#000000" stroke-width="2" d="M 146.7,70" />
<path stroke="#000000" stroke-width="2" d="M 146.7,25" />
<path stroke="#000000" stroke-width="2" d="M 146.7,25 148.7,24.9 150.4,24.6 151.6,24.1 152.5,23.6 153,22.9 153.3,22.2 153.4,21.4 153.2,20.7 152.8,20 152.3,19.4 151.7,18.9 151,18.5 150.3,18.3 149.5,18.4 148.8,18.7 148.1,19.2 147.6,20.1 147.1,21.4 146.8,23 146.7,25 146.7,40" />
<path stroke="#000000" stroke-width="2" d="M 183.4,70" />
<path stroke="#000000" stroke-width="2" d="M 183.4,30 198.7,67" />
<path stroke="#000000" stroke-width="2" d="M 205.3,70" />
<path stroke="#000000" stroke-width="2" d="M 205.3,50 215.2,59.9 205.3,69.8" />
<path stroke="#000000" stroke-width="2" d="M 245.2,70" />
<path stroke="#000000" stroke-width="2" d="M 245.2,35" />
<path stroke="#000000" stroke-width="2" d="M 245.2,35 247.3,34.9 248.9,34.6 250.1,34.1 251,33.6 251.6,32.9 251.8,32.2 251.9,31.4 251.7,30.7 251.4,30 250.9,29.4 250.2,28.9 249.6,28.5 248.8,28.3 248.1,28.4 247.3,28.7 246.7,29.2 246.1,30.1 245.6,31.4 245.3,33 245.2,35 245.2,50 252.9,68.5" />
<path stroke="#000000" stroke-width="2" d="M 259.6,70" />
<path stroke="#000000" stroke-width="2" d="M 259.6,20 259.6,20.7 259.6,21.4 259.7,22.1 259.9,22.8 260.2,23.4 260.5,24 260.8,24.6 261.2,25.2 261.6,25.8 262.1,26.2 262.7,26.7 263.2,27.1 263.9,27.4 264.5,27.7 265.1,28 265.8,28.2 266.5,28.3 267.2,28.3 267.9,28.3 268.6,28.3 269.3,28.2 270,28 270.6,27.7 271.2,27.4 271.8,27.1 272.4,26.7 273,26.2 273.4,25.8 273.9,25.2 274.3,24.6 274.6,24 274.9,23.4 275.2,22.8 275.4,22.1 275.5,21.4 275.5,20.7 275.5,21.4 275.6,22.1 275.7,22.8 275.9,23.5 276.1,24.1 276.4,24.7 276.8,25.3 277.2,25.9 277.6,26.5 278.1,26.9 278.7,27.4 279.2,27.8 279.8,28.1 280.5,28.4 281.1,28.7 281.8,28.9 282.5,29 283.2,29 283.9,29 284.6,29 285.3,28.9 285.9,28.7 286.6,28.4 287.2,28.1 287.8,27.8 288.4,27.4 288.9,26.9 289.4,26.5 289.9,25.9 290.3,25.3 290.6,24.7 290.9,24.1 291.2,23.5 291.3,22.8 291.5,22.1 291.5,21.4" />
<path stroke="#000000" stroke-width="2" d="M 298.2,70" />
<path stroke="#000000" stroke-width="2" d="M 298.2,20 298.2,40 298.2,34 298.2,33.1 298.3,32.3 298.4,31.4 298.6,30.6 298.9,29.7 299.3,28.9 299.7,28.2 300.2,27.5 300.8,26.8 301.4,26.2 302.1,25.6 302.8,25.1 303.6,24.7 304.4,24.3 305.2,24 306,23.8 306.9,23.6 307.7,23.6" />
<path stroke="#000000" stroke-width="2" d="M 337.7,70" />
<path stroke="#000000" stroke-width="2" d="M 337.7,70 337.9,70 337.9,70.2 337.7,70.2 337.7,70" />
<path stroke="#000000" stroke-width="2" d="M 367.9,70" />
<path stroke="#000000" stroke-width="2" d="M 367.9,70 368.1,70 368.1,70.2 367.9,70.2 367.9,70" />
<path stroke="#000000" stroke-width="2" d="M 374.8,70" />
<path stroke="#000000" stroke-width="2" d="M 374.8,35" />
<path stroke="#000000" stroke-width="2" d="M 374.8,35 376.8,34.9 378.5,34.6 379.7,34.1 380.6,33.6 381.1,32.9 381.4,32.2 381.5,31.4 381.3,30.7 380.9,30 380.4,29.4 379.8,28.9 379.1,28.5 378.4,28.3 377.6,28.4 376.9,28.7 376.3,29.2 375.7,30.1 375.2,31.4 374.9,33 374.8,35 374.8,50 374.8,49.3 374.9,48.6 375,47.9 375.2,47.2 375.4,46.6 375.7,46 376.1,45.4 376.5,44.8 376.9,44.2 377.4,43.8 377.9,43.3 378.5,42.9 379.1,42.6 379.7,42.3 380.4,42 381.1,41.8 381.8,41.7 382.5,41.7 383.2,41.7 383.8,41.7 384.5,41.8 385.2,42 385.9,42.3 386.5,42.6 387.1,42.9 387.7,43.3 388.2,43.8 388.7,44.2 389.2,44.8 389.6,45.4 389.9,46 390.2,46.6 390.4,47.2 390.6,47.9 390.7,48.6 390.8,49.3" />
<path stroke="#000000" stroke-width="2" d="M 397.5,70" />
<path stroke="#000000" stroke-width="2" d="M 397.5,30 397.5,50 397.5,50.7 397.5,51.4 397.6,52.1 397.8,52.8 398.1,53.4 398.4,54 398.7,54.6 399.1,55.2 399.6,55.8 400.1,56.2 400.6,56.7 401.2,57.1 401.8,57.4 402.4,57.7 403,58 403.7,58.2 404.4,58.3 405.1,58.3 405.8,58.3 406.5,58.3 407.2,58.2 407.9,58 408.5,57.7 409.1,57.4 409.8,57.1 410.3,56.7 410.9,56.2 411.4,55.8 411.8,55.2 412.2,54.6 412.6,54 412.8,53.4 413.1,52.8 413.3,52.1 413.4,51.4 413.4,50.7" />
<path stroke="#000000" stroke-width="2" d="M 420.1,70" />
<path stroke="#000000" stroke-width="2" d="M 422.1,70 427.5,57.1 427.6,56.7 427.7,56.4 427.8,56.1 427.8,55.7 427.8,55.4 427.8,55 427.8,54.7 427.7,54.3 427.6,54 427.5,53.7 427.3,53.4 427.1,53.1 426.9,52.8 426.7,52.5 426.4,52.3 426.1,52.1 425.8,51.9 425.5,51.7 425.2,51.6 424.9,51.5 424.5,51.4 424.2,51.4 423.8,51.4 423.5,51.4 423.2,51.4 422.8,51.5 422.5,51.6 422.2,51.7 421.8,51.9 421.6,52.1 421.3,52.3 421,52.5 420.8,52.8 420.6,53.1 420.4,53.4 420.2,53.7 420.1,54 420,54.3 419.9,54.7 419.9,55 419.8,55.4 419.9,55.7 419.9,56.1 420,56.4 420.1,56.7 420.2,57.1 420.4,57.4 420.6,57.7 420.8,57.9 421,58.2 421.3,58.4 421.6,58.7 421.8,58.8 422.2,59 422.5,59.1 422.8,59.2 423.2,59.3 423.5,59.4 423.8,59.4 424.2,59.4 437.1,54" />
<path stroke="#000000" stroke-width="2" d="M 467.1,70" />
<path stroke="#000000" stroke-width="2" d="M 477.1,30 467.1,30 467.1,70" />
<path stroke="#000000" stroke-width="2" d="M 483.8,70" />
<path stroke="#000000" stroke-width="2" d="M 483.8,70 491.4,51.5 499.1,70 491.4,88.5" />
<path stroke="#000000" stroke-width="2" d="M 529.1,70" />
<path stroke="#000000" stroke-width="2" d="M 529.1,30 549.1,30 550,30 550.8,30.1 551.7,30.2 552.5,30.5 553.4,30.8 554.2,31.1 554.9,31.6 555.6,32.1 556.3,32.6 556.9,33.2 557.5,33.9 558,34.6 558.4,35.4 558.8,36.2 559.1,37 559.3,37.8 559.5,38.7 559.5,39.6 559.5,40.4 559.5,41.3 559.3,42.2 559.1,43 558.8,43.8 558.4,44.6 558,45.4 557.5,46.1 556.9,46.7 556.3,47.4 555.6,47.9 554.9,48.4 554.2,48.9 553.4,49.2 552.5,49.5 551.7,49.8 550.8,49.9 550,50" />
<path stroke="#000000" stroke-width="2" d="M 589.5,70" />
<path stroke="#000000" stroke-width="2" d="M 589.5,30 589.5,70 589.5,58 589.5,56.3 589.7,54.5 590,52.8 590.4,51.1 591,49.5 591.8,47.9 592.6,46.4 593.6,45 594.8,43.6 596,42.4 597.3,41.3 598.8,40.3 600.3,39.4 601.9,38.7 603.5,38.1 605.2,37.6 606.9,37.3 608.6,37.1" />
<path stroke="#000000" stroke-width="2" d="M 615.3,70" />
<path stroke="#000000" stroke-width="2" d="M 615.3,20 615.3,40 625.3,40 645.3,40 645.3,60" />
<path stroke="#000000" stroke-width="2" d="M 652,70" />
<path stroke="#000000" stroke-width="2" d="M 652,50 652,70 657.6,64.3" />
<path stroke="#000000" stroke-width="2" d="M 657.6,64.3 659.7,64.2 661.3,63.9 662.5,63.5 663.4,62.9 664,62.2 664.2,61.5 664.3,60.8 664.1,60 663.8,59.3 663.3,58.7 662.6,58.2 661.9,57.9 661.2,57.7 660.5,57.7 659.7,58 659.1,58.6 658.5,59.5 658,60.7 657.7,62.3 657.6,64.3 657.6,79.3 650,97.8 650,117.8 650,111.8 650,110.9 650.1,110.1 650.2,109.2 650.4,108.4 650.7,107.6 651.1,106.8 651.5,106 652,105.3 652.6,104.6 653.2,104 653.9,103.5 654.6,103 655.3,102.5 656.1,102.1 657,101.8 657.8,101.6 658.7,101.5 659.5,101.4" />
<path stroke="#000000" stroke-width="2" d="M 671,70" />
<path stroke="#000000" stroke-width="2" d="M 687,30" />
<path stroke="#000000" stroke-width="2" d="M 687,30 686.7,34.1 686.1,37.3 685.2,39.8 684.1,41.5 682.7,42.7 681.3,43.2 679.8,43.3 678.3,43 676.9,42.3 675.7,41.2 674.7,40 674,38.6 673.6,37.2 673.7,35.7 674.3,34.2 675.4,32.9 677.2,31.7 679.7,30.8 682.9,30.2 687,30 707,30" />
<path stroke="#000000" stroke-width="2" d="M 713.6,70" />
<path stroke="#000000" stroke-width="2" d="M 713.6,20 714.5,20 715.4,20.1 716.2,20.2 717.1,20.5 717.9,20.8 718.7,21.1 719.4,21.6 720.1,22.1 720.8,22.6 721.4,23.2 722,23.9 722.5,24.6 722.9,25.4 723.3,26.2 723.6,27 723.8,27.8 724,28.7 724,29.6 724,30.4 724,31.3 723.8,32.2 723.6,33 723.3,33.8 722.9,34.6 722.5,35.4 722,36.1 721.4,36.7 720.8,37.4 720.1,37.9 719.4,38.4 718.7,38.9 717.9,39.2 717.1,39.5 716.2,39.8 715.4,39.9 714.5,40" />
<path stroke="#000000" stroke-width="2" d="M 754,70" />
<path stroke="#000000" stroke-width="2" d="M 754,30 769.4,67" />
<path stroke="#000000" stroke-width="2" d="M 776,70" />
<path stroke="#000000" stroke-width="2" d="M 776,20 796,20" />
<path stroke="#000000" stroke-width="2" d="M 802.7,70" />
<path stroke="#000000" stroke-width="2" d="M 802.7,20 802.9,20 802.9,20.2 802.7,20.2 802.7,20" />
<path stroke="#000000" stroke-width="2" d="M 832.9,70" />
<path stroke="#000000" stroke-width="2" d="M 832.9,30 852.9,30 853.8,30 854.6,30.1 855.5,30.2 856.3,30.5 857.1,30.8 857.9,31.1 858.7,31.6 859.4,32.1 860.1,32.6 860.7,33.2 861.3,33.9 861.8,34.6 862.2,35.4 862.6,36.2 862.9,37 863.1,37.8 863.2,38.7 863.3,39.6 863.3,40.4 863.2,41.3 863.1,42.2 862.9,43 862.6,43.8 862.2,44.6 861.8,45.4 861.3,46.1 860.7,46.7 860.1,47.4 859.4,47.9 858.7,48.4 857.9,48.9 857.1,49.2 856.3,49.5 855.5,49.8 854.6,49.9 853.8,50" />
<path stroke="#000000" stroke-width="2" d="M 893.3,70" />
<path stroke="#000000" stroke-width="2" d="M 913.3,30 898,67" />
<path stroke="#000000" stroke-width="2" d="M 920,70" />
<path stroke="#000000" stroke-width="2" d="M 920,20 920,40 930,40 930,40.7 930,41.4 930.2,42.1 930.3,42.8 930.6,43.4 930.9,44 931.2,44.6 931.6,45.2 932.1,45.8 932.6,46.2 933.1,46.7 933.7,47.1 934.3,47.4 934.9,47.7 935.6,48 936.2,48.2 936.9,48.3 937.6,48.3 938.3,48.3 939,48.3 939.7,48.2 940.4,48 941,47.7 941.7,47.4 942.3,47.1 942.8,46.7 943.4,46.2 943.9,45.8 944.3,45.2 944.7,44.6 945.1,44 945.4,43.4 945.6,42.8 945.8,42.1 945.9,41.4 946,40.7" />
<path stroke="#000000" stroke-width="2" d="M 976,70" />
<path stroke="#000000" stroke-width="2" d="M 986,30 985.1,30 984.2,30.1 983.4,30.2 982.5,30.5 981.7,30.8 980.9,31.1 980.2,31.6 979.4,32.1 978.8,32.6 978.2,33.2 977.6,33.9 977.1,34.6 976.7,35.4 976.3,36.2 976,37 975.8,37.8 975.6,38.7 975.5,39.6 975.5,40.4 975.6,41.3 975.8,42.2 976,43 976.3,43.8 976.7,44.6 977.1,45.4 977.6,46.1 978.2,46.7 978.8,47.4 979.4,47.9 980.2,48.4 980.9,48.9 981.7,49.2 982.5,49.5 983.4,49.8 984.2,49.9 985.1,50 990.1,50 990.1,70" />
<path stroke="#000000" stroke-width="2" d="M 1020.1,70" />
<path stroke="#000000" stroke-width="2" d="M 1020.1,70 1020.3,70 1020.3,70.2 1020.1,70.2 1020.1,70" />
<path stroke="#000000" stroke-width="2" d="M 1027,70" />
<path stroke="#000000" stroke-width="2" d="M 1043,30" />
<path stroke="#000000" stroke-width="2" d="M 1043,30 1042.7,34.1 1042.1,37.3 1041.2,39.8 1040.1,41.5 1038.7,42.7 1037.3,43.2 1035.8,43.3 1034.3,43 1032.9,42.3 1031.7,41.2 1030.7,40 1030,38.6 1029.6,37.2 1029.7,35.7 1030.3,34.2 1031.4,32.9 1033.2,31.7 1035.7,30.8 1038.9,30.2 1043,30 1063,30" />
<path stroke="#000000" stroke-width="2" d="M 1069.6,70" />
<path stroke="#000000" stroke-width="2" d="M 1069.6,20 1069.6,24 1069.6,24.5 1069.7,25 1069.8,25.6 1069.9,26.1 1070.1,26.6 1070.3,27 1070.6,27.5 1070.9,27.9 1071.2,28.3 1071.6,28.7 1072,29 1072.4,29.3 1072.8,29.6 1073.3,29.8 1073.8,30 1074.3,30.1 1074.8,30.2 1075.4,30.3 1075.9,30.3 1076.4,30.2 1076.9,30.1 1077.4,30 1077.9,29.8 1078.4,29.6 1078.8,29.3 1079.3,29 1079.7,28.7 1080,28.3 1080.4,27.9 1080.7,27.5 1080.9,27 1081.2,26.6 1081.3,26.1 1081.5,25.6 1081.6,25 1081.6,24.5 1081.6,19.5 1081.6,39.5" />
<path stroke="#000000" stroke-width="2" d="M 1088.3,70" />
<path stroke="#000000" stroke-width="2" d="M 1088.3,25" />
<path stroke="#000000" stroke-width="2" d="M 1088.3,25 1090.3,24.9 1091.9,24.6 1093.2,24.1 1094,23.6 1094.6,22.9 1094.9,22.2 1094.9,21.4 1094.8,20.7 1094.4,20 1093.9,19.4 1093.3,18.9 1092.6,18.5 1091.9,18.3 1091.1,18.4 1090.4,18.7 1089.7,19.2 1089.1,20.1 1088.7,21.4 1088.4,23 1088.3,25 1088.3,40" />
<path stroke="#000000" stroke-width="2" d="M 1101.6,70" />
<path stroke="#000000" stroke-width="2" d="M 1101.6,55" />
<path stroke="#000000" stroke-width="2" d="M 1101.6,55 1103.6,54.9 1105.2,54.6 1106.5,54.1 1107.4,53.6 1107.9,52.9 1108.2,52.2 1108.3,51.4 1108.1,50.7 1107.7,50 1107.2,49.4 1106.6,48.9 1105.9,48.5 1105.2,48.3 1104.4,48.4 1103.7,48.7 1103,49.2 1102.5,50.1 1102,51.4 1101.7,53 1101.6,55 1101.6,70" />
<path stroke="#000000" stroke-width="2" d="M 1138.3,70" />
<path stroke="#000000" stroke-width="2" d="M 1138.3,50 1145.9,31.5 1153.6,50" />
<path stroke="#000000" stroke-width="2" d="M 1153.6,50 1153.5,52 1153.2,53.6 1152.7,54.9 1152.1,55.8 1151.5,56.3 1150.7,56.6 1150,56.7 1149.2,56.5 1148.5,56.1 1147.9,55.6 1147.4,55 1147.1,54.3 1146.9,53.6 1146.9,52.8 1147.2,52.1 1147.8,51.4 1148.7,50.9 1149.9,50.4 1151.5,50.1 1153.6,50 1163.6,50 1155.9,68.5 1155.9,69.2 1156,69.9 1156.1,70.6 1156.3,71.2 1156.5,71.9 1156.8,72.5 1157.2,73.1 1157.6,73.7 1158,74.2 1158.5,74.7 1159,75.2 1159.6,75.6 1160.2,75.9 1160.8,76.2 1161.5,76.5 1162.2,76.6 1162.9,76.8 1163.6,76.8 1164.2,76.8 1164.9,76.8 1165.6,76.6 1166.3,76.5 1167,76.2 1167.6,75.9 1168.2,75.6 1168.8,75.2 1169.3,74.7 1169.8,74.2 1170.2,73.7 1170.6,73.1 1171,72.5 1171.3,71.9 1171.5,71.2 1171.7,70.6 1171.8,69.9 1171.9,69.2" />
<path stroke="#000000" stroke-width="2" d="M 1178.6,70" />
<path stroke="#000000" stroke-width="2" d="M 1178.6,30 1178.8,30 1178.8,30.2 1178.6,30.2 1178.6,30" />
<path stroke="#000000" stroke-width="2" d="M 1208.8,70" />
</svg>