<svg xmlns="http://www.w3.org/2000/svg" width="1136.9094267896198" height="108.27658052344906" style="fill:none; stroke-linecap:round;">
    <rect width="100%" height="100%" fill="#FFFFFF" />
<path stroke="#000000" stroke-width="2" d="M 550,75" />
<path stroke="#000000" stroke-width="2" d="M 20,40 20.2,40 20.2,40.2 20,40.2 20,40" />
<path stroke="#000000" stroke-width="2" d="M 26.9,70" />
<path stroke="#000000" stroke-width="2" d="M 28.9,50 34.2,37.1 34.4,36.7 34.5,36.4 34.5,36.1 34.6,35.7 34.6,35.4 34.6,35 34.5,34.7 34.5,34.3 34.4,34 34.2,33.7 34.1,33.4 33.9,33.1 33.7,32.8 33.4,32.5 33.2,32.3 32.9,32.1 32.6,31.9 32.3,31.7 32,31.6 31.6,31.5 31.3,31.4 30.9,31.4 30.6,31.4 30.3,31.4 29.9,31.4 29.6,31.5 29.2,31.6 28.9,31.7 28.6,31.9 28.3,32.1 28,32.3 27.8,32.5 27.5,32.8 27.3,33.1 27.1,33.4 27,33.7 26.8,34 26.7,34.3 26.7,34.7 26.6,35 26.6,35.4 26.6,35.7 26.7,36.1 26.7,36.4 26.8,36.7 27,37.1 27.1,37.4 27.3,37.7 27.5,37.9 27.8,38.2 28,38.4 28.3,38.7 28.6,38.8 28.9,39 29.2,39.1 29.6,39.2 29.9,39.3 30.3,39.4 30.6,39.4 30.9,39.4 43.9,34 43.9,34.7 43.9,35.4 44.1,36.1 44.2,36.8 44.5,37.4 44.8,38 45.1,38.6 45.5,39.2 46,39.8 46.5,40.2 47,40.7 47.6,41.1 48.2,41.4 48.8,41.7 49.5,42 50.1,42.2 50.8,42.3 51.5,42.3 52.2,42.3 52.9,42.3 53.6,42.2 54.3,42 54.9,41.7 55.6,41.4 56.2,41.1 56.7,40.7 57.3,40.2 57.8,39.8 58.2,39.2 58.6,38.6 59,38 59.3,37.4 59.5,36.8 59.7,36.1 59.8,35.4 59.9,34.7 60.7,34.7 61.6,34.8 62.5,34.9 63.3,35.2 64.1,35.5 64.9,35.8 65.7,36.3 66.4,36.8 67.1,37.3 67.7,37.9 68.2,38.6 68.7,39.3 69.2,40.1 69.5,40.9 69.8,41.7 70.1,42.5 70.2,43.4 70.3,44.3 70.3,45.1 70.2,46 70.1,46.9 69.8,47.7 69.5,48.5 69.2,49.3 68.7,50.1 68.2,50.8 67.7,51.4 67.1,52.1 66.4,52.6 65.7,53.1 64.9,53.6 64.1,53.9 63.3,54.2 62.5,54.5 61.6,54.6 60.7,54.7" />
<path stroke="#000000" stroke-width="2" d="M 77,70" />
<path stroke="#000000" stroke-width="2" d="M 77,20 77,40 77,34 77,33.1 77,32.3 77.2,31.4 77.4,30.6 77.7,29.7 78.1,28.9 78.5,28.2 79,27.5 79.6,26.8 80.2,26.2 80.9,25.6 81.6,25.1 82.3,24.7 83.1,24.3 83.9,24 84.8,23.8 85.6,23.6 86.5,23.6" />
<path stroke="#000000" stroke-width="2" d="M 116.5,70" />
<path stroke="#000000" stroke-width="2" d="M 116.5,40" />
<path stroke="#000000" stroke-width="2" d="M 116.5,40 120.6,39.8 123.8,39.2 126.3,38.3 128,37.1 129.2,35.8 129.7,34.3 129.8,32.8 129.5,31.4 128.8,30 127.8,28.8 126.5,27.7 125.2,27 123.7,26.7 122.2,26.8 120.7,27.3 119.4,28.5 118.2,30.2 117.3,32.7 116.7,35.9 116.5,40 116.5,70" />
<path stroke="#000000" stroke-width="2" d="M 136.5,70" />
<path stroke="#000000" stroke-width="2" d="M 136.5,35" />
<path stroke="#000000" stroke-width="2" d="M 136.5,35 138.5,34.9 140.1,34.6 141.4,34.1 142.2,33.6 142.8,32.9 143.1,32.2 143.1,31.4 143,30.7 142.6,30 142.1,29.4 141.5,28.9 140.8,28.5 140.1,28.3 139.3,28.4 138.6,28.7 137.9,29.2 137.4,30.1 136.9,31.4 136.6,33 136.5,35 136.5,50 128.8,68.5" />
<path stroke="#000000" stroke-width="2" d="M 149.8,70" />
<path stroke="#000000" stroke-width="2" d="M 149.8,20 149.8,40 149.8,34 149.8,33.1 149.9,32.3 150,31.4 150.3,30.6 150.6,29.7 150.9,28.9 151.4,28.2 151.9,27.5 152.4,26.8 153,26.2 153.7,25.6 154.4,25.1 155.2,24.7 156,24.3 156.8,24 157.6,23.8 158.5,23.6 159.4,23.6" />
<path stroke="#000000" stroke-width="2" d="M 189.4,70" />
<path stroke="#000000" stroke-width="2" d="M 209.4,30 194.1,67" />
<path stroke="#000000" stroke-width="2" d="M 216,70" />
<path stroke="#000000" stroke-width="2" d="M 226,50 225.2,50 224.3,50.1 223.4,50.2 222.6,50.5 221.8,50.8 221,51.1 220.2,51.6 219.5,52.1 218.8,52.6 218.2,53.2 217.7,53.9 217.2,54.6 216.7,55.4 216.4,56.2 216.1,57 215.8,57.8 215.7,58.7 215.6,59.6 215.6,60.4 215.7,61.3 215.8,62.2 216.1,63 216.4,63.8 216.7,64.6 217.2,65.4 217.7,66.1 218.2,66.7 218.8,67.4 219.5,67.9 220.2,68.4 221,68.9 221.8,69.2 222.6,69.5 223.4,69.8 224.3,69.9 225.2,70 225.2,69.3 225.2,68.6 225.3,67.9 225.5,67.2 225.8,66.6 226.1,65.9 226.4,65.3 226.8,64.8 227.3,64.2 227.7,63.7 228.3,63.3 228.9,62.9 229.5,62.5 230.1,62.2 230.7,62 231.4,61.8 232.1,61.7 232.8,61.6 233.5,61.6 234.2,61.7 234.9,61.8 235.6,62 236.2,62.2 236.8,62.5 237.5,62.9 238,63.3 238.6,63.7 239,64.2 239.5,64.8 239.9,65.3 240.2,65.9 240.5,66.6 240.8,67.2 241,67.9 241.1,68.6 241.1,69.3" />
<path stroke="#000000" stroke-width="2" d="M 271.1,70" />
<path stroke="#000000" stroke-width="2" d="M 281.1,30 280.3,30 279.4,30.1 278.5,30.2 277.7,30.5 276.9,30.8 276.1,31.1 275.3,31.6 274.6,32.1 274,32.6 273.3,33.2 272.8,33.9 272.3,34.6 271.8,35.4 271.5,36.2 271.2,37 270.9,37.8 270.8,38.7 270.7,39.6 270.7,40.4 270.8,41.3 270.9,42.2 271.2,43 271.5,43.8 271.8,44.6 272.3,45.4 272.8,46.1 273.3,46.7 274,47.4 274.6,47.9 275.3,48.4 276.1,48.9 276.9,49.2 277.7,49.5 278.5,49.8 279.4,49.9 280.3,50 300.3,50" />
<path stroke="#000000" stroke-width="2" d="M 330.3,70" />
<path stroke="#000000" stroke-width="2" d="M 330.3,30 330.3,70 330.3,58 330.3,56.3 330.4,54.5 330.7,52.8 331.2,51.1 331.8,49.5 332.5,47.9 333.4,46.4 334.4,45 335.5,43.6 336.7,42.4 338.1,41.3 339.5,40.3 341,39.4 342.6,38.7 344.2,38.1 345.9,37.6 347.6,37.3 349.4,37.1" />
<path stroke="#000000" stroke-width="2" d="M 356,70" />
<path stroke="#000000" stroke-width="2" d="M 356,25" />
<path stroke="#000000" stroke-width="2" d="M 356,25 358.1,24.9 359.7,24.6 360.9,24.1 361.8,23.6 362.4,22.9 362.7,22.2 362.7,21.4 362.5,20.7 362.2,20 361.7,19.4 361.1,18.9 360.4,18.5 359.6,18.3 358.9,18.4 358.2,18.7 357.5,19.2 356.9,20.1 356.5,21.4 356.2,23 356,25 356,40" />
<path stroke="#000000" stroke-width="2" d="M 356,40 355.9,42 355.6,43.6 355.2,44.9 354.6,45.8 353.9,46.3 353.2,46.6 352.5,46.7 351.7,46.5 351,46.1 350.4,45.6 349.9,45 349.6,44.3 349.4,43.6 349.4,42.8 349.7,42.1 350.3,41.4 351.2,40.9 352.4,40.4 354,40.1 356,40 366,40" />
<path stroke="#000000" stroke-width="2" d="M 372.7,70" />
<path stroke="#000000" stroke-width="2" d="M 372.7,50 392.7,50" />
<path stroke="#000000" stroke-width="2" d="M 392.7,50 394.7,49.9 396.4,49.6 397.6,49.1 398.5,48.6 399,47.9 399.3,47.2 399.4,46.4 399.2,45.7 398.8,45 398.3,44.4 397.7,43.9 397,43.5 396.3,43.3 395.5,43.4 394.8,43.7 394.2,44.2 393.6,45.1 393.1,46.4 392.8,48 392.7,50 392.7,65" />
<path stroke="#000000" stroke-width="2" d="M 406,70" />
<path stroke="#000000" stroke-width="2" d="M 406,30 406,70" />
<path stroke="#000000" stroke-width="2" d="M 412.7,70" />
<path stroke="#000000" stroke-width="2" d="M 412.7,30 412.7,31.4 412.8,32.8 413.1,34.2 413.4,35.5 413.9,36.8 414.5,38.1 415.2,39.3 416,40.4 416.9,41.5 417.9,42.5 418.9,43.4 420.1,44.2 421.3,44.9 422.6,45.5 423.9,46 425.2,46.3 426.6,46.6 428,46.7 429.4,46.7 430.8,46.6 432.1,46.3 433.5,46 434.8,45.5 436.1,44.9 437.3,44.2 438.4,43.4 439.5,42.5 440.5,41.5 441.4,40.4 442.2,39.3 442.9,38.1 443.5,36.8 443.9,35.5 444.3,34.2 444.5,32.8 444.7,31.4" />
<path stroke="#000000" stroke-width="2" d="M 451.3,70" />
<path stroke="#000000" stroke-width="2" d="M 471.3,30 456,67" />
<path stroke="#000000" stroke-width="2" d="M 478,70" />
<path stroke="#000000" stroke-width="2" d="M 478,30 478.2,30 478.2,30.2 478,30.2 478,30" />
<path stroke="#000000" stroke-width="2" d="M 508.2,70" />
<path stroke="#000000" stroke-width="2" d="M 508.2,30 518.2,30 518.2,70" />
<path stroke="#000000" stroke-width="2" d="M 524.9,70" />
<path stroke="#000000" stroke-width="2" d="M 524.9,50 524.9,70 524.9,64 524.9,63.1 524.9,62.3 525.1,61.4 525.3,60.6 525.6,59.7 526,58.9 526.4,58.2 526.9,57.5 527.5,56.8 528.1,56.2 528.8,55.6 529.5,55.1 530.2,54.7 531,54.3 531.9,54 532.7,53.8 533.6,53.6 534.4,53.6" />
<path stroke="#000000" stroke-width="2" d="M 564.4,70" />
<path stroke="#000000" stroke-width="2" d="M 564.4,30 564.4,70" />
<path stroke="#000000" stroke-width="2" d="M 571.1,70" />
<path stroke="#000000" stroke-width="2" d="M 581.1,50 573.4,68.5 563.5,78.4 573.4,88.3" />
<path stroke="#000000" stroke-width="2" d="M 611.1,70" />
<path stroke="#000000" stroke-width="2" d="M 611.1,40" />
<path stroke="#000000" stroke-width="2" d="M 611.1,40 615.2,39.8 618.4,39.2 620.8,38.3 622.6,37.1 623.7,35.8 624.3,34.3 624.4,32.8 624.1,31.4 623.3,30 622.3,28.8 621.1,27.7 619.7,27 618.3,26.7 616.8,26.8 615.3,27.3 614,28.5 612.8,30.2 611.9,32.7 611.3,35.9 611.1,40 611.1,70" />
<path stroke="#000000" stroke-width="2" d="M 631.1,70" />
<path stroke="#000000" stroke-width="2" d="M 631.1,50 651.1,50" />
<path stroke="#000000" stroke-width="2" d="M 681.1,70" />
<path stroke="#000000" stroke-width="2" d="M 681.1,70" />
<path stroke="#000000" stroke-width="2" d="M 681.1,70 682.2,70 683.2,70.2 684,70.4 684.7,70.7 685.3,71 685.7,71.5 686,71.9 686.3,72.5 686.3,73.1 686.3,73.8 686.2,74.4 686,75.2 685.6,76 685.2,76.8 684.7,77.6 684.1,78.4 683.5,79.3 682.7,80.2 681.9,81.1 681.1,82" />
<path stroke="#000000" stroke-width="2" d="M 716.3,70" />
<path stroke="#000000" stroke-width="2" d="M 716.3,50 724,31.5 731.6,50 751.6,50 752.5,50 753.4,50.1 754.2,50.2 755.1,50.5 755.9,50.8 756.7,51.1 757.5,51.6 758.2,52.1 758.8,52.6 759.5,53.2 760,53.9 760.5,54.6 761,55.4 761.3,56.2 761.6,57 761.8,57.8 762,58.7 762.1,59.6 762.1,60.4 762,61.3 761.8,62.2 761.6,63 761.3,63.8 761,64.6 760.5,65.4 760,66.1 759.5,66.7 758.8,67.4 758.2,67.9 757.5,68.4 756.7,68.9 755.9,69.2 755.1,69.5 754.2,69.8 753.4,69.9 752.5,70" />
<path stroke="#000000" stroke-width="2" d="M 792.1,70" />
<path stroke="#000000" stroke-width="2" d="M 792.1,30 807.4,67" />
<path stroke="#000000" stroke-width="2" d="M 814,70" />
<path stroke="#000000" stroke-width="2" d="M 824,50 823.2,50 822.3,50.1 821.4,50.2 820.6,50.5 819.8,50.8 819,51.1 818.2,51.6 817.5,52.1 816.9,52.6 816.2,53.2 815.7,53.9 815.2,54.6 814.7,55.4 814.4,56.2 814.1,57 813.8,57.8 813.7,58.7 813.6,59.6 813.6,60.4 813.7,61.3 813.8,62.2 814.1,63 814.4,63.8 814.7,64.6 815.2,65.4 815.7,66.1 816.2,66.7 816.9,67.4 817.5,67.9 818.2,68.4 819,68.9 819.8,69.2 820.6,69.5 821.4,69.8 822.3,69.9 823.2,70 843.2,70" />
<path stroke="#000000" stroke-width="2" d="M 873.2,70" />
<path stroke="#000000" stroke-width="2" d="M 873.2,70" />
<path stroke="#000000" stroke-width="2" d="M 873.2,70 874.3,70 875.3,70.2 876.1,70.4 876.8,70.7 877.4,71 877.8,71.5 878.2,71.9 878.4,72.5 878.4,73.1 878.4,73.8 878.3,74.4 878.1,75.2 877.7,76 877.3,76.8 876.8,77.6 876.2,78.4 875.6,79.3 874.8,80.2 874,81.1 873.2,82" />
<path stroke="#000000" stroke-width="2" d="M 908.4,70" />
<path stroke="#000000" stroke-width="2" d="M 908.4,50 916.1,31.5 923.8,50 943.8,50 944.6,50 945.5,50.1 946.4,50.2 947.2,50.5 948,50.8 948.8,51.1 949.6,51.6 950.3,52.1 950.9,52.6 951.6,53.2 952.1,53.9 952.6,54.6 953.1,55.4 953.4,56.2 953.7,57 954,57.8 954.1,58.7 954.2,59.6 954.2,60.4 954.1,61.3 954,62.2 953.7,63 953.4,63.8 953.1,64.6 952.6,65.4 952.1,66.1 951.6,66.7 950.9,67.4 950.3,67.9 949.6,68.4 948.8,68.9 948,69.2 947.2,69.5 946.4,69.8 945.5,69.9 944.6,70" />
<path stroke="#000000" stroke-width="2" d="M 984.2,70" />
<path stroke="#000000" stroke-width="2" d="M 1000.2,30 980.4,49.8 1000.2,69.6" />
<path stroke="#000000" stroke-width="2" d="M 1006.8,70" />
<path stroke="#000000" stroke-width="2" d="M 1006.8,20 1006.8,40 1006.8,34 1006.8,33.1 1006.9,32.3 1007.1,31.4 1007.3,30.6 1007.6,29.7 1008,28.9 1008.4,28.2 1008.9,27.5 1009.5,26.8 1010.1,26.2 1010.7,25.6 1011.5,25.1 1012.2,24.7 1013,24.3 1013.8,24 1014.7,23.8 1015.5,23.6 1016.4,23.6 1024.1,42.1" />
<path stroke="#000000" stroke-width="2" d="M 1030.7,70" />
<path stroke="#000000" stroke-width="2" d="M 1030.7,50 1050.7,50" />
<path stroke="#000000" stroke-width="2" d="M 1057.4,70" />
<path stroke="#000000" stroke-width="2" d="M 1057.4,30 1057.6,30 1057.6,30.2 1057.4,30.2 1057.4,30" />
<path stroke="#000000" stroke-width="2" d="M 1087.6,70" />
<path stroke="#000000" stroke-width="2" d="M 1103.6,30 1083.8,49.8 1103.6,69.6" />
<path stroke="#000000" stroke-width="2" d="M 1110.3,70" />
<path stroke="#000000" stroke-width="2" d="M 1110.3,25" />
<path stroke="#000000" stroke-width="2" d="M 1110.3,25 1112.3,24.9 1113.9,24.6 1115.1,24.1 1116,23.6 1116.6,22.9 1116.9,22.2 1116.9,21.4 1116.7,20.7 1116.4,20 1115.9,19.4 1115.3,18.9 1114.6,18.5 1113.8,18.3 1113.1,18.4 1112.4,18.7 1111.7,19.2 1111.1,20.1 1110.7,21.4 1110.4,23 1110.3,25 1110.3,40" />
<path stroke="#000000" stroke-width="2" d="M 1146.9,70" />
</svg>