<svg xmlns="http://www.w3.org/2000/svg" width="835.8257547379163" height="93.30875" style="fill:none; stroke-linecap:round;">
    <rect width="100%" height="100%" fill="#FFFFFF" />
<path stroke="#000000" stroke-width="2" d="M 550,75" />
<path stroke="#000000" stroke-width="2" d="M 20,30 35.3,67 50.6,30" />
<path stroke="#000000" stroke-width="2" d="M 50.6,50" />
<path stroke="#000000" stroke-width="2" d="M 18.6,50 52.6,50" />
<path stroke="#000000" stroke-width="2" d="M 82.6,70" />
<path stroke="#000000" stroke-width="2" d="M 82.6,40" />
<path stroke="#000000" stroke-width="2" d="M 82.6,40 86.7,39.8 89.9,39.2 92.4,38.3 94.1,37.1 95.3,35.8 95.8,34.3 95.9,32.8 95.6,31.4 94.9,30 93.9,28.8 92.6,27.7 91.3,27 89.8,26.7 88.3,26.8 86.8,27.3 85.5,28.5 84.3,30.2 83.4,32.7 82.8,35.9 82.6,40 82.6,70" />
<path stroke="#000000" stroke-width="2" d="M 102.6,70" />
<path stroke="#000000" stroke-width="2" d="M 110.6,20 100.7,29.9 110.6,39.8" />
<path stroke="#000000" stroke-width="2" d="M 117.3,70" />
<path stroke="#000000" stroke-width="2" d="M 117.3,20 117.3,40 117.3,34 117.3,33.1 117.3,32.3 117.5,31.4 117.7,30.6 118,29.7 118.4,28.9 118.8,28.2 119.3,27.5 119.9,26.8 120.5,26.2 121.2,25.6 121.9,25.1 122.6,24.7 123.4,24.3 124.2,24 125.1,23.8 125.9,23.6 126.8,23.6" />
<path stroke="#000000" stroke-width="2" d="M 156.8,70" />
<path stroke="#000000" stroke-width="2" d="M 156.8,70 172.1,33 172.1,41 172.1,42.1 172.2,43.1 172.4,44.2 172.7,45.2 173,46.2 173.5,47.1 174,48 174.6,48.9 175.3,49.7 176,50.4 176.8,51.1 177.7,51.7 178.6,52.2 179.5,52.7 180.5,53 181.5,53.3 182.5,53.5 183.6,53.6 184.6,53.6 185.7,53.5 186.7,53.3 187.7,53 188.7,52.7 189.6,52.2 190.6,51.7 191.4,51.1 192.2,50.4 193,49.7 193.6,48.9 194.2,48 194.8,47.1 195.2,46.2 195.6,45.2 195.8,44.2 196,43.1 196.1,42.1 196.1,32.1 196.1,72.1" />
<path stroke="#000000" stroke-width="2" d="M 202.8,70" />
<path stroke="#000000" stroke-width="2" d="M 202.8,20 222.8,20" />
<path stroke="#000000" stroke-width="2" d="M 252.8,70" />
<path stroke="#000000" stroke-width="2" d="M 252.8,70 253,70 253,70.2 252.8,70.2 252.8,70" />
<path stroke="#000000" stroke-width="2" d="M 283,70" />
<path stroke="#000000" stroke-width="2" d="M 293,50 293.8,50 294.7,49.9 295.6,49.8 296.4,49.5 297.2,49.2 298,48.9 298.8,48.4 299.5,47.9 300.2,47.4 300.8,46.8 301.3,46.1 301.8,45.4 302.3,44.6 302.6,43.8 302.9,43 303.2,42.2 303.3,41.3 303.4,40.4 303.4,39.6 303.3,38.7 303.2,37.8 302.9,37 302.6,36.2 302.3,35.4 301.8,34.6 301.3,33.9 300.8,33.3 300.2,32.6 299.5,32.1 298.8,31.6 298,31.1 297.2,30.8 296.4,30.5 295.6,30.2 294.7,30.1 293.8,30 293,30 292.1,30.1 291.2,30.2 290.4,30.5 289.6,30.8 288.8,31.1 288,31.6 287.3,32.1 286.6,32.6 286,33.3 285.5,33.9 285,34.6 284.5,35.4 284.2,36.2 283.9,37 283.6,37.8 283.5,38.7 283.4,39.6 283.4,40.4 283.5,41.3 283.6,42.2 283.9,43 284.2,43.8 284.5,44.6 285,45.4 285.5,46.1 286,46.8 286.6,47.4 287.3,47.9 288,48.4 288.8,48.9 289.6,49.2 290.4,49.5 291.2,49.8 292.1,49.9 293,50 293,70 293,64 293,63.1 293,62.3 293.2,61.4 293.4,60.6 293.7,59.7 294.1,58.9 294.5,58.2 295,57.5 295.6,56.8 296.2,56.2 296.9,55.6 297.6,55.1 298.3,54.7 299.1,54.3 299.9,54 300.8,53.8 301.6,53.6 302.5,53.6" />
<path stroke="#000000" stroke-width="2" d="M 333.4,70" />
<path stroke="#000000" stroke-width="2" d="M 333.4,30 333.4,70 344.7,58.7" />
<path stroke="#000000" stroke-width="2" d="M 351.4,70" />
<path stroke="#000000" stroke-width="2" d="M 351.4,25" />
<path stroke="#000000" stroke-width="2" d="M 351.4,25 353.4,24.9 355,24.6 356.2,24.1 357.1,23.6 357.7,22.9 358,22.2 358,21.4 357.8,20.7 357.5,20 357,19.4 356.4,18.9 355.7,18.5 355,18.3 354.2,18.4 353.5,18.7 352.8,19.2 352.2,20.1 351.8,21.4 351.5,23 351.4,25 351.4,40" />
<path stroke="#000000" stroke-width="2" d="M 388,70" />
<path stroke="#000000" stroke-width="2" d="M 388,40 388.2,40 388.2,40.2 388,40.2 388,40" />
<path stroke="#000000" stroke-width="2" d="M 394.9,70" />
<path stroke="#000000" stroke-width="2" d="M 394.9,30 394.9,70 394.9,62 394.9,60.3 395,58.5 395.3,56.8 395.8,55.1 396.4,53.5 397.1,51.9 398,50.4 399,49 400.1,47.6 401.4,46.4 402.7,45.3 404.1,44.3" />
<path stroke="#000000" stroke-width="2" d="M 410.8,70" />
<path stroke="#000000" stroke-width="2" d="M 410.8,30 420.8,30 420.8,70" />
<path stroke="#000000" stroke-width="2" d="M 450.8,70" />
<path stroke="#000000" stroke-width="2" d="M 466.8,30" />
<path stroke="#000000" stroke-width="2" d="M 466.8,30 466.6,34.1 466,37.3 465.1,39.8 463.9,41.5 462.6,42.7 461.1,43.2 459.6,43.3 458.2,43 456.8,42.3 455.5,41.2 454.5,40 453.8,38.6 453.5,37.2 453.6,35.7 454.1,34.2 455.3,32.9 457,31.7 459.5,30.8 462.7,30.2 466.8,30 486.8,30" />
<path stroke="#000000" stroke-width="2" d="M 493.5,70" />
<path stroke="#000000" stroke-width="2" d="M 493.5,20 497.3,29.2" />
<path stroke="#000000" stroke-width="2" d="M 497.3,29.2 499.2,31.4 500.5,33.3 501.3,35 501.6,36.4 501.5,37.7 501.1,38.7 500.4,39.5 499.4,40 498.4,40.4 497.3,40.5 496.2,40.4 495.1,40 494.2,39.5 493.5,38.7 493.1,37.7 493,36.4 493.3,35 494,33.3 495.4,31.4 497.3,29.2 501.1,20" />
<path stroke="#000000" stroke-width="2" d="M 501.1,20 503.1,19.9 504.8,19.6 506,19.1 506.9,18.6 507.4,17.9 507.7,17.2 507.8,16.4 507.6,15.7 507.2,15 506.7,14.4 506.1,13.9 505.4,13.5 504.7,13.3 503.9,13.4 503.2,13.7 502.6,14.2 502,15.1 501.5,16.4 501.2,18 501.1,20 501.1,35" />
<path stroke="#000000" stroke-width="2" d="M 537.8,70" />
<path stroke="#000000" stroke-width="2" d="M 537.8,30 557.8,30 558.6,30 559.5,30.1 560.4,30.2 561.2,30.5 562,30.8 562.8,31.1 563.6,31.6 564.3,32.1 565,32.6 565.6,33.2 566.1,33.9 566.6,34.6 567.1,35.4 567.4,36.2 567.7,37 568,37.8 568.1,38.7 568.2,39.6 568.2,40.4 568.1,41.3 568,42.2 567.7,43 567.4,43.8 567.1,44.6 566.6,45.4 566.1,46.1 565.6,46.7 565,47.4 564.3,47.9 563.6,48.4 562.8,48.9 562,49.2 561.2,49.5 560.4,49.8 559.5,49.9 558.6,50" />
<path stroke="#000000" stroke-width="2" d="M 598.2,70" />
<path stroke="#000000" stroke-width="2" d="M 614.2,30 614.2,60" />
<path stroke="#000000" stroke-width="2" d="M 614.2,60 614,64.1 613.4,67.3 612.5,69.8 611.3,71.5 610,72.7 608.5,73.2 607,73.3 605.6,73 604.2,72.3 602.9,71.2 601.9,70 601.2,68.6 600.9,67.2 601,65.7 601.5,64.2 602.7,62.9 604.4,61.7 606.9,60.8 610.1,60.2 614.2,60" />
<path stroke="#000000" stroke-width="2" d="M 620.9,70" />
<path stroke="#000000" stroke-width="2" d="M 620.9,20 621.1,20 621.1,20.2 620.9,20.2 620.9,20" />
<path stroke="#000000" stroke-width="2" d="M 651.1,70" />
<path stroke="#000000" stroke-width="2" d="M 651.1,35" />
<path stroke="#000000" stroke-width="2" d="M 651.1,35 653.1,34.9 654.7,34.6 655.9,34.1 656.8,33.6 657.4,32.9 657.7,32.2 657.7,31.4 657.5,30.7 657.2,30 656.7,29.4 656.1,28.9 655.4,28.5 654.6,28.3 653.9,28.4 653.2,28.7 652.5,29.2 651.9,30.1 651.5,31.4 651.2,33 651.1,35 651.1,50 658.7,68.5" />
<path stroke="#000000" stroke-width="2" d="M 665.4,70" />
<path stroke="#000000" stroke-width="2" d="M 665.4,30 665.4,30.7 665.4,31.4 665.6,32.1 665.7,32.8 666,33.4 666.3,34 666.6,34.6 667,35.2 667.5,35.8 668,36.2 668.5,36.7 669.1,37.1 669.7,37.4 670.3,37.7 671,38 671.6,38.2 672.3,38.3 673,38.3 673.7,38.3 674.4,38.3 675.1,38.2 675.8,38 676.4,37.7 677.1,37.4 677.7,37.1 678.2,36.7 678.8,36.2 679.3,35.8 679.7,35.2 680.1,34.6 680.5,34 680.8,33.4 681,32.8 681.2,32.1 681.3,31.4 681.4,30.7 682.2,30.7 683.1,30.8 684,30.9 684.8,31.2 685.6,31.4 686.4,31.8 687.2,32.3 687.9,32.8 688.6,33.3 689.2,33.9 689.7,34.6 690.2,35.3 690.7,36.1 691,36.9 691.3,37.7 691.6,38.5 691.7,39.4 691.8,40.3 691.8,41.1 691.7,42 691.6,42.9 691.3,43.7 691,44.5 690.7,45.3 690.2,46.1 689.7,46.8 689.2,47.4 688.6,48.1 687.9,48.6 687.2,49.1 686.4,49.6 685.6,49.9 684.8,50.2 684,50.5 683.1,50.6 682.2,50.7" />
<path stroke="#000000" stroke-width="2" d="M 721.8,70" />
<path stroke="#000000" stroke-width="2" d="M 721.8,30 721.8,31.4 721.9,32.8 722.2,34.2 722.5,35.5 723,36.8 723.6,38.1 724.3,39.3 725.1,40.4 726,41.5 727,42.5 728,43.4 729.2,44.2 730.4,44.9 731.7,45.5 733,46 734.3,46.3 735.7,46.6 737.1,46.7 738.5,46.7 739.9,46.6 741.2,46.3 742.6,46 743.9,45.5 745.2,44.9 746.4,44.2 747.5,43.4 748.6,42.5 749.6,41.5 750.5,40.4 751.3,39.3 752,38.1 752.6,36.8 753,35.5 753.4,34.2 753.6,32.8 753.8,31.4" />
<path stroke="#000000" stroke-width="2" d="M 760.4,70" />
<path stroke="#000000" stroke-width="2" d="M 770.4,30 762.8,48.5 762.8,49.2 762.8,49.9 763,50.6 763.1,51.2 763.4,51.9 763.7,52.5 764,53.1 764.4,53.7 764.9,54.2 765.4,54.7 765.9,55.2 766.5,55.6 767.1,55.9 767.7,56.2 768.4,56.5 769,56.6 769.7,56.8 770.4,56.8 771.1,56.8 771.8,56.8 772.5,56.6 773.2,56.5 773.8,56.2 774.5,55.9 775.1,55.6 775.6,55.2 776.2,54.7 776.7,54.2 777.1,53.7 777.5,53.1 777.9,52.5 778.2,51.9 778.4,51.2 778.6,50.6 778.7,49.9 778.8,49.2" />
<path stroke="#000000" stroke-width="2" d="M 785.4,70" />
<path stroke="#000000" stroke-width="2" d="M 785.4,30 785.6,30 785.6,30.2 785.4,30.2 785.4,30" />
<path stroke="#000000" stroke-width="2" d="M 815.6,70" />
<path stroke="#000000" stroke-width="2" d="M 815.6,70 815.8,70 815.8,70.2 815.6,70.2 815.6,70" />
<path stroke="#000000" stroke-width="2" d="M 845.8,70" />
</svg>