<svg xmlns="http://www.w3.org/2000/svg" width="1407.4718430092776" height="98.67091005298957" style="fill:none; stroke-linecap:round;">
    <rect width="100%" height="100%" fill="#FFFFFF" />
<path stroke="#000000" stroke-width="2" d="M 550,75" />
<path stroke="#000000" stroke-width="2" d="M 20,30 40,30" />
<path stroke="#000000" stroke-width="2" d="M 40,30 41.4,30.1 42.7,30.6 43.8,31.2 44.8,32.1 45.6,33.1 46.3,34.3 46.8,35.6 47.2,37 47.4,38.5 47.5,40 47.4,41.5 47.2,43 46.8,44.4 46.3,45.7 45.6,46.9 44.8,47.9 43.8,48.8 42.7,49.4 41.4,49.9 40,50" />
<path stroke="#000000" stroke-width="2" d="M 77.5,70" />
<path stroke="#000000" stroke-width="2" d="M 97.5,70 99.2,70 101,69.8 102.7,69.5 104.4,69.1 106,68.5 107.6,67.8 109.1,66.9 110.5,65.9 111.9,64.8 113.1,63.5 114.2,62.2 115.2,60.8 116.1,59.3 116.8,57.7 117.4,56 117.9,54.3 118.2,52.6 118.4,50.9 118.4,49.1 118.2,47.4 117.9,45.7 117.4,44 116.8,42.4 116.1,40.8 115.2,39.3 114.2,37.8 113.1,36.5 111.9,35.3 110.5,34.2 109.1,33.2 107.6,32.3 106,31.5 104.4,30.9 102.7,30.5 101,30.2 99.2,30 97.5,30 95.8,30.2 94,30.5 92.4,30.9 90.7,31.5 89.1,32.3 87.6,33.2 86.2,34.2 84.9,35.3 83.6,36.5 82.5,37.8 81.5,39.3 80.6,40.8 79.9,42.4 79.3,44 78.8,45.7 78.5,47.4 78.4,49.1 78.4,50.9 78.5,52.6 78.8,54.3 79.3,56 79.9,57.7 80.6,59.3 81.5,60.8 82.5,62.2 83.6,63.5 84.9,64.8 86.2,65.9 87.6,66.9 89.1,67.8 90.7,68.5 92.4,69.1 94,69.5 95.8,69.8 97.5,70" />
<path stroke="#000000" stroke-width="2" d="M 125,70" />
<path stroke="#000000" stroke-width="2" d="M 135,20 127.4,38.5" />
<path stroke="#000000" stroke-width="2" d="M 165,70" />
<path stroke="#000000" stroke-width="2" d="M 165,30 165,70 176.3,58.7" />
<path stroke="#000000" stroke-width="2" d="M 183,70" />
<path stroke="#000000" stroke-width="2" d="M 183,20 203,20 183.2,39.8 203.2,39.8" />
<path stroke="#000000" stroke-width="2" d="M 233.2,70" />
<path stroke="#000000" stroke-width="2" d="M 233.2,30 233.2,50 243.2,50 235.5,68.5" />
<path stroke="#000000" stroke-width="2" d="M 273.2,70" />
<path stroke="#000000" stroke-width="2" d="M 273.2,70 273.4,70 273.4,70.2 273.2,70.2 273.2,70" />
<path stroke="#000000" stroke-width="2" d="M 303.4,70" />
<path stroke="#000000" stroke-width="2" d="M 303.4,30 303.4,70 323.4,70" />
<path stroke="#000000" stroke-width="2" d="M 353.4,70" />
<path stroke="#000000" stroke-width="2" d="M 353.4,30 353.4,70 364.7,58.7" />
<path stroke="#000000" stroke-width="2" d="M 371.4,70" />
<path stroke="#000000" stroke-width="2" d="M 371.4,70 371.4,69.3 371.4,68.6 371.6,67.9 371.7,67.2 372,66.6 372.3,66 372.6,65.4 373,64.8 373.5,64.2 374,63.8 374.5,63.3 375.1,62.9 375.7,62.6 376.3,62.3 377,62 377.6,61.8 378.3,61.7 379,61.7 379.7,61.7 380.4,61.7 381.1,61.8 381.8,62 382.4,62.3 383.1,62.6 383.7,62.9 384.2,63.3 384.8,63.8 385.3,64.2 385.7,64.8 386.1,65.4 386.5,66 386.8,66.6 387,67.2 387.2,67.9 387.3,68.6 387.4,69.3" />
<path stroke="#000000" stroke-width="2" d="M 417.4,70" />
<path stroke="#000000" stroke-width="2" d="M 417.4,30" />
<path stroke="#000000" stroke-width="2" d="M 417.4,30 417.5,30 417.9,30 418.6,30 419.4,30.1 420.5,30.2 421.7,30.3 423,30.4 424.4,30.6 425.9,30.9 427.4,31.2 428.9,31.7 430.3,32.2 431.7,32.7 433,33.4 434.2,34.2 435.3,35.1 436.2,36.1 436.8,37.3 437.2,38.6 437.4,40" />
<path stroke="#000000" stroke-width="2" d="M 437.4,40 439.3,42.1 440.6,44.1 441.4,45.7 441.7,47.2 441.6,48.4 441.1,49.4 440.4,50.2 439.5,50.8 438.5,51.1 437.4,51.2 436.3,51.1 435.2,50.8 434.3,50.2 433.6,49.5 433.1,48.4 433,47.2 433.4,45.7 434.1,44.1 435.4,42.1 437.4,40" />
<path stroke="#000000" stroke-width="2" d="M 437.4,40 437.4,39.9 437.4,39.7 437.4,39.4 437.5,39 437.7,38.4 437.9,37.8 438.2,37.2 438.6,36.5 439.2,35.7 439.9,35 440.7,34.3 441.7,33.5 442.9,32.8 444.2,32.2 445.8,31.6 447.6,31 449.6,30.6 451.9,30.3 454.5,30.1 457.4,30" />
<path stroke="#000000" stroke-width="2" d="M 457.4,30 457.3,32 457,33.6 456.5,34.9 455.9,35.8 455.3,36.3 454.5,36.6 453.8,36.7 453,36.5 452.4,36.1 451.7,35.6 451.2,35 450.9,34.3 450.7,33.6 450.8,32.8 451,32.1 451.6,31.4 452.5,30.9 453.7,30.4 455.3,30.1 457.4,30 467.4,30" />
<path stroke="#000000" stroke-width="2" d="M 497.4,70" />
<path stroke="#000000" stroke-width="2" d="M 497.4,30 537.4,30" />
<path stroke="#000000" stroke-width="2" d="M 567.4,70" />
<path stroke="#000000" stroke-width="2" d="M 567.4,70 567.6,70 567.6,70.2 567.4,70.2 567.4,70" />
<path stroke="#000000" stroke-width="2" d="M 574.2,70" />
<path stroke="#000000" stroke-width="2" d="M 574.2,70 574.2,68.6 574.4,67.2 574.6,65.8 575,64.5 575.4,63.2 576,61.9 576.7,60.7 577.5,59.6 578.4,58.5 579.4,57.5 580.5,56.6 581.6,55.8 582.8,55.1 584.1,54.5 585.4,54 586.8,53.7 588.1,53.4 589.5,53.3 590.9,53.3 592.3,53.4 593.7,53.7 595,54 596.3,54.5 597.6,55.1 598.8,55.8 600,56.6 601,57.5 602,58.5 602.9,59.6 603.7,60.7 604.4,61.9 605,63.2 605.5,64.5 605.8,65.8 606.1,67.2 606.2,68.6" />
<path stroke="#000000" stroke-width="2" d="M 612.9,70" />
<path stroke="#000000" stroke-width="2" d="M 622.9,50 615.2,68.5" />
<path stroke="#000000" stroke-width="2" d="M 652.9,70" />
<path stroke="#000000" stroke-width="2" d="M 652.9,30 652.9,38 652.9,39 653,40.1 653.1,41.1 653.4,42.1 653.8,43.1 654.2,44.1 654.7,45 655.3,45.8 656,46.6 656.8,47.4 657.6,48 658.4,48.6 659.3,49.2 660.3,49.6 661.2,50 662.3,50.2 663.3,50.4 664.3,50.5 665.4,50.5 666.4,50.4 667.5,50.2 668.5,50 669.5,49.6 670.4,49.2 671.3,48.6 672.2,48 673,47.4 673.7,46.6 674.4,45.8 675,45 675.5,44.1 675.9,43.1 676.3,42.1 676.6,41.1 676.8,40.1 676.8,39 676.8,29 676.8,69" />
<path stroke="#000000" stroke-width="2" d="M 683.5,70" />
<path stroke="#000000" stroke-width="2" d="M 683.5,25" />
<path stroke="#000000" stroke-width="2" d="M 683.5,25 685.5,24.9 687.2,24.6 688.4,24.1 689.3,23.6 689.8,22.9 690.1,22.2 690.2,21.4 690,20.7 689.6,20 689.1,19.4 688.5,18.9 687.8,18.5 687.1,18.3 686.3,18.4 685.6,18.7 685,19.2 684.4,20.1 683.9,21.4 683.6,23 683.5,25 683.5,40" />
<path stroke="#000000" stroke-width="2" d="M 683.5,40 683.4,42 683.1,43.6 682.7,44.9 682.1,45.8 681.4,46.3 680.7,46.6 679.9,46.7 679.2,46.5 678.5,46.1 677.9,45.6 677.4,45 677,44.3 676.9,43.6 676.9,42.8 677.2,42.1 677.8,41.4 678.6,40.9 679.9,40.4 681.5,40.1 683.5,40 693.5,40" />
<path stroke="#000000" stroke-width="2" d="M 693.5,40 691.5,39.9 689.9,39.6 688.6,39.1 687.8,38.6 687.2,37.9 686.9,37.2 686.9,36.4 687,35.7 687.4,35 687.9,34.4 688.5,33.9 689.2,33.5 689.9,33.3 690.7,33.4 691.4,33.7 692.1,34.2 692.7,35.1 693.1,36.4 693.4,38 693.5,40 693.5,44" />
<path stroke="#000000" stroke-width="2" d="M 693.5,44 693.2,44.9 692.9,45.7 692.5,46.4 692.1,47.1 691.7,47.8 691.2,48.4 690.8,48.9 690.3,49.4 689.8,49.9 689.3,50.2 688.7,50.6 688.2,50.9 687.6,51.2 687.1,51.4 686.5,51.6 685.9,51.7 685.3,51.9 684.7,51.9 684.1,52 683.5,52" />
<path stroke="#000000" stroke-width="2" d="M 723.5,70" />
<path stroke="#000000" stroke-width="2" d="M 723.5,30 733.5,30 733.5,70" />
<path stroke="#000000" stroke-width="2" d="M 740.2,70" />
<path stroke="#000000" stroke-width="2" d="M 740.2,50 740.2,70 740.2,64 740.2,63.1 740.3,62.3 740.4,61.4 740.6,60.6 740.9,59.7 741.3,58.9 741.7,58.2 742.2,57.5 742.8,56.8 743.4,56.2 744.1,55.6 744.8,55.1 745.6,54.7 746.3,54.3 747.2,54 748,53.8 748.9,53.6 749.7,53.6" />
<path stroke="#000000" stroke-width="2" d="M 779.7,70" />
<path stroke="#000000" stroke-width="2" d="M 779.7,70 795,33 795,73 795,61 795,59.3 795.2,57.6 795.5,55.8 795.9,54.2 796.5,52.5 797.3,50.9 798.2,49.4 799.2,48 800.3,46.7 801.5,45.4 802.8,44.3 804.3,43.3 805.8,42.4 807.4,41.7 809,41.1" />
<path stroke="#000000" stroke-width="2" d="M 839,70" />
<path stroke="#000000" stroke-width="2" d="M 839,70 839.2,70 839.2,70.2 839,70.2 839,70" />
<path stroke="#000000" stroke-width="2" d="M 869.2,70" />
<path stroke="#000000" stroke-width="2" d="M 869.2,30 869.2,70 889.2,70" />
<path stroke="#000000" stroke-width="2" d="M 919.2,70" />
<path stroke="#000000" stroke-width="2" d="M 919.2,30 934.5,67" />
<path stroke="#000000" stroke-width="2" d="M 941.2,70" />
<path stroke="#000000" stroke-width="2" d="M 941.2,20" />
<path stroke="#000000" stroke-width="2" d="M 941.2,20 942.6,20.1 943.9,20.6 945,21.2 946,22.1 946.8,23.1 947.5,24.3 948,25.6 948.4,27 948.6,28.5 948.7,30 948.6,31.5 948.4,33 948,34.4 947.5,35.7 946.8,36.9 946,37.9 945,38.8 943.9,39.4 942.6,39.9 941.2,40" />
<path stroke="#000000" stroke-width="2" d="M 955.3,70" />
<path stroke="#000000" stroke-width="2" d="M 955.3,40 969.5,25.9 961.8,44.3 961.8,45 961.9,45.7 962,46.4 962.2,47.1 962.4,47.7 962.7,48.4 963.1,49 963.5,49.6 963.9,50.1 964.4,50.6 965,51 965.5,51.4 966.1,51.8 966.8,52.1 967.4,52.3 968.1,52.5 968.8,52.6 969.5,52.7 970.2,52.7 970.9,52.6 971.6,52.5 972.2,52.3 972.9,52.1 973.5,51.8 974.1,51.4 974.7,51 975.2,50.6 975.7,50.1 976.2,49.6 976.6,49 976.9,48.4 977.2,47.7 977.5,47.1 977.6,46.4 977.8,45.7 977.8,45" />
<path stroke="#000000" stroke-width="2" d="M 984.5,70" />
<path stroke="#000000" stroke-width="2" d="M 984.5,30 984.7,30 984.7,30.2 984.5,30.2 984.5,30" />
<path stroke="#000000" stroke-width="2" d="M 1014.7,70" />
<path stroke="#000000" stroke-width="2" d="M 1014.7,30 1014.7,31.4 1014.8,32.8 1015.1,34.2 1015.4,35.5 1015.9,36.8 1016.5,38.1 1017.2,39.3 1018,40.4 1018.9,41.5 1019.9,42.5 1020.9,43.4 1022.1,44.2 1023.3,44.9 1024.6,45.5 1025.9,46 1027.2,46.3 1028.6,46.6 1030,46.7 1031.4,46.7 1032.8,46.6 1034.1,46.3 1035.5,46 1036.8,45.5 1038.1,44.9 1039.3,44.2 1040.4,43.4 1041.5,42.5 1042.5,41.5 1043.4,40.4 1044.2,39.3 1044.9,38.1 1045.5,36.8 1045.9,35.5 1046.3,34.2 1046.5,32.8 1046.7,31.4" />
<path stroke="#000000" stroke-width="2" d="M 1053.3,70" />
<path stroke="#000000" stroke-width="2" d="M 1053.3,70 1053.3,69.3 1053.4,68.6 1053.5,67.9 1053.7,67.2 1053.9,66.6 1054.2,66 1054.6,65.4 1055,64.8 1055.4,64.2 1055.9,63.8 1056.4,63.3 1057,62.9 1057.6,62.6 1058.3,62.3 1058.9,62 1059.6,61.8 1060.3,61.7 1061,61.7 1061.7,61.7 1062.4,61.7 1063,61.8 1063.7,62 1064.4,62.3 1065,62.6 1065.6,62.9 1066.2,63.3 1066.7,63.8 1067.2,64.2 1067.7,64.8 1068.1,65.4 1068.4,66 1068.7,66.6 1068.9,67.2 1069.1,67.9 1069.2,68.6 1069.3,69.3" />
<path stroke="#000000" stroke-width="2" d="M 1099.3,70" />
<path stroke="#000000" stroke-width="2" d="M 1119.3,30 1117.6,30 1115.8,30.2 1114.1,30.5 1112.4,30.9 1110.8,31.5 1109.2,32.2 1107.7,33.1 1106.3,34.1 1104.9,35.2 1103.7,36.5 1102.6,37.8 1101.6,39.2 1100.7,40.7 1100,42.3 1099.4,44 1098.9,45.7 1098.6,47.4 1098.5,49.1 1098.5,50.9 1098.6,52.6 1098.9,54.3 1099.4,56 1100,57.6 1100.7,59.2 1101.6,60.7 1102.6,62.2 1103.7,63.5 1104.9,64.7 1106.3,65.8 1107.7,66.8 1109.2,67.7 1110.8,68.5 1112.4,69.1 1114.1,69.5 1115.8,69.8 1117.6,70" />
<path stroke="#000000" stroke-width="2" d="M 1117.6,50" />
<path stroke="#000000" stroke-width="2" d="M 1085.6,50 1125.6,50" />
<path stroke="#000000" stroke-width="2" d="M 1155.6,70" />
<path stroke="#000000" stroke-width="2" d="M 1155.6,70 1183.8,41.7 1168.5,78.7" />
<path stroke="#000000" stroke-width="2" d="M 1213.8,70" />
<path stroke="#000000" stroke-width="2" d="M 1213.8,70 1214,70 1214,70.2 1213.8,70.2 1213.8,70" />
<path stroke="#000000" stroke-width="2" d="M 1220.7,70" />
<path stroke="#000000" stroke-width="2" d="M 1220.7,50 1220.7,49.3 1220.8,48.6 1220.9,47.9 1221.1,47.2 1221.3,46.6 1221.6,46 1222,45.4 1222.4,44.8 1222.8,44.2 1223.3,43.8 1223.8,43.3 1224.4,42.9 1225,42.6 1225.6,42.3 1226.3,42 1227,41.8 1227.7,41.7 1228.4,41.7 1229.1,41.7 1229.8,41.7 1230.4,41.8 1231.1,42 1231.8,42.3 1232.4,42.6 1233,42.9 1233.6,43.3 1234.1,43.8 1234.6,44.2 1235.1,44.8 1235.5,45.4 1235.8,46 1236.1,46.6 1236.3,47.2 1236.5,47.9 1236.6,48.6 1236.7,49.3 1236.7,50 1236.8,50.7 1236.9,51.4 1237.1,52.1 1237.3,52.7 1237.6,53.3 1237.9,53.9 1238.3,54.5 1238.8,55.1 1239.3,55.5 1239.8,56 1240.4,56.4 1241,56.7 1241.6,57 1242.3,57.3 1243,57.5 1243.6,57.6 1244.3,57.6 1245,57.6 1245.7,57.6 1246.4,57.5 1247.1,57.3 1247.8,57 1248.4,56.7 1249,56.4 1249.6,56 1250.1,55.5 1250.6,55.1 1251,54.5 1251.4,53.9 1251.8,53.3 1252.1,52.7 1252.3,52.1 1252.5,51.4 1252.6,50.7 1252.7,50" />
<path stroke="#000000" stroke-width="2" d="M 1259.4,70" />
<path stroke="#000000" stroke-width="2" d="M 1259.4,70 1259.4,69.3 1259.4,68.6 1259.5,67.9 1259.7,67.2 1260,66.6 1260.2,66 1260.6,65.4 1261,64.8 1261.4,64.2 1261.9,63.8 1262.5,63.3 1263,62.9 1263.7,62.6 1264.3,62.3 1264.9,62 1265.6,61.8 1266.3,61.7 1267,61.7 1267.7,61.7 1268.4,61.7 1269.1,61.8 1269.8,62 1270.4,62.3 1271,62.6 1271.6,62.9 1272.2,63.3 1272.7,63.8 1273.2,64.2 1273.7,64.8 1274.1,65.4 1274.4,66 1274.7,66.6 1275,67.2 1275.2,67.9 1275.3,68.6 1275.3,69.3" />
<path stroke="#000000" stroke-width="2" d="M 1305.3,70" />
<path stroke="#000000" stroke-width="2" d="M 1305.3,30 1325.3,30" />
<path stroke="#000000" stroke-width="2" d="M 1325.3,30 1326.8,30.1 1328,30.6 1329.2,31.2 1330.1,32.1 1331,33.1 1331.6,34.3 1332.2,35.6 1332.5,37 1332.8,38.5 1332.8,40 1332.8,41.5 1332.5,43 1332.2,44.4 1331.6,45.7 1331,46.9 1330.1,47.9 1329.2,48.8 1328,49.4 1326.8,49.9 1325.3,50" />
<path stroke="#000000" stroke-width="2" d="M 1362.8,70" />
<path stroke="#000000" stroke-width="2" d="M 1362.8,30 1362.8,70 1374.2,58.7" />
<path stroke="#000000" stroke-width="2" d="M 1380.8,70" />
<path stroke="#000000" stroke-width="2" d="M 1380.8,25" />
<path stroke="#000000" stroke-width="2" d="M 1380.8,25 1382.8,24.9 1384.5,24.6 1385.7,24.1 1386.6,23.6 1387.1,22.9 1387.4,22.2 1387.5,21.4 1387.3,20.7 1386.9,20 1386.4,19.4 1385.8,18.9 1385.1,18.5 1384.4,18.3 1383.7,18.4 1382.9,18.7 1382.3,19.2 1381.7,20.1 1381.2,21.4 1380.9,23 1380.8,25 1380.8,40" />
<path stroke="#000000" stroke-width="2" d="M 1417.5,70" />
</svg>