<svg xmlns="http://www.w3.org/2000/svg" width="1523.7466590294052" height="122.0" style="fill:none; stroke-linecap:round;">
    <rect width="100%" height="100%" fill="#FFFFFF" />
<path stroke="#000000" stroke-width="2" d="M 550,75" />
<path stroke="#000000" stroke-width="2" d="M 36,30 16.2,49.8 36,69.6" />
<path stroke="#000000" stroke-width="2" d="M 42.7,70" />
<path stroke="#000000" stroke-width="2" d="M 42.7,50 50.3,68.5" />
<path stroke="#000000" stroke-width="2" d="M 57,70" />
<path stroke="#000000" stroke-width="2" d="M 57,20 77,20" />
<path stroke="#000000" stroke-width="2" d="M 107,70" />
<path stroke="#000000" stroke-width="2" d="M 107,62 107.8,62 107.8,62.8 107,62.8 107,62" />
<path stroke="#000000" stroke-width="2" d="M 107,78" />
<path stroke="#000000" stroke-width="2" d="M 107,78 109.2,78.1 111.2,78.3 112.9,78.8 114.3,79.3 115.4,80.1 116.3,80.9 117,81.9 117.4,83 117.5,84.2 117.5,85.5 117.2,86.9 116.8,88.4 116.1,89.9 115.3,91.5 114.3,93.2 113.1,94.9 111.8,96.6 110.3,98.4 108.7,100.2 107,102" />
<path stroke="#000000" stroke-width="2" d="M 147.5,70" />
<path stroke="#000000" stroke-width="2" d="M 147.5,40 147.7,40 147.7,40.2 147.5,40.2 147.5,40" />
<path stroke="#000000" stroke-width="2" d="M 154.4,70" />
<path stroke="#000000" stroke-width="2" d="M 154.4,30 154.4,70 154.4,58 154.4,56.3 154.5,54.5 154.9,52.8 155.3,51.1 155.9,49.5 156.6,47.9 157.5,46.4 158.5,45 159.6,43.6 160.9,42.4 162.2,41.3 163.6,40.3 165.1,39.4 166.7,38.7 168.4,38.1 170,37.6 171.8,37.3 173.5,37.1" />
<path stroke="#000000" stroke-width="2" d="M 180.2,70" />
<path stroke="#000000" stroke-width="2" d="M 180.2,20 180.2,20.7 180.2,21.4 180.4,22.1 180.5,22.8 180.8,23.4 181.1,24 181.4,24.6 181.8,25.2 182.3,25.8 182.8,26.2 183.3,26.7 183.9,27.1 184.5,27.4 185.1,27.7 185.8,28 186.4,28.2 187.1,28.3 187.8,28.3 188.5,28.3 189.2,28.3 189.9,28.2 190.6,28 191.2,27.7 191.9,27.4 192.5,27.1 193,26.7 193.6,26.2 194.1,25.8 194.5,25.2 194.9,24.6 195.3,24 195.6,23.4 195.8,22.8 196,22.1 196.1,21.4 196.2,20.7" />
<path stroke="#000000" stroke-width="2" d="M 202.8,70" />
<path stroke="#000000" stroke-width="2" d="M 212.8,20 205.2,38.5" />
<path stroke="#000000" stroke-width="2" d="M 219.5,70" />
<path stroke="#000000" stroke-width="2" d="M 219.5,30 227.1,48.5 234.8,30 234.8,30.7 234.9,31.4 235,32.1 235.2,32.8 235.4,33.4 235.7,34 236,34.6 236.4,35.2 236.9,35.8 237.4,36.2 237.9,36.7 238.5,37.1 239.1,37.4 239.7,37.7 240.4,38 241.1,38.2 241.7,38.3 242.4,38.3 243.1,38.3 243.8,38.3 244.5,38.2 245.2,38 245.9,37.7 246.5,37.4 247.1,37.1 247.7,36.7 248.2,36.2 248.7,35.8 249.1,35.2 249.5,34.6 249.9,34 250.2,33.4 250.4,32.8 250.6,32.1 250.7,31.4 250.8,30.7" />
<path stroke="#000000" stroke-width="2" d="M 257.4,70" />
<path stroke="#000000" stroke-width="2" d="M 257.4,30 257.6,30 257.6,30.2 257.4,30.2 257.4,30" />
<path stroke="#000000" stroke-width="2" d="M 287.6,70" />
<path stroke="#000000" stroke-width="2" d="M 291.6,30 308.6,47" />
<path stroke="#000000" stroke-width="2" d="M 325.6,30 286,69.6" />
<path stroke="#000000" stroke-width="2" d="M 332.3,70" />
<path stroke="#000000" stroke-width="2" d="M 344.3,56" />
<path stroke="#000000" stroke-width="2" d="M 344.3,56 342.2,55.9 340.6,55.6 339.4,55.1 338.5,54.6 337.9,53.9 337.6,53.2 337.6,52.4 337.8,51.7 338.1,51 338.6,50.4 339.2,49.9 339.9,49.5 340.7,49.3 341.4,49.4 342.1,49.7 342.8,50.2 343.4,51.1 343.9,52.4 344.2,54 344.3,56 344.3,60" />
<path stroke="#000000" stroke-width="2" d="M 344.3,60 343.9,60.9 343.6,61.7 343.2,62.4 342.8,63.1 342.4,63.8 342,64.4 341.5,64.9 341,65.4 340.5,65.9 340,66.2 339.5,66.6 338.9,66.9 338.4,67.2 337.8,67.4 337.2,67.6 336.6,67.7 336.1,67.9 335.5,67.9 334.9,68 334.3,68" />
<path stroke="#000000" stroke-width="2" d="M 374.3,70" />
<path stroke="#000000" stroke-width="2" d="M 374.3,30 389.6,67" />
<path stroke="#000000" stroke-width="2" d="M 396.2,70" />
<path stroke="#000000" stroke-width="2" d="M 396.2,20 416.2,20" />
<path stroke="#000000" stroke-width="2" d="M 446.2,70" />
<path stroke="#000000" stroke-width="2" d="M 446.2,30 446.2,70 457.5,58.7" />
<path stroke="#000000" stroke-width="2" d="M 464.2,70" />
<path stroke="#000000" stroke-width="2" d="M 484.2,70 486,70 487.7,69.8 489.4,69.5 491.1,69.1 492.7,68.5 494.3,67.8 495.8,66.9 497.3,65.9 498.6,64.8 499.8,63.5 501,62.2 502,60.8 502.8,59.3 503.6,57.7 504.2,56 504.6,54.3 504.9,52.6 505.1,50.9 505.1,49.1 504.9,47.4 504.6,45.7 504.2,44 503.6,42.4 502.8,40.8 502,39.3 501,37.8 499.8,36.5 498.6,35.3 497.3,34.2 495.8,33.2 494.3,32.3 492.7,31.5 491.1,30.9 489.4,30.5 487.7,30.2 486,30 484.2,30 482.5,30.2 480.8,30.5 479.1,30.9 477.4,31.5 475.8,32.3 474.3,33.2 472.9,34.2 471.6,35.3 470.3,36.5 469.2,37.8 468.2,39.3 467.3,40.8 466.6,42.4 466,44 465.6,45.7 465.3,47.4 465.1,49.1 465.1,50.9 465.3,52.6 465.6,54.3 466,56 466.6,57.7 467.3,59.3 468.2,60.8 469.2,62.2 470.3,63.5 471.6,64.8 472.9,65.9 474.3,66.9 475.8,67.8 477.4,68.5 479.1,69.1 480.8,69.5 482.5,69.8 484.2,70" />
<path stroke="#000000" stroke-width="2" d="M 535.1,70" />
<path stroke="#000000" stroke-width="2" d="M 535.1,70 535.3,70 535.3,70.2 535.1,70.2 535.1,70" />
<path stroke="#000000" stroke-width="2" d="M 541.9,70" />
<path stroke="#000000" stroke-width="2" d="M 541.9,30" />
<path stroke="#000000" stroke-width="2" d="M 541.9,30 542.1,30 542.5,30 543.1,30 544,30.1 545.1,30.2 546.3,30.3 547.6,30.4 549,30.6 550.4,30.9 551.9,31.2 553.4,31.7 554.9,32.2 556.3,32.7 557.6,33.4 558.8,34.2 559.9,35.1 560.7,36.1 561.4,37.3 561.8,38.6 561.9,40" />
<path stroke="#000000" stroke-width="2" d="M 561.9,40 563.9,42.1 565.2,44.1 565.9,45.7 566.3,47.2 566.2,48.4 565.7,49.4 565,50.2 564.1,50.8 563,51.1 561.9,51.2 560.8,51.1 559.8,50.8 558.9,50.2 558.2,49.5 557.7,48.4 557.6,47.2 557.9,45.7 558.7,44.1 560,42.1 561.9,40" />
<path stroke="#000000" stroke-width="2" d="M 561.9,40 561.9,39.9 562,39.7 562,39.4 562.1,39 562.2,38.4 562.5,37.8 562.8,37.2 563.2,36.5 563.8,35.7 564.4,35 565.3,34.3 566.3,33.5 567.4,32.8 568.8,32.2 570.4,31.6 572.2,31 574.2,30.6 576.5,30.3 579.1,30.1 581.9,30 601.9,30 601.9,30.7 602,31.4 602.1,32.1 602.3,32.8 602.5,33.4 602.8,34 603.2,34.6 603.6,35.2 604,35.8 604.5,36.2 605.1,36.7 605.6,37.1 606.2,37.4 606.9,37.7 607.5,38 608.2,38.2 608.9,38.3 609.6,38.3 610.3,38.3 611,38.3 611.7,38.2 612.3,38 613,37.7 613.6,37.4 614.2,37.1 614.8,36.7 615.3,36.2 615.8,35.8 616.3,35.2 616.7,34.6 617,34 617.3,33.4 617.6,32.8 617.7,32.1 617.9,31.4 617.9,30.7" />
<path stroke="#000000" stroke-width="2" d="M 624.6,70" />
<path stroke="#000000" stroke-width="2" d="M 624.6,50 624.6,49.3 624.6,48.6 624.8,47.9 624.9,47.2 625.2,46.6 625.5,46 625.8,45.4 626.2,44.8 626.7,44.2 627.2,43.8 627.7,43.3 628.3,42.9 628.9,42.6 629.5,42.3 630.2,42 630.8,41.8 631.5,41.7 632.2,41.7 632.9,41.7 633.6,41.7 634.3,41.8 635,42 635.6,42.3 636.3,42.6 636.9,42.9 637.4,43.3 638,43.8 638.5,44.2 638.9,44.8 639.3,45.4 639.7,46 640,46.6 640.2,47.2 640.4,47.9 640.5,48.6 640.6,49.3 640.6,50 640.6,50.7 640.7,51.4 640.9,52.1 641.2,52.7 641.5,53.3 641.8,53.9 642.2,54.5 642.7,55.1 643.2,55.5 643.7,56 644.3,56.4 644.9,56.7 645.5,57 646.2,57.3 646.8,57.5 647.5,57.6 648.2,57.6 648.9,57.6 649.6,57.6 650.3,57.5 651,57.3 651.6,57 652.3,56.7 652.9,56.4 653.4,56 654,55.5 654.5,55.1 654.9,54.5 655.3,53.9 655.7,53.3 656,52.7 656.2,52.1 656.4,51.4 656.5,50.7 656.6,50" />
<path stroke="#000000" stroke-width="2" d="M 663.2,70" />
<path stroke="#000000" stroke-width="2" d="M 663.2,30 663.4,30 663.4,30.2 663.2,30.2 663.2,30" />
<path stroke="#000000" stroke-width="2" d="M 693.4,70" />
<path stroke="#000000" stroke-width="2" d="M 693.4,30 733.4,30" />
<path stroke="#000000" stroke-width="2" d="M 740.1,70" />
<path stroke="#000000" stroke-width="2" d="M 740.1,20 747.7,38.5" />
<path stroke="#000000" stroke-width="2" d="M 777.7,70" />
<path stroke="#000000" stroke-width="2" d="M 787.7,30 786.9,30 786,30.1 785.1,30.2 784.3,30.5 783.5,30.8 782.7,31.1 781.9,31.6 781.2,32.1 780.5,32.6 779.9,33.2 779.4,33.9 778.9,34.6 778.4,35.4 778.1,36.2 777.8,37 777.5,37.8 777.4,38.7 777.3,39.6 777.3,40.4 777.4,41.3 777.5,42.2 777.8,43 778.1,43.8 778.4,44.6 778.9,45.4 779.4,46.1 779.9,46.7 780.5,47.4 781.2,47.9 781.9,48.4 782.7,48.9 783.5,49.2 784.3,49.5 785.1,49.8 786,49.9 786.9,50 791.9,50 791.9,70" />
<path stroke="#000000" stroke-width="2" d="M 821.9,70" />
<path stroke="#000000" stroke-width="2" d="M 821.9,30 821.9,31.4 822,32.8 822.2,34.2 822.6,35.5 823.1,36.8 823.7,38.1 824.4,39.3 825.2,40.4 826.1,41.5 827,42.5 828.1,43.4 829.3,44.2 830.5,44.9 831.7,45.5 833,46 834.4,46.3 835.8,46.6 837.2,46.7 838.5,46.7 839.9,46.6 841.3,46.3 842.7,46 844,45.5 845.2,44.9 846.4,44.2 847.6,43.4 848.7,42.5 849.6,41.5 850.5,40.4 851.3,39.3 852,38.1 852.6,36.8 853.1,35.5 853.5,34.2 853.7,32.8 853.8,31.4" />
<path stroke="#000000" stroke-width="2" d="M 860.5,70" />
<path stroke="#000000" stroke-width="2" d="M 860.5,20 860.5,40 860.5,34 860.5,33.1 860.6,32.3 860.7,31.4 861,30.6 861.3,29.7 861.6,28.9 862.1,28.2 862.6,27.5 863.1,26.8 863.7,26.2 864.4,25.6 865.1,25.1 865.9,24.7 866.7,24.3 867.5,24 868.3,23.8 869.2,23.6 870.1,23.6" />
<path stroke="#000000" stroke-width="2" d="M 876.7,70" />
<path stroke="#000000" stroke-width="2" d="M 876.7,50 876.9,50 876.9,50.2 876.7,50.2 876.7,50" />
<path stroke="#000000" stroke-width="2" d="M 906.9,70" />
<path stroke="#000000" stroke-width="2" d="M 906.9,70" />
<path stroke="#000000" stroke-width="2" d="M 906.9,70 908,70 909,70.2 909.9,70.4 910.6,70.7 911.1,71 911.6,71.5 911.9,71.9 912.1,72.5 912.2,73.1 912.2,73.8 912,74.4 911.8,75.2 911.5,76 911.1,76.8 910.6,77.6 910,78.4 909.3,79.3 908.6,80.2 907.8,81.1 906.9,82" />
<path stroke="#000000" stroke-width="2" d="M 942.2,70" />
<path stroke="#000000" stroke-width="2" d="M 958.2,30 958.2,60" />
<path stroke="#000000" stroke-width="2" d="M 958.2,60 958,64.1 957.4,67.3 956.5,69.8 955.3,71.5 954,72.7 952.5,73.2 951,73.3 949.6,73 948.2,72.3 946.9,71.2 945.9,70 945.2,68.6 944.9,67.2 945,65.7 945.5,64.2 946.7,62.9 948.4,61.7 950.9,60.8 954.1,60.2 958.2,60" />
<path stroke="#000000" stroke-width="2" d="M 964.9,70" />
<path stroke="#000000" stroke-width="2" d="M 964.9,50 964.9,70 964.9,64 964.9,63.1 964.9,62.3 965.1,61.4 965.3,60.6 965.6,59.7 966,58.9 966.4,58.2 966.9,57.5 967.5,56.8 968.1,56.2 968.8,55.6 969.5,55.1 970.2,54.7 971,54.3 971.8,54 972.7,53.8 973.5,53.6 974.4,53.6 966.8,72.1" />
<path stroke="#000000" stroke-width="2" d="M 1004.4,70" />
<path stroke="#000000" stroke-width="2" d="M 1004.4,30 1014.4,30 1014.4,70" />
<path stroke="#000000" stroke-width="2" d="M 1021.1,70" />
<path stroke="#000000" stroke-width="2" d="M 1021.1,50 1021.1,70 1021.1,64 1021.1,63.1 1021.2,62.3 1021.3,61.4 1021.5,60.6 1021.8,59.7 1022.2,58.9 1022.6,58.2 1023.1,57.5 1023.7,56.8 1024.3,56.2 1025,55.6 1025.7,55.1 1026.5,54.7 1027.2,54.3 1028.1,54 1028.9,53.8 1029.8,53.6 1030.6,53.6" />
<path stroke="#000000" stroke-width="2" d="M 1060.6,70" />
<path stroke="#000000" stroke-width="2" d="M 1060.6,30 1060.6,70" />
<path stroke="#000000" stroke-width="2" d="M 1067.3,70" />
<path stroke="#000000" stroke-width="2" d="M 1071.3,70 1082,44.1 1082.3,43.5 1082.5,42.8 1082.6,42.1 1082.7,41.4 1082.8,40.8 1082.7,40.1 1082.6,39.4 1082.5,38.7 1082.3,38 1082,37.4 1081.7,36.8 1081.3,36.2 1080.9,35.6 1080.4,35.1 1079.9,34.6 1079.4,34.2 1078.8,33.8 1078.2,33.5 1077.5,33.2 1076.8,33 1076.2,32.9 1075.5,32.8 1074.8,32.8 1074.1,32.8 1073.4,32.9 1072.7,33 1072,33.2 1071.4,33.5 1070.8,33.8 1070.2,34.2 1069.6,34.6 1069.1,35.1 1068.6,35.6 1068.2,36.2 1067.8,36.8 1067.5,37.4 1067.3,38 1067,38.7 1066.9,39.4 1066.8,40.1 1066.8,40.8 1066.8,41.4 1066.9,42.1 1067,42.8 1067.3,43.5 1067.5,44.1 1067.8,44.8 1068.2,45.3 1068.6,45.9 1069.1,46.4 1069.6,46.9 1070.2,47.3 1070.8,47.7 1071.4,48 1072,48.3 1072.7,48.5 1073.4,48.6 1074.1,48.7 1074.8,48.8 1075.5,48.7 1101.3,38" />
<path stroke="#000000" stroke-width="2" d="M 1131.3,70" />
<path stroke="#000000" stroke-width="2" d="M 1131.3,30 1131.3,31.4 1131.5,32.8 1131.7,34.2 1132.1,35.5 1132.5,36.8 1133.1,38.1 1133.8,39.3 1134.6,40.4 1135.5,41.5 1136.5,42.5 1137.6,43.4 1138.7,44.2 1139.9,44.9 1141.2,45.5 1142.5,46 1143.9,46.3 1145.2,46.6 1146.6,46.7 1148,46.7 1149.4,46.6 1150.8,46.3 1152.1,46 1153.4,45.5 1154.7,44.9 1155.9,44.2 1157.1,43.4 1158.1,42.5 1159.1,41.5 1160,40.4 1160.8,39.3 1161.5,38.1 1162.1,36.8 1162.6,35.5 1162.9,34.2 1163.2,32.8 1163.3,31.4" />
<path stroke="#000000" stroke-width="2" d="M 1170,70" />
<path stroke="#000000" stroke-width="2" d="M 1170,30 1170,31.4 1170.1,32.8 1170.3,34.2 1170.7,35.5 1171.2,36.8 1171.8,38.1 1172.5,39.3 1173.3,40.4 1174.2,41.5 1175.1,42.5 1176.2,43.4 1177.4,44.2 1178.6,44.9 1179.8,45.5 1181.1,46 1182.5,46.3 1183.9,46.6 1185.3,46.7 1186.7,46.7 1188,46.6 1189.4,46.3 1190.8,46 1192.1,45.5 1193.3,44.9 1194.6,44.2 1195.7,43.4 1196.8,42.5 1197.8,41.5 1198.6,40.4 1199.5,39.3 1200.1,38.1 1200.7,36.8 1201.2,35.5 1201.6,34.2 1201.8,32.8 1201.9,31.4" />
<path stroke="#000000" stroke-width="2" d="M 1208.6,70" />
<path stroke="#000000" stroke-width="2" d="M 1212.6,70 1223.3,44.1 1223.6,43.5 1223.8,42.8 1224,42.1 1224,41.4 1224.1,40.8 1224,40.1 1224,39.4 1223.8,38.7 1223.6,38 1223.3,37.4 1223,36.8 1222.6,36.2 1222.2,35.6 1221.7,35.1 1221.2,34.6 1220.7,34.2 1220.1,33.8 1219.5,33.5 1218.8,33.2 1218.1,33 1217.5,32.9 1216.8,32.8 1216.1,32.8 1215.4,32.8 1214.7,32.9 1214,33 1213.3,33.2 1212.7,33.5 1212.1,33.8 1211.5,34.2 1210.9,34.6 1210.4,35.1 1209.9,35.6 1209.5,36.2 1209.1,36.8 1208.8,37.4 1208.6,38 1208.3,38.7 1208.2,39.4 1208.1,40.1 1208.1,40.8 1208.1,41.4 1208.2,42.1 1208.3,42.8 1208.6,43.5 1208.8,44.1 1209.1,44.8 1209.5,45.3 1209.9,45.9 1210.4,46.4 1210.9,46.9 1211.5,47.3 1212.1,47.7 1212.7,48 1213.3,48.3 1214,48.5 1214.7,48.6 1215.4,48.7 1216.1,48.8 1216.8,48.7 1242.6,38" />
<path stroke="#000000" stroke-width="2" d="M 1272.6,70" />
<path stroke="#000000" stroke-width="2" d="M 1272.6,30 1272.6,70 1272.6,58 1272.6,56.3 1272.8,54.5 1273.1,52.8 1273.5,51.1 1274.1,49.5 1274.9,47.9 1275.8,46.4 1276.8,45 1277.9,43.6 1279.1,42.4 1280.4,41.3 1281.9,40.3 1283.4,39.4 1285,38.7 1286.6,38.1 1288.3,37.6 1290,37.3 1291.7,37.1" />
<path stroke="#000000" stroke-width="2" d="M 1298.4,70" />
<path stroke="#000000" stroke-width="2" d="M 1318.4,30 1316.7,30 1314.9,30.2 1313.2,30.5 1311.5,30.9 1309.9,31.5 1308.3,32.2 1306.8,33.1 1305.4,34.1 1304,35.2 1302.8,36.5 1301.7,37.8 1300.7,39.2 1299.8,40.7 1299.1,42.3 1298.5,44 1298,45.7 1297.7,47.4 1297.6,49.1 1297.6,50.9 1297.7,52.6 1298,54.3 1298.5,56 1299.1,57.6 1299.8,59.2 1300.7,60.7 1301.7,62.2 1302.8,63.5 1304,64.7 1305.4,65.8 1306.8,66.8 1308.3,67.7 1309.9,68.5 1311.5,69.1 1313.2,69.5 1314.9,69.8 1316.7,70" />
<path stroke="#000000" stroke-width="2" d="M 1348.4,70" />
<path stroke="#000000" stroke-width="2" d="M 1364.4,30" />
<path stroke="#000000" stroke-width="2" d="M 1364.4,30 1364.2,34.1 1363.6,37.3 1362.7,39.8 1361.5,41.5 1360.2,42.7 1358.7,43.2 1357.2,43.3 1355.8,43 1354.4,42.3 1353.2,41.2 1352.2,40 1351.5,38.6 1351.1,37.2 1351.2,35.7 1351.8,34.2 1352.9,32.9 1354.7,31.7 1357.1,30.8 1360.4,30.2 1364.4,30 1384.4,30" />
<path stroke="#000000" stroke-width="2" d="M 1391.1,70" />
<path stroke="#000000" stroke-width="2" d="M 1407.1,30 1387.3,49.8 1407.1,69.6" />
<path stroke="#000000" stroke-width="2" d="M 1413.7,70" />
<path stroke="#000000" stroke-width="2" d="M 1433.7,30 1432,30 1430.3,30.2 1428.5,30.5 1426.9,30.9 1425.2,31.5 1423.6,32.2 1422.1,33.1 1420.7,34.1 1419.4,35.2 1418.1,36.5 1417,37.8 1416,39.2 1415.1,40.7 1414.4,42.3 1413.8,44 1413.3,45.7 1413,47.4 1412.9,49.1 1412.9,50.9 1413,52.6 1413.3,54.3 1413.8,56 1414.4,57.6 1415.1,59.2 1416,60.7 1417,62.2 1418.1,63.5 1419.4,64.7 1420.7,65.8 1422.1,66.8 1423.6,67.7 1425.2,68.5 1426.9,69.1 1428.5,69.5 1430.3,69.8 1432,70" />
<path stroke="#000000" stroke-width="2" d="M 1463.7,70" />
<path stroke="#000000" stroke-width="2" d="M 1463.7,30 1503.7,30" />
<path stroke="#000000" stroke-width="2" d="M 1533.7,70" />
</svg>