<svg xmlns="http://www.w3.org/2000/svg" width="1162.6585553932366" height="108.47759065022574" style="fill:none; stroke-linecap:round;">
    <rect width="100%" height="100%" fill="#FFFFFF" />
<path stroke="#000000" stroke-width="2" d="M 550,75" />
<path stroke="#000000" stroke-width="2" d="M 20,30 60,30" />
<path stroke="#000000" stroke-width="2" d="M 90,70" />
<path stroke="#000000" stroke-width="2" d="M 90,70 90.2,70 90.2,70.2 90,70.2 90,70" />
<path stroke="#000000" stroke-width="2" d="M 96.9,70" />
<path stroke="#000000" stroke-width="2" d="M 96.9,70 112.2,33 112.2,73" />
<path stroke="#000000" stroke-width="2" d="M 118.8,70" />
<path stroke="#000000" stroke-width="2" d="M 118.8,40" />
<path stroke="#000000" stroke-width="2" d="M 118.8,40 122.9,39.8 126.1,39.2 128.6,38.3 130.4,37.1 131.5,35.8 132.1,34.3 132.1,32.8 131.8,31.4 131.1,30 130.1,28.8 128.9,27.7 127.5,27 126,26.7 124.5,26.8 123.1,27.3 121.7,28.5 120.6,30.2 119.7,32.7 119.1,35.9 118.8,40 118.8,70" />
<path stroke="#000000" stroke-width="2" d="M 162.1,70" />
<path stroke="#000000" stroke-width="2" d="M 162.1,30 172.1,30 172.1,70" />
<path stroke="#000000" stroke-width="2" d="M 178.8,70" />
<path stroke="#000000" stroke-width="2" d="M 178.8,50 178.8,70 178.8,64 178.8,63.1 178.9,62.3 179,61.4 179.3,60.6 179.6,59.7 179.9,58.9 180.4,58.2 180.9,57.5 181.4,56.8 182.1,56.2 182.7,55.6 183.4,55.1 184.2,54.7 185,54.3 185.8,54 186.6,53.8 187.5,53.6 188.4,53.6" />
<path stroke="#000000" stroke-width="2" d="M 218.4,70" />
<path stroke="#000000" stroke-width="2" d="M 218.4,50 226,31.5 233.7,50 233.7,70 233.7,64 233.7,63.1 233.8,62.3 233.9,61.4 234.1,60.6 234.4,59.7 234.8,58.9 235.2,58.2 235.7,57.5 236.3,56.8 236.9,56.2 237.6,55.6 238.3,55.1 239.1,54.7 239.8,54.3 240.7,54 241.5,53.8 242.4,53.6 243.2,53.6" />
<path stroke="#000000" stroke-width="2" d="M 249.9,70" />
<path stroke="#000000" stroke-width="2" d="M 249.9,50" />
<path stroke="#000000" stroke-width="2" d="M 249.9,50 250,50 250.5,50 251.1,50 252,50.1 253,50.2 254.2,50.3 255.5,50.4 256.9,50.6 258.4,50.9 259.9,51.2 261.4,51.7 262.9,52.2 264.3,52.7 265.6,53.4 266.8,54.2 267.8,55.1 268.7,56.1 269.3,57.3 269.8,58.6 269.9,60" />
<path stroke="#000000" stroke-width="2" d="M 269.9,60 271.8,62.1 273.1,64.1 273.9,65.7 274.2,67.2 274.1,68.4 273.7,69.5 273,70.2 272.1,70.8 271,71.1 269.9,71.2 268.8,71.1 267.7,70.8 266.8,70.2 266.1,69.5 265.7,68.4 265.6,67.2 265.9,65.7 266.7,64 268,62.1 269.9,60" />
<path stroke="#000000" stroke-width="2" d="M 269.9,60 269.9,59.9 269.9,59.7 270,59.4 270.1,59 270.2,58.4 270.4,57.8 270.8,57.2 271.2,56.5 271.7,55.7 272.4,55 273.2,54.3 274.2,53.5 275.4,52.8 276.8,52.2 278.3,51.6 280.1,51 282.2,50.6 284.5,50.3 287,50.1 289.9,50 309.9,50 310.8,50 311.6,50.1 312.5,50.2 313.3,50.5 314.2,50.8 315,51.1 315.7,51.6 316.4,52.1 317.1,52.6 317.7,53.2 318.3,53.9 318.8,54.6 319.2,55.4 319.6,56.2 319.9,57 320.1,57.8 320.2,58.7 320.3,59.6 320.3,60.4 320.2,61.3 320.1,62.2 319.9,63 319.6,63.8 319.2,64.6 318.8,65.4 318.3,66.1 317.7,66.7 317.1,67.4 316.4,67.9 315.7,68.4 315,68.9 314.2,69.2 313.3,69.5 312.5,69.8 311.6,69.9 310.8,70" />
<path stroke="#000000" stroke-width="2" d="M 350.3,70" />
<path stroke="#000000" stroke-width="2" d="M 350.3,40 350.5,40 350.5,40.2 350.3,40.2 350.3,40" />
<path stroke="#000000" stroke-width="2" d="M 357.2,70" />
<path stroke="#000000" stroke-width="2" d="M 357.2,30 372.5,67" />
<path stroke="#000000" stroke-width="2" d="M 379.2,70" />
<path stroke="#000000" stroke-width="2" d="M 379.2,30 419.2,30" />
<path stroke="#000000" stroke-width="2" d="M 425.8,70" />
<path stroke="#000000" stroke-width="2" d="M 435.8,50 428.2,68.5" />
<path stroke="#000000" stroke-width="2" d="M 465.8,70" />
<path stroke="#000000" stroke-width="2" d="M 465.8,30 465.8,70 485.8,70" />
<path stroke="#000000" stroke-width="2" d="M 515.8,70" />
<path stroke="#000000" stroke-width="2" d="M 515.8,30 515.8,70" />
<path stroke="#000000" stroke-width="2" d="M 522.5,70" />
<path stroke="#000000" stroke-width="2" d="M 522.5,20 522.5,24 522.5,24.5 522.5,25 522.6,25.6 522.8,26.1 523,26.6 523.2,27 523.4,27.5 523.7,27.9 524.1,28.3 524.4,28.7 524.8,29 525.3,29.3 525.7,29.6 526.2,29.8 526.7,30 527.2,30.1 527.7,30.2 528.2,30.3 528.8,30.3 529.3,30.2 529.8,30.1 530.3,30 530.8,29.8 531.3,29.6 531.7,29.3 532.1,29 532.5,28.7 532.9,28.3 533.3,27.9 533.6,27.5 533.8,27 534,26.6 534.2,26.1 534.4,25.6 534.4,25 534.5,24.5 534.5,19.5 534.5,39.5" />
<path stroke="#000000" stroke-width="2" d="M 541.2,70" />
<path stroke="#000000" stroke-width="2" d="M 541.2,20 561.2,20" />
<path stroke="#000000" stroke-width="2" d="M 591.2,70" />
<path stroke="#000000" stroke-width="2" d="M 611.2,30 595.8,67" />
<path stroke="#000000" stroke-width="2" d="M 617.8,70" />
<path stroke="#000000" stroke-width="2" d="M 617.8,50 618.7,50 619.6,50.1 620.4,50.2 621.3,50.5 622.1,50.8 622.9,51.1 623.6,51.6 624.3,52.1 625,52.6 625.6,53.2 626.2,53.9 626.7,54.6 627.1,55.4 627.5,56.2 627.8,57 628,57.8 628.2,58.7 628.2,59.6 628.2,60.4 628.2,61.3 628,62.2 627.8,63 627.5,63.8 627.1,64.6 626.7,65.4 626.2,66.1 625.6,66.7 625,67.4 624.3,67.9 623.6,68.4 622.9,68.9 622.1,69.2 621.3,69.5 620.4,69.8 619.6,69.9 618.7,70 618.7,69.1 618.8,68.2 618.9,67.4 619.1,66.5 619.4,65.7 619.8,64.9 620.3,64.2 620.8,63.5 621.3,62.8 621.9,62.2 622.6,61.6 623.3,61.1 624.1,60.7 624.9,60.3 625.7,60 626.5,59.8 627.4,59.6 628.2,59.6" />
<path stroke="#000000" stroke-width="2" d="M 634.9,70" />
<path stroke="#000000" stroke-width="2" d="M 634.9,30 639.9,30 639.9,50 632.3,68.5" />
<path stroke="#000000" stroke-width="2" d="M 669.9,70" />
<path stroke="#000000" stroke-width="2" d="M 679.9,30 679,30 678.2,30.1 677.3,30.2 676.5,30.5 675.7,30.8 674.9,31.1 674.1,31.6 673.4,32.1 672.7,32.6 672.1,33.2 671.5,33.9 671,34.6 670.6,35.4 670.2,36.2 669.9,37 669.7,37.8 669.6,38.7 669.5,39.6 669.5,40.4 669.6,41.3 669.7,42.2 669.9,43 670.2,43.8 670.6,44.6 671,45.4 671.5,46.1 672.1,46.7 672.7,47.4 673.4,47.9 674.1,48.4 674.9,48.9 675.7,49.2 676.5,49.5 677.3,49.8 678.2,49.9 679,50 684,50 684,70" />
<path stroke="#000000" stroke-width="2" d="M 714,70" />
<path stroke="#000000" stroke-width="2" d="M 714,30 734,30 734.9,30 735.8,30.1 736.6,30.2 737.5,30.5 738.3,30.8 739.1,31.1 739.9,31.6 740.6,32.1 741.2,32.6 741.9,33.2 742.4,33.9 742.9,34.6 743.3,35.4 743.7,36.2 744,37 744.2,37.8 744.4,38.7 744.5,39.6 744.5,40.4 744.4,41.3 744.2,42.2 744,43 743.7,43.8 743.3,44.6 742.9,45.4 742.4,46.1 741.9,46.7 741.2,47.4 740.6,47.9 739.9,48.4 739.1,48.9 738.3,49.2 737.5,49.5 736.6,49.8 735.8,49.9 734.9,50" />
<path stroke="#000000" stroke-width="2" d="M 774.5,70" />
<path stroke="#000000" stroke-width="2" d="M 774.5,30 774.5,31.4 774.6,32.8 774.8,34.2 775.2,35.5 775.7,36.8 776.3,38.1 777,39.3 777.8,40.4 778.7,41.5 779.6,42.5 780.7,43.4 781.9,44.2 783.1,44.9 784.3,45.5 785.6,46 787,46.3 788.4,46.6 789.8,46.7 791.2,46.7 792.5,46.6 793.9,46.3 795.3,46 796.6,45.5 797.8,44.9 799.1,44.2 800.2,43.4 801.3,42.5 802.3,41.5 803.1,40.4 803.9,39.3 804.6,38.1 805.2,36.8 805.7,35.5 806.1,34.2 806.3,32.8 806.4,31.4" />
<path stroke="#000000" stroke-width="2" d="M 813.1,70" />
<path stroke="#000000" stroke-width="2" d="M 813.1,55" />
<path stroke="#000000" stroke-width="2" d="M 813.1,55 815.1,54.9 816.8,54.6 818,54.1 818.9,53.6 819.4,52.9 819.7,52.2 819.8,51.4 819.6,50.7 819.2,50 818.7,49.4 818.1,48.9 817.4,48.5 816.7,48.3 815.9,48.4 815.2,48.7 814.5,49.2 814,50.1 813.5,51.4 813.2,53 813.1,55 813.1,70 805.5,88.5" />
<path stroke="#000000" stroke-width="2" d="M 849.8,70" />
<path stroke="#000000" stroke-width="2" d="M 849.8,50 849.8,49.3 849.8,48.6 849.9,47.9 850.1,47.2 850.4,46.6 850.7,46 851,45.4 851.4,44.8 851.9,44.2 852.3,43.8 852.9,43.3 853.5,42.9 854.1,42.6 854.7,42.3 855.3,42 856,41.8 856.7,41.7 857.4,41.7 858.1,41.7 858.8,41.7 859.5,41.8 860.2,42 860.8,42.3 861.4,42.6 862.1,42.9 862.6,43.3 863.2,43.8 863.7,44.2 864.1,44.8 864.5,45.4 864.8,46 865.1,46.6 865.4,47.2 865.6,47.9 865.7,48.6 865.7,49.3" />
<path stroke="#000000" stroke-width="2" d="M 865.7,45.3" />
<path stroke="#000000" stroke-width="2" d="M 859.7,45.3 869.7,45.3 869.7,60.3" />
<path stroke="#000000" stroke-width="2" d="M 869.7,60.3 869.6,62.3 869.3,63.9 868.9,65.2 868.3,66.1 867.6,66.6 866.9,66.9 866.2,67 865.4,66.8 864.7,66.4 864.1,65.9 863.6,65.3 863.3,64.6 863.1,63.9 863.1,63.1 863.4,62.4 864,61.7 864.9,61.2 866.1,60.7 867.7,60.4 869.7,60.3" />
<path stroke="#000000" stroke-width="2" d="M 876.4,70" />
<path stroke="#000000" stroke-width="2" d="M 876.4,25" />
<path stroke="#000000" stroke-width="2" d="M 876.4,25 878.4,24.9 880.1,24.6 881.3,24.1 882.2,23.6 882.7,22.9 883,22.2 883.1,21.4 882.9,20.7 882.5,20 882,19.4 881.4,18.9 880.7,18.5 880,18.3 879.2,18.4 878.5,18.7 877.9,19.2 877.3,20.1 876.8,21.4 876.5,23 876.4,25 876.4,40 896.4,40 890.8,45.7 891.3,45.7 891.8,45.7 892.3,45.8 892.8,45.9 893.3,46.1 893.8,46.3 894.2,46.6 894.7,46.9 895.1,47.2 895.4,47.6 895.8,48 896.1,48.4 896.3,48.9 896.6,49.4 896.7,49.8 896.9,50.4 897,50.9 897,51.4 897,51.9 897,52.4 896.9,52.9 896.7,53.5 896.6,53.9 896.3,54.4 896.1,54.9 895.8,55.3 895.4,55.7 895.1,56.1 894.7,56.4 894.2,56.7 893.8,57 893.3,57.2 892.8,57.4 892.3,57.5 891.8,57.6 891.3,57.6" />
<path stroke="#000000" stroke-width="2" d="M 927,70" />
<path stroke="#000000" stroke-width="2" d="M 927,30 937,30 937,70" />
<path stroke="#000000" stroke-width="2" d="M 943.7,70" />
<path stroke="#000000" stroke-width="2" d="M 943.7,50 943.7,70 943.7,64 943.7,63.1 943.8,62.3 943.9,61.4 944.1,60.6 944.4,59.7 944.8,58.9 945.2,58.2 945.7,57.5 946.3,56.8 946.9,56.2 947.6,55.6 948.3,55.1 949,54.7 949.8,54.3 950.7,54 951.5,53.8 952.4,53.6 953.2,53.6" />
<path stroke="#000000" stroke-width="2" d="M 983.2,70" />
<path stroke="#000000" stroke-width="2" d="M 983.2,70 983.4,70 983.4,70.2 983.2,70.2 983.2,70" />
<path stroke="#000000" stroke-width="2" d="M 990.1,70" />
<path stroke="#000000" stroke-width="2" d="M 990.1,40" />
<path stroke="#000000" stroke-width="2" d="M 990.1,40 994.2,39.8 997.4,39.2 999.9,38.3 1001.6,37.1 1002.8,35.8 1003.3,34.3 1003.4,32.8 1003.1,31.4 1002.3,30 1001.3,28.8 1000.1,27.7 998.7,27 997.3,26.7 995.8,26.8 994.3,27.3 993,28.5 991.8,30.2 990.9,32.7 990.3,35.9 990.1,40 990.1,70" />
<path stroke="#000000" stroke-width="2" d="M 1010.1,70" />
<path stroke="#000000" stroke-width="2" d="M 1010.1,40 1010.1,39.3 1010.1,38.6 1010.3,37.9 1010.4,37.2 1010.7,36.6 1011,36 1011.3,35.4 1011.7,34.8 1012.2,34.2 1012.7,33.8 1013.2,33.3 1013.8,32.9 1014.4,32.6 1015,32.3 1015.7,32 1016.3,31.8 1017,31.7 1017.7,31.7 1018.4,31.7 1019.1,31.7 1019.8,31.8 1020.5,32 1021.1,32.3 1021.8,32.6 1022.4,32.9 1022.9,33.3 1023.5,33.8 1024,34.2 1024.4,34.8 1024.8,35.4 1025.2,36 1025.5,36.6 1025.7,37.2 1025.9,37.9 1026,38.6 1026.1,39.3" />
<path stroke="#000000" stroke-width="2" d="M 1026.1,35.3" />
<path stroke="#000000" stroke-width="2" d="M 1020.1,35.3 1030.1,35.3 1030.9,35.3 1031.8,35.4 1032.7,35.5 1033.5,35.8 1034.3,36.1 1035.1,36.4 1035.9,36.9 1036.6,37.4 1037.2,37.9 1037.9,38.5 1038.4,39.2 1038.9,39.9 1039.4,40.7 1039.7,41.5 1040,42.3 1040.3,43.1 1040.4,44 1040.5,44.9 1040.5,45.7 1040.4,46.6 1040.3,47.5 1040,48.3 1039.7,49.1 1039.4,49.9 1038.9,50.7 1038.4,51.4 1037.9,52 1037.2,52.7 1036.6,53.2 1035.9,53.7 1035.1,54.2 1034.3,54.5 1033.5,54.8 1032.7,55.1 1031.8,55.2 1030.9,55.3" />
<path stroke="#000000" stroke-width="2" d="M 1070.5,70" />
<path stroke="#000000" stroke-width="2" d="M 1090.5,30 1075.2,67" />
<path stroke="#000000" stroke-width="2" d="M 1097.2,70" />
<path stroke="#000000" stroke-width="2" d="M 1097.2,30 1112.5,67" />
<path stroke="#000000" stroke-width="2" d="M 1142.5,70" />
<path stroke="#000000" stroke-width="2" d="M 1142.5,70 1142.7,70 1142.7,70.2 1142.5,70.2 1142.5,70" />
<path stroke="#000000" stroke-width="2" d="M 1172.7,70" />
</svg>