<svg xmlns="http://www.w3.org/2000/svg" width="1345.8270369973718" height="108.47759065022574" style="fill:none; stroke-linecap:round;">
    <rect width="100%" height="100%" fill="#FFFFFF" />
<path stroke="#000000" stroke-width="2" d="M 550,75" />
<path stroke="#000000" stroke-width="2" d="M 20,70 20.2,70 20.2,70.2 20,70.2 20,70" />
<path stroke="#000000" stroke-width="2" d="M 26.9,70" />
<path stroke="#000000" stroke-width="2" d="M 26.9,40" />
<path stroke="#000000" stroke-width="2" d="M 26.9,40 30.9,39.8 34.2,39.2 36.6,38.3 38.4,37.1 39.5,35.8 40.1,34.3 40.2,32.8 39.8,31.4 39.1,30 38.1,28.8 36.9,27.7 35.5,27 34,26.7 32.5,26.8 31.1,27.3 29.7,28.5 28.6,30.2 27.7,32.7 27.1,35.9 26.9,40 26.9,70" />
<path stroke="#000000" stroke-width="2" d="M 46.8,70" />
<path stroke="#000000" stroke-width="2" d="M 46.8,28 46.8,27.3 46.9,26.6 47,25.9 47.2,25.2 47.4,24.6 47.7,24 48.1,23.4 48.5,22.8 48.9,22.2 49.4,21.8 50,21.3 50.5,20.9 51.1,20.6 51.8,20.3 52.4,20 53.1,19.8 53.8,19.7 54.5,19.7 55.2,19.7 55.9,19.7 56.6,19.8 57.2,20 57.9,20.3 58.5,20.6 59.1,20.9 59.7,21.3 60.2,21.8 60.7,22.2 61.2,22.8 61.6,23.4 61.9,24 62.2,24.6 62.5,25.2 62.6,25.9 62.8,26.6 62.8,27.3" />
<path stroke="#000000" stroke-width="2" d="M 62.8,23.3" />
<path stroke="#000000" stroke-width="2" d="M 56.8,23.3 72.8,23.3" />
<path stroke="#000000" stroke-width="2" d="M 72.8,23.3 74.3,23.4 75.5,23.9 76.7,24.5 77.6,25.4 78.5,26.4 79.1,27.6 79.7,28.9 80,30.3 80.3,31.8 80.3,33.3 80.3,34.8 80,36.3 79.7,37.7 79.1,39 78.5,40.2 77.6,41.2 76.7,42.1 75.5,42.7 74.3,43.2 72.8,43.3" />
<path stroke="#000000" stroke-width="2" d="M 110.3,70" />
<path stroke="#000000" stroke-width="2" d="M 110.3,30 110.3,31.4 110.4,32.8 110.7,34.2 111.1,35.5 111.5,36.8 112.1,38.1 112.8,39.3 113.6,40.4 114.5,41.5 115.5,42.5 116.6,43.4 117.7,44.2 118.9,44.9 120.2,45.5 121.5,46 122.8,46.3 124.2,46.6 125.6,46.7 127,46.7 128.4,46.6 129.8,46.3 131.1,46 132.4,45.5 133.7,44.9 134.9,44.2 136.1,43.4 137.1,42.5 138.1,41.5 139,40.4 139.8,39.3 140.5,38.1 141.1,36.8 141.6,35.5 141.9,34.2 142.2,32.8 142.3,31.4" />
<path stroke="#000000" stroke-width="2" d="M 149,70" />
<path stroke="#000000" stroke-width="2" d="M 149,58 149,57.3 149,56.6 149.1,55.9 149.3,55.2 149.6,54.6 149.9,54 150.2,53.4 150.6,52.8 151.1,52.2 151.6,51.8 152.1,51.3 152.7,50.9 153.3,50.6 153.9,50.3 154.5,50 155.2,49.8 155.9,49.7 156.6,49.7 157.3,49.7 158,49.7 158.7,49.8 159.4,50 160,50.3 160.6,50.6 161.3,50.9 161.8,51.3 162.4,51.8 162.9,52.2 163.3,52.8 163.7,53.4 164.1,54 164.3,54.6 164.6,55.2 164.8,55.9 164.9,56.6 164.9,57.3" />
<path stroke="#000000" stroke-width="2" d="M 171.6,70" />
<path stroke="#000000" stroke-width="2" d="M 179.6,20 179.6,35" />
<path stroke="#000000" stroke-width="2" d="M 179.6,35 179.5,37 179.2,38.6 178.8,39.9 178.2,40.8 177.5,41.3 176.8,41.6 176,41.7 175.3,41.5 174.6,41.1 174,40.6 173.5,40 173.1,39.3 173,38.6 173,37.8 173.3,37.1 173.9,36.4 174.7,35.9 176,35.4 177.6,35.1 179.6,35 199.6,35" />
<path stroke="#000000" stroke-width="2" d="M 229.6,70" />
<path stroke="#000000" stroke-width="2" d="M 229.6,30 229.6,70 240.9,58.7" />
<path stroke="#000000" stroke-width="2" d="M 247.6,70" />
<path stroke="#000000" stroke-width="2" d="M 247.6,25" />
<path stroke="#000000" stroke-width="2" d="M 247.6,25 249.6,24.9 251.2,24.6 252.5,24.1 253.4,23.6 253.9,22.9 254.2,22.2 254.2,21.4 254.1,20.7 253.7,20 253.2,19.4 252.6,18.9 251.9,18.5 251.2,18.3 250.4,18.4 249.7,18.7 249,19.2 248.5,20.1 248,21.4 247.7,23 247.6,25 247.6,40" />
<path stroke="#000000" stroke-width="2" d="M 284.2,70" />
<path stroke="#000000" stroke-width="2" d="M 300.2,30" />
<path stroke="#000000" stroke-width="2" d="M 300.2,30 300,34.1 299.4,37.3 298.5,39.8 297.4,41.5 296,42.7 294.6,43.2 293.1,43.3 291.6,43 290.2,42.3 289,41.2 288,40 287.3,38.6 286.9,37.2 287,35.7 287.6,34.2 288.7,32.9 290.5,31.7 293,30.8 296.2,30.2 300.2,30 320.2,30" />
<path stroke="#000000" stroke-width="2" d="M 326.9,70" />
<path stroke="#000000" stroke-width="2" d="M 326.9,55" />
<path stroke="#000000" stroke-width="2" d="M 326.9,55 328.9,54.9 330.6,54.6 331.8,54.1 332.7,53.6 333.2,52.9 333.5,52.2 333.6,51.4 333.4,50.7 333,50 332.5,49.4 331.9,48.9 331.2,48.5 330.5,48.3 329.8,48.4 329,48.7 328.4,49.2 327.8,50.1 327.3,51.4 327,53 326.9,55 326.9,70" />
<path stroke="#000000" stroke-width="2" d="M 340.2,70" />
<path stroke="#000000" stroke-width="2" d="M 340.2,30 340.2,50 340.2,50.7 340.3,51.4 340.4,52.1 340.6,52.8 340.8,53.4 341.1,54 341.5,54.6 341.9,55.2 342.3,55.8 342.8,56.2 343.4,56.7 343.9,57.1 344.5,57.4 345.2,57.7 345.8,58 346.5,58.2 347.2,58.3 347.9,58.3 348.6,58.3 349.3,58.3 350,58.2 350.6,58 351.3,57.7 351.9,57.4 352.5,57.1 353.1,56.7 353.6,56.2 354.1,55.8 354.6,55.2 355,54.6 355.3,54 355.6,53.4 355.9,52.8 356,52.1 356.2,51.4 356.2,50.7" />
<path stroke="#000000" stroke-width="2" d="M 362.9,70" />
<path stroke="#000000" stroke-width="2" d="M 362.9,30 363.1,30 363.1,30.2 362.9,30.2 362.9,30" />
<path stroke="#000000" stroke-width="2" d="M 393.1,70" />
<path stroke="#000000" stroke-width="2" d="M 393.1,70 393.3,70 393.3,70.2 393.1,70.2 393.1,70" />
<path stroke="#000000" stroke-width="2" d="M 400,70" />
<path stroke="#000000" stroke-width="2" d="M 400,30 415.3,67" />
<path stroke="#000000" stroke-width="2" d="M 421.9,70" />
<path stroke="#000000" stroke-width="2" d="M 421.9,55" />
<path stroke="#000000" stroke-width="2" d="M 421.9,55 424,54.9 425.6,54.6 426.8,54.1 427.7,53.6 428.3,52.9 428.5,52.2 428.6,51.4 428.4,50.7 428.1,50 427.6,49.4 426.9,48.9 426.2,48.5 425.5,48.3 424.8,48.4 424,48.7 423.4,49.2 422.8,50.1 422.3,51.4 422,53 421.9,55 421.9,70 414.3,88.5" />
<path stroke="#000000" stroke-width="2" d="M 458.6,70" />
<path stroke="#000000" stroke-width="2" d="M 478.6,30 478.6,70 458.6,70" />
<path stroke="#000000" stroke-width="2" d="M 485.3,70" />
<path stroke="#000000" stroke-width="2" d="M 485.3,20 505.3,20" />
<path stroke="#000000" stroke-width="2" d="M 511.9,70" />
<path stroke="#000000" stroke-width="2" d="M 511.9,20 511.9,40 511.9,34 511.9,33.1 512,32.3 512.1,31.4 512.4,30.6 512.7,29.7 513,28.9 513.5,28.2 514,27.5 514.5,26.8 515.2,26.2 515.8,25.6 516.5,25.1 517.3,24.7 518.1,24.3 518.9,24 519.7,23.8 520.6,23.6 521.5,23.6" />
<path stroke="#000000" stroke-width="2" d="M 528.1,70" />
<path stroke="#000000" stroke-width="2" d="M 528.1,46 528.1,44.6 528.3,43.2 528.5,41.8 528.9,40.5 529.3,39.2 529.9,37.9 530.6,36.7 531.4,35.6 532.3,34.5 533.3,33.5 534.4,32.6 535.5,31.8 536.7,31.1 538,30.5 539.3,30 540.7,29.7 542,29.4 543.4,29.3 544.8,29.3 546.2,29.4 547.6,29.7 548.9,30 550.2,30.5 551.5,31.1 552.7,31.8 553.9,32.6 554.9,33.5 555.9,34.5 556.8,35.6 557.6,36.7 558.3,37.9 558.9,39.2 559.4,40.5 559.7,41.8 560,43.2 560.1,44.6" />
<path stroke="#000000" stroke-width="2" d="M 590.1,70" />
<path stroke="#000000" stroke-width="2" d="M 595.1,30" />
<path stroke="#000000" stroke-width="2" d="M 595.1,30 593.7,30.1 592.4,30.6 591.3,31.2 590.3,32.1 589.5,33.1 588.8,34.3 588.3,35.6 587.9,37 587.7,38.5 587.6,40 587.7,41.5 587.9,43 588.3,44.4 588.8,45.7 589.5,46.9 590.3,47.9 591.3,48.8 592.4,49.4 593.7,49.9 595.1,50 615.1,50" />
<path stroke="#000000" stroke-width="2" d="M 645.1,70" />
<path stroke="#000000" stroke-width="2" d="M 645.1,70 645.3,70 645.3,70.2 645.1,70.2 645.1,70" />
<path stroke="#000000" stroke-width="2" d="M 675.3,70" />
<path stroke="#000000" stroke-width="2" d="M 675.3,30 675.3,50 685.3,50 685.3,70 691,64.3" />
<path stroke="#000000" stroke-width="2" d="M 697.6,70" />
<path stroke="#000000" stroke-width="2" d="M 697.6,25" />
<path stroke="#000000" stroke-width="2" d="M 697.6,25 699.7,24.9 701.3,24.6 702.5,24.1 703.4,23.6 704,22.9 704.2,22.2 704.3,21.4 704.1,20.7 703.8,20 703.3,19.4 702.6,18.9 702,18.5 701.2,18.3 700.5,18.4 699.7,18.7 699.1,19.2 698.5,20.1 698,21.4 697.7,23 697.6,25 697.6,40" />
<path stroke="#000000" stroke-width="2" d="M 734.3,70" />
<path stroke="#000000" stroke-width="2" d="M 734.3,30 774.3,30" />
<path stroke="#000000" stroke-width="2" d="M 804.3,70" />
<path stroke="#000000" stroke-width="2" d="M 804.3,70 804.5,70 804.5,70.2 804.3,70.2 804.3,70" />
<path stroke="#000000" stroke-width="2" d="M 811.2,70" />
<path stroke="#000000" stroke-width="2" d="M 827.2,30 807.4,49.8 827.2,69.6" />
<path stroke="#000000" stroke-width="2" d="M 833.8,70" />
<path stroke="#000000" stroke-width="2" d="M 833.8,55" />
<path stroke="#000000" stroke-width="2" d="M 833.8,55 835.8,54.9 837.5,54.6 838.7,54.1 839.6,53.6 840.1,52.9 840.4,52.2 840.5,51.4 840.3,50.7 839.9,50 839.4,49.4 838.8,48.9 838.1,48.5 837.4,48.3 836.7,48.4 835.9,48.7 835.3,49.2 834.7,50.1 834.2,51.4 833.9,53 833.8,55 833.8,70" />
<path stroke="#000000" stroke-width="2" d="M 833.8,70 833.7,72 833.4,73.6 833,74.9 832.4,75.8 831.7,76.3 831,76.6 830.2,76.7 829.5,76.5 828.8,76.1 828.2,75.6 827.7,75 827.3,74.3 827.2,73.6 827.2,72.8 827.5,72.1 828.1,71.4 828.9,70.9 830.2,70.4 831.8,70.1 833.8,70 843.8,70" />
<path stroke="#000000" stroke-width="2" d="M 850.5,70" />
<path stroke="#000000" stroke-width="2" d="M 870.5,30 855.2,67" />
<path stroke="#000000" stroke-width="2" d="M 877.2,70" />
<path stroke="#000000" stroke-width="2" d="M 877.2,20 877.2,20.7 877.2,21.4 877.3,22.1 877.5,22.8 877.8,23.4 878,24 878.4,24.6 878.8,25.2 879.2,25.8 879.7,26.2 880.3,26.7 880.8,27.1 881.5,27.4 882.1,27.7 882.7,28 883.4,28.2 884.1,28.3 884.8,28.3 885.5,28.3 886.2,28.3 886.9,28.2 887.5,28 888.2,27.7 888.8,27.4 889.4,27.1 890,26.7 890.5,26.2 891,25.8 891.5,25.2 891.9,24.6 892.2,24 892.5,23.4 892.8,22.8 893,22.1 893.1,21.4 893.1,20.7" />
<path stroke="#000000" stroke-width="2" d="M 923.1,70" />
<path stroke="#000000" stroke-width="2" d="M 923.1,30 923.1,70 923.1,58 923.1,56.3 923.3,54.5 923.6,52.8 924,51.1 924.6,49.5 925.4,47.9 926.2,46.4 927.3,45 928.4,43.6 929.6,42.4 930.9,41.3 932.4,40.3 933.9,39.4 935.5,38.7 937.1,38.1 938.8,37.6 940.5,37.3 942.2,37.1" />
<path stroke="#000000" stroke-width="2" d="M 948.9,70" />
<path stroke="#000000" stroke-width="2" d="M 948.9,50 956.6,68.5" />
<path stroke="#000000" stroke-width="2" d="M 986.6,70" />
<path stroke="#000000" stroke-width="2" d="M 986.6,70 986.8,70 986.8,70.2 986.6,70.2 986.6,70" />
<path stroke="#000000" stroke-width="2" d="M 1016.8,70" />
<path stroke="#000000" stroke-width="2" d="M 1016.8,50 1024.4,31.5 1024.4,32.2 1024.5,32.9 1024.6,33.6 1024.8,34.3 1025,34.9 1025.3,35.6 1025.7,36.2 1026.1,36.7 1026.5,37.3 1027,37.8 1027.5,38.2 1028.1,38.6 1028.7,39 1029.4,39.3 1030,39.5 1030.7,39.7 1031.4,39.8 1032.1,39.9 1032.8,39.9 1033.5,39.8 1034.1,39.7 1034.8,39.5 1035.5,39.3 1036.1,39 1036.7,38.6 1037.3,38.2 1037.8,37.8 1038.3,37.3 1038.8,36.7 1039.2,36.2 1039.5,35.6 1039.8,34.9 1040,34.3 1040.2,33.6 1040.3,32.9 1040.4,32.2 1041.3,32.2 1042.1,32.1 1043,32 1043.8,31.8 1044.7,31.5 1045.5,31.1 1046.2,30.7 1046.9,30.2 1047.6,29.6 1048.2,29 1048.8,28.3 1049.3,27.6 1049.7,26.8 1050.1,26.1 1050.4,25.2 1050.6,24.4 1050.8,23.5 1050.8,22.7 1050.8,21.8 1050.8,20.9 1050.6,20.1 1050.4,19.2 1050.1,18.4 1049.7,17.6 1049.3,16.9 1048.8,16.1 1048.2,15.5 1047.6,14.9 1046.9,14.3 1046.2,13.8 1045.5,13.4 1044.7,13 1043.8,12.7 1043,12.5 1042.1,12.3 1041.3,12.2 1040.4,12.2 1039.5,12.3 1038.7,12.5 1037.8,12.7 1037,13 1036.2,13.4 1035.5,13.8 1034.8,14.3 1034.1,14.9 1033.5,15.5 1032.9,16.1 1032.4,16.9 1032,17.6 1031.6,18.4 1031.3,19.2 1031.1,20.1 1030.9,20.9 1030.8,21.8 1030.8,22.7 1030.9,23.5 1031.1,24.4 1031.3,25.2 1031.6,26.1 1032,26.8 1032.4,27.6 1032.9,28.3 1033.5,29 1034.1,29.6 1034.8,30.2 1035.5,30.7 1036.2,31.1 1037,31.5 1037.8,31.8 1038.7,32 1039.5,32.1 1040.4,32.2" />
<path stroke="#000000" stroke-width="2" d="M 1057.5,70" />
<path stroke="#000000" stroke-width="2" d="M 1057.5,50 1057.7,50 1057.7,50.2 1057.5,50.2 1057.5,50" />
<path stroke="#000000" stroke-width="2" d="M 1087.7,70" />
<path stroke="#000000" stroke-width="2" d="M 1087.7,30 1087.7,50 1097.7,50 1087.8,59.9 1097.7,69.8" />
<path stroke="#000000" stroke-width="2" d="M 1104.4,70" />
<path stroke="#000000" stroke-width="2" d="M 1104.4,20" />
<path stroke="#000000" stroke-width="2" d="M 1104.4,20 1105.8,20.1 1107.1,20.6 1108.2,21.2 1109.2,22.1 1110,23.1 1110.7,24.3 1111.2,25.6 1111.6,27 1111.8,28.5 1111.9,30 1111.8,31.5 1111.6,33 1111.2,34.4 1110.7,35.7 1110,36.9 1109.2,37.9 1108.2,38.8 1107.1,39.4 1105.8,39.9 1104.4,40" />
<path stroke="#000000" stroke-width="2" d="M 1141.9,70" />
<path stroke="#000000" stroke-width="2" d="M 1141.9,30 1181.9,30" />
<path stroke="#000000" stroke-width="2" d="M 1188.5,70" />
<path stroke="#000000" stroke-width="2" d="M 1188.5,50 1193.5,50 1193.5,70" />
<path stroke="#000000" stroke-width="2" d="M 1200.2,70" />
<path stroke="#000000" stroke-width="2" d="M 1200.2,40" />
<path stroke="#000000" stroke-width="2" d="M 1200.2,40 1204.3,39.8 1207.5,39.2 1210,38.3 1211.7,37.1 1212.9,35.8 1213.4,34.3 1213.5,32.8 1213.2,31.4 1212.4,30 1211.4,28.7 1210.2,27.7 1208.8,27 1207.4,26.7 1205.9,26.8 1204.4,27.3 1203.1,28.5 1201.9,30.2 1201,32.7 1200.4,35.9 1200.2,40 1200.2,70" />
<path stroke="#000000" stroke-width="2" d="M 1220.2,70" />
<path stroke="#000000" stroke-width="2" d="M 1220.2,46 1220.2,44.6 1220.3,43.2 1220.5,41.8 1220.9,40.5 1221.4,39.2 1222,37.9 1222.7,36.7 1223.5,35.6 1224.4,34.5 1225.3,33.5 1226.4,32.6 1227.6,31.8 1228.8,31.1 1230,30.5 1231.3,30 1232.7,29.7 1234.1,29.4 1235.5,29.3 1236.9,29.3 1238.2,29.4 1239.6,29.7 1241,30 1242.3,30.5 1243.5,31.1 1244.8,31.8 1245.9,32.6 1247,33.5 1248,34.5 1248.9,35.6 1249.7,36.7 1250.3,37.9 1250.9,39.2 1251.4,40.5 1251.8,41.8 1252,43.2 1252.1,44.6" />
<path stroke="#000000" stroke-width="2" d="M 1258.8,70" />
<path stroke="#000000" stroke-width="2" d="M 1258.8,20 1258.8,20.7 1258.9,21.4 1259,22.1 1259.2,22.8 1259.4,23.4 1259.7,24 1260.1,24.6 1260.5,25.2 1260.9,25.8 1261.4,26.2 1261.9,26.7 1262.5,27.1 1263.1,27.4 1263.7,27.7 1264.4,28 1265.1,28.2 1265.8,28.3 1266.5,28.3 1267.2,28.3 1267.8,28.3 1268.5,28.2 1269.2,28 1269.9,27.7 1270.5,27.4 1271.1,27.1 1271.7,26.7 1272.2,26.2 1272.7,25.8 1273.1,25.2 1273.5,24.6 1273.9,24 1274.2,23.4 1274.4,22.8 1274.6,22.1 1274.7,21.4 1274.8,20.7" />
<path stroke="#000000" stroke-width="2" d="M 1304.8,70" />
<path stroke="#000000" stroke-width="2" d="M 1304.8,30 1304.8,70" />
<path stroke="#000000" stroke-width="2" d="M 1311.5,70" />
<path stroke="#000000" stroke-width="2" d="M 1311.5,50" />
<path stroke="#000000" stroke-width="2" d="M 1311.5,50 1312.9,50.1 1314.2,50.6 1315.3,51.2 1316.3,52.1 1317.1,53.1 1317.8,54.3 1318.3,55.6 1318.7,57 1318.9,58.5 1319,60 1318.9,61.5 1318.7,63 1318.3,64.4 1317.8,65.7 1317.1,66.9 1316.3,67.9 1315.3,68.8 1314.2,69.4 1312.9,69.9 1311.5,70" />
<path stroke="#000000" stroke-width="2" d="M 1325.6,70" />
<path stroke="#000000" stroke-width="2" d="M 1325.6,30 1325.8,30 1325.8,30.2 1325.6,30.2 1325.6,30" />
<path stroke="#000000" stroke-width="2" d="M 1355.8,70" />
</svg>