<svg xmlns="http://www.w3.org/2000/svg" width="1338.5560413522257" height="108.47759065022574" style="fill:none; stroke-linecap:round;">
    <rect width="100%" height="100%" fill="#FFFFFF" />
<path stroke="#000000" stroke-width="2" d="M 550,75" />
<path stroke="#000000" stroke-width="2" d="M 20,30 20,70 40,70" />
<path stroke="#000000" stroke-width="2" d="M 70,70" />
<path stroke="#000000" stroke-width="2" d="M 80,30 70,30 70,70" />
<path stroke="#000000" stroke-width="2" d="M 86.7,70" />
<path stroke="#000000" stroke-width="2" d="M 86.7,50 90.5,59.2" />
<path stroke="#000000" stroke-width="2" d="M 90.5,59.2 92.4,61.4 93.7,63.3 94.5,65 94.8,66.4 94.7,67.7 94.3,68.7 93.6,69.5 92.7,70 91.6,70.4 90.5,70.5 89.4,70.4 88.3,70 87.4,69.5 86.7,68.7 86.3,67.7 86.2,66.4 86.5,65 87.3,63.3 88.6,61.4 90.5,59.2 94.3,50 94.3,50.7 94.4,51.4 94.5,52.1 94.7,52.8 94.9,53.4 95.2,54 95.6,54.6 96,55.2 96.4,55.8 96.9,56.2 97.4,56.7 98,57.1 98.6,57.4 99.3,57.7 99.9,58 100.6,58.2 101.3,58.3 102,58.3 102.7,58.3 103.4,58.3 104,58.2 104.7,58 105.4,57.7 106,57.4 106.6,57.1 107.2,56.7 107.7,56.2 108.2,55.8 108.7,55.2 109.1,54.6 109.4,54 109.7,53.4 109.9,52.8 110.1,52.1 110.2,51.4 110.3,50.7 111.2,50.7 112,50.8 112.9,50.9 113.7,51.2 114.6,51.4 115.4,51.8 116.1,52.3 116.8,52.8 117.5,53.3 118.1,53.9 118.7,54.6 119.2,55.3 119.6,56.1 120,56.9 120.3,57.7 120.5,58.5 120.7,59.4 120.7,60.3 120.7,61.1 120.7,62 120.5,62.9 120.3,63.7 120,64.5 119.6,65.3 119.2,66.1 118.7,66.8 118.1,67.4 117.5,68.1 116.8,68.6 116.1,69.1 115.4,69.6 114.6,69.9 113.7,70.2 112.9,70.5 112,70.6 111.2,70.7" />
<path stroke="#000000" stroke-width="2" d="M 150.7,70" />
<path stroke="#000000" stroke-width="2" d="M 150.7,30 160.7,30 160.7,70" />
<path stroke="#000000" stroke-width="2" d="M 167.4,70" />
<path stroke="#000000" stroke-width="2" d="M 167.4,20 167.4,20.7 167.5,21.4 167.6,22.1 167.8,22.8 168,23.4 168.3,24 168.6,24.6 169,25.2 169.5,25.8 170,26.2 170.5,26.7 171.1,27.1 171.7,27.4 172.3,27.7 173,28 173.7,28.2 174.3,28.3 175,28.3 175.7,28.3 176.4,28.3 177.1,28.2 177.8,28 178.5,27.7 179.1,27.4 179.7,27.1 180.3,26.7 180.8,26.2 181.3,25.8 181.7,25.2 182.1,24.6 182.5,24 182.8,23.4 183,22.8 183.2,22.1 183.3,21.4 183.4,20.7" />
<path stroke="#000000" stroke-width="2" d="M 213.4,70" />
<path stroke="#000000" stroke-width="2" d="M 229.4,30 209.6,49.8 229.4,69.6" />
<path stroke="#000000" stroke-width="2" d="M 236,70" />
<path stroke="#000000" stroke-width="2" d="M 236,20 236,40 236,34 236,33.1 236.1,32.3 236.3,31.4 236.5,30.6 236.8,29.7 237.2,28.9 237.6,28.2 238.1,27.5 238.7,26.8 239.3,26.2 240,25.6 240.7,25.1 241.4,24.7 242.2,24.3 243,24 243.9,23.8 244.7,23.6 245.6,23.6" />
<path stroke="#000000" stroke-width="2" d="M 275.6,70" />
<path stroke="#000000" stroke-width="2" d="M 275.6,30 275.6,70" />
<path stroke="#000000" stroke-width="2" d="M 282.3,70" />
<path stroke="#000000" stroke-width="2" d="M 282.3,50 283.1,50 284,50.1 284.9,50.2 285.7,50.5 286.5,50.8 287.3,51.1 288.1,51.6 288.8,52.1 289.5,52.6 290.1,53.2 290.6,53.9 291.1,54.6 291.6,55.4 291.9,56.2 292.2,57 292.5,57.8 292.6,58.7 292.7,59.6 292.7,60.4 292.6,61.3 292.5,62.2 292.2,63 291.9,63.8 291.6,64.6 291.1,65.4 290.6,66.1 290.1,66.7 289.5,67.4 288.8,67.9 288.1,68.4 287.3,68.9 286.5,69.2 285.7,69.5 284.9,69.8 284,69.9 283.1,70" />
<path stroke="#000000" stroke-width="2" d="M 299.4,70" />
<path stroke="#000000" stroke-width="2" d="M 299.4,30 299.6,30 299.6,30.2 299.4,30.2 299.4,30" />
<path stroke="#000000" stroke-width="2" d="M 329.6,70" />
<path stroke="#000000" stroke-width="2" d="M 329.6,30 329.6,70 340.9,58.7" />
<path stroke="#000000" stroke-width="2" d="M 347.5,70" />
<path stroke="#000000" stroke-width="2" d="M 347.5,20 347.5,40 347.5,34 347.5,33.1 347.6,32.3 347.8,31.4 348,30.6 348.3,29.7 348.7,28.9 349.1,28.2 349.6,27.5 350.2,26.8 350.8,26.2 351.4,25.6 352.2,25.1 352.9,24.7 353.7,24.3 354.5,24 355.4,23.8 356.2,23.6 357.1,23.6 364.8,42.1 365.6,42.1 366.5,42 367.4,41.8 368.2,41.6 369,41.3 369.8,40.9 370.6,40.5 371.3,40 371.9,39.4 372.6,38.8 373.1,38.1 373.6,37.4 374.1,36.7 374.4,35.9 374.7,35.1 375,34.2 375.1,33.4 375.2,32.5 375.2,31.6 375.1,30.8 375,29.9 374.7,29.1 374.4,28.2 374.1,27.4 373.6,26.7 373.1,26 372.6,25.3 371.9,24.7 371.3,24.1 370.6,23.6 369.8,23.2 369,22.8 368.2,22.5 367.4,22.3 366.5,22.1 365.6,22.1 364.8,22.1 363.9,22.1 363,22.3 362.2,22.5 361.4,22.8 360.6,23.2 359.8,23.6 359.1,24.1 358.4,24.7 357.8,25.3 357.3,26 356.8,26.7 356.3,27.4 355.9,28.2 355.7,29.1 355.4,29.9 355.3,30.8 355.2,31.6 355.2,32.5 355.3,33.4 355.4,34.2 355.7,35.1 355.9,35.9 356.3,36.7 356.8,37.4 357.3,38.1 357.8,38.8 358.4,39.4 359.1,40 359.8,40.5 360.6,40.9 361.4,41.3 362.2,41.6 363,41.8 363.9,42 364.8,42.1" />
<path stroke="#000000" stroke-width="2" d="M 405.2,70" />
<path stroke="#000000" stroke-width="2" d="M 405.2,30 405.2,70 425.2,70" />
<path stroke="#000000" stroke-width="2" d="M 455.2,70" />
<path stroke="#000000" stroke-width="2" d="M 465.2,30 455.2,30 455.2,70" />
<path stroke="#000000" stroke-width="2" d="M 471.8,70" />
<path stroke="#000000" stroke-width="2" d="M 471.8,50 475.7,59.2" />
<path stroke="#000000" stroke-width="2" d="M 475.7,59.2 477.6,61.4 478.9,63.3 479.7,65 480,66.4 479.9,67.7 479.5,68.7 478.7,69.5 477.8,70 476.8,70.4 475.7,70.5 474.6,70.4 473.5,70 472.6,69.5 471.9,68.7 471.5,67.7 471.4,66.4 471.7,65 472.4,63.3 473.7,61.4 475.7,59.2 479.5,50 479.5,50.7 479.6,51.4 479.7,52.1 479.9,52.8 480.1,53.4 480.4,54 480.7,54.6 481.1,55.2 481.6,55.8 482.1,56.2 482.6,56.7 483.2,57.1 483.8,57.4 484.4,57.7 485.1,58 485.8,58.2 486.4,58.3 487.1,58.3 487.8,58.3 488.5,58.3 489.2,58.2 489.9,58 490.6,57.7 491.2,57.4 491.8,57.1 492.4,56.7 492.9,56.2 493.4,55.8 493.8,55.2 494.2,54.6 494.6,54 494.9,53.4 495.1,52.8 495.3,52.1 495.4,51.4 495.5,50.7 496.4,50.7 497.2,50.8 498.1,50.9 498.9,51.2 499.7,51.4 500.5,51.8 501.3,52.3 502,52.8 502.7,53.3 503.3,53.9 503.9,54.6 504.4,55.3 504.8,56.1 505.2,56.9 505.5,57.7 505.7,58.5 505.8,59.4 505.9,60.3 505.9,61.1 505.8,62 505.7,62.9 505.5,63.7 505.2,64.5 504.8,65.3 504.4,66.1 503.9,66.8 503.3,67.4 502.7,68.1 502,68.6 501.3,69.1 500.5,69.6 499.7,69.9 498.9,70.2 498.1,70.5 497.2,70.6 496.4,70.7" />
<path stroke="#000000" stroke-width="2" d="M 535.9,70" />
<path stroke="#000000" stroke-width="2" d="M 535.9,30 545.9,30 545.9,70" />
<path stroke="#000000" stroke-width="2" d="M 552.6,70" />
<path stroke="#000000" stroke-width="2" d="M 552.6,20 552.6,20.7 552.6,21.4 552.8,22.1 552.9,22.8 553.2,23.4 553.5,24 553.8,24.6 554.2,25.2 554.7,25.8 555.2,26.2 555.7,26.7 556.3,27.1 556.9,27.4 557.5,27.7 558.2,28 558.8,28.2 559.5,28.3 560.2,28.3 560.9,28.3 561.6,28.3 562.3,28.2 563,28 563.6,27.7 564.3,27.4 564.9,27.1 565.4,26.7 566,26.2 566.5,25.8 566.9,25.2 567.3,24.6 567.7,24 568,23.4 568.2,22.8 568.4,22.1 568.5,21.4 568.6,20.7" />
<path stroke="#000000" stroke-width="2" d="M 598.6,70" />
<path stroke="#000000" stroke-width="2" d="M 598.6,40 598.8,40 598.8,40.2 598.6,40.2 598.6,40" />
<path stroke="#000000" stroke-width="2" d="M 605.4,70" />
<path stroke="#000000" stroke-width="2" d="M 625.4,30 610.1,67" />
<path stroke="#000000" stroke-width="2" d="M 632.1,70" />
<path stroke="#000000" stroke-width="2" d="M 632.1,50 637.1,50 637.1,70 629.4,88.5" />
<path stroke="#000000" stroke-width="2" d="M 667.1,70" />
<path stroke="#000000" stroke-width="2" d="M 677.1,30 676.2,30 675.4,30.1 674.5,30.2 673.7,30.5 672.8,30.8 672,31.1 671.3,31.6 670.6,32.1 669.9,32.6 669.3,33.2 668.7,33.9 668.2,34.6 667.8,35.4 667.4,36.2 667.1,37 666.9,37.8 666.7,38.7 666.7,39.6 666.7,40.4 666.7,41.3 666.9,42.2 667.1,43 667.4,43.8 667.8,44.6 668.2,45.4 668.7,46.1 669.3,46.7 669.9,47.4 670.6,47.9 671.3,48.4 672,48.9 672.8,49.2 673.7,49.5 674.5,49.8 675.4,49.9 676.2,50 696.2,50" />
<path stroke="#000000" stroke-width="2" d="M 726.2,70" />
<path stroke="#000000" stroke-width="2" d="M 742.2,30 722.4,49.8 742.2,69.6" />
<path stroke="#000000" stroke-width="2" d="M 748.9,70" />
<path stroke="#000000" stroke-width="2" d="M 748.9,20 748.9,40 748.9,34 748.9,33.1 749,32.3 749.1,31.4 749.3,30.6 749.6,29.7 750,28.9 750.4,28.2 750.9,27.5 751.5,26.8 752.1,26.2 752.8,25.6 753.5,25.1 754.3,24.7 755.1,24.3 755.9,24 756.7,23.8 757.6,23.6 758.4,23.6" />
<path stroke="#000000" stroke-width="2" d="M 788.4,70" />
<path stroke="#000000" stroke-width="2" d="M 788.4,30 808.2,49.8 788.4,69.6" />
<path stroke="#000000" stroke-width="2" d="M 814.9,70" />
<path stroke="#000000" stroke-width="2" d="M 814.9,25" />
<path stroke="#000000" stroke-width="2" d="M 814.9,25 816.9,24.9 818.6,24.6 819.8,24.1 820.7,23.6 821.2,22.9 821.5,22.2 821.6,21.4 821.4,20.7 821,20 820.5,19.4 819.9,18.9 819.2,18.5 818.5,18.3 817.7,18.4 817,18.7 816.3,19.2 815.8,20.1 815.3,21.4 815,23 814.9,25 814.9,40 807.3,58.5" />
<path stroke="#000000" stroke-width="2" d="M 851.6,70" />
<path stroke="#000000" stroke-width="2" d="M 851.6,70 851.8,70 851.8,70.2 851.6,70.2 851.6,70" />
<path stroke="#000000" stroke-width="2" d="M 881.8,70" />
<path stroke="#000000" stroke-width="2" d="M 881.8,30 881.8,70 901.8,70" />
<path stroke="#000000" stroke-width="2" d="M 931.8,70" />
<path stroke="#000000" stroke-width="2" d="M 941.8,30 931.8,30 931.8,70" />
<path stroke="#000000" stroke-width="2" d="M 948.4,70" />
<path stroke="#000000" stroke-width="2" d="M 948.4,50 952.3,59.2" />
<path stroke="#000000" stroke-width="2" d="M 952.3,59.2 954.2,61.4 955.5,63.3 956.3,65 956.6,66.4 956.5,67.7 956,68.7 955.3,69.5 954.4,70 953.4,70.4 952.3,70.5 951.1,70.4 950.1,70 949.2,69.5 948.5,68.7 948,67.7 947.9,66.4 948.2,65 949,63.3 950.3,61.4 952.3,59.2 956.1,50 956.1,50.7 956.1,51.4 956.3,52.1 956.4,52.8 956.7,53.4 957,54 957.3,54.6 957.7,55.2 958.2,55.8 958.7,56.2 959.2,56.7 959.8,57.1 960.4,57.4 961,57.7 961.7,58 962.3,58.2 963,58.3 963.7,58.3 964.4,58.3 965.1,58.3 965.8,58.2 966.5,58 967.1,57.7 967.8,57.4 968.4,57.1 968.9,56.7 969.5,56.2 970,55.8 970.4,55.2 970.8,54.6 971.2,54 971.5,53.4 971.7,52.8 971.9,52.1 972,51.4 972.1,50.7 972.9,50.7 973.8,50.8 974.7,50.9 975.5,51.2 976.3,51.4 977.1,51.8 977.9,52.3 978.6,52.8 979.3,53.3 979.9,53.9 980.4,54.6 980.9,55.3 981.4,56.1 981.7,56.9 982,57.7 982.3,58.5 982.4,59.4 982.5,60.3 982.5,61.1 982.4,62 982.3,62.9 982,63.7 981.7,64.5 981.4,65.3 980.9,66.1 980.4,66.8 979.9,67.4 979.3,68.1 978.6,68.6 977.9,69.1 977.1,69.6 976.3,69.9 975.5,70.2 974.7,70.5 973.8,70.6 972.9,70.7" />
<path stroke="#000000" stroke-width="2" d="M 1012.5,70" />
<path stroke="#000000" stroke-width="2" d="M 1012.5,30 1022.5,30 1022.5,70" />
<path stroke="#000000" stroke-width="2" d="M 1029.2,70" />
<path stroke="#000000" stroke-width="2" d="M 1029.2,20 1029.2,20.7 1029.2,21.4 1029.3,22.1 1029.5,22.8 1029.8,23.4 1030.1,24 1030.4,24.6 1030.8,25.2 1031.3,25.8 1031.8,26.2 1032.3,26.7 1032.9,27.1 1033.5,27.4 1034.1,27.7 1034.7,28 1035.4,28.2 1036.1,28.3 1036.8,28.3 1037.5,28.3 1038.2,28.3 1038.9,28.2 1039.6,28 1040.2,27.7 1040.8,27.4 1041.5,27.1 1042,26.7 1042.6,26.2 1043.1,25.8 1043.5,25.2 1043.9,24.6 1044.3,24 1044.5,23.4 1044.8,22.8 1045,22.1 1045.1,21.4 1045.1,20.7" />
<path stroke="#000000" stroke-width="2" d="M 1075.1,70" />
<path stroke="#000000" stroke-width="2" d="M 1075.1,30 1095.1,30 1096,30 1096.9,30.1 1097.7,30.2 1098.6,30.5 1099.4,30.8 1100.2,31.1 1101,31.6 1101.7,32.1 1102.3,32.6 1103,33.2 1103.5,33.9 1104,34.6 1104.5,35.4 1104.8,36.2 1105.1,37 1105.3,37.8 1105.5,38.7 1105.6,39.6 1105.6,40.4 1105.5,41.3 1105.3,42.2 1105.1,43 1104.8,43.8 1104.5,44.6 1104,45.4 1103.5,46.1 1103,46.7 1102.3,47.4 1101.7,47.9 1101,48.4 1100.2,48.9 1099.4,49.2 1098.6,49.5 1097.7,49.8 1096.9,49.9 1096,50" />
<path stroke="#000000" stroke-width="2" d="M 1112.2,70" />
<path stroke="#000000" stroke-width="2" d="M 1112.2,30 1127.5,67 1142.9,30" />
<path stroke="#000000" stroke-width="2" d="M 1149.5,70" />
<path stroke="#000000" stroke-width="2" d="M 1149.5,30 1151.3,30 1153,30.2 1154.7,30.5 1156.4,30.9 1158,31.5 1159.6,32.2 1161.1,33.1 1162.6,34.1 1163.9,35.2 1165.1,36.5 1166.3,37.8 1167.3,39.2 1168.1,40.7 1168.9,42.3 1169.5,44 1169.9,45.7 1170.2,47.4 1170.4,49.1 1170.4,50.9 1170.2,52.6 1169.9,54.3 1169.5,56 1168.9,57.6 1168.1,59.2 1167.3,60.7 1166.3,62.2 1165.1,63.5 1163.9,64.7 1162.6,65.8 1161.1,66.8 1159.6,67.7 1158,68.5 1156.4,69.1 1154.7,69.5 1153,69.8 1151.3,70" />
<path stroke="#000000" stroke-width="2" d="M 1177,70" />
<path stroke="#000000" stroke-width="2" d="M 1177,70 1184.7,51.5 1184.7,52.2 1184.8,52.9 1184.9,53.6 1185.1,54.3 1185.3,54.9 1185.6,55.6 1185.9,56.2 1186.3,56.7 1186.8,57.3 1187.3,57.8 1187.8,58.2 1188.4,58.6 1189,59 1189.6,59.3 1190.3,59.5 1191,59.7 1191.6,59.8 1192.3,59.9 1193,59.9 1193.7,59.8 1194.4,59.7 1195.1,59.5 1195.7,59.3 1196.4,59 1197,58.6 1197.6,58.2 1198.1,57.8 1198.6,57.3 1199,56.7 1199.4,56.2 1199.8,55.6 1200.1,54.9 1200.3,54.3 1200.5,53.6 1200.6,52.9 1200.7,52.2" />
<path stroke="#000000" stroke-width="2" d="M 1230.7,70" />
<path stroke="#000000" stroke-width="2" d="M 1230.7,35" />
<path stroke="#000000" stroke-width="2" d="M 1230.7,35 1232.7,34.9 1234.3,34.6 1235.6,34.1 1236.4,33.6 1237,32.9 1237.3,32.2 1237.3,31.4 1237.2,30.7 1236.8,30 1236.3,29.4 1235.7,28.9 1235,28.5 1234.3,28.3 1233.5,28.4 1232.8,28.7 1232.1,29.2 1231.5,30.1 1231.1,31.4 1230.8,33 1230.7,35 1230.7,50 1223,68.5 1225.3,62.9 1225.7,62.1 1226.1,61.4 1226.5,60.6 1227.1,59.9 1227.6,59.3 1228.3,58.7 1229,58.2 1229.7,57.7 1230.5,57.3 1231.3,57 1232.1,56.7 1233,56.5" />
<path stroke="#000000" stroke-width="2" d="M 1244,70" />
<path stroke="#000000" stroke-width="2" d="M 1244,20 1264,20 1264.9,20 1265.7,20.1 1266.6,20.2 1267.4,20.5 1268.3,20.8 1269.1,21.1 1269.8,21.6 1270.5,22.1 1271.2,22.6 1271.8,23.2 1272.4,23.9 1272.9,24.6 1273.3,25.4 1273.7,26.2 1274,27 1274.2,27.8 1274.4,28.7 1274.4,29.6 1274.4,30.4 1274.4,31.3 1274.2,32.2 1274,33 1273.7,33.8 1273.3,34.6 1272.9,35.4 1272.4,36.1 1271.8,36.7 1271.2,37.4 1270.5,37.9 1269.8,38.4 1269.1,38.9 1268.3,39.2 1267.4,39.5 1266.6,39.8 1265.7,39.9 1264.9,40" />
<path stroke="#000000" stroke-width="2" d="M 1264.9,40 1266.9,39.9 1268.5,39.6 1269.8,39.1 1270.6,38.5 1271.2,37.9 1271.5,37.1 1271.5,36.4 1271.4,35.7 1271,35 1270.5,34.4 1269.9,33.9 1269.2,33.5 1268.5,33.3 1267.7,33.4 1267,33.7 1266.3,34.2 1265.7,35.1 1265.3,36.3 1265,38 1264.9,40 1264.9,55" />
<path stroke="#000000" stroke-width="2" d="M 1304.4,70" />
<path stroke="#000000" stroke-width="2" d="M 1314.4,30 1313.6,30 1312.7,30.1 1311.8,30.2 1311,30.5 1310.2,30.8 1309.4,31.1 1308.6,31.6 1307.9,32.1 1307.2,32.6 1306.6,33.2 1306.1,33.9 1305.6,34.6 1305.1,35.4 1304.8,36.2 1304.5,37 1304.2,37.8 1304.1,38.7 1304,39.6 1304,40.4 1304.1,41.3 1304.2,42.2 1304.5,43 1304.8,43.8 1305.1,44.6 1305.6,45.4 1306.1,46.1 1306.6,46.7 1307.2,47.4 1307.9,47.9 1308.6,48.4 1309.4,48.9 1310.2,49.2 1311,49.5 1311.8,49.8 1312.7,49.9 1313.6,50 1318.6,50 1318.6,70" />
<path stroke="#000000" stroke-width="2" d="M 1348.6,70" />
</svg>