<svg xmlns="http://www.w3.org/2000/svg" width="1071.5782889513189" height="108.47759065022574" style="fill:none; stroke-linecap:round;">
    <rect width="100%" height="100%" fill="#FFFFFF" />
<path stroke="#000000" stroke-width="2" d="M 550,75" />
<path stroke="#000000" stroke-width="2" d="M 20,70 20.2,70 20.2,70.2 20,70.2 20,70" />
<path stroke="#000000" stroke-width="2" d="M 26.9,70" />
<path stroke="#000000" stroke-width="2" d="M 26.9,30 42.2,67" />
<path stroke="#000000" stroke-width="2" d="M 48.8,70" />
<path stroke="#000000" stroke-width="2" d="M 48.8,55" />
<path stroke="#000000" stroke-width="2" d="M 48.8,55 50.9,54.9 52.5,54.6 53.7,54.1 54.6,53.6 55.2,52.9 55.5,52.2 55.5,51.4 55.3,50.7 55,50 54.5,49.4 53.9,48.9 53.2,48.5 52.4,48.3 51.7,48.4 51,48.7 50.3,49.2 49.7,50.1 49.2,51.4 48.9,53 48.8,55 48.8,70 41.2,88.5" />
<path stroke="#000000" stroke-width="2" d="M 85.5,70" />
<path stroke="#000000" stroke-width="2" d="M 101.5,30" />
<path stroke="#000000" stroke-width="2" d="M 101.5,30 101.3,34.1 100.7,37.3 99.8,39.8 98.6,41.5 97.3,42.7 95.8,43.2 94.3,43.3 92.9,43 91.5,42.3 90.2,41.2 89.2,40 88.5,38.6 88.2,37.2 88.3,35.7 88.8,34.2 90,32.9 91.7,31.7 94.2,30.8 97.4,30.2 101.5,30 121.5,30" />
<path stroke="#000000" stroke-width="2" d="M 128.2,70" />
<path stroke="#000000" stroke-width="2" d="M 128.2,50 128.2,70 133.8,64.3" />
<path stroke="#000000" stroke-width="2" d="M 140.5,70" />
<path stroke="#000000" stroke-width="2" d="M 140.5,20 140.5,40 140.5,34 140.5,33.1 140.6,32.3 140.7,31.4 140.9,30.6 141.2,29.7 141.6,28.9 142,28.2 142.5,27.5 143.1,26.8 143.7,26.2 144.4,25.6 145.1,25.1 145.9,24.7 146.6,24.3 147.5,24 148.3,23.8 149.2,23.6 150,23.6 155,23.6 155,43.6" />
<path stroke="#000000" stroke-width="2" d="M 161.7,70" />
<path stroke="#000000" stroke-width="2" d="M 161.7,50 161.7,50.7 161.8,51.4 161.9,52.1 162.1,52.8 162.3,53.4 162.6,54 163,54.6 163.4,55.2 163.8,55.8 164.3,56.2 164.8,56.7 165.4,57.1 166,57.4 166.6,57.7 167.3,58 168,58.2 168.7,58.3 169.3,58.3 170,58.3 170.7,58.3 171.4,58.2 172.1,58 172.8,57.7 173.4,57.4 174,57.1 174.6,56.7 175.1,56.2 175.6,55.8 176,55.2 176.4,54.6 176.8,54 177.1,53.4 177.3,52.8 177.5,52.1 177.6,51.4 177.7,50.7" />
<path stroke="#000000" stroke-width="2" d="M 207.7,70" />
<path stroke="#000000" stroke-width="2" d="M 207.7,30 223,67" />
<path stroke="#000000" stroke-width="2" d="M 229.7,70" />
<path stroke="#000000" stroke-width="2" d="M 229.7,20 229.7,24 229.7,24.5 229.7,25 229.8,25.6 229.9,26.1 230.1,26.6 230.3,27 230.6,27.5 230.9,27.9 231.2,28.3 231.6,28.7 232,29 232.4,29.3 232.9,29.6 233.4,29.8 233.9,30 234.4,30.1 234.9,30.2 235.4,30.3 235.9,30.3 236.4,30.2 237,30.1 237.5,30 238,29.8 238.4,29.6 238.9,29.3 239.3,29 239.7,28.7 240.1,28.3 240.4,27.9 240.7,27.5 241,27 241.2,26.6 241.4,26.1 241.5,25.6 241.6,25 241.7,24.5 241.7,19.5 241.7,39.5" />
<path stroke="#000000" stroke-width="2" d="M 248.3,70" />
<path stroke="#000000" stroke-width="2" d="M 258.3,30 248.3,30 248.3,70" />
<path stroke="#000000" stroke-width="2" d="M 288.3,70" />
<path stroke="#000000" stroke-width="2" d="M 288.3,50 288.3,49.3 288.4,48.6 288.5,47.9 288.7,47.2 288.9,46.6 289.2,46 289.6,45.4 290,44.8 290.4,44.2 290.9,43.8 291.4,43.3 292,42.9 292.6,42.6 293.3,42.3 293.9,42 294.6,41.8 295.3,41.7 296,41.7 296.7,41.7 297.4,41.7 298,41.8 298.7,42 299.4,42.3 300,42.6 300.6,42.9 301.2,43.3 301.7,43.8 302.2,44.2 302.7,44.8 303.1,45.4 303.4,46 303.7,46.6 303.9,47.2 304.1,47.9 304.2,48.6 304.3,49.3 324.3,49.3" />
<path stroke="#000000" stroke-width="2" d="M 331,70" />
<path stroke="#000000" stroke-width="2" d="M 331,50 331,70 336.6,64.3 356.6,64.3" />
<path stroke="#000000" stroke-width="2" d="M 386.6,70" />
<path stroke="#000000" stroke-width="2" d="M 406.6,30 391.3,67" />
<path stroke="#000000" stroke-width="2" d="M 413.3,70" />
<path stroke="#000000" stroke-width="2" d="M 413.3,50 413.5,50 413.5,50.2 413.3,50.2 413.3,50" />
<path stroke="#000000" stroke-width="2" d="M 443.5,70" />
<path stroke="#000000" stroke-width="2" d="M 459.5,30" />
<path stroke="#000000" stroke-width="2" d="M 459.5,30 459.3,34.1 458.7,37.3 457.8,39.8 456.6,41.5 455.3,42.7 453.8,43.2 452.3,43.3 450.9,43 449.5,42.3 448.2,41.2 447.2,40 446.5,38.6 446.2,37.2 446.3,35.7 446.8,34.2 448,32.9 449.7,31.7 452.2,30.8 455.4,30.2 459.5,30 479.5,30" />
<path stroke="#000000" stroke-width="2" d="M 486.2,70" />
<path stroke="#000000" stroke-width="2" d="M 486.2,50 506.2,50" />
<path stroke="#000000" stroke-width="2" d="M 512.8,70" />
<path stroke="#000000" stroke-width="2" d="M 512.8,30 514.6,30 516.3,30.2 518,30.5 519.7,30.9 521.4,31.5 522.9,32.2 524.4,33.1 525.9,34.1 527.2,35.2 528.4,36.5 529.6,37.8 530.6,39.2 531.4,40.7 532.2,42.3 532.8,44 533.2,45.7 533.5,47.4 533.7,49.1 533.7,50.9 533.5,52.6 533.2,54.3 532.8,56 532.2,57.6 531.4,59.2 530.6,60.7 529.6,62.2 528.4,63.5 527.2,64.7 525.9,65.8 524.4,66.8 522.9,67.7 521.4,68.5 519.7,69.1 518,69.5 516.3,69.8 514.6,70" />
<path stroke="#000000" stroke-width="2" d="M 540.3,70" />
<path stroke="#000000" stroke-width="2" d="M 540.3,50 548,68.5 548.4,68.5 548.4,68.9 548,68.9 548,68.5" />
<path stroke="#000000" stroke-width="2" d="M 548,76.5 548.4,76.5 548.4,76.9 548,76.9 548,76.5" />
<path stroke="#000000" stroke-width="2" d="M 578.4,70" />
<path stroke="#000000" stroke-width="2" d="M 578.4,70 578.6,70 578.6,70.2 578.4,70.2 578.4,70" />
<path stroke="#000000" stroke-width="2" d="M 585.3,70" />
<path stroke="#000000" stroke-width="2" d="M 587.3,50 592.6,37.1 592.8,36.7 592.9,36.4 592.9,36.1 593,35.7 593,35.4 593,35 592.9,34.7 592.9,34.3 592.8,34 592.6,33.7 592.5,33.4 592.3,33.1 592.1,32.8 591.8,32.5 591.6,32.3 591.3,32.1 591,31.9 590.7,31.7 590.4,31.6 590,31.5 589.7,31.4 589.3,31.4 589,31.4 588.7,31.4 588.3,31.4 588,31.5 587.6,31.6 587.3,31.7 587,31.9 586.7,32.1 586.4,32.3 586.2,32.5 585.9,32.8 585.7,33.1 585.5,33.4 585.4,33.7 585.2,34 585.1,34.3 585.1,34.7 585,35 585,35.4 585,35.7 585.1,36.1 585.1,36.4 585.2,36.7 585.4,37.1 585.5,37.4 585.7,37.7 585.9,37.9 586.2,38.2 586.4,38.4 586.7,38.7 587,38.8 587.3,39 587.6,39.1 588,39.2 588.3,39.3 588.7,39.4 589,39.4 589.3,39.4 602.3,34 602.3,34.7 602.3,35.4 602.5,36.1 602.6,36.8 602.9,37.4 603.2,38 603.5,38.6 603.9,39.2 604.4,39.8 604.9,40.2 605.4,40.7 606,41.1 606.6,41.4 607.2,41.7 607.9,42 608.5,42.2 609.2,42.3 609.9,42.3 610.6,42.3 611.3,42.3 612,42.2 612.7,42 613.3,41.7 614,41.4 614.6,41.1 615.1,40.7 615.7,40.2 616.2,39.8 616.6,39.2 617,38.6 617.4,38 617.7,37.4 617.9,36.8 618.1,36.1 618.2,35.4 618.3,34.7" />
<path stroke="#000000" stroke-width="2" d="M 624.9,70" />
<path stroke="#000000" stroke-width="2" d="M 624.9,20 632.6,38.5" />
<path stroke="#000000" stroke-width="2" d="M 639.3,70" />
<path stroke="#000000" stroke-width="2" d="M 639.3,20 659.3,20 651.6,38.5" />
<path stroke="#000000" stroke-width="2" d="M 651.6,38.5 653.6,38.4 655.2,38.1 656.5,37.6 657.4,37 657.9,36.4 658.2,35.6 658.3,34.9 658.1,34.2 657.7,33.5 657.2,32.9 656.6,32.4 655.9,32 655.2,31.8 654.4,31.9 653.7,32.1 653,32.7 652.5,33.6 652,34.8 651.7,36.4 651.6,38.5 651.6,53.5" />
<path stroke="#000000" stroke-width="2" d="M 689.3,70" />
<path stroke="#000000" stroke-width="2" d="M 699.3,30 698.4,30 697.5,30.1 696.7,30.2 695.8,30.5 695,30.8 694.2,31.1 693.4,31.6 692.7,32.1 692.1,32.6 691.4,33.2 690.9,33.9 690.4,34.6 689.9,35.4 689.6,36.2 689.3,37 689.1,37.8 688.9,38.7 688.8,39.6 688.8,40.4 688.9,41.3 689.1,42.2 689.3,43 689.6,43.8 689.9,44.6 690.4,45.4 690.9,46.1 691.4,46.7 692.1,47.4 692.7,47.9 693.4,48.4 694.2,48.9 695,49.2 695.8,49.5 696.7,49.8 697.5,49.9 698.4,50 703.4,50 703.4,70" />
<path stroke="#000000" stroke-width="2" d="M 733.4,70" />
<path stroke="#000000" stroke-width="2" d="M 749.4,30 729.6,49.8 749.4,69.6" />
<path stroke="#000000" stroke-width="2" d="M 756.1,70" />
<path stroke="#000000" stroke-width="2" d="M 756.1,20 756.1,40 756.1,34 756.1,33.1 756.1,32.3 756.3,31.4 756.5,30.6 756.8,29.7 757.2,28.9 757.6,28.2 758.1,27.5 758.7,26.8 759.3,26.2 760,25.6 760.7,25.1 761.4,24.7 762.2,24.3 763,24 763.9,23.8 764.7,23.6 765.6,23.6 773.3,42.1" />
<path stroke="#000000" stroke-width="2" d="M 779.9,70" />
<path stroke="#000000" stroke-width="2" d="M 779.9,50 799.9,50" />
<path stroke="#000000" stroke-width="2" d="M 806.6,70" />
<path stroke="#000000" stroke-width="2" d="M 806.6,30 806.8,30 806.8,30.2 806.6,30.2 806.6,30" />
<path stroke="#000000" stroke-width="2" d="M 836.8,70" />
<path stroke="#000000" stroke-width="2" d="M 836.8,70 837,70 837,70.2 836.8,70.2 836.8,70" />
<path stroke="#000000" stroke-width="2" d="M 867,70" />
<path stroke="#000000" stroke-width="2" d="M 867,30 870.8,39.2" />
<path stroke="#000000" stroke-width="2" d="M 870.8,39.2 872.7,41.4 874.1,43.3 874.8,45 875.1,46.4 875,47.7 874.6,48.7 873.9,49.5 873,50 871.9,50.4 870.8,50.5 869.7,50.4 868.7,50 867.7,49.5 867,48.7 866.6,47.7 866.5,46.4 866.8,45 867.6,43.3 868.9,41.4 870.8,39.2 874.6,30" />
<path stroke="#000000" stroke-width="2" d="M 874.6,30 876.7,29.9 878.3,29.6 879.5,29.1 880.4,28.6 881,27.9 881.3,27.2 881.3,26.4 881.1,25.7 880.8,25 880.3,24.4 879.7,23.9 879,23.5 878.2,23.3 877.5,23.4 876.8,23.7 876.1,24.2 875.5,25.1 875.1,26.4 874.8,28 874.6,30 874.6,45" />
<path stroke="#000000" stroke-width="2" d="M 888,70" />
<path stroke="#000000" stroke-width="2" d="M 888,30 908,30 908,34 908,34.5 908,35 908.1,35.6 908.2,36.1 908.4,36.6 908.6,37 908.9,37.5 909.2,37.9 909.5,38.3 909.9,38.7 910.3,39 910.7,39.3 911.2,39.6 911.7,39.8 912.2,40 912.7,40.1 913.2,40.2 913.7,40.3 914.2,40.3 914.7,40.2 915.3,40.1 915.8,40 916.3,39.8 916.7,39.6 917.2,39.3 917.6,39 918,38.7 918.4,38.3 918.7,37.9 919,37.5 919.3,37 919.5,36.6 919.7,36.1 919.8,35.6 919.9,35 920,34.5 920,29.5 920,49.5" />
<path stroke="#000000" stroke-width="2" d="M 950,70" />
<path stroke="#000000" stroke-width="2" d="M 950,70 950.2,70 950.2,70.2 950,70.2 950,70" />
<path stroke="#000000" stroke-width="2" d="M 956.8,70" />
<path stroke="#000000" stroke-width="2" d="M 956.8,30 972.1,67" />
<path stroke="#000000" stroke-width="2" d="M 978.8,70" />
<path stroke="#000000" stroke-width="2" d="M 978.8,20 978.8,24 978.8,24.5 978.8,25 978.9,25.6 979.1,26.1 979.2,26.6 979.5,27 979.7,27.5 980,27.9 980.4,28.3 980.7,28.7 981.1,29 981.6,29.3 982,29.6 982.5,29.8 983,30 983.5,30.1 984,30.2 984.5,30.3 985.1,30.3 985.6,30.2 986.1,30.1 986.6,30 987.1,29.8 987.6,29.6 988,29.3 988.4,29 988.8,28.7 989.2,28.3 989.5,27.9 989.9,27.5 990.1,27 990.3,26.6 990.5,26.1 990.6,25.6 990.7,25 990.8,24.5 990.8,19.5 990.8,39.5" />
<path stroke="#000000" stroke-width="2" d="M 997.5,70" />
<path stroke="#000000" stroke-width="2" d="M 1007.5,30 997.5,30 997.5,70" />
<path stroke="#000000" stroke-width="2" d="M 1037.5,70" />
<path stroke="#000000" stroke-width="2" d="M 1047.5,30 1046.6,30 1045.7,30.1 1044.9,30.2 1044,30.5 1043.2,30.8 1042.4,31.1 1041.6,31.6 1040.9,32.1 1040.3,32.6 1039.6,33.2 1039.1,33.9 1038.6,34.6 1038.1,35.4 1037.8,36.2 1037.5,37 1037.3,37.8 1037.1,38.7 1037,39.6 1037,40.4 1037.1,41.3 1037.3,42.2 1037.5,43 1037.8,43.8 1038.1,44.6 1038.6,45.4 1039.1,46.1 1039.6,46.7 1040.3,47.4 1040.9,47.9 1041.6,48.4 1042.4,48.9 1043.2,49.2 1044,49.5 1044.9,49.8 1045.7,49.9 1046.6,50 1051.6,50 1051.6,70" />
<path stroke="#000000" stroke-width="2" d="M 1081.6,70" />
</svg>