<svg xmlns="http://www.w3.org/2000/svg" width="1115.233724859158" height="108.47759065022574" style="fill:none; stroke-linecap:round;">
    <rect width="100%" height="100%" fill="#FFFFFF" />
<path stroke="#000000" stroke-width="2" d="M 550,75" />
<path stroke="#000000" stroke-width="2" d="M 40,30 24.7,67" />
<path stroke="#000000" stroke-width="2" d="M 46.7,70" />
<path stroke="#000000" stroke-width="2" d="M 46.7,56 46.7,56.5 46.7,57 46.8,57.6 46.9,58.1 47.1,58.6 47.3,59 47.6,59.5 47.9,59.9 48.2,60.3 48.6,60.7 49,61 49.4,61.3 49.9,61.6 50.4,61.8 50.9,62 51.4,62.1 51.9,62.2 52.4,62.3 52.9,62.3 53.4,62.2 54,62.1 54.5,62 55,61.8 55.4,61.6 55.9,61.3 56.3,61 56.7,60.7 57.1,60.3 57.4,59.9 57.7,59.5 58,59 58.2,58.6 58.4,58.1 58.5,57.6 58.6,57 58.7,56.5 58.7,56 58.6,55.5 58.5,55 58.4,54.5 58.2,54 58,53.5 57.7,53 57.4,52.6 57.1,52.2 56.7,51.8 56.3,51.5 55.9,51.2 55.4,50.9 55,50.7 54.5,50.5 54,50.4 53.4,50.3 52.9,50.3 52.4,50.3 51.9,50.3 51.4,50.4 50.9,50.5 50.4,50.7 49.9,50.9 49.4,51.2 49,51.5 48.6,51.8 48.2,52.2 47.9,52.6 47.6,53 47.3,53.5 47.1,54 46.9,54.5 46.8,55 46.7,55.5 46.7,56 46.7,60" />
<path stroke="#000000" stroke-width="2" d="M 46.7,60 47,60.9 47.3,61.7 47.7,62.4 48.1,63.1 48.5,63.8 49,64.4 49.4,64.9 49.9,65.4 50.4,65.9 50.9,66.2 51.4,66.6 52,66.9 52.6,67.2 53.1,67.4 53.7,67.6 54.3,67.7 54.9,67.9 55.5,67.9 56.1,68 56.7,68" />
<path stroke="#000000" stroke-width="2" d="M 88.7,70" />
<path stroke="#000000" stroke-width="2" d="M 88.7,30 88.7,70 108.7,70" />
<path stroke="#000000" stroke-width="2" d="M 138.7,70" />
<path stroke="#000000" stroke-width="2" d="M 138.7,30 138.7,70 150,58.7" />
<path stroke="#000000" stroke-width="2" d="M 156.6,70" />
<path stroke="#000000" stroke-width="2" d="M 156.6,20 176.6,20 156.8,39.8 176.8,39.8" />
<path stroke="#000000" stroke-width="2" d="M 206.8,70" />
<path stroke="#000000" stroke-width="2" d="M 206.8,35" />
<path stroke="#000000" stroke-width="2" d="M 206.8,35 208.9,34.9 210.5,34.6 211.7,34.1 212.6,33.6 213.2,32.9 213.5,32.2 213.5,31.4 213.3,30.7 213,30 212.5,29.4 211.8,28.9 211.2,28.5 210.4,28.3 209.7,28.4 208.9,28.7 208.3,29.2 207.7,30.1 207.2,31.4 206.9,33 206.8,35 206.8,50 199.2,68.5" />
<path stroke="#000000" stroke-width="2" d="M 220.2,70" />
<path stroke="#000000" stroke-width="2" d="M 220.2,30 220.2,31.4 220.3,32.8 220.5,34.2 220.9,35.5 221.4,36.8 222,38.1 222.6,39.3 223.4,40.4 224.3,41.5 225.3,42.5 226.4,43.4 227.5,44.2 228.8,44.9 230,45.5 231.3,46 232.7,46.3 234.1,46.6 235.4,46.7 236.8,46.7 238.2,46.6 239.6,46.3 241,46 242.3,45.5 243.5,44.9 244.7,44.2 245.9,43.4 247,42.5 247.9,41.5 248.8,40.4 249.6,39.3 250.3,38.1 250.9,36.8 251.4,35.5 251.8,34.2 252,32.8 252.1,31.4" />
<path stroke="#000000" stroke-width="2" d="M 282.1,70" />
<path stroke="#000000" stroke-width="2" d="M 282.1,70 297.4,33 297.4,34.4 297.6,35.8 297.8,37.2 298.2,38.6 298.6,39.9 299.2,41.1 299.9,42.3 300.7,43.5 301.6,44.6 302.6,45.5 303.7,46.4 304.8,47.2 306,47.9 307.3,48.5 308.6,49 310,49.4 311.3,49.6 312.7,49.7 314.1,49.7 315.5,49.6 316.9,49.4 318.2,49 319.5,48.5 320.8,47.9 322,47.2 323.2,46.4 324.2,45.5 325.2,44.6 326.1,43.5 326.9,42.3 327.6,41.1 328.2,39.9 328.7,38.6 329,37.2 329.3,35.8 329.4,34.4" />
<path stroke="#000000" stroke-width="2" d="M 336.1,70" />
<path stroke="#000000" stroke-width="2" d="M 336.1,30 351.4,67 366.7,30" />
<path stroke="#000000" stroke-width="2" d="M 396.7,70" />
<path stroke="#000000" stroke-width="2" d="M 396.7,30 416.7,30 417.6,30 418.4,30.1 419.3,30.2 420.1,30.5 420.9,30.8 421.7,31.1 422.5,31.6 423.2,32.1 423.9,32.6 424.5,33.2 425.1,33.9 425.6,34.6 426,35.4 426.4,36.2 426.7,37 426.9,37.8 427,38.7 427.1,39.6 427.1,40.4 427,41.3 426.9,42.2 426.7,43 426.4,43.8 426,44.6 425.6,45.4 425.1,46.1 424.5,46.7 423.9,47.4 423.2,47.9 422.5,48.4 421.7,48.9 420.9,49.2 420.1,49.5 419.3,49.8 418.4,49.9 417.6,50" />
<path stroke="#000000" stroke-width="2" d="M 457.1,70" />
<path stroke="#000000" stroke-width="2" d="M 457.1,30 457.1,50 467.1,50 459.5,68.5" />
<path stroke="#000000" stroke-width="2" d="M 497.1,70" />
<path stroke="#000000" stroke-width="2" d="M 497.1,30 497.1,70 508.4,58.7" />
<path stroke="#000000" stroke-width="2" d="M 515.1,70" />
<path stroke="#000000" stroke-width="2" d="M 515.1,25" />
<path stroke="#000000" stroke-width="2" d="M 515.1,25 517.1,24.9 518.7,24.6 520,24.1 520.9,23.6 521.4,22.9 521.7,22.2 521.7,21.4 521.6,20.7 521.2,20 520.7,19.4 520.1,18.9 519.4,18.5 518.7,18.3 517.9,18.4 517.2,18.7 516.5,19.2 516,20.1 515.5,21.4 515.2,23 515.1,25 515.1,40" />
<path stroke="#000000" stroke-width="2" d="M 551.7,70" />
<path stroke="#000000" stroke-width="2" d="M 571.7,30 571.7,70 551.7,70" />
<path stroke="#000000" stroke-width="2" d="M 578.4,70" />
<path stroke="#000000" stroke-width="2" d="M 578.4,55" />
<path stroke="#000000" stroke-width="2" d="M 578.4,55 580.4,54.9 582.1,54.6 583.3,54.1 584.2,53.6 584.7,52.9 585,52.2 585.1,51.4 584.9,50.7 584.5,50 584,49.4 583.4,48.9 582.7,48.5 582,48.3 581.2,48.4 580.5,48.7 579.9,49.2 579.3,50.1 578.8,51.4 578.5,53 578.4,55 578.4,70 570.8,88.5" />
<path stroke="#000000" stroke-width="2" d="M 615.1,70" />
<path stroke="#000000" stroke-width="2" d="M 615.1,40 615.3,40 615.3,40.2 615.1,40.2 615.1,40" />
<path stroke="#000000" stroke-width="2" d="M 621.9,70" />
<path stroke="#000000" stroke-width="2" d="M 621.9,30 623.7,30 625.4,30.2 627.1,30.5 628.8,30.9 630.5,31.5 632,32.2 633.6,33.1 635,34.1 636.3,35.2 637.6,36.5 638.7,37.8 639.7,39.2 640.5,40.7 641.3,42.3 641.9,44 642.3,45.7 642.6,47.4 642.8,49.1 642.8,50.9 642.6,52.6 642.3,54.3 641.9,56 641.3,57.6 640.5,59.2 639.7,60.7 638.7,62.2 637.6,63.5 636.3,64.7 635,65.8 633.6,66.8 632,67.7 630.5,68.5 628.8,69.1 627.1,69.5 625.4,69.8 623.7,70 623.7,68.2 623.8,66.5 624.1,64.8 624.6,63.1 625.2,61.4 625.9,59.9 626.8,58.3 627.8,56.9 628.9,55.6 630.1,54.3 631.5,53.2 632.9,52.2 634.4,51.3 636,50.6 637.6,50 639.3,49.6 641,49.3 642.8,49.1" />
<path stroke="#000000" stroke-width="2" d="M 649.5,70" />
<path stroke="#000000" stroke-width="2" d="M 649.5,30 664.8,67" />
<path stroke="#000000" stroke-width="2" d="M 694.8,70" />
<path stroke="#000000" stroke-width="2" d="M 694.8,70" />
<path stroke="#000000" stroke-width="2" d="M 694.8,70 695.9,70 696.9,70.2 697.7,70.4 698.4,70.7 699,71 699.4,71.5 699.7,71.9 699.9,72.5 700,73.1 700,73.8 699.9,74.4 699.7,75.2 699.3,76 698.9,76.8 698.4,77.6 697.8,78.4 697.2,79.3 696.4,80.2 695.6,81.1 694.8,82" />
<path stroke="#000000" stroke-width="2" d="M 730,70" />
<path stroke="#000000" stroke-width="2" d="M 730,30 730,70" />
<path stroke="#000000" stroke-width="2" d="M 736.7,70" />
<path stroke="#000000" stroke-width="2" d="M 746.7,50 739,68.5" />
<path stroke="#000000" stroke-width="2" d="M 776.7,70" />
<path stroke="#000000" stroke-width="2" d="M 776.7,30 776.7,70 796.7,70" />
<path stroke="#000000" stroke-width="2" d="M 826.7,70" />
<path stroke="#000000" stroke-width="2" d="M 826.7,30 866.7,30" />
<path stroke="#000000" stroke-width="2" d="M 873.4,70" />
<path stroke="#000000" stroke-width="2" d="M 873.4,50 873.6,50 873.6,50.2 873.4,50.2 873.4,50" />
<path stroke="#000000" stroke-width="2" d="M 903.6,70" />
<path stroke="#000000" stroke-width="2" d="M 903.6,30 903.6,70 923.6,70" />
<path stroke="#000000" stroke-width="2" d="M 953.6,70" />
<path stroke="#000000" stroke-width="2" d="M 969.6,30 949.8,49.8 969.6,69.6" />
<path stroke="#000000" stroke-width="2" d="M 976.2,70" />
<path stroke="#000000" stroke-width="2" d="M 976.2,20 977.1,20 978,20.1 978.8,20.2 979.7,20.5 980.5,20.8 981.3,21.1 982,21.6 982.8,22.1 983.4,22.6 984,23.2 984.6,23.9 985.1,24.6 985.5,25.4 985.9,26.2 986.2,27 986.4,27.8 986.6,28.7 986.7,29.6 986.7,30.4 986.6,31.3 986.4,32.2 986.2,33 985.9,33.8 985.5,34.6 985.1,35.4 984.6,36.1 984,36.7 983.4,37.4 982.8,37.9 982,38.4 981.3,38.9 980.5,39.2 979.7,39.5 978.8,39.8 978,39.9 977.1,40" />
<path stroke="#000000" stroke-width="2" d="M 1016.7,70" />
<path stroke="#000000" stroke-width="2" d="M 1016.7,30 1018.4,30 1020.1,30.2 1021.9,30.5 1023.5,30.9 1025.2,31.5 1026.8,32.2 1028.3,33.1 1029.7,34.1 1031,35.2 1032.3,36.5 1033.4,37.8 1034.4,39.2 1035.3,40.7 1036,42.3 1036.6,44 1037.1,45.7 1037.4,47.4 1037.5,49.1 1037.5,50.9 1037.4,52.6 1037.1,54.3 1036.6,56 1036,57.6 1035.3,59.2 1034.4,60.7 1033.4,62.2 1032.3,63.5 1031,64.7 1029.7,65.8 1028.3,66.8 1026.8,67.7 1025.2,68.5 1023.5,69.1 1021.9,69.5 1020.1,69.8 1018.4,70" />
<path stroke="#000000" stroke-width="2" d="M 1044.2,70" />
<path stroke="#000000" stroke-width="2" d="M 1044.2,30 1045.9,30 1047.7,30.2 1049.4,30.5 1051.1,30.9 1052.7,31.5 1054.3,32.2 1055.8,33.1 1057.2,34.1 1058.6,35.2 1059.8,36.5 1060.9,37.8 1061.9,39.2 1062.8,40.7 1063.5,42.3 1064.1,44 1064.6,45.7 1064.9,47.4 1065,49.1 1065,50.9 1064.9,52.6 1064.6,54.3 1064.1,56 1063.5,57.6 1062.8,59.2 1061.9,60.7 1060.9,62.2 1059.8,63.5 1058.6,64.7 1057.2,65.8 1055.8,66.8 1054.3,67.7 1052.7,68.5 1051.1,69.1 1049.4,69.5 1047.7,69.8 1045.9,70" />
<path stroke="#000000" stroke-width="2" d="M 1095,70" />
<path stroke="#000000" stroke-width="2" d="M 1095,70 1095.2,70 1095.2,70.2 1095,70.2 1095,70" />
<path stroke="#000000" stroke-width="2" d="M 1125.2,70" />
</svg>