<svg xmlns="http://www.w3.org/2000/svg" width="1338.5459244455303" height="98.34134087157756" style="fill:none; stroke-linecap:round;">
    <rect width="100%" height="100%" fill="#FFFFFF" />
<path stroke="#000000" stroke-width="2" d="M 550,75" />
<path stroke="#000000" stroke-width="2" d="M 25,30" />
<path stroke="#000000" stroke-width="2" d="M 25,30 23.6,30.1 22.3,30.6 21.2,31.2 20.2,32.1 19.4,33.1 18.7,34.3 18.2,35.6 17.8,37 17.6,38.5 17.5,40 17.6,41.5 17.8,43 18.2,44.4 18.7,45.7 19.4,46.9 20.2,47.9 21.2,48.8 22.3,49.4 23.6,49.9 25,50 30,50 30,70" />
<path stroke="#000000" stroke-width="2" d="M 60,70" />
<path stroke="#000000" stroke-width="2" d="M 60,70 60.2,70 60.2,70.2 60,70.2 60,70" />
<path stroke="#000000" stroke-width="2" d="M 66.9,70" />
<path stroke="#000000" stroke-width="2" d="M 71.9,30" />
<path stroke="#000000" stroke-width="2" d="M 71.9,30 70.4,30.1 69.2,30.6 68,31.2 67.1,32.1 66.2,33.1 65.6,34.3 65,35.6 64.7,37 64.4,38.5 64.4,40 64.4,41.5 64.7,43 65,44.4 65.6,45.7 66.2,46.9 67.1,47.9 68,48.8 69.2,49.4 70.4,49.9 71.9,50 71.9,70 71.9,64 71.9,63.1 71.9,62.3 72.1,61.4 72.3,60.6 72.6,59.7 73,58.9 73.4,58.2 73.9,57.5 74.5,56.8 75.1,56.2 75.8,55.6 76.5,55.1 77.2,54.7 78,54.3 78.9,54 79.7,53.8 80.6,53.6 81.4,53.6" />
<path stroke="#000000" stroke-width="2" d="M 81.4,53.6 82.8,53.7 84.1,54.1 85.2,54.8 86.2,55.7 87,56.7 87.7,57.9 88.2,59.2 88.6,60.6 88.8,62.1 88.9,63.6 88.8,65.1 88.6,66.5 88.2,67.9 87.7,69.3 87,70.4 86.2,71.5 85.2,72.4 84.1,73 82.8,73.4 81.4,73.6" />
<path stroke="#000000" stroke-width="2" d="M 95.6,70" />
<path stroke="#000000" stroke-width="2" d="M 95.6,30 135.6,30" />
<path stroke="#000000" stroke-width="2" d="M 142.3,70" />
<path stroke="#000000" stroke-width="2" d="M 142.3,20 142.3,40 142.3,34 142.3,33.1 142.3,32.3 142.5,31.4 142.7,30.6 143,29.7 143.4,28.9 143.8,28.2 144.3,27.5 144.9,26.8 145.5,26.2 146.2,25.6 146.9,25.1 147.6,24.7 148.4,24.3 149.2,24 150.1,23.8 150.9,23.6 151.8,23.6" />
<path stroke="#000000" stroke-width="2" d="M 158.5,70" />
<path stroke="#000000" stroke-width="2" d="M 158.5,30 158.7,30 158.7,30.2 158.5,30.2 158.5,30" />
<path stroke="#000000" stroke-width="2" d="M 188.7,70" />
<path stroke="#000000" stroke-width="2" d="M 188.7,70 188.9,70 188.9,70.2 188.7,70.2 188.7,70" />
<path stroke="#000000" stroke-width="2" d="M 218.9,70" />
<path stroke="#000000" stroke-width="2" d="M 218.9,50 218.9,49.3 218.9,48.6 219.1,47.9 219.2,47.2 219.5,46.6 219.8,46 220.1,45.4 220.5,44.8 221,44.2 221.5,43.8 222,43.3 222.6,42.9 223.2,42.6 223.8,42.3 224.5,42 225.1,41.8 225.8,41.7 226.5,41.7 227.2,41.7 227.9,41.7 228.6,41.8 229.3,42 229.9,42.3 230.6,42.6 231.2,42.9 231.7,43.3 232.3,43.8 232.8,44.2 233.2,44.8 233.6,45.4 234,46 234.3,46.6 234.5,47.2 234.7,47.9 234.8,48.6 234.9,49.3" />
<path stroke="#000000" stroke-width="2" d="M 234.9,45.3" />
<path stroke="#000000" stroke-width="2" d="M 228.9,45.3 238.9,45.3 231.2,63.8 233.5,58.2 233.8,57.4 234.2,56.7 234.7,55.9 235.2,55.2 235.8,54.6 236.5,54 237.2,53.5 237.9,53 238.7,52.6 239.5,52.3 240.3,52 241.2,51.8" />
<path stroke="#000000" stroke-width="2" d="M 247.8,70" />
<path stroke="#000000" stroke-width="2" d="M 247.8,20 247.8,40 247.8,34 247.8,33.1 247.9,32.3 248.1,31.4 248.3,30.6 248.6,29.7 248.9,28.9 249.4,28.2 249.9,27.5 250.4,26.8 251.1,26.2 251.7,25.6 252.4,25.1 253.2,24.7 254,24.3 254.8,24 255.7,23.8 256.5,23.6 257.4,23.6" />
<path stroke="#000000" stroke-width="2" d="M 264.1,70" />
<path stroke="#000000" stroke-width="2" d="M 264.1,30 264.3,30 264.3,30.2 264.1,30.2 264.1,30" />
<path stroke="#000000" stroke-width="2" d="M 294.3,70" />
<path stroke="#000000" stroke-width="2" d="M 314.3,30 298.9,67" />
<path stroke="#000000" stroke-width="2" d="M 320.9,70" />
<path stroke="#000000" stroke-width="2" d="M 320.9,50 321.1,50 321.1,50.2 320.9,50.2 320.9,50" />
<path stroke="#000000" stroke-width="2" d="M 351.1,70" />
<path stroke="#000000" stroke-width="2" d="M 351.1,70 351.3,70 351.3,70.2 351.1,70.2 351.1,70" />
<path stroke="#000000" stroke-width="2" d="M 358,70" />
<path stroke="#000000" stroke-width="2" d="M 363,30" />
<path stroke="#000000" stroke-width="2" d="M 363,30 361.6,30.1 360.3,30.6 359.2,31.2 358.2,32.1 357.4,33.1 356.7,34.3 356.2,35.6 355.8,37 355.6,38.5 355.5,40 355.6,41.5 355.8,43 356.2,44.4 356.7,45.7 357.4,46.9 358.2,47.9 359.2,48.8 360.3,49.4 361.6,49.9 363,50" />
<path stroke="#000000" stroke-width="2" d="M 363,40" />
<path stroke="#000000" stroke-width="2" d="M 347,40 367,40 367,60 372.6,54.3" />
<path stroke="#000000" stroke-width="2" d="M 379.3,70" />
<path stroke="#000000" stroke-width="2" d="M 379.3,20 379.3,20.7 379.4,21.4 379.5,22.1 379.7,22.8 379.9,23.4 380.2,24 380.6,24.6 381,25.2 381.4,25.8 381.9,26.2 382.4,26.7 383,27.1 383.6,27.4 384.2,27.7 384.9,28 385.6,28.2 386.3,28.3 387,28.3 387.6,28.3 388.3,28.3 389,28.2 389.7,28 390.4,27.7 391,27.4 391.6,27.1 392.2,26.7 392.7,26.2 393.2,25.8 393.6,25.2 394,24.6 394.4,24 394.7,23.4 394.9,22.8 395.1,22.1 395.2,21.4 395.3,20.7 402.9,39.2" />
<path stroke="#000000" stroke-width="2" d="M 402.9,39.2 400.9,39.1 399.3,38.8 398.1,38.3 397.2,37.7 396.6,37.1 396.3,36.3 396.3,35.6 396.5,34.9 396.8,34.2 397.3,33.6 397.9,33 398.6,32.7 399.4,32.5 400.1,32.6 400.8,32.8 401.5,33.4 402.1,34.3 402.5,35.5 402.8,37.1 402.9,39.2 402.9,43.2" />
<path stroke="#000000" stroke-width="2" d="M 402.9,43.2 402.6,44 402.3,44.9 401.9,45.6 401.5,46.3 401.1,47 400.7,47.5 400.2,48.1 399.7,48.6 399.2,49 398.7,49.4 398.2,49.8 397.6,50.1 397.1,50.4 396.5,50.6 395.9,50.8 395.3,50.9 394.7,51 394.1,51.1 393.5,51.2 392.9,51.2" />
<path stroke="#000000" stroke-width="2" d="M 432.9,70" />
<path stroke="#000000" stroke-width="2" d="M 432.9,30 448.3,67" />
<path stroke="#000000" stroke-width="2" d="M 454.9,70" />
<path stroke="#000000" stroke-width="2" d="M 464.9,20 464.9,40 454.9,40" />
<path stroke="#000000" stroke-width="2" d="M 471.6,70" />
<path stroke="#000000" stroke-width="2" d="M 471.6,50 471.6,70 471.6,64 471.6,63.1 471.7,62.3 471.8,61.4 472,60.6 472.3,59.7 472.7,58.9 473.1,58.2 473.6,57.5 474.2,56.8 474.8,56.2 475.5,55.6 476.2,55.1 477,54.7 477.8,54.3 478.6,54 479.4,53.8 480.3,53.6 481.1,53.6" />
<path stroke="#000000" stroke-width="2" d="M 487.8,70" />
<path stroke="#000000" stroke-width="2" d="M 507.8,30 492.5,67" />
<path stroke="#000000" stroke-width="2" d="M 514.5,70" />
<path stroke="#000000" stroke-width="2" d="M 514.5,30 514.7,30 514.7,30.2 514.5,30.2 514.5,30" />
<path stroke="#000000" stroke-width="2" d="M 544.7,70" />
<path stroke="#000000" stroke-width="2" d="M 549.7,30" />
<path stroke="#000000" stroke-width="2" d="M 549.7,30 548.2,30.1 547,30.6 545.8,31.2 544.9,32.1 544,33.1 543.4,34.3 542.8,35.6 542.5,37 542.2,38.5 542.2,40 542.2,41.5 542.5,43 542.8,44.4 543.4,45.7 544,46.9 544.9,47.9 545.8,48.8 547,49.4 548.2,49.9 549.7,50 554.7,50 554.7,70" />
<path stroke="#000000" stroke-width="2" d="M 584.7,70" />
<path stroke="#000000" stroke-width="2" d="M 584.7,30" />
<path stroke="#000000" stroke-width="2" d="M 584.7,30 587.5,30.3 590.1,31.1 592.3,32.4 594.3,34.2 595.9,36.2 597.3,38.6 598.3,41.3 599.1,44.1 599.5,47 599.7,50 599.5,53 599.1,55.9 598.3,58.7 597.3,61.4 595.9,63.8 594.3,65.8 592.3,67.6 590.1,68.9 587.5,69.7 584.7,70 585.9,68.8 587.2,67.6 588.7,66.6 590.2,65.8 591.8,65 593.4,64.4 595.1,64 596.8,63.7 598.5,63.5 600.3,63.5 602,63.7 603.7,64 605.4,64.4 607.1,65 608.7,65.8" />
<path stroke="#000000" stroke-width="2" d="M 615.3,70" />
<path stroke="#000000" stroke-width="2" d="M 615.3,20 623,38.5" />
<path stroke="#000000" stroke-width="2" d="M 623,38.5 625,38.4 626.6,38.1 627.9,37.6 628.7,37 629.3,36.4 629.6,35.6 629.6,34.9 629.5,34.2 629.1,33.5 628.6,32.9 628,32.4 627.3,32 626.6,31.8 625.8,31.9 625.1,32.1 624.4,32.7 623.8,33.6 623.4,34.8 623.1,36.4 623,38.5 623,53.5" />
<path stroke="#000000" stroke-width="2" d="M 659.6,70" />
<path stroke="#000000" stroke-width="2" d="M 669.6,50 670.5,50 671.4,49.9 672.2,49.8 673.1,49.5 673.9,49.2 674.7,48.9 675.4,48.4 676.2,47.9 676.8,47.4 677.4,46.8 678,46.1 678.5,45.4 678.9,44.6 679.3,43.8 679.6,43 679.8,42.2 680,41.3 680.1,40.4 680.1,39.6 680,38.7 679.8,37.8 679.6,37 679.3,36.2 678.9,35.4 678.5,34.6 678,33.9 677.4,33.3 676.8,32.6 676.2,32.1 675.4,31.6 674.7,31.1 673.9,30.8 673.1,30.5 672.2,30.2 671.4,30.1 670.5,30 669.6,30 668.8,30.1 667.9,30.2 667.1,30.5 666.2,30.8 665.4,31.1 664.7,31.6 664,32.1 663.3,32.6 662.7,33.3 662.1,33.9 661.6,34.6 661.2,35.4 660.8,36.2 660.5,37 660.3,37.8 660.2,38.7 660.1,39.6 660.1,40.4 660.2,41.3 660.3,42.2 660.5,43 660.8,43.8 661.2,44.6 661.6,45.4 662.1,46.1 662.7,46.8 663.3,47.4 664,47.9 664.7,48.4 665.4,48.9 666.2,49.2 667.1,49.5 667.9,49.8 668.8,49.9 669.6,50 669.6,70 669.6,64 669.6,63.1 669.7,62.3 669.9,61.4 670.1,60.6 670.4,59.7 670.7,58.9 671.2,58.2 671.7,57.5 672.2,56.8 672.9,56.2 673.5,55.6 674.2,55.1 675,54.7 675.8,54.3 676.6,54 677.5,53.8 678.3,53.6 679.2,53.6" />
<path stroke="#000000" stroke-width="2" d="M 710.1,70" />
<path stroke="#000000" stroke-width="2" d="M 710.1,30 710.1,70 721.4,58.7" />
<path stroke="#000000" stroke-width="2" d="M 728,70" />
<path stroke="#000000" stroke-width="2" d="M 728,25" />
<path stroke="#000000" stroke-width="2" d="M 728,25 730.1,24.9 731.7,24.6 732.9,24.1 733.8,23.6 734.4,22.9 734.7,22.2 734.7,21.4 734.5,20.7 734.2,20 733.7,19.4 733,18.9 732.4,18.5 731.6,18.3 730.9,18.4 730.1,18.7 729.5,19.2 728.9,20.1 728.4,21.4 728.1,23 728,25 728,40" />
<path stroke="#000000" stroke-width="2" d="M 764.7,70" />
<path stroke="#000000" stroke-width="2" d="M 764.7,30 804.7,30" />
<path stroke="#000000" stroke-width="2" d="M 811.4,70" />
<path stroke="#000000" stroke-width="2" d="M 811.4,50 811.4,70 811.4,70.7 811.4,71.4 811.5,72.1 811.7,72.8 812,73.4 812.3,74 812.6,74.6 813,75.2 813.5,75.8 813.9,76.2 814.5,76.7 815.1,77.1 815.7,77.4 816.3,77.7 816.9,78 817.6,78.2 818.3,78.3 819,78.3 819.7,78.3 820.4,78.3 821.1,78.2 821.8,78 822.4,77.7 823,77.4 823.6,77.1 824.2,76.7 824.8,76.2 825.2,75.8 825.7,75.2 826.1,74.6 826.4,74 826.7,73.4 827,72.8 827.2,72.1 827.3,71.4 827.3,70.7" />
<path stroke="#000000" stroke-width="2" d="M 834,70" />
<path stroke="#000000" stroke-width="2" d="M 834,50 834,70 834,64 834,63.1 834.1,62.3 834.2,61.4 834.5,60.6 834.8,59.7 835.1,58.9 835.6,58.2 836.1,57.5 836.6,56.8 837.2,56.2 837.9,55.6 838.6,55.1 839.4,54.7 840.2,54.3 841,54 841.8,53.8 842.7,53.6 843.6,53.6" />
<path stroke="#000000" stroke-width="2" d="M 873.6,70" />
<path stroke="#000000" stroke-width="2" d="M 873.6,30 873.6,70" />
<path stroke="#000000" stroke-width="2" d="M 880.2,70" />
<path stroke="#000000" stroke-width="2" d="M 880.2,40 880.2,39.3 880.3,38.6 880.4,37.9 880.6,37.2 880.8,36.6 881.1,36 881.5,35.4 881.9,34.8 882.3,34.2 882.8,33.8 883.4,33.3 883.9,32.9 884.5,32.6 885.2,32.3 885.8,32 886.5,31.8 887.2,31.7 887.9,31.7 888.6,31.7 889.3,31.7 890,31.8 890.6,32 891.3,32.3 891.9,32.6 892.5,32.9 893.1,33.3 893.6,33.8 894.1,34.2 894.6,34.8 895,35.4 895.3,36 895.6,36.6 895.9,37.2 896,37.9 896.2,38.6 896.2,39.3" />
<path stroke="#000000" stroke-width="2" d="M 896.2,39.3 897.6,39.4 898.9,39.9 900,40.5 901,41.4 901.8,42.4 902.5,43.6 903,44.9 903.4,46.3 903.6,47.8 903.7,49.3 903.6,50.8 903.4,52.3 903,53.7 902.5,55 901.8,56.2 901,57.2 900,58.1 898.9,58.7 897.6,59.2 896.2,59.3 896.8,58.7 897.5,58.1 898.2,57.6 899,57.2 899.8,56.8 900.6,56.5 901.4,56.3 902.3,56.1 903.2,56.1 904,56.1 904.9,56.1 905.8,56.3 906.6,56.5 907.4,56.8 908.2,57.2" />
<path stroke="#000000" stroke-width="2" d="M 914.9,70" />
<path stroke="#000000" stroke-width="2" d="M 922.9,50" />
<path stroke="#000000" stroke-width="2" d="M 922.9,50 922.8,52 922.5,53.6 922,54.9 921.4,55.8 920.8,56.3 920,56.6 919.3,56.7 918.6,56.5 917.9,56.1 917.2,55.6 916.7,55 916.4,54.3 916.2,53.6 916.3,52.8 916.5,52.1 917.1,51.4 918,50.9 919.2,50.4 920.8,50.1 922.9,50 932.9,50" />
<path stroke="#000000" stroke-width="2" d="M 962.9,70" />
<path stroke="#000000" stroke-width="2" d="M 982.9,70 984.6,70 986.4,69.8 988.1,69.5 989.8,69.1 991.4,68.5 993,67.8 994.5,66.9 995.9,65.9 997.3,64.8 998.5,63.5 999.6,62.2 1000.6,60.8 1001.5,59.3 1002.2,57.7 1002.8,56 1003.3,54.3 1003.6,52.6 1003.7,50.9 1003.7,49.1 1003.6,47.4 1003.3,45.7 1002.8,44 1002.2,42.4 1001.5,40.8 1000.6,39.3 999.6,37.8 998.5,36.5 997.3,35.3 995.9,34.2 994.5,33.2 993,32.3 991.4,31.5 989.8,30.9 988.1,30.5 986.4,30.2 984.6,30 982.9,30 981.1,30.2 979.4,30.5 977.7,30.9 976.1,31.5 974.5,32.3 973,33.2 971.6,34.2 970.2,35.3 969,36.5 967.9,37.8 966.9,39.3 966,40.8 965.3,42.4 964.7,44 964.2,45.7 963.9,47.4 963.8,49.1 963.8,50.9 963.9,52.6 964.2,54.3 964.7,56 965.3,57.7 966,59.3 966.9,60.8 967.9,62.2 969,63.5 970.2,64.8 971.6,65.9 973,66.9 974.5,67.8 976.1,68.5 977.7,69.1 979.4,69.5 981.1,69.8 982.9,70" />
<path stroke="#000000" stroke-width="2" d="M 1010.4,70" />
<path stroke="#000000" stroke-width="2" d="M 1020.4,20 1012.7,38.5" />
<path stroke="#000000" stroke-width="2" d="M 1050.4,70" />
<path stroke="#000000" stroke-width="2" d="M 1050.4,30 1060.4,30 1060.4,70" />
<path stroke="#000000" stroke-width="2" d="M 1067.1,70" />
<path stroke="#000000" stroke-width="2" d="M 1067.1,20" />
<path stroke="#000000" stroke-width="2" d="M 1067.1,20 1068.5,20.1 1069.8,20.6 1070.9,21.2 1071.9,22.1 1072.7,23.1 1073.4,24.3 1073.9,25.6 1074.3,27 1074.5,28.5 1074.6,30 1074.5,31.5 1074.3,33 1073.9,34.4 1073.4,35.7 1072.7,36.9 1071.9,37.9 1070.9,38.8 1069.8,39.4 1068.5,39.9 1067.1,40" />
<path stroke="#000000" stroke-width="2" d="M 1081.2,70" />
<path stroke="#000000" stroke-width="2" d="M 1081.2,20" />
<path stroke="#000000" stroke-width="2" d="M 1081.2,20 1082.6,20.1 1083.9,20.6 1085,21.2 1086,22.1 1086.8,23.1 1087.5,24.3 1088,25.6 1088.4,27 1088.6,28.5 1088.7,30 1088.6,31.5 1088.4,33 1088,34.4 1087.5,35.7 1086.8,36.9 1086,37.9 1085,38.8 1083.9,39.4 1082.6,39.9 1081.2,40" />
<path stroke="#000000" stroke-width="2" d="M 1118.7,70" />
<path stroke="#000000" stroke-width="2" d="M 1118.7,30 1138.7,30 1131.1,48.5 1151.1,48.5" />
<path stroke="#000000" stroke-width="2" d="M 1157.7,70" />
<path stroke="#000000" stroke-width="2" d="M 1169.7,56" />
<path stroke="#000000" stroke-width="2" d="M 1169.7,56 1167.7,55.9 1166.1,55.6 1164.9,55.1 1164,54.6 1163.4,53.9 1163.1,53.2 1163.1,52.4 1163.3,51.7 1163.6,51 1164.1,50.4 1164.7,49.9 1165.4,49.5 1166.2,49.3 1166.9,49.4 1167.6,49.7 1168.3,50.2 1168.9,51.1 1169.3,52.4 1169.6,54 1169.7,56 1169.7,60" />
<path stroke="#000000" stroke-width="2" d="M 1169.7,60 1169.4,60.9 1169.1,61.7 1168.7,62.4 1168.3,63.1 1167.9,63.8 1167.5,64.4 1167,64.9 1166.5,65.4 1166,65.9 1165.5,66.2 1165,66.6 1164.4,66.9 1163.9,67.2 1163.3,67.4 1162.7,67.6 1162.1,67.7 1161.5,67.9 1160.9,67.9 1160.3,68 1159.7,68" />
<path stroke="#000000" stroke-width="2" d="M 1199.7,70" />
<path stroke="#000000" stroke-width="2" d="M 1199.7,70 1199.9,70 1199.9,70.2 1199.7,70.2 1199.7,70" />
<path stroke="#000000" stroke-width="2" d="M 1229.9,70" />
<path stroke="#000000" stroke-width="2" d="M 1239.9,50 1240.8,50 1241.7,49.9 1242.5,49.8 1243.4,49.5 1244.2,49.2 1245,48.9 1245.7,48.4 1246.5,47.9 1247.1,47.4 1247.7,46.8 1248.3,46.1 1248.8,45.4 1249.2,44.6 1249.6,43.8 1249.9,43 1250.1,42.2 1250.3,41.3 1250.4,40.4 1250.4,39.6 1250.3,38.7 1250.1,37.8 1249.9,37 1249.6,36.2 1249.2,35.4 1248.8,34.6 1248.3,33.9 1247.7,33.3 1247.1,32.6 1246.5,32.1 1245.7,31.6 1245,31.1 1244.2,30.8 1243.4,30.5 1242.5,30.2 1241.7,30.1 1240.8,30 1239.9,30 1239.1,30.1 1238.2,30.2 1237.4,30.5 1236.5,30.8 1235.8,31.1 1235,31.6 1234.3,32.1 1233.6,32.6 1233,33.3 1232.4,33.9 1231.9,34.6 1231.5,35.4 1231.1,36.2 1230.8,37 1230.6,37.8 1230.5,38.7 1230.4,39.6 1230.4,40.4 1230.5,41.3 1230.6,42.2 1230.8,43 1231.1,43.8 1231.5,44.6 1231.9,45.4 1232.4,46.1 1233,46.8 1233.6,47.4 1234.3,47.9 1235,48.4 1235.8,48.9 1236.5,49.2 1237.4,49.5 1238.2,49.8 1239.1,49.9 1239.9,50 1239.9,70 1239.9,64 1239.9,63.1 1240,62.3 1240.2,61.4 1240.4,60.6 1240.7,59.7 1241.1,58.9 1241.5,58.2 1242,57.5 1242.6,56.8 1243.2,56.2 1243.8,55.6 1244.6,55.1 1245.3,54.7 1246.1,54.3 1246.9,54 1247.8,53.8 1248.6,53.6 1249.5,53.6" />
<path stroke="#000000" stroke-width="2" d="M 1280.4,70" />
<path stroke="#000000" stroke-width="2" d="M 1280.4,30 1280.4,70 1291.7,58.7" />
<path stroke="#000000" stroke-width="2" d="M 1298.3,70" />
<path stroke="#000000" stroke-width="2" d="M 1298.3,20 1318.3,20 1298.5,39.8 1318.5,39.8" />
<path stroke="#000000" stroke-width="2" d="M 1348.5,70" />
</svg>