<svg xmlns="http://www.w3.org/2000/svg" width="376.76217311515194" height="122.0" style="fill:none; stroke-linecap:round;">
    <rect width="100%" height="100%" fill="#FFFFFF" />
<path stroke="#000000" stroke-width="2" d="M 550,75" />
<path stroke="#000000" stroke-width="2" d="M 20,30 60,30" />
<path stroke="#000000" stroke-width="2" d="M 66.7,70" />
<path stroke="#000000" stroke-width="2" d="M 66.7,50 66.7,70 72.3,64.3" />
<path stroke="#000000" stroke-width="2" d="M 79,70" />
<path stroke="#000000" stroke-width="2" d="M 89,20 81.3,38.5" />
<path stroke="#000000" stroke-width="2" d="M 119,70" />
<path stroke="#000000" stroke-width="2" d="M 119,36" />
<path stroke="#000000" stroke-width="2" d="M 119,36 121,35.9 122.6,35.6 123.9,35.1 124.8,34.6 125.3,33.9 125.6,33.2 125.6,32.4 125.5,31.7 125.1,31 124.6,30.4 124,29.9 123.3,29.5 122.6,29.3 121.8,29.4 121.1,29.7 120.4,30.2 119.9,31.1 119.4,32.4 119.1,34 119,36 119,40" />
<path stroke="#000000" stroke-width="2" d="M 119,40 119.3,40.9 119.6,41.7 120,42.4 120.4,43.1 120.8,43.8 121.3,44.4 121.7,44.9 122.2,45.4 122.7,45.9 123.2,46.2 123.8,46.6 124.3,46.9 124.9,47.2 125.4,47.4 126,47.6 126.6,47.7 127.2,47.9 127.8,47.9 128.4,48 129,48" />
<path stroke="#000000" stroke-width="2" d="M 129,48 127,47.9 125.3,47.6 124.1,47.1 123.2,46.6 122.7,45.9 122.4,45.2 122.3,44.4 122.5,43.7 122.9,43 123.4,42.4 124,41.9 124.7,41.5 125.4,41.3 126.2,41.4 126.9,41.7 127.6,42.2 128.1,43.1 128.6,44.4 128.9,46 129,48 129,52" />
<path stroke="#000000" stroke-width="2" d="M 129,52 128.7,52.9 128.3,53.7 128,54.4 127.6,55.1 127.1,55.8 126.7,56.4 126.2,56.9 125.8,57.4 125.3,57.9 124.7,58.2 124.2,58.6 123.7,58.9 123.1,59.2 122.5,59.4 122,59.6 121.4,59.7 120.8,59.9 120.2,59.9 119.6,60 119,60" />
<path stroke="#000000" stroke-width="2" d="M 159,70" />
<path stroke="#000000" stroke-width="2" d="M 159,30 159,50 169,50" />
<path stroke="#000000" stroke-width="2" d="M 169,50 171,49.9 172.6,49.6 173.9,49.1 174.8,48.6 175.3,47.9 175.6,47.2 175.6,46.4 175.5,45.7 175.1,45 174.6,44.4 174,43.9 173.3,43.5 172.6,43.3 171.8,43.4 171.1,43.7 170.4,44.2 169.9,45.1 169.4,46.4 169.1,48 169,50 169,65" />
<path stroke="#000000" stroke-width="2" d="M 205.6,70" />
<path stroke="#000000" stroke-width="2" d="M 205.6,62 206.4,62 206.4,62.8 205.6,62.8 205.6,62" />
<path stroke="#000000" stroke-width="2" d="M 205.6,78" />
<path stroke="#000000" stroke-width="2" d="M 205.6,78 207.9,78.1 209.9,78.3 211.5,78.8 212.9,79.3 214.1,80.1 215,80.9 215.6,81.9 216,83 216.2,84.2 216.1,85.5 215.9,86.9 215.4,88.4 214.8,89.9 214,91.5 213,93.2 211.8,94.9 210.5,96.6 209,98.4 207.4,100.2 205.6,102" />
<path stroke="#000000" stroke-width="2" d="M 246.2,70" />
<path stroke="#000000" stroke-width="2" d="M 262.2,30 242.4,49.8 262.2,69.6" />
<path stroke="#000000" stroke-width="2" d="M 268.9,70" />
<path stroke="#000000" stroke-width="2" d="M 268.9,40 268.9,39.3 268.9,38.6 269,37.9 269.2,37.2 269.5,36.6 269.8,36 270.1,35.4 270.5,34.8 270.9,34.2 271.4,33.8 272,33.3 272.5,32.9 273.2,32.6 273.8,32.3 274.4,32 275.1,31.8 275.8,31.7 276.5,31.7 277.2,31.7 277.9,31.7 278.6,31.8 279.3,32 279.9,32.3 280.5,32.6 281.1,32.9 281.7,33.3 282.3,33.8 282.7,34.2 283.2,34.8 283.6,35.4 283.9,36 284.2,36.6 284.5,37.2 284.7,37.9 284.8,38.6 284.8,39.3" />
<path stroke="#000000" stroke-width="2" d="M 284.8,35.3" />
<path stroke="#000000" stroke-width="2" d="M 278.8,35.3 288.8,35.3 293.8,35.3 293.8,55.3" />
<path stroke="#000000" stroke-width="2" d="M 300.5,70" />
<path stroke="#000000" stroke-width="2" d="M 310.5,50 311,50 311.6,50 312.1,50.1 312.6,50.3 313.1,50.5 313.5,50.7 314,50.9 314.4,51.2 314.8,51.6 315.2,51.9 315.5,52.3 315.8,52.8 316.1,53.2 316.3,53.7 316.5,54.2 316.6,54.7 316.7,55.2 316.8,55.7 316.8,56.3 316.7,56.8 316.6,57.3 316.5,57.8 316.3,58.3 316.1,58.8 315.8,59.2 315.5,59.6 315.2,60 314.8,60.4 314.4,60.8 314,61.1 313.5,61.3 313.1,61.5 312.6,61.7 312.1,61.9 311.6,61.9 311,62 310.5,62 310,61.9 309.5,61.9 309,61.7 308.5,61.5 308,61.3 307.5,61.1 307.1,60.8 306.7,60.4 306.3,60 306,59.6 305.7,59.2 305.4,58.8 305.2,58.3 305,57.8 304.9,57.3 304.8,56.8 304.8,56.3 304.8,55.7 304.8,55.2 304.9,54.7 305,54.2 305.2,53.7 305.4,53.2 305.7,52.8 306,52.3 306.3,51.9 306.7,51.6 307.1,51.2 307.5,50.9 308,50.7 308.5,50.5 309,50.3 309.5,50.1 310,50 310.5,50 310.5,70" />
<path stroke="#000000" stroke-width="2" d="M 346.8,70" />
<path stroke="#000000" stroke-width="2" d="M 346.8,30 346.8,50 356.8,50 349.1,68.5" />
<path stroke="#000000" stroke-width="2" d="M 386.8,70" />
</svg>