<svg xmlns="http://www.w3.org/2000/svg" width="1473.0881207386135" height="91.25" style="fill:none; stroke-linecap:round;">
    <rect width="100%" height="100%" fill="#FFFFFF" />
<path stroke="#000000" stroke-width="2" d="M 550,75" />
<path stroke="#000000" stroke-width="2" d="M 20,35" />
<path stroke="#000000" stroke-width="2" d="M 20,35 22,34.9 23.6,34.6 24.9,34.1 25.8,33.6 26.3,32.9 26.6,32.2 26.7,31.4 26.5,30.7 26.1,30 25.6,29.4 25,28.9 24.3,28.5 23.6,28.3 22.8,28.4 22.1,28.7 21.4,29.2 20.9,30.1 20.4,31.4 20.1,33 20,35 20,50 20,70 25.7,64.3" />
<path stroke="#000000" stroke-width="2" d="M 33.3,70" />
<path stroke="#000000" stroke-width="2" d="M 33.3,20 33.3,20.7 33.4,21.4 33.5,22.1 33.7,22.8 33.9,23.4 34.2,24 34.6,24.6 35,25.2 35.4,25.8 35.9,26.2 36.4,26.7 37,27.1 37.6,27.4 38.3,27.7 38.9,28 39.6,28.2 40.3,28.3 41,28.3 41.7,28.3 42.4,28.3 43,28.2 43.7,28 44.4,27.7 45,27.4 45.6,27.1 46.2,26.7 46.7,26.2 47.2,25.8 47.7,25.2 48.1,24.6 48.4,24 48.7,23.4 48.9,22.8 49.1,22.1 49.2,21.4 49.3,20.7" />
<path stroke="#000000" stroke-width="2" d="M 56,70" />
<path stroke="#000000" stroke-width="2" d="M 68,56" />
<path stroke="#000000" stroke-width="2" d="M 68,56 65.9,55.9 64.3,55.6 63.1,55.1 62.2,54.6 61.6,53.9 61.4,53.2 61.3,52.4 61.5,51.7 61.8,51 62.3,50.4 63,49.9 63.7,49.5 64.4,49.3 65.1,49.4 65.9,49.7 66.5,50.2 67.1,51.1 67.6,52.4 67.9,54 68,56 68,60" />
<path stroke="#000000" stroke-width="2" d="M 68,60 67.7,60.9 67.3,61.7 66.9,62.4 66.5,63.1 66.1,63.8 65.7,64.4 65.2,64.9 64.7,65.4 64.2,65.9 63.7,66.2 63.2,66.6 62.6,66.9 62.1,67.2 61.5,67.4 60.9,67.6 60.4,67.7 59.8,67.9 59.2,67.9 58.6,68 58,68" />
<path stroke="#000000" stroke-width="2" d="M 98,70" />
<path stroke="#000000" stroke-width="2" d="M 98,30 113.3,67" />
<path stroke="#000000" stroke-width="2" d="M 119.9,70" />
<path stroke="#000000" stroke-width="2" d="M 119.9,20 139.9,20" />
<path stroke="#000000" stroke-width="2" d="M 146.6,70" />
<path stroke="#000000" stroke-width="2" d="M 146.6,70 154.3,51.5 154.3,52.2 154.3,52.9 154.4,53.6 154.6,54.3 154.9,54.9 155.2,55.6 155.5,56.2 155.9,56.7 156.4,57.3 156.9,57.8 157.4,58.2 158,58.6 158.6,59 159.2,59.3 159.9,59.5 160.5,59.7 161.2,59.8 161.9,59.9 162.6,59.9 163.3,59.8 164,59.7 164.7,59.5 165.3,59.3 166,59 166.6,58.6 167.1,58.2 167.7,57.8 168.2,57.3 168.6,56.7 169,56.2 169.4,55.6 169.7,54.9 169.9,54.3 170.1,53.6 170.2,52.9 170.3,52.2" />
<path stroke="#000000" stroke-width="2" d="M 176.9,70" />
<path stroke="#000000" stroke-width="2" d="M 176.9,30 177.1,30 177.1,30.2 176.9,30.2 176.9,30" />
<path stroke="#000000" stroke-width="2" d="M 207.1,70" />
<path stroke="#000000" stroke-width="2" d="M 207.1,70 207.3,70 207.3,70.2 207.1,70.2 207.1,70" />
<path stroke="#000000" stroke-width="2" d="M 237.3,70" />
<path stroke="#000000" stroke-width="2" d="M 237.3,30 237.3,50 247.3,50 242.3,50 242.3,70" />
<path stroke="#000000" stroke-width="2" d="M 254,70" />
<path stroke="#000000" stroke-width="2" d="M 254,50" />
<path stroke="#000000" stroke-width="2" d="M 254,50 254.1,50 254.5,50 255.2,50 256.1,50.1 257.1,50.2 258.3,50.3 259.6,50.4 261,50.6 262.5,50.9 264,51.2 265.5,51.7 266.9,52.2 268.3,52.7 269.7,53.4 270.9,54.2 271.9,55.1 272.8,56.1 273.4,57.3 273.8,58.6 274,60" />
<path stroke="#000000" stroke-width="2" d="M 274,60 275.9,62.1 277.2,64.1 278,65.7 278.3,67.2 278.2,68.4 277.8,69.5 277.1,70.2 276.1,70.8 275.1,71.1 274,71.2 272.9,71.1 271.8,70.8 270.9,70.2 270.2,69.5 269.8,68.4 269.7,67.2 270,65.7 270.7,64 272.1,62.1 274,60" />
<path stroke="#000000" stroke-width="2" d="M 274,60 274,59.9 274,59.7 274.1,59.4 274.1,59 274.3,58.4 274.5,57.8 274.8,57.2 275.3,56.5 275.8,55.7 276.5,55 277.3,54.3 278.3,53.5 279.5,52.8 280.8,52.2 282.4,51.6 284.2,51 286.3,50.6 288.6,50.3 291.1,50.1 294,50 294,50.7 294,51.4 294.2,52.1 294.3,52.8 294.6,53.4 294.9,54 295.2,54.6 295.6,55.2 296.1,55.8 296.6,56.2 297.1,56.7 297.7,57.1 298.3,57.4 298.9,57.7 299.6,58 300.2,58.2 300.9,58.3 301.6,58.3 302.3,58.3 303,58.3 303.7,58.2 304.4,58 305,57.7 305.7,57.4 306.3,57.1 306.8,56.7 307.4,56.2 307.9,55.8 308.3,55.2 308.7,54.6 309.1,54 309.4,53.4 309.6,52.8 309.8,52.1 309.9,51.4 310,50.7 310.8,50.7 311.7,50.8 312.6,50.9 313.4,51.2 314.2,51.4 315,51.8 315.8,52.3 316.5,52.8 317.2,53.3 317.8,53.9 318.3,54.6 318.8,55.3 319.3,56.1 319.6,56.9 319.9,57.7 320.2,58.5 320.3,59.4 320.4,60.3 320.4,61.1 320.3,62 320.2,62.9 319.9,63.7 319.6,64.5 319.3,65.3 318.8,66.1 318.3,66.8 317.8,67.4 317.2,68.1 316.5,68.6 315.8,69.1 315,69.6 314.2,69.9 313.4,70.2 312.6,70.5 311.7,70.6 310.8,70.7" />
<path stroke="#000000" stroke-width="2" d="M 350.4,70" />
<path stroke="#000000" stroke-width="2" d="M 350.4,40" />
<path stroke="#000000" stroke-width="2" d="M 350.4,40 354.5,39.8 357.7,39.2 360.2,38.3 361.9,37.1 363.1,35.8 363.6,34.3 363.7,32.8 363.4,31.4 362.6,30 361.6,28.8 360.4,27.7 359,27 357.6,26.7 356.1,26.8 354.6,27.3 353.3,28.5 352.1,30.2 351.2,32.7 350.6,35.9 350.4,40 350.4,70" />
<path stroke="#000000" stroke-width="2" d="M 370.4,70" />
<path stroke="#000000" stroke-width="2" d="M 370.4,20 370.6,20 370.6,20.2 370.4,20.2 370.4,20" />
<path stroke="#000000" stroke-width="2" d="M 400.6,70" />
<path stroke="#000000" stroke-width="2" d="M 416.6,30" />
<path stroke="#000000" stroke-width="2" d="M 416.6,30 416.4,34.1 415.8,37.3 414.9,39.8 413.7,41.5 412.4,42.7 410.9,43.2 409.4,43.3 407.9,43 406.5,42.3 405.3,41.2 404.3,40 403.6,38.6 403.3,37.2 403.3,35.7 403.9,34.2 405.1,32.9 406.8,31.7 409.3,30.8 412.5,30.2 416.6,30 436.6,30" />
<path stroke="#000000" stroke-width="2" d="M 443.2,70" />
<path stroke="#000000" stroke-width="2" d="M 443.2,20 443.2,40 443.2,34 443.2,33.1 443.3,32.3 443.5,31.4 443.7,30.6 444,29.7 444.4,28.9 444.8,28.2 445.3,27.5 445.9,26.8 446.5,26.2 447.1,25.6 447.9,25.1 448.6,24.7 449.4,24.3 450.2,24 451.1,23.8 451.9,23.6 452.8,23.6 457.8,23.6 457.8,43.6" />
<path stroke="#000000" stroke-width="2" d="M 464.5,70" />
<path stroke="#000000" stroke-width="2" d="M 464.5,40 464.5,39.3 464.5,38.6 464.6,37.9 464.8,37.2 465.1,36.6 465.4,36 465.7,35.4 466.1,34.8 466.6,34.2 467,33.8 467.6,33.3 468.2,32.9 468.8,32.6 469.4,32.3 470,32 470.7,31.8 471.4,31.7 472.1,31.7 472.8,31.7 473.5,31.7 474.2,31.8 474.9,32 475.5,32.3 476.1,32.6 476.8,32.9 477.3,33.3 477.9,33.8 478.4,34.2 478.8,34.8 479.2,35.4 479.5,36 479.8,36.6 480.1,37.2 480.3,37.9 480.4,38.6 480.4,39.3 472.8,57.8 472.8,58.5 472.9,59.2 473,59.9 473.2,60.5 473.4,61.2 473.7,61.8 474,62.4 474.4,63 474.9,63.5 475.4,64 475.9,64.5 476.5,64.9 477.1,65.2 477.7,65.5 478.4,65.8 479.1,65.9 479.7,66.1 480.4,66.1 481.1,66.1 481.8,66.1 482.5,65.9 483.2,65.8 483.8,65.5 484.5,65.2 485.1,64.9 485.7,64.5 486.2,64 486.7,63.5 487.1,63 487.5,62.4 487.9,61.8 488.2,61.2 488.4,60.5 488.6,59.9 488.7,59.2 488.8,58.5" />
<path stroke="#000000" stroke-width="2" d="M 495.4,70" />
<path stroke="#000000" stroke-width="2" d="M 495.4,30 495.6,30 495.6,30.2 495.4,30.2 495.4,30" />
<path stroke="#000000" stroke-width="2" d="M 525.6,70" />
<path stroke="#000000" stroke-width="2" d="M 525.6,50 525.6,49.3 525.7,48.6 525.8,47.9 526,47.2 526.2,46.6 526.5,46 526.9,45.4 527.3,44.8 527.7,44.2 528.2,43.8 528.8,43.3 529.3,42.9 529.9,42.6 530.6,42.3 531.2,42 531.9,41.8 532.6,41.7 533.3,41.7 534,41.7 534.7,41.7 535.4,41.8 536,42 536.7,42.3 537.3,42.6 537.9,42.9 538.5,43.3 539,43.8 539.5,44.2 540,44.8 540.4,45.4 540.7,46 541,46.6 541.3,47.2 541.4,47.9 541.6,48.6 541.6,49.3 541.6,50 541.7,50.7 541.8,51.4 542,52.1 542.2,52.7 542.5,53.3 542.9,53.9 543.3,54.5 543.7,55.1 544.2,55.5 544.7,56 545.3,56.4 545.9,56.7 546.6,57 547.2,57.3 547.9,57.5 548.6,57.6 549.3,57.6 550,57.6 550.7,57.6 551.4,57.5 552,57.3 552.7,57 553.3,56.7 553.9,56.4 554.5,56 555,55.5 555.5,55.1 556,54.5 556.4,53.9 556.7,53.3 557,52.7 557.2,52.1 557.4,51.4 557.6,50.7 557.6,50" />
<path stroke="#000000" stroke-width="2" d="M 564.3,70" />
<path stroke="#000000" stroke-width="2" d="M 564.3,20 564.3,40 564.3,34 564.3,33.1 564.4,32.3 564.5,31.4 564.7,30.6 565,29.7 565.4,28.9 565.8,28.2 566.3,27.5 566.9,26.8 567.5,26.2 568.2,25.6 568.9,25.1 569.7,24.7 570.4,24.3 571.3,24 572.1,23.8 573,23.6 573.8,23.6 573.8,24.3 573.9,25 574,25.7 574.2,26.3 574.4,27 574.7,27.6 575.1,28.2 575.5,28.8 575.9,29.3 576.4,29.8 577,30.3 577.5,30.7 578.1,31 578.8,31.3 579.4,31.6 580.1,31.7 580.8,31.9 581.5,31.9 582.2,31.9 582.9,31.9 583.6,31.7 584.2,31.6 584.9,31.3 585.5,31 586.1,30.7 586.7,30.3 587.2,29.8 587.7,29.3 588.2,28.8 588.6,28.2 588.9,27.6 589.2,27 589.5,26.3 589.6,25.7 589.8,25 589.8,24.3" />
<path stroke="#000000" stroke-width="2" d="M 596.5,70" />
<path stroke="#000000" stroke-width="2" d="M 596.5,30 596.7,30 596.7,30.2 596.5,30.2 596.5,30" />
<path stroke="#000000" stroke-width="2" d="M 626.7,70" />
<path stroke="#000000" stroke-width="2" d="M 626.7,70 642,33 642,34.4 642.1,35.8 642.4,37.2 642.7,38.6 643.2,39.9 643.8,41.1 644.5,42.3 645.3,43.5 646.2,44.6 647.2,45.5 648.2,46.4 649.4,47.2 650.6,47.9 651.9,48.5 653.2,49 654.5,49.4 655.9,49.6 657.3,49.7 658.7,49.7 660.1,49.6 661.4,49.4 662.8,49 664.1,48.5 665.4,47.9 666.6,47.2 667.7,46.4 668.8,45.5 669.8,44.6 670.7,43.5 671.5,42.3 672.2,41.1 672.8,39.9 673.2,38.6 673.6,37.2 673.8,35.8 674,34.4" />
<path stroke="#000000" stroke-width="2" d="M 704,70" />
<path stroke="#000000" stroke-width="2" d="M 704,70 704.2,70 704.2,70.2 704,70.2 704,70" />
<path stroke="#000000" stroke-width="2" d="M 710.8,70" />
<path stroke="#000000" stroke-width="2" d="M 710.8,30 710.8,70 722.1,58.7" />
<path stroke="#000000" stroke-width="2" d="M 728.8,70" />
<path stroke="#000000" stroke-width="2" d="M 728.8,30" />
<path stroke="#000000" stroke-width="2" d="M 728.8,30 729,30 729.4,30 730,30 730.9,30.1 731.9,30.2 733.1,30.3 734.4,30.4 735.8,30.6 737.3,30.9 738.8,31.2 740.3,31.7 741.8,32.2 743.2,32.7 744.5,33.4 745.7,34.2 746.7,35.1 747.6,36.1 748.2,37.3 748.7,38.6 748.8,40" />
<path stroke="#000000" stroke-width="2" d="M 748.8,40 750.7,42.1 752,44.1 752.8,45.7 753.1,47.2 753,48.4 752.6,49.4 751.9,50.2 751,50.8 749.9,51.1 748.8,51.2 747.7,51.1 746.6,50.8 745.7,50.2 745,49.5 744.6,48.4 744.5,47.2 744.8,45.7 745.6,44.1 746.9,42.1 748.8,40" />
<path stroke="#000000" stroke-width="2" d="M 748.8,40 748.8,39.9 748.8,39.7 748.9,39.4 749,39 749.1,38.4 749.3,37.8 749.7,37.2 750.1,36.5 750.6,35.7 751.3,35 752.1,34.3 753.1,33.5 754.3,32.8 755.7,32.2 757.2,31.6 759,31 761.1,30.6 763.4,30.3 766,30.1 768.8,30" />
<path stroke="#000000" stroke-width="2" d="M 768.8,30 768.7,32 768.4,33.6 767.9,34.9 767.4,35.8 766.7,36.3 766,36.6 765.2,36.7 764.5,36.5 763.8,36.1 763.2,35.6 762.7,35 762.3,34.3 762.2,33.6 762.2,32.8 762.5,32.1 763,31.4 763.9,30.9 765.2,30.4 766.8,30.1 768.8,30 778.8,30" />
<path stroke="#000000" stroke-width="2" d="M 808.8,70" />
<path stroke="#000000" stroke-width="2" d="M 828.8,30 813.5,67" />
<path stroke="#000000" stroke-width="2" d="M 835.5,70" />
<path stroke="#000000" stroke-width="2" d="M 835.5,50 835.7,50 835.7,50.2 835.5,50.2 835.5,50" />
<path stroke="#000000" stroke-width="2" d="M 865.7,70" />
<path stroke="#000000" stroke-width="2" d="M 865.7,70 865.9,70 865.9,70.2 865.7,70.2 865.7,70" />
<path stroke="#000000" stroke-width="2" d="M 872.5,70" />
<path stroke="#000000" stroke-width="2" d="M 888.5,30 868.7,49.8 888.5,69.6" />
<path stroke="#000000" stroke-width="2" d="M 895.2,70" />
<path stroke="#000000" stroke-width="2" d="M 895.2,50 895.2,70 895.2,64 895.2,63.1 895.3,62.3 895.4,61.4 895.7,60.6 896,59.7 896.3,58.9 896.8,58.2 897.3,57.5 897.8,56.8 898.4,56.2 899.1,55.6 899.8,55.1 900.6,54.7 901.4,54.3 902.2,54 903,53.8 903.9,53.6 904.8,53.6" />
<path stroke="#000000" stroke-width="2" d="M 911.4,70" />
<path stroke="#000000" stroke-width="2" d="M 911.4,30 951.4,30 911.8,69.6 951.8,69.6" />
<path stroke="#000000" stroke-width="2" d="M 958.5,70" />
<path stroke="#000000" stroke-width="2" d="M 958.5,50 978.5,50" />
<path stroke="#000000" stroke-width="2" d="M 1008.5,70" />
<path stroke="#000000" stroke-width="2" d="M 1008.5,70 1008.7,70 1008.7,70.2 1008.5,70.2 1008.5,70" />
<path stroke="#000000" stroke-width="2" d="M 1038.7,70" />
<path stroke="#000000" stroke-width="2" d="M 1038.7,30 1038.7,70 1058.7,70" />
<path stroke="#000000" stroke-width="2" d="M 1088.7,70" />
<path stroke="#000000" stroke-width="2" d="M 1088.7,70 1088.7,68.6 1088.8,67.2 1089.1,65.8 1089.4,64.5 1089.9,63.2 1090.5,61.9 1091.2,60.7 1092,59.6 1092.9,58.5 1093.9,57.5 1094.9,56.6 1096.1,55.8 1097.3,55.1 1098.6,54.5 1099.9,54 1101.2,53.7 1102.6,53.4 1104,53.3 1105.4,53.3 1106.8,53.4 1108.1,53.7 1109.5,54 1110.8,54.5 1112.1,55.1 1113.3,55.8 1114.4,56.6 1115.5,57.5 1116.5,58.5 1117.4,59.6 1118.2,60.7 1118.9,61.9 1119.5,63.2 1119.9,64.5 1120.3,65.8 1120.5,67.2 1120.7,68.6" />
<path stroke="#000000" stroke-width="2" d="M 1127.3,70" />
<path stroke="#000000" stroke-width="2" d="M 1127.3,50" />
<path stroke="#000000" stroke-width="2" d="M 1127.3,50 1127.5,50 1127.9,50 1128.5,50 1129.4,50.1 1130.5,50.2 1131.7,50.3 1133,50.4 1134.4,50.6 1135.8,50.9 1137.3,51.2 1138.8,51.7 1140.3,52.2 1141.7,52.7 1143,53.4 1144.2,54.2 1145.3,55.1 1146.1,56.1 1146.8,57.3 1147.2,58.6 1147.3,60" />
<path stroke="#000000" stroke-width="2" d="M 1147.3,60 1149.3,62.1 1150.6,64.1 1151.3,65.7 1151.7,67.2 1151.6,68.4 1151.1,69.5 1150.4,70.2 1149.5,70.8 1148.4,71.1 1147.3,71.2 1146.2,71.1 1145.2,70.8 1144.3,70.2 1143.6,69.5 1143.1,68.4 1143,67.2 1143.3,65.7 1144.1,64 1145.4,62.1 1147.3,60" />
<path stroke="#000000" stroke-width="2" d="M 1147.3,60 1147.3,59.9 1147.4,59.7 1147.4,59.4 1147.5,59 1147.6,58.4 1147.9,57.8 1148.2,57.2 1148.6,56.5 1149.2,55.7 1149.8,55 1150.7,54.3 1151.7,53.5 1152.8,52.8 1154.2,52.2 1155.8,51.6 1157.6,51 1159.6,50.6 1161.9,50.3 1164.5,50.1 1167.3,50 1167.3,50.7 1167.4,51.4 1167.5,52.1 1167.7,52.8 1167.9,53.4 1168.2,54 1168.6,54.6 1169,55.2 1169.4,55.8 1169.9,56.2 1170.5,56.7 1171,57.1 1171.6,57.4 1172.3,57.7 1172.9,58 1173.6,58.2 1174.3,58.3 1175,58.3 1175.7,58.3 1176.4,58.3 1177.1,58.2 1177.7,58 1178.4,57.7 1179,57.4 1179.6,57.1 1180.2,56.7 1180.7,56.2 1181.2,55.8 1181.7,55.2 1182.1,54.6 1182.4,54 1182.7,53.4 1183,52.8 1183.1,52.1 1183.3,51.4 1183.3,50.7 1184.2,50.7 1185.1,50.8 1185.9,50.9 1186.8,51.2 1187.6,51.4 1188.4,51.8 1189.1,52.3 1189.8,52.8 1190.5,53.3 1191.1,53.9 1191.7,54.6 1192.2,55.3 1192.6,56.1 1193,56.9 1193.3,57.7 1193.5,58.5 1193.7,59.4 1193.7,60.3 1193.7,61.1 1193.7,62 1193.5,62.9 1193.3,63.7 1193,64.5 1192.6,65.3 1192.2,66.1 1191.7,66.8 1191.1,67.4 1190.5,68.1 1189.8,68.6 1189.1,69.1 1188.4,69.6 1187.6,69.9 1186.8,70.2 1185.9,70.5 1185.1,70.6 1184.2,70.7" />
<path stroke="#000000" stroke-width="2" d="M 1223.7,70" />
<path stroke="#000000" stroke-width="2" d="M 1225.7,50 1231.1,37.1 1231.2,36.7 1231.3,36.4 1231.4,36.1 1231.5,35.7 1231.5,35.4 1231.5,35 1231.4,34.7 1231.3,34.3 1231.2,34 1231.1,33.7 1230.9,33.4 1230.8,33.1 1230.5,32.8 1230.3,32.5 1230,32.3 1229.8,32.1 1229.5,31.9 1229.2,31.7 1228.8,31.6 1228.5,31.5 1228.2,31.4 1227.8,31.4 1227.5,31.4 1227.1,31.4 1226.8,31.4 1226.4,31.5 1226.1,31.6 1225.8,31.7 1225.5,31.9 1225.2,32.1 1224.9,32.3 1224.6,32.5 1224.4,32.8 1224.2,33.1 1224,33.4 1223.9,33.7 1223.7,34 1223.6,34.3 1223.5,34.7 1223.5,35 1223.5,35.4 1223.5,35.7 1223.5,36.1 1223.6,36.4 1223.7,36.7 1223.9,37.1 1224,37.4 1224.2,37.7 1224.4,37.9 1224.6,38.2 1224.9,38.4 1225.2,38.7 1225.5,38.8 1225.8,39 1226.1,39.1 1226.4,39.2 1226.8,39.3 1227.1,39.4 1227.5,39.4 1227.8,39.4 1240.8,34 1248.4,52.5 1256.1,34 1276.1,34" />
<path stroke="#000000" stroke-width="2" d="M 1306.1,70" />
<path stroke="#000000" stroke-width="2" d="M 1306.1,30 1316.1,30 1316.1,70" />
<path stroke="#000000" stroke-width="2" d="M 1322.7,70" />
<path stroke="#000000" stroke-width="2" d="M 1322.7,20 1322.7,20.7 1322.8,21.4 1322.9,22.1 1323.1,22.8 1323.3,23.4 1323.6,24 1324,24.6 1324.4,25.2 1324.8,25.8 1325.3,26.2 1325.9,26.7 1326.4,27.1 1327,27.4 1327.7,27.7 1328.3,28 1329,28.2 1329.7,28.3 1330.4,28.3 1331.1,28.3 1331.8,28.3 1332.5,28.2 1333.1,28 1333.8,27.7 1334.4,27.4 1335,27.1 1335.6,26.7 1336.1,26.2 1336.6,25.8 1337.1,25.2 1337.5,24.6 1337.8,24 1338.1,23.4 1338.4,22.8 1338.5,22.1 1338.7,21.4 1338.7,20.7" />
<path stroke="#000000" stroke-width="2" d="M 1368.7,70" />
<path stroke="#000000" stroke-width="2" d="M 1368.7,70 1368.9,70 1368.9,70.2 1368.7,70.2 1368.7,70" />
<path stroke="#000000" stroke-width="2" d="M 1375.6,70" />
<path stroke="#000000" stroke-width="2" d="M 1375.6,30 1390.9,67 1406.2,30" />
<path stroke="#000000" stroke-width="2" d="M 1412.9,70" />
<path stroke="#000000" stroke-width="2" d="M 1412.9,20 1412.9,40 1412.9,34 1412.9,33.1 1412.9,32.3 1413.1,31.4 1413.3,30.6 1413.6,29.7 1414,28.9 1414.4,28.2 1414.9,27.5 1415.5,26.8 1416.1,26.2 1416.8,25.6 1417.5,25.1 1418.2,24.7 1419,24.3 1419.9,24 1420.7,23.8 1421.6,23.6 1422.4,23.6" />
<path stroke="#000000" stroke-width="2" d="M 1429.1,70" />
<path stroke="#000000" stroke-width="2" d="M 1453.1,42" />
<path stroke="#000000" stroke-width="2" d="M 1453.1,42 1449,41.8 1445.8,41.2 1443.3,40.3 1441.6,39.1 1440.4,37.8 1439.9,36.3 1439.8,34.8 1440.1,33.4 1440.8,32 1441.8,30.8 1443.1,29.7 1444.4,29 1445.9,28.7 1447.4,28.8 1448.9,29.3 1450.2,30.5 1451.4,32.2 1452.3,34.7 1452.9,37.9 1453.1,42 1453.1,50" />
<path stroke="#000000" stroke-width="2" d="M 1453.1,50 1452.5,51.7 1451.8,53.4 1451,54.9 1450.2,56.3 1449.4,57.6 1448.5,58.7 1447.6,59.8 1446.6,60.8 1445.6,61.7 1444.6,62.5 1443.5,63.2 1442.4,63.8 1441.3,64.4 1440.2,64.8 1439,65.2 1437.9,65.5 1436.7,65.7 1435.5,65.9 1434.3,66 1433.1,66" />
<path stroke="#000000" stroke-width="2" d="M 1483.1,70" />
</svg>