<svg xmlns="http://www.w3.org/2000/svg" width="519.4443536619074" height="108.27658052344907" style="fill:none; stroke-linecap:round;">
    <rect width="100%" height="100%" fill="#FFFFFF" />
<path stroke="#000000" stroke-width="2" d="M 550,75" />
<path stroke="#000000" stroke-width="2" d="M 20,42 20,43 20.1,44.1 20.3,45.1 20.5,46.1 20.9,47.1 21.3,48.1 21.9,49 22.5,49.8 23.1,50.6 23.9,51.4 24.7,52 25.5,52.6 26.4,53.2 27.4,53.6 28.4,54 29.4,54.2 30.4,54.4 31.5,54.5 32.5,54.5 33.6,54.4 34.6,54.2 35.6,54 36.6,53.6 37.5,53.2 38.4,52.6 39.3,52 40.1,51.4 40.8,50.6 41.5,49.8 42.1,49 42.6,48.1 43.1,47.1 43.4,46.1 43.7,45.1 43.9,44.1 44,43 44,42 43.9,41 43.7,39.9 43.4,38.9 43.1,37.9 42.6,37 42.1,36.1 41.5,35.2 40.8,34.4 40.1,33.7 39.3,33 38.4,32.4 37.5,31.9 36.6,31.4 35.6,31.1 34.6,30.8 33.6,30.6 32.5,30.5 31.5,30.5 30.4,30.6 29.4,30.8 28.4,31.1 27.4,31.4 26.4,31.9 25.5,32.4 24.7,33 23.9,33.7 23.1,34.4 22.5,35.2 21.9,36.1 21.3,37 20.9,37.9 20.5,38.9 20.3,39.9 20.1,41 20,42 20,50" />
<path stroke="#000000" stroke-width="2" d="M 20,50 20.6,51.7 21.3,53.4 22.1,54.9 22.8,56.3 23.7,57.6 24.6,58.7 25.5,59.8 26.5,60.8 27.5,61.7 28.5,62.5 29.6,63.2 30.7,63.8 31.8,64.4 32.9,64.8 34.1,65.2 35.2,65.5 36.4,65.7 37.6,65.9 38.8,66 40,66" />
<path stroke="#000000" stroke-width="2" d="M 74,70" />
<path stroke="#000000" stroke-width="2" d="M 74,70 74.2,70 74.2,70.2 74,70.2 74,70" />
<path stroke="#000000" stroke-width="2" d="M 104.2,70" />
<path stroke="#000000" stroke-width="2" d="M 104.2,40 104.4,40 104.4,40.2 104.2,40.2 104.2,40" />
<path stroke="#000000" stroke-width="2" d="M 111,70" />
<path stroke="#000000" stroke-width="2" d="M 123,30 124.1,30 125.1,30.1 126.2,30.3 127.2,30.5 128.2,30.9 129.1,31.3 130,31.9 130.9,32.5 131.7,33.1 132.4,33.9 133.1,34.7 133.7,35.5 134.2,36.4 134.7,37.4 135,38.4 135.3,39.4 135.5,40.4 135.6,41.5 135.6,42.5 135.5,43.6 135.3,44.6 135,45.6 134.7,46.6 134.2,47.5 133.7,48.4 133.1,49.3 132.4,50.1 131.7,50.8 130.9,51.5 130,52.1 129.1,52.6 128.2,53.1 127.2,53.4 126.2,53.7 125.1,53.9 124.1,54 123,54 122,53.9 121,53.7 120,53.4 119,53.1 118,52.6 117.1,52.1 116.3,51.5 115.5,50.8 114.7,50.1 114,49.3 113.4,48.4 112.9,47.5 112.5,46.6 112.1,45.6 111.9,44.6 111.7,43.6 111.6,42.5 111.6,41.5 111.7,40.4 111.9,39.4 112.1,38.4 112.5,37.4 112.9,36.4 113.4,35.5 114,34.7 114.7,33.9 115.5,33.1 116.3,32.5 117.1,31.9 118,31.3 119,30.9 120,30.5 121,30.3 122,30.1 123,30 131,30" />
<path stroke="#000000" stroke-width="2" d="M 131,30 132.8,30.6 134.4,31.3 135.9,32.1 137.3,32.8 138.6,33.7 139.8,34.6 140.9,35.5 141.9,36.5 142.7,37.5 143.5,38.5 144.2,39.6 144.9,40.7 145.4,41.8 145.9,42.9 146.2,44.1 146.5,45.2 146.8,46.4 146.9,47.6 147,48.8 147,50" />
<path stroke="#000000" stroke-width="2" d="M 153.7,70" />
<path stroke="#000000" stroke-width="2" d="M 153.7,50 153.7,70 153.7,70.7 153.8,71.4 153.9,72.1 154.1,72.8 154.3,73.4 154.6,74 155,74.6 155.4,75.2 155.8,75.8 156.3,76.2 156.8,76.7 157.4,77.1 158,77.4 158.6,77.7 159.3,78 160,78.2 160.7,78.3 161.4,78.3 162.1,78.3 162.7,78.3 163.4,78.2 164.1,78 164.8,77.7 165.4,77.4 166,77.1 166.6,76.7 167.1,76.2 167.6,75.8 168,75.2 168.5,74.6 168.8,74 169.1,73.4 169.3,72.8 169.5,72.1 169.6,71.4 169.7,70.7" />
<path stroke="#000000" stroke-width="2" d="M 176.4,70" />
<path stroke="#000000" stroke-width="2" d="M 176.4,20 184,38.5" />
<path stroke="#000000" stroke-width="2" d="M 214,70" />
<path stroke="#000000" stroke-width="2" d="M 214,30 214,50 224,50" />
<path stroke="#000000" stroke-width="2" d="M 224,50 226,49.9 227.7,49.6 228.9,49.1 229.8,48.6 230.3,47.9 230.6,47.2 230.7,46.4 230.5,45.7 230.1,45 229.6,44.4 229,43.9 228.3,43.5 227.6,43.3 226.9,43.4 226.1,43.7 225.5,44.2 224.9,45.1 224.4,46.4 224.1,48 224,50 224,65" />
<path stroke="#000000" stroke-width="2" d="M 260.7,70" />
<path stroke="#000000" stroke-width="2" d="M 280.7,70 282.4,70 284.2,69.8 285.9,69.5 287.6,69.1 289.2,68.5 290.8,67.8 292.3,66.9 293.7,65.9 295.1,64.8 296.3,63.5 297.4,62.2 298.4,60.8 299.3,59.3 300,57.7 300.6,56 301.1,54.3 301.4,52.6 301.5,50.9 301.5,49.1 301.4,47.4 301.1,45.7 300.6,44 300,42.4 299.3,40.8 298.4,39.3 297.4,37.8 296.3,36.5 295.1,35.3 293.7,34.2 292.3,33.2 290.8,32.3 289.2,31.5 287.6,30.9 285.9,30.5 284.2,30.2 282.4,30 280.7,30 278.9,30.2 277.2,30.5 275.5,30.9 273.9,31.5 272.3,32.3 270.8,33.2 269.4,34.2 268,35.3 266.8,36.5 265.7,37.8 264.7,39.3 263.8,40.8 263.1,42.4 262.5,44 262,45.7 261.7,47.4 261.6,49.1 261.6,50.9 261.7,52.6 262,54.3 262.5,56 263.1,57.7 263.8,59.3 264.7,60.8 265.7,62.2 266.8,63.5 268,64.8 269.4,65.9 270.8,66.9 272.3,67.8 273.9,68.5 275.5,69.1 277.2,69.5 278.9,69.8 280.7,70" />
<path stroke="#000000" stroke-width="2" d="M 308.2,70" />
<path stroke="#000000" stroke-width="2" d="M 318.2,20 310.5,38.5" />
<path stroke="#000000" stroke-width="2" d="M 348.2,70" />
<path stroke="#000000" stroke-width="2" d="M 368.2,30 368.2,70 348.2,70" />
<path stroke="#000000" stroke-width="2" d="M 374.9,70" />
<path stroke="#000000" stroke-width="2" d="M 374.9,50 394.9,50" />
<path stroke="#000000" stroke-width="2" d="M 401.5,70" />
<path stroke="#000000" stroke-width="2" d="M 401.5,30 401.7,30 401.7,30.2 401.5,30.2 401.5,30" />
<path stroke="#000000" stroke-width="2" d="M 431.7,70" />
<path stroke="#000000" stroke-width="2" d="M 431.7,30 433.5,30 435.2,30.2 436.9,30.5 438.6,30.9 440.2,31.5 441.8,32.2 443.3,33.1 444.8,34.1 446.1,35.2 447.3,36.5 448.5,37.8 449.5,39.2 450.3,40.7 451.1,42.3 451.7,44 452.1,45.7 452.4,47.4 452.6,49.1 452.6,50.9 452.4,52.6 452.1,54.3 451.7,56 451.1,57.6 450.3,59.2 449.5,60.7 448.5,62.2 447.3,63.5 446.1,64.7 444.8,65.8 443.3,66.8 441.8,67.7 440.2,68.5 438.6,69.1 436.9,69.5 435.2,69.8 433.5,70" />
<path stroke="#000000" stroke-width="2" d="M 459.2,70" />
<path stroke="#000000" stroke-width="2" d="M 459.2,50 479.2,50 459.4,69.8 479.4,69.8 499.4,69.8 491.8,88.3" />
<path stroke="#000000" stroke-width="2" d="M 529.4,70" />
</svg>