<svg xmlns="http://www.w3.org/2000/svg" width="1299.2285651297984" height="111.47759065022574" style="fill:none; stroke-linecap:round;">
    <rect width="100%" height="100%" fill="#FFFFFF" />
<path stroke="#000000" stroke-width="2" d="M 550,75" />
<path stroke="#000000" stroke-width="2" d="M 20,30 20,70 40,70" />
<path stroke="#000000" stroke-width="2" d="M 70,70" />
<path stroke="#000000" stroke-width="2" d="M 80,30 70,30 70,70" />
<path stroke="#000000" stroke-width="2" d="M 86.7,70" />
<path stroke="#000000" stroke-width="2" d="M 86.7,50 90.5,59.2" />
<path stroke="#000000" stroke-width="2" d="M 90.5,59.2 92.4,61.4 93.7,63.3 94.5,65 94.8,66.4 94.7,67.7 94.3,68.7 93.6,69.5 92.7,70 91.6,70.4 90.5,70.5 89.4,70.4 88.3,70 87.4,69.5 86.7,68.7 86.3,67.7 86.2,66.4 86.5,65 87.3,63.3 88.6,61.4 90.5,59.2 94.3,50 94.3,50.7 94.4,51.4 94.5,52.1 94.7,52.8 94.9,53.4 95.2,54 95.6,54.6 96,55.2 96.4,55.8 96.9,56.2 97.4,56.7 98,57.1 98.6,57.4 99.3,57.7 99.9,58 100.6,58.2 101.3,58.3 102,58.3 102.7,58.3 103.4,58.3 104,58.2 104.7,58 105.4,57.7 106,57.4 106.6,57.1 107.2,56.7 107.7,56.2 108.2,55.8 108.7,55.2 109.1,54.6 109.4,54 109.7,53.4 109.9,52.8 110.1,52.1 110.2,51.4 110.3,50.7 111.2,50.7 112,50.8 112.9,50.9 113.7,51.2 114.6,51.4 115.4,51.8 116.1,52.3 116.8,52.8 117.5,53.3 118.1,53.9 118.7,54.6 119.2,55.3 119.6,56.1 120,56.9 120.3,57.7 120.5,58.5 120.7,59.4 120.7,60.3 120.7,61.1 120.7,62 120.5,62.9 120.3,63.7 120,64.5 119.6,65.3 119.2,66.1 118.7,66.8 118.1,67.4 117.5,68.1 116.8,68.6 116.1,69.1 115.4,69.6 114.6,69.9 113.7,70.2 112.9,70.5 112,70.6 111.2,70.7 131.2,70.7 123.5,89.2" />
<path stroke="#000000" stroke-width="2" d="M 161.2,70" />
<path stroke="#000000" stroke-width="2" d="M 161.2,30 171.2,30 171.2,70" />
<path stroke="#000000" stroke-width="2" d="M 177.8,70" />
<path stroke="#000000" stroke-width="2" d="M 177.8,70 177.8,69.3 177.9,68.6 178,67.9 178.2,67.2 178.4,66.6 178.7,66 179.1,65.4 179.5,64.8 179.9,64.2 180.4,63.8 181,63.3 181.5,62.9 182.1,62.6 182.8,62.3 183.4,62 184.1,61.8 184.8,61.7 185.5,61.7 186.2,61.7 186.9,61.7 187.6,61.8 188.2,62 188.9,62.3 189.5,62.6 190.1,62.9 190.7,63.3 191.2,63.8 191.7,64.2 192.2,64.8 192.6,65.4 192.9,66 193.2,66.6 193.5,67.2 193.6,67.9 193.8,68.6 193.8,69.3" />
<path stroke="#000000" stroke-width="2" d="M 200.5,70" />
<path stroke="#000000" stroke-width="2" d="M 200.5,55" />
<path stroke="#000000" stroke-width="2" d="M 200.5,55 202.5,54.9 204.1,54.6 205.4,54.1 206.3,53.6 206.8,52.9 207.1,52.2 207.1,51.4 207,50.7 206.6,50 206.1,49.4 205.5,48.9 204.8,48.5 204.1,48.3 203.3,48.4 202.6,48.7 201.9,49.2 201.4,50.1 200.9,51.4 200.6,53 200.5,55 200.5,70" />
<path stroke="#000000" stroke-width="2" d="M 237.1,70" />
<path stroke="#000000" stroke-width="2" d="M 247.1,30 246.3,30 245.4,30.1 244.5,30.2 243.7,30.5 242.9,30.8 242.1,31.1 241.3,31.6 240.6,32.1 240,32.6 239.3,33.2 238.8,33.9 238.3,34.6 237.8,35.4 237.5,36.2 237.2,37 237,37.8 236.8,38.7 236.7,39.6 236.7,40.4 236.8,41.3 237,42.2 237.2,43 237.5,43.8 237.8,44.6 238.3,45.4 238.8,46.1 239.3,46.7 240,47.4 240.6,47.9 241.3,48.4 242.1,48.9 242.9,49.2 243.7,49.5 244.5,49.8 245.4,49.9 246.3,50 266.3,50" />
<path stroke="#000000" stroke-width="2" d="M 296.3,70" />
<path stroke="#000000" stroke-width="2" d="M 296.3,70 311.6,33 351.6,33" />
<path stroke="#000000" stroke-width="2" d="M 358.3,70" />
<path stroke="#000000" stroke-width="2" d="M 382.3,42 382.3,43 382.2,44.1 382,45.1 381.7,46.1 381.3,47.1 380.9,48.1 380.4,49 379.8,49.8 379.1,50.6 378.4,51.4 377.6,52 376.7,52.6 375.8,53.2 374.9,53.6 373.9,54 372.9,54.2 371.8,54.4 370.8,54.5 369.7,54.5 368.7,54.4 367.7,54.2 366.7,54 365.7,53.6 364.7,53.2 363.8,52.6 363,52 362.2,51.4 361.4,50.6 360.7,49.8 360.1,49 359.6,48.1 359.2,47.1 358.8,46.1 358.5,45.1 358.4,44.1 358.3,43 358.3,42 358.4,41 358.5,39.9 358.8,38.9 359.2,37.9 359.6,37 360.1,36.1 360.7,35.2 361.4,34.4 362.2,33.7 363,33 363.8,32.4 364.7,31.9 365.7,31.4 366.7,31.1 367.7,30.8 368.7,30.6 369.7,30.5 370.8,30.5 371.8,30.6 372.9,30.8 373.9,31.1 374.9,31.4 375.8,31.9 376.7,32.4 377.6,33 378.4,33.7 379.1,34.4 379.8,35.2 380.4,36.1 380.9,37 381.3,37.9 381.7,38.9 382,39.9 382.2,41 382.3,42 382.3,50" />
<path stroke="#000000" stroke-width="2" d="M 382.3,50 381.6,51.7 380.9,53.4 380.2,54.9 379.4,56.3 378.6,57.6 377.7,58.7 376.8,59.8 375.8,60.8 374.8,61.7 373.8,62.5 372.7,63.2 371.6,63.8 370.5,64.4 369.3,64.8 368.2,65.2 367,65.5 365.8,65.7 364.6,65.9 363.5,66 362.3,66" />
<path stroke="#000000" stroke-width="2" d="M 412.3,70" />
<path stroke="#000000" stroke-width="2" d="M 412.3,70 412.5,70 412.5,70.2 412.3,70.2 412.3,70" />
<path stroke="#000000" stroke-width="2" d="M 442.5,70" />
<path stroke="#000000" stroke-width="2" d="M 442.5,30 442.5,50 452.5,50 444.8,68.5 447.1,62.9 447.4,62.1 447.8,61.4 448.3,60.6 448.8,59.9 449.4,59.3 450.1,58.7 450.8,58.2 451.5,57.7 452.3,57.3 453.1,57 453.9,56.7 454.8,56.5" />
<path stroke="#000000" stroke-width="2" d="M 461.4,70" />
<path stroke="#000000" stroke-width="2" d="M 461.4,30 463.2,30 464.9,30.2 466.6,30.5 468.3,30.9 469.9,31.5 471.5,32.2 473,33.1 474.5,34.1 475.8,35.2 477,36.5 478.2,37.8 479.2,39.2 480,40.7 480.8,42.3 481.4,44 481.8,45.7 482.1,47.4 482.3,49.1 482.3,50.9 482.1,52.6 481.8,54.3 481.4,56 480.8,57.6 480,59.2 479.2,60.7 478.2,62.2 477,63.5 475.8,64.7 474.5,65.8 473,66.8 471.5,67.7 469.9,68.5 468.3,69.1 466.6,69.5 464.9,69.8 463.2,70" />
<path stroke="#000000" stroke-width="2" d="M 512.3,70" />
<path stroke="#000000" stroke-width="2" d="M 532.3,30 517,67" />
<path stroke="#000000" stroke-width="2" d="M 538.9,70" />
<path stroke="#000000" stroke-width="2" d="M 538.9,50 542.8,59.2" />
<path stroke="#000000" stroke-width="2" d="M 542.8,59.2 544.7,61.4 546,63.3 546.8,65 547.1,66.4 547,67.7 546.5,68.7 545.8,69.5 544.9,70 543.9,70.4 542.8,70.5 541.7,70.4 540.6,70 539.7,69.5 539,68.7 538.5,67.7 538.4,66.4 538.8,65 539.5,63.3 540.8,61.4 542.8,59.2 546.6,50" />
<path stroke="#000000" stroke-width="2" d="M 546.6,58" />
<path stroke="#000000" stroke-width="2" d="M 536.6,58 550.6,58" />
<path stroke="#000000" stroke-width="2" d="M 550.6,58 552.6,57.9 554.2,57.6 555.5,57.1 556.4,56.6 556.9,55.9 557.2,55.2 557.2,54.4 557.1,53.7 556.7,53 556.2,52.4 555.6,51.9 554.9,51.5 554.2,51.3 553.4,51.4 552.7,51.7 552,52.2 551.5,53.1 551,54.4 550.7,56 550.6,58 550.6,73 542.9,91.5" />
<path stroke="#000000" stroke-width="2" d="M 563.9,70" />
<path stroke="#000000" stroke-width="2" d="M 563.9,20 583.9,20 584.8,20 585.7,20.1 586.5,20.2 587.4,20.5 588.2,20.8 589,21.1 589.7,21.6 590.4,22.1 591.1,22.6 591.7,23.2 592.3,23.9 592.8,24.6 593.2,25.4 593.6,26.2 593.9,27 594.1,27.8 594.3,28.7 594.3,29.6 594.3,30.4 594.3,31.3 594.1,32.2 593.9,33 593.6,33.8 593.2,34.6 592.8,35.4 592.3,36.1 591.7,36.7 591.1,37.4 590.4,37.9 589.7,38.4 589,38.9 588.2,39.2 587.4,39.5 586.5,39.8 585.7,39.9 584.8,40" />
<path stroke="#000000" stroke-width="2" d="M 624.3,70" />
<path stroke="#000000" stroke-width="2" d="M 624.3,30 624.3,70 635.7,58.7" />
<path stroke="#000000" stroke-width="2" d="M 642.3,70" />
<path stroke="#000000" stroke-width="2" d="M 652.3,20 644.7,38.5" />
<path stroke="#000000" stroke-width="2" d="M 682.3,70" />
<path stroke="#000000" stroke-width="2" d="M 682.3,30 682.3,70 693.6,58.7" />
<path stroke="#000000" stroke-width="2" d="M 700.3,70" />
<path stroke="#000000" stroke-width="2" d="M 700.3,25" />
<path stroke="#000000" stroke-width="2" d="M 700.3,25 702.3,24.9 703.9,24.6 705.2,24.1 706.1,23.6 706.6,22.9 706.9,22.2 707,21.4 706.8,20.7 706.4,20 705.9,19.4 705.3,18.9 704.6,18.5 703.9,18.3 703.1,18.4 702.4,18.7 701.7,19.2 701.2,20.1 700.7,21.4 700.4,23 700.3,25 700.3,40" />
<path stroke="#000000" stroke-width="2" d="M 737,70" />
<path stroke="#000000" stroke-width="2" d="M 753,30 733.2,49.8 753,69.6" />
<path stroke="#000000" stroke-width="2" d="M 759.6,70" />
<path stroke="#000000" stroke-width="2" d="M 767.6,20" />
<path stroke="#000000" stroke-width="2" d="M 767.6,20 767.5,22 767.2,23.6 766.8,24.9 766.2,25.8 765.5,26.3 764.8,26.6 764,26.7 763.3,26.5 762.6,26.1 762,25.6 761.5,25 761.1,24.3 761,23.6 761,22.8 761.3,22.1 761.9,21.4 762.7,20.9 764,20.4 765.6,20.1 767.6,20 777.6,20" />
<path stroke="#000000" stroke-width="2" d="M 784.3,70" />
<path stroke="#000000" stroke-width="2" d="M 784.3,20 804.3,20" />
<path stroke="#000000" stroke-width="2" d="M 811,70" />
<path stroke="#000000" stroke-width="2" d="M 823,26 823,26.5 822.9,27 822.8,27.6 822.7,28.1 822.5,28.6 822.3,29 822,29.5 821.7,29.9 821.4,30.3 821,30.7 820.6,31 820.2,31.3 819.7,31.6 819.3,31.8 818.8,32 818.3,32.1 817.7,32.2 817.2,32.3 816.7,32.3 816.2,32.2 815.7,32.1 815.2,32 814.7,31.8 814.2,31.6 813.7,31.3 813.3,31 812.9,30.7 812.5,30.3 812.2,29.9 811.9,29.5 811.6,29 811.4,28.6 811.2,28.1 811.1,27.6 811,27 811,26.5 811,26 811,25.5 811.1,25 811.2,24.5 811.4,24 811.6,23.5 811.9,23 812.2,22.6 812.5,22.2 812.9,21.8 813.3,21.5 813.7,21.2 814.2,20.9 814.7,20.7 815.2,20.5 815.7,20.4 816.2,20.3 816.7,20.3 817.2,20.3 817.7,20.3 818.3,20.4 818.8,20.5 819.3,20.7 819.7,20.9 820.2,21.2 820.6,21.5 821,21.8 821.4,22.2 821.7,22.6 822,23 822.3,23.5 822.5,24 822.7,24.5 822.8,25 822.9,25.5 823,26 823,30" />
<path stroke="#000000" stroke-width="2" d="M 823,30 822.6,30.9 822.3,31.7 821.9,32.4 821.5,33.1 821.1,33.8 820.7,34.4 820.2,34.9 819.7,35.4 819.2,35.9 818.7,36.2 818.2,36.6 817.6,36.9 817.1,37.2 816.5,37.4 815.9,37.6 815.3,37.7 814.8,37.9 814.2,37.9 813.6,38 813,38" />
<path stroke="#000000" stroke-width="2" d="M 853,70" />
<path stroke="#000000" stroke-width="2" d="M 853,30 853,70" />
<path stroke="#000000" stroke-width="2" d="M 859.6,70" />
<path stroke="#000000" stroke-width="2" d="M 869.6,50 862,68.5" />
<path stroke="#000000" stroke-width="2" d="M 899.6,70" />
<path stroke="#000000" stroke-width="2" d="M 899.6,50 899.6,49.3 899.7,48.6 899.8,47.9 900,47.2 900.2,46.6 900.5,46 900.9,45.4 901.3,44.8 901.7,44.2 902.2,43.8 902.7,43.3 903.3,42.9 903.9,42.6 904.6,42.3 905.2,42 905.9,41.8 906.6,41.7 907.3,41.7 908,41.7 908.7,41.7 909.3,41.8 910,42 910.7,42.3 911.3,42.6 911.9,42.9 912.5,43.3 913,43.8 913.5,44.2 914,44.8 914.4,45.4 914.7,46 915,46.6 915.2,47.2 915.4,47.9 915.5,48.6 915.6,49.3" />
<path stroke="#000000" stroke-width="2" d="M 915.6,45.3" />
<path stroke="#000000" stroke-width="2" d="M 909.6,45.3 919.6,45.3 920.1,45.3 920.7,45.3 921.2,45.2 921.7,45 922.2,44.9 922.6,44.6 923.1,44.4 923.5,44.1 923.9,43.7 924.3,43.4 924.6,43 924.9,42.5 925.2,42.1 925.4,41.6 925.6,41.1 925.7,40.6 925.8,40.1 925.9,39.6 925.9,39 925.8,38.5 925.7,38 925.6,37.5 925.4,37 925.2,36.5 924.9,36.1 924.6,35.7 924.3,35.3 923.9,34.9 923.5,34.5 923.1,34.2 922.6,34 922.2,33.8 921.7,33.6 921.2,33.5 920.7,33.4 920.1,33.3 919.6,33.3 919.1,33.4 918.6,33.5 918.1,33.6 917.6,33.8 917.1,34 916.6,34.2 916.2,34.5 915.8,34.9 915.4,35.3 915.1,35.7 914.8,36.1 914.5,36.5 914.3,37 914.1,37.5 914,38 913.9,38.5 913.9,39 913.9,39.6 913.9,40.1 914,40.6 914.1,41.1 914.3,41.6 914.5,42.1 914.8,42.5 915.1,43 915.4,43.4 915.8,43.7 916.2,44.1 916.6,44.4 917.1,44.6 917.6,44.9 918.1,45 918.6,45.2 919.1,45.3 919.6,45.3 923.6,45.3" />
<path stroke="#000000" stroke-width="2" d="M 923.6,45.3 924.5,45 925.3,44.6 926,44.3 926.7,43.9 927.4,43.5 928,43 928.5,42.6 929,42.1 929.5,41.6 929.9,41.1 930.2,40.5 930.5,40 930.8,39.4 931,38.8 931.2,38.3 931.4,37.7 931.5,37.1 931.5,36.5 931.6,35.9 931.6,35.3" />
<path stroke="#000000" stroke-width="2" d="M 938.3,70" />
<path stroke="#000000" stroke-width="2" d="M 948.3,30 940.6,48.5 940.6,49.2 940.7,49.9 940.8,50.6 941,51.2 941.2,51.9 941.5,52.5 941.9,53.1 942.3,53.7 942.7,54.2 943.2,54.7 943.7,55.2 944.3,55.6 944.9,55.9 945.6,56.2 946.2,56.5 946.9,56.6 947.6,56.8 948.3,56.8 949,56.8 949.7,56.8 950.3,56.6 951,56.5 951.7,56.2 952.3,55.9 952.9,55.6 953.5,55.2 954,54.7 954.5,54.2 955,53.7 955.4,53.1 955.7,52.5 956,51.9 956.2,51.2 956.4,50.6 956.5,49.9 956.6,49.2" />
<path stroke="#000000" stroke-width="2" d="M 963.3,70" />
<path stroke="#000000" stroke-width="2" d="M 963.3,30 963.5,30 963.5,30.2 963.3,30.2 963.3,30" />
<path stroke="#000000" stroke-width="2" d="M 993.5,70" />
<path stroke="#000000" stroke-width="2" d="M 993.5,30 1003.5,30 1003.5,70" />
<path stroke="#000000" stroke-width="2" d="M 1010.1,70" />
<path stroke="#000000" stroke-width="2" d="M 1010.1,50 1010.1,70 1010.1,64 1010.1,63.1 1010.2,62.3 1010.4,61.4 1010.6,60.6 1010.9,59.7 1011.3,58.9 1011.7,58.2 1012.2,57.5 1012.8,56.8 1013.4,56.2 1014,55.6 1014.8,55.1 1015.5,54.7 1016.3,54.3 1017.1,54 1018,53.8 1018.8,53.6 1019.7,53.6 1019.7,57.6 1019.7,58.1 1019.7,58.6 1019.8,59.1 1020,59.6 1020.1,60.1 1020.4,60.6 1020.6,61.1 1020.9,61.5 1021.3,61.9 1021.6,62.3 1022,62.6 1022.5,62.9 1022.9,63.2 1023.4,63.4 1023.9,63.6 1024.4,63.7 1024.9,63.8 1025.4,63.8 1026,63.8 1026.5,63.8 1027,63.7 1027.5,63.6 1028,63.4 1028.5,63.2 1028.9,62.9 1029.3,62.6 1029.7,62.3 1030.1,61.9 1030.4,61.5 1030.7,61.1 1031,60.6 1031.2,60.1 1031.4,59.6 1031.5,59.1 1031.6,58.6 1031.7,58.1 1031.7,53.1 1031.7,73.1" />
<path stroke="#000000" stroke-width="2" d="M 1038.3,70" />
<path stroke="#000000" stroke-width="2" d="M 1048.3,50 1040.7,68.5" />
<path stroke="#000000" stroke-width="2" d="M 1078.3,70" />
<path stroke="#000000" stroke-width="2" d="M 1078.3,30 1093.7,67" />
<path stroke="#000000" stroke-width="2" d="M 1100.3,70" />
<path stroke="#000000" stroke-width="2" d="M 1120.3,30 1105,67 1109.6,55.9 1110.3,54.3 1111.1,52.7 1112,51.2 1113.1,49.9 1114.3,48.6 1115.5,47.4 1116.9,46.3 1118.4,45.4 1120,44.6 1121.6,43.9 1123.2,43.4 1124.9,43" />
<path stroke="#000000" stroke-width="2" d="M 1131.6,70" />
<path stroke="#000000" stroke-width="2" d="M 1131.6,20 1131.6,20.7 1131.7,21.4 1131.8,22.1 1132,22.8 1132.2,23.4 1132.5,24 1132.8,24.6 1133.2,25.2 1133.7,25.8 1134.2,26.2 1134.7,26.7 1135.3,27.1 1135.9,27.4 1136.5,27.7 1137.2,28 1137.9,28.2 1138.5,28.3 1139.2,28.3 1139.9,28.3 1140.6,28.3 1141.3,28.2 1142,28 1142.7,27.7 1143.3,27.4 1143.9,27.1 1144.5,26.7 1145,26.2 1145.5,25.8 1145.9,25.2 1146.3,24.6 1146.7,24 1147,23.4 1147.2,22.8 1147.4,22.1 1147.5,21.4 1147.6,20.7" />
<path stroke="#000000" stroke-width="2" d="M 1177.6,70" />
<path stroke="#000000" stroke-width="2" d="M 1187.6,30 1186.7,30 1185.8,30.1 1185,30.2 1184.1,30.5 1183.3,30.8 1182.5,31.1 1181.8,31.6 1181.1,32.1 1180.4,32.6 1179.8,33.2 1179.2,33.9 1178.7,34.6 1178.3,35.4 1177.9,36.2 1177.6,37 1177.4,37.8 1177.2,38.7 1177.2,39.6 1177.2,40.4 1177.2,41.3 1177.4,42.2 1177.6,43 1177.9,43.8 1178.3,44.6 1178.7,45.4 1179.2,46.1 1179.8,46.7 1180.4,47.4 1181.1,47.9 1181.8,48.4 1182.5,48.9 1183.3,49.2 1184.1,49.5 1185,49.8 1185.8,49.9 1186.7,50 1191.7,50 1191.7,70" />
<path stroke="#000000" stroke-width="2" d="M 1221.7,70" />
<path stroke="#000000" stroke-width="2" d="M 1241.7,70 1243.5,70 1245.2,69.8 1246.9,69.5 1248.6,69.1 1250.2,68.5 1251.8,67.8 1253.3,66.9 1254.8,65.9 1256.1,64.8 1257.3,63.5 1258.4,62.2 1259.4,60.8 1260.3,59.3 1261.1,57.7 1261.7,56 1262.1,54.3 1262.4,52.6 1262.6,50.9 1262.6,49.1 1262.4,47.4 1262.1,45.7 1261.7,44 1261.1,42.4 1260.3,40.8 1259.4,39.3 1258.4,37.8 1257.3,36.5 1256.1,35.3 1254.8,34.2 1253.3,33.2 1251.8,32.3 1250.2,31.5 1248.6,30.9 1246.9,30.5 1245.2,30.2 1243.5,30 1241.7,30 1240,30.2 1238.3,30.5 1236.6,30.9 1234.9,31.5 1233.3,32.3 1231.8,33.2 1230.4,34.2 1229.1,35.3 1227.8,36.5 1226.7,37.8 1225.7,39.3 1224.8,40.8 1224.1,42.4 1223.5,44 1223.1,45.7 1222.8,47.4 1222.6,49.1 1222.6,50.9 1222.8,52.6 1223.1,54.3 1223.5,56 1224.1,57.7 1224.8,59.3 1225.7,60.8 1226.7,62.2 1227.8,63.5 1229.1,64.8 1230.4,65.9 1231.8,66.9 1233.3,67.8 1234.9,68.5 1236.6,69.1 1238.3,69.5 1240,69.8 1241.7,70" />
<path stroke="#000000" stroke-width="2" d="M 1269.2,70" />
<path stroke="#000000" stroke-width="2" d="M 1279.2,50 1271.6,68.5" />
<path stroke="#000000" stroke-width="2" d="M 1309.2,70" />
</svg>