<svg xmlns="http://www.w3.org/2000/svg" width="1346.1051636418993" height="103.47759065022574" style="fill:none; stroke-linecap:round;">
    <rect width="100%" height="100%" fill="#FFFFFF" />
<path stroke="#000000" stroke-width="2" d="M 550,75" />
<path stroke="#000000" stroke-width="2" d="M 20,70 35.3,33 35.3,34.4 35.4,35.8 35.7,37.2 36,38.6 36.5,39.9 37.1,41.1 37.8,42.3 38.6,43.5 39.5,44.6 40.5,45.5 41.6,46.4 42.7,47.2 43.9,47.9 45.2,48.5 46.5,49 47.8,49.4 49.2,49.6 50.6,49.7 52,49.7 53.4,49.6 54.8,49.4 56.1,49 57.4,48.5 58.7,47.9 59.9,47.2 61,46.4 62.1,45.5 63.1,44.6 64,43.5 64.8,42.3 65.5,41.1 66.1,39.9 66.6,38.6 66.9,37.2 67.2,35.8 67.3,34.4" />
<path stroke="#000000" stroke-width="2" d="M 97.3,70" />
<path stroke="#000000" stroke-width="2" d="M 97.3,30 97.3,70 117.3,70" />
<path stroke="#000000" stroke-width="2" d="M 147.3,70" />
<path stroke="#000000" stroke-width="2" d="M 147.3,70 147.3,68.6 147.4,67.2 147.6,65.8 148,64.5 148.5,63.2 149.1,61.9 149.8,60.7 150.6,59.6 151.5,58.5 152.5,57.5 153.5,56.6 154.7,55.8 155.9,55.1 157.1,54.5 158.5,54 159.8,53.7 161.2,53.4 162.6,53.3 164,53.3 165.4,53.4 166.7,53.7 168.1,54 169.4,54.5 170.6,55.1 171.9,55.8 173,56.6 174.1,57.5 175.1,58.5 176,59.6 176.8,60.7 177.5,61.9 178,63.2 178.5,64.5 178.9,65.8 179.1,67.2 179.2,68.6" />
<path stroke="#000000" stroke-width="2" d="M 185.9,70" />
<path stroke="#000000" stroke-width="2" d="M 185.9,20 205.9,20" />
<path stroke="#000000" stroke-width="2" d="M 235.9,70" />
<path stroke="#000000" stroke-width="2" d="M 235.9,40" />
<path stroke="#000000" stroke-width="2" d="M 235.9,40 240,39.8 243.2,39.2 245.7,38.3 247.4,37.1 248.6,35.8 249.1,34.3 249.2,32.8 248.9,31.4 248.2,30 247.2,28.8 245.9,27.7 244.6,27 243.1,26.7 241.6,26.8 240.1,27.3 238.8,28.5 237.6,30.2 236.7,32.7 236.1,35.9 235.9,40 235.9,70" />
<path stroke="#000000" stroke-width="2" d="M 255.9,70" />
<path stroke="#000000" stroke-width="2" d="M 257.9,20 266.4,28.5" />
<path stroke="#000000" stroke-width="2" d="M 274.9,20 255.1,39.8" />
<path stroke="#000000" stroke-width="2" d="M 304.9,70" />
<path stroke="#000000" stroke-width="2" d="M 304.9,30 314.9,30 314.9,70" />
<path stroke="#000000" stroke-width="2" d="M 321.5,70" />
<path stroke="#000000" stroke-width="2" d="M 321.5,50 321.5,70 321.5,64 321.5,63.1 321.6,62.3 321.8,61.4 322,60.6 322.3,59.7 322.6,58.9 323.1,58.2 323.6,57.5 324.1,56.8 324.8,56.2 325.4,55.6 326.1,55.1 326.9,54.7 327.7,54.3 328.5,54 329.4,53.8 330.2,53.6 331.1,53.6" />
<path stroke="#000000" stroke-width="2" d="M 361.1,70" />
<path stroke="#000000" stroke-width="2" d="M 361.1,40" />
<path stroke="#000000" stroke-width="2" d="M 361.1,40 365.1,39.8 368.4,39.2 370.8,38.3 372.6,37.1 373.7,35.8 374.3,34.3 374.4,32.8 374,31.4 373.3,30 372.3,28.8 371.1,27.7 369.7,27 368.2,26.7 366.8,26.8 365.3,27.3 364,28.5 362.8,30.2 361.9,32.7 361.3,35.9 361.1,40 361.1,70" />
<path stroke="#000000" stroke-width="2" d="M 381.1,70" />
<path stroke="#000000" stroke-width="2" d="M 381.1,50 381.1,70 381.1,64 381.1,63.1 381.1,62.3 381.3,61.4 381.5,60.6 381.8,59.7 382.2,58.9 382.6,58.2 383.1,57.5 383.7,56.8 384.3,56.2 385,55.6 385.7,55.1 386.4,54.7 387.2,54.3 388,54 388.9,53.8 389.7,53.6 390.6,53.6 383,72.1" />
<path stroke="#000000" stroke-width="2" d="M 397.3,70" />
<path stroke="#000000" stroke-width="2" d="M 397.3,20 417.3,20" />
<path stroke="#000000" stroke-width="2" d="M 447.3,70" />
<path stroke="#000000" stroke-width="2" d="M 447.3,30 447.3,50 457.3,50" />
<path stroke="#000000" stroke-width="2" d="M 457.3,50 459.3,49.9 460.9,49.6 462.2,49.1 463,48.6 463.6,47.9 463.9,47.2 463.9,46.4 463.8,45.7 463.4,45 462.9,44.4 462.3,43.9 461.6,43.5 460.9,43.3 460.1,43.4 459.4,43.7 458.7,44.2 458.1,45.1 457.7,46.4 457.4,48 457.3,50 457.3,65" />
<path stroke="#000000" stroke-width="2" d="M 493.9,70" />
<path stroke="#000000" stroke-width="2" d="M 513.9,70 515.7,70 517.4,69.8 519.1,69.5 520.8,69.1 522.5,68.5 524,67.8 525.5,66.9 527,65.9 528.3,64.8 529.5,63.5 530.7,62.2 531.7,60.8 532.5,59.3 533.3,57.7 533.9,56 534.3,54.3 534.6,52.6 534.8,50.9 534.8,49.1 534.6,47.4 534.3,45.7 533.9,44 533.3,42.4 532.5,40.8 531.7,39.3 530.7,37.8 529.5,36.5 528.3,35.3 527,34.2 525.5,33.2 524,32.3 522.5,31.5 520.8,30.9 519.1,30.5 517.4,30.2 515.7,30 513.9,30 512.2,30.2 510.5,30.5 508.8,30.9 507.1,31.5 505.6,32.3 504.1,33.2 502.6,34.2 501.3,35.3 500.1,36.5 498.9,37.8 497.9,39.3 497.1,40.8 496.3,42.4 495.7,44 495.3,45.7 495,47.4 494.8,49.1 494.8,50.9 495,52.6 495.3,54.3 495.7,56 496.3,57.7 497.1,59.3 497.9,60.8 498.9,62.2 500.1,63.5 501.3,64.8 502.6,65.9 504.1,66.9 505.6,67.8 507.1,68.5 508.8,69.1 510.5,69.5 512.2,69.8 513.9,70" />
<path stroke="#000000" stroke-width="2" d="M 541.5,70" />
<path stroke="#000000" stroke-width="2" d="M 551.5,20 543.8,38.5" />
<path stroke="#000000" stroke-width="2" d="M 581.5,70" />
<path stroke="#000000" stroke-width="2" d="M 581.5,30 596.8,67" />
<path stroke="#000000" stroke-width="2" d="M 603.4,70" />
<path stroke="#000000" stroke-width="2" d="M 603.4,30 603.4,70" />
<path stroke="#000000" stroke-width="2" d="M 610.1,70" />
<path stroke="#000000" stroke-width="2" d="M 610.1,20 610.1,20.7 610.2,21.4 610.3,22.1 610.5,22.8 610.7,23.4 611,24 611.3,24.6 611.7,25.2 612.2,25.8 612.7,26.2 613.2,26.7 613.8,27.1 614.4,27.4 615,27.7 615.7,28 616.4,28.2 617,28.3 617.7,28.3 618.4,28.3 619.1,28.3 619.8,28.2 620.5,28 621.1,27.7 621.8,27.4 622.4,27.1 623,26.7 623.5,26.2 624,25.8 624.4,25.2 624.8,24.6 625.2,24 625.5,23.4 625.7,22.8 625.9,22.1 626,21.4 626.1,20.7" />
<path stroke="#000000" stroke-width="2" d="M 632.7,70" />
<path stroke="#000000" stroke-width="2" d="M 632.7,30 642.7,30 642.7,70" />
<path stroke="#000000" stroke-width="2" d="M 672.7,70" />
<path stroke="#000000" stroke-width="2" d="M 672.7,30 712.7,30" />
<path stroke="#000000" stroke-width="2" d="M 742.7,70" />
<path stroke="#000000" stroke-width="2" d="M 742.7,40 742.9,40 742.9,40.2 742.7,40.2 742.7,40" />
<path stroke="#000000" stroke-width="2" d="M 749.6,70" />
<path stroke="#000000" stroke-width="2" d="M 749.6,50 757.3,31.5 762.3,31.5 762.3,51.5 754.6,70 756.9,64.5 757.2,63.7 757.6,62.9 758.1,62.1 758.6,61.4 759.2,60.8 759.9,60.2 760.6,59.7 761.3,59.2 762.1,58.8 762.9,58.5 763.7,58.2 764.6,58 764.6,58.7 764.6,59.4 764.7,60.1 764.9,60.8 765.2,61.4 765.5,62.1 765.8,62.7 766.2,63.2 766.7,63.8 767.2,64.3 767.7,64.7 768.3,65.1 768.9,65.5 769.5,65.8 770.2,66 770.8,66.2 771.5,66.3 772.2,66.4 772.9,66.4 773.6,66.3 774.3,66.2 775,66 775.6,65.8 776.3,65.5 776.9,65.1 777.4,64.7 778,64.3 778.5,63.8 778.9,63.2 779.3,62.7 779.7,62.1 779.9,61.4 780.2,60.8 780.4,60.1 780.5,59.4 780.6,58.7" />
<path stroke="#000000" stroke-width="2" d="M 787.2,70" />
<path stroke="#000000" stroke-width="2" d="M 787.2,30 797.2,30 797.2,70" />
<path stroke="#000000" stroke-width="2" d="M 827.2,70" />
<path stroke="#000000" stroke-width="2" d="M 843.2,30 823.4,49.8 843.2,69.6" />
<path stroke="#000000" stroke-width="2" d="M 849.9,70" />
<path stroke="#000000" stroke-width="2" d="M 849.9,25" />
<path stroke="#000000" stroke-width="2" d="M 849.9,25 851.9,24.9 853.5,24.6 854.8,24.1 855.6,23.6 856.2,22.9 856.5,22.2 856.5,21.4 856.4,20.7 856,20 855.5,19.4 854.9,18.9 854.2,18.5 853.5,18.3 852.7,18.4 852,18.7 851.3,19.2 850.7,20.1 850.3,21.4 850,23 849.9,25 849.9,40" />
<path stroke="#000000" stroke-width="2" d="M 886.5,70" />
<path stroke="#000000" stroke-width="2" d="M 886.5,30 886.5,70" />
<path stroke="#000000" stroke-width="2" d="M 893.2,70" />
<path stroke="#000000" stroke-width="2" d="M 893.2,30 933.2,30" />
<path stroke="#000000" stroke-width="2" d="M 963.2,70" />
<path stroke="#000000" stroke-width="2" d="M 963.2,30 963.2,70 963.2,58 963.2,56.3 963.4,54.5 963.7,52.8 964.1,51.1 964.7,49.5 965.4,47.9 966.3,46.4 967.3,45 968.4,43.6 969.7,42.4 971,41.3 972.4,40.3 974,39.4 975.5,38.7 977.2,38.1 978.9,37.6 980.6,37.3 982.3,37.1" />
<path stroke="#000000" stroke-width="2" d="M 989,70" />
<path stroke="#000000" stroke-width="2" d="M 989,40 996.6,21.5 1001.6,21.5 1001.6,41.5" />
<path stroke="#000000" stroke-width="2" d="M 1008.3,70" />
<path stroke="#000000" stroke-width="2" d="M 1008.3,30 1008.3,50 1008.3,44 1008.3,43.1 1008.4,42.3 1008.5,41.4 1008.8,40.6 1009.1,39.7 1009.4,38.9 1009.9,38.2 1010.4,37.5 1010.9,36.8 1011.5,36.2 1012.2,35.6 1012.9,35.1 1013.7,34.7 1014.5,34.3 1015.3,34 1016.1,33.8 1017,33.6 1017.9,33.6 1025.5,52.1" />
<path stroke="#000000" stroke-width="2" d="M 1025.5,52.1 1026.9,52.2 1028.2,52.6 1029.3,53.3 1030.3,54.1 1031.1,55.2 1031.8,56.4 1032.3,57.7 1032.7,59.1 1032.9,60.6 1033,62.1 1032.9,63.5 1032.7,65 1032.3,66.4 1031.8,67.7 1031.1,68.9 1030.3,70 1029.3,70.8 1028.2,71.5 1026.9,71.9 1025.5,72.1" />
<path stroke="#000000" stroke-width="2" d="M 1063,70" />
<path stroke="#000000" stroke-width="2" d="M 1063,30 1083,30" />
<path stroke="#000000" stroke-width="2" d="M 1083,30 1084.4,30.1 1085.7,30.6 1086.8,31.2 1087.8,32.1 1088.6,33.1 1089.3,34.3 1089.8,35.6 1090.2,37 1090.4,38.5 1090.5,40 1090.4,41.5 1090.2,43 1089.8,44.4 1089.3,45.7 1088.6,46.9 1087.8,47.9 1086.8,48.8 1085.7,49.4 1084.4,49.9 1083,50" />
<path stroke="#000000" stroke-width="2" d="M 1120.5,70" />
<path stroke="#000000" stroke-width="2" d="M 1120.5,30 1120.5,70 1140.5,70" />
<path stroke="#000000" stroke-width="2" d="M 1170.5,70" />
<path stroke="#000000" stroke-width="2" d="M 1186.5,30 1166.7,49.8 1186.5,69.6" />
<path stroke="#000000" stroke-width="2" d="M 1193.2,70" />
<path stroke="#000000" stroke-width="2" d="M 1201.2,50" />
<path stroke="#000000" stroke-width="2" d="M 1201.2,50 1201.1,52 1200.8,53.6 1200.3,54.9 1199.7,55.8 1199.1,56.3 1198.3,56.6 1197.6,56.7 1196.9,56.5 1196.2,56.1 1195.6,55.6 1195,55 1194.7,54.3 1194.5,53.6 1194.6,52.8 1194.8,52.1 1195.4,51.4 1196.3,50.9 1197.5,50.4 1199.1,50.1 1201.2,50 1211.2,50" />
<path stroke="#000000" stroke-width="2" d="M 1241.2,70" />
<path stroke="#000000" stroke-width="2" d="M 1245.2,30 1262.1,47" />
<path stroke="#000000" stroke-width="2" d="M 1279.1,30 1239.5,69.6" />
<path stroke="#000000" stroke-width="2" d="M 1285.8,70" />
<path stroke="#000000" stroke-width="2" d="M 1285.8,50 1290.8,50 1290.8,70" />
<path stroke="#000000" stroke-width="2" d="M 1297.4,70" />
<path stroke="#000000" stroke-width="2" d="M 1297.4,20 1297.4,24 1297.4,24.5 1297.5,25 1297.6,25.6 1297.7,26.1 1297.9,26.6 1298.1,27 1298.4,27.5 1298.7,27.9 1299,28.3 1299.4,28.7 1299.8,29 1300.2,29.3 1300.7,29.6 1301.1,29.8 1301.6,30 1302.1,30.1 1302.7,30.2 1303.2,30.3 1303.7,30.3 1304.2,30.2 1304.7,30.1 1305.2,30 1305.7,29.8 1306.2,29.6 1306.7,29.3 1307.1,29 1307.5,28.7 1307.9,28.3 1308.2,27.9 1308.5,27.5 1308.8,27 1309,26.6 1309.2,26.1 1309.3,25.6 1309.4,25 1309.4,24.5 1309.4,19.5 1309.4,39.5" />
<path stroke="#000000" stroke-width="2" d="M 1316.1,70" />
<path stroke="#000000" stroke-width="2" d="M 1326.1,50 1318.5,68.5" />
<path stroke="#000000" stroke-width="2" d="M 1318.5,68.5 1320.5,68.4 1322.1,68.1 1323.3,67.6 1324.2,67 1324.8,66.4 1325.1,65.6 1325.1,64.9 1324.9,64.2 1324.6,63.5 1324.1,62.9 1323.5,62.4 1322.8,62 1322,61.8 1321.3,61.9 1320.6,62.1 1319.9,62.7 1319.3,63.6 1318.9,64.8 1318.6,66.4 1318.5,68.5 1318.5,83.5" />
<path stroke="#000000" stroke-width="2" d="M 1356.1,70" />
</svg>