<svg xmlns="http://www.w3.org/2000/svg" width="1320.1234348189573" height="109.30208980215463" style="fill:none; stroke-linecap:round;">
    <rect width="100%" height="100%" fill="#FFFFFF" />
<path stroke="#000000" stroke-width="2" d="M 550,75" />
<path stroke="#000000" stroke-width="2" d="M 40,30 24.7,67" />
<path stroke="#000000" stroke-width="2" d="M 46.7,70" />
<path stroke="#000000" stroke-width="2" d="M 46.7,50 46.7,70" />
<path stroke="#000000" stroke-width="2" d="M 53.3,70" />
<path stroke="#000000" stroke-width="2" d="M 53.3,20 53.5,20 53.5,20.2 53.3,20.2 53.3,20" />
<path stroke="#000000" stroke-width="2" d="M 83.5,70" />
<path stroke="#000000" stroke-width="2" d="M 83.5,40 83.7,40 83.7,40.2 83.5,40.2 83.5,40" />
<path stroke="#000000" stroke-width="2" d="M 90.4,70" />
<path stroke="#000000" stroke-width="2" d="M 90.4,30" />
<path stroke="#000000" stroke-width="2" d="M 90.4,30 93.2,30.3 95.8,31.1 98.1,32.4 100,34.2 101.7,36.2 103,38.6 104.1,41.3 104.8,44.1 105.3,47 105.4,50 105.2,53 104.8,55.9 104.1,58.7 103,61.4 101.7,63.8 100,65.8 98.1,67.6 95.8,68.9 93.2,69.7 90.4,70 91.6,68.8 93,67.6 94.4,66.6 95.9,65.8 97.5,65 99.1,64.4 100.8,64 102.5,63.7 104.3,63.5 106,63.5 107.8,63.7 109.5,64 111.2,64.4 112.8,65 114.4,65.8" />
<path stroke="#000000" stroke-width="2" d="M 121,70" />
<path stroke="#000000" stroke-width="2" d="M 121,20 128.7,38.5" />
<path stroke="#000000" stroke-width="2" d="M 158.7,70" />
<path stroke="#000000" stroke-width="2" d="M 168.7,30 167.8,30 167,30.1 166.1,30.2 165.3,30.5 164.4,30.8 163.6,31.1 162.9,31.6 162.2,32.1 161.5,32.6 160.9,33.2 160.3,33.9 159.8,34.6 159.4,35.4 159,36.2 158.7,37 158.5,37.8 158.4,38.7 158.3,39.6 158.3,40.4 158.4,41.3 158.5,42.2 158.7,43 159,43.8 159.4,44.6 159.8,45.4 160.3,46.1 160.9,46.7 161.5,47.4 162.2,47.9 162.9,48.4 163.6,48.9 164.4,49.2 165.3,49.5 166.1,49.8 167,49.9 167.8,50 167.8,70 167.8,64 167.8,63.1 167.9,62.2 168.1,61.4 168.3,60.5 168.6,59.7 168.9,58.9 169.4,58.2 169.9,57.5 170.4,56.8 171.1,56.2 171.7,55.6 172.4,55.1 173.2,54.7 174,54.3 174.8,54 175.7,53.8 176.5,53.6 177.4,53.6" />
<path stroke="#000000" stroke-width="2" d="M 207.4,70" />
<path stroke="#000000" stroke-width="2" d="M 207.4,40" />
<path stroke="#000000" stroke-width="2" d="M 207.4,40 211.4,39.8 214.7,39.2 217.1,38.3 218.9,37.1 220,35.8 220.6,34.3 220.7,32.8 220.3,31.4 219.6,30 218.6,28.8 217.4,27.7 216,27 214.5,26.7 213.1,26.8 211.6,27.3 210.3,28.5 209.1,30.2 208.2,32.7 207.6,35.9 207.4,40 207.4,70" />
<path stroke="#000000" stroke-width="2" d="M 227.4,70" />
<path stroke="#000000" stroke-width="2" d="M 227.4,50 235,68.5" />
<path stroke="#000000" stroke-width="2" d="M 265,70" />
<path stroke="#000000" stroke-width="2" d="M 265,30 275,30 275,70" />
<path stroke="#000000" stroke-width="2" d="M 281.7,70" />
<path stroke="#000000" stroke-width="2" d="M 281.7,70 281.7,69.3 281.7,68.6 281.9,67.9 282,67.2 282.3,66.6 282.6,66 282.9,65.4 283.3,64.8 283.8,64.2 284.3,63.8 284.8,63.3 285.4,62.9 286,62.6 286.6,62.3 287.3,62 287.9,61.8 288.6,61.7 289.3,61.7 290,61.7 290.7,61.7 291.4,61.8 292.1,62 292.7,62.3 293.4,62.6 294,62.9 294.5,63.3 295.1,63.8 295.6,64.2 296,64.8 296.4,65.4 296.8,66 297.1,66.6 297.3,67.2 297.5,67.9 297.6,68.6 297.7,69.3" />
<path stroke="#000000" stroke-width="2" d="M 297.7,69.3 299.1,69.4 300.4,69.9 301.5,70.5 302.5,71.4 303.3,72.4 304,73.6 304.5,74.9 304.9,76.3 305.1,77.8 305.2,79.3 305.1,80.8 304.9,82.3 304.5,83.7 304,85 303.3,86.2 302.5,87.2 301.5,88.1 300.4,88.7 299.1,89.2 297.7,89.3" />
<path stroke="#000000" stroke-width="2" d="M 335.2,70" />
<path stroke="#000000" stroke-width="2" d="M 335.2,30" />
<path stroke="#000000" stroke-width="2" d="M 335.2,30 335.3,30 335.7,30 336.4,30 337.2,30.1 338.3,30.2 339.5,30.3 340.8,30.4 342.2,30.6 343.7,30.9 345.2,31.2 346.7,31.7 348.1,32.2 349.5,32.7 350.8,33.4 352,34.2 353.1,35.1 353.9,36.1 354.6,37.3 355,38.6 355.2,40" />
<path stroke="#000000" stroke-width="2" d="M 355.2,40 357.1,42.1 358.4,44.1 359.2,45.7 359.5,47.2 359.4,48.4 358.9,49.4 358.2,50.2 357.3,50.8 356.3,51.1 355.2,51.2 354,51.1 353,50.8 352.1,50.2 351.4,49.5 350.9,48.4 350.8,47.2 351.1,45.7 351.9,44.1 353.2,42.1 355.2,40" />
<path stroke="#000000" stroke-width="2" d="M 355.2,40 355.2,39.9 355.2,39.7 355.2,39.4 355.3,39 355.5,38.4 355.7,37.8 356,37.2 356.4,36.5 357,35.7 357.7,35 358.5,34.3 359.5,33.5 360.7,32.8 362,32.2 363.6,31.6 365.4,31 367.4,30.6 369.7,30.3 372.3,30.1 375.2,30" />
<path stroke="#000000" stroke-width="2" d="M 375.2,30 375.1,32 374.8,33.6 374.3,34.9 373.7,35.8 373.1,36.3 372.3,36.6 371.6,36.7 370.8,36.5 370.2,36.1 369.5,35.6 369,35 368.7,34.3 368.5,33.6 368.5,32.8 368.8,32.1 369.4,31.4 370.3,30.9 371.5,30.4 373.1,30.1 375.2,30 385.2,30" />
<path stroke="#000000" stroke-width="2" d="M 415.2,70" />
<path stroke="#000000" stroke-width="2" d="M 431.2,30 411.4,49.8 431.2,69.6" />
<path stroke="#000000" stroke-width="2" d="M 437.8,70" />
<path stroke="#000000" stroke-width="2" d="M 437.8,20 437.8,20.7 437.9,21.4 438,22.1 438.2,22.8 438.4,23.4 438.7,24 439.1,24.6 439.5,25.2 439.9,25.8 440.4,26.2 441,26.7 441.5,27.1 442.1,27.4 442.8,27.7 443.4,28 444.1,28.2 444.8,28.3 445.5,28.3 446.2,28.3 446.9,28.3 447.6,28.2 448.2,28 448.9,27.7 449.5,27.4 450.1,27.1 450.7,26.7 451.2,26.2 451.7,25.8 452.2,25.2 452.6,24.6 452.9,24 453.2,23.4 453.5,22.8 453.6,22.1 453.8,21.4 453.8,20.7" />
<path stroke="#000000" stroke-width="2" d="M 460.5,70" />
<path stroke="#000000" stroke-width="2" d="M 460.5,55" />
<path stroke="#000000" stroke-width="2" d="M 460.5,55 462.5,54.9 464.1,54.6 465.4,54.1 466.2,53.6 466.8,52.9 467.1,52.2 467.1,51.4 467,50.7 466.6,50 466.1,49.4 465.5,48.9 464.8,48.5 464.1,48.3 463.3,48.4 462.6,48.7 461.9,49.2 461.3,50.1 460.9,51.4 460.6,53 460.5,55 460.5,70" />
<path stroke="#000000" stroke-width="2" d="M 473.8,70" />
<path stroke="#000000" stroke-width="2" d="M 473.8,30 513.8,30" />
<path stroke="#000000" stroke-width="2" d="M 520.5,70" />
<path stroke="#000000" stroke-width="2" d="M 528.5,20 528.5,35" />
<path stroke="#000000" stroke-width="2" d="M 528.5,35 528.4,37 528.1,38.6 527.6,39.9 527,40.8 526.4,41.3 525.6,41.6 524.9,41.7 524.1,41.5 523.5,41.1 522.8,40.6 522.3,40 522,39.3 521.8,38.6 521.9,37.8 522.1,37.1 522.7,36.4 523.6,35.9 524.8,35.4 526.4,35.1 528.5,35 548.5,35" />
<path stroke="#000000" stroke-width="2" d="M 578.5,70" />
<path stroke="#000000" stroke-width="2" d="M 578.5,70 578.7,70 578.7,70.2 578.5,70.2 578.5,70" />
<path stroke="#000000" stroke-width="2" d="M 608.7,70" />
<path stroke="#000000" stroke-width="2" d="M 608.7,30 608.7,50 618.7,50 611,68.5" />
<path stroke="#000000" stroke-width="2" d="M 611,68.5 613,68.4 614.7,68.1 615.9,67.6 616.8,67 617.3,66.4 617.6,65.6 617.7,64.9 617.5,64.2 617.1,63.5 616.6,62.9 616,62.4 615.3,62 614.6,61.8 613.9,61.9 613.1,62.1 612.5,62.7 611.9,63.6 611.4,64.8 611.1,66.4 611,68.5 611,83.5" />
<path stroke="#000000" stroke-width="2" d="M 648.7,70" />
<path stroke="#000000" stroke-width="2" d="M 648.7,30 648.7,70 660,58.7" />
<path stroke="#000000" stroke-width="2" d="M 666.6,70" />
<path stroke="#000000" stroke-width="2" d="M 676.6,20 669,38.5" />
<path stroke="#000000" stroke-width="2" d="M 706.6,70" />
<path stroke="#000000" stroke-width="2" d="M 706.6,30 706.6,31.4 706.8,32.8 707,34.2 707.4,35.5 707.9,36.8 708.4,38.1 709.1,39.3 709.9,40.4 710.8,41.5 711.8,42.5 712.9,43.4 714,44.2 715.2,44.9 716.5,45.5 717.8,46 719.2,46.3 720.5,46.6 721.9,46.7 723.3,46.7 724.7,46.6 726.1,46.3 727.4,46 728.8,45.5 730,44.9 731.2,44.2 732.4,43.4 733.4,42.5 734.4,41.5 735.3,40.4 736.1,39.3 736.8,38.1 737.4,36.8 737.9,35.5 738.3,34.2 738.5,32.8 738.6,31.4" />
<path stroke="#000000" stroke-width="2" d="M 745.3,70" />
<path stroke="#000000" stroke-width="2" d="M 745.3,20" />
<path stroke="#000000" stroke-width="2" d="M 745.3,20 746.7,20.1 748,20.6 749.1,21.2 750.1,22.1 750.9,23.1 751.6,24.3 752.1,25.6 752.5,27 752.7,28.5 752.8,30 752.7,31.5 752.5,33 752.1,34.4 751.6,35.7 750.9,36.9 750.1,37.9 749.1,38.8 748,39.4 746.7,39.9 745.3,40" />
<path stroke="#000000" stroke-width="2" d="M 745.3,40 747.3,39.9 748.9,39.6 750.2,39.1 751,38.6 751.6,37.9 751.9,37.2 751.9,36.4 751.8,35.7 751.4,35 750.9,34.4 750.3,33.9 749.6,33.5 748.9,33.3 748.1,33.4 747.4,33.7 746.7,34.2 746.1,35.1 745.7,36.4 745.4,38 745.3,40 745.3,55" />
<path stroke="#000000" stroke-width="2" d="M 782.8,70" />
<path stroke="#000000" stroke-width="2" d="M 782.8,30 798.1,67" />
<path stroke="#000000" stroke-width="2" d="M 804.8,70" />
<path stroke="#000000" stroke-width="2" d="M 814.8,20 807.1,38.5" />
<path stroke="#000000" stroke-width="2" d="M 821.4,70" />
<path stroke="#000000" stroke-width="2" d="M 821.4,50 821.4,70" />
<path stroke="#000000" stroke-width="2" d="M 828.1,70" />
<path stroke="#000000" stroke-width="2" d="M 828.1,20 828.1,20.7 828.2,21.4 828.3,22.1 828.5,22.8 828.7,23.4 829,24 829.3,24.6 829.7,25.2 830.2,25.8 830.7,26.2 831.2,26.7 831.8,27.1 832.4,27.4 833,27.7 833.7,28 834.4,28.2 835,28.3 835.7,28.3 836.4,28.3 837.1,28.3 837.8,28.2 838.5,28 839.1,27.7 839.8,27.4 840.4,27.1 841,26.7 841.5,26.2 842,25.8 842.4,25.2 842.8,24.6 843.2,24 843.5,23.4 843.7,22.8 843.9,22.1 844,21.4 844.1,20.7" />
<path stroke="#000000" stroke-width="2" d="M 850.7,70" />
<path stroke="#000000" stroke-width="2" d="M 850.7,30 866.1,67 881.4,30" />
<path stroke="#000000" stroke-width="2" d="M 911.4,70" />
<path stroke="#000000" stroke-width="2" d="M 911.4,70 911.6,70 911.6,70.2 911.4,70.2 911.4,70" />
<path stroke="#000000" stroke-width="2" d="M 918.2,70" />
<path stroke="#000000" stroke-width="2" d="M 934.2,30 914.4,49.8 934.2,69.6" />
<path stroke="#000000" stroke-width="2" d="M 940.9,70" />
<path stroke="#000000" stroke-width="2" d="M 940.9,50 940.9,50.7 941,51.4 941.1,52.1 941.3,52.8 941.5,53.4 941.8,54 942.1,54.6 942.5,55.2 943,55.8 943.5,56.2 944,56.7 944.6,57.1 945.2,57.4 945.8,57.7 946.5,58 947.2,58.2 947.8,58.3 948.5,58.3 949.2,58.3 949.9,58.3 950.6,58.2 951.3,58 951.9,57.7 952.6,57.4 953.2,57.1 953.8,56.7 954.3,56.2 954.8,55.8 955.2,55.2 955.6,54.6 956,54 956.3,53.4 956.5,52.8 956.7,52.1 956.8,51.4 956.9,50.7" />
<path stroke="#000000" stroke-width="2" d="M 986.9,70" />
<path stroke="#000000" stroke-width="2" d="M 1010.9,42" />
<path stroke="#000000" stroke-width="2" d="M 1010.9,42 1006.8,41.8 1003.6,41.2 1001.1,40.3 999.4,39.1 998.2,37.8 997.6,36.3 997.6,34.8 997.9,33.4 998.6,32 999.6,30.8 1000.9,29.7 1002.2,29 1003.7,28.7 1005.2,28.8 1006.7,29.3 1008,30.5 1009.2,32.2 1010.1,34.7 1010.7,37.9 1010.9,42 1010.9,50" />
<path stroke="#000000" stroke-width="2" d="M 1010.9,50 1010.2,51.7 1009.6,53.4 1008.8,54.9 1008,56.3 1007.2,57.6 1006.3,58.7 1005.4,59.8 1004.4,60.8 1003.4,61.7 1002.4,62.5 1001.3,63.2 1000.2,63.8 999.1,64.4 998,64.8 996.8,65.2 995.6,65.5 994.5,65.7 993.3,65.9 992.1,66 990.9,66" />
<path stroke="#000000" stroke-width="2" d="M 1040.9,70" />
<path stroke="#000000" stroke-width="2" d="M 1040.9,30 1040.9,70 1052.2,58.7" />
<path stroke="#000000" stroke-width="2" d="M 1058.9,70" />
<path stroke="#000000" stroke-width="2" d="M 1058.9,25" />
<path stroke="#000000" stroke-width="2" d="M 1058.9,25 1060.9,24.9 1062.5,24.6 1063.7,24.1 1064.6,23.6 1065.2,22.9 1065.5,22.2 1065.5,21.4 1065.3,20.7 1065,20 1064.5,19.4 1063.9,18.9 1063.2,18.5 1062.4,18.3 1061.7,18.4 1061,18.7 1060.3,19.2 1059.7,20.1 1059.3,21.4 1059,23 1058.9,25 1058.9,40" />
<path stroke="#000000" stroke-width="2" d="M 1095.5,70" />
<path stroke="#000000" stroke-width="2" d="M 1095.5,30 1135.5,30" />
<path stroke="#000000" stroke-width="2" d="M 1165.5,70" />
<path stroke="#000000" stroke-width="2" d="M 1165.5,30 1175.5,30 1175.5,70" />
<path stroke="#000000" stroke-width="2" d="M 1182.2,70" />
<path stroke="#000000" stroke-width="2" d="M 1182.2,40 1182.2,39.3 1182.2,38.6 1182.4,37.9 1182.5,37.2 1182.8,36.6 1183.1,36 1183.4,35.4 1183.8,34.8 1184.3,34.2 1184.8,33.8 1185.3,33.3 1185.9,32.9 1186.5,32.6 1187.1,32.3 1187.8,32 1188.4,31.8 1189.1,31.7 1189.8,31.7 1190.5,31.7 1191.2,31.7 1191.9,31.8 1192.6,32 1193.2,32.3 1193.9,32.6 1194.5,32.9 1195,33.3 1195.6,33.8 1196.1,34.2 1196.5,34.8 1196.9,35.4 1197.3,36 1197.6,36.6 1197.8,37.2 1198,37.9 1198.1,38.6 1198.2,39.3 1190.5,57.8" />
<path stroke="#000000" stroke-width="2" d="M 1228.2,70" />
<path stroke="#000000" stroke-width="2" d="M 1228.2,30 1228.2,70 1228.2,58 1228.2,56.3 1228.3,54.5 1228.6,52.8 1229.1,51.1 1229.7,49.5 1230.4,47.9 1231.3,46.4 1232.3,45 1233.4,43.6 1234.6,42.4 1236,41.3 1237.4,40.3 1238.9,39.4 1240.5,38.7 1242.1,38.1 1243.8,37.6 1245.5,37.3 1247.3,37.1" />
<path stroke="#000000" stroke-width="2" d="M 1253.9,70" />
<path stroke="#000000" stroke-width="2" d="M 1253.9,20 1253.9,20.7 1254,21.4 1254.1,22.1 1254.3,22.8 1254.5,23.4 1254.8,24 1255.2,24.6 1255.6,25.2 1256,25.8 1256.5,26.2 1257.1,26.7 1257.6,27.1 1258.2,27.4 1258.9,27.7 1259.5,28 1260.2,28.2 1260.9,28.3 1261.6,28.3 1262.3,28.3 1263,28.3 1263.7,28.2 1264.3,28 1265,27.7 1265.6,27.4 1266.2,27.1 1266.8,26.7 1267.3,26.2 1267.8,25.8 1268.3,25.2 1268.7,24.6 1269,24 1269.3,23.4 1269.6,22.8 1269.7,22.1 1269.9,21.4 1269.9,20.7" />
<path stroke="#000000" stroke-width="2" d="M 1299.9,70" />
<path stroke="#000000" stroke-width="2" d="M 1299.9,70 1300.1,70 1300.1,70.2 1299.9,70.2 1299.9,70" />
<path stroke="#000000" stroke-width="2" d="M 1330.1,70" />
</svg>