<svg xmlns="http://www.w3.org/2000/svg" width="1118.9742171408202" height="108.0" style="fill:none; stroke-linecap:round;">
    <rect width="100%" height="100%" fill="#FFFFFF" />
<path stroke="#000000" stroke-width="2" d="M 550,75" />
<path stroke="#000000" stroke-width="2" d="M 20,70 20.2,70 20.2,70.2 20,70.2 20,70" />
<path stroke="#000000" stroke-width="2" d="M 26.9,70" />
<path stroke="#000000" stroke-width="2" d="M 28.9,50 34.2,37.1 34.4,36.7 34.5,36.4 34.5,36.1 34.6,35.7 34.6,35.4 34.6,35 34.5,34.7 34.5,34.3 34.4,34 34.2,33.7 34.1,33.4 33.9,33.1 33.7,32.8 33.4,32.5 33.2,32.3 32.9,32.1 32.6,31.9 32.3,31.7 32,31.6 31.6,31.5 31.3,31.4 30.9,31.4 30.6,31.4 30.3,31.4 29.9,31.4 29.6,31.5 29.2,31.6 28.9,31.7 28.6,31.9 28.3,32.1 28,32.3 27.8,32.5 27.5,32.8 27.3,33.1 27.1,33.4 27,33.7 26.8,34 26.7,34.3 26.7,34.7 26.6,35 26.6,35.4 26.6,35.7 26.7,36.1 26.7,36.4 26.8,36.7 27,37.1 27.1,37.4 27.3,37.7 27.5,37.9 27.8,38.2 28,38.4 28.3,38.7 28.6,38.8 28.9,39 29.2,39.1 29.6,39.2 29.9,39.3 30.3,39.4 30.6,39.4 30.9,39.4 43.9,34 43.9,34.7 43.9,35.4 44.1,36.1 44.2,36.8 44.5,37.4 44.8,38 45.1,38.6 45.5,39.2 46,39.8 46.5,40.2 47,40.7 47.6,41.1 48.2,41.4 48.8,41.7 49.5,42 50.1,42.2 50.8,42.3 51.5,42.3 52.2,42.3 52.9,42.3 53.6,42.2 54.3,42 54.9,41.7 55.6,41.4 56.2,41.1 56.7,40.7 57.3,40.2 57.8,39.8 58.2,39.2 58.6,38.6 59,38 59.3,37.4 59.5,36.8 59.7,36.1 59.8,35.4 59.9,34.7" />
<path stroke="#000000" stroke-width="2" d="M 66.5,70" />
<path stroke="#000000" stroke-width="2" d="M 66.5,20 74.2,38.5" />
<path stroke="#000000" stroke-width="2" d="M 74.2,28.5" />
<path stroke="#000000" stroke-width="2" d="M 63.2,28.5 77.2,28.5" />
<path stroke="#000000" stroke-width="2" d="M 77.2,28.5 79.2,28.4 80.8,28.1 82.1,27.6 82.9,27 83.5,26.4 83.8,25.6 83.8,24.9 83.7,24.2 83.3,23.5 82.8,22.9 82.2,22.4 81.5,22 80.8,21.8 80,21.9 79.3,22.1 78.6,22.7 78,23.6 77.6,24.8 77.3,26.4 77.2,28.5 77.2,43.5" />
<path stroke="#000000" stroke-width="2" d="M 113.8,70" />
<path stroke="#000000" stroke-width="2" d="M 123.8,30 123,30 122.1,30.1 121.2,30.2 120.4,30.5 119.6,30.8 118.8,31.1 118,31.6 117.3,32.1 116.6,32.6 116,33.2 115.5,33.9 115,34.6 114.5,35.4 114.2,36.2 113.9,37 113.6,37.8 113.5,38.7 113.4,39.6 113.4,40.4 113.5,41.3 113.6,42.2 113.9,43 114.2,43.8 114.5,44.6 115,45.4 115.5,46.1 116,46.7 116.6,47.4 117.3,47.9 118,48.4 118.8,48.9 119.6,49.2 120.4,49.5 121.2,49.8 122.1,49.9 123,50 128,50 128,70" />
<path stroke="#000000" stroke-width="2" d="M 158,70" />
<path stroke="#000000" stroke-width="2" d="M 174,30 154.2,49.8 174,69.6" />
<path stroke="#000000" stroke-width="2" d="M 180.6,70" />
<path stroke="#000000" stroke-width="2" d="M 180.6,20 180.6,40 180.6,34 180.6,33.1 180.7,32.3 180.9,31.4 181.1,30.6 181.4,29.7 181.8,28.9 182.2,28.2 182.7,27.5 183.3,26.8 183.9,26.2 184.5,25.6 185.3,25.1 186,24.7 186.8,24.3 187.6,24 188.5,23.8 189.3,23.6 190.2,23.6 197.8,42.1" />
<path stroke="#000000" stroke-width="2" d="M 204.5,70" />
<path stroke="#000000" stroke-width="2" d="M 204.5,50 224.5,50" />
<path stroke="#000000" stroke-width="2" d="M 231.2,70" />
<path stroke="#000000" stroke-width="2" d="M 231.2,30 231.4,30 231.4,30.2 231.2,30.2 231.2,30" />
<path stroke="#000000" stroke-width="2" d="M 261.4,70" />
<path stroke="#000000" stroke-width="2" d="M 261.4,70" />
<path stroke="#000000" stroke-width="2" d="M 261.4,70 262.5,70 263.5,70.2 264.3,70.4 265,70.7 265.6,71 266,71.5 266.4,71.9 266.6,72.5 266.6,73.1 266.6,73.8 266.5,74.4 266.3,75.2 265.9,76 265.5,76.8 265,77.6 264.4,78.4 263.8,79.3 263.1,80.2 262.2,81.1 261.4,82" />
<path stroke="#000000" stroke-width="2" d="M 296.6,70" />
<path stroke="#000000" stroke-width="2" d="M 312.6,30 312.6,60" />
<path stroke="#000000" stroke-width="2" d="M 312.6,60 312.4,64.1 311.8,67.3 310.9,69.8 309.8,71.5 308.4,72.7 307,73.2 305.5,73.3 304,73 302.6,72.3 301.4,71.2 300.4,70 299.7,68.6 299.3,67.2 299.4,65.7 300,64.2 301.1,62.9 302.9,61.7 305.4,60.8 308.6,60.2 312.6,60" />
<path stroke="#000000" stroke-width="2" d="M 319.3,70" />
<path stroke="#000000" stroke-width="2" d="M 319.3,20 320.2,20 321.1,20.1 321.9,20.2 322.8,20.5 323.6,20.8 324.4,21.1 325.1,21.6 325.8,22.1 326.5,22.6 327.1,23.2 327.7,23.9 328.2,24.6 328.6,25.4 329,26.2 329.3,27 329.5,27.8 329.7,28.7 329.7,29.6 329.7,30.4 329.7,31.3 329.5,32.2 329.3,33 329,33.8 328.6,34.6 328.2,35.4 327.7,36.1 327.1,36.7 326.5,37.4 325.8,37.9 325.1,38.4 324.4,38.9 323.6,39.2 322.8,39.5 321.9,39.8 321.1,39.9 320.2,40" />
<path stroke="#000000" stroke-width="2" d="M 336.4,70" />
<path stroke="#000000" stroke-width="2" d="M 336.4,20 341.4,20 341.4,40" />
<path stroke="#000000" stroke-width="2" d="M 348.1,70" />
<path stroke="#000000" stroke-width="2" d="M 358.1,20 350.4,38.5" />
<path stroke="#000000" stroke-width="2" d="M 364.7,70" />
<path stroke="#000000" stroke-width="2" d="M 364.7,20 365.6,20 366.5,20.1 367.3,20.2 368.2,20.5 369,20.8 369.8,21.1 370.6,21.6 371.3,22.1 371.9,22.6 372.6,23.2 373.1,23.9 373.6,24.6 374,25.4 374.4,26.2 374.7,27 374.9,27.8 375.1,28.7 375.2,29.6 375.2,30.4 375.1,31.3 374.9,32.2 374.7,33 374.4,33.8 374,34.6 373.6,35.4 373.1,36.1 372.6,36.7 371.9,37.4 371.3,37.9 370.6,38.4 369.8,38.9 369,39.2 368.2,39.5 367.3,39.8 366.5,39.9 365.6,40" />
<path stroke="#000000" stroke-width="2" d="M 405.2,70" />
<path stroke="#000000" stroke-width="2" d="M 421.2,30 401.4,49.8 421.2,69.6" />
<path stroke="#000000" stroke-width="2" d="M 427.8,70" />
<path stroke="#000000" stroke-width="2" d="M 427.8,20 427.8,40 427.8,34 427.8,33.1 427.9,32.3 428.1,31.4 428.3,30.6 428.6,29.7 429,28.9 429.4,28.2 429.9,27.5 430.5,26.8 431.1,26.2 431.7,25.6 432.5,25.1 433.2,24.7 434,24.3 434.8,24 435.7,23.8 436.5,23.6 437.4,23.6" />
<path stroke="#000000" stroke-width="2" d="M 467.4,70" />
<path stroke="#000000" stroke-width="2" d="M 471.4,30 488.4,47" />
<path stroke="#000000" stroke-width="2" d="M 505.3,30 465.7,69.6" />
<path stroke="#000000" stroke-width="2" d="M 512,70" />
<path stroke="#000000" stroke-width="2" d="M 524,56 524,56.5 524,57 523.9,57.6 523.7,58.1 523.5,58.6 523.3,59 523.1,59.5 522.8,59.9 522.4,60.3 522.1,60.7 521.7,61 521.2,61.3 520.8,61.6 520.3,61.8 519.8,62 519.3,62.1 518.8,62.2 518.3,62.3 517.7,62.3 517.2,62.2 516.7,62.1 516.2,62 515.7,61.8 515.2,61.6 514.8,61.3 514.4,61 513.9,60.7 513.6,60.3 513.2,59.9 512.9,59.5 512.7,59 512.5,58.6 512.3,58.1 512.1,57.6 512.1,57 512,56.5 512,56 512.1,55.5 512.1,55 512.3,54.5 512.5,54 512.7,53.5 512.9,53 513.2,52.6 513.6,52.2 513.9,51.8 514.4,51.5 514.8,51.2 515.2,50.9 515.7,50.7 516.2,50.5 516.7,50.4 517.2,50.3 517.7,50.3 518.3,50.3 518.8,50.3 519.3,50.4 519.8,50.5 520.3,50.7 520.8,50.9 521.2,51.2 521.7,51.5 522.1,51.8 522.4,52.2 522.8,52.6 523.1,53 523.3,53.5 523.5,54 523.7,54.5 523.9,55 524,55.5 524,56 524,60" />
<path stroke="#000000" stroke-width="2" d="M 524,60 523.7,60.9 523.3,61.7 523,62.4 522.6,63.1 522.2,63.8 521.7,64.4 521.2,64.9 520.8,65.4 520.3,65.9 519.7,66.2 519.2,66.6 518.7,66.9 518.1,67.2 517.5,67.4 517,67.6 516.4,67.7 515.8,67.9 515.2,67.9 514.6,68 514,68 514,88 514,82 514,81.1 514.1,80.3 514.2,79.4 514.5,78.6 514.7,77.7 515.1,76.9 515.6,76.2 516.1,75.5 516.6,74.8 517.2,74.2 517.9,73.6 518.6,73.1 519.4,72.7 520.2,72.3 521,72 521.8,71.8 522.7,71.6 523.6,71.6" />
<path stroke="#000000" stroke-width="2" d="M 554,70" />
<path stroke="#000000" stroke-width="2" d="M 564,30 564.5,30 565,30 565.6,30.1 566.1,30.3 566.6,30.5 567,30.7 567.5,30.9 567.9,31.2 568.3,31.6 568.7,31.9 569,32.3 569.3,32.8 569.6,33.2 569.8,33.7 570,34.2 570.1,34.7 570.2,35.2 570.3,35.7 570.3,36.3 570.2,36.8 570.1,37.3 570,37.8 569.8,38.3 569.6,38.8 569.3,39.2 569,39.6 568.7,40 568.3,40.4 567.9,40.8 567.5,41.1 567,41.3 566.6,41.5 566.1,41.7 565.6,41.9 565,41.9 564.5,42 564,42 563.5,41.9 563,41.9 562.5,41.7 562,41.5 561.5,41.3 561,41.1 560.6,40.8 560.2,40.4 559.8,40 559.5,39.6 559.2,39.2 558.9,38.8 558.7,38.3 558.5,37.8 558.4,37.3 558.3,36.8 558.3,36.3 558.3,35.7 558.3,35.2 558.4,34.7 558.5,34.2 558.7,33.7 558.9,33.2 559.2,32.8 559.5,32.3 559.8,31.9 560.2,31.6 560.6,31.2 561,30.9 561.5,30.7 562,30.5 562.5,30.3 563,30.1 563.5,30 564,30 564,50 556.3,68.5 558.6,62.9 559,62.1 559.4,61.4 559.8,60.6 560.4,59.9 561,59.3 561.6,58.7 562.3,58.2 563,57.7 563.8,57.3 564.6,57 565.4,56.7 566.3,56.5" />
<path stroke="#000000" stroke-width="2" d="M 600.3,70" />
<path stroke="#000000" stroke-width="2" d="M 600.3,30 620.3,30 621.1,30 622,30.1 622.9,30.2 623.7,30.5 624.5,30.8 625.3,31.1 626.1,31.6 626.8,32.1 627.4,32.6 628.1,33.2 628.6,33.9 629.1,34.6 629.6,35.4 629.9,36.2 630.2,37 630.5,37.8 630.6,38.7 630.7,39.6 630.7,40.4 630.6,41.3 630.5,42.2 630.2,43 629.9,43.8 629.6,44.6 629.1,45.4 628.6,46.1 628.1,46.7 627.4,47.4 626.8,47.9 626.1,48.4 625.3,48.9 624.5,49.2 623.7,49.5 622.9,49.8 622,49.9 621.1,50" />
<path stroke="#000000" stroke-width="2" d="M 660.7,70" />
<path stroke="#000000" stroke-width="2" d="M 660.7,30 660.7,70" />
<path stroke="#000000" stroke-width="2" d="M 667.3,70" />
<path stroke="#000000" stroke-width="2" d="M 667.3,20 687.3,20" />
<path stroke="#000000" stroke-width="2" d="M 694,70" />
<path stroke="#000000" stroke-width="2" d="M 702,30 702,45" />
<path stroke="#000000" stroke-width="2" d="M 702,45 701.9,47 701.6,48.6 701.2,49.9 700.6,50.8 699.9,51.3 699.2,51.6 698.4,51.7 697.7,51.5 697,51.1 696.4,50.6 695.9,50 695.5,49.3 695.4,48.6 695.4,47.8 695.7,47.1 696.3,46.4 697.1,45.9 698.4,45.4 700,45.1 702,45 702.9,45 703.8,45.1 704.6,45.2 705.5,45.5 706.3,45.8 707.1,46.1 707.8,46.6 708.5,47.1 709.2,47.6 709.8,48.2 710.4,48.9 710.9,49.6 711.3,50.4 711.7,51.2 712,52 712.2,52.8 712.4,53.7 712.4,54.6 712.4,55.4 712.4,56.3 712.2,57.2 712,58 711.7,58.8 711.3,59.6 710.9,60.4 710.4,61.1 709.8,61.7 709.2,62.4 708.5,62.9 707.8,63.4 707.1,63.9 706.3,64.2 705.5,64.5 704.6,64.8 703.8,64.9 702.9,65" />
<path stroke="#000000" stroke-width="2" d="M 742.4,70" />
<path stroke="#000000" stroke-width="2" d="M 758.4,30 738.6,49.8 758.4,69.6" />
<path stroke="#000000" stroke-width="2" d="M 765.1,70" />
<path stroke="#000000" stroke-width="2" d="M 765.1,20 765.1,40 765.1,34 765.1,33.1 765.2,32.3 765.3,31.4 765.6,30.6 765.9,29.7 766.2,28.9 766.7,28.2 767.2,27.5 767.7,26.8 768.3,26.2 769,25.6 769.7,25.1 770.5,24.7 771.3,24.3 772.1,24 772.9,23.8 773.8,23.6 774.7,23.6" />
<path stroke="#000000" stroke-width="2" d="M 804.7,70" />
<path stroke="#000000" stroke-width="2" d="M 820.7,30" />
<path stroke="#000000" stroke-width="2" d="M 820.7,30 820.4,34.1 819.9,37.3 818.9,39.8 817.8,41.5 816.4,42.7 815,43.2 813.5,43.3 812,43 810.6,42.3 809.4,41.2 808.4,40 807.7,38.6 807.4,37.2 807.4,35.7 808,34.2 809.1,32.9 810.9,31.7 813.4,30.8 816.6,30.2 820.7,30 840.7,30" />
<path stroke="#000000" stroke-width="2" d="M 847.3,70" />
<path stroke="#000000" stroke-width="2" d="M 847.3,20 847.3,40 847.3,34 847.3,33.1 847.4,32.3 847.6,31.4 847.8,30.6 848.1,29.7 848.4,28.9 848.9,28.2 849.4,27.5 849.9,26.8 850.6,26.2 851.2,25.6 851.9,25.1 852.7,24.7 853.5,24.3 854.3,24 855.2,23.8 856,23.6 856.9,23.6 864.5,42.1" />
<path stroke="#000000" stroke-width="2" d="M 871.2,70" />
<path stroke="#000000" stroke-width="2" d="M 871.2,20 891.2,20" />
<path stroke="#000000" stroke-width="2" d="M 897.9,70" />
<path stroke="#000000" stroke-width="2" d="M 897.9,20 917.9,20 910.2,38.5 910.2,39.2 910.3,39.9 910.4,40.6 910.6,41.2 910.8,41.9 911.1,42.5 911.5,43.1 911.9,43.7 912.3,44.2 912.8,44.7 913.3,45.2 913.9,45.6 914.5,45.9 915.1,46.2 915.8,46.5 916.5,46.6 917.2,46.8 917.9,46.8 918.6,46.8 919.3,46.8 919.9,46.6 920.6,46.5 921.3,46.2 921.9,45.9 922.5,45.6 923.1,45.2 923.6,44.7 924.1,44.2 924.6,43.7 925,43.1 925.3,42.5 925.6,41.9 925.8,41.2 926,40.6 926.1,39.9 926.2,39.2" />
<path stroke="#000000" stroke-width="2" d="M 932.9,70" />
<path stroke="#000000" stroke-width="2" d="M 932.9,30 933.1,30 933.1,30.2 932.9,30.2 932.9,30" />
<path stroke="#000000" stroke-width="2" d="M 963.1,70" />
<path stroke="#000000" stroke-width="2" d="M 983.1,30 967.8,67" />
<path stroke="#000000" stroke-width="2" d="M 989.7,70" />
<path stroke="#000000" stroke-width="2" d="M 989.7,50 989.9,50 989.9,50.2 989.7,50.2 989.7,50" />
<path stroke="#000000" stroke-width="2" d="M 1019.9,70" />
<path stroke="#000000" stroke-width="2" d="M 1019.9,70 1020.1,70 1020.1,70.2 1019.9,70.2 1019.9,70" />
<path stroke="#000000" stroke-width="2" d="M 1026.8,70" />
<path stroke="#000000" stroke-width="2" d="M 1026.8,30 1042.1,67" />
<path stroke="#000000" stroke-width="2" d="M 1048.8,70" />
<path stroke="#000000" stroke-width="2" d="M 1048.8,50 1068.8,50" />
<path stroke="#000000" stroke-width="2" d="M 1098.8,70" />
<path stroke="#000000" stroke-width="2" d="M 1098.8,70 1099,70 1099,70.2 1098.8,70.2 1098.8,70" />
<path stroke="#000000" stroke-width="2" d="M 1129,70" />
</svg>