<svg xmlns="http://www.w3.org/2000/svg" width="544.4856425791475" height="92.0509145607538" style="fill:none; stroke-linecap:round;">
    <rect width="100%" height="100%" fill="#FFFFFF" />
<path stroke="#000000" stroke-width="2" d="M 550,75" />
<path stroke="#000000" stroke-width="2" d="M 20,30 60,30" />
<path stroke="#000000" stroke-width="2" d="M 66.7,70" />
<path stroke="#000000" stroke-width="2" d="M 66.7,40 66.7,39.3 66.7,38.6 66.8,37.9 67,37.2 67.3,36.6 67.6,36 67.9,35.4 68.3,34.8 68.8,34.2 69.3,33.8 69.8,33.3 70.4,32.9 71,32.6 71.6,32.3 72.3,32 72.9,31.8 73.6,31.7 74.3,31.7 75,31.7 75.7,31.7 76.4,31.8 77.1,32 77.7,32.3 78.4,32.6 79,32.9 79.5,33.3 80.1,33.8 80.6,34.2 81,34.8 81.4,35.4 81.8,36 82.1,36.6 82.3,37.2 82.5,37.9 82.6,38.6 82.7,39.3" />
<path stroke="#000000" stroke-width="2" d="M 89.3,70" />
<path stroke="#000000" stroke-width="2" d="M 89.3,50 89.3,70 89.3,64 89.3,63.1 89.4,62.3 89.5,61.4 89.8,60.6 90.1,59.7 90.4,58.9 90.9,58.2 91.4,57.5 91.9,56.8 92.6,56.2 93.2,55.6 93.9,55.1 94.7,54.7 95.5,54.3 96.3,54 97.1,53.8 98,53.6 98.9,53.6" />
<path stroke="#000000" stroke-width="2" d="M 105.5,70" />
<path stroke="#000000" stroke-width="2" d="M 115.5,20 116.1,20 116.6,20 117.1,20.1 117.6,20.3 118.1,20.5 118.6,20.7 119,20.9 119.5,21.2 119.9,21.6 120.2,21.9 120.6,22.3 120.9,22.8 121.1,23.2 121.3,23.7 121.5,24.2 121.7,24.7 121.7,25.2 121.8,25.7 121.8,26.3 121.7,26.8 121.7,27.3 121.5,27.8 121.3,28.3 121.1,28.8 120.9,29.2 120.6,29.6 120.2,30 119.9,30.4 119.5,30.8 119,31.1 118.6,31.3 118.1,31.5 117.6,31.7 117.1,31.9 116.6,31.9 116.1,32 115.5,32 115,31.9 114.5,31.9 114,31.7 113.5,31.5 113,31.3 112.6,31.1 112.1,30.8 111.7,30.4 111.4,30 111,29.6 110.7,29.2 110.5,28.8 110.3,28.3 110.1,27.8 109.9,27.3 109.9,26.8 109.8,26.3 109.8,25.7 109.9,25.2 109.9,24.7 110.1,24.2 110.3,23.7 110.5,23.2 110.7,22.8 111,22.3 111.4,21.9 111.7,21.6 112.1,21.2 112.6,20.9 113,20.7 113.5,20.5 114,20.3 114.5,20.1 115,20 115.5,20 115.5,40" />
<path stroke="#000000" stroke-width="2" d="M 151.8,70" />
<path stroke="#000000" stroke-width="2" d="M 151.8,30 167.1,67" />
<path stroke="#000000" stroke-width="2" d="M 173.8,70" />
<path stroke="#000000" stroke-width="2" d="M 173.8,20 174.6,20 175.5,20.1 176.4,20.2 177.2,20.5 178,20.8 178.8,21.1 179.6,21.6 180.3,22.1 181,22.6 181.6,23.2 182.1,23.9 182.6,24.6 183.1,25.4 183.4,26.2 183.7,27 184,27.8 184.1,28.7 184.2,29.6 184.2,30.4 184.1,31.3 184,32.2 183.7,33 183.4,33.8 183.1,34.6 182.6,35.4 182.1,36.1 181.6,36.7 181,37.4 180.3,37.9 179.6,38.4 178.8,38.9 178,39.2 177.2,39.5 176.4,39.8 175.5,39.9 174.6,40" />
<path stroke="#000000" stroke-width="2" d="M 214.2,70" />
<path stroke="#000000" stroke-width="2" d="M 214.2,30 254.2,30" />
<path stroke="#000000" stroke-width="2" d="M 284.2,70" />
<path stroke="#000000" stroke-width="2" d="M 284.2,40 284.4,40 284.4,40.2 284.2,40.2 284.2,40" />
<path stroke="#000000" stroke-width="2" d="M 291.1,70" />
<path stroke="#000000" stroke-width="2" d="M 293.1,50 298.4,37.1 298.6,36.7 298.7,36.4 298.7,36.1 298.8,35.7 298.8,35.4 298.8,35 298.7,34.7 298.7,34.3 298.6,34 298.4,33.7 298.3,33.4 298.1,33.1 297.9,32.8 297.6,32.5 297.4,32.3 297.1,32.1 296.8,31.9 296.5,31.7 296.2,31.6 295.8,31.5 295.5,31.4 295.1,31.4 294.8,31.4 294.4,31.4 294.1,31.4 293.8,31.5 293.4,31.6 293.1,31.7 292.8,31.9 292.5,32.1 292.2,32.3 292,32.5 291.7,32.8 291.5,33.1 291.3,33.4 291.2,33.7 291,34 290.9,34.3 290.9,34.7 290.8,35 290.8,35.4 290.8,35.7 290.9,36.1 290.9,36.4 291,36.7 291.2,37.1 291.3,37.4 291.5,37.7 291.7,37.9 292,38.2 292.2,38.4 292.5,38.7 292.8,38.8 293.1,39 293.4,39.1 293.8,39.2 294.1,39.3 294.4,39.4 294.8,39.4 295.1,39.4 308.1,34 313.1,34 313.1,54" />
<path stroke="#000000" stroke-width="2" d="M 319.7,70" />
<path stroke="#000000" stroke-width="2" d="M 319.7,50 319.7,70 319.7,64 319.7,63.1 319.8,62.3 320,61.4 320.2,60.6 320.5,59.7 320.9,58.9 321.3,58.2 321.8,57.5 322.4,56.8 323,56.2 323.6,55.6 324.4,55.1 325.1,54.7 325.9,54.3 326.7,54 327.6,53.8 328.4,53.6 329.3,53.6 321.6,72.1" />
<path stroke="#000000" stroke-width="2" d="M 359.3,70" />
<path stroke="#000000" stroke-width="2" d="M 379.3,30 364,67" />
<path stroke="#000000" stroke-width="2" d="M 386,70" />
<path stroke="#000000" stroke-width="2" d="M 392,50 392.5,50 393,50 393.5,50.1 394,50.3 394.5,50.5 395,50.7 395.5,50.9 395.9,51.2 396.3,51.6 396.7,51.9 397,52.3 397.3,52.8 397.5,53.2 397.8,53.7 397.9,54.2 398.1,54.7 398.2,55.2 398.2,55.7 398.2,56.3 398.2,56.8 398.1,57.3 397.9,57.8 397.8,58.3 397.5,58.8 397.3,59.2 397,59.6 396.7,60 396.3,60.4 395.9,60.8 395.5,61.1 395,61.3 394.5,61.5 394,61.7 393.5,61.9 393,61.9 392.5,62 392,62 391.4,61.9 390.9,61.9 390.4,61.7 389.9,61.5 389.5,61.3 389,61.1 388.6,60.8 388.2,60.4 387.8,60 387.5,59.6 387.2,59.2 386.9,58.8 386.7,58.3 386.5,57.8 386.4,57.3 386.3,56.8 386.2,56.3 386.2,55.7 386.3,55.2 386.4,54.7 386.5,54.2 386.7,53.7 386.9,53.2 387.2,52.8 387.5,52.3 387.8,51.9 388.2,51.6 388.6,51.2 389,50.9 389.5,50.7 389.9,50.5 390.4,50.3 390.9,50.1 391.4,50 392,50 396,50" />
<path stroke="#000000" stroke-width="2" d="M 396,50 396.8,50.3 397.6,50.7 398.4,51 399.1,51.4 399.7,51.8 400.3,52.3 400.9,52.7 401.4,53.2 401.8,53.7 402.2,54.2 402.6,54.8 402.9,55.3 403.1,55.9 403.4,56.5 403.6,57 403.7,57.6 403.8,58.2 403.9,58.8 404,59.4 404,60" />
<path stroke="#000000" stroke-width="2" d="M 410.6,70" />
<path stroke="#000000" stroke-width="2" d="M 410.6,50 418.3,68.5" />
<path stroke="#000000" stroke-width="2" d="M 425,70" />
<path stroke="#000000" stroke-width="2" d="M 435,50 427.3,68.5" />
<path stroke="#000000" stroke-width="2" d="M 465,70" />
<path stroke="#000000" stroke-width="2" d="M 465,40 465.2,40 465.2,40.2 465,40.2 465,40" />
<path stroke="#000000" stroke-width="2" d="M 471.8,70" />
<path stroke="#000000" stroke-width="2" d="M 487.8,30" />
<path stroke="#000000" stroke-width="2" d="M 487.8,30 487.6,34.1 487,37.3 486.1,39.8 484.9,41.5 483.6,42.7 482.1,43.2 480.7,43.3 479.2,43 477.8,42.3 476.6,41.2 475.6,40 474.9,38.6 474.5,37.2 474.6,35.7 475.2,34.2 476.3,32.9 478.1,31.7 480.5,30.8 483.8,30.2 487.8,30 507.8,30" />
<path stroke="#000000" stroke-width="2" d="M 514.5,70" />
<path stroke="#000000" stroke-width="2" d="M 524.5,20 516.8,38.5" />
<path stroke="#000000" stroke-width="2" d="M 554.5,70" />
</svg>