<svg xmlns="http://www.w3.org/2000/svg" width="1409.5972751026186" height="93.04481869954853" style="fill:none; stroke-linecap:round;">
    <rect width="100%" height="100%" fill="#FFFFFF" />
<path stroke="#000000" stroke-width="2" d="M 550,75" />
<path stroke="#000000" stroke-width="2" d="M 36,30 16.2,49.8 36,69.6" />
<path stroke="#000000" stroke-width="2" d="M 42.7,70" />
<path stroke="#000000" stroke-width="2" d="M 42.7,20 42.7,40 42.7,34 42.7,33.1 42.7,32.3 42.9,31.4 43.1,30.6 43.4,29.7 43.8,28.9 44.2,28.2 44.7,27.5 45.3,26.8 45.9,26.2 46.6,25.6 47.3,25.1 48,24.7 48.8,24.3 49.7,24 50.5,23.8 51.4,23.6 52.2,23.6" />
<path stroke="#000000" stroke-width="2" d="M 82.2,70" />
<path stroke="#000000" stroke-width="2" d="M 82.2,30 97.5,67" />
<path stroke="#000000" stroke-width="2" d="M 104.2,70" />
<path stroke="#000000" stroke-width="2" d="M 104.2,20 124.2,20" />
<path stroke="#000000" stroke-width="2" d="M 154.2,70" />
<path stroke="#000000" stroke-width="2" d="M 164.2,30 163.3,30 162.5,30.1 161.6,30.2 160.8,30.5 159.9,30.8 159.1,31.1 158.4,31.6 157.7,32.1 157,32.6 156.4,33.2 155.8,33.9 155.3,34.6 154.9,35.4 154.5,36.2 154.2,37 154,37.8 153.8,38.7 153.8,39.6 153.8,40.4 153.8,41.3 154,42.2 154.2,43 154.5,43.8 154.9,44.6 155.3,45.4 155.8,46.1 156.4,46.7 157,47.4 157.7,47.9 158.4,48.4 159.1,48.9 159.9,49.2 160.8,49.5 161.6,49.8 162.5,49.9 163.3,50 183.3,50" />
<path stroke="#000000" stroke-width="2" d="M 213.3,70" />
<path stroke="#000000" stroke-width="2" d="M 213.3,70 213.5,70 213.5,70.2 213.3,70.2 213.3,70" />
<path stroke="#000000" stroke-width="2" d="M 220.2,70" />
<path stroke="#000000" stroke-width="2" d="M 220.2,30 220.2,70" />
<path stroke="#000000" stroke-width="2" d="M 226.9,70" />
<path stroke="#000000" stroke-width="2" d="M 226.9,40 226.9,39.3 226.9,38.6 227,37.9 227.2,37.2 227.5,36.6 227.8,36 228.1,35.4 228.5,34.8 229,34.2 229.4,33.8 230,33.3 230.5,32.9 231.2,32.6 231.8,32.3 232.4,32 233.1,31.8 233.8,31.7 234.5,31.7 235.2,31.7 235.9,31.7 236.6,31.8 237.3,32 237.9,32.3 238.5,32.6 239.1,32.9 239.7,33.3 240.3,33.8 240.7,34.2 241.2,34.8 241.6,35.4 241.9,36 242.2,36.6 242.5,37.2 242.7,37.9 242.8,38.6 242.8,39.3" />
<path stroke="#000000" stroke-width="2" d="M 272.8,70" />
<path stroke="#000000" stroke-width="2" d="M 282.8,30 282,30 281.1,30.1 280.2,30.2 279.4,30.5 278.6,30.8 277.8,31.1 277,31.6 276.3,32.1 275.6,32.6 275,33.2 274.5,33.9 274,34.6 273.5,35.4 273.2,36.2 272.9,37 272.6,37.8 272.5,38.7 272.4,39.6 272.4,40.4 272.5,41.3 272.6,42.2 272.9,43 273.2,43.8 273.5,44.6 274,45.4 274.5,46.1 275,46.7 275.6,47.4 276.3,47.9 277,48.4 277.8,48.9 278.6,49.2 279.4,49.5 280.2,49.8 281.1,49.9 282,50 287,50 287,70" />
<path stroke="#000000" stroke-width="2" d="M 317,70" />
<path stroke="#000000" stroke-width="2" d="M 317,30 332.3,67" />
<path stroke="#000000" stroke-width="2" d="M 338.9,70" />
<path stroke="#000000" stroke-width="2" d="M 338.9,30 339.1,30 339.1,30.2 338.9,30.2 338.9,30" />
<path stroke="#000000" stroke-width="2" d="M 369.1,70" />
<path stroke="#000000" stroke-width="2" d="M 369.1,30 409.1,30" />
<path stroke="#000000" stroke-width="2" d="M 415.8,70" />
<path stroke="#000000" stroke-width="2" d="M 415.8,40 415.8,39.3 415.9,38.6 416,37.9 416.2,37.2 416.4,36.6 416.7,36 417.1,35.4 417.5,34.8 417.9,34.2 418.4,33.8 418.9,33.3 419.5,32.9 420.1,32.6 420.7,32.3 421.4,32 422.1,31.8 422.8,31.7 423.5,31.7 424.2,31.7 424.8,31.7 425.5,31.8 426.2,32 426.9,32.3 427.5,32.6 428.1,32.9 428.7,33.3 429.2,33.8 429.7,34.2 430.1,34.8 430.5,35.4 430.9,36 431.2,36.6 431.4,37.2 431.6,37.9 431.7,38.6 431.8,39.3" />
<path stroke="#000000" stroke-width="2" d="M 461.8,70" />
<path stroke="#000000" stroke-width="2" d="M 461.8,70 462,70 462,70.2 461.8,70.2 461.8,70" />
<path stroke="#000000" stroke-width="2" d="M 492,70" />
<path stroke="#000000" stroke-width="2" d="M 492,30 492,70 512,70" />
<path stroke="#000000" stroke-width="2" d="M 542,70" />
<path stroke="#000000" stroke-width="2" d="M 542,70 542,68.6 542.1,67.2 542.4,65.8 542.7,64.5 543.2,63.2 543.8,61.9 544.5,60.7 545.3,59.6 546.2,58.5 547.2,57.5 548.2,56.6 549.4,55.8 550.6,55.1 551.9,54.5 553.2,54 554.5,53.7 555.9,53.4 557.3,53.3 558.7,53.3 560.1,53.4 561.4,53.7 562.8,54 564.1,54.5 565.4,55.1 566.6,55.8 567.7,56.6 568.8,57.5 569.8,58.5 570.7,59.6 571.5,60.7 572.2,61.9 572.8,63.2 573.2,64.5 573.6,65.8 573.8,67.2 574,68.6" />
<path stroke="#000000" stroke-width="2" d="M 580.6,70" />
<path stroke="#000000" stroke-width="2" d="M 580.6,50" />
<path stroke="#000000" stroke-width="2" d="M 580.6,50 580.8,50 581.2,50 581.8,50 582.7,50.1 583.8,50.2 584.9,50.3 586.3,50.4 587.7,50.6 589.1,50.9 590.6,51.2 592.1,51.7 593.6,52.2 595,52.7 596.3,53.4 597.5,54.2 598.5,55.1 599.4,56.1 600.1,57.3 600.5,58.6 600.6,60" />
<path stroke="#000000" stroke-width="2" d="M 600.6,60 602.6,62.1 603.9,64.1 604.6,65.7 604.9,67.2 604.8,68.4 604.4,69.5 603.7,70.2 602.8,70.8 601.7,71.1 600.6,71.2 599.5,71.1 598.5,70.8 597.6,70.2 596.8,69.5 596.4,68.4 596.3,67.2 596.6,65.7 597.4,64 598.7,62.1 600.6,60" />
<path stroke="#000000" stroke-width="2" d="M 600.6,60 600.6,59.9 600.6,59.7 600.7,59.4 600.8,59 600.9,58.4 601.2,57.8 601.5,57.2 601.9,56.5 602.5,55.7 603.1,55 604,54.3 604.9,53.5 606.1,52.8 607.5,52.2 609.1,51.6 610.9,51 612.9,50.6 615.2,50.3 617.8,50.1 620.6,50 620.6,50.7 620.7,51.4 620.8,52.1 621,52.8 621.2,53.4 621.5,54 621.9,54.6 622.3,55.2 622.7,55.8 623.2,56.2 623.8,56.7 624.3,57.1 624.9,57.4 625.6,57.7 626.2,58 626.9,58.2 627.6,58.3 628.3,58.3 629,58.3 629.7,58.3 630.4,58.2 631,58 631.7,57.7 632.3,57.4 632.9,57.1 633.5,56.7 634,56.2 634.5,55.8 635,55.2 635.4,54.6 635.7,54 636,53.4 636.3,52.8 636.4,52.1 636.6,51.4 636.6,50.7" />
<path stroke="#000000" stroke-width="2" d="M 636.6,50.7 638,50.8 639.3,51.3 640.4,51.9 641.4,52.8 642.2,53.8 642.9,55 643.4,56.3 643.8,57.7 644,59.2 644.1,60.7 644,62.2 643.8,63.7 643.4,65.1 642.9,66.4 642.2,67.6 641.4,68.6 640.4,69.5 639.3,70.1 638,70.6 636.6,70.7" />
<path stroke="#000000" stroke-width="2" d="M 674.1,70" />
<path stroke="#000000" stroke-width="2" d="M 676.1,50 681.5,37.1 681.6,36.7 681.7,36.4 681.8,36.1 681.8,35.7 681.8,35.4 681.8,35 681.8,34.7 681.7,34.3 681.6,34 681.5,33.7 681.3,33.4 681.1,33.1 680.9,32.8 680.7,32.5 680.4,32.3 680.1,32.1 679.8,31.9 679.5,31.7 679.2,31.6 678.9,31.5 678.5,31.4 678.2,31.4 677.8,31.4 677.5,31.4 677.2,31.4 676.8,31.5 676.5,31.6 676.2,31.7 675.8,31.9 675.6,32.1 675.3,32.3 675,32.5 674.8,32.8 674.6,33.1 674.4,33.4 674.2,33.7 674.1,34 674,34.3 673.9,34.7 673.9,35 673.8,35.4 673.9,35.7 673.9,36.1 674,36.4 674.1,36.7 674.2,37.1 674.4,37.4 674.6,37.7 674.8,37.9 675,38.2 675.3,38.4 675.6,38.7 675.8,38.8 676.2,39 676.5,39.1 676.8,39.2 677.2,39.3 677.5,39.4 677.8,39.4 678.2,39.4 691.1,34 698.8,52.5 706.4,34 726.4,34" />
<path stroke="#000000" stroke-width="2" d="M 756.4,70" />
<path stroke="#000000" stroke-width="2" d="M 772.4,30 752.6,49.8 772.4,69.6" />
<path stroke="#000000" stroke-width="2" d="M 779.1,70" />
<path stroke="#000000" stroke-width="2" d="M 779.1,20 779.1,40 779.1,34 779.1,33.1 779.2,32.3 779.3,31.4 779.6,30.6 779.9,29.7 780.2,28.9 780.7,28.2 781.2,27.5 781.7,26.8 782.3,26.2 783,25.6 783.7,25.1 784.5,24.7 785.3,24.3 786.1,24 786.9,23.8 787.8,23.6 788.7,23.6" />
<path stroke="#000000" stroke-width="2" d="M 818.7,70" />
<path stroke="#000000" stroke-width="2" d="M 834.7,30 814.9,49.8 834.7,69.6" />
<path stroke="#000000" stroke-width="2" d="M 841.3,70" />
<path stroke="#000000" stroke-width="2" d="M 841.3,20 841.3,40 841.3,34 841.3,33.1 841.4,32.3 841.6,31.4 841.8,30.6 842.1,29.7 842.4,28.9 842.9,28.2 843.4,27.5 843.9,26.8 844.6,26.2 845.2,25.6 845.9,25.1 846.7,24.7 847.5,24.3 848.3,24 849.2,23.8 850,23.6 850.9,23.6" />
<path stroke="#000000" stroke-width="2" d="M 880.9,70" />
<path stroke="#000000" stroke-width="2" d="M 880.9,30 880.9,50 880.9,70 880.9,64 880.9,63.1 881,62.3 881.1,61.4 881.3,60.6 881.6,59.7 882,58.9 882.4,58.2 882.9,57.5 883.5,56.8 884.1,56.2 884.8,55.6 885.5,55.1 886.3,54.7 887,54.3 887.9,54 888.7,53.8 889.6,53.6 890.4,53.6" />
<path stroke="#000000" stroke-width="2" d="M 897.1,70" />
<path stroke="#000000" stroke-width="2" d="M 909.1,26" />
<path stroke="#000000" stroke-width="2" d="M 909.1,26 907.1,25.9 905.5,25.6 904.2,25.1 903.3,24.6 902.8,23.9 902.5,23.2 902.4,22.4 902.6,21.7 903,21 903.5,20.4 904.1,19.9 904.8,19.5 905.5,19.3 906.3,19.4 907,19.7 907.7,20.2 908.2,21.1 908.7,22.4 909,24 909.1,26 909.1,30" />
<path stroke="#000000" stroke-width="2" d="M 909.1,30 908.8,30.9 908.4,31.7 908.1,32.4 907.7,33.1 907.3,33.8 906.8,34.4 906.4,34.9 905.9,35.4 905.4,35.9 904.9,36.2 904.3,36.6 903.8,36.9 903.2,37.2 902.6,37.4 902.1,37.6 901.5,37.7 900.9,37.9 900.3,37.9 899.7,38 899.1,38" />
<path stroke="#000000" stroke-width="2" d="M 939.1,70" />
<path stroke="#000000" stroke-width="2" d="M 939.1,70 939.3,70 939.3,70.2 939.1,70.2 939.1,70" />
<path stroke="#000000" stroke-width="2" d="M 969.3,70" />
<path stroke="#000000" stroke-width="2" d="M 969.3,30 977,48.5 984.6,30" />
<path stroke="#000000" stroke-width="2" d="M 984.6,40" />
<path stroke="#000000" stroke-width="2" d="M 968.6,40 985.6,40" />
<path stroke="#000000" stroke-width="2" d="M 985.6,40 983.6,39.9 982,39.6 980.7,39.1 979.8,38.6 979.3,37.9 979,37.2 979,36.4 979.1,35.7 979.5,35 980,34.4 980.6,33.9 981.3,33.5 982,33.3 982.8,33.4 983.5,33.7 984.2,34.2 984.7,35.1 985.2,36.4 985.5,38 985.6,40 985.6,44" />
<path stroke="#000000" stroke-width="2" d="M 985.6,44 985.3,44.9 984.9,45.7 984.6,46.4 984.2,47.1 983.8,47.8 983.3,48.4 982.9,48.9 982.4,49.4 981.9,49.9 981.4,50.2 980.8,50.6 980.3,50.9 979.7,51.2 979.2,51.4 978.6,51.6 978,51.7 977.4,51.9 976.8,51.9 976.2,52 975.6,52" />
<path stroke="#000000" stroke-width="2" d="M 1015.6,70" />
<path stroke="#000000" stroke-width="2" d="M 1015.6,70 1030.9,33 1030.9,73" />
<path stroke="#000000" stroke-width="2" d="M 1037.6,70" />
<path stroke="#000000" stroke-width="2" d="M 1037.6,50" />
<path stroke="#000000" stroke-width="2" d="M 1037.6,50 1037.7,50 1038.1,50 1038.8,50 1039.7,50.1 1040.7,50.2 1041.9,50.3 1043.2,50.4 1044.6,50.6 1046.1,50.9 1047.6,51.2 1049.1,51.7 1050.5,52.2 1051.9,52.7 1053.3,53.4 1054.5,54.2 1055.5,55.1 1056.4,56.1 1057,57.3 1057.4,58.6 1057.6,60" />
<path stroke="#000000" stroke-width="2" d="M 1057.6,60 1059.5,62.1 1060.8,64.1 1061.6,65.7 1061.9,67.2 1061.8,68.4 1061.4,69.5 1060.7,70.2 1059.7,70.8 1058.7,71.1 1057.6,71.2 1056.5,71.1 1055.4,70.8 1054.5,70.2 1053.8,69.5 1053.4,68.4 1053.3,67.2 1053.6,65.7 1054.3,64 1055.7,62.1 1057.6,60" />
<path stroke="#000000" stroke-width="2" d="M 1057.6,60 1057.6,59.9 1057.6,59.7 1057.6,59.4 1057.7,59 1057.9,58.4 1058.1,57.8 1058.4,57.2 1058.9,56.5 1059.4,55.7 1060.1,55 1060.9,54.3 1061.9,53.5 1063.1,52.8 1064.4,52.2 1066,51.6 1067.8,51 1069.9,50.6 1072.2,50.3 1074.7,50.1 1077.6,50 1069.9,68.5" />
<path stroke="#000000" stroke-width="2" d="M 1107.6,70" />
<path stroke="#000000" stroke-width="2" d="M 1123.6,30 1103.8,49.8 1123.6,69.6" />
<path stroke="#000000" stroke-width="2" d="M 1130.2,70" />
<path stroke="#000000" stroke-width="2" d="M 1130.2,20 1130.2,40 1130.2,34 1130.2,33.1 1130.3,32.3 1130.5,31.4 1130.7,30.6 1131,29.7 1131.4,28.9 1131.8,28.2 1132.3,27.5 1132.9,26.8 1133.5,26.2 1134.2,25.6 1134.9,25.1 1135.6,24.7 1136.4,24.3 1137.2,24 1138.1,23.8 1138.9,23.6 1139.8,23.6" />
<path stroke="#000000" stroke-width="2" d="M 1169.8,70" />
<path stroke="#000000" stroke-width="2" d="M 1169.8,30 1169.8,70 1181.1,58.7" />
<path stroke="#000000" stroke-width="2" d="M 1187.8,70" />
<path stroke="#000000" stroke-width="2" d="M 1187.8,25" />
<path stroke="#000000" stroke-width="2" d="M 1187.8,25 1189.8,24.9 1191.4,24.6 1192.7,24.1 1193.5,23.6 1194.1,22.9 1194.4,22.2 1194.4,21.4 1194.3,20.7 1193.9,20 1193.4,19.4 1192.8,18.9 1192.1,18.5 1191.4,18.3 1190.6,18.4 1189.9,18.7 1189.2,19.2 1188.6,20.1 1188.2,21.4 1187.9,23 1187.8,25 1187.8,40" />
<path stroke="#000000" stroke-width="2" d="M 1224.4,70" />
<path stroke="#000000" stroke-width="2" d="M 1224.4,30 1234.4,30 1234.4,70" />
<path stroke="#000000" stroke-width="2" d="M 1241.1,70" />
<path stroke="#000000" stroke-width="2" d="M 1241.1,20 1241.1,40 1241.1,34 1241.1,33.1 1241.2,32.3 1241.3,31.4 1241.6,30.6 1241.9,29.7 1242.2,28.9 1242.7,28.2 1243.2,27.5 1243.7,26.8 1244.3,26.2 1245,25.6 1245.7,25.1 1246.5,24.7 1247.3,24.3 1248.1,24 1248.9,23.8 1249.8,23.6 1250.7,23.6" />
<path stroke="#000000" stroke-width="2" d="M 1280.7,70" />
<path stroke="#000000" stroke-width="2" d="M 1300.7,30 1285.4,67" />
<path stroke="#000000" stroke-width="2" d="M 1307.3,70" />
<path stroke="#000000" stroke-width="2" d="M 1307.3,50 1307.3,50.7 1307.4,51.4 1307.5,52.1 1307.7,52.8 1307.9,53.4 1308.2,54 1308.6,54.6 1309,55.2 1309.4,55.8 1309.9,56.2 1310.4,56.7 1311,57.1 1311.6,57.4 1312.3,57.7 1312.9,58 1313.6,58.2 1314.3,58.3 1315,58.3 1315.7,58.3 1316.4,58.3 1317,58.2 1317.7,58 1318.4,57.7 1319,57.4 1319.6,57.1 1320.2,56.7 1320.7,56.2 1321.2,55.8 1321.7,55.2 1322.1,54.6 1322.4,54 1322.7,53.4 1322.9,52.8 1323.1,52.1 1323.2,51.4 1323.3,50.7" />
<path stroke="#000000" stroke-width="2" d="M 1330,70" />
<path stroke="#000000" stroke-width="2" d="M 1330,30 1335,30 1335,50 1335,50.7 1335,51.4 1335.2,52.1 1335.3,52.8 1335.6,53.4 1335.9,54 1336.2,54.6 1336.6,55.2 1337.1,55.8 1337.6,56.2 1338.1,56.7 1338.7,57.1 1339.3,57.4 1339.9,57.7 1340.6,58 1341.2,58.2 1341.9,58.3 1342.6,58.3 1343.3,58.3 1344,58.3 1344.7,58.2 1345.4,58 1346,57.7 1346.7,57.4 1347.3,57.1 1347.8,56.7 1348.4,56.2 1348.9,55.8 1349.3,55.2 1349.7,54.6 1350.1,54 1350.4,53.4 1350.6,52.8 1350.8,52.1 1350.9,51.4 1351,50.7" />
<path stroke="#000000" stroke-width="2" d="M 1357.6,70" />
<path stroke="#000000" stroke-width="2" d="M 1357.6,70 1357.6,68.6 1357.7,67.2 1358,65.8 1358.4,64.5 1358.8,63.2 1359.4,61.9 1360.1,60.7 1360.9,59.6 1361.8,58.5 1362.8,57.5 1363.9,56.6 1365,55.8 1366.2,55.1 1367.5,54.5 1368.8,54 1370.1,53.7 1371.5,53.4 1372.9,53.3 1374.3,53.3 1375.7,53.4 1377.1,53.7 1378.4,54 1379.7,54.5 1381,55.1 1382.2,55.8 1383.4,56.6 1384.4,57.5 1385.4,58.5 1386.3,59.6 1387.1,60.7 1387.8,61.9 1388.4,63.2 1388.9,64.5 1389.2,65.8 1389.5,67.2 1389.6,68.6" />
<path stroke="#000000" stroke-width="2" d="M 1419.6,70" />
</svg>