<svg xmlns="http://www.w3.org/2000/svg" width="1519.1126904087241" height="116.50643735829262" style="fill:none; stroke-linecap:round;">
    <rect width="100%" height="100%" fill="#FFFFFF" />
<path stroke="#000000" stroke-width="2" d="M 550,75" />
<path stroke="#000000" stroke-width="2" d="M 20,30" />
<path stroke="#000000" stroke-width="2" d="M 20,30 22.8,30.3 25.4,31.1 27.6,32.4 29.6,34.2 31.2,36.2 32.6,38.6 33.6,41.3 34.4,44.1 34.9,47 35,50 34.9,53 34.4,55.9 33.6,58.7 32.6,61.4 31.2,63.8 29.6,65.8 27.7,67.6 25.4,68.9 22.9,69.7 20,70" />
<path stroke="#000000" stroke-width="2" d="M 41.7,70" />
<path stroke="#000000" stroke-width="2" d="M 41.7,20" />
<path stroke="#000000" stroke-width="2" d="M 41.7,20 43.1,20.1 44.4,20.6 45.5,21.2 46.5,22.1 47.3,23.1 48,24.3 48.5,25.6 48.9,27 49.1,28.5 49.2,30 49.1,31.5 48.9,33 48.5,34.4 48,35.7 47.3,36.9 46.5,37.9 45.5,38.8 44.4,39.4 43.1,39.9 41.7,40" />
<path stroke="#000000" stroke-width="2" d="M 79.2,70" />
<path stroke="#000000" stroke-width="2" d="M 79.2,30 89.2,30 89.2,70" />
<path stroke="#000000" stroke-width="2" d="M 95.8,70" />
<path stroke="#000000" stroke-width="2" d="M 95.8,50 95.8,70 95.8,64 95.8,63.1 95.9,62.3 96.1,61.4 96.3,60.6 96.6,59.7 97,58.9 97.4,58.2 97.9,57.5 98.5,56.8 99.1,56.2 99.7,55.6 100.5,55.1 101.2,54.7 102,54.3 102.8,54 103.7,53.8 104.5,53.6 105.4,53.6" />
<path stroke="#000000" stroke-width="2" d="M 135.4,70" />
<path stroke="#000000" stroke-width="2" d="M 155.4,30 155.4,70 135.4,70" />
<path stroke="#000000" stroke-width="2" d="M 162.1,70" />
<path stroke="#000000" stroke-width="2" d="M 162.1,55" />
<path stroke="#000000" stroke-width="2" d="M 162.1,55 164.1,54.9 165.7,54.6 166.9,54.1 167.8,53.6 168.4,52.9 168.7,52.2 168.7,51.4 168.5,50.7 168.2,50 167.7,49.4 167.1,48.9 166.4,48.5 165.6,48.3 164.9,48.4 164.2,48.7 163.5,49.2 162.9,50.1 162.5,51.4 162.2,53 162.1,55 162.1,70 154.4,88.5" />
<path stroke="#000000" stroke-width="2" d="M 198.7,70" />
<path stroke="#000000" stroke-width="2" d="M 218.7,30 217,30 215.2,30.2 213.5,30.5 211.8,30.9 210.2,31.5 208.6,32.2 207.1,33.1 205.7,34.1 204.3,35.2 203.1,36.5 202,37.8 201,39.2 200.1,40.7 199.4,42.3 198.8,44 198.3,45.7 198,47.4 197.9,49.1 197.9,50.9 198,52.6 198.3,54.3 198.8,56 199.4,57.6 200.1,59.2 201,60.7 202,62.2 203.1,63.5 204.3,64.7 205.7,65.8 207.1,66.8 208.6,67.7 210.2,68.5 211.8,69.1 213.5,69.5 215.2,69.8 217,70" />
<path stroke="#000000" stroke-width="2" d="M 217,50" />
<path stroke="#000000" stroke-width="2" d="M 185,50 225,50" />
<path stroke="#000000" stroke-width="2" d="M 255,70" />
<path stroke="#000000" stroke-width="2" d="M 255,30 265,30 265,70" />
<path stroke="#000000" stroke-width="2" d="M 271.6,70" />
<path stroke="#000000" stroke-width="2" d="M 271.6,30 286.9,67 302.2,30" />
<path stroke="#000000" stroke-width="2" d="M 332.2,70" />
<path stroke="#000000" stroke-width="2" d="M 332.2,30 347.6,67" />
<path stroke="#000000" stroke-width="2" d="M 354.2,70" />
<path stroke="#000000" stroke-width="2" d="M 354.2,30 394.2,30" />
<path stroke="#000000" stroke-width="2" d="M 400.9,70" />
<path stroke="#000000" stroke-width="2" d="M 410.9,50 403.2,68.5" />
<path stroke="#000000" stroke-width="2" d="M 403.2,68.5 405.3,68.4 406.9,68.1 408.1,67.6 409,67 409.6,66.4 409.8,65.6 409.9,64.9 409.7,64.2 409.4,63.5 408.9,62.9 408.2,62.4 407.6,62 406.8,61.8 406.1,61.9 405.3,62.1 404.7,62.7 404.1,63.6 403.6,64.8 403.3,66.4 403.2,68.5 403.2,83.5" />
<path stroke="#000000" stroke-width="2" d="M 440.9,70" />
<path stroke="#000000" stroke-width="2" d="M 440.9,30 460.9,30" />
<path stroke="#000000" stroke-width="2" d="M 460.9,30 462.3,30.1 463.6,30.6 464.7,31.2 465.7,32.1 466.5,33.1 467.2,34.3 467.7,35.6 468.1,37 468.3,38.5 468.4,40 468.3,41.5 468.1,43 467.7,44.4 467.2,45.7 466.5,46.9 465.7,47.9 464.7,48.8 463.6,49.4 462.3,49.9 460.9,50" />
<path stroke="#000000" stroke-width="2" d="M 498.4,70" />
<path stroke="#000000" stroke-width="2" d="M 518.4,70 520.1,70 521.9,69.8 523.6,69.5 525.3,69.1 526.9,68.5 528.5,67.8 530,66.9 531.4,65.9 532.8,64.8 534,63.5 535.1,62.2 536.1,60.8 537,59.3 537.7,57.7 538.3,56 538.8,54.3 539.1,52.6 539.2,50.9 539.2,49.1 539.1,47.4 538.8,45.7 538.3,44 537.7,42.4 537,40.8 536.1,39.3 535.1,37.8 534,36.5 532.8,35.3 531.4,34.2 530,33.2 528.5,32.3 526.9,31.5 525.3,30.9 523.6,30.5 521.9,30.2 520.1,30 518.4,30 516.6,30.2 514.9,30.5 513.2,30.9 511.6,31.5 510,32.3 508.5,33.2 507.1,34.2 505.7,35.3 504.5,36.5 503.4,37.8 502.4,39.3 501.5,40.8 500.8,42.4 500.2,44 499.7,45.7 499.4,47.4 499.3,49.1 499.3,50.9 499.4,52.6 499.7,54.3 500.2,56 500.8,57.7 501.5,59.3 502.4,60.8 503.4,62.2 504.5,63.5 505.7,64.8 507.1,65.9 508.5,66.9 510,67.8 511.6,68.5 513.2,69.1 514.9,69.5 516.6,69.8 518.4,70" />
<path stroke="#000000" stroke-width="2" d="M 545.9,70" />
<path stroke="#000000" stroke-width="2" d="M 545.9,40" />
<path stroke="#000000" stroke-width="2" d="M 545.9,40 550,39.8 553.2,39.2 555.7,38.3 557.4,37.1 558.6,35.8 559.1,34.3 559.2,32.8 558.9,31.4 558.2,30 557.2,28.8 555.9,27.7 554.5,27 553.1,26.7 551.6,26.8 550.1,27.3 548.8,28.5 547.6,30.2 546.7,32.7 546.1,35.9 545.9,40 545.9,70" />
<path stroke="#000000" stroke-width="2" d="M 589.2,70" />
<path stroke="#000000" stroke-width="2" d="M 589.2,30 589.2,31.4 589.3,32.8 589.6,34.2 589.9,35.5 590.4,36.8 591,38.1 591.7,39.3 592.5,40.4 593.4,41.5 594.4,42.5 595.5,43.4 596.6,44.2 597.8,44.9 599.1,45.5 600.4,46 601.7,46.3 603.1,46.6 604.5,46.7 605.9,46.7 607.3,46.6 608.7,46.3 610,46 611.3,45.5 612.6,44.9 613.8,44.2 614.9,43.4 616,42.5 617,41.5 617.9,40.4 618.7,39.3 619.4,38.1 620,36.8 620.5,35.5 620.8,34.2 621.1,32.8 621.2,31.4" />
<path stroke="#000000" stroke-width="2" d="M 627.9,70" />
<path stroke="#000000" stroke-width="2" d="M 637.9,30 630.2,48.5 630.2,49.2 630.3,49.9 630.4,50.6 630.6,51.2 630.8,51.9 631.1,52.5 631.4,53.1 631.8,53.7 632.3,54.2 632.8,54.7 633.3,55.2 633.9,55.6 634.5,55.9 635.1,56.2 635.8,56.5 636.5,56.6 637.1,56.8 637.8,56.8 638.5,56.8 639.2,56.8 639.9,56.6 640.6,56.5 641.3,56.2 641.9,55.9 642.5,55.6 643.1,55.2 643.6,54.7 644.1,54.2 644.5,53.7 644.9,53.1 645.3,52.5 645.6,51.9 645.8,51.2 646,50.6 646.1,49.9 646.2,49.2" />
<path stroke="#000000" stroke-width="2" d="M 676.2,70" />
<path stroke="#000000" stroke-width="2" d="M 676.2,50 676.2,49.3 676.2,48.6 676.4,47.9 676.5,47.2 676.8,46.6 677.1,46 677.4,45.4 677.8,44.8 678.3,44.2 678.8,43.8 679.3,43.3 679.9,42.9 680.5,42.6 681.1,42.3 681.8,42 682.4,41.8 683.1,41.7 683.8,41.7 684.5,41.7 685.2,41.7 685.9,41.8 686.6,42 687.2,42.3 687.9,42.6 688.5,42.9 689,43.3 689.6,43.8 690.1,44.2 690.5,44.8 690.9,45.4 691.3,46 691.6,46.6 691.8,47.2 692,47.9 692.1,48.6 692.2,49.3 692.2,50 692.2,50.7 692.3,51.4 692.5,52.1 692.8,52.7 693.1,53.3 693.4,53.9 693.8,54.5 694.3,55.1 694.8,55.5 695.3,56 695.9,56.4 696.5,56.7 697.1,57 697.8,57.3 698.4,57.5 699.1,57.6 699.8,57.6 700.5,57.6 701.2,57.6 701.9,57.5 702.6,57.3 703.2,57 703.9,56.7 704.5,56.4 705,56 705.6,55.5 706.1,55.1 706.5,54.5 706.9,53.9 707.3,53.3 707.6,52.7 707.8,52.1 708,51.4 708.1,50.7 708.2,50" />
<path stroke="#000000" stroke-width="2" d="M 714.8,70" />
<path stroke="#000000" stroke-width="2" d="M 714.8,55" />
<path stroke="#000000" stroke-width="2" d="M 714.8,55 716.8,54.9 718.5,54.6 719.7,54.1 720.6,53.6 721.1,52.9 721.4,52.2 721.5,51.4 721.3,50.7 720.9,50 720.4,49.4 719.8,48.9 719.1,48.5 718.4,48.3 717.7,48.4 716.9,48.7 716.3,49.2 715.7,50.1 715.2,51.4 714.9,53 714.8,55 714.8,70 707.2,88.5 709.5,82.9 709.8,82.1 710.2,81.4 710.7,80.6 711.2,79.9 711.8,79.3 712.4,78.7 713.1,78.2 713.9,77.7 714.6,77.3 715.4,77 716.3,76.7 717.1,76.5 722.1,76.5 722.1,96.5" />
<path stroke="#000000" stroke-width="2" d="M 728.8,70" />
<path stroke="#000000" stroke-width="2" d="M 728.8,70 728.8,69.3 728.8,68.6 729,67.9 729.2,67.2 729.4,66.6 729.7,66 730,65.4 730.4,64.8 730.9,64.2 731.4,63.8 731.9,63.3 732.5,62.9 733.1,62.6 733.7,62.3 734.4,62 735,61.8 735.7,61.7 736.4,61.7 737.1,61.7 737.8,61.7 738.5,61.8 739.2,62 739.8,62.3 740.5,62.6 741.1,62.9 741.7,63.3 742.2,63.8 742.7,64.2 743.1,64.8 743.5,65.4 743.9,66 744.2,66.6 744.4,67.2 744.6,67.9 744.7,68.6 744.8,69.3" />
<path stroke="#000000" stroke-width="2" d="M 774.8,70" />
<path stroke="#000000" stroke-width="2" d="M 784.8,30 783.9,30 783,30.1 782.2,30.2 781.3,30.5 780.5,30.8 779.7,31.1 779,31.6 778.2,32.1 777.6,32.6 777,33.2 776.4,33.9 775.9,34.6 775.5,35.4 775.1,36.2 774.8,37 774.6,37.8 774.4,38.7 774.3,39.6 774.3,40.4 774.4,41.3 774.6,42.2 774.8,43 775.1,43.8 775.5,44.6 775.9,45.4 776.4,46.1 777,46.7 777.6,47.4 778.2,47.9 779,48.4 779.7,48.9 780.5,49.2 781.3,49.5 782.2,49.8 783,49.9 783.9,50 783.9,49.3 784,48.6 784.1,47.9 784.3,47.2 784.5,46.6 784.8,45.9 785.1,45.3 785.5,44.8 786,44.2 786.5,43.7 787,43.3 787.6,42.9 788.2,42.5 788.8,42.2 789.5,42 790.2,41.8 790.8,41.7 791.5,41.6 792.2,41.6 792.9,41.7 793.6,41.8 794.3,42 795,42.2 795.6,42.5 796.2,42.9 796.8,43.3 797.3,43.7 797.8,44.2 798.2,44.8 798.6,45.3 799,45.9 799.3,46.6 799.5,47.2 799.7,47.9 799.8,48.6 799.9,49.3" />
<path stroke="#000000" stroke-width="2" d="M 806.6,70" />
<path stroke="#000000" stroke-width="2" d="M 806.6,50 806.6,70 806.6,64 806.6,63.1 806.6,62.3 806.8,61.4 807,60.6 807.3,59.7 807.7,58.9 808.1,58.2 808.6,57.5 809.2,56.8 809.8,56.2 810.5,55.6 811.2,55.1 811.9,54.7 812.7,54.3 813.5,54 814.4,53.8 815.2,53.6 816.1,53.6" />
<path stroke="#000000" stroke-width="2" d="M 816.1,53.6 817.5,53.7 818.8,54.1 819.9,54.8 820.9,55.7 821.7,56.7 822.4,57.9 822.9,59.2 823.3,60.6 823.5,62.1 823.6,63.6 823.5,65.1 823.3,66.5 822.9,67.9 822.4,69.3 821.7,70.4 820.9,71.5 819.9,72.4 818.8,73 817.5,73.4 816.1,73.6" />
<path stroke="#000000" stroke-width="2" d="M 853.6,70" />
<path stroke="#000000" stroke-width="2" d="M 873.6,30 871.9,30 870.1,30.2 868.4,30.5 866.7,30.9 865.1,31.5 863.5,32.2 862,33.1 860.6,34.1 859.2,35.2 858,36.5 856.9,37.8 855.9,39.2 855,40.7 854.3,42.3 853.7,44 853.2,45.7 852.9,47.4 852.8,49.1 852.8,50.9 852.9,52.6 853.2,54.3 853.7,56 854.3,57.6 855,59.2 855.9,60.7 856.9,62.2 858,63.5 859.2,64.7 860.6,65.8 862,66.8 863.5,67.7 865.1,68.5 866.7,69.1 868.4,69.5 870.1,69.8 871.9,70" />
<path stroke="#000000" stroke-width="2" d="M 871.9,50" />
<path stroke="#000000" stroke-width="2" d="M 839.9,50 879.9,50" />
<path stroke="#000000" stroke-width="2" d="M 909.9,70" />
<path stroke="#000000" stroke-width="2" d="M 909.9,70 910.1,70 910.1,70.2 909.9,70.2 909.9,70" />
<path stroke="#000000" stroke-width="2" d="M 916.7,70" />
<path stroke="#000000" stroke-width="2" d="M 926.7,30 916.7,30 916.7,70" />
<path stroke="#000000" stroke-width="2" d="M 933.4,70" />
<path stroke="#000000" stroke-width="2" d="M 933.4,50" />
<path stroke="#000000" stroke-width="2" d="M 933.4,50 933.5,50 934,50 934.6,50 935.5,50.1 936.5,50.2 937.7,50.3 939,50.4 940.4,50.6 941.9,50.9 943.4,51.2 944.9,51.7 946.4,52.2 947.8,52.7 949.1,53.4 950.3,54.2 951.3,55.1 952.2,56.1 952.8,57.3 953.2,58.6 953.4,60" />
<path stroke="#000000" stroke-width="2" d="M 953.4,60 955.3,62.1 956.6,64.1 957.4,65.7 957.7,67.2 957.6,68.4 957.2,69.5 956.5,70.2 955.6,70.8 954.5,71.1 953.4,71.2 952.3,71.1 951.2,70.8 950.3,70.2 949.6,69.5 949.2,68.4 949.1,67.2 949.4,65.7 950.2,64 951.5,62.1 953.4,60" />
<path stroke="#000000" stroke-width="2" d="M 953.4,60 953.4,59.9 953.4,59.7 953.5,59.4 953.6,59 953.7,58.4 953.9,57.8 954.3,57.2 954.7,56.5 955.2,55.7 955.9,55 956.7,54.3 957.7,53.5 958.9,52.8 960.3,52.2 961.8,51.6 963.6,51 965.7,50.6 968,50.3 970.5,50.1 973.4,50 973.4,70 973.4,64 973.4,63.1 973.5,62.3 973.6,61.4 973.8,60.6 974.1,59.7 974.5,58.9 975,58.2 975.5,57.5 976,56.8 976.6,56.2 977.3,55.6 978,55.1 978.8,54.7 979.6,54.3 980.4,54 981.2,53.8 982.1,53.6 982.9,53.6" />
<path stroke="#000000" stroke-width="2" d="M 982.9,53.6 985,53.5 986.6,53.2 987.8,52.7 988.7,52.1 989.3,51.5 989.6,50.7 989.6,50 989.4,49.3 989.1,48.6 988.6,47.9 988,47.4 987.3,47.1 986.5,46.9 985.8,47 985.1,47.2 984.4,47.8 983.8,48.7 983.4,49.9 983.1,51.5 982.9,53.6 982.9,68.6" />
<path stroke="#000000" stroke-width="2" d="M 1019.6,70" />
<path stroke="#000000" stroke-width="2" d="M 1029.6,30 1028.7,30 1027.9,30.1 1027,30.2 1026.2,30.5 1025.3,30.8 1024.5,31.1 1023.8,31.6 1023.1,32.1 1022.4,32.6 1021.8,33.2 1021.2,33.9 1020.7,34.6 1020.3,35.4 1019.9,36.2 1019.6,37 1019.4,37.8 1019.3,38.7 1019.2,39.6 1019.2,40.4 1019.3,41.3 1019.4,42.2 1019.6,43 1019.9,43.8 1020.3,44.6 1020.7,45.4 1021.2,46.1 1021.8,46.7 1022.4,47.4 1023.1,47.9 1023.8,48.4 1024.5,48.9 1025.3,49.2 1026.2,49.5 1027,49.8 1027.9,49.9 1028.7,50 1033.7,50 1033.7,70" />
<path stroke="#000000" stroke-width="2" d="M 1063.7,70" />
<path stroke="#000000" stroke-width="2" d="M 1063.7,70" />
<path stroke="#000000" stroke-width="2" d="M 1063.7,70 1064.9,70 1065.8,70.2 1066.7,70.4 1067.4,70.7 1067.9,71 1068.4,71.5 1068.7,71.9 1068.9,72.5 1069,73.1 1069,73.8 1068.9,74.4 1068.6,75.2 1068.3,76 1067.9,76.8 1067.4,77.6 1066.8,78.4 1066.1,79.3 1065.4,80.2 1064.6,81.1 1063.7,82" />
<path stroke="#000000" stroke-width="2" d="M 1099,70" />
<path stroke="#000000" stroke-width="2" d="M 1111,30" />
<path stroke="#000000" stroke-width="2" d="M 1111,30 1110.8,34.1 1110.2,37.3 1109.3,39.8 1108.1,41.5 1106.8,42.7 1105.3,43.2 1103.8,43.3 1102.4,43 1101,42.3 1099.8,41.2 1098.8,40 1098,38.6 1097.7,37.2 1097.8,35.7 1098.3,34.2 1099.5,32.9 1101.2,31.7 1103.7,30.8 1106.9,30.2 1111,30 1119,30" />
<path stroke="#000000" stroke-width="2" d="M 1119,30 1120.7,30.6 1122.4,31.3 1123.9,32.1 1125.3,32.8 1126.6,33.7 1127.8,34.6 1128.8,35.5 1129.8,36.5 1130.7,37.5 1131.5,38.5 1132.2,39.6 1132.8,40.7 1133.4,41.8 1133.8,42.9 1134.2,44.1 1134.5,45.2 1134.7,46.4 1134.9,47.6 1135,48.8 1135,50" />
<path stroke="#000000" stroke-width="2" d="M 1141.7,70" />
<path stroke="#000000" stroke-width="2" d="M 1141.7,25" />
<path stroke="#000000" stroke-width="2" d="M 1141.7,25 1143.7,24.9 1145.3,24.6 1146.5,24.1 1147.4,23.6 1148,22.9 1148.3,22.2 1148.3,21.4 1148.1,20.7 1147.8,20 1147.3,19.4 1146.7,18.9 1146,18.5 1145.3,18.3 1144.5,18.4 1143.8,18.7 1143.1,19.2 1142.5,20.1 1142.1,21.4 1141.8,23 1141.7,25 1141.7,40" />
<path stroke="#000000" stroke-width="2" d="M 1155,70" />
<path stroke="#000000" stroke-width="2" d="M 1155,50 1162.6,68.5" />
<path stroke="#000000" stroke-width="2" d="M 1169.3,70" />
<path stroke="#000000" stroke-width="2" d="M 1169.3,20 1169.3,40 1169.3,40.7 1169.4,41.4 1169.5,42.1 1169.7,42.8 1169.9,43.4 1170.2,44 1170.6,44.6 1171,45.2 1171.4,45.8 1171.9,46.2 1172.4,46.7 1173,47.1 1173.6,47.4 1174.2,47.7 1174.9,48 1175.6,48.2 1176.3,48.3 1177,48.3 1177.7,48.3 1178.3,48.3 1179,48.2 1179.7,48 1180.4,47.7 1181,47.4 1181.6,47.1 1182.2,46.7 1182.7,46.2 1183.2,45.8 1183.6,45.2 1184,44.6 1184.4,44 1184.7,43.4 1184.9,42.8 1185.1,42.1 1185.2,41.4 1185.3,40.7" />
<path stroke="#000000" stroke-width="2" d="M 1192,70" />
<path stroke="#000000" stroke-width="2" d="M 1192,30 1192.2,30 1192.2,30.2 1192,30.2 1192,30" />
<path stroke="#000000" stroke-width="2" d="M 1222.2,70" />
<path stroke="#000000" stroke-width="2" d="M 1242.2,70 1243.9,70 1245.6,69.8 1247.4,69.5 1249,69.1 1250.7,68.5 1252.3,67.8 1253.8,66.9 1255.2,65.9 1256.5,64.8 1257.8,63.5 1258.9,62.2 1259.9,60.8 1260.8,59.3 1261.5,57.7 1262.1,56 1262.6,54.3 1262.9,52.6 1263,50.9 1263,49.1 1262.9,47.4 1262.6,45.7 1262.1,44 1261.5,42.4 1260.8,40.8 1259.9,39.3 1258.9,37.8 1257.8,36.5 1256.5,35.3 1255.2,34.2 1253.8,33.2 1252.3,32.3 1250.7,31.5 1249,30.9 1247.4,30.5 1245.6,30.2 1243.9,30 1242.2,30 1240.4,30.2 1238.7,30.5 1237,30.9 1235.4,31.5 1233.8,32.3 1232.3,33.2 1230.9,34.2 1229.5,35.3 1228.3,36.5 1227.2,37.8 1226.2,39.3 1225.3,40.8 1224.6,42.4 1224,44 1223.5,45.7 1223.2,47.4 1223.1,49.1 1223.1,50.9 1223.2,52.6 1223.5,54.3 1224,56 1224.6,57.7 1225.3,59.3 1226.2,60.8 1227.2,62.2 1228.3,63.5 1229.5,64.8 1230.9,65.9 1232.3,66.9 1233.8,67.8 1235.4,68.5 1237,69.1 1238.7,69.5 1240.4,69.8 1242.2,70" />
<path stroke="#000000" stroke-width="2" d="M 1269.7,70" />
<path stroke="#000000" stroke-width="2" d="M 1269.7,40" />
<path stroke="#000000" stroke-width="2" d="M 1269.7,40 1273.7,39.8 1277,39.2 1279.4,38.3 1281.2,37.1 1282.3,35.8 1282.9,34.3 1283,32.8 1282.6,31.4 1281.9,30 1280.9,28.8 1279.7,27.7 1278.3,27 1276.8,26.7 1275.4,26.8 1273.9,27.3 1272.6,28.5 1271.4,30.2 1270.5,32.7 1269.9,35.9 1269.7,40 1269.7,70" />
<path stroke="#000000" stroke-width="2" d="M 1313,70" />
<path stroke="#000000" stroke-width="2" d="M 1313,30 1323,30 1323,70" />
<path stroke="#000000" stroke-width="2" d="M 1329.7,70" />
<path stroke="#000000" stroke-width="2" d="M 1329.7,30 1345,67 1360.3,30" />
<path stroke="#000000" stroke-width="2" d="M 1390.3,70" />
<path stroke="#000000" stroke-width="2" d="M 1390.3,30 1405.6,67" />
<path stroke="#000000" stroke-width="2" d="M 1412.2,70" />
<path stroke="#000000" stroke-width="2" d="M 1412.2,30 1452.2,30" />
<path stroke="#000000" stroke-width="2" d="M 1458.9,70" />
<path stroke="#000000" stroke-width="2" d="M 1468.9,50 1461.3,68.5" />
<path stroke="#000000" stroke-width="2" d="M 1461.3,68.5 1463.3,68.4 1464.9,68.1 1466.1,67.6 1467,67 1467.6,66.4 1467.9,65.6 1467.9,64.9 1467.7,64.2 1467.4,63.5 1466.9,62.9 1466.3,62.4 1465.6,62 1464.8,61.8 1464.1,61.9 1463.4,62.1 1462.7,62.7 1462.1,63.6 1461.7,64.8 1461.4,66.4 1461.3,68.5 1461.3,83.5" />
<path stroke="#000000" stroke-width="2" d="M 1498.9,70" />
<path stroke="#000000" stroke-width="2" d="M 1498.9,70 1499.1,70 1499.1,70.2 1498.9,70.2 1498.9,70" />
<path stroke="#000000" stroke-width="2" d="M 1529.1,70" />
</svg>