<svg xmlns="http://www.w3.org/2000/svg" width="1090.1266872680692" height="102.0" style="fill:none; stroke-linecap:round;">
    <rect width="100%" height="100%" fill="#FFFFFF" />
<path stroke="#000000" stroke-width="2" d="M 550,75" />
<path stroke="#000000" stroke-width="2" d="M 20,40 20.2,40 20.2,40.2 20,40.2 20,40" />
<path stroke="#000000" stroke-width="2" d="M 26.9,70" />
<path stroke="#000000" stroke-width="2" d="M 28.9,50 34.2,37.1 34.4,36.7 34.5,36.4 34.5,36.1 34.6,35.7 34.6,35.4 34.6,35 34.5,34.7 34.5,34.3 34.4,34 34.2,33.7 34.1,33.4 33.9,33.1 33.7,32.8 33.4,32.5 33.2,32.3 32.9,32.1 32.6,31.9 32.3,31.7 32,31.6 31.6,31.5 31.3,31.4 30.9,31.4 30.6,31.4 30.3,31.4 29.9,31.4 29.6,31.5 29.2,31.6 28.9,31.7 28.6,31.9 28.3,32.1 28,32.3 27.8,32.5 27.5,32.8 27.3,33.1 27.1,33.4 27,33.7 26.8,34 26.7,34.3 26.7,34.7 26.6,35 26.6,35.4 26.6,35.7 26.7,36.1 26.7,36.4 26.8,36.7 27,37.1 27.1,37.4 27.3,37.7 27.5,37.9 27.8,38.2 28,38.4 28.3,38.7 28.6,38.8 28.9,39 29.2,39.1 29.6,39.2 29.9,39.3 30.3,39.4 30.6,39.4 30.9,39.4 43.9,34 43.9,34.7 43.9,35.4 44.1,36.1 44.2,36.8 44.5,37.4 44.8,38 45.1,38.6 45.5,39.2 46,39.8 46.5,40.2 47,40.7 47.6,41.1 48.2,41.4 48.8,41.7 49.5,42 50.1,42.2 50.8,42.3 51.5,42.3 52.2,42.3 52.9,42.3 53.6,42.2 54.3,42 54.9,41.7 55.6,41.4 56.2,41.1 56.7,40.7 57.3,40.2 57.8,39.8 58.2,39.2 58.6,38.6 59,38 59.3,37.4 59.5,36.8 59.7,36.1 59.8,35.4 59.9,34.7 60.7,34.7 61.6,34.8 62.5,34.9 63.3,35.2 64.1,35.5 64.9,35.8 65.7,36.3 66.4,36.8 67.1,37.3 67.7,37.9 68.2,38.6 68.7,39.3 69.2,40.1 69.5,40.9 69.8,41.7 70.1,42.5 70.2,43.4 70.3,44.3 70.3,45.1 70.2,46 70.1,46.9 69.8,47.7 69.5,48.5 69.2,49.3 68.7,50.1 68.2,50.8 67.7,51.4 67.1,52.1 66.4,52.6 65.7,53.1 64.9,53.6 64.1,53.9 63.3,54.2 62.5,54.5 61.6,54.6 60.7,54.7" />
<path stroke="#000000" stroke-width="2" d="M 77,70" />
<path stroke="#000000" stroke-width="2" d="M 77,20 77,40 77,34 77,33.1 77,32.3 77.2,31.4 77.4,30.6 77.7,29.7 78.1,28.9 78.5,28.2 79,27.5 79.6,26.8 80.2,26.2 80.9,25.6 81.6,25.1 82.3,24.7 83.1,24.3 83.9,24 84.8,23.8 85.6,23.6 86.5,23.6" />
<path stroke="#000000" stroke-width="2" d="M 116.5,70" />
<path stroke="#000000" stroke-width="2" d="M 126.5,30 127,30 127.6,30 128.1,30.1 128.6,30.3 129.1,30.5 129.5,30.7 130,30.9 130.4,31.2 130.8,31.6 131.2,31.9 131.5,32.3 131.8,32.8 132.1,33.2 132.3,33.7 132.5,34.2 132.6,34.7 132.7,35.2 132.8,35.7 132.8,36.3 132.7,36.8 132.6,37.3 132.5,37.8 132.3,38.3 132.1,38.8 131.8,39.2 131.5,39.6 131.2,40 130.8,40.4 130.4,40.8 130,41.1 129.5,41.3 129.1,41.5 128.6,41.7 128.1,41.9 127.6,41.9 127,42 126.5,42 126,41.9 125.5,41.9 125,41.7 124.5,41.5 124,41.3 123.6,41.1 123.1,40.8 122.7,40.4 122.4,40 122,39.6 121.7,39.2 121.5,38.8 121.2,38.3 121.1,37.8 120.9,37.3 120.8,36.8 120.8,36.3 120.8,35.7 120.8,35.2 120.9,34.7 121.1,34.2 121.2,33.7 121.5,33.2 121.7,32.8 122,32.3 122.4,31.9 122.7,31.6 123.1,31.2 123.6,30.9 124,30.7 124.5,30.5 125,30.3 125.5,30.1 126,30 126.5,30 126.5,50 118.9,68.5 121.2,62.9 121.5,62.1 121.9,61.4 122.4,60.6 122.9,59.9 123.5,59.3 124.1,58.7 124.8,58.2 125.6,57.7 126.3,57.3 127.1,57 128,56.7 128.8,56.5" />
<path stroke="#000000" stroke-width="2" d="M 162.8,70" />
<path stroke="#000000" stroke-width="2" d="M 182.8,30 167.5,67" />
<path stroke="#000000" stroke-width="2" d="M 189.4,70" />
<path stroke="#000000" stroke-width="2" d="M 199.4,50 198.6,50 197.7,50.1 196.8,50.2 196,50.5 195.2,50.8 194.4,51.1 193.6,51.6 192.9,52.1 192.2,52.6 191.6,53.2 191.1,53.9 190.6,54.6 190.1,55.4 189.8,56.2 189.5,57 189.2,57.8 189.1,58.7 189,59.6 189,60.4 189.1,61.3 189.2,62.2 189.5,63 189.8,63.8 190.1,64.6 190.6,65.4 191.1,66.1 191.6,66.7 192.2,67.4 192.9,67.9 193.6,68.4 194.4,68.9 195.2,69.2 196,69.5 196.8,69.8 197.7,69.9 198.6,70 198.6,69.3 198.6,68.6 198.7,67.9 198.9,67.2 199.2,66.6 199.5,65.9 199.8,65.3 200.2,64.8 200.7,64.2 201.2,63.7 201.7,63.3 202.3,62.9 202.9,62.5 203.5,62.2 204.2,62 204.8,61.8 205.5,61.7 206.2,61.6 206.9,61.6 207.6,61.7 208.3,61.8 209,62 209.6,62.2 210.3,62.5 210.9,62.9 211.4,63.3 212,63.7 212.5,64.2 212.9,64.8 213.3,65.3 213.7,65.9 213.9,66.6 214.2,67.2 214.4,67.9 214.5,68.6 214.5,69.3" />
<path stroke="#000000" stroke-width="2" d="M 244.5,70" />
<path stroke="#000000" stroke-width="2" d="M 254.5,30 253.7,30 252.8,30.1 251.9,30.2 251.1,30.5 250.3,30.8 249.5,31.1 248.7,31.6 248,32.1 247.4,32.6 246.7,33.2 246.2,33.9 245.7,34.6 245.2,35.4 244.9,36.2 244.6,37 244.4,37.8 244.2,38.7 244.1,39.6 244.1,40.4 244.2,41.3 244.4,42.2 244.6,43 244.9,43.8 245.2,44.6 245.7,45.4 246.2,46.1 246.7,46.7 247.4,47.4 248,47.9 248.7,48.4 249.5,48.9 250.3,49.2 251.1,49.5 251.9,49.8 252.8,49.9 253.7,50 273.7,50" />
<path stroke="#000000" stroke-width="2" d="M 303.7,70" />
<path stroke="#000000" stroke-width="2" d="M 303.7,30 303.7,70 303.7,58 303.7,56.3 303.8,54.5 304.1,52.8 304.6,51.1 305.2,49.5 305.9,47.9 306.8,46.4 307.8,45 308.9,43.6 310.1,42.4 311.5,41.3 312.9,40.3 314.4,39.4 316,38.7 317.6,38.1 319.3,37.6 321,37.3 322.8,37.1" />
<path stroke="#000000" stroke-width="2" d="M 329.5,70" />
<path stroke="#000000" stroke-width="2" d="M 329.5,25" />
<path stroke="#000000" stroke-width="2" d="M 329.5,25 331.5,24.9 333.1,24.6 334.3,24.1 335.2,23.6 335.8,22.9 336.1,22.2 336.1,21.4 335.9,20.7 335.6,20 335.1,19.4 334.5,18.9 333.8,18.5 333,18.3 332.3,18.4 331.6,18.7 330.9,19.2 330.3,20.1 329.9,21.4 329.6,23 329.5,25 329.5,40" />
<path stroke="#000000" stroke-width="2" d="M 329.5,40 329.3,42 329,43.6 328.6,44.9 328,45.8 327.3,46.3 326.6,46.6 325.9,46.7 325.1,46.5 324.4,46.1 323.8,45.6 323.3,45 323,44.3 322.8,43.6 322.8,42.8 323.1,42.1 323.7,41.4 324.6,40.9 325.8,40.4 327.4,40.1 329.5,40 339.5,40" />
<path stroke="#000000" stroke-width="2" d="M 346.1,70" />
<path stroke="#000000" stroke-width="2" d="M 346.1,50 366.1,50" />
<path stroke="#000000" stroke-width="2" d="M 366.1,50 368.1,49.9 369.8,49.6 371,49.1 371.9,48.6 372.4,47.9 372.7,47.2 372.8,46.4 372.6,45.7 372.2,45 371.7,44.4 371.1,43.9 370.4,43.5 369.7,43.3 369,43.4 368.2,43.7 367.6,44.2 367,45.1 366.5,46.4 366.2,48 366.1,50 366.1,65" />
<path stroke="#000000" stroke-width="2" d="M 379.4,70" />
<path stroke="#000000" stroke-width="2" d="M 379.4,30 379.4,70" />
<path stroke="#000000" stroke-width="2" d="M 386.1,70" />
<path stroke="#000000" stroke-width="2" d="M 386.1,30 386.1,31.4 386.2,32.8 386.5,34.2 386.8,35.5 387.3,36.8 387.9,38.1 388.6,39.3 389.4,40.4 390.3,41.5 391.3,42.5 392.4,43.4 393.5,44.2 394.7,44.9 396,45.5 397.3,46 398.6,46.3 400,46.6 401.4,46.7 402.8,46.7 404.2,46.6 405.6,46.3 406.9,46 408.2,45.5 409.5,44.9 410.7,44.2 411.8,43.4 412.9,42.5 413.9,41.5 414.8,40.4 415.6,39.3 416.3,38.1 416.9,36.8 417.4,35.5 417.7,34.2 418,32.8 418.1,31.4" />
<path stroke="#000000" stroke-width="2" d="M 424.7,70" />
<path stroke="#000000" stroke-width="2" d="M 444.7,30 429.4,67" />
<path stroke="#000000" stroke-width="2" d="M 451.4,70" />
<path stroke="#000000" stroke-width="2" d="M 451.4,30 451.6,30 451.6,30.2 451.4,30.2 451.4,30" />
<path stroke="#000000" stroke-width="2" d="M 481.6,70" />
<path stroke="#000000" stroke-width="2" d="M 481.6,30 491.6,30 491.6,70" />
<path stroke="#000000" stroke-width="2" d="M 498.3,70" />
<path stroke="#000000" stroke-width="2" d="M 498.3,50 498.3,70 498.3,64 498.3,63.1 498.4,62.3 498.5,61.4 498.7,60.6 499,59.7 499.4,58.9 499.8,58.2 500.3,57.5 500.9,56.8 501.5,56.2 502.2,55.6 502.9,55.1 503.6,54.7 504.4,54.3 505.3,54 506.1,53.8 507,53.6 507.8,53.6" />
<path stroke="#000000" stroke-width="2" d="M 537.8,70" />
<path stroke="#000000" stroke-width="2" d="M 537.8,30 537.8,70" />
<path stroke="#000000" stroke-width="2" d="M 544.5,70" />
<path stroke="#000000" stroke-width="2" d="M 554.5,70 555.4,70 556.2,69.9 557.1,69.8 557.9,69.5 558.8,69.2 559.6,68.9 560.3,68.4 561,67.9 561.7,67.4 562.3,66.8 562.9,66.1 563.4,65.4 563.8,64.6 564.2,63.8 564.5,63 564.7,62.2 564.8,61.3 564.9,60.4 564.9,59.6 564.8,58.7 564.7,57.8 564.5,57 564.2,56.2 563.8,55.4 563.4,54.6 562.9,53.9 562.3,53.3 561.7,52.6 561,52.1 560.3,51.6 559.6,51.1 558.8,50.8 557.9,50.5 557.1,50.2 556.2,50.1 555.4,50 554.5,50 553.6,50.1 552.8,50.2 551.9,50.5 551.1,50.8 550.3,51.1 549.6,51.6 548.8,52.1 548.2,52.6 547.6,53.3 547,53.9 546.5,54.6 546.1,55.4 545.7,56.2 545.4,57 545.2,57.8 545,58.7 544.9,59.6 544.9,60.4 545,61.3 545.2,62.2 545.4,63 545.7,63.8 546.1,64.6 546.5,65.4 547,66.1 547.6,66.8 548.2,67.4 548.8,67.9 549.6,68.4 550.3,68.9 551.1,69.2 551.9,69.5 552.8,69.8 553.6,69.9 554.5,70" />
<path stroke="#000000" stroke-width="2" d="M 594.9,70" />
<path stroke="#000000" stroke-width="2" d="M 594.9,40" />
<path stroke="#000000" stroke-width="2" d="M 594.9,40 599,39.8 602.2,39.2 604.7,38.3 606.4,37.1 607.6,35.8 608.2,34.3 608.2,32.8 607.9,31.4 607.2,30 606.2,28.8 604.9,27.7 603.6,27 602.1,26.7 600.6,26.8 599.1,27.3 597.8,28.5 596.6,30.2 595.7,32.7 595.1,35.9 594.9,40 594.9,70" />
<path stroke="#000000" stroke-width="2" d="M 614.9,70" />
<path stroke="#000000" stroke-width="2" d="M 614.9,50 634.9,50" />
<path stroke="#000000" stroke-width="2" d="M 664.9,70" />
<path stroke="#000000" stroke-width="2" d="M 664.9,70" />
<path stroke="#000000" stroke-width="2" d="M 664.9,70 666,70 667,70.2 667.8,70.4 668.5,70.7 669.1,71 669.6,71.5 669.9,71.9 670.1,72.5 670.2,73.1 670.1,73.8 670,74.4 669.8,75.2 669.5,76 669.1,76.8 668.6,77.6 668,78.4 667.3,79.3 666.6,80.2 665.8,81.1 664.9,82" />
<path stroke="#000000" stroke-width="2" d="M 700.2,70" />
<path stroke="#000000" stroke-width="2" d="M 700.2,30 720.2,30 721,30 721.9,30.1 722.8,30.2 723.6,30.5 724.4,30.8 725.2,31.1 726,31.6 726.7,32.1 727.4,32.6 728,33.2 728.5,33.9 729,34.6 729.5,35.4 729.8,36.2 730.1,37 730.4,37.8 730.5,38.7 730.6,39.6 730.6,40.4 730.5,41.3 730.4,42.2 730.1,43 729.8,43.8 729.5,44.6 729,45.4 728.5,46.1 728,46.7 727.4,47.4 726.7,47.9 726,48.4 725.2,48.9 724.4,49.2 723.6,49.5 722.8,49.8 721.9,49.9 721,50" />
<path stroke="#000000" stroke-width="2" d="M 760.6,70" />
<path stroke="#000000" stroke-width="2" d="M 760.6,30 775.9,67" />
<path stroke="#000000" stroke-width="2" d="M 782.6,70" />
<path stroke="#000000" stroke-width="2" d="M 792.6,50 791.7,50 790.8,50.1 790,50.2 789.1,50.5 788.3,50.8 787.5,51.1 786.8,51.6 786,52.1 785.4,52.6 784.8,53.2 784.2,53.9 783.7,54.6 783.3,55.4 782.9,56.2 782.6,57 782.4,57.8 782.2,58.7 782.1,59.6 782.1,60.4 782.2,61.3 782.4,62.2 782.6,63 782.9,63.8 783.3,64.6 783.7,65.4 784.2,66.1 784.8,66.7 785.4,67.4 786,67.9 786.8,68.4 787.5,68.9 788.3,69.2 789.1,69.5 790,69.8 790.8,69.9 791.7,70 811.7,70" />
<path stroke="#000000" stroke-width="2" d="M 841.7,70" />
<path stroke="#000000" stroke-width="2" d="M 841.7,70" />
<path stroke="#000000" stroke-width="2" d="M 841.7,70 842.8,70 843.8,70.2 844.6,70.4 845.3,70.7 845.9,71 846.4,71.5 846.7,71.9 846.9,72.5 847,73.1 846.9,73.8 846.8,74.4 846.6,75.2 846.3,76 845.9,76.8 845.4,77.6 844.8,78.4 844.1,79.3 843.4,80.2 842.6,81.1 841.7,82" />
<path stroke="#000000" stroke-width="2" d="M 877,70" />
<path stroke="#000000" stroke-width="2" d="M 877,30 897,30 897.8,30 898.7,30.1 899.6,30.2 900.4,30.5 901.2,30.8 902,31.1 902.8,31.6 903.5,32.1 904.2,32.6 904.8,33.2 905.3,33.9 905.8,34.6 906.3,35.4 906.6,36.2 906.9,37 907.2,37.8 907.3,38.7 907.4,39.6 907.4,40.4 907.3,41.3 907.2,42.2 906.9,43 906.6,43.8 906.3,44.6 905.8,45.4 905.3,46.1 904.8,46.7 904.2,47.4 903.5,47.9 902.8,48.4 902,48.9 901.2,49.2 900.4,49.5 899.6,49.8 898.7,49.9 897.8,50" />
<path stroke="#000000" stroke-width="2" d="M 937.4,70" />
<path stroke="#000000" stroke-width="2" d="M 953.4,30 933.6,49.8 953.4,69.6" />
<path stroke="#000000" stroke-width="2" d="M 960.1,70" />
<path stroke="#000000" stroke-width="2" d="M 960.1,20 960.1,40 960.1,34 960.1,33.1 960.1,32.3 960.3,31.4 960.5,30.6 960.8,29.7 961.2,28.9 961.6,28.2 962.1,27.5 962.7,26.8 963.3,26.2 964,25.6 964.7,25.1 965.4,24.7 966.2,24.3 967,24 967.9,23.8 968.7,23.6 969.6,23.6 977.3,42.1" />
<path stroke="#000000" stroke-width="2" d="M 983.9,70" />
<path stroke="#000000" stroke-width="2" d="M 983.9,50 1003.9,50" />
<path stroke="#000000" stroke-width="2" d="M 1010.6,70" />
<path stroke="#000000" stroke-width="2" d="M 1010.6,30 1010.8,30 1010.8,30.2 1010.6,30.2 1010.6,30" />
<path stroke="#000000" stroke-width="2" d="M 1040.8,70" />
<path stroke="#000000" stroke-width="2" d="M 1056.8,30 1037,49.8 1056.8,69.6" />
<path stroke="#000000" stroke-width="2" d="M 1063.5,70" />
<path stroke="#000000" stroke-width="2" d="M 1063.5,25" />
<path stroke="#000000" stroke-width="2" d="M 1063.5,25 1065.5,24.9 1067.1,24.6 1068.3,24.1 1069.2,23.6 1069.8,22.9 1070.1,22.2 1070.1,21.4 1070,20.7 1069.6,20 1069.1,19.4 1068.5,18.9 1067.8,18.5 1067.1,18.3 1066.3,18.4 1065.6,18.7 1064.9,19.2 1064.3,20.1 1063.9,21.4 1063.6,23 1063.5,25 1063.5,40" />
<path stroke="#000000" stroke-width="2" d="M 1100.1,70" />
</svg>