<svg xmlns="http://www.w3.org/2000/svg" width="1118.4380636623337" height="110.0" style="fill:none; stroke-linecap:round;">
    <rect width="100%" height="100%" fill="#FFFFFF" />
<path stroke="#000000" stroke-width="2" d="M 550,75" />
<path stroke="#000000" stroke-width="2" d="M 20,30 35.3,67" />
<path stroke="#000000" stroke-width="2" d="M 42,70" />
<path stroke="#000000" stroke-width="2" d="M 42,20 62,20" />
<path stroke="#000000" stroke-width="2" d="M 68.6,70" />
<path stroke="#000000" stroke-width="2" d="M 78.6,20 71,38.5" />
<path stroke="#000000" stroke-width="2" d="M 71,38.5 69,38.4 67.3,38.1 66.1,37.6 65.2,37 64.7,36.4 64.4,35.6 64.3,34.9 64.5,34.2 64.9,33.5 65.4,32.9 66,32.4 66.7,32 67.4,31.8 68.2,31.9 68.9,32.1 69.5,32.7 70.1,33.6 70.6,34.8 70.9,36.4 71,38.5 71,42.5" />
<path stroke="#000000" stroke-width="2" d="M 71,42.5 70.7,43.3 70.3,44.2 70,44.9 69.6,45.6 69.1,46.3 68.7,46.9 68.2,47.4 67.8,47.9 67.3,48.3 66.7,48.7 66.2,49.1 65.7,49.4 65.1,49.7 64.5,49.9 64,50.1 63.4,50.2 62.8,50.3 62.2,50.4 61.6,50.5 61,50.5" />
<path stroke="#000000" stroke-width="2" d="M 108.6,70" />
<path stroke="#000000" stroke-width="2" d="M 108.6,30 118.6,30 118.6,70 118.6,68.3 118.8,66.5 119.1,64.8 119.5,63.1 120.1,61.5 120.9,59.9 121.8,58.4 122.8,57 123.9,55.6 125.1,54.4 126.4,53.3 127.9,52.3 129.4,51.4 131,50.7 132.6,50.1 134.3,49.6 136,49.3 137.7,49.1" />
<path stroke="#000000" stroke-width="2" d="M 144.4,70" />
<path stroke="#000000" stroke-width="2" d="M 144.4,50 152.1,68.5" />
<path stroke="#000000" stroke-width="2" d="M 182.1,70" />
<path stroke="#000000" stroke-width="2" d="M 182.1,40 182.3,40 182.3,40.2 182.1,40.2 182.1,40" />
<path stroke="#000000" stroke-width="2" d="M 188.9,70" />
<path stroke="#000000" stroke-width="2" d="M 188.9,30 228.9,30" />
<path stroke="#000000" stroke-width="2" d="M 235.6,70" />
<path stroke="#000000" stroke-width="2" d="M 235.6,20 235.6,40 235.6,34 235.6,33.1 235.7,32.3 235.8,31.4 236.1,30.6 236.4,29.7 236.7,28.9 237.2,28.2 237.7,27.5 238.2,26.8 238.8,26.2 239.5,25.6 240.2,25.1 241,24.7 241.8,24.3 242.6,24 243.4,23.8 244.3,23.6 245.2,23.6 245.2,43.6" />
<path stroke="#000000" stroke-width="2" d="M 251.8,70" />
<path stroke="#000000" stroke-width="2" d="M 251.8,30 252,30 252,30.2 251.8,30.2 251.8,30" />
<path stroke="#000000" stroke-width="2" d="M 282,70" />
<path stroke="#000000" stroke-width="2" d="M 282,35" />
<path stroke="#000000" stroke-width="2" d="M 282,35 284.1,34.9 285.7,34.6 286.9,34.1 287.8,33.6 288.4,32.9 288.6,32.2 288.7,31.4 288.5,30.7 288.1,30 287.6,29.4 287,28.9 286.3,28.5 285.6,28.3 284.9,28.4 284.1,28.7 283.5,29.2 282.9,30.1 282.4,31.4 282.1,33 282,35 282,50 274.4,68.5" />
<path stroke="#000000" stroke-width="2" d="M 295.3,70" />
<path stroke="#000000" stroke-width="2" d="M 295.3,20 295.3,40 295.3,34 295.3,33.1 295.4,32.3 295.6,31.4 295.8,30.6 296.1,29.7 296.5,28.9 296.9,28.2 297.4,27.5 298,26.8 298.6,26.2 299.2,25.6 300,25.1 300.7,24.7 301.5,24.3 302.3,24 303.2,23.8 304,23.6 304.9,23.6" />
<path stroke="#000000" stroke-width="2" d="M 334.9,70" />
<path stroke="#000000" stroke-width="2" d="M 344.9,30 345.4,30 345.9,30 346.5,30.1 347,30.3 347.5,30.5 347.9,30.7 348.4,30.9 348.8,31.2 349.2,31.6 349.6,31.9 349.9,32.3 350.2,32.8 350.5,33.2 350.7,33.7 350.9,34.2 351,34.7 351.1,35.2 351.2,35.7 351.2,36.3 351.1,36.8 351,37.3 350.9,37.8 350.7,38.3 350.5,38.8 350.2,39.2 349.9,39.6 349.6,40 349.2,40.4 348.8,40.8 348.4,41.1 347.9,41.3 347.5,41.5 347,41.7 346.5,41.9 345.9,41.9 345.4,42 344.9,42 344.4,41.9 343.9,41.9 343.4,41.7 342.9,41.5 342.4,41.3 341.9,41.1 341.5,40.8 341.1,40.4 340.7,40 340.4,39.6 340.1,39.2 339.8,38.8 339.6,38.3 339.4,37.8 339.3,37.3 339.2,36.8 339.2,36.3 339.2,35.7 339.2,35.2 339.3,34.7 339.4,34.2 339.6,33.7 339.8,33.2 340.1,32.8 340.4,32.3 340.7,31.9 341.1,31.6 341.5,31.2 341.9,30.9 342.4,30.7 342.9,30.5 343.4,30.3 343.9,30.1 344.4,30 344.9,30 344.9,50 337.2,68.5" />
<path stroke="#000000" stroke-width="2" d="M 357.8,70" />
<path stroke="#000000" stroke-width="2" d="M 357.8,20 365.5,38.5" />
<path stroke="#000000" stroke-width="2" d="M 395.5,70" />
<path stroke="#000000" stroke-width="2" d="M 395.5,70 395.7,70 395.7,70.2 395.5,70.2 395.5,70" />
<path stroke="#000000" stroke-width="2" d="M 425.7,70" />
<path stroke="#000000" stroke-width="2" d="M 435.7,30 434.8,30 433.9,30.1 433.1,30.2 432.2,30.5 431.4,30.8 430.6,31.1 429.9,31.6 429.2,32.1 428.5,32.6 427.9,33.2 427.3,33.9 426.8,34.6 426.4,35.4 426,36.2 425.7,37 425.5,37.8 425.3,38.7 425.2,39.6 425.2,40.4 425.3,41.3 425.5,42.2 425.7,43 426,43.8 426.4,44.6 426.8,45.4 427.3,46.1 427.9,46.7 428.5,47.4 429.2,47.9 429.9,48.4 430.6,48.9 431.4,49.2 432.2,49.5 433.1,49.8 433.9,49.9 434.8,50 454.8,50" />
<path stroke="#000000" stroke-width="2" d="M 484.8,70" />
<path stroke="#000000" stroke-width="2" d="M 484.8,50 484.8,49.3 484.9,48.6 485,47.9 485.2,47.2 485.4,46.6 485.7,46 486,45.4 486.4,44.8 486.9,44.2 487.4,43.8 487.9,43.3 488.5,42.9 489.1,42.6 489.7,42.3 490.4,42 491.1,41.8 491.8,41.7 492.4,41.7 493.1,41.7 493.8,41.7 494.5,41.8 495.2,42 495.9,42.3 496.5,42.6 497.1,42.9 497.7,43.3 498.2,43.8 498.7,44.2 499.1,44.8 499.5,45.4 499.9,46 500.2,46.6 500.4,47.2 500.6,47.9 500.7,48.6 500.8,49.3 500.8,50 500.8,50.7 501,51.4 501.2,52.1 501.4,52.7 501.7,53.3 502,53.9 502.4,54.5 502.9,55.1 503.4,55.5 503.9,56 504.5,56.4 505.1,56.7 505.7,57 506.4,57.3 507,57.5 507.7,57.6 508.4,57.6 509.1,57.6 509.8,57.6 510.5,57.5 511.2,57.3 511.8,57 512.5,56.7 513.1,56.4 513.7,56 514.2,55.5 514.7,55.1 515.1,54.5 515.5,53.9 515.9,53.3 516.2,52.7 516.4,52.1 516.6,51.4 516.7,50.7 516.8,50" />
<path stroke="#000000" stroke-width="2" d="M 523.4,70" />
<path stroke="#000000" stroke-width="2" d="M 523.4,55" />
<path stroke="#000000" stroke-width="2" d="M 523.4,55 525.5,54.9 527.1,54.6 528.3,54.1 529.2,53.6 529.8,52.9 530.1,52.2 530.1,51.4 529.9,50.7 529.6,50 529.1,49.4 528.5,48.9 527.8,48.5 527,48.3 526.3,48.4 525.5,48.7 524.9,49.2 524.3,50.1 523.8,51.4 523.5,53 523.4,55 523.4,70 523.4,90 523.4,84 523.4,83.1 523.5,82.3 523.7,81.4 523.9,80.6 524.2,79.7 524.6,78.9 525,78.2 525.5,77.5 526.1,76.8 526.7,76.2 527.3,75.6 528.1,75.1 528.8,74.7 529.6,74.3 530.4,74 531.3,73.8 532.1,73.6 533,73.6" />
<path stroke="#000000" stroke-width="2" d="M 563,70" />
<path stroke="#000000" stroke-width="2" d="M 563,30 583,30" />
<path stroke="#000000" stroke-width="2" d="M 583,30 585,29.9 586.6,29.6 587.9,29.1 588.8,28.6 589.3,27.9 589.6,27.2 589.6,26.4 589.5,25.7 589.1,25 588.6,24.4 588,23.9 587.3,23.5 586.6,23.3 585.8,23.4 585.1,23.7 584.4,24.2 583.9,25.1 583.4,26.4 583.1,28 583,30 583,45" />
<path stroke="#000000" stroke-width="2" d="M 583,45 582.9,47 582.6,48.6 582.1,49.9 581.6,50.8 580.9,51.3 580.2,51.6 579.4,51.7 578.7,51.5 578,51.1 577.4,50.6 576.9,50 576.5,49.3 576.3,48.6 576.4,47.8 576.7,47.1 577.2,46.4 578.1,45.9 579.3,45.4 581,45.1 583,45 593,45" />
<path stroke="#000000" stroke-width="2" d="M 599.7,70" />
<path stroke="#000000" stroke-width="2" d="M 599.7,40 599.7,39.3 599.7,38.6 599.8,37.9 600,37.2 600.3,36.6 600.6,36 600.9,35.4 601.3,34.8 601.8,34.2 602.2,33.8 602.8,33.3 603.4,32.9 604,32.6 604.6,32.3 605.2,32 605.9,31.8 606.6,31.7 607.3,31.7 608,31.7 608.7,31.7 609.4,31.8 610.1,32 610.7,32.3 611.3,32.6 612,32.9 612.5,33.3 613.1,33.8 613.6,34.2 614,34.8 614.4,35.4 614.7,36 615,36.6 615.3,37.2 615.5,37.9 615.6,38.6 615.6,39.3 615.6,54.3" />
<path stroke="#000000" stroke-width="2" d="M 615.6,54.3 615.5,56.3 615.2,57.9 614.8,59.2 614.2,60.1 613.5,60.6 612.8,60.9 612.1,61 611.3,60.8 610.6,60.4 610,59.9 609.5,59.3 609.2,58.6 609,57.9 609,57.1 609.3,56.4 609.9,55.7 610.8,55.2 612,54.7 613.6,54.4 615.6,54.3 635.6,54.3" />
<path stroke="#000000" stroke-width="2" d="M 665.6,70" />
<path stroke="#000000" stroke-width="2" d="M 665.6,70 665.8,70 665.8,70.2 665.6,70.2 665.6,70" />
<path stroke="#000000" stroke-width="2" d="M 672.5,70" />
<path stroke="#000000" stroke-width="2" d="M 672.5,40" />
<path stroke="#000000" stroke-width="2" d="M 672.5,40 676.6,39.8 679.8,39.2 682.3,38.3 684,37.1 685.2,35.8 685.7,34.3 685.8,32.8 685.5,31.4 684.8,30 683.8,28.8 682.5,27.7 681.2,27 679.7,26.7 678.2,26.8 676.7,27.3 675.4,28.5 674.2,30.2 673.3,32.7 672.7,35.9 672.5,40 672.5,70" />
<path stroke="#000000" stroke-width="2" d="M 692.5,70" />
<path stroke="#000000" stroke-width="2" d="M 692.5,30 692.5,34 692.5,34.5 692.5,35 692.6,35.6 692.8,36.1 692.9,36.6 693.2,37 693.4,37.5 693.7,37.9 694.1,38.3 694.4,38.7 694.8,39 695.3,39.3 695.7,39.6 696.2,39.8 696.7,40 697.2,40.1 697.7,40.2 698.2,40.3 698.7,40.3 699.3,40.2 699.8,40.1 700.3,40 700.8,39.8 701.3,39.6 701.7,39.3 702.1,39 702.5,38.7 702.9,38.3 703.2,37.9 703.5,37.5 703.8,37 704,36.6 704.2,36.1 704.3,35.6 704.4,35 704.5,34.5 704.5,29.5 704.5,49.5 724.5,49.5" />
<path stroke="#000000" stroke-width="2" d="M 731.1,70" />
<path stroke="#000000" stroke-width="2" d="M 731.1,20 731.1,20.7 731.2,21.4 731.3,22.1 731.5,22.8 731.7,23.4 732,24 732.4,24.6 732.8,25.2 733.2,25.8 733.7,26.2 734.3,26.7 734.8,27.1 735.4,27.4 736.1,27.7 736.7,28 737.4,28.2 738.1,28.3 738.8,28.3 739.5,28.3 740.2,28.3 740.9,28.2 741.5,28 742.2,27.7 742.8,27.4 743.4,27.1 744,26.7 744.5,26.2 745,25.8 745.5,25.2 745.9,24.6 746.2,24 746.5,23.4 746.8,22.8 746.9,22.1 747.1,21.4 747.1,20.7" />
<path stroke="#000000" stroke-width="2" d="M 777.1,70" />
<path stroke="#000000" stroke-width="2" d="M 777.1,50 784.8,31.5 792.4,50" />
<path stroke="#000000" stroke-width="2" d="M 792.4,50 792.3,52 792,53.6 791.6,54.9 791,55.8 790.3,56.3 789.6,56.6 788.9,56.7 788.1,56.5 787.4,56.1 786.8,55.6 786.3,55 786,54.3 785.8,53.6 785.8,52.8 786.1,52.1 786.7,51.4 787.6,50.9 788.8,50.4 790.4,50.1 792.4,50 802.4,50" />
<path stroke="#000000" stroke-width="2" d="M 809.1,70" />
<path stroke="#000000" stroke-width="2" d="M 809.1,20 809.1,40 809.1,34 809.1,33.1 809.2,32.3 809.3,31.4 809.6,30.6 809.9,29.7 810.2,28.9 810.7,28.2 811.2,27.5 811.7,26.8 812.3,26.2 813,25.6 813.7,25.1 814.5,24.7 815.3,24.3 816.1,24 816.9,23.8 817.8,23.6 818.7,23.6" />
<path stroke="#000000" stroke-width="2" d="M 818.7,23.6 820.1,23.7 821.4,24.1 822.5,24.8 823.5,25.7 824.3,26.7 825,27.9 825.5,29.2 825.9,30.6 826.1,32.1 826.2,33.6 826.1,35.1 825.9,36.5 825.5,37.9 825,39.3 824.3,40.4 823.5,41.5 822.5,42.4 821.4,43 820.1,43.4 818.7,43.6" />
<path stroke="#000000" stroke-width="2" d="M 856.2,70" />
<path stroke="#000000" stroke-width="2" d="M 876.2,30 860.8,67" />
<path stroke="#000000" stroke-width="2" d="M 882.8,70" />
<path stroke="#000000" stroke-width="2" d="M 882.8,50 882.8,70" />
<path stroke="#000000" stroke-width="2" d="M 889.5,70" />
<path stroke="#000000" stroke-width="2" d="M 894.5,20 889.5,20 889.5,40" />
<path stroke="#000000" stroke-width="2" d="M 901.2,70" />
<path stroke="#000000" stroke-width="2" d="M 901.2,50 908.8,68.5" />
<path stroke="#000000" stroke-width="2" d="M 908.8,68.5 906.8,68.4 905.2,68.1 903.9,67.6 903,67 902.5,66.4 902.2,65.6 902.2,64.9 902.3,64.2 902.7,63.5 903.2,62.9 903.8,62.4 904.5,62 905.2,61.8 906,61.9 906.7,62.1 907.4,62.7 907.9,63.6 908.4,64.8 908.7,66.4 908.8,68.5 908.8,72.5" />
<path stroke="#000000" stroke-width="2" d="M 908.8,72.5 908.5,73.3 908.2,74.2 907.8,74.9 907.4,75.6 907,76.3 906.5,76.9 906.1,77.4 905.6,77.9 905.1,78.3 904.6,78.7 904,79.1 903.5,79.4 902.9,79.7 902.4,79.9 901.8,80.1 901.2,80.2 900.6,80.3 900,80.4 899.4,80.5 898.8,80.5" />
<path stroke="#000000" stroke-width="2" d="M 938.8,70" />
<path stroke="#000000" stroke-width="2" d="M 938.8,30 948.8,30 948.8,70 948.8,68.3 949,66.5 949.3,64.8 949.7,63.1 950.3,61.5 951,59.9 951.9,58.4 952.9,57 954,55.6 955.3,54.4 956.6,53.3 958,52.3 959.6,51.4 961.1,50.7 962.8,50.1 964.5,49.6 966.2,49.3 967.9,49.1" />
<path stroke="#000000" stroke-width="2" d="M 974.6,70" />
<path stroke="#000000" stroke-width="2" d="M 974.6,50 982.2,68.5" />
<path stroke="#000000" stroke-width="2" d="M 1012.2,70" />
<path stroke="#000000" stroke-width="2" d="M 1012.2,40 1012.4,40 1012.4,40.2 1012.2,40.2 1012.2,40" />
<path stroke="#000000" stroke-width="2" d="M 1019.1,70" />
<path stroke="#000000" stroke-width="2" d="M 1031.1,54" />
<path stroke="#000000" stroke-width="2" d="M 1031.1,54 1030.9,49.9 1030.3,46.7 1029.4,44.2 1028.2,42.5 1026.9,41.3 1025.4,40.8 1023.9,40.7 1022.5,41 1021.1,41.7 1019.9,42.8 1018.9,44 1018.1,45.4 1017.8,46.8 1017.9,48.3 1018.4,49.8 1019.6,51.1 1021.4,52.3 1023.8,53.2 1027,53.8 1031.1,54 1039.1,54" />
<path stroke="#000000" stroke-width="2" d="M 1039.1,54 1040.8,53.4 1042.5,52.7 1044,51.9 1045.4,51.2 1046.7,50.3 1047.9,49.4 1048.9,48.5 1049.9,47.5 1050.8,46.5 1051.6,45.5 1052.3,44.4 1052.9,43.3 1053.5,42.2 1053.9,41.1 1054.3,39.9 1054.6,38.8 1054.8,37.6 1055,36.4 1055.1,35.2 1055.1,34" />
<path stroke="#000000" stroke-width="2" d="M 1061.8,70" />
<path stroke="#000000" stroke-width="2" d="M 1061.8,20 1081.8,20" />
<path stroke="#000000" stroke-width="2" d="M 1088.4,70" />
<path stroke="#000000" stroke-width="2" d="M 1098.4,20 1090.8,38.5" />
<path stroke="#000000" stroke-width="2" d="M 1128.4,70" />
</svg>