<svg xmlns="http://www.w3.org/2000/svg" width="1367.1532384181628" height="108.47759065022574" style="fill:none; stroke-linecap:round;">
    <rect width="100%" height="100%" fill="#FFFFFF" />
<path stroke="#000000" stroke-width="2" d="M 550,75" />
<path stroke="#000000" stroke-width="2" d="M 20,30 40,30 47.7,48.5 55.3,30" />
<path stroke="#000000" stroke-width="2" d="M 62,70" />
<path stroke="#000000" stroke-width="2" d="M 62,50 62,50.7 62,51.4 62.2,52.1 62.3,52.8 62.6,53.4 62.9,54 63.2,54.6 63.6,55.2 64.1,55.8 64.6,56.2 65.1,56.7 65.7,57.1 66.3,57.4 66.9,57.7 67.6,58 68.2,58.2 68.9,58.3 69.6,58.3 70.3,58.3 71,58.3 71.7,58.2 72.4,58 73,57.7 73.7,57.4 74.3,57.1 74.8,56.7 75.4,56.2 75.9,55.8 76.3,55.2 76.7,54.6 77.1,54 77.4,53.4 77.6,52.8 77.8,52.1 77.9,51.4 78,50.7 85.6,69.2 93.3,50.7" />
<path stroke="#000000" stroke-width="2" d="M 99.9,70" />
<path stroke="#000000" stroke-width="2" d="M 99.9,20" />
<path stroke="#000000" stroke-width="2" d="M 99.9,20 101.4,20.1 102.6,20.6 103.8,21.2 104.7,22.1 105.6,23.1 106.2,24.3 106.8,25.6 107.1,27 107.4,28.5 107.4,30 107.4,31.5 107.1,33 106.8,34.4 106.2,35.7 105.6,36.9 104.7,37.9 103.8,38.8 102.6,39.4 101.4,39.9 99.9,40" />
<path stroke="#000000" stroke-width="2" d="M 137.4,70" />
<path stroke="#000000" stroke-width="2" d="M 137.4,30 177.4,30" />
<path stroke="#000000" stroke-width="2" d="M 207.4,70" />
<path stroke="#000000" stroke-width="2" d="M 207.4,40 207.6,40 207.6,40.2 207.4,40.2 207.4,40" />
<path stroke="#000000" stroke-width="2" d="M 214.3,70" />
<path stroke="#000000" stroke-width="2" d="M 214.3,46 214.3,44.6 214.4,43.2 214.7,41.8 215,40.5 215.5,39.2 216.1,37.9 216.8,36.7 217.6,35.6 218.5,34.5 219.5,33.5 220.5,32.6 221.7,31.8 222.9,31.1 224.2,30.5 225.5,30 226.8,29.7 228.2,29.4 229.6,29.3 231,29.3 232.4,29.4 233.7,29.7 235.1,30 236.4,30.5 237.7,31.1 238.9,31.8 240,32.6 241.1,33.5 242.1,34.5 243,35.6 243.8,36.7 244.5,37.9 245.1,39.2 245.5,40.5 245.9,41.8 246.1,43.2 246.3,44.6" />
<path stroke="#000000" stroke-width="2" d="M 252.9,70" />
<path stroke="#000000" stroke-width="2" d="M 252.9,20 252.9,40 252.9,34 252.9,33.1 253,32.3 253.2,31.4 253.4,30.6 253.7,29.7 254.1,28.9 254.5,28.2 255,27.5 255.6,26.8 256.2,26.2 256.8,25.6 257.6,25.1 258.3,24.7 259.1,24.3 259.9,24 260.8,23.8 261.6,23.6 262.5,23.6" />
<path stroke="#000000" stroke-width="2" d="M 292.5,70" />
<path stroke="#000000" stroke-width="2" d="M 292.5,38 292.5,37.3 292.6,36.6 292.7,35.9 292.9,35.2 293.1,34.6 293.4,34 293.7,33.4 294.1,32.8 294.6,32.2 295.1,31.8 295.6,31.3 296.2,30.9 296.8,30.6 297.4,30.3 298.1,30 298.8,29.8 299.4,29.7 300.1,29.7 300.8,29.7 301.5,29.7 302.2,29.8 302.9,30 303.5,30.3 304.2,30.6 304.8,30.9 305.4,31.3 305.9,31.8 306.4,32.2 306.8,32.8 307.2,33.4 307.6,34 307.9,34.6 308.1,35.2 308.3,35.9 308.4,36.6 308.5,37.3 308.5,57.3 308.5,51.3 308.5,50.4 308.6,49.6 308.7,48.7 308.9,47.9 309.2,47 309.6,46.2 310,45.5 310.5,44.8 311.1,44.1 311.7,43.5 312.4,42.9 313.1,42.4 313.8,42 314.6,41.6 315.5,41.3 316.3,41.1 317.2,41 318,40.9" />
<path stroke="#000000" stroke-width="2" d="M 324.7,70" />
<path stroke="#000000" stroke-width="2" d="M 332.7,20 332.7,35" />
<path stroke="#000000" stroke-width="2" d="M 332.7,35 332.6,37 332.3,38.6 331.8,39.9 331.3,40.8 330.6,41.3 329.9,41.6 329.1,41.7 328.4,41.5 327.7,41.1 327.1,40.6 326.6,40 326.2,39.3 326,38.6 326.1,37.8 326.4,37.1 326.9,36.4 327.8,35.9 329.1,35.4 330.7,35.1 332.7,35" />
<path stroke="#000000" stroke-width="2" d="M 362.7,70" />
<path stroke="#000000" stroke-width="2" d="M 382.7,70 384.4,70 386.2,69.8 387.9,69.5 389.6,69.1 391.2,68.5 392.8,67.8 394.3,66.9 395.7,65.9 397.1,64.8 398.3,63.5 399.4,62.2 400.4,60.8 401.3,59.3 402,57.7 402.6,56 403.1,54.3 403.4,52.6 403.5,50.9 403.5,49.1 403.4,47.4 403.1,45.7 402.6,44 402,42.4 401.3,40.8 400.4,39.3 399.4,37.8 398.3,36.5 397.1,35.3 395.7,34.2 394.3,33.2 392.8,32.3 391.2,31.5 389.6,30.9 387.9,30.5 386.2,30.2 384.4,30 382.7,30 381,30.2 379.2,30.5 377.6,30.9 375.9,31.5 374.3,32.3 372.8,33.2 371.4,34.2 370.1,35.3 368.8,36.5 367.7,37.8 366.7,39.3 365.8,40.8 365.1,42.4 364.5,44 364,45.7 363.7,47.4 363.6,49.1 363.6,50.9 363.7,52.6 364,54.3 364.5,56 365.1,57.7 365.8,59.3 366.7,60.8 367.7,62.2 368.8,63.5 370.1,64.8 371.4,65.9 372.8,66.9 374.3,67.8 375.9,68.5 377.6,69.1 379.2,69.5 381,69.8 382.7,70" />
<path stroke="#000000" stroke-width="2" d="M 410.2,70" />
<path stroke="#000000" stroke-width="2" d="M 420.2,20 412.6,38.5" />
<path stroke="#000000" stroke-width="2" d="M 450.2,70" />
<path stroke="#000000" stroke-width="2" d="M 450.2,30" />
<path stroke="#000000" stroke-width="2" d="M 450.2,30 450.4,30 450.8,30 451.4,30 452.3,30.1 453.3,30.2 454.5,30.3 455.9,30.4 457.3,30.6 458.7,30.9 460.2,31.2 461.7,31.7 463.2,32.2 464.6,32.7 465.9,33.4 467.1,34.2 468.1,35.1 469,36.1 469.7,37.3 470.1,38.6 470.2,40" />
<path stroke="#000000" stroke-width="2" d="M 470.2,40 472.1,42.1 473.5,44.1 474.2,45.7 474.5,47.2 474.4,48.4 474,49.4 473.3,50.2 472.4,50.8 471.3,51.1 470.2,51.2 469.1,51.1 468.1,50.8 467.1,50.2 466.4,49.5 466,48.4 465.9,47.2 466.2,45.7 467,44.1 468.3,42.1 470.2,40" />
<path stroke="#000000" stroke-width="2" d="M 470.2,40 470.2,39.9 470.2,39.7 470.3,39.4 470.4,39 470.5,38.4 470.8,37.8 471.1,37.2 471.5,36.5 472,35.7 472.7,35 473.5,34.3 474.5,33.5 475.7,32.8 477.1,32.2 478.7,31.6 480.5,31 482.5,30.6 484.8,30.3 487.4,30.1 490.2,30 490.2,30.7 490.3,31.4 490.4,32.1 490.6,32.8 490.8,33.4 491.1,34 491.5,34.6 491.9,35.2 492.3,35.8 492.8,36.2 493.3,36.7 493.9,37.1 494.5,37.4 495.1,37.7 495.8,38 496.5,38.2 497.2,38.3 497.9,38.3 498.6,38.3 499.3,38.3 499.9,38.2 500.6,38 501.3,37.7 501.9,37.4 502.5,37.1 503.1,36.7 503.6,36.2 504.1,35.8 504.6,35.2 505,34.6 505.3,34 505.6,33.4 505.8,32.8 506,32.1 506.1,31.4 506.2,30.7 498.5,49.2" />
<path stroke="#000000" stroke-width="2" d="M 512.9,70" />
<path stroke="#000000" stroke-width="2" d="M 512.9,30 528.2,67" />
<path stroke="#000000" stroke-width="2" d="M 534.8,70" />
<path stroke="#000000" stroke-width="2" d="M 544.8,20 537.2,38.5 537.2,39.2 537.2,39.9 537.4,40.6 537.6,41.2 537.8,41.9 538.1,42.5 538.4,43.1 538.8,43.7 539.3,44.2 539.8,44.7 540.3,45.2 540.9,45.6 541.5,45.9 542.1,46.2 542.8,46.5 543.4,46.6 544.1,46.8 544.8,46.8 545.5,46.8 546.2,46.8 546.9,46.6 547.6,46.5 548.2,46.2 548.9,45.9 549.5,45.6 550,45.2 550.6,44.7 551.1,44.2 551.5,43.7 551.9,43.1 552.3,42.5 552.6,41.9 552.8,41.2 553,40.6 553.1,39.9 553.2,39.2" />
<path stroke="#000000" stroke-width="2" d="M 559.8,70" />
<path stroke="#000000" stroke-width="2" d="M 559.8,30 560,30 560,30.2 559.8,30.2 559.8,30" />
<path stroke="#000000" stroke-width="2" d="M 590,70" />
<path stroke="#000000" stroke-width="2" d="M 590,30 610,30" />
<path stroke="#000000" stroke-width="2" d="M 610,30 611.5,30.1 612.7,30.6 613.9,31.2 614.8,32.1 615.7,33.1 616.3,34.3 616.9,35.6 617.2,37 617.5,38.5 617.5,40 617.5,41.5 617.2,43 616.9,44.4 616.3,45.7 615.7,46.9 614.8,47.9 613.9,48.8 612.7,49.4 611.5,49.9 610,50" />
<path stroke="#000000" stroke-width="2" d="M 610,50 611.5,50.1 612.7,50.6 613.9,51.2 614.8,52.1 615.7,53.1 616.3,54.3 616.9,55.6 617.2,57 617.5,58.5 617.5,60 617.5,61.5 617.2,63 616.9,64.4 616.3,65.7 615.7,66.9 614.8,67.9 613.9,68.8 612.7,69.4 611.5,69.9 610,70" />
<path stroke="#000000" stroke-width="2" d="M 647.5,70" />
<path stroke="#000000" stroke-width="2" d="M 647.5,30 687.5,30" />
<path stroke="#000000" stroke-width="2" d="M 717.5,70" />
<path stroke="#000000" stroke-width="2" d="M 717.5,30 732.8,67" />
<path stroke="#000000" stroke-width="2" d="M 739.5,70" />
<path stroke="#000000" stroke-width="2" d="M 739.5,30 739.5,70" />
<path stroke="#000000" stroke-width="2" d="M 746.2,70" />
<path stroke="#000000" stroke-width="2" d="M 758.2,26" />
<path stroke="#000000" stroke-width="2" d="M 758.2,26 756.1,25.9 754.5,25.6 753.3,25.1 752.4,24.6 751.9,23.9 751.6,23.2 751.5,22.4 751.7,21.7 752.1,21 752.6,20.4 753.2,19.9 753.9,19.5 754.6,19.3 755.3,19.4 756.1,19.7 756.7,20.2 757.3,21.1 757.8,22.4 758.1,24 758.2,26 758.2,30" />
<path stroke="#000000" stroke-width="2" d="M 758.2,30 757.9,30.9 757.5,31.7 757.2,32.4 756.8,33.1 756.3,33.8 755.9,34.4 755.4,34.9 754.9,35.4 754.4,35.9 753.9,36.2 753.4,36.6 752.9,36.9 752.3,37.2 751.7,37.4 751.1,37.6 750.6,37.7 750,37.9 749.4,37.9 748.8,38 748.2,38" />
<path stroke="#000000" stroke-width="2" d="M 788.2,70" />
<path stroke="#000000" stroke-width="2" d="M 800.2,30" />
<path stroke="#000000" stroke-width="2" d="M 800.2,30 800,34.1 799.4,37.3 798.5,39.8 797.3,41.5 796,42.7 794.5,43.2 793,43.3 791.5,43 790.2,42.3 788.9,41.2 787.9,40 787.2,38.6 786.9,37.2 786.9,35.7 787.5,34.2 788.7,32.9 790.4,31.7 792.9,30.8 796.1,30.2 800.2,30 808.2,30" />
<path stroke="#000000" stroke-width="2" d="M 808.2,30 809.9,30.6 811.5,31.3 813.1,32.1 814.5,32.8 815.7,33.7 816.9,34.6 818,35.5 819,36.5 819.9,37.5 820.7,38.5 821.4,39.6 822,40.7 822.5,41.8 823,42.9 823.4,44.1 823.7,45.2 823.9,46.4 824.1,47.6 824.1,48.8 824.2,50" />
<path stroke="#000000" stroke-width="2" d="M 830.8,70" />
<path stroke="#000000" stroke-width="2" d="M 830.8,50 850.8,50" />
<path stroke="#000000" stroke-width="2" d="M 857.5,70" />
<path stroke="#000000" stroke-width="2" d="M 857.5,20" />
<path stroke="#000000" stroke-width="2" d="M 857.5,20 857.7,20 858.1,20 858.7,20 859.6,20.1 860.6,20.2 861.8,20.3 863.1,20.4 864.6,20.6 866,20.9 867.5,21.2 869,21.7 870.5,22.2 871.9,22.7 873.2,23.4 874.4,24.2 875.4,25.1 876.3,26.1 877,27.3 877.4,28.6 877.5,30" />
<path stroke="#000000" stroke-width="2" d="M 877.5,30 879.4,32.1 880.8,34.1 881.5,35.7 881.8,37.2 881.7,38.4 881.3,39.4 880.6,40.2 879.7,40.8 878.6,41.1 877.5,41.2 876.4,41.1 875.4,40.8 874.4,40.2 873.7,39.4 873.3,38.4 873.2,37.2 873.5,35.7 874.3,34 875.6,32.1 877.5,30" />
<path stroke="#000000" stroke-width="2" d="M 877.5,30 877.5,29.9 877.5,29.7 877.6,29.4 877.7,29 877.8,28.4 878.1,27.8 878.4,27.2 878.8,26.5 879.3,25.7 880,25 880.8,24.3 881.8,23.5 883,22.8 884.4,22.2 886,21.6 887.8,21 889.8,20.6 892.1,20.3 894.7,20.1 897.5,20 917.5,20" />
<path stroke="#000000" stroke-width="2" d="M 917.5,20 919.5,19.9 921.2,19.6 922.4,19.1 923.3,18.6 923.8,17.9 924.1,17.2 924.2,16.4 924,15.7 923.6,15 923.1,14.4 922.5,13.9 921.8,13.5 921.1,13.3 920.3,13.4 919.6,13.7 919,14.2 918.4,15.1 917.9,16.4 917.6,18 917.5,20 917.5,35" />
<path stroke="#000000" stroke-width="2" d="M 930.8,70" />
<path stroke="#000000" stroke-width="2" d="M 930.8,20" />
<path stroke="#000000" stroke-width="2" d="M 930.8,20 932.3,20.1 933.5,20.6 934.7,21.2 935.6,22.1 936.5,23.1 937.1,24.3 937.7,25.6 938,27 938.3,28.5 938.3,30 938.3,31.5 938,33 937.7,34.4 937.1,35.7 936.5,36.9 935.6,37.9 934.7,38.8 933.5,39.4 932.3,39.9 930.8,40" />
<path stroke="#000000" stroke-width="2" d="M 968.3,70" />
<path stroke="#000000" stroke-width="2" d="M 968.3,30 968.3,70 968.3,62 968.3,60.3 968.5,58.5 968.8,56.8 969.2,55.1 969.8,53.5 970.6,51.9 971.4,50.4 972.4,49 973.6,47.6 974.8,46.4 976.1,45.3 977.6,44.3" />
<path stroke="#000000" stroke-width="2" d="M 984.2,70" />
<path stroke="#000000" stroke-width="2" d="M 984.2,20 1004.2,20" />
<path stroke="#000000" stroke-width="2" d="M 1004.2,20 1005.7,20.1 1006.9,20.6 1008.1,21.2 1009,22.1 1009.9,23.1 1010.5,24.3 1011.1,25.6 1011.4,27 1011.7,28.5 1011.7,30 1011.7,31.5 1011.4,33 1011.1,34.4 1010.5,35.7 1009.9,36.9 1009,37.9 1008.1,38.8 1006.9,39.4 1005.7,39.9 1004.2,40" />
<path stroke="#000000" stroke-width="2" d="M 1018.4,70" />
<path stroke="#000000" stroke-width="2" d="M 1018.4,20" />
<path stroke="#000000" stroke-width="2" d="M 1018.4,20 1019.8,20.1 1021.1,20.6 1022.2,21.2 1023.2,22.1 1024,23.1 1024.7,24.3 1025.2,25.6 1025.6,27 1025.8,28.5 1025.9,30 1025.8,31.5 1025.6,33 1025.2,34.4 1024.7,35.7 1024,36.9 1023.2,37.9 1022.2,38.8 1021.1,39.4 1019.8,39.9 1018.4,40" />
<path stroke="#000000" stroke-width="2" d="M 1055.9,70" />
<path stroke="#000000" stroke-width="2" d="M 1055.9,70 1056.1,70 1056.1,70.2 1055.9,70.2 1055.9,70" />
<path stroke="#000000" stroke-width="2" d="M 1086.1,70" />
<path stroke="#000000" stroke-width="2" d="M 1086.1,70 1097.6,42.3" />
<path stroke="#000000" stroke-width="2" d="M 1097.6,42.3 1101.6,42.1 1104.9,41.5 1107.3,40.6 1109.1,39.4 1110.2,38.1 1110.8,36.6 1110.9,35.1 1110.5,33.6 1109.8,32.3 1108.8,31 1107.6,30 1106.2,29.3 1104.7,29 1103.3,29.1 1101.8,29.6 1100.5,30.8 1099.3,32.5 1098.4,35 1097.8,38.2 1097.6,42.3 1097.6,72.3" />
<path stroke="#000000" stroke-width="2" d="M 1140.9,70" />
<path stroke="#000000" stroke-width="2" d="M 1140.9,30 1140.9,50 1150.9,50 1150.9,70 1150.9,70.7 1151,71.4 1151.1,72.1 1151.3,72.8 1151.5,73.4 1151.8,74 1152.1,74.6 1152.5,75.2 1153,75.8 1153.5,76.2 1154,76.7 1154.6,77.1 1155.2,77.4 1155.8,77.7 1156.5,78 1157.2,78.2 1157.8,78.3 1158.5,78.3 1159.2,78.3 1159.9,78.3 1160.6,78.2 1161.3,78 1161.9,77.7 1162.6,77.4 1163.2,77.1 1163.8,76.7 1164.3,76.2 1164.8,75.8 1165.2,75.2 1165.6,74.6 1166,74 1166.3,73.4 1166.5,72.8 1166.7,72.1 1166.8,71.4 1166.9,70.7" />
<path stroke="#000000" stroke-width="2" d="M 1173.5,70" />
<path stroke="#000000" stroke-width="2" d="M 1173.5,20" />
<path stroke="#000000" stroke-width="2" d="M 1173.5,20 1175,20.1 1176.2,20.6 1177.4,21.2 1178.3,22.1 1179.2,23.1 1179.8,24.3 1180.4,25.6 1180.7,27 1181,28.5 1181,30 1181,31.5 1180.7,33 1180.4,34.4 1179.8,35.7 1179.2,36.9 1178.3,37.9 1177.4,38.8 1176.2,39.4 1175,39.9 1173.5,40" />
<path stroke="#000000" stroke-width="2" d="M 1211,70" />
<path stroke="#000000" stroke-width="2" d="M 1221,30" />
<path stroke="#000000" stroke-width="2" d="M 1221,30 1218.2,30.3 1215.6,31.1 1213.4,32.4 1211.4,34.2 1209.8,36.2 1208.4,38.6 1207.4,41.3 1206.6,44.1 1206.2,47 1206,50 1206.2,53 1206.6,55.9 1207.4,58.7 1208.4,61.4 1209.8,63.8 1211.4,65.8 1213.4,67.6 1215.6,68.9 1218.2,69.7 1221,70" />
<path stroke="#000000" stroke-width="2" d="M 1221,50" />
<path stroke="#000000" stroke-width="2" d="M 1189,50 1229,50" />
<path stroke="#000000" stroke-width="2" d="M 1259,70" />
<path stroke="#000000" stroke-width="2" d="M 1279,30 1279,70 1259,70" />
<path stroke="#000000" stroke-width="2" d="M 1285.7,70" />
<path stroke="#000000" stroke-width="2" d="M 1285.7,55" />
<path stroke="#000000" stroke-width="2" d="M 1285.7,55 1287.7,54.9 1289.4,54.6 1290.6,54.1 1291.5,53.6 1292,52.9 1292.3,52.2 1292.4,51.4 1292.2,50.7 1291.8,50 1291.3,49.4 1290.7,48.9 1290,48.5 1289.3,48.3 1288.5,48.4 1287.8,48.7 1287.1,49.2 1286.6,50.1 1286.1,51.4 1285.8,53 1285.7,55 1285.7,70 1278.1,88.5" />
<path stroke="#000000" stroke-width="2" d="M 1322.4,70" />
<path stroke="#000000" stroke-width="2" d="M 1322.4,70 1333.8,42.3" />
<path stroke="#000000" stroke-width="2" d="M 1333.8,42.3 1337.9,42.1 1341.1,41.5 1343.6,40.6 1345.4,39.4 1346.5,38.1 1347.1,36.6 1347.2,35.1 1346.8,33.6 1346.1,32.3 1345.1,31 1343.9,30 1342.5,29.3 1341,29 1339.5,29.1 1338.1,29.6 1336.7,30.8 1335.6,32.5 1334.7,35 1334.1,38.2 1333.8,42.3 1333.8,72.3" />
<path stroke="#000000" stroke-width="2" d="M 1377.2,70" />
</svg>