<svg xmlns="http://www.w3.org/2000/svg" width="705.7964461296241" height="94.68629150101523" style="fill:none; stroke-linecap:round;">
    <rect width="100%" height="100%" fill="#FFFFFF" />
<path stroke="#000000" stroke-width="2" d="M 550,75" />
<path stroke="#000000" stroke-width="2" d="M 20,70 20.2,70 20.2,70.2 20,70.2 20,70" />
<path stroke="#000000" stroke-width="2" d="M 26.9,70" />
<path stroke="#000000" stroke-width="2" d="M 42.9,30" />
<path stroke="#000000" stroke-width="2" d="M 42.9,30 42.7,34.1 42.1,37.3 41.1,39.8 40,41.5 38.6,42.7 37.2,43.2 35.7,43.3 34.2,43 32.8,42.3 31.6,41.2 30.6,40 29.9,38.6 29.6,37.2 29.6,35.7 30.2,34.2 31.3,32.9 33.1,31.7 35.6,30.8 38.8,30.2 42.9,30 62.9,30" />
<path stroke="#000000" stroke-width="2" d="M 69.5,70" />
<path stroke="#000000" stroke-width="2" d="M 69.5,20 69.5,40 69.5,34 69.5,33.1 69.6,32.3 69.8,31.4 70,30.6 70.3,29.7 70.7,28.9 71.1,28.2 71.6,27.5 72.2,26.8 72.8,26.2 73.4,25.6 74.2,25.1 74.9,24.7 75.7,24.3 76.5,24 77.4,23.8 78.2,23.6 79.1,23.6" />
<path stroke="#000000" stroke-width="2" d="M 85.8,70" />
<path stroke="#000000" stroke-width="2" d="M 85.8,20 93.4,38.5" />
<path stroke="#000000" stroke-width="2" d="M 100.1,70" />
<path stroke="#000000" stroke-width="2" d="M 100.1,20 100.9,20 101.8,20.1 102.7,20.2 103.5,20.5 104.3,20.8 105.1,21.1 105.9,21.6 106.6,22.1 107.3,22.6 107.9,23.2 108.4,23.9 108.9,24.6 109.4,25.4 109.7,26.2 110,27 110.3,27.8 110.4,28.7 110.5,29.6 110.5,30.4 110.4,31.3 110.3,32.2 110,33 109.7,33.8 109.4,34.6 108.9,35.4 108.4,36.1 107.9,36.7 107.3,37.4 106.6,37.9 105.9,38.4 105.1,38.9 104.3,39.2 103.5,39.5 102.7,39.8 101.8,39.9 100.9,40" />
<path stroke="#000000" stroke-width="2" d="M 117.2,70" />
<path stroke="#000000" stroke-width="2" d="M 117.2,50 117.2,49.3 117.2,48.6 117.3,47.9 117.5,47.2 117.8,46.6 118.1,46 118.4,45.4 118.8,44.8 119.3,44.2 119.8,43.8 120.3,43.3 120.9,42.9 121.5,42.6 122.1,42.3 122.8,42 123.4,41.8 124.1,41.7 124.8,41.7 125.5,41.7 126.2,41.7 126.9,41.8 127.6,42 128.2,42.3 128.9,42.6 129.5,42.9 130,43.3 130.6,43.8 131.1,44.2 131.5,44.8 131.9,45.4 132.3,46 132.6,46.6 132.8,47.2 133,47.9 133.1,48.6 133.2,49.3" />
<path stroke="#000000" stroke-width="2" d="M 133.2,49.3 135.2,49.2 136.8,48.9 138,48.4 138.9,47.9 139.5,47.2 139.8,46.5 139.8,45.7 139.6,45 139.3,44.3 138.8,43.7 138.2,43.2 137.5,42.8 136.7,42.6 136,42.7 135.3,43 134.6,43.5 134,44.4 133.6,45.7 133.3,47.3 133.2,49.3 133.2,64.3" />
<path stroke="#000000" stroke-width="2" d="M 169.8,70" />
<path stroke="#000000" stroke-width="2" d="M 169.8,70 185.1,33 185.1,73 185.1,61 185.1,59.3 185.3,57.6 185.6,55.8 186,54.2 186.6,52.5 187.4,50.9 188.2,49.4 189.2,48 190.3,46.7 191.6,45.4 192.9,44.3 194.3,43.3 195.9,42.4 197.4,41.7 199.1,41.1" />
<path stroke="#000000" stroke-width="2" d="M 205.7,70" />
<path stroke="#000000" stroke-width="2" d="M 205.7,30 213.4,48.5 221.1,30 221.9,30 222.8,30.1 223.7,30.2 224.5,30.5 225.3,30.8 226.1,31.1 226.9,31.6 227.6,32.1 228.2,32.6 228.9,33.2 229.4,33.9 229.9,34.6 230.4,35.4 230.7,36.2 231,37 231.3,37.8 231.4,38.7 231.5,39.6 231.5,40.4 231.4,41.3 231.3,42.2 231,43 230.7,43.8 230.4,44.6 229.9,45.4 229.4,46.1 228.9,46.7 228.2,47.4 227.6,47.9 226.9,48.4 226.1,48.9 225.3,49.2 224.5,49.5 223.7,49.8 222.8,49.9 221.9,50" />
<path stroke="#000000" stroke-width="2" d="M 261.5,70" />
<path stroke="#000000" stroke-width="2" d="M 261.5,30 281.5,30 282.4,30 283.2,30.1 284.1,30.2 284.9,30.5 285.7,30.8 286.5,31.1 287.3,31.6 288,32.1 288.7,32.6 289.3,33.2 289.9,33.9 290.4,34.6 290.8,35.4 291.2,36.2 291.5,37 291.7,37.8 291.8,38.7 291.9,39.6 291.9,40.4 291.8,41.3 291.7,42.2 291.5,43 291.2,43.8 290.8,44.6 290.4,45.4 289.9,46.1 289.3,46.7 288.7,47.4 288,47.9 287.3,48.4 286.5,48.9 285.7,49.2 284.9,49.5 284.1,49.8 283.2,49.9 282.4,50" />
<path stroke="#000000" stroke-width="2" d="M 321.9,70" />
<path stroke="#000000" stroke-width="2" d="M 321.9,30 323.7,30 325.4,30.2 327.1,30.5 328.8,30.9 330.4,31.5 332,32.2 333.5,33.1 335,34.1 336.3,35.2 337.5,36.5 338.6,37.8 339.6,39.2 340.5,40.7 341.3,42.3 341.9,44 342.3,45.7 342.6,47.4 342.8,49.1 342.8,50.9 342.6,52.6 342.3,54.3 341.9,56 341.3,57.6 340.5,59.2 339.6,60.7 338.6,62.2 337.5,63.5 336.3,64.7 335,65.8 333.5,66.8 332,67.7 330.4,68.5 328.8,69.1 327.1,69.5 325.4,69.8 323.7,70" />
<path stroke="#000000" stroke-width="2" d="M 349.4,70" />
<path stroke="#000000" stroke-width="2" d="M 349.4,30 351.2,30 352.9,30.2 354.6,30.5 356.3,30.9 358,31.5 359.5,32.2 361,33.1 362.5,34.1 363.8,35.2 365,36.5 366.2,37.8 367.2,39.2 368,40.7 368.8,42.3 369.4,44 369.8,45.7 370.1,47.4 370.3,49.1 370.3,50.9 370.1,52.6 369.8,54.3 369.4,56 368.8,57.6 368,59.2 367.2,60.7 366.2,62.2 365,63.5 363.8,64.7 362.5,65.8 361,66.8 359.5,67.7 358,68.5 356.3,69.1 354.6,69.5 352.9,69.8 351.2,70" />
<path stroke="#000000" stroke-width="2" d="M 400.3,70" />
<path stroke="#000000" stroke-width="2" d="M 400.3,46 411.6,34.7 411.6,74.7" />
<path stroke="#000000" stroke-width="2" d="M 411.6,54.7" />
<path stroke="#000000" stroke-width="2" d="M 403.6,54.7 419.6,54.7" />
<path stroke="#000000" stroke-width="2" d="M 449.6,70" />
<path stroke="#000000" stroke-width="2" d="M 449.6,30 459.6,30 459.6,70" />
<path stroke="#000000" stroke-width="2" d="M 466.3,70" />
<path stroke="#000000" stroke-width="2" d="M 466.3,50 466.3,70 466.3,64 466.3,63.1 466.3,62.3 466.5,61.4 466.7,60.6 467,59.7 467.4,58.9 467.8,58.2 468.3,57.5 468.9,56.8 469.5,56.2 470.2,55.6 470.9,55.1 471.6,54.7 472.4,54.3 473.2,54 474.1,53.8 474.9,53.6 475.8,53.6 468.2,72.1" />
<path stroke="#000000" stroke-width="2" d="M 482.5,70" />
<path stroke="#000000" stroke-width="2" d="M 482.5,30 482.7,30 482.7,30.2 482.5,30.2 482.5,30" />
<path stroke="#000000" stroke-width="2" d="M 512.7,70" />
<path stroke="#000000" stroke-width="2" d="M 512.7,30 528,67" />
<path stroke="#000000" stroke-width="2" d="M 534.7,70" />
<path stroke="#000000" stroke-width="2" d="M 534.7,30 574.7,30" />
<path stroke="#000000" stroke-width="2" d="M 604.7,70" />
<path stroke="#000000" stroke-width="2" d="M 604.7,30 604.7,31.4 604.8,32.8 605,34.2 605.4,35.5 605.9,36.8 606.4,38.1 607.1,39.3 607.9,40.4 608.8,41.5 609.8,42.5 610.9,43.4 612,44.2 613.3,44.9 614.5,45.5 615.8,46 617.2,46.3 618.6,46.6 619.9,46.7 621.3,46.7 622.7,46.6 624.1,46.3 625.5,46 626.8,45.5 628,44.9 629.2,44.2 630.4,43.4 631.5,42.5 632.4,41.5 633.3,40.4 634.1,39.3 634.8,38.1 635.4,36.8 635.9,35.5 636.3,34.2 636.5,32.8 636.6,31.4" />
<path stroke="#000000" stroke-width="2" d="M 643.3,70" />
<path stroke="#000000" stroke-width="2" d="M 653.3,20 645.6,38.5 647.9,32.9 648.3,32.1 648.7,31.4 649.1,30.6 649.7,29.9 650.3,29.3 650.9,28.7 651.6,28.2 652.3,27.7 653.1,27.3 653.9,27 654.7,26.7 655.6,26.5" />
<path stroke="#000000" stroke-width="2" d="M 685.6,70" />
<path stroke="#000000" stroke-width="2" d="M 685.6,70 685.8,70 685.8,70.2 685.6,70.2 685.6,70" />
<path stroke="#000000" stroke-width="2" d="M 715.8,70" />
</svg>