<svg xmlns="http://www.w3.org/2000/svg" width="1401.342050597232" height="93.04481869954853" style="fill:none; stroke-linecap:round;">
    <rect width="100%" height="100%" fill="#FFFFFF" />
<path stroke="#000000" stroke-width="2" d="M 550,75" />
<path stroke="#000000" stroke-width="2" d="M 36,30 16.2,49.8 36,69.6" />
<path stroke="#000000" stroke-width="2" d="M 42.7,70" />
<path stroke="#000000" stroke-width="2" d="M 42.7,20 42.7,40 42.7,34 42.7,33.1 42.7,32.3 42.9,31.4 43.1,30.6 43.4,29.7 43.8,28.9 44.2,28.2 44.7,27.5 45.3,26.8 45.9,26.2 46.6,25.6 47.3,25.1 48,24.7 48.8,24.3 49.7,24 50.5,23.8 51.4,23.6 52.2,23.6" />
<path stroke="#000000" stroke-width="2" d="M 82.2,70" />
<path stroke="#000000" stroke-width="2" d="M 82.2,30 97.5,67" />
<path stroke="#000000" stroke-width="2" d="M 104.2,70" />
<path stroke="#000000" stroke-width="2" d="M 104.2,20 124.2,20" />
<path stroke="#000000" stroke-width="2" d="M 154.2,70" />
<path stroke="#000000" stroke-width="2" d="M 159.2,30" />
<path stroke="#000000" stroke-width="2" d="M 159.2,30 157.8,30.1 156.5,30.6 155.4,31.2 154.4,32.1 153.6,33.1 152.9,34.3 152.4,35.6 152,37 151.8,38.5 151.7,40 151.8,41.5 152,43 152.4,44.4 152.9,45.7 153.6,46.9 154.4,47.9 155.4,48.8 156.5,49.4 157.8,49.9 159.2,50 179.2,50" />
<path stroke="#000000" stroke-width="2" d="M 209.2,70" />
<path stroke="#000000" stroke-width="2" d="M 209.2,70 209.4,70 209.4,70.2 209.2,70.2 209.2,70" />
<path stroke="#000000" stroke-width="2" d="M 216.1,70" />
<path stroke="#000000" stroke-width="2" d="M 216.1,30 216.1,70" />
<path stroke="#000000" stroke-width="2" d="M 222.7,70" />
<path stroke="#000000" stroke-width="2" d="M 222.7,40 222.7,39.3 222.8,38.6 222.9,37.9 223.1,37.2 223.3,36.6 223.6,36 224,35.4 224.4,34.8 224.8,34.2 225.3,33.8 225.9,33.3 226.4,32.9 227,32.6 227.7,32.3 228.3,32 229,31.8 229.7,31.7 230.4,31.7 231.1,31.7 231.8,31.7 232.5,31.8 233.1,32 233.8,32.3 234.4,32.6 235,32.9 235.6,33.3 236.1,33.8 236.6,34.2 237.1,34.8 237.5,35.4 237.8,36 238.1,36.6 238.4,37.2 238.5,37.9 238.7,38.6 238.7,39.3" />
<path stroke="#000000" stroke-width="2" d="M 268.7,70" />
<path stroke="#000000" stroke-width="2" d="M 273.7,30" />
<path stroke="#000000" stroke-width="2" d="M 273.7,30 272.3,30.1 271,30.6 269.9,31.2 268.9,32.1 268.1,33.1 267.4,34.3 266.9,35.6 266.5,37 266.3,38.5 266.2,40 266.3,41.5 266.5,43 266.9,44.4 267.4,45.7 268.1,46.9 268.9,47.9 269.9,48.8 271,49.4 272.3,49.9 273.7,50 278.7,50 278.7,70" />
<path stroke="#000000" stroke-width="2" d="M 308.7,70" />
<path stroke="#000000" stroke-width="2" d="M 308.7,30 324,67" />
<path stroke="#000000" stroke-width="2" d="M 330.7,70" />
<path stroke="#000000" stroke-width="2" d="M 330.7,30 330.9,30 330.9,30.2 330.7,30.2 330.7,30" />
<path stroke="#000000" stroke-width="2" d="M 360.9,70" />
<path stroke="#000000" stroke-width="2" d="M 360.9,30 400.9,30" />
<path stroke="#000000" stroke-width="2" d="M 407.6,70" />
<path stroke="#000000" stroke-width="2" d="M 407.6,40 407.6,39.3 407.6,38.6 407.7,37.9 407.9,37.2 408.2,36.6 408.5,36 408.8,35.4 409.2,34.8 409.6,34.2 410.1,33.8 410.7,33.3 411.2,32.9 411.9,32.6 412.5,32.3 413.1,32 413.8,31.8 414.5,31.7 415.2,31.7 415.9,31.7 416.6,31.7 417.3,31.8 418,32 418.6,32.3 419.2,32.6 419.8,32.9 420.4,33.3 421,33.8 421.4,34.2 421.9,34.8 422.3,35.4 422.6,36 422.9,36.6 423.2,37.2 423.4,37.9 423.5,38.6 423.5,39.3" />
<path stroke="#000000" stroke-width="2" d="M 453.5,70" />
<path stroke="#000000" stroke-width="2" d="M 453.5,70 453.7,70 453.7,70.2 453.5,70.2 453.5,70" />
<path stroke="#000000" stroke-width="2" d="M 483.7,70" />
<path stroke="#000000" stroke-width="2" d="M 483.7,30 483.7,70 503.7,70" />
<path stroke="#000000" stroke-width="2" d="M 533.7,70" />
<path stroke="#000000" stroke-width="2" d="M 533.7,70 533.7,68.6 533.9,67.2 534.1,65.8 534.5,64.5 534.9,63.2 535.5,61.9 536.2,60.7 537,59.6 537.9,58.5 538.9,57.5 540,56.6 541.1,55.8 542.3,55.1 543.6,54.5 544.9,54 546.3,53.7 547.6,53.4 549,53.3 550.4,53.3 551.8,53.4 553.2,53.7 554.5,54 555.8,54.5 557.1,55.1 558.3,55.8 559.5,56.6 560.5,57.5 561.5,58.5 562.4,59.6 563.2,60.7 563.9,61.9 564.5,63.2 565,64.5 565.3,65.8 565.6,67.2 565.7,68.6" />
<path stroke="#000000" stroke-width="2" d="M 572.4,70" />
<path stroke="#000000" stroke-width="2" d="M 572.4,50" />
<path stroke="#000000" stroke-width="2" d="M 572.4,50 572.5,50 572.9,50 573.6,50 574.5,50.1 575.5,50.2 576.7,50.3 578,50.4 579.4,50.6 580.9,50.9 582.4,51.2 583.9,51.7 585.3,52.2 586.7,52.7 588.1,53.4 589.2,54.2 590.3,55.1 591.2,56.1 591.8,57.3 592.2,58.6 592.4,60" />
<path stroke="#000000" stroke-width="2" d="M 592.4,60 594.3,62.1 595.6,64.1 596.4,65.7 596.7,67.2 596.6,68.4 596.2,69.5 595.4,70.2 594.5,70.8 593.5,71.1 592.4,71.2 591.3,71.1 590.2,70.8 589.3,70.2 588.6,69.5 588.2,68.4 588.1,67.2 588.4,65.7 589.1,64 590.5,62.1 592.4,60" />
<path stroke="#000000" stroke-width="2" d="M 592.4,60 592.4,59.9 592.4,59.7 592.4,59.4 592.5,59 592.7,58.4 592.9,57.8 593.2,57.2 593.7,56.5 594.2,55.7 594.9,55 595.7,54.3 596.7,53.5 597.9,52.8 599.2,52.2 600.8,51.6 602.6,51 604.7,50.6 607,50.3 609.5,50.1 612.4,50 612.4,50.7 612.4,51.4 612.6,52.1 612.7,52.8 613,53.4 613.3,54 613.6,54.6 614,55.2 614.5,55.8 615,56.2 615.5,56.7 616.1,57.1 616.7,57.4 617.3,57.7 618,58 618.6,58.2 619.3,58.3 620,58.3 620.7,58.3 621.4,58.3 622.1,58.2 622.8,58 623.4,57.7 624.1,57.4 624.7,57.1 625.2,56.7 625.8,56.2 626.3,55.8 626.7,55.2 627.1,54.6 627.5,54 627.8,53.4 628,52.8 628.2,52.1 628.3,51.4 628.4,50.7" />
<path stroke="#000000" stroke-width="2" d="M 628.4,50.7 629.8,50.8 631.1,51.3 632.2,51.9 633.2,52.8 634,53.8 634.7,55 635.2,56.3 635.6,57.7 635.8,59.2 635.9,60.7 635.8,62.2 635.6,63.7 635.2,65.1 634.7,66.4 634,67.6 633.2,68.6 632.2,69.5 631.1,70.1 629.8,70.6 628.4,70.7" />
<path stroke="#000000" stroke-width="2" d="M 665.9,70" />
<path stroke="#000000" stroke-width="2" d="M 667.9,50 673.2,37.1 673.4,36.7 673.5,36.4 673.5,36.1 673.6,35.7 673.6,35.4 673.6,35 673.5,34.7 673.5,34.3 673.4,34 673.2,33.7 673.1,33.4 672.9,33.1 672.7,32.8 672.4,32.5 672.2,32.3 671.9,32.1 671.6,31.9 671.3,31.7 671,31.6 670.6,31.5 670.3,31.4 669.9,31.4 669.6,31.4 669.2,31.4 668.9,31.4 668.6,31.5 668.2,31.6 667.9,31.7 667.6,31.9 667.3,32.1 667,32.3 666.8,32.5 666.5,32.8 666.3,33.1 666.1,33.4 666,33.7 665.8,34 665.7,34.3 665.7,34.7 665.6,35 665.6,35.4 665.6,35.7 665.7,36.1 665.7,36.4 665.8,36.7 666,37.1 666.1,37.4 666.3,37.7 666.5,37.9 666.8,38.2 667,38.4 667.3,38.7 667.6,38.8 667.9,39 668.2,39.1 668.6,39.2 668.9,39.3 669.2,39.4 669.6,39.4 669.9,39.4 682.9,34 690.5,52.5 698.2,34 718.2,34" />
<path stroke="#000000" stroke-width="2" d="M 748.2,70" />
<path stroke="#000000" stroke-width="2" d="M 764.2,30 744.4,49.8 764.2,69.6" />
<path stroke="#000000" stroke-width="2" d="M 770.8,70" />
<path stroke="#000000" stroke-width="2" d="M 770.8,20 770.8,40 770.8,34 770.8,33.1 770.9,32.3 771.1,31.4 771.3,30.6 771.6,29.7 772,28.9 772.4,28.2 772.9,27.5 773.5,26.8 774.1,26.2 774.8,25.6 775.5,25.1 776.2,24.7 777,24.3 777.8,24 778.7,23.8 779.5,23.6 780.4,23.6" />
<path stroke="#000000" stroke-width="2" d="M 810.4,70" />
<path stroke="#000000" stroke-width="2" d="M 826.4,30 806.6,49.8 826.4,69.6" />
<path stroke="#000000" stroke-width="2" d="M 833.1,70" />
<path stroke="#000000" stroke-width="2" d="M 833.1,20 833.1,40 833.1,34 833.1,33.1 833.1,32.3 833.3,31.4 833.5,30.6 833.8,29.7 834.2,28.9 834.6,28.2 835.1,27.5 835.7,26.8 836.3,26.2 837,25.6 837.7,25.1 838.4,24.7 839.2,24.3 840.1,24 840.9,23.8 841.8,23.6 842.6,23.6" />
<path stroke="#000000" stroke-width="2" d="M 872.6,70" />
<path stroke="#000000" stroke-width="2" d="M 872.6,30 872.6,50 872.6,70 872.6,64 872.6,63.1 872.7,62.3 872.9,61.4 873.1,60.6 873.4,59.7 873.7,58.9 874.2,58.2 874.7,57.5 875.2,56.8 875.9,56.2 876.5,55.6 877.2,55.1 878,54.7 878.8,54.3 879.6,54 880.5,53.8 881.3,53.6 882.2,53.6" />
<path stroke="#000000" stroke-width="2" d="M 888.8,70" />
<path stroke="#000000" stroke-width="2" d="M 900.8,26" />
<path stroke="#000000" stroke-width="2" d="M 900.8,26 898.8,25.9 897.2,25.6 896,25.1 895.1,24.6 894.5,23.9 894.2,23.2 894.2,22.4 894.4,21.7 894.7,21 895.2,20.4 895.8,19.9 896.5,19.5 897.3,19.3 898,19.4 898.7,19.7 899.4,20.2 900,21.1 900.4,22.4 900.7,24 900.8,26 900.8,30" />
<path stroke="#000000" stroke-width="2" d="M 900.8,30 900.5,30.9 900.2,31.7 899.8,32.4 899.4,33.1 899,33.8 898.6,34.4 898.1,34.9 897.6,35.4 897.1,35.9 896.6,36.2 896.1,36.6 895.5,36.9 895,37.2 894.4,37.4 893.8,37.6 893.2,37.7 892.6,37.9 892,37.9 891.4,38 890.8,38" />
<path stroke="#000000" stroke-width="2" d="M 930.8,70" />
<path stroke="#000000" stroke-width="2" d="M 930.8,70 931,70 931,70.2 930.8,70.2 930.8,70" />
<path stroke="#000000" stroke-width="2" d="M 961,70" />
<path stroke="#000000" stroke-width="2" d="M 961,30 968.7,48.5 976.4,30" />
<path stroke="#000000" stroke-width="2" d="M 976.4,40" />
<path stroke="#000000" stroke-width="2" d="M 960.4,40 977.4,40" />
<path stroke="#000000" stroke-width="2" d="M 977.4,40 975.3,39.9 973.7,39.6 972.5,39.1 971.6,38.6 971,37.9 970.7,37.2 970.7,36.4 970.9,35.7 971.2,35 971.7,34.4 972.3,33.9 973,33.5 973.8,33.3 974.5,33.4 975.2,33.7 975.9,34.2 976.5,35.1 976.9,36.4 977.2,38 977.4,40 977.4,44" />
<path stroke="#000000" stroke-width="2" d="M 977.4,44 977,44.9 976.7,45.7 976.3,46.4 975.9,47.1 975.5,47.8 975.1,48.4 974.6,48.9 974.1,49.4 973.6,49.9 973.1,50.2 972.6,50.6 972,50.9 971.5,51.2 970.9,51.4 970.3,51.6 969.7,51.7 969.1,51.9 968.6,51.9 968,52 967.4,52" />
<path stroke="#000000" stroke-width="2" d="M 1007.4,70" />
<path stroke="#000000" stroke-width="2" d="M 1007.4,70 1022.7,33 1022.7,73" />
<path stroke="#000000" stroke-width="2" d="M 1029.3,70" />
<path stroke="#000000" stroke-width="2" d="M 1029.3,50" />
<path stroke="#000000" stroke-width="2" d="M 1029.3,50 1029.5,50 1029.9,50 1030.5,50 1031.4,50.1 1032.5,50.2 1033.6,50.3 1035,50.4 1036.4,50.6 1037.8,50.9 1039.3,51.2 1040.8,51.7 1042.3,52.2 1043.7,52.7 1045,53.4 1046.2,54.2 1047.2,55.1 1048.1,56.1 1048.8,57.3 1049.2,58.6 1049.3,60" />
<path stroke="#000000" stroke-width="2" d="M 1049.3,60 1051.3,62.1 1052.6,64.1 1053.3,65.7 1053.6,67.2 1053.5,68.4 1053.1,69.5 1052.4,70.2 1051.5,70.8 1050.4,71.1 1049.3,71.2 1048.2,71.1 1047.2,70.8 1046.3,70.2 1045.5,69.5 1045.1,68.4 1045,67.2 1045.3,65.7 1046.1,64 1047.4,62.1 1049.3,60" />
<path stroke="#000000" stroke-width="2" d="M 1049.3,60 1049.3,59.9 1049.3,59.7 1049.4,59.4 1049.5,59 1049.6,58.4 1049.9,57.8 1050.2,57.2 1050.6,56.5 1051.1,55.7 1051.8,55 1052.7,54.3 1053.6,53.5 1054.8,52.8 1056.2,52.2 1057.8,51.6 1059.6,51 1061.6,50.6 1063.9,50.3 1066.5,50.1 1069.3,50 1061.7,68.5" />
<path stroke="#000000" stroke-width="2" d="M 1099.3,70" />
<path stroke="#000000" stroke-width="2" d="M 1115.3,30 1095.5,49.8 1115.3,69.6" />
<path stroke="#000000" stroke-width="2" d="M 1122,70" />
<path stroke="#000000" stroke-width="2" d="M 1122,20 1122,40 1122,34 1122,33.1 1122.1,32.3 1122.2,31.4 1122.4,30.6 1122.7,29.7 1123.1,28.9 1123.5,28.2 1124,27.5 1124.6,26.8 1125.2,26.2 1125.9,25.6 1126.6,25.1 1127.4,24.7 1128.2,24.3 1129,24 1129.8,23.8 1130.7,23.6 1131.5,23.6" />
<path stroke="#000000" stroke-width="2" d="M 1161.5,70" />
<path stroke="#000000" stroke-width="2" d="M 1161.5,30 1161.5,70 1172.9,58.7" />
<path stroke="#000000" stroke-width="2" d="M 1179.5,70" />
<path stroke="#000000" stroke-width="2" d="M 1179.5,25" />
<path stroke="#000000" stroke-width="2" d="M 1179.5,25 1181.6,24.9 1183.2,24.6 1184.4,24.1 1185.3,23.6 1185.9,22.9 1186.1,22.2 1186.2,21.4 1186,20.7 1185.7,20 1185.2,19.4 1184.5,18.9 1183.8,18.5 1183.1,18.3 1182.4,18.4 1181.6,18.7 1181,19.2 1180.4,20.1 1179.9,21.4 1179.6,23 1179.5,25 1179.5,40" />
<path stroke="#000000" stroke-width="2" d="M 1216.2,70" />
<path stroke="#000000" stroke-width="2" d="M 1216.2,30 1226.2,30 1226.2,70" />
<path stroke="#000000" stroke-width="2" d="M 1232.8,70" />
<path stroke="#000000" stroke-width="2" d="M 1232.8,20 1232.8,40 1232.8,34 1232.8,33.1 1232.9,32.3 1233.1,31.4 1233.3,30.6 1233.6,29.7 1234,28.9 1234.4,28.2 1234.9,27.5 1235.5,26.8 1236.1,26.2 1236.8,25.6 1237.5,25.1 1238.2,24.7 1239,24.3 1239.8,24 1240.7,23.8 1241.5,23.6 1242.4,23.6" />
<path stroke="#000000" stroke-width="2" d="M 1272.4,70" />
<path stroke="#000000" stroke-width="2" d="M 1292.4,30 1277.1,67" />
<path stroke="#000000" stroke-width="2" d="M 1299.1,70" />
<path stroke="#000000" stroke-width="2" d="M 1299.1,50 1299.1,50.7 1299.1,51.4 1299.3,52.1 1299.4,52.8 1299.7,53.4 1300,54 1300.3,54.6 1300.7,55.2 1301.2,55.8 1301.7,56.2 1302.2,56.7 1302.8,57.1 1303.4,57.4 1304,57.7 1304.7,58 1305.3,58.2 1306,58.3 1306.7,58.3 1307.4,58.3 1308.1,58.3 1308.8,58.2 1309.5,58 1310.1,57.7 1310.8,57.4 1311.4,57.1 1311.9,56.7 1312.5,56.2 1313,55.8 1313.4,55.2 1313.8,54.6 1314.2,54 1314.5,53.4 1314.7,52.8 1314.9,52.1 1315,51.4 1315.1,50.7" />
<path stroke="#000000" stroke-width="2" d="M 1321.7,70" />
<path stroke="#000000" stroke-width="2" d="M 1321.7,30 1326.7,30 1326.7,50 1326.7,50.7 1326.8,51.4 1326.9,52.1 1327.1,52.8 1327.3,53.4 1327.6,54 1328,54.6 1328.4,55.2 1328.8,55.8 1329.3,56.2 1329.8,56.7 1330.4,57.1 1331,57.4 1331.7,57.7 1332.3,58 1333,58.2 1333.7,58.3 1334.4,58.3 1335.1,58.3 1335.8,58.3 1336.4,58.2 1337.1,58 1337.8,57.7 1338.4,57.4 1339,57.1 1339.6,56.7 1340.1,56.2 1340.6,55.8 1341.1,55.2 1341.5,54.6 1341.8,54 1342.1,53.4 1342.3,52.8 1342.5,52.1 1342.6,51.4 1342.7,50.7" />
<path stroke="#000000" stroke-width="2" d="M 1349.4,70" />
<path stroke="#000000" stroke-width="2" d="M 1349.4,70 1349.4,68.6 1349.5,67.2 1349.7,65.8 1350.1,64.5 1350.6,63.2 1351.2,61.9 1351.9,60.7 1352.7,59.6 1353.6,58.5 1354.5,57.5 1355.6,56.6 1356.8,55.8 1358,55.1 1359.2,54.5 1360.5,54 1361.9,53.7 1363.3,53.4 1364.7,53.3 1366.1,53.3 1367.4,53.4 1368.8,53.7 1370.2,54 1371.5,54.5 1372.7,55.1 1374,55.8 1375.1,56.6 1376.2,57.5 1377.2,58.5 1378.1,59.6 1378.9,60.7 1379.5,61.9 1380.1,63.2 1380.6,64.5 1381,65.8 1381.2,67.2 1381.3,68.6" />
<path stroke="#000000" stroke-width="2" d="M 1411.3,70" />
</svg>