<svg xmlns="http://www.w3.org/2000/svg" width="1390.731082195172" height="106.6826817431551" style="fill:none; stroke-linecap:round;">
    <rect width="100%" height="100%" fill="#FFFFFF" />
<path stroke="#000000" stroke-width="2" d="M 550,75" />
<path stroke="#000000" stroke-width="2" d="M 20,30 35.3,67" />
<path stroke="#000000" stroke-width="2" d="M 42,70" />
<path stroke="#000000" stroke-width="2" d="M 42,30 57.3,67 72.6,30" />
<path stroke="#000000" stroke-width="2" d="M 79.3,70" />
<path stroke="#000000" stroke-width="2" d="M 87.3,30 87.3,45" />
<path stroke="#000000" stroke-width="2" d="M 87.3,45 87.1,47 86.9,48.6 86.4,49.9 85.8,50.8 85.1,51.3 84.4,51.6 83.7,51.7 82.9,51.5 82.2,51.1 81.6,50.6 81.1,50 80.8,49.3 80.6,48.6 80.6,47.8 80.9,47.1 81.5,46.4 82.4,45.9 83.6,45.4 85.2,45.1 87.3,45 107.3,45" />
<path stroke="#000000" stroke-width="2" d="M 137.3,70" />
<path stroke="#000000" stroke-width="2" d="M 137.3,30 137.3,70 148.6,58.7" />
<path stroke="#000000" stroke-width="2" d="M 155.2,70" />
<path stroke="#000000" stroke-width="2" d="M 155.2,25" />
<path stroke="#000000" stroke-width="2" d="M 155.2,25 157.3,24.9 158.9,24.6 160.1,24.1 161,23.6 161.6,22.9 161.9,22.2 161.9,21.4 161.7,20.7 161.4,20 160.9,19.4 160.2,18.9 159.6,18.5 158.8,18.3 158.1,18.4 157.3,18.7 156.7,19.2 156.1,20.1 155.6,21.4 155.3,23 155.2,25 155.2,40" />
<path stroke="#000000" stroke-width="2" d="M 191.9,70" />
<path stroke="#000000" stroke-width="2" d="M 207.9,30" />
<path stroke="#000000" stroke-width="2" d="M 207.9,30 207.7,34.1 207.1,37.3 206.2,39.8 205,41.5 203.7,42.7 202.2,43.2 200.7,43.3 199.3,43 197.9,42.3 196.6,41.2 195.6,40 194.9,38.6 194.6,37.2 194.7,35.7 195.2,34.2 196.4,32.9 198.1,31.7 200.6,30.8 203.8,30.2 207.9,30 227.9,30" />
<path stroke="#000000" stroke-width="2" d="M 234.6,70" />
<path stroke="#000000" stroke-width="2" d="M 234.6,55" />
<path stroke="#000000" stroke-width="2" d="M 234.6,55 236.6,54.9 238.2,54.6 239.4,54.1 240.3,53.6 240.9,52.9 241.2,52.2 241.2,51.4 241,50.7 240.7,50 240.2,49.4 239.6,48.9 238.9,48.5 238.1,48.3 237.4,48.4 236.7,48.7 236,49.2 235.4,50.1 235,51.4 234.7,53 234.6,55 234.6,70" />
<path stroke="#000000" stroke-width="2" d="M 247.9,70" />
<path stroke="#000000" stroke-width="2" d="M 255.9,30 255.9,45" />
<path stroke="#000000" stroke-width="2" d="M 255.9,45 255.8,47 255.5,48.6 255,49.9 254.4,50.8 253.8,51.3 253,51.6 252.3,51.7 251.6,51.5 250.9,51.1 250.3,50.6 249.8,50 249.4,49.3 249.2,48.6 249.3,47.8 249.5,47.1 250.1,46.4 251,45.9 252.2,45.4 253.8,45.1 255.9,45 275.9,45" />
<path stroke="#000000" stroke-width="2" d="M 275.9,45 277.3,45.1 278.6,45.6 279.7,46.2 280.7,47.1 281.5,48.1 282.2,49.3 282.7,50.6 283.1,52 283.3,53.5 283.4,55 283.3,56.5 283.1,58 282.7,59.4 282.2,60.7 281.5,61.9 280.7,62.9 279.7,63.8 278.6,64.4 277.3,64.9 275.9,65" />
<path stroke="#000000" stroke-width="2" d="M 313.4,70" />
<path stroke="#000000" stroke-width="2" d="M 313.4,70 324.9,42.3" />
<path stroke="#000000" stroke-width="2" d="M 324.9,42.3 328.9,42.1 332.1,41.5 334.6,40.6 336.4,39.4 337.5,38.1 338.1,36.6 338.2,35.1 337.8,33.6 337.1,32.3 336.1,31 334.9,30 333.5,29.3 332,29 330.5,29.1 329.1,29.6 327.7,30.8 326.6,32.5 325.7,35 325.1,38.2 324.9,42.3 324.9,72.3" />
<path stroke="#000000" stroke-width="2" d="M 368.2,70" />
<path stroke="#000000" stroke-width="2" d="M 368.2,30 368.2,50 378.2,50 383.2,50 383.2,70" />
<path stroke="#000000" stroke-width="2" d="M 413.2,70" />
<path stroke="#000000" stroke-width="2" d="M 413.2,30 413.2,70 433.2,70" />
<path stroke="#000000" stroke-width="2" d="M 463.2,70" />
<path stroke="#000000" stroke-width="2" d="M 463.2,30 463.2,70 474.5,58.7" />
<path stroke="#000000" stroke-width="2" d="M 481.1,70" />
<path stroke="#000000" stroke-width="2" d="M 481.1,25" />
<path stroke="#000000" stroke-width="2" d="M 481.1,25 483.2,24.9 484.8,24.6 486,24.1 486.9,23.6 487.5,22.9 487.8,22.2 487.8,21.4 487.6,20.7 487.3,20 486.8,19.4 486.2,18.9 485.5,18.5 484.7,18.3 484,18.4 483.3,18.7 482.6,19.2 482,20.1 481.6,21.4 481.3,23 481.1,25 481.1,40" />
<path stroke="#000000" stroke-width="2" d="M 517.8,70" />
<path stroke="#000000" stroke-width="2" d="M 517.8,30 517.8,31.4 517.9,32.8 518.2,34.2 518.5,35.5 519,36.8 519.6,38.1 520.3,39.3 521.1,40.4 522,41.5 523,42.5 524,43.4 525.2,44.2 526.4,44.9 527.7,45.5 529,46 530.3,46.3 531.7,46.6 533.1,46.7 534.5,46.7 535.9,46.6 537.2,46.3 538.6,46 539.9,45.5 541.2,44.9 542.4,44.2 543.5,43.4 544.6,42.5 545.6,41.5 546.5,40.4 547.3,39.3 548,38.1 548.6,36.8 549,35.5 549.4,34.2 549.6,32.8 549.8,31.4" />
<path stroke="#000000" stroke-width="2" d="M 556.4,70" />
<path stroke="#000000" stroke-width="2" d="M 556.4,20 576.4,20" />
<path stroke="#000000" stroke-width="2" d="M 576.4,20 574.4,19.9 572.8,19.6 571.6,19.1 570.7,18.6 570.1,17.9 569.8,17.2 569.8,16.4 570,15.7 570.3,15 570.8,14.4 571.4,13.9 572.1,13.5 572.9,13.3 573.6,13.4 574.3,13.7 575,14.2 575.6,15.1 576,16.4 576.3,18 576.4,20 576.4,24" />
<path stroke="#000000" stroke-width="2" d="M 576.4,24 576.1,24.9 575.8,25.7 575.4,26.4 575,27.1 574.6,27.8 574.2,28.4 573.7,28.9 573.2,29.4 572.7,29.9 572.2,30.2 571.7,30.6 571.1,30.9 570.6,31.2 570,31.4 569.4,31.6 568.8,31.7 568.2,31.9 567.6,31.9 567,32 566.4,32" />
<path stroke="#000000" stroke-width="2" d="M 606.4,70" />
<path stroke="#000000" stroke-width="2" d="M 626.4,30 624.7,30 623,30.2 621.2,30.5 619.6,30.9 617.9,31.5 616.3,32.2 614.8,33.1 613.4,34.1 612.1,35.2 610.8,36.5 609.7,37.8 608.7,39.2 607.8,40.7 607.1,42.3 606.5,44 606,45.7 605.7,47.4 605.6,49.1 605.6,50.9 605.7,52.6 606,54.3 606.5,56 607.1,57.6 607.8,59.2 608.7,60.7 609.7,62.2 610.8,63.5 612.1,64.7 613.4,65.8 614.8,66.8 616.3,67.7 617.9,68.5 619.6,69.1 621.2,69.5 623,69.8 624.7,70" />
<path stroke="#000000" stroke-width="2" d="M 624.7,50" />
<path stroke="#000000" stroke-width="2" d="M 592.7,50 632.7,50" />
<path stroke="#000000" stroke-width="2" d="M 662.7,70" />
<path stroke="#000000" stroke-width="2" d="M 662.7,70 662.9,70 662.9,70.2 662.7,70.2 662.7,70" />
<path stroke="#000000" stroke-width="2" d="M 669.6,70" />
<path stroke="#000000" stroke-width="2" d="M 679.6,30 669.6,30 669.6,70" />
<path stroke="#000000" stroke-width="2" d="M 686.2,70" />
<path stroke="#000000" stroke-width="2" d="M 696.2,50 688.6,68.5" />
<path stroke="#000000" stroke-width="2" d="M 726.2,70" />
<path stroke="#000000" stroke-width="2" d="M 726.2,30 746.2,30" />
<path stroke="#000000" stroke-width="2" d="M 746.2,30 747.7,30.1 748.9,30.6 750.1,31.2 751,32.1 751.9,33.1 752.5,34.3 753.1,35.6 753.4,37 753.7,38.5 753.7,40 753.7,41.5 753.4,43 753.1,44.4 752.5,45.7 751.9,46.9 751,47.9 750.1,48.8 748.9,49.4 747.7,49.9 746.2,50" />
<path stroke="#000000" stroke-width="2" d="M 783.7,70" />
<path stroke="#000000" stroke-width="2" d="M 783.7,35" />
<path stroke="#000000" stroke-width="2" d="M 783.7,35 785.8,34.9 787.4,34.6 788.6,34.1 789.5,33.6 790.1,32.9 790.3,32.2 790.4,31.4 790.2,30.7 789.9,30 789.4,29.4 788.7,28.9 788,28.5 787.3,28.3 786.6,28.4 785.8,28.7 785.2,29.2 784.6,30.1 784.1,31.4 783.8,33 783.7,35 783.7,50 776.1,68.5" />
<path stroke="#000000" stroke-width="2" d="M 797,70" />
<path stroke="#000000" stroke-width="2" d="M 797,20 797,40 797,34 797,33.1 797.1,32.3 797.3,31.4 797.5,30.6 797.8,29.7 798.2,28.9 798.6,28.2 799.1,27.5 799.7,26.8 800.3,26.2 801,25.6 801.7,25.1 802.4,24.7 803.2,24.3 804,24 804.9,23.8 805.7,23.6 806.6,23.6" />
<path stroke="#000000" stroke-width="2" d="M 806.6,23.6 804.6,23.5 803,23.2 801.7,22.7 800.8,22.1 800.3,21.5 800,20.7 799.9,20 800.1,19.3 800.5,18.6 801,17.9 801.6,17.4 802.3,17.1 803,16.9 803.8,17 804.5,17.2 805.2,17.8 805.7,18.7 806.2,19.9 806.5,21.5 806.6,23.6 806.6,27.6" />
<path stroke="#000000" stroke-width="2" d="M 806.6,27.6 806.3,28.4 805.9,29.3 805.6,30 805.2,30.7 804.8,31.4 804.3,31.9 803.9,32.5 803.4,33 802.9,33.4 802.4,33.8 801.8,34.2 801.3,34.5 800.7,34.8 800.1,35 799.6,35.2 799,35.3 798.4,35.4 797.8,35.5 797.2,35.6 796.6,35.6" />
<path stroke="#000000" stroke-width="2" d="M 836.6,70" />
<path stroke="#000000" stroke-width="2" d="M 836.6,70 864.9,41.7 849.6,78.7" />
<path stroke="#000000" stroke-width="2" d="M 894.9,70" />
<path stroke="#000000" stroke-width="2" d="M 894.9,30 910.2,67" />
<path stroke="#000000" stroke-width="2" d="M 916.9,70" />
<path stroke="#000000" stroke-width="2" d="M 916.9,40" />
<path stroke="#000000" stroke-width="2" d="M 916.9,40 920.9,39.8 924.2,39.2 926.6,38.3 928.4,37.1 929.5,35.8 930.1,34.3 930.2,32.8 929.8,31.4 929.1,30 928.1,28.8 926.9,27.7 925.5,27 924,26.7 922.5,26.8 921.1,27.3 919.7,28.5 918.6,30.2 917.7,32.7 917.1,35.9 916.9,40 916.9,70 916.9,71.4 917,72.8 917.2,74.2 917.6,75.5 918.1,76.8 918.7,78.1 919.4,79.3 920.2,80.4 921,81.5 922,82.5 923.1,83.4 924.2,84.2 925.5,84.9 926.7,85.5 928,86 929.4,86.3 930.8,86.6 932.1,86.7 933.5,86.7 934.9,86.6 936.3,86.3 937.7,86 939,85.5 940.2,84.9 941.4,84.2 942.6,83.4 943.7,82.5 944.6,81.5 945.5,80.4 946.3,79.3 947,78.1 947.6,76.8 948.1,75.5 948.5,74.2 948.7,72.8 948.8,71.4" />
<path stroke="#000000" stroke-width="2" d="M 948.8,55.4" />
<path stroke="#000000" stroke-width="2" d="M 908.8,55.4 924.8,55.4" />
<path stroke="#000000" stroke-width="2" d="M 978.8,70" />
<path stroke="#000000" stroke-width="2" d="M 978.8,30 1018.8,30" />
<path stroke="#000000" stroke-width="2" d="M 1048.8,70" />
<path stroke="#000000" stroke-width="2" d="M 1068.8,70 1070.6,70 1072.3,69.8 1074,69.5 1075.7,69.1 1077.4,68.5 1078.9,67.8 1080.4,66.9 1081.9,65.9 1083.2,64.8 1084.4,63.5 1085.6,62.2 1086.6,60.8 1087.4,59.3 1088.2,57.7 1088.8,56 1089.2,54.3 1089.5,52.6 1089.7,50.9 1089.7,49.1 1089.5,47.4 1089.2,45.7 1088.8,44 1088.2,42.4 1087.4,40.8 1086.6,39.3 1085.6,37.8 1084.4,36.5 1083.2,35.3 1081.9,34.2 1080.4,33.2 1078.9,32.3 1077.4,31.5 1075.7,30.9 1074,30.5 1072.3,30.2 1070.6,30 1068.8,30 1067.1,30.2 1065.4,30.5 1063.7,30.9 1062,31.5 1060.5,32.3 1059,33.2 1057.5,34.2 1056.2,35.3 1055,36.5 1053.8,37.8 1052.8,39.3 1052,40.8 1051.2,42.4 1050.6,44 1050.2,45.7 1049.9,47.4 1049.7,49.1 1049.7,50.9 1049.9,52.6 1050.2,54.3 1050.6,56 1051.2,57.7 1052,59.3 1052.8,60.8 1053.8,62.2 1055,63.5 1056.2,64.8 1057.5,65.9 1059,66.9 1060.5,67.8 1062,68.5 1063.7,69.1 1065.4,69.5 1067.1,69.8 1068.8,70" />
<path stroke="#000000" stroke-width="2" d="M 1096.3,70" />
<path stroke="#000000" stroke-width="2" d="M 1096.3,40" />
<path stroke="#000000" stroke-width="2" d="M 1096.3,40 1100.4,39.8 1103.6,39.2 1106.1,38.3 1107.9,37.1 1109,35.8 1109.6,34.3 1109.7,32.8 1109.3,31.4 1108.6,30 1107.6,28.8 1106.4,27.7 1105,27 1103.5,26.7 1102,26.8 1100.6,27.3 1099.2,28.5 1098.1,30.2 1097.2,32.7 1096.6,35.9 1096.3,40 1096.3,70" />
<path stroke="#000000" stroke-width="2" d="M 1139.7,70" />
<path stroke="#000000" stroke-width="2" d="M 1139.7,35" />
<path stroke="#000000" stroke-width="2" d="M 1139.7,35 1141.7,34.9 1143.3,34.6 1144.5,34.1 1145.4,33.6 1146,32.9 1146.3,32.2 1146.3,31.4 1146.1,30.7 1145.8,30 1145.3,29.4 1144.7,28.9 1144,28.5 1143.2,28.3 1142.5,28.4 1141.8,28.7 1141.1,29.2 1140.5,30.1 1140.1,31.4 1139.8,33 1139.7,35 1139.7,50 1132,68.5" />
<path stroke="#000000" stroke-width="2" d="M 1153,70" />
<path stroke="#000000" stroke-width="2" d="M 1163,20 1163,40 1153,40" />
<path stroke="#000000" stroke-width="2" d="M 1193,70" />
<path stroke="#000000" stroke-width="2" d="M 1203,30 1202.1,30 1201.2,30.1 1200.4,30.2 1199.5,30.5 1198.7,30.8 1197.9,31.1 1197.2,31.6 1196.5,32.1 1195.8,32.6 1195.2,33.2 1194.6,33.9 1194.1,34.6 1193.7,35.4 1193.3,36.2 1193,37 1192.8,37.8 1192.6,38.7 1192.6,39.6 1192.6,40.4 1192.6,41.3 1192.8,42.2 1193,43 1193.3,43.8 1193.7,44.6 1194.1,45.4 1194.6,46.1 1195.2,46.7 1195.8,47.4 1196.5,47.9 1197.2,48.4 1197.9,48.9 1198.7,49.2 1199.5,49.5 1200.4,49.8 1201.2,49.9 1202.1,50 1207.1,50 1207.1,70" />
<path stroke="#000000" stroke-width="2" d="M 1237.1,70" />
<path stroke="#000000" stroke-width="2" d="M 1237.1,70 1237.3,70 1237.3,70.2 1237.1,70.2 1237.1,70" />
<path stroke="#000000" stroke-width="2" d="M 1244,70" />
<path stroke="#000000" stroke-width="2" d="M 1264,30 1244.2,49.8" />
<path stroke="#000000" stroke-width="2" d="M 1244.2,29.8 1264,49.6" />
<path stroke="#000000" stroke-width="2" d="M 1264,49.6 1263.9,51.6 1263.6,53.2 1263.1,54.5 1262.5,55.4 1261.9,55.9 1261.1,56.2 1260.4,56.3 1259.7,56.1 1259,55.7 1258.3,55.2 1257.8,54.6 1257.5,53.9 1257.3,53.2 1257.4,52.4 1257.6,51.7 1258.2,51 1259.1,50.5 1260.3,50 1261.9,49.7 1264,49.6 1274,49.6" />
<path stroke="#000000" stroke-width="2" d="M 1280.6,70" />
<path stroke="#000000" stroke-width="2" d="M 1280.6,20 1280.6,40 1280.6,34 1280.6,33.1 1280.7,32.3 1280.9,31.4 1281.1,30.6 1281.4,29.7 1281.8,28.9 1282.2,28.2 1282.7,27.5 1283.3,26.8 1283.9,26.2 1284.5,25.6 1285.3,25.1 1286,24.7 1286.8,24.3 1287.6,24 1288.5,23.8 1289.3,23.6 1290.2,23.6" />
<path stroke="#000000" stroke-width="2" d="M 1296.9,70" />
<path stroke="#000000" stroke-width="2" d="M 1298.9,50 1304.2,37.1 1304.4,36.7 1304.5,36.4 1304.5,36.1 1304.6,35.7 1304.6,35.4 1304.6,35 1304.5,34.7 1304.5,34.3 1304.4,34 1304.2,33.7 1304.1,33.4 1303.9,33.1 1303.7,32.8 1303.4,32.5 1303.2,32.3 1302.9,32.1 1302.6,31.9 1302.3,31.7 1302,31.6 1301.6,31.5 1301.3,31.4 1300.9,31.4 1300.6,31.4 1300.2,31.4 1299.9,31.4 1299.6,31.5 1299.2,31.6 1298.9,31.7 1298.6,31.9 1298.3,32.1 1298,32.3 1297.8,32.5 1297.5,32.8 1297.3,33.1 1297.1,33.4 1297,33.7 1296.8,34 1296.7,34.3 1296.7,34.7 1296.6,35 1296.6,35.4 1296.6,35.7 1296.7,36.1 1296.7,36.4 1296.8,36.7 1297,37.1 1297.1,37.4 1297.3,37.7 1297.5,37.9 1297.8,38.2 1298,38.4 1298.3,38.7 1298.6,38.8 1298.9,39 1299.2,39.1 1299.6,39.2 1299.9,39.3 1300.2,39.4 1300.6,39.4 1300.9,39.4 1313.9,34 1333.9,34" />
<path stroke="#000000" stroke-width="2" d="M 1333.9,34 1335.9,33.9 1337.5,33.6 1338.8,33.1 1339.6,32.6 1340.2,31.9 1340.5,31.2 1340.5,30.4 1340.4,29.7 1340,29 1339.5,28.4 1338.9,27.9 1338.2,27.5 1337.5,27.3 1336.7,27.4 1336,27.7 1335.3,28.2 1334.7,29.1 1334.3,30.4 1334,32 1333.9,34 1333.9,49" />
<path stroke="#000000" stroke-width="2" d="M 1370.5,70" />
<path stroke="#000000" stroke-width="2" d="M 1370.5,70 1370.7,70 1370.7,70.2 1370.5,70.2 1370.5,70" />
<path stroke="#000000" stroke-width="2" d="M 1400.7,70" />
</svg>