<svg xmlns="http://www.w3.org/2000/svg" width="1359.1456514917802" height="98.34134087157756" style="fill:none; stroke-linecap:round;">
    <rect width="100%" height="100%" fill="#FFFFFF" />
<path stroke="#000000" stroke-width="2" d="M 550,75" />
<path stroke="#000000" stroke-width="2" d="M 30,30 29.1,30 28.3,30.1 27.4,30.2 26.6,30.5 25.7,30.8 24.9,31.1 24.2,31.6 23.5,32.1 22.8,32.6 22.2,33.2 21.6,33.9 21.1,34.6 20.7,35.4 20.3,36.2 20,37 19.8,37.8 19.6,38.7 19.6,39.6 19.6,40.4 19.6,41.3 19.8,42.2 20,43 20.3,43.8 20.7,44.6 21.1,45.4 21.6,46.1 22.2,46.7 22.8,47.4 23.5,47.9 24.2,48.4 24.9,48.9 25.7,49.2 26.6,49.5 27.4,49.8 28.3,49.9 29.1,50 34.1,50 34.1,70" />
<path stroke="#000000" stroke-width="2" d="M 64.1,70" />
<path stroke="#000000" stroke-width="2" d="M 64.1,70 64.3,70 64.3,70.2 64.1,70.2 64.1,70" />
<path stroke="#000000" stroke-width="2" d="M 71,70" />
<path stroke="#000000" stroke-width="2" d="M 81,30 80.1,30 79.3,30.1 78.4,30.2 77.6,30.5 76.7,30.8 75.9,31.1 75.2,31.6 74.5,32.1 73.8,32.6 73.2,33.2 72.6,33.9 72.1,34.6 71.7,35.4 71.3,36.2 71,37 70.8,37.8 70.6,38.7 70.6,39.6 70.6,40.4 70.6,41.3 70.8,42.2 71,43 71.3,43.8 71.7,44.6 72.1,45.4 72.6,46.1 73.2,46.7 73.8,47.4 74.5,47.9 75.2,48.4 75.9,48.9 76.7,49.2 77.6,49.5 78.4,49.8 79.3,49.9 80.1,50 80.1,70 80.1,64 80.1,63.1 80.2,62.2 80.3,61.4 80.6,60.5 80.9,59.7 81.2,58.9 81.7,58.2 82.2,57.5 82.7,56.8 83.4,56.2 84,55.6 84.7,55.1 85.5,54.7 86.3,54.3 87.1,54 87.9,53.8 88.8,53.6 89.7,53.6 90.5,53.6 91.4,53.6 92.3,53.8 93.1,54 93.9,54.3 94.7,54.7 95.5,55.1 96.2,55.6 96.9,56.2 97.5,56.8 98,57.5 98.5,58.2 99,58.9 99.4,59.7 99.6,60.5 99.9,61.4 100,62.2 100.1,63.1 100.1,64 100,64.9 99.9,65.7 99.6,66.6 99.4,67.4 99,68.2 98.5,68.9 98,69.6 97.5,70.3 96.9,70.9 96.2,71.5 95.5,72 94.7,72.4 93.9,72.8 93.1,73.1 92.3,73.3 91.4,73.5 90.5,73.5" />
<path stroke="#000000" stroke-width="2" d="M 106.8,70" />
<path stroke="#000000" stroke-width="2" d="M 106.8,30 146.8,30" />
<path stroke="#000000" stroke-width="2" d="M 153.4,70" />
<path stroke="#000000" stroke-width="2" d="M 153.4,20 153.4,40 153.4,34 153.4,33.1 153.5,32.3 153.7,31.4 153.9,30.6 154.2,29.7 154.6,28.9 155,28.2 155.5,27.5 156.1,26.8 156.7,26.2 157.3,25.6 158.1,25.1 158.8,24.7 159.6,24.3 160.4,24 161.3,23.8 162.1,23.6 163,23.6" />
<path stroke="#000000" stroke-width="2" d="M 169.7,70" />
<path stroke="#000000" stroke-width="2" d="M 169.7,30 169.9,30 169.9,30.2 169.7,30.2 169.7,30" />
<path stroke="#000000" stroke-width="2" d="M 199.9,70" />
<path stroke="#000000" stroke-width="2" d="M 199.9,70 200.1,70 200.1,70.2 199.9,70.2 199.9,70" />
<path stroke="#000000" stroke-width="2" d="M 230.1,70" />
<path stroke="#000000" stroke-width="2" d="M 230.1,50 230.1,49.3 230.1,48.6 230.2,47.9 230.4,47.2 230.7,46.6 231,46 231.3,45.4 231.7,44.8 232.2,44.2 232.6,43.8 233.2,43.3 233.8,42.9 234.4,42.6 235,42.3 235.6,42 236.3,41.8 237,41.7 237.7,41.7 238.4,41.7 239.1,41.7 239.8,41.8 240.5,42 241.1,42.3 241.7,42.6 242.3,42.9 242.9,43.3 243.5,43.8 243.9,44.2 244.4,44.8 244.8,45.4 245.1,46 245.4,46.6 245.7,47.2 245.9,47.9 246,48.6 246,49.3" />
<path stroke="#000000" stroke-width="2" d="M 246,45.3" />
<path stroke="#000000" stroke-width="2" d="M 240,45.3 250,45.3 242.4,63.8 244.7,58.2 245,57.4 245.4,56.7 245.9,55.9 246.4,55.2 247,54.6 247.7,54 248.3,53.5 249.1,53 249.9,52.6 250.7,52.3 251.5,52 252.3,51.8" />
<path stroke="#000000" stroke-width="2" d="M 259,70" />
<path stroke="#000000" stroke-width="2" d="M 259,20 259,40 259,34 259,33.1 259.1,32.3 259.2,31.4 259.5,30.6 259.8,29.7 260.1,28.9 260.6,28.2 261.1,27.5 261.6,26.8 262.2,26.2 262.9,25.6 263.6,25.1 264.4,24.7 265.2,24.3 266,24 266.8,23.8 267.7,23.6 268.6,23.6" />
<path stroke="#000000" stroke-width="2" d="M 275.2,70" />
<path stroke="#000000" stroke-width="2" d="M 275.2,30 275.4,30 275.4,30.2 275.2,30.2 275.2,30" />
<path stroke="#000000" stroke-width="2" d="M 305.4,70" />
<path stroke="#000000" stroke-width="2" d="M 325.4,30 310.1,67" />
<path stroke="#000000" stroke-width="2" d="M 332.1,70" />
<path stroke="#000000" stroke-width="2" d="M 332.1,50 332.3,50 332.3,50.2 332.1,50.2 332.1,50" />
<path stroke="#000000" stroke-width="2" d="M 362.3,70" />
<path stroke="#000000" stroke-width="2" d="M 362.3,70 362.5,70 362.5,70.2 362.3,70.2 362.3,70" />
<path stroke="#000000" stroke-width="2" d="M 369.2,70" />
<path stroke="#000000" stroke-width="2" d="M 379.2,30 378.3,30 377.4,30.1 376.6,30.2 375.7,30.5 374.9,30.8 374.1,31.1 373.4,31.6 372.6,32.1 372,32.6 371.4,33.2 370.8,33.9 370.3,34.6 369.9,35.4 369.5,36.2 369.2,37 369,37.8 368.8,38.7 368.7,39.6 368.7,40.4 368.8,41.3 369,42.2 369.2,43 369.5,43.8 369.9,44.6 370.3,45.4 370.8,46.1 371.4,46.7 372,47.4 372.6,47.9 373.4,48.4 374.1,48.9 374.9,49.2 375.7,49.5 376.6,49.8 377.4,49.9 378.3,50" />
<path stroke="#000000" stroke-width="2" d="M 378.3,40" />
<path stroke="#000000" stroke-width="2" d="M 362.3,40 382.3,40 382.3,60 388,54.3" />
<path stroke="#000000" stroke-width="2" d="M 394.6,70" />
<path stroke="#000000" stroke-width="2" d="M 394.6,20 394.6,20.7 394.7,21.4 394.8,22.1 395,22.8 395.2,23.4 395.5,24 395.9,24.6 396.3,25.2 396.7,25.8 397.2,26.2 397.7,26.7 398.3,27.1 398.9,27.4 399.5,27.7 400.2,28 400.9,28.2 401.6,28.3 402.3,28.3 403,28.3 403.7,28.3 404.3,28.2 405,28 405.7,27.7 406.3,27.4 406.9,27.1 407.5,26.7 408,26.2 408.5,25.8 409,25.2 409.4,24.6 409.7,24 410,23.4 410.2,22.8 410.4,22.1 410.5,21.4 410.6,20.7 418.3,39.2 418.3,39.7 418.2,40.2 418.1,40.7 418,41.2 417.8,41.7 417.6,42.2 417.3,42.7 417,43.1 416.7,43.5 416.3,43.9 415.9,44.2 415.5,44.5 415,44.8 414.6,45 414.1,45.2 413.6,45.3 413,45.4 412.5,45.4 412,45.4 411.5,45.4 411,45.3 410.5,45.2 410,45 409.5,44.8 409,44.5 408.6,44.2 408.2,43.9 407.8,43.5 407.5,43.1 407.2,42.7 406.9,42.2 406.7,41.7 406.5,41.2 406.4,40.7 406.3,40.2 406.3,39.7 406.3,39.2 406.3,38.7 406.4,38.1 406.5,37.6 406.7,37.1 406.9,36.7 407.2,36.2 407.5,35.8 407.8,35.4 408.2,35 408.6,34.7 409,34.4 409.5,34.1 410,33.9 410.5,33.7 411,33.6 411.5,33.5 412,33.4 412.5,33.4 413,33.5 413.6,33.6 414.1,33.7 414.6,33.9 415,34.1 415.5,34.4 415.9,34.7 416.3,35 416.7,35.4 417,35.8 417.3,36.2 417.6,36.7 417.8,37.1 418,37.6 418.1,38.1 418.2,38.7 418.3,39.2 418.3,43.2" />
<path stroke="#000000" stroke-width="2" d="M 418.3,43.2 417.9,44 417.6,44.9 417.2,45.6 416.8,46.3 416.4,47 416,47.5 415.5,48.1 415,48.6 414.5,49 414,49.4 413.5,49.8 412.9,50.1 412.4,50.4 411.8,50.6 411.2,50.8 410.6,50.9 410,51 409.5,51.1 408.9,51.2 408.3,51.2" />
<path stroke="#000000" stroke-width="2" d="M 448.3,70" />
<path stroke="#000000" stroke-width="2" d="M 448.3,30 463.6,67" />
<path stroke="#000000" stroke-width="2" d="M 470.2,70" />
<path stroke="#000000" stroke-width="2" d="M 480.2,20 480.2,40 470.2,40" />
<path stroke="#000000" stroke-width="2" d="M 486.9,70" />
<path stroke="#000000" stroke-width="2" d="M 486.9,50 486.9,70 486.9,64 486.9,63.1 487,62.3 487.1,61.4 487.3,60.6 487.6,59.7 488,58.9 488.5,58.2 489,57.5 489.5,56.8 490.1,56.2 490.8,55.6 491.5,55.1 492.3,54.7 493.1,54.3 493.9,54 494.7,53.8 495.6,53.6 496.5,53.6" />
<path stroke="#000000" stroke-width="2" d="M 503.1,70" />
<path stroke="#000000" stroke-width="2" d="M 523.1,30 507.8,67" />
<path stroke="#000000" stroke-width="2" d="M 529.8,70" />
<path stroke="#000000" stroke-width="2" d="M 529.8,30 530,30 530,30.2 529.8,30.2 529.8,30" />
<path stroke="#000000" stroke-width="2" d="M 560,70" />
<path stroke="#000000" stroke-width="2" d="M 570,30 569.1,30 568.2,30.1 567.4,30.2 566.5,30.5 565.7,30.8 564.9,31.1 564.2,31.6 563.5,32.1 562.8,32.6 562.2,33.2 561.6,33.9 561.1,34.6 560.7,35.4 560.3,36.2 560,37 559.8,37.8 559.6,38.7 559.6,39.6 559.6,40.4 559.6,41.3 559.8,42.2 560,43 560.3,43.8 560.7,44.6 561.1,45.4 561.6,46.1 562.2,46.7 562.8,47.4 563.5,47.9 564.2,48.4 564.9,48.9 565.7,49.2 566.5,49.5 567.4,49.8 568.2,49.9 569.1,50 574.1,50 574.1,70" />
<path stroke="#000000" stroke-width="2" d="M 604.1,70" />
<path stroke="#000000" stroke-width="2" d="M 604.1,30 605.9,30 607.6,30.2 609.3,30.5 611,30.9 612.6,31.5 614.2,32.2 615.7,33.1 617.2,34.1 618.5,35.2 619.7,36.5 620.9,37.8 621.9,39.2 622.7,40.7 623.5,42.3 624.1,44 624.5,45.7 624.8,47.4 625,49.1 625,50.9 624.8,52.6 624.5,54.3 624.1,56 623.5,57.6 622.7,59.2 621.9,60.7 620.9,62.2 619.7,63.5 618.5,64.7 617.2,65.8 615.7,66.8 614.2,67.7 612.6,68.5 611,69.1 609.3,69.5 607.6,69.8 605.9,70 605.9,68.2 606,66.5 606.3,64.8 606.8,63.1 607.4,61.4 608.1,59.9 609,58.3 610,56.9 611.1,55.6 612.3,54.3 613.7,53.2 615.1,52.2 616.6,51.3 618.2,50.6 619.8,50 621.5,49.6 623.2,49.3 625,49.1" />
<path stroke="#000000" stroke-width="2" d="M 631.6,70" />
<path stroke="#000000" stroke-width="2" d="M 631.6,20 639.3,38.5" />
<path stroke="#000000" stroke-width="2" d="M 639.3,38.5 641.3,38.4 642.9,38.1 644.2,37.6 645,37 645.6,36.4 645.9,35.6 645.9,34.9 645.8,34.2 645.4,33.5 644.9,32.9 644.3,32.4 643.6,32 642.9,31.8 642.1,31.9 641.4,32.1 640.7,32.7 640.1,33.6 639.7,34.8 639.4,36.4 639.3,38.5 639.3,53.5" />
<path stroke="#000000" stroke-width="2" d="M 675.9,70" />
<path stroke="#000000" stroke-width="2" d="M 685.9,50 686.8,50 687.7,49.9 688.5,49.8 689.4,49.5 690.2,49.2 691,48.9 691.7,48.4 692.5,47.9 693.1,47.4 693.7,46.8 694.3,46.1 694.8,45.4 695.2,44.6 695.6,43.8 695.9,43 696.1,42.2 696.3,41.3 696.4,40.4 696.4,39.6 696.3,38.7 696.1,37.8 695.9,37 695.6,36.2 695.2,35.4 694.8,34.6 694.3,33.9 693.7,33.3 693.1,32.6 692.5,32.1 691.7,31.6 691,31.1 690.2,30.8 689.4,30.5 688.5,30.2 687.7,30.1 686.8,30 685.9,30 685.1,30.1 684.2,30.2 683.4,30.5 682.5,30.8 681.8,31.1 681,31.6 680.3,32.1 679.6,32.6 679,33.3 678.4,33.9 677.9,34.6 677.5,35.4 677.1,36.2 676.8,37 676.6,37.8 676.5,38.7 676.4,39.6 676.4,40.4 676.5,41.3 676.6,42.2 676.8,43 677.1,43.8 677.5,44.6 677.9,45.4 678.4,46.1 679,46.8 679.6,47.4 680.3,47.9 681,48.4 681.8,48.9 682.5,49.2 683.4,49.5 684.2,49.8 685.1,49.9 685.9,50 685.9,70 685.9,64 685.9,63.1 686,62.3 686.2,61.4 686.4,60.6 686.7,59.7 687.1,58.9 687.5,58.2 688,57.5 688.6,56.8 689.2,56.2 689.8,55.6 690.6,55.1 691.3,54.7 692.1,54.3 692.9,54 693.8,53.8 694.6,53.6 695.5,53.6" />
<path stroke="#000000" stroke-width="2" d="M 726.4,70" />
<path stroke="#000000" stroke-width="2" d="M 726.4,30 726.4,70 737.7,58.7" />
<path stroke="#000000" stroke-width="2" d="M 744.3,70" />
<path stroke="#000000" stroke-width="2" d="M 744.3,25" />
<path stroke="#000000" stroke-width="2" d="M 744.3,25 746.4,24.9 748,24.6 749.2,24.1 750.1,23.6 750.7,22.9 751,22.2 751,21.4 750.8,20.7 750.5,20 750,19.4 749.4,18.9 748.7,18.5 747.9,18.3 747.2,18.4 746.5,18.7 745.8,19.2 745.2,20.1 744.8,21.4 744.5,23 744.3,25 744.3,40" />
<path stroke="#000000" stroke-width="2" d="M 781,70" />
<path stroke="#000000" stroke-width="2" d="M 781,30 821,30" />
<path stroke="#000000" stroke-width="2" d="M 827.7,70" />
<path stroke="#000000" stroke-width="2" d="M 827.7,50 827.7,70 827.7,70.7 827.7,71.4 827.8,72.1 828,72.8 828.3,73.4 828.6,74 828.9,74.6 829.3,75.2 829.8,75.8 830.3,76.2 830.8,76.7 831.4,77.1 832,77.4 832.6,77.7 833.3,78 833.9,78.2 834.6,78.3 835.3,78.3 836,78.3 836.7,78.3 837.4,78.2 838.1,78 838.7,77.7 839.4,77.4 840,77.1 840.5,76.7 841.1,76.2 841.6,75.8 842,75.2 842.4,74.6 842.8,74 843.1,73.4 843.3,72.8 843.5,72.1 843.6,71.4 843.7,70.7" />
<path stroke="#000000" stroke-width="2" d="M 850.3,70" />
<path stroke="#000000" stroke-width="2" d="M 850.3,50 850.3,70 850.3,64 850.3,63.1 850.4,62.3 850.5,61.4 850.8,60.6 851.1,59.7 851.4,58.9 851.9,58.2 852.4,57.5 852.9,56.8 853.6,56.2 854.2,55.6 854.9,55.1 855.7,54.7 856.5,54.3 857.3,54 858.1,53.8 859,53.6 859.9,53.6" />
<path stroke="#000000" stroke-width="2" d="M 889.9,70" />
<path stroke="#000000" stroke-width="2" d="M 889.9,30 889.9,70" />
<path stroke="#000000" stroke-width="2" d="M 896.5,70" />
<path stroke="#000000" stroke-width="2" d="M 896.5,40 896.5,39.3 896.6,38.6 896.7,37.9 896.9,37.2 897.1,36.6 897.4,36 897.8,35.4 898.2,34.8 898.6,34.2 899.1,33.8 899.7,33.3 900.2,32.9 900.8,32.6 901.5,32.3 902.1,32 902.8,31.8 903.5,31.7 904.2,31.7 904.9,31.7 905.6,31.7 906.3,31.8 906.9,32 907.6,32.3 908.2,32.6 908.8,32.9 909.4,33.3 909.9,33.8 910.4,34.2 910.9,34.8 911.3,35.4 911.6,36 911.9,36.6 912.2,37.2 912.3,37.9 912.5,38.6 912.5,39.3 913.4,39.3 914.3,39.4 915.1,39.5 916,39.8 916.8,40.1 917.6,40.4 918.3,40.9 919,41.4 919.7,41.9 920.3,42.5 920.9,43.2 921.4,43.9 921.8,44.7 922.2,45.5 922.5,46.3 922.7,47.1 922.9,48 923,48.9 923,49.7 922.9,50.6 922.7,51.5 922.5,52.3 922.2,53.1 921.8,53.9 921.4,54.7 920.9,55.4 920.3,56 919.7,56.7 919,57.2 918.3,57.7 917.6,58.2 916.8,58.5 916,58.8 915.1,59.1 914.3,59.2 913.4,59.3 913.4,58.4 913.5,57.5 913.6,56.7 913.9,55.8 914.1,55 914.5,54.2 915,53.5 915.5,52.8 916,52.1 916.6,51.5 917.3,50.9 918,50.4 918.8,50 919.6,49.6 920.4,49.3 921.2,49.1 922.1,48.9 923,48.9" />
<path stroke="#000000" stroke-width="2" d="M 929.6,70" />
<path stroke="#000000" stroke-width="2" d="M 937.6,50" />
<path stroke="#000000" stroke-width="2" d="M 937.6,50 937.5,52 937.2,53.6 936.8,54.9 936.2,55.8 935.5,56.3 934.8,56.6 934,56.7 933.3,56.5 932.6,56.1 932,55.6 931.5,55 931.1,54.3 931,53.6 931,52.8 931.3,52.1 931.9,51.4 932.7,50.9 934,50.4 935.6,50.1 937.6,50 947.6,50" />
<path stroke="#000000" stroke-width="2" d="M 977.6,70" />
<path stroke="#000000" stroke-width="2" d="M 997.6,70 999.4,70 1001.1,69.8 1002.8,69.5 1004.5,69.1 1006.1,68.5 1007.7,67.8 1009.2,66.9 1010.7,65.9 1012,64.8 1013.2,63.5 1014.4,62.2 1015.4,60.8 1016.2,59.3 1017,57.7 1017.6,56 1018,54.3 1018.3,52.6 1018.5,50.9 1018.5,49.1 1018.3,47.4 1018,45.7 1017.6,44 1017,42.4 1016.2,40.8 1015.4,39.3 1014.4,37.8 1013.2,36.5 1012,35.3 1010.7,34.2 1009.2,33.2 1007.7,32.3 1006.1,31.5 1004.5,30.9 1002.8,30.5 1001.1,30.2 999.4,30 997.6,30 995.9,30.2 994.2,30.5 992.5,30.9 990.8,31.5 989.3,32.3 987.7,33.2 986.3,34.2 985,35.3 983.7,36.5 982.6,37.8 981.6,39.3 980.8,40.8 980,42.4 979.4,44 979,45.7 978.7,47.4 978.5,49.1 978.5,50.9 978.7,52.6 979,54.3 979.4,56 980,57.7 980.8,59.3 981.6,60.8 982.6,62.2 983.7,63.5 985,64.8 986.3,65.9 987.7,66.9 989.3,67.8 990.8,68.5 992.5,69.1 994.2,69.5 995.9,69.8 997.6,70" />
<path stroke="#000000" stroke-width="2" d="M 1025.1,70" />
<path stroke="#000000" stroke-width="2" d="M 1035.1,20 1027.5,38.5" />
<path stroke="#000000" stroke-width="2" d="M 1065.1,70" />
<path stroke="#000000" stroke-width="2" d="M 1065.1,30 1075.1,30 1075.1,70" />
<path stroke="#000000" stroke-width="2" d="M 1081.8,70" />
<path stroke="#000000" stroke-width="2" d="M 1081.8,20 1082.7,20 1083.5,20.1 1084.4,20.2 1085.2,20.5 1086.1,20.8 1086.9,21.1 1087.6,21.6 1088.3,22.1 1089,22.6 1089.6,23.2 1090.2,23.9 1090.7,24.6 1091.1,25.4 1091.5,26.2 1091.8,27 1092,27.8 1092.2,28.7 1092.2,29.6 1092.2,30.4 1092.2,31.3 1092,32.2 1091.8,33 1091.5,33.8 1091.1,34.6 1090.7,35.4 1090.2,36.1 1089.6,36.7 1089,37.4 1088.3,37.9 1087.6,38.4 1086.9,38.9 1086.1,39.2 1085.2,39.5 1084.4,39.8 1083.5,39.9 1082.7,40" />
<path stroke="#000000" stroke-width="2" d="M 1098.9,70" />
<path stroke="#000000" stroke-width="2" d="M 1098.9,20 1099.8,20 1100.6,20.1 1101.5,20.2 1102.3,20.5 1103.2,20.8 1104,21.1 1104.7,21.6 1105.4,22.1 1106.1,22.6 1106.7,23.2 1107.3,23.9 1107.8,24.6 1108.2,25.4 1108.6,26.2 1108.9,27 1109.1,27.8 1109.2,28.7 1109.3,29.6 1109.3,30.4 1109.2,31.3 1109.1,32.2 1108.9,33 1108.6,33.8 1108.2,34.6 1107.8,35.4 1107.3,36.1 1106.7,36.7 1106.1,37.4 1105.4,37.9 1104.7,38.4 1104,38.9 1103.2,39.2 1102.3,39.5 1101.5,39.8 1100.6,39.9 1099.8,40" />
<path stroke="#000000" stroke-width="2" d="M 1139.3,70" />
<path stroke="#000000" stroke-width="2" d="M 1139.3,30 1159.3,30 1151.7,48.5 1171.7,48.5" />
<path stroke="#000000" stroke-width="2" d="M 1178.3,70" />
<path stroke="#000000" stroke-width="2" d="M 1190.3,56 1190.3,56.5 1190.3,57 1190.2,57.6 1190.1,58.1 1189.9,58.6 1189.7,59 1189.4,59.5 1189.1,59.9 1188.8,60.3 1188.4,60.7 1188,61 1187.6,61.3 1187.1,61.6 1186.6,61.8 1186.1,62 1185.6,62.1 1185.1,62.2 1184.6,62.3 1184.1,62.3 1183.6,62.2 1183,62.1 1182.5,62 1182,61.8 1181.6,61.6 1181.1,61.3 1180.7,61 1180.3,60.7 1179.9,60.3 1179.6,59.9 1179.3,59.5 1179,59 1178.8,58.6 1178.6,58.1 1178.5,57.6 1178.4,57 1178.3,56.5 1178.3,56 1178.4,55.5 1178.5,55 1178.6,54.5 1178.8,54 1179,53.5 1179.3,53 1179.6,52.6 1179.9,52.2 1180.3,51.8 1180.7,51.5 1181.1,51.2 1181.6,50.9 1182,50.7 1182.5,50.5 1183,50.4 1183.6,50.3 1184.1,50.3 1184.6,50.3 1185.1,50.3 1185.6,50.4 1186.1,50.5 1186.6,50.7 1187.1,50.9 1187.6,51.2 1188,51.5 1188.4,51.8 1188.8,52.2 1189.1,52.6 1189.4,53 1189.7,53.5 1189.9,54 1190.1,54.5 1190.2,55 1190.3,55.5 1190.3,56 1190.3,60" />
<path stroke="#000000" stroke-width="2" d="M 1190.3,60 1190,60.9 1189.7,61.7 1189.3,62.4 1188.9,63.1 1188.5,63.8 1188.1,64.4 1187.6,64.9 1187.1,65.4 1186.6,65.9 1186.1,66.2 1185.6,66.6 1185,66.9 1184.5,67.2 1183.9,67.4 1183.3,67.6 1182.7,67.7 1182.1,67.9 1181.5,67.9 1180.9,68 1180.3,68" />
<path stroke="#000000" stroke-width="2" d="M 1220.3,70" />
<path stroke="#000000" stroke-width="2" d="M 1220.3,70 1220.5,70 1220.5,70.2 1220.3,70.2 1220.3,70" />
<path stroke="#000000" stroke-width="2" d="M 1250.5,70" />
<path stroke="#000000" stroke-width="2" d="M 1260.5,50 1261.4,50 1262.3,49.9 1263.1,49.8 1264,49.5 1264.8,49.2 1265.6,48.9 1266.3,48.4 1267.1,47.9 1267.7,47.4 1268.3,46.8 1268.9,46.1 1269.4,45.4 1269.8,44.6 1270.2,43.8 1270.5,43 1270.7,42.2 1270.9,41.3 1271,40.4 1271,39.6 1270.9,38.7 1270.7,37.8 1270.5,37 1270.2,36.2 1269.8,35.4 1269.4,34.6 1268.9,33.9 1268.3,33.3 1267.7,32.6 1267.1,32.1 1266.3,31.6 1265.6,31.1 1264.8,30.8 1264,30.5 1263.1,30.2 1262.3,30.1 1261.4,30 1260.5,30 1259.7,30.1 1258.8,30.2 1258,30.5 1257.1,30.8 1256.4,31.1 1255.6,31.6 1254.9,32.1 1254.2,32.6 1253.6,33.3 1253,33.9 1252.5,34.6 1252.1,35.4 1251.7,36.2 1251.4,37 1251.2,37.8 1251.1,38.7 1251,39.6 1251,40.4 1251.1,41.3 1251.2,42.2 1251.4,43 1251.7,43.8 1252.1,44.6 1252.5,45.4 1253,46.1 1253.6,46.8 1254.2,47.4 1254.9,47.9 1255.6,48.4 1256.4,48.9 1257.1,49.2 1258,49.5 1258.8,49.8 1259.7,49.9 1260.5,50 1260.5,70 1260.5,64 1260.5,63.1 1260.6,62.3 1260.8,61.4 1261,60.6 1261.3,59.7 1261.7,58.9 1262.1,58.2 1262.6,57.5 1263.2,56.8 1263.8,56.2 1264.4,55.6 1265.2,55.1 1265.9,54.7 1266.7,54.3 1267.5,54 1268.4,53.8 1269.2,53.6 1270.1,53.6" />
<path stroke="#000000" stroke-width="2" d="M 1301,70" />
<path stroke="#000000" stroke-width="2" d="M 1301,30 1301,70 1312.3,58.7" />
<path stroke="#000000" stroke-width="2" d="M 1318.9,70" />
<path stroke="#000000" stroke-width="2" d="M 1318.9,20 1338.9,20 1319.1,39.8 1339.1,39.8" />
<path stroke="#000000" stroke-width="2" d="M 1369.1,70" />
</svg>