<svg xmlns="http://www.w3.org/2000/svg" width="1187.3075117593846" height="130.0677395031967" style="fill:none; stroke-linecap:round;">
    <rect width="100%" height="100%" fill="#FFFFFF" />
<path stroke="#000000" stroke-width="2" d="M 550,75" />
<path stroke="#000000" stroke-width="2" d="M 36,30 16.2,49.8 36,69.6" />
<path stroke="#000000" stroke-width="2" d="M 42.7,70" />
<path stroke="#000000" stroke-width="2" d="M 42.7,50 50.3,68.5" />
<path stroke="#000000" stroke-width="2" d="M 57,70" />
<path stroke="#000000" stroke-width="2" d="M 57,20 77,20" />
<path stroke="#000000" stroke-width="2" d="M 107,70" />
<path stroke="#000000" stroke-width="2" d="M 107,62 107.8,62 107.8,62.8 107,62.8 107,62" />
<path stroke="#000000" stroke-width="2" d="M 107,78" />
<path stroke="#000000" stroke-width="2" d="M 107,78 109.2,78.1 111.2,78.3 112.9,78.8 114.3,79.3 115.4,80.1 116.3,80.9 117,81.9 117.4,83 117.5,84.2 117.5,85.5 117.2,86.9 116.8,88.4 116.1,89.9 115.3,91.5 114.3,93.2 113.1,94.9 111.8,96.6 110.3,98.4 108.7,100.2 107,102" />
<path stroke="#000000" stroke-width="2" d="M 147.5,70" />
<path stroke="#000000" stroke-width="2" d="M 147.5,40 147.7,40 147.7,40.2 147.5,40.2 147.5,40" />
<path stroke="#000000" stroke-width="2" d="M 154.4,70" />
<path stroke="#000000" stroke-width="2" d="M 154.4,30 154.4,70 154.4,58 154.4,56.3 154.5,54.5 154.9,52.8 155.3,51.1 155.9,49.5 156.6,47.9 157.5,46.4 158.5,45 159.6,43.6 160.9,42.4 162.2,41.3 163.6,40.3 165.1,39.4 166.7,38.7 168.4,38.1 170,37.6 171.8,37.3 173.5,37.1" />
<path stroke="#000000" stroke-width="2" d="M 180.2,70" />
<path stroke="#000000" stroke-width="2" d="M 180.2,20 180.2,20.7 180.2,21.4 180.4,22.1 180.5,22.8 180.8,23.4 181.1,24 181.4,24.6 181.8,25.2 182.3,25.8 182.8,26.2 183.3,26.7 183.9,27.1 184.5,27.4 185.1,27.7 185.8,28 186.4,28.2 187.1,28.3 187.8,28.3 188.5,28.3 189.2,28.3 189.9,28.2 190.6,28 191.2,27.7 191.9,27.4 192.5,27.1 193,26.7 193.6,26.2 194.1,25.8 194.5,25.2 194.9,24.6 195.3,24 195.6,23.4 195.8,22.8 196,22.1 196.1,21.4 196.2,20.7" />
<path stroke="#000000" stroke-width="2" d="M 202.8,70" />
<path stroke="#000000" stroke-width="2" d="M 212.8,20 205.2,38.5" />
<path stroke="#000000" stroke-width="2" d="M 219.5,70" />
<path stroke="#000000" stroke-width="2" d="M 219.5,30 234.8,67 250.1,30" />
<path stroke="#000000" stroke-width="2" d="M 256.8,70" />
<path stroke="#000000" stroke-width="2" d="M 256.8,20 256.8,20.7 256.8,21.4 257,22.1 257.1,22.8 257.4,23.4 257.7,24 258,24.6 258.4,25.2 258.9,25.8 259.4,26.2 259.9,26.7 260.5,27.1 261.1,27.4 261.7,27.7 262.4,28 263,28.2 263.7,28.3 264.4,28.3 265.1,28.3 265.8,28.3 266.5,28.2 267.2,28 267.8,27.7 268.5,27.4 269.1,27.1 269.6,26.7 270.2,26.2 270.7,25.8 271.1,25.2 271.5,24.6 271.9,24 272.2,23.4 272.4,22.8 272.6,22.1 272.7,21.4 272.8,20.7" />
<path stroke="#000000" stroke-width="2" d="M 279.4,70" />
<path stroke="#000000" stroke-width="2" d="M 279.4,30 279.6,30 279.6,30.2 279.4,30.2 279.4,30" />
<path stroke="#000000" stroke-width="2" d="M 309.6,70" />
<path stroke="#000000" stroke-width="2" d="M 313.6,30 330.6,47" />
<path stroke="#000000" stroke-width="2" d="M 347.6,30 308,69.6 307.1,69.6 306.2,69.7 305.4,69.8 304.5,70.1 303.7,70.3 302.9,70.7 302.2,71.2 301.4,71.7 300.8,72.2 300.2,72.8 299.6,73.5 299.1,74.2 298.7,75 298.3,75.8 298,76.6 297.8,77.4 297.6,78.3 297.5,79.2 297.5,80 297.6,80.9 297.8,81.8 298,82.6 298.3,83.4 298.7,84.2 299.1,85 299.6,85.7 300.2,86.3 300.8,87 301.4,87.5 302.2,88 302.9,88.5 303.7,88.8 304.5,89.1 305.4,89.4 306.2,89.5 307.1,89.6 310.9,98.8" />
<path stroke="#000000" stroke-width="2" d="M 310.9,98.8 312.8,101 314.2,102.9 314.9,104.6 315.2,106 315.1,107.3 314.7,108.3 314,109.1 313.1,109.6 312,110 310.9,110.1 309.8,110 308.8,109.6 307.8,109.1 307.1,108.3 306.7,107.3 306.6,106 306.9,104.6 307.7,102.9 309,101 310.9,98.8 314.7,89.6 334.7,89.6 334.7,93.6 334.7,94.1 334.8,94.6 334.9,95.1 335,95.6 335.2,96.1 335.4,96.6 335.7,97.1 336,97.5 336.3,97.9 336.7,98.3 337.1,98.6 337.5,98.9 338,99.2 338.4,99.4 338.9,99.6 339.4,99.7 340,99.8 340.5,99.8 341,99.8 341.5,99.8 342,99.7 342.5,99.6 343,99.4 343.5,99.2 344,98.9 344.4,98.6 344.8,98.3 345.2,97.9 345.5,97.5 345.8,97.1 346.1,96.6 346.3,96.1 346.5,95.6 346.6,95.1 346.7,94.6 346.7,94.1 346.7,89.1 346.7,109.1" />
<path stroke="#000000" stroke-width="2" d="M 377.6,70" />
<path stroke="#000000" stroke-width="2" d="M 377.6,30 392.9,67" />
<path stroke="#000000" stroke-width="2" d="M 399.5,70" />
<path stroke="#000000" stroke-width="2" d="M 399.5,20 419.5,20" />
<path stroke="#000000" stroke-width="2" d="M 449.5,70" />
<path stroke="#000000" stroke-width="2" d="M 449.5,30 449.5,70 460.9,58.7" />
<path stroke="#000000" stroke-width="2" d="M 467.5,70" />
<path stroke="#000000" stroke-width="2" d="M 487.5,70 489.3,70 491,69.8 492.7,69.5 494.4,69.1 496,68.5 497.6,67.8 499.1,66.9 500.6,65.9 501.9,64.8 503.1,63.5 504.3,62.2 505.3,60.8 506.1,59.3 506.9,57.7 507.5,56 507.9,54.3 508.2,52.6 508.4,50.9 508.4,49.1 508.2,47.4 507.9,45.7 507.5,44 506.9,42.4 506.1,40.8 505.3,39.3 504.3,37.8 503.1,36.5 501.9,35.3 500.6,34.2 499.1,33.2 497.6,32.3 496,31.5 494.4,30.9 492.7,30.5 491,30.2 489.3,30 487.5,30 485.8,30.2 484.1,30.5 482.4,30.9 480.7,31.5 479.2,32.3 477.6,33.2 476.2,34.2 474.9,35.3 473.6,36.5 472.5,37.8 471.5,39.3 470.7,40.8 469.9,42.4 469.3,44 468.9,45.7 468.6,47.4 468.4,49.1 468.4,50.9 468.6,52.6 468.9,54.3 469.3,56 469.9,57.7 470.7,59.3 471.5,60.8 472.5,62.2 473.6,63.5 474.9,64.8 476.2,65.9 477.6,66.9 479.2,67.8 480.7,68.5 482.4,69.1 484.1,69.5 485.8,69.8 487.5,70" />
<path stroke="#000000" stroke-width="2" d="M 538.4,70" />
<path stroke="#000000" stroke-width="2" d="M 538.4,70 538.6,70 538.6,70.2 538.4,70.2 538.4,70" />
<path stroke="#000000" stroke-width="2" d="M 545.2,70" />
<path stroke="#000000" stroke-width="2" d="M 545.2,30 549.1,39.2" />
<path stroke="#000000" stroke-width="2" d="M 549.1,39.2 551,41.4 552.3,43.3 553.1,45 553.4,46.4 553.3,47.7 552.8,48.7 552.1,49.5 551.2,50 550.2,50.4 549.1,50.5 548,50.4 546.9,50 546,49.5 545.3,48.7 544.8,47.7 544.7,46.4 545,45 545.8,43.3 547.1,41.4 549.1,39.2 552.9,30 572.9,30 572.9,30.7 573,31.4 573.1,32.1 573.3,32.8 573.5,33.4 573.8,34 574.1,34.6 574.5,35.2 575,35.8 575.5,36.2 576,36.7 576.6,37.1 577.2,37.4 577.8,37.7 578.5,38 579.2,38.2 579.8,38.3 580.5,38.3 581.2,38.3 581.9,38.3 582.6,38.2 583.3,38 583.9,37.7 584.6,37.4 585.2,37.1 585.8,36.7 586.3,36.2 586.8,35.8 587.2,35.2 587.6,34.6 588,34 588.3,33.4 588.5,32.8 588.7,32.1 588.8,31.4 588.9,30.7" />
<path stroke="#000000" stroke-width="2" d="M 595.5,70" />
<path stroke="#000000" stroke-width="2" d="M 595.5,70 595.5,68.6 595.7,67.2 595.9,65.8 596.3,64.5 596.7,63.2 597.3,61.9 598,60.7 598.8,59.6 599.7,58.5 600.7,57.5 601.8,56.6 602.9,55.8 604.1,55.1 605.4,54.5 606.7,54 608.1,53.7 609.4,53.4 610.8,53.3 612.2,53.3 613.6,53.4 615,53.7 616.3,54 617.7,54.5 618.9,55.1 620.1,55.8 621.3,56.6 622.3,57.5 623.3,58.5 624.2,59.6 625,60.7 625.7,61.9 626.3,63.2 626.8,64.5 627.1,65.8 627.4,67.2 627.5,68.6" />
<path stroke="#000000" stroke-width="2" d="M 634.2,70" />
<path stroke="#000000" stroke-width="2" d="M 634.2,20 634.2,20.7 634.2,21.4 634.4,22.1 634.5,22.8 634.8,23.4 635.1,24 635.4,24.6 635.8,25.2 636.3,25.8 636.8,26.2 637.3,26.7 637.9,27.1 638.5,27.4 639.1,27.7 639.8,28 640.4,28.2 641.1,28.3 641.8,28.3 642.5,28.3 643.2,28.3 643.9,28.2 644.6,28 645.2,27.7 645.9,27.4 646.5,27.1 647,26.7 647.6,26.2 648.1,25.8 648.5,25.2 648.9,24.6 649.3,24 649.6,23.4 649.8,22.8 650,22.1 650.1,21.4 650.2,20.7" />
<path stroke="#000000" stroke-width="2" d="M 656.8,70" />
<path stroke="#000000" stroke-width="2" d="M 656.8,30 657,30 657,30.2 656.8,30.2 656.8,30" />
<path stroke="#000000" stroke-width="2" d="M 687,70" />
<path stroke="#000000" stroke-width="2" d="M 687,30 727,30" />
<path stroke="#000000" stroke-width="2" d="M 733.7,70" />
<path stroke="#000000" stroke-width="2" d="M 733.7,20 741.4,38.5" />
<path stroke="#000000" stroke-width="2" d="M 748,70" />
<path stroke="#000000" stroke-width="2" d="M 748,20 748.2,20 748.2,20.2 748,20.2 748,20" />
<path stroke="#000000" stroke-width="2" d="M 778.2,70" />
<path stroke="#000000" stroke-width="2" d="M 788.2,30 787.3,30 786.5,30.1 785.6,30.2 784.8,30.5 784,30.8 783.2,31.1 782.4,31.6 781.7,32.1 781,32.6 780.4,33.2 779.8,33.9 779.3,34.6 778.9,35.4 778.5,36.2 778.2,37 778,37.8 777.9,38.7 777.8,39.6 777.8,40.4 777.9,41.3 778,42.2 778.2,43 778.5,43.8 778.9,44.6 779.3,45.4 779.8,46.1 780.4,46.7 781,47.4 781.7,47.9 782.4,48.4 783.2,48.9 784,49.2 784.8,49.5 785.6,49.8 786.5,49.9 787.3,50 792.3,50 792.3,70" />
<path stroke="#000000" stroke-width="2" d="M 822.3,70" />
<path stroke="#000000" stroke-width="2" d="M 822.3,30 822.3,31.4 822.5,32.8 822.7,34.2 823.1,35.5 823.5,36.8 824.1,38.1 824.8,39.3 825.6,40.4 826.5,41.5 827.5,42.5 828.6,43.4 829.7,44.2 830.9,44.9 832.2,45.5 833.5,46 834.9,46.3 836.2,46.6 837.6,46.7 839,46.7 840.4,46.6 841.8,46.3 843.1,46 844.5,45.5 845.7,44.9 846.9,44.2 848.1,43.4 849.1,42.5 850.1,41.5 851,40.4 851.8,39.3 852.5,38.1 853.1,36.8 853.6,35.5 854,34.2 854.2,32.8 854.3,31.4" />
<path stroke="#000000" stroke-width="2" d="M 861,70" />
<path stroke="#000000" stroke-width="2" d="M 861,20 861,40 861,34 861,33.1 861.1,32.3 861.2,31.4 861.4,30.6 861.7,29.7 862.1,28.9 862.5,28.2 863,27.5 863.6,26.8 864.2,26.2 864.9,25.6 865.6,25.1 866.4,24.7 867.1,24.3 868,24 868.8,23.8 869.7,23.6 870.5,23.6" />
<path stroke="#000000" stroke-width="2" d="M 877.2,70" />
<path stroke="#000000" stroke-width="2" d="M 877.2,50 877.4,50 877.4,50.2 877.2,50.2 877.2,50" />
<path stroke="#000000" stroke-width="2" d="M 907.4,70" />
<path stroke="#000000" stroke-width="2" d="M 907.4,70" />
<path stroke="#000000" stroke-width="2" d="M 907.4,70 908.5,70 909.5,70.2 910.3,70.4 911.1,70.7 911.6,71 912.1,71.5 912.4,71.9 912.6,72.5 912.7,73.1 912.7,73.8 912.5,74.4 912.3,75.2 912,76 911.6,76.8 911.1,77.6 910.5,78.4 909.8,79.3 909.1,80.2 908.3,81.1 907.4,82" />
<path stroke="#000000" stroke-width="2" d="M 942.7,70" />
<path stroke="#000000" stroke-width="2" d="M 958.7,30 958.7,60" />
<path stroke="#000000" stroke-width="2" d="M 958.7,60 958.5,64.1 957.9,67.3 957,69.8 955.8,71.5 954.5,72.7 953,73.2 951.5,73.3 950,73 948.7,72.3 947.4,71.2 946.4,70 945.7,68.6 945.4,67.2 945.4,65.7 946,64.2 947.2,62.9 948.9,61.7 951.4,60.8 954.6,60.2 958.7,60" />
<path stroke="#000000" stroke-width="2" d="M 965.3,70" />
<path stroke="#000000" stroke-width="2" d="M 965.3,50 965.3,70 965.3,64 965.3,63.1 965.4,62.3 965.6,61.4 965.8,60.6 966.1,59.7 966.5,58.9 966.9,58.2 967.4,57.5 968,56.8 968.6,56.2 969.2,55.6 970,55.1 970.7,54.7 971.5,54.3 972.3,54 973.2,53.8 974,53.6 974.9,53.6 967.2,72.1" />
<path stroke="#000000" stroke-width="2" d="M 1004.9,70" />
<path stroke="#000000" stroke-width="2" d="M 1004.9,30 1014.9,30 1014.9,70" />
<path stroke="#000000" stroke-width="2" d="M 1021.6,70" />
<path stroke="#000000" stroke-width="2" d="M 1021.6,50 1021.6,70 1021.6,64 1021.6,63.1 1021.6,62.3 1021.8,61.4 1022,60.6 1022.3,59.7 1022.7,58.9 1023.1,58.2 1023.6,57.5 1024.2,56.8 1024.8,56.2 1025.5,55.6 1026.2,55.1 1026.9,54.7 1027.7,54.3 1028.5,54 1029.4,53.8 1030.2,53.6 1031.1,53.6" />
<path stroke="#000000" stroke-width="2" d="M 1061.1,70" />
<path stroke="#000000" stroke-width="2" d="M 1061.1,30 1061.1,70" />
<path stroke="#000000" stroke-width="2" d="M 1067.8,70" />
<path stroke="#000000" stroke-width="2" d="M 1067.8,20 1067.8,20.7 1067.8,21.4 1068,22.1 1068.1,22.8 1068.4,23.4 1068.7,24 1069,24.6 1069.4,25.2 1069.9,25.8 1070.4,26.2 1070.9,26.7 1071.5,27.1 1072.1,27.4 1072.7,27.7 1073.4,28 1074,28.2 1074.7,28.3 1075.4,28.3 1076.1,28.3 1076.8,28.3 1077.5,28.2 1078.2,28 1078.8,27.7 1079.5,27.4 1080.1,27.1 1080.6,26.7 1081.2,26.2 1081.7,25.8 1082.1,25.2 1082.5,24.6 1082.9,24 1083.2,23.4 1083.4,22.8 1083.6,22.1 1083.7,21.4 1083.8,20.7 1083.8,21.4 1083.8,22.1 1084,22.8 1084.1,23.5 1084.4,24.1 1084.7,24.7 1085,25.3 1085.4,25.9 1085.9,26.5 1086.4,26.9 1086.9,27.4 1087.5,27.8 1088.1,28.1 1088.7,28.4 1089.4,28.7 1090,28.9 1090.7,29 1091.4,29 1092.1,29 1092.8,29 1093.5,28.9 1094.2,28.7 1094.8,28.4 1095.5,28.1 1096.1,27.8 1096.6,27.4 1097.2,26.9 1097.7,26.5 1098.1,25.9 1098.5,25.3 1098.9,24.7 1099.2,24.1 1099.4,23.5 1099.6,22.8 1099.7,22.1 1099.8,21.4" />
<path stroke="#000000" stroke-width="2" d="M 1106.4,70" />
<path stroke="#000000" stroke-width="2" d="M 1106.4,20 1106.4,40 1106.4,34 1106.4,33.1 1106.5,32.3 1106.6,31.4 1106.9,30.6 1107.2,29.7 1107.5,28.9 1108,28.2 1108.5,27.5 1109,26.8 1109.7,26.2 1110.3,25.6 1111,25.1 1111.8,24.7 1112.6,24.3 1113.4,24 1114.2,23.8 1115.1,23.6 1116,23.6" />
<path stroke="#000000" stroke-width="2" d="M 1122.6,70" />
<path stroke="#000000" stroke-width="2" d="M 1130.6,50" />
<path stroke="#000000" stroke-width="2" d="M 1130.6,50 1130.5,52 1130.2,53.6 1129.8,54.9 1129.2,55.8 1128.5,56.3 1127.8,56.6 1127.1,56.7 1126.3,56.5 1125.6,56.1 1125,55.6 1124.5,55 1124.2,54.3 1124,53.6 1124,52.8 1124.3,52.1 1124.9,51.4 1125.8,50.9 1127,50.4 1128.6,50.1 1130.6,50 1140.6,50 1130.7,59.9 1140.6,69.8" />
<path stroke="#000000" stroke-width="2" d="M 1147.3,70" />
<path stroke="#000000" stroke-width="2" d="M 1147.3,50 1167.3,50" />
<path stroke="#000000" stroke-width="2" d="M 1197.3,70" />
</svg>