<svg xmlns="http://www.w3.org/2000/svg" width="1375.0735502651748" height="103.77968045238036" style="fill:none; stroke-linecap:round;">
    <rect width="100%" height="100%" fill="#FFFFFF" />
<path stroke="#000000" stroke-width="2" d="M 550,75" />
<path stroke="#000000" stroke-width="2" d="M 20,30 20,70 40,70" />
<path stroke="#000000" stroke-width="2" d="M 70,70" />
<path stroke="#000000" stroke-width="2" d="M 70,30 70,70" />
<path stroke="#000000" stroke-width="2" d="M 76.7,70" />
<path stroke="#000000" stroke-width="2" d="M 76.7,20 76.7,24 76.7,24.5 76.7,25 76.8,25.6 76.9,26.1 77.1,26.6 77.3,27 77.6,27.5 77.9,27.9 78.2,28.3 78.6,28.7 79,29 79.4,29.3 79.9,29.6 80.4,29.8 80.9,30 81.4,30.1 81.9,30.2 82.4,30.3 82.9,30.3 83.4,30.2 84,30.1 84.5,30 85,29.8 85.4,29.6 85.9,29.3 86.3,29 86.7,28.7 87.1,28.3 87.4,27.9 87.7,27.5 88,27 88.2,26.6 88.4,26.1 88.5,25.6 88.6,25 88.7,24.5 88.7,19.5 88.7,39.5" />
<path stroke="#000000" stroke-width="2" d="M 95.3,70" />
<path stroke="#000000" stroke-width="2" d="M 95.3,20 115.3,20" />
<path stroke="#000000" stroke-width="2" d="M 145.3,70" />
<path stroke="#000000" stroke-width="2" d="M 165.3,30 150,67" />
<path stroke="#000000" stroke-width="2" d="M 172,70" />
<path stroke="#000000" stroke-width="2" d="M 172,70 172,69.3 172,68.6 172.2,67.9 172.4,67.2 172.6,66.6 172.9,66 173.2,65.4 173.6,64.8 174.1,64.2 174.6,63.8 175.1,63.3 175.7,62.9 176.3,62.6 176.9,62.3 177.6,62 178.2,61.8 178.9,61.7 179.6,61.7 180.3,61.7 181,61.7 181.7,61.8 182.4,62 183,62.3 183.7,62.6 184.3,62.9 184.9,63.3 185.4,63.8 185.9,64.2 186.3,64.8 186.7,65.4 187.1,66 187.4,66.6 187.6,67.2 187.8,67.9 187.9,68.6 188,69.3" />
<path stroke="#000000" stroke-width="2" d="M 188,65.3" />
<path stroke="#000000" stroke-width="2" d="M 182,65.3 192,65.3 184.3,83.8" />
<path stroke="#000000" stroke-width="2" d="M 198.6,70" />
<path stroke="#000000" stroke-width="2" d="M 198.6,20 206.3,38.5" />
<path stroke="#000000" stroke-width="2" d="M 206.3,38.5 206.2,36.4 205.9,34.8 205.4,33.6 204.9,32.7 204.2,32.1 203.5,31.9 202.7,31.8 202,32 201.3,32.4 200.7,32.9 200.2,33.5 199.8,34.2 199.6,34.9 199.7,35.6 200,36.4 200.5,37 201.4,37.6 202.6,38.1 204.3,38.4 206.3,38.5 210.3,38.5" />
<path stroke="#000000" stroke-width="2" d="M 210.3,38.5 211.2,38.2 212,37.8 212.7,37.4 213.4,37.1 214.1,36.6 214.7,36.2 215.2,35.7 215.7,35.2 216.1,34.7 216.5,34.2 216.9,33.7 217.2,33.1 217.5,32.6 217.7,32 217.9,31.4 218,30.9 218.2,30.3 218.2,29.7 218.3,29.1 218.3,28.5" />
<path stroke="#000000" stroke-width="2" d="M 225,70" />
<path stroke="#000000" stroke-width="2" d="M 235,20 227.3,38.5" />
<path stroke="#000000" stroke-width="2" d="M 265,70" />
<path stroke="#000000" stroke-width="2" d="M 265,30 265,70 276.3,58.7" />
<path stroke="#000000" stroke-width="2" d="M 282.9,70" />
<path stroke="#000000" stroke-width="2" d="M 292.9,20 285.3,38.5" />
<path stroke="#000000" stroke-width="2" d="M 322.9,70" />
<path stroke="#000000" stroke-width="2" d="M 342.9,30 327.6,67" />
<path stroke="#000000" stroke-width="2" d="M 349.6,70" />
<path stroke="#000000" stroke-width="2" d="M 349.6,50" />
<path stroke="#000000" stroke-width="2" d="M 349.6,50 351,50.1 352.3,50.6 353.4,51.2 354.4,52.1 355.2,53.1 355.9,54.3 356.4,55.6 356.8,57 357,58.5 357.1,60 357,61.5 356.8,63 356.4,64.4 355.9,65.7 355.2,66.9 354.4,67.9 353.4,68.8 352.3,69.4 351,69.9 349.6,70" />
<path stroke="#000000" stroke-width="2" d="M 363.8,70" />
<path stroke="#000000" stroke-width="2" d="M 363.8,50 383.8,50" />
<path stroke="#000000" stroke-width="2" d="M 390.4,70" />
<path stroke="#000000" stroke-width="2" d="M 410.4,20 390.6,39.8" />
<path stroke="#000000" stroke-width="2" d="M 390.6,19.8 410.4,39.6 402.8,58.1" />
<path stroke="#000000" stroke-width="2" d="M 440.4,70" />
<path stroke="#000000" stroke-width="2" d="M 440.4,30 440.4,70 451.8,58.7" />
<path stroke="#000000" stroke-width="2" d="M 458.4,70" />
<path stroke="#000000" stroke-width="2" d="M 458.4,20 478.4,20" />
<path stroke="#000000" stroke-width="2" d="M 508.4,70" />
<path stroke="#000000" stroke-width="2" d="M 508.4,30 508.4,70 528.4,70" />
<path stroke="#000000" stroke-width="2" d="M 558.4,70" />
<path stroke="#000000" stroke-width="2" d="M 558.4,30 558.4,70 569.7,58.7" />
<path stroke="#000000" stroke-width="2" d="M 576.4,70" />
<path stroke="#000000" stroke-width="2" d="M 576.4,25" />
<path stroke="#000000" stroke-width="2" d="M 576.4,25 578.4,24.9 580,24.6 581.3,24.1 582.2,23.6 582.7,22.9 583,22.2 583.1,21.4 582.9,20.7 582.5,20 582,19.4 581.4,18.9 580.7,18.5 580,18.3 579.2,18.4 578.5,18.7 577.8,19.2 577.3,20.1 576.8,21.4 576.5,23 576.4,25 576.4,40" />
<path stroke="#000000" stroke-width="2" d="M 613.1,70" />
<path stroke="#000000" stroke-width="2" d="M 613.1,30 613.1,50 613.1,50.7 613.1,51.4 613.2,52.1 613.4,52.8 613.7,53.4 614,54 614.3,54.6 614.7,55.2 615.2,55.8 615.6,56.2 616.2,56.7 616.7,57.1 617.4,57.4 618,57.7 618.6,58 619.3,58.2 620,58.3 620.7,58.3 621.4,58.3 622.1,58.3 622.8,58.2 623.5,58 624.1,57.7 624.7,57.4 625.3,57.1 625.9,56.7 626.5,56.2 626.9,55.8 627.4,55.2 627.8,54.6 628.1,54 628.4,53.4 628.7,52.8 628.9,52.1 629,51.4 629,50.7" />
<path stroke="#000000" stroke-width="2" d="M 635.7,70" />
<path stroke="#000000" stroke-width="2" d="M 635.7,30 655.7,30" />
<path stroke="#000000" stroke-width="2" d="M 655.7,30 657.1,30.1 658.4,30.6 659.5,31.2 660.5,32.1 661.3,33.1 662,34.3 662.5,35.6 662.9,37 663.1,38.5 663.2,40 663.1,41.5 662.9,43 662.5,44.4 662,45.7 661.3,46.9 660.5,47.9 659.5,48.8 658.4,49.4 657.1,49.9 655.7,50" />
<path stroke="#000000" stroke-width="2" d="M 655.7,50 657.1,50.1 658.4,50.6 659.5,51.2 660.5,52.1 661.3,53.1 662,54.3 662.5,55.6 662.9,57 663.1,58.5 663.2,60 663.1,61.5 662.9,63 662.5,64.4 662,65.7 661.3,66.9 660.5,67.9 659.5,68.8 658.4,69.4 657.1,69.9 655.7,70" />
<path stroke="#000000" stroke-width="2" d="M 693.2,70" />
<path stroke="#000000" stroke-width="2" d="M 693.2,30 693.2,70" />
<path stroke="#000000" stroke-width="2" d="M 699.9,70" />
<path stroke="#000000" stroke-width="2" d="M 699.9,30 700.1,30 700.1,30.2 699.9,30.2 699.9,30" />
<path stroke="#000000" stroke-width="2" d="M 730.1,70" />
<path stroke="#000000" stroke-width="2" d="M 730.1,40 730.3,40 730.3,40.2 730.1,40.2 730.1,40" />
<path stroke="#000000" stroke-width="2" d="M 736.9,70" />
<path stroke="#000000" stroke-width="2" d="M 736.9,30 736.9,70 736.9,62 736.9,60.3 737.1,58.5 737.4,56.8 737.8,55.1 738.4,53.5 739.2,51.9 740.1,50.4 741.1,49 742.2,47.6 743.4,46.4 744.7,45.3 746.2,44.3" />
<path stroke="#000000" stroke-width="2" d="M 752.8,70" />
<path stroke="#000000" stroke-width="2" d="M 772.8,30 757.5,67" />
<path stroke="#000000" stroke-width="2" d="M 802.8,70" />
<path stroke="#000000" stroke-width="2" d="M 802.8,30 807.8,30 807.8,50 807.8,50.7 807.9,51.4 808,52.1 808.2,52.8 808.4,53.4 808.7,54 809.1,54.6 809.5,55.2 809.9,55.8 810.4,56.2 811,56.7 811.5,57.1 812.1,57.4 812.8,57.7 813.4,58 814.1,58.2 814.8,58.3 815.5,58.3 816.2,58.3 816.9,58.3 817.6,58.2 818.2,58 818.9,57.7 819.5,57.4 820.1,57.1 820.7,56.7 821.2,56.2 821.7,55.8 822.2,55.2 822.6,54.6 822.9,54 823.2,53.4 823.5,52.8 823.6,52.1 823.8,51.4 823.8,50.7" />
<path stroke="#000000" stroke-width="2" d="M 830.5,70" />
<path stroke="#000000" stroke-width="2" d="M 838.5,20 838.5,35" />
<path stroke="#000000" stroke-width="2" d="M 838.5,35 838.4,37 838.1,38.6 837.6,39.9 837.1,40.8 836.4,41.3 835.7,41.6 834.9,41.7 834.2,41.5 833.5,41.1 832.9,40.6 832.4,40 832,39.3 831.8,38.6 831.9,37.8 832.2,37.1 832.7,36.4 833.6,35.9 834.8,35.4 836.5,35.1 838.5,35" />
<path stroke="#000000" stroke-width="2" d="M 868.5,70" />
<path stroke="#000000" stroke-width="2" d="M 878.5,30 877.6,30 876.8,30.1 875.9,30.2 875.1,30.5 874.2,30.8 873.4,31.1 872.7,31.6 872,32.1 871.3,32.6 870.7,33.2 870.1,33.9 869.6,34.6 869.2,35.4 868.8,36.2 868.5,37 868.3,37.8 868.1,38.7 868.1,39.6 868.1,40.4 868.1,41.3 868.3,42.2 868.5,43 868.8,43.8 869.2,44.6 869.6,45.4 870.1,46.1 870.7,46.7 871.3,47.4 872,47.9 872.7,48.4 873.4,48.9 874.2,49.2 875.1,49.5 875.9,49.8 876.8,49.9 877.6,50 882.6,50 882.6,70" />
<path stroke="#000000" stroke-width="2" d="M 912.6,70" />
<path stroke="#000000" stroke-width="2" d="M 912.6,30 912.6,31.4 912.7,32.8 913,34.2 913.3,35.5 913.8,36.8 914.4,38.1 915.1,39.3 915.9,40.4 916.8,41.5 917.8,42.5 918.9,43.4 920,44.2 921.2,44.9 922.5,45.5 923.8,46 925.1,46.3 926.5,46.6 927.9,46.7 929.3,46.7 930.7,46.6 932.1,46.3 933.4,46 934.7,45.5 936,44.9 937.2,44.2 938.3,43.4 939.4,42.5 940.4,41.5 941.3,40.4 942.1,39.3 942.8,38.1 943.4,36.8 943.9,35.5 944.2,34.2 944.5,32.8 944.6,31.4" />
<path stroke="#000000" stroke-width="2" d="M 951.3,70" />
<path stroke="#000000" stroke-width="2" d="M 971.3,30 956,67" />
<path stroke="#000000" stroke-width="2" d="M 1001.3,70" />
<path stroke="#000000" stroke-width="2" d="M 1001.3,70 1001.5,70 1001.5,70.2 1001.3,70.2 1001.3,70" />
<path stroke="#000000" stroke-width="2" d="M 1031.5,70" />
<path stroke="#000000" stroke-width="2" d="M 1031.5,30 1031.5,50 1041.5,50 1033.8,68.5" />
<path stroke="#000000" stroke-width="2" d="M 1071.5,70" />
<path stroke="#000000" stroke-width="2" d="M 1071.5,30" />
<path stroke="#000000" stroke-width="2" d="M 1071.5,30 1074.3,30.3 1076.9,31.1 1079.1,32.4 1081.1,34.2 1082.7,36.2 1084.1,38.6 1085.1,41.3 1085.9,44.1 1086.3,47 1086.5,50 1086.3,53 1085.9,55.9 1085.1,58.7 1084.1,61.4 1082.7,63.8 1081.1,65.8 1079.1,67.6 1076.9,68.9 1074.3,69.7 1071.5,70" />
<path stroke="#000000" stroke-width="2" d="M 1093.1,70" />
<path stroke="#000000" stroke-width="2" d="M 1093.1,30 1100.8,48.5" />
<path stroke="#000000" stroke-width="2" d="M 1100.8,48.5 1102.2,48.6 1103.5,49 1104.6,49.7 1105.6,50.6 1106.4,51.6 1107.1,52.8 1107.6,54.1 1108,55.5 1108.2,57 1108.3,58.5 1108.2,60 1108,61.4 1107.6,62.8 1107.1,64.2 1106.4,65.4 1105.6,66.4 1104.6,67.3 1103.5,67.9 1102.2,68.3 1100.8,68.5" />
<path stroke="#000000" stroke-width="2" d="M 1138.3,70" />
<path stroke="#000000" stroke-width="2" d="M 1138.3,50 1145.9,31.5 1150.9,31.5 1150.9,51.5 1143.3,70 1145.6,64.5 1145.9,63.7 1146.3,62.9 1146.8,62.1 1147.3,61.4 1147.9,60.8 1148.5,60.2 1149.2,59.7 1150,59.2 1150.7,58.8 1151.6,58.5 1152.4,58.2 1153.2,58" />
<path stroke="#000000" stroke-width="2" d="M 1183.2,70" />
<path stroke="#000000" stroke-width="2" d="M 1183.2,40 1183.4,40 1183.4,40.2 1183.2,40.2 1183.2,40" />
<path stroke="#000000" stroke-width="2" d="M 1190.1,70" />
<path stroke="#000000" stroke-width="2" d="M 1190.1,30 1200.1,30 1200.1,70" />
<path stroke="#000000" stroke-width="2" d="M 1206.8,70" />
<path stroke="#000000" stroke-width="2" d="M 1206.8,55" />
<path stroke="#000000" stroke-width="2" d="M 1206.8,55 1208.8,54.9 1210.4,54.6 1211.6,54.1 1212.5,53.6 1213.1,52.9 1213.4,52.2 1213.4,51.4 1213.2,50.7 1212.9,50 1212.4,49.4 1211.8,48.9 1211.1,48.5 1210.4,48.3 1209.6,48.4 1208.9,48.7 1208.2,49.2 1207.6,50.1 1207.2,51.4 1206.9,53 1206.8,55 1206.8,70" />
<path stroke="#000000" stroke-width="2" d="M 1220.1,70" />
<path stroke="#000000" stroke-width="2" d="M 1220.1,40 1220.1,39.3 1220.1,38.6 1220.3,37.9 1220.5,37.2 1220.7,36.6 1221,36 1221.3,35.4 1221.7,34.8 1222.2,34.2 1222.7,33.8 1223.2,33.3 1223.8,32.9 1224.4,32.6 1225,32.3 1225.7,32 1226.3,31.8 1227,31.7 1227.7,31.7 1228.4,31.7 1229.1,31.7 1229.8,31.8 1230.5,32 1231.1,32.3 1231.8,32.6 1232.4,32.9 1233,33.3 1233.5,33.8 1234,34.2 1234.4,34.8 1234.8,35.4 1235.2,36 1235.5,36.6 1235.7,37.2 1235.9,37.9 1236,38.6 1236.1,39.3" />
<path stroke="#000000" stroke-width="2" d="M 1236.1,35.3" />
<path stroke="#000000" stroke-width="2" d="M 1230.1,35.3 1240.1,35.3" />
<path stroke="#000000" stroke-width="2" d="M 1240.1,35.3 1241.5,35.4 1242.8,35.9 1243.9,36.5 1244.9,37.4 1245.7,38.4 1246.4,39.6 1246.9,40.9 1247.3,42.3 1247.5,43.8 1247.6,45.3 1247.5,46.8 1247.3,48.3 1246.9,49.7 1246.4,51 1245.7,52.2 1244.9,53.2 1243.9,54.1 1242.8,54.7 1241.5,55.2 1240.1,55.3" />
<path stroke="#000000" stroke-width="2" d="M 1240.1,55.3 1242.1,55.2 1243.7,54.9 1245,54.4 1245.8,53.9 1246.4,53.2 1246.7,52.5 1246.7,51.7 1246.6,51 1246.2,50.3 1245.7,49.7 1245.1,49.2 1244.4,48.8 1243.7,48.6 1242.9,48.7 1242.2,49 1241.5,49.5 1240.9,50.4 1240.5,51.7 1240.2,53.3 1240.1,55.3 1240.1,70.3" />
<path stroke="#000000" stroke-width="2" d="M 1277.6,70" />
<path stroke="#000000" stroke-width="2" d="M 1277.6,30 1297.6,30" />
<path stroke="#000000" stroke-width="2" d="M 1297.6,30 1299,30.1 1300.3,30.6 1301.4,31.2 1302.4,32.1 1303.2,33.1 1303.9,34.3 1304.4,35.6 1304.8,37 1305,38.5 1305.1,40 1305,41.5 1304.8,43 1304.4,44.4 1303.9,45.7 1303.2,46.9 1302.4,47.9 1301.4,48.8 1300.3,49.4 1299,49.9 1297.6,50" />
<path stroke="#000000" stroke-width="2" d="M 1335.1,70" />
<path stroke="#000000" stroke-width="2" d="M 1335.1,30 1335.1,70 1355.1,70" />
<path stroke="#000000" stroke-width="2" d="M 1385.1,70" />
</svg>