<svg xmlns="http://www.w3.org/2000/svg" width="1533.7460708560839" height="116.50643735829262" style="fill:none; stroke-linecap:round;">
    <rect width="100%" height="100%" fill="#FFFFFF" />
<path stroke="#000000" stroke-width="2" d="M 550,75" />
<path stroke="#000000" stroke-width="2" d="M 20,30 21.7,30 23.5,30.2 25.2,30.5 26.9,30.9 28.5,31.5 30.1,32.2 31.6,33.1 33,34.1 34.4,35.2 35.6,36.5 36.7,37.8 37.7,39.2 38.6,40.7 39.3,42.3 39.9,44 40.4,45.7 40.7,47.4 40.9,49.1 40.9,50.9 40.7,52.6 40.4,54.3 39.9,56 39.3,57.6 38.6,59.2 37.7,60.7 36.7,62.2 35.6,63.5 34.4,64.7 33,65.8 31.6,66.8 30.1,67.7 28.5,68.5 26.9,69.1 25.2,69.5 23.5,69.8 21.7,70" />
<path stroke="#000000" stroke-width="2" d="M 47.5,70" />
<path stroke="#000000" stroke-width="2" d="M 47.5,20 48.4,20 49.3,20.1 50.1,20.2 51,20.5 51.8,20.8 52.6,21.1 53.3,21.6 54,22.1 54.7,22.6 55.3,23.2 55.9,23.9 56.4,24.6 56.8,25.4 57.2,26.2 57.5,27 57.7,27.8 57.9,28.7 57.9,29.6 57.9,30.4 57.9,31.3 57.7,32.2 57.5,33 57.2,33.8 56.8,34.6 56.4,35.4 55.9,36.1 55.3,36.7 54.7,37.4 54,37.9 53.3,38.4 52.6,38.9 51.8,39.2 51,39.5 50.1,39.8 49.3,39.9 48.4,40" />
<path stroke="#000000" stroke-width="2" d="M 87.9,70" />
<path stroke="#000000" stroke-width="2" d="M 87.9,30 97.9,30 97.9,70" />
<path stroke="#000000" stroke-width="2" d="M 104.6,70" />
<path stroke="#000000" stroke-width="2" d="M 104.6,50 104.6,70 104.6,64 104.6,63.1 104.7,62.3 104.8,61.4 105.1,60.6 105.4,59.7 105.7,58.9 106.2,58.2 106.7,57.5 107.2,56.8 107.8,56.2 108.5,55.6 109.2,55.1 110,54.7 110.8,54.3 111.6,54 112.4,53.8 113.3,53.6 114.2,53.6" />
<path stroke="#000000" stroke-width="2" d="M 144.2,70" />
<path stroke="#000000" stroke-width="2" d="M 164.2,30 164.2,70 144.2,70" />
<path stroke="#000000" stroke-width="2" d="M 170.8,70" />
<path stroke="#000000" stroke-width="2" d="M 170.8,55" />
<path stroke="#000000" stroke-width="2" d="M 170.8,55 172.9,54.9 174.5,54.6 175.7,54.1 176.6,53.6 177.2,52.9 177.4,52.2 177.5,51.4 177.3,50.7 177,50 176.5,49.4 175.8,48.9 175.2,48.5 174.4,48.3 173.7,48.4 172.9,48.7 172.3,49.2 171.7,50.1 171.2,51.4 170.9,53 170.8,55 170.8,70 163.2,88.5" />
<path stroke="#000000" stroke-width="2" d="M 207.5,70" />
<path stroke="#000000" stroke-width="2" d="M 227.5,30 225.7,30 224,30.2 222.3,30.5 220.6,30.9 219,31.5 217.4,32.2 215.9,33.1 214.4,34.1 213.1,35.2 211.9,36.5 210.7,37.8 209.7,39.2 208.9,40.7 208.1,42.3 207.5,44 207.1,45.7 206.8,47.4 206.6,49.1 206.6,50.9 206.8,52.6 207.1,54.3 207.5,56 208.1,57.6 208.9,59.2 209.7,60.7 210.7,62.2 211.9,63.5 213.1,64.7 214.4,65.8 215.9,66.8 217.4,67.7 219,68.5 220.6,69.1 222.3,69.5 224,69.8 225.7,70" />
<path stroke="#000000" stroke-width="2" d="M 225.7,50" />
<path stroke="#000000" stroke-width="2" d="M 193.7,50 233.7,50" />
<path stroke="#000000" stroke-width="2" d="M 263.7,70" />
<path stroke="#000000" stroke-width="2" d="M 263.7,30 273.7,30 273.7,70" />
<path stroke="#000000" stroke-width="2" d="M 280.4,70" />
<path stroke="#000000" stroke-width="2" d="M 280.4,30 295.7,67 311,30" />
<path stroke="#000000" stroke-width="2" d="M 341,70" />
<path stroke="#000000" stroke-width="2" d="M 341,30 356.3,67" />
<path stroke="#000000" stroke-width="2" d="M 363,70" />
<path stroke="#000000" stroke-width="2" d="M 363,30 403,30" />
<path stroke="#000000" stroke-width="2" d="M 409.7,70" />
<path stroke="#000000" stroke-width="2" d="M 419.7,50 412,68.5" />
<path stroke="#000000" stroke-width="2" d="M 412,68.5 414,68.4 415.7,68.1 416.9,67.6 417.8,67 418.3,66.4 418.6,65.6 418.7,64.9 418.5,64.2 418.1,63.5 417.6,62.9 417,62.4 416.3,62 415.6,61.8 414.8,61.9 414.1,62.1 413.5,62.7 412.9,63.6 412.4,64.8 412.1,66.4 412,68.5 412,83.5" />
<path stroke="#000000" stroke-width="2" d="M 449.7,70" />
<path stroke="#000000" stroke-width="2" d="M 449.7,30 469.7,30 470.5,30 471.4,30.1 472.3,30.2 473.1,30.5 473.9,30.8 474.7,31.1 475.5,31.6 476.2,32.1 476.9,32.6 477.5,33.2 478,33.9 478.5,34.6 479,35.4 479.3,36.2 479.6,37 479.9,37.8 480,38.7 480.1,39.6 480.1,40.4 480,41.3 479.9,42.2 479.6,43 479.3,43.8 479,44.6 478.5,45.4 478,46.1 477.5,46.7 476.9,47.4 476.2,47.9 475.5,48.4 474.7,48.9 473.9,49.2 473.1,49.5 472.3,49.8 471.4,49.9 470.5,50" />
<path stroke="#000000" stroke-width="2" d="M 510.1,70" />
<path stroke="#000000" stroke-width="2" d="M 530.1,70 531.8,70 533.6,69.8 535.3,69.5 537,69.1 538.6,68.5 540.2,67.8 541.7,66.9 543.1,65.9 544.5,64.8 545.7,63.5 546.8,62.2 547.8,60.8 548.7,59.3 549.4,57.7 550,56 550.5,54.3 550.8,52.6 550.9,50.9 550.9,49.1 550.8,47.4 550.5,45.7 550,44 549.4,42.4 548.7,40.8 547.8,39.3 546.8,37.8 545.7,36.5 544.5,35.3 543.1,34.2 541.7,33.2 540.2,32.3 538.6,31.5 537,30.9 535.3,30.5 533.6,30.2 531.8,30 530.1,30 528.4,30.2 526.6,30.5 525,30.9 523.3,31.5 521.7,32.3 520.2,33.2 518.8,34.2 517.5,35.3 516.2,36.5 515.1,37.8 514.1,39.3 513.2,40.8 512.5,42.4 511.9,44 511.4,45.7 511.1,47.4 511,49.1 511,50.9 511.1,52.6 511.4,54.3 511.9,56 512.5,57.7 513.2,59.3 514.1,60.8 515.1,62.2 516.2,63.5 517.5,64.8 518.8,65.9 520.2,66.9 521.7,67.8 523.3,68.5 525,69.1 526.6,69.5 528.4,69.8 530.1,70" />
<path stroke="#000000" stroke-width="2" d="M 557.6,70" />
<path stroke="#000000" stroke-width="2" d="M 557.6,40" />
<path stroke="#000000" stroke-width="2" d="M 557.6,40 561.7,39.8 564.9,39.2 567.4,38.3 569.1,37.1 570.3,35.8 570.8,34.3 570.9,32.8 570.6,31.4 569.9,30 568.9,28.8 567.6,27.7 566.3,27 564.8,26.7 563.3,26.8 561.8,27.3 560.5,28.5 559.3,30.2 558.4,32.7 557.8,35.9 557.6,40 557.6,70" />
<path stroke="#000000" stroke-width="2" d="M 600.9,70" />
<path stroke="#000000" stroke-width="2" d="M 600.9,30 600.9,31.4 601,32.8 601.3,34.2 601.6,35.5 602.1,36.8 602.7,38.1 603.4,39.3 604.2,40.4 605.1,41.5 606.1,42.5 607.2,43.4 608.3,44.2 609.5,44.9 610.8,45.5 612.1,46 613.4,46.3 614.8,46.6 616.2,46.7 617.6,46.7 619,46.6 620.4,46.3 621.7,46 623,45.5 624.3,44.9 625.5,44.2 626.6,43.4 627.7,42.5 628.7,41.5 629.6,40.4 630.4,39.3 631.1,38.1 631.7,36.8 632.2,35.5 632.5,34.2 632.8,32.8 632.9,31.4" />
<path stroke="#000000" stroke-width="2" d="M 639.6,70" />
<path stroke="#000000" stroke-width="2" d="M 649.6,30 641.9,48.5 641.9,49.2 642,49.9 642.1,50.6 642.3,51.2 642.5,51.9 642.8,52.5 643.1,53.1 643.5,53.7 644,54.2 644.5,54.7 645,55.2 645.6,55.6 646.2,55.9 646.8,56.2 647.5,56.5 648.2,56.6 648.9,56.8 649.5,56.8 650.2,56.8 650.9,56.8 651.6,56.6 652.3,56.5 653,56.2 653.6,55.9 654.2,55.6 654.8,55.2 655.3,54.7 655.8,54.2 656.2,53.7 656.6,53.1 657,52.5 657.3,51.9 657.5,51.2 657.7,50.6 657.8,49.9 657.9,49.2" />
<path stroke="#000000" stroke-width="2" d="M 687.9,70" />
<path stroke="#000000" stroke-width="2" d="M 687.9,50 687.9,49.3 687.9,48.6 688.1,47.9 688.3,47.2 688.5,46.6 688.8,46 689.1,45.4 689.5,44.8 690,44.2 690.5,43.8 691,43.3 691.6,42.9 692.2,42.6 692.8,42.3 693.5,42 694.1,41.8 694.8,41.7 695.5,41.7 696.2,41.7 696.9,41.7 697.6,41.8 698.3,42 698.9,42.3 699.6,42.6 700.2,42.9 700.8,43.3 701.3,43.8 701.8,44.2 702.2,44.8 702.6,45.4 703,46 703.3,46.6 703.5,47.2 703.7,47.9 703.8,48.6 703.9,49.3 703.9,50 703.9,50.7 704.1,51.4 704.2,52.1 704.5,52.7 704.8,53.3 705.1,53.9 705.5,54.5 706,55.1 706.5,55.5 707,56 707.6,56.4 708.2,56.7 708.8,57 709.5,57.3 710.1,57.5 710.8,57.6 711.5,57.6 712.2,57.6 712.9,57.6 713.6,57.5 714.3,57.3 714.9,57 715.6,56.7 716.2,56.4 716.7,56 717.3,55.5 717.8,55.1 718.2,54.5 718.6,53.9 719,53.3 719.3,52.7 719.5,52.1 719.7,51.4 719.8,50.7 719.9,50" />
<path stroke="#000000" stroke-width="2" d="M 726.5,70" />
<path stroke="#000000" stroke-width="2" d="M 726.5,55" />
<path stroke="#000000" stroke-width="2" d="M 726.5,55 728.6,54.9 730.2,54.6 731.4,54.1 732.3,53.6 732.9,52.9 733.1,52.2 733.2,51.4 733,50.7 732.7,50 732.1,49.4 731.5,48.9 730.8,48.5 730.1,48.3 729.4,48.4 728.6,48.7 728,49.2 727.4,50.1 726.9,51.4 726.6,53 726.5,55 726.5,70 718.9,88.5 721.2,82.9 721.5,82.1 721.9,81.4 722.4,80.6 722.9,79.9 723.5,79.3 724.1,78.7 724.8,78.2 725.6,77.7 726.3,77.3 727.1,77 728,76.7 728.8,76.5 733.8,76.5 733.8,96.5" />
<path stroke="#000000" stroke-width="2" d="M 740.5,70" />
<path stroke="#000000" stroke-width="2" d="M 740.5,70 740.5,69.3 740.6,68.6 740.7,67.9 740.9,67.2 741.1,66.6 741.4,66 741.7,65.4 742.1,64.8 742.6,64.2 743.1,63.8 743.6,63.3 744.2,62.9 744.8,62.6 745.4,62.3 746.1,62 746.8,61.8 747.4,61.7 748.1,61.7 748.8,61.7 749.5,61.7 750.2,61.8 750.9,62 751.5,62.3 752.2,62.6 752.8,62.9 753.4,63.3 753.9,63.8 754.4,64.2 754.8,64.8 755.2,65.4 755.6,66 755.9,66.6 756.1,67.2 756.3,67.9 756.4,68.6 756.5,69.3" />
<path stroke="#000000" stroke-width="2" d="M 786.5,70" />
<path stroke="#000000" stroke-width="2" d="M 796.5,30 795.6,30 794.7,30.1 793.9,30.2 793,30.5 792.2,30.8 791.4,31.1 790.7,31.6 790,32.1 789.3,32.6 788.7,33.2 788.1,33.9 787.6,34.6 787.2,35.4 786.8,36.2 786.5,37 786.3,37.8 786.1,38.7 786.1,39.6 786.1,40.4 786.1,41.3 786.3,42.2 786.5,43 786.8,43.8 787.2,44.6 787.6,45.4 788.1,46.1 788.7,46.7 789.3,47.4 790,47.9 790.7,48.4 791.4,48.9 792.2,49.2 793,49.5 793.9,49.8 794.7,49.9 795.6,50 795.6,49.3 795.7,48.6 795.8,47.9 796,47.2 796.2,46.6 796.5,45.9 796.9,45.3 797.3,44.8 797.7,44.2 798.2,43.7 798.7,43.3 799.3,42.9 799.9,42.5 800.5,42.2 801.2,42 801.9,41.8 802.6,41.7 803.3,41.6 803.9,41.6 804.6,41.7 805.3,41.8 806,42 806.7,42.2 807.3,42.5 807.9,42.9 808.5,43.3 809,43.7 809.5,44.2 809.9,44.8 810.3,45.3 810.7,45.9 811,46.6 811.2,47.2 811.4,47.9 811.5,48.6 811.6,49.3" />
<path stroke="#000000" stroke-width="2" d="M 818.3,70" />
<path stroke="#000000" stroke-width="2" d="M 818.3,50 818.3,70 818.3,64 818.3,63.1 818.3,62.3 818.5,61.4 818.7,60.6 819,59.7 819.4,58.9 819.8,58.2 820.3,57.5 820.9,56.8 821.5,56.2 822.2,55.6 822.9,55.1 823.6,54.7 824.4,54.3 825.2,54 826.1,53.8 826.9,53.6 827.8,53.6 828.7,53.6 829.6,53.6 830.4,53.8 831.3,54 832.1,54.3 832.9,54.7 833.6,55.1 834.3,55.6 835,56.2 835.6,56.8 836.2,57.5 836.7,58.2 837.1,58.9 837.5,59.7 837.8,60.6 838,61.4 838.2,62.3 838.2,63.1 838.2,64 838.2,64.9 838,65.7 837.8,66.6 837.5,67.4 837.1,68.2 836.7,68.9 836.2,69.7 835.6,70.3 835,70.9 834.3,71.5 833.6,72 832.9,72.4 832.1,72.8 831.3,73.1 830.4,73.3 829.6,73.5 828.7,73.6" />
<path stroke="#000000" stroke-width="2" d="M 868.2,70" />
<path stroke="#000000" stroke-width="2" d="M 888.2,30 886.5,30 884.8,30.2 883,30.5 881.4,30.9 879.7,31.5 878.1,32.2 876.6,33.1 875.2,34.1 873.9,35.2 872.6,36.5 871.5,37.8 870.5,39.2 869.6,40.7 868.9,42.3 868.3,44 867.8,45.7 867.5,47.4 867.4,49.1 867.4,50.9 867.5,52.6 867.8,54.3 868.3,56 868.9,57.6 869.6,59.2 870.5,60.7 871.5,62.2 872.6,63.5 873.9,64.7 875.2,65.8 876.6,66.8 878.1,67.7 879.7,68.5 881.4,69.1 883,69.5 884.8,69.8 886.5,70" />
<path stroke="#000000" stroke-width="2" d="M 886.5,50" />
<path stroke="#000000" stroke-width="2" d="M 854.5,50 894.5,50" />
<path stroke="#000000" stroke-width="2" d="M 924.5,70" />
<path stroke="#000000" stroke-width="2" d="M 924.5,70 924.7,70 924.7,70.2 924.5,70.2 924.5,70" />
<path stroke="#000000" stroke-width="2" d="M 931.4,70" />
<path stroke="#000000" stroke-width="2" d="M 941.4,30 931.4,30 931.4,70" />
<path stroke="#000000" stroke-width="2" d="M 948,70" />
<path stroke="#000000" stroke-width="2" d="M 948,50" />
<path stroke="#000000" stroke-width="2" d="M 948,50 948.2,50 948.6,50 949.2,50 950.1,50.1 951.2,50.2 952.3,50.3 953.7,50.4 955.1,50.6 956.5,50.9 958,51.2 959.5,51.7 961,52.2 962.4,52.7 963.7,53.4 964.9,54.2 965.9,55.1 966.8,56.1 967.5,57.3 967.9,58.6 968,60" />
<path stroke="#000000" stroke-width="2" d="M 968,60 970,62.1 971.3,64.1 972,65.7 972.3,67.2 972.2,68.4 971.8,69.5 971.1,70.2 970.2,70.8 969.1,71.1 968,71.2 966.9,71.1 965.9,70.8 965,70.2 964.2,69.5 963.8,68.4 963.7,67.2 964,65.7 964.8,64 966.1,62.1 968,60" />
<path stroke="#000000" stroke-width="2" d="M 968,60 968,59.9 968,59.7 968.1,59.4 968.2,59 968.3,58.4 968.6,57.8 968.9,57.2 969.3,56.5 969.9,55.7 970.5,55 971.4,54.3 972.3,53.5 973.5,52.8 974.9,52.2 976.5,51.6 978.3,51 980.3,50.6 982.6,50.3 985.2,50.1 988,50 988,70 988,64 988,63.1 988.1,62.3 988.3,61.4 988.5,60.6 988.8,59.7 989.1,58.9 989.6,58.2 990.1,57.5 990.6,56.8 991.3,56.2 991.9,55.6 992.6,55.1 993.4,54.7 994.2,54.3 995,54 995.9,53.8 996.7,53.6 997.6,53.6" />
<path stroke="#000000" stroke-width="2" d="M 997.6,53.6 999.6,53.5 1001.2,53.2 1002.5,52.7 1003.3,52.1 1003.9,51.5 1004.2,50.7 1004.2,50 1004.1,49.3 1003.7,48.6 1003.2,47.9 1002.6,47.4 1001.9,47.1 1001.2,46.9 1000.4,47 999.7,47.2 999,47.8 998.4,48.7 998,49.9 997.7,51.5 997.6,53.6 997.6,68.6" />
<path stroke="#000000" stroke-width="2" d="M 1034.2,70" />
<path stroke="#000000" stroke-width="2" d="M 1044.2,30 1043.4,30 1042.5,30.1 1041.6,30.2 1040.8,30.5 1040,30.8 1039.2,31.1 1038.4,31.6 1037.7,32.1 1037,32.6 1036.4,33.2 1035.9,33.9 1035.4,34.6 1034.9,35.4 1034.6,36.2 1034.3,37 1034,37.8 1033.9,38.7 1033.8,39.6 1033.8,40.4 1033.9,41.3 1034,42.2 1034.3,43 1034.6,43.8 1034.9,44.6 1035.4,45.4 1035.9,46.1 1036.4,46.7 1037,47.4 1037.7,47.9 1038.4,48.4 1039.2,48.9 1040,49.2 1040.8,49.5 1041.6,49.8 1042.5,49.9 1043.4,50 1048.4,50 1048.4,70" />
<path stroke="#000000" stroke-width="2" d="M 1078.4,70" />
<path stroke="#000000" stroke-width="2" d="M 1078.4,70" />
<path stroke="#000000" stroke-width="2" d="M 1078.4,70 1079.5,70 1080.5,70.2 1081.3,70.4 1082,70.7 1082.6,71 1083,71.5 1083.3,71.9 1083.5,72.5 1083.6,73.1 1083.6,73.8 1083.5,74.4 1083.3,75.2 1082.9,76 1082.5,76.8 1082,77.6 1081.4,78.4 1080.8,79.3 1080,80.2 1079.2,81.1 1078.4,82" />
<path stroke="#000000" stroke-width="2" d="M 1113.6,70" />
<path stroke="#000000" stroke-width="2" d="M 1125.6,30" />
<path stroke="#000000" stroke-width="2" d="M 1125.6,30 1125.4,34.1 1124.8,37.3 1123.9,39.8 1122.8,41.5 1121.4,42.7 1120,43.2 1118.5,43.3 1117,43 1115.6,42.3 1114.4,41.2 1113.4,40 1112.7,38.6 1112.3,37.2 1112.4,35.7 1113,34.2 1114.1,32.9 1115.9,31.7 1118.3,30.8 1121.6,30.2 1125.6,30 1133.6,30" />
<path stroke="#000000" stroke-width="2" d="M 1133.6,30 1135.4,30.6 1137,31.3 1138.5,32.1 1139.9,32.8 1141.2,33.7 1142.4,34.6 1143.5,35.5 1144.5,36.5 1145.3,37.5 1146.1,38.5 1146.8,39.6 1147.5,40.7 1148,41.8 1148.4,42.9 1148.8,44.1 1149.1,45.2 1149.4,46.4 1149.5,47.6 1149.6,48.8 1149.6,50" />
<path stroke="#000000" stroke-width="2" d="M 1156.3,70" />
<path stroke="#000000" stroke-width="2" d="M 1156.3,25" />
<path stroke="#000000" stroke-width="2" d="M 1156.3,25 1158.3,24.9 1159.9,24.6 1161.2,24.1 1162.1,23.6 1162.6,22.9 1162.9,22.2 1163,21.4 1162.8,20.7 1162.4,20 1161.9,19.4 1161.3,18.9 1160.6,18.5 1159.9,18.3 1159.1,18.4 1158.4,18.7 1157.7,19.2 1157.2,20.1 1156.7,21.4 1156.4,23 1156.3,25 1156.3,40" />
<path stroke="#000000" stroke-width="2" d="M 1169.6,70" />
<path stroke="#000000" stroke-width="2" d="M 1169.6,50 1177.3,68.5" />
<path stroke="#000000" stroke-width="2" d="M 1183.9,70" />
<path stroke="#000000" stroke-width="2" d="M 1183.9,20 1183.9,40 1183.9,40.7 1184,41.4 1184.1,42.1 1184.3,42.8 1184.5,43.4 1184.8,44 1185.2,44.6 1185.6,45.2 1186,45.8 1186.5,46.2 1187.1,46.7 1187.6,47.1 1188.2,47.4 1188.9,47.7 1189.5,48 1190.2,48.2 1190.9,48.3 1191.6,48.3 1192.3,48.3 1193,48.3 1193.7,48.2 1194.3,48 1195,47.7 1195.6,47.4 1196.2,47.1 1196.8,46.7 1197.3,46.2 1197.8,45.8 1198.3,45.2 1198.7,44.6 1199,44 1199.3,43.4 1199.6,42.8 1199.7,42.1 1199.9,41.4 1199.9,40.7" />
<path stroke="#000000" stroke-width="2" d="M 1206.6,70" />
<path stroke="#000000" stroke-width="2" d="M 1206.6,30 1206.8,30 1206.8,30.2 1206.6,30.2 1206.6,30" />
<path stroke="#000000" stroke-width="2" d="M 1236.8,70" />
<path stroke="#000000" stroke-width="2" d="M 1256.8,70 1258.5,70 1260.3,69.8 1262,69.5 1263.7,69.1 1265.3,68.5 1266.9,67.8 1268.4,66.9 1269.8,65.9 1271.2,64.8 1272.4,63.5 1273.5,62.2 1274.5,60.8 1275.4,59.3 1276.1,57.7 1276.7,56 1277.2,54.3 1277.5,52.6 1277.6,50.9 1277.6,49.1 1277.5,47.4 1277.2,45.7 1276.7,44 1276.1,42.4 1275.4,40.8 1274.5,39.3 1273.5,37.8 1272.4,36.5 1271.2,35.3 1269.8,34.2 1268.4,33.2 1266.9,32.3 1265.3,31.5 1263.7,30.9 1262,30.5 1260.3,30.2 1258.5,30 1256.8,30 1255.1,30.2 1253.3,30.5 1251.7,30.9 1250,31.5 1248.4,32.3 1246.9,33.2 1245.5,34.2 1244.2,35.3 1242.9,36.5 1241.8,37.8 1240.8,39.3 1239.9,40.8 1239.2,42.4 1238.6,44 1238.1,45.7 1237.8,47.4 1237.7,49.1 1237.7,50.9 1237.8,52.6 1238.1,54.3 1238.6,56 1239.2,57.7 1239.9,59.3 1240.8,60.8 1241.8,62.2 1242.9,63.5 1244.2,64.8 1245.5,65.9 1246.9,66.9 1248.4,67.8 1250,68.5 1251.7,69.1 1253.3,69.5 1255.1,69.8 1256.8,70" />
<path stroke="#000000" stroke-width="2" d="M 1284.3,70" />
<path stroke="#000000" stroke-width="2" d="M 1284.3,40" />
<path stroke="#000000" stroke-width="2" d="M 1284.3,40 1288.4,39.8 1291.6,39.2 1294.1,38.3 1295.8,37.1 1297,35.8 1297.5,34.3 1297.6,32.8 1297.3,31.4 1296.6,30 1295.6,28.7 1294.3,27.7 1293,27 1291.5,26.7 1290,26.8 1288.5,27.3 1287.2,28.5 1286,30.2 1285.1,32.7 1284.5,35.9 1284.3,40 1284.3,70" />
<path stroke="#000000" stroke-width="2" d="M 1327.6,70" />
<path stroke="#000000" stroke-width="2" d="M 1327.6,30 1337.6,30 1337.6,70" />
<path stroke="#000000" stroke-width="2" d="M 1344.3,70" />
<path stroke="#000000" stroke-width="2" d="M 1344.3,30 1359.6,67 1374.9,30" />
<path stroke="#000000" stroke-width="2" d="M 1404.9,70" />
<path stroke="#000000" stroke-width="2" d="M 1404.9,30 1420.2,67" />
<path stroke="#000000" stroke-width="2" d="M 1426.9,70" />
<path stroke="#000000" stroke-width="2" d="M 1426.9,30 1466.9,30" />
<path stroke="#000000" stroke-width="2" d="M 1473.5,70" />
<path stroke="#000000" stroke-width="2" d="M 1483.5,50 1475.9,68.5" />
<path stroke="#000000" stroke-width="2" d="M 1475.9,68.5 1477.9,68.4 1479.5,68.1 1480.8,67.6 1481.7,67 1482.2,66.4 1482.5,65.6 1482.5,64.9 1482.4,64.2 1482,63.5 1481.5,62.9 1480.9,62.4 1480.2,62 1479.5,61.8 1478.7,61.9 1478,62.1 1477.3,62.7 1476.8,63.6 1476.3,64.8 1476,66.4 1475.9,68.5 1475.9,83.5" />
<path stroke="#000000" stroke-width="2" d="M 1513.5,70" />
<path stroke="#000000" stroke-width="2" d="M 1513.5,70 1513.7,70 1513.7,70.2 1513.5,70.2 1513.5,70" />
<path stroke="#000000" stroke-width="2" d="M 1543.7,70" />
</svg>