<svg xmlns="http://www.w3.org/2000/svg" width="1481.56810391651" height="111.21192886327431" style="fill:none; stroke-linecap:round;">
    <rect width="100%" height="100%" fill="#FFFFFF" />
<path stroke="#000000" stroke-width="2" d="M 550,75" />
<path stroke="#000000" stroke-width="2" d="M 20,40" />
<path stroke="#000000" stroke-width="2" d="M 20,40 24.1,39.8 27.3,39.2 29.8,38.3 31.5,37.1 32.7,35.8 33.2,34.3 33.3,32.8 33,31.4 32.3,30 31.2,28.8 30,27.7 28.6,27 27.2,26.7 25.7,26.8 24.2,27.3 22.9,28.5 21.7,30.2 20.8,32.7 20.2,35.9 20,40 20,70" />
<path stroke="#000000" stroke-width="2" d="M 40,70" />
<path stroke="#000000" stroke-width="2" d="M 40,20 47.6,38.5 55.3,20" />
<path stroke="#000000" stroke-width="2" d="M 85.3,70" />
<path stroke="#000000" stroke-width="2" d="M 85.3,30 95.3,30 95.3,70" />
<path stroke="#000000" stroke-width="2" d="M 101.9,70" />
<path stroke="#000000" stroke-width="2" d="M 101.9,50 101.9,70 101.9,64 101.9,63.1 102,62.3 102.2,61.4 102.4,60.6 102.7,59.7 103.1,58.9 103.5,58.2 104,57.5 104.6,56.8 105.2,56.2 105.9,55.6 106.6,55.1 107.3,54.7 108.1,54.3 108.9,54 109.8,53.8 110.6,53.6 111.5,53.6" />
<path stroke="#000000" stroke-width="2" d="M 141.5,70" />
<path stroke="#000000" stroke-width="2" d="M 141.5,40 141.7,40 141.7,40.2 141.5,40.2 141.5,40" />
<path stroke="#000000" stroke-width="2" d="M 148.4,70" />
<path stroke="#000000" stroke-width="2" d="M 148.4,40" />
<path stroke="#000000" stroke-width="2" d="M 148.4,40 152.4,39.8 155.7,39.2 158.1,38.3 159.9,37.1 161,35.8 161.6,34.3 161.7,32.8 161.3,31.4 160.6,30 159.6,28.8 158.4,27.7 157,27 155.5,26.7 154,26.8 152.6,27.3 151.3,28.5 150.1,30.2 149.2,32.7 148.6,35.9 148.4,40 148.4,70" />
<path stroke="#000000" stroke-width="2" d="M 168.3,70" />
<path stroke="#000000" stroke-width="2" d="M 168.3,50 173.3,50 173.3,70 165.7,88.5" />
<path stroke="#000000" stroke-width="2" d="M 203.3,70" />
<path stroke="#000000" stroke-width="2" d="M 203.3,30 203.3,70 203.3,62 203.3,60.3 203.5,58.5 203.8,56.8 204.3,55.1 204.8,53.5 205.6,51.9 206.5,50.4 207.5,49 208.6,47.6 209.8,46.4 211.2,45.3 212.6,44.3" />
<path stroke="#000000" stroke-width="2" d="M 219.2,70" />
<path stroke="#000000" stroke-width="2" d="M 219.2,20 239.2,20 219.4,39.8 239.4,39.8" />
<path stroke="#000000" stroke-width="2" d="M 269.4,70" />
<path stroke="#000000" stroke-width="2" d="M 289.4,70 291.2,70 292.9,69.8 294.6,69.5 296.3,69.1 298,68.5 299.6,67.8 301.1,66.9 302.5,65.9 303.8,64.8 305.1,63.5 306.2,62.2 307.2,60.8 308.1,59.3 308.8,57.7 309.4,56 309.8,54.3 310.1,52.6 310.3,50.9 310.3,49.1 310.1,47.4 309.8,45.7 309.4,44 308.8,42.4 308.1,40.8 307.2,39.3 306.2,37.8 305.1,36.5 303.8,35.3 302.5,34.2 301.1,33.2 299.6,32.3 298,31.5 296.3,30.9 294.6,30.5 292.9,30.2 291.2,30 289.4,30 287.7,30.2 286,30.5 284.3,30.9 282.7,31.5 281.1,32.3 279.6,33.2 278.1,34.2 276.8,35.3 275.6,36.5 274.5,37.8 273.5,39.3 272.6,40.8 271.8,42.4 271.2,44 270.8,45.7 270.5,47.4 270.3,49.1 270.3,50.9 270.5,52.6 270.8,54.3 271.2,56 271.8,57.7 272.6,59.3 273.5,60.8 274.5,62.2 275.6,63.5 276.8,64.8 278.1,65.9 279.6,66.9 281.1,67.8 282.7,68.5 284.3,69.1 286,69.5 287.7,69.8 289.4,70" />
<path stroke="#000000" stroke-width="2" d="M 317,70" />
<path stroke="#000000" stroke-width="2" d="M 327,20 319.3,38.5" />
<path stroke="#000000" stroke-width="2" d="M 357,70" />
<path stroke="#000000" stroke-width="2" d="M 367,30 366.1,30 365.2,30.1 364.4,30.2 363.5,30.5 362.7,30.8 361.9,31.1 361.2,31.6 360.4,32.1 359.8,32.6 359.2,33.2 358.6,33.9 358.1,34.6 357.7,35.4 357.3,36.2 357,37 356.8,37.8 356.6,38.7 356.5,39.6 356.5,40.4 356.6,41.3 356.8,42.2 357,43 357.3,43.8 357.7,44.6 358.1,45.4 358.6,46.1 359.2,46.7 359.8,47.4 360.4,47.9 361.2,48.4 361.9,48.9 362.7,49.2 363.5,49.5 364.4,49.8 365.2,49.9 366.1,50 366.1,49.3 366.2,48.6 366.3,47.9 366.5,47.2 366.7,46.6 367,45.9 367.3,45.3 367.7,44.8 368.2,44.2 368.7,43.7 369.2,43.3 369.8,42.9 370.4,42.5 371,42.2 371.7,42 372.4,41.8 373,41.7 373.7,41.6 374.4,41.6 375.1,41.7 375.8,41.8 376.5,42 377.1,42.2 377.8,42.5 378.4,42.9 379,43.3 379.5,43.7 380,44.2 380.4,44.8 380.8,45.3 381.2,45.9 381.5,46.6 381.7,47.2 381.9,47.9 382,48.6 382.1,49.3" />
<path stroke="#000000" stroke-width="2" d="M 388.7,70" />
<path stroke="#000000" stroke-width="2" d="M 396.7,20 396.7,35" />
<path stroke="#000000" stroke-width="2" d="M 396.7,35 396.6,37 396.3,38.6 395.9,39.9 395.3,40.8 394.6,41.3 393.9,41.6 393.2,41.7 392.4,41.5 391.7,41.1 391.1,40.6 390.6,40 390.3,39.3 390.1,38.6 390.1,37.8 390.4,37.1 391,36.4 391.9,35.9 393.1,35.4 394.7,35.1 396.7,35 416.7,35" />
<path stroke="#000000" stroke-width="2" d="M 423.4,70" />
<path stroke="#000000" stroke-width="2" d="M 423.4,20 423.4,20.7 423.5,21.4 423.6,22.1 423.8,22.8 424,23.4 424.3,24 424.7,24.6 425.1,25.2 425.5,25.8 426,26.2 426.5,26.7 427.1,27.1 427.7,27.4 428.3,27.7 429,28 429.7,28.2 430.4,28.3 431.1,28.3 431.8,28.3 432.5,28.3 433.1,28.2 433.8,28 434.5,27.7 435.1,27.4 435.7,27.1 436.3,26.7 436.8,26.2 437.3,25.8 437.8,25.2 438.2,24.6 438.5,24 438.8,23.4 439,22.8 439.2,22.1 439.3,21.4 439.4,20.7" />
<path stroke="#000000" stroke-width="2" d="M 446.1,70" />
<path stroke="#000000" stroke-width="2" d="M 446.1,30 446.3,30 446.3,30.2 446.1,30.2 446.1,30" />
<path stroke="#000000" stroke-width="2" d="M 476.3,70" />
<path stroke="#000000" stroke-width="2" d="M 492.3,30 492.3,60" />
<path stroke="#000000" stroke-width="2" d="M 492.3,60 492.1,64.1 491.5,67.3 490.5,69.8 489.4,71.5 488,72.7 486.6,73.2 485.1,73.3 483.6,73 482.2,72.3 481,71.2 480,70 479.3,68.6 479,67.2 479,65.7 479.6,64.2 480.7,62.9 482.5,61.7 485,60.8 488.2,60.2 492.3,60" />
<path stroke="#000000" stroke-width="2" d="M 498.9,70" />
<path stroke="#000000" stroke-width="2" d="M 498.9,70 498.9,69.3 499,68.6 499.1,67.9 499.3,67.2 499.5,66.6 499.8,66 500.2,65.4 500.6,64.8 501,64.2 501.5,63.8 502.1,63.3 502.6,62.9 503.2,62.6 503.9,62.3 504.5,62 505.2,61.8 505.9,61.7 506.6,61.7 507.3,61.7 508,61.7 508.7,61.8 509.3,62 510,62.3 510.6,62.6 511.2,62.9 511.8,63.3 512.3,63.8 512.8,64.2 513.3,64.8 513.7,65.4 514,66 514.3,66.6 514.6,67.2 514.7,67.9 514.9,68.6 514.9,69.3" />
<path stroke="#000000" stroke-width="2" d="M 544.9,70" />
<path stroke="#000000" stroke-width="2" d="M 544.9,70 545.1,70 545.1,70.2 544.9,70.2 544.9,70" />
<path stroke="#000000" stroke-width="2" d="M 551.8,70" />
<path stroke="#000000" stroke-width="2" d="M 551.8,30 551.8,31.4 551.9,32.8 552.1,34.2 552.5,35.5 553,36.8 553.6,38.1 554.3,39.3 555.1,40.4 556,41.5 557,42.5 558,43.4 559.2,44.2 560.4,44.9 561.6,45.5 563,46 564.3,46.3 565.7,46.6 567.1,46.7 568.5,46.7 569.9,46.6 571.2,46.3 572.6,46 573.9,45.5 575.2,44.9 576.4,44.2 577.5,43.4 578.6,42.5 579.6,41.5 580.5,40.4 581.3,39.3 582,38.1 582.6,36.8 583,35.5 583.4,34.2 583.6,32.8 583.8,31.4" />
<path stroke="#000000" stroke-width="2" d="M 590.4,70" />
<path stroke="#000000" stroke-width="2" d="M 590.4,20 598.1,38.5 605.7,20" />
<path stroke="#000000" stroke-width="2" d="M 605.7,20 607.8,19.9 609.4,19.6 610.6,19.1 611.5,18.6 612.1,17.9 612.3,17.2 612.4,16.4 612.2,15.7 611.9,15 611.4,14.4 610.7,13.9 610,13.5 609.3,13.3 608.6,13.4 607.8,13.7 607.2,14.2 606.6,15.1 606.1,16.4 605.8,18 605.7,20 605.7,35" />
<path stroke="#000000" stroke-width="2" d="M 642.4,70" />
<path stroke="#000000" stroke-width="2" d="M 652.4,30 651.5,30 650.6,30.1 649.8,30.2 648.9,30.5 648.1,30.8 647.3,31.1 646.6,31.6 645.9,32.1 645.2,32.6 644.6,33.2 644,33.9 643.5,34.6 643.1,35.4 642.7,36.2 642.4,37 642.2,37.8 642,38.7 642,39.6 642,40.4 642,41.3 642.2,42.2 642.4,43 642.7,43.8 643.1,44.6 643.5,45.4 644,46.1 644.6,46.7 645.2,47.4 645.9,47.9 646.6,48.4 647.3,48.9 648.1,49.2 648.9,49.5 649.8,49.8 650.6,49.9 651.5,50 656.5,50 656.5,70" />
<path stroke="#000000" stroke-width="2" d="M 686.5,70" />
<path stroke="#000000" stroke-width="2" d="M 686.5,70 686.7,70 686.7,70.2 686.5,70.2 686.5,70" />
<path stroke="#000000" stroke-width="2" d="M 693.4,70" />
<path stroke="#000000" stroke-width="2" d="M 713.4,30 698.1,67 702.7,55.9 703.3,54.3 704.1,52.7 705.1,51.2 706.1,49.9 707.3,48.6 708.6,47.4 710,46.3 711.5,45.4 713,44.6 714.6,43.9 716.3,43.4 718,43" />
<path stroke="#000000" stroke-width="2" d="M 724.6,70" />
<path stroke="#000000" stroke-width="2" d="M 724.6,20 724.8,20 724.8,20.2 724.6,20.2 724.6,20" />
<path stroke="#000000" stroke-width="2" d="M 754.8,70" />
<path stroke="#000000" stroke-width="2" d="M 754.8,30 774.8,30" />
<path stroke="#000000" stroke-width="2" d="M 774.8,30 776.3,30.1 777.5,30.6 778.7,31.2 779.6,32.1 780.5,33.1 781.1,34.3 781.7,35.6 782,37 782.3,38.5 782.3,40 782.3,41.5 782,43 781.7,44.4 781.1,45.7 780.5,46.9 779.6,47.9 778.7,48.8 777.5,49.4 776.3,49.9 774.8,50" />
<path stroke="#000000" stroke-width="2" d="M 812.3,70" />
<path stroke="#000000" stroke-width="2" d="M 832.3,30 830.6,30 828.9,30.2 827.1,30.5 825.5,30.9 823.8,31.5 822.2,32.2 820.7,33.1 819.3,34.1 818,35.2 816.7,36.5 815.6,37.8 814.6,39.2 813.7,40.7 813,42.3 812.4,44 812,45.7 811.6,47.4 811.5,49.1 811.5,50.9 811.6,52.6 812,54.3 812.4,56 813,57.6 813.7,59.2 814.6,60.7 815.6,62.2 816.7,63.5 818,64.7 819.3,65.8 820.7,66.8 822.2,67.7 823.8,68.5 825.5,69.1 827.1,69.5 828.9,69.8 830.6,70" />
<path stroke="#000000" stroke-width="2" d="M 830.6,70 830.7,70 831.2,70 831.8,70 832.7,70 833.7,70.1 834.9,70.2 836.2,70.4 837.6,70.6 839.1,70.9 840.6,71.2 842.1,71.6 843.6,72.1 845,72.7 846.3,73.4 847.5,74.2 848.5,75.1 849.4,76.1 850,77.3 850.5,78.5 850.6,80" />
<path stroke="#000000" stroke-width="2" d="M 850.6,80 852.5,82.1 853.8,84 854.6,85.7 854.9,87.2 854.8,88.4 854.4,89.4 853.7,90.2 852.8,90.8 851.7,91.1 850.6,91.2 849.5,91.1 848.4,90.8 847.5,90.2 846.8,89.4 846.4,88.4 846.3,87.2 846.6,85.7 847.4,84 848.7,82.1 850.6,80" />
<path stroke="#000000" stroke-width="2" d="M 850.6,80 850.6,79.9 850.6,79.7 850.7,79.4 850.8,78.9 850.9,78.4 851.1,77.8 851.5,77.1 851.9,76.4 852.4,75.7 853.1,75 853.9,74.2 854.9,73.5 856.1,72.8 857.5,72.1 859,71.5 860.8,71 862.9,70.6 865.2,70.2 867.8,70 870.6,70 870.6,90 870.6,84 870.6,83.1 870.7,82.2 870.8,81.4 871.1,80.5 871.4,79.7 871.7,78.9 872.2,78.2 872.7,77.4 873.2,76.8 873.8,76.2 874.5,75.6 875.2,75.1 876,74.7 876.8,74.3 877.6,74 878.4,73.8 879.3,73.6 880.2,73.5" />
<path stroke="#000000" stroke-width="2" d="M 910.2,70" />
<path stroke="#000000" stroke-width="2" d="M 910.2,30 910.2,50 910.2,70 910.2,64 910.2,63.1 910.2,62.3 910.4,61.4 910.6,60.6 910.9,59.7 911.3,58.9 911.7,58.2 912.2,57.5 912.8,56.8 913.4,56.2 914.1,55.6 914.8,55.1 915.5,54.7 916.3,54.3 917.1,54 918,53.8 918.8,53.6 919.7,53.6" />
<path stroke="#000000" stroke-width="2" d="M 926.4,70" />
<path stroke="#000000" stroke-width="2" d="M 938.4,26" />
<path stroke="#000000" stroke-width="2" d="M 938.4,26 936.3,25.9 934.7,25.6 933.5,25.1 932.6,24.6 932.1,23.9 931.8,23.2 931.7,22.4 931.9,21.7 932.3,21 932.8,20.4 933.4,19.9 934.1,19.5 934.8,19.3 935.5,19.4 936.3,19.7 936.9,20.2 937.5,21.1 938,22.4 938.3,24 938.4,26 938.4,30" />
<path stroke="#000000" stroke-width="2" d="M 938.4,30 938.1,30.9 937.7,31.7 937.4,32.4 937,33.1 936.5,33.8 936.1,34.4 935.6,34.9 935.1,35.4 934.6,35.9 934.1,36.2 933.6,36.6 933.1,36.9 932.5,37.2 931.9,37.4 931.3,37.6 930.8,37.7 930.2,37.9 929.6,37.9 929,38 928.4,38" />
<path stroke="#000000" stroke-width="2" d="M 968.4,70" />
<path stroke="#000000" stroke-width="2" d="M 968.4,70" />
<path stroke="#000000" stroke-width="2" d="M 968.4,70 969.5,70 970.5,70.2 971.3,70.4 972,70.7 972.6,71 973,71.5 973.4,71.9 973.6,72.5 973.7,73.1 973.6,73.8 973.5,74.4 973.3,75.2 973,76 972.5,76.8 972,77.6 971.5,78.4 970.8,79.3 970.1,80.2 969.2,81.1 968.4,82" />
<path stroke="#000000" stroke-width="2" d="M 1003.7,70" />
<path stroke="#000000" stroke-width="2" d="M 1003.7,30 1003.7,70 1015,58.7" />
<path stroke="#000000" stroke-width="2" d="M 1021.6,70" />
<path stroke="#000000" stroke-width="2" d="M 1021.6,20 1021.8,20 1021.8,20.2 1021.6,20.2 1021.6,20" />
<path stroke="#000000" stroke-width="2" d="M 1051.8,70" />
<path stroke="#000000" stroke-width="2" d="M 1051.8,40" />
<path stroke="#000000" stroke-width="2" d="M 1051.8,40 1055.9,39.8 1059.1,39.2 1061.6,38.3 1063.4,37.1 1064.5,35.8 1065.1,34.3 1065.1,32.8 1064.8,31.4 1064.1,30 1063.1,28.7 1061.9,27.7 1060.5,27 1059,26.7 1057.5,26.8 1056,27.3 1054.7,28.5 1053.6,30.2 1052.6,32.7 1052,35.9 1051.8,40 1051.8,70" />
<path stroke="#000000" stroke-width="2" d="M 1071.8,70" />
<path stroke="#000000" stroke-width="2" d="M 1081.8,20 1074.2,38.5" />
<path stroke="#000000" stroke-width="2" d="M 1111.8,70" />
<path stroke="#000000" stroke-width="2" d="M 1111.8,30 1151.8,30" />
<path stroke="#000000" stroke-width="2" d="M 1181.8,70" />
<path stroke="#000000" stroke-width="2" d="M 1181.8,30" />
<path stroke="#000000" stroke-width="2" d="M 1181.8,30 1184.7,30.3 1187.2,31.1 1189.5,32.4 1191.4,34.2 1193.1,36.2 1194.4,38.6 1195.5,41.3 1196.2,44.1 1196.7,47 1196.8,50 1196.7,53 1196.2,55.9 1195.5,58.7 1194.4,61.4 1193.1,63.8 1191.4,65.8 1189.5,67.6 1187.2,68.9 1184.7,69.7 1181.8,70" />
<path stroke="#000000" stroke-width="2" d="M 1203.5,70" />
<path stroke="#000000" stroke-width="2" d="M 1203.5,20" />
<path stroke="#000000" stroke-width="2" d="M 1203.5,20 1204.9,20.1 1206.2,20.6 1207.3,21.2 1208.3,22.1 1209.1,23.1 1209.8,24.3 1210.3,25.6 1210.7,27 1210.9,28.5 1211,30 1210.9,31.5 1210.7,33 1210.3,34.4 1209.8,35.7 1209.1,36.9 1208.3,37.9 1207.3,38.8 1206.2,39.4 1204.9,39.9 1203.5,40" />
<path stroke="#000000" stroke-width="2" d="M 1241,70" />
<path stroke="#000000" stroke-width="2" d="M 1241,40" />
<path stroke="#000000" stroke-width="2" d="M 1241,40 1245,39.8 1248.3,39.2 1250.7,38.3 1252.5,37.1 1253.6,35.8 1254.2,34.3 1254.3,32.8 1253.9,31.4 1253.2,30 1252.2,28.8 1251,27.7 1249.6,27 1248.1,26.7 1246.6,26.8 1245.2,27.3 1243.9,28.5 1242.7,30.2 1241.8,32.7 1241.2,35.9 1241,40 1241,70" />
<path stroke="#000000" stroke-width="2" d="M 1260.9,70" />
<path stroke="#000000" stroke-width="2" d="M 1260.9,30 1260.9,31.4 1261.1,32.8 1261.3,34.2 1261.7,35.5 1262.2,36.8 1262.7,38.1 1263.4,39.3 1264.2,40.4 1265.1,41.5 1266.1,42.5 1267.2,43.4 1268.3,44.2 1269.5,44.9 1270.8,45.5 1272.1,46 1273.5,46.3 1274.8,46.6 1276.2,46.7 1277.6,46.7 1279,46.6 1280.4,46.3 1281.7,46 1283.1,45.5 1284.3,44.9 1285.5,44.2 1286.7,43.4 1287.7,42.5 1288.7,41.5 1289.6,40.4 1290.4,39.3 1291.1,38.1 1291.7,36.8 1292.2,35.5 1292.6,34.2 1292.8,32.8 1292.9,31.4" />
<path stroke="#000000" stroke-width="2" d="M 1299.6,70" />
<path stroke="#000000" stroke-width="2" d="M 1299.6,20 1319.6,20" />
<path stroke="#000000" stroke-width="2" d="M 1319.6,20 1321.6,19.9 1323.2,19.6 1324.5,19.1 1325.3,18.6 1325.9,17.9 1326.2,17.2 1326.2,16.4 1326.1,15.7 1325.7,15 1325.2,14.4 1324.6,13.9 1323.9,13.5 1323.2,13.3 1322.4,13.4 1321.7,13.7 1321,14.2 1320.4,15.1 1320,16.4 1319.7,18 1319.6,20 1319.6,35" />
<path stroke="#000000" stroke-width="2" d="M 1356.2,70" />
<path stroke="#000000" stroke-width="2" d="M 1356.2,70 1356.4,70 1356.4,70.2 1356.2,70.2 1356.2,70" />
<path stroke="#000000" stroke-width="2" d="M 1386.4,70" />
<path stroke="#000000" stroke-width="2" d="M 1386.4,30 1386.4,50 1396.4,50 1388.8,68.5" />
<path stroke="#000000" stroke-width="2" d="M 1426.4,70" />
<path stroke="#000000" stroke-width="2" d="M 1426.4,40" />
<path stroke="#000000" stroke-width="2" d="M 1426.4,40 1430.5,39.8 1433.7,39.2 1436.2,38.3 1438,37.1 1439.1,35.8 1439.7,34.3 1439.7,32.8 1439.4,31.4 1438.7,30 1437.7,28.7 1436.5,27.7 1435.1,27 1433.6,26.7 1432.1,26.8 1430.7,27.3 1429.3,28.5 1428.2,30.2 1427.2,32.7 1426.7,35.9 1426.4,40 1426.4,70" />
<path stroke="#000000" stroke-width="2" d="M 1446.4,70" />
<path stroke="#000000" stroke-width="2" d="M 1446.4,20 1454.1,38.5" />
<path stroke="#000000" stroke-width="2" d="M 1454.1,38.5 1455.5,38.6 1456.8,39 1457.9,39.7 1458.9,40.6 1459.7,41.6 1460.4,42.8 1460.9,44.1 1461.3,45.5 1461.5,47 1461.6,48.5 1461.5,50 1461.3,51.4 1460.9,52.8 1460.4,54.2 1459.7,55.4 1458.9,56.4 1457.9,57.3 1456.8,57.9 1455.5,58.3 1454.1,58.5" />
<path stroke="#000000" stroke-width="2" d="M 1491.6,70" />
</svg>