<svg xmlns="http://www.w3.org/2000/svg" width="1093.1997921650432" height="109.28305423379179" style="fill:none; stroke-linecap:round;">
    <rect width="100%" height="100%" fill="#FFFFFF" />
<path stroke="#000000" stroke-width="2" d="M 550,75" />
<path stroke="#000000" stroke-width="2" d="M 20,30 39.8,49.8 20,69.6" />
<path stroke="#000000" stroke-width="2" d="M 46.5,70" />
<path stroke="#000000" stroke-width="2" d="M 46.5,25" />
<path stroke="#000000" stroke-width="2" d="M 46.5,25 48.5,24.9 50.1,24.6 51.3,24.1 52.2,23.6 52.8,22.9 53.1,22.2 53.1,21.4 52.9,20.7 52.6,20 52.1,19.4 51.5,18.9 50.8,18.5 50,18.3 49.3,18.4 48.6,18.7 47.9,19.2 47.3,20.1 46.9,21.4 46.6,23 46.5,25 46.5,40 38.8,58.5" />
<path stroke="#000000" stroke-width="2" d="M 83.1,70" />
<path stroke="#000000" stroke-width="2" d="M 83.1,30 103.1,30 104,30 104.9,30.1 105.7,30.2 106.6,30.5 107.4,30.8 108.2,31.1 108.9,31.6 109.6,32.1 110.3,32.6 110.9,33.2 111.5,33.9 112,34.6 112.4,35.4 112.8,36.2 113.1,37 113.3,37.8 113.5,38.7 113.5,39.6 113.5,40.4 113.5,41.3 113.3,42.2 113.1,43 112.8,43.8 112.4,44.6 112,45.4 111.5,46.1 110.9,46.7 110.3,47.4 109.6,47.9 108.9,48.4 108.2,48.9 107.4,49.2 106.6,49.5 105.7,49.8 104.9,49.9 104,50" />
<path stroke="#000000" stroke-width="2" d="M 143.5,70" />
<path stroke="#000000" stroke-width="2" d="M 153.5,30 152.7,30 151.8,30.1 150.9,30.2 150.1,30.5 149.3,30.8 148.5,31.1 147.7,31.6 147,32.1 146.4,32.6 145.7,33.2 145.2,33.9 144.7,34.6 144.2,35.4 143.9,36.2 143.6,37 143.3,37.8 143.2,38.7 143.1,39.6 143.1,40.4 143.2,41.3 143.3,42.2 143.6,43 143.9,43.8 144.2,44.6 144.7,45.4 145.2,46.1 145.7,46.7 146.4,47.4 147,47.9 147.7,48.4 148.5,48.9 149.3,49.2 150.1,49.5 150.9,49.8 151.8,49.9 152.7,50 172.7,50" />
<path stroke="#000000" stroke-width="2" d="M 202.7,70" />
<path stroke="#000000" stroke-width="2" d="M 202.7,30 202.7,70 214,58.7" />
<path stroke="#000000" stroke-width="2" d="M 220.7,70" />
<path stroke="#000000" stroke-width="2" d="M 244.7,42" />
<path stroke="#000000" stroke-width="2" d="M 244.7,42 240.6,41.8 237.4,41.2 234.9,40.3 233.1,39.1 232,37.8 231.4,36.3 231.3,34.8 231.7,33.4 232.4,32 233.4,30.8 234.6,29.7 236,29 237.5,28.7 239,28.8 240.4,29.3 241.8,30.5 242.9,32.2 243.8,34.7 244.4,37.9 244.7,42 244.7,50" />
<path stroke="#000000" stroke-width="2" d="M 244.7,50 244,51.7 243.3,53.4 242.6,54.9 241.8,56.3 241,57.6 240.1,58.7 239.2,59.8 238.2,60.8 237.2,61.7 236.2,62.5 235.1,63.2 234,63.8 232.9,64.4 231.7,64.8 230.6,65.2 229.4,65.5 228.2,65.7 227.1,65.9 225.9,66 224.7,66" />
<path stroke="#000000" stroke-width="2" d="M 274.7,70" />
<path stroke="#000000" stroke-width="2" d="M 274.7,35" />
<path stroke="#000000" stroke-width="2" d="M 274.7,35 276.7,34.9 278.3,34.6 279.5,34.1 280.4,33.6 281,32.9 281.3,32.2 281.3,31.4 281.1,30.7 280.8,30 280.3,29.4 279.7,28.9 279,28.5 278.2,28.3 277.5,28.4 276.8,28.7 276.1,29.2 275.5,30.1 275.1,31.4 274.8,33 274.7,35 274.7,50" />
<path stroke="#000000" stroke-width="2" d="M 274.7,50 274.5,52 274.2,53.6 273.8,54.9 273.2,55.8 272.5,56.3 271.8,56.6 271.1,56.7 270.3,56.5 269.6,56.1 269,55.6 268.5,55 268.2,54.3 268,53.6 268,52.8 268.3,52.1 268.9,51.4 269.8,50.9 271,50.4 272.6,50.1 274.7,50 284.7,50 284.7,70 284.7,64 284.7,63.1 284.7,62.3 284.9,61.4 285.1,60.6 285.4,59.7 285.8,58.9 286.2,58.2 286.7,57.5 287.3,56.8 287.9,56.2 288.6,55.6 289.3,55.1 290,54.7 290.8,54.3 291.6,54 292.5,53.8 293.3,53.6 294.2,53.6" />
<path stroke="#000000" stroke-width="2" d="M 300.9,70" />
<path stroke="#000000" stroke-width="2" d="M 300.9,20 301.7,20 302.6,20.1 303.5,20.2 304.3,20.5 305.1,20.8 305.9,21.1 306.7,21.6 307.4,22.1 308.1,22.6 308.7,23.2 309.2,23.9 309.7,24.6 310.2,25.4 310.6,26.2 310.8,27 311.1,27.8 311.2,28.7 311.3,29.6 311.3,30.4 311.2,31.3 311.1,32.2 310.8,33 310.6,33.8 310.2,34.6 309.7,35.4 309.2,36.1 308.7,36.7 308.1,37.4 307.4,37.9 306.7,38.4 305.9,38.9 305.1,39.2 304.3,39.5 303.5,39.8 302.6,39.9 301.7,40" />
<path stroke="#000000" stroke-width="2" d="M 341.3,70" />
<path stroke="#000000" stroke-width="2" d="M 341.3,50 349,31.5 349,30.8 349,30.1 349.1,29.4 349.3,28.8 349.6,28.1 349.9,27.5 350.2,26.9 350.6,26.3 351.1,25.8 351.5,25.3 352.1,24.8 352.6,24.4 353.3,24.1 353.9,23.8 354.5,23.5 355.2,23.4 355.9,23.2 356.6,23.2 357.3,23.2 358,23.2 358.7,23.4 359.4,23.5 360,23.8 360.6,24.1 361.2,24.4 361.8,24.8 362.4,25.3 362.8,25.8 363.3,26.3 363.7,26.9 364,27.5 364.3,28.1 364.6,28.8 364.8,29.4 364.9,30.1 364.9,30.8 364.9,50.8 364.9,44.8 364.9,44 365,43.1 365.2,42.2 365.4,41.4 365.7,40.6 366.1,39.8 366.5,39 367,38.3 367.6,37.6 368.2,37 368.8,36.5 369.6,36 370.3,35.5 371.1,35.1 371.9,34.9 372.8,34.6 373.6,34.5 374.5,34.4" />
<path stroke="#000000" stroke-width="2" d="M 381.2,70" />
<path stroke="#000000" stroke-width="2" d="M 381.2,55" />
<path stroke="#000000" stroke-width="2" d="M 381.2,55 383.2,54.9 384.8,54.6 386,54.1 386.9,53.6 387.5,52.9 387.8,52.2 387.8,51.4 387.6,50.7 387.3,50 386.8,49.4 386.2,48.9 385.5,48.5 384.7,48.3 384,48.4 383.3,48.7 382.6,49.2 382,50.1 381.6,51.4 381.3,53 381.2,55 381.2,70" />
<path stroke="#000000" stroke-width="2" d="M 417.8,70" />
<path stroke="#000000" stroke-width="2" d="M 433.8,30 414,49.8 433.8,69.6" />
<path stroke="#000000" stroke-width="2" d="M 440.5,70" />
<path stroke="#000000" stroke-width="2" d="M 440.5,40" />
<path stroke="#000000" stroke-width="2" d="M 440.5,40 444.5,39.8 447.8,39.2 450.2,38.3 452,37.1 453.1,35.8 453.7,34.3 453.8,32.8 453.4,31.4 452.7,30 451.7,28.8 450.5,27.7 449.1,27 447.6,26.7 446.2,26.8 444.7,27.3 443.4,28.5 442.2,30.2 441.3,32.7 440.7,35.9 440.5,40 440.5,70" />
<path stroke="#000000" stroke-width="2" d="M 483.8,70" />
<path stroke="#000000" stroke-width="2" d="M 503.8,30 488.5,67" />
<path stroke="#000000" stroke-width="2" d="M 510.5,70" />
<path stroke="#000000" stroke-width="2" d="M 510.5,50 510.5,70 510.5,64 510.5,63.1 510.5,62.3 510.7,61.4 510.9,60.6 511.2,59.7 511.6,58.9 512,58.2 512.5,57.5 513.1,56.8 513.7,56.2 514.4,55.6 515.1,55.1 515.8,54.7 516.6,54.3 517.4,54 518.3,53.8 519.1,53.6 520,53.6" />
<path stroke="#000000" stroke-width="2" d="M 520,53.6 522,53.5 523.7,53.2 524.9,52.7 525.8,52.1 526.3,51.5 526.6,50.7 526.7,50 526.5,49.3 526.1,48.6 525.6,47.9 525,47.4 524.3,47.1 523.6,46.9 522.8,47 522.1,47.2 521.5,47.8 520.9,48.7 520.4,49.9 520.1,51.5 520,53.6 520,68.6" />
<path stroke="#000000" stroke-width="2" d="M 533.3,70" />
<path stroke="#000000" stroke-width="2" d="M 533.3,50 533.5,50 533.5,50.2 533.3,50.2 533.3,50" />
<path stroke="#000000" stroke-width="2" d="M 563.5,70" />
<path stroke="#000000" stroke-width="2" d="M 563.5,70 563.7,70 563.7,70.2 563.5,70.2 563.5,70" />
<path stroke="#000000" stroke-width="2" d="M 593.7,70" />
<path stroke="#000000" stroke-width="2" d="M 593.7,70 593.9,70 593.9,70.2 593.7,70.2 593.7,70" />
<path stroke="#000000" stroke-width="2" d="M 600.6,70" />
<path stroke="#000000" stroke-width="2" d="M 616.6,30 596.8,49.8 616.6,69.6" />
<path stroke="#000000" stroke-width="2" d="M 623.3,70" />
<path stroke="#000000" stroke-width="2" d="M 623.3,50 630.9,68.5" />
<path stroke="#000000" stroke-width="2" d="M 637.6,70" />
<path stroke="#000000" stroke-width="2" d="M 637.6,20 657.6,20" />
<path stroke="#000000" stroke-width="2" d="M 687.6,70" />
<path stroke="#000000" stroke-width="2" d="M 687.6,30 687.6,50 697.6,50 698.5,50 699.3,50.1 700.2,50.2 701,50.5 701.9,50.8 702.6,51.1 703.4,51.6 704.1,52.1 704.8,52.6 705.4,53.2 706,53.9 706.5,54.6 706.9,55.4 707.3,56.2 707.6,57 707.8,57.8 707.9,58.7 708,59.6 708,60.4 707.9,61.3 707.8,62.2 707.6,63 707.3,63.8 706.9,64.6 706.5,65.4 706,66.1 705.4,66.7 704.8,67.4 704.1,67.9 703.4,68.4 702.6,68.9 701.9,69.2 701,69.5 700.2,69.8 699.3,69.9 698.5,70 698.5,70.7 698.5,71.4 698.6,72.1 698.8,72.7 699.1,73.4 699.4,74 699.7,74.6 700.1,75.2 700.6,75.7 701,76.2 701.6,76.7 702.2,77.1 702.8,77.4 703.4,77.7 704,78 704.7,78.1 705.4,78.3 706.1,78.3 706.8,78.3 707.5,78.3 708.2,78.1 708.9,78 709.5,77.7 710.1,77.4 710.8,77.1 711.3,76.7 711.9,76.2 712.4,75.7 712.8,75.2 713.2,74.6 713.5,74 713.8,73.4 714.1,72.7 714.3,72.1 714.4,71.4 714.4,70.7" />
<path stroke="#000000" stroke-width="2" d="M 721.1,70" />
<path stroke="#000000" stroke-width="2" d="M 721.1,30 721.3,30 721.3,30.2 721.1,30.2 721.1,30" />
<path stroke="#000000" stroke-width="2" d="M 751.3,70" />
<path stroke="#000000" stroke-width="2" d="M 751.3,35" />
<path stroke="#000000" stroke-width="2" d="M 751.3,35 753.3,34.9 755,34.6 756.2,34.1 757.1,33.6 757.6,32.9 757.9,32.2 758,31.4 757.8,30.7 757.4,30 756.9,29.4 756.3,28.9 755.6,28.5 754.9,28.3 754.1,28.4 753.4,28.7 752.8,29.2 752.2,30.1 751.7,31.4 751.4,33 751.3,35 751.3,50 743.7,68.5 746,62.9 746.3,62.1 746.7,61.4 747.2,60.6 747.7,59.9 748.3,59.3 748.9,58.7 749.6,58.2 750.4,57.7 751.1,57.3 751.9,57 752.8,56.7 753.6,56.5" />
<path stroke="#000000" stroke-width="2" d="M 764.6,70" />
<path stroke="#000000" stroke-width="2" d="M 764.6,70 764.6,69.3 764.7,68.6 764.8,67.9 765,67.2 765.2,66.6 765.5,66 765.9,65.4 766.3,64.8 766.7,64.2 767.2,63.8 767.8,63.3 768.3,62.9 768.9,62.6 769.6,62.3 770.2,62 770.9,61.8 771.6,61.7 772.3,61.7 773,61.7 773.7,61.7 774.4,61.8 775,62 775.7,62.3 776.3,62.6 776.9,62.9 777.5,63.3 778,63.8 778.5,64.2 779,64.8 779.4,65.4 779.7,66 780,66.6 780.3,67.2 780.4,67.9 780.6,68.6 780.6,69.3 781.5,69.3 782.4,69.4 783.2,69.5 784.1,69.8 784.9,70.1 785.7,70.4 786.4,70.9 787.1,71.4 787.8,71.9 788.4,72.5 789,73.2 789.5,73.9 789.9,74.7 790.3,75.5 790.6,76.3 790.8,77.1 791,78 791,78.9 791,79.7 791,80.6 790.8,81.5 790.6,82.3 790.3,83.1 789.9,83.9 789.5,84.7 789,85.4 788.4,86 787.8,86.7 787.1,87.2 786.4,87.7 785.7,88.2 784.9,88.5 784.1,88.8 783.2,89.1 782.4,89.2 781.5,89.3" />
<path stroke="#000000" stroke-width="2" d="M 821,70" />
<path stroke="#000000" stroke-width="2" d="M 837,30 817.2,49.8 837,69.6" />
<path stroke="#000000" stroke-width="2" d="M 843.7,70" />
<path stroke="#000000" stroke-width="2" d="M 843.7,20 843.7,40 843.7,34 843.7,33.1 843.8,32.3 843.9,31.4 844.2,30.6 844.5,29.7 844.8,28.9 845.3,28.2 845.8,27.5 846.3,26.8 846.9,26.2 847.6,25.6 848.3,25.1 849.1,24.7 849.9,24.3 850.7,24 851.5,23.8 852.4,23.6 853.3,23.6" />
<path stroke="#000000" stroke-width="2" d="M 883.3,70" />
<path stroke="#000000" stroke-width="2" d="M 883.3,30 898.6,67" />
<path stroke="#000000" stroke-width="2" d="M 905.2,70" />
<path stroke="#000000" stroke-width="2" d="M 905.2,20 925.2,20" />
<path stroke="#000000" stroke-width="2" d="M 955.2,70" />
<path stroke="#000000" stroke-width="2" d="M 955.2,30 955.2,70 966.6,58.7" />
<path stroke="#000000" stroke-width="2" d="M 973.2,70" />
<path stroke="#000000" stroke-width="2" d="M 993.2,70 995,70 996.7,69.8 998.4,69.5 1000.1,69.1 1001.7,68.5 1003.3,67.8 1004.8,66.9 1006.3,65.9 1007.6,64.8 1008.8,63.5 1010,62.2 1011,60.8 1011.8,59.3 1012.6,57.7 1013.2,56 1013.6,54.3 1013.9,52.6 1014.1,50.9 1014.1,49.1 1013.9,47.4 1013.6,45.7 1013.2,44 1012.6,42.4 1011.8,40.8 1011,39.3 1010,37.8 1008.8,36.5 1007.6,35.3 1006.3,34.2 1004.8,33.2 1003.3,32.3 1001.7,31.5 1000.1,30.9 998.4,30.5 996.7,30.2 995,30 993.2,30 991.5,30.2 989.8,30.5 988.1,30.9 986.4,31.5 984.9,32.3 983.3,33.2 981.9,34.2 980.6,35.3 979.3,36.5 978.2,37.8 977.2,39.3 976.4,40.8 975.6,42.4 975,44 974.6,45.7 974.3,47.4 974.1,49.1 974.1,50.9 974.3,52.6 974.6,54.3 975,56 975.6,57.7 976.4,59.3 977.2,60.8 978.2,62.2 979.3,63.5 980.6,64.8 981.9,65.9 983.3,66.9 984.9,67.8 986.4,68.5 988.1,69.1 989.8,69.5 991.5,69.8 993.2,70" />
<path stroke="#000000" stroke-width="2" d="M 1044.1,70" />
<path stroke="#000000" stroke-width="2" d="M 1054.1,30 1053.2,30 1052.3,30.1 1051.5,30.2 1050.6,30.5 1049.8,30.8 1049,31.1 1048.3,31.6 1047.5,32.1 1046.9,32.6 1046.3,33.2 1045.7,33.9 1045.2,34.6 1044.8,35.4 1044.4,36.2 1044.1,37 1043.9,37.8 1043.7,38.7 1043.6,39.6 1043.6,40.4 1043.7,41.3 1043.9,42.2 1044.1,43 1044.4,43.8 1044.8,44.6 1045.2,45.4 1045.7,46.1 1046.3,46.7 1046.9,47.4 1047.5,47.9 1048.3,48.4 1049,48.9 1049.8,49.2 1050.6,49.5 1051.5,49.8 1052.3,49.9 1053.2,50 1073.2,50" />
<path stroke="#000000" stroke-width="2" d="M 1103.2,70" />
</svg>