<svg xmlns="http://www.w3.org/2000/svg" width="1649.1074889122194" height="108.55428834216522" style="fill:none; stroke-linecap:round;">
    <rect width="100%" height="100%" fill="#FFFFFF" />
<path stroke="#000000" stroke-width="2" d="M 550,75" />
<path stroke="#000000" stroke-width="2" d="M 20,30 20,31.4 20.1,32.8 20.4,34.2 20.7,35.5 21.2,36.8 21.8,38.1 22.5,39.3 23.3,40.4 24.2,41.5 25.2,42.5 26.2,43.4 27.4,44.2 28.6,44.9 29.9,45.5 31.2,46 32.5,46.3 33.9,46.6 35.3,46.7 36.7,46.7 38.1,46.6 39.4,46.3 40.8,46 42.1,45.5 43.4,44.9 44.6,44.2 45.7,43.4 46.8,42.5 47.8,41.5 48.7,40.4 49.5,39.3 50.2,38.1 50.8,36.8 51.2,35.5 51.6,34.2 51.8,32.8 52,31.4" />
<path stroke="#000000" stroke-width="2" d="M 58.6,70" />
<path stroke="#000000" stroke-width="2" d="M 58.6,70 58.6,68.6 58.8,67.2 59,65.8 59.4,64.5 59.8,63.2 60.4,61.9 61.1,60.7 61.9,59.6 62.8,58.5 63.8,57.5 64.9,56.6 66,55.8 67.2,55.1 68.5,54.5 69.8,54 71.2,53.7 72.5,53.4 73.9,53.3 75.3,53.3 76.7,53.4 78.1,53.7 79.4,54 80.7,54.5 82,55.1 83.2,55.8 84.4,56.6 85.4,57.5 86.4,58.5 87.3,59.6 88.1,60.7 88.8,61.9 89.4,63.2 89.9,64.5 90.2,65.8 90.5,67.2 90.6,68.6" />
<path stroke="#000000" stroke-width="2" d="M 120.6,70" />
<path stroke="#000000" stroke-width="2" d="M 120.6,40 120.8,40 120.8,40.2 120.6,40.2 120.6,40" />
<path stroke="#000000" stroke-width="2" d="M 127.5,70" />
<path stroke="#000000" stroke-width="2" d="M 129.5,50 134.8,37.1 135,36.7 135.1,36.4 135.1,36.1 135.2,35.7 135.2,35.4 135.2,35 135.1,34.7 135.1,34.3 135,34 134.8,33.7 134.7,33.4 134.5,33.1 134.3,32.8 134,32.5 133.8,32.3 133.5,32.1 133.2,31.9 132.9,31.7 132.6,31.6 132.2,31.5 131.9,31.4 131.6,31.4 131.2,31.4 130.9,31.4 130.5,31.4 130.2,31.5 129.8,31.6 129.5,31.7 129.2,31.9 128.9,32.1 128.6,32.3 128.4,32.5 128.1,32.8 127.9,33.1 127.7,33.4 127.6,33.7 127.4,34 127.3,34.3 127.3,34.7 127.2,35 127.2,35.4 127.2,35.7 127.3,36.1 127.3,36.4 127.4,36.7 127.6,37.1 127.7,37.4 127.9,37.7 128.1,37.9 128.4,38.2 128.6,38.4 128.9,38.7 129.2,38.8 129.5,39 129.8,39.1 130.2,39.2 130.5,39.3 130.9,39.4 131.2,39.4 131.6,39.4 144.5,34 136.8,52.5" />
<path stroke="#000000" stroke-width="2" d="M 151.2,70" />
<path stroke="#000000" stroke-width="2" d="M 151.2,20 151.2,40 151.2,34 151.2,33.1 151.2,32.3 151.4,31.4 151.6,30.6 151.9,29.7 152.3,28.9 152.7,28.2 153.2,27.5 153.8,26.8 154.4,26.2 155.1,25.6 155.8,25.1 156.5,24.7 157.3,24.3 158.1,24 159,23.8 159.8,23.6 160.7,23.6 180.7,23.6" />
<path stroke="#000000" stroke-width="2" d="M 187.4,70" />
<path stroke="#000000" stroke-width="2" d="M 207.4,30 192.1,67" />
<path stroke="#000000" stroke-width="2" d="M 214,70" />
<path stroke="#000000" stroke-width="2" d="M 214,30 214.2,30 214.2,30.2 214,30.2 214,30" />
<path stroke="#000000" stroke-width="2" d="M 244.2,70" />
<path stroke="#000000" stroke-width="2" d="M 244.2,70 244.4,70 244.4,70.2 244.2,70.2 244.2,70" />
<path stroke="#000000" stroke-width="2" d="M 274.4,70" />
<path stroke="#000000" stroke-width="2" d="M 274.4,30 314.4,30" />
<path stroke="#000000" stroke-width="2" d="M 344.4,70" />
<path stroke="#000000" stroke-width="2" d="M 344.4,30 344.4,70 344.4,58 344.4,56.3 344.6,54.5 344.9,52.8 345.3,51.1 345.9,49.5 346.7,47.9 347.6,46.4 348.6,45 349.7,43.6 350.9,42.4 352.2,41.3 353.7,40.3 355.2,39.4 356.8,38.7 358.4,38.1 360.1,37.6 361.8,37.3 363.6,37.1" />
<path stroke="#000000" stroke-width="2" d="M 370.2,70" />
<path stroke="#000000" stroke-width="2" d="M 370.2,40 377.9,21.5 377.9,22.2 377.9,22.9 378.1,23.6 378.2,24.3 378.5,24.9 378.8,25.6 379.1,26.2 379.5,26.7 380,27.3 380.5,27.8 381,28.2 381.6,28.6 382.2,29 382.8,29.3 383.5,29.5 384.1,29.7 384.8,29.8 385.5,29.9 386.2,29.9 386.9,29.8 387.6,29.7 388.3,29.5 388.9,29.3 389.6,29 390.2,28.6 390.7,28.2 391.3,27.8 391.8,27.3 392.2,26.7 392.6,26.2 393,25.6 393.3,24.9 393.5,24.3 393.7,23.6 393.8,22.9 393.9,22.2" />
<path stroke="#000000" stroke-width="2" d="M 400.5,70" />
<path stroke="#000000" stroke-width="2" d="M 420.5,30 405.2,67" />
<path stroke="#000000" stroke-width="2" d="M 427.2,70" />
<path stroke="#000000" stroke-width="2" d="M 427.2,30 427.4,30 427.4,30.2 427.2,30.2 427.2,30" />
<path stroke="#000000" stroke-width="2" d="M 457.4,70" />
<path stroke="#000000" stroke-width="2" d="M 457.4,30 457.4,50 467.4,50 459.7,68.5" />
<path stroke="#000000" stroke-width="2" d="M 497.4,70" />
<path stroke="#000000" stroke-width="2" d="M 497.4,30 497.4,70 508.7,58.7" />
<path stroke="#000000" stroke-width="2" d="M 515.4,70" />
<path stroke="#000000" stroke-width="2" d="M 515.4,25" />
<path stroke="#000000" stroke-width="2" d="M 515.4,25 517.4,24.9 519,24.6 520.2,24.1 521.1,23.6 521.7,22.9 522,22.2 522,21.4 521.8,20.7 521.5,20 521,19.4 520.4,18.9 519.7,18.5 519,18.3 518.2,18.4 517.5,18.7 516.8,19.2 516.2,20.1 515.8,21.4 515.5,23 515.4,25 515.4,40" />
<path stroke="#000000" stroke-width="2" d="M 552,70" />
<path stroke="#000000" stroke-width="2" d="M 562,30 561.2,30 560.3,30.1 559.4,30.2 558.6,30.5 557.8,30.8 557,31.1 556.2,31.6 555.5,32.1 554.8,32.6 554.2,33.2 553.7,33.9 553.2,34.6 552.7,35.4 552.3,36.2 552.1,37 551.8,37.8 551.7,38.7 551.6,39.6 551.6,40.4 551.7,41.3 551.8,42.2 552.1,43 552.3,43.8 552.7,44.6 553.2,45.4 553.7,46.1 554.2,46.7 554.8,47.4 555.5,47.9 556.2,48.4 557,48.9 557.8,49.2 558.6,49.5 559.4,49.8 560.3,49.9 561.2,50 581.2,50 581.2,50.7 581.2,51.4 581.3,52.1 581.5,52.7 581.8,53.4 582,54 582.4,54.6 582.8,55.2 583.2,55.7 583.7,56.2 584.3,56.7 584.8,57.1 585.4,57.4 586.1,57.7 586.7,58 587.4,58.1 588.1,58.3 588.8,58.3 589.5,58.3 590.2,58.3 590.9,58.1 591.5,58 592.2,57.7 592.8,57.4 593.4,57.1 594,56.7 594.5,56.2 595,55.7 595.5,55.2 595.9,54.6 596.2,54 596.5,53.4 596.8,52.7 597,52.1 597.1,51.4 597.1,50.7" />
<path stroke="#000000" stroke-width="2" d="M 603.8,70" />
<path stroke="#000000" stroke-width="2" d="M 603.8,30 604,30 604,30.2 603.8,30.2 603.8,30" />
<path stroke="#000000" stroke-width="2" d="M 634,70" />
<path stroke="#000000" stroke-width="2" d="M 644,30 636.3,48.5 636.3,68.5 642,62.8" />
<path stroke="#000000" stroke-width="2" d="M 650.7,70" />
<path stroke="#000000" stroke-width="2" d="M 650.7,50 650.9,50 650.9,50.2 650.7,50.2 650.7,50" />
<path stroke="#000000" stroke-width="2" d="M 680.9,70" />
<path stroke="#000000" stroke-width="2" d="M 680.9,50 688.5,31.5 696.2,50 716.2,50 717,50 717.9,50.1 718.8,50.2 719.6,50.5 720.4,50.8 721.2,51.1 722,51.6 722.7,52.1 723.4,52.6 724,53.2 724.5,53.9 725,54.6 725.5,55.4 725.9,56.2 726.2,57 726.4,57.8 726.5,58.7 726.6,59.6 726.6,60.4 726.5,61.3 726.4,62.2 726.2,63 725.9,63.8 725.5,64.6 725,65.4 724.5,66.1 724,66.7 723.4,67.4 722.7,67.9 722,68.4 721.2,68.9 720.4,69.2 719.6,69.5 718.8,69.8 717.9,69.9 717,70" />
<path stroke="#000000" stroke-width="2" d="M 756.6,70" />
<path stroke="#000000" stroke-width="2" d="M 756.6,40 756.8,40 756.8,40.2 756.6,40.2 756.6,40" />
<path stroke="#000000" stroke-width="2" d="M 763.5,70" />
<path stroke="#000000" stroke-width="2" d="M 779.5,30 759.7,49.8 779.5,69.6" />
<path stroke="#000000" stroke-width="2" d="M 786.1,70" />
<path stroke="#000000" stroke-width="2" d="M 786.1,20 786.1,20.7 786.2,21.4 786.3,22.1 786.5,22.8 786.7,23.4 787,24 787.4,24.6 787.8,25.2 788.2,25.8 788.7,26.2 789.3,26.7 789.8,27.1 790.4,27.4 791.1,27.7 791.7,28 792.4,28.2 793.1,28.3 793.8,28.3 794.5,28.3 795.2,28.3 795.9,28.2 796.5,28 797.2,27.7 797.8,27.4 798.4,27.1 799,26.7 799.5,26.2 800,25.8 800.5,25.2 800.9,24.6 801.2,24 801.5,23.4 801.8,22.8 801.9,22.1 802.1,21.4 802.1,20.7 807.1,20.7 807.1,40.7" />
<path stroke="#000000" stroke-width="2" d="M 837.1,70" />
<path stroke="#000000" stroke-width="2" d="M 837.1,30 852.4,67" />
<path stroke="#000000" stroke-width="2" d="M 859.1,70" />
<path stroke="#000000" stroke-width="2" d="M 859.1,30 899.1,30" />
<path stroke="#000000" stroke-width="2" d="M 905.8,70" />
<path stroke="#000000" stroke-width="2" d="M 915.8,50 908.1,68.5" />
<path stroke="#000000" stroke-width="2" d="M 908.1,68.5 910.1,68.4 911.8,68.1 913,67.6 913.9,67 914.4,66.4 914.7,65.6 914.8,64.9 914.6,64.2 914.2,63.5 913.7,62.9 913.1,62.4 912.4,62 911.7,61.8 910.9,61.9 910.2,62.1 909.5,62.7 909,63.6 908.5,64.8 908.2,66.4 908.1,68.5 908.1,83.5" />
<path stroke="#000000" stroke-width="2" d="M 945.8,70" />
<path stroke="#000000" stroke-width="2" d="M 955.8,30 954.9,30 954,30.1 953.2,30.2 952.3,30.5 951.5,30.8 950.7,31.1 950,31.6 949.2,32.1 948.6,32.6 948,33.2 947.4,33.9 946.9,34.6 946.5,35.4 946.1,36.2 945.8,37 945.6,37.8 945.4,38.7 945.3,39.6 945.3,40.4 945.4,41.3 945.6,42.2 945.8,43 946.1,43.8 946.5,44.6 946.9,45.4 947.4,46.1 948,46.7 948.6,47.4 949.2,47.9 950,48.4 950.7,48.9 951.5,49.2 952.3,49.5 953.2,49.8 954,49.9 954.9,50 954.9,70 954.9,64 954.9,63.1 955,62.2 955.1,61.4 955.3,60.5 955.6,59.7 956,58.9 956.4,58.2 956.9,57.5 957.5,56.8 958.1,56.2 958.8,55.6 959.5,55.1 960.3,54.7 961.1,54.3 961.9,54 962.7,53.8 963.6,53.6 964.4,53.6" />
<path stroke="#000000" stroke-width="2" d="M 994.4,70" />
<path stroke="#000000" stroke-width="2" d="M 994.4,40" />
<path stroke="#000000" stroke-width="2" d="M 994.4,40 998.5,39.8 1001.7,39.2 1004.2,38.3 1006,37.1 1007.1,35.8 1007.7,34.3 1007.8,32.8 1007.4,31.4 1006.7,30 1005.7,28.8 1004.5,27.7 1003.1,27 1001.6,26.7 1000.1,26.8 998.7,27.3 997.3,28.5 996.2,30.2 995.3,32.7 994.7,35.9 994.4,40 994.4,70" />
<path stroke="#000000" stroke-width="2" d="M 1014.4,70" />
<path stroke="#000000" stroke-width="2" d="M 1014.4,50 1014.6,50 1014.6,50.2 1014.4,50.2 1014.4,50" />
<path stroke="#000000" stroke-width="2" d="M 1044.6,70" />
<path stroke="#000000" stroke-width="2" d="M 1044.6,70 1044.8,70 1044.8,70.2 1044.6,70.2 1044.6,70" />
<path stroke="#000000" stroke-width="2" d="M 1074.8,70" />
<path stroke="#000000" stroke-width="2" d="M 1074.8,30 1084.8,30 1084.8,70" />
<path stroke="#000000" stroke-width="2" d="M 1091.5,70" />
<path stroke="#000000" stroke-width="2" d="M 1091.5,20 1111.5,20" />
<path stroke="#000000" stroke-width="2" d="M 1118.2,70" />
<path stroke="#000000" stroke-width="2" d="M 1118.2,30 1118.2,31.4 1118.3,32.8 1118.5,34.2 1118.9,35.5 1119.4,36.8 1119.9,38.1 1120.6,39.3 1121.4,40.4 1122.3,41.5 1123.3,42.5 1124.4,43.4 1125.5,44.2 1126.7,44.9 1128,45.5 1129.3,46 1130.7,46.3 1132,46.6 1133.4,46.7 1134.8,46.7 1136.2,46.6 1137.6,46.3 1138.9,46 1140.3,45.5 1141.5,44.9 1142.7,44.2 1143.9,43.4 1144.9,42.5 1145.9,41.5 1146.8,40.4 1147.6,39.3 1148.3,38.1 1148.9,36.8 1149.4,35.5 1149.8,34.2 1150,32.8 1150.1,31.4" />
<path stroke="#000000" stroke-width="2" d="M 1156.8,70" />
<path stroke="#000000" stroke-width="2" d="M 1156.8,30 1157,30 1157,30.2 1156.8,30.2 1156.8,30" />
<path stroke="#000000" stroke-width="2" d="M 1187,70" />
<path stroke="#000000" stroke-width="2" d="M 1187,30 1187,70 1207,70" />
<path stroke="#000000" stroke-width="2" d="M 1237,70" />
<path stroke="#000000" stroke-width="2" d="M 1237,30 1252.3,67" />
<path stroke="#000000" stroke-width="2" d="M 1259,70" />
<path stroke="#000000" stroke-width="2" d="M 1259,20 1279,20" />
<path stroke="#000000" stroke-width="2" d="M 1285.6,70" />
<path stroke="#000000" stroke-width="2" d="M 1295.6,20 1295.6,40 1285.6,40 1286.5,40 1287.4,40.1 1288.2,40.2 1289.1,40.5 1289.9,40.8 1290.7,41.1 1291.4,41.6 1292.2,42.1 1292.8,42.6 1293.4,43.2 1294,43.9 1294.5,44.6 1294.9,45.4 1295.3,46.2 1295.6,47 1295.8,47.8 1296,48.7 1296.1,49.6 1296.1,50.4 1296,51.3 1295.8,52.2 1295.6,53 1295.3,53.8 1294.9,54.6 1294.5,55.4 1294,56.1 1293.4,56.7 1292.8,57.4 1292.2,57.9 1291.4,58.4 1290.7,58.9 1289.9,59.2 1289.1,59.5 1288.2,59.8 1287.4,59.9 1286.5,60" />
<path stroke="#000000" stroke-width="2" d="M 1326.1,70" />
<path stroke="#000000" stroke-width="2" d="M 1346.1,30 1330.7,67" />
<path stroke="#000000" stroke-width="2" d="M 1352.7,70" />
<path stroke="#000000" stroke-width="2" d="M 1352.7,50 1362.6,59.9 1352.7,69.8" />
<path stroke="#000000" stroke-width="2" d="M 1369.3,70" />
<path stroke="#000000" stroke-width="2" d="M 1369.3,70 1369.3,69.3 1369.4,68.6 1369.5,67.9 1369.7,67.2 1369.9,66.6 1370.2,66 1370.5,65.4 1370.9,64.8 1371.4,64.2 1371.9,63.8 1372.4,63.3 1373,62.9 1373.6,62.6 1374.2,62.3 1374.9,62 1375.6,61.8 1376.2,61.7 1376.9,61.7 1377.6,61.7 1378.3,61.7 1379,61.8 1379.7,62 1380.3,62.3 1381,62.6 1381.6,62.9 1382.2,63.3 1382.7,63.8 1383.2,64.2 1383.6,64.8 1384,65.4 1384.4,66 1384.7,66.6 1384.9,67.2 1385.1,67.9 1385.2,68.6 1385.3,69.3" />
<path stroke="#000000" stroke-width="2" d="M 1415.3,70" />
<path stroke="#000000" stroke-width="2" d="M 1435.3,30 1433.5,30 1431.8,30.2 1430.1,30.5 1428.4,30.9 1426.7,31.5 1425.2,32.2 1423.7,33.1 1422.2,34.1 1420.9,35.2 1419.7,36.5 1418.5,37.8 1417.5,39.2 1416.7,40.7 1415.9,42.3 1415.3,44 1414.9,45.7 1414.6,47.4 1414.4,49.1 1414.4,50.9 1414.6,52.6 1414.9,54.3 1415.3,56 1415.9,57.6 1416.7,59.2 1417.5,60.7 1418.5,62.2 1419.7,63.5 1420.9,64.7 1422.2,65.8 1423.7,66.8 1425.2,67.7 1426.7,68.5 1428.4,69.1 1430.1,69.5 1431.8,69.8 1433.5,70" />
<path stroke="#000000" stroke-width="2" d="M 1433.5,50" />
<path stroke="#000000" stroke-width="2" d="M 1401.5,50 1441.5,50" />
<path stroke="#000000" stroke-width="2" d="M 1471.5,70" />
<path stroke="#000000" stroke-width="2" d="M 1471.5,40 1471.7,40 1471.7,40.2 1471.5,40.2 1471.5,40" />
<path stroke="#000000" stroke-width="2" d="M 1478.4,70" />
<path stroke="#000000" stroke-width="2" d="M 1478.4,30 1488.4,30 1488.4,70" />
<path stroke="#000000" stroke-width="2" d="M 1495.1,70" />
<path stroke="#000000" stroke-width="2" d="M 1495.1,20 1495.1,40 1500.7,34.3" />
<path stroke="#000000" stroke-width="2" d="M 1530.7,70" />
<path stroke="#000000" stroke-width="2" d="M 1530.7,30 1530.7,70 1542,58.7" />
<path stroke="#000000" stroke-width="2" d="M 1548.7,70" />
<path stroke="#000000" stroke-width="2" d="M 1548.7,50 1548.7,70 1548.7,64 1548.7,63.1 1548.8,62.3 1548.9,61.4 1549.2,60.6 1549.5,59.7 1549.8,58.9 1550.3,58.2 1550.8,57.5 1551.3,56.8 1551.9,56.2 1552.6,55.6 1553.3,55.1 1554.1,54.7 1554.9,54.3 1555.7,54 1556.5,53.8 1557.4,53.6 1558.3,53.6 1559.1,53.6 1560,53.6 1560.9,53.8 1561.7,54 1562.5,54.3 1563.3,54.7 1564.1,55.1 1564.8,55.6 1565.4,56.2 1566.1,56.8 1566.6,57.5 1567.1,58.2 1567.6,58.9 1567.9,59.7 1568.2,60.6 1568.5,61.4 1568.6,62.3 1568.7,63.1 1568.7,64 1568.6,64.9 1568.5,65.7 1568.2,66.6 1567.9,67.4 1567.6,68.2 1567.1,68.9 1566.6,69.7 1566.1,70.3 1565.4,70.9 1564.8,71.5 1564.1,72 1563.3,72.4 1562.5,72.8 1561.7,73.1 1560.9,73.3 1560,73.5 1559.1,73.6" />
<path stroke="#000000" stroke-width="2" d="M 1559.1,73.6 1561.2,73.4 1562.8,73.1 1564,72.7 1564.9,72.1 1565.5,71.4 1565.7,70.7 1565.8,70 1565.6,69.2 1565.3,68.5 1564.8,67.9 1564.1,67.4 1563.4,67.1 1562.7,66.9 1562,66.9 1561.2,67.2 1560.6,67.8 1560,68.7 1559.5,69.9 1559.2,71.5 1559.1,73.6 1559.1,88.6" />
<path stroke="#000000" stroke-width="2" d="M 1598.7,70" />
<path stroke="#000000" stroke-width="2" d="M 1598.7,30 1618.7,30 1619.6,30 1620.4,30.1 1621.3,30.2 1622.1,30.5 1622.9,30.8 1623.7,31.1 1624.5,31.6 1625.2,32.1 1625.9,32.6 1626.5,33.2 1627.1,33.9 1627.6,34.6 1628,35.4 1628.4,36.2 1628.7,37 1628.9,37.8 1629,38.7 1629.1,39.6 1629.1,40.4 1629,41.3 1628.9,42.2 1628.7,43 1628.4,43.8 1628,44.6 1627.6,45.4 1627.1,46.1 1626.5,46.7 1625.9,47.4 1625.2,47.9 1624.5,48.4 1623.7,48.9 1622.9,49.2 1622.1,49.5 1621.3,49.8 1620.4,49.9 1619.6,50" />
<path stroke="#000000" stroke-width="2" d="M 1659.1,70" />
</svg>