<svg xmlns="http://www.w3.org/2000/svg" width="1290.5032888232438" height="109.28305423379179" style="fill:none; stroke-linecap:round;">
    <rect width="100%" height="100%" fill="#FFFFFF" />
<path stroke="#000000" stroke-width="2" d="M 550,75" />
<path stroke="#000000" stroke-width="2" d="M 40,30 24.7,67" />
<path stroke="#000000" stroke-width="2" d="M 46.7,70" />
<path stroke="#000000" stroke-width="2" d="M 46.7,50 46.7,70" />
<path stroke="#000000" stroke-width="2" d="M 53.3,70" />
<path stroke="#000000" stroke-width="2" d="M 53.3,20 53.5,20 53.5,20.2 53.3,20.2 53.3,20" />
<path stroke="#000000" stroke-width="2" d="M 83.5,70" />
<path stroke="#000000" stroke-width="2" d="M 83.5,40 83.7,40 83.7,40.2 83.5,40.2 83.5,40" />
<path stroke="#000000" stroke-width="2" d="M 90.4,70" />
<path stroke="#000000" stroke-width="2" d="M 90.4,30 92.1,30 93.9,30.2 95.6,30.5 97.3,30.9 98.9,31.5 100.5,32.2 102,33.1 103.4,34.1 104.8,35.2 106,36.5 107.1,37.8 108.1,39.2 109,40.7 109.7,42.3 110.3,44 110.8,45.7 111.1,47.4 111.3,49.1 111.3,50.9 111.1,52.6 110.8,54.3 110.3,56 109.7,57.6 109,59.2 108.1,60.7 107.1,62.2 106,63.5 104.8,64.7 103.4,65.8 102,66.8 100.5,67.7 98.9,68.5 97.3,69.1 95.6,69.5 93.9,69.8 92.1,70 92.1,68.2 92.3,66.5 92.6,64.8 93.1,63.1 93.6,61.4 94.4,59.9 95.3,58.3 96.3,56.9 97.4,55.6 98.6,54.3 100,53.2 101.4,52.2 102.9,51.3 104.5,50.6 106.1,50 107.8,49.6 109.5,49.3 111.3,49.1" />
<path stroke="#000000" stroke-width="2" d="M 117.9,70" />
<path stroke="#000000" stroke-width="2" d="M 117.9,20 125.6,38.5" />
<path stroke="#000000" stroke-width="2" d="M 155.6,70" />
<path stroke="#000000" stroke-width="2" d="M 165.6,30 164.7,30 163.8,30.1 163,30.2 162.1,30.5 161.3,30.8 160.5,31.1 159.8,31.6 159,32.1 158.4,32.6 157.8,33.2 157.2,33.9 156.7,34.6 156.3,35.4 155.9,36.2 155.6,37 155.4,37.8 155.2,38.7 155.1,39.6 155.1,40.4 155.2,41.3 155.4,42.2 155.6,43 155.9,43.8 156.3,44.6 156.7,45.4 157.2,46.1 157.8,46.7 158.4,47.4 159,47.9 159.8,48.4 160.5,48.9 161.3,49.2 162.1,49.5 163,49.8 163.8,49.9 164.7,50 164.7,70 164.7,64 164.7,63.1 164.8,62.2 164.9,61.4 165.2,60.5 165.5,59.7 165.8,58.9 166.3,58.2 166.8,57.5 167.3,56.8 167.9,56.2 168.6,55.6 169.3,55.1 170.1,54.7 170.9,54.3 171.7,54 172.5,53.8 173.4,53.6 174.3,53.6" />
<path stroke="#000000" stroke-width="2" d="M 204.3,70" />
<path stroke="#000000" stroke-width="2" d="M 204.3,40" />
<path stroke="#000000" stroke-width="2" d="M 204.3,40 208.3,39.8 211.5,39.2 214,38.3 215.8,37.1 216.9,35.8 217.5,34.3 217.6,32.8 217.2,31.4 216.5,30 215.5,28.8 214.3,27.7 212.9,27 211.4,26.7 209.9,26.8 208.5,27.3 207.1,28.5 206,30.2 205.1,32.7 204.5,35.9 204.3,40 204.3,70" />
<path stroke="#000000" stroke-width="2" d="M 224.2,70" />
<path stroke="#000000" stroke-width="2" d="M 224.2,50 231.9,68.5" />
<path stroke="#000000" stroke-width="2" d="M 261.9,70" />
<path stroke="#000000" stroke-width="2" d="M 261.9,30 271.9,30 271.9,70" />
<path stroke="#000000" stroke-width="2" d="M 278.6,70" />
<path stroke="#000000" stroke-width="2" d="M 278.6,70 278.6,69.3 278.6,68.6 278.7,67.9 278.9,67.2 279.2,66.6 279.4,66 279.8,65.4 280.2,64.8 280.6,64.2 281.1,63.8 281.7,63.3 282.2,62.9 282.8,62.6 283.5,62.3 284.1,62 284.8,61.8 285.5,61.7 286.2,61.7 286.9,61.7 287.6,61.7 288.3,61.8 288.9,62 289.6,62.3 290.2,62.6 290.8,62.9 291.4,63.3 291.9,63.8 292.4,64.2 292.9,64.8 293.3,65.4 293.6,66 293.9,66.6 294.2,67.2 294.4,67.9 294.5,68.6 294.5,69.3 295.4,69.3 296.3,69.4 297.1,69.5 298,69.8 298.8,70.1 299.6,70.4 300.3,70.9 301.1,71.4 301.7,71.9 302.3,72.5 302.9,73.2 303.4,73.9 303.8,74.7 304.2,75.5 304.5,76.3 304.7,77.1 304.9,78 305,78.9 305,79.7 304.9,80.6 304.7,81.5 304.5,82.3 304.2,83.1 303.8,83.9 303.4,84.7 302.9,85.4 302.3,86 301.7,86.7 301.1,87.2 300.3,87.7 299.6,88.2 298.8,88.5 298,88.8 297.1,89.1 296.3,89.2 295.4,89.3" />
<path stroke="#000000" stroke-width="2" d="M 335,70" />
<path stroke="#000000" stroke-width="2" d="M 335,30 338.8,39.2" />
<path stroke="#000000" stroke-width="2" d="M 338.8,39.2 340.7,41.4 342,43.3 342.8,45 343.1,46.4 343,47.7 342.6,48.7 341.9,49.5 340.9,50 339.9,50.4 338.8,50.5 337.7,50.4 336.6,50 335.7,49.5 335,48.7 334.6,47.7 334.5,46.4 334.8,45 335.5,43.3 336.9,41.4 338.8,39.2 342.6,30" />
<path stroke="#000000" stroke-width="2" d="M 342.6,30 342.5,32 342.2,33.6 341.8,34.9 341.2,35.8 340.5,36.3 339.8,36.6 339,36.7 338.3,36.5 337.6,36.1 337,35.6 336.5,35 336.1,34.3 336,33.6 336,32.8 336.3,32.1 336.9,31.4 337.7,30.9 339,30.4 340.6,30.1 342.6,30 352.6,30" />
<path stroke="#000000" stroke-width="2" d="M 382.6,70" />
<path stroke="#000000" stroke-width="2" d="M 398.6,30 378.8,49.8 398.6,69.6" />
<path stroke="#000000" stroke-width="2" d="M 405.3,70" />
<path stroke="#000000" stroke-width="2" d="M 405.3,20 405.3,20.7 405.3,21.4 405.5,22.1 405.6,22.8 405.9,23.4 406.2,24 406.5,24.6 406.9,25.2 407.4,25.8 407.9,26.2 408.4,26.7 409,27.1 409.6,27.4 410.2,27.7 410.9,28 411.5,28.2 412.2,28.3 412.9,28.3 413.6,28.3 414.3,28.3 415,28.2 415.7,28 416.3,27.7 417,27.4 417.6,27.1 418.1,26.7 418.7,26.2 419.2,25.8 419.6,25.2 420,24.6 420.4,24 420.7,23.4 420.9,22.8 421.1,22.1 421.2,21.4 421.3,20.7" />
<path stroke="#000000" stroke-width="2" d="M 427.9,70" />
<path stroke="#000000" stroke-width="2" d="M 427.9,55" />
<path stroke="#000000" stroke-width="2" d="M 427.9,55 430,54.9 431.6,54.6 432.8,54.1 433.7,53.6 434.3,52.9 434.5,52.2 434.6,51.4 434.4,50.7 434.1,50 433.6,49.4 432.9,48.9 432.3,48.5 431.5,48.3 430.8,48.4 430,48.7 429.4,49.2 428.8,50.1 428.3,51.4 428,53 427.9,55 427.9,70" />
<path stroke="#000000" stroke-width="2" d="M 441.3,70" />
<path stroke="#000000" stroke-width="2" d="M 441.3,30 481.3,30" />
<path stroke="#000000" stroke-width="2" d="M 487.9,70" />
<path stroke="#000000" stroke-width="2" d="M 495.9,20 495.9,35" />
<path stroke="#000000" stroke-width="2" d="M 495.9,35 495.8,37 495.5,38.6 495.1,39.9 494.5,40.8 493.8,41.3 493.1,41.6 492.3,41.7 491.6,41.5 490.9,41.1 490.3,40.6 489.8,40 489.4,39.3 489.3,38.6 489.3,37.8 489.6,37.1 490.2,36.4 491,35.9 492.3,35.4 493.9,35.1 495.9,35 515.9,35" />
<path stroke="#000000" stroke-width="2" d="M 545.9,70" />
<path stroke="#000000" stroke-width="2" d="M 545.9,70 546.1,70 546.1,70.2 545.9,70.2 545.9,70" />
<path stroke="#000000" stroke-width="2" d="M 576.1,70" />
<path stroke="#000000" stroke-width="2" d="M 576.1,30 576.1,50 586.1,50 578.5,68.5" />
<path stroke="#000000" stroke-width="2" d="M 578.5,68.5 580.5,68.4 582.1,68.1 583.3,67.6 584.2,67 584.8,66.4 585.1,65.6 585.1,64.9 584.9,64.2 584.6,63.5 584.1,62.9 583.5,62.4 582.8,62 582.1,61.8 581.3,61.9 580.6,62.1 579.9,62.7 579.3,63.6 578.9,64.8 578.6,66.4 578.5,68.5 578.5,83.5" />
<path stroke="#000000" stroke-width="2" d="M 616.1,70" />
<path stroke="#000000" stroke-width="2" d="M 616.1,30 616.1,70 627.4,58.7" />
<path stroke="#000000" stroke-width="2" d="M 634.1,70" />
<path stroke="#000000" stroke-width="2" d="M 644.1,20 636.4,38.5" />
<path stroke="#000000" stroke-width="2" d="M 674.1,70" />
<path stroke="#000000" stroke-width="2" d="M 674.1,30 674.1,31.4 674.2,32.8 674.5,34.2 674.8,35.5 675.3,36.8 675.9,38.1 676.6,39.3 677.4,40.4 678.3,41.5 679.3,42.5 680.3,43.4 681.5,44.2 682.7,44.9 684,45.5 685.3,46 686.6,46.3 688,46.6 689.4,46.7 690.8,46.7 692.2,46.6 693.6,46.3 694.9,46 696.2,45.5 697.5,44.9 698.7,44.2 699.8,43.4 700.9,42.5 701.9,41.5 702.8,40.4 703.6,39.3 704.3,38.1 704.9,36.8 705.3,35.5 705.7,34.2 706,32.8 706.1,31.4" />
<path stroke="#000000" stroke-width="2" d="M 712.7,70" />
<path stroke="#000000" stroke-width="2" d="M 712.7,20 713.6,20 714.5,20.1 715.3,20.2 716.2,20.5 717,20.8 717.8,21.1 718.5,21.6 719.3,22.1 719.9,22.6 720.5,23.2 721.1,23.9 721.6,24.6 722,25.4 722.4,26.2 722.7,27 722.9,27.8 723.1,28.7 723.2,29.6 723.2,30.4 723.1,31.3 722.9,32.2 722.7,33 722.4,33.8 722,34.6 721.6,35.4 721.1,36.1 720.5,36.7 719.9,37.4 719.3,37.9 718.5,38.4 717.8,38.9 717,39.2 716.2,39.5 715.3,39.8 714.5,39.9 713.6,40" />
<path stroke="#000000" stroke-width="2" d="M 713.6,40 715.6,39.9 717.3,39.6 718.5,39.1 719.4,38.5 719.9,37.9 720.2,37.1 720.3,36.4 720.1,35.7 719.7,35 719.2,34.4 718.6,33.9 717.9,33.5 717.2,33.3 716.4,33.4 715.7,33.7 715.1,34.2 714.5,35.1 714,36.3 713.7,38 713.6,40 713.6,55" />
<path stroke="#000000" stroke-width="2" d="M 753.2,70" />
<path stroke="#000000" stroke-width="2" d="M 753.2,30 768.5,67" />
<path stroke="#000000" stroke-width="2" d="M 775.1,70" />
<path stroke="#000000" stroke-width="2" d="M 785.1,20 777.5,38.5" />
<path stroke="#000000" stroke-width="2" d="M 791.8,70" />
<path stroke="#000000" stroke-width="2" d="M 791.8,50 791.8,70" />
<path stroke="#000000" stroke-width="2" d="M 798.5,70" />
<path stroke="#000000" stroke-width="2" d="M 798.5,20 798.5,20.7 798.5,21.4 798.7,22.1 798.8,22.8 799.1,23.4 799.4,24 799.7,24.6 800.1,25.2 800.6,25.8 801.1,26.2 801.6,26.7 802.2,27.1 802.8,27.4 803.4,27.7 804.1,28 804.7,28.2 805.4,28.3 806.1,28.3 806.8,28.3 807.5,28.3 808.2,28.2 808.9,28 809.5,27.7 810.2,27.4 810.8,27.1 811.3,26.7 811.9,26.2 812.4,25.8 812.8,25.2 813.2,24.6 813.6,24 813.9,23.4 814.1,22.8 814.3,22.1 814.4,21.4 814.5,20.7" />
<path stroke="#000000" stroke-width="2" d="M 821.1,70" />
<path stroke="#000000" stroke-width="2" d="M 821.1,30 836.4,67 851.7,30" />
<path stroke="#000000" stroke-width="2" d="M 881.7,70" />
<path stroke="#000000" stroke-width="2" d="M 881.7,70 881.9,70 881.9,70.2 881.7,70.2 881.7,70" />
<path stroke="#000000" stroke-width="2" d="M 888.6,70" />
<path stroke="#000000" stroke-width="2" d="M 904.6,30 884.8,49.8 904.6,69.6" />
<path stroke="#000000" stroke-width="2" d="M 911.3,70" />
<path stroke="#000000" stroke-width="2" d="M 911.3,50 911.3,50.7 911.3,51.4 911.5,52.1 911.6,52.8 911.9,53.4 912.2,54 912.5,54.6 912.9,55.2 913.4,55.8 913.9,56.2 914.4,56.7 915,57.1 915.6,57.4 916.2,57.7 916.9,58 917.5,58.2 918.2,58.3 918.9,58.3 919.6,58.3 920.3,58.3 921,58.2 921.7,58 922.3,57.7 923,57.4 923.6,57.1 924.1,56.7 924.7,56.2 925.2,55.8 925.6,55.2 926,54.6 926.4,54 926.7,53.4 926.9,52.8 927.1,52.1 927.2,51.4 927.3,50.7" />
<path stroke="#000000" stroke-width="2" d="M 957.3,70" />
<path stroke="#000000" stroke-width="2" d="M 981.3,42 981.3,43 981.2,44.1 981,45.1 980.7,46.1 980.4,47.1 979.9,48.1 979.4,49 978.8,49.8 978.1,50.6 977.4,51.4 976.6,52 975.7,52.6 974.8,53.2 973.9,53.6 972.9,54 971.9,54.2 970.8,54.4 969.8,54.5 968.7,54.5 967.7,54.4 966.7,54.2 965.7,54 964.7,53.6 963.7,53.2 962.8,52.6 962,52 961.2,51.4 960.4,50.6 959.7,49.8 959.1,49 958.6,48.1 958.2,47.1 957.8,46.1 957.6,45.1 957.4,44.1 957.3,43 957.3,42 957.4,41 957.6,39.9 957.8,38.9 958.2,37.9 958.6,37 959.1,36.1 959.7,35.2 960.4,34.4 961.2,33.7 962,33 962.8,32.4 963.7,31.9 964.7,31.4 965.7,31.1 966.7,30.8 967.7,30.6 968.7,30.5 969.8,30.5 970.8,30.6 971.9,30.8 972.9,31.1 973.9,31.4 974.8,31.9 975.7,32.4 976.6,33 977.4,33.7 978.1,34.4 978.8,35.2 979.4,36.1 979.9,37 980.4,37.9 980.7,38.9 981,39.9 981.2,41 981.3,42 981.3,50" />
<path stroke="#000000" stroke-width="2" d="M 981.3,50 980.6,51.7 979.9,53.4 979.2,54.9 978.4,56.3 977.6,57.6 976.7,58.7 975.8,59.8 974.8,60.8 973.8,61.7 972.8,62.5 971.7,63.2 970.6,63.8 969.5,64.4 968.3,64.8 967.2,65.2 966,65.5 964.8,65.7 963.7,65.9 962.5,66 961.3,66" />
<path stroke="#000000" stroke-width="2" d="M 1011.3,70" />
<path stroke="#000000" stroke-width="2" d="M 1011.3,30 1011.3,70 1022.6,58.7" />
<path stroke="#000000" stroke-width="2" d="M 1029.2,70" />
<path stroke="#000000" stroke-width="2" d="M 1029.2,25" />
<path stroke="#000000" stroke-width="2" d="M 1029.2,25 1031.3,24.9 1032.9,24.6 1034.1,24.1 1035,23.6 1035.6,22.9 1035.9,22.2 1035.9,21.4 1035.7,20.7 1035.4,20 1034.9,19.4 1034.2,18.9 1033.6,18.5 1032.8,18.3 1032.1,18.4 1031.3,18.7 1030.7,19.2 1030.1,20.1 1029.6,21.4 1029.3,23 1029.2,25 1029.2,40" />
<path stroke="#000000" stroke-width="2" d="M 1065.9,70" />
<path stroke="#000000" stroke-width="2" d="M 1065.9,30 1105.9,30" />
<path stroke="#000000" stroke-width="2" d="M 1135.9,70" />
<path stroke="#000000" stroke-width="2" d="M 1135.9,30 1145.9,30 1145.9,70" />
<path stroke="#000000" stroke-width="2" d="M 1152.6,70" />
<path stroke="#000000" stroke-width="2" d="M 1152.6,40 1152.6,39.3 1152.6,38.6 1152.7,37.9 1152.9,37.2 1153.2,36.6 1153.5,36 1153.8,35.4 1154.2,34.8 1154.7,34.2 1155.1,33.8 1155.7,33.3 1156.3,32.9 1156.9,32.6 1157.5,32.3 1158.1,32 1158.8,31.8 1159.5,31.7 1160.2,31.7 1160.9,31.7 1161.6,31.7 1162.3,31.8 1163,32 1163.6,32.3 1164.2,32.6 1164.8,32.9 1165.4,33.3 1166,33.8 1166.4,34.2 1166.9,34.8 1167.3,35.4 1167.6,36 1167.9,36.6 1168.2,37.2 1168.4,37.9 1168.5,38.6 1168.5,39.3 1160.9,57.8" />
<path stroke="#000000" stroke-width="2" d="M 1198.5,70" />
<path stroke="#000000" stroke-width="2" d="M 1198.5,30 1198.5,70 1198.5,58 1198.5,56.3 1198.7,54.5 1199,52.8 1199.4,51.1 1200,49.5 1200.8,47.9 1201.7,46.4 1202.7,45 1203.8,43.6 1205,42.4 1206.3,41.3 1207.8,40.3 1209.3,39.4 1210.9,38.7 1212.5,38.1 1214.2,37.6 1215.9,37.3 1217.7,37.1" />
<path stroke="#000000" stroke-width="2" d="M 1224.3,70" />
<path stroke="#000000" stroke-width="2" d="M 1224.3,20 1224.3,20.7 1224.4,21.4 1224.5,22.1 1224.7,22.8 1224.9,23.4 1225.2,24 1225.6,24.6 1226,25.2 1226.4,25.8 1226.9,26.2 1227.4,26.7 1228,27.1 1228.6,27.4 1229.2,27.7 1229.9,28 1230.6,28.2 1231.3,28.3 1232,28.3 1232.7,28.3 1233.4,28.3 1234,28.2 1234.7,28 1235.4,27.7 1236,27.4 1236.6,27.1 1237.2,26.7 1237.7,26.2 1238.2,25.8 1238.7,25.2 1239.1,24.6 1239.4,24 1239.7,23.4 1239.9,22.8 1240.1,22.1 1240.2,21.4 1240.3,20.7" />
<path stroke="#000000" stroke-width="2" d="M 1270.3,70" />
<path stroke="#000000" stroke-width="2" d="M 1270.3,70 1270.5,70 1270.5,70.2 1270.3,70.2 1270.3,70" />
<path stroke="#000000" stroke-width="2" d="M 1300.5,70" />
</svg>