<svg xmlns="http://www.w3.org/2000/svg" width="1382.9459380124815" height="91.77968045238036" style="fill:none; stroke-linecap:round;">
    <rect width="100%" height="100%" fill="#FFFFFF" />
<path stroke="#000000" stroke-width="2" d="M 550,75" />
<path stroke="#000000" stroke-width="2" d="M 20,30 20,70 40,70" />
<path stroke="#000000" stroke-width="2" d="M 70,70" />
<path stroke="#000000" stroke-width="2" d="M 70,30 70,70" />
<path stroke="#000000" stroke-width="2" d="M 76.7,70" />
<path stroke="#000000" stroke-width="2" d="M 76.7,20 76.7,24 76.7,24.5 76.7,25 76.8,25.6 76.9,26.1 77.1,26.6 77.3,27 77.6,27.5 77.9,27.9 78.2,28.3 78.6,28.7 79,29 79.4,29.3 79.9,29.6 80.4,29.8 80.9,30 81.4,30.1 81.9,30.2 82.4,30.3 82.9,30.3 83.4,30.2 84,30.1 84.5,30 85,29.8 85.4,29.6 85.9,29.3 86.3,29 86.7,28.7 87.1,28.3 87.4,27.9 87.7,27.5 88,27 88.2,26.6 88.4,26.1 88.5,25.6 88.6,25 88.7,24.5 88.7,19.5 88.7,39.5" />
<path stroke="#000000" stroke-width="2" d="M 95.3,70" />
<path stroke="#000000" stroke-width="2" d="M 95.3,20 115.3,20" />
<path stroke="#000000" stroke-width="2" d="M 145.3,70" />
<path stroke="#000000" stroke-width="2" d="M 165.3,30 150,67" />
<path stroke="#000000" stroke-width="2" d="M 172,70" />
<path stroke="#000000" stroke-width="2" d="M 172,58 172,57.3 172,56.6 172.2,55.9 172.4,55.2 172.6,54.6 172.9,54 173.2,53.4 173.6,52.8 174.1,52.2 174.6,51.8 175.1,51.3 175.7,50.9 176.3,50.6 176.9,50.3 177.6,50 178.2,49.8 178.9,49.7 179.6,49.7 180.3,49.7 181,49.7 181.7,49.8 182.4,50 183,50.3 183.7,50.6 184.3,50.9 184.9,51.3 185.4,51.8 185.9,52.2 186.3,52.8 186.7,53.4 187.1,54 187.4,54.6 187.6,55.2 187.8,55.9 187.9,56.6 188,57.3" />
<path stroke="#000000" stroke-width="2" d="M 188,53.3" />
<path stroke="#000000" stroke-width="2" d="M 182,53.3 198,53.3 190.3,71.8" />
<path stroke="#000000" stroke-width="2" d="M 204.6,70" />
<path stroke="#000000" stroke-width="2" d="M 204.6,20 212.3,38.5" />
<path stroke="#000000" stroke-width="2" d="M 212.3,38.5 212.2,36.4 211.9,34.8 211.4,33.6 210.9,32.7 210.2,32.1 209.5,31.9 208.7,31.8 208,32 207.3,32.4 206.7,32.9 206.2,33.5 205.8,34.2 205.6,34.9 205.7,35.6 206,36.4 206.5,37 207.4,37.6 208.6,38.1 210.3,38.4 212.3,38.5 216.3,38.5" />
<path stroke="#000000" stroke-width="2" d="M 216.3,38.5 217.2,38.2 218,37.8 218.7,37.4 219.4,37.1 220.1,36.6 220.7,36.2 221.2,35.7 221.7,35.2 222.1,34.7 222.5,34.2 222.9,33.7 223.2,33.1 223.5,32.6 223.7,32 223.9,31.4 224,30.9 224.2,30.3 224.2,29.7 224.3,29.1 224.3,28.5" />
<path stroke="#000000" stroke-width="2" d="M 231,70" />
<path stroke="#000000" stroke-width="2" d="M 241,20 233.3,38.5" />
<path stroke="#000000" stroke-width="2" d="M 271,70" />
<path stroke="#000000" stroke-width="2" d="M 271,30 271,70 282.3,58.7" />
<path stroke="#000000" stroke-width="2" d="M 288.9,70" />
<path stroke="#000000" stroke-width="2" d="M 298.9,20 291.3,38.5" />
<path stroke="#000000" stroke-width="2" d="M 328.9,70" />
<path stroke="#000000" stroke-width="2" d="M 348.9,30 333.6,67" />
<path stroke="#000000" stroke-width="2" d="M 355.6,70" />
<path stroke="#000000" stroke-width="2" d="M 355.6,50" />
<path stroke="#000000" stroke-width="2" d="M 355.6,50 357,50.1 358.3,50.6 359.4,51.2 360.4,52.1 361.2,53.1 361.9,54.3 362.4,55.6 362.8,57 363,58.5 363.1,60 363,61.5 362.8,63 362.4,64.4 361.9,65.7 361.2,66.9 360.4,67.9 359.4,68.8 358.3,69.4 357,69.9 355.6,70" />
<path stroke="#000000" stroke-width="2" d="M 369.8,70" />
<path stroke="#000000" stroke-width="2" d="M 369.8,50 389.8,50" />
<path stroke="#000000" stroke-width="2" d="M 396.4,70" />
<path stroke="#000000" stroke-width="2" d="M 416.4,20 396.6,39.8" />
<path stroke="#000000" stroke-width="2" d="M 396.6,19.8 416.4,39.6 408.8,58.1" />
<path stroke="#000000" stroke-width="2" d="M 446.4,70" />
<path stroke="#000000" stroke-width="2" d="M 446.4,30 446.4,70 457.8,58.7" />
<path stroke="#000000" stroke-width="2" d="M 464.4,70" />
<path stroke="#000000" stroke-width="2" d="M 464.4,20 484.4,20" />
<path stroke="#000000" stroke-width="2" d="M 514.4,70" />
<path stroke="#000000" stroke-width="2" d="M 514.4,30 514.4,70 534.4,70" />
<path stroke="#000000" stroke-width="2" d="M 564.4,70" />
<path stroke="#000000" stroke-width="2" d="M 564.4,30 564.4,70 575.7,58.7" />
<path stroke="#000000" stroke-width="2" d="M 582.4,70" />
<path stroke="#000000" stroke-width="2" d="M 582.4,25" />
<path stroke="#000000" stroke-width="2" d="M 582.4,25 584.4,24.9 586,24.6 587.3,24.1 588.2,23.6 588.7,22.9 589,22.2 589.1,21.4 588.9,20.7 588.5,20 588,19.4 587.4,18.9 586.7,18.5 586,18.3 585.2,18.4 584.5,18.7 583.8,19.2 583.3,20.1 582.8,21.4 582.5,23 582.4,25 582.4,40" />
<path stroke="#000000" stroke-width="2" d="M 619.1,70" />
<path stroke="#000000" stroke-width="2" d="M 619.1,30 619.1,50 619.1,50.7 619.1,51.4 619.2,52.1 619.4,52.8 619.7,53.4 620,54 620.3,54.6 620.7,55.2 621.2,55.8 621.6,56.2 622.2,56.7 622.7,57.1 623.4,57.4 624,57.7 624.6,58 625.3,58.2 626,58.3 626.7,58.3 627.4,58.3 628.1,58.3 628.8,58.2 629.5,58 630.1,57.7 630.7,57.4 631.3,57.1 631.9,56.7 632.5,56.2 632.9,55.8 633.4,55.2 633.8,54.6 634.1,54 634.4,53.4 634.7,52.8 634.9,52.1 635,51.4 635,50.7" />
<path stroke="#000000" stroke-width="2" d="M 641.7,70" />
<path stroke="#000000" stroke-width="2" d="M 641.7,30 661.7,30" />
<path stroke="#000000" stroke-width="2" d="M 661.7,30 663.1,30.1 664.4,30.6 665.5,31.2 666.5,32.1 667.3,33.1 668,34.3 668.5,35.6 668.9,37 669.1,38.5 669.2,40 669.1,41.5 668.9,43 668.5,44.4 668,45.7 667.3,46.9 666.5,47.9 665.5,48.8 664.4,49.4 663.1,49.9 661.7,50" />
<path stroke="#000000" stroke-width="2" d="M 661.7,50 663.1,50.1 664.4,50.6 665.5,51.2 666.5,52.1 667.3,53.1 668,54.3 668.5,55.6 668.9,57 669.1,58.5 669.2,60 669.1,61.5 668.9,63 668.5,64.4 668,65.7 667.3,66.9 666.5,67.9 665.5,68.8 664.4,69.4 663.1,69.9 661.7,70" />
<path stroke="#000000" stroke-width="2" d="M 699.2,70" />
<path stroke="#000000" stroke-width="2" d="M 699.2,30 699.2,70" />
<path stroke="#000000" stroke-width="2" d="M 705.9,70" />
<path stroke="#000000" stroke-width="2" d="M 705.9,30 706.1,30 706.1,30.2 705.9,30.2 705.9,30" />
<path stroke="#000000" stroke-width="2" d="M 736.1,70" />
<path stroke="#000000" stroke-width="2" d="M 736.1,40 736.3,40 736.3,40.2 736.1,40.2 736.1,40" />
<path stroke="#000000" stroke-width="2" d="M 742.9,70" />
<path stroke="#000000" stroke-width="2" d="M 742.9,30 742.9,70 742.9,62 742.9,60.3 743.1,58.5 743.4,56.8 743.8,55.1 744.4,53.5 745.2,51.9 746.1,50.4 747.1,49 748.2,47.6 749.4,46.4 750.7,45.3 752.2,44.3" />
<path stroke="#000000" stroke-width="2" d="M 758.8,70" />
<path stroke="#000000" stroke-width="2" d="M 778.8,30 763.5,67" />
<path stroke="#000000" stroke-width="2" d="M 808.8,70" />
<path stroke="#000000" stroke-width="2" d="M 808.8,30 813.8,30 813.8,50 813.8,50.7 813.9,51.4 814,52.1 814.2,52.8 814.4,53.4 814.7,54 815.1,54.6 815.5,55.2 815.9,55.8 816.4,56.2 817,56.7 817.5,57.1 818.1,57.4 818.8,57.7 819.4,58 820.1,58.2 820.8,58.3 821.5,58.3 822.2,58.3 822.9,58.3 823.6,58.2 824.2,58 824.9,57.7 825.5,57.4 826.1,57.1 826.7,56.7 827.2,56.2 827.7,55.8 828.2,55.2 828.6,54.6 828.9,54 829.2,53.4 829.5,52.8 829.6,52.1 829.8,51.4 829.8,50.7" />
<path stroke="#000000" stroke-width="2" d="M 836.5,70" />
<path stroke="#000000" stroke-width="2" d="M 844.5,20 844.5,35" />
<path stroke="#000000" stroke-width="2" d="M 844.5,35 844.4,37 844.1,38.6 843.6,39.9 843.1,40.8 842.4,41.3 841.7,41.6 840.9,41.7 840.2,41.5 839.5,41.1 838.9,40.6 838.4,40 838,39.3 837.8,38.6 837.9,37.8 838.2,37.1 838.7,36.4 839.6,35.9 840.8,35.4 842.5,35.1 844.5,35" />
<path stroke="#000000" stroke-width="2" d="M 874.5,70" />
<path stroke="#000000" stroke-width="2" d="M 879.5,30" />
<path stroke="#000000" stroke-width="2" d="M 879.5,30 878.1,30.1 876.8,30.6 875.7,31.2 874.7,32.1 873.9,33.1 873.2,34.3 872.7,35.6 872.3,37 872.1,38.5 872,40 872.1,41.5 872.3,43 872.7,44.4 873.2,45.7 873.9,46.9 874.7,47.9 875.7,48.8 876.8,49.4 878.1,49.9 879.5,50 884.5,50 884.5,70" />
<path stroke="#000000" stroke-width="2" d="M 914.5,70" />
<path stroke="#000000" stroke-width="2" d="M 914.5,30 914.5,31.4 914.6,32.8 914.9,34.2 915.2,35.5 915.7,36.8 916.3,38.1 917,39.3 917.8,40.4 918.7,41.5 919.7,42.5 920.7,43.4 921.9,44.2 923.1,44.9 924.4,45.5 925.7,46 927,46.3 928.4,46.6 929.8,46.7 931.2,46.7 932.6,46.6 933.9,46.3 935.3,46 936.6,45.5 937.9,44.9 939.1,44.2 940.2,43.4 941.3,42.5 942.3,41.5 943.2,40.4 944,39.3 944.7,38.1 945.3,36.8 945.7,35.5 946.1,34.2 946.3,32.8 946.5,31.4" />
<path stroke="#000000" stroke-width="2" d="M 953.1,70" />
<path stroke="#000000" stroke-width="2" d="M 973.1,30 957.8,67" />
<path stroke="#000000" stroke-width="2" d="M 1003.1,70" />
<path stroke="#000000" stroke-width="2" d="M 1003.1,70 1003.3,70 1003.3,70.2 1003.1,70.2 1003.1,70" />
<path stroke="#000000" stroke-width="2" d="M 1033.3,70" />
<path stroke="#000000" stroke-width="2" d="M 1033.3,30 1033.3,50 1043.3,50 1035.7,68.5" />
<path stroke="#000000" stroke-width="2" d="M 1073.3,70" />
<path stroke="#000000" stroke-width="2" d="M 1073.3,30" />
<path stroke="#000000" stroke-width="2" d="M 1073.3,30 1076.2,30.3 1078.7,31.1 1081,32.4 1082.9,34.2 1084.6,36.2 1085.9,38.6 1087,41.3 1087.7,44.1 1088.2,47 1088.3,50 1088.2,53 1087.7,55.9 1087,58.7 1085.9,61.4 1084.6,63.8 1082.9,65.8 1081,67.6 1078.7,68.9 1076.2,69.7 1073.3,70" />
<path stroke="#000000" stroke-width="2" d="M 1095,70" />
<path stroke="#000000" stroke-width="2" d="M 1095,30 1102.7,48.5" />
<path stroke="#000000" stroke-width="2" d="M 1102.7,48.5 1104.1,48.6 1105.4,49 1106.5,49.7 1107.5,50.6 1108.3,51.6 1109,52.8 1109.5,54.1 1109.9,55.5 1110.1,57 1110.2,58.5 1110.1,60 1109.9,61.4 1109.5,62.8 1109,64.2 1108.3,65.4 1107.5,66.4 1106.5,67.3 1105.4,67.9 1104.1,68.3 1102.7,68.5" />
<path stroke="#000000" stroke-width="2" d="M 1140.2,70" />
<path stroke="#000000" stroke-width="2" d="M 1140.2,50 1147.8,31.5 1152.8,31.5 1152.8,51.5 1145.2,70 1147.4,64.5 1147.8,63.7 1148.2,62.9 1148.7,62.1 1149.2,61.4 1149.8,60.8 1150.4,60.2 1151.1,59.7 1151.8,59.2 1152.6,58.8 1153.4,58.5 1154.3,58.2 1155.1,58" />
<path stroke="#000000" stroke-width="2" d="M 1185.1,70" />
<path stroke="#000000" stroke-width="2" d="M 1185.1,40 1185.3,40 1185.3,40.2 1185.1,40.2 1185.1,40" />
<path stroke="#000000" stroke-width="2" d="M 1192,70" />
<path stroke="#000000" stroke-width="2" d="M 1192,30 1202,30 1202,70" />
<path stroke="#000000" stroke-width="2" d="M 1208.6,70" />
<path stroke="#000000" stroke-width="2" d="M 1208.6,55" />
<path stroke="#000000" stroke-width="2" d="M 1208.6,55 1210.7,54.9 1212.3,54.6 1213.5,54.1 1214.4,53.6 1215,52.9 1215.3,52.2 1215.3,51.4 1215.1,50.7 1214.8,50 1214.3,49.4 1213.7,48.9 1213,48.5 1212.2,48.3 1211.5,48.4 1210.7,48.7 1210.1,49.2 1209.5,50.1 1209,51.4 1208.7,53 1208.6,55 1208.6,70" />
<path stroke="#000000" stroke-width="2" d="M 1222,70" />
<path stroke="#000000" stroke-width="2" d="M 1222,28 1222,27.3 1222,26.6 1222.1,25.9 1222.3,25.2 1222.6,24.6 1222.9,24 1223.2,23.4 1223.6,22.8 1224.1,22.2 1224.5,21.8 1225.1,21.3 1225.7,20.9 1226.3,20.6 1226.9,20.3 1227.5,20 1228.2,19.8 1228.9,19.7 1229.6,19.7 1230.3,19.7 1231,19.7 1231.7,19.8 1232.4,20 1233,20.3 1233.6,20.6 1234.3,20.9 1234.8,21.3 1235.4,21.8 1235.9,22.2 1236.3,22.8 1236.7,23.4 1237,24 1237.3,24.6 1237.6,25.2 1237.8,25.9 1237.9,26.6 1237.9,27.3" />
<path stroke="#000000" stroke-width="2" d="M 1237.9,23.3" />
<path stroke="#000000" stroke-width="2" d="M 1231.9,23.3 1247.9,23.3" />
<path stroke="#000000" stroke-width="2" d="M 1247.9,23.3 1249.4,23.4 1250.6,23.9 1251.8,24.5 1252.7,25.4 1253.6,26.4 1254.2,27.6 1254.8,28.9 1255.1,30.3 1255.4,31.8 1255.4,33.3 1255.4,34.8 1255.1,36.3 1254.8,37.7 1254.2,39 1253.6,40.2 1252.7,41.2 1251.8,42.1 1250.6,42.7 1249.4,43.2 1247.9,43.3" />
<path stroke="#000000" stroke-width="2" d="M 1247.9,43.3 1250,43.2 1251.6,42.9 1252.8,42.4 1253.7,41.9 1254.3,41.2 1254.6,40.5 1254.6,39.7 1254.4,39 1254.1,38.3 1253.6,37.7 1253,37.2 1252.3,36.8 1251.5,36.6 1250.8,36.7 1250.1,37 1249.4,37.5 1248.8,38.4 1248.4,39.7 1248.1,41.3 1247.9,43.3 1247.9,58.3" />
<path stroke="#000000" stroke-width="2" d="M 1285.4,70" />
<path stroke="#000000" stroke-width="2" d="M 1285.4,30 1305.4,30" />
<path stroke="#000000" stroke-width="2" d="M 1305.4,30 1306.9,30.1 1308.1,30.6 1309.3,31.2 1310.2,32.1 1311.1,33.1 1311.7,34.3 1312.3,35.6 1312.6,37 1312.9,38.5 1312.9,40 1312.9,41.5 1312.6,43 1312.3,44.4 1311.7,45.7 1311.1,46.9 1310.2,47.9 1309.3,48.8 1308.1,49.4 1306.9,49.9 1305.4,50" />
<path stroke="#000000" stroke-width="2" d="M 1342.9,70" />
<path stroke="#000000" stroke-width="2" d="M 1342.9,30 1342.9,70 1362.9,70" />
<path stroke="#000000" stroke-width="2" d="M 1392.9,70" />
</svg>