<svg xmlns="http://www.w3.org/2000/svg" width="1130.312224040539" height="108.47759065022574" style="fill:none; stroke-linecap:round;">
    <rect width="100%" height="100%" fill="#FFFFFF" />
<path stroke="#000000" stroke-width="2" d="M 550,75" />
<path stroke="#000000" stroke-width="2" d="M 20,30 60,30" />
<path stroke="#000000" stroke-width="2" d="M 90,70" />
<path stroke="#000000" stroke-width="2" d="M 90,70 90.2,70 90.2,70.2 90,70.2 90,70" />
<path stroke="#000000" stroke-width="2" d="M 96.9,70" />
<path stroke="#000000" stroke-width="2" d="M 96.9,70 112.2,33 112.2,73" />
<path stroke="#000000" stroke-width="2" d="M 118.8,70" />
<path stroke="#000000" stroke-width="2" d="M 118.8,40" />
<path stroke="#000000" stroke-width="2" d="M 118.8,40 122.9,39.8 126.1,39.2 128.6,38.3 130.4,37.1 131.5,35.8 132.1,34.3 132.1,32.8 131.8,31.4 131.1,30 130.1,28.8 128.9,27.7 127.5,27 126,26.7 124.5,26.8 123.1,27.3 121.7,28.5 120.6,30.2 119.7,32.7 119.1,35.9 118.8,40 118.8,70" />
<path stroke="#000000" stroke-width="2" d="M 162.1,70" />
<path stroke="#000000" stroke-width="2" d="M 162.1,30 172.1,30 172.1,70" />
<path stroke="#000000" stroke-width="2" d="M 178.8,70" />
<path stroke="#000000" stroke-width="2" d="M 178.8,50 178.8,70 178.8,64 178.8,63.1 178.9,62.3 179,61.4 179.3,60.6 179.6,59.7 179.9,58.9 180.4,58.2 180.9,57.5 181.4,56.8 182.1,56.2 182.7,55.6 183.4,55.1 184.2,54.7 185,54.3 185.8,54 186.6,53.8 187.5,53.6 188.4,53.6" />
<path stroke="#000000" stroke-width="2" d="M 218.4,70" />
<path stroke="#000000" stroke-width="2" d="M 218.4,50 226,31.5 233.7,50 233.7,70 233.7,64 233.7,63.1 233.8,62.3 233.9,61.4 234.1,60.6 234.4,59.7 234.8,58.9 235.2,58.2 235.7,57.5 236.3,56.8 236.9,56.2 237.6,55.6 238.3,55.1 239.1,54.7 239.8,54.3 240.7,54 241.5,53.8 242.4,53.6 243.2,53.6" />
<path stroke="#000000" stroke-width="2" d="M 249.9,70" />
<path stroke="#000000" stroke-width="2" d="M 249.9,50 253.7,59.2" />
<path stroke="#000000" stroke-width="2" d="M 253.7,59.2 255.6,61.4 257,63.3 257.7,65 258,66.4 257.9,67.7 257.5,68.7 256.8,69.5 255.9,70 254.8,70.4 253.7,70.5 252.6,70.4 251.6,70 250.7,69.5 249.9,68.7 249.5,67.7 249.4,66.4 249.7,65 250.5,63.3 251.8,61.4 253.7,59.2 257.6,50 277.6,50 278.4,50 279.3,50.1 280.2,50.2 281,50.5 281.8,50.8 282.6,51.1 283.4,51.6 284.1,52.1 284.7,52.6 285.4,53.2 285.9,53.9 286.4,54.6 286.9,55.4 287.2,56.2 287.5,57 287.8,57.8 287.9,58.7 288,59.6 288,60.4 287.9,61.3 287.8,62.2 287.5,63 287.2,63.8 286.9,64.6 286.4,65.4 285.9,66.1 285.4,66.7 284.7,67.4 284.1,67.9 283.4,68.4 282.6,68.9 281.8,69.2 281,69.5 280.2,69.8 279.3,69.9 278.4,70" />
<path stroke="#000000" stroke-width="2" d="M 318,70" />
<path stroke="#000000" stroke-width="2" d="M 318,40 318.2,40 318.2,40.2 318,40.2 318,40" />
<path stroke="#000000" stroke-width="2" d="M 324.8,70" />
<path stroke="#000000" stroke-width="2" d="M 324.8,30 340.2,67" />
<path stroke="#000000" stroke-width="2" d="M 346.8,70" />
<path stroke="#000000" stroke-width="2" d="M 346.8,30 386.8,30" />
<path stroke="#000000" stroke-width="2" d="M 393.5,70" />
<path stroke="#000000" stroke-width="2" d="M 403.5,50 395.8,68.5" />
<path stroke="#000000" stroke-width="2" d="M 433.5,70" />
<path stroke="#000000" stroke-width="2" d="M 433.5,30 433.5,70 453.5,70" />
<path stroke="#000000" stroke-width="2" d="M 483.5,70" />
<path stroke="#000000" stroke-width="2" d="M 483.5,30 483.5,70" />
<path stroke="#000000" stroke-width="2" d="M 490.2,70" />
<path stroke="#000000" stroke-width="2" d="M 490.2,20 490.2,24 490.2,24.5 490.2,25 490.3,25.6 490.4,26.1 490.6,26.6 490.8,27 491.1,27.5 491.4,27.9 491.7,28.3 492.1,28.7 492.5,29 492.9,29.3 493.4,29.6 493.9,29.8 494.3,30 494.8,30.1 495.4,30.2 495.9,30.3 496.4,30.3 496.9,30.2 497.4,30.1 498,30 498.4,29.8 498.9,29.6 499.4,29.3 499.8,29 500.2,28.7 500.6,28.3 500.9,27.9 501.2,27.5 501.5,27 501.7,26.6 501.9,26.1 502,25.6 502.1,25 502.1,24.5 502.1,19.5 502.1,39.5" />
<path stroke="#000000" stroke-width="2" d="M 508.8,70" />
<path stroke="#000000" stroke-width="2" d="M 508.8,20 528.8,20" />
<path stroke="#000000" stroke-width="2" d="M 558.8,70" />
<path stroke="#000000" stroke-width="2" d="M 578.8,30 563.5,67" />
<path stroke="#000000" stroke-width="2" d="M 585.5,70" />
<path stroke="#000000" stroke-width="2" d="M 585.5,50 586.3,50 587.2,50.1 588.1,50.2 588.9,50.5 589.7,50.8 590.5,51.1 591.3,51.6 592,52.1 592.7,52.6 593.3,53.2 593.8,53.9 594.3,54.6 594.8,55.4 595.1,56.2 595.4,57 595.7,57.8 595.8,58.7 595.9,59.6 595.9,60.4 595.8,61.3 595.7,62.2 595.4,63 595.1,63.8 594.8,64.6 594.3,65.4 593.8,66.1 593.3,66.7 592.7,67.4 592,67.9 591.3,68.4 590.5,68.9 589.7,69.2 588.9,69.5 588.1,69.8 587.2,69.9 586.3,70 586.3,69.1 586.4,68.2 586.6,67.4 586.8,66.5 587.1,65.7 587.5,64.9 587.9,64.2 588.4,63.5 589,62.8 589.6,62.2 590.3,61.6 591,61.1 591.7,60.7 592.5,60.3 593.3,60 594.2,59.8 595,59.6 595.9,59.6" />
<path stroke="#000000" stroke-width="2" d="M 602.6,70" />
<path stroke="#000000" stroke-width="2" d="M 602.6,30 607.6,30 607.6,50 599.9,68.5" />
<path stroke="#000000" stroke-width="2" d="M 637.6,70" />
<path stroke="#000000" stroke-width="2" d="M 647.6,30 646.7,30 645.8,30.1 645,30.2 644.1,30.5 643.3,30.8 642.5,31.1 641.8,31.6 641,32.1 640.4,32.6 639.8,33.2 639.2,33.9 638.7,34.6 638.3,35.4 637.9,36.2 637.6,37 637.4,37.8 637.2,38.7 637.1,39.6 637.1,40.4 637.2,41.3 637.4,42.2 637.6,43 637.9,43.8 638.3,44.6 638.7,45.4 639.2,46.1 639.8,46.7 640.4,47.4 641,47.9 641.8,48.4 642.5,48.9 643.3,49.2 644.1,49.5 645,49.8 645.8,49.9 646.7,50 651.7,50 651.7,70" />
<path stroke="#000000" stroke-width="2" d="M 681.7,70" />
<path stroke="#000000" stroke-width="2" d="M 681.7,30 701.7,30 702.6,30 703.4,30.1 704.3,30.2 705.1,30.5 706,30.8 706.7,31.1 707.5,31.6 708.2,32.1 708.9,32.6 709.5,33.2 710.1,33.9 710.6,34.6 711,35.4 711.4,36.2 711.7,37 711.9,37.8 712,38.7 712.1,39.6 712.1,40.4 712,41.3 711.9,42.2 711.7,43 711.4,43.8 711,44.6 710.6,45.4 710.1,46.1 709.5,46.7 708.9,47.4 708.2,47.9 707.5,48.4 706.7,48.9 706,49.2 705.1,49.5 704.3,49.8 703.4,49.9 702.6,50" />
<path stroke="#000000" stroke-width="2" d="M 742.1,70" />
<path stroke="#000000" stroke-width="2" d="M 742.1,30 742.1,31.4 742.2,32.8 742.5,34.2 742.8,35.5 743.3,36.8 743.9,38.1 744.6,39.3 745.4,40.4 746.3,41.5 747.3,42.5 748.4,43.4 749.5,44.2 750.7,44.9 752,45.5 753.3,46 754.6,46.3 756,46.6 757.4,46.7 758.8,46.7 760.2,46.6 761.6,46.3 762.9,46 764.2,45.5 765.5,44.9 766.7,44.2 767.8,43.4 768.9,42.5 769.9,41.5 770.8,40.4 771.6,39.3 772.3,38.1 772.9,36.8 773.4,35.5 773.7,34.2 774,32.8 774.1,31.4" />
<path stroke="#000000" stroke-width="2" d="M 780.8,70" />
<path stroke="#000000" stroke-width="2" d="M 780.8,55" />
<path stroke="#000000" stroke-width="2" d="M 780.8,55 782.8,54.9 784.4,54.6 785.6,54.1 786.5,53.6 787.1,52.9 787.4,52.2 787.4,51.4 787.2,50.7 786.9,50 786.4,49.4 785.8,48.9 785.1,48.5 784.3,48.3 783.6,48.4 782.9,48.7 782.2,49.2 781.6,50.1 781.2,51.4 780.9,53 780.8,55 780.8,70 773.1,88.5" />
<path stroke="#000000" stroke-width="2" d="M 817.4,70" />
<path stroke="#000000" stroke-width="2" d="M 817.4,50 817.4,49.3 817.5,48.6 817.6,47.9 817.8,47.2 818,46.6 818.3,46 818.7,45.4 819.1,44.8 819.5,44.2 820,43.8 820.5,43.3 821.1,42.9 821.7,42.6 822.3,42.3 823,42 823.7,41.8 824.4,41.7 825.1,41.7 825.8,41.7 826.4,41.7 827.1,41.8 827.8,42 828.5,42.3 829.1,42.6 829.7,42.9 830.3,43.3 830.8,43.8 831.3,44.2 831.8,44.8 832.2,45.4 832.5,46 832.8,46.6 833,47.2 833.2,47.9 833.3,48.6 833.4,49.3" />
<path stroke="#000000" stroke-width="2" d="M 833.4,45.3" />
<path stroke="#000000" stroke-width="2" d="M 827.4,45.3 837.4,45.3 837.4,60.3" />
<path stroke="#000000" stroke-width="2" d="M 837.4,60.3 837.3,62.3 837,63.9 836.5,65.2 836,66.1 835.3,66.6 834.6,66.9 833.8,67 833.1,66.8 832.4,66.4 831.8,65.9 831.3,65.3 830.9,64.6 830.7,63.9 830.8,63.1 831.1,62.4 831.6,61.7 832.5,61.2 833.8,60.7 835.4,60.4 837.4,60.3" />
<path stroke="#000000" stroke-width="2" d="M 844.1,70" />
<path stroke="#000000" stroke-width="2" d="M 844.1,25" />
<path stroke="#000000" stroke-width="2" d="M 844.1,25 846.1,24.9 847.7,24.6 848.9,24.1 849.8,23.6 850.4,22.9 850.7,22.2 850.7,21.4 850.5,20.7 850.2,20 849.7,19.4 849.1,18.9 848.4,18.5 847.6,18.3 846.9,18.4 846.2,18.7 845.5,19.2 844.9,20.1 844.5,21.4 844.2,23 844.1,25 844.1,40 864.1,40 858.4,45.7 858.9,45.7 859.5,45.7 860,45.8 860.5,45.9 861,46.1 861.4,46.3 861.9,46.6 862.3,46.9 862.7,47.2 863.1,47.6 863.4,48 863.7,48.4 864,48.9 864.2,49.4 864.4,49.8 864.5,50.4 864.6,50.9 864.7,51.4 864.7,51.9 864.6,52.4 864.5,52.9 864.4,53.5 864.2,53.9 864,54.4 863.7,54.9 863.4,55.3 863.1,55.7 862.7,56.1 862.3,56.4 861.9,56.7 861.4,57 861,57.2 860.5,57.4 860,57.5 859.5,57.6 858.9,57.6" />
<path stroke="#000000" stroke-width="2" d="M 894.7,70" />
<path stroke="#000000" stroke-width="2" d="M 894.7,30 904.7,30 904.7,70" />
<path stroke="#000000" stroke-width="2" d="M 911.3,70" />
<path stroke="#000000" stroke-width="2" d="M 911.3,50 911.3,70 911.3,64 911.3,63.1 911.4,62.3 911.6,61.4 911.8,60.6 912.1,59.7 912.5,58.9 912.9,58.2 913.4,57.5 913.9,56.8 914.6,56.2 915.2,55.6 915.9,55.1 916.7,54.7 917.5,54.3 918.3,54 919.2,53.8 920,53.6 920.9,53.6" />
<path stroke="#000000" stroke-width="2" d="M 950.9,70" />
<path stroke="#000000" stroke-width="2" d="M 950.9,70 951.1,70 951.1,70.2 950.9,70.2 950.9,70" />
<path stroke="#000000" stroke-width="2" d="M 957.8,70" />
<path stroke="#000000" stroke-width="2" d="M 957.8,40" />
<path stroke="#000000" stroke-width="2" d="M 957.8,40 961.8,39.8 965,39.2 967.5,38.3 969.3,37.1 970.4,35.8 971,34.3 971.1,32.8 970.7,31.4 970,30 969,28.8 967.8,27.7 966.4,27 964.9,26.7 963.4,26.8 962,27.3 960.6,28.5 959.5,30.2 958.6,32.7 958,35.9 957.8,40 957.8,70" />
<path stroke="#000000" stroke-width="2" d="M 977.7,70" />
<path stroke="#000000" stroke-width="2" d="M 977.7,40 977.7,39.3 977.8,38.6 977.9,37.9 978.1,37.2 978.3,36.6 978.6,36 979,35.4 979.4,34.8 979.8,34.2 980.3,33.8 980.8,33.3 981.4,32.9 982,32.6 982.7,32.3 983.3,32 984,31.8 984.7,31.7 985.4,31.7 986.1,31.7 986.8,31.7 987.5,31.8 988.1,32 988.8,32.3 989.4,32.6 990,32.9 990.6,33.3 991.1,33.8 991.6,34.2 992.1,34.8 992.5,35.4 992.8,36 993.1,36.6 993.3,37.2 993.5,37.9 993.7,38.6 993.7,39.3" />
<path stroke="#000000" stroke-width="2" d="M 993.7,35.3" />
<path stroke="#000000" stroke-width="2" d="M 987.7,35.3 997.7,35.3 998.6,35.3 999.5,35.4 1000.3,35.5 1001.2,35.8 1002,36.1 1002.8,36.4 1003.5,36.9 1004.2,37.4 1004.9,37.9 1005.5,38.5 1006.1,39.2 1006.6,39.9 1007,40.7 1007.4,41.5 1007.7,42.3 1007.9,43.1 1008.1,44 1008.1,44.9 1008.1,45.7 1008.1,46.6 1007.9,47.5 1007.7,48.3 1007.4,49.1 1007,49.9 1006.6,50.7 1006.1,51.4 1005.5,52 1004.9,52.7 1004.2,53.2 1003.5,53.7 1002.8,54.2 1002,54.5 1001.2,54.8 1000.3,55.1 999.5,55.2 998.6,55.3" />
<path stroke="#000000" stroke-width="2" d="M 1038.1,70" />
<path stroke="#000000" stroke-width="2" d="M 1058.1,30 1042.8,67" />
<path stroke="#000000" stroke-width="2" d="M 1064.8,70" />
<path stroke="#000000" stroke-width="2" d="M 1064.8,30 1080.1,67" />
<path stroke="#000000" stroke-width="2" d="M 1110.1,70" />
<path stroke="#000000" stroke-width="2" d="M 1110.1,70 1110.3,70 1110.3,70.2 1110.1,70.2 1110.1,70" />
<path stroke="#000000" stroke-width="2" d="M 1140.3,70" />
</svg>