<svg xmlns="http://www.w3.org/2000/svg" width="1092.2721023987062" height="102.0" style="fill:none; stroke-linecap:round;">
    <rect width="100%" height="100%" fill="#FFFFFF" />
<path stroke="#000000" stroke-width="2" d="M 550,75" />
<path stroke="#000000" stroke-width="2" d="M 36,30 16.2,49.8 36,69.6" />
<path stroke="#000000" stroke-width="2" d="M 42.7,70" />
<path stroke="#000000" stroke-width="2" d="M 42.7,20 42.7,40 42.7,34 42.7,33.1 42.7,32.3 42.9,31.4 43.1,30.6 43.4,29.7 43.8,28.9 44.2,28.2 44.7,27.5 45.3,26.8 45.9,26.2 46.6,25.6 47.3,25.1 48,24.7 48.8,24.3 49.7,24 50.5,23.8 51.4,23.6 52.2,23.6" />
<path stroke="#000000" stroke-width="2" d="M 82.2,70" />
<path stroke="#000000" stroke-width="2" d="M 84.2,50 89.6,37.1 89.7,36.7 89.8,36.4 89.9,36.1 89.9,35.7 90,35.4 89.9,35 89.9,34.7 89.8,34.3 89.7,34 89.6,33.7 89.4,33.4 89.2,33.1 89,32.8 88.8,32.5 88.5,32.3 88.2,32.1 88,31.9 87.6,31.7 87.3,31.6 87,31.5 86.6,31.4 86.3,31.4 86,31.4 85.6,31.4 85.3,31.4 84.9,31.5 84.6,31.6 84.3,31.7 84,31.9 83.7,32.1 83.4,32.3 83.1,32.5 82.9,32.8 82.7,33.1 82.5,33.4 82.3,33.7 82.2,34 82.1,34.3 82,34.7 82,35 82,35.4 82,35.7 82,36.1 82.1,36.4 82.2,36.7 82.3,37.1 82.5,37.4 82.7,37.7 82.9,37.9 83.1,38.2 83.4,38.4 83.7,38.7 84,38.8 84.3,39 84.6,39.1 84.9,39.2 85.3,39.3 85.6,39.4 86,39.4 86.3,39.4 99.2,34 99.2,34.7 99.3,35.4 99.4,36.1 99.6,36.8 99.8,37.4 100.1,38 100.5,38.6 100.9,39.2 101.3,39.8 101.8,40.2 102.4,40.7 102.9,41.1 103.5,41.4 104.2,41.7 104.8,42 105.5,42.2 106.2,42.3 106.9,42.3 107.6,42.3 108.3,42.3 109,42.2 109.6,42 110.3,41.7 110.9,41.4 111.5,41.1 112.1,40.7 112.6,40.2 113.1,39.8 113.6,39.2 114,38.6 114.3,38 114.6,37.4 114.9,36.8 115,36.1 115.2,35.4 115.2,34.7" />
<path stroke="#000000" stroke-width="2" d="M 115.2,34.7 116.6,34.8 117.9,35.3 119,35.9 120,36.8 120.8,37.8 121.5,39 122,40.3 122.4,41.7 122.6,43.2 122.7,44.7 122.6,46.2 122.4,47.7 122,49.1 121.5,50.4 120.8,51.6 120,52.6 119,53.5 117.9,54.1 116.6,54.6 115.2,54.7 115.8,54.1 116.5,53.5 117.2,53 118,52.6 118.8,52.2 119.6,51.9 120.4,51.7 121.3,51.5 122.2,51.5 123,51.5 123.9,51.5 124.8,51.7 125.6,51.9 126.4,52.2 127.2,52.6" />
<path stroke="#000000" stroke-width="2" d="M 157.2,70" />
<path stroke="#000000" stroke-width="2" d="M 167.2,30 167.7,30 168.3,30 168.8,30.1 169.3,30.3 169.8,30.5 170.2,30.7 170.7,30.9 171.1,31.2 171.5,31.6 171.9,31.9 172.2,32.3 172.5,32.8 172.8,33.2 173,33.7 173.2,34.2 173.3,34.7 173.4,35.2 173.5,35.7 173.5,36.3 173.4,36.8 173.3,37.3 173.2,37.8 173,38.3 172.8,38.8 172.5,39.2 172.2,39.6 171.9,40 171.5,40.4 171.1,40.8 170.7,41.1 170.2,41.3 169.8,41.5 169.3,41.7 168.8,41.9 168.3,41.9 167.7,42 167.2,42 166.7,41.9 166.2,41.9 165.7,41.7 165.2,41.5 164.7,41.3 164.2,41.1 163.8,40.8 163.4,40.4 163,40 162.7,39.6 162.4,39.2 162.2,38.8 161.9,38.3 161.8,37.8 161.6,37.3 161.5,36.8 161.5,36.3 161.5,35.7 161.5,35.2 161.6,34.7 161.8,34.2 161.9,33.7 162.2,33.2 162.4,32.8 162.7,32.3 163,31.9 163.4,31.6 163.8,31.2 164.2,30.9 164.7,30.7 165.2,30.5 165.7,30.3 166.2,30.1 166.7,30 167.2,30 167.2,50 159.6,68.5 161.9,62.9 162.2,62.1 162.6,61.4 163.1,60.6 163.6,59.9 164.2,59.3 164.8,58.7 165.5,58.2 166.3,57.7 167,57.3 167.8,57 168.7,56.7 169.5,56.5" />
<path stroke="#000000" stroke-width="2" d="M 203.5,70" />
<path stroke="#000000" stroke-width="2" d="M 203.5,30 203.5,70 203.5,62 203.5,60.3 203.6,58.5 203.9,56.8 204.4,55.1 205,53.5 205.7,51.9 206.6,50.4 207.6,49 208.7,47.6 209.9,46.4 211.3,45.3 212.7,44.3" />
<path stroke="#000000" stroke-width="2" d="M 219.4,70" />
<path stroke="#000000" stroke-width="2" d="M 229.4,50 221.7,68.5" />
<path stroke="#000000" stroke-width="2" d="M 259.4,70" />
<path stroke="#000000" stroke-width="2" d="M 259.4,30 269.4,30 269.4,70" />
<path stroke="#000000" stroke-width="2" d="M 276,70" />
<path stroke="#000000" stroke-width="2" d="M 276,50 276,70 276,64 276,63.1 276.1,62.3 276.3,61.4 276.5,60.6 276.8,59.7 277.2,58.9 277.6,58.2 278.1,57.5 278.7,56.8 279.3,56.2 279.9,55.6 280.7,55.1 281.4,54.7 282.2,54.3 283,54 283.9,53.8 284.7,53.6 285.6,53.6 286.5,53.6 287.3,53.5 288.2,53.3 289,53.1 289.9,52.8 290.6,52.5 291.4,52 292.1,51.5 292.8,51 293.4,50.3 294,49.7 294.5,49 294.9,48.2 295.3,47.4 295.6,46.6 295.8,45.7 295.9,44.9 296,44 296,43.1 295.9,42.3 295.8,41.4 295.6,40.6 295.3,39.8 294.9,39 294.5,38.2 294,37.5 293.4,36.8 292.8,36.2 292.1,35.6 291.4,35.1 290.6,34.7 289.9,34.3 289,34 288.2,33.8 287.3,33.7 286.5,33.6 285.6,33.6 284.7,33.7 283.9,33.8 283,34 282.2,34.3 281.4,34.7 280.7,35.1 279.9,35.6 279.3,36.2 278.7,36.8 278.1,37.5 277.6,38.2 277.2,39 276.8,39.8 276.5,40.6 276.3,41.4 276.1,42.3 276,43.1 276,44 276.1,44.9 276.3,45.7 276.5,46.6 276.8,47.4 277.2,48.2 277.6,49 278.1,49.7 278.7,50.3 279.3,51 279.9,51.5 280.7,52 281.4,52.5 282.2,52.8 283,53.1 283.9,53.3 284.7,53.5 285.6,53.6" />
<path stroke="#000000" stroke-width="2" d="M 326,70" />
<path stroke="#000000" stroke-width="2" d="M 326,70" />
<path stroke="#000000" stroke-width="2" d="M 326,70 327.1,70 328.1,70.2 329,70.4 329.7,70.7 330.2,71 330.7,71.5 331,71.9 331.2,72.5 331.3,73.1 331.3,73.8 331.1,74.4 330.9,75.2 330.6,76 330.2,76.8 329.7,77.6 329.1,78.4 328.4,79.3 327.7,80.2 326.9,81.1 326,82" />
<path stroke="#000000" stroke-width="2" d="M 361.3,70" />
<path stroke="#000000" stroke-width="2" d="M 361.3,30 361.3,70" />
<path stroke="#000000" stroke-width="2" d="M 368,70" />
<path stroke="#000000" stroke-width="2" d="M 378,50 370.3,68.5" />
<path stroke="#000000" stroke-width="2" d="M 408,70" />
<path stroke="#000000" stroke-width="2" d="M 424,30 424,60" />
<path stroke="#000000" stroke-width="2" d="M 424,60 423.7,64.1 423.1,67.3 422.2,69.8 421.1,71.5 419.7,72.7 418.3,73.2 416.8,73.3 415.3,73 413.9,72.3 412.7,71.2 411.7,70 411,68.6 410.6,67.2 410.7,65.7 411.3,64.2 412.4,62.9 414.2,61.7 416.7,60.8 419.9,60.2 424,60" />
<path stroke="#000000" stroke-width="2" d="M 430.6,70" />
<path stroke="#000000" stroke-width="2" d="M 430.6,50 450.6,50 470.6,50" />
<path stroke="#000000" stroke-width="2" d="M 470.6,50 472,50.1 473.3,50.6 474.4,51.2 475.4,52.1 476.2,53.1 476.9,54.3 477.4,55.6 477.8,57 478,58.5 478.1,60 478,61.5 477.8,63 477.4,64.4 476.9,65.7 476.2,66.9 475.4,67.9 474.4,68.8 473.3,69.4 472,69.9 470.6,70" />
<path stroke="#000000" stroke-width="2" d="M 508.1,70" />
<path stroke="#000000" stroke-width="2" d="M 508.1,70" />
<path stroke="#000000" stroke-width="2" d="M 508.1,70 509.2,70 510.2,70.2 511.1,70.4 511.8,70.7 512.3,71 512.8,71.5 513.1,71.9 513.3,72.5 513.4,73.1 513.4,73.8 513.2,74.4 513,75.2 512.7,76 512.3,76.8 511.8,77.6 511.2,78.4 510.5,79.3 509.8,80.2 509,81.1 508.1,82" />
<path stroke="#000000" stroke-width="2" d="M 543.4,70" />
<path stroke="#000000" stroke-width="2" d="M 543.4,30 563.4,30" />
<path stroke="#000000" stroke-width="2" d="M 563.4,30 564.8,30.1 566.1,30.6 567.2,31.2 568.2,32.1 569,33.1 569.7,34.3 570.2,35.6 570.6,37 570.8,38.5 570.9,40 570.8,41.5 570.6,43 570.2,44.4 569.7,45.7 569,46.9 568.2,47.9 567.2,48.8 566.1,49.4 564.8,49.9 563.4,50" />
<path stroke="#000000" stroke-width="2" d="M 600.9,70" />
<path stroke="#000000" stroke-width="2" d="M 600.9,35" />
<path stroke="#000000" stroke-width="2" d="M 600.9,35 602.9,34.9 604.5,34.6 605.8,34.1 606.7,33.6 607.2,32.9 607.5,32.2 607.5,31.4 607.4,30.7 607,30 606.5,29.4 605.9,28.9 605.2,28.5 604.5,28.3 603.7,28.4 603,28.7 602.3,29.2 601.8,30.1 601.3,31.4 601,33 600.9,35 600.9,50 600.9,50.7 601,51.4 601.1,52.1 601.3,52.8 601.5,53.4 601.8,54 602.1,54.6 602.5,55.2 603,55.8 603.5,56.2 604,56.7 604.6,57.1 605.2,57.4 605.8,57.7 606.5,58 607.2,58.2 607.8,58.3 608.5,58.3 609.2,58.3 609.9,58.3 610.6,58.2 611.3,58 611.9,57.7 612.6,57.4 613.2,57.1 613.8,56.7 614.3,56.2 614.8,55.8 615.2,55.2 615.6,54.6 616,54 616.3,53.4 616.5,52.8 616.7,52.1 616.8,51.4 616.9,50.7" />
<path stroke="#000000" stroke-width="2" d="M 623.5,70" />
<path stroke="#000000" stroke-width="2" d="M 631.5,20" />
<path stroke="#000000" stroke-width="2" d="M 631.5,20 631.4,22 631.1,23.6 630.7,24.9 630.1,25.8 629.4,26.3 628.7,26.6 628,26.7 627.2,26.5 626.5,26.1 625.9,25.6 625.4,25 625.1,24.3 624.9,23.6 624.9,22.8 625.2,22.1 625.8,21.4 626.7,20.9 627.9,20.4 629.5,20.1 631.5,20 641.5,20 633.9,38.5" />
<path stroke="#000000" stroke-width="2" d="M 671.5,70" />
<path stroke="#000000" stroke-width="2" d="M 681.5,50 682.4,50 683.3,49.9 684.1,49.8 685,49.5 685.8,49.2 686.6,48.9 687.4,48.4 688.1,47.9 688.7,47.4 689.4,46.8 689.9,46.1 690.4,45.4 690.9,44.6 691.2,43.8 691.5,43 691.7,42.2 691.9,41.3 692,40.4 692,39.6 691.9,38.7 691.7,37.8 691.5,37 691.2,36.2 690.9,35.4 690.4,34.6 689.9,33.9 689.4,33.3 688.7,32.6 688.1,32.1 687.4,31.6 686.6,31.1 685.8,30.8 685,30.5 684.1,30.2 683.3,30.1 682.4,30 681.5,30 680.7,30.1 679.8,30.2 679,30.5 678.2,30.8 677.4,31.1 676.6,31.6 675.9,32.1 675.2,32.6 674.6,33.3 674,33.9 673.5,34.6 673.1,35.4 672.7,36.2 672.4,37 672.2,37.8 672.1,38.7 672,39.6 672,40.4 672.1,41.3 672.2,42.2 672.4,43 672.7,43.8 673.1,44.6 673.5,45.4 674,46.1 674.6,46.8 675.2,47.4 675.9,47.9 676.6,48.4 677.4,48.9 678.2,49.2 679,49.5 679.8,49.8 680.7,49.9 681.5,50 681.5,70 681.5,64 681.5,63.1 681.6,62.3 681.8,61.4 682,60.6 682.3,59.7 682.7,58.9 683.1,58.2 683.6,57.5 684.2,56.8 684.8,56.2 685.4,55.6 686.2,55.1 686.9,54.7 687.7,54.3 688.5,54 689.4,53.8 690.2,53.6 691.1,53.6" />
<path stroke="#000000" stroke-width="2" d="M 698.6,70" />
<path stroke="#000000" stroke-width="2" d="M 698.6,50 698.8,50 698.8,50.2 698.6,50.2 698.6,50" />
<path stroke="#000000" stroke-width="2" d="M 728.8,70" />
<path stroke="#000000" stroke-width="2" d="M 744.8,30 725,49.8 744.8,69.6" />
<path stroke="#000000" stroke-width="2" d="M 751.5,70" />
<path stroke="#000000" stroke-width="2" d="M 751.5,20 751.5,40 751.5,34 751.5,33.1 751.6,32.3 751.7,31.4 752,30.6 752.3,29.7 752.6,28.9 753.1,28.2 753.6,27.5 754.1,26.8 754.7,26.2 755.4,25.6 756.1,25.1 756.9,24.7 757.7,24.3 758.5,24 759.3,23.8 760.2,23.6 761.1,23.6" />
<path stroke="#000000" stroke-width="2" d="M 791.1,70" />
<path stroke="#000000" stroke-width="2" d="M 791.1,30 791.1,70" />
<path stroke="#000000" stroke-width="2" d="M 797.7,70" />
<path stroke="#000000" stroke-width="2" d="M 807.7,50 800.1,68.5" />
<path stroke="#000000" stroke-width="2" d="M 814.4,70" />
<path stroke="#000000" stroke-width="2" d="M 814.4,30 824.4,30 824.4,70" />
<path stroke="#000000" stroke-width="2" d="M 824.4,50" />
<path stroke="#000000" stroke-width="2" d="M 816.4,50 832.4,50" />
<path stroke="#000000" stroke-width="2" d="M 862.4,70" />
<path stroke="#000000" stroke-width="2" d="M 862.4,30 902.4,30" />
<path stroke="#000000" stroke-width="2" d="M 909.1,70" />
<path stroke="#000000" stroke-width="2" d="M 929.1,30 913.8,67" />
<path stroke="#000000" stroke-width="2" d="M 959.1,70" />
<path stroke="#000000" stroke-width="2" d="M 959.1,70 959.3,70 959.3,70.2 959.1,70.2 959.1,70" />
<path stroke="#000000" stroke-width="2" d="M 989.3,70" />
<path stroke="#000000" stroke-width="2" d="M 994.3,30" />
<path stroke="#000000" stroke-width="2" d="M 994.3,30 992.8,30.1 991.6,30.6 990.4,31.2 989.5,32.1 988.6,33.1 988,34.3 987.4,35.6 987.1,37 986.8,38.5 986.8,40 986.8,41.5 987.1,43 987.4,44.4 988,45.7 988.6,46.9 989.5,47.9 990.4,48.8 991.6,49.4 992.8,49.9 994.3,50 1014.3,50" />
<path stroke="#000000" stroke-width="2" d="M 1044.3,70" />
<path stroke="#000000" stroke-width="2" d="M 1044.3,30 1054.3,30 1054.3,70" />
<path stroke="#000000" stroke-width="2" d="M 1060.9,70" />
<path stroke="#000000" stroke-width="2" d="M 1070.9,20 1063.3,38.5 1068.3,38.5 1068.3,58.5" />
<path stroke="#000000" stroke-width="2" d="M 1068.3,48.5" />
<path stroke="#000000" stroke-width="2" d="M 1064.3,48.5 1072.3,48.5" />
<path stroke="#000000" stroke-width="2" d="M 1102.3,70" />
</svg>