<svg xmlns="http://www.w3.org/2000/svg" width="1345.919484722925" height="93.30875" style="fill:none; stroke-linecap:round;">
    <rect width="100%" height="100%" fill="#FFFFFF" />
<path stroke="#000000" stroke-width="2" d="M 550,75" />
<path stroke="#000000" stroke-width="2" d="M 36,30 36,60" />
<path stroke="#000000" stroke-width="2" d="M 36,60 35.8,64.1 35.2,67.3 34.3,69.8 33.1,71.5 31.8,72.7 30.3,73.2 28.8,73.3 27.4,73 26,72.3 24.8,71.2 23.7,70 23,68.6 22.7,67.2 22.8,65.7 23.3,64.2 24.5,62.9 26.2,61.7 28.7,60.8 31.9,60.2 36,60" />
<path stroke="#000000" stroke-width="2" d="M 42.7,70" />
<path stroke="#000000" stroke-width="2" d="M 50.7,20 40.8,29.9 50.7,39.8" />
<path stroke="#000000" stroke-width="2" d="M 57.3,70" />
<path stroke="#000000" stroke-width="2" d="M 57.3,20" />
<path stroke="#000000" stroke-width="2" d="M 57.3,20 58.8,20.1 60,20.6 61.2,21.2 62.1,22.1 63,23.1 63.6,24.3 64.2,25.6 64.5,27 64.8,28.5 64.8,30 64.8,31.5 64.5,33 64.2,34.4 63.6,35.7 63,36.9 62.1,37.9 61.2,38.8 60,39.4 58.8,39.9 57.3,40" />
<path stroke="#000000" stroke-width="2" d="M 94.8,70" />
<path stroke="#000000" stroke-width="2" d="M 94.8,40" />
<path stroke="#000000" stroke-width="2" d="M 94.8,40 98.9,39.8 102.1,39.2 104.6,38.3 106.4,37.1 107.5,35.8 108.1,34.3 108.1,32.8 107.8,31.4 107.1,30 106.1,28.8 104.9,27.7 103.5,27 102,26.7 100.5,26.8 99.1,27.3 97.7,28.5 96.6,30.2 95.6,32.7 95,35.9 94.8,40 94.8,70" />
<path stroke="#000000" stroke-width="2" d="M 114.8,70" />
<path stroke="#000000" stroke-width="2" d="M 114.8,30 154.8,30" />
<path stroke="#000000" stroke-width="2" d="M 184.8,70" />
<path stroke="#000000" stroke-width="2" d="M 184.8,30 200.1,67" />
<path stroke="#000000" stroke-width="2" d="M 206.8,70" />
<path stroke="#000000" stroke-width="2" d="M 206.8,20 226.8,20" />
<path stroke="#000000" stroke-width="2" d="M 233.4,70" />
<path stroke="#000000" stroke-width="2" d="M 233.4,30 233.6,30 233.6,30.2 233.4,30.2 233.4,30" />
<path stroke="#000000" stroke-width="2" d="M 263.6,70" />
<path stroke="#000000" stroke-width="2" d="M 275.6,54" />
<path stroke="#000000" stroke-width="2" d="M 275.6,54 275.4,49.9 274.8,46.7 273.9,44.2 272.8,42.5 271.4,41.3 270,40.8 268.5,40.7 267,41 265.6,41.7 264.4,42.8 263.4,44 262.7,45.4 262.3,46.8 262.4,48.3 263,49.8 264.1,51.1 265.9,52.3 268.4,53.2 271.6,53.8 275.6,54 283.6,54" />
<path stroke="#000000" stroke-width="2" d="M 283.6,54 285.4,53.4 287,52.7 288.5,51.9 289.9,51.2 291.2,50.3 292.4,49.4 293.5,48.5 294.5,47.5 295.4,46.5 296.1,45.5 296.9,44.4 297.5,43.3 298,42.2 298.5,41.1 298.8,39.9 299.1,38.8 299.4,37.6 299.5,36.4 299.6,35.2 299.6,34" />
<path stroke="#000000" stroke-width="2" d="M 306.3,70" />
<path stroke="#000000" stroke-width="2" d="M 306.3,20 326.3,20" />
<path stroke="#000000" stroke-width="2" d="M 333,70" />
<path stroke="#000000" stroke-width="2" d="M 343,20 335.3,38.5" />
<path stroke="#000000" stroke-width="2" d="M 335.3,38.5 337.4,38.4 339,38.1 340.2,37.6 341.1,37 341.7,36.4 341.9,35.6 342,34.9 341.8,34.2 341.5,33.5 341,32.9 340.3,32.4 339.6,32 338.9,31.8 338.2,31.9 337.4,32.1 336.8,32.7 336.2,33.6 335.7,34.8 335.4,36.4 335.3,38.5 335.3,53.5" />
<path stroke="#000000" stroke-width="2" d="M 373,70" />
<path stroke="#000000" stroke-width="2" d="M 373,30 373,38 373,39 373.1,40.1 373.3,41.1 373.5,42.1 373.9,43.1 374.3,44.1 374.9,45 375.5,45.8 376.1,46.6 376.9,47.4 377.7,48 378.5,48.6 379.4,49.2 380.4,49.6 381.4,50 382.4,50.2 383.4,50.4 384.4,50.5 385.5,50.5 386.5,50.4 387.6,50.2 388.6,50 389.6,49.6 390.5,49.2 391.4,48.6 392.3,48 393.1,47.4 393.8,46.6 394.5,45.8 395.1,45 395.6,44.1 396.1,43.1 396.4,42.1 396.7,41.1 396.9,40.1 397,39 397,29 397,69" />
<path stroke="#000000" stroke-width="2" d="M 403.6,70" />
<path stroke="#000000" stroke-width="2" d="M 403.6,30 418.9,67 434.2,30" />
<path stroke="#000000" stroke-width="2" d="M 464.2,70" />
<path stroke="#000000" stroke-width="2" d="M 474.2,30 473.4,30 472.5,30.1 471.6,30.2 470.8,30.5 470,30.8 469.2,31.1 468.4,31.6 467.7,32.1 467,32.6 466.4,33.2 465.9,33.9 465.4,34.6 464.9,35.4 464.6,36.2 464.3,37 464,37.8 463.9,38.7 463.8,39.6 463.8,40.4 463.9,41.3 464,42.2 464.3,43 464.6,43.8 464.9,44.6 465.4,45.4 465.9,46.1 466.4,46.7 467,47.4 467.7,47.9 468.4,48.4 469.2,48.9 470,49.2 470.8,49.5 471.6,49.8 472.5,49.9 473.4,50 478.4,50 478.4,70" />
<path stroke="#000000" stroke-width="2" d="M 508.4,70" />
<path stroke="#000000" stroke-width="2" d="M 508.4,50 508.4,49.3 508.4,48.6 508.6,47.9 508.7,47.2 509,46.6 509.3,46 509.6,45.4 510,44.8 510.5,44.2 511,43.8 511.5,43.3 512.1,42.9 512.7,42.6 513.3,42.3 514,42 514.6,41.8 515.3,41.7 516,41.7 516.7,41.7 517.4,41.7 518.1,41.8 518.8,42 519.4,42.3 520.1,42.6 520.7,42.9 521.2,43.3 521.8,43.8 522.3,44.2 522.7,44.8 523.1,45.4 523.5,46 523.8,46.6 524,47.2 524.2,47.9 524.3,48.6 524.4,49.3" />
<path stroke="#000000" stroke-width="2" d="M 524.4,45.3" />
<path stroke="#000000" stroke-width="2" d="M 518.4,45.3 528.4,45.3" />
<path stroke="#000000" stroke-width="2" d="M 528.4,45.3 528.2,43.3 527.9,41.7 527.5,40.4 526.9,39.5 526.2,39 525.5,38.7 524.8,38.6 524,38.8 523.3,39.2 522.7,39.7 522.2,40.3 521.9,41 521.7,41.7 521.7,42.5 522,43.2 522.6,43.9 523.5,44.4 524.7,44.9 526.3,45.2 528.4,45.3 532.4,45.3" />
<path stroke="#000000" stroke-width="2" d="M 532.4,45.3 533.2,45 534,44.6 534.8,44.3 535.5,43.9 536.1,43.5 536.7,43 537.3,42.6 537.8,42.1 538.2,41.6 538.6,41.1 539,40.5 539.3,40 539.5,39.4 539.8,38.8 539.9,38.3 540.1,37.7 540.2,37.1 540.3,36.5 540.3,35.9 540.4,35.3" />
<path stroke="#000000" stroke-width="2" d="M 547,70" />
<path stroke="#000000" stroke-width="2" d="M 567,20 547.2,39.8" />
<path stroke="#000000" stroke-width="2" d="M 547.2,19.8 567,39.6" />
<path stroke="#000000" stroke-width="2" d="M 597,70" />
<path stroke="#000000" stroke-width="2" d="M 597,30 637,30" />
<path stroke="#000000" stroke-width="2" d="M 643.7,70" />
<path stroke="#000000" stroke-width="2" d="M 643.7,50 663.7,50 663.7,70 663.7,64 663.7,63.1 663.8,62.3 663.9,61.4 664.1,60.6 664.4,59.7 664.8,58.9 665.2,58.2 665.7,57.5 666.3,56.8 666.9,56.2 667.6,55.6 668.3,55.1 669.1,54.7 669.9,54.3 670.7,54 671.5,53.8 672.4,53.6 673.2,53.6" />
<path stroke="#000000" stroke-width="2" d="M 679.9,70" />
<path stroke="#000000" stroke-width="2" d="M 679.9,20 679.9,24 679.9,24.5 680,25 680,25.6 680.2,26.1 680.4,26.6 680.6,27 680.8,27.5 681.1,27.9 681.5,28.3 681.8,28.7 682.2,29 682.7,29.3 683.1,29.6 683.6,29.8 684.1,30 684.6,30.1 685.1,30.2 685.6,30.3 686.2,30.3 686.7,30.2 687.2,30.1 687.7,30 688.2,29.8 688.7,29.6 689.1,29.3 689.6,29 690,28.7 690.3,28.3 690.7,27.9 691,27.5 691.2,27 691.4,26.6 691.6,26.1 691.8,25.6 691.9,25 691.9,24.5 691.9,19.5 691.9,39.5" />
<path stroke="#000000" stroke-width="2" d="M 698.6,70" />
<path stroke="#000000" stroke-width="2" d="M 698.6,50 698.6,50.7 698.6,51.4 698.7,52.1 698.9,52.8 699.2,53.4 699.5,54 699.8,54.6 700.2,55.2 700.7,55.8 701.2,56.2 701.7,56.7 702.3,57.1 702.9,57.4 703.5,57.7 704.1,58 704.8,58.2 705.5,58.3 706.2,58.3 706.9,58.3 707.6,58.3 708.3,58.2 709,58 709.6,57.7 710.2,57.4 710.9,57.1 711.4,56.7 712,56.2 712.5,55.8 712.9,55.2 713.3,54.6 713.7,54 713.9,53.4 714.2,52.8 714.4,52.1 714.5,51.4 714.5,50.7" />
<path stroke="#000000" stroke-width="2" d="M 721.2,70" />
<path stroke="#000000" stroke-width="2" d="M 721.2,20 721.2,40 721.2,34 721.2,33.1 721.3,32.3 721.4,31.4 721.7,30.6 722,29.7 722.3,28.9 722.8,28.2 723.3,27.5 723.8,26.8 724.4,26.2 725.1,25.6 725.8,25.1 726.6,24.7 727.4,24.3 728.2,24 729,23.8 729.9,23.6 730.8,23.6" />
<path stroke="#000000" stroke-width="2" d="M 760.8,70" />
<path stroke="#000000" stroke-width="2" d="M 760.8,30 760.8,70 760.8,58 760.8,56.3 760.9,54.5 761.2,52.8 761.7,51.1 762.3,49.5 763,47.9 763.9,46.4 764.9,45 766,43.6 767.2,42.4 768.6,41.3 770,40.3 771.5,39.4 773.1,38.7 774.7,38.1 776.4,37.6 778.1,37.3 779.9,37.1" />
<path stroke="#000000" stroke-width="2" d="M 786.5,70" />
<path stroke="#000000" stroke-width="2" d="M 786.5,20" />
<path stroke="#000000" stroke-width="2" d="M 786.5,20 788,20.1 789.2,20.6 790.4,21.2 791.3,22.1 792.2,23.1 792.8,24.3 793.4,25.6 793.7,27 794,28.5 794,30 794,31.5 793.7,33 793.4,34.4 792.8,35.7 792.2,36.9 791.3,37.9 790.4,38.8 789.2,39.4 788,39.9 786.5,40" />
<path stroke="#000000" stroke-width="2" d="M 800.7,70" />
<path stroke="#000000" stroke-width="2" d="M 820.7,30 819,30 817.2,30.2 815.5,30.5 813.8,30.9 812.2,31.5 810.6,32.2 809.1,33.1 807.7,34.1 806.3,35.2 805.1,36.5 804,37.8 803,39.2 802.1,40.7 801.4,42.3 800.8,44 800.3,45.7 800,47.4 799.9,49.1 799.9,50.9 800,52.6 800.3,54.3 800.8,56 801.4,57.6 802.1,59.2 803,60.7 804,62.2 805.1,63.5 806.3,64.7 807.7,65.8 809.1,66.8 810.6,67.7 812.2,68.5 813.8,69.1 815.5,69.5 817.2,69.8 819,70" />
<path stroke="#000000" stroke-width="2" d="M 850.7,70" />
<path stroke="#000000" stroke-width="2" d="M 850.7,40" />
<path stroke="#000000" stroke-width="2" d="M 850.7,40 854.8,39.8 858,39.2 860.5,38.3 862.2,37.1 863.4,35.8 863.9,34.3 864,32.8 863.7,31.4 863,30 862,28.8 860.7,27.7 859.4,27 857.9,26.7 856.4,26.8 854.9,27.3 853.6,28.5 852.4,30.2 851.5,32.7 850.9,35.9 850.7,40 850.7,70" />
<path stroke="#000000" stroke-width="2" d="M 870.7,70" />
<path stroke="#000000" stroke-width="2" d="M 870.7,30 870.7,34 870.7,34.5 870.7,35 870.8,35.6 871,36.1 871.1,36.6 871.4,37 871.6,37.5 871.9,37.9 872.3,38.3 872.6,38.7 873,39 873.5,39.3 873.9,39.6 874.4,39.8 874.9,40 875.4,40.1 875.9,40.2 876.4,40.3 876.9,40.3 877.5,40.2 878,40.1 878.5,40 879,39.8 879.5,39.6 879.9,39.3 880.3,39 880.7,38.7 881.1,38.3 881.4,37.9 881.7,37.5 882,37 882.2,36.6 882.4,36.1 882.5,35.6 882.6,35 882.7,34.5 882.7,29.5 882.7,49.5 902.7,49.5" />
<path stroke="#000000" stroke-width="2" d="M 909.3,70" />
<path stroke="#000000" stroke-width="2" d="M 909.3,20 909.3,20.7 909.4,21.4 909.5,22.1 909.7,22.8 909.9,23.4 910.2,24 910.6,24.6 911,25.2 911.4,25.8 911.9,26.2 912.5,26.7 913,27.1 913.6,27.4 914.3,27.7 914.9,28 915.6,28.2 916.3,28.3 917,28.3 917.7,28.3 918.4,28.3 919.1,28.2 919.7,28 920.4,27.7 921,27.4 921.6,27.1 922.2,26.7 922.7,26.2 923.2,25.8 923.7,25.2 924.1,24.6 924.4,24 924.7,23.4 925,22.8 925.1,22.1 925.3,21.4 925.3,20.7" />
<path stroke="#000000" stroke-width="2" d="M 925.3,20.7 927.4,20.6 929,20.3 930.2,19.8 931.1,19.3 931.7,18.6 931.9,17.9 932,17.1 931.8,16.4 931.5,15.7 931,15.1 930.3,14.6 929.6,14.2 928.9,14 928.2,14.1 927.4,14.4 926.8,14.9 926.2,15.8 925.7,17.1 925.4,18.7 925.3,20.7 925.3,35.7" />
<path stroke="#000000" stroke-width="2" d="M 962,70" />
<path stroke="#000000" stroke-width="2" d="M 962,30 962,70" />
<path stroke="#000000" stroke-width="2" d="M 968.6,70" />
<path stroke="#000000" stroke-width="2" d="M 978.6,50 971,68.5" />
<path stroke="#000000" stroke-width="2" d="M 1008.6,70" />
<path stroke="#000000" stroke-width="2" d="M 1008.6,30" />
<path stroke="#000000" stroke-width="2" d="M 1008.6,30 1008.8,30 1009.2,30 1009.9,30 1010.7,30.1 1011.8,30.2 1013,30.3 1014.3,30.4 1015.7,30.6 1017.2,30.9 1018.6,31.2 1020.1,31.7 1021.6,32.2 1023,32.7 1024.3,33.4 1025.5,34.2 1026.6,35.1 1027.4,36.1 1028.1,37.3 1028.5,38.6 1028.6,40" />
<path stroke="#000000" stroke-width="2" d="M 1028.6,40 1030.6,42.1 1031.9,44.1 1032.7,45.7 1033,47.2 1032.9,48.4 1032.4,49.4 1031.7,50.2 1030.8,50.8 1029.8,51.1 1028.6,51.2 1027.5,51.1 1026.5,50.8 1025.6,50.2 1024.9,49.5 1024.4,48.4 1024.3,47.2 1024.6,45.7 1025.4,44.1 1026.7,42.1 1028.6,40" />
<path stroke="#000000" stroke-width="2" d="M 1028.6,40 1028.6,39.9 1028.7,39.7 1028.7,39.4 1028.8,39 1029,38.4 1029.2,37.8 1029.5,37.2 1029.9,36.5 1030.5,35.7 1031.1,35 1032,34.3 1033,33.5 1034.1,32.8 1035.5,32.2 1037.1,31.6 1038.9,31 1040.9,30.6 1043.2,30.3 1045.8,30.1 1048.6,30" />
<path stroke="#000000" stroke-width="2" d="M 1048.6,30 1048.5,32 1048.2,33.6 1047.8,34.9 1047.2,35.8 1046.5,36.3 1045.8,36.6 1045.1,36.7 1044.3,36.5 1043.6,36.1 1043,35.6 1042.5,35 1042.2,34.3 1042,33.6 1042,32.8 1042.3,32.1 1042.9,31.4 1043.8,30.9 1045,30.4 1046.6,30.1 1048.6,30 1058.6,30" />
<path stroke="#000000" stroke-width="2" d="M 1065.3,70" />
<path stroke="#000000" stroke-width="2" d="M 1065.3,50 1085.3,50" />
<path stroke="#000000" stroke-width="2" d="M 1115.3,70" />
<path stroke="#000000" stroke-width="2" d="M 1115.3,30 1135.3,30 1143,48.5 1150.6,30" />
<path stroke="#000000" stroke-width="2" d="M 1157.3,70" />
<path stroke="#000000" stroke-width="2" d="M 1157.3,25" />
<path stroke="#000000" stroke-width="2" d="M 1157.3,25 1159.3,24.9 1160.9,24.6 1162.2,24.1 1163,23.6 1163.6,22.9 1163.9,22.2 1163.9,21.4 1163.8,20.7 1163.4,20 1162.9,19.4 1162.3,18.9 1161.6,18.5 1160.9,18.3 1160.1,18.4 1159.4,18.7 1158.7,19.2 1158.1,20.1 1157.7,21.4 1157.4,23 1157.3,25 1157.3,40 1149.6,58.5" />
<path stroke="#000000" stroke-width="2" d="M 1170.6,70" />
<path stroke="#000000" stroke-width="2" d="M 1170.6,30 1170.6,38 1170.6,39 1170.7,40.1 1170.9,41.1 1171.2,42.1 1171.5,43.1 1172,44.1 1172.5,45 1173.1,45.8 1173.8,46.6 1174.5,47.4 1175.3,48 1176.1,48.6 1177.1,49.2 1178,49.6 1179,50 1180,50.2 1181,50.4 1182.1,50.5 1183.1,50.5 1184.2,50.4 1185.2,50.2 1186.2,50 1187.2,49.6 1188.1,49.2 1189,48.6 1189.9,48 1190.7,47.4 1191.4,46.6 1192.1,45.8 1192.7,45 1193.2,44.1 1193.7,43.1 1194,42.1 1194.3,41.1 1194.5,40.1 1194.6,39 1194.6,29 1194.6,69" />
<path stroke="#000000" stroke-width="2" d="M 1201.3,70" />
<path stroke="#000000" stroke-width="2" d="M 1209.3,20 1209.3,35" />
<path stroke="#000000" stroke-width="2" d="M 1209.3,35 1209.1,37 1208.8,38.6 1208.4,39.9 1207.8,40.8 1207.1,41.3 1206.4,41.6 1205.7,41.7 1204.9,41.5 1204.2,41.1 1203.6,40.6 1203.1,40 1202.8,39.3 1202.6,38.6 1202.6,37.8 1202.9,37.1 1203.5,36.4 1204.4,35.9 1205.6,35.4 1207.2,35.1 1209.3,35 1229.3,35" />
<path stroke="#000000" stroke-width="2" d="M 1259.3,70" />
<path stroke="#000000" stroke-width="2" d="M 1259.3,30 1299.3,30" />
<path stroke="#000000" stroke-width="2" d="M 1305.9,70" />
<path stroke="#000000" stroke-width="2" d="M 1305.9,50 1325.9,50" />
<path stroke="#000000" stroke-width="2" d="M 1355.9,70" />
</svg>