<svg xmlns="http://www.w3.org/2000/svg" width="1467.2347685596699" height="91.25" style="fill:none; stroke-linecap:round;">
    <rect width="100%" height="100%" fill="#FFFFFF" />
<path stroke="#000000" stroke-width="2" d="M 550,75" />
<path stroke="#000000" stroke-width="2" d="M 20,35" />
<path stroke="#000000" stroke-width="2" d="M 20,35 22,34.9 23.6,34.6 24.9,34.1 25.8,33.6 26.3,32.9 26.6,32.2 26.7,31.4 26.5,30.7 26.1,30 25.6,29.4 25,28.9 24.3,28.5 23.6,28.3 22.8,28.4 22.1,28.7 21.4,29.2 20.9,30.1 20.4,31.4 20.1,33 20,35 20,50 20,70 25.7,64.3" />
<path stroke="#000000" stroke-width="2" d="M 33.3,70" />
<path stroke="#000000" stroke-width="2" d="M 33.3,20 33.3,20.7 33.4,21.4 33.5,22.1 33.7,22.8 33.9,23.4 34.2,24 34.6,24.6 35,25.2 35.4,25.8 35.9,26.2 36.4,26.7 37,27.1 37.6,27.4 38.3,27.7 38.9,28 39.6,28.2 40.3,28.3 41,28.3 41.7,28.3 42.4,28.3 43,28.2 43.7,28 44.4,27.7 45,27.4 45.6,27.1 46.2,26.7 46.7,26.2 47.2,25.8 47.7,25.2 48.1,24.6 48.4,24 48.7,23.4 48.9,22.8 49.1,22.1 49.2,21.4 49.3,20.7" />
<path stroke="#000000" stroke-width="2" d="M 56,70" />
<path stroke="#000000" stroke-width="2" d="M 68,56" />
<path stroke="#000000" stroke-width="2" d="M 68,56 65.9,55.9 64.3,55.6 63.1,55.1 62.2,54.6 61.6,53.9 61.4,53.2 61.3,52.4 61.5,51.7 61.8,51 62.3,50.4 63,49.9 63.7,49.5 64.4,49.3 65.1,49.4 65.9,49.7 66.5,50.2 67.1,51.1 67.6,52.4 67.9,54 68,56 68,60" />
<path stroke="#000000" stroke-width="2" d="M 68,60 67.7,60.9 67.3,61.7 66.9,62.4 66.5,63.1 66.1,63.8 65.7,64.4 65.2,64.9 64.7,65.4 64.2,65.9 63.7,66.2 63.2,66.6 62.6,66.9 62.1,67.2 61.5,67.4 60.9,67.6 60.4,67.7 59.8,67.9 59.2,67.9 58.6,68 58,68" />
<path stroke="#000000" stroke-width="2" d="M 98,70" />
<path stroke="#000000" stroke-width="2" d="M 98,30 113.3,67" />
<path stroke="#000000" stroke-width="2" d="M 119.9,70" />
<path stroke="#000000" stroke-width="2" d="M 119.9,20 139.9,20" />
<path stroke="#000000" stroke-width="2" d="M 146.6,70" />
<path stroke="#000000" stroke-width="2" d="M 146.6,70 154.3,51.5 154.3,52.2 154.3,52.9 154.4,53.6 154.6,54.3 154.9,54.9 155.2,55.6 155.5,56.2 155.9,56.7 156.4,57.3 156.9,57.8 157.4,58.2 158,58.6 158.6,59 159.2,59.3 159.9,59.5 160.5,59.7 161.2,59.8 161.9,59.9 162.6,59.9 163.3,59.8 164,59.7 164.7,59.5 165.3,59.3 166,59 166.6,58.6 167.1,58.2 167.7,57.8 168.2,57.3 168.6,56.7 169,56.2 169.4,55.6 169.7,54.9 169.9,54.3 170.1,53.6 170.2,52.9 170.3,52.2" />
<path stroke="#000000" stroke-width="2" d="M 176.9,70" />
<path stroke="#000000" stroke-width="2" d="M 176.9,30 177.1,30 177.1,30.2 176.9,30.2 176.9,30" />
<path stroke="#000000" stroke-width="2" d="M 207.1,70" />
<path stroke="#000000" stroke-width="2" d="M 207.1,70 207.3,70 207.3,70.2 207.1,70.2 207.1,70" />
<path stroke="#000000" stroke-width="2" d="M 237.3,70" />
<path stroke="#000000" stroke-width="2" d="M 237.3,30 237.3,50 247.3,50 242.3,50 242.3,70" />
<path stroke="#000000" stroke-width="2" d="M 254,70" />
<path stroke="#000000" stroke-width="2" d="M 254,50" />
<path stroke="#000000" stroke-width="2" d="M 254,50 254.1,50 254.5,50 255.2,50 256.1,50.1 257.1,50.2 258.3,50.3 259.6,50.4 261,50.6 262.5,50.9 264,51.2 265.5,51.7 266.9,52.2 268.3,52.7 269.7,53.4 270.9,54.2 271.9,55.1 272.8,56.1 273.4,57.3 273.8,58.6 274,60" />
<path stroke="#000000" stroke-width="2" d="M 274,60 275.9,62.1 277.2,64.1 278,65.7 278.3,67.2 278.2,68.4 277.8,69.5 277.1,70.2 276.1,70.8 275.1,71.1 274,71.2 272.9,71.1 271.8,70.8 270.9,70.2 270.2,69.5 269.8,68.4 269.7,67.2 270,65.7 270.7,64 272.1,62.1 274,60" />
<path stroke="#000000" stroke-width="2" d="M 274,60 274,59.9 274,59.7 274.1,59.4 274.1,59 274.3,58.4 274.5,57.8 274.8,57.2 275.3,56.5 275.8,55.7 276.5,55 277.3,54.3 278.3,53.5 279.5,52.8 280.8,52.2 282.4,51.6 284.2,51 286.3,50.6 288.6,50.3 291.1,50.1 294,50 294,50.7 294,51.4 294.2,52.1 294.3,52.8 294.6,53.4 294.9,54 295.2,54.6 295.6,55.2 296.1,55.8 296.6,56.2 297.1,56.7 297.7,57.1 298.3,57.4 298.9,57.7 299.6,58 300.2,58.2 300.9,58.3 301.6,58.3 302.3,58.3 303,58.3 303.7,58.2 304.4,58 305,57.7 305.7,57.4 306.3,57.1 306.8,56.7 307.4,56.2 307.9,55.8 308.3,55.2 308.7,54.6 309.1,54 309.4,53.4 309.6,52.8 309.8,52.1 309.9,51.4 310,50.7" />
<path stroke="#000000" stroke-width="2" d="M 310,50.7 311.4,50.8 312.7,51.3 313.8,51.9 314.8,52.8 315.6,53.8 316.3,55 316.8,56.3 317.2,57.7 317.4,59.2 317.5,60.7 317.4,62.2 317.2,63.7 316.8,65.1 316.3,66.4 315.6,67.6 314.8,68.6 313.8,69.5 312.7,70.1 311.4,70.6 310,70.7" />
<path stroke="#000000" stroke-width="2" d="M 347.5,70" />
<path stroke="#000000" stroke-width="2" d="M 347.5,40" />
<path stroke="#000000" stroke-width="2" d="M 347.5,40 351.5,39.8 354.8,39.2 357.2,38.3 359,37.1 360.1,35.8 360.7,34.3 360.8,32.8 360.4,31.4 359.7,30 358.7,28.8 357.5,27.7 356.1,27 354.6,26.7 353.1,26.8 351.7,27.3 350.3,28.5 349.2,30.2 348.3,32.7 347.7,35.9 347.5,40 347.5,70" />
<path stroke="#000000" stroke-width="2" d="M 367.4,70" />
<path stroke="#000000" stroke-width="2" d="M 367.4,20 367.6,20 367.6,20.2 367.4,20.2 367.4,20" />
<path stroke="#000000" stroke-width="2" d="M 397.6,70" />
<path stroke="#000000" stroke-width="2" d="M 413.6,30" />
<path stroke="#000000" stroke-width="2" d="M 413.6,30 413.4,34.1 412.8,37.3 411.9,39.8 410.8,41.5 409.4,42.7 408,43.2 406.5,43.3 405,43 403.6,42.3 402.4,41.2 401.4,40 400.7,38.6 400.3,37.2 400.4,35.7 401,34.2 402.1,32.9 403.9,31.7 406.4,30.8 409.6,30.2 413.6,30 433.6,30" />
<path stroke="#000000" stroke-width="2" d="M 440.3,70" />
<path stroke="#000000" stroke-width="2" d="M 440.3,20 440.3,40 440.3,34 440.3,33.1 440.4,32.3 440.5,31.4 440.8,30.6 441.1,29.7 441.4,28.9 441.9,28.2 442.4,27.5 442.9,26.8 443.5,26.2 444.2,25.6 444.9,25.1 445.7,24.7 446.5,24.3 447.3,24 448.1,23.8 449,23.6 449.9,23.6 454.9,23.6 454.9,43.6" />
<path stroke="#000000" stroke-width="2" d="M 461.5,70" />
<path stroke="#000000" stroke-width="2" d="M 461.5,28 461.5,27.3 461.6,26.6 461.7,25.9 461.9,25.2 462.1,24.6 462.4,24 462.8,23.4 463.2,22.8 463.6,22.2 464.1,21.8 464.7,21.3 465.2,20.9 465.8,20.6 466.5,20.3 467.1,20 467.8,19.8 468.5,19.7 469.2,19.7 469.9,19.7 470.6,19.7 471.3,19.8 471.9,20 472.6,20.3 473.2,20.6 473.8,20.9 474.4,21.3 474.9,21.8 475.4,22.2 475.9,22.8 476.3,23.4 476.6,24 476.9,24.6 477.2,25.2 477.3,25.9 477.5,26.6 477.5,27.3 469.9,45.8 469.9,46.5 469.9,47.2 470,47.9 470.2,48.5 470.5,49.2 470.8,49.8 471.1,50.4 471.5,51 472,51.5 472.5,52 473,52.5 473.6,52.9 474.2,53.2 474.8,53.5 475.5,53.8 476.1,53.9 476.8,54.1 477.5,54.1 478.2,54.1 478.9,54.1 479.6,53.9 480.3,53.8 480.9,53.5 481.6,53.2 482.2,52.9 482.7,52.5 483.3,52 483.8,51.5 484.2,51 484.6,50.4 485,49.8 485.2,49.2 485.5,48.5 485.7,47.9 485.8,47.2 485.8,46.5" />
<path stroke="#000000" stroke-width="2" d="M 492.5,70" />
<path stroke="#000000" stroke-width="2" d="M 492.5,30 492.7,30 492.7,30.2 492.5,30.2 492.5,30" />
<path stroke="#000000" stroke-width="2" d="M 522.7,70" />
<path stroke="#000000" stroke-width="2" d="M 522.7,38 522.7,37.3 522.8,36.6 522.9,35.9 523.1,35.2 523.3,34.6 523.6,34 524,33.4 524.4,32.8 524.8,32.2 525.3,31.8 525.8,31.3 526.4,30.9 527,30.6 527.6,30.3 528.3,30 529,29.8 529.7,29.7 530.4,29.7 531.1,29.7 531.8,29.7 532.4,29.8 533.1,30 533.8,30.3 534.4,30.6 535,30.9 535.6,31.3 536.1,31.8 536.6,32.2 537.1,32.8 537.5,33.4 537.8,34 538.1,34.6 538.3,35.2 538.5,35.9 538.6,36.6 538.7,37.3 538.7,38 538.8,38.7 538.9,39.4 539.1,40.1 539.3,40.7 539.6,41.3 539.9,41.9 540.3,42.5 540.8,43.1 541.3,43.5 541.8,44 542.4,44.4 543,44.7 543.6,45 544.3,45.3 545,45.5 545.6,45.6 546.3,45.6 547,45.6 547.7,45.6 548.4,45.5 549.1,45.3 549.8,45 550.4,44.7 551,44.4 551.6,44 552.1,43.5 552.6,43.1 553,42.5 553.4,41.9 553.8,41.3 554.1,40.7 554.3,40.1 554.5,39.4 554.6,38.7 554.7,38" />
<path stroke="#000000" stroke-width="2" d="M 561.4,70" />
<path stroke="#000000" stroke-width="2" d="M 561.4,20 561.4,40 561.4,34 561.4,33.1 561.4,32.3 561.6,31.4 561.8,30.6 562.1,29.7 562.5,28.9 562.9,28.2 563.4,27.5 564,26.8 564.6,26.2 565.3,25.6 566,25.1 566.7,24.7 567.5,24.3 568.3,24 569.2,23.8 570,23.6 570.9,23.6 570.9,24.3 571,25 571.1,25.7 571.3,26.3 571.5,27 571.8,27.6 572.2,28.2 572.6,28.8 573,29.3 573.5,29.8 574,30.3 574.6,30.7 575.2,31 575.8,31.3 576.5,31.6 577.2,31.7 577.9,31.9 578.5,31.9 579.2,31.9 579.9,31.9 580.6,31.7 581.3,31.6 582,31.3 582.6,31 583.2,30.7 583.8,30.3 584.3,29.8 584.8,29.3 585.2,28.8 585.6,28.2 586,27.6 586.3,27 586.5,26.3 586.7,25.7 586.8,25 586.9,24.3" />
<path stroke="#000000" stroke-width="2" d="M 593.6,70" />
<path stroke="#000000" stroke-width="2" d="M 593.6,30 593.8,30 593.8,30.2 593.6,30.2 593.6,30" />
<path stroke="#000000" stroke-width="2" d="M 623.8,70" />
<path stroke="#000000" stroke-width="2" d="M 623.8,70 639.1,33 639.1,34.4 639.2,35.8 639.4,37.2 639.8,38.6 640.3,39.9 640.9,41.1 641.6,42.3 642.4,43.5 643.3,44.6 644.2,45.5 645.3,46.4 646.5,47.2 647.7,47.9 648.9,48.5 650.2,49 651.6,49.4 653,49.6 654.4,49.7 655.7,49.7 657.1,49.6 658.5,49.4 659.9,49 661.2,48.5 662.4,47.9 663.6,47.2 664.8,46.4 665.9,45.5 666.8,44.6 667.7,43.5 668.5,42.3 669.2,41.1 669.8,39.9 670.3,38.6 670.7,37.2 670.9,35.8 671,34.4" />
<path stroke="#000000" stroke-width="2" d="M 701,70" />
<path stroke="#000000" stroke-width="2" d="M 701,70 701.2,70 701.2,70.2 701,70.2 701,70" />
<path stroke="#000000" stroke-width="2" d="M 707.9,70" />
<path stroke="#000000" stroke-width="2" d="M 707.9,30 707.9,70 719.2,58.7" />
<path stroke="#000000" stroke-width="2" d="M 725.9,70" />
<path stroke="#000000" stroke-width="2" d="M 725.9,30" />
<path stroke="#000000" stroke-width="2" d="M 725.9,30 726,30 726.4,30 727.1,30 728,30.1 729,30.2 730.2,30.3 731.5,30.4 732.9,30.6 734.4,30.9 735.9,31.2 737.4,31.7 738.8,32.2 740.2,32.7 741.6,33.4 742.8,34.2 743.8,35.1 744.7,36.1 745.3,37.3 745.7,38.6 745.9,40" />
<path stroke="#000000" stroke-width="2" d="M 745.9,40 747.8,42.1 749.1,44.1 749.9,45.7 750.2,47.2 750.1,48.4 749.7,49.4 749,50.2 748,50.8 747,51.1 745.9,51.2 744.8,51.1 743.7,50.8 742.8,50.2 742.1,49.5 741.7,48.4 741.6,47.2 741.9,45.7 742.6,44.1 744,42.1 745.9,40" />
<path stroke="#000000" stroke-width="2" d="M 745.9,40 745.9,39.9 745.9,39.7 745.9,39.4 746,39 746.2,38.4 746.4,37.8 746.7,37.2 747.2,36.5 747.7,35.7 748.4,35 749.2,34.3 750.2,33.5 751.4,32.8 752.7,32.2 754.3,31.6 756.1,31 758.2,30.6 760.5,30.3 763,30.1 765.9,30" />
<path stroke="#000000" stroke-width="2" d="M 765.9,30 765.8,32 765.5,33.6 765,34.9 764.4,35.8 763.8,36.3 763,36.6 762.3,36.7 761.6,36.5 760.9,36.1 760.3,35.6 759.8,35 759.4,34.3 759.2,33.6 759.3,32.8 759.6,32.1 760.1,31.4 761,30.9 762.2,30.4 763.9,30.1 765.9,30 775.9,30" />
<path stroke="#000000" stroke-width="2" d="M 805.9,70" />
<path stroke="#000000" stroke-width="2" d="M 825.9,30 810.6,67" />
<path stroke="#000000" stroke-width="2" d="M 832.5,70" />
<path stroke="#000000" stroke-width="2" d="M 832.5,50 832.7,50 832.7,50.2 832.5,50.2 832.5,50" />
<path stroke="#000000" stroke-width="2" d="M 862.7,70" />
<path stroke="#000000" stroke-width="2" d="M 862.7,70 862.9,70 862.9,70.2 862.7,70.2 862.7,70" />
<path stroke="#000000" stroke-width="2" d="M 869.6,70" />
<path stroke="#000000" stroke-width="2" d="M 885.6,30 865.8,49.8 885.6,69.6" />
<path stroke="#000000" stroke-width="2" d="M 892.3,70" />
<path stroke="#000000" stroke-width="2" d="M 892.3,50 892.3,70 892.3,64 892.3,63.1 892.4,62.3 892.5,61.4 892.7,60.6 893,59.7 893.4,58.9 893.8,58.2 894.3,57.5 894.9,56.8 895.5,56.2 896.2,55.6 896.9,55.1 897.7,54.7 898.4,54.3 899.3,54 900.1,53.8 901,53.6 901.8,53.6" />
<path stroke="#000000" stroke-width="2" d="M 908.5,70" />
<path stroke="#000000" stroke-width="2" d="M 908.5,30 948.5,30 908.9,69.6 948.9,69.6" />
<path stroke="#000000" stroke-width="2" d="M 955.6,70" />
<path stroke="#000000" stroke-width="2" d="M 955.6,50 975.6,50" />
<path stroke="#000000" stroke-width="2" d="M 1005.6,70" />
<path stroke="#000000" stroke-width="2" d="M 1005.6,70 1005.8,70 1005.8,70.2 1005.6,70.2 1005.6,70" />
<path stroke="#000000" stroke-width="2" d="M 1035.8,70" />
<path stroke="#000000" stroke-width="2" d="M 1035.8,30 1035.8,70 1055.8,70" />
<path stroke="#000000" stroke-width="2" d="M 1085.8,70" />
<path stroke="#000000" stroke-width="2" d="M 1085.8,46 1085.8,44.6 1085.9,43.2 1086.1,41.8 1086.5,40.5 1087,39.2 1087.6,37.9 1088.3,36.7 1089.1,35.6 1090,34.5 1090.9,33.5 1092,32.6 1093.2,31.8 1094.4,31.1 1095.6,30.5 1096.9,30 1098.3,29.7 1099.7,29.4 1101.1,29.3 1102.5,29.3 1103.8,29.4 1105.2,29.7 1106.6,30 1107.9,30.5 1109.1,31.1 1110.4,31.8 1111.5,32.6 1112.6,33.5 1113.6,34.5 1114.4,35.6 1115.2,36.7 1115.9,37.9 1116.5,39.2 1117,40.5 1117.4,41.8 1117.6,43.2 1117.7,44.6" />
<path stroke="#000000" stroke-width="2" d="M 1124.4,70" />
<path stroke="#000000" stroke-width="2" d="M 1124.4,50" />
<path stroke="#000000" stroke-width="2" d="M 1124.4,50 1124.6,50 1125,50 1125.6,50 1126.5,50.1 1127.5,50.2 1128.7,50.3 1130,50.4 1131.4,50.6 1132.9,50.9 1134.4,51.2 1135.9,51.7 1137.4,52.2 1138.8,52.7 1140.1,53.4 1141.3,54.2 1142.3,55.1 1143.2,56.1 1143.8,57.3 1144.3,58.6 1144.4,60" />
<path stroke="#000000" stroke-width="2" d="M 1144.4,60 1146.3,62.1 1147.6,64.1 1148.4,65.7 1148.7,67.2 1148.6,68.4 1148.2,69.5 1147.5,70.2 1146.6,70.8 1145.5,71.1 1144.4,71.2 1143.3,71.1 1142.2,70.8 1141.3,70.2 1140.6,69.5 1140.2,68.4 1140.1,67.2 1140.4,65.7 1141.2,64 1142.5,62.1 1144.4,60" />
<path stroke="#000000" stroke-width="2" d="M 1144.4,60 1144.4,59.9 1144.4,59.7 1144.5,59.4 1144.6,59 1144.7,58.4 1144.9,57.8 1145.3,57.2 1145.7,56.5 1146.2,55.7 1146.9,55 1147.7,54.3 1148.7,53.5 1149.9,52.8 1151.3,52.2 1152.8,51.6 1154.6,51 1156.7,50.6 1159,50.3 1161.6,50.1 1164.4,50 1164.4,50.7 1164.5,51.4 1164.6,52.1 1164.8,52.8 1165,53.4 1165.3,54 1165.7,54.6 1166.1,55.2 1166.5,55.8 1167,56.2 1167.5,56.7 1168.1,57.1 1168.7,57.4 1169.3,57.7 1170,58 1170.7,58.2 1171.4,58.3 1172.1,58.3 1172.7,58.3 1173.4,58.3 1174.1,58.2 1174.8,58 1175.5,57.7 1176.1,57.4 1176.7,57.1 1177.3,56.7 1177.8,56.2 1178.3,55.8 1178.7,55.2 1179.1,54.6 1179.5,54 1179.8,53.4 1180,52.8 1180.2,52.1 1180.3,51.4 1180.4,50.7" />
<path stroke="#000000" stroke-width="2" d="M 1180.4,50.7 1181.8,50.8 1183.1,51.3 1184.2,51.9 1185.2,52.8 1186,53.8 1186.7,55 1187.2,56.3 1187.6,57.7 1187.8,59.2 1187.9,60.7 1187.8,62.2 1187.6,63.7 1187.2,65.1 1186.7,66.4 1186,67.6 1185.2,68.6 1184.2,69.5 1183.1,70.1 1181.8,70.6 1180.4,70.7" />
<path stroke="#000000" stroke-width="2" d="M 1217.9,70" />
<path stroke="#000000" stroke-width="2" d="M 1219.9,50 1225.2,37.1 1225.4,36.7 1225.5,36.4 1225.6,36.1 1225.6,35.7 1225.6,35.4 1225.6,35 1225.6,34.7 1225.5,34.3 1225.4,34 1225.2,33.7 1225.1,33.4 1224.9,33.1 1224.7,32.8 1224.5,32.5 1224.2,32.3 1223.9,32.1 1223.6,31.9 1223.3,31.7 1223,31.6 1222.7,31.5 1222.3,31.4 1222,31.4 1221.6,31.4 1221.3,31.4 1220.9,31.4 1220.6,31.5 1220.3,31.6 1219.9,31.7 1219.6,31.9 1219.3,32.1 1219.1,32.3 1218.8,32.5 1218.6,32.8 1218.3,33.1 1218.2,33.4 1218,33.7 1217.9,34 1217.8,34.3 1217.7,34.7 1217.6,35 1217.6,35.4 1217.6,35.7 1217.7,36.1 1217.8,36.4 1217.9,36.7 1218,37.1 1218.2,37.4 1218.3,37.7 1218.6,37.9 1218.8,38.2 1219.1,38.4 1219.3,38.7 1219.6,38.8 1219.9,39 1220.3,39.1 1220.6,39.2 1220.9,39.3 1221.3,39.4 1221.6,39.4 1222,39.4 1234.9,34 1242.6,52.5 1250.2,34 1270.2,34" />
<path stroke="#000000" stroke-width="2" d="M 1300.2,70" />
<path stroke="#000000" stroke-width="2" d="M 1300.2,30 1310.2,30 1310.2,70" />
<path stroke="#000000" stroke-width="2" d="M 1316.9,70" />
<path stroke="#000000" stroke-width="2" d="M 1316.9,20 1316.9,20.7 1316.9,21.4 1317.1,22.1 1317.2,22.8 1317.5,23.4 1317.8,24 1318.1,24.6 1318.5,25.2 1319,25.8 1319.5,26.2 1320,26.7 1320.6,27.1 1321.2,27.4 1321.8,27.7 1322.5,28 1323.1,28.2 1323.8,28.3 1324.5,28.3 1325.2,28.3 1325.9,28.3 1326.6,28.2 1327.3,28 1327.9,27.7 1328.6,27.4 1329.2,27.1 1329.7,26.7 1330.3,26.2 1330.8,25.8 1331.2,25.2 1331.6,24.6 1332,24 1332.3,23.4 1332.5,22.8 1332.7,22.1 1332.8,21.4 1332.9,20.7" />
<path stroke="#000000" stroke-width="2" d="M 1362.9,70" />
<path stroke="#000000" stroke-width="2" d="M 1362.9,70 1363.1,70 1363.1,70.2 1362.9,70.2 1362.9,70" />
<path stroke="#000000" stroke-width="2" d="M 1369.7,70" />
<path stroke="#000000" stroke-width="2" d="M 1369.7,30 1385,67 1400.3,30" />
<path stroke="#000000" stroke-width="2" d="M 1407,70" />
<path stroke="#000000" stroke-width="2" d="M 1407,20 1407,40 1407,34 1407,33.1 1407.1,32.3 1407.2,31.4 1407.5,30.6 1407.8,29.7 1408.1,28.9 1408.6,28.2 1409.1,27.5 1409.6,26.8 1410.2,26.2 1410.9,25.6 1411.6,25.1 1412.4,24.7 1413.2,24.3 1414,24 1414.8,23.8 1415.7,23.6 1416.6,23.6" />
<path stroke="#000000" stroke-width="2" d="M 1423.2,70" />
<path stroke="#000000" stroke-width="2" d="M 1447.2,42" />
<path stroke="#000000" stroke-width="2" d="M 1447.2,42 1443.2,41.8 1439.9,41.2 1437.5,40.3 1435.7,39.1 1434.6,37.8 1434,36.3 1433.9,34.8 1434.3,33.4 1435,32 1436,30.8 1437.2,29.7 1438.6,29 1440.1,28.7 1441.6,28.8 1443,29.3 1444.4,30.5 1445.5,32.2 1446.4,34.7 1447,37.9 1447.2,42 1447.2,50" />
<path stroke="#000000" stroke-width="2" d="M 1447.2,50 1446.6,51.7 1445.9,53.4 1445.2,54.9 1444.4,56.3 1443.5,57.6 1442.7,58.7 1441.7,59.8 1440.8,60.8 1439.8,61.7 1438.7,62.5 1437.7,63.2 1436.6,63.8 1435.5,64.4 1434.3,64.8 1433.2,65.2 1432,65.5 1430.8,65.7 1429.6,65.9 1428.4,66 1427.2,66" />
<path stroke="#000000" stroke-width="2" d="M 1477.2,70" />
</svg>