<svg xmlns="http://www.w3.org/2000/svg" width="872.1100913694218" height="110.0" style="fill:none; stroke-linecap:round;">
    <rect width="100%" height="100%" fill="#FFFFFF" />
<path stroke="#000000" stroke-width="2" d="M 550,75" />
<path stroke="#000000" stroke-width="2" d="M 20,70 20,68.6 20.1,67.2 20.4,65.8 20.7,64.5 21.2,63.2 21.8,61.9 22.5,60.7 23.3,59.6 24.2,58.5 25.2,57.5 26.2,56.6 27.4,55.8 28.6,55.1 29.9,54.5 31.2,54 32.5,53.7 33.9,53.4 35.3,53.3 36.7,53.3 38.1,53.4 39.4,53.7 40.8,54 42.1,54.5 43.4,55.1 44.6,55.8 45.7,56.6 46.8,57.5 47.8,58.5 48.7,59.6 49.5,60.7 50.2,61.9 50.8,63.2 51.2,64.5 51.6,65.8 51.8,67.2 52,68.6" />
<path stroke="#000000" stroke-width="2" d="M 58.6,70" />
<path stroke="#000000" stroke-width="2" d="M 58.6,30 78.6,30 78.6,34 78.6,34.5 78.7,35 78.8,35.6 78.9,36.1 79.1,36.6 79.3,37 79.6,37.5 79.9,37.9 80.2,38.3 80.6,38.7 81,39 81.4,39.3 81.9,39.6 82.3,39.8 82.8,40 83.3,40.1 83.8,40.2 84.4,40.3 84.9,40.3 85.4,40.2 85.9,40.1 86.4,40 86.9,39.8 87.4,39.6 87.9,39.3 88.3,39 88.7,38.7 89.1,38.3 89.4,37.9 89.7,37.5 90,37 90.2,36.6 90.4,36.1 90.5,35.6 90.6,35 90.6,34.5 90.6,29.5 90.6,49.5 91.5,49.5 92.4,49.6 93.2,49.8 94.1,50 94.9,50.3 95.7,50.6 96.4,51.1 97.1,51.6 97.8,52.1 98.4,52.8 99,53.4 99.5,54.1 99.9,54.9 100.3,55.7 100.6,56.5 100.8,57.3 101,58.2 101.1,59.1 101.1,60 101,60.8 100.8,61.7 100.6,62.5 100.3,63.3 99.9,64.1 99.5,64.9 99,65.6 98.4,66.3 97.8,66.9 97.1,67.4 96.4,67.9 95.7,68.4 94.9,68.8 94.1,69.1 93.2,69.3 92.4,69.4 91.5,69.5" />
<path stroke="#000000" stroke-width="2" d="M 107.7,70" />
<path stroke="#000000" stroke-width="2" d="M 107.7,50 115.4,68.5" />
<path stroke="#000000" stroke-width="2" d="M 145.4,70" />
<path stroke="#000000" stroke-width="2" d="M 145.4,50 153,31.5 160.7,50 180.7,50 181.6,50 182.4,50.1 183.3,50.2 184.1,50.5 184.9,50.8 185.7,51.1 186.5,51.6 187.2,52.1 187.9,52.6 188.5,53.2 189,53.9 189.5,54.6 190,55.4 190.4,56.2 190.7,57 190.9,57.8 191,58.7 191.1,59.6 191.1,60.4 191,61.3 190.9,62.2 190.7,63 190.4,63.8 190,64.6 189.5,65.4 189,66.1 188.5,66.7 187.9,67.4 187.2,67.9 186.5,68.4 185.7,68.9 184.9,69.2 184.1,69.5 183.3,69.8 182.4,69.9 181.6,70" />
<path stroke="#000000" stroke-width="2" d="M 221.1,70" />
<path stroke="#000000" stroke-width="2" d="M 231.1,30 223.5,48.5 213.6,58.4 223.5,68.3" />
<path stroke="#000000" stroke-width="2" d="M 237.8,70" />
<path stroke="#000000" stroke-width="2" d="M 237.8,20 237.8,40 247.8,40 247.8,60 247.8,54 247.8,53.1 247.8,52.3 248,51.4 248.2,50.6 248.5,49.7 248.9,48.9 249.3,48.2 249.8,47.5 250.4,46.8 251,46.2 251.7,45.6 252.4,45.1 253.1,44.7 253.9,44.3 254.8,44 255.6,43.8 256.5,43.6 257.3,43.6" />
<path stroke="#000000" stroke-width="2" d="M 287.3,70" />
<path stroke="#000000" stroke-width="2" d="M 287.3,40" />
<path stroke="#000000" stroke-width="2" d="M 287.3,40 291.4,39.8 294.6,39.2 297.1,38.3 298.8,37.1 300,35.8 300.6,34.3 300.6,32.8 300.3,31.4 299.6,30 298.6,28.8 297.4,27.7 296,27 294.5,26.7 293,26.8 291.5,27.3 290.2,28.5 289,30.2 288.1,32.7 287.5,35.9 287.3,40 287.3,70" />
<path stroke="#000000" stroke-width="2" d="M 307.3,70" />
<path stroke="#000000" stroke-width="2" d="M 307.3,50 307.3,70 307.3,90 297.3,90" />
<path stroke="#000000" stroke-width="2" d="M 314,70" />
<path stroke="#000000" stroke-width="2" d="M 319,20 314,20 314,40 306.3,58.5" />
<path stroke="#000000" stroke-width="2" d="M 306.3,58.5 308.3,58.4 310,58.1 311.2,57.6 312.1,57 312.6,56.4 312.9,55.6 313,54.9 312.8,54.2 312.4,53.5 311.9,52.9 311.3,52.4 310.6,52 309.9,51.8 309.2,51.9 308.4,52.1 307.8,52.7 307.2,53.6 306.7,54.8 306.4,56.4 306.3,58.5 306.3,73.5" />
<path stroke="#000000" stroke-width="2" d="M 349,70" />
<path stroke="#000000" stroke-width="2" d="M 349,70" />
<path stroke="#000000" stroke-width="2" d="M 349,70 350.1,70 351.1,70.2 351.9,70.4 352.6,70.7 353.2,71 353.6,71.5 354,71.9 354.2,72.5 354.2,73.1 354.2,73.8 354.1,74.4 353.9,75.2 353.5,76 353.1,76.8 352.6,77.6 352,78.4 351.4,79.3 350.6,80.2 349.8,81.1 349,82" />
<path stroke="#000000" stroke-width="2" d="M 384.2,70" />
<path stroke="#000000" stroke-width="2" d="M 384.2,50 391.9,31.5 399.5,50 399.5,50.7 399.6,51.4 399.7,52.1 399.9,52.8 400.1,53.4 400.4,54 400.8,54.6 401.2,55.2 401.6,55.8 402.1,56.2 402.7,56.7 403.2,57.1 403.8,57.4 404.5,57.7 405.1,58 405.8,58.2 406.5,58.3 407.2,58.3 407.9,58.3 408.6,58.3 409.3,58.2 409.9,58 410.6,57.7 411.2,57.4 411.8,57.1 412.4,56.7 412.9,56.2 413.4,55.8 413.9,55.2 414.3,54.6 414.6,54 414.9,53.4 415.2,52.8 415.4,52.1 415.5,51.4 415.5,50.7 415.5,51.4 415.6,52.1 415.7,52.8 415.9,53.5 416.1,54.1 416.4,54.7 416.8,55.3 417.2,55.9 417.6,56.5 418.1,56.9 418.7,57.4 419.2,57.8 419.8,58.1 420.5,58.4 421.1,58.7 421.8,58.9 422.5,59 423.2,59 423.9,59 424.6,59 425.3,58.9 425.9,58.7 426.6,58.4 427.2,58.1 427.8,57.8 428.4,57.4 428.9,56.9 429.4,56.5 429.9,55.9 430.3,55.3 430.6,54.7 430.9,54.1 431.2,53.5 431.3,52.8 431.5,52.1 431.5,51.4" />
<path stroke="#000000" stroke-width="2" d="M 461.5,70" />
<path stroke="#000000" stroke-width="2" d="M 461.5,70 461.7,70 461.7,70.2 461.5,70.2 461.5,70" />
<path stroke="#000000" stroke-width="2" d="M 468.4,70" />
<path stroke="#000000" stroke-width="2" d="M 468.4,30 470.1,30 471.9,30.2 473.6,30.5 475.3,30.9 476.9,31.5 478.5,32.2 480,33.1 481.4,34.1 482.8,35.2 484,36.5 485.1,37.8 486.1,39.2 487,40.7 487.7,42.3 488.3,44 488.8,45.7 489.1,47.4 489.2,49.1 489.2,50.9 489.1,52.6 488.8,54.3 488.3,56 487.7,57.6 487,59.2 486.1,60.7 485.1,62.2 484,63.5 482.8,64.7 481.4,65.8 480,66.8 478.5,67.7 476.9,68.5 475.3,69.1 473.6,69.5 471.9,69.8 470.1,70" />
<path stroke="#000000" stroke-width="2" d="M 495.9,70" />
<path stroke="#000000" stroke-width="2" d="M 495.9,30 500.9,30 500.9,50 505.9,50 505.9,70" />
<path stroke="#000000" stroke-width="2" d="M 512.6,70" />
<path stroke="#000000" stroke-width="2" d="M 512.6,20 512.6,40 512.6,34 512.6,33.1 512.6,32.3 512.8,31.4 513,30.6 513.3,29.7 513.7,28.9 514.1,28.2 514.6,27.5 515.2,26.8 515.8,26.2 516.5,25.6 517.2,25.1 517.9,24.7 518.7,24.3 519.6,24 520.4,23.8 521.3,23.6 522.1,23.6" />
<path stroke="#000000" stroke-width="2" d="M 528.8,70" />
<path stroke="#000000" stroke-width="2" d="M 528.8,20 548.8,20 541.1,38.5" />
<path stroke="#000000" stroke-width="2" d="M 578.8,70" />
<path stroke="#000000" stroke-width="2" d="M 598.8,30 583.5,67" />
<path stroke="#000000" stroke-width="2" d="M 605.5,70" />
<path stroke="#000000" stroke-width="2" d="M 621.5,30" />
<path stroke="#000000" stroke-width="2" d="M 621.5,30 621.2,34.1 620.6,37.3 619.7,39.8 618.6,41.5 617.2,42.7 615.8,43.2 614.3,43.3 612.8,43 611.4,42.3 610.2,41.2 609.2,40 608.5,38.6 608.1,37.2 608.2,35.7 608.8,34.2 609.9,32.9 611.7,31.7 614.2,30.8 617.4,30.2 621.5,30 641.5,30" />
<path stroke="#000000" stroke-width="2" d="M 648.1,70" />
<path stroke="#000000" stroke-width="2" d="M 648.1,25" />
<path stroke="#000000" stroke-width="2" d="M 648.1,25 650.2,24.9 651.8,24.6 653,24.1 653.9,23.6 654.5,22.9 654.7,22.2 654.8,21.4 654.6,20.7 654.3,20 653.8,19.4 653.1,18.9 652.4,18.5 651.7,18.3 651,18.4 650.2,18.7 649.6,19.2 649,20.1 648.5,21.4 648.2,23 648.1,25 648.1,40" />
<path stroke="#000000" stroke-width="2" d="M 684.8,70" />
<path stroke="#000000" stroke-width="2" d="M 694.8,30 693.9,30 693,30.1 692.2,30.2 691.3,30.5 690.5,30.8 689.7,31.1 689,31.6 688.3,32.1 687.6,32.6 687,33.2 686.4,33.9 685.9,34.6 685.5,35.4 685.1,36.2 684.8,37 684.6,37.8 684.4,38.7 684.4,39.6 684.4,40.4 684.4,41.3 684.6,42.2 684.8,43 685.1,43.8 685.5,44.6 685.9,45.4 686.4,46.1 687,46.7 687.6,47.4 688.3,47.9 689,48.4 689.7,48.9 690.5,49.2 691.3,49.5 692.2,49.8 693,49.9 693.9,50 698.9,50 698.9,70" />
<path stroke="#000000" stroke-width="2" d="M 728.9,70" />
<path stroke="#000000" stroke-width="2" d="M 744.9,30" />
<path stroke="#000000" stroke-width="2" d="M 744.9,30 744.7,34.1 744.1,37.3 743.2,39.8 742,41.5 740.7,42.7 739.2,43.2 737.7,43.3 736.3,43 734.9,42.3 733.7,41.2 732.7,40 731.9,38.6 731.6,37.2 731.7,35.7 732.3,34.2 733.4,32.9 735.2,31.7 737.6,30.8 740.8,30.2 744.9,30 764.9,30" />
<path stroke="#000000" stroke-width="2" d="M 771.6,70" />
<path stroke="#000000" stroke-width="2" d="M 771.6,50 791.6,50" />
<path stroke="#000000" stroke-width="2" d="M 798.2,70" />
<path stroke="#000000" stroke-width="2" d="M 800.2,50 805.6,37.1 805.7,36.7 805.8,36.4 805.9,36.1 806,35.7 806,35.4 806,35 805.9,34.7 805.8,34.3 805.7,34 805.6,33.7 805.4,33.4 805.2,33.1 805,32.8 804.8,32.5 804.5,32.3 804.3,32.1 804,31.9 803.7,31.7 803.3,31.6 803,31.5 802.7,31.4 802.3,31.4 802,31.4 801.6,31.4 801.3,31.4 800.9,31.5 800.6,31.6 800.3,31.7 800,31.9 799.7,32.1 799.4,32.3 799.1,32.5 798.9,32.8 798.7,33.1 798.5,33.4 798.3,33.7 798.2,34 798.1,34.3 798,34.7 798,35 798,35.4 798,35.7 798,36.1 798.1,36.4 798.2,36.7 798.3,37.1 798.5,37.4 798.7,37.7 798.9,37.9 799.1,38.2 799.4,38.4 799.7,38.7 800,38.8 800.3,39 800.6,39.1 800.9,39.2 801.3,39.3 801.6,39.4 802,39.4 802.3,39.4 815.3,34" />
<path stroke="#000000" stroke-width="2" d="M 815.3,34 817.3,33.9 818.9,33.6 820.1,33.1 821,32.6 821.6,31.9 821.9,31.2 821.9,30.4 821.7,29.7 821.4,29 820.9,28.4 820.3,27.9 819.6,27.5 818.8,27.3 818.1,27.4 817.4,27.7 816.7,28.2 816.1,29.1 815.7,30.4 815.4,32 815.3,34 815.3,49" />
<path stroke="#000000" stroke-width="2" d="M 851.9,70" />
<path stroke="#000000" stroke-width="2" d="M 851.9,70 852.1,70 852.1,70.2 851.9,70.2 851.9,70" />
<path stroke="#000000" stroke-width="2" d="M 882.1,70" />
</svg>