<svg xmlns="http://www.w3.org/2000/svg" width="1213.390424858017" height="98.67091005298957" style="fill:none; stroke-linecap:round;">
    <rect width="100%" height="100%" fill="#FFFFFF" />
<path stroke="#000000" stroke-width="2" d="M 550,75" />
<path stroke="#000000" stroke-width="2" d="M 20,30 60,30" />
<path stroke="#000000" stroke-width="2" d="M 66.7,70" />
<path stroke="#000000" stroke-width="2" d="M 66.7,20 74.3,38.5" />
<path stroke="#000000" stroke-width="2" d="M 81,70" />
<path stroke="#000000" stroke-width="2" d="M 81,20" />
<path stroke="#000000" stroke-width="2" d="M 81,20 82.4,20.1 83.7,20.6 84.8,21.2 85.8,22.1 86.6,23.1 87.3,24.3 87.8,25.6 88.2,27 88.4,28.5 88.5,30 88.4,31.5 88.2,33 87.8,34.4 87.3,35.7 86.6,36.9 85.8,37.9 84.8,38.8 83.7,39.4 82.4,39.9 81,40" />
<path stroke="#000000" stroke-width="2" d="M 118.5,70" />
<path stroke="#000000" stroke-width="2" d="M 118.5,30 118.5,70 118.5,58 118.5,56.3 118.6,54.5 118.9,52.8 119.4,51.1 120,49.5 120.7,47.9 121.6,46.4 122.6,45 123.7,43.6 125,42.4 126.3,41.3 127.7,40.3 129.2,39.4 130.8,38.7 132.5,38.1 134.1,37.6 135.9,37.3 137.6,37.1" />
<path stroke="#000000" stroke-width="2" d="M 144.3,70" />
<path stroke="#000000" stroke-width="2" d="M 144.3,20 164.3,20 164.3,40" />
<path stroke="#000000" stroke-width="2" d="M 170.9,70" />
<path stroke="#000000" stroke-width="2" d="M 170.9,50" />
<path stroke="#000000" stroke-width="2" d="M 170.9,50 172.4,50.1 173.6,50.6 174.8,51.2 175.7,52.1 176.6,53.1 177.2,54.3 177.8,55.6 178.1,57 178.4,58.5 178.4,60 178.4,61.5 178.1,63 177.8,64.4 177.2,65.7 176.6,66.9 175.7,67.9 174.8,68.8 173.6,69.4 172.4,69.9 170.9,70" />
<path stroke="#000000" stroke-width="2" d="M 185.1,70" />
<path stroke="#000000" stroke-width="2" d="M 193.1,20 193.1,35" />
<path stroke="#000000" stroke-width="2" d="M 193.1,35 193,37 192.7,38.6 192.2,39.9 191.7,40.8 191,41.3 190.3,41.6 189.5,41.7 188.8,41.5 188.1,41.1 187.5,40.6 187,40 186.6,39.3 186.4,38.6 186.5,37.8 186.8,37.1 187.3,36.4 188.2,35.9 189.5,35.4 191.1,35.1 193.1,35" />
<path stroke="#000000" stroke-width="2" d="M 223.1,70" />
<path stroke="#000000" stroke-width="2" d="M 223.1,35" />
<path stroke="#000000" stroke-width="2" d="M 223.1,35 225.1,34.9 226.7,34.6 228,34.1 228.9,33.6 229.4,32.9 229.7,32.2 229.7,31.4 229.6,30.7 229.2,30 228.7,29.4 228.1,28.9 227.4,28.5 226.7,28.3 225.9,28.4 225.2,28.7 224.5,29.2 224,30.1 223.5,31.4 223.2,33 223.1,35 223.1,50 215.4,68.5" />
<path stroke="#000000" stroke-width="2" d="M 236.4,70" />
<path stroke="#000000" stroke-width="2" d="M 236.4,50" />
<path stroke="#000000" stroke-width="2" d="M 236.4,50 237.8,50.1 239.1,50.6 240.2,51.2 241.2,52.1 242,53.1 242.7,54.3 243.2,55.6 243.6,57 243.8,58.5 243.9,60 243.8,61.5 243.6,63 243.2,64.4 242.7,65.7 242,66.9 241.2,67.9 240.2,68.8 239.1,69.4 237.8,69.9 236.4,70" />
<path stroke="#000000" stroke-width="2" d="M 273.9,70" />
<path stroke="#000000" stroke-width="2" d="M 283.9,30" />
<path stroke="#000000" stroke-width="2" d="M 283.9,30 281.1,30.3 278.5,31.1 276.3,32.4 274.3,34.2 272.7,36.2 271.3,38.6 270.3,41.3 269.5,44.1 269.1,47 268.9,50 269.1,53 269.5,55.9 270.3,58.7 271.3,61.4 272.7,63.8 274.3,65.8 276.3,67.6 278.5,68.9 281.1,69.7 283.9,70" />
<path stroke="#000000" stroke-width="2" d="M 283.9,50" />
<path stroke="#000000" stroke-width="2" d="M 251.9,50 291.9,50" />
<path stroke="#000000" stroke-width="2" d="M 321.9,70" />
<path stroke="#000000" stroke-width="2" d="M 321.9,50 329.6,31.5 337.2,50 337.2,54 337.2,54.5 337.3,55 337.4,55.6 337.5,56.1 337.7,56.6 337.9,57 338.2,57.5 338.5,57.9 338.8,58.3 339.2,58.7 339.6,59 340,59.3 340.4,59.6 340.9,59.8 341.4,60 341.9,60.1 342.4,60.2 343,60.3 343.5,60.3 344,60.2 344.5,60.1 345,60 345.5,59.8 346,59.6 346.4,59.3 346.9,59 347.3,58.7 347.6,58.3 348,57.9 348.3,57.5 348.5,57 348.8,56.6 348.9,56.1 349.1,55.6 349.2,55 349.2,54.5 349.2,49.5 349.2,69.5" />
<path stroke="#000000" stroke-width="2" d="M 355.9,70" />
<path stroke="#000000" stroke-width="2" d="M 355.9,20 375.9,20" />
<path stroke="#000000" stroke-width="2" d="M 375.9,20 377.9,19.9 379.5,19.6 380.8,19.1 381.6,18.6 382.2,17.9 382.5,17.2 382.5,16.4 382.4,15.7 382,15 381.5,14.4 380.9,13.9 380.2,13.5 379.5,13.3 378.7,13.4 378,13.7 377.3,14.2 376.7,15.1 376.3,16.4 376,18 375.9,20 375.9,35 368.2,53.5" />
<path stroke="#000000" stroke-width="2" d="M 412.5,70" />
<path stroke="#000000" stroke-width="2" d="M 412.5,70 412.7,70 412.7,70.2 412.5,70.2 412.5,70" />
<path stroke="#000000" stroke-width="2" d="M 419.4,70" />
<path stroke="#000000" stroke-width="2" d="M 419.4,30" />
<path stroke="#000000" stroke-width="2" d="M 419.4,30 422.3,30.3 424.8,31.1 427.1,32.4 429,34.2 430.7,36.2 432,38.6 433.1,41.3 433.8,44.1 434.3,47 434.4,50 434.3,53 433.8,55.9 433.1,58.7 432,61.4 430.7,63.8 429,65.8 427.1,67.6 424.8,68.9 422.3,69.7 419.4,70" />
<path stroke="#000000" stroke-width="2" d="M 441.1,70" />
<path stroke="#000000" stroke-width="2" d="M 449.1,20" />
<path stroke="#000000" stroke-width="2" d="M 449.1,20 449,22 448.7,23.6 448.2,24.9 447.6,25.8 447,26.3 446.2,26.6 445.5,26.7 444.7,26.5 444.1,26.1 443.4,25.6 442.9,25 442.6,24.3 442.4,23.6 442.5,22.8 442.7,22.1 443.3,21.4 444.2,20.9 445.4,20.4 447,20.1 449.1,20 459.1,20" />
<path stroke="#000000" stroke-width="2" d="M 489.1,70" />
<path stroke="#000000" stroke-width="2" d="M 489.1,30 489.1,38 489.1,39 489.2,40.1 489.3,41.1 489.6,42.1 490,43.1 490.4,44.1 490.9,45 491.5,45.8 492.2,46.6 492.9,47.4 493.8,48 494.6,48.6 495.5,49.2 496.5,49.6 497.4,50 498.5,50.2 499.5,50.4 500.5,50.5 501.6,50.5 502.6,50.4 503.7,50.2 504.7,50 505.6,49.6 506.6,49.2 507.5,48.6 508.4,48 509.2,47.4 509.9,46.6 510.6,45.8 511.2,45 511.7,44.1 512.1,43.1 512.5,42.1 512.8,41.1 513,40.1 513,39 513,29 513,69 513,67.3 513.2,65.6 513.5,63.8 514,62.2 514.5,60.5 515.3,58.9 516.2,57.4 517.2,56 518.3,54.7 519.5,53.4 520.8,52.3 522.3,51.3 523.8,50.4 525.4,49.7 527,49.1 528.7,48.6 530.4,48.3 532.2,48.2" />
<path stroke="#000000" stroke-width="2" d="M 538.8,70" />
<path stroke="#000000" stroke-width="2" d="M 538.8,20 558.8,20" />
<path stroke="#000000" stroke-width="2" d="M 588.8,70" />
<path stroke="#000000" stroke-width="2" d="M 593.8,30" />
<path stroke="#000000" stroke-width="2" d="M 593.8,30 592.4,30.1 591.1,30.6 590,31.2 589,32.1 588.2,33.1 587.5,34.3 587,35.6 586.6,37 586.4,38.5 586.3,40 586.4,41.5 586.6,43 587,44.4 587.5,45.7 588.2,46.9 589,47.9 590,48.8 591.1,49.4 592.4,49.9 593.8,50 598.8,50 598.8,70" />
<path stroke="#000000" stroke-width="2" d="M 628.8,70" />
<path stroke="#000000" stroke-width="2" d="M 628.8,70 629,70 629,70.2 628.8,70.2 628.8,70" />
<path stroke="#000000" stroke-width="2" d="M 635.7,70" />
<path stroke="#000000" stroke-width="2" d="M 635.7,30 635.7,38 635.7,39 635.8,40.1 636,41.1 636.2,42.1 636.6,43.1 637,44.1 637.6,45 638.2,45.8 638.8,46.6 639.6,47.4 640.4,48 641.2,48.6 642.1,49.2 643.1,49.6 644.1,50 645.1,50.2 646.1,50.4 647.2,50.5 648.2,50.5 649.2,50.4 650.3,50.2 651.3,50 652.3,49.6 653.2,49.2 654.1,48.6 655,48 655.8,47.4 656.5,46.6 657.2,45.8 657.8,45 658.3,44.1 658.8,43.1 659.1,42.1 659.4,41.1 659.6,40.1 659.7,39 659.7,29 659.7,69 659.7,67.3 659.8,65.6 660.1,63.8 660.6,62.2 661.2,60.5 661.9,58.9 662.8,57.4 663.8,56 664.9,54.7 666.1,53.4 667.5,52.3 668.9,51.3 670.4,50.4 672,49.7 673.6,49.1 675.3,48.6 677,48.3 678.8,48.2" />
<path stroke="#000000" stroke-width="2" d="M 685.4,70" />
<path stroke="#000000" stroke-width="2" d="M 685.4,25" />
<path stroke="#000000" stroke-width="2" d="M 685.4,25 687.5,24.9 689.1,24.6 690.3,24.1 691.2,23.6 691.8,22.9 692.1,22.2 692.1,21.4 691.9,20.7 691.6,20 691.1,19.4 690.5,18.9 689.8,18.5 689,18.3 688.3,18.4 687.5,18.7 686.9,19.2 686.3,20.1 685.8,21.4 685.5,23 685.4,25 685.4,40" />
<path stroke="#000000" stroke-width="2" d="M 722.1,70" />
<path stroke="#000000" stroke-width="2" d="M 722.1,70 722.3,70 722.3,70.2 722.1,70.2 722.1,70" />
<path stroke="#000000" stroke-width="2" d="M 752.3,70" />
<path stroke="#000000" stroke-width="2" d="M 768.3,30 768.3,60" />
<path stroke="#000000" stroke-width="2" d="M 768.3,60 768.1,64.1 767.5,67.3 766.6,69.8 765.4,71.5 764.1,72.7 762.6,73.2 761.1,73.3 759.7,73 758.3,72.3 757,71.2 756,70 755.3,68.6 755,67.2 755.1,65.7 755.6,64.2 756.8,62.9 758.5,61.7 761,60.8 764.2,60.2 768.3,60" />
<path stroke="#000000" stroke-width="2" d="M 775,70" />
<path stroke="#000000" stroke-width="2" d="M 775,20" />
<path stroke="#000000" stroke-width="2" d="M 775,20 776.4,20.1 777.7,20.6 778.8,21.2 779.8,22.1 780.6,23.1 781.3,24.3 781.8,25.6 782.2,27 782.4,28.5 782.5,30 782.4,31.5 782.2,33 781.8,34.4 781.3,35.7 780.6,36.9 779.8,37.9 778.8,38.8 777.7,39.4 776.4,39.9 775,40" />
<path stroke="#000000" stroke-width="2" d="M 812.5,70" />
<path stroke="#000000" stroke-width="2" d="M 812.5,30 817.5,30 817.5,50 817.5,50.7 817.5,51.4 817.6,52.1 817.8,52.8 818.1,53.4 818.4,54 818.7,54.6 819.1,55.2 819.6,55.8 820,56.2 820.6,56.7 821.2,57.1 821.8,57.4 822.4,57.7 823,58 823.7,58.2 824.4,58.3 825.1,58.3 825.8,58.3 826.5,58.3 827.2,58.2 827.9,58 828.5,57.7 829.1,57.4 829.8,57.1 830.3,56.7 830.9,56.2 831.4,55.8 831.8,55.2 832.2,54.6 832.5,54 832.8,53.4 833.1,52.8 833.3,52.1 833.4,51.4 833.4,50.7" />
<path stroke="#000000" stroke-width="2" d="M 840.1,70" />
<path stroke="#000000" stroke-width="2" d="M 848.1,50" />
<path stroke="#000000" stroke-width="2" d="M 848.1,50 848,52 847.7,53.6 847.3,54.9 846.7,55.8 846,56.3 845.3,56.6 844.5,56.7 843.8,56.5 843.1,56.1 842.5,55.6 842,55 841.6,54.3 841.5,53.6 841.5,52.8 841.8,52.1 842.4,51.4 843.2,50.9 844.5,50.4 846.1,50.1 848.1,50 858.1,50" />
<path stroke="#000000" stroke-width="2" d="M 858.1,50 859.5,50.1 860.8,50.6 861.9,51.2 862.9,52.1 863.7,53.1 864.4,54.3 864.9,55.6 865.3,57 865.5,58.5 865.6,60 865.5,61.5 865.3,63 864.9,64.4 864.4,65.7 863.7,66.9 862.9,67.9 861.9,68.8 860.8,69.4 859.5,69.9 858.1,70" />
<path stroke="#000000" stroke-width="2" d="M 895.6,70" />
<path stroke="#000000" stroke-width="2" d="M 895.6,30" />
<path stroke="#000000" stroke-width="2" d="M 895.6,30 898.5,30.3 901,31.1 903.3,32.4 905.2,34.2 906.9,36.2 908.2,38.6 909.3,41.3 910,44.1 910.5,47 910.6,50 910.5,53 910,55.9 909.3,58.7 908.2,61.4 906.9,63.8 905.2,65.8 903.3,67.6 901,68.9 898.5,69.7 895.6,70" />
<path stroke="#000000" stroke-width="2" d="M 917.3,70" />
<path stroke="#000000" stroke-width="2" d="M 917.3,50 917.3,70 922.9,64.3 942.9,64.3" />
<path stroke="#000000" stroke-width="2" d="M 972.9,70" />
<path stroke="#000000" stroke-width="2" d="M 988.9,30 969.1,49.8 988.9,69.6" />
<path stroke="#000000" stroke-width="2" d="M 995.6,70" />
<path stroke="#000000" stroke-width="2" d="M 995.6,20 995.6,20.7 995.7,21.4 995.8,22.1 996,22.8 996.2,23.4 996.5,24 996.8,24.6 997.2,25.2 997.7,25.8 998.2,26.2 998.7,26.7 999.3,27.1 999.9,27.4 1000.5,27.7 1001.2,28 1001.9,28.2 1002.5,28.3 1003.2,28.3 1003.9,28.3 1004.6,28.3 1005.3,28.2 1006,28 1006.7,27.7 1007.3,27.4 1007.9,27.1 1008.5,26.7 1009,26.2 1009.5,25.8 1009.9,25.2 1010.3,24.6 1010.7,24 1011,23.4 1011.2,22.8 1011.4,22.1 1011.5,21.4 1011.6,20.7 1016.6,20.7 1016.6,40.7" />
<path stroke="#000000" stroke-width="2" d="M 1046.6,70" />
<path stroke="#000000" stroke-width="2" d="M 1046.6,70 1074.9,41.7 1059.6,78.7" />
<path stroke="#000000" stroke-width="2" d="M 1081.5,70" />
<path stroke="#000000" stroke-width="2" d="M 1089.5,50" />
<path stroke="#000000" stroke-width="2" d="M 1089.5,50 1089.4,52 1089.1,53.6 1088.7,54.9 1088.1,55.8 1087.4,56.3 1086.7,56.6 1086,56.7 1085.2,56.5 1084.5,56.1 1083.9,55.6 1083.4,55 1083.1,54.3 1082.9,53.6 1082.9,52.8 1083.2,52.1 1083.8,51.4 1084.7,50.9 1085.9,50.4 1087.5,50.1 1089.5,50 1099.5,50" />
<path stroke="#000000" stroke-width="2" d="M 1129.5,70" />
<path stroke="#000000" stroke-width="2" d="M 1129.5,70 1129.7,70 1129.7,70.2 1129.5,70.2 1129.5,70" />
<path stroke="#000000" stroke-width="2" d="M 1136.4,70" />
<path stroke="#000000" stroke-width="2" d="M 1152.4,30 1132.6,49.8 1152.4,69.6" />
<path stroke="#000000" stroke-width="2" d="M 1159.1,70" />
<path stroke="#000000" stroke-width="2" d="M 1159.1,50 1166.7,68.5" />
<path stroke="#000000" stroke-width="2" d="M 1173.4,70" />
<path stroke="#000000" stroke-width="2" d="M 1173.4,20 1193.4,20" />
<path stroke="#000000" stroke-width="2" d="M 1223.4,70" />
</svg>