<svg xmlns="http://www.w3.org/2000/svg" width="1319.4265055491705" height="93.30875" style="fill:none; stroke-linecap:round;">
    <rect width="100%" height="100%" fill="#FFFFFF" />
<path stroke="#000000" stroke-width="2" d="M 550,75" />
<path stroke="#000000" stroke-width="2" d="M 36,30 36,60" />
<path stroke="#000000" stroke-width="2" d="M 36,60 35.8,64.1 35.2,67.3 34.3,69.8 33.1,71.5 31.8,72.7 30.3,73.2 28.8,73.3 27.4,73 26,72.3 24.8,71.2 23.7,70 23,68.6 22.7,67.2 22.8,65.7 23.3,64.2 24.5,62.9 26.2,61.7 28.7,60.8 31.9,60.2 36,60" />
<path stroke="#000000" stroke-width="2" d="M 42.7,70" />
<path stroke="#000000" stroke-width="2" d="M 50.7,20 40.8,29.9 50.7,39.8" />
<path stroke="#000000" stroke-width="2" d="M 57.3,70" />
<path stroke="#000000" stroke-width="2" d="M 57.3,20 58.2,20 59.1,20.1 59.9,20.2 60.8,20.5 61.6,20.8 62.4,21.1 63.1,21.6 63.9,22.1 64.5,22.6 65.1,23.2 65.7,23.9 66.2,24.6 66.6,25.4 67,26.2 67.3,27 67.5,27.8 67.7,28.7 67.8,29.6 67.8,30.4 67.7,31.3 67.5,32.2 67.3,33 67,33.8 66.6,34.6 66.2,35.4 65.7,36.1 65.1,36.7 64.5,37.4 63.9,37.9 63.1,38.4 62.4,38.9 61.6,39.2 60.8,39.5 59.9,39.8 59.1,39.9 58.2,40" />
<path stroke="#000000" stroke-width="2" d="M 97.8,70" />
<path stroke="#000000" stroke-width="2" d="M 97.8,40" />
<path stroke="#000000" stroke-width="2" d="M 97.8,40 101.8,39.8 105.1,39.2 107.5,38.3 109.3,37.1 110.4,35.8 111,34.3 111.1,32.8 110.7,31.4 110,30 109,28.8 107.8,27.7 106.4,27 104.9,26.7 103.4,26.8 102,27.3 100.6,28.5 99.5,30.2 98.6,32.7 98,35.9 97.8,40 97.8,70" />
<path stroke="#000000" stroke-width="2" d="M 117.7,70" />
<path stroke="#000000" stroke-width="2" d="M 117.7,30 157.7,30" />
<path stroke="#000000" stroke-width="2" d="M 187.7,70" />
<path stroke="#000000" stroke-width="2" d="M 187.7,30 203,67" />
<path stroke="#000000" stroke-width="2" d="M 209.7,70" />
<path stroke="#000000" stroke-width="2" d="M 209.7,20 229.7,20" />
<path stroke="#000000" stroke-width="2" d="M 236.4,70" />
<path stroke="#000000" stroke-width="2" d="M 236.4,30 236.6,30 236.6,30.2 236.4,30.2 236.4,30" />
<path stroke="#000000" stroke-width="2" d="M 266.6,70" />
<path stroke="#000000" stroke-width="2" d="M 278.6,54 279.6,54 280.7,53.9 281.7,53.7 282.7,53.5 283.7,53.1 284.6,52.7 285.5,52.1 286.4,51.5 287.2,50.9 287.9,50.1 288.6,49.3 289.2,48.5 289.7,47.6 290.2,46.6 290.5,45.6 290.8,44.6 291,43.6 291.1,42.5 291.1,41.5 291,40.4 290.8,39.4 290.5,38.4 290.2,37.4 289.7,36.5 289.2,35.6 288.6,34.7 287.9,33.9 287.2,33.2 286.4,32.5 285.5,31.9 284.6,31.4 283.7,30.9 282.7,30.6 281.7,30.3 280.7,30.1 279.6,30 278.6,30 277.5,30.1 276.5,30.3 275.5,30.6 274.5,30.9 273.6,31.4 272.7,31.9 271.8,32.5 271,33.2 270.3,33.9 269.6,34.7 269,35.6 268.5,36.5 268,37.4 267.7,38.4 267.4,39.4 267.2,40.4 267.1,41.5 267.1,42.5 267.2,43.6 267.4,44.6 267.7,45.6 268,46.6 268.5,47.6 269,48.5 269.6,49.3 270.3,50.1 271,50.9 271.8,51.5 272.7,52.1 273.6,52.7 274.5,53.1 275.5,53.5 276.5,53.7 277.5,53.9 278.6,54 286.6,54" />
<path stroke="#000000" stroke-width="2" d="M 286.6,54 288.3,53.4 289.9,52.7 291.4,51.9 292.8,51.2 294.1,50.3 295.3,49.4 296.4,48.5 297.4,47.5 298.3,46.5 299.1,45.5 299.8,44.4 300.4,43.3 300.9,42.2 301.4,41.1 301.8,39.9 302.1,38.8 302.3,37.6 302.5,36.4 302.5,35.2 302.6,34" />
<path stroke="#000000" stroke-width="2" d="M 309.2,70" />
<path stroke="#000000" stroke-width="2" d="M 309.2,20 329.2,20" />
<path stroke="#000000" stroke-width="2" d="M 335.9,70" />
<path stroke="#000000" stroke-width="2" d="M 345.9,20 338.3,38.5" />
<path stroke="#000000" stroke-width="2" d="M 338.3,38.5 340.3,38.4 341.9,38.1 343.1,37.6 344,37 344.6,36.4 344.9,35.6 344.9,34.9 344.7,34.2 344.4,33.5 343.9,32.9 343.3,32.4 342.6,32 341.8,31.8 341.1,31.9 340.4,32.1 339.7,32.7 339.1,33.6 338.7,34.8 338.4,36.4 338.3,38.5 338.3,53.5" />
<path stroke="#000000" stroke-width="2" d="M 375.9,70" />
<path stroke="#000000" stroke-width="2" d="M 375.9,30 375.9,38 375.9,39 376,40.1 376.2,41.1 376.5,42.1 376.8,43.1 377.3,44.1 377.8,45 378.4,45.8 379.1,46.6 379.8,47.4 380.6,48 381.5,48.6 382.4,49.2 383.3,49.6 384.3,50 385.3,50.2 386.3,50.4 387.4,50.5 388.4,50.5 389.5,50.4 390.5,50.2 391.5,50 392.5,49.6 393.4,49.2 394.3,48.6 395.2,48 396,47.4 396.7,46.6 397.4,45.8 398,45 398.5,44.1 399,43.1 399.3,42.1 399.6,41.1 399.8,40.1 399.9,39 399.9,29 399.9,69" />
<path stroke="#000000" stroke-width="2" d="M 406.6,70" />
<path stroke="#000000" stroke-width="2" d="M 406.6,30 421.9,67 437.2,30" />
<path stroke="#000000" stroke-width="2" d="M 467.2,70" />
<path stroke="#000000" stroke-width="2" d="M 477.2,30 476.3,30 475.4,30.1 474.6,30.2 473.7,30.5 472.9,30.8 472.1,31.1 471.4,31.6 470.6,32.1 470,32.6 469.4,33.2 468.8,33.9 468.3,34.6 467.9,35.4 467.5,36.2 467.2,37 467,37.8 466.8,38.7 466.7,39.6 466.7,40.4 466.8,41.3 467,42.2 467.2,43 467.5,43.8 467.9,44.6 468.3,45.4 468.8,46.1 469.4,46.7 470,47.4 470.6,47.9 471.4,48.4 472.1,48.9 472.9,49.2 473.7,49.5 474.6,49.8 475.4,49.9 476.3,50 481.3,50 481.3,70" />
<path stroke="#000000" stroke-width="2" d="M 511.3,70" />
<path stroke="#000000" stroke-width="2" d="M 511.3,50 511.3,49.3 511.4,48.6 511.5,47.9 511.7,47.2 511.9,46.6 512.2,46 512.5,45.4 512.9,44.8 513.4,44.2 513.9,43.8 514.4,43.3 515,42.9 515.6,42.6 516.2,42.3 516.9,42 517.6,41.8 518.2,41.7 518.9,41.7 519.6,41.7 520.3,41.7 521,41.8 521.7,42 522.3,42.3 523,42.6 523.6,42.9 524.2,43.3 524.7,43.8 525.2,44.2 525.6,44.8 526,45.4 526.4,46 526.7,46.6 526.9,47.2 527.1,47.9 527.2,48.6 527.3,49.3" />
<path stroke="#000000" stroke-width="2" d="M 527.3,45.3" />
<path stroke="#000000" stroke-width="2" d="M 521.3,45.3 531.3,45.3 531.8,45.3 532.3,45.3 532.8,45.2 533.3,45 533.8,44.9 534.3,44.6 534.8,44.4 535.2,44.1 535.6,43.7 536,43.4 536.3,43 536.6,42.5 536.9,42.1 537.1,41.6 537.3,41.1 537.4,40.6 537.5,40.1 537.5,39.6 537.5,39 537.5,38.5 537.4,38 537.3,37.5 537.1,37 536.9,36.5 536.6,36.1 536.3,35.7 536,35.3 535.6,34.9 535.2,34.5 534.8,34.2 534.3,34 533.8,33.8 533.3,33.6 532.8,33.5 532.3,33.4 531.8,33.3 531.3,33.3 530.8,33.4 530.2,33.5 529.7,33.6 529.2,33.8 528.8,34 528.3,34.2 527.9,34.5 527.5,34.9 527.1,35.3 526.8,35.7 526.5,36.1 526.2,36.5 526,37 525.8,37.5 525.7,38 525.6,38.5 525.5,39 525.5,39.6 525.6,40.1 525.7,40.6 525.8,41.1 526,41.6 526.2,42.1 526.5,42.5 526.8,43 527.1,43.4 527.5,43.7 527.9,44.1 528.3,44.4 528.8,44.6 529.2,44.9 529.7,45 530.2,45.2 530.8,45.3 531.3,45.3 535.3,45.3" />
<path stroke="#000000" stroke-width="2" d="M 535.3,45.3 536.2,45 537,44.6 537.7,44.3 538.4,43.9 539.1,43.5 539.7,43 540.2,42.6 540.7,42.1 541.1,41.6 541.5,41.1 541.9,40.5 542.2,40 542.5,39.4 542.7,38.8 542.9,38.3 543,37.7 543.1,37.1 543.2,36.5 543.3,35.9 543.3,35.3" />
<path stroke="#000000" stroke-width="2" d="M 549.9,70" />
<path stroke="#000000" stroke-width="2" d="M 569.9,20 550.1,39.8" />
<path stroke="#000000" stroke-width="2" d="M 550.1,19.8 569.9,39.6" />
<path stroke="#000000" stroke-width="2" d="M 599.9,70" />
<path stroke="#000000" stroke-width="2" d="M 599.9,30 639.9,30" />
<path stroke="#000000" stroke-width="2" d="M 646.6,70" />
<path stroke="#000000" stroke-width="2" d="M 646.6,50 666.6,50 666.6,70 666.6,64 666.6,63.1 666.7,62.3 666.8,61.4 667.1,60.6 667.4,59.7 667.7,58.9 668.2,58.2 668.7,57.5 669.2,56.8 669.8,56.2 670.5,55.6 671.2,55.1 672,54.7 672.8,54.3 673.6,54 674.4,53.8 675.3,53.6 676.2,53.6" />
<path stroke="#000000" stroke-width="2" d="M 682.8,70" />
<path stroke="#000000" stroke-width="2" d="M 682.8,20 682.8,24 682.8,24.5 682.9,25 683,25.6 683.1,26.1 683.3,26.6 683.5,27 683.8,27.5 684.1,27.9 684.4,28.3 684.8,28.7 685.2,29 685.6,29.3 686.1,29.6 686.5,29.8 687,30 687.5,30.1 688,30.2 688.6,30.3 689.1,30.3 689.6,30.2 690.1,30.1 690.6,30 691.1,29.8 691.6,29.6 692.1,29.3 692.5,29 692.9,28.7 693.3,28.3 693.6,27.9 693.9,27.5 694.2,27 694.4,26.6 694.6,26.1 694.7,25.6 694.8,25 694.8,24.5 694.8,19.5 694.8,39.5" />
<path stroke="#000000" stroke-width="2" d="M 701.5,70" />
<path stroke="#000000" stroke-width="2" d="M 701.5,50 701.5,50.7 701.6,51.4 701.7,52.1 701.9,52.8 702.1,53.4 702.4,54 702.7,54.6 703.1,55.2 703.6,55.8 704.1,56.2 704.6,56.7 705.2,57.1 705.8,57.4 706.4,57.7 707.1,58 707.8,58.2 708.4,58.3 709.1,58.3 709.8,58.3 710.5,58.3 711.2,58.2 711.9,58 712.5,57.7 713.2,57.4 713.8,57.1 714.4,56.7 714.9,56.2 715.4,55.8 715.8,55.2 716.2,54.6 716.6,54 716.9,53.4 717.1,52.8 717.3,52.1 717.4,51.4 717.5,50.7" />
<path stroke="#000000" stroke-width="2" d="M 724.1,70" />
<path stroke="#000000" stroke-width="2" d="M 724.1,20 724.1,40 724.1,34 724.1,33.1 724.2,32.3 724.4,31.4 724.6,30.6 724.9,29.7 725.3,28.9 725.7,28.2 726.2,27.5 726.8,26.8 727.4,26.2 728,25.6 728.8,25.1 729.5,24.7 730.3,24.3 731.1,24 732,23.8 732.8,23.6 733.7,23.6" />
<path stroke="#000000" stroke-width="2" d="M 763.7,70" />
<path stroke="#000000" stroke-width="2" d="M 763.7,30 763.7,70 763.7,58 763.7,56.3 763.8,54.5 764.2,52.8 764.6,51.1 765.2,49.5 765.9,47.9 766.8,46.4 767.8,45 768.9,43.6 770.2,42.4 771.5,41.3 772.9,40.3 774.4,39.4 776,38.7 777.7,38.1 779.3,37.6 781.1,37.3 782.8,37.1" />
<path stroke="#000000" stroke-width="2" d="M 789.5,70" />
<path stroke="#000000" stroke-width="2" d="M 789.5,20 790.3,20 791.2,20.1 792.1,20.2 792.9,20.5 793.7,20.8 794.5,21.1 795.3,21.6 796,22.1 796.7,22.6 797.3,23.2 797.8,23.9 798.3,24.6 798.8,25.4 799.1,26.2 799.4,27 799.7,27.8 799.8,28.7 799.9,29.6 799.9,30.4 799.8,31.3 799.7,32.2 799.4,33 799.1,33.8 798.8,34.6 798.3,35.4 797.8,36.1 797.3,36.7 796.7,37.4 796,37.9 795.3,38.4 794.5,38.9 793.7,39.2 792.9,39.5 792.1,39.8 791.2,39.9 790.3,40" />
<path stroke="#000000" stroke-width="2" d="M 806.6,70" />
<path stroke="#000000" stroke-width="2" d="M 826.6,30 824.8,30 823.1,30.2 821.4,30.5 819.7,30.9 818,31.5 816.5,32.2 814.9,33.1 813.5,34.1 812.2,35.2 810.9,36.5 809.8,37.8 808.8,39.2 808,40.7 807.2,42.3 806.6,44 806.2,45.7 805.9,47.4 805.7,49.1 805.7,50.9 805.9,52.6 806.2,54.3 806.6,56 807.2,57.6 808,59.2 808.8,60.7 809.8,62.2 810.9,63.5 812.2,64.7 813.5,65.8 814.9,66.8 816.5,67.7 818,68.5 819.7,69.1 821.4,69.5 823.1,69.8 824.8,70" />
<path stroke="#000000" stroke-width="2" d="M 856.6,70" />
<path stroke="#000000" stroke-width="2" d="M 856.6,40" />
<path stroke="#000000" stroke-width="2" d="M 856.6,40 860.6,39.8 863.9,39.2 866.3,38.3 868.1,37.1 869.2,35.8 869.8,34.3 869.9,32.8 869.5,31.4 868.8,30 867.8,28.8 866.6,27.7 865.2,27 863.7,26.7 862.2,26.8 860.8,27.3 859.4,28.5 858.3,30.2 857.4,32.7 856.8,35.9 856.6,40 856.6,70" />
<path stroke="#000000" stroke-width="2" d="M 876.5,70" />
<path stroke="#000000" stroke-width="2" d="M 876.5,30 876.5,34 876.5,34.5 876.6,35 876.7,35.6 876.8,36.1 877,36.6 877.2,37 877.5,37.5 877.8,37.9 878.1,38.3 878.5,38.7 878.9,39 879.3,39.3 879.8,39.6 880.2,39.8 880.7,40 881.2,40.1 881.8,40.2 882.3,40.3 882.8,40.3 883.3,40.2 883.8,40.1 884.3,40 884.8,39.8 885.3,39.6 885.8,39.3 886.2,39 886.6,38.7 887,38.3 887.3,37.9 887.6,37.5 887.9,37 888.1,36.6 888.3,36.1 888.4,35.6 888.5,35 888.5,34.5 888.5,29.5 888.5,49.5 908.5,49.5" />
<path stroke="#000000" stroke-width="2" d="M 915.2,70" />
<path stroke="#000000" stroke-width="2" d="M 915.2,20 915.2,20.7 915.3,21.4 915.4,22.1 915.6,22.8 915.8,23.4 916.1,24 916.4,24.6 916.8,25.2 917.3,25.8 917.8,26.2 918.3,26.7 918.9,27.1 919.5,27.4 920.1,27.7 920.8,28 921.5,28.2 922.1,28.3 922.8,28.3 923.5,28.3 924.2,28.3 924.9,28.2 925.6,28 926.2,27.7 926.9,27.4 927.5,27.1 928.1,26.7 928.6,26.2 929.1,25.8 929.5,25.2 929.9,24.6 930.3,24 930.6,23.4 930.8,22.8 931,22.1 931.1,21.4 931.2,20.7" />
<path stroke="#000000" stroke-width="2" d="M 931.2,20.7 933.2,20.6 934.8,20.3 936.1,19.8 936.9,19.3 937.5,18.6 937.8,17.9 937.8,17.1 937.7,16.4 937.3,15.7 936.8,15.1 936.2,14.6 935.5,14.2 934.8,14 934,14.1 933.3,14.4 932.6,14.9 932,15.8 931.6,17.1 931.3,18.7 931.2,20.7 931.2,35.7" />
<path stroke="#000000" stroke-width="2" d="M 967.8,70" />
<path stroke="#000000" stroke-width="2" d="M 967.8,30 967.8,70" />
<path stroke="#000000" stroke-width="2" d="M 974.5,70" />
<path stroke="#000000" stroke-width="2" d="M 984.5,50 976.8,68.5" />
<path stroke="#000000" stroke-width="2" d="M 1014.5,70" />
<path stroke="#000000" stroke-width="2" d="M 1014.5,30 1018.3,39.2" />
<path stroke="#000000" stroke-width="2" d="M 1018.3,39.2 1020.3,41.4 1021.6,43.3 1022.3,45 1022.6,46.4 1022.5,47.7 1022.1,48.7 1021.4,49.5 1020.5,50 1019.4,50.4 1018.3,50.5 1017.2,50.4 1016.2,50 1015.3,49.5 1014.5,48.7 1014.1,47.7 1014,46.4 1014.3,45 1015.1,43.3 1016.4,41.4 1018.3,39.2 1022.2,30" />
<path stroke="#000000" stroke-width="2" d="M 1022.2,30 1022,32 1021.7,33.6 1021.3,34.9 1020.7,35.8 1020,36.3 1019.3,36.6 1018.6,36.7 1017.8,36.5 1017.1,36.1 1016.5,35.6 1016,35 1015.7,34.3 1015.5,33.6 1015.5,32.8 1015.8,32.1 1016.4,31.4 1017.3,30.9 1018.5,30.4 1020.1,30.1 1022.2,30 1032.2,30" />
<path stroke="#000000" stroke-width="2" d="M 1038.8,70" />
<path stroke="#000000" stroke-width="2" d="M 1038.8,50 1058.8,50" />
<path stroke="#000000" stroke-width="2" d="M 1088.8,70" />
<path stroke="#000000" stroke-width="2" d="M 1088.8,30 1108.8,30 1116.5,48.5 1124.1,30" />
<path stroke="#000000" stroke-width="2" d="M 1130.8,70" />
<path stroke="#000000" stroke-width="2" d="M 1130.8,25" />
<path stroke="#000000" stroke-width="2" d="M 1130.8,25 1132.8,24.9 1134.4,24.6 1135.7,24.1 1136.6,23.6 1137.1,22.9 1137.4,22.2 1137.4,21.4 1137.3,20.7 1136.9,20 1136.4,19.4 1135.8,18.9 1135.1,18.5 1134.4,18.3 1133.6,18.4 1132.9,18.7 1132.2,19.2 1131.7,20.1 1131.2,21.4 1130.9,23 1130.8,25 1130.8,40 1123.1,58.5" />
<path stroke="#000000" stroke-width="2" d="M 1144.1,70" />
<path stroke="#000000" stroke-width="2" d="M 1144.1,30 1144.1,38 1144.1,39 1144.2,40.1 1144.4,41.1 1144.7,42.1 1145,43.1 1145.5,44.1 1146,45 1146.6,45.8 1147.3,46.6 1148,47.4 1148.8,48 1149.7,48.6 1150.6,49.2 1151.5,49.6 1152.5,50 1153.5,50.2 1154.5,50.4 1155.6,50.5 1156.6,50.5 1157.7,50.4 1158.7,50.2 1159.7,50 1160.7,49.6 1161.6,49.2 1162.6,48.6 1163.4,48 1164.2,47.4 1165,46.6 1165.6,45.8 1166.2,45 1166.7,44.1 1167.2,43.1 1167.5,42.1 1167.8,41.1 1168,40.1 1168.1,39 1168.1,29 1168.1,69" />
<path stroke="#000000" stroke-width="2" d="M 1174.8,70" />
<path stroke="#000000" stroke-width="2" d="M 1182.8,20 1182.8,35" />
<path stroke="#000000" stroke-width="2" d="M 1182.8,35 1182.7,37 1182.4,38.6 1181.9,39.9 1181.3,40.8 1180.7,41.3 1179.9,41.6 1179.2,41.7 1178.4,41.5 1177.7,41.1 1177.1,40.6 1176.6,40 1176.3,39.3 1176.1,38.6 1176.1,37.8 1176.4,37.1 1177,36.4 1177.9,35.9 1179.1,35.4 1180.7,35.1 1182.8,35 1202.8,35" />
<path stroke="#000000" stroke-width="2" d="M 1232.8,70" />
<path stroke="#000000" stroke-width="2" d="M 1232.8,30 1272.8,30" />
<path stroke="#000000" stroke-width="2" d="M 1279.4,70" />
<path stroke="#000000" stroke-width="2" d="M 1279.4,50 1299.4,50" />
<path stroke="#000000" stroke-width="2" d="M 1329.4,70" />
</svg>