<svg xmlns="http://www.w3.org/2000/svg" width="1378.3482454370928" height="106.6826817431551" style="fill:none; stroke-linecap:round;">
    <rect width="100%" height="100%" fill="#FFFFFF" />
<path stroke="#000000" stroke-width="2" d="M 550,75" />
<path stroke="#000000" stroke-width="2" d="M 20,30 35.3,67" />
<path stroke="#000000" stroke-width="2" d="M 42,70" />
<path stroke="#000000" stroke-width="2" d="M 42,30 57.3,67 72.6,30" />
<path stroke="#000000" stroke-width="2" d="M 79.3,70" />
<path stroke="#000000" stroke-width="2" d="M 87.3,30 87.3,45" />
<path stroke="#000000" stroke-width="2" d="M 87.3,45 87.1,47 86.9,48.6 86.4,49.9 85.8,50.8 85.1,51.3 84.4,51.6 83.7,51.7 82.9,51.5 82.2,51.1 81.6,50.6 81.1,50 80.8,49.3 80.6,48.6 80.6,47.8 80.9,47.1 81.5,46.4 82.4,45.9 83.6,45.4 85.2,45.1 87.3,45 107.3,45" />
<path stroke="#000000" stroke-width="2" d="M 137.3,70" />
<path stroke="#000000" stroke-width="2" d="M 137.3,30 137.3,70 148.6,58.7" />
<path stroke="#000000" stroke-width="2" d="M 155.2,70" />
<path stroke="#000000" stroke-width="2" d="M 155.2,25" />
<path stroke="#000000" stroke-width="2" d="M 155.2,25 157.3,24.9 158.9,24.6 160.1,24.1 161,23.6 161.6,22.9 161.9,22.2 161.9,21.4 161.7,20.7 161.4,20 160.9,19.4 160.2,18.9 159.6,18.5 158.8,18.3 158.1,18.4 157.3,18.7 156.7,19.2 156.1,20.1 155.6,21.4 155.3,23 155.2,25 155.2,40" />
<path stroke="#000000" stroke-width="2" d="M 191.9,70" />
<path stroke="#000000" stroke-width="2" d="M 207.9,30" />
<path stroke="#000000" stroke-width="2" d="M 207.9,30 207.7,34.1 207.1,37.3 206.2,39.8 205,41.5 203.7,42.7 202.2,43.2 200.7,43.3 199.3,43 197.9,42.3 196.6,41.2 195.6,40 194.9,38.6 194.6,37.2 194.7,35.7 195.2,34.2 196.4,32.9 198.1,31.7 200.6,30.8 203.8,30.2 207.9,30 227.9,30" />
<path stroke="#000000" stroke-width="2" d="M 234.6,70" />
<path stroke="#000000" stroke-width="2" d="M 234.6,55" />
<path stroke="#000000" stroke-width="2" d="M 234.6,55 236.6,54.9 238.2,54.6 239.4,54.1 240.3,53.6 240.9,52.9 241.2,52.2 241.2,51.4 241,50.7 240.7,50 240.2,49.4 239.6,48.9 238.9,48.5 238.1,48.3 237.4,48.4 236.7,48.7 236,49.2 235.4,50.1 235,51.4 234.7,53 234.6,55 234.6,70" />
<path stroke="#000000" stroke-width="2" d="M 247.9,70" />
<path stroke="#000000" stroke-width="2" d="M 255.9,30 255.9,45" />
<path stroke="#000000" stroke-width="2" d="M 255.9,45 255.8,47 255.5,48.6 255,49.9 254.4,50.8 253.8,51.3 253,51.6 252.3,51.7 251.6,51.5 250.9,51.1 250.3,50.6 249.8,50 249.4,49.3 249.2,48.6 249.3,47.8 249.5,47.1 250.1,46.4 251,45.9 252.2,45.4 253.8,45.1 255.9,45 275.9,45" />
<path stroke="#000000" stroke-width="2" d="M 275.9,45 277.3,45.1 278.6,45.6 279.7,46.2 280.7,47.1 281.5,48.1 282.2,49.3 282.7,50.6 283.1,52 283.3,53.5 283.4,55 283.3,56.5 283.1,58 282.7,59.4 282.2,60.7 281.5,61.9 280.7,62.9 279.7,63.8 278.6,64.4 277.3,64.9 275.9,65" />
<path stroke="#000000" stroke-width="2" d="M 313.4,70" />
<path stroke="#000000" stroke-width="2" d="M 313.4,70 324.9,42.3" />
<path stroke="#000000" stroke-width="2" d="M 324.9,42.3 328.9,42.1 332.1,41.5 334.6,40.6 336.4,39.4 337.5,38.1 338.1,36.6 338.2,35.1 337.8,33.6 337.1,32.3 336.1,31 334.9,30 333.5,29.3 332,29 330.5,29.1 329.1,29.6 327.7,30.8 326.6,32.5 325.7,35 325.1,38.2 324.9,42.3 324.9,72.3" />
<path stroke="#000000" stroke-width="2" d="M 368.2,70" />
<path stroke="#000000" stroke-width="2" d="M 368.2,30 368.2,50 378.2,50 383.2,50 383.2,70" />
<path stroke="#000000" stroke-width="2" d="M 413.2,70" />
<path stroke="#000000" stroke-width="2" d="M 413.2,30 413.2,70 433.2,70" />
<path stroke="#000000" stroke-width="2" d="M 463.2,70" />
<path stroke="#000000" stroke-width="2" d="M 463.2,30 463.2,70 474.5,58.7" />
<path stroke="#000000" stroke-width="2" d="M 481.1,70" />
<path stroke="#000000" stroke-width="2" d="M 481.1,25" />
<path stroke="#000000" stroke-width="2" d="M 481.1,25 483.2,24.9 484.8,24.6 486,24.1 486.9,23.6 487.5,22.9 487.8,22.2 487.8,21.4 487.6,20.7 487.3,20 486.8,19.4 486.2,18.9 485.5,18.5 484.7,18.3 484,18.4 483.3,18.7 482.6,19.2 482,20.1 481.6,21.4 481.3,23 481.1,25 481.1,40" />
<path stroke="#000000" stroke-width="2" d="M 517.8,70" />
<path stroke="#000000" stroke-width="2" d="M 517.8,30 517.8,31.4 517.9,32.8 518.2,34.2 518.5,35.5 519,36.8 519.6,38.1 520.3,39.3 521.1,40.4 522,41.5 523,42.5 524,43.4 525.2,44.2 526.4,44.9 527.7,45.5 529,46 530.3,46.3 531.7,46.6 533.1,46.7 534.5,46.7 535.9,46.6 537.2,46.3 538.6,46 539.9,45.5 541.2,44.9 542.4,44.2 543.5,43.4 544.6,42.5 545.6,41.5 546.5,40.4 547.3,39.3 548,38.1 548.6,36.8 549,35.5 549.4,34.2 549.6,32.8 549.8,31.4" />
<path stroke="#000000" stroke-width="2" d="M 556.4,70" />
<path stroke="#000000" stroke-width="2" d="M 556.4,20 576.4,20" />
<path stroke="#000000" stroke-width="2" d="M 576.4,20 574.4,19.9 572.8,19.6 571.6,19.1 570.7,18.6 570.1,17.9 569.8,17.2 569.8,16.4 570,15.7 570.3,15 570.8,14.4 571.4,13.9 572.1,13.5 572.9,13.3 573.6,13.4 574.3,13.7 575,14.2 575.6,15.1 576,16.4 576.3,18 576.4,20 576.4,24" />
<path stroke="#000000" stroke-width="2" d="M 576.4,24 576.1,24.9 575.8,25.7 575.4,26.4 575,27.1 574.6,27.8 574.2,28.4 573.7,28.9 573.2,29.4 572.7,29.9 572.2,30.2 571.7,30.6 571.1,30.9 570.6,31.2 570,31.4 569.4,31.6 568.8,31.7 568.2,31.9 567.6,31.9 567,32 566.4,32" />
<path stroke="#000000" stroke-width="2" d="M 606.4,70" />
<path stroke="#000000" stroke-width="2" d="M 616.4,30" />
<path stroke="#000000" stroke-width="2" d="M 616.4,30 613.6,30.3 611,31.1 608.8,32.4 606.8,34.2 605.2,36.2 603.8,38.6 602.8,41.3 602,44.1 601.6,47 601.4,50 601.6,53 602,55.9 602.8,58.7 603.8,61.4 605.2,63.8 606.8,65.8 608.8,67.6 611,68.9 613.6,69.7 616.4,70" />
<path stroke="#000000" stroke-width="2" d="M 616.4,50" />
<path stroke="#000000" stroke-width="2" d="M 584.4,50 624.4,50" />
<path stroke="#000000" stroke-width="2" d="M 654.4,70" />
<path stroke="#000000" stroke-width="2" d="M 654.4,70 654.6,70 654.6,70.2 654.4,70.2 654.4,70" />
<path stroke="#000000" stroke-width="2" d="M 661.3,70" />
<path stroke="#000000" stroke-width="2" d="M 671.3,30 661.3,30 661.3,70" />
<path stroke="#000000" stroke-width="2" d="M 678,70" />
<path stroke="#000000" stroke-width="2" d="M 688,50 680.3,68.5" />
<path stroke="#000000" stroke-width="2" d="M 718,70" />
<path stroke="#000000" stroke-width="2" d="M 718,30 738,30" />
<path stroke="#000000" stroke-width="2" d="M 738,30 739.4,30.1 740.7,30.6 741.8,31.2 742.8,32.1 743.6,33.1 744.3,34.3 744.8,35.6 745.2,37 745.4,38.5 745.5,40 745.4,41.5 745.2,43 744.8,44.4 744.3,45.7 743.6,46.9 742.8,47.9 741.8,48.8 740.7,49.4 739.4,49.9 738,50" />
<path stroke="#000000" stroke-width="2" d="M 775.5,70" />
<path stroke="#000000" stroke-width="2" d="M 775.5,35" />
<path stroke="#000000" stroke-width="2" d="M 775.5,35 777.5,34.9 779.1,34.6 780.3,34.1 781.2,33.6 781.8,32.9 782.1,32.2 782.1,31.4 782,30.7 781.6,30 781.1,29.4 780.5,28.9 779.8,28.5 779.1,28.3 778.3,28.4 777.6,28.7 776.9,29.2 776.3,30.1 775.9,31.4 775.6,33 775.5,35 775.5,50 767.8,68.5" />
<path stroke="#000000" stroke-width="2" d="M 788.8,70" />
<path stroke="#000000" stroke-width="2" d="M 788.8,20 788.8,40 788.8,34 788.8,33.1 788.9,32.3 789,31.4 789.2,30.6 789.5,29.7 789.9,28.9 790.3,28.2 790.8,27.5 791.4,26.8 792,26.2 792.7,25.6 793.4,25.1 794.2,24.7 795,24.3 795.8,24 796.6,23.8 797.5,23.6 798.3,23.6" />
<path stroke="#000000" stroke-width="2" d="M 798.3,23.6 796.3,23.5 794.7,23.2 793.5,22.7 792.6,22.1 792,21.5 791.7,20.7 791.7,20 791.9,19.3 792.2,18.6 792.7,17.9 793.3,17.4 794,17.1 794.8,16.9 795.5,17 796.2,17.2 796.9,17.8 797.5,18.7 797.9,19.9 798.2,21.5 798.3,23.6 798.3,27.6" />
<path stroke="#000000" stroke-width="2" d="M 798.3,27.6 798,28.4 797.7,29.3 797.3,30 796.9,30.7 796.5,31.4 796.1,31.9 795.6,32.5 795.1,33 794.6,33.4 794.1,33.8 793.6,34.2 793,34.5 792.5,34.8 791.9,35 791.3,35.2 790.7,35.3 790.1,35.4 789.5,35.5 788.9,35.6 788.3,35.6" />
<path stroke="#000000" stroke-width="2" d="M 828.3,70" />
<path stroke="#000000" stroke-width="2" d="M 828.3,70 856.6,41.7 841.3,78.7" />
<path stroke="#000000" stroke-width="2" d="M 886.6,70" />
<path stroke="#000000" stroke-width="2" d="M 886.6,30 901.9,67" />
<path stroke="#000000" stroke-width="2" d="M 908.6,70" />
<path stroke="#000000" stroke-width="2" d="M 908.6,40" />
<path stroke="#000000" stroke-width="2" d="M 908.6,40 912.7,39.8 915.9,39.2 918.4,38.3 920.1,37.1 921.3,35.8 921.8,34.3 921.9,32.8 921.6,31.4 920.9,30 919.9,28.8 918.6,27.7 917.2,27 915.8,26.7 914.3,26.8 912.8,27.3 911.5,28.5 910.3,30.2 909.4,32.7 908.8,35.9 908.6,40 908.6,70 908.6,71.4 908.7,72.8 909,74.2 909.3,75.5 909.8,76.8 910.4,78.1 911.1,79.3 911.9,80.4 912.8,81.5 913.8,82.5 914.8,83.4 916,84.2 917.2,84.9 918.5,85.5 919.8,86 921.1,86.3 922.5,86.6 923.9,86.7 925.3,86.7 926.7,86.6 928.1,86.3 929.4,86 930.7,85.5 932,84.9 933.2,84.2 934.3,83.4 935.4,82.5 936.4,81.5 937.3,80.4 938.1,79.3 938.8,78.1 939.4,76.8 939.8,75.5 940.2,74.2 940.5,72.8 940.6,71.4" />
<path stroke="#000000" stroke-width="2" d="M 940.6,55.4" />
<path stroke="#000000" stroke-width="2" d="M 900.6,55.4 916.6,55.4" />
<path stroke="#000000" stroke-width="2" d="M 970.6,70" />
<path stroke="#000000" stroke-width="2" d="M 970.6,30 1010.6,30" />
<path stroke="#000000" stroke-width="2" d="M 1040.6,70" />
<path stroke="#000000" stroke-width="2" d="M 1060.6,70 1062.3,70 1064.1,69.8 1065.8,69.5 1067.5,69.1 1069.1,68.5 1070.7,67.8 1072.2,66.9 1073.6,65.9 1075,64.8 1076.2,63.5 1077.3,62.2 1078.3,60.8 1079.2,59.3 1079.9,57.7 1080.5,56 1081,54.3 1081.3,52.6 1081.4,50.9 1081.4,49.1 1081.3,47.4 1081,45.7 1080.5,44 1079.9,42.4 1079.2,40.8 1078.3,39.3 1077.3,37.8 1076.2,36.5 1075,35.3 1073.6,34.2 1072.2,33.2 1070.7,32.3 1069.1,31.5 1067.5,30.9 1065.8,30.5 1064.1,30.2 1062.3,30 1060.6,30 1058.8,30.2 1057.1,30.5 1055.4,30.9 1053.8,31.5 1052.2,32.3 1050.7,33.2 1049.3,34.2 1047.9,35.3 1046.7,36.5 1045.6,37.8 1044.6,39.3 1043.7,40.8 1043,42.4 1042.4,44 1041.9,45.7 1041.6,47.4 1041.5,49.1 1041.5,50.9 1041.6,52.6 1041.9,54.3 1042.4,56 1043,57.7 1043.7,59.3 1044.6,60.8 1045.6,62.2 1046.7,63.5 1047.9,64.8 1049.3,65.9 1050.7,66.9 1052.2,67.8 1053.8,68.5 1055.4,69.1 1057.1,69.5 1058.8,69.8 1060.6,70" />
<path stroke="#000000" stroke-width="2" d="M 1088.1,70" />
<path stroke="#000000" stroke-width="2" d="M 1088.1,40" />
<path stroke="#000000" stroke-width="2" d="M 1088.1,40 1092.2,39.8 1095.4,39.2 1097.8,38.3 1099.6,37.1 1100.8,35.8 1101.3,34.3 1101.4,32.8 1101.1,31.4 1100.3,30 1099.3,28.7 1098.1,27.7 1096.7,27 1095.3,26.7 1093.8,26.8 1092.3,27.3 1091,28.5 1089.8,30.2 1088.9,32.7 1088.3,35.9 1088.1,40 1088.1,70" />
<path stroke="#000000" stroke-width="2" d="M 1131.4,70" />
<path stroke="#000000" stroke-width="2" d="M 1131.4,35" />
<path stroke="#000000" stroke-width="2" d="M 1131.4,35 1133.4,34.9 1135,34.6 1136.3,34.1 1137.2,33.6 1137.7,32.9 1138,32.2 1138.1,31.4 1137.9,30.7 1137.5,30 1137,29.4 1136.4,28.9 1135.7,28.5 1135,28.3 1134.2,28.4 1133.5,28.7 1132.8,29.2 1132.3,30.1 1131.8,31.4 1131.5,33 1131.4,35 1131.4,50 1123.7,68.5" />
<path stroke="#000000" stroke-width="2" d="M 1144.7,70" />
<path stroke="#000000" stroke-width="2" d="M 1154.7,20 1154.7,40 1144.7,40" />
<path stroke="#000000" stroke-width="2" d="M 1184.7,70" />
<path stroke="#000000" stroke-width="2" d="M 1189.7,30" />
<path stroke="#000000" stroke-width="2" d="M 1189.7,30 1188.3,30.1 1187,30.6 1185.9,31.2 1184.9,32.1 1184.1,33.1 1183.4,34.3 1182.9,35.6 1182.5,37 1182.3,38.5 1182.2,40 1182.3,41.5 1182.5,43 1182.9,44.4 1183.4,45.7 1184.1,46.9 1184.9,47.9 1185.9,48.8 1187,49.4 1188.3,49.9 1189.7,50 1194.7,50 1194.7,70" />
<path stroke="#000000" stroke-width="2" d="M 1224.7,70" />
<path stroke="#000000" stroke-width="2" d="M 1224.7,70 1224.9,70 1224.9,70.2 1224.7,70.2 1224.7,70" />
<path stroke="#000000" stroke-width="2" d="M 1231.6,70" />
<path stroke="#000000" stroke-width="2" d="M 1251.6,30 1231.8,49.8" />
<path stroke="#000000" stroke-width="2" d="M 1231.8,29.8 1251.6,49.6" />
<path stroke="#000000" stroke-width="2" d="M 1251.6,49.6 1251.5,51.6 1251.2,53.2 1250.7,54.5 1250.2,55.4 1249.5,55.9 1248.8,56.2 1248,56.3 1247.3,56.1 1246.6,55.7 1246,55.2 1245.5,54.6 1245.1,53.9 1244.9,53.2 1245,52.4 1245.3,51.7 1245.8,51 1246.7,50.5 1247.9,50 1249.6,49.7 1251.6,49.6 1261.6,49.6" />
<path stroke="#000000" stroke-width="2" d="M 1268.3,70" />
<path stroke="#000000" stroke-width="2" d="M 1268.3,20 1268.3,40 1268.3,34 1268.3,33.1 1268.3,32.3 1268.5,31.4 1268.7,30.6 1269,29.7 1269.4,28.9 1269.8,28.2 1270.3,27.5 1270.9,26.8 1271.5,26.2 1272.2,25.6 1272.9,25.1 1273.6,24.7 1274.4,24.3 1275.2,24 1276.1,23.8 1276.9,23.6 1277.8,23.6" />
<path stroke="#000000" stroke-width="2" d="M 1284.5,70" />
<path stroke="#000000" stroke-width="2" d="M 1286.5,50 1291.8,37.1 1292,36.7 1292.1,36.4 1292.2,36.1 1292.2,35.7 1292.2,35.4 1292.2,35 1292.2,34.7 1292.1,34.3 1292,34 1291.8,33.7 1291.7,33.4 1291.5,33.1 1291.3,32.8 1291,32.5 1290.8,32.3 1290.5,32.1 1290.2,31.9 1289.9,31.7 1289.6,31.6 1289.2,31.5 1288.9,31.4 1288.6,31.4 1288.2,31.4 1287.9,31.4 1287.5,31.4 1287.2,31.5 1286.8,31.6 1286.5,31.7 1286.2,31.9 1285.9,32.1 1285.6,32.3 1285.4,32.5 1285.1,32.8 1284.9,33.1 1284.7,33.4 1284.6,33.7 1284.5,34 1284.3,34.3 1284.3,34.7 1284.2,35 1284.2,35.4 1284.2,35.7 1284.3,36.1 1284.3,36.4 1284.5,36.7 1284.6,37.1 1284.7,37.4 1284.9,37.7 1285.1,37.9 1285.4,38.2 1285.6,38.4 1285.9,38.7 1286.2,38.8 1286.5,39 1286.8,39.1 1287.2,39.2 1287.5,39.3 1287.9,39.4 1288.2,39.4 1288.6,39.4 1301.5,34 1321.5,34" />
<path stroke="#000000" stroke-width="2" d="M 1321.5,34 1323.5,33.9 1325.1,33.6 1326.4,33.1 1327.3,32.6 1327.8,31.9 1328.1,31.2 1328.1,30.4 1328,29.7 1327.6,29 1327.1,28.4 1326.5,27.9 1325.8,27.5 1325.1,27.3 1324.3,27.4 1323.6,27.7 1322.9,28.2 1322.4,29.1 1321.9,30.4 1321.6,32 1321.5,34 1321.5,49" />
<path stroke="#000000" stroke-width="2" d="M 1358.1,70" />
<path stroke="#000000" stroke-width="2" d="M 1358.1,70 1358.3,70 1358.3,70.2 1358.1,70.2 1358.1,70" />
<path stroke="#000000" stroke-width="2" d="M 1388.3,70" />
</svg>