<svg xmlns="http://www.w3.org/2000/svg" width="856.5561885203556" height="93.30875" style="fill:none; stroke-linecap:round;">
    <rect width="100%" height="100%" fill="#FFFFFF" />
<path stroke="#000000" stroke-width="2" d="M 550,75" />
<path stroke="#000000" stroke-width="2" d="M 20,30 60,30" />
<path stroke="#000000" stroke-width="2" d="M 66.7,70" />
<path stroke="#000000" stroke-width="2" d="M 76.7,50 69,68.5" />
<path stroke="#000000" stroke-width="2" d="M 106.7,70" />
<path stroke="#000000" stroke-width="2" d="M 106.7,40 106.9,40 106.9,40.2 106.7,40.2 106.7,40" />
<path stroke="#000000" stroke-width="2" d="M 113.5,70" />
<path stroke="#000000" stroke-width="2" d="M 113.5,46 113.5,44.6 113.7,43.2 113.9,41.8 114.3,40.5 114.7,39.2 115.3,37.9 116,36.7 116.8,35.6 117.7,34.5 118.7,33.5 119.8,32.6 120.9,31.8 122.1,31.1 123.4,30.5 124.7,30 126.1,29.7 127.4,29.4 128.8,29.3 130.2,29.3 131.6,29.4 133,29.7 134.3,30 135.6,30.5 136.9,31.1 138.1,31.8 139.3,32.6 140.3,33.5 141.3,34.5 142.2,35.6 143,36.7 143.7,37.9 144.3,39.2 144.8,40.5 145.1,41.8 145.4,43.2 145.5,44.6" />
<path stroke="#000000" stroke-width="2" d="M 152.2,70" />
<path stroke="#000000" stroke-width="2" d="M 152.2,20 152.2,40 152.2,34 152.2,33.1 152.2,32.3 152.4,31.4 152.6,30.6 152.9,29.7 153.3,28.9 153.7,28.2 154.2,27.5 154.8,26.8 155.4,26.2 156.1,25.6 156.8,25.1 157.5,24.7 158.3,24.3 159.2,24 160,23.8 160.9,23.6 161.7,23.6 154.1,42.1" />
<path stroke="#000000" stroke-width="2" d="M 168.4,70" />
<path stroke="#000000" stroke-width="2" d="M 168.4,50 188.4,50" />
<path stroke="#000000" stroke-width="2" d="M 218.4,70" />
<path stroke="#000000" stroke-width="2" d="M 234.4,30 214.6,49.8 234.4,69.6" />
<path stroke="#000000" stroke-width="2" d="M 241.1,70" />
<path stroke="#000000" stroke-width="2" d="M 241.1,50 241.1,70 241.1,64 241.1,63.1 241.1,62.3 241.3,61.4 241.5,60.6 241.8,59.7 242.2,58.9 242.6,58.2 243.1,57.5 243.7,56.8 244.3,56.2 245,55.6 245.7,55.1 246.4,54.7 247.2,54.3 248,54 248.9,53.8 249.7,53.6 250.6,53.6" />
<path stroke="#000000" stroke-width="2" d="M 250.6,53.6 252.6,53.5 254.3,53.2 255.5,52.7 256.4,52.1 256.9,51.5 257.2,50.7 257.3,50 257.1,49.3 256.7,48.6 256.2,47.9 255.6,47.4 254.9,47.1 254.2,46.9 253.4,47 252.7,47.2 252.1,47.8 251.5,48.7 251,49.9 250.7,51.5 250.6,53.6 250.6,68.6" />
<path stroke="#000000" stroke-width="2" d="M 287.3,70" />
<path stroke="#000000" stroke-width="2" d="M 307.3,70 309,70 310.7,69.8 312.5,69.5 314.2,69.1 315.8,68.5 317.4,67.8 318.9,66.9 320.3,65.9 321.7,64.8 322.9,63.5 324,62.2 325,60.8 325.9,59.3 326.6,57.7 327.2,56 327.7,54.3 328,52.6 328.1,50.9 328.1,49.1 328,47.4 327.7,45.7 327.2,44 326.6,42.4 325.9,40.8 325,39.3 324,37.8 322.9,36.5 321.7,35.3 320.3,34.2 318.9,33.2 317.4,32.3 315.8,31.5 314.2,30.9 312.5,30.5 310.7,30.2 309,30 307.3,30 305.5,30.2 303.8,30.5 302.1,30.9 300.5,31.5 298.9,32.3 297.4,33.2 296,34.2 294.6,35.3 293.4,36.5 292.3,37.8 291.3,39.3 290.4,40.8 289.7,42.4 289.1,44 288.6,45.7 288.3,47.4 288.2,49.1 288.2,50.9 288.3,52.6 288.6,54.3 289.1,56 289.7,57.7 290.4,59.3 291.3,60.8 292.3,62.2 293.4,63.5 294.6,64.8 296,65.9 297.4,66.9 298.9,67.8 300.5,68.5 302.1,69.1 303.8,69.5 305.5,69.8 307.3,70" />
<path stroke="#000000" stroke-width="2" d="M 334.8,70" />
<path stroke="#000000" stroke-width="2" d="M 344.8,20 337.1,38.5" />
<path stroke="#000000" stroke-width="2" d="M 374.8,70" />
<path stroke="#000000" stroke-width="2" d="M 374.8,30 374.8,70" />
<path stroke="#000000" stroke-width="2" d="M 381.5,70" />
<path stroke="#000000" stroke-width="2" d="M 381.5,30 381.7,30 381.7,30.2 381.5,30.2 381.5,30" />
<path stroke="#000000" stroke-width="2" d="M 411.7,70" />
<path stroke="#000000" stroke-width="2" d="M 411.7,70 427,33 427,34.4 427.1,35.8 427.3,37.2 427.7,38.6 428.2,39.9 428.8,41.1 429.5,42.3 430.3,43.5 431.1,44.6 432.1,45.5 433.2,46.4 434.3,47.2 435.6,47.9 436.8,48.5 438.1,49 439.5,49.4 440.9,49.6 442.2,49.7 443.6,49.7 445,49.6 446.4,49.4 447.8,49 449.1,48.5 450.3,47.9 451.5,47.2 452.7,46.4 453.8,45.5 454.7,44.6 455.6,43.5 456.4,42.3 457.1,41.1 457.7,39.9 458.2,38.6 458.6,37.2 458.8,35.8 458.9,34.4" />
<path stroke="#000000" stroke-width="2" d="M 488.9,70" />
<path stroke="#000000" stroke-width="2" d="M 488.9,30 488.9,31.4 489.1,32.8 489.3,34.2 489.7,35.5 490.1,36.8 490.7,38.1 491.4,39.3 492.2,40.4 493.1,41.5 494.1,42.5 495.2,43.4 496.3,44.2 497.5,44.9 498.8,45.5 500.1,46 501.5,46.3 502.8,46.6 504.2,46.7 505.6,46.7 507,46.6 508.4,46.3 509.7,46 511,45.5 512.3,44.9 513.5,44.2 514.7,43.4 515.7,42.5 516.7,41.5 517.6,40.4 518.4,39.3 519.1,38.1 519.7,36.8 520.2,35.5 520.5,34.2 520.8,32.8 520.9,31.4" />
<path stroke="#000000" stroke-width="2" d="M 527.6,70" />
<path stroke="#000000" stroke-width="2" d="M 537.6,50 537.6,70 527.6,70" />
<path stroke="#000000" stroke-width="2" d="M 544.2,70" />
<path stroke="#000000" stroke-width="2" d="M 544.2,46 544.2,44.6 544.4,43.2 544.6,41.8 545,40.5 545.4,39.2 546,37.9 546.7,36.7 547.5,35.6 548.4,34.5 549.4,33.5 550.5,32.6 551.6,31.8 552.8,31.1 554.1,30.5 555.4,30 556.8,29.7 558.1,29.4 559.5,29.3 560.9,29.3 562.3,29.4 563.7,29.7 565,30 566.3,30.5 567.6,31.1 568.8,31.8 570,32.6 571,33.5 572,34.5 572.9,35.6 573.7,36.7 574.4,37.9 575,39.2 575.5,40.5 575.8,41.8 576.1,43.2 576.2,44.6" />
<path stroke="#000000" stroke-width="2" d="M 606.2,70" />
<path stroke="#000000" stroke-width="2" d="M 622.2,30 622.2,60" />
<path stroke="#000000" stroke-width="2" d="M 622.2,60 622,64.1 621.4,67.3 620.5,69.8 619.3,71.5 618,72.7 616.5,73.2 615,73.3 613.6,73 612.2,72.3 611,71.2 610,70 609.2,68.6 608.9,67.2 609,65.7 609.5,64.2 610.7,62.9 612.4,61.7 614.9,60.8 618.1,60.2 622.2,60" />
<path stroke="#000000" stroke-width="2" d="M 628.9,70" />
<path stroke="#000000" stroke-width="2" d="M 628.9,50" />
<path stroke="#000000" stroke-width="2" d="M 628.9,50 630.3,50.1 631.6,50.6 632.7,51.2 633.7,52.1 634.5,53.1 635.2,54.3 635.7,55.6 636.1,57 636.3,58.5 636.4,60 636.3,61.5 636.1,63 635.7,64.4 635.2,65.7 634.5,66.9 633.7,67.9 632.7,68.8 631.6,69.4 630.3,69.9 628.9,70" />
<path stroke="#000000" stroke-width="2" d="M 666.4,70" />
<path stroke="#000000" stroke-width="2" d="M 666.4,30 706.4,30" />
<path stroke="#000000" stroke-width="2" d="M 713,70" />
<path stroke="#000000" stroke-width="2" d="M 723,50 715.4,68.5" />
<path stroke="#000000" stroke-width="2" d="M 753,70" />
<path stroke="#000000" stroke-width="2" d="M 793,30 753.4,69.6" />
<path stroke="#000000" stroke-width="2" d="M 753.4,29.6 793,69.2" />
<path stroke="#000000" stroke-width="2" d="M 799.7,70" />
<path stroke="#000000" stroke-width="2" d="M 799.7,35" />
<path stroke="#000000" stroke-width="2" d="M 799.7,35 801.7,34.9 803.3,34.6 804.6,34.1 805.5,33.6 806,32.9 806.3,32.2 806.4,31.4 806.2,30.7 805.8,30 805.3,29.4 804.7,28.9 804,28.5 803.3,28.3 802.5,28.4 801.8,28.7 801.1,29.2 800.6,30.1 800.1,31.4 799.8,33 799.7,35 799.7,50 792,68.5" />
<path stroke="#000000" stroke-width="2" d="M 836.4,70" />
<path stroke="#000000" stroke-width="2" d="M 836.4,70 836.6,70 836.6,70.2 836.4,70.2 836.4,70" />
<path stroke="#000000" stroke-width="2" d="M 866.6,70" />
</svg>