<svg xmlns="http://www.w3.org/2000/svg" width="1421.368951354614" height="91.25" style="fill:none; stroke-linecap:round;">
    <rect width="100%" height="100%" fill="#FFFFFF" />
<path stroke="#000000" stroke-width="2" d="M 550,75" />
<path stroke="#000000" stroke-width="2" d="M 20,30 20,70 20,58 20,56.3 20.2,54.5 20.5,52.8 20.9,51.1 21.5,49.5 22.2,47.9 23.1,46.4 24.1,45 25.2,43.6 26.5,42.4 27.8,41.3 29.2,40.3 30.7,39.4 32.3,38.7 34,38.1 35.7,37.6 37.4,37.3 39.1,37.1" />
<path stroke="#000000" stroke-width="2" d="M 45.8,70" />
<path stroke="#000000" stroke-width="2" d="M 45.8,20 45.8,20.7 45.8,21.4 46,22.1 46.1,22.8 46.4,23.4 46.7,24 47,24.6 47.4,25.2 47.9,25.8 48.4,26.2 48.9,26.7 49.5,27.1 50.1,27.4 50.7,27.7 51.4,28 52,28.2 52.7,28.3 53.4,28.3 54.1,28.3 54.8,28.3 55.5,28.2 56.2,28 56.8,27.7 57.5,27.4 58.1,27.1 58.6,26.7 59.2,26.2 59.7,25.8 60.1,25.2 60.5,24.6 60.9,24 61.2,23.4 61.4,22.8 61.6,22.1 61.7,21.4 61.8,20.7" />
<path stroke="#000000" stroke-width="2" d="M 68.4,70" />
<path stroke="#000000" stroke-width="2" d="M 68.4,30 88.4,30 68.6,49.8 88.6,49.8" />
<path stroke="#000000" stroke-width="2" d="M 88.6,49.8 90.1,49.9 91.3,50.4 92.5,51 93.4,51.9 94.3,52.9 94.9,54.1 95.5,55.4 95.8,56.8 96.1,58.3 96.1,59.8 96.1,61.3 95.8,62.8 95.5,64.2 94.9,65.5 94.3,66.7 93.4,67.7 92.5,68.6 91.3,69.2 90.1,69.7 88.6,69.8" />
<path stroke="#000000" stroke-width="2" d="M 126.1,70" />
<path stroke="#000000" stroke-width="2" d="M 126.1,30 126.1,70 146.1,70" />
<path stroke="#000000" stroke-width="2" d="M 176.1,70" />
<path stroke="#000000" stroke-width="2" d="M 176.1,30 176.1,70 187.4,58.7" />
<path stroke="#000000" stroke-width="2" d="M 194.1,70" />
<path stroke="#000000" stroke-width="2" d="M 194.1,25" />
<path stroke="#000000" stroke-width="2" d="M 194.1,25 196.1,24.9 197.8,24.6 199,24.1 199.9,23.6 200.4,22.9 200.7,22.2 200.8,21.4 200.6,20.7 200.2,20 199.7,19.4 199.1,18.9 198.4,18.5 197.7,18.3 196.9,18.4 196.2,18.7 195.5,19.2 195,20.1 194.5,21.4 194.2,23 194.1,25 194.1,40" />
<path stroke="#000000" stroke-width="2" d="M 230.8,70" />
<path stroke="#000000" stroke-width="2" d="M 230.8,30 230.8,70" />
<path stroke="#000000" stroke-width="2" d="M 237.4,70" />
<path stroke="#000000" stroke-width="2" d="M 249.4,26" />
<path stroke="#000000" stroke-width="2" d="M 249.4,26 247.4,25.9 245.8,25.6 244.6,25.1 243.7,24.6 243.1,23.9 242.8,23.2 242.8,22.4 242.9,21.7 243.3,21 243.8,20.4 244.4,19.9 245.1,19.5 245.8,19.3 246.6,19.4 247.3,19.7 248,20.2 248.6,21.1 249,22.4 249.3,24 249.4,26 249.4,30" />
<path stroke="#000000" stroke-width="2" d="M 249.4,30 249.1,30.9 248.8,31.7 248.4,32.4 248,33.1 247.6,33.8 247.1,34.4 246.7,34.9 246.2,35.4 245.7,35.9 245.2,36.2 244.6,36.6 244.1,36.9 243.5,37.2 243,37.4 242.4,37.6 241.8,37.7 241.2,37.9 240.6,37.9 240,38 239.4,38" />
<path stroke="#000000" stroke-width="2" d="M 279.4,70" />
<path stroke="#000000" stroke-width="2" d="M 295.4,30" />
<path stroke="#000000" stroke-width="2" d="M 295.4,30 295.2,34.1 294.6,37.3 293.7,39.8 292.5,41.5 291.2,42.7 289.8,43.2 288.3,43.3 286.8,43 285.4,42.3 284.2,41.2 283.2,40 282.5,38.6 282.1,37.2 282.2,35.7 282.8,34.2 283.9,32.9 285.7,31.7 288.1,30.8 291.4,30.2 295.4,30 315.4,30" />
<path stroke="#000000" stroke-width="2" d="M 322.1,70" />
<path stroke="#000000" stroke-width="2" d="M 322.1,50 322.1,50.7 322.2,51.4 322.3,52.1 322.5,52.8 322.7,53.4 323,54 323.3,54.6 323.7,55.2 324.2,55.8 324.7,56.2 325.2,56.7 325.8,57.1 326.4,57.4 327,57.7 327.7,58 328.4,58.2 329,58.3 329.7,58.3 330.4,58.3 331.1,58.3 331.8,58.2 332.5,58 333.1,57.7 333.8,57.4 334.4,57.1 335,56.7 335.5,56.2 336,55.8 336.4,55.2 336.8,54.6 337.2,54 337.5,53.4 337.7,52.8 337.9,52.1 338,51.4 338.1,50.7" />
<path stroke="#000000" stroke-width="2" d="M 338.1,50.7 339.5,50.8 340.8,51.3 341.9,51.9 342.9,52.8 343.7,53.8 344.4,55 344.9,56.3 345.3,57.7 345.5,59.2 345.6,60.7 345.5,62.2 345.3,63.7 344.9,65.1 344.4,66.4 343.7,67.6 342.9,68.6 341.9,69.5 340.8,70.1 339.5,70.6 338.1,70.7" />
<path stroke="#000000" stroke-width="2" d="M 375.6,70" />
<path stroke="#000000" stroke-width="2" d="M 375.6,30 375.6,70" />
<path stroke="#000000" stroke-width="2" d="M 382.2,70" />
<path stroke="#000000" stroke-width="2" d="M 382.2,28 382.2,27.3 382.3,26.6 382.4,25.9 382.6,25.2 382.8,24.6 383.1,24 383.5,23.4 383.9,22.8 384.3,22.2 384.8,21.8 385.4,21.3 385.9,20.9 386.5,20.6 387.2,20.3 387.8,20 388.5,19.8 389.2,19.7 389.9,19.7 390.6,19.7 391.3,19.7 392,19.8 392.6,20 393.3,20.3 393.9,20.6 394.5,20.9 395.1,21.3 395.6,21.8 396.1,22.2 396.6,22.8 397,23.4 397.3,24 397.6,24.6 397.9,25.2 398,25.9 398.2,26.6 398.2,27.3" />
<path stroke="#000000" stroke-width="2" d="M 428.2,70" />
<path stroke="#000000" stroke-width="2" d="M 428.2,70 428.4,70 428.4,70.2 428.2,70.2 428.2,70" />
<path stroke="#000000" stroke-width="2" d="M 458.4,70" />
<path stroke="#000000" stroke-width="2" d="M 458.4,30 458.4,70" />
<path stroke="#000000" stroke-width="2" d="M 465.1,70" />
<path stroke="#000000" stroke-width="2" d="M 465.1,20 470.1,20 470.1,40" />
<path stroke="#000000" stroke-width="2" d="M 476.8,70" />
<path stroke="#000000" stroke-width="2" d="M 476.8,50 476.8,70 476.8,64 476.8,63.1 476.8,62.3 477,61.4 477.2,60.6 477.5,59.7 477.9,58.9 478.3,58.2 478.8,57.5 479.4,56.8 480,56.2 480.7,55.6 481.4,55.1 482.1,54.7 482.9,54.3 483.7,54 484.6,53.8 485.5,53.6 486.3,53.6" />
<path stroke="#000000" stroke-width="2" d="M 516.3,70" />
<path stroke="#000000" stroke-width="2" d="M 516.3,30 516.3,70 536.3,70" />
<path stroke="#000000" stroke-width="2" d="M 566.3,70" />
<path stroke="#000000" stroke-width="2" d="M 566.3,30 566.3,70 577.6,58.7" />
<path stroke="#000000" stroke-width="2" d="M 584.3,70" />
<path stroke="#000000" stroke-width="2" d="M 584.3,58 584.3,57.3 584.4,56.6 584.5,55.9 584.7,55.2 584.9,54.6 585.2,54 585.5,53.4 585.9,52.8 586.4,52.2 586.9,51.8 587.4,51.3 588,50.9 588.6,50.6 589.2,50.3 589.9,50 590.6,49.8 591.2,49.7 591.9,49.7 592.6,49.7 593.3,49.7 594,49.8 594.7,50 595.4,50.3 596,50.6 596.6,50.9 597.2,51.3 597.7,51.8 598.2,52.2 598.6,52.8 599,53.4 599.4,54 599.7,54.6 599.9,55.2 600.1,55.9 600.2,56.6 600.3,57.3" />
<path stroke="#000000" stroke-width="2" d="M 630.3,70" />
<path stroke="#000000" stroke-width="2" d="M 630.3,30" />
<path stroke="#000000" stroke-width="2" d="M 630.3,30 630.4,30 630.8,30 631.5,30 632.4,30.1 633.4,30.2 634.6,30.3 635.9,30.4 637.3,30.6 638.8,30.9 640.3,31.2 641.8,31.7 643.2,32.2 644.6,32.7 646,33.4 647.2,34.2 648.2,35.1 649.1,36.1 649.7,37.3 650.1,38.6 650.3,40" />
<path stroke="#000000" stroke-width="2" d="M 650.3,40 652.2,42.1 653.5,44.1 654.3,45.7 654.6,47.2 654.5,48.4 654.1,49.4 653.4,50.2 652.4,50.8 651.4,51.1 650.3,51.2 649.2,51.1 648.1,50.8 647.2,50.2 646.5,49.5 646.1,48.4 646,47.2 646.3,45.7 647,44.1 648.4,42.1 650.3,40" />
<path stroke="#000000" stroke-width="2" d="M 650.3,40 650.3,39.9 650.3,39.7 650.4,39.4 650.4,39 650.6,38.4 650.8,37.8 651.1,37.2 651.6,36.5 652.1,35.7 652.8,35 653.6,34.3 654.6,33.5 655.8,32.8 657.1,32.2 658.7,31.6 660.5,31 662.6,30.6 664.9,30.3 667.4,30.1 670.3,30" />
<path stroke="#000000" stroke-width="2" d="M 670.3,30 670.2,32 669.9,33.6 669.4,34.9 668.8,35.8 668.2,36.3 667.4,36.6 666.7,36.7 666,36.5 665.3,36.1 664.7,35.6 664.2,35 663.8,34.3 663.6,33.6 663.7,32.8 664,32.1 664.5,31.4 665.4,30.9 666.6,30.4 668.3,30.1 670.3,30 680.3,30" />
<path stroke="#000000" stroke-width="2" d="M 710.3,70" />
<path stroke="#000000" stroke-width="2" d="M 710.3,30 720.3,30 720.3,70" />
<path stroke="#000000" stroke-width="2" d="M 727,70" />
<path stroke="#000000" stroke-width="2" d="M 727,50 727,70 727,64 727,63.1 727,62.3 727.2,61.4 727.4,60.6 727.7,59.7 728.1,58.9 728.5,58.2 729,57.5 729.6,56.8 730.2,56.2 730.9,55.6 731.6,55.1 732.3,54.7 733.1,54.3 733.9,54 734.8,53.8 735.6,53.6 736.5,53.6" />
<path stroke="#000000" stroke-width="2" d="M 766.5,70" />
<path stroke="#000000" stroke-width="2" d="M 766.5,70 766.7,70 766.7,70.2 766.5,70.2 766.5,70" />
<path stroke="#000000" stroke-width="2" d="M 773.4,70" />
<path stroke="#000000" stroke-width="2" d="M 773.4,30 783.4,30 783.4,70" />
<path stroke="#000000" stroke-width="2" d="M 790,70" />
<path stroke="#000000" stroke-width="2" d="M 790,50 790,70 790,64 790,63.1 790.1,62.3 790.3,61.4 790.5,60.6 790.8,59.7 791.2,58.9 791.6,58.2 792.1,57.5 792.7,56.8 793.3,56.2 793.9,55.6 794.7,55.1 795.4,54.7 796.2,54.3 797,54 797.9,53.8 798.7,53.6 799.6,53.6 800.5,53.6 801.3,53.5 802.2,53.3 803,53.1 803.9,52.8 804.6,52.5 805.4,52 806.1,51.5 806.8,51 807.4,50.3 808,49.7 808.5,49 808.9,48.2 809.3,47.4 809.6,46.6 809.8,45.7 809.9,44.9 810,44 810,43.1 809.9,42.3 809.8,41.4 809.6,40.6 809.3,39.8 808.9,39 808.5,38.2 808,37.5 807.4,36.8 806.8,36.2 806.1,35.6 805.4,35.1 804.6,34.7 803.9,34.3 803,34 802.2,33.8 801.3,33.7 800.5,33.6 799.6,33.6 798.7,33.7 797.9,33.8 797,34 796.2,34.3 795.4,34.7 794.7,35.1 793.9,35.6 793.3,36.2 792.7,36.8 792.1,37.5 791.6,38.2 791.2,39 790.8,39.8 790.5,40.6 790.3,41.4 790.1,42.3 790,43.1 790,44 790.1,44.9 790.3,45.7 790.5,46.6 790.8,47.4 791.2,48.2 791.6,49 792.1,49.7 792.7,50.3 793.3,51 793.9,51.5 794.7,52 795.4,52.5 796.2,52.8 797,53.1 797.9,53.3 798.7,53.5 799.6,53.6" />
<path stroke="#000000" stroke-width="2" d="M 840,70" />
<path stroke="#000000" stroke-width="2" d="M 840,30 860,30" />
<path stroke="#000000" stroke-width="2" d="M 860,30 861.4,30.1 862.7,30.6 863.8,31.2 864.8,32.1 865.6,33.1 866.3,34.3 866.8,35.6 867.2,37 867.4,38.5 867.5,40 867.4,41.5 867.2,43 866.8,44.4 866.3,45.7 865.6,46.9 864.8,47.9 863.8,48.8 862.7,49.4 861.4,49.9 860,50" />
<path stroke="#000000" stroke-width="2" d="M 897.5,70" />
<path stroke="#000000" stroke-width="2" d="M 897.5,30 907.5,30 907.5,70" />
<path stroke="#000000" stroke-width="2" d="M 914.2,70" />
<path stroke="#000000" stroke-width="2" d="M 914.2,30 954.2,30" />
<path stroke="#000000" stroke-width="2" d="M 960.9,70" />
<path stroke="#000000" stroke-width="2" d="M 960.9,20 960.9,20.7 960.9,21.4 961,22.1 961.2,22.8 961.5,23.4 961.7,24 962.1,24.6 962.5,25.2 962.9,25.8 963.4,26.2 964,26.7 964.5,27.1 965.2,27.4 965.8,27.7 966.4,28 967.1,28.2 967.8,28.3 968.5,28.3 969.2,28.3 969.9,28.3 970.6,28.2 971.3,28 971.9,27.7 972.5,27.4 973.1,27.1 973.7,26.7 974.3,26.2 974.7,25.8 975.2,25.2 975.6,24.6 975.9,24 976.2,23.4 976.5,22.8 976.7,22.1 976.8,21.4 976.8,20.7" />
<path stroke="#000000" stroke-width="2" d="M 1006.8,70" />
<path stroke="#000000" stroke-width="2" d="M 1026.8,30 1011.5,67" />
<path stroke="#000000" stroke-width="2" d="M 1033.5,70" />
<path stroke="#000000" stroke-width="2" d="M 1033.5,30 1048.8,67" />
<path stroke="#000000" stroke-width="2" d="M 1078.8,70" />
<path stroke="#000000" stroke-width="2" d="M 1078.8,70 1079,70 1079,70.2 1078.8,70.2 1078.8,70" />
<path stroke="#000000" stroke-width="2" d="M 1109,70" />
<path stroke="#000000" stroke-width="2" d="M 1109,30 1109,70 1129,70" />
<path stroke="#000000" stroke-width="2" d="M 1159,70" />
<path stroke="#000000" stroke-width="2" d="M 1159,50 1164.8,36.1" />
<path stroke="#000000" stroke-width="2" d="M 1164.8,36.1 1166.8,36 1168.4,35.7 1169.6,35.3 1170.5,34.7 1171.1,34 1171.4,33.3 1171.4,32.6 1171.2,31.8 1170.9,31.1 1170.4,30.5 1169.8,30 1169.1,29.7 1168.3,29.5 1167.6,29.5 1166.9,29.8 1166.2,30.4 1165.6,31.3 1165.2,32.5 1164.9,34.1 1164.8,36.1 1164.8,51.1 1164.8,50.4 1164.8,49.7 1164.9,49.1 1165.1,48.4 1165.4,47.7 1165.6,47.1 1166,46.5 1166.4,45.9 1166.8,45.4 1167.3,44.9 1167.9,44.4 1168.4,44 1169.1,43.7 1169.7,43.4 1170.3,43.2 1171,43 1171.7,42.9 1172.4,42.8 1173.1,42.8 1173.8,42.9 1174.5,43 1175.2,43.2 1175.8,43.4 1176.4,43.7 1177,44 1177.6,44.4 1178.1,44.9 1178.6,45.4 1179.1,45.9 1179.5,46.5 1179.8,47.1 1180.1,47.7 1180.4,48.4 1180.6,49.1 1180.7,49.7 1180.7,50.4" />
<path stroke="#000000" stroke-width="2" d="M 1187.4,70" />
<path stroke="#000000" stroke-width="2" d="M 1187.4,20" />
<path stroke="#000000" stroke-width="2" d="M 1187.4,20 1188.8,20.1 1190.1,20.6 1191.2,21.2 1192.2,22.1 1193,23.1 1193.7,24.3 1194.2,25.6 1194.6,27 1194.8,28.5 1194.9,30 1194.8,31.5 1194.6,33 1194.2,34.4 1193.7,35.7 1193,36.9 1192.2,37.9 1191.2,38.8 1190.1,39.4 1188.8,39.9 1187.4,40" />
<path stroke="#000000" stroke-width="2" d="M 1224.9,70" />
<path stroke="#000000" stroke-width="2" d="M 1224.9,30 1224.9,50 1234.9,50 1239.9,50 1239.9,70" />
<path stroke="#000000" stroke-width="2" d="M 1269.9,70" />
<path stroke="#000000" stroke-width="2" d="M 1269.9,30 1269.9,70 1289.9,70" />
<path stroke="#000000" stroke-width="2" d="M 1319.9,70" />
<path stroke="#000000" stroke-width="2" d="M 1319.9,30 1319.9,70 1331.2,58.7" />
<path stroke="#000000" stroke-width="2" d="M 1337.9,70" />
<path stroke="#000000" stroke-width="2" d="M 1337.9,50" />
<path stroke="#000000" stroke-width="2" d="M 1337.9,50 1338,50 1338.4,50 1339.1,50 1340,50.1 1341,50.2 1342.2,50.3 1343.5,50.4 1344.9,50.6 1346.4,50.9 1347.9,51.2 1349.4,51.7 1350.8,52.2 1352.2,52.7 1353.6,53.4 1354.8,54.2 1355.8,55.1 1356.7,56.1 1357.3,57.3 1357.7,58.6 1357.9,60" />
<path stroke="#000000" stroke-width="2" d="M 1357.9,60 1359.8,62.1 1361.1,64.1 1361.9,65.7 1362.2,67.2 1362.1,68.4 1361.7,69.5 1361,70.2 1360,70.8 1359,71.1 1357.9,71.2 1356.8,71.1 1355.7,70.8 1354.8,70.2 1354.1,69.5 1353.7,68.4 1353.6,67.2 1353.9,65.7 1354.6,64 1356,62.1 1357.9,60" />
<path stroke="#000000" stroke-width="2" d="M 1357.9,60 1357.9,59.9 1357.9,59.7 1358,59.4 1358,59 1358.2,58.4 1358.4,57.8 1358.7,57.2 1359.2,56.5 1359.7,55.7 1360.4,55 1361.2,54.3 1362.2,53.5 1363.4,52.8 1364.7,52.2 1366.3,51.6 1368.1,51 1370.2,50.6 1372.5,50.3 1375,50.1 1377.9,50 1377.9,50.7 1377.9,51.4 1378.1,52.1 1378.2,52.8 1378.5,53.4 1378.8,54 1379.1,54.6 1379.5,55.2 1380,55.8 1380.5,56.2 1381,56.7 1381.6,57.1 1382.2,57.4 1382.8,57.7 1383.5,58 1384.1,58.2 1384.8,58.3 1385.5,58.3 1386.2,58.3 1386.9,58.3 1387.6,58.2 1388.3,58 1388.9,57.7 1389.6,57.4 1390.2,57.1 1390.7,56.7 1391.3,56.2 1391.8,55.8 1392.2,55.2 1392.6,54.6 1393,54 1393.3,53.4 1393.5,52.8 1393.7,52.1 1393.8,51.4 1393.9,50.7" />
<path stroke="#000000" stroke-width="2" d="M 1393.9,50.7 1395.3,50.8 1396.6,51.3 1397.7,51.9 1398.7,52.8 1399.5,53.8 1400.2,55 1400.7,56.3 1401.1,57.7 1401.3,59.2 1401.4,60.7 1401.3,62.2 1401.1,63.7 1400.7,65.1 1400.2,66.4 1399.5,67.6 1398.7,68.6 1397.7,69.5 1396.6,70.1 1395.3,70.6 1393.9,70.7" />
<path stroke="#000000" stroke-width="2" d="M 1431.4,70" />
</svg>