<svg xmlns="http://www.w3.org/2000/svg" width="156.96767400007502" height="90.2" style="fill:none; stroke-linecap:round;">
    <rect width="100%" height="100%" fill="#FFFFFF" />
<path stroke="#000000" stroke-width="2" d="M 550,75" />
<path stroke="#000000" stroke-width="2" d="M 20,30 20,38 20,39 20.1,40.1 20.3,41.1 20.5,42.1 20.9,43.1 21.3,44.1 21.9,45 22.5,45.8 23.1,46.6 23.9,47.4 24.7,48 25.5,48.6 26.4,49.2 27.4,49.6 28.4,50 29.4,50.2 30.4,50.4 31.5,50.5 32.5,50.5 33.6,50.4 34.6,50.2 35.6,50 36.6,49.6 37.5,49.2 38.4,48.6 39.3,48 40.1,47.4 40.8,46.6 41.5,45.8 42.1,45 42.6,44.1 43.1,43.1 43.4,42.1 43.7,41.1 43.9,40.1 44,39 44,29 44,69 44,67.3 44.1,65.6 44.4,63.8 44.9,62.2 45.5,60.5 46.2,58.9 47.1,57.4 48.1,56 49.2,54.7 50.4,53.4 51.8,52.3 53.2,51.3 54.7,50.4 56.3,49.7 57.9,49.1 59.6,48.6 61.3,48.3 63.1,48.2" />
<path stroke="#000000" stroke-width="2" d="M 69.8,70" />
<path stroke="#000000" stroke-width="2" d="M 71.8,40 77.1,27.1 77.2,26.7 77.3,26.4 77.4,26.1 77.5,25.7 77.5,25.4 77.5,25 77.4,24.7 77.3,24.3 77.2,24 77.1,23.7 76.9,23.4 76.8,23.1 76.5,22.8 76.3,22.5 76.1,22.3 75.8,22.1 75.5,21.9 75.2,21.7 74.9,21.6 74.5,21.5 74.2,21.4 73.8,21.4 73.5,21.4 73.1,21.4 72.8,21.4 72.4,21.5 72.1,21.6 71.8,21.7 71.5,21.9 71.2,22.1 70.9,22.3 70.7,22.5 70.4,22.8 70.2,23.1 70,23.4 69.9,23.7 69.7,24 69.6,24.3 69.5,24.7 69.5,25 69.5,25.4 69.5,25.7 69.5,26.1 69.6,26.4 69.7,26.7 69.9,27.1 70,27.4 70.2,27.7 70.4,27.9 70.7,28.2 70.9,28.4 71.2,28.7 71.5,28.8 71.8,29 72.1,29.1 72.4,29.2 72.8,29.3 73.1,29.4 73.5,29.4 73.8,29.4 86.8,24 106.8,24" />
<path stroke="#000000" stroke-width="2" d="M 136.8,70" />
<path stroke="#000000" stroke-width="2" d="M 136.8,70 137,70 137,70.2 136.8,70.2 136.8,70" />
<path stroke="#000000" stroke-width="2" d="M 167,70" />
</svg>