<svg xmlns="http://www.w3.org/2000/svg" width="1433.045575686798" height="102.0" style="fill:none; stroke-linecap:round;">
    <rect width="100%" height="100%" fill="#FFFFFF" />
<path stroke="#000000" stroke-width="2" d="M 550,75" />
<path stroke="#000000" stroke-width="2" d="M 20,30 30,30 30,70" />
<path stroke="#000000" stroke-width="2" d="M 36.7,70" />
<path stroke="#000000" stroke-width="2" d="M 36.7,50 36.7,70 36.7,64 36.7,63.1 36.7,62.3 36.9,61.4 37.1,60.6 37.4,59.7 37.8,58.9 38.2,58.2 38.7,57.5 39.3,56.8 39.9,56.2 40.6,55.6 41.3,55.1 42,54.7 42.8,54.3 43.7,54 44.5,53.8 45.4,53.6 46.2,53.6" />
<path stroke="#000000" stroke-width="2" d="M 76.2,70" />
<path stroke="#000000" stroke-width="2" d="M 76.2,40" />
<path stroke="#000000" stroke-width="2" d="M 76.2,40 80.3,39.8 83.5,39.2 86,38.3 87.7,37.1 88.9,35.8 89.5,34.3 89.5,32.8 89.2,31.4 88.5,30 87.5,28.8 86.2,27.7 84.9,27 83.4,26.7 81.9,26.8 80.4,27.3 79.1,28.5 77.9,30.2 77,32.7 76.4,35.9 76.2,40 76.2,70" />
<path stroke="#000000" stroke-width="2" d="M 96.2,70" />
<path stroke="#000000" stroke-width="2" d="M 96.2,50 103.9,68.5" />
<path stroke="#000000" stroke-width="2" d="M 133.9,70" />
<path stroke="#000000" stroke-width="2" d="M 133.9,30 133.9,70 133.9,58 133.9,56.3 134,54.5 134.3,52.8 134.8,51.1 135.4,49.5 136.1,47.9 137,46.4 138,45 139.1,43.6 140.3,42.4 141.7,41.3 143.1,40.3 144.6,39.4 146.2,38.7 147.8,38.1 149.5,37.6 151.2,37.3 153,37.1" />
<path stroke="#000000" stroke-width="2" d="M 159.6,70" />
<path stroke="#000000" stroke-width="2" d="M 159.6,25" />
<path stroke="#000000" stroke-width="2" d="M 159.6,25 161.7,24.9 163.3,24.6 164.5,24.1 165.4,23.6 166,22.9 166.2,22.2 166.3,21.4 166.1,20.7 165.8,20 165.3,19.4 164.6,18.9 163.9,18.5 163.2,18.3 162.5,18.4 161.7,18.7 161.1,19.2 160.5,20.1 160,21.4 159.7,23 159.6,25 159.6,40" />
<path stroke="#000000" stroke-width="2" d="M 172.9,70" />
<path stroke="#000000" stroke-width="2" d="M 172.9,50 192.9,50" />
<path stroke="#000000" stroke-width="2" d="M 222.9,70" />
<path stroke="#000000" stroke-width="2" d="M 222.9,30 230.6,48.5 238.3,30" />
<path stroke="#000000" stroke-width="2" d="M 238.3,40" />
<path stroke="#000000" stroke-width="2" d="M 222.3,40 239.3,40" />
<path stroke="#000000" stroke-width="2" d="M 239.3,40 237.2,39.9 235.6,39.6 234.4,39.1 233.5,38.6 232.9,37.9 232.6,37.2 232.6,36.4 232.8,35.7 233.1,35 233.6,34.4 234.2,33.9 234.9,33.5 235.7,33.3 236.4,33.4 237.1,33.7 237.8,34.2 238.4,35.1 238.8,36.4 239.1,38 239.3,40 239.3,44" />
<path stroke="#000000" stroke-width="2" d="M 239.3,44 238.9,44.9 238.6,45.7 238.2,46.4 237.8,47.1 237.4,47.8 237,48.4 236.5,48.9 236,49.4 235.5,49.9 235,50.2 234.5,50.6 233.9,50.9 233.4,51.2 232.8,51.4 232.2,51.6 231.6,51.7 231,51.9 230.5,51.9 229.9,52 229.3,52" />
<path stroke="#000000" stroke-width="2" d="M 269.3,70" />
<path stroke="#000000" stroke-width="2" d="M 269.3,40" />
<path stroke="#000000" stroke-width="2" d="M 269.3,40 273.3,39.8 276.5,39.2 279,38.3 280.8,37.1 281.9,35.8 282.5,34.3 282.6,32.8 282.2,31.4 281.5,30 280.5,28.8 279.3,27.7 277.9,27 276.4,26.7 274.9,26.8 273.5,27.3 272.1,28.5 271,30.2 270.1,32.7 269.5,35.9 269.3,40 269.3,70" />
<path stroke="#000000" stroke-width="2" d="M 289.2,70" />
<path stroke="#000000" stroke-width="2" d="M 289.2,50" />
<path stroke="#000000" stroke-width="2" d="M 289.2,50 290.7,50.1 291.9,50.6 293.1,51.2 294,52.1 294.9,53.1 295.5,54.3 296.1,55.6 296.4,57 296.7,58.5 296.7,60 296.7,61.5 296.4,63 296.1,64.4 295.5,65.7 294.9,66.9 294,67.9 293.1,68.8 291.9,69.4 290.7,69.9 289.2,70 309.2,70 309.2,70.7 309.3,71.4 309.4,72.1 309.6,72.8 309.8,73.4 310.1,74 310.5,74.6 310.9,75.2 311.3,75.8 311.8,76.2 312.4,76.7 312.9,77.1 313.5,77.4 314.2,77.7 314.8,78 315.5,78.2 316.2,78.3 316.9,78.3 317.6,78.3 318.3,78.3 319,78.2 319.6,78 320.3,77.7 320.9,77.4 321.5,77.1 322.1,76.7 322.6,76.2 323.1,75.8 323.6,75.2 324,74.6 324.3,74 324.6,73.4 324.9,72.8 325,72.1 325.2,71.4 325.2,70.7" />
<path stroke="#000000" stroke-width="2" d="M 331.9,70" />
<path stroke="#000000" stroke-width="2" d="M 331.9,30 332.1,30 332.1,30.2 331.9,30.2 331.9,30" />
<path stroke="#000000" stroke-width="2" d="M 362.1,70" />
<path stroke="#000000" stroke-width="2" d="M 362.1,30 377.4,67" />
<path stroke="#000000" stroke-width="2" d="M 384.1,70" />
<path stroke="#000000" stroke-width="2" d="M 384.1,20" />
<path stroke="#000000" stroke-width="2" d="M 384.1,20 385.5,20.1 386.8,20.6 387.9,21.2 388.9,22.1 389.7,23.1 390.4,24.3 390.9,25.6 391.3,27 391.5,28.5 391.6,30 391.5,31.5 391.3,33 390.9,34.4 390.4,35.7 389.7,36.9 388.9,37.9 387.9,38.8 386.8,39.4 385.5,39.9 384.1,40" />
<path stroke="#000000" stroke-width="2" d="M 421.6,70" />
<path stroke="#000000" stroke-width="2" d="M 421.6,40" />
<path stroke="#000000" stroke-width="2" d="M 421.6,40 425.6,39.8 428.8,39.2 431.3,38.3 433.1,37.1 434.2,35.8 434.8,34.3 434.9,32.8 434.5,31.4 433.8,30 432.8,28.8 431.6,27.7 430.2,27 428.7,26.7 427.2,26.8 425.8,27.3 424.4,28.5 423.3,30.2 422.4,32.7 421.8,35.9 421.6,40 421.6,70" />
<path stroke="#000000" stroke-width="2" d="M 441.5,70" />
<path stroke="#000000" stroke-width="2" d="M 441.5,20 461.5,20" />
<path stroke="#000000" stroke-width="2" d="M 461.5,20 463.6,19.9 465.2,19.6 466.4,19.1 467.3,18.6 467.9,17.9 468.1,17.2 468.2,16.4 468,15.7 467.7,15 467.2,14.4 466.5,13.9 465.8,13.5 465.1,13.3 464.4,13.4 463.6,13.7 463,14.2 462.4,15.1 461.9,16.4 461.6,18 461.5,20 461.5,35" />
<path stroke="#000000" stroke-width="2" d="M 498.2,70" />
<path stroke="#000000" stroke-width="2" d="M 498.2,70 498.4,70 498.4,70.2 498.2,70.2 498.2,70" />
<path stroke="#000000" stroke-width="2" d="M 528.4,70" />
<path stroke="#000000" stroke-width="2" d="M 528.4,30 528.4,70 548.4,70" />
<path stroke="#000000" stroke-width="2" d="M 578.4,70" />
<path stroke="#000000" stroke-width="2" d="M 578.4,30 578.4,70 578.4,58 578.4,56.3 578.5,54.5 578.8,52.8 579.3,51.1 579.9,49.5 580.6,47.9 581.5,46.4 582.5,45 583.6,43.6 584.9,42.4 586.2,41.3 587.6,40.3 589.1,39.4 590.7,38.7 592.4,38.1 594,37.6 595.8,37.3 597.5,37.1" />
<path stroke="#000000" stroke-width="2" d="M 604.2,70" />
<path stroke="#000000" stroke-width="2" d="M 604.2,20 611.8,38.5" />
<path stroke="#000000" stroke-width="2" d="M 618.5,70" />
<path stroke="#000000" stroke-width="2" d="M 618.5,20 626.1,38.5 626.1,58.5 626.1,54.5 626.1,53.6 626.2,52.7 626.4,51.9 626.6,51 626.9,50.2 627.3,49.4 627.7,48.7 628.2,48 628.8,47.3 629.4,46.7 630,46.1 630.8,45.6" />
<path stroke="#000000" stroke-width="2" d="M 630.8,45.6 632.2,45.8 633.5,46.2 634.6,46.8 635.6,47.7 636.4,48.7 637.1,49.9 637.6,51.2 638,52.6 638.2,54.1 638.3,55.6 638.2,57.1 638,58.6 637.6,60 637.1,61.3 636.4,62.5 635.6,63.5 634.6,64.4 633.5,65 632.2,65.5 630.8,65.6" />
<path stroke="#000000" stroke-width="2" d="M 668.3,70" />
<path stroke="#000000" stroke-width="2" d="M 668.3,70 668.5,70 668.5,70.2 668.3,70.2 668.3,70" />
<path stroke="#000000" stroke-width="2" d="M 675.1,70" />
<path stroke="#000000" stroke-width="2" d="M 685.1,30 675.1,30 675.1,70 675.1,68.3 675.3,66.5 675.6,64.8 676,63.1 676.6,61.5 677.4,59.9 678.2,58.4 679.2,57 680.4,55.6 681.6,54.4 682.9,53.3 684.4,52.3 685.9,51.4 687.4,50.7 689.1,50.1 690.8,49.6 692.5,49.3 694.2,49.1" />
<path stroke="#000000" stroke-width="2" d="M 700.9,70" />
<path stroke="#000000" stroke-width="2" d="M 708.9,20 708.9,35" />
<path stroke="#000000" stroke-width="2" d="M 708.9,35 708.8,37 708.5,38.6 708,39.9 707.5,40.8 706.8,41.3 706.1,41.6 705.3,41.7 704.6,41.5 703.9,41.1 703.3,40.6 702.8,40 702.4,39.3 702.2,38.6 702.3,37.8 702.6,37.1 703.1,36.4 704,35.9 705.2,35.4 706.9,35.1 708.9,35" />
<path stroke="#000000" stroke-width="2" d="M 738.9,70" />
<path stroke="#000000" stroke-width="2" d="M 738.9,70" />
<path stroke="#000000" stroke-width="2" d="M 738.9,70 740,70 741,70.2 741.8,70.4 742.5,70.7 743.1,71 743.6,71.5 743.9,71.9 744.1,72.5 744.2,73.1 744.1,73.8 744,74.4 743.8,75.2 743.5,76 743.1,76.8 742.5,77.6 742,78.4 741.3,79.3 740.6,80.2 739.8,81.1 738.9,82" />
<path stroke="#000000" stroke-width="2" d="M 774.2,70" />
<path stroke="#000000" stroke-width="2" d="M 774.2,30 774.2,70 794.2,70" />
<path stroke="#000000" stroke-width="2" d="M 824.2,70" />
<path stroke="#000000" stroke-width="2" d="M 824.2,30 824.2,70 824.2,58 824.2,56.3 824.3,54.5 824.6,52.8 825.1,51.1 825.7,49.5 826.4,47.9 827.3,46.4 828.3,45 829.4,43.6 830.6,42.4 832,41.3 833.4,40.3 834.9,39.4 836.5,38.7 838.1,38.1 839.8,37.6 841.5,37.3 843.3,37.1" />
<path stroke="#000000" stroke-width="2" d="M 849.9,70" />
<path stroke="#000000" stroke-width="2" d="M 849.9,20 857.6,38.5" />
<path stroke="#000000" stroke-width="2" d="M 864.3,70" />
<path stroke="#000000" stroke-width="2" d="M 864.3,20 871.9,38.5 871.9,58.5 871.9,54.5 871.9,53.6 872,52.7 872.1,51.9 872.4,51 872.7,50.2 873,49.4 873.5,48.7 874,48 874.5,47.3 875.1,46.7 875.8,46.1 876.5,45.6" />
<path stroke="#000000" stroke-width="2" d="M 876.5,45.6 878,45.8 879.2,46.2 880.4,46.8 881.3,47.7 882.2,48.7 882.8,49.9 883.4,51.2 883.7,52.6 884,54.1 884,55.6 884,57.1 883.7,58.6 883.4,60 882.8,61.3 882.2,62.5 881.3,63.5 880.4,64.4 879.2,65 878,65.5 876.5,65.6" />
<path stroke="#000000" stroke-width="2" d="M 914,70" />
<path stroke="#000000" stroke-width="2" d="M 914,70 914.2,70 914.2,70.2 914,70.2 914,70" />
<path stroke="#000000" stroke-width="2" d="M 920.9,70" />
<path stroke="#000000" stroke-width="2" d="M 920.9,70 936.2,33 936.2,73" />
<path stroke="#000000" stroke-width="2" d="M 942.9,70" />
<path stroke="#000000" stroke-width="2" d="M 942.9,40" />
<path stroke="#000000" stroke-width="2" d="M 942.9,40 946.9,39.8 950.2,39.2 952.6,38.3 954.4,37.1 955.5,35.8 956.1,34.3 956.2,32.8 955.8,31.4 955.1,30 954.1,28.7 952.9,27.7 951.5,27 950,26.7 948.5,26.8 947.1,27.3 945.8,28.5 944.6,30.2 943.7,32.7 943.1,35.9 942.9,40 942.9,70" />
<path stroke="#000000" stroke-width="2" d="M 986.2,70" />
<path stroke="#000000" stroke-width="2" d="M 986.2,70" />
<path stroke="#000000" stroke-width="2" d="M 986.2,70 987.3,70 988.3,70.2 989.1,70.4 989.8,70.7 990.4,71 990.8,71.5 991.2,71.9 991.4,72.5 991.5,73.1 991.4,73.8 991.3,74.4 991.1,75.2 990.8,76 990.3,76.8 989.8,77.6 989.3,78.4 988.6,79.3 987.9,80.2 987.1,81.1 986.2,82" />
<path stroke="#000000" stroke-width="2" d="M 1021.5,70" />
<path stroke="#000000" stroke-width="2" d="M 1021.5,30 1041.5,30" />
<path stroke="#000000" stroke-width="2" d="M 1041.5,30 1042.9,30.1 1044.2,30.6 1045.3,31.2 1046.3,32.1 1047.1,33.1 1047.8,34.3 1048.3,35.6 1048.7,37 1048.9,38.5 1049,40 1048.9,41.5 1048.7,43 1048.3,44.4 1047.8,45.7 1047.1,46.9 1046.3,47.9 1045.3,48.8 1044.2,49.4 1042.9,49.9 1041.5,50" />
<path stroke="#000000" stroke-width="2" d="M 1079,70" />
<path stroke="#000000" stroke-width="2" d="M 1079,30 1079,31.4 1079.1,32.8 1079.3,34.2 1079.7,35.5 1080.2,36.8 1080.7,38.1 1081.4,39.3 1082.2,40.4 1083.1,41.5 1084.1,42.5 1085.2,43.4 1086.3,44.2 1087.5,44.9 1088.8,45.5 1090.1,46 1091.5,46.3 1092.8,46.6 1094.2,46.7 1095.6,46.7 1097,46.6 1098.4,46.3 1099.7,46 1101.1,45.5 1102.3,44.9 1103.5,44.2 1104.7,43.4 1105.7,42.5 1106.7,41.5 1107.6,40.4 1108.4,39.3 1109.1,38.1 1109.7,36.8 1110.2,35.5 1110.6,34.2 1110.8,32.8 1110.9,31.4" />
<path stroke="#000000" stroke-width="2" d="M 1117.6,70" />
<path stroke="#000000" stroke-width="2" d="M 1117.6,58 1117.6,57.3 1117.6,56.6 1117.8,55.9 1118,55.2 1118.2,54.6 1118.5,54 1118.8,53.4 1119.2,52.8 1119.7,52.2 1120.2,51.8 1120.7,51.3 1121.3,50.9 1121.9,50.6 1122.5,50.3 1123.2,50 1123.8,49.8 1124.5,49.7 1125.2,49.7 1125.9,49.7 1126.6,49.7 1127.3,49.8 1128,50 1128.6,50.3 1129.3,50.6 1129.9,50.9 1130.5,51.3 1131,51.8 1131.5,52.2 1131.9,52.8 1132.3,53.4 1132.7,54 1133,54.6 1133.2,55.2 1133.4,55.9 1133.5,56.6 1133.6,57.3" />
<path stroke="#000000" stroke-width="2" d="M 1133.6,57.3 1131.5,57.2 1129.9,56.9 1128.7,56.4 1127.8,55.9 1127.2,55.2 1127,54.5 1126.9,53.7 1127.1,53 1127.4,52.3 1127.9,51.7 1128.6,51.2 1129.3,50.8 1130,50.6 1130.7,50.7 1131.5,51 1132.1,51.5 1132.7,52.4 1133.2,53.7 1133.5,55.3 1133.6,57.3 1133.6,61.3" />
<path stroke="#000000" stroke-width="2" d="M 1133.6,61.3 1133.3,62.2 1132.9,63 1132.5,63.7 1132.1,64.4 1131.7,65.1 1131.3,65.7 1130.8,66.2 1130.3,66.7 1129.8,67.2 1129.3,67.6 1128.8,67.9 1128.2,68.2 1127.7,68.5 1127.1,68.7 1126.5,68.9 1126,69 1125.4,69.2 1124.8,69.2 1124.2,69.3 1123.6,69.3" />
<path stroke="#000000" stroke-width="2" d="M 1163.6,70" />
<path stroke="#000000" stroke-width="2" d="M 1163.6,70 1191.9,41.7 1176.6,78.7" />
<path stroke="#000000" stroke-width="2" d="M 1221.9,70" />
<path stroke="#000000" stroke-width="2" d="M 1221.9,30 1237.2,67" />
<path stroke="#000000" stroke-width="2" d="M 1243.8,70" />
<path stroke="#000000" stroke-width="2" d="M 1243.8,30 1243.8,70" />
<path stroke="#000000" stroke-width="2" d="M 1250.5,70" />
<path stroke="#000000" stroke-width="2" d="M 1250.5,50" />
<path stroke="#000000" stroke-width="2" d="M 1250.5,50 1251.9,50.1 1253.2,50.6 1254.3,51.2 1255.3,52.1 1256.1,53.1 1256.8,54.3 1257.3,55.6 1257.7,57 1257.9,58.5 1258,60 1257.9,61.5 1257.7,63 1257.3,64.4 1256.8,65.7 1256.1,66.9 1255.3,67.9 1254.3,68.8 1253.2,69.4 1251.9,69.9 1250.5,70" />
<path stroke="#000000" stroke-width="2" d="M 1264.7,70" />
<path stroke="#000000" stroke-width="2" d="M 1264.7,30 1264.9,30 1264.9,30.2 1264.7,30.2 1264.7,30" />
<path stroke="#000000" stroke-width="2" d="M 1294.9,70" />
<path stroke="#000000" stroke-width="2" d="M 1294.9,70 1295.1,70 1295.1,70.2 1294.9,70.2 1294.9,70" />
<path stroke="#000000" stroke-width="2" d="M 1325.1,70" />
<path stroke="#000000" stroke-width="2" d="M 1325.1,30 1325.1,70 1345.1,70" />
<path stroke="#000000" stroke-width="2" d="M 1375.1,70" />
<path stroke="#000000" stroke-width="2" d="M 1375.1,30 1375.1,70 1386.4,58.7" />
<path stroke="#000000" stroke-width="2" d="M 1393,70" />
<path stroke="#000000" stroke-width="2" d="M 1393,20 1413,20 1405.4,38.5" />
<path stroke="#000000" stroke-width="2" d="M 1405.4,38.5 1406.8,38.6 1408.1,39 1409.2,39.7 1410.2,40.6 1411,41.6 1411.7,42.8 1412.2,44.1 1412.6,45.5 1412.8,47 1412.9,48.5 1412.8,50 1412.6,51.4 1412.2,52.8 1411.7,54.2 1411,55.4 1410.2,56.4 1409.2,57.3 1408.1,57.9 1406.8,58.3 1405.4,58.5" />
<path stroke="#000000" stroke-width="2" d="M 1443,70" />
</svg>