<svg xmlns="http://www.w3.org/2000/svg" width="1041.67422573336" height="108.47759065022574" style="fill:none; stroke-linecap:round;">
    <rect width="100%" height="100%" fill="#FFFFFF" />
<path stroke="#000000" stroke-width="2" d="M 550,75" />
<path stroke="#000000" stroke-width="2" d="M 20,70 20.2,70 20.2,70.2 20,70.2 20,70" />
<path stroke="#000000" stroke-width="2" d="M 26.9,70" />
<path stroke="#000000" stroke-width="2" d="M 26.9,30 42.2,67" />
<path stroke="#000000" stroke-width="2" d="M 48.8,70" />
<path stroke="#000000" stroke-width="2" d="M 48.8,55" />
<path stroke="#000000" stroke-width="2" d="M 48.8,55 50.9,54.9 52.5,54.6 53.7,54.1 54.6,53.6 55.2,52.9 55.5,52.2 55.5,51.4 55.3,50.7 55,50 54.5,49.4 53.9,48.9 53.2,48.5 52.4,48.3 51.7,48.4 51,48.7 50.3,49.2 49.7,50.1 49.2,51.4 48.9,53 48.8,55 48.8,70 41.2,88.5" />
<path stroke="#000000" stroke-width="2" d="M 85.5,70" />
<path stroke="#000000" stroke-width="2" d="M 101.5,30" />
<path stroke="#000000" stroke-width="2" d="M 101.5,30 101.3,34.1 100.7,37.3 99.8,39.8 98.6,41.5 97.3,42.7 95.8,43.2 94.3,43.3 92.9,43 91.5,42.3 90.2,41.2 89.2,40 88.5,38.6 88.2,37.2 88.3,35.7 88.8,34.2 90,32.9 91.7,31.7 94.2,30.8 97.4,30.2 101.5,30 121.5,30" />
<path stroke="#000000" stroke-width="2" d="M 128.2,70" />
<path stroke="#000000" stroke-width="2" d="M 128.2,50 128.2,70 133.8,64.3" />
<path stroke="#000000" stroke-width="2" d="M 140.5,70" />
<path stroke="#000000" stroke-width="2" d="M 140.5,20 140.5,40 140.5,34 140.5,33.1 140.6,32.3 140.7,31.4 140.9,30.6 141.2,29.7 141.6,28.9 142,28.2 142.5,27.5 143.1,26.8 143.7,26.2 144.4,25.6 145.1,25.1 145.9,24.7 146.6,24.3 147.5,24 148.3,23.8 149.2,23.6 150,23.6 155,23.6 155,43.6" />
<path stroke="#000000" stroke-width="2" d="M 155,33.6" />
<path stroke="#000000" stroke-width="2" d="M 151,33.6 159,33.6" />
<path stroke="#000000" stroke-width="2" d="M 189,70" />
<path stroke="#000000" stroke-width="2" d="M 189,30 204.3,67" />
<path stroke="#000000" stroke-width="2" d="M 211,70" />
<path stroke="#000000" stroke-width="2" d="M 221,20 221,40 211,40" />
<path stroke="#000000" stroke-width="2" d="M 227.7,70" />
<path stroke="#000000" stroke-width="2" d="M 227.7,46 227.7,44.6 227.8,43.2 228,41.8 228.4,40.5 228.9,39.2 229.5,37.9 230.2,36.7 231,35.6 231.9,34.5 232.9,33.5 233.9,32.6 235.1,31.8 236.3,31.1 237.5,30.5 238.9,30 240.2,29.7 241.6,29.4 243,29.3 244.4,29.3 245.8,29.4 247.1,29.7 248.5,30 249.8,30.5 251.1,31.1 252.3,31.8 253.4,32.6 254.5,33.5 255.5,34.5 256.4,35.6 257.2,36.7 257.9,37.9 258.4,39.2 258.9,40.5 259.3,41.8 259.5,43.2 259.6,44.6" />
<path stroke="#000000" stroke-width="2" d="M 289.6,70" />
<path stroke="#000000" stroke-width="2" d="M 289.6,30 329.6,30" />
<path stroke="#000000" stroke-width="2" d="M 336.3,70" />
<path stroke="#000000" stroke-width="2" d="M 336.3,50 336.3,70 342,64.3 362,64.3" />
<path stroke="#000000" stroke-width="2" d="M 392,70" />
<path stroke="#000000" stroke-width="2" d="M 412,30 396.7,67" />
<path stroke="#000000" stroke-width="2" d="M 418.6,70" />
<path stroke="#000000" stroke-width="2" d="M 426.6,50" />
<path stroke="#000000" stroke-width="2" d="M 426.6,50 426.5,52 426.2,53.6 425.8,54.9 425.2,55.8 424.5,56.3 423.8,56.6 423.1,56.7 422.3,56.5 421.6,56.1 421,55.6 420.5,55 420.2,54.3 420,53.6 420,52.8 420.3,52.1 420.9,51.4 421.8,50.9 423,50.4 424.6,50.1 426.6,50 436.6,50" />
<path stroke="#000000" stroke-width="2" d="M 443.3,70" />
<path stroke="#000000" stroke-width="2" d="M 443.3,50 463.3,50" />
<path stroke="#000000" stroke-width="2" d="M 470,70" />
<path stroke="#000000" stroke-width="2" d="M 470,30" />
<path stroke="#000000" stroke-width="2" d="M 470,30 472.8,30.3 475.4,31.1 477.6,32.4 479.6,34.2 481.2,36.2 482.6,38.6 483.6,41.3 484.4,44.1 484.8,47 485,50 484.8,53 484.4,55.9 483.6,58.7 482.6,61.4 481.2,63.8 479.6,65.8 477.6,67.6 475.4,68.9 472.8,69.7 470,70" />
<path stroke="#000000" stroke-width="2" d="M 491.6,70" />
<path stroke="#000000" stroke-width="2" d="M 491.6,50 499.3,68.5" />
<path stroke="#000000" stroke-width="2" d="M 529.3,70" />
<path stroke="#000000" stroke-width="2" d="M 529.3,42 530.1,42 530.1,42.8 529.3,42.8 529.3,42" />
<path stroke="#000000" stroke-width="2" d="M 529.3,58 530.1,58 530.1,58.8 529.3,58.8 529.3,58" />
<path stroke="#000000" stroke-width="2" d="M 560.1,70" />
<path stroke="#000000" stroke-width="2" d="M 560.1,70 560.3,70 560.3,70.2 560.1,70.2 560.1,70" />
<path stroke="#000000" stroke-width="2" d="M 567,70" />
<path stroke="#000000" stroke-width="2" d="M 569,50 574.3,37.1 574.5,36.7 574.6,36.4 574.6,36.1 574.7,35.7 574.7,35.4 574.7,35 574.6,34.7 574.6,34.3 574.5,34 574.3,33.7 574.2,33.4 574,33.1 573.8,32.8 573.5,32.5 573.3,32.3 573,32.1 572.7,31.9 572.4,31.7 572.1,31.6 571.7,31.5 571.4,31.4 571,31.4 570.7,31.4 570.3,31.4 570,31.4 569.7,31.5 569.3,31.6 569,31.7 568.7,31.9 568.4,32.1 568.1,32.3 567.9,32.5 567.6,32.8 567.4,33.1 567.2,33.4 567.1,33.7 566.9,34 566.8,34.3 566.8,34.7 566.7,35 566.7,35.4 566.7,35.7 566.8,36.1 566.8,36.4 566.9,36.7 567.1,37.1 567.2,37.4 567.4,37.7 567.6,37.9 567.9,38.2 568.1,38.4 568.4,38.7 568.7,38.8 569,39 569.3,39.1 569.7,39.2 570,39.3 570.3,39.4 570.7,39.4 571,39.4 584,34 584,34.7 584,35.4 584.2,36.1 584.3,36.8 584.6,37.4 584.9,38 585.2,38.6 585.6,39.2 586.1,39.8 586.6,40.2 587.1,40.7 587.7,41.1 588.3,41.4 588.9,41.7 589.6,42 590.2,42.2 590.9,42.3 591.6,42.3 592.3,42.3 593,42.3 593.7,42.2 594.4,42 595,41.7 595.7,41.4 596.3,41.1 596.8,40.7 597.4,40.2 597.9,39.8 598.3,39.2 598.7,38.6 599.1,38 599.4,37.4 599.6,36.8 599.8,36.1 599.9,35.4 600,34.7" />
<path stroke="#000000" stroke-width="2" d="M 606.6,70" />
<path stroke="#000000" stroke-width="2" d="M 606.6,20 614.3,38.5" />
<path stroke="#000000" stroke-width="2" d="M 614.3,28.5" />
<path stroke="#000000" stroke-width="2" d="M 603.3,28.5 617.3,28.5" />
<path stroke="#000000" stroke-width="2" d="M 617.3,28.5 619.3,28.4 620.9,28.1 622.2,27.6 623,27 623.6,26.4 623.9,25.6 623.9,24.9 623.8,24.2 623.4,23.5 622.9,22.9 622.3,22.4 621.6,22 620.9,21.8 620.1,21.9 619.4,22.1 618.7,22.7 618.1,23.6 617.7,24.8 617.4,26.4 617.3,28.5 617.3,43.5" />
<path stroke="#000000" stroke-width="2" d="M 653.9,70" />
<path stroke="#000000" stroke-width="2" d="M 658.9,30" />
<path stroke="#000000" stroke-width="2" d="M 658.9,30 657.5,30.1 656.2,30.6 655.1,31.2 654.1,32.1 653.3,33.1 652.6,34.3 652.1,35.6 651.7,37 651.5,38.5 651.4,40 651.5,41.5 651.7,43 652.1,44.4 652.6,45.7 653.3,46.9 654.1,47.9 655.1,48.8 656.2,49.4 657.5,49.9 658.9,50 663.9,50 663.9,70" />
<path stroke="#000000" stroke-width="2" d="M 693.9,70" />
<path stroke="#000000" stroke-width="2" d="M 709.9,30 690.1,49.8 709.9,69.6" />
<path stroke="#000000" stroke-width="2" d="M 716.6,70" />
<path stroke="#000000" stroke-width="2" d="M 716.6,20 716.6,40 716.6,34 716.6,33.1 716.7,32.3 716.8,31.4 717.1,30.6 717.4,29.7 717.7,28.9 718.2,28.2 718.7,27.5 719.2,26.8 719.8,26.2 720.5,25.6 721.2,25.1 722,24.7 722.8,24.3 723.6,24 724.4,23.8 725.3,23.6 726.2,23.6 733.8,42.1" />
<path stroke="#000000" stroke-width="2" d="M 740.5,70" />
<path stroke="#000000" stroke-width="2" d="M 740.5,50 760.5,50" />
<path stroke="#000000" stroke-width="2" d="M 767.1,70" />
<path stroke="#000000" stroke-width="2" d="M 767.1,30 767.3,30 767.3,30.2 767.1,30.2 767.1,30" />
<path stroke="#000000" stroke-width="2" d="M 797.3,70" />
<path stroke="#000000" stroke-width="2" d="M 797.3,70 797.5,70 797.5,70.2 797.3,70.2 797.3,70" />
<path stroke="#000000" stroke-width="2" d="M 827.5,70" />
<path stroke="#000000" stroke-width="2" d="M 827.5,30" />
<path stroke="#000000" stroke-width="2" d="M 827.5,30 827.7,30 828.1,30 828.8,30 829.6,30.1 830.7,30.2 831.9,30.3 833.2,30.4 834.6,30.6 836,30.9 837.5,31.2 839,31.7 840.5,32.2 841.9,32.7 843.2,33.4 844.4,34.2 845.5,35.1 846.3,36.1 847,37.3 847.4,38.6 847.5,40" />
<path stroke="#000000" stroke-width="2" d="M 847.5,40 849.5,42.1 850.8,44.1 851.6,45.7 851.9,47.2 851.8,48.4 851.3,49.4 850.6,50.2 849.7,50.8 848.7,51.1 847.5,51.2 846.4,51.1 845.4,50.8 844.5,50.2 843.8,49.5 843.3,48.4 843.2,47.2 843.5,45.7 844.3,44.1 845.6,42.1 847.5,40" />
<path stroke="#000000" stroke-width="2" d="M 847.5,40 847.5,39.9 847.6,39.7 847.6,39.4 847.7,39 847.9,38.4 848.1,37.8 848.4,37.2 848.8,36.5 849.4,35.7 850,35 850.9,34.3 851.9,33.5 853,32.8 854.4,32.2 856,31.6 857.8,31 859.8,30.6 862.1,30.3 864.7,30.1 867.5,30" />
<path stroke="#000000" stroke-width="2" d="M 867.5,30 869.6,29.9 871.2,29.6 872.4,29.1 873.3,28.6 873.9,27.9 874.2,27.2 874.2,26.4 874,25.7 873.7,25 873.2,24.4 872.6,23.9 871.9,23.5 871.1,23.3 870.4,23.4 869.7,23.7 869,24.2 868.4,25.1 867.9,26.4 867.6,28 867.5,30 867.5,45" />
<path stroke="#000000" stroke-width="2" d="M 867.5,45 865.5,44.9 863.9,44.6 862.7,44.1 861.8,43.6 861.2,42.9 860.9,42.2 860.9,41.4 861.1,40.7 861.4,40 861.9,39.4 862.5,38.9 863.2,38.5 864,38.3 864.7,38.4 865.4,38.7 866.1,39.2 866.7,40.1 867.1,41.4 867.4,43 867.5,45 867.5,49" />
<path stroke="#000000" stroke-width="2" d="M 867.5,49 867.2,49.9 866.9,50.7 866.5,51.4 866.1,52.1 865.7,52.8 865.3,53.4 864.8,53.9 864.3,54.4 863.8,54.9 863.3,55.2 862.8,55.6 862.2,55.9 861.7,56.2 861.1,56.4 860.5,56.6 859.9,56.7 859.3,56.9 858.7,56.9 858.1,57 857.5,57" />
<path stroke="#000000" stroke-width="2" d="M 904.2,70" />
<path stroke="#000000" stroke-width="2" d="M 904.2,70 904.4,70 904.4,70.2 904.2,70.2 904.2,70" />
<path stroke="#000000" stroke-width="2" d="M 911.1,70" />
<path stroke="#000000" stroke-width="2" d="M 911.1,30 926.4,67" />
<path stroke="#000000" stroke-width="2" d="M 933,70" />
<path stroke="#000000" stroke-width="2" d="M 943,20 943,40 933,40" />
<path stroke="#000000" stroke-width="2" d="M 949.7,70" />
<path stroke="#000000" stroke-width="2" d="M 949.7,46 949.7,44.6 949.8,43.2 950.1,41.8 950.4,40.5 950.9,39.2 951.5,37.9 952.2,36.7 953,35.6 953.9,34.5 954.9,33.5 955.9,32.6 957.1,31.8 958.3,31.1 959.6,30.5 960.9,30 962.2,29.7 963.6,29.4 965,29.3 966.4,29.3 967.8,29.4 969.2,29.7 970.5,30 971.8,30.5 973.1,31.1 974.3,31.8 975.4,32.6 976.5,33.5 977.5,34.5 978.4,35.6 979.2,36.7 979.9,37.9 980.5,39.2 980.9,40.5 981.3,41.8 981.6,43.2 981.7,44.6" />
<path stroke="#000000" stroke-width="2" d="M 1011.7,70" />
<path stroke="#000000" stroke-width="2" d="M 1016.7,30" />
<path stroke="#000000" stroke-width="2" d="M 1016.7,30 1015.2,30.1 1014,30.6 1012.8,31.2 1011.9,32.1 1011,33.1 1010.4,34.3 1009.8,35.6 1009.5,37 1009.2,38.5 1009.2,40 1009.2,41.5 1009.5,43 1009.8,44.4 1010.4,45.7 1011,46.9 1011.9,47.9 1012.8,48.8 1014,49.4 1015.2,49.9 1016.7,50 1021.7,50 1021.7,70" />
<path stroke="#000000" stroke-width="2" d="M 1051.7,70" />
</svg>