<svg xmlns="http://www.w3.org/2000/svg" width="1454.1639400770362" height="95.34314575050762" style="fill:none; stroke-linecap:round;">
    <rect width="100%" height="100%" fill="#FFFFFF" />
<path stroke="#000000" stroke-width="2" d="M 550,75" />
<path stroke="#000000" stroke-width="2" d="M 20,30 20,50 30,50" />
<path stroke="#000000" stroke-width="2" d="M 30,50 31.4,50.1 32.7,50.6 33.8,51.2 34.8,52.1 35.6,53.1 36.3,54.3 36.8,55.6 37.2,57 37.4,58.5 37.5,60 37.4,61.5 37.2,63 36.8,64.4 36.3,65.7 35.6,66.9 34.8,67.9 33.8,68.8 32.7,69.4 31.4,69.9 30,70" />
<path stroke="#000000" stroke-width="2" d="M 67.5,70" />
<path stroke="#000000" stroke-width="2" d="M 67.5,30 67.5,31.4 67.6,32.8 67.9,34.2 68.2,35.5 68.7,36.8 69.3,38.1 70,39.3 70.8,40.4 71.7,41.5 72.7,42.5 73.7,43.4 74.9,44.2 76.1,44.9 77.4,45.5 78.7,46 80,46.3 81.4,46.6 82.8,46.7 84.2,46.7 85.6,46.6 86.9,46.3 88.3,46 89.6,45.5 90.9,44.9 92.1,44.2 93.2,43.4 94.3,42.5 95.3,41.5 96.2,40.4 97,39.3 97.7,38.1 98.3,36.8 98.7,35.5 99.1,34.2 99.3,32.8 99.5,31.4" />
<path stroke="#000000" stroke-width="2" d="M 106.1,70" />
<path stroke="#000000" stroke-width="2" d="M 106.1,70 106.1,68.6 106.3,67.2 106.5,65.8 106.9,64.5 107.3,63.2 107.9,61.9 108.6,60.7 109.4,59.6 110.3,58.5 111.3,57.5 112.4,56.6 113.5,55.8 114.7,55.1 116,54.5 117.3,54 118.7,53.7 120,53.4 121.4,53.3 122.8,53.3 124.2,53.4 125.6,53.7 126.9,54 128.2,54.5 129.5,55.1 130.7,55.8 131.9,56.6 132.9,57.5 133.9,58.5 134.8,59.6 135.6,60.7 136.3,61.9 136.9,63.2 137.4,64.5 137.7,65.8 138,67.2 138.1,68.6" />
<path stroke="#000000" stroke-width="2" d="M 168.1,70" />
<path stroke="#000000" stroke-width="2" d="M 188.1,30 172.8,67" />
<path stroke="#000000" stroke-width="2" d="M 194.8,70" />
<path stroke="#000000" stroke-width="2" d="M 200.8,50" />
<path stroke="#000000" stroke-width="2" d="M 200.8,50 200.7,52 200.4,53.6 199.9,54.9 199.3,55.8 198.7,56.3 197.9,56.6 197.2,56.7 196.5,56.5 195.8,56.1 195.1,55.6 194.6,55 194.3,54.3 194.1,53.6 194.2,52.8 194.4,52.1 195,51.4 195.9,50.9 197.1,50.4 198.7,50.1 200.8,50 204.8,50" />
<path stroke="#000000" stroke-width="2" d="M 204.8,50 205.6,50.3 206.5,50.7 207.2,51 207.9,51.4 208.6,51.8 209.1,52.3 209.7,52.7 210.2,53.2 210.6,53.7 211,54.2 211.4,54.8 211.7,55.3 212,55.9 212.2,56.5 212.4,57 212.5,57.6 212.6,58.2 212.7,58.8 212.8,59.4 212.8,60" />
<path stroke="#000000" stroke-width="2" d="M 219.4,70" />
<path stroke="#000000" stroke-width="2" d="M 219.4,20 224.4,20 224.4,40" />
<path stroke="#000000" stroke-width="2" d="M 231.1,70" />
<path stroke="#000000" stroke-width="2" d="M 231.1,25" />
<path stroke="#000000" stroke-width="2" d="M 231.1,25 233.1,24.9 234.8,24.6 236,24.1 236.9,23.6 237.4,22.9 237.7,22.2 237.8,21.4 237.6,20.7 237.2,20 236.7,19.4 236.1,18.9 235.4,18.5 234.7,18.3 233.9,18.4 233.2,18.7 232.5,19.2 232,20.1 231.5,21.4 231.2,23 231.1,25 231.1,40" />
<path stroke="#000000" stroke-width="2" d="M 267.8,70" />
<path stroke="#000000" stroke-width="2" d="M 287.8,70 289.5,70 291.2,69.8 293,69.5 294.6,69.1 296.3,68.5 297.9,67.8 299.4,66.9 300.8,65.9 302.1,64.8 303.4,63.5 304.5,62.2 305.5,60.8 306.4,59.3 307.1,57.7 307.7,56 308.2,54.3 308.5,52.6 308.6,50.9 308.6,49.1 308.5,47.4 308.2,45.7 307.7,44 307.1,42.4 306.4,40.8 305.5,39.3 304.5,37.8 303.4,36.5 302.1,35.3 300.8,34.2 299.4,33.2 297.9,32.3 296.3,31.5 294.6,30.9 293,30.5 291.2,30.2 289.5,30 287.8,30 286,30.2 284.3,30.5 282.6,30.9 281,31.5 279.4,32.3 277.9,33.2 276.5,34.2 275.1,35.3 273.9,36.5 272.8,37.8 271.8,39.3 270.9,40.8 270.2,42.4 269.6,44 269.1,45.7 268.8,47.4 268.7,49.1 268.7,50.9 268.8,52.6 269.1,54.3 269.6,56 270.2,57.7 270.9,59.3 271.8,60.8 272.8,62.2 273.9,63.5 275.1,64.8 276.5,65.9 277.9,66.9 279.4,67.8 281,68.5 282.6,69.1 284.3,69.5 286,69.8 287.8,70" />
<path stroke="#000000" stroke-width="2" d="M 315.3,70" />
<path stroke="#000000" stroke-width="2" d="M 315.3,40" />
<path stroke="#000000" stroke-width="2" d="M 315.3,40 319.3,39.8 322.6,39.2 325,38.3 326.8,37.1 327.9,35.8 328.5,34.3 328.6,32.8 328.2,31.4 327.5,30 326.5,28.8 325.3,27.7 323.9,27 322.4,26.7 321,26.8 319.5,27.3 318.2,28.5 317,30.2 316.1,32.7 315.5,35.9 315.3,40 315.3,70" />
<path stroke="#000000" stroke-width="2" d="M 358.6,70" />
<path stroke="#000000" stroke-width="2" d="M 358.6,30 358.6,70" />
<path stroke="#000000" stroke-width="2" d="M 365.3,70" />
<path stroke="#000000" stroke-width="2" d="M 365.3,40" />
<path stroke="#000000" stroke-width="2" d="M 365.3,40 369.3,39.8 372.5,39.2 375,38.3 376.8,37.1 377.9,35.8 378.5,34.3 378.6,32.8 378.2,31.4 377.5,30 376.5,28.8 375.3,27.7 373.9,27 372.4,26.7 370.9,26.8 369.5,27.3 368.1,28.5 367,30.2 366.1,32.7 365.5,35.9 365.3,40 365.3,70" />
<path stroke="#000000" stroke-width="2" d="M 385.2,70" />
<path stroke="#000000" stroke-width="2" d="M 397.2,26" />
<path stroke="#000000" stroke-width="2" d="M 397.2,26 395.2,25.9 393.6,25.6 392.4,25.1 391.5,24.6 390.9,23.9 390.6,23.2 390.6,22.4 390.8,21.7 391.1,21 391.6,20.4 392.2,19.9 392.9,19.5 393.6,19.3 394.4,19.4 395.1,19.7 395.8,20.2 396.4,21.1 396.8,22.4 397.1,24 397.2,26 397.2,30" />
<path stroke="#000000" stroke-width="2" d="M 397.2,30 396.9,30.9 396.6,31.7 396.2,32.4 395.8,33.1 395.4,33.8 394.9,34.4 394.5,34.9 394,35.4 393.5,35.9 393,36.2 392.4,36.6 391.9,36.9 391.3,37.2 390.8,37.4 390.2,37.6 389.6,37.7 389,37.9 388.4,37.9 387.8,38 387.2,38" />
<path stroke="#000000" stroke-width="2" d="M 427.2,70" />
<path stroke="#000000" stroke-width="2" d="M 427.2,30 427.2,70 447.2,70" />
<path stroke="#000000" stroke-width="2" d="M 477.2,70" />
<path stroke="#000000" stroke-width="2" d="M 477.2,30" />
<path stroke="#000000" stroke-width="2" d="M 477.2,30 480.1,30.3 482.6,31.1 484.9,32.4 486.8,34.2 488.5,36.2 489.8,38.6 490.9,41.3 491.6,44.1 492.1,47 492.2,50 492.1,53 491.6,55.9 490.9,58.7 489.8,61.4 488.5,63.8 486.8,65.8 484.9,67.6 482.6,68.9 480.1,69.7 477.2,70" />
<path stroke="#000000" stroke-width="2" d="M 498.9,70" />
<path stroke="#000000" stroke-width="2" d="M 504.9,32" />
<path stroke="#000000" stroke-width="2" d="M 504.9,32 504.8,30 504.5,28.4 504,27.1 503.5,26.2 502.8,25.7 502.1,25.4 501.3,25.3 500.6,25.5 499.9,25.9 499.3,26.4 498.8,27 498.4,27.7 498.2,28.4 498.3,29.2 498.6,29.9 499.1,30.6 500,31.1 501.3,31.6 502.9,31.9 504.9,32 508.9,32" />
<path stroke="#000000" stroke-width="2" d="M 508.9,32 509.8,31.7 510.6,31.3 511.3,31 512,30.6 512.7,30.2 513.3,29.7 513.8,29.3 514.3,28.8 514.7,28.3 515.1,27.8 515.5,27.2 515.8,26.7 516.1,26.1 516.3,25.5 516.5,25 516.6,24.4 516.8,23.8 516.8,23.2 516.9,22.6 516.9,22" />
<path stroke="#000000" stroke-width="2" d="M 523.6,70" />
<path stroke="#000000" stroke-width="2" d="M 523.6,30 523.8,30 523.8,30.2 523.6,30.2 523.6,30" />
<path stroke="#000000" stroke-width="2" d="M 553.8,70" />
<path stroke="#000000" stroke-width="2" d="M 553.8,50 561.4,31.5 569.1,50" />
<path stroke="#000000" stroke-width="2" d="M 569.1,50 569,52 568.7,53.6 568.2,54.9 567.6,55.8 567,56.3 566.2,56.6 565.5,56.7 564.8,56.5 564.1,56.1 563.4,55.6 562.9,55 562.6,54.3 562.4,53.6 562.5,52.8 562.7,52.1 563.3,51.4 564.2,50.9 565.4,50.4 567,50.1 569.1,50 579.1,50" />
<path stroke="#000000" stroke-width="2" d="M 585.7,70" />
<path stroke="#000000" stroke-width="2" d="M 585.7,50 585.7,50.7 585.8,51.4 585.9,52.1 586.1,52.8 586.3,53.4 586.6,54 587,54.6 587.4,55.2 587.8,55.8 588.3,56.2 588.9,56.7 589.4,57.1 590,57.4 590.7,57.7 591.3,58 592,58.2 592.7,58.3 593.4,58.3 594.1,58.3 594.8,58.3 595.5,58.2 596.1,58 596.8,57.7 597.4,57.4 598,57.1 598.6,56.7 599.1,56.2 599.6,55.8 600.1,55.2 600.5,54.6 600.8,54 601.1,53.4 601.4,52.8 601.5,52.1 601.7,51.4 601.7,50.7" />
<path stroke="#000000" stroke-width="2" d="M 608.4,70" />
<path stroke="#000000" stroke-width="2" d="M 618.4,50 618.4,70 608.4,70" />
<path stroke="#000000" stroke-width="2" d="M 625.1,70" />
<path stroke="#000000" stroke-width="2" d="M 625.1,30 665.1,30 625.5,69.6 665.5,69.6" />
<path stroke="#000000" stroke-width="2" d="M 695.5,70" />
<path stroke="#000000" stroke-width="2" d="M 695.5,30 705.5,30 705.5,70" />
<path stroke="#000000" stroke-width="2" d="M 712.1,70" />
<path stroke="#000000" stroke-width="2" d="M 712.1,50 712.1,70 712.1,64 712.1,63.1 712.2,62.3 712.4,61.4 712.6,60.6 712.9,59.7 713.2,58.9 713.7,58.2 714.2,57.5 714.7,56.8 715.4,56.2 716,55.6 716.7,55.1 717.5,54.7 718.3,54.3 719.1,54 720,53.8 720.8,53.6 721.7,53.6" />
<path stroke="#000000" stroke-width="2" d="M 751.7,70" />
<path stroke="#000000" stroke-width="2" d="M 751.7,70 751.9,70 751.9,70.2 751.7,70.2 751.7,70" />
<path stroke="#000000" stroke-width="2" d="M 758.5,70" />
<path stroke="#000000" stroke-width="2" d="M 758.5,30" />
<path stroke="#000000" stroke-width="2" d="M 758.5,30 761.4,30.3 763.9,31.1 766.2,32.4 768.1,34.2 769.8,36.2 771.1,38.6 772.2,41.3 772.9,44.1 773.4,47 773.5,50 773.4,53 772.9,55.9 772.2,58.7 771.1,61.4 769.8,63.8 768.1,65.8 766.2,67.6 763.9,68.9 761.4,69.7 758.5,70 759.8,68.8 761.1,67.6 762.5,66.6 764.1,65.8 765.6,65 767.3,64.4 769,64 770.7,63.7 772.4,63.5 774.2,63.5 775.9,63.7 777.6,64 779.3,64.4 780.9,65 782.5,65.8" />
<path stroke="#000000" stroke-width="2" d="M 789.2,70" />
<path stroke="#000000" stroke-width="2" d="M 797.2,50" />
<path stroke="#000000" stroke-width="2" d="M 797.2,50 797.1,52 796.8,53.6 796.3,54.9 795.8,55.8 795.1,56.3 794.4,56.6 793.6,56.7 792.9,56.5 792.2,56.1 791.6,55.6 791.1,55 790.7,54.3 790.5,53.6 790.6,52.8 790.9,52.1 791.4,51.4 792.3,50.9 793.5,50.4 795.2,50.1 797.2,50 807.2,50" />
<path stroke="#000000" stroke-width="2" d="M 837.2,70" />
<path stroke="#000000" stroke-width="2" d="M 837.2,30 877.2,30" />
<path stroke="#000000" stroke-width="2" d="M 907.2,70" />
<path stroke="#000000" stroke-width="2" d="M 907.2,30 907.2,70 907.2,58 907.2,56.3 907.3,54.5 907.6,52.8 908.1,51.1 908.7,49.5 909.4,47.9 910.3,46.4 911.3,45 912.4,43.6 913.7,42.4 915,41.3 916.4,40.3 917.9,39.4 919.5,38.7 921.2,38.1 922.8,37.6 924.6,37.3 926.3,37.1" />
<path stroke="#000000" stroke-width="2" d="M 933,70" />
<path stroke="#000000" stroke-width="2" d="M 943,30 935.3,48.5" />
<path stroke="#000000" stroke-width="2" d="M 935.3,48.5 933.3,48.4 931.7,48.1 930.4,47.6 929.6,47 929,46.4 928.7,45.6 928.7,44.9 928.8,44.2 929.2,43.5 929.7,42.9 930.3,42.4 931,42 931.7,41.8 932.5,41.9 933.2,42.1 933.9,42.7 934.5,43.6 934.9,44.8 935.2,46.4 935.3,48.5 935.3,52.5" />
<path stroke="#000000" stroke-width="2" d="M 935.3,52.5 935,53.3 934.7,54.2 934.3,54.9 933.9,55.6 933.5,56.3 933,56.9 932.6,57.4 932.1,57.9 931.6,58.3 931.1,58.7 930.5,59.1 930,59.4 929.4,59.7 928.9,59.9 928.3,60.1 927.7,60.2 927.1,60.3 926.5,60.4 925.9,60.5 925.3,60.5" />
<path stroke="#000000" stroke-width="2" d="M 973,70" />
<path stroke="#000000" stroke-width="2" d="M 989,40" />
<path stroke="#000000" stroke-width="2" d="M 989,40 984.9,39.8 981.7,39.2 979.2,38.3 977.4,37.1 976.3,35.8 975.7,34.3 975.7,32.8 976,31.4 976.7,30 977.7,28.8 978.9,27.7 980.3,27 981.8,26.7 983.3,26.8 984.7,27.3 986.1,28.5 987.2,30.2 988.2,32.7 988.8,35.9 989,40 989,70" />
<path stroke="#000000" stroke-width="2" d="M 995.6,70" />
<path stroke="#000000" stroke-width="2" d="M 995.6,20 995.6,20.7 995.7,21.4 995.8,22.1 996,22.8 996.2,23.4 996.5,24 996.9,24.6 997.3,25.2 997.7,25.8 998.2,26.2 998.8,26.7 999.3,27.1 999.9,27.4 1000.6,27.7 1001.2,28 1001.9,28.2 1002.6,28.3 1003.3,28.3 1004,28.3 1004.7,28.3 1005.4,28.2 1006,28 1006.7,27.7 1007.3,27.4 1007.9,27.1 1008.5,26.7 1009,26.2 1009.5,25.8 1010,25.2 1010.4,24.6 1010.7,24 1011,23.4 1011.3,22.8 1011.4,22.1 1011.6,21.4 1011.6,20.7" />
<path stroke="#000000" stroke-width="2" d="M 1018.3,70" />
<path stroke="#000000" stroke-width="2" d="M 1038.3,30 1023,67" />
<path stroke="#000000" stroke-width="2" d="M 1045,70" />
<path stroke="#000000" stroke-width="2" d="M 1045,30 1045.2,30 1045.2,30.2 1045,30.2 1045,30" />
<path stroke="#000000" stroke-width="2" d="M 1075.2,70" />
<path stroke="#000000" stroke-width="2" d="M 1095.2,30 1079.8,67" />
<path stroke="#000000" stroke-width="2" d="M 1101.8,70" />
<path stroke="#000000" stroke-width="2" d="M 1101.8,50 1101.8,70 1107.5,64.3" />
<path stroke="#000000" stroke-width="2" d="M 1107.5,60.3" />
<path stroke="#000000" stroke-width="2" d="M 1091.5,60.3 1113.5,60.3" />
<path stroke="#000000" stroke-width="2" d="M 1113.5,60.3 1115.5,60.2 1117.1,59.9 1118.4,59.5 1119.2,58.9 1119.8,58.2 1120.1,57.5 1120.1,56.8 1120,56 1119.6,55.3 1119.1,54.7 1118.5,54.2 1117.8,53.9 1117.1,53.7 1116.3,53.7 1115.6,54 1114.9,54.6 1114.3,55.5 1113.9,56.7 1113.6,58.3 1113.5,60.3 1113.5,75.3" />
<path stroke="#000000" stroke-width="2" d="M 1150.1,70" />
<path stroke="#000000" stroke-width="2" d="M 1150.1,70 1150.3,70 1150.3,70.2 1150.1,70.2 1150.1,70" />
<path stroke="#000000" stroke-width="2" d="M 1157,70" />
<path stroke="#000000" stroke-width="2" d="M 1157,30 1177,30" />
<path stroke="#000000" stroke-width="2" d="M 1177,30 1178.4,30.1 1179.7,30.6 1180.8,31.2 1181.8,32.1 1182.6,33.1 1183.3,34.3 1183.8,35.6 1184.2,37 1184.4,38.5 1184.5,40 1184.4,41.5 1184.2,43 1183.8,44.4 1183.3,45.7 1182.6,46.9 1181.8,47.9 1180.8,48.8 1179.7,49.4 1178.4,49.9 1177,50" />
<path stroke="#000000" stroke-width="2" d="M 1214.5,70" />
<path stroke="#000000" stroke-width="2" d="M 1214.5,70 1214.7,70 1214.7,70.2 1214.5,70.2 1214.5,70" />
<path stroke="#000000" stroke-width="2" d="M 1244.7,70" />
<path stroke="#000000" stroke-width="2" d="M 1244.7,30 1244.7,70 1264.7,70" />
<path stroke="#000000" stroke-width="2" d="M 1294.7,70" />
<path stroke="#000000" stroke-width="2" d="M 1310.7,30 1290.9,49.8 1310.7,69.6" />
<path stroke="#000000" stroke-width="2" d="M 1317.4,70" />
<path stroke="#000000" stroke-width="2" d="M 1317.4,20 1325,38.5 1332.7,20" />
<path stroke="#000000" stroke-width="2" d="M 1339.3,70" />
<path stroke="#000000" stroke-width="2" d="M 1339.3,20 1339.5,20 1339.5,20.2 1339.3,20.2 1339.3,20" />
<path stroke="#000000" stroke-width="2" d="M 1369.5,70" />
<path stroke="#000000" stroke-width="2" d="M 1389.5,30 1374.2,67" />
<path stroke="#000000" stroke-width="2" d="M 1396.2,70" />
<path stroke="#000000" stroke-width="2" d="M 1396.2,50 1396.2,50.7 1396.3,51.4 1396.4,52.1 1396.6,52.8 1396.8,53.4 1397.1,54 1397.5,54.6 1397.9,55.2 1398.3,55.8 1398.8,56.2 1399.3,56.7 1399.9,57.1 1400.5,57.4 1401.1,57.7 1401.8,58 1402.5,58.2 1403.2,58.3 1403.8,58.3 1404.5,58.3 1405.2,58.3 1405.9,58.2 1406.6,58 1407.3,57.7 1407.9,57.4 1408.5,57.1 1409.1,56.7 1409.6,56.2 1410.1,55.8 1410.5,55.2 1410.9,54.6 1411.3,54 1411.6,53.4 1411.8,52.8 1412,52.1 1412.1,51.4 1412.2,50.7" />
<path stroke="#000000" stroke-width="2" d="M 1418.9,70" />
<path stroke="#000000" stroke-width="2" d="M 1418.9,20 1426.5,38.5 1434.2,20" />
<path stroke="#000000" stroke-width="2" d="M 1464.2,70" />
</svg>