<svg xmlns="http://www.w3.org/2000/svg" width="1193.862179212727" height="110.0" style="fill:none; stroke-linecap:round;">
    <rect width="100%" height="100%" fill="#FFFFFF" />
<path stroke="#000000" stroke-width="2" d="M 550,75" />
<path stroke="#000000" stroke-width="2" d="M 20,30 20,50 25.7,44.3 15.8,54.2 25.7,64.1" />
<path stroke="#000000" stroke-width="2" d="M 32.3,70" />
<path stroke="#000000" stroke-width="2" d="M 32.3,20 52.3,20" />
<path stroke="#000000" stroke-width="2" d="M 82.3,70" />
<path stroke="#000000" stroke-width="2" d="M 92.3,30 84.7,48.5 74.8,58.4 84.7,68.3" />
<path stroke="#000000" stroke-width="2" d="M 99,70" />
<path stroke="#000000" stroke-width="2" d="M 101,20 109.5,28.5" />
<path stroke="#000000" stroke-width="2" d="M 118,20 98.2,39.8 99,39.8 99.9,39.9 100.8,40 101.6,40.3 102.4,40.6 103.2,40.9 104,41.4 104.7,41.9 105.4,42.4 106,43 106.5,43.7 107,44.4 107.5,45.2 107.8,46 108.1,46.8 108.4,47.6 108.5,48.5 108.6,49.4 108.6,50.2 108.5,51.1 108.4,52 108.1,52.8 107.8,53.6 107.5,54.4 107,55.2 106.5,55.9 106,56.5 105.4,57.2 104.7,57.7 104,58.2 103.2,58.7 102.4,59 101.6,59.3 100.8,59.6 99.9,59.7 99,59.8" />
<path stroke="#000000" stroke-width="2" d="M 148,70" />
<path stroke="#000000" stroke-width="2" d="M 148,35" />
<path stroke="#000000" stroke-width="2" d="M 148,35 150,34.9 151.6,34.6 152.8,34.1 153.7,33.6 154.3,32.9 154.6,32.2 154.6,31.4 154.4,30.7 154.1,30 153.6,29.4 153,28.9 152.3,28.5 151.5,28.3 150.8,28.4 150.1,28.7 149.4,29.2 148.8,30.1 148.4,31.4 148.1,33 148,35 148,50 140.3,68.5" />
<path stroke="#000000" stroke-width="2" d="M 161.3,70" />
<path stroke="#000000" stroke-width="2" d="M 169.3,50" />
<path stroke="#000000" stroke-width="2" d="M 169.3,50 169.2,52 168.9,53.6 168.4,54.9 167.8,55.8 167.2,56.3 166.4,56.6 165.7,56.7 165,56.5 164.3,56.1 163.7,55.6 163.2,55 162.8,54.3 162.6,53.6 162.7,52.8 163,52.1 163.5,51.4 164.4,50.9 165.6,50.4 167.3,50.1 169.3,50 179.3,50" />
<path stroke="#000000" stroke-width="2" d="M 179.3,50 179.2,52 178.9,53.6 178.4,54.9 177.8,55.8 177.2,56.3 176.4,56.6 175.7,56.7 175,56.5 174.3,56.1 173.7,55.6 173.2,55 172.8,54.3 172.6,53.6 172.7,52.8 173,52.1 173.5,51.4 174.4,50.9 175.6,50.4 177.3,50.1 179.3,50 189.3,50" />
<path stroke="#000000" stroke-width="2" d="M 195.9,70" />
<path stroke="#000000" stroke-width="2" d="M 195.9,20 196.8,20 197.7,20.1 198.5,20.2 199.4,20.5 200.2,20.8 201,21.1 201.8,21.6 202.5,22.1 203.1,22.6 203.8,23.2 204.3,23.9 204.8,24.6 205.3,25.4 205.6,26.2 205.9,27 206.1,27.8 206.3,28.7 206.4,29.6 206.4,30.4 206.3,31.3 206.1,32.2 205.9,33 205.6,33.8 205.3,34.6 204.8,35.4 204.3,36.1 203.8,36.7 203.1,37.4 202.5,37.9 201.8,38.4 201,38.9 200.2,39.2 199.4,39.5 198.5,39.8 197.7,39.9 196.8,40" />
<path stroke="#000000" stroke-width="2" d="M 236.4,70" />
<path stroke="#000000" stroke-width="2" d="M 256.4,30 241.1,67" />
<path stroke="#000000" stroke-width="2" d="M 263,70" />
<path stroke="#000000" stroke-width="2" d="M 263,50 263.2,50 263.2,50.2 263,50.2 263,50" />
<path stroke="#000000" stroke-width="2" d="M 293.2,70" />
<path stroke="#000000" stroke-width="2" d="M 293.2,30 293.2,70 293.2,58 293.2,56.3 293.4,54.5 293.7,52.8 294.1,51.1 294.7,49.5 295.5,47.9 296.4,46.4 297.4,45 298.5,43.6 299.7,42.4 301,41.3 302.5,40.3 304,39.4 305.6,38.7 307.2,38.1 308.9,37.6 310.6,37.3 312.4,37.1" />
<path stroke="#000000" stroke-width="2" d="M 319,70" />
<path stroke="#000000" stroke-width="2" d="M 319,25" />
<path stroke="#000000" stroke-width="2" d="M 319,25 321,24.9 322.7,24.6 323.9,24.1 324.8,23.6 325.3,22.9 325.6,22.2 325.7,21.4 325.5,20.7 325.1,20 324.6,19.4 324,18.9 323.3,18.5 322.6,18.3 321.9,18.4 321.1,18.7 320.5,19.2 319.9,20.1 319.4,21.4 319.1,23 319,25 319,40 311.4,58.5" />
<path stroke="#000000" stroke-width="2" d="M 355.7,70" />
<path stroke="#000000" stroke-width="2" d="M 355.7,70" />
<path stroke="#000000" stroke-width="2" d="M 355.7,70 356.8,70 357.8,70.2 358.6,70.4 359.3,70.7 359.9,71 360.3,71.5 360.7,71.9 360.9,72.5 360.9,73.1 360.9,73.8 360.8,74.4 360.6,75.2 360.2,76 359.8,76.8 359.3,77.6 358.7,78.4 358.1,79.3 357.3,80.2 356.5,81.1 355.7,82" />
<path stroke="#000000" stroke-width="2" d="M 390.9,70" />
<path stroke="#000000" stroke-width="2" d="M 390.9,30 410.9,30 411.8,30 412.7,30.1 413.5,30.2 414.4,30.5 415.2,30.8 416,31.1 416.8,31.6 417.5,32.1 418.1,32.6 418.8,33.2 419.3,33.9 419.8,34.6 420.2,35.4 420.6,36.2 420.9,37 421.1,37.8 421.3,38.7 421.4,39.6 421.4,40.4 421.3,41.3 421.1,42.2 420.9,43 420.6,43.8 420.2,44.6 419.8,45.4 419.3,46.1 418.8,46.7 418.1,47.4 417.5,47.9 416.8,48.4 416,48.9 415.2,49.2 414.4,49.5 413.5,49.8 412.7,49.9 411.8,50" />
<path stroke="#000000" stroke-width="2" d="M 451.4,70" />
<path stroke="#000000" stroke-width="2" d="M 451.4,30 491.4,30" />
<path stroke="#000000" stroke-width="2" d="M 498,70" />
<path stroke="#000000" stroke-width="2" d="M 498,50 498,70 503.7,64.3" />
<path stroke="#000000" stroke-width="2" d="M 533.7,70" />
<path stroke="#000000" stroke-width="2" d="M 533.7,30 533.7,31.4 533.8,32.8 534.1,34.2 534.4,35.5 534.9,36.8 535.5,38.1 536.2,39.3 537,40.4 537.9,41.5 538.9,42.5 539.9,43.4 541.1,44.2 542.3,44.9 543.6,45.5 544.9,46 546.2,46.3 547.6,46.6 549,46.7 550.4,46.7 551.8,46.6 553.1,46.3 554.5,46 555.8,45.5 557.1,44.9 558.3,44.2 559.4,43.4 560.5,42.5 561.5,41.5 562.4,40.4 563.2,39.3 563.9,38.1 564.5,36.8 564.9,35.5 565.3,34.2 565.5,32.8 565.7,31.4" />
<path stroke="#000000" stroke-width="2" d="M 572.3,70" />
<path stroke="#000000" stroke-width="2" d="M 574.3,20 582.8,28.5" />
<path stroke="#000000" stroke-width="2" d="M 591.3,20 571.5,39.8" />
<path stroke="#000000" stroke-width="2" d="M 621.3,70" />
<path stroke="#000000" stroke-width="2" d="M 621.3,30 621.3,70 632.6,58.7" />
<path stroke="#000000" stroke-width="2" d="M 639.3,70" />
<path stroke="#000000" stroke-width="2" d="M 659.3,70 661,70 662.8,69.8 664.5,69.5 666.2,69.1 667.8,68.5 669.4,67.8 670.9,66.9 672.3,65.9 673.7,64.8 674.9,63.5 676,62.2 677,60.8 677.9,59.3 678.6,57.7 679.2,56 679.7,54.3 680,52.6 680.1,50.9 680.1,49.1 680,47.4 679.7,45.7 679.2,44 678.6,42.4 677.9,40.8 677,39.3 676,37.8 674.9,36.5 673.7,35.3 672.3,34.2 670.9,33.2 669.4,32.3 667.8,31.5 666.2,30.9 664.5,30.5 662.8,30.2 661,30 659.3,30 657.5,30.2 655.8,30.5 654.1,30.9 652.5,31.5 650.9,32.3 649.4,33.2 648,34.2 646.6,35.3 645.4,36.5 644.3,37.8 643.3,39.3 642.4,40.8 641.7,42.4 641.1,44 640.6,45.7 640.3,47.4 640.2,49.1 640.2,50.9 640.3,52.6 640.6,54.3 641.1,56 641.7,57.7 642.4,59.3 643.3,60.8 644.3,62.2 645.4,63.5 646.6,64.8 648,65.9 649.4,66.9 650.9,67.8 652.5,68.5 654.1,69.1 655.8,69.5 657.5,69.8 659.3,70" />
<path stroke="#000000" stroke-width="2" d="M 710.1,70" />
<path stroke="#000000" stroke-width="2" d="M 726.1,30 706.3,49.8 726.1,69.6" />
<path stroke="#000000" stroke-width="2" d="M 732.8,70" />
<path stroke="#000000" stroke-width="2" d="M 732.8,20 732.8,40 732.8,34 732.8,33.1 732.9,32.3 733,31.4 733.3,30.6 733.6,29.7 733.9,28.9 734.4,28.2 734.9,27.5 735.4,26.8 736,26.2 736.7,25.6 737.4,25.1 738.2,24.7 739,24.3 739.8,24 740.6,23.8 741.5,23.6 742.4,23.6" />
<path stroke="#000000" stroke-width="2" d="M 772.4,70" />
<path stroke="#000000" stroke-width="2" d="M 788.4,30 768.6,49.8 788.4,69.6" />
<path stroke="#000000" stroke-width="2" d="M 795,70" />
<path stroke="#000000" stroke-width="2" d="M 795,40 802.7,21.5 810.3,40 811.2,40 812.1,40.1 812.9,40.2 813.8,40.5 814.6,40.8 815.4,41.1 816.1,41.6 816.9,42.1 817.5,42.6 818.1,43.2 818.7,43.9 819.2,44.6 819.6,45.4 820,46.2 820.3,47 820.5,47.8 820.7,48.7 820.8,49.6 820.8,50.4 820.7,51.3 820.5,52.2 820.3,53 820,53.8 819.6,54.6 819.2,55.4 818.7,56.1 818.1,56.7 817.5,57.4 816.9,57.9 816.1,58.4 815.4,58.9 814.6,59.2 813.8,59.5 812.9,59.8 812.1,59.9 811.2,60" />
<path stroke="#000000" stroke-width="2" d="M 850.8,70" />
<path stroke="#000000" stroke-width="2" d="M 850.8,30 870.8,30 871.6,30 872.5,30.1 873.4,30.2 874.2,30.5 875,30.8 875.8,31.1 876.6,31.6 877.3,32.1 877.9,32.6 878.6,33.2 879.1,33.9 879.6,34.6 880.1,35.4 880.4,36.2 880.7,37 881,37.8 881.1,38.7 881.2,39.6 881.2,40.4 881.1,41.3 881,42.2 880.7,43 880.4,43.8 880.1,44.6 879.6,45.4 879.1,46.1 878.6,46.7 877.9,47.4 877.3,47.9 876.6,48.4 875.8,48.9 875,49.2 874.2,49.5 873.4,49.8 872.5,49.9 871.6,50" />
<path stroke="#000000" stroke-width="2" d="M 911.2,70" />
<path stroke="#000000" stroke-width="2" d="M 921.2,30 920.3,30 919.4,30.1 918.6,30.2 917.7,30.5 916.9,30.8 916.1,31.1 915.4,31.6 914.7,32.1 914,32.6 913.4,33.2 912.8,33.9 912.3,34.6 911.9,35.4 911.5,36.2 911.2,37 911,37.8 910.8,38.7 910.8,39.6 910.8,40.4 910.8,41.3 911,42.2 911.2,43 911.5,43.8 911.9,44.6 912.3,45.4 912.8,46.1 913.4,46.7 914,47.4 914.7,47.9 915.4,48.4 916.1,48.9 916.9,49.2 917.7,49.5 918.6,49.8 919.4,49.9 920.3,50 940.3,50" />
<path stroke="#000000" stroke-width="2" d="M 947,70" />
<path stroke="#000000" stroke-width="2" d="M 947,20 947.2,20 947.2,20.2 947,20.2 947,20" />
<path stroke="#000000" stroke-width="2" d="M 977.2,70" />
<path stroke="#000000" stroke-width="2" d="M 977.2,30 987.2,30 987.2,70" />
<path stroke="#000000" stroke-width="2" d="M 993.8,70" />
<path stroke="#000000" stroke-width="2" d="M 993.8,50 993.8,70 993.8,64 993.8,63.1 993.9,62.3 994.1,61.4 994.3,60.6 994.6,59.7 995,58.9 995.4,58.2 995.9,57.5 996.5,56.8 997.1,56.2 997.7,55.6 998.5,55.1 999.2,54.7 1000,54.3 1000.8,54 1001.7,53.8 1002.5,53.6 1003.4,53.6" />
<path stroke="#000000" stroke-width="2" d="M 1010.1,70" />
<path stroke="#000000" stroke-width="2" d="M 1010.1,20 1010.1,20.7 1010.1,21.4 1010.2,22.1 1010.4,22.8 1010.7,23.4 1011,24 1011.3,24.6 1011.7,25.2 1012.2,25.8 1012.7,26.2 1013.2,26.7 1013.8,27.1 1014.4,27.4 1015,27.7 1015.7,28 1016.3,28.2 1017,28.3 1017.7,28.3 1018.4,28.3 1019.1,28.3 1019.8,28.2 1020.5,28 1021.1,27.7 1021.8,27.4 1022.4,27.1 1022.9,26.7 1023.5,26.2 1024,25.8 1024.4,25.2 1024.8,24.6 1025.2,24 1025.4,23.4 1025.7,22.8 1025.9,22.1 1026,21.4 1026,20.7" />
<path stroke="#000000" stroke-width="2" d="M 1032.7,70" />
<path stroke="#000000" stroke-width="2" d="M 1032.7,20 1032.7,24 1032.7,24.5 1032.8,25 1032.9,25.6 1033,26.1 1033.2,26.6 1033.4,27 1033.6,27.5 1033.9,27.9 1034.3,28.3 1034.7,28.7 1035.1,29 1035.5,29.3 1035.9,29.6 1036.4,29.8 1036.9,30 1037.4,30.1 1037.9,30.2 1038.4,30.3 1039,30.3 1039.5,30.2 1040,30.1 1040.5,30 1041,29.8 1041.5,29.6 1041.9,29.3 1042.4,29 1042.8,28.7 1043.1,28.3 1043.5,27.9 1043.8,27.5 1044,27 1044.3,26.6 1044.4,26.1 1044.6,25.6 1044.7,25 1044.7,24.5 1044.7,19.5 1044.7,39.5" />
<path stroke="#000000" stroke-width="2" d="M 1074.7,70" />
<path stroke="#000000" stroke-width="2" d="M 1074.7,50 1082.4,31.5 1090,50 1085,50 1085,70 1085,90 1085,84 1085,83.1 1085.1,82.3 1085.2,81.4 1085.5,80.6 1085.8,79.7 1086.1,78.9 1086.6,78.2 1087.1,77.5 1087.6,76.8 1088.2,76.2 1088.9,75.6 1089.6,75.1 1090.4,74.7 1091.2,74.3 1092,74 1092.8,73.8 1093.7,73.6 1094.6,73.6" />
<path stroke="#000000" stroke-width="2" d="M 1101.2,70" />
<path stroke="#000000" stroke-width="2" d="M 1101.2,55" />
<path stroke="#000000" stroke-width="2" d="M 1101.2,55 1103.3,54.9 1104.9,54.6 1106.1,54.1 1107,53.6 1107.6,52.9 1107.8,52.2 1107.9,51.4 1107.7,50.7 1107.4,50 1106.9,49.4 1106.2,48.9 1105.6,48.5 1104.8,48.3 1104.1,48.4 1103.3,48.7 1102.7,49.2 1102.1,50.1 1101.6,51.4 1101.3,53 1101.2,55 1101.2,70" />
<path stroke="#000000" stroke-width="2" d="M 1101.2,70 1103.3,69.9 1104.9,69.6 1106.1,69.1 1107,68.6 1107.6,67.9 1107.8,67.2 1107.9,66.4 1107.7,65.7 1107.4,65 1106.9,64.4 1106.2,63.9 1105.6,63.5 1104.8,63.3 1104.1,63.4 1103.3,63.7 1102.7,64.2 1102.1,65.1 1101.6,66.4 1101.3,68 1101.2,70 1101.2,85" />
<path stroke="#000000" stroke-width="2" d="M 1137.9,70" />
<path stroke="#000000" stroke-width="2" d="M 1153.9,30 1134.1,49.8 1153.9,69.6" />
<path stroke="#000000" stroke-width="2" d="M 1160.6,70" />
<path stroke="#000000" stroke-width="2" d="M 1160.6,40" />
<path stroke="#000000" stroke-width="2" d="M 1160.6,40 1164.6,39.8 1167.8,39.2 1170.3,38.3 1172.1,37.1 1173.2,35.8 1173.8,34.3 1173.9,32.8 1173.5,31.4 1172.8,30 1171.8,28.8 1170.6,27.7 1169.2,27 1167.7,26.7 1166.2,26.8 1164.8,27.3 1163.4,28.5 1162.3,30.2 1161.4,32.7 1160.8,35.9 1160.6,40 1160.6,70" />
<path stroke="#000000" stroke-width="2" d="M 1203.9,70" />
</svg>