<svg xmlns="http://www.w3.org/2000/svg" width="584.38069494811" height="90.0" style="fill:none; stroke-linecap:round;">
    <rect width="100%" height="100%" fill="#FFFFFF" />
<path stroke="#000000" stroke-width="2" d="M 550,75" />
<path stroke="#000000" stroke-width="2" d="M 20,40" />
<path stroke="#000000" stroke-width="2" d="M 20,40 24.1,39.8 27.3,39.2 29.8,38.3 31.5,37.1 32.7,35.8 33.2,34.3 33.3,32.8 33,31.4 32.3,30 31.2,28.8 30,27.7 28.6,27 27.2,26.7 25.7,26.8 24.2,27.3 22.9,28.5 21.7,30.2 20.8,32.7 20.2,35.9 20,40 20,70" />
<path stroke="#000000" stroke-width="2" d="M 40,70" />
<path stroke="#000000" stroke-width="2" d="M 50,50 50,70 40,70" />
<path stroke="#000000" stroke-width="2" d="M 56.6,70" />
<path stroke="#000000" stroke-width="2" d="M 56.6,25" />
<path stroke="#000000" stroke-width="2" d="M 56.6,25 58.7,24.9 60.3,24.6 61.5,24.1 62.4,23.6 63,22.9 63.3,22.2 63.3,21.4 63.1,20.7 62.8,20 62.3,19.4 61.7,18.9 61,18.5 60.2,18.3 59.5,18.4 58.8,18.7 58.1,19.2 57.5,20.1 57,21.4 56.7,23 56.6,25 56.6,40 49,58.5" />
<path stroke="#000000" stroke-width="2" d="M 70,70" />
<path stroke="#000000" stroke-width="2" d="M 70,30 85.3,67 100.6,30" />
<path stroke="#000000" stroke-width="2" d="M 130.6,70" />
<path stroke="#000000" stroke-width="2" d="M 130.6,30 150.6,30 151.5,30 152.3,30.1 153.2,30.2 154,30.5 154.8,30.8 155.6,31.1 156.4,31.6 157.1,32.1 157.8,32.6 158.4,33.2 158.9,33.9 159.4,34.6 159.9,35.4 160.3,36.2 160.6,37 160.8,37.8 160.9,38.7 161,39.6 161,40.4 160.9,41.3 160.8,42.2 160.6,43 160.3,43.8 159.9,44.6 159.4,45.4 158.9,46.1 158.4,46.7 157.8,47.4 157.1,47.9 156.4,48.4 155.6,48.9 154.8,49.2 154,49.5 153.2,49.8 152.3,49.9 151.5,50" />
<path stroke="#000000" stroke-width="2" d="M 191,70" />
<path stroke="#000000" stroke-width="2" d="M 191,30 191,70 202.3,58.7" />
<path stroke="#000000" stroke-width="2" d="M 209,70" />
<path stroke="#000000" stroke-width="2" d="M 219,20 211.3,38.5" />
<path stroke="#000000" stroke-width="2" d="M 249,70" />
<path stroke="#000000" stroke-width="2" d="M 259,30 251.3,48.5 241.4,58.4 251.3,68.3" />
<path stroke="#000000" stroke-width="2" d="M 265.7,70" />
<path stroke="#000000" stroke-width="2" d="M 265.7,30 265.9,30 265.9,30.2 265.7,30.2 265.7,30" />
<path stroke="#000000" stroke-width="2" d="M 295.9,70" />
<path stroke="#000000" stroke-width="2" d="M 295.9,50 295.9,49.3 295.9,48.6 296,47.9 296.2,47.2 296.5,46.6 296.7,46 297.1,45.4 297.5,44.8 297.9,44.2 298.4,43.8 299,43.3 299.5,42.9 300.1,42.6 300.8,42.3 301.4,42 302.1,41.8 302.8,41.7 303.5,41.7 304.2,41.7 304.9,41.7 305.6,41.8 306.2,42 306.9,42.3 307.5,42.6 308.1,42.9 308.7,43.3 309.2,43.8 309.7,44.2 310.2,44.8 310.6,45.4 310.9,46 311.2,46.6 311.5,47.2 311.7,47.9 311.8,48.6 311.8,49.3" />
<path stroke="#000000" stroke-width="2" d="M 311.8,45.3" />
<path stroke="#000000" stroke-width="2" d="M 305.8,45.3 315.8,45.3" />
<path stroke="#000000" stroke-width="2" d="M 315.8,45.3 317.9,45.2 319.5,44.9 320.7,44.4 321.6,43.9 322.2,43.2 322.5,42.5 322.5,41.7 322.3,41 322,40.3 321.5,39.7 320.8,39.2 320.2,38.8 319.4,38.6 318.7,38.7 317.9,39 317.3,39.5 316.7,40.4 316.2,41.7 315.9,43.3 315.8,45.3 315.8,60.3" />
<path stroke="#000000" stroke-width="2" d="M 329.2,70" />
<path stroke="#000000" stroke-width="2" d="M 329.2,30 329.2,31.4 329.3,32.8 329.5,34.2 329.9,35.5 330.4,36.8 330.9,38.1 331.6,39.3 332.4,40.4 333.3,41.5 334.3,42.5 335.4,43.4 336.5,44.2 337.8,44.9 339,45.5 340.3,46 341.7,46.3 343.1,46.6 344.4,46.7 345.8,46.7 347.2,46.6 348.6,46.3 350,46 351.3,45.5 352.5,44.9 353.7,44.2 354.9,43.4 356,42.5 356.9,41.5 357.8,40.4 358.6,39.3 359.3,38.1 359.9,36.8 360.4,35.5 360.8,34.2 361,32.8 361.1,31.4" />
<path stroke="#000000" stroke-width="2" d="M 391.1,70" />
<path stroke="#000000" stroke-width="2" d="M 391.1,30 391.1,50 401.1,50" />
<path stroke="#000000" stroke-width="2" d="M 401.1,50 403.2,49.9 404.8,49.6 406,49.1 406.9,48.6 407.5,47.9 407.7,47.2 407.8,46.4 407.6,45.7 407.3,45 406.8,44.4 406.1,43.9 405.4,43.5 404.7,43.3 404,43.4 403.2,43.7 402.6,44.2 402,45.1 401.5,46.4 401.2,48 401.1,50 401.1,65" />
<path stroke="#000000" stroke-width="2" d="M 437.8,70" />
<path stroke="#000000" stroke-width="2" d="M 437.8,30 453.1,67 468.4,30" />
<path stroke="#000000" stroke-width="2" d="M 475.1,70" />
<path stroke="#000000" stroke-width="2" d="M 495.1,30 479.8,67" />
<path stroke="#000000" stroke-width="2" d="M 501.7,70" />
<path stroke="#000000" stroke-width="2" d="M 501.7,20 501.7,20.7 501.8,21.4 501.9,22.1 502.1,22.8 502.3,23.4 502.6,24 503,24.6 503.4,25.2 503.8,25.8 504.3,26.2 504.9,26.7 505.4,27.1 506,27.4 506.7,27.7 507.3,28 508,28.2 508.7,28.3 509.4,28.3 510.1,28.3 510.8,28.3 511.5,28.2 512.1,28 512.8,27.7 513.4,27.4 514,27.1 514.6,26.7 515.1,26.2 515.6,25.8 516.1,25.2 516.5,24.6 516.8,24 517.1,23.4 517.4,22.8 517.5,22.1 517.7,21.4 517.7,20.7" />
<path stroke="#000000" stroke-width="2" d="M 547.7,70" />
<path stroke="#000000" stroke-width="2" d="M 547.7,30 547.7,70" />
<path stroke="#000000" stroke-width="2" d="M 554.4,70" />
<path stroke="#000000" stroke-width="2" d="M 564.4,50 556.7,68.5" />
<path stroke="#000000" stroke-width="2" d="M 594.4,70" />
</svg>