<svg xmlns="http://www.w3.org/2000/svg" width="1377.7373086629086" height="96.654375" style="fill:none; stroke-linecap:round;">
    <rect width="100%" height="100%" fill="#FFFFFF" />
<path stroke="#000000" stroke-width="2" d="M 550,75" />
<path stroke="#000000" stroke-width="2" d="M 20,70 20.2,70 20.2,70.2 20,70.2 20,70" />
<path stroke="#000000" stroke-width="2" d="M 26.9,70" />
<path stroke="#000000" stroke-width="2" d="M 46.9,70 48.6,70 50.3,69.8 52.1,69.5 53.8,69.1 55.4,68.5 57,67.8 58.5,66.9 59.9,65.9 61.3,64.8 62.5,63.5 63.6,62.2 64.6,60.8 65.5,59.3 66.2,57.7 66.8,56 67.3,54.3 67.6,52.6 67.7,50.9 67.7,49.1 67.6,47.4 67.3,45.7 66.8,44 66.2,42.4 65.5,40.8 64.6,39.3 63.6,37.8 62.5,36.5 61.3,35.3 59.9,34.2 58.5,33.2 57,32.3 55.4,31.5 53.8,30.9 52.1,30.5 50.3,30.2 48.6,30 46.9,30 45.1,30.2 43.4,30.5 41.7,30.9 40.1,31.5 38.5,32.3 37,33.2 35.6,34.2 34.2,35.3 33,36.5 31.9,37.8 30.9,39.3 30,40.8 29.3,42.4 28.7,44 28.2,45.7 27.9,47.4 27.8,49.1 27.8,50.9 27.9,52.6 28.2,54.3 28.7,56 29.3,57.7 30,59.3 30.9,60.8 31.9,62.2 33,63.5 34.2,64.8 35.6,65.9 37,66.9 38.5,67.8 40.1,68.5 41.7,69.1 43.4,69.5 45.1,69.8 46.9,70" />
<path stroke="#000000" stroke-width="2" d="M 74.4,70" />
<path stroke="#000000" stroke-width="2" d="M 74.4,30 74.4,50 74.4,44 74.4,43.1 74.5,42.3 74.6,41.4 74.8,40.6 75.1,39.7 75.5,38.9 75.9,38.2 76.4,37.5 77,36.8 77.6,36.2 78.3,35.6 79,35.1 79.8,34.7 80.6,34.3 81.4,34 82.2,33.8 83.1,33.6 83.9,33.6" />
<path stroke="#000000" stroke-width="2" d="M 83.9,33.6 85.4,33.7 86.6,34.1 87.8,34.8 88.7,35.7 89.6,36.7 90.2,37.9 90.8,39.2 91.1,40.6 91.4,42.1 91.4,43.6 91.4,45.1 91.1,46.5 90.8,47.9 90.2,49.3 89.6,50.4 88.7,51.5 87.8,52.4 86.6,53 85.4,53.4 83.9,53.6" />
<path stroke="#000000" stroke-width="2" d="M 121.4,70" />
<path stroke="#000000" stroke-width="2" d="M 121.4,30 121.4,31.4 121.6,32.8 121.8,34.2 122.2,35.5 122.6,36.8 123.2,38.1 123.9,39.3 124.7,40.4 125.6,41.5 126.6,42.5 127.7,43.4 128.8,44.2 130,44.9 131.3,45.5 132.6,46 134,46.3 135.3,46.6 136.7,46.7 138.1,46.7 139.5,46.6 140.9,46.3 142.2,46 143.5,45.5 144.8,44.9 146,44.2 147.2,43.4 148.2,42.5 149.2,41.5 150.1,40.4 150.9,39.3 151.6,38.1 152.2,36.8 152.7,35.5 153,34.2 153.3,32.8 153.4,31.4" />
<path stroke="#000000" stroke-width="2" d="M 160.1,70" />
<path stroke="#000000" stroke-width="2" d="M 160.1,70 160.1,69.3 160.1,68.6 160.3,67.9 160.4,67.2 160.7,66.6 161,66 161.3,65.4 161.7,64.8 162.2,64.2 162.7,63.8 163.2,63.3 163.8,62.9 164.4,62.6 165,62.3 165.7,62 166.3,61.8 167,61.7 167.7,61.7 168.4,61.7 169.1,61.7 169.8,61.8 170.5,62 171.1,62.3 171.8,62.6 172.4,62.9 172.9,63.3 173.5,63.8 174,64.2 174.4,64.8 174.8,65.4 175.2,66 175.5,66.6 175.7,67.2 175.9,67.9 176,68.6 176.1,69.3" />
<path stroke="#000000" stroke-width="2" d="M 182.7,70" />
<path stroke="#000000" stroke-width="2" d="M 190.7,20 190.7,35" />
<path stroke="#000000" stroke-width="2" d="M 190.7,35 190.6,37 190.3,38.6 189.9,39.9 189.3,40.8 188.6,41.3 187.9,41.6 187.1,41.7 186.4,41.5 185.7,41.1 185.1,40.6 184.6,40 184.2,39.3 184.1,38.6 184.1,37.8 184.4,37.1 185,36.4 185.9,35.9 187.1,35.4 188.7,35.1 190.7,35 210.7,35" />
<path stroke="#000000" stroke-width="2" d="M 240.7,70" />
<path stroke="#000000" stroke-width="2" d="M 240.7,30 240.7,70 252,58.7" />
<path stroke="#000000" stroke-width="2" d="M 258.7,70" />
<path stroke="#000000" stroke-width="2" d="M 258.7,20 278.7,20 258.9,39.8 278.9,39.8" />
<path stroke="#000000" stroke-width="2" d="M 308.9,70" />
<path stroke="#000000" stroke-width="2" d="M 308.9,30 328.9,30 321.3,48.5" />
<path stroke="#000000" stroke-width="2" d="M 335.6,70" />
<path stroke="#000000" stroke-width="2" d="M 335.6,20 335.6,40 335.6,34 335.6,33.1 335.7,32.3 335.8,31.4 336,30.6 336.3,29.7 336.7,28.9 337.1,28.2 337.6,27.5 338.2,26.8 338.8,26.2 339.5,25.6 340.2,25.1 340.9,24.7 341.7,24.3 342.6,24 343.4,23.8 344.3,23.6 345.1,23.6 345.1,24.3 345.2,25 345.3,25.7 345.5,26.3 345.7,27 346,27.6 346.4,28.2 346.8,28.8 347.2,29.3 347.7,29.8 348.3,30.3 348.8,30.7 349.4,31 350.1,31.3 350.7,31.6 351.4,31.7 352.1,31.9 352.8,31.9 353.5,31.9 354.2,31.9 354.9,31.7 355.5,31.6 356.2,31.3 356.8,31 357.4,30.7 358,30.3 358.5,29.8 359,29.3 359.5,28.8 359.9,28.2 360.2,27.6 360.5,27 360.8,26.3 360.9,25.7 361.1,25 361.1,24.3" />
<path stroke="#000000" stroke-width="2" d="M 367.8,70" />
<path stroke="#000000" stroke-width="2" d="M 367.8,30 368,30 368,30.2 367.8,30.2 367.8,30" />
<path stroke="#000000" stroke-width="2" d="M 398,70" />
<path stroke="#000000" stroke-width="2" d="M 398,30 438,30" />
<path stroke="#000000" stroke-width="2" d="M 444.6,70" />
<path stroke="#000000" stroke-width="2" d="M 464.6,20 444.9,39.8" />
<path stroke="#000000" stroke-width="2" d="M 444.9,19.8 464.6,39.6" />
<path stroke="#000000" stroke-width="2" d="M 464.6,39.6 464.5,41.6 464.2,43.2 463.8,44.5 463.2,45.4 462.5,45.9 461.8,46.2 461.1,46.3 460.3,46.1 459.6,45.7 459,45.2 458.5,44.6 458.2,43.9 458,43.2 458,42.4 458.3,41.7 458.9,41 459.8,40.5 461,40 462.6,39.7 464.6,39.6 474.6,39.6 474.6,40.3 474.7,41 474.8,41.7 475,42.4 475.3,43 475.5,43.6 475.9,44.2 476.3,44.8 476.7,45.4 477.2,45.8 477.8,46.3 478.3,46.7 478.9,47 479.6,47.3 480.2,47.6 480.9,47.8 481.6,47.9 482.3,47.9 483,47.9 483.7,47.9 484.4,47.8 485,47.6 485.7,47.3 486.3,47 486.9,46.7 487.5,46.3 488,45.8 488.5,45.4 489,44.8 489.4,44.2 489.7,43.6 490,43 490.3,42.4 490.5,41.7 490.6,41 490.6,40.3" />
<path stroke="#000000" stroke-width="2" d="M 497.3,70" />
<path stroke="#000000" stroke-width="2" d="M 497.3,70 497.3,68.6 497.4,67.2 497.7,65.8 498,64.5 498.5,63.2 499.1,61.9 499.8,60.7 500.6,59.6 501.5,58.5 502.5,57.5 503.5,56.6 504.7,55.8 505.9,55.1 507.2,54.5 508.5,54 509.8,53.7 511.2,53.4 512.6,53.3 514,53.3 515.4,53.4 516.7,53.7 518.1,54 519.4,54.5 520.7,55.1 521.9,55.8 523,56.6 524.1,57.5 525.1,58.5 526,59.6 526.8,60.7 527.5,61.9 528.1,63.2 528.5,64.5 528.9,65.8 529.1,67.2 529.3,68.6" />
<path stroke="#000000" stroke-width="2" d="M 535.9,70" />
<path stroke="#000000" stroke-width="2" d="M 535.9,20 535.9,40 535.9,40.7 536,41.4 536.1,42.1 536.3,42.8 536.5,43.4 536.8,44 537.2,44.6 537.6,45.2 538,45.8 538.5,46.2 539.1,46.7 539.6,47.1 540.2,47.4 540.9,47.7 541.5,48 542.2,48.2 542.9,48.3 543.6,48.3 544.3,48.3 545,48.3 545.7,48.2 546.3,48 547,47.7 547.6,47.4 548.2,47.1 548.8,46.7 549.3,46.2 549.8,45.8 550.3,45.2 550.7,44.6 551,44 551.3,43.4 551.6,42.8 551.7,42.1 551.9,41.4 551.9,40.7" />
<path stroke="#000000" stroke-width="2" d="M 581.9,70" />
<path stroke="#000000" stroke-width="2" d="M 581.9,50 582.1,50 582.1,50.2 581.9,50.2 581.9,50 581.9,70 581.9,64 581.9,63.1 582,62.3 582.1,61.4 582.4,60.6 582.7,59.7 583,58.9 583.5,58.2 584,57.5 584.5,56.8 585.2,56.2 585.8,55.6 586.5,55.1 587.3,54.7 588.1,54.3 588.9,54 589.7,53.8 590.6,53.6 591.5,53.6" />
<path stroke="#000000" stroke-width="2" d="M 598.1,70" />
<path stroke="#000000" stroke-width="2" d="M 608.1,40 609,40 609.9,39.9 610.7,39.8 611.6,39.5 612.4,39.2 613.2,38.9 614,38.4 614.7,37.9 615.3,37.4 616,36.8 616.5,36.1 617,35.4 617.4,34.6 617.8,33.8 618.1,33 618.3,32.2 618.5,31.3 618.6,30.4 618.6,29.6 618.5,28.7 618.3,27.8 618.1,27 617.8,26.2 617.4,25.4 617,24.6 616.5,23.9 616,23.3 615.3,22.6 614.7,22.1 614,21.6 613.2,21.1 612.4,20.8 611.6,20.5 610.7,20.2 609.9,20.1 609,20 608.1,20 607.3,20.1 606.4,20.2 605.6,20.5 604.8,20.8 604,21.1 603.2,21.6 602.5,22.1 601.8,22.6 601.2,23.3 600.6,23.9 600.1,24.6 599.7,25.4 599.3,26.2 599,27 598.8,27.8 598.7,28.7 598.6,29.6 598.6,30.4 598.7,31.3 598.8,32.2 599,33 599.3,33.8 599.7,34.6 600.1,35.4 600.6,36.1 601.2,36.8 601.8,37.4 602.5,37.9 603.2,38.4 604,38.9 604.8,39.2 605.6,39.5 606.4,39.8 607.3,39.9 608.1,40 608.1,60 608.1,54 608.1,53.1 608.2,52.3 608.4,51.4 608.6,50.6 608.9,49.7 609.3,48.9 609.7,48.2 610.2,47.5 610.8,46.8 611.4,46.2 612,45.6 612.8,45.1 613.5,44.7 614.3,44.3 615.1,44 616,43.8 616.8,43.6 617.7,43.6" />
<path stroke="#000000" stroke-width="2" d="M 648.6,70" />
<path stroke="#000000" stroke-width="2" d="M 668.6,70 670.3,70 672.1,69.8 673.8,69.5 675.5,69.1 677.1,68.5 678.7,67.8 680.2,66.9 681.6,65.9 683,64.8 684.2,63.5 685.3,62.2 686.3,60.8 687.2,59.3 687.9,57.7 688.5,56 689,54.3 689.3,52.6 689.4,50.9 689.4,49.1 689.3,47.4 689,45.7 688.5,44 687.9,42.4 687.2,40.8 686.3,39.3 685.3,37.8 684.2,36.5 683,35.3 681.6,34.2 680.2,33.2 678.7,32.3 677.1,31.5 675.5,30.9 673.8,30.5 672.1,30.2 670.3,30 668.6,30 666.8,30.2 665.1,30.5 663.4,30.9 661.8,31.5 660.2,32.3 658.7,33.2 657.3,34.2 655.9,35.3 654.7,36.5 653.6,37.8 652.6,39.3 651.7,40.8 651,42.4 650.4,44 649.9,45.7 649.6,47.4 649.5,49.1 649.5,50.9 649.6,52.6 649.9,54.3 650.4,56 651,57.7 651.7,59.3 652.6,60.8 653.6,62.2 654.7,63.5 655.9,64.8 657.3,65.9 658.7,66.9 660.2,67.8 661.8,68.5 663.4,69.1 665.1,69.5 666.8,69.8 668.6,70" />
<path stroke="#000000" stroke-width="2" d="M 696.1,70" />
<path stroke="#000000" stroke-width="2" d="M 696.1,20 716.1,20" />
<path stroke="#000000" stroke-width="2" d="M 746.1,70" />
<path stroke="#000000" stroke-width="2" d="M 746.1,30 746.1,70" />
<path stroke="#000000" stroke-width="2" d="M 752.8,70" />
<path stroke="#000000" stroke-width="2" d="M 764.8,26" />
<path stroke="#000000" stroke-width="2" d="M 764.8,26 762.7,25.9 761.1,25.6 759.9,25.1 759,24.6 758.4,23.9 758.1,23.2 758.1,22.4 758.3,21.7 758.6,21 759.1,20.4 759.7,19.9 760.4,19.5 761.2,19.3 761.9,19.4 762.6,19.7 763.3,20.2 763.9,21.1 764.4,22.4 764.6,24 764.8,26 764.8,30" />
<path stroke="#000000" stroke-width="2" d="M 764.8,30 764.4,30.9 764.1,31.7 763.7,32.4 763.3,33.1 762.9,33.8 762.5,34.4 762,34.9 761.5,35.4 761,35.9 760.5,36.2 760,36.6 759.4,36.9 758.9,37.2 758.3,37.4 757.7,37.6 757.1,37.7 756.5,37.9 756,37.9 755.4,38 754.8,38" />
<path stroke="#000000" stroke-width="2" d="M 794.8,70" />
<path stroke="#000000" stroke-width="2" d="M 794.8,30 834.8,30" />
<path stroke="#000000" stroke-width="2" d="M 864.8,70" />
<path stroke="#000000" stroke-width="2" d="M 864.8,70 865,70 865,70.2 864.8,70.2 864.8,70" />
<path stroke="#000000" stroke-width="2" d="M 871.6,70" />
<path stroke="#000000" stroke-width="2" d="M 887.6,30 867.8,49.8 887.6,69.6" />
<path stroke="#000000" stroke-width="2" d="M 894.3,70" />
<path stroke="#000000" stroke-width="2" d="M 894.3,55" />
<path stroke="#000000" stroke-width="2" d="M 894.3,55 896.3,54.9 897.9,54.6 899.2,54.1 900,53.6 900.6,52.9 900.9,52.2 900.9,51.4 900.8,50.7 900.4,50 899.9,49.4 899.3,48.9 898.6,48.5 897.9,48.3 897.1,48.4 896.4,48.7 895.7,49.2 895.1,50.1 894.7,51.4 894.4,53 894.3,55 894.3,70" />
<path stroke="#000000" stroke-width="2" d="M 894.3,70 894.2,72 893.9,73.6 893.4,74.9 892.8,75.8 892.2,76.3 891.5,76.6 890.7,76.7 890,76.5 889.3,76.1 888.7,75.6 888.2,75 887.8,74.3 887.6,73.6 887.7,72.8 888,72.1 888.5,71.4 889.4,70.9 890.6,70.4 892.3,70.1 894.3,70 904.3,70" />
<path stroke="#000000" stroke-width="2" d="M 911,70" />
<path stroke="#000000" stroke-width="2" d="M 931,30 915.6,67" />
<path stroke="#000000" stroke-width="2" d="M 937.6,70" />
<path stroke="#000000" stroke-width="2" d="M 937.6,20 937.6,20.7 937.7,21.4 937.8,22.1 938,22.8 938.2,23.4 938.5,24 938.9,24.6 939.3,25.2 939.7,25.8 940.2,26.2 940.7,26.7 941.3,27.1 941.9,27.4 942.6,27.7 943.2,28 943.9,28.2 944.6,28.3 945.3,28.3 946,28.3 946.7,28.3 947.3,28.2 948,28 948.7,27.7 949.3,27.4 949.9,27.1 950.5,26.7 951,26.2 951.5,25.8 952,25.2 952.4,24.6 952.7,24 953,23.4 953.2,22.8 953.4,22.1 953.5,21.4 953.6,20.7" />
<path stroke="#000000" stroke-width="2" d="M 983.6,70" />
<path stroke="#000000" stroke-width="2" d="M 983.6,30 983.6,70" />
<path stroke="#000000" stroke-width="2" d="M 990.3,70" />
<path stroke="#000000" stroke-width="2" d="M 990.3,20" />
<path stroke="#000000" stroke-width="2" d="M 990.3,20 991.7,20.1 993,20.6 994.1,21.2 995.1,22.1 995.9,23.1 996.6,24.3 997.1,25.6 997.5,27 997.7,28.5 997.8,30 997.7,31.5 997.5,33 997.1,34.4 996.6,35.7 995.9,36.9 995.1,37.9 994.1,38.8 993,39.4 991.7,39.9 990.3,40" />
<path stroke="#000000" stroke-width="2" d="M 1027.8,70" />
<path stroke="#000000" stroke-width="2" d="M 1027.8,30 1027.8,50 1037.8,50 1037.8,70 1043.4,64.3" />
<path stroke="#000000" stroke-width="2" d="M 1050.1,70" />
<path stroke="#000000" stroke-width="2" d="M 1050.1,20 1070.1,20 1050.3,39.8 1070.3,39.8" />
<path stroke="#000000" stroke-width="2" d="M 1100.3,70" />
<path stroke="#000000" stroke-width="2" d="M 1112.3,30" />
<path stroke="#000000" stroke-width="2" d="M 1112.3,30 1112.1,34.1 1111.5,37.3 1110.6,39.8 1109.4,41.5 1108.1,42.7 1106.6,43.2 1105.1,43.3 1103.7,43 1102.3,42.3 1101,41.2 1100,40 1099.3,38.6 1099,37.2 1099.1,35.7 1099.6,34.2 1100.8,32.9 1102.5,31.7 1105,30.8 1108.2,30.2 1112.3,30 1120.3,30" />
<path stroke="#000000" stroke-width="2" d="M 1120.3,30 1122,30.6 1123.7,31.3 1125.2,32.1 1126.6,32.8 1127.9,33.7 1129,34.6 1130.1,35.5 1131.1,36.5 1132,37.5 1132.8,38.5 1133.5,39.6 1134.1,40.7 1134.7,41.8 1135.1,42.9 1135.5,44.1 1135.8,45.2 1136,46.4 1136.2,47.6 1136.3,48.8 1136.3,50" />
<path stroke="#000000" stroke-width="2" d="M 1143,70" />
<path stroke="#000000" stroke-width="2" d="M 1151,50" />
<path stroke="#000000" stroke-width="2" d="M 1151,50 1150.9,52 1150.6,53.6 1150.1,54.9 1149.5,55.8 1148.9,56.3 1148.1,56.6 1147.4,56.7 1146.6,56.5 1146,56.1 1145.3,55.6 1144.8,55 1144.5,54.3 1144.3,53.6 1144.4,52.8 1144.6,52.1 1145.2,51.4 1146.1,50.9 1147.3,50.4 1148.9,50.1 1151,50 1161,50" />
<path stroke="#000000" stroke-width="2" d="M 1167.6,70" />
<path stroke="#000000" stroke-width="2" d="M 1167.6,20" />
<path stroke="#000000" stroke-width="2" d="M 1167.6,20 1169.1,20.1 1170.3,20.6 1171.5,21.2 1172.4,22.1 1173.3,23.1 1173.9,24.3 1174.5,25.6 1174.8,27 1175.1,28.5 1175.1,30 1175.1,31.5 1174.8,33 1174.5,34.4 1173.9,35.7 1173.3,36.9 1172.4,37.9 1171.5,38.8 1170.3,39.4 1169.1,39.9 1167.6,40" />
<path stroke="#000000" stroke-width="2" d="M 1205.1,70" />
<path stroke="#000000" stroke-width="2" d="M 1205.1,30" />
<path stroke="#000000" stroke-width="2" d="M 1205.1,30 1205.3,30 1205.7,30 1206.3,30 1207.2,30.1 1208.3,30.2 1209.5,30.3 1210.8,30.4 1212.2,30.6 1213.6,30.9 1215.1,31.2 1216.6,31.7 1218.1,32.2 1219.5,32.7 1220.8,33.4 1222,34.2 1223.1,35.1 1223.9,36.1 1224.6,37.3 1225,38.6 1225.1,40" />
<path stroke="#000000" stroke-width="2" d="M 1225.1,40 1227.1,42.1 1228.4,44.1 1229.1,45.7 1229.5,47.2 1229.4,48.4 1228.9,49.4 1228.2,50.2 1227.3,50.8 1226.2,51.1 1225.1,51.2 1224,51.1 1223,50.8 1222.1,50.2 1221.4,49.5 1220.9,48.4 1220.8,47.2 1221.1,45.7 1221.9,44.1 1223.2,42.1 1225.1,40" />
<path stroke="#000000" stroke-width="2" d="M 1225.1,40 1225.1,39.9 1225.2,39.7 1225.2,39.4 1225.3,39 1225.4,38.4 1225.7,37.8 1226,37.2 1226.4,36.5 1227,35.7 1227.6,35 1228.5,34.3 1229.5,33.5 1230.6,32.8 1232,32.2 1233.6,31.6 1235.4,31 1237.4,30.6 1239.7,30.3 1242.3,30.1 1245.1,30" />
<path stroke="#000000" stroke-width="2" d="M 1245.1,30 1245,32 1244.7,33.6 1244.3,34.9 1243.7,35.8 1243,36.3 1242.3,36.6 1241.5,36.7 1240.8,36.5 1240.1,36.1 1239.5,35.6 1239,35 1238.7,34.3 1238.5,33.6 1238.5,32.8 1238.8,32.1 1239.4,31.4 1240.3,30.9 1241.5,30.4 1243.1,30.1 1245.1,30 1255.1,30" />
<path stroke="#000000" stroke-width="2" d="M 1285.1,70" />
<path stroke="#000000" stroke-width="2" d="M 1285.1,70 1300.4,33 1300.4,41 1300.4,42.1 1300.5,43.1 1300.7,44.2 1301,45.2 1301.3,46.2 1301.8,47.1 1302.3,48 1302.9,48.9 1303.6,49.7 1304.3,50.4 1305.1,51.1 1306,51.7 1306.9,52.2 1307.8,52.7 1308.8,53 1309.8,53.3 1310.9,53.5 1311.9,53.6 1313,53.6 1314,53.5 1315,53.3 1316,53 1317,52.7 1318,52.2 1318.9,51.7 1319.7,51.1 1320.5,50.4 1321.3,49.7 1321.9,48.9 1322.5,48 1323.1,47.1 1323.5,46.2 1323.9,45.2 1324.1,44.2 1324.3,43.1 1324.4,42.1 1324.4,32.1 1324.4,72.1" />
<path stroke="#000000" stroke-width="2" d="M 1331.1,70" />
<path stroke="#000000" stroke-width="2" d="M 1331.1,20 1351.1,20" />
<path stroke="#000000" stroke-width="2" d="M 1351.1,20 1353.1,19.9 1354.7,19.6 1356,19.1 1356.8,18.6 1357.4,17.9 1357.7,17.2 1357.7,16.4 1357.6,15.7 1357.2,15 1356.7,14.4 1356.1,13.9 1355.4,13.5 1354.7,13.3 1353.9,13.4 1353.2,13.7 1352.5,14.2 1351.9,15.1 1351.5,16.4 1351.2,18 1351.1,20 1351.1,35 1343.4,53.5" />
<path stroke="#000000" stroke-width="2" d="M 1387.7,70" />
</svg>