<svg xmlns="http://www.w3.org/2000/svg" width="1189.8245039926676" height="110.0" style="fill:none; stroke-linecap:round;">
    <rect width="100%" height="100%" fill="#FFFFFF" />
<path stroke="#000000" stroke-width="2" d="M 550,75" />
<path stroke="#000000" stroke-width="2" d="M 20,70 20.2,70 20.2,70.2 20,70.2 20,70" />
<path stroke="#000000" stroke-width="2" d="M 26.9,70" />
<path stroke="#000000" stroke-width="2" d="M 26.9,30" />
<path stroke="#000000" stroke-width="2" d="M 26.9,30 29.7,30.3 32.3,31.1 34.5,32.4 36.5,34.2 38.1,36.2 39.5,38.6 40.5,41.3 41.3,44.1 41.7,47 41.9,50 41.7,53 41.3,55.9 40.5,58.7 39.5,61.4 38.1,63.8 36.5,65.8 34.5,67.6 32.3,68.9 29.7,69.7 26.9,70" />
<path stroke="#000000" stroke-width="2" d="M 48.5,70" />
<path stroke="#000000" stroke-width="2" d="M 48.5,40 48.5,39.3 48.6,38.6 48.7,37.9 48.9,37.2 49.1,36.6 49.4,36 49.8,35.4 50.2,34.8 50.6,34.2 51.1,33.8 51.7,33.3 52.2,32.9 52.8,32.6 53.5,32.3 54.1,32 54.8,31.8 55.5,31.7 56.2,31.7 56.9,31.7 57.6,31.7 58.3,31.8 58.9,32 59.6,32.3 60.2,32.6 60.8,32.9 61.4,33.3 61.9,33.8 62.4,34.2 62.9,34.8 63.3,35.4 63.6,36 63.9,36.6 64.2,37.2 64.3,37.9 64.5,38.6 64.5,39.3" />
<path stroke="#000000" stroke-width="2" d="M 71.2,70" />
<path stroke="#000000" stroke-width="2" d="M 71.2,50" />
<path stroke="#000000" stroke-width="2" d="M 71.2,50 72.6,50.1 73.9,50.6 75,51.2 76,52.1 76.8,53.1 77.5,54.3 78,55.6 78.4,57 78.6,58.5 78.7,60 78.6,61.5 78.4,63 78,64.4 77.5,65.7 76.8,66.9 76,67.9 75,68.8 73.9,69.4 72.6,69.9 71.2,70" />
<path stroke="#000000" stroke-width="2" d="M 71.2,70 72.6,70.1 73.9,70.6 75,71.2 76,72.1 76.8,73.1 77.5,74.3 78,75.6 78.4,77 78.6,78.5 78.7,80 78.6,81.5 78.4,83 78,84.4 77.5,85.7 76.8,86.9 76,87.9 75,88.8 73.9,89.4 72.6,89.9 71.2,90" />
<path stroke="#000000" stroke-width="2" d="M 108.7,70" />
<path stroke="#000000" stroke-width="2" d="M 108.7,30 124,67 139.3,30" />
<path stroke="#000000" stroke-width="2" d="M 146,70" />
<path stroke="#000000" stroke-width="2" d="M 146,30" />
<path stroke="#000000" stroke-width="2" d="M 146,30 148.8,30.3 151.4,31.1 153.6,32.4 155.6,34.2 157.2,36.2 158.6,38.6 159.6,41.3 160.4,44.1 160.8,47 161,50 160.8,53 160.4,55.9 159.6,58.7 158.6,61.4 157.2,63.8 155.6,65.8 153.6,67.6 151.4,68.9 148.8,69.7 146,70" />
<path stroke="#000000" stroke-width="2" d="M 167.6,70" />
<path stroke="#000000" stroke-width="2" d="M 172.6,20" />
<path stroke="#000000" stroke-width="2" d="M 172.6,20 171.2,20.1 169.9,20.6 168.8,21.2 167.8,22.1 167,23.1 166.3,24.3 165.8,25.6 165.4,27 165.2,28.5 165.1,30 165.2,31.5 165.4,33 165.8,34.4 166.3,35.7 167,36.9 167.8,37.9 168.8,38.8 169.9,39.4 171.2,39.9 172.6,40" />
<path stroke="#000000" stroke-width="2" d="M 172.6,40 174.7,39.9 176.3,39.6 177.5,39.1 178.4,38.6 179,37.9 179.2,37.2 179.3,36.4 179.1,35.7 178.8,35 178.3,34.4 177.6,33.9 177,33.5 176.2,33.3 175.5,33.4 174.7,33.7 174.1,34.2 173.5,35.1 173,36.4 172.7,38 172.6,40 172.6,55" />
<path stroke="#000000" stroke-width="2" d="M 209.3,70" />
<path stroke="#000000" stroke-width="2" d="M 229.3,30 214,67" />
<path stroke="#000000" stroke-width="2" d="M 236,70" />
<path stroke="#000000" stroke-width="2" d="M 236,50 236.2,50 236.2,50.2 236,50.2 236,50" />
<path stroke="#000000" stroke-width="2" d="M 266.2,70" />
<path stroke="#000000" stroke-width="2" d="M 266.2,70 266.4,70 266.4,70.2 266.2,70.2 266.2,70" />
<path stroke="#000000" stroke-width="2" d="M 273,70" />
<path stroke="#000000" stroke-width="2" d="M 273,30 280.7,48.5 288.3,30" />
<path stroke="#000000" stroke-width="2" d="M 288.3,40" />
<path stroke="#000000" stroke-width="2" d="M 272.3,40 289.3,40 289.3,40.7 289.4,41.4 289.5,42.1 289.7,42.8 289.9,43.4 290.2,44 290.6,44.6 291,45.2 291.4,45.8 291.9,46.2 292.5,46.7 293,47.1 293.6,47.4 294.3,47.7 294.9,48 295.6,48.2 296.3,48.3 297,48.3 297.7,48.3 298.4,48.3 299.1,48.2 299.7,48 300.4,47.7 301,47.4 301.6,47.1 302.2,46.7 302.7,46.2 303.2,45.8 303.7,45.2 304.1,44.6 304.4,44 304.7,43.4 304.9,42.8 305.1,42.1 305.3,41.4 305.3,40.7" />
<path stroke="#000000" stroke-width="2" d="M 305.3,40.7 306.7,40.8 308,41.3 309.1,41.9 310.1,42.8 310.9,43.8 311.6,45 312.1,46.3 312.5,47.7 312.7,49.2 312.8,50.7 312.7,52.2 312.5,53.7 312.1,55.1 311.6,56.4 310.9,57.6 310.1,58.6 309.1,59.5 308,60.1 306.7,60.6 305.3,60.7" />
<path stroke="#000000" stroke-width="2" d="M 342.8,70" />
<path stroke="#000000" stroke-width="2" d="M 358.8,30" />
<path stroke="#000000" stroke-width="2" d="M 358.8,30 358.6,34.1 358,37.3 357.1,39.8 355.9,41.5 354.6,42.7 353.1,43.2 351.6,43.3 350.2,43 348.8,42.3 347.6,41.2 346.6,40 345.9,38.6 345.5,37.2 345.6,35.7 346.2,34.2 347.3,32.9 349.1,31.7 351.5,30.8 354.8,30.2 358.8,30 378.8,30" />
<path stroke="#000000" stroke-width="2" d="M 385.5,70" />
<path stroke="#000000" stroke-width="2" d="M 385.5,50 405.5,50" />
<path stroke="#000000" stroke-width="2" d="M 412.1,70" />
<path stroke="#000000" stroke-width="2" d="M 412.1,25" />
<path stroke="#000000" stroke-width="2" d="M 412.1,25 414.2,24.9 415.8,24.6 417,24.1 417.9,23.6 418.5,22.9 418.8,22.2 418.8,21.4 418.6,20.7 418.3,20 417.8,19.4 417.2,18.9 416.5,18.5 415.7,18.3 415,18.4 414.3,18.7 413.6,19.2 413,20.1 412.6,21.4 412.3,23 412.1,25 412.1,40" />
<path stroke="#000000" stroke-width="2" d="M 448.8,70" />
<path stroke="#000000" stroke-width="2" d="M 448.8,30 448.8,70" />
<path stroke="#000000" stroke-width="2" d="M 455.5,70" />
<path stroke="#000000" stroke-width="2" d="M 455.5,40 455.5,39.3 455.5,38.6 455.6,37.9 455.8,37.2 456.1,36.6 456.4,36 456.7,35.4 457.1,34.8 457.6,34.2 458.1,33.8 458.6,33.3 459.2,32.9 459.8,32.6 460.4,32.3 461.1,32 461.7,31.8 462.4,31.7 463.1,31.7 463.8,31.7 464.5,31.7 465.2,31.8 465.9,32 466.5,32.3 467.2,32.6 467.8,32.9 468.3,33.3 468.9,33.8 469.4,34.2 469.8,34.8 470.2,35.4 470.6,36 470.9,36.6 471.1,37.2 471.3,37.9 471.4,38.6 471.5,39.3" />
<path stroke="#000000" stroke-width="2" d="M 501.5,70" />
<path stroke="#000000" stroke-width="2" d="M 501.5,30 541.5,30" />
<path stroke="#000000" stroke-width="2" d="M 571.5,70" />
<path stroke="#000000" stroke-width="2" d="M 573.5,50 578.8,37.1 578.9,36.7 579,36.4 579.1,36.1 579.2,35.7 579.2,35.4 579.2,35 579.1,34.7 579,34.3 578.9,34 578.8,33.7 578.6,33.4 578.5,33.1 578.2,32.8 578,32.5 577.8,32.3 577.5,32.1 577.2,31.9 576.9,31.7 576.6,31.6 576.2,31.5 575.9,31.4 575.5,31.4 575.2,31.4 574.8,31.4 574.5,31.4 574.1,31.5 573.8,31.6 573.5,31.7 573.2,31.9 572.9,32.1 572.6,32.3 572.4,32.5 572.1,32.8 571.9,33.1 571.7,33.4 571.6,33.7 571.4,34 571.3,34.3 571.2,34.7 571.2,35 571.2,35.4 571.2,35.7 571.2,36.1 571.3,36.4 571.4,36.7 571.6,37.1 571.7,37.4 571.9,37.7 572.1,37.9 572.4,38.2 572.6,38.4 572.9,38.7 573.2,38.8 573.5,39 573.8,39.1 574.1,39.2 574.5,39.3 574.8,39.4 575.2,39.4 575.5,39.4 588.5,34" />
<path stroke="#000000" stroke-width="2" d="M 588.5,34 586.4,33.9 584.8,33.6 583.6,33.1 582.7,32.6 582.1,31.9 581.9,31.2 581.8,30.4 582,29.7 582.3,29 582.8,28.4 583.5,27.9 584.1,27.5 584.9,27.3 585.6,27.4 586.4,27.7 587,28.2 587.6,29.1 588.1,30.4 588.4,32 588.5,34 588.5,49" />
<path stroke="#000000" stroke-width="2" d="M 595.1,70" />
<path stroke="#000000" stroke-width="2" d="M 595.1,25" />
<path stroke="#000000" stroke-width="2" d="M 595.1,25 597.2,24.9 598.8,24.6 600,24.1 600.9,23.6 601.5,22.9 601.7,22.2 601.8,21.4 601.6,20.7 601.3,20 600.8,19.4 600.1,18.9 599.5,18.5 598.7,18.3 598,18.4 597.2,18.7 596.6,19.2 596,20.1 595.5,21.4 595.2,23 595.1,25 595.1,40 587.5,58.5 589.8,52.9 590.1,52.1 590.5,51.4 591,50.6 591.5,49.9 592.1,49.3 592.7,48.7 593.4,48.2 594.2,47.7 594.9,47.3 595.8,47 596.6,46.7 597.4,46.5" />
<path stroke="#000000" stroke-width="2" d="M 608.5,70" />
<path stroke="#000000" stroke-width="2" d="M 608.5,40 616.1,21.5 623.8,40" />
<path stroke="#000000" stroke-width="2" d="M 653.8,70" />
<path stroke="#000000" stroke-width="2" d="M 653.8,30 693.8,30" />
<path stroke="#000000" stroke-width="2" d="M 700.4,70" />
<path stroke="#000000" stroke-width="2" d="M 700.4,50 720.4,50" />
<path stroke="#000000" stroke-width="2" d="M 750.4,70" />
<path stroke="#000000" stroke-width="2" d="M 755.4,30" />
<path stroke="#000000" stroke-width="2" d="M 755.4,30 754,30.1 752.7,30.6 751.6,31.2 750.6,32.1 749.8,33.1 749.1,34.3 748.6,35.6 748.2,37 748,38.5 747.9,40 748,41.5 748.2,43 748.6,44.4 749.1,45.7 749.8,46.9 750.6,47.9 751.6,48.8 752.7,49.4 754,49.9 755.4,50 760.4,50 760.4,70" />
<path stroke="#000000" stroke-width="2" d="M 790.4,70" />
<path stroke="#000000" stroke-width="2" d="M 810.4,70 812.2,70 813.9,69.8 815.6,69.5 817.3,69.1 819,68.5 820.5,67.8 822,66.9 823.5,65.9 824.8,64.8 826,63.5 827.2,62.2 828.2,60.8 829,59.3 829.8,57.7 830.4,56 830.8,54.3 831.1,52.6 831.3,50.9 831.3,49.1 831.1,47.4 830.8,45.7 830.4,44 829.8,42.4 829,40.8 828.2,39.3 827.2,37.8 826,36.5 824.8,35.3 823.5,34.2 822,33.2 820.5,32.3 819,31.5 817.3,30.9 815.6,30.5 813.9,30.2 812.2,30 810.4,30 808.7,30.2 807,30.5 805.3,30.9 803.6,31.5 802.1,32.3 800.6,33.2 799.1,34.2 797.8,35.3 796.6,36.5 795.4,37.8 794.4,39.3 793.6,40.8 792.8,42.4 792.2,44 791.8,45.7 791.5,47.4 791.3,49.1 791.3,50.9 791.5,52.6 791.8,54.3 792.2,56 792.8,57.7 793.6,59.3 794.4,60.8 795.4,62.2 796.6,63.5 797.8,64.8 799.1,65.9 800.6,66.9 802.1,67.8 803.6,68.5 805.3,69.1 807,69.5 808.7,69.8 810.4,70" />
<path stroke="#000000" stroke-width="2" d="M 837.9,70" />
<path stroke="#000000" stroke-width="2" d="M 837.9,20 845.6,38.5" />
<path stroke="#000000" stroke-width="2" d="M 875.6,70" />
<path stroke="#000000" stroke-width="2" d="M 875.6,30 875.6,70 886.9,58.7" />
<path stroke="#000000" stroke-width="2" d="M 893.6,70" />
<path stroke="#000000" stroke-width="2" d="M 893.6,50" />
<path stroke="#000000" stroke-width="2" d="M 893.6,50 893.7,50 894.1,50 894.8,50 895.7,50.1 896.7,50.2 897.9,50.3 899.2,50.4 900.6,50.6 902.1,50.9 903.6,51.2 905.1,51.7 906.5,52.2 907.9,52.7 909.3,53.4 910.5,54.2 911.5,55.1 912.4,56.1 913,57.3 913.4,58.6 913.6,60" />
<path stroke="#000000" stroke-width="2" d="M 913.6,60 915.5,62.1 916.8,64.1 917.6,65.7 917.9,67.2 917.8,68.4 917.4,69.5 916.7,70.2 915.7,70.8 914.7,71.1 913.6,71.2 912.5,71.1 911.4,70.8 910.5,70.2 909.8,69.5 909.4,68.4 909.3,67.2 909.6,65.7 910.3,64 911.7,62.1 913.6,60" />
<path stroke="#000000" stroke-width="2" d="M 913.6,60 913.6,59.9 913.6,59.7 913.7,59.4 913.7,59 913.9,58.4 914.1,57.8 914.4,57.2 914.9,56.5 915.4,55.7 916.1,55 916.9,54.3 917.9,53.5 919.1,52.8 920.4,52.2 922,51.6 923.8,51 925.9,50.6 928.2,50.3 930.7,50.1 933.6,50 933.6,50.7 933.6,51.4 933.8,52.1 933.9,52.8 934.2,53.4 934.5,54 934.8,54.6 935.2,55.2 935.7,55.8 936.2,56.2 936.7,56.7 937.3,57.1 937.9,57.4 938.5,57.7 939.2,58 939.8,58.2 940.5,58.3 941.2,58.3 941.9,58.3 942.6,58.3 943.3,58.2 944,58 944.6,57.7 945.3,57.4 945.9,57.1 946.4,56.7 947,56.2 947.5,55.8 947.9,55.2 948.3,54.6 948.7,54 949,53.4 949.2,52.8 949.4,52.1 949.5,51.4 949.6,50.7" />
<path stroke="#000000" stroke-width="2" d="M 949.6,50.7 951,50.8 952.3,51.3 953.4,51.9 954.4,52.8 955.2,53.8 955.9,55 956.4,56.3 956.8,57.7 957,59.2 957.1,60.7 957,62.2 956.8,63.7 956.4,65.1 955.9,66.4 955.2,67.6 954.4,68.6 953.4,69.5 952.3,70.1 951,70.6 949.6,70.7" />
<path stroke="#000000" stroke-width="2" d="M 987.1,70" />
<path stroke="#000000" stroke-width="2" d="M 1003.1,30 983.3,49.8 1003.1,69.6" />
<path stroke="#000000" stroke-width="2" d="M 1009.7,70" />
<path stroke="#000000" stroke-width="2" d="M 1009.7,20 1017.4,38.5 1025,20" />
<path stroke="#000000" stroke-width="2" d="M 1055,70" />
<path stroke="#000000" stroke-width="2" d="M 1055,30 1055,70 1055,58 1055,56.3 1055.2,54.5 1055.5,52.8 1055.9,51.1 1056.5,49.5 1057.3,47.9 1058.2,46.4 1059.2,45 1060.3,43.6 1061.5,42.4 1062.8,41.3 1064.3,40.3 1065.8,39.4 1067.4,38.7 1069,38.1 1070.7,37.6 1072.4,37.3 1074.2,37.1" />
<path stroke="#000000" stroke-width="2" d="M 1080.8,70" />
<path stroke="#000000" stroke-width="2" d="M 1080.8,40 1080.8,39.3 1080.9,38.6 1081,37.9 1081.2,37.2 1081.4,36.6 1081.7,36 1082.1,35.4 1082.5,34.8 1082.9,34.2 1083.4,33.8 1083.9,33.3 1084.5,32.9 1085.1,32.6 1085.7,32.3 1086.4,32 1087.1,31.8 1087.8,31.7 1088.5,31.7 1089.2,31.7 1089.9,31.7 1090.5,31.8 1091.2,32 1091.9,32.3 1092.5,32.6 1093.1,32.9 1093.7,33.3 1094.2,33.8 1094.7,34.2 1095.2,34.8 1095.6,35.4 1095.9,36 1096.2,36.6 1096.4,37.2 1096.6,37.9 1096.7,38.6 1096.8,39.3" />
<path stroke="#000000" stroke-width="2" d="M 1103.5,70" />
<path stroke="#000000" stroke-width="2" d="M 1103.5,50 1103.5,54 1103.5,54.5 1103.5,55 1103.6,55.6 1103.7,56.1 1103.9,56.6 1104.1,57 1104.4,57.5 1104.7,57.9 1105,58.3 1105.4,58.7 1105.8,59 1106.2,59.3 1106.7,59.6 1107.2,59.8 1107.7,60 1108.2,60.1 1108.7,60.2 1109.2,60.3 1109.7,60.3 1110.2,60.2 1110.8,60.1 1111.3,60 1111.8,59.8 1112.2,59.6 1112.7,59.3 1113.1,59 1113.5,58.7 1113.9,58.3 1114.2,57.9 1114.5,57.5 1114.8,57 1115,56.6 1115.2,56.1 1115.3,55.6 1115.4,55 1115.5,54.5 1115.5,49.5 1115.5,69.5 1135.5,69.5" />
<path stroke="#000000" stroke-width="2" d="M 1142.1,70" />
<path stroke="#000000" stroke-width="2" d="M 1142.1,30 1162.1,30 1142.3,49.8 1162.3,49.8" />
<path stroke="#000000" stroke-width="2" d="M 1162.3,49.8 1163.7,49.9 1165,50.4 1166.1,51 1167.1,51.9 1167.9,52.9 1168.6,54.1 1169.1,55.4 1169.5,56.8 1169.7,58.3 1169.8,59.8 1169.7,61.3 1169.5,62.8 1169.1,64.2 1168.6,65.5 1167.9,66.7 1167.1,67.7 1166.1,68.6 1165,69.2 1163.7,69.7 1162.3,69.8" />
<path stroke="#000000" stroke-width="2" d="M 1199.8,70" />
</svg>