<svg xmlns="http://www.w3.org/2000/svg" width="1397.6937947080405" height="92.2836140246614" style="fill:none; stroke-linecap:round;">
    <rect width="100%" height="100%" fill="#FFFFFF" />
<path stroke="#000000" stroke-width="2" d="M 550,75" />
<path stroke="#000000" stroke-width="2" d="M 20,40 20.2,40 20.2,40.2 20,40.2 20,40" />
<path stroke="#000000" stroke-width="2" d="M 26.9,70" />
<path stroke="#000000" stroke-width="2" d="M 46.9,30 31.6,67 36.2,55.9 36.8,54.3 37.6,52.7 38.6,51.2 39.6,49.9 40.8,48.6 42.1,47.4 43.5,46.3 44.9,45.4 46.5,44.6 48.1,43.9 49.8,43.4 51.5,43" />
<path stroke="#000000" stroke-width="2" d="M 58.1,70" />
<path stroke="#000000" stroke-width="2" d="M 58.1,20 58.3,20 58.3,20.2 58.1,20.2 58.1,20" />
<path stroke="#000000" stroke-width="2" d="M 88.3,70" />
<path stroke="#000000" stroke-width="2" d="M 88.3,30 128.3,30" />
<path stroke="#000000" stroke-width="2" d="M 158.3,70" />
<path stroke="#000000" stroke-width="2" d="M 158.3,40 158.5,40 158.5,40.2 158.3,40.2 158.3,40" />
<path stroke="#000000" stroke-width="2" d="M 165.2,70" />
<path stroke="#000000" stroke-width="2" d="M 165.2,35" />
<path stroke="#000000" stroke-width="2" d="M 165.2,35 167.2,34.9 168.9,34.6 170.1,34.1 171,33.6 171.5,32.9 171.8,32.2 171.9,31.4 171.7,30.7 171.3,30 170.8,29.4 170.2,28.9 169.5,28.5 168.8,28.3 168,28.4 167.3,28.7 166.6,29.2 166.1,30.1 165.6,31.4 165.3,33 165.2,35 165.2,50 172.9,68.5" />
<path stroke="#000000" stroke-width="2" d="M 179.5,70" />
<path stroke="#000000" stroke-width="2" d="M 179.5,20 179.5,20.7 179.6,21.4 179.7,22.1 179.9,22.8 180.1,23.4 180.4,24 180.8,24.6 181.2,25.2 181.6,25.8 182.1,26.2 182.6,26.7 183.2,27.1 183.8,27.4 184.5,27.7 185.1,28 185.8,28.2 186.5,28.3 187.2,28.3 187.9,28.3 188.6,28.3 189.2,28.2 189.9,28 190.6,27.7 191.2,27.4 191.8,27.1 192.4,26.7 192.9,26.2 193.4,25.8 193.9,25.2 194.3,24.6 194.6,24 194.9,23.4 195.1,22.8 195.3,22.1 195.5,21.4 195.5,20.7" />
<path stroke="#000000" stroke-width="2" d="M 225.5,70" />
<path stroke="#000000" stroke-width="2" d="M 225.5,30 235.5,30 235.5,70" />
<path stroke="#000000" stroke-width="2" d="M 242.2,70" />
<path stroke="#000000" stroke-width="2" d="M 242.2,30 242.2,30.7 242.2,31.4 242.4,32.1 242.5,32.8 242.8,33.4 243.1,34 243.4,34.6 243.8,35.2 244.3,35.8 244.8,36.2 245.3,36.7 245.9,37.1 246.5,37.4 247.1,37.7 247.8,38 248.4,38.2 249.1,38.3 249.8,38.3 250.5,38.3 251.2,38.3 251.9,38.2 252.6,38 253.2,37.7 253.9,37.4 254.5,37.1 255,36.7 255.6,36.2 256.1,35.8 256.5,35.2 256.9,34.6 257.3,34 257.6,33.4 257.8,32.8 258,32.1 258.1,31.4 258.2,30.7 259,30.7 259.9,30.8 260.8,30.9 261.6,31.2 262.4,31.4 263.2,31.8 264,32.3 264.7,32.8 265.4,33.3 266,33.9 266.5,34.6 267,35.3 267.5,36.1 267.8,36.9 268.1,37.7 268.4,38.5 268.5,39.4 268.6,40.3 268.6,41.1 268.5,42 268.4,42.9 268.1,43.7 267.8,44.5 267.5,45.3 267,46.1 266.5,46.8 266,47.4 265.4,48.1 264.7,48.6 264,49.1 263.2,49.6 262.4,49.9 261.6,50.2 260.8,50.5 259.9,50.6 259,50.7" />
<path stroke="#000000" stroke-width="2" d="M 298.6,70" />
<path stroke="#000000" stroke-width="2" d="M 298.6,70 298.8,70 298.8,70.2 298.6,70.2 298.6,70" />
<path stroke="#000000" stroke-width="2" d="M 328.8,70" />
<path stroke="#000000" stroke-width="2" d="M 328.8,70 329,70 329,70.2 328.8,70.2 328.8,70" />
<path stroke="#000000" stroke-width="2" d="M 335.7,70" />
<path stroke="#000000" stroke-width="2" d="M 335.7,40" />
<path stroke="#000000" stroke-width="2" d="M 335.7,40 339.7,39.8 342.9,39.2 345.4,38.3 347.2,37.1 348.3,35.8 348.9,34.3 349,32.8 348.6,31.4 347.9,30 346.9,28.8 345.7,27.7 344.3,27 342.8,26.7 341.3,26.8 339.9,27.3 338.5,28.5 337.4,30.2 336.5,32.7 335.9,35.9 335.7,40 335.7,70" />
<path stroke="#000000" stroke-width="2" d="M 355.6,70" />
<path stroke="#000000" stroke-width="2" d="M 355.6,50 375.6,50" />
<path stroke="#000000" stroke-width="2" d="M 405.6,70" />
<path stroke="#000000" stroke-width="2" d="M 405.6,30 405.6,70 416.9,58.7" />
<path stroke="#000000" stroke-width="2" d="M 423.6,70" />
<path stroke="#000000" stroke-width="2" d="M 423.6,20 443.6,20 423.8,39.8 443.8,39.8" />
<path stroke="#000000" stroke-width="2" d="M 473.8,70" />
<path stroke="#000000" stroke-width="2" d="M 473.8,30 473.8,70" />
<path stroke="#000000" stroke-width="2" d="M 480.5,70" />
<path stroke="#000000" stroke-width="2" d="M 480.5,20 480.5,24 480.5,24.5 480.5,25 480.6,25.6 480.8,26.1 480.9,26.6 481.2,27 481.4,27.5 481.7,27.9 482,28.3 482.4,28.7 482.8,29 483.2,29.3 483.7,29.6 484.2,29.8 484.7,30 485.2,30.1 485.7,30.2 486.2,30.3 486.7,30.3 487.3,30.2 487.8,30.1 488.3,30 488.8,29.8 489.2,29.6 489.7,29.3 490.1,29 490.5,28.7 490.9,28.3 491.2,27.9 491.5,27.5 491.8,27 492,26.6 492.2,26.1 492.3,25.6 492.4,25 492.5,24.5 492.5,19.5 492.5,39.5" />
<path stroke="#000000" stroke-width="2" d="M 499.1,70" />
<path stroke="#000000" stroke-width="2" d="M 499.1,30 539.1,30" />
<path stroke="#000000" stroke-width="2" d="M 545.8,70" />
<path stroke="#000000" stroke-width="2" d="M 569.8,42" />
<path stroke="#000000" stroke-width="2" d="M 569.8,42 565.7,41.8 562.5,41.2 560,40.3 558.3,39.1 557.1,37.8 556.6,36.3 556.5,34.8 556.8,33.4 557.5,32 558.6,30.8 559.8,29.7 561.2,29 562.6,28.7 564.1,28.8 565.6,29.3 566.9,30.5 568.1,32.2 569,34.7 569.6,37.9 569.8,42 569.8,50" />
<path stroke="#000000" stroke-width="2" d="M 569.8,50 569.2,51.7 568.5,53.4 567.7,54.9 567,56.3 566.1,57.6 565.2,58.7 564.3,59.8 563.3,60.8 562.3,61.7 561.3,62.5 560.2,63.2 559.1,63.8 558,64.4 556.9,64.8 555.7,65.2 554.6,65.5 553.4,65.7 552.2,65.9 551,66 549.8,66" />
<path stroke="#000000" stroke-width="2" d="M 599.8,70" />
<path stroke="#000000" stroke-width="2" d="M 619.8,30 604.5,67" />
<path stroke="#000000" stroke-width="2" d="M 626.5,70" />
<path stroke="#000000" stroke-width="2" d="M 626.5,55" />
<path stroke="#000000" stroke-width="2" d="M 626.5,55 628.5,54.9 630.1,54.6 631.3,54.1 632.2,53.6 632.8,52.9 633.1,52.2 633.1,51.4 632.9,50.7 632.6,50 632.1,49.4 631.5,48.9 630.8,48.5 630.1,48.3 629.3,48.4 628.6,48.7 627.9,49.2 627.3,50.1 626.9,51.4 626.6,53 626.5,55 626.5,70" />
<path stroke="#000000" stroke-width="2" d="M 639.8,70" />
<path stroke="#000000" stroke-width="2" d="M 649.8,20 642.1,38.5" />
<path stroke="#000000" stroke-width="2" d="M 679.8,70" />
<path stroke="#000000" stroke-width="2" d="M 699.8,30 698,30 696.3,30.2 694.6,30.5 692.9,30.9 691.3,31.5 689.7,32.2 688.2,33.1 686.7,34.1 685.4,35.2 684.2,36.5 683,37.8 682,39.2 681.2,40.7 680.4,42.3 679.8,44 679.4,45.7 679.1,47.4 678.9,49.1 678.9,50.9 679.1,52.6 679.4,54.3 679.8,56 680.4,57.6 681.2,59.2 682,60.7 683,62.2 684.2,63.5 685.4,64.7 686.7,65.8 688.2,66.8 689.7,67.7 691.3,68.5 692.9,69.1 694.6,69.5 696.3,69.8 698,70" />
<path stroke="#000000" stroke-width="2" d="M 698,50" />
<path stroke="#000000" stroke-width="2" d="M 666,50 706,50" />
<path stroke="#000000" stroke-width="2" d="M 736,70" />
<path stroke="#000000" stroke-width="2" d="M 736,70 736.2,70 736.2,70.2 736,70.2 736,70" />
<path stroke="#000000" stroke-width="2" d="M 742.9,70" />
<path stroke="#000000" stroke-width="2" d="M 752.9,30 752,30 751.2,30.1 750.3,30.2 749.5,30.5 748.6,30.8 747.9,31.1 747.1,31.6 746.4,32.1 745.7,32.6 745.1,33.2 744.5,33.9 744,34.6 743.6,35.4 743.2,36.2 742.9,37 742.7,37.8 742.6,38.7 742.5,39.6 742.5,40.4 742.6,41.3 742.7,42.2 742.9,43 743.2,43.8 743.6,44.6 744,45.4 744.5,46.1 745.1,46.7 745.7,47.4 746.4,47.9 747.1,48.4 747.9,48.9 748.6,49.2 749.5,49.5 750.3,49.8 751.2,49.9 752,50 752,65" />
<path stroke="#000000" stroke-width="2" d="M 752,65 751.9,67 751.6,68.6 751.2,69.9 750.6,70.7 749.9,71.3 749.2,71.6 748.5,71.6 747.7,71.5 747,71.1 746.4,70.6 745.9,70 745.6,69.3 745.4,68.6 745.4,67.8 745.7,67.1 746.3,66.4 747.2,65.8 748.4,65.4 750,65.1 752,65 772,65" />
<path stroke="#000000" stroke-width="2" d="M 802,70" />
<path stroke="#000000" stroke-width="2" d="M 802,30 842,30" />
<path stroke="#000000" stroke-width="2" d="M 872,70" />
<path stroke="#000000" stroke-width="2" d="M 872,70 872.2,70 872.2,70.2 872,70.2 872,70" />
<path stroke="#000000" stroke-width="2" d="M 878.9,70" />
<path stroke="#000000" stroke-width="2" d="M 878.9,30 879.8,30 880.6,30.1 881.5,30.2 882.3,30.5 883.2,30.8 884,31.1 884.7,31.6 885.4,32.1 886.1,32.6 886.7,33.2 887.3,33.9 887.8,34.6 888.2,35.4 888.6,36.2 888.9,37 889.1,37.8 889.3,38.7 889.3,39.6 889.3,40.4 889.3,41.3 889.1,42.2 888.9,43 888.6,43.8 888.2,44.6 887.8,45.4 887.3,46.1 886.7,46.7 886.1,47.4 885.4,47.9 884.7,48.4 884,48.9 883.2,49.2 882.3,49.5 881.5,49.8 880.6,49.9 879.8,50" />
<path stroke="#000000" stroke-width="2" d="M 879.8,40" />
<path stroke="#000000" stroke-width="2" d="M 883.8,40 893.8,40 886.1,58.5" />
<path stroke="#000000" stroke-width="2" d="M 900.4,70" />
<path stroke="#000000" stroke-width="2" d="M 900.4,20 920.4,20" />
<path stroke="#000000" stroke-width="2" d="M 920.4,20 922.5,19.9 924.1,19.6 925.3,19.1 926.2,18.6 926.8,17.9 927.1,17.2 927.1,16.4 926.9,15.7 926.6,15 926.1,14.4 925.5,13.9 924.8,13.5 924,13.3 923.3,13.4 922.6,13.7 921.9,14.2 921.3,15.1 920.8,16.4 920.6,18 920.4,20 920.4,35" />
<path stroke="#000000" stroke-width="2" d="M 957.1,70" />
<path stroke="#000000" stroke-width="2" d="M 957.1,30 977.1,30 978,30 978.8,30.1 979.7,30.2 980.5,30.5 981.4,30.8 982.2,31.1 982.9,31.6 983.6,32.1 984.3,32.6 984.9,33.2 985.5,33.9 986,34.6 986.4,35.4 986.8,36.2 987.1,37 987.3,37.8 987.4,38.7 987.5,39.6 987.5,40.4 987.4,41.3 987.3,42.2 987.1,43 986.8,43.8 986.4,44.6 986,45.4 985.5,46.1 984.9,46.7 984.3,47.4 983.6,47.9 982.9,48.4 982.2,48.9 981.4,49.2 980.5,49.5 979.7,49.8 978.8,49.9 978,50" />
<path stroke="#000000" stroke-width="2" d="M 1017.5,70" />
<path stroke="#000000" stroke-width="2" d="M 1017.5,30 1017.5,31.4 1017.6,32.8 1017.9,34.2 1018.3,35.5 1018.7,36.8 1019.3,38.1 1020,39.3 1020.8,40.4 1021.7,41.5 1022.7,42.5 1023.8,43.4 1024.9,44.2 1026.1,44.9 1027.4,45.5 1028.7,46 1030,46.3 1031.4,46.6 1032.8,46.7 1034.2,46.7 1035.6,46.6 1037,46.3 1038.3,46 1039.6,45.5 1040.9,44.9 1042.1,44.2 1043.2,43.4 1044.3,42.5 1045.3,41.5 1046.2,40.4 1047,39.3 1047.7,38.1 1048.3,36.8 1048.8,35.5 1049.1,34.2 1049.4,32.8 1049.5,31.4" />
<path stroke="#000000" stroke-width="2" d="M 1056.2,70" />
<path stroke="#000000" stroke-width="2" d="M 1061.2,50 1056.2,50 1056.2,70" />
<path stroke="#000000" stroke-width="2" d="M 1067.8,70" />
<path stroke="#000000" stroke-width="2" d="M 1075.8,20 1075.8,35" />
<path stroke="#000000" stroke-width="2" d="M 1075.8,35 1075.7,37 1075.4,38.6 1075,39.9 1074.4,40.8 1073.7,41.3 1073,41.6 1072.2,41.7 1071.5,41.5 1070.8,41.1 1070.2,40.6 1069.7,40 1069.3,39.3 1069.2,38.6 1069.2,37.8 1069.5,37.1 1070.1,36.4 1071,35.9 1072.2,35.4 1073.8,35.1 1075.8,35 1095.8,35" />
<path stroke="#000000" stroke-width="2" d="M 1125.8,70" />
<path stroke="#000000" stroke-width="2" d="M 1125.8,70 1137.3,42.3" />
<path stroke="#000000" stroke-width="2" d="M 1137.3,42.3 1141.4,42.1 1144.6,41.5 1147.1,40.6 1148.8,39.4 1150,38.1 1150.5,36.6 1150.6,35.1 1150.3,33.6 1149.6,32.3 1148.6,31 1147.3,30 1145.9,29.3 1144.5,29 1143,29.1 1141.5,29.6 1140.2,30.8 1139,32.5 1138.1,35 1137.5,38.2 1137.3,42.3 1137.3,72.3" />
<path stroke="#000000" stroke-width="2" d="M 1157.3,70" />
<path stroke="#000000" stroke-width="2" d="M 1157.3,30 1159,30 1160.8,30.2 1162.5,30.5 1164.2,30.9 1165.8,31.5 1167.4,32.2 1168.9,33.1 1170.3,34.1 1171.7,35.2 1172.9,36.5 1174,37.8 1175,39.2 1175.9,40.7 1176.6,42.3 1177.2,44 1177.7,45.7 1178,47.4 1178.1,49.1 1178.1,50.9 1178,52.6 1177.7,54.3 1177.2,56 1176.6,57.6 1175.9,59.2 1175,60.7 1174,62.2 1172.9,63.5 1171.7,64.7 1170.3,65.8 1168.9,66.8 1167.4,67.7 1165.8,68.5 1164.2,69.1 1162.5,69.5 1160.8,69.8 1159,70" />
<path stroke="#000000" stroke-width="2" d="M 1208.1,70" />
<path stroke="#000000" stroke-width="2" d="M 1208.1,30 1248.1,30" />
<path stroke="#000000" stroke-width="2" d="M 1254.8,70" />
<path stroke="#000000" stroke-width="2" d="M 1266.8,56" />
<path stroke="#000000" stroke-width="2" d="M 1266.8,56 1264.8,55.9 1263.2,55.6 1261.9,55.1 1261,54.6 1260.5,53.9 1260.2,53.2 1260.1,52.4 1260.3,51.7 1260.7,51 1261.2,50.4 1261.8,49.9 1262.5,49.5 1263.2,49.3 1264,49.4 1264.7,49.7 1265.4,50.2 1265.9,51.1 1266.4,52.4 1266.7,54 1266.8,56 1266.8,60" />
<path stroke="#000000" stroke-width="2" d="M 1266.8,60 1266.5,60.9 1266.1,61.7 1265.8,62.4 1265.4,63.1 1265,63.8 1264.5,64.4 1264.1,64.9 1263.6,65.4 1263.1,65.9 1262.6,66.2 1262,66.6 1261.5,66.9 1260.9,67.2 1260.3,67.4 1259.8,67.6 1259.2,67.7 1258.6,67.9 1258,67.9 1257.4,68 1256.8,68" />
<path stroke="#000000" stroke-width="2" d="M 1296.8,70" />
<path stroke="#000000" stroke-width="2" d="M 1296.8,30 1296.8,70 1308.1,58.7" />
<path stroke="#000000" stroke-width="2" d="M 1314.8,70" />
<path stroke="#000000" stroke-width="2" d="M 1314.8,25" />
<path stroke="#000000" stroke-width="2" d="M 1314.8,25 1316.8,24.9 1318.4,24.6 1319.7,24.1 1320.5,23.6 1321.1,22.9 1321.4,22.2 1321.4,21.4 1321.3,20.7 1320.9,20 1320.4,19.4 1319.8,18.9 1319.1,18.5 1318.4,18.3 1317.6,18.4 1316.9,18.7 1316.2,19.2 1315.6,20.1 1315.2,21.4 1314.9,23 1314.8,25 1314.8,40" />
<path stroke="#000000" stroke-width="2" d="M 1351.4,70" />
<path stroke="#000000" stroke-width="2" d="M 1371.4,30 1369.7,30 1368,30.2 1366.2,30.5 1364.6,30.9 1362.9,31.5 1361.3,32.2 1359.8,33.1 1358.4,34.1 1357.1,35.2 1355.8,36.5 1354.7,37.8 1353.7,39.2 1352.8,40.7 1352.1,42.3 1351.5,44 1351,45.7 1350.7,47.4 1350.6,49.1 1350.6,50.9 1350.7,52.6 1351,54.3 1351.5,56 1352.1,57.6 1352.8,59.2 1353.7,60.7 1354.7,62.2 1355.8,63.5 1357.1,64.7 1358.4,65.8 1359.8,66.8 1361.3,67.7 1362.9,68.5 1364.6,69.1 1366.2,69.5 1368,69.8 1369.7,70" />
<path stroke="#000000" stroke-width="2" d="M 1369.7,50" />
<path stroke="#000000" stroke-width="2" d="M 1337.7,50 1377.7,50" />
<path stroke="#000000" stroke-width="2" d="M 1407.7,70" />
</svg>