<svg xmlns="http://www.w3.org/2000/svg" width="1282.293220064848" height="102.0" style="fill:none; stroke-linecap:round;">
    <rect width="100%" height="100%" fill="#FFFFFF" />
<path stroke="#000000" stroke-width="2" d="M 550,75" />
<path stroke="#000000" stroke-width="2" d="M 30,30 29.1,30 28.3,30.1 27.4,30.2 26.6,30.5 25.7,30.8 24.9,31.1 24.2,31.6 23.5,32.1 22.8,32.6 22.2,33.2 21.6,33.9 21.1,34.6 20.7,35.4 20.3,36.2 20,37 19.8,37.8 19.6,38.7 19.6,39.6 19.6,40.4 19.6,41.3 19.8,42.2 20,43 20.3,43.8 20.7,44.6 21.1,45.4 21.6,46.1 22.2,46.7 22.8,47.4 23.5,47.9 24.2,48.4 24.9,48.9 25.7,49.2 26.6,49.5 27.4,49.8 28.3,49.9 29.1,50 34.1,50 34.1,70" />
<path stroke="#000000" stroke-width="2" d="M 64.1,70" />
<path stroke="#000000" stroke-width="2" d="M 84.1,70 85.9,70 87.6,69.8 89.3,69.5 91,69.1 92.7,68.5 94.2,67.8 95.7,66.9 97.2,65.9 98.5,64.8 99.7,63.5 100.9,62.2 101.9,60.8 102.7,59.3 103.5,57.7 104.1,56 104.5,54.3 104.8,52.6 105,50.9 105,49.1 104.8,47.4 104.5,45.7 104.1,44 103.5,42.4 102.7,40.8 101.9,39.3 100.9,37.8 99.7,36.5 98.5,35.3 97.2,34.2 95.7,33.2 94.2,32.3 92.7,31.5 91,30.9 89.3,30.5 87.6,30.2 85.9,30 84.1,30 82.4,30.2 80.7,30.5 79,30.9 77.3,31.5 75.8,32.3 74.3,33.2 72.8,34.2 71.5,35.3 70.3,36.5 69.1,37.8 68.1,39.3 67.3,40.8 66.5,42.4 65.9,44 65.5,45.7 65.2,47.4 65,49.1 65,50.9 65.2,52.6 65.5,54.3 65.9,56 66.5,57.7 67.3,59.3 68.1,60.8 69.1,62.2 70.3,63.5 71.5,64.8 72.8,65.9 74.3,66.9 75.8,67.8 77.3,68.5 79,69.1 80.7,69.5 82.4,69.8 84.1,70" />
<path stroke="#000000" stroke-width="2" d="M 111.6,70" />
<path stroke="#000000" stroke-width="2" d="M 111.6,25" />
<path stroke="#000000" stroke-width="2" d="M 111.6,25 113.7,24.9 115.3,24.6 116.5,24.1 117.4,23.6 118,22.9 118.3,22.2 118.3,21.4 118.1,20.7 117.8,20 117.3,19.4 116.7,18.9 116,18.5 115.2,18.3 114.5,18.4 113.8,18.7 113.1,19.2 112.5,20.1 112.1,21.4 111.8,23 111.6,25 111.6,40" />
<path stroke="#000000" stroke-width="2" d="M 148.3,70" />
<path stroke="#000000" stroke-width="2" d="M 160.3,54" />
<path stroke="#000000" stroke-width="2" d="M 160.3,54 160.1,49.9 159.5,46.7 158.6,44.2 157.4,42.5 156.1,41.3 154.6,40.8 153.1,40.7 151.7,41 150.3,41.7 149.1,42.8 148.1,44 147.3,45.4 147,46.8 147.1,48.3 147.6,49.8 148.8,51.1 150.5,52.3 153,53.2 156.2,53.8 160.3,54 168.3,54" />
<path stroke="#000000" stroke-width="2" d="M 168.3,54 170,53.4 171.7,52.7 173.2,51.9 174.6,51.2 175.9,50.3 177.1,49.4 178.1,48.5 179.1,47.5 180,46.5 180.8,45.5 181.5,44.4 182.1,43.3 182.7,42.2 183.1,41.1 183.5,39.9 183.8,38.8 184,37.6 184.2,36.4 184.3,35.2 184.3,34" />
<path stroke="#000000" stroke-width="2" d="M 191,70" />
<path stroke="#000000" stroke-width="2" d="M 191,20 211,20" />
<path stroke="#000000" stroke-width="2" d="M 217.6,70" />
<path stroke="#000000" stroke-width="2" d="M 227.6,20 220,38.5" />
<path stroke="#000000" stroke-width="2" d="M 220,38.5 222,38.4 223.6,38.1 224.9,37.6 225.7,37 226.3,36.4 226.6,35.6 226.6,34.9 226.5,34.2 226.1,33.5 225.6,32.9 225,32.4 224.3,32 223.6,31.8 222.8,31.9 222.1,32.1 221.4,32.7 220.8,33.6 220.4,34.8 220.1,36.4 220,38.5 220,53.5" />
<path stroke="#000000" stroke-width="2" d="M 257.6,70" />
<path stroke="#000000" stroke-width="2" d="M 273.6,30 253.8,49.8 273.6,69.6" />
<path stroke="#000000" stroke-width="2" d="M 280.3,70" />
<path stroke="#000000" stroke-width="2" d="M 280.3,20" />
<path stroke="#000000" stroke-width="2" d="M 280.3,20 281.7,20.1 283,20.6 284.1,21.2 285.1,22.1 285.9,23.1 286.6,24.3 287.1,25.6 287.5,27 287.7,28.5 287.8,30 287.7,31.5 287.5,33 287.1,34.4 286.6,35.7 285.9,36.9 285.1,37.9 284.1,38.8 283,39.4 281.7,39.9 280.3,40" />
<path stroke="#000000" stroke-width="2" d="M 317.8,70" />
<path stroke="#000000" stroke-width="2" d="M 333.8,30 314,49.8 333.8,69.6" />
<path stroke="#000000" stroke-width="2" d="M 340.5,70" />
<path stroke="#000000" stroke-width="2" d="M 340.5,50 348.1,68.5" />
<path stroke="#000000" stroke-width="2" d="M 354.8,70" />
<path stroke="#000000" stroke-width="2" d="M 354.8,20 374.8,20" />
<path stroke="#000000" stroke-width="2" d="M 404.8,70" />
<path stroke="#000000" stroke-width="2" d="M 404.8,30 404.8,31.4 404.9,32.8 405.2,34.2 405.5,35.5 406,36.8 406.6,38.1 407.3,39.3 408.1,40.4 409,41.5 410,42.5 411,43.4 412.2,44.2 413.4,44.9 414.7,45.5 416,46 417.3,46.3 418.7,46.6 420.1,46.7 421.5,46.7 422.9,46.6 424.2,46.3 425.6,46 426.9,45.5 428.2,44.9 429.4,44.2 430.5,43.4 431.6,42.5 432.6,41.5 433.5,40.4 434.3,39.3 435,38.1 435.6,36.8 436,35.5 436.4,34.2 436.6,32.8 436.8,31.4" />
<path stroke="#000000" stroke-width="2" d="M 443.4,70" />
<path stroke="#000000" stroke-width="2" d="M 443.4,30 453.4,30 453.4,70" />
<path stroke="#000000" stroke-width="2" d="M 483.4,70" />
<path stroke="#000000" stroke-width="2" d="M 483.4,70" />
<path stroke="#000000" stroke-width="2" d="M 483.4,70 484.6,70 485.5,70.2 486.4,70.4 487.1,70.7 487.6,71 488.1,71.5 488.4,71.9 488.6,72.5 488.7,73.1 488.7,73.8 488.5,74.4 488.3,75.2 488,76 487.6,76.8 487.1,77.6 486.5,78.4 485.8,79.3 485.1,80.2 484.3,81.1 483.4,82" />
<path stroke="#000000" stroke-width="2" d="M 518.7,70" />
<path stroke="#000000" stroke-width="2" d="M 518.7,30 534,67" />
<path stroke="#000000" stroke-width="2" d="M 540.7,70" />
<path stroke="#000000" stroke-width="2" d="M 540.7,40 540.7,39.3 540.7,38.6 540.9,37.9 541,37.2 541.3,36.6 541.6,36 541.9,35.4 542.3,34.8 542.8,34.2 543.3,33.8 543.8,33.3 544.4,32.9 545,32.6 545.6,32.3 546.3,32 546.9,31.8 547.6,31.7 548.3,31.7 549,31.7 549.7,31.7 550.4,31.8 551.1,32 551.7,32.3 552.4,32.6 553,32.9 553.5,33.3 554.1,33.8 554.6,34.2 555,34.8 555.4,35.4 555.8,36 556.1,36.6 556.3,37.2 556.5,37.9 556.6,38.6 556.7,39.3" />
<path stroke="#000000" stroke-width="2" d="M 556.7,39.3 554.6,39.2 553,38.9 551.8,38.4 550.9,37.9 550.3,37.2 550,36.5 550,35.7 550.2,35 550.5,34.3 551,33.7 551.6,33.2 552.3,32.8 553.1,32.6 553.8,32.7 554.5,33 555.2,33.5 555.8,34.4 556.3,35.7 556.5,37.3 556.7,39.3 556.7,43.3" />
<path stroke="#000000" stroke-width="2" d="M 556.7,43.3 556.3,44.2 556,45 555.6,45.7 555.2,46.4 554.8,47.1 554.4,47.7 553.9,48.2 553.4,48.7 552.9,49.2 552.4,49.6 551.9,49.9 551.3,50.2 550.8,50.5 550.2,50.7 549.6,50.9 549,51 548.4,51.2 547.9,51.2 547.3,51.3 546.7,51.3" />
<path stroke="#000000" stroke-width="2" d="M 586.7,70" />
<path stroke="#000000" stroke-width="2" d="M 606.7,70 608.4,70 610.1,69.8 611.9,69.5 613.5,69.1 615.2,68.5 616.8,67.8 618.3,66.9 619.7,65.9 621,64.8 622.3,63.5 623.4,62.2 624.4,60.8 625.3,59.3 626,57.7 626.6,56 627.1,54.3 627.4,52.6 627.5,50.9 627.5,49.1 627.4,47.4 627.1,45.7 626.6,44 626,42.4 625.3,40.8 624.4,39.3 623.4,37.8 622.3,36.5 621,35.3 619.7,34.2 618.3,33.2 616.8,32.3 615.2,31.5 613.5,30.9 611.9,30.5 610.1,30.2 608.4,30 606.7,30 604.9,30.2 603.2,30.5 601.5,30.9 599.9,31.5 598.3,32.3 596.8,33.2 595.4,34.2 594,35.3 592.8,36.5 591.7,37.8 590.7,39.3 589.8,40.8 589.1,42.4 588.5,44 588,45.7 587.7,47.4 587.5,49.1 587.5,50.9 587.7,52.6 588,54.3 588.5,56 589.1,57.7 589.8,59.3 590.7,60.8 591.7,62.2 592.8,63.5 594,64.8 595.4,65.9 596.8,66.9 598.3,67.8 599.9,68.5 601.5,69.1 603.2,69.5 604.9,69.8 606.7,70" />
<path stroke="#000000" stroke-width="2" d="M 634.2,70" />
<path stroke="#000000" stroke-width="2" d="M 634.2,20 641.8,38.5" />
<path stroke="#000000" stroke-width="2" d="M 671.8,70" />
<path stroke="#000000" stroke-width="2" d="M 671.8,40" />
<path stroke="#000000" stroke-width="2" d="M 671.8,40 675.9,39.8 679.1,39.2 681.6,38.3 683.3,37.1 684.5,35.8 685.1,34.3 685.1,32.8 684.8,31.4 684.1,30 683.1,28.8 681.9,27.7 680.5,27 679,26.7 677.5,26.8 676,27.3 674.7,28.5 673.6,30.2 672.6,32.7 672,35.9 671.8,40 671.8,70" />
<path stroke="#000000" stroke-width="2" d="M 691.8,70" />
<path stroke="#000000" stroke-width="2" d="M 691.8,20 696.8,20 696.8,40" />
<path stroke="#000000" stroke-width="2" d="M 726.8,70" />
<path stroke="#000000" stroke-width="2" d="M 746.8,30 731.5,67" />
<path stroke="#000000" stroke-width="2" d="M 753.5,70" />
<path stroke="#000000" stroke-width="2" d="M 753.5,50 753.5,70 753.5,64 753.5,63.1 753.5,62.3 753.7,61.4 753.9,60.6 754.2,59.7 754.6,58.9 755,58.2 755.5,57.5 756.1,56.8 756.7,56.2 757.4,55.6 758.1,55.1 758.8,54.7 759.6,54.3 760.5,54 761.3,53.8 762.2,53.6 763,53.6" />
<path stroke="#000000" stroke-width="2" d="M 769.7,70" />
<path stroke="#000000" stroke-width="2" d="M 769.7,20" />
<path stroke="#000000" stroke-width="2" d="M 769.7,20 769.8,20 770.3,20 770.9,20 771.8,20.1 772.8,20.2 774,20.3 775.3,20.4 776.7,20.6 778.2,20.9 779.7,21.2 781.2,21.7 782.7,22.2 784.1,22.7 785.4,23.4 786.6,24.2 787.6,25.1 788.5,26.1 789.1,27.3 789.5,28.6 789.7,30" />
<path stroke="#000000" stroke-width="2" d="M 789.7,30 791.6,32.1 792.9,34.1 793.7,35.7 794,37.2 793.9,38.4 793.5,39.4 792.8,40.2 791.9,40.8 790.8,41.1 789.7,41.2 788.6,41.1 787.5,40.8 786.6,40.2 785.9,39.4 785.5,38.4 785.4,37.2 785.7,35.7 786.5,34 787.8,32.1 789.7,30" />
<path stroke="#000000" stroke-width="2" d="M 789.7,30 789.7,29.9 789.7,29.7 789.8,29.4 789.9,29 790,28.4 790.2,27.8 790.5,27.2 791,26.5 791.5,25.7 792.2,25 793,24.3 794,23.5 795.2,22.8 796.6,22.2 798.1,21.6 799.9,21 802,20.6 804.3,20.3 806.8,20.1 809.7,20" />
<path stroke="#000000" stroke-width="2" d="M 809.7,20 811.7,19.9 813.3,19.6 814.6,19.1 815.5,18.6 816,17.9 816.3,17.2 816.3,16.4 816.2,15.7 815.8,15 815.3,14.4 814.7,13.9 814,13.5 813.3,13.3 812.5,13.4 811.8,13.7 811.1,14.2 810.6,15.1 810.1,16.4 809.8,18 809.7,20 809.7,35" />
<path stroke="#000000" stroke-width="2" d="M 846.3,70" />
<path stroke="#000000" stroke-width="2" d="M 846.3,70 857.8,42.3" />
<path stroke="#000000" stroke-width="2" d="M 857.8,42.3 861.9,42.1 865.1,41.5 867.6,40.6 869.3,39.4 870.5,38.1 871.1,36.6 871.1,35.1 870.8,33.6 870.1,32.3 869.1,31 867.9,30 866.5,29.3 865,29 863.5,29.1 862,29.6 860.7,30.8 859.5,32.5 858.6,35 858,38.2 857.8,42.3 857.8,72.3" />
<path stroke="#000000" stroke-width="2" d="M 901.1,70" />
<path stroke="#000000" stroke-width="2" d="M 901.1,30 901.1,70 901.1,58 901.1,56.3 901.3,54.5 901.6,52.8 902,51.1 902.6,49.5 903.4,47.9 904.2,46.4 905.2,45 906.4,43.6 907.6,42.4 908.9,41.3 910.4,40.3 911.9,39.4 913.5,38.7 915.1,38.1 916.8,37.6 918.5,37.3 920.2,37.1" />
<path stroke="#000000" stroke-width="2" d="M 926.9,70" />
<path stroke="#000000" stroke-width="2" d="M 926.9,20 926.9,40 932.6,34.3" />
<path stroke="#000000" stroke-width="2" d="M 962.6,70" />
<path stroke="#000000" stroke-width="2" d="M 962.6,30 977.9,67" />
<path stroke="#000000" stroke-width="2" d="M 984.5,70" />
<path stroke="#000000" stroke-width="2" d="M 994.5,20 986.9,38.5" />
<path stroke="#000000" stroke-width="2" d="M 1001.2,70" />
<path stroke="#000000" stroke-width="2" d="M 1001.2,20 1001.2,40 1001.2,34 1001.2,33.1 1001.3,32.3 1001.4,31.4 1001.7,30.6 1002,29.7 1002.3,28.9 1002.8,28.2 1003.3,27.5 1003.8,26.8 1004.4,26.2 1005.1,25.6 1005.8,25.1 1006.6,24.7 1007.4,24.3 1008.2,24 1009,23.8 1009.9,23.6 1010.8,23.6" />
<path stroke="#000000" stroke-width="2" d="M 1017.4,70" />
<path stroke="#000000" stroke-width="2" d="M 1017.4,70 1032.7,33 1032.7,34.4 1032.9,35.8 1033.1,37.2 1033.5,38.6 1033.9,39.9 1034.5,41.1 1035.2,42.3 1036,43.5 1036.9,44.6 1037.9,45.5 1039,46.4 1040.1,47.2 1041.3,47.9 1042.6,48.5 1043.9,49 1045.3,49.4 1046.6,49.6 1048,49.7 1049.4,49.7 1050.8,49.6 1052.2,49.4 1053.5,49 1054.8,48.5 1056.1,47.9 1057.3,47.2 1058.5,46.4 1059.5,45.5 1060.5,44.6 1061.4,43.5 1062.2,42.3 1062.9,41.1 1063.5,39.9 1064,38.6 1064.3,37.2 1064.6,35.8 1064.7,34.4" />
<path stroke="#000000" stroke-width="2" d="M 1094.7,70" />
<path stroke="#000000" stroke-width="2" d="M 1114.7,30 1099.4,67" />
<path stroke="#000000" stroke-width="2" d="M 1121.4,70" />
<path stroke="#000000" stroke-width="2" d="M 1121.4,50 1121.4,54 1121.4,54.5 1121.4,55 1121.5,55.6 1121.6,56.1 1121.8,56.6 1122,57 1122.3,57.5 1122.6,57.9 1122.9,58.3 1123.3,58.7 1123.7,59 1124.1,59.3 1124.6,59.6 1125.1,59.8 1125.6,60 1126.1,60.1 1126.6,60.2 1127.1,60.3 1127.6,60.3 1128.2,60.2 1128.7,60.1 1129.2,60 1129.7,59.8 1130.1,59.6 1130.6,59.3 1131,59 1131.4,58.7 1131.8,58.3 1132.1,57.9 1132.4,57.5 1132.7,57 1132.9,56.6 1133.1,56.1 1133.2,55.6 1133.3,55 1133.4,54.5 1133.4,49.5 1133.4,69.5 1133.4,68.7 1133.4,67.8 1133.6,66.9 1133.8,66.1 1134.1,65.3 1134.5,64.5 1134.9,63.7 1135.4,63 1136,62.3 1136.6,61.7 1137.3,61.2 1138,60.7 1138.7,60.2 1139.5,59.8 1140.3,59.6 1141.2,59.3 1142,59.2 1142.9,59.1" />
<path stroke="#000000" stroke-width="2" d="M 1149.6,70" />
<path stroke="#000000" stroke-width="2" d="M 1149.6,50 1149.8,50 1149.8,50.2 1149.6,50.2 1149.6,50" />
<path stroke="#000000" stroke-width="2" d="M 1179.8,70" />
<path stroke="#000000" stroke-width="2" d="M 1181.8,50 1187.1,37.1 1187.3,36.7 1187.4,36.4 1187.5,36.1 1187.5,35.7 1187.5,35.4 1187.5,35 1187.5,34.7 1187.4,34.3 1187.3,34 1187.1,33.7 1187,33.4 1186.8,33.1 1186.6,32.8 1186.3,32.5 1186.1,32.3 1185.8,32.1 1185.5,31.9 1185.2,31.7 1184.9,31.6 1184.6,31.5 1184.2,31.4 1183.9,31.4 1183.5,31.4 1183.2,31.4 1182.8,31.4 1182.5,31.5 1182.1,31.6 1181.8,31.7 1181.5,31.9 1181.2,32.1 1180.9,32.3 1180.7,32.5 1180.5,32.8 1180.2,33.1 1180.1,33.4 1179.9,33.7 1179.8,34 1179.7,34.3 1179.6,34.7 1179.5,35 1179.5,35.4 1179.5,35.7 1179.6,36.1 1179.7,36.4 1179.8,36.7 1179.9,37.1 1180.1,37.4 1180.2,37.7 1180.5,37.9 1180.7,38.2 1180.9,38.4 1181.2,38.7 1181.5,38.8 1181.8,39 1182.1,39.1 1182.5,39.2 1182.8,39.3 1183.2,39.4 1183.5,39.4 1183.9,39.4 1196.8,34" />
<path stroke="#000000" stroke-width="2" d="M 1196.8,34 1194.8,33.9 1193.2,33.6 1191.9,33.1 1191,32.6 1190.5,31.9 1190.2,31.2 1190.1,30.4 1190.3,29.7 1190.7,29 1191.2,28.4 1191.8,27.9 1192.5,27.5 1193.2,27.3 1194,27.4 1194.7,27.7 1195.4,28.2 1195.9,29.1 1196.4,30.4 1196.7,32 1196.8,34 1196.8,49" />
<path stroke="#000000" stroke-width="2" d="M 1203.5,70" />
<path stroke="#000000" stroke-width="2" d="M 1203.5,25" />
<path stroke="#000000" stroke-width="2" d="M 1203.5,25 1205.5,24.9 1207.1,24.6 1208.3,24.1 1209.2,23.6 1209.8,22.9 1210.1,22.2 1210.1,21.4 1209.9,20.7 1209.6,20 1209.1,19.4 1208.5,18.9 1207.8,18.5 1207,18.3 1206.3,18.4 1205.6,18.7 1204.9,19.2 1204.3,20.1 1203.9,21.4 1203.6,23 1203.5,25 1203.5,40 1195.8,58.5 1198.1,52.9 1198.4,52.1 1198.8,51.4 1199.3,50.6 1199.8,49.9 1200.4,49.3 1201.1,48.7 1201.8,48.2 1202.5,47.7 1203.3,47.3 1204.1,47 1204.9,46.7 1205.8,46.5" />
<path stroke="#000000" stroke-width="2" d="M 1216.8,70" />
<path stroke="#000000" stroke-width="2" d="M 1216.8,40 1224.4,21.5 1232.1,40" />
<path stroke="#000000" stroke-width="2" d="M 1262.1,70" />
<path stroke="#000000" stroke-width="2" d="M 1262.1,70 1262.3,70 1262.3,70.2 1262.1,70.2 1262.1,70" />
<path stroke="#000000" stroke-width="2" d="M 1292.3,70" />
</svg>