<svg xmlns="http://www.w3.org/2000/svg" width="1244.1463378324265" height="129.98096443163718" style="fill:none; stroke-linecap:round;">
    <rect width="100%" height="100%" fill="#FFFFFF" />
<path stroke="#000000" stroke-width="2" d="M 550,75" />
<path stroke="#000000" stroke-width="2" d="M 36,30 16.2,49.8 36,69.6" />
<path stroke="#000000" stroke-width="2" d="M 42.7,70" />
<path stroke="#000000" stroke-width="2" d="M 42.7,20 62.7,20 63.5,20 64.4,20.1 65.3,20.2 66.1,20.5 66.9,20.8 67.7,21.1 68.5,21.6 69.2,22.1 69.9,22.6 70.5,23.2 71,23.9 71.5,24.6 72,25.4 72.3,26.2 72.6,27 72.9,27.8 73,28.7 73.1,29.6 73.1,30.4 73,31.3 72.9,32.2 72.6,33 72.3,33.8 72,34.6 71.5,35.4 71,36.1 70.5,36.7 69.9,37.4 69.2,37.9 68.5,38.4 67.7,38.9 66.9,39.2 66.1,39.5 65.3,39.8 64.4,39.9 63.5,40" />
<path stroke="#000000" stroke-width="2" d="M 103.1,70" />
<path stroke="#000000" stroke-width="2" d="M 103.1,30 103.1,50 108.8,44.3 98.9,54.2 108.8,64.1" />
<path stroke="#000000" stroke-width="2" d="M 115.4,70" />
<path stroke="#000000" stroke-width="2" d="M 115.4,30 115.4,31.4 115.5,32.8 115.8,34.2 116.1,35.5 116.6,36.8 117.2,38.1 117.9,39.3 118.7,40.4 119.6,41.5 120.6,42.5 121.7,43.4 122.8,44.2 124,44.9 125.3,45.5 126.6,46 127.9,46.3 129.3,46.6 130.7,46.7 132.1,46.7 133.5,46.6 134.9,46.3 136.2,46 137.5,45.5 138.8,44.9 140,44.2 141.1,43.4 142.2,42.5 143.2,41.5 144.1,40.4 144.9,39.3 145.6,38.1 146.2,36.8 146.7,35.5 147,34.2 147.3,32.8 147.4,31.4" />
<path stroke="#000000" stroke-width="2" d="M 154.1,70" />
<path stroke="#000000" stroke-width="2" d="M 154.1,20 154.3,20 154.3,20.2 154.1,20.2 154.1,20" />
<path stroke="#000000" stroke-width="2" d="M 184.3,70" />
<path stroke="#000000" stroke-width="2" d="M 184.3,70 184.5,70 184.5,70.2 184.3,70.2 184.3,70" />
<path stroke="#000000" stroke-width="2" d="M 191.1,70" />
<path stroke="#000000" stroke-width="2" d="M 201.1,30 193.5,48.5 193.5,68.5 199.1,62.8" />
<path stroke="#000000" stroke-width="2" d="M 207.8,70" />
<path stroke="#000000" stroke-width="2" d="M 207.8,50 208,50 208,50.2 207.8,50.2 207.8,50" />
<path stroke="#000000" stroke-width="2" d="M 238,70" />
<path stroke="#000000" stroke-width="2" d="M 238,30 257.8,49.8 238,69.6" />
<path stroke="#000000" stroke-width="2" d="M 264.5,70" />
<path stroke="#000000" stroke-width="2" d="M 266.5,40 271.8,27.1 271.9,26.7 272,26.4 272.1,26.1 272.2,25.7 272.2,25.4 272.2,25 272.1,24.7 272,24.3 271.9,24 271.8,23.7 271.6,23.4 271.5,23.1 271.2,22.8 271,22.5 270.8,22.3 270.5,22.1 270.2,21.9 269.9,21.7 269.6,21.6 269.2,21.5 268.9,21.4 268.5,21.4 268.2,21.4 267.8,21.4 267.5,21.4 267.1,21.5 266.8,21.6 266.5,21.7 266.2,21.9 265.9,22.1 265.6,22.3 265.4,22.5 265.1,22.8 264.9,23.1 264.7,23.4 264.6,23.7 264.4,24 264.3,24.3 264.2,24.7 264.2,25 264.2,25.4 264.2,25.7 264.2,26.1 264.3,26.4 264.4,26.7 264.6,27.1 264.7,27.4 264.9,27.7 265.1,27.9 265.4,28.2 265.6,28.4 265.9,28.7 266.2,28.8 266.5,29 266.8,29.1 267.1,29.2 267.5,29.3 267.8,29.4 268.2,29.4 268.5,29.4 281.5,24 281.5,44 281.5,38 281.5,37.1 281.5,36.3 281.7,35.4 281.9,34.6 282.2,33.7 282.6,32.9 283,32.2 283.5,31.5 284.1,30.8 284.7,30.2 285.4,29.6 286.1,29.1 286.8,28.7 287.6,28.3 288.5,28 289.3,27.8 290.2,27.7 291,27.6 296,27.6 296,47.6" />
<path stroke="#000000" stroke-width="2" d="M 302.7,70" />
<path stroke="#000000" stroke-width="2" d="M 302.7,50 302.7,50.7 302.7,51.4 302.9,52.1 303.1,52.8 303.3,53.4 303.6,54 303.9,54.6 304.3,55.2 304.8,55.8 305.3,56.2 305.8,56.7 306.4,57.1 307,57.4 307.6,57.7 308.3,58 308.9,58.2 309.6,58.3 310.3,58.3 311,58.3 311.7,58.3 312.4,58.2 313.1,58 313.7,57.7 314.4,57.4 315,57.1 315.6,56.7 316.1,56.2 316.6,55.8 317,55.2 317.4,54.6 317.8,54 318.1,53.4 318.3,52.8 318.5,52.1 318.6,51.4 318.7,50.7 318.7,51.4 318.7,52.1 318.9,52.8 319,53.5 319.3,54.1 319.6,54.7 319.9,55.3 320.3,55.9 320.8,56.5 321.3,56.9 321.8,57.4 322.4,57.8 323,58.1 323.6,58.4 324.3,58.7 324.9,58.9 325.6,59 326.3,59 327,59 327.7,59 328.4,58.9 329.1,58.7 329.7,58.4 330.4,58.1 331,57.8 331.5,57.4 332.1,56.9 332.6,56.5 333,55.9 333.4,55.3 333.8,54.7 334.1,54.1 334.3,53.5 334.5,52.8 334.6,52.1 334.7,51.4" />
<path stroke="#000000" stroke-width="2" d="M 341.3,70" />
<path stroke="#000000" stroke-width="2" d="M 341.3,30 341.5,30 341.5,30.2 341.3,30.2 341.3,30" />
<path stroke="#000000" stroke-width="2" d="M 371.5,70" />
<path stroke="#000000" stroke-width="2" d="M 371.5,30 371.5,70 371.5,58 371.5,56.3 371.7,54.5 372,52.8 372.4,51.1 373,49.5 373.8,47.9 374.6,46.4 375.6,45 376.8,43.6 378,42.4 379.3,41.3 380.8,40.3 382.3,39.4 383.9,38.7 385.5,38.1 387.2,37.6 388.9,37.3 390.6,37.1" />
<path stroke="#000000" stroke-width="2" d="M 397.3,70" />
<path stroke="#000000" stroke-width="2" d="M 397.3,20 405,38.5 412.6,20" />
<path stroke="#000000" stroke-width="2" d="M 419.3,70" />
<path stroke="#000000" stroke-width="2" d="M 419.3,40" />
<path stroke="#000000" stroke-width="2" d="M 419.3,40 423.3,39.8 426.6,39.2 429,38.3 430.8,37.1 431.9,35.8 432.5,34.3 432.6,32.8 432.2,31.4 431.5,30 430.5,28.8 429.3,27.7 427.9,27 426.4,26.7 424.9,26.8 423.5,27.3 422.2,28.5 421,30.2 420.1,32.7 419.5,35.9 419.3,40 419.3,70" />
<path stroke="#000000" stroke-width="2" d="M 439.2,70" />
<path stroke="#000000" stroke-width="2" d="M 459.2,30 443.9,67" />
<path stroke="#000000" stroke-width="2" d="M 465.9,70" />
<path stroke="#000000" stroke-width="2" d="M 465.9,20 466.8,20 467.7,20.1 468.5,20.2 469.4,20.5 470.2,20.8 471,21.1 471.7,21.6 472.4,22.1 473.1,22.6 473.7,23.2 474.3,23.9 474.8,24.6 475.2,25.4 475.6,26.2 475.9,27 476.1,27.8 476.3,28.7 476.3,29.6 476.3,30.4 476.3,31.3 476.1,32.2 475.9,33 475.6,33.8 475.2,34.6 474.8,35.4 474.3,36.1 473.7,36.7 473.1,37.4 472.4,37.9 471.7,38.4 471,38.9 470.2,39.2 469.4,39.5 468.5,39.8 467.7,39.9 466.8,40" />
<path stroke="#000000" stroke-width="2" d="M 506.3,70" />
<path stroke="#000000" stroke-width="2" d="M 506.3,70 506.5,70 506.5,70.2 506.3,70.2 506.3,70" />
<path stroke="#000000" stroke-width="2" d="M 513.2,70" />
<path stroke="#000000" stroke-width="2" d="M 529.2,30" />
<path stroke="#000000" stroke-width="2" d="M 529.2,30 529,34.1 528.4,37.3 527.5,39.8 526.3,41.5 525,42.7 523.5,43.2 522,43.3 520.6,43 519.2,42.3 518,41.2 517,40 516.2,38.6 515.9,37.2 516,35.7 516.6,34.2 517.7,32.9 519.5,31.7 521.9,30.8 525.1,30.2 529.2,30 549.2,30" />
<path stroke="#000000" stroke-width="2" d="M 555.9,70" />
<path stroke="#000000" stroke-width="2" d="M 560.9,30 555.9,30 555.9,50 555.9,49.3 555.9,48.6 556.1,47.9 556.2,47.2 556.5,46.6 556.8,46 557.1,45.4 557.5,44.8 558,44.2 558.5,43.8 559,43.3 559.6,42.9 560.2,42.6 560.8,42.3 561.5,42 562.1,41.8 562.8,41.7 563.5,41.7 564.2,41.7 564.9,41.7 565.6,41.8 566.3,42 566.9,42.3 567.6,42.6 568.2,42.9 568.7,43.3 569.3,43.8 569.8,44.2 570.2,44.8 570.6,45.4 571,46 571.3,46.6 571.5,47.2 571.7,47.9 571.8,48.6 571.9,49.3" />
<path stroke="#000000" stroke-width="2" d="M 578.5,70" />
<path stroke="#000000" stroke-width="2" d="M 586.5,50" />
<path stroke="#000000" stroke-width="2" d="M 586.5,50 586.4,52 586.1,53.6 585.7,54.9 585.1,55.8 584.4,56.3 583.7,56.6 582.9,56.7 582.2,56.5 581.5,56.1 580.9,55.6 580.4,55 580,54.3 579.9,53.6 579.9,52.8 580.2,52.1 580.8,51.4 581.7,50.9 582.9,50.4 584.5,50.1 586.5,50 596.5,50" />
<path stroke="#000000" stroke-width="2" d="M 626.5,70" />
<path stroke="#000000" stroke-width="2" d="M 642.5,30 622.7,49.8 642.5,69.6" />
<path stroke="#000000" stroke-width="2" d="M 649.2,70" />
<path stroke="#000000" stroke-width="2" d="M 659.2,50 658.3,50 657.5,50.1 656.6,50.2 655.8,50.5 654.9,50.8 654.1,51.1 653.4,51.6 652.7,52.1 652,52.6 651.4,53.2 650.8,53.9 650.3,54.6 649.9,55.4 649.5,56.2 649.2,57 649,57.8 648.8,58.7 648.8,59.6 648.8,60.4 648.8,61.3 649,62.2 649.2,63 649.5,63.8 649.9,64.6 650.3,65.4 650.8,66.1 651.4,66.7 652,67.4 652.7,67.9 653.4,68.4 654.1,68.9 654.9,69.2 655.8,69.5 656.6,69.8 657.5,69.9 658.3,70 663.3,70 663.3,90 663.3,110" />
<path stroke="#000000" stroke-width="2" d="M 670,70" />
<path stroke="#000000" stroke-width="2" d="M 670,20 670,20.7 670,21.4 670.2,22.1 670.4,22.8 670.6,23.4 670.9,24 671.2,24.6 671.6,25.2 672.1,25.8 672.6,26.2 673.1,26.7 673.7,27.1 674.3,27.4 674.9,27.7 675.6,28 676.2,28.2 676.9,28.3 677.6,28.3 678.3,28.3 679,28.3 679.7,28.2 680.4,28 681,27.7 681.7,27.4 682.3,27.1 682.9,26.7 683.4,26.2 683.9,25.8 684.3,25.2 684.7,24.6 685.1,24 685.4,23.4 685.6,22.8 685.8,22.1 685.9,21.4 686,20.7 686,21.4 686,22.1 686.2,22.8 686.3,23.5 686.6,24.1 686.9,24.7 687.2,25.3 687.6,25.9 688.1,26.5 688.6,26.9 689.1,27.4 689.7,27.8 690.3,28.1 690.9,28.4 691.6,28.7 692.2,28.9 692.9,29 693.6,29 694.3,29 695,29 695.7,28.9 696.4,28.7 697,28.4 697.7,28.1 698.3,27.8 698.8,27.4 699.4,26.9 699.9,26.5 700.3,25.9 700.7,25.3 701.1,24.7 701.4,24.1 701.6,23.5 701.8,22.8 701.9,22.1 702,21.4" />
<path stroke="#000000" stroke-width="2" d="M 732,70" />
<path stroke="#000000" stroke-width="2" d="M 732,30 732,38 732,39 732,40.1 732.2,41.1 732.5,42.1 732.9,43.1 733.3,44.1 733.8,45 734.4,45.8 735.1,46.6 735.8,47.4 736.6,48 737.5,48.6 738.4,49.2 739.4,49.6 740.3,50 741.3,50.2 742.4,50.4 743.4,50.5 744.5,50.5 745.5,50.4 746.5,50.2 747.6,50 748.5,49.6 749.5,49.2 750.4,48.6 751.3,48 752.1,47.4 752.8,46.6 753.5,45.8 754.1,45 754.6,44.1 755,43.1 755.4,42.1 755.7,41.1 755.8,40.1 755.9,39 755.9,29 755.9,69" />
<path stroke="#000000" stroke-width="2" d="M 762.6,70" />
<path stroke="#000000" stroke-width="2" d="M 762.6,20 770.3,38.5" />
<path stroke="#000000" stroke-width="2" d="M 776.9,70" />
<path stroke="#000000" stroke-width="2" d="M 776.9,20 777.1,20 777.1,20.2 776.9,20.2 776.9,20" />
<path stroke="#000000" stroke-width="2" d="M 807.1,70" />
<path stroke="#000000" stroke-width="2" d="M 817.1,30 809.5,48.5 799.6,58.4 809.5,68.3" />
<path stroke="#000000" stroke-width="2" d="M 823.8,70" />
<path stroke="#000000" stroke-width="2" d="M 825.8,20 834.3,28.5" />
<path stroke="#000000" stroke-width="2" d="M 842.8,20 823,39.8 823.8,39.8 824.7,39.9 825.6,40 826.4,40.3 827.2,40.6 828,40.9 828.8,41.4 829.5,41.9 830.2,42.4 830.8,43 831.3,43.7 831.8,44.4 832.3,45.2 832.6,46 832.9,46.8 833.2,47.6 833.3,48.5 833.4,49.4 833.4,50.2 833.3,51.1 833.2,52 832.9,52.8 832.6,53.6 832.3,54.4 831.8,55.2 831.3,55.9 830.8,56.5 830.2,57.2 829.5,57.7 828.8,58.2 828,58.7 827.2,59 826.4,59.3 825.6,59.6 824.7,59.7 823.8,59.8" />
<path stroke="#000000" stroke-width="2" d="M 872.8,70" />
<path stroke="#000000" stroke-width="2" d="M 892.8,30 892.8,70 872.8,70" />
<path stroke="#000000" stroke-width="2" d="M 899.4,70" />
<path stroke="#000000" stroke-width="2" d="M 899.4,55" />
<path stroke="#000000" stroke-width="2" d="M 899.4,55 901.5,54.9 903.1,54.6 904.3,54.1 905.2,53.6 905.8,52.9 906,52.2 906.1,51.4 905.9,50.7 905.6,50 905.1,49.4 904.4,48.9 903.7,48.5 903,48.3 902.3,48.4 901.5,48.7 900.9,49.2 900.3,50.1 899.8,51.4 899.5,53 899.4,55 899.4,70 891.8,88.5" />
<path stroke="#000000" stroke-width="2" d="M 936.1,70" />
<path stroke="#000000" stroke-width="2" d="M 936.1,30 946.1,30 946.1,70" />
<path stroke="#000000" stroke-width="2" d="M 952.7,70" />
<path stroke="#000000" stroke-width="2" d="M 952.7,30 992.7,30" />
<path stroke="#000000" stroke-width="2" d="M 999.4,70" />
<path stroke="#000000" stroke-width="2" d="M 1015.4,30 1015.4,60" />
<path stroke="#000000" stroke-width="2" d="M 1015.4,60 1015.2,64.1 1014.6,67.3 1013.7,69.8 1012.5,71.5 1011.2,72.7 1009.7,73.2 1008.2,73.3 1006.8,73 1005.4,72.3 1004.2,71.2 1003.2,70 1002.5,68.6 1002.1,67.2 1002.2,65.7 1002.8,64.2 1003.9,62.9 1005.7,61.7 1008.1,60.8 1011.4,60.2 1015.4,60" />
<path stroke="#000000" stroke-width="2" d="M 1022.1,70" />
<path stroke="#000000" stroke-width="2" d="M 1022.1,20 1023,20 1023.8,20.1 1024.7,20.2 1025.5,20.5 1026.3,20.8 1027.1,21.1 1027.9,21.6 1028.6,22.1 1029.3,22.6 1029.9,23.2 1030.4,23.9 1031,24.6 1031.4,25.4 1031.8,26.2 1032.1,27 1032.3,27.8 1032.4,28.7 1032.5,29.6 1032.5,30.4 1032.4,31.3 1032.3,32.2 1032.1,33 1031.8,33.8 1031.4,34.6 1031,35.4 1030.4,36.1 1029.9,36.7 1029.3,37.4 1028.6,37.9 1027.9,38.4 1027.1,38.9 1026.3,39.2 1025.5,39.5 1024.7,39.8 1023.8,39.9 1023,40" />
<path stroke="#000000" stroke-width="2" d="M 1062.5,70" />
<path stroke="#000000" stroke-width="2" d="M 1062.5,30 1062.5,50 1072.5,50 1092.5,50" />
<path stroke="#000000" stroke-width="2" d="M 1122.5,70" />
<path stroke="#000000" stroke-width="2" d="M 1122.5,70 1122.7,70 1122.7,70.2 1122.5,70.2 1122.5,70" />
<path stroke="#000000" stroke-width="2" d="M 1129.4,70" />
<path stroke="#000000" stroke-width="2" d="M 1129.4,30 1144.7,67 1160,30" />
<path stroke="#000000" stroke-width="2" d="M 1166.7,70" />
<path stroke="#000000" stroke-width="2" d="M 1166.7,30 1166.7,30.7 1166.7,31.4 1166.8,32.1 1167,32.8 1167.3,33.4 1167.6,34 1167.9,34.6 1168.3,35.2 1168.7,35.8 1169.2,36.2 1169.8,36.7 1170.3,37.1 1171,37.4 1171.6,37.7 1172.2,38 1172.9,38.2 1173.6,38.3 1174.3,38.3 1175,38.3 1175.7,38.3 1176.4,38.2 1177.1,38 1177.7,37.7 1178.3,37.4 1178.9,37.1 1179.5,36.7 1180.1,36.2 1180.5,35.8 1181,35.2 1181.4,34.6 1181.7,34 1182,33.4 1182.3,32.8 1182.5,32.1 1182.6,31.4 1182.6,30.7 1182.6,31.4 1182.7,32.1 1182.8,32.8 1183,33.5 1183.2,34.1 1183.5,34.7 1183.9,35.3 1184.3,35.9 1184.7,36.5 1185.2,36.9 1185.8,37.4 1186.3,37.8 1186.9,38.1 1187.6,38.4 1188.2,38.7 1188.9,38.9 1189.6,39 1190.3,39 1191,39 1191.7,39 1192.4,38.9 1193,38.7 1193.7,38.4 1194.3,38.1 1194.9,37.8 1195.5,37.4 1196,36.9 1196.5,36.5 1197,35.9 1197.4,35.3 1197.7,34.7 1198,34.1 1198.3,33.5 1198.4,32.8 1198.6,32.1 1198.6,31.4" />
<path stroke="#000000" stroke-width="2" d="M 1205.3,70" />
<path stroke="#000000" stroke-width="2" d="M 1205.3,20 1205.3,24 1205.3,24.5 1205.3,25 1205.4,25.6 1205.6,26.1 1205.7,26.6 1206,27 1206.2,27.5 1206.5,27.9 1206.9,28.3 1207.2,28.7 1207.6,29 1208.1,29.3 1208.5,29.6 1209,29.8 1209.5,30 1210,30.1 1210.5,30.2 1211,30.3 1211.5,30.3 1212.1,30.2 1212.6,30.1 1213.1,30 1213.6,29.8 1214.1,29.6 1214.5,29.3 1214.9,29 1215.3,28.7 1215.7,28.3 1216,27.9 1216.3,27.5 1216.6,27 1216.8,26.6 1217,26.1 1217.1,25.6 1217.2,25 1217.3,24.5 1217.3,19.5 1217.3,39.5" />
<path stroke="#000000" stroke-width="2" d="M 1223.9,70" />
<path stroke="#000000" stroke-width="2" d="M 1223.9,20 1224.1,20 1224.1,20.2 1223.9,20.2 1223.9,20" />
<path stroke="#000000" stroke-width="2" d="M 1254.1,70" />
</svg>