<svg xmlns="http://www.w3.org/2000/svg" width="1213.3827036537343" height="109.98096443163716" style="fill:none; stroke-linecap:round;">
    <rect width="100%" height="100%" fill="#FFFFFF" />
<path stroke="#000000" stroke-width="2" d="M 550,75" />
<path stroke="#000000" stroke-width="2" d="M 20,30 21.7,30 23.5,30.2 25.2,30.5 26.9,30.9 28.5,31.5 30.1,32.2 31.6,33.1 33,34.1 34.4,35.2 35.6,36.5 36.7,37.8 37.7,39.2 38.6,40.7 39.3,42.3 39.9,44 40.4,45.7 40.7,47.4 40.9,49.1 40.9,50.9 40.7,52.6 40.4,54.3 39.9,56 39.3,57.6 38.6,59.2 37.7,60.7 36.7,62.2 35.6,63.5 34.4,64.7 33,65.8 31.6,66.8 30.1,67.7 28.5,68.5 26.9,69.1 25.2,69.5 23.5,69.8 21.7,70" />
<path stroke="#000000" stroke-width="2" d="M 47.5,70" />
<path stroke="#000000" stroke-width="2" d="M 47.5,30 47.7,30 47.7,30.2 47.5,30.2 47.5,30" />
<path stroke="#000000" stroke-width="2" d="M 77.7,70" />
<path stroke="#000000" stroke-width="2" d="M 77.7,70" />
<path stroke="#000000" stroke-width="2" d="M 77.7,70 78.8,70 79.8,70.2 80.7,70.4 81.4,70.7 81.9,71 82.4,71.5 82.7,71.9 82.9,72.5 83,73.1 83,73.8 82.8,74.4 82.6,75.2 82.3,76 81.9,76.8 81.4,77.6 80.8,78.4 80.1,79.3 79.4,80.2 78.6,81.1 77.7,82" />
<path stroke="#000000" stroke-width="2" d="M 113,70" />
<path stroke="#000000" stroke-width="2" d="M 113,70 113.2,70 113.2,70.2 113,70.2 113,70" />
<path stroke="#000000" stroke-width="2" d="M 119.9,70" />
<path stroke="#000000" stroke-width="2" d="M 123.9,30 140.8,47" />
<path stroke="#000000" stroke-width="2" d="M 157.8,30 118.2,69.6" />
<path stroke="#000000" stroke-width="2" d="M 164.5,70" />
<path stroke="#000000" stroke-width="2" d="M 176.5,56 176.5,56.5 176.4,57 176.3,57.6 176.2,58.1 176,58.6 175.8,59 175.5,59.5 175.2,59.9 174.9,60.3 174.5,60.7 174.1,61 173.7,61.3 173.2,61.6 172.8,61.8 172.3,62 171.8,62.1 171.3,62.2 170.7,62.3 170.2,62.3 169.7,62.2 169.2,62.1 168.7,62 168.2,61.8 167.7,61.6 167.2,61.3 166.8,61 166.4,60.7 166,60.3 165.7,59.9 165.4,59.5 165.1,59 164.9,58.6 164.7,58.1 164.6,57.6 164.5,57 164.5,56.5 164.5,56 164.5,55.5 164.6,55 164.7,54.5 164.9,54 165.1,53.5 165.4,53 165.7,52.6 166,52.2 166.4,51.8 166.8,51.5 167.2,51.2 167.7,50.9 168.2,50.7 168.7,50.5 169.2,50.4 169.7,50.3 170.2,50.3 170.7,50.3 171.3,50.3 171.8,50.4 172.3,50.5 172.8,50.7 173.2,50.9 173.7,51.2 174.1,51.5 174.5,51.8 174.9,52.2 175.2,52.6 175.5,53 175.8,53.5 176,54 176.2,54.5 176.3,55 176.4,55.5 176.5,56 176.5,60" />
<path stroke="#000000" stroke-width="2" d="M 176.5,60 176.2,60.9 175.8,61.7 175.4,62.4 175,63.1 174.6,63.8 174.2,64.4 173.7,64.9 173.2,65.4 172.7,65.9 172.2,66.2 171.7,66.6 171.1,66.9 170.6,67.2 170,67.4 169.4,67.6 168.9,67.7 168.3,67.9 167.7,67.9 167.1,68 166.5,68 166.5,88 166.5,82 166.5,81.1 166.5,80.3 166.7,79.4 166.9,78.6 167.2,77.7 167.6,76.9 168,76.2 168.5,75.5 169.1,74.8 169.7,74.2 170.4,73.6 171.1,73.1 171.8,72.7 172.6,72.3 173.4,72 174.3,71.8 175.2,71.6 176,71.6" />
<path stroke="#000000" stroke-width="2" d="M 206.5,70" />
<path stroke="#000000" stroke-width="2" d="M 206.5,30 210.3,39.2" />
<path stroke="#000000" stroke-width="2" d="M 210.3,39.2 212.2,41.4 213.5,43.3 214.3,45 214.6,46.4 214.5,47.7 214.1,48.7 213.4,49.5 212.5,50 211.4,50.4 210.3,50.5 209.2,50.4 208.1,50 207.2,49.5 206.5,48.7 206.1,47.7 206,46.4 206.3,45 207.1,43.3 208.4,41.4 210.3,39.2 214.1,30 234.1,30" />
<path stroke="#000000" stroke-width="2" d="M 240.8,70" />
<path stroke="#000000" stroke-width="2" d="M 240.8,70 240.8,68.6 240.9,67.2 241.2,65.8 241.5,64.5 242,63.2 242.6,61.9 243.3,60.7 244.1,59.6 245,58.5 246,57.5 247,56.6 248.2,55.8 249.4,55.1 250.6,54.5 252,54 253.3,53.7 254.7,53.4 256.1,53.3 257.5,53.3 258.9,53.4 260.2,53.7 261.6,54 262.9,54.5 264.2,55.1 265.4,55.8 266.5,56.6 267.6,57.5 268.6,58.5 269.5,59.6 270.3,60.7 271,61.9 271.6,63.2 272,64.5 272.4,65.8 272.6,67.2 272.8,68.6" />
<path stroke="#000000" stroke-width="2" d="M 279.4,70" />
<path stroke="#000000" stroke-width="2" d="M 279.4,50 279.4,70 279.4,64 279.4,63.1 279.5,62.3 279.7,61.4 279.9,60.6 280.2,59.7 280.5,58.9 281,58.2 281.5,57.5 282,56.8 282.7,56.2 283.3,55.6 284,55.1 284.8,54.7 285.6,54.3 286.4,54 287.2,53.8 288.1,53.6 289,53.6 309,53.6" />
<path stroke="#000000" stroke-width="2" d="M 339,70" />
<path stroke="#000000" stroke-width="2" d="M 339,30 339,70 339,58 339,56.3 339.1,54.5 339.4,52.8 339.9,51.1 340.5,49.5 341.2,47.9 342.1,46.4 343.1,45 344.2,43.6 345.4,42.4 346.8,41.3 348.2,40.3 349.7,39.4 351.3,38.7 352.9,38.1 354.6,37.6 356.3,37.3 358.1,37.1" />
<path stroke="#000000" stroke-width="2" d="M 364.8,70" />
<path stroke="#000000" stroke-width="2" d="M 364.8,20 369.8,20 369.8,40" />
<path stroke="#000000" stroke-width="2" d="M 376.4,70" />
<path stroke="#000000" stroke-width="2" d="M 376.4,55" />
<path stroke="#000000" stroke-width="2" d="M 376.4,55 378.4,54.9 380.1,54.6 381.3,54.1 382.2,53.6 382.7,52.9 383,52.2 383.1,51.4 382.9,50.7 382.5,50 382,49.4 381.4,48.9 380.7,48.5 380,48.3 379.3,48.4 378.5,48.7 377.9,49.2 377.3,50.1 376.8,51.4 376.5,53 376.4,55 376.4,70 377.3,70 378.2,70.1 379,70.2 379.9,70.5 380.7,70.8 381.5,71.1 382.2,71.6 382.9,72.1 383.6,72.6 384.2,73.2 384.8,73.9 385.3,74.6 385.7,75.4 386.1,76.2 386.4,77 386.6,77.8 386.8,78.7 386.8,79.6 386.8,80.4 386.8,81.3 386.6,82.2 386.4,83 386.1,83.8 385.7,84.6 385.3,85.4 384.8,86.1 384.2,86.7 383.6,87.4 382.9,87.9 382.2,88.4 381.5,88.9 380.7,89.2 379.9,89.5 379,89.8 378.2,89.9 377.3,90" />
<path stroke="#000000" stroke-width="2" d="M 416.8,70" />
<path stroke="#000000" stroke-width="2" d="M 436.8,30 421.5,67" />
<path stroke="#000000" stroke-width="2" d="M 443.5,70" />
<path stroke="#000000" stroke-width="2" d="M 443.5,50 443.5,50.7 443.6,51.4 443.7,52.1 443.9,52.8 444.1,53.4 444.4,54 444.8,54.6 445.2,55.2 445.6,55.8 446.1,56.2 446.6,56.7 447.2,57.1 447.8,57.4 448.4,57.7 449.1,58 449.8,58.2 450.5,58.3 451.2,58.3 451.9,58.3 452.5,58.3 453.2,58.2 453.9,58 454.6,57.7 455.2,57.4 455.8,57.1 456.4,56.7 456.9,56.2 457.4,55.8 457.9,55.2 458.3,54.6 458.6,54 458.9,53.4 459.1,52.8 459.3,52.1 459.4,51.4 459.5,50.7" />
<path stroke="#000000" stroke-width="2" d="M 466.2,70" />
<path stroke="#000000" stroke-width="2" d="M 466.2,50 466.2,70 471.8,64.3" />
<path stroke="#000000" stroke-width="2" d="M 478.5,70" />
<path stroke="#000000" stroke-width="2" d="M 478.5,20 478.5,40 478.5,34 478.5,33.1 478.6,32.3 478.7,31.4 478.9,30.6 479.2,29.7 479.6,28.9 480,28.2 480.5,27.5 481.1,26.8 481.7,26.2 482.4,25.6 483.1,25.1 483.9,24.7 484.7,24.3 485.5,24 486.3,23.8 487.2,23.6 488,23.6" />
<path stroke="#000000" stroke-width="2" d="M 518,70" />
<path stroke="#000000" stroke-width="2" d="M 518,70 518.2,70 518.2,70.2 518,70.2 518,70" />
<path stroke="#000000" stroke-width="2" d="M 524.9,70" />
<path stroke="#000000" stroke-width="2" d="M 524.9,30 540.2,67" />
<path stroke="#000000" stroke-width="2" d="M 546.9,70" />
<path stroke="#000000" stroke-width="2" d="M 546.9,50 566.9,50" />
<path stroke="#000000" stroke-width="2" d="M 596.9,70" />
<path stroke="#000000" stroke-width="2" d="M 616.9,30 601.6,67" />
<path stroke="#000000" stroke-width="2" d="M 623.5,70" />
<path stroke="#000000" stroke-width="2" d="M 623.5,50 631.2,68.5" />
<path stroke="#000000" stroke-width="2" d="M 637.9,70" />
<path stroke="#000000" stroke-width="2" d="M 637.9,40 637.9,39.3 637.9,38.6 638.1,37.9 638.2,37.2 638.5,36.6 638.8,36 639.1,35.4 639.5,34.8 640,34.2 640.5,33.8 641,33.3 641.6,32.9 642.2,32.6 642.8,32.3 643.5,32 644.1,31.8 644.8,31.7 645.5,31.7 646.2,31.7 646.9,31.7 647.6,31.8 648.3,32 648.9,32.3 649.6,32.6 650.2,32.9 650.7,33.3 651.3,33.8 651.8,34.2 652.2,34.8 652.6,35.4 653,36 653.3,36.6 653.5,37.2 653.7,37.9 653.8,38.6 653.9,39.3" />
<path stroke="#000000" stroke-width="2" d="M 683.9,70" />
<path stroke="#000000" stroke-width="2" d="M 683.9,30 683.9,70 695.2,58.7" />
<path stroke="#000000" stroke-width="2" d="M 701.8,70" />
<path stroke="#000000" stroke-width="2" d="M 701.8,30 702,30 702,30.2 701.8,30.2 701.8,30" />
<path stroke="#000000" stroke-width="2" d="M 732,70" />
<path stroke="#000000" stroke-width="2" d="M 732,30 742,30 742,70" />
<path stroke="#000000" stroke-width="2" d="M 748.7,70" />
<path stroke="#000000" stroke-width="2" d="M 748.7,50 748.7,70 748.7,64 748.7,63.1 748.8,62.3 748.9,61.4 749.2,60.6 749.5,59.7 749.8,58.9 750.3,58.2 750.8,57.5 751.3,56.8 751.9,56.2 752.6,55.6 753.3,55.1 754.1,54.7 754.9,54.3 755.7,54 756.5,53.8 757.4,53.6 758.3,53.6" />
<path stroke="#000000" stroke-width="2" d="M 788.3,70" />
<path stroke="#000000" stroke-width="2" d="M 788.3,70 788.5,70 788.5,70.2 788.3,70.2 788.3,70" />
<path stroke="#000000" stroke-width="2" d="M 795.1,70" />
<path stroke="#000000" stroke-width="2" d="M 795.1,30 796.9,30 798.6,30.2 800.3,30.5 802,30.9 803.6,31.5 805.2,32.2 806.7,33.1 808.2,34.1 809.5,35.2 810.7,36.5 811.9,37.8 812.9,39.2 813.7,40.7 814.5,42.3 815.1,44 815.5,45.7 815.8,47.4 816,49.1 816,50.9 815.8,52.6 815.5,54.3 815.1,56 814.5,57.6 813.7,59.2 812.9,60.7 811.9,62.2 810.7,63.5 809.5,64.7 808.2,65.8 806.7,66.8 805.2,67.7 803.6,68.5 802,69.1 800.3,69.5 798.6,69.8 796.9,70" />
<path stroke="#000000" stroke-width="2" d="M 822.6,70" />
<path stroke="#000000" stroke-width="2" d="M 822.6,20 822.6,40 828.3,34.3 848.3,34.3" />
<path stroke="#000000" stroke-width="2" d="M 878.3,70" />
<path stroke="#000000" stroke-width="2" d="M 878.3,70 878.5,70 878.5,70.2 878.3,70.2 878.3,70" />
<path stroke="#000000" stroke-width="2" d="M 908.5,70" />
<path stroke="#000000" stroke-width="2" d="M 908.5,40 908.7,40 908.7,40.2 908.5,40.2 908.5,40" />
<path stroke="#000000" stroke-width="2" d="M 915.4,70" />
<path stroke="#000000" stroke-width="2" d="M 917.4,50 922.7,37.1 922.9,36.7 923,36.4 923,36.1 923.1,35.7 923.1,35.4 923.1,35 923,34.7 923,34.3 922.9,34 922.7,33.7 922.6,33.4 922.4,33.1 922.2,32.8 921.9,32.5 921.7,32.3 921.4,32.1 921.1,31.9 920.8,31.7 920.5,31.6 920.1,31.5 919.8,31.4 919.4,31.4 919.1,31.4 918.7,31.4 918.4,31.4 918.1,31.5 917.7,31.6 917.4,31.7 917.1,31.9 916.8,32.1 916.5,32.3 916.3,32.5 916,32.8 915.8,33.1 915.6,33.4 915.5,33.7 915.3,34 915.2,34.3 915.2,34.7 915.1,35 915.1,35.4 915.1,35.7 915.2,36.1 915.2,36.4 915.3,36.7 915.5,37.1 915.6,37.4 915.8,37.7 916,37.9 916.3,38.2 916.5,38.4 916.8,38.7 917.1,38.8 917.4,39 917.7,39.1 918.1,39.2 918.4,39.3 918.7,39.4 919.1,39.4 919.4,39.4 932.4,34 932.4,34.7 932.4,35.4 932.6,36.1 932.7,36.8 933,37.4 933.3,38 933.6,38.6 934,39.2 934.5,39.8 935,40.2 935.5,40.7 936.1,41.1 936.7,41.4 937.3,41.7 938,42 938.6,42.2 939.3,42.3 940,42.3 940.7,42.3 941.4,42.3 942.1,42.2 942.8,42 943.4,41.7 944.1,41.4 944.7,41.1 945.2,40.7 945.8,40.2 946.3,39.8 946.7,39.2 947.1,38.6 947.5,38 947.8,37.4 948,36.8 948.2,36.1 948.3,35.4 948.4,34.7 949.2,34.7 950.1,34.8 951,34.9 951.8,35.2 952.6,35.5 953.4,35.8 954.2,36.3 954.9,36.8 955.6,37.3 956.2,37.9 956.7,38.6 957.2,39.3 957.7,40.1 958,40.9 958.3,41.7 958.6,42.5 958.7,43.4 958.8,44.3 958.8,45.1 958.7,46 958.6,46.9 958.3,47.7 958,48.5 957.7,49.3 957.2,50.1 956.7,50.8 956.2,51.4 955.6,52.1 954.9,52.6 954.2,53.1 953.4,53.6 952.6,53.9 951.8,54.2 951,54.5 950.1,54.6 949.2,54.7 949.2,53.8 949.3,52.9 949.5,52.1 949.7,51.2 950,50.4 950.4,49.6 950.8,48.9 951.3,48.2 951.9,47.5 952.5,46.9 953.1,46.3 953.9,45.8 954.6,45.4 955.4,45 956.2,44.7 957.1,44.5 957.9,44.3 958.8,44.3" />
<path stroke="#000000" stroke-width="2" d="M 988.8,70" />
<path stroke="#000000" stroke-width="2" d="M 998.8,30 999.3,30 999.8,30 1000.4,30.1 1000.9,30.3 1001.4,30.5 1001.8,30.7 1002.3,30.9 1002.7,31.2 1003.1,31.6 1003.5,31.9 1003.8,32.3 1004.1,32.8 1004.4,33.2 1004.6,33.7 1004.8,34.2 1004.9,34.7 1005,35.2 1005,35.7 1005,36.3 1005,36.8 1004.9,37.3 1004.8,37.8 1004.6,38.3 1004.4,38.8 1004.1,39.2 1003.8,39.6 1003.5,40 1003.1,40.4 1002.7,40.8 1002.3,41.1 1001.8,41.3 1001.4,41.5 1000.9,41.7 1000.4,41.9 999.8,41.9 999.3,42 998.8,42 998.3,41.9 997.8,41.9 997.2,41.7 996.8,41.5 996.3,41.3 995.8,41.1 995.4,40.8 995,40.4 994.6,40 994.3,39.6 994,39.2 993.7,38.8 993.5,38.3 993.3,37.8 993.2,37.3 993.1,36.8 993.1,36.3 993.1,35.7 993.1,35.2 993.2,34.7 993.3,34.2 993.5,33.7 993.7,33.2 994,32.8 994.3,32.3 994.6,31.9 995,31.6 995.4,31.2 995.8,30.9 996.3,30.7 996.8,30.5 997.2,30.3 997.8,30.1 998.3,30 998.8,30 998.8,50 991.1,68.5 993.4,62.9 993.8,62.1 994.2,61.4 994.6,60.6 995.2,59.9 995.8,59.3 996.4,58.7 997.1,58.2 997.8,57.7 998.6,57.3 999.4,57 1000.2,56.7 1001.1,56.5" />
<path stroke="#000000" stroke-width="2" d="M 1035,70" />
<path stroke="#000000" stroke-width="2" d="M 1055,30 1039.7,67 1044.3,55.9 1045,54.3 1045.8,52.7 1046.7,51.2 1047.8,49.9 1049,48.6 1050.3,47.4 1051.7,46.3 1053.1,45.4 1054.7,44.6 1056.3,43.9 1058,43.4 1059.7,43" />
<path stroke="#000000" stroke-width="2" d="M 1066.3,70" />
<path stroke="#000000" stroke-width="2" d="M 1066.3,30 1068.1,30 1069.8,30.2 1071.5,30.5 1073.2,30.9 1074.8,31.5 1076.4,32.2 1077.9,33.1 1079.4,34.1 1080.7,35.2 1081.9,36.5 1083.1,37.8 1084.1,39.2 1084.9,40.7 1085.7,42.3 1086.3,44 1086.7,45.7 1087,47.4 1087.2,49.1 1087.2,50.9 1087,52.6 1086.7,54.3 1086.3,56 1085.7,57.6 1084.9,59.2 1084.1,60.7 1083.1,62.2 1081.9,63.5 1080.7,64.7 1079.4,65.8 1077.9,66.8 1076.4,67.7 1074.8,68.5 1073.2,69.1 1071.5,69.5 1069.8,69.8 1068.1,70" />
<path stroke="#000000" stroke-width="2" d="M 1117.2,70" />
<path stroke="#000000" stroke-width="2" d="M 1137.2,30 1121.9,67" />
<path stroke="#000000" stroke-width="2" d="M 1143.8,70" />
<path stroke="#000000" stroke-width="2" d="M 1143.8,50 1143.8,70 1143.8,64 1143.8,63.1 1143.9,62.3 1144.1,61.4 1144.3,60.6 1144.6,59.7 1145,58.9 1145.4,58.2 1145.9,57.5 1146.5,56.8 1147.1,56.2 1147.7,55.6 1148.5,55.1 1149.2,54.7 1150,54.3 1150.8,54 1151.7,53.8 1152.5,53.6 1153.4,53.6" />
<path stroke="#000000" stroke-width="2" d="M 1160.1,70" />
<path stroke="#000000" stroke-width="2" d="M 1160.1,25" />
<path stroke="#000000" stroke-width="2" d="M 1160.1,25 1162.1,24.9 1163.7,24.6 1164.9,24.1 1165.8,23.6 1166.4,22.9 1166.7,22.2 1166.7,21.4 1166.5,20.7 1166.2,20 1165.7,19.4 1165.1,18.9 1164.4,18.5 1163.6,18.3 1162.9,18.4 1162.2,18.7 1161.5,19.2 1160.9,20.1 1160.5,21.4 1160.2,23 1160.1,25 1160.1,40" />
<path stroke="#000000" stroke-width="2" d="M 1173.4,70" />
<path stroke="#000000" stroke-width="2" d="M 1173.4,50 1193.4,50" />
<path stroke="#000000" stroke-width="2" d="M 1223.4,70" />
</svg>