<svg xmlns="http://www.w3.org/2000/svg" width="1358.859660717175" height="94.68629150101523" style="fill:none; stroke-linecap:round;">
    <rect width="100%" height="100%" fill="#FFFFFF" />
<path stroke="#000000" stroke-width="2" d="M 550,75" />
<path stroke="#000000" stroke-width="2" d="M 20,30 60,30" />
<path stroke="#000000" stroke-width="2" d="M 66.7,70" />
<path stroke="#000000" stroke-width="2" d="M 66.7,50 66.7,54 66.7,54.5 66.7,55 66.8,55.6 66.9,56.1 67.1,56.6 67.3,57 67.6,57.5 67.9,57.9 68.2,58.3 68.6,58.7 69,59 69.4,59.3 69.9,59.6 70.4,59.8 70.9,60 71.4,60.1 71.9,60.2 72.4,60.3 72.9,60.3 73.4,60.2 74,60.1 74.5,60 75,59.8 75.4,59.6 75.9,59.3 76.3,59 76.7,58.7 77.1,58.3 77.4,57.9 77.7,57.5 78,57 78.2,56.6 78.4,56.1 78.5,55.6 78.6,55 78.7,54.5 78.7,49.5 78.7,69.5 78.7,68.7 78.7,67.8 78.9,66.9 79.1,66.1 79.4,65.3 79.8,64.5 80.2,63.7 80.7,63 81.3,62.3 81.9,61.7 82.6,61.2 83.3,60.7 84,60.2 84.8,59.8 85.6,59.6 86.5,59.3 87.3,59.2 88.2,59.1" />
<path stroke="#000000" stroke-width="2" d="M 94.9,70" />
<path stroke="#000000" stroke-width="2" d="M 94.9,50 94.9,54 94.9,54.5 94.9,55 95,55.6 95.1,56.1 95.3,56.6 95.5,57 95.8,57.5 96.1,57.9 96.4,58.3 96.8,58.7 97.2,59 97.6,59.3 98.1,59.6 98.6,59.8 99.1,60 99.6,60.1 100.1,60.2 100.6,60.3 101.1,60.3 101.7,60.2 102.2,60.1 102.7,60 103.2,59.8 103.6,59.6 104.1,59.3 104.5,59 104.9,58.7 105.3,58.3 105.6,57.9 105.9,57.5 106.2,57 106.4,56.6 106.6,56.1 106.7,55.6 106.8,55 106.9,54.5 106.9,49.5 106.9,69.5" />
<path stroke="#000000" stroke-width="2" d="M 113.5,70" />
<path stroke="#000000" stroke-width="2" d="M 113.5,30 113.7,30 113.7,30.2 113.5,30.2 113.5,30" />
<path stroke="#000000" stroke-width="2" d="M 143.7,70" />
<path stroke="#000000" stroke-width="2" d="M 159.7,30 139.9,49.8 159.7,69.6" />
<path stroke="#000000" stroke-width="2" d="M 166.4,70" />
<path stroke="#000000" stroke-width="2" d="M 166.4,20 171.4,20 171.4,40" />
<path stroke="#000000" stroke-width="2" d="M 201.4,70" />
<path stroke="#000000" stroke-width="2" d="M 201.4,46 212.7,34.7 212.7,74.7 224,63.4" />
<path stroke="#000000" stroke-width="2" d="M 230.7,70" />
<path stroke="#000000" stroke-width="2" d="M 230.7,28 230.7,27.3 230.8,26.6 230.9,25.9 231.1,25.2 231.3,24.6 231.6,24 231.9,23.4 232.3,22.8 232.8,22.2 233.3,21.8 233.8,21.3 234.4,20.9 235,20.6 235.6,20.3 236.3,20 237,19.8 237.6,19.7 238.3,19.7 239,19.7 239.7,19.7 240.4,19.8 241.1,20 241.7,20.3 242.4,20.6 243,20.9 243.6,21.3 244.1,21.8 244.6,22.2 245,22.8 245.4,23.4 245.8,24 246.1,24.6 246.3,25.2 246.5,25.9 246.6,26.6 246.7,27.3" />
<path stroke="#000000" stroke-width="2" d="M 276.7,70" />
<path stroke="#000000" stroke-width="2" d="M 276.7,30 286.7,30 286.7,70" />
<path stroke="#000000" stroke-width="2" d="M 293.3,70" />
<path stroke="#000000" stroke-width="2" d="M 293.3,20 293.3,20.7 293.4,21.4 293.5,22.1 293.7,22.8 293.9,23.4 294.2,24 294.6,24.6 295,25.2 295.4,25.8 295.9,26.2 296.5,26.7 297,27.1 297.6,27.4 298.3,27.7 298.9,28 299.6,28.2 300.3,28.3 301,28.3 301.7,28.3 302.4,28.3 303.1,28.2 303.7,28 304.4,27.7 305,27.4 305.6,27.1 306.2,26.7 306.7,26.2 307.2,25.8 307.7,25.2 308.1,24.6 308.4,24 308.7,23.4 309,22.8 309.1,22.1 309.3,21.4 309.3,20.7" />
<path stroke="#000000" stroke-width="2" d="M 309.3,20.7 307.3,20.6 305.7,20.3 304.5,19.8 303.6,19.3 303,18.6 302.7,17.9 302.7,17.1 302.8,16.4 303.2,15.7 303.7,15.1 304.3,14.6 305,14.2 305.7,14 306.5,14.1 307.2,14.4 307.9,14.9 308.5,15.8 308.9,17.1 309.2,18.7 309.3,20.7 309.3,24.7" />
<path stroke="#000000" stroke-width="2" d="M 309.3,24.7 309,25.6 308.7,26.4 308.3,27.1 307.9,27.8 307.5,28.5 307,29.1 306.6,29.6 306.1,30.1 305.6,30.6 305.1,30.9 304.5,31.3 304,31.6 303.4,31.9 302.9,32.1 302.3,32.3 301.7,32.4 301.1,32.6 300.5,32.6 299.9,32.7 299.3,32.7" />
<path stroke="#000000" stroke-width="2" d="M 339.3,70" />
<path stroke="#000000" stroke-width="2" d="M 359.3,70 361.1,70 362.8,69.8 364.5,69.5 366.2,69.1 367.9,68.5 369.4,67.8 370.9,66.9 372.4,65.9 373.7,64.8 374.9,63.5 376.1,62.2 377.1,60.8 377.9,59.3 378.7,57.7 379.3,56 379.7,54.3 380,52.6 380.2,50.9 380.2,49.1 380,47.4 379.7,45.7 379.3,44 378.7,42.4 377.9,40.8 377.1,39.3 376.1,37.8 374.9,36.5 373.7,35.3 372.4,34.2 370.9,33.2 369.4,32.3 367.9,31.5 366.2,30.9 364.5,30.5 362.8,30.2 361.1,30 359.3,30 357.6,30.2 355.9,30.5 354.2,30.9 352.5,31.5 351,32.3 349.5,33.2 348,34.2 346.7,35.3 345.5,36.5 344.3,37.8 343.3,39.3 342.5,40.8 341.7,42.4 341.1,44 340.7,45.7 340.4,47.4 340.2,49.1 340.2,50.9 340.4,52.6 340.7,54.3 341.1,56 341.7,57.7 342.5,59.3 343.3,60.8 344.3,62.2 345.5,63.5 346.7,64.8 348,65.9 349.5,66.9 351,67.8 352.5,68.5 354.2,69.1 355.9,69.5 357.6,69.8 359.3,70" />
<path stroke="#000000" stroke-width="2" d="M 386.8,70" />
<path stroke="#000000" stroke-width="2" d="M 396.8,20 389.2,38.5" />
<path stroke="#000000" stroke-width="2" d="M 426.8,70" />
<path stroke="#000000" stroke-width="2" d="M 426.8,50 434.5,31.5 434.5,32.2 434.6,32.9 434.7,33.6 434.9,34.3 435.1,34.9 435.4,35.6 435.7,36.2 436.1,36.7 436.6,37.3 437.1,37.8 437.6,38.2 438.2,38.6 438.8,39 439.4,39.3 440.1,39.5 440.8,39.7 441.5,39.8 442.1,39.9 442.8,39.9 443.5,39.8 444.2,39.7 444.9,39.5 445.6,39.3 446.2,39 446.8,38.6 447.4,38.2 447.9,37.8 448.4,37.3 448.8,36.7 449.2,36.2 449.6,35.6 449.9,34.9 450.1,34.3 450.3,33.6 450.4,32.9 450.5,32.2 450.5,52.2 456.1,46.6" />
<path stroke="#000000" stroke-width="2" d="M 462.8,70" />
<path stroke="#000000" stroke-width="2" d="M 462.8,25" />
<path stroke="#000000" stroke-width="2" d="M 462.8,25 464.8,24.9 466.5,24.6 467.7,24.1 468.6,23.6 469.1,22.9 469.4,22.2 469.5,21.4 469.3,20.7 468.9,20 468.4,19.4 467.8,18.9 467.1,18.5 466.4,18.3 465.6,18.4 464.9,18.7 464.3,19.2 463.7,20.1 463.2,21.4 462.9,23 462.8,25 462.8,40" />
<path stroke="#000000" stroke-width="2" d="M 499.5,70" />
<path stroke="#000000" stroke-width="2" d="M 499.5,30 499.5,31.4 499.6,32.8 499.8,34.2 500.2,35.5 500.7,36.8 501.3,38.1 502,39.3 502.8,40.4 503.7,41.5 504.6,42.5 505.7,43.4 506.9,44.2 508.1,44.9 509.3,45.5 510.6,46 512,46.3 513.4,46.6 514.8,46.7 516.1,46.7 517.5,46.6 518.9,46.3 520.3,46 521.6,45.5 522.8,44.9 524,44.2 525.2,43.4 526.3,42.5 527.2,41.5 528.1,40.4 528.9,39.3 529.6,38.1 530.2,36.8 530.7,35.5 531.1,34.2 531.3,32.8 531.4,31.4" />
<path stroke="#000000" stroke-width="2" d="M 538.1,70" />
<path stroke="#000000" stroke-width="2" d="M 550.1,36" />
<path stroke="#000000" stroke-width="2" d="M 550.1,36 548.1,35.9 546.5,35.6 545.2,35.1 544.3,34.6 543.8,33.9 543.5,33.2 543.4,32.4 543.6,31.7 544,31 544.5,30.4 545.1,29.9 545.8,29.5 546.5,29.3 547.3,29.4 548,29.7 548.7,30.2 549.2,31.1 549.7,32.4 550,34 550.1,36 550.1,40" />
<path stroke="#000000" stroke-width="2" d="M 550.1,40 549.8,40.9 549.4,41.7 549.1,42.4 548.7,43.1 548.3,43.8 547.8,44.4 547.4,44.9 546.9,45.4 546.4,45.9 545.9,46.2 545.3,46.6 544.8,46.9 544.2,47.2 543.6,47.4 543.1,47.6 542.5,47.7 541.9,47.9 541.3,47.9 540.7,48 540.1,48 540.1,68 540.1,62 540.1,61.1 540.2,60.3 540.3,59.4 540.6,58.6 540.9,57.7 541.2,56.9 541.7,56.2 542.2,55.5 542.7,54.8 543.3,54.2 544,53.6 544.7,53.1 545.5,52.7 546.3,52.3 547.1,52 547.9,51.8 548.8,51.6 549.7,51.6" />
<path stroke="#000000" stroke-width="2" d="M 549.7,51.6 551.7,51.5 553.3,51.2 554.5,50.7 555.4,50.1 556,49.5 556.3,48.7 556.3,48 556.1,47.3 555.8,46.6 555.3,45.9 554.7,45.4 554,45.1 553.2,44.9 552.5,45 551.8,45.2 551.1,45.8 550.5,46.7 550.1,47.9 549.8,49.5 549.7,51.6 549.7,66.6" />
<path stroke="#000000" stroke-width="2" d="M 586.3,70" />
<path stroke="#000000" stroke-width="2" d="M 586.3,30 626.3,30" />
<path stroke="#000000" stroke-width="2" d="M 656.3,70" />
<path stroke="#000000" stroke-width="2" d="M 658.3,50 663.7,37.1 663.8,36.7 663.9,36.4 664,36.1 664,35.7 664,35.4 664,35 664,34.7 663.9,34.3 663.8,34 663.7,33.7 663.5,33.4 663.3,33.1 663.1,32.8 662.9,32.5 662.6,32.3 662.3,32.1 662,31.9 661.7,31.7 661.4,31.6 661.1,31.5 660.7,31.4 660.4,31.4 660,31.4 659.7,31.4 659.3,31.4 659,31.5 658.7,31.6 658.4,31.7 658,31.9 657.7,32.1 657.5,32.3 657.2,32.5 657,32.8 656.8,33.1 656.6,33.4 656.4,33.7 656.3,34 656.2,34.3 656.1,34.7 656.1,35 656,35.4 656.1,35.7 656.1,36.1 656.2,36.4 656.3,36.7 656.4,37.1 656.6,37.4 656.8,37.7 657,37.9 657.2,38.2 657.5,38.4 657.7,38.7 658,38.8 658.4,39 658.7,39.1 659,39.2 659.3,39.3 659.7,39.4 660,39.4 660.4,39.4 673.3,34 681,52.5 688.6,34 708.6,34" />
<path stroke="#000000" stroke-width="2" d="M 738.6,70" />
<path stroke="#000000" stroke-width="2" d="M 738.6,30 738.6,31.4 738.8,32.8 739,34.2 739.4,35.5 739.8,36.8 740.4,38.1 741.1,39.3 741.9,40.4 742.8,41.5 743.8,42.5 744.9,43.4 746,44.2 747.2,44.9 748.5,45.5 749.8,46 751.2,46.3 752.5,46.6 753.9,46.7 755.3,46.7 756.7,46.6 758.1,46.3 759.4,46 760.7,45.5 762,44.9 763.2,44.2 764.4,43.4 765.4,42.5 766.4,41.5 767.3,40.4 768.1,39.3 768.8,38.1 769.4,36.8 769.9,35.5 770.2,34.2 770.5,32.8 770.6,31.4" />
<path stroke="#000000" stroke-width="2" d="M 777.3,70" />
<path stroke="#000000" stroke-width="2" d="M 777.3,55" />
<path stroke="#000000" stroke-width="2" d="M 777.3,55 779.3,54.9 780.9,54.6 782.1,54.1 783,53.6 783.6,52.9 783.9,52.2 783.9,51.4 783.7,50.7 783.4,50 782.9,49.4 782.3,48.9 781.6,48.5 780.9,48.3 780.1,48.4 779.4,48.7 778.7,49.2 778.1,50.1 777.7,51.4 777.4,53 777.3,55 777.3,70" />
<path stroke="#000000" stroke-width="2" d="M 790.6,70" />
<path stroke="#000000" stroke-width="2" d="M 790.6,30" />
<path stroke="#000000" stroke-width="2" d="M 790.6,30 793.4,30.3 796,31.1 798.2,32.4 800.2,34.2 801.8,36.2 803.2,38.6 804.2,41.3 805,44.1 805.4,47 805.6,50 805.4,53 805,55.9 804.2,58.7 803.2,61.4 801.8,63.8 800.2,65.8 798.2,67.6 796,68.9 793.4,69.7 790.6,70" />
<path stroke="#000000" stroke-width="2" d="M 835.6,70" />
<path stroke="#000000" stroke-width="2" d="M 835.6,30" />
<path stroke="#000000" stroke-width="2" d="M 835.6,30 838.4,30.3 841,31.1 843.2,32.4 845.2,34.2 846.8,36.2 848.2,38.6 849.2,41.3 850,44.1 850.4,47 850.6,50 850.4,53 850,55.9 849.2,58.7 848.2,61.4 846.8,63.8 845.2,65.8 843.2,67.6 841,68.9 838.4,69.7 835.6,70 836.8,68.8 838.2,67.6 839.6,66.6 841.1,65.8 842.7,65 844.3,64.4 846,64 847.7,63.7 849.5,63.5 851.2,63.5 852.9,63.7 854.7,64 856.3,64.4 858,65 859.6,65.8" />
<path stroke="#000000" stroke-width="2" d="M 866.2,70" />
<path stroke="#000000" stroke-width="2" d="M 866.2,20 873.9,38.5" />
<path stroke="#000000" stroke-width="2" d="M 873.9,38.5 875.9,38.4 877.5,38.1 878.8,37.6 879.7,37 880.2,36.4 880.5,35.6 880.5,34.9 880.4,34.2 880,33.5 879.5,32.9 878.9,32.4 878.2,32 877.5,31.8 876.7,31.9 876,32.1 875.3,32.7 874.8,33.6 874.3,34.8 874,36.4 873.9,38.5 873.9,53.5" />
<path stroke="#000000" stroke-width="2" d="M 910.5,70" />
<path stroke="#000000" stroke-width="2" d="M 910.5,70 910.7,70 910.7,70.2 910.5,70.2 910.5,70" />
<path stroke="#000000" stroke-width="2" d="M 940.7,70" />
<path stroke="#000000" stroke-width="2" d="M 940.7,30 940.7,70 960.7,70" />
<path stroke="#000000" stroke-width="2" d="M 990.7,70" />
<path stroke="#000000" stroke-width="2" d="M 990.7,30 990.7,70 1002.1,58.7" />
<path stroke="#000000" stroke-width="2" d="M 1008.7,70" />
<path stroke="#000000" stroke-width="2" d="M 1008.7,25" />
<path stroke="#000000" stroke-width="2" d="M 1008.7,25 1010.8,24.9 1012.4,24.6 1013.6,24.1 1014.5,23.6 1015.1,22.9 1015.3,22.2 1015.4,21.4 1015.2,20.7 1014.9,20 1014.4,19.4 1013.7,18.9 1013,18.5 1012.3,18.3 1011.6,18.4 1010.8,18.7 1010.2,19.2 1009.6,20.1 1009.1,21.4 1008.8,23 1008.7,25 1008.7,40" />
<path stroke="#000000" stroke-width="2" d="M 1045.4,70" />
<path stroke="#000000" stroke-width="2" d="M 1045.4,30 1045.4,70 1056.7,58.7" />
<path stroke="#000000" stroke-width="2" d="M 1063.4,70" />
<path stroke="#000000" stroke-width="2" d="M 1063.4,30" />
<path stroke="#000000" stroke-width="2" d="M 1063.4,30 1066.2,30.3 1068.8,31.1 1071,32.4 1073,34.2 1074.6,36.2 1076,38.6 1077,41.3 1077.8,44.1 1078.2,47 1078.4,50 1078.2,53 1077.8,55.9 1077,58.7 1076,61.4 1074.6,63.8 1073,65.8 1071,67.6 1068.8,68.9 1066.2,69.7 1063.4,70" />
<path stroke="#000000" stroke-width="2" d="M 1108.4,70" />
<path stroke="#000000" stroke-width="2" d="M 1108.4,46 1119.7,34.7 1119.7,74.7 1131,63.4" />
<path stroke="#000000" stroke-width="2" d="M 1137.7,70" />
<path stroke="#000000" stroke-width="2" d="M 1137.7,28 1137.7,27.3 1137.7,26.6 1137.8,25.9 1138,25.2 1138.3,24.6 1138.6,24 1138.9,23.4 1139.3,22.8 1139.7,22.2 1140.2,21.8 1140.8,21.3 1141.3,20.9 1142,20.6 1142.6,20.3 1143.2,20 1143.9,19.8 1144.6,19.7 1145.3,19.7 1146,19.7 1146.7,19.7 1147.4,19.8 1148.1,20 1148.7,20.3 1149.3,20.6 1149.9,20.9 1150.5,21.3 1151.1,21.8 1151.5,22.2 1152,22.8 1152.4,23.4 1152.7,24 1153,24.6 1153.3,25.2 1153.5,25.9 1153.6,26.6 1153.6,27.3" />
<path stroke="#000000" stroke-width="2" d="M 1183.6,70" />
<path stroke="#000000" stroke-width="2" d="M 1183.6,30 1203.6,30" />
<path stroke="#000000" stroke-width="2" d="M 1203.6,30 1205.1,30.1 1206.3,30.6 1207.5,31.2 1208.4,32.1 1209.3,33.1 1209.9,34.3 1210.5,35.6 1210.8,37 1211.1,38.5 1211.1,40 1211.1,41.5 1210.8,43 1210.5,44.4 1209.9,45.7 1209.3,46.9 1208.4,47.9 1207.5,48.8 1206.3,49.4 1205.1,49.9 1203.6,50" />
<path stroke="#000000" stroke-width="2" d="M 1241.1,70" />
<path stroke="#000000" stroke-width="2" d="M 1241.1,30 1241.1,50 1241.1,70 1241.1,64 1241.1,63.1 1241.2,62.3 1241.4,61.4 1241.6,60.6 1241.9,59.7 1242.3,58.9 1242.7,58.2 1243.2,57.5 1243.8,56.8 1244.4,56.2 1245,55.6 1245.8,55.1 1246.5,54.7 1247.3,54.3 1248.1,54 1249,53.8 1249.8,53.6 1250.7,53.6" />
<path stroke="#000000" stroke-width="2" d="M 1257.4,70" />
<path stroke="#000000" stroke-width="2" d="M 1281.4,42" />
<path stroke="#000000" stroke-width="2" d="M 1281.4,42 1277.3,41.8 1274.1,41.2 1271.6,40.3 1269.8,39.1 1268.7,37.8 1268.1,36.3 1268.1,34.8 1268.4,33.4 1269.1,32 1270.1,30.8 1271.3,29.7 1272.7,29 1274.2,28.7 1275.7,28.8 1277.1,29.3 1278.5,30.5 1279.6,32.2 1280.5,34.7 1281.1,37.9 1281.4,42 1281.4,50" />
<path stroke="#000000" stroke-width="2" d="M 1281.4,50 1280.7,51.7 1280,53.4 1279.3,54.9 1278.5,56.3 1277.7,57.6 1276.8,58.7 1275.9,59.8 1274.9,60.8 1273.9,61.7 1272.9,62.5 1271.8,63.2 1270.7,63.8 1269.6,64.4 1268.5,64.8 1267.3,65.2 1266.1,65.5 1264.9,65.7 1263.8,65.9 1262.6,66 1261.4,66" />
<path stroke="#000000" stroke-width="2" d="M 1311.4,70" />
<path stroke="#000000" stroke-width="2" d="M 1311.4,30 1331.4,30" />
<path stroke="#000000" stroke-width="2" d="M 1331.4,30 1332.8,30.1 1334.1,30.6 1335.2,31.2 1336.2,32.1 1337,33.1 1337.7,34.3 1338.2,35.6 1338.6,37 1338.8,38.5 1338.9,40 1338.8,41.5 1338.6,43 1338.2,44.4 1337.7,45.7 1337,46.9 1336.2,47.9 1335.2,48.8 1334.1,49.4 1332.8,49.9 1331.4,50" />
<path stroke="#000000" stroke-width="2" d="M 1368.9,70" />
</svg>