<svg xmlns="http://www.w3.org/2000/svg" width="1353.2668528351946" height="111.47759065022574" style="fill:none; stroke-linecap:round;">
    <rect width="100%" height="100%" fill="#FFFFFF" />
<path stroke="#000000" stroke-width="2" d="M 550,75" />
<path stroke="#000000" stroke-width="2" d="M 20,30 20,70 40,70" />
<path stroke="#000000" stroke-width="2" d="M 70,70" />
<path stroke="#000000" stroke-width="2" d="M 80,30 70,30 70,70" />
<path stroke="#000000" stroke-width="2" d="M 86.7,70" />
<path stroke="#000000" stroke-width="2" d="M 86.7,50" />
<path stroke="#000000" stroke-width="2" d="M 86.7,50 86.8,50 87.2,50 87.9,50 88.7,50.1 89.8,50.2 91,50.3 92.3,50.4 93.7,50.6 95.2,50.9 96.7,51.2 98.2,51.7 99.6,52.2 101,52.7 102.3,53.4 103.5,54.2 104.6,55.1 105.5,56.1 106.1,57.3 106.5,58.6 106.7,60" />
<path stroke="#000000" stroke-width="2" d="M 106.7,60 108.6,62.1 109.9,64.1 110.7,65.7 111,67.2 110.9,68.4 110.4,69.5 109.7,70.2 108.8,70.8 107.8,71.1 106.7,71.2 105.6,71.1 104.5,70.8 103.6,70.2 102.9,69.5 102.4,68.4 102.3,67.2 102.7,65.7 103.4,64 104.7,62.1 106.7,60" />
<path stroke="#000000" stroke-width="2" d="M 106.7,60 106.7,59.9 106.7,59.7 106.7,59.4 106.8,59 107,58.4 107.2,57.8 107.5,57.2 107.9,56.5 108.5,55.7 109.2,55 110,54.3 111,53.5 112.2,52.8 113.5,52.2 115.1,51.6 116.9,51 118.9,50.6 121.2,50.3 123.8,50.1 126.7,50 126.7,50.7 126.7,51.4 126.8,52.1 127,52.8 127.3,53.4 127.6,54 127.9,54.6 128.3,55.2 128.8,55.8 129.3,56.2 129.8,56.7 130.4,57.1 131,57.4 131.6,57.7 132.3,58 132.9,58.2 133.6,58.3 134.3,58.3 135,58.3 135.7,58.3 136.4,58.2 137.1,58 137.7,57.7 138.4,57.4 139,57.1 139.5,56.7 140.1,56.2 140.6,55.8 141,55.2 141.4,54.6 141.8,54 142.1,53.4 142.3,52.8 142.5,52.1 142.6,51.4 142.7,50.7 143.5,50.7 144.4,50.8 145.3,50.9 146.1,51.2 146.9,51.4 147.7,51.8 148.5,52.3 149.2,52.8 149.8,53.3 150.5,53.9 151,54.6 151.5,55.3 152,56.1 152.3,56.9 152.6,57.7 152.9,58.5 153,59.4 153.1,60.3 153.1,61.1 153,62 152.9,62.9 152.6,63.7 152.3,64.5 152,65.3 151.5,66.1 151,66.8 150.5,67.4 149.8,68.1 149.2,68.6 148.5,69.1 147.7,69.6 146.9,69.9 146.1,70.2 145.3,70.5 144.4,70.6 143.5,70.7 163.5,70.7 155.9,89.2" />
<path stroke="#000000" stroke-width="2" d="M 193.5,70" />
<path stroke="#000000" stroke-width="2" d="M 193.5,30 203.5,30 203.5,70" />
<path stroke="#000000" stroke-width="2" d="M 210.2,70" />
<path stroke="#000000" stroke-width="2" d="M 210.2,70 210.2,69.3 210.3,68.6 210.4,67.9 210.6,67.2 210.8,66.6 211.1,66 211.4,65.4 211.8,64.8 212.3,64.2 212.8,63.8 213.3,63.3 213.9,62.9 214.5,62.6 215.1,62.3 215.8,62 216.5,61.8 217.1,61.7 217.8,61.7 218.5,61.7 219.2,61.7 219.9,61.8 220.6,62 221.2,62.3 221.9,62.6 222.5,62.9 223.1,63.3 223.6,63.8 224.1,64.2 224.5,64.8 224.9,65.4 225.3,66 225.6,66.6 225.8,67.2 226,67.9 226.1,68.6 226.2,69.3" />
<path stroke="#000000" stroke-width="2" d="M 232.8,70" />
<path stroke="#000000" stroke-width="2" d="M 232.8,55" />
<path stroke="#000000" stroke-width="2" d="M 232.8,55 234.9,54.9 236.5,54.6 237.7,54.1 238.6,53.6 239.2,52.9 239.5,52.2 239.5,51.4 239.3,50.7 239,50 238.5,49.4 237.9,48.9 237.2,48.5 236.4,48.3 235.7,48.4 235,48.7 234.3,49.2 233.7,50.1 233.2,51.4 232.9,53 232.8,55 232.8,70" />
<path stroke="#000000" stroke-width="2" d="M 269.5,70" />
<path stroke="#000000" stroke-width="2" d="M 279.5,30 278.6,30 277.8,30.1 276.9,30.2 276.1,30.5 275.2,30.8 274.4,31.1 273.7,31.6 273,32.1 272.3,32.6 271.7,33.2 271.1,33.9 270.6,34.6 270.2,35.4 269.8,36.2 269.5,37 269.3,37.8 269.1,38.7 269.1,39.6 269.1,40.4 269.1,41.3 269.3,42.2 269.5,43 269.8,43.8 270.2,44.6 270.6,45.4 271.1,46.1 271.7,46.7 272.3,47.4 273,47.9 273.7,48.4 274.4,48.9 275.2,49.2 276.1,49.5 276.9,49.8 277.8,49.9 278.6,50 298.6,50" />
<path stroke="#000000" stroke-width="2" d="M 328.6,70" />
<path stroke="#000000" stroke-width="2" d="M 328.6,70 343.9,33 383.9,33" />
<path stroke="#000000" stroke-width="2" d="M 390.6,70" />
<path stroke="#000000" stroke-width="2" d="M 414.6,42" />
<path stroke="#000000" stroke-width="2" d="M 414.6,42 410.5,41.8 407.3,41.2 404.8,40.3 403.1,39.1 401.9,37.8 401.4,36.3 401.3,34.8 401.6,33.4 402.3,32 403.3,30.8 404.6,29.7 406,29 407.4,28.7 408.9,28.8 410.4,29.3 411.7,30.5 412.9,32.2 413.8,34.7 414.4,37.9 414.6,42 414.6,50" />
<path stroke="#000000" stroke-width="2" d="M 414.6,50 414,51.7 413.3,53.4 412.5,54.9 411.7,56.3 410.9,57.6 410,58.7 409.1,59.8 408.1,60.8 407.1,61.7 406.1,62.5 405,63.2 403.9,63.8 402.8,64.4 401.7,64.8 400.5,65.2 399.4,65.5 398.2,65.7 397,65.9 395.8,66 394.6,66" />
<path stroke="#000000" stroke-width="2" d="M 444.6,70" />
<path stroke="#000000" stroke-width="2" d="M 444.6,70 444.8,70 444.8,70.2 444.6,70.2 444.6,70" />
<path stroke="#000000" stroke-width="2" d="M 474.8,70" />
<path stroke="#000000" stroke-width="2" d="M 474.8,30 474.8,50 484.8,50 477.1,68.5 479.4,62.9 479.8,62.1 480.2,61.4 480.6,60.6 481.2,59.9 481.8,59.3 482.4,58.7 483.1,58.2 483.8,57.7 484.6,57.3 485.4,57 486.2,56.7 487.1,56.5" />
<path stroke="#000000" stroke-width="2" d="M 493.8,70" />
<path stroke="#000000" stroke-width="2" d="M 493.8,30 495.5,30 497.3,30.2 499,30.5 500.7,30.9 502.3,31.5 503.9,32.2 505.4,33.1 506.8,34.1 508.2,35.2 509.4,36.5 510.5,37.8 511.5,39.2 512.4,40.7 513.1,42.3 513.7,44 514.2,45.7 514.5,47.4 514.6,49.1 514.6,50.9 514.5,52.6 514.2,54.3 513.7,56 513.1,57.6 512.4,59.2 511.5,60.7 510.5,62.2 509.4,63.5 508.2,64.7 506.8,65.8 505.4,66.8 503.9,67.7 502.3,68.5 500.7,69.1 499,69.5 497.3,69.8 495.5,70" />
<path stroke="#000000" stroke-width="2" d="M 544.6,70" />
<path stroke="#000000" stroke-width="2" d="M 564.6,30 549.3,67" />
<path stroke="#000000" stroke-width="2" d="M 571.3,70" />
<path stroke="#000000" stroke-width="2" d="M 571.3,50" />
<path stroke="#000000" stroke-width="2" d="M 571.3,50 571.4,50 571.8,50 572.5,50 573.4,50.1 574.4,50.2 575.6,50.3 576.9,50.4 578.3,50.6 579.8,50.9 581.3,51.2 582.8,51.7 584.2,52.2 585.7,52.7 587,53.4 588.2,54.2 589.2,55.1 590.1,56.1 590.7,57.3 591.1,58.6 591.3,60" />
<path stroke="#000000" stroke-width="2" d="M 591.3,60 593.2,62.1 594.5,64.1 595.3,65.7 595.6,67.2 595.5,68.4 595.1,69.5 594.4,70.2 593.4,70.8 592.4,71.1 591.3,71.2 590.2,71.1 589.1,70.8 588.2,70.2 587.5,69.5 587.1,68.4 587,67.2 587.3,65.7 588,64 589.4,62.1 591.3,60" />
<path stroke="#000000" stroke-width="2" d="M 591.3,60 591.3,59.9 591.3,59.7 591.4,59.4 591.4,59 591.6,58.4 591.8,57.8 592.1,57.2 592.6,56.5 593.1,55.7 593.8,55 594.6,54.3 595.6,53.5 596.8,52.8 598.1,52.2 599.7,51.6 601.5,51 603.6,50.6 605.9,50.3 608.4,50.1 611.3,50" />
<path stroke="#000000" stroke-width="2" d="M 611.3,58" />
<path stroke="#000000" stroke-width="2" d="M 581.3,58 601.3,58" />
<path stroke="#000000" stroke-width="2" d="M 601.3,58 603.3,57.9 604.9,57.6 606.2,57.1 607,56.6 607.6,55.9 607.9,55.2 607.9,54.4 607.8,53.7 607.4,53 606.9,52.4 606.3,51.9 605.6,51.5 604.9,51.3 604.1,51.4 603.4,51.7 602.7,52.2 602.1,53.1 601.7,54.4 601.4,56 601.3,58 601.3,73 593.6,91.5" />
<path stroke="#000000" stroke-width="2" d="M 618,70" />
<path stroke="#000000" stroke-width="2" d="M 618,20 638,20 638.8,20 639.7,20.1 640.6,20.2 641.4,20.5 642.2,20.8 643,21.1 643.8,21.6 644.5,22.1 645.1,22.6 645.8,23.2 646.3,23.9 646.8,24.6 647.3,25.4 647.6,26.2 647.9,27 648.2,27.8 648.3,28.7 648.4,29.6 648.4,30.4 648.3,31.3 648.2,32.2 647.9,33 647.6,33.8 647.3,34.6 646.8,35.4 646.3,36.1 645.8,36.7 645.1,37.4 644.5,37.9 643.8,38.4 643,38.9 642.2,39.2 641.4,39.5 640.6,39.8 639.7,39.9 638.8,40" />
<path stroke="#000000" stroke-width="2" d="M 678.4,70" />
<path stroke="#000000" stroke-width="2" d="M 678.4,30 678.4,70 689.7,58.7" />
<path stroke="#000000" stroke-width="2" d="M 696.4,70" />
<path stroke="#000000" stroke-width="2" d="M 706.4,20 698.7,38.5" />
<path stroke="#000000" stroke-width="2" d="M 736.4,70" />
<path stroke="#000000" stroke-width="2" d="M 736.4,30 736.4,70 747.7,58.7" />
<path stroke="#000000" stroke-width="2" d="M 754.3,70" />
<path stroke="#000000" stroke-width="2" d="M 754.3,25" />
<path stroke="#000000" stroke-width="2" d="M 754.3,25 756.4,24.9 758,24.6 759.2,24.1 760.1,23.6 760.7,22.9 761,22.2 761,21.4 760.8,20.7 760.5,20 760,19.4 759.4,18.9 758.7,18.5 757.9,18.3 757.2,18.4 756.5,18.7 755.8,19.2 755.2,20.1 754.7,21.4 754.4,23 754.3,25 754.3,40" />
<path stroke="#000000" stroke-width="2" d="M 791,70" />
<path stroke="#000000" stroke-width="2" d="M 807,30 787.2,49.8 807,69.6" />
<path stroke="#000000" stroke-width="2" d="M 813.7,70" />
<path stroke="#000000" stroke-width="2" d="M 821.7,20" />
<path stroke="#000000" stroke-width="2" d="M 821.7,20 821.6,22 821.3,23.6 820.8,24.9 820.2,25.8 819.6,26.3 818.8,26.6 818.1,26.7 817.3,26.5 816.7,26.1 816,25.6 815.5,25 815.2,24.3 815,23.6 815,22.8 815.3,22.1 815.9,21.4 816.8,20.9 818,20.4 819.6,20.1 821.7,20 831.7,20" />
<path stroke="#000000" stroke-width="2" d="M 838.3,70" />
<path stroke="#000000" stroke-width="2" d="M 838.3,20 858.3,20" />
<path stroke="#000000" stroke-width="2" d="M 865,70" />
<path stroke="#000000" stroke-width="2" d="M 877,26" />
<path stroke="#000000" stroke-width="2" d="M 877,26 875,25.9 873.4,25.6 872.1,25.1 871.2,24.6 870.7,23.9 870.4,23.2 870.3,22.4 870.5,21.7 870.9,21 871.4,20.4 872,19.9 872.7,19.5 873.4,19.3 874.2,19.4 874.9,19.7 875.6,20.2 876.1,21.1 876.6,22.4 876.9,24 877,26 877,30" />
<path stroke="#000000" stroke-width="2" d="M 877,30 876.7,30.9 876.3,31.7 876,32.4 875.6,33.1 875.2,33.8 874.7,34.4 874.2,34.9 873.8,35.4 873.3,35.9 872.7,36.2 872.2,36.6 871.7,36.9 871.1,37.2 870.5,37.4 870,37.6 869.4,37.7 868.8,37.9 868.2,37.9 867.6,38 867,38" />
<path stroke="#000000" stroke-width="2" d="M 907,70" />
<path stroke="#000000" stroke-width="2" d="M 907,30 907,70" />
<path stroke="#000000" stroke-width="2" d="M 913.7,70" />
<path stroke="#000000" stroke-width="2" d="M 923.7,50 916,68.5" />
<path stroke="#000000" stroke-width="2" d="M 953.7,70" />
<path stroke="#000000" stroke-width="2" d="M 953.7,50 953.7,49.3 953.7,48.6 953.8,47.9 954,47.2 954.3,46.6 954.6,46 954.9,45.4 955.3,44.8 955.8,44.2 956.3,43.8 956.8,43.3 957.4,42.9 958,42.6 958.6,42.3 959.2,42 959.9,41.8 960.6,41.7 961.3,41.7 962,41.7 962.7,41.7 963.4,41.8 964.1,42 964.7,42.3 965.3,42.6 966,42.9 966.5,43.3 967.1,43.8 967.6,44.2 968,44.8 968.4,45.4 968.8,46 969,46.6 969.3,47.2 969.5,47.9 969.6,48.6 969.6,49.3" />
<path stroke="#000000" stroke-width="2" d="M 969.6,45.3" />
<path stroke="#000000" stroke-width="2" d="M 963.6,45.3 973.6,45.3" />
<path stroke="#000000" stroke-width="2" d="M 973.6,45.3 973.5,43.3 973.2,41.7 972.8,40.4 972.2,39.5 971.5,39 970.8,38.7 970.1,38.6 969.3,38.8 968.6,39.2 968,39.7 967.5,40.3 967.2,41 967,41.7 967,42.5 967.3,43.2 967.9,43.9 968.8,44.4 970,44.9 971.6,45.2 973.6,45.3 977.6,45.3" />
<path stroke="#000000" stroke-width="2" d="M 977.6,45.3 978.5,45 979.3,44.6 980.1,44.3 980.8,43.9 981.4,43.5 982,43 982.6,42.6 983.1,42.1 983.5,41.6 983.9,41.1 984.3,40.5 984.6,40 984.8,39.4 985.1,38.8 985.2,38.3 985.4,37.7 985.5,37.1 985.6,36.5 985.6,35.9 985.6,35.3" />
<path stroke="#000000" stroke-width="2" d="M 992.3,70" />
<path stroke="#000000" stroke-width="2" d="M 1002.3,30 994.7,48.5 994.7,49.2 994.7,49.9 994.8,50.6 995,51.2 995.3,51.9 995.6,52.5 995.9,53.1 996.3,53.7 996.8,54.2 997.2,54.7 997.8,55.2 998.4,55.6 999,55.9 999.6,56.2 1000.2,56.5 1000.9,56.6 1001.6,56.8 1002.3,56.8 1003,56.8 1003.7,56.8 1004.4,56.6 1005.1,56.5 1005.7,56.2 1006.3,55.9 1007,55.6 1007.5,55.2 1008.1,54.7 1008.6,54.2 1009,53.7 1009.4,53.1 1009.7,52.5 1010,51.9 1010.3,51.2 1010.5,50.6 1010.6,49.9 1010.6,49.2" />
<path stroke="#000000" stroke-width="2" d="M 1017.3,70" />
<path stroke="#000000" stroke-width="2" d="M 1017.3,30 1017.5,30 1017.5,30.2 1017.3,30.2 1017.3,30" />
<path stroke="#000000" stroke-width="2" d="M 1047.5,70" />
<path stroke="#000000" stroke-width="2" d="M 1047.5,30 1057.5,30 1057.5,70" />
<path stroke="#000000" stroke-width="2" d="M 1064.2,70" />
<path stroke="#000000" stroke-width="2" d="M 1064.2,50 1064.2,70 1064.2,64 1064.2,63.1 1064.3,62.3 1064.4,61.4 1064.6,60.6 1064.9,59.7 1065.3,58.9 1065.7,58.2 1066.2,57.5 1066.8,56.8 1067.4,56.2 1068.1,55.6 1068.8,55.1 1069.6,54.7 1070.3,54.3 1071.2,54 1072,53.8 1072.9,53.6 1073.7,53.6 1073.7,57.6 1073.7,58.1 1073.8,58.6 1073.9,59.1 1074,59.6 1074.2,60.1 1074.4,60.6 1074.7,61.1 1075,61.5 1075.3,61.9 1075.7,62.3 1076.1,62.6 1076.5,62.9 1077,63.2 1077.4,63.4 1077.9,63.6 1078.4,63.7 1078.9,63.8 1079.5,63.8 1080,63.8 1080.5,63.8 1081,63.7 1081.5,63.6 1082,63.4 1082.5,63.2 1083,62.9 1083.4,62.6 1083.8,62.3 1084.2,61.9 1084.5,61.5 1084.8,61.1 1085,60.6 1085.3,60.1 1085.4,59.6 1085.6,59.1 1085.7,58.6 1085.7,58.1 1085.7,53.1 1085.7,73.1" />
<path stroke="#000000" stroke-width="2" d="M 1092.4,70" />
<path stroke="#000000" stroke-width="2" d="M 1102.4,50 1094.7,68.5" />
<path stroke="#000000" stroke-width="2" d="M 1132.4,70" />
<path stroke="#000000" stroke-width="2" d="M 1132.4,30 1147.7,67" />
<path stroke="#000000" stroke-width="2" d="M 1154.4,70" />
<path stroke="#000000" stroke-width="2" d="M 1174.4,30 1159.1,67 1163.6,55.9 1164.3,54.3 1165.1,52.7 1166.1,51.2 1167.1,49.9 1168.3,48.6 1169.6,47.4 1171,46.3 1172.4,45.4 1174,44.6 1175.6,43.9 1177.3,43.4 1179,43" />
<path stroke="#000000" stroke-width="2" d="M 1185.6,70" />
<path stroke="#000000" stroke-width="2" d="M 1185.6,20 1185.6,20.7 1185.7,21.4 1185.8,22.1 1186,22.8 1186.2,23.4 1186.5,24 1186.9,24.6 1187.3,25.2 1187.7,25.8 1188.2,26.2 1188.8,26.7 1189.3,27.1 1189.9,27.4 1190.6,27.7 1191.2,28 1191.9,28.2 1192.6,28.3 1193.3,28.3 1194,28.3 1194.7,28.3 1195.4,28.2 1196,28 1196.7,27.7 1197.3,27.4 1197.9,27.1 1198.5,26.7 1199,26.2 1199.5,25.8 1200,25.2 1200.4,24.6 1200.7,24 1201,23.4 1201.3,22.8 1201.4,22.1 1201.6,21.4 1201.6,20.7" />
<path stroke="#000000" stroke-width="2" d="M 1231.6,70" />
<path stroke="#000000" stroke-width="2" d="M 1241.6,30 1240.7,30 1239.9,30.1 1239,30.2 1238.2,30.5 1237.4,30.8 1236.6,31.1 1235.8,31.6 1235.1,32.1 1234.4,32.6 1233.8,33.2 1233.2,33.9 1232.7,34.6 1232.3,35.4 1231.9,36.2 1231.6,37 1231.4,37.8 1231.3,38.7 1231.2,39.6 1231.2,40.4 1231.3,41.3 1231.4,42.2 1231.6,43 1231.9,43.8 1232.3,44.6 1232.7,45.4 1233.2,46.1 1233.8,46.7 1234.4,47.4 1235.1,47.9 1235.8,48.4 1236.6,48.9 1237.4,49.2 1238.2,49.5 1239,49.8 1239.9,49.9 1240.7,50 1245.7,50 1245.7,70" />
<path stroke="#000000" stroke-width="2" d="M 1275.7,70" />
<path stroke="#000000" stroke-width="2" d="M 1295.7,70 1297.5,70 1299.2,69.8 1300.9,69.5 1302.6,69.1 1304.3,68.5 1305.9,67.8 1307.4,66.9 1308.8,65.9 1310.1,64.8 1311.4,63.5 1312.5,62.2 1313.5,60.8 1314.4,59.3 1315.1,57.7 1315.7,56 1316.1,54.3 1316.4,52.6 1316.6,50.9 1316.6,49.1 1316.4,47.4 1316.1,45.7 1315.7,44 1315.1,42.4 1314.4,40.8 1313.5,39.3 1312.5,37.8 1311.4,36.5 1310.1,35.3 1308.8,34.2 1307.4,33.2 1305.9,32.3 1304.3,31.5 1302.6,30.9 1300.9,30.5 1299.2,30.2 1297.5,30 1295.7,30 1294,30.2 1292.3,30.5 1290.6,30.9 1289,31.5 1287.4,32.3 1285.9,33.2 1284.4,34.2 1283.1,35.3 1281.9,36.5 1280.8,37.8 1279.8,39.3 1278.9,40.8 1278.1,42.4 1277.5,44 1277.1,45.7 1276.8,47.4 1276.6,49.1 1276.6,50.9 1276.8,52.6 1277.1,54.3 1277.5,56 1278.1,57.7 1278.9,59.3 1279.8,60.8 1280.8,62.2 1281.9,63.5 1283.1,64.8 1284.4,65.9 1285.9,66.9 1287.4,67.8 1289,68.5 1290.6,69.1 1292.3,69.5 1294,69.8 1295.7,70" />
<path stroke="#000000" stroke-width="2" d="M 1323.3,70" />
<path stroke="#000000" stroke-width="2" d="M 1333.3,50 1325.6,68.5" />
<path stroke="#000000" stroke-width="2" d="M 1363.3,70" />
</svg>