<svg xmlns="http://www.w3.org/2000/svg" width="994.386978741973" height="90.0" style="fill:none; stroke-linecap:round;">
    <rect width="100%" height="100%" fill="#FFFFFF" />
<path stroke="#000000" stroke-width="2" d="M 550,75" />
<path stroke="#000000" stroke-width="2" d="M 20,30 30,30 30,70" />
<path stroke="#000000" stroke-width="2" d="M 36.7,70" />
<path stroke="#000000" stroke-width="2" d="M 36.7,30 41.7,30 41.7,50 34,68.5" />
<path stroke="#000000" stroke-width="2" d="M 48.3,70" />
<path stroke="#000000" stroke-width="2" d="M 48.3,20 68.3,20" />
<path stroke="#000000" stroke-width="2" d="M 98.3,70" />
<path stroke="#000000" stroke-width="2" d="M 98.3,30 98.3,38 98.3,39 98.4,40.1 98.6,41.1 98.9,42.1 99.2,43.1 99.7,44.1 100.2,45 100.8,45.8 101.5,46.6 102.2,47.4 103,48 103.9,48.6 104.8,49.2 105.7,49.6 106.7,50 107.7,50.2 108.8,50.4 109.8,50.5 110.8,50.5 111.9,50.4 112.9,50.2 113.9,50 114.9,49.6 115.9,49.2 116.8,48.6 117.6,48 118.4,47.4 119.2,46.6 119.8,45.8 120.4,45 121,44.1 121.4,43.1 121.8,42.1 122,41.1 122.2,40.1 122.3,39 122.3,29 122.3,69" />
<path stroke="#000000" stroke-width="2" d="M 129,70" />
<path stroke="#000000" stroke-width="2" d="M 129,20 129,20.7 129,21.4 129.2,22.1 129.3,22.8 129.6,23.4 129.9,24 130.2,24.6 130.6,25.2 131.1,25.8 131.6,26.2 132.1,26.7 132.7,27.1 133.3,27.4 133.9,27.7 134.6,28 135.2,28.2 135.9,28.3 136.6,28.3 137.3,28.3 138,28.3 138.7,28.2 139.4,28 140,27.7 140.7,27.4 141.3,27.1 141.8,26.7 142.4,26.2 142.9,25.8 143.3,25.2 143.7,24.6 144.1,24 144.4,23.4 144.6,22.8 144.8,22.1 144.9,21.4 145,20.7" />
<path stroke="#000000" stroke-width="2" d="M 151.6,70" />
<path stroke="#000000" stroke-width="2" d="M 171.6,20 151.8,39.8" />
<path stroke="#000000" stroke-width="2" d="M 151.8,19.8 171.6,39.6" />
<path stroke="#000000" stroke-width="2" d="M 178.3,70" />
<path stroke="#000000" stroke-width="2" d="M 178.3,40" />
<path stroke="#000000" stroke-width="2" d="M 178.3,40 182.4,39.8 185.6,39.2 188,38.3 189.8,37.1 191,35.8 191.5,34.3 191.6,32.8 191.3,31.4 190.5,30 189.5,28.8 188.3,27.7 186.9,27 185.5,26.7 184,26.8 182.5,27.3 181.2,28.5 180,30.2 179.1,32.7 178.5,35.9 178.3,40 178.3,70" />
<path stroke="#000000" stroke-width="2" d="M 221.6,70" />
<path stroke="#000000" stroke-width="2" d="M 231.6,30 230.7,30 229.9,30.1 229,30.2 228.2,30.5 227.3,30.8 226.6,31.1 225.8,31.6 225.1,32.1 224.4,32.6 223.8,33.2 223.2,33.9 222.7,34.6 222.3,35.4 221.9,36.2 221.6,37 221.4,37.8 221.3,38.7 221.2,39.6 221.2,40.4 221.3,41.3 221.4,42.2 221.6,43 221.9,43.8 222.3,44.6 222.7,45.4 223.2,46.1 223.8,46.7 224.4,47.4 225.1,47.9 225.8,48.4 226.6,48.9 227.3,49.2 228.2,49.5 229,49.8 229.9,49.9 230.7,50" />
<path stroke="#000000" stroke-width="2" d="M 230.7,40" />
<path stroke="#000000" stroke-width="2" d="M 214.7,40 234.7,40 239.7,40 239.7,60 239.7,59.1 239.8,58.2 240,57.4 240.2,56.5 240.5,55.7 240.9,54.9 241.3,54.2 241.8,53.5 242.3,52.8 243,52.2 243.6,51.6 244.3,51.1 245.1,50.7 245.9,50.3 246.7,50 247.6,49.8 248.4,49.6 249.3,49.6" />
<path stroke="#000000" stroke-width="2" d="M 256,70" />
<path stroke="#000000" stroke-width="2" d="M 256,50 263.6,68.5" />
<path stroke="#000000" stroke-width="2" d="M 293.6,70" />
<path stroke="#000000" stroke-width="2" d="M 295.6,50 301,37.1 301.1,36.7 301.2,36.4 301.3,36.1 301.3,35.7 301.3,35.4 301.3,35 301.3,34.7 301.2,34.3 301.1,34 301,33.7 300.8,33.4 300.6,33.1 300.4,32.8 300.2,32.5 299.9,32.3 299.6,32.1 299.3,31.9 299,31.7 298.7,31.6 298.4,31.5 298,31.4 297.7,31.4 297.3,31.4 297,31.4 296.6,31.4 296.3,31.5 296,31.6 295.6,31.7 295.3,31.9 295,32.1 294.8,32.3 294.5,32.5 294.3,32.8 294.1,33.1 293.9,33.4 293.7,33.7 293.6,34 293.5,34.3 293.4,34.7 293.4,35 293.3,35.4 293.4,35.7 293.4,36.1 293.5,36.4 293.6,36.7 293.7,37.1 293.9,37.4 294.1,37.7 294.3,37.9 294.5,38.2 294.8,38.4 295,38.7 295.3,38.8 295.6,39 296,39.1 296.3,39.2 296.6,39.3 297,39.4 297.3,39.4 297.7,39.4 310.6,34" />
<path stroke="#000000" stroke-width="2" d="M 310.6,34 308.6,33.9 307,33.6 305.7,33.1 304.9,32.6 304.3,31.9 304,31.2 304,30.4 304.1,29.7 304.5,29 305,28.4 305.6,27.9 306.3,27.5 307,27.3 307.8,27.4 308.5,27.7 309.2,28.2 309.8,29.1 310.2,30.4 310.5,32 310.6,34 310.6,49" />
<path stroke="#000000" stroke-width="2" d="M 317.3,70" />
<path stroke="#000000" stroke-width="2" d="M 317.3,25" />
<path stroke="#000000" stroke-width="2" d="M 317.3,25 319.3,24.9 320.9,24.6 322.2,24.1 323,23.6 323.6,22.9 323.9,22.2 323.9,21.4 323.8,20.7 323.4,20 322.9,19.4 322.3,18.9 321.6,18.5 320.9,18.3 320.1,18.4 319.4,18.7 318.7,19.2 318.1,20.1 317.7,21.4 317.4,23 317.3,25 317.3,40 309.6,58.5 311.9,52.9 312.3,52.1 312.7,51.4 313.1,50.6 313.7,49.9 314.3,49.3 314.9,48.7 315.6,48.2 316.3,47.7 317.1,47.3 317.9,47 318.7,46.7 319.6,46.5" />
<path stroke="#000000" stroke-width="2" d="M 330.6,70" />
<path stroke="#000000" stroke-width="2" d="M 330.6,40 338.3,21.5 345.9,40" />
<path stroke="#000000" stroke-width="2" d="M 375.9,70" />
<path stroke="#000000" stroke-width="2" d="M 385.9,30 385,30 384.2,30.1 383.3,30.2 382.5,30.5 381.7,30.8 380.9,31.1 380.1,31.6 379.4,32.1 378.7,32.6 378.1,33.2 377.5,33.9 377,34.6 376.6,35.4 376.2,36.2 375.9,37 375.7,37.8 375.6,38.7 375.5,39.6 375.5,40.4 375.6,41.3 375.7,42.2 375.9,43 376.2,43.8 376.6,44.6 377,45.4 377.5,46.1 378.1,46.7 378.7,47.4 379.4,47.9 380.1,48.4 380.9,48.9 381.7,49.2 382.5,49.5 383.3,49.8 384.2,49.9 385,50 405,50" />
<path stroke="#000000" stroke-width="2" d="M 435,70" />
<path stroke="#000000" stroke-width="2" d="M 445,30 444.2,30 443.3,30.1 442.4,30.2 441.6,30.5 440.8,30.8 440,31.1 439.2,31.6 438.5,32.1 437.9,32.6 437.2,33.2 436.7,33.9 436.2,34.6 435.7,35.4 435.4,36.2 435.1,37 434.8,37.8 434.7,38.7 434.6,39.6 434.6,40.4 434.7,41.3 434.8,42.2 435.1,43 435.4,43.8 435.7,44.6 436.2,45.4 436.7,46.1 437.2,46.7 437.9,47.4 438.5,47.9 439.2,48.4 440,48.9 440.8,49.2 441.6,49.5 442.4,49.8 443.3,49.9 444.2,50 449.2,50 449.2,70" />
<path stroke="#000000" stroke-width="2" d="M 479.2,70" />
<path stroke="#000000" stroke-width="2" d="M 479.2,40" />
<path stroke="#000000" stroke-width="2" d="M 479.2,40 483.2,39.8 486.5,39.2 488.9,38.3 490.7,37.1 491.8,35.8 492.4,34.3 492.5,32.8 492.1,31.4 491.4,30 490.4,28.8 489.2,27.7 487.8,27 486.3,26.7 484.8,26.8 483.4,27.3 482.1,28.5 480.9,30.2 480,32.7 479.4,35.9 479.2,40 479.2,70" />
<path stroke="#000000" stroke-width="2" d="M 499.1,70" />
<path stroke="#000000" stroke-width="2" d="M 499.1,20 499.1,20.7 499.2,21.4 499.3,22.1 499.5,22.8 499.7,23.4 500,24 500.4,24.6 500.8,25.2 501.2,25.8 501.7,26.2 502.3,26.7 502.8,27.1 503.4,27.4 504.1,27.7 504.7,28 505.4,28.2 506.1,28.3 506.8,28.3 507.5,28.3 508.2,28.3 508.9,28.2 509.5,28 510.2,27.7 510.8,27.4 511.4,27.1 512,26.7 512.5,26.2 513,25.8 513.5,25.2 513.9,24.6 514.2,24 514.5,23.4 514.8,22.8 514.9,22.1 515.1,21.4 515.1,20.7" />
<path stroke="#000000" stroke-width="2" d="M 521.8,70" />
<path stroke="#000000" stroke-width="2" d="M 521.8,25" />
<path stroke="#000000" stroke-width="2" d="M 521.8,25 523.8,24.9 525.4,24.6 526.7,24.1 527.6,23.6 528.1,22.9 528.4,22.2 528.5,21.4 528.3,20.7 527.9,20 527.4,19.4 526.8,18.9 526.1,18.5 525.4,18.3 524.6,18.4 523.9,18.7 523.2,19.2 522.7,20.1 522.2,21.4 521.9,23 521.8,25 521.8,40 514.1,58.5" />
<path stroke="#000000" stroke-width="2" d="M 535.1,70" />
<path stroke="#000000" stroke-width="2" d="M 535.1,40 540.9,26.1" />
<path stroke="#000000" stroke-width="2" d="M 540.9,26.1 542.9,26 544.5,25.7 545.7,25.3 546.6,24.7 547.2,24 547.5,23.3 547.5,22.6 547.3,21.8 547,21.1 546.5,20.5 545.9,20 545.2,19.7 544.4,19.5 543.7,19.5 543,19.8 542.3,20.4 541.7,21.3 541.3,22.5 541,24.1 540.9,26.1 540.9,41.1" />
<path stroke="#000000" stroke-width="2" d="M 577.5,70" />
<path stroke="#000000" stroke-width="2" d="M 587.5,30 577.5,30 577.5,70" />
<path stroke="#000000" stroke-width="2" d="M 594.2,70" />
<path stroke="#000000" stroke-width="2" d="M 602.2,50" />
<path stroke="#000000" stroke-width="2" d="M 602.2,50 602.1,52 601.8,53.6 601.3,54.9 600.7,55.8 600.1,56.3 599.3,56.6 598.6,56.7 597.9,56.5 597.2,56.1 596.6,55.6 596.1,55 595.7,54.3 595.5,53.6 595.6,52.8 595.9,52.1 596.4,51.4 597.3,50.9 598.5,50.4 600.2,50.1 602.2,50 612.2,50" />
<path stroke="#000000" stroke-width="2" d="M 618.8,70" />
<path stroke="#000000" stroke-width="2" d="M 618.8,25" />
<path stroke="#000000" stroke-width="2" d="M 618.8,25 620.9,24.9 622.5,24.6 623.7,24.1 624.6,23.6 625.2,22.9 625.5,22.2 625.5,21.4 625.3,20.7 625,20 624.5,19.4 623.9,18.9 623.2,18.5 622.4,18.3 621.7,18.4 621,18.7 620.3,19.2 619.7,20.1 619.3,21.4 619,23 618.8,25 618.8,40" />
<path stroke="#000000" stroke-width="2" d="M 655.5,70" />
<path stroke="#000000" stroke-width="2" d="M 655.5,30 695.5,30" />
<path stroke="#000000" stroke-width="2" d="M 702.2,70" />
<path stroke="#000000" stroke-width="2" d="M 712.2,50 704.5,68.5" />
<path stroke="#000000" stroke-width="2" d="M 718.8,70" />
<path stroke="#000000" stroke-width="2" d="M 718.8,35" />
<path stroke="#000000" stroke-width="2" d="M 718.8,35 720.9,34.9 722.5,34.6 723.7,34.1 724.6,33.6 725.2,32.9 725.5,32.2 725.5,31.4 725.3,30.7 725,30 724.5,29.4 723.8,28.9 723.2,28.5 722.4,28.3 721.7,28.4 720.9,28.7 720.3,29.2 719.7,30.1 719.2,31.4 718.9,33 718.8,35 718.8,50" />
<path stroke="#000000" stroke-width="2" d="M 718.8,50 720.3,50.1 721.5,50.6 722.7,51.2 723.6,52.1 724.5,53.1 725.1,54.3 725.7,55.6 726,57 726.3,58.5 726.3,60 726.3,61.5 726,63 725.7,64.4 725.1,65.7 724.5,66.9 723.6,67.9 722.7,68.8 721.5,69.4 720.3,69.9 718.8,70" />
<path stroke="#000000" stroke-width="2" d="M 756.3,70" />
<path stroke="#000000" stroke-width="2" d="M 756.3,40 756.5,40 756.5,40.2 756.3,40.2 756.3,40" />
<path stroke="#000000" stroke-width="2" d="M 763.2,70" />
<path stroke="#000000" stroke-width="2" d="M 773.2,30 772.3,30 771.5,30.1 770.6,30.2 769.8,30.5 768.9,30.8 768.1,31.1 767.4,31.6 766.7,32.1 766,32.6 765.4,33.2 764.8,33.9 764.3,34.6 763.9,35.4 763.5,36.2 763.2,37 763,37.8 762.9,38.7 762.8,39.6 762.8,40.4 762.9,41.3 763,42.2 763.2,43 763.5,43.8 763.9,44.6 764.3,45.4 764.8,46.1 765.4,46.7 766,47.4 766.7,47.9 767.4,48.4 768.1,48.9 768.9,49.2 769.8,49.5 770.6,49.8 771.5,49.9 772.3,50" />
<path stroke="#000000" stroke-width="2" d="M 772.3,50 773.8,50.1 775,50.5 776.2,51.2 777.1,52.1 778,53.1 778.6,54.3 779.2,55.6 779.5,57 779.8,58.5 779.8,60 779.8,61.5 779.5,62.9 779.2,64.3 778.6,65.7 778,66.9 777.1,67.9 776.2,68.8 775,69.4 773.8,69.8 772.3,70" />
<path stroke="#000000" stroke-width="2" d="M 809.8,70" />
<path stroke="#000000" stroke-width="2" d="M 809.8,30 809.8,70 809.8,58 809.8,56.3 810,54.5 810.3,52.8 810.7,51.1 811.3,49.5 812.1,47.9 812.9,46.4 813.9,45 815.1,43.6 816.3,42.4 817.6,41.3 819.1,40.3 820.6,39.4 822.2,38.7 823.8,38.1 825.5,37.6 827.2,37.3 828.9,37.1" />
<path stroke="#000000" stroke-width="2" d="M 835.6,70" />
<path stroke="#000000" stroke-width="2" d="M 835.6,20" />
<path stroke="#000000" stroke-width="2" d="M 835.6,20 837,20.1 838.3,20.6 839.4,21.2 840.4,22.1 841.2,23.1 841.9,24.3 842.4,25.6 842.8,27 843,28.5 843.1,30 843,31.5 842.8,33 842.4,34.4 841.9,35.7 841.2,36.9 840.4,37.9 839.4,38.8 838.3,39.4 837,39.9 835.6,40" />
<path stroke="#000000" stroke-width="2" d="M 849.8,70" />
<path stroke="#000000" stroke-width="2" d="M 869.8,30 868,30 866.3,30.2 864.6,30.5 862.9,30.9 861.2,31.5 859.7,32.2 858.2,33.1 856.7,34.1 855.4,35.2 854.2,36.5 853,37.8 852,39.2 851.2,40.7 850.4,42.3 849.8,44 849.4,45.7 849.1,47.4 848.9,49.1 848.9,50.9 849.1,52.6 849.4,54.3 849.8,56 850.4,57.6 851.2,59.2 852,60.7 853,62.2 854.2,63.5 855.4,64.7 856.7,65.8 858.2,66.8 859.7,67.7 861.2,68.5 862.9,69.1 864.6,69.5 866.3,69.8 868,70" />
<path stroke="#000000" stroke-width="2" d="M 899.8,70" />
<path stroke="#000000" stroke-width="2" d="M 899.8,40" />
<path stroke="#000000" stroke-width="2" d="M 899.8,40 903.8,39.8 907.1,39.2 909.5,38.3 911.3,37.1 912.4,35.8 913,34.3 913.1,32.8 912.7,31.4 912,30 911,28.8 909.8,27.7 908.4,27 906.9,26.7 905.4,26.8 904,27.3 902.7,28.5 901.5,30.2 900.6,32.7 900,35.9 899.8,40 899.8,70" />
<path stroke="#000000" stroke-width="2" d="M 919.7,70" />
<path stroke="#000000" stroke-width="2" d="M 919.7,30 919.7,34 919.7,34.5 919.8,35 919.9,35.6 920,36.1 920.2,36.6 920.4,37 920.7,37.5 921,37.9 921.3,38.3 921.7,38.7 922.1,39 922.5,39.3 923,39.6 923.4,39.8 923.9,40 924.4,40.1 925,40.2 925.5,40.3 926,40.3 926.5,40.2 927,40.1 927.5,40 928,39.8 928.5,39.6 929,39.3 929.4,39 929.8,38.7 930.2,38.3 930.5,37.9 930.8,37.5 931.1,37 931.3,36.6 931.5,36.1 931.6,35.6 931.7,35 931.7,34.5 931.7,29.5 931.7,49.5 951.7,49.5" />
<path stroke="#000000" stroke-width="2" d="M 958.4,70" />
<path stroke="#000000" stroke-width="2" d="M 958.4,20 958.4,20.7 958.5,21.4 958.6,22.1 958.8,22.8 959,23.4 959.3,24 959.6,24.6 960,25.2 960.5,25.8 961,26.2 961.5,26.7 962.1,27.1 962.7,27.4 963.3,27.7 964,28 964.7,28.2 965.4,28.3 966,28.3 966.7,28.3 967.4,28.3 968.1,28.2 968.8,28 969.5,27.7 970.1,27.4 970.7,27.1 971.3,26.7 971.8,26.2 972.3,25.8 972.7,25.2 973.1,24.6 973.5,24 973.8,23.4 974,22.8 974.2,22.1 974.3,21.4 974.4,20.7" />
<path stroke="#000000" stroke-width="2" d="M 1004.4,70" />
</svg>