<svg xmlns="http://www.w3.org/2000/svg" width="270.0165940296762" height="90.2" style="fill:none; stroke-linecap:round;">
    <rect width="100%" height="100%" fill="#FFFFFF" />
<path stroke="#000000" stroke-width="2" d="M 550,75" />
<path stroke="#000000" stroke-width="2" d="M 20,30 20,50 30,50 30.9,50 31.7,50.1 32.6,50.2 33.4,50.5 34.3,50.8 35.1,51.1 35.8,51.6 36.5,52.1 37.2,52.6 37.8,53.2 38.4,53.9 38.9,54.6 39.3,55.4 39.7,56.2 40,57 40.2,57.8 40.4,58.7 40.4,59.6 40.4,60.4 40.4,61.3 40.2,62.2 40,63 39.7,63.8 39.3,64.6 38.9,65.4 38.4,66.1 37.8,66.7 37.2,67.4 36.5,67.9 35.8,68.4 35.1,68.9 34.3,69.2 33.4,69.5 32.6,69.8 31.7,69.9 30.9,70" />
<path stroke="#000000" stroke-width="2" d="M 70.4,70" />
<path stroke="#000000" stroke-width="2" d="M 70.4,30 85.7,67 101,30" />
<path stroke="#000000" stroke-width="2" d="M 101,50" />
<path stroke="#000000" stroke-width="2" d="M 69,50 103,50" />
<path stroke="#000000" stroke-width="2" d="M 133,70" />
<path stroke="#000000" stroke-width="2" d="M 149,30 129.2,49.8 149,69.6" />
<path stroke="#000000" stroke-width="2" d="M 155.7,70" />
<path stroke="#000000" stroke-width="2" d="M 155.7,20 155.7,40 155.7,34 155.7,33.1 155.8,32.3 155.9,31.4 156.2,30.6 156.5,29.7 156.8,28.9 157.3,28.2 157.8,27.5 158.3,26.8 158.9,26.2 159.6,25.6 160.3,25.1 161.1,24.7 161.9,24.3 162.7,24 163.5,23.8 164.4,23.6 165.3,23.6 166.1,23.6 167,23.6 167.9,23.8 168.7,24 169.5,24.3 170.3,24.7 171.1,25.1 171.8,25.6 172.5,26.2 173.1,26.8 173.6,27.5 174.1,28.2 174.6,28.9 174.9,29.7 175.2,30.6 175.5,31.4 175.6,32.3 175.7,33.1 175.7,34 175.6,34.9 175.5,35.7 175.2,36.6 174.9,37.4 174.6,38.2 174.1,38.9 173.6,39.7 173.1,40.3 172.5,40.9 171.8,41.5 171.1,42 170.3,42.4 169.5,42.8 168.7,43.1 167.9,43.3 167,43.5 166.1,43.6" />
<path stroke="#000000" stroke-width="2" d="M 205.7,70" />
<path stroke="#000000" stroke-width="2" d="M 215.7,30 214.8,30 213.9,30.1 213.1,30.2 212.2,30.5 211.4,30.8 210.6,31.1 209.9,31.6 209.2,32.1 208.5,32.6 207.9,33.2 207.3,33.9 206.8,34.6 206.4,35.4 206,36.2 205.7,37 205.5,37.8 205.3,38.7 205.3,39.6 205.3,40.4 205.3,41.3 205.5,42.2 205.7,43 206,43.8 206.4,44.6 206.8,45.4 207.3,46.1 207.9,46.7 208.5,47.4 209.2,47.9 209.9,48.4 210.6,48.9 211.4,49.2 212.2,49.5 213.1,49.8 213.9,49.9 214.8,50 219.8,50 219.8,70" />
<path stroke="#000000" stroke-width="2" d="M 249.8,70" />
<path stroke="#000000" stroke-width="2" d="M 249.8,70 250,70 250,70.2 249.8,70.2 249.8,70" />
<path stroke="#000000" stroke-width="2" d="M 280,70" />
</svg>