<svg xmlns="http://www.w3.org/2000/svg" width="466.8890833842397" height="108.47759065022574" style="fill:none; stroke-linecap:round;">
    <rect width="100%" height="100%" fill="#FFFFFF" />
<path stroke="#000000" stroke-width="2" d="M 550,75" />
<path stroke="#000000" stroke-width="2" d="M 20,30 20,70 31.3,58.7" />
<path stroke="#000000" stroke-width="2" d="M 38,70" />
<path stroke="#000000" stroke-width="2" d="M 58,20 38.2,39.8" />
<path stroke="#000000" stroke-width="2" d="M 38.2,19.8 58,39.6" />
<path stroke="#000000" stroke-width="2" d="M 58,39.6 57.9,41.6 57.6,43.2 57.1,44.5 56.5,45.4 55.9,45.9 55.1,46.2 54.4,46.3 53.7,46.1 53,45.7 52.4,45.2 51.9,44.6 51.5,43.9 51.3,43.2 51.4,42.4 51.7,41.7 52.2,41 53.1,40.5 54.3,40 55.9,39.7 58,39.6 68,39.6" />
<path stroke="#000000" stroke-width="2" d="M 74.6,70" />
<path stroke="#000000" stroke-width="2" d="M 74.6,20 74.6,40 74.6,34 74.6,33.1 74.7,32.3 74.9,31.4 75.1,30.6 75.4,29.7 75.8,28.9 76.2,28.2 76.7,27.5 77.3,26.8 77.9,26.2 78.5,25.6 79.3,25.1 80,24.7 80.8,24.3 81.6,24 82.5,23.8 83.3,23.6 84.2,23.6" />
<path stroke="#000000" stroke-width="2" d="M 90.9,70" />
<path stroke="#000000" stroke-width="2" d="M 92.9,50 98.2,37.1 98.4,36.7 98.5,36.4 98.5,36.1 98.6,35.7 98.6,35.4 98.6,35 98.5,34.7 98.5,34.3 98.4,34 98.2,33.7 98.1,33.4 97.9,33.1 97.7,32.8 97.4,32.5 97.2,32.3 96.9,32.1 96.6,31.9 96.3,31.7 96,31.6 95.6,31.5 95.3,31.4 94.9,31.4 94.6,31.4 94.3,31.4 93.9,31.4 93.6,31.5 93.2,31.6 92.9,31.7 92.6,31.9 92.3,32.1 92,32.3 91.8,32.5 91.5,32.8 91.3,33.1 91.1,33.4 91,33.7 90.8,34 90.7,34.3 90.7,34.7 90.6,35 90.6,35.4 90.6,35.7 90.7,36.1 90.7,36.4 90.8,36.7 91,37.1 91.1,37.4 91.3,37.7 91.5,37.9 91.8,38.2 92,38.4 92.3,38.7 92.6,38.8 92.9,39 93.2,39.1 93.6,39.2 93.9,39.3 94.3,39.4 94.6,39.4 94.9,39.4 107.9,34 127.9,34" />
<path stroke="#000000" stroke-width="2" d="M 127.9,34 129.9,33.9 131.5,33.6 132.8,33.1 133.6,32.6 134.2,31.9 134.5,31.2 134.5,30.4 134.4,29.7 134,29 133.5,28.4 132.9,27.9 132.2,27.5 131.5,27.3 130.7,27.4 130,27.7 129.3,28.2 128.7,29.1 128.3,30.4 128,32 127.9,34 127.9,49" />
<path stroke="#000000" stroke-width="2" d="M 164.5,70" />
<path stroke="#000000" stroke-width="2" d="M 164.5,30 164.5,50 174.5,50 166.9,68.5" />
<path stroke="#000000" stroke-width="2" d="M 204.5,70" />
<path stroke="#000000" stroke-width="2" d="M 209.5,30" />
<path stroke="#000000" stroke-width="2" d="M 209.5,30 208.1,30.1 206.8,30.6 205.7,31.2 204.7,32.1 203.9,33.1 203.2,34.3 202.7,35.6 202.3,37 202.1,38.5 202,40 202.1,41.5 202.3,43 202.7,44.4 203.2,45.7 203.9,46.9 204.7,47.9 205.7,48.8 206.8,49.4 208.1,49.9 209.5,50 214.5,50 214.5,70 206.9,88.5" />
<path stroke="#000000" stroke-width="2" d="M 221.2,70" />
<path stroke="#000000" stroke-width="2" d="M 221.2,20 241.2,20" />
<path stroke="#000000" stroke-width="2" d="M 271.2,70" />
<path stroke="#000000" stroke-width="2" d="M 271.2,30 271.2,70" />
<path stroke="#000000" stroke-width="2" d="M 277.9,70" />
<path stroke="#000000" stroke-width="2" d="M 277.9,20 277.9,20.7 277.9,21.4 278.1,22.1 278.2,22.8 278.5,23.4 278.8,24 279.1,24.6 279.5,25.2 280,25.8 280.5,26.2 281,26.7 281.6,27.1 282.2,27.4 282.8,27.7 283.5,28 284.1,28.2 284.8,28.3 285.5,28.3 286.2,28.3 286.9,28.3 287.6,28.2 288.3,28 288.9,27.7 289.6,27.4 290.2,27.1 290.7,26.7 291.3,26.2 291.8,25.8 292.2,25.2 292.6,24.6 293,24 293.3,23.4 293.5,22.8 293.7,22.1 293.8,21.4 293.9,20.7" />
<path stroke="#000000" stroke-width="2" d="M 300.5,70" />
<path stroke="#000000" stroke-width="2" d="M 312.5,56" />
<path stroke="#000000" stroke-width="2" d="M 312.5,56 310.5,55.9 308.9,55.6 307.6,55.1 306.8,54.6 306.2,53.9 305.9,53.2 305.9,52.4 306,51.7 306.4,51 306.9,50.4 307.5,49.9 308.2,49.5 308.9,49.3 309.7,49.4 310.4,49.7 311.1,50.2 311.7,51.1 312.1,52.4 312.4,54 312.5,56 312.5,60" />
<path stroke="#000000" stroke-width="2" d="M 312.5,60 312.2,60.9 311.9,61.7 311.5,62.4 311.1,63.1 310.7,63.8 310.2,64.4 309.8,64.9 309.3,65.4 308.8,65.9 308.3,66.2 307.7,66.6 307.2,66.9 306.6,67.2 306.1,67.4 305.5,67.6 304.9,67.7 304.3,67.9 303.7,67.9 303.1,68 302.5,68" />
<path stroke="#000000" stroke-width="2" d="M 302.5,68 304.6,67.9 306.2,67.6 307.4,67.1 308.3,66.6 308.9,65.9 309.1,65.2 309.2,64.4 309,63.7 308.6,63 308.1,62.4 307.5,61.9 306.8,61.5 306.1,61.3 305.4,61.4 304.6,61.7 304,62.2 303.4,63.1 302.9,64.4 302.6,66 302.5,68 302.5,83" />
<path stroke="#000000" stroke-width="2" d="M 342.5,70" />
<path stroke="#000000" stroke-width="2" d="M 342.5,30 382.5,30" />
<path stroke="#000000" stroke-width="2" d="M 412.5,70" />
<path stroke="#000000" stroke-width="2" d="M 412.5,70 412.7,70 412.7,70.2 412.5,70.2 412.5,70" />
<path stroke="#000000" stroke-width="2" d="M 419.4,70" />
<path stroke="#000000" stroke-width="2" d="M 419.4,30 439.4,30" />
<path stroke="#000000" stroke-width="2" d="M 439.4,30 440.8,30.1 442.1,30.6 443.2,31.2 444.2,32.1 445,33.1 445.7,34.3 446.2,35.6 446.6,37 446.8,38.5 446.9,40 446.8,41.5 446.6,43 446.2,44.4 445.7,45.7 445,46.9 444.2,47.9 443.2,48.8 442.1,49.4 440.8,49.9 439.4,50" />
<path stroke="#000000" stroke-width="2" d="M 476.9,70" />
</svg>