<svg xmlns="http://www.w3.org/2000/svg" width="533.0032454798388" height="103.47759065022574" style="fill:none; stroke-linecap:round;">
    <rect width="100%" height="100%" fill="#FFFFFF" />
<path stroke="#000000" stroke-width="2" d="M 550,75" />
<path stroke="#000000" stroke-width="2" d="M 20,70 20.2,70 20.2,70.2 20,70.2 20,70" />
<path stroke="#000000" stroke-width="2" d="M 26.9,70" />
<path stroke="#000000" stroke-width="2" d="M 38.9,30" />
<path stroke="#000000" stroke-width="2" d="M 38.9,30 38.7,34.1 38.1,37.3 37.1,39.8 36,41.5 34.6,42.7 33.2,43.2 31.7,43.3 30.2,43 28.8,42.3 27.6,41.2 26.6,40 25.9,38.6 25.6,37.2 25.6,35.7 26.2,34.2 27.3,32.9 29.1,31.7 31.6,30.8 34.8,30.2 38.9,30 46.9,30" />
<path stroke="#000000" stroke-width="2" d="M 46.9,30 48.6,30.6 50.2,31.3 51.7,32.1 53.1,32.8 54.4,33.7 55.6,34.6 56.7,35.5 57.7,36.5 58.6,37.5 59.4,38.5 60.1,39.6 60.7,40.7 61.2,41.8 61.7,42.9 62.1,44.1 62.4,45.2 62.6,46.4 62.7,47.6 62.8,48.8 62.9,50" />
<path stroke="#000000" stroke-width="2" d="M 69.5,70" />
<path stroke="#000000" stroke-width="2" d="M 69.5,50 69.5,70 69.5,70.7 69.6,71.4 69.7,72.1 69.9,72.8 70.1,73.4 70.4,74 70.8,74.6 71.2,75.2 71.6,75.8 72.1,76.2 72.7,76.7 73.2,77.1 73.8,77.4 74.5,77.7 75.1,78 75.8,78.2 76.5,78.3 77.2,78.3 77.9,78.3 78.6,78.3 79.3,78.2 79.9,78 80.6,77.7 81.2,77.4 81.8,77.1 82.4,76.7 82.9,76.2 83.4,75.8 83.9,75.2 84.3,74.6 84.6,74 84.9,73.4 85.2,72.8 85.3,72.1 85.5,71.4 85.5,70.7" />
<path stroke="#000000" stroke-width="2" d="M 92.2,70" />
<path stroke="#000000" stroke-width="2" d="M 92.2,20 99.8,38.5" />
<path stroke="#000000" stroke-width="2" d="M 129.8,70" />
<path stroke="#000000" stroke-width="2" d="M 129.8,30 129.8,50 139.8,50" />
<path stroke="#000000" stroke-width="2" d="M 139.8,50 141.9,49.9 143.5,49.6 144.7,49.1 145.6,48.6 146.2,47.9 146.5,47.2 146.5,46.4 146.3,45.7 146,45 145.5,44.4 144.9,43.9 144.2,43.5 143.4,43.3 142.7,43.4 141.9,43.7 141.3,44.2 140.7,45.1 140.2,46.4 139.9,48 139.8,50 139.8,65 159.8,65 152.2,83.5" />
<path stroke="#000000" stroke-width="2" d="M 189.8,70" />
<path stroke="#000000" stroke-width="2" d="M 209.8,70 211.6,70 213.3,69.8 215,69.5 216.7,69.1 218.4,68.5 219.9,67.8 221.5,66.9 222.9,65.9 224.2,64.8 225.5,63.5 226.6,62.2 227.6,60.8 228.5,59.3 229.2,57.7 229.8,56 230.2,54.3 230.5,52.6 230.7,50.9 230.7,49.1 230.5,47.4 230.2,45.7 229.8,44 229.2,42.4 228.5,40.8 227.6,39.3 226.6,37.8 225.5,36.5 224.2,35.3 222.9,34.2 221.5,33.2 219.9,32.3 218.4,31.5 216.7,30.9 215,30.5 213.3,30.2 211.6,30 209.8,30 208.1,30.2 206.4,30.5 204.7,30.9 203.1,31.5 201.5,32.3 200,33.2 198.5,34.2 197.2,35.3 196,36.5 194.8,37.8 193.8,39.3 193,40.8 192.2,42.4 191.6,44 191.2,45.7 190.9,47.4 190.7,49.1 190.7,50.9 190.9,52.6 191.2,54.3 191.6,56 192.2,57.7 193,59.3 193.8,60.8 194.8,62.2 196,63.5 197.2,64.8 198.5,65.9 200,66.9 201.5,67.8 203.1,68.5 204.7,69.1 206.4,69.5 208.1,69.8 209.8,70" />
<path stroke="#000000" stroke-width="2" d="M 237.4,70" />
<path stroke="#000000" stroke-width="2" d="M 247.4,20 239.7,38.5" />
<path stroke="#000000" stroke-width="2" d="M 277.4,70" />
<path stroke="#000000" stroke-width="2" d="M 297.4,30 297.4,70 277.4,70" />
<path stroke="#000000" stroke-width="2" d="M 304,70" />
<path stroke="#000000" stroke-width="2" d="M 304,50 324,50" />
<path stroke="#000000" stroke-width="2" d="M 330.7,70" />
<path stroke="#000000" stroke-width="2" d="M 330.7,30 330.9,30 330.9,30.2 330.7,30.2 330.7,30" />
<path stroke="#000000" stroke-width="2" d="M 360.9,70" />
<path stroke="#000000" stroke-width="2" d="M 360.9,46 360.9,44.6 361,43.2 361.3,41.8 361.6,40.5 362.1,39.2 362.7,37.9 363.4,36.7 364.2,35.6 365.1,34.5 366.1,33.5 367.1,32.6 368.3,31.8 369.5,31.1 370.8,30.5 372.1,30 373.4,29.7 374.8,29.4 376.2,29.3 377.6,29.3 379,29.4 380.3,29.7 381.7,30 383,30.5 384.3,31.1 385.5,31.8 386.6,32.6 387.7,33.5 388.7,34.5 389.6,35.6 390.4,36.7 391.1,37.9 391.7,39.2 392.1,40.5 392.5,41.8 392.7,43.2 392.9,44.6" />
<path stroke="#000000" stroke-width="2" d="M 399.5,70" />
<path stroke="#000000" stroke-width="2" d="M 399.5,20 419.5,20 411.9,38.5" />
<path stroke="#000000" stroke-width="2" d="M 449.5,70" />
<path stroke="#000000" stroke-width="2" d="M 449.5,30 449.5,70 449.5,58 449.5,56.3 449.7,54.5 450,52.8 450.4,51.1 451,49.5 451.8,47.9 452.6,46.4 453.6,45 454.8,43.6 456,42.4 457.3,41.3 458.8,40.3 460.3,39.4 461.9,38.7 463.5,38.1 465.2,37.6 466.9,37.3 468.6,37.1" />
<path stroke="#000000" stroke-width="2" d="M 475.3,70" />
<path stroke="#000000" stroke-width="2" d="M 475.3,20" />
<path stroke="#000000" stroke-width="2" d="M 475.3,20 476.7,20.1 478,20.6 479.1,21.2 480.1,22.1 480.9,23.1 481.6,24.3 482.1,25.6 482.5,27 482.7,28.5 482.8,30 482.7,31.5 482.5,33 482.1,34.4 481.6,35.7 480.9,36.9 480.1,37.9 479.1,38.8 478,39.4 476.7,39.9 475.3,40" />
<path stroke="#000000" stroke-width="2" d="M 512.8,70" />
<path stroke="#000000" stroke-width="2" d="M 512.8,70 513,70 513,70.2 512.8,70.2 512.8,70" />
<path stroke="#000000" stroke-width="2" d="M 543,70" />
</svg>