<svg xmlns="http://www.w3.org/2000/svg" width="1743.2240588630407" height="90.2" style="fill:none; stroke-linecap:round;">
    <rect width="100%" height="100%" fill="#FFFFFF" />
<path stroke="#000000" stroke-width="2" d="M 550,75" />
<path stroke="#000000" stroke-width="2" d="M 20,30 35.3,67" />
<path stroke="#000000" stroke-width="2" d="M 42,70" />
<path stroke="#000000" stroke-width="2" d="M 52,20 44.3,38.5" />
<path stroke="#000000" stroke-width="2" d="M 82,70" />
<path stroke="#000000" stroke-width="2" d="M 82,30 82,70 93.3,58.7" />
<path stroke="#000000" stroke-width="2" d="M 100,70" />
<path stroke="#000000" stroke-width="2" d="M 110,30 102.3,48.5 92.4,58.4 102.3,68.3" />
<path stroke="#000000" stroke-width="2" d="M 140,70" />
<path stroke="#000000" stroke-width="2" d="M 140,30 150,30 150,70" />
<path stroke="#000000" stroke-width="2" d="M 156.6,70" />
<path stroke="#000000" stroke-width="2" d="M 156.6,50 156.6,70 156.6,64 156.6,63.1 156.7,62.3 156.8,61.4 157.1,60.6 157.4,59.7 157.7,58.9 158.2,58.2 158.7,57.5 159.2,56.8 159.9,56.2 160.5,55.6 161.2,55.1 162,54.7 162.8,54.3 163.6,54 164.4,53.8 165.3,53.6 166.2,53.6" />
<path stroke="#000000" stroke-width="2" d="M 196.2,70" />
<path stroke="#000000" stroke-width="2" d="M 206.2,30 198.5,48.5 198.5,68.5 204.2,62.8" />
<path stroke="#000000" stroke-width="2" d="M 212.8,70" />
<path stroke="#000000" stroke-width="2" d="M 212.8,20 232.8,20 225.2,38.5" />
<path stroke="#000000" stroke-width="2" d="M 239.5,70" />
<path stroke="#000000" stroke-width="2" d="M 239.5,30 239.7,30 239.7,30.2 239.5,30.2 239.5,30" />
<path stroke="#000000" stroke-width="2" d="M 269.7,70" />
<path stroke="#000000" stroke-width="2" d="M 279.7,30 278.8,30 278,30.1 277.1,30.2 276.3,30.5 275.4,30.8 274.7,31.1 273.9,31.6 273.2,32.1 272.5,32.6 271.9,33.2 271.3,33.9 270.8,34.6 270.4,35.4 270,36.2 269.7,37 269.5,37.8 269.4,38.7 269.3,39.6 269.3,40.4 269.4,41.3 269.5,42.2 269.7,43 270,43.8 270.4,44.6 270.8,45.4 271.3,46.1 271.9,46.7 272.5,47.4 273.2,47.9 273.9,48.4 274.7,48.9 275.4,49.2 276.3,49.5 277.1,49.8 278,49.9 278.8,50 298.8,50" />
<path stroke="#000000" stroke-width="2" d="M 328.8,70" />
<path stroke="#000000" stroke-width="2" d="M 344.8,30" />
<path stroke="#000000" stroke-width="2" d="M 344.8,30 344.6,34.1 344,37.3 343.1,39.8 342,41.5 340.6,42.7 339.2,43.2 337.7,43.3 336.2,43 334.8,42.3 333.6,41.2 332.6,40 331.9,38.6 331.5,37.2 331.6,35.7 332.2,34.2 333.3,32.9 335.1,31.7 337.5,30.8 340.8,30.2 344.8,30 364.8,30" />
<path stroke="#000000" stroke-width="2" d="M 394.8,70" />
<path stroke="#000000" stroke-width="2" d="M 394.8,30 410.1,67" />
<path stroke="#000000" stroke-width="2" d="M 440.1,70" />
<path stroke="#000000" stroke-width="2" d="M 440.1,70 440.3,70 440.3,70.2 440.1,70.2 440.1,70" />
<path stroke="#000000" stroke-width="2" d="M 470.3,70" />
<path stroke="#000000" stroke-width="2" d="M 480.3,30 479.5,30 478.6,30.1 477.7,30.2 476.9,30.5 476.1,30.8 475.3,31.1 474.5,31.6 473.8,32.1 473.2,32.6 472.5,33.2 472,33.9 471.5,34.6 471,35.4 470.7,36.2 470.4,37 470.1,37.8 470,38.7 469.9,39.6 469.9,40.4 470,41.3 470.1,42.2 470.4,43 470.7,43.8 471,44.6 471.5,45.4 472,46.1 472.5,46.7 473.2,47.4 473.8,47.9 474.5,48.4 475.3,48.9 476.1,49.2 476.9,49.5 477.7,49.8 478.6,49.9 479.5,50 499.5,50" />
<path stroke="#000000" stroke-width="2" d="M 529.5,70" />
<path stroke="#000000" stroke-width="2" d="M 539.5,30 538.6,30 537.7,30.1 536.9,30.2 536,30.5 535.2,30.8 534.4,31.1 533.7,31.6 532.9,32.1 532.3,32.6 531.7,33.2 531.1,33.9 530.6,34.6 530.2,35.4 529.8,36.2 529.5,37 529.3,37.8 529.1,38.7 529,39.6 529,40.4 529.1,41.3 529.3,42.2 529.5,43 529.8,43.8 530.2,44.6 530.6,45.4 531.1,46.1 531.7,46.7 532.3,47.4 532.9,47.9 533.7,48.4 534.4,48.9 535.2,49.2 536,49.5 536.9,49.8 537.7,49.9 538.6,50 543.6,50 543.6,70" />
<path stroke="#000000" stroke-width="2" d="M 573.6,70" />
<path stroke="#000000" stroke-width="2" d="M 573.6,70 573.8,70 573.8,70.2 573.6,70.2 573.6,70" />
<path stroke="#000000" stroke-width="2" d="M 580.5,70" />
<path stroke="#000000" stroke-width="2" d="M 580.5,30 590.5,30 590.5,70" />
<path stroke="#000000" stroke-width="2" d="M 597.1,70" />
<path stroke="#000000" stroke-width="2" d="M 597.1,30 597.1,50 597.1,44 597.1,43.1 597.2,42.3 597.4,41.4 597.6,40.6 597.9,39.7 598.3,38.9 598.7,38.2 599.2,37.5 599.7,36.8 600.4,36.2 601,35.6 601.7,35.1 602.5,34.7 603.3,34.3 604.1,34 605,33.8 605.8,33.6 606.7,33.6" />
<path stroke="#000000" stroke-width="2" d="M 606.7,33.6 608.7,33.5 610.3,33.2 611.6,32.7 612.4,32.1 613,31.5 613.3,30.7 613.3,30 613.2,29.3 612.8,28.6 612.3,27.9 611.7,27.4 611,27.1 610.3,26.9 609.5,27 608.8,27.2 608.1,27.8 607.5,28.7 607.1,29.9 606.8,31.5 606.7,33.6 606.7,48.6 599,67.1" />
<path stroke="#000000" stroke-width="2" d="M 643.3,70" />
<path stroke="#000000" stroke-width="2" d="M 655.3,36" />
<path stroke="#000000" stroke-width="2" d="M 655.3,36 653.3,35.9 651.7,35.6 650.5,35.1 649.6,34.6 649,33.9 648.7,33.2 648.7,32.4 648.9,31.7 649.2,31 649.7,30.4 650.3,29.9 651,29.5 651.8,29.3 652.5,29.4 653.2,29.7 653.9,30.2 654.5,31.1 654.9,32.4 655.2,34 655.3,36 655.3,40" />
<path stroke="#000000" stroke-width="2" d="M 655.3,40 655,40.9 654.7,41.7 654.3,42.4 653.9,43.1 653.5,43.8 653.1,44.4 652.6,44.9 652.1,45.4 651.6,45.9 651.1,46.2 650.6,46.6 650,46.9 649.5,47.2 648.9,47.4 648.3,47.6 647.7,47.7 647.1,47.9 646.5,47.9 645.9,48 645.3,48" />
<path stroke="#000000" stroke-width="2" d="M 645.3,48 647.4,47.9 649,47.6 650.2,47.1 651.1,46.6 651.7,45.9 652,45.2 652,44.4 651.8,43.7 651.5,43 651,42.4 650.4,41.9 649.7,41.5 648.9,41.3 648.2,41.4 647.5,41.7 646.8,42.2 646.2,43.1 645.7,44.4 645.4,46 645.3,48 645.3,63" />
<path stroke="#000000" stroke-width="2" d="M 685.3,70" />
<path stroke="#000000" stroke-width="2" d="M 685.3,30 685.3,70 705.3,70" />
<path stroke="#000000" stroke-width="2" d="M 735.3,70" />
<path stroke="#000000" stroke-width="2" d="M 735.3,30 737.1,30 738.8,30.2 740.5,30.5 742.2,30.9 743.9,31.5 745.4,32.2 747,33.1 748.4,34.1 749.7,35.2 751,36.5 752.1,37.8 753.1,39.2 754,40.7 754.7,42.3 755.3,44 755.7,45.7 756,47.4 756.2,49.1 756.2,50.9 756,52.6 755.7,54.3 755.3,56 754.7,57.6 754,59.2 753.1,60.7 752.1,62.2 751,63.5 749.7,64.7 748.4,65.8 747,66.8 745.4,67.7 743.9,68.5 742.2,69.1 740.5,69.5 738.8,69.8 737.1,70" />
<path stroke="#000000" stroke-width="2" d="M 762.9,70" />
<path stroke="#000000" stroke-width="2" d="M 762.9,30 764.6,30 766.3,30.2 768.1,30.5 769.7,30.9 771.4,31.5 773,32.2 774.5,33.1 775.9,34.1 777.2,35.2 778.5,36.5 779.6,37.8 780.6,39.2 781.5,40.7 782.2,42.3 782.8,44 783.3,45.7 783.6,47.4 783.7,49.1 783.7,50.9 783.6,52.6 783.3,54.3 782.8,56 782.2,57.6 781.5,59.2 780.6,60.7 779.6,62.2 778.5,63.5 777.2,64.7 775.9,65.8 774.5,66.8 773,67.7 771.4,68.5 769.7,69.1 768.1,69.5 766.3,69.8 764.6,70" />
<path stroke="#000000" stroke-width="2" d="M 813.7,70" />
<path stroke="#000000" stroke-width="2" d="M 813.7,30 813.7,70 825,58.7" />
<path stroke="#000000" stroke-width="2" d="M 831.7,70" />
<path stroke="#000000" stroke-width="2" d="M 831.7,25" />
<path stroke="#000000" stroke-width="2" d="M 831.7,25 833.7,24.9 835.3,24.6 836.6,24.1 837.5,23.6 838,22.9 838.3,22.2 838.3,21.4 838.2,20.7 837.8,20 837.3,19.4 836.7,18.9 836,18.5 835.3,18.3 834.5,18.4 833.8,18.7 833.1,19.2 832.6,20.1 832.1,21.4 831.8,23 831.7,25 831.7,40" />
<path stroke="#000000" stroke-width="2" d="M 868.3,70" />
<path stroke="#000000" stroke-width="2" d="M 868.3,50 874.1,36.1" />
<path stroke="#000000" stroke-width="2" d="M 874.1,36.1 876.1,36 877.7,35.7 879,35.3 879.8,34.7 880.4,34 880.7,33.3 880.7,32.6 880.6,31.8 880.2,31.1 879.7,30.5 879.1,30 878.4,29.7 877.7,29.5 876.9,29.5 876.2,29.8 875.5,30.4 874.9,31.3 874.5,32.5 874.2,34.1 874.1,36.1 874.1,51.1 874.1,50.4 874.2,49.7 874.3,49.1 874.5,48.4 874.7,47.7 875,47.1 875.3,46.5 875.7,45.9 876.2,45.4 876.7,44.9 877.2,44.4 877.8,44 878.4,43.7 879,43.4 879.7,43.2 880.4,43 881,42.9 881.7,42.8 882.4,42.8 883.1,42.9 883.8,43 884.5,43.2 885.1,43.4 885.8,43.7 886.4,44 887,44.4 887.5,44.9 888,45.4 888.4,45.9 888.8,46.5 889.2,47.1 889.5,47.7 889.7,48.4 889.9,49.1 890,49.7 890.1,50.4" />
<path stroke="#000000" stroke-width="2" d="M 920.1,70" />
<path stroke="#000000" stroke-width="2" d="M 920.1,40 920.3,40 920.3,40.2 920.1,40.2 920.1,40" />
<path stroke="#000000" stroke-width="2" d="M 926.9,70" />
<path stroke="#000000" stroke-width="2" d="M 926.9,30 966.9,30" />
<path stroke="#000000" stroke-width="2" d="M 973.6,70" />
<path stroke="#000000" stroke-width="2" d="M 973.6,50 973.6,70 973.6,64 973.6,63.1 973.7,62.3 973.8,61.4 974.1,60.6 974.4,59.7 974.7,58.9 975.2,58.2 975.7,57.5 976.2,56.8 976.8,56.2 977.5,55.6 978.2,55.1 979,54.7 979.8,54.3 980.6,54 981.4,53.8 982.3,53.6 983.2,53.6" />
<path stroke="#000000" stroke-width="2" d="M 983.2,53.6 985.2,53.5 986.8,53.2 988,52.7 988.9,52.1 989.5,51.5 989.8,50.7 989.8,50 989.6,49.3 989.3,48.6 988.8,47.9 988.2,47.4 987.5,47.1 986.7,46.9 986,47 985.3,47.2 984.6,47.8 984,48.7 983.6,49.9 983.3,51.5 983.2,53.6 983.2,68.6" />
<path stroke="#000000" stroke-width="2" d="M 1019.8,70" />
<path stroke="#000000" stroke-width="2" d="M 1019.8,30 1019.8,70 1031.1,58.7" />
<path stroke="#000000" stroke-width="2" d="M 1037.8,70" />
<path stroke="#000000" stroke-width="2" d="M 1037.8,20 1057.8,20" />
<path stroke="#000000" stroke-width="2" d="M 1087.8,70" />
<path stroke="#000000" stroke-width="2" d="M 1127.8,30 1088.2,69.6" />
<path stroke="#000000" stroke-width="2" d="M 1088.2,29.6 1127.8,69.2" />
<path stroke="#000000" stroke-width="2" d="M 1134.5,70" />
<path stroke="#000000" stroke-width="2" d="M 1134.5,40 1134.5,39.3 1134.5,38.6 1134.6,37.9 1134.8,37.2 1135.1,36.6 1135.4,36 1135.7,35.4 1136.1,34.8 1136.6,34.2 1137.1,33.8 1137.6,33.3 1138.2,32.9 1138.8,32.6 1139.4,32.3 1140,32 1140.7,31.8 1141.4,31.7 1142.1,31.7 1142.8,31.7 1143.5,31.7 1144.2,31.8 1144.9,32 1145.5,32.3 1146.1,32.6 1146.8,32.9 1147.3,33.3 1147.9,33.8 1148.4,34.2 1148.8,34.8 1149.2,35.4 1149.6,36 1149.8,36.6 1150.1,37.2 1150.3,37.9 1150.4,38.6 1150.4,39.3 1142.8,57.8 1142.8,58.5 1142.9,59.2 1143,59.9 1143.2,60.5 1143.4,61.2 1143.7,61.8 1144,62.4 1144.4,63 1144.9,63.5 1145.4,64 1145.9,64.5 1146.5,64.9 1147.1,65.2 1147.7,65.5 1148.4,65.8 1149.1,65.9 1149.7,66.1 1150.4,66.1 1151.1,66.1 1151.8,66.1 1152.5,65.9 1153.2,65.8 1153.8,65.5 1154.5,65.2 1155.1,64.9 1155.7,64.5 1156.2,64 1156.7,63.5 1157.1,63 1157.5,62.4 1157.9,61.8 1158.2,61.2 1158.4,60.5 1158.6,59.9 1158.7,59.2 1158.8,58.5" />
<path stroke="#000000" stroke-width="2" d="M 1165.4,70" />
<path stroke="#000000" stroke-width="2" d="M 1165.4,30 1165.6,30 1165.6,30.2 1165.4,30.2 1165.4,30" />
<path stroke="#000000" stroke-width="2" d="M 1195.6,70" />
<path stroke="#000000" stroke-width="2" d="M 1195.6,30 1195.6,70 1215.6,70" />
<path stroke="#000000" stroke-width="2" d="M 1245.6,70" />
<path stroke="#000000" stroke-width="2" d="M 1245.6,30 1247.4,30 1249.1,30.2 1250.8,30.5 1252.5,30.9 1254.2,31.5 1255.8,32.2 1257.3,33.1 1258.7,34.1 1260,35.2 1261.3,36.5 1262.4,37.8 1263.4,39.2 1264.3,40.7 1265,42.3 1265.6,44 1266,45.7 1266.3,47.4 1266.5,49.1 1266.5,50.9 1266.3,52.6 1266,54.3 1265.6,56 1265,57.6 1264.3,59.2 1263.4,60.7 1262.4,62.2 1261.3,63.5 1260,64.7 1258.7,65.8 1257.3,66.8 1255.8,67.7 1254.2,68.5 1252.5,69.1 1250.8,69.5 1249.1,69.8 1247.4,70" />
<path stroke="#000000" stroke-width="2" d="M 1273.2,70" />
<path stroke="#000000" stroke-width="2" d="M 1273.2,30 1274.9,30 1276.6,30.2 1278.4,30.5 1280.1,30.9 1281.7,31.5 1283.3,32.2 1284.8,33.1 1286.2,34.1 1287.5,35.2 1288.8,36.5 1289.9,37.8 1290.9,39.2 1291.8,40.7 1292.5,42.3 1293.1,44 1293.6,45.7 1293.9,47.4 1294,49.1 1294,50.9 1293.9,52.6 1293.6,54.3 1293.1,56 1292.5,57.6 1291.8,59.2 1290.9,60.7 1289.9,62.2 1288.8,63.5 1287.5,64.7 1286.2,65.8 1284.8,66.8 1283.3,67.7 1281.7,68.5 1280.1,69.1 1278.4,69.5 1276.6,69.8 1274.9,70" />
<path stroke="#000000" stroke-width="2" d="M 1324,70" />
<path stroke="#000000" stroke-width="2" d="M 1324,70 1324.2,70 1324.2,70.2 1324,70.2 1324,70" />
<path stroke="#000000" stroke-width="2" d="M 1354.2,70" />
<path stroke="#000000" stroke-width="2" d="M 1354.2,30 1364.2,30 1364.2,70" />
<path stroke="#000000" stroke-width="2" d="M 1370.9,70" />
<path stroke="#000000" stroke-width="2" d="M 1370.9,50 1370.9,70 1370.9,64 1370.9,63.1 1371,62.3 1371.1,61.4 1371.3,60.6 1371.6,59.7 1372,58.9 1372.4,58.2 1372.9,57.5 1373.5,56.8 1374.1,56.2 1374.8,55.6 1375.5,55.1 1376.3,54.7 1377,54.3 1377.9,54 1378.7,53.8 1379.6,53.6 1380.4,53.6" />
<path stroke="#000000" stroke-width="2" d="M 1410.4,70" />
<path stroke="#000000" stroke-width="2" d="M 1410.4,40" />
<path stroke="#000000" stroke-width="2" d="M 1410.4,40 1414.5,39.8 1417.7,39.2 1420.2,38.3 1422,37.1 1423.1,35.8 1423.7,34.3 1423.7,32.8 1423.4,31.4 1422.7,30 1421.7,28.8 1420.5,27.7 1419.1,27 1417.6,26.7 1416.1,26.8 1414.7,27.3 1413.3,28.5 1412.2,30.2 1411.2,32.7 1410.7,35.9 1410.4,40 1410.4,70" />
<path stroke="#000000" stroke-width="2" d="M 1430.4,70" />
<path stroke="#000000" stroke-width="2" d="M 1450.4,30 1430.6,49.8" />
<path stroke="#000000" stroke-width="2" d="M 1430.6,29.8 1450.4,49.6 1442.8,68.1" />
<path stroke="#000000" stroke-width="2" d="M 1457.1,70" />
<path stroke="#000000" stroke-width="2" d="M 1457.1,20 1477.1,20" />
<path stroke="#000000" stroke-width="2" d="M 1507.1,70" />
<path stroke="#000000" stroke-width="2" d="M 1523.1,30" />
<path stroke="#000000" stroke-width="2" d="M 1523.1,30 1522.9,34.1 1522.3,37.3 1521.4,39.8 1520.2,41.5 1518.9,42.7 1517.4,43.2 1515.9,43.3 1514.4,43 1513.1,42.3 1511.8,41.2 1510.8,40 1510.1,38.6 1509.8,37.2 1509.9,35.7 1510.4,34.2 1511.6,32.9 1513.3,31.7 1515.8,30.8 1519,30.2 1523.1,30 1543.1,30" />
<path stroke="#000000" stroke-width="2" d="M 1573.1,70" />
<path stroke="#000000" stroke-width="2" d="M 1573.1,30 1588.4,67" />
<path stroke="#000000" stroke-width="2" d="M 1618.4,70" />
<path stroke="#000000" stroke-width="2" d="M 1618.4,70 1618.6,70 1618.6,70.2 1618.4,70.2 1618.4,70" />
<path stroke="#000000" stroke-width="2" d="M 1648.6,70" />
<path stroke="#000000" stroke-width="2" d="M 1648.6,30 1648.6,70 1668.6,70" />
<path stroke="#000000" stroke-width="2" d="M 1698.6,70" />
<path stroke="#000000" stroke-width="2" d="M 1698.6,30 1698.6,70 1709.9,58.7" />
<path stroke="#000000" stroke-width="2" d="M 1716.6,70" />
<path stroke="#000000" stroke-width="2" d="M 1716.6,25" />
<path stroke="#000000" stroke-width="2" d="M 1716.6,25 1718.6,24.9 1720.2,24.6 1721.4,24.1 1722.3,23.6 1722.9,22.9 1723.2,22.2 1723.2,21.4 1723,20.7 1722.7,20 1722.2,19.4 1721.6,18.9 1720.9,18.5 1720.2,18.3 1719.4,18.4 1718.7,18.7 1718,19.2 1717.4,20.1 1717,21.4 1716.7,23 1716.6,25 1716.6,40" />
<path stroke="#000000" stroke-width="2" d="M 1753.2,70" />
</svg>