<svg xmlns="http://www.w3.org/2000/svg" width="1416.2518712776935" height="98.67091005298957" style="fill:none; stroke-linecap:round;">
    <rect width="100%" height="100%" fill="#FFFFFF" />
<path stroke="#000000" stroke-width="2" d="M 550,75" />
<path stroke="#000000" stroke-width="2" d="M 20,30 40,30 40.9,30 41.7,30.1 42.6,30.2 43.4,30.5 44.3,30.8 45.1,31.1 45.8,31.6 46.5,32.1 47.2,32.6 47.8,33.2 48.4,33.9 48.9,34.6 49.3,35.4 49.7,36.2 50,37 50.2,37.8 50.4,38.7 50.4,39.6 50.4,40.4 50.4,41.3 50.2,42.2 50,43 49.7,43.8 49.3,44.6 48.9,45.4 48.4,46.1 47.8,46.7 47.2,47.4 46.5,47.9 45.8,48.4 45.1,48.9 44.3,49.2 43.4,49.5 42.6,49.8 41.7,49.9 40.9,50" />
<path stroke="#000000" stroke-width="2" d="M 80.4,70" />
<path stroke="#000000" stroke-width="2" d="M 100.4,70 102.2,70 103.9,69.8 105.6,69.5 107.3,69.1 109,68.5 110.5,67.8 112,66.9 113.5,65.9 114.8,64.8 116,63.5 117.2,62.2 118.2,60.8 119,59.3 119.8,57.7 120.4,56 120.8,54.3 121.1,52.6 121.3,50.9 121.3,49.1 121.1,47.4 120.8,45.7 120.4,44 119.8,42.4 119,40.8 118.2,39.3 117.2,37.8 116,36.5 114.8,35.3 113.5,34.2 112,33.2 110.5,32.3 109,31.5 107.3,30.9 105.6,30.5 103.9,30.2 102.2,30 100.4,30 98.7,30.2 97,30.5 95.3,30.9 93.6,31.5 92.1,32.3 90.6,33.2 89.1,34.2 87.8,35.3 86.6,36.5 85.4,37.8 84.4,39.3 83.6,40.8 82.8,42.4 82.2,44 81.8,45.7 81.5,47.4 81.3,49.1 81.3,50.9 81.5,52.6 81.8,54.3 82.2,56 82.8,57.7 83.6,59.3 84.4,60.8 85.4,62.2 86.6,63.5 87.8,64.8 89.1,65.9 90.6,66.9 92.1,67.8 93.6,68.5 95.3,69.1 97,69.5 98.7,69.8 100.4,70" />
<path stroke="#000000" stroke-width="2" d="M 127.9,70" />
<path stroke="#000000" stroke-width="2" d="M 137.9,20 130.3,38.5" />
<path stroke="#000000" stroke-width="2" d="M 167.9,70" />
<path stroke="#000000" stroke-width="2" d="M 167.9,30 167.9,70 179.3,58.7" />
<path stroke="#000000" stroke-width="2" d="M 185.9,70" />
<path stroke="#000000" stroke-width="2" d="M 185.9,20 205.9,20 186.1,39.8 206.1,39.8" />
<path stroke="#000000" stroke-width="2" d="M 236.1,70" />
<path stroke="#000000" stroke-width="2" d="M 236.1,30 236.1,50 246.1,50 238.5,68.5" />
<path stroke="#000000" stroke-width="2" d="M 276.1,70" />
<path stroke="#000000" stroke-width="2" d="M 276.1,70 276.3,70 276.3,70.2 276.1,70.2 276.1,70" />
<path stroke="#000000" stroke-width="2" d="M 306.3,70" />
<path stroke="#000000" stroke-width="2" d="M 306.3,30 306.3,70 326.3,70" />
<path stroke="#000000" stroke-width="2" d="M 356.3,70" />
<path stroke="#000000" stroke-width="2" d="M 356.3,30 356.3,70 367.6,58.7" />
<path stroke="#000000" stroke-width="2" d="M 374.3,70" />
<path stroke="#000000" stroke-width="2" d="M 374.3,70 374.3,69.3 374.4,68.6 374.5,67.9 374.7,67.2 374.9,66.6 375.2,66 375.6,65.4 376,64.8 376.4,64.2 376.9,63.8 377.4,63.3 378,62.9 378.6,62.6 379.2,62.3 379.9,62 380.6,61.8 381.3,61.7 382,61.7 382.6,61.7 383.3,61.7 384,61.8 384.7,62 385.4,62.3 386,62.6 386.6,62.9 387.2,63.3 387.7,63.8 388.2,64.2 388.6,64.8 389,65.4 389.4,66 389.7,66.6 389.9,67.2 390.1,67.9 390.2,68.6 390.3,69.3" />
<path stroke="#000000" stroke-width="2" d="M 420.3,70" />
<path stroke="#000000" stroke-width="2" d="M 420.3,30" />
<path stroke="#000000" stroke-width="2" d="M 420.3,30 420.4,30 420.9,30 421.5,30 422.4,30.1 423.4,30.2 424.6,30.3 425.9,30.4 427.3,30.6 428.8,30.9 430.3,31.2 431.8,31.7 433.3,32.2 434.7,32.7 436,33.4 437.2,34.2 438.2,35.1 439.1,36.1 439.7,37.3 440.1,38.6 440.3,40" />
<path stroke="#000000" stroke-width="2" d="M 440.3,40 442.2,42.1 443.5,44.1 444.3,45.7 444.6,47.2 444.5,48.4 444.1,49.4 443.4,50.2 442.5,50.8 441.4,51.1 440.3,51.2 439.2,51.1 438.1,50.8 437.2,50.2 436.5,49.5 436.1,48.4 436,47.2 436.3,45.7 437.1,44.1 438.4,42.1 440.3,40" />
<path stroke="#000000" stroke-width="2" d="M 440.3,40 440.3,39.9 440.3,39.7 440.4,39.4 440.5,39 440.6,38.4 440.8,37.8 441.2,37.2 441.6,36.5 442.1,35.7 442.8,35 443.6,34.3 444.6,33.5 445.8,32.8 447.2,32.2 448.7,31.6 450.5,31 452.6,30.6 454.9,30.3 457.4,30.1 460.3,30" />
<path stroke="#000000" stroke-width="2" d="M 460.3,30 460.2,32 459.9,33.6 459.4,34.9 458.9,35.8 458.2,36.3 457.5,36.6 456.7,36.7 456,36.5 455.3,36.1 454.7,35.6 454.2,35 453.8,34.3 453.6,33.6 453.7,32.8 454,32.1 454.5,31.4 455.4,30.9 456.6,30.4 458.3,30.1 460.3,30 470.3,30" />
<path stroke="#000000" stroke-width="2" d="M 500.3,70" />
<path stroke="#000000" stroke-width="2" d="M 500.3,30 540.3,30" />
<path stroke="#000000" stroke-width="2" d="M 570.3,70" />
<path stroke="#000000" stroke-width="2" d="M 570.3,70 570.5,70 570.5,70.2 570.3,70.2 570.3,70" />
<path stroke="#000000" stroke-width="2" d="M 577.2,70" />
<path stroke="#000000" stroke-width="2" d="M 577.2,70 577.2,68.6 577.3,67.2 577.5,65.8 577.9,64.5 578.4,63.2 579,61.9 579.7,60.7 580.5,59.6 581.3,58.5 582.3,57.5 583.4,56.6 584.5,55.8 585.8,55.1 587,54.5 588.3,54 589.7,53.7 591.1,53.4 592.4,53.3 593.8,53.3 595.2,53.4 596.6,53.7 598,54 599.3,54.5 600.5,55.1 601.7,55.8 602.9,56.6 604,57.5 604.9,58.5 605.8,59.6 606.6,60.7 607.3,61.9 607.9,63.2 608.4,64.5 608.8,65.8 609,67.2 609.1,68.6" />
<path stroke="#000000" stroke-width="2" d="M 615.8,70" />
<path stroke="#000000" stroke-width="2" d="M 625.8,50 618.1,68.5" />
<path stroke="#000000" stroke-width="2" d="M 655.8,70" />
<path stroke="#000000" stroke-width="2" d="M 655.8,30 655.8,38 655.8,39 655.9,40.1 656.1,41.1 656.3,42.1 656.7,43.1 657.1,44.1 657.7,45 658.3,45.8 658.9,46.6 659.7,47.4 660.5,48 661.3,48.6 662.2,49.2 663.2,49.6 664.2,50 665.2,50.2 666.2,50.4 667.3,50.5 668.3,50.5 669.4,50.4 670.4,50.2 671.4,50 672.4,49.6 673.3,49.2 674.2,48.6 675.1,48 675.9,47.4 676.6,46.6 677.3,45.8 677.9,45 678.4,44.1 678.9,43.1 679.2,42.1 679.5,41.1 679.7,40.1 679.8,39 679.8,29 679.8,69" />
<path stroke="#000000" stroke-width="2" d="M 686.4,70" />
<path stroke="#000000" stroke-width="2" d="M 686.4,25" />
<path stroke="#000000" stroke-width="2" d="M 686.4,25 688.5,24.9 690.1,24.6 691.3,24.1 692.2,23.6 692.8,22.9 693.1,22.2 693.1,21.4 692.9,20.7 692.6,20 692.1,19.4 691.5,18.9 690.8,18.5 690,18.3 689.3,18.4 688.5,18.7 687.9,19.2 687.3,20.1 686.8,21.4 686.5,23 686.4,25 686.4,40" />
<path stroke="#000000" stroke-width="2" d="M 686.4,40 686.3,42 686,43.6 685.6,44.9 685,45.8 684.3,46.3 683.6,46.6 682.9,46.7 682.1,46.5 681.4,46.1 680.8,45.6 680.3,45 680,44.3 679.8,43.6 679.8,42.8 680.1,42.1 680.7,41.4 681.6,40.9 682.8,40.4 684.4,40.1 686.4,40 696.4,40" />
<path stroke="#000000" stroke-width="2" d="M 696.4,40 694.4,39.9 692.8,39.6 691.6,39.1 690.7,38.6 690.1,37.9 689.8,37.2 689.8,36.4 690,35.7 690.3,35 690.8,34.4 691.4,33.9 692.1,33.5 692.9,33.3 693.6,33.4 694.3,33.7 695,34.2 695.6,35.1 696,36.4 696.3,38 696.4,40 696.4,44" />
<path stroke="#000000" stroke-width="2" d="M 696.4,44 696.1,44.9 695.8,45.7 695.4,46.4 695,47.1 694.6,47.8 694.2,48.4 693.7,48.9 693.2,49.4 692.7,49.9 692.2,50.2 691.7,50.6 691.1,50.9 690.6,51.2 690,51.4 689.4,51.6 688.8,51.7 688.2,51.9 687.6,51.9 687,52 686.4,52" />
<path stroke="#000000" stroke-width="2" d="M 726.4,70" />
<path stroke="#000000" stroke-width="2" d="M 726.4,30 736.4,30 736.4,70" />
<path stroke="#000000" stroke-width="2" d="M 743.1,70" />
<path stroke="#000000" stroke-width="2" d="M 743.1,50 743.1,70 743.1,64 743.1,63.1 743.2,62.3 743.3,61.4 743.6,60.6 743.9,59.7 744.2,58.9 744.7,58.2 745.2,57.5 745.7,56.8 746.3,56.2 747,55.6 747.7,55.1 748.5,54.7 749.3,54.3 750.1,54 750.9,53.8 751.8,53.6 752.7,53.6" />
<path stroke="#000000" stroke-width="2" d="M 782.7,70" />
<path stroke="#000000" stroke-width="2" d="M 782.7,70 798,33 798,73 798,61 798,59.3 798.1,57.6 798.4,55.8 798.9,54.2 799.5,52.5 800.2,50.9 801.1,49.4 802.1,48 803.2,46.7 804.4,45.4 805.8,44.3 807.2,43.3 808.7,42.4 810.3,41.7 811.9,41.1" />
<path stroke="#000000" stroke-width="2" d="M 841.9,70" />
<path stroke="#000000" stroke-width="2" d="M 841.9,70 842.1,70 842.1,70.2 841.9,70.2 841.9,70" />
<path stroke="#000000" stroke-width="2" d="M 872.1,70" />
<path stroke="#000000" stroke-width="2" d="M 872.1,30 872.1,70 892.1,70" />
<path stroke="#000000" stroke-width="2" d="M 922.1,70" />
<path stroke="#000000" stroke-width="2" d="M 922.1,30 937.4,67" />
<path stroke="#000000" stroke-width="2" d="M 944.1,70" />
<path stroke="#000000" stroke-width="2" d="M 944.1,20 945,20 945.9,20.1 946.7,20.2 947.6,20.5 948.4,20.8 949.2,21.1 949.9,21.6 950.6,22.1 951.3,22.6 951.9,23.2 952.5,23.9 953,24.6 953.4,25.4 953.8,26.2 954.1,27 954.3,27.8 954.5,28.7 954.5,29.6 954.5,30.4 954.5,31.3 954.3,32.2 954.1,33 953.8,33.8 953.4,34.6 953,35.4 952.5,36.1 951.9,36.7 951.3,37.4 950.6,37.9 949.9,38.4 949.2,38.9 948.4,39.2 947.6,39.5 946.7,39.8 945.9,39.9 945,40" />
<path stroke="#000000" stroke-width="2" d="M 961.2,70" />
<path stroke="#000000" stroke-width="2" d="M 961.2,40 975.3,25.9 967.7,44.3 967.7,45 967.8,45.7 967.9,46.4 968.1,47.1 968.3,47.7 968.6,48.4 968.9,49 969.3,49.6 969.8,50.1 970.3,50.6 970.8,51 971.4,51.4 972,51.8 972.6,52.1 973.3,52.3 974,52.5 974.6,52.6 975.3,52.7 976,52.7 976.7,52.6 977.4,52.5 978.1,52.3 978.7,52.1 979.4,51.8 980,51.4 980.6,51 981.1,50.6 981.6,50.1 982,49.6 982.4,49 982.8,48.4 983.1,47.7 983.3,47.1 983.5,46.4 983.6,45.7 983.7,45" />
<path stroke="#000000" stroke-width="2" d="M 990.3,70" />
<path stroke="#000000" stroke-width="2" d="M 990.3,30 990.5,30 990.5,30.2 990.3,30.2 990.3,30" />
<path stroke="#000000" stroke-width="2" d="M 1020.5,70" />
<path stroke="#000000" stroke-width="2" d="M 1020.5,30 1020.5,31.4 1020.7,32.8 1020.9,34.2 1021.3,35.5 1021.7,36.8 1022.3,38.1 1023,39.3 1023.8,40.4 1024.7,41.5 1025.7,42.5 1026.8,43.4 1027.9,44.2 1029.1,44.9 1030.4,45.5 1031.7,46 1033.1,46.3 1034.4,46.6 1035.8,46.7 1037.2,46.7 1038.6,46.6 1040,46.3 1041.3,46 1042.7,45.5 1043.9,44.9 1045.1,44.2 1046.3,43.4 1047.3,42.5 1048.3,41.5 1049.2,40.4 1050,39.3 1050.7,38.1 1051.3,36.8 1051.8,35.5 1052.1,34.2 1052.4,32.8 1052.5,31.4" />
<path stroke="#000000" stroke-width="2" d="M 1059.2,70" />
<path stroke="#000000" stroke-width="2" d="M 1059.2,70 1059.2,69.3 1059.2,68.6 1059.4,67.9 1059.5,67.2 1059.8,66.6 1060.1,66 1060.4,65.4 1060.8,64.8 1061.3,64.2 1061.8,63.8 1062.3,63.3 1062.9,62.9 1063.5,62.6 1064.1,62.3 1064.8,62 1065.4,61.8 1066.1,61.7 1066.8,61.7 1067.5,61.7 1068.2,61.7 1068.9,61.8 1069.6,62 1070.2,62.3 1070.9,62.6 1071.5,62.9 1072,63.3 1072.6,63.8 1073.1,64.2 1073.5,64.8 1073.9,65.4 1074.3,66 1074.6,66.6 1074.8,67.2 1075,67.9 1075.1,68.6 1075.2,69.3" />
<path stroke="#000000" stroke-width="2" d="M 1105.2,70" />
<path stroke="#000000" stroke-width="2" d="M 1125.2,30 1123.4,30 1121.7,30.2 1120,30.5 1118.3,30.9 1116.6,31.5 1115.1,32.2 1113.5,33.1 1112.1,34.1 1110.8,35.2 1109.5,36.5 1108.4,37.8 1107.4,39.2 1106.6,40.7 1105.8,42.3 1105.2,44 1104.8,45.7 1104.5,47.4 1104.3,49.1 1104.3,50.9 1104.5,52.6 1104.8,54.3 1105.2,56 1105.8,57.6 1106.6,59.2 1107.4,60.7 1108.4,62.2 1109.5,63.5 1110.8,64.7 1112.1,65.8 1113.5,66.8 1115.1,67.7 1116.6,68.5 1118.3,69.1 1120,69.5 1121.7,69.8 1123.4,70" />
<path stroke="#000000" stroke-width="2" d="M 1123.4,50" />
<path stroke="#000000" stroke-width="2" d="M 1091.4,50 1131.4,50" />
<path stroke="#000000" stroke-width="2" d="M 1161.4,70" />
<path stroke="#000000" stroke-width="2" d="M 1161.4,70 1189.7,41.7 1174.4,78.7" />
<path stroke="#000000" stroke-width="2" d="M 1219.7,70" />
<path stroke="#000000" stroke-width="2" d="M 1219.7,70 1219.9,70 1219.9,70.2 1219.7,70.2 1219.7,70" />
<path stroke="#000000" stroke-width="2" d="M 1226.6,70" />
<path stroke="#000000" stroke-width="2" d="M 1226.6,50 1226.6,49.3 1226.6,48.6 1226.8,47.9 1226.9,47.2 1227.2,46.6 1227.5,46 1227.8,45.4 1228.2,44.8 1228.7,44.2 1229.2,43.8 1229.7,43.3 1230.3,42.9 1230.9,42.6 1231.5,42.3 1232.2,42 1232.8,41.8 1233.5,41.7 1234.2,41.7 1234.9,41.7 1235.6,41.7 1236.3,41.8 1237,42 1237.6,42.3 1238.3,42.6 1238.9,42.9 1239.4,43.3 1240,43.8 1240.5,44.2 1240.9,44.8 1241.3,45.4 1241.7,46 1242,46.6 1242.2,47.2 1242.4,47.9 1242.5,48.6 1242.6,49.3 1242.6,50 1242.6,50.7 1242.7,51.4 1242.9,52.1 1243.2,52.7 1243.5,53.3 1243.8,53.9 1244.2,54.5 1244.6,55.1 1245.1,55.5 1245.7,56 1246.2,56.4 1246.9,56.7 1247.5,57 1248.1,57.3 1248.8,57.5 1249.5,57.6 1250.2,57.6 1250.9,57.6 1251.6,57.6 1252.3,57.5 1253,57.3 1253.6,57 1254.2,56.7 1254.8,56.4 1255.4,56 1256,55.5 1256.4,55.1 1256.9,54.5 1257.3,53.9 1257.6,53.3 1257.9,52.7 1258.2,52.1 1258.4,51.4 1258.5,50.7 1258.5,50" />
<path stroke="#000000" stroke-width="2" d="M 1265.2,70" />
<path stroke="#000000" stroke-width="2" d="M 1265.2,70 1265.2,69.3 1265.3,68.6 1265.4,67.9 1265.6,67.2 1265.8,66.6 1266.1,66 1266.5,65.4 1266.9,64.8 1267.3,64.2 1267.8,63.8 1268.3,63.3 1268.9,62.9 1269.5,62.6 1270.1,62.3 1270.8,62 1271.5,61.8 1272.2,61.7 1272.8,61.7 1273.5,61.7 1274.2,61.7 1274.9,61.8 1275.6,62 1276.3,62.3 1276.9,62.6 1277.5,62.9 1278.1,63.3 1278.6,63.8 1279.1,64.2 1279.5,64.8 1279.9,65.4 1280.3,66 1280.6,66.6 1280.8,67.2 1281,67.9 1281.1,68.6 1281.2,69.3" />
<path stroke="#000000" stroke-width="2" d="M 1311.2,70" />
<path stroke="#000000" stroke-width="2" d="M 1311.2,30 1331.2,30 1332.1,30 1332.9,30.1 1333.8,30.2 1334.6,30.5 1335.5,30.8 1336.2,31.1 1337,31.6 1337.7,32.1 1338.4,32.6 1339,33.2 1339.6,33.9 1340.1,34.6 1340.5,35.4 1340.9,36.2 1341.2,37 1341.4,37.8 1341.5,38.7 1341.6,39.6 1341.6,40.4 1341.5,41.3 1341.4,42.2 1341.2,43 1340.9,43.8 1340.5,44.6 1340.1,45.4 1339.6,46.1 1339,46.7 1338.4,47.4 1337.7,47.9 1337,48.4 1336.2,48.9 1335.5,49.2 1334.6,49.5 1333.8,49.8 1332.9,49.9 1332.1,50" />
<path stroke="#000000" stroke-width="2" d="M 1371.6,70" />
<path stroke="#000000" stroke-width="2" d="M 1371.6,30 1371.6,70 1382.9,58.7" />
<path stroke="#000000" stroke-width="2" d="M 1389.6,70" />
<path stroke="#000000" stroke-width="2" d="M 1389.6,25" />
<path stroke="#000000" stroke-width="2" d="M 1389.6,25 1391.6,24.9 1393.2,24.6 1394.5,24.1 1395.4,23.6 1395.9,22.9 1396.2,22.2 1396.3,21.4 1396.1,20.7 1395.7,20 1395.2,19.4 1394.6,18.9 1393.9,18.5 1393.2,18.3 1392.4,18.4 1391.7,18.7 1391,19.2 1390.5,20.1 1390,21.4 1389.7,23 1389.6,25 1389.6,40" />
<path stroke="#000000" stroke-width="2" d="M 1426.3,70" />
</svg>