<svg xmlns="http://www.w3.org/2000/svg" width="1097.3774675340894" height="91.50643735829263" style="fill:none; stroke-linecap:round;">
    <rect width="100%" height="100%" fill="#FFFFFF" />
<path stroke="#000000" stroke-width="2" d="M 550,75" />
<path stroke="#000000" stroke-width="2" d="M 25,30" />
<path stroke="#000000" stroke-width="2" d="M 25,30 23.6,30.1 22.3,30.6 21.2,31.2 20.2,32.1 19.4,33.1 18.7,34.3 18.2,35.6 17.8,37 17.6,38.5 17.5,40 17.6,41.5 17.8,43 18.2,44.4 18.7,45.7 19.4,46.9 20.2,47.9 21.2,48.8 22.3,49.4 23.6,49.9 25,50 45,50" />
<path stroke="#000000" stroke-width="2" d="M 45,50 47,49.9 48.6,49.6 49.9,49.1 50.8,48.6 51.3,47.9 51.6,47.2 51.7,46.4 51.5,45.7 51.1,45 50.6,44.4 50,43.9 49.3,43.5 48.6,43.3 47.8,43.4 47.1,43.7 46.4,44.2 45.9,45.1 45.4,46.4 45.1,48 45,50 45,65" />
<path stroke="#000000" stroke-width="2" d="M 81.7,70" />
<path stroke="#000000" stroke-width="2" d="M 81.7,30" />
<path stroke="#000000" stroke-width="2" d="M 81.7,30 81.8,30 82.2,30 82.9,30 83.7,30.1 84.8,30.2 86,30.3 87.3,30.4 88.7,30.6 90.2,30.9 91.7,31.2 93.1,31.7 94.6,32.2 96,32.7 97.3,33.4 98.5,34.2 99.6,35.1 100.4,36.1 101.1,37.3 101.5,38.6 101.7,40" />
<path stroke="#000000" stroke-width="2" d="M 101.7,40 103.6,42.1 104.9,44.1 105.7,45.7 106,47.2 105.9,48.4 105.4,49.4 104.7,50.2 103.8,50.8 102.8,51.1 101.7,51.2 100.5,51.1 99.5,50.8 98.6,50.2 97.9,49.5 97.4,48.4 97.3,47.2 97.6,45.7 98.4,44.1 99.7,42.1 101.7,40" />
<path stroke="#000000" stroke-width="2" d="M 101.7,40 101.7,39.9 101.7,39.7 101.7,39.4 101.8,39 102,38.4 102.2,37.8 102.5,37.2 102.9,36.5 103.5,35.7 104.2,35 105,34.3 106,33.5 107.1,32.8 108.5,32.2 110.1,31.6 111.9,31 113.9,30.6 116.2,30.3 118.8,30.1 121.7,30" />
<path stroke="#000000" stroke-width="2" d="M 121.7,30 121.5,32 121.2,33.6 120.8,34.9 120.2,35.8 119.5,36.3 118.8,36.6 118.1,36.7 117.3,36.5 116.6,36.1 116,35.6 115.5,35 115.2,34.3 115,33.6 115,32.8 115.3,32.1 115.9,31.4 116.8,30.9 118,30.4 119.6,30.1 121.7,30 131.7,30" />
<path stroke="#000000" stroke-width="2" d="M 138.3,70" />
<path stroke="#000000" stroke-width="2" d="M 138.3,50 158.3,50" />
<path stroke="#000000" stroke-width="2" d="M 188.3,70" />
<path stroke="#000000" stroke-width="2" d="M 188.3,40 188.5,40 188.5,40.2 188.3,40.2 188.3,40" />
<path stroke="#000000" stroke-width="2" d="M 195.2,70" />
<path stroke="#000000" stroke-width="2" d="M 215.2,30 199.9,67" />
<path stroke="#000000" stroke-width="2" d="M 221.9,70" />
<path stroke="#000000" stroke-width="2" d="M 221.9,30 237.2,67" />
<path stroke="#000000" stroke-width="2" d="M 267.2,70" />
<path stroke="#000000" stroke-width="2" d="M 267.2,30 307.2,30" />
<path stroke="#000000" stroke-width="2" d="M 337.2,70" />
<path stroke="#000000" stroke-width="2" d="M 337.2,70 337.4,70 337.4,70.2 337.2,70.2 337.2,70" />
<path stroke="#000000" stroke-width="2" d="M 344,70" />
<path stroke="#000000" stroke-width="2" d="M 344,30 359.3,67" />
<path stroke="#000000" stroke-width="2" d="M 366,70" />
<path stroke="#000000" stroke-width="2" d="M 376,20 376,40 366,40" />
<path stroke="#000000" stroke-width="2" d="M 382.7,70" />
<path stroke="#000000" stroke-width="2" d="M 382.7,46 382.7,44.6 382.8,43.2 383,41.8 383.4,40.5 383.9,39.2 384.5,37.9 385.2,36.7 386,35.6 386.9,34.5 387.8,33.5 388.9,32.6 390.1,31.8 391.3,31.1 392.5,30.5 393.8,30 395.2,29.7 396.6,29.4 398,29.3 399.4,29.3 400.7,29.4 402.1,29.7 403.5,30 404.8,30.5 406,31.1 407.3,31.8 408.4,32.6 409.5,33.5 410.5,34.5 411.3,35.6 412.1,36.7 412.8,37.9 413.4,39.2 413.9,40.5 414.3,41.8 414.5,43.2 414.6,44.6" />
<path stroke="#000000" stroke-width="2" d="M 421.3,70" />
<path stroke="#000000" stroke-width="2" d="M 421.3,20 421.3,20.7 421.4,21.4 421.5,22.1 421.7,22.8 421.9,23.4 422.2,24 422.6,24.6 423,25.2 423.4,25.8 423.9,26.2 424.4,26.7 425,27.1 425.6,27.4 426.2,27.7 426.9,28 427.6,28.2 428.3,28.3 428.9,28.3 429.6,28.3 430.3,28.3 431,28.2 431.7,28 432.4,27.7 433,27.4 433.6,27.1 434.2,26.7 434.7,26.2 435.2,25.8 435.6,25.2 436,24.6 436.4,24 436.7,23.4 436.9,22.8 437.1,22.1 437.2,21.4 437.3,20.7" />
<path stroke="#000000" stroke-width="2" d="M 467.3,70" />
<path stroke="#000000" stroke-width="2" d="M 467.3,30 467.3,31.4 467.4,32.8 467.7,34.2 468,35.5 468.5,36.8 469.1,38.1 469.8,39.3 470.6,40.4 471.5,41.5 472.5,42.5 473.5,43.4 474.7,44.2 475.9,44.9 477.2,45.5 478.5,46 479.8,46.3 481.2,46.6 482.6,46.7 484,46.7 485.4,46.6 486.7,46.3 488.1,46 489.4,45.5 490.7,44.9 491.9,44.2 493,43.4 494.1,42.5 495.1,41.5 496,40.4 496.8,39.3 497.5,38.1 498.1,36.8 498.5,35.5 498.9,34.2 499.1,32.8 499.3,31.4" />
<path stroke="#000000" stroke-width="2" d="M 505.9,70" />
<path stroke="#000000" stroke-width="2" d="M 505.9,20 525.9,20" />
<path stroke="#000000" stroke-width="2" d="M 525.9,20 527.4,20.1 528.6,20.6 529.8,21.2 530.7,22.1 531.6,23.1 532.2,24.3 532.8,25.6 533.1,27 533.4,28.5 533.4,30 533.4,31.5 533.1,33 532.8,34.4 532.2,35.7 531.6,36.9 530.7,37.9 529.8,38.8 528.6,39.4 527.4,39.9 525.9,40" />
<path stroke="#000000" stroke-width="2" d="M 563.4,70" />
<path stroke="#000000" stroke-width="2" d="M 568.4,30" />
<path stroke="#000000" stroke-width="2" d="M 568.4,30 567,30.1 565.7,30.6 564.6,31.2 563.6,32.1 562.8,33.1 562.1,34.3 561.6,35.6 561.2,37 561,38.5 560.9,40 561,41.5 561.2,43 561.6,44.4 562.1,45.7 562.8,46.9 563.6,47.9 564.6,48.8 565.7,49.4 567,49.9 568.4,50 573.4,50 573.4,70" />
<path stroke="#000000" stroke-width="2" d="M 603.4,70" />
<path stroke="#000000" stroke-width="2" d="M 605.4,50 610.8,37.1 610.9,36.7 611,36.4 611.1,36.1 611.1,35.7 611.2,35.4 611.1,35 611.1,34.7 611,34.3 610.9,34 610.8,33.7 610.6,33.4 610.4,33.1 610.2,32.8 610,32.5 609.7,32.3 609.5,32.1 609.2,31.9 608.8,31.7 608.5,31.6 608.2,31.5 607.9,31.4 607.5,31.4 607.2,31.4 606.8,31.4 606.5,31.4 606.1,31.5 605.8,31.6 605.5,31.7 605.2,31.9 604.9,32.1 604.6,32.3 604.3,32.5 604.1,32.8 603.9,33.1 603.7,33.4 603.5,33.7 603.4,34 603.3,34.3 603.2,34.7 603.2,35 603.2,35.4 603.2,35.7 603.2,36.1 603.3,36.4 603.4,36.7 603.5,37.1 603.7,37.4 603.9,37.7 604.1,37.9 604.3,38.2 604.6,38.4 604.9,38.7 605.2,38.8 605.5,39 605.8,39.1 606.1,39.2 606.5,39.3 606.8,39.4 607.2,39.4 607.5,39.4 620.4,34" />
<path stroke="#000000" stroke-width="2" d="M 620.4,34 618.4,33.9 616.8,33.6 615.6,33.1 614.7,32.6 614.1,31.9 613.8,31.2 613.8,30.4 614,29.7 614.3,29 614.8,28.4 615.4,27.9 616.1,27.5 616.9,27.3 617.6,27.4 618.3,27.7 619,28.2 619.6,29.1 620,30.4 620.3,32 620.4,34 620.4,49" />
<path stroke="#000000" stroke-width="2" d="M 627.1,70" />
<path stroke="#000000" stroke-width="2" d="M 627.1,25" />
<path stroke="#000000" stroke-width="2" d="M 627.1,25 629.1,24.9 630.8,24.6 632,24.1 632.9,23.6 633.4,22.9 633.7,22.2 633.8,21.4 633.6,20.7 633.2,20 632.7,19.4 632.1,18.9 631.4,18.5 630.7,18.3 629.9,18.4 629.2,18.7 628.5,19.2 628,20.1 627.5,21.4 627.2,23 627.1,25 627.1,40 619.5,58.5 621.8,52.9 622.1,52.1 622.5,51.4 623,50.6 623.5,49.9 624.1,49.3 624.7,48.7 625.4,48.2 626.1,47.7 626.9,47.3 627.7,47 628.6,46.7 629.4,46.5" />
<path stroke="#000000" stroke-width="2" d="M 640.4,70" />
<path stroke="#000000" stroke-width="2" d="M 640.4,40 648.1,21.5 655.7,40" />
<path stroke="#000000" stroke-width="2" d="M 685.7,70" />
<path stroke="#000000" stroke-width="2" d="M 695.7,50 696.6,50 697.5,49.9 698.3,49.8 699.2,49.5 700,49.2 700.8,48.9 701.5,48.4 702.3,47.9 702.9,47.4 703.5,46.8 704.1,46.1 704.6,45.4 705,44.6 705.4,43.8 705.7,43 705.9,42.2 706.1,41.3 706.2,40.4 706.2,39.6 706.1,38.7 705.9,37.8 705.7,37 705.4,36.2 705,35.4 704.6,34.6 704.1,33.9 703.5,33.3 702.9,32.6 702.3,32.1 701.5,31.6 700.8,31.1 700,30.8 699.2,30.5 698.3,30.2 697.5,30.1 696.6,30 695.7,30 694.9,30.1 694,30.2 693.2,30.5 692.3,30.8 691.6,31.1 690.8,31.6 690.1,32.1 689.4,32.6 688.8,33.3 688.2,33.9 687.7,34.6 687.3,35.4 686.9,36.2 686.6,37 686.4,37.8 686.3,38.7 686.2,39.6 686.2,40.4 686.3,41.3 686.4,42.2 686.6,43 686.9,43.8 687.3,44.6 687.7,45.4 688.2,46.1 688.8,46.8 689.4,47.4 690.1,47.9 690.8,48.4 691.6,48.9 692.3,49.2 693.2,49.5 694,49.8 694.9,49.9 695.7,50 695.7,70 695.7,64 695.7,63.1 695.8,62.3 696,61.4 696.2,60.6 696.5,59.7 696.9,58.9 697.3,58.2 697.8,57.5 698.4,56.8 699,56.2 699.6,55.6 700.4,55.1 701.1,54.7 701.9,54.3 702.7,54 703.6,53.8 704.4,53.6 705.3,53.6" />
<path stroke="#000000" stroke-width="2" d="M 736.2,70" />
<path stroke="#000000" stroke-width="2" d="M 736.2,30 736.2,70 747.5,58.7" />
<path stroke="#000000" stroke-width="2" d="M 754.1,70" />
<path stroke="#000000" stroke-width="2" d="M 754.1,20 754.1,40 754.1,34 754.1,33.1 754.2,32.3 754.4,31.4 754.6,30.6 754.9,29.7 755.3,28.9 755.7,28.2 756.2,27.5 756.8,26.8 757.4,26.2 758,25.6 758.8,25.1 759.5,24.7 760.3,24.3 761.1,24 762,23.8 762.8,23.6 763.7,23.6" />
<path stroke="#000000" stroke-width="2" d="M 793.7,70" />
<path stroke="#000000" stroke-width="2" d="M 803.7,30 796,48.5 796,68.5 801.7,62.8" />
<path stroke="#000000" stroke-width="2" d="M 810.4,70" />
<path stroke="#000000" stroke-width="2" d="M 810.4,50 810.6,50 810.6,50.2 810.4,50.2 810.4,50" />
<path stroke="#000000" stroke-width="2" d="M 840.6,70" />
<path stroke="#000000" stroke-width="2" d="M 840.6,30 840.6,70 840.6,58 840.6,56.3 840.7,54.5 841,52.8 841.5,51.1 842.1,49.5 842.8,47.9 843.7,46.4 844.7,45 845.8,43.6 847,42.4 848.4,41.3 849.8,40.3 851.3,39.4 852.9,38.7 854.5,38.1 856.2,37.6 857.9,37.3 859.7,37.1" />
<path stroke="#000000" stroke-width="2" d="M 866.3,70" />
<path stroke="#000000" stroke-width="2" d="M 866.3,20 866.3,24 866.3,24.5 866.4,25 866.5,25.6 866.6,26.1 866.8,26.6 867,27 867.3,27.5 867.6,27.9 867.9,28.3 868.3,28.7 868.7,29 869.1,29.3 869.6,29.6 870,29.8 870.5,30 871,30.1 871.6,30.2 872.1,30.3 872.6,30.3 873.1,30.2 873.6,30.1 874.1,30 874.6,29.8 875.1,29.6 875.6,29.3 876,29 876.4,28.7 876.8,28.3 877.1,27.9 877.4,27.5 877.7,27 877.9,26.6 878.1,26.1 878.2,25.6 878.3,25 878.3,24.5 878.3,19.5 878.3,39.5" />
<path stroke="#000000" stroke-width="2" d="M 885,70" />
<path stroke="#000000" stroke-width="2" d="M 885,20 885,20.7 885.1,21.4 885.2,22.1 885.4,22.8 885.6,23.4 885.9,24 886.2,24.6 886.6,25.2 887.1,25.8 887.6,26.2 888.1,26.7 888.7,27.1 889.3,27.4 889.9,27.7 890.6,28 891.3,28.2 891.9,28.3 892.6,28.3 893.3,28.3 894,28.3 894.7,28.2 895.4,28 896,27.7 896.7,27.4 897.3,27.1 897.9,26.7 898.4,26.2 898.9,25.8 899.3,25.2 899.7,24.6 900.1,24 900.4,23.4 900.6,22.8 900.8,22.1 900.9,21.4 901,20.7" />
<path stroke="#000000" stroke-width="2" d="M 931,70" />
<path stroke="#000000" stroke-width="2" d="M 941,30 941.5,30 942,30 942.5,30.1 943,30.3 943.5,30.5 944,30.7 944.5,30.9 944.9,31.2 945.3,31.6 945.7,31.9 946,32.3 946.3,32.8 946.6,33.2 946.8,33.7 947,34.2 947.1,34.7 947.2,35.2 947.2,35.7 947.2,36.3 947.2,36.8 947.1,37.3 947,37.8 946.8,38.3 946.6,38.8 946.3,39.2 946,39.6 945.7,40 945.3,40.4 944.9,40.8 944.5,41.1 944,41.3 943.5,41.5 943,41.7 942.5,41.9 942,41.9 941.5,42 941,42 940.5,41.9 939.9,41.9 939.4,41.7 938.9,41.5 938.5,41.3 938,41.1 937.6,40.8 937.2,40.4 936.8,40 936.5,39.6 936.2,39.2 935.9,38.8 935.7,38.3 935.5,37.8 935.4,37.3 935.3,36.8 935.2,36.3 935.2,35.7 935.3,35.2 935.4,34.7 935.5,34.2 935.7,33.7 935.9,33.2 936.2,32.8 936.5,32.3 936.8,31.9 937.2,31.6 937.6,31.2 938,30.9 938.5,30.7 938.9,30.5 939.4,30.3 939.9,30.1 940.5,30 941,30 941,50 933.3,68.5 935.6,62.9 936,62.1 936.4,61.4 936.8,60.6 937.4,59.9 937.9,59.3 938.6,58.7 939.3,58.2 940,57.7 940.8,57.3 941.6,57 942.4,56.7 943.3,56.5" />
<path stroke="#000000" stroke-width="2" d="M 943.3,56.5 945.3,56.4 946.9,56.1 948.2,55.6 949,55.1 949.6,54.4 949.9,53.7 949.9,52.9 949.8,52.2 949.4,51.5 948.9,50.9 948.3,50.4 947.6,50 946.9,49.9 946.1,49.9 945.4,50.2 944.7,50.7 944.1,51.6 943.7,52.9 943.4,54.5 943.3,56.5 943.3,71.5" />
<path stroke="#000000" stroke-width="2" d="M 979.9,70" />
<path stroke="#000000" stroke-width="2" d="M 979.9,30 979.9,70 991.3,58.7" />
<path stroke="#000000" stroke-width="2" d="M 997.9,70" />
<path stroke="#000000" stroke-width="2" d="M 997.9,50 998.1,50 998.1,50.2 997.9,50.2 997.9,50" />
<path stroke="#000000" stroke-width="2" d="M 1028.1,70" />
<path stroke="#000000" stroke-width="2" d="M 1028.1,30 1028.1,70 1028.1,58 1028.1,56.3 1028.3,54.5 1028.6,52.8 1029,51.1 1029.6,49.5 1030.4,47.9 1031.2,46.4 1032.2,45 1033.4,43.6 1034.6,42.4 1035.9,41.3 1037.4,40.3 1038.9,39.4 1040.4,38.7 1042.1,38.1 1043.8,37.6 1045.5,37.3 1047.2,37.1" />
<path stroke="#000000" stroke-width="2" d="M 1053.9,70" />
<path stroke="#000000" stroke-width="2" d="M 1053.9,50 1053.9,50.7 1054,51.4 1054.1,52.1 1054.3,52.8 1054.5,53.4 1054.8,54 1055.1,54.6 1055.5,55.2 1056,55.8 1056.5,56.2 1057,56.7 1057.6,57.1 1058.2,57.4 1058.8,57.7 1059.5,58 1060.2,58.2 1060.8,58.3 1061.5,58.3 1062.2,58.3 1062.9,58.3 1063.6,58.2 1064.3,58 1064.9,57.7 1065.6,57.4 1066.2,57.1 1066.8,56.7 1067.3,56.2 1067.8,55.8 1068.2,55.2 1068.6,54.6 1069,54 1069.3,53.4 1069.5,52.8 1069.7,52.1 1069.8,51.4 1069.9,50.7" />
<path stroke="#000000" stroke-width="2" d="M 1069.9,50.7 1071.3,50.8 1072.6,51.3 1073.7,51.9 1074.7,52.8 1075.5,53.8 1076.2,55 1076.7,56.3 1077.1,57.7 1077.3,59.2 1077.4,60.7 1077.3,62.2 1077.1,63.7 1076.7,65.1 1076.2,66.4 1075.5,67.6 1074.7,68.6 1073.7,69.5 1072.6,70.1 1071.3,70.6 1069.9,70.7" />
<path stroke="#000000" stroke-width="2" d="M 1107.4,70" />
</svg>