<svg xmlns="http://www.w3.org/2000/svg" width="1707.4278133891848" height="90.2" style="fill:none; stroke-linecap:round;">
    <rect width="100%" height="100%" fill="#FFFFFF" />
<path stroke="#000000" stroke-width="2" d="M 550,75" />
<path stroke="#000000" stroke-width="2" d="M 20,30 35.3,67" />
<path stroke="#000000" stroke-width="2" d="M 42,70" />
<path stroke="#000000" stroke-width="2" d="M 52,20 44.3,38.5" />
<path stroke="#000000" stroke-width="2" d="M 82,70" />
<path stroke="#000000" stroke-width="2" d="M 82,30 82,70 93.3,58.7" />
<path stroke="#000000" stroke-width="2" d="M 100,70" />
<path stroke="#000000" stroke-width="2" d="M 110,30 102.3,48.5 92.4,58.4 102.3,68.3" />
<path stroke="#000000" stroke-width="2" d="M 140,70" />
<path stroke="#000000" stroke-width="2" d="M 140,30 150,30 150,70" />
<path stroke="#000000" stroke-width="2" d="M 156.6,70" />
<path stroke="#000000" stroke-width="2" d="M 156.6,50 156.6,70 156.6,64 156.6,63.1 156.7,62.3 156.8,61.4 157.1,60.6 157.4,59.7 157.7,58.9 158.2,58.2 158.7,57.5 159.2,56.8 159.9,56.2 160.5,55.6 161.2,55.1 162,54.7 162.8,54.3 163.6,54 164.4,53.8 165.3,53.6 166.2,53.6" />
<path stroke="#000000" stroke-width="2" d="M 196.2,70" />
<path stroke="#000000" stroke-width="2" d="M 206.2,30 198.5,48.5 198.5,68.5 204.2,62.8" />
<path stroke="#000000" stroke-width="2" d="M 212.8,70" />
<path stroke="#000000" stroke-width="2" d="M 212.8,20 232.8,20 225.2,38.5" />
<path stroke="#000000" stroke-width="2" d="M 239.5,70" />
<path stroke="#000000" stroke-width="2" d="M 239.5,30 239.7,30 239.7,30.2 239.5,30.2 239.5,30" />
<path stroke="#000000" stroke-width="2" d="M 269.7,70" />
<path stroke="#000000" stroke-width="2" d="M 274.7,30" />
<path stroke="#000000" stroke-width="2" d="M 274.7,30 273.3,30.1 272,30.6 270.9,31.2 269.9,32.1 269.1,33.1 268.4,34.3 267.9,35.6 267.5,37 267.3,38.5 267.2,40 267.3,41.5 267.5,43 267.9,44.4 268.4,45.7 269.1,46.9 269.9,47.9 270.9,48.8 272,49.4 273.3,49.9 274.7,50 294.7,50" />
<path stroke="#000000" stroke-width="2" d="M 324.7,70" />
<path stroke="#000000" stroke-width="2" d="M 340.7,30" />
<path stroke="#000000" stroke-width="2" d="M 340.7,30 340.5,34.1 339.9,37.3 339,39.8 337.8,41.5 336.5,42.7 335,43.2 333.5,43.3 332.1,43 330.7,42.3 329.5,41.2 328.5,40 327.7,38.6 327.4,37.2 327.5,35.7 328.1,34.2 329.2,32.9 331,31.7 333.4,30.8 336.6,30.2 340.7,30 360.7,30" />
<path stroke="#000000" stroke-width="2" d="M 390.7,70" />
<path stroke="#000000" stroke-width="2" d="M 390.7,30 406,67" />
<path stroke="#000000" stroke-width="2" d="M 436,70" />
<path stroke="#000000" stroke-width="2" d="M 436,70 436.2,70 436.2,70.2 436,70.2 436,70" />
<path stroke="#000000" stroke-width="2" d="M 466.2,70" />
<path stroke="#000000" stroke-width="2" d="M 471.2,30" />
<path stroke="#000000" stroke-width="2" d="M 471.2,30 469.8,30.1 468.5,30.6 467.4,31.2 466.4,32.1 465.6,33.1 464.9,34.3 464.4,35.6 464,37 463.8,38.5 463.7,40 463.8,41.5 464,43 464.4,44.4 464.9,45.7 465.6,46.9 466.4,47.9 467.4,48.8 468.5,49.4 469.8,49.9 471.2,50 491.2,50" />
<path stroke="#000000" stroke-width="2" d="M 521.2,70" />
<path stroke="#000000" stroke-width="2" d="M 526.2,30" />
<path stroke="#000000" stroke-width="2" d="M 526.2,30 524.8,30.1 523.5,30.6 522.4,31.2 521.4,32.1 520.6,33.1 519.9,34.3 519.4,35.6 519,37 518.8,38.5 518.7,40 518.8,41.5 519,43 519.4,44.4 519.9,45.7 520.6,46.9 521.4,47.9 522.4,48.8 523.5,49.4 524.8,49.9 526.2,50 531.2,50 531.2,70" />
<path stroke="#000000" stroke-width="2" d="M 561.2,70" />
<path stroke="#000000" stroke-width="2" d="M 561.2,70 561.4,70 561.4,70.2 561.2,70.2 561.2,70" />
<path stroke="#000000" stroke-width="2" d="M 568.1,70" />
<path stroke="#000000" stroke-width="2" d="M 568.1,30 578.1,30 578.1,70" />
<path stroke="#000000" stroke-width="2" d="M 584.7,70" />
<path stroke="#000000" stroke-width="2" d="M 584.7,30 584.7,50 584.7,44 584.7,43.1 584.8,42.3 585,41.4 585.2,40.6 585.5,39.7 585.9,38.9 586.3,38.2 586.8,37.5 587.4,36.8 588,36.2 588.7,35.6 589.4,35.1 590.1,34.7 590.9,34.3 591.7,34 592.6,33.8 593.4,33.6 594.3,33.6" />
<path stroke="#000000" stroke-width="2" d="M 594.3,33.6 596.3,33.5 597.9,33.2 599.2,32.7 600.1,32.1 600.6,31.5 600.9,30.7 601,30 600.8,29.3 600.4,28.6 599.9,27.9 599.3,27.4 598.6,27.1 597.9,26.9 597.1,27 596.4,27.2 595.7,27.8 595.2,28.7 594.7,29.9 594.4,31.5 594.3,33.6 594.3,48.6 586.6,67.1" />
<path stroke="#000000" stroke-width="2" d="M 631,70" />
<path stroke="#000000" stroke-width="2" d="M 643,36" />
<path stroke="#000000" stroke-width="2" d="M 643,36 640.9,35.9 639.3,35.6 638.1,35.1 637.2,34.6 636.6,33.9 636.3,33.2 636.3,32.4 636.5,31.7 636.8,31 637.3,30.4 637.9,29.9 638.6,29.5 639.4,29.3 640.1,29.4 640.8,29.7 641.5,30.2 642.1,31.1 642.6,32.4 642.9,34 643,36 643,40" />
<path stroke="#000000" stroke-width="2" d="M 643,40 642.6,40.9 642.3,41.7 641.9,42.4 641.5,43.1 641.1,43.8 640.7,44.4 640.2,44.9 639.7,45.4 639.2,45.9 638.7,46.2 638.2,46.6 637.6,46.9 637.1,47.2 636.5,47.4 635.9,47.6 635.3,47.7 634.8,47.9 634.2,47.9 633.6,48 633,48" />
<path stroke="#000000" stroke-width="2" d="M 633,48 635,47.9 636.6,47.6 637.8,47.1 638.7,46.6 639.3,45.9 639.6,45.2 639.6,44.4 639.4,43.7 639.1,43 638.6,42.4 638,41.9 637.3,41.5 636.5,41.3 635.8,41.4 635.1,41.7 634.4,42.2 633.8,43.1 633.4,44.4 633.1,46 633,48 633,63" />
<path stroke="#000000" stroke-width="2" d="M 673,70" />
<path stroke="#000000" stroke-width="2" d="M 673,30 673,70 693,70" />
<path stroke="#000000" stroke-width="2" d="M 723,70" />
<path stroke="#000000" stroke-width="2" d="M 723,30" />
<path stroke="#000000" stroke-width="2" d="M 723,30 725.8,30.3 728.4,31.1 730.6,32.4 732.6,34.2 734.2,36.2 735.6,38.6 736.6,41.3 737.4,44.1 737.8,47 738,50 737.8,53 737.4,55.9 736.6,58.7 735.6,61.4 734.2,63.8 732.6,65.8 730.6,67.6 728.4,68.9 725.8,69.7 723,70" />
<path stroke="#000000" stroke-width="2" d="M 744.6,70" />
<path stroke="#000000" stroke-width="2" d="M 744.6,30" />
<path stroke="#000000" stroke-width="2" d="M 744.6,30 747.5,30.3 750,31.1 752.3,32.4 754.2,34.2 755.9,36.2 757.2,38.6 758.3,41.3 759,44.1 759.5,47 759.6,50 759.5,53 759,55.9 758.3,58.7 757.2,61.4 755.9,63.8 754.2,65.8 752.3,67.6 750,68.9 747.5,69.7 744.6,70" />
<path stroke="#000000" stroke-width="2" d="M 789.6,70" />
<path stroke="#000000" stroke-width="2" d="M 789.6,30 789.6,70 800.9,58.7" />
<path stroke="#000000" stroke-width="2" d="M 807.6,70" />
<path stroke="#000000" stroke-width="2" d="M 807.6,25" />
<path stroke="#000000" stroke-width="2" d="M 807.6,25 809.6,24.9 811.3,24.6 812.5,24.1 813.4,23.6 813.9,22.9 814.2,22.2 814.3,21.4 814.1,20.7 813.7,20 813.2,19.4 812.6,18.9 811.9,18.5 811.2,18.3 810.4,18.4 809.7,18.7 809,19.2 808.5,20.1 808,21.4 807.7,23 807.6,25 807.6,40" />
<path stroke="#000000" stroke-width="2" d="M 844.3,70" />
<path stroke="#000000" stroke-width="2" d="M 844.3,50 850,36.1" />
<path stroke="#000000" stroke-width="2" d="M 850,36.1 852,36 853.6,35.7 854.9,35.3 855.8,34.7 856.3,34 856.6,33.3 856.7,32.6 856.5,31.8 856.1,31.1 855.6,30.5 855,30 854.3,29.7 853.6,29.5 852.8,29.5 852.1,29.8 851.4,30.4 850.9,31.3 850.4,32.5 850.1,34.1 850,36.1 850,51.1 850,50.4 850.1,49.7 850.2,49.1 850.4,48.4 850.6,47.7 850.9,47.1 851.2,46.5 851.6,45.9 852.1,45.4 852.6,44.9 853.1,44.4 853.7,44 854.3,43.7 854.9,43.4 855.6,43.2 856.3,43 856.9,42.9 857.6,42.8 858.3,42.8 859,42.9 859.7,43 860.4,43.2 861.1,43.4 861.7,43.7 862.3,44 862.9,44.4 863.4,44.9 863.9,45.4 864.3,45.9 864.7,46.5 865.1,47.1 865.4,47.7 865.6,48.4 865.8,49.1 865.9,49.7 866,50.4" />
<path stroke="#000000" stroke-width="2" d="M 896,70" />
<path stroke="#000000" stroke-width="2" d="M 896,40 896.2,40 896.2,40.2 896,40.2 896,40" />
<path stroke="#000000" stroke-width="2" d="M 902.9,70" />
<path stroke="#000000" stroke-width="2" d="M 902.9,30 942.9,30" />
<path stroke="#000000" stroke-width="2" d="M 949.5,70" />
<path stroke="#000000" stroke-width="2" d="M 949.5,50 949.5,70 949.5,64 949.5,63.1 949.6,62.3 949.7,61.4 950,60.6 950.3,59.7 950.6,58.9 951.1,58.2 951.6,57.5 952.1,56.8 952.8,56.2 953.4,55.6 954.1,55.1 954.9,54.7 955.7,54.3 956.5,54 957.3,53.8 958.2,53.6 959.1,53.6" />
<path stroke="#000000" stroke-width="2" d="M 959.1,53.6 961.1,53.5 962.7,53.2 963.9,52.7 964.8,52.1 965.4,51.5 965.7,50.7 965.7,50 965.6,49.3 965.2,48.6 964.7,47.9 964.1,47.4 963.4,47.1 962.7,46.9 961.9,47 961.2,47.2 960.5,47.8 959.9,48.7 959.5,49.9 959.2,51.5 959.1,53.6 959.1,68.6" />
<path stroke="#000000" stroke-width="2" d="M 995.7,70" />
<path stroke="#000000" stroke-width="2" d="M 995.7,30 995.7,70 1007,58.7" />
<path stroke="#000000" stroke-width="2" d="M 1013.7,70" />
<path stroke="#000000" stroke-width="2" d="M 1013.7,20 1033.7,20" />
<path stroke="#000000" stroke-width="2" d="M 1063.7,70" />
<path stroke="#000000" stroke-width="2" d="M 1103.7,30 1064.1,69.6" />
<path stroke="#000000" stroke-width="2" d="M 1064.1,29.6 1103.7,69.2" />
<path stroke="#000000" stroke-width="2" d="M 1110.4,70" />
<path stroke="#000000" stroke-width="2" d="M 1110.4,28 1110.4,27.3 1110.4,26.6 1110.6,25.9 1110.7,25.2 1111,24.6 1111.3,24 1111.6,23.4 1112,22.8 1112.5,22.2 1113,21.8 1113.5,21.3 1114.1,20.9 1114.7,20.6 1115.3,20.3 1116,20 1116.6,19.8 1117.3,19.7 1118,19.7 1118.7,19.7 1119.4,19.7 1120.1,19.8 1120.8,20 1121.4,20.3 1122.1,20.6 1122.7,20.9 1123.2,21.3 1123.8,21.8 1124.3,22.2 1124.7,22.8 1125.1,23.4 1125.5,24 1125.8,24.6 1126,25.2 1126.2,25.9 1126.3,26.6 1126.4,27.3 1118.7,45.8 1118.7,46.5 1118.8,47.2 1118.9,47.9 1119.1,48.5 1119.3,49.2 1119.6,49.8 1119.9,50.4 1120.4,51 1120.8,51.5 1121.3,52 1121.8,52.5 1122.4,52.9 1123,53.2 1123.6,53.5 1124.3,53.8 1125,53.9 1125.7,54.1 1126.3,54.1 1127,54.1 1127.7,54.1 1128.4,53.9 1129.1,53.8 1129.8,53.5 1130.4,53.2 1131,52.9 1131.6,52.5 1132.1,52 1132.6,51.5 1133,51 1133.4,50.4 1133.8,49.8 1134.1,49.2 1134.3,48.5 1134.5,47.9 1134.6,47.2 1134.7,46.5" />
<path stroke="#000000" stroke-width="2" d="M 1141.4,70" />
<path stroke="#000000" stroke-width="2" d="M 1141.4,30 1141.6,30 1141.6,30.2 1141.4,30.2 1141.4,30" />
<path stroke="#000000" stroke-width="2" d="M 1171.6,70" />
<path stroke="#000000" stroke-width="2" d="M 1171.6,30 1171.6,70 1191.6,70" />
<path stroke="#000000" stroke-width="2" d="M 1221.6,70" />
<path stroke="#000000" stroke-width="2" d="M 1221.6,30" />
<path stroke="#000000" stroke-width="2" d="M 1221.6,30 1224.4,30.3 1227,31.1 1229.2,32.4 1231.2,34.2 1232.8,36.2 1234.2,38.6 1235.2,41.3 1236,44.1 1236.4,47 1236.6,50 1236.4,53 1236,55.9 1235.2,58.7 1234.2,61.4 1232.8,63.8 1231.2,65.8 1229.2,67.6 1227,68.9 1224.4,69.7 1221.6,70" />
<path stroke="#000000" stroke-width="2" d="M 1243.2,70" />
<path stroke="#000000" stroke-width="2" d="M 1243.2,30" />
<path stroke="#000000" stroke-width="2" d="M 1243.2,30 1246.1,30.3 1248.6,31.1 1250.9,32.4 1252.8,34.2 1254.5,36.2 1255.8,38.6 1256.9,41.3 1257.6,44.1 1258.1,47 1258.2,50 1258.1,53 1257.6,55.9 1256.9,58.7 1255.8,61.4 1254.5,63.8 1252.8,65.8 1250.9,67.6 1248.6,68.9 1246.1,69.7 1243.2,70" />
<path stroke="#000000" stroke-width="2" d="M 1288.2,70" />
<path stroke="#000000" stroke-width="2" d="M 1288.2,70 1288.4,70 1288.4,70.2 1288.2,70.2 1288.2,70" />
<path stroke="#000000" stroke-width="2" d="M 1318.4,70" />
<path stroke="#000000" stroke-width="2" d="M 1318.4,30 1328.4,30 1328.4,70" />
<path stroke="#000000" stroke-width="2" d="M 1335.1,70" />
<path stroke="#000000" stroke-width="2" d="M 1335.1,50 1335.1,70 1335.1,64 1335.1,63.1 1335.2,62.3 1335.3,61.4 1335.5,60.6 1335.8,59.7 1336.2,58.9 1336.6,58.2 1337.1,57.5 1337.7,56.8 1338.3,56.2 1339,55.6 1339.7,55.1 1340.5,54.7 1341.3,54.3 1342.1,54 1342.9,53.8 1343.8,53.6 1344.6,53.6" />
<path stroke="#000000" stroke-width="2" d="M 1374.6,70" />
<path stroke="#000000" stroke-width="2" d="M 1374.6,40" />
<path stroke="#000000" stroke-width="2" d="M 1374.6,40 1378.7,39.8 1381.9,39.2 1384.4,38.3 1386.2,37.1 1387.3,35.8 1387.9,34.3 1388,32.8 1387.6,31.4 1386.9,30 1385.9,28.8 1384.7,27.7 1383.3,27 1381.8,26.7 1380.3,26.8 1378.9,27.3 1377.5,28.5 1376.4,30.2 1375.5,32.7 1374.9,35.9 1374.6,40 1374.6,70" />
<path stroke="#000000" stroke-width="2" d="M 1394.6,70" />
<path stroke="#000000" stroke-width="2" d="M 1414.6,30 1394.8,49.8" />
<path stroke="#000000" stroke-width="2" d="M 1394.8,29.8 1414.6,49.6 1407,68.1" />
<path stroke="#000000" stroke-width="2" d="M 1421.3,70" />
<path stroke="#000000" stroke-width="2" d="M 1421.3,20 1441.3,20" />
<path stroke="#000000" stroke-width="2" d="M 1471.3,70" />
<path stroke="#000000" stroke-width="2" d="M 1487.3,30" />
<path stroke="#000000" stroke-width="2" d="M 1487.3,30 1487.1,34.1 1486.5,37.3 1485.6,39.8 1484.4,41.5 1483.1,42.7 1481.6,43.2 1480.1,43.3 1478.6,43 1477.3,42.3 1476,41.2 1475,40 1474.3,38.6 1474,37.2 1474.1,35.7 1474.6,34.2 1475.8,32.9 1477.5,31.7 1480,30.8 1483.2,30.2 1487.3,30 1507.3,30" />
<path stroke="#000000" stroke-width="2" d="M 1537.3,70" />
<path stroke="#000000" stroke-width="2" d="M 1537.3,30 1552.6,67" />
<path stroke="#000000" stroke-width="2" d="M 1582.6,70" />
<path stroke="#000000" stroke-width="2" d="M 1582.6,70 1582.8,70 1582.8,70.2 1582.6,70.2 1582.6,70" />
<path stroke="#000000" stroke-width="2" d="M 1612.8,70" />
<path stroke="#000000" stroke-width="2" d="M 1612.8,30 1612.8,70 1632.8,70" />
<path stroke="#000000" stroke-width="2" d="M 1662.8,70" />
<path stroke="#000000" stroke-width="2" d="M 1662.8,30 1662.8,70 1674.1,58.7" />
<path stroke="#000000" stroke-width="2" d="M 1680.8,70" />
<path stroke="#000000" stroke-width="2" d="M 1680.8,25" />
<path stroke="#000000" stroke-width="2" d="M 1680.8,25 1682.8,24.9 1684.4,24.6 1685.7,24.1 1686.5,23.6 1687.1,22.9 1687.4,22.2 1687.4,21.4 1687.3,20.7 1686.9,20 1686.4,19.4 1685.8,18.9 1685.1,18.5 1684.4,18.3 1683.6,18.4 1682.9,18.7 1682.2,19.2 1681.6,20.1 1681.2,21.4 1680.9,23 1680.8,25 1680.8,40" />
<path stroke="#000000" stroke-width="2" d="M 1717.4,70" />
</svg>