<svg xmlns="http://www.w3.org/2000/svg" width="1485.7223460885018" height="102.0" style="fill:none; stroke-linecap:round;">
    <rect width="100%" height="100%" fill="#FFFFFF" />
<path stroke="#000000" stroke-width="2" d="M 550,75" />
<path stroke="#000000" stroke-width="2" d="M 40,30 24.7,67" />
<path stroke="#000000" stroke-width="2" d="M 46.7,70" />
<path stroke="#000000" stroke-width="2" d="M 56.7,70 57.5,70 58.4,69.9 59.3,69.8 60.1,69.5 60.9,69.2 61.7,68.9 62.5,68.4 63.2,67.9 63.9,67.4 64.5,66.8 65,66.1 65.5,65.4 66,64.6 66.3,63.8 66.6,63 66.9,62.2 67,61.3 67.1,60.4 67.1,59.6 67,58.7 66.9,57.8 66.6,57 66.3,56.2 66,55.4 65.5,54.6 65,53.9 64.5,53.3 63.9,52.6 63.2,52.1 62.5,51.6 61.7,51.1 60.9,50.8 60.1,50.5 59.3,50.2 58.4,50.1 57.5,50 56.7,50 55.8,50.1 54.9,50.2 54.1,50.5 53.3,50.8 52.5,51.1 51.7,51.6 51,52.1 50.3,52.6 49.7,53.3 49.2,53.9 48.7,54.6 48.2,55.4 47.9,56.2 47.6,57 47.3,57.8 47.2,58.7 47.1,59.6 47.1,60.4 47.2,61.3 47.3,62.2 47.6,63 47.9,63.8 48.2,64.6 48.7,65.4 49.2,66.1 49.7,66.8 50.3,67.4 51,67.9 51.7,68.4 52.5,68.9 53.3,69.2 54.1,69.5 54.9,69.8 55.8,69.9 56.7,70" />
<path stroke="#000000" stroke-width="2" d="M 73.8,70" />
<path stroke="#000000" stroke-width="2" d="M 73.8,40" />
<path stroke="#000000" stroke-width="2" d="M 73.8,40 77.8,39.8 81.1,39.2 83.5,38.3 85.3,37.1 86.4,35.8 87,34.3 87.1,32.8 86.7,31.4 86,30 85,28.8 83.8,27.7 82.4,27 80.9,26.7 79.4,26.8 78,27.3 76.6,28.5 75.5,30.2 74.6,32.7 74,35.9 73.8,40 73.8,70" />
<path stroke="#000000" stroke-width="2" d="M 117.1,70" />
<path stroke="#000000" stroke-width="2" d="M 117.1,30 118.8,30 120.6,30.2 122.3,30.5 124,30.9 125.6,31.5 127.2,32.2 128.7,33.1 130.1,34.1 131.5,35.2 132.7,36.5 133.8,37.8 134.8,39.2 135.7,40.7 136.4,42.3 137,44 137.5,45.7 137.8,47.4 137.9,49.1 137.9,50.9 137.8,52.6 137.5,54.3 137,56 136.4,57.6 135.7,59.2 134.8,60.7 133.8,62.2 132.7,63.5 131.5,64.7 130.1,65.8 128.7,66.8 127.2,67.7 125.6,68.5 124,69.1 122.3,69.5 120.6,69.8 118.8,70" />
<path stroke="#000000" stroke-width="2" d="M 144.6,70" />
<path stroke="#000000" stroke-width="2" d="M 146.6,20 155.1,28.5" />
<path stroke="#000000" stroke-width="2" d="M 163.6,20 143.8,39.8" />
<path stroke="#000000" stroke-width="2" d="M 193.6,70" />
<path stroke="#000000" stroke-width="2" d="M 193.6,30 193.6,70 213.6,70" />
<path stroke="#000000" stroke-width="2" d="M 243.6,70" />
<path stroke="#000000" stroke-width="2" d="M 259.6,30 239.8,49.8 259.6,69.6" />
<path stroke="#000000" stroke-width="2" d="M 266.2,70" />
<path stroke="#000000" stroke-width="2" d="M 266.2,20 273.9,38.5 281.5,20 301.5,20 293.9,38.5" />
<path stroke="#000000" stroke-width="2" d="M 331.5,70" />
<path stroke="#000000" stroke-width="2" d="M 331.5,35" />
<path stroke="#000000" stroke-width="2" d="M 331.5,35 333.6,34.9 335.2,34.6 336.4,34.1 337.3,33.6 337.9,32.9 338.1,32.2 338.2,31.4 338,30.7 337.7,30 337.2,29.4 336.5,28.9 335.9,28.5 335.1,28.3 334.4,28.4 333.6,28.7 333,29.2 332.4,30.1 331.9,31.4 331.6,33 331.5,35 331.5,50" />
<path stroke="#000000" stroke-width="2" d="M 331.5,50 331.4,52 331.1,53.6 330.7,54.9 330.1,55.8 329.4,56.3 328.7,56.6 328,56.7 327.2,56.5 326.5,56.1 325.9,55.6 325.4,55 325.1,54.3 324.9,53.6 324.9,52.8 325.2,52.1 325.8,51.4 326.7,50.9 327.9,50.4 329.5,50.1 331.5,50 341.5,50" />
<path stroke="#000000" stroke-width="2" d="M 348.2,70" />
<path stroke="#000000" stroke-width="2" d="M 348.2,70 348.2,69.3 348.3,68.6 348.4,67.9 348.6,67.2 348.8,66.6 349.1,66 349.4,65.4 349.8,64.8 350.3,64.2 350.8,63.8 351.3,63.3 351.9,62.9 352.5,62.6 353.1,62.3 353.8,62 354.5,61.8 355.1,61.7 355.8,61.7 356.5,61.7 357.2,61.7 357.9,61.8 358.6,62 359.3,62.3 359.9,62.6 360.5,62.9 361.1,63.3 361.6,63.8 362.1,64.2 362.5,64.8 362.9,65.4 363.3,66 363.6,66.6 363.8,67.2 364,67.9 364.1,68.6 364.2,69.3 384.2,69.3" />
<path stroke="#000000" stroke-width="2" d="M 414.2,70" />
<path stroke="#000000" stroke-width="2" d="M 434.2,30 418.9,67" />
<path stroke="#000000" stroke-width="2" d="M 440.9,70" />
<path stroke="#000000" stroke-width="2" d="M 440.9,70 448.5,51.5 468.5,51.5" />
<path stroke="#000000" stroke-width="2" d="M 475.2,70" />
<path stroke="#000000" stroke-width="2" d="M 485.2,30 484.3,30 483.4,30.1 482.6,30.2 481.7,30.5 480.9,30.8 480.1,31.1 479.4,31.6 478.6,32.1 478,32.6 477.4,33.2 476.8,33.9 476.3,34.6 475.9,35.4 475.5,36.2 475.2,37 475,37.8 474.8,38.7 474.7,39.6 474.7,40.4 474.8,41.3 475,42.2 475.2,43 475.5,43.8 475.9,44.6 476.3,45.4 476.8,46.1 477.4,46.7 478,47.4 478.6,47.9 479.4,48.4 480.1,48.9 480.9,49.2 481.7,49.5 482.6,49.8 483.4,49.9 484.3,50 504.3,50" />
<path stroke="#000000" stroke-width="2" d="M 534.3,70" />
<path stroke="#000000" stroke-width="2" d="M 534.3,70 549.6,33 549.6,73" />
<path stroke="#000000" stroke-width="2" d="M 556.3,70" />
<path stroke="#000000" stroke-width="2" d="M 556.3,50 560.1,59.2" />
<path stroke="#000000" stroke-width="2" d="M 560.1,59.2 562,61.4 563.3,63.3 564.1,65 564.4,66.4 564.3,67.7 563.9,68.7 563.2,69.5 562.3,70 561.2,70.4 560.1,70.5 559,70.4 557.9,70 557,69.5 556.3,68.7 555.9,67.7 555.8,66.4 556.1,65 556.9,63.3 558.2,61.4 560.1,59.2 563.9,50 556.3,68.5" />
<path stroke="#000000" stroke-width="2" d="M 594.4,70" />
<path stroke="#000000" stroke-width="2" d="M 594.4,30 594.4,50 604.4,50 596.8,68.5" />
<path stroke="#000000" stroke-width="2" d="M 634.4,70" />
<path stroke="#000000" stroke-width="2" d="M 634.4,70 634.6,70 634.6,70.2 634.4,70.2 634.4,70" />
<path stroke="#000000" stroke-width="2" d="M 664.6,70" />
<path stroke="#000000" stroke-width="2" d="M 684.6,70 686.4,70 688.1,69.8 689.8,69.5 691.5,69.1 693.1,68.5 694.7,67.8 696.2,66.9 697.7,65.9 699,64.8 700.2,63.5 701.4,62.2 702.4,60.8 703.2,59.3 704,57.7 704.6,56 705,54.3 705.3,52.6 705.5,50.9 705.5,49.1 705.3,47.4 705,45.7 704.6,44 704,42.4 703.2,40.8 702.4,39.3 701.4,37.8 700.2,36.5 699,35.3 697.7,34.2 696.2,33.2 694.7,32.3 693.1,31.5 691.5,30.9 689.8,30.5 688.1,30.2 686.4,30 684.6,30 682.9,30.2 681.2,30.5 679.5,30.9 677.8,31.5 676.3,32.3 674.7,33.2 673.3,34.2 672,35.3 670.7,36.5 669.6,37.8 668.6,39.3 667.8,40.8 667,42.4 666.4,44 666,45.7 665.7,47.4 665.5,49.1 665.5,50.9 665.7,52.6 666,54.3 666.4,56 667,57.7 667.8,59.3 668.6,60.8 669.6,62.2 670.7,63.5 672,64.8 673.3,65.9 674.7,66.9 676.3,67.8 677.8,68.5 679.5,69.1 681.2,69.5 682.9,69.8 684.6,70" />
<path stroke="#000000" stroke-width="2" d="M 712.1,70" />
<path stroke="#000000" stroke-width="2" d="M 714.1,20 722.6,28.5" />
<path stroke="#000000" stroke-width="2" d="M 731.1,20 711.3,39.8" />
<path stroke="#000000" stroke-width="2" d="M 761.1,70" />
<path stroke="#000000" stroke-width="2" d="M 761.1,70 761.1,68.6 761.2,67.2 761.5,65.8 761.8,64.5 762.3,63.2 762.9,61.9 763.6,60.7 764.4,59.6 765.3,58.5 766.3,57.5 767.4,56.6 768.5,55.8 769.7,55.1 771,54.5 772.3,54 773.6,53.7 775,53.4 776.4,53.3 777.8,53.3 779.2,53.4 780.6,53.7 781.9,54 783.2,54.5 784.5,55.1 785.7,55.8 786.8,56.6 787.9,57.5 788.9,58.5 789.8,59.6 790.6,60.7 791.3,61.9 791.9,63.2 792.4,64.5 792.7,65.8 793,67.2 793.1,68.6" />
<path stroke="#000000" stroke-width="2" d="M 799.7,70" />
<path stroke="#000000" stroke-width="2" d="M 799.7,50 803.6,59.2" />
<path stroke="#000000" stroke-width="2" d="M 803.6,59.2 805.5,61.4 806.8,63.3 807.6,65 807.9,66.4 807.8,67.7 807.4,68.7 806.6,69.5 805.7,70 804.7,70.4 803.6,70.5 802.5,70.4 801.4,70 800.5,69.5 799.8,68.7 799.4,67.7 799.3,66.4 799.6,65 800.3,63.3 801.7,61.4 803.6,59.2 807.4,50 807.4,50.7 807.5,51.4 807.6,52.1 807.8,52.8 808,53.4 808.3,54 808.6,54.6 809,55.2 809.5,55.8 810,56.2 810.5,56.7 811.1,57.1 811.7,57.4 812.3,57.7 813,58 813.7,58.2 814.3,58.3 815,58.3 815.7,58.3 816.4,58.3 817.1,58.2 817.8,58 818.5,57.7 819.1,57.4 819.7,57.1 820.3,56.7 820.8,56.2 821.3,55.8 821.7,55.2 822.1,54.6 822.5,54 822.8,53.4 823,52.8 823.2,52.1 823.3,51.4 823.4,50.7 824.3,50.7 825.1,50.8 826,50.9 826.8,51.2 827.6,51.4 828.4,51.8 829.2,52.3 829.9,52.8 830.6,53.3 831.2,53.9 831.8,54.6 832.3,55.3 832.7,56.1 833.1,56.9 833.4,57.7 833.6,58.5 833.7,59.4 833.8,60.3 833.8,61.1 833.7,62 833.6,62.9 833.4,63.7 833.1,64.5 832.7,65.3 832.3,66.1 831.8,66.8 831.2,67.4 830.6,68.1 829.9,68.6 829.2,69.1 828.4,69.6 827.6,69.9 826.8,70.2 826,70.5 825.1,70.6 824.3,70.7" />
<path stroke="#000000" stroke-width="2" d="M 863.8,70" />
<path stroke="#000000" stroke-width="2" d="M 863.8,30 867.6,39.2" />
<path stroke="#000000" stroke-width="2" d="M 867.6,39.2 869.6,41.4 870.9,43.3 871.7,45 872,46.4 871.9,47.7 871.4,48.7 870.7,49.5 869.8,50 868.8,50.4 867.6,50.5 866.5,50.4 865.5,50 864.6,49.5 863.9,48.7 863.4,47.7 863.3,46.4 863.6,45 864.4,43.3 865.7,41.4 867.6,39.2 871.5,30" />
<path stroke="#000000" stroke-width="2" d="M 871.5,38" />
<path stroke="#000000" stroke-width="2" d="M 861.5,38 875.5,38" />
<path stroke="#000000" stroke-width="2" d="M 875.5,38 877.5,37.9 879.1,37.6 880.3,37.1 881.2,36.6 881.8,35.9 882.1,35.2 882.1,34.4 881.9,33.7 881.6,33 881.1,32.4 880.5,31.9 879.8,31.5 879,31.3 878.3,31.4 877.6,31.7 876.9,32.2 876.3,33.1 875.9,34.4 875.6,36 875.5,38 875.5,53 867.8,71.5" />
<path stroke="#000000" stroke-width="2" d="M 888.8,70" />
<path stroke="#000000" stroke-width="2" d="M 888.8,20 908.8,20 909.7,20 910.5,20.1 911.4,20.2 912.2,20.5 913,20.8 913.8,21.1 914.6,21.6 915.3,22.1 916,22.6 916.6,23.2 917.2,23.9 917.7,24.6 918.1,25.4 918.5,26.2 918.8,27 919,27.8 919.1,28.7 919.2,29.6 919.2,30.4 919.1,31.3 919,32.2 918.8,33 918.5,33.8 918.1,34.6 917.7,35.4 917.2,36.1 916.6,36.7 916,37.4 915.3,37.9 914.6,38.4 913.8,38.9 913,39.2 912.2,39.5 911.4,39.8 910.5,39.9 909.7,40" />
<path stroke="#000000" stroke-width="2" d="M 949.2,70" />
<path stroke="#000000" stroke-width="2" d="M 949.2,30 964.5,67" />
<path stroke="#000000" stroke-width="2" d="M 971.2,70" />
<path stroke="#000000" stroke-width="2" d="M 981.2,20 973.5,38.5 973.5,39 973.5,39.5 973.4,40 973.3,40.5 973.1,41 972.9,41.5 972.6,42 972.3,42.4 972,42.8 971.6,43.2 971.2,43.5 970.8,43.8 970.3,44.1 969.8,44.3 969.3,44.5 968.8,44.6 968.3,44.7 967.8,44.7 967.3,44.7 966.8,44.7 966.2,44.6 965.7,44.5 965.2,44.3 964.8,44.1 964.3,43.8 963.9,43.5 963.5,43.2 963.1,42.8 962.8,42.4 962.5,42 962.2,41.5 962,41 961.8,40.5 961.7,40 961.6,39.5 961.5,39 961.5,38.5 961.6,38 961.7,37.4 961.8,36.9 962,36.4 962.2,36 962.5,35.5 962.8,35.1 963.1,34.7 963.5,34.3 963.9,34 964.3,33.7 964.8,33.4 965.2,33.2 965.7,33 966.2,32.9 966.8,32.8 967.3,32.7 967.8,32.7 968.3,32.8 968.8,32.9 969.3,33 969.8,33.2 970.3,33.4 970.8,33.7 971.2,34 971.6,34.3 972,34.7 972.3,35.1 972.6,35.5 972.9,36 973.1,36.4 973.3,36.9 973.4,37.4 973.5,38 973.5,38.5 973.5,42.5" />
<path stroke="#000000" stroke-width="2" d="M 973.5,42.5 973.2,43.3 972.9,44.2 972.5,44.9 972.1,45.6 971.7,46.3 971.2,46.9 970.8,47.4 970.3,47.9 969.8,48.3 969.3,48.7 968.8,49.1 968.2,49.4 967.6,49.7 967.1,49.9 966.5,50.1 965.9,50.2 965.3,50.3 964.7,50.4 964.1,50.5 963.5,50.5" />
<path stroke="#000000" stroke-width="2" d="M 1011.2,70" />
<path stroke="#000000" stroke-width="2" d="M 1011.2,40 1011.4,40 1011.4,40.2 1011.2,40.2 1011.2,40" />
<path stroke="#000000" stroke-width="2" d="M 1018.1,70" />
<path stroke="#000000" stroke-width="2" d="M 1018.1,30 1019.8,30 1021.5,30.2 1023.3,30.5 1024.9,30.9 1026.6,31.5 1028.2,32.2 1029.7,33.1 1031.1,34.1 1032.4,35.2 1033.7,36.5 1034.8,37.8 1035.8,39.2 1036.7,40.7 1037.4,42.3 1038,44 1038.5,45.7 1038.8,47.4 1038.9,49.1 1038.9,50.9 1038.8,52.6 1038.5,54.3 1038,56 1037.4,57.6 1036.7,59.2 1035.8,60.7 1034.8,62.2 1033.7,63.5 1032.4,64.7 1031.1,65.8 1029.7,66.8 1028.2,67.7 1026.6,68.5 1024.9,69.1 1023.3,69.5 1021.5,69.8 1019.8,70" />
<path stroke="#000000" stroke-width="2" d="M 1045.6,70" />
<path stroke="#000000" stroke-width="2" d="M 1045.6,20 1046.4,20 1047.3,20.1 1048.2,20.2 1049,20.5 1049.8,20.8 1050.6,21.1 1051.4,21.6 1052.1,22.1 1052.8,22.6 1053.4,23.2 1053.9,23.9 1054.4,24.6 1054.9,25.4 1055.2,26.2 1055.5,27 1055.8,27.8 1055.9,28.7 1056,29.6 1056,30.4 1055.9,31.3 1055.8,32.2 1055.5,33 1055.2,33.8 1054.9,34.6 1054.4,35.4 1053.9,36.1 1053.4,36.7 1052.8,37.4 1052.1,37.9 1051.4,38.4 1050.6,38.9 1049.8,39.2 1049,39.5 1048.2,39.8 1047.3,39.9 1046.4,40" />
<path stroke="#000000" stroke-width="2" d="M 1086,70" />
<path stroke="#000000" stroke-width="2" d="M 1086,30 1086,70 1086,58 1086,56.3 1086.2,54.5 1086.5,52.8 1086.9,51.1 1087.5,49.5 1088.2,47.9 1089.1,46.4 1090.1,45 1091.2,43.6 1092.5,42.4 1093.8,41.3 1095.2,40.3 1096.7,39.4 1098.3,38.7 1100,38.1 1101.7,37.6 1103.4,37.3 1105.1,37.1" />
<path stroke="#000000" stroke-width="2" d="M 1111.8,70" />
<path stroke="#000000" stroke-width="2" d="M 1111.8,20 1111.8,20.7 1111.8,21.4 1112,22.1 1112.1,22.8 1112.4,23.4 1112.7,24 1113,24.6 1113.4,25.2 1113.9,25.8 1114.4,26.2 1114.9,26.7 1115.5,27.1 1116.1,27.4 1116.7,27.7 1117.4,28 1118,28.2 1118.7,28.3 1119.4,28.3 1120.1,28.3 1120.8,28.3 1121.5,28.2 1122.2,28 1122.8,27.7 1123.5,27.4 1124.1,27.1 1124.6,26.7 1125.2,26.2 1125.7,25.8 1126.1,25.2 1126.5,24.6 1126.9,24 1127.2,23.4 1127.4,22.8 1127.6,22.1 1127.7,21.4 1127.8,20.7" />
<path stroke="#000000" stroke-width="2" d="M 1134.4,70" />
<path stroke="#000000" stroke-width="2" d="M 1144.4,20 1136.8,38.5" />
<path stroke="#000000" stroke-width="2" d="M 1151.1,70" />
<path stroke="#000000" stroke-width="2" d="M 1151.1,30 1166.4,67 1181.7,30" />
<path stroke="#000000" stroke-width="2" d="M 1211.7,70" />
<path stroke="#000000" stroke-width="2" d="M 1221.7,30 1220.8,30 1220,30.1 1219.1,30.2 1218.3,30.5 1217.4,30.8 1216.7,31.1 1215.9,31.6 1215.2,32.1 1214.5,32.6 1213.9,33.2 1213.3,33.9 1212.8,34.6 1212.4,35.4 1212,36.2 1211.7,37 1211.5,37.8 1211.4,38.7 1211.3,39.6 1211.3,40.4 1211.4,41.3 1211.5,42.2 1211.7,43 1212,43.8 1212.4,44.6 1212.8,45.4 1213.3,46.1 1213.9,46.7 1214.5,47.4 1215.2,47.9 1215.9,48.4 1216.7,48.9 1217.4,49.2 1218.3,49.5 1219.1,49.8 1220,49.9 1220.8,50 1220.8,70 1220.8,64 1220.8,63.1 1220.9,62.2 1221.1,61.4 1221.3,60.5 1221.6,59.7 1222,58.9 1222.4,58.2 1222.9,57.5 1223.5,56.8 1224.1,56.2 1224.7,55.6 1225.5,55.1 1226.2,54.7 1227,54.3 1227.8,54 1228.7,53.8 1229.5,53.6 1230.4,53.6" />
<path stroke="#000000" stroke-width="2" d="M 1260.4,70" />
<path stroke="#000000" stroke-width="2" d="M 1262.4,50 1267.7,37.1 1267.9,36.7 1268,36.4 1268.1,36.1 1268.1,35.7 1268.1,35.4 1268.1,35 1268.1,34.7 1268,34.3 1267.9,34 1267.7,33.7 1267.6,33.4 1267.4,33.1 1267.2,32.8 1267,32.5 1266.7,32.3 1266.4,32.1 1266.1,31.9 1265.8,31.7 1265.5,31.6 1265.2,31.5 1264.8,31.4 1264.5,31.4 1264.1,31.4 1263.8,31.4 1263.4,31.4 1263.1,31.5 1262.8,31.6 1262.4,31.7 1262.1,31.9 1261.8,32.1 1261.6,32.3 1261.3,32.5 1261.1,32.8 1260.8,33.1 1260.7,33.4 1260.5,33.7 1260.4,34 1260.3,34.3 1260.2,34.7 1260.1,35 1260.1,35.4 1260.1,35.7 1260.2,36.1 1260.3,36.4 1260.4,36.7 1260.5,37.1 1260.7,37.4 1260.8,37.7 1261.1,37.9 1261.3,38.2 1261.6,38.4 1261.8,38.7 1262.1,38.8 1262.4,39 1262.8,39.1 1263.1,39.2 1263.4,39.3 1263.8,39.4 1264.1,39.4 1264.5,39.4 1277.4,34 1285.1,52.5 1292.7,34 1312.7,34" />
<path stroke="#000000" stroke-width="2" d="M 1342.7,70" />
<path stroke="#000000" stroke-width="2" d="M 1342.7,30 1342.7,38 1342.7,39 1342.8,40.1 1343,41.1 1343.3,42.1 1343.6,43.1 1344.1,44.1 1344.6,45 1345.2,45.8 1345.9,46.6 1346.6,47.4 1347.4,48 1348.3,48.6 1349.2,49.2 1350.1,49.6 1351.1,50 1352.1,50.2 1353.1,50.4 1354.2,50.5 1355.2,50.5 1356.3,50.4 1357.3,50.2 1358.3,50 1359.3,49.6 1360.2,49.2 1361.1,48.6 1362,48 1362.8,47.4 1363.5,46.6 1364.2,45.8 1364.8,45 1365.3,44.1 1365.8,43.1 1366.1,42.1 1366.4,41.1 1366.6,40.1 1366.7,39 1366.7,29 1366.7,69" />
<path stroke="#000000" stroke-width="2" d="M 1373.4,70" />
<path stroke="#000000" stroke-width="2" d="M 1373.4,50 1374.2,50 1375.1,50.1 1376,50.2 1376.8,50.5 1377.6,50.8 1378.4,51.1 1379.2,51.6 1379.9,52.1 1380.5,52.6 1381.2,53.2 1381.7,53.9 1382.2,54.6 1382.7,55.4 1383,56.2 1383.3,57 1383.6,57.8 1383.7,58.7 1383.8,59.6 1383.8,60.4 1383.7,61.3 1383.6,62.2 1383.3,63 1383,63.8 1382.7,64.6 1382.2,65.4 1381.7,66.1 1381.2,66.7 1380.5,67.4 1379.9,67.9 1379.2,68.4 1378.4,68.9 1377.6,69.2 1376.8,69.5 1376,69.8 1375.1,69.9 1374.2,70" />
<path stroke="#000000" stroke-width="2" d="M 1413.8,70" />
<path stroke="#000000" stroke-width="2" d="M 1413.8,70" />
<path stroke="#000000" stroke-width="2" d="M 1413.8,70 1414.9,70 1415.9,70.2 1416.7,70.4 1417.4,70.7 1418,71 1418.4,71.5 1418.8,71.9 1419,72.5 1419.1,73.1 1419,73.8 1418.9,74.4 1418.7,75.2 1418.4,76 1417.9,76.8 1417.4,77.6 1416.9,78.4 1416.2,79.3 1415.5,80.2 1414.7,81.1 1413.8,82" />
<path stroke="#000000" stroke-width="2" d="M 1449.1,70" />
<path stroke="#000000" stroke-width="2" d="M 1449.1,30 1449.1,70" />
<path stroke="#000000" stroke-width="2" d="M 1455.7,70" />
<path stroke="#000000" stroke-width="2" d="M 1465.7,50 1458.1,68.5" />
<path stroke="#000000" stroke-width="2" d="M 1495.7,70" />
</svg>