<svg xmlns="http://www.w3.org/2000/svg" width="967.016066397455" height="93.04481869954853" style="fill:none; stroke-linecap:round;">
    <rect width="100%" height="100%" fill="#FFFFFF" />
<path stroke="#000000" stroke-width="2" d="M 550,75" />
<path stroke="#000000" stroke-width="2" d="M 20,30 20,70 40,70" />
<path stroke="#000000" stroke-width="2" d="M 70,70" />
<path stroke="#000000" stroke-width="2" d="M 86,30 66.2,49.8 86,69.6" />
<path stroke="#000000" stroke-width="2" d="M 92.7,70" />
<path stroke="#000000" stroke-width="2" d="M 92.7,20" />
<path stroke="#000000" stroke-width="2" d="M 92.7,20 94.1,20.1 95.4,20.6 96.5,21.2 97.5,22.1 98.3,23.1 99,24.3 99.5,25.6 99.9,27 100.1,28.5 100.2,30 100.1,31.5 99.9,33 99.5,34.4 99,35.7 98.3,36.9 97.5,37.9 96.5,38.8 95.4,39.4 94.1,39.9 92.7,40" />
<path stroke="#000000" stroke-width="2" d="M 130.2,70" />
<path stroke="#000000" stroke-width="2" d="M 130.2,30 170.2,30" />
<path stroke="#000000" stroke-width="2" d="M 176.8,70" />
<path stroke="#000000" stroke-width="2" d="M 176.8,50 176.8,70 182.5,64.3" />
<path stroke="#000000" stroke-width="2" d="M 212.5,70" />
<path stroke="#000000" stroke-width="2" d="M 212.5,35" />
<path stroke="#000000" stroke-width="2" d="M 212.5,35 214.5,34.9 216.1,34.6 217.4,34.1 218.3,33.6 218.8,32.9 219.1,32.2 219.1,31.4 219,30.7 218.6,30 218.1,29.4 217.5,28.9 216.8,28.5 216.1,28.3 215.3,28.4 214.6,28.7 213.9,29.2 213.4,30.1 212.9,31.4 212.6,33 212.5,35 212.5,50" />
<path stroke="#000000" stroke-width="2" d="M 212.5,50 212.4,52 212.1,53.6 211.6,54.9 211.1,55.8 210.4,56.3 209.7,56.6 208.9,56.7 208.2,56.5 207.5,56.1 206.9,55.6 206.4,55 206,54.3 205.8,53.6 205.9,52.8 206.2,52.1 206.7,51.4 207.6,50.9 208.8,50.4 210.5,50.1 212.5,50 222.5,50" />
<path stroke="#000000" stroke-width="2" d="M 229.2,70" />
<path stroke="#000000" stroke-width="2" d="M 229.2,20 249.2,20 241.5,38.5" />
<path stroke="#000000" stroke-width="2" d="M 279.2,70" />
<path stroke="#000000" stroke-width="2" d="M 279.2,40 279.4,40 279.4,40.2 279.2,40.2 279.2,40" />
<path stroke="#000000" stroke-width="2" d="M 286,70" />
<path stroke="#000000" stroke-width="2" d="M 296,30 286,30 286,70" />
<path stroke="#000000" stroke-width="2" d="M 302.7,70" />
<path stroke="#000000" stroke-width="2" d="M 302.7,50 302.7,50.7 302.8,51.4 302.9,52.1 303.1,52.8 303.3,53.4 303.6,54 303.9,54.6 304.3,55.2 304.8,55.8 305.3,56.2 305.8,56.7 306.4,57.1 307,57.4 307.6,57.7 308.3,58 309,58.2 309.6,58.3 310.3,58.3 311,58.3 311.7,58.3 312.4,58.2 313.1,58 313.7,57.7 314.4,57.4 315,57.1 315.6,56.7 316.1,56.2 316.6,55.8 317,55.2 317.4,54.6 317.8,54 318.1,53.4 318.3,52.8 318.5,52.1 318.6,51.4 318.7,50.7" />
<path stroke="#000000" stroke-width="2" d="M 325.3,70" />
<path stroke="#000000" stroke-width="2" d="M 325.3,40 325.3,39.3 325.4,38.6 325.5,37.9 325.7,37.2 325.9,36.6 326.2,36 326.6,35.4 327,34.8 327.4,34.2 327.9,33.8 328.5,33.3 329,32.9 329.6,32.6 330.3,32.3 330.9,32 331.6,31.8 332.3,31.7 333,31.7 333.7,31.7 334.4,31.7 335.1,31.8 335.7,32 336.4,32.3 337,32.6 337.6,32.9 338.2,33.3 338.7,33.8 339.2,34.2 339.7,34.8 340.1,35.4 340.4,36 340.7,36.6 341,37.2 341.1,37.9 341.3,38.6 341.3,39.3 333.7,57.8" />
<path stroke="#000000" stroke-width="2" d="M 348,70" />
<path stroke="#000000" stroke-width="2" d="M 348,30 363.3,67 378.6,30" />
<path stroke="#000000" stroke-width="2" d="M 408.6,70" />
<path stroke="#000000" stroke-width="2" d="M 428.6,30 413.3,67" />
<path stroke="#000000" stroke-width="2" d="M 435.3,70" />
<path stroke="#000000" stroke-width="2" d="M 435.3,30 450.6,67" />
<path stroke="#000000" stroke-width="2" d="M 480.6,70" />
<path stroke="#000000" stroke-width="2" d="M 490.6,30 489.7,30 488.8,30.1 488,30.2 487.1,30.5 486.3,30.8 485.5,31.1 484.8,31.6 484.1,32.1 483.4,32.6 482.8,33.2 482.2,33.9 481.7,34.6 481.3,35.4 480.9,36.2 480.6,37 480.4,37.8 480.2,38.7 480.2,39.6 480.2,40.4 480.2,41.3 480.4,42.2 480.6,43 480.9,43.8 481.3,44.6 481.7,45.4 482.2,46.1 482.8,46.7 483.4,47.4 484.1,47.9 484.8,48.4 485.5,48.9 486.3,49.2 487.1,49.5 488,49.8 488.8,49.9 489.7,50 494.7,50 494.7,70" />
<path stroke="#000000" stroke-width="2" d="M 524.7,70" />
<path stroke="#000000" stroke-width="2" d="M 534.7,30 527.1,48.5 527.1,68.5 532.7,62.8" />
<path stroke="#000000" stroke-width="2" d="M 541.4,70" />
<path stroke="#000000" stroke-width="2" d="M 541.4,50 541.6,50 541.6,50.2 541.4,50.2 541.4,50" />
<path stroke="#000000" stroke-width="2" d="M 571.6,70" />
<path stroke="#000000" stroke-width="2" d="M 571.6,30 586.9,67" />
<path stroke="#000000" stroke-width="2" d="M 593.6,70" />
<path stroke="#000000" stroke-width="2" d="M 593.6,30 633.6,30" />
<path stroke="#000000" stroke-width="2" d="M 640.2,70" />
<path stroke="#000000" stroke-width="2" d="M 640.2,55" />
<path stroke="#000000" stroke-width="2" d="M 640.2,55 642.2,54.9 643.9,54.6 645.1,54.1 646,53.6 646.5,52.9 646.8,52.2 646.9,51.4 646.7,50.7 646.3,50 645.8,49.4 645.2,48.9 644.5,48.5 643.8,48.3 643.1,48.4 642.3,48.7 641.7,49.2 641.1,50.1 640.6,51.4 640.3,53 640.2,55 640.2,70" />
<path stroke="#000000" stroke-width="2" d="M 676.9,70" />
<path stroke="#000000" stroke-width="2" d="M 676.9,30 716.9,30" />
<path stroke="#000000" stroke-width="2" d="M 746.9,70" />
<path stroke="#000000" stroke-width="2" d="M 746.9,70 747.1,70 747.1,70.2 746.9,70.2 746.9,70" />
<path stroke="#000000" stroke-width="2" d="M 753.7,70" />
<path stroke="#000000" stroke-width="2" d="M 753.7,70 769,33 769,73" />
<path stroke="#000000" stroke-width="2" d="M 775.7,70" />
<path stroke="#000000" stroke-width="2" d="M 775.7,40" />
<path stroke="#000000" stroke-width="2" d="M 775.7,40 779.8,39.8 783,39.2 785.5,38.3 787.2,37.1 788.4,35.8 788.9,34.3 789,32.8 788.7,31.4 788,30 787,28.8 785.7,27.7 784.4,27 782.9,26.7 781.4,26.8 779.9,27.3 778.6,28.5 777.4,30.2 776.5,32.7 775.9,35.9 775.7,40 775.7,70" />
<path stroke="#000000" stroke-width="2" d="M 819,70" />
<path stroke="#000000" stroke-width="2" d="M 819,30 839,30" />
<path stroke="#000000" stroke-width="2" d="M 839,30 840.4,30.1 841.7,30.6 842.8,31.2 843.8,32.1 844.6,33.1 845.3,34.3 845.8,35.6 846.2,37 846.4,38.5 846.5,40 846.4,41.5 846.2,43 845.8,44.4 845.3,45.7 844.6,46.9 843.8,47.9 842.8,48.8 841.7,49.4 840.4,49.9 839,50" />
<path stroke="#000000" stroke-width="2" d="M 876.5,70" />
<path stroke="#000000" stroke-width="2" d="M 876.5,70 876.7,70 876.7,70.2 876.5,70.2 876.5,70" />
<path stroke="#000000" stroke-width="2" d="M 883.4,70" />
<path stroke="#000000" stroke-width="2" d="M 883.4,30 883.4,70 883.4,58 883.4,56.3 883.5,54.5 883.8,52.8 884.3,51.1 884.9,49.5 885.6,47.9 886.5,46.4 887.5,45 888.6,43.6 889.9,42.4 891.2,41.3 892.6,40.3 894.1,39.4 895.7,38.7 897.4,38.1 899,37.6 900.8,37.3 902.5,37.1" />
<path stroke="#000000" stroke-width="2" d="M 909.2,70" />
<path stroke="#000000" stroke-width="2" d="M 909.2,50 916.8,68.5" />
<path stroke="#000000" stroke-width="2" d="M 946.8,70" />
<path stroke="#000000" stroke-width="2" d="M 946.8,70 947,70 947,70.2 946.8,70.2 946.8,70" />
<path stroke="#000000" stroke-width="2" d="M 977,70" />
</svg>