<svg xmlns="http://www.w3.org/2000/svg" width="1463.8551530111722" height="110.45072418838717" style="fill:none; stroke-linecap:round;">
    <rect width="100%" height="100%" fill="#FFFFFF" />
<path stroke="#000000" stroke-width="2" d="M 550,75" />
<path stroke="#000000" stroke-width="2" d="M 20,40" />
<path stroke="#000000" stroke-width="2" d="M 20,40 24.1,39.8 27.3,39.2 29.8,38.3 31.5,37.1 32.7,35.8 33.2,34.3 33.3,32.8 33,31.4 32.3,30 31.2,28.8 30,27.7 28.6,27 27.2,26.7 25.7,26.8 24.2,27.3 22.9,28.5 21.7,30.2 20.8,32.7 20.2,35.9 20,40 20,70" />
<path stroke="#000000" stroke-width="2" d="M 40,70" />
<path stroke="#000000" stroke-width="2" d="M 40,20 47.6,38.5 55.3,20" />
<path stroke="#000000" stroke-width="2" d="M 85.3,70" />
<path stroke="#000000" stroke-width="2" d="M 85.3,30 95.3,30 95.3,70" />
<path stroke="#000000" stroke-width="2" d="M 101.9,70" />
<path stroke="#000000" stroke-width="2" d="M 101.9,50 101.9,70 101.9,64 101.9,63.1 102,62.3 102.2,61.4 102.4,60.6 102.7,59.7 103.1,58.9 103.5,58.2 104,57.5 104.6,56.8 105.2,56.2 105.9,55.6 106.6,55.1 107.3,54.7 108.1,54.3 108.9,54 109.8,53.8 110.6,53.6 111.5,53.6" />
<path stroke="#000000" stroke-width="2" d="M 141.5,70" />
<path stroke="#000000" stroke-width="2" d="M 141.5,40 141.7,40 141.7,40.2 141.5,40.2 141.5,40" />
<path stroke="#000000" stroke-width="2" d="M 148.4,70" />
<path stroke="#000000" stroke-width="2" d="M 148.4,40" />
<path stroke="#000000" stroke-width="2" d="M 148.4,40 152.4,39.8 155.7,39.2 158.1,38.3 159.9,37.1 161,35.8 161.6,34.3 161.7,32.8 161.3,31.4 160.6,30 159.6,28.8 158.4,27.7 157,27 155.5,26.7 154,26.8 152.6,27.3 151.3,28.5 150.1,30.2 149.2,32.7 148.6,35.9 148.4,40 148.4,70" />
<path stroke="#000000" stroke-width="2" d="M 168.3,70" />
<path stroke="#000000" stroke-width="2" d="M 168.3,50 173.3,50 173.3,70 165.7,88.5" />
<path stroke="#000000" stroke-width="2" d="M 203.3,70" />
<path stroke="#000000" stroke-width="2" d="M 203.3,30 203.3,70 203.3,62 203.3,60.3 203.5,58.5 203.8,56.8 204.3,55.1 204.8,53.5 205.6,51.9 206.5,50.4 207.5,49 208.6,47.6 209.8,46.4 211.2,45.3 212.6,44.3" />
<path stroke="#000000" stroke-width="2" d="M 219.2,70" />
<path stroke="#000000" stroke-width="2" d="M 219.2,20 239.2,20 219.4,39.8 239.4,39.8" />
<path stroke="#000000" stroke-width="2" d="M 269.4,70" />
<path stroke="#000000" stroke-width="2" d="M 289.4,70 291.2,70 292.9,69.8 294.6,69.5 296.3,69.1 298,68.5 299.6,67.8 301.1,66.9 302.5,65.9 303.8,64.8 305.1,63.5 306.2,62.2 307.2,60.8 308.1,59.3 308.8,57.7 309.4,56 309.8,54.3 310.1,52.6 310.3,50.9 310.3,49.1 310.1,47.4 309.8,45.7 309.4,44 308.8,42.4 308.1,40.8 307.2,39.3 306.2,37.8 305.1,36.5 303.8,35.3 302.5,34.2 301.1,33.2 299.6,32.3 298,31.5 296.3,30.9 294.6,30.5 292.9,30.2 291.2,30 289.4,30 287.7,30.2 286,30.5 284.3,30.9 282.7,31.5 281.1,32.3 279.6,33.2 278.1,34.2 276.8,35.3 275.6,36.5 274.5,37.8 273.5,39.3 272.6,40.8 271.8,42.4 271.2,44 270.8,45.7 270.5,47.4 270.3,49.1 270.3,50.9 270.5,52.6 270.8,54.3 271.2,56 271.8,57.7 272.6,59.3 273.5,60.8 274.5,62.2 275.6,63.5 276.8,64.8 278.1,65.9 279.6,66.9 281.1,67.8 282.7,68.5 284.3,69.1 286,69.5 287.7,69.8 289.4,70" />
<path stroke="#000000" stroke-width="2" d="M 317,70" />
<path stroke="#000000" stroke-width="2" d="M 327,20 319.3,38.5" />
<path stroke="#000000" stroke-width="2" d="M 357,70" />
<path stroke="#000000" stroke-width="2" d="M 367,30 366.1,30 365.2,30.1 364.4,30.2 363.5,30.5 362.7,30.8 361.9,31.1 361.2,31.6 360.4,32.1 359.8,32.6 359.2,33.2 358.6,33.9 358.1,34.6 357.7,35.4 357.3,36.2 357,37 356.8,37.8 356.6,38.7 356.5,39.6 356.5,40.4 356.6,41.3 356.8,42.2 357,43 357.3,43.8 357.7,44.6 358.1,45.4 358.6,46.1 359.2,46.7 359.8,47.4 360.4,47.9 361.2,48.4 361.9,48.9 362.7,49.2 363.5,49.5 364.4,49.8 365.2,49.9 366.1,50 366.1,49.3 366.2,48.6 366.3,47.9 366.5,47.2 366.7,46.6 367,45.9 367.3,45.3 367.7,44.8 368.2,44.2 368.7,43.7 369.2,43.3 369.8,42.9 370.4,42.5 371,42.2 371.7,42 372.4,41.8 373,41.7 373.7,41.6 374.4,41.6 375.1,41.7 375.8,41.8 376.5,42 377.1,42.2 377.8,42.5 378.4,42.9 379,43.3 379.5,43.7 380,44.2 380.4,44.8 380.8,45.3 381.2,45.9 381.5,46.6 381.7,47.2 381.9,47.9 382,48.6 382.1,49.3" />
<path stroke="#000000" stroke-width="2" d="M 388.7,70" />
<path stroke="#000000" stroke-width="2" d="M 396.7,20 396.7,35" />
<path stroke="#000000" stroke-width="2" d="M 396.7,35 396.6,37 396.3,38.6 395.9,39.9 395.3,40.8 394.6,41.3 393.9,41.6 393.2,41.7 392.4,41.5 391.7,41.1 391.1,40.6 390.6,40 390.3,39.3 390.1,38.6 390.1,37.8 390.4,37.1 391,36.4 391.9,35.9 393.1,35.4 394.7,35.1 396.7,35 416.7,35" />
<path stroke="#000000" stroke-width="2" d="M 423.4,70" />
<path stroke="#000000" stroke-width="2" d="M 423.4,20 423.4,20.7 423.5,21.4 423.6,22.1 423.8,22.8 424,23.4 424.3,24 424.7,24.6 425.1,25.2 425.5,25.8 426,26.2 426.5,26.7 427.1,27.1 427.7,27.4 428.3,27.7 429,28 429.7,28.2 430.4,28.3 431.1,28.3 431.8,28.3 432.5,28.3 433.1,28.2 433.8,28 434.5,27.7 435.1,27.4 435.7,27.1 436.3,26.7 436.8,26.2 437.3,25.8 437.8,25.2 438.2,24.6 438.5,24 438.8,23.4 439,22.8 439.2,22.1 439.3,21.4 439.4,20.7" />
<path stroke="#000000" stroke-width="2" d="M 446.1,70" />
<path stroke="#000000" stroke-width="2" d="M 446.1,30 446.3,30 446.3,30.2 446.1,30.2 446.1,30" />
<path stroke="#000000" stroke-width="2" d="M 476.3,70" />
<path stroke="#000000" stroke-width="2" d="M 492.3,30 492.3,60" />
<path stroke="#000000" stroke-width="2" d="M 492.3,60 492.1,64.1 491.5,67.3 490.5,69.8 489.4,71.5 488,72.7 486.6,73.2 485.1,73.3 483.6,73 482.2,72.3 481,71.2 480,70 479.3,68.6 479,67.2 479,65.7 479.6,64.2 480.7,62.9 482.5,61.7 485,60.8 488.2,60.2 492.3,60" />
<path stroke="#000000" stroke-width="2" d="M 498.9,70" />
<path stroke="#000000" stroke-width="2" d="M 498.9,70 498.9,69.3 499,68.6 499.1,67.9 499.3,67.2 499.5,66.6 499.8,66 500.2,65.4 500.6,64.8 501,64.2 501.5,63.8 502.1,63.3 502.6,62.9 503.2,62.6 503.9,62.3 504.5,62 505.2,61.8 505.9,61.7 506.6,61.7 507.3,61.7 508,61.7 508.7,61.8 509.3,62 510,62.3 510.6,62.6 511.2,62.9 511.8,63.3 512.3,63.8 512.8,64.2 513.3,64.8 513.7,65.4 514,66 514.3,66.6 514.6,67.2 514.7,67.9 514.9,68.6 514.9,69.3" />
<path stroke="#000000" stroke-width="2" d="M 544.9,70" />
<path stroke="#000000" stroke-width="2" d="M 544.9,70 545.1,70 545.1,70.2 544.9,70.2 544.9,70" />
<path stroke="#000000" stroke-width="2" d="M 551.8,70" />
<path stroke="#000000" stroke-width="2" d="M 551.8,30 551.8,31.4 551.9,32.8 552.1,34.2 552.5,35.5 553,36.8 553.6,38.1 554.3,39.3 555.1,40.4 556,41.5 557,42.5 558,43.4 559.2,44.2 560.4,44.9 561.6,45.5 563,46 564.3,46.3 565.7,46.6 567.1,46.7 568.5,46.7 569.9,46.6 571.2,46.3 572.6,46 573.9,45.5 575.2,44.9 576.4,44.2 577.5,43.4 578.6,42.5 579.6,41.5 580.5,40.4 581.3,39.3 582,38.1 582.6,36.8 583,35.5 583.4,34.2 583.6,32.8 583.8,31.4" />
<path stroke="#000000" stroke-width="2" d="M 590.4,70" />
<path stroke="#000000" stroke-width="2" d="M 590.4,20 598.1,38.5 605.7,20" />
<path stroke="#000000" stroke-width="2" d="M 605.7,20 607.8,19.9 609.4,19.6 610.6,19.1 611.5,18.6 612.1,17.9 612.3,17.2 612.4,16.4 612.2,15.7 611.9,15 611.4,14.4 610.7,13.9 610,13.5 609.3,13.3 608.6,13.4 607.8,13.7 607.2,14.2 606.6,15.1 606.1,16.4 605.8,18 605.7,20 605.7,35" />
<path stroke="#000000" stroke-width="2" d="M 642.4,70" />
<path stroke="#000000" stroke-width="2" d="M 652.4,30 651.5,30 650.6,30.1 649.8,30.2 648.9,30.5 648.1,30.8 647.3,31.1 646.6,31.6 645.9,32.1 645.2,32.6 644.6,33.2 644,33.9 643.5,34.6 643.1,35.4 642.7,36.2 642.4,37 642.2,37.8 642,38.7 642,39.6 642,40.4 642,41.3 642.2,42.2 642.4,43 642.7,43.8 643.1,44.6 643.5,45.4 644,46.1 644.6,46.7 645.2,47.4 645.9,47.9 646.6,48.4 647.3,48.9 648.1,49.2 648.9,49.5 649.8,49.8 650.6,49.9 651.5,50 656.5,50 656.5,70" />
<path stroke="#000000" stroke-width="2" d="M 686.5,70" />
<path stroke="#000000" stroke-width="2" d="M 686.5,70 686.7,70 686.7,70.2 686.5,70.2 686.5,70" />
<path stroke="#000000" stroke-width="2" d="M 693.4,70" />
<path stroke="#000000" stroke-width="2" d="M 713.4,30 698.1,67 702.7,55.9 703.3,54.3 704.1,52.7 705.1,51.2 706.1,49.9 707.3,48.6 708.6,47.4 710,46.3 711.5,45.4 713,44.6 714.6,43.9 716.3,43.4 718,43" />
<path stroke="#000000" stroke-width="2" d="M 724.6,70" />
<path stroke="#000000" stroke-width="2" d="M 724.6,20 724.8,20 724.8,20.2 724.6,20.2 724.6,20" />
<path stroke="#000000" stroke-width="2" d="M 754.8,70" />
<path stroke="#000000" stroke-width="2" d="M 754.8,30 774.8,30 775.7,30 776.6,30.1 777.4,30.2 778.3,30.5 779.1,30.8 779.9,31.1 780.7,31.6 781.4,32.1 782,32.6 782.7,33.2 783.2,33.9 783.7,34.6 784.2,35.4 784.5,36.2 784.8,37 785,37.8 785.2,38.7 785.3,39.6 785.3,40.4 785.2,41.3 785,42.2 784.8,43 784.5,43.8 784.2,44.6 783.7,45.4 783.2,46.1 782.7,46.7 782,47.4 781.4,47.9 780.7,48.4 779.9,48.9 779.1,49.2 778.3,49.5 777.4,49.8 776.6,49.9 775.7,50" />
<path stroke="#000000" stroke-width="2" d="M 815.3,70" />
<path stroke="#000000" stroke-width="2" d="M 835.3,30 833.5,30 831.8,30.2 830.1,30.5 828.4,30.9 826.7,31.5 825.2,32.2 823.7,33.1 822.2,34.1 820.9,35.2 819.7,36.5 818.5,37.8 817.5,39.2 816.7,40.7 815.9,42.3 815.3,44 814.9,45.7 814.6,47.4 814.4,49.1 814.4,50.9 814.6,52.6 814.9,54.3 815.3,56 815.9,57.6 816.7,59.2 817.5,60.7 818.5,62.2 819.7,63.5 820.9,64.7 822.2,65.8 823.7,66.8 825.2,67.7 826.7,68.5 828.4,69.1 830.1,69.5 831.8,69.8 833.5,70 837.4,79.2" />
<path stroke="#000000" stroke-width="2" d="M 837.4,79.2 839.3,81.3 840.6,83.3 841.4,84.9 841.7,86.4 841.6,87.6 841.1,88.7 840.4,89.4 839.5,90 838.5,90.3 837.4,90.5 836.2,90.3 835.2,90 834.3,89.4 833.6,88.7 833.1,87.6 833,86.4 833.3,84.9 834.1,83.3 835.4,81.3 837.4,79.2 841.2,70 841.2,90 841.2,84 841.2,83.1 841.3,82.2 841.4,81.4 841.6,80.5 841.9,79.7 842.3,78.9 842.7,78.2 843.2,77.4 843.8,76.8 844.4,76.2 845.1,75.6 845.8,75.1 846.6,74.7 847.3,74.3 848.2,74 849,73.8 849.9,73.6 850.7,73.5" />
<path stroke="#000000" stroke-width="2" d="M 880.7,70" />
<path stroke="#000000" stroke-width="2" d="M 880.7,30 880.7,50 880.7,70 880.7,64 880.7,63.1 880.8,62.3 881,61.4 881.2,60.6 881.5,59.7 881.9,58.9 882.3,58.2 882.8,57.5 883.4,56.8 884,56.2 884.6,55.6 885.4,55.1 886.1,54.7 886.9,54.3 887.7,54 888.6,53.8 889.4,53.6 890.3,53.6" />
<path stroke="#000000" stroke-width="2" d="M 897,70" />
<path stroke="#000000" stroke-width="2" d="M 909,26 909,26.5 908.9,27 908.8,27.6 908.7,28.1 908.5,28.6 908.3,29 908,29.5 907.7,29.9 907.4,30.3 907,30.7 906.6,31 906.2,31.3 905.7,31.6 905.3,31.8 904.8,32 904.3,32.1 903.7,32.2 903.2,32.3 902.7,32.3 902.2,32.2 901.7,32.1 901.2,32 900.7,31.8 900.2,31.6 899.7,31.3 899.3,31 898.9,30.7 898.5,30.3 898.2,29.9 897.9,29.5 897.6,29 897.4,28.6 897.2,28.1 897.1,27.6 897,27 897,26.5 897,26 897,25.5 897.1,25 897.2,24.5 897.4,24 897.6,23.5 897.9,23 898.2,22.6 898.5,22.2 898.9,21.8 899.3,21.5 899.7,21.2 900.2,20.9 900.7,20.7 901.2,20.5 901.7,20.4 902.2,20.3 902.7,20.3 903.2,20.3 903.7,20.3 904.3,20.4 904.8,20.5 905.3,20.7 905.7,20.9 906.2,21.2 906.6,21.5 907,21.8 907.4,22.2 907.7,22.6 908,23 908.3,23.5 908.5,24 908.7,24.5 908.8,25 908.9,25.5 909,26 909,30" />
<path stroke="#000000" stroke-width="2" d="M 909,30 908.6,30.9 908.3,31.7 907.9,32.4 907.5,33.1 907.1,33.8 906.7,34.4 906.2,34.9 905.7,35.4 905.2,35.9 904.7,36.2 904.2,36.6 903.6,36.9 903.1,37.2 902.5,37.4 901.9,37.6 901.3,37.7 900.8,37.9 900.2,37.9 899.6,38 899,38" />
<path stroke="#000000" stroke-width="2" d="M 939,70" />
<path stroke="#000000" stroke-width="2" d="M 939,70" />
<path stroke="#000000" stroke-width="2" d="M 939,70 940.1,70 941.1,70.2 941.9,70.4 942.6,70.7 943.2,71 943.6,71.5 943.9,71.9 944.1,72.5 944.2,73.1 944.2,73.8 944.1,74.4 943.9,75.2 943.5,76 943.1,76.8 942.6,77.6 942,78.4 941.4,79.3 940.6,80.2 939.8,81.1 939,82" />
<path stroke="#000000" stroke-width="2" d="M 974.2,70" />
<path stroke="#000000" stroke-width="2" d="M 974.2,30 974.2,70 985.5,58.7" />
<path stroke="#000000" stroke-width="2" d="M 992.2,70" />
<path stroke="#000000" stroke-width="2" d="M 992.2,20 992.4,20 992.4,20.2 992.2,20.2 992.2,20" />
<path stroke="#000000" stroke-width="2" d="M 1022.4,70" />
<path stroke="#000000" stroke-width="2" d="M 1022.4,40" />
<path stroke="#000000" stroke-width="2" d="M 1022.4,40 1026.5,39.8 1029.7,39.2 1032.2,38.3 1033.9,37.1 1035.1,35.8 1035.6,34.3 1035.7,32.8 1035.4,31.4 1034.7,30 1033.7,28.8 1032.4,27.7 1031.1,27 1029.6,26.7 1028.1,26.8 1026.6,27.3 1025.3,28.5 1024.1,30.2 1023.2,32.7 1022.6,35.9 1022.4,40 1022.4,70" />
<path stroke="#000000" stroke-width="2" d="M 1042.4,70" />
<path stroke="#000000" stroke-width="2" d="M 1052.4,20 1044.7,38.5" />
<path stroke="#000000" stroke-width="2" d="M 1082.4,70" />
<path stroke="#000000" stroke-width="2" d="M 1082.4,30 1122.4,30" />
<path stroke="#000000" stroke-width="2" d="M 1152.4,70" />
<path stroke="#000000" stroke-width="2" d="M 1152.4,30 1154.1,30 1155.9,30.2 1157.6,30.5 1159.3,30.9 1160.9,31.5 1162.5,32.2 1164,33.1 1165.4,34.1 1166.8,35.2 1168,36.5 1169.1,37.8 1170.1,39.2 1171,40.7 1171.7,42.3 1172.3,44 1172.8,45.7 1173.1,47.4 1173.2,49.1 1173.2,50.9 1173.1,52.6 1172.8,54.3 1172.3,56 1171.7,57.6 1171,59.2 1170.1,60.7 1169.1,62.2 1168,63.5 1166.8,64.7 1165.4,65.8 1164,66.8 1162.5,67.7 1160.9,68.5 1159.3,69.1 1157.6,69.5 1155.9,69.8 1154.1,70" />
<path stroke="#000000" stroke-width="2" d="M 1179.9,70" />
<path stroke="#000000" stroke-width="2" d="M 1179.9,20 1180.8,20 1181.6,20.1 1182.5,20.2 1183.3,20.5 1184.2,20.8 1185,21.1 1185.7,21.6 1186.4,22.1 1187.1,22.6 1187.7,23.2 1188.3,23.9 1188.8,24.6 1189.2,25.4 1189.6,26.2 1189.9,27 1190.1,27.8 1190.3,28.7 1190.3,29.6 1190.3,30.4 1190.3,31.3 1190.1,32.2 1189.9,33 1189.6,33.8 1189.2,34.6 1188.8,35.4 1188.3,36.1 1187.7,36.7 1187.1,37.4 1186.4,37.9 1185.7,38.4 1185,38.9 1184.2,39.2 1183.3,39.5 1182.5,39.8 1181.6,39.9 1180.8,40" />
<path stroke="#000000" stroke-width="2" d="M 1220.3,70" />
<path stroke="#000000" stroke-width="2" d="M 1220.3,40" />
<path stroke="#000000" stroke-width="2" d="M 1220.3,40 1224.4,39.8 1227.6,39.2 1230.1,38.3 1231.9,37.1 1233,35.8 1233.6,34.3 1233.6,32.8 1233.3,31.4 1232.6,30 1231.6,28.7 1230.4,27.7 1229,27 1227.5,26.7 1226,26.8 1224.6,27.3 1223.2,28.5 1222.1,30.2 1221.1,32.7 1220.5,35.9 1220.3,40 1220.3,70" />
<path stroke="#000000" stroke-width="2" d="M 1240.3,70" />
<path stroke="#000000" stroke-width="2" d="M 1240.3,30 1240.3,31.4 1240.4,32.8 1240.7,34.2 1241,35.5 1241.5,36.8 1242.1,38.1 1242.8,39.3 1243.6,40.4 1244.5,41.5 1245.5,42.5 1246.6,43.4 1247.7,44.2 1248.9,44.9 1250.2,45.5 1251.5,46 1252.8,46.3 1254.2,46.6 1255.6,46.7 1257,46.7 1258.4,46.6 1259.8,46.3 1261.1,46 1262.4,45.5 1263.7,44.9 1264.9,44.2 1266,43.4 1267.1,42.5 1268.1,41.5 1269,40.4 1269.8,39.3 1270.5,38.1 1271.1,36.8 1271.6,35.5 1271.9,34.2 1272.2,32.8 1272.3,31.4" />
<path stroke="#000000" stroke-width="2" d="M 1278.9,70" />
<path stroke="#000000" stroke-width="2" d="M 1278.9,20 1298.9,20" />
<path stroke="#000000" stroke-width="2" d="M 1298.9,20 1301,19.9 1302.6,19.6 1303.8,19.1 1304.7,18.6 1305.3,17.9 1305.6,17.2 1305.6,16.4 1305.4,15.7 1305.1,15 1304.6,14.4 1304,13.9 1303.3,13.5 1302.5,13.3 1301.8,13.4 1301.1,13.7 1300.4,14.2 1299.8,15.1 1299.4,16.4 1299.1,18 1298.9,20 1298.9,35" />
<path stroke="#000000" stroke-width="2" d="M 1335.6,70" />
<path stroke="#000000" stroke-width="2" d="M 1335.6,70 1335.8,70 1335.8,70.2 1335.6,70.2 1335.6,70" />
<path stroke="#000000" stroke-width="2" d="M 1365.8,70" />
<path stroke="#000000" stroke-width="2" d="M 1365.8,30 1365.8,50 1375.8,50 1368.1,68.5" />
<path stroke="#000000" stroke-width="2" d="M 1405.8,70" />
<path stroke="#000000" stroke-width="2" d="M 1405.8,40" />
<path stroke="#000000" stroke-width="2" d="M 1405.8,40 1409.9,39.8 1413.1,39.2 1415.6,38.3 1417.3,37.1 1418.5,35.8 1419,34.3 1419.1,32.8 1418.8,31.4 1418.1,30 1417,28.7 1415.8,27.7 1414.4,27 1413,26.7 1411.5,26.8 1410,27.3 1408.7,28.5 1407.5,30.2 1406.6,32.7 1406,35.9 1405.8,40 1405.8,70" />
<path stroke="#000000" stroke-width="2" d="M 1425.8,70" />
<path stroke="#000000" stroke-width="2" d="M 1425.8,20 1433.4,38.5 1434.3,38.5 1435.2,38.6 1436,38.7 1436.9,38.9 1437.7,39.2 1438.5,39.6 1439.2,40 1440,40.5 1440.6,41.1 1441.2,41.7 1441.8,42.4 1442.3,43.1 1442.7,43.9 1443.1,44.6 1443.4,45.5 1443.6,46.3 1443.8,47.2 1443.9,48 1443.9,48.9 1443.8,49.8 1443.6,50.6 1443.4,51.5 1443.1,52.3 1442.7,53.1 1442.3,53.8 1441.8,54.6 1441.2,55.2 1440.6,55.8 1440,56.4 1439.2,56.9 1438.5,57.3 1437.7,57.7 1436.9,58 1436,58.2 1435.2,58.4 1434.3,58.5" />
<path stroke="#000000" stroke-width="2" d="M 1473.9,70" />
</svg>