<svg xmlns="http://www.w3.org/2000/svg" width="1365.4602367095447" height="108.47759065022574" style="fill:none; stroke-linecap:round;">
    <rect width="100%" height="100%" fill="#FFFFFF" />
<path stroke="#000000" stroke-width="2" d="M 550,75" />
<path stroke="#000000" stroke-width="2" d="M 20,40 20.2,40 20.2,40.2 20,40.2 20,40" />
<path stroke="#000000" stroke-width="2" d="M 26.9,70" />
<path stroke="#000000" stroke-width="2" d="M 26.9,50 34.5,31.5 34.5,32.2 34.6,32.9 34.7,33.6 34.9,34.3 35.1,34.9 35.4,35.6 35.8,36.2 36.2,36.7 36.6,37.3 37.1,37.8 37.6,38.2 38.2,38.6 38.8,39 39.5,39.3 40.1,39.5 40.8,39.7 41.5,39.8 42.2,39.9 42.9,39.9 43.6,39.8 44.2,39.7 44.9,39.5 45.6,39.3 46.2,39 46.8,38.6 47.4,38.2 47.9,37.8 48.4,37.3 48.9,36.7 49.3,36.2 49.6,35.6 49.9,34.9 50.1,34.3 50.3,33.6 50.4,32.9 50.5,32.2 58.2,50.7" />
<path stroke="#000000" stroke-width="2" d="M 64.8,70" />
<path stroke="#000000" stroke-width="2" d="M 64.8,55" />
<path stroke="#000000" stroke-width="2" d="M 64.8,55 66.9,54.9 68.5,54.6 69.7,54.1 70.6,53.6 71.2,52.9 71.4,52.2 71.5,51.4 71.3,50.7 71,50 70.5,49.4 69.8,48.9 69.1,48.5 68.4,48.3 67.7,48.4 66.9,48.7 66.3,49.2 65.7,50.1 65.2,51.4 64.9,53 64.8,55 64.8,70 57.2,88.5" />
<path stroke="#000000" stroke-width="2" d="M 101.5,70" />
<path stroke="#000000" stroke-width="2" d="M 117.5,30 97.7,49.8 117.5,69.6" />
<path stroke="#000000" stroke-width="2" d="M 124.1,70" />
<path stroke="#000000" stroke-width="2" d="M 124.1,50 124.1,70 124.1,64 124.1,63.1 124.2,62.3 124.4,61.4 124.6,60.6 124.9,59.7 125.3,58.9 125.7,58.2 126.2,57.5 126.8,56.8 127.4,56.2 128,55.6 128.8,55.1 129.5,54.7 130.3,54.3 131.1,54 132,53.8 132.8,53.6 133.7,53.6 126,72.1" />
<path stroke="#000000" stroke-width="2" d="M 163.7,70" />
<path stroke="#000000" stroke-width="2" d="M 183.7,30 163.9,49.8" />
<path stroke="#000000" stroke-width="2" d="M 163.9,29.8 183.7,49.6" />
<path stroke="#000000" stroke-width="2" d="M 183.7,49.6 183.6,51.6 183.3,53.2 182.8,54.5 182.3,55.4 181.6,55.9 180.9,56.2 180.1,56.3 179.4,56.1 178.7,55.7 178.1,55.2 177.6,54.6 177.2,53.9 177,53.2 177.1,52.4 177.4,51.7 177.9,51 178.8,50.5 180.1,50 181.7,49.7 183.7,49.6 187.7,49.6" />
<path stroke="#000000" stroke-width="2" d="M 187.7,49.6 188.6,49.9 189.4,50.3 190.1,50.6 190.8,51 191.5,51.4 192.1,51.9 192.6,52.3 193.1,52.8 193.6,53.3 194,53.8 194.3,54.4 194.6,54.9 194.9,55.5 195.1,56.1 195.3,56.6 195.4,57.2 195.6,57.8 195.6,58.4 195.7,59 195.7,59.6" />
<path stroke="#000000" stroke-width="2" d="M 202.4,70" />
<path stroke="#000000" stroke-width="2" d="M 210.4,20 210.4,35" />
<path stroke="#000000" stroke-width="2" d="M 210.4,35 210.3,37 210,38.6 209.5,39.9 208.9,40.8 208.3,41.3 207.5,41.6 206.8,41.7 206,41.5 205.4,41.1 204.7,40.6 204.2,40 203.9,39.3 203.7,38.6 203.8,37.8 204,37.1 204.6,36.4 205.5,35.9 206.7,35.4 208.3,35.1 210.4,35 230.4,35" />
<path stroke="#000000" stroke-width="2" d="M 260.4,70" />
<path stroke="#000000" stroke-width="2" d="M 260.4,30 260.4,38 260.4,39 260.5,40.1 260.6,41.1 260.9,42.1 261.3,43.1 261.7,44.1 262.2,45 262.8,45.8 263.5,46.6 264.2,47.4 265.1,48 265.9,48.6 266.8,49.2 267.8,49.6 268.7,50 269.8,50.2 270.8,50.4 271.8,50.5 272.9,50.5 273.9,50.4 275,50.2 276,50 276.9,49.6 277.9,49.2 278.8,48.6 279.7,48 280.5,47.4 281.2,46.6 281.9,45.8 282.5,45 283,44.1 283.4,43.1 283.8,42.1 284.1,41.1 284.3,40.1 284.3,39 284.3,29 284.3,69 284.3,67.3 284.5,65.6 284.8,63.8 285.3,62.2 285.8,60.5 286.6,58.9 287.5,57.4 288.5,56 289.6,54.7 290.8,53.4 292.2,52.3 293.6,51.3 295.1,50.4 296.7,49.7 298.3,49.1 300,48.6 301.7,48.3 303.5,48.2" />
<path stroke="#000000" stroke-width="2" d="M 310.1,70" />
<path stroke="#000000" stroke-width="2" d="M 310.1,20 310.1,40 315.8,34.3" />
<path stroke="#000000" stroke-width="2" d="M 345.8,70" />
<path stroke="#000000" stroke-width="2" d="M 355.8,30 354.9,30 354,30.1 353.2,30.2 352.3,30.5 351.5,30.8 350.7,31.1 350,31.6 349.3,32.1 348.6,32.6 348,33.2 347.4,33.9 346.9,34.6 346.5,35.4 346.1,36.2 345.8,37 345.6,37.8 345.4,38.7 345.4,39.6 345.4,40.4 345.4,41.3 345.6,42.2 345.8,43 346.1,43.8 346.5,44.6 346.9,45.4 347.4,46.1 348,46.7 348.6,47.4 349.3,47.9 350,48.4 350.7,48.9 351.5,49.2 352.3,49.5 353.2,49.8 354,49.9 354.9,50 374.9,50" />
<path stroke="#000000" stroke-width="2" d="M 404.9,70" />
<path stroke="#000000" stroke-width="2" d="M 420.9,30 401.1,49.8 420.9,69.6" />
<path stroke="#000000" stroke-width="2" d="M 427.6,70" />
<path stroke="#000000" stroke-width="2" d="M 427.6,20 427.6,40 427.6,34 427.6,33.1 427.6,32.3 427.8,31.4 428,30.6 428.3,29.7 428.7,28.9 429.1,28.2 429.6,27.5 430.2,26.8 430.8,26.2 431.5,25.6 432.2,25.1 432.9,24.7 433.7,24.3 434.6,24 435.4,23.8 436.3,23.6 437.1,23.6" />
<path stroke="#000000" stroke-width="2" d="M 467.1,70" />
<path stroke="#000000" stroke-width="2" d="M 467.1,70 478.6,42.3" />
<path stroke="#000000" stroke-width="2" d="M 478.6,42.3 482.7,42.1 485.9,41.5 488.4,40.6 490.1,39.4 491.3,38.1 491.8,36.6 491.9,35.1 491.6,33.6 490.9,32.3 489.9,31 488.6,30 487.2,29.3 485.8,29 484.3,29.1 482.8,29.6 481.5,30.8 480.3,32.5 479.4,35 478.8,38.2 478.6,42.3 478.6,72.3" />
<path stroke="#000000" stroke-width="2" d="M 521.9,70" />
<path stroke="#000000" stroke-width="2" d="M 521.9,70 522.1,70 522.1,70.2 521.9,70.2 521.9,70" />
<path stroke="#000000" stroke-width="2" d="M 528.8,70" />
<path stroke="#000000" stroke-width="2" d="M 548.8,70 550.5,70 552.3,69.8 554,69.5 555.7,69.1 557.3,68.5 558.9,67.8 560.4,66.9 561.8,65.9 563.2,64.8 564.4,63.5 565.5,62.2 566.5,60.8 567.4,59.3 568.1,57.7 568.7,56 569.2,54.3 569.5,52.6 569.6,50.9 569.6,49.1 569.5,47.4 569.2,45.7 568.7,44 568.1,42.4 567.4,40.8 566.5,39.3 565.5,37.8 564.4,36.5 563.2,35.3 561.8,34.2 560.4,33.2 558.9,32.3 557.3,31.5 555.7,30.9 554,30.5 552.3,30.2 550.5,30 548.8,30 547,30.2 545.3,30.5 543.6,30.9 542,31.5 540.4,32.3 538.9,33.2 537.5,34.2 536.1,35.3 534.9,36.5 533.8,37.8 532.8,39.3 531.9,40.8 531.2,42.4 530.6,44 530.1,45.7 529.8,47.4 529.7,49.1 529.7,50.9 529.8,52.6 530.1,54.3 530.6,56 531.2,57.7 531.9,59.3 532.8,60.8 533.8,62.2 534.9,63.5 536.1,64.8 537.5,65.9 538.9,66.9 540.4,67.8 542,68.5 543.6,69.1 545.3,69.5 547,69.8 548.8,70" />
<path stroke="#000000" stroke-width="2" d="M 576.3,70" />
<path stroke="#000000" stroke-width="2" d="M 586.3,50 578.6,68.5" />
<path stroke="#000000" stroke-width="2" d="M 578.6,68.5 580.7,68.4 582.3,68.1 583.5,67.6 584.4,67 585,66.4 585.3,65.6 585.3,64.9 585.1,64.2 584.8,63.5 584.3,62.9 583.7,62.4 583,62 582.2,61.8 581.5,61.9 580.8,62.1 580.1,62.7 579.5,63.6 579.1,64.8 578.8,66.4 578.6,68.5 578.6,83.5" />
<path stroke="#000000" stroke-width="2" d="M 616.3,70" />
<path stroke="#000000" stroke-width="2" d="M 616.3,30 616.3,70 627.6,58.7" />
<path stroke="#000000" stroke-width="2" d="M 634.3,70" />
<path stroke="#000000" stroke-width="2" d="M 634.3,20 634.3,40 634.3,34 634.3,33.1 634.4,32.3 634.5,31.4 634.7,30.6 635,29.7 635.4,28.9 635.8,28.2 636.3,27.5 636.9,26.8 637.5,26.2 638.2,25.6 638.9,25.1 639.7,24.7 640.4,24.3 641.3,24 642.1,23.8 643,23.6 643.8,23.6" />
<path stroke="#000000" stroke-width="2" d="M 673.8,70" />
<path stroke="#000000" stroke-width="2" d="M 673.8,30 673.8,70 673.8,58 673.8,56.3 674,54.5 674.3,52.8 674.7,51.1 675.3,49.5 676.1,47.9 676.9,46.4 677.9,45 679.1,43.6 680.3,42.4 681.6,41.3 683.1,40.3 684.6,39.4 686.2,38.7 687.8,38.1 689.5,37.6 691.2,37.3 692.9,37.1" />
<path stroke="#000000" stroke-width="2" d="M 699.6,70" />
<path stroke="#000000" stroke-width="2" d="M 699.6,50 719.6,50" />
<path stroke="#000000" stroke-width="2" d="M 719.6,50 717.6,49.9 716,49.6 714.7,49.1 713.9,48.6 713.3,47.9 713,47.2 713,46.4 713.1,45.7 713.5,45 714,44.4 714.6,43.9 715.3,43.5 716,43.3 716.8,43.4 717.5,43.7 718.2,44.2 718.8,45.1 719.2,46.4 719.5,48 719.6,50 719.6,54" />
<path stroke="#000000" stroke-width="2" d="M 719.6,54 719.3,54.9 719,55.7 718.6,56.4 718.2,57.1 717.8,57.8 717.3,58.4 716.9,58.9 716.4,59.4 715.9,59.9 715.4,60.2 714.8,60.6 714.3,60.9 713.7,61.2 713.2,61.4 712.6,61.6 712,61.7 711.4,61.9 710.8,61.9 710.2,62 709.6,62" />
<path stroke="#000000" stroke-width="2" d="M 749.6,70" />
<path stroke="#000000" stroke-width="2" d="M 759.6,50 760.5,50 761.4,49.9 762.2,49.8 763.1,49.5 763.9,49.2 764.7,48.9 765.4,48.4 766.1,47.9 766.8,47.4 767.4,46.8 768,46.1 768.5,45.4 768.9,44.6 769.3,43.8 769.6,43 769.8,42.2 770,41.3 770,40.4 770,39.6 770,38.7 769.8,37.8 769.6,37 769.3,36.2 768.9,35.4 768.5,34.6 768,33.9 767.4,33.3 766.8,32.6 766.1,32.1 765.4,31.6 764.7,31.1 763.9,30.8 763.1,30.5 762.2,30.2 761.4,30.1 760.5,30 759.6,30 758.7,30.1 757.9,30.2 757,30.5 756.2,30.8 755.4,31.1 754.7,31.6 754,32.1 753.3,32.6 752.7,33.3 752.1,33.9 751.6,34.6 751.2,35.4 750.8,36.2 750.5,37 750.3,37.8 750.1,38.7 750.1,39.6 750.1,40.4 750.1,41.3 750.3,42.2 750.5,43 750.8,43.8 751.2,44.6 751.6,45.4 752.1,46.1 752.7,46.8 753.3,47.4 754,47.9 754.7,48.4 755.4,48.9 756.2,49.2 757,49.5 757.9,49.8 758.7,49.9 759.6,50 759.6,70 759.6,64 759.6,63.1 759.7,62.3 759.8,61.4 760.1,60.6 760.4,59.7 760.7,58.9 761.2,58.2 761.7,57.5 762.2,56.8 762.8,56.2 763.5,55.6 764.2,55.1 765,54.7 765.8,54.3 766.6,54 767.4,53.8 768.3,53.6 769.2,53.6" />
<path stroke="#000000" stroke-width="2" d="M 776.7,70" />
<path stroke="#000000" stroke-width="2" d="M 776.7,50 776.9,50 776.9,50.2 776.7,50.2 776.7,50" />
<path stroke="#000000" stroke-width="2" d="M 806.9,70" />
<path stroke="#000000" stroke-width="2" d="M 806.9,30 822.2,67" />
<path stroke="#000000" stroke-width="2" d="M 828.9,70" />
<path stroke="#000000" stroke-width="2" d="M 844.9,30 825.1,49.8 844.9,69.6" />
<path stroke="#000000" stroke-width="2" d="M 851.5,70" />
<path stroke="#000000" stroke-width="2" d="M 851.5,20" />
<path stroke="#000000" stroke-width="2" d="M 851.5,20 853,20.1 854.2,20.6 855.4,21.2 856.3,22.1 857.2,23.1 857.8,24.3 858.4,25.6 858.7,27 859,28.5 859,30 859,31.5 858.7,33 858.4,34.4 857.8,35.7 857.2,36.9 856.3,37.9 855.4,38.8 854.2,39.4 853,39.9 851.5,40" />
<path stroke="#000000" stroke-width="2" d="M 889,70" />
<path stroke="#000000" stroke-width="2" d="M 889,70 889.2,70 889.2,70.2 889,70.2 889,70" />
<path stroke="#000000" stroke-width="2" d="M 919.2,70" />
<path stroke="#000000" stroke-width="2" d="M 935.2,30 935.2,60" />
<path stroke="#000000" stroke-width="2" d="M 935.2,60 935,64.1 934.4,67.3 933.5,69.8 932.4,71.5 931,72.7 929.6,73.2 928.1,73.3 926.6,73 925.2,72.3 924,71.2 923,70 922.3,68.6 921.9,67.2 922,65.7 922.6,64.2 923.7,62.9 925.5,61.7 928,60.8 931.2,60.2 935.2,60" />
<path stroke="#000000" stroke-width="2" d="M 941.9,70" />
<path stroke="#000000" stroke-width="2" d="M 941.9,25" />
<path stroke="#000000" stroke-width="2" d="M 941.9,25 943.9,24.9 945.6,24.6 946.8,24.1 947.7,23.6 948.2,22.9 948.5,22.2 948.6,21.4 948.4,20.7 948,20 947.5,19.4 946.9,18.9 946.2,18.5 945.5,18.3 944.7,18.4 944,18.7 943.4,19.2 942.8,20.1 942.3,21.4 942,23 941.9,25 941.9,40" />
<path stroke="#000000" stroke-width="2" d="M 955.2,70" />
<path stroke="#000000" stroke-width="2" d="M 955.2,20 962.9,38.5" />
<path stroke="#000000" stroke-width="2" d="M 962.9,38.5 960.9,38.4 959.2,38.1 958,37.6 957.1,37 956.6,36.4 956.3,35.6 956.2,34.9 956.4,34.2 956.8,33.5 957.3,32.9 957.9,32.4 958.6,32 959.3,31.8 960.1,31.9 960.8,32.1 961.4,32.7 962,33.6 962.5,34.8 962.8,36.4 962.9,38.5 962.9,42.5" />
<path stroke="#000000" stroke-width="2" d="M 962.9,42.5 962.6,43.3 962.2,44.2 961.9,44.9 961.5,45.6 961,46.3 960.6,46.9 960.1,47.4 959.7,47.9 959.2,48.3 958.6,48.7 958.1,49.1 957.6,49.4 957,49.7 956.4,49.9 955.9,50.1 955.3,50.2 954.7,50.3 954.1,50.4 953.5,50.5 952.9,50.5 952.9,51.2 952.9,51.9 953.1,52.6 953.2,53.2 953.5,53.9 953.8,54.5 954.1,55.1 954.5,55.7 955,56.2 955.5,56.7 956,57.2 956.6,57.6 957.2,57.9 957.8,58.2 958.5,58.5 959.1,58.6 959.8,58.8 960.5,58.8 961.2,58.8 961.9,58.8 962.6,58.6 963.3,58.5 963.9,58.2 964.6,57.9 965.2,57.6 965.7,57.2 966.3,56.7 966.8,56.2 967.2,55.7 967.6,55.1 968,54.5 968.3,53.9 968.5,53.2 968.7,52.6 968.8,51.9 968.9,51.2" />
<path stroke="#000000" stroke-width="2" d="M 975.5,70" />
<path stroke="#000000" stroke-width="2" d="M 975.5,30 975.7,30 975.7,30.2 975.5,30.2 975.5,30" />
<path stroke="#000000" stroke-width="2" d="M 1005.7,70" />
<path stroke="#000000" stroke-width="2" d="M 1005.7,40" />
<path stroke="#000000" stroke-width="2" d="M 1005.7,40 1009.8,39.8 1013,39.2 1015.5,38.3 1017.3,37.1 1018.4,35.8 1019,34.3 1019,32.8 1018.7,31.4 1018,30 1017,28.8 1015.8,27.7 1014.4,27 1012.9,26.7 1011.4,26.8 1010,27.3 1008.6,28.5 1007.5,30.2 1006.5,32.7 1006,35.9 1005.7,40 1005.7,70" />
<path stroke="#000000" stroke-width="2" d="M 1025.7,70" />
<path stroke="#000000" stroke-width="2" d="M 1025.7,20 1025.7,40 1031.4,34.3" />
<path stroke="#000000" stroke-width="2" d="M 1061.4,70" />
<path stroke="#000000" stroke-width="2" d="M 1061.4,30 1076.7,67" />
<path stroke="#000000" stroke-width="2" d="M 1083.3,70" />
<path stroke="#000000" stroke-width="2" d="M 1083.3,30" />
<path stroke="#000000" stroke-width="2" d="M 1083.3,30 1084.8,30.1 1086,30.6 1087.2,31.2 1088.1,32.1 1089,33.1 1089.6,34.3 1090.2,35.6 1090.5,37 1090.8,38.5 1090.8,40 1090.8,41.5 1090.5,43 1090.2,44.4 1089.6,45.7 1089,46.9 1088.1,47.9 1087.2,48.8 1086,49.4 1084.8,49.9 1083.3,50" />
<path stroke="#000000" stroke-width="2" d="M 1083.3,40" />
<path stroke="#000000" stroke-width="2" d="M 1087.3,40 1097.3,40 1089.7,58.5 1092,52.9 1092.3,52.1 1092.7,51.4 1093.2,50.6 1093.7,49.9 1094.3,49.3 1095,48.7 1095.6,48.2 1096.4,47.7 1097.2,47.3 1098,47 1098.8,46.7 1099.6,46.5" />
<path stroke="#000000" stroke-width="2" d="M 1106.3,70" />
<path stroke="#000000" stroke-width="2" d="M 1106.3,25" />
<path stroke="#000000" stroke-width="2" d="M 1106.3,25 1108.3,24.9 1110,24.6 1111.2,24.1 1112.1,23.6 1112.6,22.9 1112.9,22.2 1113,21.4 1112.8,20.7 1112.4,20 1111.9,19.4 1111.3,18.9 1110.6,18.5 1109.9,18.3 1109.1,18.4 1108.4,18.7 1107.8,19.2 1107.2,20.1 1106.7,21.4 1106.4,23 1106.3,25 1106.3,40" />
<path stroke="#000000" stroke-width="2" d="M 1143,70" />
<path stroke="#000000" stroke-width="2" d="M 1143,30 1163,30" />
<path stroke="#000000" stroke-width="2" d="M 1163,30 1164.4,30.1 1165.7,30.6 1166.8,31.2 1167.8,32.1 1168.6,33.1 1169.3,34.3 1169.8,35.6 1170.2,37 1170.4,38.5 1170.5,40 1170.4,41.5 1170.2,43 1169.8,44.4 1169.3,45.7 1168.6,46.9 1167.8,47.9 1166.8,48.8 1165.7,49.4 1164.4,49.9 1163,50" />
<path stroke="#000000" stroke-width="2" d="M 1200.5,70" />
<path stroke="#000000" stroke-width="2" d="M 1216.5,30" />
<path stroke="#000000" stroke-width="2" d="M 1216.5,30 1216.3,34.1 1215.7,37.3 1214.7,39.8 1213.6,41.5 1212.2,42.7 1210.8,43.2 1209.3,43.3 1207.8,43 1206.4,42.3 1205.2,41.2 1204.2,40 1203.5,38.6 1203.2,37.2 1203.2,35.7 1203.8,34.2 1204.9,32.9 1206.7,31.7 1209.2,30.8 1212.4,30.2 1216.5,30 1236.5,30" />
<path stroke="#000000" stroke-width="2" d="M 1243.1,70" />
<path stroke="#000000" stroke-width="2" d="M 1243.1,50 1243.1,50.7 1243.2,51.4 1243.3,52.1 1243.5,52.8 1243.7,53.4 1244,54 1244.4,54.6 1244.8,55.2 1245.2,55.8 1245.7,56.2 1246.3,56.7 1246.8,57.1 1247.4,57.4 1248.1,57.7 1248.7,58 1249.4,58.2 1250.1,58.3 1250.8,58.3 1251.5,58.3 1252.2,58.3 1252.9,58.2 1253.5,58 1254.2,57.7 1254.8,57.4 1255.4,57.1 1256,56.7 1256.5,56.2 1257,55.8 1257.5,55.2 1257.9,54.6 1258.2,54 1258.5,53.4 1258.8,52.8 1258.9,52.1 1259.1,51.4 1259.1,50.7" />
<path stroke="#000000" stroke-width="2" d="M 1259.1,50.7 1260.5,50.8 1261.8,51.3 1262.9,51.9 1263.9,52.8 1264.7,53.8 1265.4,55 1265.9,56.3 1266.3,57.7 1266.5,59.2 1266.6,60.7 1266.5,62.2 1266.3,63.7 1265.9,65.1 1265.4,66.4 1264.7,67.6 1263.9,68.6 1262.9,69.5 1261.8,70.1 1260.5,70.6 1259.1,70.7" />
<path stroke="#000000" stroke-width="2" d="M 1296.6,70" />
<path stroke="#000000" stroke-width="2" d="M 1296.6,30 1311.9,67" />
<path stroke="#000000" stroke-width="2" d="M 1318.6,70" />
<path stroke="#000000" stroke-width="2" d="M 1318.6,20 1338.6,20 1330.9,38.5" />
<path stroke="#000000" stroke-width="2" d="M 1345.3,70" />
<path stroke="#000000" stroke-width="2" d="M 1345.3,50 1345.5,50 1345.5,50.2 1345.3,50.2 1345.3,50" />
<path stroke="#000000" stroke-width="2" d="M 1375.5,70" />
</svg>