<svg xmlns="http://www.w3.org/2000/svg" width="1618.2764331480007" height="92.2836140246614" style="fill:none; stroke-linecap:round;">
    <rect width="100%" height="100%" fill="#FFFFFF" />
<path stroke="#000000" stroke-width="2" d="M 550,75" />
<path stroke="#000000" stroke-width="2" d="M 20,30 20,50 30,50 37.7,68.5 45.3,50" />
<path stroke="#000000" stroke-width="2" d="M 75.3,70" />
<path stroke="#000000" stroke-width="2" d="M 75.3,30 95.3,30 103,48.5 110.6,30" />
<path stroke="#000000" stroke-width="2" d="M 110.6,40" />
<path stroke="#000000" stroke-width="2" d="M 94.6,40 111.6,40" />
<path stroke="#000000" stroke-width="2" d="M 141.6,70" />
<path stroke="#000000" stroke-width="2" d="M 141.6,30 141.6,70" />
<path stroke="#000000" stroke-width="2" d="M 148.3,70" />
<path stroke="#000000" stroke-width="2" d="M 148.3,20 168.3,20" />
<path stroke="#000000" stroke-width="2" d="M 198.3,70" />
<path stroke="#000000" stroke-width="2" d="M 198.3,40 198.5,40 198.5,40.2 198.3,40.2 198.3,40" />
<path stroke="#000000" stroke-width="2" d="M 205.1,70" />
<path stroke="#000000" stroke-width="2" d="M 205.1,30 205.1,70 205.1,58 205.1,56.3 205.3,54.5 205.6,52.8 206.1,51.1 206.7,49.5 207.4,47.9 208.3,46.4 209.3,45 210.4,43.6 211.6,42.4 213,41.3 214.4,40.3 215.9,39.4 217.5,38.7 219.1,38.1 220.8,37.6 222.5,37.3 224.3,37.1" />
<path stroke="#000000" stroke-width="2" d="M 230.9,70" />
<path stroke="#000000" stroke-width="2" d="M 230.9,20 230.9,20.7 231,21.4 231.1,22.1 231.3,22.8 231.5,23.4 231.8,24 232.2,24.6 232.6,25.2 233,25.8 233.5,26.2 234,26.7 234.6,27.1 235.2,27.4 235.9,27.7 236.5,28 237.2,28.2 237.9,28.3 238.6,28.3 239.3,28.3 240,28.3 240.6,28.2 241.3,28 242,27.7 242.6,27.4 243.2,27.1 243.8,26.7 244.3,26.2 244.8,25.8 245.3,25.2 245.7,24.6 246,24 246.3,23.4 246.5,22.8 246.7,22.1 246.8,21.4 246.9,20.7" />
<path stroke="#000000" stroke-width="2" d="M 253.6,70" />
<path stroke="#000000" stroke-width="2" d="M 273.6,30 273.6,70 253.6,70" />
<path stroke="#000000" stroke-width="2" d="M 280.2,70" />
<path stroke="#000000" stroke-width="2" d="M 280.2,30" />
<path stroke="#000000" stroke-width="2" d="M 280.2,30 280.4,30 280.8,30 281.5,30 282.3,30.1 283.4,30.2 284.6,30.3 285.9,30.4 287.3,30.6 288.7,30.9 290.2,31.2 291.7,31.7 293.2,32.2 294.6,32.7 295.9,33.4 297.1,34.2 298.2,35.1 299,36.1 299.7,37.3 300.1,38.6 300.2,40" />
<path stroke="#000000" stroke-width="2" d="M 300.2,40 302.2,42.1 303.5,44.1 304.3,45.7 304.6,47.2 304.5,48.4 304,49.4 303.3,50.2 302.4,50.8 301.4,51.1 300.2,51.2 299.1,51.1 298.1,50.8 297.2,50.2 296.5,49.5 296,48.4 295.9,47.2 296.2,45.7 297,44.1 298.3,42.1 300.2,40" />
<path stroke="#000000" stroke-width="2" d="M 300.2,40 300.2,39.9 300.3,39.7 300.3,39.4 300.4,39 300.6,38.4 300.8,37.8 301.1,37.2 301.5,36.5 302.1,35.7 302.7,35 303.6,34.3 304.6,33.5 305.7,32.8 307.1,32.2 308.7,31.6 310.5,31 312.5,30.6 314.8,30.3 317.4,30.1 320.2,30" />
<path stroke="#000000" stroke-width="2" d="M 320.2,30 322.3,29.9 323.9,29.6 325.1,29.1 326,28.6 326.6,27.9 326.9,27.2 326.9,26.4 326.7,25.7 326.4,25 325.9,24.4 325.3,23.9 324.6,23.5 323.8,23.3 323.1,23.4 322.4,23.7 321.7,24.2 321.1,25.1 320.6,26.4 320.3,28 320.2,30 320.2,45" />
<path stroke="#000000" stroke-width="2" d="M 356.9,70" />
<path stroke="#000000" stroke-width="2" d="M 366.9,30 366,30 365.2,30.1 364.3,30.2 363.5,30.5 362.6,30.8 361.8,31.1 361.1,31.6 360.4,32.1 359.7,32.6 359.1,33.2 358.5,33.9 358,34.6 357.6,35.4 357.2,36.2 356.9,37 356.7,37.8 356.5,38.7 356.5,39.6 356.5,40.4 356.5,41.3 356.7,42.2 356.9,43 357.2,43.8 357.6,44.6 358,45.4 358.5,46.1 359.1,46.7 359.7,47.4 360.4,47.9 361.1,48.4 361.8,48.9 362.6,49.2 363.5,49.5 364.3,49.8 365.2,49.9 366,50 366,70 366,64 366,63.1 366.1,62.2 366.3,61.4 366.5,60.5 366.8,59.7 367.1,58.9 367.6,58.2 368.1,57.5 368.6,56.8 369.3,56.2 369.9,55.6 370.6,55.1 371.4,54.7 372.2,54.3 373,54 373.8,53.8 374.7,53.6 375.6,53.6" />
<path stroke="#000000" stroke-width="2" d="M 405.6,70" />
<path stroke="#000000" stroke-width="2" d="M 405.6,35" />
<path stroke="#000000" stroke-width="2" d="M 405.6,35 407.6,34.9 409.2,34.6 410.5,34.1 411.3,33.6 411.9,32.9 412.2,32.2 412.2,31.4 412.1,30.7 411.7,30 411.2,29.4 410.6,28.9 409.9,28.5 409.2,28.3 408.4,28.4 407.7,28.7 407,29.2 406.4,30.1 406,31.4 405.7,33 405.6,35 405.6,50" />
<path stroke="#000000" stroke-width="2" d="M 405.6,50 405.5,52 405.2,53.6 404.7,54.9 404.1,55.8 403.5,56.3 402.7,56.6 402,56.7 401.3,56.5 400.6,56.1 400,55.6 399.5,55 399.1,54.3 398.9,53.6 399,52.8 399.2,52.1 399.8,51.4 400.7,50.9 401.9,50.4 403.5,50.1 405.6,50 415.6,50" />
<path stroke="#000000" stroke-width="2" d="M 422.2,70" />
<path stroke="#000000" stroke-width="2" d="M 422.2,30 422.2,70 422.2,58 422.2,56.3 422.4,54.5 422.7,52.8 423.2,51.1 423.7,49.5 424.5,47.9 425.4,46.4 426.4,45 427.5,43.6 428.7,42.4 430.1,41.3 431.5,40.3 433,39.4 434.6,38.7 436.2,38.1 437.9,37.6 439.6,37.3 441.4,37.1" />
<path stroke="#000000" stroke-width="2" d="M 448,70" />
<path stroke="#000000" stroke-width="2" d="M 448,30 467.8,49.8 448,69.6" />
<path stroke="#000000" stroke-width="2" d="M 474.5,70" />
<path stroke="#000000" stroke-width="2" d="M 474.5,70 482.1,51.5 482.1,52.2 482.2,52.9 482.3,53.6 482.5,54.3 482.7,54.9 483,55.6 483.4,56.2 483.8,56.7 484.2,57.3 484.7,57.8 485.3,58.2 485.8,58.6 486.4,59 487.1,59.3 487.7,59.5 488.4,59.7 489.1,59.8 489.8,59.9 490.5,59.9 491.2,59.8 491.9,59.7 492.5,59.5 493.2,59.3 493.8,59 494.4,58.6 495,58.2 495.5,57.8 496,57.3 496.5,56.7 496.9,56.2 497.2,55.6 497.5,54.9 497.8,54.3 497.9,53.6 498.1,52.9 498.1,52.2" />
<path stroke="#000000" stroke-width="2" d="M 528.1,70" />
<path stroke="#000000" stroke-width="2" d="M 544.1,30" />
<path stroke="#000000" stroke-width="2" d="M 544.1,30 543.9,34.1 543.3,37.3 542.4,39.8 541.2,41.5 539.9,42.7 538.5,43.2 537,43.3 535.5,43 534.1,42.3 532.9,41.2 531.9,40 531.2,38.6 530.8,37.2 530.9,35.7 531.5,34.2 532.6,32.9 534.4,31.7 536.8,30.8 540.1,30.2 544.1,30 564.1,30" />
<path stroke="#000000" stroke-width="2" d="M 570.8,70" />
<path stroke="#000000" stroke-width="2" d="M 570.8,20 570.8,40 570.8,34 570.8,33.1 570.9,32.3 571,31.4 571.2,30.6 571.5,29.7 571.9,28.9 572.3,28.2 572.8,27.5 573.4,26.8 574,26.2 574.7,25.6 575.4,25.1 576.2,24.7 577,24.3 577.8,24 578.6,23.8 579.5,23.6 580.3,23.6" />
<path stroke="#000000" stroke-width="2" d="M 580.3,23.6 582.4,23.5 584,23.2 585.2,22.7 586.1,22.1 586.7,21.5 587,20.7 587,20 586.8,19.3 586.5,18.6 586,17.9 585.4,17.4 584.7,17.1 583.9,16.9 583.2,17 582.5,17.2 581.8,17.8 581.2,18.7 580.7,19.9 580.5,21.5 580.3,23.6 580.3,38.6" />
<path stroke="#000000" stroke-width="2" d="M 593.7,70" />
<path stroke="#000000" stroke-width="2" d="M 593.7,50 613.7,50" />
<path stroke="#000000" stroke-width="2" d="M 643.7,70" />
<path stroke="#000000" stroke-width="2" d="M 643.7,70 643.9,70 643.9,70.2 643.7,70.2 643.7,70" />
<path stroke="#000000" stroke-width="2" d="M 673.9,70" />
<path stroke="#000000" stroke-width="2" d="M 673.9,70 685.3,42.3" />
<path stroke="#000000" stroke-width="2" d="M 685.3,42.3 689.4,42.1 692.6,41.5 695.1,40.6 696.9,39.4 698,38.1 698.6,36.6 698.7,35.1 698.3,33.6 697.6,32.3 696.6,31 695.4,30 694,29.3 692.5,29 691,29.1 689.6,29.6 688.2,30.8 687.1,32.5 686.2,35 685.6,38.2 685.3,42.3 685.3,72.3" />
<path stroke="#000000" stroke-width="2" d="M 728.7,70" />
<path stroke="#000000" stroke-width="2" d="M 728.7,40" />
<path stroke="#000000" stroke-width="2" d="M 728.7,40 732.7,39.8 735.9,39.2 738.4,38.3 740.2,37.1 741.3,35.8 741.9,34.3 742,32.8 741.6,31.4 740.9,30 739.9,28.8 738.7,27.7 737.3,27 735.8,26.7 734.3,26.8 732.9,27.3 731.5,28.5 730.4,30.2 729.5,32.7 728.9,35.9 728.7,40 728.7,70" />
<path stroke="#000000" stroke-width="2" d="M 748.6,70" />
<path stroke="#000000" stroke-width="2" d="M 748.6,50 758.5,59.9 748.6,69.8" />
<path stroke="#000000" stroke-width="2" d="M 788.5,70" />
<path stroke="#000000" stroke-width="2" d="M 788.5,30 788.5,70 808.5,70" />
<path stroke="#000000" stroke-width="2" d="M 838.5,70" />
<path stroke="#000000" stroke-width="2" d="M 838.5,30 858.3,49.8 838.5,69.6" />
<path stroke="#000000" stroke-width="2" d="M 865,70" />
<path stroke="#000000" stroke-width="2" d="M 865,20 865,20.7 865.1,21.4 865.2,22.1 865.4,22.8 865.6,23.4 865.9,24 866.2,24.6 866.6,25.2 867.1,25.8 867.6,26.2 868.1,26.7 868.7,27.1 869.3,27.4 869.9,27.7 870.6,28 871.3,28.2 871.9,28.3 872.6,28.3 873.3,28.3 874,28.3 874.7,28.2 875.4,28 876,27.7 876.7,27.4 877.3,27.1 877.9,26.7 878.4,26.2 878.9,25.8 879.3,25.2 879.7,24.6 880.1,24 880.4,23.4 880.6,22.8 880.8,22.1 880.9,21.4 881,20.7 881,20 881,19.3 881.2,18.6 881.3,17.9 881.6,17.3 881.9,16.7 882.2,16.1 882.6,15.5 883.1,14.9 883.6,14.5 884.1,14 884.7,13.6 885.3,13.3 885.9,13 886.6,12.7 887.2,12.5 887.9,12.4 888.6,12.4 889.3,12.4 890,12.4 890.7,12.5 891.4,12.7 892,13 892.7,13.3 893.3,13.6 893.8,14 894.4,14.5 894.9,14.9 895.3,15.5 895.7,16.1 896.1,16.7 896.4,17.3 896.6,17.9 896.8,18.6 896.9,19.3 897,20 897.8,20 898.7,20.1 899.6,20.2 900.4,20.5 901.2,20.8 902,21.1 902.8,21.6 903.5,22.1 904.2,22.6 904.8,23.2 905.3,23.9 905.8,24.6 906.3,25.4 906.6,26.2 906.9,27 907.2,27.8 907.3,28.7 907.4,29.6 907.4,30.4 907.3,31.3 907.2,32.2 906.9,33 906.6,33.8 906.3,34.6 905.8,35.4 905.3,36.1 904.8,36.7 904.2,37.4 903.5,37.9 902.8,38.4 902,38.9 901.2,39.2 900.4,39.5 899.6,39.8 898.7,39.9 897.8,40" />
<path stroke="#000000" stroke-width="2" d="M 937.4,70" />
<path stroke="#000000" stroke-width="2" d="M 937.4,70 937.6,70 937.6,70.2 937.4,70.2 937.4,70" />
<path stroke="#000000" stroke-width="2" d="M 944.3,70" />
<path stroke="#000000" stroke-width="2" d="M 960.3,30 940.5,49.8 960.3,69.6" />
<path stroke="#000000" stroke-width="2" d="M 966.9,70" />
<path stroke="#000000" stroke-width="2" d="M 966.9,50 966.9,50.7 967,51.4 967.1,52.1 967.3,52.8 967.5,53.4 967.8,54 968.2,54.6 968.6,55.2 969,55.8 969.5,56.2 970,56.7 970.6,57.1 971.2,57.4 971.9,57.7 972.5,58 973.2,58.2 973.9,58.3 974.6,58.3 975.3,58.3 976,58.3 976.6,58.2 977.3,58 978,57.7 978.6,57.4 979.2,57.1 979.8,56.7 980.3,56.2 980.8,55.8 981.3,55.2 981.7,54.6 982,54 982.3,53.4 982.5,52.8 982.7,52.1 982.8,51.4 982.9,50.7" />
<path stroke="#000000" stroke-width="2" d="M 1012.9,70" />
<path stroke="#000000" stroke-width="2" d="M 1036.9,42" />
<path stroke="#000000" stroke-width="2" d="M 1036.9,42 1032.8,41.8 1029.6,41.2 1027.2,40.3 1025.4,39.1 1024.3,37.8 1023.7,36.3 1023.6,34.8 1023.9,33.4 1024.7,32 1025.7,30.8 1026.9,29.7 1028.3,29 1029.7,28.7 1031.2,28.8 1032.7,29.3 1034,30.5 1035.2,32.2 1036.1,34.7 1036.7,37.9 1036.9,42 1036.9,50" />
<path stroke="#000000" stroke-width="2" d="M 1036.9,50 1036.3,51.7 1035.6,53.4 1034.9,54.9 1034.1,56.3 1033.2,57.6 1032.3,58.7 1031.4,59.8 1030.4,60.8 1029.4,61.7 1028.4,62.5 1027.3,63.2 1026.3,63.8 1025.1,64.4 1024,64.8 1022.8,65.2 1021.7,65.5 1020.5,65.7 1019.3,65.9 1018.1,66 1016.9,66" />
<path stroke="#000000" stroke-width="2" d="M 1066.9,70" />
<path stroke="#000000" stroke-width="2" d="M 1066.9,30" />
<path stroke="#000000" stroke-width="2" d="M 1066.9,30 1067.1,30 1067.5,30 1068.1,30 1069,30.1 1070,30.2 1071.2,30.3 1072.5,30.4 1073.9,30.6 1075.4,30.9 1076.9,31.2 1078.4,31.7 1079.9,32.2 1081.3,32.7 1082.6,33.4 1083.8,34.2 1084.8,35.1 1085.7,36.1 1086.3,37.3 1086.8,38.6 1086.9,40" />
<path stroke="#000000" stroke-width="2" d="M 1086.9,40 1088.8,42.1 1090.1,44.1 1090.9,45.7 1091.2,47.2 1091.1,48.4 1090.7,49.4 1090,50.2 1089.1,50.8 1088,51.1 1086.9,51.2 1085.8,51.1 1084.7,50.8 1083.8,50.2 1083.1,49.5 1082.7,48.4 1082.6,47.2 1082.9,45.7 1083.7,44.1 1085,42.1 1086.9,40" />
<path stroke="#000000" stroke-width="2" d="M 1086.9,40 1086.9,39.9 1086.9,39.7 1087,39.4 1087.1,39 1087.2,38.4 1087.4,37.8 1087.8,37.2 1088.2,36.5 1088.7,35.7 1089.4,35 1090.2,34.3 1091.2,33.5 1092.4,32.8 1093.8,32.2 1095.3,31.6 1097.1,31 1099.2,30.6 1101.5,30.3 1104.1,30.1 1106.9,30" />
<path stroke="#000000" stroke-width="2" d="M 1106.9,30 1106.8,32 1106.5,33.6 1106,34.9 1105.5,35.8 1104.8,36.3 1104.1,36.6 1103.3,36.7 1102.6,36.5 1101.9,36.1 1101.3,35.6 1100.8,35 1100.4,34.3 1100.3,33.6 1100.3,32.8 1100.6,32.1 1101.1,31.4 1102,30.9 1103.3,30.4 1104.9,30.1 1106.9,30 1116.9,30" />
<path stroke="#000000" stroke-width="2" d="M 1146.9,70" />
<path stroke="#000000" stroke-width="2" d="M 1166.9,30 1151.6,67" />
<path stroke="#000000" stroke-width="2" d="M 1173.6,70" />
<path stroke="#000000" stroke-width="2" d="M 1173.6,50 1181.2,68.5 1188.9,50" />
<path stroke="#000000" stroke-width="2" d="M 1188.9,60" />
<path stroke="#000000" stroke-width="2" d="M 1172.9,60 1189.9,60" />
<path stroke="#000000" stroke-width="2" d="M 1219.9,70" />
<path stroke="#000000" stroke-width="2" d="M 1239.9,30 1220.1,49.8" />
<path stroke="#000000" stroke-width="2" d="M 1220.1,29.8 1239.9,49.6" />
<path stroke="#000000" stroke-width="2" d="M 1239.9,49.6 1239.8,47.6 1239.5,46 1239,44.7 1238.4,43.8 1237.8,43.3 1237,43 1236.3,42.9 1235.6,43.1 1234.9,43.5 1234.3,44 1233.8,44.6 1233.4,45.3 1233.2,46 1233.3,46.8 1233.6,47.5 1234.1,48.2 1235,48.7 1236.2,49.2 1237.9,49.5 1239.9,49.6 1243.9,49.6" />
<path stroke="#000000" stroke-width="2" d="M 1243.9,49.6 1244.8,49.3 1245.6,48.9 1246.3,48.6 1247,48.2 1247.7,47.8 1248.3,47.3 1248.8,46.8 1249.3,46.4 1249.7,45.9 1250.1,45.3 1250.5,44.8 1250.8,44.3 1251.1,43.7 1251.3,43.1 1251.5,42.6 1251.6,42 1251.7,41.4 1251.8,40.8 1251.9,40.2 1251.9,39.6" />
<path stroke="#000000" stroke-width="2" d="M 1258.6,70" />
<path stroke="#000000" stroke-width="2" d="M 1258.6,20 1278.6,20" />
<path stroke="#000000" stroke-width="2" d="M 1285.2,70" />
<path stroke="#000000" stroke-width="2" d="M 1293.2,20 1293.2,35" />
<path stroke="#000000" stroke-width="2" d="M 1293.2,35 1293.1,37 1292.8,38.6 1292.4,39.9 1291.8,40.8 1291.1,41.3 1290.4,41.6 1289.6,41.7 1288.9,41.5 1288.2,41.1 1287.6,40.6 1287.1,40 1286.7,39.3 1286.6,38.6 1286.6,37.8 1286.9,37.1 1287.5,36.4 1288.3,35.9 1289.6,35.4 1291.2,35.1 1293.2,35 1313.2,35" />
<path stroke="#000000" stroke-width="2" d="M 1343.2,70" />
<path stroke="#000000" stroke-width="2" d="M 1363.2,30 1347.9,67" />
<path stroke="#000000" stroke-width="2" d="M 1369.9,70" />
<path stroke="#000000" stroke-width="2" d="M 1369.9,50 1370.1,50 1370.1,50.2 1369.9,50.2 1369.9,50" />
<path stroke="#000000" stroke-width="2" d="M 1400.1,70" />
<path stroke="#000000" stroke-width="2" d="M 1400.1,30 1440.1,30" />
<path stroke="#000000" stroke-width="2" d="M 1470.1,70" />
<path stroke="#000000" stroke-width="2" d="M 1470.1,30 1471.8,30 1473.6,30.2 1475.3,30.5 1477,30.9 1478.6,31.5 1480.2,32.2 1481.7,33.1 1483.1,34.1 1484.5,35.2 1485.7,36.5 1486.8,37.8 1487.8,39.2 1488.7,40.7 1489.4,42.3 1490,44 1490.5,45.7 1490.8,47.4 1490.9,49.1 1490.9,50.9 1490.8,52.6 1490.5,54.3 1490,56 1489.4,57.6 1488.7,59.2 1487.8,60.7 1486.8,62.2 1485.7,63.5 1484.5,64.7 1483.1,65.8 1481.7,66.8 1480.2,67.7 1478.6,68.5 1477,69.1 1475.3,69.5 1473.6,69.8 1471.8,70" />
<path stroke="#000000" stroke-width="2" d="M 1520.9,70" />
<path stroke="#000000" stroke-width="2" d="M 1524.9,70 1535.7,44.1 1535.9,43.5 1536.1,42.8 1536.3,42.1 1536.4,41.4 1536.4,40.8 1536.4,40.1 1536.3,39.4 1536.1,38.7 1535.9,38 1535.7,37.4 1535.3,36.8 1535,36.2 1534.5,35.6 1534.1,35.1 1533.5,34.6 1533,34.2 1532.4,33.8 1531.8,33.5 1531.1,33.2 1530.5,33 1529.8,32.9 1529.1,32.8 1528.4,32.8 1527.7,32.8 1527,32.9 1526.3,33 1525.7,33.2 1525,33.5 1524.4,33.8 1523.8,34.2 1523.3,34.6 1522.7,35.1 1522.3,35.6 1521.8,36.2 1521.5,36.8 1521.2,37.4 1520.9,38 1520.7,38.7 1520.5,39.4 1520.4,40.1 1520.4,40.8 1520.4,41.4 1520.5,42.1 1520.7,42.8 1520.9,43.5 1521.2,44.1 1521.5,44.8 1521.8,45.3 1522.3,45.9 1522.7,46.4 1523.3,46.9 1523.8,47.3 1524.4,47.7 1525,48 1525.7,48.3 1526.3,48.5 1527,48.6 1527.7,48.7 1528.4,48.8 1529.1,48.7 1555,38" />
<path stroke="#000000" stroke-width="2" d="M 1585,70" />
<path stroke="#000000" stroke-width="2" d="M 1585,40" />
<path stroke="#000000" stroke-width="2" d="M 1585,40 1589,39.8 1592.3,39.2 1594.7,38.3 1596.5,37.1 1597.6,35.8 1598.2,34.3 1598.3,32.8 1597.9,31.4 1597.2,30 1596.2,28.8 1595,27.7 1593.6,27 1592.1,26.7 1590.6,26.8 1589.2,27.3 1587.8,28.5 1586.7,30.2 1585.8,32.7 1585.2,35.9 1585,40 1585,70" />
<path stroke="#000000" stroke-width="2" d="M 1628.3,70" />
</svg>