<svg xmlns="http://www.w3.org/2000/svg" width="1189.173693848921" height="102.0" style="fill:none; stroke-linecap:round;">
    <rect width="100%" height="100%" fill="#FFFFFF" />
<path stroke="#000000" stroke-width="2" d="M 550,75" />
<path stroke="#000000" stroke-width="2" d="M 20,30 30,30 30,70" />
<path stroke="#000000" stroke-width="2" d="M 36.7,70" />
<path stroke="#000000" stroke-width="2" d="M 36.7,50 36.7,70 36.7,64 36.7,63.1 36.7,62.3 36.9,61.4 37.1,60.6 37.4,59.7 37.8,58.9 38.2,58.2 38.7,57.5 39.3,56.8 39.9,56.2 40.6,55.6 41.3,55.1 42,54.7 42.8,54.3 43.7,54 44.5,53.8 45.4,53.6 46.2,53.6" />
<path stroke="#000000" stroke-width="2" d="M 76.2,70" />
<path stroke="#000000" stroke-width="2" d="M 92.2,30 72.4,49.8 92.2,69.6" />
<path stroke="#000000" stroke-width="2" d="M 98.9,70" />
<path stroke="#000000" stroke-width="2" d="M 98.9,40" />
<path stroke="#000000" stroke-width="2" d="M 98.9,40 102.9,39.8 106.2,39.2 108.6,38.3 110.4,37.1 111.5,35.8 112.1,34.3 112.2,32.8 111.8,31.4 111.1,30 110.1,28.8 108.9,27.7 107.5,27 106.1,26.7 104.6,26.8 103.1,27.3 101.8,28.5 100.6,30.2 99.7,32.7 99.1,35.9 98.9,40 98.9,70" />
<path stroke="#000000" stroke-width="2" d="M 142.2,70" />
<path stroke="#000000" stroke-width="2" d="M 158.2,30" />
<path stroke="#000000" stroke-width="2" d="M 158.2,30 158,34.1 157.4,37.3 156.5,39.8 155.3,41.5 154,42.7 152.5,43.2 151,43.3 149.6,43 148.2,42.3 146.9,41.2 145.9,40 145.2,38.6 144.9,37.2 145,35.7 145.5,34.2 146.7,32.9 148.4,31.7 150.9,30.8 154.1,30.2 158.2,30 178.2,30" />
<path stroke="#000000" stroke-width="2" d="M 184.9,70" />
<path stroke="#000000" stroke-width="2" d="M 184.9,20 184.9,40 184.9,34 184.9,33.1 184.9,32.3 185.1,31.4 185.3,30.6 185.6,29.7 186,28.9 186.4,28.2 186.9,27.5 187.5,26.8 188.1,26.2 188.8,25.6 189.5,25.1 190.2,24.7 191,24.3 191.8,24 192.7,23.8 193.5,23.6 194.4,23.6" />
<path stroke="#000000" stroke-width="2" d="M 201.1,70" />
<path stroke="#000000" stroke-width="2" d="M 201.1,20 221.1,20 213.4,38.5" />
<path stroke="#000000" stroke-width="2" d="M 213.4,38.5 215.5,38.4 217.1,38.1 218.3,37.6 219.2,37 219.8,36.4 220,35.6 220.1,34.9 219.9,34.2 219.6,33.5 219.1,32.9 218.4,32.4 217.8,32 217,31.8 216.3,31.9 215.5,32.1 214.9,32.7 214.3,33.6 213.8,34.8 213.5,36.4 213.4,38.5 213.4,53.5" />
<path stroke="#000000" stroke-width="2" d="M 251.1,70" />
<path stroke="#000000" stroke-width="2" d="M 267.1,30 247.3,49.8 267.1,69.6" />
<path stroke="#000000" stroke-width="2" d="M 273.8,70" />
<path stroke="#000000" stroke-width="2" d="M 273.8,20" />
<path stroke="#000000" stroke-width="2" d="M 273.8,20 275.2,20.1 276.5,20.6 277.6,21.2 278.6,22.1 279.4,23.1 280.1,24.3 280.6,25.6 281,27 281.2,28.5 281.3,30 281.2,31.5 281,33 280.6,34.4 280.1,35.7 279.4,36.9 278.6,37.9 277.6,38.8 276.5,39.4 275.2,39.9 273.8,40" />
<path stroke="#000000" stroke-width="2" d="M 311.3,70" />
<path stroke="#000000" stroke-width="2" d="M 311.3,30 311.3,70" />
<path stroke="#000000" stroke-width="2" d="M 317.9,70" />
<path stroke="#000000" stroke-width="2" d="M 317.9,20 337.9,20" />
<path stroke="#000000" stroke-width="2" d="M 367.9,70" />
<path stroke="#000000" stroke-width="2" d="M 372.9,30" />
<path stroke="#000000" stroke-width="2" d="M 372.9,30 371.5,30.1 370.2,30.6 369.1,31.2 368.1,32.1 367.3,33.1 366.6,34.3 366.1,35.6 365.7,37 365.5,38.5 365.4,40 365.5,41.5 365.7,43 366.1,44.4 366.6,45.7 367.3,46.9 368.1,47.9 369.1,48.8 370.2,49.4 371.5,49.9 372.9,50" />
<path stroke="#000000" stroke-width="2" d="M 372.9,50 374.3,50.1 375.6,50.6 376.7,51.2 377.7,52.1 378.5,53.1 379.2,54.3 379.7,55.6 380.1,57 380.3,58.5 380.4,60 380.3,61.5 380.1,63 379.7,64.4 379.2,65.7 378.5,66.9 377.7,67.9 376.7,68.8 375.6,69.4 374.3,69.9 372.9,70" />
<path stroke="#000000" stroke-width="2" d="M 410.4,70" />
<path stroke="#000000" stroke-width="2" d="M 410.4,30 420.4,30 420.4,70" />
<path stroke="#000000" stroke-width="2" d="M 427.1,70" />
<path stroke="#000000" stroke-width="2" d="M 427.1,50 427.1,50.7 427.1,51.4 427.3,52.1 427.4,52.8 427.7,53.4 428,54 428.3,54.6 428.7,55.2 429.2,55.8 429.7,56.2 430.2,56.7 430.8,57.1 431.4,57.4 432,57.7 432.7,58 433.3,58.2 434,58.3 434.7,58.3 435.4,58.3 436.1,58.3 436.8,58.2 437.5,58 438.1,57.7 438.8,57.4 439.4,57.1 439.9,56.7 440.5,56.2 441,55.8 441.4,55.2 441.8,54.6 442.2,54 442.5,53.4 442.7,52.8 442.9,52.1 443,51.4 443.1,50.7 443.1,50 443.1,49.3 443.3,48.6 443.4,47.9 443.7,47.3 444,46.7 444.3,46.1 444.7,45.5 445.2,44.9 445.7,44.5 446.2,44 446.8,43.6 447.4,43.3 448,43 448.7,42.7 449.3,42.5 450,42.4 450.7,42.4 451.4,42.4 452.1,42.4 452.8,42.5 453.5,42.7 454.1,43 454.8,43.3 455.4,43.6 455.9,44 456.5,44.5 457,44.9 457.4,45.5 457.8,46.1 458.2,46.7 458.5,47.3 458.7,47.9 458.9,48.6 459,49.3 459.1,50" />
<path stroke="#000000" stroke-width="2" d="M 489.1,70" />
<path stroke="#000000" stroke-width="2" d="M 489.1,70" />
<path stroke="#000000" stroke-width="2" d="M 489.1,70 490.2,70 491.2,70.2 492,70.4 492.7,70.7 493.3,71 493.7,71.5 494,71.9 494.2,72.5 494.3,73.1 494.3,73.8 494.2,74.4 493.9,75.2 493.6,76 493.2,76.8 492.7,77.6 492.1,78.4 491.5,79.3 490.7,80.2 489.9,81.1 489.1,82" />
<path stroke="#000000" stroke-width="2" d="M 524.3,70" />
<path stroke="#000000" stroke-width="2" d="M 524.3,30 524.3,70 535.6,58.7" />
<path stroke="#000000" stroke-width="2" d="M 542.3,70" />
<path stroke="#000000" stroke-width="2" d="M 542.3,50" />
<path stroke="#000000" stroke-width="2" d="M 542.3,50 543.7,50.1 545,50.6 546.1,51.2 547.1,52.1 547.9,53.1 548.6,54.3 549.1,55.6 549.5,57 549.7,58.5 549.8,60 549.7,61.5 549.5,63 549.1,64.4 548.6,65.7 547.9,66.9 547.1,67.9 546.1,68.8 545,69.4 543.7,69.9 542.3,70" />
<path stroke="#000000" stroke-width="2" d="M 579.8,70" />
<path stroke="#000000" stroke-width="2" d="M 579.8,30 599.8,30" />
<path stroke="#000000" stroke-width="2" d="M 599.8,30 601.2,30.1 602.5,30.6 603.6,31.2 604.6,32.1 605.4,33.1 606.1,34.3 606.6,35.6 607,37 607.2,38.5 607.3,40 607.2,41.5 607,43 606.6,44.4 606.1,45.7 605.4,46.9 604.6,47.9 603.6,48.8 602.5,49.4 601.2,49.9 599.8,50" />
<path stroke="#000000" stroke-width="2" d="M 599.8,50 601.2,50.1 602.5,50.6 603.6,51.2 604.6,52.1 605.4,53.1 606.1,54.3 606.6,55.6 607,57 607.2,58.5 607.3,60 607.2,61.5 607,63 606.6,64.4 606.1,65.7 605.4,66.9 604.6,67.9 603.6,68.8 602.5,69.4 601.2,69.9 599.8,70" />
<path stroke="#000000" stroke-width="2" d="M 637.3,70" />
<path stroke="#000000" stroke-width="2" d="M 637.3,30" />
<path stroke="#000000" stroke-width="2" d="M 637.3,30 637.5,30 637.9,30 638.5,30 639.4,30.1 640.4,30.2 641.6,30.3 642.9,30.4 644.3,30.6 645.8,30.9 647.3,31.2 648.8,31.7 650.3,32.2 651.7,32.7 653,33.4 654.2,34.2 655.2,35.1 656.1,36.1 656.7,37.3 657.2,38.6 657.3,40" />
<path stroke="#000000" stroke-width="2" d="M 657.3,40 659.2,42.1 660.5,44.1 661.3,45.7 661.6,47.2 661.5,48.4 661.1,49.4 660.4,50.2 659.5,50.8 658.4,51.1 657.3,51.2 656.2,51.1 655.1,50.8 654.2,50.2 653.5,49.5 653.1,48.4 653,47.2 653.3,45.7 654.1,44.1 655.4,42.1 657.3,40" />
<path stroke="#000000" stroke-width="2" d="M 657.3,40 657.3,39.9 657.3,39.7 657.4,39.4 657.5,39 657.6,38.4 657.8,37.8 658.2,37.2 658.6,36.5 659.1,35.7 659.8,35 660.6,34.3 661.6,33.5 662.8,32.8 664.2,32.2 665.7,31.6 667.5,31 669.6,30.6 671.9,30.3 674.5,30.1 677.3,30" />
<path stroke="#000000" stroke-width="2" d="M 677.3,30 677.2,32 676.9,33.6 676.4,34.9 675.9,35.8 675.2,36.3 674.5,36.6 673.7,36.7 673,36.5 672.3,36.1 671.7,35.6 671.2,35 670.8,34.3 670.7,33.6 670.7,32.8 671,32.1 671.5,31.4 672.4,30.9 673.7,30.4 675.3,30.1 677.3,30 687.3,30" />
<path stroke="#000000" stroke-width="2" d="M 717.3,70" />
<path stroke="#000000" stroke-width="2" d="M 733.3,30 713.5,49.8 733.3,69.6" />
<path stroke="#000000" stroke-width="2" d="M 740,70" />
<path stroke="#000000" stroke-width="2" d="M 740,20 740,40 740,34 740,33.1 740,32.3 740.2,31.4 740.4,30.6 740.7,29.7 741.1,28.9 741.5,28.2 742,27.5 742.6,26.8 743.2,26.2 743.9,25.6 744.6,25.1 745.3,24.7 746.1,24.3 747,24 747.8,23.8 748.7,23.6 749.5,23.6" />
<path stroke="#000000" stroke-width="2" d="M 779.5,70" />
<path stroke="#000000" stroke-width="2" d="M 789.5,50 790.4,50 791.3,49.9 792.1,49.8 793,49.5 793.8,49.2 794.6,48.9 795.3,48.4 796.1,47.9 796.7,47.4 797.3,46.8 797.9,46.1 798.4,45.4 798.8,44.6 799.2,43.8 799.5,43 799.7,42.2 799.9,41.3 800,40.4 800,39.6 799.9,38.7 799.7,37.8 799.5,37 799.2,36.2 798.8,35.4 798.4,34.6 797.9,33.9 797.3,33.3 796.7,32.6 796.1,32.1 795.3,31.6 794.6,31.1 793.8,30.8 793,30.5 792.1,30.2 791.3,30.1 790.4,30 789.5,30 788.7,30.1 787.8,30.2 787,30.5 786.1,30.8 785.3,31.1 784.6,31.6 783.9,32.1 783.2,32.6 782.6,33.3 782,33.9 781.5,34.6 781.1,35.4 780.7,36.2 780.4,37 780.2,37.8 780,38.7 780,39.6 780,40.4 780,41.3 780.2,42.2 780.4,43 780.7,43.8 781.1,44.6 781.5,45.4 782,46.1 782.6,46.8 783.2,47.4 783.9,47.9 784.6,48.4 785.3,48.9 786.1,49.2 787,49.5 787.8,49.8 788.7,49.9 789.5,50 789.5,70 789.5,64 789.5,63.1 789.6,62.3 789.8,61.4 790,60.6 790.3,59.7 790.6,58.9 791.1,58.2 791.6,57.5 792.1,56.8 792.8,56.2 793.4,55.6 794.1,55.1 794.9,54.7 795.7,54.3 796.5,54 797.4,53.8 798.2,53.6 799.1,53.6" />
<path stroke="#000000" stroke-width="2" d="M 806.6,70" />
<path stroke="#000000" stroke-width="2" d="M 806.6,50 806.8,50 806.8,50.2 806.6,50.2 806.6,50" />
<path stroke="#000000" stroke-width="2" d="M 836.8,70" />
<path stroke="#000000" stroke-width="2" d="M 836.8,30 876.8,30" />
<path stroke="#000000" stroke-width="2" d="M 883.5,70" />
<path stroke="#000000" stroke-width="2" d="M 883.5,50 891.1,68.5" />
<path stroke="#000000" stroke-width="2" d="M 897.8,70" />
<path stroke="#000000" stroke-width="2" d="M 897.8,28 897.8,27.3 897.9,26.6 898,25.9 898.2,25.2 898.4,24.6 898.7,24 899.1,23.4 899.5,22.8 899.9,22.2 900.4,21.8 900.9,21.3 901.5,20.9 902.1,20.6 902.7,20.3 903.4,20 904.1,19.8 904.8,19.7 905.5,19.7 906.1,19.7 906.8,19.7 907.5,19.8 908.2,20 908.9,20.3 909.5,20.6 910.1,20.9 910.7,21.3 911.2,21.8 911.7,22.2 912.1,22.8 912.5,23.4 912.9,24 913.2,24.6 913.4,25.2 913.6,25.9 913.7,26.6 913.8,27.3" />
<path stroke="#000000" stroke-width="2" d="M 920.5,70" />
<path stroke="#000000" stroke-width="2" d="M 920.5,20 940.5,20" />
<path stroke="#000000" stroke-width="2" d="M 947.1,70" />
<path stroke="#000000" stroke-width="2" d="M 947.1,35" />
<path stroke="#000000" stroke-width="2" d="M 947.1,35 949.2,34.9 950.8,34.6 952,34.1 952.9,33.6 953.5,32.9 953.7,32.2 953.8,31.4 953.6,30.7 953.3,30 952.8,29.4 952.1,28.9 951.4,28.5 950.7,28.3 950,28.4 949.2,28.7 948.6,29.2 948,30.1 947.5,31.4 947.2,33 947.1,35 947.1,50 954.8,68.5" />
<path stroke="#000000" stroke-width="2" d="M 984.8,70" />
<path stroke="#000000" stroke-width="2" d="M 1000.8,30 981,49.8 1000.8,69.6" />
<path stroke="#000000" stroke-width="2" d="M 1007.4,70" />
<path stroke="#000000" stroke-width="2" d="M 1007.4,20 1007.6,20 1007.6,20.2 1007.4,20.2 1007.4,20" />
<path stroke="#000000" stroke-width="2" d="M 1037.6,70" />
<path stroke="#000000" stroke-width="2" d="M 1042.6,30" />
<path stroke="#000000" stroke-width="2" d="M 1042.6,30 1041.2,30.1 1039.9,30.6 1038.8,31.2 1037.8,32.1 1037,33.1 1036.3,34.3 1035.8,35.6 1035.4,37 1035.2,38.5 1035.1,40 1035.2,41.5 1035.4,43 1035.8,44.4 1036.3,45.7 1037,46.9 1037.8,47.9 1038.8,48.8 1039.9,49.4 1041.2,49.9 1042.6,50 1042.6,70 1042.6,64 1042.6,63.1 1042.7,62.3 1042.9,61.4 1043.1,60.6 1043.4,59.7 1043.8,58.9 1044.2,58.2 1044.7,57.5 1045.3,56.8 1045.9,56.2 1046.5,55.6 1047.3,55.1 1048,54.7 1048.8,54.3 1049.6,54 1050.5,53.8 1051.3,53.6 1052.2,53.6" />
<path stroke="#000000" stroke-width="2" d="M 1082.2,70" />
<path stroke="#000000" stroke-width="2" d="M 1082.2,70 1097.5,33 1137.5,33" />
<path stroke="#000000" stroke-width="2" d="M 1144.2,70" />
<path stroke="#000000" stroke-width="2" d="M 1149.2,30" />
<path stroke="#000000" stroke-width="2" d="M 1149.2,30 1147.7,30.1 1146.5,30.6 1145.3,31.2 1144.4,32.1 1143.5,33.1 1142.9,34.3 1142.3,35.6 1142,37 1141.7,38.5 1141.7,40 1141.7,41.5 1142,43 1142.3,44.4 1142.9,45.7 1143.5,46.9 1144.4,47.9 1145.3,48.8 1146.5,49.4 1147.7,49.9 1149.2,50 1169.2,50" />
<path stroke="#000000" stroke-width="2" d="M 1199.2,70" />
</svg>