<svg xmlns="http://www.w3.org/2000/svg" width="1075.2921516439337" height="109.30208980215463" style="fill:none; stroke-linecap:round;">
    <rect width="100%" height="100%" fill="#FFFFFF" />
<path stroke="#000000" stroke-width="2" d="M 550,75" />
<path stroke="#000000" stroke-width="2" d="M 20,30 39.8,49.8 20,69.6" />
<path stroke="#000000" stroke-width="2" d="M 46.5,70" />
<path stroke="#000000" stroke-width="2" d="M 46.5,25" />
<path stroke="#000000" stroke-width="2" d="M 46.5,25 48.5,24.9 50.1,24.6 51.3,24.1 52.2,23.6 52.8,22.9 53.1,22.2 53.1,21.4 52.9,20.7 52.6,20 52.1,19.4 51.5,18.9 50.8,18.5 50,18.3 49.3,18.4 48.6,18.7 47.9,19.2 47.3,20.1 46.9,21.4 46.6,23 46.5,25 46.5,40 38.8,58.5" />
<path stroke="#000000" stroke-width="2" d="M 83.1,70" />
<path stroke="#000000" stroke-width="2" d="M 83.1,30 103.1,30" />
<path stroke="#000000" stroke-width="2" d="M 103.1,30 104.5,30.1 105.8,30.6 106.9,31.2 107.9,32.1 108.7,33.1 109.4,34.3 109.9,35.6 110.3,37 110.5,38.5 110.6,40 110.5,41.5 110.3,43 109.9,44.4 109.4,45.7 108.7,46.9 107.9,47.9 106.9,48.8 105.8,49.4 104.5,49.9 103.1,50" />
<path stroke="#000000" stroke-width="2" d="M 140.6,70" />
<path stroke="#000000" stroke-width="2" d="M 145.6,30" />
<path stroke="#000000" stroke-width="2" d="M 145.6,30 144.2,30.1 142.9,30.6 141.8,31.2 140.8,32.1 140,33.1 139.3,34.3 138.8,35.6 138.4,37 138.2,38.5 138.1,40 138.2,41.5 138.4,43 138.8,44.4 139.3,45.7 140,46.9 140.8,47.9 141.8,48.8 142.9,49.4 144.2,49.9 145.6,50 165.6,50" />
<path stroke="#000000" stroke-width="2" d="M 195.6,70" />
<path stroke="#000000" stroke-width="2" d="M 195.6,30 195.6,70 206.9,58.7" />
<path stroke="#000000" stroke-width="2" d="M 213.6,70" />
<path stroke="#000000" stroke-width="2" d="M 237.6,42" />
<path stroke="#000000" stroke-width="2" d="M 237.6,42 233.5,41.8 230.3,41.2 227.8,40.3 226.1,39.1 224.9,37.8 224.4,36.3 224.3,34.8 224.6,33.4 225.3,32 226.4,30.8 227.6,29.7 229,29 230.4,28.7 231.9,28.8 233.4,29.3 234.7,30.5 235.9,32.2 236.8,34.7 237.4,37.9 237.6,42 237.6,50" />
<path stroke="#000000" stroke-width="2" d="M 237.6,50 237,51.7 236.3,53.4 235.5,54.9 234.8,56.3 233.9,57.6 233,58.7 232.1,59.8 231.1,60.8 230.1,61.7 229.1,62.5 228,63.2 226.9,63.8 225.8,64.4 224.7,64.8 223.5,65.2 222.4,65.5 221.2,65.7 220,65.9 218.8,66 217.6,66" />
<path stroke="#000000" stroke-width="2" d="M 267.6,70" />
<path stroke="#000000" stroke-width="2" d="M 267.6,35" />
<path stroke="#000000" stroke-width="2" d="M 267.6,35 269.6,34.9 271.2,34.6 272.5,34.1 273.4,33.6 273.9,32.9 274.2,32.2 274.3,31.4 274.1,30.7 273.7,30 273.2,29.4 272.6,28.9 271.9,28.5 271.2,28.3 270.4,28.4 269.7,28.7 269,29.2 268.5,30.1 268,31.4 267.7,33 267.6,35 267.6,50" />
<path stroke="#000000" stroke-width="2" d="M 267.6,50 267.5,52 267.2,53.6 266.7,54.9 266.2,55.8 265.5,56.3 264.8,56.6 264,56.7 263.3,56.5 262.6,56.1 262,55.6 261.5,55 261.1,54.3 260.9,53.6 261,52.8 261.3,52.1 261.8,51.4 262.7,50.9 264,50.4 265.6,50.1 267.6,50 277.6,50 277.6,70 277.6,64 277.6,63.1 277.7,62.3 277.8,61.4 278.1,60.6 278.4,59.7 278.7,58.9 279.2,58.2 279.7,57.5 280.2,56.8 280.8,56.2 281.5,55.6 282.2,55.1 283,54.7 283.8,54.3 284.6,54 285.4,53.8 286.3,53.6 287.2,53.6" />
<path stroke="#000000" stroke-width="2" d="M 293.8,70" />
<path stroke="#000000" stroke-width="2" d="M 293.8,20" />
<path stroke="#000000" stroke-width="2" d="M 293.8,20 295.2,20.1 296.5,20.6 297.6,21.2 298.6,22.1 299.4,23.1 300.1,24.3 300.6,25.6 301,27 301.2,28.5 301.3,30 301.2,31.5 301,33 300.6,34.4 300.1,35.7 299.4,36.9 298.6,37.9 297.6,38.8 296.5,39.4 295.2,39.9 293.8,40" />
<path stroke="#000000" stroke-width="2" d="M 331.3,70" />
<path stroke="#000000" stroke-width="2" d="M 331.3,50 339,31.5 339,30.8 339,30.1 339.2,29.4 339.3,28.8 339.6,28.1 339.9,27.5 340.2,26.9 340.6,26.3 341.1,25.8 341.6,25.3 342.1,24.8 342.7,24.4 343.3,24.1 343.9,23.8 344.6,23.5 345.2,23.4 345.9,23.2 346.6,23.2 347.3,23.2 348,23.2 348.7,23.4 349.4,23.5 350,23.8 350.7,24.1 351.3,24.4 351.8,24.8 352.4,25.3 352.9,25.8 353.3,26.3 353.7,26.9 354.1,27.5 354.4,28.1 354.6,28.8 354.8,29.4 354.9,30.1 355,30.8 355,50.8 355,44.8 355,44 355,43.1 355.2,42.2 355.4,41.4 355.7,40.6 356.1,39.8 356.5,39 357,38.3 357.6,37.6 358.2,37 358.9,36.5 359.6,36 360.3,35.5 361.1,35.1 361.9,34.9 362.8,34.6 363.6,34.5 364.5,34.4" />
<path stroke="#000000" stroke-width="2" d="M 371.2,70" />
<path stroke="#000000" stroke-width="2" d="M 371.2,55" />
<path stroke="#000000" stroke-width="2" d="M 371.2,55 373.2,54.9 374.8,54.6 376.1,54.1 376.9,53.6 377.5,52.9 377.8,52.2 377.8,51.4 377.7,50.7 377.3,50 376.8,49.4 376.2,48.9 375.5,48.5 374.8,48.3 374,48.4 373.3,48.7 372.6,49.2 372,50.1 371.6,51.4 371.3,53 371.2,55 371.2,70" />
<path stroke="#000000" stroke-width="2" d="M 407.8,70" />
<path stroke="#000000" stroke-width="2" d="M 423.8,30 404,49.8 423.8,69.6" />
<path stroke="#000000" stroke-width="2" d="M 430.5,70" />
<path stroke="#000000" stroke-width="2" d="M 430.5,40" />
<path stroke="#000000" stroke-width="2" d="M 430.5,40 434.6,39.8 437.8,39.2 440.3,38.3 442,37.1 443.2,35.8 443.7,34.3 443.8,32.8 443.5,31.4 442.8,30 441.8,28.8 440.5,27.7 439.1,27 437.7,26.7 436.2,26.8 434.7,27.3 433.4,28.5 432.2,30.2 431.3,32.7 430.7,35.9 430.5,40 430.5,70" />
<path stroke="#000000" stroke-width="2" d="M 473.8,70" />
<path stroke="#000000" stroke-width="2" d="M 493.8,30 478.5,67" />
<path stroke="#000000" stroke-width="2" d="M 500.5,70" />
<path stroke="#000000" stroke-width="2" d="M 500.5,50 500.5,70 500.5,64 500.5,63.1 500.6,62.3 500.7,61.4 500.9,60.6 501.2,59.7 501.6,58.9 502,58.2 502.5,57.5 503.1,56.8 503.7,56.2 504.4,55.6 505.1,55.1 505.9,54.7 506.6,54.3 507.5,54 508.3,53.8 509.2,53.6 510,53.6" />
<path stroke="#000000" stroke-width="2" d="M 510,53.6 512.1,53.5 513.7,53.2 514.9,52.7 515.8,52.1 516.4,51.5 516.6,50.7 516.7,50 516.5,49.3 516.2,48.6 515.7,47.9 515,47.4 514.4,47.1 513.6,46.9 512.9,47 512.1,47.2 511.5,47.8 510.9,48.7 510.4,49.9 510.1,51.5 510,53.6 510,68.6" />
<path stroke="#000000" stroke-width="2" d="M 523.4,70" />
<path stroke="#000000" stroke-width="2" d="M 523.4,50 523.6,50 523.6,50.2 523.4,50.2 523.4,50" />
<path stroke="#000000" stroke-width="2" d="M 553.6,70" />
<path stroke="#000000" stroke-width="2" d="M 553.6,70 553.8,70 553.8,70.2 553.6,70.2 553.6,70" />
<path stroke="#000000" stroke-width="2" d="M 583.8,70" />
<path stroke="#000000" stroke-width="2" d="M 583.8,70 584,70 584,70.2 583.8,70.2 583.8,70" />
<path stroke="#000000" stroke-width="2" d="M 590.6,70" />
<path stroke="#000000" stroke-width="2" d="M 606.6,30 586.8,49.8 606.6,69.6" />
<path stroke="#000000" stroke-width="2" d="M 613.3,70" />
<path stroke="#000000" stroke-width="2" d="M 613.3,50 620.9,68.5" />
<path stroke="#000000" stroke-width="2" d="M 627.6,70" />
<path stroke="#000000" stroke-width="2" d="M 627.6,20 647.6,20" />
<path stroke="#000000" stroke-width="2" d="M 677.6,70" />
<path stroke="#000000" stroke-width="2" d="M 677.6,30 677.6,50 687.6,50" />
<path stroke="#000000" stroke-width="2" d="M 687.6,50 689,50.1 690.3,50.6 691.4,51.2 692.4,52.1 693.2,53.1 693.9,54.3 694.4,55.6 694.8,57 695,58.5 695.1,60 695,61.5 694.8,63 694.4,64.4 693.9,65.7 693.2,66.9 692.4,67.9 691.4,68.8 690.3,69.4 689,69.9 687.6,70 687.6,70.7 687.7,71.4 687.8,72.1 688,72.8 688.2,73.4 688.5,74 688.9,74.6 689.3,75.2 689.7,75.8 690.2,76.2 690.7,76.7 691.3,77.1 691.9,77.4 692.5,77.7 693.2,78 693.9,78.2 694.6,78.3 695.2,78.3 695.9,78.3 696.6,78.3 697.3,78.2 698,78 698.7,77.7 699.3,77.4 699.9,77.1 700.5,76.7 701,76.2 701.5,75.8 701.9,75.2 702.3,74.6 702.7,74 703,73.4 703.2,72.8 703.4,72.1 703.5,71.4 703.6,70.7" />
<path stroke="#000000" stroke-width="2" d="M 710.3,70" />
<path stroke="#000000" stroke-width="2" d="M 710.3,30 710.5,30 710.5,30.2 710.3,30.2 710.3,30" />
<path stroke="#000000" stroke-width="2" d="M 740.5,70" />
<path stroke="#000000" stroke-width="2" d="M 740.5,35" />
<path stroke="#000000" stroke-width="2" d="M 740.5,35 742.5,34.9 744.1,34.6 745.3,34.1 746.2,33.6 746.8,32.9 747.1,32.2 747.1,31.4 746.9,30.7 746.6,30 746.1,29.4 745.5,28.9 744.8,28.5 744,28.3 743.3,28.4 742.6,28.7 741.9,29.2 741.3,30.1 740.9,31.4 740.6,33 740.5,35 740.5,50 732.8,68.5 735.1,62.9 735.4,62.1 735.8,61.4 736.3,60.6 736.8,59.9 737.4,59.3 738.1,58.7 738.8,58.2 739.5,57.7 740.3,57.3 741.1,57 741.9,56.7 742.8,56.5" />
<path stroke="#000000" stroke-width="2" d="M 753.8,70" />
<path stroke="#000000" stroke-width="2" d="M 753.8,70 753.8,69.3 753.8,68.6 754,67.9 754.1,67.2 754.4,66.6 754.7,66 755,65.4 755.4,64.8 755.9,64.2 756.4,63.8 756.9,63.3 757.5,62.9 758.1,62.6 758.7,62.3 759.4,62 760,61.8 760.7,61.7 761.4,61.7 762.1,61.7 762.8,61.7 763.5,61.8 764.2,62 764.8,62.3 765.5,62.6 766.1,62.9 766.6,63.3 767.2,63.8 767.7,64.2 768.1,64.8 768.5,65.4 768.9,66 769.2,66.6 769.4,67.2 769.6,67.9 769.7,68.6 769.8,69.3" />
<path stroke="#000000" stroke-width="2" d="M 769.8,69.3 771.2,69.4 772.5,69.9 773.6,70.5 774.6,71.4 775.4,72.4 776.1,73.6 776.6,74.9 777,76.3 777.2,77.8 777.3,79.3 777.2,80.8 777,82.3 776.6,83.7 776.1,85 775.4,86.2 774.6,87.2 773.6,88.1 772.5,88.7 771.2,89.2 769.8,89.3" />
<path stroke="#000000" stroke-width="2" d="M 807.3,70" />
<path stroke="#000000" stroke-width="2" d="M 823.3,30 803.5,49.8 823.3,69.6" />
<path stroke="#000000" stroke-width="2" d="M 829.9,70" />
<path stroke="#000000" stroke-width="2" d="M 829.9,20 829.9,40 829.9,34 829.9,33.1 830,32.3 830.2,31.4 830.4,30.6 830.7,29.7 831.1,28.9 831.5,28.2 832,27.5 832.5,26.8 833.2,26.2 833.8,25.6 834.5,25.1 835.3,24.7 836.1,24.3 836.9,24 837.8,23.8 838.6,23.6 839.5,23.6" />
<path stroke="#000000" stroke-width="2" d="M 869.5,70" />
<path stroke="#000000" stroke-width="2" d="M 869.5,30 884.8,67" />
<path stroke="#000000" stroke-width="2" d="M 891.5,70" />
<path stroke="#000000" stroke-width="2" d="M 891.5,20 911.5,20" />
<path stroke="#000000" stroke-width="2" d="M 941.5,70" />
<path stroke="#000000" stroke-width="2" d="M 941.5,30 941.5,70 952.8,58.7" />
<path stroke="#000000" stroke-width="2" d="M 959.4,70" />
<path stroke="#000000" stroke-width="2" d="M 979.4,70 981.2,70 982.9,69.8 984.6,69.5 986.3,69.1 988,68.5 989.5,67.8 991.1,66.9 992.5,65.9 993.8,64.8 995.1,63.5 996.2,62.2 997.2,60.8 998.1,59.3 998.8,57.7 999.4,56 999.8,54.3 1000.1,52.6 1000.3,50.9 1000.3,49.1 1000.1,47.4 999.8,45.7 999.4,44 998.8,42.4 998.1,40.8 997.2,39.3 996.2,37.8 995.1,36.5 993.8,35.3 992.5,34.2 991.1,33.2 989.5,32.3 988,31.5 986.3,30.9 984.6,30.5 982.9,30.2 981.2,30 979.4,30 977.7,30.2 976,30.5 974.3,30.9 972.7,31.5 971.1,32.3 969.6,33.2 968.1,34.2 966.8,35.3 965.6,36.5 964.4,37.8 963.4,39.3 962.6,40.8 961.8,42.4 961.2,44 960.8,45.7 960.5,47.4 960.3,49.1 960.3,50.9 960.5,52.6 960.8,54.3 961.2,56 961.8,57.7 962.6,59.3 963.4,60.8 964.4,62.2 965.6,63.5 966.8,64.8 968.1,65.9 969.6,66.9 971.1,67.8 972.7,68.5 974.3,69.1 976,69.5 977.7,69.8 979.4,70" />
<path stroke="#000000" stroke-width="2" d="M 1030.3,70" />
<path stroke="#000000" stroke-width="2" d="M 1035.3,30" />
<path stroke="#000000" stroke-width="2" d="M 1035.3,30 1033.9,30.1 1032.6,30.6 1031.5,31.2 1030.5,32.1 1029.7,33.1 1029,34.3 1028.5,35.6 1028.1,37 1027.9,38.5 1027.8,40 1027.9,41.5 1028.1,43 1028.5,44.4 1029,45.7 1029.7,46.9 1030.5,47.9 1031.5,48.8 1032.6,49.4 1033.9,49.9 1035.3,50 1055.3,50" />
<path stroke="#000000" stroke-width="2" d="M 1085.3,70" />
</svg>