<svg xmlns="http://www.w3.org/2000/svg" width="541.5589664896754" height="92.0509145607538" style="fill:none; stroke-linecap:round;">
    <rect width="100%" height="100%" fill="#FFFFFF" />
<path stroke="#000000" stroke-width="2" d="M 550,75" />
<path stroke="#000000" stroke-width="2" d="M 20,30 60,30" />
<path stroke="#000000" stroke-width="2" d="M 66.7,70" />
<path stroke="#000000" stroke-width="2" d="M 66.7,28 66.7,27.3 66.7,26.6 66.8,25.9 67,25.2 67.3,24.6 67.6,24 67.9,23.4 68.3,22.8 68.8,22.2 69.3,21.8 69.8,21.3 70.4,20.9 71,20.6 71.6,20.3 72.3,20 72.9,19.8 73.6,19.7 74.3,19.7 75,19.7 75.7,19.7 76.4,19.8 77.1,20 77.7,20.3 78.4,20.6 79,20.9 79.5,21.3 80.1,21.8 80.6,22.2 81,22.8 81.4,23.4 81.8,24 82.1,24.6 82.3,25.2 82.5,25.9 82.6,26.6 82.7,27.3" />
<path stroke="#000000" stroke-width="2" d="M 89.3,70" />
<path stroke="#000000" stroke-width="2" d="M 89.3,50 89.3,70 89.3,64 89.3,63.1 89.4,62.3 89.5,61.4 89.8,60.6 90.1,59.7 90.4,58.9 90.9,58.2 91.4,57.5 91.9,56.8 92.6,56.2 93.2,55.6 93.9,55.1 94.7,54.7 95.5,54.3 96.3,54 97.1,53.8 98,53.6 98.9,53.6" />
<path stroke="#000000" stroke-width="2" d="M 105.5,70" />
<path stroke="#000000" stroke-width="2" d="M 115.5,20 116.1,20 116.6,20 117.1,20.1 117.6,20.3 118.1,20.5 118.6,20.7 119,20.9 119.5,21.2 119.9,21.6 120.2,21.9 120.6,22.3 120.9,22.8 121.1,23.2 121.3,23.7 121.5,24.2 121.7,24.7 121.7,25.2 121.8,25.7 121.8,26.3 121.7,26.8 121.7,27.3 121.5,27.8 121.3,28.3 121.1,28.8 120.9,29.2 120.6,29.6 120.2,30 119.9,30.4 119.5,30.8 119,31.1 118.6,31.3 118.1,31.5 117.6,31.7 117.1,31.9 116.6,31.9 116.1,32 115.5,32 115,31.9 114.5,31.9 114,31.7 113.5,31.5 113,31.3 112.6,31.1 112.1,30.8 111.7,30.4 111.4,30 111,29.6 110.7,29.2 110.5,28.8 110.3,28.3 110.1,27.8 109.9,27.3 109.9,26.8 109.8,26.3 109.8,25.7 109.9,25.2 109.9,24.7 110.1,24.2 110.3,23.7 110.5,23.2 110.7,22.8 111,22.3 111.4,21.9 111.7,21.6 112.1,21.2 112.6,20.9 113,20.7 113.5,20.5 114,20.3 114.5,20.1 115,20 115.5,20 115.5,40" />
<path stroke="#000000" stroke-width="2" d="M 151.8,70" />
<path stroke="#000000" stroke-width="2" d="M 151.8,30 167.1,67" />
<path stroke="#000000" stroke-width="2" d="M 173.8,70" />
<path stroke="#000000" stroke-width="2" d="M 173.8,20" />
<path stroke="#000000" stroke-width="2" d="M 173.8,20 175.2,20.1 176.5,20.6 177.6,21.2 178.6,22.1 179.4,23.1 180.1,24.3 180.6,25.6 181,27 181.2,28.5 181.3,30 181.2,31.5 181,33 180.6,34.4 180.1,35.7 179.4,36.9 178.6,37.9 177.6,38.8 176.5,39.4 175.2,39.9 173.8,40" />
<path stroke="#000000" stroke-width="2" d="M 211.3,70" />
<path stroke="#000000" stroke-width="2" d="M 211.3,30 251.3,30" />
<path stroke="#000000" stroke-width="2" d="M 281.3,70" />
<path stroke="#000000" stroke-width="2" d="M 281.3,40 281.5,40 281.5,40.2 281.3,40.2 281.3,40" />
<path stroke="#000000" stroke-width="2" d="M 288.1,70" />
<path stroke="#000000" stroke-width="2" d="M 290.1,50 295.5,37.1 295.6,36.7 295.7,36.4 295.8,36.1 295.9,35.7 295.9,35.4 295.9,35 295.8,34.7 295.7,34.3 295.6,34 295.5,33.7 295.3,33.4 295.1,33.1 294.9,32.8 294.7,32.5 294.4,32.3 294.2,32.1 293.9,31.9 293.6,31.7 293.2,31.6 292.9,31.5 292.6,31.4 292.2,31.4 291.9,31.4 291.5,31.4 291.2,31.4 290.8,31.5 290.5,31.6 290.2,31.7 289.9,31.9 289.6,32.1 289.3,32.3 289,32.5 288.8,32.8 288.6,33.1 288.4,33.4 288.2,33.7 288.1,34 288,34.3 287.9,34.7 287.9,35 287.9,35.4 287.9,35.7 287.9,36.1 288,36.4 288.1,36.7 288.2,37.1 288.4,37.4 288.6,37.7 288.8,37.9 289,38.2 289.3,38.4 289.6,38.7 289.9,38.8 290.2,39 290.5,39.1 290.8,39.2 291.2,39.3 291.5,39.4 291.9,39.4 292.2,39.4 305.2,34 310.2,34 310.2,54" />
<path stroke="#000000" stroke-width="2" d="M 316.8,70" />
<path stroke="#000000" stroke-width="2" d="M 316.8,50 316.8,70 316.8,64 316.8,63.1 316.9,62.3 317,61.4 317.3,60.6 317.6,59.7 317.9,58.9 318.4,58.2 318.9,57.5 319.4,56.8 320.1,56.2 320.7,55.6 321.4,55.1 322.2,54.7 323,54.3 323.8,54 324.6,53.8 325.5,53.6 326.4,53.6 318.7,72.1" />
<path stroke="#000000" stroke-width="2" d="M 356.4,70" />
<path stroke="#000000" stroke-width="2" d="M 376.4,30 361.1,67" />
<path stroke="#000000" stroke-width="2" d="M 383,70" />
<path stroke="#000000" stroke-width="2" d="M 389,50" />
<path stroke="#000000" stroke-width="2" d="M 389,50 388.9,52 388.6,53.6 388.2,54.9 387.6,55.8 386.9,56.3 386.2,56.6 385.5,56.7 384.7,56.5 384,56.1 383.4,55.6 382.9,55 382.6,54.3 382.4,53.6 382.4,52.8 382.7,52.1 383.3,51.4 384.2,50.9 385.4,50.4 387,50.1 389,50 393,50" />
<path stroke="#000000" stroke-width="2" d="M 393,50 393.9,50.3 394.7,50.7 395.5,51 396.2,51.4 396.8,51.8 397.4,52.3 398,52.7 398.4,53.2 398.9,53.7 399.3,54.2 399.6,54.8 400,55.3 400.2,55.9 400.4,56.5 400.6,57 400.8,57.6 400.9,58.2 401,58.8 401,59.4 401,60" />
<path stroke="#000000" stroke-width="2" d="M 407.7,70" />
<path stroke="#000000" stroke-width="2" d="M 407.7,50 415.4,68.5" />
<path stroke="#000000" stroke-width="2" d="M 422,70" />
<path stroke="#000000" stroke-width="2" d="M 432,50 424.4,68.5" />
<path stroke="#000000" stroke-width="2" d="M 462,70" />
<path stroke="#000000" stroke-width="2" d="M 462,40 462.2,40 462.2,40.2 462,40.2 462,40" />
<path stroke="#000000" stroke-width="2" d="M 468.9,70" />
<path stroke="#000000" stroke-width="2" d="M 484.9,30" />
<path stroke="#000000" stroke-width="2" d="M 484.9,30 484.7,34.1 484.1,37.3 483.2,39.8 482,41.5 480.7,42.7 479.2,43.2 477.7,43.3 476.3,43 474.9,42.3 473.6,41.2 472.6,40 471.9,38.6 471.6,37.2 471.7,35.7 472.2,34.2 473.4,32.9 475.1,31.7 477.6,30.8 480.8,30.2 484.9,30 504.9,30" />
<path stroke="#000000" stroke-width="2" d="M 511.6,70" />
<path stroke="#000000" stroke-width="2" d="M 521.6,20 513.9,38.5" />
<path stroke="#000000" stroke-width="2" d="M 551.6,70" />
</svg>