<svg xmlns="http://www.w3.org/2000/svg" width="1354.1710055786261" height="96.654375" style="fill:none; stroke-linecap:round;">
    <rect width="100%" height="100%" fill="#FFFFFF" />
<path stroke="#000000" stroke-width="2" d="M 550,75" />
<path stroke="#000000" stroke-width="2" d="M 20,70 20.2,70 20.2,70.2 20,70.2 20,70" />
<path stroke="#000000" stroke-width="2" d="M 26.9,70" />
<path stroke="#000000" stroke-width="2" d="M 46.9,70 48.6,70 50.3,69.8 52.1,69.5 53.8,69.1 55.4,68.5 57,67.8 58.5,66.9 59.9,65.9 61.3,64.8 62.5,63.5 63.6,62.2 64.6,60.8 65.5,59.3 66.2,57.7 66.8,56 67.3,54.3 67.6,52.6 67.7,50.9 67.7,49.1 67.6,47.4 67.3,45.7 66.8,44 66.2,42.4 65.5,40.8 64.6,39.3 63.6,37.8 62.5,36.5 61.3,35.3 59.9,34.2 58.5,33.2 57,32.3 55.4,31.5 53.8,30.9 52.1,30.5 50.3,30.2 48.6,30 46.9,30 45.1,30.2 43.4,30.5 41.7,30.9 40.1,31.5 38.5,32.3 37,33.2 35.6,34.2 34.2,35.3 33,36.5 31.9,37.8 30.9,39.3 30,40.8 29.3,42.4 28.7,44 28.2,45.7 27.9,47.4 27.8,49.1 27.8,50.9 27.9,52.6 28.2,54.3 28.7,56 29.3,57.7 30,59.3 30.9,60.8 31.9,62.2 33,63.5 34.2,64.8 35.6,65.9 37,66.9 38.5,67.8 40.1,68.5 41.7,69.1 43.4,69.5 45.1,69.8 46.9,70" />
<path stroke="#000000" stroke-width="2" d="M 74.4,70" />
<path stroke="#000000" stroke-width="2" d="M 74.4,30 74.4,50 74.4,44 74.4,43.1 74.5,42.3 74.6,41.4 74.8,40.6 75.1,39.7 75.5,38.9 75.9,38.2 76.4,37.5 77,36.8 77.6,36.2 78.3,35.6 79,35.1 79.8,34.7 80.6,34.3 81.4,34 82.2,33.8 83.1,33.6 83.9,33.6 84.8,33.6 85.7,33.6 86.5,33.8 87.4,34 88.2,34.3 89,34.7 89.8,35.1 90.5,35.6 91.1,36.2 91.7,36.8 92.3,37.5 92.8,38.2 93.2,38.9 93.6,39.7 93.9,40.6 94.1,41.4 94.3,42.3 94.4,43.1 94.4,44 94.3,44.9 94.1,45.7 93.9,46.6 93.6,47.4 93.2,48.2 92.8,48.9 92.3,49.7 91.7,50.3 91.1,50.9 90.5,51.5 89.8,52 89,52.4 88.2,52.8 87.4,53.1 86.5,53.3 85.7,53.5 84.8,53.6" />
<path stroke="#000000" stroke-width="2" d="M 124.4,70" />
<path stroke="#000000" stroke-width="2" d="M 124.4,30 124.4,31.4 124.5,32.8 124.7,34.2 125.1,35.5 125.6,36.8 126.2,38.1 126.9,39.3 127.7,40.4 128.6,41.5 129.5,42.5 130.6,43.4 131.8,44.2 133,44.9 134.2,45.5 135.5,46 136.9,46.3 138.3,46.6 139.7,46.7 141.1,46.7 142.4,46.6 143.8,46.3 145.2,46 146.5,45.5 147.7,44.9 148.9,44.2 150.1,43.4 151.2,42.5 152.1,41.5 153,40.4 153.8,39.3 154.5,38.1 155.1,36.8 155.6,35.5 156,34.2 156.2,32.8 156.3,31.4" />
<path stroke="#000000" stroke-width="2" d="M 163,70" />
<path stroke="#000000" stroke-width="2" d="M 163,70 163,69.3 163.1,68.6 163.2,67.9 163.4,67.2 163.6,66.6 163.9,66 164.2,65.4 164.6,64.8 165.1,64.2 165.6,63.8 166.1,63.3 166.7,62.9 167.3,62.6 167.9,62.3 168.6,62 169.3,61.8 170,61.7 170.6,61.7 171.3,61.7 172,61.7 172.7,61.8 173.4,62 174.1,62.3 174.7,62.6 175.3,62.9 175.9,63.3 176.4,63.8 176.9,64.2 177.3,64.8 177.7,65.4 178.1,66 178.4,66.6 178.6,67.2 178.8,67.9 178.9,68.6 179,69.3" />
<path stroke="#000000" stroke-width="2" d="M 185.7,70" />
<path stroke="#000000" stroke-width="2" d="M 193.7,20 193.7,35" />
<path stroke="#000000" stroke-width="2" d="M 193.7,35 193.5,37 193.3,38.6 192.8,39.9 192.2,40.8 191.5,41.3 190.8,41.6 190.1,41.7 189.3,41.5 188.6,41.1 188,40.6 187.5,40 187.2,39.3 187,38.6 187,37.8 187.3,37.1 187.9,36.4 188.8,35.9 190,35.4 191.6,35.1 193.7,35 213.7,35" />
<path stroke="#000000" stroke-width="2" d="M 243.7,70" />
<path stroke="#000000" stroke-width="2" d="M 243.7,30 243.7,70 255,58.7" />
<path stroke="#000000" stroke-width="2" d="M 261.6,70" />
<path stroke="#000000" stroke-width="2" d="M 261.6,20 281.6,20 261.8,39.8 281.8,39.8" />
<path stroke="#000000" stroke-width="2" d="M 311.8,70" />
<path stroke="#000000" stroke-width="2" d="M 311.8,30 331.8,30 324.2,48.5" />
<path stroke="#000000" stroke-width="2" d="M 338.5,70" />
<path stroke="#000000" stroke-width="2" d="M 338.5,20 338.5,40 338.5,34 338.5,33.1 338.6,32.3 338.7,31.4 339,30.6 339.3,29.7 339.6,28.9 340.1,28.2 340.6,27.5 341.1,26.8 341.7,26.2 342.4,25.6 343.1,25.1 343.9,24.7 344.7,24.3 345.5,24 346.3,23.8 347.2,23.6 348.1,23.6 348.1,24.3 348.1,25 348.2,25.7 348.4,26.3 348.7,27 349,27.6 349.3,28.2 349.7,28.8 350.2,29.3 350.6,29.8 351.2,30.3 351.8,30.7 352.4,31 353,31.3 353.6,31.6 354.3,31.7 355,31.9 355.7,31.9 356.4,31.9 357.1,31.9 357.8,31.7 358.5,31.6 359.1,31.3 359.7,31 360.3,30.7 360.9,30.3 361.5,29.8 361.9,29.3 362.4,28.8 362.8,28.2 363.1,27.6 363.4,27 363.7,26.3 363.9,25.7 364,25 364,24.3" />
<path stroke="#000000" stroke-width="2" d="M 370.7,70" />
<path stroke="#000000" stroke-width="2" d="M 370.7,30 370.9,30 370.9,30.2 370.7,30.2 370.7,30" />
<path stroke="#000000" stroke-width="2" d="M 400.9,70" />
<path stroke="#000000" stroke-width="2" d="M 400.9,30 440.9,30" />
<path stroke="#000000" stroke-width="2" d="M 447.6,70" />
<path stroke="#000000" stroke-width="2" d="M 467.6,20 447.8,39.8" />
<path stroke="#000000" stroke-width="2" d="M 447.8,19.8 467.6,39.6" />
<path stroke="#000000" stroke-width="2" d="M 467.6,39.6 467.5,41.6 467.2,43.2 466.7,44.5 466.1,45.4 465.5,45.9 464.7,46.2 464,46.3 463.3,46.1 462.6,45.7 462,45.2 461.5,44.6 461.1,43.9 460.9,43.2 461,42.4 461.2,41.7 461.8,41 462.7,40.5 463.9,40 465.5,39.7 467.6,39.6 477.6,39.6 477.6,40.3 477.6,41 477.8,41.7 477.9,42.4 478.2,43 478.5,43.6 478.8,44.2 479.2,44.8 479.7,45.4 480.2,45.8 480.7,46.3 481.3,46.7 481.9,47 482.5,47.3 483.2,47.6 483.8,47.8 484.5,47.9 485.2,47.9 485.9,47.9 486.6,47.9 487.3,47.8 488,47.6 488.6,47.3 489.3,47 489.9,46.7 490.4,46.3 491,45.8 491.5,45.4 491.9,44.8 492.3,44.2 492.7,43.6 493,43 493.2,42.4 493.4,41.7 493.5,41 493.6,40.3" />
<path stroke="#000000" stroke-width="2" d="M 500.2,70" />
<path stroke="#000000" stroke-width="2" d="M 500.2,70 500.2,68.6 500.3,67.2 500.6,65.8 501,64.5 501.4,63.2 502,61.9 502.7,60.7 503.5,59.6 504.4,58.5 505.4,57.5 506.5,56.6 507.6,55.8 508.8,55.1 510.1,54.5 511.4,54 512.7,53.7 514.1,53.4 515.5,53.3 516.9,53.3 518.3,53.4 519.7,53.7 521,54 522.3,54.5 523.6,55.1 524.8,55.8 526,56.6 527,57.5 528,58.5 528.9,59.6 529.7,60.7 530.4,61.9 531,63.2 531.5,64.5 531.8,65.8 532.1,67.2 532.2,68.6" />
<path stroke="#000000" stroke-width="2" d="M 538.9,70" />
<path stroke="#000000" stroke-width="2" d="M 538.9,20 538.9,40 538.9,40.7 538.9,41.4 539,42.1 539.2,42.8 539.5,43.4 539.8,44 540.1,44.6 540.5,45.2 541,45.8 541.5,46.2 542,46.7 542.6,47.1 543.2,47.4 543.8,47.7 544.5,48 545.1,48.2 545.8,48.3 546.5,48.3 547.2,48.3 547.9,48.3 548.6,48.2 549.3,48 549.9,47.7 550.5,47.4 551.2,47.1 551.7,46.7 552.3,46.2 552.8,45.8 553.2,45.2 553.6,44.6 554,44 554.2,43.4 554.5,42.8 554.7,42.1 554.8,41.4 554.8,40.7" />
<path stroke="#000000" stroke-width="2" d="M 584.8,70" />
<path stroke="#000000" stroke-width="2" d="M 584.8,50 585,50 585,50.2 584.8,50.2 584.8,50 584.8,70 584.8,64 584.8,63.1 584.9,62.3 585.1,61.4 585.3,60.6 585.6,59.7 586,58.9 586.4,58.2 586.9,57.5 587.5,56.8 588.1,56.2 588.8,55.6 589.5,55.1 590.2,54.7 591,54.3 591.8,54 592.7,53.8 593.5,53.6 594.4,53.6" />
<path stroke="#000000" stroke-width="2" d="M 601.1,70" />
<path stroke="#000000" stroke-width="2" d="M 611.1,40 611.9,40 612.8,39.9 613.7,39.8 614.5,39.5 615.3,39.2 616.1,38.9 616.9,38.4 617.6,37.9 618.3,37.4 618.9,36.8 619.4,36.1 619.9,35.4 620.4,34.6 620.7,33.8 621,33 621.3,32.2 621.4,31.3 621.5,30.4 621.5,29.6 621.4,28.7 621.3,27.8 621,27 620.7,26.2 620.4,25.4 619.9,24.6 619.4,23.9 618.9,23.3 618.3,22.6 617.6,22.1 616.9,21.6 616.1,21.1 615.3,20.8 614.5,20.5 613.7,20.2 612.8,20.1 611.9,20 611.1,20 610.2,20.1 609.3,20.2 608.5,20.5 607.7,20.8 606.9,21.1 606.1,21.6 605.4,22.1 604.7,22.6 604.1,23.3 603.6,23.9 603.1,24.6 602.6,25.4 602.3,26.2 602,27 601.7,27.8 601.6,28.7 601.5,29.6 601.5,30.4 601.6,31.3 601.7,32.2 602,33 602.3,33.8 602.6,34.6 603.1,35.4 603.6,36.1 604.1,36.8 604.7,37.4 605.4,37.9 606.1,38.4 606.9,38.9 607.7,39.2 608.5,39.5 609.3,39.8 610.2,39.9 611.1,40 611.1,60 611.1,54 611.1,53.1 611.1,52.3 611.3,51.4 611.5,50.6 611.8,49.7 612.2,48.9 612.6,48.2 613.1,47.5 613.7,46.8 614.3,46.2 615,45.6 615.7,45.1 616.4,44.7 617.2,44.3 618.1,44 618.9,43.8 619.8,43.6 620.6,43.6" />
<path stroke="#000000" stroke-width="2" d="M 651.5,70" />
<path stroke="#000000" stroke-width="2" d="M 671.5,70 673.2,70 675,69.8 676.7,69.5 678.4,69.1 680,68.5 681.6,67.8 683.1,66.9 684.5,65.9 685.9,64.8 687.1,63.5 688.2,62.2 689.2,60.8 690.1,59.3 690.8,57.7 691.4,56 691.9,54.3 692.2,52.6 692.3,50.9 692.3,49.1 692.2,47.4 691.9,45.7 691.4,44 690.8,42.4 690.1,40.8 689.2,39.3 688.2,37.8 687.1,36.5 685.9,35.3 684.5,34.2 683.1,33.2 681.6,32.3 680,31.5 678.4,30.9 676.7,30.5 675,30.2 673.2,30 671.5,30 669.8,30.2 668,30.5 666.4,30.9 664.7,31.5 663.1,32.3 661.6,33.2 660.2,34.2 658.9,35.3 657.6,36.5 656.5,37.8 655.5,39.3 654.6,40.8 653.9,42.4 653.3,44 652.8,45.7 652.5,47.4 652.4,49.1 652.4,50.9 652.5,52.6 652.8,54.3 653.3,56 653.9,57.7 654.6,59.3 655.5,60.8 656.5,62.2 657.6,63.5 658.9,64.8 660.2,65.9 661.6,66.9 663.1,67.8 664.7,68.5 666.4,69.1 668,69.5 669.8,69.8 671.5,70" />
<path stroke="#000000" stroke-width="2" d="M 699,70" />
<path stroke="#000000" stroke-width="2" d="M 699,20 719,20" />
<path stroke="#000000" stroke-width="2" d="M 749,70" />
<path stroke="#000000" stroke-width="2" d="M 749,30 749,70" />
<path stroke="#000000" stroke-width="2" d="M 755.7,70" />
<path stroke="#000000" stroke-width="2" d="M 767.7,26 767.7,26.5 767.6,27 767.5,27.6 767.4,28.1 767.2,28.6 767,29 766.7,29.5 766.4,29.9 766.1,30.3 765.7,30.7 765.3,31 764.9,31.3 764.5,31.6 764,31.8 763.5,32 763,32.1 762.5,32.2 761.9,32.3 761.4,32.3 760.9,32.2 760.4,32.1 759.9,32 759.4,31.8 758.9,31.6 758.5,31.3 758,31 757.6,30.7 757.3,30.3 756.9,29.9 756.6,29.5 756.4,29 756.1,28.6 756,28.1 755.8,27.6 755.7,27 755.7,26.5 755.7,26 755.7,25.5 755.8,25 756,24.5 756.1,24 756.4,23.5 756.6,23 756.9,22.6 757.3,22.2 757.6,21.8 758,21.5 758.5,21.2 758.9,20.9 759.4,20.7 759.9,20.5 760.4,20.4 760.9,20.3 761.4,20.3 761.9,20.3 762.5,20.3 763,20.4 763.5,20.5 764,20.7 764.5,20.9 764.9,21.2 765.3,21.5 765.7,21.8 766.1,22.2 766.4,22.6 766.7,23 767,23.5 767.2,24 767.4,24.5 767.5,25 767.6,25.5 767.7,26 767.7,30" />
<path stroke="#000000" stroke-width="2" d="M 767.7,30 767.4,30.9 767,31.7 766.7,32.4 766.3,33.1 765.8,33.8 765.4,34.4 764.9,34.9 764.5,35.4 763.9,35.9 763.4,36.2 762.9,36.6 762.4,36.9 761.8,37.2 761.2,37.4 760.7,37.6 760.1,37.7 759.5,37.9 758.9,37.9 758.3,38 757.7,38" />
<path stroke="#000000" stroke-width="2" d="M 797.7,70" />
<path stroke="#000000" stroke-width="2" d="M 797.7,30 837.7,30" />
<path stroke="#000000" stroke-width="2" d="M 867.7,70" />
<path stroke="#000000" stroke-width="2" d="M 867.7,70 867.9,70 867.9,70.2 867.7,70.2 867.7,70" />
<path stroke="#000000" stroke-width="2" d="M 874.5,70" />
<path stroke="#000000" stroke-width="2" d="M 890.5,30 870.8,49.8 890.5,69.6" />
<path stroke="#000000" stroke-width="2" d="M 897.2,70" />
<path stroke="#000000" stroke-width="2" d="M 897.2,55" />
<path stroke="#000000" stroke-width="2" d="M 897.2,55 899.2,54.9 900.9,54.6 902.1,54.1 903,53.6 903.5,52.9 903.8,52.2 903.9,51.4 903.7,50.7 903.3,50 902.8,49.4 902.2,48.9 901.5,48.5 900.8,48.3 900.1,48.4 899.3,48.7 898.7,49.2 898.1,50.1 897.6,51.4 897.3,53 897.2,55 897.2,70" />
<path stroke="#000000" stroke-width="2" d="M 897.2,70 897.1,72 896.8,73.6 896.4,74.9 895.8,75.8 895.1,76.3 894.4,76.6 893.6,76.7 892.9,76.5 892.2,76.1 891.6,75.6 891.1,75 890.7,74.3 890.6,73.6 890.6,72.8 890.9,72.1 891.5,71.4 892.3,70.9 893.6,70.4 895.2,70.1 897.2,70 907.2,70" />
<path stroke="#000000" stroke-width="2" d="M 913.9,70" />
<path stroke="#000000" stroke-width="2" d="M 933.9,30 918.6,67" />
<path stroke="#000000" stroke-width="2" d="M 940.5,70" />
<path stroke="#000000" stroke-width="2" d="M 940.5,20 940.5,20.7 940.6,21.4 940.7,22.1 940.9,22.8 941.2,23.4 941.4,24 941.8,24.6 942.2,25.2 942.6,25.8 943.1,26.2 943.7,26.7 944.2,27.1 944.8,27.4 945.5,27.7 946.1,28 946.8,28.2 947.5,28.3 948.2,28.3 948.9,28.3 949.6,28.3 950.3,28.2 950.9,28 951.6,27.7 952.2,27.4 952.8,27.1 953.4,26.7 953.9,26.2 954.4,25.8 954.9,25.2 955.3,24.6 955.6,24 955.9,23.4 956.2,22.8 956.4,22.1 956.5,21.4 956.5,20.7" />
<path stroke="#000000" stroke-width="2" d="M 986.5,70" />
<path stroke="#000000" stroke-width="2" d="M 986.5,30 986.5,70" />
<path stroke="#000000" stroke-width="2" d="M 993.2,70" />
<path stroke="#000000" stroke-width="2" d="M 993.2,20 994.1,20 994.9,20.1 995.8,20.2 996.6,20.5 997.5,20.8 998.3,21.1 999,21.6 999.7,22.1 1000.4,22.6 1001,23.2 1001.6,23.9 1002.1,24.6 1002.5,25.4 1002.9,26.2 1003.2,27 1003.4,27.8 1003.6,28.7 1003.6,29.6 1003.6,30.4 1003.6,31.3 1003.4,32.2 1003.2,33 1002.9,33.8 1002.5,34.6 1002.1,35.4 1001.6,36.1 1001,36.7 1000.4,37.4 999.7,37.9 999,38.4 998.3,38.9 997.5,39.2 996.6,39.5 995.8,39.8 994.9,39.9 994.1,40" />
<path stroke="#000000" stroke-width="2" d="M 1033.6,70" />
<path stroke="#000000" stroke-width="2" d="M 1033.6,30 1033.6,50 1043.6,50 1043.6,70 1049.3,64.3" />
<path stroke="#000000" stroke-width="2" d="M 1056,70" />
<path stroke="#000000" stroke-width="2" d="M 1056,20 1076,20 1056.2,39.8 1076.2,39.8" />
<path stroke="#000000" stroke-width="2" d="M 1106.2,70" />
<path stroke="#000000" stroke-width="2" d="M 1118.2,30 1119.2,30 1120.2,30.1 1121.3,30.3 1122.3,30.5 1123.3,30.9 1124.2,31.3 1125.1,31.9 1126,32.5 1126.8,33.1 1127.5,33.9 1128.2,34.7 1128.8,35.5 1129.3,36.4 1129.8,37.4 1130.1,38.4 1130.4,39.4 1130.6,40.4 1130.7,41.5 1130.7,42.5 1130.6,43.6 1130.4,44.6 1130.1,45.6 1129.8,46.6 1129.3,47.5 1128.8,48.4 1128.2,49.3 1127.5,50.1 1126.8,50.8 1126,51.5 1125.1,52.1 1124.2,52.6 1123.3,53.1 1122.3,53.4 1121.3,53.7 1120.2,53.9 1119.2,54 1118.2,54 1117.1,53.9 1116.1,53.7 1115.1,53.4 1114.1,53.1 1113.1,52.6 1112.2,52.1 1111.4,51.5 1110.6,50.8 1109.8,50.1 1109.2,49.3 1108.6,48.4 1108,47.5 1107.6,46.6 1107.2,45.6 1107,44.6 1106.8,43.6 1106.7,42.5 1106.7,41.5 1106.8,40.4 1107,39.4 1107.2,38.4 1107.6,37.4 1108,36.4 1108.6,35.5 1109.2,34.7 1109.8,33.9 1110.6,33.1 1111.4,32.5 1112.2,31.9 1113.1,31.3 1114.1,30.9 1115.1,30.5 1116.1,30.3 1117.1,30.1 1118.2,30 1126.2,30" />
<path stroke="#000000" stroke-width="2" d="M 1126.2,30 1127.9,30.6 1129.5,31.3 1131,32.1 1132.4,32.8 1133.7,33.7 1134.9,34.6 1136,35.5 1137,36.5 1137.9,37.5 1138.7,38.5 1139.4,39.6 1140,40.7 1140.5,41.8 1141,42.9 1141.3,44.1 1141.6,45.2 1141.9,46.4 1142,47.6 1142.1,48.8 1142.2,50" />
<path stroke="#000000" stroke-width="2" d="M 1148.8,70" />
<path stroke="#000000" stroke-width="2" d="M 1156.8,50" />
<path stroke="#000000" stroke-width="2" d="M 1156.8,50 1156.7,52 1156.4,53.6 1156,54.9 1155.4,55.8 1154.7,56.3 1154,56.6 1153.2,56.7 1152.5,56.5 1151.8,56.1 1151.2,55.6 1150.7,55 1150.3,54.3 1150.2,53.6 1150.2,52.8 1150.5,52.1 1151.1,51.4 1151.9,50.9 1153.2,50.4 1154.8,50.1 1156.8,50 1166.8,50" />
<path stroke="#000000" stroke-width="2" d="M 1173.5,70" />
<path stroke="#000000" stroke-width="2" d="M 1173.5,20 1174.4,20 1175.2,20.1 1176.1,20.2 1176.9,20.5 1177.7,20.8 1178.5,21.1 1179.3,21.6 1180,22.1 1180.7,22.6 1181.3,23.2 1181.9,23.9 1182.4,24.6 1182.8,25.4 1183.2,26.2 1183.5,27 1183.7,27.8 1183.8,28.7 1183.9,29.6 1183.9,30.4 1183.8,31.3 1183.7,32.2 1183.5,33 1183.2,33.8 1182.8,34.6 1182.4,35.4 1181.9,36.1 1181.3,36.7 1180.7,37.4 1180,37.9 1179.3,38.4 1178.5,38.9 1177.7,39.2 1176.9,39.5 1176.1,39.8 1175.2,39.9 1174.4,40" />
<path stroke="#000000" stroke-width="2" d="M 1213.9,70" />
<path stroke="#000000" stroke-width="2" d="M 1213.9,30 1217.7,39.2" />
<path stroke="#000000" stroke-width="2" d="M 1217.7,39.2 1219.7,41.4 1221,43.3 1221.8,45 1222.1,46.4 1222,47.7 1221.5,48.7 1220.8,49.5 1219.9,50 1218.9,50.4 1217.7,50.5 1216.6,50.4 1215.6,50 1214.7,49.5 1214,48.7 1213.5,47.7 1213.4,46.4 1213.7,45 1214.5,43.3 1215.8,41.4 1217.7,39.2 1221.6,30" />
<path stroke="#000000" stroke-width="2" d="M 1221.6,30 1221.5,32 1221.2,33.6 1220.7,34.9 1220.1,35.8 1219.5,36.3 1218.7,36.6 1218,36.7 1217.2,36.5 1216.6,36.1 1215.9,35.6 1215.4,35 1215.1,34.3 1214.9,33.6 1215,32.8 1215.2,32.1 1215.8,31.4 1216.7,30.9 1217.9,30.4 1219.5,30.1 1221.6,30 1231.6,30" />
<path stroke="#000000" stroke-width="2" d="M 1261.6,70" />
<path stroke="#000000" stroke-width="2" d="M 1261.6,70 1276.9,33 1276.9,41 1276.9,42.1 1277,43.1 1277.1,44.2 1277.4,45.2 1277.8,46.2 1278.2,47.1 1278.7,48 1279.3,48.9 1280,49.7 1280.8,50.4 1281.6,51.1 1282.4,51.7 1283.3,52.2 1284.3,52.7 1285.3,53 1286.3,53.3 1287.3,53.5 1288.3,53.6 1289.4,53.6 1290.4,53.5 1291.5,53.3 1292.5,53 1293.5,52.7 1294.4,52.2 1295.3,51.7 1296.2,51.1 1297,50.4 1297.7,49.7 1298.4,48.9 1299,48 1299.5,47.1 1299.9,46.2 1300.3,45.2 1300.6,44.2 1300.8,43.1 1300.8,42.1 1300.8,32.1 1300.8,72.1" />
<path stroke="#000000" stroke-width="2" d="M 1307.5,70" />
<path stroke="#000000" stroke-width="2" d="M 1307.5,20 1327.5,20" />
<path stroke="#000000" stroke-width="2" d="M 1327.5,20 1329.5,19.9 1331.2,19.6 1332.4,19.1 1333.3,18.6 1333.8,17.9 1334.1,17.2 1334.2,16.4 1334,15.7 1333.6,15 1333.1,14.4 1332.5,13.9 1331.8,13.5 1331.1,13.3 1330.4,13.4 1329.6,13.7 1329,14.2 1328.4,15.1 1327.9,16.4 1327.6,18 1327.5,20 1327.5,35 1319.9,53.5" />
<path stroke="#000000" stroke-width="2" d="M 1364.2,70" />
</svg>