<svg xmlns="http://www.w3.org/2000/svg" width="967.8765297311995" height="90.0" style="fill:none; stroke-linecap:round;">
    <rect width="100%" height="100%" fill="#FFFFFF" />
<path stroke="#000000" stroke-width="2" d="M 550,75" />
<path stroke="#000000" stroke-width="2" d="M 20,30 30,30 30,70" />
<path stroke="#000000" stroke-width="2" d="M 36.7,70" />
<path stroke="#000000" stroke-width="2" d="M 36.7,30 41.7,30 41.7,50 34,68.5" />
<path stroke="#000000" stroke-width="2" d="M 48.3,70" />
<path stroke="#000000" stroke-width="2" d="M 48.3,20 68.3,20" />
<path stroke="#000000" stroke-width="2" d="M 98.3,70" />
<path stroke="#000000" stroke-width="2" d="M 98.3,30 98.3,38 98.3,39 98.4,40.1 98.6,41.1 98.9,42.1 99.2,43.1 99.7,44.1 100.2,45 100.8,45.8 101.5,46.6 102.2,47.4 103,48 103.9,48.6 104.8,49.2 105.7,49.6 106.7,50 107.7,50.2 108.8,50.4 109.8,50.5 110.8,50.5 111.9,50.4 112.9,50.2 113.9,50 114.9,49.6 115.9,49.2 116.8,48.6 117.6,48 118.4,47.4 119.2,46.6 119.8,45.8 120.4,45 121,44.1 121.4,43.1 121.8,42.1 122,41.1 122.2,40.1 122.3,39 122.3,29 122.3,69" />
<path stroke="#000000" stroke-width="2" d="M 129,70" />
<path stroke="#000000" stroke-width="2" d="M 129,20 129,20.7 129,21.4 129.2,22.1 129.3,22.8 129.6,23.4 129.9,24 130.2,24.6 130.6,25.2 131.1,25.8 131.6,26.2 132.1,26.7 132.7,27.1 133.3,27.4 133.9,27.7 134.6,28 135.2,28.2 135.9,28.3 136.6,28.3 137.3,28.3 138,28.3 138.7,28.2 139.4,28 140,27.7 140.7,27.4 141.3,27.1 141.8,26.7 142.4,26.2 142.9,25.8 143.3,25.2 143.7,24.6 144.1,24 144.4,23.4 144.6,22.8 144.8,22.1 144.9,21.4 145,20.7" />
<path stroke="#000000" stroke-width="2" d="M 151.6,70" />
<path stroke="#000000" stroke-width="2" d="M 171.6,20 151.8,39.8" />
<path stroke="#000000" stroke-width="2" d="M 151.8,19.8 171.6,39.6" />
<path stroke="#000000" stroke-width="2" d="M 178.3,70" />
<path stroke="#000000" stroke-width="2" d="M 178.3,40" />
<path stroke="#000000" stroke-width="2" d="M 178.3,40 182.4,39.8 185.6,39.2 188,38.3 189.8,37.1 191,35.8 191.5,34.3 191.6,32.8 191.3,31.4 190.5,30 189.5,28.8 188.3,27.7 186.9,27 185.5,26.7 184,26.8 182.5,27.3 181.2,28.5 180,30.2 179.1,32.7 178.5,35.9 178.3,40 178.3,70" />
<path stroke="#000000" stroke-width="2" d="M 221.6,70" />
<path stroke="#000000" stroke-width="2" d="M 226.6,30" />
<path stroke="#000000" stroke-width="2" d="M 226.6,30 225.2,30.1 223.9,30.6 222.8,31.2 221.8,32.1 221,33.1 220.3,34.3 219.8,35.6 219.4,37 219.2,38.5 219.1,40 219.2,41.5 219.4,43 219.8,44.4 220.3,45.7 221,46.9 221.8,47.9 222.8,48.8 223.9,49.4 225.2,49.9 226.6,50" />
<path stroke="#000000" stroke-width="2" d="M 226.6,40" />
<path stroke="#000000" stroke-width="2" d="M 210.6,40 230.6,40 235.6,40 235.6,60 235.6,59.1 235.7,58.3 235.8,57.4 236.1,56.6 236.4,55.7 236.7,54.9 237.2,54.2 237.7,53.5 238.2,52.8 238.8,52.2 239.5,51.6 240.2,51.1 241,50.7 241.8,50.3 242.6,50 243.4,49.8 244.3,49.6 245.2,49.6" />
<path stroke="#000000" stroke-width="2" d="M 251.8,70" />
<path stroke="#000000" stroke-width="2" d="M 251.8,50 259.5,68.5" />
<path stroke="#000000" stroke-width="2" d="M 289.5,70" />
<path stroke="#000000" stroke-width="2" d="M 291.5,50 296.8,37.1 297,36.7 297.1,36.4 297.2,36.1 297.2,35.7 297.2,35.4 297.2,35 297.2,34.7 297.1,34.3 297,34 296.8,33.7 296.7,33.4 296.5,33.1 296.3,32.8 296,32.5 295.8,32.3 295.5,32.1 295.2,31.9 294.9,31.7 294.6,31.6 294.2,31.5 293.9,31.4 293.6,31.4 293.2,31.4 292.9,31.4 292.5,31.4 292.2,31.5 291.8,31.6 291.5,31.7 291.2,31.9 290.9,32.1 290.6,32.3 290.4,32.5 290.1,32.8 289.9,33.1 289.7,33.4 289.6,33.7 289.5,34 289.3,34.3 289.3,34.7 289.2,35 289.2,35.4 289.2,35.7 289.3,36.1 289.3,36.4 289.5,36.7 289.6,37.1 289.7,37.4 289.9,37.7 290.1,37.9 290.4,38.2 290.6,38.4 290.9,38.7 291.2,38.8 291.5,39 291.8,39.1 292.2,39.2 292.5,39.3 292.9,39.4 293.2,39.4 293.6,39.4 306.5,34" />
<path stroke="#000000" stroke-width="2" d="M 306.5,34 304.5,33.9 302.8,33.6 301.6,33.1 300.7,32.6 300.2,31.9 299.9,31.2 299.8,30.4 300,29.7 300.4,29 300.9,28.4 301.5,27.9 302.2,27.5 302.9,27.3 303.7,27.4 304.4,27.7 305.1,28.2 305.6,29.1 306.1,30.4 306.4,32 306.5,34 306.5,49" />
<path stroke="#000000" stroke-width="2" d="M 313.2,70" />
<path stroke="#000000" stroke-width="2" d="M 313.2,25" />
<path stroke="#000000" stroke-width="2" d="M 313.2,25 315.2,24.9 316.8,24.6 318,24.1 318.9,23.6 319.5,22.9 319.8,22.2 319.8,21.4 319.6,20.7 319.3,20 318.8,19.4 318.2,18.9 317.5,18.5 316.7,18.3 316,18.4 315.3,18.7 314.6,19.2 314,20.1 313.6,21.4 313.3,23 313.2,25 313.2,40 305.5,58.5 307.8,52.9 308.1,52.1 308.5,51.4 309,50.6 309.5,49.9 310.1,49.3 310.8,48.7 311.5,48.2 312.2,47.7 313,47.3 313.8,47 314.6,46.7 315.5,46.5" />
<path stroke="#000000" stroke-width="2" d="M 326.5,70" />
<path stroke="#000000" stroke-width="2" d="M 326.5,40 334.1,21.5 341.8,40" />
<path stroke="#000000" stroke-width="2" d="M 371.8,70" />
<path stroke="#000000" stroke-width="2" d="M 376.8,30" />
<path stroke="#000000" stroke-width="2" d="M 376.8,30 375.4,30.1 374.1,30.6 373,31.2 372,32.1 371.2,33.1 370.5,34.3 370,35.6 369.6,37 369.4,38.5 369.3,40 369.4,41.5 369.6,43 370,44.4 370.5,45.7 371.2,46.9 372,47.9 373,48.8 374.1,49.4 375.4,49.9 376.8,50 396.8,50" />
<path stroke="#000000" stroke-width="2" d="M 426.8,70" />
<path stroke="#000000" stroke-width="2" d="M 431.8,30" />
<path stroke="#000000" stroke-width="2" d="M 431.8,30 430.4,30.1 429.1,30.6 428,31.2 427,32.1 426.2,33.1 425.5,34.3 425,35.6 424.6,37 424.4,38.5 424.3,40 424.4,41.5 424.6,43 425,44.4 425.5,45.7 426.2,46.9 427,47.9 428,48.8 429.1,49.4 430.4,49.9 431.8,50 436.8,50 436.8,70" />
<path stroke="#000000" stroke-width="2" d="M 466.8,70" />
<path stroke="#000000" stroke-width="2" d="M 466.8,40" />
<path stroke="#000000" stroke-width="2" d="M 466.8,40 470.9,39.8 474.1,39.2 476.5,38.3 478.3,37.1 479.4,35.8 480,34.3 480.1,32.8 479.7,31.4 479,30 478,28.8 476.8,27.7 475.4,27 474,26.7 472.5,26.8 471,27.3 469.7,28.5 468.5,30.2 467.6,32.7 467,35.9 466.8,40 466.8,70" />
<path stroke="#000000" stroke-width="2" d="M 486.8,70" />
<path stroke="#000000" stroke-width="2" d="M 486.8,20 486.8,20.7 486.8,21.4 486.9,22.1 487.1,22.8 487.4,23.4 487.7,24 488,24.6 488.4,25.2 488.9,25.8 489.4,26.2 489.9,26.7 490.5,27.1 491.1,27.4 491.7,27.7 492.4,28 493,28.2 493.7,28.3 494.4,28.3 495.1,28.3 495.8,28.3 496.5,28.2 497.2,28 497.8,27.7 498.5,27.4 499.1,27.1 499.6,26.7 500.2,26.2 500.7,25.8 501.1,25.2 501.5,24.6 501.9,24 502.1,23.4 502.4,22.8 502.6,22.1 502.7,21.4 502.7,20.7" />
<path stroke="#000000" stroke-width="2" d="M 509.4,70" />
<path stroke="#000000" stroke-width="2" d="M 509.4,25" />
<path stroke="#000000" stroke-width="2" d="M 509.4,25 511.4,24.9 513.1,24.6 514.3,24.1 515.2,23.6 515.7,22.9 516,22.2 516.1,21.4 515.9,20.7 515.5,20 515,19.4 514.4,18.9 513.7,18.5 513,18.3 512.3,18.4 511.5,18.7 510.9,19.2 510.3,20.1 509.8,21.4 509.5,23 509.4,25 509.4,40 501.8,58.5" />
<path stroke="#000000" stroke-width="2" d="M 522.7,70" />
<path stroke="#000000" stroke-width="2" d="M 522.7,40 528.5,26.1" />
<path stroke="#000000" stroke-width="2" d="M 528.5,26.1 530.5,26 532.1,25.7 533.4,25.3 534.2,24.7 534.8,24 535.1,23.3 535.1,22.6 535,21.8 534.6,21.1 534.1,20.5 533.5,20 532.8,19.7 532.1,19.5 531.3,19.5 530.6,19.8 529.9,20.4 529.3,21.3 528.9,22.5 528.6,24.1 528.5,26.1 528.5,41.1" />
<path stroke="#000000" stroke-width="2" d="M 565.1,70" />
<path stroke="#000000" stroke-width="2" d="M 575.1,30 565.1,30 565.1,70" />
<path stroke="#000000" stroke-width="2" d="M 581.8,70" />
<path stroke="#000000" stroke-width="2" d="M 589.8,50" />
<path stroke="#000000" stroke-width="2" d="M 589.8,50 589.7,52 589.4,53.6 588.9,54.9 588.4,55.8 587.7,56.3 587,56.6 586.2,56.7 585.5,56.5 584.8,56.1 584.2,55.6 583.7,55 583.3,54.3 583.1,53.6 583.2,52.8 583.5,52.1 584,51.4 584.9,50.9 586.2,50.4 587.8,50.1 589.8,50 599.8,50" />
<path stroke="#000000" stroke-width="2" d="M 606.5,70" />
<path stroke="#000000" stroke-width="2" d="M 606.5,25" />
<path stroke="#000000" stroke-width="2" d="M 606.5,25 608.5,24.9 610.1,24.6 611.3,24.1 612.2,23.6 612.8,22.9 613.1,22.2 613.1,21.4 612.9,20.7 612.6,20 612.1,19.4 611.5,18.9 610.8,18.5 610,18.3 609.3,18.4 608.6,18.7 607.9,19.2 607.3,20.1 606.9,21.4 606.6,23 606.5,25 606.5,40" />
<path stroke="#000000" stroke-width="2" d="M 643.1,70" />
<path stroke="#000000" stroke-width="2" d="M 643.1,30 683.1,30" />
<path stroke="#000000" stroke-width="2" d="M 689.8,70" />
<path stroke="#000000" stroke-width="2" d="M 699.8,50 692.1,68.5" />
<path stroke="#000000" stroke-width="2" d="M 706.5,70" />
<path stroke="#000000" stroke-width="2" d="M 706.5,35" />
<path stroke="#000000" stroke-width="2" d="M 706.5,35 708.5,34.9 710.1,34.6 711.3,34.1 712.2,33.6 712.8,32.9 713.1,32.2 713.1,31.4 712.9,30.7 712.6,30 712.1,29.4 711.5,28.9 710.8,28.5 710,28.3 709.3,28.4 708.6,28.7 707.9,29.2 707.3,30.1 706.9,31.4 706.6,33 706.5,35 706.5,50" />
<path stroke="#000000" stroke-width="2" d="M 706.5,50 707.9,50.1 709.2,50.6 710.3,51.2 711.3,52.1 712.1,53.1 712.8,54.3 713.3,55.6 713.7,57 713.9,58.5 714,60 713.9,61.5 713.7,63 713.3,64.4 712.8,65.7 712.1,66.9 711.3,67.9 710.3,68.8 709.2,69.4 707.9,69.9 706.5,70" />
<path stroke="#000000" stroke-width="2" d="M 744,70" />
<path stroke="#000000" stroke-width="2" d="M 744,40 744.2,40 744.2,40.2 744,40.2 744,40" />
<path stroke="#000000" stroke-width="2" d="M 750.8,70" />
<path stroke="#000000" stroke-width="2" d="M 755.8,30" />
<path stroke="#000000" stroke-width="2" d="M 755.8,30 754.4,30.1 753.1,30.6 752,31.2 751,32.1 750.2,33.1 749.5,34.3 749,35.6 748.6,37 748.4,38.5 748.3,40 748.4,41.5 748.6,43 749,44.4 749.5,45.7 750.2,46.9 751,47.9 752,48.8 753.1,49.4 754.4,49.9 755.8,50" />
<path stroke="#000000" stroke-width="2" d="M 755.8,50 757.2,50.1 758.5,50.6 759.6,51.2 760.6,52.1 761.4,53.1 762.1,54.3 762.6,55.6 763,57 763.2,58.5 763.3,60 763.2,61.5 763,63 762.6,64.4 762.1,65.7 761.4,66.9 760.6,67.9 759.6,68.8 758.5,69.4 757.2,69.9 755.8,70" />
<path stroke="#000000" stroke-width="2" d="M 793.3,70" />
<path stroke="#000000" stroke-width="2" d="M 793.3,30 793.3,70 793.3,58 793.3,56.3 793.5,54.5 793.8,52.8 794.2,51.1 794.8,49.5 795.6,47.9 796.4,46.4 797.4,45 798.6,43.6 799.8,42.4 801.1,41.3 802.6,40.3 804.1,39.4 805.6,38.7 807.3,38.1 809,37.6 810.7,37.3 812.4,37.1" />
<path stroke="#000000" stroke-width="2" d="M 819.1,70" />
<path stroke="#000000" stroke-width="2" d="M 819.1,20" />
<path stroke="#000000" stroke-width="2" d="M 819.1,20 820.5,20.1 821.8,20.6 822.9,21.2 823.9,22.1 824.7,23.1 825.4,24.3 825.9,25.6 826.3,27 826.5,28.5 826.6,30 826.5,31.5 826.3,33 825.9,34.4 825.4,35.7 824.7,36.9 823.9,37.9 822.9,38.8 821.8,39.4 820.5,39.9 819.1,40" />
<path stroke="#000000" stroke-width="2" d="M 833.3,70" />
<path stroke="#000000" stroke-width="2" d="M 843.3,30" />
<path stroke="#000000" stroke-width="2" d="M 843.3,30 840.4,30.3 837.9,31.1 835.6,32.4 833.7,34.2 832,36.2 830.7,38.6 829.6,41.3 828.9,44.1 828.4,47 828.3,50 828.4,53 828.9,55.9 829.6,58.7 830.7,61.4 832,63.8 833.7,65.8 835.6,67.6 837.9,68.9 840.4,69.7 843.3,70" />
<path stroke="#000000" stroke-width="2" d="M 873.3,70" />
<path stroke="#000000" stroke-width="2" d="M 873.3,40" />
<path stroke="#000000" stroke-width="2" d="M 873.3,40 877.3,39.8 880.6,39.2 883,38.3 884.8,37.1 885.9,35.8 886.5,34.3 886.6,32.8 886.2,31.4 885.5,30 884.5,28.8 883.3,27.7 881.9,27 880.4,26.7 878.9,26.8 877.5,27.3 876.1,28.5 875,30.2 874.1,32.7 873.5,35.9 873.3,40 873.3,70" />
<path stroke="#000000" stroke-width="2" d="M 893.2,70" />
<path stroke="#000000" stroke-width="2" d="M 893.2,30 893.2,34 893.2,34.5 893.3,35 893.4,35.6 893.5,36.1 893.7,36.6 893.9,37 894.2,37.5 894.5,37.9 894.8,38.3 895.2,38.7 895.6,39 896,39.3 896.5,39.6 896.9,39.8 897.4,40 897.9,40.1 898.4,40.2 899,40.3 899.5,40.3 900,40.2 900.5,40.1 901,40 901.5,39.8 902,39.6 902.5,39.3 902.9,39 903.3,38.7 903.7,38.3 904,37.9 904.3,37.5 904.6,37 904.8,36.6 905,36.1 905.1,35.6 905.2,35 905.2,34.5 905.2,29.5 905.2,49.5 925.2,49.5" />
<path stroke="#000000" stroke-width="2" d="M 931.9,70" />
<path stroke="#000000" stroke-width="2" d="M 931.9,20 931.9,20.7 932,21.4 932.1,22.1 932.3,22.8 932.5,23.4 932.8,24 933.1,24.6 933.5,25.2 934,25.8 934.5,26.2 935,26.7 935.6,27.1 936.2,27.4 936.8,27.7 937.5,28 938.2,28.2 938.8,28.3 939.5,28.3 940.2,28.3 940.9,28.3 941.6,28.2 942.3,28 942.9,27.7 943.6,27.4 944.2,27.1 944.8,26.7 945.3,26.2 945.8,25.8 946.2,25.2 946.6,24.6 947,24 947.3,23.4 947.5,22.8 947.7,22.1 947.8,21.4 947.9,20.7" />
<path stroke="#000000" stroke-width="2" d="M 977.9,70" />
</svg>