<svg xmlns="http://www.w3.org/2000/svg" width="1103.1399005302387" height="108.0" style="fill:none; stroke-linecap:round;">
    <rect width="100%" height="100%" fill="#FFFFFF" />
<path stroke="#000000" stroke-width="2" d="M 550,75" />
<path stroke="#000000" stroke-width="2" d="M 20,70 20.2,70 20.2,70.2 20,70.2 20,70" />
<path stroke="#000000" stroke-width="2" d="M 26.9,70" />
<path stroke="#000000" stroke-width="2" d="M 28.9,50 34.2,37.1 34.4,36.7 34.5,36.4 34.5,36.1 34.6,35.7 34.6,35.4 34.6,35 34.5,34.7 34.5,34.3 34.4,34 34.2,33.7 34.1,33.4 33.9,33.1 33.7,32.8 33.4,32.5 33.2,32.3 32.9,32.1 32.6,31.9 32.3,31.7 32,31.6 31.6,31.5 31.3,31.4 30.9,31.4 30.6,31.4 30.3,31.4 29.9,31.4 29.6,31.5 29.2,31.6 28.9,31.7 28.6,31.9 28.3,32.1 28,32.3 27.8,32.5 27.5,32.8 27.3,33.1 27.1,33.4 27,33.7 26.8,34 26.7,34.3 26.7,34.7 26.6,35 26.6,35.4 26.6,35.7 26.7,36.1 26.7,36.4 26.8,36.7 27,37.1 27.1,37.4 27.3,37.7 27.5,37.9 27.8,38.2 28,38.4 28.3,38.7 28.6,38.8 28.9,39 29.2,39.1 29.6,39.2 29.9,39.3 30.3,39.4 30.6,39.4 30.9,39.4 43.9,34 43.9,34.7 43.9,35.4 44.1,36.1 44.2,36.8 44.5,37.4 44.8,38 45.1,38.6 45.5,39.2 46,39.8 46.5,40.2 47,40.7 47.6,41.1 48.2,41.4 48.8,41.7 49.5,42 50.1,42.2 50.8,42.3 51.5,42.3 52.2,42.3 52.9,42.3 53.6,42.2 54.3,42 54.9,41.7 55.6,41.4 56.2,41.1 56.7,40.7 57.3,40.2 57.8,39.8 58.2,39.2 58.6,38.6 59,38 59.3,37.4 59.5,36.8 59.7,36.1 59.8,35.4 59.9,34.7" />
<path stroke="#000000" stroke-width="2" d="M 66.5,70" />
<path stroke="#000000" stroke-width="2" d="M 66.5,20 74.2,38.5" />
<path stroke="#000000" stroke-width="2" d="M 74.2,28.5" />
<path stroke="#000000" stroke-width="2" d="M 63.2,28.5 77.2,28.5" />
<path stroke="#000000" stroke-width="2" d="M 77.2,28.5 79.2,28.4 80.8,28.1 82.1,27.6 82.9,27 83.5,26.4 83.8,25.6 83.8,24.9 83.7,24.2 83.3,23.5 82.8,22.9 82.2,22.4 81.5,22 80.8,21.8 80,21.9 79.3,22.1 78.6,22.7 78,23.6 77.6,24.8 77.3,26.4 77.2,28.5 77.2,43.5" />
<path stroke="#000000" stroke-width="2" d="M 113.8,70" />
<path stroke="#000000" stroke-width="2" d="M 118.8,30" />
<path stroke="#000000" stroke-width="2" d="M 118.8,30 117.4,30.1 116.1,30.6 115,31.2 114,32.1 113.2,33.1 112.5,34.3 112,35.6 111.6,37 111.4,38.5 111.3,40 111.4,41.5 111.6,43 112,44.4 112.5,45.7 113.2,46.9 114,47.9 115,48.8 116.1,49.4 117.4,49.9 118.8,50 123.8,50 123.8,70" />
<path stroke="#000000" stroke-width="2" d="M 153.8,70" />
<path stroke="#000000" stroke-width="2" d="M 169.8,30 150,49.8 169.8,69.6" />
<path stroke="#000000" stroke-width="2" d="M 176.5,70" />
<path stroke="#000000" stroke-width="2" d="M 176.5,20 176.5,40 176.5,34 176.5,33.1 176.6,32.3 176.7,31.4 177,30.6 177.3,29.7 177.6,28.9 178.1,28.2 178.6,27.5 179.1,26.8 179.7,26.2 180.4,25.6 181.1,25.1 181.9,24.7 182.7,24.3 183.5,24 184.3,23.8 185.2,23.6 186.1,23.6 193.7,42.1" />
<path stroke="#000000" stroke-width="2" d="M 200.4,70" />
<path stroke="#000000" stroke-width="2" d="M 200.4,50 220.4,50" />
<path stroke="#000000" stroke-width="2" d="M 227,70" />
<path stroke="#000000" stroke-width="2" d="M 227,30 227.2,30 227.2,30.2 227,30.2 227,30" />
<path stroke="#000000" stroke-width="2" d="M 257.2,70" />
<path stroke="#000000" stroke-width="2" d="M 257.2,70" />
<path stroke="#000000" stroke-width="2" d="M 257.2,70 258.4,70 259.4,70.2 260.2,70.4 260.9,70.7 261.5,71 261.9,71.5 262.2,71.9 262.4,72.5 262.5,73.1 262.5,73.8 262.4,74.4 262.1,75.2 261.8,76 261.4,76.8 260.9,77.6 260.3,78.4 259.7,79.3 258.9,80.2 258.1,81.1 257.2,82" />
<path stroke="#000000" stroke-width="2" d="M 292.5,70" />
<path stroke="#000000" stroke-width="2" d="M 308.5,30 308.5,60" />
<path stroke="#000000" stroke-width="2" d="M 308.5,60 308.3,64.1 307.7,67.3 306.8,69.8 305.6,71.5 304.3,72.7 302.9,73.2 301.4,73.3 299.9,73 298.5,72.3 297.3,71.2 296.3,70 295.6,68.6 295.2,67.2 295.3,65.7 295.9,64.2 297,62.9 298.8,61.7 301.2,60.8 304.5,60.2 308.5,60" />
<path stroke="#000000" stroke-width="2" d="M 315.2,70" />
<path stroke="#000000" stroke-width="2" d="M 315.2,20" />
<path stroke="#000000" stroke-width="2" d="M 315.2,20 316.6,20.1 317.9,20.6 319,21.2 320,22.1 320.8,23.1 321.5,24.3 322,25.6 322.4,27 322.6,28.5 322.7,30 322.6,31.5 322.4,33 322,34.4 321.5,35.7 320.8,36.9 320,37.9 319,38.8 317.9,39.4 316.6,39.9 315.2,40" />
<path stroke="#000000" stroke-width="2" d="M 329.4,70" />
<path stroke="#000000" stroke-width="2" d="M 329.4,20 334.4,20 334.4,40" />
<path stroke="#000000" stroke-width="2" d="M 341,70" />
<path stroke="#000000" stroke-width="2" d="M 351,20 343.4,38.5" />
<path stroke="#000000" stroke-width="2" d="M 357.7,70" />
<path stroke="#000000" stroke-width="2" d="M 357.7,20" />
<path stroke="#000000" stroke-width="2" d="M 357.7,20 359.1,20.1 360.4,20.6 361.5,21.2 362.5,22.1 363.3,23.1 364,24.3 364.5,25.6 364.9,27 365.1,28.5 365.2,30 365.1,31.5 364.9,33 364.5,34.4 364,35.7 363.3,36.9 362.5,37.9 361.5,38.8 360.4,39.4 359.1,39.9 357.7,40" />
<path stroke="#000000" stroke-width="2" d="M 395.2,70" />
<path stroke="#000000" stroke-width="2" d="M 411.2,30 391.4,49.8 411.2,69.6" />
<path stroke="#000000" stroke-width="2" d="M 417.9,70" />
<path stroke="#000000" stroke-width="2" d="M 417.9,20 417.9,40 417.9,34 417.9,33.1 417.9,32.3 418.1,31.4 418.3,30.6 418.6,29.7 419,28.9 419.4,28.2 419.9,27.5 420.5,26.8 421.1,26.2 421.8,25.6 422.5,25.1 423.2,24.7 424,24.3 424.8,24 425.7,23.8 426.5,23.6 427.4,23.6" />
<path stroke="#000000" stroke-width="2" d="M 457.4,70" />
<path stroke="#000000" stroke-width="2" d="M 461.4,30 478.4,47" />
<path stroke="#000000" stroke-width="2" d="M 495.3,30 455.8,69.6" />
<path stroke="#000000" stroke-width="2" d="M 502,70" />
<path stroke="#000000" stroke-width="2" d="M 514,56" />
<path stroke="#000000" stroke-width="2" d="M 514,56 512,55.9 510.4,55.6 509.1,55.1 508.3,54.6 507.7,53.9 507.4,53.2 507.4,52.4 507.5,51.7 507.9,51 508.4,50.4 509,49.9 509.7,49.5 510.4,49.3 511.2,49.4 511.9,49.7 512.6,50.2 513.2,51.1 513.6,52.4 513.9,54 514,56 514,60" />
<path stroke="#000000" stroke-width="2" d="M 514,60 513.7,60.9 513.4,61.7 513,62.4 512.6,63.1 512.2,63.8 511.7,64.4 511.3,64.9 510.8,65.4 510.3,65.9 509.8,66.2 509.2,66.6 508.7,66.9 508.1,67.2 507.6,67.4 507,67.6 506.4,67.7 505.8,67.9 505.2,67.9 504.6,68 504,68 504,88 504,82 504,81.1 504.1,80.3 504.2,79.4 504.5,78.6 504.8,77.7 505.1,76.9 505.6,76.2 506.1,75.5 506.6,74.8 507.3,74.2 507.9,73.6 508.6,73.1 509.4,72.7 510.2,72.3 511,72 511.8,71.8 512.7,71.6 513.6,71.6" />
<path stroke="#000000" stroke-width="2" d="M 544,70" />
<path stroke="#000000" stroke-width="2" d="M 554,30 554.5,30 555.1,30 555.6,30.1 556.1,30.3 556.6,30.5 557,30.7 557.5,30.9 557.9,31.2 558.3,31.6 558.7,31.9 559,32.3 559.3,32.8 559.6,33.2 559.8,33.7 560,34.2 560.1,34.7 560.2,35.2 560.3,35.7 560.3,36.3 560.2,36.8 560.1,37.3 560,37.8 559.8,38.3 559.6,38.8 559.3,39.2 559,39.6 558.7,40 558.3,40.4 557.9,40.8 557.5,41.1 557,41.3 556.6,41.5 556.1,41.7 555.6,41.9 555.1,41.9 554.5,42 554,42 553.5,41.9 553,41.9 552.5,41.7 552,41.5 551.5,41.3 551.1,41.1 550.6,40.8 550.2,40.4 549.9,40 549.5,39.6 549.2,39.2 549,38.8 548.7,38.3 548.6,37.8 548.4,37.3 548.3,36.8 548.3,36.3 548.3,35.7 548.3,35.2 548.4,34.7 548.6,34.2 548.7,33.7 549,33.2 549.2,32.8 549.5,32.3 549.9,31.9 550.2,31.6 550.6,31.2 551.1,30.9 551.5,30.7 552,30.5 552.5,30.3 553,30.1 553.5,30 554,30 554,50 546.4,68.5 548.7,62.9 549,62.1 549.4,61.4 549.9,60.6 550.4,59.9 551,59.3 551.6,58.7 552.3,58.2 553.1,57.7 553.8,57.3 554.6,57 555.5,56.7 556.3,56.5" />
<path stroke="#000000" stroke-width="2" d="M 590.3,70" />
<path stroke="#000000" stroke-width="2" d="M 590.3,30 610.3,30" />
<path stroke="#000000" stroke-width="2" d="M 610.3,30 611.7,30.1 613,30.6 614.1,31.2 615.1,32.1 615.9,33.1 616.6,34.3 617.1,35.6 617.5,37 617.7,38.5 617.8,40 617.7,41.5 617.5,43 617.1,44.4 616.6,45.7 615.9,46.9 615.1,47.9 614.1,48.8 613,49.4 611.7,49.9 610.3,50" />
<path stroke="#000000" stroke-width="2" d="M 647.8,70" />
<path stroke="#000000" stroke-width="2" d="M 647.8,30 647.8,70" />
<path stroke="#000000" stroke-width="2" d="M 654.4,70" />
<path stroke="#000000" stroke-width="2" d="M 654.4,20 674.4,20" />
<path stroke="#000000" stroke-width="2" d="M 681.1,70" />
<path stroke="#000000" stroke-width="2" d="M 689.1,30 689.1,45" />
<path stroke="#000000" stroke-width="2" d="M 689.1,45 689,47 688.7,48.6 688.2,49.9 687.7,50.8 687,51.3 686.3,51.6 685.5,51.7 684.8,51.5 684.1,51.1 683.5,50.6 683,50 682.6,49.3 682.5,48.6 682.5,47.8 682.8,47.1 683.3,46.4 684.2,45.9 685.5,45.4 687.1,45.1 689.1,45" />
<path stroke="#000000" stroke-width="2" d="M 689.1,45 690.5,45.1 691.8,45.6 692.9,46.2 693.9,47.1 694.7,48.1 695.4,49.3 695.9,50.6 696.3,52 696.5,53.5 696.6,55 696.5,56.5 696.3,58 695.9,59.4 695.4,60.7 694.7,61.9 693.9,62.9 692.9,63.8 691.8,64.4 690.5,64.9 689.1,65" />
<path stroke="#000000" stroke-width="2" d="M 726.6,70" />
<path stroke="#000000" stroke-width="2" d="M 742.6,30 722.8,49.8 742.6,69.6" />
<path stroke="#000000" stroke-width="2" d="M 749.3,70" />
<path stroke="#000000" stroke-width="2" d="M 749.3,20 749.3,40 749.3,34 749.3,33.1 749.3,32.3 749.5,31.4 749.7,30.6 750,29.7 750.4,28.9 750.8,28.2 751.3,27.5 751.9,26.8 752.5,26.2 753.2,25.6 753.9,25.1 754.6,24.7 755.4,24.3 756.3,24 757.1,23.8 758,23.6 758.8,23.6" />
<path stroke="#000000" stroke-width="2" d="M 788.8,70" />
<path stroke="#000000" stroke-width="2" d="M 804.8,30" />
<path stroke="#000000" stroke-width="2" d="M 804.8,30 804.6,34.1 804,37.3 803.1,39.8 801.9,41.5 800.6,42.7 799.2,43.2 797.7,43.3 796.2,43 794.8,42.3 793.6,41.2 792.6,40 791.9,38.6 791.5,37.2 791.6,35.7 792.2,34.2 793.3,32.9 795.1,31.7 797.5,30.8 800.8,30.2 804.8,30 824.8,30" />
<path stroke="#000000" stroke-width="2" d="M 831.5,70" />
<path stroke="#000000" stroke-width="2" d="M 831.5,20 831.5,40 831.5,34 831.5,33.1 831.6,32.3 831.7,31.4 831.9,30.6 832.2,29.7 832.6,28.9 833.1,28.2 833.6,27.5 834.1,26.8 834.7,26.2 835.4,25.6 836.1,25.1 836.9,24.7 837.7,24.3 838.5,24 839.3,23.8 840.2,23.6 841,23.6 848.7,42.1" />
<path stroke="#000000" stroke-width="2" d="M 855.4,70" />
<path stroke="#000000" stroke-width="2" d="M 855.4,20 875.4,20" />
<path stroke="#000000" stroke-width="2" d="M 882,70" />
<path stroke="#000000" stroke-width="2" d="M 882,20 902,20 894.4,38.5 894.4,39.2 894.4,39.9 894.6,40.6 894.7,41.2 895,41.9 895.3,42.5 895.6,43.1 896,43.7 896.5,44.2 897,44.7 897.5,45.2 898.1,45.6 898.7,45.9 899.3,46.2 900,46.5 900.6,46.6 901.3,46.8 902,46.8 902.7,46.8 903.4,46.8 904.1,46.6 904.8,46.5 905.4,46.2 906.1,45.9 906.7,45.6 907.2,45.2 907.8,44.7 908.3,44.2 908.7,43.7 909.1,43.1 909.5,42.5 909.8,41.9 910,41.2 910.2,40.6 910.3,39.9 910.4,39.2" />
<path stroke="#000000" stroke-width="2" d="M 917,70" />
<path stroke="#000000" stroke-width="2" d="M 917,30 917.2,30 917.2,30.2 917,30.2 917,30" />
<path stroke="#000000" stroke-width="2" d="M 947.2,70" />
<path stroke="#000000" stroke-width="2" d="M 967.2,30 951.9,67" />
<path stroke="#000000" stroke-width="2" d="M 973.9,70" />
<path stroke="#000000" stroke-width="2" d="M 973.9,50 974.1,50 974.1,50.2 973.9,50.2 973.9,50" />
<path stroke="#000000" stroke-width="2" d="M 1004.1,70" />
<path stroke="#000000" stroke-width="2" d="M 1004.1,70 1004.3,70 1004.3,70.2 1004.1,70.2 1004.1,70" />
<path stroke="#000000" stroke-width="2" d="M 1011,70" />
<path stroke="#000000" stroke-width="2" d="M 1011,30 1026.3,67" />
<path stroke="#000000" stroke-width="2" d="M 1032.9,70" />
<path stroke="#000000" stroke-width="2" d="M 1032.9,50 1052.9,50" />
<path stroke="#000000" stroke-width="2" d="M 1082.9,70" />
<path stroke="#000000" stroke-width="2" d="M 1082.9,70 1083.1,70 1083.1,70.2 1082.9,70.2 1082.9,70" />
<path stroke="#000000" stroke-width="2" d="M 1113.1,70" />
</svg>