<svg xmlns="http://www.w3.org/2000/svg" width="1245.141859452537" height="104.34314575050762" style="fill:none; stroke-linecap:round;">
    <rect width="100%" height="100%" fill="#FFFFFF" />
<path stroke="#000000" stroke-width="2" d="M 550,75" />
<path stroke="#000000" stroke-width="2" d="M 20,38 20,37.3 20.1,36.6 20.2,35.9 20.4,35.2 20.6,34.6 20.9,34 21.2,33.4 21.6,32.8 22.1,32.2 22.6,31.8 23.1,31.3 23.7,30.9 24.3,30.6 24.9,30.3 25.6,30 26.3,29.8 26.9,29.7 27.6,29.7 28.3,29.7 29,29.7 29.7,29.8 30.4,30 31.1,30.3 31.7,30.6 32.3,30.9 32.9,31.3 33.4,31.8 33.9,32.2 34.3,32.8 34.7,33.4 35.1,34 35.4,34.6 35.6,35.2 35.8,35.9 35.9,36.6 36,37.3" />
<path stroke="#000000" stroke-width="2" d="M 36,33.3" />
<path stroke="#000000" stroke-width="2" d="M 30,33.3 46,33.3 51,33.3 51,53.3" />
<path stroke="#000000" stroke-width="2" d="M 57.7,70" />
<path stroke="#000000" stroke-width="2" d="M 57.7,30" />
<path stroke="#000000" stroke-width="2" d="M 57.7,30 60.5,30.3 63.1,31.1 65.3,32.4 67.3,34.2 68.9,36.2 70.3,38.6 71.3,41.3 72.1,44.1 72.5,47 72.7,50 72.5,53 72.1,55.9 71.3,58.7 70.3,61.4 68.9,63.8 67.3,65.8 65.3,67.6 63.1,68.9 60.5,69.7 57.7,70" />
<path stroke="#000000" stroke-width="2" d="M 79.3,70" />
<path stroke="#000000" stroke-width="2" d="M 79.3,20 99.3,20 91.7,38.5" />
<path stroke="#000000" stroke-width="2" d="M 129.3,70" />
<path stroke="#000000" stroke-width="2" d="M 145.3,30 145.3,60" />
<path stroke="#000000" stroke-width="2" d="M 145.3,60 145.1,64.1 144.5,67.3 143.6,69.8 142.4,71.5 141.1,72.7 139.6,73.2 138.2,73.3 136.7,73 135.3,72.3 134.1,71.2 133.1,70 132.4,68.6 132,67.2 132.1,65.7 132.7,64.2 133.8,62.9 135.6,61.7 138,60.8 141.3,60.2 145.3,60" />
<path stroke="#000000" stroke-width="2" d="M 152,70" />
<path stroke="#000000" stroke-width="2" d="M 152,20 152,40 157.6,34.3" />
<path stroke="#000000" stroke-width="2" d="M 164.3,70" />
<path stroke="#000000" stroke-width="2" d="M 164.3,25" />
<path stroke="#000000" stroke-width="2" d="M 164.3,25 166.3,24.9 168,24.6 169.2,24.1 170.1,23.6 170.6,22.9 170.9,22.2 171,21.4 170.8,20.7 170.4,20 169.9,19.4 169.3,18.9 168.6,18.5 167.9,18.3 167.1,18.4 166.4,18.7 165.7,19.2 165.2,20.1 164.7,21.4 164.4,23 164.3,25 164.3,40" />
<path stroke="#000000" stroke-width="2" d="M 201,70" />
<path stroke="#000000" stroke-width="2" d="M 221,70 222.7,70 224.4,69.8 226.2,69.5 227.8,69.1 229.5,68.5 231.1,67.8 232.6,66.9 234,65.9 235.3,64.8 236.6,63.5 237.7,62.2 238.7,60.8 239.6,59.3 240.3,57.7 240.9,56 241.4,54.3 241.7,52.6 241.8,50.9 241.8,49.1 241.7,47.4 241.4,45.7 240.9,44 240.3,42.4 239.6,40.8 238.7,39.3 237.7,37.8 236.6,36.5 235.3,35.3 234,34.2 232.6,33.2 231.1,32.3 229.5,31.5 227.8,30.9 226.2,30.5 224.4,30.2 222.7,30 221,30 219.2,30.2 217.5,30.5 215.8,30.9 214.2,31.5 212.6,32.3 211.1,33.2 209.7,34.2 208.3,35.3 207.1,36.5 206,37.8 205,39.3 204.1,40.8 203.4,42.4 202.8,44 202.3,45.7 202,47.4 201.9,49.1 201.9,50.9 202,52.6 202.3,54.3 202.8,56 203.4,57.7 204.1,59.3 205,60.8 206,62.2 207.1,63.5 208.3,64.8 209.7,65.9 211.1,66.9 212.6,67.8 214.2,68.5 215.8,69.1 217.5,69.5 219.2,69.8 221,70" />
<path stroke="#000000" stroke-width="2" d="M 248.5,70" />
<path stroke="#000000" stroke-width="2" d="M 258.5,20 250.8,38.5" />
<path stroke="#000000" stroke-width="2" d="M 288.5,70" />
<path stroke="#000000" stroke-width="2" d="M 308.5,70 310.2,70 312,69.8 313.7,69.5 315.4,69.1 317,68.5 318.6,67.8 320.1,66.9 321.5,65.9 322.9,64.8 324.1,63.5 325.2,62.2 326.2,60.8 327.1,59.3 327.8,57.7 328.4,56 328.9,54.3 329.2,52.6 329.3,50.9 329.3,49.1 329.2,47.4 328.9,45.7 328.4,44 327.8,42.4 327.1,40.8 326.2,39.3 325.2,37.8 324.1,36.5 322.9,35.3 321.5,34.2 320.1,33.2 318.6,32.3 317,31.5 315.4,30.9 313.7,30.5 312,30.2 310.2,30 308.5,30 306.7,30.2 305,30.5 303.3,30.9 301.7,31.5 300.1,32.3 298.6,33.2 297.2,34.2 295.8,35.3 294.6,36.5 293.5,37.8 292.5,39.3 291.6,40.8 290.9,42.4 290.3,44 289.8,45.7 289.5,47.4 289.4,49.1 289.4,50.9 289.5,52.6 289.8,54.3 290.3,56 290.9,57.7 291.6,59.3 292.5,60.8 293.5,62.2 294.6,63.5 295.8,64.8 297.2,65.9 298.6,66.9 300.1,67.8 301.7,68.5 303.3,69.1 305,69.5 306.7,69.8 308.5,70" />
<path stroke="#000000" stroke-width="2" d="M 336,70" />
<path stroke="#000000" stroke-width="2" d="M 336,20 356,20 336.2,39.8 356.2,39.8" />
<path stroke="#000000" stroke-width="2" d="M 386.2,70" />
<path stroke="#000000" stroke-width="2" d="M 386.2,40" />
<path stroke="#000000" stroke-width="2" d="M 386.2,40 390.3,39.8 393.5,39.2 396,38.3 397.7,37.1 398.9,35.8 399.4,34.3 399.5,32.8 399.2,31.4 398.5,30 397.5,28.8 396.2,27.7 394.8,27 393.4,26.7 391.9,26.8 390.4,27.3 389.1,28.5 387.9,30.2 387,32.7 386.4,35.9 386.2,40 386.2,70" />
<path stroke="#000000" stroke-width="2" d="M 406.2,70" />
<path stroke="#000000" stroke-width="2" d="M 406.2,30 406.2,34 406.2,34.5 406.2,35 406.3,35.6 406.5,36.1 406.6,36.6 406.9,37 407.1,37.5 407.4,37.9 407.7,38.3 408.1,38.7 408.5,39 408.9,39.3 409.4,39.6 409.9,39.8 410.4,40 410.9,40.1 411.4,40.2 411.9,40.3 412.4,40.3 413,40.2 413.5,40.1 414,40 414.5,39.8 414.9,39.6 415.4,39.3 415.8,39 416.2,38.7 416.6,38.3 416.9,37.9 417.2,37.5 417.5,37 417.7,36.6 417.9,36.1 418,35.6 418.1,35 418.2,34.5 418.2,29.5 418.2,49.5 438.2,49.5" />
<path stroke="#000000" stroke-width="2" d="M 444.8,70" />
<path stroke="#000000" stroke-width="2" d="M 444.8,20 444.8,20.7 444.9,21.4 445,22.1 445.2,22.8 445.4,23.4 445.7,24 446.1,24.6 446.5,25.2 446.9,25.8 447.4,26.2 448,26.7 448.5,27.1 449.1,27.4 449.8,27.7 450.4,28 451.1,28.2 451.8,28.3 452.5,28.3 453.2,28.3 453.9,28.3 454.6,28.2 455.2,28 455.9,27.7 456.5,27.4 457.1,27.1 457.7,26.7 458.2,26.2 458.7,25.8 459.2,25.2 459.6,24.6 459.9,24 460.2,23.4 460.5,22.8 460.6,22.1 460.8,21.4 460.8,20.7" />
<path stroke="#000000" stroke-width="2" d="M 460.8,20.7 462.8,20.6 464.5,20.3 465.7,19.8 466.6,19.3 467.1,18.6 467.4,17.9 467.5,17.1 467.3,16.4 466.9,15.7 466.4,15.1 465.8,14.6 465.1,14.2 464.4,14 463.7,14.1 462.9,14.4 462.3,14.9 461.7,15.8 461.2,17.1 460.9,18.7 460.8,20.7 460.8,35.7" />
<path stroke="#000000" stroke-width="2" d="M 497.5,70" />
<path stroke="#000000" stroke-width="2" d="M 497.5,30 497.5,70 508.8,58.7" />
<path stroke="#000000" stroke-width="2" d="M 515.5,70" />
<path stroke="#000000" stroke-width="2" d="M 515.5,20 515.5,40 515.5,34 515.5,33.1 515.5,32.3 515.7,31.4 515.9,30.6 516.2,29.7 516.6,28.9 517,28.2 517.5,27.5 518.1,26.8 518.7,26.2 519.4,25.6 520.1,25.1 520.8,24.7 521.6,24.3 522.4,24 523.3,23.8 524.1,23.6 525,23.6" />
<path stroke="#000000" stroke-width="2" d="M 555,70" />
<path stroke="#000000" stroke-width="2" d="M 555,40" />
<path stroke="#000000" stroke-width="2" d="M 555,40 559.1,39.8 562.3,39.2 564.8,38.3 566.5,37.1 567.7,35.8 568.2,34.3 568.3,32.8 568,31.4 567.3,30 566.3,28.8 565,27.7 563.6,27 562.2,26.7 560.7,26.8 559.2,27.3 557.9,28.5 556.7,30.2 555.8,32.7 555.2,35.9 555,40 555,70" />
<path stroke="#000000" stroke-width="2" d="M 575,70" />
<path stroke="#000000" stroke-width="2" d="M 575,20 595,20 587.3,38.5" />
<path stroke="#000000" stroke-width="2" d="M 625,70" />
<path stroke="#000000" stroke-width="2" d="M 625,30 625,70" />
<path stroke="#000000" stroke-width="2" d="M 631.7,70" />
<path stroke="#000000" stroke-width="2" d="M 631.7,30 631.9,30 631.9,30.2 631.7,30.2 631.7,30" />
<path stroke="#000000" stroke-width="2" d="M 661.9,70" />
<path stroke="#000000" stroke-width="2" d="M 677.9,30 658.1,49.8 677.9,69.6" />
<path stroke="#000000" stroke-width="2" d="M 684.5,70" />
<path stroke="#000000" stroke-width="2" d="M 684.5,50 692.2,68.5" />
<path stroke="#000000" stroke-width="2" d="M 698.8,70" />
<path stroke="#000000" stroke-width="2" d="M 698.8,20 718.8,20" />
<path stroke="#000000" stroke-width="2" d="M 718.8,20 720.9,19.9 722.5,19.6 723.7,19.1 724.6,18.6 725.2,17.9 725.5,17.2 725.5,16.4 725.3,15.7 725,15 724.5,14.4 723.8,13.9 723.2,13.5 722.4,13.3 721.7,13.4 720.9,13.7 720.3,14.2 719.7,15.1 719.2,16.4 718.9,18 718.8,20 718.8,35" />
<path stroke="#000000" stroke-width="2" d="M 755.5,70" />
<path stroke="#000000" stroke-width="2" d="M 755.5,70 755.7,70 755.7,70.2 755.5,70.2 755.5,70" />
<path stroke="#000000" stroke-width="2" d="M 785.7,70" />
<path stroke="#000000" stroke-width="2" d="M 785.7,40" />
<path stroke="#000000" stroke-width="2" d="M 785.7,40 789.8,39.8 793,39.2 795.4,38.3 797.2,37.1 798.3,35.8 798.9,34.3 799,32.8 798.7,31.4 797.9,30 796.9,28.8 795.7,27.7 794.3,27 792.9,26.7 791.4,26.8 789.9,27.3 788.6,28.5 787.4,30.2 786.5,32.7 785.9,35.9 785.7,40 785.7,70" />
<path stroke="#000000" stroke-width="2" d="M 805.7,70" />
<path stroke="#000000" stroke-width="2" d="M 805.7,20 805.7,20.7 805.7,21.4 805.8,22.1 806,22.8 806.3,23.4 806.6,24 806.9,24.6 807.3,25.2 807.8,25.8 808.3,26.2 808.8,26.7 809.4,27.1 810,27.4 810.6,27.7 811.3,28 811.9,28.2 812.6,28.3 813.3,28.3 814,28.3 814.7,28.3 815.4,28.2 816.1,28 816.7,27.7 817.4,27.4 818,27.1 818.5,26.7 819.1,26.2 819.6,25.8 820,25.2 820.4,24.6 820.8,24 821.1,23.4 821.3,22.8 821.5,22.1 821.6,21.4 821.7,20.7" />
<path stroke="#000000" stroke-width="2" d="M 828.3,70" />
<path stroke="#000000" stroke-width="2" d="M 828.3,25" />
<path stroke="#000000" stroke-width="2" d="M 828.3,25 830.3,24.9 832,24.6 833.2,24.1 834.1,23.6 834.6,22.9 834.9,22.2 835,21.4 834.8,20.7 834.4,20 833.9,19.4 833.3,18.9 832.6,18.5 831.9,18.3 831.2,18.4 830.4,18.7 829.8,19.2 829.2,20.1 828.7,21.4 828.4,23 828.3,25 828.3,40 820.7,58.5" />
<path stroke="#000000" stroke-width="2" d="M 841.6,70" />
<path stroke="#000000" stroke-width="2" d="M 841.6,40 849.3,21.5 856.9,40" />
<path stroke="#000000" stroke-width="2" d="M 886.9,70" />
<path stroke="#000000" stroke-width="2" d="M 898.9,30" />
<path stroke="#000000" stroke-width="2" d="M 898.9,30 898.7,34.1 898.1,37.3 897.2,39.8 896.1,41.5 894.7,42.7 893.3,43.2 891.8,43.3 890.3,43 888.9,42.3 887.7,41.2 886.7,40 886,38.6 885.6,37.2 885.7,35.7 886.3,34.2 887.4,32.9 889.2,31.7 891.7,30.8 894.9,30.2 898.9,30 906.9,30" />
<path stroke="#000000" stroke-width="2" d="M 906.9,30 908.7,30.6 910.3,31.3 911.8,32.1 913.2,32.8 914.5,33.7 915.7,34.6 916.8,35.5 917.8,36.5 918.7,37.5 919.4,38.5 920.2,39.6 920.8,40.7 921.3,41.8 921.8,42.9 922.1,44.1 922.4,45.2 922.7,46.4 922.8,47.6 922.9,48.8 922.9,50" />
<path stroke="#000000" stroke-width="2" d="M 929.6,70" />
<path stroke="#000000" stroke-width="2" d="M 929.6,20" />
<path stroke="#000000" stroke-width="2" d="M 929.6,20 931,20.1 932.3,20.6 933.4,21.2 934.4,22.1 935.2,23.1 935.9,24.3 936.4,25.6 936.8,27 937,28.5 937.1,30 937,31.5 936.8,33 936.4,34.4 935.9,35.7 935.2,36.9 934.4,37.9 933.4,38.8 932.3,39.4 931,39.9 929.6,40" />
<path stroke="#000000" stroke-width="2" d="M 943.8,70" />
<path stroke="#000000" stroke-width="2" d="M 943.8,38 943.8,37.3 943.8,36.6 944,35.9 944.1,35.2 944.4,34.6 944.7,34 945,33.4 945.4,32.8 945.9,32.2 946.4,31.8 946.9,31.3 947.5,30.9 948.1,30.6 948.7,30.3 949.4,30 950,29.8 950.7,29.7 951.4,29.7 952.1,29.7 952.8,29.7 953.5,29.8 954.2,30 954.8,30.3 955.5,30.6 956.1,30.9 956.6,31.3 957.2,31.8 957.7,32.2 958.1,32.8 958.5,33.4 958.9,34 959.2,34.6 959.4,35.2 959.6,35.9 959.7,36.6 959.8,37.3 952.1,55.8" />
<path stroke="#000000" stroke-width="2" d="M 966.4,70" />
<path stroke="#000000" stroke-width="2" d="M 966.4,20" />
<path stroke="#000000" stroke-width="2" d="M 966.4,20 967.9,20.1 969.1,20.6 970.3,21.2 971.2,22.1 972.1,23.1 972.7,24.3 973.3,25.6 973.6,27 973.9,28.5 973.9,30 973.9,31.5 973.6,33 973.3,34.4 972.7,35.7 972.1,36.9 971.2,37.9 970.3,38.8 969.1,39.4 967.9,39.9 966.4,40" />
<path stroke="#000000" stroke-width="2" d="M 1003.9,70" />
<path stroke="#000000" stroke-width="2" d="M 1023.9,70 1025.7,70 1027.4,69.8 1029.1,69.5 1030.8,69.1 1032.5,68.5 1034,67.8 1035.6,66.9 1037,65.9 1038.3,64.8 1039.5,63.5 1040.7,62.2 1041.7,60.8 1042.5,59.3 1043.3,57.7 1043.9,56 1044.3,54.3 1044.6,52.6 1044.8,50.9 1044.8,49.1 1044.6,47.4 1044.3,45.7 1043.9,44 1043.3,42.4 1042.5,40.8 1041.7,39.3 1040.7,37.8 1039.5,36.5 1038.3,35.3 1037,34.2 1035.6,33.2 1034,32.3 1032.5,31.5 1030.8,30.9 1029.1,30.5 1027.4,30.2 1025.7,30 1023.9,30 1022.2,30.2 1020.5,30.5 1018.8,30.9 1017.2,31.5 1015.6,32.3 1014.1,33.2 1012.6,34.2 1011.3,35.3 1010.1,36.5 1008.9,37.8 1007.9,39.3 1007.1,40.8 1006.3,42.4 1005.7,44 1005.3,45.7 1005,47.4 1004.8,49.1 1004.8,50.9 1005,52.6 1005.3,54.3 1005.7,56 1006.3,57.7 1007.1,59.3 1007.9,60.8 1008.9,62.2 1010.1,63.5 1011.3,64.8 1012.6,65.9 1014.1,66.9 1015.6,67.8 1017.2,68.5 1018.8,69.1 1020.5,69.5 1022.2,69.8 1023.9,70" />
<path stroke="#000000" stroke-width="2" d="M 1051.5,70" />
<path stroke="#000000" stroke-width="2" d="M 1061.5,20 1053.8,38.5" />
<path stroke="#000000" stroke-width="2" d="M 1091.5,70" />
<path stroke="#000000" stroke-width="2" d="M 1091.5,30 1091.5,50 1101.5,50 1106.5,50 1106.5,70" />
<path stroke="#000000" stroke-width="2" d="M 1136.5,70" />
<path stroke="#000000" stroke-width="2" d="M 1152.5,30 1152.5,60" />
<path stroke="#000000" stroke-width="2" d="M 1152.5,60 1152.2,64.1 1151.6,67.3 1150.7,69.8 1149.6,71.5 1148.2,72.7 1146.8,73.2 1145.3,73.3 1143.8,73 1142.4,72.3 1141.2,71.2 1140.2,70 1139.5,68.6 1139.1,67.2 1139.2,65.7 1139.8,64.2 1140.9,62.9 1142.7,61.7 1145.2,60.8 1148.4,60.2 1152.5,60" />
<path stroke="#000000" stroke-width="2" d="M 1159.1,70" />
<path stroke="#000000" stroke-width="2" d="M 1159.1,20 1159.3,20 1159.3,20.2 1159.1,20.2 1159.1,20" />
<path stroke="#000000" stroke-width="2" d="M 1189.3,70" />
<path stroke="#000000" stroke-width="2" d="M 1205.3,30 1205.3,60" />
<path stroke="#000000" stroke-width="2" d="M 1205.3,60 1205.1,64.1 1204.5,67.3 1203.6,69.8 1202.4,71.5 1201.1,72.7 1199.6,73.2 1198.2,73.3 1196.7,73 1195.3,72.3 1194.1,71.2 1193.1,70 1192.4,68.6 1192,67.2 1192.1,65.7 1192.7,64.2 1193.8,62.9 1195.6,61.7 1198,60.8 1201.3,60.2 1205.3,60" />
<path stroke="#000000" stroke-width="2" d="M 1212,70" />
<path stroke="#000000" stroke-width="2" d="M 1212,50 1212,70 1217.6,64.3" />
<path stroke="#000000" stroke-width="2" d="M 1217.6,64.3 1219.1,64.5 1220.3,64.9 1221.5,65.6 1222.4,66.4 1223.3,67.5 1223.9,68.7 1224.5,70 1224.8,71.4 1225.1,72.8 1225.1,74.3 1225.1,75.8 1224.8,77.3 1224.5,78.7 1223.9,80 1223.3,81.2 1222.4,82.3 1221.5,83.1 1220.3,83.8 1219.1,84.2 1217.6,84.3" />
<path stroke="#000000" stroke-width="2" d="M 1255.1,70" />
</svg>