<svg xmlns="http://www.w3.org/2000/svg" width="1337.7918724702317" height="93.30875" style="fill:none; stroke-linecap:round;">
    <rect width="100%" height="100%" fill="#FFFFFF" />
<path stroke="#000000" stroke-width="2" d="M 550,75" />
<path stroke="#000000" stroke-width="2" d="M 36,30 36,60" />
<path stroke="#000000" stroke-width="2" d="M 36,60 35.8,64.1 35.2,67.3 34.3,69.8 33.1,71.5 31.8,72.7 30.3,73.2 28.8,73.3 27.4,73 26,72.3 24.8,71.2 23.7,70 23,68.6 22.7,67.2 22.8,65.7 23.3,64.2 24.5,62.9 26.2,61.7 28.7,60.8 31.9,60.2 36,60" />
<path stroke="#000000" stroke-width="2" d="M 42.7,70" />
<path stroke="#000000" stroke-width="2" d="M 50.7,20 40.8,29.9 50.7,39.8" />
<path stroke="#000000" stroke-width="2" d="M 57.3,70" />
<path stroke="#000000" stroke-width="2" d="M 57.3,20" />
<path stroke="#000000" stroke-width="2" d="M 57.3,20 58.8,20.1 60,20.6 61.2,21.2 62.1,22.1 63,23.1 63.6,24.3 64.2,25.6 64.5,27 64.8,28.5 64.8,30 64.8,31.5 64.5,33 64.2,34.4 63.6,35.7 63,36.9 62.1,37.9 61.2,38.8 60,39.4 58.8,39.9 57.3,40" />
<path stroke="#000000" stroke-width="2" d="M 94.8,70" />
<path stroke="#000000" stroke-width="2" d="M 94.8,40" />
<path stroke="#000000" stroke-width="2" d="M 94.8,40 98.9,39.8 102.1,39.2 104.6,38.3 106.4,37.1 107.5,35.8 108.1,34.3 108.1,32.8 107.8,31.4 107.1,30 106.1,28.8 104.9,27.7 103.5,27 102,26.7 100.5,26.8 99.1,27.3 97.7,28.5 96.6,30.2 95.6,32.7 95,35.9 94.8,40 94.8,70" />
<path stroke="#000000" stroke-width="2" d="M 114.8,70" />
<path stroke="#000000" stroke-width="2" d="M 114.8,30 154.8,30" />
<path stroke="#000000" stroke-width="2" d="M 184.8,70" />
<path stroke="#000000" stroke-width="2" d="M 184.8,30 200.1,67" />
<path stroke="#000000" stroke-width="2" d="M 206.8,70" />
<path stroke="#000000" stroke-width="2" d="M 206.8,20 226.8,20" />
<path stroke="#000000" stroke-width="2" d="M 233.4,70" />
<path stroke="#000000" stroke-width="2" d="M 233.4,30 233.6,30 233.6,30.2 233.4,30.2 233.4,30" />
<path stroke="#000000" stroke-width="2" d="M 263.6,70" />
<path stroke="#000000" stroke-width="2" d="M 275.6,54" />
<path stroke="#000000" stroke-width="2" d="M 275.6,54 275.4,49.9 274.8,46.7 273.9,44.2 272.8,42.5 271.4,41.3 270,40.8 268.5,40.7 267,41 265.6,41.7 264.4,42.8 263.4,44 262.7,45.4 262.3,46.8 262.4,48.3 263,49.8 264.1,51.1 265.9,52.3 268.4,53.2 271.6,53.8 275.6,54 283.6,54" />
<path stroke="#000000" stroke-width="2" d="M 283.6,54 285.4,53.4 287,52.7 288.5,51.9 289.9,51.2 291.2,50.3 292.4,49.4 293.5,48.5 294.5,47.5 295.4,46.5 296.1,45.5 296.9,44.4 297.5,43.3 298,42.2 298.5,41.1 298.8,39.9 299.1,38.8 299.4,37.6 299.5,36.4 299.6,35.2 299.6,34" />
<path stroke="#000000" stroke-width="2" d="M 306.3,70" />
<path stroke="#000000" stroke-width="2" d="M 306.3,20 326.3,20" />
<path stroke="#000000" stroke-width="2" d="M 333,70" />
<path stroke="#000000" stroke-width="2" d="M 343,20 335.3,38.5" />
<path stroke="#000000" stroke-width="2" d="M 335.3,38.5 337.4,38.4 339,38.1 340.2,37.6 341.1,37 341.7,36.4 341.9,35.6 342,34.9 341.8,34.2 341.5,33.5 341,32.9 340.3,32.4 339.6,32 338.9,31.8 338.2,31.9 337.4,32.1 336.8,32.7 336.2,33.6 335.7,34.8 335.4,36.4 335.3,38.5 335.3,53.5" />
<path stroke="#000000" stroke-width="2" d="M 373,70" />
<path stroke="#000000" stroke-width="2" d="M 373,30 373,38 373,39 373.1,40.1 373.3,41.1 373.5,42.1 373.9,43.1 374.3,44.1 374.9,45 375.5,45.8 376.1,46.6 376.9,47.4 377.7,48 378.5,48.6 379.4,49.2 380.4,49.6 381.4,50 382.4,50.2 383.4,50.4 384.4,50.5 385.5,50.5 386.5,50.4 387.6,50.2 388.6,50 389.6,49.6 390.5,49.2 391.4,48.6 392.3,48 393.1,47.4 393.8,46.6 394.5,45.8 395.1,45 395.6,44.1 396.1,43.1 396.4,42.1 396.7,41.1 396.9,40.1 397,39 397,29 397,69" />
<path stroke="#000000" stroke-width="2" d="M 403.6,70" />
<path stroke="#000000" stroke-width="2" d="M 403.6,30 418.9,67 434.2,30" />
<path stroke="#000000" stroke-width="2" d="M 464.2,70" />
<path stroke="#000000" stroke-width="2" d="M 469.2,30" />
<path stroke="#000000" stroke-width="2" d="M 469.2,30 467.8,30.1 466.5,30.6 465.4,31.2 464.4,32.1 463.6,33.1 462.9,34.3 462.4,35.6 462,37 461.8,38.5 461.7,40 461.8,41.5 462,43 462.4,44.4 462.9,45.7 463.6,46.9 464.4,47.9 465.4,48.8 466.5,49.4 467.8,49.9 469.2,50 474.2,50 474.2,70" />
<path stroke="#000000" stroke-width="2" d="M 504.2,70" />
<path stroke="#000000" stroke-width="2" d="M 504.2,38 504.2,37.3 504.3,36.6 504.4,35.9 504.6,35.2 504.8,34.6 505.1,34 505.5,33.4 505.9,32.8 506.3,32.2 506.8,31.8 507.4,31.3 507.9,30.9 508.5,30.6 509.2,30.3 509.8,30 510.5,29.8 511.2,29.7 511.9,29.7 512.6,29.7 513.3,29.7 514,29.8 514.6,30 515.3,30.3 515.9,30.6 516.5,30.9 517.1,31.3 517.6,31.8 518.1,32.2 518.6,32.8 519,33.4 519.3,34 519.6,34.6 519.9,35.2 520,35.9 520.2,36.6 520.2,37.3" />
<path stroke="#000000" stroke-width="2" d="M 520.2,33.3" />
<path stroke="#000000" stroke-width="2" d="M 514.2,33.3 530.2,33.3" />
<path stroke="#000000" stroke-width="2" d="M 530.2,33.3 530.1,31.3 529.8,29.7 529.4,28.4 528.8,27.5 528.1,27 527.4,26.7 526.6,26.6 525.9,26.8 525.2,27.2 524.6,27.7 524.1,28.3 523.7,29 523.6,29.7 523.6,30.5 523.9,31.2 524.5,31.9 525.3,32.4 526.6,32.9 528.2,33.2 530.2,33.3 534.2,33.3" />
<path stroke="#000000" stroke-width="2" d="M 534.2,33.3 535.1,33 535.9,32.6 536.7,32.3 537.4,31.9 538,31.5 538.6,31 539.1,30.6 539.6,30.1 540.1,29.6 540.5,29.1 540.8,28.5 541.1,28 541.4,27.4 541.6,26.8 541.8,26.3 542,25.7 542.1,25.1 542.2,24.5 542.2,23.9 542.2,23.3" />
<path stroke="#000000" stroke-width="2" d="M 548.9,70" />
<path stroke="#000000" stroke-width="2" d="M 568.9,20 549.1,39.8" />
<path stroke="#000000" stroke-width="2" d="M 549.1,19.8 568.9,39.6" />
<path stroke="#000000" stroke-width="2" d="M 598.9,70" />
<path stroke="#000000" stroke-width="2" d="M 598.9,30 638.9,30" />
<path stroke="#000000" stroke-width="2" d="M 645.6,70" />
<path stroke="#000000" stroke-width="2" d="M 645.6,50 665.6,50 665.6,70 665.6,64 665.6,63.1 665.6,62.3 665.8,61.4 666,60.6 666.3,59.7 666.7,58.9 667.1,58.2 667.6,57.5 668.2,56.8 668.8,56.2 669.5,55.6 670.2,55.1 670.9,54.7 671.7,54.3 672.5,54 673.4,53.8 674.2,53.6 675.1,53.6" />
<path stroke="#000000" stroke-width="2" d="M 681.8,70" />
<path stroke="#000000" stroke-width="2" d="M 681.8,20 681.8,24 681.8,24.5 681.8,25 681.9,25.6 682.1,26.1 682.2,26.6 682.5,27 682.7,27.5 683,27.9 683.4,28.3 683.7,28.7 684.1,29 684.6,29.3 685,29.6 685.5,29.8 686,30 686.5,30.1 687,30.2 687.5,30.3 688,30.3 688.6,30.2 689.1,30.1 689.6,30 690.1,29.8 690.5,29.6 691,29.3 691.4,29 691.8,28.7 692.2,28.3 692.5,27.9 692.8,27.5 693.1,27 693.3,26.6 693.5,26.1 693.6,25.6 693.7,25 693.8,24.5 693.8,19.5 693.8,39.5" />
<path stroke="#000000" stroke-width="2" d="M 700.4,70" />
<path stroke="#000000" stroke-width="2" d="M 700.4,50 700.4,50.7 700.5,51.4 700.6,52.1 700.8,52.8 701,53.4 701.3,54 701.7,54.6 702.1,55.2 702.5,55.8 703,56.2 703.6,56.7 704.1,57.1 704.7,57.4 705.4,57.7 706,58 706.7,58.2 707.4,58.3 708.1,58.3 708.8,58.3 709.5,58.3 710.2,58.2 710.8,58 711.5,57.7 712.1,57.4 712.7,57.1 713.3,56.7 713.8,56.2 714.3,55.8 714.8,55.2 715.2,54.6 715.5,54 715.8,53.4 716.1,52.8 716.2,52.1 716.4,51.4 716.4,50.7" />
<path stroke="#000000" stroke-width="2" d="M 723.1,70" />
<path stroke="#000000" stroke-width="2" d="M 723.1,20 723.1,40 723.1,34 723.1,33.1 723.2,32.3 723.3,31.4 723.5,30.6 723.8,29.7 724.2,28.9 724.6,28.2 725.1,27.5 725.7,26.8 726.3,26.2 727,25.6 727.7,25.1 728.5,24.7 729.3,24.3 730.1,24 730.9,23.8 731.8,23.6 732.6,23.6" />
<path stroke="#000000" stroke-width="2" d="M 762.6,70" />
<path stroke="#000000" stroke-width="2" d="M 762.6,30 762.6,70 762.6,58 762.6,56.3 762.8,54.5 763.1,52.8 763.5,51.1 764.1,49.5 764.9,47.9 765.8,46.4 766.8,45 767.9,43.6 769.1,42.4 770.4,41.3 771.9,40.3 773.4,39.4 775,38.7 776.6,38.1 778.3,37.6 780,37.3 781.7,37.1" />
<path stroke="#000000" stroke-width="2" d="M 788.4,70" />
<path stroke="#000000" stroke-width="2" d="M 788.4,20" />
<path stroke="#000000" stroke-width="2" d="M 788.4,20 789.8,20.1 791.1,20.6 792.2,21.2 793.2,22.1 794,23.1 794.7,24.3 795.2,25.6 795.6,27 795.8,28.5 795.9,30 795.8,31.5 795.6,33 795.2,34.4 794.7,35.7 794,36.9 793.2,37.9 792.2,38.8 791.1,39.4 789.8,39.9 788.4,40" />
<path stroke="#000000" stroke-width="2" d="M 802.6,70" />
<path stroke="#000000" stroke-width="2" d="M 812.6,30" />
<path stroke="#000000" stroke-width="2" d="M 812.6,30 809.7,30.3 807.2,31.1 804.9,32.4 803,34.2 801.3,36.2 800,38.6 798.9,41.3 798.2,44.1 797.7,47 797.6,50 797.7,53 798.2,55.9 798.9,58.7 800,61.4 801.3,63.8 803,65.8 804.9,67.6 807.2,68.9 809.7,69.7 812.6,70" />
<path stroke="#000000" stroke-width="2" d="M 842.6,70" />
<path stroke="#000000" stroke-width="2" d="M 842.6,40" />
<path stroke="#000000" stroke-width="2" d="M 842.6,40 846.6,39.8 849.9,39.2 852.3,38.3 854.1,37.1 855.2,35.8 855.8,34.3 855.9,32.8 855.5,31.4 854.8,30 853.8,28.8 852.6,27.7 851.2,27 849.7,26.7 848.3,26.8 846.8,27.3 845.5,28.5 844.3,30.2 843.4,32.7 842.8,35.9 842.6,40 842.6,70" />
<path stroke="#000000" stroke-width="2" d="M 862.6,70" />
<path stroke="#000000" stroke-width="2" d="M 862.6,30 862.6,34 862.6,34.5 862.6,35 862.7,35.6 862.8,36.1 863,36.6 863.2,37 863.5,37.5 863.8,37.9 864.1,38.3 864.5,38.7 864.9,39 865.3,39.3 865.8,39.6 866.3,39.8 866.7,40 867.3,40.1 867.8,40.2 868.3,40.3 868.8,40.3 869.3,40.2 869.9,40.1 870.4,40 870.8,39.8 871.3,39.6 871.8,39.3 872.2,39 872.6,38.7 873,38.3 873.3,37.9 873.6,37.5 873.9,37 874.1,36.6 874.3,36.1 874.4,35.6 874.5,35 874.5,34.5 874.5,29.5 874.5,49.5 894.5,49.5" />
<path stroke="#000000" stroke-width="2" d="M 901.2,70" />
<path stroke="#000000" stroke-width="2" d="M 901.2,20 901.2,20.7 901.3,21.4 901.4,22.1 901.6,22.8 901.8,23.4 902.1,24 902.5,24.6 902.9,25.2 903.3,25.8 903.8,26.2 904.3,26.7 904.9,27.1 905.5,27.4 906.1,27.7 906.8,28 907.5,28.2 908.2,28.3 908.9,28.3 909.6,28.3 910.3,28.3 910.9,28.2 911.6,28 912.3,27.7 912.9,27.4 913.5,27.1 914.1,26.7 914.6,26.2 915.1,25.8 915.6,25.2 916,24.6 916.3,24 916.6,23.4 916.8,22.8 917,22.1 917.1,21.4 917.2,20.7" />
<path stroke="#000000" stroke-width="2" d="M 917.2,20.7 919.2,20.6 920.8,20.3 922.1,19.8 923,19.3 923.5,18.6 923.8,17.9 923.9,17.1 923.7,16.4 923.3,15.7 922.8,15.1 922.2,14.6 921.5,14.2 920.8,14 920,14.1 919.3,14.4 918.6,14.9 918.1,15.8 917.6,17.1 917.3,18.7 917.2,20.7 917.2,35.7" />
<path stroke="#000000" stroke-width="2" d="M 953.9,70" />
<path stroke="#000000" stroke-width="2" d="M 953.9,30 953.9,70" />
<path stroke="#000000" stroke-width="2" d="M 960.5,70" />
<path stroke="#000000" stroke-width="2" d="M 970.5,50 962.9,68.5" />
<path stroke="#000000" stroke-width="2" d="M 1000.5,70" />
<path stroke="#000000" stroke-width="2" d="M 1000.5,30" />
<path stroke="#000000" stroke-width="2" d="M 1000.5,30 1000.7,30 1001.1,30 1001.7,30 1002.6,30.1 1003.6,30.2 1004.8,30.3 1006.2,30.4 1007.6,30.6 1009,30.9 1010.5,31.2 1012,31.7 1013.5,32.2 1014.9,32.7 1016.2,33.4 1017.4,34.2 1018.4,35.1 1019.3,36.1 1020,37.3 1020.4,38.6 1020.5,40" />
<path stroke="#000000" stroke-width="2" d="M 1020.5,40 1022.4,42.1 1023.8,44.1 1024.5,45.7 1024.8,47.2 1024.7,48.4 1024.3,49.4 1023.6,50.2 1022.7,50.8 1021.6,51.1 1020.5,51.2 1019.4,51.1 1018.4,50.8 1017.4,50.2 1016.7,49.5 1016.3,48.4 1016.2,47.2 1016.5,45.7 1017.3,44.1 1018.6,42.1 1020.5,40" />
<path stroke="#000000" stroke-width="2" d="M 1020.5,40 1020.5,39.9 1020.5,39.7 1020.6,39.4 1020.7,39 1020.8,38.4 1021.1,37.8 1021.4,37.2 1021.8,36.5 1022.3,35.7 1023,35 1023.8,34.3 1024.8,33.5 1026,32.8 1027.4,32.2 1029,31.6 1030.8,31 1032.8,30.6 1035.1,30.3 1037.7,30.1 1040.5,30" />
<path stroke="#000000" stroke-width="2" d="M 1040.5,30 1040.4,32 1040.1,33.6 1039.7,34.9 1039.1,35.8 1038.4,36.3 1037.7,36.6 1036.9,36.7 1036.2,36.5 1035.5,36.1 1034.9,35.6 1034.4,35 1034,34.3 1033.9,33.6 1033.9,32.8 1034.2,32.1 1034.8,31.4 1035.6,30.9 1036.9,30.4 1038.5,30.1 1040.5,30 1050.5,30" />
<path stroke="#000000" stroke-width="2" d="M 1057.2,70" />
<path stroke="#000000" stroke-width="2" d="M 1057.2,50 1077.2,50" />
<path stroke="#000000" stroke-width="2" d="M 1107.2,70" />
<path stroke="#000000" stroke-width="2" d="M 1107.2,30 1127.2,30 1134.8,48.5 1142.5,30" />
<path stroke="#000000" stroke-width="2" d="M 1149.2,70" />
<path stroke="#000000" stroke-width="2" d="M 1149.2,25" />
<path stroke="#000000" stroke-width="2" d="M 1149.2,25 1151.2,24.9 1152.8,24.6 1154,24.1 1154.9,23.6 1155.5,22.9 1155.8,22.2 1155.8,21.4 1155.6,20.7 1155.3,20 1154.8,19.4 1154.2,18.9 1153.5,18.5 1152.7,18.3 1152,18.4 1151.3,18.7 1150.6,19.2 1150,20.1 1149.6,21.4 1149.3,23 1149.2,25 1149.2,40 1141.5,58.5" />
<path stroke="#000000" stroke-width="2" d="M 1162.5,70" />
<path stroke="#000000" stroke-width="2" d="M 1162.5,30 1162.5,38 1162.5,39 1162.6,40.1 1162.8,41.1 1163,42.1 1163.4,43.1 1163.8,44.1 1164.3,45 1164.9,45.8 1165.6,46.6 1166.4,47.4 1167.2,48 1168,48.6 1168.9,49.2 1169.9,49.6 1170.9,50 1171.9,50.2 1172.9,50.4 1173.9,50.5 1175,50.5 1176,50.4 1177.1,50.2 1178.1,50 1179.1,49.6 1180,49.2 1180.9,48.6 1181.8,48 1182.6,47.4 1183.3,46.6 1184,45.8 1184.6,45 1185.1,44.1 1185.6,43.1 1185.9,42.1 1186.2,41.1 1186.4,40.1 1186.5,39 1186.5,29 1186.5,69" />
<path stroke="#000000" stroke-width="2" d="M 1193.1,70" />
<path stroke="#000000" stroke-width="2" d="M 1201.1,20 1201.1,35" />
<path stroke="#000000" stroke-width="2" d="M 1201.1,35 1201,37 1200.7,38.6 1200.3,39.9 1199.7,40.8 1199,41.3 1198.3,41.6 1197.5,41.7 1196.8,41.5 1196.1,41.1 1195.5,40.6 1195,40 1194.6,39.3 1194.5,38.6 1194.5,37.8 1194.8,37.1 1195.4,36.4 1196.2,35.9 1197.5,35.4 1199.1,35.1 1201.1,35 1221.1,35" />
<path stroke="#000000" stroke-width="2" d="M 1251.1,70" />
<path stroke="#000000" stroke-width="2" d="M 1251.1,30 1291.1,30" />
<path stroke="#000000" stroke-width="2" d="M 1297.8,70" />
<path stroke="#000000" stroke-width="2" d="M 1297.8,50 1317.8,50" />
<path stroke="#000000" stroke-width="2" d="M 1347.8,70" />
</svg>