<svg xmlns="http://www.w3.org/2000/svg" width="1210.1891123604228" height="127.48001488736067" style="fill:none; stroke-linecap:round;">
    <rect width="100%" height="100%" fill="#FFFFFF" />
<path stroke="#000000" stroke-width="2" d="M 550,75" />
<path stroke="#000000" stroke-width="2" d="M 30,30 29.1,30 28.3,30.1 27.4,30.2 26.6,30.5 25.7,30.8 24.9,31.1 24.2,31.6 23.5,32.1 22.8,32.6 22.2,33.2 21.6,33.9 21.1,34.6 20.7,35.4 20.3,36.2 20,37 19.8,37.8 19.6,38.7 19.6,39.6 19.6,40.4 19.6,41.3 19.8,42.2 20,43 20.3,43.8 20.7,44.6 21.1,45.4 21.6,46.1 22.2,46.7 22.8,47.4 23.5,47.9 24.2,48.4 24.9,48.9 25.7,49.2 26.6,49.5 27.4,49.8 28.3,49.9 29.1,50 49.1,50 44.1,50 44.1,70" />
<path stroke="#000000" stroke-width="2" d="M 55.8,70" />
<path stroke="#000000" stroke-width="2" d="M 55.8,20 56,20 56,20.2 55.8,20.2 55.8,20" />
<path stroke="#000000" stroke-width="2" d="M 86,70" />
<path stroke="#000000" stroke-width="2" d="M 86,30 89.8,39.2" />
<path stroke="#000000" stroke-width="2" d="M 89.8,39.2 91.7,41.4 93.1,43.3 93.8,45 94.1,46.4 94,47.7 93.6,48.7 92.9,49.5 92,50 90.9,50.4 89.8,50.5 88.7,50.4 87.7,50 86.7,49.5 86,48.7 85.6,47.7 85.5,46.4 85.8,45 86.6,43.3 87.9,41.4 89.8,39.2 93.6,30" />
<path stroke="#000000" stroke-width="2" d="M 93.6,30 93.5,32 93.2,33.6 92.8,34.9 92.2,35.8 91.5,36.3 90.8,36.6 90.1,36.7 89.3,36.5 88.6,36.1 88,35.6 87.5,35 87.2,34.3 87,33.6 87,32.8 87.3,32.1 87.9,31.4 88.8,30.9 90,30.4 91.6,30.1 93.6,30 103.6,30" />
<path stroke="#000000" stroke-width="2" d="M 110.3,70" />
<path stroke="#000000" stroke-width="2" d="M 110.3,50 130.3,50" />
<path stroke="#000000" stroke-width="2" d="M 160.3,70" />
<path stroke="#000000" stroke-width="2" d="M 160.3,40 160.5,40 160.5,40.2 160.3,40.2 160.3,40" />
<path stroke="#000000" stroke-width="2" d="M 167.2,70" />
<path stroke="#000000" stroke-width="2" d="M 187.2,30 171.9,67" />
<path stroke="#000000" stroke-width="2" d="M 193.8,70" />
<path stroke="#000000" stroke-width="2" d="M 193.8,30 209.2,67" />
<path stroke="#000000" stroke-width="2" d="M 215.8,70" />
<path stroke="#000000" stroke-width="2" d="M 215.8,20 216,20 216,20.2 215.8,20.2 215.8,20" />
<path stroke="#000000" stroke-width="2" d="M 246,70" />
<path stroke="#000000" stroke-width="2" d="M 246,70" />
<path stroke="#000000" stroke-width="2" d="M 246,70 247.1,70 248.1,70.2 249,70.4 249.7,70.7 250.2,71 250.7,71.5 251,71.9 251.2,72.5 251.3,73.1 251.3,73.8 251.1,74.4 250.9,75.2 250.6,76 250.2,76.8 249.7,77.6 249.1,78.4 248.4,79.3 247.7,80.2 246.9,81.1 246,82" />
<path stroke="#000000" stroke-width="2" d="M 281.3,70" />
<path stroke="#000000" stroke-width="2" d="M 281.3,30 281.3,50 291.3,50 311.3,50" />
<path stroke="#000000" stroke-width="2" d="M 341.3,70" />
<path stroke="#000000" stroke-width="2" d="M 341.3,70 341.5,70 341.5,70.2 341.3,70.2 341.3,70" />
<path stroke="#000000" stroke-width="2" d="M 348.2,70" />
<path stroke="#000000" stroke-width="2" d="M 348.2,30 363.5,67" />
<path stroke="#000000" stroke-width="2" d="M 370.1,70" />
<path stroke="#000000" stroke-width="2" d="M 370.1,20 370.1,24 370.1,24.5 370.2,25 370.3,25.6 370.4,26.1 370.6,26.6 370.8,27 371.1,27.5 371.4,27.9 371.7,28.3 372.1,28.7 372.5,29 372.9,29.3 373.4,29.6 373.8,29.8 374.3,30 374.8,30.1 375.3,30.2 375.9,30.3 376.4,30.3 376.9,30.2 377.4,30.1 377.9,30 378.4,29.8 378.9,29.6 379.4,29.3 379.8,29 380.2,28.7 380.6,28.3 380.9,27.9 381.2,27.5 381.5,27 381.7,26.6 381.9,26.1 382,25.6 382.1,25 382.1,24.5 382.1,19.5 382.1,39.5" />
<path stroke="#000000" stroke-width="2" d="M 388.8,70" />
<path stroke="#000000" stroke-width="2" d="M 398.8,30 388.8,30 388.8,70" />
<path stroke="#000000" stroke-width="2" d="M 405.5,70" />
<path stroke="#000000" stroke-width="2" d="M 405.5,20 405.5,20.7 405.5,21.4 405.6,22.1 405.8,22.8 406.1,23.4 406.4,24 406.7,24.6 407.1,25.2 407.6,25.8 408,26.2 408.6,26.7 409.2,27.1 409.8,27.4 410.4,27.7 411,28 411.7,28.2 412.4,28.3 413.1,28.3 413.8,28.3 414.5,28.3 415.2,28.2 415.9,28 416.5,27.7 417.1,27.4 417.7,27.1 418.3,26.7 418.9,26.2 419.3,25.8 419.8,25.2 420.2,24.6 420.5,24 420.8,23.4 421.1,22.8 421.3,22.1 421.4,21.4 421.4,20.7" />
<path stroke="#000000" stroke-width="2" d="M 451.4,70" />
<path stroke="#000000" stroke-width="2" d="M 451.4,30 451.4,31.4 451.6,32.8 451.8,34.2 452.2,35.5 452.6,36.8 453.2,38.1 453.9,39.3 454.7,40.4 455.6,41.5 456.6,42.5 457.7,43.4 458.8,44.2 460,44.9 461.3,45.5 462.6,46 464,46.3 465.3,46.6 466.7,46.7 468.1,46.7 469.5,46.6 470.9,46.3 472.2,46 473.5,45.5 474.8,44.9 476,44.2 477.2,43.4 478.2,42.5 479.2,41.5 480.1,40.4 480.9,39.3 481.6,38.1 482.2,36.8 482.7,35.5 483,34.2 483.3,32.8 483.4,31.4" />
<path stroke="#000000" stroke-width="2" d="M 490.1,70" />
<path stroke="#000000" stroke-width="2" d="M 490.1,20 510.1,20 510.9,20 511.8,20.1 512.7,20.2 513.5,20.5 514.3,20.8 515.1,21.1 515.9,21.6 516.6,22.1 517.3,22.6 517.9,23.2 518.4,23.9 518.9,24.6 519.4,25.4 519.8,26.2 520.1,27 520.3,27.8 520.4,28.7 520.5,29.6 520.5,30.4 520.4,31.3 520.3,32.2 520.1,33 519.8,33.8 519.4,34.6 518.9,35.4 518.4,36.1 517.9,36.7 517.3,37.4 516.6,37.9 515.9,38.4 515.1,38.9 514.3,39.2 513.5,39.5 512.7,39.8 511.8,39.9 510.9,40" />
<path stroke="#000000" stroke-width="2" d="M 550.5,70" />
<path stroke="#000000" stroke-width="2" d="M 560.5,30 559.6,30 558.8,30.1 557.9,30.2 557.1,30.5 556.2,30.8 555.5,31.1 554.7,31.6 554,32.1 553.3,32.6 552.7,33.2 552.1,33.9 551.6,34.6 551.2,35.4 550.8,36.2 550.5,37 550.3,37.8 550.2,38.7 550.1,39.6 550.1,40.4 550.2,41.3 550.3,42.2 550.5,43 550.8,43.8 551.2,44.6 551.6,45.4 552.1,46.1 552.7,46.7 553.3,47.4 554,47.9 554.7,48.4 555.5,48.9 556.2,49.2 557.1,49.5 557.9,49.8 558.8,49.9 559.6,50 564.6,50 564.6,70" />
<path stroke="#000000" stroke-width="2" d="M 594.6,70" />
<path stroke="#000000" stroke-width="2" d="M 596.6,50 602,37.1 602.1,36.7 602.2,36.4 602.3,36.1 602.3,35.7 602.4,35.4 602.3,35 602.3,34.7 602.2,34.3 602.1,34 602,33.7 601.8,33.4 601.6,33.1 601.4,32.8 601.2,32.5 600.9,32.3 600.7,32.1 600.4,31.9 600.1,31.7 599.7,31.6 599.4,31.5 599.1,31.4 598.7,31.4 598.4,31.4 598,31.4 597.7,31.4 597.3,31.5 597,31.6 596.7,31.7 596.4,31.9 596.1,32.1 595.8,32.3 595.5,32.5 595.3,32.8 595.1,33.1 594.9,33.4 594.7,33.7 594.6,34 594.5,34.3 594.4,34.7 594.4,35 594.4,35.4 594.4,35.7 594.4,36.1 594.5,36.4 594.6,36.7 594.7,37.1 594.9,37.4 595.1,37.7 595.3,37.9 595.5,38.2 595.8,38.4 596.1,38.7 596.4,38.8 596.7,39 597,39.1 597.3,39.2 597.7,39.3 598,39.4 598.4,39.4 598.7,39.4 611.6,34" />
<path stroke="#000000" stroke-width="2" d="M 611.6,34 609.6,33.9 608,33.6 606.8,33.1 605.9,32.6 605.3,31.9 605,31.2 605,30.4 605.2,29.7 605.5,29 606,28.4 606.6,27.9 607.3,27.5 608.1,27.3 608.8,27.4 609.5,27.7 610.2,28.2 610.8,29.1 611.2,30.4 611.5,32 611.6,34 611.6,49" />
<path stroke="#000000" stroke-width="2" d="M 618.3,70" />
<path stroke="#000000" stroke-width="2" d="M 620.3,70 625.7,57.1 625.8,56.7 625.9,56.4 626,56.1 626,55.7 626,55.4 626,55 626,54.7 625.9,54.3 625.8,54 625.7,53.7 625.5,53.4 625.3,53.1 625.1,52.8 624.9,52.5 624.6,52.3 624.3,52.1 624,51.9 623.7,51.7 623.4,51.6 623.1,51.5 622.7,51.4 622.4,51.4 622,51.4 621.7,51.4 621.4,51.4 621,51.5 620.7,51.6 620.4,51.7 620,51.9 619.8,52.1 619.5,52.3 619.2,52.5 619,52.8 618.8,53.1 618.6,53.4 618.4,53.7 618.3,54 618.2,54.3 618.1,54.7 618.1,55 618,55.4 618.1,55.7 618.1,56.1 618.2,56.4 618.3,56.7 618.4,57.1 618.6,57.4 618.8,57.7 619,57.9 619.2,58.2 619.5,58.4 619.8,58.7 620,58.8 620.4,59 620.7,59.1 621,59.2 621.4,59.3 621.7,59.4 622,59.4 622.4,59.4 635.3,54" />
<path stroke="#000000" stroke-width="2" d="M 635.3,54 637.4,53.9 639,53.6 640.2,53.1 641.1,52.6 641.7,51.9 641.9,51.2 642,50.4 641.8,49.7 641.5,49 641,48.4 640.3,47.9 639.6,47.5 638.9,47.3 638.2,47.4 637.4,47.7 636.8,48.2 636.2,49.1 635.7,50.4 635.4,52 635.3,54 635.3,69 627.7,87.5 627.7,107.5 627.7,101.5 627.7,100.6 627.8,99.7 627.9,98.9 628.1,98 628.4,97.2 628.8,96.4 629.2,95.7 629.7,95 630.3,94.3 630.9,93.7 631.6,93.1 632.3,92.6 633,92.2 633.8,91.8 634.7,91.5 635.5,91.3 636.4,91.1 637.2,91.1" />
<path stroke="#000000" stroke-width="2" d="M 648.6,70" />
<path stroke="#000000" stroke-width="2" d="M 648.6,70 664,33 679.3,70" />
<path stroke="#000000" stroke-width="2" d="M 709.3,70" />
<path stroke="#000000" stroke-width="2" d="M 709.3,70" />
<path stroke="#000000" stroke-width="2" d="M 709.3,70 710.4,70 711.4,70.2 712.2,70.4 712.9,70.7 713.5,71 713.9,71.5 714.2,71.9 714.4,72.5 714.5,73.1 714.5,73.8 714.4,74.4 714.2,75.2 713.8,76 713.4,76.8 712.9,77.6 712.3,78.4 711.7,79.3 710.9,80.2 710.1,81.1 709.3,82" />
<path stroke="#000000" stroke-width="2" d="M 744.5,70" />
<path stroke="#000000" stroke-width="2" d="M 754.5,30 746.9,48.5 737,58.4 746.9,68.3" />
<path stroke="#000000" stroke-width="2" d="M 761.2,70" />
<path stroke="#000000" stroke-width="2" d="M 761.2,20 761.2,40 761.2,34 761.2,33.1 761.3,32.3 761.4,31.4 761.7,30.6 762,29.7 762.3,28.9 762.8,28.2 763.3,27.5 763.8,26.8 764.4,26.2 765.1,25.6 765.8,25.1 766.6,24.7 767.4,24.3 768.2,24 769,23.8 769.9,23.6 770.8,23.6" />
<path stroke="#000000" stroke-width="2" d="M 777.4,70" />
<path stroke="#000000" stroke-width="2" d="M 777.4,20 777.6,20 777.6,20.2 777.4,20.2 777.4,20" />
<path stroke="#000000" stroke-width="2" d="M 807.6,70" />
<path stroke="#000000" stroke-width="2" d="M 807.6,30 807.6,70 818.9,58.7" />
<path stroke="#000000" stroke-width="2" d="M 825.6,70" />
<path stroke="#000000" stroke-width="2" d="M 825.6,20 825.6,40 825.6,34 825.6,33.1 825.7,32.3 825.8,31.4 826.1,30.6 826.4,29.7 826.7,28.9 827.2,28.2 827.7,27.5 828.2,26.8 828.8,26.2 829.5,25.6 830.2,25.1 831,24.7 831.8,24.3 832.6,24 833.4,23.8 834.3,23.6 835.2,23.6" />
<path stroke="#000000" stroke-width="2" d="M 841.8,70" />
<path stroke="#000000" stroke-width="2" d="M 841.8,20 842,20 842,20.2 841.8,20.2 841.8,20" />
<path stroke="#000000" stroke-width="2" d="M 872,70" />
<path stroke="#000000" stroke-width="2" d="M 882,30 874.4,48.5 874.4,68.5 880,62.8" />
<path stroke="#000000" stroke-width="2" d="M 888.7,70" />
<path stroke="#000000" stroke-width="2" d="M 888.7,50 888.9,50 888.9,50.2 888.7,50.2 888.7,50" />
<path stroke="#000000" stroke-width="2" d="M 918.9,70" />
<path stroke="#000000" stroke-width="2" d="M 918.9,30 918.9,70 918.9,58 918.9,56.3 919,54.5 919.3,52.8 919.8,51.1 920.4,49.5 921.1,47.9 922,46.4 923,45 924.1,43.6 925.4,42.4 926.7,41.3 928.1,40.3 929.6,39.4 931.2,38.7 932.9,38.1 934.5,37.6 936.3,37.3 938,37.1" />
<path stroke="#000000" stroke-width="2" d="M 944.7,70" />
<path stroke="#000000" stroke-width="2" d="M 944.7,20 944.7,24 944.7,24.5 944.7,25 944.8,25.6 944.9,26.1 945.1,26.6 945.3,27 945.6,27.5 945.9,27.9 946.2,28.3 946.6,28.7 947,29 947.4,29.3 947.9,29.6 948.4,29.8 948.9,30 949.4,30.1 949.9,30.2 950.4,30.3 950.9,30.3 951.4,30.2 952,30.1 952.5,30 953,29.8 953.4,29.6 953.9,29.3 954.3,29 954.7,28.7 955.1,28.3 955.4,27.9 955.7,27.5 956,27 956.2,26.6 956.4,26.1 956.5,25.6 956.6,25 956.7,24.5 956.7,19.5 956.7,39.5" />
<path stroke="#000000" stroke-width="2" d="M 963.3,70" />
<path stroke="#000000" stroke-width="2" d="M 963.3,20 963.3,20.7 963.4,21.4 963.5,22.1 963.7,22.8 963.9,23.4 964.2,24 964.6,24.6 965,25.2 965.4,25.8 965.9,26.2 966.4,26.7 967,27.1 967.6,27.4 968.3,27.7 968.9,28 969.6,28.2 970.3,28.3 971,28.3 971.7,28.3 972.4,28.3 973,28.2 973.7,28 974.4,27.7 975,27.4 975.6,27.1 976.2,26.7 976.7,26.2 977.2,25.8 977.7,25.2 978.1,24.6 978.4,24 978.7,23.4 978.9,22.8 979.1,22.1 979.2,21.4 979.3,20.7" />
<path stroke="#000000" stroke-width="2" d="M 1009.3,70" />
<path stroke="#000000" stroke-width="2" d="M 1009.3,40" />
<path stroke="#000000" stroke-width="2" d="M 1009.3,40 1013.4,39.8 1016.6,39.2 1019.1,38.3 1020.8,37.1 1022,35.8 1022.5,34.3 1022.6,32.8 1022.3,31.4 1021.6,30 1020.6,28.8 1019.3,27.7 1017.9,27 1016.5,26.7 1015,26.8 1013.5,27.3 1012.2,28.5 1011,30.2 1010.1,32.7 1009.5,35.9 1009.3,40 1009.3,70" />
<path stroke="#000000" stroke-width="2" d="M 1029.3,70" />
<path stroke="#000000" stroke-width="2" d="M 1029.3,35" />
<path stroke="#000000" stroke-width="2" d="M 1029.3,35 1031.3,34.9 1032.9,34.6 1034.2,34.1 1035,33.6 1035.6,32.9 1035.9,32.2 1035.9,31.4 1035.8,30.7 1035.4,30 1034.9,29.4 1034.3,28.9 1033.6,28.5 1032.9,28.3 1032.1,28.4 1031.4,28.7 1030.7,29.2 1030.1,30.1 1029.7,31.4 1029.4,33 1029.3,35 1029.3,50 1021.6,68.5" />
<path stroke="#000000" stroke-width="2" d="M 1042.6,70" />
<path stroke="#000000" stroke-width="2" d="M 1042.6,20 1042.6,40 1042.6,34 1042.6,33.1 1042.7,32.3 1042.8,31.4 1043.1,30.6 1043.4,29.7 1043.7,28.9 1044.2,28.2 1044.7,27.5 1045.2,26.8 1045.8,26.2 1046.5,25.6 1047.2,25.1 1048,24.7 1048.8,24.3 1049.6,24 1050.4,23.8 1051.3,23.6 1052.2,23.6" />
<path stroke="#000000" stroke-width="2" d="M 1052.2,23.6 1054.2,23.5 1055.8,23.2 1057,22.7 1057.9,22.1 1058.5,21.5 1058.8,20.7 1058.8,20 1058.6,19.3 1058.3,18.6 1057.8,17.9 1057.2,17.4 1056.5,17.1 1055.7,16.9 1055,17 1054.3,17.2 1053.6,17.8 1053,18.7 1052.6,19.9 1052.3,21.5 1052.2,23.6 1052.2,38.6" />
<path stroke="#000000" stroke-width="2" d="M 1088.8,70" />
<path stroke="#000000" stroke-width="2" d="M 1088.8,30 1088.8,50 1094.5,44.3 1084.6,54.2 1094.5,64.1" />
<path stroke="#000000" stroke-width="2" d="M 1101.1,70" />
<path stroke="#000000" stroke-width="2" d="M 1101.1,50 1101.3,50 1101.3,50.2 1101.1,50.2 1101.1,50" />
<path stroke="#000000" stroke-width="2" d="M 1131.3,70" />
<path stroke="#000000" stroke-width="2" d="M 1131.3,30 1131.3,70 1131.3,58 1131.3,56.3 1131.5,54.5 1131.8,52.8 1132.2,51.1 1132.8,49.5 1133.6,47.9 1134.4,46.4 1135.4,45 1136.6,43.6 1137.8,42.4 1139.1,41.3 1140.6,40.3 1142.1,39.4 1143.7,38.7 1145.3,38.1 1147,37.6 1148.7,37.3 1150.4,37.1" />
<path stroke="#000000" stroke-width="2" d="M 1157.1,70" />
<path stroke="#000000" stroke-width="2" d="M 1157.1,50 1157.1,50.7 1157.2,51.4 1157.3,52.1 1157.5,52.8 1157.7,53.4 1158,54 1158.4,54.6 1158.8,55.2 1159.2,55.8 1159.7,56.2 1160.2,56.7 1160.8,57.1 1161.4,57.4 1162,57.7 1162.7,58 1163.4,58.2 1164.1,58.3 1164.8,58.3 1165.5,58.3 1166.1,58.3 1166.8,58.2 1167.5,58 1168.2,57.7 1168.8,57.4 1169.4,57.1 1170,56.7 1170.5,56.2 1171,55.8 1171.5,55.2 1171.9,54.6 1172.2,54 1172.5,53.4 1172.7,52.8 1172.9,52.1 1173,51.4 1173.1,50.7" />
<path stroke="#000000" stroke-width="2" d="M 1179.8,70" />
<path stroke="#000000" stroke-width="2" d="M 1179.8,20 1180.6,20 1181.5,20.1 1182.4,20.2 1183.2,20.5 1184,20.8 1184.8,21.1 1185.6,21.6 1186.3,22.1 1187,22.6 1187.6,23.2 1188.1,23.9 1188.6,24.6 1189.1,25.4 1189.4,26.2 1189.7,27 1190,27.8 1190.1,28.7 1190.2,29.6 1190.2,30.4 1190.1,31.3 1190,32.2 1189.7,33 1189.4,33.8 1189.1,34.6 1188.6,35.4 1188.1,36.1 1187.6,36.7 1187,37.4 1186.3,37.9 1185.6,38.4 1184.8,38.9 1184,39.2 1183.2,39.5 1182.4,39.8 1181.5,39.9 1180.6,40" />
<path stroke="#000000" stroke-width="2" d="M 1220.2,70" />
</svg>