<svg xmlns="http://www.w3.org/2000/svg" width="231.65590455612877" height="90.8" style="fill:none; stroke-linecap:round;">
    <rect width="100%" height="100%" fill="#FFFFFF" />
<path stroke="#000000" stroke-width="2" d="M 550,75" />
<path stroke="#000000" stroke-width="2" d="M 20,30 60,30" />
<path stroke="#000000" stroke-width="2" d="M 66.7,70" />
<path stroke="#000000" stroke-width="2" d="M 76.7,30 69,48.5 76.7,67" />
<path stroke="#000000" stroke-width="2" d="M 83.3,70" />
<path stroke="#000000" stroke-width="2" d="M 83.3,20 83.3,40 83.3,34 83.3,33.1 83.4,32.3 83.6,31.4 83.8,30.6 84.1,29.7 84.5,28.9 84.9,28.2 85.4,27.5 86,26.8 86.6,26.2 87.2,25.6 88,25.1 88.7,24.7 89.5,24.3 90.3,24 91.2,23.8 92,23.6 92.9,23.6" />
<path stroke="#000000" stroke-width="2" d="M 99.6,70" />
<path stroke="#000000" stroke-width="2" d="M 99.6,20 99.8,20 99.8,20.2 99.6,20.2 99.6,20" />
<path stroke="#000000" stroke-width="2" d="M 129.8,70" />
<path stroke="#000000" stroke-width="2" d="M 129.8,30 145.1,67" />
<path stroke="#000000" stroke-width="2" d="M 151.7,70" />
<path stroke="#000000" stroke-width="2" d="M 161.7,50 160.9,50 160,50.1 159.1,50.2 158.3,50.5 157.5,50.8 156.7,51.1 155.9,51.6 155.2,52.1 154.5,52.6 153.9,53.2 153.4,53.9 152.9,54.6 152.4,55.4 152.1,56.2 151.8,57 151.5,57.8 151.4,58.7 151.3,59.6 151.3,60.4 151.4,61.3 151.5,62.2 151.8,63 152.1,63.8 152.4,64.6 152.9,65.4 153.4,66.1 153.9,66.7 154.5,67.4 155.2,67.9 155.9,68.4 156.7,68.9 157.5,69.2 158.3,69.5 159.1,69.8 160,69.9 160.9,70 180.9,70" />
<path stroke="#000000" stroke-width="2" d="M 210.9,70" />
<path stroke="#000000" stroke-width="2" d="M 210.9,30 210.9,62" />
<path stroke="#000000" stroke-width="2" d="M 210.9,70 211.7,70 211.7,70.8 210.9,70.8 210.9,70" />
<path stroke="#000000" stroke-width="2" d="M 241.7,70" />
</svg>