<svg xmlns="http://www.w3.org/2000/svg" width="1403.926402189159" height="108.47759065022574" style="fill:none; stroke-linecap:round;">
    <rect width="100%" height="100%" fill="#FFFFFF" />
<path stroke="#000000" stroke-width="2" d="M 550,75" />
<path stroke="#000000" stroke-width="2" d="M 20,30 20,70 40,70" />
<path stroke="#000000" stroke-width="2" d="M 70,70" />
<path stroke="#000000" stroke-width="2" d="M 80,30 70,30 70,70" />
<path stroke="#000000" stroke-width="2" d="M 86.7,70" />
<path stroke="#000000" stroke-width="2" d="M 86.7,50" />
<path stroke="#000000" stroke-width="2" d="M 86.7,50 86.8,50 87.2,50 87.9,50 88.7,50.1 89.8,50.2 91,50.3 92.3,50.4 93.7,50.6 95.2,50.9 96.7,51.2 98.2,51.7 99.6,52.2 101,52.7 102.3,53.4 103.5,54.2 104.6,55.1 105.5,56.1 106.1,57.3 106.5,58.6 106.7,60" />
<path stroke="#000000" stroke-width="2" d="M 106.7,60 108.6,62.1 109.9,64.1 110.7,65.7 111,67.2 110.9,68.4 110.4,69.5 109.7,70.2 108.8,70.8 107.8,71.1 106.7,71.2 105.6,71.1 104.5,70.8 103.6,70.2 102.9,69.5 102.4,68.4 102.3,67.2 102.7,65.7 103.4,64 104.7,62.1 106.7,60" />
<path stroke="#000000" stroke-width="2" d="M 106.7,60 106.7,59.9 106.7,59.7 106.7,59.4 106.8,59 107,58.4 107.2,57.8 107.5,57.2 107.9,56.5 108.5,55.7 109.2,55 110,54.3 111,53.5 112.2,52.8 113.5,52.2 115.1,51.6 116.9,51 118.9,50.6 121.2,50.3 123.8,50.1 126.7,50 126.7,50.7 126.7,51.4 126.8,52.1 127,52.8 127.3,53.4 127.6,54 127.9,54.6 128.3,55.2 128.8,55.8 129.3,56.2 129.8,56.7 130.4,57.1 131,57.4 131.6,57.7 132.3,58 132.9,58.2 133.6,58.3 134.3,58.3 135,58.3 135.7,58.3 136.4,58.2 137.1,58 137.7,57.7 138.4,57.4 139,57.1 139.5,56.7 140.1,56.2 140.6,55.8 141,55.2 141.4,54.6 141.8,54 142.1,53.4 142.3,52.8 142.5,52.1 142.6,51.4 142.7,50.7" />
<path stroke="#000000" stroke-width="2" d="M 142.7,50.7 144.1,50.8 145.4,51.3 146.5,51.9 147.5,52.8 148.3,53.8 149,55 149.5,56.3 149.9,57.7 150.1,59.2 150.2,60.7 150.1,62.2 149.9,63.7 149.5,65.1 149,66.4 148.3,67.6 147.5,68.6 146.5,69.5 145.4,70.1 144.1,70.6 142.7,70.7" />
<path stroke="#000000" stroke-width="2" d="M 180.2,70" />
<path stroke="#000000" stroke-width="2" d="M 180.2,30 190.2,30 190.2,70" />
<path stroke="#000000" stroke-width="2" d="M 196.8,70" />
<path stroke="#000000" stroke-width="2" d="M 196.8,20 196.8,20.7 196.9,21.4 197,22.1 197.2,22.8 197.4,23.4 197.7,24 198.1,24.6 198.5,25.2 198.9,25.8 199.4,26.2 199.9,26.7 200.5,27.1 201.1,27.4 201.7,27.7 202.4,28 203.1,28.2 203.8,28.3 204.5,28.3 205.2,28.3 205.9,28.3 206.5,28.2 207.2,28 207.9,27.7 208.5,27.4 209.1,27.1 209.7,26.7 210.2,26.2 210.7,25.8 211.2,25.2 211.6,24.6 211.9,24 212.2,23.4 212.4,22.8 212.6,22.1 212.7,21.4 212.8,20.7" />
<path stroke="#000000" stroke-width="2" d="M 242.8,70" />
<path stroke="#000000" stroke-width="2" d="M 258.8,30 239,49.8 258.8,69.6" />
<path stroke="#000000" stroke-width="2" d="M 265.5,70" />
<path stroke="#000000" stroke-width="2" d="M 265.5,20 265.5,40 265.5,34 265.5,33.1 265.5,32.3 265.7,31.4 265.9,30.6 266.2,29.7 266.6,28.9 267,28.2 267.5,27.5 268.1,26.8 268.7,26.2 269.4,25.6 270.1,25.1 270.8,24.7 271.6,24.3 272.5,24 273.3,23.8 274.2,23.6 275,23.6" />
<path stroke="#000000" stroke-width="2" d="M 305,70" />
<path stroke="#000000" stroke-width="2" d="M 305,30 305,70" />
<path stroke="#000000" stroke-width="2" d="M 311.7,70" />
<path stroke="#000000" stroke-width="2" d="M 311.7,50" />
<path stroke="#000000" stroke-width="2" d="M 311.7,50 313.1,50.1 314.4,50.6 315.5,51.2 316.5,52.1 317.3,53.1 318,54.3 318.5,55.6 318.9,57 319.1,58.5 319.2,60 319.1,61.5 318.9,63 318.5,64.4 318,65.7 317.3,66.9 316.5,67.9 315.5,68.8 314.4,69.4 313.1,69.9 311.7,70" />
<path stroke="#000000" stroke-width="2" d="M 325.9,70" />
<path stroke="#000000" stroke-width="2" d="M 325.9,30 326.1,30 326.1,30.2 325.9,30.2 325.9,30" />
<path stroke="#000000" stroke-width="2" d="M 356.1,70" />
<path stroke="#000000" stroke-width="2" d="M 356.1,30 356.1,70 367.4,58.7" />
<path stroke="#000000" stroke-width="2" d="M 374,70" />
<path stroke="#000000" stroke-width="2" d="M 374,20 374,40 374,34 374,33.1 374.1,32.3 374.3,31.4 374.5,30.6 374.8,29.7 375.2,28.9 375.6,28.2 376.1,27.5 376.7,26.8 377.3,26.2 377.9,25.6 378.7,25.1 379.4,24.7 380.2,24.3 381,24 381.9,23.8 382.7,23.6 383.6,23.6 391.2,42.1 392.1,42.1 393,42 393.8,41.8 394.7,41.6 395.5,41.3 396.3,40.9 397.1,40.5 397.8,40 398.4,39.4 399.1,38.8 399.6,38.1 400.1,37.4 400.6,36.7 400.9,35.9 401.2,35.1 401.4,34.2 401.6,33.4 401.7,32.5 401.7,31.6 401.6,30.8 401.4,29.9 401.2,29.1 400.9,28.2 400.6,27.4 400.1,26.7 399.6,26 399.1,25.3 398.4,24.7 397.8,24.1 397.1,23.6 396.3,23.2 395.5,22.8 394.7,22.5 393.8,22.3 393,22.1 392.1,22.1 391.2,22.1 390.4,22.1 389.5,22.3 388.7,22.5 387.9,22.8 387.1,23.2 386.3,23.6 385.6,24.1 384.9,24.7 384.3,25.3 383.7,26 383.2,26.7 382.8,27.4 382.4,28.2 382.1,29.1 381.9,29.9 381.8,30.8 381.7,31.6 381.7,32.5 381.8,33.4 381.9,34.2 382.1,35.1 382.4,35.9 382.8,36.7 383.2,37.4 383.7,38.1 384.3,38.8 384.9,39.4 385.6,40 386.3,40.5 387.1,40.9 387.9,41.3 388.7,41.6 389.5,41.8 390.4,42 391.2,42.1" />
<path stroke="#000000" stroke-width="2" d="M 431.7,70" />
<path stroke="#000000" stroke-width="2" d="M 431.7,30 431.7,70 451.7,70" />
<path stroke="#000000" stroke-width="2" d="M 481.7,70" />
<path stroke="#000000" stroke-width="2" d="M 491.7,30 481.7,30 481.7,70" />
<path stroke="#000000" stroke-width="2" d="M 498.3,70" />
<path stroke="#000000" stroke-width="2" d="M 498.3,50" />
<path stroke="#000000" stroke-width="2" d="M 498.3,50 498.5,50 498.9,50 499.6,50 500.4,50.1 501.5,50.2 502.7,50.3 504,50.4 505.4,50.6 506.8,50.9 508.3,51.2 509.8,51.7 511.3,52.2 512.7,52.7 514,53.4 515.2,54.2 516.3,55.1 517.1,56.1 517.8,57.3 518.2,58.6 518.3,60" />
<path stroke="#000000" stroke-width="2" d="M 518.3,60 520.3,62.1 521.6,64.1 522.4,65.7 522.7,67.2 522.6,68.4 522.1,69.5 521.4,70.2 520.5,70.8 519.5,71.1 518.3,71.2 517.2,71.1 516.2,70.8 515.3,70.2 514.6,69.5 514.1,68.4 514,67.2 514.3,65.7 515.1,64 516.4,62.1 518.3,60" />
<path stroke="#000000" stroke-width="2" d="M 518.3,60 518.3,59.9 518.4,59.7 518.4,59.4 518.5,59 518.7,58.4 518.9,57.8 519.2,57.2 519.6,56.5 520.2,55.7 520.8,55 521.7,54.3 522.7,53.5 523.8,52.8 525.2,52.2 526.8,51.6 528.6,51 530.6,50.6 532.9,50.3 535.5,50.1 538.3,50 538.3,50.7 538.4,51.4 538.5,52.1 538.7,52.8 538.9,53.4 539.2,54 539.6,54.6 540,55.2 540.4,55.8 540.9,56.2 541.5,56.7 542,57.1 542.6,57.4 543.3,57.7 543.9,58 544.6,58.2 545.3,58.3 546,58.3 546.7,58.3 547.4,58.3 548.1,58.2 548.7,58 549.4,57.7 550,57.4 550.6,57.1 551.2,56.7 551.7,56.2 552.2,55.8 552.7,55.2 553.1,54.6 553.4,54 553.7,53.4 554,52.8 554.1,52.1 554.3,51.4 554.3,50.7" />
<path stroke="#000000" stroke-width="2" d="M 554.3,50.7 555.7,50.8 557,51.3 558.1,51.9 559.1,52.8 559.9,53.8 560.6,55 561.1,56.3 561.5,57.7 561.7,59.2 561.8,60.7 561.7,62.2 561.5,63.7 561.1,65.1 560.6,66.4 559.9,67.6 559.1,68.6 558.1,69.5 557,70.1 555.7,70.6 554.3,70.7" />
<path stroke="#000000" stroke-width="2" d="M 591.8,70" />
<path stroke="#000000" stroke-width="2" d="M 591.8,30 601.8,30 601.8,70" />
<path stroke="#000000" stroke-width="2" d="M 608.5,70" />
<path stroke="#000000" stroke-width="2" d="M 608.5,20 608.5,20.7 608.6,21.4 608.7,22.1 608.9,22.8 609.1,23.4 609.4,24 609.7,24.6 610.1,25.2 610.6,25.8 611.1,26.2 611.6,26.7 612.2,27.1 612.8,27.4 613.4,27.7 614.1,28 614.8,28.2 615.4,28.3 616.1,28.3 616.8,28.3 617.5,28.3 618.2,28.2 618.9,28 619.5,27.7 620.2,27.4 620.8,27.1 621.4,26.7 621.9,26.2 622.4,25.8 622.8,25.2 623.2,24.6 623.6,24 623.9,23.4 624.1,22.8 624.3,22.1 624.4,21.4 624.5,20.7" />
<path stroke="#000000" stroke-width="2" d="M 654.5,70" />
<path stroke="#000000" stroke-width="2" d="M 654.5,40 654.7,40 654.7,40.2 654.5,40.2 654.5,40" />
<path stroke="#000000" stroke-width="2" d="M 661.3,70" />
<path stroke="#000000" stroke-width="2" d="M 681.3,30 666,67" />
<path stroke="#000000" stroke-width="2" d="M 688,70" />
<path stroke="#000000" stroke-width="2" d="M 688,50 693,50 693,70 685.4,88.5" />
<path stroke="#000000" stroke-width="2" d="M 723,70" />
<path stroke="#000000" stroke-width="2" d="M 728,30" />
<path stroke="#000000" stroke-width="2" d="M 728,30 726.6,30.1 725.3,30.6 724.2,31.2 723.2,32.1 722.4,33.1 721.7,34.3 721.2,35.6 720.8,37 720.6,38.5 720.5,40 720.6,41.5 720.8,43 721.2,44.4 721.7,45.7 722.4,46.9 723.2,47.9 724.2,48.8 725.3,49.4 726.6,49.9 728,50 748,50" />
<path stroke="#000000" stroke-width="2" d="M 778,70" />
<path stroke="#000000" stroke-width="2" d="M 794,30 774.2,49.8 794,69.6" />
<path stroke="#000000" stroke-width="2" d="M 800.7,70" />
<path stroke="#000000" stroke-width="2" d="M 800.7,20 800.7,40 800.7,34 800.7,33.1 800.8,32.3 800.9,31.4 801.1,30.6 801.4,29.7 801.8,28.9 802.2,28.2 802.7,27.5 803.3,26.8 803.9,26.2 804.6,25.6 805.3,25.1 806,24.7 806.8,24.3 807.7,24 808.5,23.8 809.4,23.6 810.2,23.6" />
<path stroke="#000000" stroke-width="2" d="M 840.2,70" />
<path stroke="#000000" stroke-width="2" d="M 840.2,30 860,49.8 840.2,69.6" />
<path stroke="#000000" stroke-width="2" d="M 866.7,70" />
<path stroke="#000000" stroke-width="2" d="M 866.7,25" />
<path stroke="#000000" stroke-width="2" d="M 866.7,25 868.7,24.9 870.3,24.6 871.6,24.1 872.5,23.6 873,22.9 873.3,22.2 873.3,21.4 873.2,20.7 872.8,20 872.3,19.4 871.7,18.9 871,18.5 870.3,18.3 869.5,18.4 868.8,18.7 868.1,19.2 867.6,20.1 867.1,21.4 866.8,23 866.7,25 866.7,40 859,58.5" />
<path stroke="#000000" stroke-width="2" d="M 903.3,70" />
<path stroke="#000000" stroke-width="2" d="M 903.3,70 903.5,70 903.5,70.2 903.3,70.2 903.3,70" />
<path stroke="#000000" stroke-width="2" d="M 933.5,70" />
<path stroke="#000000" stroke-width="2" d="M 933.5,30 933.5,70 953.5,70" />
<path stroke="#000000" stroke-width="2" d="M 983.5,70" />
<path stroke="#000000" stroke-width="2" d="M 993.5,30 983.5,30 983.5,70" />
<path stroke="#000000" stroke-width="2" d="M 1000.2,70" />
<path stroke="#000000" stroke-width="2" d="M 1000.2,50" />
<path stroke="#000000" stroke-width="2" d="M 1000.2,50 1000.4,50 1000.8,50 1001.4,50 1002.3,50.1 1003.3,50.2 1004.5,50.3 1005.9,50.4 1007.3,50.6 1008.7,50.9 1010.2,51.2 1011.7,51.7 1013.2,52.2 1014.6,52.7 1015.9,53.4 1017.1,54.2 1018.1,55.1 1019,56.1 1019.7,57.3 1020.1,58.6 1020.2,60" />
<path stroke="#000000" stroke-width="2" d="M 1020.2,60 1022.1,62.1 1023.5,64.1 1024.2,65.7 1024.5,67.2 1024.4,68.4 1024,69.5 1023.3,70.2 1022.4,70.8 1021.3,71.1 1020.2,71.2 1019.1,71.1 1018.1,70.8 1017.1,70.2 1016.4,69.5 1016,68.4 1015.9,67.2 1016.2,65.7 1017,64 1018.3,62.1 1020.2,60" />
<path stroke="#000000" stroke-width="2" d="M 1020.2,60 1020.2,59.9 1020.2,59.7 1020.3,59.4 1020.4,59 1020.5,58.4 1020.8,57.8 1021.1,57.2 1021.5,56.5 1022,55.7 1022.7,55 1023.5,54.3 1024.5,53.5 1025.7,52.8 1027.1,52.2 1028.7,51.6 1030.5,51 1032.5,50.6 1034.8,50.3 1037.4,50.1 1040.2,50 1040.2,50.7 1040.3,51.4 1040.4,52.1 1040.6,52.8 1040.8,53.4 1041.1,54 1041.5,54.6 1041.9,55.2 1042.3,55.8 1042.8,56.2 1043.3,56.7 1043.9,57.1 1044.5,57.4 1045.1,57.7 1045.8,58 1046.5,58.2 1047.2,58.3 1047.9,58.3 1048.6,58.3 1049.3,58.3 1049.9,58.2 1050.6,58 1051.3,57.7 1051.9,57.4 1052.5,57.1 1053.1,56.7 1053.6,56.2 1054.1,55.8 1054.6,55.2 1055,54.6 1055.3,54 1055.6,53.4 1055.8,52.8 1056,52.1 1056.1,51.4 1056.2,50.7" />
<path stroke="#000000" stroke-width="2" d="M 1056.2,50.7 1057.6,50.8 1058.9,51.3 1060,51.9 1061,52.8 1061.8,53.8 1062.5,55 1063,56.3 1063.4,57.7 1063.6,59.2 1063.7,60.7 1063.6,62.2 1063.4,63.7 1063,65.1 1062.5,66.4 1061.8,67.6 1061,68.6 1060,69.5 1058.9,70.1 1057.6,70.6 1056.2,70.7" />
<path stroke="#000000" stroke-width="2" d="M 1093.7,70" />
<path stroke="#000000" stroke-width="2" d="M 1093.7,30 1103.7,30 1103.7,70" />
<path stroke="#000000" stroke-width="2" d="M 1110.4,70" />
<path stroke="#000000" stroke-width="2" d="M 1110.4,20 1110.4,20.7 1110.4,21.4 1110.5,22.1 1110.7,22.8 1111,23.4 1111.3,24 1111.6,24.6 1112,25.2 1112.5,25.8 1113,26.2 1113.5,26.7 1114.1,27.1 1114.7,27.4 1115.3,27.7 1116,28 1116.6,28.2 1117.3,28.3 1118,28.3 1118.7,28.3 1119.4,28.3 1120.1,28.2 1120.8,28 1121.4,27.7 1122.1,27.4 1122.7,27.1 1123.2,26.7 1123.8,26.2 1124.3,25.8 1124.7,25.2 1125.1,24.6 1125.5,24 1125.8,23.4 1126,22.8 1126.2,22.1 1126.3,21.4 1126.4,20.7" />
<path stroke="#000000" stroke-width="2" d="M 1156.4,70" />
<path stroke="#000000" stroke-width="2" d="M 1156.4,30 1176.4,30" />
<path stroke="#000000" stroke-width="2" d="M 1176.4,30 1177.8,30.1 1179.1,30.6 1180.2,31.2 1181.2,32.1 1182,33.1 1182.7,34.3 1183.2,35.6 1183.6,37 1183.8,38.5 1183.9,40 1183.8,41.5 1183.6,43 1183.2,44.4 1182.7,45.7 1182,46.9 1181.2,47.9 1180.2,48.8 1179.1,49.4 1177.8,49.9 1176.4,50" />
<path stroke="#000000" stroke-width="2" d="M 1190.5,70" />
<path stroke="#000000" stroke-width="2" d="M 1190.5,30 1205.8,67 1221.1,30" />
<path stroke="#000000" stroke-width="2" d="M 1227.8,70" />
<path stroke="#000000" stroke-width="2" d="M 1227.8,30" />
<path stroke="#000000" stroke-width="2" d="M 1227.8,30 1230.7,30.3 1233.2,31.1 1235.5,32.4 1237.4,34.2 1239.1,36.2 1240.4,38.6 1241.5,41.3 1242.2,44.1 1242.7,47 1242.8,50 1242.7,53 1242.2,55.9 1241.5,58.7 1240.4,61.4 1239.1,63.8 1237.4,65.8 1235.5,67.6 1233.2,68.9 1230.7,69.7 1227.8,70" />
<path stroke="#000000" stroke-width="2" d="M 1249.5,70" />
<path stroke="#000000" stroke-width="2" d="M 1249.5,70 1257.1,51.5 1257.1,52.2 1257.2,52.9 1257.3,53.6 1257.5,54.3 1257.7,54.9 1258,55.6 1258.4,56.2 1258.8,56.7 1259.2,57.3 1259.7,57.8 1260.2,58.2 1260.8,58.6 1261.4,59 1262.1,59.3 1262.7,59.5 1263.4,59.7 1264.1,59.8 1264.8,59.9 1265.5,59.9 1266.2,59.8 1266.8,59.7 1267.5,59.5 1268.2,59.3 1268.8,59 1269.4,58.6 1270,58.2 1270.5,57.8 1271,57.3 1271.5,56.7 1271.9,56.2 1272.2,55.6 1272.5,54.9 1272.7,54.3 1272.9,53.6 1273,52.9 1273.1,52.2" />
<path stroke="#000000" stroke-width="2" d="M 1303.1,70" />
<path stroke="#000000" stroke-width="2" d="M 1303.1,35" />
<path stroke="#000000" stroke-width="2" d="M 1303.1,35 1305.1,34.9 1306.8,34.6 1308,34.1 1308.9,33.6 1309.4,32.9 1309.7,32.2 1309.8,31.4 1309.6,30.7 1309.2,30 1308.7,29.4 1308.1,28.9 1307.4,28.5 1306.7,28.3 1305.9,28.4 1305.2,28.7 1304.5,29.2 1304,30.1 1303.5,31.4 1303.2,33 1303.1,35 1303.1,50 1295.5,68.5 1297.7,62.9 1298.1,62.1 1298.5,61.4 1299,60.6 1299.5,59.9 1300.1,59.3 1300.7,58.7 1301.4,58.2 1302.1,57.7 1302.9,57.3 1303.7,57 1304.6,56.7 1305.4,56.5" />
<path stroke="#000000" stroke-width="2" d="M 1316.4,70" />
<path stroke="#000000" stroke-width="2" d="M 1316.4,20 1336.4,20" />
<path stroke="#000000" stroke-width="2" d="M 1336.4,20 1337.9,20.1 1339.1,20.6 1340.3,21.2 1341.2,22.1 1342.1,23.1 1342.7,24.3 1343.3,25.6 1343.6,27 1343.9,28.5 1343.9,30 1343.9,31.5 1343.6,33 1343.3,34.4 1342.7,35.7 1342.1,36.9 1341.2,37.9 1340.3,38.8 1339.1,39.4 1337.9,39.9 1336.4,40" />
<path stroke="#000000" stroke-width="2" d="M 1336.4,40 1338.5,39.9 1340.1,39.6 1341.3,39.1 1342.2,38.6 1342.8,37.9 1343,37.2 1343.1,36.4 1342.9,35.7 1342.6,35 1342.1,34.4 1341.4,33.9 1340.7,33.5 1340,33.3 1339.3,33.4 1338.5,33.7 1337.9,34.2 1337.3,35.1 1336.8,36.4 1336.5,38 1336.4,40 1336.4,55" />
<path stroke="#000000" stroke-width="2" d="M 1373.9,70" />
<path stroke="#000000" stroke-width="2" d="M 1378.9,30" />
<path stroke="#000000" stroke-width="2" d="M 1378.9,30 1377.5,30.1 1376.2,30.6 1375.1,31.2 1374.1,32.1 1373.3,33.1 1372.6,34.3 1372.1,35.6 1371.7,37 1371.5,38.5 1371.4,40 1371.5,41.5 1371.7,43 1372.1,44.4 1372.6,45.7 1373.3,46.9 1374.1,47.9 1375.1,48.8 1376.2,49.4 1377.5,49.9 1378.9,50 1383.9,50 1383.9,70" />
<path stroke="#000000" stroke-width="2" d="M 1413.9,70" />
</svg>