<svg xmlns="http://www.w3.org/2000/svg" width="1430.1592108023763" height="111.8189315218033" style="fill:none; stroke-linecap:round;">
    <rect width="100%" height="100%" fill="#FFFFFF" />
<path stroke="#000000" stroke-width="2" d="M 550,75" />
<path stroke="#000000" stroke-width="2" d="M 20,30 20,50 30,50 22.3,68.5" />
<path stroke="#000000" stroke-width="2" d="M 60,70" />
<path stroke="#000000" stroke-width="2" d="M 80,30 64.7,67" />
<path stroke="#000000" stroke-width="2" d="M 86.7,70" />
<path stroke="#000000" stroke-width="2" d="M 86.7,70 86.7,69.3 86.7,68.6 86.8,67.9 87,67.2 87.3,66.6 87.6,66 87.9,65.4 88.3,64.8 88.8,64.2 89.3,63.8 89.8,63.3 90.4,62.9 91,62.6 91.6,62.3 92.3,62 92.9,61.8 93.6,61.7 94.3,61.7 95,61.7 95.7,61.7 96.4,61.8 97.1,62 97.7,62.3 98.4,62.6 99,62.9 99.5,63.3 100.1,63.8 100.6,64.2 101,64.8 101.4,65.4 101.8,66 102.1,66.6 102.3,67.2 102.5,67.9 102.6,68.6 102.7,69.3" />
<path stroke="#000000" stroke-width="2" d="M 132.7,70" />
<path stroke="#000000" stroke-width="2" d="M 144.7,54" />
<path stroke="#000000" stroke-width="2" d="M 144.7,54 144.4,49.9 143.8,46.7 142.9,44.2 141.8,42.5 140.4,41.3 139,40.8 137.5,40.7 136,41 134.6,41.7 133.4,42.8 132.4,44 131.7,45.4 131.3,46.8 131.4,48.3 132,49.8 133.1,51.1 134.9,52.3 137.4,53.2 140.6,53.8 144.7,54 152.7,54" />
<path stroke="#000000" stroke-width="2" d="M 152.7,54 154.4,53.4 156,52.7 157.5,51.9 158.9,51.2 160.2,50.3 161.4,49.4 162.5,48.5 163.5,47.5 164.4,46.5 165.2,45.5 165.9,44.4 166.5,43.3 167,42.2 167.5,41.1 167.8,39.9 168.1,38.8 168.4,37.6 168.5,36.4 168.6,35.2 168.7,34" />
<path stroke="#000000" stroke-width="2" d="M 175.3,70" />
<path stroke="#000000" stroke-width="2" d="M 175.3,25" />
<path stroke="#000000" stroke-width="2" d="M 175.3,25 177.3,24.9 179,24.6 180.2,24.1 181.1,23.6 181.6,22.9 181.9,22.2 182,21.4 181.8,20.7 181.4,20 180.9,19.4 180.3,18.9 179.6,18.5 178.9,18.3 178.2,18.4 177.4,18.7 176.8,19.2 176.2,20.1 175.7,21.4 175.4,23 175.3,25 175.3,40" />
<path stroke="#000000" stroke-width="2" d="M 212,70" />
<path stroke="#000000" stroke-width="2" d="M 212,30 252,30" />
<path stroke="#000000" stroke-width="2" d="M 282,70" />
<path stroke="#000000" stroke-width="2" d="M 292,50 292.8,50 293.7,49.9 294.6,49.8 295.4,49.5 296.2,49.2 297,48.9 297.8,48.4 298.5,47.9 299.2,47.4 299.8,46.8 300.3,46.1 300.8,45.4 301.3,44.6 301.6,43.8 301.9,43 302.2,42.2 302.3,41.3 302.4,40.4 302.4,39.6 302.3,38.7 302.2,37.8 301.9,37 301.6,36.2 301.3,35.4 300.8,34.6 300.3,33.9 299.8,33.3 299.2,32.6 298.5,32.1 297.8,31.6 297,31.1 296.2,30.8 295.4,30.5 294.6,30.2 293.7,30.1 292.8,30 292,30 291.1,30.1 290.2,30.2 289.4,30.5 288.6,30.8 287.8,31.1 287,31.6 286.3,32.1 285.7,32.6 285,33.3 284.5,33.9 284,34.6 283.5,35.4 283.2,36.2 282.9,37 282.6,37.8 282.5,38.7 282.4,39.6 282.4,40.4 282.5,41.3 282.6,42.2 282.9,43 283.2,43.8 283.5,44.6 284,45.4 284.5,46.1 285,46.8 285.7,47.4 286.3,47.9 287,48.4 287.8,48.9 288.6,49.2 289.4,49.5 290.2,49.8 291.1,49.9 292,50 292,70 292,64 292,63.1 292,62.3 292.2,61.4 292.4,60.6 292.7,59.7 293.1,58.9 293.5,58.2 294,57.5 294.6,56.8 295.2,56.2 295.9,55.6 296.6,55.1 297.3,54.7 298.1,54.3 299,54 299.8,53.8 300.7,53.6 301.5,53.6" />
<path stroke="#000000" stroke-width="2" d="M 309.1,70" />
<path stroke="#000000" stroke-width="2" d="M 309.1,20 309.3,20 309.3,20.2 309.1,20.2 309.1,20" />
<path stroke="#000000" stroke-width="2" d="M 339.3,70" />
<path stroke="#000000" stroke-width="2" d="M 339.3,30 341,30 342.7,30.2 344.5,30.5 346.2,30.9 347.8,31.5 349.4,32.2 350.9,33.1 352.3,34.1 353.7,35.2 354.9,36.5 356,37.8 357,39.2 357.9,40.7 358.6,42.3 359.2,44 359.7,45.7 360,47.4 360.1,49.1 360.1,50.9 360,52.6 359.7,54.3 359.2,56 358.6,57.6 357.9,59.2 357,60.7 356,62.2 354.9,63.5 353.7,64.7 352.3,65.8 350.9,66.8 349.4,67.7 347.8,68.5 346.2,69.1 344.5,69.5 342.7,69.8 341,70" />
<path stroke="#000000" stroke-width="2" d="M 366.8,70" />
<path stroke="#000000" stroke-width="2" d="M 366.8,30 376.8,30 376.8,70" />
<path stroke="#000000" stroke-width="2" d="M 383.5,70" />
<path stroke="#000000" stroke-width="2" d="M 383.5,20 383.5,40 383.5,34 383.5,33.1 383.5,32.3 383.7,31.4 383.9,30.6 384.2,29.7 384.6,28.9 385,28.2 385.5,27.5 386.1,26.8 386.7,26.2 387.4,25.6 388.1,25.1 388.8,24.7 389.6,24.3 390.4,24 391.3,23.8 392.1,23.6 393,23.6" />
<path stroke="#000000" stroke-width="2" d="M 399.7,70" />
<path stroke="#000000" stroke-width="2" d="M 399.7,20 419.7,20 412,38.5" />
<path stroke="#000000" stroke-width="2" d="M 449.7,70" />
<path stroke="#000000" stroke-width="2" d="M 449.7,30 449.7,31.4 449.8,32.8 450,34.2 450.4,35.5 450.9,36.8 451.5,38.1 452.2,39.3 453,40.4 453.9,41.5 454.8,42.5 455.9,43.4 457.1,44.2 458.3,44.9 459.5,45.5 460.8,46 462.2,46.3 463.6,46.6 465,46.7 466.4,46.7 467.7,46.6 469.1,46.3 470.5,46 471.8,45.5 473,44.9 474.3,44.2 475.4,43.4 476.5,42.5 477.5,41.5 478.4,40.4 479.2,39.3 479.9,38.1 480.4,36.8 480.9,35.5 481.3,34.2 481.5,32.8 481.6,31.4" />
<path stroke="#000000" stroke-width="2" d="M 488.3,70" />
<path stroke="#000000" stroke-width="2" d="M 488.3,70 488.3,69.3 488.4,68.6 488.5,67.9 488.7,67.2 488.9,66.6 489.2,66 489.6,65.4 490,64.8 490.4,64.2 490.9,63.8 491.4,63.3 492,62.9 492.6,62.6 493.2,62.3 493.9,62 494.6,61.8 495.3,61.7 496,61.7 496.7,61.7 497.3,61.7 498,61.8 498.7,62 499.4,62.3 500,62.6 500.6,62.9 501.2,63.3 501.7,63.8 502.2,64.2 502.6,64.8 503,65.4 503.4,66 503.7,66.6 503.9,67.2 504.1,67.9 504.2,68.6 504.3,69.3" />
<path stroke="#000000" stroke-width="2" d="M 511,70" />
<path stroke="#000000" stroke-width="2" d="M 519,20 519,35" />
<path stroke="#000000" stroke-width="2" d="M 519,35 518.9,37 518.6,38.6 518.1,39.9 517.5,40.8 516.9,41.3 516.1,41.6 515.4,41.7 514.6,41.5 513.9,41.1 513.3,40.6 512.8,40 512.5,39.3 512.3,38.6 512.3,37.8 512.6,37.1 513.2,36.4 514.1,35.9 515.3,35.4 516.9,35.1 519,35 539,35" />
<path stroke="#000000" stroke-width="2" d="M 539,35 541,34.9 542.6,34.6 543.8,34.1 544.7,33.6 545.3,32.9 545.6,32.2 545.6,31.4 545.4,30.7 545.1,30 544.6,29.4 544,28.9 543.3,28.5 542.5,28.3 541.8,28.4 541.1,28.7 540.4,29.2 539.8,30.1 539.4,31.4 539.1,33 539,35 539,50" />
<path stroke="#000000" stroke-width="2" d="M 575.6,70" />
<path stroke="#000000" stroke-width="2" d="M 575.6,70 575.8,70 575.8,70.2 575.6,70.2 575.6,70" />
<path stroke="#000000" stroke-width="2" d="M 605.8,70" />
<path stroke="#000000" stroke-width="2" d="M 605.8,70 634.1,41.7 618.8,78.7" />
<path stroke="#000000" stroke-width="2" d="M 664.1,70" />
<path stroke="#000000" stroke-width="2" d="M 664.1,30 674.1,30 674.1,70" />
<path stroke="#000000" stroke-width="2" d="M 680.8,70" />
<path stroke="#000000" stroke-width="2" d="M 680.8,30 680.8,50 680.8,44 680.8,43.1 680.8,42.3 681,41.4 681.2,40.6 681.5,39.7 681.9,38.9 682.3,38.2 682.8,37.5 683.4,36.8 684,36.2 684.7,35.6 685.4,35.1 686.1,34.7 686.9,34.3 687.7,34 688.6,33.8 689.5,33.6 690.3,33.6" />
<path stroke="#000000" stroke-width="2" d="M 690.3,33.6 692.4,33.5 694,33.2 695.2,32.7 696.1,32.1 696.6,31.5 696.9,30.7 697,30 696.8,29.3 696.4,28.6 695.9,27.9 695.3,27.4 694.6,27.1 693.9,26.9 693.2,27 692.4,27.2 691.8,27.8 691.2,28.7 690.7,29.9 690.4,31.5 690.3,33.6 690.3,48.6 682.7,67.1" />
<path stroke="#000000" stroke-width="2" d="M 727,70" />
<path stroke="#000000" stroke-width="2" d="M 727,30 727,50 737,50 742,50 742,70" />
<path stroke="#000000" stroke-width="2" d="M 748.6,70" />
<path stroke="#000000" stroke-width="2" d="M 748.6,40 748.6,39.3 748.7,38.6 748.8,37.9 749,37.2 749.2,36.6 749.5,36 749.9,35.4 750.3,34.8 750.7,34.2 751.2,33.8 751.8,33.3 752.3,32.9 752.9,32.6 753.6,32.3 754.2,32 754.9,31.8 755.6,31.7 756.3,31.7 757,31.7 757.7,31.7 758.4,31.8 759,32 759.7,32.3 760.3,32.6 760.9,32.9 761.5,33.3 762,33.8 762.5,34.2 763,34.8 763.4,35.4 763.7,36 764,36.6 764.3,37.2 764.4,37.9 764.6,38.6 764.6,39.3" />
<path stroke="#000000" stroke-width="2" d="M 771.3,70" />
<path stroke="#000000" stroke-width="2" d="M 771.3,20 778.9,38.5" />
<path stroke="#000000" stroke-width="2" d="M 808.9,70" />
<path stroke="#000000" stroke-width="2" d="M 808.9,40" />
<path stroke="#000000" stroke-width="2" d="M 808.9,40 813,39.8 816.2,39.2 818.7,38.3 820.5,37.1 821.6,35.8 822.2,34.3 822.3,32.8 821.9,31.4 821.2,30 820.2,28.8 819,27.7 817.6,27 816.1,26.7 814.6,26.8 813.2,27.3 811.8,28.5 810.7,30.2 809.8,32.7 809.2,35.9 808.9,40 808.9,70 808.9,71.4 809.1,72.8 809.3,74.2 809.7,75.5 810.1,76.8 810.7,78.1 811.4,79.3 812.2,80.4 813.1,81.5 814.1,82.5 815.2,83.4 816.3,84.2 817.5,84.9 818.8,85.5 820.1,86 821.5,86.3 822.8,86.6 824.2,86.7 825.6,86.7 827,86.6 828.4,86.3 829.7,86 831.1,85.5 832.3,84.9 833.5,84.2 834.7,83.4 835.7,82.5 836.7,81.5 837.6,80.4 838.4,79.3 839.1,78.1 839.7,76.8 840.2,75.5 840.6,74.2 840.8,72.8 840.9,71.4" />
<path stroke="#000000" stroke-width="2" d="M 840.9,55.4" />
<path stroke="#000000" stroke-width="2" d="M 800.9,55.4 816.9,55.4" />
<path stroke="#000000" stroke-width="2" d="M 847.6,70" />
<path stroke="#000000" stroke-width="2" d="M 847.6,20 847.6,40 853.2,34.3" />
<path stroke="#000000" stroke-width="2" d="M 859.9,70" />
<path stroke="#000000" stroke-width="2" d="M 859.9,20 859.9,40 859.9,34 859.9,33.1 860,32.3 860.1,31.4 860.4,30.6 860.7,29.7 861,28.9 861.5,28.2 862,27.5 862.5,26.8 863.1,26.2 863.8,25.6 864.5,25.1 865.3,24.7 866.1,24.3 866.9,24 867.7,23.8 868.6,23.6 869.5,23.6" />
<path stroke="#000000" stroke-width="2" d="M 899.5,70" />
<path stroke="#000000" stroke-width="2" d="M 899.5,30 939.5,30" />
<path stroke="#000000" stroke-width="2" d="M 969.5,70" />
<path stroke="#000000" stroke-width="2" d="M 969.5,40 969.7,40 969.7,40.2 969.5,40.2 969.5,40" />
<path stroke="#000000" stroke-width="2" d="M 976.3,70" />
<path stroke="#000000" stroke-width="2" d="M 976.3,70 991.6,33 991.6,73" />
<path stroke="#000000" stroke-width="2" d="M 998.3,70" />
<path stroke="#000000" stroke-width="2" d="M 998.3,40" />
<path stroke="#000000" stroke-width="2" d="M 998.3,40 1002.4,39.8 1005.6,39.2 1008.1,38.3 1009.8,37.1 1011,35.8 1011.5,34.3 1011.6,32.8 1011.3,31.4 1010.6,30 1009.6,28.8 1008.3,27.7 1006.9,27 1005.5,26.7 1004,26.8 1002.5,27.3 1001.2,28.5 1000,30.2 999.1,32.7 998.5,35.9 998.3,40 998.3,70" />
<path stroke="#000000" stroke-width="2" d="M 1041.6,70" />
<path stroke="#000000" stroke-width="2" d="M 1041.6,70 1041.8,70 1041.8,70.2 1041.6,70.2 1041.6,70" />
<path stroke="#000000" stroke-width="2" d="M 1071.8,70" />
<path stroke="#000000" stroke-width="2" d="M 1091.8,70 1093.6,70 1095.3,69.8 1097,69.5 1098.7,69.1 1100.3,68.5 1101.9,67.8 1103.4,66.9 1104.9,65.9 1106.2,64.8 1107.4,63.5 1108.5,62.2 1109.6,60.8 1110.4,59.3 1111.2,57.7 1111.8,56 1112.2,54.3 1112.5,52.6 1112.7,50.9 1112.7,49.1 1112.5,47.4 1112.2,45.7 1111.8,44 1111.2,42.4 1110.4,40.8 1109.6,39.3 1108.5,37.8 1107.4,36.5 1106.2,35.3 1104.9,34.2 1103.4,33.2 1101.9,32.3 1100.3,31.5 1098.7,30.9 1097,30.5 1095.3,30.2 1093.6,30 1091.8,30 1090.1,30.2 1088.4,30.5 1086.7,30.9 1085,31.5 1083.4,32.3 1081.9,33.2 1080.5,34.2 1079.2,35.3 1077.9,36.5 1076.8,37.8 1075.8,39.3 1074.9,40.8 1074.2,42.4 1073.6,44 1073.2,45.7 1072.9,47.4 1072.7,49.1 1072.7,50.9 1072.9,52.6 1073.2,54.3 1073.6,56 1074.2,57.7 1074.9,59.3 1075.8,60.8 1076.8,62.2 1077.9,63.5 1079.2,64.8 1080.5,65.9 1081.9,66.9 1083.4,67.8 1085,68.5 1086.7,69.1 1088.4,69.5 1090.1,69.8 1091.8,70" />
<path stroke="#000000" stroke-width="2" d="M 1119.3,70" />
<path stroke="#000000" stroke-width="2" d="M 1119.3,40" />
<path stroke="#000000" stroke-width="2" d="M 1119.3,40 1123.4,39.8 1126.6,39.2 1129.1,38.3 1130.9,37.1 1132,35.8 1132.6,34.3 1132.6,32.8 1132.3,31.4 1131.6,30 1130.6,28.7 1129.4,27.7 1128,27 1126.5,26.7 1125,26.8 1123.5,27.3 1122.2,28.5 1121.1,30.2 1120.1,32.7 1119.5,35.9 1119.3,40 1119.3,70" />
<path stroke="#000000" stroke-width="2" d="M 1162.6,70" />
<path stroke="#000000" stroke-width="2" d="M 1162.6,30 1202.6,30" />
<path stroke="#000000" stroke-width="2" d="M 1232.6,70" />
<path stroke="#000000" stroke-width="2" d="M 1232.6,30 1252.6,30 1253.5,30 1254.4,30.1 1255.2,30.2 1256.1,30.5 1256.9,30.8 1257.7,31.1 1258.4,31.6 1259.2,32.1 1259.8,32.6 1260.4,33.2 1261,33.9 1261.5,34.6 1261.9,35.4 1262.3,36.2 1262.6,37 1262.8,37.8 1263,38.7 1263.1,39.6 1263.1,40.4 1263,41.3 1262.8,42.2 1262.6,43 1262.3,43.8 1261.9,44.6 1261.5,45.4 1261,46.1 1260.4,46.7 1259.8,47.4 1259.2,47.9 1258.4,48.4 1257.7,48.9 1256.9,49.2 1256.1,49.5 1255.2,49.8 1254.4,49.9 1253.5,50" />
<path stroke="#000000" stroke-width="2" d="M 1293.1,70" />
<path stroke="#000000" stroke-width="2" d="M 1303.1,30 1302.2,30 1301.3,30.1 1300.5,30.2 1299.6,30.5 1298.8,30.8 1298,31.1 1297.3,31.6 1296.5,32.1 1295.9,32.6 1295.3,33.2 1294.7,33.9 1294.2,34.6 1293.8,35.4 1293.4,36.2 1293.1,37 1292.9,37.8 1292.7,38.7 1292.6,39.6 1292.6,40.4 1292.7,41.3 1292.9,42.2 1293.1,43 1293.4,43.8 1293.8,44.6 1294.2,45.4 1294.7,46.1 1295.3,46.7 1295.9,47.4 1296.5,47.9 1297.3,48.4 1298,48.9 1298.8,49.2 1299.6,49.5 1300.5,49.8 1301.3,49.9 1302.2,50 1307.2,50 1307.2,70" />
<path stroke="#000000" stroke-width="2" d="M 1337.2,70" />
<path stroke="#000000" stroke-width="2" d="M 1337.2,30 1337.2,50 1347.2,50 1339.5,68.5" />
<path stroke="#000000" stroke-width="2" d="M 1339.5,68.5 1341.6,68.4 1343.2,68.1 1344.4,67.6 1345.3,67 1345.9,66.4 1346.2,65.6 1346.2,64.9 1346,64.2 1345.7,63.5 1345.2,62.9 1344.6,62.4 1343.9,62 1343.1,61.8 1342.4,61.9 1341.6,62.1 1341,62.7 1340.4,63.6 1339.9,64.8 1339.6,66.4 1339.5,68.5 1339.5,83.5 1339.5,84.2 1339.6,84.9 1339.7,85.6 1339.9,86.2 1340.1,86.9 1340.4,87.5 1340.8,88.1 1341.2,88.7 1341.6,89.2 1342.1,89.7 1342.7,90.2 1343.2,90.6 1343.8,90.9 1344.5,91.2 1345.1,91.5 1345.8,91.6 1346.5,91.8 1347.2,91.8 1347.9,91.8 1348.6,91.8 1349.3,91.6 1349.9,91.5 1350.6,91.2 1351.2,90.9 1351.8,90.6 1352.4,90.2 1352.9,89.7 1353.4,89.2 1353.9,88.7 1354.3,88.1 1354.6,87.5 1354.9,86.9 1355.2,86.2 1355.3,85.6 1355.5,84.9 1355.5,84.2" />
<path stroke="#000000" stroke-width="2" d="M 1355.5,76.2" />
<path stroke="#000000" stroke-width="2" d="M 1335.5,76.2 1343.5,76.2" />
<path stroke="#000000" stroke-width="2" d="M 1385.5,70" />
<path stroke="#000000" stroke-width="2" d="M 1385.5,30 1385.5,70 1396.8,58.7" />
<path stroke="#000000" stroke-width="2" d="M 1403.5,70" />
<path stroke="#000000" stroke-width="2" d="M 1403.5,25" />
<path stroke="#000000" stroke-width="2" d="M 1403.5,25 1405.5,24.9 1407.1,24.6 1408.4,24.1 1409.3,23.6 1409.8,22.9 1410.1,22.2 1410.2,21.4 1410,20.7 1409.6,20 1409.1,19.4 1408.5,18.9 1407.8,18.5 1407.1,18.3 1406.3,18.4 1405.6,18.7 1404.9,19.2 1404.4,20.1 1403.9,21.4 1403.6,23 1403.5,25 1403.5,40" />
<path stroke="#000000" stroke-width="2" d="M 1440.2,70" />
</svg>