<svg xmlns="http://www.w3.org/2000/svg" width="1113.2451462001757" height="108.47759065022574" style="fill:none; stroke-linecap:round;">
    <rect width="100%" height="100%" fill="#FFFFFF" />
<path stroke="#000000" stroke-width="2" d="M 550,75" />
<path stroke="#000000" stroke-width="2" d="M 40,30 24.7,67" />
<path stroke="#000000" stroke-width="2" d="M 46.7,70" />
<path stroke="#000000" stroke-width="2" d="M 46.7,56" />
<path stroke="#000000" stroke-width="2" d="M 46.7,56 48.7,55.9 50.3,55.6 51.5,55.1 52.4,54.6 53,53.9 53.3,53.2 53.3,52.4 53.1,51.7 52.8,51 52.3,50.4 51.7,49.9 51,49.5 50.2,49.3 49.5,49.4 48.8,49.7 48.1,50.2 47.5,51.1 47.1,52.4 46.8,54 46.7,56 46.7,60" />
<path stroke="#000000" stroke-width="2" d="M 46.7,60 47,60.9 47.3,61.7 47.7,62.4 48.1,63.1 48.5,63.8 49,64.4 49.4,64.9 49.9,65.4 50.4,65.9 50.9,66.2 51.4,66.6 52,66.9 52.6,67.2 53.1,67.4 53.7,67.6 54.3,67.7 54.9,67.9 55.5,67.9 56.1,68 56.7,68" />
<path stroke="#000000" stroke-width="2" d="M 86.7,70" />
<path stroke="#000000" stroke-width="2" d="M 86.7,30 86.7,70 106.7,70" />
<path stroke="#000000" stroke-width="2" d="M 136.7,70" />
<path stroke="#000000" stroke-width="2" d="M 136.7,30 136.7,70 148,58.7" />
<path stroke="#000000" stroke-width="2" d="M 154.6,70" />
<path stroke="#000000" stroke-width="2" d="M 154.6,20 174.6,20 154.8,39.8 174.8,39.8" />
<path stroke="#000000" stroke-width="2" d="M 204.8,70" />
<path stroke="#000000" stroke-width="2" d="M 204.8,35" />
<path stroke="#000000" stroke-width="2" d="M 204.8,35 206.9,34.9 208.5,34.6 209.7,34.1 210.6,33.6 211.2,32.9 211.5,32.2 211.5,31.4 211.3,30.7 211,30 210.5,29.4 209.9,28.9 209.2,28.5 208.4,28.3 207.7,28.4 207,28.7 206.3,29.2 205.7,30.1 205.3,31.4 205,33 204.8,35 204.8,50 197.2,68.5" />
<path stroke="#000000" stroke-width="2" d="M 218.2,70" />
<path stroke="#000000" stroke-width="2" d="M 218.2,30 218.2,31.4 218.3,32.8 218.5,34.2 218.9,35.5 219.4,36.8 220,38.1 220.7,39.3 221.5,40.4 222.4,41.5 223.3,42.5 224.4,43.4 225.6,44.2 226.8,44.9 228,45.5 229.3,46 230.7,46.3 232.1,46.6 233.5,46.7 234.9,46.7 236.2,46.6 237.6,46.3 239,46 240.3,45.5 241.5,44.9 242.8,44.2 243.9,43.4 245,42.5 246,41.5 246.8,40.4 247.6,39.3 248.3,38.1 248.9,36.8 249.4,35.5 249.8,34.2 250,32.8 250.1,31.4" />
<path stroke="#000000" stroke-width="2" d="M 280.1,70" />
<path stroke="#000000" stroke-width="2" d="M 280.1,70 295.4,33 295.4,34.4 295.6,35.8 295.8,37.2 296.2,38.6 296.6,39.9 297.2,41.1 297.9,42.3 298.7,43.5 299.6,44.6 300.6,45.5 301.7,46.4 302.8,47.2 304,47.9 305.3,48.5 306.6,49 308,49.4 309.3,49.6 310.7,49.7 312.1,49.7 313.5,49.6 314.9,49.4 316.2,49 317.6,48.5 318.8,47.9 320,47.2 321.2,46.4 322.2,45.5 323.2,44.6 324.1,43.5 324.9,42.3 325.6,41.1 326.2,39.9 326.7,38.6 327.1,37.2 327.3,35.8 327.4,34.4" />
<path stroke="#000000" stroke-width="2" d="M 334.1,70" />
<path stroke="#000000" stroke-width="2" d="M 334.1,30 349.4,67 364.7,30" />
<path stroke="#000000" stroke-width="2" d="M 394.7,70" />
<path stroke="#000000" stroke-width="2" d="M 394.7,30 414.7,30 415.6,30 416.4,30.1 417.3,30.2 418.1,30.5 419,30.8 419.8,31.1 420.5,31.6 421.2,32.1 421.9,32.6 422.5,33.2 423.1,33.9 423.6,34.6 424,35.4 424.4,36.2 424.7,37 424.9,37.8 425,38.7 425.1,39.6 425.1,40.4 425,41.3 424.9,42.2 424.7,43 424.4,43.8 424,44.6 423.6,45.4 423.1,46.1 422.5,46.7 421.9,47.4 421.2,47.9 420.5,48.4 419.8,48.9 419,49.2 418.1,49.5 417.3,49.8 416.4,49.9 415.6,50" />
<path stroke="#000000" stroke-width="2" d="M 455.1,70" />
<path stroke="#000000" stroke-width="2" d="M 455.1,30 455.1,50 465.1,50 457.5,68.5" />
<path stroke="#000000" stroke-width="2" d="M 495.1,70" />
<path stroke="#000000" stroke-width="2" d="M 495.1,30 495.1,70 506.4,58.7" />
<path stroke="#000000" stroke-width="2" d="M 513.1,70" />
<path stroke="#000000" stroke-width="2" d="M 513.1,25" />
<path stroke="#000000" stroke-width="2" d="M 513.1,25 515.1,24.9 516.7,24.6 518,24.1 518.9,23.6 519.4,22.9 519.7,22.2 519.8,21.4 519.6,20.7 519.2,20 518.7,19.4 518.1,18.9 517.4,18.5 516.7,18.3 515.9,18.4 515.2,18.7 514.5,19.2 514,20.1 513.5,21.4 513.2,23 513.1,25 513.1,40" />
<path stroke="#000000" stroke-width="2" d="M 549.8,70" />
<path stroke="#000000" stroke-width="2" d="M 569.8,30 569.8,70 549.8,70" />
<path stroke="#000000" stroke-width="2" d="M 576.4,70" />
<path stroke="#000000" stroke-width="2" d="M 576.4,55" />
<path stroke="#000000" stroke-width="2" d="M 576.4,55 578.5,54.9 580.1,54.6 581.3,54.1 582.2,53.6 582.8,52.9 583,52.2 583.1,51.4 582.9,50.7 582.6,50 582,49.4 581.4,48.9 580.7,48.5 580,48.3 579.3,48.4 578.5,48.7 577.9,49.2 577.3,50.1 576.8,51.4 576.5,53 576.4,55 576.4,70 568.8,88.5" />
<path stroke="#000000" stroke-width="2" d="M 613.1,70" />
<path stroke="#000000" stroke-width="2" d="M 613.1,40 613.3,40 613.3,40.2 613.1,40.2 613.1,40" />
<path stroke="#000000" stroke-width="2" d="M 619.9,70" />
<path stroke="#000000" stroke-width="2" d="M 619.9,30 621.7,30 623.4,30.2 625.1,30.5 626.8,30.9 628.5,31.5 630.1,32.2 631.6,33.1 633,34.1 634.3,35.2 635.6,36.5 636.7,37.8 637.7,39.2 638.6,40.7 639.3,42.3 639.9,44 640.3,45.7 640.6,47.4 640.8,49.1 640.8,50.9 640.6,52.6 640.3,54.3 639.9,56 639.3,57.6 638.6,59.2 637.7,60.7 636.7,62.2 635.6,63.5 634.3,64.7 633,65.8 631.6,66.8 630.1,67.7 628.5,68.5 626.8,69.1 625.1,69.5 623.4,69.8 621.7,70 621.7,68.2 621.8,66.5 622.1,64.8 622.6,63.1 623.2,61.4 623.9,59.9 624.8,58.3 625.8,56.9 626.9,55.6 628.2,54.3 629.5,53.2 630.9,52.2 632.4,51.3 634,50.6 635.7,50 637.3,49.6 639.1,49.3 640.8,49.1" />
<path stroke="#000000" stroke-width="2" d="M 647.5,70" />
<path stroke="#000000" stroke-width="2" d="M 647.5,30 662.8,67" />
<path stroke="#000000" stroke-width="2" d="M 692.8,70" />
<path stroke="#000000" stroke-width="2" d="M 692.8,70" />
<path stroke="#000000" stroke-width="2" d="M 692.8,70 693.9,70 694.9,70.2 695.7,70.4 696.4,70.7 697,71 697.4,71.5 697.8,71.9 698,72.5 698,73.1 698,73.8 697.9,74.4 697.7,75.2 697.3,76 696.9,76.8 696.4,77.6 695.8,78.4 695.2,79.3 694.4,80.2 693.6,81.1 692.8,82" />
<path stroke="#000000" stroke-width="2" d="M 728,70" />
<path stroke="#000000" stroke-width="2" d="M 728,30 728,70" />
<path stroke="#000000" stroke-width="2" d="M 734.7,70" />
<path stroke="#000000" stroke-width="2" d="M 744.7,50 737.1,68.5" />
<path stroke="#000000" stroke-width="2" d="M 774.7,70" />
<path stroke="#000000" stroke-width="2" d="M 774.7,30 774.7,70 794.7,70" />
<path stroke="#000000" stroke-width="2" d="M 824.7,70" />
<path stroke="#000000" stroke-width="2" d="M 824.7,30 864.7,30" />
<path stroke="#000000" stroke-width="2" d="M 871.4,70" />
<path stroke="#000000" stroke-width="2" d="M 871.4,50 871.6,50 871.6,50.2 871.4,50.2 871.4,50" />
<path stroke="#000000" stroke-width="2" d="M 901.6,70" />
<path stroke="#000000" stroke-width="2" d="M 901.6,30 901.6,70 921.6,70" />
<path stroke="#000000" stroke-width="2" d="M 951.6,70" />
<path stroke="#000000" stroke-width="2" d="M 967.6,30 947.8,49.8 967.6,69.6" />
<path stroke="#000000" stroke-width="2" d="M 974.2,70" />
<path stroke="#000000" stroke-width="2" d="M 974.2,20 975.1,20 976,20.1 976.8,20.2 977.7,20.5 978.5,20.8 979.3,21.1 980.1,21.6 980.8,22.1 981.4,22.6 982.1,23.2 982.6,23.9 983.1,24.6 983.6,25.4 983.9,26.2 984.2,27 984.4,27.8 984.6,28.7 984.7,29.6 984.7,30.4 984.6,31.3 984.4,32.2 984.2,33 983.9,33.8 983.6,34.6 983.1,35.4 982.6,36.1 982.1,36.7 981.4,37.4 980.8,37.9 980.1,38.4 979.3,38.9 978.5,39.2 977.7,39.5 976.8,39.8 976,39.9 975.1,40" />
<path stroke="#000000" stroke-width="2" d="M 1014.7,70" />
<path stroke="#000000" stroke-width="2" d="M 1014.7,30 1016.4,30 1018.2,30.2 1019.9,30.5 1021.6,30.9 1023.2,31.5 1024.8,32.2 1026.3,33.1 1027.7,34.1 1029.1,35.2 1030.3,36.5 1031.4,37.8 1032.4,39.2 1033.3,40.7 1034,42.3 1034.6,44 1035.1,45.7 1035.4,47.4 1035.5,49.1 1035.5,50.9 1035.4,52.6 1035.1,54.3 1034.6,56 1034,57.6 1033.3,59.2 1032.4,60.7 1031.4,62.2 1030.3,63.5 1029.1,64.7 1027.7,65.8 1026.3,66.8 1024.8,67.7 1023.2,68.5 1021.6,69.1 1019.9,69.5 1018.2,69.8 1016.4,70" />
<path stroke="#000000" stroke-width="2" d="M 1042.2,70" />
<path stroke="#000000" stroke-width="2" d="M 1042.2,30 1043.9,30 1045.7,30.2 1047.4,30.5 1049.1,30.9 1050.7,31.5 1052.3,32.2 1053.8,33.1 1055.2,34.1 1056.6,35.2 1057.8,36.5 1058.9,37.8 1059.9,39.2 1060.8,40.7 1061.5,42.3 1062.1,44 1062.6,45.7 1062.9,47.4 1063,49.1 1063,50.9 1062.9,52.6 1062.6,54.3 1062.1,56 1061.5,57.6 1060.8,59.2 1059.9,60.7 1058.9,62.2 1057.8,63.5 1056.6,64.7 1055.2,65.8 1053.8,66.8 1052.3,67.7 1050.7,68.5 1049.1,69.1 1047.4,69.5 1045.7,69.8 1043.9,70" />
<path stroke="#000000" stroke-width="2" d="M 1093,70" />
<path stroke="#000000" stroke-width="2" d="M 1093,70 1093.2,70 1093.2,70.2 1093,70.2 1093,70" />
<path stroke="#000000" stroke-width="2" d="M 1123.2,70" />
</svg>