<svg xmlns="http://www.w3.org/2000/svg" width="1049.5558324215153" height="96.8189315218033" style="fill:none; stroke-linecap:round;">
    <rect width="100%" height="100%" fill="#FFFFFF" />
<path stroke="#000000" stroke-width="2" d="M 550,75" />
<path stroke="#000000" stroke-width="2" d="M 20,70 20.2,70 20.2,70.2 20,70.2 20,70" />
<path stroke="#000000" stroke-width="2" d="M 26.9,70" />
<path stroke="#000000" stroke-width="2" d="M 31.9,30" />
<path stroke="#000000" stroke-width="2" d="M 31.9,30 30.4,30.1 29.2,30.6 28,31.2 27.1,32.1 26.2,33.1 25.6,34.3 25,35.6 24.7,37 24.4,38.5 24.4,40 24.4,41.5 24.7,43 25,44.4 25.6,45.7 26.2,46.9 27.1,47.9 28,48.8 29.2,49.4 30.4,49.9 31.9,50" />
<path stroke="#000000" stroke-width="2" d="M 31.9,40" />
<path stroke="#000000" stroke-width="2" d="M 15.9,40 35.9,40 40.9,40 40.9,60" />
<path stroke="#000000" stroke-width="2" d="M 47.5,70" />
<path stroke="#000000" stroke-width="2" d="M 47.5,30 47.5,38 47.5,39 47.6,40.1 47.8,41.1 48.1,42.1 48.4,43.1 48.9,44.1 49.4,45 50,45.8 50.7,46.6 51.4,47.4 52.2,48 53.1,48.6 54,49.2 54.9,49.6 55.9,50 56.9,50.2 58,50.4 59,50.5 60,50.5 61.1,50.4 62.1,50.2 63.1,50 64.1,49.6 65.1,49.2 66,48.6 66.8,48 67.6,47.4 68.4,46.6 69,45.8 69.6,45 70.2,44.1 70.6,43.1 71,42.1 71.2,41.1 71.4,40.1 71.5,39 71.5,29 71.5,69" />
<path stroke="#000000" stroke-width="2" d="M 78.2,70" />
<path stroke="#000000" stroke-width="2" d="M 78.2,50 78.2,70 78.2,64 78.2,63.1 78.3,62.3 78.4,61.4 78.6,60.6 78.9,59.7 79.3,58.9 79.7,58.2 80.2,57.5 80.8,56.8 81.4,56.2 82.1,55.6 82.8,55.1 83.6,54.7 84.3,54.3 85.2,54 86,53.8 86.9,53.6 87.7,53.6" />
<path stroke="#000000" stroke-width="2" d="M 117.7,70" />
<path stroke="#000000" stroke-width="2" d="M 117.7,30 117.7,70 129,58.7" />
<path stroke="#000000" stroke-width="2" d="M 135.7,70" />
<path stroke="#000000" stroke-width="2" d="M 135.7,20 155.7,20 135.9,39.8 155.9,39.8" />
<path stroke="#000000" stroke-width="2" d="M 185.9,70" />
<path stroke="#000000" stroke-width="2" d="M 185.9,30 201.2,67" />
<path stroke="#000000" stroke-width="2" d="M 207.9,70" />
<path stroke="#000000" stroke-width="2" d="M 207.9,50 217.8,59.9 207.9,69.8" />
<path stroke="#000000" stroke-width="2" d="M 247.8,70" />
<path stroke="#000000" stroke-width="2" d="M 247.8,35" />
<path stroke="#000000" stroke-width="2" d="M 247.8,35 249.8,34.9 251.4,34.6 252.7,34.1 253.5,33.6 254.1,32.9 254.4,32.2 254.4,31.4 254.3,30.7 253.9,30 253.4,29.4 252.8,28.9 252.1,28.5 251.4,28.3 250.6,28.4 249.9,28.7 249.2,29.2 248.6,30.1 248.2,31.4 247.9,33 247.8,35 247.8,50 255.4,68.5" />
<path stroke="#000000" stroke-width="2" d="M 262.1,70" />
<path stroke="#000000" stroke-width="2" d="M 262.1,20 262.1,20.7 262.2,21.4 262.3,22.1 262.5,22.8 262.7,23.4 263,24 263.4,24.6 263.8,25.2 264.2,25.8 264.7,26.2 265.2,26.7 265.8,27.1 266.4,27.4 267,27.7 267.7,28 268.4,28.2 269.1,28.3 269.8,28.3 270.4,28.3 271.1,28.3 271.8,28.2 272.5,28 273.2,27.7 273.8,27.4 274.4,27.1 275,26.7 275.5,26.2 276,25.8 276.4,25.2 276.8,24.6 277.2,24 277.5,23.4 277.7,22.8 277.9,22.1 278,21.4 278.1,20.7 278.1,40.7 278.1,34.7 278.1,33.8 278.2,33 278.3,32.1 278.5,31.3 278.8,30.4 279.2,29.6 279.6,28.9 280.1,28.2 280.7,27.5 281.3,26.9 282,26.3 282.7,25.8 283.5,25.4 284.3,25 285.1,24.7 285.9,24.5 286.8,24.3 287.6,24.3" />
<path stroke="#000000" stroke-width="2" d="M 317.6,70" />
<path stroke="#000000" stroke-width="2" d="M 317.6,70 317.8,70 317.8,70.2 317.6,70.2 317.6,70" />
<path stroke="#000000" stroke-width="2" d="M 347.8,70" />
<path stroke="#000000" stroke-width="2" d="M 347.8,70 348,70 348,70.2 347.8,70.2 347.8,70" />
<path stroke="#000000" stroke-width="2" d="M 354.7,70" />
<path stroke="#000000" stroke-width="2" d="M 354.7,35" />
<path stroke="#000000" stroke-width="2" d="M 354.7,35 356.7,34.9 358.4,34.6 359.6,34.1 360.5,33.6 361,32.9 361.3,32.2 361.4,31.4 361.2,30.7 360.8,30 360.3,29.4 359.7,28.9 359,28.5 358.3,28.3 357.5,28.4 356.8,28.7 356.2,29.2 355.6,30.1 355.1,31.4 354.8,33 354.7,35 354.7,50 354.7,49.3 354.8,48.6 354.9,47.9 355.1,47.2 355.3,46.6 355.6,46 356,45.4 356.4,44.8 356.8,44.2 357.3,43.8 357.8,43.3 358.4,42.9 359,42.6 359.6,42.3 360.3,42 361,41.8 361.7,41.7 362.4,41.7 363.1,41.7 363.7,41.7 364.4,41.8 365.1,42 365.8,42.3 366.4,42.6 367,42.9 367.6,43.3 368.1,43.8 368.6,44.2 369.1,44.8 369.5,45.4 369.8,46 370.1,46.6 370.3,47.2 370.5,47.9 370.6,48.6 370.7,49.3" />
<path stroke="#000000" stroke-width="2" d="M 377.4,70" />
<path stroke="#000000" stroke-width="2" d="M 377.4,30 377.4,50 377.4,50.7 377.4,51.4 377.5,52.1 377.7,52.8 378,53.4 378.3,54 378.6,54.6 379,55.2 379.5,55.8 380,56.2 380.5,56.7 381.1,57.1 381.7,57.4 382.3,57.7 383,58 383.6,58.2 384.3,58.3 385,58.3 385.7,58.3 386.4,58.3 387.1,58.2 387.8,58 388.4,57.7 389.1,57.4 389.7,57.1 390.2,56.7 390.8,56.2 391.3,55.8 391.7,55.2 392.1,54.6 392.5,54 392.7,53.4 393,52.8 393.2,52.1 393.3,51.4 393.3,50.7" />
<path stroke="#000000" stroke-width="2" d="M 400,70" />
<path stroke="#000000" stroke-width="2" d="M 400,50 400.2,50 400.2,50.2 400,50.2 400,50" />
<path stroke="#000000" stroke-width="2" d="M 430.2,70" />
<path stroke="#000000" stroke-width="2" d="M 440.2,30 430.2,30 430.2,70" />
<path stroke="#000000" stroke-width="2" d="M 446.9,70" />
<path stroke="#000000" stroke-width="2" d="M 456.9,50 449.2,68.5" />
<path stroke="#000000" stroke-width="2" d="M 486.9,70" />
<path stroke="#000000" stroke-width="2" d="M 486.9,30 506.9,30" />
<path stroke="#000000" stroke-width="2" d="M 506.9,30 508.3,30.1 509.6,30.6 510.7,31.2 511.7,32.1 512.5,33.1 513.2,34.3 513.7,35.6 514.1,37 514.3,38.5 514.4,40 514.3,41.5 514.1,43 513.7,44.4 513.2,45.7 512.5,46.9 511.7,47.9 510.7,48.8 509.6,49.4 508.3,49.9 506.9,50" />
<path stroke="#000000" stroke-width="2" d="M 544.4,70" />
<path stroke="#000000" stroke-width="2" d="M 544.4,30 544.4,70 544.4,58 544.4,56.3 544.5,54.5 544.8,52.8 545.3,51.1 545.9,49.5 546.6,47.9 547.5,46.4 548.5,45 549.6,43.6 550.9,42.4 552.2,41.3 553.6,40.3 555.1,39.4 556.7,38.7 558.3,38.1 560,37.6 561.8,37.3 563.5,37.1" />
<path stroke="#000000" stroke-width="2" d="M 570.2,70" />
<path stroke="#000000" stroke-width="2" d="M 570.2,20 590.2,20 590.2,40" />
<path stroke="#000000" stroke-width="2" d="M 596.8,70" />
<path stroke="#000000" stroke-width="2" d="M 596.8,50 596.8,70 602.5,64.3" />
<path stroke="#000000" stroke-width="2" d="M 632.5,70" />
<path stroke="#000000" stroke-width="2" d="M 632.5,30 647.8,67" />
<path stroke="#000000" stroke-width="2" d="M 654.5,70" />
<path stroke="#000000" stroke-width="2" d="M 654.5,20 674.5,20" />
<path stroke="#000000" stroke-width="2" d="M 704.5,70" />
<path stroke="#000000" stroke-width="2" d="M 704.5,30 724.5,30" />
<path stroke="#000000" stroke-width="2" d="M 724.5,30 725.9,30.1 727.2,30.6 728.3,31.2 729.3,32.1 730.1,33.1 730.8,34.3 731.3,35.6 731.7,37 731.9,38.5 732,40 731.9,41.5 731.7,43 731.3,44.4 730.8,45.7 730.1,46.9 729.3,47.9 728.3,48.8 727.2,49.4 725.9,49.9 724.5,50" />
<path stroke="#000000" stroke-width="2" d="M 762,70" />
<path stroke="#000000" stroke-width="2" d="M 782,30 766.6,67" />
<path stroke="#000000" stroke-width="2" d="M 788.6,70" />
<path stroke="#000000" stroke-width="2" d="M 788.6,20 788.6,20.7 788.7,21.4 788.8,22.1 789,22.8 789.2,23.4 789.5,24 789.9,24.6 790.3,25.2 790.7,25.8 791.2,26.2 791.7,26.7 792.3,27.1 792.9,27.4 793.6,27.7 794.2,28 794.9,28.2 795.6,28.3 796.3,28.3 797,28.3 797.7,28.3 798.3,28.2 799,28 799.7,27.7 800.3,27.4 800.9,27.1 801.5,26.7 802,26.2 802.5,25.8 803,25.2 803.4,24.6 803.7,24 804,23.4 804.2,22.8 804.4,22.1 804.5,21.4 804.6,20.7" />
<path stroke="#000000" stroke-width="2" d="M 834.6,70" />
<path stroke="#000000" stroke-width="2" d="M 839.6,30" />
<path stroke="#000000" stroke-width="2" d="M 839.6,30 838.2,30.1 836.9,30.6 835.8,31.2 834.8,32.1 834,33.1 833.3,34.3 832.8,35.6 832.4,37 832.2,38.5 832.1,40 832.2,41.5 832.4,43 832.8,44.4 833.3,45.7 834,46.9 834.8,47.9 835.8,48.8 836.9,49.4 838.2,49.9 839.6,50 844.6,50 844.6,70" />
<path stroke="#000000" stroke-width="2" d="M 874.6,70" />
<path stroke="#000000" stroke-width="2" d="M 874.6,70 874.8,70 874.8,70.2 874.6,70.2 874.6,70" />
<path stroke="#000000" stroke-width="2" d="M 881.5,70" />
<path stroke="#000000" stroke-width="2" d="M 897.5,30" />
<path stroke="#000000" stroke-width="2" d="M 897.5,30 897.3,34.1 896.7,37.3 895.8,39.8 894.6,41.5 893.3,42.7 891.8,43.2 890.3,43.3 888.8,43 887.4,42.3 886.2,41.2 885.2,40 884.5,38.6 884.2,37.2 884.2,35.7 884.8,34.2 886,32.9 887.7,31.7 890.2,30.8 893.4,30.2 897.5,30 917.5,30" />
<path stroke="#000000" stroke-width="2" d="M 924.1,70" />
<path stroke="#000000" stroke-width="2" d="M 924.1,20 924.1,24 924.1,24.5 924.2,25 924.3,25.6 924.4,26.1 924.6,26.6 924.8,27 925.1,27.5 925.4,27.9 925.7,28.3 926.1,28.7 926.5,29 926.9,29.3 927.4,29.6 927.8,29.8 928.3,30 928.8,30.1 929.4,30.2 929.9,30.3 930.4,30.3 930.9,30.2 931.4,30.1 931.9,30 932.4,29.8 932.9,29.6 933.4,29.3 933.8,29 934.2,28.7 934.6,28.3 934.9,27.9 935.2,27.5 935.5,27 935.7,26.6 935.9,26.1 936,25.6 936.1,25 936.1,24.5 936.1,19.5 936.1,39.5" />
<path stroke="#000000" stroke-width="2" d="M 942.8,70" />
<path stroke="#000000" stroke-width="2" d="M 952.8,20 953.3,20 953.8,20 954.4,20.1 954.9,20.3 955.4,20.5 955.8,20.7 956.3,20.9 956.7,21.2 957.1,21.6 957.5,21.9 957.8,22.3 958.1,22.8 958.4,23.2 958.6,23.7 958.8,24.2 958.9,24.7 959,25.2 959.1,25.7 959.1,26.3 959,26.8 958.9,27.3 958.8,27.8 958.6,28.3 958.4,28.8 958.1,29.2 957.8,29.6 957.5,30 957.1,30.4 956.7,30.8 956.3,31.1 955.8,31.3 955.4,31.5 954.9,31.7 954.4,31.9 953.8,31.9 953.3,32 952.8,32 952.3,31.9 951.8,31.9 951.3,31.7 950.8,31.5 950.3,31.3 949.8,31.1 949.4,30.8 949,30.4 948.6,30 948.3,29.6 948,29.2 947.7,28.8 947.5,28.3 947.3,27.8 947.2,27.3 947.1,26.8 947.1,26.3 947.1,25.7 947.1,25.2 947.2,24.7 947.3,24.2 947.5,23.7 947.7,23.2 948,22.8 948.3,22.3 948.6,21.9 949,21.6 949.4,21.2 949.8,20.9 950.3,20.7 950.8,20.5 951.3,20.3 951.8,20.1 952.3,20 952.8,20 952.8,40" />
<path stroke="#000000" stroke-width="2" d="M 989.1,70" />
<path stroke="#000000" stroke-width="2" d="M 989.1,50 996.7,31.5 1004.4,50" />
<path stroke="#000000" stroke-width="2" d="M 1004.4,50 1004.3,52 1004,53.6 1003.5,54.9 1002.9,55.8 1002.2,56.3 1001.5,56.6 1000.8,56.7 1000,56.5 999.3,56.1 998.7,55.6 998.2,55 997.9,54.3 997.7,53.6 997.7,52.8 998,52.1 998.6,51.4 999.5,50.9 1000.7,50.4 1002.3,50.1 1004.4,50 1014.4,50 1006.7,68.5 1006.7,69.2 1006.8,69.9 1006.9,70.6 1007.1,71.2 1007.3,71.9 1007.6,72.5 1007.9,73.1 1008.3,73.7 1008.8,74.2 1009.3,74.7 1009.8,75.2 1010.4,75.6 1011,75.9 1011.6,76.2 1012.3,76.5 1013,76.6 1013.7,76.8 1014.3,76.8 1015,76.8 1015.7,76.8 1016.4,76.6 1017.1,76.5 1017.8,76.2 1018.4,75.9 1019,75.6 1019.6,75.2 1020.1,74.7 1020.6,74.2 1021,73.7 1021.4,73.1 1021.8,72.5 1022.1,71.9 1022.3,71.2 1022.5,70.6 1022.6,69.9 1022.7,69.2" />
<path stroke="#000000" stroke-width="2" d="M 1029.4,70" />
<path stroke="#000000" stroke-width="2" d="M 1029.4,30 1029.6,30 1029.6,30.2 1029.4,30.2 1029.4,30" />
<path stroke="#000000" stroke-width="2" d="M 1059.6,70" />
</svg>