<svg xmlns="http://www.w3.org/2000/svg" width="1261.1305900427692" height="92.2836140246614" style="fill:none; stroke-linecap:round;">
    <rect width="100%" height="100%" fill="#FFFFFF" />
<path stroke="#000000" stroke-width="2" d="M 550,75" />
<path stroke="#000000" stroke-width="2" d="M 20,70 20.2,70 20.2,70.2 20,70.2 20,70" />
<path stroke="#000000" stroke-width="2" d="M 26.9,70" />
<path stroke="#000000" stroke-width="2" d="M 36.9,30 26.9,30 26.9,70 26.9,68.3 27,66.5 27.3,64.8 27.8,63.1 28.4,61.5 29.1,59.9 30,58.4 31,57 32.1,55.6 33.3,54.4 34.7,53.3 36.1,52.3 37.6,51.4 39.2,50.7 40.8,50.1 42.5,49.6 44.2,49.3 46,49.1" />
<path stroke="#000000" stroke-width="2" d="M 52.6,70" />
<path stroke="#000000" stroke-width="2" d="M 52.6,20 62.5,29.9 52.6,39.8 52.6,59.8 52.6,53.8 52.6,52.9 52.7,52.1 52.9,51.2 53.1,50.4 53.4,49.5 53.8,48.7 54.2,48 54.7,47.3 55.3,46.6 55.9,46 56.5,45.4 57.3,44.9 58,44.5 58.8,44.1 59.6,43.8 60.5,43.6 61.3,43.4 62.2,43.4" />
<path stroke="#000000" stroke-width="2" d="M 62.2,43.4 64.2,43.3 65.8,43 67.1,42.5 68,41.9 68.5,41.3 68.8,40.5 68.9,39.8 68.7,39.1 68.3,38.4 67.8,37.7 67.2,37.2 66.5,36.9 65.8,36.7 65,36.8 64.3,37 63.6,37.6 63.1,38.5 62.6,39.7 62.3,41.3 62.2,43.4 62.2,58.4" />
<path stroke="#000000" stroke-width="2" d="M 98.9,70" />
<path stroke="#000000" stroke-width="2" d="M 98.9,30 98.9,70 110.2,58.7" />
<path stroke="#000000" stroke-width="2" d="M 116.8,70" />
<path stroke="#000000" stroke-width="2" d="M 136.8,70 138.6,70 140.3,69.8 142,69.5 143.7,69.1 145.4,68.5 146.9,67.8 148.4,66.9 149.9,65.9 151.2,64.8 152.4,63.5 153.6,62.2 154.6,60.8 155.4,59.3 156.2,57.7 156.8,56 157.2,54.3 157.5,52.6 157.7,50.9 157.7,49.1 157.5,47.4 157.2,45.7 156.8,44 156.2,42.4 155.4,40.8 154.6,39.3 153.6,37.8 152.4,36.5 151.2,35.3 149.9,34.2 148.4,33.2 146.9,32.3 145.4,31.5 143.7,30.9 142,30.5 140.3,30.2 138.6,30 136.8,30 135.1,30.2 133.4,30.5 131.7,30.9 130,31.5 128.5,32.3 127,33.2 125.5,34.2 124.2,35.3 123,36.5 121.8,37.8 120.8,39.3 120,40.8 119.2,42.4 118.6,44 118.2,45.7 117.9,47.4 117.7,49.1 117.7,50.9 117.9,52.6 118.2,54.3 118.6,56 119.2,57.7 120,59.3 120.8,60.8 121.8,62.2 123,63.5 124.2,64.8 125.5,65.9 127,66.9 128.5,67.8 130,68.5 131.7,69.1 133.4,69.5 135.1,69.8 136.8,70" />
<path stroke="#000000" stroke-width="2" d="M 187.7,70" />
<path stroke="#000000" stroke-width="2" d="M 187.7,40" />
<path stroke="#000000" stroke-width="2" d="M 187.7,40 191.7,39.8 195,39.2 197.4,38.3 199.2,37.1 200.3,35.8 200.9,34.3 201,32.8 200.6,31.4 199.9,30 198.9,28.8 197.7,27.7 196.3,27 194.9,26.7 193.4,26.8 191.9,27.3 190.6,28.5 189.4,30.2 188.5,32.7 187.9,35.9 187.7,40 187.7,70" />
<path stroke="#000000" stroke-width="2" d="M 207.7,70" />
<path stroke="#000000" stroke-width="2" d="M 247.7,30 208.1,69.6" />
<path stroke="#000000" stroke-width="2" d="M 208.1,29.6 247.7,69.2" />
<path stroke="#000000" stroke-width="2" d="M 277.7,70" />
<path stroke="#000000" stroke-width="2" d="M 277.7,50 285.3,31.5 293,50" />
<path stroke="#000000" stroke-width="2" d="M 293,50 292.9,52 292.6,53.6 292.1,54.9 291.5,55.8 290.9,56.3 290.1,56.6 289.4,56.7 288.6,56.5 288,56.1 287.3,55.6 286.8,55 286.5,54.3 286.3,53.6 286.4,52.8 286.6,52.1 287.2,51.4 288.1,50.9 289.3,50.4 290.9,50.1 293,50 303,50" />
<path stroke="#000000" stroke-width="2" d="M 309.6,70" />
<path stroke="#000000" stroke-width="2" d="M 309.6,20 329.6,20 330.5,20 331.4,20.1 332.2,20.2 333.1,20.5 333.9,20.8 334.7,21.1 335.4,21.6 336.2,22.1 336.8,22.6 337.4,23.2 338,23.9 338.5,24.6 338.9,25.4 339.3,26.2 339.6,27 339.8,27.8 340,28.7 340.1,29.6 340.1,30.4 340,31.3 339.8,32.2 339.6,33 339.3,33.8 338.9,34.6 338.5,35.4 338,36.1 337.4,36.7 336.8,37.4 336.2,37.9 335.4,38.4 334.7,38.9 333.9,39.2 333.1,39.5 332.2,39.8 331.4,39.9 330.5,40" />
<path stroke="#000000" stroke-width="2" d="M 346.7,70" />
<path stroke="#000000" stroke-width="2" d="M 356.7,20 356.7,40 346.7,40" />
<path stroke="#000000" stroke-width="2" d="M 363.4,70" />
<path stroke="#000000" stroke-width="2" d="M 363.4,25" />
<path stroke="#000000" stroke-width="2" d="M 363.4,25 365.4,24.9 367,24.6 368.3,24.1 369.2,23.6 369.7,22.9 370,22.2 370,21.4 369.9,20.7 369.5,20 369,19.4 368.4,18.9 367.7,18.5 367,18.3 366.2,18.4 365.5,18.7 364.8,19.2 364.3,20.1 363.8,21.4 363.5,23 363.4,25 363.4,40" />
<path stroke="#000000" stroke-width="2" d="M 400,70" />
<path stroke="#000000" stroke-width="2" d="M 400,70 411.5,42.3" />
<path stroke="#000000" stroke-width="2" d="M 411.5,42.3 415.6,42.1 418.8,41.5 421.3,40.6 423,39.4 424.2,38.1 424.8,36.6 424.8,35.1 424.5,33.6 423.8,32.3 422.8,31 421.6,30 420.2,29.3 418.7,29 417.2,29.1 415.7,29.6 414.4,30.8 413.2,32.5 412.3,35 411.7,38.2 411.5,42.3 411.5,72.3" />
<path stroke="#000000" stroke-width="2" d="M 454.8,70" />
<path stroke="#000000" stroke-width="2" d="M 470.8,30 451,49.8 470.8,69.6" />
<path stroke="#000000" stroke-width="2" d="M 477.5,70" />
<path stroke="#000000" stroke-width="2" d="M 477.5,50 485.2,68.5" />
<path stroke="#000000" stroke-width="2" d="M 491.8,70" />
<path stroke="#000000" stroke-width="2" d="M 491.8,20 511.8,20" />
<path stroke="#000000" stroke-width="2" d="M 511.8,20 513.9,19.9 515.5,19.6 516.7,19.1 517.6,18.6 518.2,17.9 518.4,17.2 518.5,16.4 518.3,15.7 517.9,15 517.4,14.4 516.8,13.9 516.1,13.5 515.4,13.3 514.7,13.4 513.9,13.7 513.3,14.2 512.7,15.1 512.2,16.4 511.9,18 511.8,20 511.8,35" />
<path stroke="#000000" stroke-width="2" d="M 548.5,70" />
<path stroke="#000000" stroke-width="2" d="M 548.5,30 548.5,70" />
<path stroke="#000000" stroke-width="2" d="M 555.1,70" />
<path stroke="#000000" stroke-width="2" d="M 565.1,50 557.5,68.5" />
<path stroke="#000000" stroke-width="2" d="M 595.1,70" />
<path stroke="#000000" stroke-width="2" d="M 615.1,70 616.9,70 618.6,69.8 620.3,69.5 622,69.1 623.7,68.5 625.3,67.8 626.8,66.9 628.2,65.9 629.5,64.8 630.8,63.5 631.9,62.2 632.9,60.8 633.8,59.3 634.5,57.7 635.1,56 635.5,54.3 635.8,52.6 636,50.9 636,49.1 635.8,47.4 635.5,45.7 635.1,44 634.5,42.4 633.8,40.8 632.9,39.3 631.9,37.8 630.8,36.5 629.5,35.3 628.2,34.2 626.8,33.2 625.3,32.3 623.7,31.5 622,30.9 620.3,30.5 618.6,30.2 616.9,30 615.1,30 613.4,30.2 611.7,30.5 610,30.9 608.4,31.5 606.8,32.3 605.3,33.2 603.8,34.2 602.5,35.3 601.3,36.5 600.2,37.8 599.1,39.3 598.3,40.8 597.5,42.4 596.9,44 596.5,45.7 596.2,47.4 596,49.1 596,50.9 596.2,52.6 596.5,54.3 596.9,56 597.5,57.7 598.3,59.3 599.1,60.8 600.2,62.2 601.3,63.5 602.5,64.8 603.8,65.9 605.3,66.9 606.8,67.8 608.4,68.5 610,69.1 611.7,69.5 613.4,69.8 615.1,70" />
<path stroke="#000000" stroke-width="2" d="M 642.7,70" />
<path stroke="#000000" stroke-width="2" d="M 652.7,20 645,38.5" />
<path stroke="#000000" stroke-width="2" d="M 682.7,70" />
<path stroke="#000000" stroke-width="2" d="M 682.7,30 684.4,30 686.1,30.2 687.9,30.5 689.6,30.9 691.2,31.5 692.8,32.2 694.3,33.1 695.7,34.1 697,35.2 698.3,36.5 699.4,37.8 700.4,39.2 701.3,40.7 702,42.3 702.6,44 703.1,45.7 703.4,47.4 703.5,49.1 703.5,50.9 703.4,52.6 703.1,54.3 702.6,56 702,57.6 701.3,59.2 700.4,60.7 699.4,62.2 698.3,63.5 697,64.7 695.7,65.8 694.3,66.8 692.8,67.7 691.2,68.5 689.6,69.1 687.9,69.5 686.1,69.8 684.4,70" />
<path stroke="#000000" stroke-width="2" d="M 710.2,70" />
<path stroke="#000000" stroke-width="2" d="M 710.2,30 711.1,30 711.9,30.1 712.8,30.2 713.6,30.5 714.4,30.8 715.2,31.1 716,31.6 716.7,32.1 717.4,32.6 718,33.2 718.6,33.9 719.1,34.6 719.5,35.4 719.9,36.2 720.2,37 720.4,37.8 720.5,38.7 720.6,39.6 720.6,40.4 720.5,41.3 720.4,42.2 720.2,43 719.9,43.8 719.5,44.6 719.1,45.4 718.6,46.1 718,46.7 717.4,47.4 716.7,47.9 716,48.4 715.2,48.9 714.4,49.2 713.6,49.5 712.8,49.8 711.9,49.9 711.1,50 731.1,50 723.4,68.5" />
<path stroke="#000000" stroke-width="2" d="M 761.1,70" />
<path stroke="#000000" stroke-width="2" d="M 761.1,30 776.4,67" />
<path stroke="#000000" stroke-width="2" d="M 783,70" />
<path stroke="#000000" stroke-width="2" d="M 793,20 785.4,38.5 787.7,32.9 788,32.1 788.4,31.4 788.9,30.6 789.4,29.9 790,29.3 790.6,28.7 791.3,28.2 792.1,27.7 792.8,27.3 793.7,27 794.5,26.7 795.3,26.5" />
<path stroke="#000000" stroke-width="2" d="M 825.3,70" />
<path stroke="#000000" stroke-width="2" d="M 825.3,70 825.5,70 825.5,70.2 825.3,70.2 825.3,70" />
<path stroke="#000000" stroke-width="2" d="M 855.5,70" />
<path stroke="#000000" stroke-width="2" d="M 871.5,30 851.7,49.8 871.5,69.6" />
<path stroke="#000000" stroke-width="2" d="M 878.2,70" />
<path stroke="#000000" stroke-width="2" d="M 878.2,20 898.2,20" />
<path stroke="#000000" stroke-width="2" d="M 904.9,70" />
<path stroke="#000000" stroke-width="2" d="M 904.9,20 905.1,20 905.1,20.2 904.9,20.2 904.9,20" />
<path stroke="#000000" stroke-width="2" d="M 935.1,70" />
<path stroke="#000000" stroke-width="2" d="M 951.1,30 931.3,49.8 951.1,69.6" />
<path stroke="#000000" stroke-width="2" d="M 957.7,70" />
<path stroke="#000000" stroke-width="2" d="M 957.7,20 958.6,20 959.5,20.1 960.3,20.2 961.2,20.5 962,20.8 962.8,21.1 963.5,21.6 964.3,22.1 964.9,22.6 965.5,23.2 966.1,23.9 966.6,24.6 967,25.4 967.4,26.2 967.7,27 967.9,27.8 968.1,28.7 968.2,29.6 968.2,30.4 968.1,31.3 967.9,32.2 967.7,33 967.4,33.8 967,34.6 966.6,35.4 966.1,36.1 965.5,36.7 964.9,37.4 964.3,37.9 963.5,38.4 962.8,38.9 962,39.2 961.2,39.5 960.3,39.8 959.5,39.9 958.6,40" />
<path stroke="#000000" stroke-width="2" d="M 998.2,70" />
<path stroke="#000000" stroke-width="2" d="M 998.2,30 998.2,70 998.2,58 998.2,56.3 998.3,54.5 998.6,52.8 999.1,51.1 999.7,49.5 1000.4,47.9 1001.3,46.4 1002.3,45 1003.4,43.6 1004.6,42.4 1006,41.3 1007.4,40.3 1008.9,39.4 1010.5,38.7 1012.1,38.1 1013.8,37.6 1015.5,37.3 1017.3,37.1" />
<path stroke="#000000" stroke-width="2" d="M 1023.9,70" />
<path stroke="#000000" stroke-width="2" d="M 1033.9,30 1026.3,48.5 1046.3,48.5" />
<path stroke="#000000" stroke-width="2" d="M 1076.3,70" />
<path stroke="#000000" stroke-width="2" d="M 1076.3,70 1076.5,70 1076.5,70.2 1076.3,70.2 1076.3,70" />
<path stroke="#000000" stroke-width="2" d="M 1083.1,70" />
<path stroke="#000000" stroke-width="2" d="M 1083.1,30 1084.9,30 1086.6,30.2 1088.4,30.5 1090,30.9 1091.7,31.5 1093.3,32.2 1094.8,33.1 1096.2,34.1 1097.5,35.2 1098.8,36.5 1099.9,37.8 1100.9,39.2 1101.8,40.7 1102.5,42.3 1103.1,44 1103.5,45.7 1103.9,47.4 1104,49.1 1104,50.9 1103.9,52.6 1103.5,54.3 1103.1,56 1102.5,57.6 1101.8,59.2 1100.9,60.7 1099.9,62.2 1098.8,63.5 1097.5,64.7 1096.2,65.8 1094.8,66.8 1093.3,67.7 1091.7,68.5 1090,69.1 1088.4,69.5 1086.6,69.8 1084.9,70" />
<path stroke="#000000" stroke-width="2" d="M 1110.7,70" />
<path stroke="#000000" stroke-width="2" d="M 1110.7,20 1115.7,20 1115.7,40" />
<path stroke="#000000" stroke-width="2" d="M 1122.3,70" />
<path stroke="#000000" stroke-width="2" d="M 1122.3,30 1162.3,30" />
<path stroke="#000000" stroke-width="2" d="M 1169,70" />
<path stroke="#000000" stroke-width="2" d="M 1177,30 1177,45" />
<path stroke="#000000" stroke-width="2" d="M 1177,45 1176.9,47 1176.6,48.6 1176.1,49.9 1175.6,50.8 1174.9,51.3 1174.2,51.6 1173.4,51.7 1172.7,51.5 1172,51.1 1171.4,50.6 1170.9,50 1170.5,49.3 1170.3,48.6 1170.4,47.8 1170.7,47.1 1171.2,46.4 1172.1,45.9 1173.4,45.4 1175,45.1 1177,45 1197,45" />
<path stroke="#000000" stroke-width="2" d="M 1227,70" />
<path stroke="#000000" stroke-width="2" d="M 1237,30 1236.1,30 1235.3,30.1 1234.4,30.2 1233.6,30.5 1232.7,30.8 1231.9,31.1 1231.2,31.6 1230.5,32.1 1229.8,32.6 1229.2,33.2 1228.6,33.9 1228.1,34.6 1227.7,35.4 1227.3,36.2 1227,37 1226.8,37.8 1226.7,38.7 1226.6,39.6 1226.6,40.4 1226.7,41.3 1226.8,42.2 1227,43 1227.3,43.8 1227.7,44.6 1228.1,45.4 1228.6,46.1 1229.2,46.7 1229.8,47.4 1230.5,47.9 1231.2,48.4 1231.9,48.9 1232.7,49.2 1233.6,49.5 1234.4,49.8 1235.3,49.9 1236.1,50 1241.1,50 1241.1,70" />
<path stroke="#000000" stroke-width="2" d="M 1271.1,70" />
</svg>