<svg xmlns="http://www.w3.org/2000/svg" width="568.7583059123339" height="108.47759065022574" style="fill:none; stroke-linecap:round;">
    <rect width="100%" height="100%" fill="#FFFFFF" />
<path stroke="#000000" stroke-width="2" d="M 550,75" />
<path stroke="#000000" stroke-width="2" d="M 20,30 40,30" />
<path stroke="#000000" stroke-width="2" d="M 40,30 41.4,30.1 42.7,30.6 43.8,31.2 44.8,32.1 45.6,33.1 46.3,34.3 46.8,35.6 47.2,37 47.4,38.5 47.5,40 47.4,41.5 47.2,43 46.8,44.4 46.3,45.7 45.6,46.9 44.8,47.9 43.8,48.8 42.7,49.4 41.4,49.9 40,50" />
<path stroke="#000000" stroke-width="2" d="M 77.5,70" />
<path stroke="#000000" stroke-width="2" d="M 77.5,40 77.7,40 77.7,40.2 77.5,40.2 77.5,40" />
<path stroke="#000000" stroke-width="2" d="M 84.4,70" />
<path stroke="#000000" stroke-width="2" d="M 84.4,30 124.4,30" />
<path stroke="#000000" stroke-width="2" d="M 131,70" />
<path stroke="#000000" stroke-width="2" d="M 141,20 133.4,38.5 133.4,39.2 133.4,39.9 133.6,40.6 133.7,41.2 134,41.9 134.3,42.5 134.6,43.1 135,43.7 135.5,44.2 136,44.7 136.5,45.2 137.1,45.6 137.7,45.9 138.3,46.2 139,46.5 139.6,46.6 140.3,46.8 141,46.8 141.7,46.8 142.4,46.8 143.1,46.6 143.8,46.5 144.4,46.2 145.1,45.9 145.7,45.6 146.2,45.2 146.8,44.7 147.3,44.2 147.7,43.7 148.1,43.1 148.5,42.5 148.8,41.9 149,41.2 149.2,40.6 149.3,39.9 149.4,39.2" />
<path stroke="#000000" stroke-width="2" d="M 156,70" />
<path stroke="#000000" stroke-width="2" d="M 156,30 156.2,30 156.2,30.2 156,30.2 156,30" />
<path stroke="#000000" stroke-width="2" d="M 186.2,70" />
<path stroke="#000000" stroke-width="2" d="M 206.2,30 190.9,67 195.5,55.9 196.2,54.3 197,52.7 197.9,51.2 199,49.9 200.2,48.6 201.5,47.4 202.8,46.3 204.3,45.4 205.9,44.6 207.5,43.9 209.1,43.4 210.8,43" />
<path stroke="#000000" stroke-width="2" d="M 217.5,70" />
<path stroke="#000000" stroke-width="2" d="M 217.5,30 232.8,67" />
<path stroke="#000000" stroke-width="2" d="M 239.5,70" />
<path stroke="#000000" stroke-width="2" d="M 239.5,20" />
<path stroke="#000000" stroke-width="2" d="M 239.5,20 240.9,20.1 242.2,20.6 243.3,21.2 244.3,22.1 245.1,23.1 245.8,24.3 246.3,25.6 246.7,27 246.9,28.5 247,30 246.9,31.5 246.7,33 246.3,34.4 245.8,35.7 245.1,36.9 244.3,37.9 243.3,38.8 242.2,39.4 240.9,39.9 239.5,40" />
<path stroke="#000000" stroke-width="2" d="M 277,70" />
<path stroke="#000000" stroke-width="2" d="M 277,30 277,70 277,58 277,56.3 277.1,54.5 277.4,52.8 277.9,51.1 278.5,49.5 279.2,47.9 280.1,46.4 281.1,45 282.2,43.6 283.4,42.4 284.8,41.3 286.2,40.3 287.7,39.4 289.3,38.7 290.9,38.1 292.6,37.6 294.3,37.3 296.1,37.1" />
<path stroke="#000000" stroke-width="2" d="M 302.8,70" />
<path stroke="#000000" stroke-width="2" d="M 302.8,20" />
<path stroke="#000000" stroke-width="2" d="M 302.8,20 304.2,20.1 305.5,20.6 306.6,21.2 307.6,22.1 308.4,23.1 309.1,24.3 309.6,25.6 310,27 310.2,28.5 310.3,30 310.2,31.5 310,33 309.6,34.4 309.1,35.7 308.4,36.9 307.6,37.9 306.6,38.8 305.5,39.4 304.2,39.9 302.8,40" />
<path stroke="#000000" stroke-width="2" d="M 340.3,70" />
<path stroke="#000000" stroke-width="2" d="M 340.3,30 355.6,67" />
<path stroke="#000000" stroke-width="2" d="M 362.2,70" />
<path stroke="#000000" stroke-width="2" d="M 362.2,55" />
<path stroke="#000000" stroke-width="2" d="M 362.2,55 364.3,54.9 365.9,54.6 367.1,54.1 368,53.6 368.6,52.9 368.8,52.2 368.9,51.4 368.7,50.7 368.4,50 367.9,49.4 367.2,48.9 366.5,48.5 365.8,48.3 365.1,48.4 364.3,48.7 363.7,49.2 363.1,50.1 362.6,51.4 362.3,53 362.2,55 362.2,70 354.6,88.5" />
<path stroke="#000000" stroke-width="2" d="M 375.5,70" />
<path stroke="#000000" stroke-width="2" d="M 383.5,20 383.5,35" />
<path stroke="#000000" stroke-width="2" d="M 383.5,35 383.4,37 383.1,38.6 382.7,39.9 382.1,40.8 381.4,41.3 380.7,41.6 380,41.7 379.2,41.5 378.5,41.1 377.9,40.6 377.4,40 377.1,39.3 376.9,38.6 376.9,37.8 377.2,37.1 377.8,36.4 378.7,35.9 379.9,35.4 381.5,35.1 383.5,35" />
<path stroke="#000000" stroke-width="2" d="M 413.5,70" />
<path stroke="#000000" stroke-width="2" d="M 413.5,30 433.5,30" />
<path stroke="#000000" stroke-width="2" d="M 433.5,30 435,30.1 436.2,30.6 437.4,31.2 438.3,32.1 439.2,33.1 439.8,34.3 440.4,35.6 440.7,37 441,38.5 441,40 441,41.5 440.7,43 440.4,44.4 439.8,45.7 439.2,46.9 438.3,47.9 437.4,48.8 436.2,49.4 435,49.9 433.5,50" />
<path stroke="#000000" stroke-width="2" d="M 471,70" />
<path stroke="#000000" stroke-width="2" d="M 471,30 471,38 471,39 471.1,40.1 471.3,41.1 471.6,42.1 471.9,43.1 472.4,44.1 472.9,45 473.5,45.8 474.2,46.6 474.9,47.4 475.7,48 476.6,48.6 477.5,49.2 478.4,49.6 479.4,50 480.4,50.2 481.5,50.4 482.5,50.5 483.6,50.5 484.6,50.4 485.6,50.2 486.6,50 487.6,49.6 488.6,49.2 489.5,48.6 490.3,48 491.1,47.4 491.9,46.6 492.6,45.8 493.2,45 493.7,44.1 494.1,43.1 494.5,42.1 494.8,41.1 494.9,40.1 495,39 495,29 495,69" />
<path stroke="#000000" stroke-width="2" d="M 501.7,70" />
<path stroke="#000000" stroke-width="2" d="M 511.7,50 504,68.5" />
<path stroke="#000000" stroke-width="2" d="M 518.4,70" />
<path stroke="#000000" stroke-width="2" d="M 518.4,20 518.6,20 518.6,20.2 518.4,20.2 518.4,20" />
<path stroke="#000000" stroke-width="2" d="M 548.6,70" />
<path stroke="#000000" stroke-width="2" d="M 548.6,70 548.8,70 548.8,70.2 548.6,70.2 548.6,70" />
<path stroke="#000000" stroke-width="2" d="M 578.8,70" />
</svg>