<svg xmlns="http://www.w3.org/2000/svg" width="1341.3592123140852" height="111.47759065022574" style="fill:none; stroke-linecap:round;">
    <rect width="100%" height="100%" fill="#FFFFFF" />
<path stroke="#000000" stroke-width="2" d="M 550,75" />
<path stroke="#000000" stroke-width="2" d="M 20,30 20,70 40,70" />
<path stroke="#000000" stroke-width="2" d="M 70,70" />
<path stroke="#000000" stroke-width="2" d="M 80,30 70,30 70,70" />
<path stroke="#000000" stroke-width="2" d="M 86.7,70" />
<path stroke="#000000" stroke-width="2" d="M 86.7,50" />
<path stroke="#000000" stroke-width="2" d="M 86.7,50 86.8,50 87.2,50 87.9,50 88.7,50.1 89.8,50.2 91,50.3 92.3,50.4 93.7,50.6 95.2,50.9 96.7,51.2 98.2,51.7 99.6,52.2 101,52.7 102.3,53.4 103.5,54.2 104.6,55.1 105.5,56.1 106.1,57.3 106.5,58.6 106.7,60" />
<path stroke="#000000" stroke-width="2" d="M 106.7,60 108.6,62.1 109.9,64.1 110.7,65.7 111,67.2 110.9,68.4 110.4,69.5 109.7,70.2 108.8,70.8 107.8,71.1 106.7,71.2 105.6,71.1 104.5,70.8 103.6,70.2 102.9,69.5 102.4,68.4 102.3,67.2 102.7,65.7 103.4,64 104.7,62.1 106.7,60" />
<path stroke="#000000" stroke-width="2" d="M 106.7,60 106.7,59.9 106.7,59.7 106.7,59.4 106.8,59 107,58.4 107.2,57.8 107.5,57.2 107.9,56.5 108.5,55.7 109.2,55 110,54.3 111,53.5 112.2,52.8 113.5,52.2 115.1,51.6 116.9,51 118.9,50.6 121.2,50.3 123.8,50.1 126.7,50 126.7,50.7 126.7,51.4 126.8,52.1 127,52.8 127.3,53.4 127.6,54 127.9,54.6 128.3,55.2 128.8,55.8 129.3,56.2 129.8,56.7 130.4,57.1 131,57.4 131.6,57.7 132.3,58 132.9,58.2 133.6,58.3 134.3,58.3 135,58.3 135.7,58.3 136.4,58.2 137.1,58 137.7,57.7 138.4,57.4 139,57.1 139.5,56.7 140.1,56.2 140.6,55.8 141,55.2 141.4,54.6 141.8,54 142.1,53.4 142.3,52.8 142.5,52.1 142.6,51.4 142.7,50.7" />
<path stroke="#000000" stroke-width="2" d="M 142.7,50.7 144.1,50.8 145.4,51.3 146.5,51.9 147.5,52.8 148.3,53.8 149,55 149.5,56.3 149.9,57.7 150.1,59.2 150.2,60.7 150.1,62.2 149.9,63.7 149.5,65.1 149,66.4 148.3,67.6 147.5,68.6 146.5,69.5 145.4,70.1 144.1,70.6 142.7,70.7 162.7,70.7 155,89.2" />
<path stroke="#000000" stroke-width="2" d="M 192.7,70" />
<path stroke="#000000" stroke-width="2" d="M 192.7,30 202.7,30 202.7,70" />
<path stroke="#000000" stroke-width="2" d="M 209.3,70" />
<path stroke="#000000" stroke-width="2" d="M 209.3,58 209.3,57.3 209.4,56.6 209.5,55.9 209.7,55.2 209.9,54.6 210.2,54 210.6,53.4 211,52.8 211.4,52.2 211.9,51.8 212.4,51.3 213,50.9 213.6,50.6 214.2,50.3 214.9,50 215.6,49.8 216.3,49.7 217,49.7 217.7,49.7 218.4,49.7 219,49.8 219.7,50 220.4,50.3 221,50.6 221.6,50.9 222.2,51.3 222.7,51.8 223.2,52.2 223.7,52.8 224.1,53.4 224.4,54 224.7,54.6 224.9,55.2 225.1,55.9 225.2,56.6 225.3,57.3" />
<path stroke="#000000" stroke-width="2" d="M 232,70" />
<path stroke="#000000" stroke-width="2" d="M 232,55" />
<path stroke="#000000" stroke-width="2" d="M 232,55 234,54.9 235.6,54.6 236.8,54.1 237.7,53.6 238.3,52.9 238.6,52.2 238.6,51.4 238.4,50.7 238.1,50 237.6,49.4 237,48.9 236.3,48.5 235.6,48.3 234.8,48.4 234.1,48.7 233.4,49.2 232.8,50.1 232.4,51.4 232.1,53 232,55 232,70" />
<path stroke="#000000" stroke-width="2" d="M 268.6,70" />
<path stroke="#000000" stroke-width="2" d="M 273.6,30" />
<path stroke="#000000" stroke-width="2" d="M 273.6,30 272.2,30.1 270.9,30.6 269.8,31.2 268.8,32.1 268,33.1 267.3,34.3 266.8,35.6 266.4,37 266.2,38.5 266.1,40 266.2,41.5 266.4,43 266.8,44.4 267.3,45.7 268,46.9 268.8,47.9 269.8,48.8 270.9,49.4 272.2,49.9 273.6,50 293.6,50" />
<path stroke="#000000" stroke-width="2" d="M 323.6,70" />
<path stroke="#000000" stroke-width="2" d="M 323.6,70 338.9,33 378.9,33" />
<path stroke="#000000" stroke-width="2" d="M 385.6,70" />
<path stroke="#000000" stroke-width="2" d="M 409.6,42" />
<path stroke="#000000" stroke-width="2" d="M 409.6,42 405.5,41.8 402.3,41.2 399.8,40.3 398.1,39.1 396.9,37.8 396.4,36.3 396.3,34.8 396.6,33.4 397.3,32 398.3,30.8 399.6,29.7 401,29 402.4,28.7 403.9,28.8 405.4,29.3 406.7,30.5 407.9,32.2 408.8,34.7 409.4,37.9 409.6,42 409.6,50" />
<path stroke="#000000" stroke-width="2" d="M 409.6,50 409,51.7 408.3,53.4 407.5,54.9 406.7,56.3 405.9,57.6 405,58.7 404.1,59.8 403.1,60.8 402.1,61.7 401.1,62.5 400,63.2 398.9,63.8 397.8,64.4 396.7,64.8 395.5,65.2 394.4,65.5 393.2,65.7 392,65.9 390.8,66 389.6,66" />
<path stroke="#000000" stroke-width="2" d="M 439.6,70" />
<path stroke="#000000" stroke-width="2" d="M 439.6,70 439.8,70 439.8,70.2 439.6,70.2 439.6,70" />
<path stroke="#000000" stroke-width="2" d="M 469.8,70" />
<path stroke="#000000" stroke-width="2" d="M 469.8,30 469.8,50 479.8,50 472.1,68.5 474.4,62.9 474.8,62.1 475.2,61.4 475.6,60.6 476.2,59.9 476.8,59.3 477.4,58.7 478.1,58.2 478.8,57.7 479.6,57.3 480.4,57 481.2,56.7 482.1,56.5" />
<path stroke="#000000" stroke-width="2" d="M 488.8,70" />
<path stroke="#000000" stroke-width="2" d="M 488.8,30" />
<path stroke="#000000" stroke-width="2" d="M 488.8,30 491.6,30.3 494.2,31.1 496.4,32.4 498.4,34.2 500,36.2 501.4,38.6 502.4,41.3 503.2,44.1 503.6,47 503.8,50 503.6,53 503.2,55.9 502.4,58.7 501.4,61.4 500,63.8 498.4,65.8 496.4,67.6 494.2,68.9 491.6,69.7 488.8,70" />
<path stroke="#000000" stroke-width="2" d="M 533.8,70" />
<path stroke="#000000" stroke-width="2" d="M 553.8,30 538.5,67" />
<path stroke="#000000" stroke-width="2" d="M 560.4,70" />
<path stroke="#000000" stroke-width="2" d="M 560.4,50" />
<path stroke="#000000" stroke-width="2" d="M 560.4,50 560.6,50 561,50 561.6,50 562.5,50.1 563.6,50.2 564.8,50.3 566.1,50.4 567.5,50.6 568.9,50.9 570.4,51.2 571.9,51.7 573.4,52.2 574.8,52.7 576.1,53.4 577.3,54.2 578.4,55.1 579.2,56.1 579.9,57.3 580.3,58.6 580.4,60" />
<path stroke="#000000" stroke-width="2" d="M 580.4,60 582.4,62.1 583.7,64.1 584.5,65.7 584.8,67.2 584.7,68.4 584.2,69.5 583.5,70.2 582.6,70.8 581.5,71.1 580.4,71.2 579.3,71.1 578.3,70.8 577.4,70.2 576.7,69.5 576.2,68.4 576.1,67.2 576.4,65.7 577.2,64 578.5,62.1 580.4,60" />
<path stroke="#000000" stroke-width="2" d="M 580.4,60 580.4,59.9 580.5,59.7 580.5,59.4 580.6,59 580.7,58.4 581,57.8 581.3,57.2 581.7,56.5 582.3,55.7 582.9,55 583.8,54.3 584.8,53.5 585.9,52.8 587.3,52.2 588.9,51.6 590.7,51 592.7,50.6 595,50.3 597.6,50.1 600.4,50" />
<path stroke="#000000" stroke-width="2" d="M 600.4,58" />
<path stroke="#000000" stroke-width="2" d="M 570.4,58 590.4,58" />
<path stroke="#000000" stroke-width="2" d="M 590.4,58 592.5,57.9 594.1,57.6 595.3,57.1 596.2,56.6 596.8,55.9 597,55.2 597.1,54.4 596.9,53.7 596.6,53 596.1,52.4 595.4,51.9 594.8,51.5 594,51.3 593.3,51.4 592.5,51.7 591.9,52.2 591.3,53.1 590.8,54.4 590.5,56 590.4,58 590.4,73 582.8,91.5" />
<path stroke="#000000" stroke-width="2" d="M 607.1,70" />
<path stroke="#000000" stroke-width="2" d="M 607.1,20 627.1,20" />
<path stroke="#000000" stroke-width="2" d="M 627.1,20 628.5,20.1 629.8,20.6 630.9,21.2 631.9,22.1 632.7,23.1 633.4,24.3 633.9,25.6 634.3,27 634.5,28.5 634.6,30 634.5,31.5 634.3,33 633.9,34.4 633.4,35.7 632.7,36.9 631.9,37.9 630.9,38.8 629.8,39.4 628.5,39.9 627.1,40" />
<path stroke="#000000" stroke-width="2" d="M 664.6,70" />
<path stroke="#000000" stroke-width="2" d="M 664.6,30 664.6,70 675.9,58.7" />
<path stroke="#000000" stroke-width="2" d="M 682.6,70" />
<path stroke="#000000" stroke-width="2" d="M 692.6,20 684.9,38.5" />
<path stroke="#000000" stroke-width="2" d="M 722.6,70" />
<path stroke="#000000" stroke-width="2" d="M 722.6,30 722.6,70 733.9,58.7" />
<path stroke="#000000" stroke-width="2" d="M 740.6,70" />
<path stroke="#000000" stroke-width="2" d="M 740.6,25" />
<path stroke="#000000" stroke-width="2" d="M 740.6,25 742.6,24.9 744.2,24.6 745.4,24.1 746.3,23.6 746.9,22.9 747.2,22.2 747.2,21.4 747,20.7 746.7,20 746.2,19.4 745.6,18.9 744.9,18.5 744.1,18.3 743.4,18.4 742.7,18.7 742,19.2 741.4,20.1 741,21.4 740.7,23 740.6,25 740.6,40" />
<path stroke="#000000" stroke-width="2" d="M 777.2,70" />
<path stroke="#000000" stroke-width="2" d="M 793.2,30 773.4,49.8 793.2,69.6" />
<path stroke="#000000" stroke-width="2" d="M 799.9,70" />
<path stroke="#000000" stroke-width="2" d="M 807.9,20" />
<path stroke="#000000" stroke-width="2" d="M 807.9,20 807.8,22 807.5,23.6 807,24.9 806.4,25.8 805.8,26.3 805,26.6 804.3,26.7 803.6,26.5 802.9,26.1 802.3,25.6 801.8,25 801.4,24.3 801.2,23.6 801.3,22.8 801.6,22.1 802.1,21.4 803,20.9 804.2,20.4 805.9,20.1 807.9,20 817.9,20" />
<path stroke="#000000" stroke-width="2" d="M 824.5,70" />
<path stroke="#000000" stroke-width="2" d="M 824.5,20 844.5,20" />
<path stroke="#000000" stroke-width="2" d="M 851.2,70" />
<path stroke="#000000" stroke-width="2" d="M 863.2,26" />
<path stroke="#000000" stroke-width="2" d="M 863.2,26 861.2,25.9 859.6,25.6 858.3,25.1 857.5,24.6 856.9,23.9 856.6,23.2 856.6,22.4 856.7,21.7 857.1,21 857.6,20.4 858.2,19.9 858.9,19.5 859.6,19.3 860.4,19.4 861.1,19.7 861.8,20.2 862.4,21.1 862.8,22.4 863.1,24 863.2,26 863.2,30" />
<path stroke="#000000" stroke-width="2" d="M 863.2,30 862.9,30.9 862.6,31.7 862.2,32.4 861.8,33.1 861.4,33.8 860.9,34.4 860.5,34.9 860,35.4 859.5,35.9 859,36.2 858.4,36.6 857.9,36.9 857.3,37.2 856.8,37.4 856.2,37.6 855.6,37.7 855,37.9 854.4,37.9 853.8,38 853.2,38" />
<path stroke="#000000" stroke-width="2" d="M 893.2,70" />
<path stroke="#000000" stroke-width="2" d="M 893.2,30 893.2,70" />
<path stroke="#000000" stroke-width="2" d="M 899.9,70" />
<path stroke="#000000" stroke-width="2" d="M 909.9,50 902.2,68.5" />
<path stroke="#000000" stroke-width="2" d="M 939.9,70" />
<path stroke="#000000" stroke-width="2" d="M 939.9,38 939.9,37.3 939.9,36.6 940.1,35.9 940.2,35.2 940.5,34.6 940.8,34 941.1,33.4 941.5,32.8 942,32.2 942.5,31.8 943,31.3 943.6,30.9 944.2,30.6 944.8,30.3 945.5,30 946.1,29.8 946.8,29.7 947.5,29.7 948.2,29.7 948.9,29.7 949.6,29.8 950.3,30 950.9,30.3 951.6,30.6 952.2,30.9 952.7,31.3 953.3,31.8 953.8,32.2 954.2,32.8 954.6,33.4 955,34 955.3,34.6 955.5,35.2 955.7,35.9 955.8,36.6 955.9,37.3" />
<path stroke="#000000" stroke-width="2" d="M 955.9,33.3" />
<path stroke="#000000" stroke-width="2" d="M 949.9,33.3 965.9,33.3" />
<path stroke="#000000" stroke-width="2" d="M 965.9,33.3 965.8,31.3 965.5,29.7 965,28.4 964.4,27.5 963.8,27 963,26.7 962.3,26.6 961.5,26.8 960.9,27.2 960.2,27.7 959.7,28.3 959.4,29 959.2,29.7 959.3,30.5 959.5,31.2 960.1,31.9 961,32.4 962.2,32.9 963.8,33.2 965.9,33.3 969.9,33.3" />
<path stroke="#000000" stroke-width="2" d="M 969.9,33.3 970.7,33 971.5,32.6 972.3,32.3 973,31.9 973.6,31.5 974.2,31 974.8,30.6 975.3,30.1 975.7,29.6 976.1,29.1 976.5,28.5 976.8,28 977,27.4 977.3,26.8 977.5,26.3 977.6,25.7 977.7,25.1 977.8,24.5 977.9,23.9 977.9,23.3" />
<path stroke="#000000" stroke-width="2" d="M 984.5,70" />
<path stroke="#000000" stroke-width="2" d="M 994.5,30 986.9,48.5 986.9,49.2 986.9,49.9 987.1,50.6 987.2,51.2 987.5,51.9 987.8,52.5 988.1,53.1 988.5,53.7 989,54.2 989.5,54.7 990,55.2 990.6,55.6 991.2,55.9 991.8,56.2 992.5,56.5 993.1,56.6 993.8,56.8 994.5,56.8 995.2,56.8 995.9,56.8 996.6,56.6 997.3,56.5 997.9,56.2 998.6,55.9 999.2,55.6 999.7,55.2 1000.3,54.7 1000.8,54.2 1001.2,53.7 1001.6,53.1 1002,52.5 1002.3,51.9 1002.5,51.2 1002.7,50.6 1002.8,49.9 1002.9,49.2" />
<path stroke="#000000" stroke-width="2" d="M 1009.5,70" />
<path stroke="#000000" stroke-width="2" d="M 1009.5,30 1009.7,30 1009.7,30.2 1009.5,30.2 1009.5,30" />
<path stroke="#000000" stroke-width="2" d="M 1039.7,70" />
<path stroke="#000000" stroke-width="2" d="M 1039.7,30 1049.7,30 1049.7,70" />
<path stroke="#000000" stroke-width="2" d="M 1056.4,70" />
<path stroke="#000000" stroke-width="2" d="M 1056.4,50 1056.4,70 1056.4,64 1056.4,63.1 1056.5,62.3 1056.6,61.4 1056.9,60.6 1057.2,59.7 1057.5,58.9 1058,58.2 1058.5,57.5 1059,56.8 1059.6,56.2 1060.3,55.6 1061,55.1 1061.8,54.7 1062.6,54.3 1063.4,54 1064.2,53.8 1065.1,53.6 1066,53.6 1066,57.6 1066,58.1 1066,58.6 1066.1,59.1 1066.2,59.6 1066.4,60.1 1066.6,60.6 1066.9,61.1 1067.2,61.5 1067.5,61.9 1067.9,62.3 1068.3,62.6 1068.7,62.9 1069.2,63.2 1069.7,63.4 1070.1,63.6 1070.6,63.7 1071.2,63.8 1071.7,63.8 1072.2,63.8 1072.7,63.8 1073.2,63.7 1073.8,63.6 1074.2,63.4 1074.7,63.2 1075.2,62.9 1075.6,62.6 1076,62.3 1076.4,61.9 1076.7,61.5 1077,61.1 1077.3,60.6 1077.5,60.1 1077.7,59.6 1077.8,59.1 1077.9,58.6 1077.9,58.1 1077.9,53.1 1077.9,73.1" />
<path stroke="#000000" stroke-width="2" d="M 1084.6,70" />
<path stroke="#000000" stroke-width="2" d="M 1094.6,50 1087,68.5" />
<path stroke="#000000" stroke-width="2" d="M 1124.6,70" />
<path stroke="#000000" stroke-width="2" d="M 1124.6,30 1139.9,67" />
<path stroke="#000000" stroke-width="2" d="M 1146.6,70" />
<path stroke="#000000" stroke-width="2" d="M 1166.6,30 1151.3,67 1155.9,55.9 1156.5,54.3 1157.3,52.7 1158.3,51.2 1159.3,49.9 1160.5,48.6 1161.8,47.4 1163.2,46.3 1164.7,45.4 1166.2,44.6 1167.8,43.9 1169.5,43.4 1171.2,43" />
<path stroke="#000000" stroke-width="2" d="M 1177.9,70" />
<path stroke="#000000" stroke-width="2" d="M 1177.9,20 1177.9,20.7 1177.9,21.4 1178,22.1 1178.2,22.8 1178.5,23.4 1178.8,24 1179.1,24.6 1179.5,25.2 1179.9,25.8 1180.4,26.2 1181,26.7 1181.5,27.1 1182.2,27.4 1182.8,27.7 1183.4,28 1184.1,28.2 1184.8,28.3 1185.5,28.3 1186.2,28.3 1186.9,28.3 1187.6,28.2 1188.3,28 1188.9,27.7 1189.5,27.4 1190.1,27.1 1190.7,26.7 1191.3,26.2 1191.7,25.8 1192.2,25.2 1192.6,24.6 1192.9,24 1193.2,23.4 1193.5,22.8 1193.7,22.1 1193.8,21.4 1193.8,20.7" />
<path stroke="#000000" stroke-width="2" d="M 1223.8,70" />
<path stroke="#000000" stroke-width="2" d="M 1228.8,30" />
<path stroke="#000000" stroke-width="2" d="M 1228.8,30 1227.4,30.1 1226.1,30.6 1225,31.2 1224,32.1 1223.2,33.1 1222.5,34.3 1222,35.6 1221.6,37 1221.4,38.5 1221.3,40 1221.4,41.5 1221.6,43 1222,44.4 1222.5,45.7 1223.2,46.9 1224,47.9 1225,48.8 1226.1,49.4 1227.4,49.9 1228.8,50 1233.8,50 1233.8,70" />
<path stroke="#000000" stroke-width="2" d="M 1263.8,70" />
<path stroke="#000000" stroke-width="2" d="M 1283.8,70 1285.6,70 1287.3,69.8 1289,69.5 1290.7,69.1 1292.4,68.5 1293.9,67.8 1295.5,66.9 1296.9,65.9 1298.2,64.8 1299.5,63.5 1300.6,62.2 1301.6,60.8 1302.5,59.3 1303.2,57.7 1303.8,56 1304.2,54.3 1304.5,52.6 1304.7,50.9 1304.7,49.1 1304.5,47.4 1304.2,45.7 1303.8,44 1303.2,42.4 1302.5,40.8 1301.6,39.3 1300.6,37.8 1299.5,36.5 1298.2,35.3 1296.9,34.2 1295.5,33.2 1293.9,32.3 1292.4,31.5 1290.7,30.9 1289,30.5 1287.3,30.2 1285.6,30 1283.8,30 1282.1,30.2 1280.4,30.5 1278.7,30.9 1277.1,31.5 1275.5,32.3 1274,33.2 1272.5,34.2 1271.2,35.3 1270,36.5 1268.8,37.8 1267.8,39.3 1267,40.8 1266.2,42.4 1265.6,44 1265.2,45.7 1264.9,47.4 1264.7,49.1 1264.7,50.9 1264.9,52.6 1265.2,54.3 1265.6,56 1266.2,57.7 1267,59.3 1267.8,60.8 1268.8,62.2 1270,63.5 1271.2,64.8 1272.5,65.9 1274,66.9 1275.5,67.8 1277.1,68.5 1278.7,69.1 1280.4,69.5 1282.1,69.8 1283.8,70" />
<path stroke="#000000" stroke-width="2" d="M 1311.4,70" />
<path stroke="#000000" stroke-width="2" d="M 1321.4,50 1313.7,68.5" />
<path stroke="#000000" stroke-width="2" d="M 1351.4,70" />
</svg>