<svg xmlns="http://www.w3.org/2000/svg" width="570.7604147438722" height="109.654375" style="fill:none; stroke-linecap:round;">
    <rect width="100%" height="100%" fill="#FFFFFF" />
<path stroke="#000000" stroke-width="2" d="M 550,75" />
<path stroke="#000000" stroke-width="2" d="M 20,30 20,70 31.3,58.7" />
<path stroke="#000000" stroke-width="2" d="M 38,70" />
<path stroke="#000000" stroke-width="2" d="M 48,20 40.3,38.5" />
<path stroke="#000000" stroke-width="2" d="M 78,70" />
<path stroke="#000000" stroke-width="2" d="M 78,40 78.2,40 78.2,40.2 78,40.2 78,40" />
<path stroke="#000000" stroke-width="2" d="M 84.8,70" />
<path stroke="#000000" stroke-width="2" d="M 100.8,30 81,49.8 100.8,69.6" />
<path stroke="#000000" stroke-width="2" d="M 107.5,70" />
<path stroke="#000000" stroke-width="2" d="M 107.5,50 115.2,68.5" />
<path stroke="#000000" stroke-width="2" d="M 121.8,70" />
<path stroke="#000000" stroke-width="2" d="M 121.8,20 141.8,20" />
<path stroke="#000000" stroke-width="2" d="M 171.8,70" />
<path stroke="#000000" stroke-width="2" d="M 171.8,30 171.8,70 183.1,58.7" />
<path stroke="#000000" stroke-width="2" d="M 189.8,70" />
<path stroke="#000000" stroke-width="2" d="M 189.8,25" />
<path stroke="#000000" stroke-width="2" d="M 189.8,25 191.8,24.9 193.5,24.6 194.7,24.1 195.6,23.6 196.1,22.9 196.4,22.2 196.5,21.4 196.3,20.7 195.9,20 195.4,19.4 194.8,18.9 194.1,18.5 193.4,18.3 192.6,18.4 191.9,18.7 191.3,19.2 190.7,20.1 190.2,21.4 189.9,23 189.8,25 189.8,40" />
<path stroke="#000000" stroke-width="2" d="M 226.5,70" />
<path stroke="#000000" stroke-width="2" d="M 226.5,30 246.5,30 238.8,48.5" />
<path stroke="#000000" stroke-width="2" d="M 253.1,70" />
<path stroke="#000000" stroke-width="2" d="M 261.1,50 251.2,59.9 261.1,69.8" />
<path stroke="#000000" stroke-width="2" d="M 267.8,70" />
<path stroke="#000000" stroke-width="2" d="M 267.8,20 267.8,40 267.8,34 267.8,33.1 267.9,32.3 268,31.4 268.3,30.6 268.6,29.7 268.9,28.9 269.4,28.2 269.9,27.5 270.4,26.8 271,26.2 271.7,25.6 272.4,25.1 273.2,24.7 274,24.3 274.8,24 275.6,23.8 276.5,23.6 277.4,23.6" />
<path stroke="#000000" stroke-width="2" d="M 307.4,70" />
<path stroke="#000000" stroke-width="2" d="M 317.4,30 307.4,30 307.4,70" />
<path stroke="#000000" stroke-width="2" d="M 324,70" />
<path stroke="#000000" stroke-width="2" d="M 324,50 324,70 324,64 324,63.1 324.1,62.3 324.3,61.4 324.5,60.6 324.8,59.7 325.1,58.9 325.6,58.2 326.1,57.5 326.6,56.8 327.3,56.2 327.9,55.6 328.6,55.1 329.4,54.7 330.2,54.3 331,54 331.8,53.8 332.7,53.6 333.6,53.6" />
<path stroke="#000000" stroke-width="2" d="M 363.6,70" />
<path stroke="#000000" stroke-width="2" d="M 363.6,30 367.4,39.2" />
<path stroke="#000000" stroke-width="2" d="M 367.4,39.2 369.3,41.4 370.6,43.3 371.4,45 371.7,46.4 371.6,47.7 371.2,48.7 370.5,49.5 369.6,50 368.5,50.4 367.4,50.5 366.3,50.4 365.2,50 364.3,49.5 363.6,48.7 363.2,47.7 363.1,46.4 363.4,45 364.2,43.3 365.5,41.4 367.4,39.2 371.2,30 363.6,48.5" />
<path stroke="#000000" stroke-width="2" d="M 378.4,70" />
<path stroke="#000000" stroke-width="2" d="M 378.4,30 378.4,31.4 378.5,32.8 378.8,34.2 379.1,35.5 379.6,36.8 380.2,38.1 380.9,39.3 381.7,40.4 382.6,41.5 383.6,42.5 384.6,43.4 385.8,44.2 387,44.9 388.3,45.5 389.6,46 390.9,46.3 392.3,46.6 393.7,46.7 395.1,46.7 396.5,46.6 397.8,46.3 399.2,46 400.5,45.5 401.8,44.9 403,44.2 404.1,43.4 405.2,42.5 406.2,41.5 407.1,40.4 407.9,39.3 408.6,38.1 409.2,36.8 409.6,35.5 410,34.2 410.2,32.8 410.4,31.4" />
<path stroke="#000000" stroke-width="2" d="M 417,70" />
<path stroke="#000000" stroke-width="2" d="M 437,30 421.7,67" />
<path stroke="#000000" stroke-width="2" d="M 443.7,70" />
<path stroke="#000000" stroke-width="2" d="M 443.7,30 443.9,30 443.9,30.2 443.7,30.2 443.7,30" />
<path stroke="#000000" stroke-width="2" d="M 473.9,70" />
<path stroke="#000000" stroke-width="2" d="M 473.9,30 483.9,30 483.9,70" />
<path stroke="#000000" stroke-width="2" d="M 490.6,70" />
<path stroke="#000000" stroke-width="2" d="M 490.6,56 490.6,56.5 490.6,57 490.7,57.6 490.8,58.1 491,58.6 491.2,59 491.5,59.5 491.8,59.9 492.1,60.3 492.5,60.7 492.9,61 493.3,61.3 493.8,61.6 494.3,61.8 494.8,62 495.3,62.1 495.8,62.2 496.3,62.3 496.8,62.3 497.3,62.2 497.9,62.1 498.4,62 498.9,61.8 499.3,61.6 499.8,61.3 500.2,61 500.6,60.7 501,60.3 501.3,59.9 501.6,59.5 501.9,59 502.1,58.6 502.3,58.1 502.4,57.6 502.5,57 502.5,56.5 502.5,56 502.5,55.5 502.4,55 502.3,54.5 502.1,54 501.9,53.5 501.6,53 501.3,52.6 501,52.2 500.6,51.8 500.2,51.5 499.8,51.2 499.3,50.9 498.9,50.7 498.4,50.5 497.9,50.4 497.3,50.3 496.8,50.3 496.3,50.3 495.8,50.3 495.3,50.4 494.8,50.5 494.3,50.7 493.8,50.9 493.3,51.2 492.9,51.5 492.5,51.8 492.1,52.2 491.8,52.6 491.5,53 491.2,53.5 491,54 490.8,54.5 490.7,55 490.6,55.5 490.6,56 490.6,60" />
<path stroke="#000000" stroke-width="2" d="M 490.6,60 490.9,60.9 491.2,61.7 491.6,62.4 492,63.1 492.4,63.8 492.8,64.4 493.3,64.9 493.8,65.4 494.3,65.9 494.8,66.2 495.3,66.6 495.9,66.9 496.4,67.2 497,67.4 497.6,67.6 498.2,67.7 498.8,67.9 499.4,67.9 500,68 500.6,68 500.6,83" />
<path stroke="#000000" stroke-width="2" d="M 500.6,83 500.5,85 500.2,86.6 499.7,87.9 499.1,88.8 498.5,89.3 497.7,89.6 497,89.7 496.2,89.5 495.5,89.1 494.9,88.6 494.4,88 494.1,87.3 493.9,86.6 493.9,85.8 494.2,85.1 494.8,84.4 495.7,83.9 496.9,83.4 498.5,83.1 500.6,83 520.6,83" />
<path stroke="#000000" stroke-width="2" d="M 550.6,70" />
<path stroke="#000000" stroke-width="2" d="M 550.6,70 550.8,70 550.8,70.2 550.6,70.2 550.6,70" />
<path stroke="#000000" stroke-width="2" d="M 580.8,70" />
</svg>