<svg xmlns="http://www.w3.org/2000/svg" width="1294.194214075491" height="102.0" style="fill:none; stroke-linecap:round;">
    <rect width="100%" height="100%" fill="#FFFFFF" />
<path stroke="#000000" stroke-width="2" d="M 550,75" />
<path stroke="#000000" stroke-width="2" d="M 40,30 24.7,67" />
<path stroke="#000000" stroke-width="2" d="M 46.7,70" />
<path stroke="#000000" stroke-width="2" d="M 46.7,50 46.7,54 46.7,54.5 46.7,55 46.8,55.6 46.9,56.1 47.1,56.6 47.3,57 47.6,57.5 47.9,57.9 48.2,58.3 48.6,58.7 49,59 49.4,59.3 49.9,59.6 50.4,59.8 50.9,60 51.4,60.1 51.9,60.2 52.4,60.3 52.9,60.3 53.4,60.2 54,60.1 54.5,60 55,59.8 55.4,59.6 55.9,59.3 56.3,59 56.7,58.7 57.1,58.3 57.4,57.9 57.7,57.5 58,57 58.2,56.6 58.4,56.1 58.5,55.6 58.6,55 58.7,54.5 58.7,49.5 58.7,69.5" />
<path stroke="#000000" stroke-width="2" d="M 65.3,70" />
<path stroke="#000000" stroke-width="2" d="M 75.3,40 76.2,40 77.1,39.9 77.9,39.8 78.8,39.5 79.6,39.2 80.4,38.9 81.1,38.4 81.8,37.9 82.5,37.4 83.1,36.8 83.7,36.1 84.2,35.4 84.6,34.6 85,33.8 85.3,33 85.5,32.2 85.7,31.3 85.7,30.4 85.7,29.6 85.7,28.7 85.5,27.8 85.3,27 85,26.2 84.6,25.4 84.2,24.6 83.7,23.9 83.1,23.3 82.5,22.6 81.8,22.1 81.1,21.6 80.4,21.1 79.6,20.8 78.8,20.5 77.9,20.2 77.1,20.1 76.2,20 75.3,20 74.5,20.1 73.6,20.2 72.8,20.5 71.9,20.8 71.1,21.1 70.4,21.6 69.7,22.1 69,22.6 68.4,23.3 67.8,23.9 67.3,24.6 66.9,25.4 66.5,26.2 66.2,27 66,27.8 65.8,28.7 65.8,29.6 65.8,30.4 65.8,31.3 66,32.2 66.2,33 66.5,33.8 66.9,34.6 67.3,35.4 67.8,36.1 68.4,36.8 69,37.4 69.7,37.9 70.4,38.4 71.1,38.9 71.9,39.2 72.8,39.5 73.6,39.8 74.5,39.9 75.3,40" />
<path stroke="#000000" stroke-width="2" d="M 92.4,70" />
<path stroke="#000000" stroke-width="2" d="M 92.4,20 92.4,40 92.4,34 92.4,33.1 92.5,32.3 92.6,31.4 92.9,30.6 93.2,29.7 93.5,28.9 94,28.2 94.5,27.5 95,26.8 95.6,26.2 96.3,25.6 97,25.1 97.8,24.7 98.6,24.3 99.4,24 100.2,23.8 101.1,23.6 102,23.6" />
<path stroke="#000000" stroke-width="2" d="M 132,70" />
<path stroke="#000000" stroke-width="2" d="M 132,30 152,30 152.8,30 153.7,30.1 154.6,30.2 155.4,30.5 156.2,30.8 157,31.1 157.8,31.6 158.5,32.1 159.2,32.6 159.8,33.2 160.3,33.9 160.8,34.6 161.3,35.4 161.6,36.2 161.9,37 162.2,37.8 162.3,38.7 162.4,39.6 162.4,40.4 162.3,41.3 162.2,42.2 161.9,43 161.6,43.8 161.3,44.6 160.8,45.4 160.3,46.1 159.8,46.7 159.2,47.4 158.5,47.9 157.8,48.4 157,48.9 156.2,49.2 155.4,49.5 154.6,49.8 153.7,49.9 152.8,50" />
<path stroke="#000000" stroke-width="2" d="M 192.4,70" />
<path stroke="#000000" stroke-width="2" d="M 202.4,30 192.4,30 192.4,70 192.4,68.3 192.5,66.5 192.9,64.8 193.3,63.1 193.9,61.5 194.6,59.9 195.5,58.4 196.5,57 197.6,55.6 198.9,54.4 200.2,53.3 201.6,52.3 203.1,51.4 204.7,50.7 206.4,50.1 208,49.6 209.8,49.3 211.5,49.1" />
<path stroke="#000000" stroke-width="2" d="M 218.2,70" />
<path stroke="#000000" stroke-width="2" d="M 218.2,40 232.3,25.9 224.7,44.3" />
<path stroke="#000000" stroke-width="2" d="M 239,70" />
<path stroke="#000000" stroke-width="2" d="M 239,20 239.9,20 240.7,20.1 241.6,20.2 242.4,20.5 243.2,20.8 244,21.1 244.8,21.6 245.5,22.1 246.2,22.6 246.8,23.2 247.3,23.9 247.9,24.6 248.3,25.4 248.7,26.2 249,27 249.2,27.8 249.3,28.7 249.4,29.6 249.4,30.4 249.3,31.3 249.2,32.2 249,33 248.7,33.8 248.3,34.6 247.9,35.4 247.3,36.1 246.8,36.7 246.2,37.4 245.5,37.9 244.8,38.4 244,38.9 243.2,39.2 242.4,39.5 241.6,39.8 240.7,39.9 239.9,40" />
<path stroke="#000000" stroke-width="2" d="M 279.4,70" />
<path stroke="#000000" stroke-width="2" d="M 295.4,30 275.6,49.8 295.4,69.6" />
<path stroke="#000000" stroke-width="2" d="M 302.1,70" />
<path stroke="#000000" stroke-width="2" d="M 302.1,20 302.1,40 302.1,34 302.1,33.1 302.1,32.3 302.3,31.4 302.5,30.6 302.8,29.7 303.2,28.9 303.6,28.2 304.1,27.5 304.7,26.8 305.3,26.2 306,25.6 306.7,25.1 307.4,24.7 308.2,24.3 309.1,24 309.9,23.8 310.8,23.6 311.6,23.6 319.3,42.1" />
<path stroke="#000000" stroke-width="2" d="M 325.9,70" />
<path stroke="#000000" stroke-width="2" d="M 325.9,50 345.9,50" />
<path stroke="#000000" stroke-width="2" d="M 352.6,70" />
<path stroke="#000000" stroke-width="2" d="M 352.6,30 352.8,30 352.8,30.2 352.6,30.2 352.6,30" />
<path stroke="#000000" stroke-width="2" d="M 382.8,70" />
<path stroke="#000000" stroke-width="2" d="M 382.8,30 392.8,30 392.8,70" />
<path stroke="#000000" stroke-width="2" d="M 399.5,70" />
<path stroke="#000000" stroke-width="2" d="M 399.5,50 399.5,70 399.5,64 399.5,63.1 399.6,62.3 399.7,61.4 399.9,60.6 400.2,59.7 400.6,58.9 401,58.2 401.5,57.5 402.1,56.8 402.7,56.2 403.4,55.6 404.1,55.1 404.9,54.7 405.6,54.3 406.5,54 407.3,53.8 408.2,53.6 409,53.6" />
<path stroke="#000000" stroke-width="2" d="M 439,70" />
<path stroke="#000000" stroke-width="2" d="M 439,70 454.3,33 454.3,34.4 454.5,35.8 454.7,37.2 455.1,38.6 455.5,39.9 456.1,41.1 456.8,42.3 457.6,43.5 458.5,44.6 459.5,45.5 460.6,46.4 461.7,47.2 462.9,47.9 464.2,48.5 465.5,49 466.9,49.4 468.2,49.6 469.6,49.7 471,49.7 472.4,49.6 473.8,49.4 475.1,49 476.5,48.5 477.7,47.9 478.9,47.2 480.1,46.4 481.1,45.5 482.1,44.6 483,43.5 483.8,42.3 484.5,41.1 485.1,39.9 485.6,38.6 485.9,37.2 486.2,35.8 486.3,34.4" />
<path stroke="#000000" stroke-width="2" d="M 516.3,70" />
<path stroke="#000000" stroke-width="2" d="M 516.3,70 516.5,70 516.5,70.2 516.3,70.2 516.3,70" />
<path stroke="#000000" stroke-width="2" d="M 523.2,70" />
<path stroke="#000000" stroke-width="2" d="M 523.2,30 523.2,31.4 523.3,32.8 523.5,34.2 523.9,35.5 524.4,36.8 525,38.1 525.7,39.3 526.5,40.4 527.4,41.5 528.4,42.5 529.4,43.4 530.6,44.2 531.8,44.9 533,45.5 534.4,46 535.7,46.3 537.1,46.6 538.5,46.7 539.9,46.7 541.3,46.6 542.6,46.3 544,46 545.3,45.5 546.6,44.9 547.8,44.2 548.9,43.4 550,42.5 551,41.5 551.9,40.4 552.7,39.3 553.4,38.1 553.9,36.8 554.4,35.5 554.8,34.2 555,32.8 555.1,31.4" />
<path stroke="#000000" stroke-width="2" d="M 561.8,70" />
<path stroke="#000000" stroke-width="2" d="M 561.8,20 581.8,20 582.7,20 583.6,20.1 584.4,20.2 585.3,20.5 586.1,20.8 586.9,21.1 587.6,21.6 588.3,22.1 589,22.6 589.6,23.2 590.2,23.9 590.7,24.6 591.1,25.4 591.5,26.2 591.8,27 592,27.8 592.2,28.7 592.2,29.6 592.2,30.4 592.2,31.3 592,32.2 591.8,33 591.5,33.8 591.1,34.6 590.7,35.4 590.2,36.1 589.6,36.7 589,37.4 588.3,37.9 587.6,38.4 586.9,38.9 586.1,39.2 585.3,39.5 584.4,39.8 583.6,39.9 582.7,40" />
<path stroke="#000000" stroke-width="2" d="M 622.2,70" />
<path stroke="#000000" stroke-width="2" d="M 622.2,70 622.4,70 622.4,70.2 622.2,70.2 622.2,70" />
<path stroke="#000000" stroke-width="2" d="M 652.4,70" />
<path stroke="#000000" stroke-width="2" d="M 672.4,30 657.1,67" />
<path stroke="#000000" stroke-width="2" d="M 679.1,70" />
<path stroke="#000000" stroke-width="2" d="M 679.1,50 680,50 680.9,50.1 681.7,50.2 682.6,50.5 683.4,50.8 684.2,51.1 684.9,51.6 685.6,52.1 686.3,52.6 686.9,53.2 687.5,53.9 688,54.6 688.4,55.4 688.8,56.2 689.1,57 689.3,57.8 689.5,58.7 689.5,59.6 689.5,60.4 689.5,61.3 689.3,62.2 689.1,63 688.8,63.8 688.4,64.6 688,65.4 687.5,66.1 686.9,66.7 686.3,67.4 685.6,67.9 684.9,68.4 684.2,68.9 683.4,69.2 682.6,69.5 681.7,69.8 680.9,69.9 680,70" />
<path stroke="#000000" stroke-width="2" d="M 696.2,70" />
<path stroke="#000000" stroke-width="2" d="M 706.2,70 707.1,70 707.9,69.9 708.8,69.8 709.6,69.5 710.5,69.2 711.3,68.9 712,68.4 712.7,67.9 713.4,67.4 714,66.8 714.6,66.1 715.1,65.4 715.5,64.6 715.9,63.8 716.2,63 716.4,62.2 716.6,61.3 716.6,60.4 716.6,59.6 716.6,58.7 716.4,57.8 716.2,57 715.9,56.2 715.5,55.4 715.1,54.6 714.6,53.9 714,53.3 713.4,52.6 712.7,52.1 712,51.6 711.3,51.1 710.5,50.8 709.6,50.5 708.8,50.2 707.9,50.1 707.1,50 706.2,50 705.3,50.1 704.5,50.2 703.6,50.5 702.8,50.8 702,51.1 701.3,51.6 700.6,52.1 699.9,52.6 699.3,53.3 698.7,53.9 698.2,54.6 697.8,55.4 697.4,56.2 697.1,57 696.9,57.8 696.7,58.7 696.6,59.6 696.6,60.4 696.7,61.3 696.9,62.2 697.1,63 697.4,63.8 697.8,64.6 698.2,65.4 698.7,66.1 699.3,66.8 699.9,67.4 700.6,67.9 701.3,68.4 702,68.9 702.8,69.2 703.6,69.5 704.5,69.8 705.3,69.9 706.2,70" />
<path stroke="#000000" stroke-width="2" d="M 723.3,70" />
<path stroke="#000000" stroke-width="2" d="M 723.3,40" />
<path stroke="#000000" stroke-width="2" d="M 723.3,40 727.4,39.8 730.6,39.2 733,38.3 734.8,37.1 736,35.8 736.5,34.3 736.6,32.8 736.3,31.4 735.5,30 734.5,28.8 733.3,27.7 731.9,27 730.5,26.7 729,26.8 727.5,27.3 726.2,28.5 725,30.2 724.1,32.7 723.5,35.9 723.3,40 723.3,70" />
<path stroke="#000000" stroke-width="2" d="M 766.6,70" />
<path stroke="#000000" stroke-width="2" d="M 766.6,70" />
<path stroke="#000000" stroke-width="2" d="M 766.6,70 767.7,70 768.7,70.2 769.5,70.4 770.3,70.7 770.8,71 771.3,71.5 771.6,71.9 771.8,72.5 771.9,73.1 771.9,73.8 771.7,74.4 771.5,75.2 771.2,76 770.8,76.8 770.3,77.6 769.7,78.4 769,79.3 768.3,80.2 767.5,81.1 766.6,82" />
<path stroke="#000000" stroke-width="2" d="M 801.9,70" />
<path stroke="#000000" stroke-width="2" d="M 801.9,70 802.1,70 802.1,70.2 801.9,70.2 801.9,70" />
<path stroke="#000000" stroke-width="2" d="M 808.7,70" />
<path stroke="#000000" stroke-width="2" d="M 810.7,50 816.1,37.1 816.2,36.7 816.3,36.4 816.4,36.1 816.5,35.7 816.5,35.4 816.5,35 816.4,34.7 816.3,34.3 816.2,34 816.1,33.7 815.9,33.4 815.8,33.1 815.5,32.8 815.3,32.5 815,32.3 814.8,32.1 814.5,31.9 814.2,31.7 813.8,31.6 813.5,31.5 813.2,31.4 812.8,31.4 812.5,31.4 812.1,31.4 811.8,31.4 811.4,31.5 811.1,31.6 810.8,31.7 810.5,31.9 810.2,32.1 809.9,32.3 809.6,32.5 809.4,32.8 809.2,33.1 809,33.4 808.8,33.7 808.7,34 808.6,34.3 808.5,34.7 808.5,35 808.5,35.4 808.5,35.7 808.5,36.1 808.6,36.4 808.7,36.7 808.8,37.1 809,37.4 809.2,37.7 809.4,37.9 809.6,38.2 809.9,38.4 810.2,38.7 810.5,38.8 810.8,39 811.1,39.1 811.4,39.2 811.8,39.3 812.1,39.4 812.5,39.4 812.8,39.4 825.8,34 825.8,34.7 825.8,35.4 825.9,36.1 826.1,36.8 826.4,37.4 826.7,38 827,38.6 827.4,39.2 827.9,39.8 828.3,40.2 828.9,40.7 829.5,41.1 830.1,41.4 830.7,41.7 831.3,42 832,42.2 832.7,42.3 833.4,42.3 834.1,42.3 834.8,42.3 835.5,42.2 836.2,42 836.8,41.7 837.4,41.4 838,41.1 838.6,40.7 839.2,40.2 839.6,39.8 840.1,39.2 840.5,38.6 840.8,38 841.1,37.4 841.4,36.8 841.6,36.1 841.7,35.4 841.7,34.7 842.6,34.7 843.5,34.8 844.3,34.9 845.2,35.2 846,35.5 846.8,35.8 847.6,36.3 848.3,36.8 848.9,37.3 849.6,37.9 850.1,38.6 850.6,39.3 851,40.1 851.4,40.9 851.7,41.7 851.9,42.5 852.1,43.4 852.2,44.3 852.2,45.1 852.1,46 851.9,46.9 851.7,47.7 851.4,48.5 851,49.3 850.6,50.1 850.1,50.8 849.6,51.4 848.9,52.1 848.3,52.6 847.6,53.1 846.8,53.6 846,53.9 845.2,54.2 844.3,54.5 843.5,54.6 842.6,54.7" />
<path stroke="#000000" stroke-width="2" d="M 858.8,70" />
<path stroke="#000000" stroke-width="2" d="M 858.8,25" />
<path stroke="#000000" stroke-width="2" d="M 858.8,25 860.9,24.9 862.5,24.6 863.7,24.1 864.6,23.6 865.2,22.9 865.5,22.2 865.5,21.4 865.3,20.7 865,20 864.5,19.4 863.8,18.9 863.2,18.5 862.4,18.3 861.7,18.4 860.9,18.7 860.3,19.2 859.7,20.1 859.2,21.4 858.9,23 858.8,25 858.8,40 851.2,58.5" />
<path stroke="#000000" stroke-width="2" d="M 895.5,70" />
<path stroke="#000000" stroke-width="2" d="M 895.5,30" />
<path stroke="#000000" stroke-width="2" d="M 895.5,30 895.6,30 896.1,30 896.7,30 897.6,30.1 898.6,30.2 899.8,30.3 901.1,30.4 902.5,30.6 904,30.9 905.5,31.2 907,31.7 908.5,32.2 909.9,32.7 911.2,33.4 912.4,34.2 913.4,35.1 914.3,36.1 914.9,37.3 915.3,38.6 915.5,40" />
<path stroke="#000000" stroke-width="2" d="M 915.5,40 917.4,42.1 918.7,44.1 919.5,45.7 919.8,47.2 919.7,48.4 919.3,49.4 918.6,50.2 917.7,50.8 916.6,51.1 915.5,51.2 914.4,51.1 913.3,50.8 912.4,50.2 911.7,49.5 911.3,48.4 911.2,47.2 911.5,45.7 912.3,44.1 913.6,42.1 915.5,40" />
<path stroke="#000000" stroke-width="2" d="M 915.5,40 915.5,39.9 915.5,39.7 915.6,39.4 915.7,39 915.8,38.4 916,37.8 916.3,37.2 916.8,36.5 917.3,35.7 918,35 918.8,34.3 919.8,33.5 921,32.8 922.4,32.2 923.9,31.6 925.7,31 927.8,30.6 930.1,30.3 932.6,30.1 935.5,30" />
<path stroke="#000000" stroke-width="2" d="M 935.5,30 937.5,29.9 939.1,29.6 940.4,29.1 941.3,28.6 941.8,27.9 942.1,27.2 942.1,26.4 942,25.7 941.6,25 941.1,24.4 940.5,23.9 939.8,23.5 939.1,23.3 938.3,23.4 937.6,23.7 936.9,24.2 936.4,25.1 935.9,26.4 935.6,28 935.5,30 935.5,45 936.4,45 937.2,45.1 938.1,45.2 938.9,45.5 939.8,45.8 940.5,46.1 941.3,46.6 942,47.1 942.7,47.6 943.3,48.2 943.9,48.9 944.4,49.6 944.8,50.4 945.2,51.2 945.5,52 945.7,52.8 945.8,53.7 945.9,54.6 945.9,55.4 945.8,56.3 945.7,57.2 945.5,58 945.2,58.8 944.8,59.6 944.4,60.4 943.9,61.1 943.3,61.7 942.7,62.4 942,62.9 941.3,63.4 940.5,63.9 939.8,64.2 938.9,64.5 938.1,64.8 937.2,64.9 936.4,65" />
<path stroke="#000000" stroke-width="2" d="M 975.9,70" />
<path stroke="#000000" stroke-width="2" d="M 991.9,30 972.1,49.8 991.9,69.6" />
<path stroke="#000000" stroke-width="2" d="M 998.6,70" />
<path stroke="#000000" stroke-width="2" d="M 998.6,20 998.6,40 998.6,34 998.6,33.1 998.7,32.3 998.8,31.4 999,30.6 999.3,29.7 999.7,28.9 1000.1,28.2 1000.6,27.5 1001.2,26.8 1001.8,26.2 1002.5,25.6 1003.2,25.1 1004,24.7 1004.7,24.3 1005.6,24 1006.4,23.8 1007.3,23.6 1008.1,23.6" />
<path stroke="#000000" stroke-width="2" d="M 1038.1,70" />
<path stroke="#000000" stroke-width="2" d="M 1038.1,30" />
<path stroke="#000000" stroke-width="2" d="M 1038.1,30 1038.3,30 1038.7,30 1039.4,30 1040.2,30.1 1041.3,30.2 1042.5,30.3 1043.8,30.4 1045.2,30.6 1046.6,30.9 1048.1,31.2 1049.6,31.7 1051.1,32.2 1052.5,32.7 1053.8,33.4 1055,34.2 1056.1,35.1 1056.9,36.1 1057.6,37.3 1058,38.6 1058.1,40" />
<path stroke="#000000" stroke-width="2" d="M 1058.1,40 1060.1,42.1 1061.4,44.1 1062.2,45.7 1062.5,47.2 1062.4,48.4 1061.9,49.4 1061.2,50.2 1060.3,50.8 1059.3,51.1 1058.1,51.2 1057,51.1 1056,50.8 1055.1,50.2 1054.4,49.5 1053.9,48.4 1053.8,47.2 1054.1,45.7 1054.9,44.1 1056.2,42.1 1058.1,40" />
<path stroke="#000000" stroke-width="2" d="M 1058.1,40 1058.1,39.9 1058.2,39.7 1058.2,39.4 1058.3,39 1058.5,38.4 1058.7,37.8 1059,37.2 1059.4,36.5 1060,35.7 1060.6,35 1061.5,34.3 1062.5,33.5 1063.6,32.8 1065,32.2 1066.6,31.6 1068.4,31 1070.4,30.6 1072.7,30.3 1075.3,30.1 1078.1,30 1098.1,30" />
<path stroke="#000000" stroke-width="2" d="M 1104.8,70" />
<path stroke="#000000" stroke-width="2" d="M 1104.8,70 1104.8,68.6 1104.9,67.2 1105.2,65.8 1105.5,64.5 1106,63.2 1106.6,61.9 1107.3,60.7 1108.1,59.6 1109,58.5 1110,57.5 1111,56.6 1112.2,55.8 1113.4,55.1 1114.7,54.5 1116,54 1117.3,53.7 1118.7,53.4 1120.1,53.3 1121.5,53.3 1122.9,53.4 1124.3,53.7 1125.6,54 1126.9,54.5 1128.2,55.1 1129.4,55.8 1130.5,56.6 1131.6,57.5 1132.6,58.5 1133.5,59.6 1134.3,60.7 1135,61.9 1135.6,63.2 1136,64.5 1136.4,65.8 1136.7,67.2 1136.8,68.6" />
<path stroke="#000000" stroke-width="2" d="M 1143.4,70" />
<path stroke="#000000" stroke-width="2" d="M 1143.4,50 1143.4,70 1143.4,64 1143.4,63.1 1143.5,62.3 1143.7,61.4 1143.9,60.6 1144.2,59.7 1144.6,58.9 1145,58.2 1145.5,57.5 1146.1,56.8 1146.7,56.2 1147.3,55.6 1148.1,55.1 1148.8,54.7 1149.6,54.3 1150.4,54 1151.3,53.8 1152.1,53.6 1153,53.6 1173,53.6" />
<path stroke="#000000" stroke-width="2" d="M 1203,70" />
<path stroke="#000000" stroke-width="2" d="M 1219,30" />
<path stroke="#000000" stroke-width="2" d="M 1219,30 1218.8,34.1 1218.2,37.3 1217.3,39.8 1216.1,41.5 1214.8,42.7 1213.3,43.2 1211.8,43.3 1210.4,43 1209,42.3 1207.7,41.2 1206.7,40 1206,38.6 1205.7,37.2 1205.8,35.7 1206.3,34.2 1207.5,32.9 1209.2,31.7 1211.7,30.8 1214.9,30.2 1219,30 1239,30" />
<path stroke="#000000" stroke-width="2" d="M 1245.7,70" />
<path stroke="#000000" stroke-width="2" d="M 1245.7,50 1245.7,70 1251.3,64.3" />
<path stroke="#000000" stroke-width="2" d="M 1258,70" />
<path stroke="#000000" stroke-width="2" d="M 1258,20 1258,40 1258,34 1258,33.1 1258.1,32.3 1258.2,31.4 1258.4,30.6 1258.7,29.7 1259.1,28.9 1259.5,28.2 1260,27.5 1260.6,26.8 1261.2,26.2 1261.9,25.6 1262.6,25.1 1263.4,24.7 1264.1,24.3 1265,24 1265.8,23.8 1266.7,23.6 1267.5,23.6" />
<path stroke="#000000" stroke-width="2" d="M 1267.5,23.6 1269.6,23.5 1271.2,23.2 1272.4,22.7 1273.3,22.1 1273.9,21.5 1274.2,20.7 1274.2,20 1274,19.3 1273.7,18.6 1273.2,17.9 1272.6,17.4 1271.9,17.1 1271.1,16.9 1270.4,17 1269.6,17.2 1269,17.8 1268.4,18.7 1267.9,19.9 1267.6,21.5 1267.5,23.6 1267.5,38.6" />
<path stroke="#000000" stroke-width="2" d="M 1304.2,70" />
</svg>