<svg xmlns="http://www.w3.org/2000/svg" width="622.3770662713177" height="90.2" style="fill:none; stroke-linecap:round;">
    <rect width="100%" height="100%" fill="#FFFFFF" />
<path stroke="#000000" stroke-width="2" d="M 550,75" />
<path stroke="#000000" stroke-width="2" d="M 20,30 20,70" />
<path stroke="#000000" stroke-width="2" d="M 26.7,70" />
<path stroke="#000000" stroke-width="2" d="M 26.7,20 46.7,20" />
<path stroke="#000000" stroke-width="2" d="M 76.7,70" />
<path stroke="#000000" stroke-width="2" d="M 76.7,30 92,67" />
<path stroke="#000000" stroke-width="2" d="M 98.6,70" />
<path stroke="#000000" stroke-width="2" d="M 98.6,30 118.6,30 111,48.5" />
<path stroke="#000000" stroke-width="2" d="M 125.3,70" />
<path stroke="#000000" stroke-width="2" d="M 125.3,30 145.3,30" />
<path stroke="#000000" stroke-width="2" d="M 145.3,30 146.7,30.1 148,30.6 149.1,31.2 150.1,32.1 150.9,33.1 151.6,34.3 152.1,35.6 152.5,37 152.7,38.5 152.8,40 152.7,41.5 152.5,43 152.1,44.4 151.6,45.7 150.9,46.9 150.1,47.9 149.1,48.8 148,49.4 146.7,49.9 145.3,50" />
<path stroke="#000000" stroke-width="2" d="M 182.8,70" />
<path stroke="#000000" stroke-width="2" d="M 182.8,30 222.8,30" />
<path stroke="#000000" stroke-width="2" d="M 252.8,70" />
<path stroke="#000000" stroke-width="2" d="M 254.8,50 260.2,37.1 260.3,36.7 260.4,36.4 260.5,36.1 260.5,35.7 260.5,35.4 260.5,35 260.5,34.7 260.4,34.3 260.3,34 260.2,33.7 260,33.4 259.8,33.1 259.6,32.8 259.4,32.5 259.1,32.3 258.8,32.1 258.5,31.9 258.2,31.7 257.9,31.6 257.6,31.5 257.2,31.4 256.9,31.4 256.5,31.4 256.2,31.4 255.8,31.4 255.5,31.5 255.2,31.6 254.8,31.7 254.5,31.9 254.2,32.1 254,32.3 253.7,32.5 253.5,32.8 253.3,33.1 253.1,33.4 252.9,33.7 252.8,34 252.7,34.3 252.6,34.7 252.6,35 252.5,35.4 252.6,35.7 252.6,36.1 252.7,36.4 252.8,36.7 252.9,37.1 253.1,37.4 253.3,37.7 253.5,37.9 253.7,38.2 254,38.4 254.2,38.7 254.5,38.8 254.8,39 255.2,39.1 255.5,39.2 255.8,39.3 256.2,39.4 256.5,39.4 256.9,39.4 269.8,34" />
<path stroke="#000000" stroke-width="2" d="M 269.8,34 267.8,33.9 266.2,33.6 264.9,33.1 264.1,32.6 263.5,31.9 263.2,31.2 263.2,30.4 263.3,29.7 263.7,29 264.2,28.4 264.8,27.9 265.5,27.5 266.2,27.3 267,27.4 267.7,27.7 268.4,28.2 269,29.1 269.4,30.4 269.7,32 269.8,34 269.8,49" />
<path stroke="#000000" stroke-width="2" d="M 276.5,70" />
<path stroke="#000000" stroke-width="2" d="M 276.5,25" />
<path stroke="#000000" stroke-width="2" d="M 276.5,25 278.5,24.9 280.1,24.6 281.4,24.1 282.2,23.6 282.8,22.9 283.1,22.2 283.1,21.4 283,20.7 282.6,20 282.1,19.4 281.5,18.9 280.8,18.5 280.1,18.3 279.3,18.4 278.6,18.7 277.9,19.2 277.3,20.1 276.9,21.4 276.6,23 276.5,25 276.5,40 268.8,58.5 271.1,52.9 271.5,52.1 271.9,51.4 272.3,50.6 272.9,49.9 273.5,49.3 274.1,48.7 274.8,48.2 275.5,47.7 276.3,47.3 277.1,47 277.9,46.7 278.8,46.5" />
<path stroke="#000000" stroke-width="2" d="M 289.8,70" />
<path stroke="#000000" stroke-width="2" d="M 289.8,40 297.5,21.5 305.1,40" />
<path stroke="#000000" stroke-width="2" d="M 335.1,70" />
<path stroke="#000000" stroke-width="2" d="M 335.1,30 345.1,30 345.1,70" />
<path stroke="#000000" stroke-width="2" d="M 351.8,70" />
<path stroke="#000000" stroke-width="2" d="M 351.8,50 351.8,70 351.8,64 351.8,63.1 351.9,62.3 352,61.4 352.2,60.6 352.5,59.7 352.9,58.9 353.3,58.2 353.8,57.5 354.4,56.8 355,56.2 355.7,55.6 356.4,55.1 357.2,54.7 357.9,54.3 358.8,54 359.6,53.8 360.5,53.6 361.3,53.6" />
<path stroke="#000000" stroke-width="2" d="M 391.3,70" />
<path stroke="#000000" stroke-width="2" d="M 411.3,30 411.3,70 391.3,70" />
<path stroke="#000000" stroke-width="2" d="M 418,70" />
<path stroke="#000000" stroke-width="2" d="M 418,20 438,20" />
<path stroke="#000000" stroke-width="2" d="M 444.7,70" />
<path stroke="#000000" stroke-width="2" d="M 444.7,20 444.7,40 444.7,34 444.7,33.1 444.7,32.3 444.9,31.4 445.1,30.6 445.4,29.7 445.8,28.9 446.2,28.2 446.7,27.5 447.3,26.8 447.9,26.2 448.6,25.6 449.3,25.1 450,24.7 450.8,24.3 451.7,24 452.5,23.8 453.4,23.6 454.2,23.6" />
<path stroke="#000000" stroke-width="2" d="M 460.9,70" />
<path stroke="#000000" stroke-width="2" d="M 468.9,20 468.9,35" />
<path stroke="#000000" stroke-width="2" d="M 468.9,35 468.8,37 468.5,38.6 468,39.9 467.5,40.8 466.8,41.3 466.1,41.6 465.3,41.7 464.6,41.5 463.9,41.1 463.3,40.6 462.8,40 462.4,39.3 462.2,38.6 462.3,37.8 462.6,37.1 463.1,36.4 464,35.9 465.2,35.4 466.9,35.1 468.9,35 488.9,35" />
<path stroke="#000000" stroke-width="2" d="M 488.9,35 490.9,34.9 492.5,34.6 493.8,34.1 494.7,33.6 495.2,32.9 495.5,32.2 495.5,31.4 495.4,30.7 495,30 494.5,29.4 493.9,28.9 493.2,28.5 492.5,28.3 491.7,28.4 491,28.7 490.3,29.2 489.8,30.1 489.3,31.4 489,33 488.9,35 488.9,50" />
<path stroke="#000000" stroke-width="2" d="M 525.5,70" />
<path stroke="#000000" stroke-width="2" d="M 525.5,40" />
<path stroke="#000000" stroke-width="2" d="M 525.5,40 529.6,39.8 532.8,39.2 535.3,38.3 537.1,37.1 538.2,35.8 538.8,34.3 538.9,32.8 538.5,31.4 537.8,30 536.8,28.8 535.6,27.7 534.2,27 532.7,26.7 531.2,26.8 529.8,27.3 528.4,28.5 527.3,30.2 526.4,32.7 525.8,35.9 525.5,40 525.5,70" />
<path stroke="#000000" stroke-width="2" d="M 545.5,70" />
<path stroke="#000000" stroke-width="2" d="M 545.5,30 565.5,30" />
<path stroke="#000000" stroke-width="2" d="M 565.5,30 567.6,29.9 569.2,29.6 570.4,29.1 571.3,28.6 571.9,27.9 572.1,27.2 572.2,26.4 572,25.7 571.6,25 571.1,24.4 570.5,23.9 569.8,23.5 569.1,23.3 568.4,23.4 567.6,23.7 567,24.2 566.4,25.1 565.9,26.4 565.6,28 565.5,30 565.5,45" />
<path stroke="#000000" stroke-width="2" d="M 602.2,70" />
<path stroke="#000000" stroke-width="2" d="M 602.2,70 602.4,70 602.4,70.2 602.2,70.2 602.2,70" />
<path stroke="#000000" stroke-width="2" d="M 632.4,70" />
</svg>