<svg xmlns="http://www.w3.org/2000/svg" width="1239.141859452537" height="104.34314575050762" style="fill:none; stroke-linecap:round;">
    <rect width="100%" height="100%" fill="#FFFFFF" />
<path stroke="#000000" stroke-width="2" d="M 550,75" />
<path stroke="#000000" stroke-width="2" d="M 20,50 20,49.3 20.1,48.6 20.2,47.9 20.4,47.2 20.6,46.6 20.9,46 21.2,45.4 21.6,44.8 22.1,44.2 22.6,43.8 23.1,43.3 23.7,42.9 24.3,42.6 24.9,42.3 25.6,42 26.3,41.8 26.9,41.7 27.6,41.7 28.3,41.7 29,41.7 29.7,41.8 30.4,42 31.1,42.3 31.7,42.6 32.3,42.9 32.9,43.3 33.4,43.8 33.9,44.2 34.3,44.8 34.7,45.4 35.1,46 35.4,46.6 35.6,47.2 35.8,47.9 35.9,48.6 36,49.3" />
<path stroke="#000000" stroke-width="2" d="M 36,45.3" />
<path stroke="#000000" stroke-width="2" d="M 30,45.3 40,45.3 45,45.3 45,65.3" />
<path stroke="#000000" stroke-width="2" d="M 51.7,70" />
<path stroke="#000000" stroke-width="2" d="M 51.7,30" />
<path stroke="#000000" stroke-width="2" d="M 51.7,30 54.5,30.3 57.1,31.1 59.3,32.4 61.3,34.2 62.9,36.2 64.3,38.6 65.3,41.3 66.1,44.1 66.5,47 66.7,50 66.5,53 66.1,55.9 65.3,58.7 64.3,61.4 62.9,63.8 61.3,65.8 59.3,67.6 57.1,68.9 54.5,69.7 51.7,70" />
<path stroke="#000000" stroke-width="2" d="M 73.3,70" />
<path stroke="#000000" stroke-width="2" d="M 73.3,20 93.3,20 85.7,38.5" />
<path stroke="#000000" stroke-width="2" d="M 123.3,70" />
<path stroke="#000000" stroke-width="2" d="M 139.3,30 139.3,60" />
<path stroke="#000000" stroke-width="2" d="M 139.3,60 139.1,64.1 138.5,67.3 137.6,69.8 136.4,71.5 135.1,72.7 133.6,73.2 132.2,73.3 130.7,73 129.3,72.3 128.1,71.2 127.1,70 126.4,68.6 126,67.2 126.1,65.7 126.7,64.2 127.8,62.9 129.6,61.7 132,60.8 135.3,60.2 139.3,60" />
<path stroke="#000000" stroke-width="2" d="M 146,70" />
<path stroke="#000000" stroke-width="2" d="M 146,20 146,40 151.6,34.3" />
<path stroke="#000000" stroke-width="2" d="M 158.3,70" />
<path stroke="#000000" stroke-width="2" d="M 158.3,25" />
<path stroke="#000000" stroke-width="2" d="M 158.3,25 160.3,24.9 162,24.6 163.2,24.1 164.1,23.6 164.6,22.9 164.9,22.2 165,21.4 164.8,20.7 164.4,20 163.9,19.4 163.3,18.9 162.6,18.5 161.9,18.3 161.1,18.4 160.4,18.7 159.7,19.2 159.2,20.1 158.7,21.4 158.4,23 158.3,25 158.3,40" />
<path stroke="#000000" stroke-width="2" d="M 195,70" />
<path stroke="#000000" stroke-width="2" d="M 215,70 216.7,70 218.4,69.8 220.2,69.5 221.8,69.1 223.5,68.5 225.1,67.8 226.6,66.9 228,65.9 229.3,64.8 230.6,63.5 231.7,62.2 232.7,60.8 233.6,59.3 234.3,57.7 234.9,56 235.4,54.3 235.7,52.6 235.8,50.9 235.8,49.1 235.7,47.4 235.4,45.7 234.9,44 234.3,42.4 233.6,40.8 232.7,39.3 231.7,37.8 230.6,36.5 229.3,35.3 228,34.2 226.6,33.2 225.1,32.3 223.5,31.5 221.8,30.9 220.2,30.5 218.4,30.2 216.7,30 215,30 213.2,30.2 211.5,30.5 209.8,30.9 208.2,31.5 206.6,32.3 205.1,33.2 203.7,34.2 202.3,35.3 201.1,36.5 200,37.8 199,39.3 198.1,40.8 197.4,42.4 196.8,44 196.3,45.7 196,47.4 195.9,49.1 195.9,50.9 196,52.6 196.3,54.3 196.8,56 197.4,57.7 198.1,59.3 199,60.8 200,62.2 201.1,63.5 202.3,64.8 203.7,65.9 205.1,66.9 206.6,67.8 208.2,68.5 209.8,69.1 211.5,69.5 213.2,69.8 215,70" />
<path stroke="#000000" stroke-width="2" d="M 242.5,70" />
<path stroke="#000000" stroke-width="2" d="M 252.5,20 244.8,38.5" />
<path stroke="#000000" stroke-width="2" d="M 282.5,70" />
<path stroke="#000000" stroke-width="2" d="M 302.5,70 304.2,70 306,69.8 307.7,69.5 309.4,69.1 311,68.5 312.6,67.8 314.1,66.9 315.5,65.9 316.9,64.8 318.1,63.5 319.2,62.2 320.2,60.8 321.1,59.3 321.8,57.7 322.4,56 322.9,54.3 323.2,52.6 323.3,50.9 323.3,49.1 323.2,47.4 322.9,45.7 322.4,44 321.8,42.4 321.1,40.8 320.2,39.3 319.2,37.8 318.1,36.5 316.9,35.3 315.5,34.2 314.1,33.2 312.6,32.3 311,31.5 309.4,30.9 307.7,30.5 306,30.2 304.2,30 302.5,30 300.7,30.2 299,30.5 297.3,30.9 295.7,31.5 294.1,32.3 292.6,33.2 291.2,34.2 289.8,35.3 288.6,36.5 287.5,37.8 286.5,39.3 285.6,40.8 284.9,42.4 284.3,44 283.8,45.7 283.5,47.4 283.4,49.1 283.4,50.9 283.5,52.6 283.8,54.3 284.3,56 284.9,57.7 285.6,59.3 286.5,60.8 287.5,62.2 288.6,63.5 289.8,64.8 291.2,65.9 292.6,66.9 294.1,67.8 295.7,68.5 297.3,69.1 299,69.5 300.7,69.8 302.5,70" />
<path stroke="#000000" stroke-width="2" d="M 330,70" />
<path stroke="#000000" stroke-width="2" d="M 330,20 350,20 330.2,39.8 350.2,39.8" />
<path stroke="#000000" stroke-width="2" d="M 380.2,70" />
<path stroke="#000000" stroke-width="2" d="M 380.2,40" />
<path stroke="#000000" stroke-width="2" d="M 380.2,40 384.3,39.8 387.5,39.2 390,38.3 391.7,37.1 392.9,35.8 393.4,34.3 393.5,32.8 393.2,31.4 392.5,30 391.5,28.8 390.2,27.7 388.8,27 387.4,26.7 385.9,26.8 384.4,27.3 383.1,28.5 381.9,30.2 381,32.7 380.4,35.9 380.2,40 380.2,70" />
<path stroke="#000000" stroke-width="2" d="M 400.2,70" />
<path stroke="#000000" stroke-width="2" d="M 400.2,30 400.2,34 400.2,34.5 400.2,35 400.3,35.6 400.5,36.1 400.6,36.6 400.9,37 401.1,37.5 401.4,37.9 401.7,38.3 402.1,38.7 402.5,39 402.9,39.3 403.4,39.6 403.9,39.8 404.4,40 404.9,40.1 405.4,40.2 405.9,40.3 406.4,40.3 407,40.2 407.5,40.1 408,40 408.5,39.8 408.9,39.6 409.4,39.3 409.8,39 410.2,38.7 410.6,38.3 410.9,37.9 411.2,37.5 411.5,37 411.7,36.6 411.9,36.1 412,35.6 412.1,35 412.2,34.5 412.2,29.5 412.2,49.5 432.2,49.5" />
<path stroke="#000000" stroke-width="2" d="M 438.8,70" />
<path stroke="#000000" stroke-width="2" d="M 438.8,20 438.8,20.7 438.9,21.4 439,22.1 439.2,22.8 439.4,23.4 439.7,24 440.1,24.6 440.5,25.2 440.9,25.8 441.4,26.2 442,26.7 442.5,27.1 443.1,27.4 443.8,27.7 444.4,28 445.1,28.2 445.8,28.3 446.5,28.3 447.2,28.3 447.9,28.3 448.6,28.2 449.2,28 449.9,27.7 450.5,27.4 451.1,27.1 451.7,26.7 452.2,26.2 452.7,25.8 453.2,25.2 453.6,24.6 453.9,24 454.2,23.4 454.5,22.8 454.6,22.1 454.8,21.4 454.8,20.7" />
<path stroke="#000000" stroke-width="2" d="M 454.8,20.7 456.8,20.6 458.5,20.3 459.7,19.8 460.6,19.3 461.1,18.6 461.4,17.9 461.5,17.1 461.3,16.4 460.9,15.7 460.4,15.1 459.8,14.6 459.1,14.2 458.4,14 457.7,14.1 456.9,14.4 456.3,14.9 455.7,15.8 455.2,17.1 454.9,18.7 454.8,20.7 454.8,35.7" />
<path stroke="#000000" stroke-width="2" d="M 491.5,70" />
<path stroke="#000000" stroke-width="2" d="M 491.5,30 491.5,70 502.8,58.7" />
<path stroke="#000000" stroke-width="2" d="M 509.5,70" />
<path stroke="#000000" stroke-width="2" d="M 509.5,20 509.5,40 509.5,34 509.5,33.1 509.5,32.3 509.7,31.4 509.9,30.6 510.2,29.7 510.6,28.9 511,28.2 511.5,27.5 512.1,26.8 512.7,26.2 513.4,25.6 514.1,25.1 514.8,24.7 515.6,24.3 516.4,24 517.3,23.8 518.1,23.6 519,23.6" />
<path stroke="#000000" stroke-width="2" d="M 549,70" />
<path stroke="#000000" stroke-width="2" d="M 549,40" />
<path stroke="#000000" stroke-width="2" d="M 549,40 553.1,39.8 556.3,39.2 558.8,38.3 560.5,37.1 561.7,35.8 562.2,34.3 562.3,32.8 562,31.4 561.3,30 560.3,28.8 559,27.7 557.6,27 556.2,26.7 554.7,26.8 553.2,27.3 551.9,28.5 550.7,30.2 549.8,32.7 549.2,35.9 549,40 549,70" />
<path stroke="#000000" stroke-width="2" d="M 569,70" />
<path stroke="#000000" stroke-width="2" d="M 569,20 589,20 581.3,38.5" />
<path stroke="#000000" stroke-width="2" d="M 619,70" />
<path stroke="#000000" stroke-width="2" d="M 619,30 619,70" />
<path stroke="#000000" stroke-width="2" d="M 625.7,70" />
<path stroke="#000000" stroke-width="2" d="M 625.7,30 625.9,30 625.9,30.2 625.7,30.2 625.7,30" />
<path stroke="#000000" stroke-width="2" d="M 655.9,70" />
<path stroke="#000000" stroke-width="2" d="M 671.9,30 652.1,49.8 671.9,69.6" />
<path stroke="#000000" stroke-width="2" d="M 678.5,70" />
<path stroke="#000000" stroke-width="2" d="M 678.5,50 686.2,68.5" />
<path stroke="#000000" stroke-width="2" d="M 692.8,70" />
<path stroke="#000000" stroke-width="2" d="M 692.8,20 712.8,20" />
<path stroke="#000000" stroke-width="2" d="M 712.8,20 714.9,19.9 716.5,19.6 717.7,19.1 718.6,18.6 719.2,17.9 719.5,17.2 719.5,16.4 719.3,15.7 719,15 718.5,14.4 717.8,13.9 717.2,13.5 716.4,13.3 715.7,13.4 714.9,13.7 714.3,14.2 713.7,15.1 713.2,16.4 712.9,18 712.8,20 712.8,35" />
<path stroke="#000000" stroke-width="2" d="M 749.5,70" />
<path stroke="#000000" stroke-width="2" d="M 749.5,70 749.7,70 749.7,70.2 749.5,70.2 749.5,70" />
<path stroke="#000000" stroke-width="2" d="M 779.7,70" />
<path stroke="#000000" stroke-width="2" d="M 779.7,40" />
<path stroke="#000000" stroke-width="2" d="M 779.7,40 783.8,39.8 787,39.2 789.4,38.3 791.2,37.1 792.3,35.8 792.9,34.3 793,32.8 792.7,31.4 791.9,30 790.9,28.8 789.7,27.7 788.3,27 786.9,26.7 785.4,26.8 783.9,27.3 782.6,28.5 781.4,30.2 780.5,32.7 779.9,35.9 779.7,40 779.7,70" />
<path stroke="#000000" stroke-width="2" d="M 799.7,70" />
<path stroke="#000000" stroke-width="2" d="M 799.7,20 799.7,20.7 799.7,21.4 799.8,22.1 800,22.8 800.3,23.4 800.6,24 800.9,24.6 801.3,25.2 801.8,25.8 802.3,26.2 802.8,26.7 803.4,27.1 804,27.4 804.6,27.7 805.3,28 805.9,28.2 806.6,28.3 807.3,28.3 808,28.3 808.7,28.3 809.4,28.2 810.1,28 810.7,27.7 811.4,27.4 812,27.1 812.5,26.7 813.1,26.2 813.6,25.8 814,25.2 814.4,24.6 814.8,24 815.1,23.4 815.3,22.8 815.5,22.1 815.6,21.4 815.7,20.7" />
<path stroke="#000000" stroke-width="2" d="M 822.3,70" />
<path stroke="#000000" stroke-width="2" d="M 822.3,25" />
<path stroke="#000000" stroke-width="2" d="M 822.3,25 824.3,24.9 826,24.6 827.2,24.1 828.1,23.6 828.6,22.9 828.9,22.2 829,21.4 828.8,20.7 828.4,20 827.9,19.4 827.3,18.9 826.6,18.5 825.9,18.3 825.2,18.4 824.4,18.7 823.8,19.2 823.2,20.1 822.7,21.4 822.4,23 822.3,25 822.3,40 814.7,58.5" />
<path stroke="#000000" stroke-width="2" d="M 835.6,70" />
<path stroke="#000000" stroke-width="2" d="M 835.6,40 843.3,21.5 850.9,40" />
<path stroke="#000000" stroke-width="2" d="M 880.9,70" />
<path stroke="#000000" stroke-width="2" d="M 892.9,30" />
<path stroke="#000000" stroke-width="2" d="M 892.9,30 892.7,34.1 892.1,37.3 891.2,39.8 890.1,41.5 888.7,42.7 887.3,43.2 885.8,43.3 884.3,43 882.9,42.3 881.7,41.2 880.7,40 880,38.6 879.6,37.2 879.7,35.7 880.3,34.2 881.4,32.9 883.2,31.7 885.7,30.8 888.9,30.2 892.9,30 900.9,30" />
<path stroke="#000000" stroke-width="2" d="M 900.9,30 902.7,30.6 904.3,31.3 905.8,32.1 907.2,32.8 908.5,33.7 909.7,34.6 910.8,35.5 911.8,36.5 912.7,37.5 913.4,38.5 914.2,39.6 914.8,40.7 915.3,41.8 915.8,42.9 916.1,44.1 916.4,45.2 916.7,46.4 916.8,47.6 916.9,48.8 916.9,50" />
<path stroke="#000000" stroke-width="2" d="M 923.6,70" />
<path stroke="#000000" stroke-width="2" d="M 923.6,20" />
<path stroke="#000000" stroke-width="2" d="M 923.6,20 925,20.1 926.3,20.6 927.4,21.2 928.4,22.1 929.2,23.1 929.9,24.3 930.4,25.6 930.8,27 931,28.5 931.1,30 931,31.5 930.8,33 930.4,34.4 929.9,35.7 929.2,36.9 928.4,37.9 927.4,38.8 926.3,39.4 925,39.9 923.6,40" />
<path stroke="#000000" stroke-width="2" d="M 937.8,70" />
<path stroke="#000000" stroke-width="2" d="M 937.8,50 937.8,49.3 937.8,48.6 938,47.9 938.1,47.2 938.4,46.6 938.7,46 939,45.4 939.4,44.8 939.9,44.2 940.4,43.8 940.9,43.3 941.5,42.9 942.1,42.6 942.7,42.3 943.4,42 944,41.8 944.7,41.7 945.4,41.7 946.1,41.7 946.8,41.7 947.5,41.8 948.2,42 948.8,42.3 949.5,42.6 950.1,42.9 950.6,43.3 951.2,43.8 951.7,44.2 952.1,44.8 952.5,45.4 952.9,46 953.2,46.6 953.4,47.2 953.6,47.9 953.7,48.6 953.8,49.3 946.1,67.8" />
<path stroke="#000000" stroke-width="2" d="M 960.4,70" />
<path stroke="#000000" stroke-width="2" d="M 960.4,20" />
<path stroke="#000000" stroke-width="2" d="M 960.4,20 961.9,20.1 963.1,20.6 964.3,21.2 965.2,22.1 966.1,23.1 966.7,24.3 967.3,25.6 967.6,27 967.9,28.5 967.9,30 967.9,31.5 967.6,33 967.3,34.4 966.7,35.7 966.1,36.9 965.2,37.9 964.3,38.8 963.1,39.4 961.9,39.9 960.4,40" />
<path stroke="#000000" stroke-width="2" d="M 997.9,70" />
<path stroke="#000000" stroke-width="2" d="M 1017.9,70 1019.7,70 1021.4,69.8 1023.1,69.5 1024.8,69.1 1026.5,68.5 1028,67.8 1029.6,66.9 1031,65.9 1032.3,64.8 1033.5,63.5 1034.7,62.2 1035.7,60.8 1036.5,59.3 1037.3,57.7 1037.9,56 1038.3,54.3 1038.6,52.6 1038.8,50.9 1038.8,49.1 1038.6,47.4 1038.3,45.7 1037.9,44 1037.3,42.4 1036.5,40.8 1035.7,39.3 1034.7,37.8 1033.5,36.5 1032.3,35.3 1031,34.2 1029.6,33.2 1028,32.3 1026.5,31.5 1024.8,30.9 1023.1,30.5 1021.4,30.2 1019.7,30 1017.9,30 1016.2,30.2 1014.5,30.5 1012.8,30.9 1011.2,31.5 1009.6,32.3 1008.1,33.2 1006.6,34.2 1005.3,35.3 1004.1,36.5 1002.9,37.8 1001.9,39.3 1001.1,40.8 1000.3,42.4 999.7,44 999.3,45.7 999,47.4 998.8,49.1 998.8,50.9 999,52.6 999.3,54.3 999.7,56 1000.3,57.7 1001.1,59.3 1001.9,60.8 1002.9,62.2 1004.1,63.5 1005.3,64.8 1006.6,65.9 1008.1,66.9 1009.6,67.8 1011.2,68.5 1012.8,69.1 1014.5,69.5 1016.2,69.8 1017.9,70" />
<path stroke="#000000" stroke-width="2" d="M 1045.5,70" />
<path stroke="#000000" stroke-width="2" d="M 1055.5,20 1047.8,38.5" />
<path stroke="#000000" stroke-width="2" d="M 1085.5,70" />
<path stroke="#000000" stroke-width="2" d="M 1085.5,30 1085.5,50 1095.5,50 1100.5,50 1100.5,70" />
<path stroke="#000000" stroke-width="2" d="M 1130.5,70" />
<path stroke="#000000" stroke-width="2" d="M 1146.5,30 1146.5,60" />
<path stroke="#000000" stroke-width="2" d="M 1146.5,60 1146.2,64.1 1145.6,67.3 1144.7,69.8 1143.6,71.5 1142.2,72.7 1140.8,73.2 1139.3,73.3 1137.8,73 1136.4,72.3 1135.2,71.2 1134.2,70 1133.5,68.6 1133.1,67.2 1133.2,65.7 1133.8,64.2 1134.9,62.9 1136.7,61.7 1139.2,60.8 1142.4,60.2 1146.5,60" />
<path stroke="#000000" stroke-width="2" d="M 1153.1,70" />
<path stroke="#000000" stroke-width="2" d="M 1153.1,20 1153.3,20 1153.3,20.2 1153.1,20.2 1153.1,20" />
<path stroke="#000000" stroke-width="2" d="M 1183.3,70" />
<path stroke="#000000" stroke-width="2" d="M 1199.3,30 1199.3,60" />
<path stroke="#000000" stroke-width="2" d="M 1199.3,60 1199.1,64.1 1198.5,67.3 1197.6,69.8 1196.4,71.5 1195.1,72.7 1193.6,73.2 1192.2,73.3 1190.7,73 1189.3,72.3 1188.1,71.2 1187.1,70 1186.4,68.6 1186,67.2 1186.1,65.7 1186.7,64.2 1187.8,62.9 1189.6,61.7 1192,60.8 1195.3,60.2 1199.3,60" />
<path stroke="#000000" stroke-width="2" d="M 1206,70" />
<path stroke="#000000" stroke-width="2" d="M 1206,50 1206,70 1211.6,64.3" />
<path stroke="#000000" stroke-width="2" d="M 1211.6,64.3 1213.1,64.5 1214.3,64.9 1215.5,65.6 1216.4,66.4 1217.3,67.5 1217.9,68.7 1218.5,70 1218.8,71.4 1219.1,72.8 1219.1,74.3 1219.1,75.8 1218.8,77.3 1218.5,78.7 1217.9,80 1217.3,81.2 1216.4,82.3 1215.5,83.1 1214.3,83.8 1213.1,84.2 1211.6,84.3" />
<path stroke="#000000" stroke-width="2" d="M 1249.1,70" />
</svg>