<svg xmlns="http://www.w3.org/2000/svg" width="527.8144836993275" height="91.25" style="fill:none; stroke-linecap:round;">
    <rect width="100%" height="100%" fill="#FFFFFF" />
<path stroke="#000000" stroke-width="2" d="M 550,75" />
<path stroke="#000000" stroke-width="2" d="M 20,30 20,70 20,58 20,56.3 20.2,54.5 20.5,52.8 20.9,51.1 21.5,49.5 22.2,47.9 23.1,46.4 24.1,45 25.2,43.6 26.5,42.4 27.8,41.3 29.2,40.3 30.7,39.4 32.3,38.7 34,38.1 35.7,37.6 37.4,37.3 39.1,37.1" />
<path stroke="#000000" stroke-width="2" d="M 45.8,70" />
<path stroke="#000000" stroke-width="2" d="M 45.8,30 55.7,39.9 45.8,49.8 45.8,69.8 45.8,63.8 45.8,62.9 45.9,62.1 46,61.2 46.2,60.4 46.5,59.5 46.9,58.7 47.3,58 47.8,57.3 48.4,56.6 49,56 49.7,55.4 50.4,54.9 51.1,54.5 51.9,54.1 52.8,53.8 53.6,53.6 54.5,53.4 55.3,53.4" />
<path stroke="#000000" stroke-width="2" d="M 85.7,70" />
<path stroke="#000000" stroke-width="2" d="M 90.7,30" />
<path stroke="#000000" stroke-width="2" d="M 90.7,30 89.2,30.1 88,30.6 86.8,31.2 85.9,32.1 85,33.1 84.4,34.3 83.8,35.6 83.5,37 83.2,38.5 83.2,40 83.2,41.5 83.5,43 83.8,44.4 84.4,45.7 85,46.9 85.9,47.9 86.8,48.8 88,49.4 89.2,49.9 90.7,50 90.7,70 90.7,64 90.7,63.1 90.8,62.3 90.9,61.4 91.1,60.6 91.4,59.7 91.8,58.9 92.2,58.2 92.7,57.5 93.3,56.8 93.9,56.2 94.6,55.6 95.3,55.1 96,54.7 96.8,54.3 97.7,54 98.5,53.8 99.4,53.6 100.2,53.6" />
<path stroke="#000000" stroke-width="2" d="M 130.2,70" />
<path stroke="#000000" stroke-width="2" d="M 146.2,30" />
<path stroke="#000000" stroke-width="2" d="M 146.2,30 146,34.1 145.4,37.3 144.5,39.8 143.3,41.5 142,42.7 140.6,43.2 139.1,43.3 137.6,43 136.2,42.3 135,41.2 134,40 133.3,38.6 132.9,37.2 133,35.7 133.6,34.2 134.7,32.9 136.5,31.7 138.9,30.8 142.2,30.2 146.2,30 166.2,30" />
<path stroke="#000000" stroke-width="2" d="M 172.9,70" />
<path stroke="#000000" stroke-width="2" d="M 172.9,50 172.9,70 172.9,64 172.9,63.1 173,62.3 173.1,61.4 173.3,60.6 173.6,59.7 174,58.9 174.5,58.2 175,57.5 175.5,56.8 176.1,56.2 176.8,55.6 177.5,55.1 178.3,54.7 179.1,54.3 179.9,54 180.7,53.8 181.6,53.6 182.4,53.6" />
<path stroke="#000000" stroke-width="2" d="M 189.1,70" />
<path stroke="#000000" stroke-width="2" d="M 189.1,20 189.1,40 189.1,34 189.1,33.1 189.2,32.3 189.3,31.4 189.6,30.6 189.9,29.7 190.2,28.9 190.7,28.2 191.2,27.5 191.7,26.8 192.4,26.2 193,25.6 193.7,25.1 194.5,24.7 195.3,24.3 196.1,24 196.9,23.8 197.8,23.6 198.7,23.6" />
<path stroke="#000000" stroke-width="2" d="M 228.7,70" />
<path stroke="#000000" stroke-width="2" d="M 233.7,30" />
<path stroke="#000000" stroke-width="2" d="M 233.7,30 232.2,30.1 231,30.6 229.8,31.2 228.9,32.1 228,33.1 227.4,34.3 226.8,35.6 226.5,37 226.2,38.5 226.2,40 226.2,41.5 226.5,43 226.8,44.4 227.4,45.7 228,46.9 228.9,47.9 229.8,48.8 231,49.4 232.2,49.9 233.7,50 253.7,50" />
<path stroke="#000000" stroke-width="2" d="M 283.7,70" />
<path stroke="#000000" stroke-width="2" d="M 283.7,70 299,33 299,31.6 299.1,30.3 299.3,28.9 299.7,27.5 300.2,26.2 300.8,25 301.5,23.8 302.3,22.6 303.2,21.5 304.2,20.6 305.2,19.7 306.4,18.9 307.6,18.2 308.8,17.6 310.2,17.1 311.5,16.7 312.9,16.5 314.3,16.4 315.7,16.4 317.1,16.5 318.4,16.7 319.8,17.1 321.1,17.6 322.4,18.2 323.6,18.9 324.7,19.7 325.8,20.6 326.8,21.5 327.7,22.6 328.5,23.8 329.2,25 329.7,26.2 330.2,27.5 330.6,28.9 330.8,30.3 330.9,31.6" />
<path stroke="#000000" stroke-width="2" d="M 337.6,70" />
<path stroke="#000000" stroke-width="2" d="M 337.6,50" />
<path stroke="#000000" stroke-width="2" d="M 337.6,50 337.8,50 338.2,50 338.8,50 339.7,50.1 340.7,50.2 341.9,50.3 343.2,50.4 344.7,50.6 346.1,50.9 347.6,51.2 349.1,51.7 350.6,52.2 352,52.7 353.3,53.4 354.5,54.2 355.5,55.1 356.4,56.1 357.1,57.3 357.5,58.6 357.6,60" />
<path stroke="#000000" stroke-width="2" d="M 357.6,60 359.5,62.1 360.9,64.1 361.6,65.7 361.9,67.2 361.8,68.4 361.4,69.5 360.7,70.2 359.8,70.8 358.7,71.1 357.6,71.2 356.5,71.1 355.5,70.8 354.5,70.2 353.8,69.5 353.4,68.4 353.3,67.2 353.6,65.7 354.4,64 355.7,62.1 357.6,60" />
<path stroke="#000000" stroke-width="2" d="M 357.6,60 357.6,59.9 357.6,59.7 357.7,59.4 357.8,59 357.9,58.4 358.2,57.8 358.5,57.2 358.9,56.5 359.4,55.7 360.1,55 360.9,54.3 361.9,53.5 363.1,52.8 364.5,52.2 366.1,51.6 367.9,51 369.9,50.6 372.2,50.3 374.8,50.1 377.6,50 397.6,50 390,68.5" />
<path stroke="#000000" stroke-width="2" d="M 427.6,70" />
<path stroke="#000000" stroke-width="2" d="M 432.6,30" />
<path stroke="#000000" stroke-width="2" d="M 432.6,30 431.2,30.1 429.9,30.6 428.8,31.2 427.8,32.1 427,33.1 426.3,34.3 425.8,35.6 425.4,37 425.2,38.5 425.1,40 425.2,41.5 425.4,43 425.8,44.4 426.3,45.7 427,46.9 427.8,47.9 428.8,48.8 429.9,49.4 431.2,49.9 432.6,50 437.6,50 437.6,70" />
<path stroke="#000000" stroke-width="2" d="M 467.6,70" />
<path stroke="#000000" stroke-width="2" d="M 467.6,30 467.6,50 477.6,50 470,68.5" />
<path stroke="#000000" stroke-width="2" d="M 507.6,70" />
<path stroke="#000000" stroke-width="2" d="M 507.6,70 507.8,70 507.8,70.2 507.6,70.2 507.6,70" />
<path stroke="#000000" stroke-width="2" d="M 537.8,70" />
</svg>