<svg xmlns="http://www.w3.org/2000/svg" width="868.1720860906145" height="93.30875" style="fill:none; stroke-linecap:round;">
    <rect width="100%" height="100%" fill="#FFFFFF" />
<path stroke="#000000" stroke-width="2" d="M 550,75" />
<path stroke="#000000" stroke-width="2" d="M 20,30 35.3,67 50.6,30" />
<path stroke="#000000" stroke-width="2" d="M 50.6,50" />
<path stroke="#000000" stroke-width="2" d="M 18.6,50 52.6,50" />
<path stroke="#000000" stroke-width="2" d="M 82.6,70" />
<path stroke="#000000" stroke-width="2" d="M 82.6,40" />
<path stroke="#000000" stroke-width="2" d="M 82.6,40 86.7,39.8 89.9,39.2 92.4,38.3 94.1,37.1 95.3,35.8 95.8,34.3 95.9,32.8 95.6,31.4 94.9,30 93.9,28.8 92.6,27.7 91.3,27 89.8,26.7 88.3,26.8 86.8,27.3 85.5,28.5 84.3,30.2 83.4,32.7 82.8,35.9 82.6,40 82.6,70" />
<path stroke="#000000" stroke-width="2" d="M 102.6,70" />
<path stroke="#000000" stroke-width="2" d="M 110.6,20 100.7,29.9 110.6,39.8" />
<path stroke="#000000" stroke-width="2" d="M 117.3,70" />
<path stroke="#000000" stroke-width="2" d="M 117.3,20 117.3,40 117.3,34 117.3,33.1 117.3,32.3 117.5,31.4 117.7,30.6 118,29.7 118.4,28.9 118.8,28.2 119.3,27.5 119.9,26.8 120.5,26.2 121.2,25.6 121.9,25.1 122.6,24.7 123.4,24.3 124.2,24 125.1,23.8 125.9,23.6 126.8,23.6" />
<path stroke="#000000" stroke-width="2" d="M 156.8,70" />
<path stroke="#000000" stroke-width="2" d="M 156.8,70 172.1,33 172.1,41 172.1,42.1 172.2,43.1 172.4,44.2 172.7,45.2 173,46.2 173.5,47.1 174,48 174.6,48.9 175.3,49.7 176,50.4 176.8,51.1 177.7,51.7 178.6,52.2 179.5,52.7 180.5,53 181.5,53.3 182.5,53.5 183.6,53.6 184.6,53.6 185.7,53.5 186.7,53.3 187.7,53 188.7,52.7 189.6,52.2 190.6,51.7 191.4,51.1 192.2,50.4 193,49.7 193.6,48.9 194.2,48 194.8,47.1 195.2,46.2 195.6,45.2 195.8,44.2 196,43.1 196.1,42.1 196.1,32.1 196.1,72.1" />
<path stroke="#000000" stroke-width="2" d="M 202.8,70" />
<path stroke="#000000" stroke-width="2" d="M 202.8,20 222.8,20" />
<path stroke="#000000" stroke-width="2" d="M 252.8,70" />
<path stroke="#000000" stroke-width="2" d="M 252.8,70 253,70 253,70.2 252.8,70.2 252.8,70" />
<path stroke="#000000" stroke-width="2" d="M 283,70" />
<path stroke="#000000" stroke-width="2" d="M 293,50 293.8,50 294.7,49.9 295.6,49.8 296.4,49.5 297.2,49.2 298,48.9 298.8,48.4 299.5,47.9 300.2,47.4 300.8,46.8 301.3,46.1 301.8,45.4 302.3,44.6 302.6,43.8 302.9,43 303.2,42.2 303.3,41.3 303.4,40.4 303.4,39.6 303.3,38.7 303.2,37.8 302.9,37 302.6,36.2 302.3,35.4 301.8,34.6 301.3,33.9 300.8,33.3 300.2,32.6 299.5,32.1 298.8,31.6 298,31.1 297.2,30.8 296.4,30.5 295.6,30.2 294.7,30.1 293.8,30 293,30 292.1,30.1 291.2,30.2 290.4,30.5 289.6,30.8 288.8,31.1 288,31.6 287.3,32.1 286.6,32.6 286,33.3 285.5,33.9 285,34.6 284.5,35.4 284.2,36.2 283.9,37 283.6,37.8 283.5,38.7 283.4,39.6 283.4,40.4 283.5,41.3 283.6,42.2 283.9,43 284.2,43.8 284.5,44.6 285,45.4 285.5,46.1 286,46.8 286.6,47.4 287.3,47.9 288,48.4 288.8,48.9 289.6,49.2 290.4,49.5 291.2,49.8 292.1,49.9 293,50 293,70 293,64 293,63.1 293,62.3 293.2,61.4 293.4,60.6 293.7,59.7 294.1,58.9 294.5,58.2 295,57.5 295.6,56.8 296.2,56.2 296.9,55.6 297.6,55.1 298.3,54.7 299.1,54.3 299.9,54 300.8,53.8 301.6,53.6 302.5,53.6" />
<path stroke="#000000" stroke-width="2" d="M 333.4,70" />
<path stroke="#000000" stroke-width="2" d="M 333.4,30 333.4,70 344.7,58.7" />
<path stroke="#000000" stroke-width="2" d="M 351.4,70" />
<path stroke="#000000" stroke-width="2" d="M 351.4,25" />
<path stroke="#000000" stroke-width="2" d="M 351.4,25 353.4,24.9 355,24.6 356.2,24.1 357.1,23.6 357.7,22.9 358,22.2 358,21.4 357.8,20.7 357.5,20 357,19.4 356.4,18.9 355.7,18.5 355,18.3 354.2,18.4 353.5,18.7 352.8,19.2 352.2,20.1 351.8,21.4 351.5,23 351.4,25 351.4,40" />
<path stroke="#000000" stroke-width="2" d="M 388,70" />
<path stroke="#000000" stroke-width="2" d="M 388,40 388.2,40 388.2,40.2 388,40.2 388,40" />
<path stroke="#000000" stroke-width="2" d="M 394.9,70" />
<path stroke="#000000" stroke-width="2" d="M 394.9,30 394.9,70 394.9,62 394.9,60.3 395,58.5 395.3,56.8 395.8,55.1 396.4,53.5 397.1,51.9 398,50.4 399,49 400.1,47.6 401.4,46.4 402.7,45.3 404.1,44.3" />
<path stroke="#000000" stroke-width="2" d="M 410.8,70" />
<path stroke="#000000" stroke-width="2" d="M 410.8,30 420.8,30 420.8,70" />
<path stroke="#000000" stroke-width="2" d="M 450.8,70" />
<path stroke="#000000" stroke-width="2" d="M 466.8,30" />
<path stroke="#000000" stroke-width="2" d="M 466.8,30 466.6,34.1 466,37.3 465.1,39.8 463.9,41.5 462.6,42.7 461.1,43.2 459.6,43.3 458.2,43 456.8,42.3 455.5,41.2 454.5,40 453.8,38.6 453.5,37.2 453.6,35.7 454.1,34.2 455.3,32.9 457,31.7 459.5,30.8 462.7,30.2 466.8,30 486.8,30" />
<path stroke="#000000" stroke-width="2" d="M 493.5,70" />
<path stroke="#000000" stroke-width="2" d="M 493.5,20" />
<path stroke="#000000" stroke-width="2" d="M 493.5,20 493.6,20 494,20 494.7,20 495.5,20.1 496.6,20.2 497.8,20.3 499.1,20.4 500.5,20.6 502,20.9 503.5,21.2 505,21.7 506.4,22.2 507.8,22.7 509.1,23.4 510.3,24.2 511.4,25.1 512.2,26.1 512.9,27.3 513.3,28.6 513.5,30" />
<path stroke="#000000" stroke-width="2" d="M 513.5,30 515.4,32.1 516.7,34.1 517.5,35.7 517.8,37.2 517.7,38.4 517.2,39.4 516.5,40.2 515.6,40.8 514.6,41.1 513.5,41.2 512.3,41.1 511.3,40.8 510.4,40.2 509.7,39.4 509.2,38.4 509.1,37.2 509.4,35.7 510.2,34 511.5,32.1 513.5,30" />
<path stroke="#000000" stroke-width="2" d="M 513.5,30 513.5,29.9 513.5,29.7 513.5,29.4 513.6,29 513.8,28.4 514,27.8 514.3,27.2 514.7,26.5 515.3,25.7 516,25 516.8,24.3 517.8,23.5 519,22.8 520.3,22.2 521.9,21.6 523.7,21 525.7,20.6 528,20.3 530.6,20.1 533.5,20" />
<path stroke="#000000" stroke-width="2" d="M 533.5,20 535.5,19.9 537.1,19.6 538.3,19.1 539.2,18.6 539.8,17.9 540.1,17.2 540.1,16.4 539.9,15.7 539.6,15 539.1,14.4 538.5,13.9 537.8,13.5 537,13.3 536.3,13.4 535.6,13.7 534.9,14.2 534.3,15.1 533.9,16.4 533.6,18 533.5,20 533.5,35" />
<path stroke="#000000" stroke-width="2" d="M 570.1,70" />
<path stroke="#000000" stroke-width="2" d="M 570.1,30 590.1,30 591,30 591.9,30.1 592.7,30.2 593.6,30.5 594.4,30.8 595.2,31.1 595.9,31.6 596.6,32.1 597.3,32.6 597.9,33.2 598.5,33.9 599,34.6 599.4,35.4 599.8,36.2 600.1,37 600.3,37.8 600.5,38.7 600.5,39.6 600.5,40.4 600.5,41.3 600.3,42.2 600.1,43 599.8,43.8 599.4,44.6 599,45.4 598.5,46.1 597.9,46.7 597.3,47.4 596.6,47.9 595.9,48.4 595.2,48.9 594.4,49.2 593.6,49.5 592.7,49.8 591.9,49.9 591,50" />
<path stroke="#000000" stroke-width="2" d="M 630.5,70" />
<path stroke="#000000" stroke-width="2" d="M 646.5,30 646.5,60" />
<path stroke="#000000" stroke-width="2" d="M 646.5,60 646.3,64.1 645.7,67.3 644.8,69.8 643.7,71.5 642.3,72.7 640.9,73.2 639.4,73.3 637.9,73 636.5,72.3 635.3,71.2 634.3,70 633.6,68.6 633.2,67.2 633.3,65.7 633.9,64.2 635,62.9 636.8,61.7 639.2,60.8 642.5,60.2 646.5,60" />
<path stroke="#000000" stroke-width="2" d="M 653.2,70" />
<path stroke="#000000" stroke-width="2" d="M 653.2,20 653.4,20 653.4,20.2 653.2,20.2 653.2,20" />
<path stroke="#000000" stroke-width="2" d="M 683.4,70" />
<path stroke="#000000" stroke-width="2" d="M 683.4,35" />
<path stroke="#000000" stroke-width="2" d="M 683.4,35 685.4,34.9 687.1,34.6 688.3,34.1 689.2,33.6 689.7,32.9 690,32.2 690.1,31.4 689.9,30.7 689.5,30 689,29.4 688.4,28.9 687.7,28.5 687,28.3 686.2,28.4 685.5,28.7 684.8,29.2 684.3,30.1 683.8,31.4 683.5,33 683.4,35 683.4,50 691.1,68.5" />
<path stroke="#000000" stroke-width="2" d="M 697.7,70" />
<path stroke="#000000" stroke-width="2" d="M 697.7,30 697.7,30.7 697.8,31.4 697.9,32.1 698.1,32.8 698.3,33.4 698.6,34 699,34.6 699.4,35.2 699.8,35.8 700.3,36.2 700.8,36.7 701.4,37.1 702,37.4 702.7,37.7 703.3,38 704,38.2 704.7,38.3 705.4,38.3 706.1,38.3 706.8,38.3 707.5,38.2 708.1,38 708.8,37.7 709.4,37.4 710,37.1 710.6,36.7 711.1,36.2 711.6,35.8 712.1,35.2 712.5,34.6 712.8,34 713.1,33.4 713.3,32.8 713.5,32.1 713.7,31.4 713.7,30.7 714.6,30.7 715.5,30.8 716.3,30.9 717.2,31.2 718,31.4 718.8,31.8 719.5,32.3 720.2,32.8 720.9,33.3 721.5,33.9 722.1,34.6 722.6,35.3 723,36.1 723.4,36.9 723.7,37.7 723.9,38.5 724.1,39.4 724.1,40.3 724.1,41.1 724.1,42 723.9,42.9 723.7,43.7 723.4,44.5 723,45.3 722.6,46.1 722.1,46.8 721.5,47.4 720.9,48.1 720.2,48.6 719.5,49.1 718.8,49.6 718,49.9 717.2,50.2 716.3,50.5 715.5,50.6 714.6,50.7" />
<path stroke="#000000" stroke-width="2" d="M 754.1,70" />
<path stroke="#000000" stroke-width="2" d="M 754.1,30 754.1,31.4 754.3,32.8 754.5,34.2 754.9,35.5 755.3,36.8 755.9,38.1 756.6,39.3 757.4,40.4 758.3,41.5 759.3,42.5 760.4,43.4 761.5,44.2 762.7,44.9 764,45.5 765.3,46 766.7,46.3 768,46.6 769.4,46.7 770.8,46.7 772.2,46.6 773.6,46.3 774.9,46 776.2,45.5 777.5,44.9 778.7,44.2 779.9,43.4 780.9,42.5 781.9,41.5 782.8,40.4 783.6,39.3 784.3,38.1 784.9,36.8 785.4,35.5 785.7,34.2 786,32.8 786.1,31.4" />
<path stroke="#000000" stroke-width="2" d="M 792.8,70" />
<path stroke="#000000" stroke-width="2" d="M 802.8,30 795.1,48.5 795.1,49.2 795.2,49.9 795.3,50.6 795.5,51.2 795.7,51.9 796,52.5 796.4,53.1 796.8,53.7 797.2,54.2 797.7,54.7 798.2,55.2 798.8,55.6 799.4,55.9 800.1,56.2 800.7,56.5 801.4,56.6 802.1,56.8 802.8,56.8 803.5,56.8 804.2,56.8 804.8,56.6 805.5,56.5 806.2,56.2 806.8,55.9 807.4,55.6 808,55.2 808.5,54.7 809,54.2 809.5,53.7 809.9,53.1 810.2,52.5 810.5,51.9 810.7,51.2 810.9,50.6 811,49.9 811.1,49.2" />
<path stroke="#000000" stroke-width="2" d="M 817.8,70" />
<path stroke="#000000" stroke-width="2" d="M 817.8,30 818,30 818,30.2 817.8,30.2 817.8,30" />
<path stroke="#000000" stroke-width="2" d="M 848,70" />
<path stroke="#000000" stroke-width="2" d="M 848,70 848.2,70 848.2,70.2 848,70.2 848,70" />
<path stroke="#000000" stroke-width="2" d="M 878.2,70" />
</svg>