<svg xmlns="http://www.w3.org/2000/svg" width="1369.1482445022914" height="108.47759065022574" style="fill:none; stroke-linecap:round;">
    <rect width="100%" height="100%" fill="#FFFFFF" />
<path stroke="#000000" stroke-width="2" d="M 550,75" />
<path stroke="#000000" stroke-width="2" d="M 20,30 40,30 47.7,48.5 55.3,30" />
<path stroke="#000000" stroke-width="2" d="M 62,70" />
<path stroke="#000000" stroke-width="2" d="M 62,50 62,50.7 62,51.4 62.2,52.1 62.3,52.8 62.6,53.4 62.9,54 63.2,54.6 63.6,55.2 64.1,55.8 64.6,56.2 65.1,56.7 65.7,57.1 66.3,57.4 66.9,57.7 67.6,58 68.2,58.2 68.9,58.3 69.6,58.3 70.3,58.3 71,58.3 71.7,58.2 72.4,58 73,57.7 73.7,57.4 74.3,57.1 74.8,56.7 75.4,56.2 75.9,55.8 76.3,55.2 76.7,54.6 77.1,54 77.4,53.4 77.6,52.8 77.8,52.1 77.9,51.4 78,50.7 85.6,69.2 93.3,50.7" />
<path stroke="#000000" stroke-width="2" d="M 99.9,70" />
<path stroke="#000000" stroke-width="2" d="M 99.9,20 100.8,20 101.7,20.1 102.5,20.2 103.4,20.5 104.2,20.8 105,21.1 105.7,21.6 106.5,22.1 107.1,22.6 107.7,23.2 108.3,23.9 108.8,24.6 109.2,25.4 109.6,26.2 109.9,27 110.1,27.8 110.3,28.7 110.4,29.6 110.4,30.4 110.3,31.3 110.1,32.2 109.9,33 109.6,33.8 109.2,34.6 108.8,35.4 108.3,36.1 107.7,36.7 107.1,37.4 106.5,37.9 105.7,38.4 105,38.9 104.2,39.2 103.4,39.5 102.5,39.8 101.7,39.9 100.8,40" />
<path stroke="#000000" stroke-width="2" d="M 140.4,70" />
<path stroke="#000000" stroke-width="2" d="M 140.4,30 180.4,30" />
<path stroke="#000000" stroke-width="2" d="M 210.4,70" />
<path stroke="#000000" stroke-width="2" d="M 210.4,40 210.6,40 210.6,40.2 210.4,40.2 210.4,40" />
<path stroke="#000000" stroke-width="2" d="M 217.2,70" />
<path stroke="#000000" stroke-width="2" d="M 217.2,70 217.2,68.6 217.3,67.2 217.6,65.8 218,64.5 218.4,63.2 219,61.9 219.7,60.7 220.5,59.6 221.4,58.5 222.4,57.5 223.5,56.6 224.6,55.8 225.8,55.1 227.1,54.5 228.4,54 229.7,53.7 231.1,53.4 232.5,53.3 233.9,53.3 235.3,53.4 236.7,53.7 238,54 239.3,54.5 240.6,55.1 241.8,55.8 243,56.6 244,57.5 245,58.5 245.9,59.6 246.7,60.7 247.4,61.9 248,63.2 248.5,64.5 248.8,65.8 249.1,67.2 249.2,68.6" />
<path stroke="#000000" stroke-width="2" d="M 255.9,70" />
<path stroke="#000000" stroke-width="2" d="M 255.9,20 255.9,40 255.9,34 255.9,33.1 255.9,32.3 256.1,31.4 256.3,30.6 256.6,29.7 257,28.9 257.4,28.2 257.9,27.5 258.5,26.8 259.1,26.2 259.8,25.6 260.5,25.1 261.2,24.7 262,24.3 262.8,24 263.7,23.8 264.5,23.6 265.4,23.6" />
<path stroke="#000000" stroke-width="2" d="M 295.4,70" />
<path stroke="#000000" stroke-width="2" d="M 295.4,50 295.4,49.3 295.5,48.6 295.6,47.9 295.8,47.2 296,46.6 296.3,46 296.7,45.4 297.1,44.8 297.5,44.2 298,43.8 298.5,43.3 299.1,42.9 299.7,42.6 300.3,42.3 301,42 301.7,41.8 302.4,41.7 303.1,41.7 303.8,41.7 304.5,41.7 305.1,41.8 305.8,42 306.5,42.3 307.1,42.6 307.7,42.9 308.3,43.3 308.8,43.8 309.3,44.2 309.8,44.8 310.2,45.4 310.5,46 310.8,46.6 311,47.2 311.2,47.9 311.3,48.6 311.4,49.3 311.4,69.3 311.4,63.3 311.4,62.4 311.5,61.6 311.6,60.7 311.9,59.9 312.2,59 312.5,58.2 313,57.5 313.5,56.8 314,56.1 314.6,55.5 315.3,54.9 316,54.4 316.8,54 317.6,53.6 318.4,53.3 319.2,53.1 320.1,53 321,52.9" />
<path stroke="#000000" stroke-width="2" d="M 327.6,70" />
<path stroke="#000000" stroke-width="2" d="M 335.6,20 335.6,35" />
<path stroke="#000000" stroke-width="2" d="M 335.6,35 335.5,37 335.2,38.6 334.8,39.9 334.2,40.8 333.5,41.3 332.8,41.6 332,41.7 331.3,41.5 330.6,41.1 330,40.6 329.5,40 329.1,39.3 329,38.6 329,37.8 329.3,37.1 329.9,36.4 330.7,35.9 332,35.4 333.6,35.1 335.6,35" />
<path stroke="#000000" stroke-width="2" d="M 365.6,70" />
<path stroke="#000000" stroke-width="2" d="M 385.6,70 387.4,70 389.1,69.8 390.8,69.5 392.5,69.1 394.1,68.5 395.7,67.8 397.2,66.9 398.7,65.9 400,64.8 401.2,63.5 402.4,62.2 403.4,60.8 404.2,59.3 405,57.7 405.6,56 406,54.3 406.3,52.6 406.5,50.9 406.5,49.1 406.3,47.4 406,45.7 405.6,44 405,42.4 404.2,40.8 403.4,39.3 402.4,37.8 401.2,36.5 400,35.3 398.7,34.2 397.2,33.2 395.7,32.3 394.1,31.5 392.5,30.9 390.8,30.5 389.1,30.2 387.4,30 385.6,30 383.9,30.2 382.2,30.5 380.5,30.9 378.8,31.5 377.3,32.3 375.7,33.2 374.3,34.2 373,35.3 371.7,36.5 370.6,37.8 369.6,39.3 368.8,40.8 368,42.4 367.4,44 367,45.7 366.7,47.4 366.5,49.1 366.5,50.9 366.7,52.6 367,54.3 367.4,56 368,57.7 368.8,59.3 369.6,60.8 370.6,62.2 371.7,63.5 373,64.8 374.3,65.9 375.7,66.9 377.3,67.8 378.8,68.5 380.5,69.1 382.2,69.5 383.9,69.8 385.6,70" />
<path stroke="#000000" stroke-width="2" d="M 413.1,70" />
<path stroke="#000000" stroke-width="2" d="M 423.1,20 415.5,38.5" />
<path stroke="#000000" stroke-width="2" d="M 453.1,70" />
<path stroke="#000000" stroke-width="2" d="M 453.1,30 457,39.2" />
<path stroke="#000000" stroke-width="2" d="M 457,39.2 458.9,41.4 460.2,43.3 461,45 461.3,46.4 461.2,47.7 460.7,48.7 460,49.5 459.1,50 458.1,50.4 457,50.5 455.9,50.4 454.8,50 453.9,49.5 453.2,48.7 452.8,47.7 452.6,46.4 453,45 453.7,43.3 455,41.4 457,39.2 460.8,30 460.8,30.7 460.9,31.4 461,32.1 461.2,32.8 461.4,33.4 461.7,34 462,34.6 462.4,35.2 462.9,35.8 463.4,36.2 463.9,36.7 464.5,37.1 465.1,37.4 465.7,37.7 466.4,38 467.1,38.2 467.7,38.3 468.4,38.3 469.1,38.3 469.8,38.3 470.5,38.2 471.2,38 471.8,37.7 472.5,37.4 473.1,37.1 473.7,36.7 474.2,36.2 474.7,35.8 475.1,35.2 475.5,34.6 475.9,34 476.2,33.4 476.4,32.8 476.6,32.1 476.7,31.4 476.8,30.7 469.1,49.2" />
<path stroke="#000000" stroke-width="2" d="M 483.4,70" />
<path stroke="#000000" stroke-width="2" d="M 483.4,30 498.8,67" />
<path stroke="#000000" stroke-width="2" d="M 505.4,70" />
<path stroke="#000000" stroke-width="2" d="M 515.4,20 507.8,38.5 507.8,39.2 507.8,39.9 507.9,40.6 508.1,41.2 508.4,41.9 508.7,42.5 509,43.1 509.4,43.7 509.9,44.2 510.4,44.7 510.9,45.2 511.5,45.6 512.1,45.9 512.7,46.2 513.4,46.5 514,46.6 514.7,46.8 515.4,46.8 516.1,46.8 516.8,46.8 517.5,46.6 518.2,46.5 518.8,46.2 519.5,45.9 520.1,45.6 520.6,45.2 521.2,44.7 521.7,44.2 522.1,43.7 522.5,43.1 522.9,42.5 523.2,41.9 523.4,41.2 523.6,40.6 523.7,39.9 523.8,39.2" />
<path stroke="#000000" stroke-width="2" d="M 530.4,70" />
<path stroke="#000000" stroke-width="2" d="M 530.4,30 530.6,30 530.6,30.2 530.4,30.2 530.4,30" />
<path stroke="#000000" stroke-width="2" d="M 560.6,70" />
<path stroke="#000000" stroke-width="2" d="M 560.6,30 580.6,30 581.5,30 582.4,30.1 583.2,30.2 584.1,30.5 584.9,30.8 585.7,31.1 586.4,31.6 587.1,32.1 587.8,32.6 588.4,33.2 589,33.9 589.5,34.6 589.9,35.4 590.3,36.2 590.6,37 590.8,37.8 591,38.7 591,39.6 591,40.4 591,41.3 590.8,42.2 590.6,43 590.3,43.8 589.9,44.6 589.5,45.4 589,46.1 588.4,46.7 587.8,47.4 587.1,47.9 586.4,48.4 585.7,48.9 584.9,49.2 584.1,49.5 583.2,49.8 582.4,49.9 581.5,50 582.4,50 583.2,50.1 584.1,50.2 584.9,50.4 585.8,50.7 586.5,51.1 587.3,51.5 588,52 588.7,52.6 589.3,53.2 589.9,53.9 590.4,54.6 590.8,55.4 591.2,56.1 591.5,57 591.7,57.8 591.8,58.7 591.9,59.5 591.9,60.4 591.8,61.3 591.7,62.1 591.5,63 591.2,63.8 590.8,64.6 590.4,65.3 589.9,66.1 589.3,66.7 588.7,67.3 588,67.9 587.3,68.4 586.5,68.8 585.8,69.2 584.9,69.5 584.1,69.7 583.2,69.9 582.4,70" />
<path stroke="#000000" stroke-width="2" d="M 621.9,70" />
<path stroke="#000000" stroke-width="2" d="M 621.9,30 661.9,30" />
<path stroke="#000000" stroke-width="2" d="M 691.9,70" />
<path stroke="#000000" stroke-width="2" d="M 691.9,30 707.2,67" />
<path stroke="#000000" stroke-width="2" d="M 713.9,70" />
<path stroke="#000000" stroke-width="2" d="M 713.9,30 713.9,70" />
<path stroke="#000000" stroke-width="2" d="M 720.6,70" />
<path stroke="#000000" stroke-width="2" d="M 732.6,26 732.6,26.5 732.5,27 732.4,27.6 732.3,28.1 732.1,28.6 731.9,29 731.6,29.5 731.3,29.9 731,30.3 730.6,30.7 730.2,31 729.8,31.3 729.3,31.6 728.9,31.8 728.4,32 727.9,32.1 727.3,32.2 726.8,32.3 726.3,32.3 725.8,32.2 725.3,32.1 724.8,32 724.3,31.8 723.8,31.6 723.3,31.3 722.9,31 722.5,30.7 722.1,30.3 721.8,29.9 721.5,29.5 721.2,29 721,28.6 720.8,28.1 720.7,27.6 720.6,27 720.6,26.5 720.6,26 720.6,25.5 720.7,25 720.8,24.5 721,24 721.2,23.5 721.5,23 721.8,22.6 722.1,22.2 722.5,21.8 722.9,21.5 723.3,21.2 723.8,20.9 724.3,20.7 724.8,20.5 725.3,20.4 725.8,20.3 726.3,20.3 726.8,20.3 727.3,20.3 727.9,20.4 728.4,20.5 728.9,20.7 729.3,20.9 729.8,21.2 730.2,21.5 730.6,21.8 731,22.2 731.3,22.6 731.6,23 731.9,23.5 732.1,24 732.3,24.5 732.4,25 732.5,25.5 732.6,26 732.6,30" />
<path stroke="#000000" stroke-width="2" d="M 732.6,30 732.2,30.9 731.9,31.7 731.5,32.4 731.1,33.1 730.7,33.8 730.3,34.4 729.8,34.9 729.3,35.4 728.8,35.9 728.3,36.2 727.8,36.6 727.2,36.9 726.7,37.2 726.1,37.4 725.5,37.6 724.9,37.7 724.4,37.9 723.8,37.9 723.2,38 722.6,38" />
<path stroke="#000000" stroke-width="2" d="M 762.6,70" />
<path stroke="#000000" stroke-width="2" d="M 774.6,30 775.6,30 776.6,30.1 777.7,30.3 778.7,30.5 779.7,30.9 780.6,31.3 781.5,31.9 782.4,32.5 783.2,33.1 783.9,33.9 784.6,34.7 785.2,35.5 785.7,36.4 786.2,37.4 786.5,38.4 786.8,39.4 787,40.4 787.1,41.5 787.1,42.5 787,43.6 786.8,44.6 786.5,45.6 786.2,46.6 785.7,47.5 785.2,48.4 784.6,49.3 783.9,50.1 783.2,50.8 782.4,51.5 781.5,52.1 780.6,52.6 779.7,53.1 778.7,53.4 777.7,53.7 776.6,53.9 775.6,54 774.6,54 773.5,53.9 772.5,53.7 771.5,53.4 770.5,53.1 769.5,52.6 768.6,52.1 767.8,51.5 767,50.8 766.2,50.1 765.6,49.3 765,48.4 764.4,47.5 764,46.6 763.6,45.6 763.4,44.6 763.2,43.6 763.1,42.5 763.1,41.5 763.2,40.4 763.4,39.4 763.6,38.4 764,37.4 764.4,36.4 765,35.5 765.6,34.7 766.2,33.9 767,33.1 767.8,32.5 768.6,31.9 769.5,31.3 770.5,30.9 771.5,30.5 772.5,30.3 773.5,30.1 774.6,30 782.6,30" />
<path stroke="#000000" stroke-width="2" d="M 782.6,30 784.3,30.6 785.9,31.3 787.4,32.1 788.8,32.8 790.1,33.7 791.3,34.6 792.4,35.5 793.4,36.5 794.3,37.5 795.1,38.5 795.8,39.6 796.4,40.7 796.9,41.8 797.4,42.9 797.7,44.1 798,45.2 798.3,46.4 798.4,47.6 798.5,48.8 798.6,50" />
<path stroke="#000000" stroke-width="2" d="M 805.2,70" />
<path stroke="#000000" stroke-width="2" d="M 805.2,50 825.2,50" />
<path stroke="#000000" stroke-width="2" d="M 831.9,70" />
<path stroke="#000000" stroke-width="2" d="M 831.9,20 835.7,29.2" />
<path stroke="#000000" stroke-width="2" d="M 835.7,29.2 837.6,31.4 839,33.3 839.7,35 840,36.4 839.9,37.7 839.5,38.7 838.8,39.5 837.9,40 836.8,40.4 835.7,40.5 834.6,40.4 833.6,40 832.6,39.5 831.9,38.7 831.5,37.7 831.4,36.4 831.7,35 832.5,33.3 833.8,31.4 835.7,29.2 839.5,20 859.5,20" />
<path stroke="#000000" stroke-width="2" d="M 859.5,20 861.6,19.9 863.2,19.6 864.4,19.1 865.3,18.6 865.9,17.9 866.2,17.2 866.2,16.4 866,15.7 865.7,15 865.2,14.4 864.6,13.9 863.9,13.5 863.1,13.3 862.4,13.4 861.7,13.7 861,14.2 860.4,15.1 860,16.4 859.7,18 859.5,20 859.5,35" />
<path stroke="#000000" stroke-width="2" d="M 872.9,70" />
<path stroke="#000000" stroke-width="2" d="M 872.9,20 873.7,20 874.6,20.1 875.5,20.2 876.3,20.5 877.1,20.8 877.9,21.1 878.7,21.6 879.4,22.1 880.1,22.6 880.7,23.2 881.2,23.9 881.7,24.6 882.2,25.4 882.5,26.2 882.8,27 883.1,27.8 883.2,28.7 883.3,29.6 883.3,30.4 883.2,31.3 883.1,32.2 882.8,33 882.5,33.8 882.2,34.6 881.7,35.4 881.2,36.1 880.7,36.7 880.1,37.4 879.4,37.9 878.7,38.4 877.9,38.9 877.1,39.2 876.3,39.5 875.5,39.8 874.6,39.9 873.7,40" />
<path stroke="#000000" stroke-width="2" d="M 913.3,70" />
<path stroke="#000000" stroke-width="2" d="M 913.3,30 913.3,70 913.3,62 913.3,60.3 913.4,58.5 913.7,56.8 914.2,55.1 914.8,53.5 915.5,51.9 916.4,50.4 917.4,49 918.5,47.6 919.8,46.4 921.1,45.3 922.5,44.3" />
<path stroke="#000000" stroke-width="2" d="M 929.2,70" />
<path stroke="#000000" stroke-width="2" d="M 929.2,20 949.2,20 950.1,20 950.9,20.1 951.8,20.2 952.6,20.5 953.5,20.8 954.2,21.1 955,21.6 955.7,22.1 956.4,22.6 957,23.2 957.6,23.9 958.1,24.6 958.5,25.4 958.9,26.2 959.2,27 959.4,27.8 959.5,28.7 959.6,29.6 959.6,30.4 959.5,31.3 959.4,32.2 959.2,33 958.9,33.8 958.5,34.6 958.1,35.4 957.6,36.1 957,36.7 956.4,37.4 955.7,37.9 955,38.4 954.2,38.9 953.5,39.2 952.6,39.5 951.8,39.8 950.9,39.9 950.1,40" />
<path stroke="#000000" stroke-width="2" d="M 966.3,70" />
<path stroke="#000000" stroke-width="2" d="M 966.3,20 967.2,20 968,20.1 968.9,20.2 969.7,20.5 970.6,20.8 971.3,21.1 972.1,21.6 972.8,22.1 973.5,22.6 974.1,23.2 974.7,23.9 975.2,24.6 975.6,25.4 976,26.2 976.3,27 976.5,27.8 976.6,28.7 976.7,29.6 976.7,30.4 976.6,31.3 976.5,32.2 976.3,33 976,33.8 975.6,34.6 975.2,35.4 974.7,36.1 974.1,36.7 973.5,37.4 972.8,37.9 972.1,38.4 971.3,38.9 970.6,39.2 969.7,39.5 968.9,39.8 968,39.9 967.2,40" />
<path stroke="#000000" stroke-width="2" d="M 1006.7,70" />
<path stroke="#000000" stroke-width="2" d="M 1006.7,70 1006.9,70 1006.9,70.2 1006.7,70.2 1006.7,70" />
<path stroke="#000000" stroke-width="2" d="M 1036.9,70" />
<path stroke="#000000" stroke-width="2" d="M 1036.9,70 1048.4,42.3" />
<path stroke="#000000" stroke-width="2" d="M 1048.4,42.3 1052.5,42.1 1055.7,41.5 1058.1,40.6 1059.9,39.4 1061.1,38.1 1061.6,36.6 1061.7,35.1 1061.4,33.6 1060.6,32.3 1059.6,31 1058.4,30 1057,29.3 1055.6,29 1054.1,29.1 1052.6,29.6 1051.3,30.8 1050.1,32.5 1049.2,35 1048.6,38.2 1048.4,42.3 1048.4,72.3" />
<path stroke="#000000" stroke-width="2" d="M 1091.7,70" />
<path stroke="#000000" stroke-width="2" d="M 1091.7,30 1091.7,70 1111.7,70" />
<path stroke="#000000" stroke-width="2" d="M 1141.7,70" />
<path stroke="#000000" stroke-width="2" d="M 1141.7,30 1141.7,50 1141.7,50.7 1141.8,51.4 1141.9,52.1 1142.1,52.8 1142.3,53.4 1142.6,54 1142.9,54.6 1143.4,55.2 1143.8,55.8 1144.3,56.2 1144.8,56.7 1145.4,57.1 1146,57.4 1146.6,57.7 1147.3,58 1148,58.2 1148.7,58.3 1149.3,58.3 1150,58.3 1150.7,58.3 1151.4,58.2 1152.1,58 1152.8,57.7 1153.4,57.4 1154,57.1 1154.6,56.7 1155.1,56.2 1155.6,55.8 1156,55.2 1156.4,54.6 1156.8,54 1157.1,53.4 1157.3,52.8 1157.5,52.1 1157.6,51.4 1157.7,50.7" />
<path stroke="#000000" stroke-width="2" d="M 1164.4,70" />
<path stroke="#000000" stroke-width="2" d="M 1164.4,20 1165.2,20 1166.1,20.1 1167,20.2 1167.8,20.5 1168.6,20.8 1169.4,21.1 1170.2,21.6 1170.9,22.1 1171.5,22.6 1172.2,23.2 1172.7,23.9 1173.2,24.6 1173.7,25.4 1174,26.2 1174.3,27 1174.6,27.8 1174.7,28.7 1174.8,29.6 1174.8,30.4 1174.7,31.3 1174.6,32.2 1174.3,33 1174,33.8 1173.7,34.6 1173.2,35.4 1172.7,36.1 1172.2,36.7 1171.5,37.4 1170.9,37.9 1170.2,38.4 1169.4,38.9 1168.6,39.2 1167.8,39.5 1167,39.8 1166.1,39.9 1165.2,40" />
<path stroke="#000000" stroke-width="2" d="M 1204.8,70" />
<path stroke="#000000" stroke-width="2" d="M 1224.8,30 1223,30 1221.3,30.2 1219.6,30.5 1217.9,30.9 1216.3,31.5 1214.7,32.2 1213.2,33.1 1211.7,34.1 1210.4,35.2 1209.2,36.5 1208,37.8 1207,39.2 1206.2,40.7 1205.4,42.3 1204.8,44 1204.4,45.7 1204.1,47.4 1203.9,49.1 1203.9,50.9 1204.1,52.6 1204.4,54.3 1204.8,56 1205.4,57.6 1206.2,59.2 1207,60.7 1208,62.2 1209.2,63.5 1210.4,64.7 1211.7,65.8 1213.2,66.8 1214.7,67.7 1216.3,68.5 1217.9,69.1 1219.6,69.5 1221.3,69.8 1223,70" />
<path stroke="#000000" stroke-width="2" d="M 1223,50" />
<path stroke="#000000" stroke-width="2" d="M 1191,50 1231,50" />
<path stroke="#000000" stroke-width="2" d="M 1261,70" />
<path stroke="#000000" stroke-width="2" d="M 1281,30 1281,70 1261,70" />
<path stroke="#000000" stroke-width="2" d="M 1287.7,70" />
<path stroke="#000000" stroke-width="2" d="M 1287.7,55" />
<path stroke="#000000" stroke-width="2" d="M 1287.7,55 1289.7,54.9 1291.3,54.6 1292.6,54.1 1293.5,53.6 1294,52.9 1294.3,52.2 1294.4,51.4 1294.2,50.7 1293.8,50 1293.3,49.4 1292.7,48.9 1292,48.5 1291.3,48.3 1290.5,48.4 1289.8,48.7 1289.1,49.2 1288.6,50.1 1288.1,51.4 1287.8,53 1287.7,55 1287.7,70 1280.1,88.5" />
<path stroke="#000000" stroke-width="2" d="M 1324.4,70" />
<path stroke="#000000" stroke-width="2" d="M 1324.4,70 1335.8,42.3" />
<path stroke="#000000" stroke-width="2" d="M 1335.8,42.3 1339.9,42.1 1343.1,41.5 1345.6,40.6 1347.4,39.4 1348.5,38.1 1349.1,36.6 1349.1,35.1 1348.8,33.6 1348.1,32.3 1347.1,31 1345.9,30 1344.5,29.3 1343,29 1341.5,29.1 1340.1,29.6 1338.7,30.8 1337.6,32.5 1336.6,35 1336.1,38.2 1335.8,42.3 1335.8,72.3" />
<path stroke="#000000" stroke-width="2" d="M 1379.1,70" />
</svg>