<svg xmlns="http://www.w3.org/2000/svg" width="178.14669493508245" height="90.2" style="fill:none; stroke-linecap:round;">
    <rect width="100%" height="100%" fill="#FFFFFF" />
<path stroke="#000000" stroke-width="2" d="M 550,75" />
<path stroke="#000000" stroke-width="2" d="M 20,30 21.7,30 23.5,30.2 25.2,30.5 26.9,30.9 28.5,31.5 30.1,32.2 31.6,33.1 33,34.1 34.4,35.2 35.6,36.5 36.7,37.8 37.7,39.2 38.6,40.7 39.3,42.3 39.9,44 40.4,45.7 40.7,47.4 40.9,49.1 40.9,50.9 40.7,52.6 40.4,54.3 39.9,56 39.3,57.6 38.6,59.2 37.7,60.7 36.7,62.2 35.6,63.5 34.4,64.7 33,65.8 31.6,66.8 30.1,67.7 28.5,68.5 26.9,69.1 25.2,69.5 23.5,69.8 21.7,70 21.7,68.2 21.9,66.5 22.2,64.8 22.7,63.1 23.2,61.4 24,59.9 24.9,58.3 25.9,56.9 27,55.6 28.2,54.3 29.6,53.2 31,52.2 32.5,51.3 34.1,50.6 35.7,50 37.4,49.6 39.1,49.3 40.9,49.1" />
<path stroke="#000000" stroke-width="2" d="M 47.5,70" />
<path stroke="#000000" stroke-width="2" d="M 47.5,25" />
<path stroke="#000000" stroke-width="2" d="M 47.5,25 49.6,24.9 51.2,24.6 52.4,24.1 53.3,23.6 53.8,22.9 54.1,22.2 54.2,21.4 54,20.7 53.6,20 53.1,19.4 52.5,18.9 51.8,18.5 51.1,18.3 50.4,18.4 49.6,18.7 49,19.2 48.4,20.1 47.9,21.4 47.6,23 47.5,25 47.5,40 48.4,40 49.3,40.1 50.1,40.2 51,40.5 51.8,40.8 52.6,41.1 53.3,41.6 54,42.1 54.7,42.6 55.3,43.2 55.9,43.9 56.4,44.6 56.8,45.4 57.2,46.2 57.5,47 57.7,47.8 57.9,48.7 57.9,49.6 57.9,50.4 57.9,51.3 57.7,52.2 57.5,53 57.2,53.8 56.8,54.6 56.4,55.4 55.9,56.1 55.3,56.7 54.7,57.4 54,57.9 53.3,58.4 52.6,58.9 51.8,59.2 51,59.5 50.1,59.8 49.3,59.9 48.4,60" />
<path stroke="#000000" stroke-width="2" d="M 87.9,70" />
<path stroke="#000000" stroke-width="2" d="M 87.9,30 127.9,30" />
<path stroke="#000000" stroke-width="2" d="M 157.9,70" />
<path stroke="#000000" stroke-width="2" d="M 157.9,70 158.1,70 158.1,70.2 157.9,70.2 157.9,70" />
<path stroke="#000000" stroke-width="2" d="M 188.1,70" />
</svg>