<svg xmlns="http://www.w3.org/2000/svg" width="444.56885568106327" height="90.0" style="fill:none; stroke-linecap:round;">
    <rect width="100%" height="100%" fill="#FFFFFF" />
<path stroke="#000000" stroke-width="2" d="M 550,75" />
<path stroke="#000000" stroke-width="2" d="M 20,30 40,30" />
<path stroke="#000000" stroke-width="2" d="M 40,30 41.4,30.1 42.7,30.6 43.8,31.2 44.8,32.1 45.6,33.1 46.3,34.3 46.8,35.6 47.2,37 47.4,38.5 47.5,40 47.4,41.5 47.2,43 46.8,44.4 46.3,45.7 45.6,46.9 44.8,47.9 43.8,48.8 42.7,49.4 41.4,49.9 40,50" />
<path stroke="#000000" stroke-width="2" d="M 77.5,70" />
<path stroke="#000000" stroke-width="2" d="M 93.5,30 73.7,49.8 93.5,69.6" />
<path stroke="#000000" stroke-width="2" d="M 100.2,70" />
<path stroke="#000000" stroke-width="2" d="M 100.2,20 100.4,20 100.4,20.2 100.2,20.2 100.2,20" />
<path stroke="#000000" stroke-width="2" d="M 130.4,70" />
<path stroke="#000000" stroke-width="2" d="M 130.4,30 130.4,70 141.7,58.7" />
<path stroke="#000000" stroke-width="2" d="M 148.3,70" />
<path stroke="#000000" stroke-width="2" d="M 148.3,50 148.5,50 148.5,50.2 148.3,50.2 148.3,50" />
<path stroke="#000000" stroke-width="2" d="M 178.5,70" />
<path stroke="#000000" stroke-width="2" d="M 178.5,30" />
<path stroke="#000000" stroke-width="2" d="M 178.5,30 181.4,30.3 183.9,31.1 186.2,32.4 188.1,34.2 189.8,36.2 191.1,38.6 192.2,41.3 192.9,44.1 193.4,47 193.5,50 193.4,53 192.9,55.9 192.2,58.7 191.1,61.4 189.8,63.8 188.1,65.8 186.2,67.6 183.9,68.9 181.4,69.7 178.5,70" />
<path stroke="#000000" stroke-width="2" d="M 200.2,70" />
<path stroke="#000000" stroke-width="2" d="M 200.2,20 200.2,40 200.2,34 200.2,33.1 200.3,32.3 200.4,31.4 200.7,30.6 201,29.7 201.3,28.9 201.8,28.2 202.3,27.5 202.8,26.8 203.4,26.2 204.1,25.6 204.8,25.1 205.6,24.7 206.4,24.3 207.2,24 208,23.8 208.9,23.6 209.8,23.6" />
<path stroke="#000000" stroke-width="2" d="M 209.8,23.6 211.8,23.5 213.4,23.2 214.6,22.7 215.5,22.1 216.1,21.5 216.4,20.7 216.4,20 216.2,19.3 215.9,18.6 215.4,17.9 214.8,17.4 214.1,17.1 213.4,16.9 212.6,17 211.9,17.2 211.2,17.8 210.6,18.7 210.2,19.9 209.9,21.5 209.8,23.6 209.8,38.6" />
<path stroke="#000000" stroke-width="2" d="M 246.4,70" />
<path stroke="#000000" stroke-width="2" d="M 246.4,30 286.4,30" />
<path stroke="#000000" stroke-width="2" d="M 293.1,70" />
<path stroke="#000000" stroke-width="2" d="M 303.1,50 295.4,68.5" />
<path stroke="#000000" stroke-width="2" d="M 333.1,70" />
<path stroke="#000000" stroke-width="2" d="M 333.1,30 333.1,50 343.1,50" />
<path stroke="#000000" stroke-width="2" d="M 343.1,50 345.1,49.9 346.7,49.6 348,49.1 348.8,48.6 349.4,47.9 349.7,47.2 349.7,46.4 349.6,45.7 349.2,45 348.7,44.4 348.1,43.9 347.4,43.5 346.7,43.3 345.9,43.4 345.2,43.7 344.5,44.2 343.9,45.1 343.5,46.4 343.2,48 343.1,50 343.1,65" />
<path stroke="#000000" stroke-width="2" d="M 379.7,70" />
<path stroke="#000000" stroke-width="2" d="M 379.7,40 379.9,40 379.9,40.2 379.7,40.2 379.7,40" />
<path stroke="#000000" stroke-width="2" d="M 386.6,70" />
<path stroke="#000000" stroke-width="2" d="M 386.6,35" />
<path stroke="#000000" stroke-width="2" d="M 386.6,35 388.6,34.9 390.3,34.6 391.5,34.1 392.4,33.6 392.9,32.9 393.2,32.2 393.3,31.4 393.1,30.7 392.7,30 392.2,29.4 391.6,28.9 390.9,28.5 390.2,28.3 389.4,28.4 388.7,28.7 388.1,29.2 387.5,30.1 387,31.4 386.7,33 386.6,35 386.6,50 386.6,50.7 386.7,51.4 386.8,52.1 387,52.8 387.2,53.4 387.5,54 387.9,54.6 388.3,55.2 388.7,55.8 389.2,56.2 389.7,56.7 390.3,57.1 390.9,57.4 391.5,57.7 392.2,58 392.9,58.2 393.6,58.3 394.3,58.3 395,58.3 395.6,58.3 396.3,58.2 397,58 397.7,57.7 398.3,57.4 398.9,57.1 399.5,56.7 400,56.2 400.5,55.8 400.9,55.2 401.3,54.6 401.7,54 402,53.4 402.2,52.8 402.4,52.1 402.5,51.4 402.6,50.7" />
<path stroke="#000000" stroke-width="2" d="M 409.3,70" />
<path stroke="#000000" stroke-width="2" d="M 409.3,20 416.9,38.5 424.6,20" />
<path stroke="#000000" stroke-width="2" d="M 454.6,70" />
</svg>