<svg xmlns="http://www.w3.org/2000/svg" width="378.75075177413424" height="122.0" style="fill:none; stroke-linecap:round;">
    <rect width="100%" height="100%" fill="#FFFFFF" />
<path stroke="#000000" stroke-width="2" d="M 550,75" />
<path stroke="#000000" stroke-width="2" d="M 20,30 60,30" />
<path stroke="#000000" stroke-width="2" d="M 66.7,70" />
<path stroke="#000000" stroke-width="2" d="M 66.7,50 66.7,70 72.3,64.3" />
<path stroke="#000000" stroke-width="2" d="M 79,70" />
<path stroke="#000000" stroke-width="2" d="M 89,20 81.3,38.5" />
<path stroke="#000000" stroke-width="2" d="M 119,70" />
<path stroke="#000000" stroke-width="2" d="M 119,36 119,36.5 119,37 119.1,37.6 119.3,38.1 119.4,38.6 119.7,39 119.9,39.5 120.2,39.9 120.6,40.3 120.9,40.7 121.3,41 121.8,41.3 122.2,41.6 122.7,41.8 123.2,42 123.7,42.1 124.2,42.2 124.7,42.3 125.2,42.3 125.8,42.2 126.3,42.1 126.8,42 127.3,41.8 127.8,41.6 128.2,41.3 128.6,41 129,40.7 129.4,40.3 129.7,39.9 130,39.5 130.3,39 130.5,38.6 130.7,38.1 130.8,37.6 130.9,37 131,36.5 131,36 130.9,35.5 130.8,35 130.7,34.5 130.5,34 130.3,33.5 130,33 129.7,32.6 129.4,32.2 129,31.8 128.6,31.5 128.2,31.2 127.8,30.9 127.3,30.7 126.8,30.5 126.3,30.4 125.8,30.3 125.2,30.3 124.7,30.3 124.2,30.3 123.7,30.4 123.2,30.5 122.7,30.7 122.2,30.9 121.8,31.2 121.3,31.5 120.9,31.8 120.6,32.2 120.2,32.6 119.9,33 119.7,33.5 119.4,34 119.3,34.5 119.1,35 119,35.5 119,36 119,40" />
<path stroke="#000000" stroke-width="2" d="M 119,40 119.3,40.9 119.6,41.7 120,42.4 120.4,43.1 120.8,43.8 121.3,44.4 121.7,44.9 122.2,45.4 122.7,45.9 123.2,46.2 123.8,46.6 124.3,46.9 124.9,47.2 125.4,47.4 126,47.6 126.6,47.7 127.2,47.9 127.8,47.9 128.4,48 129,48 129,48.5 128.9,49 128.9,49.6 128.7,50.1 128.5,50.6 128.3,51 128.1,51.5 127.8,51.9 127.4,52.3 127,52.7 126.6,53 126.2,53.3 125.8,53.6 125.3,53.8 124.8,54 124.3,54.1 123.8,54.2 123.3,54.3 122.7,54.3 122.2,54.2 121.7,54.1 121.2,54 120.7,53.8 120.2,53.6 119.8,53.3 119.3,53 118.9,52.7 118.6,52.3 118.2,51.9 117.9,51.5 117.7,51 117.5,50.6 117.3,50.1 117.1,49.6 117,49 117,48.5 117,48 117,47.5 117.1,47 117.3,46.5 117.5,46 117.7,45.5 117.9,45 118.2,44.6 118.6,44.2 118.9,43.8 119.3,43.5 119.8,43.2 120.2,42.9 120.7,42.7 121.2,42.5 121.7,42.4 122.2,42.3 122.7,42.3 123.3,42.3 123.8,42.3 124.3,42.4 124.8,42.5 125.3,42.7 125.8,42.9 126.2,43.2 126.6,43.5 127,43.8 127.4,44.2 127.8,44.6 128.1,45 128.3,45.5 128.5,46 128.7,46.5 128.9,47 128.9,47.5 129,48 129,52" />
<path stroke="#000000" stroke-width="2" d="M 129,52 128.7,52.9 128.3,53.7 128,54.4 127.6,55.1 127.1,55.8 126.7,56.4 126.2,56.9 125.8,57.4 125.3,57.9 124.7,58.2 124.2,58.6 123.7,58.9 123.1,59.2 122.5,59.4 122,59.6 121.4,59.7 120.8,59.9 120.2,59.9 119.6,60 119,60" />
<path stroke="#000000" stroke-width="2" d="M 161,70" />
<path stroke="#000000" stroke-width="2" d="M 161,30 161,50 171,50" />
<path stroke="#000000" stroke-width="2" d="M 171,50 173,49.9 174.6,49.6 175.9,49.1 176.7,48.6 177.3,47.9 177.6,47.2 177.6,46.4 177.5,45.7 177.1,45 176.6,44.4 176,43.9 175.3,43.5 174.6,43.3 173.8,43.4 173.1,43.7 172.4,44.2 171.8,45.1 171.4,46.4 171.1,48 171,50 171,65" />
<path stroke="#000000" stroke-width="2" d="M 207.6,70" />
<path stroke="#000000" stroke-width="2" d="M 207.6,62 208.4,62 208.4,62.8 207.6,62.8 207.6,62" />
<path stroke="#000000" stroke-width="2" d="M 207.6,78" />
<path stroke="#000000" stroke-width="2" d="M 207.6,78 209.9,78.1 211.8,78.3 213.5,78.8 214.9,79.3 216.1,80.1 217,80.9 217.6,81.9 218,83 218.2,84.2 218.1,85.5 217.9,86.9 217.4,88.4 216.8,89.9 215.9,91.5 214.9,93.2 213.8,94.9 212.5,96.6 211,98.4 209.4,100.2 207.6,102" />
<path stroke="#000000" stroke-width="2" d="M 248.2,70" />
<path stroke="#000000" stroke-width="2" d="M 264.2,30 244.4,49.8 264.2,69.6" />
<path stroke="#000000" stroke-width="2" d="M 270.8,70" />
<path stroke="#000000" stroke-width="2" d="M 270.8,40 270.8,39.3 270.9,38.6 271,37.9 271.2,37.2 271.4,36.6 271.7,36 272.1,35.4 272.5,34.8 272.9,34.2 273.4,33.8 274,33.3 274.5,32.9 275.1,32.6 275.8,32.3 276.4,32 277.1,31.8 277.8,31.7 278.5,31.7 279.2,31.7 279.9,31.7 280.6,31.8 281.2,32 281.9,32.3 282.5,32.6 283.1,32.9 283.7,33.3 284.2,33.8 284.7,34.2 285.2,34.8 285.6,35.4 285.9,36 286.2,36.6 286.5,37.2 286.6,37.9 286.8,38.6 286.8,39.3" />
<path stroke="#000000" stroke-width="2" d="M 286.8,35.3" />
<path stroke="#000000" stroke-width="2" d="M 280.8,35.3 290.8,35.3 295.8,35.3 295.8,55.3" />
<path stroke="#000000" stroke-width="2" d="M 302.5,70" />
<path stroke="#000000" stroke-width="2" d="M 312.5,50 313,50 313.5,50 314.1,50.1 314.6,50.3 315.1,50.5 315.5,50.7 316,50.9 316.4,51.2 316.8,51.6 317.2,51.9 317.5,52.3 317.8,52.8 318.1,53.2 318.3,53.7 318.5,54.2 318.6,54.7 318.7,55.2 318.8,55.7 318.8,56.3 318.7,56.8 318.6,57.3 318.5,57.8 318.3,58.3 318.1,58.8 317.8,59.2 317.5,59.6 317.2,60 316.8,60.4 316.4,60.8 316,61.1 315.5,61.3 315.1,61.5 314.6,61.7 314.1,61.9 313.5,61.9 313,62 312.5,62 312,61.9 311.5,61.9 311,61.7 310.5,61.5 310,61.3 309.5,61.1 309.1,60.8 308.7,60.4 308.3,60 308,59.6 307.7,59.2 307.4,58.8 307.2,58.3 307,57.8 306.9,57.3 306.8,56.8 306.8,56.3 306.8,55.7 306.8,55.2 306.9,54.7 307,54.2 307.2,53.7 307.4,53.2 307.7,52.8 308,52.3 308.3,51.9 308.7,51.6 309.1,51.2 309.5,50.9 310,50.7 310.5,50.5 311,50.3 311.5,50.1 312,50 312.5,50 312.5,70" />
<path stroke="#000000" stroke-width="2" d="M 348.8,70" />
<path stroke="#000000" stroke-width="2" d="M 348.8,30 348.8,50 358.8,50 351.1,68.5" />
<path stroke="#000000" stroke-width="2" d="M 388.8,70" />
</svg>