<svg xmlns="http://www.w3.org/2000/svg" width="1222.982922786421" height="130.0677395031967" style="fill:none; stroke-linecap:round;">
    <rect width="100%" height="100%" fill="#FFFFFF" />
<path stroke="#000000" stroke-width="2" d="M 550,75" />
<path stroke="#000000" stroke-width="2" d="M 20,70 20.2,70 20.2,70.2 20,70.2 20,70" />
<path stroke="#000000" stroke-width="2" d="M 26.9,70" />
<path stroke="#000000" stroke-width="2" d="M 28.9,50 34.2,37.1 34.4,36.7 34.5,36.4 34.5,36.1 34.6,35.7 34.6,35.4 34.6,35 34.5,34.7 34.5,34.3 34.4,34 34.2,33.7 34.1,33.4 33.9,33.1 33.7,32.8 33.4,32.5 33.2,32.3 32.9,32.1 32.6,31.9 32.3,31.7 32,31.6 31.6,31.5 31.3,31.4 30.9,31.4 30.6,31.4 30.3,31.4 29.9,31.4 29.6,31.5 29.2,31.6 28.9,31.7 28.6,31.9 28.3,32.1 28,32.3 27.8,32.5 27.5,32.8 27.3,33.1 27.1,33.4 27,33.7 26.8,34 26.7,34.3 26.7,34.7 26.6,35 26.6,35.4 26.6,35.7 26.7,36.1 26.7,36.4 26.8,36.7 27,37.1 27.1,37.4 27.3,37.7 27.5,37.9 27.8,38.2 28,38.4 28.3,38.7 28.6,38.8 28.9,39 29.2,39.1 29.6,39.2 29.9,39.3 30.3,39.4 30.6,39.4 30.9,39.4 43.9,34 43.9,34.7 43.9,35.4 44.1,36.1 44.2,36.8 44.5,37.4 44.8,38 45.1,38.6 45.5,39.2 46,39.8 46.5,40.2 47,40.7 47.6,41.1 48.2,41.4 48.8,41.7 49.5,42 50.1,42.2 50.8,42.3 51.5,42.3 52.2,42.3 52.9,42.3 53.6,42.2 54.3,42 54.9,41.7 55.6,41.4 56.2,41.1 56.7,40.7 57.3,40.2 57.8,39.8 58.2,39.2 58.6,38.6 59,38 59.3,37.4 59.5,36.8 59.7,36.1 59.8,35.4 59.9,34.7" />
<path stroke="#000000" stroke-width="2" d="M 66.5,70" />
<path stroke="#000000" stroke-width="2" d="M 66.5,20 74.2,38.5" />
<path stroke="#000000" stroke-width="2" d="M 80.9,70" />
<path stroke="#000000" stroke-width="2" d="M 80.9,20 100.9,20 93.2,38.5" />
<path stroke="#000000" stroke-width="2" d="M 93.2,38.5 95.2,38.4 96.8,38.1 98.1,37.6 99,37 99.5,36.4 99.8,35.6 99.9,34.9 99.7,34.2 99.3,33.5 98.8,32.9 98.2,32.4 97.5,32 96.8,31.8 96,31.9 95.3,32.1 94.6,32.7 94.1,33.6 93.6,34.8 93.3,36.4 93.2,38.5 93.2,53.5" />
<path stroke="#000000" stroke-width="2" d="M 130.9,70" />
<path stroke="#000000" stroke-width="2" d="M 140.9,30 140,30 139.1,30.1 138.3,30.2 137.4,30.5 136.6,30.8 135.8,31.1 135,31.6 134.3,32.1 133.7,32.6 133,33.2 132.5,33.9 132,34.6 131.5,35.4 131.2,36.2 130.9,37 130.7,37.8 130.5,38.7 130.4,39.6 130.4,40.4 130.5,41.3 130.7,42.2 130.9,43 131.2,43.8 131.5,44.6 132,45.4 132.5,46.1 133,46.7 133.7,47.4 134.3,47.9 135,48.4 135.8,48.9 136.6,49.2 137.4,49.5 138.3,49.8 139.1,49.9 140,50 145,50 145,70" />
<path stroke="#000000" stroke-width="2" d="M 175,70" />
<path stroke="#000000" stroke-width="2" d="M 191,30 171.2,49.8 191,69.6" />
<path stroke="#000000" stroke-width="2" d="M 197.6,70" />
<path stroke="#000000" stroke-width="2" d="M 197.6,20 197.6,40 197.6,34 197.6,33.1 197.7,32.3 197.9,31.4 198.1,30.6 198.4,29.7 198.8,28.9 199.2,28.2 199.7,27.5 200.3,26.8 200.9,26.2 201.6,25.6 202.3,25.1 203,24.7 203.8,24.3 204.6,24 205.5,23.8 206.3,23.6 207.2,23.6 214.9,42.1" />
<path stroke="#000000" stroke-width="2" d="M 221.5,70" />
<path stroke="#000000" stroke-width="2" d="M 221.5,50 241.5,50" />
<path stroke="#000000" stroke-width="2" d="M 248.2,70" />
<path stroke="#000000" stroke-width="2" d="M 248.2,30 248.4,30 248.4,30.2 248.2,30.2 248.2,30" />
<path stroke="#000000" stroke-width="2" d="M 278.4,70" />
<path stroke="#000000" stroke-width="2" d="M 278.4,70" />
<path stroke="#000000" stroke-width="2" d="M 278.4,70 279.5,70 280.5,70.2 281.3,70.4 282,70.7 282.6,71 283.1,71.5 283.4,71.9 283.6,72.5 283.7,73.1 283.6,73.8 283.5,74.4 283.3,75.2 283,76 282.5,76.8 282,77.6 281.5,78.4 280.8,79.3 280.1,80.2 279.3,81.1 278.4,82" />
<path stroke="#000000" stroke-width="2" d="M 313.7,70" />
<path stroke="#000000" stroke-width="2" d="M 313.7,35" />
<path stroke="#000000" stroke-width="2" d="M 313.7,35 315.7,34.9 317.3,34.6 318.5,34.1 319.4,33.6 320,32.9 320.3,32.2 320.3,31.4 320.1,30.7 319.8,30 319.3,29.4 318.7,28.9 318,28.5 317.2,28.3 316.5,28.4 315.8,28.7 315.1,29.2 314.5,30.1 314.1,31.4 313.8,33 313.7,35 313.7,50 303.8,59.9 313.7,69.8" />
<path stroke="#000000" stroke-width="2" d="M 327,70" />
<path stroke="#000000" stroke-width="2" d="M 327,20 327.2,20 327.2,20.2 327,20.2 327,20" />
<path stroke="#000000" stroke-width="2" d="M 357.2,70" />
<path stroke="#000000" stroke-width="2" d="M 357.2,30 358.9,30 360.7,30.2 362.4,30.5 364.1,30.9 365.7,31.5 367.3,32.2 368.8,33.1 370.2,34.1 371.6,35.2 372.8,36.5 373.9,37.8 374.9,39.2 375.8,40.7 376.5,42.3 377.1,44 377.6,45.7 377.9,47.4 378,49.1 378,50.9 377.9,52.6 377.6,54.3 377.1,56 376.5,57.6 375.8,59.2 374.9,60.7 373.9,62.2 372.8,63.5 371.6,64.7 370.2,65.8 368.8,66.8 367.3,67.7 365.7,68.5 364.1,69.1 362.4,69.5 360.7,69.8 358.9,70" />
<path stroke="#000000" stroke-width="2" d="M 384.7,70" />
<path stroke="#000000" stroke-width="2" d="M 384.7,20 389.7,20 389.7,40" />
<path stroke="#000000" stroke-width="2" d="M 396.4,70" />
<path stroke="#000000" stroke-width="2" d="M 396.4,40 404,21.5 411.7,40 404,58.5" />
<path stroke="#000000" stroke-width="2" d="M 418.3,70" />
<path stroke="#000000" stroke-width="2" d="M 418.3,20 419.2,20 420.1,20.1 420.9,20.2 421.8,20.5 422.6,20.8 423.4,21.1 424.2,21.6 424.9,22.1 425.5,22.6 426.2,23.2 426.7,23.9 427.2,24.6 427.6,25.4 428,26.2 428.3,27 428.5,27.8 428.7,28.7 428.8,29.6 428.8,30.4 428.7,31.3 428.5,32.2 428.3,33 428,33.8 427.6,34.6 427.2,35.4 426.7,36.1 426.2,36.7 425.5,37.4 424.9,37.9 424.2,38.4 423.4,38.9 422.6,39.2 421.8,39.5 420.9,39.8 420.1,39.9 419.2,40" />
<path stroke="#000000" stroke-width="2" d="M 458.8,70" />
<path stroke="#000000" stroke-width="2" d="M 474.8,30 455,49.8 474.8,69.6" />
<path stroke="#000000" stroke-width="2" d="M 481.4,70" />
<path stroke="#000000" stroke-width="2" d="M 481.4,20 481.4,40 481.4,34 481.4,33.1 481.5,32.3 481.7,31.4 481.9,30.6 482.2,29.7 482.6,28.9 483,28.2 483.5,27.5 484.1,26.8 484.7,26.2 485.3,25.6 486.1,25.1 486.8,24.7 487.6,24.3 488.4,24 489.3,23.8 490.1,23.6 491,23.6" />
<path stroke="#000000" stroke-width="2" d="M 521,70" />
<path stroke="#000000" stroke-width="2" d="M 525,30 542,47" />
<path stroke="#000000" stroke-width="2" d="M 558.9,30 519.3,69.6 518.5,69.6 517.6,69.7 516.7,69.8 515.9,70.1 515.1,70.3 514.3,70.7 513.5,71.2 512.8,71.7 512.1,72.2 511.5,72.8 511,73.5 510.5,74.2 510,75 509.7,75.8 509.4,76.6 509.1,77.4 509,78.3 508.9,79.2 508.9,80 509,80.9 509.1,81.8 509.4,82.6 509.7,83.4 510,84.2 510.5,85 511,85.7 511.5,86.3 512.1,87 512.8,87.5 513.5,88 514.3,88.5 515.1,88.8 515.9,89.1 516.7,89.4 517.6,89.5 518.5,89.6 522.3,98.8" />
<path stroke="#000000" stroke-width="2" d="M 522.3,98.8 524.2,101 525.5,102.9 526.3,104.6 526.6,106 526.5,107.3 526.1,108.3 525.4,109.1 524.4,109.6 523.4,110 522.3,110.1 521.2,110 520.1,109.6 519.2,109.1 518.5,108.3 518.1,107.3 518,106 518.3,104.6 519,102.9 520.4,101 522.3,98.8 526.1,89.6 546.1,89.6 546.1,93.6 546.1,94.1 546.2,94.6 546.3,95.1 546.4,95.6 546.6,96.1 546.8,96.6 547,97.1 547.3,97.5 547.7,97.9 548.1,98.3 548.5,98.6 548.9,98.9 549.3,99.2 549.8,99.4 550.3,99.6 550.8,99.7 551.3,99.8 551.8,99.8 552.4,99.8 552.9,99.8 553.4,99.7 553.9,99.6 554.4,99.4 554.9,99.2 555.3,98.9 555.8,98.6 556.2,98.3 556.5,97.9 556.9,97.5 557.2,97.1 557.4,96.6 557.7,96.1 557.8,95.6 558,95.1 558.1,94.6 558.1,94.1 558.1,89.1 558.1,109.1" />
<path stroke="#000000" stroke-width="2" d="M 565.6,70" />
<path stroke="#000000" stroke-width="2" d="M 565.6,20 565.6,40 565.6,34 565.6,33.1 565.7,32.3 565.8,31.4 566.1,30.6 566.3,29.7 566.7,28.9 567.2,28.2 567.7,27.5 568.2,26.8 568.8,26.2 569.5,25.6 570.2,25.1 571,24.7 571.8,24.3 572.6,24 573.4,23.8 574.3,23.6 575.2,23.6" />
<path stroke="#000000" stroke-width="2" d="M 605.2,70" />
<path stroke="#000000" stroke-width="2" d="M 615.2,30 615.7,30 616.2,30 616.7,30.1 617.2,30.3 617.7,30.5 618.2,30.7 618.6,30.9 619.1,31.2 619.5,31.6 619.8,31.9 620.2,32.3 620.5,32.8 620.7,33.2 621,33.7 621.1,34.2 621.3,34.7 621.4,35.2 621.4,35.7 621.4,36.3 621.4,36.8 621.3,37.3 621.1,37.8 621,38.3 620.7,38.8 620.5,39.2 620.2,39.6 619.8,40 619.5,40.4 619.1,40.8 618.6,41.1 618.2,41.3 617.7,41.5 617.2,41.7 616.7,41.9 616.2,41.9 615.7,42 615.2,42 614.6,41.9 614.1,41.9 613.6,41.7 613.1,41.5 612.6,41.3 612.2,41.1 611.8,40.8 611.4,40.4 611,40 610.7,39.6 610.4,39.2 610.1,38.8 609.9,38.3 609.7,37.8 609.6,37.3 609.5,36.8 609.4,36.3 609.4,35.7 609.5,35.2 609.6,34.7 609.7,34.2 609.9,33.7 610.1,33.2 610.4,32.8 610.7,32.3 611,31.9 611.4,31.6 611.8,31.2 612.2,30.9 612.6,30.7 613.1,30.5 613.6,30.3 614.1,30.1 614.6,30 615.2,30 615.2,50 607.5,68.5 609.8,62.9 610.1,62.1 610.5,61.4 611,60.6 611.5,59.9 612.1,59.3 612.8,58.7 613.5,58.2 614.2,57.7 615,57.3 615.8,57 616.6,56.7 617.5,56.5" />
<path stroke="#000000" stroke-width="2" d="M 651.4,70" />
<path stroke="#000000" stroke-width="2" d="M 651.4,70" />
<path stroke="#000000" stroke-width="2" d="M 651.4,70 652.5,70 653.5,70.2 654.4,70.4 655.1,70.7 655.6,71 656.1,71.5 656.4,71.9 656.6,72.5 656.7,73.1 656.7,73.8 656.5,74.4 656.3,75.2 656,76 655.6,76.8 655.1,77.6 654.5,78.4 653.8,79.3 653.1,80.2 652.3,81.1 651.4,82" />
<path stroke="#000000" stroke-width="2" d="M 686.7,70" />
<path stroke="#000000" stroke-width="2" d="M 686.7,30 706.7,30 707.6,30 708.4,30.1 709.3,30.2 710.1,30.5 710.9,30.8 711.7,31.1 712.5,31.6 713.2,32.1 713.9,32.6 714.5,33.2 715,33.9 715.6,34.6 716,35.4 716.4,36.2 716.7,37 716.9,37.8 717,38.7 717.1,39.6 717.1,40.4 717,41.3 716.9,42.2 716.7,43 716.4,43.8 716,44.6 715.6,45.4 715,46.1 714.5,46.7 713.9,47.4 713.2,47.9 712.5,48.4 711.7,48.9 710.9,49.2 710.1,49.5 709.3,49.8 708.4,49.9 707.6,50" />
<path stroke="#000000" stroke-width="2" d="M 747.1,70" />
<path stroke="#000000" stroke-width="2" d="M 747.1,30 747.1,70" />
<path stroke="#000000" stroke-width="2" d="M 753.8,70" />
<path stroke="#000000" stroke-width="2" d="M 753.8,20 773.8,20" />
<path stroke="#000000" stroke-width="2" d="M 780.4,70" />
<path stroke="#000000" stroke-width="2" d="M 780.4,35" />
<path stroke="#000000" stroke-width="2" d="M 780.4,35 782.5,34.9 784.1,34.6 785.3,34.1 786.2,33.6 786.8,32.9 787.1,32.2 787.1,31.4 786.9,30.7 786.6,30 786.1,29.4 785.5,28.9 784.8,28.5 784,28.3 783.3,28.4 782.5,28.7 781.9,29.2 781.3,30.1 780.8,31.4 780.5,33 780.4,35 780.4,50 770.5,59.9 780.4,69.8" />
<path stroke="#000000" stroke-width="2" d="M 793.8,70" />
<path stroke="#000000" stroke-width="2" d="M 793.8,20 794.6,20 795.5,20.1 796.4,20.2 797.2,20.5 798,20.8 798.8,21.1 799.6,21.6 800.3,22.1 801,22.6 801.6,23.2 802.1,23.9 802.6,24.6 803.1,25.4 803.4,26.2 803.7,27 804,27.8 804.1,28.7 804.2,29.6 804.2,30.4 804.1,31.3 804,32.2 803.7,33 803.4,33.8 803.1,34.6 802.6,35.4 802.1,36.1 801.6,36.7 801,37.4 800.3,37.9 799.6,38.4 798.8,38.9 798,39.2 797.2,39.5 796.4,39.8 795.5,39.9 794.6,40" />
<path stroke="#000000" stroke-width="2" d="M 834.2,70" />
<path stroke="#000000" stroke-width="2" d="M 850.2,30 830.4,49.8 850.2,69.6" />
<path stroke="#000000" stroke-width="2" d="M 856.9,70" />
<path stroke="#000000" stroke-width="2" d="M 856.9,20 856.9,40 856.9,34 856.9,33.1 856.9,32.3 857.1,31.4 857.3,30.6 857.6,29.7 858,28.9 858.4,28.2 858.9,27.5 859.5,26.8 860.1,26.2 860.8,25.6 861.5,25.1 862.2,24.7 863,24.3 863.8,24 864.7,23.8 865.5,23.6 866.4,23.6" />
<path stroke="#000000" stroke-width="2" d="M 896.4,70" />
<path stroke="#000000" stroke-width="2" d="M 912.4,30" />
<path stroke="#000000" stroke-width="2" d="M 912.4,30 912.2,34.1 911.6,37.3 910.7,39.8 909.5,41.5 908.2,42.7 906.7,43.2 905.2,43.3 903.8,43 902.4,42.3 901.2,41.2 900.2,40 899.4,38.6 899.1,37.2 899.2,35.7 899.8,34.2 900.9,32.9 902.7,31.7 905.1,30.8 908.3,30.2 912.4,30 932.4,30" />
<path stroke="#000000" stroke-width="2" d="M 939.1,70" />
<path stroke="#000000" stroke-width="2" d="M 939.1,20 939.1,40 939.1,34 939.1,33.1 939.2,32.3 939.3,31.4 939.5,30.6 939.8,29.7 940.2,28.9 940.6,28.2 941.1,27.5 941.7,26.8 942.3,26.2 943,25.6 943.7,25.1 944.4,24.7 945.2,24.3 946.1,24 946.9,23.8 947.8,23.6 948.6,23.6 956.3,42.1" />
<path stroke="#000000" stroke-width="2" d="M 963,70" />
<path stroke="#000000" stroke-width="2" d="M 963,20 983,20" />
<path stroke="#000000" stroke-width="2" d="M 989.6,70" />
<path stroke="#000000" stroke-width="2" d="M 989.6,20 1009.6,20 1002,38.5 1002,39.2 1002,39.9 1002.1,40.6 1002.3,41.2 1002.6,41.9 1002.9,42.5 1003.2,43.1 1003.6,43.7 1004.1,44.2 1004.6,44.7 1005.1,45.2 1005.7,45.6 1006.3,45.9 1006.9,46.2 1007.5,46.5 1008.2,46.6 1008.9,46.8 1009.6,46.8 1010.3,46.8 1011,46.8 1011.7,46.6 1012.4,46.5 1013,46.2 1013.6,45.9 1014.3,45.6 1014.8,45.2 1015.4,44.7 1015.9,44.2 1016.3,43.7 1016.7,43.1 1017.1,42.5 1017.3,41.9 1017.6,41.2 1017.8,40.6 1017.9,39.9 1017.9,39.2" />
<path stroke="#000000" stroke-width="2" d="M 1024.6,70" />
<path stroke="#000000" stroke-width="2" d="M 1024.6,30 1024.8,30 1024.8,30.2 1024.6,30.2 1024.6,30" />
<path stroke="#000000" stroke-width="2" d="M 1054.8,70" />
<path stroke="#000000" stroke-width="2" d="M 1054.8,30 1054.8,50 1064.8,50 1084.8,50" />
<path stroke="#000000" stroke-width="2" d="M 1114.8,70" />
<path stroke="#000000" stroke-width="2" d="M 1114.8,70 1115,70 1115,70.2 1114.8,70.2 1114.8,70" />
<path stroke="#000000" stroke-width="2" d="M 1121.7,70" />
<path stroke="#000000" stroke-width="2" d="M 1121.7,30 1137,67" />
<path stroke="#000000" stroke-width="2" d="M 1143.7,70" />
<path stroke="#000000" stroke-width="2" d="M 1153.7,50 1152.8,50 1151.9,50.1 1151.1,50.2 1150.2,50.5 1149.4,50.8 1148.6,51.1 1147.8,51.6 1147.1,52.1 1146.5,52.6 1145.8,53.2 1145.3,53.9 1144.8,54.6 1144.3,55.4 1144,56.2 1143.7,57 1143.5,57.8 1143.3,58.7 1143.2,59.6 1143.2,60.4 1143.3,61.3 1143.5,62.2 1143.7,63 1144,63.8 1144.3,64.6 1144.8,65.4 1145.3,66.1 1145.8,66.7 1146.5,67.4 1147.1,67.9 1147.8,68.4 1148.6,68.9 1149.4,69.2 1150.2,69.5 1151.1,69.8 1151.9,69.9 1152.8,70 1172.8,70" />
<path stroke="#000000" stroke-width="2" d="M 1202.8,70" />
<path stroke="#000000" stroke-width="2" d="M 1202.8,70 1203,70 1203,70.2 1202.8,70.2 1202.8,70" />
<path stroke="#000000" stroke-width="2" d="M 1233,70" />
</svg>