<svg xmlns="http://www.w3.org/2000/svg" width="625.9798049859215" height="93.04481869954853" style="fill:none; stroke-linecap:round;">
    <rect width="100%" height="100%" fill="#FFFFFF" />
<path stroke="#000000" stroke-width="2" d="M 550,75" />
<path stroke="#000000" stroke-width="2" d="M 36,30" />
<path stroke="#000000" stroke-width="2" d="M 36,30 35.8,34.1 35.2,37.3 34.3,39.8 33.1,41.5 31.8,42.7 30.3,43.2 28.8,43.3 27.4,43 26,42.3 24.8,41.2 23.7,40 23,38.6 22.7,37.2 22.8,35.7 23.3,34.2 24.5,32.9 26.2,31.7 28.7,30.8 31.9,30.2 36,30 56,30" />
<path stroke="#000000" stroke-width="2" d="M 62.7,70" />
<path stroke="#000000" stroke-width="2" d="M 62.7,55" />
<path stroke="#000000" stroke-width="2" d="M 62.7,55 64.7,54.9 66.3,54.6 67.5,54.1 68.4,53.6 69,52.9 69.3,52.2 69.3,51.4 69.1,50.7 68.8,50 68.3,49.4 67.7,48.9 67,48.5 66.2,48.3 65.5,48.4 64.8,48.7 64.1,49.2 63.5,50.1 63.1,51.4 62.8,53 62.7,55 62.7,70" />
<path stroke="#000000" stroke-width="2" d="M 76,70" />
<path stroke="#000000" stroke-width="2" d="M 84,30 84,45" />
<path stroke="#000000" stroke-width="2" d="M 84,45 83.9,47 83.6,48.6 83.1,49.9 82.5,50.8 81.9,51.3 81.2,51.6 80.4,51.7 79.7,51.5 79,51.1 78.4,50.6 77.9,50 77.5,49.3 77.3,48.6 77.4,47.8 77.7,47.1 78.2,46.4 79.1,45.9 80.3,45.4 82,45.1 84,45 104,45" />
<path stroke="#000000" stroke-width="2" d="M 134,70" />
<path stroke="#000000" stroke-width="2" d="M 134,70 149.3,33 149.3,73 149.3,61 149.3,59.3 149.4,57.6 149.8,55.8 150.2,54.2 150.8,52.5 151.5,50.9 152.4,49.4 153.4,48 154.5,46.7 155.8,45.4 157.1,44.3 158.5,43.3 160,42.4 161.6,41.7 163.3,41.1" />
<path stroke="#000000" stroke-width="2" d="M 193.3,70" />
<path stroke="#000000" stroke-width="2" d="M 205.3,30" />
<path stroke="#000000" stroke-width="2" d="M 205.3,30 205,34.1 204.5,37.3 203.5,39.8 202.4,41.5 201,42.7 199.6,43.2 198.1,43.3 196.6,43 195.2,42.3 194,41.2 193,40 192.3,38.6 192,37.2 192,35.7 192.6,34.2 193.7,32.9 195.5,31.7 198,30.8 201.2,30.2 205.3,30 213.3,30" />
<path stroke="#000000" stroke-width="2" d="M 213.3,30 215,30.6 216.6,31.3 218.1,32.1 219.5,32.8 220.8,33.7 222,34.6 223.1,35.5 224.1,36.5 225,37.5 225.8,38.5 226.5,39.6 227.1,40.7 227.6,41.8 228.1,42.9 228.4,44.1 228.7,45.2 229,46.4 229.1,47.6 229.2,48.8 229.3,50" />
<path stroke="#000000" stroke-width="2" d="M 235.9,70" />
<path stroke="#000000" stroke-width="2" d="M 245.9,20 238.3,38.5" />
<path stroke="#000000" stroke-width="2" d="M 252.6,70" />
<path stroke="#000000" stroke-width="2" d="M 252.6,30 252.8,30 252.8,30.2 252.6,30.2 252.6,30" />
<path stroke="#000000" stroke-width="2" d="M 282.8,70" />
<path stroke="#000000" stroke-width="2" d="M 282.8,30" />
<path stroke="#000000" stroke-width="2" d="M 282.8,30 282.9,30 283.4,30 284,30 284.9,30.1 285.9,30.2 287.1,30.3 288.4,30.4 289.8,30.6 291.3,30.9 292.8,31.2 294.3,31.7 295.8,32.2 297.2,32.7 298.5,33.4 299.7,34.2 300.7,35.1 301.6,36.1 302.2,37.3 302.7,38.6 302.8,40" />
<path stroke="#000000" stroke-width="2" d="M 302.8,40 304.7,42.1 306,44.1 306.8,45.7 307.1,47.2 307,48.4 306.6,49.4 305.9,50.2 305,50.8 303.9,51.1 302.8,51.2 301.7,51.1 300.6,50.8 299.7,50.2 299,49.5 298.6,48.4 298.5,47.2 298.8,45.7 299.6,44.1 300.9,42.1 302.8,40" />
<path stroke="#000000" stroke-width="2" d="M 302.8,40 302.8,39.9 302.8,39.7 302.9,39.4 303,39 303.1,38.4 303.3,37.8 303.7,37.2 304.1,36.5 304.6,35.7 305.3,35 306.1,34.3 307.1,33.5 308.3,32.8 309.7,32.2 311.2,31.6 313,31 315.1,30.6 317.4,30.3 319.9,30.1 322.8,30 322.8,34 322.8,34.5 322.8,35 322.9,35.6 323.1,36.1 323.2,36.6 323.5,37 323.7,37.5 324,37.9 324.4,38.3 324.7,38.7 325.1,39 325.6,39.3 326,39.6 326.5,39.8 327,40 327.5,40.1 328,40.2 328.5,40.3 329.1,40.3 329.6,40.2 330.1,40.1 330.6,40 331.1,39.8 331.6,39.6 332,39.3 332.4,39 332.8,38.7 333.2,38.3 333.5,37.9 333.8,37.5 334.1,37 334.3,36.6 334.5,36.1 334.6,35.6 334.7,35 334.8,34.5 334.8,29.5 334.8,49.5 334.8,50.2 334.8,50.9 335,51.6 335.1,52.3 335.4,52.9 335.7,53.6 336,54.2 336.4,54.7 336.9,55.3 337.4,55.8 337.9,56.2 338.5,56.6 339.1,57 339.7,57.3 340.4,57.5 341,57.7 341.7,57.8 342.4,57.9 343.1,57.9 343.8,57.8 344.5,57.7 345.2,57.5 345.8,57.3 346.5,57 347.1,56.6 347.6,56.2 348.2,55.8 348.7,55.3 349.1,54.7 349.5,54.2 349.9,53.6 350.2,52.9 350.4,52.3 350.6,51.6 350.7,50.9 350.8,50.2" />
<path stroke="#000000" stroke-width="2" d="M 357.4,70" />
<path stroke="#000000" stroke-width="2" d="M 357.4,30 357.6,30 357.6,30.2 357.4,30.2 357.4,30" />
<path stroke="#000000" stroke-width="2" d="M 387.6,70" />
<path stroke="#000000" stroke-width="2" d="M 387.6,30 427.6,30" />
<path stroke="#000000" stroke-width="2" d="M 434.3,70" />
<path stroke="#000000" stroke-width="2" d="M 434.3,50 442,68.5" />
<path stroke="#000000" stroke-width="2" d="M 448.6,70" />
<path stroke="#000000" stroke-width="2" d="M 458.6,20 451,38.5 453.3,32.9 453.6,32.1 454,31.4 454.5,30.6 455,29.9 455.6,29.3 456.2,28.7 456.9,28.2 457.7,27.7 458.4,27.3 459.2,27 460.1,26.7 460.9,26.5" />
<path stroke="#000000" stroke-width="2" d="M 490.9,70" />
<path stroke="#000000" stroke-width="2" d="M 490.9,30 490.9,70 502.2,58.7" />
<path stroke="#000000" stroke-width="2" d="M 508.9,70" />
<path stroke="#000000" stroke-width="2" d="M 518.9,20 511.3,38.5" />
<path stroke="#000000" stroke-width="2" d="M 548.9,70" />
<path stroke="#000000" stroke-width="2" d="M 568.9,70 570.7,70 572.4,69.8 574.1,69.5 575.8,69.1 577.4,68.5 579,67.8 580.5,66.9 582,65.9 583.3,64.8 584.5,63.5 585.6,62.2 586.6,60.8 587.5,59.3 588.3,57.7 588.9,56 589.3,54.3 589.6,52.6 589.8,50.9 589.8,49.1 589.6,47.4 589.3,45.7 588.9,44 588.3,42.4 587.5,40.8 586.6,39.3 585.6,37.8 584.5,36.5 583.3,35.3 582,34.2 580.5,33.2 579,32.3 577.4,31.5 575.8,30.9 574.1,30.5 572.4,30.2 570.7,30 568.9,30 567.2,30.2 565.4,30.5 563.8,30.9 562.1,31.5 560.5,32.3 559,33.2 557.6,34.2 556.3,35.3 555,36.5 553.9,37.8 552.9,39.3 552,40.8 551.3,42.4 550.7,44 550.3,45.7 549.9,47.4 549.8,49.1 549.8,50.9 549.9,52.6 550.3,54.3 550.7,56 551.3,57.7 552,59.3 552.9,60.8 553.9,62.2 555,63.5 556.3,64.8 557.6,65.9 559,66.9 560.5,67.8 562.1,68.5 563.8,69.1 565.4,69.5 567.2,69.8 568.9,70" />
<path stroke="#000000" stroke-width="2" d="M 596.4,70" />
<path stroke="#000000" stroke-width="2" d="M 596.4,20 596.4,40 596.4,34 596.4,33.1 596.5,32.3 596.7,31.4 596.9,30.6 597.2,29.7 597.5,28.9 598,28.2 598.5,27.5 599,26.8 599.7,26.2 600.3,25.6 601,25.1 601.8,24.7 602.6,24.3 603.4,24 604.3,23.8 605.1,23.6 606,23.6" />
<path stroke="#000000" stroke-width="2" d="M 636,70" />
</svg>