<svg xmlns="http://www.w3.org/2000/svg" width="1057.8110569269027" height="96.8189315218033" style="fill:none; stroke-linecap:round;">
    <rect width="100%" height="100%" fill="#FFFFFF" />
<path stroke="#000000" stroke-width="2" d="M 550,75" />
<path stroke="#000000" stroke-width="2" d="M 20,70 20.2,70 20.2,70.2 20,70.2 20,70" />
<path stroke="#000000" stroke-width="2" d="M 26.9,70" />
<path stroke="#000000" stroke-width="2" d="M 36.9,30 36,30 35.1,30.1 34.3,30.2 33.4,30.5 32.6,30.8 31.8,31.1 31.1,31.6 30.3,32.1 29.7,32.6 29.1,33.2 28.5,33.9 28,34.6 27.6,35.4 27.2,36.2 26.9,37 26.7,37.8 26.5,38.7 26.4,39.6 26.4,40.4 26.5,41.3 26.7,42.2 26.9,43 27.2,43.8 27.6,44.6 28,45.4 28.5,46.1 29.1,46.7 29.7,47.4 30.3,47.9 31.1,48.4 31.8,48.9 32.6,49.2 33.4,49.5 34.3,49.8 35.1,49.9 36,50" />
<path stroke="#000000" stroke-width="2" d="M 36,40" />
<path stroke="#000000" stroke-width="2" d="M 20,40 40,40 45,40 45,60" />
<path stroke="#000000" stroke-width="2" d="M 51.7,70" />
<path stroke="#000000" stroke-width="2" d="M 51.7,30 51.7,38 51.7,39 51.8,40.1 51.9,41.1 52.2,42.1 52.6,43.1 53,44.1 53.5,45 54.1,45.8 54.8,46.6 55.5,47.4 56.3,48 57.2,48.6 58.1,49.2 59.1,49.6 60,50 61.1,50.2 62.1,50.4 63.1,50.5 64.2,50.5 65.2,50.4 66.2,50.2 67.3,50 68.2,49.6 69.2,49.2 70.1,48.6 71,48 71.8,47.4 72.5,46.6 73.2,45.8 73.8,45 74.3,44.1 74.7,43.1 75.1,42.1 75.4,41.1 75.5,40.1 75.6,39 75.6,29 75.6,69" />
<path stroke="#000000" stroke-width="2" d="M 82.3,70" />
<path stroke="#000000" stroke-width="2" d="M 82.3,50 82.3,70 82.3,64 82.3,63.1 82.4,62.3 82.5,61.4 82.8,60.6 83.1,59.7 83.4,58.9 83.9,58.2 84.4,57.5 84.9,56.8 85.5,56.2 86.2,55.6 86.9,55.1 87.7,54.7 88.5,54.3 89.3,54 90.1,53.8 91,53.6 91.9,53.6" />
<path stroke="#000000" stroke-width="2" d="M 121.9,70" />
<path stroke="#000000" stroke-width="2" d="M 121.9,30 121.9,70 133.2,58.7" />
<path stroke="#000000" stroke-width="2" d="M 139.8,70" />
<path stroke="#000000" stroke-width="2" d="M 139.8,20 159.8,20 140,39.8 160,39.8" />
<path stroke="#000000" stroke-width="2" d="M 190,70" />
<path stroke="#000000" stroke-width="2" d="M 190,30 205.3,67" />
<path stroke="#000000" stroke-width="2" d="M 212,70" />
<path stroke="#000000" stroke-width="2" d="M 212,50 221.9,59.9 212,69.8" />
<path stroke="#000000" stroke-width="2" d="M 251.9,70" />
<path stroke="#000000" stroke-width="2" d="M 251.9,35" />
<path stroke="#000000" stroke-width="2" d="M 251.9,35 253.9,34.9 255.6,34.6 256.8,34.1 257.7,33.6 258.2,32.9 258.5,32.2 258.6,31.4 258.4,30.7 258,30 257.5,29.4 256.9,28.9 256.2,28.5 255.5,28.3 254.7,28.4 254,28.7 253.4,29.2 252.8,30.1 252.3,31.4 252,33 251.9,35 251.9,50 259.6,68.5" />
<path stroke="#000000" stroke-width="2" d="M 266.2,70" />
<path stroke="#000000" stroke-width="2" d="M 266.2,20 266.2,20.7 266.3,21.4 266.4,22.1 266.6,22.8 266.8,23.4 267.1,24 267.5,24.6 267.9,25.2 268.3,25.8 268.8,26.2 269.4,26.7 269.9,27.1 270.5,27.4 271.2,27.7 271.8,28 272.5,28.2 273.2,28.3 273.9,28.3 274.6,28.3 275.3,28.3 276,28.2 276.6,28 277.3,27.7 277.9,27.4 278.5,27.1 279.1,26.7 279.6,26.2 280.1,25.8 280.6,25.2 281,24.6 281.3,24 281.6,23.4 281.9,22.8 282,22.1 282.2,21.4 282.2,20.7 282.2,40.7 282.2,34.7 282.2,33.8 282.3,33 282.4,32.1 282.7,31.3 283,30.4 283.3,29.6 283.8,28.9 284.3,28.2 284.8,27.5 285.5,26.9 286.1,26.3 286.8,25.8 287.6,25.4 288.4,25 289.2,24.7 290,24.5 290.9,24.3 291.8,24.3" />
<path stroke="#000000" stroke-width="2" d="M 321.8,70" />
<path stroke="#000000" stroke-width="2" d="M 321.8,70 322,70 322,70.2 321.8,70.2 321.8,70" />
<path stroke="#000000" stroke-width="2" d="M 352,70" />
<path stroke="#000000" stroke-width="2" d="M 352,70 352.2,70 352.2,70.2 352,70.2 352,70" />
<path stroke="#000000" stroke-width="2" d="M 358.8,70" />
<path stroke="#000000" stroke-width="2" d="M 358.8,35" />
<path stroke="#000000" stroke-width="2" d="M 358.8,35 360.9,34.9 362.5,34.6 363.7,34.1 364.6,33.6 365.2,32.9 365.5,32.2 365.5,31.4 365.3,30.7 365,30 364.5,29.4 363.9,28.9 363.2,28.5 362.4,28.3 361.7,28.4 360.9,28.7 360.3,29.2 359.7,30.1 359.2,31.4 358.9,33 358.8,35 358.8,50 358.8,49.3 358.9,48.6 359,47.9 359.2,47.2 359.4,46.6 359.7,46 360.1,45.4 360.5,44.8 360.9,44.2 361.4,43.8 362,43.3 362.5,42.9 363.1,42.6 363.8,42.3 364.4,42 365.1,41.8 365.8,41.7 366.5,41.7 367.2,41.7 367.9,41.7 368.6,41.8 369.2,42 369.9,42.3 370.5,42.6 371.1,42.9 371.7,43.3 372.2,43.8 372.7,44.2 373.2,44.8 373.6,45.4 373.9,46 374.2,46.6 374.5,47.2 374.6,47.9 374.8,48.6 374.8,49.3" />
<path stroke="#000000" stroke-width="2" d="M 381.5,70" />
<path stroke="#000000" stroke-width="2" d="M 381.5,30 381.5,50 381.5,50.7 381.6,51.4 381.7,52.1 381.9,52.8 382.1,53.4 382.4,54 382.7,54.6 383.1,55.2 383.6,55.8 384.1,56.2 384.6,56.7 385.2,57.1 385.8,57.4 386.4,57.7 387.1,58 387.8,58.2 388.4,58.3 389.1,58.3 389.8,58.3 390.5,58.3 391.2,58.2 391.9,58 392.5,57.7 393.2,57.4 393.8,57.1 394.4,56.7 394.9,56.2 395.4,55.8 395.8,55.2 396.2,54.6 396.6,54 396.9,53.4 397.1,52.8 397.3,52.1 397.4,51.4 397.5,50.7" />
<path stroke="#000000" stroke-width="2" d="M 404.1,70" />
<path stroke="#000000" stroke-width="2" d="M 404.1,50 404.3,50 404.3,50.2 404.1,50.2 404.1,50" />
<path stroke="#000000" stroke-width="2" d="M 434.3,70" />
<path stroke="#000000" stroke-width="2" d="M 444.3,30 434.3,30 434.3,70" />
<path stroke="#000000" stroke-width="2" d="M 451,70" />
<path stroke="#000000" stroke-width="2" d="M 461,50 453.4,68.5" />
<path stroke="#000000" stroke-width="2" d="M 491,70" />
<path stroke="#000000" stroke-width="2" d="M 491,30 511,30" />
<path stroke="#000000" stroke-width="2" d="M 511,30 512.4,30.1 513.7,30.6 514.8,31.2 515.8,32.1 516.6,33.1 517.3,34.3 517.8,35.6 518.2,37 518.4,38.5 518.5,40 518.4,41.5 518.2,43 517.8,44.4 517.3,45.7 516.6,46.9 515.8,47.9 514.8,48.8 513.7,49.4 512.4,49.9 511,50" />
<path stroke="#000000" stroke-width="2" d="M 548.5,70" />
<path stroke="#000000" stroke-width="2" d="M 548.5,30 548.5,70 548.5,58 548.5,56.3 548.7,54.5 549,52.8 549.4,51.1 550,49.5 550.8,47.9 551.6,46.4 552.6,45 553.7,43.6 555,42.4 556.3,41.3 557.7,40.3 559.3,39.4 560.8,38.7 562.5,38.1 564.2,37.6 565.9,37.3 567.6,37.1" />
<path stroke="#000000" stroke-width="2" d="M 574.3,70" />
<path stroke="#000000" stroke-width="2" d="M 574.3,20 594.3,20 594.3,40" />
<path stroke="#000000" stroke-width="2" d="M 601,70" />
<path stroke="#000000" stroke-width="2" d="M 601,50 601,70 606.6,64.3" />
<path stroke="#000000" stroke-width="2" d="M 636.6,70" />
<path stroke="#000000" stroke-width="2" d="M 636.6,30 651.9,67" />
<path stroke="#000000" stroke-width="2" d="M 658.6,70" />
<path stroke="#000000" stroke-width="2" d="M 658.6,20 678.6,20" />
<path stroke="#000000" stroke-width="2" d="M 708.6,70" />
<path stroke="#000000" stroke-width="2" d="M 708.6,30 728.6,30" />
<path stroke="#000000" stroke-width="2" d="M 728.6,30 730,30.1 731.3,30.6 732.4,31.2 733.4,32.1 734.2,33.1 734.9,34.3 735.4,35.6 735.8,37 736,38.5 736.1,40 736,41.5 735.8,43 735.4,44.4 734.9,45.7 734.2,46.9 733.4,47.9 732.4,48.8 731.3,49.4 730,49.9 728.6,50" />
<path stroke="#000000" stroke-width="2" d="M 766.1,70" />
<path stroke="#000000" stroke-width="2" d="M 786.1,30 770.8,67" />
<path stroke="#000000" stroke-width="2" d="M 792.7,70" />
<path stroke="#000000" stroke-width="2" d="M 792.7,20 792.7,20.7 792.8,21.4 792.9,22.1 793.1,22.8 793.4,23.4 793.6,24 794,24.6 794.4,25.2 794.8,25.8 795.3,26.2 795.9,26.7 796.4,27.1 797,27.4 797.7,27.7 798.3,28 799,28.2 799.7,28.3 800.4,28.3 801.1,28.3 801.8,28.3 802.5,28.2 803.1,28 803.8,27.7 804.4,27.4 805,27.1 805.6,26.7 806.1,26.2 806.6,25.8 807.1,25.2 807.5,24.6 807.8,24 808.1,23.4 808.4,22.8 808.6,22.1 808.7,21.4 808.7,20.7" />
<path stroke="#000000" stroke-width="2" d="M 838.7,70" />
<path stroke="#000000" stroke-width="2" d="M 848.7,30 847.9,30 847,30.1 846.1,30.2 845.3,30.5 844.5,30.8 843.7,31.1 842.9,31.6 842.2,32.1 841.5,32.6 840.9,33.2 840.4,33.9 839.9,34.6 839.4,35.4 839.1,36.2 838.8,37 838.5,37.8 838.4,38.7 838.3,39.6 838.3,40.4 838.4,41.3 838.5,42.2 838.8,43 839.1,43.8 839.4,44.6 839.9,45.4 840.4,46.1 840.9,46.7 841.5,47.4 842.2,47.9 842.9,48.4 843.7,48.9 844.5,49.2 845.3,49.5 846.1,49.8 847,49.9 847.9,50 852.9,50 852.9,70" />
<path stroke="#000000" stroke-width="2" d="M 882.9,70" />
<path stroke="#000000" stroke-width="2" d="M 882.9,70 883.1,70 883.1,70.2 882.9,70.2 882.9,70" />
<path stroke="#000000" stroke-width="2" d="M 889.7,70" />
<path stroke="#000000" stroke-width="2" d="M 905.7,30" />
<path stroke="#000000" stroke-width="2" d="M 905.7,30 905.5,34.1 904.9,37.3 904,39.8 902.8,41.5 901.5,42.7 900.1,43.2 898.6,43.3 897.1,43 895.7,42.3 894.5,41.2 893.5,40 892.8,38.6 892.4,37.2 892.5,35.7 893.1,34.2 894.2,32.9 896,31.7 898.4,30.8 901.7,30.2 905.7,30 925.7,30" />
<path stroke="#000000" stroke-width="2" d="M 932.4,70" />
<path stroke="#000000" stroke-width="2" d="M 932.4,20 932.4,24 932.4,24.5 932.4,25 932.5,25.6 932.7,26.1 932.8,26.6 933.1,27 933.3,27.5 933.6,27.9 934,28.3 934.3,28.7 934.7,29 935.2,29.3 935.6,29.6 936.1,29.8 936.6,30 937.1,30.1 937.6,30.2 938.1,30.3 938.7,30.3 939.2,30.2 939.7,30.1 940.2,30 940.7,29.8 941.2,29.6 941.6,29.3 942,29 942.4,28.7 942.8,28.3 943.1,27.9 943.4,27.5 943.7,27 943.9,26.6 944.1,26.1 944.2,25.6 944.3,25 944.4,24.5 944.4,19.5 944.4,39.5" />
<path stroke="#000000" stroke-width="2" d="M 951,70" />
<path stroke="#000000" stroke-width="2" d="M 961,20 961.6,20 962.1,20 962.6,20.1 963.1,20.3 963.6,20.5 964.1,20.7 964.5,20.9 965,21.2 965.4,21.6 965.7,21.9 966.1,22.3 966.4,22.8 966.6,23.2 966.9,23.7 967,24.2 967.2,24.7 967.3,25.2 967.3,25.7 967.3,26.3 967.3,26.8 967.2,27.3 967,27.8 966.9,28.3 966.6,28.8 966.4,29.2 966.1,29.6 965.7,30 965.4,30.4 965,30.8 964.5,31.1 964.1,31.3 963.6,31.5 963.1,31.7 962.6,31.9 962.1,31.9 961.6,32 961,32 960.5,31.9 960,31.9 959.5,31.7 959,31.5 958.5,31.3 958.1,31.1 957.7,30.8 957.3,30.4 956.9,30 956.6,29.6 956.3,29.2 956,28.8 955.8,28.3 955.6,27.8 955.5,27.3 955.4,26.8 955.3,26.3 955.3,25.7 955.4,25.2 955.5,24.7 955.6,24.2 955.8,23.7 956,23.2 956.3,22.8 956.6,22.3 956.9,21.9 957.3,21.6 957.7,21.2 958.1,20.9 958.5,20.7 959,20.5 959.5,20.3 960,20.1 960.5,20 961,20 961,40" />
<path stroke="#000000" stroke-width="2" d="M 997.3,70" />
<path stroke="#000000" stroke-width="2" d="M 997.3,50 1005,31.5 1012.6,50" />
<path stroke="#000000" stroke-width="2" d="M 1012.6,50 1012.5,52 1012.2,53.6 1011.8,54.9 1011.2,55.8 1010.5,56.3 1009.8,56.6 1009,56.7 1008.3,56.5 1007.6,56.1 1007,55.6 1006.5,55 1006.1,54.3 1006,53.6 1006,52.8 1006.3,52.1 1006.9,51.4 1007.7,50.9 1009,50.4 1010.6,50.1 1012.6,50 1022.6,50 1015,68.5 1015,69.2 1015,69.9 1015.1,70.6 1015.3,71.2 1015.6,71.9 1015.9,72.5 1016.2,73.1 1016.6,73.7 1017.1,74.2 1017.5,74.7 1018.1,75.2 1018.7,75.6 1019.3,75.9 1019.9,76.2 1020.5,76.5 1021.2,76.6 1021.9,76.8 1022.6,76.8 1023.3,76.8 1024,76.8 1024.7,76.6 1025.4,76.5 1026,76.2 1026.6,75.9 1027.3,75.6 1027.8,75.2 1028.4,74.7 1028.9,74.2 1029.3,73.7 1029.7,73.1 1030,72.5 1030.3,71.9 1030.6,71.2 1030.8,70.6 1030.9,69.9 1030.9,69.2" />
<path stroke="#000000" stroke-width="2" d="M 1037.6,70" />
<path stroke="#000000" stroke-width="2" d="M 1037.6,30 1037.8,30 1037.8,30.2 1037.6,30.2 1037.6,30" />
<path stroke="#000000" stroke-width="2" d="M 1067.8,70" />
</svg>