<svg xmlns="http://www.w3.org/2000/svg" width="1179.0338517526989" height="92.34314575050762" style="fill:none; stroke-linecap:round;">
    <rect width="100%" height="100%" fill="#FFFFFF" />
<path stroke="#000000" stroke-width="2" d="M 550,75" />
<path stroke="#000000" stroke-width="2" d="M 20,30 20,70 31.3,58.7" />
<path stroke="#000000" stroke-width="2" d="M 38,70" />
<path stroke="#000000" stroke-width="2" d="M 58,70 59.7,70 61.5,69.8 63.2,69.5 64.9,69.1 66.5,68.5 68.1,67.8 69.6,66.9 71,65.9 72.4,64.8 73.6,63.5 74.7,62.2 75.7,60.8 76.6,59.3 77.3,57.7 77.9,56 78.4,54.3 78.7,52.6 78.8,50.9 78.8,49.1 78.7,47.4 78.4,45.7 77.9,44 77.3,42.4 76.6,40.8 75.7,39.3 74.7,37.8 73.6,36.5 72.4,35.3 71,34.2 69.6,33.2 68.1,32.3 66.5,31.5 64.9,30.9 63.2,30.5 61.5,30.2 59.7,30 58,30 56.2,30.2 54.5,30.5 52.8,30.9 51.2,31.5 49.6,32.3 48.1,33.2 46.7,34.2 45.3,35.3 44.1,36.5 43,37.8 42,39.3 41.1,40.8 40.4,42.4 39.8,44 39.3,45.7 39,47.4 38.9,49.1 38.9,50.9 39,52.6 39.3,54.3 39.8,56 40.4,57.7 41.1,59.3 42,60.8 43,62.2 44.1,63.5 45.3,64.8 46.7,65.9 48.1,66.9 49.6,67.8 51.2,68.5 52.8,69.1 54.5,69.5 56.2,69.8 58,70" />
<path stroke="#000000" stroke-width="2" d="M 108.8,70" />
<path stroke="#000000" stroke-width="2" d="M 124.8,30 105,49.8 124.8,69.6" />
<path stroke="#000000" stroke-width="2" d="M 131.5,70" />
<path stroke="#000000" stroke-width="2" d="M 131.5,20 131.5,40 131.5,34 131.5,33.1 131.6,32.3 131.7,31.4 132,30.6 132.3,29.7 132.6,28.9 133.1,28.2 133.6,27.5 134.1,26.8 134.7,26.2 135.4,25.6 136.1,25.1 136.9,24.7 137.7,24.3 138.5,24 139.3,23.8 140.2,23.6 141.1,23.6" />
<path stroke="#000000" stroke-width="2" d="M 171.1,70" />
<path stroke="#000000" stroke-width="2" d="M 171.1,30 171.1,70" />
<path stroke="#000000" stroke-width="2" d="M 177.7,70" />
<path stroke="#000000" stroke-width="2" d="M 187.7,50 180.1,68.5" />
<path stroke="#000000" stroke-width="2" d="M 217.7,70" />
<path stroke="#000000" stroke-width="2" d="M 217.7,70 217.9,70 217.9,70.2 217.7,70.2 217.7,70" />
<path stroke="#000000" stroke-width="2" d="M 224.6,70" />
<path stroke="#000000" stroke-width="2" d="M 224.6,30 224.6,70" />
<path stroke="#000000" stroke-width="2" d="M 231.3,70" />
<path stroke="#000000" stroke-width="2" d="M 241.3,30 233.6,48.5 235.9,42.9 236.2,42.1 236.6,41.4 237.1,40.6 237.6,39.9 238.2,39.3 238.9,38.7 239.6,38.2 240.3,37.7 241.1,37.3 241.9,37 242.7,36.7 243.6,36.5 263.6,36.5 257.9,42.2 258.4,42.2 258.9,42.2 259.5,42.3 260,42.4 260.5,42.6 260.9,42.8 261.4,43.1 261.8,43.4 262.2,43.7 262.6,44.1 262.9,44.5 263.2,44.9 263.5,45.4 263.7,45.9 263.9,46.4 264,46.9 264.1,47.4 264.2,47.9 264.2,48.4 264.1,48.9 264,49.5 263.9,50 263.7,50.5 263.5,50.9 263.2,51.4 262.9,51.8 262.6,52.2 262.2,52.6 261.8,52.9 261.4,53.2 260.9,53.5 260.5,53.7 260,53.9 259.5,54 258.9,54.1 258.4,54.2" />
<path stroke="#000000" stroke-width="2" d="M 294.2,70" />
<path stroke="#000000" stroke-width="2" d="M 294.2,30 334.2,30" />
<path stroke="#000000" stroke-width="2" d="M 364.2,70" />
<path stroke="#000000" stroke-width="2" d="M 364.2,70 364.4,70 364.4,70.2 364.2,70.2 364.2,70" />
<path stroke="#000000" stroke-width="2" d="M 371,70" />
<path stroke="#000000" stroke-width="2" d="M 375,30 392,47" />
<path stroke="#000000" stroke-width="2" d="M 409,30 369.4,69.6" />
<path stroke="#000000" stroke-width="2" d="M 415.6,70" />
<path stroke="#000000" stroke-width="2" d="M 427.6,56" />
<path stroke="#000000" stroke-width="2" d="M 427.6,56 425.6,55.9 424,55.6 422.8,55.1 421.9,54.6 421.3,53.9 421,53.2 421,52.4 421.2,51.7 421.5,51 422,50.4 422.6,49.9 423.3,49.5 424,49.3 424.8,49.4 425.5,49.7 426.2,50.2 426.8,51.1 427.2,52.4 427.5,54 427.6,56 427.6,60" />
<path stroke="#000000" stroke-width="2" d="M 427.6,60 427.3,60.9 427,61.7 426.6,62.4 426.2,63.1 425.8,63.8 425.3,64.4 424.9,64.9 424.4,65.4 423.9,65.9 423.4,66.2 422.8,66.6 422.3,66.9 421.7,67.2 421.2,67.4 420.6,67.6 420,67.7 419.4,67.9 418.8,67.9 418.2,68 417.6,68" />
<path stroke="#000000" stroke-width="2" d="M 457.6,70" />
<path stroke="#000000" stroke-width="2" d="M 467.6,30 466.8,30 465.9,30.1 465,30.2 464.2,30.5 463.4,30.8 462.6,31.1 461.8,31.6 461.1,32.1 460.4,32.6 459.8,33.2 459.3,33.9 458.8,34.6 458.3,35.4 458,36.2 457.7,37 457.4,37.8 457.3,38.7 457.2,39.6 457.2,40.4 457.3,41.3 457.4,42.2 457.7,43 458,43.8 458.3,44.6 458.8,45.4 459.3,46.1 459.8,46.7 460.4,47.4 461.1,47.9 461.8,48.4 462.6,48.9 463.4,49.2 464.2,49.5 465,49.8 465.9,49.9 466.8,50 486.8,50" />
<path stroke="#000000" stroke-width="2" d="M 486.8,50 488.8,49.9 490.4,49.6 491.6,49.1 492.5,48.5 493.1,47.9 493.4,47.1 493.4,46.4 493.2,45.7 492.9,45 492.4,44.4 491.8,43.9 491.1,43.5 490.3,43.3 489.6,43.4 488.9,43.7 488.2,44.2 487.6,45.1 487.2,46.3 486.9,48 486.8,50 486.8,65" />
<path stroke="#000000" stroke-width="2" d="M 523.4,70" />
<path stroke="#000000" stroke-width="2" d="M 539.4,30 519.6,49.8 539.4,69.6" />
<path stroke="#000000" stroke-width="2" d="M 546.1,70" />
<path stroke="#000000" stroke-width="2" d="M 546.1,20 546.1,40 546.1,34 546.1,33.1 546.2,32.3 546.3,31.4 546.5,30.6 546.8,29.7 547.2,28.9 547.6,28.2 548.1,27.5 548.7,26.8 549.3,26.2 550,25.6 550.7,25.1 551.5,24.7 552.2,24.3 553.1,24 553.9,23.8 554.8,23.6 555.6,23.6 548,42.1" />
<path stroke="#000000" stroke-width="2" d="M 585.6,70" />
<path stroke="#000000" stroke-width="2" d="M 601.6,30 581.8,49.8 601.6,69.6" />
<path stroke="#000000" stroke-width="2" d="M 608.3,70" />
<path stroke="#000000" stroke-width="2" d="M 608.3,20" />
<path stroke="#000000" stroke-width="2" d="M 608.3,20 609.7,20.1 611,20.6 612.1,21.2 613.1,22.1 613.9,23.1 614.6,24.3 615.1,25.6 615.5,27 615.7,28.5 615.8,30 615.7,31.5 615.5,33 615.1,34.4 614.6,35.7 613.9,36.9 613.1,37.9 612.1,38.8 611,39.4 609.7,39.9 608.3,40" />
<path stroke="#000000" stroke-width="2" d="M 645.8,70" />
<path stroke="#000000" stroke-width="2" d="M 665.8,30 650.5,67 655.1,55.9 655.8,54.3 656.6,52.7 657.5,51.2 658.6,49.9 659.7,48.6 661,47.4 662.4,46.3 663.9,45.4 665.4,44.6 667,43.9 668.7,43.4 670.4,43" />
<path stroke="#000000" stroke-width="2" d="M 677.1,70" />
<path stroke="#000000" stroke-width="2" d="M 677.1,20 697.1,20" />
<path stroke="#000000" stroke-width="2" d="M 697.1,20 699.1,19.9 700.7,19.6 702,19.1 702.8,18.6 703.4,17.9 703.7,17.2 703.7,16.4 703.6,15.7 703.2,15 702.7,14.4 702.1,13.9 701.4,13.5 700.7,13.3 699.9,13.4 699.2,13.7 698.5,14.2 697.9,15.1 697.5,16.4 697.2,18 697.1,20 697.1,35 702.1,35 702.1,55" />
<path stroke="#000000" stroke-width="2" d="M 710.4,70" />
<path stroke="#000000" stroke-width="2" d="M 710.4,50 710.4,70 710.4,64 710.4,63.1 710.5,62.3 710.6,61.4 710.8,60.6 711.1,59.7 711.5,58.9 712,58.2 712.5,57.5 713,56.8 713.6,56.2 714.3,55.6 715,55.1 715.8,54.7 716.6,54.3 717.4,54 718.2,53.8 719.1,53.6 719.9,53.6 727.6,72.1" />
<path stroke="#000000" stroke-width="2" d="M 734.3,70" />
<path stroke="#000000" stroke-width="2" d="M 734.3,20" />
<path stroke="#000000" stroke-width="2" d="M 734.3,20 735.7,20.1 737,20.6 738.1,21.2 739.1,22.1 739.9,23.1 740.6,24.3 741.1,25.6 741.5,27 741.7,28.5 741.8,30 741.7,31.5 741.5,33 741.1,34.4 740.6,35.7 739.9,36.9 739.1,37.9 738.1,38.8 737,39.4 735.7,39.9 734.3,40" />
<path stroke="#000000" stroke-width="2" d="M 771.8,70" />
<path stroke="#000000" stroke-width="2" d="M 787.8,30 768,49.8 787.8,69.6" />
<path stroke="#000000" stroke-width="2" d="M 794.4,70" />
<path stroke="#000000" stroke-width="2" d="M 794.4,20 794.4,40 794.4,34 794.4,33.1 794.5,32.3 794.7,31.4 794.9,30.6 795.2,29.7 795.6,28.9 796,28.2 796.5,27.5 797.1,26.8 797.7,26.2 798.3,25.6 799.1,25.1 799.8,24.7 800.6,24.3 801.4,24 802.3,23.8 803.1,23.6 804,23.6" />
<path stroke="#000000" stroke-width="2" d="M 834,70" />
<path stroke="#000000" stroke-width="2" d="M 834,30 854,30 846.3,48.5" />
<path stroke="#000000" stroke-width="2" d="M 860.7,70" />
<path stroke="#000000" stroke-width="2" d="M 860.7,58 866.3,52.3 866.3,72.3 872,66.7" />
<path stroke="#000000" stroke-width="2" d="M 878.6,70" />
<path stroke="#000000" stroke-width="2" d="M 878.6,70 878.6,68.6 878.8,67.2 879,65.8 879.4,64.5 879.8,63.2 880.4,61.9 881.1,60.7 881.9,59.6 882.8,58.5 883.8,57.5 884.9,56.6 886,55.8 887.2,55.1 888.5,54.5 889.8,54 891.2,53.7 892.5,53.4 893.9,53.3 895.3,53.3 896.7,53.4 898.1,53.7 899.4,54 900.7,54.5 902,55.1 903.2,55.8 904.4,56.6 905.4,57.5 906.4,58.5 907.3,59.6 908.1,60.7 908.8,61.9 909.4,63.2 909.9,64.5 910.2,65.8 910.5,67.2 910.6,68.6" />
<path stroke="#000000" stroke-width="2" d="M 917.3,70" />
<path stroke="#000000" stroke-width="2" d="M 917.3,20" />
<path stroke="#000000" stroke-width="2" d="M 917.3,20 918.7,20.1 920,20.6 921.1,21.2 922.1,22.1 922.9,23.1 923.6,24.3 924.1,25.6 924.5,27 924.7,28.5 924.8,30 924.7,31.5 924.5,33 924.1,34.4 923.6,35.7 922.9,36.9 922.1,37.9 921.1,38.8 920,39.4 918.7,39.9 917.3,40" />
<path stroke="#000000" stroke-width="2" d="M 954.8,70" />
<path stroke="#000000" stroke-width="2" d="M 954.8,30 970.1,67" />
<path stroke="#000000" stroke-width="2" d="M 976.7,70" />
<path stroke="#000000" stroke-width="2" d="M 976.7,20 976.7,40 976.7,34 976.7,33.1 976.8,32.3 977,31.4 977.2,30.6 977.5,29.7 977.9,28.9 978.3,28.2 978.8,27.5 979.4,26.8 980,26.2 980.6,25.6 981.4,25.1 982.1,24.7 982.9,24.3 983.7,24 984.6,23.8 985.4,23.6 986.3,23.6" />
<path stroke="#000000" stroke-width="2" d="M 1016.3,70" />
<path stroke="#000000" stroke-width="2" d="M 1026.3,30 1025.4,30 1024.6,30.1 1023.7,30.2 1022.9,30.5 1022,30.8 1021.2,31.1 1020.5,31.6 1019.8,32.1 1019.1,32.6 1018.5,33.2 1017.9,33.9 1017.4,34.6 1017,35.4 1016.6,36.2 1016.3,37 1016.1,37.8 1016,38.7 1015.9,39.6 1015.9,40.4 1016,41.3 1016.1,42.2 1016.3,43 1016.6,43.8 1017,44.6 1017.4,45.4 1017.9,46.1 1018.5,46.7 1019.1,47.4 1019.8,47.9 1020.5,48.4 1021.2,48.9 1022,49.2 1022.9,49.5 1023.7,49.8 1024.6,49.9 1025.4,50 1030.4,50 1030.4,70" />
<path stroke="#000000" stroke-width="2" d="M 1060.4,70" />
<path stroke="#000000" stroke-width="2" d="M 1060.4,30" />
<path stroke="#000000" stroke-width="2" d="M 1060.4,30 1063.3,30.3 1065.8,31.1 1068.1,32.4 1070,34.2 1071.7,36.2 1073,38.6 1074.1,41.3 1074.8,44.1 1075.3,47 1075.4,50 1075.3,53 1074.8,55.9 1074.1,58.7 1073,61.4 1071.7,63.8 1070,65.8 1068.1,67.6 1065.8,68.9 1063.3,69.7 1060.4,70" />
<path stroke="#000000" stroke-width="2" d="M 1082.1,70" />
<path stroke="#000000" stroke-width="2" d="M 1082.1,20 1082.1,40 1082.1,34 1082.1,33.1 1082.2,32.3 1082.3,31.4 1082.5,30.6 1082.8,29.7 1083.2,28.9 1083.7,28.2 1084.2,27.5 1084.7,26.8 1085.3,26.2 1086,25.6 1086.7,25.1 1087.5,24.7 1088.3,24.3 1089.1,24 1089.9,23.8 1090.8,23.6 1091.6,23.6 1091.6,22.9 1091.7,22.2 1091.8,21.5 1092,20.8 1092.3,20.2 1092.5,19.5 1092.9,18.9 1093.3,18.4 1093.7,17.8 1094.2,17.3 1094.8,16.9 1095.3,16.5 1095.9,16.1 1096.6,15.8 1097.2,15.6 1097.9,15.4 1098.6,15.3 1099.3,15.2 1100,15.2 1100.7,15.3 1101.4,15.4 1102,15.6 1102.7,15.8 1103.3,16.1 1103.9,16.5 1104.5,16.9 1105,17.3 1105.5,17.8 1106,18.4 1106.4,18.9 1106.7,19.5 1107,20.2 1107.3,20.8 1107.5,21.5 1107.6,22.2 1107.6,22.9 1127.6,22.9 1122,28.5 1122.5,28.5 1123,28.6 1123.5,28.7 1124,28.8 1124.5,29 1125,29.2 1125.5,29.5 1125.9,29.8 1126.3,30.1 1126.7,30.5 1127,30.9 1127.3,31.3 1127.6,31.8 1127.8,32.2 1128,32.7 1128.1,33.2 1128.2,33.7 1128.2,34.3 1128.2,34.8 1128.2,35.3 1128.1,35.8 1128,36.3 1127.8,36.8 1127.6,37.3 1127.3,37.8 1127,38.2 1126.7,38.6 1126.3,39 1125.9,39.3 1125.5,39.6 1125,39.8 1124.5,40.1 1124,40.2 1123.5,40.4 1123,40.5 1122.5,40.5" />
<path stroke="#000000" stroke-width="2" d="M 1158.2,70" />
<path stroke="#000000" stroke-width="2" d="M 1158.2,42 1159,42 1159,42.8 1158.2,42.8 1158.2,42" />
<path stroke="#000000" stroke-width="2" d="M 1158.2,58 1159,58 1159,58.8 1158.2,58.8 1158.2,58" />
<path stroke="#000000" stroke-width="2" d="M 1189,70" />
</svg>