<svg xmlns="http://www.w3.org/2000/svg" width="1063.6644091058477" height="96.8189315218033" style="fill:none; stroke-linecap:round;">
    <rect width="100%" height="100%" fill="#FFFFFF" />
<path stroke="#000000" stroke-width="2" d="M 550,75" />
<path stroke="#000000" stroke-width="2" d="M 20,70 20.2,70 20.2,70.2 20,70.2 20,70" />
<path stroke="#000000" stroke-width="2" d="M 26.9,70" />
<path stroke="#000000" stroke-width="2" d="M 36.9,30 36,30 35.1,30.1 34.3,30.2 33.4,30.5 32.6,30.8 31.8,31.1 31.1,31.6 30.3,32.1 29.7,32.6 29.1,33.2 28.5,33.9 28,34.6 27.6,35.4 27.2,36.2 26.9,37 26.7,37.8 26.5,38.7 26.4,39.6 26.4,40.4 26.5,41.3 26.7,42.2 26.9,43 27.2,43.8 27.6,44.6 28,45.4 28.5,46.1 29.1,46.7 29.7,47.4 30.3,47.9 31.1,48.4 31.8,48.9 32.6,49.2 33.4,49.5 34.3,49.8 35.1,49.9 36,50" />
<path stroke="#000000" stroke-width="2" d="M 36,40" />
<path stroke="#000000" stroke-width="2" d="M 20,40 40,40 45,40 45,60" />
<path stroke="#000000" stroke-width="2" d="M 51.7,70" />
<path stroke="#000000" stroke-width="2" d="M 51.7,30 51.7,38 51.7,39 51.8,40.1 51.9,41.1 52.2,42.1 52.6,43.1 53,44.1 53.5,45 54.1,45.8 54.8,46.6 55.5,47.4 56.3,48 57.2,48.6 58.1,49.2 59.1,49.6 60,50 61.1,50.2 62.1,50.4 63.1,50.5 64.2,50.5 65.2,50.4 66.2,50.2 67.3,50 68.2,49.6 69.2,49.2 70.1,48.6 71,48 71.8,47.4 72.5,46.6 73.2,45.8 73.8,45 74.3,44.1 74.7,43.1 75.1,42.1 75.4,41.1 75.5,40.1 75.6,39 75.6,29 75.6,69" />
<path stroke="#000000" stroke-width="2" d="M 82.3,70" />
<path stroke="#000000" stroke-width="2" d="M 82.3,50 82.3,70 82.3,64 82.3,63.1 82.4,62.3 82.5,61.4 82.8,60.6 83.1,59.7 83.4,58.9 83.9,58.2 84.4,57.5 84.9,56.8 85.5,56.2 86.2,55.6 86.9,55.1 87.7,54.7 88.5,54.3 89.3,54 90.1,53.8 91,53.6 91.9,53.6" />
<path stroke="#000000" stroke-width="2" d="M 121.9,70" />
<path stroke="#000000" stroke-width="2" d="M 121.9,30 121.9,70 133.2,58.7" />
<path stroke="#000000" stroke-width="2" d="M 139.8,70" />
<path stroke="#000000" stroke-width="2" d="M 139.8,20 159.8,20 140,39.8 160,39.8" />
<path stroke="#000000" stroke-width="2" d="M 190,70" />
<path stroke="#000000" stroke-width="2" d="M 190,30 205.3,67" />
<path stroke="#000000" stroke-width="2" d="M 212,70" />
<path stroke="#000000" stroke-width="2" d="M 212,50 221.9,59.9 212,69.8" />
<path stroke="#000000" stroke-width="2" d="M 251.9,70" />
<path stroke="#000000" stroke-width="2" d="M 251.9,35" />
<path stroke="#000000" stroke-width="2" d="M 251.9,35 253.9,34.9 255.6,34.6 256.8,34.1 257.7,33.6 258.2,32.9 258.5,32.2 258.6,31.4 258.4,30.7 258,30 257.5,29.4 256.9,28.9 256.2,28.5 255.5,28.3 254.7,28.4 254,28.7 253.4,29.2 252.8,30.1 252.3,31.4 252,33 251.9,35 251.9,50 259.6,68.5" />
<path stroke="#000000" stroke-width="2" d="M 266.2,70" />
<path stroke="#000000" stroke-width="2" d="M 266.2,20 266.2,20.7 266.3,21.4 266.4,22.1 266.6,22.8 266.8,23.4 267.1,24 267.5,24.6 267.9,25.2 268.3,25.8 268.8,26.2 269.4,26.7 269.9,27.1 270.5,27.4 271.2,27.7 271.8,28 272.5,28.2 273.2,28.3 273.9,28.3 274.6,28.3 275.3,28.3 276,28.2 276.6,28 277.3,27.7 277.9,27.4 278.5,27.1 279.1,26.7 279.6,26.2 280.1,25.8 280.6,25.2 281,24.6 281.3,24 281.6,23.4 281.9,22.8 282,22.1 282.2,21.4 282.2,20.7 282.2,40.7 282.2,34.7 282.2,33.8 282.3,33 282.4,32.1 282.7,31.3 283,30.4 283.3,29.6 283.8,28.9 284.3,28.2 284.8,27.5 285.5,26.9 286.1,26.3 286.8,25.8 287.6,25.4 288.4,25 289.2,24.7 290,24.5 290.9,24.3 291.8,24.3" />
<path stroke="#000000" stroke-width="2" d="M 321.8,70" />
<path stroke="#000000" stroke-width="2" d="M 321.8,70 322,70 322,70.2 321.8,70.2 321.8,70" />
<path stroke="#000000" stroke-width="2" d="M 352,70" />
<path stroke="#000000" stroke-width="2" d="M 352,70 352.2,70 352.2,70.2 352,70.2 352,70" />
<path stroke="#000000" stroke-width="2" d="M 358.8,70" />
<path stroke="#000000" stroke-width="2" d="M 358.8,35" />
<path stroke="#000000" stroke-width="2" d="M 358.8,35 360.9,34.9 362.5,34.6 363.7,34.1 364.6,33.6 365.2,32.9 365.5,32.2 365.5,31.4 365.3,30.7 365,30 364.5,29.4 363.9,28.9 363.2,28.5 362.4,28.3 361.7,28.4 360.9,28.7 360.3,29.2 359.7,30.1 359.2,31.4 358.9,33 358.8,35 358.8,50 358.8,49.3 358.9,48.6 359,47.9 359.2,47.2 359.4,46.6 359.7,46 360.1,45.4 360.5,44.8 360.9,44.2 361.4,43.8 362,43.3 362.5,42.9 363.1,42.6 363.8,42.3 364.4,42 365.1,41.8 365.8,41.7 366.5,41.7 367.2,41.7 367.9,41.7 368.6,41.8 369.2,42 369.9,42.3 370.5,42.6 371.1,42.9 371.7,43.3 372.2,43.8 372.7,44.2 373.2,44.8 373.6,45.4 373.9,46 374.2,46.6 374.5,47.2 374.6,47.9 374.8,48.6 374.8,49.3" />
<path stroke="#000000" stroke-width="2" d="M 381.5,70" />
<path stroke="#000000" stroke-width="2" d="M 381.5,30 381.5,50 381.5,50.7 381.6,51.4 381.7,52.1 381.9,52.8 382.1,53.4 382.4,54 382.7,54.6 383.1,55.2 383.6,55.8 384.1,56.2 384.6,56.7 385.2,57.1 385.8,57.4 386.4,57.7 387.1,58 387.8,58.2 388.4,58.3 389.1,58.3 389.8,58.3 390.5,58.3 391.2,58.2 391.9,58 392.5,57.7 393.2,57.4 393.8,57.1 394.4,56.7 394.9,56.2 395.4,55.8 395.8,55.2 396.2,54.6 396.6,54 396.9,53.4 397.1,52.8 397.3,52.1 397.4,51.4 397.5,50.7" />
<path stroke="#000000" stroke-width="2" d="M 404.1,70" />
<path stroke="#000000" stroke-width="2" d="M 404.1,50 404.3,50 404.3,50.2 404.1,50.2 404.1,50" />
<path stroke="#000000" stroke-width="2" d="M 434.3,70" />
<path stroke="#000000" stroke-width="2" d="M 444.3,30 434.3,30 434.3,70" />
<path stroke="#000000" stroke-width="2" d="M 451,70" />
<path stroke="#000000" stroke-width="2" d="M 461,50 453.4,68.5" />
<path stroke="#000000" stroke-width="2" d="M 491,70" />
<path stroke="#000000" stroke-width="2" d="M 491,30 511,30 511.9,30 512.8,30.1 513.6,30.2 514.5,30.5 515.3,30.8 516.1,31.1 516.8,31.6 517.5,32.1 518.2,32.6 518.8,33.2 519.4,33.9 519.9,34.6 520.3,35.4 520.7,36.2 521,37 521.2,37.8 521.4,38.7 521.4,39.6 521.4,40.4 521.4,41.3 521.2,42.2 521,43 520.7,43.8 520.3,44.6 519.9,45.4 519.4,46.1 518.8,46.7 518.2,47.4 517.5,47.9 516.8,48.4 516.1,48.9 515.3,49.2 514.5,49.5 513.6,49.8 512.8,49.9 511.9,50" />
<path stroke="#000000" stroke-width="2" d="M 551.4,70" />
<path stroke="#000000" stroke-width="2" d="M 551.4,30 551.4,70 551.4,58 551.4,56.3 551.6,54.5 551.9,52.8 552.3,51.1 552.9,49.5 553.7,47.9 554.5,46.4 555.6,45 556.7,43.6 557.9,42.4 559.2,41.3 560.7,40.3 562.2,39.4 563.8,38.7 565.4,38.1 567.1,37.6 568.8,37.3 570.5,37.1" />
<path stroke="#000000" stroke-width="2" d="M 577.2,70" />
<path stroke="#000000" stroke-width="2" d="M 577.2,20 597.2,20 597.2,40" />
<path stroke="#000000" stroke-width="2" d="M 603.9,70" />
<path stroke="#000000" stroke-width="2" d="M 603.9,50 603.9,70 609.5,64.3" />
<path stroke="#000000" stroke-width="2" d="M 639.5,70" />
<path stroke="#000000" stroke-width="2" d="M 639.5,30 654.8,67" />
<path stroke="#000000" stroke-width="2" d="M 661.5,70" />
<path stroke="#000000" stroke-width="2" d="M 661.5,20 681.5,20" />
<path stroke="#000000" stroke-width="2" d="M 711.5,70" />
<path stroke="#000000" stroke-width="2" d="M 711.5,30 731.5,30 732.4,30 733.3,30.1 734.1,30.2 735,30.5 735.8,30.8 736.6,31.1 737.3,31.6 738,32.1 738.7,32.6 739.3,33.2 739.9,33.9 740.4,34.6 740.8,35.4 741.2,36.2 741.5,37 741.7,37.8 741.9,38.7 741.9,39.6 741.9,40.4 741.9,41.3 741.7,42.2 741.5,43 741.2,43.8 740.8,44.6 740.4,45.4 739.9,46.1 739.3,46.7 738.7,47.4 738,47.9 737.3,48.4 736.6,48.9 735.8,49.2 735,49.5 734.1,49.8 733.3,49.9 732.4,50" />
<path stroke="#000000" stroke-width="2" d="M 771.9,70" />
<path stroke="#000000" stroke-width="2" d="M 791.9,30 776.6,67" />
<path stroke="#000000" stroke-width="2" d="M 798.6,70" />
<path stroke="#000000" stroke-width="2" d="M 798.6,20 798.6,20.7 798.7,21.4 798.8,22.1 799,22.8 799.2,23.4 799.5,24 799.8,24.6 800.2,25.2 800.7,25.8 801.2,26.2 801.7,26.7 802.3,27.1 802.9,27.4 803.5,27.7 804.2,28 804.9,28.2 805.6,28.3 806.2,28.3 806.9,28.3 807.6,28.3 808.3,28.2 809,28 809.7,27.7 810.3,27.4 810.9,27.1 811.5,26.7 812,26.2 812.5,25.8 812.9,25.2 813.3,24.6 813.7,24 814,23.4 814.2,22.8 814.4,22.1 814.5,21.4 814.6,20.7" />
<path stroke="#000000" stroke-width="2" d="M 844.6,70" />
<path stroke="#000000" stroke-width="2" d="M 854.6,30 853.7,30 852.8,30.1 852,30.2 851.1,30.5 850.3,30.8 849.5,31.1 848.8,31.6 848.1,32.1 847.4,32.6 846.8,33.2 846.2,33.9 845.7,34.6 845.3,35.4 844.9,36.2 844.6,37 844.4,37.8 844.2,38.7 844.2,39.6 844.2,40.4 844.2,41.3 844.4,42.2 844.6,43 844.9,43.8 845.3,44.6 845.7,45.4 846.2,46.1 846.8,46.7 847.4,47.4 848.1,47.9 848.8,48.4 849.5,48.9 850.3,49.2 851.1,49.5 852,49.8 852.8,49.9 853.7,50 858.7,50 858.7,70" />
<path stroke="#000000" stroke-width="2" d="M 888.7,70" />
<path stroke="#000000" stroke-width="2" d="M 888.7,70 888.9,70 888.9,70.2 888.7,70.2 888.7,70" />
<path stroke="#000000" stroke-width="2" d="M 895.6,70" />
<path stroke="#000000" stroke-width="2" d="M 911.6,30" />
<path stroke="#000000" stroke-width="2" d="M 911.6,30 911.4,34.1 910.8,37.3 909.9,39.8 908.7,41.5 907.4,42.7 905.9,43.2 904.4,43.3 902.9,43 901.6,42.3 900.3,41.2 899.3,40 898.6,38.6 898.3,37.2 898.4,35.7 898.9,34.2 900.1,32.9 901.8,31.7 904.3,30.8 907.5,30.2 911.6,30 931.6,30" />
<path stroke="#000000" stroke-width="2" d="M 938.2,70" />
<path stroke="#000000" stroke-width="2" d="M 938.2,20 938.2,24 938.2,24.5 938.3,25 938.4,25.6 938.5,26.1 938.7,26.6 938.9,27 939.2,27.5 939.5,27.9 939.8,28.3 940.2,28.7 940.6,29 941,29.3 941.5,29.6 941.9,29.8 942.4,30 942.9,30.1 943.5,30.2 944,30.3 944.5,30.3 945,30.2 945.5,30.1 946,30 946.5,29.8 947,29.6 947.5,29.3 947.9,29 948.3,28.7 948.7,28.3 949,27.9 949.3,27.5 949.6,27 949.8,26.6 950,26.1 950.1,25.6 950.2,25 950.2,24.5 950.2,19.5 950.2,39.5" />
<path stroke="#000000" stroke-width="2" d="M 956.9,70" />
<path stroke="#000000" stroke-width="2" d="M 966.9,20 967.4,20 967.9,20 968.5,20.1 969,20.3 969.5,20.5 969.9,20.7 970.4,20.9 970.8,21.2 971.2,21.6 971.6,21.9 971.9,22.3 972.2,22.8 972.5,23.2 972.7,23.7 972.9,24.2 973,24.7 973.1,25.2 973.2,25.7 973.2,26.3 973.1,26.8 973,27.3 972.9,27.8 972.7,28.3 972.5,28.8 972.2,29.2 971.9,29.6 971.6,30 971.2,30.4 970.8,30.8 970.4,31.1 969.9,31.3 969.5,31.5 969,31.7 968.5,31.9 967.9,31.9 967.4,32 966.9,32 966.4,31.9 965.9,31.9 965.4,31.7 964.9,31.5 964.4,31.3 963.9,31.1 963.5,30.8 963.1,30.4 962.7,30 962.4,29.6 962.1,29.2 961.8,28.8 961.6,28.3 961.4,27.8 961.3,27.3 961.2,26.8 961.2,26.3 961.2,25.7 961.2,25.2 961.3,24.7 961.4,24.2 961.6,23.7 961.8,23.2 962.1,22.8 962.4,22.3 962.7,21.9 963.1,21.6 963.5,21.2 963.9,20.9 964.4,20.7 964.9,20.5 965.4,20.3 965.9,20.1 966.4,20 966.9,20 966.9,40" />
<path stroke="#000000" stroke-width="2" d="M 1003.2,70" />
<path stroke="#000000" stroke-width="2" d="M 1003.2,50 1010.8,31.5 1018.5,50" />
<path stroke="#000000" stroke-width="2" d="M 1018.5,50 1018.4,52 1018.1,53.6 1017.6,54.9 1017,55.8 1016.4,56.3 1015.6,56.6 1014.9,56.7 1014.1,56.5 1013.5,56.1 1012.8,55.6 1012.3,55 1012,54.3 1011.8,53.6 1011.9,52.8 1012.1,52.1 1012.7,51.4 1013.6,50.9 1014.8,50.4 1016.4,50.1 1018.5,50 1028.5,50 1020.8,68.5 1020.8,69.2 1020.9,69.9 1021,70.6 1021.2,71.2 1021.4,71.9 1021.7,72.5 1022.1,73.1 1022.5,73.7 1022.9,74.2 1023.4,74.7 1023.9,75.2 1024.5,75.6 1025.1,75.9 1025.7,76.2 1026.4,76.5 1027.1,76.6 1027.8,76.8 1028.5,76.8 1029.2,76.8 1029.8,76.8 1030.5,76.6 1031.2,76.5 1031.9,76.2 1032.5,75.9 1033.1,75.6 1033.7,75.2 1034.2,74.7 1034.7,74.2 1035.2,73.7 1035.6,73.1 1035.9,72.5 1036.2,71.9 1036.4,71.2 1036.6,70.6 1036.7,69.9 1036.8,69.2" />
<path stroke="#000000" stroke-width="2" d="M 1043.5,70" />
<path stroke="#000000" stroke-width="2" d="M 1043.5,30 1043.7,30 1043.7,30.2 1043.5,30.2 1043.5,30" />
<path stroke="#000000" stroke-width="2" d="M 1073.7,70" />
</svg>