<svg xmlns="http://www.w3.org/2000/svg" width="1111.48604421842" height="91.50643735829263" style="fill:none; stroke-linecap:round;">
    <rect width="100%" height="100%" fill="#FFFFFF" />
<path stroke="#000000" stroke-width="2" d="M 550,75" />
<path stroke="#000000" stroke-width="2" d="M 30,30 29.1,30 28.3,30.1 27.4,30.2 26.6,30.5 25.7,30.8 24.9,31.1 24.2,31.6 23.5,32.1 22.8,32.6 22.2,33.2 21.6,33.9 21.1,34.6 20.7,35.4 20.3,36.2 20,37 19.8,37.8 19.6,38.7 19.6,39.6 19.6,40.4 19.6,41.3 19.8,42.2 20,43 20.3,43.8 20.7,44.6 21.1,45.4 21.6,46.1 22.2,46.7 22.8,47.4 23.5,47.9 24.2,48.4 24.9,48.9 25.7,49.2 26.6,49.5 27.4,49.8 28.3,49.9 29.1,50 49.1,50" />
<path stroke="#000000" stroke-width="2" d="M 49.1,50 51.2,49.9 52.8,49.6 54,49.1 54.9,48.5 55.5,47.9 55.7,47.1 55.8,46.4 55.6,45.7 55.3,45 54.8,44.4 54.1,43.9 53.4,43.5 52.7,43.3 52,43.4 51.2,43.7 50.6,44.2 50,45.1 49.5,46.3 49.2,48 49.1,50 49.1,65" />
<path stroke="#000000" stroke-width="2" d="M 85.8,70" />
<path stroke="#000000" stroke-width="2" d="M 85.8,30" />
<path stroke="#000000" stroke-width="2" d="M 85.8,30 85.9,30 86.3,30 87,30 87.9,30.1 88.9,30.2 90.1,30.3 91.4,30.4 92.8,30.6 94.3,30.9 95.8,31.2 97.3,31.7 98.7,32.2 100.1,32.7 101.5,33.4 102.7,34.2 103.7,35.1 104.6,36.1 105.2,37.3 105.6,38.6 105.8,40" />
<path stroke="#000000" stroke-width="2" d="M 105.8,40 107.7,42.1 109,44.1 109.8,45.7 110.1,47.2 110,48.4 109.6,49.4 108.9,50.2 107.9,50.8 106.9,51.1 105.8,51.2 104.7,51.1 103.6,50.8 102.7,50.2 102,49.5 101.6,48.4 101.5,47.2 101.8,45.7 102.5,44.1 103.9,42.1 105.8,40" />
<path stroke="#000000" stroke-width="2" d="M 105.8,40 105.8,39.9 105.8,39.7 105.8,39.4 105.9,39 106.1,38.4 106.3,37.8 106.6,37.2 107.1,36.5 107.6,35.7 108.3,35 109.1,34.3 110.1,33.5 111.3,32.8 112.6,32.2 114.2,31.6 116,31 118.1,30.6 120.4,30.3 122.9,30.1 125.8,30" />
<path stroke="#000000" stroke-width="2" d="M 125.8,30 125.7,32 125.4,33.6 124.9,34.9 124.3,35.8 123.7,36.3 122.9,36.6 122.2,36.7 121.5,36.5 120.8,36.1 120.2,35.6 119.7,35 119.3,34.3 119.1,33.6 119.2,32.8 119.5,32.1 120,31.4 120.9,30.9 122.1,30.4 123.8,30.1 125.8,30 135.8,30" />
<path stroke="#000000" stroke-width="2" d="M 142.4,70" />
<path stroke="#000000" stroke-width="2" d="M 142.4,50 162.4,50" />
<path stroke="#000000" stroke-width="2" d="M 192.4,70" />
<path stroke="#000000" stroke-width="2" d="M 192.4,40 192.6,40 192.6,40.2 192.4,40.2 192.4,40" />
<path stroke="#000000" stroke-width="2" d="M 199.3,70" />
<path stroke="#000000" stroke-width="2" d="M 219.3,30 204,67" />
<path stroke="#000000" stroke-width="2" d="M 226,70" />
<path stroke="#000000" stroke-width="2" d="M 226,30 241.3,67" />
<path stroke="#000000" stroke-width="2" d="M 271.3,70" />
<path stroke="#000000" stroke-width="2" d="M 271.3,30 311.3,30" />
<path stroke="#000000" stroke-width="2" d="M 341.3,70" />
<path stroke="#000000" stroke-width="2" d="M 341.3,70 341.5,70 341.5,70.2 341.3,70.2 341.3,70" />
<path stroke="#000000" stroke-width="2" d="M 348.2,70" />
<path stroke="#000000" stroke-width="2" d="M 348.2,30 363.5,67" />
<path stroke="#000000" stroke-width="2" d="M 370.1,70" />
<path stroke="#000000" stroke-width="2" d="M 380.1,20 380.1,40 370.1,40" />
<path stroke="#000000" stroke-width="2" d="M 386.8,70" />
<path stroke="#000000" stroke-width="2" d="M 386.8,70 386.8,68.6 386.9,67.2 387.2,65.8 387.5,64.5 388,63.2 388.6,61.9 389.3,60.7 390.1,59.6 391,58.5 392,57.5 393,56.6 394.2,55.8 395.4,55.1 396.7,54.5 398,54 399.3,53.7 400.7,53.4 402.1,53.3 403.5,53.3 404.9,53.4 406.2,53.7 407.6,54 408.9,54.5 410.2,55.1 411.4,55.8 412.5,56.6 413.6,57.5 414.6,58.5 415.5,59.6 416.3,60.7 417,61.9 417.6,63.2 418,64.5 418.4,65.8 418.6,67.2 418.8,68.6" />
<path stroke="#000000" stroke-width="2" d="M 425.4,70" />
<path stroke="#000000" stroke-width="2" d="M 425.4,20 425.4,20.7 425.5,21.4 425.6,22.1 425.8,22.8 426,23.4 426.3,24 426.7,24.6 427.1,25.2 427.5,25.8 428,26.2 428.6,26.7 429.1,27.1 429.7,27.4 430.4,27.7 431,28 431.7,28.2 432.4,28.3 433.1,28.3 433.8,28.3 434.5,28.3 435.2,28.2 435.8,28 436.5,27.7 437.1,27.4 437.7,27.1 438.3,26.7 438.8,26.2 439.3,25.8 439.8,25.2 440.2,24.6 440.5,24 440.8,23.4 441.1,22.8 441.2,22.1 441.4,21.4 441.4,20.7" />
<path stroke="#000000" stroke-width="2" d="M 471.4,70" />
<path stroke="#000000" stroke-width="2" d="M 471.4,30 471.4,31.4 471.5,32.8 471.8,34.2 472.1,35.5 472.6,36.8 473.2,38.1 473.9,39.3 474.7,40.4 475.6,41.5 476.6,42.5 477.7,43.4 478.8,44.2 480,44.9 481.3,45.5 482.6,46 483.9,46.3 485.3,46.6 486.7,46.7 488.1,46.7 489.5,46.6 490.9,46.3 492.2,46 493.5,45.5 494.8,44.9 496,44.2 497.1,43.4 498.2,42.5 499.2,41.5 500.1,40.4 500.9,39.3 501.6,38.1 502.2,36.8 502.7,35.5 503,34.2 503.3,32.8 503.4,31.4" />
<path stroke="#000000" stroke-width="2" d="M 510.1,70" />
<path stroke="#000000" stroke-width="2" d="M 510.1,20 530.1,20 530.9,20 531.8,20.1 532.7,20.2 533.5,20.5 534.3,20.8 535.1,21.1 535.9,21.6 536.6,22.1 537.2,22.6 537.9,23.2 538.4,23.9 538.9,24.6 539.4,25.4 539.7,26.2 540,27 540.3,27.8 540.4,28.7 540.5,29.6 540.5,30.4 540.4,31.3 540.3,32.2 540,33 539.7,33.8 539.4,34.6 538.9,35.4 538.4,36.1 537.9,36.7 537.2,37.4 536.6,37.9 535.9,38.4 535.1,38.9 534.3,39.2 533.5,39.5 532.7,39.8 531.8,39.9 530.9,40" />
<path stroke="#000000" stroke-width="2" d="M 570.5,70" />
<path stroke="#000000" stroke-width="2" d="M 580.5,30 579.6,30 578.7,30.1 577.9,30.2 577,30.5 576.2,30.8 575.4,31.1 574.7,31.6 574,32.1 573.3,32.6 572.7,33.2 572.1,33.9 571.6,34.6 571.2,35.4 570.8,36.2 570.5,37 570.3,37.8 570.1,38.7 570.1,39.6 570.1,40.4 570.1,41.3 570.3,42.2 570.5,43 570.8,43.8 571.2,44.6 571.6,45.4 572.1,46.1 572.7,46.7 573.3,47.4 574,47.9 574.7,48.4 575.4,48.9 576.2,49.2 577,49.5 577.9,49.8 578.7,49.9 579.6,50 584.6,50 584.6,70" />
<path stroke="#000000" stroke-width="2" d="M 614.6,70" />
<path stroke="#000000" stroke-width="2" d="M 616.6,50 622,37.1 622.1,36.7 622.2,36.4 622.3,36.1 622.3,35.7 622.3,35.4 622.3,35 622.3,34.7 622.2,34.3 622.1,34 622,33.7 621.8,33.4 621.6,33.1 621.4,32.8 621.2,32.5 620.9,32.3 620.6,32.1 620.3,31.9 620,31.7 619.7,31.6 619.4,31.5 619,31.4 618.7,31.4 618.3,31.4 618,31.4 617.6,31.4 617.3,31.5 617,31.6 616.7,31.7 616.3,31.9 616,32.1 615.8,32.3 615.5,32.5 615.3,32.8 615.1,33.1 614.9,33.4 614.7,33.7 614.6,34 614.5,34.3 614.4,34.7 614.4,35 614.3,35.4 614.4,35.7 614.4,36.1 614.5,36.4 614.6,36.7 614.7,37.1 614.9,37.4 615.1,37.7 615.3,37.9 615.5,38.2 615.8,38.4 616,38.7 616.3,38.8 616.7,39 617,39.1 617.3,39.2 617.6,39.3 618,39.4 618.3,39.4 618.7,39.4 631.6,34" />
<path stroke="#000000" stroke-width="2" d="M 631.6,34 629.6,33.9 628,33.6 626.7,33.1 625.9,32.6 625.3,31.9 625,31.2 625,30.4 625.1,29.7 625.5,29 626,28.4 626.6,27.9 627.3,27.5 628,27.3 628.8,27.4 629.5,27.7 630.2,28.2 630.8,29.1 631.2,30.4 631.5,32 631.6,34 631.6,49" />
<path stroke="#000000" stroke-width="2" d="M 638.3,70" />
<path stroke="#000000" stroke-width="2" d="M 638.3,25" />
<path stroke="#000000" stroke-width="2" d="M 638.3,25 640.3,24.9 641.9,24.6 643.2,24.1 644.1,23.6 644.6,22.9 644.9,22.2 644.9,21.4 644.8,20.7 644.4,20 643.9,19.4 643.3,18.9 642.6,18.5 641.9,18.3 641.1,18.4 640.4,18.7 639.7,19.2 639.2,20.1 638.7,21.4 638.4,23 638.3,25 638.3,40 630.6,58.5 632.9,52.9 633.3,52.1 633.7,51.4 634.1,50.6 634.7,49.9 635.3,49.3 635.9,48.7 636.6,48.2 637.3,47.7 638.1,47.3 638.9,47 639.7,46.7 640.6,46.5" />
<path stroke="#000000" stroke-width="2" d="M 651.6,70" />
<path stroke="#000000" stroke-width="2" d="M 651.6,40 659.3,21.5 666.9,40" />
<path stroke="#000000" stroke-width="2" d="M 696.9,70" />
<path stroke="#000000" stroke-width="2" d="M 706.9,50 707.8,50 708.7,49.9 709.5,49.8 710.4,49.5 711.2,49.2 712,48.9 712.7,48.4 713.4,47.9 714.1,47.4 714.7,46.8 715.3,46.1 715.8,45.4 716.2,44.6 716.6,43.8 716.9,43 717.1,42.2 717.3,41.3 717.3,40.4 717.3,39.6 717.3,38.7 717.1,37.8 716.9,37 716.6,36.2 716.2,35.4 715.8,34.6 715.3,33.9 714.7,33.3 714.1,32.6 713.4,32.1 712.7,31.6 712,31.1 711.2,30.8 710.4,30.5 709.5,30.2 708.7,30.1 707.8,30 706.9,30 706,30.1 705.2,30.2 704.3,30.5 703.5,30.8 702.7,31.1 702,31.6 701.3,32.1 700.6,32.6 700,33.3 699.4,33.9 698.9,34.6 698.5,35.4 698.1,36.2 697.8,37 697.6,37.8 697.4,38.7 697.4,39.6 697.4,40.4 697.4,41.3 697.6,42.2 697.8,43 698.1,43.8 698.5,44.6 698.9,45.4 699.4,46.1 700,46.8 700.6,47.4 701.3,47.9 702,48.4 702.7,48.9 703.5,49.2 704.3,49.5 705.2,49.8 706,49.9 706.9,50 706.9,70 706.9,64 706.9,63.1 707,62.3 707.1,61.4 707.4,60.6 707.7,59.7 708,58.9 708.5,58.2 709,57.5 709.5,56.8 710.2,56.2 710.8,55.6 711.5,55.1 712.3,54.7 713.1,54.3 713.9,54 714.7,53.8 715.6,53.6 716.5,53.6" />
<path stroke="#000000" stroke-width="2" d="M 747.3,70" />
<path stroke="#000000" stroke-width="2" d="M 747.3,30 747.3,70 758.7,58.7" />
<path stroke="#000000" stroke-width="2" d="M 765.3,70" />
<path stroke="#000000" stroke-width="2" d="M 765.3,20 765.3,40 765.3,34 765.3,33.1 765.4,32.3 765.6,31.4 765.8,30.6 766.1,29.7 766.4,28.9 766.9,28.2 767.4,27.5 767.9,26.8 768.6,26.2 769.2,25.6 769.9,25.1 770.7,24.7 771.5,24.3 772.3,24 773.2,23.8 774,23.6 774.9,23.6" />
<path stroke="#000000" stroke-width="2" d="M 804.9,70" />
<path stroke="#000000" stroke-width="2" d="M 814.9,30 807.2,48.5 807.2,68.5 812.9,62.8" />
<path stroke="#000000" stroke-width="2" d="M 821.5,70" />
<path stroke="#000000" stroke-width="2" d="M 821.5,50 821.7,50 821.7,50.2 821.5,50.2 821.5,50" />
<path stroke="#000000" stroke-width="2" d="M 851.7,70" />
<path stroke="#000000" stroke-width="2" d="M 851.7,30 851.7,70 851.7,58 851.7,56.3 851.9,54.5 852.2,52.8 852.7,51.1 853.2,49.5 854,47.9 854.9,46.4 855.9,45 857,43.6 858.2,42.4 859.6,41.3 861,40.3 862.5,39.4 864.1,38.7 865.7,38.1 867.4,37.6 869.1,37.3 870.9,37.1" />
<path stroke="#000000" stroke-width="2" d="M 877.5,70" />
<path stroke="#000000" stroke-width="2" d="M 877.5,20 877.5,24 877.5,24.5 877.6,25 877.7,25.6 877.8,26.1 878,26.6 878.2,27 878.5,27.5 878.8,27.9 879.1,28.3 879.5,28.7 879.9,29 880.3,29.3 880.7,29.6 881.2,29.8 881.7,30 882.2,30.1 882.7,30.2 883.3,30.3 883.8,30.3 884.3,30.2 884.8,30.1 885.3,30 885.8,29.8 886.3,29.6 886.7,29.3 887.2,29 887.6,28.7 887.9,28.3 888.3,27.9 888.6,27.5 888.8,27 889.1,26.6 889.2,26.1 889.4,25.6 889.5,25 889.5,24.5 889.5,19.5 889.5,39.5" />
<path stroke="#000000" stroke-width="2" d="M 896.2,70" />
<path stroke="#000000" stroke-width="2" d="M 896.2,20 896.2,20.7 896.2,21.4 896.4,22.1 896.5,22.8 896.8,23.4 897.1,24 897.4,24.6 897.8,25.2 898.3,25.8 898.8,26.2 899.3,26.7 899.9,27.1 900.5,27.4 901.1,27.7 901.8,28 902.4,28.2 903.1,28.3 903.8,28.3 904.5,28.3 905.2,28.3 905.9,28.2 906.6,28 907.2,27.7 907.9,27.4 908.5,27.1 909,26.7 909.6,26.2 910.1,25.8 910.5,25.2 910.9,24.6 911.3,24 911.6,23.4 911.8,22.8 912,22.1 912.1,21.4 912.2,20.7" />
<path stroke="#000000" stroke-width="2" d="M 942.2,70" />
<path stroke="#000000" stroke-width="2" d="M 952.2,30 952.7,30 953.2,30 953.7,30.1 954.2,30.3 954.7,30.5 955.2,30.7 955.6,30.9 956.1,31.2 956.5,31.6 956.8,31.9 957.2,32.3 957.5,32.8 957.7,33.2 958,33.7 958.1,34.2 958.3,34.7 958.4,35.2 958.4,35.7 958.4,36.3 958.4,36.8 958.3,37.3 958.1,37.8 958,38.3 957.7,38.8 957.5,39.2 957.2,39.6 956.8,40 956.5,40.4 956.1,40.8 955.6,41.1 955.2,41.3 954.7,41.5 954.2,41.7 953.7,41.9 953.2,41.9 952.7,42 952.2,42 951.6,41.9 951.1,41.9 950.6,41.7 950.1,41.5 949.7,41.3 949.2,41.1 948.8,40.8 948.4,40.4 948,40 947.7,39.6 947.4,39.2 947.1,38.8 946.9,38.3 946.7,37.8 946.6,37.3 946.5,36.8 946.4,36.3 946.4,35.7 946.5,35.2 946.6,34.7 946.7,34.2 946.9,33.7 947.1,33.2 947.4,32.8 947.7,32.3 948,31.9 948.4,31.6 948.8,31.2 949.2,30.9 949.7,30.7 950.1,30.5 950.6,30.3 951.1,30.1 951.6,30 952.2,30 952.2,50 944.5,68.5 946.8,62.9 947.1,62.1 947.5,61.4 948,60.6 948.5,59.9 949.1,59.3 949.8,58.7 950.5,58.2 951.2,57.7 952,57.3 952.8,57 953.6,56.7 954.5,56.5" />
<path stroke="#000000" stroke-width="2" d="M 954.5,56.5 956.5,56.4 958.1,56.1 959.3,55.6 960.2,55.1 960.8,54.4 961.1,53.7 961.1,52.9 960.9,52.2 960.6,51.5 960.1,50.9 959.5,50.4 958.8,50 958,49.9 957.3,49.9 956.6,50.2 955.9,50.7 955.3,51.6 954.9,52.9 954.6,54.5 954.5,56.5 954.5,71.5" />
<path stroke="#000000" stroke-width="2" d="M 991.1,70" />
<path stroke="#000000" stroke-width="2" d="M 991.1,30 991.1,70 1002.4,58.7" />
<path stroke="#000000" stroke-width="2" d="M 1009.1,70" />
<path stroke="#000000" stroke-width="2" d="M 1009.1,50 1009.3,50 1009.3,50.2 1009.1,50.2 1009.1,50" />
<path stroke="#000000" stroke-width="2" d="M 1039.3,70" />
<path stroke="#000000" stroke-width="2" d="M 1039.3,30 1039.3,70 1039.3,58 1039.3,56.3 1039.5,54.5 1039.8,52.8 1040.2,51.1 1040.8,49.5 1041.5,47.9 1042.4,46.4 1043.4,45 1044.5,43.6 1045.8,42.4 1047.1,41.3 1048.5,40.3 1050,39.4 1051.6,38.7 1053.3,38.1 1055,37.6 1056.7,37.3 1058.4,37.1" />
<path stroke="#000000" stroke-width="2" d="M 1065.1,70" />
<path stroke="#000000" stroke-width="2" d="M 1065.1,50 1065.1,50.7 1065.1,51.4 1065.3,52.1 1065.4,52.8 1065.7,53.4 1066,54 1066.3,54.6 1066.7,55.2 1067.2,55.8 1067.7,56.2 1068.2,56.7 1068.8,57.1 1069.4,57.4 1070,57.7 1070.7,58 1071.3,58.2 1072,58.3 1072.7,58.3 1073.4,58.3 1074.1,58.3 1074.8,58.2 1075.5,58 1076.1,57.7 1076.8,57.4 1077.4,57.1 1077.9,56.7 1078.5,56.2 1079,55.8 1079.4,55.2 1079.8,54.6 1080.2,54 1080.5,53.4 1080.7,52.8 1080.9,52.1 1081,51.4 1081.1,50.7 1081.9,50.7 1082.8,50.8 1083.7,50.9 1084.5,51.2 1085.3,51.4 1086.1,51.8 1086.9,52.3 1087.6,52.8 1088.3,53.3 1088.9,53.9 1089.4,54.6 1089.9,55.3 1090.4,56.1 1090.7,56.9 1091,57.7 1091.3,58.5 1091.4,59.4 1091.5,60.3 1091.5,61.1 1091.4,62 1091.3,62.9 1091,63.7 1090.7,64.5 1090.4,65.3 1089.9,66.1 1089.4,66.8 1088.9,67.4 1088.3,68.1 1087.6,68.6 1086.9,69.1 1086.1,69.6 1085.3,69.9 1084.5,70.2 1083.7,70.5 1082.8,70.6 1081.9,70.7" />
<path stroke="#000000" stroke-width="2" d="M 1121.5,70" />
</svg>