<svg xmlns="http://www.w3.org/2000/svg" width="487.60511536261566" height="108.47759065022574" style="fill:none; stroke-linecap:round;">
    <rect width="100%" height="100%" fill="#FFFFFF" />
<path stroke="#000000" stroke-width="2" d="M 550,75" />
<path stroke="#000000" stroke-width="2" d="M 40,30 40,70 20,70" />
<path stroke="#000000" stroke-width="2" d="M 46.7,70" />
<path stroke="#000000" stroke-width="2" d="M 46.7,55" />
<path stroke="#000000" stroke-width="2" d="M 46.7,55 48.7,54.9 50.3,54.6 51.5,54.1 52.4,53.6 53,52.9 53.3,52.2 53.3,51.4 53.1,50.7 52.8,50 52.3,49.4 51.7,48.9 51,48.5 50.2,48.3 49.5,48.4 48.8,48.7 48.1,49.2 47.5,50.1 47.1,51.4 46.8,53 46.7,55 46.7,70 39,88.5" />
<path stroke="#000000" stroke-width="2" d="M 83.3,70" />
<path stroke="#000000" stroke-width="2" d="M 83.3,70 94.8,42.3" />
<path stroke="#000000" stroke-width="2" d="M 94.8,42.3 98.9,42.1 102.1,41.5 104.6,40.6 106.3,39.4 107.5,38.1 108,36.6 108.1,35.1 107.8,33.6 107.1,32.3 106.1,31 104.8,30 103.4,29.3 102,29 100.5,29.1 99,29.6 97.7,30.8 96.5,32.5 95.6,35 95,38.2 94.8,42.3 94.8,72.3" />
<path stroke="#000000" stroke-width="2" d="M 138.1,70" />
<path stroke="#000000" stroke-width="2" d="M 138.1,30 153.4,67" />
<path stroke="#000000" stroke-width="2" d="M 160.1,70" />
<path stroke="#000000" stroke-width="2" d="M 160.1,50 170,59.9 160.1,69.8" />
<path stroke="#000000" stroke-width="2" d="M 200,70" />
<path stroke="#000000" stroke-width="2" d="M 220,30 204.7,67" />
<path stroke="#000000" stroke-width="2" d="M 226.7,70" />
<path stroke="#000000" stroke-width="2" d="M 226.7,50 226.9,50 226.9,50.2 226.7,50.2 226.7,50" />
<path stroke="#000000" stroke-width="2" d="M 256.9,70" />
<path stroke="#000000" stroke-width="2" d="M 256.9,70 257.1,70 257.1,70.2 256.9,70.2 256.9,70" />
<path stroke="#000000" stroke-width="2" d="M 263.7,70" />
<path stroke="#000000" stroke-width="2" d="M 283.7,30 282,30 280.2,30.2 278.5,30.5 276.8,30.9 275.2,31.5 273.6,32.2 272.1,33.1 270.7,34.1 269.3,35.2 268.1,36.5 267,37.8 266,39.2 265.1,40.7 264.4,42.3 263.8,44 263.3,45.7 263,47.4 262.9,49.1 262.9,50.9 263,52.6 263.3,54.3 263.8,56 264.4,57.6 265.1,59.2 266,60.7 267,62.2 268.1,63.5 269.3,64.7 270.7,65.8 272.1,66.8 273.6,67.7 275.2,68.5 276.8,69.1 278.5,69.5 280.2,69.8 282,70" />
<path stroke="#000000" stroke-width="2" d="M 282,50" />
<path stroke="#000000" stroke-width="2" d="M 250,50 290,50" />
<path stroke="#000000" stroke-width="2" d="M 296.6,70" />
<path stroke="#000000" stroke-width="2" d="M 296.6,20 296.6,20.7 296.7,21.4 296.8,22.1 297,22.8 297.2,23.4 297.5,24 297.9,24.6 298.3,25.2 298.7,25.8 299.2,26.2 299.8,26.7 300.3,27.1 300.9,27.4 301.6,27.7 302.2,28 302.9,28.2 303.6,28.3 304.3,28.3 305,28.3 305.7,28.3 306.4,28.2 307,28 307.7,27.7 308.3,27.4 308.9,27.1 309.5,26.7 310,26.2 310.5,25.8 311,25.2 311.4,24.6 311.7,24 312,23.4 312.3,22.8 312.4,22.1 312.6,21.4 312.6,20.7" />
<path stroke="#000000" stroke-width="2" d="M 342.6,70" />
<path stroke="#000000" stroke-width="2" d="M 344.6,50 350,37.1 350.1,36.7 350.2,36.4 350.3,36.1 350.3,35.7 350.4,35.4 350.3,35 350.3,34.7 350.2,34.3 350.1,34 350,33.7 349.8,33.4 349.6,33.1 349.4,32.8 349.2,32.5 348.9,32.3 348.7,32.1 348.4,31.9 348,31.7 347.7,31.6 347.4,31.5 347.1,31.4 346.7,31.4 346.4,31.4 346,31.4 345.7,31.4 345.3,31.5 345,31.6 344.7,31.7 344.4,31.9 344.1,32.1 343.8,32.3 343.5,32.5 343.3,32.8 343.1,33.1 342.9,33.4 342.7,33.7 342.6,34 342.5,34.3 342.4,34.7 342.4,35 342.4,35.4 342.4,35.7 342.4,36.1 342.5,36.4 342.6,36.7 342.7,37.1 342.9,37.4 343.1,37.7 343.3,37.9 343.5,38.2 343.8,38.4 344.1,38.7 344.4,38.8 344.7,39 345,39.1 345.3,39.2 345.7,39.3 346,39.4 346.4,39.4 346.7,39.4 359.6,34 359.6,33.3 359.7,32.6 359.8,31.9 360,31.2 360.2,30.6 360.5,30 360.9,29.4 361.3,28.8 361.7,28.2 362.2,27.8 362.8,27.3 363.3,26.9 363.9,26.6 364.6,26.3 365.2,26 365.9,25.8 366.6,25.7 367.3,25.7 368,25.7 368.7,25.7 369.4,25.8 370,26 370.7,26.3 371.3,26.6 371.9,26.9 372.5,27.3 373,27.8 373.5,28.2 374,28.8 374.4,29.4 374.7,30 375,30.6 375.3,31.2 375.4,31.9 375.6,32.6 375.6,33.3" />
<path stroke="#000000" stroke-width="2" d="M 382.3,70" />
<path stroke="#000000" stroke-width="2" d="M 382.3,50 402.3,50" />
<path stroke="#000000" stroke-width="2" d="M 409,70" />
<path stroke="#000000" stroke-width="2" d="M 409,50 416.6,68.5" />
<path stroke="#000000" stroke-width="2" d="M 423.3,70" />
<path stroke="#000000" stroke-width="2" d="M 423.3,30 423.5,30 423.5,30.2 423.3,30.2 423.3,30" />
<path stroke="#000000" stroke-width="2" d="M 453.5,70" />
<path stroke="#000000" stroke-width="2" d="M 463.5,30 462.6,30 461.7,30.1 460.9,30.2 460,30.5 459.2,30.8 458.4,31.1 457.7,31.6 457,32.1 456.3,32.6 455.7,33.2 455.1,33.9 454.6,34.6 454.2,35.4 453.8,36.2 453.5,37 453.3,37.8 453.1,38.7 453.1,39.6 453.1,40.4 453.1,41.3 453.3,42.2 453.5,43 453.8,43.8 454.2,44.6 454.6,45.4 455.1,46.1 455.7,46.7 456.3,47.4 457,47.9 457.7,48.4 458.4,48.9 459.2,49.2 460,49.5 460.9,49.8 461.7,49.9 462.6,50 467.6,50 467.6,70" />
<path stroke="#000000" stroke-width="2" d="M 497.6,70" />
</svg>