<svg xmlns="http://www.w3.org/2000/svg" width="521.8506127545585" height="103.47759065022574" style="fill:none; stroke-linecap:round;">
    <rect width="100%" height="100%" fill="#FFFFFF" />
<path stroke="#000000" stroke-width="2" d="M 550,75" />
<path stroke="#000000" stroke-width="2" d="M 20,40 20.2,40 20.2,40.2 20,40.2 20,40" />
<path stroke="#000000" stroke-width="2" d="M 26.9,70" />
<path stroke="#000000" stroke-width="2" d="M 38.9,30 39.9,30 41,30.1 42,30.3 43,30.5 44,30.9 44.9,31.3 45.8,31.9 46.7,32.5 47.5,33.1 48.2,33.9 48.9,34.7 49.5,35.5 50,36.4 50.5,37.4 50.8,38.4 51.1,39.4 51.3,40.4 51.4,41.5 51.4,42.5 51.3,43.6 51.1,44.6 50.8,45.6 50.5,46.6 50,47.5 49.5,48.4 48.9,49.3 48.2,50.1 47.5,50.8 46.7,51.5 45.8,52.1 44.9,52.6 44,53.1 43,53.4 42,53.7 41,53.9 39.9,54 38.9,54 37.8,53.9 36.8,53.7 35.8,53.4 34.8,53.1 33.8,52.6 32.9,52.1 32.1,51.5 31.3,50.8 30.5,50.1 29.9,49.3 29.3,48.4 28.7,47.5 28.3,46.6 27.9,45.6 27.7,44.6 27.5,43.6 27.4,42.5 27.4,41.5 27.5,40.4 27.7,39.4 27.9,38.4 28.3,37.4 28.7,36.4 29.3,35.5 29.9,34.7 30.5,33.9 31.3,33.1 32.1,32.5 32.9,31.9 33.8,31.3 34.8,30.9 35.8,30.5 36.8,30.3 37.8,30.1 38.9,30 46.9,30" />
<path stroke="#000000" stroke-width="2" d="M 46.9,30 48.6,30.6 50.2,31.3 51.7,32.1 53.1,32.8 54.4,33.7 55.6,34.6 56.7,35.5 57.7,36.5 58.6,37.5 59.4,38.5 60.1,39.6 60.7,40.7 61.2,41.8 61.7,42.9 62.1,44.1 62.4,45.2 62.6,46.4 62.7,47.6 62.8,48.8 62.9,50" />
<path stroke="#000000" stroke-width="2" d="M 69.5,70" />
<path stroke="#000000" stroke-width="2" d="M 69.5,50 69.5,70 69.5,70.7 69.6,71.4 69.7,72.1 69.9,72.8 70.1,73.4 70.4,74 70.8,74.6 71.2,75.2 71.6,75.8 72.1,76.2 72.7,76.7 73.2,77.1 73.8,77.4 74.5,77.7 75.1,78 75.8,78.2 76.5,78.3 77.2,78.3 77.9,78.3 78.6,78.3 79.3,78.2 79.9,78 80.6,77.7 81.2,77.4 81.8,77.1 82.4,76.7 82.9,76.2 83.4,75.8 83.9,75.2 84.3,74.6 84.6,74 84.9,73.4 85.2,72.8 85.3,72.1 85.5,71.4 85.5,70.7" />
<path stroke="#000000" stroke-width="2" d="M 92.2,70" />
<path stroke="#000000" stroke-width="2" d="M 92.2,20 99.8,38.5" />
<path stroke="#000000" stroke-width="2" d="M 129.8,70" />
<path stroke="#000000" stroke-width="2" d="M 129.8,30 129.8,50 139.8,50" />
<path stroke="#000000" stroke-width="2" d="M 139.8,50 141.9,49.9 143.5,49.6 144.7,49.1 145.6,48.6 146.2,47.9 146.5,47.2 146.5,46.4 146.3,45.7 146,45 145.5,44.4 144.9,43.9 144.2,43.5 143.4,43.3 142.7,43.4 141.9,43.7 141.3,44.2 140.7,45.1 140.2,46.4 139.9,48 139.8,50 139.8,65 159.8,65 152.2,83.5" />
<path stroke="#000000" stroke-width="2" d="M 189.8,70" />
<path stroke="#000000" stroke-width="2" d="M 191.8,50 197.2,37.1 197.3,36.7 197.4,36.4 197.5,36.1 197.6,35.7 197.6,35.4 197.6,35 197.5,34.7 197.4,34.3 197.3,34 197.2,33.7 197,33.4 196.8,33.1 196.6,32.8 196.4,32.5 196.1,32.3 195.9,32.1 195.6,31.9 195.3,31.7 194.9,31.6 194.6,31.5 194.3,31.4 193.9,31.4 193.6,31.4 193.2,31.4 192.9,31.4 192.5,31.5 192.2,31.6 191.9,31.7 191.6,31.9 191.3,32.1 191,32.3 190.7,32.5 190.5,32.8 190.3,33.1 190.1,33.4 189.9,33.7 189.8,34 189.7,34.3 189.6,34.7 189.6,35 189.6,35.4 189.6,35.7 189.6,36.1 189.7,36.4 189.8,36.7 189.9,37.1 190.1,37.4 190.3,37.7 190.5,37.9 190.7,38.2 191,38.4 191.3,38.7 191.6,38.8 191.9,39 192.2,39.1 192.5,39.2 192.9,39.3 193.2,39.4 193.6,39.4 193.9,39.4 206.9,34 214.5,52.5 222.2,34 242.2,34" />
<path stroke="#000000" stroke-width="2" d="M 272.2,70" />
<path stroke="#000000" stroke-width="2" d="M 292.2,70 293.9,70 295.6,69.8 297.4,69.5 299,69.1 300.7,68.5 302.3,67.8 303.8,66.9 305.2,65.9 306.5,64.8 307.8,63.5 308.9,62.2 309.9,60.8 310.8,59.3 311.5,57.7 312.1,56 312.6,54.3 312.9,52.6 313,50.9 313,49.1 312.9,47.4 312.6,45.7 312.1,44 311.5,42.4 310.8,40.8 309.9,39.3 308.9,37.8 307.8,36.5 306.5,35.3 305.2,34.2 303.8,33.2 302.3,32.3 300.7,31.5 299,30.9 297.4,30.5 295.6,30.2 293.9,30 292.2,30 290.4,30.2 288.7,30.5 287,30.9 285.4,31.5 283.8,32.3 282.3,33.2 280.9,34.2 279.5,35.3 278.3,36.5 277.2,37.8 276.2,39.3 275.3,40.8 274.6,42.4 274,44 273.5,45.7 273.2,47.4 273.1,49.1 273.1,50.9 273.2,52.6 273.5,54.3 274,56 274.6,57.7 275.3,59.3 276.2,60.8 277.2,62.2 278.3,63.5 279.5,64.8 280.9,65.9 282.3,66.9 283.8,67.8 285.4,68.5 287,69.1 288.7,69.5 290.4,69.8 292.2,70" />
<path stroke="#000000" stroke-width="2" d="M 319.7,70" />
<path stroke="#000000" stroke-width="2" d="M 329.7,20 322,38.5" />
<path stroke="#000000" stroke-width="2" d="M 359.7,70" />
<path stroke="#000000" stroke-width="2" d="M 379.7,30 379.7,70 359.7,70" />
<path stroke="#000000" stroke-width="2" d="M 386.3,70" />
<path stroke="#000000" stroke-width="2" d="M 386.3,50 406.3,50" />
<path stroke="#000000" stroke-width="2" d="M 413,70" />
<path stroke="#000000" stroke-width="2" d="M 413,30 413.2,30 413.2,30.2 413,30.2 413,30" />
<path stroke="#000000" stroke-width="2" d="M 443.2,70" />
<path stroke="#000000" stroke-width="2" d="M 443.2,70 443.2,68.6 443.3,67.2 443.6,65.8 443.9,64.5 444.4,63.2 445,61.9 445.7,60.7 446.5,59.6 447.4,58.5 448.4,57.5 449.5,56.6 450.6,55.8 451.8,55.1 453.1,54.5 454.4,54 455.7,53.7 457.1,53.4 458.5,53.3 459.9,53.3 461.3,53.4 462.7,53.7 464,54 465.3,54.5 466.6,55.1 467.8,55.8 468.9,56.6 470,57.5 471,58.5 471.9,59.6 472.7,60.7 473.4,61.9 474,63.2 474.5,64.5 474.8,65.8 475.1,67.2 475.2,68.6" />
<path stroke="#000000" stroke-width="2" d="M 481.9,70" />
<path stroke="#000000" stroke-width="2" d="M 481.9,20 501.9,20 494.2,38.5" />
<path stroke="#000000" stroke-width="2" d="M 531.9,70" />
</svg>