<svg xmlns="http://www.w3.org/2000/svg" width="1235.5928728868307" height="109.79898987322333" style="fill:none; stroke-linecap:round;">
    <rect width="100%" height="100%" fill="#FFFFFF" />
<path stroke="#000000" stroke-width="2" d="M 550,75" />
<path stroke="#000000" stroke-width="2" d="M 20,35" />
<path stroke="#000000" stroke-width="2" d="M 20,35 22,34.9 23.6,34.6 24.9,34.1 25.8,33.6 26.3,32.9 26.6,32.2 26.7,31.4 26.5,30.7 26.1,30 25.6,29.4 25,28.9 24.3,28.5 23.6,28.3 22.8,28.4 22.1,28.7 21.4,29.2 20.9,30.1 20.4,31.4 20.1,33 20,35 20,50 10.1,59.9 20,69.8" />
<path stroke="#000000" stroke-width="2" d="M 33.3,70" />
<path stroke="#000000" stroke-width="2" d="M 33.3,20 33.5,20 33.5,20.2 33.3,20.2 33.3,20" />
<path stroke="#000000" stroke-width="2" d="M 63.5,70" />
<path stroke="#000000" stroke-width="2" d="M 63.5,30 78.8,67 94.1,30" />
<path stroke="#000000" stroke-width="2" d="M 100.8,70" />
<path stroke="#000000" stroke-width="2" d="M 100.8,50 100.8,70 106.5,64.3" />
<path stroke="#000000" stroke-width="2" d="M 113.1,70" />
<path stroke="#000000" stroke-width="2" d="M 113.1,20 114,20 114.9,20.1 115.7,20.2 116.6,20.5 117.4,20.8 118.2,21.1 118.9,21.6 119.6,22.1 120.3,22.6 120.9,23.2 121.5,23.9 122,24.6 122.4,25.4 122.8,26.2 123.1,27 123.3,27.8 123.5,28.7 123.6,29.6 123.6,30.4 123.5,31.3 123.3,32.2 123.1,33 122.8,33.8 122.4,34.6 122,35.4 121.5,36.1 120.9,36.7 120.3,37.4 119.6,37.9 118.9,38.4 118.2,38.9 117.4,39.2 116.6,39.5 115.7,39.8 114.9,39.9 114,40" />
<path stroke="#000000" stroke-width="2" d="M 153.6,70" />
<path stroke="#000000" stroke-width="2" d="M 173.6,70 175.3,70 177,69.8 178.8,69.5 180.4,69.1 182.1,68.5 183.7,67.8 185.2,66.9 186.6,65.9 187.9,64.8 189.2,63.5 190.3,62.2 191.3,60.8 192.2,59.3 192.9,57.7 193.5,56 194,54.3 194.3,52.6 194.4,50.9 194.4,49.1 194.3,47.4 194,45.7 193.5,44 192.9,42.4 192.2,40.8 191.3,39.3 190.3,37.8 189.2,36.5 187.9,35.3 186.6,34.2 185.2,33.2 183.7,32.3 182.1,31.5 180.4,30.9 178.8,30.5 177,30.2 175.3,30 173.6,30 171.8,30.2 170.1,30.5 168.4,30.9 166.8,31.5 165.2,32.3 163.7,33.2 162.2,34.2 160.9,35.3 159.7,36.5 158.6,37.8 157.6,39.3 156.7,40.8 155.9,42.4 155.4,44 154.9,45.7 154.6,47.4 154.4,49.1 154.4,50.9 154.6,52.6 154.9,54.3 155.4,56 155.9,57.7 156.7,59.3 157.6,60.8 158.6,62.2 159.7,63.5 160.9,64.8 162.2,65.9 163.7,66.9 165.2,67.8 166.8,68.5 168.4,69.1 170.1,69.5 171.8,69.8 173.6,70" />
<path stroke="#000000" stroke-width="2" d="M 201.1,70" />
<path stroke="#000000" stroke-width="2" d="M 211.1,20 203.4,38.5" />
<path stroke="#000000" stroke-width="2" d="M 241.1,70" />
<path stroke="#000000" stroke-width="2" d="M 241.1,35" />
<path stroke="#000000" stroke-width="2" d="M 241.1,35 243.1,34.9 244.7,34.6 245.9,34.1 246.8,33.6 247.4,32.9 247.7,32.2 247.7,31.4 247.6,30.7 247.2,30 246.7,29.4 246.1,28.9 245.4,28.5 244.7,28.3 243.9,28.4 243.2,28.7 242.5,29.2 241.9,30.1 241.5,31.4 241.2,33 241.1,35 241.1,50 231.2,59.9 241.1,69.8" />
<path stroke="#000000" stroke-width="2" d="M 254.4,70" />
<path stroke="#000000" stroke-width="2" d="M 254.4,20 254.6,20 254.6,20.2 254.4,20.2 254.4,20" />
<path stroke="#000000" stroke-width="2" d="M 284.6,70" />
<path stroke="#000000" stroke-width="2" d="M 284.6,30 284.6,70 295.9,58.7" />
<path stroke="#000000" stroke-width="2" d="M 302.6,70" />
<path stroke="#000000" stroke-width="2" d="M 302.6,50 306.4,59.2" />
<path stroke="#000000" stroke-width="2" d="M 306.4,59.2 308.3,61.4 309.6,63.3 310.4,65 310.7,66.4 310.6,67.7 310.2,68.7 309.5,69.5 308.6,70 307.5,70.4 306.4,70.5 305.3,70.4 304.2,70 303.3,69.5 302.6,68.7 302.2,67.7 302.1,66.4 302.4,65 303.2,63.3 304.5,61.4 306.4,59.2 310.2,50 310.2,50.7 310.3,51.4 310.4,52.1 310.6,52.8 310.8,53.4 311.1,54 311.5,54.6 311.9,55.2 312.3,55.8 312.8,56.2 313.3,56.7 313.9,57.1 314.5,57.4 315.2,57.7 315.8,58 316.5,58.2 317.2,58.3 317.9,58.3 318.6,58.3 319.3,58.3 320,58.2 320.6,58 321.3,57.7 321.9,57.4 322.5,57.1 323.1,56.7 323.6,56.2 324.1,55.8 324.6,55.2 325,54.6 325.3,54 325.6,53.4 325.8,52.8 326,52.1 326.2,51.4 326.2,50.7 327.1,50.7 328,50.8 328.8,50.9 329.7,51.2 330.5,51.4 331.3,51.8 332,52.3 332.7,52.8 333.4,53.3 334,53.9 334.6,54.6 335.1,55.3 335.5,56.1 335.9,56.9 336.2,57.7 336.4,58.5 336.6,59.4 336.6,60.3 336.6,61.1 336.6,62 336.4,62.9 336.2,63.7 335.9,64.5 335.5,65.3 335.1,66.1 334.6,66.8 334,67.4 333.4,68.1 332.7,68.6 332,69.1 331.3,69.6 330.5,69.9 329.7,70.2 328.8,70.5 328,70.6 327.1,70.7" />
<path stroke="#000000" stroke-width="2" d="M 366.6,70" />
<path stroke="#000000" stroke-width="2" d="M 366.6,35" />
<path stroke="#000000" stroke-width="2" d="M 366.6,35 368.7,34.9 370.3,34.6 371.5,34.1 372.4,33.6 373,32.9 373.3,32.2 373.3,31.4 373.1,30.7 372.8,30 372.3,29.4 371.7,28.9 371,28.5 370.2,28.3 369.5,28.4 368.7,28.7 368.1,29.2 367.5,30.1 367,31.4 366.7,33 366.6,35 366.6,50 356.7,59.9 366.6,69.8 366.6,89.8 366.6,83.8 366.6,82.9 366.7,82.1 366.9,81.2 367.1,80.4 367.4,79.5 367.8,78.7 368.2,78 368.7,77.3 369.3,76.6 369.9,76 370.5,75.4 371.3,74.9 372,74.5 372.8,74.1 373.6,73.8 374.5,73.6 375.3,73.4 376.2,73.4" />
<path stroke="#000000" stroke-width="2" d="M 382.9,70" />
<path stroke="#000000" stroke-width="2" d="M 382.9,50 386.7,59.2" />
<path stroke="#000000" stroke-width="2" d="M 386.7,59.2 388.6,61.4 389.9,63.3 390.7,65 391,66.4 390.9,67.7 390.5,68.7 389.8,69.5 388.8,70 387.8,70.4 386.7,70.5 385.6,70.4 384.5,70 383.6,69.5 382.9,68.7 382.5,67.7 382.4,66.4 382.7,65 383.4,63.3 384.8,61.4 386.7,59.2 390.5,50 391.4,50 392.3,50.1 393.1,50.2 394,50.5 394.8,50.8 395.6,51.1 396.3,51.6 397,52.1 397.7,52.6 398.3,53.2 398.9,53.9 399.4,54.6 399.8,55.4 400.2,56.2 400.5,57 400.7,57.8 400.9,58.7 400.9,59.6 400.9,60.4 400.9,61.3 400.7,62.2 400.5,63 400.2,63.8 399.8,64.6 399.4,65.4 398.9,66.1 398.3,66.7 397.7,67.4 397,67.9 396.3,68.4 395.6,68.9 394.8,69.2 394,69.5 393.1,69.8 392.3,69.9 391.4,70" />
<path stroke="#000000" stroke-width="2" d="M 430.9,70" />
<path stroke="#000000" stroke-width="2" d="M 430.9,70 431.1,70 431.1,70.2 430.9,70.2 430.9,70" />
<path stroke="#000000" stroke-width="2" d="M 437.8,70" />
<path stroke="#000000" stroke-width="2" d="M 437.8,30 437.8,31.4 437.9,32.8 438.2,34.2 438.5,35.5 439,36.8 439.6,38.1 440.3,39.3 441.1,40.4 442,41.5 443,42.5 444.1,43.4 445.2,44.2 446.4,44.9 447.7,45.5 449,46 450.3,46.3 451.7,46.6 453.1,46.7 454.5,46.7 455.9,46.6 457.3,46.3 458.6,46 459.9,45.5 461.2,44.9 462.4,44.2 463.5,43.4 464.6,42.5 465.6,41.5 466.5,40.4 467.3,39.3 468,38.1 468.6,36.8 469.1,35.5 469.4,34.2 469.7,32.8 469.8,31.4" />
<path stroke="#000000" stroke-width="2" d="M 476.4,70" />
<path stroke="#000000" stroke-width="2" d="M 476.4,20 496.4,20 497.3,20 498.2,20.1 499,20.2 499.9,20.5 500.7,20.8 501.5,21.1 502.3,21.6 503,22.1 503.6,22.6 504.3,23.2 504.8,23.9 505.3,24.6 505.7,25.4 506.1,26.2 506.4,27 506.6,27.8 506.8,28.7 506.9,29.6 506.9,30.4 506.8,31.3 506.6,32.2 506.4,33 506.1,33.8 505.7,34.6 505.3,35.4 504.8,36.1 504.3,36.7 503.6,37.4 503,37.9 502.3,38.4 501.5,38.9 500.7,39.2 499.9,39.5 499,39.8 498.2,39.9 497.3,40" />
<path stroke="#000000" stroke-width="2" d="M 536.9,70" />
<path stroke="#000000" stroke-width="2" d="M 536.9,30 536.9,50 546.9,50 566.9,50" />
<path stroke="#000000" stroke-width="2" d="M 596.9,70" />
<path stroke="#000000" stroke-width="2" d="M 598.9,50 604.2,37.1 604.4,36.7 604.5,36.4 604.5,36.1 604.6,35.7 604.6,35.4 604.6,35 604.5,34.7 604.5,34.3 604.4,34 604.2,33.7 604.1,33.4 603.9,33.1 603.7,32.8 603.4,32.5 603.2,32.3 602.9,32.1 602.6,31.9 602.3,31.7 602,31.6 601.6,31.5 601.3,31.4 601,31.4 600.6,31.4 600.3,31.4 599.9,31.4 599.6,31.5 599.2,31.6 598.9,31.7 598.6,31.9 598.3,32.1 598,32.3 597.8,32.5 597.5,32.8 597.3,33.1 597.1,33.4 597,33.7 596.8,34 596.7,34.3 596.7,34.7 596.6,35 596.6,35.4 596.6,35.7 596.7,36.1 596.7,36.4 596.8,36.7 597,37.1 597.1,37.4 597.3,37.7 597.5,37.9 597.8,38.2 598,38.4 598.3,38.7 598.6,38.8 598.9,39 599.2,39.1 599.6,39.2 599.9,39.3 600.3,39.4 600.6,39.4 601,39.4 613.9,34 606.2,52.5" />
<path stroke="#000000" stroke-width="2" d="M 620.6,70" />
<path stroke="#000000" stroke-width="2" d="M 620.6,20 620.6,40 620.6,34 620.6,33.1 620.6,32.3 620.8,31.4 621,30.6 621.3,29.7 621.7,28.9 622.1,28.2 622.6,27.5 623.2,26.8 623.8,26.2 624.5,25.6 625.2,25.1 625.9,24.7 626.7,24.3 627.5,24 628.4,23.8 629.2,23.6 630.1,23.6 650.1,23.6" />
<path stroke="#000000" stroke-width="2" d="M 656.8,70" />
<path stroke="#000000" stroke-width="2" d="M 656.8,20 656.8,20.7 656.8,21.4 657,22.1 657.1,22.8 657.4,23.4 657.7,24 658,24.6 658.4,25.2 658.9,25.8 659.4,26.2 659.9,26.7 660.5,27.1 661.1,27.4 661.7,27.7 662.4,28 663,28.2 663.7,28.3 664.4,28.3 665.1,28.3 665.8,28.3 666.5,28.2 667.2,28 667.8,27.7 668.5,27.4 669.1,27.1 669.6,26.7 670.2,26.2 670.7,25.8 671.1,25.2 671.5,24.6 671.9,24 672.2,23.4 672.4,22.8 672.6,22.1 672.7,21.4 672.8,20.7" />
<path stroke="#000000" stroke-width="2" d="M 702.8,70" />
<path stroke="#000000" stroke-width="2" d="M 702.8,30 742.8,30" />
<path stroke="#000000" stroke-width="2" d="M 749.4,70" />
<path stroke="#000000" stroke-width="2" d="M 769.4,30 754.1,67" />
<path stroke="#000000" stroke-width="2" d="M 799.4,70" />
<path stroke="#000000" stroke-width="2" d="M 799.4,70 799.6,70 799.6,70.2 799.4,70.2 799.4,70" />
<path stroke="#000000" stroke-width="2" d="M 829.6,70" />
<path stroke="#000000" stroke-width="2" d="M 829.6,30 829.6,70 829.6,58 829.6,56.3 829.8,54.5 830.1,52.8 830.5,51.1 831.1,49.5 831.9,47.9 832.7,46.4 833.7,45 834.9,43.6 836.1,42.4 837.4,41.3 838.9,40.3 840.4,39.4 842,38.7 843.6,38.1 845.3,37.6 847,37.3 848.7,37.1" />
<path stroke="#000000" stroke-width="2" d="M 855.4,70" />
<path stroke="#000000" stroke-width="2" d="M 855.4,20 855.4,20.7 855.5,21.4 855.6,22.1 855.8,22.8 856,23.4 856.3,24 856.6,24.6 857,25.2 857.5,25.8 858,26.2 858.5,26.7 859.1,27.1 859.7,27.4 860.3,27.7 861,28 861.7,28.2 862.3,28.3 863,28.3 863.7,28.3 864.4,28.3 865.1,28.2 865.8,28 866.5,27.7 867.1,27.4 867.7,27.1 868.3,26.7 868.8,26.2 869.3,25.8 869.7,25.2 870.1,24.6 870.5,24 870.8,23.4 871,22.8 871.2,22.1 871.3,21.4 871.4,20.7" />
<path stroke="#000000" stroke-width="2" d="M 878.1,70" />
<path stroke="#000000" stroke-width="2" d="M 883.1,50 878.1,50 878.1,70 870.4,88.5" />
<path stroke="#000000" stroke-width="2" d="M 889.7,70" />
<path stroke="#000000" stroke-width="2" d="M 889.7,20 909.7,20 902.1,38.5 902.1,39.2 902.1,39.9 902.2,40.6 902.4,41.2 902.7,41.9 903,42.5 903.3,43.1 903.7,43.7 904.2,44.2 904.7,44.7 905.2,45.2 905.8,45.6 906.4,45.9 907,46.2 907.7,46.5 908.3,46.6 909,46.8 909.7,46.8 910.4,46.8 911.1,46.8 911.8,46.6 912.5,46.5 913.1,46.2 913.8,45.9 914.4,45.6 914.9,45.2 915.5,44.7 916,44.2 916.4,43.7 916.8,43.1 917.2,42.5 917.4,41.9 917.7,41.2 917.9,40.6 918,39.9 918,39.2" />
<path stroke="#000000" stroke-width="2" d="M 924.7,70" />
<path stroke="#000000" stroke-width="2" d="M 924.7,30 924.9,30 924.9,30.2 924.7,30.2 924.7,30" />
<path stroke="#000000" stroke-width="2" d="M 954.9,70" />
<path stroke="#000000" stroke-width="2" d="M 954.9,70" />
<path stroke="#000000" stroke-width="2" d="M 954.9,70 956,70 957,70.2 957.9,70.4 958.6,70.7 959.1,71 959.6,71.5 959.9,71.9 960.1,72.5 960.2,73.1 960.2,73.8 960,74.4 959.8,75.2 959.5,76 959.1,76.8 958.6,77.6 958,78.4 957.3,79.3 956.6,80.2 955.8,81.1 954.9,82" />
<path stroke="#000000" stroke-width="2" d="M 990.2,70" />
<path stroke="#000000" stroke-width="2" d="M 990.2,70 990.4,70 990.4,70.2 990.2,70.2 990.2,70" />
<path stroke="#000000" stroke-width="2" d="M 997.1,70" />
<path stroke="#000000" stroke-width="2" d="M 999.1,50 1004.4,37.1 1004.5,36.7 1004.6,36.4 1004.7,36.1 1004.8,35.7 1004.8,35.4 1004.8,35 1004.7,34.7 1004.6,34.3 1004.5,34 1004.4,33.7 1004.3,33.4 1004.1,33.1 1003.9,32.8 1003.6,32.5 1003.4,32.3 1003.1,32.1 1002.8,31.9 1002.5,31.7 1002.2,31.6 1001.8,31.5 1001.5,31.4 1001.1,31.4 1000.8,31.4 1000.4,31.4 1000.1,31.4 999.8,31.5 999.4,31.6 999.1,31.7 998.8,31.9 998.5,32.1 998.2,32.3 998,32.5 997.7,32.8 997.5,33.1 997.3,33.4 997.2,33.7 997,34 996.9,34.3 996.8,34.7 996.8,35 996.8,35.4 996.8,35.7 996.8,36.1 996.9,36.4 997,36.7 997.2,37.1 997.3,37.4 997.5,37.7 997.7,37.9 998,38.2 998.2,38.4 998.5,38.7 998.8,38.8 999.1,39 999.4,39.1 999.8,39.2 1000.1,39.3 1000.4,39.4 1000.8,39.4 1001.1,39.4 1014.1,34 1014.1,34.7 1014.1,35.4 1014.3,36.1 1014.4,36.8 1014.7,37.4 1015,38 1015.3,38.6 1015.7,39.2 1016.2,39.8 1016.7,40.2 1017.2,40.7 1017.8,41.1 1018.4,41.4 1019,41.7 1019.7,42 1020.3,42.2 1021,42.3 1021.7,42.3 1022.4,42.3 1023.1,42.3 1023.8,42.2 1024.5,42 1025.1,41.7 1025.8,41.4 1026.4,41.1 1026.9,40.7 1027.5,40.2 1028,39.8 1028.4,39.2 1028.8,38.6 1029.2,38 1029.5,37.4 1029.7,36.8 1029.9,36.1 1030,35.4 1030.1,34.7 1030.9,34.7 1031.8,34.8 1032.7,34.9 1033.5,35.2 1034.3,35.5 1035.1,35.8 1035.9,36.3 1036.6,36.8 1037.2,37.3 1037.9,37.9 1038.4,38.6 1038.9,39.3 1039.4,40.1 1039.7,40.9 1040,41.7 1040.3,42.5 1040.4,43.4 1040.5,44.3 1040.5,45.1 1040.4,46 1040.3,46.9 1040,47.7 1039.7,48.5 1039.4,49.3 1038.9,50.1 1038.4,50.8 1037.9,51.4 1037.2,52.1 1036.6,52.6 1035.9,53.1 1035.1,53.6 1034.3,53.9 1033.5,54.2 1032.7,54.5 1031.8,54.6 1030.9,54.7" />
<path stroke="#000000" stroke-width="2" d="M 1047.1,70" />
<path stroke="#000000" stroke-width="2" d="M 1047.1,20 1047.1,40 1047.1,34 1047.1,33.1 1047.2,32.3 1047.4,31.4 1047.6,30.6 1047.9,29.7 1048.3,28.9 1048.7,28.2 1049.2,27.5 1049.8,26.8 1050.4,26.2 1051.1,25.6 1051.8,25.1 1052.5,24.7 1053.3,24.3 1054.1,24 1055,23.8 1055.8,23.6 1056.7,23.6" />
<path stroke="#000000" stroke-width="2" d="M 1086.7,70" />
<path stroke="#000000" stroke-width="2" d="M 1096.7,30 1097.2,30 1097.7,30 1098.3,30.1 1098.8,30.3 1099.3,30.5 1099.7,30.7 1100.2,30.9 1100.6,31.2 1101,31.6 1101.4,31.9 1101.7,32.3 1102,32.8 1102.3,33.2 1102.5,33.7 1102.7,34.2 1102.8,34.7 1102.9,35.2 1103,35.7 1103,36.3 1102.9,36.8 1102.8,37.3 1102.7,37.8 1102.5,38.3 1102.3,38.8 1102,39.2 1101.7,39.6 1101.4,40 1101,40.4 1100.6,40.8 1100.2,41.1 1099.7,41.3 1099.3,41.5 1098.8,41.7 1098.3,41.9 1097.7,41.9 1097.2,42 1096.7,42 1096.2,41.9 1095.7,41.9 1095.2,41.7 1094.7,41.5 1094.2,41.3 1093.7,41.1 1093.3,40.8 1092.9,40.4 1092.5,40 1092.2,39.6 1091.9,39.2 1091.6,38.8 1091.4,38.3 1091.2,37.8 1091.1,37.3 1091,36.8 1091,36.3 1091,35.7 1091,35.2 1091.1,34.7 1091.2,34.2 1091.4,33.7 1091.6,33.2 1091.9,32.8 1092.2,32.3 1092.5,31.9 1092.9,31.6 1093.3,31.2 1093.7,30.9 1094.2,30.7 1094.7,30.5 1095.2,30.3 1095.7,30.1 1096.2,30 1096.7,30 1096.7,50 1089,68.5 1091.3,62.9 1091.7,62.1 1092.1,61.4 1092.5,60.6 1093.1,59.9 1093.7,59.3 1094.3,58.7 1095,58.2 1095.7,57.7 1096.5,57.3 1097.3,57 1098.2,56.7 1099,56.5" />
<path stroke="#000000" stroke-width="2" d="M 1133,70" />
<path stroke="#000000" stroke-width="2" d="M 1149,30 1129.2,49.8 1149,69.6" />
<path stroke="#000000" stroke-width="2" d="M 1155.6,70" />
<path stroke="#000000" stroke-width="2" d="M 1155.6,20 1155.6,40 1155.6,34 1155.6,33.1 1155.7,32.3 1155.9,31.4 1156.1,30.6 1156.4,29.7 1156.7,28.9 1157.2,28.2 1157.7,27.5 1158.2,26.8 1158.9,26.2 1159.5,25.6 1160.2,25.1 1161,24.7 1161.8,24.3 1162.6,24 1163.5,23.8 1164.3,23.6 1165.2,23.6 1185.2,23.6" />
<path stroke="#000000" stroke-width="2" d="M 1191.8,70" />
<path stroke="#000000" stroke-width="2" d="M 1191.8,25" />
<path stroke="#000000" stroke-width="2" d="M 1191.8,25 1193.9,24.9 1195.5,24.6 1196.7,24.1 1197.6,23.6 1198.2,22.9 1198.5,22.2 1198.5,21.4 1198.3,20.7 1198,20 1197.5,19.4 1196.9,18.9 1196.2,18.5 1195.4,18.3 1194.7,18.4 1194,18.7 1193.3,19.2 1192.7,20.1 1192.3,21.4 1192,23 1191.8,25 1191.8,40" />
<path stroke="#000000" stroke-width="2" d="M 1191.8,40 1193.9,39.9 1195.5,39.6 1196.7,39.1 1197.6,38.6 1198.2,37.9 1198.5,37.2 1198.5,36.4 1198.3,35.7 1198,35 1197.5,34.4 1196.9,33.9 1196.2,33.5 1195.4,33.3 1194.7,33.4 1194,33.7 1193.3,34.2 1192.7,35.1 1192.3,36.4 1192,38 1191.8,40 1191.8,55" />
<path stroke="#000000" stroke-width="2" d="M 1205.2,70" />
<path stroke="#000000" stroke-width="2" d="M 1205.2,20 1206,20 1206.9,20.1 1207.8,20.2 1208.6,20.5 1209.4,20.8 1210.2,21.1 1211,21.6 1211.7,22.1 1212.4,22.6 1213,23.2 1213.5,23.9 1214,24.6 1214.5,25.4 1214.8,26.2 1215.1,27 1215.4,27.8 1215.5,28.7 1215.6,29.6 1215.6,30.4 1215.5,31.3 1215.4,32.2 1215.1,33 1214.8,33.8 1214.5,34.6 1214,35.4 1213.5,36.1 1213,36.7 1212.4,37.4 1211.7,37.9 1211,38.4 1210.2,38.9 1209.4,39.2 1208.6,39.5 1207.8,39.8 1206.9,39.9 1206,40" />
<path stroke="#000000" stroke-width="2" d="M 1245.6,70" />
</svg>