<svg xmlns="http://www.w3.org/2000/svg" width="1451.3243513236348" height="102.0" style="fill:none; stroke-linecap:round;">
    <rect width="100%" height="100%" fill="#FFFFFF" />
<path stroke="#000000" stroke-width="2" d="M 550,75" />
<path stroke="#000000" stroke-width="2" d="M 20,30 30,30 30,70" />
<path stroke="#000000" stroke-width="2" d="M 36.7,70" />
<path stroke="#000000" stroke-width="2" d="M 36.7,50 36.7,70 36.7,64 36.7,63.1 36.7,62.3 36.9,61.4 37.1,60.6 37.4,59.7 37.8,58.9 38.2,58.2 38.7,57.5 39.3,56.8 39.9,56.2 40.6,55.6 41.3,55.1 42,54.7 42.8,54.3 43.7,54 44.5,53.8 45.4,53.6 46.2,53.6" />
<path stroke="#000000" stroke-width="2" d="M 76.2,70" />
<path stroke="#000000" stroke-width="2" d="M 76.2,40" />
<path stroke="#000000" stroke-width="2" d="M 76.2,40 80.3,39.8 83.5,39.2 86,38.3 87.7,37.1 88.9,35.8 89.5,34.3 89.5,32.8 89.2,31.4 88.5,30 87.5,28.8 86.2,27.7 84.9,27 83.4,26.7 81.9,26.8 80.4,27.3 79.1,28.5 77.9,30.2 77,32.7 76.4,35.9 76.2,40 76.2,70" />
<path stroke="#000000" stroke-width="2" d="M 96.2,70" />
<path stroke="#000000" stroke-width="2" d="M 96.2,50 103.9,68.5" />
<path stroke="#000000" stroke-width="2" d="M 133.9,70" />
<path stroke="#000000" stroke-width="2" d="M 133.9,30 133.9,70 133.9,58 133.9,56.3 134,54.5 134.3,52.8 134.8,51.1 135.4,49.5 136.1,47.9 137,46.4 138,45 139.1,43.6 140.3,42.4 141.7,41.3 143.1,40.3 144.6,39.4 146.2,38.7 147.8,38.1 149.5,37.6 151.2,37.3 153,37.1" />
<path stroke="#000000" stroke-width="2" d="M 159.6,70" />
<path stroke="#000000" stroke-width="2" d="M 159.6,25" />
<path stroke="#000000" stroke-width="2" d="M 159.6,25 161.7,24.9 163.3,24.6 164.5,24.1 165.4,23.6 166,22.9 166.2,22.2 166.3,21.4 166.1,20.7 165.8,20 165.3,19.4 164.6,18.9 163.9,18.5 163.2,18.3 162.5,18.4 161.7,18.7 161.1,19.2 160.5,20.1 160,21.4 159.7,23 159.6,25 159.6,40" />
<path stroke="#000000" stroke-width="2" d="M 172.9,70" />
<path stroke="#000000" stroke-width="2" d="M 172.9,50 192.9,50" />
<path stroke="#000000" stroke-width="2" d="M 222.9,70" />
<path stroke="#000000" stroke-width="2" d="M 222.9,30 230.6,48.5 238.3,30" />
<path stroke="#000000" stroke-width="2" d="M 238.3,40" />
<path stroke="#000000" stroke-width="2" d="M 222.3,40 239.3,40" />
<path stroke="#000000" stroke-width="2" d="M 239.3,40 237.2,39.9 235.6,39.6 234.4,39.1 233.5,38.6 232.9,37.9 232.6,37.2 232.6,36.4 232.8,35.7 233.1,35 233.6,34.4 234.2,33.9 234.9,33.5 235.7,33.3 236.4,33.4 237.1,33.7 237.8,34.2 238.4,35.1 238.8,36.4 239.1,38 239.3,40 239.3,44" />
<path stroke="#000000" stroke-width="2" d="M 239.3,44 238.9,44.9 238.6,45.7 238.2,46.4 237.8,47.1 237.4,47.8 237,48.4 236.5,48.9 236,49.4 235.5,49.9 235,50.2 234.5,50.6 233.9,50.9 233.4,51.2 232.8,51.4 232.2,51.6 231.6,51.7 231,51.9 230.5,51.9 229.9,52 229.3,52" />
<path stroke="#000000" stroke-width="2" d="M 269.3,70" />
<path stroke="#000000" stroke-width="2" d="M 269.3,40" />
<path stroke="#000000" stroke-width="2" d="M 269.3,40 273.3,39.8 276.5,39.2 279,38.3 280.8,37.1 281.9,35.8 282.5,34.3 282.6,32.8 282.2,31.4 281.5,30 280.5,28.8 279.3,27.7 277.9,27 276.4,26.7 274.9,26.8 273.5,27.3 272.1,28.5 271,30.2 270.1,32.7 269.5,35.9 269.3,40 269.3,70" />
<path stroke="#000000" stroke-width="2" d="M 289.2,70" />
<path stroke="#000000" stroke-width="2" d="M 289.2,50 290.1,50 291,50.1 291.8,50.2 292.7,50.5 293.5,50.8 294.3,51.1 295,51.6 295.8,52.1 296.4,52.6 297,53.2 297.6,53.9 298.1,54.6 298.5,55.4 298.9,56.2 299.2,57 299.4,57.8 299.6,58.7 299.7,59.6 299.7,60.4 299.6,61.3 299.4,62.2 299.2,63 298.9,63.8 298.5,64.6 298.1,65.4 297.6,66.1 297,66.7 296.4,67.4 295.8,67.9 295,68.4 294.3,68.9 293.5,69.2 292.7,69.5 291.8,69.8 291,69.9 290.1,70 310.1,70 310.1,70.7 310.2,71.4 310.3,72.1 310.5,72.7 310.7,73.4 311,74 311.3,74.6 311.7,75.2 312.2,75.7 312.7,76.2 313.2,76.7 313.8,77.1 314.4,77.4 315,77.7 315.7,78 316.4,78.1 317,78.3 317.7,78.3 318.4,78.3 319.1,78.3 319.8,78.1 320.5,78 321.2,77.7 321.8,77.4 322.4,77.1 323,76.7 323.5,76.2 324,75.7 324.4,75.2 324.8,74.6 325.2,74 325.5,73.4 325.7,72.7 325.9,72.1 326,71.4 326.1,70.7" />
<path stroke="#000000" stroke-width="2" d="M 332.8,70" />
<path stroke="#000000" stroke-width="2" d="M 332.8,30 333,30 333,30.2 332.8,30.2 332.8,30" />
<path stroke="#000000" stroke-width="2" d="M 363,70" />
<path stroke="#000000" stroke-width="2" d="M 363,30 378.3,67" />
<path stroke="#000000" stroke-width="2" d="M 384.9,70" />
<path stroke="#000000" stroke-width="2" d="M 384.9,20 385.8,20 386.7,20.1 387.5,20.2 388.4,20.5 389.2,20.8 390,21.1 390.7,21.6 391.5,22.1 392.1,22.6 392.7,23.2 393.3,23.9 393.8,24.6 394.2,25.4 394.6,26.2 394.9,27 395.1,27.8 395.3,28.7 395.4,29.6 395.4,30.4 395.3,31.3 395.1,32.2 394.9,33 394.6,33.8 394.2,34.6 393.8,35.4 393.3,36.1 392.7,36.7 392.1,37.4 391.5,37.9 390.7,38.4 390,38.9 389.2,39.2 388.4,39.5 387.5,39.8 386.7,39.9 385.8,40" />
<path stroke="#000000" stroke-width="2" d="M 425.4,70" />
<path stroke="#000000" stroke-width="2" d="M 425.4,40" />
<path stroke="#000000" stroke-width="2" d="M 425.4,40 429.4,39.8 432.6,39.2 435.1,38.3 436.9,37.1 438,35.8 438.6,34.3 438.7,32.8 438.3,31.4 437.6,30 436.6,28.8 435.4,27.7 434,27 432.5,26.7 431,26.8 429.6,27.3 428.2,28.5 427.1,30.2 426.2,32.7 425.6,35.9 425.4,40 425.4,70" />
<path stroke="#000000" stroke-width="2" d="M 445.3,70" />
<path stroke="#000000" stroke-width="2" d="M 445.3,20 465.3,20" />
<path stroke="#000000" stroke-width="2" d="M 465.3,20 467.4,19.9 469,19.6 470.2,19.1 471.1,18.6 471.7,17.9 471.9,17.2 472,16.4 471.8,15.7 471.5,15 471,14.4 470.3,13.9 469.6,13.5 468.9,13.3 468.2,13.4 467.4,13.7 466.8,14.2 466.2,15.1 465.7,16.4 465.4,18 465.3,20 465.3,35" />
<path stroke="#000000" stroke-width="2" d="M 502,70" />
<path stroke="#000000" stroke-width="2" d="M 502,70 502.2,70 502.2,70.2 502,70.2 502,70" />
<path stroke="#000000" stroke-width="2" d="M 532.2,70" />
<path stroke="#000000" stroke-width="2" d="M 532.2,30 532.2,70 552.2,70" />
<path stroke="#000000" stroke-width="2" d="M 582.2,70" />
<path stroke="#000000" stroke-width="2" d="M 582.2,30 582.2,70 582.2,58 582.2,56.3 582.3,54.5 582.6,52.8 583.1,51.1 583.7,49.5 584.4,47.9 585.3,46.4 586.3,45 587.4,43.6 588.7,42.4 590,41.3 591.4,40.3 592.9,39.4 594.5,38.7 596.2,38.1 597.8,37.6 599.6,37.3 601.3,37.1" />
<path stroke="#000000" stroke-width="2" d="M 608,70" />
<path stroke="#000000" stroke-width="2" d="M 608,20 615.6,38.5" />
<path stroke="#000000" stroke-width="2" d="M 622.3,70" />
<path stroke="#000000" stroke-width="2" d="M 622.3,20 629.9,38.5 629.9,58.5 629.9,54.5 629.9,53.6 630,52.7 630.2,51.9 630.4,51 630.7,50.2 631.1,49.4 631.5,48.7 632,48 632.6,47.3 633.2,46.7 633.8,46.1 634.6,45.6 635.4,45.6 636.3,45.7 637.2,45.8 638,46.1 638.8,46.4 639.6,46.7 640.4,47.2 641.1,47.7 641.7,48.2 642.4,48.8 642.9,49.5 643.4,50.2 643.9,51 644.2,51.8 644.5,52.6 644.7,53.4 644.9,54.3 645,55.2 645,56 644.9,56.9 644.7,57.8 644.5,58.6 644.2,59.4 643.9,60.2 643.4,61 642.9,61.7 642.4,62.4 641.7,63 641.1,63.5 640.4,64 639.6,64.5 638.8,64.8 638,65.1 637.2,65.4 636.3,65.5 635.4,65.6" />
<path stroke="#000000" stroke-width="2" d="M 675,70" />
<path stroke="#000000" stroke-width="2" d="M 675,70 675.2,70 675.2,70.2 675,70.2 675,70" />
<path stroke="#000000" stroke-width="2" d="M 681.8,70" />
<path stroke="#000000" stroke-width="2" d="M 691.8,30 681.8,30 681.8,70 681.8,68.3 682,66.5 682.3,64.8 682.8,63.1 683.3,61.5 684.1,59.9 685,58.4 686,57 687.1,55.6 688.3,54.4 689.6,53.3 691.1,52.3 692.6,51.4 694.2,50.7 695.8,50.1 697.5,49.6 699.2,49.3 701,49.1" />
<path stroke="#000000" stroke-width="2" d="M 707.6,70" />
<path stroke="#000000" stroke-width="2" d="M 715.6,20 715.6,35" />
<path stroke="#000000" stroke-width="2" d="M 715.6,35 715.5,37 715.2,38.6 714.8,39.9 714.2,40.8 713.5,41.3 712.8,41.6 712,41.7 711.3,41.5 710.6,41.1 710,40.6 709.5,40 709.1,39.3 709,38.6 709,37.8 709.3,37.1 709.9,36.4 710.7,35.9 712,35.4 713.6,35.1 715.6,35" />
<path stroke="#000000" stroke-width="2" d="M 745.6,70" />
<path stroke="#000000" stroke-width="2" d="M 745.6,70" />
<path stroke="#000000" stroke-width="2" d="M 745.6,70 746.7,70 747.7,70.2 748.6,70.4 749.3,70.7 749.8,71 750.3,71.5 750.6,71.9 750.8,72.5 750.9,73.1 750.9,73.8 750.7,74.4 750.5,75.2 750.2,76 749.8,76.8 749.3,77.6 748.7,78.4 748,79.3 747.3,80.2 746.5,81.1 745.6,82" />
<path stroke="#000000" stroke-width="2" d="M 780.9,70" />
<path stroke="#000000" stroke-width="2" d="M 780.9,30 780.9,70 800.9,70" />
<path stroke="#000000" stroke-width="2" d="M 830.9,70" />
<path stroke="#000000" stroke-width="2" d="M 830.9,30 830.9,70 830.9,58 830.9,56.3 831,54.5 831.3,52.8 831.8,51.1 832.4,49.5 833.1,47.9 834,46.4 835,45 836.1,43.6 837.4,42.4 838.7,41.3 840.1,40.3 841.6,39.4 843.2,38.7 844.9,38.1 846.5,37.6 848.3,37.3 850,37.1" />
<path stroke="#000000" stroke-width="2" d="M 856.7,70" />
<path stroke="#000000" stroke-width="2" d="M 856.7,20 864.3,38.5" />
<path stroke="#000000" stroke-width="2" d="M 871,70" />
<path stroke="#000000" stroke-width="2" d="M 871,20 878.6,38.5 878.6,58.5 878.6,54.5 878.6,53.6 878.7,52.7 878.9,51.9 879.1,51 879.4,50.2 879.8,49.4 880.2,48.7 880.7,48 881.3,47.3 881.9,46.7 882.5,46.1 883.3,45.6 884.1,45.6 885,45.7 885.9,45.8 886.7,46.1 887.5,46.4 888.3,46.7 889.1,47.2 889.8,47.7 890.4,48.2 891.1,48.8 891.6,49.5 892.1,50.2 892.6,51 892.9,51.8 893.2,52.6 893.5,53.4 893.6,54.3 893.7,55.2 893.7,56 893.6,56.9 893.5,57.8 893.2,58.6 892.9,59.4 892.6,60.2 892.1,61 891.6,61.7 891.1,62.4 890.4,63 889.8,63.5 889.1,64 888.3,64.5 887.5,64.8 886.7,65.1 885.9,65.4 885,65.5 884.1,65.6" />
<path stroke="#000000" stroke-width="2" d="M 923.7,70" />
<path stroke="#000000" stroke-width="2" d="M 923.7,70 923.9,70 923.9,70.2 923.7,70.2 923.7,70" />
<path stroke="#000000" stroke-width="2" d="M 930.6,70" />
<path stroke="#000000" stroke-width="2" d="M 930.6,70 945.9,33 945.9,73" />
<path stroke="#000000" stroke-width="2" d="M 952.5,70" />
<path stroke="#000000" stroke-width="2" d="M 952.5,40" />
<path stroke="#000000" stroke-width="2" d="M 952.5,40 956.6,39.8 959.8,39.2 962.3,38.3 964,37.1 965.2,35.8 965.8,34.3 965.8,32.8 965.5,31.4 964.8,30 963.8,28.8 962.5,27.7 961.2,27 959.7,26.7 958.2,26.8 956.7,27.3 955.4,28.5 954.2,30.2 953.3,32.7 952.7,35.9 952.5,40 952.5,70" />
<path stroke="#000000" stroke-width="2" d="M 995.8,70" />
<path stroke="#000000" stroke-width="2" d="M 995.8,70" />
<path stroke="#000000" stroke-width="2" d="M 995.8,70 997,70 997.9,70.2 998.8,70.4 999.5,70.7 1000.1,71 1000.5,71.5 1000.8,71.9 1001,72.5 1001.1,73.1 1001.1,73.8 1001,74.4 1000.7,75.2 1000.4,76 1000,76.8 999.5,77.6 998.9,78.4 998.2,79.3 997.5,80.2 996.7,81.1 995.8,82" />
<path stroke="#000000" stroke-width="2" d="M 1031.1,70" />
<path stroke="#000000" stroke-width="2" d="M 1031.1,30 1051.1,30 1052,30 1052.8,30.1 1053.7,30.2 1054.5,30.5 1055.4,30.8 1056.2,31.1 1056.9,31.6 1057.6,32.1 1058.3,32.6 1058.9,33.2 1059.5,33.9 1060,34.6 1060.4,35.4 1060.8,36.2 1061.1,37 1061.3,37.8 1061.5,38.7 1061.5,39.6 1061.5,40.4 1061.5,41.3 1061.3,42.2 1061.1,43 1060.8,43.8 1060.4,44.6 1060,45.4 1059.5,46.1 1058.9,46.7 1058.3,47.4 1057.6,47.9 1056.9,48.4 1056.2,48.9 1055.4,49.2 1054.5,49.5 1053.7,49.8 1052.8,49.9 1052,50" />
<path stroke="#000000" stroke-width="2" d="M 1091.5,70" />
<path stroke="#000000" stroke-width="2" d="M 1091.5,30 1091.5,31.4 1091.7,32.8 1091.9,34.2 1092.3,35.5 1092.7,36.8 1093.3,38.1 1094,39.3 1094.8,40.4 1095.7,41.5 1096.7,42.5 1097.8,43.4 1098.9,44.2 1100.1,44.9 1101.4,45.5 1102.7,46 1104.1,46.3 1105.4,46.6 1106.8,46.7 1108.2,46.7 1109.6,46.6 1111,46.3 1112.3,46 1113.6,45.5 1114.9,44.9 1116.1,44.2 1117.3,43.4 1118.3,42.5 1119.3,41.5 1120.2,40.4 1121,39.3 1121.7,38.1 1122.3,36.8 1122.8,35.5 1123.1,34.2 1123.4,32.8 1123.5,31.4" />
<path stroke="#000000" stroke-width="2" d="M 1130.2,70" />
<path stroke="#000000" stroke-width="2" d="M 1130.2,70 1130.2,69.3 1130.2,68.6 1130.3,67.9 1130.5,67.2 1130.8,66.6 1131.1,66 1131.4,65.4 1131.8,64.8 1132.3,64.2 1132.8,63.8 1133.3,63.3 1133.9,62.9 1134.5,62.6 1135.1,62.3 1135.8,62 1136.4,61.8 1137.1,61.7 1137.8,61.7 1138.5,61.7 1139.2,61.7 1139.9,61.8 1140.6,62 1141.2,62.3 1141.9,62.6 1142.5,62.9 1143,63.3 1143.6,63.8 1144.1,64.2 1144.5,64.8 1144.9,65.4 1145.3,66 1145.6,66.6 1145.8,67.2 1146,67.9 1146.1,68.6 1146.2,69.3" />
<path stroke="#000000" stroke-width="2" d="M 1146.2,69.3 1144.1,69.2 1142.5,68.9 1141.3,68.4 1140.4,67.9 1139.8,67.2 1139.5,66.5 1139.5,65.7 1139.7,65 1140,64.3 1140.5,63.7 1141.1,63.2 1141.8,62.8 1142.6,62.6 1143.3,62.7 1144,63 1144.7,63.5 1145.3,64.4 1145.7,65.7 1146,67.3 1146.2,69.3 1146.2,73.3" />
<path stroke="#000000" stroke-width="2" d="M 1146.2,73.3 1145.8,74.2 1145.5,75 1145.1,75.7 1144.7,76.4 1144.3,77.1 1143.9,77.7 1143.4,78.2 1142.9,78.7 1142.4,79.2 1141.9,79.6 1141.4,79.9 1140.8,80.2 1140.3,80.5 1139.7,80.7 1139.1,80.9 1138.5,81 1137.9,81.2 1137.4,81.2 1136.8,81.3 1136.2,81.3" />
<path stroke="#000000" stroke-width="2" d="M 1176.2,70" />
<path stroke="#000000" stroke-width="2" d="M 1176.2,70 1204.4,41.7 1189.1,78.7" />
<path stroke="#000000" stroke-width="2" d="M 1234.4,70" />
<path stroke="#000000" stroke-width="2" d="M 1234.4,30 1249.7,67" />
<path stroke="#000000" stroke-width="2" d="M 1256.4,70" />
<path stroke="#000000" stroke-width="2" d="M 1256.4,30 1256.4,70" />
<path stroke="#000000" stroke-width="2" d="M 1263.1,70" />
<path stroke="#000000" stroke-width="2" d="M 1263.1,50 1264,50 1264.8,50.1 1265.7,50.2 1266.5,50.5 1267.3,50.8 1268.1,51.1 1268.9,51.6 1269.6,52.1 1270.3,52.6 1270.9,53.2 1271.4,53.9 1271.9,54.6 1272.4,55.4 1272.8,56.2 1273.1,57 1273.3,57.8 1273.4,58.7 1273.5,59.6 1273.5,60.4 1273.4,61.3 1273.3,62.2 1273.1,63 1272.8,63.8 1272.4,64.6 1271.9,65.4 1271.4,66.1 1270.9,66.7 1270.3,67.4 1269.6,67.9 1268.9,68.4 1268.1,68.9 1267.3,69.2 1266.5,69.5 1265.7,69.8 1264.8,69.9 1264,70" />
<path stroke="#000000" stroke-width="2" d="M 1280.2,70" />
<path stroke="#000000" stroke-width="2" d="M 1280.2,30 1280.4,30 1280.4,30.2 1280.2,30.2 1280.2,30" />
<path stroke="#000000" stroke-width="2" d="M 1310.4,70" />
<path stroke="#000000" stroke-width="2" d="M 1310.4,70 1310.6,70 1310.6,70.2 1310.4,70.2 1310.4,70" />
<path stroke="#000000" stroke-width="2" d="M 1340.6,70" />
<path stroke="#000000" stroke-width="2" d="M 1340.6,30 1340.6,70 1360.6,70" />
<path stroke="#000000" stroke-width="2" d="M 1390.6,70" />
<path stroke="#000000" stroke-width="2" d="M 1390.6,30 1390.6,70 1401.9,58.7" />
<path stroke="#000000" stroke-width="2" d="M 1408.6,70" />
<path stroke="#000000" stroke-width="2" d="M 1408.6,20 1428.6,20 1420.9,38.5 1421.8,38.5 1422.6,38.6 1423.5,38.7 1424.3,38.9 1425.2,39.2 1426,39.6 1426.7,40 1427.4,40.5 1428.1,41.1 1428.7,41.7 1429.3,42.4 1429.8,43.1 1430.2,43.9 1430.6,44.6 1430.9,45.5 1431.1,46.3 1431.2,47.2 1431.3,48 1431.3,48.9 1431.2,49.8 1431.1,50.6 1430.9,51.5 1430.6,52.3 1430.2,53.1 1429.8,53.8 1429.3,54.6 1428.7,55.2 1428.1,55.8 1427.4,56.4 1426.7,56.9 1426,57.3 1425.2,57.7 1424.3,58 1423.5,58.2 1422.6,58.4 1421.8,58.5" />
<path stroke="#000000" stroke-width="2" d="M 1461.3,70" />
</svg>