<svg xmlns="http://www.w3.org/2000/svg" width="1022.4082667814248" height="90.2" style="fill:none; stroke-linecap:round;">
    <rect width="100%" height="100%" fill="#FFFFFF" />
<path stroke="#000000" stroke-width="2" d="M 550,75" />
<path stroke="#000000" stroke-width="2" d="M 30,30 22.3,48.5 22.3,68.5 28,62.8" />
<path stroke="#000000" stroke-width="2" d="M 36.7,70" />
<path stroke="#000000" stroke-width="2" d="M 36.7,50 36.9,50 36.9,50.2 36.7,50.2 36.7,50" />
<path stroke="#000000" stroke-width="2" d="M 66.9,70" />
<path stroke="#000000" stroke-width="2" d="M 66.9,30 76.9,30 76.9,70" />
<path stroke="#000000" stroke-width="2" d="M 83.5,70" />
<path stroke="#000000" stroke-width="2" d="M 83.5,30 83.5,38 83.5,39 83.6,40.1 83.8,41.1 84.1,42.1 84.4,43.1 84.9,44.1 85.4,45 86,45.8 86.7,46.6 87.4,47.4 88.2,48 89.1,48.6 90,49.2 90.9,49.6 91.9,50 92.9,50.2 94,50.4 95,50.5 96,50.5 97.1,50.4 98.1,50.2 99.1,50 100.1,49.6 101.1,49.2 102,48.6 102.8,48 103.6,47.4 104.4,46.6 105,45.8 105.6,45 106.2,44.1 106.6,43.1 107,42.1 107.2,41.1 107.4,40.1 107.5,39 107.5,29 107.5,69" />
<path stroke="#000000" stroke-width="2" d="M 114.2,70" />
<path stroke="#000000" stroke-width="2" d="M 114.2,50 114.2,70 114.2,64 114.2,63.1 114.3,62.3 114.4,61.4 114.6,60.6 114.9,59.7 115.3,58.9 115.7,58.2 116.2,57.5 116.8,56.8 117.4,56.2 118.1,55.6 118.8,55.1 119.6,54.7 120.3,54.3 121.2,54 122,53.8 122.9,53.6 123.7,53.6" />
<path stroke="#000000" stroke-width="2" d="M 123.7,53.6 125.8,53.5 127.4,53.2 128.6,52.7 129.5,52.1 130.1,51.5 130.3,50.7 130.4,50 130.2,49.3 129.9,48.6 129.4,47.9 128.7,47.4 128.1,47.1 127.3,46.9 126.6,47 125.8,47.2 125.2,47.8 124.6,48.7 124.1,49.9 123.8,51.5 123.7,53.6 123.7,68.6" />
<path stroke="#000000" stroke-width="2" d="M 160.4,70" />
<path stroke="#000000" stroke-width="2" d="M 160.4,30 160.4,31.4 160.5,32.8 160.7,34.2 161.1,35.5 161.6,36.8 162.2,38.1 162.9,39.3 163.7,40.4 164.6,41.5 165.6,42.5 166.6,43.4 167.8,44.2 169,44.9 170.2,45.5 171.6,46 172.9,46.3 174.3,46.6 175.7,46.7 177.1,46.7 178.5,46.6 179.8,46.3 181.2,46 182.5,45.5 183.8,44.9 185,44.2 186.1,43.4 187.2,42.5 188.2,41.5 189.1,40.4 189.9,39.3 190.6,38.1 191.2,36.8 191.6,35.5 192,34.2 192.2,32.8 192.4,31.4" />
<path stroke="#000000" stroke-width="2" d="M 199,70" />
<path stroke="#000000" stroke-width="2" d="M 199,30 199.2,30 199.2,30.2 199,30.2 199,30" />
<path stroke="#000000" stroke-width="2" d="M 229.2,70" />
<path stroke="#000000" stroke-width="2" d="M 229.2,35" />
<path stroke="#000000" stroke-width="2" d="M 229.2,35 231.3,34.9 232.9,34.6 234.1,34.1 235,33.6 235.6,32.9 235.8,32.2 235.9,31.4 235.7,30.7 235.3,30 234.8,29.4 234.2,28.9 233.5,28.5 232.8,28.3 232.1,28.4 231.3,28.7 230.7,29.2 230.1,30.1 229.6,31.4 229.3,33 229.2,35 229.2,50" />
<path stroke="#000000" stroke-width="2" d="M 229.2,50 229.1,52 228.8,53.6 228.4,54.9 227.8,55.8 227.1,56.3 226.4,56.6 225.6,56.7 224.9,56.5 224.2,56.1 223.6,55.6 223.1,55 222.7,54.3 222.6,53.6 222.6,52.8 222.9,52.1 223.5,51.4 224.3,50.9 225.6,50.4 227.2,50.1 229.2,50 239.2,50 239.2,70 239.2,64 239.2,63.1 239.3,62.3 239.4,61.4 239.7,60.6 240,59.7 240.3,58.9 240.8,58.2 241.3,57.5 241.8,56.8 242.5,56.2 243.1,55.6 243.8,55.1 244.6,54.7 245.4,54.3 246.2,54 247,53.8 247.9,53.6 248.8,53.6" />
<path stroke="#000000" stroke-width="2" d="M 255.4,70" />
<path stroke="#000000" stroke-width="2" d="M 255.4,20 255.4,40 261.1,34.3 261.1,35 261.2,35.7 261.3,36.4 261.5,37.1 261.7,37.8 262,38.4 262.3,39 262.7,39.6 263.2,40.1 263.7,40.6 264.2,41 264.8,41.4 265.4,41.8 266,42.1 266.7,42.3 267.4,42.5 268,42.6 268.7,42.7 269.4,42.7 270.1,42.6 270.8,42.5 271.5,42.3 272.2,42.1 272.8,41.8 273.4,41.4 274,41 274.5,40.6 275,40.1 275.4,39.6 275.8,39 276.2,38.4 276.5,37.8 276.7,37.1 276.9,36.4 277,35.7 277.1,35" />
<path stroke="#000000" stroke-width="2" d="M 277.1,35 278.5,35.2 279.8,35.6 280.9,36.3 281.9,37.1 282.7,38.2 283.4,39.4 283.9,40.7 284.3,42.1 284.5,43.5 284.6,45 284.5,46.5 284.3,48 283.9,49.4 283.4,50.7 282.7,51.9 281.9,53 280.9,53.8 279.8,54.5 278.5,54.9 277.1,55" />
<path stroke="#000000" stroke-width="2" d="M 314.6,70" />
<path stroke="#000000" stroke-width="2" d="M 324.6,30 323.7,30 322.8,30.1 322,30.2 321.1,30.5 320.3,30.8 319.5,31.1 318.8,31.6 318.1,32.1 317.4,32.6 316.8,33.2 316.2,33.9 315.7,34.6 315.3,35.4 314.9,36.2 314.6,37 314.4,37.8 314.2,38.7 314.2,39.6 314.2,40.4 314.2,41.3 314.4,42.2 314.6,43 314.9,43.8 315.3,44.6 315.7,45.4 316.2,46.1 316.8,46.7 317.4,47.4 318.1,47.9 318.8,48.4 319.5,48.9 320.3,49.2 321.1,49.5 322,49.8 322.8,49.9 323.7,50 343.7,50" />
<path stroke="#000000" stroke-width="2" d="M 373.7,70" />
<path stroke="#000000" stroke-width="2" d="M 373.7,70 373.9,70 373.9,70.2 373.7,70.2 373.7,70" />
<path stroke="#000000" stroke-width="2" d="M 380.6,70" />
<path stroke="#000000" stroke-width="2" d="M 382.6,50 387.9,37.1 388.1,36.7 388.2,36.4 388.3,36.1 388.3,35.7 388.3,35.4 388.3,35 388.3,34.7 388.2,34.3 388.1,34 387.9,33.7 387.8,33.4 387.6,33.1 387.4,32.8 387.1,32.5 386.9,32.3 386.6,32.1 386.3,31.9 386,31.7 385.7,31.6 385.3,31.5 385,31.4 384.7,31.4 384.3,31.4 384,31.4 383.6,31.4 383.3,31.5 382.9,31.6 382.6,31.7 382.3,31.9 382,32.1 381.7,32.3 381.5,32.5 381.2,32.8 381,33.1 380.8,33.4 380.7,33.7 380.6,34 380.4,34.3 380.4,34.7 380.3,35 380.3,35.4 380.3,35.7 380.4,36.1 380.4,36.4 380.6,36.7 380.7,37.1 380.8,37.4 381,37.7 381.2,37.9 381.5,38.2 381.7,38.4 382,38.7 382.3,38.8 382.6,39 382.9,39.1 383.3,39.2 383.6,39.3 384,39.4 384.3,39.4 384.7,39.4 397.6,34" />
<path stroke="#000000" stroke-width="2" d="M 397.6,34 395.6,33.9 393.9,33.6 392.7,33.1 391.8,32.6 391.3,31.9 391,31.2 390.9,30.4 391.1,29.7 391.5,29 392,28.4 392.6,27.9 393.3,27.5 394,27.3 394.8,27.4 395.5,27.7 396.2,28.2 396.7,29.1 397.2,30.4 397.5,32 397.6,34 397.6,49" />
<path stroke="#000000" stroke-width="2" d="M 404.3,70" />
<path stroke="#000000" stroke-width="2" d="M 404.3,25" />
<path stroke="#000000" stroke-width="2" d="M 404.3,25 406.3,24.9 407.9,24.6 409.1,24.1 410,23.6 410.6,22.9 410.9,22.2 410.9,21.4 410.7,20.7 410.4,20 409.9,19.4 409.3,18.9 408.6,18.5 407.8,18.3 407.1,18.4 406.4,18.7 405.7,19.2 405.1,20.1 404.7,21.4 404.4,23 404.3,25 404.3,40 396.6,58.5 398.9,52.9 399.2,52.1 399.6,51.4 400.1,50.6 400.6,49.9 401.2,49.3 401.9,48.7 402.6,48.2 403.3,47.7 404.1,47.3 404.9,47 405.7,46.7 406.6,46.5" />
<path stroke="#000000" stroke-width="2" d="M 417.6,70" />
<path stroke="#000000" stroke-width="2" d="M 417.6,40 425.2,21.5 445.2,21.5" />
<path stroke="#000000" stroke-width="2" d="M 475.2,70" />
<path stroke="#000000" stroke-width="2" d="M 475.2,30 475.2,38 475.2,39 475.3,40.1 475.5,41.1 475.8,42.1 476.1,43.1 476.6,44.1 477.1,45 477.7,45.8 478.4,46.6 479.1,47.4 479.9,48 480.8,48.6 481.7,49.2 482.6,49.6 483.6,50 484.6,50.2 485.7,50.4 486.7,50.5 487.7,50.5 488.8,50.4 489.8,50.2 490.8,50 491.8,49.6 492.8,49.2 493.7,48.6 494.5,48 495.3,47.4 496.1,46.6 496.7,45.8 497.3,45 497.9,44.1 498.3,43.1 498.7,42.1 498.9,41.1 499.1,40.1 499.2,39 499.2,29 499.2,69 499.2,67.3 499.4,65.6 499.7,63.8 500.1,62.2 500.7,60.5 501.5,58.9 502.3,57.4 503.3,56 504.4,54.7 505.7,53.4 507,52.3 508.4,51.3 510,50.4 511.5,49.7 513.2,49.1 514.9,48.6 516.6,48.3 518.3,48.2" />
<path stroke="#000000" stroke-width="2" d="M 525,70" />
<path stroke="#000000" stroke-width="2" d="M 525,25" />
<path stroke="#000000" stroke-width="2" d="M 525,25 527,24.9 528.6,24.6 529.9,24.1 530.7,23.6 531.3,22.9 531.6,22.2 531.6,21.4 531.5,20.7 531.1,20 530.6,19.4 530,18.9 529.3,18.5 528.6,18.3 527.8,18.4 527.1,18.7 526.4,19.2 525.8,20.1 525.4,21.4 525.1,23 525,25 525,40" />
<path stroke="#000000" stroke-width="2" d="M 561.6,70" />
<path stroke="#000000" stroke-width="2" d="M 581.6,30 566.3,67" />
<path stroke="#000000" stroke-width="2" d="M 588.3,70" />
<path stroke="#000000" stroke-width="2" d="M 588.3,20 588.3,20.7 588.4,21.4 588.5,22.1 588.7,22.8 588.9,23.4 589.2,24 589.6,24.6 590,25.2 590.4,25.8 590.9,26.2 591.4,26.7 592,27.1 592.6,27.4 593.2,27.7 593.9,28 594.6,28.2 595.3,28.3 596,28.3 596.7,28.3 597.3,28.3 598,28.2 598.7,28 599.4,27.7 600,27.4 600.6,27.1 601.2,26.7 601.7,26.2 602.2,25.8 602.6,25.2 603,24.6 603.4,24 603.7,23.4 603.9,22.8 604.1,22.1 604.2,21.4 604.3,20.7 604.3,20 604.4,19.3 604.5,18.6 604.7,17.9 604.9,17.3 605.2,16.7 605.5,16.1 605.9,15.5 606.4,14.9 606.9,14.5 607.4,14 608,13.6 608.6,13.3 609.2,13 609.9,12.7 610.6,12.5 611.2,12.4 611.9,12.4 612.6,12.4 613.3,12.4 614,12.5 614.7,12.7 615.3,13 616,13.3 616.6,13.6 617.2,14 617.7,14.5 618.2,14.9 618.6,15.5 619,16.1 619.4,16.7 619.7,17.3 619.9,17.9 620.1,18.6 620.2,19.3 620.3,20" />
<path stroke="#000000" stroke-width="2" d="M 620.3,20 618.2,19.9 616.6,19.6 615.4,19.1 614.5,18.6 614,17.9 613.7,17.2 613.6,16.4 613.8,15.7 614.2,15 614.7,14.4 615.3,13.9 616,13.5 616.7,13.3 617.4,13.4 618.2,13.7 618.8,14.2 619.4,15.1 619.9,16.4 620.2,18 620.3,20 620.3,24" />
<path stroke="#000000" stroke-width="2" d="M 620.3,24 620,24.9 619.6,25.7 619.3,26.4 618.9,27.1 618.4,27.8 618,28.4 617.5,28.9 617,29.4 616.5,29.9 616,30.2 615.5,30.6 615,30.9 614.4,31.2 613.8,31.4 613.2,31.6 612.7,31.7 612.1,31.9 611.5,31.9 610.9,32 610.3,32" />
<path stroke="#000000" stroke-width="2" d="M 650.3,70" />
<path stroke="#000000" stroke-width="2" d="M 650.3,30 670.3,30" />
<path stroke="#000000" stroke-width="2" d="M 670.3,30 671.7,30.1 673,30.6 674.1,31.2 675.1,32.1 675.9,33.1 676.6,34.3 677.1,35.6 677.5,37 677.7,38.5 677.8,40 677.7,41.5 677.5,43 677.1,44.4 676.6,45.7 675.9,46.9 675.1,47.9 674.1,48.8 673,49.4 671.7,49.9 670.3,50" />
<path stroke="#000000" stroke-width="2" d="M 707.8,70" />
<path stroke="#000000" stroke-width="2" d="M 707.8,30 707.8,31.4 707.9,32.8 708.1,34.2 708.5,35.5 709,36.8 709.6,38.1 710.3,39.3 711.1,40.4 712,41.5 713,42.5 714,43.4 715.2,44.2 716.4,44.9 717.6,45.5 719,46 720.3,46.3 721.7,46.6 723.1,46.7 724.5,46.7 725.9,46.6 727.2,46.3 728.6,46 729.9,45.5 731.2,44.9 732.4,44.2 733.5,43.4 734.6,42.5 735.6,41.5 736.5,40.4 737.3,39.3 738,38.1 738.5,36.8 739,35.5 739.4,34.2 739.6,32.8 739.7,31.4" />
<path stroke="#000000" stroke-width="2" d="M 746.4,70" />
<path stroke="#000000" stroke-width="2" d="M 746.4,20 751.4,20 751.4,40" />
<path stroke="#000000" stroke-width="2" d="M 751.4,40 749.4,39.9 747.8,39.6 746.5,39.1 745.7,38.6 745.1,37.9 744.8,37.2 744.8,36.4 744.9,35.7 745.3,35 745.8,34.4 746.4,33.9 747.1,33.5 747.8,33.3 748.6,33.4 749.3,33.7 750,34.2 750.6,35.1 751,36.4 751.3,38 751.4,40 751.4,44" />
<path stroke="#000000" stroke-width="2" d="M 751.4,44 751.1,44.9 750.8,45.7 750.4,46.4 750,47.1 749.6,47.8 749.1,48.4 748.7,48.9 748.2,49.4 747.7,49.9 747.2,50.2 746.6,50.6 746.1,50.9 745.5,51.2 745,51.4 744.4,51.6 743.8,51.7 743.2,51.9 742.6,51.9 742,52 741.4,52" />
<path stroke="#000000" stroke-width="2" d="M 781.4,70" />
<path stroke="#000000" stroke-width="2" d="M 781.4,30 796.7,67" />
<path stroke="#000000" stroke-width="2" d="M 803.4,70" />
<path stroke="#000000" stroke-width="2" d="M 803.4,20 803.4,40 803.4,34 803.4,33.1 803.5,32.3 803.6,31.4 803.8,30.6 804.1,29.7 804.5,28.9 804.9,28.2 805.4,27.5 806,26.8 806.6,26.2 807.3,25.6 808,25.1 808.8,24.7 809.6,24.3 810.4,24 811.2,23.8 812.1,23.6 812.9,23.6" />
<path stroke="#000000" stroke-width="2" d="M 819.6,70" />
<path stroke="#000000" stroke-width="2" d="M 819.6,30 819.6,31.4 819.7,32.8 820,34.2 820.3,35.5 820.8,36.8 821.4,38.1 822.1,39.3 822.9,40.4 823.8,41.5 824.8,42.5 825.9,43.4 827,44.2 828.2,44.9 829.5,45.5 830.8,46 832.1,46.3 833.5,46.6 834.9,46.7 836.3,46.7 837.7,46.6 839.1,46.3 840.4,46 841.7,45.5 843,44.9 844.2,44.2 845.3,43.4 846.4,42.5 847.4,41.5 848.3,40.4 849.1,39.3 849.8,38.1 850.4,36.8 850.9,35.5 851.2,34.2 851.5,32.8 851.6,31.4" />
<path stroke="#000000" stroke-width="2" d="M 858.2,70" />
<path stroke="#000000" stroke-width="2" d="M 858.2,30 858.4,30 858.4,30.2 858.2,30.2 858.2,30" />
<path stroke="#000000" stroke-width="2" d="M 888.4,70" />
<path stroke="#000000" stroke-width="2" d="M 888.4,70 888.6,70 888.6,70.2 888.4,70.2 888.4,70" />
<path stroke="#000000" stroke-width="2" d="M 918.6,70" />
<path stroke="#000000" stroke-width="2" d="M 928.6,30 927.8,30 926.9,30.1 926,30.2 925.2,30.5 924.4,30.8 923.6,31.1 922.8,31.6 922.1,32.1 921.5,32.6 920.8,33.2 920.3,33.9 919.8,34.6 919.3,35.4 919,36.2 918.7,37 918.4,37.8 918.3,38.7 918.2,39.6 918.2,40.4 918.3,41.3 918.4,42.2 918.7,43 919,43.8 919.3,44.6 919.8,45.4 920.3,46.1 920.8,46.7 921.5,47.4 922.1,47.9 922.8,48.4 923.6,48.9 924.4,49.2 925.2,49.5 926,49.8 926.9,49.9 927.8,50 947.8,50" />
<path stroke="#000000" stroke-width="2" d="M 977.8,70" />
<path stroke="#000000" stroke-width="2" d="M 977.8,30 977.8,70 989.1,58.7" />
<path stroke="#000000" stroke-width="2" d="M 995.8,70" />
<path stroke="#000000" stroke-width="2" d="M 995.8,25" />
<path stroke="#000000" stroke-width="2" d="M 995.8,25 997.8,24.9 999.4,24.6 1000.6,24.1 1001.5,23.6 1002.1,22.9 1002.4,22.2 1002.4,21.4 1002.2,20.7 1001.9,20 1001.4,19.4 1000.8,18.9 1000.1,18.5 999.3,18.3 998.6,18.4 997.9,18.7 997.2,19.2 996.6,20.1 996.2,21.4 995.9,23 995.8,25 995.8,40" />
<path stroke="#000000" stroke-width="2" d="M 1032.4,70" />
</svg>