<svg xmlns="http://www.w3.org/2000/svg" width="337.2090438854215" height="122.0" style="fill:none; stroke-linecap:round;">
    <rect width="100%" height="100%" fill="#FFFFFF" />
<path stroke="#000000" stroke-width="2" d="M 550,75" />
<path stroke="#000000" stroke-width="2" d="M 36,30 16.2,49.8 36,69.6" />
<path stroke="#000000" stroke-width="2" d="M 42.7,70" />
<path stroke="#000000" stroke-width="2" d="M 42.7,20 42.7,40 48.3,34.3" />
<path stroke="#000000" stroke-width="2" d="M 55,70" />
<path stroke="#000000" stroke-width="2" d="M 55,50 55.2,50 55.2,50.2 55,50.2 55,50" />
<path stroke="#000000" stroke-width="2" d="M 85.2,70" />
<path stroke="#000000" stroke-width="2" d="M 85.2,70 85.2,68.6 85.3,67.2 85.6,65.8 85.9,64.5 86.4,63.2 87,61.9 87.7,60.7 88.5,59.6 89.4,58.5 90.4,57.5 91.4,56.6 92.6,55.8 93.8,55.1 95.1,54.5 96.4,54 97.7,53.7 99.1,53.4 100.5,53.3 101.9,53.3 103.3,53.4 104.6,53.7 106,54 107.3,54.5 108.6,55.1 109.8,55.8 110.9,56.6 112,57.5 113,58.5 113.9,59.6 114.7,60.7 115.4,61.9 116,63.2 116.4,64.5 116.8,65.8 117,67.2 117.2,68.6" />
<path stroke="#000000" stroke-width="2" d="M 123.8,70" />
<path stroke="#000000" stroke-width="2" d="M 123.8,20 143.8,20" />
<path stroke="#000000" stroke-width="2" d="M 150.5,70" />
<path stroke="#000000" stroke-width="2" d="M 160.5,50 152.8,68.5" />
<path stroke="#000000" stroke-width="2" d="M 190.5,70" />
<path stroke="#000000" stroke-width="2" d="M 190.5,30 190.5,50 200.5,50" />
<path stroke="#000000" stroke-width="2" d="M 200.5,50 202.5,49.9 204.1,49.6 205.4,49.1 206.3,48.6 206.8,47.9 207.1,47.2 207.1,46.4 207,45.7 206.6,45 206.1,44.4 205.5,43.9 204.8,43.5 204.1,43.3 203.3,43.4 202.6,43.7 201.9,44.2 201.4,45.1 200.9,46.4 200.6,48 200.5,50 200.5,65" />
<path stroke="#000000" stroke-width="2" d="M 237.1,70" />
<path stroke="#000000" stroke-width="2" d="M 237.1,40 237.3,40 237.3,40.2 237.1,40.2 237.1,40" />
<path stroke="#000000" stroke-width="2" d="M 244,70" />
<path stroke="#000000" stroke-width="2" d="M 244,30 254,30 254,70" />
<path stroke="#000000" stroke-width="2" d="M 260.7,70" />
<path stroke="#000000" stroke-width="2" d="M 260.7,50 260.7,50.7 260.7,51.4 260.9,52.1 261,52.8 261.3,53.4 261.6,54 261.9,54.6 262.3,55.2 262.8,55.8 263.3,56.2 263.8,56.7 264.4,57.1 265,57.4 265.6,57.7 266.3,58 266.9,58.2 267.6,58.3 268.3,58.3 269,58.3 269.7,58.3 270.4,58.2 271.1,58 271.7,57.7 272.4,57.4 273,57.1 273.5,56.7 274.1,56.2 274.6,55.8 275,55.2 275.4,54.6 275.8,54 276.1,53.4 276.3,52.8 276.5,52.1 276.6,51.4 276.7,50.7" />
<path stroke="#000000" stroke-width="2" d="M 306.7,70" />
<path stroke="#000000" stroke-width="2" d="M 306.7,62 307.5,62 307.5,62.8 306.7,62.8 306.7,62" />
<path stroke="#000000" stroke-width="2" d="M 306.7,78" />
<path stroke="#000000" stroke-width="2" d="M 306.7,78 308.9,78.1 310.9,78.3 312.6,78.8 314,79.3 315.1,80.1 316,80.9 316.6,81.9 317,83 317.2,84.2 317.2,85.5 316.9,86.9 316.5,88.4 315.8,89.9 315,91.5 314,93.2 312.8,94.9 311.5,96.6 310,98.4 308.4,100.2 306.7,102" />
<path stroke="#000000" stroke-width="2" d="M 347.2,70" />
</svg>