<svg xmlns="http://www.w3.org/2000/svg" width="111.72191199231564" height="90.2" style="fill:none; stroke-linecap:round;">
    <rect width="100%" height="100%" fill="#FFFFFF" />
<path stroke="#000000" stroke-width="2" d="M 550,75" />
<path stroke="#000000" stroke-width="2" d="M 20,40 20.2,40 20.2,40.2 20,40.2 20,40" />
<path stroke="#000000" stroke-width="2" d="M 26.9,70" />
<path stroke="#000000" stroke-width="2" d="M 42.9,30 23.1,49.8 42.9,69.6" />
<path stroke="#000000" stroke-width="2" d="M 49.5,70" />
<path stroke="#000000" stroke-width="2" d="M 49.5,50 49.5,54 49.5,54.5 49.6,55 49.7,55.6 49.8,56.1 50,56.6 50.2,57 50.5,57.5 50.8,57.9 51.1,58.3 51.5,58.7 51.9,59 52.3,59.3 52.8,59.6 53.2,59.8 53.7,60 54.2,60.1 54.7,60.2 55.3,60.3 55.8,60.3 56.3,60.2 56.8,60.1 57.3,60 57.8,59.8 58.3,59.6 58.8,59.3 59.2,59 59.6,58.7 60,58.3 60.3,57.9 60.6,57.5 60.8,57 61.1,56.6 61.2,56.1 61.4,55.6 61.5,55 61.5,54.5 61.5,49.5 61.5,69.5" />
<path stroke="#000000" stroke-width="2" d="M 91.5,70" />
<path stroke="#000000" stroke-width="2" d="M 91.5,70 91.7,70 91.7,70.2 91.5,70.2 91.5,70" />
<path stroke="#000000" stroke-width="2" d="M 121.7,70" />
</svg>