<svg xmlns="http://www.w3.org/2000/svg" width="1491.4003276767073" height="122.0" style="fill:none; stroke-linecap:round;">
    <rect width="100%" height="100%" fill="#FFFFFF" />
<path stroke="#000000" stroke-width="2" d="M 550,75" />
<path stroke="#000000" stroke-width="2" d="M 36,30 16.2,49.8 36,69.6" />
<path stroke="#000000" stroke-width="2" d="M 42.7,70" />
<path stroke="#000000" stroke-width="2" d="M 42.7,50 50.3,68.5" />
<path stroke="#000000" stroke-width="2" d="M 57,70" />
<path stroke="#000000" stroke-width="2" d="M 57,20 77,20" />
<path stroke="#000000" stroke-width="2" d="M 107,70" />
<path stroke="#000000" stroke-width="2" d="M 107,62 107.8,62 107.8,62.8 107,62.8 107,62" />
<path stroke="#000000" stroke-width="2" d="M 107,78" />
<path stroke="#000000" stroke-width="2" d="M 107,78 109.2,78.1 111.2,78.3 112.9,78.8 114.3,79.3 115.4,80.1 116.3,80.9 117,81.9 117.4,83 117.5,84.2 117.5,85.5 117.2,86.9 116.8,88.4 116.1,89.9 115.3,91.5 114.3,93.2 113.1,94.9 111.8,96.6 110.3,98.4 108.7,100.2 107,102" />
<path stroke="#000000" stroke-width="2" d="M 147.5,70" />
<path stroke="#000000" stroke-width="2" d="M 147.5,40 147.7,40 147.7,40.2 147.5,40.2 147.5,40" />
<path stroke="#000000" stroke-width="2" d="M 154.4,70" />
<path stroke="#000000" stroke-width="2" d="M 154.4,30 154.4,70 154.4,58 154.4,56.3 154.5,54.5 154.9,52.8 155.3,51.1 155.9,49.5 156.6,47.9 157.5,46.4 158.5,45 159.6,43.6 160.9,42.4 162.2,41.3 163.6,40.3 165.1,39.4 166.7,38.7 168.4,38.1 170,37.6 171.8,37.3 173.5,37.1" />
<path stroke="#000000" stroke-width="2" d="M 180.2,70" />
<path stroke="#000000" stroke-width="2" d="M 180.2,20 180.2,20.7 180.2,21.4 180.4,22.1 180.5,22.8 180.8,23.4 181.1,24 181.4,24.6 181.8,25.2 182.3,25.8 182.8,26.2 183.3,26.7 183.9,27.1 184.5,27.4 185.1,27.7 185.8,28 186.4,28.2 187.1,28.3 187.8,28.3 188.5,28.3 189.2,28.3 189.9,28.2 190.6,28 191.2,27.7 191.9,27.4 192.5,27.1 193,26.7 193.6,26.2 194.1,25.8 194.5,25.2 194.9,24.6 195.3,24 195.6,23.4 195.8,22.8 196,22.1 196.1,21.4 196.2,20.7" />
<path stroke="#000000" stroke-width="2" d="M 202.8,70" />
<path stroke="#000000" stroke-width="2" d="M 212.8,20 205.2,38.5" />
<path stroke="#000000" stroke-width="2" d="M 219.5,70" />
<path stroke="#000000" stroke-width="2" d="M 219.5,30 227.1,48.5 234.8,30 234.8,30.7 234.9,31.4 235,32.1 235.2,32.8 235.4,33.4 235.7,34 236,34.6 236.4,35.2 236.9,35.8 237.4,36.2 237.9,36.7 238.5,37.1 239.1,37.4 239.7,37.7 240.4,38 241.1,38.2 241.7,38.3 242.4,38.3 243.1,38.3 243.8,38.3 244.5,38.2 245.2,38 245.9,37.7 246.5,37.4 247.1,37.1 247.7,36.7 248.2,36.2 248.7,35.8 249.1,35.2 249.5,34.6 249.9,34 250.2,33.4 250.4,32.8 250.6,32.1 250.7,31.4 250.8,30.7" />
<path stroke="#000000" stroke-width="2" d="M 257.4,70" />
<path stroke="#000000" stroke-width="2" d="M 257.4,30 257.6,30 257.6,30.2 257.4,30.2 257.4,30" />
<path stroke="#000000" stroke-width="2" d="M 287.6,70" />
<path stroke="#000000" stroke-width="2" d="M 291.6,30 308.6,47" />
<path stroke="#000000" stroke-width="2" d="M 325.6,30 286,69.6" />
<path stroke="#000000" stroke-width="2" d="M 332.3,70" />
<path stroke="#000000" stroke-width="2" d="M 344.3,56 344.3,56.5 344.2,57 344.1,57.6 344,58.1 343.8,58.6 343.6,59 343.3,59.5 343,59.9 342.7,60.3 342.3,60.7 341.9,61 341.5,61.3 341,61.6 340.6,61.8 340.1,62 339.6,62.1 339,62.2 338.5,62.3 338,62.3 337.5,62.2 337,62.1 336.5,62 336,61.8 335.5,61.6 335,61.3 334.6,61 334.2,60.7 333.8,60.3 333.5,59.9 333.2,59.5 332.9,59 332.7,58.6 332.5,58.1 332.4,57.6 332.3,57 332.3,56.5 332.3,56 332.3,55.5 332.4,55 332.5,54.5 332.7,54 332.9,53.5 333.2,53 333.5,52.6 333.8,52.2 334.2,51.8 334.6,51.5 335,51.2 335.5,50.9 336,50.7 336.5,50.5 337,50.4 337.5,50.3 338,50.3 338.5,50.3 339,50.3 339.6,50.4 340.1,50.5 340.6,50.7 341,50.9 341.5,51.2 341.9,51.5 342.3,51.8 342.7,52.2 343,52.6 343.3,53 343.6,53.5 343.8,54 344,54.5 344.1,55 344.2,55.5 344.3,56 344.3,60" />
<path stroke="#000000" stroke-width="2" d="M 344.3,60 343.9,60.9 343.6,61.7 343.2,62.4 342.8,63.1 342.4,63.8 342,64.4 341.5,64.9 341,65.4 340.5,65.9 340,66.2 339.5,66.6 338.9,66.9 338.4,67.2 337.8,67.4 337.2,67.6 336.6,67.7 336.1,67.9 335.5,67.9 334.9,68 334.3,68" />
<path stroke="#000000" stroke-width="2" d="M 374.3,70" />
<path stroke="#000000" stroke-width="2" d="M 374.3,30 389.6,67" />
<path stroke="#000000" stroke-width="2" d="M 396.2,70" />
<path stroke="#000000" stroke-width="2" d="M 396.2,20 416.2,20" />
<path stroke="#000000" stroke-width="2" d="M 446.2,70" />
<path stroke="#000000" stroke-width="2" d="M 446.2,30 446.2,70 457.5,58.7" />
<path stroke="#000000" stroke-width="2" d="M 464.2,70" />
<path stroke="#000000" stroke-width="2" d="M 484.2,70 486,70 487.7,69.8 489.4,69.5 491.1,69.1 492.7,68.5 494.3,67.8 495.8,66.9 497.3,65.9 498.6,64.8 499.8,63.5 501,62.2 502,60.8 502.8,59.3 503.6,57.7 504.2,56 504.6,54.3 504.9,52.6 505.1,50.9 505.1,49.1 504.9,47.4 504.6,45.7 504.2,44 503.6,42.4 502.8,40.8 502,39.3 501,37.8 499.8,36.5 498.6,35.3 497.3,34.2 495.8,33.2 494.3,32.3 492.7,31.5 491.1,30.9 489.4,30.5 487.7,30.2 486,30 484.2,30 482.5,30.2 480.8,30.5 479.1,30.9 477.4,31.5 475.8,32.3 474.3,33.2 472.9,34.2 471.6,35.3 470.3,36.5 469.2,37.8 468.2,39.3 467.3,40.8 466.6,42.4 466,44 465.6,45.7 465.3,47.4 465.1,49.1 465.1,50.9 465.3,52.6 465.6,54.3 466,56 466.6,57.7 467.3,59.3 468.2,60.8 469.2,62.2 470.3,63.5 471.6,64.8 472.9,65.9 474.3,66.9 475.8,67.8 477.4,68.5 479.1,69.1 480.8,69.5 482.5,69.8 484.2,70" />
<path stroke="#000000" stroke-width="2" d="M 535.1,70" />
<path stroke="#000000" stroke-width="2" d="M 535.1,70 535.3,70 535.3,70.2 535.1,70.2 535.1,70" />
<path stroke="#000000" stroke-width="2" d="M 541.9,70" />
<path stroke="#000000" stroke-width="2" d="M 541.9,30 545.8,39.2" />
<path stroke="#000000" stroke-width="2" d="M 545.8,39.2 547.7,41.4 549,43.3 549.8,45 550.1,46.4 550,47.7 549.5,48.7 548.8,49.5 547.9,50 546.9,50.4 545.8,50.5 544.6,50.4 543.6,50 542.7,49.5 542,48.7 541.5,47.7 541.4,46.4 541.7,45 542.5,43.3 543.8,41.4 545.8,39.2 549.6,30 569.6,30 569.6,30.7 569.6,31.4 569.8,32.1 569.9,32.8 570.2,33.4 570.5,34 570.8,34.6 571.2,35.2 571.7,35.8 572.2,36.2 572.7,36.7 573.3,37.1 573.9,37.4 574.5,37.7 575.2,38 575.8,38.2 576.5,38.3 577.2,38.3 577.9,38.3 578.6,38.3 579.3,38.2 580,38 580.6,37.7 581.3,37.4 581.9,37.1 582.4,36.7 583,36.2 583.5,35.8 583.9,35.2 584.3,34.6 584.7,34 585,33.4 585.2,32.8 585.4,32.1 585.5,31.4 585.6,30.7" />
<path stroke="#000000" stroke-width="2" d="M 592.2,70" />
<path stroke="#000000" stroke-width="2" d="M 592.2,50 592.2,49.3 592.3,48.6 592.4,47.9 592.6,47.2 592.8,46.6 593.1,46 593.5,45.4 593.9,44.8 594.3,44.2 594.8,43.8 595.4,43.3 595.9,42.9 596.5,42.6 597.2,42.3 597.8,42 598.5,41.8 599.2,41.7 599.9,41.7 600.6,41.7 601.3,41.7 602,41.8 602.6,42 603.3,42.3 603.9,42.6 604.5,42.9 605.1,43.3 605.6,43.8 606.1,44.2 606.6,44.8 607,45.4 607.3,46 607.6,46.6 607.9,47.2 608,47.9 608.2,48.6 608.2,49.3 608.2,50 608.3,50.7 608.4,51.4 608.6,52.1 608.8,52.7 609.1,53.3 609.5,53.9 609.9,54.5 610.3,55.1 610.8,55.5 611.3,56 611.9,56.4 612.5,56.7 613.2,57 613.8,57.3 614.5,57.5 615.2,57.6 615.9,57.6 616.6,57.6 617.3,57.6 617.9,57.5 618.6,57.3 619.3,57 619.9,56.7 620.5,56.4 621.1,56 621.6,55.5 622.1,55.1 622.6,54.5 623,53.9 623.3,53.3 623.6,52.7 623.8,52.1 624,51.4 624.1,50.7 624.2,50" />
<path stroke="#000000" stroke-width="2" d="M 630.9,70" />
<path stroke="#000000" stroke-width="2" d="M 630.9,30 631.1,30 631.1,30.2 630.9,30.2 630.9,30" />
<path stroke="#000000" stroke-width="2" d="M 661.1,70" />
<path stroke="#000000" stroke-width="2" d="M 661.1,30 701.1,30" />
<path stroke="#000000" stroke-width="2" d="M 707.7,70" />
<path stroke="#000000" stroke-width="2" d="M 707.7,20 715.4,38.5" />
<path stroke="#000000" stroke-width="2" d="M 745.4,70" />
<path stroke="#000000" stroke-width="2" d="M 755.4,30 754.5,30 753.7,30.1 752.8,30.2 751.9,30.5 751.1,30.8 750.3,31.1 749.6,31.6 748.9,32.1 748.2,32.6 747.6,33.2 747,33.9 746.5,34.6 746.1,35.4 745.7,36.2 745.4,37 745.2,37.8 745,38.7 745,39.6 745,40.4 745,41.3 745.2,42.2 745.4,43 745.7,43.8 746.1,44.6 746.5,45.4 747,46.1 747.6,46.7 748.2,47.4 748.9,47.9 749.6,48.4 750.3,48.9 751.1,49.2 751.9,49.5 752.8,49.8 753.7,49.9 754.5,50 759.5,50 759.5,70" />
<path stroke="#000000" stroke-width="2" d="M 789.5,70" />
<path stroke="#000000" stroke-width="2" d="M 789.5,30 789.5,31.4 789.6,32.8 789.9,34.2 790.2,35.5 790.7,36.8 791.3,38.1 792,39.3 792.8,40.4 793.7,41.5 794.7,42.5 795.8,43.4 796.9,44.2 798.1,44.9 799.4,45.5 800.7,46 802,46.3 803.4,46.6 804.8,46.7 806.2,46.7 807.6,46.6 809,46.3 810.3,46 811.6,45.5 812.9,44.9 814.1,44.2 815.2,43.4 816.3,42.5 817.3,41.5 818.2,40.4 819,39.3 819.7,38.1 820.3,36.8 820.8,35.5 821.1,34.2 821.4,32.8 821.5,31.4" />
<path stroke="#000000" stroke-width="2" d="M 828.2,70" />
<path stroke="#000000" stroke-width="2" d="M 828.2,20 828.2,40 828.2,34 828.2,33.1 828.2,32.3 828.4,31.4 828.6,30.6 828.9,29.7 829.3,28.9 829.7,28.2 830.2,27.5 830.8,26.8 831.4,26.2 832.1,25.6 832.8,25.1 833.5,24.7 834.3,24.3 835.1,24 836,23.8 836.8,23.6 837.7,23.6" />
<path stroke="#000000" stroke-width="2" d="M 844.4,70" />
<path stroke="#000000" stroke-width="2" d="M 844.4,50 844.6,50 844.6,50.2 844.4,50.2 844.4,50" />
<path stroke="#000000" stroke-width="2" d="M 874.6,70" />
<path stroke="#000000" stroke-width="2" d="M 874.6,70" />
<path stroke="#000000" stroke-width="2" d="M 874.6,70 875.7,70 876.7,70.2 877.5,70.4 878.2,70.7 878.8,71 879.2,71.5 879.6,71.9 879.8,72.5 879.8,73.1 879.8,73.8 879.7,74.4 879.5,75.2 879.2,76 878.7,76.8 878.2,77.6 877.6,78.4 877,79.3 876.3,80.2 875.4,81.1 874.6,82" />
<path stroke="#000000" stroke-width="2" d="M 909.8,70" />
<path stroke="#000000" stroke-width="2" d="M 925.8,30 925.8,60" />
<path stroke="#000000" stroke-width="2" d="M 925.8,60 925.6,64.1 925,67.3 924.1,69.8 923,71.5 921.6,72.7 920.2,73.2 918.7,73.3 917.2,73 915.8,72.3 914.6,71.2 913.6,70 912.9,68.6 912.5,67.2 912.6,65.7 913.2,64.2 914.3,62.9 916.1,61.7 918.6,60.8 921.8,60.2 925.8,60" />
<path stroke="#000000" stroke-width="2" d="M 932.5,70" />
<path stroke="#000000" stroke-width="2" d="M 932.5,50 932.5,70 932.5,64 932.5,63.1 932.6,62.3 932.7,61.4 933,60.6 933.3,59.7 933.6,58.9 934.1,58.2 934.6,57.5 935.1,56.8 935.8,56.2 936.4,55.6 937.1,55.1 937.9,54.7 938.7,54.3 939.5,54 940.3,53.8 941.2,53.6 942.1,53.6 934.4,72.1" />
<path stroke="#000000" stroke-width="2" d="M 972.1,70" />
<path stroke="#000000" stroke-width="2" d="M 972.1,30 982.1,30 982.1,70" />
<path stroke="#000000" stroke-width="2" d="M 988.7,70" />
<path stroke="#000000" stroke-width="2" d="M 988.7,50 988.7,70 988.7,64 988.7,63.1 988.8,62.3 989,61.4 989.2,60.6 989.5,59.7 989.9,58.9 990.3,58.2 990.8,57.5 991.4,56.8 992,56.2 992.6,55.6 993.4,55.1 994.1,54.7 994.9,54.3 995.7,54 996.6,53.8 997.4,53.6 998.3,53.6" />
<path stroke="#000000" stroke-width="2" d="M 1028.3,70" />
<path stroke="#000000" stroke-width="2" d="M 1028.3,30 1028.3,70" />
<path stroke="#000000" stroke-width="2" d="M 1035,70" />
<path stroke="#000000" stroke-width="2" d="M 1039,70 1049.7,44.1 1049.9,43.5 1050.2,42.8 1050.3,42.1 1050.4,41.4 1050.4,40.8 1050.4,40.1 1050.3,39.4 1050.2,38.7 1049.9,38 1049.7,37.4 1049.4,36.8 1049,36.2 1048.6,35.6 1048.1,35.1 1047.6,34.6 1047,34.2 1046.4,33.8 1045.8,33.5 1045.2,33.2 1044.5,33 1043.8,32.9 1043.1,32.8 1042.4,32.8 1041.7,32.8 1041,32.9 1040.4,33 1039.7,33.2 1039,33.5 1038.4,33.8 1037.8,34.2 1037.3,34.6 1036.8,35.1 1036.3,35.6 1035.9,36.2 1035.5,36.8 1035.2,37.4 1034.9,38 1034.7,38.7 1034.5,39.4 1034.5,40.1 1034.4,40.8 1034.5,41.4 1034.5,42.1 1034.7,42.8 1034.9,43.5 1035.2,44.1 1035.5,44.8 1035.9,45.3 1036.3,45.9 1036.8,46.4 1037.3,46.9 1037.8,47.3 1038.4,47.7 1039,48 1039.7,48.3 1040.4,48.5 1041,48.6 1041.7,48.7 1042.4,48.8 1043.1,48.7 1069,38" />
<path stroke="#000000" stroke-width="2" d="M 1099,70" />
<path stroke="#000000" stroke-width="2" d="M 1099,30 1099,31.4 1099.1,32.8 1099.4,34.2 1099.7,35.5 1100.2,36.8 1100.8,38.1 1101.5,39.3 1102.3,40.4 1103.2,41.5 1104.2,42.5 1105.2,43.4 1106.4,44.2 1107.6,44.9 1108.9,45.5 1110.2,46 1111.5,46.3 1112.9,46.6 1114.3,46.7 1115.7,46.7 1117.1,46.6 1118.4,46.3 1119.8,46 1121.1,45.5 1122.4,44.9 1123.6,44.2 1124.7,43.4 1125.8,42.5 1126.8,41.5 1127.7,40.4 1128.5,39.3 1129.2,38.1 1129.8,36.8 1130.2,35.5 1130.6,34.2 1130.8,32.8 1131,31.4" />
<path stroke="#000000" stroke-width="2" d="M 1137.6,70" />
<path stroke="#000000" stroke-width="2" d="M 1137.6,30 1137.6,31.4 1137.7,32.8 1138,34.2 1138.4,35.5 1138.8,36.8 1139.4,38.1 1140.1,39.3 1140.9,40.4 1141.8,41.5 1142.8,42.5 1143.9,43.4 1145,44.2 1146.2,44.9 1147.5,45.5 1148.8,46 1150.1,46.3 1151.5,46.6 1152.9,46.7 1154.3,46.7 1155.7,46.6 1157.1,46.3 1158.4,46 1159.7,45.5 1161,44.9 1162.2,44.2 1163.3,43.4 1164.4,42.5 1165.4,41.5 1166.3,40.4 1167.1,39.3 1167.8,38.1 1168.4,36.8 1168.9,35.5 1169.2,34.2 1169.5,32.8 1169.6,31.4" />
<path stroke="#000000" stroke-width="2" d="M 1176.3,70" />
<path stroke="#000000" stroke-width="2" d="M 1180.3,70 1191,44.1 1191.2,43.5 1191.5,42.8 1191.6,42.1 1191.7,41.4 1191.7,40.8 1191.7,40.1 1191.6,39.4 1191.5,38.7 1191.2,38 1191,37.4 1190.7,36.8 1190.3,36.2 1189.9,35.6 1189.4,35.1 1188.9,34.6 1188.3,34.2 1187.7,33.8 1187.1,33.5 1186.5,33.2 1185.8,33 1185.1,32.9 1184.4,32.8 1183.7,32.8 1183,32.8 1182.3,32.9 1181.7,33 1181,33.2 1180.3,33.5 1179.7,33.8 1179.1,34.2 1178.6,34.6 1178.1,35.1 1177.6,35.6 1177.2,36.2 1176.8,36.8 1176.5,37.4 1176.2,38 1176,38.7 1175.8,39.4 1175.8,40.1 1175.7,40.8 1175.8,41.4 1175.8,42.1 1176,42.8 1176.2,43.5 1176.5,44.1 1176.8,44.8 1177.2,45.3 1177.6,45.9 1178.1,46.4 1178.6,46.9 1179.1,47.3 1179.7,47.7 1180.3,48 1181,48.3 1181.7,48.5 1182.3,48.6 1183,48.7 1183.7,48.8 1184.4,48.7 1210.3,38" />
<path stroke="#000000" stroke-width="2" d="M 1240.3,70" />
<path stroke="#000000" stroke-width="2" d="M 1240.3,30 1240.3,70 1240.3,58 1240.3,56.3 1240.4,54.5 1240.7,52.8 1241.2,51.1 1241.8,49.5 1242.5,47.9 1243.4,46.4 1244.4,45 1245.5,43.6 1246.8,42.4 1248.1,41.3 1249.5,40.3 1251,39.4 1252.6,38.7 1254.3,38.1 1255.9,37.6 1257.7,37.3 1259.4,37.1" />
<path stroke="#000000" stroke-width="2" d="M 1266.1,70" />
<path stroke="#000000" stroke-width="2" d="M 1286.1,30 1284.3,30 1282.6,30.2 1280.9,30.5 1279.2,30.9 1277.5,31.5 1276,32.2 1274.4,33.1 1273,34.1 1271.7,35.2 1270.4,36.5 1269.3,37.8 1268.3,39.2 1267.5,40.7 1266.7,42.3 1266.1,44 1265.7,45.7 1265.4,47.4 1265.2,49.1 1265.2,50.9 1265.4,52.6 1265.7,54.3 1266.1,56 1266.7,57.6 1267.5,59.2 1268.3,60.7 1269.3,62.2 1270.4,63.5 1271.7,64.7 1273,65.8 1274.4,66.8 1276,67.7 1277.5,68.5 1279.2,69.1 1280.9,69.5 1282.6,69.8 1284.3,70" />
<path stroke="#000000" stroke-width="2" d="M 1316.1,70" />
<path stroke="#000000" stroke-width="2" d="M 1332.1,30" />
<path stroke="#000000" stroke-width="2" d="M 1332.1,30 1331.9,34.1 1331.3,37.3 1330.3,39.8 1329.2,41.5 1327.8,42.7 1326.4,43.2 1324.9,43.3 1323.4,43 1322,42.3 1320.8,41.2 1319.8,40 1319.1,38.6 1318.8,37.2 1318.8,35.7 1319.4,34.2 1320.5,32.9 1322.3,31.7 1324.8,30.8 1328,30.2 1332.1,30 1352.1,30" />
<path stroke="#000000" stroke-width="2" d="M 1358.7,70" />
<path stroke="#000000" stroke-width="2" d="M 1374.7,30 1354.9,49.8 1374.7,69.6" />
<path stroke="#000000" stroke-width="2" d="M 1381.4,70" />
<path stroke="#000000" stroke-width="2" d="M 1401.4,30 1399.7,30 1397.9,30.2 1396.2,30.5 1394.5,30.9 1392.9,31.5 1391.3,32.2 1389.8,33.1 1388.4,34.1 1387,35.2 1385.8,36.5 1384.7,37.8 1383.7,39.2 1382.8,40.7 1382.1,42.3 1381.5,44 1381,45.7 1380.7,47.4 1380.5,49.1 1380.5,50.9 1380.7,52.6 1381,54.3 1381.5,56 1382.1,57.6 1382.8,59.2 1383.7,60.7 1384.7,62.2 1385.8,63.5 1387,64.7 1388.4,65.8 1389.8,66.8 1391.3,67.7 1392.9,68.5 1394.5,69.1 1396.2,69.5 1397.9,69.8 1399.7,70" />
<path stroke="#000000" stroke-width="2" d="M 1431.4,70" />
<path stroke="#000000" stroke-width="2" d="M 1431.4,30 1471.4,30" />
<path stroke="#000000" stroke-width="2" d="M 1501.4,70" />
</svg>