<svg xmlns="http://www.w3.org/2000/svg" width="1288.1654921263387" height="104.98096443163716" style="fill:none; stroke-linecap:round;">
    <rect width="100%" height="100%" fill="#FFFFFF" />
<path stroke="#000000" stroke-width="2" d="M 550,75" />
<path stroke="#000000" stroke-width="2" d="M 20,50 27.7,31.5 32.7,31.5 32.7,51.5 25,70 27.3,64.5 27.6,63.7 28,62.9 28.5,62.1 29,61.4 29.6,60.8 30.3,60.2 31,59.7 31.7,59.2 32.5,58.8 33.3,58.5 34.1,58.2 35,58" />
<path stroke="#000000" stroke-width="2" d="M 65,70" />
<path stroke="#000000" stroke-width="2" d="M 65,40 65.2,40 65.2,40.2 65,40.2 65,40" />
<path stroke="#000000" stroke-width="2" d="M 71.8,70" />
<path stroke="#000000" stroke-width="2" d="M 71.8,30 81.8,30 81.8,70" />
<path stroke="#000000" stroke-width="2" d="M 88.5,70" />
<path stroke="#000000" stroke-width="2" d="M 88.5,50 88.7,50 88.7,50.2 88.5,50.2 88.5,50" />
<path stroke="#000000" stroke-width="2" d="M 118.7,70" />
<path stroke="#000000" stroke-width="2" d="M 118.7,40" />
<path stroke="#000000" stroke-width="2" d="M 118.7,40 122.8,39.8 126,39.2 128.4,38.3 130.2,37.1 131.3,35.8 131.9,34.3 132,32.8 131.6,31.4 130.9,30 129.9,28.8 128.7,27.7 127.3,27 125.9,26.7 124.4,26.8 122.9,27.3 121.6,28.5 120.4,30.2 119.5,32.7 118.9,35.9 118.7,40 118.7,70" />
<path stroke="#000000" stroke-width="2" d="M 138.7,70" />
<path stroke="#000000" stroke-width="2" d="M 138.7,40 138.7,39.3 138.7,38.6 138.8,37.9 139,37.2 139.3,36.6 139.6,36 139.9,35.4 140.3,34.8 140.8,34.2 141.3,33.8 141.8,33.3 142.4,32.9 143,32.6 143.6,32.3 144.3,32 144.9,31.8 145.6,31.7 146.3,31.7 147,31.7 147.7,31.7 148.4,31.8 149.1,32 149.7,32.3 150.4,32.6 151,32.9 151.5,33.3 152.1,33.8 152.6,34.2 153,34.8 153.4,35.4 153.8,36 154,36.6 154.3,37.2 154.5,37.9 154.6,38.6 154.7,39.3" />
<path stroke="#000000" stroke-width="2" d="M 161.3,70" />
<path stroke="#000000" stroke-width="2" d="M 161.3,50 181.3,50 182.2,50 183.1,50.1 183.9,50.2 184.8,50.5 185.6,50.8 186.4,51.1 187.1,51.6 187.8,52.1 188.5,52.6 189.1,53.2 189.7,53.9 190.2,54.6 190.6,55.4 191,56.2 191.3,57 191.5,57.8 191.7,58.7 191.7,59.6 191.7,60.4 191.7,61.3 191.5,62.2 191.3,63 191,63.8 190.6,64.6 190.2,65.4 189.7,66.1 189.1,66.7 188.5,67.4 187.8,67.9 187.1,68.4 186.4,68.9 185.6,69.2 184.8,69.5 183.9,69.8 183.1,69.9 182.2,70" />
<path stroke="#000000" stroke-width="2" d="M 182.2,70 184.2,69.9 185.8,69.6 187.1,69.1 187.9,68.5 188.5,67.9 188.8,67.1 188.8,66.4 188.7,65.7 188.3,65 187.8,64.4 187.2,63.9 186.5,63.5 185.8,63.3 185,63.4 184.3,63.7 183.6,64.2 183,65.1 182.6,66.3 182.3,68 182.2,70 182.2,85" />
<path stroke="#000000" stroke-width="2" d="M 221.7,70" />
<path stroke="#000000" stroke-width="2" d="M 221.7,70 221.9,70 221.9,70.2 221.7,70.2 221.7,70" />
<path stroke="#000000" stroke-width="2" d="M 251.9,70" />
<path stroke="#000000" stroke-width="2" d="M 251.9,70 252.1,70 252.1,70.2 251.9,70.2 251.9,70" />
<path stroke="#000000" stroke-width="2" d="M 258.8,70" />
<path stroke="#000000" stroke-width="2" d="M 268.8,30 267.9,30 267.1,30.1 266.2,30.2 265.4,30.5 264.5,30.8 263.8,31.1 263,31.6 262.3,32.1 261.6,32.6 261,33.2 260.4,33.9 259.9,34.6 259.5,35.4 259.1,36.2 258.8,37 258.6,37.8 258.5,38.7 258.4,39.6 258.4,40.4 258.5,41.3 258.6,42.2 258.8,43 259.1,43.8 259.5,44.6 259.9,45.4 260.4,46.1 261,46.7 261.6,47.4 262.3,47.9 263,48.4 263.8,48.9 264.5,49.2 265.4,49.5 266.2,49.8 267.1,49.9 267.9,50 287.9,50 287.9,50.7 288,51.4 288.1,52.1 288.3,52.7 288.5,53.4 288.8,54 289.2,54.6 289.6,55.2 290,55.7 290.5,56.2 291.1,56.7 291.6,57.1 292.2,57.4 292.9,57.7 293.5,58 294.2,58.1 294.9,58.3 295.6,58.3 296.3,58.3 297,58.3 297.7,58.1 298.3,58 299,57.7 299.6,57.4 300.2,57.1 300.8,56.7 301.3,56.2 301.8,55.7 302.3,55.2 302.7,54.6 303,54 303.3,53.4 303.6,52.7 303.7,52.1 303.9,51.4 303.9,50.7" />
<path stroke="#000000" stroke-width="2" d="M 310.6,70" />
<path stroke="#000000" stroke-width="2" d="M 310.6,30 310.8,30 310.8,30.2 310.6,30.2 310.6,30" />
<path stroke="#000000" stroke-width="2" d="M 340.8,70" />
<path stroke="#000000" stroke-width="2" d="M 364.8,42" />
<path stroke="#000000" stroke-width="2" d="M 364.8,42 360.7,41.8 357.5,41.2 355,40.3 353.3,39.1 352.1,37.8 351.6,36.3 351.5,34.8 351.8,33.4 352.5,32 353.5,30.8 354.8,29.7 356.1,29 357.6,28.7 359.1,28.8 360.6,29.3 361.9,30.5 363.1,32.2 364,34.7 364.6,37.9 364.8,42 364.8,50" />
<path stroke="#000000" stroke-width="2" d="M 364.8,50 364.2,51.7 363.5,53.4 362.7,54.9 361.9,56.3 361.1,57.6 360.2,58.7 359.3,59.8 358.3,60.8 357.3,61.7 356.3,62.5 355.2,63.2 354.1,63.8 353,64.4 351.9,64.8 350.7,65.2 349.6,65.5 348.4,65.7 347.2,65.9 346,66 344.8,66" />
<path stroke="#000000" stroke-width="2" d="M 394.8,70" />
<path stroke="#000000" stroke-width="2" d="M 394.8,30 394.8,70 414.8,70" />
<path stroke="#000000" stroke-width="2" d="M 444.8,70" />
<path stroke="#000000" stroke-width="2" d="M 444.8,70 444.8,68.6 444.9,67.2 445.2,65.8 445.5,64.5 446,63.2 446.6,61.9 447.3,60.7 448.1,59.6 449,58.5 450,57.5 451,56.6 452.2,55.8 453.4,55.1 454.7,54.5 456,54 457.3,53.7 458.7,53.4 460.1,53.3 461.5,53.3 462.9,53.4 464.2,53.7 465.6,54 466.9,54.5 468.2,55.1 469.4,55.8 470.5,56.6 471.6,57.5 472.6,58.5 473.5,59.6 474.3,60.7 475,61.9 475.6,63.2 476,64.5 476.4,65.8 476.6,67.2 476.8,68.6" />
<path stroke="#000000" stroke-width="2" d="M 483.4,70" />
<path stroke="#000000" stroke-width="2" d="M 483.4,50" />
<path stroke="#000000" stroke-width="2" d="M 483.4,50 483.6,50 484,50 484.6,50 485.5,50.1 486.6,50.2 487.7,50.3 489.1,50.4 490.5,50.6 491.9,50.9 493.4,51.2 494.9,51.7 496.4,52.2 497.8,52.7 499.1,53.4 500.3,54.2 501.3,55.1 502.2,56.1 502.9,57.3 503.3,58.6 503.4,60" />
<path stroke="#000000" stroke-width="2" d="M 503.4,60 505.3,62.1 506.7,64.1 507.4,65.7 507.7,67.2 507.6,68.4 507.2,69.5 506.5,70.2 505.6,70.8 504.5,71.1 503.4,71.2 502.3,71.1 501.3,70.8 500.4,70.2 499.6,69.5 499.2,68.4 499.1,67.2 499.4,65.7 500.2,64 501.5,62.1 503.4,60" />
<path stroke="#000000" stroke-width="2" d="M 503.4,60 503.4,59.9 503.4,59.7 503.5,59.4 503.6,59 503.7,58.4 504,57.8 504.3,57.2 504.7,56.5 505.2,55.7 505.9,55 506.8,54.3 507.7,53.5 508.9,52.8 510.3,52.2 511.9,51.6 513.7,51 515.7,50.6 518,50.3 520.6,50.1 523.4,50 523.4,50.7 523.5,51.4 523.6,52.1 523.8,52.8 524,53.4 524.3,54 524.7,54.6 525.1,55.2 525.5,55.8 526,56.2 526.5,56.7 527.1,57.1 527.7,57.4 528.4,57.7 529,58 529.7,58.2 530.4,58.3 531.1,58.3 531.8,58.3 532.5,58.3 533.1,58.2 533.8,58 534.5,57.7 535.1,57.4 535.7,57.1 536.3,56.7 536.8,56.2 537.3,55.8 537.8,55.2 538.2,54.6 538.5,54 538.8,53.4 539,52.8 539.2,52.1 539.3,51.4 539.4,50.7 540.3,50.7 541.2,50.8 542,50.9 542.9,51.2 543.7,51.4 544.5,51.8 545.2,52.3 545.9,52.8 546.6,53.3 547.2,53.9 547.8,54.6 548.3,55.3 548.7,56.1 549.1,56.9 549.4,57.7 549.6,58.5 549.8,59.4 549.8,60.3 549.8,61.1 549.8,62 549.6,62.9 549.4,63.7 549.1,64.5 548.7,65.3 548.3,66.1 547.8,66.8 547.2,67.4 546.6,68.1 545.9,68.6 545.2,69.1 544.5,69.6 543.7,69.9 542.9,70.2 542,70.5 541.2,70.6 540.3,70.7" />
<path stroke="#000000" stroke-width="2" d="M 579.8,70" />
<path stroke="#000000" stroke-width="2" d="M 579.8,50 587.5,31.5 595.1,50 605,59.9 595.1,69.8" />
<path stroke="#000000" stroke-width="2" d="M 611.7,70" />
<path stroke="#000000" stroke-width="2" d="M 611.7,70 619.4,51.5 619.4,52.2 619.4,52.9 619.5,53.6 619.7,54.3 620,54.9 620.3,55.6 620.6,56.2 621,56.7 621.5,57.3 622,57.8 622.5,58.2 623.1,58.6 623.7,59 624.3,59.3 625,59.5 625.6,59.7 626.3,59.8 627,59.9 627.7,59.9 628.4,59.8 629.1,59.7 629.8,59.5 630.4,59.3 631.1,59 631.7,58.6 632.2,58.2 632.8,57.8 633.3,57.3 633.7,56.7 634.1,56.2 634.5,55.6 634.7,54.9 635,54.3 635.2,53.6 635.3,52.9 635.3,52.2" />
<path stroke="#000000" stroke-width="2" d="M 642,70" />
<path stroke="#000000" stroke-width="2" d="M 642,30 642.2,30 642.2,30.2 642,30.2 642,30" />
<path stroke="#000000" stroke-width="2" d="M 672.2,70" />
<path stroke="#000000" stroke-width="2" d="M 672.2,30 682.2,30 682.2,70" />
<path stroke="#000000" stroke-width="2" d="M 688.9,70" />
<path stroke="#000000" stroke-width="2" d="M 693.9,50 688.9,50 688.9,70" />
<path stroke="#000000" stroke-width="2" d="M 700.5,70" />
<path stroke="#000000" stroke-width="2" d="M 700.5,55" />
<path stroke="#000000" stroke-width="2" d="M 700.5,55 702.6,54.9 704.2,54.6 705.4,54.1 706.3,53.6 706.9,52.9 707.2,52.2 707.2,51.4 707,50.7 706.7,50 706.2,49.4 705.6,48.9 704.9,48.5 704.1,48.3 703.4,48.4 702.7,48.7 702,49.2 701.4,50.1 701,51.4 700.7,53 700.5,55 700.5,70" />
<path stroke="#000000" stroke-width="2" d="M 737.2,70" />
<path stroke="#000000" stroke-width="2" d="M 747.2,30 746.3,30 745.5,30.1 744.6,30.2 743.8,30.5 742.9,30.8 742.1,31.1 741.4,31.6 740.7,32.1 740,32.6 739.4,33.2 738.8,33.9 738.3,34.6 737.9,35.4 737.5,36.2 737.2,37 737,37.8 736.9,38.7 736.8,39.6 736.8,40.4 736.9,41.3 737,42.2 737.2,43 737.5,43.8 737.9,44.6 738.3,45.4 738.8,46.1 739.4,46.7 740,47.4 740.7,47.9 741.4,48.4 742.1,48.9 742.9,49.2 743.8,49.5 744.6,49.8 745.5,49.9 746.3,50 766.3,50" />
<path stroke="#000000" stroke-width="2" d="M 796.3,70" />
<path stroke="#000000" stroke-width="2" d="M 796.3,30 796.3,70 807.6,58.7" />
<path stroke="#000000" stroke-width="2" d="M 814.3,70" />
<path stroke="#000000" stroke-width="2" d="M 814.3,25" />
<path stroke="#000000" stroke-width="2" d="M 814.3,25 816.3,24.9 818,24.6 819.2,24.1 820.1,23.6 820.6,22.9 820.9,22.2 821,21.4 820.8,20.7 820.4,20 819.9,19.4 819.3,18.9 818.6,18.5 817.9,18.3 817.1,18.4 816.4,18.7 815.8,19.2 815.2,20.1 814.7,21.4 814.4,23 814.3,25 814.3,40" />
<path stroke="#000000" stroke-width="2" d="M 851,70" />
<path stroke="#000000" stroke-width="2" d="M 851,40 851.2,40 851.2,40.2 851,40.2 851,40" />
<path stroke="#000000" stroke-width="2" d="M 857.8,70" />
<path stroke="#000000" stroke-width="2" d="M 857.8,50 857.8,49.3 857.9,48.6 858,47.9 858.2,47.2 858.4,46.6 858.7,46 859.1,45.4 859.5,44.8 859.9,44.2 860.4,43.8 861,43.3 861.5,42.9 862.1,42.6 862.8,42.3 863.4,42 864.1,41.8 864.8,41.7 865.5,41.7 866.2,41.7 866.9,41.7 867.6,41.8 868.2,42 868.9,42.3 869.5,42.6 870.1,42.9 870.7,43.3 871.2,43.8 871.7,44.2 872.2,44.8 872.6,45.4 872.9,46 873.2,46.6 873.5,47.2 873.6,47.9 873.8,48.6 873.8,49.3 873.8,50 873.9,50.7 874,51.4 874.2,52.1 874.4,52.7 874.7,53.3 875.1,53.9 875.5,54.5 875.9,55.1 876.4,55.5 876.9,56 877.5,56.4 878.1,56.7 878.7,57 879.4,57.3 880.1,57.5 880.8,57.6 881.5,57.6 882.2,57.6 882.9,57.6 883.5,57.5 884.2,57.3 884.9,57 885.5,56.7 886.1,56.4 886.7,56 887.2,55.5 887.7,55.1 888.2,54.5 888.6,53.9 888.9,53.3 889.2,52.7 889.4,52.1 889.6,51.4 889.7,50.7 889.8,50" />
<path stroke="#000000" stroke-width="2" d="M 896.5,70" />
<path stroke="#000000" stroke-width="2" d="M 896.5,70 896.5,69.3 896.5,68.6 896.7,67.9 896.8,67.2 897.1,66.6 897.4,66 897.7,65.4 898.1,64.8 898.6,64.2 899.1,63.8 899.6,63.3 900.2,62.9 900.8,62.6 901.4,62.3 902.1,62 902.7,61.8 903.4,61.7 904.1,61.7 904.8,61.7 905.5,61.7 906.2,61.8 906.9,62 907.5,62.3 908.2,62.6 908.8,62.9 909.3,63.3 909.9,63.8 910.4,64.2 910.8,64.8 911.2,65.4 911.6,66 911.9,66.6 912.1,67.2 912.3,67.9 912.4,68.6 912.5,69.3" />
<path stroke="#000000" stroke-width="2" d="M 942.5,70" />
<path stroke="#000000" stroke-width="2" d="M 952.5,30 951.6,30 950.7,30.1 949.9,30.2 949,30.5 948.2,30.8 947.4,31.1 946.6,31.6 945.9,32.1 945.3,32.6 944.6,33.2 944.1,33.9 943.6,34.6 943.1,35.4 942.8,36.2 942.5,37 942.3,37.8 942.1,38.7 942,39.6 942,40.4 942.1,41.3 942.3,42.2 942.5,43 942.8,43.8 943.1,44.6 943.6,45.4 944.1,46.1 944.6,46.7 945.3,47.4 945.9,47.9 946.6,48.4 947.4,48.9 948.2,49.2 949,49.5 949.9,49.8 950.7,49.9 951.6,50 971.6,50" />
<path stroke="#000000" stroke-width="2" d="M 1001.6,70" />
<path stroke="#000000" stroke-width="2" d="M 1001.6,40 1001.8,40 1001.8,40.2 1001.6,40.2 1001.6,40" />
<path stroke="#000000" stroke-width="2" d="M 1008.4,70" />
<path stroke="#000000" stroke-width="2" d="M 1028.4,30 1013.1,67" />
<path stroke="#000000" stroke-width="2" d="M 1035.1,70" />
<path stroke="#000000" stroke-width="2" d="M 1035.1,20 1035.1,40 1035.1,40.7 1035.2,41.4 1035.3,42.1 1035.5,42.8 1035.7,43.4 1036,44 1036.4,44.6 1036.8,45.2 1037.2,45.8 1037.7,46.2 1038.2,46.7 1038.8,47.1 1039.4,47.4 1040,47.7 1040.7,48 1041.4,48.2 1042.1,48.3 1042.8,48.3 1043.5,48.3 1044.2,48.3 1044.8,48.2 1045.5,48 1046.2,47.7 1046.8,47.4 1047.4,47.1 1048,46.7 1048.5,46.2 1049,45.8 1049.5,45.2 1049.9,44.6 1050.2,44 1050.5,43.4 1050.7,42.8 1050.9,42.1 1051,41.4 1051.1,40.7" />
<path stroke="#000000" stroke-width="2" d="M 1081.1,70" />
<path stroke="#000000" stroke-width="2" d="M 1081.1,30 1121.1,30" />
<path stroke="#000000" stroke-width="2" d="M 1127.8,70" />
<path stroke="#000000" stroke-width="2" d="M 1147.8,20 1128,39.8" />
<path stroke="#000000" stroke-width="2" d="M 1128,19.8 1147.8,39.6 1140.1,58.1" />
<path stroke="#000000" stroke-width="2" d="M 1177.8,70" />
<path stroke="#000000" stroke-width="2" d="M 1197.8,30 1182.5,67" />
<path stroke="#000000" stroke-width="2" d="M 1204.4,70" />
<path stroke="#000000" stroke-width="2" d="M 1204.4,50 1204.6,50 1204.6,50.2 1204.4,50.2 1204.4,50" />
<path stroke="#000000" stroke-width="2" d="M 1234.6,70" />
<path stroke="#000000" stroke-width="2" d="M 1234.6,70 1234.8,70 1234.8,70.2 1234.6,70.2 1234.6,70" />
<path stroke="#000000" stroke-width="2" d="M 1241.5,70" />
<path stroke="#000000" stroke-width="2" d="M 1251.5,30 1241.5,30 1241.5,70" />
<path stroke="#000000" stroke-width="2" d="M 1258.2,70" />
<path stroke="#000000" stroke-width="2" d="M 1268.2,50 1260.5,68.5" />
<path stroke="#000000" stroke-width="2" d="M 1298.2,70" />
</svg>