<svg xmlns="http://www.w3.org/2000/svg" width="1345.030034093121" height="122.0" style="fill:none; stroke-linecap:round;">
    <rect width="100%" height="100%" fill="#FFFFFF" />
<path stroke="#000000" stroke-width="2" d="M 550,75" />
<path stroke="#000000" stroke-width="2" d="M 40,30 24.7,67" />
<path stroke="#000000" stroke-width="2" d="M 46.7,70" />
<path stroke="#000000" stroke-width="2" d="M 46.7,50 46.7,70 46.7,64 46.7,63.1 46.7,62.3 46.9,61.4 47.1,60.6 47.4,59.7 47.8,58.9 48.2,58.2 48.7,57.5 49.3,56.8 49.9,56.2 50.6,55.6 51.3,55.1 52,54.7 52.8,54.3 53.7,54 54.5,53.8 55.4,53.6 56.2,53.6" />
<path stroke="#000000" stroke-width="2" d="M 62.9,70" />
<path stroke="#000000" stroke-width="2" d="M 62.9,20 82.9,20 63.1,39.8 83.1,39.8" />
<path stroke="#000000" stroke-width="2" d="M 113.1,70" />
<path stroke="#000000" stroke-width="2" d="M 113.1,70 113.3,70 113.3,70.2 113.1,70.2 113.1,70" />
<path stroke="#000000" stroke-width="2" d="M 120,70" />
<path stroke="#000000" stroke-width="2" d="M 120,40" />
<path stroke="#000000" stroke-width="2" d="M 120,40 124,39.8 127.2,39.2 129.7,38.3 131.5,37.1 132.6,35.8 133.2,34.3 133.3,32.8 132.9,31.4 132.2,30 131.2,28.8 130,27.7 128.6,27 127.1,26.7 125.6,26.8 124.2,27.3 122.8,28.5 121.7,30.2 120.8,32.7 120.2,35.9 120,40 120,70" />
<path stroke="#000000" stroke-width="2" d="M 139.9,70" />
<path stroke="#000000" stroke-width="2" d="M 139.9,50 159.9,50" />
<path stroke="#000000" stroke-width="2" d="M 189.9,70" />
<path stroke="#000000" stroke-width="2" d="M 189.9,50 204.1,35.9 196.4,54.3 197.3,54.3 198.2,54.4 199,54.6 199.9,54.8 200.7,55.1 201.5,55.5 202.2,55.9 202.9,56.4 203.6,57 204.2,57.6 204.8,58.2 205.3,59 205.7,59.7 206.1,60.5 206.4,61.3 206.6,62.2 206.8,63 206.8,63.9 206.8,64.8 206.8,65.6 206.6,66.5 206.4,67.3 206.1,68.2 205.7,68.9 205.3,69.7 204.8,70.4 204.2,71.1 203.6,71.7 202.9,72.3 202.2,72.8 201.5,73.2 200.7,73.6 199.9,73.9 199,74.1 198.2,74.2 197.3,74.3" />
<path stroke="#000000" stroke-width="2" d="M 213.5,70" />
<path stroke="#000000" stroke-width="2" d="M 213.5,20 213.5,40 219.2,34.3 239.2,34.3" />
<path stroke="#000000" stroke-width="2" d="M 269.2,70" />
<path stroke="#000000" stroke-width="2" d="M 269.2,62 270,62 270,62.8 269.2,62.8 269.2,62" />
<path stroke="#000000" stroke-width="2" d="M 269.2,78" />
<path stroke="#000000" stroke-width="2" d="M 269.2,78 271.4,78.1 273.4,78.3 275.1,78.8 276.5,79.3 277.6,80.1 278.5,80.9 279.1,81.9 279.5,83 279.7,84.2 279.7,85.5 279.4,86.9 279,88.4 278.3,89.9 277.5,91.5 276.5,93.2 275.3,94.9 274,96.6 272.5,98.4 270.9,100.2 269.2,102" />
<path stroke="#000000" stroke-width="2" d="M 309.7,70" />
<path stroke="#000000" stroke-width="2" d="M 309.7,70 309.9,70 309.9,70.2 309.7,70.2 309.7,70" />
<path stroke="#000000" stroke-width="2" d="M 316.6,70" />
<path stroke="#000000" stroke-width="2" d="M 320.6,30 337.6,47" />
<path stroke="#000000" stroke-width="2" d="M 354.5,30 314.9,69.6 314.1,69.6 313.2,69.7 312.3,69.8 311.5,70.1 310.7,70.3 309.9,70.7 309.1,71.2 308.4,71.7 307.7,72.2 307.1,72.8 306.6,73.5 306.1,74.2 305.6,75 305.2,75.8 304.9,76.6 304.7,77.4 304.6,78.3 304.5,79.2 304.5,80 304.6,80.9 304.7,81.8 304.9,82.6 305.2,83.4 305.6,84.2 306.1,85 306.6,85.7 307.1,86.3 307.7,87 308.4,87.5 309.1,88 309.9,88.5 310.7,88.8 311.5,89.1 312.3,89.4 313.2,89.5 314.1,89.6 314.1,90.1 314,90.6 313.9,91.1 313.8,91.6 313.6,92.1 313.4,92.6 313.1,93.1 312.8,93.5 312.5,93.9 312.1,94.3 311.7,94.6 311.3,94.9 310.8,95.2 310.4,95.4 309.9,95.6 309.4,95.7 308.8,95.8 308.3,95.8 307.8,95.8 307.3,95.8 306.8,95.7 306.3,95.6 305.8,95.4 305.3,95.2 304.8,94.9 304.4,94.6 304,94.3 303.6,93.9 303.3,93.5 303,93.1 302.7,92.6 302.5,92.1 302.3,91.6 302.2,91.1 302.1,90.6 302.1,90.1 302.1,89.6 302.1,89.1 302.2,88.5 302.3,88 302.5,87.5 302.7,87.1 303,86.6 303.3,86.2 303.6,85.8 304,85.4 304.4,85.1 304.8,84.8 305.3,84.5 305.8,84.3 306.3,84.1 306.8,84 307.3,83.9 307.8,83.8 308.3,83.8 308.8,83.9 309.4,84 309.9,84.1 310.4,84.3 310.8,84.5 311.3,84.8 311.7,85.1 312.1,85.4 312.5,85.8 312.8,86.2 313.1,86.6 313.4,87.1 313.6,87.5 313.8,88 313.9,88.5 314,89.1 314.1,89.6 314.1,93.6" />
<path stroke="#000000" stroke-width="2" d="M 314.1,93.6 313.7,94.4 313.4,95.3 313,96 312.6,96.7 312.2,97.4 311.8,98 311.3,98.5 310.8,99 310.3,99.4 309.8,99.8 309.3,100.2 308.7,100.5 308.2,100.8 307.6,101 307,101.2 306.4,101.3 305.8,101.4 305.2,101.5 304.7,101.6 304.1,101.6" />
<path stroke="#000000" stroke-width="2" d="M 361.2,70" />
<path stroke="#000000" stroke-width="2" d="M 361.2,20 361.2,40 361.2,34 361.2,33.1 361.3,32.3 361.4,31.4 361.6,30.6 361.9,29.7 362.3,28.9 362.7,28.2 363.2,27.5 363.8,26.8 364.4,26.2 365.1,25.6 365.8,25.1 366.6,24.7 367.4,24.3 368.2,24 369,23.8 369.9,23.6 370.7,23.6" />
<path stroke="#000000" stroke-width="2" d="M 400.7,70" />
<path stroke="#000000" stroke-width="2" d="M 400.7,30 400.7,70 400.7,62 400.7,60.3 400.9,58.5 401.2,56.8 401.6,55.1 402.2,53.5 403,51.9 403.9,50.4 404.9,49 406,47.6 407.2,46.4 408.5,45.3 410,44.3" />
<path stroke="#000000" stroke-width="2" d="M 416.6,70" />
<path stroke="#000000" stroke-width="2" d="M 426.6,50 419,68.5" />
<path stroke="#000000" stroke-width="2" d="M 456.6,70" />
<path stroke="#000000" stroke-width="2" d="M 466.6,30 465.8,30 464.9,30.1 464,30.2 463.2,30.5 462.4,30.8 461.6,31.1 460.8,31.6 460.1,32.1 459.5,32.6 458.8,33.2 458.3,33.9 457.8,34.6 457.3,35.4 457,36.2 456.7,37 456.4,37.8 456.3,38.7 456.2,39.6 456.2,40.4 456.3,41.3 456.4,42.2 456.7,43 457,43.8 457.3,44.6 457.8,45.4 458.3,46.1 458.8,46.7 459.5,47.4 460.1,47.9 460.8,48.4 461.6,48.9 462.4,49.2 463.2,49.5 464,49.8 464.9,49.9 465.8,50 458.1,68.5" />
<path stroke="#000000" stroke-width="2" d="M 496.6,70" />
<path stroke="#000000" stroke-width="2" d="M 496.6,70 496.8,70 496.8,70.2 496.6,70.2 496.6,70" />
<path stroke="#000000" stroke-width="2" d="M 503.5,70" />
<path stroke="#000000" stroke-width="2" d="M 503.5,30 518.8,67" />
<path stroke="#000000" stroke-width="2" d="M 525.5,70" />
<path stroke="#000000" stroke-width="2" d="M 525.5,50 545.5,50" />
<path stroke="#000000" stroke-width="2" d="M 575.5,70" />
<path stroke="#000000" stroke-width="2" d="M 595.5,30 580.2,67" />
<path stroke="#000000" stroke-width="2" d="M 602.2,70" />
<path stroke="#000000" stroke-width="2" d="M 602.2,50 602.2,70" />
<path stroke="#000000" stroke-width="2" d="M 608.8,70" />
<path stroke="#000000" stroke-width="2" d="M 608.8,20 608.8,24 608.8,24.5 608.9,25 609,25.6 609.1,26.1 609.3,26.6 609.5,27 609.8,27.5 610.1,27.9 610.4,28.3 610.8,28.7 611.2,29 611.6,29.3 612,29.6 612.5,29.8 613,30 613.5,30.1 614,30.2 614.5,30.3 615.1,30.3 615.6,30.2 616.1,30.1 616.6,30 617.1,29.8 617.6,29.6 618,29.3 618.5,29 618.9,28.7 619.2,28.3 619.6,27.9 619.9,27.5 620.1,27 620.4,26.6 620.5,26.1 620.7,25.6 620.8,25 620.8,24.5 620.8,19.5 620.8,39.5" />
<path stroke="#000000" stroke-width="2" d="M 627.5,70" />
<path stroke="#000000" stroke-width="2" d="M 627.5,30 667.5,30" />
<path stroke="#000000" stroke-width="2" d="M 697.5,70" />
<path stroke="#000000" stroke-width="2" d="M 697.5,70 697.7,70 697.7,70.2 697.5,70.2 697.5,70" />
<path stroke="#000000" stroke-width="2" d="M 704.3,70" />
<path stroke="#000000" stroke-width="2" d="M 704.3,30 744.3,30" />
<path stroke="#000000" stroke-width="2" d="M 751,70" />
<path stroke="#000000" stroke-width="2" d="M 771,30 755.7,67" />
<path stroke="#000000" stroke-width="2" d="M 801,70" />
<path stroke="#000000" stroke-width="2" d="M 801,70 801.2,70 801.2,70.2 801,70.2 801,70" />
<path stroke="#000000" stroke-width="2" d="M 831.2,70" />
<path stroke="#000000" stroke-width="2" d="M 851.2,70 853,70 854.7,69.8 856.4,69.5 858.1,69.1 859.7,68.5 861.3,67.8 862.8,66.9 864.3,65.9 865.6,64.8 866.8,63.5 867.9,62.2 868.9,60.8 869.8,59.3 870.6,57.7 871.2,56 871.6,54.3 871.9,52.6 872.1,50.9 872.1,49.1 871.9,47.4 871.6,45.7 871.2,44 870.6,42.4 869.8,40.8 868.9,39.3 867.9,37.8 866.8,36.5 865.6,35.3 864.3,34.2 862.8,33.2 861.3,32.3 859.7,31.5 858.1,30.9 856.4,30.5 854.7,30.2 853,30 851.2,30 849.5,30.2 847.7,30.5 846.1,30.9 844.4,31.5 842.8,32.3 841.3,33.2 839.9,34.2 838.6,35.3 837.3,36.5 836.2,37.8 835.2,39.3 834.3,40.8 833.6,42.4 833,44 832.6,45.7 832.2,47.4 832.1,49.1 832.1,50.9 832.2,52.6 832.6,54.3 833,56 833.6,57.7 834.3,59.3 835.2,60.8 836.2,62.2 837.3,63.5 838.6,64.8 839.9,65.9 841.3,66.9 842.8,67.8 844.4,68.5 846.1,69.1 847.7,69.5 849.5,69.8 851.2,70" />
<path stroke="#000000" stroke-width="2" d="M 878.7,70" />
<path stroke="#000000" stroke-width="2" d="M 878.7,55" />
<path stroke="#000000" stroke-width="2" d="M 878.7,55 880.8,54.9 882.4,54.6 883.6,54.1 884.5,53.6 885.1,52.9 885.3,52.2 885.4,51.4 885.2,50.7 884.9,50 884.4,49.4 883.7,48.9 883,48.5 882.3,48.3 881.6,48.4 880.8,48.7 880.2,49.2 879.6,50.1 879.1,51.4 878.8,53 878.7,55 878.7,70" />
<path stroke="#000000" stroke-width="2" d="M 915.4,70" />
<path stroke="#000000" stroke-width="2" d="M 915.4,70" />
<path stroke="#000000" stroke-width="2" d="M 915.4,70 916.5,70 917.5,70.2 918.3,70.4 919,70.7 919.6,71 920,71.5 920.4,71.9 920.6,72.5 920.7,73.1 920.6,73.8 920.5,74.4 920.3,75.2 920,76 919.5,76.8 919,77.6 918.5,78.4 917.8,79.3 917.1,80.2 916.2,81.1 915.4,82" />
<path stroke="#000000" stroke-width="2" d="M 950.7,70" />
<path stroke="#000000" stroke-width="2" d="M 950.7,70 950.9,70 950.9,70.2 950.7,70.2 950.7,70" />
<path stroke="#000000" stroke-width="2" d="M 957.5,70" />
<path stroke="#000000" stroke-width="2" d="M 967.5,30 959.9,48.5 959.9,68.5 965.5,62.8" />
<path stroke="#000000" stroke-width="2" d="M 974.2,70" />
<path stroke="#000000" stroke-width="2" d="M 974.2,50 974.4,50 974.4,50.2 974.2,50.2 974.2,50" />
<path stroke="#000000" stroke-width="2" d="M 1004.4,70" />
<path stroke="#000000" stroke-width="2" d="M 1014.4,30 1014.9,30 1015.4,30 1015.9,30.1 1016.5,30.3 1016.9,30.5 1017.4,30.7 1017.9,30.9 1018.3,31.2 1018.7,31.6 1019.1,31.9 1019.4,32.3 1019.7,32.8 1020,33.2 1020.2,33.7 1020.4,34.2 1020.5,34.7 1020.6,35.2 1020.6,35.7 1020.6,36.3 1020.6,36.8 1020.5,37.3 1020.4,37.8 1020.2,38.3 1020,38.8 1019.7,39.2 1019.4,39.6 1019.1,40 1018.7,40.4 1018.3,40.8 1017.9,41.1 1017.4,41.3 1016.9,41.5 1016.5,41.7 1015.9,41.9 1015.4,41.9 1014.9,42 1014.4,42 1013.9,41.9 1013.3,41.9 1012.8,41.7 1012.4,41.5 1011.9,41.3 1011.4,41.1 1011,40.8 1010.6,40.4 1010.2,40 1009.9,39.6 1009.6,39.2 1009.3,38.8 1009.1,38.3 1008.9,37.8 1008.8,37.3 1008.7,36.8 1008.7,36.3 1008.7,35.7 1008.7,35.2 1008.8,34.7 1008.9,34.2 1009.1,33.7 1009.3,33.2 1009.6,32.8 1009.9,32.3 1010.2,31.9 1010.6,31.6 1011,31.2 1011.4,30.9 1011.9,30.7 1012.4,30.5 1012.8,30.3 1013.3,30.1 1013.9,30 1014.4,30 1014.4,50 1006.7,68.5 1009,62.9 1009.4,62.1 1009.8,61.4 1010.2,60.6 1010.8,59.9 1011.4,59.3 1012,58.7 1012.7,58.2 1013.4,57.7 1014.2,57.3 1015,57 1015.8,56.7 1016.7,56.5" />
<path stroke="#000000" stroke-width="2" d="M 1016.7,56.5 1018.7,56.4 1020.3,56.1 1021.6,55.6 1022.4,55.1 1023,54.4 1023.3,53.7 1023.3,52.9 1023.2,52.2 1022.8,51.5 1022.3,50.9 1021.7,50.4 1021,50 1020.3,49.9 1019.5,49.9 1018.8,50.2 1018.1,50.7 1017.5,51.6 1017.1,52.9 1016.8,54.5 1016.7,56.5 1016.7,71.5" />
<path stroke="#000000" stroke-width="2" d="M 1053.3,70" />
<path stroke="#000000" stroke-width="2" d="M 1053.3,30 1068.6,67" />
<path stroke="#000000" stroke-width="2" d="M 1075.3,70" />
<path stroke="#000000" stroke-width="2" d="M 1075.3,30 1095.3,30 1087.7,48.5" />
<path stroke="#000000" stroke-width="2" d="M 1102,70" />
<path stroke="#000000" stroke-width="2" d="M 1102,30 1122,30 1122.9,30 1123.7,30.1 1124.6,30.2 1125.4,30.5 1126.2,30.8 1127,31.1 1127.8,31.6 1128.5,32.1 1129.2,32.6 1129.8,33.2 1130.4,33.9 1130.9,34.6 1131.3,35.4 1131.7,36.2 1132,37 1132.2,37.8 1132.3,38.7 1132.4,39.6 1132.4,40.4 1132.3,41.3 1132.2,42.2 1132,43 1131.7,43.8 1131.3,44.6 1130.9,45.4 1130.4,46.1 1129.8,46.7 1129.2,47.4 1128.5,47.9 1127.8,48.4 1127,48.9 1126.2,49.2 1125.4,49.5 1124.6,49.8 1123.7,49.9 1122.9,50" />
<path stroke="#000000" stroke-width="2" d="M 1162.4,70" />
<path stroke="#000000" stroke-width="2" d="M 1162.4,30 1162.4,70" />
<path stroke="#000000" stroke-width="2" d="M 1169.1,70" />
<path stroke="#000000" stroke-width="2" d="M 1169.1,20 1169.1,20.7 1169.1,21.4 1169.3,22.1 1169.4,22.8 1169.7,23.4 1170,24 1170.3,24.6 1170.7,25.2 1171.2,25.8 1171.7,26.2 1172.2,26.7 1172.8,27.1 1173.4,27.4 1174,27.7 1174.7,28 1175.3,28.2 1176,28.3 1176.7,28.3 1177.4,28.3 1178.1,28.3 1178.8,28.2 1179.5,28 1180.1,27.7 1180.8,27.4 1181.4,27.1 1181.9,26.7 1182.5,26.2 1183,25.8 1183.4,25.2 1183.8,24.6 1184.2,24 1184.5,23.4 1184.7,22.8 1184.9,22.1 1185,21.4 1185.1,20.7" />
<path stroke="#000000" stroke-width="2" d="M 1191.7,70" />
<path stroke="#000000" stroke-width="2" d="M 1191.7,20 1211.7,20" />
<path stroke="#000000" stroke-width="2" d="M 1211.7,20 1213.8,19.9 1215.4,19.6 1216.6,19.1 1217.5,18.6 1218.1,17.9 1218.3,17.2 1218.4,16.4 1218.2,15.7 1217.9,15 1217.4,14.4 1216.7,13.9 1216,13.5 1215.3,13.3 1214.6,13.4 1213.8,13.7 1213.2,14.2 1212.6,15.1 1212.1,16.4 1211.8,18 1211.7,20 1211.7,35" />
<path stroke="#000000" stroke-width="2" d="M 1248.4,70" />
<path stroke="#000000" stroke-width="2" d="M 1248.4,30 1258.4,30 1258.4,70" />
<path stroke="#000000" stroke-width="2" d="M 1265,70" />
<path stroke="#000000" stroke-width="2" d="M 1265,50 1265,70 1265,64 1265,63.1 1265.1,62.3 1265.3,61.4 1265.5,60.6 1265.8,59.7 1266.2,58.9 1266.6,58.2 1267.1,57.5 1267.7,56.8 1268.3,56.2 1269,55.6 1269.7,55.1 1270.4,54.7 1271.2,54.3 1272,54 1272.9,53.8 1273.7,53.6 1274.6,53.6" />
<path stroke="#000000" stroke-width="2" d="M 1304.6,70" />
<path stroke="#000000" stroke-width="2" d="M 1314.6,50 1315.5,50 1316.3,49.9 1317.2,49.8 1318,49.5 1318.9,49.2 1319.7,48.9 1320.4,48.4 1321.1,47.9 1321.8,47.4 1322.4,46.8 1323,46.1 1323.5,45.4 1323.9,44.6 1324.3,43.8 1324.6,43 1324.8,42.2 1325,41.3 1325,40.4 1325,39.6 1325,38.7 1324.8,37.8 1324.6,37 1324.3,36.2 1323.9,35.4 1323.5,34.6 1323,33.9 1322.4,33.3 1321.8,32.6 1321.1,32.1 1320.4,31.6 1319.7,31.1 1318.9,30.8 1318,30.5 1317.2,30.2 1316.3,30.1 1315.5,30 1314.6,30 1313.7,30.1 1312.9,30.2 1312,30.5 1311.2,30.8 1310.4,31.1 1309.7,31.6 1309,32.1 1308.3,32.6 1307.7,33.3 1307.1,33.9 1306.6,34.6 1306.2,35.4 1305.8,36.2 1305.5,37 1305.3,37.8 1305.1,38.7 1305,39.6 1305,40.4 1305.1,41.3 1305.3,42.2 1305.5,43 1305.8,43.8 1306.2,44.6 1306.6,45.4 1307.1,46.1 1307.7,46.8 1308.3,47.4 1309,47.9 1309.7,48.4 1310.4,48.9 1311.2,49.2 1312,49.5 1312.9,49.8 1313.7,49.9 1314.6,50 1314.6,70 1314.6,64 1314.6,63.1 1314.7,62.3 1314.8,61.4 1315.1,60.6 1315.4,59.7 1315.7,58.9 1316.2,58.2 1316.7,57.5 1317.2,56.8 1317.8,56.2 1318.5,55.6 1319.2,55.1 1320,54.7 1320.8,54.3 1321.6,54 1322.4,53.8 1323.3,53.6 1324.2,53.6" />
<path stroke="#000000" stroke-width="2" d="M 1355,70" />
</svg>