<svg xmlns="http://www.w3.org/2000/svg" width="1223.0278642188982" height="130.0677395031967" style="fill:none; stroke-linecap:round;">
    <rect width="100%" height="100%" fill="#FFFFFF" />
<path stroke="#000000" stroke-width="2" d="M 550,75" />
<path stroke="#000000" stroke-width="2" d="M 20,30 20,70" />
<path stroke="#000000" stroke-width="2" d="M 26.7,70" />
<path stroke="#000000" stroke-width="2" d="M 36.7,50 29,68.5" />
<path stroke="#000000" stroke-width="2" d="M 66.7,70" />
<path stroke="#000000" stroke-width="2" d="M 66.7,50 74.3,31.5 82,50" />
<path stroke="#000000" stroke-width="2" d="M 82,50 84,49.9 85.6,49.6 86.9,49.1 87.7,48.6 88.3,47.9 88.6,47.2 88.6,46.4 88.5,45.7 88.1,45 87.6,44.4 87,43.9 86.3,43.5 85.6,43.3 84.8,43.4 84.1,43.7 83.4,44.2 82.8,45.1 82.4,46.4 82.1,48 82,50 82,65" />
<path stroke="#000000" stroke-width="2" d="M 118.6,70" />
<path stroke="#000000" stroke-width="2" d="M 138.6,30 123.3,67" />
<path stroke="#000000" stroke-width="2" d="M 145.3,70" />
<path stroke="#000000" stroke-width="2" d="M 145.3,30 160.6,67" />
<path stroke="#000000" stroke-width="2" d="M 167.3,70" />
<path stroke="#000000" stroke-width="2" d="M 167.3,20 167.5,20 167.5,20.2 167.3,20.2 167.3,20" />
<path stroke="#000000" stroke-width="2" d="M 197.5,70" />
<path stroke="#000000" stroke-width="2" d="M 197.5,30 197.5,70 208.8,58.7" />
<path stroke="#000000" stroke-width="2" d="M 215.4,70" />
<path stroke="#000000" stroke-width="2" d="M 215.4,20 235.4,20 227.8,38.5" />
<path stroke="#000000" stroke-width="2" d="M 265.4,70" />
<path stroke="#000000" stroke-width="2" d="M 275.4,30 274.6,30 273.7,30.1 272.8,30.2 272,30.5 271.2,30.8 270.4,31.1 269.6,31.6 268.9,32.1 268.3,32.6 267.6,33.2 267.1,33.9 266.6,34.6 266.1,35.4 265.8,36.2 265.5,37 265.3,37.8 265.1,38.7 265,39.6 265,40.4 265.1,41.3 265.3,42.2 265.5,43 265.8,43.8 266.1,44.6 266.6,45.4 267.1,46.1 267.6,46.7 268.3,47.4 268.9,47.9 269.6,48.4 270.4,48.9 271.2,49.2 272,49.5 272.8,49.8 273.7,49.9 274.6,50 294.6,50" />
<path stroke="#000000" stroke-width="2" d="M 324.6,70" />
<path stroke="#000000" stroke-width="2" d="M 324.6,70" />
<path stroke="#000000" stroke-width="2" d="M 324.6,70 325.7,70 326.7,70.2 327.5,70.4 328.2,70.7 328.8,71 329.2,71.5 329.6,71.9 329.8,72.5 329.8,73.1 329.8,73.8 329.7,74.4 329.5,75.2 329.1,76 328.7,76.8 328.2,77.6 327.6,78.4 327,79.3 326.3,80.2 325.4,81.1 324.6,82" />
<path stroke="#000000" stroke-width="2" d="M 359.8,70" />
<path stroke="#000000" stroke-width="2" d="M 359.8,70 360,70 360,70.2 359.8,70.2 359.8,70" />
<path stroke="#000000" stroke-width="2" d="M 366.7,70" />
<path stroke="#000000" stroke-width="2" d="M 370.7,30 387.7,47" />
<path stroke="#000000" stroke-width="2" d="M 404.7,30 365.1,69.6 364.2,69.6 363.3,69.7 362.5,69.8 361.6,70.1 360.8,70.3 360,70.7 359.2,71.2 358.5,71.7 357.9,72.2 357.2,72.8 356.7,73.5 356.2,74.2 355.8,75 355.4,75.8 355.1,76.6 354.9,77.4 354.7,78.3 354.6,79.2 354.6,80 354.7,80.9 354.9,81.8 355.1,82.6 355.4,83.4 355.8,84.2 356.2,85 356.7,85.7 357.2,86.3 357.9,87 358.5,87.5 359.2,88 360,88.5 360.8,88.8 361.6,89.1 362.5,89.4 363.3,89.5 364.2,89.6 368,98.8" />
<path stroke="#000000" stroke-width="2" d="M 368,98.8 369.9,101 371.3,102.9 372,104.6 372.3,106 372.2,107.3 371.8,108.3 371.1,109.1 370.2,109.6 369.1,110 368,110.1 366.9,110 365.9,109.6 364.9,109.1 364.2,108.3 363.8,107.3 363.7,106 364,104.6 364.8,102.9 366.1,101 368,98.8 371.8,89.6 391.8,89.6 391.8,93.6 391.8,94.1 391.9,94.6 392,95.1 392.1,95.6 392.3,96.1 392.5,96.6 392.8,97.1 393.1,97.5 393.4,97.9 393.8,98.3 394.2,98.6 394.6,98.9 395.1,99.2 395.5,99.4 396,99.6 396.5,99.7 397.1,99.8 397.6,99.8 398.1,99.8 398.6,99.8 399.1,99.7 399.6,99.6 400.1,99.4 400.6,99.2 401.1,98.9 401.5,98.6 401.9,98.3 402.3,97.9 402.6,97.5 402.9,97.1 403.2,96.6 403.4,96.1 403.6,95.6 403.7,95.1 403.8,94.6 403.8,94.1 403.8,89.1 403.8,109.1" />
<path stroke="#000000" stroke-width="2" d="M 411.3,70" />
<path stroke="#000000" stroke-width="2" d="M 411.3,20 411.3,40 411.3,34 411.3,33.1 411.4,32.3 411.6,31.4 411.8,30.6 412.1,29.7 412.4,28.9 412.9,28.2 413.4,27.5 413.9,26.8 414.6,26.2 415.2,25.6 415.9,25.1 416.7,24.7 417.5,24.3 418.3,24 419.1,23.8 420,23.6 420.9,23.6" />
<path stroke="#000000" stroke-width="2" d="M 450.9,70" />
<path stroke="#000000" stroke-width="2" d="M 460.9,30 461.4,30 461.9,30 462.4,30.1 462.9,30.3 463.4,30.5 463.9,30.7 464.4,30.9 464.8,31.2 465.2,31.6 465.6,31.9 465.9,32.3 466.2,32.8 466.5,33.2 466.7,33.7 466.9,34.2 467,34.7 467.1,35.2 467.1,35.7 467.1,36.3 467.1,36.8 467,37.3 466.9,37.8 466.7,38.3 466.5,38.8 466.2,39.2 465.9,39.6 465.6,40 465.2,40.4 464.8,40.8 464.4,41.1 463.9,41.3 463.4,41.5 462.9,41.7 462.4,41.9 461.9,41.9 461.4,42 460.9,42 460.4,41.9 459.8,41.9 459.3,41.7 458.8,41.5 458.4,41.3 457.9,41.1 457.5,40.8 457.1,40.4 456.7,40 456.4,39.6 456.1,39.2 455.8,38.8 455.6,38.3 455.4,37.8 455.3,37.3 455.2,36.8 455.1,36.3 455.1,35.7 455.2,35.2 455.3,34.7 455.4,34.2 455.6,33.7 455.8,33.2 456.1,32.8 456.4,32.3 456.7,31.9 457.1,31.6 457.5,31.2 457.9,30.9 458.4,30.7 458.8,30.5 459.3,30.3 459.8,30.1 460.4,30 460.9,30 460.9,50 453.2,68.5 455.5,62.9 455.9,62.1 456.3,61.4 456.7,60.6 457.3,59.9 457.8,59.3 458.5,58.7 459.2,58.2 459.9,57.7 460.7,57.3 461.5,57 462.3,56.7 463.2,56.5" />
<path stroke="#000000" stroke-width="2" d="M 497.1,70" />
<path stroke="#000000" stroke-width="2" d="M 497.1,30 497.1,70" />
<path stroke="#000000" stroke-width="2" d="M 503.8,70" />
<path stroke="#000000" stroke-width="2" d="M 508.8,20 503.8,20 503.8,40" />
<path stroke="#000000" stroke-width="2" d="M 515.5,70" />
<path stroke="#000000" stroke-width="2" d="M 515.5,20 523.1,38.5" />
<path stroke="#000000" stroke-width="2" d="M 529.8,70" />
<path stroke="#000000" stroke-width="2" d="M 529.8,20 530,20 530,20.2 529.8,20.2 529.8,20" />
<path stroke="#000000" stroke-width="2" d="M 560,70" />
<path stroke="#000000" stroke-width="2" d="M 560,30 560,70 560,58 560,56.3 560.1,54.5 560.4,52.8 560.9,51.1 561.5,49.5 562.2,47.9 563.1,46.4 564.1,45 565.2,43.6 566.5,42.4 567.8,41.3 569.2,40.3 570.7,39.4 572.3,38.7 574,38.1 575.6,37.6 577.4,37.3 579.1,37.1" />
<path stroke="#000000" stroke-width="2" d="M 585.8,70" />
<path stroke="#000000" stroke-width="2" d="M 585.8,25" />
<path stroke="#000000" stroke-width="2" d="M 585.8,25 587.8,24.9 589.4,24.6 590.6,24.1 591.5,23.6 592.1,22.9 592.4,22.2 592.4,21.4 592.2,20.7 591.9,20 591.4,19.4 590.8,18.9 590.1,18.5 589.3,18.3 588.6,18.4 587.9,18.7 587.2,19.2 586.6,20.1 586.2,21.4 585.9,23 585.8,25 585.8,40" />
<path stroke="#000000" stroke-width="2" d="M 599.1,70" />
<path stroke="#000000" stroke-width="2" d="M 599.1,20 619.1,20 611.4,38.5 616.4,38.5 616.4,58.5" />
<path stroke="#000000" stroke-width="2" d="M 625.8,70" />
<path stroke="#000000" stroke-width="2" d="M 625.8,50 625.8,50.7 625.8,51.4 625.9,52.1 626.1,52.8 626.4,53.4 626.6,54 627,54.6 627.4,55.2 627.8,55.8 628.3,56.2 628.9,56.7 629.4,57.1 630,57.4 630.7,57.7 631.3,58 632,58.2 632.7,58.3 633.4,58.3 634.1,58.3 634.8,58.3 635.5,58.2 636.1,58 636.8,57.7 637.4,57.4 638,57.1 638.6,56.7 639.1,56.2 639.6,55.8 640.1,55.2 640.5,54.6 640.8,54 641.1,53.4 641.4,52.8 641.6,52.1 641.7,51.4 641.7,50.7" />
<path stroke="#000000" stroke-width="2" d="M 671.7,70" />
<path stroke="#000000" stroke-width="2" d="M 671.7,70 671.9,70 671.9,70.2 671.7,70.2 671.7,70" />
<path stroke="#000000" stroke-width="2" d="M 701.9,70" />
<path stroke="#000000" stroke-width="2" d="M 701.9,40 702.1,40 702.1,40.2 701.9,40.2 701.9,40" />
<path stroke="#000000" stroke-width="2" d="M 708.8,70" />
<path stroke="#000000" stroke-width="2" d="M 724.8,30" />
<path stroke="#000000" stroke-width="2" d="M 724.8,30 724.6,34.1 724,37.3 723.1,39.8 721.9,41.5 720.6,42.7 719.1,43.2 717.6,43.3 716.2,43 714.8,42.3 713.6,41.2 712.6,40 711.8,38.6 711.5,37.2 711.6,35.7 712.1,34.2 713.3,32.9 715,31.7 717.5,30.8 720.7,30.2 724.8,30 744.8,30" />
<path stroke="#000000" stroke-width="2" d="M 751.5,70" />
<path stroke="#000000" stroke-width="2" d="M 751.5,50 771.5,50" />
<path stroke="#000000" stroke-width="2" d="M 778.1,70" />
<path stroke="#000000" stroke-width="2" d="M 780.1,50 785.5,37.1 785.6,36.7 785.7,36.4 785.8,36.1 785.9,35.7 785.9,35.4 785.9,35 785.8,34.7 785.7,34.3 785.6,34 785.5,33.7 785.3,33.4 785.1,33.1 784.9,32.8 784.7,32.5 784.4,32.3 784.2,32.1 783.9,31.9 783.6,31.7 783.2,31.6 782.9,31.5 782.6,31.4 782.2,31.4 781.9,31.4 781.5,31.4 781.2,31.4 780.8,31.5 780.5,31.6 780.2,31.7 779.9,31.9 779.6,32.1 779.3,32.3 779,32.5 778.8,32.8 778.6,33.1 778.4,33.4 778.2,33.7 778.1,34 778,34.3 777.9,34.7 777.9,35 777.9,35.4 777.9,35.7 777.9,36.1 778,36.4 778.1,36.7 778.2,37.1 778.4,37.4 778.6,37.7 778.8,37.9 779,38.2 779.3,38.4 779.6,38.7 779.9,38.8 780.2,39 780.5,39.1 780.8,39.2 781.2,39.3 781.5,39.4 781.9,39.4 782.2,39.4 795.2,34" />
<path stroke="#000000" stroke-width="2" d="M 795.2,34 797.2,33.9 798.8,33.6 800,33.1 800.9,32.6 801.5,31.9 801.8,31.2 801.8,30.4 801.6,29.7 801.3,29 800.8,28.4 800.2,27.9 799.5,27.5 798.7,27.3 798,27.4 797.3,27.7 796.6,28.2 796,29.1 795.6,30.4 795.3,32 795.2,34 795.2,49" />
<path stroke="#000000" stroke-width="2" d="M 831.8,70" />
<path stroke="#000000" stroke-width="2" d="M 831.8,30 831.8,70 831.8,58 831.8,56.3 832,54.5 832.3,52.8 832.7,51.1 833.3,49.5 834,47.9 834.9,46.4 835.9,45 837,43.6 838.3,42.4 839.6,41.3 841,40.3 842.6,39.4 844.1,38.7 845.8,38.1 847.5,37.6 849.2,37.3 850.9,37.1" />
<path stroke="#000000" stroke-width="2" d="M 857.6,70" />
<path stroke="#000000" stroke-width="2" d="M 857.6,20 857.6,20.7 857.6,21.4 857.8,22.1 857.9,22.8 858.2,23.4 858.5,24 858.8,24.6 859.2,25.2 859.7,25.8 860.2,26.2 860.7,26.7 861.3,27.1 861.9,27.4 862.5,27.7 863.2,28 863.8,28.2 864.5,28.3 865.2,28.3 865.9,28.3 866.6,28.3 867.3,28.2 868,28 868.6,27.7 869.3,27.4 869.9,27.1 870.4,26.7 871,26.2 871.5,25.8 871.9,25.2 872.3,24.6 872.7,24 873,23.4 873.2,22.8 873.4,22.1 873.5,21.4 873.6,20.7" />
<path stroke="#000000" stroke-width="2" d="M 880.2,70" />
<path stroke="#000000" stroke-width="2" d="M 880.2,35" />
<path stroke="#000000" stroke-width="2" d="M 880.2,35 882.3,34.9 883.9,34.6 885.1,34.1 886,33.6 886.6,32.9 886.8,32.2 886.9,31.4 886.7,30.7 886.4,30 885.9,29.4 885.2,28.9 884.6,28.5 883.8,28.3 883.1,28.4 882.3,28.7 881.7,29.2 881.1,30.1 880.6,31.4 880.3,33 880.2,35 880.2,50 870.3,59.9 880.2,69.8" />
<path stroke="#000000" stroke-width="2" d="M 893.6,70" />
<path stroke="#000000" stroke-width="2" d="M 893.6,20 894.4,20 895.3,20.1 896.2,20.2 897,20.5 897.8,20.8 898.6,21.1 899.4,21.6 900.1,22.1 900.7,22.6 901.4,23.2 901.9,23.9 902.4,24.6 902.9,25.4 903.2,26.2 903.5,27 903.8,27.8 903.9,28.7 904,29.6 904,30.4 903.9,31.3 903.8,32.2 903.5,33 903.2,33.8 902.9,34.6 902.4,35.4 901.9,36.1 901.4,36.7 900.7,37.4 900.1,37.9 899.4,38.4 898.6,38.9 897.8,39.2 897,39.5 896.2,39.8 895.3,39.9 894.4,40" />
<path stroke="#000000" stroke-width="2" d="M 934,70" />
<path stroke="#000000" stroke-width="2" d="M 934,30 954,30 954.9,30 955.7,30.1 956.6,30.2 957.4,30.5 958.2,30.8 959,31.1 959.8,31.6 960.5,32.1 961.2,32.6 961.8,33.2 962.3,33.9 962.8,34.6 963.3,35.4 963.7,36.2 964,37 964.2,37.8 964.3,38.7 964.4,39.6 964.4,40.4 964.3,41.3 964.2,42.2 964,43 963.7,43.8 963.3,44.6 962.8,45.4 962.3,46.1 961.8,46.7 961.2,47.4 960.5,47.9 959.8,48.4 959,48.9 958.2,49.2 957.4,49.5 956.6,49.8 955.7,49.9 954.9,50" />
<path stroke="#000000" stroke-width="2" d="M 994.4,70" />
<path stroke="#000000" stroke-width="2" d="M 1002.4,30" />
<path stroke="#000000" stroke-width="2" d="M 1002.4,30 1002.3,32 1002,33.6 1001.5,34.9 1001,35.8 1000.3,36.3 999.6,36.6 998.8,36.7 998.1,36.5 997.4,36.1 996.8,35.6 996.3,35 995.9,34.3 995.8,33.6 995.8,32.8 996.1,32.1 996.6,31.4 997.5,30.9 998.8,30.4 1000.4,30.1 1002.4,30 1012.4,30 1012.4,30.7 1012.5,31.4 1012.6,32.1 1012.8,32.8 1013,33.4 1013.3,34 1013.7,34.6 1014.1,35.2 1014.5,35.8 1015,36.2 1015.5,36.7 1016.1,37.1 1016.7,37.4 1017.3,37.7 1018,38 1018.7,38.2 1019.4,38.3 1020,38.3 1020.7,38.3 1021.4,38.3 1022.1,38.2 1022.8,38 1023.5,37.7 1024.1,37.4 1024.7,37.1 1025.3,36.7 1025.8,36.2 1026.3,35.8 1026.7,35.2 1027.1,34.6 1027.5,34 1027.8,33.4 1028,32.8 1028.2,32.1 1028.3,31.4 1028.4,30.7" />
<path stroke="#000000" stroke-width="2" d="M 1035.1,70" />
<path stroke="#000000" stroke-width="2" d="M 1037.1,20 1045.5,28.5" />
<path stroke="#000000" stroke-width="2" d="M 1054,20 1034.2,39.8 1039.6,26.9 1039.7,26.5 1039.8,26.2 1039.9,25.9 1039.9,25.5 1040,25.2 1039.9,24.8 1039.9,24.5 1039.8,24.1 1039.7,23.8 1039.6,23.5 1039.4,23.2 1039.2,22.9 1039,22.6 1038.8,22.3 1038.5,22.1 1038.3,21.9 1038,21.7 1037.7,21.5 1037.3,21.4 1037,21.3 1036.7,21.2 1036.3,21.2 1036,21.2 1035.6,21.2 1035.3,21.2 1034.9,21.3 1034.6,21.4 1034.3,21.5 1034,21.7 1033.7,21.9 1033.4,22.1 1033.1,22.3 1032.9,22.6 1032.7,22.9 1032.5,23.2 1032.3,23.5 1032.2,23.8 1032.1,24.1 1032,24.5 1032,24.8 1032,25.2 1032,25.5 1032,25.9 1032.1,26.2 1032.2,26.5 1032.3,26.9 1032.5,27.2 1032.7,27.5 1032.9,27.7 1033.1,28 1033.4,28.2 1033.7,28.5 1034,28.6 1034.3,28.8 1034.6,28.9 1034.9,29 1035.3,29.1 1035.6,29.2 1036,29.2 1036.3,29.2 1049.2,23.8 1050.1,23.8 1051,23.9 1051.8,24 1052.7,24.3 1053.5,24.6 1054.3,24.9 1055.1,25.4 1055.8,25.9 1056.4,26.4 1057.1,27 1057.6,27.7 1058.1,28.4 1058.6,29.2 1058.9,30 1059.2,30.8 1059.4,31.6 1059.6,32.5 1059.7,33.4 1059.7,34.2 1059.6,35.1 1059.4,36 1059.2,36.8 1058.9,37.6 1058.6,38.4 1058.1,39.2 1057.6,39.9 1057.1,40.5 1056.4,41.2 1055.8,41.7 1055.1,42.2 1054.3,42.7 1053.5,43 1052.7,43.3 1051.8,43.6 1051,43.7 1050.1,43.8" />
<path stroke="#000000" stroke-width="2" d="M 1089.7,70" />
<path stroke="#000000" stroke-width="2" d="M 1089.7,30 1089.7,50 1099.7,50 1119.7,50" />
<path stroke="#000000" stroke-width="2" d="M 1149.7,70" />
<path stroke="#000000" stroke-width="2" d="M 1149.7,70 1149.9,70 1149.9,70.2 1149.7,70.2 1149.7,70" />
<path stroke="#000000" stroke-width="2" d="M 1156.5,70" />
<path stroke="#000000" stroke-width="2" d="M 1156.5,30 1158.3,30 1160,30.2 1161.7,30.5 1163.4,30.9 1165.1,31.5 1166.6,32.2 1168.2,33.1 1169.6,34.1 1170.9,35.2 1172.2,36.5 1173.3,37.8 1174.3,39.2 1175.1,40.7 1175.9,42.3 1176.5,44 1176.9,45.7 1177.2,47.4 1177.4,49.1 1177.4,50.9 1177.2,52.6 1176.9,54.3 1176.5,56 1175.9,57.6 1175.1,59.2 1174.3,60.7 1173.3,62.2 1172.2,63.5 1170.9,64.7 1169.6,65.8 1168.2,66.8 1166.6,67.7 1165.1,68.5 1163.4,69.1 1161.7,69.5 1160,69.8 1158.3,70" />
<path stroke="#000000" stroke-width="2" d="M 1184.1,70" />
<path stroke="#000000" stroke-width="2" d="M 1186.1,20 1194.5,28.5" />
<path stroke="#000000" stroke-width="2" d="M 1203,20 1183.2,39.8" />
<path stroke="#000000" stroke-width="2" d="M 1233,70" />
</svg>