<svg xmlns="http://www.w3.org/2000/svg" width="675.228694556157" height="122.0" style="fill:none; stroke-linecap:round;">
    <rect width="100%" height="100%" fill="#FFFFFF" />
<path stroke="#000000" stroke-width="2" d="M 550,75" />
<path stroke="#000000" stroke-width="2" d="M 30,30" />
<path stroke="#000000" stroke-width="2" d="M 30,30 27.1,30.3 24.6,31.1 22.3,32.4 20.4,34.2 18.8,36.2 17.4,38.6 16.4,41.3 15.6,44.1 15.2,47 15,50 15.1,53 15.6,55.9 16.4,58.7 17.4,61.4 18.8,63.8 20.4,65.8 22.3,67.6 24.6,68.9 27.1,69.7 30,70" />
<path stroke="#000000" stroke-width="2" d="M 30,70 30.1,70 30.6,70 31.2,70 32.1,70.1 33.1,70.2 34.3,70.3 35.6,70.4 37,70.6 38.5,70.9 40,71.2 41.5,71.7 43,72.2 44.4,72.7 45.7,73.4 46.9,74.2 47.9,75.1 48.8,76.1 49.4,77.3 49.9,78.6 50,80" />
<path stroke="#000000" stroke-width="2" d="M 50,80 51.9,82.1 53.2,84.1 54,85.7 54.3,87.2 54.2,88.4 53.8,89.5 53.1,90.2 52.2,90.8 51.1,91.1 50,91.2 48.9,91.1 47.8,90.8 46.9,90.2 46.2,89.5 45.8,88.4 45.7,87.2 46,85.7 46.8,84.1 48.1,82.1 50,80" />
<path stroke="#000000" stroke-width="2" d="M 50,80 50,79.9 50,79.7 50.1,79.4 50.2,79 50.3,78.4 50.5,77.8 50.9,77.2 51.3,76.5 51.8,75.7 52.5,75 53.3,74.3 54.3,73.5 55.5,72.8 56.9,72.2 58.4,71.6 60.2,71 62.3,70.6 64.6,70.3 67.1,70.1 70,70 70,90 70,84 70,83.1 70.1,82.3 70.2,81.4 70.5,80.6 70.8,79.7 71.1,78.9 71.6,78.2 72.1,77.5 72.6,76.8 73.2,76.2 73.9,75.6 74.6,75.1 75.4,74.7 76.2,74.3 77,74 77.8,73.8 78.7,73.6 79.6,73.6" />
<path stroke="#000000" stroke-width="2" d="M 109.6,70" />
<path stroke="#000000" stroke-width="2" d="M 109.6,40" />
<path stroke="#000000" stroke-width="2" d="M 109.6,40 113.6,39.8 116.8,39.2 119.3,38.3 121.1,37.1 122.2,35.8 122.8,34.3 122.9,32.8 122.5,31.4 121.8,30 120.8,28.8 119.6,27.7 118.2,27 116.7,26.7 115.2,26.8 113.8,27.3 112.4,28.5 111.3,30.2 110.4,32.7 109.8,35.9 109.6,40 109.6,70" />
<path stroke="#000000" stroke-width="2" d="M 129.5,70" />
<path stroke="#000000" stroke-width="2" d="M 129.5,50" />
<path stroke="#000000" stroke-width="2" d="M 129.5,50 129.7,50 130.1,50 130.7,50 131.6,50.1 132.7,50.2 133.8,50.3 135.2,50.4 136.6,50.6 138,50.9 139.5,51.2 141,51.7 142.5,52.2 143.9,52.7 145.2,53.4 146.4,54.2 147.4,55.1 148.3,56.1 149,57.3 149.4,58.6 149.5,60" />
<path stroke="#000000" stroke-width="2" d="M 149.5,60 151.5,62.1 152.8,64.1 153.5,65.7 153.8,67.2 153.7,68.4 153.3,69.5 152.6,70.2 151.7,70.8 150.6,71.1 149.5,71.2 148.4,71.1 147.4,70.8 146.5,70.2 145.7,69.5 145.3,68.4 145.2,67.2 145.5,65.7 146.3,64 147.6,62.1 149.5,60" />
<path stroke="#000000" stroke-width="2" d="M 149.5,60 149.5,59.9 149.5,59.7 149.6,59.4 149.7,59 149.8,58.4 150.1,57.8 150.4,57.2 150.8,56.5 151.4,55.7 152,55 152.9,54.3 153.8,53.5 155,52.8 156.4,52.2 158,51.6 159.8,51 161.8,50.6 164.1,50.3 166.7,50.1 169.5,50 169.5,50.7 169.6,51.4 169.7,52.1 169.9,52.8 170.1,53.4 170.4,54 170.8,54.6 171.2,55.2 171.6,55.8 172.1,56.2 172.7,56.7 173.2,57.1 173.8,57.4 174.5,57.7 175.1,58 175.8,58.2 176.5,58.3 177.2,58.3 177.9,58.3 178.6,58.3 179.3,58.2 179.9,58 180.6,57.7 181.2,57.4 181.8,57.1 182.4,56.7 182.9,56.2 183.4,55.8 183.9,55.2 184.3,54.6 184.6,54 184.9,53.4 185.2,52.8 185.3,52.1 185.5,51.4 185.5,50.7" />
<path stroke="#000000" stroke-width="2" d="M 215.5,70" />
<path stroke="#000000" stroke-width="2" d="M 215.5,70 227,42.3" />
<path stroke="#000000" stroke-width="2" d="M 227,42.3 231.1,42.1 234.3,41.5 236.7,40.6 238.5,39.4 239.7,38.1 240.2,36.6 240.3,35.1 240,33.6 239.2,32.3 238.2,31 237,30 235.6,29.3 234.2,29 232.7,29.1 231.2,29.6 229.9,30.8 228.7,32.5 227.8,35 227.2,38.2 227,42.3 227,72.3" />
<path stroke="#000000" stroke-width="2" d="M 270.3,70" />
<path stroke="#000000" stroke-width="2" d="M 270.3,30 310.3,30" />
<path stroke="#000000" stroke-width="2" d="M 317,70" />
<path stroke="#000000" stroke-width="2" d="M 341,42" />
<path stroke="#000000" stroke-width="2" d="M 341,42 336.9,41.8 333.7,41.2 331.2,40.3 329.5,39.1 328.3,37.8 327.7,36.3 327.7,34.8 328,33.4 328.7,32 329.7,30.8 330.9,29.7 332.3,29 333.8,28.7 335.3,28.8 336.8,29.3 338.1,30.5 339.2,32.2 340.2,34.7 340.8,37.9 341,42 341,50" />
<path stroke="#000000" stroke-width="2" d="M 341,50 340.3,51.7 339.7,53.4 338.9,54.9 338.1,56.3 337.3,57.6 336.4,58.7 335.5,59.8 334.5,60.8 333.5,61.7 332.5,62.5 331.4,63.2 330.3,63.8 329.2,64.4 328.1,64.8 326.9,65.2 325.7,65.5 324.6,65.7 323.4,65.9 322.2,66 321,66" />
<path stroke="#000000" stroke-width="2" d="M 371,70" />
<path stroke="#000000" stroke-width="2" d="M 391,30 371.2,49.8" />
<path stroke="#000000" stroke-width="2" d="M 371.2,29.8 391,49.6" />
<path stroke="#000000" stroke-width="2" d="M 391,49.6 390.9,51.6 390.6,53.2 390.1,54.5 389.5,55.4 388.9,55.9 388.1,56.2 387.4,56.3 386.7,56.1 386,55.7 385.3,55.2 384.8,54.6 384.5,53.9 384.3,53.2 384.4,52.4 384.6,51.7 385.2,51 386.1,50.5 387.3,50 388.9,49.7 391,49.6 401,49.6" />
<path stroke="#000000" stroke-width="2" d="M 407.6,70" />
<path stroke="#000000" stroke-width="2" d="M 407.6,20 407.6,40 407.6,34 407.6,33.1 407.7,32.3 407.9,31.4 408.1,30.6 408.4,29.7 408.8,28.9 409.2,28.2 409.7,27.5 410.3,26.8 410.9,26.2 411.5,25.6 412.3,25.1 413,24.7 413.8,24.3 414.6,24 415.5,23.8 416.3,23.6 417.2,23.6" />
<path stroke="#000000" stroke-width="2" d="M 423.9,70" />
<path stroke="#000000" stroke-width="2" d="M 423.9,30 443.9,30" />
<path stroke="#000000" stroke-width="2" d="M 443.9,30 445.9,29.9 447.5,29.6 448.7,29.1 449.6,28.6 450.2,27.9 450.5,27.2 450.5,26.4 450.3,25.7 450,25 449.5,24.4 448.9,23.9 448.2,23.5 447.4,23.3 446.7,23.4 446,23.7 445.3,24.2 444.7,25.1 444.3,26.4 444,28 443.9,30 443.9,45" />
<path stroke="#000000" stroke-width="2" d="M 443.9,45 445.3,45.1 446.6,45.6 447.7,46.2 448.7,47.1 449.5,48.1 450.2,49.3 450.7,50.6 451.1,52 451.3,53.5 451.4,55 451.3,56.5 451.1,58 450.7,59.4 450.2,60.7 449.5,61.9 448.7,62.9 447.7,63.8 446.6,64.4 445.3,64.9 443.9,65" />
<path stroke="#000000" stroke-width="2" d="M 481.4,70" />
<path stroke="#000000" stroke-width="2" d="M 481.4,50 489,31.5 489,30.8 489.1,30.1 489.2,29.4 489.4,28.8 489.6,28.1 489.9,27.5 490.3,26.9 490.7,26.3 491.1,25.8 491.6,25.3 492.1,24.8 492.7,24.4 493.3,24.1 493.9,23.8 494.6,23.5 495.3,23.4 496,23.2 496.7,23.2 497.4,23.2 498,23.2 498.7,23.4 499.4,23.5 500.1,23.8 500.7,24.1 501.3,24.4 501.9,24.8 502.4,25.3 502.9,25.8 503.4,26.3 503.8,26.9 504.1,27.5 504.4,28.1 504.6,28.8 504.8,29.4 504.9,30.1 505,30.8 514.9,40.7 505,50.6" />
<path stroke="#000000" stroke-width="2" d="M 521.6,70" />
<path stroke="#000000" stroke-width="2" d="M 521.6,70 529.2,51.5 529.2,52.2 529.3,52.9 529.4,53.6 529.6,54.3 529.8,54.9 530.1,55.6 530.5,56.2 530.9,56.7 531.3,57.3 531.8,57.8 532.3,58.2 532.9,58.6 533.5,59 534.1,59.3 534.8,59.5 535.5,59.7 536.2,59.8 536.9,59.9 537.6,59.9 538.3,59.8 538.9,59.7 539.6,59.5 540.3,59.3 540.9,59 541.5,58.6 542.1,58.2 542.6,57.8 543.1,57.3 543.6,56.7 544,56.2 544.3,55.6 544.6,54.9 544.8,54.3 545,53.6 545.1,52.9 545.2,52.2" />
<path stroke="#000000" stroke-width="2" d="M 551.9,70" />
<path stroke="#000000" stroke-width="2" d="M 551.9,30 552.1,30 552.1,30.2 551.9,30.2 551.9,30" />
<path stroke="#000000" stroke-width="2" d="M 582.1,70" />
<path stroke="#000000" stroke-width="2" d="M 582.1,62 582.9,62 582.9,62.8 582.1,62.8 582.1,62" />
<path stroke="#000000" stroke-width="2" d="M 582.1,78" />
<path stroke="#000000" stroke-width="2" d="M 582.1,78 584.3,78.1 586.3,78.3 588,78.8 589.4,79.3 590.5,80.1 591.4,80.9 592,81.9 592.4,83 592.6,84.2 592.6,85.5 592.3,86.9 591.9,88.4 591.2,89.9 590.4,91.5 589.4,93.2 588.2,94.9 586.9,96.6 585.4,98.4 583.8,100.2 582.1,102" />
<path stroke="#000000" stroke-width="2" d="M 622.6,70" />
<path stroke="#000000" stroke-width="2" d="M 622.6,30 622.6,70 633.9,58.7" />
<path stroke="#000000" stroke-width="2" d="M 640.6,70" />
<path stroke="#000000" stroke-width="2" d="M 640.6,40 648.2,21.5 648.2,41.5 648.2,35.5 648.2,34.7 648.3,33.8 648.5,32.9 648.7,32.1 649,31.3 649.4,30.5 649.8,29.7 650.3,29 650.9,28.3 651.5,27.7 652.1,27.2 652.9,26.7 653.6,26.2 654.4,25.8 655.2,25.5" />
<path stroke="#000000" stroke-width="2" d="M 685.2,70" />
</svg>