<svg xmlns="http://www.w3.org/2000/svg" width="1435.5950354103215" height="108.47759065022574" style="fill:none; stroke-linecap:round;">
    <rect width="100%" height="100%" fill="#FFFFFF" />
<path stroke="#000000" stroke-width="2" d="M 550,75" />
<path stroke="#000000" stroke-width="2" d="M 20,30 20,70 40,70" />
<path stroke="#000000" stroke-width="2" d="M 70,70" />
<path stroke="#000000" stroke-width="2" d="M 80,30 70,30 70,70" />
<path stroke="#000000" stroke-width="2" d="M 86.7,70" />
<path stroke="#000000" stroke-width="2" d="M 86.7,50" />
<path stroke="#000000" stroke-width="2" d="M 86.7,50 86.8,50 87.2,50 87.9,50 88.7,50.1 89.8,50.2 91,50.3 92.3,50.4 93.7,50.6 95.2,50.9 96.7,51.2 98.2,51.7 99.6,52.2 101,52.7 102.3,53.4 103.5,54.2 104.6,55.1 105.5,56.1 106.1,57.3 106.5,58.6 106.7,60" />
<path stroke="#000000" stroke-width="2" d="M 106.7,60 108.6,62.1 109.9,64.1 110.7,65.7 111,67.2 110.9,68.4 110.4,69.5 109.7,70.2 108.8,70.8 107.8,71.1 106.7,71.2 105.6,71.1 104.5,70.8 103.6,70.2 102.9,69.5 102.4,68.4 102.3,67.2 102.7,65.7 103.4,64 104.7,62.1 106.7,60" />
<path stroke="#000000" stroke-width="2" d="M 106.7,60 106.7,59.9 106.7,59.7 106.7,59.4 106.8,59 107,58.4 107.2,57.8 107.5,57.2 107.9,56.5 108.5,55.7 109.2,55 110,54.3 111,53.5 112.2,52.8 113.5,52.2 115.1,51.6 116.9,51 118.9,50.6 121.2,50.3 123.8,50.1 126.7,50 126.7,50.7 126.7,51.4 126.8,52.1 127,52.8 127.3,53.4 127.6,54 127.9,54.6 128.3,55.2 128.8,55.8 129.3,56.2 129.8,56.7 130.4,57.1 131,57.4 131.6,57.7 132.3,58 132.9,58.2 133.6,58.3 134.3,58.3 135,58.3 135.7,58.3 136.4,58.2 137.1,58 137.7,57.7 138.4,57.4 139,57.1 139.5,56.7 140.1,56.2 140.6,55.8 141,55.2 141.4,54.6 141.8,54 142.1,53.4 142.3,52.8 142.5,52.1 142.6,51.4 142.7,50.7 143.5,50.7 144.4,50.8 145.3,50.9 146.1,51.2 146.9,51.4 147.7,51.8 148.5,52.3 149.2,52.8 149.8,53.3 150.5,53.9 151,54.6 151.5,55.3 152,56.1 152.3,56.9 152.6,57.7 152.9,58.5 153,59.4 153.1,60.3 153.1,61.1 153,62 152.9,62.9 152.6,63.7 152.3,64.5 152,65.3 151.5,66.1 151,66.8 150.5,67.4 149.8,68.1 149.2,68.6 148.5,69.1 147.7,69.6 146.9,69.9 146.1,70.2 145.3,70.5 144.4,70.6 143.5,70.7" />
<path stroke="#000000" stroke-width="2" d="M 183.1,70" />
<path stroke="#000000" stroke-width="2" d="M 183.1,30 193.1,30 193.1,70" />
<path stroke="#000000" stroke-width="2" d="M 199.7,70" />
<path stroke="#000000" stroke-width="2" d="M 199.7,20 199.7,20.7 199.8,21.4 199.9,22.1 200.1,22.8 200.3,23.4 200.6,24 201,24.6 201.4,25.2 201.8,25.8 202.3,26.2 202.9,26.7 203.4,27.1 204,27.4 204.7,27.7 205.3,28 206,28.2 206.7,28.3 207.4,28.3 208.1,28.3 208.8,28.3 209.5,28.2 210.1,28 210.8,27.7 211.4,27.4 212,27.1 212.6,26.7 213.1,26.2 213.6,25.8 214.1,25.2 214.5,24.6 214.8,24 215.1,23.4 215.4,22.8 215.5,22.1 215.7,21.4 215.7,20.7" />
<path stroke="#000000" stroke-width="2" d="M 245.7,70" />
<path stroke="#000000" stroke-width="2" d="M 261.7,30 241.9,49.8 261.7,69.6" />
<path stroke="#000000" stroke-width="2" d="M 268.4,70" />
<path stroke="#000000" stroke-width="2" d="M 268.4,20 268.4,40 268.4,34 268.4,33.1 268.5,32.3 268.6,31.4 268.8,30.6 269.1,29.7 269.5,28.9 270,28.2 270.5,27.5 271,26.8 271.6,26.2 272.3,25.6 273,25.1 273.8,24.7 274.6,24.3 275.4,24 276.2,23.8 277.1,23.6 278,23.6" />
<path stroke="#000000" stroke-width="2" d="M 308,70" />
<path stroke="#000000" stroke-width="2" d="M 308,30 308,70" />
<path stroke="#000000" stroke-width="2" d="M 314.6,70" />
<path stroke="#000000" stroke-width="2" d="M 314.6,50 315.5,50 316.4,50.1 317.2,50.2 318.1,50.5 318.9,50.8 319.7,51.1 320.4,51.6 321.1,52.1 321.8,52.6 322.4,53.2 323,53.9 323.5,54.6 323.9,55.4 324.3,56.2 324.6,57 324.8,57.8 325,58.7 325,59.6 325,60.4 325,61.3 324.8,62.2 324.6,63 324.3,63.8 323.9,64.6 323.5,65.4 323,66.1 322.4,66.7 321.8,67.4 321.1,67.9 320.4,68.4 319.7,68.9 318.9,69.2 318.1,69.5 317.2,69.8 316.4,69.9 315.5,70" />
<path stroke="#000000" stroke-width="2" d="M 331.7,70" />
<path stroke="#000000" stroke-width="2" d="M 331.7,30 331.9,30 331.9,30.2 331.7,30.2 331.7,30" />
<path stroke="#000000" stroke-width="2" d="M 361.9,70" />
<path stroke="#000000" stroke-width="2" d="M 361.9,30 361.9,70 373.2,58.7" />
<path stroke="#000000" stroke-width="2" d="M 379.9,70" />
<path stroke="#000000" stroke-width="2" d="M 379.9,20 379.9,40 379.9,34 379.9,33.1 380,32.3 380.1,31.4 380.3,30.6 380.6,29.7 381,28.9 381.4,28.2 381.9,27.5 382.5,26.8 383.1,26.2 383.8,25.6 384.5,25.1 385.3,24.7 386.1,24.3 386.9,24 387.7,23.8 388.6,23.6 389.4,23.6 397.1,42.1 398,42.1 398.8,42 399.7,41.8 400.5,41.6 401.4,41.3 402.2,40.9 402.9,40.5 403.6,40 404.3,39.4 404.9,38.8 405.5,38.1 406,37.4 406.4,36.7 406.8,35.9 407.1,35.1 407.3,34.2 407.4,33.4 407.5,32.5 407.5,31.6 407.4,30.8 407.3,29.9 407.1,29.1 406.8,28.2 406.4,27.4 406,26.7 405.5,26 404.9,25.3 404.3,24.7 403.6,24.1 402.9,23.6 402.2,23.2 401.4,22.8 400.5,22.5 399.7,22.3 398.8,22.1 398,22.1 397.1,22.1 396.2,22.1 395.4,22.3 394.5,22.5 393.7,22.8 392.9,23.2 392.2,23.6 391.4,24.1 390.8,24.7 390.2,25.3 389.6,26 389.1,26.7 388.7,27.4 388.3,28.2 388,29.1 387.8,29.9 387.6,30.8 387.5,31.6 387.5,32.5 387.6,33.4 387.8,34.2 388,35.1 388.3,35.9 388.7,36.7 389.1,37.4 389.6,38.1 390.2,38.8 390.8,39.4 391.4,40 392.2,40.5 392.9,40.9 393.7,41.3 394.5,41.6 395.4,41.8 396.2,42 397.1,42.1" />
<path stroke="#000000" stroke-width="2" d="M 437.5,70" />
<path stroke="#000000" stroke-width="2" d="M 437.5,30 437.5,70 457.5,70" />
<path stroke="#000000" stroke-width="2" d="M 487.5,70" />
<path stroke="#000000" stroke-width="2" d="M 497.5,30 487.5,30 487.5,70" />
<path stroke="#000000" stroke-width="2" d="M 504.2,70" />
<path stroke="#000000" stroke-width="2" d="M 504.2,50" />
<path stroke="#000000" stroke-width="2" d="M 504.2,50 504.3,50 504.8,50 505.4,50 506.3,50.1 507.3,50.2 508.5,50.3 509.8,50.4 511.2,50.6 512.7,50.9 514.2,51.2 515.7,51.7 517.2,52.2 518.6,52.7 519.9,53.4 521.1,54.2 522.1,55.1 523,56.1 523.6,57.3 524,58.6 524.2,60" />
<path stroke="#000000" stroke-width="2" d="M 524.2,60 526.1,62.1 527.4,64.1 528.2,65.7 528.5,67.2 528.4,68.4 528,69.5 527.3,70.2 526.4,70.8 525.3,71.1 524.2,71.2 523.1,71.1 522,70.8 521.1,70.2 520.4,69.5 520,68.4 519.9,67.2 520.2,65.7 521,64 522.3,62.1 524.2,60" />
<path stroke="#000000" stroke-width="2" d="M 524.2,60 524.2,59.9 524.2,59.7 524.3,59.4 524.4,59 524.5,58.4 524.7,57.8 525,57.2 525.5,56.5 526,55.7 526.7,55 527.5,54.3 528.5,53.5 529.7,52.8 531.1,52.2 532.6,51.6 534.4,51 536.5,50.6 538.8,50.3 541.3,50.1 544.2,50 544.2,50.7 544.3,51.4 544.4,52.1 544.6,52.8 544.8,53.4 545.1,54 545.4,54.6 545.8,55.2 546.3,55.8 546.8,56.2 547.3,56.7 547.9,57.1 548.5,57.4 549.1,57.7 549.8,58 550.5,58.2 551.1,58.3 551.8,58.3 552.5,58.3 553.2,58.3 553.9,58.2 554.6,58 555.2,57.7 555.9,57.4 556.5,57.1 557.1,56.7 557.6,56.2 558.1,55.8 558.5,55.2 558.9,54.6 559.3,54 559.6,53.4 559.8,52.8 560,52.1 560.1,51.4 560.2,50.7 561,50.7 561.9,50.8 562.8,50.9 563.6,51.2 564.4,51.4 565.2,51.8 566,52.3 566.7,52.8 567.4,53.3 568,53.9 568.5,54.6 569,55.3 569.5,56.1 569.9,56.9 570.2,57.7 570.4,58.5 570.5,59.4 570.6,60.3 570.6,61.1 570.5,62 570.4,62.9 570.2,63.7 569.9,64.5 569.5,65.3 569,66.1 568.5,66.8 568,67.4 567.4,68.1 566.7,68.6 566,69.1 565.2,69.6 564.4,69.9 563.6,70.2 562.8,70.5 561.9,70.6 561,70.7" />
<path stroke="#000000" stroke-width="2" d="M 600.6,70" />
<path stroke="#000000" stroke-width="2" d="M 600.6,30 610.6,30 610.6,70" />
<path stroke="#000000" stroke-width="2" d="M 617.3,70" />
<path stroke="#000000" stroke-width="2" d="M 617.3,20 617.3,20.7 617.3,21.4 617.5,22.1 617.6,22.8 617.9,23.4 618.2,24 618.5,24.6 618.9,25.2 619.4,25.8 619.9,26.2 620.4,26.7 621,27.1 621.6,27.4 622.2,27.7 622.9,28 623.5,28.2 624.2,28.3 624.9,28.3 625.6,28.3 626.3,28.3 627,28.2 627.7,28 628.3,27.7 629,27.4 629.6,27.1 630.1,26.7 630.7,26.2 631.2,25.8 631.6,25.2 632,24.6 632.4,24 632.7,23.4 632.9,22.8 633.1,22.1 633.2,21.4 633.3,20.7" />
<path stroke="#000000" stroke-width="2" d="M 663.3,70" />
<path stroke="#000000" stroke-width="2" d="M 663.3,40 663.5,40 663.5,40.2 663.3,40.2 663.3,40" />
<path stroke="#000000" stroke-width="2" d="M 670.1,70" />
<path stroke="#000000" stroke-width="2" d="M 690.1,30 674.8,67" />
<path stroke="#000000" stroke-width="2" d="M 696.8,70" />
<path stroke="#000000" stroke-width="2" d="M 696.8,50 701.8,50 701.8,70 694.1,88.5" />
<path stroke="#000000" stroke-width="2" d="M 731.8,70" />
<path stroke="#000000" stroke-width="2" d="M 741.8,30 740.9,30 740,30.1 739.2,30.2 738.3,30.5 737.5,30.8 736.7,31.1 736,31.6 735.3,32.1 734.6,32.6 734,33.2 733.4,33.9 732.9,34.6 732.5,35.4 732.1,36.2 731.8,37 731.6,37.8 731.4,38.7 731.4,39.6 731.4,40.4 731.4,41.3 731.6,42.2 731.8,43 732.1,43.8 732.5,44.6 732.9,45.4 733.4,46.1 734,46.7 734.6,47.4 735.3,47.9 736,48.4 736.7,48.9 737.5,49.2 738.3,49.5 739.2,49.8 740,49.9 740.9,50 760.9,50" />
<path stroke="#000000" stroke-width="2" d="M 790.9,70" />
<path stroke="#000000" stroke-width="2" d="M 806.9,30 787.1,49.8 806.9,69.6" />
<path stroke="#000000" stroke-width="2" d="M 813.6,70" />
<path stroke="#000000" stroke-width="2" d="M 813.6,20 813.6,40 813.6,34 813.6,33.1 813.7,32.3 813.8,31.4 814,30.6 814.3,29.7 814.7,28.9 815.1,28.2 815.6,27.5 816.2,26.8 816.8,26.2 817.5,25.6 818.2,25.1 819,24.7 819.7,24.3 820.6,24 821.4,23.8 822.3,23.6 823.1,23.6" />
<path stroke="#000000" stroke-width="2" d="M 853.1,70" />
<path stroke="#000000" stroke-width="2" d="M 853.1,30 872.9,49.8 853.1,69.6" />
<path stroke="#000000" stroke-width="2" d="M 879.6,70" />
<path stroke="#000000" stroke-width="2" d="M 879.6,25" />
<path stroke="#000000" stroke-width="2" d="M 879.6,25 881.6,24.9 883.2,24.6 884.5,24.1 885.4,23.6 885.9,22.9 886.2,22.2 886.3,21.4 886.1,20.7 885.7,20 885.2,19.4 884.6,18.9 883.9,18.5 883.2,18.3 882.4,18.4 881.7,18.7 881,19.2 880.5,20.1 880,21.4 879.7,23 879.6,25 879.6,40 871.9,58.5" />
<path stroke="#000000" stroke-width="2" d="M 916.3,70" />
<path stroke="#000000" stroke-width="2" d="M 916.3,70 916.5,70 916.5,70.2 916.3,70.2 916.3,70" />
<path stroke="#000000" stroke-width="2" d="M 946.5,70" />
<path stroke="#000000" stroke-width="2" d="M 946.5,30 946.5,70 966.5,70" />
<path stroke="#000000" stroke-width="2" d="M 996.5,70" />
<path stroke="#000000" stroke-width="2" d="M 1006.5,30 996.5,30 996.5,70" />
<path stroke="#000000" stroke-width="2" d="M 1013.1,70" />
<path stroke="#000000" stroke-width="2" d="M 1013.1,50" />
<path stroke="#000000" stroke-width="2" d="M 1013.1,50 1013.3,50 1013.7,50 1014.3,50 1015.2,50.1 1016.2,50.2 1017.4,50.3 1018.8,50.4 1020.2,50.6 1021.6,50.9 1023.1,51.2 1024.6,51.7 1026.1,52.2 1027.5,52.7 1028.8,53.4 1030,54.2 1031,55.1 1031.9,56.1 1032.6,57.3 1033,58.6 1033.1,60" />
<path stroke="#000000" stroke-width="2" d="M 1033.1,60 1035,62.1 1036.4,64.1 1037.1,65.7 1037.4,67.2 1037.3,68.4 1036.9,69.5 1036.2,70.2 1035.3,70.8 1034.2,71.1 1033.1,71.2 1032,71.1 1031,70.8 1030.1,70.2 1029.3,69.5 1028.9,68.4 1028.8,67.2 1029.1,65.7 1029.9,64 1031.2,62.1 1033.1,60" />
<path stroke="#000000" stroke-width="2" d="M 1033.1,60 1033.1,59.9 1033.1,59.7 1033.2,59.4 1033.3,59 1033.4,58.4 1033.7,57.8 1034,57.2 1034.4,56.5 1034.9,55.7 1035.6,55 1036.5,54.3 1037.4,53.5 1038.6,52.8 1040,52.2 1041.6,51.6 1043.4,51 1045.4,50.6 1047.7,50.3 1050.3,50.1 1053.1,50 1053.1,50.7 1053.2,51.4 1053.3,52.1 1053.5,52.8 1053.7,53.4 1054,54 1054.4,54.6 1054.8,55.2 1055.2,55.8 1055.7,56.2 1056.2,56.7 1056.8,57.1 1057.4,57.4 1058.1,57.7 1058.7,58 1059.4,58.2 1060.1,58.3 1060.8,58.3 1061.5,58.3 1062.2,58.3 1062.8,58.2 1063.5,58 1064.2,57.7 1064.8,57.4 1065.4,57.1 1066,56.7 1066.5,56.2 1067,55.8 1067.5,55.2 1067.9,54.6 1068.2,54 1068.5,53.4 1068.7,52.8 1068.9,52.1 1069,51.4 1069.1,50.7 1070,50.7 1070.8,50.8 1071.7,50.9 1072.6,51.2 1073.4,51.4 1074.2,51.8 1074.9,52.3 1075.6,52.8 1076.3,53.3 1076.9,53.9 1077.5,54.6 1078,55.3 1078.4,56.1 1078.8,56.9 1079.1,57.7 1079.3,58.5 1079.5,59.4 1079.5,60.3 1079.5,61.1 1079.5,62 1079.3,62.9 1079.1,63.7 1078.8,64.5 1078.4,65.3 1078,66.1 1077.5,66.8 1076.9,67.4 1076.3,68.1 1075.6,68.6 1074.9,69.1 1074.2,69.6 1073.4,69.9 1072.6,70.2 1071.7,70.5 1070.8,70.6 1070,70.7" />
<path stroke="#000000" stroke-width="2" d="M 1109.5,70" />
<path stroke="#000000" stroke-width="2" d="M 1109.5,30 1119.5,30 1119.5,70" />
<path stroke="#000000" stroke-width="2" d="M 1126.2,70" />
<path stroke="#000000" stroke-width="2" d="M 1126.2,20 1126.2,20.7 1126.3,21.4 1126.4,22.1 1126.6,22.8 1126.8,23.4 1127.1,24 1127.4,24.6 1127.8,25.2 1128.3,25.8 1128.8,26.2 1129.3,26.7 1129.9,27.1 1130.5,27.4 1131.1,27.7 1131.8,28 1132.5,28.2 1133.1,28.3 1133.8,28.3 1134.5,28.3 1135.2,28.3 1135.9,28.2 1136.6,28 1137.3,27.7 1137.9,27.4 1138.5,27.1 1139.1,26.7 1139.6,26.2 1140.1,25.8 1140.5,25.2 1140.9,24.6 1141.3,24 1141.6,23.4 1141.8,22.8 1142,22.1 1142.1,21.4 1142.2,20.7" />
<path stroke="#000000" stroke-width="2" d="M 1172.2,70" />
<path stroke="#000000" stroke-width="2" d="M 1172.2,30 1192.2,30 1193.1,30 1193.9,30.1 1194.8,30.2 1195.6,30.5 1196.4,30.8 1197.2,31.1 1198,31.6 1198.7,32.1 1199.4,32.6 1200,33.2 1200.6,33.9 1201.1,34.6 1201.5,35.4 1201.9,36.2 1202.2,37 1202.4,37.8 1202.5,38.7 1202.6,39.6 1202.6,40.4 1202.5,41.3 1202.4,42.2 1202.2,43 1201.9,43.8 1201.5,44.6 1201.1,45.4 1200.6,46.1 1200,46.7 1199.4,47.4 1198.7,47.9 1198,48.4 1197.2,48.9 1196.4,49.2 1195.6,49.5 1194.8,49.8 1193.9,49.9 1193.1,50" />
<path stroke="#000000" stroke-width="2" d="M 1209.3,70" />
<path stroke="#000000" stroke-width="2" d="M 1209.3,30 1224.6,67 1239.9,30" />
<path stroke="#000000" stroke-width="2" d="M 1246.6,70" />
<path stroke="#000000" stroke-width="2" d="M 1246.6,30 1248.3,30 1250,30.2 1251.8,30.5 1253.4,30.9 1255.1,31.5 1256.7,32.2 1258.2,33.1 1259.6,34.1 1260.9,35.2 1262.2,36.5 1263.3,37.8 1264.3,39.2 1265.2,40.7 1265.9,42.3 1266.5,44 1267,45.7 1267.3,47.4 1267.4,49.1 1267.4,50.9 1267.3,52.6 1267,54.3 1266.5,56 1265.9,57.6 1265.2,59.2 1264.3,60.7 1263.3,62.2 1262.2,63.5 1260.9,64.7 1259.6,65.8 1258.2,66.8 1256.7,67.7 1255.1,68.5 1253.4,69.1 1251.8,69.5 1250,69.8 1248.3,70" />
<path stroke="#000000" stroke-width="2" d="M 1274.1,70" />
<path stroke="#000000" stroke-width="2" d="M 1274.1,70 1281.7,51.5 1281.7,52.2 1281.8,52.9 1281.9,53.6 1282.1,54.3 1282.3,54.9 1282.6,55.6 1283,56.2 1283.4,56.7 1283.8,57.3 1284.3,57.8 1284.9,58.2 1285.4,58.6 1286,59 1286.7,59.3 1287.3,59.5 1288,59.7 1288.7,59.8 1289.4,59.9 1290.1,59.9 1290.8,59.8 1291.5,59.7 1292.1,59.5 1292.8,59.3 1293.4,59 1294,58.6 1294.6,58.2 1295.1,57.8 1295.6,57.3 1296.1,56.7 1296.5,56.2 1296.8,55.6 1297.1,54.9 1297.4,54.3 1297.5,53.6 1297.7,52.9 1297.7,52.2" />
<path stroke="#000000" stroke-width="2" d="M 1327.7,70" />
<path stroke="#000000" stroke-width="2" d="M 1327.7,35" />
<path stroke="#000000" stroke-width="2" d="M 1327.7,35 1329.8,34.9 1331.4,34.6 1332.6,34.1 1333.5,33.6 1334,32.9 1334.3,32.2 1334.4,31.4 1334.2,30.7 1333.8,30 1333.3,29.4 1332.7,28.9 1332,28.5 1331.3,28.3 1330.6,28.4 1329.8,28.7 1329.2,29.2 1328.6,30.1 1328.1,31.4 1327.8,33 1327.7,35 1327.7,50 1320.1,68.5 1322.4,62.9 1322.7,62.1 1323.1,61.4 1323.6,60.6 1324.1,59.9 1324.7,59.3 1325.3,58.7 1326,58.2 1326.8,57.7 1327.5,57.3 1328.3,57 1329.2,56.7 1330,56.5" />
<path stroke="#000000" stroke-width="2" d="M 1341,70" />
<path stroke="#000000" stroke-width="2" d="M 1341,20 1361,20 1361.9,20 1362.8,20.1 1363.6,20.2 1364.5,20.5 1365.3,20.8 1366.1,21.1 1366.8,21.6 1367.6,22.1 1368.2,22.6 1368.8,23.2 1369.4,23.9 1369.9,24.6 1370.3,25.4 1370.7,26.2 1371,27 1371.2,27.8 1371.4,28.7 1371.5,29.6 1371.5,30.4 1371.4,31.3 1371.2,32.2 1371,33 1370.7,33.8 1370.3,34.6 1369.9,35.4 1369.4,36.1 1368.8,36.7 1368.2,37.4 1367.6,37.9 1366.8,38.4 1366.1,38.9 1365.3,39.2 1364.5,39.5 1363.6,39.8 1362.8,39.9 1361.9,40" />
<path stroke="#000000" stroke-width="2" d="M 1361.9,40 1363.9,39.9 1365.6,39.6 1366.8,39.1 1367.7,38.5 1368.2,37.9 1368.5,37.1 1368.6,36.4 1368.4,35.7 1368,35 1367.5,34.4 1366.9,33.9 1366.2,33.5 1365.5,33.3 1364.7,33.4 1364,33.7 1363.4,34.2 1362.8,35.1 1362.3,36.3 1362,38 1361.9,40 1361.9,55" />
<path stroke="#000000" stroke-width="2" d="M 1401.5,70" />
<path stroke="#000000" stroke-width="2" d="M 1411.5,30 1410.6,30 1409.7,30.1 1408.9,30.2 1408,30.5 1407.2,30.8 1406.4,31.1 1405.7,31.6 1404.9,32.1 1404.3,32.6 1403.7,33.2 1403.1,33.9 1402.6,34.6 1402.2,35.4 1401.8,36.2 1401.5,37 1401.3,37.8 1401.1,38.7 1401,39.6 1401,40.4 1401.1,41.3 1401.3,42.2 1401.5,43 1401.8,43.8 1402.2,44.6 1402.6,45.4 1403.1,46.1 1403.7,46.7 1404.3,47.4 1404.9,47.9 1405.7,48.4 1406.4,48.9 1407.2,49.2 1408,49.5 1408.9,49.8 1409.7,49.9 1410.6,50 1415.6,50 1415.6,70" />
<path stroke="#000000" stroke-width="2" d="M 1445.6,70" />
</svg>