<svg xmlns="http://www.w3.org/2000/svg" width="962.8884541447618" height="93.04481869954853" style="fill:none; stroke-linecap:round;">
    <rect width="100%" height="100%" fill="#FFFFFF" />
<path stroke="#000000" stroke-width="2" d="M 550,75" />
<path stroke="#000000" stroke-width="2" d="M 20,30 20,70 40,70" />
<path stroke="#000000" stroke-width="2" d="M 70,70" />
<path stroke="#000000" stroke-width="2" d="M 86,30 66.2,49.8 86,69.6" />
<path stroke="#000000" stroke-width="2" d="M 92.7,70" />
<path stroke="#000000" stroke-width="2" d="M 92.7,20" />
<path stroke="#000000" stroke-width="2" d="M 92.7,20 94.1,20.1 95.4,20.6 96.5,21.2 97.5,22.1 98.3,23.1 99,24.3 99.5,25.6 99.9,27 100.1,28.5 100.2,30 100.1,31.5 99.9,33 99.5,34.4 99,35.7 98.3,36.9 97.5,37.9 96.5,38.8 95.4,39.4 94.1,39.9 92.7,40" />
<path stroke="#000000" stroke-width="2" d="M 130.2,70" />
<path stroke="#000000" stroke-width="2" d="M 130.2,30 170.2,30" />
<path stroke="#000000" stroke-width="2" d="M 176.8,70" />
<path stroke="#000000" stroke-width="2" d="M 176.8,50 176.8,70 182.5,64.3" />
<path stroke="#000000" stroke-width="2" d="M 212.5,70" />
<path stroke="#000000" stroke-width="2" d="M 212.5,35" />
<path stroke="#000000" stroke-width="2" d="M 212.5,35 214.5,34.9 216.1,34.6 217.4,34.1 218.3,33.6 218.8,32.9 219.1,32.2 219.1,31.4 219,30.7 218.6,30 218.1,29.4 217.5,28.9 216.8,28.5 216.1,28.3 215.3,28.4 214.6,28.7 213.9,29.2 213.4,30.1 212.9,31.4 212.6,33 212.5,35 212.5,50" />
<path stroke="#000000" stroke-width="2" d="M 212.5,50 212.4,52 212.1,53.6 211.6,54.9 211.1,55.8 210.4,56.3 209.7,56.6 208.9,56.7 208.2,56.5 207.5,56.1 206.9,55.6 206.4,55 206,54.3 205.8,53.6 205.9,52.8 206.2,52.1 206.7,51.4 207.6,50.9 208.8,50.4 210.5,50.1 212.5,50 222.5,50" />
<path stroke="#000000" stroke-width="2" d="M 229.2,70" />
<path stroke="#000000" stroke-width="2" d="M 229.2,20 249.2,20 241.5,38.5" />
<path stroke="#000000" stroke-width="2" d="M 279.2,70" />
<path stroke="#000000" stroke-width="2" d="M 279.2,40 279.4,40 279.4,40.2 279.2,40.2 279.2,40" />
<path stroke="#000000" stroke-width="2" d="M 286,70" />
<path stroke="#000000" stroke-width="2" d="M 296,30 286,30 286,70" />
<path stroke="#000000" stroke-width="2" d="M 302.7,70" />
<path stroke="#000000" stroke-width="2" d="M 302.7,50 302.7,50.7 302.8,51.4 302.9,52.1 303.1,52.8 303.3,53.4 303.6,54 303.9,54.6 304.3,55.2 304.8,55.8 305.3,56.2 305.8,56.7 306.4,57.1 307,57.4 307.6,57.7 308.3,58 309,58.2 309.6,58.3 310.3,58.3 311,58.3 311.7,58.3 312.4,58.2 313.1,58 313.7,57.7 314.4,57.4 315,57.1 315.6,56.7 316.1,56.2 316.6,55.8 317,55.2 317.4,54.6 317.8,54 318.1,53.4 318.3,52.8 318.5,52.1 318.6,51.4 318.7,50.7" />
<path stroke="#000000" stroke-width="2" d="M 325.3,70" />
<path stroke="#000000" stroke-width="2" d="M 325.3,40 325.3,39.3 325.4,38.6 325.5,37.9 325.7,37.2 325.9,36.6 326.2,36 326.6,35.4 327,34.8 327.4,34.2 327.9,33.8 328.5,33.3 329,32.9 329.6,32.6 330.3,32.3 330.9,32 331.6,31.8 332.3,31.7 333,31.7 333.7,31.7 334.4,31.7 335.1,31.8 335.7,32 336.4,32.3 337,32.6 337.6,32.9 338.2,33.3 338.7,33.8 339.2,34.2 339.7,34.8 340.1,35.4 340.4,36 340.7,36.6 341,37.2 341.1,37.9 341.3,38.6 341.3,39.3 333.7,57.8" />
<path stroke="#000000" stroke-width="2" d="M 348,70" />
<path stroke="#000000" stroke-width="2" d="M 348,30 363.3,67 378.6,30" />
<path stroke="#000000" stroke-width="2" d="M 408.6,70" />
<path stroke="#000000" stroke-width="2" d="M 428.6,30 413.3,67" />
<path stroke="#000000" stroke-width="2" d="M 435.3,70" />
<path stroke="#000000" stroke-width="2" d="M 435.3,30 450.6,67" />
<path stroke="#000000" stroke-width="2" d="M 480.6,70" />
<path stroke="#000000" stroke-width="2" d="M 485.6,30" />
<path stroke="#000000" stroke-width="2" d="M 485.6,30 484.2,30.1 482.9,30.6 481.8,31.2 480.8,32.1 480,33.1 479.3,34.3 478.8,35.6 478.4,37 478.2,38.5 478.1,40 478.2,41.5 478.4,43 478.8,44.4 479.3,45.7 480,46.9 480.8,47.9 481.8,48.8 482.9,49.4 484.2,49.9 485.6,50 490.6,50 490.6,70" />
<path stroke="#000000" stroke-width="2" d="M 520.6,70" />
<path stroke="#000000" stroke-width="2" d="M 530.6,30 522.9,48.5 522.9,68.5 528.6,62.8" />
<path stroke="#000000" stroke-width="2" d="M 537.2,70" />
<path stroke="#000000" stroke-width="2" d="M 537.2,50 537.4,50 537.4,50.2 537.2,50.2 537.2,50" />
<path stroke="#000000" stroke-width="2" d="M 567.4,70" />
<path stroke="#000000" stroke-width="2" d="M 567.4,30 582.8,67" />
<path stroke="#000000" stroke-width="2" d="M 589.4,70" />
<path stroke="#000000" stroke-width="2" d="M 589.4,30 629.4,30" />
<path stroke="#000000" stroke-width="2" d="M 636.1,70" />
<path stroke="#000000" stroke-width="2" d="M 636.1,55" />
<path stroke="#000000" stroke-width="2" d="M 636.1,55 638.1,54.9 639.7,54.6 641,54.1 641.8,53.6 642.4,52.9 642.7,52.2 642.7,51.4 642.6,50.7 642.2,50 641.7,49.4 641.1,48.9 640.4,48.5 639.7,48.3 638.9,48.4 638.2,48.7 637.5,49.2 636.9,50.1 636.5,51.4 636.2,53 636.1,55 636.1,70" />
<path stroke="#000000" stroke-width="2" d="M 672.7,70" />
<path stroke="#000000" stroke-width="2" d="M 672.7,30 712.7,30" />
<path stroke="#000000" stroke-width="2" d="M 742.7,70" />
<path stroke="#000000" stroke-width="2" d="M 742.7,70 742.9,70 742.9,70.2 742.7,70.2 742.7,70" />
<path stroke="#000000" stroke-width="2" d="M 749.6,70" />
<path stroke="#000000" stroke-width="2" d="M 749.6,70 764.9,33 764.9,73" />
<path stroke="#000000" stroke-width="2" d="M 771.6,70" />
<path stroke="#000000" stroke-width="2" d="M 771.6,40" />
<path stroke="#000000" stroke-width="2" d="M 771.6,40 775.6,39.8 778.9,39.2 781.3,38.3 783.1,37.1 784.2,35.8 784.8,34.3 784.9,32.8 784.5,31.4 783.8,30 782.8,28.8 781.6,27.7 780.2,27 778.8,26.7 777.3,26.8 775.8,27.3 774.5,28.5 773.3,30.2 772.4,32.7 771.8,35.9 771.6,40 771.6,70" />
<path stroke="#000000" stroke-width="2" d="M 814.9,70" />
<path stroke="#000000" stroke-width="2" d="M 814.9,30 834.9,30" />
<path stroke="#000000" stroke-width="2" d="M 834.9,30 836.3,30.1 837.6,30.6 838.7,31.2 839.7,32.1 840.5,33.1 841.2,34.3 841.7,35.6 842.1,37 842.3,38.5 842.4,40 842.3,41.5 842.1,43 841.7,44.4 841.2,45.7 840.5,46.9 839.7,47.9 838.7,48.8 837.6,49.4 836.3,49.9 834.9,50" />
<path stroke="#000000" stroke-width="2" d="M 872.4,70" />
<path stroke="#000000" stroke-width="2" d="M 872.4,70 872.6,70 872.6,70.2 872.4,70.2 872.4,70" />
<path stroke="#000000" stroke-width="2" d="M 879.3,70" />
<path stroke="#000000" stroke-width="2" d="M 879.3,30 879.3,70 879.3,58 879.3,56.3 879.4,54.5 879.7,52.8 880.2,51.1 880.8,49.5 881.5,47.9 882.4,46.4 883.4,45 884.5,43.6 885.7,42.4 887.1,41.3 888.5,40.3 890,39.4 891.6,38.7 893.2,38.1 894.9,37.6 896.6,37.3 898.4,37.1" />
<path stroke="#000000" stroke-width="2" d="M 905,70" />
<path stroke="#000000" stroke-width="2" d="M 905,50 912.7,68.5" />
<path stroke="#000000" stroke-width="2" d="M 942.7,70" />
<path stroke="#000000" stroke-width="2" d="M 942.7,70 942.9,70 942.9,70.2 942.7,70.2 942.7,70" />
<path stroke="#000000" stroke-width="2" d="M 972.9,70" />
</svg>