<svg xmlns="http://www.w3.org/2000/svg" width="1184.0783169351141" height="110.0" style="fill:none; stroke-linecap:round;">
    <rect width="100%" height="100%" fill="#FFFFFF" />
<path stroke="#000000" stroke-width="2" d="M 550,75" />
<path stroke="#000000" stroke-width="2" d="M 36,30 16.2,49.8 36,69.6" />
<path stroke="#000000" stroke-width="2" d="M 42.7,70" />
<path stroke="#000000" stroke-width="2" d="M 42.7,20 62.7,20 63.5,20 64.4,20.1 65.3,20.2 66.1,20.5 66.9,20.8 67.7,21.1 68.5,21.6 69.2,22.1 69.9,22.6 70.5,23.2 71,23.9 71.5,24.6 72,25.4 72.3,26.2 72.6,27 72.9,27.8 73,28.7 73.1,29.6 73.1,30.4 73,31.3 72.9,32.2 72.6,33 72.3,33.8 72,34.6 71.5,35.4 71,36.1 70.5,36.7 69.9,37.4 69.2,37.9 68.5,38.4 67.7,38.9 66.9,39.2 66.1,39.5 65.3,39.8 64.4,39.9 63.5,40" />
<path stroke="#000000" stroke-width="2" d="M 103.1,70" />
<path stroke="#000000" stroke-width="2" d="M 103.1,30 103.1,70 114.4,58.7" />
<path stroke="#000000" stroke-width="2" d="M 121.1,70" />
<path stroke="#000000" stroke-width="2" d="M 121.1,30 121.1,31.4 121.2,32.8 121.4,34.2 121.8,35.5 122.3,36.8 122.9,38.1 123.6,39.3 124.4,40.4 125.3,41.5 126.2,42.5 127.3,43.4 128.5,44.2 129.7,44.9 130.9,45.5 132.2,46 133.6,46.3 135,46.6 136.4,46.7 137.8,46.7 139.1,46.6 140.5,46.3 141.9,46 143.2,45.5 144.4,44.9 145.7,44.2 146.8,43.4 147.9,42.5 148.9,41.5 149.8,40.4 150.6,39.3 151.3,38.1 151.8,36.8 152.3,35.5 152.7,34.2 152.9,32.8 153,31.4" />
<path stroke="#000000" stroke-width="2" d="M 183,70" />
<path stroke="#000000" stroke-width="2" d="M 183,70 183.2,70 183.2,70.2 183,70.2 183,70" />
<path stroke="#000000" stroke-width="2" d="M 189.9,70" />
<path stroke="#000000" stroke-width="2" d="M 199.9,30 192.3,48.5 192.3,68.5 197.9,62.8" />
<path stroke="#000000" stroke-width="2" d="M 206.6,70" />
<path stroke="#000000" stroke-width="2" d="M 206.6,50 206.8,50 206.8,50.2 206.6,50.2 206.6,50" />
<path stroke="#000000" stroke-width="2" d="M 236.8,70" />
<path stroke="#000000" stroke-width="2" d="M 236.8,30 256.6,49.8 236.8,69.6" />
<path stroke="#000000" stroke-width="2" d="M 263.2,70" />
<path stroke="#000000" stroke-width="2" d="M 263.2,20 263.2,40 263.2,34 263.2,33.1 263.3,32.3 263.5,31.4 263.7,30.6 264,29.7 264.4,28.9 264.8,28.2 265.3,27.5 265.9,26.8 266.5,26.2 267.1,25.6 267.9,25.1 268.6,24.7 269.4,24.3 270.2,24 271.1,23.8 271.9,23.6 272.8,23.6 277.8,23.6 277.8,43.6" />
<path stroke="#000000" stroke-width="2" d="M 277.8,33.6" />
<path stroke="#000000" stroke-width="2" d="M 273.8,33.6 281.8,33.6" />
<path stroke="#000000" stroke-width="2" d="M 288.5,70" />
<path stroke="#000000" stroke-width="2" d="M 288.5,30 288.7,30 288.7,30.2 288.5,30.2 288.5,30" />
<path stroke="#000000" stroke-width="2" d="M 318.7,70" />
<path stroke="#000000" stroke-width="2" d="M 318.7,30 318.7,70 318.7,58 318.7,56.3 318.8,54.5 319.1,52.8 319.6,51.1 320.2,49.5 320.9,47.9 321.8,46.4 322.8,45 323.9,43.6 325.1,42.4 326.5,41.3 327.9,40.3 329.4,39.4 331,38.7 332.6,38.1 334.3,37.6 336,37.3 337.8,37.1" />
<path stroke="#000000" stroke-width="2" d="M 344.4,70" />
<path stroke="#000000" stroke-width="2" d="M 344.4,20 352.1,38.5 359.7,20" />
<path stroke="#000000" stroke-width="2" d="M 366.4,70" />
<path stroke="#000000" stroke-width="2" d="M 366.4,40" />
<path stroke="#000000" stroke-width="2" d="M 366.4,40 370.5,39.8 373.7,39.2 376.2,38.3 377.9,37.1 379.1,35.8 379.6,34.3 379.7,32.8 379.4,31.4 378.7,30 377.7,28.8 376.4,27.7 375.1,27 373.6,26.7 372.1,26.8 370.6,27.3 369.3,28.5 368.1,30.2 367.2,32.7 366.6,35.9 366.4,40 366.4,70" />
<path stroke="#000000" stroke-width="2" d="M 386.4,70" />
<path stroke="#000000" stroke-width="2" d="M 406.4,30 391.1,67" />
<path stroke="#000000" stroke-width="2" d="M 413.1,70" />
<path stroke="#000000" stroke-width="2" d="M 413.1,20 413.9,20 414.8,20.1 415.7,20.2 416.5,20.5 417.3,20.8 418.1,21.1 418.9,21.6 419.6,22.1 420.2,22.6 420.9,23.2 421.4,23.9 421.9,24.6 422.4,25.4 422.7,26.2 423,27 423.3,27.8 423.4,28.7 423.5,29.6 423.5,30.4 423.4,31.3 423.3,32.2 423,33 422.7,33.8 422.4,34.6 421.9,35.4 421.4,36.1 420.9,36.7 420.2,37.4 419.6,37.9 418.9,38.4 418.1,38.9 417.3,39.2 416.5,39.5 415.7,39.8 414.8,39.9 413.9,40" />
<path stroke="#000000" stroke-width="2" d="M 453.5,70" />
<path stroke="#000000" stroke-width="2" d="M 453.5,70 453.7,70 453.7,70.2 453.5,70.2 453.5,70" />
<path stroke="#000000" stroke-width="2" d="M 460.3,70" />
<path stroke="#000000" stroke-width="2" d="M 476.3,30" />
<path stroke="#000000" stroke-width="2" d="M 476.3,30 476.1,34.1 475.5,37.3 474.6,39.8 473.5,41.5 472.1,42.7 470.7,43.2 469.2,43.3 467.7,43 466.3,42.3 465.1,41.2 464.1,40 463.4,38.6 463,37.2 463.1,35.7 463.7,34.2 464.8,32.9 466.6,31.7 469.1,30.8 472.3,30.2 476.3,30 496.3,30" />
<path stroke="#000000" stroke-width="2" d="M 503,70" />
<path stroke="#000000" stroke-width="2" d="M 503,70 503,68.6 503.1,67.2 503.4,65.8 503.7,64.5 504.2,63.2 504.8,61.9 505.5,60.7 506.3,59.6 507.2,58.5 508.2,57.5 509.3,56.6 510.4,55.8 511.6,55.1 512.9,54.5 514.2,54 515.5,53.7 516.9,53.4 518.3,53.3 519.7,53.3 521.1,53.4 522.5,53.7 523.8,54 525.1,54.5 526.4,55.1 527.6,55.8 528.7,56.6 529.8,57.5 530.8,58.5 531.7,59.6 532.5,60.7 533.2,61.9 533.8,63.2 534.3,64.5 534.6,65.8 534.9,67.2 535,68.6" />
<path stroke="#000000" stroke-width="2" d="M 541.7,70" />
<path stroke="#000000" stroke-width="2" d="M 549.7,50" />
<path stroke="#000000" stroke-width="2" d="M 549.7,50 549.5,52 549.2,53.6 548.8,54.9 548.2,55.8 547.5,56.3 546.8,56.6 546.1,56.7 545.3,56.5 544.6,56.1 544,55.6 543.5,55 543.2,54.3 543,53.6 543,52.8 543.3,52.1 543.9,51.4 544.8,50.9 546,50.4 547.6,50.1 549.7,50 559.7,50" />
<path stroke="#000000" stroke-width="2" d="M 589.7,70" />
<path stroke="#000000" stroke-width="2" d="M 605.7,30 585.9,49.8 605.7,69.6" />
<path stroke="#000000" stroke-width="2" d="M 612.3,70" />
<path stroke="#000000" stroke-width="2" d="M 612.3,50 617.3,50 617.3,70 617.3,90" />
<path stroke="#000000" stroke-width="2" d="M 624,70" />
<path stroke="#000000" stroke-width="2" d="M 624,20 624,20.7 624,21.4 624.2,22.1 624.3,22.8 624.6,23.4 624.9,24 625.2,24.6 625.6,25.2 626.1,25.8 626.6,26.2 627.1,26.7 627.7,27.1 628.3,27.4 628.9,27.7 629.6,28 630.2,28.2 630.9,28.3 631.6,28.3 632.3,28.3 633,28.3 633.7,28.2 634.4,28 635,27.7 635.7,27.4 636.3,27.1 636.8,26.7 637.4,26.2 637.9,25.8 638.3,25.2 638.7,24.6 639.1,24 639.4,23.4 639.6,22.8 639.8,22.1 639.9,21.4 640,20.7" />
<path stroke="#000000" stroke-width="2" d="M 670,70" />
<path stroke="#000000" stroke-width="2" d="M 670,30 670,38 670,39 670.1,40.1 670.2,41.1 670.5,42.1 670.9,43.1 671.3,44.1 671.8,45 672.4,45.8 673.1,46.6 673.9,47.4 674.7,48 675.5,48.6 676.4,49.2 677.4,49.6 678.3,50 679.4,50.2 680.4,50.4 681.4,50.5 682.5,50.5 683.5,50.4 684.6,50.2 685.6,50 686.5,49.6 687.5,49.2 688.4,48.6 689.3,48 690.1,47.4 690.8,46.6 691.5,45.8 692.1,45 692.6,44.1 693,43.1 693.4,42.1 693.7,41.1 693.9,40.1 693.9,39 693.9,29 693.9,69" />
<path stroke="#000000" stroke-width="2" d="M 700.6,70" />
<path stroke="#000000" stroke-width="2" d="M 700.6,20 708.3,38.5" />
<path stroke="#000000" stroke-width="2" d="M 738.3,70" />
<path stroke="#000000" stroke-width="2" d="M 758.3,70 760,70 761.7,69.8 763.5,69.5 765.2,69.1 766.8,68.5 768.4,67.8 769.9,66.9 771.3,65.9 772.7,64.8 773.9,63.5 775,62.2 776,60.8 776.9,59.3 777.6,57.7 778.2,56 778.7,54.3 779,52.6 779.1,50.9 779.1,49.1 779,47.4 778.7,45.7 778.2,44 777.6,42.4 776.9,40.8 776,39.3 775,37.8 773.9,36.5 772.7,35.3 771.3,34.2 769.9,33.2 768.4,32.3 766.8,31.5 765.2,30.9 763.5,30.5 761.7,30.2 760,30 758.3,30 756.5,30.2 754.8,30.5 753.1,30.9 751.5,31.5 749.9,32.3 748.4,33.2 747,34.2 745.6,35.3 744.4,36.5 743.3,37.8 742.3,39.3 741.4,40.8 740.7,42.4 740.1,44 739.6,45.7 739.3,47.4 739.2,49.1 739.2,50.9 739.3,52.6 739.6,54.3 740.1,56 740.7,57.7 741.4,59.3 742.3,60.8 743.3,62.2 744.4,63.5 745.6,64.8 747,65.9 748.4,66.9 749.9,67.8 751.5,68.5 753.1,69.1 754.8,69.5 756.5,69.8 758.3,70" />
<path stroke="#000000" stroke-width="2" d="M 785.8,70" />
<path stroke="#000000" stroke-width="2" d="M 785.8,20 786.7,20 787.5,20.1 788.4,20.2 789.2,20.5 790,20.8 790.8,21.1 791.6,21.6 792.3,22.1 793,22.6 793.6,23.2 794.2,23.9 794.7,24.6 795.1,25.4 795.5,26.2 795.8,27 796,27.8 796.1,28.7 796.2,29.6 796.2,30.4 796.1,31.3 796,32.2 795.8,33 795.5,33.8 795.1,34.6 794.7,35.4 794.2,36.1 793.6,36.7 793,37.4 792.3,37.9 791.6,38.4 790.8,38.9 790,39.2 789.2,39.5 788.4,39.8 787.5,39.9 786.7,40" />
<path stroke="#000000" stroke-width="2" d="M 826.2,70" />
<path stroke="#000000" stroke-width="2" d="M 846.2,30 846.2,70 826.2,70" />
<path stroke="#000000" stroke-width="2" d="M 852.9,70" />
<path stroke="#000000" stroke-width="2" d="M 852.9,55" />
<path stroke="#000000" stroke-width="2" d="M 852.9,55 854.9,54.9 856.5,54.6 857.8,54.1 858.6,53.6 859.2,52.9 859.5,52.2 859.5,51.4 859.4,50.7 859,50 858.5,49.4 857.9,48.9 857.2,48.5 856.5,48.3 855.7,48.4 855,48.7 854.3,49.2 853.7,50.1 853.3,51.4 853,53 852.9,55 852.9,70 845.2,88.5" />
<path stroke="#000000" stroke-width="2" d="M 889.5,70" />
<path stroke="#000000" stroke-width="2" d="M 889.5,30 899.5,30 899.5,70" />
<path stroke="#000000" stroke-width="2" d="M 906.2,70" />
<path stroke="#000000" stroke-width="2" d="M 906.2,30 946.2,30" />
<path stroke="#000000" stroke-width="2" d="M 952.9,70" />
<path stroke="#000000" stroke-width="2" d="M 960.9,30 960.9,45" />
<path stroke="#000000" stroke-width="2" d="M 960.9,45 960.8,47 960.5,48.6 960,49.9 959.4,50.8 958.8,51.3 958,51.6 957.3,51.7 956.5,51.5 955.9,51.1 955.2,50.6 954.7,50 954.4,49.3 954.2,48.6 954.3,47.8 954.5,47.1 955.1,46.4 956,45.9 957.2,45.4 958.8,45.1 960.9,45 961.7,45 962.6,45.1 963.5,45.2 964.3,45.5 965.1,45.8 965.9,46.1 966.7,46.6 967.4,47.1 968.1,47.6 968.7,48.2 969.2,48.9 969.7,49.6 970.2,50.4 970.5,51.2 970.8,52 971.1,52.8 971.2,53.7 971.3,54.6 971.3,55.4 971.2,56.3 971.1,57.2 970.8,58 970.5,58.8 970.2,59.6 969.7,60.4 969.2,61.1 968.7,61.7 968.1,62.4 967.4,62.9 966.7,63.4 965.9,63.9 965.1,64.2 964.3,64.5 963.5,64.8 962.6,64.9 961.7,65" />
<path stroke="#000000" stroke-width="2" d="M 1001.3,70" />
<path stroke="#000000" stroke-width="2" d="M 1001.3,30 1041.3,30" />
<path stroke="#000000" stroke-width="2" d="M 1071.3,70" />
<path stroke="#000000" stroke-width="2" d="M 1071.3,70 1071.5,70 1071.5,70.2 1071.3,70.2 1071.3,70" />
<path stroke="#000000" stroke-width="2" d="M 1078.2,70" />
<path stroke="#000000" stroke-width="2" d="M 1078.2,30 1093.5,67 1108.8,30" />
<path stroke="#000000" stroke-width="2" d="M 1115.4,70" />
<path stroke="#000000" stroke-width="2" d="M 1115.4,30 1115.4,31.4 1115.6,32.8 1115.8,34.2 1116.2,35.5 1116.6,36.8 1117.2,38.1 1117.9,39.3 1118.7,40.4 1119.6,41.5 1120.6,42.5 1121.7,43.4 1122.8,44.2 1124,44.9 1125.3,45.5 1126.6,46 1128,46.3 1129.3,46.6 1130.7,46.7 1132.1,46.7 1133.5,46.6 1134.9,46.3 1136.2,46 1137.5,45.5 1138.8,44.9 1140,44.2 1141.2,43.4 1142.2,42.5 1143.2,41.5 1144.1,40.4 1144.9,39.3 1145.6,38.1 1146.2,36.8 1146.7,35.5 1147,34.2 1147.3,32.8 1147.4,31.4" />
<path stroke="#000000" stroke-width="2" d="M 1154.1,70" />
<path stroke="#000000" stroke-width="2" d="M 1164.1,20 1164.1,40 1154.1,40" />
<path stroke="#000000" stroke-width="2" d="M 1194.1,70" />
</svg>