<svg xmlns="http://www.w3.org/2000/svg" width="1379.5242212707835" height="106.95518130045147" style="fill:none; stroke-linecap:round;">
    <rect width="100%" height="100%" fill="#FFFFFF" />
<path stroke="#000000" stroke-width="2" d="M 550,75" />
<path stroke="#000000" stroke-width="2" d="M 20,30 60,30" />
<path stroke="#000000" stroke-width="2" d="M 90,70" />
<path stroke="#000000" stroke-width="2" d="M 90,40 90.2,40 90.2,40.2 90,40.2 90,40" />
<path stroke="#000000" stroke-width="2" d="M 96.9,70" />
<path stroke="#000000" stroke-width="2" d="M 96.9,30 106.9,30 106.9,70" />
<path stroke="#000000" stroke-width="2" d="M 113.5,70" />
<path stroke="#000000" stroke-width="2" d="M 113.5,20 113.5,40 119.2,34.3" />
<path stroke="#000000" stroke-width="2" d="M 149.2,70" />
<path stroke="#000000" stroke-width="2" d="M 165.2,30 145.4,49.8 165.2,69.6" />
<path stroke="#000000" stroke-width="2" d="M 171.9,70" />
<path stroke="#000000" stroke-width="2" d="M 171.9,50" />
<path stroke="#000000" stroke-width="2" d="M 171.9,50 172,50 172.4,50 173.1,50 173.9,50.1 175,50.2 176.2,50.3 177.5,50.4 178.9,50.6 180.4,50.9 181.9,51.2 183.4,51.7 184.8,52.2 186.2,52.7 187.5,53.4 188.7,54.2 189.8,55.1 190.6,56.1 191.3,57.3 191.7,58.6 191.9,60" />
<path stroke="#000000" stroke-width="2" d="M 191.9,60 193.8,62.1 195.1,64.1 195.9,65.7 196.2,67.2 196.1,68.4 195.6,69.5 194.9,70.2 194,70.8 193,71.1 191.9,71.2 190.7,71.1 189.7,70.8 188.8,70.2 188.1,69.5 187.6,68.4 187.5,67.2 187.8,65.7 188.6,64 189.9,62.1 191.9,60" />
<path stroke="#000000" stroke-width="2" d="M 191.9,60 191.9,59.9 191.9,59.7 191.9,59.4 192,59 192.2,58.4 192.4,57.8 192.7,57.2 193.1,56.5 193.7,55.7 194.4,55 195.2,54.3 196.2,53.5 197.3,52.8 198.7,52.2 200.3,51.6 202.1,51 204.1,50.6 206.4,50.3 209,50.1 211.9,50 211.9,70 211.9,64 211.9,63.1 211.9,62.3 212.1,61.4 212.3,60.6 212.6,59.7 213,58.9 213.4,58.2 213.9,57.5 214.5,56.8 215.1,56.2 215.8,55.6 216.5,55.1 217.2,54.7 218,54.3 218.8,54 219.7,53.8 220.5,53.6 221.4,53.6" />
<path stroke="#000000" stroke-width="2" d="M 221.4,53.6 223.4,53.5 225.1,53.2 226.3,52.7 227.2,52.1 227.7,51.5 228,50.7 228.1,50 227.9,49.3 227.5,48.6 227,47.9 226.4,47.4 225.7,47.1 225,46.9 224.2,47 223.5,47.2 222.9,47.8 222.3,48.7 221.8,49.9 221.5,51.5 221.4,53.6 221.4,68.6" />
<path stroke="#000000" stroke-width="2" d="M 258.1,70" />
<path stroke="#000000" stroke-width="2" d="M 258.1,30 278.1,30 278.9,30 279.8,30.1 280.7,30.2 281.5,30.5 282.3,30.8 283.1,31.1 283.9,31.6 284.6,32.1 285.3,32.6 285.9,33.2 286.4,33.9 286.9,34.6 287.4,35.4 287.7,36.2 288,37 288.3,37.8 288.4,38.7 288.5,39.6 288.5,40.4 288.4,41.3 288.3,42.2 288,43 287.7,43.8 287.4,44.6 286.9,45.4 286.4,46.1 285.9,46.7 285.3,47.4 284.6,47.9 283.9,48.4 283.1,48.9 282.3,49.2 281.5,49.5 280.7,49.8 279.8,49.9 278.9,50" />
<path stroke="#000000" stroke-width="2" d="M 318.5,70" />
<path stroke="#000000" stroke-width="2" d="M 318.5,30 318.5,70 329.8,58.7" />
<path stroke="#000000" stroke-width="2" d="M 336.5,70" />
<path stroke="#000000" stroke-width="2" d="M 336.5,30 336.5,30.7 336.5,31.4 336.7,32.1 336.8,32.8 337.1,33.4 337.4,34 337.7,34.6 338.1,35.2 338.6,35.8 339.1,36.2 339.6,36.7 340.2,37.1 340.8,37.4 341.4,37.7 342.1,38 342.7,38.2 343.4,38.3 344.1,38.3 344.8,38.3 345.5,38.3 346.2,38.2 346.9,38 347.5,37.7 348.2,37.4 348.8,37.1 349.3,36.7 349.9,36.2 350.4,35.8 350.8,35.2 351.2,34.6 351.6,34 351.9,33.4 352.1,32.8 352.3,32.1 352.4,31.4 352.5,30.7 372.5,30.7" />
<path stroke="#000000" stroke-width="2" d="M 379.1,70" />
<path stroke="#000000" stroke-width="2" d="M 389.1,50 381.5,68.5" />
<path stroke="#000000" stroke-width="2" d="M 419.1,70" />
<path stroke="#000000" stroke-width="2" d="M 419.1,30 419.1,70" />
<path stroke="#000000" stroke-width="2" d="M 425.8,70" />
<path stroke="#000000" stroke-width="2" d="M 433.8,20 423.9,29.9 433.8,39.8" />
<path stroke="#000000" stroke-width="2" d="M 440.5,70" />
<path stroke="#000000" stroke-width="2" d="M 440.5,20 440.5,40 440.5,34 440.5,33.1 440.5,32.3 440.7,31.4 440.9,30.6 441.2,29.7 441.6,28.9 442,28.2 442.5,27.5 443.1,26.8 443.7,26.2 444.4,25.6 445.1,25.1 445.8,24.7 446.6,24.3 447.4,24 448.3,23.8 449.1,23.6 450,23.6" />
<path stroke="#000000" stroke-width="2" d="M 480,70" />
<path stroke="#000000" stroke-width="2" d="M 480,30 490,30 490,70" />
<path stroke="#000000" stroke-width="2" d="M 496.7,70" />
<path stroke="#000000" stroke-width="2" d="M 496.7,50 496.7,70 496.7,64 496.7,63.1 496.8,62.3 496.9,61.4 497.1,60.6 497.4,59.7 497.8,58.9 498.2,58.2 498.7,57.5 499.3,56.8 499.9,56.2 500.6,55.6 501.3,55.1 502.1,54.7 502.8,54.3 503.7,54 504.5,53.8 505.4,53.6 506.2,53.6" />
<path stroke="#000000" stroke-width="2" d="M 536.2,70" />
<path stroke="#000000" stroke-width="2" d="M 536.2,40" />
<path stroke="#000000" stroke-width="2" d="M 536.2,40 540.3,39.8 543.5,39.2 546,38.3 547.8,37.1 548.9,35.8 549.5,34.3 549.5,32.8 549.2,31.4 548.5,30 547.5,28.8 546.3,27.7 544.9,27 543.4,26.7 541.9,26.8 540.5,27.3 539.1,28.5 538,30.2 537,32.7 536.4,35.9 536.2,40 536.2,70" />
<path stroke="#000000" stroke-width="2" d="M 556.2,70" />
<path stroke="#000000" stroke-width="2" d="M 556.2,50 563.9,68.5 556.2,87" />
<path stroke="#000000" stroke-width="2" d="M 570.5,70" />
<path stroke="#000000" stroke-width="2" d="M 570.5,30 585.8,67" />
<path stroke="#000000" stroke-width="2" d="M 615.8,70" />
<path stroke="#000000" stroke-width="2" d="M 615.8,70 616,70 616,70.2 615.8,70.2 615.8,70" />
<path stroke="#000000" stroke-width="2" d="M 646,70" />
<path stroke="#000000" stroke-width="2" d="M 646,30 646,70 666,70" />
<path stroke="#000000" stroke-width="2" d="M 696,70" />
<path stroke="#000000" stroke-width="2" d="M 696,30 696,70 707.3,58.7" />
<path stroke="#000000" stroke-width="2" d="M 714,70" />
<path stroke="#000000" stroke-width="2" d="M 714,20 734,20 726.4,38.5 727.2,38.5 728.1,38.6 729,38.7 729.8,38.9 730.6,39.2 731.4,39.6 732.2,40 732.9,40.5 733.6,41.1 734.2,41.7 734.7,42.4 735.2,43.1 735.7,43.9 736,44.6 736.3,45.5 736.6,46.3 736.7,47.2 736.8,48 736.8,48.9 736.7,49.8 736.6,50.6 736.3,51.5 736,52.3 735.7,53.1 735.2,53.8 734.7,54.6 734.2,55.2 733.6,55.8 732.9,56.4 732.2,56.9 731.4,57.3 730.6,57.7 729.8,58 729,58.2 728.1,58.4 727.2,58.5" />
<path stroke="#000000" stroke-width="2" d="M 766.8,70" />
<path stroke="#000000" stroke-width="2" d="M 786.8,30 771.5,67" />
<path stroke="#000000" stroke-width="2" d="M 793.5,70" />
<path stroke="#000000" stroke-width="2" d="M 793.5,50 798.5,50 798.5,70" />
<path stroke="#000000" stroke-width="2" d="M 805.1,70" />
<path stroke="#000000" stroke-width="2" d="M 805.1,30 845.1,30" />
<path stroke="#000000" stroke-width="2" d="M 851.8,70" />
<path stroke="#000000" stroke-width="2" d="M 867.8,30 867.8,60" />
<path stroke="#000000" stroke-width="2" d="M 867.8,60 867.6,64.1 867,67.3 866.1,69.8 864.9,71.5 863.6,72.7 862.1,73.2 860.6,73.3 859.1,73 857.8,72.3 856.5,71.2 855.5,70 854.8,68.6 854.5,67.2 854.6,65.7 855.1,64.2 856.3,62.9 858,61.7 860.5,60.8 863.7,60.2 867.8,60" />
<path stroke="#000000" stroke-width="2" d="M 897.8,70" />
<path stroke="#000000" stroke-width="2" d="M 913.8,40" />
<path stroke="#000000" stroke-width="2" d="M 913.8,40 909.7,39.8 906.5,39.2 904,38.3 902.3,37.1 901.1,35.8 900.6,34.3 900.5,32.8 900.8,31.4 901.5,30 902.5,28.8 903.8,27.7 905.1,27 906.6,26.7 908.1,26.8 909.6,27.3 910.9,28.5 912.1,30.2 913,32.7 913.6,35.9 913.8,40 913.8,70" />
<path stroke="#000000" stroke-width="2" d="M 920.5,70" />
<path stroke="#000000" stroke-width="2" d="M 925.5,30 920.5,30 920.5,50 920.5,50.7 920.5,51.4 920.6,52.1 920.8,52.8 921.1,53.4 921.4,54 921.7,54.6 922.1,55.2 922.5,55.8 923,56.2 923.6,56.7 924.1,57.1 924.8,57.4 925.4,57.7 926,58 926.7,58.2 927.4,58.3 928.1,58.3 928.8,58.3 929.5,58.3 930.2,58.2 930.9,58 931.5,57.7 932.1,57.4 932.7,57.1 933.3,56.7 933.9,56.2 934.3,55.8 934.8,55.2 935.2,54.6 935.5,54 935.8,53.4 936.1,52.8 936.3,52.1 936.4,51.4 936.4,50.7" />
<path stroke="#000000" stroke-width="2" d="M 943.1,70" />
<path stroke="#000000" stroke-width="2" d="M 943.1,30 943.3,30 943.3,30.2 943.1,30.2 943.1,30" />
<path stroke="#000000" stroke-width="2" d="M 973.3,70" />
<path stroke="#000000" stroke-width="2" d="M 973.3,40" />
<path stroke="#000000" stroke-width="2" d="M 973.3,40 977.4,39.8 980.6,39.2 983.1,38.3 984.8,37.1 986,35.8 986.5,34.3 986.6,32.8 986.3,31.4 985.6,30 984.6,28.8 983.3,27.7 981.9,27 980.5,26.7 979,26.8 977.5,27.3 976.2,28.5 975,30.2 974.1,32.7 973.5,35.9 973.3,40 973.3,70" />
<path stroke="#000000" stroke-width="2" d="M 993.3,70" />
<path stroke="#000000" stroke-width="2" d="M 993.3,50 993.3,70 1003.3,70 1003.3,69.3 1003.3,68.6 1003.5,67.9 1003.6,67.2 1003.9,66.6 1004.2,66 1004.5,65.4 1004.9,64.8 1005.4,64.2 1005.9,63.8 1006.4,63.3 1007,62.9 1007.6,62.6 1008.2,62.3 1008.9,62 1009.5,61.8 1010.2,61.7 1010.9,61.7 1011.6,61.7 1012.3,61.7 1013,61.8 1013.7,62 1014.3,62.3 1015,62.6 1015.6,62.9 1016.1,63.3 1016.7,63.8 1017.2,64.2 1017.6,64.8 1018,65.4 1018.4,66 1018.7,66.6 1018.9,67.2 1019.1,67.9 1019.2,68.6 1019.3,69.3" />
<path stroke="#000000" stroke-width="2" d="M 1025.9,70" />
<path stroke="#000000" stroke-width="2" d="M 1025.9,20 1045.9,20" />
<path stroke="#000000" stroke-width="2" d="M 1075.9,70" />
<path stroke="#000000" stroke-width="2" d="M 1075.9,50 1083.6,31.5 1103.6,31.5" />
<path stroke="#000000" stroke-width="2" d="M 1103.6,31.5 1105.6,31.4 1107.2,31.1 1108.5,30.7 1109.3,30.1 1109.9,29.4 1110.2,28.7 1110.2,27.9 1110.1,27.2 1109.7,26.5 1109.2,25.9 1108.6,25.4 1107.9,25 1107.2,24.9 1106.4,24.9 1105.7,25.2 1105,25.8 1104.4,26.6 1104,27.9 1103.7,29.5 1103.6,31.5 1103.6,46.5" />
<path stroke="#000000" stroke-width="2" d="M 1116.9,70" />
<path stroke="#000000" stroke-width="2" d="M 1116.9,20 1116.9,40 1116.9,34 1116.9,33.1 1117,32.3 1117.1,31.4 1117.4,30.6 1117.7,29.7 1118,28.9 1118.5,28.2 1119,27.5 1119.5,26.8 1120.1,26.2 1120.8,25.6 1121.5,25.1 1122.3,24.7 1123.1,24.3 1123.9,24 1124.7,23.8 1125.6,23.6 1126.5,23.6" />
<path stroke="#000000" stroke-width="2" d="M 1156.5,70" />
<path stroke="#000000" stroke-width="2" d="M 1156.5,70 1171.8,33 1211.8,33" />
<path stroke="#000000" stroke-width="2" d="M 1218.4,70" />
<path stroke="#000000" stroke-width="2" d="M 1218.4,30 1218.6,30 1218.6,30.2 1218.4,30.2 1218.4,30" />
<path stroke="#000000" stroke-width="2" d="M 1248.6,70" />
<path stroke="#000000" stroke-width="2" d="M 1264.6,40" />
<path stroke="#000000" stroke-width="2" d="M 1264.6,40 1260.6,39.8 1257.3,39.2 1254.9,38.3 1253.1,37.1 1252,35.8 1251.4,34.3 1251.3,32.8 1251.7,31.4 1252.4,30 1253.4,28.8 1254.6,27.7 1256,27 1257.5,26.7 1259,26.8 1260.4,27.3 1261.8,28.5 1262.9,30.2 1263.8,32.7 1264.4,35.9 1264.6,40 1264.6,70" />
<path stroke="#000000" stroke-width="2" d="M 1271.3,70" />
<path stroke="#000000" stroke-width="2" d="M 1271.3,25" />
<path stroke="#000000" stroke-width="2" d="M 1271.3,25 1273.3,24.9 1274.9,24.6 1276.2,24.1 1277.1,23.6 1277.6,22.9 1277.9,22.2 1278,21.4 1277.8,20.7 1277.4,20 1276.9,19.4 1276.3,18.9 1275.6,18.5 1274.9,18.3 1274.1,18.4 1273.4,18.7 1272.7,19.2 1272.2,20.1 1271.7,21.4 1271.4,23 1271.3,25 1271.3,40 1281.2,49.9 1271.3,59.8" />
<path stroke="#000000" stroke-width="2" d="M 1287.9,70" />
<path stroke="#000000" stroke-width="2" d="M 1287.9,50 1307.9,50" />
<path stroke="#000000" stroke-width="2" d="M 1307.9,50 1309.9,49.9 1311.5,49.6 1312.7,49.1 1313.6,48.6 1314.2,47.9 1314.5,47.2 1314.5,46.4 1314.3,45.7 1314,45 1313.5,44.4 1312.9,43.9 1312.2,43.5 1311.5,43.3 1310.7,43.4 1310,43.7 1309.3,44.2 1308.7,45.1 1308.3,46.4 1308,48 1307.9,50 1307.9,65" />
<path stroke="#000000" stroke-width="2" d="M 1344.5,70" />
<path stroke="#000000" stroke-width="2" d="M 1344.5,30 1344.5,50 1354.5,50 1359.5,50 1359.5,70" />
<path stroke="#000000" stroke-width="2" d="M 1389.5,70" />
</svg>