<svg xmlns="http://www.w3.org/2000/svg" width="1385.1147026028461" height="92.2836140246614" style="fill:none; stroke-linecap:round;">
    <rect width="100%" height="100%" fill="#FFFFFF" />
<path stroke="#000000" stroke-width="2" d="M 550,75" />
<path stroke="#000000" stroke-width="2" d="M 20,40 20.2,40 20.2,40.2 20,40.2 20,40" />
<path stroke="#000000" stroke-width="2" d="M 26.9,70" />
<path stroke="#000000" stroke-width="2" d="M 46.9,30 31.6,67 36.2,55.9 36.8,54.3 37.6,52.7 38.6,51.2 39.6,49.9 40.8,48.6 42.1,47.4 43.5,46.3 44.9,45.4 46.5,44.6 48.1,43.9 49.8,43.4 51.5,43" />
<path stroke="#000000" stroke-width="2" d="M 58.1,70" />
<path stroke="#000000" stroke-width="2" d="M 58.1,20 58.3,20 58.3,20.2 58.1,20.2 58.1,20" />
<path stroke="#000000" stroke-width="2" d="M 88.3,70" />
<path stroke="#000000" stroke-width="2" d="M 88.3,30 128.3,30" />
<path stroke="#000000" stroke-width="2" d="M 158.3,70" />
<path stroke="#000000" stroke-width="2" d="M 158.3,40 158.5,40 158.5,40.2 158.3,40.2 158.3,40" />
<path stroke="#000000" stroke-width="2" d="M 165.2,70" />
<path stroke="#000000" stroke-width="2" d="M 165.2,35" />
<path stroke="#000000" stroke-width="2" d="M 165.2,35 167.2,34.9 168.9,34.6 170.1,34.1 171,33.6 171.5,32.9 171.8,32.2 171.9,31.4 171.7,30.7 171.3,30 170.8,29.4 170.2,28.9 169.5,28.5 168.8,28.3 168,28.4 167.3,28.7 166.6,29.2 166.1,30.1 165.6,31.4 165.3,33 165.2,35 165.2,50 172.9,68.5" />
<path stroke="#000000" stroke-width="2" d="M 179.5,70" />
<path stroke="#000000" stroke-width="2" d="M 179.5,20 179.5,20.7 179.6,21.4 179.7,22.1 179.9,22.8 180.1,23.4 180.4,24 180.8,24.6 181.2,25.2 181.6,25.8 182.1,26.2 182.6,26.7 183.2,27.1 183.8,27.4 184.5,27.7 185.1,28 185.8,28.2 186.5,28.3 187.2,28.3 187.9,28.3 188.6,28.3 189.2,28.2 189.9,28 190.6,27.7 191.2,27.4 191.8,27.1 192.4,26.7 192.9,26.2 193.4,25.8 193.9,25.2 194.3,24.6 194.6,24 194.9,23.4 195.1,22.8 195.3,22.1 195.5,21.4 195.5,20.7" />
<path stroke="#000000" stroke-width="2" d="M 225.5,70" />
<path stroke="#000000" stroke-width="2" d="M 225.5,30 235.5,30 235.5,70" />
<path stroke="#000000" stroke-width="2" d="M 242.2,70" />
<path stroke="#000000" stroke-width="2" d="M 242.2,30 242.2,30.7 242.2,31.4 242.4,32.1 242.5,32.8 242.8,33.4 243.1,34 243.4,34.6 243.8,35.2 244.3,35.8 244.8,36.2 245.3,36.7 245.9,37.1 246.5,37.4 247.1,37.7 247.8,38 248.4,38.2 249.1,38.3 249.8,38.3 250.5,38.3 251.2,38.3 251.9,38.2 252.6,38 253.2,37.7 253.9,37.4 254.5,37.1 255,36.7 255.6,36.2 256.1,35.8 256.5,35.2 256.9,34.6 257.3,34 257.6,33.4 257.8,32.8 258,32.1 258.1,31.4 258.2,30.7" />
<path stroke="#000000" stroke-width="2" d="M 258.2,30.7 259.6,30.8 260.9,31.3 262,31.9 263,32.8 263.8,33.8 264.5,35 265,36.3 265.4,37.7 265.6,39.2 265.7,40.7 265.6,42.2 265.4,43.7 265,45.1 264.5,46.4 263.8,47.6 263,48.6 262,49.5 260.9,50.1 259.6,50.6 258.2,50.7" />
<path stroke="#000000" stroke-width="2" d="M 295.7,70" />
<path stroke="#000000" stroke-width="2" d="M 295.7,70 295.9,70 295.9,70.2 295.7,70.2 295.7,70" />
<path stroke="#000000" stroke-width="2" d="M 325.9,70" />
<path stroke="#000000" stroke-width="2" d="M 325.9,70 326.1,70 326.1,70.2 325.9,70.2 325.9,70" />
<path stroke="#000000" stroke-width="2" d="M 332.7,70" />
<path stroke="#000000" stroke-width="2" d="M 332.7,40" />
<path stroke="#000000" stroke-width="2" d="M 332.7,40 336.8,39.8 340,39.2 342.5,38.3 344.2,37.1 345.4,35.8 346,34.3 346,32.8 345.7,31.4 345,30 344,28.8 342.8,27.7 341.4,27 339.9,26.7 338.4,26.8 336.9,27.3 335.6,28.5 334.5,30.2 333.5,32.7 332.9,35.9 332.7,40 332.7,70" />
<path stroke="#000000" stroke-width="2" d="M 352.7,70" />
<path stroke="#000000" stroke-width="2" d="M 352.7,50 372.7,50" />
<path stroke="#000000" stroke-width="2" d="M 402.7,70" />
<path stroke="#000000" stroke-width="2" d="M 402.7,30 402.7,70 414,58.7" />
<path stroke="#000000" stroke-width="2" d="M 420.7,70" />
<path stroke="#000000" stroke-width="2" d="M 420.7,20 440.7,20 420.9,39.8 440.9,39.8" />
<path stroke="#000000" stroke-width="2" d="M 470.9,70" />
<path stroke="#000000" stroke-width="2" d="M 470.9,30 470.9,70" />
<path stroke="#000000" stroke-width="2" d="M 477.6,70" />
<path stroke="#000000" stroke-width="2" d="M 477.6,20 477.6,24 477.6,24.5 477.6,25 477.7,25.6 477.8,26.1 478,26.6 478.2,27 478.5,27.5 478.8,27.9 479.1,28.3 479.5,28.7 479.9,29 480.3,29.3 480.8,29.6 481.3,29.8 481.7,30 482.2,30.1 482.8,30.2 483.3,30.3 483.8,30.3 484.3,30.2 484.8,30.1 485.4,30 485.8,29.8 486.3,29.6 486.8,29.3 487.2,29 487.6,28.7 488,28.3 488.3,27.9 488.6,27.5 488.9,27 489.1,26.6 489.3,26.1 489.4,25.6 489.5,25 489.5,24.5 489.5,19.5 489.5,39.5" />
<path stroke="#000000" stroke-width="2" d="M 496.2,70" />
<path stroke="#000000" stroke-width="2" d="M 496.2,30 536.2,30" />
<path stroke="#000000" stroke-width="2" d="M 542.9,70" />
<path stroke="#000000" stroke-width="2" d="M 566.9,42" />
<path stroke="#000000" stroke-width="2" d="M 566.9,42 562.8,41.8 559.6,41.2 557.1,40.3 555.4,39.1 554.2,37.8 553.6,36.3 553.6,34.8 553.9,33.4 554.6,32 555.6,30.8 556.9,29.7 558.2,29 559.7,28.7 561.2,28.8 562.7,29.3 564,30.5 565.2,32.2 566.1,34.7 566.7,37.9 566.9,42 566.9,50" />
<path stroke="#000000" stroke-width="2" d="M 566.9,50 566.2,51.7 565.6,53.4 564.8,54.9 564,56.3 563.2,57.6 562.3,58.7 561.4,59.8 560.4,60.8 559.4,61.7 558.4,62.5 557.3,63.2 556.2,63.8 555.1,64.4 554,64.8 552.8,65.2 551.6,65.5 550.5,65.7 549.3,65.9 548.1,66 546.9,66" />
<path stroke="#000000" stroke-width="2" d="M 596.9,70" />
<path stroke="#000000" stroke-width="2" d="M 616.9,30 601.6,67" />
<path stroke="#000000" stroke-width="2" d="M 623.5,70" />
<path stroke="#000000" stroke-width="2" d="M 623.5,55" />
<path stroke="#000000" stroke-width="2" d="M 623.5,55 625.6,54.9 627.2,54.6 628.4,54.1 629.3,53.6 629.9,52.9 630.2,52.2 630.2,51.4 630,50.7 629.7,50 629.2,49.4 628.6,48.9 627.9,48.5 627.1,48.3 626.4,48.4 625.7,48.7 625,49.2 624.4,50.1 623.9,51.4 623.6,53 623.5,55 623.5,70" />
<path stroke="#000000" stroke-width="2" d="M 636.9,70" />
<path stroke="#000000" stroke-width="2" d="M 646.9,20 639.2,38.5" />
<path stroke="#000000" stroke-width="2" d="M 676.9,70" />
<path stroke="#000000" stroke-width="2" d="M 696.9,30 695.1,30 693.4,30.2 691.7,30.5 690,30.9 688.3,31.5 686.8,32.2 685.2,33.1 683.8,34.1 682.5,35.2 681.2,36.5 680.1,37.8 679.1,39.2 678.2,40.7 677.5,42.3 676.9,44 676.5,45.7 676.2,47.4 676,49.1 676,50.9 676.2,52.6 676.5,54.3 676.9,56 677.5,57.6 678.2,59.2 679.1,60.7 680.1,62.2 681.2,63.5 682.5,64.7 683.8,65.8 685.2,66.8 686.8,67.7 688.3,68.5 690,69.1 691.7,69.5 693.4,69.8 695.1,70" />
<path stroke="#000000" stroke-width="2" d="M 695.1,50" />
<path stroke="#000000" stroke-width="2" d="M 663.1,50 703.1,50" />
<path stroke="#000000" stroke-width="2" d="M 733.1,70" />
<path stroke="#000000" stroke-width="2" d="M 733.1,70 733.3,70 733.3,70.2 733.1,70.2 733.1,70" />
<path stroke="#000000" stroke-width="2" d="M 740,70" />
<path stroke="#000000" stroke-width="2" d="M 750,30 749.1,30 748.2,30.1 747.4,30.2 746.5,30.5 745.7,30.8 744.9,31.1 744.2,31.6 743.5,32.1 742.8,32.6 742.2,33.2 741.6,33.9 741.1,34.6 740.7,35.4 740.3,36.2 740,37 739.8,37.8 739.6,38.7 739.6,39.6 739.6,40.4 739.6,41.3 739.8,42.2 740,43 740.3,43.8 740.7,44.6 741.1,45.4 741.6,46.1 742.2,46.7 742.8,47.4 743.5,47.9 744.2,48.4 744.9,48.9 745.7,49.2 746.5,49.5 747.4,49.8 748.2,49.9 749.1,50 749.1,65" />
<path stroke="#000000" stroke-width="2" d="M 749.1,65 749,67 748.7,68.6 748.3,69.9 747.7,70.7 747,71.3 746.3,71.6 745.5,71.6 744.8,71.5 744.1,71.1 743.5,70.6 743,70 742.6,69.3 742.5,68.6 742.5,67.8 742.8,67.1 743.4,66.4 744.2,65.8 745.5,65.4 747.1,65.1 749.1,65 769.1,65" />
<path stroke="#000000" stroke-width="2" d="M 799.1,70" />
<path stroke="#000000" stroke-width="2" d="M 799.1,30 839.1,30" />
<path stroke="#000000" stroke-width="2" d="M 869.1,70" />
<path stroke="#000000" stroke-width="2" d="M 869.1,70 869.3,70 869.3,70.2 869.1,70.2 869.1,70" />
<path stroke="#000000" stroke-width="2" d="M 876,70" />
<path stroke="#000000" stroke-width="2" d="M 876,30" />
<path stroke="#000000" stroke-width="2" d="M 876,30 877.4,30.1 878.7,30.6 879.8,31.2 880.8,32.1 881.6,33.1 882.3,34.3 882.8,35.6 883.2,37 883.4,38.5 883.5,40 883.4,41.5 883.2,43 882.8,44.4 882.3,45.7 881.6,46.9 880.8,47.9 879.8,48.8 878.7,49.4 877.4,49.9 876,50" />
<path stroke="#000000" stroke-width="2" d="M 876,40" />
<path stroke="#000000" stroke-width="2" d="M 880,40 890,40 882.3,58.5" />
<path stroke="#000000" stroke-width="2" d="M 896.6,70" />
<path stroke="#000000" stroke-width="2" d="M 896.6,20 916.6,20" />
<path stroke="#000000" stroke-width="2" d="M 916.6,20 918.7,19.9 920.3,19.6 921.5,19.1 922.4,18.6 923,17.9 923.3,17.2 923.3,16.4 923.1,15.7 922.8,15 922.3,14.4 921.7,13.9 921,13.5 920.2,13.3 919.5,13.4 918.8,13.7 918.1,14.2 917.5,15.1 917,16.4 916.8,18 916.6,20 916.6,35" />
<path stroke="#000000" stroke-width="2" d="M 953.3,70" />
<path stroke="#000000" stroke-width="2" d="M 953.3,30 973.3,30" />
<path stroke="#000000" stroke-width="2" d="M 973.3,30 974.7,30.1 976,30.6 977.1,31.2 978.1,32.1 978.9,33.1 979.6,34.3 980.1,35.6 980.5,37 980.7,38.5 980.8,40 980.7,41.5 980.5,43 980.1,44.4 979.6,45.7 978.9,46.9 978.1,47.9 977.1,48.8 976,49.4 974.7,49.9 973.3,50" />
<path stroke="#000000" stroke-width="2" d="M 1010.8,70" />
<path stroke="#000000" stroke-width="2" d="M 1010.8,30 1010.8,31.4 1010.9,32.8 1011.2,34.2 1011.5,35.5 1012,36.8 1012.6,38.1 1013.3,39.3 1014.1,40.4 1015,41.5 1016,42.5 1017,43.4 1018.2,44.2 1019.4,44.9 1020.7,45.5 1022,46 1023.3,46.3 1024.7,46.6 1026.1,46.7 1027.5,46.7 1028.9,46.6 1030.2,46.3 1031.6,46 1032.9,45.5 1034.2,44.9 1035.4,44.2 1036.5,43.4 1037.6,42.5 1038.6,41.5 1039.5,40.4 1040.3,39.3 1041,38.1 1041.6,36.8 1042,35.5 1042.4,34.2 1042.6,32.8 1042.8,31.4" />
<path stroke="#000000" stroke-width="2" d="M 1049.4,70" />
<path stroke="#000000" stroke-width="2" d="M 1054.4,50 1049.4,50 1049.4,70" />
<path stroke="#000000" stroke-width="2" d="M 1061.1,70" />
<path stroke="#000000" stroke-width="2" d="M 1069.1,20 1069.1,35" />
<path stroke="#000000" stroke-width="2" d="M 1069.1,35 1069,37 1068.7,38.6 1068.2,39.9 1067.7,40.8 1067,41.3 1066.3,41.6 1065.5,41.7 1064.8,41.5 1064.1,41.1 1063.5,40.6 1063,40 1062.6,39.3 1062.4,38.6 1062.5,37.8 1062.8,37.1 1063.3,36.4 1064.2,35.9 1065.5,35.4 1067.1,35.1 1069.1,35 1089.1,35" />
<path stroke="#000000" stroke-width="2" d="M 1119.1,70" />
<path stroke="#000000" stroke-width="2" d="M 1119.1,70 1130.6,42.3" />
<path stroke="#000000" stroke-width="2" d="M 1130.6,42.3 1134.6,42.1 1137.9,41.5 1140.3,40.6 1142.1,39.4 1143.2,38.1 1143.8,36.6 1143.9,35.1 1143.5,33.6 1142.8,32.3 1141.8,31 1140.6,30 1139.2,29.3 1137.7,29 1136.3,29.1 1134.8,29.6 1133.5,30.8 1132.3,32.5 1131.4,35 1130.8,38.2 1130.6,42.3 1130.6,72.3" />
<path stroke="#000000" stroke-width="2" d="M 1150.6,70" />
<path stroke="#000000" stroke-width="2" d="M 1150.6,30" />
<path stroke="#000000" stroke-width="2" d="M 1150.6,30 1153.4,30.3 1156,31.1 1158.2,32.4 1160.2,34.2 1161.8,36.2 1163.2,38.6 1164.2,41.3 1165,44.1 1165.4,47 1165.6,50 1165.4,53 1165,55.9 1164.2,58.7 1163.2,61.4 1161.8,63.8 1160.2,65.8 1158.2,67.6 1156,68.9 1153.4,69.7 1150.6,70" />
<path stroke="#000000" stroke-width="2" d="M 1195.6,70" />
<path stroke="#000000" stroke-width="2" d="M 1195.6,30 1235.6,30" />
<path stroke="#000000" stroke-width="2" d="M 1242.2,70" />
<path stroke="#000000" stroke-width="2" d="M 1254.2,56" />
<path stroke="#000000" stroke-width="2" d="M 1254.2,56 1252.2,55.9 1250.6,55.6 1249.3,55.1 1248.5,54.6 1247.9,53.9 1247.6,53.2 1247.6,52.4 1247.7,51.7 1248.1,51 1248.6,50.4 1249.2,49.9 1249.9,49.5 1250.6,49.3 1251.4,49.4 1252.1,49.7 1252.8,50.2 1253.4,51.1 1253.8,52.4 1254.1,54 1254.2,56 1254.2,60" />
<path stroke="#000000" stroke-width="2" d="M 1254.2,60 1253.9,60.9 1253.6,61.7 1253.2,62.4 1252.8,63.1 1252.4,63.8 1251.9,64.4 1251.5,64.9 1251,65.4 1250.5,65.9 1250,66.2 1249.4,66.6 1248.9,66.9 1248.3,67.2 1247.8,67.4 1247.2,67.6 1246.6,67.7 1246,67.9 1245.4,67.9 1244.8,68 1244.2,68" />
<path stroke="#000000" stroke-width="2" d="M 1284.2,70" />
<path stroke="#000000" stroke-width="2" d="M 1284.2,30 1284.2,70 1295.5,58.7" />
<path stroke="#000000" stroke-width="2" d="M 1302.2,70" />
<path stroke="#000000" stroke-width="2" d="M 1302.2,25" />
<path stroke="#000000" stroke-width="2" d="M 1302.2,25 1304.2,24.9 1305.9,24.6 1307.1,24.1 1308,23.6 1308.5,22.9 1308.8,22.2 1308.9,21.4 1308.7,20.7 1308.3,20 1307.8,19.4 1307.2,18.9 1306.5,18.5 1305.8,18.3 1305,18.4 1304.3,18.7 1303.6,19.2 1303.1,20.1 1302.6,21.4 1302.3,23 1302.2,25 1302.2,40" />
<path stroke="#000000" stroke-width="2" d="M 1338.9,70" />
<path stroke="#000000" stroke-width="2" d="M 1358.9,30 1357.1,30 1355.4,30.2 1353.7,30.5 1352,30.9 1350.3,31.5 1348.8,32.2 1347.2,33.1 1345.8,34.1 1344.5,35.2 1343.2,36.5 1342.1,37.8 1341.1,39.2 1340.2,40.7 1339.5,42.3 1338.9,44 1338.5,45.7 1338.2,47.4 1338,49.1 1338,50.9 1338.2,52.6 1338.5,54.3 1338.9,56 1339.5,57.6 1340.2,59.2 1341.1,60.7 1342.1,62.2 1343.2,63.5 1344.5,64.7 1345.8,65.8 1347.2,66.8 1348.8,67.7 1350.3,68.5 1352,69.1 1353.7,69.5 1355.4,69.8 1357.1,70" />
<path stroke="#000000" stroke-width="2" d="M 1357.1,50" />
<path stroke="#000000" stroke-width="2" d="M 1325.1,50 1365.1,50" />
<path stroke="#000000" stroke-width="2" d="M 1395.1,70" />
</svg>