<svg xmlns="http://www.w3.org/2000/svg" width="1020.3787577538503" height="102.0" style="fill:none; stroke-linecap:round;">
    <rect width="100%" height="100%" fill="#FFFFFF" />
<path stroke="#000000" stroke-width="2" d="M 550,75" />
<path stroke="#000000" stroke-width="2" d="M 20,40 20.2,40 20.2,40.2 20,40.2 20,40" />
<path stroke="#000000" stroke-width="2" d="M 26.9,70" />
<path stroke="#000000" stroke-width="2" d="M 28.9,50 34.2,37.1 34.4,36.7 34.5,36.4 34.5,36.1 34.6,35.7 34.6,35.4 34.6,35 34.5,34.7 34.5,34.3 34.4,34 34.2,33.7 34.1,33.4 33.9,33.1 33.7,32.8 33.4,32.5 33.2,32.3 32.9,32.1 32.6,31.9 32.3,31.7 32,31.6 31.6,31.5 31.3,31.4 30.9,31.4 30.6,31.4 30.3,31.4 29.9,31.4 29.6,31.5 29.2,31.6 28.9,31.7 28.6,31.9 28.3,32.1 28,32.3 27.8,32.5 27.5,32.8 27.3,33.1 27.1,33.4 27,33.7 26.8,34 26.7,34.3 26.7,34.7 26.6,35 26.6,35.4 26.6,35.7 26.7,36.1 26.7,36.4 26.8,36.7 27,37.1 27.1,37.4 27.3,37.7 27.5,37.9 27.8,38.2 28,38.4 28.3,38.7 28.6,38.8 28.9,39 29.2,39.1 29.6,39.2 29.9,39.3 30.3,39.4 30.6,39.4 30.9,39.4 43.9,34 43.9,34.7 43.9,35.4 44.1,36.1 44.2,36.8 44.5,37.4 44.8,38 45.1,38.6 45.5,39.2 46,39.8 46.5,40.2 47,40.7 47.6,41.1 48.2,41.4 48.8,41.7 49.5,42 50.1,42.2 50.8,42.3 51.5,42.3 52.2,42.3 52.9,42.3 53.6,42.2 54.3,42 54.9,41.7 55.6,41.4 56.2,41.1 56.7,40.7 57.3,40.2 57.8,39.8 58.2,39.2 58.6,38.6 59,38 59.3,37.4 59.5,36.8 59.7,36.1 59.8,35.4 59.9,34.7 60.7,34.7 61.6,34.8 62.5,34.9 63.3,35.2 64.1,35.5 64.9,35.8 65.7,36.3 66.4,36.8 67.1,37.3 67.7,37.9 68.2,38.6 68.7,39.3 69.2,40.1 69.5,40.9 69.8,41.7 70.1,42.5 70.2,43.4 70.3,44.3 70.3,45.1 70.2,46 70.1,46.9 69.8,47.7 69.5,48.5 69.2,49.3 68.7,50.1 68.2,50.8 67.7,51.4 67.1,52.1 66.4,52.6 65.7,53.1 64.9,53.6 64.1,53.9 63.3,54.2 62.5,54.5 61.6,54.6 60.7,54.7 60.7,53.8 60.8,52.9 61,52.1 61.2,51.2 61.5,50.4 61.9,49.6 62.3,48.9 62.8,48.2 63.4,47.5 64,46.9 64.6,46.3 65.4,45.8 66.1,45.4 66.9,45 67.7,44.7 68.6,44.5 69.4,44.3 70.3,44.3" />
<path stroke="#000000" stroke-width="2" d="M 100.3,70" />
<path stroke="#000000" stroke-width="2" d="M 110.3,30 110.8,30 111.3,30 111.9,30.1 112.4,30.3 112.9,30.5 113.3,30.7 113.8,30.9 114.2,31.2 114.6,31.6 115,31.9 115.3,32.3 115.6,32.8 115.9,33.2 116.1,33.7 116.3,34.2 116.4,34.7 116.5,35.2 116.5,35.7 116.5,36.3 116.5,36.8 116.4,37.3 116.3,37.8 116.1,38.3 115.9,38.8 115.6,39.2 115.3,39.6 115,40 114.6,40.4 114.2,40.8 113.8,41.1 113.3,41.3 112.9,41.5 112.4,41.7 111.9,41.9 111.3,41.9 110.8,42 110.3,42 109.8,41.9 109.3,41.9 108.8,41.7 108.3,41.5 107.8,41.3 107.3,41.1 106.9,40.8 106.5,40.4 106.1,40 105.8,39.6 105.5,39.2 105.2,38.8 105,38.3 104.8,37.8 104.7,37.3 104.6,36.8 104.6,36.3 104.6,35.7 104.6,35.2 104.7,34.7 104.8,34.2 105,33.7 105.2,33.2 105.5,32.8 105.8,32.3 106.1,31.9 106.5,31.6 106.9,31.2 107.3,30.9 107.8,30.7 108.3,30.5 108.8,30.3 109.3,30.1 109.8,30 110.3,30 110.3,50 102.6,68.5 104.9,62.9 105.3,62.1 105.7,61.4 106.1,60.6 106.7,59.9 107.3,59.3 107.9,58.7 108.6,58.2 109.3,57.7 110.1,57.3 110.9,57 111.7,56.7 112.6,56.5" />
<path stroke="#000000" stroke-width="2" d="M 146.5,70" />
<path stroke="#000000" stroke-width="2" d="M 166.5,30 151.2,67" />
<path stroke="#000000" stroke-width="2" d="M 173.2,70" />
<path stroke="#000000" stroke-width="2" d="M 173.2,70 173.2,69.3 173.3,68.6 173.4,67.9 173.6,67.2 173.8,66.6 174.1,66 174.5,65.4 174.9,64.8 175.3,64.2 175.8,63.8 176.3,63.3 176.9,62.9 177.5,62.6 178.1,62.3 178.8,62 179.5,61.8 180.2,61.7 180.9,61.7 181.6,61.7 182.3,61.7 182.9,61.8 183.6,62 184.3,62.3 184.9,62.6 185.5,62.9 186.1,63.3 186.6,63.8 187.1,64.2 187.6,64.8 188,65.4 188.3,66 188.6,66.6 188.8,67.2 189,67.9 189.1,68.6 189.2,69.3" />
<path stroke="#000000" stroke-width="2" d="M 219.2,70" />
<path stroke="#000000" stroke-width="2" d="M 229.2,30 228.3,30 227.5,30.1 226.6,30.2 225.8,30.5 224.9,30.8 224.1,31.1 223.4,31.6 222.7,32.1 222,32.6 221.4,33.2 220.8,33.9 220.3,34.6 219.9,35.4 219.5,36.2 219.2,37 219,37.8 218.9,38.7 218.8,39.6 218.8,40.4 218.9,41.3 219,42.2 219.2,43 219.5,43.8 219.9,44.6 220.3,45.4 220.8,46.1 221.4,46.7 222,47.4 222.7,47.9 223.4,48.4 224.1,48.9 224.9,49.2 225.8,49.5 226.6,49.8 227.5,49.9 228.3,50 248.3,50" />
<path stroke="#000000" stroke-width="2" d="M 278.3,70" />
<path stroke="#000000" stroke-width="2" d="M 278.3,30 278.3,70 278.3,58 278.3,56.3 278.5,54.5 278.8,52.8 279.2,51.1 279.8,49.5 280.6,47.9 281.4,46.4 282.4,45 283.6,43.6 284.8,42.4 286.1,41.3 287.6,40.3 289.1,39.4 290.7,38.7 292.3,38.1 294,37.6 295.7,37.3 297.4,37.1" />
<path stroke="#000000" stroke-width="2" d="M 304.1,70" />
<path stroke="#000000" stroke-width="2" d="M 304.1,25" />
<path stroke="#000000" stroke-width="2" d="M 304.1,25 306.1,24.9 307.7,24.6 309,24.1 309.9,23.6 310.4,22.9 310.7,22.2 310.8,21.4 310.6,20.7 310.2,20 309.7,19.4 309.1,18.9 308.4,18.5 307.7,18.3 306.9,18.4 306.2,18.7 305.5,19.2 305,20.1 304.5,21.4 304.2,23 304.1,25 304.1,40" />
<path stroke="#000000" stroke-width="2" d="M 304.1,40 304,42 303.7,43.6 303.2,44.9 302.7,45.8 302,46.3 301.3,46.6 300.5,46.7 299.8,46.5 299.1,46.1 298.5,45.6 298,45 297.6,44.3 297.4,43.6 297.5,42.8 297.8,42.1 298.3,41.4 299.2,40.9 300.5,40.4 302.1,40.1 304.1,40 314.1,40" />
<path stroke="#000000" stroke-width="2" d="M 320.8,70" />
<path stroke="#000000" stroke-width="2" d="M 320.8,50 340.8,50" />
<path stroke="#000000" stroke-width="2" d="M 340.8,50 342.8,49.9 344.4,49.6 345.6,49.1 346.5,48.6 347.1,47.9 347.4,47.2 347.4,46.4 347.3,45.7 346.9,45 346.4,44.4 345.8,43.9 345.1,43.5 344.4,43.3 343.6,43.4 342.9,43.7 342.2,44.2 341.6,45.1 341.2,46.4 340.9,48 340.8,50 340.8,65" />
<path stroke="#000000" stroke-width="2" d="M 354.1,70" />
<path stroke="#000000" stroke-width="2" d="M 354.1,30 354.1,70" />
<path stroke="#000000" stroke-width="2" d="M 360.8,70" />
<path stroke="#000000" stroke-width="2" d="M 360.8,30 360.8,31.4 360.9,32.8 361.1,34.2 361.5,35.5 362,36.8 362.6,38.1 363.2,39.3 364,40.4 364.9,41.5 365.9,42.5 367,43.4 368.1,44.2 369.4,44.9 370.6,45.5 371.9,46 373.3,46.3 374.7,46.6 376,46.7 377.4,46.7 378.8,46.6 380.2,46.3 381.6,46 382.9,45.5 384.1,44.9 385.3,44.2 386.5,43.4 387.6,42.5 388.5,41.5 389.4,40.4 390.2,39.3 390.9,38.1 391.5,36.8 392,35.5 392.4,34.2 392.6,32.8 392.7,31.4" />
<path stroke="#000000" stroke-width="2" d="M 399.4,70" />
<path stroke="#000000" stroke-width="2" d="M 419.4,30 404.1,67" />
<path stroke="#000000" stroke-width="2" d="M 426.1,70" />
<path stroke="#000000" stroke-width="2" d="M 426.1,30 426.3,30 426.3,30.2 426.1,30.2 426.1,30" />
<path stroke="#000000" stroke-width="2" d="M 456.3,70" />
<path stroke="#000000" stroke-width="2" d="M 456.3,30 466.3,30 466.3,70" />
<path stroke="#000000" stroke-width="2" d="M 472.9,70" />
<path stroke="#000000" stroke-width="2" d="M 472.9,50 472.9,70 472.9,64 472.9,63.1 473,62.3 473.2,61.4 473.4,60.6 473.7,59.7 474,58.9 474.5,58.2 475,57.5 475.5,56.8 476.2,56.2 476.8,55.6 477.5,55.1 478.3,54.7 479.1,54.3 479.9,54 480.8,53.8 481.6,53.6 482.5,53.6" />
<path stroke="#000000" stroke-width="2" d="M 512.5,70" />
<path stroke="#000000" stroke-width="2" d="M 512.5,30 512.5,70" />
<path stroke="#000000" stroke-width="2" d="M 519.1,70" />
<path stroke="#000000" stroke-width="2" d="M 529.1,70 530,70 530.9,69.9 531.7,69.8 532.6,69.5 533.4,69.2 534.2,68.9 535,68.4 535.7,67.9 536.3,67.4 537,66.8 537.5,66.1 538,65.4 538.5,64.6 538.8,63.8 539.1,63 539.3,62.2 539.5,61.3 539.6,60.4 539.6,59.6 539.5,58.7 539.3,57.8 539.1,57 538.8,56.2 538.5,55.4 538,54.6 537.5,53.9 537,53.3 536.3,52.6 535.7,52.1 535,51.6 534.2,51.1 533.4,50.8 532.6,50.5 531.7,50.2 530.9,50.1 530,50 529.1,50 528.3,50.1 527.4,50.2 526.6,50.5 525.8,50.8 525,51.1 524.2,51.6 523.5,52.1 522.8,52.6 522.2,53.3 521.7,53.9 521.2,54.6 520.7,55.4 520.3,56.2 520,57 519.8,57.8 519.7,58.7 519.6,59.6 519.6,60.4 519.7,61.3 519.8,62.2 520,63 520.3,63.8 520.7,64.6 521.2,65.4 521.7,66.1 522.2,66.8 522.8,67.4 523.5,67.9 524.2,68.4 525,68.9 525.8,69.2 526.6,69.5 527.4,69.8 528.3,69.9 529.1,70" />
<path stroke="#000000" stroke-width="2" d="M 569.6,70" />
<path stroke="#000000" stroke-width="2" d="M 569.6,40" />
<path stroke="#000000" stroke-width="2" d="M 569.6,40 573.6,39.8 576.9,39.2 579.3,38.3 581.1,37.1 582.2,35.8 582.8,34.3 582.9,32.8 582.5,31.4 581.8,30 580.8,28.8 579.6,27.7 578.2,27 576.7,26.7 575.2,26.8 573.8,27.3 572.5,28.5 571.3,30.2 570.4,32.7 569.8,35.9 569.6,40 569.6,70" />
<path stroke="#000000" stroke-width="2" d="M 589.6,70" />
<path stroke="#000000" stroke-width="2" d="M 589.6,50 609.6,50" />
<path stroke="#000000" stroke-width="2" d="M 639.6,70" />
<path stroke="#000000" stroke-width="2" d="M 639.6,30 659.6,30 660.4,30 661.3,30.1 662.2,30.2 663,30.5 663.8,30.8 664.6,31.1 665.4,31.6 666.1,32.1 666.7,32.6 667.4,33.2 667.9,33.9 668.4,34.6 668.9,35.4 669.2,36.2 669.5,37 669.7,37.8 669.9,38.7 670,39.6 670,40.4 669.9,41.3 669.7,42.2 669.5,43 669.2,43.8 668.9,44.6 668.4,45.4 667.9,46.1 667.4,46.7 666.7,47.4 666.1,47.9 665.4,48.4 664.6,48.9 663.8,49.2 663,49.5 662.2,49.8 661.3,49.9 660.4,50" />
<path stroke="#000000" stroke-width="2" d="M 700,70" />
<path stroke="#000000" stroke-width="2" d="M 700,30 715.3,67" />
<path stroke="#000000" stroke-width="2" d="M 722,70" />
<path stroke="#000000" stroke-width="2" d="M 722,50 742,50" />
<path stroke="#000000" stroke-width="2" d="M 772,70" />
<path stroke="#000000" stroke-width="2" d="M 772,70" />
<path stroke="#000000" stroke-width="2" d="M 772,70 773.1,70 774.1,70.2 774.9,70.4 775.6,70.7 776.2,71 776.6,71.5 776.9,71.9 777.1,72.5 777.2,73.1 777.2,73.8 777.1,74.4 776.8,75.2 776.5,76 776.1,76.8 775.6,77.6 775,78.4 774.4,79.3 773.6,80.2 772.8,81.1 772,82" />
<path stroke="#000000" stroke-width="2" d="M 807.2,70" />
<path stroke="#000000" stroke-width="2" d="M 807.2,30 827.2,30 828.1,30 829,30.1 829.8,30.2 830.7,30.5 831.5,30.8 832.3,31.1 833,31.6 833.7,32.1 834.4,32.6 835,33.2 835.6,33.9 836.1,34.6 836.5,35.4 836.9,36.2 837.2,37 837.4,37.8 837.6,38.7 837.6,39.6 837.6,40.4 837.6,41.3 837.4,42.2 837.2,43 836.9,43.8 836.5,44.6 836.1,45.4 835.6,46.1 835,46.7 834.4,47.4 833.7,47.9 833,48.4 832.3,48.9 831.5,49.2 830.7,49.5 829.8,49.8 829,49.9 828.1,50" />
<path stroke="#000000" stroke-width="2" d="M 867.6,70" />
<path stroke="#000000" stroke-width="2" d="M 883.6,30 863.9,49.8 883.6,69.6" />
<path stroke="#000000" stroke-width="2" d="M 890.3,70" />
<path stroke="#000000" stroke-width="2" d="M 890.3,20 890.3,40 890.3,34 890.3,33.1 890.4,32.3 890.5,31.4 890.8,30.6 891.1,29.7 891.4,28.9 891.9,28.2 892.4,27.5 892.9,26.8 893.6,26.2 894.2,25.6 894.9,25.1 895.7,24.7 896.5,24.3 897.3,24 898.1,23.8 899,23.6 899.9,23.6 907.5,42.1" />
<path stroke="#000000" stroke-width="2" d="M 914.2,70" />
<path stroke="#000000" stroke-width="2" d="M 914.2,50 934.2,50" />
<path stroke="#000000" stroke-width="2" d="M 940.9,70" />
<path stroke="#000000" stroke-width="2" d="M 940.9,30 941.1,30 941.1,30.2 940.9,30.2 940.9,30" />
<path stroke="#000000" stroke-width="2" d="M 971.1,70" />
<path stroke="#000000" stroke-width="2" d="M 987.1,30 967.3,49.8 987.1,69.6" />
<path stroke="#000000" stroke-width="2" d="M 993.7,70" />
<path stroke="#000000" stroke-width="2" d="M 993.7,25" />
<path stroke="#000000" stroke-width="2" d="M 993.7,25 995.8,24.9 997.4,24.6 998.6,24.1 999.5,23.6 1000.1,22.9 1000.3,22.2 1000.4,21.4 1000.2,20.7 999.9,20 999.3,19.4 998.7,18.9 998,18.5 997.3,18.3 996.6,18.4 995.8,18.7 995.2,19.2 994.6,20.1 994.1,21.4 993.8,23 993.7,25 993.7,40" />
<path stroke="#000000" stroke-width="2" d="M 1030.4,70" />
</svg>