<svg xmlns="http://www.w3.org/2000/svg" width="1352.7346775184806" height="108.47759065022574" style="fill:none; stroke-linecap:round;">
    <rect width="100%" height="100%" fill="#FFFFFF" />
<path stroke="#000000" stroke-width="2" d="M 550,75" />
<path stroke="#000000" stroke-width="2" d="M 20,70 20.2,70 20.2,70.2 20,70.2 20,70" />
<path stroke="#000000" stroke-width="2" d="M 26.9,70" />
<path stroke="#000000" stroke-width="2" d="M 26.9,40" />
<path stroke="#000000" stroke-width="2" d="M 26.9,40 30.9,39.8 34.2,39.2 36.6,38.3 38.4,37.1 39.5,35.8 40.1,34.3 40.2,32.8 39.8,31.4 39.1,30 38.1,28.8 36.9,27.7 35.5,27 34,26.7 32.5,26.8 31.1,27.3 29.7,28.5 28.6,30.2 27.7,32.7 27.1,35.9 26.9,40 26.9,70" />
<path stroke="#000000" stroke-width="2" d="M 46.8,70" />
<path stroke="#000000" stroke-width="2" d="M 46.8,40 46.8,39.3 46.9,38.6 47,37.9 47.2,37.2 47.4,36.6 47.7,36 48.1,35.4 48.5,34.8 48.9,34.2 49.4,33.8 50,33.3 50.5,32.9 51.1,32.6 51.8,32.3 52.4,32 53.1,31.8 53.8,31.7 54.5,31.7 55.2,31.7 55.9,31.7 56.6,31.8 57.2,32 57.9,32.3 58.5,32.6 59.1,32.9 59.7,33.3 60.2,33.8 60.7,34.2 61.2,34.8 61.6,35.4 61.9,36 62.2,36.6 62.5,37.2 62.6,37.9 62.8,38.6 62.8,39.3" />
<path stroke="#000000" stroke-width="2" d="M 62.8,35.3" />
<path stroke="#000000" stroke-width="2" d="M 56.8,35.3 66.8,35.3 67.7,35.3 68.6,35.4 69.4,35.5 70.3,35.8 71.1,36.1 71.9,36.4 72.6,36.9 73.4,37.4 74,37.9 74.6,38.5 75.2,39.2 75.7,39.9 76.1,40.7 76.5,41.5 76.8,42.3 77,43.1 77.2,44 77.3,44.9 77.3,45.7 77.2,46.6 77,47.5 76.8,48.3 76.5,49.1 76.1,49.9 75.7,50.7 75.2,51.4 74.6,52 74,52.7 73.4,53.2 72.6,53.7 71.9,54.2 71.1,54.5 70.3,54.8 69.4,55.1 68.6,55.2 67.7,55.3" />
<path stroke="#000000" stroke-width="2" d="M 107.3,70" />
<path stroke="#000000" stroke-width="2" d="M 107.3,30 107.3,31.4 107.4,32.8 107.6,34.2 108,35.5 108.5,36.8 109,38.1 109.7,39.3 110.5,40.4 111.4,41.5 112.4,42.5 113.5,43.4 114.6,44.2 115.9,44.9 117.1,45.5 118.4,46 119.8,46.3 121.1,46.6 122.5,46.7 123.9,46.7 125.3,46.6 126.7,46.3 128,46 129.4,45.5 130.6,44.9 131.8,44.2 133,43.4 134,42.5 135,41.5 135.9,40.4 136.7,39.3 137.4,38.1 138,36.8 138.5,35.5 138.9,34.2 139.1,32.8 139.2,31.4" />
<path stroke="#000000" stroke-width="2" d="M 145.9,70" />
<path stroke="#000000" stroke-width="2" d="M 145.9,70 145.9,69.3 146,68.6 146.1,67.9 146.3,67.2 146.5,66.6 146.8,66 147.1,65.4 147.5,64.8 148,64.2 148.5,63.8 149,63.3 149.6,62.9 150.2,62.6 150.8,62.3 151.5,62 152.2,61.8 152.8,61.7 153.5,61.7 154.2,61.7 154.9,61.7 155.6,61.8 156.3,62 156.9,62.3 157.6,62.6 158.2,62.9 158.8,63.3 159.3,63.8 159.8,64.2 160.2,64.8 160.6,65.4 161,66 161.3,66.6 161.5,67.2 161.7,67.9 161.8,68.6 161.9,69.3" />
<path stroke="#000000" stroke-width="2" d="M 168.5,70" />
<path stroke="#000000" stroke-width="2" d="M 176.5,20 176.5,35" />
<path stroke="#000000" stroke-width="2" d="M 176.5,35 176.4,37 176.1,38.6 175.7,39.9 175.1,40.8 174.4,41.3 173.7,41.6 173,41.7 172.2,41.5 171.5,41.1 170.9,40.6 170.4,40 170.1,39.3 169.9,38.6 169.9,37.8 170.2,37.1 170.8,36.4 171.7,35.9 172.9,35.4 174.5,35.1 176.5,35 196.5,35" />
<path stroke="#000000" stroke-width="2" d="M 226.5,70" />
<path stroke="#000000" stroke-width="2" d="M 226.5,30 226.5,70 237.9,58.7" />
<path stroke="#000000" stroke-width="2" d="M 244.5,70" />
<path stroke="#000000" stroke-width="2" d="M 244.5,25" />
<path stroke="#000000" stroke-width="2" d="M 244.5,25 246.6,24.9 248.2,24.6 249.4,24.1 250.3,23.6 250.8,22.9 251.1,22.2 251.2,21.4 251,20.7 250.6,20 250.1,19.4 249.5,18.9 248.8,18.5 248.1,18.3 247.4,18.4 246.6,18.7 246,19.2 245.4,20.1 244.9,21.4 244.6,23 244.5,25 244.5,40" />
<path stroke="#000000" stroke-width="2" d="M 281.2,70" />
<path stroke="#000000" stroke-width="2" d="M 297.2,30" />
<path stroke="#000000" stroke-width="2" d="M 297.2,30 297,34.1 296.4,37.3 295.5,39.8 294.3,41.5 293,42.7 291.5,43.2 290,43.3 288.5,43 287.2,42.3 285.9,41.2 284.9,40 284.2,38.6 283.9,37.2 283.9,35.7 284.5,34.2 285.7,32.9 287.4,31.7 289.9,30.8 293.1,30.2 297.2,30 317.2,30" />
<path stroke="#000000" stroke-width="2" d="M 323.8,70" />
<path stroke="#000000" stroke-width="2" d="M 323.8,55" />
<path stroke="#000000" stroke-width="2" d="M 323.8,55 325.9,54.9 327.5,54.6 328.7,54.1 329.6,53.6 330.2,52.9 330.5,52.2 330.5,51.4 330.3,50.7 330,50 329.5,49.4 328.9,48.9 328.2,48.5 327.4,48.3 326.7,48.4 326,48.7 325.3,49.2 324.7,50.1 324.2,51.4 323.9,53 323.8,55 323.8,70" />
<path stroke="#000000" stroke-width="2" d="M 337.2,70" />
<path stroke="#000000" stroke-width="2" d="M 337.2,30 337.2,50 337.2,50.7 337.2,51.4 337.3,52.1 337.5,52.8 337.8,53.4 338.1,54 338.4,54.6 338.8,55.2 339.3,55.8 339.8,56.2 340.3,56.7 340.9,57.1 341.5,57.4 342.1,57.7 342.8,58 343.4,58.2 344.1,58.3 344.8,58.3 345.5,58.3 346.2,58.3 346.9,58.2 347.6,58 348.2,57.7 348.9,57.4 349.5,57.1 350,56.7 350.6,56.2 351.1,55.8 351.5,55.2 351.9,54.6 352.3,54 352.5,53.4 352.8,52.8 353,52.1 353.1,51.4 353.1,50.7" />
<path stroke="#000000" stroke-width="2" d="M 359.8,70" />
<path stroke="#000000" stroke-width="2" d="M 359.8,30 360,30 360,30.2 359.8,30.2 359.8,30" />
<path stroke="#000000" stroke-width="2" d="M 390,70" />
<path stroke="#000000" stroke-width="2" d="M 390,70 390.2,70 390.2,70.2 390,70.2 390,70" />
<path stroke="#000000" stroke-width="2" d="M 396.9,70" />
<path stroke="#000000" stroke-width="2" d="M 396.9,30 412.2,67" />
<path stroke="#000000" stroke-width="2" d="M 418.9,70" />
<path stroke="#000000" stroke-width="2" d="M 418.9,55" />
<path stroke="#000000" stroke-width="2" d="M 418.9,55 420.9,54.9 422.5,54.6 423.7,54.1 424.6,53.6 425.2,52.9 425.5,52.2 425.5,51.4 425.3,50.7 425,50 424.5,49.4 423.9,48.9 423.2,48.5 422.4,48.3 421.7,48.4 421,48.7 420.3,49.2 419.7,50.1 419.3,51.4 419,53 418.9,55 418.9,70 411.2,88.5" />
<path stroke="#000000" stroke-width="2" d="M 455.5,70" />
<path stroke="#000000" stroke-width="2" d="M 475.5,30 475.5,70 455.5,70" />
<path stroke="#000000" stroke-width="2" d="M 482.2,70" />
<path stroke="#000000" stroke-width="2" d="M 482.2,20 502.2,20" />
<path stroke="#000000" stroke-width="2" d="M 508.8,70" />
<path stroke="#000000" stroke-width="2" d="M 508.8,20 508.8,40 508.8,34 508.8,33.1 508.9,32.3 509.1,31.4 509.3,30.6 509.6,29.7 510,28.9 510.4,28.2 510.9,27.5 511.5,26.8 512.1,26.2 512.7,25.6 513.5,25.1 514.2,24.7 515,24.3 515.8,24 516.7,23.8 517.5,23.6 518.4,23.6" />
<path stroke="#000000" stroke-width="2" d="M 525.1,70" />
<path stroke="#000000" stroke-width="2" d="M 525.1,70 525.1,68.6 525.2,67.2 525.4,65.8 525.8,64.5 526.3,63.2 526.9,61.9 527.6,60.7 528.4,59.6 529.3,58.5 530.2,57.5 531.3,56.6 532.5,55.8 533.7,55.1 534.9,54.5 536.2,54 537.6,53.7 539,53.4 540.4,53.3 541.7,53.3 543.1,53.4 544.5,53.7 545.9,54 547.2,54.5 548.4,55.1 549.6,55.8 550.8,56.6 551.9,57.5 552.8,58.5 553.7,59.6 554.5,60.7 555.2,61.9 555.8,63.2 556.3,64.5 556.7,65.8 556.9,67.2 557,68.6" />
<path stroke="#000000" stroke-width="2" d="M 587,70" />
<path stroke="#000000" stroke-width="2" d="M 597,30 596.2,30 595.3,30.1 594.4,30.2 593.6,30.5 592.8,30.8 592,31.1 591.2,31.6 590.5,32.1 589.8,32.6 589.2,33.2 588.7,33.9 588.2,34.6 587.7,35.4 587.4,36.2 587.1,37 586.8,37.8 586.7,38.7 586.6,39.6 586.6,40.4 586.7,41.3 586.8,42.2 587.1,43 587.4,43.8 587.7,44.6 588.2,45.4 588.7,46.1 589.2,46.7 589.8,47.4 590.5,47.9 591.2,48.4 592,48.9 592.8,49.2 593.6,49.5 594.4,49.8 595.3,49.9 596.2,50 616.2,50" />
<path stroke="#000000" stroke-width="2" d="M 646.2,70" />
<path stroke="#000000" stroke-width="2" d="M 646.2,70 646.4,70 646.4,70.2 646.2,70.2 646.2,70" />
<path stroke="#000000" stroke-width="2" d="M 676.4,70" />
<path stroke="#000000" stroke-width="2" d="M 676.4,30 676.4,50 686.4,50 686.4,70 692,64.3" />
<path stroke="#000000" stroke-width="2" d="M 698.7,70" />
<path stroke="#000000" stroke-width="2" d="M 698.7,25" />
<path stroke="#000000" stroke-width="2" d="M 698.7,25 700.7,24.9 702.3,24.6 703.6,24.1 704.4,23.6 705,22.9 705.3,22.2 705.3,21.4 705.2,20.7 704.8,20 704.3,19.4 703.7,18.9 703,18.5 702.3,18.3 701.5,18.4 700.8,18.7 700.1,19.2 699.5,20.1 699.1,21.4 698.8,23 698.7,25 698.7,40" />
<path stroke="#000000" stroke-width="2" d="M 735.3,70" />
<path stroke="#000000" stroke-width="2" d="M 735.3,30 775.3,30" />
<path stroke="#000000" stroke-width="2" d="M 805.3,70" />
<path stroke="#000000" stroke-width="2" d="M 805.3,70 805.5,70 805.5,70.2 805.3,70.2 805.3,70" />
<path stroke="#000000" stroke-width="2" d="M 812.2,70" />
<path stroke="#000000" stroke-width="2" d="M 828.2,30 808.4,49.8 828.2,69.6" />
<path stroke="#000000" stroke-width="2" d="M 834.9,70" />
<path stroke="#000000" stroke-width="2" d="M 834.9,55" />
<path stroke="#000000" stroke-width="2" d="M 834.9,55 836.9,54.9 838.5,54.6 839.7,54.1 840.6,53.6 841.2,52.9 841.5,52.2 841.5,51.4 841.4,50.7 841,50 840.5,49.4 839.9,48.9 839.2,48.5 838.5,48.3 837.7,48.4 837,48.7 836.3,49.2 835.7,50.1 835.3,51.4 835,53 834.9,55 834.9,70" />
<path stroke="#000000" stroke-width="2" d="M 834.9,70 834.8,72 834.5,73.6 834,74.9 833.4,75.8 832.8,76.3 832,76.6 831.3,76.7 830.6,76.5 829.9,76.1 829.2,75.6 828.7,75 828.4,74.3 828.2,73.6 828.3,72.8 828.5,72.1 829.1,71.4 830,70.9 831.2,70.4 832.8,70.1 834.9,70 844.9,70" />
<path stroke="#000000" stroke-width="2" d="M 851.5,70" />
<path stroke="#000000" stroke-width="2" d="M 871.5,30 856.2,67" />
<path stroke="#000000" stroke-width="2" d="M 878.2,70" />
<path stroke="#000000" stroke-width="2" d="M 878.2,20 878.2,20.7 878.3,21.4 878.4,22.1 878.6,22.8 878.8,23.4 879.1,24 879.5,24.6 879.9,25.2 880.3,25.8 880.8,26.2 881.3,26.7 881.9,27.1 882.5,27.4 883.1,27.7 883.8,28 884.5,28.2 885.2,28.3 885.8,28.3 886.5,28.3 887.2,28.3 887.9,28.2 888.6,28 889.3,27.7 889.9,27.4 890.5,27.1 891.1,26.7 891.6,26.2 892.1,25.8 892.5,25.2 892.9,24.6 893.3,24 893.6,23.4 893.8,22.8 894,22.1 894.1,21.4 894.2,20.7" />
<path stroke="#000000" stroke-width="2" d="M 924.2,70" />
<path stroke="#000000" stroke-width="2" d="M 924.2,30 924.2,70 924.2,58 924.2,56.3 924.3,54.5 924.6,52.8 925.1,51.1 925.7,49.5 926.4,47.9 927.3,46.4 928.3,45 929.4,43.6 930.7,42.4 932,41.3 933.4,40.3 934.9,39.4 936.5,38.7 938.2,38.1 939.8,37.6 941.6,37.3 943.3,37.1" />
<path stroke="#000000" stroke-width="2" d="M 950,70" />
<path stroke="#000000" stroke-width="2" d="M 950,50 957.6,68.5" />
<path stroke="#000000" stroke-width="2" d="M 987.6,70" />
<path stroke="#000000" stroke-width="2" d="M 987.6,70 987.8,70 987.8,70.2 987.6,70.2 987.6,70" />
<path stroke="#000000" stroke-width="2" d="M 1017.8,70" />
<path stroke="#000000" stroke-width="2" d="M 1017.8,50 1025.5,31.5 1025.5,32.2 1025.5,32.9 1025.7,33.6 1025.8,34.3 1026.1,34.9 1026.4,35.6 1026.7,36.2 1027.1,36.7 1027.6,37.3 1028.1,37.8 1028.6,38.2 1029.2,38.6 1029.8,39 1030.4,39.3 1031.1,39.5 1031.7,39.7 1032.4,39.8 1033.1,39.9 1033.8,39.9 1034.5,39.8 1035.2,39.7 1035.9,39.5 1036.5,39.3 1037.2,39 1037.8,38.6 1038.3,38.2 1038.9,37.8 1039.4,37.3 1039.8,36.7 1040.2,36.2 1040.6,35.6 1040.9,34.9 1041.1,34.3 1041.3,33.6 1041.4,32.9 1041.5,32.2 1042.3,32.2 1043.2,32.1 1044.1,32 1044.9,31.8 1045.7,31.5 1046.5,31.1 1047.3,30.7 1048,30.2 1048.7,29.6 1049.3,29 1049.8,28.3 1050.3,27.6 1050.8,26.8 1051.1,26.1 1051.4,25.2 1051.7,24.4 1051.8,23.5 1051.9,22.7 1051.9,21.8 1051.8,20.9 1051.7,20.1 1051.4,19.2 1051.1,18.4 1050.8,17.6 1050.3,16.9 1049.8,16.1 1049.3,15.5 1048.7,14.9 1048,14.3 1047.3,13.8 1046.5,13.4 1045.7,13 1044.9,12.7 1044.1,12.5 1043.2,12.3 1042.3,12.2 1041.5,12.2 1040.6,12.3 1039.7,12.5 1038.9,12.7 1038.1,13 1037.3,13.4 1036.5,13.8 1035.8,14.3 1035.1,14.9 1034.5,15.5 1034,16.1 1033.5,16.9 1033,17.6 1032.7,18.4 1032.4,19.2 1032.1,20.1 1032,20.9 1031.9,21.8 1031.9,22.7 1032,23.5 1032.1,24.4 1032.4,25.2 1032.7,26.1 1033,26.8 1033.5,27.6 1034,28.3 1034.5,29 1035.1,29.6 1035.8,30.2 1036.5,30.7 1037.3,31.1 1038.1,31.5 1038.9,31.8 1039.7,32 1040.6,32.1 1041.5,32.2" />
<path stroke="#000000" stroke-width="2" d="M 1058.6,70" />
<path stroke="#000000" stroke-width="2" d="M 1058.6,50 1058.8,50 1058.8,50.2 1058.6,50.2 1058.6,50" />
<path stroke="#000000" stroke-width="2" d="M 1088.8,70" />
<path stroke="#000000" stroke-width="2" d="M 1088.8,30 1088.8,50 1098.8,50 1088.9,59.9 1098.8,69.8" />
<path stroke="#000000" stroke-width="2" d="M 1105.4,70" />
<path stroke="#000000" stroke-width="2" d="M 1105.4,20 1106.3,20 1107.2,20.1 1108,20.2 1108.9,20.5 1109.7,20.8 1110.5,21.1 1111.2,21.6 1111.9,22.1 1112.6,22.6 1113.2,23.2 1113.8,23.9 1114.3,24.6 1114.7,25.4 1115.1,26.2 1115.4,27 1115.6,27.8 1115.8,28.7 1115.8,29.6 1115.8,30.4 1115.8,31.3 1115.6,32.2 1115.4,33 1115.1,33.8 1114.7,34.6 1114.3,35.4 1113.8,36.1 1113.2,36.7 1112.6,37.4 1111.9,37.9 1111.2,38.4 1110.5,38.9 1109.7,39.2 1108.9,39.5 1108,39.8 1107.2,39.9 1106.3,40" />
<path stroke="#000000" stroke-width="2" d="M 1145.8,70" />
<path stroke="#000000" stroke-width="2" d="M 1145.8,30 1185.8,30" />
<path stroke="#000000" stroke-width="2" d="M 1192.5,70" />
<path stroke="#000000" stroke-width="2" d="M 1192.5,50 1197.5,50 1197.5,70" />
<path stroke="#000000" stroke-width="2" d="M 1204.2,70" />
<path stroke="#000000" stroke-width="2" d="M 1204.2,40" />
<path stroke="#000000" stroke-width="2" d="M 1204.2,40 1208.2,39.8 1211.5,39.2 1213.9,38.3 1215.7,37.1 1216.8,35.8 1217.4,34.3 1217.5,32.8 1217.1,31.4 1216.4,30 1215.4,28.8 1214.2,27.7 1212.8,27 1211.3,26.7 1209.8,26.8 1208.4,27.3 1207.1,28.5 1205.9,30.2 1205,32.7 1204.4,35.9 1204.2,40 1204.2,70" />
<path stroke="#000000" stroke-width="2" d="M 1224.2,70" />
<path stroke="#000000" stroke-width="2" d="M 1224.2,70 1224.2,68.6 1224.3,67.2 1224.5,65.8 1224.9,64.5 1225.4,63.2 1225.9,61.9 1226.6,60.7 1227.4,59.6 1228.3,58.5 1229.3,57.5 1230.4,56.6 1231.5,55.8 1232.8,55.1 1234,54.5 1235.3,54 1236.7,53.7 1238.1,53.4 1239.4,53.3 1240.8,53.3 1242.2,53.4 1243.6,53.7 1244.9,54 1246.3,54.5 1247.5,55.1 1248.7,55.8 1249.9,56.6 1250.9,57.5 1251.9,58.5 1252.8,59.6 1253.6,60.7 1254.3,61.9 1254.9,63.2 1255.4,64.5 1255.8,65.8 1256,67.2 1256.1,68.6" />
<path stroke="#000000" stroke-width="2" d="M 1262.8,70" />
<path stroke="#000000" stroke-width="2" d="M 1262.8,20 1262.8,20.7 1262.9,21.4 1263,22.1 1263.2,22.8 1263.4,23.4 1263.7,24 1264,24.6 1264.4,25.2 1264.9,25.8 1265.4,26.2 1265.9,26.7 1266.5,27.1 1267.1,27.4 1267.7,27.7 1268.4,28 1269.1,28.2 1269.7,28.3 1270.4,28.3 1271.1,28.3 1271.8,28.3 1272.5,28.2 1273.2,28 1273.8,27.7 1274.5,27.4 1275.1,27.1 1275.7,26.7 1276.2,26.2 1276.7,25.8 1277.1,25.2 1277.5,24.6 1277.9,24 1278.2,23.4 1278.4,22.8 1278.6,22.1 1278.7,21.4 1278.8,20.7" />
<path stroke="#000000" stroke-width="2" d="M 1308.8,70" />
<path stroke="#000000" stroke-width="2" d="M 1308.8,30 1308.8,70" />
<path stroke="#000000" stroke-width="2" d="M 1315.4,70" />
<path stroke="#000000" stroke-width="2" d="M 1315.4,50 1316.3,50 1317.2,50.1 1318,50.2 1318.9,50.5 1319.7,50.8 1320.5,51.1 1321.3,51.6 1322,52.1 1322.6,52.6 1323.3,53.2 1323.8,53.9 1324.3,54.6 1324.7,55.4 1325.1,56.2 1325.4,57 1325.6,57.8 1325.8,58.7 1325.9,59.6 1325.9,60.4 1325.8,61.3 1325.6,62.2 1325.4,63 1325.1,63.8 1324.7,64.6 1324.3,65.4 1323.8,66.1 1323.3,66.7 1322.6,67.4 1322,67.9 1321.3,68.4 1320.5,68.9 1319.7,69.2 1318.9,69.5 1318,69.8 1317.2,69.9 1316.3,70" />
<path stroke="#000000" stroke-width="2" d="M 1332.5,70" />
<path stroke="#000000" stroke-width="2" d="M 1332.5,30 1332.7,30 1332.7,30.2 1332.5,30.2 1332.5,30" />
<path stroke="#000000" stroke-width="2" d="M 1362.7,70" />
</svg>