<svg xmlns="http://www.w3.org/2000/svg" width="1255.9982551981554" height="130.0677395031967" style="fill:none; stroke-linecap:round;">
    <rect width="100%" height="100%" fill="#FFFFFF" />
<path stroke="#000000" stroke-width="2" d="M 550,75" />
<path stroke="#000000" stroke-width="2" d="M 20,30 20,70 31.3,58.7" />
<path stroke="#000000" stroke-width="2" d="M 38,70" />
<path stroke="#000000" stroke-width="2" d="M 48,30 40.3,48.5 30.4,58.4 40.3,68.3" />
<path stroke="#000000" stroke-width="2" d="M 78,70" />
<path stroke="#000000" stroke-width="2" d="M 94,30 74.2,49.8 94,69.6" />
<path stroke="#000000" stroke-width="2" d="M 100.6,70" />
<path stroke="#000000" stroke-width="2" d="M 100.6,20 100.6,40 100.6,34 100.6,33.1 100.7,32.3 100.9,31.4 101.1,30.6 101.4,29.7 101.8,28.9 102.2,28.2 102.7,27.5 103.3,26.8 103.9,26.2 104.5,25.6 105.3,25.1 106,24.7 106.8,24.3 107.6,24 108.5,23.8 109.3,23.6 110.2,23.6" />
<path stroke="#000000" stroke-width="2" d="M 140.2,70" />
<path stroke="#000000" stroke-width="2" d="M 140.2,70" />
<path stroke="#000000" stroke-width="2" d="M 140.2,70 141.3,70 142.3,70.2 143.1,70.4 143.8,70.7 144.4,71 144.9,71.5 145.2,71.9 145.4,72.5 145.5,73.1 145.5,73.8 145.3,74.4 145.1,75.2 144.8,76 144.4,76.8 143.9,77.6 143.3,78.4 142.6,79.3 141.9,80.2 141.1,81.1 140.2,82" />
<path stroke="#000000" stroke-width="2" d="M 175.5,70" />
<path stroke="#000000" stroke-width="2" d="M 175.5,30 175.5,70" />
<path stroke="#000000" stroke-width="2" d="M 182.1,70" />
<path stroke="#000000" stroke-width="2" d="M 192.1,50 184.5,68.5" />
<path stroke="#000000" stroke-width="2" d="M 222.1,70" />
<path stroke="#000000" stroke-width="2" d="M 222.1,70 222.3,70 222.3,70.2 222.1,70.2 222.1,70" />
<path stroke="#000000" stroke-width="2" d="M 229,70" />
<path stroke="#000000" stroke-width="2" d="M 229,30 229,70" />
<path stroke="#000000" stroke-width="2" d="M 235.7,70" />
<path stroke="#000000" stroke-width="2" d="M 245.7,30 238,48.5 230.4,67" />
<path stroke="#000000" stroke-width="2" d="M 252.3,70" />
<path stroke="#000000" stroke-width="2" d="M 252.3,20 252.3,40 252.3,34 252.3,33.1 252.4,32.3 252.6,31.4 252.8,30.6 253.1,29.7 253.5,28.9 253.9,28.2 254.4,27.5 255,26.8 255.6,26.2 256.2,25.6 257,25.1 257.7,24.7 258.5,24.3 259.3,24 260.2,23.8 261,23.6 261.9,23.6 281.9,23.6" />
<path stroke="#000000" stroke-width="2" d="M 288.6,70" />
<path stroke="#000000" stroke-width="2" d="M 288.6,25" />
<path stroke="#000000" stroke-width="2" d="M 288.6,25 290.6,24.9 292.2,24.6 293.4,24.1 294.3,23.6 294.9,22.9 295.2,22.2 295.2,21.4 295,20.7 294.7,20 294.2,19.4 293.6,18.9 292.9,18.5 292.1,18.3 291.4,18.4 290.7,18.7 290,19.2 289.4,20.1 289,21.4 288.7,23 288.6,25 288.6,40" />
<path stroke="#000000" stroke-width="2" d="M 288.6,40 290.6,39.9 292.2,39.6 293.4,39.1 294.3,38.6 294.9,37.9 295.2,37.2 295.2,36.4 295,35.7 294.7,35 294.2,34.4 293.6,33.9 292.9,33.5 292.1,33.3 291.4,33.4 290.7,33.7 290,34.2 289.4,35.1 289,36.4 288.7,38 288.6,40 288.6,55" />
<path stroke="#000000" stroke-width="2" d="M 325.2,70" />
<path stroke="#000000" stroke-width="2" d="M 325.2,30 325.2,50 335.2,50 355.2,50" />
<path stroke="#000000" stroke-width="2" d="M 385.2,70" />
<path stroke="#000000" stroke-width="2" d="M 385.2,70 385.4,70 385.4,70.2 385.2,70.2 385.2,70" />
<path stroke="#000000" stroke-width="2" d="M 392.1,70" />
<path stroke="#000000" stroke-width="2" d="M 396.1,30 413.1,47" />
<path stroke="#000000" stroke-width="2" d="M 430,30 390.4,69.6 389.6,69.6 388.7,69.7 387.8,69.8 387,70.1 386.2,70.3 385.4,70.7 384.6,71.2 383.9,71.7 383.2,72.2 382.6,72.8 382.1,73.5 381.6,74.2 381.1,75 380.7,75.8 380.5,76.6 380.2,77.4 380.1,78.3 380,79.2 380,80 380.1,80.9 380.2,81.8 380.5,82.6 380.7,83.4 381.1,84.2 381.6,85 382.1,85.7 382.6,86.3 383.2,87 383.9,87.5 384.6,88 385.4,88.5 386.2,88.8 387,89.1 387.8,89.4 388.7,89.5 389.6,89.6 393.4,98.8" />
<path stroke="#000000" stroke-width="2" d="M 393.4,98.8 395.3,101 396.6,102.9 397.4,104.6 397.7,106 397.6,107.3 397.2,108.3 396.5,109.1 395.5,109.6 394.5,110 393.4,110.1 392.3,110 391.2,109.6 390.3,109.1 389.6,108.3 389.2,107.3 389.1,106 389.4,104.6 390.1,102.9 391.5,101 393.4,98.8 397.2,89.6 417.2,89.6 417.2,93.6 417.2,94.1 417.3,94.6 417.3,95.1 417.5,95.6 417.7,96.1 417.9,96.6 418.1,97.1 418.4,97.5 418.8,97.9 419.1,98.3 419.5,98.6 420,98.9 420.4,99.2 420.9,99.4 421.4,99.6 421.9,99.7 422.4,99.8 422.9,99.8 423.5,99.8 424,99.8 424.5,99.7 425,99.6 425.5,99.4 426,99.2 426.4,98.9 426.9,98.6 427.3,98.3 427.6,97.9 428,97.5 428.3,97.1 428.5,96.6 428.7,96.1 428.9,95.6 429.1,95.1 429.1,94.6 429.2,94.1 429.2,89.1 429.2,109.1" />
<path stroke="#000000" stroke-width="2" d="M 460,70" />
<path stroke="#000000" stroke-width="2" d="M 470,30 469.2,30 468.3,30.1 467.4,30.2 466.6,30.5 465.8,30.8 465,31.1 464.2,31.6 463.5,32.1 462.8,32.6 462.2,33.2 461.7,33.9 461.2,34.6 460.7,35.4 460.3,36.2 460,37 459.8,37.8 459.7,38.7 459.6,39.6 459.6,40.4 459.7,41.3 459.8,42.2 460,43 460.3,43.8 460.7,44.6 461.2,45.4 461.7,46.1 462.2,46.7 462.8,47.4 463.5,47.9 464.2,48.4 465,48.9 465.8,49.2 466.6,49.5 467.4,49.8 468.3,49.9 469.2,50 489.2,50" />
<path stroke="#000000" stroke-width="2" d="M 495.8,70" />
<path stroke="#000000" stroke-width="2" d="M 495.8,25" />
<path stroke="#000000" stroke-width="2" d="M 495.8,25 497.8,24.9 499.5,24.6 500.7,24.1 501.6,23.6 502.1,22.9 502.4,22.2 502.5,21.4 502.3,20.7 501.9,20 501.4,19.4 500.8,18.9 500.1,18.5 499.4,18.3 498.7,18.4 497.9,18.7 497.3,19.2 496.7,20.1 496.2,21.4 495.9,23 495.8,25 495.8,40" />
<path stroke="#000000" stroke-width="2" d="M 532.5,70" />
<path stroke="#000000" stroke-width="2" d="M 548.5,30 528.7,49.8 548.5,69.6" />
<path stroke="#000000" stroke-width="2" d="M 555.1,70" />
<path stroke="#000000" stroke-width="2" d="M 555.1,40 562.8,21.5 570.4,40 570.4,60 570.4,54 570.4,53.1 570.5,52.3 570.7,51.4 570.9,50.6 571.2,49.7 571.6,48.9 572,48.2 572.5,47.5 573.1,46.8 573.7,46.2 574.3,45.6 575.1,45.1 575.8,44.7 576.6,44.3 577.4,44 578.3,43.8 579.1,43.6 580,43.6 572.3,62.1" />
<path stroke="#000000" stroke-width="2" d="M 610,70" />
<path stroke="#000000" stroke-width="2" d="M 626,30 606.2,49.8 626,69.6" />
<path stroke="#000000" stroke-width="2" d="M 632.7,70" />
<path stroke="#000000" stroke-width="2" d="M 632.7,20 633.5,20 634.4,20.1 635.3,20.2 636.1,20.5 636.9,20.8 637.7,21.1 638.5,21.6 639.2,22.1 639.9,22.6 640.5,23.2 641,23.9 641.5,24.6 642,25.4 642.3,26.2 642.6,27 642.9,27.8 643,28.7 643.1,29.6 643.1,30.4 643,31.3 642.9,32.2 642.6,33 642.3,33.8 642,34.6 641.5,35.4 641,36.1 640.5,36.7 639.9,37.4 639.2,37.9 638.5,38.4 637.7,38.9 636.9,39.2 636.1,39.5 635.3,39.8 634.4,39.9 633.5,40" />
<path stroke="#000000" stroke-width="2" d="M 673.1,70" />
<path stroke="#000000" stroke-width="2" d="M 683.1,30 675.4,48.5 675.4,68.5 675.4,62.5 675.4,61.6 675.5,60.7 675.7,59.9 675.9,59 676.2,58.2 676.6,57.4 677,56.7 677.5,56 678.1,55.3 678.7,54.7 679.3,54.1 680.1,53.6 680.8,53.2 681.6,52.8 682.4,52.5 683.3,52.3 684.1,52.1 685,52.1" />
<path stroke="#000000" stroke-width="2" d="M 691.7,70" />
<path stroke="#000000" stroke-width="2" d="M 691.7,20 711.7,20" />
<path stroke="#000000" stroke-width="2" d="M 711.7,20 713.7,19.9 715.3,19.6 716.5,19.1 717.4,18.6 718,17.9 718.3,17.2 718.3,16.4 718.1,15.7 717.8,15 717.3,14.4 716.7,13.9 716,13.5 715.2,13.3 714.5,13.4 713.8,13.7 713.1,14.2 712.5,15.1 712.1,16.4 711.8,18 711.7,20 711.7,35 716.7,35 716.7,55" />
<path stroke="#000000" stroke-width="2" d="M 725,70" />
<path stroke="#000000" stroke-width="2" d="M 725,50 725,70 725,64 725,63.1 725.1,62.3 725.2,61.4 725.4,60.6 725.7,59.7 726.1,58.9 726.5,58.2 727,57.5 727.6,56.8 728.2,56.2 728.9,55.6 729.6,55.1 730.4,54.7 731.1,54.3 732,54 732.8,53.8 733.7,53.6 734.5,53.6 742.2,72.1" />
<path stroke="#000000" stroke-width="2" d="M 748.9,70" />
<path stroke="#000000" stroke-width="2" d="M 748.9,20 749.7,20 750.6,20.1 751.5,20.2 752.3,20.5 753.1,20.8 753.9,21.1 754.7,21.6 755.4,22.1 756,22.6 756.7,23.2 757.2,23.9 757.7,24.6 758.2,25.4 758.5,26.2 758.8,27 759.1,27.8 759.2,28.7 759.3,29.6 759.3,30.4 759.2,31.3 759.1,32.2 758.8,33 758.5,33.8 758.2,34.6 757.7,35.4 757.2,36.1 756.7,36.7 756,37.4 755.4,37.9 754.7,38.4 753.9,38.9 753.1,39.2 752.3,39.5 751.5,39.8 750.6,39.9 749.7,40" />
<path stroke="#000000" stroke-width="2" d="M 789.3,70" />
<path stroke="#000000" stroke-width="2" d="M 805.3,30 785.5,49.8 805.3,69.6" />
<path stroke="#000000" stroke-width="2" d="M 811.9,70" />
<path stroke="#000000" stroke-width="2" d="M 811.9,20 811.9,40 811.9,34 811.9,33.1 812,32.3 812.2,31.4 812.4,30.6 812.7,29.7 813.1,28.9 813.5,28.2 814,27.5 814.6,26.8 815.2,26.2 815.9,25.6 816.6,25.1 817.3,24.7 818.1,24.3 818.9,24 819.8,23.8 820.6,23.6 821.5,23.6" />
<path stroke="#000000" stroke-width="2" d="M 851.5,70" />
<path stroke="#000000" stroke-width="2" d="M 851.5,30 851.5,50 861.5,50 881.5,50 873.9,68.5" />
<path stroke="#000000" stroke-width="2" d="M 888.2,70" />
<path stroke="#000000" stroke-width="2" d="M 888.2,50 888.4,50 888.4,50.2 888.2,50.2 888.2,50" />
<path stroke="#000000" stroke-width="2" d="M 918.4,70" />
<path stroke="#000000" stroke-width="2" d="M 918.4,40 918.6,40 918.6,40.2 918.4,40.2 918.4,40" />
<path stroke="#000000" stroke-width="2" d="M 925.2,70" />
<path stroke="#000000" stroke-width="2" d="M 925.2,30 925.2,70 936.6,58.7" />
<path stroke="#000000" stroke-width="2" d="M 943.2,70" />
<path stroke="#000000" stroke-width="2" d="M 948.2,30 943.2,30 943.2,50 943.2,49.3 943.3,48.6 943.4,47.9 943.6,47.2 943.8,46.6 944.1,46 944.5,45.4 944.9,44.8 945.3,44.2 945.8,43.8 946.3,43.3 946.9,42.9 947.5,42.6 948.1,42.3 948.8,42 949.5,41.8 950.2,41.7 950.9,41.7 951.6,41.7 952.3,41.7 952.9,41.8 953.6,42 954.3,42.3 954.9,42.6 955.5,42.9 956.1,43.3 956.6,43.8 957.1,44.2 957.6,44.8 958,45.4 958.3,46 958.6,46.6 958.8,47.2 959,47.9 959.1,48.6 959.2,49.3" />
<path stroke="#000000" stroke-width="2" d="M 965.9,70" />
<path stroke="#000000" stroke-width="2" d="M 965.9,20 966.7,20 967.6,20.1 968.5,20.2 969.3,20.5 970.1,20.8 970.9,21.1 971.7,21.6 972.4,22.1 973.1,22.6 973.7,23.2 974.2,23.9 974.7,24.6 975.2,25.4 975.5,26.2 975.8,27 976.1,27.8 976.2,28.7 976.3,29.6 976.3,30.4 976.2,31.3 976.1,32.2 975.8,33 975.5,33.8 975.2,34.6 974.7,35.4 974.2,36.1 973.7,36.7 973.1,37.4 972.4,37.9 971.7,38.4 970.9,38.9 970.1,39.2 969.3,39.5 968.5,39.8 967.6,39.9 966.7,40" />
<path stroke="#000000" stroke-width="2" d="M 1006.3,70" />
<path stroke="#000000" stroke-width="2" d="M 1006.3,30 1021.6,67" />
<path stroke="#000000" stroke-width="2" d="M 1028.3,70" />
<path stroke="#000000" stroke-width="2" d="M 1028.3,20 1028.3,40 1028.3,34 1028.3,33.1 1028.3,32.3 1028.5,31.4 1028.7,30.6 1029,29.7 1029.4,28.9 1029.8,28.2 1030.3,27.5 1030.9,26.8 1031.5,26.2 1032.2,25.6 1032.9,25.1 1033.6,24.7 1034.4,24.3 1035.3,24 1036.1,23.8 1037,23.6 1037.8,23.6" />
<path stroke="#000000" stroke-width="2" d="M 1044.5,70" />
<path stroke="#000000" stroke-width="2" d="M 1044.5,20 1044.7,20 1044.7,20.2 1044.5,20.2 1044.5,20" />
<path stroke="#000000" stroke-width="2" d="M 1074.7,70" />
<path stroke="#000000" stroke-width="2" d="M 1084.7,30 1083.8,30 1082.9,30.1 1082.1,30.2 1081.2,30.5 1080.4,30.8 1079.6,31.1 1078.9,31.6 1078.2,32.1 1077.5,32.6 1076.9,33.2 1076.3,33.9 1075.8,34.6 1075.4,35.4 1075,36.2 1074.7,37 1074.5,37.8 1074.3,38.7 1074.3,39.6 1074.3,40.4 1074.3,41.3 1074.5,42.2 1074.7,43 1075,43.8 1075.4,44.6 1075.8,45.4 1076.3,46.1 1076.9,46.7 1077.5,47.4 1078.2,47.9 1078.9,48.4 1079.6,48.9 1080.4,49.2 1081.2,49.5 1082.1,49.8 1082.9,49.9 1083.8,50 1088.8,50 1088.8,70" />
<path stroke="#000000" stroke-width="2" d="M 1118.8,70" />
<path stroke="#000000" stroke-width="2" d="M 1118.8,30 1120.6,30 1122.3,30.2 1124,30.5 1125.7,30.9 1127.3,31.5 1128.9,32.2 1130.4,33.1 1131.9,34.1 1133.2,35.2 1134.4,36.5 1135.6,37.8 1136.6,39.2 1137.4,40.7 1138.2,42.3 1138.8,44 1139.2,45.7 1139.5,47.4 1139.7,49.1 1139.7,50.9 1139.5,52.6 1139.2,54.3 1138.8,56 1138.2,57.6 1137.4,59.2 1136.6,60.7 1135.6,62.2 1134.4,63.5 1133.2,64.7 1131.9,65.8 1130.4,66.8 1128.9,67.7 1127.3,68.5 1125.7,69.1 1124,69.5 1122.3,69.8 1120.6,70" />
<path stroke="#000000" stroke-width="2" d="M 1146.3,70" />
<path stroke="#000000" stroke-width="2" d="M 1146.3,20 1146.3,40 1146.3,34 1146.3,33.1 1146.4,32.3 1146.6,31.4 1146.8,30.6 1147.1,29.7 1147.5,28.9 1147.9,28.2 1148.4,27.5 1149,26.8 1149.6,26.2 1150.2,25.6 1151,25.1 1151.7,24.7 1152.5,24.3 1153.3,24 1154.2,23.8 1155,23.6 1155.9,23.6 1155.9,22.9 1156,22.2 1156.1,21.5 1156.3,20.8 1156.5,20.2 1156.8,19.5 1157.1,18.9 1157.5,18.4 1158,17.8 1158.5,17.3 1159,16.9 1159.6,16.5 1160.2,16.1 1160.8,15.8 1161.5,15.6 1162.2,15.4 1162.8,15.3 1163.5,15.2 1164.2,15.2 1164.9,15.3 1165.6,15.4 1166.3,15.6 1166.9,15.8 1167.6,16.1 1168.2,16.5 1168.8,16.9 1169.3,17.3 1169.8,17.8 1170.2,18.4 1170.6,18.9 1171,19.5 1171.3,20.2 1171.5,20.8 1171.7,21.5 1171.8,22.2 1171.9,22.9 1191.9,22.9" />
<path stroke="#000000" stroke-width="2" d="M 1198.5,70" />
<path stroke="#000000" stroke-width="2" d="M 1198.5,25" />
<path stroke="#000000" stroke-width="2" d="M 1198.5,25 1200.6,24.9 1202.2,24.6 1203.4,24.1 1204.3,23.6 1204.9,22.9 1205.2,22.2 1205.2,21.4 1205,20.7 1204.7,20 1204.2,19.4 1203.6,18.9 1202.9,18.5 1202.1,18.3 1201.4,18.4 1200.7,18.7 1200,19.2 1199.4,20.1 1198.9,21.4 1198.7,23 1198.5,25 1198.5,40" />
<path stroke="#000000" stroke-width="2" d="M 1198.5,40 1200.6,39.9 1202.2,39.6 1203.4,39.1 1204.3,38.6 1204.9,37.9 1205.2,37.2 1205.2,36.4 1205,35.7 1204.7,35 1204.2,34.4 1203.6,33.9 1202.9,33.5 1202.1,33.3 1201.4,33.4 1200.7,33.7 1200,34.2 1199.4,35.1 1198.9,36.4 1198.7,38 1198.5,40 1198.5,55" />
<path stroke="#000000" stroke-width="2" d="M 1235.2,70" />
<path stroke="#000000" stroke-width="2" d="M 1235.2,42 1236,42 1236,42.8 1235.2,42.8 1235.2,42" />
<path stroke="#000000" stroke-width="2" d="M 1235.2,58 1236,58 1236,58.8 1235.2,58.8 1235.2,58" />
<path stroke="#000000" stroke-width="2" d="M 1266,70" />
</svg>