<svg xmlns="http://www.w3.org/2000/svg" width="1103.1222001057629" height="93.30875" style="fill:none; stroke-linecap:round;">
    <rect width="100%" height="100%" fill="#FFFFFF" />
<path stroke="#000000" stroke-width="2" d="M 550,75" />
<path stroke="#000000" stroke-width="2" d="M 36,30 36,60" />
<path stroke="#000000" stroke-width="2" d="M 36,60 35.8,64.1 35.2,67.3 34.3,69.8 33.1,71.5 31.8,72.7 30.3,73.2 28.8,73.3 27.4,73 26,72.3 24.8,71.2 23.7,70 23,68.6 22.7,67.2 22.8,65.7 23.3,64.2 24.5,62.9 26.2,61.7 28.7,60.8 31.9,60.2 36,60" />
<path stroke="#000000" stroke-width="2" d="M 42.7,70" />
<path stroke="#000000" stroke-width="2" d="M 42.7,25" />
<path stroke="#000000" stroke-width="2" d="M 42.7,25 44.7,24.9 46.3,24.6 47.5,24.1 48.4,23.6 49,22.9 49.3,22.2 49.3,21.4 49.1,20.7 48.8,20 48.3,19.4 47.7,18.9 47,18.5 46.2,18.3 45.5,18.4 44.8,18.7 44.1,19.2 43.5,20.1 43.1,21.4 42.8,23 42.7,25 42.7,40 35,58.5" />
<path stroke="#000000" stroke-width="2" d="M 56,70" />
<path stroke="#000000" stroke-width="2" d="M 56,50 56.9,50 57.7,50.1 58.6,50.2 59.4,50.5 60.3,50.8 61,51.1 61.8,51.6 62.5,52.1 63.2,52.6 63.8,53.2 64.4,53.9 64.9,54.6 65.3,55.4 65.7,56.2 66,57 66.2,57.8 66.3,58.7 66.4,59.6 66.4,60.4 66.3,61.3 66.2,62.2 66,63 65.7,63.8 65.3,64.6 64.9,65.4 64.4,66.1 63.8,66.7 63.2,67.4 62.5,67.9 61.8,68.4 61,68.9 60.3,69.2 59.4,69.5 58.6,69.8 57.7,69.9 56.9,70" />
<path stroke="#000000" stroke-width="2" d="M 73.1,70" />
<path stroke="#000000" stroke-width="2" d="M 73.1,20 74,20 74.8,20.1 75.7,20.2 76.5,20.5 77.3,20.8 78.1,21.1 78.9,21.6 79.6,22.1 80.3,22.6 80.9,23.2 81.5,23.9 82,24.6 82.4,25.4 82.8,26.2 83.1,27 83.3,27.8 83.4,28.7 83.5,29.6 83.5,30.4 83.4,31.3 83.3,32.2 83.1,33 82.8,33.8 82.4,34.6 82,35.4 81.5,36.1 80.9,36.7 80.3,37.4 79.6,37.9 78.9,38.4 78.1,38.9 77.3,39.2 76.5,39.5 75.7,39.8 74.8,39.9 74,40" />
<path stroke="#000000" stroke-width="2" d="M 113.5,70" />
<path stroke="#000000" stroke-width="2" d="M 113.5,70 113.7,70 113.7,70.2 113.5,70.2 113.5,70" />
<path stroke="#000000" stroke-width="2" d="M 120.4,70" />
<path stroke="#000000" stroke-width="2" d="M 120.4,40" />
<path stroke="#000000" stroke-width="2" d="M 120.4,40 124.4,39.8 127.7,39.2 130.1,38.3 131.9,37.1 133,35.8 133.6,34.3 133.7,32.8 133.3,31.4 132.6,30 131.6,28.8 130.4,27.7 129,27 127.5,26.7 126,26.8 124.6,27.3 123.3,28.5 122.1,30.2 121.2,32.7 120.6,35.9 120.4,40 120.4,70" />
<path stroke="#000000" stroke-width="2" d="M 140.3,70" />
<path stroke="#000000" stroke-width="2" d="M 140.3,30 140.3,34 140.3,34.5 140.4,35 140.5,35.6 140.6,36.1 140.8,36.6 141,37 141.3,37.5 141.6,37.9 141.9,38.3 142.3,38.7 142.7,39 143.1,39.3 143.6,39.6 144,39.8 144.5,40 145,40.1 145.6,40.2 146.1,40.3 146.6,40.3 147.1,40.2 147.6,40.1 148.1,40 148.6,39.8 149.1,39.6 149.6,39.3 150,39 150.4,38.7 150.8,38.3 151.1,37.9 151.4,37.5 151.7,37 151.9,36.6 152.1,36.1 152.2,35.6 152.3,35 152.3,34.5 152.3,29.5 152.3,49.5 172.3,49.5" />
<path stroke="#000000" stroke-width="2" d="M 179,70" />
<path stroke="#000000" stroke-width="2" d="M 179,20 179,20.7 179.1,21.4 179.2,22.1 179.4,22.8 179.6,23.4 179.9,24 180.3,24.6 180.7,25.2 181.1,25.8 181.6,26.2 182.1,26.7 182.7,27.1 183.3,27.4 183.9,27.7 184.6,28 185.3,28.2 186,28.3 186.6,28.3 187.3,28.3 188,28.3 188.7,28.2 189.4,28 190.1,27.7 190.7,27.4 191.3,27.1 191.9,26.7 192.4,26.2 192.9,25.8 193.3,25.2 193.7,24.6 194.1,24 194.4,23.4 194.6,22.8 194.8,22.1 194.9,21.4 195,20.7" />
<path stroke="#000000" stroke-width="2" d="M 195,20.7 197,20.6 198.6,20.3 199.9,19.8 200.7,19.3 201.3,18.6 201.6,17.9 201.6,17.1 201.5,16.4 201.1,15.7 200.6,15.1 200,14.6 199.3,14.2 198.6,14 197.8,14.1 197.1,14.4 196.4,14.9 195.9,15.8 195.4,17.1 195.1,18.7 195,20.7 195,35.7" />
<path stroke="#000000" stroke-width="2" d="M 231.6,70" />
<path stroke="#000000" stroke-width="2" d="M 231.6,70 231.6,68.6 231.8,67.2 232,65.8 232.4,64.5 232.8,63.2 233.4,61.9 234.1,60.7 234.9,59.6 235.8,58.5 236.8,57.5 237.9,56.6 239,55.8 240.2,55.1 241.5,54.5 242.8,54 244.2,53.7 245.5,53.4 246.9,53.3 248.3,53.3 249.7,53.4 251.1,53.7 252.4,54 253.8,54.5 255,55.1 256.2,55.8 257.4,56.6 258.4,57.5 259.4,58.5 260.3,59.6 261.1,60.7 261.8,61.9 262.4,63.2 262.9,64.5 263.2,65.8 263.5,67.2 263.6,68.6" />
<path stroke="#000000" stroke-width="2" d="M 270.3,70" />
<path stroke="#000000" stroke-width="2" d="M 270.3,20 270.3,40 270.3,34 270.3,33.1 270.4,32.3 270.5,31.4 270.7,30.6 271,29.7 271.4,28.9 271.8,28.2 272.3,27.5 272.9,26.8 273.5,26.2 274.2,25.6 274.9,25.1 275.7,24.7 276.4,24.3 277.3,24 278.1,23.8 279,23.6 279.8,23.6 284.8,23.6 284.8,43.6" />
<path stroke="#000000" stroke-width="2" d="M 284.8,33.6" />
<path stroke="#000000" stroke-width="2" d="M 280.8,33.6 288.8,33.6" />
<path stroke="#000000" stroke-width="2" d="M 295.5,70" />
<path stroke="#000000" stroke-width="2" d="M 295.5,30 295.7,30 295.7,30.2 295.5,30.2 295.5,30" />
<path stroke="#000000" stroke-width="2" d="M 325.7,70" />
<path stroke="#000000" stroke-width="2" d="M 325.7,30 335.7,30 335.7,70" />
<path stroke="#000000" stroke-width="2" d="M 342.4,70" />
<path stroke="#000000" stroke-width="2" d="M 342.4,50 342.4,70 342.4,64 342.4,63.1 342.4,62.3 342.6,61.4 342.8,60.6 343.1,59.7 343.5,58.9 343.9,58.2 344.4,57.5 345,56.8 345.6,56.2 346.3,55.6 347,55.1 347.7,54.7 348.5,54.3 349.4,54 350.2,53.8 351.1,53.6 351.9,53.6" />
<path stroke="#000000" stroke-width="2" d="M 381.9,70" />
<path stroke="#000000" stroke-width="2" d="M 385.9,30 402.9,47" />
<path stroke="#000000" stroke-width="2" d="M 419.9,30 380.3,69.6" />
<path stroke="#000000" stroke-width="2" d="M 426.5,70" />
<path stroke="#000000" stroke-width="2" d="M 426.5,20 426.5,40 426.5,34 426.5,33.1 426.6,32.3 426.8,31.4 427,30.6 427.3,29.7 427.7,28.9 428.1,28.2 428.6,27.5 429.1,26.8 429.8,26.2 430.4,25.6 431.1,25.1 431.9,24.7 432.7,24.3 433.5,24 434.4,23.8 435.2,23.6 436.1,23.6" />
<path stroke="#000000" stroke-width="2" d="M 436.1,23.6 438.1,23.5 439.7,23.2 441,22.7 441.8,22.1 442.4,21.5 442.7,20.7 442.7,20 442.6,19.3 442.2,18.6 441.7,17.9 441.1,17.4 440.4,17.1 439.7,16.9 438.9,17 438.2,17.2 437.5,17.8 436.9,18.7 436.5,19.9 436.2,21.5 436.1,23.6 436.1,38.6" />
<path stroke="#000000" stroke-width="2" d="M 472.7,70" />
<path stroke="#000000" stroke-width="2" d="M 472.7,30 472.7,70 484.1,58.7" />
<path stroke="#000000" stroke-width="2" d="M 490.7,70" />
<path stroke="#000000" stroke-width="2" d="M 490.7,30 490.7,31.4 490.8,32.8 491.1,34.2 491.4,35.5 491.9,36.8 492.5,38.1 493.2,39.3 494,40.4 494.9,41.5 495.9,42.5 497,43.4 498.1,44.2 499.3,44.9 500.6,45.5 501.9,46 503.2,46.3 504.6,46.6 506,46.7 507.4,46.7 508.8,46.6 510.2,46.3 511.5,46 512.8,45.5 514.1,44.9 515.3,44.2 516.4,43.4 517.5,42.5 518.5,41.5 519.4,40.4 520.2,39.3 520.9,38.1 521.5,36.8 522,35.5 522.3,34.2 522.6,32.8 522.7,31.4" />
<path stroke="#000000" stroke-width="2" d="M 552.7,70" />
<path stroke="#000000" stroke-width="2" d="M 568.7,30 568.7,60" />
<path stroke="#000000" stroke-width="2" d="M 568.7,60 568.5,64.1 567.9,67.3 567,69.8 565.8,71.5 564.5,72.7 563,73.2 561.5,73.3 560,73 558.7,72.3 557.4,71.2 556.4,70 555.7,68.6 555.4,67.2 555.5,65.7 556,64.2 557.2,62.9 558.9,61.7 561.4,60.8 564.6,60.2 568.7,60" />
<path stroke="#000000" stroke-width="2" d="M 575.4,70" />
<path stroke="#000000" stroke-width="2" d="M 585.4,20 577.7,38.5 580,32.9 580.3,32.1 580.7,31.4 581.2,30.6 581.7,29.9 582.3,29.3 583,28.7 583.7,28.2 584.4,27.7 585.2,27.3 586,27 586.8,26.7 587.7,26.5" />
<path stroke="#000000" stroke-width="2" d="M 594.3,70" />
<path stroke="#000000" stroke-width="2" d="M 594.3,20 602,38.5 609.6,20 609.6,20.7 609.7,21.4 609.8,22.1 610,22.8 610.2,23.4 610.5,24 610.9,24.6 611.3,25.2 611.7,25.8 612.2,26.2 612.8,26.7 613.3,27.1 613.9,27.4 614.6,27.7 615.2,28 615.9,28.2 616.6,28.3 617.3,28.3 618,28.3 618.7,28.3 619.4,28.2 620,28 620.7,27.7 621.3,27.4 621.9,27.1 622.5,26.7 623,26.2 623.5,25.8 624,25.2 624.4,24.6 624.7,24 625,23.4 625.3,22.8 625.4,22.1 625.6,21.4 625.6,20.7 626.5,20.7 627.4,20.8 628.2,20.9 629.1,21.2 629.9,21.4 630.7,21.8 631.4,22.3 632.1,22.8 632.8,23.3 633.4,23.9 634,24.6 634.5,25.3 634.9,26.1 635.3,26.9 635.6,27.7 635.8,28.5 636,29.4 636,30.3 636,31.1 636,32 635.8,32.9 635.6,33.7 635.3,34.5 634.9,35.3 634.5,36.1 634,36.8 633.4,37.4 632.8,38.1 632.1,38.6 631.4,39.1 630.7,39.6 629.9,39.9 629.1,40.2 628.2,40.5 627.4,40.6 626.5,40.7" />
<path stroke="#000000" stroke-width="2" d="M 666,70" />
<path stroke="#000000" stroke-width="2" d="M 676,50 676.9,50 677.8,49.9 678.6,49.8 679.5,49.5 680.3,49.2 681.1,48.9 681.9,48.4 682.6,47.9 683.2,47.4 683.9,46.8 684.4,46.1 684.9,45.4 685.3,44.6 685.7,43.8 686,43 686.2,42.2 686.4,41.3 686.5,40.4 686.5,39.6 686.4,38.7 686.2,37.8 686,37 685.7,36.2 685.3,35.4 684.9,34.6 684.4,33.9 683.9,33.3 683.2,32.6 682.6,32.1 681.9,31.6 681.1,31.1 680.3,30.8 679.5,30.5 678.6,30.2 677.8,30.1 676.9,30 676,30 675.2,30.1 674.3,30.2 673.5,30.5 672.7,30.8 671.9,31.1 671.1,31.6 670.4,32.1 669.7,32.6 669.1,33.3 668.5,33.9 668,34.6 667.6,35.4 667.2,36.2 666.9,37 666.7,37.8 666.6,38.7 666.5,39.6 666.5,40.4 666.6,41.3 666.7,42.2 666.9,43 667.2,43.8 667.6,44.6 668,45.4 668.5,46.1 669.1,46.8 669.7,47.4 670.4,47.9 671.1,48.4 671.9,48.9 672.7,49.2 673.5,49.5 674.3,49.8 675.2,49.9 676,50 676,70 676,64 676,63.1 676.1,62.3 676.3,61.4 676.5,60.6 676.8,59.7 677.2,58.9 677.6,58.2 678.1,57.5 678.7,56.8 679.3,56.2 679.9,55.6 680.7,55.1 681.4,54.7 682.2,54.3 683,54 683.9,53.8 684.7,53.6 685.6,53.6" />
<path stroke="#000000" stroke-width="2" d="M 693.1,70" />
<path stroke="#000000" stroke-width="2" d="M 693.1,50 693.3,50 693.3,50.2 693.1,50.2 693.1,50" />
<path stroke="#000000" stroke-width="2" d="M 723.3,70" />
<path stroke="#000000" stroke-width="2" d="M 723.3,30 743.3,30 735.7,48.5 738,42.9 738.3,42.1 738.7,41.4 739.2,40.6 739.7,39.9 740.3,39.3 740.9,38.7 741.6,38.2 742.4,37.7 743.2,37.3 744,37 744.8,36.7 745.6,36.5" />
<path stroke="#000000" stroke-width="2" d="M 745.6,36.5 747.7,36.4 749.3,36.1 750.5,35.6 751.4,35.1 752,34.4 752.3,33.7 752.3,32.9 752.1,32.2 751.8,31.5 751.3,30.9 750.7,30.4 750,30 749.2,29.9 748.5,29.9 747.7,30.2 747.1,30.7 746.5,31.6 746,32.9 745.7,34.5 745.6,36.5 745.6,51.5 738,70" />
<path stroke="#000000" stroke-width="2" d="M 759,70" />
<path stroke="#000000" stroke-width="2" d="M 759,20 759,20.7 759,21.4 759.1,22.1 759.3,22.8 759.6,23.4 759.9,24 760.2,24.6 760.6,25.2 761.1,25.8 761.5,26.2 762.1,26.7 762.7,27.1 763.3,27.4 763.9,27.7 764.5,28 765.2,28.2 765.9,28.3 766.6,28.3 767.3,28.3 768,28.3 768.7,28.2 769.4,28 770,27.7 770.6,27.4 771.3,27.1 771.8,26.7 772.4,26.2 772.9,25.8 773.3,25.2 773.7,24.6 774,24 774.3,23.4 774.6,22.8 774.8,22.1 774.9,21.4 774.9,20.7" />
<path stroke="#000000" stroke-width="2" d="M 781.6,70" />
<path stroke="#000000" stroke-width="2" d="M 781.6,20 781.6,40 781.6,34 781.6,33.1 781.7,32.3 781.8,31.4 782.1,30.6 782.4,29.7 782.7,28.9 783.2,28.2 783.7,27.5 784.2,26.8 784.8,26.2 785.5,25.6 786.2,25.1 787,24.7 787.8,24.3 788.6,24 789.4,23.8 790.3,23.6 791.2,23.6" />
<path stroke="#000000" stroke-width="2" d="M 821.2,70" />
<path stroke="#000000" stroke-width="2" d="M 821.2,35" />
<path stroke="#000000" stroke-width="2" d="M 821.2,35 823.2,34.9 824.8,34.6 826,34.1 826.9,33.6 827.5,32.9 827.8,32.2 827.8,31.4 827.6,30.7 827.3,30 826.8,29.4 826.2,28.9 825.5,28.5 824.7,28.3 824,28.4 823.3,28.7 822.6,29.2 822,30.1 821.6,31.4 821.3,33 821.2,35 821.2,50" />
<path stroke="#000000" stroke-width="2" d="M 821.2,50 821.1,52 820.8,53.6 820.3,54.9 819.7,55.8 819.1,56.3 818.3,56.6 817.6,56.7 816.8,56.5 816.2,56.1 815.5,55.6 815,55 814.7,54.3 814.5,53.6 814.6,52.8 814.8,52.1 815.4,51.4 816.3,50.9 817.5,50.4 819.1,50.1 821.2,50 831.2,50" />
<path stroke="#000000" stroke-width="2" d="M 837.8,70" />
<path stroke="#000000" stroke-width="2" d="M 837.8,25" />
<path stroke="#000000" stroke-width="2" d="M 837.8,25 839.9,24.9 841.5,24.6 842.7,24.1 843.6,23.6 844.2,22.9 844.4,22.2 844.5,21.4 844.3,20.7 844,20 843.5,19.4 842.8,18.9 842.2,18.5 841.4,18.3 840.7,18.4 839.9,18.7 839.3,19.2 838.7,20.1 838.2,21.4 837.9,23 837.8,25 837.8,40" />
<path stroke="#000000" stroke-width="2" d="M 874.5,70" />
<path stroke="#000000" stroke-width="2" d="M 874.5,70 874.7,70 874.7,70.2 874.5,70.2 874.5,70" />
<path stroke="#000000" stroke-width="2" d="M 904.7,70" />
<path stroke="#000000" stroke-width="2" d="M 904.7,70 904.9,70 904.9,70.2 904.7,70.2 904.7,70" />
<path stroke="#000000" stroke-width="2" d="M 911.6,70" />
<path stroke="#000000" stroke-width="2" d="M 911.6,30 926.9,67" />
<path stroke="#000000" stroke-width="2" d="M 933.5,70" />
<path stroke="#000000" stroke-width="2" d="M 933.5,50 933.5,70 933.5,64 933.5,63.1 933.6,62.3 933.8,61.4 934,60.6 934.3,59.7 934.6,58.9 935.1,58.2 935.6,57.5 936.1,56.8 936.8,56.2 937.4,55.6 938.1,55.1 938.9,54.7 939.7,54.3 940.5,54 941.4,53.8 942.2,53.6 943.1,53.6" />
<path stroke="#000000" stroke-width="2" d="M 973.1,70" />
<path stroke="#000000" stroke-width="2" d="M 989.1,30 989.1,60" />
<path stroke="#000000" stroke-width="2" d="M 989.1,60 988.9,64.1 988.3,67.3 987.4,69.8 986.2,71.5 984.9,72.7 983.4,73.2 981.9,73.3 980.4,73 979.1,72.3 977.8,71.2 976.8,70 976.1,68.6 975.8,67.2 975.9,65.7 976.4,64.2 977.6,62.9 979.3,61.7 981.8,60.8 985,60.2 989.1,60" />
<path stroke="#000000" stroke-width="2" d="M 995.7,70" />
<path stroke="#000000" stroke-width="2" d="M 995.7,25" />
<path stroke="#000000" stroke-width="2" d="M 995.7,25 997.8,24.9 999.4,24.6 1000.6,24.1 1001.5,23.6 1002.1,22.9 1002.4,22.2 1002.4,21.4 1002.2,20.7 1001.9,20 1001.4,19.4 1000.8,18.9 1000.1,18.5 999.3,18.3 998.6,18.4 997.9,18.7 997.2,19.2 996.6,20.1 996.2,21.4 995.9,23 995.7,25 995.7,40" />
<path stroke="#000000" stroke-width="2" d="M 1009.1,70" />
<path stroke="#000000" stroke-width="2" d="M 1009.1,20 1009.1,40 1014.7,34.3" />
<path stroke="#000000" stroke-width="2" d="M 1044.7,70" />
<path stroke="#000000" stroke-width="2" d="M 1044.7,70 1044.9,70 1044.9,70.2 1044.7,70.2 1044.7,70" />
<path stroke="#000000" stroke-width="2" d="M 1051.6,70" />
<path stroke="#000000" stroke-width="2" d="M 1051.6,30 1066.9,67" />
<path stroke="#000000" stroke-width="2" d="M 1073.6,70" />
<path stroke="#000000" stroke-width="2" d="M 1073.6,50 1073.6,70 1073.6,64 1073.6,63.1 1073.6,62.3 1073.8,61.4 1074,60.6 1074.3,59.7 1074.7,58.9 1075.1,58.2 1075.6,57.5 1076.2,56.8 1076.8,56.2 1077.5,55.6 1078.2,55.1 1078.9,54.7 1079.7,54.3 1080.6,54 1081.4,53.8 1082.3,53.6 1083.1,53.6" />
<path stroke="#000000" stroke-width="2" d="M 1113.1,70" />
</svg>