<svg xmlns="http://www.w3.org/2000/svg" width="372.74465246836667" height="90.0" style="fill:none; stroke-linecap:round;">
    <rect width="100%" height="100%" fill="#FFFFFF" />
<path stroke="#000000" stroke-width="2" d="M 550,75" />
<path stroke="#000000" stroke-width="2" d="M 20,70 35.3,33 75.3,33" />
<path stroke="#000000" stroke-width="2" d="M 82,70" />
<path stroke="#000000" stroke-width="2" d="M 92,30 91.1,30 90.2,30.1 89.4,30.2 88.5,30.5 87.7,30.8 86.9,31.1 86.2,31.6 85.5,32.1 84.8,32.6 84.2,33.2 83.6,33.9 83.1,34.6 82.7,35.4 82.3,36.2 82,37 81.8,37.8 81.6,38.7 81.5,39.6 81.5,40.4 81.6,41.3 81.8,42.2 82,43 82.3,43.8 82.7,44.6 83.1,45.4 83.6,46.1 84.2,46.7 84.8,47.4 85.5,47.9 86.2,48.4 86.9,48.9 87.7,49.2 88.5,49.5 89.4,49.8 90.2,49.9 91.1,50 111.1,50" />
<path stroke="#000000" stroke-width="2" d="M 111.1,50 113.1,49.9 114.7,49.6 116,49.1 116.9,48.5 117.4,47.9 117.7,47.1 117.8,46.4 117.6,45.7 117.2,45 116.7,44.4 116.1,43.9 115.4,43.5 114.7,43.3 113.9,43.4 113.2,43.7 112.5,44.2 112,45.1 111.5,46.3 111.2,48 111.1,50 111.1,65" />
<path stroke="#000000" stroke-width="2" d="M 147.8,70" />
<path stroke="#000000" stroke-width="2" d="M 149.8,50 155.1,37.1 155.2,36.7 155.4,36.4 155.4,36.1 155.5,35.7 155.5,35.4 155.5,35 155.4,34.7 155.4,34.3 155.2,34 155.1,33.7 155,33.4 154.8,33.1 154.6,32.8 154.3,32.5 154.1,32.3 153.8,32.1 153.5,31.9 153.2,31.7 152.9,31.6 152.5,31.5 152.2,31.4 151.8,31.4 151.5,31.4 151.1,31.4 150.8,31.4 150.5,31.5 150.1,31.6 149.8,31.7 149.5,31.9 149.2,32.1 148.9,32.3 148.7,32.5 148.4,32.8 148.2,33.1 148,33.4 147.9,33.7 147.7,34 147.6,34.3 147.5,34.7 147.5,35 147.5,35.4 147.5,35.7 147.5,36.1 147.6,36.4 147.7,36.7 147.9,37.1 148,37.4 148.2,37.7 148.4,37.9 148.7,38.2 148.9,38.4 149.2,38.7 149.5,38.8 149.8,39 150.1,39.1 150.5,39.2 150.8,39.3 151.1,39.4 151.5,39.4 151.8,39.4 164.8,34 172.4,52.5 180.1,34 200.1,34" />
<path stroke="#000000" stroke-width="2" d="M 230.1,70" />
<path stroke="#000000" stroke-width="2" d="M 246.1,30 226.3,49.8 246.1,69.6" />
<path stroke="#000000" stroke-width="2" d="M 252.7,70" />
<path stroke="#000000" stroke-width="2" d="M 252.7,20 252.7,40 252.7,34 252.7,33.1 252.8,32.3 253,31.4 253.2,30.6 253.5,29.7 253.9,28.9 254.3,28.2 254.8,27.5 255.4,26.8 256,26.2 256.6,25.6 257.4,25.1 258.1,24.7 258.9,24.3 259.7,24 260.6,23.8 261.4,23.6 262.3,23.6" />
<path stroke="#000000" stroke-width="2" d="M 292.3,70" />
<path stroke="#000000" stroke-width="2" d="M 292.3,30 292.3,70 292.3,58 292.3,56.3 292.5,54.5 292.8,52.8 293.2,51.1 293.8,49.5 294.5,47.9 295.4,46.4 296.4,45 297.5,43.6 298.8,42.4 300.1,41.3 301.5,40.3 303,39.4 304.6,38.7 306.3,38.1 308,37.6 309.7,37.3 311.4,37.1" />
<path stroke="#000000" stroke-width="2" d="M 318.1,70" />
<path stroke="#000000" stroke-width="2" d="M 328.1,30 320.4,48.5 340.4,48.5" />
<path stroke="#000000" stroke-width="2" d="M 347.1,70" />
<path stroke="#000000" stroke-width="2" d="M 347.1,50 347.1,70 352.7,64.3" />
<path stroke="#000000" stroke-width="2" d="M 382.7,70" />
</svg>