<svg xmlns="http://www.w3.org/2000/svg" width="1225.379003516999" height="98.67091005298957" style="fill:none; stroke-linecap:round;">
    <rect width="100%" height="100%" fill="#FFFFFF" />
<path stroke="#000000" stroke-width="2" d="M 550,75" />
<path stroke="#000000" stroke-width="2" d="M 20,30 60,30" />
<path stroke="#000000" stroke-width="2" d="M 66.7,70" />
<path stroke="#000000" stroke-width="2" d="M 66.7,20 74.3,38.5" />
<path stroke="#000000" stroke-width="2" d="M 81,70" />
<path stroke="#000000" stroke-width="2" d="M 81,20" />
<path stroke="#000000" stroke-width="2" d="M 81,20 82.4,20.1 83.7,20.6 84.8,21.2 85.8,22.1 86.6,23.1 87.3,24.3 87.8,25.6 88.2,27 88.4,28.5 88.5,30 88.4,31.5 88.2,33 87.8,34.4 87.3,35.7 86.6,36.9 85.8,37.9 84.8,38.8 83.7,39.4 82.4,39.9 81,40" />
<path stroke="#000000" stroke-width="2" d="M 118.5,70" />
<path stroke="#000000" stroke-width="2" d="M 118.5,30 118.5,70 118.5,58 118.5,56.3 118.6,54.5 118.9,52.8 119.4,51.1 120,49.5 120.7,47.9 121.6,46.4 122.6,45 123.7,43.6 125,42.4 126.3,41.3 127.7,40.3 129.2,39.4 130.8,38.7 132.5,38.1 134.1,37.6 135.9,37.3 137.6,37.1" />
<path stroke="#000000" stroke-width="2" d="M 144.3,70" />
<path stroke="#000000" stroke-width="2" d="M 144.3,20 164.3,20 164.3,40" />
<path stroke="#000000" stroke-width="2" d="M 170.9,70" />
<path stroke="#000000" stroke-width="2" d="M 170.9,50" />
<path stroke="#000000" stroke-width="2" d="M 170.9,50 172.4,50.1 173.6,50.6 174.8,51.2 175.7,52.1 176.6,53.1 177.2,54.3 177.8,55.6 178.1,57 178.4,58.5 178.4,60 178.4,61.5 178.1,63 177.8,64.4 177.2,65.7 176.6,66.9 175.7,67.9 174.8,68.8 173.6,69.4 172.4,69.9 170.9,70" />
<path stroke="#000000" stroke-width="2" d="M 185.1,70" />
<path stroke="#000000" stroke-width="2" d="M 193.1,20 193.1,35" />
<path stroke="#000000" stroke-width="2" d="M 193.1,35 193,37 192.7,38.6 192.2,39.9 191.7,40.8 191,41.3 190.3,41.6 189.5,41.7 188.8,41.5 188.1,41.1 187.5,40.6 187,40 186.6,39.3 186.4,38.6 186.5,37.8 186.8,37.1 187.3,36.4 188.2,35.9 189.5,35.4 191.1,35.1 193.1,35" />
<path stroke="#000000" stroke-width="2" d="M 223.1,70" />
<path stroke="#000000" stroke-width="2" d="M 223.1,35" />
<path stroke="#000000" stroke-width="2" d="M 223.1,35 225.1,34.9 226.7,34.6 228,34.1 228.9,33.6 229.4,32.9 229.7,32.2 229.7,31.4 229.6,30.7 229.2,30 228.7,29.4 228.1,28.9 227.4,28.5 226.7,28.3 225.9,28.4 225.2,28.7 224.5,29.2 224,30.1 223.5,31.4 223.2,33 223.1,35 223.1,50 215.4,68.5" />
<path stroke="#000000" stroke-width="2" d="M 236.4,70" />
<path stroke="#000000" stroke-width="2" d="M 236.4,50" />
<path stroke="#000000" stroke-width="2" d="M 236.4,50 237.8,50.1 239.1,50.6 240.2,51.2 241.2,52.1 242,53.1 242.7,54.3 243.2,55.6 243.6,57 243.8,58.5 243.9,60 243.8,61.5 243.6,63 243.2,64.4 242.7,65.7 242,66.9 241.2,67.9 240.2,68.8 239.1,69.4 237.8,69.9 236.4,70" />
<path stroke="#000000" stroke-width="2" d="M 273.9,70" />
<path stroke="#000000" stroke-width="2" d="M 283.9,30" />
<path stroke="#000000" stroke-width="2" d="M 283.9,30 281.1,30.3 278.5,31.1 276.3,32.4 274.3,34.2 272.7,36.2 271.3,38.6 270.3,41.3 269.5,44.1 269.1,47 268.9,50 269.1,53 269.5,55.9 270.3,58.7 271.3,61.4 272.7,63.8 274.3,65.8 276.3,67.6 278.5,68.9 281.1,69.7 283.9,70" />
<path stroke="#000000" stroke-width="2" d="M 283.9,50" />
<path stroke="#000000" stroke-width="2" d="M 251.9,50 291.9,50" />
<path stroke="#000000" stroke-width="2" d="M 321.9,70" />
<path stroke="#000000" stroke-width="2" d="M 321.9,70 337.2,33 337.2,41 337.2,42.1 337.3,43.1 337.5,44.2 337.8,45.2 338.1,46.2 338.6,47.1 339.1,48 339.7,48.9 340.4,49.7 341.1,50.4 341.9,51.1 342.8,51.7 343.7,52.2 344.6,52.7 345.6,53 346.6,53.3 347.6,53.5 348.7,53.6 349.7,53.6 350.8,53.5 351.8,53.3 352.8,53 353.8,52.7 354.8,52.2 355.7,51.7 356.5,51.1 357.3,50.4 358.1,49.7 358.7,48.9 359.3,48 359.9,47.1 360.3,46.2 360.7,45.2 360.9,44.2 361.1,43.1 361.2,42.1 361.2,32.1 361.2,72.1" />
<path stroke="#000000" stroke-width="2" d="M 367.9,70" />
<path stroke="#000000" stroke-width="2" d="M 367.9,20 387.9,20" />
<path stroke="#000000" stroke-width="2" d="M 387.9,20 389.9,19.9 391.5,19.6 392.7,19.1 393.6,18.6 394.2,17.9 394.5,17.2 394.5,16.4 394.3,15.7 394,15 393.5,14.4 392.9,13.9 392.2,13.5 391.5,13.3 390.7,13.4 390,13.7 389.3,14.2 388.7,15.1 388.3,16.4 388,18 387.9,20 387.9,35 380.2,53.5" />
<path stroke="#000000" stroke-width="2" d="M 424.5,70" />
<path stroke="#000000" stroke-width="2" d="M 424.5,70 424.7,70 424.7,70.2 424.5,70.2 424.5,70" />
<path stroke="#000000" stroke-width="2" d="M 431.4,70" />
<path stroke="#000000" stroke-width="2" d="M 431.4,30" />
<path stroke="#000000" stroke-width="2" d="M 431.4,30 434.2,30.3 436.8,31.1 439,32.4 441,34.2 442.6,36.2 444,38.6 445,41.3 445.8,44.1 446.2,47 446.4,50 446.2,53 445.8,55.9 445,58.7 444,61.4 442.6,63.8 441,65.8 439,67.6 436.8,68.9 434.2,69.7 431.4,70" />
<path stroke="#000000" stroke-width="2" d="M 453.1,70" />
<path stroke="#000000" stroke-width="2" d="M 461.1,20" />
<path stroke="#000000" stroke-width="2" d="M 461.1,20 460.9,22 460.7,23.6 460.2,24.9 459.6,25.8 458.9,26.3 458.2,26.6 457.5,26.7 456.7,26.5 456,26.1 455.4,25.6 454.9,25 454.6,24.3 454.4,23.6 454.4,22.8 454.7,22.1 455.3,21.4 456.2,20.9 457.4,20.4 459,20.1 461.1,20 471.1,20" />
<path stroke="#000000" stroke-width="2" d="M 501.1,70" />
<path stroke="#000000" stroke-width="2" d="M 501.1,30 501.1,38 501.1,39 501.1,40.1 501.3,41.1 501.6,42.1 502,43.1 502.4,44.1 502.9,45 503.5,45.8 504.2,46.6 504.9,47.4 505.7,48 506.6,48.6 507.5,49.2 508.5,49.6 509.4,50 510.4,50.2 511.5,50.4 512.5,50.5 513.6,50.5 514.6,50.4 515.6,50.2 516.7,50 517.6,49.6 518.6,49.2 519.5,48.6 520.3,48 521.2,47.4 521.9,46.6 522.6,45.8 523.2,45 523.7,44.1 524.1,43.1 524.5,42.1 524.8,41.1 524.9,40.1 525,39 525,29 525,69 525,67.3 525.2,65.6 525.5,63.8 525.9,62.2 526.5,60.5 527.3,58.9 528.1,57.4 529.1,56 530.3,54.7 531.5,53.4 532.8,52.3 534.3,51.3 535.8,50.4 537.4,49.7 539,49.1 540.7,48.6 542.4,48.3 544.1,48.2" />
<path stroke="#000000" stroke-width="2" d="M 550.8,70" />
<path stroke="#000000" stroke-width="2" d="M 550.8,20 570.8,20" />
<path stroke="#000000" stroke-width="2" d="M 600.8,70" />
<path stroke="#000000" stroke-width="2" d="M 605.8,30" />
<path stroke="#000000" stroke-width="2" d="M 605.8,30 604.4,30.1 603.1,30.6 602,31.2 601,32.1 600.2,33.1 599.5,34.3 599,35.6 598.6,37 598.4,38.5 598.3,40 598.4,41.5 598.6,43 599,44.4 599.5,45.7 600.2,46.9 601,47.9 602,48.8 603.1,49.4 604.4,49.9 605.8,50 610.8,50 610.8,70" />
<path stroke="#000000" stroke-width="2" d="M 640.8,70" />
<path stroke="#000000" stroke-width="2" d="M 640.8,70 641,70 641,70.2 640.8,70.2 640.8,70" />
<path stroke="#000000" stroke-width="2" d="M 647.7,70" />
<path stroke="#000000" stroke-width="2" d="M 647.7,30 647.7,38 647.7,39 647.8,40.1 647.9,41.1 648.2,42.1 648.6,43.1 649,44.1 649.5,45 650.1,45.8 650.8,46.6 651.6,47.4 652.4,48 653.2,48.6 654.1,49.2 655.1,49.6 656.1,50 657.1,50.2 658.1,50.4 659.1,50.5 660.2,50.5 661.2,50.4 662.3,50.2 663.3,50 664.3,49.6 665.2,49.2 666.1,48.6 667,48 667.8,47.4 668.5,46.6 669.2,45.8 669.8,45 670.3,44.1 670.7,43.1 671.1,42.1 671.4,41.1 671.6,40.1 671.7,39 671.7,29 671.7,69 671.7,67.3 671.8,65.6 672.1,63.8 672.6,62.2 673.2,60.5 673.9,58.9 674.8,57.4 675.8,56 676.9,54.7 678.1,53.4 679.5,52.3 680.9,51.3 682.4,50.4 684,49.7 685.6,49.1 687.3,48.6 689,48.3 690.8,48.2" />
<path stroke="#000000" stroke-width="2" d="M 697.4,70" />
<path stroke="#000000" stroke-width="2" d="M 697.4,25" />
<path stroke="#000000" stroke-width="2" d="M 697.4,25 699.5,24.9 701.1,24.6 702.3,24.1 703.2,23.6 703.8,22.9 704,22.2 704.1,21.4 703.9,20.7 703.6,20 703.1,19.4 702.4,18.9 701.7,18.5 701,18.3 700.3,18.4 699.5,18.7 698.9,19.2 698.3,20.1 697.8,21.4 697.5,23 697.4,25 697.4,40" />
<path stroke="#000000" stroke-width="2" d="M 734.1,70" />
<path stroke="#000000" stroke-width="2" d="M 734.1,70 734.3,70 734.3,70.2 734.1,70.2 734.1,70" />
<path stroke="#000000" stroke-width="2" d="M 764.3,70" />
<path stroke="#000000" stroke-width="2" d="M 780.3,30 780.3,60" />
<path stroke="#000000" stroke-width="2" d="M 780.3,60 780.1,64.1 779.5,67.3 778.6,69.8 777.4,71.5 776.1,72.7 774.6,73.2 773.1,73.3 771.6,73 770.3,72.3 769,71.2 768,70 767.3,68.6 767,67.2 767.1,65.7 767.6,64.2 768.8,62.9 770.5,61.7 773,60.8 776.2,60.2 780.3,60" />
<path stroke="#000000" stroke-width="2" d="M 786.9,70" />
<path stroke="#000000" stroke-width="2" d="M 786.9,20" />
<path stroke="#000000" stroke-width="2" d="M 786.9,20 788.4,20.1 789.6,20.6 790.8,21.2 791.7,22.1 792.6,23.1 793.2,24.3 793.8,25.6 794.1,27 794.4,28.5 794.4,30 794.4,31.5 794.1,33 793.8,34.4 793.2,35.7 792.6,36.9 791.7,37.9 790.8,38.8 789.6,39.4 788.4,39.9 786.9,40" />
<path stroke="#000000" stroke-width="2" d="M 824.4,70" />
<path stroke="#000000" stroke-width="2" d="M 824.4,30 829.4,30 829.4,50 829.4,50.7 829.5,51.4 829.6,52.1 829.8,52.8 830,53.4 830.3,54 830.7,54.6 831.1,55.2 831.5,55.8 832,56.2 832.6,56.7 833.1,57.1 833.7,57.4 834.4,57.7 835,58 835.7,58.2 836.4,58.3 837.1,58.3 837.8,58.3 838.5,58.3 839.2,58.2 839.8,58 840.5,57.7 841.1,57.4 841.7,57.1 842.3,56.7 842.8,56.2 843.3,55.8 843.8,55.2 844.2,54.6 844.5,54 844.8,53.4 845.1,52.8 845.3,52.1 845.4,51.4 845.4,50.7" />
<path stroke="#000000" stroke-width="2" d="M 852.1,70" />
<path stroke="#000000" stroke-width="2" d="M 860.1,50" />
<path stroke="#000000" stroke-width="2" d="M 860.1,50 860,52 859.7,53.6 859.2,54.9 858.7,55.8 858,56.3 857.3,56.6 856.5,56.7 855.8,56.5 855.1,56.1 854.5,55.6 854,55 853.6,54.3 853.4,53.6 853.5,52.8 853.8,52.1 854.3,51.4 855.2,50.9 856.5,50.4 858.1,50.1 860.1,50 870.1,50" />
<path stroke="#000000" stroke-width="2" d="M 870.1,50 871.5,50.1 872.8,50.6 873.9,51.2 874.9,52.1 875.7,53.1 876.4,54.3 876.9,55.6 877.3,57 877.5,58.5 877.6,60 877.5,61.5 877.3,63 876.9,64.4 876.4,65.7 875.7,66.9 874.9,67.9 873.9,68.8 872.8,69.4 871.5,69.9 870.1,70" />
<path stroke="#000000" stroke-width="2" d="M 907.6,70" />
<path stroke="#000000" stroke-width="2" d="M 907.6,30" />
<path stroke="#000000" stroke-width="2" d="M 907.6,30 910.4,30.3 913,31.1 915.2,32.4 917.2,34.2 918.8,36.2 920.2,38.6 921.2,41.3 922,44.1 922.4,47 922.6,50 922.4,53 922,55.9 921.2,58.7 920.2,61.4 918.8,63.8 917.2,65.8 915.2,67.6 913,68.9 910.4,69.7 907.6,70" />
<path stroke="#000000" stroke-width="2" d="M 929.3,70" />
<path stroke="#000000" stroke-width="2" d="M 929.3,50 929.3,70 934.9,64.3 954.9,64.3" />
<path stroke="#000000" stroke-width="2" d="M 984.9,70" />
<path stroke="#000000" stroke-width="2" d="M 1000.9,30 981.1,49.8 1000.9,69.6" />
<path stroke="#000000" stroke-width="2" d="M 1007.6,70" />
<path stroke="#000000" stroke-width="2" d="M 1007.6,20 1007.6,20.7 1007.7,21.4 1007.8,22.1 1008,22.8 1008.2,23.4 1008.5,24 1008.8,24.6 1009.2,25.2 1009.7,25.8 1010.2,26.2 1010.7,26.7 1011.3,27.1 1011.9,27.4 1012.5,27.7 1013.2,28 1013.9,28.2 1014.5,28.3 1015.2,28.3 1015.9,28.3 1016.6,28.3 1017.3,28.2 1018,28 1018.6,27.7 1019.3,27.4 1019.9,27.1 1020.5,26.7 1021,26.2 1021.5,25.8 1021.9,25.2 1022.3,24.6 1022.7,24 1023,23.4 1023.2,22.8 1023.4,22.1 1023.5,21.4 1023.6,20.7 1028.6,20.7 1028.6,40.7" />
<path stroke="#000000" stroke-width="2" d="M 1058.6,70" />
<path stroke="#000000" stroke-width="2" d="M 1058.6,70 1086.9,41.7 1071.6,78.7" />
<path stroke="#000000" stroke-width="2" d="M 1093.5,70" />
<path stroke="#000000" stroke-width="2" d="M 1101.5,50" />
<path stroke="#000000" stroke-width="2" d="M 1101.5,50 1101.4,52 1101.1,53.6 1100.7,54.9 1100.1,55.8 1099.4,56.3 1098.7,56.6 1097.9,56.7 1097.2,56.5 1096.5,56.1 1095.9,55.6 1095.4,55 1095,54.3 1094.9,53.6 1094.9,52.8 1095.2,52.1 1095.8,51.4 1096.6,50.9 1097.9,50.4 1099.5,50.1 1101.5,50 1111.5,50" />
<path stroke="#000000" stroke-width="2" d="M 1141.5,70" />
<path stroke="#000000" stroke-width="2" d="M 1141.5,70 1141.7,70 1141.7,70.2 1141.5,70.2 1141.5,70" />
<path stroke="#000000" stroke-width="2" d="M 1148.4,70" />
<path stroke="#000000" stroke-width="2" d="M 1164.4,30 1144.6,49.8 1164.4,69.6" />
<path stroke="#000000" stroke-width="2" d="M 1171.1,70" />
<path stroke="#000000" stroke-width="2" d="M 1171.1,50 1178.7,68.5" />
<path stroke="#000000" stroke-width="2" d="M 1185.4,70" />
<path stroke="#000000" stroke-width="2" d="M 1185.4,20 1205.4,20" />
<path stroke="#000000" stroke-width="2" d="M 1235.4,70" />
</svg>