<svg xmlns="http://www.w3.org/2000/svg" width="368.61704021567334" height="90.0" style="fill:none; stroke-linecap:round;">
    <rect width="100%" height="100%" fill="#FFFFFF" />
<path stroke="#000000" stroke-width="2" d="M 550,75" />
<path stroke="#000000" stroke-width="2" d="M 20,70 35.3,33 75.3,33" />
<path stroke="#000000" stroke-width="2" d="M 82,70" />
<path stroke="#000000" stroke-width="2" d="M 87,30" />
<path stroke="#000000" stroke-width="2" d="M 87,30 85.5,30.1 84.3,30.6 83.1,31.2 82.2,32.1 81.3,33.1 80.7,34.3 80.1,35.6 79.8,37 79.5,38.5 79.5,40 79.5,41.5 79.8,43 80.1,44.4 80.7,45.7 81.3,46.9 82.2,47.9 83.1,48.8 84.3,49.4 85.5,49.9 87,50 107,50" />
<path stroke="#000000" stroke-width="2" d="M 107,50 109,49.9 110.6,49.6 111.9,49.1 112.7,48.6 113.3,47.9 113.6,47.2 113.6,46.4 113.5,45.7 113.1,45 112.6,44.4 112,43.9 111.3,43.5 110.6,43.3 109.8,43.4 109.1,43.7 108.4,44.2 107.8,45.1 107.4,46.4 107.1,48 107,50 107,65" />
<path stroke="#000000" stroke-width="2" d="M 143.6,70" />
<path stroke="#000000" stroke-width="2" d="M 145.6,50 151,37.1 151.1,36.7 151.2,36.4 151.3,36.1 151.3,35.7 151.4,35.4 151.3,35 151.3,34.7 151.2,34.3 151.1,34 151,33.7 150.8,33.4 150.6,33.1 150.4,32.8 150.2,32.5 149.9,32.3 149.7,32.1 149.4,31.9 149.1,31.7 148.7,31.6 148.4,31.5 148.1,31.4 147.7,31.4 147.4,31.4 147,31.4 146.7,31.4 146.3,31.5 146,31.6 145.7,31.7 145.4,31.9 145.1,32.1 144.8,32.3 144.5,32.5 144.3,32.8 144.1,33.1 143.9,33.4 143.7,33.7 143.6,34 143.5,34.3 143.4,34.7 143.4,35 143.4,35.4 143.4,35.7 143.4,36.1 143.5,36.4 143.6,36.7 143.7,37.1 143.9,37.4 144.1,37.7 144.3,37.9 144.5,38.2 144.8,38.4 145.1,38.7 145.4,38.8 145.7,39 146,39.1 146.3,39.2 146.7,39.3 147,39.4 147.4,39.4 147.7,39.4 160.6,34 168.3,52.5 176,34 196,34" />
<path stroke="#000000" stroke-width="2" d="M 226,70" />
<path stroke="#000000" stroke-width="2" d="M 242,30 222.2,49.8 242,69.6" />
<path stroke="#000000" stroke-width="2" d="M 248.6,70" />
<path stroke="#000000" stroke-width="2" d="M 248.6,20 248.6,40 248.6,34 248.6,33.1 248.7,32.3 248.8,31.4 249.1,30.6 249.4,29.7 249.7,28.9 250.2,28.2 250.7,27.5 251.2,26.8 251.9,26.2 252.5,25.6 253.2,25.1 254,24.7 254.8,24.3 255.6,24 256.4,23.8 257.3,23.6 258.2,23.6" />
<path stroke="#000000" stroke-width="2" d="M 288.2,70" />
<path stroke="#000000" stroke-width="2" d="M 288.2,30 288.2,70 288.2,58 288.2,56.3 288.3,54.5 288.6,52.8 289.1,51.1 289.7,49.5 290.4,47.9 291.3,46.4 292.3,45 293.4,43.6 294.6,42.4 296,41.3 297.4,40.3 298.9,39.4 300.5,38.7 302.1,38.1 303.8,37.6 305.5,37.3 307.3,37.1" />
<path stroke="#000000" stroke-width="2" d="M 313.9,70" />
<path stroke="#000000" stroke-width="2" d="M 323.9,30 316.3,48.5 336.3,48.5" />
<path stroke="#000000" stroke-width="2" d="M 343,70" />
<path stroke="#000000" stroke-width="2" d="M 343,50 343,70 348.6,64.3" />
<path stroke="#000000" stroke-width="2" d="M 378.6,70" />
</svg>