<svg xmlns="http://www.w3.org/2000/svg" width="1431.6231210286376" height="130.0677395031967" style="fill:none; stroke-linecap:round;">
    <rect width="100%" height="100%" fill="#FFFFFF" />
<path stroke="#000000" stroke-width="2" d="M 550,75" />
<path stroke="#000000" stroke-width="2" d="M 20,30 21.7,30 23.5,30.2 25.2,30.5 26.9,30.9 28.5,31.5 30.1,32.2 31.6,33.1 33,34.1 34.4,35.2 35.6,36.5 36.7,37.8 37.7,39.2 38.6,40.7 39.3,42.3 39.9,44 40.4,45.7 40.7,47.4 40.9,49.1 40.9,50.9 40.7,52.6 40.4,54.3 39.9,56 39.3,57.6 38.6,59.2 37.7,60.7 36.7,62.2 35.6,63.5 34.4,64.7 33,65.8 31.6,66.8 30.1,67.7 28.5,68.5 26.9,69.1 25.2,69.5 23.5,69.8 21.7,70" />
<path stroke="#000000" stroke-width="2" d="M 47.5,70" />
<path stroke="#000000" stroke-width="2" d="M 49.5,20 58,28.5" />
<path stroke="#000000" stroke-width="2" d="M 66.5,20 46.7,39.8" />
<path stroke="#000000" stroke-width="2" d="M 96.5,70" />
<path stroke="#000000" stroke-width="2" d="M 96.5,70" />
<path stroke="#000000" stroke-width="2" d="M 96.5,70 97.6,70 98.6,70.2 99.4,70.4 100.1,70.7 100.7,71 101.2,71.5 101.5,71.9 101.7,72.5 101.8,73.1 101.7,73.8 101.6,74.4 101.4,75.2 101.1,76 100.6,76.8 100.1,77.6 99.6,78.4 98.9,79.3 98.2,80.2 97.4,81.1 96.5,82" />
<path stroke="#000000" stroke-width="2" d="M 131.8,70" />
<path stroke="#000000" stroke-width="2" d="M 131.8,70 132,70 132,70.2 131.8,70.2 131.8,70" />
<path stroke="#000000" stroke-width="2" d="M 138.6,70" />
<path stroke="#000000" stroke-width="2" d="M 142.6,30 159.6,47" />
<path stroke="#000000" stroke-width="2" d="M 176.6,30 137,69.6 136.1,69.6 135.2,69.7 134.4,69.8 133.5,70.1 132.7,70.3 131.9,70.7 131.2,71.2 130.4,71.7 129.8,72.2 129.2,72.8 128.6,73.5 128.1,74.2 127.7,75 127.3,75.8 127,76.6 126.8,77.4 126.6,78.3 126.5,79.2 126.5,80 126.6,80.9 126.8,81.8 127,82.6 127.3,83.4 127.7,84.2 128.1,85 128.6,85.7 129.2,86.3 129.8,87 130.4,87.5 131.2,88 131.9,88.5 132.7,88.8 133.5,89.1 134.4,89.4 135.2,89.5 136.1,89.6 139.9,98.8" />
<path stroke="#000000" stroke-width="2" d="M 139.9,98.8 141.9,101 143.2,102.9 143.9,104.6 144.2,106 144.1,107.3 143.7,108.3 143,109.1 142.1,109.6 141,110 139.9,110.1 138.8,110 137.8,109.6 136.9,109.1 136.1,108.3 135.7,107.3 135.6,106 135.9,104.6 136.7,102.9 138,101 139.9,98.8 143.8,89.6 163.8,89.6 163.8,93.6 163.8,94.1 163.8,94.6 163.9,95.1 164,95.6 164.2,96.1 164.4,96.6 164.7,97.1 165,97.5 165.3,97.9 165.7,98.3 166.1,98.6 166.5,98.9 167,99.2 167.5,99.4 167.9,99.6 168.4,99.7 169,99.8 169.5,99.8 170,99.8 170.5,99.8 171,99.7 171.6,99.6 172,99.4 172.5,99.2 173,98.9 173.4,98.6 173.8,98.3 174.2,97.9 174.5,97.5 174.8,97.1 175.1,96.6 175.3,96.1 175.5,95.6 175.6,95.1 175.7,94.6 175.7,94.1 175.7,89.1 175.7,109.1" />
<path stroke="#000000" stroke-width="2" d="M 183.2,70" />
<path stroke="#000000" stroke-width="2" d="M 183.2,20 183.2,40 183.2,34 183.2,33.1 183.3,32.3 183.5,31.4 183.7,30.6 184,29.7 184.4,28.9 184.8,28.2 185.3,27.5 185.9,26.8 186.5,26.2 187.1,25.6 187.9,25.1 188.6,24.7 189.4,24.3 190.2,24 191.1,23.8 191.9,23.6 192.8,23.6" />
<path stroke="#000000" stroke-width="2" d="M 222.8,70" />
<path stroke="#000000" stroke-width="2" d="M 222.8,30 226.6,39.2" />
<path stroke="#000000" stroke-width="2" d="M 226.6,39.2 228.5,41.4 229.9,43.3 230.6,45 230.9,46.4 230.8,47.7 230.4,48.7 229.7,49.5 228.8,50 227.7,50.4 226.6,50.5 225.5,50.4 224.5,50 223.5,49.5 222.8,48.7 222.4,47.7 222.3,46.4 222.6,45 223.4,43.3 224.7,41.4 226.6,39.2 230.4,30 250.4,30" />
<path stroke="#000000" stroke-width="2" d="M 257.1,70" />
<path stroke="#000000" stroke-width="2" d="M 267.1,30 257.1,30 257.1,70" />
<path stroke="#000000" stroke-width="2" d="M 273.8,70" />
<path stroke="#000000" stroke-width="2" d="M 273.8,50 273.8,70 273.8,64 273.8,63.1 273.9,62.3 274,61.4 274.2,60.6 274.5,59.7 274.9,58.9 275.3,58.2 275.8,57.5 276.4,56.8 277,56.2 277.7,55.6 278.4,55.1 279.2,54.7 279.9,54.3 280.8,54 281.6,53.8 282.5,53.6 283.3,53.6 303.3,53.6" />
<path stroke="#000000" stroke-width="2" d="M 333.3,70" />
<path stroke="#000000" stroke-width="2" d="M 333.3,30 333.3,70 333.3,58 333.3,56.3 333.5,54.5 333.8,52.8 334.2,51.1 334.8,49.5 335.6,47.9 336.4,46.4 337.4,45 338.6,43.6 339.8,42.4 341.1,41.3 342.6,40.3 344.1,39.4 345.7,38.7 347.3,38.1 349,37.6 350.7,37.3 352.4,37.1" />
<path stroke="#000000" stroke-width="2" d="M 359.1,70" />
<path stroke="#000000" stroke-width="2" d="M 359.1,20 364.1,20 364.1,40" />
<path stroke="#000000" stroke-width="2" d="M 370.8,70" />
<path stroke="#000000" stroke-width="2" d="M 370.8,55" />
<path stroke="#000000" stroke-width="2" d="M 370.8,55 372.8,54.9 374.4,54.6 375.7,54.1 376.5,53.6 377.1,52.9 377.4,52.2 377.4,51.4 377.3,50.7 376.9,50 376.4,49.4 375.8,48.9 375.1,48.5 374.4,48.3 373.6,48.4 372.9,48.7 372.2,49.2 371.6,50.1 371.2,51.4 370.9,53 370.8,55 370.8,70" />
<path stroke="#000000" stroke-width="2" d="M 384.1,70" />
<path stroke="#000000" stroke-width="2" d="M 384.1,20 385,20 385.8,20.1 386.7,20.2 387.5,20.5 388.4,20.8 389.1,21.1 389.9,21.6 390.6,22.1 391.3,22.6 391.9,23.2 392.5,23.9 393,24.6 393.4,25.4 393.8,26.2 394.1,27 394.3,27.8 394.4,28.7 394.5,29.6 394.5,30.4 394.4,31.3 394.3,32.2 394.1,33 393.8,33.8 393.4,34.6 393,35.4 392.5,36.1 391.9,36.7 391.3,37.4 390.6,37.9 389.9,38.4 389.1,38.9 388.4,39.2 387.5,39.5 386.7,39.8 385.8,39.9 385,40" />
<path stroke="#000000" stroke-width="2" d="M 424.5,70" />
<path stroke="#000000" stroke-width="2" d="M 444.5,30 429.2,67" />
<path stroke="#000000" stroke-width="2" d="M 451.2,70" />
<path stroke="#000000" stroke-width="2" d="M 451.2,50 451.4,50 451.4,50.2 451.2,50.2 451.2,50" />
<path stroke="#000000" stroke-width="2" d="M 481.4,70" />
<path stroke="#000000" stroke-width="2" d="M 481.4,30 481.4,31.4 481.5,32.8 481.8,34.2 482.1,35.5 482.6,36.8 483.2,38.1 483.9,39.3 484.7,40.4 485.6,41.5 486.6,42.5 487.6,43.4 488.8,44.2 490,44.9 491.3,45.5 492.6,46 493.9,46.3 495.3,46.6 496.7,46.7 498.1,46.7 499.5,46.6 500.8,46.3 502.2,46 503.5,45.5 504.8,44.9 506,44.2 507.1,43.4 508.2,42.5 509.2,41.5 510.1,40.4 510.9,39.3 511.6,38.1 512.2,36.8 512.6,35.5 513,34.2 513.2,32.8 513.4,31.4" />
<path stroke="#000000" stroke-width="2" d="M 520,70" />
<path stroke="#000000" stroke-width="2" d="M 520,50 520,70 525.7,64.3" />
<path stroke="#000000" stroke-width="2" d="M 532.3,70" />
<path stroke="#000000" stroke-width="2" d="M 532.3,20 532.3,40 532.3,34 532.3,33.1 532.4,32.3 532.6,31.4 532.8,30.6 533.1,29.7 533.5,28.9 533.9,28.2 534.4,27.5 535,26.8 535.6,26.2 536.3,25.6 537,25.1 537.7,24.7 538.5,24.3 539.3,24 540.2,23.8 541,23.6 541.9,23.6" />
<path stroke="#000000" stroke-width="2" d="M 571.9,70" />
<path stroke="#000000" stroke-width="2" d="M 571.9,70 572.1,70 572.1,70.2 571.9,70.2 571.9,70" />
<path stroke="#000000" stroke-width="2" d="M 578.8,70" />
<path stroke="#000000" stroke-width="2" d="M 578.8,30 594.1,67" />
<path stroke="#000000" stroke-width="2" d="M 600.7,70" />
<path stroke="#000000" stroke-width="2" d="M 610.7,50 609.9,50 609,50.1 608.1,50.2 607.3,50.5 606.5,50.8 605.7,51.1 604.9,51.6 604.2,52.1 603.6,52.6 602.9,53.2 602.4,53.9 601.9,54.6 601.4,55.4 601.1,56.2 600.8,57 600.5,57.8 600.4,58.7 600.3,59.6 600.3,60.4 600.4,61.3 600.5,62.2 600.8,63 601.1,63.8 601.4,64.6 601.9,65.4 602.4,66.1 602.9,66.7 603.6,67.4 604.2,67.9 604.9,68.4 605.7,68.9 606.5,69.2 607.3,69.5 608.1,69.8 609,69.9 609.9,70 629.9,70" />
<path stroke="#000000" stroke-width="2" d="M 659.9,70" />
<path stroke="#000000" stroke-width="2" d="M 679.9,30 664.6,67" />
<path stroke="#000000" stroke-width="2" d="M 686.5,70" />
<path stroke="#000000" stroke-width="2" d="M 686.5,50 686.7,50 686.7,50.2 686.5,50.2 686.5,50" />
<path stroke="#000000" stroke-width="2" d="M 716.7,70" />
<path stroke="#000000" stroke-width="2" d="M 716.7,30 732,67" />
<path stroke="#000000" stroke-width="2" d="M 738.7,70" />
<path stroke="#000000" stroke-width="2" d="M 738.7,40 738.7,39.3 738.8,38.6 738.9,37.9 739.1,37.2 739.3,36.6 739.6,36 740,35.4 740.4,34.8 740.8,34.2 741.3,33.8 741.8,33.3 742.4,32.9 743,32.6 743.6,32.3 744.3,32 745,31.8 745.7,31.7 746.4,31.7 747.1,31.7 747.7,31.7 748.4,31.8 749.1,32 749.8,32.3 750.4,32.6 751,32.9 751.6,33.3 752.1,33.8 752.6,34.2 753.1,34.8 753.5,35.4 753.8,36 754.1,36.6 754.3,37.2 754.5,37.9 754.6,38.6 754.7,39.3" />
<path stroke="#000000" stroke-width="2" d="M 761.4,70" />
<path stroke="#000000" stroke-width="2" d="M 761.4,20 761.6,20 761.6,20.2 761.4,20.2 761.4,20" />
<path stroke="#000000" stroke-width="2" d="M 791.6,70" />
<path stroke="#000000" stroke-width="2" d="M 791.6,30 791.6,70 802.9,58.7" />
<path stroke="#000000" stroke-width="2" d="M 809.5,70" />
<path stroke="#000000" stroke-width="2" d="M 811.5,20 820,28.5" />
<path stroke="#000000" stroke-width="2" d="M 828.5,20 808.7,39.8" />
<path stroke="#000000" stroke-width="2" d="M 858.5,70" />
<path stroke="#000000" stroke-width="2" d="M 858.5,30 868.5,30 868.5,70" />
<path stroke="#000000" stroke-width="2" d="M 875.2,70" />
<path stroke="#000000" stroke-width="2" d="M 875.2,50 875.2,70 875.2,64 875.2,63.1 875.3,62.3 875.4,61.4 875.6,60.6 875.9,59.7 876.3,58.9 876.7,58.2 877.2,57.5 877.8,56.8 878.4,56.2 879.1,55.6 879.8,55.1 880.6,54.7 881.3,54.3 882.2,54 883,53.8 883.9,53.6 884.7,53.6" />
<path stroke="#000000" stroke-width="2" d="M 914.7,70" />
<path stroke="#000000" stroke-width="2" d="M 914.7,70 914.9,70 914.9,70.2 914.7,70.2 914.7,70" />
<path stroke="#000000" stroke-width="2" d="M 921.6,70" />
<path stroke="#000000" stroke-width="2" d="M 921.6,30 923.3,30 925.1,30.2 926.8,30.5 928.5,30.9 930.1,31.5 931.7,32.2 933.2,33.1 934.6,34.1 936,35.2 937.2,36.5 938.3,37.8 939.3,39.2 940.2,40.7 941,42.3 941.5,44 942,45.7 942.3,47.4 942.5,49.1 942.5,50.9 942.3,52.6 942,54.3 941.5,56 941,57.6 940.2,59.2 939.3,60.7 938.3,62.2 937.2,63.5 936,64.7 934.6,65.8 933.2,66.8 931.7,67.7 930.1,68.5 928.5,69.1 926.8,69.5 925.1,69.8 923.3,70" />
<path stroke="#000000" stroke-width="2" d="M 949.1,70" />
<path stroke="#000000" stroke-width="2" d="M 949.1,20 949.1,40 954.8,34.3 974.8,34.3" />
<path stroke="#000000" stroke-width="2" d="M 1004.8,70" />
<path stroke="#000000" stroke-width="2" d="M 1004.8,70 1005,70 1005,70.2 1004.8,70.2 1004.8,70" />
<path stroke="#000000" stroke-width="2" d="M 1035,70" />
<path stroke="#000000" stroke-width="2" d="M 1035,40 1035.2,40 1035.2,40.2 1035,40.2 1035,40" />
<path stroke="#000000" stroke-width="2" d="M 1041.8,70" />
<path stroke="#000000" stroke-width="2" d="M 1043.8,50 1049.2,37.1 1049.3,36.7 1049.4,36.4 1049.5,36.1 1049.6,35.7 1049.6,35.4 1049.6,35 1049.5,34.7 1049.4,34.3 1049.3,34 1049.2,33.7 1049,33.4 1048.9,33.1 1048.6,32.8 1048.4,32.5 1048.1,32.3 1047.9,32.1 1047.6,31.9 1047.3,31.7 1046.9,31.6 1046.6,31.5 1046.3,31.4 1045.9,31.4 1045.6,31.4 1045.2,31.4 1044.9,31.4 1044.5,31.5 1044.2,31.6 1043.9,31.7 1043.6,31.9 1043.3,32.1 1043,32.3 1042.7,32.5 1042.5,32.8 1042.3,33.1 1042.1,33.4 1042,33.7 1041.8,34 1041.7,34.3 1041.6,34.7 1041.6,35 1041.6,35.4 1041.6,35.7 1041.6,36.1 1041.7,36.4 1041.8,36.7 1042,37.1 1042.1,37.4 1042.3,37.7 1042.5,37.9 1042.7,38.2 1043,38.4 1043.3,38.7 1043.6,38.8 1043.9,39 1044.2,39.1 1044.5,39.2 1044.9,39.3 1045.2,39.4 1045.6,39.4 1045.9,39.4 1058.9,34 1058.9,34.7 1058.9,35.4 1059,36.1 1059.2,36.8 1059.5,37.4 1059.8,38 1060.1,38.6 1060.5,39.2 1061,39.8 1061.4,40.2 1062,40.7 1062.6,41.1 1063.2,41.4 1063.8,41.7 1064.4,42 1065.1,42.2 1065.8,42.3 1066.5,42.3 1067.2,42.3 1067.9,42.3 1068.6,42.2 1069.3,42 1069.9,41.7 1070.5,41.4 1071.2,41.1 1071.7,40.7 1072.3,40.2 1072.8,39.8 1073.2,39.2 1073.6,38.6 1073.9,38 1074.2,37.4 1074.5,36.8 1074.7,36.1 1074.8,35.4 1074.8,34.7 1075.7,34.7 1076.6,34.8 1077.4,34.9 1078.3,35.2 1079.1,35.5 1079.9,35.8 1080.7,36.3 1081.4,36.8 1082,37.3 1082.7,37.9 1083.2,38.6 1083.7,39.3 1084.2,40.1 1084.5,40.9 1084.8,41.7 1085,42.5 1085.2,43.4 1085.3,44.3 1085.3,45.1 1085.2,46 1085,46.9 1084.8,47.7 1084.5,48.5 1084.2,49.3 1083.7,50.1 1083.2,50.8 1082.7,51.4 1082,52.1 1081.4,52.6 1080.7,53.1 1079.9,53.6 1079.1,53.9 1078.3,54.2 1077.4,54.5 1076.6,54.6 1075.7,54.7" />
<path stroke="#000000" stroke-width="2" d="M 1091.9,70" />
<path stroke="#000000" stroke-width="2" d="M 1091.9,20 1091.9,40 1091.9,34 1091.9,33.1 1092,32.3 1092.2,31.4 1092.4,30.6 1092.7,29.7 1093.1,28.9 1093.5,28.2 1094,27.5 1094.6,26.8 1095.2,26.2 1095.8,25.6 1096.6,25.1 1097.3,24.7 1098.1,24.3 1098.9,24 1099.8,23.8 1100.6,23.6 1101.5,23.6" />
<path stroke="#000000" stroke-width="2" d="M 1131.5,70" />
<path stroke="#000000" stroke-width="2" d="M 1131.5,40" />
<path stroke="#000000" stroke-width="2" d="M 1131.5,40 1135.6,39.8 1138.8,39.2 1141.2,38.3 1143,37.1 1144.1,35.8 1144.7,34.3 1144.8,32.8 1144.5,31.4 1143.7,30 1142.7,28.7 1141.5,27.7 1140.1,27 1138.7,26.7 1137.2,26.8 1135.7,27.3 1134.4,28.5 1133.2,30.2 1132.3,32.7 1131.7,35.9 1131.5,40 1131.5,70" />
<path stroke="#000000" stroke-width="2" d="M 1151.5,70" />
<path stroke="#000000" stroke-width="2" d="M 1151.5,35" />
<path stroke="#000000" stroke-width="2" d="M 1151.5,35 1153.5,34.9 1155.1,34.6 1156.3,34.1 1157.2,33.6 1157.8,32.9 1158.1,32.2 1158.1,31.4 1157.9,30.7 1157.6,30 1157.1,29.4 1156.5,28.9 1155.8,28.5 1155.1,28.3 1154.3,28.4 1153.6,28.7 1152.9,29.2 1152.3,30.1 1151.9,31.4 1151.6,33 1151.5,35 1151.5,50 1143.8,68.5" />
<path stroke="#000000" stroke-width="2" d="M 1164.8,70" />
<path stroke="#000000" stroke-width="2" d="M 1164.8,20 1164.8,40 1164.8,34 1164.8,33.1 1164.9,32.3 1165,31.4 1165.2,30.6 1165.5,29.7 1165.9,28.9 1166.3,28.2 1166.8,27.5 1167.4,26.8 1168,26.2 1168.7,25.6 1169.4,25.1 1170.2,24.7 1171,24.3 1171.8,24 1172.6,23.8 1173.5,23.6 1174.3,23.6" />
<path stroke="#000000" stroke-width="2" d="M 1204.3,70" />
<path stroke="#000000" stroke-width="2" d="M 1214.3,30 1206.7,48.5 1206.7,68.5 1206.7,62.5 1206.7,61.6 1206.8,60.7 1206.9,59.9 1207.1,59 1207.4,58.2 1207.8,57.4 1208.2,56.7 1208.7,56 1209.3,55.3 1209.9,54.7 1210.6,54.1 1211.3,53.6 1212.1,53.2 1212.9,52.8 1213.7,52.5 1214.5,52.3 1215.4,52.1 1216.2,52.1" />
<path stroke="#000000" stroke-width="2" d="M 1222.9,70" />
<path stroke="#000000" stroke-width="2" d="M 1224.9,50 1230.3,37.1 1230.4,36.7 1230.5,36.4 1230.6,36.1 1230.6,35.7 1230.6,35.4 1230.6,35 1230.6,34.7 1230.5,34.3 1230.4,34 1230.3,33.7 1230.1,33.4 1229.9,33.1 1229.7,32.8 1229.5,32.5 1229.2,32.3 1228.9,32.1 1228.6,31.9 1228.3,31.7 1228,31.6 1227.7,31.5 1227.3,31.4 1227,31.4 1226.6,31.4 1226.3,31.4 1225.9,31.4 1225.6,31.5 1225.3,31.6 1225,31.7 1224.6,31.9 1224.3,32.1 1224.1,32.3 1223.8,32.5 1223.6,32.8 1223.4,33.1 1223.2,33.4 1223,33.7 1222.9,34 1222.8,34.3 1222.7,34.7 1222.7,35 1222.6,35.4 1222.7,35.7 1222.7,36.1 1222.8,36.4 1222.9,36.7 1223,37.1 1223.2,37.4 1223.4,37.7 1223.6,37.9 1223.8,38.2 1224.1,38.4 1224.3,38.7 1224.6,38.8 1225,39 1225.3,39.1 1225.6,39.2 1225.9,39.3 1226.3,39.4 1226.6,39.4 1227,39.4 1239.9,34 1240.8,34 1241.7,34.1 1242.5,34.2 1243.4,34.5 1244.2,34.8 1245,35.1 1245.7,35.6 1246.4,36.1 1247.1,36.6 1247.7,37.2 1248.3,37.9 1248.8,38.6 1249.2,39.4 1249.6,40.2 1249.9,41 1250.1,41.8 1250.3,42.7 1250.4,43.6 1250.4,44.4 1250.3,45.3 1250.1,46.2 1249.9,47 1249.6,47.8 1249.2,48.6 1248.8,49.4 1248.3,50.1 1247.7,50.7 1247.1,51.4 1246.4,51.9 1245.7,52.4 1245,52.9 1244.2,53.2 1243.4,53.5 1242.5,53.8 1241.7,53.9 1240.8,54" />
<path stroke="#000000" stroke-width="2" d="M 1280.4,70" />
<path stroke="#000000" stroke-width="2" d="M 1300.4,30 1285,67" />
<path stroke="#000000" stroke-width="2" d="M 1307,70" />
<path stroke="#000000" stroke-width="2" d="M 1307,50 1307.2,50 1307.2,50.2 1307,50.2 1307,50" />
<path stroke="#000000" stroke-width="2" d="M 1337.2,70" />
<path stroke="#000000" stroke-width="2" d="M 1337.2,30 1337.2,70 1337.2,58 1337.2,56.3 1337.4,54.5 1337.7,52.8 1338.1,51.1 1338.7,49.5 1339.5,47.9 1340.3,46.4 1341.3,45 1342.5,43.6 1343.7,42.4 1345,41.3 1346.5,40.3 1348,39.4 1349.5,38.7 1351.2,38.1 1352.9,37.6 1354.6,37.3 1356.3,37.1" />
<path stroke="#000000" stroke-width="2" d="M 1363,70" />
<path stroke="#000000" stroke-width="2" d="M 1363,40 1370.6,21.5 1378.3,40" />
<path stroke="#000000" stroke-width="2" d="M 1378.3,40 1380.3,39.9 1381.9,39.6 1383.2,39.1 1384.1,38.6 1384.6,37.9 1384.9,37.2 1385,36.4 1384.8,35.7 1384.4,35 1383.9,34.4 1383.3,33.9 1382.6,33.5 1381.9,33.3 1381.1,33.4 1380.4,33.7 1379.7,34.2 1379.2,35.1 1378.7,36.4 1378.4,38 1378.3,40 1378.3,55" />
<path stroke="#000000" stroke-width="2" d="M 1391.6,70" />
<path stroke="#000000" stroke-width="2" d="M 1391.6,50 1411.6,50" />
<path stroke="#000000" stroke-width="2" d="M 1441.6,70" />
</svg>