<svg xmlns="http://www.w3.org/2000/svg" width="1277.7446244799798" height="102.0" style="fill:none; stroke-linecap:round;">
    <rect width="100%" height="100%" fill="#FFFFFF" />
<path stroke="#000000" stroke-width="2" d="M 550,75" />
<path stroke="#000000" stroke-width="2" d="M 40,30 24.7,67" />
<path stroke="#000000" stroke-width="2" d="M 46.7,70" />
<path stroke="#000000" stroke-width="2" d="M 46.7,50 46.7,54 46.7,54.5 46.7,55 46.8,55.6 46.9,56.1 47.1,56.6 47.3,57 47.6,57.5 47.9,57.9 48.2,58.3 48.6,58.7 49,59 49.4,59.3 49.9,59.6 50.4,59.8 50.9,60 51.4,60.1 51.9,60.2 52.4,60.3 52.9,60.3 53.4,60.2 54,60.1 54.5,60 55,59.8 55.4,59.6 55.9,59.3 56.3,59 56.7,58.7 57.1,58.3 57.4,57.9 57.7,57.5 58,57 58.2,56.6 58.4,56.1 58.5,55.6 58.6,55 58.7,54.5 58.7,49.5 58.7,69.5" />
<path stroke="#000000" stroke-width="2" d="M 65.3,70" />
<path stroke="#000000" stroke-width="2" d="M 75.3,20 67.7,38.5 57.8,48.4 67.7,58.3" />
<path stroke="#000000" stroke-width="2" d="M 82,70" />
<path stroke="#000000" stroke-width="2" d="M 82,20 82,40 82,34 82,33.1 82.1,32.3 82.2,31.4 82.4,30.6 82.7,29.7 83.1,28.9 83.5,28.2 84,27.5 84.6,26.8 85.2,26.2 85.9,25.6 86.6,25.1 87.4,24.7 88.2,24.3 89,24 89.8,23.8 90.7,23.6 91.5,23.6" />
<path stroke="#000000" stroke-width="2" d="M 121.5,70" />
<path stroke="#000000" stroke-width="2" d="M 121.5,50 129.2,31.5 136.9,50 156.9,50 157.7,50 158.6,50.1 159.5,50.2 160.3,50.5 161.1,50.8 161.9,51.1 162.7,51.6 163.4,52.1 164,52.6 164.7,53.2 165.2,53.9 165.7,54.6 166.2,55.4 166.5,56.2 166.8,57 167,57.8 167.2,58.7 167.3,59.6 167.3,60.4 167.2,61.3 167,62.2 166.8,63 166.5,63.8 166.2,64.6 165.7,65.4 165.2,66.1 164.7,66.7 164,67.4 163.4,67.9 162.7,68.4 161.9,68.9 161.1,69.2 160.3,69.5 159.5,69.8 158.6,69.9 157.7,70" />
<path stroke="#000000" stroke-width="2" d="M 197.3,70" />
<path stroke="#000000" stroke-width="2" d="M 202.3,30 197.3,30 197.3,50 197.3,70 197.3,64 197.3,63.1 197.4,62.3 197.5,61.4 197.7,60.6 198,59.7 198.4,58.9 198.8,58.2 199.3,57.5 199.9,56.8 200.5,56.2 201.2,55.6 201.9,55.1 202.6,54.7 203.4,54.3 204.3,54 205.1,53.8 206,53.6 206.8,53.6" />
<path stroke="#000000" stroke-width="2" d="M 213.5,70" />
<path stroke="#000000" stroke-width="2" d="M 213.5,40 221.2,21.5 228.8,40 221.2,58.5" />
<path stroke="#000000" stroke-width="2" d="M 235.5,70" />
<path stroke="#000000" stroke-width="2" d="M 235.5,20 236.3,20 237.2,20.1 238.1,20.2 238.9,20.5 239.7,20.8 240.5,21.1 241.3,21.6 242,22.1 242.7,22.6 243.3,23.2 243.8,23.9 244.3,24.6 244.8,25.4 245.1,26.2 245.4,27 245.7,27.8 245.8,28.7 245.9,29.6 245.9,30.4 245.8,31.3 245.7,32.2 245.4,33 245.1,33.8 244.8,34.6 244.3,35.4 243.8,36.1 243.3,36.7 242.7,37.4 242,37.9 241.3,38.4 240.5,38.9 239.7,39.2 238.9,39.5 238.1,39.8 237.2,39.9 236.3,40" />
<path stroke="#000000" stroke-width="2" d="M 275.9,70" />
<path stroke="#000000" stroke-width="2" d="M 291.9,30 272.1,49.8 291.9,69.6" />
<path stroke="#000000" stroke-width="2" d="M 298.6,70" />
<path stroke="#000000" stroke-width="2" d="M 298.6,20 298.6,40 298.6,34 298.6,33.1 298.6,32.3 298.8,31.4 299,30.6 299.3,29.7 299.7,28.9 300.1,28.2 300.6,27.5 301.2,26.8 301.8,26.2 302.5,25.6 303.2,25.1 303.9,24.7 304.7,24.3 305.5,24 306.4,23.8 307.3,23.6 308.1,23.6 315.8,42.1" />
<path stroke="#000000" stroke-width="2" d="M 322.4,70" />
<path stroke="#000000" stroke-width="2" d="M 322.4,50 342.4,50" />
<path stroke="#000000" stroke-width="2" d="M 349.1,70" />
<path stroke="#000000" stroke-width="2" d="M 349.1,30 349.3,30 349.3,30.2 349.1,30.2 349.1,30" />
<path stroke="#000000" stroke-width="2" d="M 379.3,70" />
<path stroke="#000000" stroke-width="2" d="M 379.3,30 389.3,30 389.3,70" />
<path stroke="#000000" stroke-width="2" d="M 396,70" />
<path stroke="#000000" stroke-width="2" d="M 396,50 396,70 396,64 396,63.1 396,62.3 396.2,61.4 396.4,60.6 396.7,59.7 397.1,58.9 397.5,58.2 398,57.5 398.6,56.8 399.2,56.2 399.9,55.6 400.6,55.1 401.3,54.7 402.1,54.3 403,54 403.8,53.8 404.7,53.6 405.5,53.6" />
<path stroke="#000000" stroke-width="2" d="M 435.5,70" />
<path stroke="#000000" stroke-width="2" d="M 435.5,50 443.2,31.5 450.8,50 450.8,50.7 450.9,51.4 451,52.1 451.2,52.8 451.4,53.4 451.7,54 452.1,54.6 452.5,55.2 452.9,55.8 453.4,56.2 454,56.7 454.5,57.1 455.1,57.4 455.8,57.7 456.4,58 457.1,58.2 457.8,58.3 458.5,58.3 459.2,58.3 459.9,58.3 460.6,58.2 461.2,58 461.9,57.7 462.5,57.4 463.1,57.1 463.7,56.7 464.2,56.2 464.7,55.8 465.2,55.2 465.6,54.6 465.9,54 466.2,53.4 466.5,52.8 466.6,52.1 466.8,51.4 466.8,50.7 466.8,51.4 466.9,52.1 467,52.8 467.2,53.5 467.4,54.1 467.7,54.7 468.1,55.3 468.5,55.9 468.9,56.5 469.4,56.9 469.9,57.4 470.5,57.8 471.1,58.1 471.8,58.4 472.4,58.7 473.1,58.9 473.8,59 474.5,59 475.2,59 475.9,59 476.5,58.9 477.2,58.7 477.9,58.4 478.5,58.1 479.1,57.8 479.7,57.4 480.2,56.9 480.7,56.5 481.2,55.9 481.6,55.3 481.9,54.7 482.2,54.1 482.4,53.5 482.6,52.8 482.7,52.1 482.8,51.4" />
<path stroke="#000000" stroke-width="2" d="M 512.8,70" />
<path stroke="#000000" stroke-width="2" d="M 512.8,70 513,70 513,70.2 512.8,70.2 512.8,70" />
<path stroke="#000000" stroke-width="2" d="M 519.7,70" />
<path stroke="#000000" stroke-width="2" d="M 519.7,30 519.7,31.4 519.8,32.8 520,34.2 520.4,35.5 520.9,36.8 521.5,38.1 522.2,39.3 523,40.4 523.9,41.5 524.8,42.5 525.9,43.4 527.1,44.2 528.3,44.9 529.5,45.5 530.8,46 532.2,46.3 533.6,46.6 535,46.7 536.4,46.7 537.7,46.6 539.1,46.3 540.5,46 541.8,45.5 543,44.9 544.3,44.2 545.4,43.4 546.5,42.5 547.5,41.5 548.3,40.4 549.2,39.3 549.8,38.1 550.4,36.8 550.9,35.5 551.3,34.2 551.5,32.8 551.6,31.4" />
<path stroke="#000000" stroke-width="2" d="M 558.3,70" />
<path stroke="#000000" stroke-width="2" d="M 558.3,20 578.3,20 579.2,20 580,20.1 580.9,20.2 581.8,20.5 582.6,20.8 583.4,21.1 584.1,21.6 584.8,22.1 585.5,22.6 586.1,23.2 586.7,23.9 587.2,24.6 587.6,25.4 588,26.2 588.3,27 588.5,27.8 588.7,28.7 588.7,29.6 588.7,30.4 588.7,31.3 588.5,32.2 588.3,33 588,33.8 587.6,34.6 587.2,35.4 586.7,36.1 586.1,36.7 585.5,37.4 584.8,37.9 584.1,38.4 583.4,38.9 582.6,39.2 581.8,39.5 580.9,39.8 580,39.9 579.2,40" />
<path stroke="#000000" stroke-width="2" d="M 618.7,70" />
<path stroke="#000000" stroke-width="2" d="M 618.7,70 618.9,70 618.9,70.2 618.7,70.2 618.7,70" />
<path stroke="#000000" stroke-width="2" d="M 648.9,70" />
<path stroke="#000000" stroke-width="2" d="M 668.9,30 653.6,67" />
<path stroke="#000000" stroke-width="2" d="M 675.6,70" />
<path stroke="#000000" stroke-width="2" d="M 675.6,50 675.8,50 675.8,50.2 675.6,50.2 675.6,50" />
<path stroke="#000000" stroke-width="2" d="M 705.8,70" />
<path stroke="#000000" stroke-width="2" d="M 705.8,30 707.5,30 709.3,30.2 711,30.5 712.7,30.9 714.3,31.5 715.9,32.2 717.4,33.1 718.8,34.1 720.2,35.2 721.4,36.5 722.5,37.8 723.5,39.2 724.4,40.7 725.2,42.3 725.7,44 726.2,45.7 726.5,47.4 726.7,49.1 726.7,50.9 726.5,52.6 726.2,54.3 725.7,56 725.2,57.6 724.4,59.2 723.5,60.7 722.5,62.2 721.4,63.5 720.2,64.7 718.8,65.8 717.4,66.8 715.9,67.7 714.3,68.5 712.7,69.1 711,69.5 709.3,69.8 707.5,70" />
<path stroke="#000000" stroke-width="2" d="M 733.3,70" />
<path stroke="#000000" stroke-width="2" d="M 733.3,50 733.5,50 733.5,50.2 733.3,50.2 733.3,50" />
<path stroke="#000000" stroke-width="2" d="M 763.5,70" />
<path stroke="#000000" stroke-width="2" d="M 773.5,30 765.9,48.5 756,58.4 765.9,68.3" />
<path stroke="#000000" stroke-width="2" d="M 780.2,70" />
<path stroke="#000000" stroke-width="2" d="M 780.2,40" />
<path stroke="#000000" stroke-width="2" d="M 780.2,40 784.2,39.8 787.5,39.2 789.9,38.3 791.7,37.1 792.8,35.8 793.4,34.3 793.5,32.8 793.1,31.4 792.4,30 791.4,28.8 790.2,27.7 788.8,27 787.4,26.7 785.9,26.8 784.4,27.3 783.1,28.5 781.9,30.2 781,32.7 780.4,35.9 780.2,40 780.2,70" />
<path stroke="#000000" stroke-width="2" d="M 823.5,70" />
<path stroke="#000000" stroke-width="2" d="M 823.5,70" />
<path stroke="#000000" stroke-width="2" d="M 823.5,70 824.6,70 825.6,70.2 826.4,70.4 827.1,70.7 827.7,71 828.2,71.5 828.5,71.9 828.7,72.5 828.8,73.1 828.7,73.8 828.6,74.4 828.4,75.2 828.1,76 827.7,76.8 827.2,77.6 826.6,78.4 825.9,79.3 825.2,80.2 824.4,81.1 823.5,82" />
<path stroke="#000000" stroke-width="2" d="M 858.8,70" />
<path stroke="#000000" stroke-width="2" d="M 858.8,70 859,70 859,70.2 858.8,70.2 858.8,70" />
<path stroke="#000000" stroke-width="2" d="M 865.6,70" />
<path stroke="#000000" stroke-width="2" d="M 867.6,50 873,37.1 873.1,36.7 873.2,36.4 873.3,36.1 873.4,35.7 873.4,35.4 873.4,35 873.3,34.7 873.2,34.3 873.1,34 873,33.7 872.8,33.4 872.6,33.1 872.4,32.8 872.2,32.5 871.9,32.3 871.7,32.1 871.4,31.9 871.1,31.7 870.7,31.6 870.4,31.5 870.1,31.4 869.7,31.4 869.4,31.4 869,31.4 868.7,31.4 868.3,31.5 868,31.6 867.7,31.7 867.4,31.9 867.1,32.1 866.8,32.3 866.5,32.5 866.3,32.8 866.1,33.1 865.9,33.4 865.7,33.7 865.6,34 865.5,34.3 865.4,34.7 865.4,35 865.4,35.4 865.4,35.7 865.4,36.1 865.5,36.4 865.6,36.7 865.7,37.1 865.9,37.4 866.1,37.7 866.3,37.9 866.5,38.2 866.8,38.4 867.1,38.7 867.4,38.8 867.7,39 868,39.1 868.3,39.2 868.7,39.3 869,39.4 869.4,39.4 869.7,39.4 882.6,34 882.6,34.7 882.7,35.4 882.8,36.1 883,36.8 883.3,37.4 883.5,38 883.9,38.6 884.3,39.2 884.7,39.8 885.2,40.2 885.8,40.7 886.3,41.1 886.9,41.4 887.6,41.7 888.2,42 888.9,42.2 889.6,42.3 890.3,42.3 891,42.3 891.7,42.3 892.4,42.2 893,42 893.7,41.7 894.3,41.4 894.9,41.1 895.5,40.7 896,40.2 896.5,39.8 897,39.2 897.4,38.6 897.7,38 898,37.4 898.3,36.8 898.5,36.1 898.6,35.4 898.6,34.7 899.5,34.7 900.4,34.8 901.2,34.9 902.1,35.2 902.9,35.5 903.7,35.8 904.4,36.3 905.2,36.8 905.8,37.3 906.4,37.9 907,38.6 907.5,39.3 907.9,40.1 908.3,40.9 908.6,41.7 908.8,42.5 909,43.4 909.1,44.3 909.1,45.1 909,46 908.8,46.9 908.6,47.7 908.3,48.5 907.9,49.3 907.5,50.1 907,50.8 906.4,51.4 905.8,52.1 905.2,52.6 904.4,53.1 903.7,53.6 902.9,53.9 902.1,54.2 901.2,54.5 900.4,54.6 899.5,54.7" />
<path stroke="#000000" stroke-width="2" d="M 915.7,70" />
<path stroke="#000000" stroke-width="2" d="M 915.7,25" />
<path stroke="#000000" stroke-width="2" d="M 915.7,25 917.8,24.9 919.4,24.6 920.6,24.1 921.5,23.6 922.1,22.9 922.3,22.2 922.4,21.4 922.2,20.7 921.9,20 921.4,19.4 920.7,18.9 920,18.5 919.3,18.3 918.6,18.4 917.8,18.7 917.2,19.2 916.6,20.1 916.1,21.4 915.8,23 915.7,25 915.7,40 908.1,58.5" />
<path stroke="#000000" stroke-width="2" d="M 952.4,70" />
<path stroke="#000000" stroke-width="2" d="M 952.4,30 956.2,39.2" />
<path stroke="#000000" stroke-width="2" d="M 956.2,39.2 958.1,41.4 959.4,43.3 960.2,45 960.5,46.4 960.4,47.7 960,48.7 959.3,49.5 958.4,50 957.3,50.4 956.2,50.5 955.1,50.4 954,50 953.1,49.5 952.4,48.7 952,47.7 951.9,46.4 952.2,45 953,43.3 954.3,41.4 956.2,39.2 960,30" />
<path stroke="#000000" stroke-width="2" d="M 960,30 962.1,29.9 963.7,29.6 964.9,29.1 965.8,28.6 966.4,27.9 966.7,27.2 966.7,26.4 966.5,25.7 966.2,25 965.7,24.4 965,23.9 964.4,23.5 963.6,23.3 962.9,23.4 962.1,23.7 961.5,24.2 960.9,25.1 960.4,26.4 960.1,28 960,30 960,45" />
<path stroke="#000000" stroke-width="2" d="M 973.4,70" />
<path stroke="#000000" stroke-width="2" d="M 973.4,20 974.2,20 975.1,20.1 976,20.2 976.8,20.5 977.6,20.8 978.4,21.1 979.2,21.6 979.9,22.1 980.5,22.6 981.2,23.2 981.7,23.9 982.2,24.6 982.7,25.4 983,26.2 983.3,27 983.6,27.8 983.7,28.7 983.8,29.6 983.8,30.4 983.7,31.3 983.6,32.2 983.3,33 983,33.8 982.7,34.6 982.2,35.4 981.7,36.1 981.2,36.7 980.5,37.4 979.9,37.9 979.2,38.4 978.4,38.9 977.6,39.2 976.8,39.5 976,39.8 975.1,39.9 974.2,40" />
<path stroke="#000000" stroke-width="2" d="M 1013.8,70" />
<path stroke="#000000" stroke-width="2" d="M 1029.8,30 1010,49.8 1029.8,69.6" />
<path stroke="#000000" stroke-width="2" d="M 1036.5,70" />
<path stroke="#000000" stroke-width="2" d="M 1036.5,20 1036.5,40 1036.5,34 1036.5,33.1 1036.5,32.3 1036.7,31.4 1036.9,30.6 1037.2,29.7 1037.6,28.9 1038,28.2 1038.5,27.5 1039.1,26.8 1039.7,26.2 1040.4,25.6 1041.1,25.1 1041.8,24.7 1042.6,24.3 1043.4,24 1044.3,23.8 1045.1,23.6 1046,23.6" />
<path stroke="#000000" stroke-width="2" d="M 1076,70" />
<path stroke="#000000" stroke-width="2" d="M 1076,30 1079.8,39.2" />
<path stroke="#000000" stroke-width="2" d="M 1079.8,39.2 1081.8,41.4 1083.1,43.3 1083.8,45 1084.2,46.4 1084.1,47.7 1083.6,48.7 1082.9,49.5 1082,50 1080.9,50.4 1079.8,50.5 1078.7,50.4 1077.7,50 1076.8,49.5 1076.1,48.7 1075.6,47.7 1075.5,46.4 1075.8,45 1076.6,43.3 1077.9,41.4 1079.8,39.2 1083.7,30 1103.7,30" />
<path stroke="#000000" stroke-width="2" d="M 1110.3,70" />
<path stroke="#000000" stroke-width="2" d="M 1120.3,30 1110.3,30 1110.3,70" />
<path stroke="#000000" stroke-width="2" d="M 1127,70" />
<path stroke="#000000" stroke-width="2" d="M 1127,50 1127,70 1127,64 1127,63.1 1127.1,62.3 1127.2,61.4 1127.4,60.6 1127.7,59.7 1128.1,58.9 1128.5,58.2 1129,57.5 1129.6,56.8 1130.2,56.2 1130.9,55.6 1131.6,55.1 1132.4,54.7 1133.2,54.3 1134,54 1134.8,53.8 1135.7,53.6 1136.5,53.6 1156.5,53.6" />
<path stroke="#000000" stroke-width="2" d="M 1186.5,70" />
<path stroke="#000000" stroke-width="2" d="M 1202.5,30" />
<path stroke="#000000" stroke-width="2" d="M 1202.5,30 1202.3,34.1 1201.7,37.3 1200.8,39.8 1199.7,41.5 1198.3,42.7 1196.9,43.2 1195.4,43.3 1193.9,43 1192.5,42.3 1191.3,41.2 1190.3,40 1189.6,38.6 1189.2,37.2 1189.3,35.7 1189.9,34.2 1191,32.9 1192.8,31.7 1195.3,30.8 1198.5,30.2 1202.5,30 1222.5,30" />
<path stroke="#000000" stroke-width="2" d="M 1229.2,70" />
<path stroke="#000000" stroke-width="2" d="M 1229.2,50 1229.2,70 1234.9,64.3" />
<path stroke="#000000" stroke-width="2" d="M 1241.5,70" />
<path stroke="#000000" stroke-width="2" d="M 1241.5,20 1241.5,40 1241.5,34 1241.5,33.1 1241.6,32.3 1241.8,31.4 1242,30.6 1242.3,29.7 1242.7,28.9 1243.1,28.2 1243.6,27.5 1244.2,26.8 1244.8,26.2 1245.4,25.6 1246.2,25.1 1246.9,24.7 1247.7,24.3 1248.5,24 1249.4,23.8 1250.2,23.6 1251.1,23.6" />
<path stroke="#000000" stroke-width="2" d="M 1251.1,23.6 1253.1,23.5 1254.7,23.2 1256,22.7 1256.9,22.1 1257.4,21.5 1257.7,20.7 1257.7,20 1257.6,19.3 1257.2,18.6 1256.7,17.9 1256.1,17.4 1255.4,17.1 1254.7,16.9 1253.9,17 1253.2,17.2 1252.5,17.8 1252,18.7 1251.5,19.9 1251.2,21.5 1251.1,23.6 1251.1,38.6" />
<path stroke="#000000" stroke-width="2" d="M 1287.7,70" />
</svg>