<svg xmlns="http://www.w3.org/2000/svg" width="476.24401877528203" height="102.0" style="fill:none; stroke-linecap:round;">
    <rect width="100%" height="100%" fill="#FFFFFF" />
<path stroke="#000000" stroke-width="2" d="M 550,75" />
<path stroke="#000000" stroke-width="2" d="M 20,30 27.7,48.5 35.3,30" />
<path stroke="#000000" stroke-width="2" d="M 35.3,40" />
<path stroke="#000000" stroke-width="2" d="M 19.3,40 36.3,40 36.3,40.5 36.3,41 36.2,41.6 36,42.1 35.9,42.6 35.6,43 35.4,43.5 35.1,43.9 34.7,44.3 34.4,44.7 34,45 33.5,45.3 33.1,45.6 32.6,45.8 32.1,46 31.6,46.1 31.1,46.2 30.6,46.3 30.1,46.3 29.5,46.2 29,46.1 28.5,46 28,45.8 27.5,45.6 27.1,45.3 26.7,45 26.3,44.7 25.9,44.3 25.6,43.9 25.3,43.5 25,43 24.8,42.6 24.6,42.1 24.5,41.6 24.4,41 24.3,40.5 24.3,40 24.4,39.5 24.5,39 24.6,38.5 24.8,38 25,37.5 25.3,37 25.6,36.6 25.9,36.2 26.3,35.8 26.7,35.5 27.1,35.2 27.5,34.9 28,34.7 28.5,34.5 29,34.4 29.5,34.3 30.1,34.3 30.6,34.3 31.1,34.3 31.6,34.4 32.1,34.5 32.6,34.7 33.1,34.9 33.5,35.2 34,35.5 34.4,35.8 34.7,36.2 35.1,36.6 35.4,37 35.6,37.5 35.9,38 36,38.5 36.2,39 36.3,39.5 36.3,40 36.3,44" />
<path stroke="#000000" stroke-width="2" d="M 36.3,44 36,44.9 35.6,45.7 35.3,46.4 34.9,47.1 34.5,47.8 34,48.4 33.6,48.9 33.1,49.4 32.6,49.9 32.1,50.2 31.5,50.6 31,50.9 30.4,51.2 29.9,51.4 29.3,51.6 28.7,51.7 28.1,51.9 27.5,51.9 26.9,52 26.3,52" />
<path stroke="#000000" stroke-width="2" d="M 66.3,70" />
<path stroke="#000000" stroke-width="2" d="M 66.3,30 66.3,50 76.3,50" />
<path stroke="#000000" stroke-width="2" d="M 76.3,50 78.3,49.9 80,49.6 81.2,49.1 82.1,48.6 82.6,47.9 82.9,47.2 83,46.4 82.8,45.7 82.4,45 81.9,44.4 81.3,43.9 80.6,43.5 79.9,43.3 79.1,43.4 78.4,43.7 77.7,44.2 77.2,45.1 76.7,46.4 76.4,48 76.3,50 76.3,65" />
<path stroke="#000000" stroke-width="2" d="M 113,70" />
<path stroke="#000000" stroke-width="2" d="M 113,30 113,38 113,39 113.1,40.1 113.2,41.1 113.5,42.1 113.9,43.1 114.3,44.1 114.8,45 115.4,45.8 116.1,46.6 116.8,47.4 117.6,48 118.5,48.6 119.4,49.2 120.4,49.6 121.3,50 122.4,50.2 123.4,50.4 124.4,50.5 125.5,50.5 126.5,50.4 127.5,50.2 128.6,50 129.5,49.6 130.5,49.2 131.4,48.6 132.3,48 133.1,47.4 133.8,46.6 134.5,45.8 135.1,45 135.6,44.1 136,43.1 136.4,42.1 136.7,41.1 136.8,40.1 136.9,39 136.9,29 136.9,69" />
<path stroke="#000000" stroke-width="2" d="M 143.6,70" />
<path stroke="#000000" stroke-width="2" d="M 155.6,56 155.6,56.5 155.6,57 155.5,57.6 155.3,58.1 155.2,58.6 154.9,59 154.7,59.5 154.4,59.9 154,60.3 153.7,60.7 153.3,61 152.8,61.3 152.4,61.6 151.9,61.8 151.4,62 150.9,62.1 150.4,62.2 149.9,62.3 149.3,62.3 148.8,62.2 148.3,62.1 147.8,62 147.3,61.8 146.8,61.6 146.4,61.3 146,61 145.6,60.7 145.2,60.3 144.9,59.9 144.6,59.5 144.3,59 144.1,58.6 143.9,58.1 143.8,57.6 143.7,57 143.6,56.5 143.6,56 143.7,55.5 143.8,55 143.9,54.5 144.1,54 144.3,53.5 144.6,53 144.9,52.6 145.2,52.2 145.6,51.8 146,51.5 146.4,51.2 146.8,50.9 147.3,50.7 147.8,50.5 148.3,50.4 148.8,50.3 149.3,50.3 149.9,50.3 150.4,50.3 150.9,50.4 151.4,50.5 151.9,50.7 152.4,50.9 152.8,51.2 153.3,51.5 153.7,51.8 154,52.2 154.4,52.6 154.7,53 154.9,53.5 155.2,54 155.3,54.5 155.5,55 155.6,55.5 155.6,56 155.6,60" />
<path stroke="#000000" stroke-width="2" d="M 155.6,60 155.3,60.9 154.9,61.7 154.6,62.4 154.2,63.1 153.8,63.8 153.3,64.4 152.9,64.9 152.4,65.4 151.9,65.9 151.4,66.2 150.8,66.6 150.3,66.9 149.7,67.2 149.2,67.4 148.6,67.6 148,67.7 147.4,67.9 146.8,67.9 146.2,68 145.6,68" />
<path stroke="#000000" stroke-width="2" d="M 185.6,70" />
<path stroke="#000000" stroke-width="2" d="M 205.6,30 190.3,67" />
<path stroke="#000000" stroke-width="2" d="M 212.3,70" />
<path stroke="#000000" stroke-width="2" d="M 212.3,50 212.3,70" />
<path stroke="#000000" stroke-width="2" d="M 218.9,70" />
<path stroke="#000000" stroke-width="2" d="M 218.9,40 226.6,21.5 226.6,22.2 226.7,22.9 226.8,23.6 227,24.3 227.2,24.9 227.5,25.6 227.8,26.2 228.2,26.7 228.7,27.3 229.2,27.8 229.7,28.2 230.3,28.6 230.9,29 231.5,29.3 232.2,29.5 232.9,29.7 233.5,29.8 234.2,29.9 234.9,29.9 235.6,29.8 236.3,29.7 237,29.5 237.6,29.3 238.3,29 238.9,28.6 239.5,28.2 240,27.8 240.5,27.3 240.9,26.7 241.3,26.2 241.7,25.6 242,24.9 242.2,24.3 242.4,23.6 242.5,22.9 242.6,22.2 242.6,42.2 242.6,36.2 242.6,35.3 242.7,34.5 242.8,33.6 243,32.8 243.3,32 243.7,31.2 244.1,30.4 244.6,29.7 245.2,29 245.8,28.4 246.5,27.9 247.2,27.4 248,26.9 248.7,26.5 249.6,26.2 250.4,26 251.3,25.9 252.1,25.8" />
<path stroke="#000000" stroke-width="2" d="M 258.8,70" />
<path stroke="#000000" stroke-width="2" d="M 278.8,30 263.5,67" />
<path stroke="#000000" stroke-width="2" d="M 308.8,70" />
<path stroke="#000000" stroke-width="2" d="M 308.8,70" />
<path stroke="#000000" stroke-width="2" d="M 308.8,70 309.9,70 310.9,70.2 311.7,70.4 312.4,70.7 313,71 313.5,71.5 313.8,71.9 314,72.5 314.1,73.1 314,73.8 313.9,74.4 313.7,75.2 313.4,76 313,76.8 312.5,77.6 311.9,78.4 311.2,79.3 310.5,80.2 309.7,81.1 308.8,82" />
<path stroke="#000000" stroke-width="2" d="M 344.1,70" />
<path stroke="#000000" stroke-width="2" d="M 344.1,70 359.4,33 399.4,33" />
<path stroke="#000000" stroke-width="2" d="M 406,70" />
<path stroke="#000000" stroke-width="2" d="M 406,50 426,50" />
<path stroke="#000000" stroke-width="2" d="M 456,70" />
<path stroke="#000000" stroke-width="2" d="M 456,70 456.2,70 456.2,70.2 456,70.2 456,70" />
<path stroke="#000000" stroke-width="2" d="M 486.2,70" />
</svg>