<svg xmlns="http://www.w3.org/2000/svg" width="862.3187339116702" height="93.30875" style="fill:none; stroke-linecap:round;">
    <rect width="100%" height="100%" fill="#FFFFFF" />
<path stroke="#000000" stroke-width="2" d="M 550,75" />
<path stroke="#000000" stroke-width="2" d="M 20,30 35.3,67 50.6,30" />
<path stroke="#000000" stroke-width="2" d="M 50.6,50" />
<path stroke="#000000" stroke-width="2" d="M 18.6,50 52.6,50" />
<path stroke="#000000" stroke-width="2" d="M 82.6,70" />
<path stroke="#000000" stroke-width="2" d="M 82.6,40" />
<path stroke="#000000" stroke-width="2" d="M 82.6,40 86.7,39.8 89.9,39.2 92.4,38.3 94.1,37.1 95.3,35.8 95.8,34.3 95.9,32.8 95.6,31.4 94.9,30 93.9,28.8 92.6,27.7 91.3,27 89.8,26.7 88.3,26.8 86.8,27.3 85.5,28.5 84.3,30.2 83.4,32.7 82.8,35.9 82.6,40 82.6,70" />
<path stroke="#000000" stroke-width="2" d="M 102.6,70" />
<path stroke="#000000" stroke-width="2" d="M 110.6,20 100.7,29.9 110.6,39.8" />
<path stroke="#000000" stroke-width="2" d="M 117.3,70" />
<path stroke="#000000" stroke-width="2" d="M 117.3,20 117.3,40 117.3,34 117.3,33.1 117.3,32.3 117.5,31.4 117.7,30.6 118,29.7 118.4,28.9 118.8,28.2 119.3,27.5 119.9,26.8 120.5,26.2 121.2,25.6 121.9,25.1 122.6,24.7 123.4,24.3 124.2,24 125.1,23.8 125.9,23.6 126.8,23.6" />
<path stroke="#000000" stroke-width="2" d="M 156.8,70" />
<path stroke="#000000" stroke-width="2" d="M 156.8,70 172.1,33 172.1,41 172.1,42.1 172.2,43.1 172.4,44.2 172.7,45.2 173,46.2 173.5,47.1 174,48 174.6,48.9 175.3,49.7 176,50.4 176.8,51.1 177.7,51.7 178.6,52.2 179.5,52.7 180.5,53 181.5,53.3 182.5,53.5 183.6,53.6 184.6,53.6 185.7,53.5 186.7,53.3 187.7,53 188.7,52.7 189.6,52.2 190.6,51.7 191.4,51.1 192.2,50.4 193,49.7 193.6,48.9 194.2,48 194.8,47.1 195.2,46.2 195.6,45.2 195.8,44.2 196,43.1 196.1,42.1 196.1,32.1 196.1,72.1" />
<path stroke="#000000" stroke-width="2" d="M 202.8,70" />
<path stroke="#000000" stroke-width="2" d="M 202.8,20 222.8,20" />
<path stroke="#000000" stroke-width="2" d="M 252.8,70" />
<path stroke="#000000" stroke-width="2" d="M 252.8,70 253,70 253,70.2 252.8,70.2 252.8,70" />
<path stroke="#000000" stroke-width="2" d="M 283,70" />
<path stroke="#000000" stroke-width="2" d="M 293,50 293.8,50 294.7,49.9 295.6,49.8 296.4,49.5 297.2,49.2 298,48.9 298.8,48.4 299.5,47.9 300.2,47.4 300.8,46.8 301.3,46.1 301.8,45.4 302.3,44.6 302.6,43.8 302.9,43 303.2,42.2 303.3,41.3 303.4,40.4 303.4,39.6 303.3,38.7 303.2,37.8 302.9,37 302.6,36.2 302.3,35.4 301.8,34.6 301.3,33.9 300.8,33.3 300.2,32.6 299.5,32.1 298.8,31.6 298,31.1 297.2,30.8 296.4,30.5 295.6,30.2 294.7,30.1 293.8,30 293,30 292.1,30.1 291.2,30.2 290.4,30.5 289.6,30.8 288.8,31.1 288,31.6 287.3,32.1 286.6,32.6 286,33.3 285.5,33.9 285,34.6 284.5,35.4 284.2,36.2 283.9,37 283.6,37.8 283.5,38.7 283.4,39.6 283.4,40.4 283.5,41.3 283.6,42.2 283.9,43 284.2,43.8 284.5,44.6 285,45.4 285.5,46.1 286,46.8 286.6,47.4 287.3,47.9 288,48.4 288.8,48.9 289.6,49.2 290.4,49.5 291.2,49.8 292.1,49.9 293,50 293,70 293,64 293,63.1 293,62.3 293.2,61.4 293.4,60.6 293.7,59.7 294.1,58.9 294.5,58.2 295,57.5 295.6,56.8 296.2,56.2 296.9,55.6 297.6,55.1 298.3,54.7 299.1,54.3 299.9,54 300.8,53.8 301.6,53.6 302.5,53.6" />
<path stroke="#000000" stroke-width="2" d="M 333.4,70" />
<path stroke="#000000" stroke-width="2" d="M 333.4,30 333.4,70 344.7,58.7" />
<path stroke="#000000" stroke-width="2" d="M 351.4,70" />
<path stroke="#000000" stroke-width="2" d="M 351.4,25" />
<path stroke="#000000" stroke-width="2" d="M 351.4,25 353.4,24.9 355,24.6 356.2,24.1 357.1,23.6 357.7,22.9 358,22.2 358,21.4 357.8,20.7 357.5,20 357,19.4 356.4,18.9 355.7,18.5 355,18.3 354.2,18.4 353.5,18.7 352.8,19.2 352.2,20.1 351.8,21.4 351.5,23 351.4,25 351.4,40" />
<path stroke="#000000" stroke-width="2" d="M 388,70" />
<path stroke="#000000" stroke-width="2" d="M 388,40 388.2,40 388.2,40.2 388,40.2 388,40" />
<path stroke="#000000" stroke-width="2" d="M 394.9,70" />
<path stroke="#000000" stroke-width="2" d="M 394.9,30 394.9,70 394.9,62 394.9,60.3 395,58.5 395.3,56.8 395.8,55.1 396.4,53.5 397.1,51.9 398,50.4 399,49 400.1,47.6 401.4,46.4 402.7,45.3 404.1,44.3" />
<path stroke="#000000" stroke-width="2" d="M 410.8,70" />
<path stroke="#000000" stroke-width="2" d="M 410.8,30 420.8,30 420.8,70" />
<path stroke="#000000" stroke-width="2" d="M 450.8,70" />
<path stroke="#000000" stroke-width="2" d="M 466.8,30" />
<path stroke="#000000" stroke-width="2" d="M 466.8,30 466.6,34.1 466,37.3 465.1,39.8 463.9,41.5 462.6,42.7 461.1,43.2 459.6,43.3 458.2,43 456.8,42.3 455.5,41.2 454.5,40 453.8,38.6 453.5,37.2 453.6,35.7 454.1,34.2 455.3,32.9 457,31.7 459.5,30.8 462.7,30.2 466.8,30 486.8,30" />
<path stroke="#000000" stroke-width="2" d="M 493.5,70" />
<path stroke="#000000" stroke-width="2" d="M 493.5,20" />
<path stroke="#000000" stroke-width="2" d="M 493.5,20 493.6,20 494,20 494.7,20 495.5,20.1 496.6,20.2 497.8,20.3 499.1,20.4 500.5,20.6 502,20.9 503.5,21.2 505,21.7 506.4,22.2 507.8,22.7 509.1,23.4 510.3,24.2 511.4,25.1 512.2,26.1 512.9,27.3 513.3,28.6 513.5,30" />
<path stroke="#000000" stroke-width="2" d="M 513.5,30 515.4,32.1 516.7,34.1 517.5,35.7 517.8,37.2 517.7,38.4 517.2,39.4 516.5,40.2 515.6,40.8 514.6,41.1 513.5,41.2 512.3,41.1 511.3,40.8 510.4,40.2 509.7,39.4 509.2,38.4 509.1,37.2 509.4,35.7 510.2,34 511.5,32.1 513.5,30" />
<path stroke="#000000" stroke-width="2" d="M 513.5,30 513.5,29.9 513.5,29.7 513.5,29.4 513.6,29 513.8,28.4 514,27.8 514.3,27.2 514.7,26.5 515.3,25.7 516,25 516.8,24.3 517.8,23.5 519,22.8 520.3,22.2 521.9,21.6 523.7,21 525.7,20.6 528,20.3 530.6,20.1 533.5,20" />
<path stroke="#000000" stroke-width="2" d="M 533.5,20 535.5,19.9 537.1,19.6 538.3,19.1 539.2,18.6 539.8,17.9 540.1,17.2 540.1,16.4 539.9,15.7 539.6,15 539.1,14.4 538.5,13.9 537.8,13.5 537,13.3 536.3,13.4 535.6,13.7 534.9,14.2 534.3,15.1 533.9,16.4 533.6,18 533.5,20 533.5,35" />
<path stroke="#000000" stroke-width="2" d="M 570.1,70" />
<path stroke="#000000" stroke-width="2" d="M 570.1,30 590.1,30" />
<path stroke="#000000" stroke-width="2" d="M 590.1,30 591.5,30.1 592.8,30.6 593.9,31.2 594.9,32.1 595.7,33.1 596.4,34.3 596.9,35.6 597.3,37 597.5,38.5 597.6,40 597.5,41.5 597.3,43 596.9,44.4 596.4,45.7 595.7,46.9 594.9,47.9 593.9,48.8 592.8,49.4 591.5,49.9 590.1,50" />
<path stroke="#000000" stroke-width="2" d="M 627.6,70" />
<path stroke="#000000" stroke-width="2" d="M 643.6,30 643.6,60" />
<path stroke="#000000" stroke-width="2" d="M 643.6,60 643.4,64.1 642.8,67.3 641.9,69.8 640.7,71.5 639.4,72.7 637.9,73.2 636.4,73.3 635,73 633.6,72.3 632.4,71.2 631.4,70 630.7,68.6 630.3,67.2 630.4,65.7 631,64.2 632.1,62.9 633.9,61.7 636.3,60.8 639.6,60.2 643.6,60" />
<path stroke="#000000" stroke-width="2" d="M 650.3,70" />
<path stroke="#000000" stroke-width="2" d="M 650.3,20 650.5,20 650.5,20.2 650.3,20.2 650.3,20" />
<path stroke="#000000" stroke-width="2" d="M 680.5,70" />
<path stroke="#000000" stroke-width="2" d="M 680.5,35" />
<path stroke="#000000" stroke-width="2" d="M 680.5,35 682.5,34.9 684.1,34.6 685.4,34.1 686.2,33.6 686.8,32.9 687.1,32.2 687.1,31.4 687,30.7 686.6,30 686.1,29.4 685.5,28.9 684.8,28.5 684.1,28.3 683.3,28.4 682.6,28.7 681.9,29.2 681.3,30.1 680.9,31.4 680.6,33 680.5,35 680.5,50 688.1,68.5" />
<path stroke="#000000" stroke-width="2" d="M 694.8,70" />
<path stroke="#000000" stroke-width="2" d="M 694.8,30 694.8,30.7 694.9,31.4 695,32.1 695.2,32.8 695.4,33.4 695.7,34 696,34.6 696.4,35.2 696.9,35.8 697.4,36.2 697.9,36.7 698.5,37.1 699.1,37.4 699.7,37.7 700.4,38 701.1,38.2 701.7,38.3 702.4,38.3 703.1,38.3 703.8,38.3 704.5,38.2 705.2,38 705.9,37.7 706.5,37.4 707.1,37.1 707.7,36.7 708.2,36.2 708.7,35.8 709.1,35.2 709.5,34.6 709.9,34 710.2,33.4 710.4,32.8 710.6,32.1 710.7,31.4 710.8,30.7" />
<path stroke="#000000" stroke-width="2" d="M 710.8,30.7 712.2,30.8 713.5,31.3 714.6,31.9 715.6,32.8 716.4,33.8 717.1,35 717.6,36.3 718,37.7 718.2,39.2 718.3,40.7 718.2,42.2 718,43.7 717.6,45.1 717.1,46.4 716.4,47.6 715.6,48.6 714.6,49.5 713.5,50.1 712.2,50.6 710.8,50.7" />
<path stroke="#000000" stroke-width="2" d="M 748.3,70" />
<path stroke="#000000" stroke-width="2" d="M 748.3,30 748.3,31.4 748.4,32.8 748.6,34.2 749,35.5 749.5,36.8 750.1,38.1 750.8,39.3 751.6,40.4 752.5,41.5 753.5,42.5 754.5,43.4 755.7,44.2 756.9,44.9 758.1,45.5 759.5,46 760.8,46.3 762.2,46.6 763.6,46.7 765,46.7 766.4,46.6 767.7,46.3 769.1,46 770.4,45.5 771.7,44.9 772.9,44.2 774,43.4 775.1,42.5 776.1,41.5 777,40.4 777.8,39.3 778.5,38.1 779.1,36.8 779.5,35.5 779.9,34.2 780.1,32.8 780.3,31.4" />
<path stroke="#000000" stroke-width="2" d="M 786.9,70" />
<path stroke="#000000" stroke-width="2" d="M 796.9,30 789.3,48.5 789.3,49.2 789.3,49.9 789.4,50.6 789.6,51.2 789.9,51.9 790.2,52.5 790.5,53.1 790.9,53.7 791.4,54.2 791.9,54.7 792.4,55.2 793,55.6 793.6,55.9 794.2,56.2 794.9,56.5 795.5,56.6 796.2,56.8 796.9,56.8 797.6,56.8 798.3,56.8 799,56.6 799.7,56.5 800.3,56.2 801,55.9 801.6,55.6 802.1,55.2 802.7,54.7 803.2,54.2 803.6,53.7 804,53.1 804.4,52.5 804.7,51.9 804.9,51.2 805.1,50.6 805.2,49.9 805.3,49.2" />
<path stroke="#000000" stroke-width="2" d="M 811.9,70" />
<path stroke="#000000" stroke-width="2" d="M 811.9,30 812.1,30 812.1,30.2 811.9,30.2 811.9,30" />
<path stroke="#000000" stroke-width="2" d="M 842.1,70" />
<path stroke="#000000" stroke-width="2" d="M 842.1,70 842.3,70 842.3,70.2 842.1,70.2 842.1,70" />
<path stroke="#000000" stroke-width="2" d="M 872.3,70" />
</svg>