<svg xmlns="http://www.w3.org/2000/svg" width="1264.9299425353179" height="130.0677395031967" style="fill:none; stroke-linecap:round;">
    <rect width="100%" height="100%" fill="#FFFFFF" />
<path stroke="#000000" stroke-width="2" d="M 550,75" />
<path stroke="#000000" stroke-width="2" d="M 20,30 20,70" />
<path stroke="#000000" stroke-width="2" d="M 26.7,70" />
<path stroke="#000000" stroke-width="2" d="M 36.7,50 29,68.5" />
<path stroke="#000000" stroke-width="2" d="M 66.7,70" />
<path stroke="#000000" stroke-width="2" d="M 66.7,50 74.3,31.5 82,50" />
<path stroke="#000000" stroke-width="2" d="M 82,50 84,49.9 85.6,49.6 86.9,49.1 87.7,48.6 88.3,47.9 88.6,47.2 88.6,46.4 88.5,45.7 88.1,45 87.6,44.4 87,43.9 86.3,43.5 85.6,43.3 84.8,43.4 84.1,43.7 83.4,44.2 82.8,45.1 82.4,46.4 82.1,48 82,50 82,65" />
<path stroke="#000000" stroke-width="2" d="M 118.6,70" />
<path stroke="#000000" stroke-width="2" d="M 138.6,30 123.3,67" />
<path stroke="#000000" stroke-width="2" d="M 145.3,70" />
<path stroke="#000000" stroke-width="2" d="M 145.3,30 160.6,67" />
<path stroke="#000000" stroke-width="2" d="M 167.3,70" />
<path stroke="#000000" stroke-width="2" d="M 167.3,20 167.5,20 167.5,20.2 167.3,20.2 167.3,20" />
<path stroke="#000000" stroke-width="2" d="M 197.5,70" />
<path stroke="#000000" stroke-width="2" d="M 197.5,30 197.5,70 208.8,58.7" />
<path stroke="#000000" stroke-width="2" d="M 215.4,70" />
<path stroke="#000000" stroke-width="2" d="M 215.4,20 235.4,20 227.8,38.5" />
<path stroke="#000000" stroke-width="2" d="M 265.4,70" />
<path stroke="#000000" stroke-width="2" d="M 275.4,30 274.6,30 273.7,30.1 272.8,30.2 272,30.5 271.2,30.8 270.4,31.1 269.6,31.6 268.9,32.1 268.3,32.6 267.6,33.2 267.1,33.9 266.6,34.6 266.1,35.4 265.8,36.2 265.5,37 265.3,37.8 265.1,38.7 265,39.6 265,40.4 265.1,41.3 265.3,42.2 265.5,43 265.8,43.8 266.1,44.6 266.6,45.4 267.1,46.1 267.6,46.7 268.3,47.4 268.9,47.9 269.6,48.4 270.4,48.9 271.2,49.2 272,49.5 272.8,49.8 273.7,49.9 274.6,50 294.6,50" />
<path stroke="#000000" stroke-width="2" d="M 324.6,70" />
<path stroke="#000000" stroke-width="2" d="M 324.6,70" />
<path stroke="#000000" stroke-width="2" d="M 324.6,70 325.7,70 326.7,70.2 327.5,70.4 328.2,70.7 328.8,71 329.2,71.5 329.6,71.9 329.8,72.5 329.8,73.1 329.8,73.8 329.7,74.4 329.5,75.2 329.1,76 328.7,76.8 328.2,77.6 327.6,78.4 327,79.3 326.3,80.2 325.4,81.1 324.6,82" />
<path stroke="#000000" stroke-width="2" d="M 359.8,70" />
<path stroke="#000000" stroke-width="2" d="M 359.8,70 360,70 360,70.2 359.8,70.2 359.8,70" />
<path stroke="#000000" stroke-width="2" d="M 366.7,70" />
<path stroke="#000000" stroke-width="2" d="M 370.7,30 387.7,47" />
<path stroke="#000000" stroke-width="2" d="M 404.7,30 365.1,69.6 364.2,69.6 363.3,69.7 362.5,69.8 361.6,70.1 360.8,70.3 360,70.7 359.2,71.2 358.5,71.7 357.9,72.2 357.2,72.8 356.7,73.5 356.2,74.2 355.8,75 355.4,75.8 355.1,76.6 354.9,77.4 354.7,78.3 354.6,79.2 354.6,80 354.7,80.9 354.9,81.8 355.1,82.6 355.4,83.4 355.8,84.2 356.2,85 356.7,85.7 357.2,86.3 357.9,87 358.5,87.5 359.2,88 360,88.5 360.8,88.8 361.6,89.1 362.5,89.4 363.3,89.5 364.2,89.6 368,98.8" />
<path stroke="#000000" stroke-width="2" d="M 368,98.8 369.9,101 371.3,102.9 372,104.6 372.3,106 372.2,107.3 371.8,108.3 371.1,109.1 370.2,109.6 369.1,110 368,110.1 366.9,110 365.9,109.6 364.9,109.1 364.2,108.3 363.8,107.3 363.7,106 364,104.6 364.8,102.9 366.1,101 368,98.8 371.8,89.6 391.8,89.6 391.8,93.6 391.8,94.1 391.9,94.6 392,95.1 392.1,95.6 392.3,96.1 392.5,96.6 392.8,97.1 393.1,97.5 393.4,97.9 393.8,98.3 394.2,98.6 394.6,98.9 395.1,99.2 395.5,99.4 396,99.6 396.5,99.7 397.1,99.8 397.6,99.8 398.1,99.8 398.6,99.8 399.1,99.7 399.6,99.6 400.1,99.4 400.6,99.2 401.1,98.9 401.5,98.6 401.9,98.3 402.3,97.9 402.6,97.5 402.9,97.1 403.2,96.6 403.4,96.1 403.6,95.6 403.7,95.1 403.8,94.6 403.8,94.1 403.8,89.1 403.8,109.1" />
<path stroke="#000000" stroke-width="2" d="M 411.3,70" />
<path stroke="#000000" stroke-width="2" d="M 411.3,20 411.3,40 411.3,34 411.3,33.1 411.4,32.3 411.6,31.4 411.8,30.6 412.1,29.7 412.4,28.9 412.9,28.2 413.4,27.5 413.9,26.8 414.6,26.2 415.2,25.6 415.9,25.1 416.7,24.7 417.5,24.3 418.3,24 419.1,23.8 420,23.6 420.9,23.6" />
<path stroke="#000000" stroke-width="2" d="M 450.9,70" />
<path stroke="#000000" stroke-width="2" d="M 450.9,40" />
<path stroke="#000000" stroke-width="2" d="M 450.9,40 454.9,39.8 458.2,39.2 460.6,38.3 462.4,37.1 463.5,35.8 464.1,34.3 464.2,32.8 463.8,31.4 463.1,30 462.1,28.8 460.9,27.7 459.5,27 458,26.7 456.5,26.8 455.1,27.3 453.8,28.5 452.6,30.2 451.7,32.7 451.1,35.9 450.9,40 450.9,70" />
<path stroke="#000000" stroke-width="2" d="M 470.9,70" />
<path stroke="#000000" stroke-width="2" d="M 470.9,35" />
<path stroke="#000000" stroke-width="2" d="M 470.9,35 472.9,34.9 474.5,34.6 475.7,34.1 476.6,33.6 477.2,32.9 477.5,32.2 477.5,31.4 477.3,30.7 477,30 476.5,29.4 475.9,28.9 475.2,28.5 474.4,28.3 473.7,28.4 473,28.7 472.3,29.2 471.7,30.1 471.3,31.4 471,33 470.9,35 470.9,50 463.2,68.5" />
<path stroke="#000000" stroke-width="2" d="M 484.2,70" />
<path stroke="#000000" stroke-width="2" d="M 484.2,20 484.2,40 484.2,34 484.2,33.1 484.3,32.3 484.4,31.4 484.6,30.6 484.9,29.7 485.3,28.9 485.7,28.2 486.2,27.5 486.8,26.8 487.4,26.2 488.1,25.6 488.8,25.1 489.5,24.7 490.3,24.3 491.2,24 492,23.8 492.9,23.6 493.7,23.6" />
<path stroke="#000000" stroke-width="2" d="M 523.7,70" />
<path stroke="#000000" stroke-width="2" d="M 523.7,30 523.7,70" />
<path stroke="#000000" stroke-width="2" d="M 530.4,70" />
<path stroke="#000000" stroke-width="2" d="M 535.4,20 530.4,20 530.4,40" />
<path stroke="#000000" stroke-width="2" d="M 542.1,70" />
<path stroke="#000000" stroke-width="2" d="M 542.1,20 549.7,38.5" />
<path stroke="#000000" stroke-width="2" d="M 556.4,70" />
<path stroke="#000000" stroke-width="2" d="M 556.4,20 556.6,20 556.6,20.2 556.4,20.2 556.4,20" />
<path stroke="#000000" stroke-width="2" d="M 586.6,70" />
<path stroke="#000000" stroke-width="2" d="M 586.6,30 586.6,70 586.6,58 586.6,56.3 586.7,54.5 587,52.8 587.5,51.1 588.1,49.5 588.8,47.9 589.7,46.4 590.7,45 591.8,43.6 593.1,42.4 594.4,41.3 595.8,40.3 597.3,39.4 598.9,38.7 600.5,38.1 602.2,37.6 604,37.3 605.7,37.1" />
<path stroke="#000000" stroke-width="2" d="M 612.4,70" />
<path stroke="#000000" stroke-width="2" d="M 612.4,25" />
<path stroke="#000000" stroke-width="2" d="M 612.4,25 614.4,24.9 616,24.6 617.2,24.1 618.1,23.6 618.7,22.9 619,22.2 619,21.4 618.8,20.7 618.5,20 618,19.4 617.4,18.9 616.7,18.5 615.9,18.3 615.2,18.4 614.5,18.7 613.8,19.2 613.2,20.1 612.8,21.4 612.5,23 612.4,25 612.4,40" />
<path stroke="#000000" stroke-width="2" d="M 625.7,70" />
<path stroke="#000000" stroke-width="2" d="M 625.7,20 645.7,20 638,38.5 643,38.5 643,58.5" />
<path stroke="#000000" stroke-width="2" d="M 652.3,70" />
<path stroke="#000000" stroke-width="2" d="M 652.3,50 652.3,50.7 652.4,51.4 652.5,52.1 652.7,52.8 652.9,53.4 653.2,54 653.6,54.6 654,55.2 654.4,55.8 654.9,56.2 655.5,56.7 656,57.1 656.6,57.4 657.3,57.7 657.9,58 658.6,58.2 659.3,58.3 660,58.3 660.7,58.3 661.4,58.3 662.1,58.2 662.7,58 663.4,57.7 664,57.4 664.6,57.1 665.2,56.7 665.7,56.2 666.2,55.8 666.7,55.2 667.1,54.6 667.4,54 667.7,53.4 668,52.8 668.1,52.1 668.3,51.4 668.3,50.7" />
<path stroke="#000000" stroke-width="2" d="M 698.3,70" />
<path stroke="#000000" stroke-width="2" d="M 698.3,70 698.5,70 698.5,70.2 698.3,70.2 698.3,70" />
<path stroke="#000000" stroke-width="2" d="M 728.5,70" />
<path stroke="#000000" stroke-width="2" d="M 728.5,40 728.7,40 728.7,40.2 728.5,40.2 728.5,40" />
<path stroke="#000000" stroke-width="2" d="M 735.4,70" />
<path stroke="#000000" stroke-width="2" d="M 751.4,30" />
<path stroke="#000000" stroke-width="2" d="M 751.4,30 751.2,34.1 750.6,37.3 749.7,39.8 748.5,41.5 747.2,42.7 745.7,43.2 744.2,43.3 742.8,43 741.4,42.3 740.1,41.2 739.1,40 738.4,38.6 738.1,37.2 738.2,35.7 738.7,34.2 739.9,32.9 741.6,31.7 744.1,30.8 747.3,30.2 751.4,30 771.4,30" />
<path stroke="#000000" stroke-width="2" d="M 778.1,70" />
<path stroke="#000000" stroke-width="2" d="M 778.1,50 798.1,50" />
<path stroke="#000000" stroke-width="2" d="M 804.7,70" />
<path stroke="#000000" stroke-width="2" d="M 806.7,50 812.1,37.1 812.2,36.7 812.3,36.4 812.4,36.1 812.4,35.7 812.5,35.4 812.4,35 812.4,34.7 812.3,34.3 812.2,34 812.1,33.7 811.9,33.4 811.7,33.1 811.5,32.8 811.3,32.5 811,32.3 810.8,32.1 810.5,31.9 810.2,31.7 809.8,31.6 809.5,31.5 809.2,31.4 808.8,31.4 808.5,31.4 808.1,31.4 807.8,31.4 807.4,31.5 807.1,31.6 806.8,31.7 806.5,31.9 806.2,32.1 805.9,32.3 805.6,32.5 805.4,32.8 805.2,33.1 805,33.4 804.8,33.7 804.7,34 804.6,34.3 804.5,34.7 804.5,35 804.5,35.4 804.5,35.7 804.5,36.1 804.6,36.4 804.7,36.7 804.8,37.1 805,37.4 805.2,37.7 805.4,37.9 805.6,38.2 805.9,38.4 806.2,38.7 806.5,38.8 806.8,39 807.1,39.1 807.4,39.2 807.8,39.3 808.1,39.4 808.5,39.4 808.8,39.4 821.7,34" />
<path stroke="#000000" stroke-width="2" d="M 821.7,34 823.8,33.9 825.4,33.6 826.6,33.1 827.5,32.6 828.1,31.9 828.4,31.2 828.4,30.4 828.2,29.7 827.9,29 827.4,28.4 826.8,27.9 826.1,27.5 825.3,27.3 824.6,27.4 823.9,27.7 823.2,28.2 822.6,29.1 822.1,30.4 821.9,32 821.7,34 821.7,49" />
<path stroke="#000000" stroke-width="2" d="M 858.4,70" />
<path stroke="#000000" stroke-width="2" d="M 858.4,30 858.4,70 858.4,58 858.4,56.3 858.6,54.5 858.9,52.8 859.3,51.1 859.9,49.5 860.6,47.9 861.5,46.4 862.5,45 863.6,43.6 864.9,42.4 866.2,41.3 867.6,40.3 869.1,39.4 870.7,38.7 872.4,38.1 874.1,37.6 875.8,37.3 877.5,37.1" />
<path stroke="#000000" stroke-width="2" d="M 884.2,70" />
<path stroke="#000000" stroke-width="2" d="M 884.2,20 884.2,20.7 884.2,21.4 884.4,22.1 884.5,22.8 884.8,23.4 885.1,24 885.4,24.6 885.8,25.2 886.3,25.8 886.8,26.2 887.3,26.7 887.9,27.1 888.5,27.4 889.1,27.7 889.8,28 890.4,28.2 891.1,28.3 891.8,28.3 892.5,28.3 893.2,28.3 893.9,28.2 894.6,28 895.2,27.7 895.9,27.4 896.5,27.1 897,26.7 897.6,26.2 898.1,25.8 898.5,25.2 898.9,24.6 899.3,24 899.6,23.4 899.8,22.8 900,22.1 900.1,21.4 900.2,20.7" />
<path stroke="#000000" stroke-width="2" d="M 906.8,70" />
<path stroke="#000000" stroke-width="2" d="M 906.8,35" />
<path stroke="#000000" stroke-width="2" d="M 906.8,35 908.9,34.9 910.5,34.6 911.7,34.1 912.6,33.6 913.2,32.9 913.4,32.2 913.5,31.4 913.3,30.7 913,30 912.5,29.4 911.8,28.9 911.1,28.5 910.4,28.3 909.7,28.4 908.9,28.7 908.3,29.2 907.7,30.1 907.2,31.4 906.9,33 906.8,35 906.8,50 896.9,59.9 906.8,69.8" />
<path stroke="#000000" stroke-width="2" d="M 920.1,70" />
<path stroke="#000000" stroke-width="2" d="M 920.1,20 921,20 921.9,20.1 922.7,20.2 923.6,20.5 924.4,20.8 925.2,21.1 926,21.6 926.7,22.1 927.3,22.6 928,23.2 928.5,23.9 929,24.6 929.5,25.4 929.8,26.2 930.1,27 930.3,27.8 930.5,28.7 930.6,29.6 930.6,30.4 930.5,31.3 930.3,32.2 930.1,33 929.8,33.8 929.5,34.6 929,35.4 928.5,36.1 928,36.7 927.3,37.4 926.7,37.9 926,38.4 925.2,38.9 924.4,39.2 923.6,39.5 922.7,39.8 921.9,39.9 921,40" />
<path stroke="#000000" stroke-width="2" d="M 960.6,70" />
<path stroke="#000000" stroke-width="2" d="M 960.6,50 968.2,31.5 975.9,50 995.9,50 996.8,50 997.6,50.1 998.5,50.2 999.3,50.5 1000.1,50.8 1000.9,51.1 1001.7,51.6 1002.4,52.1 1003.1,52.6 1003.7,53.2 1004.3,53.9 1004.8,54.6 1005.2,55.4 1005.6,56.2 1005.9,57 1006.1,57.8 1006.2,58.7 1006.3,59.6 1006.3,60.4 1006.2,61.3 1006.1,62.2 1005.9,63 1005.6,63.8 1005.2,64.6 1004.8,65.4 1004.3,66.1 1003.7,66.7 1003.1,67.4 1002.4,67.9 1001.7,68.4 1000.9,68.9 1000.1,69.2 999.3,69.5 998.5,69.8 997.6,69.9 996.8,70" />
<path stroke="#000000" stroke-width="2" d="M 1036.3,70" />
<path stroke="#000000" stroke-width="2" d="M 1044.3,30" />
<path stroke="#000000" stroke-width="2" d="M 1044.3,30 1044.2,32 1043.9,33.6 1043.4,34.9 1042.9,35.8 1042.2,36.3 1041.5,36.6 1040.7,36.7 1040,36.5 1039.3,36.1 1038.7,35.6 1038.2,35 1037.8,34.3 1037.7,33.6 1037.7,32.8 1038,32.1 1038.5,31.4 1039.4,30.9 1040.7,30.4 1042.3,30.1 1044.3,30 1054.3,30 1054.3,30.7 1054.4,31.4 1054.5,32.1 1054.7,32.8 1054.9,33.4 1055.2,34 1055.6,34.6 1056,35.2 1056.4,35.8 1056.9,36.2 1057.4,36.7 1058,37.1 1058.6,37.4 1059.2,37.7 1059.9,38 1060.6,38.2 1061.3,38.3 1062,38.3 1062.6,38.3 1063.3,38.3 1064,38.2 1064.7,38 1065.4,37.7 1066,37.4 1066.6,37.1 1067.2,36.7 1067.7,36.2 1068.2,35.8 1068.6,35.2 1069,34.6 1069.4,34 1069.7,33.4 1069.9,32.8 1070.1,32.1 1070.2,31.4 1070.3,30.7" />
<path stroke="#000000" stroke-width="2" d="M 1077,70" />
<path stroke="#000000" stroke-width="2" d="M 1079,20 1087.4,28.5" />
<path stroke="#000000" stroke-width="2" d="M 1095.9,20 1076.1,39.8 1081.5,26.9 1081.6,26.5 1081.7,26.2 1081.8,25.9 1081.8,25.5 1081.9,25.2 1081.8,24.8 1081.8,24.5 1081.7,24.1 1081.6,23.8 1081.5,23.5 1081.3,23.2 1081.1,22.9 1080.9,22.6 1080.7,22.3 1080.4,22.1 1080.2,21.9 1079.9,21.7 1079.6,21.5 1079.2,21.4 1078.9,21.3 1078.6,21.2 1078.2,21.2 1077.9,21.2 1077.5,21.2 1077.2,21.2 1076.8,21.3 1076.5,21.4 1076.2,21.5 1075.9,21.7 1075.6,21.9 1075.3,22.1 1075,22.3 1074.8,22.6 1074.6,22.9 1074.4,23.2 1074.2,23.5 1074.1,23.8 1074,24.1 1073.9,24.5 1073.9,24.8 1073.9,25.2 1073.9,25.5 1073.9,25.9 1074,26.2 1074.1,26.5 1074.2,26.9 1074.4,27.2 1074.6,27.5 1074.8,27.7 1075,28 1075.3,28.2 1075.6,28.5 1075.9,28.6 1076.2,28.8 1076.5,28.9 1076.8,29 1077.2,29.1 1077.5,29.2 1077.9,29.2 1078.2,29.2 1091.1,23.8 1092,23.8 1092.9,23.9 1093.7,24 1094.6,24.3 1095.4,24.6 1096.2,24.9 1097,25.4 1097.7,25.9 1098.3,26.4 1099,27 1099.5,27.7 1100,28.4 1100.5,29.2 1100.8,30 1101.1,30.8 1101.3,31.6 1101.5,32.5 1101.6,33.4 1101.6,34.2 1101.5,35.1 1101.3,36 1101.1,36.8 1100.8,37.6 1100.5,38.4 1100,39.2 1099.5,39.9 1099,40.5 1098.3,41.2 1097.7,41.7 1097,42.2 1096.2,42.7 1095.4,43 1094.6,43.3 1093.7,43.6 1092.9,43.7 1092,43.8" />
<path stroke="#000000" stroke-width="2" d="M 1131.6,70" />
<path stroke="#000000" stroke-width="2" d="M 1131.6,30 1131.6,50 1141.6,50 1161.6,50" />
<path stroke="#000000" stroke-width="2" d="M 1191.6,70" />
<path stroke="#000000" stroke-width="2" d="M 1191.6,70 1191.8,70 1191.8,70.2 1191.6,70.2 1191.6,70" />
<path stroke="#000000" stroke-width="2" d="M 1198.4,70" />
<path stroke="#000000" stroke-width="2" d="M 1198.4,30 1200.2,30 1201.9,30.2 1203.6,30.5 1205.3,30.9 1207,31.5 1208.5,32.2 1210.1,33.1 1211.5,34.1 1212.8,35.2 1214.1,36.5 1215.2,37.8 1216.2,39.2 1217.1,40.7 1217.8,42.3 1218.4,44 1218.8,45.7 1219.1,47.4 1219.3,49.1 1219.3,50.9 1219.1,52.6 1218.8,54.3 1218.4,56 1217.8,57.6 1217.1,59.2 1216.2,60.7 1215.2,62.2 1214.1,63.5 1212.8,64.7 1211.5,65.8 1210.1,66.8 1208.5,67.7 1207,68.5 1205.3,69.1 1203.6,69.5 1201.9,69.8 1200.2,70" />
<path stroke="#000000" stroke-width="2" d="M 1226,70" />
<path stroke="#000000" stroke-width="2" d="M 1228,20 1236.4,28.5" />
<path stroke="#000000" stroke-width="2" d="M 1244.9,20 1225.1,39.8" />
<path stroke="#000000" stroke-width="2" d="M 1274.9,70" />
</svg>