<svg xmlns="http://www.w3.org/2000/svg" width="1091.0684472559178" height="90.00000000000001" style="fill:none; stroke-linecap:round;">
    <rect width="100%" height="100%" fill="#FFFFFF" />
<path stroke="#000000" stroke-width="2" d="M 550,75" />
<path stroke="#000000" stroke-width="2" d="M 20,30 20,70 31.3,58.7" />
<path stroke="#000000" stroke-width="2" d="M 38,70" />
<path stroke="#000000" stroke-width="2" d="M 38,20 58,20" />
<path stroke="#000000" stroke-width="2" d="M 88,70" />
<path stroke="#000000" stroke-width="2" d="M 108,70 109.7,70 111.5,69.8 113.2,69.5 114.9,69.1 116.5,68.5 118.1,67.8 119.6,66.9 121,65.9 122.4,64.8 123.6,63.5 124.7,62.2 125.7,60.8 126.6,59.3 127.3,57.7 127.9,56 128.4,54.3 128.7,52.6 128.8,50.9 128.8,49.1 128.7,47.4 128.4,45.7 127.9,44 127.3,42.4 126.6,40.8 125.7,39.3 124.7,37.8 123.6,36.5 122.4,35.3 121,34.2 119.6,33.2 118.1,32.3 116.5,31.5 114.9,30.9 113.2,30.5 111.5,30.2 109.7,30 108,30 106.2,30.2 104.5,30.5 102.8,30.9 101.2,31.5 99.6,32.3 98.1,33.2 96.7,34.2 95.3,35.3 94.1,36.5 93,37.8 92,39.3 91.1,40.8 90.4,42.4 89.8,44 89.3,45.7 89,47.4 88.9,49.1 88.9,50.9 89,52.6 89.3,54.3 89.8,56 90.4,57.7 91.1,59.3 92,60.8 93,62.2 94.1,63.5 95.3,64.8 96.7,65.9 98.1,66.9 99.6,67.8 101.2,68.5 102.8,69.1 104.5,69.5 106.2,69.8 108,70" />
<path stroke="#000000" stroke-width="2" d="M 135.5,70" />
<path stroke="#000000" stroke-width="2" d="M 137.5,20 146,28.5" />
<path stroke="#000000" stroke-width="2" d="M 154.5,20 134.7,39.8 135.5,39.8 136.4,39.9 137.3,40 138.1,40.3 138.9,40.6 139.7,40.9 140.5,41.4 141.2,41.9 141.9,42.4 142.5,43 143,43.7 143.5,44.4 144,45.2 144.3,46 144.6,46.8 144.9,47.6 145,48.5 145.1,49.4 145.1,50.2 145,51.1 144.9,52 144.6,52.8 144.3,53.6 144,54.4 143.5,55.2 143,55.9 142.5,56.5 141.9,57.2 141.2,57.7 140.5,58.2 139.7,58.7 138.9,59 138.1,59.3 137.3,59.6 136.4,59.7 135.5,59.8" />
<path stroke="#000000" stroke-width="2" d="M 184.5,70" />
<path stroke="#000000" stroke-width="2" d="M 184.5,35" />
<path stroke="#000000" stroke-width="2" d="M 184.5,35 186.5,34.9 188.1,34.6 189.3,34.1 190.2,33.6 190.8,32.9 191.1,32.2 191.1,31.4 191,30.7 190.6,30 190.1,29.4 189.5,28.9 188.8,28.5 188.1,28.3 187.3,28.4 186.6,28.7 185.9,29.2 185.3,30.1 184.9,31.4 184.6,33 184.5,35 184.5,50 176.8,68.5" />
<path stroke="#000000" stroke-width="2" d="M 197.8,70" />
<path stroke="#000000" stroke-width="2" d="M 205.8,50" />
<path stroke="#000000" stroke-width="2" d="M 205.8,50 205.7,52 205.4,53.6 204.9,54.9 204.4,55.8 203.7,56.3 203,56.6 202.2,56.7 201.5,56.5 200.8,56.1 200.2,55.6 199.7,55 199.3,54.3 199.1,53.6 199.2,52.8 199.5,52.1 200,51.4 200.9,50.9 202.1,50.4 203.8,50.1 205.8,50 215.8,50 216.7,50 217.5,50.1 218.4,50.2 219.2,50.5 220.1,50.8 220.8,51.1 221.6,51.6 222.3,52.1 223,52.6 223.6,53.2 224.2,53.9 224.7,54.6 225.1,55.4 225.5,56.2 225.8,57 226,57.8 226.1,58.7 226.2,59.6 226.2,60.4 226.1,61.3 226,62.2 225.8,63 225.5,63.8 225.1,64.6 224.7,65.4 224.2,66.1 223.6,66.7 223,67.4 222.3,67.9 221.6,68.4 220.8,68.9 220.1,69.2 219.2,69.5 218.4,69.8 217.5,69.9 216.7,70" />
<path stroke="#000000" stroke-width="2" d="M 256.2,70" />
<path stroke="#000000" stroke-width="2" d="M 276.2,30 260.9,67" />
<path stroke="#000000" stroke-width="2" d="M 282.9,70" />
<path stroke="#000000" stroke-width="2" d="M 282.9,50 282.9,70 282.9,64 282.9,63.1 283,62.3 283.1,61.4 283.3,60.6 283.6,59.7 284,58.9 284.4,58.2 284.9,57.5 285.5,56.8 286.1,56.2 286.8,55.6 287.5,55.1 288.3,54.7 289,54.3 289.9,54 290.7,53.8 291.6,53.6 292.4,53.6" />
<path stroke="#000000" stroke-width="2" d="M 299.1,70" />
<path stroke="#000000" stroke-width="2" d="M 299.1,25" />
<path stroke="#000000" stroke-width="2" d="M 299.1,25 301.1,24.9 302.8,24.6 304,24.1 304.9,23.6 305.4,22.9 305.7,22.2 305.8,21.4 305.6,20.7 305.2,20 304.7,19.4 304.1,18.9 303.4,18.5 302.7,18.3 301.9,18.4 301.2,18.7 300.5,19.2 300,20.1 299.5,21.4 299.2,23 299.1,25 299.1,40 291.5,58.5" />
<path stroke="#000000" stroke-width="2" d="M 335.8,70" />
<path stroke="#000000" stroke-width="2" d="M 335.8,30 355.8,30 356.6,30 357.5,30.1 358.4,30.2 359.2,30.5 360,30.8 360.8,31.1 361.6,31.6 362.3,32.1 363,32.6 363.6,33.2 364.1,33.9 364.6,34.6 365.1,35.4 365.4,36.2 365.7,37 366,37.8 366.1,38.7 366.2,39.6 366.2,40.4 366.1,41.3 366,42.2 365.7,43 365.4,43.8 365.1,44.6 364.6,45.4 364.1,46.1 363.6,46.7 363,47.4 362.3,47.9 361.6,48.4 360.8,48.9 360,49.2 359.2,49.5 358.4,49.8 357.5,49.9 356.6,50" />
<path stroke="#000000" stroke-width="2" d="M 396.2,70" />
<path stroke="#000000" stroke-width="2" d="M 396.2,30 436.2,30" />
<path stroke="#000000" stroke-width="2" d="M 442.9,70" />
<path stroke="#000000" stroke-width="2" d="M 442.9,50 442.9,70 448.5,64.3" />
<path stroke="#000000" stroke-width="2" d="M 478.5,70" />
<path stroke="#000000" stroke-width="2" d="M 478.5,30 478.5,31.4 478.6,32.8 478.9,34.2 479.2,35.5 479.7,36.8 480.3,38.1 481,39.3 481.8,40.4 482.7,41.5 483.7,42.5 484.8,43.4 485.9,44.2 487.1,44.9 488.4,45.5 489.7,46 491,46.3 492.4,46.6 493.8,46.7 495.2,46.7 496.6,46.6 498,46.3 499.3,46 500.6,45.5 501.9,44.9 503.1,44.2 504.2,43.4 505.3,42.5 506.3,41.5 507.2,40.4 508,39.3 508.7,38.1 509.3,36.8 509.8,35.5 510.1,34.2 510.4,32.8 510.5,31.4" />
<path stroke="#000000" stroke-width="2" d="M 517.1,70" />
<path stroke="#000000" stroke-width="2" d="M 517.1,30 517.3,30 517.3,30.2 517.1,30.2 517.1,30" />
<path stroke="#000000" stroke-width="2" d="M 547.3,70" />
<path stroke="#000000" stroke-width="2" d="M 547.3,30 547.3,70 558.7,58.7" />
<path stroke="#000000" stroke-width="2" d="M 565.3,70" />
<path stroke="#000000" stroke-width="2" d="M 585.3,70 587.1,70 588.8,69.8 590.5,69.5 592.2,69.1 593.9,68.5 595.4,67.8 596.9,66.9 598.4,65.9 599.7,64.8 600.9,63.5 602.1,62.2 603.1,60.8 603.9,59.3 604.7,57.7 605.3,56 605.7,54.3 606,52.6 606.2,50.9 606.2,49.1 606,47.4 605.7,45.7 605.3,44 604.7,42.4 603.9,40.8 603.1,39.3 602.1,37.8 600.9,36.5 599.7,35.3 598.4,34.2 596.9,33.2 595.4,32.3 593.9,31.5 592.2,30.9 590.5,30.5 588.8,30.2 587.1,30 585.3,30 583.6,30.2 581.9,30.5 580.2,30.9 578.5,31.5 577,32.3 575.5,33.2 574,34.2 572.7,35.3 571.5,36.5 570.3,37.8 569.3,39.3 568.5,40.8 567.7,42.4 567.1,44 566.7,45.7 566.4,47.4 566.2,49.1 566.2,50.9 566.4,52.6 566.7,54.3 567.1,56 567.7,57.7 568.5,59.3 569.3,60.8 570.3,62.2 571.5,63.5 572.7,64.8 574,65.9 575.5,66.9 577,67.8 578.5,68.5 580.2,69.1 581.9,69.5 583.6,69.8 585.3,70" />
<path stroke="#000000" stroke-width="2" d="M 636.2,70" />
<path stroke="#000000" stroke-width="2" d="M 652.2,30 632.4,49.8 652.2,69.6" />
<path stroke="#000000" stroke-width="2" d="M 658.8,70" />
<path stroke="#000000" stroke-width="2" d="M 658.8,20 658.8,40 658.8,34 658.8,33.1 658.9,32.3 659.1,31.4 659.3,30.6 659.6,29.7 660,28.9 660.4,28.2 660.9,27.5 661.5,26.8 662.1,26.2 662.8,25.6 663.5,25.1 664.2,24.7 665,24.3 665.8,24 666.7,23.8 667.5,23.6 668.4,23.6" />
<path stroke="#000000" stroke-width="2" d="M 698.4,70" />
<path stroke="#000000" stroke-width="2" d="M 714.4,30 694.6,49.8 714.4,69.6" />
<path stroke="#000000" stroke-width="2" d="M 721.1,70" />
<path stroke="#000000" stroke-width="2" d="M 721.1,20 721.9,20 722.8,20.1 723.7,20.2 724.5,20.5 725.3,20.8 726.1,21.1 726.9,21.6 727.6,22.1 728.3,22.6 728.9,23.2 729.4,23.9 729.9,24.6 730.4,25.4 730.7,26.2 731,27 731.3,27.8 731.4,28.7 731.5,29.6 731.5,30.4 731.4,31.3 731.3,32.2 731,33 730.7,33.8 730.4,34.6 729.9,35.4 729.4,36.1 728.9,36.7 728.3,37.4 727.6,37.9 726.9,38.4 726.1,38.9 725.3,39.2 724.5,39.5 723.7,39.8 722.8,39.9 721.9,40" />
<path stroke="#000000" stroke-width="2" d="M 761.5,70" />
<path stroke="#000000" stroke-width="2" d="M 761.5,30 781.5,30 782.4,30 783.2,30.1 784.1,30.2 784.9,30.5 785.8,30.8 786.5,31.1 787.3,31.6 788,32.1 788.7,32.6 789.3,33.2 789.9,33.9 790.4,34.6 790.8,35.4 791.2,36.2 791.5,37 791.7,37.8 791.8,38.7 791.9,39.6 791.9,40.4 791.8,41.3 791.7,42.2 791.5,43 791.2,43.8 790.8,44.6 790.4,45.4 789.9,46.1 789.3,46.7 788.7,47.4 788,47.9 787.3,48.4 786.5,48.9 785.8,49.2 784.9,49.5 784.1,49.8 783.2,49.9 782.4,50" />
<path stroke="#000000" stroke-width="2" d="M 821.9,70" />
<path stroke="#000000" stroke-width="2" d="M 831.9,30 831,30 830.2,30.1 829.3,30.2 828.5,30.5 827.7,30.8 826.9,31.1 826.1,31.6 825.4,32.1 824.7,32.6 824.1,33.2 823.6,33.9 823.1,34.6 822.6,35.4 822.2,36.2 821.9,37 821.7,37.8 821.6,38.7 821.5,39.6 821.5,40.4 821.6,41.3 821.7,42.2 821.9,43 822.2,43.8 822.6,44.6 823.1,45.4 823.6,46.1 824.1,46.7 824.7,47.4 825.4,47.9 826.1,48.4 826.9,48.9 827.7,49.2 828.5,49.5 829.3,49.8 830.2,49.9 831,50 851,50" />
<path stroke="#000000" stroke-width="2" d="M 881,70" />
<path stroke="#000000" stroke-width="2" d="M 881,30 891,30 891,70" />
<path stroke="#000000" stroke-width="2" d="M 897.7,70" />
<path stroke="#000000" stroke-width="2" d="M 897.7,50 897.7,70 897.7,64 897.7,63.1 897.8,62.3 897.9,61.4 898.2,60.6 898.5,59.7 898.8,58.9 899.3,58.2 899.8,57.5 900.3,56.8 901,56.2 901.6,55.6 902.3,55.1 903.1,54.7 903.9,54.3 904.7,54 905.5,53.8 906.4,53.6 907.3,53.6 907.3,54.3 907.3,55 907.5,55.7 907.6,56.3 907.9,57 908.2,57.6 908.5,58.2 908.9,58.8 909.4,59.3 909.9,59.8 910.4,60.3 911,60.7 911.6,61 912.2,61.3 912.9,61.6 913.5,61.7 914.2,61.9 914.9,61.9 915.6,61.9 916.3,61.9 917,61.7 917.7,61.6 918.3,61.3 919,61 919.6,60.7 920.1,60.3 920.7,59.8 921.2,59.3 921.6,58.8 922,58.2 922.4,57.6 922.7,57 922.9,56.3 923.1,55.7 923.2,55 923.3,54.3" />
<path stroke="#000000" stroke-width="2" d="M 929.9,70" />
<path stroke="#000000" stroke-width="2" d="M 929.9,20 929.9,24 929.9,24.5 930,25 930.1,25.6 930.2,26.1 930.4,26.6 930.6,27 930.9,27.5 931.2,27.9 931.5,28.3 931.9,28.7 932.3,29 932.7,29.3 933.1,29.6 933.6,29.8 934.1,30 934.6,30.1 935.1,30.2 935.7,30.3 936.2,30.3 936.7,30.2 937.2,30.1 937.7,30 938.2,29.8 938.7,29.6 939.1,29.3 939.6,29 940,28.7 940.3,28.3 940.7,27.9 941,27.5 941.2,27 941.5,26.6 941.6,26.1 941.8,25.6 941.9,25 941.9,24.5 941.9,19.5 941.9,39.5" />
<path stroke="#000000" stroke-width="2" d="M 971.9,70" />
<path stroke="#000000" stroke-width="2" d="M 971.9,50 979.6,31.5 987.2,50 982.2,50 982.2,70 982.2,69.1 982.3,68.3 982.4,67.4 982.7,66.6 983,65.7 983.3,64.9 983.8,64.2 984.3,63.5 984.8,62.8 985.5,62.2 986.1,61.6 986.8,61.1 987.6,60.7 988.4,60.3 989.2,60 990,59.8 990.9,59.6 991.8,59.6" />
<path stroke="#000000" stroke-width="2" d="M 998.4,70" />
<path stroke="#000000" stroke-width="2" d="M 998.4,55" />
<path stroke="#000000" stroke-width="2" d="M 998.4,55 1000.5,54.9 1002.1,54.6 1003.3,54.1 1004.2,53.6 1004.8,52.9 1005.1,52.2 1005.1,51.4 1004.9,50.7 1004.6,50 1004.1,49.4 1003.5,48.9 1002.8,48.5 1002,48.3 1001.3,48.4 1000.5,48.7 999.9,49.2 999.3,50.1 998.8,51.4 998.5,53 998.4,55 998.4,70" />
<path stroke="#000000" stroke-width="2" d="M 1035.1,70" />
<path stroke="#000000" stroke-width="2" d="M 1051.1,30 1031.3,49.8 1051.1,69.6" />
<path stroke="#000000" stroke-width="2" d="M 1057.8,70" />
<path stroke="#000000" stroke-width="2" d="M 1057.8,40" />
<path stroke="#000000" stroke-width="2" d="M 1057.8,40 1061.8,39.8 1065,39.2 1067.5,38.3 1069.3,37.1 1070.4,35.8 1071,34.3 1071.1,32.8 1070.7,31.4 1070,30 1069,28.8 1067.8,27.7 1066.4,27 1064.9,26.7 1063.4,26.8 1062,27.3 1060.6,28.5 1059.5,30.2 1058.6,32.7 1058,35.9 1057.8,40 1057.8,70" />
<path stroke="#000000" stroke-width="2" d="M 1101.1,70" />
</svg>