<svg xmlns="http://www.w3.org/2000/svg" width="1336.7760622193136" height="122.0" style="fill:none; stroke-linecap:round;">
    <rect width="100%" height="100%" fill="#FFFFFF" />
<path stroke="#000000" stroke-width="2" d="M 550,75" />
<path stroke="#000000" stroke-width="2" d="M 40,30 24.7,67" />
<path stroke="#000000" stroke-width="2" d="M 46.7,70" />
<path stroke="#000000" stroke-width="2" d="M 46.7,50 46.7,70 46.7,64 46.7,63.1 46.7,62.3 46.9,61.4 47.1,60.6 47.4,59.7 47.8,58.9 48.2,58.2 48.7,57.5 49.3,56.8 49.9,56.2 50.6,55.6 51.3,55.1 52,54.7 52.8,54.3 53.7,54 54.5,53.8 55.4,53.6 56.2,53.6" />
<path stroke="#000000" stroke-width="2" d="M 62.9,70" />
<path stroke="#000000" stroke-width="2" d="M 62.9,20 82.9,20 63.1,39.8 83.1,39.8" />
<path stroke="#000000" stroke-width="2" d="M 113.1,70" />
<path stroke="#000000" stroke-width="2" d="M 113.1,70 113.3,70 113.3,70.2 113.1,70.2 113.1,70" />
<path stroke="#000000" stroke-width="2" d="M 120,70" />
<path stroke="#000000" stroke-width="2" d="M 120,40" />
<path stroke="#000000" stroke-width="2" d="M 120,40 124,39.8 127.2,39.2 129.7,38.3 131.5,37.1 132.6,35.8 133.2,34.3 133.3,32.8 132.9,31.4 132.2,30 131.2,28.8 130,27.7 128.6,27 127.1,26.7 125.6,26.8 124.2,27.3 122.8,28.5 121.7,30.2 120.8,32.7 120.2,35.9 120,40 120,70" />
<path stroke="#000000" stroke-width="2" d="M 139.9,70" />
<path stroke="#000000" stroke-width="2" d="M 139.9,50 159.9,50" />
<path stroke="#000000" stroke-width="2" d="M 189.9,70" />
<path stroke="#000000" stroke-width="2" d="M 189.9,50 204.1,35.9 196.4,54.3" />
<path stroke="#000000" stroke-width="2" d="M 196.4,54.3 197.8,54.5 199.1,54.9 200.2,55.6 201.2,56.4 202,57.5 202.7,58.7 203.2,60 203.6,61.4 203.8,62.8 203.9,64.3 203.8,65.8 203.6,67.3 203.2,68.7 202.7,70 202,71.2 201.2,72.3 200.2,73.1 199.1,73.8 197.8,74.2 196.4,74.3" />
<path stroke="#000000" stroke-width="2" d="M 210.7,70" />
<path stroke="#000000" stroke-width="2" d="M 210.7,20 210.7,40 216.4,34.3 236.4,34.3" />
<path stroke="#000000" stroke-width="2" d="M 266.4,70" />
<path stroke="#000000" stroke-width="2" d="M 266.4,62 267.2,62 267.2,62.8 266.4,62.8 266.4,62" />
<path stroke="#000000" stroke-width="2" d="M 266.4,78" />
<path stroke="#000000" stroke-width="2" d="M 266.4,78 268.6,78.1 270.6,78.3 272.3,78.8 273.7,79.3 274.8,80.1 275.7,80.9 276.4,81.9 276.8,83 276.9,84.2 276.9,85.5 276.6,86.9 276.2,88.4 275.5,89.9 274.7,91.5 273.7,93.2 272.5,94.9 271.2,96.6 269.7,98.4 268.1,100.2 266.4,102" />
<path stroke="#000000" stroke-width="2" d="M 306.9,70" />
<path stroke="#000000" stroke-width="2" d="M 306.9,70 307.1,70 307.1,70.2 306.9,70.2 306.9,70" />
<path stroke="#000000" stroke-width="2" d="M 313.8,70" />
<path stroke="#000000" stroke-width="2" d="M 317.8,30 334.8,47" />
<path stroke="#000000" stroke-width="2" d="M 351.7,30 312.1,69.6" />
<path stroke="#000000" stroke-width="2" d="M 358.4,70" />
<path stroke="#000000" stroke-width="2" d="M 370.4,56" />
<path stroke="#000000" stroke-width="2" d="M 370.4,56 368.4,55.9 366.8,55.6 365.5,55.1 364.7,54.6 364.1,53.9 363.8,53.2 363.8,52.4 363.9,51.7 364.3,51 364.8,50.4 365.4,49.9 366.1,49.5 366.8,49.3 367.6,49.4 368.3,49.7 369,50.2 369.6,51.1 370,52.4 370.3,54 370.4,56 370.4,60" />
<path stroke="#000000" stroke-width="2" d="M 370.4,60 370.1,60.9 369.8,61.7 369.4,62.4 369,63.1 368.6,63.8 368.1,64.4 367.7,64.9 367.2,65.4 366.7,65.9 366.2,66.2 365.6,66.6 365.1,66.9 364.5,67.2 364,67.4 363.4,67.6 362.8,67.7 362.2,67.9 361.6,67.9 361,68 360.4,68 360.4,88 360.4,82 360.4,81.1 360.5,80.3 360.6,79.4 360.9,78.6 361.2,77.7 361.5,76.9 362,76.2 362.5,75.5 363,74.8 363.6,74.2 364.3,73.6 365,73.1 365.8,72.7 366.6,72.3 367.4,72 368.2,71.8 369.1,71.6 370,71.6" />
<path stroke="#000000" stroke-width="2" d="M 400.4,70" />
<path stroke="#000000" stroke-width="2" d="M 400.4,30 400.4,70 400.4,62 400.4,60.3 400.6,58.5 400.9,56.8 401.3,55.1 401.9,53.5 402.7,51.9 403.5,50.4 404.5,49 405.6,47.6 406.9,46.4 408.2,45.3 409.6,44.3" />
<path stroke="#000000" stroke-width="2" d="M 416.3,70" />
<path stroke="#000000" stroke-width="2" d="M 426.3,50 418.7,68.5" />
<path stroke="#000000" stroke-width="2" d="M 456.3,70" />
<path stroke="#000000" stroke-width="2" d="M 461.3,30" />
<path stroke="#000000" stroke-width="2" d="M 461.3,30 459.9,30.1 458.6,30.6 457.5,31.2 456.5,32.1 455.7,33.1 455,34.3 454.5,35.6 454.1,37 453.9,38.5 453.8,40 453.9,41.5 454.1,43 454.5,44.4 455,45.7 455.7,46.9 456.5,47.9 457.5,48.8 458.6,49.4 459.9,49.9 461.3,50 453.7,68.5" />
<path stroke="#000000" stroke-width="2" d="M 491.3,70" />
<path stroke="#000000" stroke-width="2" d="M 491.3,70 491.5,70 491.5,70.2 491.3,70.2 491.3,70" />
<path stroke="#000000" stroke-width="2" d="M 498.2,70" />
<path stroke="#000000" stroke-width="2" d="M 498.2,30 513.5,67" />
<path stroke="#000000" stroke-width="2" d="M 520.2,70" />
<path stroke="#000000" stroke-width="2" d="M 520.2,50 540.2,50" />
<path stroke="#000000" stroke-width="2" d="M 570.2,70" />
<path stroke="#000000" stroke-width="2" d="M 590.2,30 574.8,67" />
<path stroke="#000000" stroke-width="2" d="M 596.8,70" />
<path stroke="#000000" stroke-width="2" d="M 596.8,50 596.8,70" />
<path stroke="#000000" stroke-width="2" d="M 603.5,70" />
<path stroke="#000000" stroke-width="2" d="M 603.5,20 603.5,24 603.5,24.5 603.5,25 603.6,25.6 603.8,26.1 603.9,26.6 604.2,27 604.4,27.5 604.7,27.9 605.1,28.3 605.4,28.7 605.8,29 606.3,29.3 606.7,29.6 607.2,29.8 607.7,30 608.2,30.1 608.7,30.2 609.2,30.3 609.7,30.3 610.3,30.2 610.8,30.1 611.3,30 611.8,29.8 612.3,29.6 612.7,29.3 613.1,29 613.5,28.7 613.9,28.3 614.2,27.9 614.5,27.5 614.8,27 615,26.6 615.2,26.1 615.3,25.6 615.4,25 615.5,24.5 615.5,19.5 615.5,39.5" />
<path stroke="#000000" stroke-width="2" d="M 622.1,70" />
<path stroke="#000000" stroke-width="2" d="M 622.1,30 662.1,30" />
<path stroke="#000000" stroke-width="2" d="M 692.1,70" />
<path stroke="#000000" stroke-width="2" d="M 692.1,70 692.3,70 692.3,70.2 692.1,70.2 692.1,70" />
<path stroke="#000000" stroke-width="2" d="M 699,70" />
<path stroke="#000000" stroke-width="2" d="M 699,30 739,30" />
<path stroke="#000000" stroke-width="2" d="M 745.7,70" />
<path stroke="#000000" stroke-width="2" d="M 765.7,30 750.4,67" />
<path stroke="#000000" stroke-width="2" d="M 795.7,70" />
<path stroke="#000000" stroke-width="2" d="M 795.7,70 795.9,70 795.9,70.2 795.7,70.2 795.7,70" />
<path stroke="#000000" stroke-width="2" d="M 825.9,70" />
<path stroke="#000000" stroke-width="2" d="M 845.9,70 847.6,70 849.4,69.8 851.1,69.5 852.8,69.1 854.4,68.5 856,67.8 857.5,66.9 858.9,65.9 860.3,64.8 861.5,63.5 862.6,62.2 863.6,60.8 864.5,59.3 865.2,57.7 865.8,56 866.3,54.3 866.6,52.6 866.7,50.9 866.7,49.1 866.6,47.4 866.3,45.7 865.8,44 865.2,42.4 864.5,40.8 863.6,39.3 862.6,37.8 861.5,36.5 860.3,35.3 858.9,34.2 857.5,33.2 856,32.3 854.4,31.5 852.8,30.9 851.1,30.5 849.4,30.2 847.6,30 845.9,30 844.1,30.2 842.4,30.5 840.7,30.9 839.1,31.5 837.5,32.3 836,33.2 834.6,34.2 833.2,35.3 832,36.5 830.9,37.8 829.9,39.3 829,40.8 828.3,42.4 827.7,44 827.2,45.7 826.9,47.4 826.8,49.1 826.8,50.9 826.9,52.6 827.2,54.3 827.7,56 828.3,57.7 829,59.3 829.9,60.8 830.9,62.2 832,63.5 833.2,64.8 834.6,65.9 836,66.9 837.5,67.8 839.1,68.5 840.7,69.1 842.4,69.5 844.1,69.8 845.9,70" />
<path stroke="#000000" stroke-width="2" d="M 873.4,70" />
<path stroke="#000000" stroke-width="2" d="M 873.4,55" />
<path stroke="#000000" stroke-width="2" d="M 873.4,55 875.4,54.9 877,54.6 878.3,54.1 879.2,53.6 879.7,52.9 880,52.2 880.1,51.4 879.9,50.7 879.5,50 879,49.4 878.4,48.9 877.7,48.5 877,48.3 876.2,48.4 875.5,48.7 874.8,49.2 874.3,50.1 873.8,51.4 873.5,53 873.4,55 873.4,70" />
<path stroke="#000000" stroke-width="2" d="M 910.1,70" />
<path stroke="#000000" stroke-width="2" d="M 910.1,70" />
<path stroke="#000000" stroke-width="2" d="M 910.1,70 911.2,70 912.2,70.2 913,70.4 913.7,70.7 914.3,71 914.7,71.5 915,71.9 915.2,72.5 915.3,73.1 915.3,73.8 915.2,74.4 914.9,75.2 914.6,76 914.2,76.8 913.7,77.6 913.1,78.4 912.5,79.3 911.7,80.2 910.9,81.1 910.1,82" />
<path stroke="#000000" stroke-width="2" d="M 945.3,70" />
<path stroke="#000000" stroke-width="2" d="M 945.3,70 945.5,70 945.5,70.2 945.3,70.2 945.3,70" />
<path stroke="#000000" stroke-width="2" d="M 952.2,70" />
<path stroke="#000000" stroke-width="2" d="M 962.2,30 954.5,48.5 954.5,68.5 960.2,62.8" />
<path stroke="#000000" stroke-width="2" d="M 968.9,70" />
<path stroke="#000000" stroke-width="2" d="M 968.9,50 969.1,50 969.1,50.2 968.9,50.2 968.9,50" />
<path stroke="#000000" stroke-width="2" d="M 999.1,70" />
<path stroke="#000000" stroke-width="2" d="M 1009.1,30 1009.6,30 1010.1,30 1010.6,30.1 1011.1,30.3 1011.6,30.5 1012.1,30.7 1012.5,30.9 1013,31.2 1013.4,31.6 1013.7,31.9 1014.1,32.3 1014.4,32.8 1014.6,33.2 1014.9,33.7 1015,34.2 1015.2,34.7 1015.3,35.2 1015.3,35.7 1015.3,36.3 1015.3,36.8 1015.2,37.3 1015,37.8 1014.9,38.3 1014.6,38.8 1014.4,39.2 1014.1,39.6 1013.7,40 1013.4,40.4 1013,40.8 1012.5,41.1 1012.1,41.3 1011.6,41.5 1011.1,41.7 1010.6,41.9 1010.1,41.9 1009.6,42 1009.1,42 1008.5,41.9 1008,41.9 1007.5,41.7 1007,41.5 1006.5,41.3 1006.1,41.1 1005.7,40.8 1005.3,40.4 1004.9,40 1004.6,39.6 1004.3,39.2 1004,38.8 1003.8,38.3 1003.6,37.8 1003.5,37.3 1003.4,36.8 1003.3,36.3 1003.3,35.7 1003.4,35.2 1003.5,34.7 1003.6,34.2 1003.8,33.7 1004,33.2 1004.3,32.8 1004.6,32.3 1004.9,31.9 1005.3,31.6 1005.7,31.2 1006.1,30.9 1006.5,30.7 1007,30.5 1007.5,30.3 1008,30.1 1008.5,30 1009.1,30 1009.1,50 1001.4,68.5 1003.7,62.9 1004,62.1 1004.4,61.4 1004.9,60.6 1005.4,59.9 1006,59.3 1006.7,58.7 1007.4,58.2 1008.1,57.7 1008.9,57.3 1009.7,57 1010.5,56.7 1011.4,56.5" />
<path stroke="#000000" stroke-width="2" d="M 1011.4,56.5 1013.4,56.4 1015,56.1 1016.2,55.6 1017.1,55.1 1017.7,54.4 1018,53.7 1018,52.9 1017.8,52.2 1017.5,51.5 1017,50.9 1016.4,50.4 1015.7,50 1014.9,49.9 1014.2,49.9 1013.5,50.2 1012.8,50.7 1012.2,51.6 1011.8,52.9 1011.5,54.5 1011.4,56.5 1011.4,71.5" />
<path stroke="#000000" stroke-width="2" d="M 1048,70" />
<path stroke="#000000" stroke-width="2" d="M 1048,30 1063.3,67" />
<path stroke="#000000" stroke-width="2" d="M 1070,70" />
<path stroke="#000000" stroke-width="2" d="M 1070,30 1090,30 1082.3,48.5" />
<path stroke="#000000" stroke-width="2" d="M 1096.7,70" />
<path stroke="#000000" stroke-width="2" d="M 1096.7,30 1116.7,30" />
<path stroke="#000000" stroke-width="2" d="M 1116.7,30 1118.1,30.1 1119.4,30.6 1120.5,31.2 1121.5,32.1 1122.3,33.1 1123,34.3 1123.5,35.6 1123.9,37 1124.1,38.5 1124.2,40 1124.1,41.5 1123.9,43 1123.5,44.4 1123,45.7 1122.3,46.9 1121.5,47.9 1120.5,48.8 1119.4,49.4 1118.1,49.9 1116.7,50" />
<path stroke="#000000" stroke-width="2" d="M 1154.2,70" />
<path stroke="#000000" stroke-width="2" d="M 1154.2,30 1154.2,70" />
<path stroke="#000000" stroke-width="2" d="M 1160.8,70" />
<path stroke="#000000" stroke-width="2" d="M 1160.8,20 1160.8,20.7 1160.9,21.4 1161,22.1 1161.2,22.8 1161.4,23.4 1161.7,24 1162.1,24.6 1162.5,25.2 1162.9,25.8 1163.4,26.2 1163.9,26.7 1164.5,27.1 1165.1,27.4 1165.8,27.7 1166.4,28 1167.1,28.2 1167.8,28.3 1168.5,28.3 1169.2,28.3 1169.9,28.3 1170.5,28.2 1171.2,28 1171.9,27.7 1172.5,27.4 1173.1,27.1 1173.7,26.7 1174.2,26.2 1174.7,25.8 1175.2,25.2 1175.6,24.6 1175.9,24 1176.2,23.4 1176.4,22.8 1176.6,22.1 1176.7,21.4 1176.8,20.7" />
<path stroke="#000000" stroke-width="2" d="M 1183.5,70" />
<path stroke="#000000" stroke-width="2" d="M 1183.5,20 1203.5,20" />
<path stroke="#000000" stroke-width="2" d="M 1203.5,20 1205.5,19.9 1207.1,19.6 1208.4,19.1 1209.2,18.6 1209.8,17.9 1210.1,17.2 1210.1,16.4 1210,15.7 1209.6,15 1209.1,14.4 1208.5,13.9 1207.8,13.5 1207.1,13.3 1206.3,13.4 1205.6,13.7 1204.9,14.2 1204.3,15.1 1203.9,16.4 1203.6,18 1203.5,20 1203.5,35" />
<path stroke="#000000" stroke-width="2" d="M 1240.1,70" />
<path stroke="#000000" stroke-width="2" d="M 1240.1,30 1250.1,30 1250.1,70" />
<path stroke="#000000" stroke-width="2" d="M 1256.8,70" />
<path stroke="#000000" stroke-width="2" d="M 1256.8,50 1256.8,70 1256.8,64 1256.8,63.1 1256.9,62.3 1257,61.4 1257.2,60.6 1257.5,59.7 1257.9,58.9 1258.4,58.2 1258.9,57.5 1259.4,56.8 1260,56.2 1260.7,55.6 1261.4,55.1 1262.2,54.7 1263,54.3 1263.8,54 1264.6,53.8 1265.5,53.6 1266.3,53.6" />
<path stroke="#000000" stroke-width="2" d="M 1296.3,70" />
<path stroke="#000000" stroke-width="2" d="M 1306.3,50 1307.2,50 1308.1,49.9 1308.9,49.8 1309.8,49.5 1310.6,49.2 1311.4,48.9 1312.2,48.4 1312.9,47.9 1313.5,47.4 1314.2,46.8 1314.7,46.1 1315.2,45.4 1315.7,44.6 1316,43.8 1316.3,43 1316.5,42.2 1316.7,41.3 1316.8,40.4 1316.8,39.6 1316.7,38.7 1316.5,37.8 1316.3,37 1316,36.2 1315.7,35.4 1315.2,34.6 1314.7,33.9 1314.2,33.3 1313.5,32.6 1312.9,32.1 1312.2,31.6 1311.4,31.1 1310.6,30.8 1309.8,30.5 1308.9,30.2 1308.1,30.1 1307.2,30 1306.3,30 1305.5,30.1 1304.6,30.2 1303.8,30.5 1303,30.8 1302.2,31.1 1301.4,31.6 1300.7,32.1 1300,32.6 1299.4,33.3 1298.9,33.9 1298.4,34.6 1297.9,35.4 1297.5,36.2 1297.2,37 1297,37.8 1296.9,38.7 1296.8,39.6 1296.8,40.4 1296.9,41.3 1297,42.2 1297.2,43 1297.5,43.8 1297.9,44.6 1298.4,45.4 1298.9,46.1 1299.4,46.8 1300,47.4 1300.7,47.9 1301.4,48.4 1302.2,48.9 1303,49.2 1303.8,49.5 1304.6,49.8 1305.5,49.9 1306.3,50 1306.3,70 1306.3,64 1306.3,63.1 1306.4,62.3 1306.6,61.4 1306.8,60.6 1307.1,59.7 1307.5,58.9 1307.9,58.2 1308.4,57.5 1309,56.8 1309.6,56.2 1310.3,55.6 1311,55.1 1311.7,54.7 1312.5,54.3 1313.3,54 1314.2,53.8 1315,53.6 1315.9,53.6" />
<path stroke="#000000" stroke-width="2" d="M 1346.8,70" />
</svg>