<svg xmlns="http://www.w3.org/2000/svg" width="1155.608466794813" height="95.25219854001061" style="fill:none; stroke-linecap:round;">
    <rect width="100%" height="100%" fill="#FFFFFF" />
<path stroke="#000000" stroke-width="2" d="M 550,75" />
<path stroke="#000000" stroke-width="2" d="M 20,35" />
<path stroke="#000000" stroke-width="2" d="M 20,35 22,34.9 23.6,34.6 24.9,34.1 25.8,33.6 26.3,32.9 26.6,32.2 26.7,31.4 26.5,30.7 26.1,30 25.6,29.4 25,28.9 24.3,28.5 23.6,28.3 22.8,28.4 22.1,28.7 21.4,29.2 20.9,30.1 20.4,31.4 20.1,33 20,35 20,50 20,50.7 20.1,51.4 20.2,52.1 20.4,52.8 20.6,53.4 20.9,54 21.2,54.6 21.6,55.2 22.1,55.8 22.6,56.2 23.1,56.7 23.7,57.1 24.3,57.4 24.9,57.7 25.6,58 26.3,58.2 26.9,58.3 27.6,58.3 28.3,58.3 29,58.3 29.7,58.2 30.4,58 31.1,57.7 31.7,57.4 32.3,57.1 32.9,56.7 33.4,56.2 33.9,55.8 34.3,55.2 34.7,54.6 35.1,54 35.4,53.4 35.6,52.8 35.8,52.1 35.9,51.4 36,50.7" />
<path stroke="#000000" stroke-width="2" d="M 42.7,70" />
<path stroke="#000000" stroke-width="2" d="M 52.7,30 45,48.5 45,49.2 45.1,49.9 45.2,50.6 45.4,51.2 45.6,51.9 45.9,52.5 46.2,53.1 46.6,53.7 47.1,54.2 47.6,54.7 48.1,55.2 48.7,55.6 49.3,55.9 49.9,56.2 50.6,56.5 51.3,56.6 51.9,56.8 52.6,56.8 53.3,56.8 54,56.8 54.7,56.6 55.4,56.5 56.1,56.2 56.7,55.9 57.3,55.6 57.9,55.2 58.4,54.7 58.9,54.2 59.3,53.7 59.7,53.1 60.1,52.5 60.4,51.9 60.6,51.2 60.8,50.6 60.9,49.9 61,49.2" />
<path stroke="#000000" stroke-width="2" d="M 67.6,70" />
<path stroke="#000000" stroke-width="2" d="M 67.6,30 67.8,30 67.8,30.2 67.6,30.2 67.6,30" />
<path stroke="#000000" stroke-width="2" d="M 97.8,70" />
<path stroke="#000000" stroke-width="2" d="M 97.8,35" />
<path stroke="#000000" stroke-width="2" d="M 97.8,35 99.9,34.9 101.5,34.6 102.7,34.1 103.6,33.6 104.2,32.9 104.5,32.2 104.5,31.4 104.3,30.7 104,30 103.5,29.4 102.9,28.9 102.2,28.5 101.4,28.3 100.7,28.4 100,28.7 99.3,29.2 98.7,30.1 98.3,31.4 98,33 97.8,35 97.8,50 90.2,68.5" />
<path stroke="#000000" stroke-width="2" d="M 111.2,70" />
<path stroke="#000000" stroke-width="2" d="M 111.2,70 111.2,69.3 111.2,68.6 111.4,67.9 111.5,67.2 111.8,66.6 112.1,66 112.4,65.4 112.8,64.8 113.3,64.2 113.8,63.8 114.3,63.3 114.9,62.9 115.5,62.6 116.1,62.3 116.8,62 117.4,61.8 118.1,61.7 118.8,61.7 119.5,61.7 120.2,61.7 120.9,61.8 121.6,62 122.2,62.3 122.9,62.6 123.5,62.9 124,63.3 124.6,63.8 125.1,64.2 125.5,64.8 125.9,65.4 126.3,66 126.6,66.6 126.8,67.2 127,67.9 127.1,68.6 127.2,69.3" />
<path stroke="#000000" stroke-width="2" d="M 133.8,70" />
<path stroke="#000000" stroke-width="2" d="M 133.8,30 134,30 134,30.2 133.8,30.2 133.8,30" />
<path stroke="#000000" stroke-width="2" d="M 164,70" />
<path stroke="#000000" stroke-width="2" d="M 164,30 164,70 175.3,58.7" />
<path stroke="#000000" stroke-width="2" d="M 182,70" />
<path stroke="#000000" stroke-width="2" d="M 202,70 203.7,70 205.5,69.8 207.2,69.5 208.9,69.1 210.5,68.5 212.1,67.8 213.6,66.9 215,65.9 216.4,64.8 217.6,63.5 218.7,62.2 219.7,60.8 220.6,59.3 221.4,57.7 221.9,56 222.4,54.3 222.7,52.6 222.9,50.9 222.9,49.1 222.7,47.4 222.4,45.7 221.9,44 221.4,42.4 220.6,40.8 219.7,39.3 218.7,37.8 217.6,36.5 216.4,35.3 215,34.2 213.6,33.2 212.1,32.3 210.5,31.5 208.9,30.9 207.2,30.5 205.5,30.2 203.7,30 202,30 200.3,30.2 198.5,30.5 196.9,30.9 195.2,31.5 193.6,32.3 192.1,33.2 190.7,34.2 189.4,35.3 188.1,36.5 187,37.8 186,39.3 185.1,40.8 184.4,42.4 183.8,44 183.3,45.7 183,47.4 182.9,49.1 182.9,50.9 183,52.6 183.3,54.3 183.8,56 184.4,57.7 185.1,59.3 186,60.8 187,62.2 188.1,63.5 189.4,64.8 190.7,65.9 192.1,66.9 193.6,67.8 195.2,68.5 196.9,69.1 198.5,69.5 200.3,69.8 202,70" />
<path stroke="#000000" stroke-width="2" d="M 252.9,70" />
<path stroke="#000000" stroke-width="2" d="M 252.9,30 262.9,30 262.9,70" />
<path stroke="#000000" stroke-width="2" d="M 269.5,70" />
<path stroke="#000000" stroke-width="2" d="M 269.5,20 269.5,40 269.5,34 269.5,33.1 269.6,32.3 269.7,31.4 270,30.6 270.3,29.7 270.6,28.9 271.1,28.2 271.6,27.5 272.1,26.8 272.8,26.2 273.4,25.6 274.1,25.1 274.9,24.7 275.7,24.3 276.5,24 277.3,23.8 278.2,23.6 279.1,23.6 279.1,24.3 279.1,25 279.3,25.7 279.4,26.3 279.7,27 280,27.6 280.3,28.2 280.7,28.8 281.2,29.3 281.7,29.8 282.2,30.3 282.8,30.7 283.4,31 284,31.3 284.7,31.6 285.3,31.7 286,31.9 286.7,31.9 287.4,31.9 288.1,31.9 288.8,31.7 289.5,31.6 290.1,31.3 290.8,31 291.4,30.7 291.9,30.3 292.5,29.8 293,29.3 293.4,28.8 293.8,28.2 294.2,27.6 294.5,27 294.7,26.3 294.9,25.7 295,25 295.1,24.3" />
<path stroke="#000000" stroke-width="2" d="M 301.7,70" />
<path stroke="#000000" stroke-width="2" d="M 301.7,30 301.9,30 301.9,30.2 301.7,30.2 301.7,30" />
<path stroke="#000000" stroke-width="2" d="M 331.9,70" />
<path stroke="#000000" stroke-width="2" d="M 331.9,30 331.9,70 343.2,58.7" />
<path stroke="#000000" stroke-width="2" d="M 349.9,70" />
<path stroke="#000000" stroke-width="2" d="M 349.9,30 351.7,30 353.4,30.2 355.1,30.5 356.8,30.9 358.4,31.5 360,32.2 361.5,33.1 363,34.1 364.3,35.2 365.5,36.5 366.6,37.8 367.6,39.2 368.5,40.7 369.3,42.3 369.9,44 370.3,45.7 370.6,47.4 370.8,49.1 370.8,50.9 370.6,52.6 370.3,54.3 369.9,56 369.3,57.6 368.5,59.2 367.6,60.7 366.6,62.2 365.5,63.5 364.3,64.7 363,65.8 361.5,66.8 360,67.7 358.4,68.5 356.8,69.1 355.1,69.5 353.4,69.8 351.7,70" />
<path stroke="#000000" stroke-width="2" d="M 400.8,70" />
<path stroke="#000000" stroke-width="2" d="M 416.8,30 416.8,60" />
<path stroke="#000000" stroke-width="2" d="M 416.8,60 416.5,64.1 416,67.3 415,69.8 413.9,71.5 412.5,72.7 411.1,73.2 409.6,73.3 408.1,73 406.7,72.3 405.5,71.2 404.5,70 403.8,68.6 403.5,67.2 403.5,65.7 404.1,64.2 405.2,62.9 407,61.7 409.5,60.8 412.7,60.2 416.8,60" />
<path stroke="#000000" stroke-width="2" d="M 423.4,70" />
<path stroke="#000000" stroke-width="2" d="M 423.4,50 423.4,50.7 423.5,51.4 423.6,52.1 423.8,52.8 424,53.4 424.3,54 424.7,54.6 425.1,55.2 425.5,55.8 426,56.2 426.6,56.7 427.1,57.1 427.7,57.4 428.4,57.7 429,58 429.7,58.2 430.4,58.3 431.1,58.3 431.8,58.3 432.5,58.3 433.2,58.2 433.8,58 434.5,57.7 435.1,57.4 435.7,57.1 436.3,56.7 436.8,56.2 437.3,55.8 437.8,55.2 438.2,54.6 438.5,54 438.8,53.4 439.1,52.8 439.2,52.1 439.4,51.4 439.4,50.7 440.3,50.7 441.2,50.8 442,50.9 442.9,51.2 443.7,51.4 444.5,51.8 445.2,52.3 445.9,52.8 446.6,53.3 447.2,53.9 447.8,54.6 448.3,55.3 448.7,56.1 449.1,56.9 449.4,57.7 449.6,58.5 449.8,59.4 449.8,60.3 449.8,61.1 449.8,62 449.6,62.9 449.4,63.7 449.1,64.5 448.7,65.3 448.3,66.1 447.8,66.8 447.2,67.4 446.6,68.1 445.9,68.6 445.2,69.1 444.5,69.6 443.7,69.9 442.9,70.2 442,70.5 441.2,70.6 440.3,70.7 440.3,69.8 440.4,68.9 440.5,68.1 440.7,67.2 441,66.4 441.4,65.6 441.8,64.9 442.3,64.2 442.9,63.5 443.5,62.9 444.2,62.3 444.9,61.8 445.7,61.4 446.4,61 447.3,60.7 448.1,60.5 449,60.3 449.8,60.3" />
<path stroke="#000000" stroke-width="2" d="M 449.8,60.3 451.9,60.1 453.5,59.8 454.7,59.4 455.6,58.8 456.2,58.1 456.5,57.4 456.5,56.7 456.3,55.9 456,55.2 455.5,54.6 454.9,54.1 454.2,53.8 453.4,53.6 452.7,53.6 451.9,53.9 451.3,54.5 450.7,55.4 450.2,56.6 449.9,58.2 449.8,60.3 449.8,75.3" />
<path stroke="#000000" stroke-width="2" d="M 486.5,70" />
<path stroke="#000000" stroke-width="2" d="M 486.5,30 506.5,30 507.4,30 508.2,30.1 509.1,30.2 509.9,30.5 510.8,30.8 511.5,31.1 512.3,31.6 513,32.1 513.7,32.6 514.3,33.2 514.9,33.9 515.4,34.6 515.8,35.4 516.2,36.2 516.5,37 516.7,37.8 516.8,38.7 516.9,39.6 516.9,40.4 516.8,41.3 516.7,42.2 516.5,43 516.2,43.8 515.8,44.6 515.4,45.4 514.9,46.1 514.3,46.7 513.7,47.4 513,47.9 512.3,48.4 511.5,48.9 510.8,49.2 509.9,49.5 509.1,49.8 508.2,49.9 507.4,50" />
<path stroke="#000000" stroke-width="2" d="M 546.9,70" />
<path stroke="#000000" stroke-width="2" d="M 546.9,40 547.1,40 547.1,40.2 546.9,40.2 546.9,40" />
<path stroke="#000000" stroke-width="2" d="M 553.8,70" />
<path stroke="#000000" stroke-width="2" d="M 553.8,30 553.8,70" />
<path stroke="#000000" stroke-width="2" d="M 560.5,70" />
<path stroke="#000000" stroke-width="2" d="M 560.5,20 560.5,40 560.5,34 560.5,33.1 560.5,32.3 560.7,31.4 560.9,30.6 561.2,29.7 561.6,28.9 562,28.2 562.5,27.5 563.1,26.8 563.7,26.2 564.4,25.6 565.1,25.1 565.8,24.7 566.6,24.3 567.4,24 568.3,23.8 569.1,23.6 570,23.6" />
<path stroke="#000000" stroke-width="2" d="M 576.7,70" />
<path stroke="#000000" stroke-width="2" d="M 576.7,20 576.7,20.7 576.7,21.4 576.9,22.1 577,22.8 577.3,23.4 577.6,24 577.9,24.6 578.3,25.2 578.8,25.8 579.3,26.2 579.8,26.7 580.4,27.1 581,27.4 581.6,27.7 582.3,28 582.9,28.2 583.6,28.3 584.3,28.3 585,28.3 585.7,28.3 586.4,28.2 587.1,28 587.7,27.7 588.4,27.4 589,27.1 589.5,26.7 590.1,26.2 590.6,25.8 591,25.2 591.4,24.6 591.8,24 592.1,23.4 592.3,22.8 592.5,22.1 592.6,21.4 592.7,20.7" />
<path stroke="#000000" stroke-width="2" d="M 622.7,70" />
<path stroke="#000000" stroke-width="2" d="M 622.7,30 642.5,49.8 622.7,69.6" />
<path stroke="#000000" stroke-width="2" d="M 649.1,70" />
<path stroke="#000000" stroke-width="2" d="M 649.1,25" />
<path stroke="#000000" stroke-width="2" d="M 649.1,25 651.2,24.9 652.8,24.6 654,24.1 654.9,23.6 655.5,22.9 655.7,22.2 655.8,21.4 655.6,20.7 655.3,20 654.8,19.4 654.1,18.9 653.4,18.5 652.7,18.3 652,18.4 651.2,18.7 650.6,19.2 650,20.1 649.5,21.4 649.2,23 649.1,25 649.1,40 641.5,58.5" />
<path stroke="#000000" stroke-width="2" d="M 685.8,70" />
<path stroke="#000000" stroke-width="2" d="M 685.8,30 705.8,30 706.7,30 707.5,30.1 708.4,30.2 709.2,30.5 710,30.8 710.8,31.1 711.6,31.6 712.3,32.1 713,32.6 713.6,33.2 714.1,33.9 714.6,34.6 715.1,35.4 715.5,36.2 715.8,37 716,37.8 716.1,38.7 716.2,39.6 716.2,40.4 716.1,41.3 716,42.2 715.8,43 715.5,43.8 715.1,44.6 714.6,45.4 714.1,46.1 713.6,46.7 713,47.4 712.3,47.9 711.6,48.4 710.8,48.9 710,49.2 709.2,49.5 708.4,49.8 707.5,49.9 706.7,50" />
<path stroke="#000000" stroke-width="2" d="M 746.2,70" />
<path stroke="#000000" stroke-width="2" d="M 762.2,30 742.4,49.8 762.2,69.6" />
<path stroke="#000000" stroke-width="2" d="M 768.9,70" />
<path stroke="#000000" stroke-width="2" d="M 768.9,20 769.7,20 770.6,20.1 771.5,20.2 772.3,20.5 773.1,20.8 773.9,21.1 774.7,21.6 775.4,22.1 776.1,22.6 776.7,23.2 777.2,23.9 777.7,24.6 778.2,25.4 778.5,26.2 778.8,27 779.1,27.8 779.2,28.7 779.3,29.6 779.3,30.4 779.2,31.3 779.1,32.2 778.8,33 778.5,33.8 778.2,34.6 777.7,35.4 777.2,36.1 776.7,36.7 776.1,37.4 775.4,37.9 774.7,38.4 773.9,38.9 773.1,39.2 772.3,39.5 771.5,39.8 770.6,39.9 769.7,40" />
<path stroke="#000000" stroke-width="2" d="M 809.3,70" />
<path stroke="#000000" stroke-width="2" d="M 825.3,30 825.3,60" />
<path stroke="#000000" stroke-width="2" d="M 825.3,60 825.1,64.1 824.5,67.3 823.6,69.8 822.4,71.5 821.1,72.7 819.6,73.2 818.1,73.3 816.7,73 815.3,72.3 814,71.2 813,70 812.3,68.6 812,67.2 812.1,65.7 812.6,64.2 813.8,62.9 815.5,61.7 818,60.8 821.2,60.2 825.3,60" />
<path stroke="#000000" stroke-width="2" d="M 832,70" />
<path stroke="#000000" stroke-width="2" d="M 832,50 832,50.7 832,51.4 832.1,52.1 832.3,52.8 832.6,53.4 832.9,54 833.2,54.6 833.6,55.2 834.1,55.8 834.6,56.2 835.1,56.7 835.7,57.1 836.3,57.4 836.9,57.7 837.6,58 838.2,58.2 838.9,58.3 839.6,58.3 840.3,58.3 841,58.3 841.7,58.2 842.4,58 843,57.7 843.7,57.4 844.3,57.1 844.8,56.7 845.4,56.2 845.9,55.8 846.3,55.2 846.7,54.6 847.1,54 847.3,53.4 847.6,52.8 847.8,52.1 847.9,51.4 848,50.7 848.8,50.7 849.7,50.8 850.6,50.9 851.4,51.2 852.2,51.4 853,51.8 853.8,52.3 854.5,52.8 855.1,53.3 855.8,53.9 856.3,54.6 856.8,55.3 857.3,56.1 857.6,56.9 857.9,57.7 858.2,58.5 858.3,59.4 858.4,60.3 858.4,61.1 858.3,62 858.2,62.9 857.9,63.7 857.6,64.5 857.3,65.3 856.8,66.1 856.3,66.8 855.8,67.4 855.1,68.1 854.5,68.6 853.8,69.1 853,69.6 852.2,69.9 851.4,70.2 850.6,70.5 849.7,70.6 848.8,70.7 848.8,69.8 848.9,68.9 849.1,68.1 849.3,67.2 849.6,66.4 849.9,65.6 850.4,64.9 850.9,64.2 851.4,63.5 852.1,62.9 852.7,62.3 853.4,61.8 854.2,61.4 855,61 855.8,60.7 856.6,60.5 857.5,60.3 858.4,60.3" />
<path stroke="#000000" stroke-width="2" d="M 888.4,70" />
<path stroke="#000000" stroke-width="2" d="M 888.4,30 888.4,31.4 888.5,32.8 888.7,34.2 889.1,35.5 889.6,36.8 890.2,38.1 890.9,39.3 891.7,40.4 892.6,41.5 893.6,42.5 894.6,43.4 895.8,44.2 897,44.9 898.2,45.5 899.6,46 900.9,46.3 902.3,46.6 903.7,46.7 905.1,46.7 906.5,46.6 907.8,46.3 909.2,46 910.5,45.5 911.8,44.9 913,44.2 914.1,43.4 915.2,42.5 916.2,41.5 917.1,40.4 917.9,39.3 918.6,38.1 919.1,36.8 919.6,35.5 920,34.2 920.2,32.8 920.3,31.4" />
<path stroke="#000000" stroke-width="2" d="M 927,70" />
<path stroke="#000000" stroke-width="2" d="M 939,26 939,26.5 939,27 938.9,27.6 938.7,28.1 938.6,28.6 938.3,29 938.1,29.5 937.8,29.9 937.4,30.3 937.1,30.7 936.7,31 936.2,31.3 935.8,31.6 935.3,31.8 934.8,32 934.3,32.1 933.8,32.2 933.3,32.3 932.8,32.3 932.2,32.2 931.7,32.1 931.2,32 930.7,31.8 930.2,31.6 929.8,31.3 929.4,31 929,30.7 928.6,30.3 928.3,29.9 928,29.5 927.7,29 927.5,28.6 927.3,28.1 927.2,27.6 927.1,27 927,26.5 927,26 927.1,25.5 927.2,25 927.3,24.5 927.5,24 927.7,23.5 928,23 928.3,22.6 928.6,22.2 929,21.8 929.4,21.5 929.8,21.2 930.2,20.9 930.7,20.7 931.2,20.5 931.7,20.4 932.2,20.3 932.8,20.3 933.3,20.3 933.8,20.3 934.3,20.4 934.8,20.5 935.3,20.7 935.8,20.9 936.2,21.2 936.7,21.5 937.1,21.8 937.4,22.2 937.8,22.6 938.1,23 938.3,23.5 938.6,24 938.7,24.5 938.9,25 939,25.5 939,26 939,30" />
<path stroke="#000000" stroke-width="2" d="M 939,30 938.7,30.9 938.4,31.7 938,32.4 937.6,33.1 937.2,33.8 936.7,34.4 936.3,34.9 935.8,35.4 935.3,35.9 934.8,36.2 934.2,36.6 933.7,36.9 933.1,37.2 932.6,37.4 932,37.6 931.4,37.7 930.8,37.9 930.2,37.9 929.6,38 929,38 929.9,38 930.8,38.1 931.6,38.2 932.5,38.5 933.3,38.8 934.1,39.1 934.8,39.6 935.5,40.1 936.2,40.6 936.8,41.2 937.4,41.9 937.9,42.6 938.3,43.4 938.7,44.2 939,45 939.2,45.8 939.4,46.7 939.4,47.6 939.4,48.4 939.4,49.3 939.2,50.2 939,51 938.7,51.8 938.3,52.6 937.9,53.4 937.4,54.1 936.8,54.7 936.2,55.4 935.5,55.9 934.8,56.4 934.1,56.9 933.3,57.2 932.5,57.5 931.6,57.8 930.8,57.9 929.9,58 929,58 928.1,57.9 927.3,57.8 926.4,57.5 925.6,57.2 924.8,56.9 924.1,56.4 923.4,55.9 922.7,55.4 922.1,54.7 921.5,54.1 921,53.4 920.6,52.6 920.2,51.8 919.9,51 919.7,50.2 919.5,49.3 919.5,48.4 919.5,47.6 919.5,46.7 919.7,45.8 919.9,45 920.2,44.2 920.6,43.4 921,42.6 921.5,41.9 922.1,41.2 922.7,40.6 923.4,40.1 924.1,39.6 924.8,39.1 925.6,38.8 926.4,38.5 927.3,38.2 928.1,38.1 929,38" />
<path stroke="#000000" stroke-width="2" d="M 969.4,70" />
<path stroke="#000000" stroke-width="2" d="M 969.4,30 969.4,70 969.4,58 969.4,56.3 969.6,54.5 969.9,52.8 970.3,51.1 970.9,49.5 971.7,47.9 972.6,46.4 973.6,45 974.7,43.6 975.9,42.4 977.2,41.3 978.7,40.3 980.2,39.4 981.8,38.7 983.4,38.1 985.1,37.6 986.8,37.3 988.5,37.1" />
<path stroke="#000000" stroke-width="2" d="M 995.2,70" />
<path stroke="#000000" stroke-width="2" d="M 995.2,20 996.1,20 997,20.1 997.8,20.2 998.7,20.5 999.5,20.8 1000.3,21.1 1001,21.6 1001.7,22.1 1002.4,22.6 1003,23.2 1003.6,23.9 1004.1,24.6 1004.5,25.4 1004.9,26.2 1005.2,27 1005.4,27.8 1005.6,28.7 1005.6,29.6 1005.6,30.4 1005.6,31.3 1005.4,32.2 1005.2,33 1004.9,33.8 1004.5,34.6 1004.1,35.4 1003.6,36.1 1003,36.7 1002.4,37.4 1001.7,37.9 1001,38.4 1000.3,38.9 999.5,39.2 998.7,39.5 997.8,39.8 997,39.9 996.1,40" />
<path stroke="#000000" stroke-width="2" d="M 1012.3,70" />
<path stroke="#000000" stroke-width="2" d="M 1020.3,30 1020.3,45" />
<path stroke="#000000" stroke-width="2" d="M 1020.3,45 1020.2,47 1019.9,48.6 1019.4,49.9 1018.9,50.8 1018.2,51.3 1017.5,51.6 1016.7,51.7 1016,51.5 1015.3,51.1 1014.7,50.6 1014.2,50 1013.8,49.3 1013.7,48.6 1013.7,47.8 1014,47.1 1014.5,46.4 1015.4,45.9 1016.7,45.4 1018.3,45.1 1020.3,45 1020.3,65 1020.3,65.7 1020.4,66.4 1020.5,67.1 1020.7,67.8 1020.9,68.4 1021.2,69 1021.6,69.6 1022,70.2 1022.4,70.8 1022.9,71.2 1023.4,71.7 1024,72.1 1024.6,72.4 1025.2,72.7 1025.9,73 1026.6,73.2 1027.3,73.3 1028,73.3 1028.7,73.3 1029.3,73.3 1030,73.2 1030.7,73 1031.4,72.7 1032,72.4 1032.6,72.1 1033.2,71.7 1033.7,71.2 1034.2,70.8 1034.6,70.2 1035,69.6 1035.4,69 1035.7,68.4 1035.9,67.8 1036.1,67.1 1036.2,66.4 1036.3,65.7" />
<path stroke="#000000" stroke-width="2" d="M 1043,70" />
<path stroke="#000000" stroke-width="2" d="M 1043,50 1063,50 1063.8,50 1064.7,50.1 1065.6,50.2 1066.4,50.5 1067.2,50.8 1068,51.1 1068.8,51.6 1069.5,52.1 1070.2,52.6 1070.8,53.2 1071.3,53.9 1071.8,54.6 1072.3,55.4 1072.6,56.2 1072.9,57 1073.2,57.8 1073.3,58.7 1073.4,59.6 1073.4,60.4 1073.3,61.3 1073.2,62.2 1072.9,63 1072.6,63.8 1072.3,64.6 1071.8,65.4 1071.3,66.1 1070.8,66.7 1070.2,67.4 1069.5,67.9 1068.8,68.4 1068,68.9 1067.2,69.2 1066.4,69.5 1065.6,69.8 1064.7,69.9 1063.8,70" />
<path stroke="#000000" stroke-width="2" d="M 1103.4,70" />
<path stroke="#000000" stroke-width="2" d="M 1119.4,30 1099.6,49.8 1119.4,69.6" />
<path stroke="#000000" stroke-width="2" d="M 1126.1,70" />
<path stroke="#000000" stroke-width="2" d="M 1126.1,20 1126.1,40 1126.1,34 1126.1,33.1 1126.1,32.3 1126.3,31.4 1126.5,30.6 1126.8,29.7 1127.2,28.9 1127.6,28.2 1128.1,27.5 1128.7,26.8 1129.3,26.2 1130,25.6 1130.7,25.1 1131.4,24.7 1132.2,24.3 1133,24 1133.9,23.8 1134.7,23.6 1135.6,23.6" />
<path stroke="#000000" stroke-width="2" d="M 1165.6,70" />
</svg>