<svg xmlns="http://www.w3.org/2000/svg" width="1237.6545203221337" height="107.77968045238036" style="fill:none; stroke-linecap:round;">
    <rect width="100%" height="100%" fill="#FFFFFF" />
<path stroke="#000000" stroke-width="2" d="M 550,75" />
<path stroke="#000000" stroke-width="2" d="M 36,30 36,60" />
<path stroke="#000000" stroke-width="2" d="M 36,60 35.8,64.1 35.2,67.3 34.3,69.8 33.1,71.5 31.8,72.7 30.3,73.2 28.8,73.3 27.4,73 26,72.3 24.8,71.2 23.7,70 23,68.6 22.7,67.2 22.8,65.7 23.3,64.2 24.5,62.9 26.2,61.7 28.7,60.8 31.9,60.2 36,60" />
<path stroke="#000000" stroke-width="2" d="M 42.7,70" />
<path stroke="#000000" stroke-width="2" d="M 42.7,20 50.3,38.5 58,20" />
<path stroke="#000000" stroke-width="2" d="M 64.6,70" />
<path stroke="#000000" stroke-width="2" d="M 64.6,50 64.6,70 70.3,64.3" />
<path stroke="#000000" stroke-width="2" d="M 77,70" />
<path stroke="#000000" stroke-width="2" d="M 77,20 77.8,20 78.7,20.1 79.6,20.2 80.4,20.5 81.2,20.8 82,21.1 82.8,21.6 83.5,22.1 84.2,22.6 84.8,23.2 85.3,23.9 85.8,24.6 86.3,25.4 86.6,26.2 86.9,27 87.2,27.8 87.3,28.7 87.4,29.6 87.4,30.4 87.3,31.3 87.2,32.2 86.9,33 86.6,33.8 86.3,34.6 85.8,35.4 85.3,36.1 84.8,36.7 84.2,37.4 83.5,37.9 82.8,38.4 82,38.9 81.2,39.2 80.4,39.5 79.6,39.8 78.7,39.9 77.8,40" />
<path stroke="#000000" stroke-width="2" d="M 117.4,70" />
<path stroke="#000000" stroke-width="2" d="M 137.4,70 139.1,70 140.9,69.8 142.6,69.5 144.3,69.1 145.9,68.5 147.5,67.8 149,66.9 150.4,65.9 151.8,64.8 153,63.5 154.1,62.2 155.1,60.8 156,59.3 156.7,57.7 157.3,56 157.8,54.3 158.1,52.6 158.2,50.9 158.2,49.1 158.1,47.4 157.8,45.7 157.3,44 156.7,42.4 156,40.8 155.1,39.3 154.1,37.8 153,36.5 151.8,35.3 150.4,34.2 149,33.2 147.5,32.3 145.9,31.5 144.3,30.9 142.6,30.5 140.9,30.2 139.1,30 137.4,30 135.7,30.2 133.9,30.5 132.2,30.9 130.6,31.5 129,32.3 127.5,33.2 126.1,34.2 124.8,35.3 123.5,36.5 122.4,37.8 121.4,39.3 120.5,40.8 119.8,42.4 119.2,44 118.7,45.7 118.4,47.4 118.3,49.1 118.3,50.9 118.4,52.6 118.7,54.3 119.2,56 119.8,57.7 120.5,59.3 121.4,60.8 122.4,62.2 123.5,63.5 124.8,64.8 126.1,65.9 127.5,66.9 129,67.8 130.6,68.5 132.2,69.1 133.9,69.5 135.7,69.8 137.4,70" />
<path stroke="#000000" stroke-width="2" d="M 164.9,70" />
<path stroke="#000000" stroke-width="2" d="M 174.9,20 167.3,38.5" />
<path stroke="#000000" stroke-width="2" d="M 204.9,70" />
<path stroke="#000000" stroke-width="2" d="M 220.9,30 220.9,60" />
<path stroke="#000000" stroke-width="2" d="M 220.9,60 220.7,64.1 220.1,67.3 219.2,69.8 218,71.5 216.7,72.7 215.2,73.2 213.7,73.3 212.3,73 210.9,72.3 209.7,71.2 208.7,70 208,68.6 207.6,67.2 207.7,65.7 208.3,64.2 209.4,62.9 211.2,61.7 213.6,60.8 216.8,60.2 220.9,60" />
<path stroke="#000000" stroke-width="2" d="M 227.6,70" />
<path stroke="#000000" stroke-width="2" d="M 227.6,20 227.6,40 233.2,34.3" />
<path stroke="#000000" stroke-width="2" d="M 239.9,70" />
<path stroke="#000000" stroke-width="2" d="M 239.9,50" />
<path stroke="#000000" stroke-width="2" d="M 239.9,50 240,50 240.5,50 241.1,50 242,50.1 243,50.2 244.2,50.3 245.5,50.4 246.9,50.6 248.4,50.9 249.9,51.2 251.4,51.7 252.9,52.2 254.3,52.7 255.6,53.4 256.8,54.2 257.8,55.1 258.7,56.1 259.3,57.3 259.8,58.6 259.9,60" />
<path stroke="#000000" stroke-width="2" d="M 259.9,60 261.8,62.1 263.1,64.1 263.9,65.7 264.2,67.2 264.1,68.4 263.7,69.5 263,70.2 262.1,70.8 261,71.1 259.9,71.2 258.8,71.1 257.7,70.8 256.8,70.2 256.1,69.5 255.7,68.4 255.6,67.2 255.9,65.7 256.7,64 258,62.1 259.9,60" />
<path stroke="#000000" stroke-width="2" d="M 259.9,60 259.9,59.9 259.9,59.7 260,59.4 260.1,59 260.2,58.4 260.4,57.8 260.8,57.2 261.2,56.5 261.7,55.7 262.4,55 263.2,54.3 264.2,53.5 265.4,52.8 266.8,52.2 268.3,51.6 270.1,51 272.2,50.6 274.5,50.3 277,50.1 279.9,50 279.9,50.7 280,51.4 280.1,52.1 280.3,52.8 280.5,53.4 280.8,54 281.1,54.6 281.5,55.2 282,55.8 282.5,56.2 283,56.7 283.6,57.1 284.2,57.4 284.8,57.7 285.5,58 286.2,58.2 286.8,58.3 287.5,58.3 288.2,58.3 288.9,58.3 289.6,58.2 290.3,58 291,57.7 291.6,57.4 292.2,57.1 292.8,56.7 293.3,56.2 293.8,55.8 294.2,55.2 294.6,54.6 295,54 295.3,53.4 295.5,52.8 295.7,52.1 295.8,51.4 295.9,50.7 296.8,50.7 297.6,50.8 298.5,50.9 299.3,51.2 300.1,51.4 300.9,51.8 301.7,52.3 302.4,52.8 303.1,53.3 303.7,53.9 304.3,54.6 304.8,55.3 305.2,56.1 305.6,56.9 305.9,57.7 306.1,58.5 306.2,59.4 306.3,60.3 306.3,61.1 306.2,62 306.1,62.9 305.9,63.7 305.6,64.5 305.2,65.3 304.8,66.1 304.3,66.8 303.7,67.4 303.1,68.1 302.4,68.6 301.7,69.1 300.9,69.6 300.1,69.9 299.3,70.2 298.5,70.5 297.6,70.6 296.8,70.7" />
<path stroke="#000000" stroke-width="2" d="M 336.3,70" />
<path stroke="#000000" stroke-width="2" d="M 344.3,30 344.3,45" />
<path stroke="#000000" stroke-width="2" d="M 344.3,45 344.2,47 343.9,48.6 343.5,49.9 342.9,50.8 342.2,51.3 341.5,51.6 340.7,51.7 340,51.5 339.3,51.1 338.7,50.6 338.2,50 337.8,49.3 337.7,48.6 337.7,47.8 338,47.1 338.6,46.4 339.4,45.9 340.7,45.4 342.3,45.1 344.3,45 344.3,65 344.3,59 344.3,58.1 344.4,57.3 344.5,56.4 344.8,55.6 345.1,54.7 345.4,53.9 345.9,53.2 346.4,52.5 346.9,51.8 347.5,51.2 348.2,50.6 348.9,50.1 349.7,49.7 350.5,49.3 351.3,49 352.1,48.8 353,48.6 353.9,48.6" />
<path stroke="#000000" stroke-width="2" d="M 360.5,70" />
<path stroke="#000000" stroke-width="2" d="M 360.5,50" />
<path stroke="#000000" stroke-width="2" d="M 360.5,50 360.7,50 361.1,50 361.7,50 362.6,50.1 363.7,50.2 364.9,50.3 366.2,50.4 367.6,50.6 369,50.9 370.5,51.2 372,51.7 373.5,52.2 374.9,52.7 376.2,53.4 377.4,54.2 378.5,55.1 379.3,56.1 380,57.3 380.4,58.6 380.5,60" />
<path stroke="#000000" stroke-width="2" d="M 380.5,60 382.5,62.1 383.8,64.1 384.5,65.7 384.9,67.2 384.8,68.4 384.3,69.5 383.6,70.2 382.7,70.8 381.6,71.1 380.5,71.2 379.4,71.1 378.4,70.8 377.5,70.2 376.8,69.5 376.3,68.4 376.2,67.2 376.5,65.7 377.3,64 378.6,62.1 380.5,60" />
<path stroke="#000000" stroke-width="2" d="M 380.5,60 380.5,59.9 380.6,59.7 380.6,59.4 380.7,59 380.8,58.4 381.1,57.8 381.4,57.2 381.8,56.5 382.4,55.7 383,55 383.9,54.3 384.9,53.5 386,52.8 387.4,52.2 389,51.6 390.8,51 392.8,50.6 395.1,50.3 397.7,50.1 400.5,50 401.4,50 402.3,50.1 403.1,50.2 404,50.5 404.8,50.8 405.6,51.1 406.3,51.6 407.1,52.1 407.7,52.6 408.3,53.2 408.9,53.9 409.4,54.6 409.8,55.4 410.2,56.2 410.5,57 410.7,57.8 410.9,58.7 411,59.6 411,60.4 410.9,61.3 410.7,62.2 410.5,63 410.2,63.8 409.8,64.6 409.4,65.4 408.9,66.1 408.3,66.7 407.7,67.4 407.1,67.9 406.3,68.4 405.6,68.9 404.8,69.2 404,69.5 403.1,69.8 402.3,69.9 401.4,70" />
<path stroke="#000000" stroke-width="2" d="M 441,70" />
<path stroke="#000000" stroke-width="2" d="M 441,70 441.2,70 441.2,70.2 441,70.2 441,70" />
<path stroke="#000000" stroke-width="2" d="M 447.8,70" />
<path stroke="#000000" stroke-width="2" d="M 447.8,30 447.8,31.4 447.9,32.8 448.2,34.2 448.6,35.5 449,36.8 449.6,38.1 450.3,39.3 451.1,40.4 452,41.5 453,42.5 454.1,43.4 455.2,44.2 456.4,44.9 457.7,45.5 459,46 460.3,46.3 461.7,46.6 463.1,46.7 464.5,46.7 465.9,46.6 467.3,46.3 468.6,46 469.9,45.5 471.2,44.9 472.4,44.2 473.6,43.4 474.6,42.5 475.6,41.5 476.5,40.4 477.3,39.3 478,38.1 478.6,36.8 479.1,35.5 479.4,34.2 479.7,32.8 479.8,31.4" />
<path stroke="#000000" stroke-width="2" d="M 486.5,70" />
<path stroke="#000000" stroke-width="2" d="M 486.5,20 506.5,20 507.3,20 508.2,20.1 509.1,20.2 509.9,20.5 510.7,20.8 511.5,21.1 512.3,21.6 513,22.1 513.7,22.6 514.3,23.2 514.8,23.9 515.3,24.6 515.8,25.4 516.1,26.2 516.4,27 516.7,27.8 516.8,28.7 516.9,29.6 516.9,30.4 516.8,31.3 516.7,32.2 516.4,33 516.1,33.8 515.8,34.6 515.3,35.4 514.8,36.1 514.3,36.7 513.7,37.4 513,37.9 512.3,38.4 511.5,38.9 510.7,39.2 509.9,39.5 509.1,39.8 508.2,39.9 507.3,40" />
<path stroke="#000000" stroke-width="2" d="M 546.9,70" />
<path stroke="#000000" stroke-width="2" d="M 546.9,30 586.9,30" />
<path stroke="#000000" stroke-width="2" d="M 616.9,70" />
<path stroke="#000000" stroke-width="2" d="M 618.9,50 624.2,37.1 624.4,36.7 624.5,36.4 624.6,36.1 624.6,35.7 624.6,35.4 624.6,35 624.6,34.7 624.5,34.3 624.4,34 624.2,33.7 624.1,33.4 623.9,33.1 623.7,32.8 623.5,32.5 623.2,32.3 622.9,32.1 622.6,31.9 622.3,31.7 622,31.6 621.7,31.5 621.3,31.4 621,31.4 620.6,31.4 620.3,31.4 619.9,31.4 619.6,31.5 619.3,31.6 618.9,31.7 618.6,31.9 618.3,32.1 618.1,32.3 617.8,32.5 617.6,32.8 617.3,33.1 617.2,33.4 617,33.7 616.9,34 616.8,34.3 616.7,34.7 616.6,35 616.6,35.4 616.6,35.7 616.7,36.1 616.8,36.4 616.9,36.7 617,37.1 617.2,37.4 617.3,37.7 617.6,37.9 617.8,38.2 618.1,38.4 618.3,38.7 618.6,38.8 618.9,39 619.3,39.1 619.6,39.2 619.9,39.3 620.3,39.4 620.6,39.4 621,39.4 633.9,34 626.3,52.5" />
<path stroke="#000000" stroke-width="2" d="M 640.6,70" />
<path stroke="#000000" stroke-width="2" d="M 640.6,20 640.6,40 640.6,34 640.6,33.1 640.6,32.3 640.8,31.4 641,30.6 641.3,29.7 641.7,28.9 642.1,28.2 642.6,27.5 643.2,26.8 643.8,26.2 644.5,25.6 645.2,25.1 645.9,24.7 646.7,24.3 647.6,24 648.4,23.8 649.3,23.6 650.1,23.6 670.1,23.6" />
<path stroke="#000000" stroke-width="2" d="M 676.8,70" />
<path stroke="#000000" stroke-width="2" d="M 676.8,20 676.8,20.7 676.9,21.4 677,22.1 677.2,22.8 677.4,23.4 677.7,24 678,24.6 678.4,25.2 678.9,25.8 679.4,26.2 679.9,26.7 680.5,27.1 681.1,27.4 681.7,27.7 682.4,28 683.1,28.2 683.7,28.3 684.4,28.3 685.1,28.3 685.8,28.3 686.5,28.2 687.2,28 687.8,27.7 688.5,27.4 689.1,27.1 689.7,26.7 690.2,26.2 690.7,25.8 691.1,25.2 691.5,24.6 691.9,24 692.2,23.4 692.4,22.8 692.6,22.1 692.7,21.4 692.8,20.7" />
<path stroke="#000000" stroke-width="2" d="M 722.8,70" />
<path stroke="#000000" stroke-width="2" d="M 722.8,30 762.8,30" />
<path stroke="#000000" stroke-width="2" d="M 769.4,70" />
<path stroke="#000000" stroke-width="2" d="M 789.4,30 774.1,67" />
<path stroke="#000000" stroke-width="2" d="M 819.4,70" />
<path stroke="#000000" stroke-width="2" d="M 819.4,70 819.6,70 819.6,70.2 819.4,70.2 819.4,70" />
<path stroke="#000000" stroke-width="2" d="M 849.6,70" />
<path stroke="#000000" stroke-width="2" d="M 849.6,30 849.6,70 849.6,58 849.6,56.3 849.8,54.5 850.1,52.8 850.6,51.1 851.1,49.5 851.9,47.9 852.8,46.4 853.8,45 854.9,43.6 856.1,42.4 857.4,41.3 858.9,40.3 860.4,39.4 862,38.7 863.6,38.1 865.3,37.6 867,37.3 868.8,37.1" />
<path stroke="#000000" stroke-width="2" d="M 875.4,70" />
<path stroke="#000000" stroke-width="2" d="M 875.4,20 875.4,20.7 875.5,21.4 875.6,22.1 875.8,22.8 876,23.4 876.3,24 876.7,24.6 877.1,25.2 877.5,25.8 878,26.2 878.5,26.7 879.1,27.1 879.7,27.4 880.4,27.7 881,28 881.7,28.2 882.4,28.3 883.1,28.3 883.8,28.3 884.5,28.3 885.1,28.2 885.8,28 886.5,27.7 887.1,27.4 887.7,27.1 888.3,26.7 888.8,26.2 889.3,25.8 889.8,25.2 890.2,24.6 890.5,24 890.8,23.4 891,22.8 891.2,22.1 891.3,21.4 891.4,20.7" />
<path stroke="#000000" stroke-width="2" d="M 898.1,70" />
<path stroke="#000000" stroke-width="2" d="M 898.1,70 898.1,69.3 898.1,68.6 898.3,67.9 898.4,67.2 898.7,66.6 899,66 899.3,65.4 899.7,64.8 900.2,64.2 900.7,63.8 901.2,63.3 901.8,62.9 902.4,62.6 903,62.3 903.7,62 904.3,61.8 905,61.7 905.7,61.7 906.4,61.7 907.1,61.7 907.8,61.8 908.5,62 909.1,62.3 909.8,62.6 910.4,62.9 910.9,63.3 911.5,63.8 912,64.2 912.4,64.8 912.8,65.4 913.2,66 913.5,66.6 913.7,67.2 913.9,67.9 914,68.6 914.1,69.3 906.4,87.8" />
<path stroke="#000000" stroke-width="2" d="M 920.7,70" />
<path stroke="#000000" stroke-width="2" d="M 920.7,20 940.7,20 933.1,38.5 933.1,39.2 933.1,39.9 933.3,40.6 933.4,41.2 933.7,41.9 934,42.5 934.3,43.1 934.7,43.7 935.2,44.2 935.7,44.7 936.2,45.2 936.8,45.6 937.4,45.9 938,46.2 938.7,46.5 939.3,46.6 940,46.8 940.7,46.8 941.4,46.8 942.1,46.8 942.8,46.6 943.5,46.5 944.1,46.2 944.8,45.9 945.4,45.6 945.9,45.2 946.5,44.7 947,44.2 947.4,43.7 947.8,43.1 948.2,42.5 948.5,41.9 948.7,41.2 948.9,40.6 949,39.9 949.1,39.2" />
<path stroke="#000000" stroke-width="2" d="M 955.7,70" />
<path stroke="#000000" stroke-width="2" d="M 955.7,30 955.9,30 955.9,30.2 955.7,30.2 955.7,30" />
<path stroke="#000000" stroke-width="2" d="M 985.9,70" />
<path stroke="#000000" stroke-width="2" d="M 985.9,70" />
<path stroke="#000000" stroke-width="2" d="M 985.9,70 987,70 988,70.2 988.9,70.4 989.6,70.7 990.1,71 990.6,71.5 990.9,71.9 991.1,72.5 991.2,73.1 991.2,73.8 991,74.4 990.8,75.2 990.5,76 990.1,76.8 989.6,77.6 989,78.4 988.3,79.3 987.6,80.2 986.8,81.1 985.9,82" />
<path stroke="#000000" stroke-width="2" d="M 1021.2,70" />
<path stroke="#000000" stroke-width="2" d="M 1021.2,70 1021.4,70 1021.4,70.2 1021.2,70.2 1021.2,70" />
<path stroke="#000000" stroke-width="2" d="M 1028.1,70" />
<path stroke="#000000" stroke-width="2" d="M 1030.1,50 1035.4,37.1 1035.5,36.7 1035.7,36.4 1035.7,36.1 1035.8,35.7 1035.8,35.4 1035.8,35 1035.7,34.7 1035.7,34.3 1035.5,34 1035.4,33.7 1035.3,33.4 1035.1,33.1 1034.9,32.8 1034.6,32.5 1034.4,32.3 1034.1,32.1 1033.8,31.9 1033.5,31.7 1033.2,31.6 1032.8,31.5 1032.5,31.4 1032.1,31.4 1031.8,31.4 1031.4,31.4 1031.1,31.4 1030.8,31.5 1030.4,31.6 1030.1,31.7 1029.8,31.9 1029.5,32.1 1029.2,32.3 1029,32.5 1028.7,32.8 1028.5,33.1 1028.3,33.4 1028.2,33.7 1028,34 1027.9,34.3 1027.9,34.7 1027.8,35 1027.8,35.4 1027.8,35.7 1027.9,36.1 1027.9,36.4 1028,36.7 1028.2,37.1 1028.3,37.4 1028.5,37.7 1028.7,37.9 1029,38.2 1029.2,38.4 1029.5,38.7 1029.8,38.8 1030.1,39 1030.4,39.1 1030.8,39.2 1031.1,39.3 1031.4,39.4 1031.8,39.4 1032.1,39.4 1045.1,34 1045.1,34.7 1045.1,35.4 1045.3,36.1 1045.4,36.8 1045.7,37.4 1046,38 1046.3,38.6 1046.7,39.2 1047.2,39.8 1047.7,40.2 1048.2,40.7 1048.8,41.1 1049.4,41.4 1050,41.7 1050.7,42 1051.3,42.2 1052,42.3 1052.7,42.3 1053.4,42.3 1054.1,42.3 1054.8,42.2 1055.5,42 1056.1,41.7 1056.8,41.4 1057.4,41.1 1057.9,40.7 1058.5,40.2 1059,39.8 1059.4,39.2 1059.8,38.6 1060.2,38 1060.5,37.4 1060.7,36.8 1060.9,36.1 1061,35.4 1061.1,34.7 1061.9,34.7 1062.8,34.8 1063.7,34.9 1064.5,35.2 1065.3,35.5 1066.1,35.8 1066.9,36.3 1067.6,36.8 1068.3,37.3 1068.9,37.9 1069.4,38.6 1069.9,39.3 1070.4,40.1 1070.7,40.9 1071,41.7 1071.3,42.5 1071.4,43.4 1071.5,44.3 1071.5,45.1 1071.4,46 1071.3,46.9 1071,47.7 1070.7,48.5 1070.4,49.3 1069.9,50.1 1069.4,50.8 1068.9,51.4 1068.3,52.1 1067.6,52.6 1066.9,53.1 1066.1,53.6 1065.3,53.9 1064.5,54.2 1063.7,54.5 1062.8,54.6 1061.9,54.7 1061.9,53.8 1062,52.9 1062.2,52.1 1062.4,51.2 1062.7,50.4 1063.1,49.6 1063.5,48.9 1064,48.2 1064.5,47.5 1065.2,46.9 1065.8,46.3 1066.5,45.8 1067.3,45.4 1068.1,45 1068.9,44.7 1069.8,44.5 1070.6,44.3 1071.5,44.3" />
<path stroke="#000000" stroke-width="2" d="M 1101.5,70" />
<path stroke="#000000" stroke-width="2" d="M 1111.5,30 1112,30 1112.5,30 1113,30.1 1113.6,30.3 1114,30.5 1114.5,30.7 1115,30.9 1115.4,31.2 1115.8,31.6 1116.2,31.9 1116.5,32.3 1116.8,32.8 1117.1,33.2 1117.3,33.7 1117.5,34.2 1117.6,34.7 1117.7,35.2 1117.7,35.7 1117.7,36.3 1117.7,36.8 1117.6,37.3 1117.5,37.8 1117.3,38.3 1117.1,38.8 1116.8,39.2 1116.5,39.6 1116.2,40 1115.8,40.4 1115.4,40.8 1115,41.1 1114.5,41.3 1114,41.5 1113.6,41.7 1113,41.9 1112.5,41.9 1112,42 1111.5,42 1111,41.9 1110.4,41.9 1109.9,41.7 1109.5,41.5 1109,41.3 1108.5,41.1 1108.1,40.8 1107.7,40.4 1107.3,40 1107,39.6 1106.7,39.2 1106.4,38.8 1106.2,38.3 1106,37.8 1105.9,37.3 1105.8,36.8 1105.8,36.3 1105.8,35.7 1105.8,35.2 1105.9,34.7 1106,34.2 1106.2,33.7 1106.4,33.2 1106.7,32.8 1107,32.3 1107.3,31.9 1107.7,31.6 1108.1,31.2 1108.5,30.9 1109,30.7 1109.5,30.5 1109.9,30.3 1110.4,30.1 1111,30 1111.5,30 1111.5,50 1103.8,68.5 1106.1,62.9 1106.5,62.1 1106.9,61.4 1107.3,60.6 1107.9,59.9 1108.5,59.3 1109.1,58.7 1109.8,58.2 1110.5,57.7 1111.3,57.3 1112.1,57 1112.9,56.7 1113.8,56.5" />
<path stroke="#000000" stroke-width="2" d="M 1147.7,70" />
<path stroke="#000000" stroke-width="2" d="M 1163.7,30 1143.9,49.8 1163.7,69.6" />
<path stroke="#000000" stroke-width="2" d="M 1170.4,70" />
<path stroke="#000000" stroke-width="2" d="M 1170.4,20 1170.4,40 1170.4,34 1170.4,33.1 1170.5,32.3 1170.6,31.4 1170.9,30.6 1171.2,29.7 1171.5,28.9 1172,28.2 1172.5,27.5 1173,26.8 1173.6,26.2 1174.3,25.6 1175,25.1 1175.8,24.7 1176.6,24.3 1177.4,24 1178.2,23.8 1179.1,23.6 1180,23.6 1200,23.6 1194.3,29.2 1194.8,29.2 1195.4,29.3 1195.9,29.4 1196.4,29.5 1196.9,29.7 1197.3,29.9 1197.8,30.2 1198.2,30.5 1198.6,30.8 1199,31.2 1199.3,31.6 1199.6,32 1199.9,32.5 1200.1,32.9 1200.3,33.4 1200.4,33.9 1200.5,34.4 1200.6,35 1200.6,35.5 1200.5,36 1200.4,36.5 1200.3,37 1200.1,37.5 1199.9,38 1199.6,38.4 1199.3,38.9 1199,39.3 1198.6,39.6 1198.2,40 1197.8,40.3 1197.3,40.5 1196.9,40.8 1196.4,40.9 1195.9,41.1 1195.4,41.2 1194.8,41.2" />
<path stroke="#000000" stroke-width="2" d="M 1207.2,70" />
<path stroke="#000000" stroke-width="2" d="M 1207.2,20 1208.1,20 1209,20.1 1209.8,20.2 1210.7,20.5 1211.5,20.8 1212.3,21.1 1213,21.6 1213.8,22.1 1214.4,22.6 1215,23.2 1215.6,23.9 1216.1,24.6 1216.5,25.4 1216.9,26.2 1217.2,27 1217.4,27.8 1217.6,28.7 1217.7,29.6 1217.7,30.4 1217.6,31.3 1217.4,32.2 1217.2,33 1216.9,33.8 1216.5,34.6 1216.1,35.4 1215.6,36.1 1215,36.7 1214.4,37.4 1213.8,37.9 1213,38.4 1212.3,38.9 1211.5,39.2 1210.7,39.5 1209.8,39.8 1209,39.9 1208.1,40" />
<path stroke="#000000" stroke-width="2" d="M 1247.7,70" />
</svg>