<svg xmlns="http://www.w3.org/2000/svg" width="1376.049126680519" height="90.67887462948254" style="fill:none; stroke-linecap:round;">
    <rect width="100%" height="100%" fill="#FFFFFF" />
<path stroke="#000000" stroke-width="2" d="M 550,75" />
<path stroke="#000000" stroke-width="2" d="M 20,35" />
<path stroke="#000000" stroke-width="2" d="M 20,35 22,34.9 23.6,34.6 24.9,34.1 25.8,33.6 26.3,32.9 26.6,32.2 26.7,31.4 26.5,30.7 26.1,30 25.6,29.4 25,28.9 24.3,28.5 23.6,28.3 22.8,28.4 22.1,28.7 21.4,29.2 20.9,30.1 20.4,31.4 20.1,33 20,35 20,50 20,70 25.7,64.3" />
<path stroke="#000000" stroke-width="2" d="M 33.3,70" />
<path stroke="#000000" stroke-width="2" d="M 33.3,20 33.3,20.7 33.4,21.4 33.5,22.1 33.7,22.8 33.9,23.4 34.2,24 34.6,24.6 35,25.2 35.4,25.8 35.9,26.2 36.4,26.7 37,27.1 37.6,27.4 38.3,27.7 38.9,28 39.6,28.2 40.3,28.3 41,28.3 41.7,28.3 42.4,28.3 43,28.2 43.7,28 44.4,27.7 45,27.4 45.6,27.1 46.2,26.7 46.7,26.2 47.2,25.8 47.7,25.2 48.1,24.6 48.4,24 48.7,23.4 48.9,22.8 49.1,22.1 49.2,21.4 49.3,20.7" />
<path stroke="#000000" stroke-width="2" d="M 56,70" />
<path stroke="#000000" stroke-width="2" d="M 68,56 68,56.5 67.9,57 67.8,57.6 67.7,58.1 67.5,58.6 67.3,59 67,59.5 66.7,59.9 66.4,60.3 66,60.7 65.6,61 65.2,61.3 64.7,61.6 64.3,61.8 63.8,62 63.3,62.1 62.8,62.2 62.2,62.3 61.7,62.3 61.2,62.2 60.7,62.1 60.2,62 59.7,61.8 59.2,61.6 58.8,61.3 58.3,61 57.9,60.7 57.6,60.3 57.2,59.9 56.9,59.5 56.7,59 56.4,58.6 56.3,58.1 56.1,57.6 56,57 56,56.5 56,56 56,55.5 56.1,55 56.3,54.5 56.4,54 56.7,53.5 56.9,53 57.2,52.6 57.6,52.2 57.9,51.8 58.3,51.5 58.8,51.2 59.2,50.9 59.7,50.7 60.2,50.5 60.7,50.4 61.2,50.3 61.7,50.3 62.2,50.3 62.8,50.3 63.3,50.4 63.8,50.5 64.3,50.7 64.7,50.9 65.2,51.2 65.6,51.5 66,51.8 66.4,52.2 66.7,52.6 67,53 67.3,53.5 67.5,54 67.7,54.5 67.8,55 67.9,55.5 68,56 68,60" />
<path stroke="#000000" stroke-width="2" d="M 68,60 67.7,60.9 67.3,61.7 66.9,62.4 66.5,63.1 66.1,63.8 65.7,64.4 65.2,64.9 64.7,65.4 64.2,65.9 63.7,66.2 63.2,66.6 62.6,66.9 62.1,67.2 61.5,67.4 60.9,67.6 60.4,67.7 59.8,67.9 59.2,67.9 58.6,68 58,68" />
<path stroke="#000000" stroke-width="2" d="M 98,70" />
<path stroke="#000000" stroke-width="2" d="M 98,30 113.3,67" />
<path stroke="#000000" stroke-width="2" d="M 119.9,70" />
<path stroke="#000000" stroke-width="2" d="M 119.9,20 139.9,20" />
<path stroke="#000000" stroke-width="2" d="M 146.6,70" />
<path stroke="#000000" stroke-width="2" d="M 146.6,70 154.3,51.5 154.3,52.2 154.3,52.9 154.4,53.6 154.6,54.3 154.9,54.9 155.2,55.6 155.5,56.2 155.9,56.7 156.4,57.3 156.9,57.8 157.4,58.2 158,58.6 158.6,59 159.2,59.3 159.9,59.5 160.5,59.7 161.2,59.8 161.9,59.9 162.6,59.9 163.3,59.8 164,59.7 164.7,59.5 165.3,59.3 166,59 166.6,58.6 167.1,58.2 167.7,57.8 168.2,57.3 168.6,56.7 169,56.2 169.4,55.6 169.7,54.9 169.9,54.3 170.1,53.6 170.2,52.9 170.3,52.2" />
<path stroke="#000000" stroke-width="2" d="M 176.9,70" />
<path stroke="#000000" stroke-width="2" d="M 176.9,30 177.1,30 177.1,30.2 176.9,30.2 176.9,30" />
<path stroke="#000000" stroke-width="2" d="M 207.1,70" />
<path stroke="#000000" stroke-width="2" d="M 207.1,70 207.3,70 207.3,70.2 207.1,70.2 207.1,70" />
<path stroke="#000000" stroke-width="2" d="M 237.3,70" />
<path stroke="#000000" stroke-width="2" d="M 237.3,30 237.3,50 247.3,50 242.3,50 242.3,70" />
<path stroke="#000000" stroke-width="2" d="M 254,70" />
<path stroke="#000000" stroke-width="2" d="M 254,50 257.8,59.2" />
<path stroke="#000000" stroke-width="2" d="M 257.8,59.2 259.7,61.4 261.1,63.3 261.8,65 262.1,66.4 262,67.7 261.6,68.7 260.9,69.5 260,70 258.9,70.4 257.8,70.5 256.7,70.4 255.7,70 254.7,69.5 254,68.7 253.6,67.7 253.5,66.4 253.8,65 254.6,63.3 255.9,61.4 257.8,59.2 261.6,50 261.6,50.7 261.7,51.4 261.8,52.1 262,52.8 262.2,53.4 262.5,54 262.9,54.6 263.3,55.2 263.7,55.8 264.2,56.2 264.8,56.7 265.3,57.1 265.9,57.4 266.6,57.7 267.2,58 267.9,58.2 268.6,58.3 269.3,58.3 270,58.3 270.7,58.3 271.4,58.2 272,58 272.7,57.7 273.3,57.4 273.9,57.1 274.5,56.7 275,56.2 275.5,55.8 276,55.2 276.4,54.6 276.7,54 277,53.4 277.3,52.8 277.4,52.1 277.6,51.4 277.6,50.7 278.5,50.7 279.4,50.8 280.2,50.9 281.1,51.2 281.9,51.4 282.7,51.8 283.4,52.3 284.1,52.8 284.8,53.3 285.4,53.9 286,54.6 286.5,55.3 286.9,56.1 287.3,56.9 287.6,57.7 287.8,58.5 288,59.4 288.1,60.3 288.1,61.1 288,62 287.8,62.9 287.6,63.7 287.3,64.5 286.9,65.3 286.5,66.1 286,66.8 285.4,67.4 284.8,68.1 284.1,68.6 283.4,69.1 282.7,69.6 281.9,69.9 281.1,70.2 280.2,70.5 279.4,70.6 278.5,70.7" />
<path stroke="#000000" stroke-width="2" d="M 318.1,70" />
<path stroke="#000000" stroke-width="2" d="M 318.1,40" />
<path stroke="#000000" stroke-width="2" d="M 318.1,40 322.1,39.8 325.3,39.2 327.8,38.3 329.6,37.1 330.7,35.8 331.3,34.3 331.4,32.8 331,31.4 330.3,30 329.3,28.8 328.1,27.7 326.7,27 325.2,26.7 323.7,26.8 322.3,27.3 320.9,28.5 319.8,30.2 318.9,32.7 318.3,35.9 318.1,40 318.1,70" />
<path stroke="#000000" stroke-width="2" d="M 338,70" />
<path stroke="#000000" stroke-width="2" d="M 338,20 338.2,20 338.2,20.2 338,20.2 338,20" />
<path stroke="#000000" stroke-width="2" d="M 368.2,70" />
<path stroke="#000000" stroke-width="2" d="M 384.2,30" />
<path stroke="#000000" stroke-width="2" d="M 384.2,30 384,34.1 383.4,37.3 382.5,39.8 381.3,41.5 380,42.7 378.6,43.2 377.1,43.3 375.6,43 374.2,42.3 373,41.2 372,40 371.3,38.6 370.9,37.2 371,35.7 371.6,34.2 372.7,32.9 374.5,31.7 376.9,30.8 380.2,30.2 384.2,30 404.2,30" />
<path stroke="#000000" stroke-width="2" d="M 410.9,70" />
<path stroke="#000000" stroke-width="2" d="M 410.9,20 410.9,40 410.9,34 410.9,33.1 411,32.3 411.1,31.4 411.3,30.6 411.6,29.7 412,28.9 412.4,28.2 412.9,27.5 413.5,26.8 414.1,26.2 414.8,25.6 415.5,25.1 416.3,24.7 417.1,24.3 417.9,24 418.7,23.8 419.6,23.6 420.4,23.6 425.4,23.6 425.4,43.6" />
<path stroke="#000000" stroke-width="2" d="M 432.1,70" />
<path stroke="#000000" stroke-width="2" d="M 432.1,40 432.1,39.3 432.2,38.6 432.3,37.9 432.5,37.2 432.7,36.6 433,36 433.4,35.4 433.8,34.8 434.2,34.2 434.7,33.8 435.2,33.3 435.8,32.9 436.4,32.6 437,32.3 437.7,32 438.4,31.8 439.1,31.7 439.8,31.7 440.5,31.7 441.1,31.7 441.8,31.8 442.5,32 443.2,32.3 443.8,32.6 444.4,32.9 445,33.3 445.5,33.8 446,34.2 446.5,34.8 446.9,35.4 447.2,36 447.5,36.6 447.7,37.2 447.9,37.9 448,38.6 448.1,39.3 440.4,57.8 440.4,58.5 440.5,59.2 440.6,59.9 440.8,60.5 441,61.2 441.3,61.8 441.7,62.4 442.1,63 442.5,63.5 443,64 443.6,64.5 444.1,64.9 444.7,65.2 445.4,65.5 446,65.8 446.7,65.9 447.4,66.1 448.1,66.1 448.8,66.1 449.5,66.1 450.2,65.9 450.8,65.8 451.5,65.5 452.1,65.2 452.7,64.9 453.3,64.5 453.8,64 454.3,63.5 454.8,63 455.2,62.4 455.5,61.8 455.8,61.2 456.1,60.5 456.2,59.9 456.4,59.2 456.4,58.5" />
<path stroke="#000000" stroke-width="2" d="M 463.1,70" />
<path stroke="#000000" stroke-width="2" d="M 463.1,30 463.3,30 463.3,30.2 463.1,30.2 463.1,30" />
<path stroke="#000000" stroke-width="2" d="M 493.3,70" />
<path stroke="#000000" stroke-width="2" d="M 493.3,50 493.3,49.3 493.4,48.6 493.5,47.9 493.7,47.2 493.9,46.6 494.2,46 494.5,45.4 494.9,44.8 495.4,44.2 495.9,43.8 496.4,43.3 497,42.9 497.6,42.6 498.2,42.3 498.9,42 499.6,41.8 500.2,41.7 500.9,41.7 501.6,41.7 502.3,41.7 503,41.8 503.7,42 504.3,42.3 505,42.6 505.6,42.9 506.2,43.3 506.7,43.8 507.2,44.2 507.6,44.8 508,45.4 508.4,46 508.7,46.6 508.9,47.2 509.1,47.9 509.2,48.6 509.3,49.3 509.3,50 509.3,50.7 509.5,51.4 509.6,52.1 509.9,52.7 510.2,53.3 510.5,53.9 510.9,54.5 511.4,55.1 511.9,55.5 512.4,56 513,56.4 513.6,56.7 514.2,57 514.9,57.3 515.5,57.5 516.2,57.6 516.9,57.6 517.6,57.6 518.3,57.6 519,57.5 519.7,57.3 520.3,57 521,56.7 521.6,56.4 522.1,56 522.7,55.5 523.2,55.1 523.6,54.5 524,53.9 524.4,53.3 524.7,52.7 524.9,52.1 525.1,51.4 525.2,50.7 525.3,50" />
<path stroke="#000000" stroke-width="2" d="M 531.9,70" />
<path stroke="#000000" stroke-width="2" d="M 531.9,20 531.9,40 531.9,34 531.9,33.1 532,32.3 532.2,31.4 532.4,30.6 532.7,29.7 533.1,28.9 533.5,28.2 534,27.5 534.5,26.8 535.2,26.2 535.8,25.6 536.5,25.1 537.3,24.7 538.1,24.3 538.9,24 539.8,23.8 540.6,23.6 541.5,23.6 541.5,24.3 541.5,25 541.7,25.7 541.8,26.3 542.1,27 542.4,27.6 542.7,28.2 543.1,28.8 543.6,29.3 544.1,29.8 544.6,30.3 545.2,30.7 545.8,31 546.4,31.3 547.1,31.6 547.7,31.7 548.4,31.9 549.1,31.9 549.8,31.9 550.5,31.9 551.2,31.7 551.9,31.6 552.5,31.3 553.2,31 553.8,30.7 554.3,30.3 554.9,29.8 555.4,29.3 555.8,28.8 556.2,28.2 556.6,27.6 556.9,27 557.1,26.3 557.3,25.7 557.4,25 557.5,24.3" />
<path stroke="#000000" stroke-width="2" d="M 564.1,70" />
<path stroke="#000000" stroke-width="2" d="M 564.1,30 564.3,30 564.3,30.2 564.1,30.2 564.1,30" />
<path stroke="#000000" stroke-width="2" d="M 594.3,70" />
<path stroke="#000000" stroke-width="2" d="M 594.3,70 609.6,33 609.6,34.4 609.8,35.8 610,37.2 610.4,38.6 610.8,39.9 611.4,41.1 612.1,42.3 612.9,43.5 613.8,44.6 614.8,45.5 615.9,46.4 617,47.2 618.2,47.9 619.5,48.5 620.8,49 622.2,49.4 623.5,49.6 624.9,49.7 626.3,49.7 627.7,49.6 629.1,49.4 630.4,49 631.8,48.5 633,47.9 634.2,47.2 635.4,46.4 636.4,45.5 637.4,44.6 638.3,43.5 639.1,42.3 639.8,41.1 640.4,39.9 640.9,38.6 641.3,37.2 641.5,35.8 641.6,34.4" />
<path stroke="#000000" stroke-width="2" d="M 671.6,70" />
<path stroke="#000000" stroke-width="2" d="M 671.6,70 671.8,70 671.8,70.2 671.6,70.2 671.6,70" />
<path stroke="#000000" stroke-width="2" d="M 678.5,70" />
<path stroke="#000000" stroke-width="2" d="M 678.5,30 678.5,70 689.8,58.7" />
<path stroke="#000000" stroke-width="2" d="M 696.5,70" />
<path stroke="#000000" stroke-width="2" d="M 696.5,30 700.3,39.2" />
<path stroke="#000000" stroke-width="2" d="M 700.3,39.2 702.2,41.4 703.5,43.3 704.3,45 704.6,46.4 704.5,47.7 704.1,48.7 703.4,49.5 702.4,50 701.4,50.4 700.3,50.5 699.2,50.4 698.1,50 697.2,49.5 696.5,48.7 696.1,47.7 696,46.4 696.3,45 697,43.3 698.4,41.4 700.3,39.2 704.1,30" />
<path stroke="#000000" stroke-width="2" d="M 704.1,30 704,32 703.7,33.6 703.3,34.9 702.7,35.8 702,36.3 701.3,36.6 700.5,36.7 699.8,36.5 699.1,36.1 698.5,35.6 698,35 697.6,34.3 697.5,33.6 697.5,32.8 697.8,32.1 698.4,31.4 699.2,30.9 700.5,30.4 702.1,30.1 704.1,30 714.1,30" />
<path stroke="#000000" stroke-width="2" d="M 744.1,70" />
<path stroke="#000000" stroke-width="2" d="M 764.1,30 748.8,67" />
<path stroke="#000000" stroke-width="2" d="M 770.8,70" />
<path stroke="#000000" stroke-width="2" d="M 770.8,50 771,50 771,50.2 770.8,50.2 770.8,50" />
<path stroke="#000000" stroke-width="2" d="M 801,70" />
<path stroke="#000000" stroke-width="2" d="M 801,70 801.2,70 801.2,70.2 801,70.2 801,70" />
<path stroke="#000000" stroke-width="2" d="M 807.8,70" />
<path stroke="#000000" stroke-width="2" d="M 823.8,30 804,49.8 823.8,69.6" />
<path stroke="#000000" stroke-width="2" d="M 830.5,70" />
<path stroke="#000000" stroke-width="2" d="M 830.5,50 830.5,70 830.5,64 830.5,63.1 830.6,62.3 830.7,61.4 831,60.6 831.3,59.7 831.6,58.9 832.1,58.2 832.6,57.5 833.1,56.8 833.7,56.2 834.4,55.6 835.1,55.1 835.9,54.7 836.7,54.3 837.5,54 838.3,53.8 839.2,53.6 840.1,53.6" />
<path stroke="#000000" stroke-width="2" d="M 846.7,70" />
<path stroke="#000000" stroke-width="2" d="M 846.7,30 886.7,30 847.1,69.6 887.1,69.6" />
<path stroke="#000000" stroke-width="2" d="M 893.8,70" />
<path stroke="#000000" stroke-width="2" d="M 893.8,50 913.8,50" />
<path stroke="#000000" stroke-width="2" d="M 943.8,70" />
<path stroke="#000000" stroke-width="2" d="M 943.8,70 944,70 944,70.2 943.8,70.2 943.8,70" />
<path stroke="#000000" stroke-width="2" d="M 974,70" />
<path stroke="#000000" stroke-width="2" d="M 974,30 974,70 994,70" />
<path stroke="#000000" stroke-width="2" d="M 1024,70" />
<path stroke="#000000" stroke-width="2" d="M 1024,70 1024,68.6 1024.1,67.2 1024.4,65.8 1024.7,64.5 1025.2,63.2 1025.8,61.9 1026.5,60.7 1027.3,59.6 1028.2,58.5 1029.2,57.5 1030.2,56.6 1031.4,55.8 1032.6,55.1 1033.9,54.5 1035.2,54 1036.5,53.7 1037.9,53.4 1039.3,53.3 1040.7,53.3 1042.1,53.4 1043.5,53.7 1044.8,54 1046.1,54.5 1047.4,55.1 1048.6,55.8 1049.7,56.6 1050.8,57.5 1051.8,58.5 1052.7,59.6 1053.5,60.7 1054.2,61.9 1054.8,63.2 1055.2,64.5 1055.6,65.8 1055.9,67.2 1056,68.6" />
<path stroke="#000000" stroke-width="2" d="M 1062.6,70" />
<path stroke="#000000" stroke-width="2" d="M 1062.6,50 1066.5,59.2" />
<path stroke="#000000" stroke-width="2" d="M 1066.5,59.2 1068.4,61.4 1069.7,63.3 1070.5,65 1070.8,66.4 1070.7,67.7 1070.2,68.7 1069.5,69.5 1068.6,70 1067.6,70.4 1066.5,70.5 1065.4,70.4 1064.3,70 1063.4,69.5 1062.7,68.7 1062.2,67.7 1062.1,66.4 1062.5,65 1063.2,63.3 1064.5,61.4 1066.5,59.2 1070.3,50 1070.3,50.7 1070.4,51.4 1070.5,52.1 1070.7,52.8 1070.9,53.4 1071.2,54 1071.5,54.6 1071.9,55.2 1072.4,55.8 1072.9,56.2 1073.4,56.7 1074,57.1 1074.6,57.4 1075.2,57.7 1075.9,58 1076.6,58.2 1077.2,58.3 1077.9,58.3 1078.6,58.3 1079.3,58.3 1080,58.2 1080.7,58 1081.3,57.7 1082,57.4 1082.6,57.1 1083.2,56.7 1083.7,56.2 1084.2,55.8 1084.6,55.2 1085,54.6 1085.4,54 1085.7,53.4 1085.9,52.8 1086.1,52.1 1086.2,51.4 1086.3,50.7 1087.2,50.7 1088,50.8 1088.9,50.9 1089.7,51.2 1090.5,51.4 1091.3,51.8 1092.1,52.3 1092.8,52.8 1093.5,53.3 1094.1,53.9 1094.6,54.6 1095.1,55.3 1095.6,56.1 1096,56.9 1096.3,57.7 1096.5,58.5 1096.6,59.4 1096.7,60.3 1096.7,61.1 1096.6,62 1096.5,62.9 1096.3,63.7 1096,64.5 1095.6,65.3 1095.1,66.1 1094.6,66.8 1094.1,67.4 1093.5,68.1 1092.8,68.6 1092.1,69.1 1091.3,69.6 1090.5,69.9 1089.7,70.2 1088.9,70.5 1088,70.6 1087.2,70.7" />
<path stroke="#000000" stroke-width="2" d="M 1126.7,70" />
<path stroke="#000000" stroke-width="2" d="M 1128.7,50 1134.1,37.1 1134.2,36.7 1134.3,36.4 1134.4,36.1 1134.4,35.7 1134.4,35.4 1134.4,35 1134.4,34.7 1134.3,34.3 1134.2,34 1134.1,33.7 1133.9,33.4 1133.7,33.1 1133.5,32.8 1133.3,32.5 1133,32.3 1132.7,32.1 1132.4,31.9 1132.1,31.7 1131.8,31.6 1131.5,31.5 1131.1,31.4 1130.8,31.4 1130.4,31.4 1130.1,31.4 1129.7,31.4 1129.4,31.5 1129.1,31.6 1128.7,31.7 1128.4,31.9 1128.1,32.1 1127.9,32.3 1127.6,32.5 1127.4,32.8 1127.2,33.1 1127,33.4 1126.8,33.7 1126.7,34 1126.6,34.3 1126.5,34.7 1126.5,35 1126.4,35.4 1126.5,35.7 1126.5,36.1 1126.6,36.4 1126.7,36.7 1126.8,37.1 1127,37.4 1127.2,37.7 1127.4,37.9 1127.6,38.2 1127.9,38.4 1128.1,38.7 1128.4,38.8 1128.7,39 1129.1,39.1 1129.4,39.2 1129.7,39.3 1130.1,39.4 1130.4,39.4 1130.8,39.4 1143.7,34 1151.4,52.5 1159,34 1179,34" />
<path stroke="#000000" stroke-width="2" d="M 1209,70" />
<path stroke="#000000" stroke-width="2" d="M 1209,30 1219,30 1219,70" />
<path stroke="#000000" stroke-width="2" d="M 1225.7,70" />
<path stroke="#000000" stroke-width="2" d="M 1225.7,20 1225.7,20.7 1225.8,21.4 1225.9,22.1 1226.1,22.8 1226.3,23.4 1226.6,24 1226.9,24.6 1227.3,25.2 1227.8,25.8 1228.3,26.2 1228.8,26.7 1229.4,27.1 1230,27.4 1230.6,27.7 1231.3,28 1232,28.2 1232.6,28.3 1233.3,28.3 1234,28.3 1234.7,28.3 1235.4,28.2 1236.1,28 1236.7,27.7 1237.4,27.4 1238,27.1 1238.6,26.7 1239.1,26.2 1239.6,25.8 1240,25.2 1240.4,24.6 1240.8,24 1241.1,23.4 1241.3,22.8 1241.5,22.1 1241.6,21.4 1241.7,20.7" />
<path stroke="#000000" stroke-width="2" d="M 1271.7,70" />
<path stroke="#000000" stroke-width="2" d="M 1271.7,70 1271.9,70 1271.9,70.2 1271.7,70.2 1271.7,70" />
<path stroke="#000000" stroke-width="2" d="M 1278.5,70" />
<path stroke="#000000" stroke-width="2" d="M 1278.5,30 1293.9,67 1309.2,30" />
<path stroke="#000000" stroke-width="2" d="M 1315.8,70" />
<path stroke="#000000" stroke-width="2" d="M 1315.8,20 1315.8,40 1315.8,34 1315.8,33.1 1315.9,32.3 1316.1,31.4 1316.3,30.6 1316.6,29.7 1316.9,28.9 1317.4,28.2 1317.9,27.5 1318.4,26.8 1319.1,26.2 1319.7,25.6 1320.4,25.1 1321.2,24.7 1322,24.3 1322.8,24 1323.7,23.8 1324.5,23.6 1325.4,23.6" />
<path stroke="#000000" stroke-width="2" d="M 1332,70" />
<path stroke="#000000" stroke-width="2" d="M 1356,42 1356,43 1356,44.1 1355.8,45.1 1355.5,46.1 1355.1,47.1 1354.7,48.1 1354.2,49 1353.6,49.8 1352.9,50.6 1352.2,51.4 1351.4,52 1350.5,52.6 1349.6,53.2 1348.7,53.6 1347.7,54 1346.7,54.2 1345.6,54.4 1344.6,54.5 1343.5,54.5 1342.5,54.4 1341.5,54.2 1340.5,54 1339.5,53.6 1338.5,53.2 1337.6,52.6 1336.8,52 1336,51.4 1335.2,50.6 1334.5,49.8 1333.9,49 1333.4,48.1 1333,47.1 1332.6,46.1 1332.3,45.1 1332.2,44.1 1332.1,43 1332.1,42 1332.2,41 1332.3,39.9 1332.6,38.9 1333,37.9 1333.4,37 1333.9,36.1 1334.5,35.2 1335.2,34.4 1336,33.7 1336.8,33 1337.6,32.4 1338.5,31.9 1339.5,31.4 1340.5,31.1 1341.5,30.8 1342.5,30.6 1343.5,30.5 1344.6,30.5 1345.6,30.6 1346.7,30.8 1347.7,31.1 1348.7,31.4 1349.6,31.9 1350.5,32.4 1351.4,33 1352.2,33.7 1352.9,34.4 1353.6,35.2 1354.2,36.1 1354.7,37 1355.1,37.9 1355.5,38.9 1355.8,39.9 1356,41 1356,42 1356,50" />
<path stroke="#000000" stroke-width="2" d="M 1356,50 1355.4,51.7 1354.7,53.4 1354,54.9 1353.2,56.3 1352.4,57.6 1351.5,58.7 1350.6,59.8 1349.6,60.8 1348.6,61.7 1347.5,62.5 1346.5,63.2 1345.4,63.8 1344.3,64.4 1343.1,64.8 1342,65.2 1340.8,65.5 1339.6,65.7 1338.4,65.9 1337.2,66 1336,66" />
<path stroke="#000000" stroke-width="2" d="M 1386,70" />
</svg>