<svg xmlns="http://www.w3.org/2000/svg" width="713.2920208882778" height="127.48001488736067" style="fill:none; stroke-linecap:round;">
    <rect width="100%" height="100%" fill="#FFFFFF" />
<path stroke="#000000" stroke-width="2" d="M 550,75" />
<path stroke="#000000" stroke-width="2" d="M 20,30 20,70" />
<path stroke="#000000" stroke-width="2" d="M 26.7,70" />
<path stroke="#000000" stroke-width="2" d="M 28.7,40 34,27.1 34.2,26.7 34.3,26.4 34.3,26.1 34.4,25.7 34.4,25.4 34.4,25 34.3,24.7 34.3,24.3 34.2,24 34,23.7 33.9,23.4 33.7,23.1 33.5,22.8 33.2,22.5 33,22.3 32.7,22.1 32.4,21.9 32.1,21.7 31.8,21.6 31.4,21.5 31.1,21.4 30.7,21.4 30.4,21.4 30.1,21.4 29.7,21.4 29.4,21.5 29,21.6 28.7,21.7 28.4,21.9 28.1,22.1 27.8,22.3 27.6,22.5 27.3,22.8 27.1,23.1 26.9,23.4 26.8,23.7 26.6,24 26.5,24.3 26.5,24.7 26.4,25 26.4,25.4 26.4,25.7 26.5,26.1 26.5,26.4 26.6,26.7 26.8,27.1 26.9,27.4 27.1,27.7 27.3,27.9 27.6,28.2 27.8,28.4 28.1,28.7 28.4,28.8 28.7,29 29,29.1 29.4,29.2 29.7,29.3 30.1,29.4 30.4,29.4 30.7,29.4 43.7,24 63.7,24" />
<path stroke="#000000" stroke-width="2" d="M 93.7,70" />
<path stroke="#000000" stroke-width="2" d="M 93.7,30 109,67" />
<path stroke="#000000" stroke-width="2" d="M 115.7,70" />
<path stroke="#000000" stroke-width="2" d="M 115.7,20 115.7,40 125.7,40 145.7,40 138,58.5" />
<path stroke="#000000" stroke-width="2" d="M 152.3,70" />
<path stroke="#000000" stroke-width="2" d="M 152.3,20 152.3,40 162.3,40 182.3,40" />
<path stroke="#000000" stroke-width="2" d="M 189,70" />
<path stroke="#000000" stroke-width="2" d="M 189,20 189.9,20 190.7,20.1 191.6,20.2 192.4,20.5 193.3,20.8 194,21.1 194.8,21.6 195.5,22.1 196.2,22.6 196.8,23.2 197.4,23.9 197.9,24.6 198.3,25.4 198.7,26.2 199,27 199.2,27.8 199.3,28.7 199.4,29.6 199.4,30.4 199.3,31.3 199.2,32.2 199,33 198.7,33.8 198.3,34.6 197.9,35.4 197.4,36.1 196.8,36.7 196.2,37.4 195.5,37.9 194.8,38.4 194,38.9 193.3,39.2 192.4,39.5 191.6,39.8 190.7,39.9 189.9,40" />
<path stroke="#000000" stroke-width="2" d="M 229.4,70" />
<path stroke="#000000" stroke-width="2" d="M 229.4,30 229.4,50 239.4,50 259.4,50" />
<path stroke="#000000" stroke-width="2" d="M 289.4,70" />
<path stroke="#000000" stroke-width="2" d="M 291.4,50 296.8,37.1 296.9,36.7 297,36.4 297.1,36.1 297.1,35.7 297.1,35.4 297.1,35 297.1,34.7 297,34.3 296.9,34 296.8,33.7 296.6,33.4 296.4,33.1 296.2,32.8 296,32.5 295.7,32.3 295.4,32.1 295.1,31.9 294.8,31.7 294.5,31.6 294.2,31.5 293.8,31.4 293.5,31.4 293.1,31.4 292.8,31.4 292.5,31.4 292.1,31.5 291.8,31.6 291.5,31.7 291.1,31.9 290.9,32.1 290.6,32.3 290.3,32.5 290.1,32.8 289.9,33.1 289.7,33.4 289.5,33.7 289.4,34 289.3,34.3 289.2,34.7 289.2,35 289.1,35.4 289.2,35.7 289.2,36.1 289.3,36.4 289.4,36.7 289.5,37.1 289.7,37.4 289.9,37.7 290.1,37.9 290.3,38.2 290.6,38.4 290.9,38.7 291.1,38.8 291.5,39 291.8,39.1 292.1,39.2 292.5,39.3 292.8,39.4 293.1,39.4 293.5,39.4 306.4,34" />
<path stroke="#000000" stroke-width="2" d="M 306.4,34 304.4,33.9 302.8,33.6 301.6,33.1 300.7,32.6 300.1,31.9 299.8,31.2 299.8,30.4 300,29.7 300.3,29 300.8,28.4 301.4,27.9 302.1,27.5 302.8,27.3 303.6,27.4 304.3,27.7 305,28.2 305.6,29.1 306,30.4 306.3,32 306.4,34 306.4,49" />
<path stroke="#000000" stroke-width="2" d="M 313.1,70" />
<path stroke="#000000" stroke-width="2" d="M 315.1,70 320.5,57.1 320.6,56.7 320.7,56.4 320.8,56.1 320.8,55.7 320.8,55.4 320.8,55 320.8,54.7 320.7,54.3 320.6,54 320.5,53.7 320.3,53.4 320.1,53.1 319.9,52.8 319.7,52.5 319.4,52.3 319.1,52.1 318.8,51.9 318.5,51.7 318.2,51.6 317.9,51.5 317.5,51.4 317.2,51.4 316.8,51.4 316.5,51.4 316.1,51.4 315.8,51.5 315.5,51.6 315.1,51.7 314.8,51.9 314.5,52.1 314.3,52.3 314,52.5 313.8,52.8 313.6,53.1 313.4,53.4 313.2,53.7 313.1,54 313,54.3 312.9,54.7 312.8,55 312.8,55.4 312.8,55.7 312.9,56.1 313,56.4 313.1,56.7 313.2,57.1 313.4,57.4 313.6,57.7 313.8,57.9 314,58.2 314.3,58.4 314.5,58.7 314.8,58.8 315.1,59 315.5,59.1 315.8,59.2 316.1,59.3 316.5,59.4 316.8,59.4 317.2,59.4 330.1,54" />
<path stroke="#000000" stroke-width="2" d="M 330.1,54 332.1,53.9 333.8,53.6 335,53.1 335.9,52.6 336.4,51.9 336.7,51.2 336.8,50.4 336.6,49.7 336.2,49 335.7,48.4 335.1,47.9 334.4,47.5 333.7,47.3 332.9,47.4 332.2,47.7 331.6,48.2 331,49.1 330.5,50.4 330.2,52 330.1,54 330.1,69 322.5,87.5 322.5,107.5 322.5,101.5 322.5,100.6 322.5,99.7 322.7,98.9 322.9,98 323.2,97.2 323.6,96.4 324,95.7 324.5,95 325.1,94.3 325.7,93.7 326.4,93.1 327.1,92.6 327.8,92.2 328.6,91.8 329.4,91.5 330.3,91.3 331.1,91.1 332,91.1" />
<path stroke="#000000" stroke-width="2" d="M 343.4,70" />
<path stroke="#000000" stroke-width="2" d="M 343.4,70 358.7,33 374,70" />
<path stroke="#000000" stroke-width="2" d="M 404,70" />
<path stroke="#000000" stroke-width="2" d="M 404,30 414,30 414,70" />
<path stroke="#000000" stroke-width="2" d="M 420.7,70" />
<path stroke="#000000" stroke-width="2" d="M 420.7,50 420.7,70 420.7,64 420.7,63.1 420.8,62.3 420.9,61.4 421.2,60.6 421.5,59.7 421.8,58.9 422.3,58.2 422.8,57.5 423.3,56.8 424,56.2 424.6,55.6 425.3,55.1 426.1,54.7 426.9,54.3 427.7,54 428.5,53.8 429.4,53.6 430.3,53.6" />
<path stroke="#000000" stroke-width="2" d="M 460.3,70" />
<path stroke="#000000" stroke-width="2" d="M 460.3,30 460.3,38 460.3,39 460.4,40.1 460.5,41.1 460.8,42.1 461.2,43.1 461.6,44.1 462.1,45 462.7,45.8 463.4,46.6 464.2,47.4 465,48 465.8,48.6 466.7,49.2 467.7,49.6 468.6,50 469.7,50.2 470.7,50.4 471.7,50.5 472.8,50.5 473.8,50.4 474.9,50.2 475.9,50 476.9,49.6 477.8,49.2 478.7,48.6 479.6,48 480.4,47.4 481.1,46.6 481.8,45.8 482.4,45 482.9,44.1 483.3,43.1 483.7,42.1 484,41.1 484.2,40.1 484.2,39 484.2,29 484.2,69" />
<path stroke="#000000" stroke-width="2" d="M 490.9,70" />
<path stroke="#000000" stroke-width="2" d="M 490.9,20 510.9,20" />
<path stroke="#000000" stroke-width="2" d="M 517.6,70" />
<path stroke="#000000" stroke-width="2" d="M 517.6,20 517.6,40 517.6,34 517.6,33.1 517.7,32.3 517.8,31.4 518,30.6 518.3,29.7 518.7,28.9 519.1,28.2 519.6,27.5 520.2,26.8 520.8,26.2 521.5,25.6 522.2,25.1 523,24.7 523.7,24.3 524.6,24 525.4,23.8 526.3,23.6 527.1,23.6" />
<path stroke="#000000" stroke-width="2" d="M 533.8,70" />
<path stroke="#000000" stroke-width="2" d="M 543.8,20 536.1,38.5" />
<path stroke="#000000" stroke-width="2" d="M 550.5,70" />
<path stroke="#000000" stroke-width="2" d="M 560.5,30 559.6,30 558.7,30.1 557.9,30.2 557,30.5 556.2,30.8 555.4,31.1 554.7,31.6 553.9,32.1 553.3,32.6 552.7,33.2 552.1,33.9 551.6,34.6 551.2,35.4 550.8,36.2 550.5,37 550.3,37.8 550.1,38.7 550,39.6 550,40.4 550.1,41.3 550.3,42.2 550.5,43 550.8,43.8 551.2,44.6 551.6,45.4 552.1,46.1 552.7,46.7 553.3,47.4 553.9,47.9 554.7,48.4 555.4,48.9 556.2,49.2 557,49.5 557.9,49.8 558.7,49.9 559.6,50 579.6,50" />
<path stroke="#000000" stroke-width="2" d="M 579.6,50 581.6,49.9 583.2,49.6 584.5,49.1 585.4,48.5 585.9,47.9 586.2,47.1 586.2,46.4 586.1,45.7 585.7,45 585.2,44.4 584.6,43.9 583.9,43.5 583.2,43.3 582.4,43.4 581.7,43.7 581,44.2 580.5,45.1 580,46.3 579.7,48 579.6,50 579.6,65" />
<path stroke="#000000" stroke-width="2" d="M 616.2,70" />
<path stroke="#000000" stroke-width="2" d="M 616.2,40" />
<path stroke="#000000" stroke-width="2" d="M 616.2,40 620.3,39.8 623.5,39.2 626,38.3 627.8,37.1 628.9,35.8 629.5,34.3 629.6,32.8 629.2,31.4 628.5,30 627.5,28.8 626.3,27.7 624.9,27 623.4,26.7 621.9,26.8 620.5,27.3 619.1,28.5 618,30.2 617.1,32.7 616.5,35.9 616.2,40 616.2,70" />
<path stroke="#000000" stroke-width="2" d="M 636.2,70" />
<path stroke="#000000" stroke-width="2" d="M 636.2,30 656.2,30 651.2,30 651.2,50" />
<path stroke="#000000" stroke-width="2" d="M 662.9,70" />
<path stroke="#000000" stroke-width="2" d="M 662.9,20 663.1,20 663.1,20.2 662.9,20.2 662.9,20" />
<path stroke="#000000" stroke-width="2" d="M 693.1,70" />
<path stroke="#000000" stroke-width="2" d="M 693.1,70 693.3,70 693.3,70.2 693.1,70.2 693.1,70" />
<path stroke="#000000" stroke-width="2" d="M 723.3,70" />
</svg>