<svg xmlns="http://www.w3.org/2000/svg" width="1055.7828024176906" height="108.47759065022574" style="fill:none; stroke-linecap:round;">
    <rect width="100%" height="100%" fill="#FFFFFF" />
<path stroke="#000000" stroke-width="2" d="M 550,75" />
<path stroke="#000000" stroke-width="2" d="M 20,70 20.2,70 20.2,70.2 20,70.2 20,70" />
<path stroke="#000000" stroke-width="2" d="M 26.9,70" />
<path stroke="#000000" stroke-width="2" d="M 26.9,30 42.2,67" />
<path stroke="#000000" stroke-width="2" d="M 48.8,70" />
<path stroke="#000000" stroke-width="2" d="M 48.8,55" />
<path stroke="#000000" stroke-width="2" d="M 48.8,55 50.9,54.9 52.5,54.6 53.7,54.1 54.6,53.6 55.2,52.9 55.5,52.2 55.5,51.4 55.3,50.7 55,50 54.5,49.4 53.9,48.9 53.2,48.5 52.4,48.3 51.7,48.4 51,48.7 50.3,49.2 49.7,50.1 49.2,51.4 48.9,53 48.8,55 48.8,70 41.2,88.5" />
<path stroke="#000000" stroke-width="2" d="M 85.5,70" />
<path stroke="#000000" stroke-width="2" d="M 101.5,30" />
<path stroke="#000000" stroke-width="2" d="M 101.5,30 101.3,34.1 100.7,37.3 99.8,39.8 98.6,41.5 97.3,42.7 95.8,43.2 94.3,43.3 92.9,43 91.5,42.3 90.2,41.2 89.2,40 88.5,38.6 88.2,37.2 88.3,35.7 88.8,34.2 90,32.9 91.7,31.7 94.2,30.8 97.4,30.2 101.5,30 121.5,30" />
<path stroke="#000000" stroke-width="2" d="M 128.2,70" />
<path stroke="#000000" stroke-width="2" d="M 128.2,50 128.2,70 133.8,64.3" />
<path stroke="#000000" stroke-width="2" d="M 140.5,70" />
<path stroke="#000000" stroke-width="2" d="M 140.5,20 140.5,40 140.5,34 140.5,33.1 140.6,32.3 140.7,31.4 140.9,30.6 141.2,29.7 141.6,28.9 142,28.2 142.5,27.5 143.1,26.8 143.7,26.2 144.4,25.6 145.1,25.1 145.9,24.7 146.6,24.3 147.5,24 148.3,23.8 149.2,23.6 150,23.6 155,23.6 155,43.6" />
<path stroke="#000000" stroke-width="2" d="M 155,33.6" />
<path stroke="#000000" stroke-width="2" d="M 151,33.6 159,33.6" />
<path stroke="#000000" stroke-width="2" d="M 189,70" />
<path stroke="#000000" stroke-width="2" d="M 189,30 204.3,67" />
<path stroke="#000000" stroke-width="2" d="M 211,70" />
<path stroke="#000000" stroke-width="2" d="M 221,20 221,40 211,40" />
<path stroke="#000000" stroke-width="2" d="M 227.7,70" />
<path stroke="#000000" stroke-width="2" d="M 227.7,70 227.7,68.6 227.8,67.2 228,65.8 228.4,64.5 228.9,63.2 229.5,61.9 230.2,60.7 231,59.6 231.9,58.5 232.9,57.5 233.9,56.6 235.1,55.8 236.3,55.1 237.5,54.5 238.9,54 240.2,53.7 241.6,53.4 243,53.3 244.4,53.3 245.8,53.4 247.1,53.7 248.5,54 249.8,54.5 251.1,55.1 252.3,55.8 253.4,56.6 254.5,57.5 255.5,58.5 256.4,59.6 257.2,60.7 257.9,61.9 258.4,63.2 258.9,64.5 259.3,65.8 259.5,67.2 259.6,68.6" />
<path stroke="#000000" stroke-width="2" d="M 289.6,70" />
<path stroke="#000000" stroke-width="2" d="M 289.6,30 329.6,30" />
<path stroke="#000000" stroke-width="2" d="M 336.3,70" />
<path stroke="#000000" stroke-width="2" d="M 336.3,50 336.3,70 342,64.3 362,64.3" />
<path stroke="#000000" stroke-width="2" d="M 392,70" />
<path stroke="#000000" stroke-width="2" d="M 412,30 396.7,67" />
<path stroke="#000000" stroke-width="2" d="M 418.6,70" />
<path stroke="#000000" stroke-width="2" d="M 426.6,50" />
<path stroke="#000000" stroke-width="2" d="M 426.6,50 426.5,52 426.2,53.6 425.8,54.9 425.2,55.8 424.5,56.3 423.8,56.6 423.1,56.7 422.3,56.5 421.6,56.1 421,55.6 420.5,55 420.2,54.3 420,53.6 420,52.8 420.3,52.1 420.9,51.4 421.8,50.9 423,50.4 424.6,50.1 426.6,50 436.6,50" />
<path stroke="#000000" stroke-width="2" d="M 443.3,70" />
<path stroke="#000000" stroke-width="2" d="M 443.3,50 463.3,50" />
<path stroke="#000000" stroke-width="2" d="M 470,70" />
<path stroke="#000000" stroke-width="2" d="M 470,30 471.7,30 473.5,30.2 475.2,30.5 476.9,30.9 478.5,31.5 480.1,32.2 481.6,33.1 483,34.1 484.4,35.2 485.6,36.5 486.7,37.8 487.7,39.2 488.6,40.7 489.3,42.3 489.9,44 490.4,45.7 490.7,47.4 490.8,49.1 490.8,50.9 490.7,52.6 490.4,54.3 489.9,56 489.3,57.6 488.6,59.2 487.7,60.7 486.7,62.2 485.6,63.5 484.4,64.7 483,65.8 481.6,66.8 480.1,67.7 478.5,68.5 476.9,69.1 475.2,69.5 473.5,69.8 471.7,70" />
<path stroke="#000000" stroke-width="2" d="M 497.5,70" />
<path stroke="#000000" stroke-width="2" d="M 497.5,50 505.1,68.5" />
<path stroke="#000000" stroke-width="2" d="M 535.1,70" />
<path stroke="#000000" stroke-width="2" d="M 535.1,42 535.9,42 535.9,42.8 535.1,42.8 535.1,42" />
<path stroke="#000000" stroke-width="2" d="M 535.1,58 535.9,58 535.9,58.8 535.1,58.8 535.1,58" />
<path stroke="#000000" stroke-width="2" d="M 565.9,70" />
<path stroke="#000000" stroke-width="2" d="M 565.9,70 566.1,70 566.1,70.2 565.9,70.2 565.9,70" />
<path stroke="#000000" stroke-width="2" d="M 572.8,70" />
<path stroke="#000000" stroke-width="2" d="M 574.8,50 580.2,37.1 580.3,36.7 580.4,36.4 580.5,36.1 580.5,35.7 580.5,35.4 580.5,35 580.5,34.7 580.4,34.3 580.3,34 580.2,33.7 580,33.4 579.8,33.1 579.6,32.8 579.4,32.5 579.1,32.3 578.8,32.1 578.5,31.9 578.2,31.7 577.9,31.6 577.6,31.5 577.2,31.4 576.9,31.4 576.5,31.4 576.2,31.4 575.9,31.4 575.5,31.5 575.2,31.6 574.9,31.7 574.5,31.9 574.3,32.1 574,32.3 573.7,32.5 573.5,32.8 573.3,33.1 573.1,33.4 572.9,33.7 572.8,34 572.7,34.3 572.6,34.7 572.6,35 572.5,35.4 572.6,35.7 572.6,36.1 572.7,36.4 572.8,36.7 572.9,37.1 573.1,37.4 573.3,37.7 573.5,37.9 573.7,38.2 574,38.4 574.3,38.7 574.5,38.8 574.9,39 575.2,39.1 575.5,39.2 575.9,39.3 576.2,39.4 576.5,39.4 576.9,39.4 589.8,34 589.8,34.7 589.9,35.4 590,36.1 590.2,36.8 590.4,37.4 590.7,38 591.1,38.6 591.5,39.2 591.9,39.8 592.4,40.2 593,40.7 593.5,41.1 594.1,41.4 594.8,41.7 595.4,42 596.1,42.2 596.8,42.3 597.5,42.3 598.2,42.3 598.9,42.3 599.6,42.2 600.2,42 600.9,41.7 601.5,41.4 602.1,41.1 602.7,40.7 603.2,40.2 603.7,39.8 604.2,39.2 604.6,38.6 604.9,38 605.2,37.4 605.5,36.8 605.6,36.1 605.8,35.4 605.8,34.7" />
<path stroke="#000000" stroke-width="2" d="M 612.5,70" />
<path stroke="#000000" stroke-width="2" d="M 612.5,20 620.1,38.5" />
<path stroke="#000000" stroke-width="2" d="M 620.1,28.5" />
<path stroke="#000000" stroke-width="2" d="M 609.1,28.5 623.1,28.5" />
<path stroke="#000000" stroke-width="2" d="M 623.1,28.5 625.2,28.4 626.8,28.1 628,27.6 628.9,27 629.5,26.4 629.7,25.6 629.8,24.9 629.6,24.2 629.3,23.5 628.8,22.9 628.1,22.4 627.5,22 626.7,21.8 626,21.9 625.2,22.1 624.6,22.7 624,23.6 623.5,24.8 623.2,26.4 623.1,28.5 623.1,43.5" />
<path stroke="#000000" stroke-width="2" d="M 659.8,70" />
<path stroke="#000000" stroke-width="2" d="M 669.8,30 668.9,30 668,30.1 667.2,30.2 666.3,30.5 665.5,30.8 664.7,31.1 664,31.6 663.3,32.1 662.6,32.6 662,33.2 661.4,33.9 660.9,34.6 660.5,35.4 660.1,36.2 659.8,37 659.6,37.8 659.4,38.7 659.4,39.6 659.4,40.4 659.4,41.3 659.6,42.2 659.8,43 660.1,43.8 660.5,44.6 660.9,45.4 661.4,46.1 662,46.7 662.6,47.4 663.3,47.9 664,48.4 664.7,48.9 665.5,49.2 666.3,49.5 667.2,49.8 668,49.9 668.9,50 673.9,50 673.9,70" />
<path stroke="#000000" stroke-width="2" d="M 703.9,70" />
<path stroke="#000000" stroke-width="2" d="M 719.9,30 700.1,49.8 719.9,69.6" />
<path stroke="#000000" stroke-width="2" d="M 726.6,70" />
<path stroke="#000000" stroke-width="2" d="M 726.6,20 726.6,40 726.6,34 726.6,33.1 726.7,32.3 726.8,31.4 727,30.6 727.3,29.7 727.7,28.9 728.1,28.2 728.6,27.5 729.2,26.8 729.8,26.2 730.5,25.6 731.2,25.1 732,24.7 732.7,24.3 733.6,24 734.4,23.8 735.3,23.6 736.1,23.6 743.8,42.1" />
<path stroke="#000000" stroke-width="2" d="M 750.5,70" />
<path stroke="#000000" stroke-width="2" d="M 750.5,50 770.5,50" />
<path stroke="#000000" stroke-width="2" d="M 777.1,70" />
<path stroke="#000000" stroke-width="2" d="M 777.1,30 777.3,30 777.3,30.2 777.1,30.2 777.1,30" />
<path stroke="#000000" stroke-width="2" d="M 807.3,70" />
<path stroke="#000000" stroke-width="2" d="M 807.3,70 807.5,70 807.5,70.2 807.3,70.2 807.3,70" />
<path stroke="#000000" stroke-width="2" d="M 837.5,70" />
<path stroke="#000000" stroke-width="2" d="M 837.5,30" />
<path stroke="#000000" stroke-width="2" d="M 837.5,30 837.7,30 838.1,30 838.7,30 839.6,30.1 840.6,30.2 841.8,30.3 843.2,30.4 844.6,30.6 846,30.9 847.5,31.2 849,31.7 850.5,32.2 851.9,32.7 853.2,33.4 854.4,34.2 855.4,35.1 856.3,36.1 857,37.3 857.4,38.6 857.5,40" />
<path stroke="#000000" stroke-width="2" d="M 857.5,40 859.4,42.1 860.8,44.1 861.5,45.7 861.8,47.2 861.7,48.4 861.3,49.4 860.6,50.2 859.7,50.8 858.6,51.1 857.5,51.2 856.4,51.1 855.4,50.8 854.5,50.2 853.7,49.5 853.3,48.4 853.2,47.2 853.5,45.7 854.3,44.1 855.6,42.1 857.5,40" />
<path stroke="#000000" stroke-width="2" d="M 857.5,40 857.5,39.9 857.5,39.7 857.6,39.4 857.7,39 857.8,38.4 858.1,37.8 858.4,37.2 858.8,36.5 859.3,35.7 860,35 860.9,34.3 861.8,33.5 863,32.8 864.4,32.2 866,31.6 867.8,31 869.8,30.6 872.1,30.3 874.7,30.1 877.5,30" />
<path stroke="#000000" stroke-width="2" d="M 877.5,30 879.6,29.9 881.2,29.6 882.4,29.1 883.3,28.6 883.9,27.9 884.1,27.2 884.2,26.4 884,25.7 883.6,25 883.1,24.4 882.5,23.9 881.8,23.5 881.1,23.3 880.4,23.4 879.6,23.7 879,24.2 878.4,25.1 877.9,26.4 877.6,28 877.5,30 877.5,45" />
<path stroke="#000000" stroke-width="2" d="M 877.5,45 875.5,44.9 873.9,44.6 872.6,44.1 871.8,43.6 871.2,42.9 870.9,42.2 870.9,41.4 871,40.7 871.4,40 871.9,39.4 872.5,38.9 873.2,38.5 873.9,38.3 874.7,38.4 875.4,38.7 876.1,39.2 876.7,40.1 877.1,41.4 877.4,43 877.5,45 877.5,49" />
<path stroke="#000000" stroke-width="2" d="M 877.5,49 877.2,49.9 876.9,50.7 876.5,51.4 876.1,52.1 875.7,52.8 875.2,53.4 874.8,53.9 874.3,54.4 873.8,54.9 873.3,55.2 872.7,55.6 872.2,55.9 871.6,56.2 871.1,56.4 870.5,56.6 869.9,56.7 869.3,56.9 868.7,56.9 868.1,57 867.5,57" />
<path stroke="#000000" stroke-width="2" d="M 914.2,70" />
<path stroke="#000000" stroke-width="2" d="M 914.2,70 914.4,70 914.4,70.2 914.2,70.2 914.2,70" />
<path stroke="#000000" stroke-width="2" d="M 921,70" />
<path stroke="#000000" stroke-width="2" d="M 921,30 936.4,67" />
<path stroke="#000000" stroke-width="2" d="M 943,70" />
<path stroke="#000000" stroke-width="2" d="M 953,20 953,40 943,40" />
<path stroke="#000000" stroke-width="2" d="M 959.7,70" />
<path stroke="#000000" stroke-width="2" d="M 959.7,70 959.7,68.6 959.8,67.2 960,65.8 960.4,64.5 960.9,63.2 961.5,61.9 962.2,60.7 963,59.6 963.9,58.5 964.9,57.5 965.9,56.6 967.1,55.8 968.3,55.1 969.5,54.5 970.9,54 972.2,53.7 973.6,53.4 975,53.3 976.4,53.3 977.8,53.4 979.1,53.7 980.5,54 981.8,54.5 983.1,55.1 984.3,55.8 985.4,56.6 986.5,57.5 987.5,58.5 988.4,59.6 989.2,60.7 989.9,61.9 990.5,63.2 990.9,64.5 991.3,65.8 991.5,67.2 991.7,68.6" />
<path stroke="#000000" stroke-width="2" d="M 1021.7,70" />
<path stroke="#000000" stroke-width="2" d="M 1031.7,30 1030.8,30 1029.9,30.1 1029.1,30.2 1028.2,30.5 1027.4,30.8 1026.6,31.1 1025.8,31.6 1025.1,32.1 1024.5,32.6 1023.8,33.2 1023.3,33.9 1022.8,34.6 1022.3,35.4 1022,36.2 1021.7,37 1021.5,37.8 1021.3,38.7 1021.2,39.6 1021.2,40.4 1021.3,41.3 1021.5,42.2 1021.7,43 1022,43.8 1022.3,44.6 1022.8,45.4 1023.3,46.1 1023.8,46.7 1024.5,47.4 1025.1,47.9 1025.8,48.4 1026.6,48.9 1027.4,49.2 1028.2,49.5 1029.1,49.8 1029.9,49.9 1030.8,50 1035.8,50 1035.8,70" />
<path stroke="#000000" stroke-width="2" d="M 1065.8,70" />
</svg>