<svg xmlns="http://www.w3.org/2000/svg" width="1224.5847232857543" height="102.0" style="fill:none; stroke-linecap:round;">
    <rect width="100%" height="100%" fill="#FFFFFF" />
<path stroke="#000000" stroke-width="2" d="M 550,75" />
<path stroke="#000000" stroke-width="2" d="M 36,30 36,60" />
<path stroke="#000000" stroke-width="2" d="M 36,60 35.8,64.1 35.2,67.3 34.3,69.8 33.1,71.5 31.8,72.7 30.3,73.2 28.8,73.3 27.4,73 26,72.3 24.8,71.2 23.7,70 23,68.6 22.7,67.2 22.8,65.7 23.3,64.2 24.5,62.9 26.2,61.7 28.7,60.8 31.9,60.2 36,60" />
<path stroke="#000000" stroke-width="2" d="M 42.7,70" />
<path stroke="#000000" stroke-width="2" d="M 42.7,20 50.3,38.5 58,20" />
<path stroke="#000000" stroke-width="2" d="M 64.6,70" />
<path stroke="#000000" stroke-width="2" d="M 64.6,50 64.6,70 70.3,64.3" />
<path stroke="#000000" stroke-width="2" d="M 77,70" />
<path stroke="#000000" stroke-width="2" d="M 77,20" />
<path stroke="#000000" stroke-width="2" d="M 77,20 78.4,20.1 79.7,20.6 80.8,21.2 81.8,22.1 82.6,23.1 83.3,24.3 83.8,25.6 84.2,27 84.4,28.5 84.5,30 84.4,31.5 84.2,33 83.8,34.4 83.3,35.7 82.6,36.9 81.8,37.9 80.8,38.8 79.7,39.4 78.4,39.9 77,40" />
<path stroke="#000000" stroke-width="2" d="M 114.5,70" />
<path stroke="#000000" stroke-width="2" d="M 134.5,70 136.2,70 137.9,69.8 139.7,69.5 141.4,69.1 143,68.5 144.6,67.8 146.1,66.9 147.5,65.9 148.8,64.8 150.1,63.5 151.2,62.2 152.2,60.8 153.1,59.3 153.8,57.7 154.4,56 154.9,54.3 155.2,52.6 155.3,50.9 155.3,49.1 155.2,47.4 154.9,45.7 154.4,44 153.8,42.4 153.1,40.8 152.2,39.3 151.2,37.8 150.1,36.5 148.8,35.3 147.5,34.2 146.1,33.2 144.6,32.3 143,31.5 141.4,30.9 139.7,30.5 137.9,30.2 136.2,30 134.5,30 132.7,30.2 131,30.5 129.3,30.9 127.7,31.5 126.1,32.3 124.6,33.2 123.2,34.2 121.8,35.3 120.6,36.5 119.5,37.8 118.5,39.3 117.6,40.8 116.9,42.4 116.3,44 115.8,45.7 115.5,47.4 115.4,49.1 115.4,50.9 115.5,52.6 115.8,54.3 116.3,56 116.9,57.7 117.6,59.3 118.5,60.8 119.5,62.2 120.6,63.5 121.8,64.8 123.2,65.9 124.6,66.9 126.1,67.8 127.7,68.5 129.3,69.1 131,69.5 132.7,69.8 134.5,70" />
<path stroke="#000000" stroke-width="2" d="M 162,70" />
<path stroke="#000000" stroke-width="2" d="M 172,20 164.3,38.5" />
<path stroke="#000000" stroke-width="2" d="M 202,70" />
<path stroke="#000000" stroke-width="2" d="M 218,30 218,60" />
<path stroke="#000000" stroke-width="2" d="M 218,60 217.8,64.1 217.2,67.3 216.3,69.8 215.1,71.5 213.8,72.7 212.3,73.2 210.8,73.3 209.3,73 208,72.3 206.7,71.2 205.7,70 205,68.6 204.7,67.2 204.8,65.7 205.3,64.2 206.5,62.9 208.2,61.7 210.7,60.8 213.9,60.2 218,60" />
<path stroke="#000000" stroke-width="2" d="M 224.7,70" />
<path stroke="#000000" stroke-width="2" d="M 224.7,20 224.7,40 230.3,34.3" />
<path stroke="#000000" stroke-width="2" d="M 237,70" />
<path stroke="#000000" stroke-width="2" d="M 237,50" />
<path stroke="#000000" stroke-width="2" d="M 237,50 237.1,50 237.5,50 238.2,50 239.1,50.1 240.1,50.2 241.3,50.3 242.6,50.4 244,50.6 245.5,50.9 247,51.2 248.5,51.7 249.9,52.2 251.3,52.7 252.7,53.4 253.8,54.2 254.9,55.1 255.8,56.1 256.4,57.3 256.8,58.6 257,60" />
<path stroke="#000000" stroke-width="2" d="M 257,60 258.9,62.1 260.2,64.1 261,65.7 261.3,67.2 261.2,68.4 260.8,69.5 260,70.2 259.1,70.8 258.1,71.1 257,71.2 255.9,71.1 254.8,70.8 253.9,70.2 253.2,69.5 252.8,68.4 252.7,67.2 253,65.7 253.7,64 255.1,62.1 257,60" />
<path stroke="#000000" stroke-width="2" d="M 257,60 257,59.9 257,59.7 257,59.4 257.1,59 257.3,58.4 257.5,57.8 257.8,57.2 258.3,56.5 258.8,55.7 259.5,55 260.3,54.3 261.3,53.5 262.5,52.8 263.8,52.2 265.4,51.6 267.2,51 269.3,50.6 271.6,50.3 274.1,50.1 277,50 277,50.7 277,51.4 277.2,52.1 277.3,52.8 277.6,53.4 277.9,54 278.2,54.6 278.6,55.2 279.1,55.8 279.6,56.2 280.1,56.7 280.7,57.1 281.3,57.4 281.9,57.7 282.6,58 283.2,58.2 283.9,58.3 284.6,58.3 285.3,58.3 286,58.3 286.7,58.2 287.4,58 288,57.7 288.7,57.4 289.3,57.1 289.8,56.7 290.4,56.2 290.9,55.8 291.3,55.2 291.7,54.6 292.1,54 292.4,53.4 292.6,52.8 292.8,52.1 292.9,51.4 293,50.7" />
<path stroke="#000000" stroke-width="2" d="M 293,50.7 294.4,50.8 295.7,51.3 296.8,51.9 297.8,52.8 298.6,53.8 299.3,55 299.8,56.3 300.2,57.7 300.4,59.2 300.5,60.7 300.4,62.2 300.2,63.7 299.8,65.1 299.3,66.4 298.6,67.6 297.8,68.6 296.8,69.5 295.7,70.1 294.4,70.6 293,70.7" />
<path stroke="#000000" stroke-width="2" d="M 330.5,70" />
<path stroke="#000000" stroke-width="2" d="M 338.5,30 338.5,45" />
<path stroke="#000000" stroke-width="2" d="M 338.5,45 338.4,47 338.1,48.6 337.6,49.9 337,50.8 336.3,51.3 335.6,51.6 334.9,51.7 334.1,51.5 333.4,51.1 332.8,50.6 332.3,50 332,49.3 331.8,48.6 331.8,47.8 332.1,47.1 332.7,46.4 333.6,45.9 334.8,45.4 336.4,45.1 338.5,45 338.5,65 338.5,59 338.5,58.1 338.5,57.3 338.7,56.4 338.9,55.6 339.2,54.7 339.6,53.9 340,53.2 340.5,52.5 341.1,51.8 341.7,51.2 342.4,50.6 343.1,50.1 343.8,49.7 344.6,49.3 345.4,49 346.3,48.8 347.1,48.6 348,48.6" />
<path stroke="#000000" stroke-width="2" d="M 354.7,70" />
<path stroke="#000000" stroke-width="2" d="M 354.7,50" />
<path stroke="#000000" stroke-width="2" d="M 354.7,50 354.8,50 355.2,50 355.9,50 356.8,50.1 357.8,50.2 359,50.3 360.3,50.4 361.7,50.6 363.2,50.9 364.7,51.2 366.2,51.7 367.6,52.2 369,52.7 370.4,53.4 371.6,54.2 372.6,55.1 373.5,56.1 374.1,57.3 374.5,58.6 374.7,60" />
<path stroke="#000000" stroke-width="2" d="M 374.7,60 376.6,62.1 377.9,64.1 378.7,65.7 379,67.2 378.9,68.4 378.5,69.5 377.8,70.2 376.8,70.8 375.8,71.1 374.7,71.2 373.6,71.1 372.5,70.8 371.6,70.2 370.9,69.5 370.5,68.4 370.4,67.2 370.7,65.7 371.4,64 372.8,62.1 374.7,60" />
<path stroke="#000000" stroke-width="2" d="M 374.7,60 374.7,59.9 374.7,59.7 374.7,59.4 374.8,59 375,58.4 375.2,57.8 375.5,57.2 376,56.5 376.5,55.7 377.2,55 378,54.3 379,53.5 380.2,52.8 381.5,52.2 383.1,51.6 384.9,51 387,50.6 389.3,50.3 391.8,50.1 394.7,50" />
<path stroke="#000000" stroke-width="2" d="M 394.7,50 396.1,50.1 397.4,50.6 398.5,51.2 399.5,52.1 400.3,53.1 401,54.3 401.5,55.6 401.9,57 402.1,58.5 402.2,60 402.1,61.5 401.9,63 401.5,64.4 401,65.7 400.3,66.9 399.5,67.9 398.5,68.8 397.4,69.4 396.1,69.9 394.7,70" />
<path stroke="#000000" stroke-width="2" d="M 432.2,70" />
<path stroke="#000000" stroke-width="2" d="M 432.2,70 432.4,70 432.4,70.2 432.2,70.2 432.2,70" />
<path stroke="#000000" stroke-width="2" d="M 439,70" />
<path stroke="#000000" stroke-width="2" d="M 439,30 439,31.4 439.2,32.8 439.4,34.2 439.8,35.5 440.2,36.8 440.8,38.1 441.5,39.3 442.3,40.4 443.2,41.5 444.2,42.5 445.3,43.4 446.4,44.2 447.6,44.9 448.9,45.5 450.2,46 451.6,46.3 452.9,46.6 454.3,46.7 455.7,46.7 457.1,46.6 458.5,46.3 459.8,46 461.2,45.5 462.4,44.9 463.6,44.2 464.8,43.4 465.8,42.5 466.8,41.5 467.7,40.4 468.5,39.3 469.2,38.1 469.8,36.8 470.3,35.5 470.7,34.2 470.9,32.8 471,31.4" />
<path stroke="#000000" stroke-width="2" d="M 477.7,70" />
<path stroke="#000000" stroke-width="2" d="M 477.7,20 497.7,20" />
<path stroke="#000000" stroke-width="2" d="M 497.7,20 499.1,20.1 500.4,20.6 501.5,21.2 502.5,22.1 503.3,23.1 504,24.3 504.5,25.6 504.9,27 505.1,28.5 505.2,30 505.1,31.5 504.9,33 504.5,34.4 504,35.7 503.3,36.9 502.5,37.9 501.5,38.8 500.4,39.4 499.1,39.9 497.7,40" />
<path stroke="#000000" stroke-width="2" d="M 535.2,70" />
<path stroke="#000000" stroke-width="2" d="M 535.2,30 575.2,30" />
<path stroke="#000000" stroke-width="2" d="M 605.2,70" />
<path stroke="#000000" stroke-width="2" d="M 607.2,50 612.5,37.1 612.7,36.7 612.8,36.4 612.9,36.1 612.9,35.7 612.9,35.4 612.9,35 612.9,34.7 612.8,34.3 612.7,34 612.5,33.7 612.4,33.4 612.2,33.1 612,32.8 611.7,32.5 611.5,32.3 611.2,32.1 610.9,31.9 610.6,31.7 610.3,31.6 610,31.5 609.6,31.4 609.3,31.4 608.9,31.4 608.6,31.4 608.2,31.4 607.9,31.5 607.5,31.6 607.2,31.7 606.9,31.9 606.6,32.1 606.3,32.3 606.1,32.5 605.9,32.8 605.6,33.1 605.5,33.4 605.3,33.7 605.2,34 605.1,34.3 605,34.7 604.9,35 604.9,35.4 604.9,35.7 605,36.1 605.1,36.4 605.2,36.7 605.3,37.1 605.5,37.4 605.6,37.7 605.9,37.9 606.1,38.2 606.3,38.4 606.6,38.7 606.9,38.8 607.2,39 607.5,39.1 607.9,39.2 608.2,39.3 608.6,39.4 608.9,39.4 609.3,39.4 622.2,34 614.5,52.5" />
<path stroke="#000000" stroke-width="2" d="M 628.9,70" />
<path stroke="#000000" stroke-width="2" d="M 628.9,20 628.9,40 628.9,34 628.9,33.1 628.9,32.3 629.1,31.4 629.3,30.6 629.6,29.7 630,28.9 630.4,28.2 630.9,27.5 631.5,26.8 632.1,26.2 632.8,25.6 633.5,25.1 634.2,24.7 635,24.3 635.8,24 636.7,23.8 637.6,23.6 638.4,23.6 658.4,23.6" />
<path stroke="#000000" stroke-width="2" d="M 665.1,70" />
<path stroke="#000000" stroke-width="2" d="M 665.1,20 665.1,20.7 665.1,21.4 665.3,22.1 665.4,22.8 665.7,23.4 666,24 666.3,24.6 666.7,25.2 667.2,25.8 667.7,26.2 668.2,26.7 668.8,27.1 669.4,27.4 670,27.7 670.7,28 671.3,28.2 672,28.3 672.7,28.3 673.4,28.3 674.1,28.3 674.8,28.2 675.5,28 676.1,27.7 676.8,27.4 677.4,27.1 677.9,26.7 678.5,26.2 679,25.8 679.4,25.2 679.8,24.6 680.2,24 680.5,23.4 680.7,22.8 680.9,22.1 681,21.4 681.1,20.7" />
<path stroke="#000000" stroke-width="2" d="M 711.1,70" />
<path stroke="#000000" stroke-width="2" d="M 711.1,30 751.1,30" />
<path stroke="#000000" stroke-width="2" d="M 757.7,70" />
<path stroke="#000000" stroke-width="2" d="M 777.7,30 762.4,67" />
<path stroke="#000000" stroke-width="2" d="M 807.7,70" />
<path stroke="#000000" stroke-width="2" d="M 807.7,70 807.9,70 807.9,70.2 807.7,70.2 807.7,70" />
<path stroke="#000000" stroke-width="2" d="M 837.9,70" />
<path stroke="#000000" stroke-width="2" d="M 837.9,30 837.9,70 837.9,58 837.9,56.3 838.1,54.5 838.4,52.8 838.8,51.1 839.4,49.5 840.2,47.9 841.1,46.4 842.1,45 843.2,43.6 844.4,42.4 845.7,41.3 847.2,40.3 848.7,39.4 850.3,38.7 851.9,38.1 853.6,37.6 855.3,37.3 857,37.1" />
<path stroke="#000000" stroke-width="2" d="M 863.7,70" />
<path stroke="#000000" stroke-width="2" d="M 863.7,20 863.7,20.7 863.8,21.4 863.9,22.1 864.1,22.8 864.3,23.4 864.6,24 865,24.6 865.4,25.2 865.8,25.8 866.3,26.2 866.8,26.7 867.4,27.1 868,27.4 868.6,27.7 869.3,28 870,28.2 870.7,28.3 871.4,28.3 872.1,28.3 872.7,28.3 873.4,28.2 874.1,28 874.8,27.7 875.4,27.4 876,27.1 876.6,26.7 877.1,26.2 877.6,25.8 878.1,25.2 878.5,24.6 878.8,24 879.1,23.4 879.3,22.8 879.5,22.1 879.6,21.4 879.7,20.7" />
<path stroke="#000000" stroke-width="2" d="M 886.4,70" />
<path stroke="#000000" stroke-width="2" d="M 886.4,58 886.4,57.3 886.4,56.6 886.5,55.9 886.7,55.2 887,54.6 887.3,54 887.6,53.4 888,52.8 888.5,52.2 889,51.8 889.5,51.3 890.1,50.9 890.7,50.6 891.3,50.3 892,50 892.6,49.8 893.3,49.7 894,49.7 894.7,49.7 895.4,49.7 896.1,49.8 896.8,50 897.4,50.3 898.1,50.6 898.7,50.9 899.2,51.3 899.8,51.8 900.3,52.2 900.7,52.8 901.1,53.4 901.5,54 901.7,54.6 902,55.2 902.2,55.9 902.3,56.6 902.3,57.3 894.7,75.8" />
<path stroke="#000000" stroke-width="2" d="M 909,70" />
<path stroke="#000000" stroke-width="2" d="M 909,20 929,20 921.4,38.5 921.4,39.2 921.4,39.9 921.5,40.6 921.7,41.2 922,41.9 922.3,42.5 922.6,43.1 923,43.7 923.5,44.2 923.9,44.7 924.5,45.2 925.1,45.6 925.7,45.9 926.3,46.2 926.9,46.5 927.6,46.6 928.3,46.8 929,46.8 929.7,46.8 930.4,46.8 931.1,46.6 931.8,46.5 932.4,46.2 933,45.9 933.7,45.6 934.2,45.2 934.8,44.7 935.3,44.2 935.7,43.7 936.1,43.1 936.5,42.5 936.7,41.9 937,41.2 937.2,40.6 937.3,39.9 937.3,39.2" />
<path stroke="#000000" stroke-width="2" d="M 944,70" />
<path stroke="#000000" stroke-width="2" d="M 944,30 944.2,30 944.2,30.2 944,30.2 944,30" />
<path stroke="#000000" stroke-width="2" d="M 974.2,70" />
<path stroke="#000000" stroke-width="2" d="M 974.2,70" />
<path stroke="#000000" stroke-width="2" d="M 974.2,70 975.3,70 976.3,70.2 977.2,70.4 977.9,70.7 978.4,71 978.9,71.5 979.2,71.9 979.4,72.5 979.5,73.1 979.5,73.8 979.3,74.4 979.1,75.2 978.8,76 978.4,76.8 977.9,77.6 977.3,78.4 976.6,79.3 975.9,80.2 975.1,81.1 974.2,82" />
<path stroke="#000000" stroke-width="2" d="M 1009.5,70" />
<path stroke="#000000" stroke-width="2" d="M 1009.5,70 1009.7,70 1009.7,70.2 1009.5,70.2 1009.5,70" />
<path stroke="#000000" stroke-width="2" d="M 1016.4,70" />
<path stroke="#000000" stroke-width="2" d="M 1018.4,50 1023.7,37.1 1023.8,36.7 1023.9,36.4 1024,36.1 1024.1,35.7 1024.1,35.4 1024.1,35 1024,34.7 1023.9,34.3 1023.8,34 1023.7,33.7 1023.5,33.4 1023.4,33.1 1023.1,32.8 1022.9,32.5 1022.7,32.3 1022.4,32.1 1022.1,31.9 1021.8,31.7 1021.5,31.6 1021.1,31.5 1020.8,31.4 1020.4,31.4 1020.1,31.4 1019.7,31.4 1019.4,31.4 1019,31.5 1018.7,31.6 1018.4,31.7 1018.1,31.9 1017.8,32.1 1017.5,32.3 1017.3,32.5 1017,32.8 1016.8,33.1 1016.6,33.4 1016.5,33.7 1016.3,34 1016.2,34.3 1016.1,34.7 1016.1,35 1016.1,35.4 1016.1,35.7 1016.1,36.1 1016.2,36.4 1016.3,36.7 1016.5,37.1 1016.6,37.4 1016.8,37.7 1017,37.9 1017.3,38.2 1017.5,38.4 1017.8,38.7 1018.1,38.8 1018.4,39 1018.7,39.1 1019,39.2 1019.4,39.3 1019.7,39.4 1020.1,39.4 1020.4,39.4 1033.4,34 1033.4,34.7 1033.4,35.4 1033.5,36.1 1033.7,36.8 1034,37.4 1034.3,38 1034.6,38.6 1035,39.2 1035.5,39.8 1036,40.2 1036.5,40.7 1037.1,41.1 1037.7,41.4 1038.3,41.7 1039,42 1039.6,42.2 1040.3,42.3 1041,42.3 1041.7,42.3 1042.4,42.3 1043.1,42.2 1043.8,42 1044.4,41.7 1045.1,41.4 1045.7,41.1 1046.2,40.7 1046.8,40.2 1047.3,39.8 1047.7,39.2 1048.1,38.6 1048.5,38 1048.8,37.4 1049,36.8 1049.2,36.1 1049.3,35.4 1049.4,34.7" />
<path stroke="#000000" stroke-width="2" d="M 1049.4,34.7 1050.8,34.8 1052.1,35.3 1053.2,35.9 1054.2,36.8 1055,37.8 1055.7,39 1056.2,40.3 1056.6,41.7 1056.8,43.2 1056.9,44.7 1056.8,46.2 1056.6,47.7 1056.2,49.1 1055.7,50.4 1055,51.6 1054.2,52.6 1053.2,53.5 1052.1,54.1 1050.8,54.6 1049.4,54.7 1050,54.1 1050.6,53.5 1051.4,53 1052.1,52.6 1052.9,52.2 1053.7,51.9 1054.6,51.7 1055.4,51.5 1056.3,51.5 1057.2,51.5 1058,51.5 1058.9,51.7 1059.7,51.9 1060.6,52.2 1061.3,52.6" />
<path stroke="#000000" stroke-width="2" d="M 1091.3,70" />
<path stroke="#000000" stroke-width="2" d="M 1101.3,30 1101.9,30 1102.4,30 1102.9,30.1 1103.4,30.3 1103.9,30.5 1104.4,30.7 1104.8,30.9 1105.3,31.2 1105.7,31.6 1106,31.9 1106.4,32.3 1106.7,32.8 1106.9,33.2 1107.1,33.7 1107.3,34.2 1107.5,34.7 1107.6,35.2 1107.6,35.7 1107.6,36.3 1107.6,36.8 1107.5,37.3 1107.3,37.8 1107.1,38.3 1106.9,38.8 1106.7,39.2 1106.4,39.6 1106,40 1105.7,40.4 1105.3,40.8 1104.8,41.1 1104.4,41.3 1103.9,41.5 1103.4,41.7 1102.9,41.9 1102.4,41.9 1101.9,42 1101.3,42 1100.8,41.9 1100.3,41.9 1099.8,41.7 1099.3,41.5 1098.8,41.3 1098.4,41.1 1098,40.8 1097.6,40.4 1097.2,40 1096.8,39.6 1096.5,39.2 1096.3,38.8 1096.1,38.3 1095.9,37.8 1095.7,37.3 1095.7,36.8 1095.6,36.3 1095.6,35.7 1095.7,35.2 1095.7,34.7 1095.9,34.2 1096.1,33.7 1096.3,33.2 1096.5,32.8 1096.8,32.3 1097.2,31.9 1097.6,31.6 1098,31.2 1098.4,30.9 1098.8,30.7 1099.3,30.5 1099.8,30.3 1100.3,30.1 1100.8,30 1101.3,30 1101.3,50 1093.7,68.5 1096,62.9 1096.3,62.1 1096.7,61.4 1097.2,60.6 1097.7,59.9 1098.3,59.3 1099,58.7 1099.6,58.2 1100.4,57.7 1101.2,57.3 1102,57 1102.8,56.7 1103.6,56.5" />
<path stroke="#000000" stroke-width="2" d="M 1137.6,70" />
<path stroke="#000000" stroke-width="2" d="M 1153.6,30 1133.8,49.8 1153.6,69.6" />
<path stroke="#000000" stroke-width="2" d="M 1160.3,70" />
<path stroke="#000000" stroke-width="2" d="M 1160.3,20 1160.3,40 1160.3,34 1160.3,33.1 1160.3,32.3 1160.5,31.4 1160.7,30.6 1161,29.7 1161.4,28.9 1161.8,28.2 1162.3,27.5 1162.9,26.8 1163.5,26.2 1164.2,25.6 1164.9,25.1 1165.6,24.7 1166.4,24.3 1167.2,24 1168.1,23.8 1168.9,23.6 1169.8,23.6 1189.8,23.6 1184.2,29.2 1184.7,29.2 1185.2,29.3 1185.7,29.4 1186.2,29.5 1186.7,29.7 1187.2,29.9 1187.6,30.2 1188.1,30.5 1188.5,30.8 1188.8,31.2 1189.2,31.6 1189.5,32 1189.7,32.5 1190,32.9 1190.1,33.4 1190.3,33.9 1190.4,34.4 1190.4,35 1190.4,35.5 1190.4,36 1190.3,36.5 1190.1,37 1190,37.5 1189.7,38 1189.5,38.4 1189.2,38.9 1188.8,39.3 1188.5,39.6 1188.1,40 1187.6,40.3 1187.2,40.5 1186.7,40.8 1186.2,40.9 1185.7,41.1 1185.2,41.2 1184.7,41.2" />
<path stroke="#000000" stroke-width="2" d="M 1197.1,70" />
<path stroke="#000000" stroke-width="2" d="M 1197.1,20" />
<path stroke="#000000" stroke-width="2" d="M 1197.1,20 1198.5,20.1 1199.8,20.6 1200.9,21.2 1201.9,22.1 1202.7,23.1 1203.4,24.3 1203.9,25.6 1204.3,27 1204.5,28.5 1204.6,30 1204.5,31.5 1204.3,33 1203.9,34.4 1203.4,35.7 1202.7,36.9 1201.9,37.9 1200.9,38.8 1199.8,39.4 1198.5,39.9 1197.1,40" />
<path stroke="#000000" stroke-width="2" d="M 1234.6,70" />
</svg>