<svg xmlns="http://www.w3.org/2000/svg" width="1055.642737589964" height="94.68629150101523" style="fill:none; stroke-linecap:round;">
    <rect width="100%" height="100%" fill="#FFFFFF" />
<path stroke="#000000" stroke-width="2" d="M 550,75" />
<path stroke="#000000" stroke-width="2" d="M 20,30 20,31.4 20.1,32.8 20.4,34.2 20.7,35.5 21.2,36.8 21.8,38.1 22.5,39.3 23.3,40.4 24.2,41.5 25.2,42.5 26.2,43.4 27.4,44.2 28.6,44.9 29.9,45.5 31.2,46 32.5,46.3 33.9,46.6 35.3,46.7 36.7,46.7 38.1,46.6 39.4,46.3 40.8,46 42.1,45.5 43.4,44.9 44.6,44.2 45.7,43.4 46.8,42.5 47.8,41.5 48.7,40.4 49.5,39.3 50.2,38.1 50.8,36.8 51.2,35.5 51.6,34.2 51.8,32.8 52,31.4" />
<path stroke="#000000" stroke-width="2" d="M 58.6,70" />
<path stroke="#000000" stroke-width="2" d="M 58.6,20 66.3,38.5 73.9,20" />
<path stroke="#000000" stroke-width="2" d="M 80.6,70" />
<path stroke="#000000" stroke-width="2" d="M 80.6,20 80.6,20.7 80.7,21.4 80.8,22.1 81,22.8 81.2,23.4 81.5,24 81.9,24.6 82.3,25.2 82.7,25.8 83.2,26.2 83.7,26.7 84.3,27.1 84.9,27.4 85.5,27.7 86.2,28 86.9,28.2 87.6,28.3 88.3,28.3 89,28.3 89.6,28.3 90.3,28.2 91,28 91.7,27.7 92.3,27.4 92.9,27.1 93.5,26.7 94,26.2 94.5,25.8 94.9,25.2 95.3,24.6 95.7,24 96,23.4 96.2,22.8 96.4,22.1 96.5,21.4 96.6,20.7" />
<path stroke="#000000" stroke-width="2" d="M 96.6,20.7 98.6,20.6 100.2,20.3 101.5,19.8 102.4,19.3 102.9,18.6 103.2,17.9 103.2,17.1 103.1,16.4 102.7,15.7 102.2,15.1 101.6,14.6 100.9,14.2 100.2,14 99.4,14.1 98.7,14.4 98,14.9 97.5,15.8 97,17.1 96.7,18.7 96.6,20.7 96.6,35.7" />
<path stroke="#000000" stroke-width="2" d="M 133.2,70" />
<path stroke="#000000" stroke-width="2" d="M 138.2,30" />
<path stroke="#000000" stroke-width="2" d="M 138.2,30 136.8,30.1 135.5,30.6 134.4,31.2 133.4,32.1 132.6,33.1 131.9,34.3 131.4,35.6 131,37 130.8,38.5 130.7,40 130.8,41.5 131,43 131.4,44.4 131.9,45.7 132.6,46.9 133.4,47.9 134.4,48.8 135.5,49.4 136.8,49.9 138.2,50 143.2,50 143.2,70" />
<path stroke="#000000" stroke-width="2" d="M 173.2,70" />
<path stroke="#000000" stroke-width="2" d="M 189.2,30" />
<path stroke="#000000" stroke-width="2" d="M 189.2,30 189,34.1 188.4,37.3 187.5,39.8 186.4,41.5 185,42.7 183.6,43.2 182.1,43.3 180.6,43 179.2,42.3 178,41.2 177,40 176.3,38.6 175.9,37.2 176,35.7 176.6,34.2 177.7,32.9 179.5,31.7 182,30.8 185.2,30.2 189.2,30 209.2,30" />
<path stroke="#000000" stroke-width="2" d="M 215.9,70" />
<path stroke="#000000" stroke-width="2" d="M 215.9,20 235.9,20" />
<path stroke="#000000" stroke-width="2" d="M 265.9,70" />
<path stroke="#000000" stroke-width="2" d="M 265.9,30 265.9,70 277.2,58.7" />
<path stroke="#000000" stroke-width="2" d="M 283.9,70" />
<path stroke="#000000" stroke-width="2" d="M 283.9,20 303.9,20" />
<path stroke="#000000" stroke-width="2" d="M 333.9,70" />
<path stroke="#000000" stroke-width="2" d="M 333.9,30 333.9,70 353.9,70" />
<path stroke="#000000" stroke-width="2" d="M 383.9,70" />
<path stroke="#000000" stroke-width="2" d="M 403.9,30 388.6,67" />
<path stroke="#000000" stroke-width="2" d="M 410.6,70" />
<path stroke="#000000" stroke-width="2" d="M 410.6,25" />
<path stroke="#000000" stroke-width="2" d="M 410.6,25 412.6,24.9 414.2,24.6 415.4,24.1 416.3,23.6 416.9,22.9 417.2,22.2 417.2,21.4 417,20.7 416.7,20 416.2,19.4 415.6,18.9 414.9,18.5 414.1,18.3 413.4,18.4 412.7,18.7 412,19.2 411.4,20.1 411,21.4 410.7,23 410.6,25 410.6,40 402.9,58.5" />
<path stroke="#000000" stroke-width="2" d="M 423.9,70" />
<path stroke="#000000" stroke-width="2" d="M 423.9,20" />
<path stroke="#000000" stroke-width="2" d="M 423.9,20 425.3,20.1 426.6,20.6 427.7,21.2 428.7,22.1 429.5,23.1 430.2,24.3 430.7,25.6 431.1,27 431.3,28.5 431.4,30 431.3,31.5 431.1,33 430.7,34.4 430.2,35.7 429.5,36.9 428.7,37.9 427.7,38.8 426.6,39.4 425.3,39.9 423.9,40" />
<path stroke="#000000" stroke-width="2" d="M 461.4,70" />
<path stroke="#000000" stroke-width="2" d="M 461.4,70 461.6,70 461.6,70.2 461.4,70.2 461.4,70" />
<path stroke="#000000" stroke-width="2" d="M 491.6,70" />
<path stroke="#000000" stroke-width="2" d="M 491.6,30 501.6,30 501.6,70" />
<path stroke="#000000" stroke-width="2" d="M 508.3,70" />
<path stroke="#000000" stroke-width="2" d="M 508.3,50 508.3,70 508.3,64 508.3,63.1 508.3,62.3 508.5,61.4 508.7,60.6 509,59.7 509.4,58.9 509.8,58.2 510.3,57.5 510.9,56.8 511.5,56.2 512.2,55.6 512.9,55.1 513.6,54.7 514.4,54.3 515.2,54 516.1,53.8 516.9,53.6 517.8,53.6" />
<path stroke="#000000" stroke-width="2" d="M 547.8,70" />
<path stroke="#000000" stroke-width="2" d="M 547.8,40 548,40 548,40.2 547.8,40.2 547.8,40" />
<path stroke="#000000" stroke-width="2" d="M 554.7,70" />
<path stroke="#000000" stroke-width="2" d="M 554.7,30 570,67" />
<path stroke="#000000" stroke-width="2" d="M 576.6,70" />
<path stroke="#000000" stroke-width="2" d="M 576.6,50 584.3,68.5" />
<path stroke="#000000" stroke-width="2" d="M 584.3,58.5" />
<path stroke="#000000" stroke-width="2" d="M 573.3,58.5 587.3,58.5" />
<path stroke="#000000" stroke-width="2" d="M 617.3,70" />
<path stroke="#000000" stroke-width="2" d="M 617.3,30 617.3,70 637.3,70" />
<path stroke="#000000" stroke-width="2" d="M 667.3,70" />
<path stroke="#000000" stroke-width="2" d="M 687.3,70 689,70 690.8,69.8 692.5,69.5 694.2,69.1 695.8,68.5 697.4,67.8 698.9,66.9 700.3,65.9 701.7,64.8 702.9,63.5 704,62.2 705,60.8 705.9,59.3 706.6,57.7 707.2,56 707.7,54.3 708,52.6 708.2,50.9 708.2,49.1 708,47.4 707.7,45.7 707.2,44 706.6,42.4 705.9,40.8 705,39.3 704,37.8 702.9,36.5 701.7,35.3 700.3,34.2 698.9,33.2 697.4,32.3 695.8,31.5 694.2,30.9 692.5,30.5 690.8,30.2 689,30 687.3,30 685.6,30.2 683.8,30.5 682.2,30.9 680.5,31.5 678.9,32.3 677.4,33.2 676,34.2 674.7,35.3 673.4,36.5 672.3,37.8 671.3,39.3 670.4,40.8 669.7,42.4 669.1,44 668.6,45.7 668.3,47.4 668.2,49.1 668.2,50.9 668.3,52.6 668.6,54.3 669.1,56 669.7,57.7 670.4,59.3 671.3,60.8 672.3,62.2 673.4,63.5 674.7,64.8 676,65.9 677.4,66.9 678.9,67.8 680.5,68.5 682.2,69.1 683.8,69.5 685.6,69.8 687.3,70" />
<path stroke="#000000" stroke-width="2" d="M 714.8,70" />
<path stroke="#000000" stroke-width="2" d="M 724.8,50 717.2,68.5" />
<path stroke="#000000" stroke-width="2" d="M 754.8,70" />
<path stroke="#000000" stroke-width="2" d="M 754.8,30 754.8,70 774.8,70" />
<path stroke="#000000" stroke-width="2" d="M 804.8,70" />
<path stroke="#000000" stroke-width="2" d="M 804.8,30 804.8,70 816.1,58.7" />
<path stroke="#000000" stroke-width="2" d="M 822.8,70" />
<path stroke="#000000" stroke-width="2" d="M 822.8,25" />
<path stroke="#000000" stroke-width="2" d="M 822.8,25 824.8,24.9 826.4,24.6 827.7,24.1 828.6,23.6 829.1,22.9 829.4,22.2 829.5,21.4 829.3,20.7 828.9,20 828.4,19.4 827.8,18.9 827.1,18.5 826.4,18.3 825.6,18.4 824.9,18.7 824.2,19.2 823.7,20.1 823.2,21.4 822.9,23 822.8,25 822.8,40" />
<path stroke="#000000" stroke-width="2" d="M 859.5,70" />
<path stroke="#000000" stroke-width="2" d="M 859.5,50 867.1,31.5 867.1,30.8 867.2,30.1 867.3,29.4 867.5,28.8 867.7,28.1 868,27.5 868.4,26.9 868.8,26.3 869.2,25.8 869.7,25.3 870.2,24.8 870.8,24.4 871.4,24.1 872,23.8 872.7,23.5 873.4,23.4 874.1,23.2 874.8,23.2 875.4,23.2 876.1,23.2 876.8,23.4 877.5,23.5 878.2,23.8 878.8,24.1 879.4,24.4 880,24.8 880.5,25.3 881,25.8 881.4,26.3 881.8,26.9 882.2,27.5 882.5,28.1 882.7,28.8 882.9,29.4 883,30.1 883.1,30.8 893,40.7 883.1,50.6" />
<path stroke="#000000" stroke-width="2" d="M 899.7,70" />
<path stroke="#000000" stroke-width="2" d="M 899.7,70 907.3,51.5 907.3,52.2 907.4,52.9 907.5,53.6 907.7,54.3 907.9,54.9 908.2,55.6 908.6,56.2 909,56.7 909.4,57.3 909.9,57.8 910.4,58.2 911,58.6 911.6,59 912.2,59.3 912.9,59.5 913.6,59.7 914.3,59.8 915,59.9 915.7,59.9 916.3,59.8 917,59.7 917.7,59.5 918.4,59.3 919,59 919.6,58.6 920.2,58.2 920.7,57.8 921.2,57.3 921.7,56.7 922.1,56.2 922.4,55.6 922.7,54.9 922.9,54.3 923.1,53.6 923.2,52.9 923.3,52.2" />
<path stroke="#000000" stroke-width="2" d="M 930,70" />
<path stroke="#000000" stroke-width="2" d="M 930,30 930.2,30 930.2,30.2 930,30.2 930,30" />
<path stroke="#000000" stroke-width="2" d="M 960.2,70" />
<path stroke="#000000" stroke-width="2" d="M 960.2,46 971.5,34.7 971.5,74.7 982.8,63.4" />
<path stroke="#000000" stroke-width="2" d="M 989.5,70" />
<path stroke="#000000" stroke-width="2" d="M 989.5,40 989.5,39.3 989.5,38.6 989.6,37.9 989.8,37.2 990.1,36.6 990.4,36 990.7,35.4 991.1,34.8 991.6,34.2 992,33.8 992.6,33.3 993.2,32.9 993.8,32.6 994.4,32.3 995,32 995.7,31.8 996.4,31.7 997.1,31.7 997.8,31.7 998.5,31.7 999.2,31.8 999.9,32 1000.5,32.3 1001.1,32.6 1001.7,32.9 1002.3,33.3 1002.9,33.8 1003.3,34.2 1003.8,34.8 1004.2,35.4 1004.5,36 1004.8,36.6 1005.1,37.2 1005.3,37.9 1005.4,38.6 1005.4,39.3" />
<path stroke="#000000" stroke-width="2" d="M 1035.4,70" />
<path stroke="#000000" stroke-width="2" d="M 1035.4,70 1035.6,70 1035.6,70.2 1035.4,70.2 1035.4,70" />
<path stroke="#000000" stroke-width="2" d="M 1065.6,70" />
</svg>