<svg xmlns="http://www.w3.org/2000/svg" width="1278.1656078121546" height="102.0" style="fill:none; stroke-linecap:round;">
    <rect width="100%" height="100%" fill="#FFFFFF" />
<path stroke="#000000" stroke-width="2" d="M 550,75" />
<path stroke="#000000" stroke-width="2" d="M 25,30" />
<path stroke="#000000" stroke-width="2" d="M 25,30 23.6,30.1 22.3,30.6 21.2,31.2 20.2,32.1 19.4,33.1 18.7,34.3 18.2,35.6 17.8,37 17.6,38.5 17.5,40 17.6,41.5 17.8,43 18.2,44.4 18.7,45.7 19.4,46.9 20.2,47.9 21.2,48.8 22.3,49.4 23.6,49.9 25,50 30,50 30,70" />
<path stroke="#000000" stroke-width="2" d="M 60,70" />
<path stroke="#000000" stroke-width="2" d="M 80,70 81.7,70 83.5,69.8 85.2,69.5 86.9,69.1 88.5,68.5 90.1,67.8 91.6,66.9 93,65.9 94.4,64.8 95.6,63.5 96.7,62.2 97.7,60.8 98.6,59.3 99.3,57.7 99.9,56 100.4,54.3 100.7,52.6 100.9,50.9 100.9,49.1 100.7,47.4 100.4,45.7 99.9,44 99.3,42.4 98.6,40.8 97.7,39.3 96.7,37.8 95.6,36.5 94.4,35.3 93,34.2 91.6,33.2 90.1,32.3 88.5,31.5 86.9,30.9 85.2,30.5 83.5,30.2 81.7,30 80,30 78.3,30.2 76.5,30.5 74.9,30.9 73.2,31.5 71.6,32.3 70.1,33.2 68.7,34.2 67.4,35.3 66.1,36.5 65,37.8 64,39.3 63.1,40.8 62.4,42.4 61.8,44 61.3,45.7 61,47.4 60.9,49.1 60.9,50.9 61,52.6 61.3,54.3 61.8,56 62.4,57.7 63.1,59.3 64,60.8 65,62.2 66.1,63.5 67.4,64.8 68.7,65.9 70.1,66.9 71.6,67.8 73.2,68.5 74.9,69.1 76.5,69.5 78.3,69.8 80,70" />
<path stroke="#000000" stroke-width="2" d="M 107.5,70" />
<path stroke="#000000" stroke-width="2" d="M 107.5,25" />
<path stroke="#000000" stroke-width="2" d="M 107.5,25 109.6,24.9 111.2,24.6 112.4,24.1 113.3,23.6 113.8,22.9 114.1,22.2 114.2,21.4 114,20.7 113.6,20 113.1,19.4 112.5,18.9 111.8,18.5 111.1,18.3 110.4,18.4 109.6,18.7 109,19.2 108.4,20.1 107.9,21.4 107.6,23 107.5,25 107.5,40" />
<path stroke="#000000" stroke-width="2" d="M 144.2,70" />
<path stroke="#000000" stroke-width="2" d="M 156.2,54" />
<path stroke="#000000" stroke-width="2" d="M 156.2,54 156,49.9 155.4,46.7 154.5,44.2 153.3,42.5 152,41.3 150.5,40.8 149,40.7 147.5,41 146.2,41.7 144.9,42.8 143.9,44 143.2,45.4 142.9,46.8 142.9,48.3 143.5,49.8 144.7,51.1 146.4,52.3 148.9,53.2 152.1,53.8 156.2,54 164.2,54" />
<path stroke="#000000" stroke-width="2" d="M 164.2,54 165.9,53.4 167.5,52.7 169,51.9 170.4,51.2 171.7,50.3 172.9,49.4 174,48.5 175,47.5 175.9,46.5 176.7,45.5 177.4,44.4 178,43.3 178.5,42.2 179,41.1 179.4,39.9 179.7,38.8 179.9,37.6 180.1,36.4 180.1,35.2 180.2,34" />
<path stroke="#000000" stroke-width="2" d="M 186.8,70" />
<path stroke="#000000" stroke-width="2" d="M 186.8,20 206.8,20" />
<path stroke="#000000" stroke-width="2" d="M 213.5,70" />
<path stroke="#000000" stroke-width="2" d="M 223.5,20 215.9,38.5" />
<path stroke="#000000" stroke-width="2" d="M 215.9,38.5 217.9,38.4 219.5,38.1 220.7,37.6 221.6,37 222.2,36.4 222.5,35.6 222.5,34.9 222.3,34.2 222,33.5 221.5,32.9 220.9,32.4 220.2,32 219.4,31.8 218.7,31.9 218,32.1 217.3,32.7 216.7,33.6 216.3,34.8 216,36.4 215.9,38.5 215.9,53.5" />
<path stroke="#000000" stroke-width="2" d="M 253.5,70" />
<path stroke="#000000" stroke-width="2" d="M 269.5,30 249.7,49.8 269.5,69.6" />
<path stroke="#000000" stroke-width="2" d="M 276.2,70" />
<path stroke="#000000" stroke-width="2" d="M 276.2,20" />
<path stroke="#000000" stroke-width="2" d="M 276.2,20 277.6,20.1 278.9,20.6 280,21.2 281,22.1 281.8,23.1 282.5,24.3 283,25.6 283.4,27 283.6,28.5 283.7,30 283.6,31.5 283.4,33 283,34.4 282.5,35.7 281.8,36.9 281,37.9 280,38.8 278.9,39.4 277.6,39.9 276.2,40" />
<path stroke="#000000" stroke-width="2" d="M 313.7,70" />
<path stroke="#000000" stroke-width="2" d="M 329.7,30 309.9,49.8 329.7,69.6" />
<path stroke="#000000" stroke-width="2" d="M 336.3,70" />
<path stroke="#000000" stroke-width="2" d="M 336.3,50 344,68.5" />
<path stroke="#000000" stroke-width="2" d="M 350.7,70" />
<path stroke="#000000" stroke-width="2" d="M 350.7,20 370.7,20" />
<path stroke="#000000" stroke-width="2" d="M 400.7,70" />
<path stroke="#000000" stroke-width="2" d="M 400.7,30 400.7,31.4 400.8,32.8 401,34.2 401.4,35.5 401.9,36.8 402.5,38.1 403.2,39.3 404,40.4 404.8,41.5 405.8,42.5 406.9,43.4 408,44.2 409.3,44.9 410.5,45.5 411.8,46 413.2,46.3 414.6,46.6 415.9,46.7 417.3,46.7 418.7,46.6 420.1,46.3 421.5,46 422.8,45.5 424,44.9 425.2,44.2 426.4,43.4 427.5,42.5 428.4,41.5 429.3,40.4 430.1,39.3 430.8,38.1 431.4,36.8 431.9,35.5 432.3,34.2 432.5,32.8 432.6,31.4" />
<path stroke="#000000" stroke-width="2" d="M 439.3,70" />
<path stroke="#000000" stroke-width="2" d="M 439.3,30 449.3,30 449.3,70" />
<path stroke="#000000" stroke-width="2" d="M 479.3,70" />
<path stroke="#000000" stroke-width="2" d="M 479.3,70" />
<path stroke="#000000" stroke-width="2" d="M 479.3,70 480.4,70 481.4,70.2 482.2,70.4 482.9,70.7 483.5,71 484,71.5 484.3,71.9 484.5,72.5 484.6,73.1 484.5,73.8 484.4,74.4 484.2,75.2 483.9,76 483.5,76.8 483,77.6 482.4,78.4 481.7,79.3 481,80.2 480.2,81.1 479.3,82" />
<path stroke="#000000" stroke-width="2" d="M 514.6,70" />
<path stroke="#000000" stroke-width="2" d="M 514.6,30 529.9,67" />
<path stroke="#000000" stroke-width="2" d="M 536.5,70" />
<path stroke="#000000" stroke-width="2" d="M 536.5,40 536.5,39.3 536.6,38.6 536.7,37.9 536.9,37.2 537.1,36.6 537.4,36 537.8,35.4 538.2,34.8 538.6,34.2 539.1,33.8 539.7,33.3 540.2,32.9 540.8,32.6 541.5,32.3 542.1,32 542.8,31.8 543.5,31.7 544.2,31.7 544.9,31.7 545.6,31.7 546.3,31.8 546.9,32 547.6,32.3 548.2,32.6 548.8,32.9 549.4,33.3 549.9,33.8 550.4,34.2 550.9,34.8 551.3,35.4 551.6,36 551.9,36.6 552.2,37.2 552.3,37.9 552.5,38.6 552.5,39.3" />
<path stroke="#000000" stroke-width="2" d="M 552.5,39.3 550.5,39.2 548.9,38.9 547.7,38.4 546.8,37.9 546.2,37.2 545.9,36.5 545.9,35.7 546,35 546.4,34.3 546.9,33.7 547.5,33.2 548.2,32.8 548.9,32.6 549.7,32.7 550.4,33 551.1,33.5 551.7,34.4 552.1,35.7 552.4,37.3 552.5,39.3 552.5,43.3" />
<path stroke="#000000" stroke-width="2" d="M 552.5,43.3 552.2,44.2 551.9,45 551.5,45.7 551.1,46.4 550.7,47.1 550.2,47.7 549.8,48.2 549.3,48.7 548.8,49.2 548.3,49.6 547.7,49.9 547.2,50.2 546.6,50.5 546.1,50.7 545.5,50.9 544.9,51 544.3,51.2 543.7,51.2 543.1,51.3 542.5,51.3" />
<path stroke="#000000" stroke-width="2" d="M 582.5,70" />
<path stroke="#000000" stroke-width="2" d="M 602.5,70 604.3,70 606,69.8 607.7,69.5 609.4,69.1 611.1,68.5 612.6,67.8 614.1,66.9 615.6,65.9 616.9,64.8 618.1,63.5 619.3,62.2 620.3,60.8 621.1,59.3 621.9,57.7 622.5,56 622.9,54.3 623.2,52.6 623.4,50.9 623.4,49.1 623.2,47.4 622.9,45.7 622.5,44 621.9,42.4 621.1,40.8 620.3,39.3 619.3,37.8 618.1,36.5 616.9,35.3 615.6,34.2 614.1,33.2 612.6,32.3 611.1,31.5 609.4,30.9 607.7,30.5 606,30.2 604.3,30 602.5,30 600.8,30.2 599.1,30.5 597.4,30.9 595.7,31.5 594.2,32.3 592.7,33.2 591.2,34.2 589.9,35.3 588.7,36.5 587.5,37.8 586.5,39.3 585.7,40.8 584.9,42.4 584.3,44 583.9,45.7 583.6,47.4 583.4,49.1 583.4,50.9 583.6,52.6 583.9,54.3 584.3,56 584.9,57.7 585.7,59.3 586.5,60.8 587.5,62.2 588.7,63.5 589.9,64.8 591.2,65.9 592.7,66.9 594.2,67.8 595.7,68.5 597.4,69.1 599.1,69.5 600.8,69.8 602.5,70" />
<path stroke="#000000" stroke-width="2" d="M 630,70" />
<path stroke="#000000" stroke-width="2" d="M 630,20 637.7,38.5" />
<path stroke="#000000" stroke-width="2" d="M 667.7,70" />
<path stroke="#000000" stroke-width="2" d="M 667.7,40" />
<path stroke="#000000" stroke-width="2" d="M 667.7,40 671.8,39.8 675,39.2 677.5,38.3 679.2,37.1 680.4,35.8 680.9,34.3 681,32.8 680.7,31.4 680,30 679,28.8 677.7,27.7 676.3,27 674.9,26.7 673.4,26.8 671.9,27.3 670.6,28.5 669.4,30.2 668.5,32.7 667.9,35.9 667.7,40 667.7,70" />
<path stroke="#000000" stroke-width="2" d="M 687.7,70" />
<path stroke="#000000" stroke-width="2" d="M 687.7,20 692.7,20 692.7,40" />
<path stroke="#000000" stroke-width="2" d="M 722.7,70" />
<path stroke="#000000" stroke-width="2" d="M 742.7,30 727.4,67" />
<path stroke="#000000" stroke-width="2" d="M 749.3,70" />
<path stroke="#000000" stroke-width="2" d="M 749.3,50 749.3,70 749.3,64 749.3,63.1 749.4,62.3 749.6,61.4 749.8,60.6 750.1,59.7 750.5,58.9 750.9,58.2 751.4,57.5 752,56.8 752.6,56.2 753.2,55.6 754,55.1 754.7,54.7 755.5,54.3 756.3,54 757.2,53.8 758,53.6 758.9,53.6" />
<path stroke="#000000" stroke-width="2" d="M 765.6,70" />
<path stroke="#000000" stroke-width="2" d="M 765.6,20" />
<path stroke="#000000" stroke-width="2" d="M 765.6,20 765.7,20 766.1,20 766.8,20 767.6,20.1 768.7,20.2 769.9,20.3 771.2,20.4 772.6,20.6 774.1,20.9 775.6,21.2 777.1,21.7 778.5,22.2 779.9,22.7 781.2,23.4 782.4,24.2 783.5,25.1 784.3,26.1 785,27.3 785.4,28.6 785.6,30" />
<path stroke="#000000" stroke-width="2" d="M 785.6,30 787.5,32.1 788.8,34.1 789.6,35.7 789.9,37.2 789.8,38.4 789.3,39.4 788.6,40.2 787.7,40.8 786.7,41.1 785.6,41.2 784.5,41.1 783.4,40.8 782.5,40.2 781.8,39.4 781.3,38.4 781.2,37.2 781.5,35.7 782.3,34 783.6,32.1 785.6,30" />
<path stroke="#000000" stroke-width="2" d="M 785.6,30 785.6,29.9 785.6,29.7 785.6,29.4 785.7,29 785.9,28.4 786.1,27.8 786.4,27.2 786.8,26.5 787.4,25.7 788.1,25 788.9,24.3 789.9,23.5 791.1,22.8 792.4,22.2 794,21.6 795.8,21 797.8,20.6 800.1,20.3 802.7,20.1 805.6,20" />
<path stroke="#000000" stroke-width="2" d="M 805.6,20 807.6,19.9 809.2,19.6 810.4,19.1 811.3,18.6 811.9,17.9 812.2,17.2 812.2,16.4 812,15.7 811.7,15 811.2,14.4 810.6,13.9 809.9,13.5 809.1,13.3 808.4,13.4 807.7,13.7 807,14.2 806.4,15.1 806,16.4 805.7,18 805.6,20 805.6,35" />
<path stroke="#000000" stroke-width="2" d="M 842.2,70" />
<path stroke="#000000" stroke-width="2" d="M 842.2,70 853.7,42.3" />
<path stroke="#000000" stroke-width="2" d="M 853.7,42.3 857.8,42.1 861,41.5 863.5,40.6 865.2,39.4 866.4,38.1 866.9,36.6 867,35.1 866.7,33.6 866,32.3 864.9,31 863.7,30 862.3,29.3 860.9,29 859.4,29.1 857.9,29.6 856.6,30.8 855.4,32.5 854.5,35 853.9,38.2 853.7,42.3 853.7,72.3" />
<path stroke="#000000" stroke-width="2" d="M 897,70" />
<path stroke="#000000" stroke-width="2" d="M 897,30 897,70 897,58 897,56.3 897.2,54.5 897.5,52.8 897.9,51.1 898.5,49.5 899.2,47.9 900.1,46.4 901.1,45 902.2,43.6 903.5,42.4 904.8,41.3 906.2,40.3 907.8,39.4 909.3,38.7 911,38.1 912.7,37.6 914.4,37.3 916.1,37.1" />
<path stroke="#000000" stroke-width="2" d="M 922.8,70" />
<path stroke="#000000" stroke-width="2" d="M 922.8,20 922.8,40 928.4,34.3" />
<path stroke="#000000" stroke-width="2" d="M 958.4,70" />
<path stroke="#000000" stroke-width="2" d="M 958.4,30 973.7,67" />
<path stroke="#000000" stroke-width="2" d="M 980.4,70" />
<path stroke="#000000" stroke-width="2" d="M 990.4,20 982.8,38.5" />
<path stroke="#000000" stroke-width="2" d="M 997.1,70" />
<path stroke="#000000" stroke-width="2" d="M 997.1,20 997.1,40 997.1,34 997.1,33.1 997.2,32.3 997.3,31.4 997.5,30.6 997.8,29.7 998.2,28.9 998.6,28.2 999.1,27.5 999.7,26.8 1000.3,26.2 1001,25.6 1001.7,25.1 1002.5,24.7 1003.2,24.3 1004.1,24 1004.9,23.8 1005.8,23.6 1006.6,23.6" />
<path stroke="#000000" stroke-width="2" d="M 1013.3,70" />
<path stroke="#000000" stroke-width="2" d="M 1013.3,70 1028.6,33 1028.6,34.4 1028.7,35.8 1029,37.2 1029.3,38.6 1029.8,39.9 1030.4,41.1 1031.1,42.3 1031.9,43.5 1032.8,44.6 1033.8,45.5 1034.9,46.4 1036,47.2 1037.2,47.9 1038.5,48.5 1039.8,49 1041.1,49.4 1042.5,49.6 1043.9,49.7 1045.3,49.7 1046.7,49.6 1048.1,49.4 1049.4,49 1050.7,48.5 1052,47.9 1053.2,47.2 1054.3,46.4 1055.4,45.5 1056.4,44.6 1057.3,43.5 1058.1,42.3 1058.8,41.1 1059.4,39.9 1059.9,38.6 1060.2,37.2 1060.5,35.8 1060.6,34.4" />
<path stroke="#000000" stroke-width="2" d="M 1090.6,70" />
<path stroke="#000000" stroke-width="2" d="M 1110.6,30 1095.3,67" />
<path stroke="#000000" stroke-width="2" d="M 1117.2,70" />
<path stroke="#000000" stroke-width="2" d="M 1117.2,50 1117.2,54 1117.2,54.5 1117.3,55 1117.4,55.6 1117.5,56.1 1117.7,56.6 1117.9,57 1118.2,57.5 1118.5,57.9 1118.8,58.3 1119.2,58.7 1119.6,59 1120,59.3 1120.5,59.6 1120.9,59.8 1121.4,60 1121.9,60.1 1122.5,60.2 1123,60.3 1123.5,60.3 1124,60.2 1124.5,60.1 1125,60 1125.5,59.8 1126,59.6 1126.5,59.3 1126.9,59 1127.3,58.7 1127.7,58.3 1128,57.9 1128.3,57.5 1128.6,57 1128.8,56.6 1129,56.1 1129.1,55.6 1129.2,55 1129.2,54.5 1129.2,49.5 1129.2,69.5 1129.2,68.7 1129.3,67.8 1129.5,66.9 1129.7,66.1 1130,65.3 1130.4,64.5 1130.8,63.7 1131.3,63 1131.9,62.3 1132.5,61.7 1133.1,61.2 1133.9,60.7 1134.6,60.2 1135.4,59.8 1136.2,59.6 1137.1,59.3 1137.9,59.2 1138.8,59.1" />
<path stroke="#000000" stroke-width="2" d="M 1145.5,70" />
<path stroke="#000000" stroke-width="2" d="M 1145.5,50 1145.7,50 1145.7,50.2 1145.5,50.2 1145.5,50" />
<path stroke="#000000" stroke-width="2" d="M 1175.7,70" />
<path stroke="#000000" stroke-width="2" d="M 1177.7,50 1183,37.1 1183.1,36.7 1183.3,36.4 1183.3,36.1 1183.4,35.7 1183.4,35.4 1183.4,35 1183.3,34.7 1183.3,34.3 1183.1,34 1183,33.7 1182.9,33.4 1182.7,33.1 1182.5,32.8 1182.2,32.5 1182,32.3 1181.7,32.1 1181.4,31.9 1181.1,31.7 1180.8,31.6 1180.4,31.5 1180.1,31.4 1179.7,31.4 1179.4,31.4 1179,31.4 1178.7,31.4 1178.4,31.5 1178,31.6 1177.7,31.7 1177.4,31.9 1177.1,32.1 1176.8,32.3 1176.6,32.5 1176.3,32.8 1176.1,33.1 1175.9,33.4 1175.8,33.7 1175.6,34 1175.5,34.3 1175.4,34.7 1175.4,35 1175.4,35.4 1175.4,35.7 1175.4,36.1 1175.5,36.4 1175.6,36.7 1175.8,37.1 1175.9,37.4 1176.1,37.7 1176.3,37.9 1176.6,38.2 1176.8,38.4 1177.1,38.7 1177.4,38.8 1177.7,39 1178,39.1 1178.4,39.2 1178.7,39.3 1179,39.4 1179.4,39.4 1179.7,39.4 1192.7,34" />
<path stroke="#000000" stroke-width="2" d="M 1192.7,34 1190.6,33.9 1189,33.6 1187.8,33.1 1186.9,32.6 1186.3,31.9 1186.1,31.2 1186,30.4 1186.2,29.7 1186.5,29 1187,28.4 1187.7,27.9 1188.4,27.5 1189.1,27.3 1189.8,27.4 1190.6,27.7 1191.2,28.2 1191.8,29.1 1192.3,30.4 1192.6,32 1192.7,34 1192.7,49" />
<path stroke="#000000" stroke-width="2" d="M 1199.3,70" />
<path stroke="#000000" stroke-width="2" d="M 1199.3,25" />
<path stroke="#000000" stroke-width="2" d="M 1199.3,25 1201.4,24.9 1203,24.6 1204.2,24.1 1205.1,23.6 1205.7,22.9 1206,22.2 1206,21.4 1205.8,20.7 1205.5,20 1205,19.4 1204.3,18.9 1203.7,18.5 1202.9,18.3 1202.2,18.4 1201.4,18.7 1200.8,19.2 1200.2,20.1 1199.7,21.4 1199.4,23 1199.3,25 1199.3,40 1191.7,58.5 1194,52.9 1194.3,52.1 1194.7,51.4 1195.2,50.6 1195.7,49.9 1196.3,49.3 1196.9,48.7 1197.6,48.2 1198.4,47.7 1199.2,47.3 1200,47 1200.8,46.7 1201.6,46.5" />
<path stroke="#000000" stroke-width="2" d="M 1212.7,70" />
<path stroke="#000000" stroke-width="2" d="M 1212.7,40 1220.3,21.5 1228,40" />
<path stroke="#000000" stroke-width="2" d="M 1258,70" />
<path stroke="#000000" stroke-width="2" d="M 1258,70 1258.2,70 1258.2,70.2 1258,70.2 1258,70" />
<path stroke="#000000" stroke-width="2" d="M 1288.2,70" />
</svg>