<svg xmlns="http://www.w3.org/2000/svg" width="756.5549914422566" height="102.0" style="fill:none; stroke-linecap:round;">
    <rect width="100%" height="100%" fill="#FFFFFF" />
<path stroke="#000000" stroke-width="2" d="M 550,75" />
<path stroke="#000000" stroke-width="2" d="M 20,46 20,44.6 20.1,43.2 20.4,41.8 20.7,40.5 21.2,39.2 21.8,37.9 22.5,36.7 23.3,35.6 24.2,34.5 25.2,33.5 26.2,32.6 27.4,31.8 28.6,31.1 29.9,30.5 31.2,30 32.5,29.7 33.9,29.4 35.3,29.3 36.7,29.3 38.1,29.4 39.4,29.7 40.8,30 42.1,30.5 43.4,31.1 44.6,31.8 45.7,32.6 46.8,33.5 47.8,34.5 48.7,35.6 49.5,36.7 50.2,37.9 50.8,39.2 51.2,40.5 51.6,41.8 51.8,43.2 52,44.6" />
<path stroke="#000000" stroke-width="2" d="M 58.6,70" />
<path stroke="#000000" stroke-width="2" d="M 70.6,36" />
<path stroke="#000000" stroke-width="2" d="M 70.6,36 68.6,35.9 67,35.6 65.8,35.1 64.9,34.6 64.3,33.9 64,33.2 64,32.4 64.2,31.7 64.5,31 65,30.4 65.6,29.9 66.3,29.5 67.1,29.3 67.8,29.4 68.5,29.7 69.2,30.2 69.8,31.1 70.2,32.4 70.5,34 70.6,36 70.6,40" />
<path stroke="#000000" stroke-width="2" d="M 70.6,40 70.3,40.9 70,41.7 69.6,42.4 69.2,43.1 68.8,43.8 68.4,44.4 67.9,44.9 67.4,45.4 66.9,45.9 66.4,46.2 65.9,46.6 65.3,46.9 64.8,47.2 64.2,47.4 63.6,47.6 63,47.7 62.4,47.9 61.8,47.9 61.2,48 60.6,48" />
<path stroke="#000000" stroke-width="2" d="M 60.6,48 62.1,48.1 63.3,48.6 64.5,49.2 65.4,50.1 66.3,51.1 66.9,52.3 67.5,53.6 67.8,55 68.1,56.5 68.1,58 68.1,59.5 67.8,61 67.5,62.4 66.9,63.7 66.3,64.9 65.4,65.9 64.5,66.8 63.3,67.4 62.1,67.9 60.6,68" />
<path stroke="#000000" stroke-width="2" d="M 77.3,70" />
<path stroke="#000000" stroke-width="2" d="M 77.3,50 85,68.5" />
<path stroke="#000000" stroke-width="2" d="M 115,70" />
<path stroke="#000000" stroke-width="2" d="M 115,30 135,30" />
<path stroke="#000000" stroke-width="2" d="M 135,30 136.4,30.1 137.7,30.6 138.8,31.2 139.8,32.1 140.6,33.1 141.3,34.3 141.8,35.6 142.2,37 142.4,38.5 142.5,40 142.4,41.5 142.2,43 141.8,44.4 141.3,45.7 140.6,46.9 139.8,47.9 138.8,48.8 137.7,49.4 136.4,49.9 135,50" />
<path stroke="#000000" stroke-width="2" d="M 172.5,70" />
<path stroke="#000000" stroke-width="2" d="M 182.5,50 183.3,50 184.2,49.9 185.1,49.8 185.9,49.5 186.7,49.2 187.5,48.9 188.3,48.4 189,47.9 189.6,47.4 190.3,46.8 190.8,46.1 191.3,45.4 191.8,44.6 192.1,43.8 192.4,43 192.7,42.2 192.8,41.3 192.9,40.4 192.9,39.6 192.8,38.7 192.7,37.8 192.4,37 192.1,36.2 191.8,35.4 191.3,34.6 190.8,33.9 190.3,33.3 189.6,32.6 189,32.1 188.3,31.6 187.5,31.1 186.7,30.8 185.9,30.5 185.1,30.2 184.2,30.1 183.3,30 182.5,30 181.6,30.1 180.7,30.2 179.9,30.5 179.1,30.8 178.3,31.1 177.5,31.6 176.8,32.1 176.1,32.6 175.5,33.3 175,33.9 174.5,34.6 174,35.4 173.7,36.2 173.4,37 173.1,37.8 173,38.7 172.9,39.6 172.9,40.4 173,41.3 173.1,42.2 173.4,43 173.7,43.8 174,44.6 174.5,45.4 175,46.1 175.5,46.8 176.1,47.4 176.8,47.9 177.5,48.4 178.3,48.9 179.1,49.2 179.9,49.5 180.7,49.8 181.6,49.9 182.5,50 182.5,70 182.5,64 182.5,63.1 182.5,62.3 182.7,61.4 182.9,60.6 183.2,59.7 183.6,58.9 184,58.2 184.5,57.5 185.1,56.8 185.7,56.2 186.4,55.6 187.1,55.1 187.8,54.7 188.6,54.3 189.4,54 190.3,53.8 191.1,53.6 192,53.6" />
<path stroke="#000000" stroke-width="2" d="M 222.9,70" />
<path stroke="#000000" stroke-width="2" d="M 222.9,35" />
<path stroke="#000000" stroke-width="2" d="M 222.9,35 224.9,34.9 226.5,34.6 227.8,34.1 228.6,33.6 229.2,32.9 229.5,32.2 229.5,31.4 229.4,30.7 229,30 228.5,29.4 227.9,28.9 227.2,28.5 226.5,28.3 225.7,28.4 225,28.7 224.3,29.2 223.7,30.1 223.3,31.4 223,33 222.9,35 222.9,50" />
<path stroke="#000000" stroke-width="2" d="M 222.9,42" />
<path stroke="#000000" stroke-width="2" d="M 218.9,42 226.9,42 226.9,62 216.9,62" />
<path stroke="#000000" stroke-width="2" d="M 236.2,70" />
<path stroke="#000000" stroke-width="2" d="M 236.2,28 236.2,27.3 236.3,26.6 236.4,25.9 236.6,25.2 236.8,24.6 237.1,24 237.4,23.4 237.8,22.8 238.3,22.2 238.8,21.8 239.3,21.3 239.9,20.9 240.5,20.6 241.1,20.3 241.8,20 242.5,19.8 243.2,19.7 243.8,19.7 244.5,19.7 245.2,19.7 245.9,19.8 246.6,20 247.3,20.3 247.9,20.6 248.5,20.9 249.1,21.3 249.6,21.8 250.1,22.2 250.5,22.8 250.9,23.4 251.3,24 251.6,24.6 251.8,25.2 252,25.9 252.1,26.6 252.2,27.3 244.5,45.8" />
<path stroke="#000000" stroke-width="2" d="M 244.5,45.8 246.6,45.7 248.2,45.4 249.4,44.9 250.3,44.3 250.9,43.7 251.2,42.9 251.2,42.2 251,41.5 250.7,40.8 250.2,40.2 249.5,39.7 248.9,39.3 248.1,39.1 247.4,39.2 246.6,39.5 246,40 245.4,40.9 244.9,42.1 244.6,43.7 244.5,45.8 244.5,60.8" />
<path stroke="#000000" stroke-width="2" d="M 282.2,70" />
<path stroke="#000000" stroke-width="2" d="M 282.2,70" />
<path stroke="#000000" stroke-width="2" d="M 282.2,70 283.3,70 284.3,70.2 285.1,70.4 285.8,70.7 286.4,71 286.9,71.5 287.2,71.9 287.4,72.5 287.5,73.1 287.4,73.8 287.3,74.4 287.1,75.2 286.8,76 286.3,76.8 285.8,77.6 285.3,78.4 284.6,79.3 283.9,80.2 283.1,81.1 282.2,82" />
<path stroke="#000000" stroke-width="2" d="M 317.5,70" />
<path stroke="#000000" stroke-width="2" d="M 317.5,70 332.8,33 332.8,34.4 332.9,35.8 333.1,37.2 333.5,38.6 334,39.9 334.6,41.1 335.3,42.3 336.1,43.5 337,44.6 337.9,45.5 339,46.4 340.2,47.2 341.4,47.9 342.6,48.5 343.9,49 345.3,49.4 346.7,49.6 348.1,49.7 349.5,49.7 350.8,49.6 352.2,49.4 353.6,49 354.9,48.5 356.1,47.9 357.3,47.2 358.5,46.4 359.6,45.5 360.5,44.6 361.4,43.5 362.2,42.3 362.9,41.1 363.5,39.9 364,38.6 364.4,37.2 364.6,35.8 364.7,34.4" />
<path stroke="#000000" stroke-width="2" d="M 394.7,70" />
<path stroke="#000000" stroke-width="2" d="M 394.7,70 394.9,70 394.9,70.2 394.7,70.2 394.7,70" />
<path stroke="#000000" stroke-width="2" d="M 401.6,70" />
<path stroke="#000000" stroke-width="2" d="M 401.6,30" />
<path stroke="#000000" stroke-width="2" d="M 401.6,30 404.5,30.3 407,31.1 409.3,32.4 411.2,34.2 412.9,36.2 414.2,38.6 415.3,41.3 416,44.1 416.5,47 416.6,50 416.5,53 416,55.9 415.3,58.7 414.2,61.4 412.9,63.8 411.2,65.8 409.3,67.6 407,68.9 404.5,69.7 401.6,70" />
<path stroke="#000000" stroke-width="2" d="M 423.3,70" />
<path stroke="#000000" stroke-width="2" d="M 423.3,30 433.3,30 433.3,70 433.3,68.3 433.4,66.5 433.7,64.8 434.2,63.1 434.8,61.5 435.5,59.9 436.4,58.4 437.4,57 438.5,55.6 439.7,54.4 441.1,53.3 442.5,52.3 444,51.4 445.6,50.7 447.2,50.1 448.9,49.6 450.6,49.3 452.4,49.1" />
<path stroke="#000000" stroke-width="2" d="M 459,70" />
<path stroke="#000000" stroke-width="2" d="M 459,20 479,20 471.4,38.5" />
<path stroke="#000000" stroke-width="2" d="M 509,70" />
<path stroke="#000000" stroke-width="2" d="M 529,30 513.7,67" />
<path stroke="#000000" stroke-width="2" d="M 535.7,70" />
<path stroke="#000000" stroke-width="2" d="M 543.7,30" />
<path stroke="#000000" stroke-width="2" d="M 543.7,30 543.6,32 543.3,33.6 542.9,34.9 542.3,35.8 541.6,36.3 540.9,36.6 540.1,36.7 539.4,36.5 538.7,36.1 538.1,35.6 537.6,35 537.2,34.3 537.1,33.6 537.1,32.8 537.4,32.1 538,31.4 538.8,30.9 540.1,30.4 541.7,30.1 543.7,30 553.7,30" />
<path stroke="#000000" stroke-width="2" d="M 553.7,30 555.7,29.9 557.4,29.6 558.6,29.1 559.5,28.6 560,27.9 560.3,27.2 560.4,26.4 560.2,25.7 559.8,25 559.3,24.4 558.7,23.9 558,23.5 557.3,23.3 556.5,23.4 555.8,23.7 555.2,24.2 554.6,25.1 554.1,26.4 553.8,28 553.7,30 553.7,45" />
<path stroke="#000000" stroke-width="2" d="M 590.4,70" />
<path stroke="#000000" stroke-width="2" d="M 595.4,30" />
<path stroke="#000000" stroke-width="2" d="M 595.4,30 593.9,30.1 592.7,30.6 591.5,31.2 590.6,32.1 589.7,33.1 589.1,34.3 588.5,35.6 588.2,37 587.9,38.5 587.9,40 587.9,41.5 588.2,43 588.5,44.4 589.1,45.7 589.7,46.9 590.6,47.9 591.5,48.8 592.7,49.4 593.9,49.9 595.4,50 600.4,50 600.4,70" />
<path stroke="#000000" stroke-width="2" d="M 630.4,70" />
<path stroke="#000000" stroke-width="2" d="M 646.4,30" />
<path stroke="#000000" stroke-width="2" d="M 646.4,30 646.2,34.1 645.6,37.3 644.6,39.8 643.5,41.5 642.1,42.7 640.7,43.2 639.2,43.3 637.7,43 636.3,42.3 635.1,41.2 634.1,40 633.4,38.6 633.1,37.2 633.1,35.7 633.7,34.2 634.8,32.9 636.6,31.7 639.1,30.8 642.3,30.2 646.4,30 666.4,30" />
<path stroke="#000000" stroke-width="2" d="M 673,70" />
<path stroke="#000000" stroke-width="2" d="M 673,50 693,50" />
<path stroke="#000000" stroke-width="2" d="M 699.7,70" />
<path stroke="#000000" stroke-width="2" d="M 699.7,25" />
<path stroke="#000000" stroke-width="2" d="M 699.7,25 701.7,24.9 703.3,24.6 704.6,24.1 705.5,23.6 706,22.9 706.3,22.2 706.4,21.4 706.2,20.7 705.8,20 705.3,19.4 704.7,18.9 704,18.5 703.3,18.3 702.5,18.4 701.8,18.7 701.1,19.2 700.6,20.1 700.1,21.4 699.8,23 699.7,25 699.7,40" />
<path stroke="#000000" stroke-width="2" d="M 736.4,70" />
<path stroke="#000000" stroke-width="2" d="M 736.4,70 736.6,70 736.6,70.2 736.4,70.2 736.4,70" />
<path stroke="#000000" stroke-width="2" d="M 766.6,70" />
</svg>