<svg xmlns="http://www.w3.org/2000/svg" width="686.4105951510155" height="122.0" style="fill:none; stroke-linecap:round;">
    <rect width="100%" height="100%" fill="#FFFFFF" />
<path stroke="#000000" stroke-width="2" d="M 550,75" />
<path stroke="#000000" stroke-width="2" d="M 40,30 38.3,30 36.5,30.2 34.8,30.5 33.1,30.9 31.5,31.5 29.9,32.2 28.4,33.1 27,34.1 25.6,35.2 24.4,36.5 23.3,37.8 22.3,39.2 21.4,40.7 20.7,42.3 20.1,44 19.6,45.7 19.3,47.4 19.1,49.1 19.1,50.9 19.3,52.6 19.6,54.3 20.1,56 20.7,57.6 21.4,59.2 22.3,60.7 23.3,62.2 24.4,63.5 25.6,64.7 27,65.8 28.4,66.8 29.9,67.7 31.5,68.5 33.1,69.1 34.8,69.5 36.5,69.8 38.3,70" />
<path stroke="#000000" stroke-width="2" d="M 38.3,70 38.4,70 38.8,70 39.5,70 40.3,70 41.4,70.1 42.6,70.2 43.9,70.4 45.3,70.6 46.8,70.9 48.3,71.2 49.8,71.6 51.2,72.1 52.6,72.7 53.9,73.4 55.1,74.2 56.2,75.1 57,76.1 57.7,77.3 58.1,78.5 58.3,80" />
<path stroke="#000000" stroke-width="2" d="M 58.3,80 60.2,82.1 61.5,84 62.3,85.7 62.6,87.2 62.5,88.4 62,89.4 61.3,90.2 60.4,90.8 59.4,91.1 58.3,91.2 57.1,91.1 56.1,90.8 55.2,90.2 54.5,89.4 54,88.4 53.9,87.2 54.2,85.7 55,84 56.3,82.1 58.3,80" />
<path stroke="#000000" stroke-width="2" d="M 58.3,80 58.3,79.9 58.3,79.7 58.3,79.4 58.4,78.9 58.6,78.4 58.8,77.8 59.1,77.1 59.5,76.4 60.1,75.7 60.8,75 61.6,74.2 62.6,73.5 63.7,72.8 65.1,72.1 66.7,71.5 68.5,71 70.5,70.6 72.8,70.2 75.4,70 78.3,70 78.3,90 78.3,84 78.3,83.1 78.3,82.2 78.5,81.4 78.7,80.5 79,79.7 79.4,78.9 79.8,78.2 80.3,77.4 80.9,76.8 81.5,76.2 82.2,75.6 82.9,75.1 83.6,74.7 84.4,74.3 85.2,74 86.1,73.8 86.9,73.6 87.8,73.5" />
<path stroke="#000000" stroke-width="2" d="M 117.8,70" />
<path stroke="#000000" stroke-width="2" d="M 117.8,40" />
<path stroke="#000000" stroke-width="2" d="M 117.8,40 121.9,39.8 125.1,39.2 127.6,38.3 129.3,37.1 130.5,35.8 131,34.3 131.1,32.8 130.8,31.4 130.1,30 129.1,28.8 127.8,27.7 126.4,27 125,26.7 123.5,26.8 122,27.3 120.7,28.5 119.5,30.2 118.6,32.7 118,35.9 117.8,40 117.8,70" />
<path stroke="#000000" stroke-width="2" d="M 137.8,70" />
<path stroke="#000000" stroke-width="2" d="M 137.8,50" />
<path stroke="#000000" stroke-width="2" d="M 137.8,50 137.9,50 138.3,50 139,50 139.9,50.1 140.9,50.2 142.1,50.3 143.4,50.4 144.8,50.6 146.3,50.9 147.8,51.2 149.3,51.7 150.7,52.2 152.1,52.7 153.5,53.4 154.7,54.2 155.7,55.1 156.6,56.1 157.2,57.3 157.6,58.6 157.8,60" />
<path stroke="#000000" stroke-width="2" d="M 157.8,60 159.7,62.1 161,64.1 161.8,65.7 162.1,67.2 162,68.4 161.6,69.5 160.9,70.2 159.9,70.8 158.9,71.1 157.8,71.2 156.7,71.1 155.6,70.8 154.7,70.2 154,69.5 153.6,68.4 153.5,67.2 153.8,65.7 154.5,64 155.9,62.1 157.8,60" />
<path stroke="#000000" stroke-width="2" d="M 157.8,60 157.8,59.9 157.8,59.7 157.9,59.4 157.9,59 158.1,58.4 158.3,57.8 158.6,57.2 159.1,56.5 159.6,55.7 160.3,55 161.1,54.3 162.1,53.5 163.3,52.8 164.6,52.2 166.2,51.6 168,51 170.1,50.6 172.4,50.3 174.9,50.1 177.8,50 177.8,50.7 177.8,51.4 178,52.1 178.1,52.8 178.4,53.4 178.7,54 179,54.6 179.4,55.2 179.9,55.8 180.4,56.2 180.9,56.7 181.5,57.1 182.1,57.4 182.7,57.7 183.4,58 184,58.2 184.7,58.3 185.4,58.3 186.1,58.3 186.8,58.3 187.5,58.2 188.2,58 188.8,57.7 189.5,57.4 190.1,57.1 190.6,56.7 191.2,56.2 191.7,55.8 192.1,55.2 192.5,54.6 192.9,54 193.2,53.4 193.4,52.8 193.6,52.1 193.7,51.4 193.8,50.7" />
<path stroke="#000000" stroke-width="2" d="M 223.8,70" />
<path stroke="#000000" stroke-width="2" d="M 223.8,70 235.3,42.3" />
<path stroke="#000000" stroke-width="2" d="M 235.3,42.3 239.3,42.1 242.5,41.5 245,40.6 246.8,39.4 247.9,38.1 248.5,36.6 248.6,35.1 248.2,33.6 247.5,32.3 246.5,31 245.3,30 243.9,29.3 242.4,29 240.9,29.1 239.5,29.6 238.1,30.8 237,32.5 236.1,35 235.5,38.2 235.3,42.3 235.3,72.3" />
<path stroke="#000000" stroke-width="2" d="M 278.6,70" />
<path stroke="#000000" stroke-width="2" d="M 278.6,30 318.6,30" />
<path stroke="#000000" stroke-width="2" d="M 325.2,70" />
<path stroke="#000000" stroke-width="2" d="M 349.2,42" />
<path stroke="#000000" stroke-width="2" d="M 349.2,42 345.2,41.8 341.9,41.2 339.5,40.3 337.7,39.1 336.6,37.8 336,36.3 335.9,34.8 336.3,33.4 337,32 338,30.8 339.2,29.7 340.6,29 342.1,28.7 343.6,28.8 345,29.3 346.3,30.5 347.5,32.2 348.4,34.7 349,37.9 349.2,42 349.2,50" />
<path stroke="#000000" stroke-width="2" d="M 349.2,50 348.6,51.7 347.9,53.4 347.2,54.9 346.4,56.3 345.5,57.6 344.7,58.7 343.7,59.8 342.8,60.8 341.8,61.7 340.7,62.5 339.7,63.2 338.6,63.8 337.5,64.4 336.3,64.8 335.2,65.2 334,65.5 332.8,65.7 331.6,65.9 330.4,66 329.2,66" />
<path stroke="#000000" stroke-width="2" d="M 379.2,70" />
<path stroke="#000000" stroke-width="2" d="M 399.2,30 379.4,49.8" />
<path stroke="#000000" stroke-width="2" d="M 379.4,29.8 399.2,49.6" />
<path stroke="#000000" stroke-width="2" d="M 399.2,49.6 399.1,51.6 398.8,53.2 398.4,54.5 397.8,55.4 397.1,55.9 396.4,56.2 395.6,56.3 394.9,56.1 394.2,55.7 393.6,55.2 393.1,54.6 392.7,53.9 392.6,53.2 392.6,52.4 392.9,51.7 393.5,51 394.3,50.5 395.6,50 397.2,49.7 399.2,49.6 409.2,49.6" />
<path stroke="#000000" stroke-width="2" d="M 415.9,70" />
<path stroke="#000000" stroke-width="2" d="M 415.9,20 415.9,40 415.9,34 415.9,33.1 416,32.3 416.1,31.4 416.3,30.6 416.6,29.7 417,28.9 417.4,28.2 417.9,27.5 418.5,26.8 419.1,26.2 419.8,25.6 420.5,25.1 421.3,24.7 422.1,24.3 422.9,24 423.7,23.8 424.6,23.6 425.4,23.6" />
<path stroke="#000000" stroke-width="2" d="M 432.1,70" />
<path stroke="#000000" stroke-width="2" d="M 432.1,30 452.1,30" />
<path stroke="#000000" stroke-width="2" d="M 452.1,30 454.1,29.9 455.8,29.6 457,29.1 457.9,28.6 458.4,27.9 458.7,27.2 458.8,26.4 458.6,25.7 458.2,25 457.7,24.4 457.1,23.9 456.4,23.5 455.7,23.3 454.9,23.4 454.2,23.7 453.6,24.2 453,25.1 452.5,26.4 452.2,28 452.1,30 452.1,45 453,45 453.9,45.1 454.7,45.2 455.6,45.5 456.4,45.8 457.2,46.1 457.9,46.6 458.6,47.1 459.3,47.6 459.9,48.2 460.5,48.9 461,49.6 461.4,50.4 461.8,51.2 462.1,52 462.3,52.8 462.5,53.7 462.5,54.6 462.5,55.4 462.5,56.3 462.3,57.2 462.1,58 461.8,58.8 461.4,59.6 461,60.4 460.5,61.1 459.9,61.7 459.3,62.4 458.6,62.9 457.9,63.4 457.2,63.9 456.4,64.2 455.6,64.5 454.7,64.8 453.9,64.9 453,65" />
<path stroke="#000000" stroke-width="2" d="M 492.5,70" />
<path stroke="#000000" stroke-width="2" d="M 492.5,50 500.2,31.5 500.2,30.8 500.3,30.1 500.4,29.4 500.6,28.8 500.8,28.1 501.1,27.5 501.4,26.9 501.8,26.3 502.3,25.8 502.8,25.3 503.3,24.8 503.9,24.4 504.5,24.1 505.1,23.8 505.8,23.5 506.5,23.4 507.1,23.2 507.8,23.2 508.5,23.2 509.2,23.2 509.9,23.4 510.6,23.5 511.2,23.8 511.9,24.1 512.5,24.4 513.1,24.8 513.6,25.3 514.1,25.8 514.5,26.3 514.9,26.9 515.3,27.5 515.6,28.1 515.8,28.8 516,29.4 516.1,30.1 516.2,30.8 526.1,40.7 516.2,50.6" />
<path stroke="#000000" stroke-width="2" d="M 532.7,70" />
<path stroke="#000000" stroke-width="2" d="M 532.7,70 540.4,51.5 540.4,52.2 540.5,52.9 540.6,53.6 540.8,54.3 541,54.9 541.3,55.6 541.6,56.2 542,56.7 542.5,57.3 543,57.8 543.5,58.2 544.1,58.6 544.7,59 545.3,59.3 546,59.5 546.7,59.7 547.3,59.8 548,59.9 548.7,59.9 549.4,59.8 550.1,59.7 550.8,59.5 551.5,59.3 552.1,59 552.7,58.6 553.3,58.2 553.8,57.8 554.3,57.3 554.7,56.7 555.1,56.2 555.5,55.6 555.8,54.9 556,54.3 556.2,53.6 556.3,52.9 556.4,52.2" />
<path stroke="#000000" stroke-width="2" d="M 563,70" />
<path stroke="#000000" stroke-width="2" d="M 563,30 563.2,30 563.2,30.2 563,30.2 563,30" />
<path stroke="#000000" stroke-width="2" d="M 593.2,70" />
<path stroke="#000000" stroke-width="2" d="M 593.2,62 594,62 594,62.8 593.2,62.8 593.2,62" />
<path stroke="#000000" stroke-width="2" d="M 593.2,78" />
<path stroke="#000000" stroke-width="2" d="M 593.2,78 595.5,78.1 597.5,78.3 599.1,78.8 600.5,79.3 601.7,80.1 602.6,80.9 603.2,81.9 603.6,83 603.8,84.2 603.7,85.5 603.5,86.9 603,88.4 602.4,89.9 601.6,91.5 600.6,93.2 599.4,94.9 598.1,96.6 596.6,98.4 595,100.2 593.2,102" />
<path stroke="#000000" stroke-width="2" d="M 633.8,70" />
<path stroke="#000000" stroke-width="2" d="M 633.8,30 633.8,70 645.1,58.7" />
<path stroke="#000000" stroke-width="2" d="M 651.8,70" />
<path stroke="#000000" stroke-width="2" d="M 651.8,40 659.4,21.5 659.4,41.5 659.4,35.5 659.4,34.7 659.5,33.8 659.7,32.9 659.9,32.1 660.2,31.3 660.5,30.5 661,29.7 661.5,29 662,28.3 662.7,27.7 663.3,27.2 664,26.7 664.8,26.2 665.6,25.8 666.4,25.5" />
<path stroke="#000000" stroke-width="2" d="M 696.4,70" />
</svg>