<svg xmlns="http://www.w3.org/2000/svg" width="587.4540188586382" height="90.0" style="fill:none; stroke-linecap:round;">
    <rect width="100%" height="100%" fill="#FFFFFF" />
<path stroke="#000000" stroke-width="2" d="M 550,75" />
<path stroke="#000000" stroke-width="2" d="M 20,40" />
<path stroke="#000000" stroke-width="2" d="M 20,40 24.1,39.8 27.3,39.2 29.8,38.3 31.5,37.1 32.7,35.8 33.2,34.3 33.3,32.8 33,31.4 32.3,30 31.2,28.8 30,27.7 28.6,27 27.2,26.7 25.7,26.8 24.2,27.3 22.9,28.5 21.7,30.2 20.8,32.7 20.2,35.9 20,40 20,70" />
<path stroke="#000000" stroke-width="2" d="M 40,70" />
<path stroke="#000000" stroke-width="2" d="M 50,50 50,70 40,70" />
<path stroke="#000000" stroke-width="2" d="M 56.6,70" />
<path stroke="#000000" stroke-width="2" d="M 56.6,25" />
<path stroke="#000000" stroke-width="2" d="M 56.6,25 58.7,24.9 60.3,24.6 61.5,24.1 62.4,23.6 63,22.9 63.3,22.2 63.3,21.4 63.1,20.7 62.8,20 62.3,19.4 61.7,18.9 61,18.5 60.2,18.3 59.5,18.4 58.8,18.7 58.1,19.2 57.5,20.1 57,21.4 56.7,23 56.6,25 56.6,40 49,58.5" />
<path stroke="#000000" stroke-width="2" d="M 70,70" />
<path stroke="#000000" stroke-width="2" d="M 70,30 85.3,67 100.6,30" />
<path stroke="#000000" stroke-width="2" d="M 130.6,70" />
<path stroke="#000000" stroke-width="2" d="M 130.6,30 150.6,30" />
<path stroke="#000000" stroke-width="2" d="M 150.6,30 152,30.1 153.3,30.6 154.4,31.2 155.4,32.1 156.2,33.1 156.9,34.3 157.4,35.6 157.8,37 158,38.5 158.1,40 158,41.5 157.8,43 157.4,44.4 156.9,45.7 156.2,46.9 155.4,47.9 154.4,48.8 153.3,49.4 152,49.9 150.6,50" />
<path stroke="#000000" stroke-width="2" d="M 188.1,70" />
<path stroke="#000000" stroke-width="2" d="M 188.1,30 188.1,70 199.4,58.7" />
<path stroke="#000000" stroke-width="2" d="M 206.1,70" />
<path stroke="#000000" stroke-width="2" d="M 216.1,20 208.4,38.5" />
<path stroke="#000000" stroke-width="2" d="M 246.1,70" />
<path stroke="#000000" stroke-width="2" d="M 256.1,30 248.4,48.5 238.5,58.4 248.4,68.3" />
<path stroke="#000000" stroke-width="2" d="M 262.7,70" />
<path stroke="#000000" stroke-width="2" d="M 262.7,30 262.9,30 262.9,30.2 262.7,30.2 262.7,30" />
<path stroke="#000000" stroke-width="2" d="M 292.9,70" />
<path stroke="#000000" stroke-width="2" d="M 292.9,38 292.9,37.3 293,36.6 293.1,35.9 293.3,35.2 293.5,34.6 293.8,34 294.2,33.4 294.6,32.8 295,32.2 295.5,31.8 296,31.3 296.6,30.9 297.2,30.6 297.9,30.3 298.5,30 299.2,29.8 299.9,29.7 300.6,29.7 301.3,29.7 302,29.7 302.6,29.8 303.3,30 304,30.3 304.6,30.6 305.2,30.9 305.8,31.3 306.3,31.8 306.8,32.2 307.3,32.8 307.7,33.4 308,34 308.3,34.6 308.5,35.2 308.7,35.9 308.8,36.6 308.9,37.3" />
<path stroke="#000000" stroke-width="2" d="M 308.9,33.3" />
<path stroke="#000000" stroke-width="2" d="M 302.9,33.3 318.9,33.3" />
<path stroke="#000000" stroke-width="2" d="M 318.9,33.3 320.9,33.2 322.6,32.9 323.8,32.4 324.7,31.9 325.2,31.2 325.5,30.5 325.6,29.7 325.4,29 325,28.3 324.5,27.7 323.9,27.2 323.2,26.8 322.5,26.6 321.7,26.7 321,27 320.3,27.5 319.8,28.4 319.3,29.7 319,31.3 318.9,33.3 318.9,48.3" />
<path stroke="#000000" stroke-width="2" d="M 332.2,70" />
<path stroke="#000000" stroke-width="2" d="M 332.2,30 332.2,31.4 332.4,32.8 332.6,34.2 333,35.5 333.4,36.8 334,38.1 334.7,39.3 335.5,40.4 336.4,41.5 337.4,42.5 338.5,43.4 339.6,44.2 340.8,44.9 342.1,45.5 343.4,46 344.8,46.3 346.1,46.6 347.5,46.7 348.9,46.7 350.3,46.6 351.7,46.3 353,46 354.3,45.5 355.6,44.9 356.8,44.2 358,43.4 359,42.5 360,41.5 360.9,40.4 361.7,39.3 362.4,38.1 363,36.8 363.5,35.5 363.8,34.2 364.1,32.8 364.2,31.4" />
<path stroke="#000000" stroke-width="2" d="M 394.2,70" />
<path stroke="#000000" stroke-width="2" d="M 394.2,30 394.2,50 404.2,50" />
<path stroke="#000000" stroke-width="2" d="M 404.2,50 406.2,49.9 407.8,49.6 409.1,49.1 410,48.6 410.5,47.9 410.8,47.2 410.9,46.4 410.7,45.7 410.3,45 409.8,44.4 409.2,43.9 408.5,43.5 407.8,43.3 407,43.4 406.3,43.7 405.6,44.2 405.1,45.1 404.6,46.4 404.3,48 404.2,50 404.2,65" />
<path stroke="#000000" stroke-width="2" d="M 440.9,70" />
<path stroke="#000000" stroke-width="2" d="M 440.9,30 456.2,67 471.5,30" />
<path stroke="#000000" stroke-width="2" d="M 478.1,70" />
<path stroke="#000000" stroke-width="2" d="M 498.1,30 482.8,67" />
<path stroke="#000000" stroke-width="2" d="M 504.8,70" />
<path stroke="#000000" stroke-width="2" d="M 504.8,20 504.8,20.7 504.9,21.4 505,22.1 505.2,22.8 505.4,23.4 505.7,24 506,24.6 506.4,25.2 506.9,25.8 507.4,26.2 507.9,26.7 508.5,27.1 509.1,27.4 509.7,27.7 510.4,28 511.1,28.2 511.8,28.3 512.4,28.3 513.1,28.3 513.8,28.3 514.5,28.2 515.2,28 515.9,27.7 516.5,27.4 517.1,27.1 517.7,26.7 518.2,26.2 518.7,25.8 519.1,25.2 519.5,24.6 519.9,24 520.2,23.4 520.4,22.8 520.6,22.1 520.7,21.4 520.8,20.7" />
<path stroke="#000000" stroke-width="2" d="M 550.8,70" />
<path stroke="#000000" stroke-width="2" d="M 550.8,30 550.8,70" />
<path stroke="#000000" stroke-width="2" d="M 557.5,70" />
<path stroke="#000000" stroke-width="2" d="M 567.5,50 559.8,68.5" />
<path stroke="#000000" stroke-width="2" d="M 597.5,70" />
</svg>