<svg xmlns="http://www.w3.org/2000/svg" width="1003.1670070103895" height="90.0" style="fill:none; stroke-linecap:round;">
    <rect width="100%" height="100%" fill="#FFFFFF" />
<path stroke="#000000" stroke-width="2" d="M 550,75" />
<path stroke="#000000" stroke-width="2" d="M 20,30 30,30 30,70" />
<path stroke="#000000" stroke-width="2" d="M 36.7,70" />
<path stroke="#000000" stroke-width="2" d="M 36.7,30 41.7,30 41.7,50 34,68.5" />
<path stroke="#000000" stroke-width="2" d="M 48.3,70" />
<path stroke="#000000" stroke-width="2" d="M 48.3,20 68.3,20" />
<path stroke="#000000" stroke-width="2" d="M 98.3,70" />
<path stroke="#000000" stroke-width="2" d="M 98.3,30 98.3,38 98.3,39 98.4,40.1 98.6,41.1 98.9,42.1 99.2,43.1 99.7,44.1 100.2,45 100.8,45.8 101.5,46.6 102.2,47.4 103,48 103.9,48.6 104.8,49.2 105.7,49.6 106.7,50 107.7,50.2 108.8,50.4 109.8,50.5 110.8,50.5 111.9,50.4 112.9,50.2 113.9,50 114.9,49.6 115.9,49.2 116.8,48.6 117.6,48 118.4,47.4 119.2,46.6 119.8,45.8 120.4,45 121,44.1 121.4,43.1 121.8,42.1 122,41.1 122.2,40.1 122.3,39 122.3,29 122.3,69" />
<path stroke="#000000" stroke-width="2" d="M 129,70" />
<path stroke="#000000" stroke-width="2" d="M 129,20 129,20.7 129,21.4 129.2,22.1 129.3,22.8 129.6,23.4 129.9,24 130.2,24.6 130.6,25.2 131.1,25.8 131.6,26.2 132.1,26.7 132.7,27.1 133.3,27.4 133.9,27.7 134.6,28 135.2,28.2 135.9,28.3 136.6,28.3 137.3,28.3 138,28.3 138.7,28.2 139.4,28 140,27.7 140.7,27.4 141.3,27.1 141.8,26.7 142.4,26.2 142.9,25.8 143.3,25.2 143.7,24.6 144.1,24 144.4,23.4 144.6,22.8 144.8,22.1 144.9,21.4 145,20.7" />
<path stroke="#000000" stroke-width="2" d="M 151.6,70" />
<path stroke="#000000" stroke-width="2" d="M 171.6,20 151.8,39.8" />
<path stroke="#000000" stroke-width="2" d="M 151.8,19.8 171.6,39.6" />
<path stroke="#000000" stroke-width="2" d="M 178.3,70" />
<path stroke="#000000" stroke-width="2" d="M 178.3,40" />
<path stroke="#000000" stroke-width="2" d="M 178.3,40 182.4,39.8 185.6,39.2 188,38.3 189.8,37.1 191,35.8 191.5,34.3 191.6,32.8 191.3,31.4 190.5,30 189.5,28.8 188.3,27.7 186.9,27 185.5,26.7 184,26.8 182.5,27.3 181.2,28.5 180,30.2 179.1,32.7 178.5,35.9 178.3,40 178.3,70" />
<path stroke="#000000" stroke-width="2" d="M 221.6,70" />
<path stroke="#000000" stroke-width="2" d="M 231.6,30 230.7,30 229.9,30.1 229,30.2 228.2,30.5 227.3,30.8 226.6,31.1 225.8,31.6 225.1,32.1 224.4,32.6 223.8,33.2 223.2,33.9 222.7,34.6 222.3,35.4 221.9,36.2 221.6,37 221.4,37.8 221.3,38.7 221.2,39.6 221.2,40.4 221.3,41.3 221.4,42.2 221.6,43 221.9,43.8 222.3,44.6 222.7,45.4 223.2,46.1 223.8,46.7 224.4,47.4 225.1,47.9 225.8,48.4 226.6,48.9 227.3,49.2 228.2,49.5 229,49.8 229.9,49.9 230.7,50" />
<path stroke="#000000" stroke-width="2" d="M 230.7,40" />
<path stroke="#000000" stroke-width="2" d="M 214.7,40 234.7,40 239.7,40 239.7,60 239.7,59.1 239.8,58.2 240,57.4 240.2,56.5 240.5,55.7 240.9,54.9 241.3,54.2 241.8,53.5 242.3,52.8 243,52.2 243.6,51.6 244.3,51.1 245.1,50.7 245.9,50.3 246.7,50 247.6,49.8 248.4,49.6 249.3,49.6" />
<path stroke="#000000" stroke-width="2" d="M 256,70" />
<path stroke="#000000" stroke-width="2" d="M 256,50 263.6,68.5" />
<path stroke="#000000" stroke-width="2" d="M 293.6,70" />
<path stroke="#000000" stroke-width="2" d="M 295.6,50 301,37.1 301.1,36.7 301.2,36.4 301.3,36.1 301.3,35.7 301.3,35.4 301.3,35 301.3,34.7 301.2,34.3 301.1,34 301,33.7 300.8,33.4 300.6,33.1 300.4,32.8 300.2,32.5 299.9,32.3 299.6,32.1 299.3,31.9 299,31.7 298.7,31.6 298.4,31.5 298,31.4 297.7,31.4 297.3,31.4 297,31.4 296.6,31.4 296.3,31.5 296,31.6 295.6,31.7 295.3,31.9 295,32.1 294.8,32.3 294.5,32.5 294.3,32.8 294.1,33.1 293.9,33.4 293.7,33.7 293.6,34 293.5,34.3 293.4,34.7 293.4,35 293.3,35.4 293.4,35.7 293.4,36.1 293.5,36.4 293.6,36.7 293.7,37.1 293.9,37.4 294.1,37.7 294.3,37.9 294.5,38.2 294.8,38.4 295,38.7 295.3,38.8 295.6,39 296,39.1 296.3,39.2 296.6,39.3 297,39.4 297.3,39.4 297.7,39.4 310.6,34" />
<path stroke="#000000" stroke-width="2" d="M 310.6,34 308.6,33.9 307,33.6 305.7,33.1 304.9,32.6 304.3,31.9 304,31.2 304,30.4 304.1,29.7 304.5,29 305,28.4 305.6,27.9 306.3,27.5 307,27.3 307.8,27.4 308.5,27.7 309.2,28.2 309.8,29.1 310.2,30.4 310.5,32 310.6,34 310.6,49" />
<path stroke="#000000" stroke-width="2" d="M 317.3,70" />
<path stroke="#000000" stroke-width="2" d="M 317.3,25" />
<path stroke="#000000" stroke-width="2" d="M 317.3,25 319.3,24.9 320.9,24.6 322.2,24.1 323,23.6 323.6,22.9 323.9,22.2 323.9,21.4 323.8,20.7 323.4,20 322.9,19.4 322.3,18.9 321.6,18.5 320.9,18.3 320.1,18.4 319.4,18.7 318.7,19.2 318.1,20.1 317.7,21.4 317.4,23 317.3,25 317.3,40 309.6,58.5 311.9,52.9 312.3,52.1 312.7,51.4 313.1,50.6 313.7,49.9 314.3,49.3 314.9,48.7 315.6,48.2 316.3,47.7 317.1,47.3 317.9,47 318.7,46.7 319.6,46.5" />
<path stroke="#000000" stroke-width="2" d="M 330.6,70" />
<path stroke="#000000" stroke-width="2" d="M 330.6,40 338.3,21.5 345.9,40" />
<path stroke="#000000" stroke-width="2" d="M 375.9,70" />
<path stroke="#000000" stroke-width="2" d="M 385.9,30 385,30 384.2,30.1 383.3,30.2 382.5,30.5 381.7,30.8 380.9,31.1 380.1,31.6 379.4,32.1 378.7,32.6 378.1,33.2 377.5,33.9 377,34.6 376.6,35.4 376.2,36.2 375.9,37 375.7,37.8 375.6,38.7 375.5,39.6 375.5,40.4 375.6,41.3 375.7,42.2 375.9,43 376.2,43.8 376.6,44.6 377,45.4 377.5,46.1 378.1,46.7 378.7,47.4 379.4,47.9 380.1,48.4 380.9,48.9 381.7,49.2 382.5,49.5 383.3,49.8 384.2,49.9 385,50 405,50" />
<path stroke="#000000" stroke-width="2" d="M 435,70" />
<path stroke="#000000" stroke-width="2" d="M 445,30 444.2,30 443.3,30.1 442.4,30.2 441.6,30.5 440.8,30.8 440,31.1 439.2,31.6 438.5,32.1 437.9,32.6 437.2,33.2 436.7,33.9 436.2,34.6 435.7,35.4 435.4,36.2 435.1,37 434.8,37.8 434.7,38.7 434.6,39.6 434.6,40.4 434.7,41.3 434.8,42.2 435.1,43 435.4,43.8 435.7,44.6 436.2,45.4 436.7,46.1 437.2,46.7 437.9,47.4 438.5,47.9 439.2,48.4 440,48.9 440.8,49.2 441.6,49.5 442.4,49.8 443.3,49.9 444.2,50 449.2,50 449.2,70" />
<path stroke="#000000" stroke-width="2" d="M 479.2,70" />
<path stroke="#000000" stroke-width="2" d="M 479.2,40" />
<path stroke="#000000" stroke-width="2" d="M 479.2,40 483.2,39.8 486.5,39.2 488.9,38.3 490.7,37.1 491.8,35.8 492.4,34.3 492.5,32.8 492.1,31.4 491.4,30 490.4,28.8 489.2,27.7 487.8,27 486.3,26.7 484.8,26.8 483.4,27.3 482.1,28.5 480.9,30.2 480,32.7 479.4,35.9 479.2,40 479.2,70" />
<path stroke="#000000" stroke-width="2" d="M 499.1,70" />
<path stroke="#000000" stroke-width="2" d="M 499.1,20 499.1,20.7 499.2,21.4 499.3,22.1 499.5,22.8 499.7,23.4 500,24 500.4,24.6 500.8,25.2 501.2,25.8 501.7,26.2 502.3,26.7 502.8,27.1 503.4,27.4 504.1,27.7 504.7,28 505.4,28.2 506.1,28.3 506.8,28.3 507.5,28.3 508.2,28.3 508.9,28.2 509.5,28 510.2,27.7 510.8,27.4 511.4,27.1 512,26.7 512.5,26.2 513,25.8 513.5,25.2 513.9,24.6 514.2,24 514.5,23.4 514.8,22.8 514.9,22.1 515.1,21.4 515.1,20.7" />
<path stroke="#000000" stroke-width="2" d="M 521.8,70" />
<path stroke="#000000" stroke-width="2" d="M 521.8,25" />
<path stroke="#000000" stroke-width="2" d="M 521.8,25 523.8,24.9 525.4,24.6 526.7,24.1 527.6,23.6 528.1,22.9 528.4,22.2 528.5,21.4 528.3,20.7 527.9,20 527.4,19.4 526.8,18.9 526.1,18.5 525.4,18.3 524.6,18.4 523.9,18.7 523.2,19.2 522.7,20.1 522.2,21.4 521.9,23 521.8,25 521.8,40 514.1,58.5" />
<path stroke="#000000" stroke-width="2" d="M 535.1,70" />
<path stroke="#000000" stroke-width="2" d="M 535.1,40 540.9,26.1" />
<path stroke="#000000" stroke-width="2" d="M 540.9,26.1 542.9,26 544.5,25.7 545.7,25.3 546.6,24.7 547.2,24 547.5,23.3 547.5,22.6 547.3,21.8 547,21.1 546.5,20.5 545.9,20 545.2,19.7 544.4,19.5 543.7,19.5 543,19.8 542.3,20.4 541.7,21.3 541.3,22.5 541,24.1 540.9,26.1 540.9,41.1" />
<path stroke="#000000" stroke-width="2" d="M 577.5,70" />
<path stroke="#000000" stroke-width="2" d="M 587.5,30 577.5,30 577.5,70" />
<path stroke="#000000" stroke-width="2" d="M 594.2,70" />
<path stroke="#000000" stroke-width="2" d="M 602.2,50" />
<path stroke="#000000" stroke-width="2" d="M 602.2,50 602.1,52 601.8,53.6 601.3,54.9 600.7,55.8 600.1,56.3 599.3,56.6 598.6,56.7 597.9,56.5 597.2,56.1 596.6,55.6 596.1,55 595.7,54.3 595.5,53.6 595.6,52.8 595.9,52.1 596.4,51.4 597.3,50.9 598.5,50.4 600.2,50.1 602.2,50 612.2,50" />
<path stroke="#000000" stroke-width="2" d="M 618.8,70" />
<path stroke="#000000" stroke-width="2" d="M 618.8,25" />
<path stroke="#000000" stroke-width="2" d="M 618.8,25 620.9,24.9 622.5,24.6 623.7,24.1 624.6,23.6 625.2,22.9 625.5,22.2 625.5,21.4 625.3,20.7 625,20 624.5,19.4 623.9,18.9 623.2,18.5 622.4,18.3 621.7,18.4 621,18.7 620.3,19.2 619.7,20.1 619.3,21.4 619,23 618.8,25 618.8,40" />
<path stroke="#000000" stroke-width="2" d="M 655.5,70" />
<path stroke="#000000" stroke-width="2" d="M 655.5,30 695.5,30" />
<path stroke="#000000" stroke-width="2" d="M 702.2,70" />
<path stroke="#000000" stroke-width="2" d="M 712.2,50 704.5,68.5" />
<path stroke="#000000" stroke-width="2" d="M 718.8,70" />
<path stroke="#000000" stroke-width="2" d="M 718.8,35" />
<path stroke="#000000" stroke-width="2" d="M 718.8,35 720.9,34.9 722.5,34.6 723.7,34.1 724.6,33.6 725.2,32.9 725.5,32.2 725.5,31.4 725.3,30.7 725,30 724.5,29.4 723.8,28.9 723.2,28.5 722.4,28.3 721.7,28.4 720.9,28.7 720.3,29.2 719.7,30.1 719.2,31.4 718.9,33 718.8,35 718.8,50 719.7,50 720.6,50.1 721.4,50.2 722.3,50.5 723.1,50.8 723.9,51.1 724.6,51.6 725.4,52.1 726,52.6 726.6,53.2 727.2,53.9 727.7,54.6 728.1,55.4 728.5,56.2 728.8,57 729,57.8 729.2,58.7 729.3,59.6 729.3,60.4 729.2,61.3 729,62.2 728.8,63 728.5,63.8 728.1,64.6 727.7,65.4 727.2,66.1 726.6,66.7 726,67.4 725.4,67.9 724.6,68.4 723.9,68.9 723.1,69.2 722.3,69.5 721.4,69.8 720.6,69.9 719.7,70" />
<path stroke="#000000" stroke-width="2" d="M 759.3,70" />
<path stroke="#000000" stroke-width="2" d="M 759.3,40 759.5,40 759.5,40.2 759.3,40.2 759.3,40" />
<path stroke="#000000" stroke-width="2" d="M 766.1,70" />
<path stroke="#000000" stroke-width="2" d="M 776.1,30 775.3,30 774.4,30.1 773.5,30.2 772.7,30.5 771.9,30.8 771.1,31.1 770.3,31.6 769.6,32.1 768.9,32.6 768.3,33.2 767.8,33.9 767.3,34.6 766.8,35.4 766.5,36.2 766.2,37 765.9,37.8 765.8,38.7 765.7,39.6 765.7,40.4 765.8,41.3 765.9,42.2 766.2,43 766.5,43.8 766.8,44.6 767.3,45.4 767.8,46.1 768.3,46.7 768.9,47.4 769.6,47.9 770.3,48.4 771.1,48.9 771.9,49.2 772.7,49.5 773.5,49.8 774.4,49.9 775.3,50 776.1,50 777,50.1 777.9,50.2 778.7,50.4 779.5,50.7 780.3,51.1 781.1,51.5 781.8,52 782.4,52.6 783.1,53.2 783.6,53.9 784.1,54.6 784.6,55.4 784.9,56.1 785.2,57 785.5,57.8 785.6,58.7 785.7,59.5 785.7,60.4 785.6,61.3 785.5,62.1 785.2,63 784.9,63.8 784.6,64.6 784.1,65.3 783.6,66.1 783.1,66.7 782.4,67.3 781.8,67.9 781.1,68.4 780.3,68.8 779.5,69.2 778.7,69.5 777.9,69.7 777,69.9 776.1,70" />
<path stroke="#000000" stroke-width="2" d="M 815.7,70" />
<path stroke="#000000" stroke-width="2" d="M 815.7,30 815.7,70 815.7,58 815.7,56.3 815.8,54.5 816.1,52.8 816.6,51.1 817.2,49.5 817.9,47.9 818.8,46.4 819.8,45 820.9,43.6 822.2,42.4 823.5,41.3 824.9,40.3 826.4,39.4 828,38.7 829.6,38.1 831.3,37.6 833.1,37.3 834.8,37.1" />
<path stroke="#000000" stroke-width="2" d="M 841.5,70" />
<path stroke="#000000" stroke-width="2" d="M 841.5,20 842.3,20 843.2,20.1 844.1,20.2 844.9,20.5 845.7,20.8 846.5,21.1 847.3,21.6 848,22.1 848.7,22.6 849.3,23.2 849.8,23.9 850.3,24.6 850.8,25.4 851.1,26.2 851.4,27 851.7,27.8 851.8,28.7 851.9,29.6 851.9,30.4 851.8,31.3 851.7,32.2 851.4,33 851.1,33.8 850.8,34.6 850.3,35.4 849.8,36.1 849.3,36.7 848.7,37.4 848,37.9 847.3,38.4 846.5,38.9 845.7,39.2 844.9,39.5 844.1,39.8 843.2,39.9 842.3,40" />
<path stroke="#000000" stroke-width="2" d="M 858.6,70" />
<path stroke="#000000" stroke-width="2" d="M 878.6,30 876.8,30 875.1,30.2 873.4,30.5 871.7,30.9 870,31.5 868.4,32.2 866.9,33.1 865.5,34.1 864.2,35.2 862.9,36.5 861.8,37.8 860.8,39.2 859.9,40.7 859.2,42.3 858.6,44 858.2,45.7 857.9,47.4 857.7,49.1 857.7,50.9 857.9,52.6 858.2,54.3 858.6,56 859.2,57.6 859.9,59.2 860.8,60.7 861.8,62.2 862.9,63.5 864.2,64.7 865.5,65.8 866.9,66.8 868.4,67.7 870,68.5 871.7,69.1 873.4,69.5 875.1,69.8 876.8,70" />
<path stroke="#000000" stroke-width="2" d="M 908.6,70" />
<path stroke="#000000" stroke-width="2" d="M 908.6,40" />
<path stroke="#000000" stroke-width="2" d="M 908.6,40 912.6,39.8 915.8,39.2 918.3,38.3 920.1,37.1 921.2,35.8 921.8,34.3 921.9,32.8 921.5,31.4 920.8,30 919.8,28.8 918.6,27.7 917.2,27 915.7,26.7 914.2,26.8 912.8,27.3 911.4,28.5 910.3,30.2 909.4,32.7 908.8,35.9 908.6,40 908.6,70" />
<path stroke="#000000" stroke-width="2" d="M 928.5,70" />
<path stroke="#000000" stroke-width="2" d="M 928.5,30 928.5,34 928.5,34.5 928.6,35 928.7,35.6 928.8,36.1 929,36.6 929.2,37 929.5,37.5 929.8,37.9 930.1,38.3 930.5,38.7 930.9,39 931.3,39.3 931.8,39.6 932.2,39.8 932.7,40 933.2,40.1 933.7,40.2 934.3,40.3 934.8,40.3 935.3,40.2 935.8,40.1 936.3,40 936.8,39.8 937.3,39.6 937.7,39.3 938.2,39 938.6,38.7 938.9,38.3 939.3,37.9 939.6,37.5 939.8,37 940.1,36.6 940.2,36.1 940.4,35.6 940.5,35 940.5,34.5 940.5,29.5 940.5,49.5 960.5,49.5" />
<path stroke="#000000" stroke-width="2" d="M 967.2,70" />
<path stroke="#000000" stroke-width="2" d="M 967.2,20 967.2,20.7 967.2,21.4 967.4,22.1 967.5,22.8 967.8,23.4 968.1,24 968.4,24.6 968.8,25.2 969.3,25.8 969.8,26.2 970.3,26.7 970.9,27.1 971.5,27.4 972.1,27.7 972.8,28 973.4,28.2 974.1,28.3 974.8,28.3 975.5,28.3 976.2,28.3 976.9,28.2 977.6,28 978.2,27.7 978.9,27.4 979.5,27.1 980,26.7 980.6,26.2 981.1,25.8 981.5,25.2 981.9,24.6 982.3,24 982.6,23.4 982.8,22.8 983,22.1 983.1,21.4 983.2,20.7" />
<path stroke="#000000" stroke-width="2" d="M 1013.2,70" />
</svg>