<svg xmlns="http://www.w3.org/2000/svg" width="178.34718566756982" height="90.2" style="fill:none; stroke-linecap:round;">
    <rect width="100%" height="100%" fill="#FFFFFF" />
<path stroke="#000000" stroke-width="2" d="M 550,75" />
<path stroke="#000000" stroke-width="2" d="M 20,30" />
<path stroke="#000000" stroke-width="2" d="M 20,30 22.8,30.3 25.4,31.1 27.6,32.4 29.6,34.2 31.2,36.2 32.6,38.6 33.6,41.3 34.4,44.1 34.9,47 35,50 34.9,53 34.4,55.9 33.6,58.7 32.6,61.4 31.2,63.8 29.6,65.8 27.7,67.6 25.4,68.9 22.9,69.7 20,70 21.2,68.8 22.6,67.6 24,66.6 25.5,65.8 27.1,65 28.7,64.4 30.4,64 32.1,63.7 33.9,63.5 35.6,63.5 37.4,63.7 39.1,64 40.8,64.4 42.4,65 44,65.8" />
<path stroke="#000000" stroke-width="2" d="M 50.6,70" />
<path stroke="#000000" stroke-width="2" d="M 50.6,25" />
<path stroke="#000000" stroke-width="2" d="M 50.6,25 52.7,24.9 54.3,24.6 55.5,24.1 56.4,23.6 57,22.9 57.3,22.2 57.3,21.4 57.1,20.7 56.8,20 56.3,19.4 55.7,18.9 55,18.5 54.2,18.3 53.5,18.4 52.8,18.7 52.1,19.2 51.5,20.1 51.1,21.4 50.8,23 50.6,25 50.6,40" />
<path stroke="#000000" stroke-width="2" d="M 50.6,40 52.1,40.1 53.3,40.6 54.5,41.2 55.4,42.1 56.3,43.1 56.9,44.3 57.5,45.6 57.8,47 58.1,48.5 58.1,50 58.1,51.5 57.8,53 57.5,54.4 56.9,55.7 56.3,56.9 55.4,57.9 54.5,58.8 53.3,59.4 52.1,59.9 50.6,60" />
<path stroke="#000000" stroke-width="2" d="M 88.1,70" />
<path stroke="#000000" stroke-width="2" d="M 88.1,30 128.1,30" />
<path stroke="#000000" stroke-width="2" d="M 158.1,70" />
<path stroke="#000000" stroke-width="2" d="M 158.1,70 158.3,70 158.3,70.2 158.1,70.2 158.1,70" />
<path stroke="#000000" stroke-width="2" d="M 188.3,70" />
</svg>