<svg xmlns="http://www.w3.org/2000/svg" width="619.2633240271302" height="108.47759065022574" style="fill:none; stroke-linecap:round;">
    <rect width="100%" height="100%" fill="#FFFFFF" />
<path stroke="#000000" stroke-width="2" d="M 550,75" />
<path stroke="#000000" stroke-width="2" d="M 20,50 27.7,31.5 35.3,50 55.3,50 56.2,50 57,50.1 57.9,50.2 58.8,50.5 59.6,50.8 60.4,51.1 61.1,51.6 61.8,52.1 62.5,52.6 63.1,53.2 63.7,53.9 64.2,54.6 64.6,55.4 65,56.2 65.3,57 65.5,57.8 65.7,58.7 65.7,59.6 65.7,60.4 65.7,61.3 65.5,62.2 65.3,63 65,63.8 64.6,64.6 64.2,65.4 63.7,66.1 63.1,66.7 62.5,67.4 61.8,67.9 61.1,68.4 60.4,68.9 59.6,69.2 58.8,69.5 57.9,69.8 57,69.9 56.2,70" />
<path stroke="#000000" stroke-width="2" d="M 95.7,70" />
<path stroke="#000000" stroke-width="2" d="M 95.7,40 95.9,40 95.9,40.2 95.7,40.2 95.7,40" />
<path stroke="#000000" stroke-width="2" d="M 102.6,70" />
<path stroke="#000000" stroke-width="2" d="M 102.6,30 142.6,30" />
<path stroke="#000000" stroke-width="2" d="M 149.3,70" />
<path stroke="#000000" stroke-width="2" d="M 149.3,40 156.9,21.5 164.6,40 156.9,58.5 156.9,59.2 157,59.9 157.1,60.6 157.3,61.2 157.5,61.9 157.8,62.5 158.2,63.1 158.6,63.7 159,64.2 159.5,64.7 160,65.2 160.6,65.6 161.2,65.9 161.9,66.2 162.5,66.5 163.2,66.6 163.9,66.8 164.6,66.8 165.3,66.8 166,66.8 166.6,66.6 167.3,66.5 168,66.2 168.6,65.9 169.2,65.6 169.8,65.2 170.3,64.7 170.8,64.2 171.3,63.7 171.7,63.1 172,62.5 172.3,61.9 172.5,61.2 172.7,60.6 172.8,59.9 172.9,59.2" />
<path stroke="#000000" stroke-width="2" d="M 179.6,70" />
<path stroke="#000000" stroke-width="2" d="M 179.6,30 179.8,30 179.8,30.2 179.6,30.2 179.6,30" />
<path stroke="#000000" stroke-width="2" d="M 209.8,70" />
<path stroke="#000000" stroke-width="2" d="M 219.8,30 212.1,48.5 212.1,68.5 212.1,62.5 212.1,61.6 212.2,60.7 212.3,59.9 212.6,59 212.9,58.2 213.2,57.4 213.7,56.7 214.2,56 214.7,55.3 215.4,54.7 216,54.1 216.7,53.6 217.5,53.2 218.3,52.8 219.1,52.5 219.9,52.3 220.8,52.1 221.7,52.1" />
<path stroke="#000000" stroke-width="2" d="M 228.3,70" />
<path stroke="#000000" stroke-width="2" d="M 228.3,30 236,48.5 243.6,67" />
<path stroke="#000000" stroke-width="2" d="M 250.3,70" />
<path stroke="#000000" stroke-width="2" d="M 250.3,20 251.2,20 252.1,20.1 252.9,20.2 253.8,20.5 254.6,20.8 255.4,21.1 256.1,21.6 256.8,22.1 257.5,22.6 258.1,23.2 258.7,23.9 259.2,24.6 259.6,25.4 260,26.2 260.3,27 260.5,27.8 260.7,28.7 260.7,29.6 260.7,30.4 260.7,31.3 260.5,32.2 260.3,33 260,33.8 259.6,34.6 259.2,35.4 258.7,36.1 258.1,36.7 257.5,37.4 256.8,37.9 256.1,38.4 255.4,38.9 254.6,39.2 253.8,39.5 252.9,39.8 252.1,39.9 251.2,40" />
<path stroke="#000000" stroke-width="2" d="M 290.7,70" />
<path stroke="#000000" stroke-width="2" d="M 290.7,30 290.7,70 290.7,58 290.7,56.3 290.9,54.5 291.2,52.8 291.6,51.1 292.2,49.5 293,47.9 293.9,46.4 294.9,45 296,43.6 297.2,42.4 298.5,41.3 300,40.3 301.5,39.4 303.1,38.7 304.7,38.1 306.4,37.6 308.1,37.3 309.8,37.1" />
<path stroke="#000000" stroke-width="2" d="M 316.5,70" />
<path stroke="#000000" stroke-width="2" d="M 316.5,20 317.4,20 318.3,20.1 319.1,20.2 320,20.5 320.8,20.8 321.6,21.1 322.3,21.6 323,22.1 323.7,22.6 324.3,23.2 324.9,23.9 325.4,24.6 325.8,25.4 326.2,26.2 326.5,27 326.7,27.8 326.9,28.7 326.9,29.6 326.9,30.4 326.9,31.3 326.7,32.2 326.5,33 326.2,33.8 325.8,34.6 325.4,35.4 324.9,36.1 324.3,36.7 323.7,37.4 323,37.9 322.3,38.4 321.6,38.9 320.8,39.2 320,39.5 319.1,39.8 318.3,39.9 317.4,40" />
<path stroke="#000000" stroke-width="2" d="M 356.9,70" />
<path stroke="#000000" stroke-width="2" d="M 356.9,30 372.2,67" />
<path stroke="#000000" stroke-width="2" d="M 378.9,70" />
<path stroke="#000000" stroke-width="2" d="M 378.9,55" />
<path stroke="#000000" stroke-width="2" d="M 378.9,55 380.9,54.9 382.6,54.6 383.8,54.1 384.7,53.6 385.2,52.9 385.5,52.2 385.6,51.4 385.4,50.7 385,50 384.5,49.4 383.9,48.9 383.2,48.5 382.5,48.3 381.8,48.4 381,48.7 380.4,49.2 379.8,50.1 379.3,51.4 379,53 378.9,55 378.9,70 371.3,88.5" />
<path stroke="#000000" stroke-width="2" d="M 392.2,70" />
<path stroke="#000000" stroke-width="2" d="M 392.2,20 402.1,29.9 392.2,39.8" />
<path stroke="#000000" stroke-width="2" d="M 408.8,70" />
<path stroke="#000000" stroke-width="2" d="M 408.8,20 409,20 409,20.2 408.8,20.2 408.8,20" />
<path stroke="#000000" stroke-width="2" d="M 439,70" />
<path stroke="#000000" stroke-width="2" d="M 439,30 459,30 459.9,30 460.7,30.1 461.6,30.2 462.4,30.5 463.3,30.8 464.1,31.1 464.8,31.6 465.5,32.1 466.2,32.6 466.8,33.2 467.4,33.9 467.9,34.6 468.3,35.4 468.7,36.2 469,37 469.2,37.8 469.4,38.7 469.4,39.6 469.4,40.4 469.4,41.3 469.2,42.2 469,43 468.7,43.8 468.3,44.6 467.9,45.4 467.4,46.1 466.8,46.7 466.2,47.4 465.5,47.9 464.8,48.4 464.1,48.9 463.3,49.2 462.4,49.5 461.6,49.8 460.7,49.9 459.9,50" />
<path stroke="#000000" stroke-width="2" d="M 499.4,70" />
<path stroke="#000000" stroke-width="2" d="M 499.4,30 499.4,38 499.4,39 499.5,40.1 499.7,41.1 500,42.1 500.3,43.1 500.8,44.1 501.3,45 501.9,45.8 502.6,46.6 503.3,47.4 504.1,48 505,48.6 505.9,49.2 506.8,49.6 507.8,50 508.8,50.2 509.9,50.4 510.9,50.5 511.9,50.5 513,50.4 514,50.2 515,50 516,49.6 517,49.2 517.9,48.6 518.7,48 519.5,47.4 520.3,46.6 520.9,45.8 521.5,45 522.1,44.1 522.5,43.1 522.9,42.1 523.1,41.1 523.3,40.1 523.4,39 523.4,29 523.4,69" />
<path stroke="#000000" stroke-width="2" d="M 530.1,70" />
<path stroke="#000000" stroke-width="2" d="M 530.1,70 537.7,51.5 545.4,70 537.7,88.5" />
<path stroke="#000000" stroke-width="2" d="M 552,70" />
<path stroke="#000000" stroke-width="2" d="M 554,40 559.4,27.1 559.5,26.7 559.6,26.4 559.7,26.1 559.8,25.7 559.8,25.4 559.8,25 559.7,24.7 559.6,24.3 559.5,24 559.4,23.7 559.2,23.4 559.1,23.1 558.8,22.8 558.6,22.5 558.4,22.3 558.1,22.1 557.8,21.9 557.5,21.7 557.1,21.6 556.8,21.5 556.5,21.4 556.1,21.4 555.8,21.4 555.4,21.4 555.1,21.4 554.7,21.5 554.4,21.6 554.1,21.7 553.8,21.9 553.5,22.1 553.2,22.3 553,22.5 552.7,22.8 552.5,23.1 552.3,23.4 552.2,23.7 552,24 551.9,24.3 551.8,24.7 551.8,25 551.8,25.4 551.8,25.7 551.8,26.1 551.9,26.4 552,26.7 552.2,27.1 552.3,27.4 552.5,27.7 552.7,27.9 553,28.2 553.2,28.4 553.5,28.7 553.8,28.8 554.1,29 554.4,29.1 554.7,29.2 555.1,29.3 555.4,29.4 555.8,29.4 556.1,29.4 569.1,24" />
<path stroke="#000000" stroke-width="2" d="M 599.1,70" />
<path stroke="#000000" stroke-width="2" d="M 599.1,70 599.3,70 599.3,70.2 599.1,70.2 599.1,70" />
<path stroke="#000000" stroke-width="2" d="M 629.3,70" />
</svg>