<svg xmlns="http://www.w3.org/2000/svg" width="1075.2341306453363" height="90.00000000000001" style="fill:none; stroke-linecap:round;">
    <rect width="100%" height="100%" fill="#FFFFFF" />
<path stroke="#000000" stroke-width="2" d="M 550,75" />
<path stroke="#000000" stroke-width="2" d="M 20,30 20,70 31.3,58.7" />
<path stroke="#000000" stroke-width="2" d="M 38,70" />
<path stroke="#000000" stroke-width="2" d="M 38,20 58,20" />
<path stroke="#000000" stroke-width="2" d="M 88,70" />
<path stroke="#000000" stroke-width="2" d="M 108,70 109.7,70 111.5,69.8 113.2,69.5 114.9,69.1 116.5,68.5 118.1,67.8 119.6,66.9 121,65.9 122.4,64.8 123.6,63.5 124.7,62.2 125.7,60.8 126.6,59.3 127.3,57.7 127.9,56 128.4,54.3 128.7,52.6 128.8,50.9 128.8,49.1 128.7,47.4 128.4,45.7 127.9,44 127.3,42.4 126.6,40.8 125.7,39.3 124.7,37.8 123.6,36.5 122.4,35.3 121,34.2 119.6,33.2 118.1,32.3 116.5,31.5 114.9,30.9 113.2,30.5 111.5,30.2 109.7,30 108,30 106.2,30.2 104.5,30.5 102.8,30.9 101.2,31.5 99.6,32.3 98.1,33.2 96.7,34.2 95.3,35.3 94.1,36.5 93,37.8 92,39.3 91.1,40.8 90.4,42.4 89.8,44 89.3,45.7 89,47.4 88.9,49.1 88.9,50.9 89,52.6 89.3,54.3 89.8,56 90.4,57.7 91.1,59.3 92,60.8 93,62.2 94.1,63.5 95.3,64.8 96.7,65.9 98.1,66.9 99.6,67.8 101.2,68.5 102.8,69.1 104.5,69.5 106.2,69.8 108,70" />
<path stroke="#000000" stroke-width="2" d="M 135.5,70" />
<path stroke="#000000" stroke-width="2" d="M 137.5,20 146,28.5" />
<path stroke="#000000" stroke-width="2" d="M 154.5,20 134.7,39.8" />
<path stroke="#000000" stroke-width="2" d="M 134.7,39.8 136.1,39.9 137.4,40.4 138.5,41 139.5,41.9 140.3,42.9 141,44.1 141.5,45.4 141.9,46.8 142.1,48.3 142.2,49.8 142.1,51.3 141.9,52.8 141.5,54.2 141,55.5 140.3,56.7 139.5,57.7 138.5,58.6 137.4,59.2 136.1,59.7 134.7,59.8" />
<path stroke="#000000" stroke-width="2" d="M 184.5,70" />
<path stroke="#000000" stroke-width="2" d="M 184.5,35" />
<path stroke="#000000" stroke-width="2" d="M 184.5,35 186.5,34.9 188.1,34.6 189.3,34.1 190.2,33.6 190.8,32.9 191.1,32.2 191.1,31.4 191,30.7 190.6,30 190.1,29.4 189.5,28.9 188.8,28.5 188.1,28.3 187.3,28.4 186.6,28.7 185.9,29.2 185.3,30.1 184.9,31.4 184.6,33 184.5,35 184.5,50 176.8,68.5" />
<path stroke="#000000" stroke-width="2" d="M 197.8,70" />
<path stroke="#000000" stroke-width="2" d="M 205.8,50" />
<path stroke="#000000" stroke-width="2" d="M 205.8,50 205.7,52 205.4,53.6 204.9,54.9 204.4,55.8 203.7,56.3 203,56.6 202.2,56.7 201.5,56.5 200.8,56.1 200.2,55.6 199.7,55 199.3,54.3 199.1,53.6 199.2,52.8 199.5,52.1 200,51.4 200.9,50.9 202.1,50.4 203.8,50.1 205.8,50 215.8,50" />
<path stroke="#000000" stroke-width="2" d="M 215.8,50 217.2,50.1 218.5,50.6 219.6,51.2 220.6,52.1 221.4,53.1 222.1,54.3 222.6,55.6 223,57 223.2,58.5 223.3,60 223.2,61.5 223,63 222.6,64.4 222.1,65.7 221.4,66.9 220.6,67.9 219.6,68.8 218.5,69.4 217.2,69.9 215.8,70" />
<path stroke="#000000" stroke-width="2" d="M 253.3,70" />
<path stroke="#000000" stroke-width="2" d="M 273.3,30 258,67" />
<path stroke="#000000" stroke-width="2" d="M 280,70" />
<path stroke="#000000" stroke-width="2" d="M 280,50 280,70 280,64 280,63.1 280,62.3 280.2,61.4 280.4,60.6 280.7,59.7 281.1,58.9 281.5,58.2 282,57.5 282.6,56.8 283.2,56.2 283.9,55.6 284.6,55.1 285.3,54.7 286.1,54.3 286.9,54 287.8,53.8 288.6,53.6 289.5,53.6" />
<path stroke="#000000" stroke-width="2" d="M 296.2,70" />
<path stroke="#000000" stroke-width="2" d="M 296.2,25" />
<path stroke="#000000" stroke-width="2" d="M 296.2,25 298.2,24.9 299.8,24.6 301.1,24.1 301.9,23.6 302.5,22.9 302.8,22.2 302.8,21.4 302.7,20.7 302.3,20 301.8,19.4 301.2,18.9 300.5,18.5 299.8,18.3 299,18.4 298.3,18.7 297.6,19.2 297,20.1 296.6,21.4 296.3,23 296.2,25 296.2,40 288.5,58.5" />
<path stroke="#000000" stroke-width="2" d="M 332.8,70" />
<path stroke="#000000" stroke-width="2" d="M 332.8,30 352.8,30" />
<path stroke="#000000" stroke-width="2" d="M 352.8,30 354.3,30.1 355.5,30.6 356.7,31.2 357.6,32.1 358.5,33.1 359.1,34.3 359.7,35.6 360,37 360.3,38.5 360.3,40 360.3,41.5 360,43 359.7,44.4 359.1,45.7 358.5,46.9 357.6,47.9 356.7,48.8 355.5,49.4 354.3,49.9 352.8,50" />
<path stroke="#000000" stroke-width="2" d="M 390.3,70" />
<path stroke="#000000" stroke-width="2" d="M 390.3,30 430.3,30" />
<path stroke="#000000" stroke-width="2" d="M 437,70" />
<path stroke="#000000" stroke-width="2" d="M 437,50 437,70 442.7,64.3" />
<path stroke="#000000" stroke-width="2" d="M 472.7,70" />
<path stroke="#000000" stroke-width="2" d="M 472.7,30 472.7,31.4 472.8,32.8 473,34.2 473.4,35.5 473.9,36.8 474.5,38.1 475.1,39.3 475.9,40.4 476.8,41.5 477.8,42.5 478.9,43.4 480,44.2 481.3,44.9 482.5,45.5 483.8,46 485.2,46.3 486.6,46.6 487.9,46.7 489.3,46.7 490.7,46.6 492.1,46.3 493.5,46 494.8,45.5 496,44.9 497.2,44.2 498.4,43.4 499.5,42.5 500.4,41.5 501.3,40.4 502.1,39.3 502.8,38.1 503.4,36.8 503.9,35.5 504.3,34.2 504.5,32.8 504.6,31.4" />
<path stroke="#000000" stroke-width="2" d="M 511.3,70" />
<path stroke="#000000" stroke-width="2" d="M 511.3,30 511.5,30 511.5,30.2 511.3,30.2 511.3,30" />
<path stroke="#000000" stroke-width="2" d="M 541.5,70" />
<path stroke="#000000" stroke-width="2" d="M 541.5,30 541.5,70 552.8,58.7" />
<path stroke="#000000" stroke-width="2" d="M 559.5,70" />
<path stroke="#000000" stroke-width="2" d="M 579.5,70 581.2,70 583,69.8 584.7,69.5 586.4,69.1 588,68.5 589.6,67.8 591.1,66.9 592.5,65.9 593.9,64.8 595.1,63.5 596.2,62.2 597.2,60.8 598.1,59.3 598.8,57.7 599.4,56 599.9,54.3 600.2,52.6 600.3,50.9 600.3,49.1 600.2,47.4 599.9,45.7 599.4,44 598.8,42.4 598.1,40.8 597.2,39.3 596.2,37.8 595.1,36.5 593.9,35.3 592.5,34.2 591.1,33.2 589.6,32.3 588,31.5 586.4,30.9 584.7,30.5 583,30.2 581.2,30 579.5,30 577.7,30.2 576,30.5 574.3,30.9 572.7,31.5 571.1,32.3 569.6,33.2 568.2,34.2 566.8,35.3 565.6,36.5 564.5,37.8 563.5,39.3 562.6,40.8 561.9,42.4 561.3,44 560.8,45.7 560.5,47.4 560.4,49.1 560.4,50.9 560.5,52.6 560.8,54.3 561.3,56 561.9,57.7 562.6,59.3 563.5,60.8 564.5,62.2 565.6,63.5 566.8,64.8 568.2,65.9 569.6,66.9 571.1,67.8 572.7,68.5 574.3,69.1 576,69.5 577.7,69.8 579.5,70" />
<path stroke="#000000" stroke-width="2" d="M 630.3,70" />
<path stroke="#000000" stroke-width="2" d="M 646.3,30 626.5,49.8 646.3,69.6" />
<path stroke="#000000" stroke-width="2" d="M 653,70" />
<path stroke="#000000" stroke-width="2" d="M 653,20 653,40 653,34 653,33.1 653.1,32.3 653.2,31.4 653.4,30.6 653.7,29.7 654.1,28.9 654.6,28.2 655.1,27.5 655.6,26.8 656.2,26.2 656.9,25.6 657.6,25.1 658.4,24.7 659.2,24.3 660,24 660.8,23.8 661.7,23.6 662.5,23.6" />
<path stroke="#000000" stroke-width="2" d="M 692.5,70" />
<path stroke="#000000" stroke-width="2" d="M 708.5,30 688.7,49.8 708.5,69.6" />
<path stroke="#000000" stroke-width="2" d="M 715.2,70" />
<path stroke="#000000" stroke-width="2" d="M 715.2,20" />
<path stroke="#000000" stroke-width="2" d="M 715.2,20 716.6,20.1 717.9,20.6 719,21.2 720,22.1 720.8,23.1 721.5,24.3 722,25.6 722.4,27 722.6,28.5 722.7,30 722.6,31.5 722.4,33 722,34.4 721.5,35.7 720.8,36.9 720,37.9 719,38.8 717.9,39.4 716.6,39.9 715.2,40" />
<path stroke="#000000" stroke-width="2" d="M 752.7,70" />
<path stroke="#000000" stroke-width="2" d="M 752.7,30 772.7,30" />
<path stroke="#000000" stroke-width="2" d="M 772.7,30 774.1,30.1 775.4,30.6 776.5,31.2 777.5,32.1 778.3,33.1 779,34.3 779.5,35.6 779.9,37 780.1,38.5 780.2,40 780.1,41.5 779.9,43 779.5,44.4 779,45.7 778.3,46.9 777.5,47.9 776.5,48.8 775.4,49.4 774.1,49.9 772.7,50" />
<path stroke="#000000" stroke-width="2" d="M 810.2,70" />
<path stroke="#000000" stroke-width="2" d="M 815.2,30" />
<path stroke="#000000" stroke-width="2" d="M 815.2,30 813.8,30.1 812.5,30.6 811.4,31.2 810.4,32.1 809.6,33.1 808.9,34.3 808.4,35.6 808,37 807.8,38.5 807.7,40 807.8,41.5 808,43 808.4,44.4 808.9,45.7 809.6,46.9 810.4,47.9 811.4,48.8 812.5,49.4 813.8,49.9 815.2,50 835.2,50" />
<path stroke="#000000" stroke-width="2" d="M 865.2,70" />
<path stroke="#000000" stroke-width="2" d="M 865.2,30 875.2,30 875.2,70" />
<path stroke="#000000" stroke-width="2" d="M 881.9,70" />
<path stroke="#000000" stroke-width="2" d="M 881.9,50 881.9,70 881.9,64 881.9,63.1 882,62.3 882.1,61.4 882.3,60.6 882.6,59.7 883,58.9 883.4,58.2 883.9,57.5 884.5,56.8 885.1,56.2 885.8,55.6 886.5,55.1 887.3,54.7 888,54.3 888.9,54 889.7,53.8 890.6,53.6 891.4,53.6 891.4,54.3 891.5,55 891.6,55.7 891.8,56.3 892,57 892.3,57.6 892.7,58.2 893.1,58.8 893.5,59.3 894,59.8 894.6,60.3 895.1,60.7 895.7,61 896.4,61.3 897,61.6 897.7,61.7 898.4,61.9 899.1,61.9 899.8,61.9 900.5,61.9 901.2,61.7 901.8,61.6 902.5,61.3 903.1,61 903.7,60.7 904.3,60.3 904.8,59.8 905.3,59.3 905.8,58.8 906.2,58.2 906.5,57.6 906.8,57 907.1,56.3 907.2,55.7 907.4,55 907.4,54.3" />
<path stroke="#000000" stroke-width="2" d="M 914.1,70" />
<path stroke="#000000" stroke-width="2" d="M 914.1,20 914.1,24 914.1,24.5 914.1,25 914.2,25.6 914.4,26.1 914.5,26.6 914.8,27 915,27.5 915.3,27.9 915.7,28.3 916,28.7 916.4,29 916.9,29.3 917.3,29.6 917.8,29.8 918.3,30 918.8,30.1 919.3,30.2 919.8,30.3 920.3,30.3 920.9,30.2 921.4,30.1 921.9,30 922.4,29.8 922.9,29.6 923.3,29.3 923.7,29 924.1,28.7 924.5,28.3 924.8,27.9 925.1,27.5 925.4,27 925.6,26.6 925.8,26.1 925.9,25.6 926,25 926.1,24.5 926.1,19.5 926.1,39.5" />
<path stroke="#000000" stroke-width="2" d="M 956.1,70" />
<path stroke="#000000" stroke-width="2" d="M 956.1,50 963.7,31.5 971.4,50 966.4,50 966.4,70 966.4,69.1 966.5,68.3 966.6,67.4 966.8,66.6 967.1,65.7 967.5,64.9 967.9,64.2 968.4,63.5 969,62.8 969.6,62.2 970.3,61.6 971,61.1 971.8,60.7 972.5,60.3 973.4,60 974.2,59.8 975.1,59.6 975.9,59.6" />
<path stroke="#000000" stroke-width="2" d="M 982.6,70" />
<path stroke="#000000" stroke-width="2" d="M 982.6,55" />
<path stroke="#000000" stroke-width="2" d="M 982.6,55 984.6,54.9 986.2,54.6 987.5,54.1 988.4,53.6 988.9,52.9 989.2,52.2 989.3,51.4 989.1,50.7 988.7,50 988.2,49.4 987.6,48.9 986.9,48.5 986.2,48.3 985.4,48.4 984.7,48.7 984,49.2 983.5,50.1 983,51.4 982.7,53 982.6,55 982.6,70" />
<path stroke="#000000" stroke-width="2" d="M 1019.3,70" />
<path stroke="#000000" stroke-width="2" d="M 1035.3,30 1015.5,49.8 1035.3,69.6" />
<path stroke="#000000" stroke-width="2" d="M 1041.9,70" />
<path stroke="#000000" stroke-width="2" d="M 1041.9,40" />
<path stroke="#000000" stroke-width="2" d="M 1041.9,40 1046,39.8 1049.2,39.2 1051.7,38.3 1053.4,37.1 1054.6,35.8 1055.2,34.3 1055.2,32.8 1054.9,31.4 1054.2,30 1053.2,28.7 1051.9,27.7 1050.6,27 1049.1,26.7 1047.6,26.8 1046.1,27.3 1044.8,28.5 1043.6,30.2 1042.7,32.7 1042.1,35.9 1041.9,40 1041.9,70" />
<path stroke="#000000" stroke-width="2" d="M 1085.2,70" />
</svg>