<svg xmlns="http://www.w3.org/2000/svg" width="1155.4421105358003" height="108.47759065022574" style="fill:none; stroke-linecap:round;">
    <rect width="100%" height="100%" fill="#FFFFFF" />
<path stroke="#000000" stroke-width="2" d="M 550,75" />
<path stroke="#000000" stroke-width="2" d="M 20,30 60,30" />
<path stroke="#000000" stroke-width="2" d="M 90,70" />
<path stroke="#000000" stroke-width="2" d="M 90,70 90.2,70 90.2,70.2 90,70.2 90,70" />
<path stroke="#000000" stroke-width="2" d="M 96.9,70" />
<path stroke="#000000" stroke-width="2" d="M 96.9,70 112.2,33 112.2,73" />
<path stroke="#000000" stroke-width="2" d="M 118.8,70" />
<path stroke="#000000" stroke-width="2" d="M 118.8,40" />
<path stroke="#000000" stroke-width="2" d="M 118.8,40 122.9,39.8 126.1,39.2 128.6,38.3 130.4,37.1 131.5,35.8 132.1,34.3 132.1,32.8 131.8,31.4 131.1,30 130.1,28.8 128.9,27.7 127.5,27 126,26.7 124.5,26.8 123.1,27.3 121.7,28.5 120.6,30.2 119.7,32.7 119.1,35.9 118.8,40 118.8,70" />
<path stroke="#000000" stroke-width="2" d="M 162.1,70" />
<path stroke="#000000" stroke-width="2" d="M 162.1,30 172.1,30 172.1,70" />
<path stroke="#000000" stroke-width="2" d="M 178.8,70" />
<path stroke="#000000" stroke-width="2" d="M 178.8,50 178.8,70 178.8,64 178.8,63.1 178.9,62.3 179,61.4 179.3,60.6 179.6,59.7 179.9,58.9 180.4,58.2 180.9,57.5 181.4,56.8 182.1,56.2 182.7,55.6 183.4,55.1 184.2,54.7 185,54.3 185.8,54 186.6,53.8 187.5,53.6 188.4,53.6" />
<path stroke="#000000" stroke-width="2" d="M 218.4,70" />
<path stroke="#000000" stroke-width="2" d="M 218.4,50 226,31.5 233.7,50 233.7,70 233.7,64 233.7,63.1 233.8,62.3 233.9,61.4 234.1,60.6 234.4,59.7 234.8,58.9 235.2,58.2 235.7,57.5 236.3,56.8 236.9,56.2 237.6,55.6 238.3,55.1 239.1,54.7 239.8,54.3 240.7,54 241.5,53.8 242.4,53.6 243.2,53.6" />
<path stroke="#000000" stroke-width="2" d="M 249.9,70" />
<path stroke="#000000" stroke-width="2" d="M 249.9,50" />
<path stroke="#000000" stroke-width="2" d="M 249.9,50 250,50 250.5,50 251.1,50 252,50.1 253,50.2 254.2,50.3 255.5,50.4 256.9,50.6 258.4,50.9 259.9,51.2 261.4,51.7 262.9,52.2 264.3,52.7 265.6,53.4 266.8,54.2 267.8,55.1 268.7,56.1 269.3,57.3 269.8,58.6 269.9,60" />
<path stroke="#000000" stroke-width="2" d="M 269.9,60 271.8,62.1 273.1,64.1 273.9,65.7 274.2,67.2 274.1,68.4 273.7,69.5 273,70.2 272.1,70.8 271,71.1 269.9,71.2 268.8,71.1 267.7,70.8 266.8,70.2 266.1,69.5 265.7,68.4 265.6,67.2 265.9,65.7 266.7,64 268,62.1 269.9,60" />
<path stroke="#000000" stroke-width="2" d="M 269.9,60 269.9,59.9 269.9,59.7 270,59.4 270.1,59 270.2,58.4 270.4,57.8 270.8,57.2 271.2,56.5 271.7,55.7 272.4,55 273.2,54.3 274.2,53.5 275.4,52.8 276.8,52.2 278.3,51.6 280.1,51 282.2,50.6 284.5,50.3 287,50.1 289.9,50 309.9,50" />
<path stroke="#000000" stroke-width="2" d="M 309.9,50 311.3,50.1 312.6,50.6 313.7,51.2 314.7,52.1 315.5,53.1 316.2,54.3 316.7,55.6 317.1,57 317.3,58.5 317.4,60 317.3,61.5 317.1,63 316.7,64.4 316.2,65.7 315.5,66.9 314.7,67.9 313.7,68.8 312.6,69.4 311.3,69.9 309.9,70" />
<path stroke="#000000" stroke-width="2" d="M 347.4,70" />
<path stroke="#000000" stroke-width="2" d="M 347.4,40 347.6,40 347.6,40.2 347.4,40.2 347.4,40" />
<path stroke="#000000" stroke-width="2" d="M 354.3,70" />
<path stroke="#000000" stroke-width="2" d="M 354.3,30 369.6,67" />
<path stroke="#000000" stroke-width="2" d="M 376.2,70" />
<path stroke="#000000" stroke-width="2" d="M 376.2,30 416.2,30" />
<path stroke="#000000" stroke-width="2" d="M 422.9,70" />
<path stroke="#000000" stroke-width="2" d="M 432.9,50 425.3,68.5" />
<path stroke="#000000" stroke-width="2" d="M 462.9,70" />
<path stroke="#000000" stroke-width="2" d="M 462.9,30 462.9,70 482.9,70" />
<path stroke="#000000" stroke-width="2" d="M 512.9,70" />
<path stroke="#000000" stroke-width="2" d="M 512.9,30 512.9,70" />
<path stroke="#000000" stroke-width="2" d="M 519.6,70" />
<path stroke="#000000" stroke-width="2" d="M 519.6,20 519.6,24 519.6,24.5 519.6,25 519.7,25.6 519.8,26.1 520,26.6 520.2,27 520.5,27.5 520.8,27.9 521.1,28.3 521.5,28.7 521.9,29 522.3,29.3 522.8,29.6 523.3,29.8 523.8,30 524.3,30.1 524.8,30.2 525.3,30.3 525.8,30.3 526.4,30.2 526.9,30.1 527.4,30 527.9,29.8 528.3,29.6 528.8,29.3 529.2,29 529.6,28.7 530,28.3 530.3,27.9 530.6,27.5 530.9,27 531.1,26.6 531.3,26.1 531.4,25.6 531.5,25 531.6,24.5 531.6,19.5 531.6,39.5" />
<path stroke="#000000" stroke-width="2" d="M 538.2,70" />
<path stroke="#000000" stroke-width="2" d="M 538.2,20 558.2,20" />
<path stroke="#000000" stroke-width="2" d="M 588.2,70" />
<path stroke="#000000" stroke-width="2" d="M 608.2,30 592.9,67" />
<path stroke="#000000" stroke-width="2" d="M 614.9,70" />
<path stroke="#000000" stroke-width="2" d="M 614.9,50" />
<path stroke="#000000" stroke-width="2" d="M 614.9,50 616.3,50.1 617.6,50.6 618.7,51.2 619.7,52.1 620.5,53.1 621.2,54.3 621.7,55.6 622.1,57 622.3,58.5 622.4,60 622.3,61.5 622.1,63 621.7,64.4 621.2,65.7 620.5,66.9 619.7,67.9 618.7,68.8 617.6,69.4 616.3,69.9 614.9,70 615.5,69.4 616.2,68.8 616.9,68.3 617.6,67.9 618.4,67.5 619.3,67.2 620.1,67 621,66.8 621.8,66.8 622.7,66.8 623.6,66.8 624.4,67 625.3,67.2 626.1,67.5 626.9,67.9" />
<path stroke="#000000" stroke-width="2" d="M 633.6,70" />
<path stroke="#000000" stroke-width="2" d="M 633.6,30 638.6,30 638.6,50 630.9,68.5" />
<path stroke="#000000" stroke-width="2" d="M 668.6,70" />
<path stroke="#000000" stroke-width="2" d="M 678.6,30 677.7,30 676.8,30.1 676,30.2 675.1,30.5 674.3,30.8 673.5,31.1 672.7,31.6 672,32.1 671.4,32.6 670.7,33.2 670.2,33.9 669.7,34.6 669.2,35.4 668.9,36.2 668.6,37 668.4,37.8 668.2,38.7 668.1,39.6 668.1,40.4 668.2,41.3 668.4,42.2 668.6,43 668.9,43.8 669.2,44.6 669.7,45.4 670.2,46.1 670.7,46.7 671.4,47.4 672,47.9 672.7,48.4 673.5,48.9 674.3,49.2 675.1,49.5 676,49.8 676.8,49.9 677.7,50 682.7,50 682.7,70" />
<path stroke="#000000" stroke-width="2" d="M 712.7,70" />
<path stroke="#000000" stroke-width="2" d="M 712.7,30 732.7,30" />
<path stroke="#000000" stroke-width="2" d="M 732.7,30 734.1,30.1 735.4,30.6 736.5,31.2 737.5,32.1 738.3,33.1 739,34.3 739.5,35.6 739.9,37 740.1,38.5 740.2,40 740.1,41.5 739.9,43 739.5,44.4 739,45.7 738.3,46.9 737.5,47.9 736.5,48.8 735.4,49.4 734.1,49.9 732.7,50" />
<path stroke="#000000" stroke-width="2" d="M 770.2,70" />
<path stroke="#000000" stroke-width="2" d="M 770.2,30 770.2,31.4 770.3,32.8 770.5,34.2 770.9,35.5 771.4,36.8 772,38.1 772.7,39.3 773.5,40.4 774.4,41.5 775.4,42.5 776.4,43.4 777.6,44.2 778.8,44.9 780,45.5 781.4,46 782.7,46.3 784.1,46.6 785.5,46.7 786.9,46.7 788.3,46.6 789.6,46.3 791,46 792.3,45.5 793.6,44.9 794.8,44.2 795.9,43.4 797,42.5 798,41.5 798.9,40.4 799.7,39.3 800.4,38.1 800.9,36.8 801.4,35.5 801.8,34.2 802,32.8 802.1,31.4" />
<path stroke="#000000" stroke-width="2" d="M 808.8,70" />
<path stroke="#000000" stroke-width="2" d="M 808.8,55" />
<path stroke="#000000" stroke-width="2" d="M 808.8,55 810.8,54.9 812.5,54.6 813.7,54.1 814.6,53.6 815.1,52.9 815.4,52.2 815.5,51.4 815.3,50.7 814.9,50 814.4,49.4 813.8,48.9 813.1,48.5 812.4,48.3 811.7,48.4 810.9,48.7 810.3,49.2 809.7,50.1 809.2,51.4 808.9,53 808.8,55 808.8,70 801.2,88.5" />
<path stroke="#000000" stroke-width="2" d="M 845.5,70" />
<path stroke="#000000" stroke-width="2" d="M 845.5,50 845.5,49.3 845.5,48.6 845.7,47.9 845.8,47.2 846.1,46.6 846.4,46 846.7,45.4 847.1,44.8 847.6,44.2 848.1,43.8 848.6,43.3 849.2,42.9 849.8,42.6 850.4,42.3 851.1,42 851.7,41.8 852.4,41.7 853.1,41.7 853.8,41.7 854.5,41.7 855.2,41.8 855.9,42 856.5,42.3 857.2,42.6 857.8,42.9 858.3,43.3 858.9,43.8 859.4,44.2 859.8,44.8 860.2,45.4 860.6,46 860.9,46.6 861.1,47.2 861.3,47.9 861.4,48.6 861.5,49.3" />
<path stroke="#000000" stroke-width="2" d="M 861.5,45.3" />
<path stroke="#000000" stroke-width="2" d="M 855.5,45.3 865.5,45.3 865.5,60.3" />
<path stroke="#000000" stroke-width="2" d="M 865.5,60.3 865.3,62.3 865,63.9 864.6,65.2 864,66.1 863.3,66.6 862.6,66.9 861.9,67 861.1,66.8 860.4,66.4 859.8,65.9 859.3,65.3 859,64.6 858.8,63.9 858.8,63.1 859.1,62.4 859.7,61.7 860.6,61.2 861.8,60.7 863.4,60.4 865.5,60.3" />
<path stroke="#000000" stroke-width="2" d="M 872.1,70" />
<path stroke="#000000" stroke-width="2" d="M 872.1,25" />
<path stroke="#000000" stroke-width="2" d="M 872.1,25 874.2,24.9 875.8,24.6 877,24.1 877.9,23.6 878.4,22.9 878.7,22.2 878.8,21.4 878.6,20.7 878.2,20 877.7,19.4 877.1,18.9 876.4,18.5 875.7,18.3 875,18.4 874.2,18.7 873.6,19.2 873,20.1 872.5,21.4 872.2,23 872.1,25 872.1,40 892.1,40 886.5,45.7 887,45.7 887.5,45.7 888,45.8 888.5,45.9 889,46.1 889.5,46.3 889.9,46.6 890.4,46.9 890.8,47.2 891.1,47.6 891.5,48 891.8,48.4 892,48.9 892.3,49.4 892.4,49.8 892.6,50.4 892.7,50.9 892.7,51.4 892.7,51.9 892.7,52.4 892.6,52.9 892.4,53.5 892.3,53.9 892,54.4 891.8,54.9 891.5,55.3 891.1,55.7 890.8,56.1 890.4,56.4 889.9,56.7 889.5,57 889,57.2 888.5,57.4 888,57.5 887.5,57.6 887,57.6" />
<path stroke="#000000" stroke-width="2" d="M 922.7,70" />
<path stroke="#000000" stroke-width="2" d="M 922.7,30 932.7,30 932.7,70" />
<path stroke="#000000" stroke-width="2" d="M 939.4,70" />
<path stroke="#000000" stroke-width="2" d="M 939.4,50 939.4,70 939.4,64 939.4,63.1 939.5,62.3 939.6,61.4 939.8,60.6 940.1,59.7 940.5,58.9 940.9,58.2 941.4,57.5 942,56.8 942.6,56.2 943.3,55.6 944,55.1 944.8,54.7 945.6,54.3 946.4,54 947.2,53.8 948.1,53.6 948.9,53.6" />
<path stroke="#000000" stroke-width="2" d="M 978.9,70" />
<path stroke="#000000" stroke-width="2" d="M 978.9,70 979.1,70 979.1,70.2 978.9,70.2 978.9,70" />
<path stroke="#000000" stroke-width="2" d="M 985.8,70" />
<path stroke="#000000" stroke-width="2" d="M 985.8,40" />
<path stroke="#000000" stroke-width="2" d="M 985.8,40 989.9,39.8 993.1,39.2 995.6,38.3 997.3,37.1 998.5,35.8 999,34.3 999.1,32.8 998.8,31.4 998.1,30 997.1,28.8 995.8,27.7 994.4,27 993,26.7 991.5,26.8 990,27.3 988.7,28.5 987.5,30.2 986.6,32.7 986,35.9 985.8,40 985.8,70" />
<path stroke="#000000" stroke-width="2" d="M 1005.8,70" />
<path stroke="#000000" stroke-width="2" d="M 1005.8,40 1005.8,39.3 1005.8,38.6 1006,37.9 1006.1,37.2 1006.4,36.6 1006.7,36 1007,35.4 1007.4,34.8 1007.9,34.2 1008.4,33.8 1008.9,33.3 1009.5,32.9 1010.1,32.6 1010.7,32.3 1011.4,32 1012,31.8 1012.7,31.7 1013.4,31.7 1014.1,31.7 1014.8,31.7 1015.5,31.8 1016.2,32 1016.8,32.3 1017.5,32.6 1018.1,32.9 1018.6,33.3 1019.2,33.8 1019.7,34.2 1020.1,34.8 1020.5,35.4 1020.9,36 1021.2,36.6 1021.4,37.2 1021.6,37.9 1021.7,38.6 1021.8,39.3" />
<path stroke="#000000" stroke-width="2" d="M 1021.8,35.3" />
<path stroke="#000000" stroke-width="2" d="M 1015.8,35.3 1025.8,35.3" />
<path stroke="#000000" stroke-width="2" d="M 1025.8,35.3 1027.2,35.4 1028.5,35.9 1029.6,36.5 1030.6,37.4 1031.4,38.4 1032.1,39.6 1032.6,40.9 1033,42.3 1033.2,43.8 1033.3,45.3 1033.2,46.8 1033,48.3 1032.6,49.7 1032.1,51 1031.4,52.2 1030.6,53.2 1029.6,54.1 1028.5,54.7 1027.2,55.2 1025.8,55.3" />
<path stroke="#000000" stroke-width="2" d="M 1063.3,70" />
<path stroke="#000000" stroke-width="2" d="M 1083.3,30 1068,67" />
<path stroke="#000000" stroke-width="2" d="M 1089.9,70" />
<path stroke="#000000" stroke-width="2" d="M 1089.9,30 1105.2,67" />
<path stroke="#000000" stroke-width="2" d="M 1135.2,70" />
<path stroke="#000000" stroke-width="2" d="M 1135.2,70 1135.4,70 1135.4,70.2 1135.2,70.2 1135.2,70" />
<path stroke="#000000" stroke-width="2" d="M 1165.4,70" />
</svg>