<svg xmlns="http://www.w3.org/2000/svg" width="173.48770833333333" height="70.0" style="fill:none; stroke-linecap:round;">
    <rect width="100%" height="100%" fill="#FFFFFF" />
<path stroke="#000000" stroke-width="2" d="M 550,75" />
<path stroke="#000000" stroke-width="2" d="M 20,30 40,30" />
<path stroke="#000000" stroke-width="2" d="M 40,30 41.4,30.1 42.7,30.6 43.8,31.2 44.8,32.1 45.6,33.1 46.3,34.3 46.8,35.6 47.2,37 47.4,38.5 47.5,40 47.4,41.5 47.2,43 46.8,44.4 46.3,45.7 45.6,46.9 44.8,47.9 43.8,48.8 42.7,49.4 41.4,49.9 40,50" />
<path stroke="#000000" stroke-width="2" d="M 77.5,70" />
<path stroke="#000000" stroke-width="2" d="M 93.5,30" />
<path stroke="#000000" stroke-width="2" d="M 93.5,30 93.3,34.1 92.7,37.3 91.8,39.8 90.6,41.5 89.3,42.7 87.8,43.2 86.3,43.3 84.9,43 83.5,42.3 82.2,41.2 81.2,40 80.5,38.6 80.2,37.2 80.3,35.7 80.8,34.2 82,32.9 83.7,31.7 86.2,30.8 89.4,30.2 93.5,30 113.5,30" />
<path stroke="#000000" stroke-width="2" d="M 120.2,70" />
<path stroke="#000000" stroke-width="2" d="M 120.2,50 140.2,50" />
<path stroke="#000000" stroke-width="2" d="M 146.8,70" />
<path stroke="#000000" stroke-width="2" d="M 146.8,25" />
<path stroke="#000000" stroke-width="2" d="M 146.8,25 148.9,24.9 150.5,24.6 151.7,24.1 152.6,23.6 153.2,22.9 153.4,22.2 153.5,21.4 153.3,20.7 153,20 152.5,19.4 151.8,18.9 151.2,18.5 150.4,18.3 149.7,18.4 148.9,18.7 148.3,19.2 147.7,20.1 147.2,21.4 146.9,23 146.8,25 146.8,40" />
<path stroke="#000000" stroke-width="2" d="M 183.5,70" />
</svg>