<svg xmlns="http://www.w3.org/2000/svg" width="697.984683593674" height="107.48001488736067" style="fill:none; stroke-linecap:round;">
    <rect width="100%" height="100%" fill="#FFFFFF" />
<path stroke="#000000" stroke-width="2" d="M 550,75" />
<path stroke="#000000" stroke-width="2" d="M 20,30 20,70" />
<path stroke="#000000" stroke-width="2" d="M 26.7,70" />
<path stroke="#000000" stroke-width="2" d="M 28.7,40 34,27.1 34.2,26.7 34.3,26.4 34.3,26.1 34.4,25.7 34.4,25.4 34.4,25 34.3,24.7 34.3,24.3 34.2,24 34,23.7 33.9,23.4 33.7,23.1 33.5,22.8 33.2,22.5 33,22.3 32.7,22.1 32.4,21.9 32.1,21.7 31.8,21.6 31.4,21.5 31.1,21.4 30.7,21.4 30.4,21.4 30.1,21.4 29.7,21.4 29.4,21.5 29,21.6 28.7,21.7 28.4,21.9 28.1,22.1 27.8,22.3 27.6,22.5 27.3,22.8 27.1,23.1 26.9,23.4 26.8,23.7 26.6,24 26.5,24.3 26.5,24.7 26.4,25 26.4,25.4 26.4,25.7 26.5,26.1 26.5,26.4 26.6,26.7 26.8,27.1 26.9,27.4 27.1,27.7 27.3,27.9 27.6,28.2 27.8,28.4 28.1,28.7 28.4,28.8 28.7,29 29,29.1 29.4,29.2 29.7,29.3 30.1,29.4 30.4,29.4 30.7,29.4 43.7,24 63.7,24" />
<path stroke="#000000" stroke-width="2" d="M 93.7,70" />
<path stroke="#000000" stroke-width="2" d="M 93.7,30 109,67" />
<path stroke="#000000" stroke-width="2" d="M 115.7,70" />
<path stroke="#000000" stroke-width="2" d="M 115.7,20 115.7,40 125.7,40 145.7,40 138,58.5" />
<path stroke="#000000" stroke-width="2" d="M 152.3,70" />
<path stroke="#000000" stroke-width="2" d="M 152.3,20 152.3,40 162.3,40 182.3,40" />
<path stroke="#000000" stroke-width="2" d="M 189,70" />
<path stroke="#000000" stroke-width="2" d="M 189,20 189.9,20 190.7,20.1 191.6,20.2 192.4,20.5 193.3,20.8 194,21.1 194.8,21.6 195.5,22.1 196.2,22.6 196.8,23.2 197.4,23.9 197.9,24.6 198.3,25.4 198.7,26.2 199,27 199.2,27.8 199.3,28.7 199.4,29.6 199.4,30.4 199.3,31.3 199.2,32.2 199,33 198.7,33.8 198.3,34.6 197.9,35.4 197.4,36.1 196.8,36.7 196.2,37.4 195.5,37.9 194.8,38.4 194,38.9 193.3,39.2 192.4,39.5 191.6,39.8 190.7,39.9 189.9,40" />
<path stroke="#000000" stroke-width="2" d="M 229.4,70" />
<path stroke="#000000" stroke-width="2" d="M 229.4,30 229.4,50 239.4,50 259.4,50" />
<path stroke="#000000" stroke-width="2" d="M 289.4,70" />
<path stroke="#000000" stroke-width="2" d="M 291.4,50 296.8,37.1 296.9,36.7 297,36.4 297.1,36.1 297.1,35.7 297.1,35.4 297.1,35 297.1,34.7 297,34.3 296.9,34 296.8,33.7 296.6,33.4 296.4,33.1 296.2,32.8 296,32.5 295.7,32.3 295.4,32.1 295.1,31.9 294.8,31.7 294.5,31.6 294.2,31.5 293.8,31.4 293.5,31.4 293.1,31.4 292.8,31.4 292.5,31.4 292.1,31.5 291.8,31.6 291.5,31.7 291.1,31.9 290.9,32.1 290.6,32.3 290.3,32.5 290.1,32.8 289.9,33.1 289.7,33.4 289.5,33.7 289.4,34 289.3,34.3 289.2,34.7 289.2,35 289.1,35.4 289.2,35.7 289.2,36.1 289.3,36.4 289.4,36.7 289.5,37.1 289.7,37.4 289.9,37.7 290.1,37.9 290.3,38.2 290.6,38.4 290.9,38.7 291.1,38.8 291.5,39 291.8,39.1 292.1,39.2 292.5,39.3 292.8,39.4 293.1,39.4 293.5,39.4 306.4,34" />
<path stroke="#000000" stroke-width="2" d="M 306.4,34 304.4,33.9 302.8,33.6 301.6,33.1 300.7,32.6 300.1,31.9 299.8,31.2 299.8,30.4 300,29.7 300.3,29 300.8,28.4 301.4,27.9 302.1,27.5 302.8,27.3 303.6,27.4 304.3,27.7 305,28.2 305.6,29.1 306,30.4 306.3,32 306.4,34 306.4,49" />
<path stroke="#000000" stroke-width="2" d="M 313.1,70" />
<path stroke="#000000" stroke-width="2" d="M 315.1,70 320.5,57.1 320.6,56.7 320.7,56.4 320.8,56.1 320.8,55.7 320.8,55.4 320.8,55 320.8,54.7 320.7,54.3 320.6,54 320.5,53.7 320.3,53.4 320.1,53.1 319.9,52.8 319.7,52.5 319.4,52.3 319.1,52.1 318.8,51.9 318.5,51.7 318.2,51.6 317.9,51.5 317.5,51.4 317.2,51.4 316.8,51.4 316.5,51.4 316.1,51.4 315.8,51.5 315.5,51.6 315.1,51.7 314.8,51.9 314.5,52.1 314.3,52.3 314,52.5 313.8,52.8 313.6,53.1 313.4,53.4 313.2,53.7 313.1,54 313,54.3 312.9,54.7 312.8,55 312.8,55.4 312.8,55.7 312.9,56.1 313,56.4 313.1,56.7 313.2,57.1 313.4,57.4 313.6,57.7 313.8,57.9 314,58.2 314.3,58.4 314.5,58.7 314.8,58.8 315.1,59 315.5,59.1 315.8,59.2 316.1,59.3 316.5,59.4 316.8,59.4 317.2,59.4 330.1,54" />
<path stroke="#000000" stroke-width="2" d="M 330.1,54 332.1,53.9 333.8,53.6 335,53.1 335.9,52.6 336.4,51.9 336.7,51.2 336.8,50.4 336.6,49.7 336.2,49 335.7,48.4 335.1,47.9 334.4,47.5 333.7,47.3 332.9,47.4 332.2,47.7 331.6,48.2 331,49.1 330.5,50.4 330.2,52 330.1,54 330.1,69 322.5,87.5 324.8,81.9 325.1,81.1 325.5,80.4 326,79.6 326.5,78.9 327.1,78.3 327.7,77.7 328.4,77.2 329.2,76.7 329.9,76.3 330.7,76 331.6,75.7 332.4,75.5" />
<path stroke="#000000" stroke-width="2" d="M 343.4,70" />
<path stroke="#000000" stroke-width="2" d="M 343.4,40 351.1,21.5 358.7,40" />
<path stroke="#000000" stroke-width="2" d="M 388.7,70" />
<path stroke="#000000" stroke-width="2" d="M 388.7,30 398.7,30 398.7,70" />
<path stroke="#000000" stroke-width="2" d="M 405.4,70" />
<path stroke="#000000" stroke-width="2" d="M 405.4,50 405.4,70 405.4,64 405.4,63.1 405.5,62.3 405.6,61.4 405.9,60.6 406.2,59.7 406.5,58.9 407,58.2 407.5,57.5 408,56.8 408.6,56.2 409.3,55.6 410,55.1 410.8,54.7 411.6,54.3 412.4,54 413.2,53.8 414.1,53.6 415,53.6" />
<path stroke="#000000" stroke-width="2" d="M 445,70" />
<path stroke="#000000" stroke-width="2" d="M 445,30 445,38 445,39 445.1,40.1 445.2,41.1 445.5,42.1 445.9,43.1 446.3,44.1 446.8,45 447.4,45.8 448.1,46.6 448.8,47.4 449.6,48 450.5,48.6 451.4,49.2 452.4,49.6 453.3,50 454.4,50.2 455.4,50.4 456.4,50.5 457.5,50.5 458.5,50.4 459.5,50.2 460.6,50 461.5,49.6 462.5,49.2 463.4,48.6 464.3,48 465.1,47.4 465.8,46.6 466.5,45.8 467.1,45 467.6,44.1 468,43.1 468.4,42.1 468.7,41.1 468.8,40.1 468.9,39 468.9,29 468.9,69" />
<path stroke="#000000" stroke-width="2" d="M 475.6,70" />
<path stroke="#000000" stroke-width="2" d="M 475.6,20 495.6,20" />
<path stroke="#000000" stroke-width="2" d="M 502.3,70" />
<path stroke="#000000" stroke-width="2" d="M 502.3,20 502.3,40 502.3,34 502.3,33.1 502.3,32.3 502.5,31.4 502.7,30.6 503,29.7 503.4,28.9 503.8,28.2 504.3,27.5 504.9,26.8 505.5,26.2 506.2,25.6 506.9,25.1 507.6,24.7 508.4,24.3 509.3,24 510.1,23.8 511,23.6 511.8,23.6" />
<path stroke="#000000" stroke-width="2" d="M 518.5,70" />
<path stroke="#000000" stroke-width="2" d="M 528.5,20 520.8,38.5" />
<path stroke="#000000" stroke-width="2" d="M 535.2,70" />
<path stroke="#000000" stroke-width="2" d="M 545.2,30 544.3,30 543.4,30.1 542.6,30.2 541.7,30.5 540.9,30.8 540.1,31.1 539.4,31.6 538.6,32.1 538,32.6 537.4,33.2 536.8,33.9 536.3,34.6 535.9,35.4 535.5,36.2 535.2,37 535,37.8 534.8,38.7 534.7,39.6 534.7,40.4 534.8,41.3 535,42.2 535.2,43 535.5,43.8 535.9,44.6 536.3,45.4 536.8,46.1 537.4,46.7 538,47.4 538.6,47.9 539.4,48.4 540.1,48.9 540.9,49.2 541.7,49.5 542.6,49.8 543.4,49.9 544.3,50 564.3,50" />
<path stroke="#000000" stroke-width="2" d="M 564.3,50 566.3,49.9 567.9,49.6 569.2,49.1 570,48.5 570.6,47.9 570.9,47.1 570.9,46.4 570.8,45.7 570.4,45 569.9,44.4 569.3,43.9 568.6,43.5 567.9,43.3 567.1,43.4 566.4,43.7 565.7,44.2 565.1,45.1 564.7,46.3 564.4,48 564.3,50 564.3,65" />
<path stroke="#000000" stroke-width="2" d="M 600.9,70" />
<path stroke="#000000" stroke-width="2" d="M 600.9,40" />
<path stroke="#000000" stroke-width="2" d="M 600.9,40 605,39.8 608.2,39.2 610.7,38.3 612.5,37.1 613.6,35.8 614.2,34.3 614.3,32.8 613.9,31.4 613.2,30 612.2,28.8 611,27.7 609.6,27 608.1,26.7 606.6,26.8 605.2,27.3 603.8,28.5 602.7,30.2 601.8,32.7 601.2,35.9 600.9,40 600.9,70" />
<path stroke="#000000" stroke-width="2" d="M 620.9,70" />
<path stroke="#000000" stroke-width="2" d="M 620.9,30 640.9,30 635.9,30 635.9,50" />
<path stroke="#000000" stroke-width="2" d="M 647.6,70" />
<path stroke="#000000" stroke-width="2" d="M 647.6,20 647.8,20 647.8,20.2 647.6,20.2 647.6,20" />
<path stroke="#000000" stroke-width="2" d="M 677.8,70" />
<path stroke="#000000" stroke-width="2" d="M 677.8,70 678,70 678,70.2 677.8,70.2 677.8,70" />
<path stroke="#000000" stroke-width="2" d="M 708,70" />
</svg>