<svg xmlns="http://www.w3.org/2000/svg" width="1239.7077069246423" height="128.47759065022575" style="fill:none; stroke-linecap:round;">
    <rect width="100%" height="100%" fill="#FFFFFF" />
<path stroke="#000000" stroke-width="2" d="M 550,75" />
<path stroke="#000000" stroke-width="2" d="M 20,30 60,30" />
<path stroke="#000000" stroke-width="2" d="M 66.7,70" />
<path stroke="#000000" stroke-width="2" d="M 78.7,56" />
<path stroke="#000000" stroke-width="2" d="M 78.7,56 76.6,55.9 75,55.6 73.8,55.1 72.9,54.6 72.3,53.9 72.1,53.2 72,52.4 72.2,51.7 72.5,51 73,50.4 73.7,49.9 74.3,49.5 75.1,49.3 75.8,49.4 76.6,49.7 77.2,50.2 77.8,51.1 78.3,52.4 78.6,54 78.7,56 78.7,60" />
<path stroke="#000000" stroke-width="2" d="M 78.7,60 78.4,60.9 78,61.7 77.6,62.4 77.2,63.1 76.8,63.8 76.4,64.4 75.9,64.9 75.4,65.4 74.9,65.9 74.4,66.2 73.9,66.6 73.3,66.9 72.8,67.2 72.2,67.4 71.6,67.6 71.1,67.7 70.5,67.9 69.9,67.9 69.3,68 68.7,68" />
<path stroke="#000000" stroke-width="2" d="M 108.7,70" />
<path stroke="#000000" stroke-width="2" d="M 108.7,35" />
<path stroke="#000000" stroke-width="2" d="M 108.7,35 110.7,34.9 112.3,34.6 113.5,34.1 114.4,33.6 115,32.9 115.3,32.2 115.3,31.4 115.1,30.7 114.8,30 114.3,29.4 113.7,28.9 113,28.5 112.2,28.3 111.5,28.4 110.8,28.7 110.1,29.2 109.5,30.1 109.1,31.4 108.8,33 108.7,35 108.7,50" />
<path stroke="#000000" stroke-width="2" d="M 108.7,50 108.6,52 108.3,53.6 107.8,54.9 107.2,55.8 106.6,56.3 105.8,56.6 105.1,56.7 104.3,56.5 103.7,56.1 103,55.6 102.5,55 102.2,54.3 102,53.6 102.1,52.8 102.3,52.1 102.9,51.4 103.8,50.9 105,50.4 106.6,50.1 108.7,50 118.7,50" />
<path stroke="#000000" stroke-width="2" d="M 125.3,70" />
<path stroke="#000000" stroke-width="2" d="M 133.3,20 133.3,35" />
<path stroke="#000000" stroke-width="2" d="M 133.3,35 133.2,37 132.9,38.6 132.5,39.9 131.9,40.8 131.2,41.3 130.5,41.6 129.8,41.7 129,41.5 128.3,41.1 127.7,40.6 127.2,40 126.9,39.3 126.7,38.6 126.7,37.8 127,37.1 127.6,36.4 128.5,35.9 129.7,35.4 131.3,35.1 133.3,35" />
<path stroke="#000000" stroke-width="2" d="M 140,70" />
<path stroke="#000000" stroke-width="2" d="M 140,20 140,20.7 140.1,21.4 140.2,22.1 140.4,22.8 140.6,23.4 140.9,24 141.2,24.6 141.6,25.2 142.1,25.8 142.6,26.2 143.1,26.7 143.7,27.1 144.3,27.4 144.9,27.7 145.6,28 146.3,28.2 146.9,28.3 147.6,28.3 148.3,28.3 149,28.3 149.7,28.2 150.4,28 151.1,27.7 151.7,27.4 152.3,27.1 152.9,26.7 153.4,26.2 153.9,25.8 154.3,25.2 154.7,24.6 155.1,24 155.4,23.4 155.6,22.8 155.8,22.1 155.9,21.4 156,20.7" />
<path stroke="#000000" stroke-width="2" d="M 186,70" />
<path stroke="#000000" stroke-width="2" d="M 186,70" />
<path stroke="#000000" stroke-width="2" d="M 186,70 187.1,70 188.1,70.2 188.9,70.4 189.6,70.7 190.2,71 190.6,71.5 191,71.9 191.2,72.5 191.3,73.1 191.2,73.8 191.1,74.4 190.9,75.2 190.6,76 190.1,76.8 189.6,77.6 189.1,78.4 188.4,79.3 187.7,80.2 186.9,81.1 186,82" />
<path stroke="#000000" stroke-width="2" d="M 221.3,70" />
<path stroke="#000000" stroke-width="2" d="M 221.3,30 221.3,70 241.3,70" />
<path stroke="#000000" stroke-width="2" d="M 271.3,70" />
<path stroke="#000000" stroke-width="2" d="M 271.3,30 281.3,30 281.3,70" />
<path stroke="#000000" stroke-width="2" d="M 287.9,70" />
<path stroke="#000000" stroke-width="2" d="M 287.9,30 287.9,38 287.9,39 288,40.1 288.2,41.1 288.5,42.1 288.8,43.1 289.3,44.1 289.8,45 290.4,45.8 291.1,46.6 291.8,47.4 292.6,48 293.5,48.6 294.4,49.2 295.3,49.6 296.3,50 297.3,50.2 298.3,50.4 299.4,50.5 300.4,50.5 301.5,50.4 302.5,50.2 303.5,50 304.5,49.6 305.5,49.2 306.4,48.6 307.2,48 308,47.4 308.8,46.6 309.4,45.8 310,45 310.6,44.1 311,43.1 311.4,42.1 311.6,41.1 311.8,40.1 311.9,39 311.9,29 311.9,69" />
<path stroke="#000000" stroke-width="2" d="M 318.6,70" />
<path stroke="#000000" stroke-width="2" d="M 318.6,50 318.6,70 318.6,64 318.6,63.1 318.6,62.3 318.8,61.4 319,60.6 319.3,59.7 319.7,58.9 320.1,58.2 320.6,57.5 321.2,56.8 321.8,56.2 322.5,55.6 323.2,55.1 323.9,54.7 324.7,54.3 325.6,54 326.4,53.8 327.3,53.6 328.1,53.6" />
<path stroke="#000000" stroke-width="2" d="M 328.1,53.6 329.5,53.7 330.8,54.1 331.9,54.8 332.9,55.7 333.7,56.7 334.4,57.9 334.9,59.2 335.3,60.6 335.5,62.1 335.6,63.6 335.5,65.1 335.3,66.5 334.9,67.9 334.4,69.3 333.7,70.4 332.9,71.5 331.9,72.4 330.8,73 329.5,73.4 328.1,73.6" />
<path stroke="#000000" stroke-width="2" d="M 365.6,70" />
<path stroke="#000000" stroke-width="2" d="M 365.6,30 365.6,70 385.6,70" />
<path stroke="#000000" stroke-width="2" d="M 415.6,70" />
<path stroke="#000000" stroke-width="2" d="M 415.6,30 430.9,67" />
<path stroke="#000000" stroke-width="2" d="M 437.6,70" />
<path stroke="#000000" stroke-width="2" d="M 437.6,55" />
<path stroke="#000000" stroke-width="2" d="M 437.6,55 439.6,54.9 441.2,54.6 442.5,54.1 443.4,53.6 443.9,52.9 444.2,52.2 444.2,51.4 444.1,50.7 443.7,50 443.2,49.4 442.6,48.9 441.9,48.5 441.2,48.3 440.4,48.4 439.7,48.7 439,49.2 438.5,50.1 438,51.4 437.7,53 437.6,55 437.6,70 429.9,88.5" />
<path stroke="#000000" stroke-width="2" d="M 474.2,70" />
<path stroke="#000000" stroke-width="2" d="M 474.2,30 474.2,70" />
<path stroke="#000000" stroke-width="2" d="M 480.9,70" />
<path stroke="#000000" stroke-width="2" d="M 488.9,20 479,29.9 488.9,39.8" />
<path stroke="#000000" stroke-width="2" d="M 495.6,70" />
<path stroke="#000000" stroke-width="2" d="M 495.6,20 503.2,38.5 510.9,20" />
<path stroke="#000000" stroke-width="2" d="M 517.6,70" />
<path stroke="#000000" stroke-width="2" d="M 541.6,42" />
<path stroke="#000000" stroke-width="2" d="M 541.6,42 537.5,41.8 534.3,41.2 531.8,40.3 530,39.1 528.9,37.8 528.3,36.3 528.2,34.8 528.6,33.4 529.3,32 530.3,30.8 531.5,29.7 532.9,29 534.4,28.7 535.9,28.8 537.3,29.3 538.7,30.5 539.8,32.2 540.7,34.7 541.3,37.9 541.6,42 541.6,50" />
<path stroke="#000000" stroke-width="2" d="M 541.6,50 540.9,51.7 540.2,53.4 539.5,54.9 538.7,56.3 537.9,57.6 537,58.7 536.1,59.8 535.1,60.8 534.1,61.7 533.1,62.5 532,63.2 530.9,63.8 529.8,64.4 528.6,64.8 527.5,65.2 526.3,65.5 525.1,65.7 524,65.9 522.8,66 521.6,66" />
<path stroke="#000000" stroke-width="2" d="M 571.6,70" />
<path stroke="#000000" stroke-width="2" d="M 571.6,40 571.8,40 571.8,40.2 571.6,40.2 571.6,40" />
<path stroke="#000000" stroke-width="2" d="M 578.4,70" />
<path stroke="#000000" stroke-width="2" d="M 578.4,30 578.4,31.4 578.5,32.8 578.8,34.2 579.1,35.5 579.6,36.8 580.2,38.1 580.9,39.3 581.7,40.4 582.6,41.5 583.6,42.5 584.7,43.4 585.8,44.2 587,44.9 588.3,45.5 589.6,46 590.9,46.3 592.3,46.6 593.7,46.7 595.1,46.7 596.5,46.6 597.9,46.3 599.2,46 600.5,45.5 601.8,44.9 603,44.2 604.1,43.4 605.2,42.5 606.2,41.5 607.1,40.4 607.9,39.3 608.6,38.1 609.2,36.8 609.7,35.5 610,34.2 610.3,32.8 610.4,31.4" />
<path stroke="#000000" stroke-width="2" d="M 617.1,70" />
<path stroke="#000000" stroke-width="2" d="M 617.1,55" />
<path stroke="#000000" stroke-width="2" d="M 617.1,55 619.1,54.9 620.7,54.6 621.9,54.1 622.8,53.6 623.4,52.9 623.7,52.2 623.7,51.4 623.5,50.7 623.2,50 622.7,49.4 622.1,48.9 621.4,48.5 620.6,48.3 619.9,48.4 619.2,48.7 618.5,49.2 617.9,50.1 617.5,51.4 617.2,53 617.1,55 617.1,70" />
<path stroke="#000000" stroke-width="2" d="M 630.4,70" />
<path stroke="#000000" stroke-width="2" d="M 630.4,30" />
<path stroke="#000000" stroke-width="2" d="M 630.4,30 633.2,30.3 635.8,31.1 638,32.4 640,34.2 641.6,36.2 643,38.6 644,41.3 644.8,44.1 645.2,47 645.4,50 645.2,53 644.8,55.9 644,58.7 643,61.4 641.6,63.8 640,65.8 638,67.6 635.8,68.9 633.2,69.7 630.4,70" />
<path stroke="#000000" stroke-width="2" d="M 675.4,70" />
<path stroke="#000000" stroke-width="2" d="M 675.4,30" />
<path stroke="#000000" stroke-width="2" d="M 675.4,30 678.2,30.3 680.8,31.1 683,32.4 685,34.2 686.6,36.2 688,38.6 689,41.3 689.8,44.1 690.2,47 690.4,50 690.2,53 689.8,55.9 689,58.7 688,61.4 686.6,63.8 685,65.8 683,67.6 680.8,68.9 678.2,69.7 675.4,70 676.6,68.8 678,67.6 679.4,66.6 680.9,65.8 682.5,65 684.1,64.4 685.8,64 687.5,63.7 689.3,63.5 691,63.5 692.7,63.7 694.5,64 696.1,64.4 697.8,65 699.4,65.8" />
<path stroke="#000000" stroke-width="2" d="M 706,70" />
<path stroke="#000000" stroke-width="2" d="M 706,20 713.7,38.5" />
<path stroke="#000000" stroke-width="2" d="M 743.7,70" />
<path stroke="#000000" stroke-width="2" d="M 743.7,30 743.7,70 755,58.7" />
<path stroke="#000000" stroke-width="2" d="M 761.7,70" />
<path stroke="#000000" stroke-width="2" d="M 781.7,70 783.4,70 785.1,69.8 786.9,69.5 788.5,69.1 790.2,68.5 791.8,67.8 793.3,66.9 794.7,65.9 796,64.8 797.3,63.5 798.4,62.2 799.4,60.8 800.3,59.3 801,57.7 801.6,56 802.1,54.3 802.4,52.6 802.5,50.9 802.5,49.1 802.4,47.4 802.1,45.7 801.6,44 801,42.4 800.3,40.8 799.4,39.3 798.4,37.8 797.3,36.5 796,35.3 794.7,34.2 793.3,33.2 791.8,32.3 790.2,31.5 788.5,30.9 786.9,30.5 785.1,30.2 783.4,30 781.7,30 779.9,30.2 778.2,30.5 776.5,30.9 774.9,31.5 773.3,32.3 771.8,33.2 770.4,34.2 769,35.3 767.8,36.5 766.7,37.8 765.7,39.3 764.8,40.8 764.1,42.4 763.5,44 763,45.7 762.7,47.4 762.6,49.1 762.6,50.9 762.7,52.6 763,54.3 763.5,56 764.1,57.7 764.8,59.3 765.7,60.8 766.7,62.2 767.8,63.5 769,64.8 770.4,65.9 771.8,66.9 773.3,67.8 774.9,68.5 776.5,69.1 778.2,69.5 779.9,69.8 781.7,70" />
<path stroke="#000000" stroke-width="2" d="M 832.5,70" />
<path stroke="#000000" stroke-width="2" d="M 832.5,30 872.5,30" />
<path stroke="#000000" stroke-width="2" d="M 879.2,70" />
<path stroke="#000000" stroke-width="2" d="M 879.2,70 886.8,51.5 894.5,70 889.5,70 889.5,90 881.8,108.5" />
<path stroke="#000000" stroke-width="2" d="M 901.2,70" />
<path stroke="#000000" stroke-width="2" d="M 901.2,70 908.8,51.5 908.8,52.2 908.9,52.9 909,53.6 909.2,54.3 909.4,54.9 909.7,55.6 910.1,56.2 910.5,56.7 910.9,57.3 911.4,57.8 911.9,58.2 912.5,58.6 913.1,59 913.7,59.3 914.4,59.5 915.1,59.7 915.8,59.8 916.5,59.9 917.2,59.9 917.8,59.8 918.5,59.7 919.2,59.5 919.9,59.3 920.5,59 921.1,58.6 921.7,58.2 922.2,57.8 922.7,57.3 923.1,56.7 923.5,56.2 923.9,55.6 924.2,54.9 924.4,54.3 924.6,53.6 924.7,52.9 924.8,52.2" />
<path stroke="#000000" stroke-width="2" d="M 954.8,70" />
<path stroke="#000000" stroke-width="2" d="M 954.8,30" />
<path stroke="#000000" stroke-width="2" d="M 954.8,30 957.6,30.3 960.2,31.1 962.4,32.4 964.4,34.2 966,36.2 967.4,38.6 968.4,41.3 969.2,44.1 969.6,47 969.8,50 969.6,53 969.2,55.9 968.4,58.7 967.4,61.4 966,63.8 964.4,65.8 962.4,67.6 960.2,68.9 957.6,69.7 954.8,70 956,68.8 957.4,67.6 958.8,66.6 960.3,65.8 961.9,65 963.5,64.4 965.2,64 966.9,63.7 968.7,63.5 970.4,63.5 972.2,63.7 973.9,64 975.6,64.4 977.2,65 978.8,65.8" />
<path stroke="#000000" stroke-width="2" d="M 985.4,70" />
<path stroke="#000000" stroke-width="2" d="M 985.4,20 993.1,38.5" />
<path stroke="#000000" stroke-width="2" d="M 993.1,38.5 991.1,38.4 989.5,38.1 988.2,37.6 987.3,37 986.8,36.4 986.5,35.6 986.4,34.9 986.6,34.2 987,33.5 987.5,32.9 988.1,32.4 988.8,32 989.5,31.8 990.3,31.9 991,32.1 991.7,32.7 992.2,33.6 992.7,34.8 993,36.4 993.1,38.5 993.1,42.5" />
<path stroke="#000000" stroke-width="2" d="M 993.1,42.5 992.8,43.3 992.4,44.2 992.1,44.9 991.7,45.6 991.3,46.3 990.8,46.9 990.3,47.4 989.9,47.9 989.4,48.3 988.8,48.7 988.3,49.1 987.8,49.4 987.2,49.7 986.6,49.9 986.1,50.1 985.5,50.2 984.9,50.3 984.3,50.4 983.7,50.5 983.1,50.5" />
<path stroke="#000000" stroke-width="2" d="M 1023.1,70" />
<path stroke="#000000" stroke-width="2" d="M 1028.1,30" />
<path stroke="#000000" stroke-width="2" d="M 1028.1,30 1026.7,30.1 1025.4,30.6 1024.3,31.2 1023.3,32.1 1022.5,33.1 1021.8,34.3 1021.3,35.6 1020.9,37 1020.7,38.5 1020.6,40 1020.7,41.5 1020.9,43 1021.3,44.4 1021.8,45.7 1022.5,46.9 1023.3,47.9 1024.3,48.8 1025.4,49.4 1026.7,49.9 1028.1,50 1028.1,49.3 1028.2,48.6 1028.3,47.9 1028.5,47.2 1028.7,46.6 1029,46 1029.3,45.4 1029.7,44.8 1030.2,44.2 1030.7,43.8 1031.2,43.3 1031.8,42.9 1032.4,42.6 1033,42.3 1033.7,42 1034.4,41.8 1035,41.7 1035.7,41.7 1036.4,41.7 1037.1,41.7 1037.8,41.8 1038.5,42 1039.1,42.3 1039.8,42.6 1040.4,42.9 1041,43.3 1041.5,43.8 1042,44.2 1042.4,44.8 1042.8,45.4 1043.2,46 1043.5,46.6 1043.7,47.2 1043.9,47.9 1044,48.6 1044.1,49.3" />
<path stroke="#000000" stroke-width="2" d="M 1050.7,70" />
<path stroke="#000000" stroke-width="2" d="M 1050.7,50 1050.7,70 1050.7,64 1050.7,63.1 1050.8,62.3 1051,61.4 1051.2,60.6 1051.5,59.7 1051.9,58.9 1052.3,58.2 1052.8,57.5 1053.4,56.8 1054,56.2 1054.6,55.6 1055.4,55.1 1056.1,54.7 1056.9,54.3 1057.7,54 1058.6,53.8 1059.4,53.6 1060.3,53.6" />
<path stroke="#000000" stroke-width="2" d="M 1060.3,53.6 1058.3,53.5 1056.7,53.2 1055.4,52.7 1054.5,52.1 1054,51.5 1053.7,50.7 1053.6,50 1053.8,49.3 1054.2,48.6 1054.7,47.9 1055.3,47.4 1056,47.1 1056.7,46.9 1057.5,47 1058.2,47.2 1058.9,47.8 1059.4,48.7 1059.9,49.9 1060.2,51.5 1060.3,53.6 1060.3,57.6" />
<path stroke="#000000" stroke-width="2" d="M 1060.3,57.6 1060,58.4 1059.6,59.3 1059.3,60 1058.9,60.7 1058.5,61.4 1058,61.9 1057.6,62.5 1057.1,63 1056.6,63.4 1056.1,63.8 1055.5,64.2 1055,64.5 1054.4,64.8 1053.8,65 1053.3,65.2 1052.7,65.3 1052.1,65.4 1051.5,65.5 1050.9,65.6 1050.3,65.6" />
<path stroke="#000000" stroke-width="2" d="M 1090.3,70" />
<path stroke="#000000" stroke-width="2" d="M 1090.3,70 1090.5,70 1090.5,70.2 1090.3,70.2 1090.3,70" />
<path stroke="#000000" stroke-width="2" d="M 1120.5,70" />
<path stroke="#000000" stroke-width="2" d="M 1120.5,50 1128.2,31.5 1135.8,50 1140.8,50 1140.8,70 1133.2,88.5 1135.5,82.9 1135.8,82.1 1136.2,81.4 1136.7,80.6 1137.2,79.9 1137.8,79.3 1138.4,78.7 1139.1,78.2 1139.8,77.7 1140.6,77.3 1141.4,77 1142.3,76.7 1143.1,76.5" />
<path stroke="#000000" stroke-width="2" d="M 1173.1,70" />
<path stroke="#000000" stroke-width="2" d="M 1173.1,30 1173.1,70 1173.1,58 1173.1,56.3 1173.3,54.5 1173.6,52.8 1174,51.1 1174.6,49.5 1175.4,47.9 1176.2,46.4 1177.2,45 1178.3,43.6 1179.6,42.4 1180.9,41.3 1182.3,40.3 1183.9,39.4 1185.4,38.7 1187.1,38.1 1188.8,37.6 1190.5,37.3 1192.2,37.1" />
<path stroke="#000000" stroke-width="2" d="M 1198.9,70" />
<path stroke="#000000" stroke-width="2" d="M 1198.9,25" />
<path stroke="#000000" stroke-width="2" d="M 1198.9,25 1200.9,24.9 1202.5,24.6 1203.8,24.1 1204.6,23.6 1205.2,22.9 1205.5,22.2 1205.5,21.4 1205.4,20.7 1205,20 1204.5,19.4 1203.9,18.9 1203.2,18.5 1202.5,18.3 1201.7,18.4 1201,18.7 1200.3,19.2 1199.7,20.1 1199.3,21.4 1199,23 1198.9,25 1198.9,40" />
<path stroke="#000000" stroke-width="2" d="M 1212.2,70" />
<path stroke="#000000" stroke-width="2" d="M 1212.2,30" />
<path stroke="#000000" stroke-width="2" d="M 1212.2,30 1213.6,30.1 1214.9,30.6 1216,31.2 1217,32.1 1217.8,33.1 1218.5,34.3 1219,35.6 1219.4,37 1219.6,38.5 1219.7,40 1219.6,41.5 1219.4,43 1219,44.4 1218.5,45.7 1217.8,46.9 1217,47.9 1216,48.8 1214.9,49.4 1213.6,49.9 1212.2,50" />
<path stroke="#000000" stroke-width="2" d="M 1212.2,50 1210.2,49.9 1208.6,49.6 1207.3,49.1 1206.4,48.6 1205.9,47.9 1205.6,47.2 1205.6,46.4 1205.7,45.7 1206.1,45 1206.6,44.4 1207.2,43.9 1207.9,43.5 1208.6,43.3 1209.4,43.4 1210.1,43.7 1210.8,44.2 1211.3,45.1 1211.8,46.4 1212.1,48 1212.2,50 1212.2,54" />
<path stroke="#000000" stroke-width="2" d="M 1212.2,54 1211.9,54.9 1211.5,55.7 1211.2,56.4 1210.8,57.1 1210.4,57.8 1209.9,58.4 1209.5,58.9 1209,59.4 1208.5,59.9 1208,60.2 1207.4,60.6 1206.9,60.9 1206.3,61.2 1205.8,61.4 1205.2,61.6 1204.6,61.7 1204,61.9 1203.4,61.9 1202.8,62 1202.2,62" />
<path stroke="#000000" stroke-width="2" d="M 1249.7,70" />
</svg>