<svg xmlns="http://www.w3.org/2000/svg" width="1161.8263283755962" height="93.30875" style="fill:none; stroke-linecap:round;">
    <rect width="100%" height="100%" fill="#FFFFFF" />
<path stroke="#000000" stroke-width="2" d="M 550,75" />
<path stroke="#000000" stroke-width="2" d="M 20,70 20.2,70 20.2,70.2 20,70.2 20,70" />
<path stroke="#000000" stroke-width="2" d="M 26.9,70" />
<path stroke="#000000" stroke-width="2" d="M 26.9,70 26.9,68.6 27,67.2 27.2,65.8 27.6,64.5 28.1,63.2 28.7,61.9 29.4,60.7 30.2,59.6 31.1,58.5 32,57.5 33.1,56.6 34.3,55.8 35.5,55.1 36.7,54.5 38,54 39.4,53.7 40.8,53.4 42.2,53.3 43.5,53.3 44.9,53.4 46.3,53.7 47.7,54 49,54.5 50.2,55.1 51.4,55.8 52.6,56.6 53.7,57.5 54.6,58.5 55.5,59.6 56.3,60.7 57,61.9 57.6,63.2 58.1,64.5 58.5,65.8 58.7,67.2 58.8,68.6" />
<path stroke="#000000" stroke-width="2" d="M 65.5,70" />
<path stroke="#000000" stroke-width="2" d="M 73.5,50" />
<path stroke="#000000" stroke-width="2" d="M 73.5,50 73.4,52 73.1,53.6 72.6,54.9 72.1,55.8 71.4,56.3 70.7,56.6 69.9,56.7 69.2,56.5 68.5,56.1 67.9,55.6 67.4,55 67,54.3 66.8,53.6 66.9,52.8 67.2,52.1 67.7,51.4 68.6,50.9 69.9,50.4 71.5,50.1 73.5,50 83.5,50" />
<path stroke="#000000" stroke-width="2" d="M 90.2,70" />
<path stroke="#000000" stroke-width="2" d="M 90.2,30 90.4,30 90.4,30.2 90.2,30.2 90.2,30" />
<path stroke="#000000" stroke-width="2" d="M 120.4,70" />
<path stroke="#000000" stroke-width="2" d="M 125.4,30" />
<path stroke="#000000" stroke-width="2" d="M 125.4,30 123.9,30.1 122.7,30.6 121.5,31.2 120.6,32.1 119.7,33.1 119.1,34.3 118.5,35.6 118.2,37 117.9,38.5 117.9,40 117.9,41.5 118.2,43 118.5,44.4 119.1,45.7 119.7,46.9 120.6,47.9 121.5,48.8 122.7,49.4 123.9,49.9 125.4,50 130.4,50 130.4,70" />
<path stroke="#000000" stroke-width="2" d="M 160.4,70" />
<path stroke="#000000" stroke-width="2" d="M 172.4,30" />
<path stroke="#000000" stroke-width="2" d="M 172.4,30 172.2,34.1 171.6,37.3 170.6,39.8 169.5,41.5 168.2,42.7 166.7,43.2 165.2,43.3 163.7,43 162.3,42.3 161.1,41.2 160.1,40 159.4,38.6 159.1,37.2 159.1,35.7 159.7,34.2 160.8,32.9 162.6,31.7 165.1,30.8 168.3,30.2 172.4,30 180.4,30" />
<path stroke="#000000" stroke-width="2" d="M 180.4,30 182.1,30.6 183.7,31.3 185.2,32.1 186.6,32.8 187.9,33.7 189.1,34.6 190.2,35.5 191.2,36.5 192.1,37.5 192.9,38.5 193.6,39.6 194.2,40.7 194.7,41.8 195.2,42.9 195.6,44.1 195.9,45.2 196.1,46.4 196.2,47.6 196.3,48.8 196.4,50" />
<path stroke="#000000" stroke-width="2" d="M 203,70" />
<path stroke="#000000" stroke-width="2" d="M 203,30 223,30 223.6,30 224.1,30 224.6,30.1 225.1,30.3 225.6,30.5 226.1,30.7 226.5,30.9 227,31.2 227.4,31.6 227.7,31.9 228.1,32.3 228.4,32.8 228.6,33.2 228.8,33.7 229,34.2 229.2,34.7 229.2,35.2 229.3,35.7 229.3,36.3 229.2,36.8 229.2,37.3 229,37.8 228.8,38.3 228.6,38.8 228.4,39.2 228.1,39.6 227.7,40 227.4,40.4 227,40.8 226.5,41.1 226.1,41.3 225.6,41.5 225.1,41.7 224.6,41.9 224.1,41.9 223.6,42 223,42 222.5,41.9 222,41.9 221.5,41.7 221,41.5 220.5,41.3 220.1,41.1 219.6,40.8 219.2,40.4 218.9,40 218.5,39.6 218.2,39.2 218,38.8 217.8,38.3 217.6,37.8 217.4,37.3 217.3,36.8 217.3,36.3 217.3,35.7 217.3,35.2 217.4,34.7 217.6,34.2 217.8,33.7 218,33.2 218.2,32.8 218.5,32.3 218.9,31.9 219.2,31.6 219.6,31.2 220.1,30.9 220.5,30.7 221,30.5 221.5,30.3 222,30.1 222.5,30 223,30 223,50" />
<path stroke="#000000" stroke-width="2" d="M 259.3,70" />
<path stroke="#000000" stroke-width="2" d="M 259.3,40" />
<path stroke="#000000" stroke-width="2" d="M 259.3,40 263.4,39.8 266.6,39.2 269,38.3 270.8,37.1 271.9,35.8 272.5,34.3 272.6,32.8 272.3,31.4 271.5,30 270.5,28.8 269.3,27.7 267.9,27 266.5,26.7 265,26.8 263.5,27.3 262.2,28.5 261,30.2 260.1,32.7 259.5,35.9 259.3,40 259.3,70" />
<path stroke="#000000" stroke-width="2" d="M 279.3,70" />
<path stroke="#000000" stroke-width="2" d="M 279.3,20 279.3,20.7 279.3,21.4 279.4,22.1 279.6,22.8 279.9,23.4 280.2,24 280.5,24.6 280.9,25.2 281.4,25.8 281.9,26.2 282.4,26.7 283,27.1 283.6,27.4 284.2,27.7 284.9,28 285.5,28.2 286.2,28.3 286.9,28.3 287.6,28.3 288.3,28.3 289,28.2 289.7,28 290.3,27.7 291,27.4 291.6,27.1 292.1,26.7 292.7,26.2 293.2,25.8 293.6,25.2 294,24.6 294.4,24 294.7,23.4 294.9,22.8 295.1,22.1 295.2,21.4 295.3,20.7" />
<path stroke="#000000" stroke-width="2" d="M 301.9,70" />
<path stroke="#000000" stroke-width="2" d="M 301.9,25" />
<path stroke="#000000" stroke-width="2" d="M 301.9,25 303.9,24.9 305.6,24.6 306.8,24.1 307.7,23.6 308.2,22.9 308.5,22.2 308.6,21.4 308.4,20.7 308,20 307.5,19.4 306.9,18.9 306.2,18.5 305.5,18.3 304.8,18.4 304,18.7 303.4,19.2 302.8,20.1 302.3,21.4 302,23 301.9,25 301.9,40 294.3,58.5" />
<path stroke="#000000" stroke-width="2" d="M 315.2,70" />
<path stroke="#000000" stroke-width="2" d="M 315.2,70 330.5,33 345.9,70" />
<path stroke="#000000" stroke-width="2" d="M 375.9,70" />
<path stroke="#000000" stroke-width="2" d="M 375.9,30 415.9,30" />
<path stroke="#000000" stroke-width="2" d="M 422.5,70" />
<path stroke="#000000" stroke-width="2" d="M 422.5,50 422.7,50 422.7,50.2 422.5,50.2 422.5,50" />
<path stroke="#000000" stroke-width="2" d="M 452.7,70" />
<path stroke="#000000" stroke-width="2" d="M 452.7,30 452.7,70 464,58.7" />
<path stroke="#000000" stroke-width="2" d="M 470.7,70" />
<path stroke="#000000" stroke-width="2" d="M 480.7,20 473,38.5" />
<path stroke="#000000" stroke-width="2" d="M 510.7,70" />
<path stroke="#000000" stroke-width="2" d="M 526.7,30 526.7,60" />
<path stroke="#000000" stroke-width="2" d="M 526.7,60 526.5,64.1 525.9,67.3 525,69.8 523.8,71.5 522.5,72.7 521,73.2 519.5,73.3 518.1,73 516.7,72.3 515.5,71.2 514.5,70 513.7,68.6 513.4,67.2 513.5,65.7 514,64.2 515.2,62.9 516.9,61.7 519.4,60.8 522.6,60.2 526.7,60" />
<path stroke="#000000" stroke-width="2" d="M 533.4,70" />
<path stroke="#000000" stroke-width="2" d="M 541.4,20 531.5,29.9 541.4,39.8" />
<path stroke="#000000" stroke-width="2" d="M 548,70" />
<path stroke="#000000" stroke-width="2" d="M 548,20" />
<path stroke="#000000" stroke-width="2" d="M 548,20 549.5,20.1 550.7,20.6 551.9,21.2 552.8,22.1 553.7,23.1 554.3,24.3 554.9,25.6 555.2,27 555.5,28.5 555.5,30 555.5,31.5 555.2,33 554.9,34.4 554.3,35.7 553.7,36.9 552.8,37.9 551.9,38.8 550.7,39.4 549.5,39.9 548,40" />
<path stroke="#000000" stroke-width="2" d="M 585.5,70" />
<path stroke="#000000" stroke-width="2" d="M 605.5,30 590.2,67" />
<path stroke="#000000" stroke-width="2" d="M 612.2,70" />
<path stroke="#000000" stroke-width="2" d="M 612.2,50" />
<path stroke="#000000" stroke-width="2" d="M 612.2,50 613.6,50.1 614.9,50.6 616,51.2 617,52.1 617.8,53.1 618.5,54.3 619,55.6 619.4,57 619.6,58.5 619.7,60 619.6,61.5 619.4,63 619,64.4 618.5,65.7 617.8,66.9 617,67.9 616,68.8 614.9,69.4 613.6,69.9 612.2,70" />
<path stroke="#000000" stroke-width="2" d="M 626.4,70" />
<path stroke="#000000" stroke-width="2" d="M 626.4,50 626.6,50 626.6,50.2 626.4,50.2 626.4,50" />
<path stroke="#000000" stroke-width="2" d="M 656.6,70" />
<path stroke="#000000" stroke-width="2" d="M 672.6,30 672.6,60" />
<path stroke="#000000" stroke-width="2" d="M 672.6,60 672.4,64.1 671.8,67.3 670.8,69.8 669.7,71.5 668.3,72.7 666.9,73.2 665.4,73.3 663.9,73 662.5,72.3 661.3,71.2 660.3,70 659.6,68.6 659.3,67.2 659.3,65.7 659.9,64.2 661,62.9 662.8,61.7 665.3,60.8 668.5,60.2 672.6,60" />
<path stroke="#000000" stroke-width="2" d="M 679.2,70" />
<path stroke="#000000" stroke-width="2" d="M 687.2,20 677.3,29.9 687.2,39.8" />
<path stroke="#000000" stroke-width="2" d="M 693.9,70" />
<path stroke="#000000" stroke-width="2" d="M 693.9,20" />
<path stroke="#000000" stroke-width="2" d="M 693.9,20 695.3,20.1 696.6,20.6 697.7,21.2 698.7,22.1 699.5,23.1 700.2,24.3 700.7,25.6 701.1,27 701.3,28.5 701.4,30 701.3,31.5 701.1,33 700.7,34.4 700.2,35.7 699.5,36.9 698.7,37.9 697.7,38.8 696.6,39.4 695.3,39.9 693.9,40" />
<path stroke="#000000" stroke-width="2" d="M 731.4,70" />
<path stroke="#000000" stroke-width="2" d="M 751.4,30 736.1,67" />
<path stroke="#000000" stroke-width="2" d="M 758.1,70" />
<path stroke="#000000" stroke-width="2" d="M 758.1,55" />
<path stroke="#000000" stroke-width="2" d="M 758.1,55 760.1,54.9 761.7,54.6 762.9,54.1 763.8,53.6 764.4,52.9 764.7,52.2 764.7,51.4 764.5,50.7 764.2,50 763.7,49.4 763.1,48.9 762.4,48.5 761.7,48.3 760.9,48.4 760.2,48.7 759.5,49.2 758.9,50.1 758.5,51.4 758.2,53 758.1,55 758.1,70" />
<path stroke="#000000" stroke-width="2" d="M 771.4,70" />
<path stroke="#000000" stroke-width="2" d="M 781.4,20 773.7,38.5" />
<path stroke="#000000" stroke-width="2" d="M 788.1,70" />
<path stroke="#000000" stroke-width="2" d="M 788.1,35" />
<path stroke="#000000" stroke-width="2" d="M 788.1,35 790.1,34.9 791.7,34.6 792.9,34.1 793.8,33.6 794.4,32.9 794.7,32.2 794.7,31.4 794.5,30.7 794.2,30 793.7,29.4 793.1,28.9 792.4,28.5 791.6,28.3 790.9,28.4 790.2,28.7 789.5,29.2 788.9,30.1 788.5,31.4 788.2,33 788.1,35 788.1,50 793.1,50 793.1,70" />
<path stroke="#000000" stroke-width="2" d="M 801.4,70" />
<path stroke="#000000" stroke-width="2" d="M 801.4,30 801.6,30 801.6,30.2 801.4,30.2 801.4,30" />
<path stroke="#000000" stroke-width="2" d="M 831.6,70" />
<path stroke="#000000" stroke-width="2" d="M 841.6,50 842.4,50 843.3,49.9 844.2,49.8 845,49.5 845.8,49.2 846.6,48.9 847.4,48.4 848.1,47.9 848.8,47.4 849.4,46.8 849.9,46.1 850.4,45.4 850.9,44.6 851.3,43.8 851.6,43 851.8,42.2 851.9,41.3 852,40.4 852,39.6 851.9,38.7 851.8,37.8 851.6,37 851.3,36.2 850.9,35.4 850.4,34.6 849.9,33.9 849.4,33.3 848.8,32.6 848.1,32.1 847.4,31.6 846.6,31.1 845.8,30.8 845,30.5 844.2,30.2 843.3,30.1 842.4,30 841.6,30 840.7,30.1 839.8,30.2 839,30.5 838.2,30.8 837.4,31.1 836.6,31.6 835.9,32.1 835.3,32.6 834.6,33.3 834.1,33.9 833.6,34.6 833.1,35.4 832.8,36.2 832.5,37 832.3,37.8 832.1,38.7 832,39.6 832,40.4 832.1,41.3 832.3,42.2 832.5,43 832.8,43.8 833.1,44.6 833.6,45.4 834.1,46.1 834.6,46.8 835.3,47.4 835.9,47.9 836.6,48.4 837.4,48.9 838.2,49.2 839,49.5 839.8,49.8 840.7,49.9 841.6,50 841.6,70 841.6,64 841.6,63.1 841.7,62.3 841.8,61.4 842,60.6 842.3,59.7 842.7,58.9 843.1,58.2 843.6,57.5 844.2,56.8 844.8,56.2 845.5,55.6 846.2,55.1 847,54.7 847.7,54.3 848.6,54 849.4,53.8 850.3,53.6 851.1,53.6" />
<path stroke="#000000" stroke-width="2" d="M 882,70" />
<path stroke="#000000" stroke-width="2" d="M 882,30 897.3,67 912.6,30" />
<path stroke="#000000" stroke-width="2" d="M 919.3,70" />
<path stroke="#000000" stroke-width="2" d="M 919.3,20 919.3,20.7 919.3,21.4 919.5,22.1 919.6,22.8 919.9,23.4 920.2,24 920.5,24.6 920.9,25.2 921.4,25.8 921.9,26.2 922.4,26.7 923,27.1 923.6,27.4 924.2,27.7 924.9,28 925.5,28.2 926.2,28.3 926.9,28.3 927.6,28.3 928.3,28.3 929,28.2 929.7,28 930.3,27.7 931,27.4 931.6,27.1 932.1,26.7 932.7,26.2 933.2,25.8 933.6,25.2 934,24.6 934.4,24 934.7,23.4 934.9,22.8 935.1,22.1 935.2,21.4 935.3,20.7" />
<path stroke="#000000" stroke-width="2" d="M 941.9,70" />
<path stroke="#000000" stroke-width="2" d="M 941.9,55" />
<path stroke="#000000" stroke-width="2" d="M 941.9,55 944,54.9 945.6,54.6 946.8,54.1 947.7,53.6 948.3,52.9 948.6,52.2 948.6,51.4 948.4,50.7 948.1,50 947.6,49.4 946.9,48.9 946.3,48.5 945.5,48.3 944.8,48.4 944,48.7 943.4,49.2 942.8,50.1 942.3,51.4 942,53 941.9,55 941.9,70" />
<path stroke="#000000" stroke-width="2" d="M 978.6,70" />
<path stroke="#000000" stroke-width="2" d="M 988.6,50 989.5,50 990.3,49.9 991.2,49.8 992,49.5 992.9,49.2 993.6,48.9 994.4,48.4 995.1,47.9 995.8,47.4 996.4,46.8 997,46.1 997.5,45.4 997.9,44.6 998.3,43.8 998.6,43 998.8,42.2 998.9,41.3 999,40.4 999,39.6 998.9,38.7 998.8,37.8 998.6,37 998.3,36.2 997.9,35.4 997.5,34.6 997,33.9 996.4,33.3 995.8,32.6 995.1,32.1 994.4,31.6 993.6,31.1 992.9,30.8 992,30.5 991.2,30.2 990.3,30.1 989.5,30 988.6,30 987.7,30.1 986.9,30.2 986,30.5 985.2,30.8 984.4,31.1 983.7,31.6 982.9,32.1 982.3,32.6 981.7,33.3 981.1,33.9 980.6,34.6 980.2,35.4 979.8,36.2 979.5,37 979.3,37.8 979.1,38.7 979,39.6 979,40.4 979.1,41.3 979.3,42.2 979.5,43 979.8,43.8 980.2,44.6 980.6,45.4 981.1,46.1 981.7,46.8 982.3,47.4 982.9,47.9 983.7,48.4 984.4,48.9 985.2,49.2 986,49.5 986.9,49.8 987.7,49.9 988.6,50 988.6,70 988.6,64 988.6,63.1 988.7,62.3 988.8,61.4 989,60.6 989.3,59.7 989.7,58.9 990.1,58.2 990.6,57.5 991.2,56.8 991.8,56.2 992.5,55.6 993.2,55.1 994,54.7 994.8,54.3 995.6,54 996.4,53.8 997.3,53.6 998.1,53.6" />
<path stroke="#000000" stroke-width="2" d="M 1005.7,70" />
<path stroke="#000000" stroke-width="2" d="M 1005.7,50 1005.9,50 1005.9,50.2 1005.7,50.2 1005.7,50" />
<path stroke="#000000" stroke-width="2" d="M 1035.9,70" />
<path stroke="#000000" stroke-width="2" d="M 1035.9,30 1045.9,30 1045.9,70 1045.9,68.3 1046,66.5 1046.3,64.8 1046.8,63.1 1047.4,61.5 1048.1,59.9 1049,58.4 1050,57 1051.1,55.6 1052.4,54.4 1053.7,53.3 1055.1,52.3 1056.6,51.4 1058.2,50.7 1059.9,50.1 1061.5,49.6 1063.3,49.3 1065,49.1" />
<path stroke="#000000" stroke-width="2" d="M 1071.7,70" />
<path stroke="#000000" stroke-width="2" d="M 1071.7,30 1091.7,30" />
<path stroke="#000000" stroke-width="2" d="M 1091.7,30 1093.1,30.1 1094.4,30.6 1095.5,31.2 1096.5,32.1 1097.3,33.1 1098,34.3 1098.5,35.6 1098.9,37 1099.1,38.5 1099.2,40 1099.1,41.5 1098.9,43 1098.5,44.4 1098,45.7 1097.3,46.9 1096.5,47.9 1095.5,48.8 1094.4,49.4 1093.1,49.9 1091.7,50 1091.7,65" />
<path stroke="#000000" stroke-width="2" d="M 1091.7,65 1091.6,67 1091.3,68.6 1090.8,69.9 1090.2,70.8 1089.6,71.3 1088.8,71.6 1088.1,71.7 1087.3,71.5 1086.6,71.1 1086,70.6 1085.5,70 1085.2,69.3 1085,68.6 1085,67.8 1085.3,67.1 1085.9,66.4 1086.8,65.9 1088,65.4 1089.6,65.1 1091.7,65" />
<path stroke="#000000" stroke-width="2" d="M 1105.8,70" />
<path stroke="#000000" stroke-width="2" d="M 1121.8,30" />
<path stroke="#000000" stroke-width="2" d="M 1121.8,30 1121.6,34.1 1121,37.3 1120.1,39.8 1118.9,41.5 1117.6,42.7 1116.2,43.2 1114.7,43.3 1113.2,43 1111.8,42.3 1110.6,41.2 1109.6,40 1108.9,38.6 1108.5,37.2 1108.6,35.7 1109.2,34.2 1110.3,32.9 1112.1,31.7 1114.5,30.8 1117.8,30.2 1121.8,30 1141.8,30" />
<path stroke="#000000" stroke-width="2" d="M 1171.8,70" />
</svg>