<svg xmlns="http://www.w3.org/2000/svg" width="1462.7434776129646" height="95.34314575050762" style="fill:none; stroke-linecap:round;">
    <rect width="100%" height="100%" fill="#FFFFFF" />
<path stroke="#000000" stroke-width="2" d="M 550,75" />
<path stroke="#000000" stroke-width="2" d="M 20,30 20,50 30,50 30.9,50 31.7,50.1 32.6,50.2 33.4,50.5 34.3,50.8 35.1,51.1 35.8,51.6 36.5,52.1 37.2,52.6 37.8,53.2 38.4,53.9 38.9,54.6 39.3,55.4 39.7,56.2 40,57 40.2,57.8 40.4,58.7 40.4,59.6 40.4,60.4 40.4,61.3 40.2,62.2 40,63 39.7,63.8 39.3,64.6 38.9,65.4 38.4,66.1 37.8,66.7 37.2,67.4 36.5,67.9 35.8,68.4 35.1,68.9 34.3,69.2 33.4,69.5 32.6,69.8 31.7,69.9 30.9,70" />
<path stroke="#000000" stroke-width="2" d="M 70.4,70" />
<path stroke="#000000" stroke-width="2" d="M 70.4,30 70.4,31.4 70.5,32.8 70.8,34.2 71.2,35.5 71.6,36.8 72.2,38.1 72.9,39.3 73.7,40.4 74.6,41.5 75.6,42.5 76.7,43.4 77.8,44.2 79,44.9 80.3,45.5 81.6,46 82.9,46.3 84.3,46.6 85.7,46.7 87.1,46.7 88.5,46.6 89.9,46.3 91.2,46 92.5,45.5 93.8,44.9 95,44.2 96.2,43.4 97.2,42.5 98.2,41.5 99.1,40.4 99.9,39.3 100.6,38.1 101.2,36.8 101.7,35.5 102,34.2 102.3,32.8 102.4,31.4" />
<path stroke="#000000" stroke-width="2" d="M 109.1,70" />
<path stroke="#000000" stroke-width="2" d="M 109.1,70 109.1,68.6 109.2,67.2 109.4,65.8 109.8,64.5 110.3,63.2 110.9,61.9 111.6,60.7 112.4,59.6 113.3,58.5 114.2,57.5 115.3,56.6 116.5,55.8 117.7,55.1 118.9,54.5 120.2,54 121.6,53.7 123,53.4 124.3,53.3 125.7,53.3 127.1,53.4 128.5,53.7 129.9,54 131.2,54.5 132.4,55.1 133.6,55.8 134.8,56.6 135.9,57.5 136.8,58.5 137.7,59.6 138.5,60.7 139.2,61.9 139.8,63.2 140.3,64.5 140.7,65.8 140.9,67.2 141,68.6" />
<path stroke="#000000" stroke-width="2" d="M 171,70" />
<path stroke="#000000" stroke-width="2" d="M 191,30 175.7,67" />
<path stroke="#000000" stroke-width="2" d="M 197.7,70" />
<path stroke="#000000" stroke-width="2" d="M 203.7,50 204.2,50 204.7,50 205.3,50.1 205.8,50.3 206.3,50.5 206.7,50.7 207.2,50.9 207.6,51.2 208,51.6 208.4,51.9 208.7,52.3 209,52.8 209.3,53.2 209.5,53.7 209.7,54.2 209.8,54.7 209.9,55.2 210,55.7 210,56.3 209.9,56.8 209.8,57.3 209.7,57.8 209.5,58.3 209.3,58.8 209,59.2 208.7,59.6 208.4,60 208,60.4 207.6,60.8 207.2,61.1 206.7,61.3 206.3,61.5 205.8,61.7 205.3,61.9 204.7,61.9 204.2,62 203.7,62 203.2,61.9 202.7,61.9 202.2,61.7 201.7,61.5 201.2,61.3 200.7,61.1 200.3,60.8 199.9,60.4 199.5,60 199.2,59.6 198.9,59.2 198.6,58.8 198.4,58.3 198.2,57.8 198.1,57.3 198,56.8 198,56.3 198,55.7 198,55.2 198.1,54.7 198.2,54.2 198.4,53.7 198.6,53.2 198.9,52.8 199.2,52.3 199.5,51.9 199.9,51.6 200.3,51.2 200.7,50.9 201.2,50.7 201.7,50.5 202.2,50.3 202.7,50.1 203.2,50 203.7,50 207.7,50" />
<path stroke="#000000" stroke-width="2" d="M 207.7,50 208.6,50.3 209.4,50.7 210.1,51 210.8,51.4 211.5,51.8 212.1,52.3 212.6,52.7 213.1,53.2 213.6,53.7 213.9,54.2 214.3,54.8 214.6,55.3 214.9,55.9 215.1,56.5 215.3,57 215.4,57.6 215.6,58.2 215.6,58.8 215.7,59.4 215.7,60" />
<path stroke="#000000" stroke-width="2" d="M 222.4,70" />
<path stroke="#000000" stroke-width="2" d="M 222.4,20 227.4,20 227.4,40" />
<path stroke="#000000" stroke-width="2" d="M 234,70" />
<path stroke="#000000" stroke-width="2" d="M 234,25" />
<path stroke="#000000" stroke-width="2" d="M 234,25 236.1,24.9 237.7,24.6 238.9,24.1 239.8,23.6 240.4,22.9 240.6,22.2 240.7,21.4 240.5,20.7 240.2,20 239.7,19.4 239,18.9 238.4,18.5 237.6,18.3 236.9,18.4 236.1,18.7 235.5,19.2 234.9,20.1 234.4,21.4 234.1,23 234,25 234,40" />
<path stroke="#000000" stroke-width="2" d="M 270.7,70" />
<path stroke="#000000" stroke-width="2" d="M 290.7,70 292.4,70 294.2,69.8 295.9,69.5 297.6,69.1 299.2,68.5 300.8,67.8 302.3,66.9 303.7,65.9 305.1,64.8 306.3,63.5 307.4,62.2 308.4,60.8 309.3,59.3 310,57.7 310.6,56 311.1,54.3 311.4,52.6 311.5,50.9 311.5,49.1 311.4,47.4 311.1,45.7 310.6,44 310,42.4 309.3,40.8 308.4,39.3 307.4,37.8 306.3,36.5 305.1,35.3 303.7,34.2 302.3,33.2 300.8,32.3 299.2,31.5 297.6,30.9 295.9,30.5 294.2,30.2 292.4,30 290.7,30 288.9,30.2 287.2,30.5 285.5,30.9 283.9,31.5 282.3,32.3 280.8,33.2 279.4,34.2 278,35.3 276.8,36.5 275.7,37.8 274.7,39.3 273.8,40.8 273.1,42.4 272.5,44 272,45.7 271.7,47.4 271.6,49.1 271.6,50.9 271.7,52.6 272,54.3 272.5,56 273.1,57.7 273.8,59.3 274.7,60.8 275.7,62.2 276.8,63.5 278,64.8 279.4,65.9 280.8,66.9 282.3,67.8 283.9,68.5 285.5,69.1 287.2,69.5 288.9,69.8 290.7,70" />
<path stroke="#000000" stroke-width="2" d="M 318.2,70" />
<path stroke="#000000" stroke-width="2" d="M 318.2,40" />
<path stroke="#000000" stroke-width="2" d="M 318.2,40 322.3,39.8 325.5,39.2 328,38.3 329.7,37.1 330.9,35.8 331.4,34.3 331.5,32.8 331.2,31.4 330.5,30 329.5,28.8 328.2,27.7 326.8,27 325.4,26.7 323.9,26.8 322.4,27.3 321.1,28.5 319.9,30.2 319,32.7 318.4,35.9 318.2,40 318.2,70" />
<path stroke="#000000" stroke-width="2" d="M 361.5,70" />
<path stroke="#000000" stroke-width="2" d="M 361.5,30 361.5,70" />
<path stroke="#000000" stroke-width="2" d="M 368.2,70" />
<path stroke="#000000" stroke-width="2" d="M 368.2,40" />
<path stroke="#000000" stroke-width="2" d="M 368.2,40 372.2,39.8 375.5,39.2 377.9,38.3 379.7,37.1 380.8,35.8 381.4,34.3 381.5,32.8 381.1,31.4 380.4,30 379.4,28.8 378.2,27.7 376.8,27 375.3,26.7 373.9,26.8 372.4,27.3 371.1,28.5 369.9,30.2 369,32.7 368.4,35.9 368.2,40 368.2,70" />
<path stroke="#000000" stroke-width="2" d="M 388.2,70" />
<path stroke="#000000" stroke-width="2" d="M 400.2,26 400.2,26.5 400.1,27 400,27.6 399.9,28.1 399.7,28.6 399.5,29 399.2,29.5 398.9,29.9 398.6,30.3 398.2,30.7 397.8,31 397.4,31.3 396.9,31.6 396.5,31.8 396,32 395.5,32.1 394.9,32.2 394.4,32.3 393.9,32.3 393.4,32.2 392.9,32.1 392.4,32 391.9,31.8 391.4,31.6 390.9,31.3 390.5,31 390.1,30.7 389.7,30.3 389.4,29.9 389.1,29.5 388.8,29 388.6,28.6 388.4,28.1 388.3,27.6 388.2,27 388.2,26.5 388.2,26 388.2,25.5 388.3,25 388.4,24.5 388.6,24 388.8,23.5 389.1,23 389.4,22.6 389.7,22.2 390.1,21.8 390.5,21.5 390.9,21.2 391.4,20.9 391.9,20.7 392.4,20.5 392.9,20.4 393.4,20.3 393.9,20.3 394.4,20.3 394.9,20.3 395.5,20.4 396,20.5 396.5,20.7 396.9,20.9 397.4,21.2 397.8,21.5 398.2,21.8 398.6,22.2 398.9,22.6 399.2,23 399.5,23.5 399.7,24 399.9,24.5 400,25 400.1,25.5 400.2,26 400.2,30" />
<path stroke="#000000" stroke-width="2" d="M 400.2,30 399.8,30.9 399.5,31.7 399.1,32.4 398.7,33.1 398.3,33.8 397.9,34.4 397.4,34.9 396.9,35.4 396.4,35.9 395.9,36.2 395.4,36.6 394.8,36.9 394.3,37.2 393.7,37.4 393.1,37.6 392.5,37.7 392,37.9 391.4,37.9 390.8,38 390.2,38" />
<path stroke="#000000" stroke-width="2" d="M 430.2,70" />
<path stroke="#000000" stroke-width="2" d="M 430.2,30 430.2,70 450.2,70" />
<path stroke="#000000" stroke-width="2" d="M 480.2,70" />
<path stroke="#000000" stroke-width="2" d="M 480.2,30 481.9,30 483.6,30.2 485.4,30.5 487,30.9 488.7,31.5 490.3,32.2 491.8,33.1 493.2,34.1 494.5,35.2 495.8,36.5 496.9,37.8 497.9,39.2 498.8,40.7 499.5,42.3 500.1,44 500.6,45.7 500.9,47.4 501,49.1 501,50.9 500.9,52.6 500.6,54.3 500.1,56 499.5,57.6 498.8,59.2 497.9,60.7 496.9,62.2 495.8,63.5 494.5,64.7 493.2,65.8 491.8,66.8 490.3,67.7 488.7,68.5 487,69.1 485.4,69.5 483.6,69.8 481.9,70" />
<path stroke="#000000" stroke-width="2" d="M 507.7,70" />
<path stroke="#000000" stroke-width="2" d="M 513.7,32 514.2,32 514.7,32 515.2,31.9 515.7,31.7 516.2,31.5 516.7,31.3 517.2,31.1 517.6,30.8 518,30.4 518.4,30.1 518.7,29.7 519,29.2 519.3,28.8 519.5,28.3 519.7,27.8 519.8,27.3 519.9,26.8 519.9,26.3 519.9,25.7 519.9,25.2 519.8,24.7 519.7,24.2 519.5,23.7 519.3,23.2 519,22.8 518.7,22.4 518.4,22 518,21.6 517.6,21.2 517.2,20.9 516.7,20.7 516.2,20.5 515.7,20.3 515.2,20.1 514.7,20.1 514.2,20 513.7,20 513.2,20.1 512.6,20.1 512.1,20.3 511.6,20.5 511.2,20.7 510.7,20.9 510.3,21.2 509.9,21.6 509.5,22 509.2,22.4 508.9,22.8 508.6,23.2 508.4,23.7 508.2,24.2 508.1,24.7 508,25.2 507.9,25.7 507.9,26.3 508,26.8 508.1,27.3 508.2,27.8 508.4,28.3 508.6,28.8 508.9,29.2 509.2,29.7 509.5,30.1 509.9,30.4 510.3,30.8 510.7,31.1 511.2,31.3 511.6,31.5 512.1,31.7 512.6,31.9 513.2,32 513.7,32 517.7,32" />
<path stroke="#000000" stroke-width="2" d="M 517.7,32 518.5,31.7 519.4,31.3 520.1,31 520.8,30.6 521.5,30.2 522.1,29.7 522.6,29.3 523.1,28.8 523.5,28.3 523.9,27.8 524.3,27.2 524.6,26.7 524.9,26.1 525.1,25.5 525.3,25 525.4,24.4 525.5,23.8 525.6,23.2 525.7,22.6 525.7,22" />
<path stroke="#000000" stroke-width="2" d="M 532.3,70" />
<path stroke="#000000" stroke-width="2" d="M 532.3,30 532.5,30 532.5,30.2 532.3,30.2 532.3,30" />
<path stroke="#000000" stroke-width="2" d="M 562.5,70" />
<path stroke="#000000" stroke-width="2" d="M 562.5,50 570.2,31.5 577.9,50" />
<path stroke="#000000" stroke-width="2" d="M 577.9,50 577.7,52 577.4,53.6 577,54.9 576.4,55.8 575.7,56.3 575,56.6 574.3,56.7 573.5,56.5 572.8,56.1 572.2,55.6 571.7,55 571.4,54.3 571.2,53.6 571.2,52.8 571.5,52.1 572.1,51.4 573,50.9 574.2,50.4 575.8,50.1 577.9,50 587.9,50" />
<path stroke="#000000" stroke-width="2" d="M 594.5,70" />
<path stroke="#000000" stroke-width="2" d="M 594.5,50 594.5,50.7 594.6,51.4 594.7,52.1 594.9,52.8 595.1,53.4 595.4,54 595.8,54.6 596.2,55.2 596.6,55.8 597.1,56.2 597.6,56.7 598.2,57.1 598.8,57.4 599.4,57.7 600.1,58 600.8,58.2 601.5,58.3 602.2,58.3 602.9,58.3 603.6,58.3 604.2,58.2 604.9,58 605.6,57.7 606.2,57.4 606.8,57.1 607.4,56.7 607.9,56.2 608.4,55.8 608.9,55.2 609.3,54.6 609.6,54 609.9,53.4 610.1,52.8 610.3,52.1 610.4,51.4 610.5,50.7" />
<path stroke="#000000" stroke-width="2" d="M 617.2,70" />
<path stroke="#000000" stroke-width="2" d="M 627.2,50 627.2,70 617.2,70" />
<path stroke="#000000" stroke-width="2" d="M 633.8,70" />
<path stroke="#000000" stroke-width="2" d="M 633.8,30 673.8,30 634.2,69.6 674.2,69.6" />
<path stroke="#000000" stroke-width="2" d="M 704.2,70" />
<path stroke="#000000" stroke-width="2" d="M 704.2,30 714.2,30 714.2,70" />
<path stroke="#000000" stroke-width="2" d="M 720.9,70" />
<path stroke="#000000" stroke-width="2" d="M 720.9,50 720.9,70 720.9,64 720.9,63.1 721,62.3 721.1,61.4 721.4,60.6 721.7,59.7 722,58.9 722.5,58.2 723,57.5 723.5,56.8 724.1,56.2 724.8,55.6 725.5,55.1 726.3,54.7 727.1,54.3 727.9,54 728.7,53.8 729.6,53.6 730.5,53.6" />
<path stroke="#000000" stroke-width="2" d="M 760.5,70" />
<path stroke="#000000" stroke-width="2" d="M 760.5,70 760.7,70 760.7,70.2 760.5,70.2 760.5,70" />
<path stroke="#000000" stroke-width="2" d="M 767.3,70" />
<path stroke="#000000" stroke-width="2" d="M 767.3,30 769.1,30 770.8,30.2 772.5,30.5 774.2,30.9 775.9,31.5 777.4,32.2 778.9,33.1 780.4,34.1 781.7,35.2 782.9,36.5 784.1,37.8 785.1,39.2 785.9,40.7 786.7,42.3 787.3,44 787.7,45.7 788,47.4 788.2,49.1 788.2,50.9 788,52.6 787.7,54.3 787.3,56 786.7,57.6 785.9,59.2 785.1,60.7 784.1,62.2 782.9,63.5 781.7,64.7 780.4,65.8 778.9,66.8 777.4,67.7 775.9,68.5 774.2,69.1 772.5,69.5 770.8,69.8 769.1,70 769.1,68.2 769.2,66.5 769.5,64.8 770,63.1 770.6,61.4 771.3,59.9 772.2,58.3 773.2,56.9 774.3,55.6 775.5,54.3 776.9,53.2 778.3,52.2 779.8,51.3 781.4,50.6 783,50 784.7,49.6 786.4,49.3 788.2,49.1" />
<path stroke="#000000" stroke-width="2" d="M 794.8,70" />
<path stroke="#000000" stroke-width="2" d="M 802.8,50" />
<path stroke="#000000" stroke-width="2" d="M 802.8,50 802.7,52 802.4,53.6 802,54.9 801.4,55.8 800.7,56.3 800,56.6 799.3,56.7 798.5,56.5 797.8,56.1 797.2,55.6 796.7,55 796.4,54.3 796.2,53.6 796.2,52.8 796.5,52.1 797.1,51.4 798,50.9 799.2,50.4 800.8,50.1 802.8,50 812.8,50" />
<path stroke="#000000" stroke-width="2" d="M 842.8,70" />
<path stroke="#000000" stroke-width="2" d="M 842.8,30 882.8,30" />
<path stroke="#000000" stroke-width="2" d="M 912.8,70" />
<path stroke="#000000" stroke-width="2" d="M 912.8,30 912.8,70 912.8,58 912.8,56.3 913,54.5 913.3,52.8 913.8,51.1 914.3,49.5 915.1,47.9 916,46.4 917,45 918.1,43.6 919.3,42.4 920.7,41.3 922.1,40.3 923.6,39.4 925.2,38.7 926.8,38.1 928.5,37.6 930.2,37.3 932,37.1" />
<path stroke="#000000" stroke-width="2" d="M 938.6,70" />
<path stroke="#000000" stroke-width="2" d="M 948.6,30 941,48.5 941,49 940.9,49.5 940.8,50 940.7,50.5 940.5,51 940.3,51.5 940,52 939.7,52.4 939.4,52.8 939,53.2 938.6,53.5 938.2,53.8 937.7,54.1 937.3,54.3 936.8,54.5 936.3,54.6 935.8,54.7 935.2,54.7 934.7,54.7 934.2,54.7 933.7,54.6 933.2,54.5 932.7,54.3 932.2,54.1 931.7,53.8 931.3,53.5 930.9,53.2 930.5,52.8 930.2,52.4 929.9,52 929.7,51.5 929.4,51 929.3,50.5 929.1,50 929,49.5 929,49 929,48.5 929,48 929.1,47.4 929.3,46.9 929.4,46.4 929.7,46 929.9,45.5 930.2,45.1 930.5,44.7 930.9,44.3 931.3,44 931.7,43.7 932.2,43.4 932.7,43.2 933.2,43 933.7,42.9 934.2,42.8 934.7,42.7 935.2,42.7 935.8,42.8 936.3,42.9 936.8,43 937.3,43.2 937.7,43.4 938.2,43.7 938.6,44 939,44.3 939.4,44.7 939.7,45.1 940,45.5 940.3,46 940.5,46.4 940.7,46.9 940.8,47.4 940.9,48 941,48.5 941,52.5" />
<path stroke="#000000" stroke-width="2" d="M 941,52.5 940.7,53.3 940.3,54.2 939.9,54.9 939.5,55.6 939.1,56.3 938.7,56.9 938.2,57.4 937.7,57.9 937.2,58.3 936.7,58.7 936.2,59.1 935.6,59.4 935.1,59.7 934.5,59.9 933.9,60.1 933.4,60.2 932.8,60.3 932.2,60.4 931.6,60.5 931,60.5" />
<path stroke="#000000" stroke-width="2" d="M 978.6,70" />
<path stroke="#000000" stroke-width="2" d="M 994.6,40" />
<path stroke="#000000" stroke-width="2" d="M 994.6,40 990.6,39.8 987.3,39.2 984.9,38.3 983.1,37.1 982,35.8 981.4,34.3 981.3,32.8 981.7,31.4 982.4,30 983.4,28.8 984.6,27.7 986,27 987.5,26.7 989,26.8 990.4,27.3 991.7,28.5 992.9,30.2 993.8,32.7 994.4,35.9 994.6,40 994.6,70" />
<path stroke="#000000" stroke-width="2" d="M 1001.3,70" />
<path stroke="#000000" stroke-width="2" d="M 1001.3,20 1001.3,20.7 1001.3,21.4 1001.5,22.1 1001.7,22.8 1001.9,23.4 1002.2,24 1002.5,24.6 1002.9,25.2 1003.4,25.8 1003.9,26.2 1004.4,26.7 1005,27.1 1005.6,27.4 1006.2,27.7 1006.9,28 1007.5,28.2 1008.2,28.3 1008.9,28.3 1009.6,28.3 1010.3,28.3 1011,28.2 1011.7,28 1012.3,27.7 1013,27.4 1013.6,27.1 1014.2,26.7 1014.7,26.2 1015.2,25.8 1015.6,25.2 1016,24.6 1016.4,24 1016.7,23.4 1016.9,22.8 1017.1,22.1 1017.2,21.4 1017.3,20.7" />
<path stroke="#000000" stroke-width="2" d="M 1023.9,70" />
<path stroke="#000000" stroke-width="2" d="M 1043.9,30 1028.6,67" />
<path stroke="#000000" stroke-width="2" d="M 1050.6,70" />
<path stroke="#000000" stroke-width="2" d="M 1050.6,30 1050.8,30 1050.8,30.2 1050.6,30.2 1050.6,30" />
<path stroke="#000000" stroke-width="2" d="M 1080.8,70" />
<path stroke="#000000" stroke-width="2" d="M 1100.8,30 1085.5,67" />
<path stroke="#000000" stroke-width="2" d="M 1107.5,70" />
<path stroke="#000000" stroke-width="2" d="M 1107.5,50 1107.5,70 1113.1,64.3" />
<path stroke="#000000" stroke-width="2" d="M 1113.1,60.3" />
<path stroke="#000000" stroke-width="2" d="M 1097.1,60.3 1119.1,60.3" />
<path stroke="#000000" stroke-width="2" d="M 1119.1,60.3 1121.2,60.2 1122.8,59.9 1124,59.5 1124.9,58.9 1125.5,58.2 1125.7,57.5 1125.8,56.8 1125.6,56 1125.3,55.3 1124.8,54.7 1124.1,54.2 1123.4,53.9 1122.7,53.7 1122,53.7 1121.2,54 1120.6,54.6 1120,55.5 1119.5,56.7 1119.2,58.3 1119.1,60.3 1119.1,75.3" />
<path stroke="#000000" stroke-width="2" d="M 1155.8,70" />
<path stroke="#000000" stroke-width="2" d="M 1155.8,70 1156,70 1156,70.2 1155.8,70.2 1155.8,70" />
<path stroke="#000000" stroke-width="2" d="M 1162.7,70" />
<path stroke="#000000" stroke-width="2" d="M 1162.7,30 1182.7,30 1183.5,30 1184.4,30.1 1185.3,30.2 1186.1,30.5 1186.9,30.8 1187.7,31.1 1188.5,31.6 1189.2,32.1 1189.8,32.6 1190.5,33.2 1191,33.9 1191.5,34.6 1192,35.4 1192.3,36.2 1192.6,37 1192.8,37.8 1193,38.7 1193.1,39.6 1193.1,40.4 1193,41.3 1192.8,42.2 1192.6,43 1192.3,43.8 1192,44.6 1191.5,45.4 1191,46.1 1190.5,46.7 1189.8,47.4 1189.2,47.9 1188.5,48.4 1187.7,48.9 1186.9,49.2 1186.1,49.5 1185.3,49.8 1184.4,49.9 1183.5,50" />
<path stroke="#000000" stroke-width="2" d="M 1223.1,70" />
<path stroke="#000000" stroke-width="2" d="M 1223.1,70 1223.3,70 1223.3,70.2 1223.1,70.2 1223.1,70" />
<path stroke="#000000" stroke-width="2" d="M 1253.3,70" />
<path stroke="#000000" stroke-width="2" d="M 1253.3,30 1253.3,70 1273.3,70" />
<path stroke="#000000" stroke-width="2" d="M 1303.3,70" />
<path stroke="#000000" stroke-width="2" d="M 1319.3,30 1299.5,49.8 1319.3,69.6" />
<path stroke="#000000" stroke-width="2" d="M 1325.9,70" />
<path stroke="#000000" stroke-width="2" d="M 1325.9,20 1333.6,38.5 1341.3,20" />
<path stroke="#000000" stroke-width="2" d="M 1347.9,70" />
<path stroke="#000000" stroke-width="2" d="M 1347.9,20 1348.1,20 1348.1,20.2 1347.9,20.2 1347.9,20" />
<path stroke="#000000" stroke-width="2" d="M 1378.1,70" />
<path stroke="#000000" stroke-width="2" d="M 1398.1,30 1382.8,67" />
<path stroke="#000000" stroke-width="2" d="M 1404.8,70" />
<path stroke="#000000" stroke-width="2" d="M 1404.8,50 1404.8,50.7 1404.8,51.4 1405,52.1 1405.1,52.8 1405.4,53.4 1405.7,54 1406,54.6 1406.4,55.2 1406.9,55.8 1407.4,56.2 1407.9,56.7 1408.5,57.1 1409.1,57.4 1409.7,57.7 1410.4,58 1411,58.2 1411.7,58.3 1412.4,58.3 1413.1,58.3 1413.8,58.3 1414.5,58.2 1415.2,58 1415.8,57.7 1416.5,57.4 1417.1,57.1 1417.6,56.7 1418.2,56.2 1418.7,55.8 1419.1,55.2 1419.5,54.6 1419.9,54 1420.2,53.4 1420.4,52.8 1420.6,52.1 1420.7,51.4 1420.8,50.7" />
<path stroke="#000000" stroke-width="2" d="M 1427.4,70" />
<path stroke="#000000" stroke-width="2" d="M 1427.4,20 1435.1,38.5 1442.7,20" />
<path stroke="#000000" stroke-width="2" d="M 1472.7,70" />
</svg>