<svg xmlns="http://www.w3.org/2000/svg" width="1355.0563734563036" height="98.34134087157756" style="fill:none; stroke-linecap:round;">
    <rect width="100%" height="100%" fill="#FFFFFF" />
<path stroke="#000000" stroke-width="2" d="M 550,75" />
<path stroke="#000000" stroke-width="2" d="M 30,30 29.1,30 28.3,30.1 27.4,30.2 26.6,30.5 25.7,30.8 24.9,31.1 24.2,31.6 23.5,32.1 22.8,32.6 22.2,33.2 21.6,33.9 21.1,34.6 20.7,35.4 20.3,36.2 20,37 19.8,37.8 19.6,38.7 19.6,39.6 19.6,40.4 19.6,41.3 19.8,42.2 20,43 20.3,43.8 20.7,44.6 21.1,45.4 21.6,46.1 22.2,46.7 22.8,47.4 23.5,47.9 24.2,48.4 24.9,48.9 25.7,49.2 26.6,49.5 27.4,49.8 28.3,49.9 29.1,50 34.1,50 34.1,70" />
<path stroke="#000000" stroke-width="2" d="M 64.1,70" />
<path stroke="#000000" stroke-width="2" d="M 64.1,70 64.3,70 64.3,70.2 64.1,70.2 64.1,70" />
<path stroke="#000000" stroke-width="2" d="M 71,70" />
<path stroke="#000000" stroke-width="2" d="M 81,30 80.1,30 79.3,30.1 78.4,30.2 77.6,30.5 76.7,30.8 75.9,31.1 75.2,31.6 74.5,32.1 73.8,32.6 73.2,33.2 72.6,33.9 72.1,34.6 71.7,35.4 71.3,36.2 71,37 70.8,37.8 70.6,38.7 70.6,39.6 70.6,40.4 70.6,41.3 70.8,42.2 71,43 71.3,43.8 71.7,44.6 72.1,45.4 72.6,46.1 73.2,46.7 73.8,47.4 74.5,47.9 75.2,48.4 75.9,48.9 76.7,49.2 77.6,49.5 78.4,49.8 79.3,49.9 80.1,50 80.1,70 80.1,64 80.1,63.1 80.2,62.2 80.3,61.4 80.6,60.5 80.9,59.7 81.2,58.9 81.7,58.2 82.2,57.5 82.7,56.8 83.4,56.2 84,55.6 84.7,55.1 85.5,54.7 86.3,54.3 87.1,54 87.9,53.8 88.8,53.6 89.7,53.6" />
<path stroke="#000000" stroke-width="2" d="M 89.7,53.6 91.1,53.7 92.4,54.1 93.5,54.8 94.5,55.6 95.3,56.7 96,57.9 96.5,59.2 96.9,60.6 97.1,62.1 97.2,63.6 97.1,65 96.9,66.5 96.5,67.9 96,69.2 95.3,70.4 94.5,71.5 93.5,72.3 92.4,73 91.1,73.4 89.7,73.6" />
<path stroke="#000000" stroke-width="2" d="M 103.8,70" />
<path stroke="#000000" stroke-width="2" d="M 103.8,30 143.8,30" />
<path stroke="#000000" stroke-width="2" d="M 150.5,70" />
<path stroke="#000000" stroke-width="2" d="M 150.5,20 150.5,40 150.5,34 150.5,33.1 150.6,32.3 150.7,31.4 151,30.6 151.3,29.7 151.6,28.9 152.1,28.2 152.6,27.5 153.1,26.8 153.7,26.2 154.4,25.6 155.1,25.1 155.9,24.7 156.7,24.3 157.5,24 158.3,23.8 159.2,23.6 160.1,23.6" />
<path stroke="#000000" stroke-width="2" d="M 166.7,70" />
<path stroke="#000000" stroke-width="2" d="M 166.7,30 166.9,30 166.9,30.2 166.7,30.2 166.7,30" />
<path stroke="#000000" stroke-width="2" d="M 196.9,70" />
<path stroke="#000000" stroke-width="2" d="M 196.9,70 197.1,70 197.1,70.2 196.9,70.2 196.9,70" />
<path stroke="#000000" stroke-width="2" d="M 227.1,70" />
<path stroke="#000000" stroke-width="2" d="M 227.1,50 227.1,49.3 227.2,48.6 227.3,47.9 227.5,47.2 227.7,46.6 228,46 228.4,45.4 228.8,44.8 229.2,44.2 229.7,43.8 230.3,43.3 230.8,42.9 231.4,42.6 232.1,42.3 232.7,42 233.4,41.8 234.1,41.7 234.8,41.7 235.5,41.7 236.2,41.7 236.9,41.8 237.5,42 238.2,42.3 238.8,42.6 239.4,42.9 240,43.3 240.5,43.8 241,44.2 241.5,44.8 241.9,45.4 242.2,46 242.5,46.6 242.8,47.2 242.9,47.9 243.1,48.6 243.1,49.3" />
<path stroke="#000000" stroke-width="2" d="M 243.1,45.3" />
<path stroke="#000000" stroke-width="2" d="M 237.1,45.3 247.1,45.3 239.5,63.8 241.8,58.2 242.1,57.4 242.5,56.7 243,55.9 243.5,55.2 244.1,54.6 244.7,54 245.4,53.5 246.2,53 246.9,52.6 247.7,52.3 248.6,52 249.4,51.8" />
<path stroke="#000000" stroke-width="2" d="M 256.1,70" />
<path stroke="#000000" stroke-width="2" d="M 256.1,20 256.1,40 256.1,34 256.1,33.1 256.2,32.3 256.3,31.4 256.5,30.6 256.8,29.7 257.2,28.9 257.6,28.2 258.1,27.5 258.7,26.8 259.3,26.2 260,25.6 260.7,25.1 261.5,24.7 262.2,24.3 263.1,24 263.9,23.8 264.8,23.6 265.6,23.6" />
<path stroke="#000000" stroke-width="2" d="M 272.3,70" />
<path stroke="#000000" stroke-width="2" d="M 272.3,30 272.5,30 272.5,30.2 272.3,30.2 272.3,30" />
<path stroke="#000000" stroke-width="2" d="M 302.5,70" />
<path stroke="#000000" stroke-width="2" d="M 322.5,30 307.2,67" />
<path stroke="#000000" stroke-width="2" d="M 329.2,70" />
<path stroke="#000000" stroke-width="2" d="M 329.2,50 329.4,50 329.4,50.2 329.2,50.2 329.2,50" />
<path stroke="#000000" stroke-width="2" d="M 359.4,70" />
<path stroke="#000000" stroke-width="2" d="M 359.4,70 359.6,70 359.6,70.2 359.4,70.2 359.4,70" />
<path stroke="#000000" stroke-width="2" d="M 366.2,70" />
<path stroke="#000000" stroke-width="2" d="M 376.2,30 375.4,30 374.5,30.1 373.6,30.2 372.8,30.5 372,30.8 371.2,31.1 370.4,31.6 369.7,32.1 369,32.6 368.4,33.2 367.9,33.9 367.4,34.6 366.9,35.4 366.6,36.2 366.3,37 366,37.8 365.9,38.7 365.8,39.6 365.8,40.4 365.9,41.3 366,42.2 366.3,43 366.6,43.8 366.9,44.6 367.4,45.4 367.9,46.1 368.4,46.7 369,47.4 369.7,47.9 370.4,48.4 371.2,48.9 372,49.2 372.8,49.5 373.6,49.8 374.5,49.9 375.4,50" />
<path stroke="#000000" stroke-width="2" d="M 375.4,40" />
<path stroke="#000000" stroke-width="2" d="M 359.4,40 379.4,40 379.4,60 385,54.3" />
<path stroke="#000000" stroke-width="2" d="M 391.7,70" />
<path stroke="#000000" stroke-width="2" d="M 391.7,20 391.7,20.7 391.8,21.4 391.9,22.1 392.1,22.8 392.3,23.4 392.6,24 392.9,24.6 393.3,25.2 393.8,25.8 394.3,26.2 394.8,26.7 395.4,27.1 396,27.4 396.6,27.7 397.3,28 398,28.2 398.6,28.3 399.3,28.3 400,28.3 400.7,28.3 401.4,28.2 402.1,28 402.7,27.7 403.4,27.4 404,27.1 404.6,26.7 405.1,26.2 405.6,25.8 406,25.2 406.4,24.6 406.8,24 407.1,23.4 407.3,22.8 407.5,22.1 407.6,21.4 407.7,20.7 415.3,39.2" />
<path stroke="#000000" stroke-width="2" d="M 415.3,39.2 413.3,39.1 411.7,38.8 410.5,38.3 409.6,37.7 409,37.1 408.7,36.3 408.7,35.6 408.8,34.9 409.2,34.2 409.7,33.6 410.3,33 411,32.7 411.7,32.5 412.5,32.6 413.2,32.8 413.9,33.4 414.5,34.3 414.9,35.5 415.2,37.1 415.3,39.2 415.3,43.2" />
<path stroke="#000000" stroke-width="2" d="M 415.3,43.2 415,44 414.7,44.9 414.3,45.6 413.9,46.3 413.5,47 413,47.5 412.6,48.1 412.1,48.6 411.6,49 411.1,49.4 410.5,49.8 410,50.1 409.4,50.4 408.9,50.6 408.3,50.8 407.7,50.9 407.1,51 406.5,51.1 405.9,51.2 405.3,51.2" />
<path stroke="#000000" stroke-width="2" d="M 445.3,70" />
<path stroke="#000000" stroke-width="2" d="M 445.3,30 460.6,67" />
<path stroke="#000000" stroke-width="2" d="M 467.3,70" />
<path stroke="#000000" stroke-width="2" d="M 477.3,20 477.3,40 467.3,40" />
<path stroke="#000000" stroke-width="2" d="M 484,70" />
<path stroke="#000000" stroke-width="2" d="M 484,50 484,70 484,64 484,63.1 484,62.3 484.2,61.4 484.4,60.6 484.7,59.7 485.1,58.9 485.5,58.2 486,57.5 486.6,56.8 487.2,56.2 487.9,55.6 488.6,55.1 489.3,54.7 490.1,54.3 491,54 491.8,53.8 492.7,53.6 493.5,53.6" />
<path stroke="#000000" stroke-width="2" d="M 500.2,70" />
<path stroke="#000000" stroke-width="2" d="M 520.2,30 504.9,67" />
<path stroke="#000000" stroke-width="2" d="M 526.9,70" />
<path stroke="#000000" stroke-width="2" d="M 526.9,30 527.1,30 527.1,30.2 526.9,30.2 526.9,30" />
<path stroke="#000000" stroke-width="2" d="M 557.1,70" />
<path stroke="#000000" stroke-width="2" d="M 567.1,30 566.2,30 565.3,30.1 564.5,30.2 563.6,30.5 562.8,30.8 562,31.1 561.2,31.6 560.5,32.1 559.9,32.6 559.2,33.2 558.7,33.9 558.2,34.6 557.8,35.4 557.4,36.2 557.1,37 556.9,37.8 556.7,38.7 556.6,39.6 556.6,40.4 556.7,41.3 556.9,42.2 557.1,43 557.4,43.8 557.8,44.6 558.2,45.4 558.7,46.1 559.2,46.7 559.9,47.4 560.5,47.9 561.2,48.4 562,48.9 562.8,49.2 563.6,49.5 564.5,49.8 565.3,49.9 566.2,50 571.2,50 571.2,70" />
<path stroke="#000000" stroke-width="2" d="M 601.2,70" />
<path stroke="#000000" stroke-width="2" d="M 601.2,30" />
<path stroke="#000000" stroke-width="2" d="M 601.2,30 604,30.3 606.6,31.1 608.8,32.4 610.8,34.2 612.4,36.2 613.8,38.6 614.8,41.3 615.6,44.1 616,47 616.2,50 616,53 615.6,55.9 614.8,58.7 613.8,61.4 612.4,63.8 610.8,65.8 608.8,67.6 606.6,68.9 604,69.7 601.2,70 602.4,68.8 603.8,67.6 605.2,66.6 606.7,65.8 608.3,65 609.9,64.4 611.6,64 613.3,63.7 615.1,63.5 616.8,63.5 618.5,63.7 620.3,64 621.9,64.4 623.6,65 625.2,65.8" />
<path stroke="#000000" stroke-width="2" d="M 631.8,70" />
<path stroke="#000000" stroke-width="2" d="M 631.8,20 639.5,38.5" />
<path stroke="#000000" stroke-width="2" d="M 639.5,38.5 641.5,38.4 643.1,38.1 644.4,37.6 645.2,37 645.8,36.4 646.1,35.6 646.1,34.9 646,34.2 645.6,33.5 645.1,32.9 644.5,32.4 643.8,32 643.1,31.8 642.3,31.9 641.6,32.1 640.9,32.7 640.3,33.6 639.9,34.8 639.6,36.4 639.5,38.5 639.5,53.5" />
<path stroke="#000000" stroke-width="2" d="M 676.1,70" />
<path stroke="#000000" stroke-width="2" d="M 686.1,50 687,50 687.9,49.9 688.7,49.8 689.6,49.5 690.4,49.2 691.2,48.9 691.9,48.4 692.7,47.9 693.3,47.4 693.9,46.8 694.5,46.1 695,45.4 695.4,44.6 695.8,43.8 696.1,43 696.3,42.2 696.5,41.3 696.6,40.4 696.6,39.6 696.5,38.7 696.3,37.8 696.1,37 695.8,36.2 695.4,35.4 695,34.6 694.5,33.9 693.9,33.3 693.3,32.6 692.7,32.1 691.9,31.6 691.2,31.1 690.4,30.8 689.6,30.5 688.7,30.2 687.9,30.1 687,30 686.1,30 685.3,30.1 684.4,30.2 683.6,30.5 682.7,30.8 682,31.1 681.2,31.6 680.5,32.1 679.8,32.6 679.2,33.3 678.6,33.9 678.1,34.6 677.7,35.4 677.3,36.2 677,37 676.8,37.8 676.7,38.7 676.6,39.6 676.6,40.4 676.7,41.3 676.8,42.2 677,43 677.3,43.8 677.7,44.6 678.1,45.4 678.6,46.1 679.2,46.8 679.8,47.4 680.5,47.9 681.2,48.4 682,48.9 682.7,49.2 683.6,49.5 684.4,49.8 685.3,49.9 686.1,50 686.1,70 686.1,64 686.1,63.1 686.2,62.3 686.4,61.4 686.6,60.6 686.9,59.7 687.3,58.9 687.7,58.2 688.2,57.5 688.8,56.8 689.4,56.2 690,55.6 690.8,55.1 691.5,54.7 692.3,54.3 693.1,54 694,53.8 694.8,53.6 695.7,53.6" />
<path stroke="#000000" stroke-width="2" d="M 726.6,70" />
<path stroke="#000000" stroke-width="2" d="M 726.6,30 726.6,70 737.9,58.7" />
<path stroke="#000000" stroke-width="2" d="M 744.5,70" />
<path stroke="#000000" stroke-width="2" d="M 744.5,25" />
<path stroke="#000000" stroke-width="2" d="M 744.5,25 746.6,24.9 748.2,24.6 749.4,24.1 750.3,23.6 750.9,22.9 751.2,22.2 751.2,21.4 751,20.7 750.7,20 750.2,19.4 749.6,18.9 748.9,18.5 748.1,18.3 747.4,18.4 746.7,18.7 746,19.2 745.4,20.1 745,21.4 744.7,23 744.5,25 744.5,40" />
<path stroke="#000000" stroke-width="2" d="M 781.2,70" />
<path stroke="#000000" stroke-width="2" d="M 781.2,30 821.2,30" />
<path stroke="#000000" stroke-width="2" d="M 827.9,70" />
<path stroke="#000000" stroke-width="2" d="M 827.9,50 827.9,70 827.9,70.7 827.9,71.4 828,72.1 828.2,72.8 828.5,73.4 828.8,74 829.1,74.6 829.5,75.2 830,75.8 830.5,76.2 831,76.7 831.6,77.1 832.2,77.4 832.8,77.7 833.5,78 834.1,78.2 834.8,78.3 835.5,78.3 836.2,78.3 836.9,78.3 837.6,78.2 838.3,78 838.9,77.7 839.6,77.4 840.2,77.1 840.7,76.7 841.3,76.2 841.8,75.8 842.2,75.2 842.6,74.6 843,74 843.3,73.4 843.5,72.8 843.7,72.1 843.8,71.4 843.9,70.7" />
<path stroke="#000000" stroke-width="2" d="M 850.5,70" />
<path stroke="#000000" stroke-width="2" d="M 850.5,50 850.5,70 850.5,64 850.5,63.1 850.6,62.3 850.7,61.4 851,60.6 851.3,59.7 851.6,58.9 852.1,58.2 852.6,57.5 853.1,56.8 853.8,56.2 854.4,55.6 855.1,55.1 855.9,54.7 856.7,54.3 857.5,54 858.3,53.8 859.2,53.6 860.1,53.6" />
<path stroke="#000000" stroke-width="2" d="M 890.1,70" />
<path stroke="#000000" stroke-width="2" d="M 890.1,30 890.1,70" />
<path stroke="#000000" stroke-width="2" d="M 896.7,70" />
<path stroke="#000000" stroke-width="2" d="M 896.7,40 896.7,39.3 896.8,38.6 896.9,37.9 897.1,37.2 897.3,36.6 897.6,36 898,35.4 898.4,34.8 898.8,34.2 899.3,33.8 899.9,33.3 900.4,32.9 901,32.6 901.7,32.3 902.3,32 903,31.8 903.7,31.7 904.4,31.7 905.1,31.7 905.8,31.7 906.5,31.8 907.1,32 907.8,32.3 908.4,32.6 909,32.9 909.6,33.3 910.1,33.8 910.6,34.2 911.1,34.8 911.5,35.4 911.8,36 912.1,36.6 912.4,37.2 912.5,37.9 912.7,38.6 912.7,39.3" />
<path stroke="#000000" stroke-width="2" d="M 912.7,39.3 914.2,39.4 915.4,39.9 916.6,40.5 917.5,41.4 918.4,42.4 919,43.6 919.6,44.9 919.9,46.3 920.2,47.8 920.2,49.3 920.2,50.8 919.9,52.3 919.6,53.7 919,55 918.4,56.2 917.5,57.2 916.6,58.1 915.4,58.7 914.2,59.2 912.7,59.3 913.3,58.7 914,58.1 914.7,57.6 915.5,57.2 916.3,56.8 917.1,56.5 917.9,56.3 918.8,56.1 919.7,56.1 920.5,56.1 921.4,56.1 922.3,56.3 923.1,56.5 923.9,56.8 924.7,57.2" />
<path stroke="#000000" stroke-width="2" d="M 931.4,70" />
<path stroke="#000000" stroke-width="2" d="M 939.4,50" />
<path stroke="#000000" stroke-width="2" d="M 939.4,50 939.3,52 939,53.6 938.5,54.9 937.9,55.8 937.3,56.3 936.5,56.6 935.8,56.7 935.1,56.5 934.4,56.1 933.8,55.6 933.3,55 932.9,54.3 932.7,53.6 932.8,52.8 933.1,52.1 933.6,51.4 934.5,50.9 935.7,50.4 937.4,50.1 939.4,50 949.4,50" />
<path stroke="#000000" stroke-width="2" d="M 979.4,70" />
<path stroke="#000000" stroke-width="2" d="M 999.4,70 1001.1,70 1002.9,69.8 1004.6,69.5 1006.3,69.1 1007.9,68.5 1009.5,67.8 1011,66.9 1012.4,65.9 1013.8,64.8 1015,63.5 1016.1,62.2 1017.1,60.8 1018,59.3 1018.7,57.7 1019.3,56 1019.8,54.3 1020.1,52.6 1020.2,50.9 1020.2,49.1 1020.1,47.4 1019.8,45.7 1019.3,44 1018.7,42.4 1018,40.8 1017.1,39.3 1016.1,37.8 1015,36.5 1013.8,35.3 1012.4,34.2 1011,33.2 1009.5,32.3 1007.9,31.5 1006.3,30.9 1004.6,30.5 1002.9,30.2 1001.1,30 999.4,30 997.6,30.2 995.9,30.5 994.2,30.9 992.6,31.5 991,32.3 989.5,33.2 988.1,34.2 986.7,35.3 985.5,36.5 984.4,37.8 983.4,39.3 982.5,40.8 981.8,42.4 981.2,44 980.7,45.7 980.4,47.4 980.3,49.1 980.3,50.9 980.4,52.6 980.7,54.3 981.2,56 981.8,57.7 982.5,59.3 983.4,60.8 984.4,62.2 985.5,63.5 986.7,64.8 988.1,65.9 989.5,66.9 991,67.8 992.6,68.5 994.2,69.1 995.9,69.5 997.6,69.8 999.4,70" />
<path stroke="#000000" stroke-width="2" d="M 1026.9,70" />
<path stroke="#000000" stroke-width="2" d="M 1036.9,20 1029.2,38.5" />
<path stroke="#000000" stroke-width="2" d="M 1066.9,70" />
<path stroke="#000000" stroke-width="2" d="M 1066.9,30 1076.9,30 1076.9,70" />
<path stroke="#000000" stroke-width="2" d="M 1083.6,70" />
<path stroke="#000000" stroke-width="2" d="M 1083.6,20" />
<path stroke="#000000" stroke-width="2" d="M 1083.6,20 1085,20.1 1086.3,20.6 1087.4,21.2 1088.4,22.1 1089.2,23.1 1089.9,24.3 1090.4,25.6 1090.8,27 1091,28.5 1091.1,30 1091,31.5 1090.8,33 1090.4,34.4 1089.9,35.7 1089.2,36.9 1088.4,37.9 1087.4,38.8 1086.3,39.4 1085,39.9 1083.6,40" />
<path stroke="#000000" stroke-width="2" d="M 1097.7,70" />
<path stroke="#000000" stroke-width="2" d="M 1097.7,20" />
<path stroke="#000000" stroke-width="2" d="M 1097.7,20 1099.2,20.1 1100.4,20.6 1101.6,21.2 1102.5,22.1 1103.4,23.1 1104,24.3 1104.6,25.6 1104.9,27 1105.2,28.5 1105.2,30 1105.2,31.5 1104.9,33 1104.6,34.4 1104,35.7 1103.4,36.9 1102.5,37.9 1101.6,38.8 1100.4,39.4 1099.2,39.9 1097.7,40" />
<path stroke="#000000" stroke-width="2" d="M 1135.2,70" />
<path stroke="#000000" stroke-width="2" d="M 1135.2,30 1155.2,30 1147.6,48.5 1167.6,48.5" />
<path stroke="#000000" stroke-width="2" d="M 1174.2,70" />
<path stroke="#000000" stroke-width="2" d="M 1186.2,56" />
<path stroke="#000000" stroke-width="2" d="M 1186.2,56 1184.2,55.9 1182.6,55.6 1181.4,55.1 1180.5,54.6 1179.9,53.9 1179.6,53.2 1179.6,52.4 1179.8,51.7 1180.1,51 1180.6,50.4 1181.2,49.9 1181.9,49.5 1182.7,49.3 1183.4,49.4 1184.1,49.7 1184.8,50.2 1185.4,51.1 1185.8,52.4 1186.1,54 1186.2,56 1186.2,60" />
<path stroke="#000000" stroke-width="2" d="M 1186.2,60 1185.9,60.9 1185.6,61.7 1185.2,62.4 1184.8,63.1 1184.4,63.8 1184,64.4 1183.5,64.9 1183,65.4 1182.5,65.9 1182,66.2 1181.5,66.6 1180.9,66.9 1180.4,67.2 1179.8,67.4 1179.2,67.6 1178.6,67.7 1178,67.9 1177.4,67.9 1176.8,68 1176.2,68" />
<path stroke="#000000" stroke-width="2" d="M 1216.2,70" />
<path stroke="#000000" stroke-width="2" d="M 1216.2,70 1216.4,70 1216.4,70.2 1216.2,70.2 1216.2,70" />
<path stroke="#000000" stroke-width="2" d="M 1246.4,70" />
<path stroke="#000000" stroke-width="2" d="M 1256.4,50 1257.3,50 1258.2,49.9 1259,49.8 1259.9,49.5 1260.7,49.2 1261.5,48.9 1262.3,48.4 1263,47.9 1263.6,47.4 1264.3,46.8 1264.8,46.1 1265.3,45.4 1265.8,44.6 1266.1,43.8 1266.4,43 1266.6,42.2 1266.8,41.3 1266.9,40.4 1266.9,39.6 1266.8,38.7 1266.6,37.8 1266.4,37 1266.1,36.2 1265.8,35.4 1265.3,34.6 1264.8,33.9 1264.3,33.3 1263.6,32.6 1263,32.1 1262.3,31.6 1261.5,31.1 1260.7,30.8 1259.9,30.5 1259,30.2 1258.2,30.1 1257.3,30 1256.4,30 1255.6,30.1 1254.7,30.2 1253.9,30.5 1253.1,30.8 1252.3,31.1 1251.5,31.6 1250.8,32.1 1250.1,32.6 1249.5,33.3 1249,33.9 1248.5,34.6 1248,35.4 1247.6,36.2 1247.3,37 1247.1,37.8 1247,38.7 1246.9,39.6 1246.9,40.4 1247,41.3 1247.1,42.2 1247.3,43 1247.6,43.8 1248,44.6 1248.5,45.4 1249,46.1 1249.5,46.8 1250.1,47.4 1250.8,47.9 1251.5,48.4 1252.3,48.9 1253.1,49.2 1253.9,49.5 1254.7,49.8 1255.6,49.9 1256.4,50 1256.4,70 1256.4,64 1256.4,63.1 1256.5,62.3 1256.7,61.4 1256.9,60.6 1257.2,59.7 1257.6,58.9 1258,58.2 1258.5,57.5 1259.1,56.8 1259.7,56.2 1260.4,55.6 1261.1,55.1 1261.8,54.7 1262.6,54.3 1263.4,54 1264.3,53.8 1265.1,53.6 1266,53.6" />
<path stroke="#000000" stroke-width="2" d="M 1296.9,70" />
<path stroke="#000000" stroke-width="2" d="M 1296.9,30 1296.9,70 1308.2,58.7" />
<path stroke="#000000" stroke-width="2" d="M 1314.9,70" />
<path stroke="#000000" stroke-width="2" d="M 1314.9,20 1334.9,20 1315.1,39.8 1335.1,39.8" />
<path stroke="#000000" stroke-width="2" d="M 1365.1,70" />
</svg>