<svg xmlns="http://www.w3.org/2000/svg" width="1226.8058857911085" height="110.0" style="fill:none; stroke-linecap:round;">
    <rect width="100%" height="100%" fill="#FFFFFF" />
<path stroke="#000000" stroke-width="2" d="M 550,75" />
<path stroke="#000000" stroke-width="2" d="M 20,30" />
<path stroke="#000000" stroke-width="2" d="M 20,30 22.8,30.3 25.4,31.1 27.6,32.4 29.6,34.2 31.2,36.2 32.6,38.6 33.6,41.3 34.4,44.1 34.9,47 35,50 34.9,53 34.4,55.9 33.6,58.7 32.6,61.4 31.2,63.8 29.6,65.8 27.7,67.6 25.4,68.9 22.9,69.7 20,70" />
<path stroke="#000000" stroke-width="2" d="M 41.7,70" />
<path stroke="#000000" stroke-width="2" d="M 41.7,30 41.9,30 41.9,30.2 41.7,30.2 41.7,30" />
<path stroke="#000000" stroke-width="2" d="M 71.9,70" />
<path stroke="#000000" stroke-width="2" d="M 71.9,70" />
<path stroke="#000000" stroke-width="2" d="M 71.9,70 73,70 74,70.2 74.8,70.4 75.5,70.7 76.1,71 76.5,71.5 76.8,71.9 77.1,72.5 77.1,73.1 77.1,73.8 77,74.4 76.8,75.2 76.4,76 76,76.8 75.5,77.6 74.9,78.4 74.3,79.3 73.5,80.2 72.7,81.1 71.9,82" />
<path stroke="#000000" stroke-width="2" d="M 107.1,70" />
<path stroke="#000000" stroke-width="2" d="M 107.1,70 107.3,70 107.3,70.2 107.1,70.2 107.1,70" />
<path stroke="#000000" stroke-width="2" d="M 114,70" />
<path stroke="#000000" stroke-width="2" d="M 118,30 135,47" />
<path stroke="#000000" stroke-width="2" d="M 151.9,30 112.3,69.6" />
<path stroke="#000000" stroke-width="2" d="M 158.6,70" />
<path stroke="#000000" stroke-width="2" d="M 170.6,56" />
<path stroke="#000000" stroke-width="2" d="M 170.6,56 168.6,55.9 167,55.6 165.7,55.1 164.9,54.6 164.3,53.9 164,53.2 164,52.4 164.1,51.7 164.5,51 165,50.4 165.6,49.9 166.3,49.5 167,49.3 167.8,49.4 168.5,49.7 169.2,50.2 169.8,51.1 170.2,52.4 170.5,54 170.6,56 170.6,60" />
<path stroke="#000000" stroke-width="2" d="M 170.6,60 170.3,60.9 170,61.7 169.6,62.4 169.2,63.1 168.8,63.8 168.3,64.4 167.9,64.9 167.4,65.4 166.9,65.9 166.4,66.2 165.8,66.6 165.3,66.9 164.7,67.2 164.2,67.4 163.6,67.6 163,67.7 162.4,67.9 161.8,67.9 161.2,68 160.6,68 160.6,88 160.6,82 160.6,81.1 160.7,80.3 160.8,79.4 161.1,78.6 161.4,77.7 161.7,76.9 162.2,76.2 162.7,75.5 163.2,74.8 163.8,74.2 164.5,73.6 165.2,73.1 166,72.7 166.8,72.3 167.6,72 168.4,71.8 169.3,71.6 170.2,71.6" />
<path stroke="#000000" stroke-width="2" d="M 200.6,70" />
<path stroke="#000000" stroke-width="2" d="M 200.6,30" />
<path stroke="#000000" stroke-width="2" d="M 200.6,30 200.8,30 201.2,30 201.8,30 202.7,30.1 203.7,30.2 204.9,30.3 206.2,30.4 207.7,30.6 209.1,30.9 210.6,31.2 212.1,31.7 213.6,32.2 215,32.7 216.3,33.4 217.5,34.2 218.5,35.1 219.4,36.1 220.1,37.3 220.5,38.6 220.6,40" />
<path stroke="#000000" stroke-width="2" d="M 220.6,40 222.5,42.1 223.9,44.1 224.6,45.7 224.9,47.2 224.8,48.4 224.4,49.4 223.7,50.2 222.8,50.8 221.7,51.1 220.6,51.2 219.5,51.1 218.5,50.8 217.5,50.2 216.8,49.5 216.4,48.4 216.3,47.2 216.6,45.7 217.4,44.1 218.7,42.1 220.6,40" />
<path stroke="#000000" stroke-width="2" d="M 220.6,40 220.6,39.9 220.6,39.7 220.7,39.4 220.8,39 220.9,38.4 221.2,37.8 221.5,37.2 221.9,36.5 222.4,35.7 223.1,35 223.9,34.3 224.9,33.5 226.1,32.8 227.5,32.2 229.1,31.6 230.9,31 232.9,30.6 235.2,30.3 237.8,30.1 240.6,30 260.6,30" />
<path stroke="#000000" stroke-width="2" d="M 267.3,70" />
<path stroke="#000000" stroke-width="2" d="M 267.3,46 267.3,44.6 267.4,43.2 267.6,41.8 268,40.5 268.5,39.2 269.1,37.9 269.8,36.7 270.6,35.6 271.5,34.5 272.5,33.5 273.5,32.6 274.7,31.8 275.9,31.1 277.1,30.5 278.5,30 279.8,29.7 281.2,29.4 282.6,29.3 284,29.3 285.4,29.4 286.7,29.7 288.1,30 289.4,30.5 290.7,31.1 291.9,31.8 293,32.6 294.1,33.5 295.1,34.5 296,35.6 296.8,36.7 297.5,37.9 298,39.2 298.5,40.5 298.9,41.8 299.1,43.2 299.2,44.6" />
<path stroke="#000000" stroke-width="2" d="M 305.9,70" />
<path stroke="#000000" stroke-width="2" d="M 305.9,50 305.9,70 305.9,64 305.9,63.1 306,62.3 306.1,61.4 306.4,60.6 306.7,59.7 307,58.9 307.5,58.2 308,57.5 308.5,56.8 309.2,56.2 309.8,55.6 310.5,55.1 311.3,54.7 312.1,54.3 312.9,54 313.7,53.8 314.6,53.6 315.5,53.6 335.5,53.6" />
<path stroke="#000000" stroke-width="2" d="M 365.5,70" />
<path stroke="#000000" stroke-width="2" d="M 365.5,30 365.5,70 365.5,58 365.5,56.3 365.6,54.5 365.9,52.8 366.4,51.1 367,49.5 367.7,47.9 368.6,46.4 369.6,45 370.7,43.6 371.9,42.4 373.3,41.3 374.7,40.3 376.2,39.4 377.8,38.7 379.4,38.1 381.1,37.6 382.8,37.3 384.6,37.1" />
<path stroke="#000000" stroke-width="2" d="M 391.2,70" />
<path stroke="#000000" stroke-width="2" d="M 391.2,20 396.2,20 396.2,40" />
<path stroke="#000000" stroke-width="2" d="M 402.9,70" />
<path stroke="#000000" stroke-width="2" d="M 402.9,55" />
<path stroke="#000000" stroke-width="2" d="M 402.9,55 404.9,54.9 406.6,54.6 407.8,54.1 408.7,53.6 409.2,52.9 409.5,52.2 409.6,51.4 409.4,50.7 409,50 408.5,49.4 407.9,48.9 407.2,48.5 406.5,48.3 405.7,48.4 405,48.7 404.4,49.2 403.8,50.1 403.3,51.4 403,53 402.9,55 402.9,70" />
<path stroke="#000000" stroke-width="2" d="M 402.9,70 404.3,70.1 405.6,70.6 406.7,71.2 407.7,72.1 408.5,73.1 409.2,74.3 409.7,75.6 410.1,77 410.3,78.5 410.4,80 410.3,81.5 410.1,83 409.7,84.4 409.2,85.7 408.5,86.9 407.7,87.9 406.7,88.8 405.6,89.4 404.3,89.9 402.9,90" />
<path stroke="#000000" stroke-width="2" d="M 440.4,70" />
<path stroke="#000000" stroke-width="2" d="M 460.4,30 445.1,67" />
<path stroke="#000000" stroke-width="2" d="M 467.1,70" />
<path stroke="#000000" stroke-width="2" d="M 467.1,50 467.1,50.7 467.1,51.4 467.3,52.1 467.4,52.8 467.7,53.4 468,54 468.3,54.6 468.7,55.2 469.2,55.8 469.7,56.2 470.2,56.7 470.8,57.1 471.4,57.4 472,57.7 472.7,58 473.3,58.2 474,58.3 474.7,58.3 475.4,58.3 476.1,58.3 476.8,58.2 477.5,58 478.1,57.7 478.8,57.4 479.4,57.1 479.9,56.7 480.5,56.2 481,55.8 481.4,55.2 481.8,54.6 482.2,54 482.5,53.4 482.7,52.8 482.9,52.1 483,51.4 483.1,50.7" />
<path stroke="#000000" stroke-width="2" d="M 489.7,70" />
<path stroke="#000000" stroke-width="2" d="M 489.7,50 489.7,70 495.4,64.3" />
<path stroke="#000000" stroke-width="2" d="M 502.1,70" />
<path stroke="#000000" stroke-width="2" d="M 502.1,20 502.1,40 502.1,34 502.1,33.1 502.1,32.3 502.3,31.4 502.5,30.6 502.8,29.7 503.2,28.9 503.6,28.2 504.1,27.5 504.7,26.8 505.3,26.2 506,25.6 506.7,25.1 507.4,24.7 508.2,24.3 509,24 509.9,23.8 510.7,23.6 511.6,23.6" />
<path stroke="#000000" stroke-width="2" d="M 541.6,70" />
<path stroke="#000000" stroke-width="2" d="M 541.6,70 541.8,70 541.8,70.2 541.6,70.2 541.6,70" />
<path stroke="#000000" stroke-width="2" d="M 548.5,70" />
<path stroke="#000000" stroke-width="2" d="M 548.5,30 563.8,67" />
<path stroke="#000000" stroke-width="2" d="M 570.4,70" />
<path stroke="#000000" stroke-width="2" d="M 570.4,50 590.4,50" />
<path stroke="#000000" stroke-width="2" d="M 620.4,70" />
<path stroke="#000000" stroke-width="2" d="M 640.4,30 625.1,67" />
<path stroke="#000000" stroke-width="2" d="M 647.1,70" />
<path stroke="#000000" stroke-width="2" d="M 647.1,50 654.8,68.5" />
<path stroke="#000000" stroke-width="2" d="M 661.4,70" />
<path stroke="#000000" stroke-width="2" d="M 661.4,28 661.4,27.3 661.5,26.6 661.6,25.9 661.8,25.2 662,24.6 662.3,24 662.7,23.4 663.1,22.8 663.5,22.2 664,21.8 664.6,21.3 665.1,20.9 665.7,20.6 666.4,20.3 667,20 667.7,19.8 668.4,19.7 669.1,19.7 669.8,19.7 670.5,19.7 671.2,19.8 671.8,20 672.5,20.3 673.1,20.6 673.7,20.9 674.3,21.3 674.8,21.8 675.3,22.2 675.8,22.8 676.2,23.4 676.5,24 676.8,24.6 677.1,25.2 677.2,25.9 677.4,26.6 677.4,27.3" />
<path stroke="#000000" stroke-width="2" d="M 707.4,70" />
<path stroke="#000000" stroke-width="2" d="M 707.4,30 707.4,70 718.7,58.7" />
<path stroke="#000000" stroke-width="2" d="M 725.4,70" />
<path stroke="#000000" stroke-width="2" d="M 725.4,30 725.6,30 725.6,30.2 725.4,30.2 725.4,30" />
<path stroke="#000000" stroke-width="2" d="M 755.6,70" />
<path stroke="#000000" stroke-width="2" d="M 755.6,30 765.6,30 765.6,70" />
<path stroke="#000000" stroke-width="2" d="M 772.3,70" />
<path stroke="#000000" stroke-width="2" d="M 772.3,50 772.3,70 772.3,64 772.3,63.1 772.3,62.3 772.5,61.4 772.7,60.6 773,59.7 773.4,58.9 773.8,58.2 774.3,57.5 774.9,56.8 775.5,56.2 776.2,55.6 776.9,55.1 777.6,54.7 778.4,54.3 779.3,54 780.1,53.8 781,53.6 781.8,53.6" />
<path stroke="#000000" stroke-width="2" d="M 811.8,70" />
<path stroke="#000000" stroke-width="2" d="M 811.8,70 812,70 812,70.2 811.8,70.2 811.8,70" />
<path stroke="#000000" stroke-width="2" d="M 818.7,70" />
<path stroke="#000000" stroke-width="2" d="M 818.7,30" />
<path stroke="#000000" stroke-width="2" d="M 818.7,30 821.5,30.3 824.1,31.1 826.3,32.4 828.3,34.2 829.9,36.2 831.3,38.6 832.3,41.3 833.1,44.1 833.5,47 833.7,50 833.5,53 833.1,55.9 832.3,58.7 831.3,61.4 829.9,63.8 828.3,65.8 826.3,67.6 824.1,68.9 821.5,69.7 818.7,70" />
<path stroke="#000000" stroke-width="2" d="M 840.4,70" />
<path stroke="#000000" stroke-width="2" d="M 840.4,20 840.4,40 846,34.3 866,34.3" />
<path stroke="#000000" stroke-width="2" d="M 896,70" />
<path stroke="#000000" stroke-width="2" d="M 896,70 896.2,70 896.2,70.2 896,70.2 896,70" />
<path stroke="#000000" stroke-width="2" d="M 926.2,70" />
<path stroke="#000000" stroke-width="2" d="M 926.2,70 926.4,70 926.4,70.2 926.2,70.2 926.2,70" />
<path stroke="#000000" stroke-width="2" d="M 933.1,70" />
<path stroke="#000000" stroke-width="2" d="M 935.1,50 940.4,37.1 940.6,36.7 940.7,36.4 940.8,36.1 940.8,35.7 940.8,35.4 940.8,35 940.8,34.7 940.7,34.3 940.6,34 940.4,33.7 940.3,33.4 940.1,33.1 939.9,32.8 939.6,32.5 939.4,32.3 939.1,32.1 938.8,31.9 938.5,31.7 938.2,31.6 937.8,31.5 937.5,31.4 937.2,31.4 936.8,31.4 936.5,31.4 936.1,31.4 935.8,31.5 935.4,31.6 935.1,31.7 934.8,31.9 934.5,32.1 934.2,32.3 934,32.5 933.7,32.8 933.5,33.1 933.3,33.4 933.2,33.7 933.1,34 932.9,34.3 932.9,34.7 932.8,35 932.8,35.4 932.8,35.7 932.9,36.1 932.9,36.4 933.1,36.7 933.2,37.1 933.3,37.4 933.5,37.7 933.7,37.9 934,38.2 934.2,38.4 934.5,38.7 934.8,38.8 935.1,39 935.4,39.1 935.8,39.2 936.1,39.3 936.5,39.4 936.8,39.4 937.2,39.4 950.1,34 950.1,34.7 950.2,35.4 950.3,36.1 950.5,36.8 950.7,37.4 951,38 951.3,38.6 951.7,39.2 952.2,39.8 952.7,40.2 953.2,40.7 953.8,41.1 954.4,41.4 955,41.7 955.7,42 956.4,42.2 957,42.3 957.7,42.3 958.4,42.3 959.1,42.3 959.8,42.2 960.5,42 961.1,41.7 961.8,41.4 962.4,41.1 963,40.7 963.5,40.2 964,39.8 964.4,39.2 964.8,38.6 965.2,38 965.5,37.4 965.7,36.8 965.9,36.1 966,35.4 966.1,34.7" />
<path stroke="#000000" stroke-width="2" d="M 966.1,34.7 967.5,34.8 968.8,35.3 969.9,35.9 970.9,36.8 971.7,37.8 972.4,39 972.9,40.3 973.3,41.7 973.5,43.2 973.6,44.7 973.5,46.2 973.3,47.7 972.9,49.1 972.4,50.4 971.7,51.6 970.9,52.6 969.9,53.5 968.8,54.1 967.5,54.6 966.1,54.7 966.7,54.1 967.4,53.5 968.1,53 968.8,52.6 969.6,52.2 970.4,51.9 971.3,51.7 972.1,51.5 973,51.5 973.9,51.5 974.8,51.5 975.6,51.7 976.5,51.9 977.3,52.2 978.1,52.6" />
<path stroke="#000000" stroke-width="2" d="M 1008.1,70" />
<path stroke="#000000" stroke-width="2" d="M 1018.1,30 1018.6,30 1019.1,30 1019.6,30.1 1020.1,30.3 1020.6,30.5 1021.1,30.7 1021.6,30.9 1022,31.2 1022.4,31.6 1022.8,31.9 1023.1,32.3 1023.4,32.8 1023.7,33.2 1023.9,33.7 1024.1,34.2 1024.2,34.7 1024.3,35.2 1024.3,35.7 1024.3,36.3 1024.3,36.8 1024.2,37.3 1024.1,37.8 1023.9,38.3 1023.7,38.8 1023.4,39.2 1023.1,39.6 1022.8,40 1022.4,40.4 1022,40.8 1021.6,41.1 1021.1,41.3 1020.6,41.5 1020.1,41.7 1019.6,41.9 1019.1,41.9 1018.6,42 1018.1,42 1017.5,41.9 1017,41.9 1016.5,41.7 1016,41.5 1015.6,41.3 1015.1,41.1 1014.7,40.8 1014.3,40.4 1013.9,40 1013.6,39.6 1013.3,39.2 1013,38.8 1012.8,38.3 1012.6,37.8 1012.5,37.3 1012.4,36.8 1012.3,36.3 1012.3,35.7 1012.4,35.2 1012.5,34.7 1012.6,34.2 1012.8,33.7 1013,33.2 1013.3,32.8 1013.6,32.3 1013.9,31.9 1014.3,31.6 1014.7,31.2 1015.1,30.9 1015.6,30.7 1016,30.5 1016.5,30.3 1017,30.1 1017.5,30 1018.1,30 1018.1,50 1010.4,68.5 1012.7,62.9 1013,62.1 1013.4,61.4 1013.9,60.6 1014.4,59.9 1015,59.3 1015.7,58.7 1016.4,58.2 1017.1,57.7 1017.9,57.3 1018.7,57 1019.5,56.7 1020.4,56.5" />
<path stroke="#000000" stroke-width="2" d="M 1054.3,70" />
<path stroke="#000000" stroke-width="2" d="M 1074.3,30 1059,67 1063.6,55.9 1064.3,54.3 1065.1,52.7 1066,51.2 1067.1,49.9 1068.3,48.6 1069.5,47.4 1070.9,46.3 1072.4,45.4 1074,44.6 1075.6,43.9 1077.2,43.4 1078.9,43" />
<path stroke="#000000" stroke-width="2" d="M 1085.6,70" />
<path stroke="#000000" stroke-width="2" d="M 1085.6,30" />
<path stroke="#000000" stroke-width="2" d="M 1085.6,30 1088.4,30.3 1091,31.1 1093.2,32.4 1095.2,34.2 1096.8,36.2 1098.2,38.6 1099.2,41.3 1100,44.1 1100.4,47 1100.6,50 1100.4,53 1100,55.9 1099.2,58.7 1098.2,61.4 1096.8,63.8 1095.2,65.8 1093.2,67.6 1091,68.9 1088.4,69.7 1085.6,70" />
<path stroke="#000000" stroke-width="2" d="M 1130.6,70" />
<path stroke="#000000" stroke-width="2" d="M 1150.6,30 1135.3,67" />
<path stroke="#000000" stroke-width="2" d="M 1157.3,70" />
<path stroke="#000000" stroke-width="2" d="M 1157.3,50 1157.3,70 1157.3,64 1157.3,63.1 1157.3,62.3 1157.5,61.4 1157.7,60.6 1158,59.7 1158.4,58.9 1158.8,58.2 1159.3,57.5 1159.9,56.8 1160.5,56.2 1161.2,55.6 1161.9,55.1 1162.6,54.7 1163.4,54.3 1164.2,54 1165.1,53.8 1165.9,53.6 1166.8,53.6" />
<path stroke="#000000" stroke-width="2" d="M 1173.5,70" />
<path stroke="#000000" stroke-width="2" d="M 1173.5,25" />
<path stroke="#000000" stroke-width="2" d="M 1173.5,25 1175.5,24.9 1177.1,24.6 1178.4,24.1 1179.2,23.6 1179.8,22.9 1180.1,22.2 1180.1,21.4 1180,20.7 1179.6,20 1179.1,19.4 1178.5,18.9 1177.8,18.5 1177.1,18.3 1176.3,18.4 1175.6,18.7 1174.9,19.2 1174.3,20.1 1173.9,21.4 1173.6,23 1173.5,25 1173.5,40" />
<path stroke="#000000" stroke-width="2" d="M 1186.8,70" />
<path stroke="#000000" stroke-width="2" d="M 1186.8,50 1206.8,50" />
<path stroke="#000000" stroke-width="2" d="M 1236.8,70" />
</svg>