<svg xmlns="http://www.w3.org/2000/svg" width="933.9274003240421" height="110.0" style="fill:none; stroke-linecap:round;">
    <rect width="100%" height="100%" fill="#FFFFFF" />
<path stroke="#000000" stroke-width="2" d="M 550,75" />
<path stroke="#000000" stroke-width="2" d="M 20,30 20,70 31.3,58.7" />
<path stroke="#000000" stroke-width="2" d="M 38,70" />
<path stroke="#000000" stroke-width="2" d="M 38,20 58,20" />
<path stroke="#000000" stroke-width="2" d="M 88,70" />
<path stroke="#000000" stroke-width="2" d="M 92,30 109,47" />
<path stroke="#000000" stroke-width="2" d="M 125.9,30 86.3,69.6" />
<path stroke="#000000" stroke-width="2" d="M 132.6,70" />
<path stroke="#000000" stroke-width="2" d="M 132.6,70 140.2,51.5 140.2,71.5 140.2,65.5 140.2,64.7 140.3,63.8 140.5,62.9 140.7,62.1 141,61.3 141.4,60.5 141.8,59.7 142.3,59 142.9,58.3 143.5,57.7 144.1,57.2 144.9,56.7 145.6,56.2 146.4,55.8 147.2,55.5" />
<path stroke="#000000" stroke-width="2" d="M 177.2,70" />
<path stroke="#000000" stroke-width="2" d="M 177.2,30 192.5,67" />
<path stroke="#000000" stroke-width="2" d="M 199.2,70" />
<path stroke="#000000" stroke-width="2" d="M 199.2,20 219.2,20 211.5,38.5" />
<path stroke="#000000" stroke-width="2" d="M 249.2,70" />
<path stroke="#000000" stroke-width="2" d="M 269.2,30 253.9,67" />
<path stroke="#000000" stroke-width="2" d="M 275.9,70" />
<path stroke="#000000" stroke-width="2" d="M 275.9,50 276.1,50 276.1,50.2 275.9,50.2 275.9,50" />
<path stroke="#000000" stroke-width="2" d="M 306.1,70" />
<path stroke="#000000" stroke-width="2" d="M 306.1,70 306.3,70 306.3,70.2 306.1,70.2 306.1,70" />
<path stroke="#000000" stroke-width="2" d="M 336.3,70" />
<path stroke="#000000" stroke-width="2" d="M 340.3,30 357.2,47" />
<path stroke="#000000" stroke-width="2" d="M 374.2,30 334.6,69.6" />
<path stroke="#000000" stroke-width="2" d="M 380.9,70" />
<path stroke="#000000" stroke-width="2" d="M 380.9,70 388.5,51.5 388.5,71.5 388.5,65.5 388.5,64.7 388.6,63.8 388.8,62.9 389,62.1 389.3,61.3 389.6,60.5 390.1,59.7 390.6,59 391.1,58.3 391.8,57.7 392.4,57.2 393.1,56.7 393.9,56.2 394.7,55.8 395.5,55.5" />
<path stroke="#000000" stroke-width="2" d="M 425.5,70" />
<path stroke="#000000" stroke-width="2" d="M 425.5,30 465.5,30" />
<path stroke="#000000" stroke-width="2" d="M 472.2,70" />
<path stroke="#000000" stroke-width="2" d="M 482.2,50 474.5,68.5" />
<path stroke="#000000" stroke-width="2" d="M 512.2,70" />
<path stroke="#000000" stroke-width="2" d="M 516.2,30 533.1,47" />
<path stroke="#000000" stroke-width="2" d="M 550.1,30 510.5,69.6" />
<path stroke="#000000" stroke-width="2" d="M 556.8,70" />
<path stroke="#000000" stroke-width="2" d="M 566.8,20 559.1,38.5" />
<path stroke="#000000" stroke-width="2" d="M 596.8,70" />
<path stroke="#000000" stroke-width="2" d="M 596.8,40" />
<path stroke="#000000" stroke-width="2" d="M 596.8,40 600.8,39.8 604.1,39.2 606.5,38.3 608.3,37.1 609.4,35.8 610,34.3 610.1,32.8 609.7,31.4 609,30 608,28.8 606.8,27.7 605.4,27 604,26.7 602.5,26.8 601,27.3 599.7,28.5 598.5,30.2 597.6,32.7 597,35.9 596.8,40 596.8,70" />
<path stroke="#000000" stroke-width="2" d="M 616.8,70" />
<path stroke="#000000" stroke-width="2" d="M 624.8,50" />
<path stroke="#000000" stroke-width="2" d="M 624.8,50 624.7,52 624.4,53.6 623.9,54.9 623.3,55.8 622.7,56.3 621.9,56.6 621.2,56.7 620.4,56.5 619.7,56.1 619.1,55.6 618.6,55 618.3,54.3 618.1,53.6 618.1,52.8 618.4,52.1 619,51.4 619.9,50.9 621.1,50.4 622.7,50.1 624.8,50 634.8,50" />
<path stroke="#000000" stroke-width="2" d="M 641.4,70" />
<path stroke="#000000" stroke-width="2" d="M 641.4,55" />
<path stroke="#000000" stroke-width="2" d="M 641.4,55 643.5,54.9 645.1,54.6 646.3,54.1 647.2,53.6 647.8,52.9 648,52.2 648.1,51.4 647.9,50.7 647.6,50 647.1,49.4 646.4,48.9 645.7,48.5 645,48.3 644.3,48.4 643.5,48.7 642.9,49.2 642.3,50.1 641.8,51.4 641.5,53 641.4,55 641.4,70" />
<path stroke="#000000" stroke-width="2" d="M 641.4,70 642.9,70.1 644.1,70.6 645.3,71.2 646.2,72.1 647.1,73.1 647.7,74.3 648.3,75.6 648.6,77 648.9,78.5 648.9,80 648.9,81.5 648.6,83 648.3,84.4 647.7,85.7 647.1,86.9 646.2,87.9 645.3,88.8 644.1,89.4 642.9,89.9 641.4,90" />
<path stroke="#000000" stroke-width="2" d="M 678.9,70" />
<path stroke="#000000" stroke-width="2" d="M 698.9,30 683.6,67" />
<path stroke="#000000" stroke-width="2" d="M 705.6,70" />
<path stroke="#000000" stroke-width="2" d="M 705.6,50 705.6,70" />
<path stroke="#000000" stroke-width="2" d="M 712.3,70" />
<path stroke="#000000" stroke-width="2" d="M 720.3,20 710.4,29.9 720.3,39.8" />
<path stroke="#000000" stroke-width="2" d="M 726.9,70" />
<path stroke="#000000" stroke-width="2" d="M 726.9,20 726.9,40 726.9,34 726.9,33.1 727,32.3 727.2,31.4 727.4,30.6 727.7,29.7 728,28.9 728.5,28.2 729,27.5 729.5,26.8 730.2,26.2 730.8,25.6 731.5,25.1 732.3,24.7 733.1,24.3 733.9,24 734.8,23.8 735.6,23.6 736.5,23.6" />
<path stroke="#000000" stroke-width="2" d="M 766.5,70" />
<path stroke="#000000" stroke-width="2" d="M 766.5,70" />
<path stroke="#000000" stroke-width="2" d="M 766.5,70 767.6,70 768.6,70.2 769.4,70.4 770.1,70.7 770.7,71 771.1,71.5 771.5,71.9 771.7,72.5 771.8,73.1 771.7,73.8 771.6,74.4 771.4,75.2 771.1,76 770.6,76.8 770.1,77.6 769.6,78.4 768.9,79.3 768.2,80.2 767.4,81.1 766.5,82" />
<path stroke="#000000" stroke-width="2" d="M 801.8,70" />
<path stroke="#000000" stroke-width="2" d="M 801.8,70 817.1,33 857.1,33" />
<path stroke="#000000" stroke-width="2" d="M 863.7,70" />
<path stroke="#000000" stroke-width="2" d="M 863.7,50 883.7,50" />
<path stroke="#000000" stroke-width="2" d="M 913.7,70" />
<path stroke="#000000" stroke-width="2" d="M 913.7,70 913.9,70 913.9,70.2 913.7,70.2 913.7,70" />
<path stroke="#000000" stroke-width="2" d="M 943.9,70" />
</svg>