<svg xmlns="http://www.w3.org/2000/svg" width="1201.5565306070007" height="102.0" style="fill:none; stroke-linecap:round;">
    <rect width="100%" height="100%" fill="#FFFFFF" />
<path stroke="#000000" stroke-width="2" d="M 550,75" />
<path stroke="#000000" stroke-width="2" d="M 20,30 30,30 30,70" />
<path stroke="#000000" stroke-width="2" d="M 36.7,70" />
<path stroke="#000000" stroke-width="2" d="M 36.7,50 36.7,70 36.7,64 36.7,63.1 36.7,62.3 36.9,61.4 37.1,60.6 37.4,59.7 37.8,58.9 38.2,58.2 38.7,57.5 39.3,56.8 39.9,56.2 40.6,55.6 41.3,55.1 42,54.7 42.8,54.3 43.7,54 44.5,53.8 45.4,53.6 46.2,53.6" />
<path stroke="#000000" stroke-width="2" d="M 76.2,70" />
<path stroke="#000000" stroke-width="2" d="M 92.2,30 72.4,49.8 92.2,69.6" />
<path stroke="#000000" stroke-width="2" d="M 98.9,70" />
<path stroke="#000000" stroke-width="2" d="M 98.9,40" />
<path stroke="#000000" stroke-width="2" d="M 98.9,40 102.9,39.8 106.2,39.2 108.6,38.3 110.4,37.1 111.5,35.8 112.1,34.3 112.2,32.8 111.8,31.4 111.1,30 110.1,28.8 108.9,27.7 107.5,27 106.1,26.7 104.6,26.8 103.1,27.3 101.8,28.5 100.6,30.2 99.7,32.7 99.1,35.9 98.9,40 98.9,70" />
<path stroke="#000000" stroke-width="2" d="M 142.2,70" />
<path stroke="#000000" stroke-width="2" d="M 158.2,30" />
<path stroke="#000000" stroke-width="2" d="M 158.2,30 158,34.1 157.4,37.3 156.5,39.8 155.3,41.5 154,42.7 152.5,43.2 151,43.3 149.6,43 148.2,42.3 146.9,41.2 145.9,40 145.2,38.6 144.9,37.2 145,35.7 145.5,34.2 146.7,32.9 148.4,31.7 150.9,30.8 154.1,30.2 158.2,30 178.2,30" />
<path stroke="#000000" stroke-width="2" d="M 184.9,70" />
<path stroke="#000000" stroke-width="2" d="M 184.9,20 184.9,40 184.9,34 184.9,33.1 184.9,32.3 185.1,31.4 185.3,30.6 185.6,29.7 186,28.9 186.4,28.2 186.9,27.5 187.5,26.8 188.1,26.2 188.8,25.6 189.5,25.1 190.2,24.7 191,24.3 191.8,24 192.7,23.8 193.5,23.6 194.4,23.6" />
<path stroke="#000000" stroke-width="2" d="M 201.1,70" />
<path stroke="#000000" stroke-width="2" d="M 201.1,20 221.1,20 213.4,38.5" />
<path stroke="#000000" stroke-width="2" d="M 213.4,38.5 215.5,38.4 217.1,38.1 218.3,37.6 219.2,37 219.8,36.4 220,35.6 220.1,34.9 219.9,34.2 219.6,33.5 219.1,32.9 218.4,32.4 217.8,32 217,31.8 216.3,31.9 215.5,32.1 214.9,32.7 214.3,33.6 213.8,34.8 213.5,36.4 213.4,38.5 213.4,53.5" />
<path stroke="#000000" stroke-width="2" d="M 251.1,70" />
<path stroke="#000000" stroke-width="2" d="M 267.1,30 247.3,49.8 267.1,69.6" />
<path stroke="#000000" stroke-width="2" d="M 273.8,70" />
<path stroke="#000000" stroke-width="2" d="M 273.8,20" />
<path stroke="#000000" stroke-width="2" d="M 273.8,20 275.2,20.1 276.5,20.6 277.6,21.2 278.6,22.1 279.4,23.1 280.1,24.3 280.6,25.6 281,27 281.2,28.5 281.3,30 281.2,31.5 281,33 280.6,34.4 280.1,35.7 279.4,36.9 278.6,37.9 277.6,38.8 276.5,39.4 275.2,39.9 273.8,40" />
<path stroke="#000000" stroke-width="2" d="M 311.3,70" />
<path stroke="#000000" stroke-width="2" d="M 311.3,30 311.3,70" />
<path stroke="#000000" stroke-width="2" d="M 317.9,70" />
<path stroke="#000000" stroke-width="2" d="M 317.9,20 337.9,20" />
<path stroke="#000000" stroke-width="2" d="M 367.9,70" />
<path stroke="#000000" stroke-width="2" d="M 377.9,30 377,30 376.2,30.1 375.3,30.2 374.5,30.5 373.7,30.8 372.9,31.1 372.1,31.6 371.4,32.1 370.7,32.6 370.1,33.2 369.5,33.9 369,34.6 368.6,35.4 368.2,36.2 367.9,37 367.7,37.8 367.6,38.7 367.5,39.6 367.5,40.4 367.6,41.3 367.7,42.2 367.9,43 368.2,43.8 368.6,44.6 369,45.4 369.5,46.1 370.1,46.7 370.7,47.4 371.4,47.9 372.1,48.4 372.9,48.9 373.7,49.2 374.5,49.5 375.3,49.8 376.2,49.9 377,50" />
<path stroke="#000000" stroke-width="2" d="M 377,50 378.5,50.1 379.7,50.5 380.9,51.2 381.8,52.1 382.7,53.1 383.3,54.3 383.9,55.6 384.2,57 384.5,58.5 384.5,60 384.5,61.5 384.2,62.9 383.9,64.3 383.3,65.7 382.7,66.9 381.8,67.9 380.9,68.8 379.7,69.4 378.5,69.8 377,70" />
<path stroke="#000000" stroke-width="2" d="M 414.5,70" />
<path stroke="#000000" stroke-width="2" d="M 414.5,30 424.5,30 424.5,70" />
<path stroke="#000000" stroke-width="2" d="M 431.2,70" />
<path stroke="#000000" stroke-width="2" d="M 431.2,50 431.2,50.7 431.3,51.4 431.4,52.1 431.6,52.8 431.8,53.4 432.1,54 432.5,54.6 432.9,55.2 433.3,55.8 433.8,56.2 434.3,56.7 434.9,57.1 435.5,57.4 436.1,57.7 436.8,58 437.5,58.2 438.2,58.3 438.9,58.3 439.6,58.3 440.2,58.3 440.9,58.2 441.6,58 442.3,57.7 442.9,57.4 443.5,57.1 444.1,56.7 444.6,56.2 445.1,55.8 445.6,55.2 446,54.6 446.3,54 446.6,53.4 446.8,52.8 447,52.1 447.1,51.4 447.2,50.7 447.2,50 447.3,49.3 447.4,48.6 447.6,47.9 447.8,47.3 448.1,46.7 448.4,46.1 448.8,45.5 449.3,44.9 449.8,44.5 450.3,44 450.9,43.6 451.5,43.3 452.1,43 452.8,42.7 453.5,42.5 454.1,42.4 454.8,42.4 455.5,42.4 456.2,42.4 456.9,42.5 457.6,42.7 458.3,43 458.9,43.3 459.5,43.6 460.1,44 460.6,44.5 461.1,44.9 461.5,45.5 461.9,46.1 462.3,46.7 462.6,47.3 462.8,47.9 463,48.6 463.1,49.3 463.2,50" />
<path stroke="#000000" stroke-width="2" d="M 493.2,70" />
<path stroke="#000000" stroke-width="2" d="M 493.2,70" />
<path stroke="#000000" stroke-width="2" d="M 493.2,70 494.3,70 495.3,70.2 496.1,70.4 496.8,70.7 497.4,71 497.8,71.5 498.2,71.9 498.4,72.5 498.5,73.1 498.4,73.8 498.3,74.4 498.1,75.2 497.8,76 497.3,76.8 496.8,77.6 496.3,78.4 495.6,79.3 494.9,80.2 494.1,81.1 493.2,82" />
<path stroke="#000000" stroke-width="2" d="M 528.5,70" />
<path stroke="#000000" stroke-width="2" d="M 528.5,30 528.5,70 539.8,58.7" />
<path stroke="#000000" stroke-width="2" d="M 546.4,70" />
<path stroke="#000000" stroke-width="2" d="M 546.4,50" />
<path stroke="#000000" stroke-width="2" d="M 546.4,50 547.9,50.1 549.1,50.6 550.3,51.2 551.2,52.1 552.1,53.1 552.7,54.3 553.3,55.6 553.6,57 553.9,58.5 553.9,60 553.9,61.5 553.6,63 553.3,64.4 552.7,65.7 552.1,66.9 551.2,67.9 550.3,68.8 549.1,69.4 547.9,69.9 546.4,70" />
<path stroke="#000000" stroke-width="2" d="M 583.9,70" />
<path stroke="#000000" stroke-width="2" d="M 583.9,30 603.9,30" />
<path stroke="#000000" stroke-width="2" d="M 603.9,30 605.4,30.1 606.6,30.6 607.8,31.2 608.7,32.1 609.6,33.1 610.2,34.3 610.8,35.6 611.1,37 611.4,38.5 611.4,40 611.4,41.5 611.1,43 610.8,44.4 610.2,45.7 609.6,46.9 608.7,47.9 607.8,48.8 606.6,49.4 605.4,49.9 603.9,50" />
<path stroke="#000000" stroke-width="2" d="M 603.9,50 605.4,50.1 606.6,50.6 607.8,51.2 608.7,52.1 609.6,53.1 610.2,54.3 610.8,55.6 611.1,57 611.4,58.5 611.4,60 611.4,61.5 611.1,63 610.8,64.4 610.2,65.7 609.6,66.9 608.7,67.9 607.8,68.8 606.6,69.4 605.4,69.9 603.9,70" />
<path stroke="#000000" stroke-width="2" d="M 641.4,70" />
<path stroke="#000000" stroke-width="2" d="M 641.4,30" />
<path stroke="#000000" stroke-width="2" d="M 641.4,30 641.6,30 642,30 642.6,30 643.5,30.1 644.6,30.2 645.8,30.3 647.1,30.4 648.5,30.6 649.9,30.9 651.4,31.2 652.9,31.7 654.4,32.2 655.8,32.7 657.1,33.4 658.3,34.2 659.4,35.1 660.2,36.1 660.9,37.3 661.3,38.6 661.4,40" />
<path stroke="#000000" stroke-width="2" d="M 661.4,40 663.4,42.1 664.7,44.1 665.4,45.7 665.8,47.2 665.7,48.4 665.2,49.4 664.5,50.2 663.6,50.8 662.5,51.1 661.4,51.2 660.3,51.1 659.3,50.8 658.4,50.2 657.7,49.5 657.2,48.4 657.1,47.2 657.4,45.7 658.2,44.1 659.5,42.1 661.4,40" />
<path stroke="#000000" stroke-width="2" d="M 661.4,40 661.4,39.9 661.5,39.7 661.5,39.4 661.6,39 661.7,38.4 662,37.8 662.3,37.2 662.7,36.5 663.3,35.7 663.9,35 664.8,34.3 665.8,33.5 666.9,32.8 668.3,32.2 669.9,31.6 671.7,31 673.7,30.6 676,30.3 678.6,30.1 681.4,30" />
<path stroke="#000000" stroke-width="2" d="M 681.4,30 681.3,32 681,33.6 680.6,34.9 680,35.8 679.3,36.3 678.6,36.6 677.9,36.7 677.1,36.5 676.4,36.1 675.8,35.6 675.3,35 675,34.3 674.8,33.6 674.8,32.8 675.1,32.1 675.7,31.4 676.6,30.9 677.8,30.4 679.4,30.1 681.4,30 691.4,30" />
<path stroke="#000000" stroke-width="2" d="M 721.4,70" />
<path stroke="#000000" stroke-width="2" d="M 737.4,30 717.6,49.8 737.4,69.6" />
<path stroke="#000000" stroke-width="2" d="M 744.1,70" />
<path stroke="#000000" stroke-width="2" d="M 744.1,20 744.1,40 744.1,34 744.1,33.1 744.2,32.3 744.3,31.4 744.6,30.6 744.9,29.7 745.2,28.9 745.7,28.2 746.2,27.5 746.7,26.8 747.3,26.2 748,25.6 748.7,25.1 749.5,24.7 750.3,24.3 751.1,24 751.9,23.8 752.8,23.6 753.7,23.6" />
<path stroke="#000000" stroke-width="2" d="M 783.7,70" />
<path stroke="#000000" stroke-width="2" d="M 793.7,50 794.5,50 795.4,49.9 796.3,49.8 797.1,49.5 797.9,49.2 798.7,48.9 799.5,48.4 800.2,47.9 800.8,47.4 801.5,46.8 802,46.1 802.5,45.4 803,44.6 803.3,43.8 803.6,43 803.9,42.2 804,41.3 804.1,40.4 804.1,39.6 804,38.7 803.9,37.8 803.6,37 803.3,36.2 803,35.4 802.5,34.6 802,33.9 801.5,33.3 800.8,32.6 800.2,32.1 799.5,31.6 798.7,31.1 797.9,30.8 797.1,30.5 796.3,30.2 795.4,30.1 794.5,30 793.7,30 792.8,30.1 791.9,30.2 791.1,30.5 790.3,30.8 789.5,31.1 788.7,31.6 788,32.1 787.3,32.6 786.7,33.3 786.2,33.9 785.7,34.6 785.2,35.4 784.9,36.2 784.6,37 784.3,37.8 784.2,38.7 784.1,39.6 784.1,40.4 784.2,41.3 784.3,42.2 784.6,43 784.9,43.8 785.2,44.6 785.7,45.4 786.2,46.1 786.7,46.8 787.3,47.4 788,47.9 788.7,48.4 789.5,48.9 790.3,49.2 791.1,49.5 791.9,49.8 792.8,49.9 793.7,50 793.7,70 793.7,64 793.7,63.1 793.7,62.3 793.9,61.4 794.1,60.6 794.4,59.7 794.8,58.9 795.2,58.2 795.7,57.5 796.3,56.8 796.9,56.2 797.6,55.6 798.3,55.1 799,54.7 799.8,54.3 800.6,54 801.5,53.8 802.3,53.6 803.2,53.6" />
<path stroke="#000000" stroke-width="2" d="M 810.7,70" />
<path stroke="#000000" stroke-width="2" d="M 810.7,50 810.9,50 810.9,50.2 810.7,50.2 810.7,50" />
<path stroke="#000000" stroke-width="2" d="M 840.9,70" />
<path stroke="#000000" stroke-width="2" d="M 840.9,30 880.9,30" />
<path stroke="#000000" stroke-width="2" d="M 887.6,70" />
<path stroke="#000000" stroke-width="2" d="M 887.6,50 895.3,68.5" />
<path stroke="#000000" stroke-width="2" d="M 901.9,70" />
<path stroke="#000000" stroke-width="2" d="M 901.9,40 901.9,39.3 902,38.6 902.1,37.9 902.3,37.2 902.5,36.6 902.8,36 903.2,35.4 903.6,34.8 904,34.2 904.5,33.8 905.1,33.3 905.6,32.9 906.2,32.6 906.9,32.3 907.5,32 908.2,31.8 908.9,31.7 909.6,31.7 910.3,31.7 911,31.7 911.7,31.8 912.3,32 913,32.3 913.6,32.6 914.2,32.9 914.8,33.3 915.3,33.8 915.8,34.2 916.3,34.8 916.7,35.4 917,36 917.3,36.6 917.6,37.2 917.7,37.9 917.9,38.6 917.9,39.3" />
<path stroke="#000000" stroke-width="2" d="M 924.6,70" />
<path stroke="#000000" stroke-width="2" d="M 924.6,20 944.6,20" />
<path stroke="#000000" stroke-width="2" d="M 951.3,70" />
<path stroke="#000000" stroke-width="2" d="M 951.3,35" />
<path stroke="#000000" stroke-width="2" d="M 951.3,35 953.3,34.9 954.9,34.6 956.1,34.1 957,33.6 957.6,32.9 957.9,32.2 957.9,31.4 957.7,30.7 957.4,30 956.9,29.4 956.3,28.9 955.6,28.5 954.8,28.3 954.1,28.4 953.4,28.7 952.7,29.2 952.1,30.1 951.7,31.4 951.4,33 951.3,35 951.3,50 958.9,68.5" />
<path stroke="#000000" stroke-width="2" d="M 988.9,70" />
<path stroke="#000000" stroke-width="2" d="M 1004.9,30 985.1,49.8 1004.9,69.6" />
<path stroke="#000000" stroke-width="2" d="M 1011.6,70" />
<path stroke="#000000" stroke-width="2" d="M 1011.6,20 1011.8,20 1011.8,20.2 1011.6,20.2 1011.6,20" />
<path stroke="#000000" stroke-width="2" d="M 1041.8,70" />
<path stroke="#000000" stroke-width="2" d="M 1051.8,30 1050.9,30 1050,30.1 1049.2,30.2 1048.3,30.5 1047.5,30.8 1046.7,31.1 1046,31.6 1045.2,32.1 1044.6,32.6 1044,33.2 1043.4,33.9 1042.9,34.6 1042.5,35.4 1042.1,36.2 1041.8,37 1041.6,37.8 1041.4,38.7 1041.3,39.6 1041.3,40.4 1041.4,41.3 1041.6,42.2 1041.8,43 1042.1,43.8 1042.5,44.6 1042.9,45.4 1043.4,46.1 1044,46.7 1044.6,47.4 1045.2,47.9 1046,48.4 1046.7,48.9 1047.5,49.2 1048.3,49.5 1049.2,49.8 1050,49.9 1050.9,50 1050.9,70 1050.9,64 1050.9,63.1 1051,62.2 1051.1,61.4 1051.4,60.5 1051.7,59.7 1052,58.9 1052.5,58.2 1053,57.5 1053.5,56.8 1054.1,56.2 1054.8,55.6 1055.5,55.1 1056.3,54.7 1057.1,54.3 1057.9,54 1058.7,53.8 1059.6,53.6 1060.5,53.6" />
<path stroke="#000000" stroke-width="2" d="M 1090.5,70" />
<path stroke="#000000" stroke-width="2" d="M 1090.5,70 1105.8,33 1145.8,33" />
<path stroke="#000000" stroke-width="2" d="M 1152.4,70" />
<path stroke="#000000" stroke-width="2" d="M 1162.4,30 1161.6,30 1160.7,30.1 1159.8,30.2 1159,30.5 1158.2,30.8 1157.4,31.1 1156.6,31.6 1155.9,32.1 1155.2,32.6 1154.6,33.2 1154.1,33.9 1153.6,34.6 1153.1,35.4 1152.8,36.2 1152.5,37 1152.2,37.8 1152.1,38.7 1152,39.6 1152,40.4 1152.1,41.3 1152.2,42.2 1152.5,43 1152.8,43.8 1153.1,44.6 1153.6,45.4 1154.1,46.1 1154.6,46.7 1155.2,47.4 1155.9,47.9 1156.6,48.4 1157.4,48.9 1158.2,49.2 1159,49.5 1159.8,49.8 1160.7,49.9 1161.6,50 1181.6,50" />
<path stroke="#000000" stroke-width="2" d="M 1211.6,70" />
</svg>