<svg xmlns="http://www.w3.org/2000/svg" width="1623.3903355435586" height="108.57332391052807" style="fill:none; stroke-linecap:round;">
    <rect width="100%" height="100%" fill="#FFFFFF" />
<path stroke="#000000" stroke-width="2" d="M 550,75" />
<path stroke="#000000" stroke-width="2" d="M 20,30 20,31.4 20.1,32.8 20.4,34.2 20.7,35.5 21.2,36.8 21.8,38.1 22.5,39.3 23.3,40.4 24.2,41.5 25.2,42.5 26.2,43.4 27.4,44.2 28.6,44.9 29.9,45.5 31.2,46 32.5,46.3 33.9,46.6 35.3,46.7 36.7,46.7 38.1,46.6 39.4,46.3 40.8,46 42.1,45.5 43.4,44.9 44.6,44.2 45.7,43.4 46.8,42.5 47.8,41.5 48.7,40.4 49.5,39.3 50.2,38.1 50.8,36.8 51.2,35.5 51.6,34.2 51.8,32.8 52,31.4" />
<path stroke="#000000" stroke-width="2" d="M 58.6,70" />
<path stroke="#000000" stroke-width="2" d="M 58.6,46 58.6,44.6 58.8,43.2 59,41.8 59.4,40.5 59.8,39.2 60.4,37.9 61.1,36.7 61.9,35.6 62.8,34.5 63.8,33.5 64.9,32.6 66,31.8 67.2,31.1 68.5,30.5 69.8,30 71.2,29.7 72.5,29.4 73.9,29.3 75.3,29.3 76.7,29.4 78.1,29.7 79.4,30 80.7,30.5 82,31.1 83.2,31.8 84.4,32.6 85.4,33.5 86.4,34.5 87.3,35.6 88.1,36.7 88.8,37.9 89.4,39.2 89.9,40.5 90.2,41.8 90.5,43.2 90.6,44.6" />
<path stroke="#000000" stroke-width="2" d="M 120.6,70" />
<path stroke="#000000" stroke-width="2" d="M 120.6,40 120.8,40 120.8,40.2 120.6,40.2 120.6,40" />
<path stroke="#000000" stroke-width="2" d="M 127.5,70" />
<path stroke="#000000" stroke-width="2" d="M 129.5,50 134.8,37.1 135,36.7 135.1,36.4 135.1,36.1 135.2,35.7 135.2,35.4 135.2,35 135.1,34.7 135.1,34.3 135,34 134.8,33.7 134.7,33.4 134.5,33.1 134.3,32.8 134,32.5 133.8,32.3 133.5,32.1 133.2,31.9 132.9,31.7 132.6,31.6 132.2,31.5 131.9,31.4 131.6,31.4 131.2,31.4 130.9,31.4 130.5,31.4 130.2,31.5 129.8,31.6 129.5,31.7 129.2,31.9 128.9,32.1 128.6,32.3 128.4,32.5 128.1,32.8 127.9,33.1 127.7,33.4 127.6,33.7 127.4,34 127.3,34.3 127.3,34.7 127.2,35 127.2,35.4 127.2,35.7 127.3,36.1 127.3,36.4 127.4,36.7 127.6,37.1 127.7,37.4 127.9,37.7 128.1,37.9 128.4,38.2 128.6,38.4 128.9,38.7 129.2,38.8 129.5,39 129.8,39.1 130.2,39.2 130.5,39.3 130.9,39.4 131.2,39.4 131.6,39.4 144.5,34 136.8,52.5" />
<path stroke="#000000" stroke-width="2" d="M 151.2,70" />
<path stroke="#000000" stroke-width="2" d="M 151.2,20 151.2,40 151.2,34 151.2,33.1 151.2,32.3 151.4,31.4 151.6,30.6 151.9,29.7 152.3,28.9 152.7,28.2 153.2,27.5 153.8,26.8 154.4,26.2 155.1,25.6 155.8,25.1 156.5,24.7 157.3,24.3 158.1,24 159,23.8 159.8,23.6 160.7,23.6 180.7,23.6" />
<path stroke="#000000" stroke-width="2" d="M 187.4,70" />
<path stroke="#000000" stroke-width="2" d="M 207.4,30 192.1,67" />
<path stroke="#000000" stroke-width="2" d="M 214,70" />
<path stroke="#000000" stroke-width="2" d="M 214,30 214.2,30 214.2,30.2 214,30.2 214,30" />
<path stroke="#000000" stroke-width="2" d="M 244.2,70" />
<path stroke="#000000" stroke-width="2" d="M 244.2,70 244.4,70 244.4,70.2 244.2,70.2 244.2,70" />
<path stroke="#000000" stroke-width="2" d="M 274.4,70" />
<path stroke="#000000" stroke-width="2" d="M 274.4,30 314.4,30" />
<path stroke="#000000" stroke-width="2" d="M 344.4,70" />
<path stroke="#000000" stroke-width="2" d="M 344.4,30 344.4,70 344.4,58 344.4,56.3 344.6,54.5 344.9,52.8 345.3,51.1 345.9,49.5 346.7,47.9 347.6,46.4 348.6,45 349.7,43.6 350.9,42.4 352.2,41.3 353.7,40.3 355.2,39.4 356.8,38.7 358.4,38.1 360.1,37.6 361.8,37.3 363.6,37.1" />
<path stroke="#000000" stroke-width="2" d="M 370.2,70" />
<path stroke="#000000" stroke-width="2" d="M 370.2,40 377.9,21.5 377.9,22.2 377.9,22.9 378.1,23.6 378.2,24.3 378.5,24.9 378.8,25.6 379.1,26.2 379.5,26.7 380,27.3 380.5,27.8 381,28.2 381.6,28.6 382.2,29 382.8,29.3 383.5,29.5 384.1,29.7 384.8,29.8 385.5,29.9 386.2,29.9 386.9,29.8 387.6,29.7 388.3,29.5 388.9,29.3 389.6,29 390.2,28.6 390.7,28.2 391.3,27.8 391.8,27.3 392.2,26.7 392.6,26.2 393,25.6 393.3,24.9 393.5,24.3 393.7,23.6 393.8,22.9 393.9,22.2" />
<path stroke="#000000" stroke-width="2" d="M 400.5,70" />
<path stroke="#000000" stroke-width="2" d="M 420.5,30 405.2,67" />
<path stroke="#000000" stroke-width="2" d="M 427.2,70" />
<path stroke="#000000" stroke-width="2" d="M 427.2,30 427.4,30 427.4,30.2 427.2,30.2 427.2,30" />
<path stroke="#000000" stroke-width="2" d="M 457.4,70" />
<path stroke="#000000" stroke-width="2" d="M 457.4,30 457.4,50 467.4,50 459.7,68.5" />
<path stroke="#000000" stroke-width="2" d="M 497.4,70" />
<path stroke="#000000" stroke-width="2" d="M 497.4,30 497.4,70 508.7,58.7" />
<path stroke="#000000" stroke-width="2" d="M 515.4,70" />
<path stroke="#000000" stroke-width="2" d="M 515.4,25" />
<path stroke="#000000" stroke-width="2" d="M 515.4,25 517.4,24.9 519,24.6 520.2,24.1 521.1,23.6 521.7,22.9 522,22.2 522,21.4 521.8,20.7 521.5,20 521,19.4 520.4,18.9 519.7,18.5 519,18.3 518.2,18.4 517.5,18.7 516.8,19.2 516.2,20.1 515.8,21.4 515.5,23 515.4,25 515.4,40" />
<path stroke="#000000" stroke-width="2" d="M 552,70" />
<path stroke="#000000" stroke-width="2" d="M 557,30" />
<path stroke="#000000" stroke-width="2" d="M 557,30 555.6,30.1 554.3,30.6 553.2,31.2 552.2,32.1 551.4,33.1 550.7,34.3 550.2,35.6 549.8,37 549.6,38.5 549.5,40 549.6,41.5 549.8,43 550.2,44.4 550.7,45.7 551.4,46.9 552.2,47.9 553.2,48.8 554.3,49.4 555.6,49.9 557,50 577,50 577,50.7 577.1,51.4 577.2,52.1 577.4,52.8 577.6,53.4 577.9,54 578.3,54.6 578.7,55.2 579.1,55.8 579.6,56.2 580.1,56.7 580.7,57.1 581.3,57.4 582,57.7 582.6,58 583.3,58.2 584,58.3 584.7,58.3 585.4,58.3 586.1,58.3 586.7,58.2 587.4,58 588.1,57.7 588.7,57.4 589.3,57.1 589.9,56.7 590.4,56.2 590.9,55.8 591.4,55.2 591.8,54.6 592.1,54 592.4,53.4 592.6,52.8 592.8,52.1 592.9,51.4 593,50.7" />
<path stroke="#000000" stroke-width="2" d="M 599.7,70" />
<path stroke="#000000" stroke-width="2" d="M 599.7,30 599.9,30 599.9,30.2 599.7,30.2 599.7,30" />
<path stroke="#000000" stroke-width="2" d="M 629.9,70" />
<path stroke="#000000" stroke-width="2" d="M 639.9,30 632.2,48.5 632.2,68.5 637.9,62.8" />
<path stroke="#000000" stroke-width="2" d="M 646.5,70" />
<path stroke="#000000" stroke-width="2" d="M 646.5,50 646.7,50 646.7,50.2 646.5,50.2 646.5,50" />
<path stroke="#000000" stroke-width="2" d="M 676.7,70" />
<path stroke="#000000" stroke-width="2" d="M 676.7,50 684.4,31.5 692,50 712,50" />
<path stroke="#000000" stroke-width="2" d="M 712,50 713.5,50.1 714.7,50.6 715.9,51.2 716.8,52.1 717.7,53.1 718.3,54.3 718.9,55.6 719.2,57 719.5,58.5 719.5,60 719.5,61.5 719.2,63 718.9,64.4 718.3,65.7 717.7,66.9 716.8,67.9 715.9,68.8 714.7,69.4 713.5,69.9 712,70" />
<path stroke="#000000" stroke-width="2" d="M 749.5,70" />
<path stroke="#000000" stroke-width="2" d="M 749.5,40 749.7,40 749.7,40.2 749.5,40.2 749.5,40" />
<path stroke="#000000" stroke-width="2" d="M 756.4,70" />
<path stroke="#000000" stroke-width="2" d="M 772.4,30 752.6,49.8 772.4,69.6" />
<path stroke="#000000" stroke-width="2" d="M 779.1,70" />
<path stroke="#000000" stroke-width="2" d="M 779.1,20 779.1,20.7 779.1,21.4 779.3,22.1 779.4,22.8 779.7,23.4 780,24 780.3,24.6 780.7,25.2 781.2,25.8 781.7,26.2 782.2,26.7 782.8,27.1 783.4,27.4 784,27.7 784.7,28 785.3,28.2 786,28.3 786.7,28.3 787.4,28.3 788.1,28.3 788.8,28.2 789.5,28 790.1,27.7 790.8,27.4 791.4,27.1 791.9,26.7 792.5,26.2 793,25.8 793.4,25.2 793.8,24.6 794.2,24 794.5,23.4 794.7,22.8 794.9,22.1 795,21.4 795.1,20.7 800.1,20.7 800.1,40.7" />
<path stroke="#000000" stroke-width="2" d="M 830.1,70" />
<path stroke="#000000" stroke-width="2" d="M 830.1,30 845.4,67" />
<path stroke="#000000" stroke-width="2" d="M 852,70" />
<path stroke="#000000" stroke-width="2" d="M 852,30 892,30" />
<path stroke="#000000" stroke-width="2" d="M 898.7,70" />
<path stroke="#000000" stroke-width="2" d="M 908.7,50 901.1,68.5" />
<path stroke="#000000" stroke-width="2" d="M 901.1,68.5 903.1,68.4 904.7,68.1 905.9,67.6 906.8,67 907.4,66.4 907.7,65.6 907.7,64.9 907.5,64.2 907.2,63.5 906.7,62.9 906.1,62.4 905.4,62 904.6,61.8 903.9,61.9 903.2,62.1 902.5,62.7 901.9,63.6 901.5,64.8 901.2,66.4 901.1,68.5 901.1,83.5" />
<path stroke="#000000" stroke-width="2" d="M 938.7,70" />
<path stroke="#000000" stroke-width="2" d="M 943.7,30" />
<path stroke="#000000" stroke-width="2" d="M 943.7,30 942.3,30.1 941,30.6 939.9,31.2 938.9,32.1 938.1,33.1 937.4,34.3 936.9,35.6 936.5,37 936.3,38.5 936.2,40 936.3,41.5 936.5,43 936.9,44.4 937.4,45.7 938.1,46.9 938.9,47.9 939.9,48.8 941,49.4 942.3,49.9 943.7,50 943.7,70 943.7,64 943.7,63.1 943.8,62.3 943.9,61.4 944.2,60.6 944.5,59.7 944.8,58.9 945.3,58.2 945.8,57.5 946.3,56.8 946.9,56.2 947.6,55.6 948.3,55.1 949.1,54.7 949.9,54.3 950.7,54 951.5,53.8 952.4,53.6 953.3,53.6" />
<path stroke="#000000" stroke-width="2" d="M 983.3,70" />
<path stroke="#000000" stroke-width="2" d="M 983.3,40" />
<path stroke="#000000" stroke-width="2" d="M 983.3,40 987.3,39.8 990.6,39.2 993,38.3 994.8,37.1 995.9,35.8 996.5,34.3 996.6,32.8 996.2,31.4 995.5,30 994.5,28.8 993.3,27.7 991.9,27 990.4,26.7 988.9,26.8 987.5,27.3 986.1,28.5 985,30.2 984.1,32.7 983.5,35.9 983.3,40 983.3,70" />
<path stroke="#000000" stroke-width="2" d="M 1003.2,70" />
<path stroke="#000000" stroke-width="2" d="M 1003.2,50 1003.4,50 1003.4,50.2 1003.2,50.2 1003.2,50" />
<path stroke="#000000" stroke-width="2" d="M 1033.4,70" />
<path stroke="#000000" stroke-width="2" d="M 1033.4,70 1033.6,70 1033.6,70.2 1033.4,70.2 1033.4,70" />
<path stroke="#000000" stroke-width="2" d="M 1063.6,70" />
<path stroke="#000000" stroke-width="2" d="M 1063.6,30 1073.6,30 1073.6,70" />
<path stroke="#000000" stroke-width="2" d="M 1080.3,70" />
<path stroke="#000000" stroke-width="2" d="M 1080.3,20 1100.3,20" />
<path stroke="#000000" stroke-width="2" d="M 1107,70" />
<path stroke="#000000" stroke-width="2" d="M 1107,30 1107,31.4 1107.1,32.8 1107.3,34.2 1107.7,35.5 1108.2,36.8 1108.8,38.1 1109.5,39.3 1110.3,40.4 1111.2,41.5 1112.1,42.5 1113.2,43.4 1114.4,44.2 1115.6,44.9 1116.8,45.5 1118.1,46 1119.5,46.3 1120.9,46.6 1122.3,46.7 1123.7,46.7 1125,46.6 1126.4,46.3 1127.8,46 1129.1,45.5 1130.3,44.9 1131.6,44.2 1132.7,43.4 1133.8,42.5 1134.8,41.5 1135.6,40.4 1136.5,39.3 1137.1,38.1 1137.7,36.8 1138.2,35.5 1138.6,34.2 1138.8,32.8 1138.9,31.4" />
<path stroke="#000000" stroke-width="2" d="M 1145.6,70" />
<path stroke="#000000" stroke-width="2" d="M 1145.6,30 1145.8,30 1145.8,30.2 1145.6,30.2 1145.6,30" />
<path stroke="#000000" stroke-width="2" d="M 1175.8,70" />
<path stroke="#000000" stroke-width="2" d="M 1175.8,30 1175.8,70 1195.8,70" />
<path stroke="#000000" stroke-width="2" d="M 1225.8,70" />
<path stroke="#000000" stroke-width="2" d="M 1225.8,30 1241.1,67" />
<path stroke="#000000" stroke-width="2" d="M 1247.8,70" />
<path stroke="#000000" stroke-width="2" d="M 1247.8,20 1267.8,20" />
<path stroke="#000000" stroke-width="2" d="M 1274.4,70" />
<path stroke="#000000" stroke-width="2" d="M 1284.4,20 1284.4,40 1274.4,40" />
<path stroke="#000000" stroke-width="2" d="M 1274.4,40 1275.9,40.1 1277.1,40.6 1278.3,41.2 1279.2,42.1 1280.1,43.1 1280.7,44.3 1281.3,45.6 1281.6,47 1281.9,48.5 1281.9,50 1281.9,51.5 1281.6,53 1281.3,54.4 1280.7,55.7 1280.1,56.9 1279.2,57.9 1278.3,58.8 1277.1,59.4 1275.9,59.9 1274.4,60" />
<path stroke="#000000" stroke-width="2" d="M 1314.4,70" />
<path stroke="#000000" stroke-width="2" d="M 1334.4,30 1319.1,67" />
<path stroke="#000000" stroke-width="2" d="M 1341.1,70" />
<path stroke="#000000" stroke-width="2" d="M 1341.1,50 1351,59.9 1341.1,69.8" />
<path stroke="#000000" stroke-width="2" d="M 1357.7,70" />
<path stroke="#000000" stroke-width="2" d="M 1357.7,58 1357.7,57.3 1357.7,56.6 1357.9,55.9 1358,55.2 1358.3,54.6 1358.6,54 1358.9,53.4 1359.3,52.8 1359.8,52.2 1360.3,51.8 1360.8,51.3 1361.4,50.9 1362,50.6 1362.6,50.3 1363.3,50 1363.9,49.8 1364.6,49.7 1365.3,49.7 1366,49.7 1366.7,49.7 1367.4,49.8 1368.1,50 1368.7,50.3 1369.4,50.6 1370,50.9 1370.5,51.3 1371.1,51.8 1371.6,52.2 1372,52.8 1372.4,53.4 1372.8,54 1373.1,54.6 1373.3,55.2 1373.5,55.9 1373.6,56.6 1373.7,57.3" />
<path stroke="#000000" stroke-width="2" d="M 1403.7,70" />
<path stroke="#000000" stroke-width="2" d="M 1413.7,30" />
<path stroke="#000000" stroke-width="2" d="M 1413.7,30 1410.8,30.3 1408.3,31.1 1406,32.4 1404.1,34.2 1402.4,36.2 1401.1,38.6 1400,41.3 1399.3,44.1 1398.8,47 1398.7,50 1398.8,53 1399.3,55.9 1400,58.7 1401.1,61.4 1402.4,63.8 1404.1,65.8 1406,67.6 1408.3,68.9 1410.8,69.7 1413.7,70" />
<path stroke="#000000" stroke-width="2" d="M 1413.7,50" />
<path stroke="#000000" stroke-width="2" d="M 1381.7,50 1421.7,50" />
<path stroke="#000000" stroke-width="2" d="M 1451.7,70" />
<path stroke="#000000" stroke-width="2" d="M 1451.7,40 1451.9,40 1451.9,40.2 1451.7,40.2 1451.7,40" />
<path stroke="#000000" stroke-width="2" d="M 1458.5,70" />
<path stroke="#000000" stroke-width="2" d="M 1458.5,30 1468.5,30 1468.5,70" />
<path stroke="#000000" stroke-width="2" d="M 1475.2,70" />
<path stroke="#000000" stroke-width="2" d="M 1475.2,20 1475.2,40 1480.9,34.3" />
<path stroke="#000000" stroke-width="2" d="M 1510.9,70" />
<path stroke="#000000" stroke-width="2" d="M 1510.9,30 1510.9,70 1522.2,58.7" />
<path stroke="#000000" stroke-width="2" d="M 1528.8,70" />
<path stroke="#000000" stroke-width="2" d="M 1528.8,50 1528.8,70 1528.8,64 1528.8,63.1 1528.9,62.3 1529.1,61.4 1529.3,60.6 1529.6,59.7 1530,58.9 1530.4,58.2 1530.9,57.5 1531.5,56.8 1532.1,56.2 1532.7,55.6 1533.5,55.1 1534.2,54.7 1535,54.3 1535.8,54 1536.7,53.8 1537.5,53.6 1538.4,53.6" />
<path stroke="#000000" stroke-width="2" d="M 1538.4,53.6 1539.8,53.7 1541.1,54.1 1542.2,54.8 1543.2,55.7 1544,56.7 1544.7,57.9 1545.2,59.2 1545.6,60.6 1545.8,62.1 1545.9,63.6 1545.8,65.1 1545.6,66.5 1545.2,67.9 1544.7,69.3 1544,70.4 1543.2,71.5 1542.2,72.4 1541.1,73 1539.8,73.4 1538.4,73.6" />
<path stroke="#000000" stroke-width="2" d="M 1538.4,73.6 1540.4,73.5 1542,73.2 1543.3,72.7 1544.2,72.1 1544.7,71.5 1545,70.7 1545,70 1544.9,69.3 1544.5,68.6 1544,67.9 1543.4,67.4 1542.7,67.1 1542,66.9 1541.2,67 1540.5,67.2 1539.8,67.8 1539.3,68.7 1538.8,69.9 1538.5,71.5 1538.4,73.6 1538.4,88.6" />
<path stroke="#000000" stroke-width="2" d="M 1575.9,70" />
<path stroke="#000000" stroke-width="2" d="M 1575.9,30 1595.9,30" />
<path stroke="#000000" stroke-width="2" d="M 1595.9,30 1597.3,30.1 1598.6,30.6 1599.7,31.2 1600.7,32.1 1601.5,33.1 1602.2,34.3 1602.7,35.6 1603.1,37 1603.3,38.5 1603.4,40 1603.3,41.5 1603.1,43 1602.7,44.4 1602.2,45.7 1601.5,46.9 1600.7,47.9 1599.7,48.8 1598.6,49.4 1597.3,49.9 1595.9,50" />
<path stroke="#000000" stroke-width="2" d="M 1633.4,70" />
</svg>