<svg xmlns="http://www.w3.org/2000/svg" width="1553.583770442604" height="92.2836140246614" style="fill:none; stroke-linecap:round;">
    <rect width="100%" height="100%" fill="#FFFFFF" />
<path stroke="#000000" stroke-width="2" d="M 550,75" />
<path stroke="#000000" stroke-width="2" d="M 20,30 20,50 30,50 37.7,68.5 45.3,50" />
<path stroke="#000000" stroke-width="2" d="M 75.3,70" />
<path stroke="#000000" stroke-width="2" d="M 75.3,30 95.3,30 103,48.5 110.6,30" />
<path stroke="#000000" stroke-width="2" d="M 110.6,40" />
<path stroke="#000000" stroke-width="2" d="M 94.6,40 111.6,40" />
<path stroke="#000000" stroke-width="2" d="M 141.6,70" />
<path stroke="#000000" stroke-width="2" d="M 141.6,30 141.6,70" />
<path stroke="#000000" stroke-width="2" d="M 148.3,70" />
<path stroke="#000000" stroke-width="2" d="M 148.3,20 168.3,20" />
<path stroke="#000000" stroke-width="2" d="M 198.3,70" />
<path stroke="#000000" stroke-width="2" d="M 198.3,40 198.5,40 198.5,40.2 198.3,40.2 198.3,40" />
<path stroke="#000000" stroke-width="2" d="M 205.1,70" />
<path stroke="#000000" stroke-width="2" d="M 205.1,30 205.1,70 205.1,58 205.1,56.3 205.3,54.5 205.6,52.8 206.1,51.1 206.7,49.5 207.4,47.9 208.3,46.4 209.3,45 210.4,43.6 211.6,42.4 213,41.3 214.4,40.3 215.9,39.4 217.5,38.7 219.1,38.1 220.8,37.6 222.5,37.3 224.3,37.1" />
<path stroke="#000000" stroke-width="2" d="M 230.9,70" />
<path stroke="#000000" stroke-width="2" d="M 230.9,20 230.9,20.7 231,21.4 231.1,22.1 231.3,22.8 231.5,23.4 231.8,24 232.2,24.6 232.6,25.2 233,25.8 233.5,26.2 234,26.7 234.6,27.1 235.2,27.4 235.9,27.7 236.5,28 237.2,28.2 237.9,28.3 238.6,28.3 239.3,28.3 240,28.3 240.6,28.2 241.3,28 242,27.7 242.6,27.4 243.2,27.1 243.8,26.7 244.3,26.2 244.8,25.8 245.3,25.2 245.7,24.6 246,24 246.3,23.4 246.5,22.8 246.7,22.1 246.8,21.4 246.9,20.7" />
<path stroke="#000000" stroke-width="2" d="M 253.6,70" />
<path stroke="#000000" stroke-width="2" d="M 273.6,30 273.6,70 253.6,70" />
<path stroke="#000000" stroke-width="2" d="M 280.2,70" />
<path stroke="#000000" stroke-width="2" d="M 280.2,30 284.1,39.2" />
<path stroke="#000000" stroke-width="2" d="M 284.1,39.2 286,41.4 287.3,43.3 288.1,45 288.4,46.4 288.3,47.7 287.8,48.7 287.1,49.5 286.2,50 285.2,50.4 284.1,50.5 283,50.4 281.9,50 281,49.5 280.3,48.7 279.8,47.7 279.7,46.4 280.1,45 280.8,43.3 282.1,41.4 284.1,39.2 287.9,30" />
<path stroke="#000000" stroke-width="2" d="M 287.9,30 289.9,29.9 291.5,29.6 292.8,29.1 293.7,28.6 294.2,27.9 294.5,27.2 294.5,26.4 294.4,25.7 294,25 293.5,24.4 292.9,23.9 292.2,23.5 291.5,23.3 290.7,23.4 290,23.7 289.3,24.2 288.8,25.1 288.3,26.4 288,28 287.9,30 287.9,45" />
<path stroke="#000000" stroke-width="2" d="M 324.5,70" />
<path stroke="#000000" stroke-width="2" d="M 334.5,30 333.7,30 332.8,30.1 331.9,30.2 331.1,30.5 330.3,30.8 329.5,31.1 328.7,31.6 328,32.1 327.4,32.6 326.7,33.2 326.2,33.9 325.7,34.6 325.2,35.4 324.9,36.2 324.6,37 324.4,37.8 324.2,38.7 324.1,39.6 324.1,40.4 324.2,41.3 324.4,42.2 324.6,43 324.9,43.8 325.2,44.6 325.7,45.4 326.2,46.1 326.7,46.7 327.4,47.4 328,47.9 328.7,48.4 329.5,48.9 330.3,49.2 331.1,49.5 331.9,49.8 332.8,49.9 333.7,50 333.7,70 333.7,64 333.7,63.1 333.8,62.2 333.9,61.4 334.1,60.5 334.4,59.7 334.8,58.9 335.2,58.2 335.7,57.5 336.3,56.8 336.9,56.2 337.6,55.6 338.3,55.1 339.1,54.7 339.8,54.3 340.7,54 341.5,53.8 342.4,53.6 343.2,53.6" />
<path stroke="#000000" stroke-width="2" d="M 373.2,70" />
<path stroke="#000000" stroke-width="2" d="M 373.2,35" />
<path stroke="#000000" stroke-width="2" d="M 373.2,35 375.3,34.9 376.9,34.6 378.1,34.1 379,33.6 379.6,32.9 379.8,32.2 379.9,31.4 379.7,30.7 379.4,30 378.9,29.4 378.2,28.9 377.6,28.5 376.8,28.3 376.1,28.4 375.3,28.7 374.7,29.2 374.1,30.1 373.6,31.4 373.3,33 373.2,35 373.2,50" />
<path stroke="#000000" stroke-width="2" d="M 373.2,50 373.1,52 372.8,53.6 372.4,54.9 371.8,55.8 371.1,56.3 370.4,56.6 369.6,56.7 368.9,56.5 368.2,56.1 367.6,55.6 367.1,55 366.8,54.3 366.6,53.6 366.6,52.8 366.9,52.1 367.5,51.4 368.4,50.9 369.6,50.4 371.2,50.1 373.2,50 383.2,50" />
<path stroke="#000000" stroke-width="2" d="M 389.9,70" />
<path stroke="#000000" stroke-width="2" d="M 389.9,30 389.9,70 389.9,58 389.9,56.3 390.1,54.5 390.4,52.8 390.8,51.1 391.4,49.5 392.1,47.9 393,46.4 394,45 395.1,43.6 396.4,42.4 397.7,41.3 399.1,40.3 400.6,39.4 402.2,38.7 403.9,38.1 405.6,37.6 407.3,37.3 409,37.1" />
<path stroke="#000000" stroke-width="2" d="M 415.7,70" />
<path stroke="#000000" stroke-width="2" d="M 415.7,30 435.5,49.8 415.7,69.6" />
<path stroke="#000000" stroke-width="2" d="M 442.1,70" />
<path stroke="#000000" stroke-width="2" d="M 442.1,70 449.8,51.5 449.8,52.2 449.9,52.9 450,53.6 450.2,54.3 450.4,54.9 450.7,55.6 451,56.2 451.4,56.7 451.9,57.3 452.4,57.8 452.9,58.2 453.5,58.6 454.1,59 454.7,59.3 455.4,59.5 456.1,59.7 456.7,59.8 457.4,59.9 458.1,59.9 458.8,59.8 459.5,59.7 460.2,59.5 460.8,59.3 461.5,59 462.1,58.6 462.7,58.2 463.2,57.8 463.7,57.3 464.1,56.7 464.5,56.2 464.9,55.6 465.2,54.9 465.4,54.3 465.6,53.6 465.7,52.9 465.8,52.2" />
<path stroke="#000000" stroke-width="2" d="M 495.8,70" />
<path stroke="#000000" stroke-width="2" d="M 511.8,30" />
<path stroke="#000000" stroke-width="2" d="M 511.8,30 511.6,34.1 511,37.3 510.1,39.8 508.9,41.5 507.6,42.7 506.1,43.2 504.6,43.3 503.1,43 501.8,42.3 500.5,41.2 499.5,40 498.8,38.6 498.5,37.2 498.5,35.7 499.1,34.2 500.3,32.9 502,31.7 504.5,30.8 507.7,30.2 511.8,30 531.8,30" />
<path stroke="#000000" stroke-width="2" d="M 538.4,70" />
<path stroke="#000000" stroke-width="2" d="M 538.4,20 538.4,40 538.4,34 538.4,33.1 538.5,32.3 538.7,31.4 538.9,30.6 539.2,29.7 539.6,28.9 540,28.2 540.5,27.5 541.1,26.8 541.7,26.2 542.3,25.6 543.1,25.1 543.8,24.7 544.6,24.3 545.4,24 546.3,23.8 547.1,23.6 548,23.6" />
<path stroke="#000000" stroke-width="2" d="M 548,23.6 550,23.5 551.6,23.2 552.9,22.7 553.8,22.1 554.3,21.5 554.6,20.7 554.7,20 554.5,19.3 554.1,18.6 553.6,17.9 553,17.4 552.3,17.1 551.6,16.9 550.8,17 550.1,17.2 549.4,17.8 548.9,18.7 548.4,19.9 548.1,21.5 548,23.6 548,38.6" />
<path stroke="#000000" stroke-width="2" d="M 561.3,70" />
<path stroke="#000000" stroke-width="2" d="M 561.3,50 581.3,50" />
<path stroke="#000000" stroke-width="2" d="M 611.3,70" />
<path stroke="#000000" stroke-width="2" d="M 611.3,70 611.5,70 611.5,70.2 611.3,70.2 611.3,70" />
<path stroke="#000000" stroke-width="2" d="M 641.5,70" />
<path stroke="#000000" stroke-width="2" d="M 641.5,70 653,42.3" />
<path stroke="#000000" stroke-width="2" d="M 653,42.3 657.1,42.1 660.3,41.5 662.8,40.6 664.5,39.4 665.7,38.1 666.2,36.6 666.3,35.1 666,33.6 665.3,32.3 664.2,31 663,30 661.6,29.3 660.2,29 658.7,29.1 657.2,29.6 655.9,30.8 654.7,32.5 653.8,35 653.2,38.2 653,42.3 653,72.3" />
<path stroke="#000000" stroke-width="2" d="M 696.3,70" />
<path stroke="#000000" stroke-width="2" d="M 696.3,40" />
<path stroke="#000000" stroke-width="2" d="M 696.3,40 700.4,39.8 703.6,39.2 706.1,38.3 707.8,37.1 709,35.8 709.5,34.3 709.6,32.8 709.3,31.4 708.6,30 707.6,28.8 706.3,27.7 704.9,27 703.5,26.7 702,26.8 700.5,27.3 699.2,28.5 698,30.2 697.1,32.7 696.5,35.9 696.3,40 696.3,70" />
<path stroke="#000000" stroke-width="2" d="M 716.3,70" />
<path stroke="#000000" stroke-width="2" d="M 716.3,50 726.2,59.9 716.3,69.8" />
<path stroke="#000000" stroke-width="2" d="M 756.2,70" />
<path stroke="#000000" stroke-width="2" d="M 756.2,30 756.2,70 776.2,70" />
<path stroke="#000000" stroke-width="2" d="M 806.2,70" />
<path stroke="#000000" stroke-width="2" d="M 806.2,30 826,49.8 806.2,69.6" />
<path stroke="#000000" stroke-width="2" d="M 832.6,70" />
<path stroke="#000000" stroke-width="2" d="M 832.6,20 832.6,20.7 832.7,21.4 832.8,22.1 833,22.8 833.3,23.4 833.5,24 833.9,24.6 834.3,25.2 834.7,25.8 835.2,26.2 835.8,26.7 836.3,27.1 836.9,27.4 837.6,27.7 838.2,28 838.9,28.2 839.6,28.3 840.3,28.3 841,28.3 841.7,28.3 842.4,28.2 843,28 843.7,27.7 844.3,27.4 844.9,27.1 845.5,26.7 846,26.2 846.5,25.8 847,25.2 847.4,24.6 847.7,24 848,23.4 848.3,22.8 848.5,22.1 848.6,21.4 848.6,20.7 848.6,20 848.7,19.3 848.8,18.6 849,17.9 849.2,17.3 849.5,16.7 849.9,16.1 850.3,15.5 850.7,14.9 851.2,14.5 851.8,14 852.3,13.6 852.9,13.3 853.6,13 854.2,12.7 854.9,12.5 855.6,12.4 856.3,12.4 857,12.4 857.7,12.4 858.4,12.5 859,12.7 859.7,13 860.3,13.3 860.9,13.6 861.5,14 862,14.5 862.5,14.9 863,15.5 863.4,16.1 863.7,16.7 864,17.3 864.3,17.9 864.4,18.6 864.6,19.3 864.6,20 865.5,20 866.4,20.1 867.2,20.2 868.1,20.5 868.9,20.8 869.7,21.1 870.4,21.6 871.1,22.1 871.8,22.6 872.4,23.2 873,23.9 873.5,24.6 873.9,25.4 874.3,26.2 874.6,27 874.8,27.8 875,28.7 875,29.6 875,30.4 875,31.3 874.8,32.2 874.6,33 874.3,33.8 873.9,34.6 873.5,35.4 873,36.1 872.4,36.7 871.8,37.4 871.1,37.9 870.4,38.4 869.7,38.9 868.9,39.2 868.1,39.5 867.2,39.8 866.4,39.9 865.5,40" />
<path stroke="#000000" stroke-width="2" d="M 905,70" />
<path stroke="#000000" stroke-width="2" d="M 905,70 905.2,70 905.2,70.2 905,70.2 905,70" />
<path stroke="#000000" stroke-width="2" d="M 911.9,70" />
<path stroke="#000000" stroke-width="2" d="M 927.9,30 908.1,49.8 927.9,69.6" />
<path stroke="#000000" stroke-width="2" d="M 934.6,70" />
<path stroke="#000000" stroke-width="2" d="M 934.6,50 934.6,50.7 934.6,51.4 934.8,52.1 934.9,52.8 935.2,53.4 935.5,54 935.8,54.6 936.2,55.2 936.7,55.8 937.2,56.2 937.7,56.7 938.3,57.1 938.9,57.4 939.5,57.7 940.2,58 940.8,58.2 941.5,58.3 942.2,58.3 942.9,58.3 943.6,58.3 944.3,58.2 945,58 945.6,57.7 946.3,57.4 946.9,57.1 947.4,56.7 948,56.2 948.5,55.8 948.9,55.2 949.3,54.6 949.7,54 950,53.4 950.2,52.8 950.4,52.1 950.5,51.4 950.6,50.7" />
<path stroke="#000000" stroke-width="2" d="M 980.6,70" />
<path stroke="#000000" stroke-width="2" d="M 1004.6,42 1004.6,43 1004.5,44.1 1004.3,45.1 1004,46.1 1003.7,47.1 1003.2,48.1 1002.7,49 1002.1,49.8 1001.4,50.6 1000.7,51.4 999.9,52 999,52.6 998.1,53.2 997.2,53.6 996.2,54 995.2,54.2 994.1,54.4 993.1,54.5 992.1,54.5 991,54.4 990,54.2 989,54 988,53.6 987,53.2 986.1,52.6 985.3,52 984.5,51.4 983.7,50.6 983.1,49.8 982.5,49 981.9,48.1 981.5,47.1 981.1,46.1 980.9,45.1 980.7,44.1 980.6,43 980.6,42 980.7,41 980.9,39.9 981.1,38.9 981.5,37.9 981.9,37 982.5,36.1 983.1,35.2 983.7,34.4 984.5,33.7 985.3,33 986.1,32.4 987,31.9 988,31.4 989,31.1 990,30.8 991,30.6 992.1,30.5 993.1,30.5 994.1,30.6 995.2,30.8 996.2,31.1 997.2,31.4 998.1,31.9 999,32.4 999.9,33 1000.7,33.7 1001.4,34.4 1002.1,35.2 1002.7,36.1 1003.2,37 1003.7,37.9 1004,38.9 1004.3,39.9 1004.5,41 1004.6,42 1004.6,50" />
<path stroke="#000000" stroke-width="2" d="M 1004.6,50 1003.9,51.7 1003.2,53.4 1002.5,54.9 1001.7,56.3 1000.9,57.6 1000,58.7 999.1,59.8 998.1,60.8 997.1,61.7 996.1,62.5 995,63.2 993.9,63.8 992.8,64.4 991.7,64.8 990.5,65.2 989.3,65.5 988.1,65.7 987,65.9 985.8,66 984.6,66" />
<path stroke="#000000" stroke-width="2" d="M 1034.6,70" />
<path stroke="#000000" stroke-width="2" d="M 1034.6,30 1038.4,39.2" />
<path stroke="#000000" stroke-width="2" d="M 1038.4,39.2 1040.3,41.4 1041.6,43.3 1042.4,45 1042.7,46.4 1042.6,47.7 1042.2,48.7 1041.5,49.5 1040.6,50 1039.5,50.4 1038.4,50.5 1037.3,50.4 1036.2,50 1035.3,49.5 1034.6,48.7 1034.2,47.7 1034.1,46.4 1034.4,45 1035.2,43.3 1036.5,41.4 1038.4,39.2 1042.2,30" />
<path stroke="#000000" stroke-width="2" d="M 1042.2,30 1042.1,32 1041.8,33.6 1041.4,34.9 1040.8,35.8 1040.1,36.3 1039.4,36.6 1038.6,36.7 1037.9,36.5 1037.2,36.1 1036.6,35.6 1036.1,35 1035.7,34.3 1035.6,33.6 1035.6,32.8 1035.9,32.1 1036.5,31.4 1037.3,30.9 1038.6,30.4 1040.2,30.1 1042.2,30 1052.2,30" />
<path stroke="#000000" stroke-width="2" d="M 1082.2,70" />
<path stroke="#000000" stroke-width="2" d="M 1102.2,30 1086.9,67" />
<path stroke="#000000" stroke-width="2" d="M 1108.9,70" />
<path stroke="#000000" stroke-width="2" d="M 1108.9,50 1116.5,68.5 1124.2,50" />
<path stroke="#000000" stroke-width="2" d="M 1124.2,60" />
<path stroke="#000000" stroke-width="2" d="M 1108.2,60 1125.2,60" />
<path stroke="#000000" stroke-width="2" d="M 1155.2,70" />
<path stroke="#000000" stroke-width="2" d="M 1175.2,30 1155.4,49.8" />
<path stroke="#000000" stroke-width="2" d="M 1155.4,29.8 1175.2,49.6 1175.7,49.6 1176.2,49.6 1176.8,49.5 1177.3,49.3 1177.7,49.1 1178.2,48.9 1178.7,48.7 1179.1,48.4 1179.5,48 1179.9,47.7 1180.2,47.3 1180.5,46.8 1180.8,46.4 1181,45.9 1181.2,45.4 1181.3,44.9 1181.4,44.4 1181.4,43.9 1181.4,43.3 1181.4,42.8 1181.3,42.3 1181.2,41.8 1181,41.3 1180.8,40.8 1180.5,40.4 1180.2,40 1179.9,39.6 1179.5,39.2 1179.1,38.8 1178.7,38.5 1178.2,38.3 1177.7,38.1 1177.3,37.9 1176.8,37.7 1176.2,37.7 1175.7,37.6 1175.2,37.6 1174.7,37.7 1174.2,37.7 1173.6,37.9 1173.2,38.1 1172.7,38.3 1172.2,38.5 1171.8,38.8 1171.4,39.2 1171,39.6 1170.7,40 1170.4,40.4 1170.1,40.8 1169.9,41.3 1169.7,41.8 1169.6,42.3 1169.5,42.8 1169.5,43.3 1169.5,43.9 1169.5,44.4 1169.6,44.9 1169.7,45.4 1169.9,45.9 1170.1,46.4 1170.4,46.8 1170.7,47.3 1171,47.7 1171.4,48 1171.8,48.4 1172.2,48.7 1172.7,48.9 1173.2,49.1 1173.6,49.3 1174.2,49.5 1174.7,49.6 1175.2,49.6 1179.2,49.6" />
<path stroke="#000000" stroke-width="2" d="M 1179.2,49.6 1180.1,49.3 1180.9,48.9 1181.6,48.6 1182.3,48.2 1183,47.8 1183.6,47.3 1184.1,46.8 1184.6,46.4 1185,45.9 1185.4,45.3 1185.8,44.8 1186.1,44.3 1186.4,43.7 1186.6,43.1 1186.8,42.6 1186.9,42 1187,41.4 1187.1,40.8 1187.2,40.2 1187.2,39.6" />
<path stroke="#000000" stroke-width="2" d="M 1193.9,70" />
<path stroke="#000000" stroke-width="2" d="M 1193.9,20 1213.9,20" />
<path stroke="#000000" stroke-width="2" d="M 1220.5,70" />
<path stroke="#000000" stroke-width="2" d="M 1228.5,20 1228.5,35" />
<path stroke="#000000" stroke-width="2" d="M 1228.5,35 1228.4,37 1228.1,38.6 1227.7,39.9 1227.1,40.8 1226.4,41.3 1225.7,41.6 1224.9,41.7 1224.2,41.5 1223.5,41.1 1222.9,40.6 1222.4,40 1222,39.3 1221.9,38.6 1221.9,37.8 1222.2,37.1 1222.8,36.4 1223.6,35.9 1224.9,35.4 1226.5,35.1 1228.5,35 1248.5,35" />
<path stroke="#000000" stroke-width="2" d="M 1278.5,70" />
<path stroke="#000000" stroke-width="2" d="M 1298.5,30 1283.2,67" />
<path stroke="#000000" stroke-width="2" d="M 1305.2,70" />
<path stroke="#000000" stroke-width="2" d="M 1305.2,50 1305.4,50 1305.4,50.2 1305.2,50.2 1305.2,50" />
<path stroke="#000000" stroke-width="2" d="M 1335.4,70" />
<path stroke="#000000" stroke-width="2" d="M 1335.4,30 1375.4,30" />
<path stroke="#000000" stroke-width="2" d="M 1405.4,70" />
<path stroke="#000000" stroke-width="2" d="M 1405.4,30 1407.1,30 1408.9,30.2 1410.6,30.5 1412.3,30.9 1413.9,31.5 1415.5,32.2 1417,33.1 1418.4,34.1 1419.8,35.2 1421,36.5 1422.1,37.8 1423.1,39.2 1424,40.7 1424.7,42.3 1425.3,44 1425.8,45.7 1426.1,47.4 1426.2,49.1 1426.2,50.9 1426.1,52.6 1425.8,54.3 1425.3,56 1424.7,57.6 1424,59.2 1423.1,60.7 1422.1,62.2 1421,63.5 1419.8,64.7 1418.4,65.8 1417,66.8 1415.5,67.7 1413.9,68.5 1412.3,69.1 1410.6,69.5 1408.9,69.8 1407.1,70" />
<path stroke="#000000" stroke-width="2" d="M 1456.2,70" />
<path stroke="#000000" stroke-width="2" d="M 1460.2,70 1471,44.1 1471.2,43.5 1471.4,42.8 1471.6,42.1 1471.7,41.4 1471.7,40.8 1471.7,40.1 1471.6,39.4 1471.4,38.7 1471.2,38 1471,37.4 1470.6,36.8 1470.3,36.2 1469.8,35.6 1469.4,35.1 1468.9,34.6 1468.3,34.2 1467.7,33.8 1467.1,33.5 1466.4,33.2 1465.8,33 1465.1,32.9 1464.4,32.8 1463.7,32.8 1463,32.8 1462.3,32.9 1461.6,33 1461,33.2 1460.3,33.5 1459.7,33.8 1459.1,34.2 1458.6,34.6 1458.1,35.1 1457.6,35.6 1457.2,36.2 1456.8,36.8 1456.5,37.4 1456.2,38 1456,38.7 1455.8,39.4 1455.7,40.1 1455.7,40.8 1455.7,41.4 1455.8,42.1 1456,42.8 1456.2,43.5 1456.5,44.1 1456.8,44.8 1457.2,45.3 1457.6,45.9 1458.1,46.4 1458.6,46.9 1459.1,47.3 1459.7,47.7 1460.3,48 1461,48.3 1461.6,48.5 1462.3,48.6 1463,48.7 1463.7,48.8 1464.4,48.7 1490.3,38" />
<path stroke="#000000" stroke-width="2" d="M 1520.3,70" />
<path stroke="#000000" stroke-width="2" d="M 1520.3,40" />
<path stroke="#000000" stroke-width="2" d="M 1520.3,40 1524.3,39.8 1527.6,39.2 1530,38.3 1531.8,37.1 1532.9,35.8 1533.5,34.3 1533.6,32.8 1533.2,31.4 1532.5,30 1531.5,28.8 1530.3,27.7 1528.9,27 1527.4,26.7 1525.9,26.8 1524.5,27.3 1523.2,28.5 1522,30.2 1521.1,32.7 1520.5,35.9 1520.3,40 1520.3,70" />
<path stroke="#000000" stroke-width="2" d="M 1563.6,70" />
</svg>