<svg xmlns="http://www.w3.org/2000/svg" width="1470.7520652344622" height="108.47759065022574" style="fill:none; stroke-linecap:round;">
    <rect width="100%" height="100%" fill="#FFFFFF" />
<path stroke="#000000" stroke-width="2" d="M 550,75" />
<path stroke="#000000" stroke-width="2" d="M 20,30 20,50 30,50 37.7,68.5 45.3,50" />
<path stroke="#000000" stroke-width="2" d="M 75.3,70" />
<path stroke="#000000" stroke-width="2" d="M 75.3,50 83,31.5 83,32.2 83,32.9 83.1,33.6 83.3,34.3 83.6,34.9 83.9,35.6 84.2,36.2 84.6,36.7 85.1,37.3 85.5,37.8 86.1,38.2 86.7,38.6 87.3,39 87.9,39.3 88.5,39.5 89.2,39.7 89.9,39.8 90.6,39.9 91.3,39.9 92,39.8 92.7,39.7 93.4,39.5 94,39.3 94.6,39 95.3,38.6 95.8,38.2 96.4,37.8 96.9,37.3 97.3,36.7 97.7,36.2 98,35.6 98.3,34.9 98.6,34.3 98.8,33.6 98.9,32.9 98.9,32.2 98.9,52.2 98.9,46.2 98.9,45.3 99,44.5 99.2,43.6 99.4,42.8 99.7,42 100.1,41.2 100.5,40.4 101,39.7 101.6,39 102.2,38.4 102.8,37.9 103.6,37.4 104.3,36.9 105.1,36.5 105.9,36.2 106.8,36 107.6,35.9 108.5,35.8" />
<path stroke="#000000" stroke-width="2" d="M 115.2,70" />
<path stroke="#000000" stroke-width="2" d="M 115.2,20 116,20 116.9,20.1 117.8,20.2 118.6,20.5 119.4,20.8 120.2,21.1 121,21.6 121.7,22.1 122.4,22.6 123,23.2 123.5,23.9 124,24.6 124.5,25.4 124.8,26.2 125.1,27 125.4,27.8 125.5,28.7 125.6,29.6 125.6,30.4 125.5,31.3 125.4,32.2 125.1,33 124.8,33.8 124.5,34.6 124,35.4 123.5,36.1 123,36.7 122.4,37.4 121.7,37.9 121,38.4 120.2,38.9 119.4,39.2 118.6,39.5 117.8,39.8 116.9,39.9 116,40" />
<path stroke="#000000" stroke-width="2" d="M 132.3,70" />
<path stroke="#000000" stroke-width="2" d="M 132.3,30 132.5,30 132.5,30.2 132.3,30.2 132.3,30" />
<path stroke="#000000" stroke-width="2" d="M 162.5,70" />
<path stroke="#000000" stroke-width="2" d="M 178.5,30" />
<path stroke="#000000" stroke-width="2" d="M 178.5,30 178.2,34.1 177.7,37.3 176.7,39.8 175.6,41.5 174.2,42.7 172.8,43.2 171.3,43.3 169.8,43 168.4,42.3 167.2,41.2 166.2,40 165.5,38.6 165.2,37.2 165.2,35.7 165.8,34.2 166.9,32.9 168.7,31.7 171.2,30.8 174.4,30.2 178.5,30 198.5,30" />
<path stroke="#000000" stroke-width="2" d="M 205.1,70" />
<path stroke="#000000" stroke-width="2" d="M 205.1,55" />
<path stroke="#000000" stroke-width="2" d="M 205.1,55 207.2,54.9 208.8,54.6 210,54.1 210.9,53.6 211.5,52.9 211.7,52.2 211.8,51.4 211.6,50.7 211.3,50 210.8,49.4 210.1,48.9 209.4,48.5 208.7,48.3 208,48.4 207.2,48.7 206.6,49.2 206,50.1 205.5,51.4 205.2,53 205.1,55 205.1,70 197.5,88.5" />
<path stroke="#000000" stroke-width="2" d="M 218.4,70" />
<path stroke="#000000" stroke-width="2" d="M 218.4,20 219.3,20 220.2,20.1 221,20.2 221.9,20.5 222.7,20.8 223.5,21.1 224.3,21.6 225,22.1 225.6,22.6 226.3,23.2 226.8,23.9 227.3,24.6 227.8,25.4 228.1,26.2 228.4,27 228.6,27.8 228.8,28.7 228.9,29.6 228.9,30.4 228.8,31.3 228.6,32.2 228.4,33 228.1,33.8 227.8,34.6 227.3,35.4 226.8,36.1 226.3,36.7 225.6,37.4 225,37.9 224.3,38.4 223.5,38.9 222.7,39.2 221.9,39.5 221,39.8 220.2,39.9 219.3,40" />
<path stroke="#000000" stroke-width="2" d="M 258.9,70" />
<path stroke="#000000" stroke-width="2" d="M 278.9,70 280.6,70 282.4,69.8 284.1,69.5 285.8,69.1 287.4,68.5 289,67.8 290.5,66.9 291.9,65.9 293.3,64.8 294.5,63.5 295.6,62.2 296.6,60.8 297.5,59.3 298.2,57.7 298.8,56 299.3,54.3 299.6,52.6 299.7,50.9 299.7,49.1 299.6,47.4 299.3,45.7 298.8,44 298.2,42.4 297.5,40.8 296.6,39.3 295.6,37.8 294.5,36.5 293.3,35.3 291.9,34.2 290.5,33.2 289,32.3 287.4,31.5 285.8,30.9 284.1,30.5 282.4,30.2 280.6,30 278.9,30 277.1,30.2 275.4,30.5 273.7,30.9 272.1,31.5 270.5,32.3 269,33.2 267.6,34.2 266.2,35.3 265,36.5 263.9,37.8 262.9,39.3 262,40.8 261.3,42.4 260.7,44 260.2,45.7 259.9,47.4 259.8,49.1 259.8,50.9 259.9,52.6 260.2,54.3 260.7,56 261.3,57.7 262,59.3 262.9,60.8 263.9,62.2 265,63.5 266.2,64.8 267.6,65.9 269,66.9 270.5,67.8 272.1,68.5 273.7,69.1 275.4,69.5 277.1,69.8 278.9,70" />
<path stroke="#000000" stroke-width="2" d="M 306.4,70" />
<path stroke="#000000" stroke-width="2" d="M 306.4,40" />
<path stroke="#000000" stroke-width="2" d="M 306.4,40 310.5,39.8 313.7,39.2 316.1,38.3 317.9,37.1 319.1,35.8 319.6,34.3 319.7,32.8 319.4,31.4 318.6,30 317.6,28.8 316.4,27.7 315,27 313.6,26.7 312.1,26.8 310.6,27.3 309.3,28.5 308.1,30.2 307.2,32.7 306.6,35.9 306.4,40 306.4,70" />
<path stroke="#000000" stroke-width="2" d="M 349.7,70" />
<path stroke="#000000" stroke-width="2" d="M 365.7,30" />
<path stroke="#000000" stroke-width="2" d="M 365.7,30 365.5,34.1 364.9,37.3 364,39.8 362.8,41.5 361.5,42.7 360,43.2 358.5,43.3 357.1,43 355.7,42.3 354.5,41.2 353.5,40 352.7,38.6 352.4,37.2 352.5,35.7 353,34.2 354.2,32.9 355.9,31.7 358.4,30.8 361.6,30.2 365.7,30 385.7,30" />
<path stroke="#000000" stroke-width="2" d="M 392.4,70" />
<path stroke="#000000" stroke-width="2" d="M 392.4,20 392.4,40 392.4,34 392.4,33.1 392.4,32.3 392.6,31.4 392.8,30.6 393.1,29.7 393.5,28.9 393.9,28.2 394.4,27.5 395,26.8 395.6,26.2 396.3,25.6 397,25.1 397.7,24.7 398.5,24.3 399.4,24 400.2,23.8 401.1,23.6 401.9,23.6 394.3,42.1" />
<path stroke="#000000" stroke-width="2" d="M 431.9,70" />
<path stroke="#000000" stroke-width="2" d="M 431.9,70" />
<path stroke="#000000" stroke-width="2" d="M 431.9,70 433,70 434,70.2 434.9,70.4 435.6,70.7 436.1,71 436.6,71.5 436.9,71.9 437.1,72.5 437.2,73.1 437.2,73.8 437,74.4 436.8,75.2 436.5,76 436.1,76.8 435.6,77.6 435,78.4 434.3,79.3 433.6,80.2 432.8,81.1 431.9,82" />
<path stroke="#000000" stroke-width="2" d="M 467.2,70" />
<path stroke="#000000" stroke-width="2" d="M 467.2,40" />
<path stroke="#000000" stroke-width="2" d="M 467.2,40 471.3,39.8 474.5,39.2 476.9,38.3 478.7,37.1 479.9,35.8 480.4,34.3 480.5,32.8 480.2,31.4 479.4,30 478.4,28.8 477.2,27.7 475.8,27 474.4,26.7 472.9,26.8 471.4,27.3 470.1,28.5 468.9,30.2 468,32.7 467.4,35.9 467.2,40 467.2,70" />
<path stroke="#000000" stroke-width="2" d="M 487.2,70" />
<path stroke="#000000" stroke-width="2" d="M 497.2,70 498,70 498.9,69.9 499.8,69.8 500.6,69.5 501.4,69.2 502.2,68.9 503,68.4 503.7,67.9 504.4,67.4 505,66.8 505.5,66.1 506,65.4 506.5,64.6 506.8,63.8 507.1,63 507.4,62.2 507.5,61.3 507.6,60.4 507.6,59.6 507.5,58.7 507.4,57.8 507.1,57 506.8,56.2 506.5,55.4 506,54.6 505.5,53.9 505,53.3 504.4,52.6 503.7,52.1 503,51.6 502.2,51.1 501.4,50.8 500.6,50.5 499.8,50.2 498.9,50.1 498,50 497.2,50 496.3,50.1 495.4,50.2 494.6,50.5 493.8,50.8 493,51.1 492.2,51.6 491.5,52.1 490.9,52.6 490.2,53.3 489.7,53.9 489.2,54.6 488.7,55.4 488.4,56.2 488.1,57 487.8,57.8 487.7,58.7 487.6,59.6 487.6,60.4 487.7,61.3 487.8,62.2 488.1,63 488.4,63.8 488.7,64.6 489.2,65.4 489.7,66.1 490.2,66.8 490.9,67.4 491.5,67.9 492.2,68.4 493,68.9 493.8,69.2 494.6,69.5 495.4,69.8 496.3,69.9 497.2,70" />
<path stroke="#000000" stroke-width="2" d="M 514.3,70" />
<path stroke="#000000" stroke-width="2" d="M 514.3,20 514.3,40 514.3,34 514.3,33.1 514.3,32.3 514.5,31.4 514.7,30.6 515,29.7 515.4,28.9 515.8,28.2 516.3,27.5 516.9,26.8 517.5,26.2 518.2,25.6 518.9,25.1 519.6,24.7 520.4,24.3 521.2,24 522.1,23.8 522.9,23.6 523.8,23.6" />
<path stroke="#000000" stroke-width="2" d="M 523.8,23.6 525.8,23.5 527.5,23.2 528.7,22.7 529.6,22.1 530.1,21.5 530.4,20.7 530.5,20 530.3,19.3 529.9,18.6 529.4,17.9 528.8,17.4 528.1,17.1 527.4,16.9 526.7,17 525.9,17.2 525.3,17.8 524.7,18.7 524.2,19.9 523.9,21.5 523.8,23.6 523.8,38.6" />
<path stroke="#000000" stroke-width="2" d="M 560.5,70" />
<path stroke="#000000" stroke-width="2" d="M 560.5,30 600.5,30" />
<path stroke="#000000" stroke-width="2" d="M 607.1,70" />
<path stroke="#000000" stroke-width="2" d="M 615.1,50" />
<path stroke="#000000" stroke-width="2" d="M 615.1,50 615,52 614.7,53.6 614.3,54.9 613.7,55.8 613,56.3 612.3,56.6 611.6,56.7 610.8,56.5 610.1,56.1 609.5,55.6 609,55 608.7,54.3 608.5,53.6 608.5,52.8 608.8,52.1 609.4,51.4 610.3,50.9 611.5,50.4 613.1,50.1 615.1,50 625.1,50" />
<path stroke="#000000" stroke-width="2" d="M 631.8,70" />
<path stroke="#000000" stroke-width="2" d="M 631.8,50 631.8,70 641.8,70 661.8,70 654.2,88.5" />
<path stroke="#000000" stroke-width="2" d="M 691.8,70" />
<path stroke="#000000" stroke-width="2" d="M 691.8,30 731.8,30" />
<path stroke="#000000" stroke-width="2" d="M 761.8,70" />
<path stroke="#000000" stroke-width="2" d="M 761.8,30 761.8,38 761.8,39 761.9,40.1 762.1,41.1 762.4,42.1 762.7,43.1 763.2,44.1 763.7,45 764.3,45.8 764.9,46.6 765.7,47.4 766.5,48 767.3,48.6 768.3,49.2 769.2,49.6 770.2,50 771.2,50.2 772.2,50.4 773.3,50.5 774.3,50.5 775.4,50.4 776.4,50.2 777.4,50 778.4,49.6 779.3,49.2 780.2,48.6 781.1,48 781.9,47.4 782.6,46.6 783.3,45.8 783.9,45 784.4,44.1 784.9,43.1 785.2,42.1 785.5,41.1 785.7,40.1 785.8,39 785.8,29 785.8,69" />
<path stroke="#000000" stroke-width="2" d="M 792.5,70" />
<path stroke="#000000" stroke-width="2" d="M 804.5,56 804.5,56.5 804.4,57 804.3,57.6 804.2,58.1 804,58.6 803.8,59 803.5,59.5 803.2,59.9 802.9,60.3 802.5,60.7 802.1,61 801.7,61.3 801.2,61.6 800.8,61.8 800.3,62 799.8,62.1 799.2,62.2 798.7,62.3 798.2,62.3 797.7,62.2 797.2,62.1 796.7,62 796.2,61.8 795.7,61.6 795.2,61.3 794.8,61 794.4,60.7 794,60.3 793.7,59.9 793.4,59.5 793.1,59 792.9,58.6 792.7,58.1 792.6,57.6 792.5,57 792.5,56.5 792.5,56 792.5,55.5 792.6,55 792.7,54.5 792.9,54 793.1,53.5 793.4,53 793.7,52.6 794,52.2 794.4,51.8 794.8,51.5 795.2,51.2 795.7,50.9 796.2,50.7 796.7,50.5 797.2,50.4 797.7,50.3 798.2,50.3 798.7,50.3 799.2,50.3 799.8,50.4 800.3,50.5 800.8,50.7 801.2,50.9 801.7,51.2 802.1,51.5 802.5,51.8 802.9,52.2 803.2,52.6 803.5,53 803.8,53.5 804,54 804.2,54.5 804.3,55 804.4,55.5 804.5,56 804.5,60" />
<path stroke="#000000" stroke-width="2" d="M 804.5,60 804.1,60.9 803.8,61.7 803.4,62.4 803,63.1 802.6,63.8 802.2,64.4 801.7,64.9 801.2,65.4 800.7,65.9 800.2,66.2 799.7,66.6 799.1,66.9 798.6,67.2 798,67.4 797.4,67.6 796.8,67.7 796.2,67.9 795.6,67.9 795.1,68 794.5,68" />
<path stroke="#000000" stroke-width="2" d="M 834.5,70" />
<path stroke="#000000" stroke-width="2" d="M 834.5,30 854.5,30 846.8,48.5" />
<path stroke="#000000" stroke-width="2" d="M 861.1,70" />
<path stroke="#000000" stroke-width="2" d="M 861.1,50 862,50 862.9,50.1 863.7,50.2 864.6,50.5 865.4,50.8 866.2,51.1 866.9,51.6 867.6,52.1 868.3,52.6 868.9,53.2 869.5,53.9 870,54.6 870.4,55.4 870.8,56.2 871.1,57 871.3,57.8 871.5,58.7 871.5,59.6 871.5,60.4 871.5,61.3 871.3,62.2 871.1,63 870.8,63.8 870.4,64.6 870,65.4 869.5,66.1 868.9,66.7 868.3,67.4 867.6,67.9 866.9,68.4 866.2,68.9 865.4,69.2 864.6,69.5 863.7,69.8 862.9,69.9 862,70" />
<path stroke="#000000" stroke-width="2" d="M 878.2,70" />
<path stroke="#000000" stroke-width="2" d="M 888.2,20 880.6,38.5" />
<path stroke="#000000" stroke-width="2" d="M 894.9,70" />
<path stroke="#000000" stroke-width="2" d="M 894.9,20 894.9,20.7 894.9,21.4 895.1,22.1 895.2,22.8 895.5,23.4 895.8,24 896.1,24.6 896.5,25.2 897,25.8 897.5,26.2 898,26.7 898.6,27.1 899.2,27.4 899.8,27.7 900.5,28 901.1,28.2 901.8,28.3 902.5,28.3 903.2,28.3 903.9,28.3 904.6,28.2 905.3,28 905.9,27.7 906.6,27.4 907.2,27.1 907.7,26.7 908.3,26.2 908.8,25.8 909.2,25.2 909.6,24.6 910,24 910.3,23.4 910.5,22.8 910.7,22.1 910.8,21.4 910.9,20.7" />
<path stroke="#000000" stroke-width="2" d="M 940.9,70" />
<path stroke="#000000" stroke-width="2" d="M 940.9,70 941.1,70 941.1,70.2 940.9,70.2 940.9,70" />
<path stroke="#000000" stroke-width="2" d="M 971.1,70" />
<path stroke="#000000" stroke-width="2" d="M 971.1,30 971.1,70" />
<path stroke="#000000" stroke-width="2" d="M 977.7,70" />
<path stroke="#000000" stroke-width="2" d="M 977.7,40 977.7,39.3 977.8,38.6 977.9,37.9 978.1,37.2 978.3,36.6 978.6,36 979,35.4 979.4,34.8 979.8,34.2 980.3,33.8 980.9,33.3 981.4,32.9 982,32.6 982.7,32.3 983.3,32 984,31.8 984.7,31.7 985.4,31.7 986.1,31.7 986.8,31.7 987.5,31.8 988.1,32 988.8,32.3 989.4,32.6 990,32.9 990.6,33.3 991.1,33.8 991.6,34.2 992.1,34.8 992.5,35.4 992.8,36 993.1,36.6 993.4,37.2 993.5,37.9 993.7,38.6 993.7,39.3" />
<path stroke="#000000" stroke-width="2" d="M 1023.7,70" />
<path stroke="#000000" stroke-width="2" d="M 1023.7,30 1063.7,30" />
<path stroke="#000000" stroke-width="2" d="M 1093.7,70" />
<path stroke="#000000" stroke-width="2" d="M 1093.7,30 1095.5,30 1097.2,30.2 1098.9,30.5 1100.6,30.9 1102.2,31.5 1103.8,32.2 1105.3,33.1 1106.8,34.1 1108.1,35.2 1109.3,36.5 1110.5,37.8 1111.5,39.2 1112.3,40.7 1113.1,42.3 1113.7,44 1114.1,45.7 1114.4,47.4 1114.6,49.1 1114.6,50.9 1114.4,52.6 1114.1,54.3 1113.7,56 1113.1,57.6 1112.3,59.2 1111.5,60.7 1110.5,62.2 1109.3,63.5 1108.1,64.7 1106.8,65.8 1105.3,66.8 1103.8,67.7 1102.2,68.5 1100.6,69.1 1098.9,69.5 1097.2,69.8 1095.5,70" />
<path stroke="#000000" stroke-width="2" d="M 1121.2,70" />
<path stroke="#000000" stroke-width="2" d="M 1121.2,25" />
<path stroke="#000000" stroke-width="2" d="M 1121.2,25 1123.3,24.9 1124.9,24.6 1126.1,24.1 1127,23.6 1127.6,22.9 1127.8,22.2 1127.9,21.4 1127.7,20.7 1127.4,20 1126.9,19.4 1126.2,18.9 1125.6,18.5 1124.8,18.3 1124.1,18.4 1123.3,18.7 1122.7,19.2 1122.1,20.1 1121.6,21.4 1121.3,23 1121.2,25 1121.2,40" />
<path stroke="#000000" stroke-width="2" d="M 1134.6,70" />
<path stroke="#000000" stroke-width="2" d="M 1134.6,20 1142.2,38.5 1142.2,58.5 1142.2,54.5 1142.2,53.6 1142.3,52.7 1142.4,51.9 1142.7,51 1143,50.2 1143.3,49.4 1143.8,48.7 1144.3,48 1144.8,47.3 1145.4,46.7 1146.1,46.1 1146.8,45.6" />
<path stroke="#000000" stroke-width="2" d="M 1176.8,70" />
<path stroke="#000000" stroke-width="2" d="M 1186.8,30 1186,30 1185.1,30.1 1184.2,30.2 1183.4,30.5 1182.6,30.8 1181.8,31.1 1181,31.6 1180.3,32.1 1179.6,32.6 1179,33.2 1178.5,33.9 1178,34.6 1177.5,35.4 1177.2,36.2 1176.9,37 1176.6,37.8 1176.5,38.7 1176.4,39.6 1176.4,40.4 1176.5,41.3 1176.6,42.2 1176.9,43 1177.2,43.8 1177.5,44.6 1178,45.4 1178.5,46.1 1179,46.7 1179.6,47.4 1180.3,47.9 1181,48.4 1181.8,48.9 1182.6,49.2 1183.4,49.5 1184.2,49.8 1185.1,49.9 1186,50 1191,50 1191,70" />
<path stroke="#000000" stroke-width="2" d="M 1221,70" />
<path stroke="#000000" stroke-width="2" d="M 1231,30 1223.3,48.5 1223.3,68.5 1229,62.8" />
<path stroke="#000000" stroke-width="2" d="M 1237.6,70" />
<path stroke="#000000" stroke-width="2" d="M 1237.6,20 1257.6,20 1250,38.5" />
<path stroke="#000000" stroke-width="2" d="M 1264.3,70" />
<path stroke="#000000" stroke-width="2" d="M 1264.3,30 1264.5,30 1264.5,30.2 1264.3,30.2 1264.3,30" />
<path stroke="#000000" stroke-width="2" d="M 1294.5,70" />
<path stroke="#000000" stroke-width="2" d="M 1314.5,70 1316.2,70 1318,69.8 1319.7,69.5 1321.4,69.1 1323,68.5 1324.6,67.8 1326.1,66.9 1327.5,65.9 1328.9,64.8 1330.1,63.5 1331.2,62.2 1332.2,60.8 1333.1,59.3 1333.8,57.7 1334.4,56 1334.9,54.3 1335.2,52.6 1335.3,50.9 1335.3,49.1 1335.2,47.4 1334.9,45.7 1334.4,44 1333.8,42.4 1333.1,40.8 1332.2,39.3 1331.2,37.8 1330.1,36.5 1328.9,35.3 1327.5,34.2 1326.1,33.2 1324.6,32.3 1323,31.5 1321.4,30.9 1319.7,30.5 1318,30.2 1316.2,30 1314.5,30 1312.7,30.2 1311,30.5 1309.3,30.9 1307.7,31.5 1306.1,32.3 1304.6,33.2 1303.2,34.2 1301.8,35.3 1300.6,36.5 1299.5,37.8 1298.5,39.3 1297.6,40.8 1296.9,42.4 1296.3,44 1295.8,45.7 1295.5,47.4 1295.4,49.1 1295.4,50.9 1295.5,52.6 1295.8,54.3 1296.3,56 1296.9,57.7 1297.6,59.3 1298.5,60.8 1299.5,62.2 1300.6,63.5 1301.8,64.8 1303.2,65.9 1304.6,66.9 1306.1,67.8 1307.7,68.5 1309.3,69.1 1311,69.5 1312.7,69.8 1314.5,70" />
<path stroke="#000000" stroke-width="2" d="M 1342,70" />
<path stroke="#000000" stroke-width="2" d="M 1342,30 1342,50 1342,44 1342,43.1 1342.1,42.3 1342.2,41.4 1342.5,40.6 1342.8,39.7 1343.1,38.9 1343.6,38.2 1344.1,37.5 1344.6,36.8 1345.2,36.2 1345.9,35.6 1346.6,35.1 1347.4,34.7 1348.2,34.3 1349,34 1349.8,33.8 1350.7,33.6 1351.6,33.6 1343.9,52.1" />
<path stroke="#000000" stroke-width="2" d="M 1358.2,70" />
<path stroke="#000000" stroke-width="2" d="M 1358.2,20 1378.2,20" />
<path stroke="#000000" stroke-width="2" d="M 1408.2,70" />
<path stroke="#000000" stroke-width="2" d="M 1408.2,30 1408.2,50 1418.2,50 1418.2,70 1423.9,64.3" />
<path stroke="#000000" stroke-width="2" d="M 1430.6,70" />
<path stroke="#000000" stroke-width="2" d="M 1430.6,20 1450.6,20 1430.8,39.8 1450.8,39.8" />
<path stroke="#000000" stroke-width="2" d="M 1480.8,70" />
</svg>