<svg xmlns="http://www.w3.org/2000/svg" width="1264.885001102842" height="130.0677395031967" style="fill:none; stroke-linecap:round;">
    <rect width="100%" height="100%" fill="#FFFFFF" />
<path stroke="#000000" stroke-width="2" d="M 550,75" />
<path stroke="#000000" stroke-width="2" d="M 20,70 20.2,70 20.2,70.2 20,70.2 20,70" />
<path stroke="#000000" stroke-width="2" d="M 26.9,70" />
<path stroke="#000000" stroke-width="2" d="M 28.9,50 34.2,37.1 34.4,36.7 34.5,36.4 34.5,36.1 34.6,35.7 34.6,35.4 34.6,35 34.5,34.7 34.5,34.3 34.4,34 34.2,33.7 34.1,33.4 33.9,33.1 33.7,32.8 33.4,32.5 33.2,32.3 32.9,32.1 32.6,31.9 32.3,31.7 32,31.6 31.6,31.5 31.3,31.4 30.9,31.4 30.6,31.4 30.3,31.4 29.9,31.4 29.6,31.5 29.2,31.6 28.9,31.7 28.6,31.9 28.3,32.1 28,32.3 27.8,32.5 27.5,32.8 27.3,33.1 27.1,33.4 27,33.7 26.8,34 26.7,34.3 26.7,34.7 26.6,35 26.6,35.4 26.6,35.7 26.7,36.1 26.7,36.4 26.8,36.7 27,37.1 27.1,37.4 27.3,37.7 27.5,37.9 27.8,38.2 28,38.4 28.3,38.7 28.6,38.8 28.9,39 29.2,39.1 29.6,39.2 29.9,39.3 30.3,39.4 30.6,39.4 30.9,39.4 43.9,34 43.9,34.7 43.9,35.4 44.1,36.1 44.2,36.8 44.5,37.4 44.8,38 45.1,38.6 45.5,39.2 46,39.8 46.5,40.2 47,40.7 47.6,41.1 48.2,41.4 48.8,41.7 49.5,42 50.1,42.2 50.8,42.3 51.5,42.3 52.2,42.3 52.9,42.3 53.6,42.2 54.3,42 54.9,41.7 55.6,41.4 56.2,41.1 56.7,40.7 57.3,40.2 57.8,39.8 58.2,39.2 58.6,38.6 59,38 59.3,37.4 59.5,36.8 59.7,36.1 59.8,35.4 59.9,34.7" />
<path stroke="#000000" stroke-width="2" d="M 66.5,70" />
<path stroke="#000000" stroke-width="2" d="M 66.5,20 74.2,38.5" />
<path stroke="#000000" stroke-width="2" d="M 80.9,70" />
<path stroke="#000000" stroke-width="2" d="M 80.9,20 100.9,20 93.2,38.5" />
<path stroke="#000000" stroke-width="2" d="M 93.2,38.5 95.2,38.4 96.8,38.1 98.1,37.6 99,37 99.5,36.4 99.8,35.6 99.9,34.9 99.7,34.2 99.3,33.5 98.8,32.9 98.2,32.4 97.5,32 96.8,31.8 96,31.9 95.3,32.1 94.6,32.7 94.1,33.6 93.6,34.8 93.3,36.4 93.2,38.5 93.2,53.5" />
<path stroke="#000000" stroke-width="2" d="M 130.9,70" />
<path stroke="#000000" stroke-width="2" d="M 140.9,30 140,30 139.1,30.1 138.3,30.2 137.4,30.5 136.6,30.8 135.8,31.1 135,31.6 134.3,32.1 133.7,32.6 133,33.2 132.5,33.9 132,34.6 131.5,35.4 131.2,36.2 130.9,37 130.7,37.8 130.5,38.7 130.4,39.6 130.4,40.4 130.5,41.3 130.7,42.2 130.9,43 131.2,43.8 131.5,44.6 132,45.4 132.5,46.1 133,46.7 133.7,47.4 134.3,47.9 135,48.4 135.8,48.9 136.6,49.2 137.4,49.5 138.3,49.8 139.1,49.9 140,50 145,50 145,70" />
<path stroke="#000000" stroke-width="2" d="M 175,70" />
<path stroke="#000000" stroke-width="2" d="M 191,30 171.2,49.8 191,69.6" />
<path stroke="#000000" stroke-width="2" d="M 197.6,70" />
<path stroke="#000000" stroke-width="2" d="M 197.6,20 197.6,40 197.6,34 197.6,33.1 197.7,32.3 197.9,31.4 198.1,30.6 198.4,29.7 198.8,28.9 199.2,28.2 199.7,27.5 200.3,26.8 200.9,26.2 201.6,25.6 202.3,25.1 203,24.7 203.8,24.3 204.6,24 205.5,23.8 206.3,23.6 207.2,23.6 214.9,42.1" />
<path stroke="#000000" stroke-width="2" d="M 221.5,70" />
<path stroke="#000000" stroke-width="2" d="M 221.5,50 241.5,50" />
<path stroke="#000000" stroke-width="2" d="M 248.2,70" />
<path stroke="#000000" stroke-width="2" d="M 248.2,30 248.4,30 248.4,30.2 248.2,30.2 248.2,30" />
<path stroke="#000000" stroke-width="2" d="M 278.4,70" />
<path stroke="#000000" stroke-width="2" d="M 278.4,70" />
<path stroke="#000000" stroke-width="2" d="M 278.4,70 279.5,70 280.5,70.2 281.3,70.4 282,70.7 282.6,71 283.1,71.5 283.4,71.9 283.6,72.5 283.7,73.1 283.6,73.8 283.5,74.4 283.3,75.2 283,76 282.5,76.8 282,77.6 281.5,78.4 280.8,79.3 280.1,80.2 279.3,81.1 278.4,82" />
<path stroke="#000000" stroke-width="2" d="M 313.7,70" />
<path stroke="#000000" stroke-width="2" d="M 313.7,35" />
<path stroke="#000000" stroke-width="2" d="M 313.7,35 315.7,34.9 317.3,34.6 318.5,34.1 319.4,33.6 320,32.9 320.3,32.2 320.3,31.4 320.1,30.7 319.8,30 319.3,29.4 318.7,28.9 318,28.5 317.2,28.3 316.5,28.4 315.8,28.7 315.1,29.2 314.5,30.1 314.1,31.4 313.8,33 313.7,35 313.7,50 303.8,59.9 313.7,69.8" />
<path stroke="#000000" stroke-width="2" d="M 327,70" />
<path stroke="#000000" stroke-width="2" d="M 327,20 327.2,20 327.2,20.2 327,20.2 327,20" />
<path stroke="#000000" stroke-width="2" d="M 357.2,70" />
<path stroke="#000000" stroke-width="2" d="M 357.2,30 358.9,30 360.7,30.2 362.4,30.5 364.1,30.9 365.7,31.5 367.3,32.2 368.8,33.1 370.2,34.1 371.6,35.2 372.8,36.5 373.9,37.8 374.9,39.2 375.8,40.7 376.5,42.3 377.1,44 377.6,45.7 377.9,47.4 378,49.1 378,50.9 377.9,52.6 377.6,54.3 377.1,56 376.5,57.6 375.8,59.2 374.9,60.7 373.9,62.2 372.8,63.5 371.6,64.7 370.2,65.8 368.8,66.8 367.3,67.7 365.7,68.5 364.1,69.1 362.4,69.5 360.7,69.8 358.9,70" />
<path stroke="#000000" stroke-width="2" d="M 384.7,70" />
<path stroke="#000000" stroke-width="2" d="M 384.7,20 389.7,20 389.7,40" />
<path stroke="#000000" stroke-width="2" d="M 396.4,70" />
<path stroke="#000000" stroke-width="2" d="M 396.4,40 404,21.5 411.7,40 404,58.5" />
<path stroke="#000000" stroke-width="2" d="M 418.3,70" />
<path stroke="#000000" stroke-width="2" d="M 418.3,20 419.2,20 420.1,20.1 420.9,20.2 421.8,20.5 422.6,20.8 423.4,21.1 424.2,21.6 424.9,22.1 425.5,22.6 426.2,23.2 426.7,23.9 427.2,24.6 427.6,25.4 428,26.2 428.3,27 428.5,27.8 428.7,28.7 428.8,29.6 428.8,30.4 428.7,31.3 428.5,32.2 428.3,33 428,33.8 427.6,34.6 427.2,35.4 426.7,36.1 426.2,36.7 425.5,37.4 424.9,37.9 424.2,38.4 423.4,38.9 422.6,39.2 421.8,39.5 420.9,39.8 420.1,39.9 419.2,40" />
<path stroke="#000000" stroke-width="2" d="M 458.8,70" />
<path stroke="#000000" stroke-width="2" d="M 474.8,30 455,49.8 474.8,69.6" />
<path stroke="#000000" stroke-width="2" d="M 481.4,70" />
<path stroke="#000000" stroke-width="2" d="M 481.4,20 481.4,40 481.4,34 481.4,33.1 481.5,32.3 481.7,31.4 481.9,30.6 482.2,29.7 482.6,28.9 483,28.2 483.5,27.5 484.1,26.8 484.7,26.2 485.3,25.6 486.1,25.1 486.8,24.7 487.6,24.3 488.4,24 489.3,23.8 490.1,23.6 491,23.6" />
<path stroke="#000000" stroke-width="2" d="M 521,70" />
<path stroke="#000000" stroke-width="2" d="M 525,30 542,47" />
<path stroke="#000000" stroke-width="2" d="M 558.9,30 519.3,69.6 518.5,69.6 517.6,69.7 516.7,69.8 515.9,70.1 515.1,70.3 514.3,70.7 513.5,71.2 512.8,71.7 512.1,72.2 511.5,72.8 511,73.5 510.5,74.2 510,75 509.7,75.8 509.4,76.6 509.1,77.4 509,78.3 508.9,79.2 508.9,80 509,80.9 509.1,81.8 509.4,82.6 509.7,83.4 510,84.2 510.5,85 511,85.7 511.5,86.3 512.1,87 512.8,87.5 513.5,88 514.3,88.5 515.1,88.8 515.9,89.1 516.7,89.4 517.6,89.5 518.5,89.6 522.3,98.8" />
<path stroke="#000000" stroke-width="2" d="M 522.3,98.8 524.2,101 525.5,102.9 526.3,104.6 526.6,106 526.5,107.3 526.1,108.3 525.4,109.1 524.4,109.6 523.4,110 522.3,110.1 521.2,110 520.1,109.6 519.2,109.1 518.5,108.3 518.1,107.3 518,106 518.3,104.6 519,102.9 520.4,101 522.3,98.8 526.1,89.6 546.1,89.6 546.1,93.6 546.1,94.1 546.2,94.6 546.3,95.1 546.4,95.6 546.6,96.1 546.8,96.6 547,97.1 547.3,97.5 547.7,97.9 548.1,98.3 548.5,98.6 548.9,98.9 549.3,99.2 549.8,99.4 550.3,99.6 550.8,99.7 551.3,99.8 551.8,99.8 552.4,99.8 552.9,99.8 553.4,99.7 553.9,99.6 554.4,99.4 554.9,99.2 555.3,98.9 555.8,98.6 556.2,98.3 556.5,97.9 556.9,97.5 557.2,97.1 557.4,96.6 557.7,96.1 557.8,95.6 558,95.1 558.1,94.6 558.1,94.1 558.1,89.1 558.1,109.1" />
<path stroke="#000000" stroke-width="2" d="M 565.6,70" />
<path stroke="#000000" stroke-width="2" d="M 565.6,20 565.6,40 565.6,34 565.6,33.1 565.7,32.3 565.8,31.4 566.1,30.6 566.3,29.7 566.7,28.9 567.2,28.2 567.7,27.5 568.2,26.8 568.8,26.2 569.5,25.6 570.2,25.1 571,24.7 571.8,24.3 572.6,24 573.4,23.8 574.3,23.6 575.2,23.6" />
<path stroke="#000000" stroke-width="2" d="M 605.2,70" />
<path stroke="#000000" stroke-width="2" d="M 605.2,40" />
<path stroke="#000000" stroke-width="2" d="M 605.2,40 609.2,39.8 612.4,39.2 614.9,38.3 616.7,37.1 617.8,35.8 618.4,34.3 618.5,32.8 618.1,31.4 617.4,30 616.4,28.8 615.2,27.7 613.8,27 612.3,26.7 610.8,26.8 609.4,27.3 608,28.5 606.9,30.2 606,32.7 605.4,35.9 605.2,40 605.2,70" />
<path stroke="#000000" stroke-width="2" d="M 625.1,70" />
<path stroke="#000000" stroke-width="2" d="M 625.1,35" />
<path stroke="#000000" stroke-width="2" d="M 625.1,35 627.2,34.9 628.8,34.6 630,34.1 630.9,33.6 631.5,32.9 631.7,32.2 631.8,31.4 631.6,30.7 631.3,30 630.8,29.4 630.1,28.9 629.4,28.5 628.7,28.3 628,28.4 627.2,28.7 626.6,29.2 626,30.1 625.5,31.4 625.2,33 625.1,35 625.1,50 617.5,68.5" />
<path stroke="#000000" stroke-width="2" d="M 638.4,70" />
<path stroke="#000000" stroke-width="2" d="M 638.4,20 638.4,40 638.4,34 638.4,33.1 638.5,32.3 638.7,31.4 638.9,30.6 639.2,29.7 639.6,28.9 640,28.2 640.5,27.5 641.1,26.8 641.7,26.2 642.4,25.6 643.1,25.1 643.8,24.7 644.6,24.3 645.4,24 646.3,23.8 647.1,23.6 648,23.6" />
<path stroke="#000000" stroke-width="2" d="M 678,70" />
<path stroke="#000000" stroke-width="2" d="M 678,70" />
<path stroke="#000000" stroke-width="2" d="M 678,70 679.1,70 680.1,70.2 680.9,70.4 681.7,70.7 682.2,71 682.7,71.5 683,71.9 683.2,72.5 683.3,73.1 683.3,73.8 683.1,74.4 682.9,75.2 682.6,76 682.2,76.8 681.7,77.6 681.1,78.4 680.4,79.3 679.7,80.2 678.9,81.1 678,82" />
<path stroke="#000000" stroke-width="2" d="M 713.3,70" />
<path stroke="#000000" stroke-width="2" d="M 713.3,50 720.9,31.5 728.6,50 748.6,50 749.5,50 750.3,50.1 751.2,50.2 752,50.5 752.8,50.8 753.6,51.1 754.4,51.6 755.1,52.1 755.8,52.6 756.4,53.2 757,53.9 757.5,54.6 757.9,55.4 758.3,56.2 758.6,57 758.8,57.8 758.9,58.7 759,59.6 759,60.4 758.9,61.3 758.8,62.2 758.6,63 758.3,63.8 757.9,64.6 757.5,65.4 757,66.1 756.4,66.7 755.8,67.4 755.1,67.9 754.4,68.4 753.6,68.9 752.8,69.2 752,69.5 751.2,69.8 750.3,69.9 749.5,70" />
<path stroke="#000000" stroke-width="2" d="M 789,70" />
<path stroke="#000000" stroke-width="2" d="M 789,30 789,70" />
<path stroke="#000000" stroke-width="2" d="M 795.7,70" />
<path stroke="#000000" stroke-width="2" d="M 795.7,20 815.7,20" />
<path stroke="#000000" stroke-width="2" d="M 822.3,70" />
<path stroke="#000000" stroke-width="2" d="M 822.3,35" />
<path stroke="#000000" stroke-width="2" d="M 822.3,35 824.4,34.9 826,34.6 827.2,34.1 828.1,33.6 828.7,32.9 829,32.2 829,31.4 828.8,30.7 828.5,30 828,29.4 827.4,28.9 826.7,28.5 825.9,28.3 825.2,28.4 824.5,28.7 823.8,29.2 823.2,30.1 822.7,31.4 822.4,33 822.3,35 822.3,50 812.4,59.9 822.3,69.8" />
<path stroke="#000000" stroke-width="2" d="M 835.7,70" />
<path stroke="#000000" stroke-width="2" d="M 835.7,20 836.5,20 837.4,20.1 838.3,20.2 839.1,20.5 839.9,20.8 840.7,21.1 841.5,21.6 842.2,22.1 842.9,22.6 843.5,23.2 844,23.9 844.5,24.6 845,25.4 845.3,26.2 845.6,27 845.9,27.8 846,28.7 846.1,29.6 846.1,30.4 846,31.3 845.9,32.2 845.6,33 845.3,33.8 845,34.6 844.5,35.4 844,36.1 843.5,36.7 842.9,37.4 842.2,37.9 841.5,38.4 840.7,38.9 839.9,39.2 839.1,39.5 838.3,39.8 837.4,39.9 836.5,40" />
<path stroke="#000000" stroke-width="2" d="M 876.1,70" />
<path stroke="#000000" stroke-width="2" d="M 892.1,30 872.3,49.8 892.1,69.6" />
<path stroke="#000000" stroke-width="2" d="M 898.8,70" />
<path stroke="#000000" stroke-width="2" d="M 898.8,20 898.8,40 898.8,34 898.8,33.1 898.8,32.3 899,31.4 899.2,30.6 899.5,29.7 899.9,28.9 900.3,28.2 900.8,27.5 901.4,26.8 902,26.2 902.7,25.6 903.4,25.1 904.1,24.7 904.9,24.3 905.7,24 906.6,23.8 907.4,23.6 908.3,23.6" />
<path stroke="#000000" stroke-width="2" d="M 938.3,70" />
<path stroke="#000000" stroke-width="2" d="M 954.3,30" />
<path stroke="#000000" stroke-width="2" d="M 954.3,30 954.1,34.1 953.5,37.3 952.6,39.8 951.4,41.5 950.1,42.7 948.6,43.2 947.1,43.3 945.7,43 944.3,42.3 943.1,41.2 942.1,40 941.4,38.6 941,37.2 941.1,35.7 941.7,34.2 942.8,32.9 944.6,31.7 947,30.8 950.2,30.2 954.3,30 974.3,30" />
<path stroke="#000000" stroke-width="2" d="M 981,70" />
<path stroke="#000000" stroke-width="2" d="M 981,20 981,40 981,34 981,33.1 981.1,32.3 981.2,31.4 981.4,30.6 981.7,29.7 982.1,28.9 982.5,28.2 983,27.5 983.6,26.8 984.2,26.2 984.9,25.6 985.6,25.1 986.4,24.7 987.1,24.3 988,24 988.8,23.8 989.7,23.6 990.5,23.6 998.2,42.1" />
<path stroke="#000000" stroke-width="2" d="M 1004.9,70" />
<path stroke="#000000" stroke-width="2" d="M 1004.9,20 1024.9,20" />
<path stroke="#000000" stroke-width="2" d="M 1031.5,70" />
<path stroke="#000000" stroke-width="2" d="M 1031.5,20 1051.5,20 1043.9,38.5 1043.9,39.2 1043.9,39.9 1044,40.6 1044.2,41.2 1044.5,41.9 1044.8,42.5 1045.1,43.1 1045.5,43.7 1046,44.2 1046.5,44.7 1047,45.2 1047.6,45.6 1048.2,45.9 1048.8,46.2 1049.5,46.5 1050.1,46.6 1050.8,46.8 1051.5,46.8 1052.2,46.8 1052.9,46.8 1053.6,46.6 1054.3,46.5 1054.9,46.2 1055.6,45.9 1056.2,45.6 1056.7,45.2 1057.3,44.7 1057.8,44.2 1058.2,43.7 1058.6,43.1 1059,42.5 1059.2,41.9 1059.5,41.2 1059.7,40.6 1059.8,39.9 1059.9,39.2" />
<path stroke="#000000" stroke-width="2" d="M 1066.5,70" />
<path stroke="#000000" stroke-width="2" d="M 1066.5,30 1066.7,30 1066.7,30.2 1066.5,30.2 1066.5,30" />
<path stroke="#000000" stroke-width="2" d="M 1096.7,70" />
<path stroke="#000000" stroke-width="2" d="M 1096.7,30 1096.7,50 1106.7,50 1126.7,50" />
<path stroke="#000000" stroke-width="2" d="M 1156.7,70" />
<path stroke="#000000" stroke-width="2" d="M 1156.7,70 1156.9,70 1156.9,70.2 1156.7,70.2 1156.7,70" />
<path stroke="#000000" stroke-width="2" d="M 1163.6,70" />
<path stroke="#000000" stroke-width="2" d="M 1163.6,30 1178.9,67" />
<path stroke="#000000" stroke-width="2" d="M 1185.6,70" />
<path stroke="#000000" stroke-width="2" d="M 1195.6,50 1194.7,50 1193.8,50.1 1193,50.2 1192.1,50.5 1191.3,50.8 1190.5,51.1 1189.7,51.6 1189,52.1 1188.4,52.6 1187.7,53.2 1187.2,53.9 1186.7,54.6 1186.3,55.4 1185.9,56.2 1185.6,57 1185.4,57.8 1185.2,58.7 1185.1,59.6 1185.1,60.4 1185.2,61.3 1185.4,62.2 1185.6,63 1185.9,63.8 1186.3,64.6 1186.7,65.4 1187.2,66.1 1187.7,66.7 1188.4,67.4 1189,67.9 1189.7,68.4 1190.5,68.9 1191.3,69.2 1192.1,69.5 1193,69.8 1193.8,69.9 1194.7,70 1214.7,70" />
<path stroke="#000000" stroke-width="2" d="M 1244.7,70" />
<path stroke="#000000" stroke-width="2" d="M 1244.7,70 1244.9,70 1244.9,70.2 1244.7,70.2 1244.7,70" />
<path stroke="#000000" stroke-width="2" d="M 1274.9,70" />
</svg>