<svg xmlns="http://www.w3.org/2000/svg" width="621.7179324456189" height="122.0" style="fill:none; stroke-linecap:round;">
    <rect width="100%" height="100%" fill="#FFFFFF" />
<path stroke="#000000" stroke-width="2" d="M 550,75" />
<path stroke="#000000" stroke-width="2" d="M 40,30 38.3,30 36.5,30.2 34.8,30.5 33.1,30.9 31.5,31.5 29.9,32.2 28.4,33.1 27,34.1 25.6,35.2 24.4,36.5 23.3,37.8 22.3,39.2 21.4,40.7 20.7,42.3 20.1,44 19.6,45.7 19.3,47.4 19.1,49.1 19.1,50.9 19.3,52.6 19.6,54.3 20.1,56 20.7,57.6 21.4,59.2 22.3,60.7 23.3,62.2 24.4,63.5 25.6,64.7 27,65.8 28.4,66.8 29.9,67.7 31.5,68.5 33.1,69.1 34.8,69.5 36.5,69.8 38.3,70 42.1,79.2" />
<path stroke="#000000" stroke-width="2" d="M 42.1,79.2 44,81.3 45.3,83.3 46.1,84.9 46.4,86.4 46.3,87.6 45.9,88.7 45.2,89.4 44.2,90 43.2,90.3 42.1,90.5 41,90.3 39.9,90 39,89.4 38.3,88.7 37.9,87.6 37.8,86.4 38.1,84.9 38.8,83.3 40.2,81.3 42.1,79.2 45.9,70 45.9,90 45.9,84 45.9,83.1 46,82.2 46.1,81.4 46.4,80.5 46.7,79.7 47,78.9 47.5,78.2 48,77.4 48.5,76.8 49.1,76.2 49.8,75.6 50.5,75.1 51.3,74.7 52.1,74.3 52.9,74 53.7,73.8 54.6,73.6 55.5,73.5" />
<path stroke="#000000" stroke-width="2" d="M 85.5,70" />
<path stroke="#000000" stroke-width="2" d="M 85.5,40" />
<path stroke="#000000" stroke-width="2" d="M 85.5,40 89.5,39.8 92.8,39.2 95.2,38.3 97,37.1 98.1,35.8 98.7,34.3 98.8,32.8 98.4,31.4 97.7,30 96.7,28.8 95.5,27.7 94.1,27 92.6,26.7 91.1,26.8 89.7,27.3 88.3,28.5 87.2,30.2 86.3,32.7 85.7,35.9 85.5,40 85.5,70" />
<path stroke="#000000" stroke-width="2" d="M 105.4,70" />
<path stroke="#000000" stroke-width="2" d="M 105.4,50 109.3,59.2" />
<path stroke="#000000" stroke-width="2" d="M 109.3,59.2 111.2,61.4 112.5,63.3 113.3,65 113.6,66.4 113.5,67.7 113,68.7 112.3,69.5 111.4,70 110.4,70.4 109.3,70.5 108.2,70.4 107.1,70 106.2,69.5 105.5,68.7 105,67.7 104.9,66.4 105.2,65 106,63.3 107.3,61.4 109.3,59.2 113.1,50 113.1,50.7 113.2,51.4 113.3,52.1 113.5,52.8 113.7,53.4 114,54 114.3,54.6 114.7,55.2 115.2,55.8 115.7,56.2 116.2,56.7 116.8,57.1 117.4,57.4 118,57.7 118.7,58 119.4,58.2 120,58.3 120.7,58.3 121.4,58.3 122.1,58.3 122.8,58.2 123.5,58 124.1,57.7 124.8,57.4 125.4,57.1 126,56.7 126.5,56.2 127,55.8 127.4,55.2 127.8,54.6 128.2,54 128.5,53.4 128.7,52.8 128.9,52.1 129,51.4 129.1,50.7" />
<path stroke="#000000" stroke-width="2" d="M 159.1,70" />
<path stroke="#000000" stroke-width="2" d="M 159.1,70 170.6,42.3" />
<path stroke="#000000" stroke-width="2" d="M 170.6,42.3 174.6,42.1 177.8,41.5 180.3,40.6 182.1,39.4 183.2,38.1 183.8,36.6 183.9,35.1 183.5,33.6 182.8,32.3 181.8,31 180.6,30 179.2,29.3 177.7,29 176.2,29.1 174.8,29.6 173.4,30.8 172.3,32.5 171.4,35 170.8,38.2 170.6,42.3 170.6,72.3" />
<path stroke="#000000" stroke-width="2" d="M 213.9,70" />
<path stroke="#000000" stroke-width="2" d="M 213.9,30 253.9,30" />
<path stroke="#000000" stroke-width="2" d="M 260.5,70" />
<path stroke="#000000" stroke-width="2" d="M 284.5,42 284.5,43 284.4,44.1 284.3,45.1 284,46.1 283.6,47.1 283.2,48.1 282.7,49 282.1,49.8 281.4,50.6 280.7,51.4 279.8,52 279,52.6 278.1,53.2 277.1,53.6 276.2,54 275.1,54.2 274.1,54.4 273.1,54.5 272,54.5 271,54.4 269.9,54.2 268.9,54 268,53.6 267,53.2 266.1,52.6 265.2,52 264.4,51.4 263.7,50.6 263,49.8 262.4,49 261.9,48.1 261.5,47.1 261.1,46.1 260.8,45.1 260.6,44.1 260.6,43 260.6,42 260.6,41 260.8,39.9 261.1,38.9 261.5,37.9 261.9,37 262.4,36.1 263,35.2 263.7,34.4 264.4,33.7 265.2,33 266.1,32.4 267,31.9 268,31.4 268.9,31.1 269.9,30.8 271,30.6 272,30.5 273.1,30.5 274.1,30.6 275.1,30.8 276.2,31.1 277.1,31.4 278.1,31.9 279,32.4 279.8,33 280.7,33.7 281.4,34.4 282.1,35.2 282.7,36.1 283.2,37 283.6,37.9 284,38.9 284.3,39.9 284.4,41 284.5,42 284.5,50" />
<path stroke="#000000" stroke-width="2" d="M 284.5,50 283.9,51.7 283.2,53.4 282.5,54.9 281.7,56.3 280.8,57.6 280,58.7 279,59.8 278.1,60.8 277.1,61.7 276,62.5 275,63.2 273.9,63.8 272.8,64.4 271.6,64.8 270.5,65.2 269.3,65.5 268.1,65.7 266.9,65.9 265.7,66 264.5,66" />
<path stroke="#000000" stroke-width="2" d="M 314.5,70" />
<path stroke="#000000" stroke-width="2" d="M 334.5,30 314.7,49.8" />
<path stroke="#000000" stroke-width="2" d="M 314.7,29.8 334.5,49.6" />
<path stroke="#000000" stroke-width="2" d="M 334.5,49.6 334.4,51.6 334.1,53.2 333.7,54.5 333.1,55.4 332.4,55.9 331.7,56.2 330.9,56.3 330.2,56.1 329.5,55.7 328.9,55.2 328.4,54.6 328.1,53.9 327.9,53.2 327.9,52.4 328.2,51.7 328.8,51 329.7,50.5 330.9,50 332.5,49.7 334.5,49.6 344.5,49.6" />
<path stroke="#000000" stroke-width="2" d="M 351.2,70" />
<path stroke="#000000" stroke-width="2" d="M 351.2,20 351.2,40 351.2,34 351.2,33.1 351.3,32.3 351.4,31.4 351.7,30.6 352,29.7 352.3,28.9 352.8,28.2 353.3,27.5 353.8,26.8 354.4,26.2 355.1,25.6 355.8,25.1 356.6,24.7 357.4,24.3 358.2,24 359,23.8 359.9,23.6 360.8,23.6" />
<path stroke="#000000" stroke-width="2" d="M 367.4,70" />
<path stroke="#000000" stroke-width="2" d="M 367.4,30 387.4,30" />
<path stroke="#000000" stroke-width="2" d="M 387.4,30 389.5,29.9 391.1,29.6 392.3,29.1 393.2,28.6 393.7,27.9 394,27.2 394.1,26.4 393.9,25.7 393.5,25 393,24.4 392.4,23.9 391.7,23.5 391,23.3 390.3,23.4 389.5,23.7 388.9,24.2 388.3,25.1 387.8,26.4 387.5,28 387.4,30 387.4,45 388.3,45 389.2,45.1 390,45.2 390.9,45.5 391.7,45.8 392.5,46.1 393.2,46.6 393.9,47.1 394.6,47.6 395.2,48.2 395.8,48.9 396.3,49.6 396.7,50.4 397.1,51.2 397.4,52 397.6,52.8 397.8,53.7 397.8,54.6 397.8,55.4 397.8,56.3 397.6,57.2 397.4,58 397.1,58.8 396.7,59.6 396.3,60.4 395.8,61.1 395.2,61.7 394.6,62.4 393.9,62.9 393.2,63.4 392.5,63.9 391.7,64.2 390.9,64.5 390,64.8 389.2,64.9 388.3,65" />
<path stroke="#000000" stroke-width="2" d="M 427.8,70" />
<path stroke="#000000" stroke-width="2" d="M 427.8,50 435.5,31.5 435.5,30.8 435.6,30.1 435.7,29.4 435.9,28.8 436.1,28.1 436.4,27.5 436.7,26.9 437.1,26.3 437.6,25.8 438.1,25.3 438.6,24.8 439.2,24.4 439.8,24.1 440.4,23.8 441.1,23.5 441.8,23.4 442.4,23.2 443.1,23.2 443.8,23.2 444.5,23.2 445.2,23.4 445.9,23.5 446.6,23.8 447.2,24.1 447.8,24.4 448.4,24.8 448.9,25.3 449.4,25.8 449.8,26.3 450.2,26.9 450.6,27.5 450.9,28.1 451.1,28.8 451.3,29.4 451.4,30.1 451.5,30.8 461.4,40.7 451.5,50.6" />
<path stroke="#000000" stroke-width="2" d="M 468.1,70" />
<path stroke="#000000" stroke-width="2" d="M 468.1,70 475.7,51.5 475.7,52.2 475.8,52.9 475.9,53.6 476.1,54.3 476.3,54.9 476.6,55.6 477,56.2 477.4,56.7 477.8,57.3 478.3,57.8 478.8,58.2 479.4,58.6 480,59 480.6,59.3 481.3,59.5 482,59.7 482.7,59.8 483.3,59.9 484,59.9 484.7,59.8 485.4,59.7 486.1,59.5 486.8,59.3 487.4,59 488,58.6 488.6,58.2 489.1,57.8 489.6,57.3 490,56.7 490.4,56.2 490.8,55.6 491.1,54.9 491.3,54.3 491.5,53.6 491.6,52.9 491.7,52.2" />
<path stroke="#000000" stroke-width="2" d="M 498.4,70" />
<path stroke="#000000" stroke-width="2" d="M 498.4,30 498.6,30 498.6,30.2 498.4,30.2 498.4,30" />
<path stroke="#000000" stroke-width="2" d="M 528.6,70" />
<path stroke="#000000" stroke-width="2" d="M 528.6,62 529.4,62 529.4,62.8 528.6,62.8 528.6,62" />
<path stroke="#000000" stroke-width="2" d="M 528.6,78" />
<path stroke="#000000" stroke-width="2" d="M 528.6,78 530.8,78.1 532.8,78.3 534.4,78.8 535.9,79.3 537,80.1 537.9,80.9 538.5,81.9 538.9,83 539.1,84.2 539.1,85.5 538.8,86.9 538.3,88.4 537.7,89.9 536.9,91.5 535.9,93.2 534.7,94.9 533.4,96.6 531.9,98.4 530.3,100.2 528.6,102" />
<path stroke="#000000" stroke-width="2" d="M 569.1,70" />
<path stroke="#000000" stroke-width="2" d="M 569.1,30 569.1,70 580.4,58.7" />
<path stroke="#000000" stroke-width="2" d="M 587.1,70" />
<path stroke="#000000" stroke-width="2" d="M 587.1,40 594.7,21.5 594.7,41.5 594.7,35.5 594.7,34.7 594.8,33.8 595,32.9 595.2,32.1 595.5,31.3 595.9,30.5 596.3,29.7 596.8,29 597.4,28.3 598,27.7 598.6,27.2 599.4,26.7 600.1,26.2 600.9,25.8 601.7,25.5" />
<path stroke="#000000" stroke-width="2" d="M 631.7,70" />
</svg>