<svg xmlns="http://www.w3.org/2000/svg" width="1028.261618960369" height="90.2" style="fill:none; stroke-linecap:round;">
    <rect width="100%" height="100%" fill="#FFFFFF" />
<path stroke="#000000" stroke-width="2" d="M 550,75" />
<path stroke="#000000" stroke-width="2" d="M 30,30 22.3,48.5 22.3,68.5 28,62.8" />
<path stroke="#000000" stroke-width="2" d="M 36.7,70" />
<path stroke="#000000" stroke-width="2" d="M 36.7,50 36.9,50 36.9,50.2 36.7,50.2 36.7,50" />
<path stroke="#000000" stroke-width="2" d="M 66.9,70" />
<path stroke="#000000" stroke-width="2" d="M 66.9,30 76.9,30 76.9,70" />
<path stroke="#000000" stroke-width="2" d="M 83.5,70" />
<path stroke="#000000" stroke-width="2" d="M 83.5,30 83.5,38 83.5,39 83.6,40.1 83.8,41.1 84.1,42.1 84.4,43.1 84.9,44.1 85.4,45 86,45.8 86.7,46.6 87.4,47.4 88.2,48 89.1,48.6 90,49.2 90.9,49.6 91.9,50 92.9,50.2 94,50.4 95,50.5 96,50.5 97.1,50.4 98.1,50.2 99.1,50 100.1,49.6 101.1,49.2 102,48.6 102.8,48 103.6,47.4 104.4,46.6 105,45.8 105.6,45 106.2,44.1 106.6,43.1 107,42.1 107.2,41.1 107.4,40.1 107.5,39 107.5,29 107.5,69" />
<path stroke="#000000" stroke-width="2" d="M 114.2,70" />
<path stroke="#000000" stroke-width="2" d="M 114.2,50 114.2,70 114.2,64 114.2,63.1 114.3,62.3 114.4,61.4 114.6,60.6 114.9,59.7 115.3,58.9 115.7,58.2 116.2,57.5 116.8,56.8 117.4,56.2 118.1,55.6 118.8,55.1 119.6,54.7 120.3,54.3 121.2,54 122,53.8 122.9,53.6 123.7,53.6" />
<path stroke="#000000" stroke-width="2" d="M 123.7,53.6 125.8,53.5 127.4,53.2 128.6,52.7 129.5,52.1 130.1,51.5 130.3,50.7 130.4,50 130.2,49.3 129.9,48.6 129.4,47.9 128.7,47.4 128.1,47.1 127.3,46.9 126.6,47 125.8,47.2 125.2,47.8 124.6,48.7 124.1,49.9 123.8,51.5 123.7,53.6 123.7,68.6" />
<path stroke="#000000" stroke-width="2" d="M 160.4,70" />
<path stroke="#000000" stroke-width="2" d="M 160.4,30 160.4,31.4 160.5,32.8 160.7,34.2 161.1,35.5 161.6,36.8 162.2,38.1 162.9,39.3 163.7,40.4 164.6,41.5 165.6,42.5 166.6,43.4 167.8,44.2 169,44.9 170.2,45.5 171.6,46 172.9,46.3 174.3,46.6 175.7,46.7 177.1,46.7 178.5,46.6 179.8,46.3 181.2,46 182.5,45.5 183.8,44.9 185,44.2 186.1,43.4 187.2,42.5 188.2,41.5 189.1,40.4 189.9,39.3 190.6,38.1 191.2,36.8 191.6,35.5 192,34.2 192.2,32.8 192.4,31.4" />
<path stroke="#000000" stroke-width="2" d="M 199,70" />
<path stroke="#000000" stroke-width="2" d="M 199,30 199.2,30 199.2,30.2 199,30.2 199,30" />
<path stroke="#000000" stroke-width="2" d="M 229.2,70" />
<path stroke="#000000" stroke-width="2" d="M 229.2,35" />
<path stroke="#000000" stroke-width="2" d="M 229.2,35 231.3,34.9 232.9,34.6 234.1,34.1 235,33.6 235.6,32.9 235.8,32.2 235.9,31.4 235.7,30.7 235.3,30 234.8,29.4 234.2,28.9 233.5,28.5 232.8,28.3 232.1,28.4 231.3,28.7 230.7,29.2 230.1,30.1 229.6,31.4 229.3,33 229.2,35 229.2,50" />
<path stroke="#000000" stroke-width="2" d="M 229.2,50 229.1,52 228.8,53.6 228.4,54.9 227.8,55.8 227.1,56.3 226.4,56.6 225.6,56.7 224.9,56.5 224.2,56.1 223.6,55.6 223.1,55 222.7,54.3 222.6,53.6 222.6,52.8 222.9,52.1 223.5,51.4 224.3,50.9 225.6,50.4 227.2,50.1 229.2,50 239.2,50 239.2,70 239.2,64 239.2,63.1 239.3,62.3 239.4,61.4 239.7,60.6 240,59.7 240.3,58.9 240.8,58.2 241.3,57.5 241.8,56.8 242.5,56.2 243.1,55.6 243.8,55.1 244.6,54.7 245.4,54.3 246.2,54 247,53.8 247.9,53.6 248.8,53.6" />
<path stroke="#000000" stroke-width="2" d="M 255.4,70" />
<path stroke="#000000" stroke-width="2" d="M 255.4,20 255.4,40 261.1,34.3 261.1,35 261.2,35.7 261.3,36.4 261.5,37.1 261.7,37.8 262,38.4 262.3,39 262.7,39.6 263.2,40.1 263.7,40.6 264.2,41 264.8,41.4 265.4,41.8 266,42.1 266.7,42.3 267.4,42.5 268,42.6 268.7,42.7 269.4,42.7 270.1,42.6 270.8,42.5 271.5,42.3 272.2,42.1 272.8,41.8 273.4,41.4 274,41 274.5,40.6 275,40.1 275.4,39.6 275.8,39 276.2,38.4 276.5,37.8 276.7,37.1 276.9,36.4 277,35.7 277.1,35 278,35 278.8,35.1 279.7,35.3 280.5,35.5 281.3,35.8 282.1,36.2 282.9,36.6 283.6,37.1 284.3,37.7 284.9,38.3 285.5,38.9 286,39.7 286.4,40.4 286.8,41.2 287.1,42 287.3,42.9 287.4,43.7 287.5,44.6 287.5,45.5 287.4,46.3 287.3,47.2 287.1,48 286.8,48.9 286.4,49.6 286,50.4 285.5,51.1 284.9,51.8 284.3,52.4 283.6,53 282.9,53.5 282.1,53.9 281.3,54.3 280.5,54.6 279.7,54.8 278.8,54.9 278,55" />
<path stroke="#000000" stroke-width="2" d="M 317.5,70" />
<path stroke="#000000" stroke-width="2" d="M 327.5,30 326.6,30 325.8,30.1 324.9,30.2 324.1,30.5 323.2,30.8 322.5,31.1 321.7,31.6 321,32.1 320.3,32.6 319.7,33.2 319.1,33.9 318.6,34.6 318.2,35.4 317.8,36.2 317.5,37 317.3,37.8 317.2,38.7 317.1,39.6 317.1,40.4 317.2,41.3 317.3,42.2 317.5,43 317.8,43.8 318.2,44.6 318.6,45.4 319.1,46.1 319.7,46.7 320.3,47.4 321,47.9 321.7,48.4 322.5,48.9 323.2,49.2 324.1,49.5 324.9,49.8 325.8,49.9 326.6,50 346.6,50" />
<path stroke="#000000" stroke-width="2" d="M 376.6,70" />
<path stroke="#000000" stroke-width="2" d="M 376.6,70 376.8,70 376.8,70.2 376.6,70.2 376.6,70" />
<path stroke="#000000" stroke-width="2" d="M 383.5,70" />
<path stroke="#000000" stroke-width="2" d="M 385.5,50 390.9,37.1 391,36.7 391.1,36.4 391.2,36.1 391.2,35.7 391.2,35.4 391.2,35 391.2,34.7 391.1,34.3 391,34 390.9,33.7 390.7,33.4 390.5,33.1 390.3,32.8 390.1,32.5 389.8,32.3 389.5,32.1 389.2,31.9 388.9,31.7 388.6,31.6 388.3,31.5 387.9,31.4 387.6,31.4 387.2,31.4 386.9,31.4 386.5,31.4 386.2,31.5 385.9,31.6 385.5,31.7 385.2,31.9 384.9,32.1 384.7,32.3 384.4,32.5 384.2,32.8 384,33.1 383.8,33.4 383.6,33.7 383.5,34 383.4,34.3 383.3,34.7 383.3,35 383.2,35.4 383.3,35.7 383.3,36.1 383.4,36.4 383.5,36.7 383.6,37.1 383.8,37.4 384,37.7 384.2,37.9 384.4,38.2 384.7,38.4 384.9,38.7 385.2,38.8 385.5,39 385.9,39.1 386.2,39.2 386.5,39.3 386.9,39.4 387.2,39.4 387.6,39.4 400.5,34" />
<path stroke="#000000" stroke-width="2" d="M 400.5,34 398.5,33.9 396.9,33.6 395.6,33.1 394.8,32.6 394.2,31.9 393.9,31.2 393.9,30.4 394,29.7 394.4,29 394.9,28.4 395.5,27.9 396.2,27.5 396.9,27.3 397.7,27.4 398.4,27.7 399.1,28.2 399.7,29.1 400.1,30.4 400.4,32 400.5,34 400.5,49" />
<path stroke="#000000" stroke-width="2" d="M 407.2,70" />
<path stroke="#000000" stroke-width="2" d="M 407.2,25" />
<path stroke="#000000" stroke-width="2" d="M 407.2,25 409.2,24.9 410.8,24.6 412.1,24.1 412.9,23.6 413.5,22.9 413.8,22.2 413.8,21.4 413.7,20.7 413.3,20 412.8,19.4 412.2,18.9 411.5,18.5 410.8,18.3 410,18.4 409.3,18.7 408.6,19.2 408,20.1 407.6,21.4 407.3,23 407.2,25 407.2,40 399.5,58.5 401.8,52.9 402.2,52.1 402.6,51.4 403,50.6 403.6,49.9 404.2,49.3 404.8,48.7 405.5,48.2 406.2,47.7 407,47.3 407.8,47 408.6,46.7 409.5,46.5" />
<path stroke="#000000" stroke-width="2" d="M 420.5,70" />
<path stroke="#000000" stroke-width="2" d="M 420.5,40 428.2,21.5 448.2,21.5" />
<path stroke="#000000" stroke-width="2" d="M 478.2,70" />
<path stroke="#000000" stroke-width="2" d="M 478.2,30 478.2,38 478.2,39 478.3,40.1 478.4,41.1 478.7,42.1 479.1,43.1 479.5,44.1 480,45 480.6,45.8 481.3,46.6 482,47.4 482.8,48 483.7,48.6 484.6,49.2 485.6,49.6 486.5,50 487.6,50.2 488.6,50.4 489.6,50.5 490.7,50.5 491.7,50.4 492.7,50.2 493.8,50 494.7,49.6 495.7,49.2 496.6,48.6 497.5,48 498.3,47.4 499,46.6 499.7,45.8 500.3,45 500.8,44.1 501.2,43.1 501.6,42.1 501.9,41.1 502,40.1 502.1,39 502.1,29 502.1,69 502.1,67.3 502.3,65.6 502.6,63.8 503,62.2 503.6,60.5 504.4,58.9 505.3,57.4 506.3,56 507.4,54.7 508.6,53.4 509.9,52.3 511.4,51.3 512.9,50.4 514.5,49.7 516.1,49.1 517.8,48.6 519.5,48.3 521.2,48.2" />
<path stroke="#000000" stroke-width="2" d="M 527.9,70" />
<path stroke="#000000" stroke-width="2" d="M 527.9,25" />
<path stroke="#000000" stroke-width="2" d="M 527.9,25 529.9,24.9 531.6,24.6 532.8,24.1 533.7,23.6 534.2,22.9 534.5,22.2 534.6,21.4 534.4,20.7 534,20 533.5,19.4 532.9,18.9 532.2,18.5 531.5,18.3 530.7,18.4 530,18.7 529.4,19.2 528.8,20.1 528.3,21.4 528,23 527.9,25 527.9,40" />
<path stroke="#000000" stroke-width="2" d="M 564.6,70" />
<path stroke="#000000" stroke-width="2" d="M 584.6,30 569.3,67" />
<path stroke="#000000" stroke-width="2" d="M 591.2,70" />
<path stroke="#000000" stroke-width="2" d="M 591.2,20 591.2,20.7 591.3,21.4 591.4,22.1 591.6,22.8 591.8,23.4 592.1,24 592.5,24.6 592.9,25.2 593.3,25.8 593.8,26.2 594.4,26.7 594.9,27.1 595.5,27.4 596.2,27.7 596.8,28 597.5,28.2 598.2,28.3 598.9,28.3 599.6,28.3 600.3,28.3 601,28.2 601.6,28 602.3,27.7 602.9,27.4 603.5,27.1 604.1,26.7 604.6,26.2 605.1,25.8 605.6,25.2 606,24.6 606.3,24 606.6,23.4 606.9,22.8 607,22.1 607.2,21.4 607.2,20.7 607.2,20 607.3,19.3 607.4,18.6 607.6,17.9 607.8,17.3 608.1,16.7 608.5,16.1 608.9,15.5 609.3,14.9 609.8,14.5 610.3,14 610.9,13.6 611.5,13.3 612.2,13 612.8,12.7 613.5,12.5 614.2,12.4 614.9,12.4 615.6,12.4 616.3,12.4 616.9,12.5 617.6,12.7 618.3,13 618.9,13.3 619.5,13.6 620.1,14 620.6,14.5 621.1,14.9 621.6,15.5 622,16.1 622.3,16.7 622.6,17.3 622.8,17.9 623,18.6 623.1,19.3 623.2,20 623.2,20.5 623.2,21 623.1,21.6 622.9,22.1 622.8,22.6 622.5,23 622.3,23.5 622,23.9 621.6,24.3 621.3,24.7 620.9,25 620.4,25.3 620,25.6 619.5,25.8 619,26 618.5,26.1 618,26.2 617.5,26.3 616.9,26.3 616.4,26.2 615.9,26.1 615.4,26 614.9,25.8 614.4,25.6 614,25.3 613.6,25 613.2,24.7 612.8,24.3 612.5,23.9 612.2,23.5 611.9,23 611.7,22.6 611.5,22.1 611.4,21.6 611.3,21 611.2,20.5 611.2,20 611.3,19.5 611.4,19 611.5,18.5 611.7,18 611.9,17.5 612.2,17 612.5,16.6 612.8,16.2 613.2,15.8 613.6,15.5 614,15.2 614.4,14.9 614.9,14.7 615.4,14.5 615.9,14.4 616.4,14.3 616.9,14.3 617.5,14.3 618,14.3 618.5,14.4 619,14.5 619.5,14.7 620,14.9 620.4,15.2 620.9,15.5 621.3,15.8 621.6,16.2 622,16.6 622.3,17 622.5,17.5 622.8,18 622.9,18.5 623.1,19 623.2,19.5 623.2,20 623.2,24" />
<path stroke="#000000" stroke-width="2" d="M 623.2,24 622.9,24.9 622.5,25.7 622.2,26.4 621.8,27.1 621.4,27.8 620.9,28.4 620.5,28.9 620,29.4 619.5,29.9 619,30.2 618.4,30.6 617.9,30.9 617.3,31.2 616.8,31.4 616.2,31.6 615.6,31.7 615,31.9 614.4,31.9 613.8,32 613.2,32" />
<path stroke="#000000" stroke-width="2" d="M 653.2,70" />
<path stroke="#000000" stroke-width="2" d="M 653.2,30 673.2,30 674.1,30 674.9,30.1 675.8,30.2 676.6,30.5 677.5,30.8 678.3,31.1 679,31.6 679.7,32.1 680.4,32.6 681,33.2 681.6,33.9 682.1,34.6 682.5,35.4 682.9,36.2 683.2,37 683.4,37.8 683.6,38.7 683.6,39.6 683.6,40.4 683.6,41.3 683.4,42.2 683.2,43 682.9,43.8 682.5,44.6 682.1,45.4 681.6,46.1 681,46.7 680.4,47.4 679.7,47.9 679,48.4 678.3,48.9 677.5,49.2 676.6,49.5 675.8,49.8 674.9,49.9 674.1,50" />
<path stroke="#000000" stroke-width="2" d="M 713.6,70" />
<path stroke="#000000" stroke-width="2" d="M 713.6,30 713.6,31.4 713.8,32.8 714,34.2 714.4,35.5 714.8,36.8 715.4,38.1 716.1,39.3 716.9,40.4 717.8,41.5 718.8,42.5 719.9,43.4 721,44.2 722.2,44.9 723.5,45.5 724.8,46 726.2,46.3 727.5,46.6 728.9,46.7 730.3,46.7 731.7,46.6 733.1,46.3 734.4,46 735.7,45.5 737,44.9 738.2,44.2 739.4,43.4 740.4,42.5 741.4,41.5 742.3,40.4 743.1,39.3 743.8,38.1 744.4,36.8 744.9,35.5 745.2,34.2 745.5,32.8 745.6,31.4" />
<path stroke="#000000" stroke-width="2" d="M 752.3,70" />
<path stroke="#000000" stroke-width="2" d="M 752.3,20 757.3,20 757.3,40 757.3,40.5 757.2,41 757.1,41.6 757,42.1 756.8,42.6 756.6,43 756.3,43.5 756,43.9 755.7,44.3 755.3,44.7 754.9,45 754.5,45.3 754,45.6 753.6,45.8 753.1,46 752.6,46.1 752.1,46.2 751.5,46.3 751,46.3 750.5,46.2 750,46.1 749.5,46 749,45.8 748.5,45.6 748.1,45.3 747.6,45 747.2,44.7 746.9,44.3 746.5,43.9 746.2,43.5 746,43 745.7,42.6 745.6,42.1 745.4,41.6 745.3,41 745.3,40.5 745.3,40 745.3,39.5 745.4,39 745.6,38.5 745.7,38 746,37.5 746.2,37 746.5,36.6 746.9,36.2 747.2,35.8 747.6,35.5 748.1,35.2 748.5,34.9 749,34.7 749.5,34.5 750,34.4 750.5,34.3 751,34.3 751.5,34.3 752.1,34.3 752.6,34.4 753.1,34.5 753.6,34.7 754,34.9 754.5,35.2 754.9,35.5 755.3,35.8 755.7,36.2 756,36.6 756.3,37 756.6,37.5 756.8,38 757,38.5 757.1,39 757.2,39.5 757.3,40 757.3,44" />
<path stroke="#000000" stroke-width="2" d="M 757.3,44 757,44.9 756.6,45.7 756.2,46.4 755.8,47.1 755.4,47.8 755,48.4 754.5,48.9 754,49.4 753.5,49.9 753,50.2 752.5,50.6 751.9,50.9 751.4,51.2 750.8,51.4 750.2,51.6 749.7,51.7 749.1,51.9 748.5,51.9 747.9,52 747.3,52" />
<path stroke="#000000" stroke-width="2" d="M 787.3,70" />
<path stroke="#000000" stroke-width="2" d="M 787.3,30 802.6,67" />
<path stroke="#000000" stroke-width="2" d="M 809.2,70" />
<path stroke="#000000" stroke-width="2" d="M 809.2,20 809.2,40 809.2,34 809.2,33.1 809.3,32.3 809.5,31.4 809.7,30.6 810,29.7 810.4,28.9 810.8,28.2 811.3,27.5 811.9,26.8 812.5,26.2 813.1,25.6 813.9,25.1 814.6,24.7 815.4,24.3 816.2,24 817.1,23.8 817.9,23.6 818.8,23.6" />
<path stroke="#000000" stroke-width="2" d="M 825.5,70" />
<path stroke="#000000" stroke-width="2" d="M 825.5,30 825.5,31.4 825.6,32.8 825.8,34.2 826.2,35.5 826.7,36.8 827.3,38.1 828,39.3 828.8,40.4 829.7,41.5 830.6,42.5 831.7,43.4 832.9,44.2 834.1,44.9 835.3,45.5 836.6,46 838,46.3 839.4,46.6 840.7,46.7 842.1,46.7 843.5,46.6 844.9,46.3 846.3,46 847.6,45.5 848.8,44.9 850,44.2 851.2,43.4 852.3,42.5 853.2,41.5 854.1,40.4 854.9,39.3 855.6,38.1 856.2,36.8 856.7,35.5 857.1,34.2 857.3,32.8 857.4,31.4" />
<path stroke="#000000" stroke-width="2" d="M 864.1,70" />
<path stroke="#000000" stroke-width="2" d="M 864.1,30 864.3,30 864.3,30.2 864.1,30.2 864.1,30" />
<path stroke="#000000" stroke-width="2" d="M 894.3,70" />
<path stroke="#000000" stroke-width="2" d="M 894.3,70 894.5,70 894.5,70.2 894.3,70.2 894.3,70" />
<path stroke="#000000" stroke-width="2" d="M 924.5,70" />
<path stroke="#000000" stroke-width="2" d="M 934.5,30 933.6,30 932.8,30.1 931.9,30.2 931.1,30.5 930.2,30.8 929.4,31.1 928.7,31.6 928,32.1 927.3,32.6 926.7,33.2 926.1,33.9 925.6,34.6 925.2,35.4 924.8,36.2 924.5,37 924.3,37.8 924.1,38.7 924.1,39.6 924.1,40.4 924.1,41.3 924.3,42.2 924.5,43 924.8,43.8 925.2,44.6 925.6,45.4 926.1,46.1 926.7,46.7 927.3,47.4 928,47.9 928.7,48.4 929.4,48.9 930.2,49.2 931.1,49.5 931.9,49.8 932.8,49.9 933.6,50 953.6,50" />
<path stroke="#000000" stroke-width="2" d="M 983.6,70" />
<path stroke="#000000" stroke-width="2" d="M 983.6,30 983.6,70 994.9,58.7" />
<path stroke="#000000" stroke-width="2" d="M 1001.6,70" />
<path stroke="#000000" stroke-width="2" d="M 1001.6,25" />
<path stroke="#000000" stroke-width="2" d="M 1001.6,25 1003.6,24.9 1005.3,24.6 1006.5,24.1 1007.4,23.6 1007.9,22.9 1008.2,22.2 1008.3,21.4 1008.1,20.7 1007.7,20 1007.2,19.4 1006.6,18.9 1005.9,18.5 1005.2,18.3 1004.4,18.4 1003.7,18.7 1003,19.2 1002.5,20.1 1002,21.4 1001.7,23 1001.6,25 1001.6,40" />
<path stroke="#000000" stroke-width="2" d="M 1038.3,70" />
</svg>