<svg xmlns="http://www.w3.org/2000/svg" width="1189.1828126255682" height="107.77968045238036" style="fill:none; stroke-linecap:round;">
    <rect width="100%" height="100%" fill="#FFFFFF" />
<path stroke="#000000" stroke-width="2" d="M 550,75" />
<path stroke="#000000" stroke-width="2" d="M 36,30 36,60" />
<path stroke="#000000" stroke-width="2" d="M 36,60 35.8,64.1 35.2,67.3 34.3,69.8 33.1,71.5 31.8,72.7 30.3,73.2 28.8,73.3 27.4,73 26,72.3 24.8,71.2 23.7,70 23,68.6 22.7,67.2 22.8,65.7 23.3,64.2 24.5,62.9 26.2,61.7 28.7,60.8 31.9,60.2 36,60" />
<path stroke="#000000" stroke-width="2" d="M 42.7,70" />
<path stroke="#000000" stroke-width="2" d="M 42.7,20 50.3,38.5 58,20" />
<path stroke="#000000" stroke-width="2" d="M 64.6,70" />
<path stroke="#000000" stroke-width="2" d="M 64.6,50 64.6,70 70.3,64.3" />
<path stroke="#000000" stroke-width="2" d="M 77,70" />
<path stroke="#000000" stroke-width="2" d="M 77,20 77.8,20 78.7,20.1 79.6,20.2 80.4,20.5 81.2,20.8 82,21.1 82.8,21.6 83.5,22.1 84.2,22.6 84.8,23.2 85.3,23.9 85.8,24.6 86.3,25.4 86.6,26.2 86.9,27 87.2,27.8 87.3,28.7 87.4,29.6 87.4,30.4 87.3,31.3 87.2,32.2 86.9,33 86.6,33.8 86.3,34.6 85.8,35.4 85.3,36.1 84.8,36.7 84.2,37.4 83.5,37.9 82.8,38.4 82,38.9 81.2,39.2 80.4,39.5 79.6,39.8 78.7,39.9 77.8,40" />
<path stroke="#000000" stroke-width="2" d="M 117.4,70" />
<path stroke="#000000" stroke-width="2" d="M 137.4,70 139.1,70 140.9,69.8 142.6,69.5 144.3,69.1 145.9,68.5 147.5,67.8 149,66.9 150.4,65.9 151.8,64.8 153,63.5 154.1,62.2 155.1,60.8 156,59.3 156.7,57.7 157.3,56 157.8,54.3 158.1,52.6 158.2,50.9 158.2,49.1 158.1,47.4 157.8,45.7 157.3,44 156.7,42.4 156,40.8 155.1,39.3 154.1,37.8 153,36.5 151.8,35.3 150.4,34.2 149,33.2 147.5,32.3 145.9,31.5 144.3,30.9 142.6,30.5 140.9,30.2 139.1,30 137.4,30 135.7,30.2 133.9,30.5 132.2,30.9 130.6,31.5 129,32.3 127.5,33.2 126.1,34.2 124.8,35.3 123.5,36.5 122.4,37.8 121.4,39.3 120.5,40.8 119.8,42.4 119.2,44 118.7,45.7 118.4,47.4 118.3,49.1 118.3,50.9 118.4,52.6 118.7,54.3 119.2,56 119.8,57.7 120.5,59.3 121.4,60.8 122.4,62.2 123.5,63.5 124.8,64.8 126.1,65.9 127.5,66.9 129,67.8 130.6,68.5 132.2,69.1 133.9,69.5 135.7,69.8 137.4,70" />
<path stroke="#000000" stroke-width="2" d="M 164.9,70" />
<path stroke="#000000" stroke-width="2" d="M 174.9,20 167.3,38.5" />
<path stroke="#000000" stroke-width="2" d="M 204.9,70" />
<path stroke="#000000" stroke-width="2" d="M 220.9,30 220.9,60" />
<path stroke="#000000" stroke-width="2" d="M 220.9,60 220.7,64.1 220.1,67.3 219.2,69.8 218,71.5 216.7,72.7 215.2,73.2 213.7,73.3 212.3,73 210.9,72.3 209.7,71.2 208.7,70 208,68.6 207.6,67.2 207.7,65.7 208.3,64.2 209.4,62.9 211.2,61.7 213.6,60.8 216.8,60.2 220.9,60" />
<path stroke="#000000" stroke-width="2" d="M 227.6,70" />
<path stroke="#000000" stroke-width="2" d="M 227.6,20 227.6,40 233.2,34.3" />
<path stroke="#000000" stroke-width="2" d="M 239.9,70" />
<path stroke="#000000" stroke-width="2" d="M 239.9,50 243.7,59.2" />
<path stroke="#000000" stroke-width="2" d="M 243.7,59.2 245.7,61.4 247,63.3 247.7,65 248,66.4 247.9,67.7 247.5,68.7 246.8,69.5 245.9,70 244.8,70.4 243.7,70.5 242.6,70.4 241.6,70 240.7,69.5 239.9,68.7 239.5,67.7 239.4,66.4 239.7,65 240.5,63.3 241.8,61.4 243.7,59.2 247.6,50 247.6,50.7 247.6,51.4 247.7,52.1 247.9,52.8 248.2,53.4 248.5,54 248.8,54.6 249.2,55.2 249.6,55.8 250.1,56.2 250.7,56.7 251.2,57.1 251.9,57.4 252.5,57.7 253.1,58 253.8,58.2 254.5,58.3 255.2,58.3 255.9,58.3 256.6,58.3 257.3,58.2 258,58 258.6,57.7 259.2,57.4 259.8,57.1 260.4,56.7 261,56.2 261.4,55.8 261.9,55.2 262.3,54.6 262.6,54 262.9,53.4 263.2,52.8 263.4,52.1 263.5,51.4 263.5,50.7 264.4,50.7 265.3,50.8 266.1,50.9 267,51.2 267.8,51.4 268.6,51.8 269.3,52.3 270.1,52.8 270.7,53.3 271.3,53.9 271.9,54.6 272.4,55.3 272.8,56.1 273.2,56.9 273.5,57.7 273.7,58.5 273.9,59.4 274,60.3 274,61.1 273.9,62 273.7,62.9 273.5,63.7 273.2,64.5 272.8,65.3 272.4,66.1 271.9,66.8 271.3,67.4 270.7,68.1 270.1,68.6 269.3,69.1 268.6,69.6 267.8,69.9 267,70.2 266.1,70.5 265.3,70.6 264.4,70.7" />
<path stroke="#000000" stroke-width="2" d="M 304,70" />
<path stroke="#000000" stroke-width="2" d="M 312,30 312,45" />
<path stroke="#000000" stroke-width="2" d="M 312,45 311.9,47 311.6,48.6 311.1,49.9 310.5,50.8 309.9,51.3 309.1,51.6 308.4,51.7 307.6,51.5 307,51.1 306.3,50.6 305.8,50 305.5,49.3 305.3,48.6 305.4,47.8 305.6,47.1 306.2,46.4 307.1,45.9 308.3,45.4 309.9,45.1 312,45 312,65 312,59 312,58.1 312,57.3 312.2,56.4 312.4,55.6 312.7,54.7 313.1,53.9 313.5,53.2 314,52.5 314.6,51.8 315.2,51.2 315.9,50.6 316.6,50.1 317.3,49.7 318.1,49.3 318.9,49 319.8,48.8 320.7,48.6 321.5,48.6" />
<path stroke="#000000" stroke-width="2" d="M 328.2,70" />
<path stroke="#000000" stroke-width="2" d="M 328.2,50 332,59.2" />
<path stroke="#000000" stroke-width="2" d="M 332,59.2 333.9,61.4 335.3,63.3 336,65 336.3,66.4 336.2,67.7 335.8,68.7 335.1,69.5 334.2,70 333.1,70.4 332,70.5 330.9,70.4 329.9,70 328.9,69.5 328.2,68.7 327.8,67.7 327.7,66.4 328,65 328.8,63.3 330.1,61.4 332,59.2 335.8,50 336.7,50 337.6,50.1 338.4,50.2 339.3,50.5 340.1,50.8 340.9,51.1 341.7,51.6 342.4,52.1 343,52.6 343.6,53.2 344.2,53.9 344.7,54.6 345.1,55.4 345.5,56.2 345.8,57 346,57.8 346.2,58.7 346.3,59.6 346.3,60.4 346.2,61.3 346,62.2 345.8,63 345.5,63.8 345.1,64.6 344.7,65.4 344.2,66.1 343.6,66.7 343,67.4 342.4,67.9 341.7,68.4 340.9,68.9 340.1,69.2 339.3,69.5 338.4,69.8 337.6,69.9 336.7,70" />
<path stroke="#000000" stroke-width="2" d="M 376.3,70" />
<path stroke="#000000" stroke-width="2" d="M 376.3,70 376.5,70 376.5,70.2 376.3,70.2 376.3,70" />
<path stroke="#000000" stroke-width="2" d="M 383.1,70" />
<path stroke="#000000" stroke-width="2" d="M 383.1,30 383.1,31.4 383.3,32.8 383.5,34.2 383.9,35.5 384.3,36.8 384.9,38.1 385.6,39.3 386.4,40.4 387.3,41.5 388.3,42.5 389.4,43.4 390.5,44.2 391.7,44.9 393,45.5 394.3,46 395.7,46.3 397,46.6 398.4,46.7 399.8,46.7 401.2,46.6 402.6,46.3 403.9,46 405.2,45.5 406.5,44.9 407.7,44.2 408.9,43.4 409.9,42.5 410.9,41.5 411.8,40.4 412.6,39.3 413.3,38.1 413.9,36.8 414.4,35.5 414.7,34.2 415,32.8 415.1,31.4" />
<path stroke="#000000" stroke-width="2" d="M 421.8,70" />
<path stroke="#000000" stroke-width="2" d="M 421.8,20 441.8,20 442.6,20 443.5,20.1 444.4,20.2 445.2,20.5 446,20.8 446.8,21.1 447.6,21.6 448.3,22.1 449,22.6 449.6,23.2 450.1,23.9 450.6,24.6 451.1,25.4 451.4,26.2 451.7,27 452,27.8 452.1,28.7 452.2,29.6 452.2,30.4 452.1,31.3 452,32.2 451.7,33 451.4,33.8 451.1,34.6 450.6,35.4 450.1,36.1 449.6,36.7 449,37.4 448.3,37.9 447.6,38.4 446.8,38.9 446,39.2 445.2,39.5 444.4,39.8 443.5,39.9 442.6,40" />
<path stroke="#000000" stroke-width="2" d="M 482.2,70" />
<path stroke="#000000" stroke-width="2" d="M 482.2,30 522.2,30" />
<path stroke="#000000" stroke-width="2" d="M 552.2,70" />
<path stroke="#000000" stroke-width="2" d="M 554.2,50 559.6,37.1 559.7,36.7 559.8,36.4 559.9,36.1 559.9,35.7 559.9,35.4 559.9,35 559.9,34.7 559.8,34.3 559.7,34 559.6,33.7 559.4,33.4 559.2,33.1 559,32.8 558.8,32.5 558.5,32.3 558.2,32.1 557.9,31.9 557.6,31.7 557.3,31.6 557,31.5 556.6,31.4 556.3,31.4 555.9,31.4 555.6,31.4 555.2,31.4 554.9,31.5 554.6,31.6 554.2,31.7 553.9,31.9 553.6,32.1 553.4,32.3 553.1,32.5 552.9,32.8 552.7,33.1 552.5,33.4 552.3,33.7 552.2,34 552.1,34.3 552,34.7 551.9,35 551.9,35.4 551.9,35.7 552,36.1 552.1,36.4 552.2,36.7 552.3,37.1 552.5,37.4 552.7,37.7 552.9,37.9 553.1,38.2 553.4,38.4 553.6,38.7 553.9,38.8 554.2,39 554.6,39.1 554.9,39.2 555.2,39.3 555.6,39.4 555.9,39.4 556.3,39.4 569.2,34 561.6,52.5" />
<path stroke="#000000" stroke-width="2" d="M 575.9,70" />
<path stroke="#000000" stroke-width="2" d="M 575.9,20 575.9,40 575.9,34 575.9,33.1 576,32.3 576.1,31.4 576.3,30.6 576.6,29.7 577,28.9 577.4,28.2 577.9,27.5 578.5,26.8 579.1,26.2 579.8,25.6 580.5,25.1 581.3,24.7 582,24.3 582.9,24 583.7,23.8 584.6,23.6 585.4,23.6 605.4,23.6" />
<path stroke="#000000" stroke-width="2" d="M 612.1,70" />
<path stroke="#000000" stroke-width="2" d="M 612.1,20 612.1,20.7 612.2,21.4 612.3,22.1 612.5,22.8 612.7,23.4 613,24 613.3,24.6 613.7,25.2 614.2,25.8 614.7,26.2 615.2,26.7 615.8,27.1 616.4,27.4 617,27.7 617.7,28 618.4,28.2 619,28.3 619.7,28.3 620.4,28.3 621.1,28.3 621.8,28.2 622.5,28 623.2,27.7 623.8,27.4 624.4,27.1 625,26.7 625.5,26.2 626,25.8 626.4,25.2 626.8,24.6 627.2,24 627.5,23.4 627.7,22.8 627.9,22.1 628,21.4 628.1,20.7" />
<path stroke="#000000" stroke-width="2" d="M 658.1,70" />
<path stroke="#000000" stroke-width="2" d="M 658.1,30 698.1,30" />
<path stroke="#000000" stroke-width="2" d="M 704.8,70" />
<path stroke="#000000" stroke-width="2" d="M 724.8,30 709.4,67" />
<path stroke="#000000" stroke-width="2" d="M 754.8,70" />
<path stroke="#000000" stroke-width="2" d="M 754.8,70 755,70 755,70.2 754.8,70.2 754.8,70" />
<path stroke="#000000" stroke-width="2" d="M 785,70" />
<path stroke="#000000" stroke-width="2" d="M 785,30 785,70 785,58 785,56.3 785.1,54.5 785.4,52.8 785.9,51.1 786.5,49.5 787.2,47.9 788.1,46.4 789.1,45 790.2,43.6 791.4,42.4 792.8,41.3 794.2,40.3 795.7,39.4 797.3,38.7 798.9,38.1 800.6,37.6 802.3,37.3 804.1,37.1" />
<path stroke="#000000" stroke-width="2" d="M 810.7,70" />
<path stroke="#000000" stroke-width="2" d="M 810.7,20 810.7,20.7 810.8,21.4 810.9,22.1 811.1,22.8 811.3,23.4 811.6,24 812,24.6 812.4,25.2 812.8,25.8 813.3,26.2 813.8,26.7 814.4,27.1 815,27.4 815.7,27.7 816.3,28 817,28.2 817.7,28.3 818.4,28.3 819.1,28.3 819.8,28.3 820.5,28.2 821.1,28 821.8,27.7 822.4,27.4 823,27.1 823.6,26.7 824.1,26.2 824.6,25.8 825.1,25.2 825.5,24.6 825.8,24 826.1,23.4 826.3,22.8 826.5,22.1 826.7,21.4 826.7,20.7" />
<path stroke="#000000" stroke-width="2" d="M 833.4,70" />
<path stroke="#000000" stroke-width="2" d="M 833.4,70 833.4,69.3 833.4,68.6 833.6,67.9 833.7,67.2 834,66.6 834.3,66 834.6,65.4 835,64.8 835.5,64.2 836,63.8 836.5,63.3 837.1,62.9 837.7,62.6 838.3,62.3 839,62 839.6,61.8 840.3,61.7 841,61.7 841.7,61.7 842.4,61.7 843.1,61.8 843.8,62 844.4,62.3 845.1,62.6 845.7,62.9 846.2,63.3 846.8,63.8 847.3,64.2 847.7,64.8 848.1,65.4 848.5,66 848.8,66.6 849,67.2 849.2,67.9 849.3,68.6 849.4,69.3 841.7,87.8" />
<path stroke="#000000" stroke-width="2" d="M 856,70" />
<path stroke="#000000" stroke-width="2" d="M 856,20 876,20 868.4,38.5 868.4,39.2 868.4,39.9 868.6,40.6 868.7,41.2 869,41.9 869.3,42.5 869.6,43.1 870,43.7 870.5,44.2 871,44.7 871.5,45.2 872.1,45.6 872.7,45.9 873.3,46.2 874,46.5 874.6,46.6 875.3,46.8 876,46.8 876.7,46.8 877.4,46.8 878.1,46.6 878.8,46.5 879.4,46.2 880.1,45.9 880.7,45.6 881.2,45.2 881.8,44.7 882.3,44.2 882.7,43.7 883.1,43.1 883.5,42.5 883.8,41.9 884,41.2 884.2,40.6 884.3,39.9 884.4,39.2" />
<path stroke="#000000" stroke-width="2" d="M 891,70" />
<path stroke="#000000" stroke-width="2" d="M 891,30 891.2,30 891.2,30.2 891,30.2 891,30" />
<path stroke="#000000" stroke-width="2" d="M 921.2,70" />
<path stroke="#000000" stroke-width="2" d="M 921.2,70" />
<path stroke="#000000" stroke-width="2" d="M 921.2,70 922.4,70 923.3,70.2 924.2,70.4 924.9,70.7 925.4,71 925.9,71.5 926.2,71.9 926.4,72.5 926.5,73.1 926.5,73.8 926.4,74.4 926.1,75.2 925.8,76 925.4,76.8 924.9,77.6 924.3,78.4 923.6,79.3 922.9,80.2 922.1,81.1 921.2,82" />
<path stroke="#000000" stroke-width="2" d="M 956.5,70" />
<path stroke="#000000" stroke-width="2" d="M 956.5,70 956.7,70 956.7,70.2 956.5,70.2 956.5,70" />
<path stroke="#000000" stroke-width="2" d="M 963.4,70" />
<path stroke="#000000" stroke-width="2" d="M 965.4,50 970.7,37.1 970.9,36.7 971,36.4 971,36.1 971.1,35.7 971.1,35.4 971.1,35 971,34.7 971,34.3 970.9,34 970.7,33.7 970.6,33.4 970.4,33.1 970.2,32.8 969.9,32.5 969.7,32.3 969.4,32.1 969.1,31.9 968.8,31.7 968.5,31.6 968.1,31.5 967.8,31.4 967.4,31.4 967.1,31.4 966.7,31.4 966.4,31.4 966.1,31.5 965.7,31.6 965.4,31.7 965.1,31.9 964.8,32.1 964.5,32.3 964.3,32.5 964,32.8 963.8,33.1 963.6,33.4 963.5,33.7 963.3,34 963.2,34.3 963.2,34.7 963.1,35 963.1,35.4 963.1,35.7 963.2,36.1 963.2,36.4 963.3,36.7 963.5,37.1 963.6,37.4 963.8,37.7 964,37.9 964.3,38.2 964.5,38.4 964.8,38.7 965.1,38.8 965.4,39 965.7,39.1 966.1,39.2 966.4,39.3 966.7,39.4 967.1,39.4 967.4,39.4 980.4,34 980.4,34.7 980.4,35.4 980.6,36.1 980.7,36.8 981,37.4 981.3,38 981.6,38.6 982,39.2 982.5,39.8 983,40.2 983.5,40.7 984.1,41.1 984.7,41.4 985.3,41.7 986,42 986.6,42.2 987.3,42.3 988,42.3 988.7,42.3 989.4,42.3 990.1,42.2 990.8,42 991.4,41.7 992.1,41.4 992.7,41.1 993.2,40.7 993.8,40.2 994.3,39.8 994.7,39.2 995.1,38.6 995.5,38 995.8,37.4 996,36.8 996.2,36.1 996.3,35.4 996.4,34.7 997.2,34.7 998.1,34.8 999,34.9 999.8,35.2 1000.6,35.5 1001.4,35.8 1002.2,36.3 1002.9,36.8 1003.6,37.3 1004.2,37.9 1004.7,38.6 1005.2,39.3 1005.7,40.1 1006,40.9 1006.3,41.7 1006.6,42.5 1006.7,43.4 1006.8,44.3 1006.8,45.1 1006.7,46 1006.6,46.9 1006.3,47.7 1006,48.5 1005.7,49.3 1005.2,50.1 1004.7,50.8 1004.2,51.4 1003.6,52.1 1002.9,52.6 1002.2,53.1 1001.4,53.6 1000.6,53.9 999.8,54.2 999,54.5 998.1,54.6 997.2,54.7" />
<path stroke="#000000" stroke-width="2" d="M 1013.5,70" />
<path stroke="#000000" stroke-width="2" d="M 1013.5,20 1013.5,40 1013.5,34 1013.5,33.1 1013.5,32.3 1013.7,31.4 1013.9,30.6 1014.2,29.7 1014.6,28.9 1015,28.2 1015.5,27.5 1016.1,26.8 1016.7,26.2 1017.4,25.6 1018.1,25.1 1018.8,24.7 1019.6,24.3 1020.4,24 1021.3,23.8 1022.1,23.6 1023,23.6" />
<path stroke="#000000" stroke-width="2" d="M 1053,70" />
<path stroke="#000000" stroke-width="2" d="M 1063,30 1063.5,30 1064.1,30 1064.6,30.1 1065.1,30.3 1065.6,30.5 1066,30.7 1066.5,30.9 1066.9,31.2 1067.3,31.6 1067.7,31.9 1068,32.3 1068.3,32.8 1068.6,33.2 1068.8,33.7 1069,34.2 1069.1,34.7 1069.2,35.2 1069.3,35.7 1069.3,36.3 1069.2,36.8 1069.1,37.3 1069,37.8 1068.8,38.3 1068.6,38.8 1068.3,39.2 1068,39.6 1067.7,40 1067.3,40.4 1066.9,40.8 1066.5,41.1 1066,41.3 1065.6,41.5 1065.1,41.7 1064.6,41.9 1064.1,41.9 1063.5,42 1063,42 1062.5,41.9 1062,41.9 1061.5,41.7 1061,41.5 1060.5,41.3 1060.1,41.1 1059.6,40.8 1059.2,40.4 1058.9,40 1058.5,39.6 1058.2,39.2 1058,38.8 1057.7,38.3 1057.6,37.8 1057.4,37.3 1057.3,36.8 1057.3,36.3 1057.3,35.7 1057.3,35.2 1057.4,34.7 1057.6,34.2 1057.7,33.7 1058,33.2 1058.2,32.8 1058.5,32.3 1058.9,31.9 1059.2,31.6 1059.6,31.2 1060.1,30.9 1060.5,30.7 1061,30.5 1061.5,30.3 1062,30.1 1062.5,30 1063,30 1063,50 1055.4,68.5 1057.7,62.9 1058,62.1 1058.4,61.4 1058.9,60.6 1059.4,59.9 1060,59.3 1060.6,58.7 1061.3,58.2 1062.1,57.7 1062.8,57.3 1063.6,57 1064.5,56.7 1065.3,56.5" />
<path stroke="#000000" stroke-width="2" d="M 1099.3,70" />
<path stroke="#000000" stroke-width="2" d="M 1115.3,30 1095.5,49.8 1115.3,69.6" />
<path stroke="#000000" stroke-width="2" d="M 1121.9,70" />
<path stroke="#000000" stroke-width="2" d="M 1121.9,20 1121.9,40 1121.9,34 1121.9,33.1 1122,32.3 1122.2,31.4 1122.4,30.6 1122.7,29.7 1123.1,28.9 1123.5,28.2 1124,27.5 1124.6,26.8 1125.2,26.2 1125.8,25.6 1126.6,25.1 1127.3,24.7 1128.1,24.3 1128.9,24 1129.8,23.8 1130.6,23.6 1131.5,23.6 1151.5,23.6 1145.8,29.2 1146.4,29.2 1146.9,29.3 1147.4,29.4 1147.9,29.5 1148.4,29.7 1148.9,29.9 1149.3,30.2 1149.7,30.5 1150.1,30.8 1150.5,31.2 1150.9,31.6 1151.2,32 1151.4,32.5 1151.6,32.9 1151.8,33.4 1152,33.9 1152,34.4 1152.1,35 1152.1,35.5 1152,36 1152,36.5 1151.8,37 1151.6,37.5 1151.4,38 1151.2,38.4 1150.9,38.9 1150.5,39.3 1150.1,39.6 1149.7,40 1149.3,40.3 1148.9,40.5 1148.4,40.8 1147.9,40.9 1147.4,41.1 1146.9,41.2 1146.4,41.2" />
<path stroke="#000000" stroke-width="2" d="M 1158.8,70" />
<path stroke="#000000" stroke-width="2" d="M 1158.8,20 1159.6,20 1160.5,20.1 1161.4,20.2 1162.2,20.5 1163,20.8 1163.8,21.1 1164.6,21.6 1165.3,22.1 1165.9,22.6 1166.6,23.2 1167.1,23.9 1167.6,24.6 1168.1,25.4 1168.4,26.2 1168.7,27 1169,27.8 1169.1,28.7 1169.2,29.6 1169.2,30.4 1169.1,31.3 1169,32.2 1168.7,33 1168.4,33.8 1168.1,34.6 1167.6,35.4 1167.1,36.1 1166.6,36.7 1165.9,37.4 1165.3,37.9 1164.6,38.4 1163.8,38.9 1163,39.2 1162.2,39.5 1161.4,39.8 1160.5,39.9 1159.6,40" />
<path stroke="#000000" stroke-width="2" d="M 1199.2,70" />
</svg>