<svg xmlns="http://www.w3.org/2000/svg" width="1218.6210232246365" height="128.47759065022575" style="fill:none; stroke-linecap:round;">
    <rect width="100%" height="100%" fill="#FFFFFF" />
<path stroke="#000000" stroke-width="2" d="M 550,75" />
<path stroke="#000000" stroke-width="2" d="M 20,30 60,30" />
<path stroke="#000000" stroke-width="2" d="M 66.7,70" />
<path stroke="#000000" stroke-width="2" d="M 78.7,56 78.7,56.5 78.6,57 78.5,57.6 78.4,58.1 78.2,58.6 78,59 77.7,59.5 77.4,59.9 77.1,60.3 76.7,60.7 76.3,61 75.9,61.3 75.4,61.6 75,61.8 74.5,62 74,62.1 73.5,62.2 72.9,62.3 72.4,62.3 71.9,62.2 71.4,62.1 70.9,62 70.4,61.8 69.9,61.6 69.4,61.3 69,61 68.6,60.7 68.2,60.3 67.9,59.9 67.6,59.5 67.4,59 67.1,58.6 67,58.1 66.8,57.6 66.7,57 66.7,56.5 66.7,56 66.7,55.5 66.8,55 67,54.5 67.1,54 67.4,53.5 67.6,53 67.9,52.6 68.2,52.2 68.6,51.8 69,51.5 69.4,51.2 69.9,50.9 70.4,50.7 70.9,50.5 71.4,50.4 71.9,50.3 72.4,50.3 72.9,50.3 73.5,50.3 74,50.4 74.5,50.5 75,50.7 75.4,50.9 75.9,51.2 76.3,51.5 76.7,51.8 77.1,52.2 77.4,52.6 77.7,53 78,53.5 78.2,54 78.4,54.5 78.5,55 78.6,55.5 78.7,56 78.7,60" />
<path stroke="#000000" stroke-width="2" d="M 78.7,60 78.4,60.9 78,61.7 77.6,62.4 77.2,63.1 76.8,63.8 76.4,64.4 75.9,64.9 75.4,65.4 74.9,65.9 74.4,66.2 73.9,66.6 73.3,66.9 72.8,67.2 72.2,67.4 71.6,67.6 71.1,67.7 70.5,67.9 69.9,67.9 69.3,68 68.7,68" />
<path stroke="#000000" stroke-width="2" d="M 108.7,70" />
<path stroke="#000000" stroke-width="2" d="M 108.7,35" />
<path stroke="#000000" stroke-width="2" d="M 108.7,35 110.7,34.9 112.3,34.6 113.5,34.1 114.4,33.6 115,32.9 115.3,32.2 115.3,31.4 115.1,30.7 114.8,30 114.3,29.4 113.7,28.9 113,28.5 112.2,28.3 111.5,28.4 110.8,28.7 110.1,29.2 109.5,30.1 109.1,31.4 108.8,33 108.7,35 108.7,50" />
<path stroke="#000000" stroke-width="2" d="M 108.7,50 108.6,52 108.3,53.6 107.8,54.9 107.2,55.8 106.6,56.3 105.8,56.6 105.1,56.7 104.3,56.5 103.7,56.1 103,55.6 102.5,55 102.2,54.3 102,53.6 102.1,52.8 102.3,52.1 102.9,51.4 103.8,50.9 105,50.4 106.6,50.1 108.7,50 118.7,50" />
<path stroke="#000000" stroke-width="2" d="M 125.3,70" />
<path stroke="#000000" stroke-width="2" d="M 133.3,20 133.3,35" />
<path stroke="#000000" stroke-width="2" d="M 133.3,35 133.2,37 132.9,38.6 132.5,39.9 131.9,40.8 131.2,41.3 130.5,41.6 129.8,41.7 129,41.5 128.3,41.1 127.7,40.6 127.2,40 126.9,39.3 126.7,38.6 126.7,37.8 127,37.1 127.6,36.4 128.5,35.9 129.7,35.4 131.3,35.1 133.3,35" />
<path stroke="#000000" stroke-width="2" d="M 140,70" />
<path stroke="#000000" stroke-width="2" d="M 140,20 140,20.7 140.1,21.4 140.2,22.1 140.4,22.8 140.6,23.4 140.9,24 141.2,24.6 141.6,25.2 142.1,25.8 142.6,26.2 143.1,26.7 143.7,27.1 144.3,27.4 144.9,27.7 145.6,28 146.3,28.2 146.9,28.3 147.6,28.3 148.3,28.3 149,28.3 149.7,28.2 150.4,28 151.1,27.7 151.7,27.4 152.3,27.1 152.9,26.7 153.4,26.2 153.9,25.8 154.3,25.2 154.7,24.6 155.1,24 155.4,23.4 155.6,22.8 155.8,22.1 155.9,21.4 156,20.7" />
<path stroke="#000000" stroke-width="2" d="M 186,70" />
<path stroke="#000000" stroke-width="2" d="M 186,70" />
<path stroke="#000000" stroke-width="2" d="M 186,70 187.1,70 188.1,70.2 188.9,70.4 189.6,70.7 190.2,71 190.6,71.5 191,71.9 191.2,72.5 191.3,73.1 191.2,73.8 191.1,74.4 190.9,75.2 190.6,76 190.1,76.8 189.6,77.6 189.1,78.4 188.4,79.3 187.7,80.2 186.9,81.1 186,82" />
<path stroke="#000000" stroke-width="2" d="M 221.3,70" />
<path stroke="#000000" stroke-width="2" d="M 221.3,30 221.3,70 241.3,70" />
<path stroke="#000000" stroke-width="2" d="M 271.3,70" />
<path stroke="#000000" stroke-width="2" d="M 271.3,30 281.3,30 281.3,70" />
<path stroke="#000000" stroke-width="2" d="M 287.9,70" />
<path stroke="#000000" stroke-width="2" d="M 287.9,30 287.9,38 287.9,39 288,40.1 288.2,41.1 288.5,42.1 288.8,43.1 289.3,44.1 289.8,45 290.4,45.8 291.1,46.6 291.8,47.4 292.6,48 293.5,48.6 294.4,49.2 295.3,49.6 296.3,50 297.3,50.2 298.3,50.4 299.4,50.5 300.4,50.5 301.5,50.4 302.5,50.2 303.5,50 304.5,49.6 305.5,49.2 306.4,48.6 307.2,48 308,47.4 308.8,46.6 309.4,45.8 310,45 310.6,44.1 311,43.1 311.4,42.1 311.6,41.1 311.8,40.1 311.9,39 311.9,29 311.9,69" />
<path stroke="#000000" stroke-width="2" d="M 318.6,70" />
<path stroke="#000000" stroke-width="2" d="M 318.6,50 318.6,70 318.6,64 318.6,63.1 318.6,62.3 318.8,61.4 319,60.6 319.3,59.7 319.7,58.9 320.1,58.2 320.6,57.5 321.2,56.8 321.8,56.2 322.5,55.6 323.2,55.1 323.9,54.7 324.7,54.3 325.6,54 326.4,53.8 327.3,53.6 328.1,53.6 329,53.6 329.9,53.6 330.7,53.8 331.6,54 332.4,54.3 333.2,54.7 333.9,55.1 334.6,55.6 335.3,56.2 335.9,56.8 336.5,57.5 337,58.2 337.4,58.9 337.8,59.7 338.1,60.6 338.3,61.4 338.5,62.3 338.5,63.1 338.5,64 338.5,64.9 338.3,65.7 338.1,66.6 337.8,67.4 337.4,68.2 337,68.9 336.5,69.7 335.9,70.3 335.3,70.9 334.6,71.5 333.9,72 333.2,72.4 332.4,72.8 331.6,73.1 330.7,73.3 329.9,73.5 329,73.6" />
<path stroke="#000000" stroke-width="2" d="M 368.5,70" />
<path stroke="#000000" stroke-width="2" d="M 368.5,30 368.5,70 388.5,70" />
<path stroke="#000000" stroke-width="2" d="M 418.5,70" />
<path stroke="#000000" stroke-width="2" d="M 418.5,30 433.9,67" />
<path stroke="#000000" stroke-width="2" d="M 440.5,70" />
<path stroke="#000000" stroke-width="2" d="M 440.5,55" />
<path stroke="#000000" stroke-width="2" d="M 440.5,55 442.6,54.9 444.2,54.6 445.4,54.1 446.3,53.6 446.9,52.9 447.1,52.2 447.2,51.4 447,50.7 446.6,50 446.1,49.4 445.5,48.9 444.8,48.5 444.1,48.3 443.4,48.4 442.6,48.7 442,49.2 441.4,50.1 440.9,51.4 440.6,53 440.5,55 440.5,70 432.9,88.5" />
<path stroke="#000000" stroke-width="2" d="M 477.2,70" />
<path stroke="#000000" stroke-width="2" d="M 477.2,30 477.2,70" />
<path stroke="#000000" stroke-width="2" d="M 483.8,70" />
<path stroke="#000000" stroke-width="2" d="M 491.8,20 481.9,29.9 491.8,39.8" />
<path stroke="#000000" stroke-width="2" d="M 498.5,70" />
<path stroke="#000000" stroke-width="2" d="M 498.5,20 506.2,38.5 513.8,20 513.8,20.5 513.8,21 513.7,21.6 513.5,22.1 513.4,22.6 513.1,23 512.9,23.5 512.6,23.9 512.2,24.3 511.9,24.7 511.5,25 511,25.3 510.6,25.6 510.1,25.8 509.6,26 509.1,26.1 508.6,26.2 508.1,26.3 507.6,26.3 507,26.2 506.5,26.1 506,26 505.5,25.8 505.1,25.6 504.6,25.3 504.2,25 503.8,24.7 503.4,24.3 503.1,23.9 502.8,23.5 502.5,23 502.3,22.6 502.1,22.1 502,21.6 501.9,21 501.8,20.5 501.8,20 501.9,19.5 502,19 502.1,18.5 502.3,18 502.5,17.5 502.8,17 503.1,16.6 503.4,16.2 503.8,15.8 504.2,15.5 504.6,15.2 505.1,14.9 505.5,14.7 506,14.5 506.5,14.4 507,14.3 507.6,14.3 508.1,14.3 508.6,14.3 509.1,14.4 509.6,14.5 510.1,14.7 510.6,14.9 511,15.2 511.5,15.5 511.9,15.8 512.2,16.2 512.6,16.6 512.9,17 513.1,17.5 513.4,18 513.5,18.5 513.7,19 513.8,19.5 513.8,20 513.8,24" />
<path stroke="#000000" stroke-width="2" d="M 513.8,24 513.5,24.9 513.2,25.7 512.8,26.4 512.4,27.1 512,27.8 511.5,28.4 511.1,28.9 510.6,29.4 510.1,29.9 509.6,30.3 509,30.6 508.5,30.9 507.9,31.2 507.4,31.4 506.8,31.6 506.2,31.7 505.6,31.9 505,31.9 504.4,32 503.8,32" />
<path stroke="#000000" stroke-width="2" d="M 543.8,70" />
<path stroke="#000000" stroke-width="2" d="M 543.8,40 544,40 544,40.2 543.8,40.2 543.8,40" />
<path stroke="#000000" stroke-width="2" d="M 550.7,70" />
<path stroke="#000000" stroke-width="2" d="M 550.7,30 550.7,31.4 550.8,32.8 551,34.2 551.4,35.5 551.9,36.8 552.5,38.1 553.2,39.3 554,40.4 554.9,41.5 555.9,42.5 556.9,43.4 558.1,44.2 559.3,44.9 560.5,45.5 561.9,46 563.2,46.3 564.6,46.6 566,46.7 567.4,46.7 568.8,46.6 570.1,46.3 571.5,46 572.8,45.5 574.1,44.9 575.3,44.2 576.4,43.4 577.5,42.5 578.5,41.5 579.4,40.4 580.2,39.3 580.9,38.1 581.5,36.8 581.9,35.5 582.3,34.2 582.5,32.8 582.7,31.4" />
<path stroke="#000000" stroke-width="2" d="M 589.3,70" />
<path stroke="#000000" stroke-width="2" d="M 589.3,55" />
<path stroke="#000000" stroke-width="2" d="M 589.3,55 591.4,54.9 593,54.6 594.2,54.1 595.1,53.6 595.6,52.9 595.9,52.2 596,51.4 595.8,50.7 595.4,50 594.9,49.4 594.3,48.9 593.6,48.5 592.9,48.3 592.2,48.4 591.4,48.7 590.8,49.2 590.2,50.1 589.7,51.4 589.4,53 589.3,55 589.3,70" />
<path stroke="#000000" stroke-width="2" d="M 602.6,70" />
<path stroke="#000000" stroke-width="2" d="M 602.6,30 604.4,30 606.1,30.2 607.8,30.5 609.5,30.9 611.2,31.5 612.7,32.2 614.3,33.1 615.7,34.1 617,35.2 618.3,36.5 619.4,37.8 620.4,39.2 621.3,40.7 622,42.3 622.6,44 623,45.7 623.3,47.4 623.5,49.1 623.5,50.9 623.3,52.6 623,54.3 622.6,56 622,57.6 621.3,59.2 620.4,60.7 619.4,62.2 618.3,63.5 617,64.7 615.7,65.8 614.3,66.8 612.7,67.7 611.2,68.5 609.5,69.1 607.8,69.5 606.1,69.8 604.4,70" />
<path stroke="#000000" stroke-width="2" d="M 653.5,70" />
<path stroke="#000000" stroke-width="2" d="M 653.5,30 655.2,30 657,30.2 658.7,30.5 660.4,30.9 662,31.5 663.6,32.2 665.1,33.1 666.5,34.1 667.9,35.2 669.1,36.5 670.2,37.8 671.2,39.2 672.1,40.7 672.8,42.3 673.4,44 673.9,45.7 674.2,47.4 674.3,49.1 674.3,50.9 674.2,52.6 673.9,54.3 673.4,56 672.8,57.6 672.1,59.2 671.2,60.7 670.2,62.2 669.1,63.5 667.9,64.7 666.5,65.8 665.1,66.8 663.6,67.7 662,68.5 660.4,69.1 658.7,69.5 657,69.8 655.2,70 655.2,68.2 655.4,66.5 655.7,64.8 656.1,63.1 656.7,61.4 657.5,59.9 658.4,58.3 659.4,56.9 660.5,55.6 661.7,54.3 663,53.2 664.5,52.2 666,51.3 667.6,50.6 669.2,50 670.9,49.6 672.6,49.3 674.3,49.1" />
<path stroke="#000000" stroke-width="2" d="M 681,70" />
<path stroke="#000000" stroke-width="2" d="M 681,20 688.7,38.5" />
<path stroke="#000000" stroke-width="2" d="M 718.7,70" />
<path stroke="#000000" stroke-width="2" d="M 718.7,30 718.7,70 730,58.7" />
<path stroke="#000000" stroke-width="2" d="M 736.6,70" />
<path stroke="#000000" stroke-width="2" d="M 756.6,70 758.4,70 760.1,69.8 761.8,69.5 763.5,69.1 765.2,68.5 766.8,67.8 768.3,66.9 769.7,65.9 771,64.8 772.3,63.5 773.4,62.2 774.4,60.8 775.3,59.3 776,57.7 776.6,56 777,54.3 777.3,52.6 777.5,50.9 777.5,49.1 777.3,47.4 777,45.7 776.6,44 776,42.4 775.3,40.8 774.4,39.3 773.4,37.8 772.3,36.5 771,35.3 769.7,34.2 768.3,33.2 766.8,32.3 765.2,31.5 763.5,30.9 761.8,30.5 760.1,30.2 758.4,30 756.6,30 754.9,30.2 753.2,30.5 751.5,30.9 749.9,31.5 748.3,32.3 746.8,33.2 745.3,34.2 744,35.3 742.8,36.5 741.7,37.8 740.7,39.3 739.8,40.8 739,42.4 738.4,44 738,45.7 737.7,47.4 737.5,49.1 737.5,50.9 737.7,52.6 738,54.3 738.4,56 739,57.7 739.8,59.3 740.7,60.8 741.7,62.2 742.8,63.5 744,64.8 745.3,65.9 746.8,66.9 748.3,67.8 749.9,68.5 751.5,69.1 753.2,69.5 754.9,69.8 756.6,70" />
<path stroke="#000000" stroke-width="2" d="M 807.5,70" />
<path stroke="#000000" stroke-width="2" d="M 807.5,30 847.5,30" />
<path stroke="#000000" stroke-width="2" d="M 854.2,70" />
<path stroke="#000000" stroke-width="2" d="M 854.2,70 861.8,51.5 869.5,70 864.5,70 864.5,90 856.8,108.5" />
<path stroke="#000000" stroke-width="2" d="M 876.1,70" />
<path stroke="#000000" stroke-width="2" d="M 876.1,70 883.8,51.5 883.8,52.2 883.9,52.9 884,53.6 884.2,54.3 884.4,54.9 884.7,55.6 885,56.2 885.4,56.7 885.9,57.3 886.4,57.8 886.9,58.2 887.5,58.6 888.1,59 888.7,59.3 889.4,59.5 890.1,59.7 890.7,59.8 891.4,59.9 892.1,59.9 892.8,59.8 893.5,59.7 894.2,59.5 894.8,59.3 895.5,59 896.1,58.6 896.7,58.2 897.2,57.8 897.7,57.3 898.1,56.7 898.5,56.2 898.9,55.6 899.2,54.9 899.4,54.3 899.6,53.6 899.7,52.9 899.8,52.2" />
<path stroke="#000000" stroke-width="2" d="M 929.8,70" />
<path stroke="#000000" stroke-width="2" d="M 929.8,30 931.5,30 933.3,30.2 935,30.5 936.7,30.9 938.3,31.5 939.9,32.2 941.4,33.1 942.8,34.1 944.2,35.2 945.4,36.5 946.5,37.8 947.5,39.2 948.4,40.7 949.1,42.3 949.7,44 950.2,45.7 950.5,47.4 950.6,49.1 950.6,50.9 950.5,52.6 950.2,54.3 949.7,56 949.1,57.6 948.4,59.2 947.5,60.7 946.5,62.2 945.4,63.5 944.2,64.7 942.8,65.8 941.4,66.8 939.9,67.7 938.3,68.5 936.7,69.1 935,69.5 933.3,69.8 931.5,70 931.5,68.2 931.7,66.5 932,64.8 932.4,63.1 933,61.4 933.8,59.9 934.6,58.3 935.6,56.9 936.8,55.6 938,54.3 939.3,53.2 940.8,52.2 942.3,51.3 943.9,50.6 945.5,50 947.2,49.6 948.9,49.3 950.6,49.1" />
<path stroke="#000000" stroke-width="2" d="M 957.3,70" />
<path stroke="#000000" stroke-width="2" d="M 957.3,20 965,38.5 965,39 964.9,39.5 964.8,40 964.7,40.5 964.5,41 964.3,41.5 964,42 963.7,42.4 963.4,42.8 963,43.2 962.6,43.5 962.2,43.8 961.7,44.1 961.3,44.3 960.8,44.5 960.3,44.6 959.7,44.7 959.2,44.7 958.7,44.7 958.2,44.7 957.7,44.6 957.2,44.5 956.7,44.3 956.2,44.1 955.7,43.8 955.3,43.5 954.9,43.2 954.5,42.8 954.2,42.4 953.9,42 953.6,41.5 953.4,41 953.2,40.5 953.1,40 953,39.5 953,39 953,38.5 953,38 953.1,37.4 953.2,36.9 953.4,36.4 953.6,36 953.9,35.5 954.2,35.1 954.5,34.7 954.9,34.3 955.3,34 955.7,33.7 956.2,33.4 956.7,33.2 957.2,33 957.7,32.9 958.2,32.8 958.7,32.7 959.2,32.7 959.7,32.8 960.3,32.9 960.8,33 961.3,33.2 961.7,33.4 962.2,33.7 962.6,34 963,34.3 963.4,34.7 963.7,35.1 964,35.5 964.3,36 964.5,36.4 964.7,36.9 964.8,37.4 964.9,38 965,38.5 965,42.5" />
<path stroke="#000000" stroke-width="2" d="M 965,42.5 964.6,43.3 964.3,44.2 963.9,44.9 963.5,45.6 963.1,46.3 962.7,46.9 962.2,47.4 961.7,47.9 961.2,48.3 960.7,48.7 960.2,49.1 959.6,49.4 959.1,49.7 958.5,49.9 957.9,50.1 957.3,50.2 956.7,50.3 956.2,50.4 955.6,50.5 955,50.5" />
<path stroke="#000000" stroke-width="2" d="M 995,70" />
<path stroke="#000000" stroke-width="2" d="M 1005,30 1004.1,30 1003.2,30.1 1002.4,30.2 1001.5,30.5 1000.7,30.8 999.9,31.1 999.1,31.6 998.4,32.1 997.8,32.6 997.1,33.2 996.6,33.9 996.1,34.6 995.6,35.4 995.3,36.2 995,37 994.8,37.8 994.6,38.7 994.5,39.6 994.5,40.4 994.6,41.3 994.8,42.2 995,43 995.3,43.8 995.6,44.6 996.1,45.4 996.6,46.1 997.1,46.7 997.8,47.4 998.4,47.9 999.1,48.4 999.9,48.9 1000.7,49.2 1001.5,49.5 1002.4,49.8 1003.2,49.9 1004.1,50 1004.1,49.3 1004.1,48.6 1004.3,47.9 1004.4,47.2 1004.7,46.6 1005,45.9 1005.3,45.3 1005.7,44.8 1006.2,44.2 1006.7,43.7 1007.2,43.3 1007.8,42.9 1008.4,42.5 1009,42.2 1009.7,42 1010.3,41.8 1011,41.7 1011.7,41.6 1012.4,41.6 1013.1,41.7 1013.8,41.8 1014.5,42 1015.1,42.2 1015.8,42.5 1016.4,42.9 1016.9,43.3 1017.5,43.7 1018,44.2 1018.4,44.8 1018.8,45.3 1019.2,45.9 1019.5,46.6 1019.7,47.2 1019.9,47.9 1020,48.6 1020.1,49.3" />
<path stroke="#000000" stroke-width="2" d="M 1026.7,70" />
<path stroke="#000000" stroke-width="2" d="M 1026.7,50 1026.7,70 1026.7,64 1026.7,63.1 1026.8,62.3 1027,61.4 1027.2,60.6 1027.5,59.7 1027.9,58.9 1028.3,58.2 1028.8,57.5 1029.4,56.8 1030,56.2 1030.6,55.6 1031.4,55.1 1032.1,54.7 1032.9,54.3 1033.7,54 1034.6,53.8 1035.4,53.6 1036.3,53.6 1036.3,54.1 1036.2,54.6 1036.2,55.1 1036,55.6 1035.8,56.1 1035.6,56.6 1035.4,57.1 1035.1,57.5 1034.7,57.9 1034.3,58.3 1033.9,58.6 1033.5,58.9 1033.1,59.2 1032.6,59.4 1032.1,59.6 1031.6,59.7 1031.1,59.8 1030.6,59.8 1030,59.8 1029.5,59.8 1029,59.7 1028.5,59.6 1028,59.4 1027.5,59.2 1027.1,58.9 1026.6,58.6 1026.2,58.3 1025.9,57.9 1025.5,57.5 1025.2,57.1 1025,56.6 1024.8,56.1 1024.6,55.6 1024.4,55.1 1024.3,54.6 1024.3,54.1 1024.3,53.6 1024.3,53.1 1024.4,52.5 1024.6,52 1024.8,51.5 1025,51.1 1025.2,50.6 1025.5,50.2 1025.9,49.8 1026.2,49.4 1026.6,49.1 1027.1,48.8 1027.5,48.5 1028,48.3 1028.5,48.1 1029,48 1029.5,47.9 1030,47.8 1030.6,47.8 1031.1,47.9 1031.6,48 1032.1,48.1 1032.6,48.3 1033.1,48.5 1033.5,48.8 1033.9,49.1 1034.3,49.4 1034.7,49.8 1035.1,50.2 1035.4,50.6 1035.6,51.1 1035.8,51.5 1036,52 1036.2,52.5 1036.2,53.1 1036.3,53.6 1036.3,57.6" />
<path stroke="#000000" stroke-width="2" d="M 1036.3,57.6 1036,58.4 1035.6,59.3 1035.3,60 1034.9,60.7 1034.4,61.4 1034,61.9 1033.5,62.5 1033.1,63 1032.6,63.4 1032,63.8 1031.5,64.2 1031,64.5 1030.4,64.8 1029.8,65 1029.3,65.2 1028.7,65.3 1028.1,65.4 1027.5,65.5 1026.9,65.6 1026.3,65.6" />
<path stroke="#000000" stroke-width="2" d="M 1066.3,70" />
<path stroke="#000000" stroke-width="2" d="M 1066.3,70 1066.5,70 1066.5,70.2 1066.3,70.2 1066.3,70" />
<path stroke="#000000" stroke-width="2" d="M 1096.5,70" />
<path stroke="#000000" stroke-width="2" d="M 1096.5,50 1104.1,31.5 1111.8,50 1116.8,50 1116.8,70 1109.1,88.5 1111.4,82.9 1111.8,82.1 1112.2,81.4 1112.6,80.6 1113.2,79.9 1113.8,79.3 1114.4,78.7 1115.1,78.2 1115.8,77.7 1116.6,77.3 1117.4,77 1118.2,76.7 1119.1,76.5" />
<path stroke="#000000" stroke-width="2" d="M 1149.1,70" />
<path stroke="#000000" stroke-width="2" d="M 1149.1,30 1149.1,70 1149.1,58 1149.1,56.3 1149.3,54.5 1149.6,52.8 1150,51.1 1150.6,49.5 1151.3,47.9 1152.2,46.4 1153.2,45 1154.3,43.6 1155.6,42.4 1156.9,41.3 1158.3,40.3 1159.8,39.4 1161.4,38.7 1163.1,38.1 1164.8,37.6 1166.5,37.3 1168.2,37.1" />
<path stroke="#000000" stroke-width="2" d="M 1174.9,70" />
<path stroke="#000000" stroke-width="2" d="M 1174.9,25" />
<path stroke="#000000" stroke-width="2" d="M 1174.9,25 1176.9,24.9 1178.5,24.6 1179.8,24.1 1180.6,23.6 1181.2,22.9 1181.5,22.2 1181.5,21.4 1181.4,20.7 1181,20 1180.5,19.4 1179.9,18.9 1179.2,18.5 1178.5,18.3 1177.7,18.4 1177,18.7 1176.3,19.2 1175.7,20.1 1175.3,21.4 1175,23 1174.9,25 1174.9,40" />
<path stroke="#000000" stroke-width="2" d="M 1188.2,70" />
<path stroke="#000000" stroke-width="2" d="M 1188.2,30 1189.1,30 1189.9,30.1 1190.8,30.2 1191.6,30.5 1192.5,30.8 1193.2,31.1 1194,31.6 1194.7,32.1 1195.4,32.6 1196,33.2 1196.6,33.9 1197.1,34.6 1197.5,35.4 1197.9,36.2 1198.2,37 1198.4,37.8 1198.5,38.7 1198.6,39.6 1198.6,40.4 1198.5,41.3 1198.4,42.2 1198.2,43 1197.9,43.8 1197.5,44.6 1197.1,45.4 1196.6,46.1 1196,46.7 1195.4,47.4 1194.7,47.9 1194,48.4 1193.2,48.9 1192.5,49.2 1191.6,49.5 1190.8,49.8 1189.9,49.9 1189.1,50 1189.1,50.5 1189,51 1188.9,51.5 1188.8,52 1188.6,52.5 1188.4,53 1188.1,53.5 1187.8,53.9 1187.5,54.3 1187.1,54.7 1186.7,55 1186.3,55.3 1185.8,55.6 1185.4,55.8 1184.9,56 1184.4,56.1 1183.9,56.2 1183.3,56.2 1182.8,56.2 1182.3,56.2 1181.8,56.1 1181.3,56 1180.8,55.8 1180.3,55.6 1179.8,55.3 1179.4,55 1179,54.7 1178.6,54.3 1178.3,53.9 1178,53.5 1177.8,53 1177.5,52.5 1177.4,52 1177.2,51.5 1177.1,51 1177.1,50.5 1177.1,50 1177.1,49.5 1177.2,48.9 1177.4,48.4 1177.5,47.9 1177.8,47.5 1178,47 1178.3,46.6 1178.6,46.2 1179,45.8 1179.4,45.5 1179.8,45.2 1180.3,44.9 1180.8,44.7 1181.3,44.5 1181.8,44.4 1182.3,44.3 1182.8,44.2 1183.3,44.2 1183.9,44.3 1184.4,44.4 1184.9,44.5 1185.4,44.7 1185.8,44.9 1186.3,45.2 1186.7,45.5 1187.1,45.8 1187.5,46.2 1187.8,46.6 1188.1,47 1188.4,47.5 1188.6,47.9 1188.8,48.4 1188.9,48.9 1189,49.5 1189.1,50 1189.1,54" />
<path stroke="#000000" stroke-width="2" d="M 1189.1,54 1188.8,54.9 1188.4,55.7 1188,56.4 1187.6,57.1 1187.2,57.8 1186.8,58.4 1186.3,58.9 1185.8,59.4 1185.3,59.8 1184.8,60.2 1184.3,60.6 1183.7,60.9 1183.2,61.2 1182.6,61.4 1182,61.6 1181.5,61.7 1180.9,61.8 1180.3,61.9 1179.7,62 1179.1,62" />
<path stroke="#000000" stroke-width="2" d="M 1228.6,70" />
</svg>