<svg xmlns="http://www.w3.org/2000/svg" width="417.3337522023317" height="105.30208980215463" style="fill:none; stroke-linecap:round;">
    <rect width="100%" height="100%" fill="#FFFFFF" />
<path stroke="#000000" stroke-width="2" d="M 550,75" />
<path stroke="#000000" stroke-width="2" d="M 20,50 25.7,36.1" />
<path stroke="#000000" stroke-width="2" d="M 25.7,36.1 27.8,36 29.4,35.7 30.6,35.3 31.5,34.7 32.1,34 32.4,33.3 32.4,32.6 32.2,31.8 31.9,31.1 31.4,30.5 30.8,30 30.1,29.7 29.3,29.5 28.6,29.5 27.8,29.8 27.2,30.4 26.6,31.3 26.1,32.5 25.8,34.1 25.7,36.1 25.7,51.1 25.7,50.4 25.8,49.7 25.9,49.1 26.1,48.4 26.3,47.7 26.6,47.1 27,46.5 27.4,45.9 27.8,45.4 28.3,44.9 28.9,44.4 29.4,44 30,43.7 30.7,43.4 31.3,43.2 32,43 32.7,42.9 33.4,42.8 34.1,42.8 34.8,42.9 35.5,43 36.1,43.2 36.8,43.4 37.4,43.7 38,44 38.6,44.4 39.1,44.9 39.6,45.4 40.1,45.9 40.5,46.5 40.8,47.1 41.1,47.7 41.4,48.4 41.5,49.1 41.7,49.7 41.7,50.4" />
<path stroke="#000000" stroke-width="2" d="M 48.4,70" />
<path stroke="#000000" stroke-width="2" d="M 48.4,20" />
<path stroke="#000000" stroke-width="2" d="M 48.4,20 49.8,20.1 51.1,20.6 52.2,21.2 53.2,22.1 54,23.1 54.7,24.3 55.2,25.6 55.6,27 55.8,28.5 55.9,30 55.8,31.5 55.6,33 55.2,34.4 54.7,35.7 54,36.9 53.2,37.9 52.2,38.8 51.1,39.4 49.8,39.9 48.4,40" />
<path stroke="#000000" stroke-width="2" d="M 85.9,70" />
<path stroke="#000000" stroke-width="2" d="M 101.9,30 82.1,49.8 101.9,69.6" />
<path stroke="#000000" stroke-width="2" d="M 108.6,70" />
<path stroke="#000000" stroke-width="2" d="M 108.6,20 108.6,40 108.6,34 108.6,33.1 108.6,32.3 108.8,31.4 109,30.6 109.3,29.7 109.7,28.9 110.1,28.2 110.6,27.5 111.2,26.8 111.8,26.2 112.5,25.6 113.2,25.1 113.9,24.7 114.7,24.3 115.5,24 116.4,23.8 117.2,23.6 118.1,23.6" />
<path stroke="#000000" stroke-width="2" d="M 148.1,70" />
<path stroke="#000000" stroke-width="2" d="M 168.1,30 152.8,67" />
<path stroke="#000000" stroke-width="2" d="M 174.8,70" />
<path stroke="#000000" stroke-width="2" d="M 174.8,70 174.8,69.3 174.8,68.6 175,67.9 175.1,67.2 175.4,66.6 175.7,66 176,65.4 176.4,64.8 176.9,64.2 177.4,63.8 177.9,63.3 178.5,62.9 179.1,62.6 179.7,62.3 180.4,62 181,61.8 181.7,61.7 182.4,61.7 183.1,61.7 183.8,61.7 184.5,61.8 185.2,62 185.8,62.3 186.5,62.6 187.1,62.9 187.6,63.3 188.2,63.8 188.7,64.2 189.1,64.8 189.5,65.4 189.9,66 190.2,66.6 190.4,67.2 190.6,67.9 190.7,68.6 190.8,69.3" />
<path stroke="#000000" stroke-width="2" d="M 190.8,65.3" />
<path stroke="#000000" stroke-width="2" d="M 184.8,65.3 194.8,65.3 199.8,65.3 199.8,85.3" />
<path stroke="#000000" stroke-width="2" d="M 206.4,70" />
<path stroke="#000000" stroke-width="2" d="M 206.4,30 206.4,50 206.4,44 206.4,43.1 206.5,42.3 206.7,41.4 206.9,40.6 207.2,39.7 207.6,38.9 208,38.2 208.5,37.5 209,36.8 209.7,36.2 210.3,35.6 211,35.1 211.8,34.7 212.6,34.3 213.4,34 214.3,33.8 215.1,33.6 216,33.6 223.6,52.1" />
<path stroke="#000000" stroke-width="2" d="M 253.6,70" />
<path stroke="#000000" stroke-width="2" d="M 253.6,30 268.9,67" />
<path stroke="#000000" stroke-width="2" d="M 275.6,70" />
<path stroke="#000000" stroke-width="2" d="M 275.6,30 275.8,30 275.8,30.2 275.6,30.2 275.6,30" />
<path stroke="#000000" stroke-width="2" d="M 305.8,70" />
<path stroke="#000000" stroke-width="2" d="M 315.8,30 316.3,30 316.9,30 317.4,30.1 317.9,30.3 318.4,30.5 318.8,30.7 319.3,30.9 319.7,31.2 320.1,31.6 320.5,31.9 320.8,32.3 321.1,32.8 321.4,33.2 321.6,33.7 321.8,34.2 321.9,34.7 322,35.2 322.1,35.7 322.1,36.3 322,36.8 321.9,37.3 321.8,37.8 321.6,38.3 321.4,38.8 321.1,39.2 320.8,39.6 320.5,40 320.1,40.4 319.7,40.8 319.3,41.1 318.8,41.3 318.4,41.5 317.9,41.7 317.4,41.9 316.9,41.9 316.3,42 315.8,42 315.3,41.9 314.8,41.9 314.3,41.7 313.8,41.5 313.3,41.3 312.9,41.1 312.4,40.8 312,40.4 311.7,40 311.3,39.6 311,39.2 310.8,38.8 310.5,38.3 310.4,37.8 310.2,37.3 310.1,36.8 310.1,36.3 310.1,35.7 310.1,35.2 310.2,34.7 310.4,34.2 310.5,33.7 310.8,33.2 311,32.8 311.3,32.3 311.7,31.9 312,31.6 312.4,31.2 312.9,30.9 313.3,30.7 313.8,30.5 314.3,30.3 314.8,30.1 315.3,30 315.8,30 315.8,50" />
<path stroke="#000000" stroke-width="2" d="M 315.8,50 315.7,52 315.4,53.6 315,54.9 314.4,55.8 313.7,56.3 313,56.6 312.2,56.7 311.5,56.5 310.8,56.1 310.2,55.6 309.7,55 309.3,54.3 309.2,53.6 309.2,52.8 309.5,52.1 310.1,51.4 310.9,50.9 312.2,50.4 313.8,50.1 315.8,50 325.8,50" />
<path stroke="#000000" stroke-width="2" d="M 332.5,70" />
<path stroke="#000000" stroke-width="2" d="M 340.5,30 340.5,45" />
<path stroke="#000000" stroke-width="2" d="M 340.5,45 340.4,47 340.1,48.6 339.6,49.9 339,50.8 338.4,51.3 337.6,51.6 336.9,51.7 336.2,51.5 335.5,51.1 334.9,50.6 334.4,50 334,49.3 333.8,48.6 333.9,47.8 334.2,47.1 334.7,46.4 335.6,45.9 336.8,45.4 338.4,45.1 340.5,45 360.5,45" />
<path stroke="#000000" stroke-width="2" d="M 360.5,45 362.5,44.9 364.1,44.6 365.4,44.1 366.2,43.6 366.8,42.9 367.1,42.2 367.1,41.4 367,40.7 366.6,40 366.1,39.4 365.5,38.9 364.8,38.5 364.1,38.3 363.3,38.4 362.6,38.7 361.9,39.2 361.3,40.1 360.9,41.4 360.6,43 360.5,45 360.5,60" />
<path stroke="#000000" stroke-width="2" d="M 397.1,70" />
<path stroke="#000000" stroke-width="2" d="M 397.1,70 397.3,70 397.3,70.2 397.1,70.2 397.1,70" />
<path stroke="#000000" stroke-width="2" d="M 427.3,70" />
</svg>