<svg xmlns="http://www.w3.org/2000/svg" width="1348.3244541630438" height="93.04481869954853" style="fill:none; stroke-linecap:round;">
    <rect width="100%" height="100%" fill="#FFFFFF" />
<path stroke="#000000" stroke-width="2" d="M 550,75" />
<path stroke="#000000" stroke-width="2" d="M 36,30 16.2,49.8 36,69.6" />
<path stroke="#000000" stroke-width="2" d="M 42.7,70" />
<path stroke="#000000" stroke-width="2" d="M 42.7,20 42.7,40 42.7,34 42.7,33.1 42.7,32.3 42.9,31.4 43.1,30.6 43.4,29.7 43.8,28.9 44.2,28.2 44.7,27.5 45.3,26.8 45.9,26.2 46.6,25.6 47.3,25.1 48,24.7 48.8,24.3 49.7,24 50.5,23.8 51.4,23.6 52.2,23.6" />
<path stroke="#000000" stroke-width="2" d="M 82.2,70" />
<path stroke="#000000" stroke-width="2" d="M 82.2,30 97.5,67" />
<path stroke="#000000" stroke-width="2" d="M 104.2,70" />
<path stroke="#000000" stroke-width="2" d="M 104.2,20 124.2,20" />
<path stroke="#000000" stroke-width="2" d="M 154.2,70" />
<path stroke="#000000" stroke-width="2" d="M 164.2,30 163.3,30 162.5,30.1 161.6,30.2 160.8,30.5 159.9,30.8 159.1,31.1 158.4,31.6 157.7,32.1 157,32.6 156.4,33.2 155.8,33.9 155.3,34.6 154.9,35.4 154.5,36.2 154.2,37 154,37.8 153.8,38.7 153.8,39.6 153.8,40.4 153.8,41.3 154,42.2 154.2,43 154.5,43.8 154.9,44.6 155.3,45.4 155.8,46.1 156.4,46.7 157,47.4 157.7,47.9 158.4,48.4 159.1,48.9 159.9,49.2 160.8,49.5 161.6,49.8 162.5,49.9 163.3,50 183.3,50" />
<path stroke="#000000" stroke-width="2" d="M 213.3,70" />
<path stroke="#000000" stroke-width="2" d="M 213.3,70 213.5,70 213.5,70.2 213.3,70.2 213.3,70" />
<path stroke="#000000" stroke-width="2" d="M 220.2,70" />
<path stroke="#000000" stroke-width="2" d="M 220.2,30 220.2,70" />
<path stroke="#000000" stroke-width="2" d="M 226.9,70" />
<path stroke="#000000" stroke-width="2" d="M 226.9,40 226.9,39.3 226.9,38.6 227,37.9 227.2,37.2 227.5,36.6 227.8,36 228.1,35.4 228.5,34.8 229,34.2 229.4,33.8 230,33.3 230.5,32.9 231.2,32.6 231.8,32.3 232.4,32 233.1,31.8 233.8,31.7 234.5,31.7 235.2,31.7 235.9,31.7 236.6,31.8 237.3,32 237.9,32.3 238.5,32.6 239.1,32.9 239.7,33.3 240.3,33.8 240.7,34.2 241.2,34.8 241.6,35.4 241.9,36 242.2,36.6 242.5,37.2 242.7,37.9 242.8,38.6 242.8,39.3" />
<path stroke="#000000" stroke-width="2" d="M 272.8,70" />
<path stroke="#000000" stroke-width="2" d="M 282.8,30 282,30 281.1,30.1 280.2,30.2 279.4,30.5 278.6,30.8 277.8,31.1 277,31.6 276.3,32.1 275.6,32.6 275,33.2 274.5,33.9 274,34.6 273.5,35.4 273.2,36.2 272.9,37 272.6,37.8 272.5,38.7 272.4,39.6 272.4,40.4 272.5,41.3 272.6,42.2 272.9,43 273.2,43.8 273.5,44.6 274,45.4 274.5,46.1 275,46.7 275.6,47.4 276.3,47.9 277,48.4 277.8,48.9 278.6,49.2 279.4,49.5 280.2,49.8 281.1,49.9 282,50 287,50 287,70" />
<path stroke="#000000" stroke-width="2" d="M 317,70" />
<path stroke="#000000" stroke-width="2" d="M 317,30 332.3,67" />
<path stroke="#000000" stroke-width="2" d="M 338.9,70" />
<path stroke="#000000" stroke-width="2" d="M 338.9,30 339.1,30 339.1,30.2 338.9,30.2 338.9,30" />
<path stroke="#000000" stroke-width="2" d="M 369.1,70" />
<path stroke="#000000" stroke-width="2" d="M 369.1,30 409.1,30" />
<path stroke="#000000" stroke-width="2" d="M 415.8,70" />
<path stroke="#000000" stroke-width="2" d="M 415.8,40 415.8,39.3 415.9,38.6 416,37.9 416.2,37.2 416.4,36.6 416.7,36 417.1,35.4 417.5,34.8 417.9,34.2 418.4,33.8 418.9,33.3 419.5,32.9 420.1,32.6 420.7,32.3 421.4,32 422.1,31.8 422.8,31.7 423.5,31.7 424.2,31.7 424.8,31.7 425.5,31.8 426.2,32 426.9,32.3 427.5,32.6 428.1,32.9 428.7,33.3 429.2,33.8 429.7,34.2 430.1,34.8 430.5,35.4 430.9,36 431.2,36.6 431.4,37.2 431.6,37.9 431.7,38.6 431.8,39.3" />
<path stroke="#000000" stroke-width="2" d="M 461.8,70" />
<path stroke="#000000" stroke-width="2" d="M 461.8,70 462,70 462,70.2 461.8,70.2 461.8,70" />
<path stroke="#000000" stroke-width="2" d="M 492,70" />
<path stroke="#000000" stroke-width="2" d="M 492,30 492,70 512,70" />
<path stroke="#000000" stroke-width="2" d="M 542,70" />
<path stroke="#000000" stroke-width="2" d="M 542,70 542,68.6 542.1,67.2 542.4,65.8 542.7,64.5 543.2,63.2 543.8,61.9 544.5,60.7 545.3,59.6 546.2,58.5 547.2,57.5 548.2,56.6 549.4,55.8 550.6,55.1 551.9,54.5 553.2,54 554.5,53.7 555.9,53.4 557.3,53.3 558.7,53.3 560.1,53.4 561.4,53.7 562.8,54 564.1,54.5 565.4,55.1 566.6,55.8 567.7,56.6 568.8,57.5 569.8,58.5 570.7,59.6 571.5,60.7 572.2,61.9 572.8,63.2 573.2,64.5 573.6,65.8 573.8,67.2 574,68.6" />
<path stroke="#000000" stroke-width="2" d="M 580.6,70" />
<path stroke="#000000" stroke-width="2" d="M 580.6,50 584.5,59.2" />
<path stroke="#000000" stroke-width="2" d="M 584.5,59.2 586.4,61.4 587.7,63.3 588.5,65 588.8,66.4 588.7,67.7 588.2,68.7 587.5,69.5 586.6,70 585.6,70.4 584.5,70.5 583.3,70.4 582.3,70 581.4,69.5 580.7,68.7 580.2,67.7 580.1,66.4 580.4,65 581.2,63.3 582.5,61.4 584.5,59.2 588.3,50 588.3,50.7 588.3,51.4 588.5,52.1 588.6,52.8 588.9,53.4 589.2,54 589.5,54.6 589.9,55.2 590.4,55.8 590.9,56.2 591.4,56.7 592,57.1 592.6,57.4 593.2,57.7 593.9,58 594.5,58.2 595.2,58.3 595.9,58.3 596.6,58.3 597.3,58.3 598,58.2 598.7,58 599.3,57.7 600,57.4 600.6,57.1 601.1,56.7 601.7,56.2 602.2,55.8 602.6,55.2 603,54.6 603.4,54 603.7,53.4 603.9,52.8 604.1,52.1 604.2,51.4 604.3,50.7 605.1,50.7 606,50.8 606.9,50.9 607.7,51.2 608.5,51.4 609.3,51.8 610.1,52.3 610.8,52.8 611.5,53.3 612.1,53.9 612.6,54.6 613.1,55.3 613.6,56.1 613.9,56.9 614.2,57.7 614.5,58.5 614.6,59.4 614.7,60.3 614.7,61.1 614.6,62 614.5,62.9 614.2,63.7 613.9,64.5 613.6,65.3 613.1,66.1 612.6,66.8 612.1,67.4 611.5,68.1 610.8,68.6 610.1,69.1 609.3,69.6 608.5,69.9 607.7,70.2 606.9,70.5 606,70.6 605.1,70.7" />
<path stroke="#000000" stroke-width="2" d="M 644.7,70" />
<path stroke="#000000" stroke-width="2" d="M 646.7,50 652.1,37.1 652.2,36.7 652.3,36.4 652.4,36.1 652.4,35.7 652.4,35.4 652.4,35 652.4,34.7 652.3,34.3 652.2,34 652.1,33.7 651.9,33.4 651.7,33.1 651.5,32.8 651.3,32.5 651,32.3 650.7,32.1 650.4,31.9 650.1,31.7 649.8,31.6 649.5,31.5 649.1,31.4 648.8,31.4 648.4,31.4 648.1,31.4 647.7,31.4 647.4,31.5 647.1,31.6 646.7,31.7 646.4,31.9 646.1,32.1 645.9,32.3 645.6,32.5 645.4,32.8 645.2,33.1 645,33.4 644.8,33.7 644.7,34 644.6,34.3 644.5,34.7 644.4,35 644.4,35.4 644.4,35.7 644.5,36.1 644.6,36.4 644.7,36.7 644.8,37.1 645,37.4 645.2,37.7 645.4,37.9 645.6,38.2 645.9,38.4 646.1,38.7 646.4,38.8 646.7,39 647.1,39.1 647.4,39.2 647.7,39.3 648.1,39.4 648.4,39.4 648.8,39.4 661.7,34 669.4,52.5 677,34 697,34" />
<path stroke="#000000" stroke-width="2" d="M 727,70" />
<path stroke="#000000" stroke-width="2" d="M 743,30 723.2,49.8 743,69.6" />
<path stroke="#000000" stroke-width="2" d="M 749.7,70" />
<path stroke="#000000" stroke-width="2" d="M 749.7,20 749.7,40 749.7,34 749.7,33.1 749.8,32.3 749.9,31.4 750.1,30.6 750.4,29.7 750.8,28.9 751.2,28.2 751.7,27.5 752.3,26.8 752.9,26.2 753.6,25.6 754.3,25.1 755.1,24.7 755.8,24.3 756.7,24 757.5,23.8 758.4,23.6 759.2,23.6" />
<path stroke="#000000" stroke-width="2" d="M 789.2,70" />
<path stroke="#000000" stroke-width="2" d="M 805.2,30 785.4,49.8 805.2,69.6" />
<path stroke="#000000" stroke-width="2" d="M 811.9,70" />
<path stroke="#000000" stroke-width="2" d="M 811.9,20 811.9,40 811.9,34 811.9,33.1 812,32.3 812.1,31.4 812.4,30.6 812.7,29.7 813,28.9 813.5,28.2 814,27.5 814.5,26.8 815.1,26.2 815.8,25.6 816.5,25.1 817.3,24.7 818.1,24.3 818.9,24 819.7,23.8 820.6,23.6 821.5,23.6" />
<path stroke="#000000" stroke-width="2" d="M 851.5,70" />
<path stroke="#000000" stroke-width="2" d="M 851.5,30 851.5,50 851.5,70 851.5,64 851.5,63.1 851.5,62.3 851.7,61.4 851.9,60.6 852.2,59.7 852.6,58.9 853,58.2 853.5,57.5 854.1,56.8 854.7,56.2 855.4,55.6 856.1,55.1 856.8,54.7 857.6,54.3 858.4,54 859.3,53.8 860.1,53.6 861,53.6" />
<path stroke="#000000" stroke-width="2" d="M 867.7,70" />
<path stroke="#000000" stroke-width="2" d="M 879.7,26 879.7,26.5 879.6,27 879.5,27.6 879.4,28.1 879.2,28.6 879,29 878.7,29.5 878.4,29.9 878.1,30.3 877.7,30.7 877.3,31 876.9,31.3 876.5,31.6 876,31.8 875.5,32 875,32.1 874.5,32.2 873.9,32.3 873.4,32.3 872.9,32.2 872.4,32.1 871.9,32 871.4,31.8 870.9,31.6 870.5,31.3 870,31 869.6,30.7 869.3,30.3 868.9,29.9 868.6,29.5 868.4,29 868.1,28.6 868,28.1 867.8,27.6 867.7,27 867.7,26.5 867.7,26 867.7,25.5 867.8,25 868,24.5 868.1,24 868.4,23.5 868.6,23 868.9,22.6 869.3,22.2 869.6,21.8 870,21.5 870.5,21.2 870.9,20.9 871.4,20.7 871.9,20.5 872.4,20.4 872.9,20.3 873.4,20.3 873.9,20.3 874.5,20.3 875,20.4 875.5,20.5 876,20.7 876.5,20.9 876.9,21.2 877.3,21.5 877.7,21.8 878.1,22.2 878.4,22.6 878.7,23 879,23.5 879.2,24 879.4,24.5 879.5,25 879.6,25.5 879.7,26 879.7,30" />
<path stroke="#000000" stroke-width="2" d="M 879.7,30 879.4,30.9 879,31.7 878.7,32.4 878.3,33.1 877.8,33.8 877.4,34.4 876.9,34.9 876.4,35.4 875.9,35.9 875.4,36.2 874.9,36.6 874.4,36.9 873.8,37.2 873.2,37.4 872.6,37.6 872.1,37.7 871.5,37.9 870.9,37.9 870.3,38 869.7,38" />
<path stroke="#000000" stroke-width="2" d="M 909.7,70" />
<path stroke="#000000" stroke-width="2" d="M 909.7,70 909.9,70 909.9,70.2 909.7,70.2 909.7,70" />
<path stroke="#000000" stroke-width="2" d="M 939.9,70" />
<path stroke="#000000" stroke-width="2" d="M 939.9,30 947.5,48.5 955.2,30" />
<path stroke="#000000" stroke-width="2" d="M 955.2,40" />
<path stroke="#000000" stroke-width="2" d="M 939.2,40 956.2,40 956.2,40.5 956.1,41 956.1,41.6 955.9,42.1 955.7,42.6 955.5,43 955.3,43.5 955,43.9 954.6,44.3 954.2,44.7 953.8,45 953.4,45.3 953,45.6 952.5,45.8 952,46 951.5,46.1 951,46.2 950.5,46.3 949.9,46.3 949.4,46.2 948.9,46.1 948.4,46 947.9,45.8 947.4,45.6 947,45.3 946.5,45 946.1,44.7 945.8,44.3 945.4,43.9 945.1,43.5 944.9,43 944.7,42.6 944.5,42.1 944.3,41.6 944.2,41 944.2,40.5 944.2,40 944.2,39.5 944.3,39 944.5,38.5 944.7,38 944.9,37.5 945.1,37 945.4,36.6 945.8,36.2 946.1,35.8 946.5,35.5 947,35.2 947.4,34.9 947.9,34.7 948.4,34.5 948.9,34.4 949.4,34.3 949.9,34.3 950.5,34.3 951,34.3 951.5,34.4 952,34.5 952.5,34.7 953,34.9 953.4,35.2 953.8,35.5 954.2,35.8 954.6,36.2 955,36.6 955.3,37 955.5,37.5 955.7,38 955.9,38.5 956.1,39 956.1,39.5 956.2,40 956.2,44" />
<path stroke="#000000" stroke-width="2" d="M 956.2,44 955.9,44.9 955.5,45.7 955.2,46.4 954.8,47.1 954.3,47.8 953.9,48.4 953.4,48.9 953,49.4 952.5,49.9 951.9,50.2 951.4,50.6 950.9,50.9 950.3,51.2 949.7,51.4 949.2,51.6 948.6,51.7 948,51.9 947.4,51.9 946.8,52 946.2,52" />
<path stroke="#000000" stroke-width="2" d="M 986.2,70" />
<path stroke="#000000" stroke-width="2" d="M 986.2,70 1001.5,33 1001.5,73" />
<path stroke="#000000" stroke-width="2" d="M 1008.2,70" />
<path stroke="#000000" stroke-width="2" d="M 1008.2,50 1012,59.2" />
<path stroke="#000000" stroke-width="2" d="M 1012,59.2 1013.9,61.4 1015.2,63.3 1016,65 1016.3,66.4 1016.2,67.7 1015.8,68.7 1015.1,69.5 1014.1,70 1013.1,70.4 1012,70.5 1010.9,70.4 1009.8,70 1008.9,69.5 1008.2,68.7 1007.8,67.7 1007.7,66.4 1008,65 1008.7,63.3 1010.1,61.4 1012,59.2 1015.8,50 1008.2,68.5" />
<path stroke="#000000" stroke-width="2" d="M 1046.3,70" />
<path stroke="#000000" stroke-width="2" d="M 1062.3,30 1042.5,49.8 1062.3,69.6" />
<path stroke="#000000" stroke-width="2" d="M 1069,70" />
<path stroke="#000000" stroke-width="2" d="M 1069,20 1069,40 1069,34 1069,33.1 1069.1,32.3 1069.2,31.4 1069.4,30.6 1069.7,29.7 1070.1,28.9 1070.5,28.2 1071,27.5 1071.6,26.8 1072.2,26.2 1072.9,25.6 1073.6,25.1 1074.3,24.7 1075.1,24.3 1076,24 1076.8,23.8 1077.7,23.6 1078.5,23.6" />
<path stroke="#000000" stroke-width="2" d="M 1108.5,70" />
<path stroke="#000000" stroke-width="2" d="M 1108.5,30 1108.5,70 1119.8,58.7" />
<path stroke="#000000" stroke-width="2" d="M 1126.5,70" />
<path stroke="#000000" stroke-width="2" d="M 1126.5,25" />
<path stroke="#000000" stroke-width="2" d="M 1126.5,25 1128.5,24.9 1130.2,24.6 1131.4,24.1 1132.3,23.6 1132.8,22.9 1133.1,22.2 1133.2,21.4 1133,20.7 1132.6,20 1132.1,19.4 1131.5,18.9 1130.8,18.5 1130.1,18.3 1129.3,18.4 1128.6,18.7 1128,19.2 1127.4,20.1 1126.9,21.4 1126.6,23 1126.5,25 1126.5,40" />
<path stroke="#000000" stroke-width="2" d="M 1163.2,70" />
<path stroke="#000000" stroke-width="2" d="M 1163.2,30 1173.2,30 1173.2,70" />
<path stroke="#000000" stroke-width="2" d="M 1179.8,70" />
<path stroke="#000000" stroke-width="2" d="M 1179.8,20 1179.8,40 1179.8,34 1179.8,33.1 1179.9,32.3 1180.1,31.4 1180.3,30.6 1180.6,29.7 1181,28.9 1181.4,28.2 1181.9,27.5 1182.4,26.8 1183.1,26.2 1183.7,25.6 1184.4,25.1 1185.2,24.7 1186,24.3 1186.8,24 1187.7,23.8 1188.5,23.6 1189.4,23.6" />
<path stroke="#000000" stroke-width="2" d="M 1219.4,70" />
<path stroke="#000000" stroke-width="2" d="M 1239.4,30 1224.1,67" />
<path stroke="#000000" stroke-width="2" d="M 1246.1,70" />
<path stroke="#000000" stroke-width="2" d="M 1246.1,50 1246.1,50.7 1246.1,51.4 1246.2,52.1 1246.4,52.8 1246.7,53.4 1246.9,54 1247.3,54.6 1247.7,55.2 1248.1,55.8 1248.6,56.2 1249.2,56.7 1249.7,57.1 1250.4,57.4 1251,57.7 1251.6,58 1252.3,58.2 1253,58.3 1253.7,58.3 1254.4,58.3 1255.1,58.3 1255.8,58.2 1256.5,58 1257.1,57.7 1257.7,57.4 1258.3,57.1 1258.9,56.7 1259.4,56.2 1259.9,55.8 1260.4,55.2 1260.8,54.6 1261.1,54 1261.4,53.4 1261.7,52.8 1261.9,52.1 1262,51.4 1262,50.7" />
<path stroke="#000000" stroke-width="2" d="M 1268.7,70" />
<path stroke="#000000" stroke-width="2" d="M 1268.7,30 1273.7,30 1273.7,50 1273.7,50.7 1273.8,51.4 1273.9,52.1 1274.1,52.8 1274.3,53.4 1274.6,54 1274.9,54.6 1275.3,55.2 1275.8,55.8 1276.3,56.2 1276.8,56.7 1277.4,57.1 1278,57.4 1278.6,57.7 1279.3,58 1280,58.2 1280.7,58.3 1281.3,58.3 1282,58.3 1282.7,58.3 1283.4,58.2 1284.1,58 1284.8,57.7 1285.4,57.4 1286,57.1 1286.6,56.7 1287.1,56.2 1287.6,55.8 1288,55.2 1288.4,54.6 1288.8,54 1289.1,53.4 1289.3,52.8 1289.5,52.1 1289.6,51.4 1289.7,50.7" />
<path stroke="#000000" stroke-width="2" d="M 1296.4,70" />
<path stroke="#000000" stroke-width="2" d="M 1296.4,70 1296.4,68.6 1296.5,67.2 1296.7,65.8 1297.1,64.5 1297.6,63.2 1298.1,61.9 1298.8,60.7 1299.6,59.6 1300.5,58.5 1301.5,57.5 1302.6,56.6 1303.7,55.8 1305,55.1 1306.2,54.5 1307.5,54 1308.9,53.7 1310.3,53.4 1311.6,53.3 1313,53.3 1314.4,53.4 1315.8,53.7 1317.2,54 1318.5,54.5 1319.7,55.1 1320.9,55.8 1322.1,56.6 1323.1,57.5 1324.1,58.5 1325,59.6 1325.8,60.7 1326.5,61.9 1327.1,63.2 1327.6,64.5 1328,65.8 1328.2,67.2 1328.3,68.6" />
<path stroke="#000000" stroke-width="2" d="M 1358.3,70" />
</svg>