<svg xmlns="http://www.w3.org/2000/svg" width="1181.7892913594974" height="102.0" style="fill:none; stroke-linecap:round;">
    <rect width="100%" height="100%" fill="#FFFFFF" />
<path stroke="#000000" stroke-width="2" d="M 550,75" />
<path stroke="#000000" stroke-width="2" d="M 20,30 30,30 30,70" />
<path stroke="#000000" stroke-width="2" d="M 36.7,70" />
<path stroke="#000000" stroke-width="2" d="M 36.7,50 36.7,70 36.7,64 36.7,63.1 36.7,62.3 36.9,61.4 37.1,60.6 37.4,59.7 37.8,58.9 38.2,58.2 38.7,57.5 39.3,56.8 39.9,56.2 40.6,55.6 41.3,55.1 42,54.7 42.8,54.3 43.7,54 44.5,53.8 45.4,53.6 46.2,53.6" />
<path stroke="#000000" stroke-width="2" d="M 76.2,70" />
<path stroke="#000000" stroke-width="2" d="M 92.2,30 72.4,49.8 92.2,69.6" />
<path stroke="#000000" stroke-width="2" d="M 98.9,70" />
<path stroke="#000000" stroke-width="2" d="M 98.9,40" />
<path stroke="#000000" stroke-width="2" d="M 98.9,40 102.9,39.8 106.2,39.2 108.6,38.3 110.4,37.1 111.5,35.8 112.1,34.3 112.2,32.8 111.8,31.4 111.1,30 110.1,28.8 108.9,27.7 107.5,27 106.1,26.7 104.6,26.8 103.1,27.3 101.8,28.5 100.6,30.2 99.7,32.7 99.1,35.9 98.9,40 98.9,70" />
<path stroke="#000000" stroke-width="2" d="M 142.2,70" />
<path stroke="#000000" stroke-width="2" d="M 158.2,30" />
<path stroke="#000000" stroke-width="2" d="M 158.2,30 158,34.1 157.4,37.3 156.5,39.8 155.3,41.5 154,42.7 152.5,43.2 151,43.3 149.6,43 148.2,42.3 146.9,41.2 145.9,40 145.2,38.6 144.9,37.2 145,35.7 145.5,34.2 146.7,32.9 148.4,31.7 150.9,30.8 154.1,30.2 158.2,30 178.2,30" />
<path stroke="#000000" stroke-width="2" d="M 184.9,70" />
<path stroke="#000000" stroke-width="2" d="M 184.9,20 184.9,40 184.9,34 184.9,33.1 184.9,32.3 185.1,31.4 185.3,30.6 185.6,29.7 186,28.9 186.4,28.2 186.9,27.5 187.5,26.8 188.1,26.2 188.8,25.6 189.5,25.1 190.2,24.7 191,24.3 191.8,24 192.7,23.8 193.5,23.6 194.4,23.6" />
<path stroke="#000000" stroke-width="2" d="M 201.1,70" />
<path stroke="#000000" stroke-width="2" d="M 201.1,20 221.1,20 213.4,38.5" />
<path stroke="#000000" stroke-width="2" d="M 213.4,38.5 215.5,38.4 217.1,38.1 218.3,37.6 219.2,37 219.8,36.4 220,35.6 220.1,34.9 219.9,34.2 219.6,33.5 219.1,32.9 218.4,32.4 217.8,32 217,31.8 216.3,31.9 215.5,32.1 214.9,32.7 214.3,33.6 213.8,34.8 213.5,36.4 213.4,38.5 213.4,53.5" />
<path stroke="#000000" stroke-width="2" d="M 251.1,70" />
<path stroke="#000000" stroke-width="2" d="M 267.1,30 247.3,49.8 267.1,69.6" />
<path stroke="#000000" stroke-width="2" d="M 273.8,70" />
<path stroke="#000000" stroke-width="2" d="M 273.8,20 274.6,20 275.5,20.1 276.4,20.2 277.2,20.5 278,20.8 278.8,21.1 279.6,21.6 280.3,22.1 280.9,22.6 281.6,23.2 282.1,23.9 282.6,24.6 283.1,25.4 283.4,26.2 283.7,27 283.9,27.8 284.1,28.7 284.2,29.6 284.2,30.4 284.1,31.3 283.9,32.2 283.7,33 283.4,33.8 283.1,34.6 282.6,35.4 282.1,36.1 281.6,36.7 280.9,37.4 280.3,37.9 279.6,38.4 278.8,38.9 278,39.2 277.2,39.5 276.4,39.8 275.5,39.9 274.6,40" />
<path stroke="#000000" stroke-width="2" d="M 314.2,70" />
<path stroke="#000000" stroke-width="2" d="M 314.2,30 314.2,70" />
<path stroke="#000000" stroke-width="2" d="M 320.8,70" />
<path stroke="#000000" stroke-width="2" d="M 320.8,20 340.8,20" />
<path stroke="#000000" stroke-width="2" d="M 370.8,70" />
<path stroke="#000000" stroke-width="2" d="M 380.8,30 380,30 379.1,30.1 378.2,30.2 377.4,30.5 376.6,30.8 375.8,31.1 375,31.6 374.3,32.1 373.7,32.6 373,33.2 372.5,33.9 372,34.6 371.5,35.4 371.2,36.2 370.9,37 370.6,37.8 370.5,38.7 370.4,39.6 370.4,40.4 370.5,41.3 370.6,42.2 370.9,43 371.2,43.8 371.5,44.6 372,45.4 372.5,46.1 373,46.7 373.7,47.4 374.3,47.9 375,48.4 375.8,48.9 376.6,49.2 377.4,49.5 378.2,49.8 379.1,49.9 380,50 380.8,50 381.7,50.1 382.6,50.2 383.4,50.4 384.2,50.7 385,51.1 385.8,51.5 386.5,52 387.2,52.6 387.8,53.2 388.3,53.9 388.8,54.6 389.3,55.4 389.6,56.1 389.9,57 390.2,57.8 390.3,58.7 390.4,59.5 390.4,60.4 390.3,61.3 390.2,62.1 389.9,63 389.6,63.8 389.3,64.6 388.8,65.3 388.3,66.1 387.8,66.7 387.2,67.3 386.5,67.9 385.8,68.4 385,68.8 384.2,69.2 383.4,69.5 382.6,69.7 381.7,69.9 380.8,70" />
<path stroke="#000000" stroke-width="2" d="M 420.4,70" />
<path stroke="#000000" stroke-width="2" d="M 420.4,30 430.4,30 430.4,70" />
<path stroke="#000000" stroke-width="2" d="M 437.1,70" />
<path stroke="#000000" stroke-width="2" d="M 437.1,50 437.1,50.7 437.1,51.4 437.2,52.1 437.4,52.8 437.7,53.4 438,54 438.3,54.6 438.7,55.2 439.2,55.8 439.7,56.2 440.2,56.7 440.8,57.1 441.4,57.4 442,57.7 442.7,58 443.3,58.2 444,58.3 444.7,58.3 445.4,58.3 446.1,58.3 446.8,58.2 447.5,58 448.1,57.7 448.8,57.4 449.4,57.1 449.9,56.7 450.5,56.2 451,55.8 451.4,55.2 451.8,54.6 452.2,54 452.4,53.4 452.7,52.8 452.9,52.1 453,51.4 453,50.7 453,50 453.1,49.3 453.2,48.6 453.4,47.9 453.7,47.3 453.9,46.7 454.3,46.1 454.7,45.5 455.1,44.9 455.6,44.5 456.2,44 456.7,43.6 457.3,43.3 458,43 458.6,42.7 459.3,42.5 460,42.4 460.7,42.4 461.4,42.4 462.1,42.4 462.8,42.5 463.4,42.7 464.1,43 464.7,43.3 465.3,43.6 465.9,44 466.4,44.5 466.9,44.9 467.4,45.5 467.8,46.1 468.1,46.7 468.4,47.3 468.7,47.9 468.9,48.6 469,49.3 469,50" />
<path stroke="#000000" stroke-width="2" d="M 499,70" />
<path stroke="#000000" stroke-width="2" d="M 499,70" />
<path stroke="#000000" stroke-width="2" d="M 499,70 500.2,70 501.1,70.2 502,70.4 502.7,70.7 503.3,71 503.7,71.5 504,71.9 504.2,72.5 504.3,73.1 504.3,73.8 504.2,74.4 503.9,75.2 503.6,76 503.2,76.8 502.7,77.6 502.1,78.4 501.4,79.3 500.7,80.2 499.9,81.1 499,82" />
<path stroke="#000000" stroke-width="2" d="M 534.3,70" />
<path stroke="#000000" stroke-width="2" d="M 534.3,30 534.3,70 545.6,58.7" />
<path stroke="#000000" stroke-width="2" d="M 552.3,70" />
<path stroke="#000000" stroke-width="2" d="M 552.3,50 553.2,50 554,50.1 554.9,50.2 555.7,50.5 556.5,50.8 557.3,51.1 558.1,51.6 558.8,52.1 559.5,52.6 560.1,53.2 560.7,53.9 561.2,54.6 561.6,55.4 562,56.2 562.3,57 562.5,57.8 562.6,58.7 562.7,59.6 562.7,60.4 562.6,61.3 562.5,62.2 562.3,63 562,63.8 561.6,64.6 561.2,65.4 560.7,66.1 560.1,66.7 559.5,67.4 558.8,67.9 558.1,68.4 557.3,68.9 556.5,69.2 555.7,69.5 554.9,69.8 554,69.9 553.2,70" />
<path stroke="#000000" stroke-width="2" d="M 592.7,70" />
<path stroke="#000000" stroke-width="2" d="M 592.7,30 612.7,30 613.6,30 614.5,30.1 615.3,30.2 616.2,30.5 617,30.8 617.8,31.1 618.5,31.6 619.2,32.1 619.9,32.6 620.5,33.2 621.1,33.9 621.6,34.6 622,35.4 622.4,36.2 622.7,37 622.9,37.8 623.1,38.7 623.1,39.6 623.1,40.4 623.1,41.3 622.9,42.2 622.7,43 622.4,43.8 622,44.6 621.6,45.4 621.1,46.1 620.5,46.7 619.9,47.4 619.2,47.9 618.5,48.4 617.8,48.9 617,49.2 616.2,49.5 615.3,49.8 614.5,49.9 613.6,50 614.5,50 615.3,50.1 616.2,50.2 617,50.4 617.8,50.7 618.6,51.1 619.4,51.5 620.1,52 620.8,52.6 621.4,53.2 622,53.9 622.5,54.6 622.9,55.4 623.3,56.1 623.6,57 623.8,57.8 623.9,58.7 624,59.5 624,60.4 623.9,61.3 623.8,62.1 623.6,63 623.3,63.8 622.9,64.6 622.5,65.3 622,66.1 621.4,66.7 620.8,67.3 620.1,67.9 619.4,68.4 618.6,68.8 617.8,69.2 617,69.5 616.2,69.7 615.3,69.9 614.5,70" />
<path stroke="#000000" stroke-width="2" d="M 654,70" />
<path stroke="#000000" stroke-width="2" d="M 654,30 657.8,39.2" />
<path stroke="#000000" stroke-width="2" d="M 657.8,39.2 659.8,41.4 661.1,43.3 661.9,45 662.2,46.4 662.1,47.7 661.6,48.7 660.9,49.5 660,50 659,50.4 657.8,50.5 656.7,50.4 655.7,50 654.8,49.5 654.1,48.7 653.6,47.7 653.5,46.4 653.8,45 654.6,43.3 655.9,41.4 657.8,39.2 661.7,30" />
<path stroke="#000000" stroke-width="2" d="M 661.7,30 661.6,32 661.3,33.6 660.8,34.9 660.2,35.8 659.6,36.3 658.8,36.6 658.1,36.7 657.3,36.5 656.7,36.1 656,35.6 655.5,35 655.2,34.3 655,33.6 655.1,32.8 655.3,32.1 655.9,31.4 656.8,30.9 658,30.4 659.6,30.1 661.7,30 671.7,30" />
<path stroke="#000000" stroke-width="2" d="M 701.7,70" />
<path stroke="#000000" stroke-width="2" d="M 717.7,30 697.9,49.8 717.7,69.6" />
<path stroke="#000000" stroke-width="2" d="M 724.3,70" />
<path stroke="#000000" stroke-width="2" d="M 724.3,20 724.3,40 724.3,34 724.3,33.1 724.4,32.3 724.6,31.4 724.8,30.6 725.1,29.7 725.5,28.9 725.9,28.2 726.4,27.5 727,26.8 727.6,26.2 728.2,25.6 729,25.1 729.7,24.7 730.5,24.3 731.3,24 732.2,23.8 733,23.6 733.9,23.6" />
<path stroke="#000000" stroke-width="2" d="M 763.9,70" />
<path stroke="#000000" stroke-width="2" d="M 773.9,50 774.8,50 775.6,49.9 776.5,49.8 777.3,49.5 778.2,49.2 778.9,48.9 779.7,48.4 780.4,47.9 781.1,47.4 781.7,46.8 782.3,46.1 782.8,45.4 783.2,44.6 783.6,43.8 783.9,43 784.1,42.2 784.2,41.3 784.3,40.4 784.3,39.6 784.2,38.7 784.1,37.8 783.9,37 783.6,36.2 783.2,35.4 782.8,34.6 782.3,33.9 781.7,33.3 781.1,32.6 780.4,32.1 779.7,31.6 778.9,31.1 778.2,30.8 777.3,30.5 776.5,30.2 775.6,30.1 774.8,30 773.9,30 773,30.1 772.2,30.2 771.3,30.5 770.5,30.8 769.7,31.1 769,31.6 768.2,32.1 767.6,32.6 767,33.3 766.4,33.9 765.9,34.6 765.5,35.4 765.1,36.2 764.8,37 764.6,37.8 764.4,38.7 764.3,39.6 764.3,40.4 764.4,41.3 764.6,42.2 764.8,43 765.1,43.8 765.5,44.6 765.9,45.4 766.4,46.1 767,46.8 767.6,47.4 768.2,47.9 769,48.4 769.7,48.9 770.5,49.2 771.3,49.5 772.2,49.8 773,49.9 773.9,50 773.9,70 773.9,64 773.9,63.1 774,62.3 774.1,61.4 774.3,60.6 774.6,59.7 775,58.9 775.4,58.2 775.9,57.5 776.5,56.8 777.1,56.2 777.8,55.6 778.5,55.1 779.3,54.7 780.1,54.3 780.9,54 781.7,53.8 782.6,53.6 783.4,53.6" />
<path stroke="#000000" stroke-width="2" d="M 791,70" />
<path stroke="#000000" stroke-width="2" d="M 791,50 791.2,50 791.2,50.2 791,50.2 791,50" />
<path stroke="#000000" stroke-width="2" d="M 821.2,70" />
<path stroke="#000000" stroke-width="2" d="M 821.2,30 861.2,30" />
<path stroke="#000000" stroke-width="2" d="M 867.8,70" />
<path stroke="#000000" stroke-width="2" d="M 867.8,50 875.5,68.5" />
<path stroke="#000000" stroke-width="2" d="M 882.2,70" />
<path stroke="#000000" stroke-width="2" d="M 882.2,40 882.2,39.3 882.2,38.6 882.3,37.9 882.5,37.2 882.8,36.6 883.1,36 883.4,35.4 883.8,34.8 884.3,34.2 884.8,33.8 885.3,33.3 885.9,32.9 886.5,32.6 887.1,32.3 887.8,32 888.4,31.8 889.1,31.7 889.8,31.7 890.5,31.7 891.2,31.7 891.9,31.8 892.6,32 893.2,32.3 893.9,32.6 894.5,32.9 895,33.3 895.6,33.8 896.1,34.2 896.5,34.8 896.9,35.4 897.3,36 897.6,36.6 897.8,37.2 898,37.9 898.1,38.6 898.2,39.3" />
<path stroke="#000000" stroke-width="2" d="M 904.8,70" />
<path stroke="#000000" stroke-width="2" d="M 904.8,20 924.8,20" />
<path stroke="#000000" stroke-width="2" d="M 931.5,70" />
<path stroke="#000000" stroke-width="2" d="M 931.5,35" />
<path stroke="#000000" stroke-width="2" d="M 931.5,35 933.5,34.9 935.1,34.6 936.4,34.1 937.2,33.6 937.8,32.9 938.1,32.2 938.1,31.4 938,30.7 937.6,30 937.1,29.4 936.5,28.9 935.8,28.5 935.1,28.3 934.3,28.4 933.6,28.7 932.9,29.2 932.3,30.1 931.9,31.4 931.6,33 931.5,35 931.5,50 939.1,68.5" />
<path stroke="#000000" stroke-width="2" d="M 969.1,70" />
<path stroke="#000000" stroke-width="2" d="M 985.1,30 965.3,49.8 985.1,69.6" />
<path stroke="#000000" stroke-width="2" d="M 991.8,70" />
<path stroke="#000000" stroke-width="2" d="M 991.8,20 992,20 992,20.2 991.8,20.2 991.8,20" />
<path stroke="#000000" stroke-width="2" d="M 1022,70" />
<path stroke="#000000" stroke-width="2" d="M 1032,30 1031.1,30 1030.3,30.1 1029.4,30.2 1028.6,30.5 1027.7,30.8 1027,31.1 1026.2,31.6 1025.5,32.1 1024.8,32.6 1024.2,33.2 1023.6,33.9 1023.1,34.6 1022.7,35.4 1022.3,36.2 1022,37 1021.8,37.8 1021.7,38.7 1021.6,39.6 1021.6,40.4 1021.7,41.3 1021.8,42.2 1022,43 1022.3,43.8 1022.7,44.6 1023.1,45.4 1023.6,46.1 1024.2,46.7 1024.8,47.4 1025.5,47.9 1026.2,48.4 1027,48.9 1027.7,49.2 1028.6,49.5 1029.4,49.8 1030.3,49.9 1031.1,50 1031.1,70 1031.1,64 1031.1,63.1 1031.2,62.2 1031.4,61.4 1031.6,60.5 1031.9,59.7 1032.3,58.9 1032.7,58.2 1033.2,57.5 1033.8,56.8 1034.4,56.2 1035,55.6 1035.8,55.1 1036.5,54.7 1037.3,54.3 1038.1,54 1039,53.8 1039.8,53.6 1040.7,53.6" />
<path stroke="#000000" stroke-width="2" d="M 1070.7,70" />
<path stroke="#000000" stroke-width="2" d="M 1070.7,70 1086,33 1126,33" />
<path stroke="#000000" stroke-width="2" d="M 1132.7,70" />
<path stroke="#000000" stroke-width="2" d="M 1142.7,30 1141.8,30 1140.9,30.1 1140.1,30.2 1139.2,30.5 1138.4,30.8 1137.6,31.1 1136.9,31.6 1136.1,32.1 1135.5,32.6 1134.9,33.2 1134.3,33.9 1133.8,34.6 1133.4,35.4 1133,36.2 1132.7,37 1132.5,37.8 1132.3,38.7 1132.2,39.6 1132.2,40.4 1132.3,41.3 1132.5,42.2 1132.7,43 1133,43.8 1133.4,44.6 1133.8,45.4 1134.3,46.1 1134.9,46.7 1135.5,47.4 1136.1,47.9 1136.9,48.4 1137.6,48.9 1138.4,49.2 1139.2,49.5 1140.1,49.8 1140.9,49.9 1141.8,50 1161.8,50" />
<path stroke="#000000" stroke-width="2" d="M 1191.8,70" />
</svg>