<svg xmlns="http://www.w3.org/2000/svg" width="260.03562959803907" height="90.2" style="fill:none; stroke-linecap:round;">
    <rect width="100%" height="100%" fill="#FFFFFF" />
<path stroke="#000000" stroke-width="2" d="M 550,75" />
<path stroke="#000000" stroke-width="2" d="M 20,30 20,50 30,50" />
<path stroke="#000000" stroke-width="2" d="M 30,50 31.4,50.1 32.7,50.6 33.8,51.2 34.8,52.1 35.6,53.1 36.3,54.3 36.8,55.6 37.2,57 37.4,58.5 37.5,60 37.4,61.5 37.2,63 36.8,64.4 36.3,65.7 35.6,66.9 34.8,67.9 33.8,68.8 32.7,69.4 31.4,69.9 30,70" />
<path stroke="#000000" stroke-width="2" d="M 67.5,70" />
<path stroke="#000000" stroke-width="2" d="M 67.5,30 82.8,67 98.1,30" />
<path stroke="#000000" stroke-width="2" d="M 98.1,50" />
<path stroke="#000000" stroke-width="2" d="M 66.1,50 100.1,50" />
<path stroke="#000000" stroke-width="2" d="M 130.1,70" />
<path stroke="#000000" stroke-width="2" d="M 146.1,30 126.3,49.8 146.1,69.6" />
<path stroke="#000000" stroke-width="2" d="M 152.8,70" />
<path stroke="#000000" stroke-width="2" d="M 152.8,20 152.8,40 152.8,34 152.8,33.1 152.9,32.3 153,31.4 153.2,30.6 153.5,29.7 153.9,28.9 154.3,28.2 154.8,27.5 155.4,26.8 156,26.2 156.7,25.6 157.4,25.1 158.2,24.7 158.9,24.3 159.8,24 160.6,23.8 161.5,23.6 162.3,23.6" />
<path stroke="#000000" stroke-width="2" d="M 162.3,23.6 163.8,23.7 165,24.1 166.2,24.8 167.1,25.7 168,26.7 168.6,27.9 169.2,29.2 169.5,30.6 169.8,32.1 169.8,33.6 169.8,35.1 169.5,36.5 169.2,37.9 168.6,39.3 168,40.4 167.1,41.5 166.2,42.4 165,43 163.8,43.4 162.3,43.6" />
<path stroke="#000000" stroke-width="2" d="M 199.8,70" />
<path stroke="#000000" stroke-width="2" d="M 204.8,30" />
<path stroke="#000000" stroke-width="2" d="M 204.8,30 203.4,30.1 202.1,30.6 201,31.2 200,32.1 199.2,33.1 198.5,34.3 198,35.6 197.6,37 197.4,38.5 197.3,40 197.4,41.5 197.6,43 198,44.4 198.5,45.7 199.2,46.9 200,47.9 201,48.8 202.1,49.4 203.4,49.9 204.8,50 209.8,50 209.8,70" />
<path stroke="#000000" stroke-width="2" d="M 239.8,70" />
<path stroke="#000000" stroke-width="2" d="M 239.8,70 240,70 240,70.2 239.8,70.2 239.8,70" />
<path stroke="#000000" stroke-width="2" d="M 270,70" />
</svg>