<svg xmlns="http://www.w3.org/2000/svg" width="1439.7030561587353" height="130.0677395031967" style="fill:none; stroke-linecap:round;">
    <rect width="100%" height="100%" fill="#FFFFFF" />
<path stroke="#000000" stroke-width="2" d="M 550,75" />
<path stroke="#000000" stroke-width="2" d="M 20,30 21.7,30 23.5,30.2 25.2,30.5 26.9,30.9 28.5,31.5 30.1,32.2 31.6,33.1 33,34.1 34.4,35.2 35.6,36.5 36.7,37.8 37.7,39.2 38.6,40.7 39.3,42.3 39.9,44 40.4,45.7 40.7,47.4 40.9,49.1 40.9,50.9 40.7,52.6 40.4,54.3 39.9,56 39.3,57.6 38.6,59.2 37.7,60.7 36.7,62.2 35.6,63.5 34.4,64.7 33,65.8 31.6,66.8 30.1,67.7 28.5,68.5 26.9,69.1 25.2,69.5 23.5,69.8 21.7,70" />
<path stroke="#000000" stroke-width="2" d="M 47.5,70" />
<path stroke="#000000" stroke-width="2" d="M 49.5,20 58,28.5" />
<path stroke="#000000" stroke-width="2" d="M 66.5,20 46.7,39.8" />
<path stroke="#000000" stroke-width="2" d="M 96.5,70" />
<path stroke="#000000" stroke-width="2" d="M 96.5,70" />
<path stroke="#000000" stroke-width="2" d="M 96.5,70 97.6,70 98.6,70.2 99.4,70.4 100.1,70.7 100.7,71 101.2,71.5 101.5,71.9 101.7,72.5 101.8,73.1 101.7,73.8 101.6,74.4 101.4,75.2 101.1,76 100.6,76.8 100.1,77.6 99.6,78.4 98.9,79.3 98.2,80.2 97.4,81.1 96.5,82" />
<path stroke="#000000" stroke-width="2" d="M 131.8,70" />
<path stroke="#000000" stroke-width="2" d="M 131.8,70 132,70 132,70.2 131.8,70.2 131.8,70" />
<path stroke="#000000" stroke-width="2" d="M 138.6,70" />
<path stroke="#000000" stroke-width="2" d="M 142.6,30 159.6,47" />
<path stroke="#000000" stroke-width="2" d="M 176.6,30 137,69.6 136.1,69.6 135.2,69.7 134.4,69.8 133.5,70.1 132.7,70.3 131.9,70.7 131.2,71.2 130.4,71.7 129.8,72.2 129.2,72.8 128.6,73.5 128.1,74.2 127.7,75 127.3,75.8 127,76.6 126.8,77.4 126.6,78.3 126.5,79.2 126.5,80 126.6,80.9 126.8,81.8 127,82.6 127.3,83.4 127.7,84.2 128.1,85 128.6,85.7 129.2,86.3 129.8,87 130.4,87.5 131.2,88 131.9,88.5 132.7,88.8 133.5,89.1 134.4,89.4 135.2,89.5 136.1,89.6 139.9,98.8" />
<path stroke="#000000" stroke-width="2" d="M 139.9,98.8 141.9,101 143.2,102.9 143.9,104.6 144.2,106 144.1,107.3 143.7,108.3 143,109.1 142.1,109.6 141,110 139.9,110.1 138.8,110 137.8,109.6 136.9,109.1 136.1,108.3 135.7,107.3 135.6,106 135.9,104.6 136.7,102.9 138,101 139.9,98.8 143.8,89.6 163.8,89.6 163.8,93.6 163.8,94.1 163.8,94.6 163.9,95.1 164,95.6 164.2,96.1 164.4,96.6 164.7,97.1 165,97.5 165.3,97.9 165.7,98.3 166.1,98.6 166.5,98.9 167,99.2 167.5,99.4 167.9,99.6 168.4,99.7 169,99.8 169.5,99.8 170,99.8 170.5,99.8 171,99.7 171.6,99.6 172,99.4 172.5,99.2 173,98.9 173.4,98.6 173.8,98.3 174.2,97.9 174.5,97.5 174.8,97.1 175.1,96.6 175.3,96.1 175.5,95.6 175.6,95.1 175.7,94.6 175.7,94.1 175.7,89.1 175.7,109.1" />
<path stroke="#000000" stroke-width="2" d="M 183.2,70" />
<path stroke="#000000" stroke-width="2" d="M 183.2,20 183.2,40 183.2,34 183.2,33.1 183.3,32.3 183.5,31.4 183.7,30.6 184,29.7 184.4,28.9 184.8,28.2 185.3,27.5 185.9,26.8 186.5,26.2 187.1,25.6 187.9,25.1 188.6,24.7 189.4,24.3 190.2,24 191.1,23.8 191.9,23.6 192.8,23.6" />
<path stroke="#000000" stroke-width="2" d="M 222.8,70" />
<path stroke="#000000" stroke-width="2" d="M 222.8,30 226.6,39.2" />
<path stroke="#000000" stroke-width="2" d="M 226.6,39.2 228.5,41.4 229.9,43.3 230.6,45 230.9,46.4 230.8,47.7 230.4,48.7 229.7,49.5 228.8,50 227.7,50.4 226.6,50.5 225.5,50.4 224.5,50 223.5,49.5 222.8,48.7 222.4,47.7 222.3,46.4 222.6,45 223.4,43.3 224.7,41.4 226.6,39.2 230.4,30 250.4,30" />
<path stroke="#000000" stroke-width="2" d="M 257.1,70" />
<path stroke="#000000" stroke-width="2" d="M 257.1,70 257.1,68.6 257.2,67.2 257.5,65.8 257.8,64.5 258.3,63.2 258.9,61.9 259.6,60.7 260.4,59.6 261.3,58.5 262.3,57.5 263.4,56.6 264.5,55.8 265.7,55.1 267,54.5 268.3,54 269.6,53.7 271,53.4 272.4,53.3 273.8,53.3 275.2,53.4 276.6,53.7 277.9,54 279.2,54.5 280.5,55.1 281.7,55.8 282.8,56.6 283.9,57.5 284.9,58.5 285.8,59.6 286.6,60.7 287.3,61.9 287.9,63.2 288.4,64.5 288.7,65.8 289,67.2 289.1,68.6" />
<path stroke="#000000" stroke-width="2" d="M 295.7,70" />
<path stroke="#000000" stroke-width="2" d="M 295.7,50 295.7,70 295.7,64 295.7,63.1 295.8,62.3 296,61.4 296.2,60.6 296.5,59.7 296.9,58.9 297.3,58.2 297.8,57.5 298.4,56.8 299,56.2 299.7,55.6 300.4,55.1 301.1,54.7 301.9,54.3 302.7,54 303.6,53.8 304.4,53.6 305.3,53.6 325.3,53.6" />
<path stroke="#000000" stroke-width="2" d="M 355.3,70" />
<path stroke="#000000" stroke-width="2" d="M 355.3,30 355.3,70 355.3,58 355.3,56.3 355.5,54.5 355.8,52.8 356.2,51.1 356.8,49.5 357.5,47.9 358.4,46.4 359.4,45 360.5,43.6 361.8,42.4 363.1,41.3 364.5,40.3 366,39.4 367.6,38.7 369.3,38.1 371,37.6 372.7,37.3 374.4,37.1" />
<path stroke="#000000" stroke-width="2" d="M 381.1,70" />
<path stroke="#000000" stroke-width="2" d="M 381.1,20 386.1,20 386.1,40" />
<path stroke="#000000" stroke-width="2" d="M 392.7,70" />
<path stroke="#000000" stroke-width="2" d="M 392.7,55" />
<path stroke="#000000" stroke-width="2" d="M 392.7,55 394.8,54.9 396.4,54.6 397.6,54.1 398.5,53.6 399.1,52.9 399.4,52.2 399.4,51.4 399.2,50.7 398.9,50 398.4,49.4 397.8,48.9 397.1,48.5 396.3,48.3 395.6,48.4 394.9,48.7 394.2,49.2 393.6,50.1 393.1,51.4 392.9,53 392.7,55 392.7,70" />
<path stroke="#000000" stroke-width="2" d="M 406.1,70" />
<path stroke="#000000" stroke-width="2" d="M 406.1,20 406.9,20 407.8,20.1 408.7,20.2 409.5,20.5 410.3,20.8 411.1,21.1 411.9,21.6 412.6,22.1 413.3,22.6 413.9,23.2 414.4,23.9 414.9,24.6 415.4,25.4 415.7,26.2 416,27 416.3,27.8 416.4,28.7 416.5,29.6 416.5,30.4 416.4,31.3 416.3,32.2 416,33 415.7,33.8 415.4,34.6 414.9,35.4 414.4,36.1 413.9,36.7 413.3,37.4 412.6,37.9 411.9,38.4 411.1,38.9 410.3,39.2 409.5,39.5 408.7,39.8 407.8,39.9 406.9,40" />
<path stroke="#000000" stroke-width="2" d="M 446.5,70" />
<path stroke="#000000" stroke-width="2" d="M 466.5,30 451.2,67" />
<path stroke="#000000" stroke-width="2" d="M 473.2,70" />
<path stroke="#000000" stroke-width="2" d="M 473.2,50 473.4,50 473.4,50.2 473.2,50.2 473.2,50" />
<path stroke="#000000" stroke-width="2" d="M 503.4,70" />
<path stroke="#000000" stroke-width="2" d="M 503.4,30 503.4,31.4 503.5,32.8 503.7,34.2 504.1,35.5 504.6,36.8 505.2,38.1 505.8,39.3 506.6,40.4 507.5,41.5 508.5,42.5 509.6,43.4 510.7,44.2 512,44.9 513.2,45.5 514.5,46 515.9,46.3 517.3,46.6 518.6,46.7 520,46.7 521.4,46.6 522.8,46.3 524.2,46 525.5,45.5 526.7,44.9 527.9,44.2 529.1,43.4 530.2,42.5 531.1,41.5 532,40.4 532.8,39.3 533.5,38.1 534.1,36.8 534.6,35.5 535,34.2 535.2,32.8 535.3,31.4" />
<path stroke="#000000" stroke-width="2" d="M 542,70" />
<path stroke="#000000" stroke-width="2" d="M 542,50 542,70 547.7,64.3" />
<path stroke="#000000" stroke-width="2" d="M 554.3,70" />
<path stroke="#000000" stroke-width="2" d="M 554.3,20 554.3,40 554.3,34 554.3,33.1 554.4,32.3 554.5,31.4 554.8,30.6 555.1,29.7 555.4,28.9 555.9,28.2 556.4,27.5 556.9,26.8 557.6,26.2 558.2,25.6 558.9,25.1 559.7,24.7 560.5,24.3 561.3,24 562.1,23.8 563,23.6 563.9,23.6" />
<path stroke="#000000" stroke-width="2" d="M 593.9,70" />
<path stroke="#000000" stroke-width="2" d="M 593.9,70 594.1,70 594.1,70.2 593.9,70.2 593.9,70" />
<path stroke="#000000" stroke-width="2" d="M 600.7,70" />
<path stroke="#000000" stroke-width="2" d="M 600.7,30 616,67" />
<path stroke="#000000" stroke-width="2" d="M 622.7,70" />
<path stroke="#000000" stroke-width="2" d="M 632.7,50 631.8,50 631,50.1 630.1,50.2 629.3,50.5 628.4,50.8 627.7,51.1 626.9,51.6 626.2,52.1 625.5,52.6 624.9,53.2 624.3,53.9 623.8,54.6 623.4,55.4 623,56.2 622.7,57 622.5,57.8 622.4,58.7 622.3,59.6 622.3,60.4 622.4,61.3 622.5,62.2 622.7,63 623,63.8 623.4,64.6 623.8,65.4 624.3,66.1 624.9,66.7 625.5,67.4 626.2,67.9 626.9,68.4 627.7,68.9 628.4,69.2 629.3,69.5 630.1,69.8 631,69.9 631.8,70 651.8,70" />
<path stroke="#000000" stroke-width="2" d="M 681.8,70" />
<path stroke="#000000" stroke-width="2" d="M 701.8,30 686.5,67" />
<path stroke="#000000" stroke-width="2" d="M 708.5,70" />
<path stroke="#000000" stroke-width="2" d="M 708.5,50 708.7,50 708.7,50.2 708.5,50.2 708.5,50" />
<path stroke="#000000" stroke-width="2" d="M 738.7,70" />
<path stroke="#000000" stroke-width="2" d="M 738.7,30 754,67" />
<path stroke="#000000" stroke-width="2" d="M 760.7,70" />
<path stroke="#000000" stroke-width="2" d="M 760.7,40 760.7,39.3 760.7,38.6 760.9,37.9 761,37.2 761.3,36.6 761.6,36 761.9,35.4 762.3,34.8 762.8,34.2 763.3,33.8 763.8,33.3 764.4,32.9 765,32.6 765.6,32.3 766.3,32 766.9,31.8 767.6,31.7 768.3,31.7 769,31.7 769.7,31.7 770.4,31.8 771.1,32 771.7,32.3 772.4,32.6 773,32.9 773.5,33.3 774.1,33.8 774.6,34.2 775,34.8 775.4,35.4 775.8,36 776.1,36.6 776.3,37.2 776.5,37.9 776.6,38.6 776.7,39.3" />
<path stroke="#000000" stroke-width="2" d="M 783.3,70" />
<path stroke="#000000" stroke-width="2" d="M 783.3,20 783.5,20 783.5,20.2 783.3,20.2 783.3,20" />
<path stroke="#000000" stroke-width="2" d="M 813.5,70" />
<path stroke="#000000" stroke-width="2" d="M 813.5,30 813.5,70 824.8,58.7" />
<path stroke="#000000" stroke-width="2" d="M 831.5,70" />
<path stroke="#000000" stroke-width="2" d="M 833.5,20 842,28.5" />
<path stroke="#000000" stroke-width="2" d="M 850.5,20 830.7,39.8" />
<path stroke="#000000" stroke-width="2" d="M 880.5,70" />
<path stroke="#000000" stroke-width="2" d="M 880.5,30 890.5,30 890.5,70" />
<path stroke="#000000" stroke-width="2" d="M 897.2,70" />
<path stroke="#000000" stroke-width="2" d="M 897.2,50 897.2,70 897.2,64 897.2,63.1 897.2,62.3 897.4,61.4 897.6,60.6 897.9,59.7 898.3,58.9 898.7,58.2 899.2,57.5 899.8,56.8 900.4,56.2 901.1,55.6 901.8,55.1 902.5,54.7 903.3,54.3 904.1,54 905,53.8 905.8,53.6 906.7,53.6" />
<path stroke="#000000" stroke-width="2" d="M 936.7,70" />
<path stroke="#000000" stroke-width="2" d="M 936.7,70 936.9,70 936.9,70.2 936.7,70.2 936.7,70" />
<path stroke="#000000" stroke-width="2" d="M 943.6,70" />
<path stroke="#000000" stroke-width="2" d="M 943.6,30 945.3,30 947.1,30.2 948.8,30.5 950.5,30.9 952.1,31.5 953.7,32.2 955.2,33.1 956.6,34.1 958,35.2 959.2,36.5 960.3,37.8 961.3,39.2 962.2,40.7 962.9,42.3 963.5,44 964,45.7 964.3,47.4 964.4,49.1 964.4,50.9 964.3,52.6 964,54.3 963.5,56 962.9,57.6 962.2,59.2 961.3,60.7 960.3,62.2 959.2,63.5 958,64.7 956.6,65.8 955.2,66.8 953.7,67.7 952.1,68.5 950.5,69.1 948.8,69.5 947.1,69.8 945.3,70" />
<path stroke="#000000" stroke-width="2" d="M 971.1,70" />
<path stroke="#000000" stroke-width="2" d="M 971.1,20 971.1,40 976.7,34.3 996.7,34.3" />
<path stroke="#000000" stroke-width="2" d="M 1026.7,70" />
<path stroke="#000000" stroke-width="2" d="M 1026.7,70 1026.9,70 1026.9,70.2 1026.7,70.2 1026.7,70" />
<path stroke="#000000" stroke-width="2" d="M 1056.9,70" />
<path stroke="#000000" stroke-width="2" d="M 1056.9,40 1057.1,40 1057.1,40.2 1056.9,40.2 1056.9,40" />
<path stroke="#000000" stroke-width="2" d="M 1063.8,70" />
<path stroke="#000000" stroke-width="2" d="M 1065.8,50 1071.2,37.1 1071.3,36.7 1071.4,36.4 1071.5,36.1 1071.5,35.7 1071.5,35.4 1071.5,35 1071.5,34.7 1071.4,34.3 1071.3,34 1071.2,33.7 1071,33.4 1070.8,33.1 1070.6,32.8 1070.4,32.5 1070.1,32.3 1069.8,32.1 1069.5,31.9 1069.2,31.7 1068.9,31.6 1068.6,31.5 1068.2,31.4 1067.9,31.4 1067.5,31.4 1067.2,31.4 1066.9,31.4 1066.5,31.5 1066.2,31.6 1065.9,31.7 1065.5,31.9 1065.3,32.1 1065,32.3 1064.7,32.5 1064.5,32.8 1064.3,33.1 1064.1,33.4 1063.9,33.7 1063.8,34 1063.7,34.3 1063.6,34.7 1063.6,35 1063.5,35.4 1063.6,35.7 1063.6,36.1 1063.7,36.4 1063.8,36.7 1063.9,37.1 1064.1,37.4 1064.3,37.7 1064.5,37.9 1064.7,38.2 1065,38.4 1065.3,38.7 1065.5,38.8 1065.9,39 1066.2,39.1 1066.5,39.2 1066.9,39.3 1067.2,39.4 1067.5,39.4 1067.9,39.4 1080.8,34 1080.8,34.7 1080.9,35.4 1081,36.1 1081.2,36.8 1081.4,37.4 1081.7,38 1082.1,38.6 1082.5,39.2 1082.9,39.8 1083.4,40.2 1084,40.7 1084.5,41.1 1085.1,41.4 1085.8,41.7 1086.4,42 1087.1,42.2 1087.8,42.3 1088.5,42.3 1089.2,42.3 1089.9,42.3 1090.6,42.2 1091.2,42 1091.9,41.7 1092.5,41.4 1093.1,41.1 1093.7,40.7 1094.2,40.2 1094.7,39.8 1095.2,39.2 1095.6,38.6 1095.9,38 1096.2,37.4 1096.5,36.8 1096.6,36.1 1096.8,35.4 1096.8,34.7 1097.7,34.7 1098.6,34.8 1099.4,34.9 1100.3,35.2 1101.1,35.5 1101.9,35.8 1102.6,36.3 1103.3,36.8 1104,37.3 1104.6,37.9 1105.2,38.6 1105.7,39.3 1106.1,40.1 1106.5,40.9 1106.8,41.7 1107,42.5 1107.2,43.4 1107.2,44.3 1107.2,45.1 1107.2,46 1107,46.9 1106.8,47.7 1106.5,48.5 1106.1,49.3 1105.7,50.1 1105.2,50.8 1104.6,51.4 1104,52.1 1103.3,52.6 1102.6,53.1 1101.9,53.6 1101.1,53.9 1100.3,54.2 1099.4,54.5 1098.6,54.6 1097.7,54.7" />
<path stroke="#000000" stroke-width="2" d="M 1113.9,70" />
<path stroke="#000000" stroke-width="2" d="M 1113.9,20 1113.9,40 1113.9,34 1113.9,33.1 1114,32.3 1114.1,31.4 1114.4,30.6 1114.7,29.7 1115,28.9 1115.5,28.2 1116,27.5 1116.5,26.8 1117.1,26.2 1117.8,25.6 1118.5,25.1 1119.3,24.7 1120.1,24.3 1120.9,24 1121.7,23.8 1122.6,23.6 1123.5,23.6" />
<path stroke="#000000" stroke-width="2" d="M 1153.5,70" />
<path stroke="#000000" stroke-width="2" d="M 1163.5,30 1164,30 1164.5,30 1165,30.1 1165.5,30.3 1166,30.5 1166.5,30.7 1166.9,30.9 1167.4,31.2 1167.8,31.6 1168.1,31.9 1168.5,32.3 1168.8,32.8 1169,33.2 1169.3,33.7 1169.4,34.2 1169.6,34.7 1169.7,35.2 1169.7,35.7 1169.7,36.3 1169.7,36.8 1169.6,37.3 1169.4,37.8 1169.3,38.3 1169,38.8 1168.8,39.2 1168.5,39.6 1168.1,40 1167.8,40.4 1167.4,40.8 1166.9,41.1 1166.5,41.3 1166,41.5 1165.5,41.7 1165,41.9 1164.5,41.9 1164,42 1163.5,42 1162.9,41.9 1162.4,41.9 1161.9,41.7 1161.4,41.5 1161,41.3 1160.5,41.1 1160.1,40.8 1159.7,40.4 1159.3,40 1159,39.6 1158.7,39.2 1158.4,38.8 1158.2,38.3 1158,37.8 1157.9,37.3 1157.8,36.8 1157.7,36.3 1157.7,35.7 1157.8,35.2 1157.9,34.7 1158,34.2 1158.2,33.7 1158.4,33.2 1158.7,32.8 1159,32.3 1159.3,31.9 1159.7,31.6 1160.1,31.2 1160.5,30.9 1161,30.7 1161.4,30.5 1161.9,30.3 1162.4,30.1 1162.9,30 1163.5,30 1163.5,50 1155.8,68.5 1158.1,62.9 1158.4,62.1 1158.8,61.4 1159.3,60.6 1159.8,59.9 1160.4,59.3 1161.1,58.7 1161.8,58.2 1162.5,57.7 1163.3,57.3 1164.1,57 1164.9,56.7 1165.8,56.5" />
<path stroke="#000000" stroke-width="2" d="M 1199.7,70" />
<path stroke="#000000" stroke-width="2" d="M 1219.7,30 1204.4,67 1209,55.9 1209.7,54.3 1210.5,52.7 1211.4,51.2 1212.5,49.9 1213.7,48.6 1214.9,47.4 1216.3,46.3 1217.8,45.4 1219.3,44.6 1221,43.9 1222.6,43.4 1224.3,43" />
<path stroke="#000000" stroke-width="2" d="M 1231,70" />
<path stroke="#000000" stroke-width="2" d="M 1233,50 1238.3,37.1 1238.5,36.7 1238.6,36.4 1238.7,36.1 1238.7,35.7 1238.7,35.4 1238.7,35 1238.7,34.7 1238.6,34.3 1238.5,34 1238.3,33.7 1238.2,33.4 1238,33.1 1237.8,32.8 1237.6,32.5 1237.3,32.3 1237,32.1 1236.7,31.9 1236.4,31.7 1236.1,31.6 1235.8,31.5 1235.4,31.4 1235.1,31.4 1234.7,31.4 1234.4,31.4 1234,31.4 1233.7,31.5 1233.4,31.6 1233,31.7 1232.7,31.9 1232.4,32.1 1232.2,32.3 1231.9,32.5 1231.7,32.8 1231.4,33.1 1231.3,33.4 1231.1,33.7 1231,34 1230.9,34.3 1230.8,34.7 1230.7,35 1230.7,35.4 1230.7,35.7 1230.8,36.1 1230.9,36.4 1231,36.7 1231.1,37.1 1231.3,37.4 1231.4,37.7 1231.7,37.9 1231.9,38.2 1232.2,38.4 1232.4,38.7 1232.7,38.8 1233,39 1233.4,39.1 1233.7,39.2 1234,39.3 1234.4,39.4 1234.7,39.4 1235.1,39.4 1248,34 1248.9,34 1249.7,34.1 1250.6,34.2 1251.4,34.5 1252.3,34.8 1253.1,35.1 1253.8,35.6 1254.5,36.1 1255.2,36.6 1255.8,37.2 1256.4,37.9 1256.9,38.6 1257.3,39.4 1257.7,40.2 1258,41 1258.2,41.8 1258.4,42.7 1258.4,43.6 1258.4,44.4 1258.4,45.3 1258.2,46.2 1258,47 1257.7,47.8 1257.3,48.6 1256.9,49.4 1256.4,50.1 1255.8,50.7 1255.2,51.4 1254.5,51.9 1253.8,52.4 1253.1,52.9 1252.3,53.2 1251.4,53.5 1250.6,53.8 1249.7,53.9 1248.9,54" />
<path stroke="#000000" stroke-width="2" d="M 1288.4,70" />
<path stroke="#000000" stroke-width="2" d="M 1308.4,30 1293.1,67" />
<path stroke="#000000" stroke-width="2" d="M 1315.1,70" />
<path stroke="#000000" stroke-width="2" d="M 1315.1,50 1315.3,50 1315.3,50.2 1315.1,50.2 1315.1,50" />
<path stroke="#000000" stroke-width="2" d="M 1345.3,70" />
<path stroke="#000000" stroke-width="2" d="M 1345.3,30 1345.3,70 1345.3,58 1345.3,56.3 1345.5,54.5 1345.8,52.8 1346.2,51.1 1346.8,49.5 1347.5,47.9 1348.4,46.4 1349.4,45 1350.5,43.6 1351.8,42.4 1353.1,41.3 1354.5,40.3 1356,39.4 1357.6,38.7 1359.3,38.1 1361,37.6 1362.7,37.3 1364.4,37.1" />
<path stroke="#000000" stroke-width="2" d="M 1371.1,70" />
<path stroke="#000000" stroke-width="2" d="M 1371.1,40 1378.7,21.5 1386.4,40" />
<path stroke="#000000" stroke-width="2" d="M 1386.4,40 1388.4,39.9 1390,39.6 1391.3,39.1 1392.1,38.6 1392.7,37.9 1393,37.2 1393,36.4 1392.9,35.7 1392.5,35 1392,34.4 1391.4,33.9 1390.7,33.5 1390,33.3 1389.2,33.4 1388.5,33.7 1387.8,34.2 1387.2,35.1 1386.8,36.4 1386.5,38 1386.4,40 1386.4,55" />
<path stroke="#000000" stroke-width="2" d="M 1399.7,70" />
<path stroke="#000000" stroke-width="2" d="M 1399.7,50 1419.7,50" />
<path stroke="#000000" stroke-width="2" d="M 1449.7,70" />
</svg>