<svg xmlns="http://www.w3.org/2000/svg" width="233.64448321511108" height="126.27760382205884" style="fill:none; stroke-linecap:round;">
    <rect width="100%" height="100%" fill="#FFFFFF" />
<path stroke="#000000" stroke-width="2" d="M 550,75" />
<path stroke="#000000" stroke-width="2" d="M 20,30 60,30" />
<path stroke="#000000" stroke-width="2" d="M 66.7,70" />
<path stroke="#000000" stroke-width="2" d="M 66.7,30 66.7,34 66.7,34.5 66.7,35 66.8,35.6 66.9,36.1 67.1,36.6 67.3,37 67.6,37.5 67.9,37.9 68.2,38.3 68.6,38.7 69,39 69.4,39.3 69.9,39.6 70.4,39.8 70.9,40 71.4,40.1 71.9,40.2 72.4,40.3 72.9,40.3 73.4,40.2 74,40.1 74.5,40 75,39.8 75.4,39.6 75.9,39.3 76.3,39 76.7,38.7 77.1,38.3 77.4,37.9 77.7,37.5 78,37 78.2,36.6 78.4,36.1 78.5,35.6 78.6,35 78.7,34.5 78.7,29.5 78.7,49.5 68.8,59.4 78.7,69.3 71,87.8 78.7,106.3" />
<path stroke="#000000" stroke-width="2" d="M 85.3,70" />
<path stroke="#000000" stroke-width="2" d="M 85.3,20 85.3,40 85.3,34 85.3,33.1 85.4,32.3 85.5,31.4 85.8,30.6 86.1,29.7 86.4,28.9 86.9,28.2 87.4,27.5 87.9,26.8 88.6,26.2 89.2,25.6 89.9,25.1 90.7,24.7 91.5,24.3 92.3,24 93.1,23.8 94,23.6 94.9,23.6" />
<path stroke="#000000" stroke-width="2" d="M 101.5,70" />
<path stroke="#000000" stroke-width="2" d="M 101.5,20 101.7,20 101.7,20.2 101.5,20.2 101.5,20" />
<path stroke="#000000" stroke-width="2" d="M 131.7,70" />
<path stroke="#000000" stroke-width="2" d="M 131.7,30 147.1,67" />
<path stroke="#000000" stroke-width="2" d="M 153.7,70" />
<path stroke="#000000" stroke-width="2" d="M 163.7,50 162.8,50 162,50.1 161.1,50.2 160.3,50.5 159.5,50.8 158.7,51.1 157.9,51.6 157.2,52.1 156.5,52.6 155.9,53.2 155.3,53.9 154.8,54.6 154.4,55.4 154,56.2 153.7,57 153.5,57.8 153.4,58.7 153.3,59.6 153.3,60.4 153.4,61.3 153.5,62.2 153.7,63 154,63.8 154.4,64.6 154.8,65.4 155.3,66.1 155.9,66.7 156.5,67.4 157.2,67.9 157.9,68.4 158.7,68.9 159.5,69.2 160.3,69.5 161.1,69.8 162,69.9 162.8,70 182.8,70" />
<path stroke="#000000" stroke-width="2" d="M 212.8,70" />
<path stroke="#000000" stroke-width="2" d="M 212.8,30 212.8,62" />
<path stroke="#000000" stroke-width="2" d="M 212.8,70 213.6,70 213.6,70.8 212.8,70.8 212.8,70" />
<path stroke="#000000" stroke-width="2" d="M 243.6,70" />
</svg>