<svg xmlns="http://www.w3.org/2000/svg" width="1238.5705335059372" height="92.2836140246614" style="fill:none; stroke-linecap:round;">
    <rect width="100%" height="100%" fill="#FFFFFF" />
<path stroke="#000000" stroke-width="2" d="M 550,75" />
<path stroke="#000000" stroke-width="2" d="M 20,70 20.2,70 20.2,70.2 20,70.2 20,70" />
<path stroke="#000000" stroke-width="2" d="M 26.9,70" />
<path stroke="#000000" stroke-width="2" d="M 36.9,30 26.9,30 26.9,70 26.9,68.3 27,66.5 27.3,64.8 27.8,63.1 28.4,61.5 29.1,59.9 30,58.4 31,57 32.1,55.6 33.3,54.4 34.7,53.3 36.1,52.3 37.6,51.4 39.2,50.7 40.8,50.1 42.5,49.6 44.2,49.3 46,49.1" />
<path stroke="#000000" stroke-width="2" d="M 52.6,70" />
<path stroke="#000000" stroke-width="2" d="M 52.6,20 62.5,29.9 52.6,39.8 52.6,59.8 52.6,53.8 52.6,52.9 52.7,52.1 52.9,51.2 53.1,50.4 53.4,49.5 53.8,48.7 54.2,48 54.7,47.3 55.3,46.6 55.9,46 56.5,45.4 57.3,44.9 58,44.5 58.8,44.1 59.6,43.8 60.5,43.6 61.3,43.4 62.2,43.4" />
<path stroke="#000000" stroke-width="2" d="M 62.2,43.4 64.2,43.3 65.8,43 67.1,42.5 68,41.9 68.5,41.3 68.8,40.5 68.9,39.8 68.7,39.1 68.3,38.4 67.8,37.7 67.2,37.2 66.5,36.9 65.8,36.7 65,36.8 64.3,37 63.6,37.6 63.1,38.5 62.6,39.7 62.3,41.3 62.2,43.4 62.2,58.4" />
<path stroke="#000000" stroke-width="2" d="M 98.9,70" />
<path stroke="#000000" stroke-width="2" d="M 98.9,30 98.9,70 110.2,58.7" />
<path stroke="#000000" stroke-width="2" d="M 116.8,70" />
<path stroke="#000000" stroke-width="2" d="M 136.8,70 138.6,70 140.3,69.8 142,69.5 143.7,69.1 145.4,68.5 146.9,67.8 148.4,66.9 149.9,65.9 151.2,64.8 152.4,63.5 153.6,62.2 154.6,60.8 155.4,59.3 156.2,57.7 156.8,56 157.2,54.3 157.5,52.6 157.7,50.9 157.7,49.1 157.5,47.4 157.2,45.7 156.8,44 156.2,42.4 155.4,40.8 154.6,39.3 153.6,37.8 152.4,36.5 151.2,35.3 149.9,34.2 148.4,33.2 146.9,32.3 145.4,31.5 143.7,30.9 142,30.5 140.3,30.2 138.6,30 136.8,30 135.1,30.2 133.4,30.5 131.7,30.9 130,31.5 128.5,32.3 127,33.2 125.5,34.2 124.2,35.3 123,36.5 121.8,37.8 120.8,39.3 120,40.8 119.2,42.4 118.6,44 118.2,45.7 117.9,47.4 117.7,49.1 117.7,50.9 117.9,52.6 118.2,54.3 118.6,56 119.2,57.7 120,59.3 120.8,60.8 121.8,62.2 123,63.5 124.2,64.8 125.5,65.9 127,66.9 128.5,67.8 130,68.5 131.7,69.1 133.4,69.5 135.1,69.8 136.8,70" />
<path stroke="#000000" stroke-width="2" d="M 187.7,70" />
<path stroke="#000000" stroke-width="2" d="M 187.7,40" />
<path stroke="#000000" stroke-width="2" d="M 187.7,40 191.7,39.8 195,39.2 197.4,38.3 199.2,37.1 200.3,35.8 200.9,34.3 201,32.8 200.6,31.4 199.9,30 198.9,28.8 197.7,27.7 196.3,27 194.9,26.7 193.4,26.8 191.9,27.3 190.6,28.5 189.4,30.2 188.5,32.7 187.9,35.9 187.7,40 187.7,70" />
<path stroke="#000000" stroke-width="2" d="M 207.7,70" />
<path stroke="#000000" stroke-width="2" d="M 247.7,30 208.1,69.6" />
<path stroke="#000000" stroke-width="2" d="M 208.1,29.6 247.7,69.2" />
<path stroke="#000000" stroke-width="2" d="M 277.7,70" />
<path stroke="#000000" stroke-width="2" d="M 277.7,50 285.3,31.5 293,50" />
<path stroke="#000000" stroke-width="2" d="M 293,50 292.9,52 292.6,53.6 292.1,54.9 291.5,55.8 290.9,56.3 290.1,56.6 289.4,56.7 288.6,56.5 288,56.1 287.3,55.6 286.8,55 286.5,54.3 286.3,53.6 286.4,52.8 286.6,52.1 287.2,51.4 288.1,50.9 289.3,50.4 290.9,50.1 293,50 303,50" />
<path stroke="#000000" stroke-width="2" d="M 309.6,70" />
<path stroke="#000000" stroke-width="2" d="M 309.6,20 329.6,20" />
<path stroke="#000000" stroke-width="2" d="M 329.6,20 331.1,20.1 332.3,20.6 333.5,21.2 334.4,22.1 335.3,23.1 335.9,24.3 336.5,25.6 336.8,27 337.1,28.5 337.1,30 337.1,31.5 336.8,33 336.5,34.4 335.9,35.7 335.3,36.9 334.4,37.9 333.5,38.8 332.3,39.4 331.1,39.9 329.6,40" />
<path stroke="#000000" stroke-width="2" d="M 343.8,70" />
<path stroke="#000000" stroke-width="2" d="M 353.8,20 353.8,40 343.8,40" />
<path stroke="#000000" stroke-width="2" d="M 360.5,70" />
<path stroke="#000000" stroke-width="2" d="M 360.5,25" />
<path stroke="#000000" stroke-width="2" d="M 360.5,25 362.5,24.9 364.1,24.6 365.3,24.1 366.2,23.6 366.8,22.9 367.1,22.2 367.1,21.4 366.9,20.7 366.6,20 366.1,19.4 365.5,18.9 364.8,18.5 364.1,18.3 363.3,18.4 362.6,18.7 361.9,19.2 361.3,20.1 360.9,21.4 360.6,23 360.5,25 360.5,40" />
<path stroke="#000000" stroke-width="2" d="M 397.1,70" />
<path stroke="#000000" stroke-width="2" d="M 397.1,70 408.6,42.3" />
<path stroke="#000000" stroke-width="2" d="M 408.6,42.3 412.7,42.1 415.9,41.5 418.4,40.6 420.1,39.4 421.3,38.1 421.8,36.6 421.9,35.1 421.6,33.6 420.9,32.3 419.9,31 418.6,30 417.2,29.3 415.8,29 414.3,29.1 412.8,29.6 411.5,30.8 410.3,32.5 409.4,35 408.8,38.2 408.6,42.3 408.6,72.3" />
<path stroke="#000000" stroke-width="2" d="M 451.9,70" />
<path stroke="#000000" stroke-width="2" d="M 467.9,30 448.1,49.8 467.9,69.6" />
<path stroke="#000000" stroke-width="2" d="M 474.6,70" />
<path stroke="#000000" stroke-width="2" d="M 474.6,50 482.2,68.5" />
<path stroke="#000000" stroke-width="2" d="M 488.9,70" />
<path stroke="#000000" stroke-width="2" d="M 488.9,20 508.9,20" />
<path stroke="#000000" stroke-width="2" d="M 508.9,20 510.9,19.9 512.5,19.6 513.8,19.1 514.7,18.6 515.2,17.9 515.5,17.2 515.6,16.4 515.4,15.7 515,15 514.5,14.4 513.9,13.9 513.2,13.5 512.5,13.3 511.7,13.4 511,13.7 510.3,14.2 509.8,15.1 509.3,16.4 509,18 508.9,20 508.9,35" />
<path stroke="#000000" stroke-width="2" d="M 545.6,70" />
<path stroke="#000000" stroke-width="2" d="M 545.6,30 545.6,70" />
<path stroke="#000000" stroke-width="2" d="M 552.2,70" />
<path stroke="#000000" stroke-width="2" d="M 562.2,50 554.6,68.5" />
<path stroke="#000000" stroke-width="2" d="M 592.2,70" />
<path stroke="#000000" stroke-width="2" d="M 612.2,70 614,70 615.7,69.8 617.4,69.5 619.1,69.1 620.7,68.5 622.3,67.8 623.8,66.9 625.3,65.9 626.6,64.8 627.8,63.5 629,62.2 630,60.8 630.8,59.3 631.6,57.7 632.2,56 632.6,54.3 632.9,52.6 633.1,50.9 633.1,49.1 632.9,47.4 632.6,45.7 632.2,44 631.6,42.4 630.8,40.8 630,39.3 629,37.8 627.8,36.5 626.6,35.3 625.3,34.2 623.8,33.2 622.3,32.3 620.7,31.5 619.1,30.9 617.4,30.5 615.7,30.2 614,30 612.2,30 610.5,30.2 608.8,30.5 607.1,30.9 605.4,31.5 603.9,32.3 602.3,33.2 600.9,34.2 599.6,35.3 598.3,36.5 597.2,37.8 596.2,39.3 595.4,40.8 594.6,42.4 594,44 593.6,45.7 593.3,47.4 593.1,49.1 593.1,50.9 593.3,52.6 593.6,54.3 594,56 594.6,57.7 595.4,59.3 596.2,60.8 597.2,62.2 598.3,63.5 599.6,64.8 600.9,65.9 602.3,66.9 603.9,67.8 605.4,68.5 607.1,69.1 608.8,69.5 610.5,69.8 612.2,70" />
<path stroke="#000000" stroke-width="2" d="M 639.7,70" />
<path stroke="#000000" stroke-width="2" d="M 649.7,20 642.1,38.5" />
<path stroke="#000000" stroke-width="2" d="M 679.7,70" />
<path stroke="#000000" stroke-width="2" d="M 679.7,30" />
<path stroke="#000000" stroke-width="2" d="M 679.7,30 682.6,30.3 685.1,31.1 687.4,32.4 689.3,34.2 691,36.2 692.3,38.6 693.4,41.3 694.1,44.1 694.6,47 694.7,50 694.6,53 694.1,55.9 693.4,58.7 692.3,61.4 691,63.8 689.3,65.8 687.4,67.6 685.1,68.9 682.6,69.7 679.7,70" />
<path stroke="#000000" stroke-width="2" d="M 701.4,70" />
<path stroke="#000000" stroke-width="2" d="M 701.4,30" />
<path stroke="#000000" stroke-width="2" d="M 701.4,30 702.8,30.1 704.1,30.6 705.2,31.2 706.2,32.1 707,33.1 707.7,34.3 708.2,35.6 708.6,37 708.8,38.5 708.9,40 708.8,41.5 708.6,43 708.2,44.4 707.7,45.7 707,46.9 706.2,47.9 705.2,48.8 704.1,49.4 702.8,49.9 701.4,50 721.4,50 713.8,68.5" />
<path stroke="#000000" stroke-width="2" d="M 751.4,70" />
<path stroke="#000000" stroke-width="2" d="M 751.4,30 766.7,67" />
<path stroke="#000000" stroke-width="2" d="M 773.4,70" />
<path stroke="#000000" stroke-width="2" d="M 783.4,20 775.7,38.5 778,32.9 778.4,32.1 778.8,31.4 779.2,30.6 779.8,29.9 780.3,29.3 781,28.7 781.7,28.2 782.4,27.7 783.2,27.3 784,27 784.8,26.7 785.7,26.5" />
<path stroke="#000000" stroke-width="2" d="M 815.7,70" />
<path stroke="#000000" stroke-width="2" d="M 815.7,70 815.9,70 815.9,70.2 815.7,70.2 815.7,70" />
<path stroke="#000000" stroke-width="2" d="M 845.9,70" />
<path stroke="#000000" stroke-width="2" d="M 861.9,30 842.1,49.8 861.9,69.6" />
<path stroke="#000000" stroke-width="2" d="M 868.5,70" />
<path stroke="#000000" stroke-width="2" d="M 868.5,20 888.5,20" />
<path stroke="#000000" stroke-width="2" d="M 895.2,70" />
<path stroke="#000000" stroke-width="2" d="M 895.2,20 895.4,20 895.4,20.2 895.2,20.2 895.2,20" />
<path stroke="#000000" stroke-width="2" d="M 925.4,70" />
<path stroke="#000000" stroke-width="2" d="M 941.4,30 921.6,49.8 941.4,69.6" />
<path stroke="#000000" stroke-width="2" d="M 948.1,70" />
<path stroke="#000000" stroke-width="2" d="M 948.1,20" />
<path stroke="#000000" stroke-width="2" d="M 948.1,20 949.5,20.1 950.8,20.6 951.9,21.2 952.9,22.1 953.7,23.1 954.4,24.3 954.9,25.6 955.3,27 955.5,28.5 955.6,30 955.5,31.5 955.3,33 954.9,34.4 954.4,35.7 953.7,36.9 952.9,37.9 951.9,38.8 950.8,39.4 949.5,39.9 948.1,40" />
<path stroke="#000000" stroke-width="2" d="M 985.6,70" />
<path stroke="#000000" stroke-width="2" d="M 985.6,30 985.6,70 985.6,58 985.6,56.3 985.7,54.5 986,52.8 986.5,51.1 987.1,49.5 987.8,47.9 988.7,46.4 989.7,45 990.8,43.6 992.1,42.4 993.4,41.3 994.8,40.3 996.3,39.4 997.9,38.7 999.5,38.1 1001.2,37.6 1003,37.3 1004.7,37.1" />
<path stroke="#000000" stroke-width="2" d="M 1011.4,70" />
<path stroke="#000000" stroke-width="2" d="M 1021.4,30 1013.7,48.5 1033.7,48.5" />
<path stroke="#000000" stroke-width="2" d="M 1063.7,70" />
<path stroke="#000000" stroke-width="2" d="M 1063.7,70 1063.9,70 1063.9,70.2 1063.7,70.2 1063.7,70" />
<path stroke="#000000" stroke-width="2" d="M 1070.6,70" />
<path stroke="#000000" stroke-width="2" d="M 1070.6,30" />
<path stroke="#000000" stroke-width="2" d="M 1070.6,30 1073.4,30.3 1076,31.1 1078.2,32.4 1080.2,34.2 1081.8,36.2 1083.2,38.6 1084.2,41.3 1085,44.1 1085.4,47 1085.6,50 1085.4,53 1085,55.9 1084.2,58.7 1083.2,61.4 1081.8,63.8 1080.2,65.8 1078.2,67.6 1076,68.9 1073.4,69.7 1070.6,70" />
<path stroke="#000000" stroke-width="2" d="M 1092.2,70" />
<path stroke="#000000" stroke-width="2" d="M 1092.2,20 1097.2,20 1097.2,40" />
<path stroke="#000000" stroke-width="2" d="M 1103.9,70" />
<path stroke="#000000" stroke-width="2" d="M 1103.9,30 1143.9,30" />
<path stroke="#000000" stroke-width="2" d="M 1150.6,70" />
<path stroke="#000000" stroke-width="2" d="M 1158.6,30 1158.6,45" />
<path stroke="#000000" stroke-width="2" d="M 1158.6,45 1158.5,47 1158.2,48.6 1157.7,49.9 1157.1,50.8 1156.5,51.3 1155.7,51.6 1155,51.7 1154.3,51.5 1153.6,51.1 1152.9,50.6 1152.4,50 1152.1,49.3 1151.9,48.6 1152,47.8 1152.2,47.1 1152.8,46.4 1153.7,45.9 1154.9,45.4 1156.5,45.1 1158.6,45 1178.6,45" />
<path stroke="#000000" stroke-width="2" d="M 1208.6,70" />
<path stroke="#000000" stroke-width="2" d="M 1213.6,30" />
<path stroke="#000000" stroke-width="2" d="M 1213.6,30 1212.1,30.1 1210.9,30.6 1209.7,31.2 1208.8,32.1 1207.9,33.1 1207.3,34.3 1206.7,35.6 1206.4,37 1206.1,38.5 1206.1,40 1206.1,41.5 1206.4,43 1206.7,44.4 1207.3,45.7 1207.9,46.9 1208.8,47.9 1209.7,48.8 1210.9,49.4 1212.1,49.9 1213.6,50 1218.6,50 1218.6,70" />
<path stroke="#000000" stroke-width="2" d="M 1248.6,70" />
</svg>