<svg xmlns="http://www.w3.org/2000/svg" width="1719.8106501472641" height="90.2" style="fill:none; stroke-linecap:round;">
    <rect width="100%" height="100%" fill="#FFFFFF" />
<path stroke="#000000" stroke-width="2" d="M 550,75" />
<path stroke="#000000" stroke-width="2" d="M 20,30 35.3,67" />
<path stroke="#000000" stroke-width="2" d="M 42,70" />
<path stroke="#000000" stroke-width="2" d="M 52,20 44.3,38.5" />
<path stroke="#000000" stroke-width="2" d="M 82,70" />
<path stroke="#000000" stroke-width="2" d="M 82,30 82,70 93.3,58.7" />
<path stroke="#000000" stroke-width="2" d="M 100,70" />
<path stroke="#000000" stroke-width="2" d="M 110,30 102.3,48.5 92.4,58.4 102.3,68.3" />
<path stroke="#000000" stroke-width="2" d="M 140,70" />
<path stroke="#000000" stroke-width="2" d="M 140,30 150,30 150,70" />
<path stroke="#000000" stroke-width="2" d="M 156.6,70" />
<path stroke="#000000" stroke-width="2" d="M 156.6,50 156.6,70 156.6,64 156.6,63.1 156.7,62.3 156.8,61.4 157.1,60.6 157.4,59.7 157.7,58.9 158.2,58.2 158.7,57.5 159.2,56.8 159.9,56.2 160.5,55.6 161.2,55.1 162,54.7 162.8,54.3 163.6,54 164.4,53.8 165.3,53.6 166.2,53.6" />
<path stroke="#000000" stroke-width="2" d="M 196.2,70" />
<path stroke="#000000" stroke-width="2" d="M 206.2,30 198.5,48.5 198.5,68.5 204.2,62.8" />
<path stroke="#000000" stroke-width="2" d="M 212.8,70" />
<path stroke="#000000" stroke-width="2" d="M 212.8,20 232.8,20 225.2,38.5" />
<path stroke="#000000" stroke-width="2" d="M 239.5,70" />
<path stroke="#000000" stroke-width="2" d="M 239.5,30 239.7,30 239.7,30.2 239.5,30.2 239.5,30" />
<path stroke="#000000" stroke-width="2" d="M 269.7,70" />
<path stroke="#000000" stroke-width="2" d="M 279.7,30 278.8,30 278,30.1 277.1,30.2 276.3,30.5 275.4,30.8 274.7,31.1 273.9,31.6 273.2,32.1 272.5,32.6 271.9,33.2 271.3,33.9 270.8,34.6 270.4,35.4 270,36.2 269.7,37 269.5,37.8 269.4,38.7 269.3,39.6 269.3,40.4 269.4,41.3 269.5,42.2 269.7,43 270,43.8 270.4,44.6 270.8,45.4 271.3,46.1 271.9,46.7 272.5,47.4 273.2,47.9 273.9,48.4 274.7,48.9 275.4,49.2 276.3,49.5 277.1,49.8 278,49.9 278.8,50 298.8,50" />
<path stroke="#000000" stroke-width="2" d="M 328.8,70" />
<path stroke="#000000" stroke-width="2" d="M 344.8,30" />
<path stroke="#000000" stroke-width="2" d="M 344.8,30 344.6,34.1 344,37.3 343.1,39.8 342,41.5 340.6,42.7 339.2,43.2 337.7,43.3 336.2,43 334.8,42.3 333.6,41.2 332.6,40 331.9,38.6 331.5,37.2 331.6,35.7 332.2,34.2 333.3,32.9 335.1,31.7 337.5,30.8 340.8,30.2 344.8,30 364.8,30" />
<path stroke="#000000" stroke-width="2" d="M 394.8,70" />
<path stroke="#000000" stroke-width="2" d="M 394.8,30 410.1,67" />
<path stroke="#000000" stroke-width="2" d="M 440.1,70" />
<path stroke="#000000" stroke-width="2" d="M 440.1,70 440.3,70 440.3,70.2 440.1,70.2 440.1,70" />
<path stroke="#000000" stroke-width="2" d="M 470.3,70" />
<path stroke="#000000" stroke-width="2" d="M 480.3,30 479.5,30 478.6,30.1 477.7,30.2 476.9,30.5 476.1,30.8 475.3,31.1 474.5,31.6 473.8,32.1 473.2,32.6 472.5,33.2 472,33.9 471.5,34.6 471,35.4 470.7,36.2 470.4,37 470.1,37.8 470,38.7 469.9,39.6 469.9,40.4 470,41.3 470.1,42.2 470.4,43 470.7,43.8 471,44.6 471.5,45.4 472,46.1 472.5,46.7 473.2,47.4 473.8,47.9 474.5,48.4 475.3,48.9 476.1,49.2 476.9,49.5 477.7,49.8 478.6,49.9 479.5,50 499.5,50" />
<path stroke="#000000" stroke-width="2" d="M 529.5,70" />
<path stroke="#000000" stroke-width="2" d="M 539.5,30 538.6,30 537.7,30.1 536.9,30.2 536,30.5 535.2,30.8 534.4,31.1 533.7,31.6 532.9,32.1 532.3,32.6 531.7,33.2 531.1,33.9 530.6,34.6 530.2,35.4 529.8,36.2 529.5,37 529.3,37.8 529.1,38.7 529,39.6 529,40.4 529.1,41.3 529.3,42.2 529.5,43 529.8,43.8 530.2,44.6 530.6,45.4 531.1,46.1 531.7,46.7 532.3,47.4 532.9,47.9 533.7,48.4 534.4,48.9 535.2,49.2 536,49.5 536.9,49.8 537.7,49.9 538.6,50 543.6,50 543.6,70" />
<path stroke="#000000" stroke-width="2" d="M 573.6,70" />
<path stroke="#000000" stroke-width="2" d="M 573.6,70 573.8,70 573.8,70.2 573.6,70.2 573.6,70" />
<path stroke="#000000" stroke-width="2" d="M 580.5,70" />
<path stroke="#000000" stroke-width="2" d="M 580.5,30 590.5,30 590.5,70" />
<path stroke="#000000" stroke-width="2" d="M 597.1,70" />
<path stroke="#000000" stroke-width="2" d="M 597.1,30 597.1,50 597.1,44 597.1,43.1 597.2,42.3 597.4,41.4 597.6,40.6 597.9,39.7 598.3,38.9 598.7,38.2 599.2,37.5 599.7,36.8 600.4,36.2 601,35.6 601.7,35.1 602.5,34.7 603.3,34.3 604.1,34 605,33.8 605.8,33.6 606.7,33.6" />
<path stroke="#000000" stroke-width="2" d="M 606.7,33.6 608.7,33.5 610.3,33.2 611.6,32.7 612.4,32.1 613,31.5 613.3,30.7 613.3,30 613.2,29.3 612.8,28.6 612.3,27.9 611.7,27.4 611,27.1 610.3,26.9 609.5,27 608.8,27.2 608.1,27.8 607.5,28.7 607.1,29.9 606.8,31.5 606.7,33.6 606.7,48.6 599,67.1" />
<path stroke="#000000" stroke-width="2" d="M 643.3,70" />
<path stroke="#000000" stroke-width="2" d="M 655.3,36" />
<path stroke="#000000" stroke-width="2" d="M 655.3,36 653.3,35.9 651.7,35.6 650.5,35.1 649.6,34.6 649,33.9 648.7,33.2 648.7,32.4 648.9,31.7 649.2,31 649.7,30.4 650.3,29.9 651,29.5 651.8,29.3 652.5,29.4 653.2,29.7 653.9,30.2 654.5,31.1 654.9,32.4 655.2,34 655.3,36 655.3,40" />
<path stroke="#000000" stroke-width="2" d="M 655.3,40 655,40.9 654.7,41.7 654.3,42.4 653.9,43.1 653.5,43.8 653.1,44.4 652.6,44.9 652.1,45.4 651.6,45.9 651.1,46.2 650.6,46.6 650,46.9 649.5,47.2 648.9,47.4 648.3,47.6 647.7,47.7 647.1,47.9 646.5,47.9 645.9,48 645.3,48" />
<path stroke="#000000" stroke-width="2" d="M 645.3,48 647.4,47.9 649,47.6 650.2,47.1 651.1,46.6 651.7,45.9 652,45.2 652,44.4 651.8,43.7 651.5,43 651,42.4 650.4,41.9 649.7,41.5 648.9,41.3 648.2,41.4 647.5,41.7 646.8,42.2 646.2,43.1 645.7,44.4 645.4,46 645.3,48 645.3,63" />
<path stroke="#000000" stroke-width="2" d="M 685.3,70" />
<path stroke="#000000" stroke-width="2" d="M 685.3,30 685.3,70 705.3,70" />
<path stroke="#000000" stroke-width="2" d="M 735.3,70" />
<path stroke="#000000" stroke-width="2" d="M 735.3,30" />
<path stroke="#000000" stroke-width="2" d="M 735.3,30 738.2,30.3 740.7,31.1 743,32.4 744.9,34.2 746.6,36.2 747.9,38.6 749,41.3 749.7,44.1 750.2,47 750.3,50 750.2,53 749.7,55.9 749,58.7 747.9,61.4 746.6,63.8 744.9,65.8 743,67.6 740.7,68.9 738.2,69.7 735.3,70" />
<path stroke="#000000" stroke-width="2" d="M 757,70" />
<path stroke="#000000" stroke-width="2" d="M 757,30" />
<path stroke="#000000" stroke-width="2" d="M 757,30 759.9,30.3 762.4,31.1 764.7,32.4 766.6,34.2 768.3,36.2 769.6,38.6 770.7,41.3 771.4,44.1 771.9,47 772,50 771.9,53 771.4,55.9 770.7,58.7 769.6,61.4 768.3,63.8 766.6,65.8 764.7,67.6 762.4,68.9 759.9,69.7 757,70" />
<path stroke="#000000" stroke-width="2" d="M 802,70" />
<path stroke="#000000" stroke-width="2" d="M 802,30 802,70 813.3,58.7" />
<path stroke="#000000" stroke-width="2" d="M 820,70" />
<path stroke="#000000" stroke-width="2" d="M 820,25" />
<path stroke="#000000" stroke-width="2" d="M 820,25 822,24.9 823.6,24.6 824.9,24.1 825.7,23.6 826.3,22.9 826.6,22.2 826.6,21.4 826.5,20.7 826.1,20 825.6,19.4 825,18.9 824.3,18.5 823.6,18.3 822.8,18.4 822.1,18.7 821.4,19.2 820.8,20.1 820.4,21.4 820.1,23 820,25 820,40" />
<path stroke="#000000" stroke-width="2" d="M 856.6,70" />
<path stroke="#000000" stroke-width="2" d="M 856.6,50 862.4,36.1" />
<path stroke="#000000" stroke-width="2" d="M 862.4,36.1 864.4,36 866,35.7 867.3,35.3 868.1,34.7 868.7,34 869,33.3 869,32.6 868.9,31.8 868.5,31.1 868,30.5 867.4,30 866.7,29.7 866,29.5 865.2,29.5 864.5,29.8 863.8,30.4 863.2,31.3 862.8,32.5 862.5,34.1 862.4,36.1 862.4,51.1 862.4,50.4 862.4,49.7 862.6,49.1 862.7,48.4 863,47.7 863.3,47.1 863.6,46.5 864,45.9 864.5,45.4 865,44.9 865.5,44.4 866.1,44 866.7,43.7 867.3,43.4 868,43.2 868.6,43 869.3,42.9 870,42.8 870.7,42.8 871.4,42.9 872.1,43 872.8,43.2 873.4,43.4 874.1,43.7 874.7,44 875.2,44.4 875.8,44.9 876.3,45.4 876.7,45.9 877.1,46.5 877.5,47.1 877.8,47.7 878,48.4 878.2,49.1 878.3,49.7 878.4,50.4" />
<path stroke="#000000" stroke-width="2" d="M 908.4,70" />
<path stroke="#000000" stroke-width="2" d="M 908.4,40 908.6,40 908.6,40.2 908.4,40.2 908.4,40" />
<path stroke="#000000" stroke-width="2" d="M 915.2,70" />
<path stroke="#000000" stroke-width="2" d="M 915.2,30 955.2,30" />
<path stroke="#000000" stroke-width="2" d="M 961.9,70" />
<path stroke="#000000" stroke-width="2" d="M 961.9,50 961.9,70 961.9,64 961.9,63.1 962,62.3 962.1,61.4 962.4,60.6 962.7,59.7 963,58.9 963.5,58.2 964,57.5 964.5,56.8 965.1,56.2 965.8,55.6 966.5,55.1 967.3,54.7 968.1,54.3 968.9,54 969.7,53.8 970.6,53.6 971.5,53.6" />
<path stroke="#000000" stroke-width="2" d="M 971.5,53.6 973.5,53.5 975.1,53.2 976.3,52.7 977.2,52.1 977.8,51.5 978.1,50.7 978.1,50 977.9,49.3 977.6,48.6 977.1,47.9 976.5,47.4 975.8,47.1 975,46.9 974.3,47 973.6,47.2 972.9,47.8 972.3,48.7 971.9,49.9 971.6,51.5 971.5,53.6 971.5,68.6" />
<path stroke="#000000" stroke-width="2" d="M 1008.1,70" />
<path stroke="#000000" stroke-width="2" d="M 1008.1,30 1008.1,70 1019.4,58.7" />
<path stroke="#000000" stroke-width="2" d="M 1026.1,70" />
<path stroke="#000000" stroke-width="2" d="M 1026.1,20 1046.1,20" />
<path stroke="#000000" stroke-width="2" d="M 1076.1,70" />
<path stroke="#000000" stroke-width="2" d="M 1116.1,30 1076.5,69.6" />
<path stroke="#000000" stroke-width="2" d="M 1076.5,29.6 1116.1,69.2" />
<path stroke="#000000" stroke-width="2" d="M 1122.8,70" />
<path stroke="#000000" stroke-width="2" d="M 1122.8,40 1122.8,39.3 1122.8,38.6 1122.9,37.9 1123.1,37.2 1123.4,36.6 1123.7,36 1124,35.4 1124.4,34.8 1124.9,34.2 1125.3,33.8 1125.9,33.3 1126.5,32.9 1127.1,32.6 1127.7,32.3 1128.3,32 1129,31.8 1129.7,31.7 1130.4,31.7 1131.1,31.7 1131.8,31.7 1132.5,31.8 1133.2,32 1133.8,32.3 1134.4,32.6 1135,32.9 1135.6,33.3 1136.2,33.8 1136.6,34.2 1137.1,34.8 1137.5,35.4 1137.8,36 1138.1,36.6 1138.4,37.2 1138.6,37.9 1138.7,38.6 1138.7,39.3 1131.1,57.8 1131.1,58.5 1131.1,59.2 1131.3,59.9 1131.5,60.5 1131.7,61.2 1132,61.8 1132.3,62.4 1132.7,63 1133.2,63.5 1133.7,64 1134.2,64.5 1134.8,64.9 1135.4,65.2 1136,65.5 1136.7,65.8 1137.3,65.9 1138,66.1 1138.7,66.1 1139.4,66.1 1140.1,66.1 1140.8,65.9 1141.5,65.8 1142.1,65.5 1142.8,65.2 1143.4,64.9 1143.9,64.5 1144.5,64 1145,63.5 1145.4,63 1145.8,62.4 1146.2,61.8 1146.5,61.2 1146.7,60.5 1146.9,59.9 1147,59.2 1147.1,58.5" />
<path stroke="#000000" stroke-width="2" d="M 1153.7,70" />
<path stroke="#000000" stroke-width="2" d="M 1153.7,30 1153.9,30 1153.9,30.2 1153.7,30.2 1153.7,30" />
<path stroke="#000000" stroke-width="2" d="M 1183.9,70" />
<path stroke="#000000" stroke-width="2" d="M 1183.9,30 1183.9,70 1203.9,70" />
<path stroke="#000000" stroke-width="2" d="M 1233.9,70" />
<path stroke="#000000" stroke-width="2" d="M 1233.9,30" />
<path stroke="#000000" stroke-width="2" d="M 1233.9,30 1236.8,30.3 1239.3,31.1 1241.6,32.4 1243.5,34.2 1245.2,36.2 1246.5,38.6 1247.6,41.3 1248.3,44.1 1248.8,47 1248.9,50 1248.8,53 1248.3,55.9 1247.6,58.7 1246.5,61.4 1245.2,63.8 1243.5,65.8 1241.6,67.6 1239.3,68.9 1236.8,69.7 1233.9,70" />
<path stroke="#000000" stroke-width="2" d="M 1255.6,70" />
<path stroke="#000000" stroke-width="2" d="M 1255.6,30" />
<path stroke="#000000" stroke-width="2" d="M 1255.6,30 1258.5,30.3 1261,31.1 1263.3,32.4 1265.2,34.2 1266.9,36.2 1268.2,38.6 1269.3,41.3 1270,44.1 1270.5,47 1270.6,50 1270.5,53 1270,55.9 1269.3,58.7 1268.2,61.4 1266.9,63.8 1265.2,65.8 1263.3,67.6 1261,68.9 1258.5,69.7 1255.6,70" />
<path stroke="#000000" stroke-width="2" d="M 1300.6,70" />
<path stroke="#000000" stroke-width="2" d="M 1300.6,70 1300.8,70 1300.8,70.2 1300.6,70.2 1300.6,70" />
<path stroke="#000000" stroke-width="2" d="M 1330.8,70" />
<path stroke="#000000" stroke-width="2" d="M 1330.8,30 1340.8,30 1340.8,70" />
<path stroke="#000000" stroke-width="2" d="M 1347.5,70" />
<path stroke="#000000" stroke-width="2" d="M 1347.5,50 1347.5,70 1347.5,64 1347.5,63.1 1347.5,62.3 1347.7,61.4 1347.9,60.6 1348.2,59.7 1348.6,58.9 1349,58.2 1349.5,57.5 1350.1,56.8 1350.7,56.2 1351.4,55.6 1352.1,55.1 1352.8,54.7 1353.6,54.3 1354.5,54 1355.3,53.8 1356.2,53.6 1357,53.6" />
<path stroke="#000000" stroke-width="2" d="M 1387,70" />
<path stroke="#000000" stroke-width="2" d="M 1387,40" />
<path stroke="#000000" stroke-width="2" d="M 1387,40 1391.1,39.8 1394.3,39.2 1396.8,38.3 1398.5,37.1 1399.7,35.8 1400.3,34.3 1400.3,32.8 1400,31.4 1399.3,30 1398.3,28.8 1397.1,27.7 1395.7,27 1394.2,26.7 1392.7,26.8 1391.2,27.3 1389.9,28.5 1388.7,30.2 1387.8,32.7 1387.2,35.9 1387,40 1387,70" />
<path stroke="#000000" stroke-width="2" d="M 1407,70" />
<path stroke="#000000" stroke-width="2" d="M 1427,30 1407.2,49.8" />
<path stroke="#000000" stroke-width="2" d="M 1407.2,29.8 1427,49.6 1419.3,68.1" />
<path stroke="#000000" stroke-width="2" d="M 1433.7,70" />
<path stroke="#000000" stroke-width="2" d="M 1433.7,20 1453.7,20" />
<path stroke="#000000" stroke-width="2" d="M 1483.7,70" />
<path stroke="#000000" stroke-width="2" d="M 1499.7,30" />
<path stroke="#000000" stroke-width="2" d="M 1499.7,30 1499.5,34.1 1498.9,37.3 1497.9,39.8 1496.8,41.5 1495.4,42.7 1494,43.2 1492.5,43.3 1491,43 1489.6,42.3 1488.4,41.2 1487.4,40 1486.7,38.6 1486.4,37.2 1486.4,35.7 1487,34.2 1488.1,32.9 1489.9,31.7 1492.4,30.8 1495.6,30.2 1499.7,30 1519.7,30" />
<path stroke="#000000" stroke-width="2" d="M 1549.7,70" />
<path stroke="#000000" stroke-width="2" d="M 1549.7,30 1565,67" />
<path stroke="#000000" stroke-width="2" d="M 1595,70" />
<path stroke="#000000" stroke-width="2" d="M 1595,70 1595.2,70 1595.2,70.2 1595,70.2 1595,70" />
<path stroke="#000000" stroke-width="2" d="M 1625.2,70" />
<path stroke="#000000" stroke-width="2" d="M 1625.2,30 1625.2,70 1645.2,70" />
<path stroke="#000000" stroke-width="2" d="M 1675.2,70" />
<path stroke="#000000" stroke-width="2" d="M 1675.2,30 1675.2,70 1686.5,58.7" />
<path stroke="#000000" stroke-width="2" d="M 1693.2,70" />
<path stroke="#000000" stroke-width="2" d="M 1693.2,25" />
<path stroke="#000000" stroke-width="2" d="M 1693.2,25 1695.2,24.9 1696.8,24.6 1698,24.1 1698.9,23.6 1699.5,22.9 1699.8,22.2 1699.8,21.4 1699.6,20.7 1699.3,20 1698.8,19.4 1698.2,18.9 1697.5,18.5 1696.7,18.3 1696,18.4 1695.3,18.7 1694.6,19.2 1694,20.1 1693.6,21.4 1693.3,23 1693.2,25 1693.2,40" />
<path stroke="#000000" stroke-width="2" d="M 1729.8,70" />
</svg>