<svg xmlns="http://www.w3.org/2000/svg" width="1605.3687926268904" height="92.2836140246614" style="fill:none; stroke-linecap:round;">
    <rect width="100%" height="100%" fill="#FFFFFF" />
<path stroke="#000000" stroke-width="2" d="M 550,75" />
<path stroke="#000000" stroke-width="2" d="M 20,30 20,50 30,50 37.7,68.5 45.3,50" />
<path stroke="#000000" stroke-width="2" d="M 75.3,70" />
<path stroke="#000000" stroke-width="2" d="M 75.3,30 95.3,30 103,48.5 110.6,30" />
<path stroke="#000000" stroke-width="2" d="M 110.6,40" />
<path stroke="#000000" stroke-width="2" d="M 94.6,40 111.6,40" />
<path stroke="#000000" stroke-width="2" d="M 141.6,70" />
<path stroke="#000000" stroke-width="2" d="M 141.6,30 141.6,70" />
<path stroke="#000000" stroke-width="2" d="M 148.3,70" />
<path stroke="#000000" stroke-width="2" d="M 148.3,20 168.3,20" />
<path stroke="#000000" stroke-width="2" d="M 198.3,70" />
<path stroke="#000000" stroke-width="2" d="M 198.3,40 198.5,40 198.5,40.2 198.3,40.2 198.3,40" />
<path stroke="#000000" stroke-width="2" d="M 205.1,70" />
<path stroke="#000000" stroke-width="2" d="M 205.1,30 205.1,70 205.1,58 205.1,56.3 205.3,54.5 205.6,52.8 206.1,51.1 206.7,49.5 207.4,47.9 208.3,46.4 209.3,45 210.4,43.6 211.6,42.4 213,41.3 214.4,40.3 215.9,39.4 217.5,38.7 219.1,38.1 220.8,37.6 222.5,37.3 224.3,37.1" />
<path stroke="#000000" stroke-width="2" d="M 230.9,70" />
<path stroke="#000000" stroke-width="2" d="M 230.9,20 230.9,20.7 231,21.4 231.1,22.1 231.3,22.8 231.5,23.4 231.8,24 232.2,24.6 232.6,25.2 233,25.8 233.5,26.2 234,26.7 234.6,27.1 235.2,27.4 235.9,27.7 236.5,28 237.2,28.2 237.9,28.3 238.6,28.3 239.3,28.3 240,28.3 240.6,28.2 241.3,28 242,27.7 242.6,27.4 243.2,27.1 243.8,26.7 244.3,26.2 244.8,25.8 245.3,25.2 245.7,24.6 246,24 246.3,23.4 246.5,22.8 246.7,22.1 246.8,21.4 246.9,20.7" />
<path stroke="#000000" stroke-width="2" d="M 253.6,70" />
<path stroke="#000000" stroke-width="2" d="M 273.6,30 273.6,70 253.6,70" />
<path stroke="#000000" stroke-width="2" d="M 280.2,70" />
<path stroke="#000000" stroke-width="2" d="M 280.2,30" />
<path stroke="#000000" stroke-width="2" d="M 280.2,30 280.4,30 280.8,30 281.5,30 282.3,30.1 283.4,30.2 284.6,30.3 285.9,30.4 287.3,30.6 288.7,30.9 290.2,31.2 291.7,31.7 293.2,32.2 294.6,32.7 295.9,33.4 297.1,34.2 298.2,35.1 299,36.1 299.7,37.3 300.1,38.6 300.2,40" />
<path stroke="#000000" stroke-width="2" d="M 300.2,40 302.2,42.1 303.5,44.1 304.3,45.7 304.6,47.2 304.5,48.4 304,49.4 303.3,50.2 302.4,50.8 301.4,51.1 300.2,51.2 299.1,51.1 298.1,50.8 297.2,50.2 296.5,49.5 296,48.4 295.9,47.2 296.2,45.7 297,44.1 298.3,42.1 300.2,40" />
<path stroke="#000000" stroke-width="2" d="M 300.2,40 300.2,39.9 300.3,39.7 300.3,39.4 300.4,39 300.6,38.4 300.8,37.8 301.1,37.2 301.5,36.5 302.1,35.7 302.7,35 303.6,34.3 304.6,33.5 305.7,32.8 307.1,32.2 308.7,31.6 310.5,31 312.5,30.6 314.8,30.3 317.4,30.1 320.2,30" />
<path stroke="#000000" stroke-width="2" d="M 320.2,30 322.3,29.9 323.9,29.6 325.1,29.1 326,28.6 326.6,27.9 326.9,27.2 326.9,26.4 326.7,25.7 326.4,25 325.9,24.4 325.3,23.9 324.6,23.5 323.8,23.3 323.1,23.4 322.4,23.7 321.7,24.2 321.1,25.1 320.6,26.4 320.3,28 320.2,30 320.2,45" />
<path stroke="#000000" stroke-width="2" d="M 356.9,70" />
<path stroke="#000000" stroke-width="2" d="M 361.9,30" />
<path stroke="#000000" stroke-width="2" d="M 361.9,30 360.5,30.1 359.2,30.6 358.1,31.2 357.1,32.1 356.3,33.1 355.6,34.3 355.1,35.6 354.7,37 354.5,38.5 354.4,40 354.5,41.5 354.7,43 355.1,44.4 355.6,45.7 356.3,46.9 357.1,47.9 358.1,48.8 359.2,49.4 360.5,49.9 361.9,50 361.9,70 361.9,64 361.9,63.1 362,62.3 362.1,61.4 362.3,60.6 362.6,59.7 363,58.9 363.5,58.2 364,57.5 364.5,56.8 365.1,56.2 365.8,55.6 366.5,55.1 367.3,54.7 368.1,54.3 368.9,54 369.7,53.8 370.6,53.6 371.5,53.6" />
<path stroke="#000000" stroke-width="2" d="M 401.5,70" />
<path stroke="#000000" stroke-width="2" d="M 401.5,35" />
<path stroke="#000000" stroke-width="2" d="M 401.5,35 403.5,34.9 405.1,34.6 406.3,34.1 407.2,33.6 407.8,32.9 408.1,32.2 408.1,31.4 407.9,30.7 407.6,30 407.1,29.4 406.5,28.9 405.8,28.5 405,28.3 404.3,28.4 403.6,28.7 402.9,29.2 402.3,30.1 401.9,31.4 401.6,33 401.5,35 401.5,50" />
<path stroke="#000000" stroke-width="2" d="M 401.5,50 401.3,52 401,53.6 400.6,54.9 400,55.8 399.3,56.3 398.6,56.6 397.9,56.7 397.1,56.5 396.4,56.1 395.8,55.6 395.3,55 395,54.3 394.8,53.6 394.8,52.8 395.1,52.1 395.7,51.4 396.6,50.9 397.8,50.4 399.4,50.1 401.5,50 411.5,50" />
<path stroke="#000000" stroke-width="2" d="M 418.1,70" />
<path stroke="#000000" stroke-width="2" d="M 418.1,30 418.1,70 418.1,58 418.1,56.3 418.3,54.5 418.6,52.8 419,51.1 419.6,49.5 420.4,47.9 421.2,46.4 422.2,45 423.4,43.6 424.6,42.4 425.9,41.3 427.4,40.3 428.9,39.4 430.4,38.7 432.1,38.1 433.8,37.6 435.5,37.3 437.2,37.1" />
<path stroke="#000000" stroke-width="2" d="M 443.9,70" />
<path stroke="#000000" stroke-width="2" d="M 443.9,30 463.7,49.8 443.9,69.6" />
<path stroke="#000000" stroke-width="2" d="M 470.4,70" />
<path stroke="#000000" stroke-width="2" d="M 470.4,70 478,51.5 478,52.2 478.1,52.9 478.2,53.6 478.4,54.3 478.6,54.9 478.9,55.6 479.3,56.2 479.7,56.7 480.1,57.3 480.6,57.8 481.1,58.2 481.7,58.6 482.3,59 482.9,59.3 483.6,59.5 484.3,59.7 485,59.8 485.7,59.9 486.4,59.9 487,59.8 487.7,59.7 488.4,59.5 489.1,59.3 489.7,59 490.3,58.6 490.9,58.2 491.4,57.8 491.9,57.3 492.4,56.7 492.8,56.2 493.1,55.6 493.4,54.9 493.6,54.3 493.8,53.6 493.9,52.9 494,52.2" />
<path stroke="#000000" stroke-width="2" d="M 524,70" />
<path stroke="#000000" stroke-width="2" d="M 540,30" />
<path stroke="#000000" stroke-width="2" d="M 540,30 539.8,34.1 539.2,37.3 538.3,39.8 537.1,41.5 535.8,42.7 534.3,43.2 532.8,43.3 531.4,43 530,42.3 528.7,41.2 527.7,40 527,38.6 526.7,37.2 526.8,35.7 527.3,34.2 528.5,32.9 530.2,31.7 532.7,30.8 535.9,30.2 540,30 560,30" />
<path stroke="#000000" stroke-width="2" d="M 566.7,70" />
<path stroke="#000000" stroke-width="2" d="M 566.7,20 566.7,40 566.7,34 566.7,33.1 566.7,32.3 566.9,31.4 567.1,30.6 567.4,29.7 567.8,28.9 568.2,28.2 568.7,27.5 569.3,26.8 569.9,26.2 570.6,25.6 571.3,25.1 572,24.7 572.8,24.3 573.6,24 574.5,23.8 575.3,23.6 576.2,23.6" />
<path stroke="#000000" stroke-width="2" d="M 576.2,23.6 578.2,23.5 579.9,23.2 581.1,22.7 582,22.1 582.5,21.5 582.8,20.7 582.9,20 582.7,19.3 582.3,18.6 581.8,17.9 581.2,17.4 580.5,17.1 579.8,16.9 579.1,17 578.3,17.2 577.7,17.8 577.1,18.7 576.6,19.9 576.3,21.5 576.2,23.6 576.2,38.6" />
<path stroke="#000000" stroke-width="2" d="M 589.5,70" />
<path stroke="#000000" stroke-width="2" d="M 589.5,50 609.5,50" />
<path stroke="#000000" stroke-width="2" d="M 639.5,70" />
<path stroke="#000000" stroke-width="2" d="M 639.5,70 639.7,70 639.7,70.2 639.5,70.2 639.5,70" />
<path stroke="#000000" stroke-width="2" d="M 669.7,70" />
<path stroke="#000000" stroke-width="2" d="M 669.7,70 681.2,42.3" />
<path stroke="#000000" stroke-width="2" d="M 681.2,42.3 685.3,42.1 688.5,41.5 691,40.6 692.7,39.4 693.9,38.1 694.4,36.6 694.5,35.1 694.2,33.6 693.5,32.3 692.5,31 691.2,30 689.9,29.3 688.4,29 686.9,29.1 685.4,29.6 684.1,30.8 682.9,32.5 682,35 681.4,38.2 681.2,42.3 681.2,72.3" />
<path stroke="#000000" stroke-width="2" d="M 724.5,70" />
<path stroke="#000000" stroke-width="2" d="M 724.5,40" />
<path stroke="#000000" stroke-width="2" d="M 724.5,40 728.6,39.8 731.8,39.2 734.3,38.3 736,37.1 737.2,35.8 737.8,34.3 737.8,32.8 737.5,31.4 736.8,30 735.8,28.8 734.6,27.7 733.2,27 731.7,26.7 730.2,26.8 728.7,27.3 727.4,28.5 726.2,30.2 725.3,32.7 724.7,35.9 724.5,40 724.5,70" />
<path stroke="#000000" stroke-width="2" d="M 744.5,70" />
<path stroke="#000000" stroke-width="2" d="M 744.5,50 754.4,59.9 744.5,69.8" />
<path stroke="#000000" stroke-width="2" d="M 784.4,70" />
<path stroke="#000000" stroke-width="2" d="M 784.4,30 784.4,70 804.4,70" />
<path stroke="#000000" stroke-width="2" d="M 834.4,70" />
<path stroke="#000000" stroke-width="2" d="M 834.4,30 854.2,49.8 834.4,69.6" />
<path stroke="#000000" stroke-width="2" d="M 860.9,70" />
<path stroke="#000000" stroke-width="2" d="M 860.9,20 860.9,20.7 860.9,21.4 861,22.1 861.2,22.8 861.5,23.4 861.8,24 862.1,24.6 862.5,25.2 863,25.8 863.5,26.2 864,26.7 864.6,27.1 865.2,27.4 865.8,27.7 866.5,28 867.1,28.2 867.8,28.3 868.5,28.3 869.2,28.3 869.9,28.3 870.6,28.2 871.3,28 871.9,27.7 872.6,27.4 873.2,27.1 873.7,26.7 874.3,26.2 874.8,25.8 875.2,25.2 875.6,24.6 876,24 876.3,23.4 876.5,22.8 876.7,22.1 876.8,21.4 876.9,20.7 876.9,20 876.9,19.3 877,18.6 877.2,17.9 877.5,17.3 877.7,16.7 878.1,16.1 878.5,15.5 878.9,14.9 879.4,14.5 880,14 880.5,13.6 881.2,13.3 881.8,13 882.4,12.7 883.1,12.5 883.8,12.4 884.5,12.4 885.2,12.4 885.9,12.4 886.6,12.5 887.3,12.7 887.9,13 888.5,13.3 889.1,13.6 889.7,14 890.2,14.5 890.7,14.9 891.2,15.5 891.6,16.1 891.9,16.7 892.2,17.3 892.5,17.9 892.7,18.6 892.8,19.3 892.8,20" />
<path stroke="#000000" stroke-width="2" d="M 892.8,20 894.3,20.1 895.5,20.6 896.7,21.2 897.6,22.1 898.5,23.1 899.1,24.3 899.7,25.6 900,27 900.3,28.5 900.3,30 900.3,31.5 900,33 899.7,34.4 899.1,35.7 898.5,36.9 897.6,37.9 896.7,38.8 895.5,39.4 894.3,39.9 892.8,40" />
<path stroke="#000000" stroke-width="2" d="M 930.3,70" />
<path stroke="#000000" stroke-width="2" d="M 930.3,70 930.5,70 930.5,70.2 930.3,70.2 930.3,70" />
<path stroke="#000000" stroke-width="2" d="M 937.2,70" />
<path stroke="#000000" stroke-width="2" d="M 953.2,30 933.4,49.8 953.2,69.6" />
<path stroke="#000000" stroke-width="2" d="M 959.9,70" />
<path stroke="#000000" stroke-width="2" d="M 959.9,50 959.9,50.7 959.9,51.4 960.1,52.1 960.2,52.8 960.5,53.4 960.8,54 961.1,54.6 961.5,55.2 962,55.8 962.5,56.2 963,56.7 963.6,57.1 964.2,57.4 964.8,57.7 965.5,58 966.1,58.2 966.8,58.3 967.5,58.3 968.2,58.3 968.9,58.3 969.6,58.2 970.3,58 970.9,57.7 971.6,57.4 972.2,57.1 972.7,56.7 973.3,56.2 973.8,55.8 974.2,55.2 974.6,54.6 975,54 975.3,53.4 975.5,52.8 975.7,52.1 975.8,51.4 975.9,50.7" />
<path stroke="#000000" stroke-width="2" d="M 1005.9,70" />
<path stroke="#000000" stroke-width="2" d="M 1029.9,42" />
<path stroke="#000000" stroke-width="2" d="M 1029.9,42 1025.8,41.8 1022.6,41.2 1020.1,40.3 1018.3,39.1 1017.2,37.8 1016.6,36.3 1016.5,34.8 1016.9,33.4 1017.6,32 1018.6,30.8 1019.8,29.7 1021.2,29 1022.7,28.7 1024.2,28.8 1025.6,29.3 1027,30.5 1028.1,32.2 1029,34.7 1029.6,37.9 1029.9,42 1029.9,50" />
<path stroke="#000000" stroke-width="2" d="M 1029.9,50 1029.2,51.7 1028.5,53.4 1027.8,54.9 1027,56.3 1026.2,57.6 1025.3,58.7 1024.4,59.8 1023.4,60.8 1022.4,61.7 1021.4,62.5 1020.3,63.2 1019.2,63.8 1018.1,64.4 1016.9,64.8 1015.8,65.2 1014.6,65.5 1013.4,65.7 1012.3,65.9 1011.1,66 1009.9,66" />
<path stroke="#000000" stroke-width="2" d="M 1059.9,70" />
<path stroke="#000000" stroke-width="2" d="M 1059.9,30" />
<path stroke="#000000" stroke-width="2" d="M 1059.9,30 1060,30 1060.4,30 1061.1,30 1061.9,30.1 1063,30.2 1064.2,30.3 1065.5,30.4 1066.9,30.6 1068.4,30.9 1069.9,31.2 1071.4,31.7 1072.8,32.2 1074.2,32.7 1075.5,33.4 1076.7,34.2 1077.8,35.1 1078.6,36.1 1079.3,37.3 1079.7,38.6 1079.9,40" />
<path stroke="#000000" stroke-width="2" d="M 1079.9,40 1081.8,42.1 1083.1,44.1 1083.9,45.7 1084.2,47.2 1084.1,48.4 1083.6,49.4 1082.9,50.2 1082,50.8 1081,51.1 1079.9,51.2 1078.7,51.1 1077.7,50.8 1076.8,50.2 1076.1,49.5 1075.6,48.4 1075.5,47.2 1075.8,45.7 1076.6,44.1 1077.9,42.1 1079.9,40" />
<path stroke="#000000" stroke-width="2" d="M 1079.9,40 1079.9,39.9 1079.9,39.7 1079.9,39.4 1080,39 1080.2,38.4 1080.4,37.8 1080.7,37.2 1081.1,36.5 1081.7,35.7 1082.4,35 1083.2,34.3 1084.2,33.5 1085.3,32.8 1086.7,32.2 1088.3,31.6 1090.1,31 1092.1,30.6 1094.4,30.3 1097,30.1 1099.9,30" />
<path stroke="#000000" stroke-width="2" d="M 1099.9,30 1099.7,32 1099.5,33.6 1099,34.9 1098.4,35.8 1097.7,36.3 1097,36.6 1096.3,36.7 1095.5,36.5 1094.8,36.1 1094.2,35.6 1093.7,35 1093.4,34.3 1093.2,33.6 1093.2,32.8 1093.5,32.1 1094.1,31.4 1095,30.9 1096.2,30.4 1097.8,30.1 1099.9,30 1109.9,30" />
<path stroke="#000000" stroke-width="2" d="M 1139.9,70" />
<path stroke="#000000" stroke-width="2" d="M 1159.9,30 1144.5,67" />
<path stroke="#000000" stroke-width="2" d="M 1166.5,70" />
<path stroke="#000000" stroke-width="2" d="M 1166.5,50 1174.2,68.5 1181.8,50" />
<path stroke="#000000" stroke-width="2" d="M 1181.8,60" />
<path stroke="#000000" stroke-width="2" d="M 1165.8,60 1182.8,60" />
<path stroke="#000000" stroke-width="2" d="M 1212.8,70" />
<path stroke="#000000" stroke-width="2" d="M 1232.8,30 1213,49.8" />
<path stroke="#000000" stroke-width="2" d="M 1213,29.8 1232.8,49.6" />
<path stroke="#000000" stroke-width="2" d="M 1232.8,49.6 1232.7,47.6 1232.4,46 1232,44.7 1231.4,43.8 1230.7,43.3 1230,43 1229.2,42.9 1228.5,43.1 1227.8,43.5 1227.2,44 1226.7,44.6 1226.3,45.3 1226.2,46 1226.2,46.8 1226.5,47.5 1227.1,48.2 1228,48.7 1229.2,49.2 1230.8,49.5 1232.8,49.6 1236.8,49.6" />
<path stroke="#000000" stroke-width="2" d="M 1236.8,49.6 1237.7,49.3 1238.5,48.9 1239.3,48.6 1240,48.2 1240.6,47.8 1241.2,47.3 1241.7,46.8 1242.2,46.4 1242.7,45.9 1243.1,45.3 1243.4,44.8 1243.7,44.3 1244,43.7 1244.2,43.1 1244.4,42.6 1244.6,42 1244.7,41.4 1244.8,40.8 1244.8,40.2 1244.8,39.6" />
<path stroke="#000000" stroke-width="2" d="M 1251.5,70" />
<path stroke="#000000" stroke-width="2" d="M 1251.5,20 1271.5,20" />
<path stroke="#000000" stroke-width="2" d="M 1278.2,70" />
<path stroke="#000000" stroke-width="2" d="M 1286.2,20 1286.2,35" />
<path stroke="#000000" stroke-width="2" d="M 1286.2,35 1286.1,37 1285.8,38.6 1285.3,39.9 1284.7,40.8 1284.1,41.3 1283.3,41.6 1282.6,41.7 1281.8,41.5 1281.2,41.1 1280.5,40.6 1280,40 1279.7,39.3 1279.5,38.6 1279.5,37.8 1279.8,37.1 1280.4,36.4 1281.3,35.9 1282.5,35.4 1284.1,35.1 1286.2,35 1306.2,35" />
<path stroke="#000000" stroke-width="2" d="M 1336.2,70" />
<path stroke="#000000" stroke-width="2" d="M 1356.2,30 1340.9,67" />
<path stroke="#000000" stroke-width="2" d="M 1362.8,70" />
<path stroke="#000000" stroke-width="2" d="M 1362.8,50 1363,50 1363,50.2 1362.8,50.2 1362.8,50" />
<path stroke="#000000" stroke-width="2" d="M 1393,70" />
<path stroke="#000000" stroke-width="2" d="M 1393,30 1433,30" />
<path stroke="#000000" stroke-width="2" d="M 1463,70" />
<path stroke="#000000" stroke-width="2" d="M 1463,30" />
<path stroke="#000000" stroke-width="2" d="M 1463,30 1465.9,30.3 1468.4,31.1 1470.7,32.4 1472.6,34.2 1474.3,36.2 1475.6,38.6 1476.7,41.3 1477.4,44.1 1477.9,47 1478,50 1477.9,53 1477.4,55.9 1476.7,58.7 1475.6,61.4 1474.3,63.8 1472.6,65.8 1470.7,67.6 1468.4,68.9 1465.9,69.7 1463,70" />
<path stroke="#000000" stroke-width="2" d="M 1508,70" />
<path stroke="#000000" stroke-width="2" d="M 1512,70 1522.7,44.1 1523,43.5 1523.2,42.8 1523.4,42.1 1523.5,41.4 1523.5,40.8 1523.5,40.1 1523.4,39.4 1523.2,38.7 1523,38 1522.7,37.4 1522.4,36.8 1522,36.2 1521.6,35.6 1521.2,35.1 1520.6,34.6 1520.1,34.2 1519.5,33.8 1518.9,33.5 1518.2,33.2 1517.6,33 1516.9,32.9 1516.2,32.8 1515.5,32.8 1514.8,32.8 1514.1,32.9 1513.4,33 1512.8,33.2 1512.1,33.5 1511.5,33.8 1510.9,34.2 1510.4,34.6 1509.8,35.1 1509.4,35.6 1508.9,36.2 1508.6,36.8 1508.2,37.4 1508,38 1507.8,38.7 1507.6,39.4 1507.5,40.1 1507.5,40.8 1507.5,41.4 1507.6,42.1 1507.8,42.8 1508,43.5 1508.2,44.1 1508.6,44.8 1508.9,45.3 1509.4,45.9 1509.8,46.4 1510.4,46.9 1510.9,47.3 1511.5,47.7 1512.1,48 1512.8,48.3 1513.4,48.5 1514.1,48.6 1514.8,48.7 1515.5,48.8 1516.2,48.7 1542.1,38" />
<path stroke="#000000" stroke-width="2" d="M 1572.1,70" />
<path stroke="#000000" stroke-width="2" d="M 1572.1,40" />
<path stroke="#000000" stroke-width="2" d="M 1572.1,40 1576.1,39.8 1579.4,39.2 1581.8,38.3 1583.6,37.1 1584.7,35.8 1585.3,34.3 1585.4,32.8 1585,31.4 1584.3,30 1583.3,28.7 1582.1,27.7 1580.7,27 1579.2,26.7 1577.7,26.8 1576.3,27.3 1574.9,28.5 1573.8,30.2 1572.9,32.7 1572.3,35.9 1572.1,40 1572.1,70" />
<path stroke="#000000" stroke-width="2" d="M 1615.4,70" />
</svg>