<svg xmlns="http://www.w3.org/2000/svg" width="1349.3275649637637" height="99.34314575050762" style="fill:none; stroke-linecap:round;">
    <rect width="100%" height="100%" fill="#FFFFFF" />
<path stroke="#000000" stroke-width="2" d="M 550,75" />
<path stroke="#000000" stroke-width="2" d="M 20,30 20,70 31.3,58.7" />
<path stroke="#000000" stroke-width="2" d="M 38,70" />
<path stroke="#000000" stroke-width="2" d="M 38,30 57.8,49.8 38,69.6" />
<path stroke="#000000" stroke-width="2" d="M 87.8,70" />
<path stroke="#000000" stroke-width="2" d="M 87.8,30 87.8,70 87.8,58 87.8,56.3 87.9,54.5 88.2,52.8 88.7,51.1 89.3,49.5 90,47.9 90.9,46.4 91.9,45 93,43.6 94.2,42.4 95.6,41.3 97,40.3 98.5,39.4 100.1,38.7 101.7,38.1 103.4,37.6 105.1,37.3 106.9,37.1" />
<path stroke="#000000" stroke-width="2" d="M 113.6,70" />
<path stroke="#000000" stroke-width="2" d="M 113.6,20 114.4,20 115.3,20.1 116.2,20.2 117,20.5 117.8,20.8 118.6,21.1 119.4,21.6 120.1,22.1 120.7,22.6 121.4,23.2 121.9,23.9 122.4,24.6 122.9,25.4 123.2,26.2 123.5,27 123.8,27.8 123.9,28.7 124,29.6 124,30.4 123.9,31.3 123.8,32.2 123.5,33 123.2,33.8 122.9,34.6 122.4,35.4 121.9,36.1 121.4,36.7 120.7,37.4 120.1,37.9 119.4,38.4 118.6,38.9 117.8,39.2 117,39.5 116.2,39.8 115.3,39.9 114.4,40" />
<path stroke="#000000" stroke-width="2" d="M 154,70" />
<path stroke="#000000" stroke-width="2" d="M 154,30 164,30 164,70" />
<path stroke="#000000" stroke-width="2" d="M 170.6,70" />
<path stroke="#000000" stroke-width="2" d="M 170.6,50 170.6,70 170.6,64 170.6,63.1 170.7,62.3 170.9,61.4 171.1,60.6 171.4,59.7 171.8,58.9 172.2,58.2 172.7,57.5 173.3,56.8 173.9,56.2 174.6,55.6 175.3,55.1 176,54.7 176.8,54.3 177.6,54 178.5,53.8 179.3,53.6 180.2,53.6" />
<path stroke="#000000" stroke-width="2" d="M 210.2,70" />
<path stroke="#000000" stroke-width="2" d="M 212.2,50 217.6,37.1 217.7,36.7 217.8,36.4 217.9,36.1 217.9,35.7 217.9,35.4 217.9,35 217.9,34.7 217.8,34.3 217.7,34 217.6,33.7 217.4,33.4 217.2,33.1 217,32.8 216.8,32.5 216.5,32.3 216.2,32.1 215.9,31.9 215.6,31.7 215.3,31.6 215,31.5 214.6,31.4 214.3,31.4 213.9,31.4 213.6,31.4 213.2,31.4 212.9,31.5 212.6,31.6 212.2,31.7 211.9,31.9 211.6,32.1 211.4,32.3 211.1,32.5 210.9,32.8 210.7,33.1 210.5,33.4 210.3,33.7 210.2,34 210.1,34.3 210,34.7 209.9,35 209.9,35.4 209.9,35.7 210,36.1 210.1,36.4 210.2,36.7 210.3,37.1 210.5,37.4 210.7,37.7 210.9,37.9 211.1,38.2 211.4,38.4 211.6,38.7 211.9,38.8 212.2,39 212.6,39.1 212.9,39.2 213.2,39.3 213.6,39.4 213.9,39.4 214.3,39.4 227.2,34 219.6,52.5" />
<path stroke="#000000" stroke-width="2" d="M 233.9,70" />
<path stroke="#000000" stroke-width="2" d="M 233.9,30 273.9,30" />
<path stroke="#000000" stroke-width="2" d="M 303.9,70" />
<path stroke="#000000" stroke-width="2" d="M 319.9,30" />
<path stroke="#000000" stroke-width="2" d="M 319.9,30 319.7,34.1 319.1,37.3 318.2,39.8 317,41.5 315.7,42.7 314.2,43.2 312.7,43.3 311.2,43 309.9,42.3 308.6,41.2 307.6,40 306.9,38.6 306.6,37.2 306.7,35.7 307.2,34.2 308.4,32.9 310.1,31.7 312.6,30.8 315.8,30.2 319.9,30 339.9,30" />
<path stroke="#000000" stroke-width="2" d="M 369.9,70" />
<path stroke="#000000" stroke-width="2" d="M 369.9,30 385.2,67" />
<path stroke="#000000" stroke-width="2" d="M 415.2,70" />
<path stroke="#000000" stroke-width="2" d="M 415.2,70 415.4,70 415.4,70.2 415.2,70.2 415.2,70" />
<path stroke="#000000" stroke-width="2" d="M 445.4,70" />
<path stroke="#000000" stroke-width="2" d="M 445.4,70 445.6,70 445.6,70.2 445.4,70.2 445.4,70" />
<path stroke="#000000" stroke-width="2" d="M 452.3,70" />
<path stroke="#000000" stroke-width="2" d="M 452.3,40" />
<path stroke="#000000" stroke-width="2" d="M 452.3,40 456.3,39.8 459.5,39.2 462,38.3 463.8,37.1 464.9,35.8 465.5,34.3 465.6,32.8 465.2,31.4 464.5,30 463.5,28.8 462.3,27.7 460.9,27 459.4,26.7 457.9,26.8 456.5,27.3 455.1,28.5 454,30.2 453.1,32.7 452.5,35.9 452.3,40 452.3,70" />
<path stroke="#000000" stroke-width="2" d="M 472.2,70" />
<path stroke="#000000" stroke-width="2" d="M 472.2,20 479.9,38.5" />
<path stroke="#000000" stroke-width="2" d="M 486.6,70" />
<path stroke="#000000" stroke-width="2" d="M 486.6,20 486.8,20 486.8,20.2 486.6,20.2 486.6,20" />
<path stroke="#000000" stroke-width="2" d="M 516.8,70" />
<path stroke="#000000" stroke-width="2" d="M 516.8,30 518.5,30 520.2,30.2 522,30.5 523.6,30.9 525.3,31.5 526.9,32.2 528.4,33.1 529.8,34.1 531.1,35.2 532.4,36.5 533.5,37.8 534.5,39.2 535.4,40.7 536.1,42.3 536.7,44 537.2,45.7 537.5,47.4 537.6,49.1 537.6,50.9 537.5,52.6 537.2,54.3 536.7,56 536.1,57.6 535.4,59.2 534.5,60.7 533.5,62.2 532.4,63.5 531.1,64.7 529.8,65.8 528.4,66.8 526.9,67.7 525.3,68.5 523.6,69.1 522,69.5 520.2,69.8 518.5,70 518.5,68.2 518.7,66.5 519,64.8 519.4,63.1 520,61.4 520.7,59.9 521.6,58.3 522.6,56.9 523.7,55.6 525,54.3 526.3,53.2 527.7,52.2 529.2,51.3 530.8,50.6 532.5,50 534.2,49.6 535.9,49.3 537.6,49.1" />
<path stroke="#000000" stroke-width="2" d="M 544.3,70" />
<path stroke="#000000" stroke-width="2" d="M 544.3,50 544.3,70 549.9,64.3" />
<path stroke="#000000" stroke-width="2" d="M 549.9,64.3 552,64.2 553.6,63.9 554.8,63.5 555.7,62.9 556.3,62.2 556.5,61.5 556.6,60.8 556.4,60 556.1,59.3 555.6,58.7 554.9,58.2 554.3,57.9 553.5,57.7 552.8,57.7 552,58 551.4,58.6 550.8,59.5 550.3,60.7 550,62.3 549.9,64.3 549.9,79.3" />
<path stroke="#000000" stroke-width="2" d="M 563.3,70" />
<path stroke="#000000" stroke-width="2" d="M 563.3,30 563.5,30 563.5,30.2 563.3,30.2 563.3,30" />
<path stroke="#000000" stroke-width="2" d="M 593.5,70" />
<path stroke="#000000" stroke-width="2" d="M 593.5,30 603.5,30 603.5,70" />
<path stroke="#000000" stroke-width="2" d="M 610.1,70" />
<path stroke="#000000" stroke-width="2" d="M 610.1,20 610.1,20.7 610.2,21.4 610.3,22.1 610.5,22.8 610.7,23.4 611,24 611.4,24.6 611.8,25.2 612.2,25.8 612.7,26.2 613.2,26.7 613.8,27.1 614.4,27.4 615,27.7 615.7,28 616.4,28.2 617.1,28.3 617.8,28.3 618.5,28.3 619.2,28.3 619.8,28.2 620.5,28 621.2,27.7 621.8,27.4 622.4,27.1 623,26.7 623.5,26.2 624,25.8 624.5,25.2 624.9,24.6 625.2,24 625.5,23.4 625.7,22.8 625.9,22.1 626,21.4 626.1,20.7" />
<path stroke="#000000" stroke-width="2" d="M 626.1,20.7 624.1,20.6 622.5,20.3 621.2,19.8 620.3,19.3 619.8,18.6 619.5,17.9 619.4,17.1 619.6,16.4 620,15.7 620.5,15.1 621.1,14.6 621.8,14.2 622.5,14 623.3,14.1 624,14.4 624.7,14.9 625.2,15.8 625.7,17.1 626,18.7 626.1,20.7 626.1,24.7" />
<path stroke="#000000" stroke-width="2" d="M 626.1,24.7 625.8,25.6 625.4,26.4 625.1,27.1 624.7,27.8 624.3,28.5 623.8,29.1 623.4,29.6 622.9,30.1 622.4,30.6 621.9,30.9 621.3,31.3 620.8,31.6 620.2,31.9 619.6,32.1 619.1,32.3 618.5,32.4 617.9,32.6 617.3,32.6 616.7,32.7 616.1,32.7" />
<path stroke="#000000" stroke-width="2" d="M 656.1,70" />
<path stroke="#000000" stroke-width="2" d="M 656.1,30 666.1,30 666.1,70 666.1,68.3 666.3,66.5 666.6,64.8 667,63.1 667.6,61.5 668.3,59.9 669.2,58.4 670.2,57 671.3,55.6 672.6,54.4 673.9,53.3 675.3,52.3 676.8,51.4 678.4,50.7 680.1,50.1 681.8,49.6 683.5,49.3 685.2,49.1" />
<path stroke="#000000" stroke-width="2" d="M 691.9,70" />
<path stroke="#000000" stroke-width="2" d="M 691.9,50 699.5,68.5" />
<path stroke="#000000" stroke-width="2" d="M 729.5,70" />
<path stroke="#000000" stroke-width="2" d="M 729.5,70 729.7,70 729.7,70.2 729.5,70.2 729.5,70" />
<path stroke="#000000" stroke-width="2" d="M 736.4,70" />
<path stroke="#000000" stroke-width="2" d="M 736.4,70 751.7,33 751.7,73" />
<path stroke="#000000" stroke-width="2" d="M 758.4,70" />
<path stroke="#000000" stroke-width="2" d="M 758.4,40" />
<path stroke="#000000" stroke-width="2" d="M 758.4,40 762.4,39.8 765.7,39.2 768.1,38.3 769.9,37.1 771,35.8 771.6,34.3 771.7,32.8 771.3,31.4 770.6,30 769.6,28.8 768.4,27.7 767,27 765.5,26.7 764,26.8 762.6,27.3 761.3,28.5 760.1,30.2 759.2,32.7 758.6,35.9 758.4,40 758.4,70" />
<path stroke="#000000" stroke-width="2" d="M 801.7,70" />
<path stroke="#000000" stroke-width="2" d="M 801.7,30 801.7,70 801.7,58 801.7,56.3 801.8,54.5 802.1,52.8 802.6,51.1 803.2,49.5 803.9,47.9 804.8,46.4 805.8,45 806.9,43.6 808.2,42.4 809.5,41.3 810.9,40.3 812.4,39.4 814,38.7 815.6,38.1 817.3,37.6 819.1,37.3 820.8,37.1" />
<path stroke="#000000" stroke-width="2" d="M 827.5,70" />
<path stroke="#000000" stroke-width="2" d="M 837.5,20 829.8,38.5" />
<path stroke="#000000" stroke-width="2" d="M 844.1,70" />
<path stroke="#000000" stroke-width="2" d="M 844.1,50 844.1,70 844.1,64 844.1,63.1 844.2,62.3 844.4,61.4 844.6,60.6 844.9,59.7 845.2,58.9 845.7,58.2 846.2,57.5 846.7,56.8 847.4,56.2 848,55.6 848.7,55.1 849.5,54.7 850.3,54.3 851.1,54 851.9,53.8 852.8,53.6 853.7,53.6 873.7,53.6 874.6,53.6 875.4,53.6 876.3,53.8 877.1,54 877.9,54.3 878.7,54.7 879.5,55.1 880.2,55.6 880.9,56.2 881.5,56.8 882,57.5 882.5,58.2 883,58.9 883.4,59.7 883.7,60.6 883.9,61.4 884,62.3 884.1,63.1 884.1,64 884,64.9 883.9,65.7 883.7,66.6 883.4,67.4 883,68.2 882.5,68.9 882,69.7 881.5,70.3 880.9,70.9 880.2,71.5 879.5,72 878.7,72.4 877.9,72.8 877.1,73.1 876.3,73.3 875.4,73.5 874.6,73.6" />
<path stroke="#000000" stroke-width="2" d="M 914.1,70" />
<path stroke="#000000" stroke-width="2" d="M 914.1,30 934.1,30 935,30 935.8,30.1 936.7,30.2 937.5,30.5 938.4,30.8 939.2,31.1 939.9,31.6 940.6,32.1 941.3,32.6 941.9,33.2 942.5,33.9 943,34.6 943.4,35.4 943.8,36.2 944.1,37 944.3,37.8 944.5,38.7 944.5,39.6 944.5,40.4 944.5,41.3 944.3,42.2 944.1,43 943.8,43.8 943.4,44.6 943,45.4 942.5,46.1 941.9,46.7 941.3,47.4 940.6,47.9 939.9,48.4 939.2,48.9 938.4,49.2 937.5,49.5 936.7,49.8 935.8,49.9 935,50" />
<path stroke="#000000" stroke-width="2" d="M 974.5,70" />
<path stroke="#000000" stroke-width="2" d="M 974.5,30 974.5,70 994.5,70" />
<path stroke="#000000" stroke-width="2" d="M 1024.5,70" />
<path stroke="#000000" stroke-width="2" d="M 1024.5,30 1034.5,30 1034.5,70" />
<path stroke="#000000" stroke-width="2" d="M 1041.2,70" />
<path stroke="#000000" stroke-width="2" d="M 1041.2,20 1042.1,20 1042.9,20.1 1043.8,20.2 1044.6,20.5 1045.5,20.8 1046.3,21.1 1047,21.6 1047.7,22.1 1048.4,22.6 1049,23.2 1049.6,23.9 1050.1,24.6 1050.5,25.4 1050.9,26.2 1051.2,27 1051.4,27.8 1051.5,28.7 1051.6,29.6 1051.6,30.4 1051.5,31.3 1051.4,32.2 1051.2,33 1050.9,33.8 1050.5,34.6 1050.1,35.4 1049.6,36.1 1049,36.7 1048.4,37.4 1047.7,37.9 1047,38.4 1046.3,38.9 1045.5,39.2 1044.6,39.5 1043.8,39.8 1042.9,39.9 1042.1,40 1042.9,40 1043.8,40.1 1044.7,40.2 1045.5,40.4 1046.3,40.7 1047.1,41.1 1047.9,41.5 1048.6,42 1049.3,42.6 1049.9,43.2 1050.4,43.9 1050.9,44.6 1051.4,45.4 1051.7,46.1 1052,47 1052.3,47.8 1052.4,48.7 1052.5,49.5 1052.5,50.4 1052.4,51.3 1052.3,52.1 1052,53 1051.7,53.8 1051.4,54.6 1050.9,55.3 1050.4,56.1 1049.9,56.7 1049.3,57.3 1048.6,57.9 1047.9,58.4 1047.1,58.8 1046.3,59.2 1045.5,59.5 1044.7,59.7 1043.8,59.9 1042.9,60" />
<path stroke="#000000" stroke-width="2" d="M 1082.5,70" />
<path stroke="#000000" stroke-width="2" d="M 1082.5,30 1092.5,30 1092.5,70 1092.5,68.3 1092.6,66.5 1093,64.8 1093.4,63.1 1094,61.5 1094.7,59.9 1095.6,58.4 1096.6,57 1097.7,55.6 1099,54.4 1100.3,53.3 1101.7,52.3 1103.2,51.4 1104.8,50.7 1106.5,50.1 1108.1,49.6 1109.9,49.3 1111.6,49.1" />
<path stroke="#000000" stroke-width="2" d="M 1118.3,70" />
<path stroke="#000000" stroke-width="2" d="M 1118.3,50 1125.9,68.5" />
<path stroke="#000000" stroke-width="2" d="M 1155.9,70" />
<path stroke="#000000" stroke-width="2" d="M 1155.9,50 1155.9,49.3 1156,48.6 1156.1,47.9 1156.3,47.2 1156.5,46.6 1156.8,46 1157.2,45.4 1157.6,44.8 1158,44.2 1158.5,43.8 1159,43.3 1159.6,42.9 1160.2,42.6 1160.9,42.3 1161.5,42 1162.2,41.8 1162.9,41.7 1163.6,41.7 1164.3,41.7 1165,41.7 1165.6,41.8 1166.3,42 1167,42.3 1167.6,42.6 1168.2,42.9 1168.8,43.3 1169.3,43.8 1169.8,44.2 1170.3,44.8 1170.7,45.4 1171,46 1171.3,46.6 1171.5,47.2 1171.7,47.9 1171.8,48.6 1171.9,49.3" />
<path stroke="#000000" stroke-width="2" d="M 1171.9,45.3" />
<path stroke="#000000" stroke-width="2" d="M 1165.9,45.3 1175.9,45.3 1175.9,60.3" />
<path stroke="#000000" stroke-width="2" d="M 1175.9,60.3 1175.8,62.3 1175.5,63.9 1175,65.2 1174.5,66.1 1173.8,66.6 1173.1,66.9 1172.3,67 1171.6,66.8 1170.9,66.4 1170.3,65.9 1169.8,65.3 1169.4,64.6 1169.3,63.9 1169.3,63.1 1169.6,62.4 1170.2,61.7 1171,61.2 1172.3,60.7 1173.9,60.4 1175.9,60.3" />
<path stroke="#000000" stroke-width="2" d="M 1182.6,70" />
<path stroke="#000000" stroke-width="2" d="M 1182.6,25" />
<path stroke="#000000" stroke-width="2" d="M 1182.6,25 1184.6,24.9 1186.2,24.6 1187.5,24.1 1188.3,23.6 1188.9,22.9 1189.2,22.2 1189.2,21.4 1189.1,20.7 1188.7,20 1188.2,19.4 1187.6,18.9 1186.9,18.5 1186.2,18.3 1185.4,18.4 1184.7,18.7 1184,19.2 1183.4,20.1 1183,21.4 1182.7,23 1182.6,25 1182.6,40 1202.6,40 1196.9,45.7 1197.4,45.7 1198,45.7 1198.5,45.8 1199,45.9 1199.5,46.1 1200,46.3 1200.4,46.6 1200.8,46.9 1201.2,47.2 1201.6,47.6 1201.9,48 1202.2,48.4 1202.5,48.9 1202.7,49.4 1202.9,49.8 1203,50.4 1203.1,50.9 1203.2,51.4 1203.2,51.9 1203.1,52.4 1203,52.9 1202.9,53.5 1202.7,53.9 1202.5,54.4 1202.2,54.9 1201.9,55.3 1201.6,55.7 1201.2,56.1 1200.8,56.4 1200.4,56.7 1200,57 1199.5,57.2 1199,57.4 1198.5,57.5 1198,57.6 1197.4,57.6" />
<path stroke="#000000" stroke-width="2" d="M 1233.2,70" />
<path stroke="#000000" stroke-width="2" d="M 1233.2,70 1248.5,33 1248.5,41 1248.5,42.1 1248.6,43.1 1248.8,44.2 1249,45.2 1249.4,46.2 1249.8,47.1 1250.4,48 1251,48.9 1251.6,49.7 1252.4,50.4 1253.2,51.1 1254,51.7 1254.9,52.2 1255.9,52.7 1256.9,53 1257.9,53.3 1258.9,53.5 1259.9,53.6 1261,53.6 1262,53.5 1263.1,53.3 1264.1,53 1265.1,52.7 1266,52.2 1266.9,51.7 1267.8,51.1 1268.6,50.4 1269.3,49.7 1270,48.9 1270.6,48 1271.1,47.1 1271.6,46.2 1271.9,45.2 1272.2,44.2 1272.4,43.1 1272.5,42.1 1272.5,32.1 1272.5,72.1" />
<path stroke="#000000" stroke-width="2" d="M 1279.1,70" />
<path stroke="#000000" stroke-width="2" d="M 1279.1,20 1299.1,20" />
<path stroke="#000000" stroke-width="2" d="M 1329.1,70" />
<path stroke="#000000" stroke-width="2" d="M 1329.1,70 1329.3,70 1329.3,70.2 1329.1,70.2 1329.1,70" />
<path stroke="#000000" stroke-width="2" d="M 1359.3,70" />
</svg>