<svg xmlns="http://www.w3.org/2000/svg" width="1466.98678034145" height="109.15646527970827" style="fill:none; stroke-linecap:round;">
    <rect width="100%" height="100%" fill="#FFFFFF" />
<path stroke="#000000" stroke-width="2" d="M 550,75" />
<path stroke="#000000" stroke-width="2" d="M 20,30 20,70 40,70" />
<path stroke="#000000" stroke-width="2" d="M 70,70" />
<path stroke="#000000" stroke-width="2" d="M 70,30 70,70 70,58 70,56.3 70.2,54.5 70.5,52.8 70.9,51.1 71.5,49.5 72.2,47.9 73.1,46.4 74.1,45 75.2,43.6 76.5,42.4 77.8,41.3 79.2,40.3 80.7,39.4 82.3,38.7 84,38.1 85.7,37.6 87.4,37.3 89.1,37.1" />
<path stroke="#000000" stroke-width="2" d="M 95.8,70" />
<path stroke="#000000" stroke-width="2" d="M 95.8,40 95.8,39.3 95.8,38.6 96,37.9 96.1,37.2 96.4,36.6 96.7,36 97,35.4 97.4,34.8 97.9,34.2 98.4,33.8 98.9,33.3 99.5,32.9 100.1,32.6 100.7,32.3 101.4,32 102,31.8 102.7,31.7 103.4,31.7 104.1,31.7 104.8,31.7 105.5,31.8 106.2,32 106.8,32.3 107.5,32.6 108.1,32.9 108.6,33.3 109.2,33.8 109.7,34.2 110.1,34.8 110.5,35.4 110.9,36 111.2,36.6 111.4,37.2 111.6,37.9 111.7,38.6 111.8,39.3" />
<path stroke="#000000" stroke-width="2" d="M 118.4,70" />
<path stroke="#000000" stroke-width="2" d="M 118.4,50 118.4,54 118.4,54.5 118.5,55 118.6,55.6 118.7,56.1 118.9,56.6 119.1,57 119.4,57.5 119.7,57.9 120,58.3 120.4,58.7 120.8,59 121.2,59.3 121.7,59.6 122.1,59.8 122.6,60 123.1,60.1 123.6,60.2 124.2,60.3 124.7,60.3 125.2,60.2 125.7,60.1 126.2,60 126.7,59.8 127.2,59.6 127.6,59.3 128.1,59 128.5,58.7 128.8,58.3 129.2,57.9 129.5,57.5 129.7,57 130,56.6 130.1,56.1 130.3,55.6 130.4,55 130.4,54.5 130.4,49.5 130.4,69.5 150.4,69.5" />
<path stroke="#000000" stroke-width="2" d="M 157.1,70" />
<path stroke="#000000" stroke-width="2" d="M 157.1,30 177.1,30 157.3,49.8 177.3,49.8 178.2,49.8 179,49.9 179.9,50 180.7,50.3 181.5,50.6 182.3,50.9 183.1,51.4 183.8,51.9 184.5,52.4 185.1,53 185.7,53.7 186.2,54.4 186.6,55.2 187,56 187.3,56.8 187.5,57.6 187.6,58.5 187.7,59.4 187.7,60.2 187.6,61.1 187.5,62 187.3,62.8 187,63.6 186.6,64.4 186.2,65.2 185.7,65.9 185.1,66.5 184.5,67.2 183.8,67.7 183.1,68.2 182.3,68.7 181.5,69 180.7,69.3 179.9,69.6 179,69.7 178.2,69.8" />
<path stroke="#000000" stroke-width="2" d="M 217.7,70" />
<path stroke="#000000" stroke-width="2" d="M 237.7,70 239.5,70 241.2,69.8 242.9,69.5 244.6,69.1 246.2,68.5 247.8,67.8 249.3,66.9 250.8,65.9 252.1,64.8 253.3,63.5 254.4,62.2 255.4,60.8 256.3,59.3 257.1,57.7 257.7,56 258.1,54.3 258.4,52.6 258.6,50.9 258.6,49.1 258.4,47.4 258.1,45.7 257.7,44 257.1,42.4 256.3,40.8 255.4,39.3 254.4,37.8 253.3,36.5 252.1,35.3 250.8,34.2 249.3,33.2 247.8,32.3 246.2,31.5 244.6,30.9 242.9,30.5 241.2,30.2 239.5,30 237.7,30 236,30.2 234.3,30.5 232.6,30.9 230.9,31.5 229.3,32.3 227.8,33.2 226.4,34.2 225.1,35.3 223.8,36.5 222.7,37.8 221.7,39.3 220.8,40.8 220.1,42.4 219.5,44 219.1,45.7 218.8,47.4 218.6,49.1 218.6,50.9 218.8,52.6 219.1,54.3 219.5,56 220.1,57.7 220.8,59.3 221.7,60.8 222.7,62.2 223.8,63.5 225.1,64.8 226.4,65.9 227.8,66.9 229.3,67.8 230.9,68.5 232.6,69.1 234.3,69.5 236,69.8 237.7,70" />
<path stroke="#000000" stroke-width="2" d="M 265.2,70" />
<path stroke="#000000" stroke-width="2" d="M 275.2,20 267.6,38.5" />
<path stroke="#000000" stroke-width="2" d="M 305.2,70" />
<path stroke="#000000" stroke-width="2" d="M 305.2,30 320.5,67 335.8,30" />
<path stroke="#000000" stroke-width="2" d="M 342.5,70" />
<path stroke="#000000" stroke-width="2" d="M 342.5,50 342.5,70 352.5,70" />
<path stroke="#000000" stroke-width="2" d="M 352.5,70 354.5,69.9 356.2,69.6 357.4,69.1 358.3,68.6 358.8,67.9 359.1,67.2 359.2,66.4 359,65.7 358.6,65 358.1,64.4 357.5,63.9 356.8,63.5 356.1,63.3 355.3,63.4 354.6,63.7 354,64.2 353.4,65.1 352.9,66.4 352.6,68 352.5,70 352.5,85" />
<path stroke="#000000" stroke-width="2" d="M 389.2,70" />
<path stroke="#000000" stroke-width="2" d="M 389.2,70 400.6,42.3" />
<path stroke="#000000" stroke-width="2" d="M 400.6,42.3 404.7,42.1 407.9,41.5 410.4,40.6 412.2,39.4 413.3,38.1 413.9,36.6 414,35.1 413.6,33.6 412.9,32.3 411.9,31 410.7,30 409.3,29.3 407.8,29 406.3,29.1 404.9,29.6 403.5,30.8 402.4,32.5 401.5,35 400.9,38.2 400.6,42.3 400.6,72.3" />
<path stroke="#000000" stroke-width="2" d="M 444,70" />
<path stroke="#000000" stroke-width="2" d="M 444,40" />
<path stroke="#000000" stroke-width="2" d="M 444,40 448,39.8 451.2,39.2 453.7,38.3 455.5,37.1 456.6,35.8 457.2,34.3 457.3,32.8 456.9,31.4 456.2,30 455.2,28.8 454,27.7 452.6,27 451.1,26.7 449.6,26.8 448.2,27.3 446.8,28.5 445.7,30.2 444.8,32.7 444.2,35.9 444,40 444,70" />
<path stroke="#000000" stroke-width="2" d="M 463.9,70" />
<path stroke="#000000" stroke-width="2" d="M 463.9,50 483.9,50" />
<path stroke="#000000" stroke-width="2" d="M 513.9,70" />
<path stroke="#000000" stroke-width="2" d="M 513.9,70 525.4,42.3" />
<path stroke="#000000" stroke-width="2" d="M 525.4,42.3 529.5,42.1 532.7,41.5 535.2,40.6 536.9,39.4 538.1,38.1 538.6,36.6 538.7,35.1 538.4,33.6 537.7,32.3 536.7,31 535.4,30 534.1,29.3 532.6,29 531.1,29.1 529.6,29.6 528.3,30.8 527.1,32.5 526.2,35 525.6,38.2 525.4,42.3 525.4,72.3" />
<path stroke="#000000" stroke-width="2" d="M 568.7,70" />
<path stroke="#000000" stroke-width="2" d="M 568.7,30 568.7,70 588.7,70" />
<path stroke="#000000" stroke-width="2" d="M 618.7,70" />
<path stroke="#000000" stroke-width="2" d="M 634.7,30 614.9,49.8 634.7,69.6" />
<path stroke="#000000" stroke-width="2" d="M 641.4,70" />
<path stroke="#000000" stroke-width="2" d="M 641.4,20 641.4,40 641.4,34 641.4,33.1 641.5,32.3 641.6,31.4 641.8,30.6 642.1,29.7 642.5,28.9 642.9,28.2 643.4,27.5 644,26.8 644.6,26.2 645.3,25.6 646,25.1 646.8,24.7 647.5,24.3 648.4,24 649.2,23.8 650.1,23.6 650.9,23.6 651.8,23.6 652.7,23.6 653.5,23.8 654.4,24 655.2,24.3 656,24.7 656.7,25.1 657.5,25.6 658.1,26.2 658.7,26.8 659.3,27.5 659.8,28.2 660.2,28.9 660.6,29.7 660.9,30.6 661.1,31.4 661.3,32.3 661.4,33.1 661.4,34 661.3,34.9 661.1,35.7 660.9,36.6 660.6,37.4 660.2,38.2 659.8,38.9 659.3,39.7 658.7,40.3 658.1,40.9 657.5,41.5 656.7,42 656,42.4 655.2,42.8 654.4,43.1 653.5,43.3 652.7,43.5 651.8,43.6" />
<path stroke="#000000" stroke-width="2" d="M 691.4,70" />
<path stroke="#000000" stroke-width="2" d="M 691.4,30 691.4,50 701.4,50 693.7,68.5" />
<path stroke="#000000" stroke-width="2" d="M 731.4,70" />
<path stroke="#000000" stroke-width="2" d="M 731.4,70 731.6,70 731.6,70.2 731.4,70.2 731.4,70" />
<path stroke="#000000" stroke-width="2" d="M 761.6,70" />
<path stroke="#000000" stroke-width="2" d="M 761.6,30 761.6,70 781.6,70" />
<path stroke="#000000" stroke-width="2" d="M 811.6,70" />
<path stroke="#000000" stroke-width="2" d="M 831.6,30 816.3,67" />
<path stroke="#000000" stroke-width="2" d="M 838.2,70" />
<path stroke="#000000" stroke-width="2" d="M 838.2,50 838.2,70 838.2,64 838.2,63.1 838.3,62.3 838.5,61.4 838.7,60.6 839,59.7 839.4,58.9 839.8,58.2 840.3,57.5 840.9,56.8 841.5,56.2 842.1,55.6 842.9,55.1 843.6,54.7 844.4,54.3 845.2,54 846.1,53.8 846.9,53.6 847.8,53.6 867.8,53.6 868.7,53.6 869.5,53.6 870.4,53.8 871.2,54 872.1,54.3 872.8,54.7 873.6,55.1 874.3,55.6 875,56.2 875.6,56.8 876.2,57.5 876.7,58.2 877.1,58.9 877.5,59.7 877.8,60.6 878,61.4 878.1,62.3 878.2,63.1 878.2,64 878.1,64.9 878,65.7 877.8,66.6 877.5,67.4 877.1,68.2 876.7,68.9 876.2,69.7 875.6,70.3 875,70.9 874.3,71.5 873.6,72 872.8,72.4 872.1,72.8 871.2,73.1 870.4,73.3 869.5,73.5 868.7,73.6" />
<path stroke="#000000" stroke-width="2" d="M 908.2,70" />
<path stroke="#000000" stroke-width="2" d="M 928.2,30 912.9,67" />
<path stroke="#000000" stroke-width="2" d="M 934.9,70" />
<path stroke="#000000" stroke-width="2" d="M 934.9,50 934.9,50.7 934.9,51.4 935.1,52.1 935.2,52.8 935.5,53.4 935.8,54 936.1,54.6 936.5,55.2 937,55.8 937.5,56.2 938,56.7 938.6,57.1 939.2,57.4 939.8,57.7 940.5,58 941.1,58.2 941.8,58.3 942.5,58.3 943.2,58.3 943.9,58.3 944.6,58.2 945.3,58 945.9,57.7 946.6,57.4 947.2,57.1 947.7,56.7 948.3,56.2 948.8,55.8 949.2,55.2 949.6,54.6 950,54 950.3,53.4 950.5,52.8 950.7,52.1 950.8,51.4 950.9,50.7" />
<path stroke="#000000" stroke-width="2" d="M 957.5,70" />
<path stroke="#000000" stroke-width="2" d="M 957.5,70 957.5,69.3 957.6,68.6 957.7,67.9 957.9,67.2 958.1,66.6 958.4,66 958.8,65.4 959.2,64.8 959.6,64.2 960.1,63.8 960.7,63.3 961.2,62.9 961.8,62.6 962.5,62.3 963.1,62 963.8,61.8 964.5,61.7 965.2,61.7 965.9,61.7 966.6,61.7 967.3,61.8 967.9,62 968.6,62.3 969.2,62.6 969.8,62.9 970.4,63.3 970.9,63.8 971.4,64.2 971.9,64.8 972.3,65.4 972.6,66 972.9,66.6 973.2,67.2 973.3,67.9 973.5,68.6 973.5,69.3" />
<path stroke="#000000" stroke-width="2" d="M 1003.5,70" />
<path stroke="#000000" stroke-width="2" d="M 1003.5,70 1031.8,41.7 1016.5,78.7" />
<path stroke="#000000" stroke-width="2" d="M 1061.8,70" />
<path stroke="#000000" stroke-width="2" d="M 1077.8,30 1058,49.8 1077.8,69.6" />
<path stroke="#000000" stroke-width="2" d="M 1084.5,70" />
<path stroke="#000000" stroke-width="2" d="M 1084.5,20 1084.5,40 1084.5,34 1084.5,33.1 1084.5,32.3 1084.7,31.4 1084.9,30.6 1085.2,29.7 1085.6,28.9 1086,28.2 1086.5,27.5 1087.1,26.8 1087.7,26.2 1088.4,25.6 1089.1,25.1 1089.8,24.7 1090.6,24.3 1091.5,24 1092.3,23.8 1093.2,23.6 1094,23.6" />
<path stroke="#000000" stroke-width="2" d="M 1124,70" />
<path stroke="#000000" stroke-width="2" d="M 1124,30 1124,70" />
<path stroke="#000000" stroke-width="2" d="M 1130.7,70" />
<path stroke="#000000" stroke-width="2" d="M 1140.7,50 1133,68.5" />
<path stroke="#000000" stroke-width="2" d="M 1170.7,70" />
<path stroke="#000000" stroke-width="2" d="M 1180.7,30 1170.7,30 1170.7,70" />
<path stroke="#000000" stroke-width="2" d="M 1187.4,70" />
<path stroke="#000000" stroke-width="2" d="M 1187.4,50 1191.2,59.2" />
<path stroke="#000000" stroke-width="2" d="M 1191.2,59.2 1193.1,61.4 1194.4,63.3 1195.2,65 1195.5,66.4 1195.4,67.7 1195,68.7 1194.3,69.5 1193.3,70 1192.3,70.4 1191.2,70.5 1190.1,70.4 1189,70 1188.1,69.5 1187.4,68.7 1187,67.7 1186.9,66.4 1187.2,65 1187.9,63.3 1189.3,61.4 1191.2,59.2 1195,50 1195,50.7 1195.1,51.4 1195.2,52.1 1195.4,52.8 1195.6,53.4 1195.9,54 1196.3,54.6 1196.7,55.2 1197.1,55.8 1197.6,56.2 1198.1,56.7 1198.7,57.1 1199.3,57.4 1199.9,57.7 1200.6,58 1201.3,58.2 1202,58.3 1202.7,58.3 1203.4,58.3 1204,58.3 1204.7,58.2 1205.4,58 1206.1,57.7 1206.7,57.4 1207.3,57.1 1207.9,56.7 1208.4,56.2 1208.9,55.8 1209.3,55.2 1209.7,54.6 1210.1,54 1210.4,53.4 1210.6,52.8 1210.8,52.1 1210.9,51.4 1211,50.7 1211.9,50.7 1212.7,50.8 1213.6,50.9 1214.4,51.2 1215.3,51.4 1216,51.8 1216.8,52.3 1217.5,52.8 1218.2,53.3 1218.8,53.9 1219.4,54.6 1219.9,55.3 1220.3,56.1 1220.7,56.9 1221,57.7 1221.2,58.5 1221.3,59.4 1221.4,60.3 1221.4,61.1 1221.3,62 1221.2,62.9 1221,63.7 1220.7,64.5 1220.3,65.3 1219.9,66.1 1219.4,66.8 1218.8,67.4 1218.2,68.1 1217.5,68.6 1216.8,69.1 1216,69.6 1215.3,69.9 1214.4,70.2 1213.6,70.5 1212.7,70.6 1211.9,70.7 1231.9,70.7 1224.2,89.2" />
<path stroke="#000000" stroke-width="2" d="M 1261.9,70" />
<path stroke="#000000" stroke-width="2" d="M 1261.9,40" />
<path stroke="#000000" stroke-width="2" d="M 1261.9,40 1265.9,39.8 1269.2,39.2 1271.6,38.3 1273.4,37.1 1274.5,35.8 1275.1,34.3 1275.2,32.8 1274.8,31.4 1274.1,30 1273.1,28.8 1271.9,27.7 1270.5,27 1269,26.7 1267.5,26.8 1266.1,27.3 1264.7,28.5 1263.6,30.2 1262.7,32.7 1262.1,35.9 1261.9,40 1261.9,70" />
<path stroke="#000000" stroke-width="2" d="M 1281.8,70" />
<path stroke="#000000" stroke-width="2" d="M 1283.8,20 1292.3,28.5" />
<path stroke="#000000" stroke-width="2" d="M 1300.8,20 1281,39.8" />
<path stroke="#000000" stroke-width="2" d="M 1330.8,70" />
<path stroke="#000000" stroke-width="2" d="M 1330.8,70 1346.1,33 1386.1,33" />
<path stroke="#000000" stroke-width="2" d="M 1392.8,70" />
<path stroke="#000000" stroke-width="2" d="M 1416.8,42 1416.8,43 1416.7,44.1 1416.5,45.1 1416.2,46.1 1415.9,47.1 1415.4,48.1 1414.9,49 1414.3,49.8 1413.6,50.6 1412.9,51.4 1412.1,52 1411.2,52.6 1410.3,53.2 1409.4,53.6 1408.4,54 1407.4,54.2 1406.4,54.4 1405.3,54.5 1404.3,54.5 1403.2,54.4 1402.2,54.2 1401.2,54 1400.2,53.6 1399.3,53.2 1398.4,52.6 1397.5,52 1396.7,51.4 1396,50.6 1395.3,49.8 1394.7,49 1394.2,48.1 1393.7,47.1 1393.4,46.1 1393.1,45.1 1392.9,44.1 1392.8,43 1392.8,42 1392.9,41 1393.1,39.9 1393.4,38.9 1393.7,37.9 1394.2,37 1394.7,36.1 1395.3,35.2 1396,34.4 1396.7,33.7 1397.5,33 1398.4,32.4 1399.3,31.9 1400.2,31.4 1401.2,31.1 1402.2,30.8 1403.2,30.6 1404.3,30.5 1405.3,30.5 1406.4,30.6 1407.4,30.8 1408.4,31.1 1409.4,31.4 1410.3,31.9 1411.2,32.4 1412.1,33 1412.9,33.7 1413.6,34.4 1414.3,35.2 1414.9,36.1 1415.4,37 1415.9,37.9 1416.2,38.9 1416.5,39.9 1416.7,41 1416.8,42 1416.8,50" />
<path stroke="#000000" stroke-width="2" d="M 1416.8,50 1416.2,51.7 1415.5,53.4 1414.7,54.9 1413.9,56.3 1413.1,57.6 1412.2,58.7 1411.3,59.8 1410.3,60.8 1409.3,61.7 1408.3,62.5 1407.2,63.2 1406.1,63.8 1405,64.4 1403.9,64.8 1402.7,65.2 1401.6,65.5 1400.4,65.7 1399.2,65.9 1398,66 1396.8,66" />
<path stroke="#000000" stroke-width="2" d="M 1446.8,70" />
<path stroke="#000000" stroke-width="2" d="M 1446.8,70 1447,70 1447,70.2 1446.8,70.2 1446.8,70" />
<path stroke="#000000" stroke-width="2" d="M 1477,70" />
</svg>