<svg xmlns="http://www.w3.org/2000/svg" width="1396.432670638785" height="103.77968045238036" style="fill:none; stroke-linecap:round;">
    <rect width="100%" height="100%" fill="#FFFFFF" />
<path stroke="#000000" stroke-width="2" d="M 550,75" />
<path stroke="#000000" stroke-width="2" d="M 20,30 20,70 40,70" />
<path stroke="#000000" stroke-width="2" d="M 70,70" />
<path stroke="#000000" stroke-width="2" d="M 70,30 70,70" />
<path stroke="#000000" stroke-width="2" d="M 76.7,70" />
<path stroke="#000000" stroke-width="2" d="M 76.7,20 76.7,24 76.7,24.5 76.7,25 76.8,25.6 76.9,26.1 77.1,26.6 77.3,27 77.6,27.5 77.9,27.9 78.2,28.3 78.6,28.7 79,29 79.4,29.3 79.9,29.6 80.4,29.8 80.9,30 81.4,30.1 81.9,30.2 82.4,30.3 82.9,30.3 83.4,30.2 84,30.1 84.5,30 85,29.8 85.4,29.6 85.9,29.3 86.3,29 86.7,28.7 87.1,28.3 87.4,27.9 87.7,27.5 88,27 88.2,26.6 88.4,26.1 88.5,25.6 88.6,25 88.7,24.5 88.7,19.5 88.7,39.5" />
<path stroke="#000000" stroke-width="2" d="M 95.3,70" />
<path stroke="#000000" stroke-width="2" d="M 95.3,20 115.3,20" />
<path stroke="#000000" stroke-width="2" d="M 145.3,70" />
<path stroke="#000000" stroke-width="2" d="M 165.3,30 150,67" />
<path stroke="#000000" stroke-width="2" d="M 172,70" />
<path stroke="#000000" stroke-width="2" d="M 172,70 172,69.3 172,68.6 172.2,67.9 172.4,67.2 172.6,66.6 172.9,66 173.2,65.4 173.6,64.8 174.1,64.2 174.6,63.8 175.1,63.3 175.7,62.9 176.3,62.6 176.9,62.3 177.6,62 178.2,61.8 178.9,61.7 179.6,61.7 180.3,61.7 181,61.7 181.7,61.8 182.4,62 183,62.3 183.7,62.6 184.3,62.9 184.9,63.3 185.4,63.8 185.9,64.2 186.3,64.8 186.7,65.4 187.1,66 187.4,66.6 187.6,67.2 187.8,67.9 187.9,68.6 188,69.3" />
<path stroke="#000000" stroke-width="2" d="M 188,65.3" />
<path stroke="#000000" stroke-width="2" d="M 182,65.3 192,65.3 184.3,83.8" />
<path stroke="#000000" stroke-width="2" d="M 198.6,70" />
<path stroke="#000000" stroke-width="2" d="M 198.6,20 206.3,38.5" />
<path stroke="#000000" stroke-width="2" d="M 206.3,38.5 206.2,36.4 205.9,34.8 205.4,33.6 204.9,32.7 204.2,32.1 203.5,31.9 202.7,31.8 202,32 201.3,32.4 200.7,32.9 200.2,33.5 199.8,34.2 199.6,34.9 199.7,35.6 200,36.4 200.5,37 201.4,37.6 202.6,38.1 204.3,38.4 206.3,38.5 210.3,38.5" />
<path stroke="#000000" stroke-width="2" d="M 210.3,38.5 211.2,38.2 212,37.8 212.7,37.4 213.4,37.1 214.1,36.6 214.7,36.2 215.2,35.7 215.7,35.2 216.1,34.7 216.5,34.2 216.9,33.7 217.2,33.1 217.5,32.6 217.7,32 217.9,31.4 218,30.9 218.2,30.3 218.2,29.7 218.3,29.1 218.3,28.5" />
<path stroke="#000000" stroke-width="2" d="M 225,70" />
<path stroke="#000000" stroke-width="2" d="M 235,20 227.3,38.5" />
<path stroke="#000000" stroke-width="2" d="M 265,70" />
<path stroke="#000000" stroke-width="2" d="M 265,30 265,70 276.3,58.7" />
<path stroke="#000000" stroke-width="2" d="M 282.9,70" />
<path stroke="#000000" stroke-width="2" d="M 292.9,20 285.3,38.5" />
<path stroke="#000000" stroke-width="2" d="M 322.9,70" />
<path stroke="#000000" stroke-width="2" d="M 342.9,30 327.6,67" />
<path stroke="#000000" stroke-width="2" d="M 349.6,70" />
<path stroke="#000000" stroke-width="2" d="M 349.6,50 350.5,50 351.3,50.1 352.2,50.2 353.1,50.5 353.9,50.8 354.7,51.1 355.4,51.6 356.1,52.1 356.8,52.6 357.4,53.2 358,53.9 358.5,54.6 358.9,55.4 359.3,56.2 359.6,57 359.8,57.8 360,58.7 360,59.6 360,60.4 360,61.3 359.8,62.2 359.6,63 359.3,63.8 358.9,64.6 358.5,65.4 358,66.1 357.4,66.7 356.8,67.4 356.1,67.9 355.4,68.4 354.7,68.9 353.9,69.2 353.1,69.5 352.2,69.8 351.3,69.9 350.5,70" />
<path stroke="#000000" stroke-width="2" d="M 366.7,70" />
<path stroke="#000000" stroke-width="2" d="M 366.7,50 386.7,50" />
<path stroke="#000000" stroke-width="2" d="M 393.4,70" />
<path stroke="#000000" stroke-width="2" d="M 413.4,20 393.6,39.8" />
<path stroke="#000000" stroke-width="2" d="M 393.6,19.8 413.4,39.6 405.7,58.1" />
<path stroke="#000000" stroke-width="2" d="M 443.4,70" />
<path stroke="#000000" stroke-width="2" d="M 443.4,30 443.4,70 454.7,58.7" />
<path stroke="#000000" stroke-width="2" d="M 461.3,70" />
<path stroke="#000000" stroke-width="2" d="M 461.3,20 481.3,20" />
<path stroke="#000000" stroke-width="2" d="M 511.3,70" />
<path stroke="#000000" stroke-width="2" d="M 511.3,30 511.3,70 531.3,70" />
<path stroke="#000000" stroke-width="2" d="M 561.3,70" />
<path stroke="#000000" stroke-width="2" d="M 561.3,30 561.3,70 572.7,58.7" />
<path stroke="#000000" stroke-width="2" d="M 579.3,70" />
<path stroke="#000000" stroke-width="2" d="M 579.3,25" />
<path stroke="#000000" stroke-width="2" d="M 579.3,25 581.4,24.9 583,24.6 584.2,24.1 585.1,23.6 585.7,22.9 585.9,22.2 586,21.4 585.8,20.7 585.5,20 585,19.4 584.3,18.9 583.6,18.5 582.9,18.3 582.2,18.4 581.4,18.7 580.8,19.2 580.2,20.1 579.7,21.4 579.4,23 579.3,25 579.3,40" />
<path stroke="#000000" stroke-width="2" d="M 616,70" />
<path stroke="#000000" stroke-width="2" d="M 616,30 616,50 616,50.7 616,51.4 616.2,52.1 616.3,52.8 616.6,53.4 616.9,54 617.2,54.6 617.6,55.2 618.1,55.8 618.6,56.2 619.1,56.7 619.7,57.1 620.3,57.4 620.9,57.7 621.6,58 622.2,58.2 622.9,58.3 623.6,58.3 624.3,58.3 625,58.3 625.7,58.2 626.4,58 627,57.7 627.7,57.4 628.3,57.1 628.8,56.7 629.4,56.2 629.9,55.8 630.3,55.2 630.7,54.6 631.1,54 631.4,53.4 631.6,52.8 631.8,52.1 631.9,51.4 632,50.7" />
<path stroke="#000000" stroke-width="2" d="M 638.6,70" />
<path stroke="#000000" stroke-width="2" d="M 638.6,30 658.6,30 659.5,30 660.4,30.1 661.2,30.2 662.1,30.5 662.9,30.8 663.7,31.1 664.4,31.6 665.2,32.1 665.8,32.6 666.4,33.2 667,33.9 667.5,34.6 667.9,35.4 668.3,36.2 668.6,37 668.8,37.8 669,38.7 669.1,39.6 669.1,40.4 669,41.3 668.8,42.2 668.6,43 668.3,43.8 667.9,44.6 667.5,45.4 667,46.1 666.4,46.7 665.8,47.4 665.2,47.9 664.4,48.4 663.7,48.9 662.9,49.2 662.1,49.5 661.2,49.8 660.4,49.9 659.5,50 660.4,50 661.2,50.1 662.1,50.2 662.9,50.4 663.8,50.7 664.6,51.1 665.3,51.5 666,52 666.7,52.6 667.3,53.2 667.9,53.9 668.4,54.6 668.8,55.4 669.2,56.1 669.5,57 669.7,57.8 669.9,58.7 669.9,59.5 669.9,60.4 669.9,61.3 669.7,62.1 669.5,63 669.2,63.8 668.8,64.6 668.4,65.3 667.9,66.1 667.3,66.7 666.7,67.3 666,67.9 665.3,68.4 664.6,68.8 663.8,69.2 662.9,69.5 662.1,69.7 661.2,69.9 660.4,70" />
<path stroke="#000000" stroke-width="2" d="M 699.9,70" />
<path stroke="#000000" stroke-width="2" d="M 699.9,30 699.9,70" />
<path stroke="#000000" stroke-width="2" d="M 706.6,70" />
<path stroke="#000000" stroke-width="2" d="M 706.6,30 706.8,30 706.8,30.2 706.6,30.2 706.6,30" />
<path stroke="#000000" stroke-width="2" d="M 736.8,70" />
<path stroke="#000000" stroke-width="2" d="M 736.8,40 737,40 737,40.2 736.8,40.2 736.8,40" />
<path stroke="#000000" stroke-width="2" d="M 743.7,70" />
<path stroke="#000000" stroke-width="2" d="M 743.7,30 743.7,70 743.7,62 743.7,60.3 743.8,58.5 744.1,56.8 744.6,55.1 745.2,53.5 745.9,51.9 746.8,50.4 747.8,49 748.9,47.6 750.1,46.4 751.5,45.3 752.9,44.3" />
<path stroke="#000000" stroke-width="2" d="M 759.6,70" />
<path stroke="#000000" stroke-width="2" d="M 779.6,30 764.3,67" />
<path stroke="#000000" stroke-width="2" d="M 809.6,70" />
<path stroke="#000000" stroke-width="2" d="M 809.6,30 814.6,30 814.6,50 814.6,50.7 814.6,51.4 814.8,52.1 814.9,52.8 815.2,53.4 815.5,54 815.8,54.6 816.2,55.2 816.7,55.8 817.2,56.2 817.7,56.7 818.3,57.1 818.9,57.4 819.5,57.7 820.2,58 820.8,58.2 821.5,58.3 822.2,58.3 822.9,58.3 823.6,58.3 824.3,58.2 825,58 825.6,57.7 826.3,57.4 826.9,57.1 827.4,56.7 828,56.2 828.5,55.8 828.9,55.2 829.3,54.6 829.7,54 830,53.4 830.2,52.8 830.4,52.1 830.5,51.4 830.6,50.7" />
<path stroke="#000000" stroke-width="2" d="M 837.2,70" />
<path stroke="#000000" stroke-width="2" d="M 845.2,20 845.2,35" />
<path stroke="#000000" stroke-width="2" d="M 845.2,35 845.1,37 844.8,38.6 844.4,39.9 843.8,40.8 843.1,41.3 842.4,41.6 841.6,41.7 840.9,41.5 840.2,41.1 839.6,40.6 839.1,40 838.7,39.3 838.6,38.6 838.6,37.8 838.9,37.1 839.5,36.4 840.3,35.9 841.6,35.4 843.2,35.1 845.2,35" />
<path stroke="#000000" stroke-width="2" d="M 875.2,70" />
<path stroke="#000000" stroke-width="2" d="M 885.2,30 884.3,30 883.5,30.1 882.6,30.2 881.8,30.5 881,30.8 880.2,31.1 879.4,31.6 878.7,32.1 878,32.6 877.4,33.2 876.8,33.9 876.3,34.6 875.9,35.4 875.5,36.2 875.2,37 875,37.8 874.9,38.7 874.8,39.6 874.8,40.4 874.9,41.3 875,42.2 875.2,43 875.5,43.8 875.9,44.6 876.3,45.4 876.8,46.1 877.4,46.7 878,47.4 878.7,47.9 879.4,48.4 880.2,48.9 881,49.2 881.8,49.5 882.6,49.8 883.5,49.9 884.3,50 889.3,50 889.3,70" />
<path stroke="#000000" stroke-width="2" d="M 919.3,70" />
<path stroke="#000000" stroke-width="2" d="M 919.3,30 919.3,31.4 919.5,32.8 919.7,34.2 920.1,35.5 920.5,36.8 921.1,38.1 921.8,39.3 922.6,40.4 923.5,41.5 924.5,42.5 925.6,43.4 926.7,44.2 927.9,44.9 929.2,45.5 930.5,46 931.9,46.3 933.2,46.6 934.6,46.7 936,46.7 937.4,46.6 938.8,46.3 940.1,46 941.5,45.5 942.7,44.9 943.9,44.2 945.1,43.4 946.1,42.5 947.1,41.5 948,40.4 948.8,39.3 949.5,38.1 950.1,36.8 950.6,35.5 951,34.2 951.2,32.8 951.3,31.4" />
<path stroke="#000000" stroke-width="2" d="M 958,70" />
<path stroke="#000000" stroke-width="2" d="M 978,30 962.7,67" />
<path stroke="#000000" stroke-width="2" d="M 1008,70" />
<path stroke="#000000" stroke-width="2" d="M 1008,70 1008.2,70 1008.2,70.2 1008,70.2 1008,70" />
<path stroke="#000000" stroke-width="2" d="M 1038.2,70" />
<path stroke="#000000" stroke-width="2" d="M 1038.2,30 1038.2,50 1048.2,50 1040.5,68.5" />
<path stroke="#000000" stroke-width="2" d="M 1078.2,70" />
<path stroke="#000000" stroke-width="2" d="M 1078.2,30 1079.9,30 1081.7,30.2 1083.4,30.5 1085.1,30.9 1086.7,31.5 1088.3,32.2 1089.8,33.1 1091.2,34.1 1092.6,35.2 1093.8,36.5 1094.9,37.8 1095.9,39.2 1096.8,40.7 1097.5,42.3 1098.1,44 1098.6,45.7 1098.9,47.4 1099,49.1 1099,50.9 1098.9,52.6 1098.6,54.3 1098.1,56 1097.5,57.6 1096.8,59.2 1095.9,60.7 1094.9,62.2 1093.8,63.5 1092.6,64.7 1091.2,65.8 1089.8,66.8 1088.3,67.7 1086.7,68.5 1085.1,69.1 1083.4,69.5 1081.7,69.8 1079.9,70" />
<path stroke="#000000" stroke-width="2" d="M 1105.7,70" />
<path stroke="#000000" stroke-width="2" d="M 1105.7,30 1113.4,48.5 1114.2,48.5 1115.1,48.6 1116,48.7 1116.8,48.9 1117.6,49.2 1118.4,49.6 1119.2,50 1119.9,50.5 1120.5,51.1 1121.2,51.7 1121.7,52.4 1122.2,53.1 1122.7,53.9 1123,54.6 1123.3,55.5 1123.6,56.3 1123.7,57.2 1123.8,58 1123.8,58.9 1123.7,59.8 1123.6,60.6 1123.3,61.5 1123,62.3 1122.7,63.1 1122.2,63.8 1121.7,64.6 1121.2,65.2 1120.5,65.8 1119.9,66.4 1119.2,66.9 1118.4,67.3 1117.6,67.7 1116.8,68 1116,68.2 1115.1,68.4 1114.2,68.5" />
<path stroke="#000000" stroke-width="2" d="M 1153.8,70" />
<path stroke="#000000" stroke-width="2" d="M 1153.8,50 1161.4,31.5 1166.4,31.5 1166.4,51.5 1158.8,70 1161.1,64.5 1161.4,63.7 1161.8,62.9 1162.3,62.1 1162.8,61.4 1163.4,60.8 1164,60.2 1164.7,59.7 1165.5,59.2 1166.3,58.8 1167.1,58.5 1167.9,58.2 1168.7,58" />
<path stroke="#000000" stroke-width="2" d="M 1198.7,70" />
<path stroke="#000000" stroke-width="2" d="M 1198.7,40 1198.9,40 1198.9,40.2 1198.7,40.2 1198.7,40" />
<path stroke="#000000" stroke-width="2" d="M 1205.6,70" />
<path stroke="#000000" stroke-width="2" d="M 1205.6,30 1215.6,30 1215.6,70" />
<path stroke="#000000" stroke-width="2" d="M 1222.3,70" />
<path stroke="#000000" stroke-width="2" d="M 1222.3,55" />
<path stroke="#000000" stroke-width="2" d="M 1222.3,55 1224.3,54.9 1225.9,54.6 1227.2,54.1 1228,53.6 1228.6,52.9 1228.9,52.2 1228.9,51.4 1228.8,50.7 1228.4,50 1227.9,49.4 1227.3,48.9 1226.6,48.5 1225.9,48.3 1225.1,48.4 1224.4,48.7 1223.7,49.2 1223.1,50.1 1222.7,51.4 1222.4,53 1222.3,55 1222.3,70" />
<path stroke="#000000" stroke-width="2" d="M 1235.6,70" />
<path stroke="#000000" stroke-width="2" d="M 1235.6,40 1235.6,39.3 1235.7,38.6 1235.8,37.9 1236,37.2 1236.2,36.6 1236.5,36 1236.8,35.4 1237.2,34.8 1237.7,34.2 1238.2,33.8 1238.7,33.3 1239.3,32.9 1239.9,32.6 1240.5,32.3 1241.2,32 1241.9,31.8 1242.5,31.7 1243.2,31.7 1243.9,31.7 1244.6,31.7 1245.3,31.8 1246,32 1246.6,32.3 1247.3,32.6 1247.9,32.9 1248.5,33.3 1249,33.8 1249.5,34.2 1249.9,34.8 1250.3,35.4 1250.7,36 1251,36.6 1251.2,37.2 1251.4,37.9 1251.5,38.6 1251.6,39.3" />
<path stroke="#000000" stroke-width="2" d="M 1251.6,35.3" />
<path stroke="#000000" stroke-width="2" d="M 1245.6,35.3 1255.6,35.3 1256.5,35.3 1257.3,35.4 1258.2,35.5 1259,35.8 1259.8,36.1 1260.6,36.4 1261.4,36.9 1262.1,37.4 1262.8,37.9 1263.4,38.5 1263.9,39.2 1264.4,39.9 1264.9,40.7 1265.3,41.5 1265.6,42.3 1265.8,43.1 1265.9,44 1266,44.9 1266,45.7 1265.9,46.6 1265.8,47.5 1265.6,48.3 1265.3,49.1 1264.9,49.9 1264.4,50.7 1263.9,51.4 1263.4,52 1262.8,52.7 1262.1,53.2 1261.4,53.7 1260.6,54.2 1259.8,54.5 1259,54.8 1258.2,55.1 1257.3,55.2 1256.5,55.3" />
<path stroke="#000000" stroke-width="2" d="M 1256.5,55.3 1258.5,55.2 1260.1,54.9 1261.3,54.4 1262.2,53.8 1262.8,53.2 1263.1,52.4 1263.1,51.7 1262.9,51 1262.6,50.3 1262.1,49.7 1261.5,49.2 1260.8,48.8 1260,48.6 1259.3,48.7 1258.6,49 1257.9,49.5 1257.3,50.4 1256.9,51.6 1256.6,53.3 1256.5,55.3 1256.5,70.3" />
<path stroke="#000000" stroke-width="2" d="M 1296,70" />
<path stroke="#000000" stroke-width="2" d="M 1296,30 1316,30 1316.9,30 1317.7,30.1 1318.6,30.2 1319.4,30.5 1320.3,30.8 1321.1,31.1 1321.8,31.6 1322.5,32.1 1323.2,32.6 1323.8,33.2 1324.4,33.9 1324.9,34.6 1325.3,35.4 1325.7,36.2 1326,37 1326.2,37.8 1326.4,38.7 1326.4,39.6 1326.4,40.4 1326.4,41.3 1326.2,42.2 1326,43 1325.7,43.8 1325.3,44.6 1324.9,45.4 1324.4,46.1 1323.8,46.7 1323.2,47.4 1322.5,47.9 1321.8,48.4 1321.1,48.9 1320.3,49.2 1319.4,49.5 1318.6,49.8 1317.7,49.9 1316.9,50" />
<path stroke="#000000" stroke-width="2" d="M 1356.4,70" />
<path stroke="#000000" stroke-width="2" d="M 1356.4,30 1356.4,70 1376.4,70" />
<path stroke="#000000" stroke-width="2" d="M 1406.4,70" />
</svg>