<svg xmlns="http://www.w3.org/2000/svg" width="1036.599712762682" height="102.0" style="fill:none; stroke-linecap:round;">
    <rect width="100%" height="100%" fill="#FFFFFF" />
<path stroke="#000000" stroke-width="2" d="M 550,75" />
<path stroke="#000000" stroke-width="2" d="M 20,40 20.2,40 20.2,40.2 20,40.2 20,40" />
<path stroke="#000000" stroke-width="2" d="M 26.9,70" />
<path stroke="#000000" stroke-width="2" d="M 28.9,50 34.2,37.1 34.4,36.7 34.5,36.4 34.5,36.1 34.6,35.7 34.6,35.4 34.6,35 34.5,34.7 34.5,34.3 34.4,34 34.2,33.7 34.1,33.4 33.9,33.1 33.7,32.8 33.4,32.5 33.2,32.3 32.9,32.1 32.6,31.9 32.3,31.7 32,31.6 31.6,31.5 31.3,31.4 30.9,31.4 30.6,31.4 30.3,31.4 29.9,31.4 29.6,31.5 29.2,31.6 28.9,31.7 28.6,31.9 28.3,32.1 28,32.3 27.8,32.5 27.5,32.8 27.3,33.1 27.1,33.4 27,33.7 26.8,34 26.7,34.3 26.7,34.7 26.6,35 26.6,35.4 26.6,35.7 26.7,36.1 26.7,36.4 26.8,36.7 27,37.1 27.1,37.4 27.3,37.7 27.5,37.9 27.8,38.2 28,38.4 28.3,38.7 28.6,38.8 28.9,39 29.2,39.1 29.6,39.2 29.9,39.3 30.3,39.4 30.6,39.4 30.9,39.4 43.9,34 43.9,34.7 43.9,35.4 44.1,36.1 44.2,36.8 44.5,37.4 44.8,38 45.1,38.6 45.5,39.2 46,39.8 46.5,40.2 47,40.7 47.6,41.1 48.2,41.4 48.8,41.7 49.5,42 50.1,42.2 50.8,42.3 51.5,42.3 52.2,42.3 52.9,42.3 53.6,42.2 54.3,42 54.9,41.7 55.6,41.4 56.2,41.1 56.7,40.7 57.3,40.2 57.8,39.8 58.2,39.2 58.6,38.6 59,38 59.3,37.4 59.5,36.8 59.7,36.1 59.8,35.4 59.9,34.7 60.7,34.7 61.6,34.8 62.5,34.9 63.3,35.2 64.1,35.5 64.9,35.8 65.7,36.3 66.4,36.8 67.1,37.3 67.7,37.9 68.2,38.6 68.7,39.3 69.2,40.1 69.5,40.9 69.8,41.7 70.1,42.5 70.2,43.4 70.3,44.3 70.3,45.1 70.2,46 70.1,46.9 69.8,47.7 69.5,48.5 69.2,49.3 68.7,50.1 68.2,50.8 67.7,51.4 67.1,52.1 66.4,52.6 65.7,53.1 64.9,53.6 64.1,53.9 63.3,54.2 62.5,54.5 61.6,54.6 60.7,54.7" />
<path stroke="#000000" stroke-width="2" d="M 77,70" />
<path stroke="#000000" stroke-width="2" d="M 77,20 77,40 77,34 77,33.1 77,32.3 77.2,31.4 77.4,30.6 77.7,29.7 78.1,28.9 78.5,28.2 79,27.5 79.6,26.8 80.2,26.2 80.9,25.6 81.6,25.1 82.3,24.7 83.1,24.3 83.9,24 84.8,23.8 85.6,23.6 86.5,23.6" />
<path stroke="#000000" stroke-width="2" d="M 116.5,70" />
<path stroke="#000000" stroke-width="2" d="M 126.5,30 127,30 127.6,30 128.1,30.1 128.6,30.3 129.1,30.5 129.5,30.7 130,30.9 130.4,31.2 130.8,31.6 131.2,31.9 131.5,32.3 131.8,32.8 132.1,33.2 132.3,33.7 132.5,34.2 132.6,34.7 132.7,35.2 132.8,35.7 132.8,36.3 132.7,36.8 132.6,37.3 132.5,37.8 132.3,38.3 132.1,38.8 131.8,39.2 131.5,39.6 131.2,40 130.8,40.4 130.4,40.8 130,41.1 129.5,41.3 129.1,41.5 128.6,41.7 128.1,41.9 127.6,41.9 127,42 126.5,42 126,41.9 125.5,41.9 125,41.7 124.5,41.5 124,41.3 123.6,41.1 123.1,40.8 122.7,40.4 122.4,40 122,39.6 121.7,39.2 121.5,38.8 121.2,38.3 121.1,37.8 120.9,37.3 120.8,36.8 120.8,36.3 120.8,35.7 120.8,35.2 120.9,34.7 121.1,34.2 121.2,33.7 121.5,33.2 121.7,32.8 122,32.3 122.4,31.9 122.7,31.6 123.1,31.2 123.6,30.9 124,30.7 124.5,30.5 125,30.3 125.5,30.1 126,30 126.5,30 126.5,50 118.9,68.5 121.2,62.9 121.5,62.1 121.9,61.4 122.4,60.6 122.9,59.9 123.5,59.3 124.1,58.7 124.8,58.2 125.6,57.7 126.3,57.3 127.1,57 128,56.7 128.8,56.5" />
<path stroke="#000000" stroke-width="2" d="M 162.8,70" />
<path stroke="#000000" stroke-width="2" d="M 182.8,30 167.5,67" />
<path stroke="#000000" stroke-width="2" d="M 189.4,70" />
<path stroke="#000000" stroke-width="2" d="M 189.4,70 189.4,69.3 189.5,68.6 189.6,67.9 189.8,67.2 190,66.6 190.3,66 190.7,65.4 191.1,64.8 191.5,64.2 192,63.8 192.6,63.3 193.1,62.9 193.7,62.6 194.4,62.3 195,62 195.7,61.8 196.4,61.7 197.1,61.7 197.8,61.7 198.5,61.7 199.2,61.8 199.8,62 200.5,62.3 201.1,62.6 201.7,62.9 202.3,63.3 202.8,63.8 203.3,64.2 203.8,64.8 204.2,65.4 204.5,66 204.8,66.6 205.1,67.2 205.2,67.9 205.4,68.6 205.4,69.3" />
<path stroke="#000000" stroke-width="2" d="M 235.4,70" />
<path stroke="#000000" stroke-width="2" d="M 245.4,30 244.5,30 243.7,30.1 242.8,30.2 242,30.5 241.2,30.8 240.4,31.1 239.6,31.6 238.9,32.1 238.2,32.6 237.6,33.2 237.1,33.9 236.6,34.6 236.1,35.4 235.7,36.2 235.4,37 235.2,37.8 235.1,38.7 235,39.6 235,40.4 235.1,41.3 235.2,42.2 235.4,43 235.7,43.8 236.1,44.6 236.6,45.4 237.1,46.1 237.6,46.7 238.2,47.4 238.9,47.9 239.6,48.4 240.4,48.9 241.2,49.2 242,49.5 242.8,49.8 243.7,49.9 244.5,50 264.5,50" />
<path stroke="#000000" stroke-width="2" d="M 294.5,70" />
<path stroke="#000000" stroke-width="2" d="M 294.5,30 294.5,70 294.5,58 294.5,56.3 294.7,54.5 295,52.8 295.5,51.1 296.1,49.5 296.8,47.9 297.7,46.4 298.7,45 299.8,43.6 301,42.4 302.4,41.3 303.8,40.3 305.3,39.4 306.9,38.7 308.5,38.1 310.2,37.6 311.9,37.3 313.7,37.1" />
<path stroke="#000000" stroke-width="2" d="M 320.3,70" />
<path stroke="#000000" stroke-width="2" d="M 320.3,25" />
<path stroke="#000000" stroke-width="2" d="M 320.3,25 322.4,24.9 324,24.6 325.2,24.1 326.1,23.6 326.7,22.9 326.9,22.2 327,21.4 326.8,20.7 326.5,20 325.9,19.4 325.3,18.9 324.6,18.5 323.9,18.3 323.2,18.4 322.4,18.7 321.8,19.2 321.2,20.1 320.7,21.4 320.4,23 320.3,25 320.3,40" />
<path stroke="#000000" stroke-width="2" d="M 320.3,40 320.2,42 319.9,43.6 319.5,44.9 318.9,45.8 318.2,46.3 317.5,46.6 316.7,46.7 316,46.5 315.3,46.1 314.7,45.6 314.2,45 313.8,44.3 313.7,43.6 313.7,42.8 314,42.1 314.6,41.4 315.4,40.9 316.7,40.4 318.3,40.1 320.3,40 330.3,40" />
<path stroke="#000000" stroke-width="2" d="M 337,70" />
<path stroke="#000000" stroke-width="2" d="M 337,50 357,50" />
<path stroke="#000000" stroke-width="2" d="M 357,50 359,49.9 360.6,49.6 361.9,49.1 362.8,48.6 363.3,47.9 363.6,47.2 363.6,46.4 363.5,45.7 363.1,45 362.6,44.4 362,43.9 361.3,43.5 360.6,43.3 359.8,43.4 359.1,43.7 358.4,44.2 357.9,45.1 357.4,46.4 357.1,48 357,50 357,65" />
<path stroke="#000000" stroke-width="2" d="M 370.3,70" />
<path stroke="#000000" stroke-width="2" d="M 370.3,30 370.3,70" />
<path stroke="#000000" stroke-width="2" d="M 377,70" />
<path stroke="#000000" stroke-width="2" d="M 377,30 377,31.4 377.1,32.8 377.3,34.2 377.7,35.5 378.2,36.8 378.8,38.1 379.5,39.3 380.3,40.4 381.2,41.5 382.2,42.5 383.2,43.4 384.4,44.2 385.6,44.9 386.8,45.5 388.2,46 389.5,46.3 390.9,46.6 392.3,46.7 393.7,46.7 395.1,46.6 396.4,46.3 397.8,46 399.1,45.5 400.4,44.9 401.6,44.2 402.7,43.4 403.8,42.5 404.8,41.5 405.7,40.4 406.5,39.3 407.2,38.1 407.7,36.8 408.2,35.5 408.6,34.2 408.8,32.8 408.9,31.4" />
<path stroke="#000000" stroke-width="2" d="M 415.6,70" />
<path stroke="#000000" stroke-width="2" d="M 435.6,30 420.3,67" />
<path stroke="#000000" stroke-width="2" d="M 442.3,70" />
<path stroke="#000000" stroke-width="2" d="M 442.3,30 442.5,30 442.5,30.2 442.3,30.2 442.3,30" />
<path stroke="#000000" stroke-width="2" d="M 472.5,70" />
<path stroke="#000000" stroke-width="2" d="M 472.5,30 482.5,30 482.5,70" />
<path stroke="#000000" stroke-width="2" d="M 489.1,70" />
<path stroke="#000000" stroke-width="2" d="M 489.1,50 489.1,70 489.1,64 489.1,63.1 489.2,62.3 489.4,61.4 489.6,60.6 489.9,59.7 490.3,58.9 490.7,58.2 491.2,57.5 491.8,56.8 492.4,56.2 493.1,55.6 493.8,55.1 494.5,54.7 495.3,54.3 496.1,54 497,53.8 497.8,53.6 498.7,53.6" />
<path stroke="#000000" stroke-width="2" d="M 528.7,70" />
<path stroke="#000000" stroke-width="2" d="M 528.7,30 528.7,70" />
<path stroke="#000000" stroke-width="2" d="M 535.4,70" />
<path stroke="#000000" stroke-width="2" d="M 545.4,70 546.2,70 547.1,69.9 548,69.8 548.8,69.5 549.6,69.2 550.4,68.9 551.2,68.4 551.9,67.9 552.6,67.4 553.2,66.8 553.7,66.1 554.2,65.4 554.7,64.6 555,63.8 555.3,63 555.6,62.2 555.7,61.3 555.8,60.4 555.8,59.6 555.7,58.7 555.6,57.8 555.3,57 555,56.2 554.7,55.4 554.2,54.6 553.7,53.9 553.2,53.3 552.6,52.6 551.9,52.1 551.2,51.6 550.4,51.1 549.6,50.8 548.8,50.5 548,50.2 547.1,50.1 546.2,50 545.4,50 544.5,50.1 543.6,50.2 542.8,50.5 542,50.8 541.2,51.1 540.4,51.6 539.7,52.1 539,52.6 538.4,53.3 537.9,53.9 537.4,54.6 536.9,55.4 536.6,56.2 536.3,57 536,57.8 535.9,58.7 535.8,59.6 535.8,60.4 535.9,61.3 536,62.2 536.3,63 536.6,63.8 536.9,64.6 537.4,65.4 537.9,66.1 538.4,66.8 539,67.4 539.7,67.9 540.4,68.4 541.2,68.9 542,69.2 542.8,69.5 543.6,69.8 544.5,69.9 545.4,70" />
<path stroke="#000000" stroke-width="2" d="M 585.8,70" />
<path stroke="#000000" stroke-width="2" d="M 585.8,40" />
<path stroke="#000000" stroke-width="2" d="M 585.8,40 589.9,39.8 593.1,39.2 595.5,38.3 597.3,37.1 598.5,35.8 599,34.3 599.1,32.8 598.8,31.4 598,30 597,28.8 595.8,27.7 594.4,27 593,26.7 591.5,26.8 590,27.3 588.7,28.5 587.5,30.2 586.6,32.7 586,35.9 585.8,40 585.8,70" />
<path stroke="#000000" stroke-width="2" d="M 605.8,70" />
<path stroke="#000000" stroke-width="2" d="M 605.8,50 625.8,50" />
<path stroke="#000000" stroke-width="2" d="M 655.8,70" />
<path stroke="#000000" stroke-width="2" d="M 655.8,30 675.8,30 676.6,30 677.5,30.1 678.4,30.2 679.2,30.5 680,30.8 680.8,31.1 681.6,31.6 682.3,32.1 683,32.6 683.6,33.2 684.1,33.9 684.6,34.6 685.1,35.4 685.4,36.2 685.7,37 686,37.8 686.1,38.7 686.2,39.6 686.2,40.4 686.1,41.3 686,42.2 685.7,43 685.4,43.8 685.1,44.6 684.6,45.4 684.1,46.1 683.6,46.7 683,47.4 682.3,47.9 681.6,48.4 680.8,48.9 680,49.2 679.2,49.5 678.4,49.8 677.5,49.9 676.6,50" />
<path stroke="#000000" stroke-width="2" d="M 716.2,70" />
<path stroke="#000000" stroke-width="2" d="M 716.2,30 731.5,67" />
<path stroke="#000000" stroke-width="2" d="M 738.2,70" />
<path stroke="#000000" stroke-width="2" d="M 738.2,50 758.2,50" />
<path stroke="#000000" stroke-width="2" d="M 788.2,70" />
<path stroke="#000000" stroke-width="2" d="M 788.2,70" />
<path stroke="#000000" stroke-width="2" d="M 788.2,70 789.3,70 790.3,70.2 791.1,70.4 791.8,70.7 792.4,71 792.8,71.5 793.2,71.9 793.4,72.5 793.4,73.1 793.4,73.8 793.3,74.4 793.1,75.2 792.7,76 792.3,76.8 791.8,77.6 791.2,78.4 790.6,79.3 789.8,80.2 789,81.1 788.2,82" />
<path stroke="#000000" stroke-width="2" d="M 823.4,70" />
<path stroke="#000000" stroke-width="2" d="M 823.4,30 843.4,30 844.3,30 845.2,30.1 846,30.2 846.9,30.5 847.7,30.8 848.5,31.1 849.3,31.6 850,32.1 850.6,32.6 851.3,33.2 851.8,33.9 852.3,34.6 852.8,35.4 853.1,36.2 853.4,37 853.6,37.8 853.8,38.7 853.9,39.6 853.9,40.4 853.8,41.3 853.6,42.2 853.4,43 853.1,43.8 852.8,44.6 852.3,45.4 851.8,46.1 851.3,46.7 850.6,47.4 850,47.9 849.3,48.4 848.5,48.9 847.7,49.2 846.9,49.5 846,49.8 845.2,49.9 844.3,50" />
<path stroke="#000000" stroke-width="2" d="M 883.9,70" />
<path stroke="#000000" stroke-width="2" d="M 899.9,30 880.1,49.8 899.9,69.6" />
<path stroke="#000000" stroke-width="2" d="M 906.5,70" />
<path stroke="#000000" stroke-width="2" d="M 906.5,20 906.5,40 906.5,34 906.5,33.1 906.6,32.3 906.8,31.4 907,30.6 907.3,29.7 907.7,28.9 908.1,28.2 908.6,27.5 909.2,26.8 909.8,26.2 910.4,25.6 911.2,25.1 911.9,24.7 912.7,24.3 913.5,24 914.4,23.8 915.2,23.6 916.1,23.6 923.7,42.1" />
<path stroke="#000000" stroke-width="2" d="M 930.4,70" />
<path stroke="#000000" stroke-width="2" d="M 930.4,50 950.4,50" />
<path stroke="#000000" stroke-width="2" d="M 957.1,70" />
<path stroke="#000000" stroke-width="2" d="M 957.1,30 957.3,30 957.3,30.2 957.1,30.2 957.1,30" />
<path stroke="#000000" stroke-width="2" d="M 987.3,70" />
<path stroke="#000000" stroke-width="2" d="M 1003.3,30 983.5,49.8 1003.3,69.6" />
<path stroke="#000000" stroke-width="2" d="M 1009.9,70" />
<path stroke="#000000" stroke-width="2" d="M 1009.9,25" />
<path stroke="#000000" stroke-width="2" d="M 1009.9,25 1012,24.9 1013.6,24.6 1014.8,24.1 1015.7,23.6 1016.3,22.9 1016.6,22.2 1016.6,21.4 1016.4,20.7 1016.1,20 1015.6,19.4 1015,18.9 1014.3,18.5 1013.5,18.3 1012.8,18.4 1012.1,18.7 1011.4,19.2 1010.8,20.1 1010.4,21.4 1010.1,23 1009.9,25 1009.9,40" />
<path stroke="#000000" stroke-width="2" d="M 1046.6,70" />
</svg>