<svg xmlns="http://www.w3.org/2000/svg" width="1023.4364710649924" height="108.47759065022574" style="fill:none; stroke-linecap:round;">
    <rect width="100%" height="100%" fill="#FFFFFF" />
<path stroke="#000000" stroke-width="2" d="M 550,75" />
<path stroke="#000000" stroke-width="2" d="M 20,70 20.2,70 20.2,70.2 20,70.2 20,70" />
<path stroke="#000000" stroke-width="2" d="M 26.9,70" />
<path stroke="#000000" stroke-width="2" d="M 26.9,30 42.2,67" />
<path stroke="#000000" stroke-width="2" d="M 48.8,70" />
<path stroke="#000000" stroke-width="2" d="M 48.8,55" />
<path stroke="#000000" stroke-width="2" d="M 48.8,55 50.9,54.9 52.5,54.6 53.7,54.1 54.6,53.6 55.2,52.9 55.5,52.2 55.5,51.4 55.3,50.7 55,50 54.5,49.4 53.9,48.9 53.2,48.5 52.4,48.3 51.7,48.4 51,48.7 50.3,49.2 49.7,50.1 49.2,51.4 48.9,53 48.8,55 48.8,70 41.2,88.5" />
<path stroke="#000000" stroke-width="2" d="M 85.5,70" />
<path stroke="#000000" stroke-width="2" d="M 101.5,30" />
<path stroke="#000000" stroke-width="2" d="M 101.5,30 101.3,34.1 100.7,37.3 99.8,39.8 98.6,41.5 97.3,42.7 95.8,43.2 94.3,43.3 92.9,43 91.5,42.3 90.2,41.2 89.2,40 88.5,38.6 88.2,37.2 88.3,35.7 88.8,34.2 90,32.9 91.7,31.7 94.2,30.8 97.4,30.2 101.5,30 121.5,30" />
<path stroke="#000000" stroke-width="2" d="M 128.2,70" />
<path stroke="#000000" stroke-width="2" d="M 128.2,50 128.2,70 133.8,64.3" />
<path stroke="#000000" stroke-width="2" d="M 140.5,70" />
<path stroke="#000000" stroke-width="2" d="M 140.5,20 140.5,40 140.5,34 140.5,33.1 140.6,32.3 140.7,31.4 140.9,30.6 141.2,29.7 141.6,28.9 142,28.2 142.5,27.5 143.1,26.8 143.7,26.2 144.4,25.6 145.1,25.1 145.9,24.7 146.6,24.3 147.5,24 148.3,23.8 149.2,23.6 150,23.6 155,23.6 155,43.6" />
<path stroke="#000000" stroke-width="2" d="M 155,33.6" />
<path stroke="#000000" stroke-width="2" d="M 151,33.6 159,33.6" />
<path stroke="#000000" stroke-width="2" d="M 189,70" />
<path stroke="#000000" stroke-width="2" d="M 189,30 204.3,67" />
<path stroke="#000000" stroke-width="2" d="M 211,70" />
<path stroke="#000000" stroke-width="2" d="M 221,20 221,40 211,40" />
<path stroke="#000000" stroke-width="2" d="M 227.7,70" />
<path stroke="#000000" stroke-width="2" d="M 227.7,70 227.7,68.6 227.8,67.2 228,65.8 228.4,64.5 228.9,63.2 229.5,61.9 230.2,60.7 231,59.6 231.9,58.5 232.9,57.5 233.9,56.6 235.1,55.8 236.3,55.1 237.5,54.5 238.9,54 240.2,53.7 241.6,53.4 243,53.3 244.4,53.3 245.8,53.4 247.1,53.7 248.5,54 249.8,54.5 251.1,55.1 252.3,55.8 253.4,56.6 254.5,57.5 255.5,58.5 256.4,59.6 257.2,60.7 257.9,61.9 258.4,63.2 258.9,64.5 259.3,65.8 259.5,67.2 259.6,68.6" />
<path stroke="#000000" stroke-width="2" d="M 289.6,70" />
<path stroke="#000000" stroke-width="2" d="M 289.6,30 329.6,30" />
<path stroke="#000000" stroke-width="2" d="M 336.3,70" />
<path stroke="#000000" stroke-width="2" d="M 336.3,50 336.3,70 342,64.3 362,64.3" />
<path stroke="#000000" stroke-width="2" d="M 392,70" />
<path stroke="#000000" stroke-width="2" d="M 412,30 396.7,67" />
<path stroke="#000000" stroke-width="2" d="M 418.6,70" />
<path stroke="#000000" stroke-width="2" d="M 426.6,50" />
<path stroke="#000000" stroke-width="2" d="M 426.6,50 426.5,52 426.2,53.6 425.8,54.9 425.2,55.8 424.5,56.3 423.8,56.6 423.1,56.7 422.3,56.5 421.6,56.1 421,55.6 420.5,55 420.2,54.3 420,53.6 420,52.8 420.3,52.1 420.9,51.4 421.8,50.9 423,50.4 424.6,50.1 426.6,50 436.6,50" />
<path stroke="#000000" stroke-width="2" d="M 443.3,70" />
<path stroke="#000000" stroke-width="2" d="M 443.3,50 463.3,50" />
<path stroke="#000000" stroke-width="2" d="M 470,70" />
<path stroke="#000000" stroke-width="2" d="M 470,30 471.7,30 473.5,30.2 475.2,30.5 476.9,30.9 478.5,31.5 480.1,32.2 481.6,33.1 483,34.1 484.4,35.2 485.6,36.5 486.7,37.8 487.7,39.2 488.6,40.7 489.3,42.3 489.9,44 490.4,45.7 490.7,47.4 490.8,49.1 490.8,50.9 490.7,52.6 490.4,54.3 489.9,56 489.3,57.6 488.6,59.2 487.7,60.7 486.7,62.2 485.6,63.5 484.4,64.7 483,65.8 481.6,66.8 480.1,67.7 478.5,68.5 476.9,69.1 475.2,69.5 473.5,69.8 471.7,70" />
<path stroke="#000000" stroke-width="2" d="M 497.5,70" />
<path stroke="#000000" stroke-width="2" d="M 497.5,50 505.1,68.5" />
<path stroke="#000000" stroke-width="2" d="M 535.1,70" />
<path stroke="#000000" stroke-width="2" d="M 535.1,42 535.9,42 535.9,42.8 535.1,42.8 535.1,42" />
<path stroke="#000000" stroke-width="2" d="M 535.1,58 535.9,58 535.9,58.8 535.1,58.8 535.1,58" />
<path stroke="#000000" stroke-width="2" d="M 565.9,70" />
<path stroke="#000000" stroke-width="2" d="M 565.9,70 566.1,70 566.1,70.2 565.9,70.2 565.9,70" />
<path stroke="#000000" stroke-width="2" d="M 572.8,70" />
<path stroke="#000000" stroke-width="2" d="M 574.8,50 580.2,37.1 580.3,36.7 580.4,36.4 580.5,36.1 580.5,35.7 580.5,35.4 580.5,35 580.5,34.7 580.4,34.3 580.3,34 580.2,33.7 580,33.4 579.8,33.1 579.6,32.8 579.4,32.5 579.1,32.3 578.8,32.1 578.5,31.9 578.2,31.7 577.9,31.6 577.6,31.5 577.2,31.4 576.9,31.4 576.5,31.4 576.2,31.4 575.9,31.4 575.5,31.5 575.2,31.6 574.9,31.7 574.5,31.9 574.3,32.1 574,32.3 573.7,32.5 573.5,32.8 573.3,33.1 573.1,33.4 572.9,33.7 572.8,34 572.7,34.3 572.6,34.7 572.6,35 572.5,35.4 572.6,35.7 572.6,36.1 572.7,36.4 572.8,36.7 572.9,37.1 573.1,37.4 573.3,37.7 573.5,37.9 573.7,38.2 574,38.4 574.3,38.7 574.5,38.8 574.9,39 575.2,39.1 575.5,39.2 575.9,39.3 576.2,39.4 576.5,39.4 576.9,39.4 589.8,34 589.8,34.7 589.9,35.4 590,36.1 590.2,36.8 590.4,37.4 590.7,38 591.1,38.6 591.5,39.2 591.9,39.8 592.4,40.2 593,40.7 593.5,41.1 594.1,41.4 594.8,41.7 595.4,42 596.1,42.2 596.8,42.3 597.5,42.3 598.2,42.3 598.9,42.3 599.6,42.2 600.2,42 600.9,41.7 601.5,41.4 602.1,41.1 602.7,40.7 603.2,40.2 603.7,39.8 604.2,39.2 604.6,38.6 604.9,38 605.2,37.4 605.5,36.8 605.6,36.1 605.8,35.4 605.8,34.7" />
<path stroke="#000000" stroke-width="2" d="M 612.5,70" />
<path stroke="#000000" stroke-width="2" d="M 612.5,20 620.1,38.5" />
<path stroke="#000000" stroke-width="2" d="M 620.1,28.5" />
<path stroke="#000000" stroke-width="2" d="M 609.1,28.5 623.1,28.5" />
<path stroke="#000000" stroke-width="2" d="M 623.1,28.5 625.2,28.4 626.8,28.1 628,27.6 628.9,27 629.5,26.4 629.7,25.6 629.8,24.9 629.6,24.2 629.3,23.5 628.8,22.9 628.1,22.4 627.5,22 626.7,21.8 626,21.9 625.2,22.1 624.6,22.7 624,23.6 623.5,24.8 623.2,26.4 623.1,28.5 623.1,43.5" />
<path stroke="#000000" stroke-width="2" d="M 659.8,70" />
<path stroke="#000000" stroke-width="2" d="M 669.8,30 668.9,30 668,30.1 667.2,30.2 666.3,30.5 665.5,30.8 664.7,31.1 664,31.6 663.3,32.1 662.6,32.6 662,33.2 661.4,33.9 660.9,34.6 660.5,35.4 660.1,36.2 659.8,37 659.6,37.8 659.4,38.7 659.4,39.6 659.4,40.4 659.4,41.3 659.6,42.2 659.8,43 660.1,43.8 660.5,44.6 660.9,45.4 661.4,46.1 662,46.7 662.6,47.4 663.3,47.9 664,48.4 664.7,48.9 665.5,49.2 666.3,49.5 667.2,49.8 668,49.9 668.9,50 673.9,50 673.9,70" />
<path stroke="#000000" stroke-width="2" d="M 703.9,70" />
<path stroke="#000000" stroke-width="2" d="M 719.9,30 700.1,49.8 719.9,69.6" />
<path stroke="#000000" stroke-width="2" d="M 726.6,70" />
<path stroke="#000000" stroke-width="2" d="M 726.6,20 726.6,40 726.6,34 726.6,33.1 726.7,32.3 726.8,31.4 727,30.6 727.3,29.7 727.7,28.9 728.1,28.2 728.6,27.5 729.2,26.8 729.8,26.2 730.5,25.6 731.2,25.1 732,24.7 732.7,24.3 733.6,24 734.4,23.8 735.3,23.6 736.1,23.6 743.8,42.1" />
<path stroke="#000000" stroke-width="2" d="M 750.5,70" />
<path stroke="#000000" stroke-width="2" d="M 750.5,50 770.5,50" />
<path stroke="#000000" stroke-width="2" d="M 777.1,70" />
<path stroke="#000000" stroke-width="2" d="M 777.1,30 777.3,30 777.3,30.2 777.1,30.2 777.1,30" />
<path stroke="#000000" stroke-width="2" d="M 807.3,70" />
<path stroke="#000000" stroke-width="2" d="M 807.3,70 807.5,70 807.5,70.2 807.3,70.2 807.3,70" />
<path stroke="#000000" stroke-width="2" d="M 837.5,70" />
<path stroke="#000000" stroke-width="2" d="M 837.5,30 841.4,39.2" />
<path stroke="#000000" stroke-width="2" d="M 841.4,39.2 843.3,41.4 844.6,43.3 845.4,45 845.7,46.4 845.6,47.7 845.1,48.7 844.4,49.5 843.5,50 842.5,50.4 841.4,50.5 840.2,50.4 839.2,50 838.3,49.5 837.6,48.7 837.1,47.7 837,46.4 837.3,45 838.1,43.3 839.4,41.4 841.4,39.2 845.2,30" />
<path stroke="#000000" stroke-width="2" d="M 845.2,30 847.2,29.9 848.8,29.6 850.1,29.1 850.9,28.6 851.5,27.9 851.8,27.2 851.8,26.4 851.7,25.7 851.3,25 850.8,24.4 850.2,23.9 849.5,23.5 848.8,23.3 848,23.4 847.3,23.7 846.6,24.2 846,25.1 845.6,26.4 845.3,28 845.2,30 845.2,45 845.2,45.5 845.1,46 845,46.6 844.9,47.1 844.7,47.6 844.5,48 844.2,48.5 843.9,48.9 843.6,49.3 843.2,49.7 842.8,50 842.4,50.3 842,50.6 841.5,50.8 841,51 840.5,51.1 840,51.2 839.4,51.3 838.9,51.3 838.4,51.2 837.9,51.1 837.4,51 836.9,50.8 836.4,50.6 836,50.3 835.5,50 835.1,49.7 834.8,49.3 834.4,48.9 834.1,48.5 833.9,48 833.6,47.6 833.5,47.1 833.3,46.6 833.2,46 833.2,45.5 833.2,45 833.2,44.5 833.3,44 833.5,43.5 833.6,43 833.9,42.5 834.1,42 834.4,41.6 834.8,41.2 835.1,40.8 835.5,40.5 836,40.2 836.4,39.9 836.9,39.7 837.4,39.5 837.9,39.4 838.4,39.3 838.9,39.3 839.4,39.3 840,39.3 840.5,39.4 841,39.5 841.5,39.7 842,39.9 842.4,40.2 842.8,40.5 843.2,40.8 843.6,41.2 843.9,41.6 844.2,42 844.5,42.5 844.7,43 844.9,43.5 845,44 845.1,44.5 845.2,45 845.2,49" />
<path stroke="#000000" stroke-width="2" d="M 845.2,49 844.9,49.9 844.5,50.7 844.1,51.4 843.8,52.1 843.3,52.8 842.9,53.4 842.4,53.9 841.9,54.4 841.4,54.9 840.9,55.2 840.4,55.6 839.8,55.9 839.3,56.2 838.7,56.4 838.1,56.6 837.6,56.7 837,56.9 836.4,56.9 835.8,57 835.2,57" />
<path stroke="#000000" stroke-width="2" d="M 881.8,70" />
<path stroke="#000000" stroke-width="2" d="M 881.8,70 882,70 882,70.2 881.8,70.2 881.8,70" />
<path stroke="#000000" stroke-width="2" d="M 888.7,70" />
<path stroke="#000000" stroke-width="2" d="M 888.7,30 904,67" />
<path stroke="#000000" stroke-width="2" d="M 910.7,70" />
<path stroke="#000000" stroke-width="2" d="M 920.7,20 920.7,40 910.7,40" />
<path stroke="#000000" stroke-width="2" d="M 927.3,70" />
<path stroke="#000000" stroke-width="2" d="M 927.3,70 927.3,68.6 927.5,67.2 927.7,65.8 928.1,64.5 928.5,63.2 929.1,61.9 929.8,60.7 930.6,59.6 931.5,58.5 932.5,57.5 933.6,56.6 934.7,55.8 935.9,55.1 937.2,54.5 938.5,54 939.9,53.7 941.2,53.4 942.6,53.3 944,53.3 945.4,53.4 946.8,53.7 948.1,54 949.4,54.5 950.7,55.1 951.9,55.8 953.1,56.6 954.1,57.5 955.1,58.5 956,59.6 956.8,60.7 957.5,61.9 958.1,63.2 958.6,64.5 958.9,65.8 959.2,67.2 959.3,68.6" />
<path stroke="#000000" stroke-width="2" d="M 989.3,70" />
<path stroke="#000000" stroke-width="2" d="M 999.3,30 998.4,30 997.6,30.1 996.7,30.2 995.9,30.5 995,30.8 994.3,31.1 993.5,31.6 992.8,32.1 992.1,32.6 991.5,33.2 990.9,33.9 990.4,34.6 990,35.4 989.6,36.2 989.3,37 989.1,37.8 989,38.7 988.9,39.6 988.9,40.4 989,41.3 989.1,42.2 989.3,43 989.6,43.8 990,44.6 990.4,45.4 990.9,46.1 991.5,46.7 992.1,47.4 992.8,47.9 993.5,48.4 994.3,48.9 995,49.2 995.9,49.5 996.7,49.8 997.6,49.9 998.4,50 1003.4,50 1003.4,70" />
<path stroke="#000000" stroke-width="2" d="M 1033.4,70" />
</svg>