<svg xmlns="http://www.w3.org/2000/svg" width="1098.8122564853027" height="108.47759065022574" style="fill:none; stroke-linecap:round;">
    <rect width="100%" height="100%" fill="#FFFFFF" />
<path stroke="#000000" stroke-width="2" d="M 550,75" />
<path stroke="#000000" stroke-width="2" d="M 40,30 24.7,67" />
<path stroke="#000000" stroke-width="2" d="M 46.7,70" />
<path stroke="#000000" stroke-width="2" d="M 46.7,56" />
<path stroke="#000000" stroke-width="2" d="M 46.7,56 48.7,55.9 50.3,55.6 51.5,55.1 52.4,54.6 53,53.9 53.3,53.2 53.3,52.4 53.1,51.7 52.8,51 52.3,50.4 51.7,49.9 51,49.5 50.2,49.3 49.5,49.4 48.8,49.7 48.1,50.2 47.5,51.1 47.1,52.4 46.8,54 46.7,56 46.7,60" />
<path stroke="#000000" stroke-width="2" d="M 46.7,60 47,60.9 47.3,61.7 47.7,62.4 48.1,63.1 48.5,63.8 49,64.4 49.4,64.9 49.9,65.4 50.4,65.9 50.9,66.2 51.4,66.6 52,66.9 52.6,67.2 53.1,67.4 53.7,67.6 54.3,67.7 54.9,67.9 55.5,67.9 56.1,68 56.7,68" />
<path stroke="#000000" stroke-width="2" d="M 86.7,70" />
<path stroke="#000000" stroke-width="2" d="M 86.7,30 86.7,70 106.7,70" />
<path stroke="#000000" stroke-width="2" d="M 136.7,70" />
<path stroke="#000000" stroke-width="2" d="M 136.7,30 136.7,70 148,58.7" />
<path stroke="#000000" stroke-width="2" d="M 154.6,70" />
<path stroke="#000000" stroke-width="2" d="M 154.6,20 174.6,20 154.8,39.8 174.8,39.8" />
<path stroke="#000000" stroke-width="2" d="M 204.8,70" />
<path stroke="#000000" stroke-width="2" d="M 204.8,35" />
<path stroke="#000000" stroke-width="2" d="M 204.8,35 206.9,34.9 208.5,34.6 209.7,34.1 210.6,33.6 211.2,32.9 211.5,32.2 211.5,31.4 211.3,30.7 211,30 210.5,29.4 209.9,28.9 209.2,28.5 208.4,28.3 207.7,28.4 207,28.7 206.3,29.2 205.7,30.1 205.3,31.4 205,33 204.8,35 204.8,50 197.2,68.5" />
<path stroke="#000000" stroke-width="2" d="M 218.2,70" />
<path stroke="#000000" stroke-width="2" d="M 218.2,30 218.2,31.4 218.3,32.8 218.5,34.2 218.9,35.5 219.4,36.8 220,38.1 220.7,39.3 221.5,40.4 222.4,41.5 223.3,42.5 224.4,43.4 225.6,44.2 226.8,44.9 228,45.5 229.3,46 230.7,46.3 232.1,46.6 233.5,46.7 234.9,46.7 236.2,46.6 237.6,46.3 239,46 240.3,45.5 241.5,44.9 242.8,44.2 243.9,43.4 245,42.5 246,41.5 246.8,40.4 247.6,39.3 248.3,38.1 248.9,36.8 249.4,35.5 249.8,34.2 250,32.8 250.1,31.4" />
<path stroke="#000000" stroke-width="2" d="M 280.1,70" />
<path stroke="#000000" stroke-width="2" d="M 280.1,70 295.4,33 295.4,34.4 295.6,35.8 295.8,37.2 296.2,38.6 296.6,39.9 297.2,41.1 297.9,42.3 298.7,43.5 299.6,44.6 300.6,45.5 301.7,46.4 302.8,47.2 304,47.9 305.3,48.5 306.6,49 308,49.4 309.3,49.6 310.7,49.7 312.1,49.7 313.5,49.6 314.9,49.4 316.2,49 317.6,48.5 318.8,47.9 320,47.2 321.2,46.4 322.2,45.5 323.2,44.6 324.1,43.5 324.9,42.3 325.6,41.1 326.2,39.9 326.7,38.6 327.1,37.2 327.3,35.8 327.4,34.4" />
<path stroke="#000000" stroke-width="2" d="M 334.1,70" />
<path stroke="#000000" stroke-width="2" d="M 334.1,30 349.4,67 364.7,30" />
<path stroke="#000000" stroke-width="2" d="M 394.7,70" />
<path stroke="#000000" stroke-width="2" d="M 394.7,30 414.7,30" />
<path stroke="#000000" stroke-width="2" d="M 414.7,30 416.1,30.1 417.4,30.6 418.5,31.2 419.5,32.1 420.3,33.1 421,34.3 421.5,35.6 421.9,37 422.1,38.5 422.2,40 422.1,41.5 421.9,43 421.5,44.4 421,45.7 420.3,46.9 419.5,47.9 418.5,48.8 417.4,49.4 416.1,49.9 414.7,50" />
<path stroke="#000000" stroke-width="2" d="M 452.2,70" />
<path stroke="#000000" stroke-width="2" d="M 452.2,30 452.2,50 462.2,50 454.5,68.5" />
<path stroke="#000000" stroke-width="2" d="M 492.2,70" />
<path stroke="#000000" stroke-width="2" d="M 492.2,30 492.2,70 503.5,58.7" />
<path stroke="#000000" stroke-width="2" d="M 510.2,70" />
<path stroke="#000000" stroke-width="2" d="M 510.2,25" />
<path stroke="#000000" stroke-width="2" d="M 510.2,25 512.2,24.9 513.8,24.6 515.1,24.1 515.9,23.6 516.5,22.9 516.8,22.2 516.8,21.4 516.7,20.7 516.3,20 515.8,19.4 515.2,18.9 514.5,18.5 513.8,18.3 513,18.4 512.3,18.7 511.6,19.2 511,20.1 510.6,21.4 510.3,23 510.2,25 510.2,40" />
<path stroke="#000000" stroke-width="2" d="M 546.8,70" />
<path stroke="#000000" stroke-width="2" d="M 566.8,30 566.8,70 546.8,70" />
<path stroke="#000000" stroke-width="2" d="M 573.5,70" />
<path stroke="#000000" stroke-width="2" d="M 573.5,55" />
<path stroke="#000000" stroke-width="2" d="M 573.5,55 575.5,54.9 577.1,54.6 578.4,54.1 579.3,53.6 579.8,52.9 580.1,52.2 580.2,51.4 580,50.7 579.6,50 579.1,49.4 578.5,48.9 577.8,48.5 577.1,48.3 576.3,48.4 575.6,48.7 574.9,49.2 574.4,50.1 573.9,51.4 573.6,53 573.5,55 573.5,70 565.8,88.5" />
<path stroke="#000000" stroke-width="2" d="M 610.2,70" />
<path stroke="#000000" stroke-width="2" d="M 610.2,40 610.4,40 610.4,40.2 610.2,40.2 610.2,40" />
<path stroke="#000000" stroke-width="2" d="M 617,70" />
<path stroke="#000000" stroke-width="2" d="M 617,30" />
<path stroke="#000000" stroke-width="2" d="M 617,30 619.9,30.3 622.4,31.1 624.7,32.4 626.6,34.2 628.3,36.2 629.6,38.6 630.7,41.3 631.4,44.1 631.9,47 632,50 631.9,53 631.4,55.9 630.7,58.7 629.6,61.4 628.3,63.8 626.6,65.8 624.7,67.6 622.4,68.9 619.9,69.7 617,70 618.3,68.8 619.6,67.6 621,66.6 622.5,65.8 624.1,65 625.8,64.4 627.4,64 629.2,63.7 630.9,63.5 632.6,63.5 634.4,63.7 636.1,64 637.8,64.4 639.4,65 641,65.8" />
<path stroke="#000000" stroke-width="2" d="M 647.7,70" />
<path stroke="#000000" stroke-width="2" d="M 647.7,30 663,67" />
<path stroke="#000000" stroke-width="2" d="M 693,70" />
<path stroke="#000000" stroke-width="2" d="M 693,70" />
<path stroke="#000000" stroke-width="2" d="M 693,70 694.1,70 695.1,70.2 695.9,70.4 696.6,70.7 697.2,71 697.6,71.5 698,71.9 698.2,72.5 698.2,73.1 698.2,73.8 698.1,74.4 697.9,75.2 697.5,76 697.1,76.8 696.6,77.6 696,78.4 695.4,79.3 694.6,80.2 693.8,81.1 693,82" />
<path stroke="#000000" stroke-width="2" d="M 728.2,70" />
<path stroke="#000000" stroke-width="2" d="M 728.2,30 728.2,70" />
<path stroke="#000000" stroke-width="2" d="M 734.9,70" />
<path stroke="#000000" stroke-width="2" d="M 744.9,50 737.3,68.5" />
<path stroke="#000000" stroke-width="2" d="M 774.9,70" />
<path stroke="#000000" stroke-width="2" d="M 774.9,30 774.9,70 794.9,70" />
<path stroke="#000000" stroke-width="2" d="M 824.9,70" />
<path stroke="#000000" stroke-width="2" d="M 824.9,30 864.9,30" />
<path stroke="#000000" stroke-width="2" d="M 871.6,70" />
<path stroke="#000000" stroke-width="2" d="M 871.6,50 871.8,50 871.8,50.2 871.6,50.2 871.6,50" />
<path stroke="#000000" stroke-width="2" d="M 901.8,70" />
<path stroke="#000000" stroke-width="2" d="M 901.8,30 901.8,70 921.8,70" />
<path stroke="#000000" stroke-width="2" d="M 951.8,70" />
<path stroke="#000000" stroke-width="2" d="M 967.8,30 948,49.8 967.8,69.6" />
<path stroke="#000000" stroke-width="2" d="M 974.4,70" />
<path stroke="#000000" stroke-width="2" d="M 974.4,20" />
<path stroke="#000000" stroke-width="2" d="M 974.4,20 975.9,20.1 977.1,20.6 978.3,21.2 979.2,22.1 980.1,23.1 980.7,24.3 981.3,25.6 981.6,27 981.9,28.5 981.9,30 981.9,31.5 981.6,33 981.3,34.4 980.7,35.7 980.1,36.9 979.2,37.9 978.3,38.8 977.1,39.4 975.9,39.9 974.4,40" />
<path stroke="#000000" stroke-width="2" d="M 1011.9,70" />
<path stroke="#000000" stroke-width="2" d="M 1011.9,30" />
<path stroke="#000000" stroke-width="2" d="M 1011.9,30 1014.8,30.3 1017.3,31.1 1019.6,32.4 1021.5,34.2 1023.2,36.2 1024.5,38.6 1025.6,41.3 1026.3,44.1 1026.8,47 1026.9,50 1026.8,53 1026.3,55.9 1025.6,58.7 1024.5,61.4 1023.2,63.8 1021.5,65.8 1019.6,67.6 1017.3,68.9 1014.8,69.7 1011.9,70" />
<path stroke="#000000" stroke-width="2" d="M 1033.6,70" />
<path stroke="#000000" stroke-width="2" d="M 1033.6,30" />
<path stroke="#000000" stroke-width="2" d="M 1033.6,30 1036.5,30.3 1039,31.1 1041.3,32.4 1043.2,34.2 1044.9,36.2 1046.2,38.6 1047.3,41.3 1048,44.1 1048.5,47 1048.6,50 1048.5,53 1048,55.9 1047.3,58.7 1046.2,61.4 1044.9,63.8 1043.2,65.8 1041.3,67.6 1039,68.9 1036.5,69.7 1033.6,70" />
<path stroke="#000000" stroke-width="2" d="M 1078.6,70" />
<path stroke="#000000" stroke-width="2" d="M 1078.6,70 1078.8,70 1078.8,70.2 1078.6,70.2 1078.6,70" />
<path stroke="#000000" stroke-width="2" d="M 1108.8,70" />
</svg>